  0
SECTION
  2
HEADER
  9
$ACADVER
  1
AC1024
  9
$ACADMAINTVER
 70
6
  9
$DWGCODEPAGE
  3
ANSI_1252
  9
$LASTSAVEDBY
  1
ezdxf
  9
$INSBASE
 10
0.0
 20
0.0
 30
0.0
  9
$EXTMIN
 10
1e+20
 20
1e+20
 30
1e+20
  9
$EXTMAX
 10
-1e+20
 20
-1e+20
 30
-1e+20
  9
$LIMMIN
 10
0.0
 20
0.0
  9
$LIMMAX
 10
420.0
 20
297.0
  9
$ORTHOMODE
 70
0
  9
$REGENMODE
 70
1
  9
$FILLMODE
 70
1
  9
$QTEXTMODE
 70
0
  9
$MIRRTEXT
 70
1
  9
$LTSCALE
 40
1.0
  9
$ATTMODE
 70
1
  9
$TEXTSIZE
 40
2.5
  9
$TRACEWID
 40
1.0
  9
$TEXTSTYLE
  7
Standard
  9
$CLAYER
  8
0
  9
$CELTYPE
  6
ByLayer
  9
$CECOLOR
 62
256
  9
$CELTSCALE
 40
1.0
  9
$DISPSILH
 70
0
  9
$DIMSCALE
 40
1.0
  9
$DIMASZ
 40
2.5
  9
$DIMEXO
 40
0.625
  9
$DIMDLI
 40
3.75
  9
$DIMRND
 40
0.0
  9
$DIMDLE
 40
0.0
  9
$DIMEXE
 40
1.25
  9
$DIMTP
 40
0.0
  9
$DIMTM
 40
0.0
  9
$DIMTXT
 40
2.5
  9
$DIMCEN
 40
2.5
  9
$DIMTSZ
 40
0.0
  9
$DIMTOL
 70
0
  9
$DIMLIM
 70
0
  9
$DIMTIH
 70
0
  9
$DIMTOH
 70
0
  9
$DIMSE1
 70
0
  9
$DIMSE2
 70
0
  9
$DIMTAD
 70
1
  9
$DIMZIN
 70
8
  9
$DIMBLK
  1

  9
$DIMASO
 70
1
  9
$DIMSHO
 70
1
  9
$DIMPOST
  1

  9
$DIMAPOST
  1

  9
$DIMALT
 70
0
  9
$DIMALTD
 70
3
  9
$DIMALTF
 40
0.03937007874
  9
$DIMLFAC
 40
1.0
  9
$DIMTOFL
 70
1
  9
$DIMTVP
 40
0.0
  9
$DIMTIX
 70
0
  9
$DIMSOXD
 70
0
  9
$DIMSAH
 70
0
  9
$DIMBLK1
  1

  9
$DIMBLK2
  1

  9
$DIMSTYLE
  2
ISO-25
  9
$DIMCLRD
 70
0
  9
$DIMCLRE
 70
0
  9
$DIMCLRT
 70
0
  9
$DIMTFAC
 40
1.0
  9
$DIMGAP
 40
0.625
  9
$DIMJUST
 70
0
  9
$DIMSD1
 70
0
  9
$DIMSD2
 70
0
  9
$DIMTOLJ
 70
0
  9
$DIMTZIN
 70
8
  9
$DIMALTZ
 70
0
  9
$DIMALTTZ
 70
0
  9
$DIMUPT
 70
0
  9
$DIMDEC
 70
2
  9
$DIMTDEC
 70
2
  9
$DIMALTU
 70
2
  9
$DIMALTTD
 70
3
  9
$DIMTXSTY
  7
Standard
  9
$DIMAUNIT
 70
0
  9
$DIMADEC
 70
0
  9
$DIMALTRND
 40
0.0
  9
$DIMAZIN
 70
0
  9
$DIMDSEP
 70
44
  9
$DIMATFIT
 70
3
  9
$DIMFRAC
 70
0
  9
$DIMLDRBLK
  1

  9
$DIMLUNIT
 70
2
  9
$DIMLWD
 70
-2
  9
$DIMLWE
 70
-2
  9
$DIMTMOVE
 70
0
  9
$DIMFXL
 40
1.0
  9
$DIMFXLON
 70
0
  9
$DIMJOGANG
 40
0.785398163397
  9
$DIMTFILL
 70
0
  9
$DIMTFILLCLR
 70
0
  9
$DIMARCSYM
 70
0
  9
$DIMLTYPE
  6

  9
$DIMLTEX1
  6

  9
$DIMLTEX2
  6

  9
$DIMTXTDIRECTION
 70
0
  9
$LUNITS
 70
2
  9
$LUPREC
 70
4
  9
$SKETCHINC
 40
1.0
  9
$FILLETRAD
 40
10.0
  9
$AUNITS
 70
0
  9
$AUPREC
 70
2
  9
$MENU
  1
.
  9
$ELEVATION
 40
0.0
  9
$PELEVATION
 40
0.0
  9
$THICKNESS
 40
0.0
  9
$LIMCHECK
 70
0
  9
$CHAMFERA
 40
0.0
  9
$CHAMFERB
 40
0.0
  9
$CHAMFERC
 40
0.0
  9
$CHAMFERD
 40
0.0
  9
$SKPOLY
 70
0
  9
$TDCREATE
 40
2461147.4845949076
  9
$TDUCREATE
 40
2458532.153996898
  9
$TDUPDATE
 40
2461147.4845949076
  9
$TDUUPDATE
 40
2458532.1544311
  9
$TDINDWG
 40
0.0
  9
$TDUSRTIMER
 40
0.0
  9
$USRTIMER
 70
1
  9
$ANGBASE
 50
0.0
  9
$ANGDIR
 70
0
  9
$PDMODE
 70
0
  9
$PDSIZE
 40
0.0
  9
$PLINEWID
 40
0.0
  9
$SPLFRAME
 70
0
  9
$SPLINETYPE
 70
6
  9
$SPLINESEGS
 70
8
  9
$HANDSEED
  5
1F2
  9
$SURFTAB1
 70
6
  9
$SURFTAB2
 70
6
  9
$SURFTYPE
 70
6
  9
$SURFU
 70
6
  9
$SURFV
 70
6
  9
$UCSBASE
  2

  9
$UCSNAME
  2

  9
$UCSORG
 10
0.0
 20
0.0
 30
0.0
  9
$UCSXDIR
 10
1.0
 20
0.0
 30
0.0
  9
$UCSYDIR
 10
0.0
 20
1.0
 30
0.0
  9
$UCSORTHOREF
  2

  9
$UCSORTHOVIEW
 70
0
  9
$UCSORGTOP
 10
0.0
 20
0.0
 30
0.0
  9
$UCSORGBOTTOM
 10
0.0
 20
0.0
 30
0.0
  9
$UCSORGLEFT
 10
0.0
 20
0.0
 30
0.0
  9
$UCSORGRIGHT
 10
0.0
 20
0.0
 30
0.0
  9
$UCSORGFRONT
 10
0.0
 20
0.0
 30
0.0
  9
$UCSORGBACK
 10
0.0
 20
0.0
 30
0.0
  9
$PUCSBASE
  2

  9
$PUCSNAME
  2

  9
$PUCSORG
 10
0.0
 20
0.0
 30
0.0
  9
$PUCSXDIR
 10
1.0
 20
0.0
 30
0.0
  9
$PUCSYDIR
 10
0.0
 20
1.0
 30
0.0
  9
$PUCSORTHOREF
  2

  9
$PUCSORTHOVIEW
 70
0
  9
$PUCSORGTOP
 10
0.0
 20
0.0
 30
0.0
  9
$PUCSORGBOTTOM
 10
0.0
 20
0.0
 30
0.0
  9
$PUCSORGLEFT
 10
0.0
 20
0.0
 30
0.0
  9
$PUCSORGRIGHT
 10
0.0
 20
0.0
 30
0.0
  9
$PUCSORGFRONT
 10
0.0
 20
0.0
 30
0.0
  9
$PUCSORGBACK
 10
0.0
 20
0.0
 30
0.0
  9
$USERI1
 70
0
  9
$USERI2
 70
0
  9
$USERI3
 70
0
  9
$USERI4
 70
0
  9
$USERI5
 70
0
  9
$USERR1
 40
0.0
  9
$USERR2
 40
0.0
  9
$USERR3
 40
0.0
  9
$USERR4
 40
0.0
  9
$USERR5
 40
0.0
  9
$WORLDVIEW
 70
1
  9
$SHADEDGE
 70
3
  9
$SHADEDIF
 70
70
  9
$TILEMODE
 70
1
  9
$MAXACTVP
 70
64
  9
$PINSBASE
 10
0.0
 20
0.0
 30
0.0
  9
$PLIMCHECK
 70
0
  9
$PEXTMIN
 10
1e+20
 20
1e+20
 30
1e+20
  9
$PEXTMAX
 10
-1e+20
 20
-1e+20
 30
-1e+20
  9
$PLIMMIN
 10
0.0
 20
0.0
  9
$PLIMMAX
 10
420.0
 20
297.0
  9
$UNITMODE
 70
0
  9
$VISRETAIN
 70
1
  9
$PLINEGEN
 70
0
  9
$PSLTSCALE
 70
1
  9
$TREEDEPTH
 70
3020
  9
$CMLSTYLE
  2
Standard
  9
$CMLJUST
 70
0
  9
$CMLSCALE
 40
20.0
  9
$PROXYGRAPHICS
 70
1
  9
$MEASUREMENT
 70
1
  9
$CELWEIGHT
370
-1
  9
$ENDCAPS
280
0
  9
$JOINSTYLE
280
0
  9
$LWDISPLAY
290
0
  9
$INSUNITS
 70
0
  9
$HYPERLINKBASE
  1

  9
$STYLESHEET
  1

  9
$XEDIT
290
1
  9
$CEPSNTYPE
380
0
  9
$PSTYLEMODE
290
1
  9
$FINGERPRINTGUID
  2
{4F2220C1-F3AE-445E-AFE3-74EE3600DE1E}
  9
$VERSIONGUID
  2
{0FE1EA53-6E8D-4793-B43C-D67A688CC785}
  9
$EXTNAMES
290
1
  9
$PSVPSCALE
 40
0.0
  9
$OLESTARTUP
290
0
  9
$SORTENTS
280
127
  9
$INDEXCTL
280
0
  9
$HIDETEXT
280
1
  9
$XCLIPFRAME
280
1
  9
$HALOGAP
280
0
  9
$OBSCOLOR
 70
257
  9
$OBSLTYPE
280
0
  9
$INTERSECTIONDISPLAY
280
0
  9
$INTERSECTIONCOLOR
 70
257
  9
$DIMASSOC
280
2
  9
$PROJECTNAME
  1

  9
$CAMERADISPLAY
290
0
  9
$LENSLENGTH
 40
50.0
  9
$CAMERAHEIGHT
 40
0.0
  9
$STEPSPERSEC
 40
24.0
  9
$STEPSIZE
 40
100.0
  9
$3DDWFPREC
 40
2.0
  9
$PSOLWIDTH
 40
0.005
  9
$PSOLHEIGHT
 40
0.08
  9
$LOFTANG1
 40
1.570796326795
  9
$LOFTANG2
 40
1.570796326795
  9
$LOFTMAG1
 40
0.0
  9
$LOFTMAG2
 40
0.0
  9
$LOFTPARAM
 70
7
  9
$LOFTNORMALS
280
1
  9
$LATITUDE
 40
37.795
  9
$LONGITUDE
 40
-122.394
  9
$NORTHDIRECTION
 40
0.0
  9
$TIMEZONE
 70
-8000
  9
$LIGHTGLYPHDISPLAY
280
1
  9
$TILEMODELIGHTSYNCH
280
1
  9
$CMATERIAL
347
20
  9
$SOLIDHIST
280
0
  9
$SHOWHIST
280
1
  9
$DWFFRAME
280
2
  9
$DGNFRAME
280
2
  9
$REALWORLDSCALE
290
1
  9
$INTERFERECOLOR
 62
256
  9
$CSHADOW
280
0
  9
$SHADOWPLANELOCATION
 40
0.0
  0
ENDSEC
  0
SECTION
  2
CLASSES
  0
CLASS
  1
ACDBDICTIONARYWDFLT
  2
AcDbDictionaryWithDefault
  3
ObjectDBX Classes
 90
0
 91
0
280
0
281
0
  0
CLASS
  1
SUN
  2
AcDbSun
  3
SCENEOE
 90
1153
 91
0
280
0
281
0
  0
CLASS
  1
VISUALSTYLE
  2
AcDbVisualStyle
  3
ObjectDBX Classes
 90
4095
 91
0
280
0
281
0
  0
CLASS
  1
MATERIAL
  2
AcDbMaterial
  3
ObjectDBX Classes
 90
1153
 91
0
280
0
281
0
  0
CLASS
  1
SCALE
  2
AcDbScale
  3
ObjectDBX Classes
 90
1153
 91
0
280
0
281
0
  0
CLASS
  1
TABLESTYLE
  2
AcDbTableStyle
  3
ObjectDBX Classes
 90
4095
 91
0
280
0
281
0
  0
CLASS
  1
MLEADERSTYLE
  2
AcDbMLeaderStyle
  3
ACDB_MLEADERSTYLE_CLASS
 90
4095
 91
0
280
0
281
0
  0
CLASS
  1
DICTIONARYVAR
  2
AcDbDictionaryVar
  3
ObjectDBX Classes
 90
0
 91
0
280
0
281
0
  0
CLASS
  1
CELLSTYLEMAP
  2
AcDbCellStyleMap
  3
ObjectDBX Classes
 90
1152
 91
0
280
0
281
0
  0
CLASS
  1
MENTALRAYRENDERSETTINGS
  2
AcDbMentalRayRenderSettings
  3
SCENEOE
 90
1024
 91
0
280
0
281
0
  0
CLASS
  1
ACDBDETAILVIEWSTYLE
  2
AcDbDetailViewStyle
  3
ObjectDBX Classes
 90
1025
 91
0
280
0
281
0
  0
CLASS
  1
ACDBSECTIONVIEWSTYLE
  2
AcDbSectionViewStyle
  3
ObjectDBX Classes
 90
1025
 91
0
280
0
281
0
  0
CLASS
  1
RASTERVARIABLES
  2
AcDbRasterVariables
  3
ISM
 90
0
 91
0
280
0
281
0
  0
CLASS
  1
ACDBPLACEHOLDER
  2
AcDbPlaceHolder
  3
ObjectDBX Classes
 90
0
 91
0
280
0
281
0
  0
CLASS
  1
LAYOUT
  2
AcDbLayout
  3
ObjectDBX Classes
 90
0
 91
0
280
0
281
0
  0
ENDSEC
  0
SECTION
  2
TABLES
  0
TABLE
  2
VPORT
  5
8
330
0
100
AcDbSymbolTable
 70
1
  0
VPORT
  5
23
330
8
100
AcDbSymbolTableRecord
100
AcDbViewportTableRecord
  2
*Active
 70
0
 10
0.0
 20
0.0
 11
1.0
 21
1.0
 12
0.0
 22
0.0
 13
0.0
 23
0.0
 14
0.5
 24
0.5
 15
0.5
 25
0.5
 16
0.0
 26
0.0
 36
1.0
 17
0.0
 27
0.0
 37
0.0
 40
1000.0
 41
1.34
 42
50.0
 43
0.0
 44
0.0
 50
0.0
 51
0.0
 71
0
 72
1000
 73
1
 74
3
 75
0
 76
0
 77
0
 78
0
281
0
 65
0
146
0.0
  0
ENDTAB
  0
TABLE
  2
LTYPE
  5
2
330
0
100
AcDbSymbolTable
 70
3
  0
LTYPE
  5
24
330
2
100
AcDbSymbolTableRecord
100
AcDbLinetypeTableRecord
  2
ByBlock
 70
0
  3

 72
65
 73
0
 40
0.0
  0
LTYPE
  5
25
330
2
100
AcDbSymbolTableRecord
100
AcDbLinetypeTableRecord
  2
ByLayer
 70
0
  3

 72
65
 73
0
 40
0.0
  0
LTYPE
  5
26
330
2
100
AcDbSymbolTableRecord
100
AcDbLinetypeTableRecord
  2
Continuous
 70
0
  3

 72
65
 73
0
 40
0.0
  0
ENDTAB
  0
TABLE
  2
LAYER
  5
1
330
0
100
AcDbSymbolTable
 70
2
  0
LAYER
  5
27
330
1
100
AcDbSymbolTableRecord
100
AcDbLayerTableRecord
  2
0
 70
0
 62
7
  6
Continuous
370
-3
390
13
347
21
  0
LAYER
  5
28
330
1
100
AcDbSymbolTableRecord
100
AcDbLayerTableRecord
  2
Defpoints
 70
0
 62
7
  6
Continuous
290
0
370
-3
390
13
347
21
  0
ENDTAB
  0
TABLE
  2
STYLE
  5
5
330
0
100
AcDbSymbolTable
 70
1
  0
STYLE
  5
29
330
5
100
AcDbSymbolTableRecord
100
AcDbTextStyleTableRecord
  2
Standard
 70
0
 40
0.0
 41
1.0
 50
0.0
 71
0
 42
2.5
  3
txt
  4

  0
ENDTAB
  0
TABLE
  2
VIEW
  5
7
330
0
100
AcDbSymbolTable
 70
0
  0
ENDTAB
  0
TABLE
  2
UCS
  5
6
330
0
100
AcDbSymbolTable
 70
0
  0
ENDTAB
  0
TABLE
  2
APPID
  5
3
330
0
100
AcDbSymbolTable
 70
3
  0
APPID
  5
2A
330
3
100
AcDbSymbolTableRecord
100
AcDbRegAppTableRecord
  2
ACAD
 70
0
  0
APPID
  5
1EF
330
3
100
AcDbSymbolTableRecord
100
AcDbRegAppTableRecord
  2
HATCHBACKGROUNDCOLOR
 70
0
  0
APPID
  5
1F0
330
3
100
AcDbSymbolTableRecord
100
AcDbRegAppTableRecord
  2
EZDXF
 70
0
  0
ENDTAB
  0
TABLE
  2
DIMSTYLE
  5
4
330
0
100
AcDbSymbolTable
 70
1
100
AcDbDimStyleTable
  0
DIMSTYLE
105
2B
330
4
100
AcDbSymbolTableRecord
100
AcDbDimStyleTableRecord
  2
Standard
 70
0
 40
1.0
 41
2.5
 42
0.625
 43
3.75
 44
1.25
 45
0.0
 46
0.0
 47
0.0
 48
0.0
 49
2.5
140
2.5
141
2.5
142
0.0
143
0.03937007874
144
1.0
145
0.0
146
1.0
147
0.625
148
0.0
 69
0
 70
0
 71
0
 72
0
 73
0
 74
0
 75
0
 76
0
 77
1
 78
8
 79
3
170
0
171
3
172
1
173
0
174
0
175
0
176
0
177
0
178
0
179
2
271
2
272
2
273
2
274
3
275
0
276
0
277
2
278
44
279
0
280
0
281
0
282
0
283
0
284
8
285
0
286
0
288
0
289
3
290
0
371
-2
372
-2
  0
ENDTAB
  0
TABLE
  2
BLOCK_RECORD
  5
9
330
0
100
AcDbSymbolTable
 70
2
  0
BLOCK_RECORD
  5
17
330
9
100
AcDbSymbolTableRecord
100
AcDbBlockTableRecord
  2
*Model_Space
340
1A
 70
0
280
1
281
0
  0
BLOCK_RECORD
  5
1B
330
9
100
AcDbSymbolTableRecord
100
AcDbBlockTableRecord
  2
*Paper_Space
340
1E
 70
0
280
1
281
0
  0
ENDTAB
  0
ENDSEC
  0
SECTION
  2
BLOCKS
  0
BLOCK
  5
18
330
17
100
AcDbEntity
  8
0
100
AcDbBlockBegin
  2
*Model_Space
 70
0
 10
0.0
 20
0.0
 30
0.0
  3
*Model_Space
  1

  0
ENDBLK
  5
19
330
17
100
AcDbEntity
  8
0
100
AcDbBlockEnd
  0
BLOCK
  5
1C
330
1B
100
AcDbEntity
  8
0
100
AcDbBlockBegin
  2
*Paper_Space
 70
0
 10
0.0
 20
0.0
 30
0.0
  3
*Paper_Space
  1

  0
ENDBLK
  5
1D
330
1B
100
AcDbEntity
  8
0
100
AcDbBlockEnd
  0
ENDSEC
  0
SECTION
  2
ENTITIES
  0
LINE
  5
2F
330
17
100
AcDbEntity
  8
0
100
AcDbLine
 10
-7.435793734864773
 20
1871.589495477731
 30
0.0
 11
872.1842550607024
 21
1879.2658233496709
 31
0.0
  0
LINE
  5
30
330
17
100
AcDbEntity
  8
0
100
AcDbLine
 10
-1.7669813048187142
 20
1222.0079312825017
 30
0.0
 11
877.8530674907485
 21
1229.6842591544414
 31
0.0
  0
LINE
  5
31
330
17
100
AcDbEntity
  8
0
100
AcDbLine
 10
340.70842981006
 20
1874.627704088724
 30
0.0
 11
357.11918667754827
 21
-5.858772957053361
 31
0.0
  0
LINE
  5
32
330
17
100
AcDbEntity
  8
0
100
AcDbLine
 10
872.0914926754834
 20
1889.8953398546837
 30
0.0
 11
888.5950119281907
 21
-1.2206536961066377
 31
0.0
  0
LINE
  5
33
330
17
100
AcDbEntity
  8
0
100
AcDbLine
 10
3.9018311252273343
 20
572.4263670872735
 30
0.0
 11
883.5218799207945
 21
580.1026949592133
 31
0.0
  0
LINE
  5
34
330
17
100
AcDbEntity
  8
0
100
AcDbLine
 10
881.2131272220122
 20
844.6595501950837
 30
0.0
 11
822.1602577497188
 21
844.1442036105341
 31
0.0
  0
LINE
  5
35
330
17
100
AcDbEntity
  8
0
100
AcDbLine
 10
822.1602577497188
 20
844.1442036105341
 30
0.0
 11
821.8510497989889
 21
879.5759252939149
 31
0.0
  0
LINE
  5
36
330
17
100
AcDbEntity
  8
0
100
AcDbLine
 10
880.6462459790075
 20
909.6177066146114
 30
0.0
 11
368.067338959498
 21
905.1444982607205
 31
0.0
  0
LINE
  5
37
330
17
100
AcDbEntity
  8
0
100
AcDbLine
 10
338.54090422335105
 20
904.8868249684457
 30
0.0
 11
149.5717219120096
 21
903.2377158978868
 31
0.0
  0
LINE
  5
38
330
17
100
AcDbEntity
  8
0
100
AcDbLine
 10
338.69550819871597
 20
887.1709641267564
 30
0.0
 11
1.1808011588052372
 21
884.2255179009824
 31
0.0
  0
LINE
  5
39
330
17
100
AcDbEntity
  8
0
100
AcDbLine
 10
821.8510497989889
 20
879.5759252939149
 30
0.0
 11
338.7985775156259
 21
875.3603902322989
 31
0.0
  0
LINE
  5
3A
330
17
100
AcDbEntity
  8
0
100
AcDbLine
 10
888.1806130451233
 20
46.26475492967802
 30
0.0
 11
902.3533017184742
 21
46.38843810996991
 31
0.0
  0
LINE
  5
3B
330
17
100
AcDbEntity
  8
0
100
AcDbLine
 10
884.4391968412929
 20
474.9885872985294
 30
0.0
 11
898.6118855146437
 21
475.1122704788213
 31
0.0
  0
LINE
  5
3C
330
17
100
AcDbEntity
  8
0
100
AcDbLine
 10
885.5729593273021
 20
345.0722744594833
 30
0.0
 11
899.745648000653
 21
345.1959576397752
 31
0.0
  0
LINE
  5
3D
330
17
100
AcDbEntity
  8
0
100
AcDbLine
 10
887.0468505591141
 20
176.18106776871662
 30
0.0
 11
901.219539232465
 21
176.3047509490085
 31
0.0
  0
LINE
  5
3E
330
17
100
AcDbEntity
  8
0
100
AcDbLine
 10
887.0468505591141
 20
176.18106776871662
 30
0.0
 11
885.5729593273021
 21
345.0722744594833
 31
0.0
  0
LINE
  5
3F
330
17
100
AcDbEntity
  8
0
100
AcDbLine
 10
884.4391968412929
 20
474.9885872985294
 30
0.0
 11
882.6148699319872
 21
684.035745230446
 31
0.0
  0
LINE
  5
40
330
17
100
AcDbEntity
  8
0
100
AcDbLine
 10
888.5950119281907
 20
-1.2206536961066377
 30
0.0
 11
888.1806130451233
 21
46.26475492967802
 31
0.0
  0
LINE
  5
41
330
17
100
AcDbEntity
  8
0
100
AcDbLine
 10
881.2749688121581
 20
837.5732058584074
 30
0.0
 11
872.1842550607024
 21
1879.2658233496709
 31
0.0
  0
LINE
  5
42
330
17
100
AcDbEntity
  8
0
100
AcDbLine
 10
895.4476574855063
 20
837.6968890386993
 30
0.0
 11
886.2332605537587
 21
1893.562195203313
 31
0.0
  0
LINE
  5
43
330
17
100
AcDbEntity
  8
0
100
AcDbLine
 10
149.5717219120096
 20
903.2377158978868
 30
0.0
 11
147.61340489072094
 21
1127.6386198926034
 31
0.0
  0
LINE
  5
44
330
17
100
AcDbEntity
  8
0
100
AcDbLine
 10
336.5825872020624
 20
1129.2877289631624
 30
0.0
 11
147.61340489072094
 21
1127.6386198926034
 31
0.0
  0
LINE
  5
45
330
17
100
AcDbEntity
  8
0
100
AcDbLine
 10
131.85586107032418
 20
903.083111922522
 30
0.0
 11
129.89754404903553
 21
1127.4840159172386
 31
0.0
  0
LINE
  5
46
330
17
100
AcDbEntity
  8
0
100
AcDbLine
 10
131.85586107032418
 20
903.083111922522
 30
0.0
 11
1.0261971834403343
 21
901.9413787426716
 31
0.0
  0
LINE
  5
47
330
17
100
AcDbEntity
  8
0
100
AcDbLine
 10
336.42798322669756
 20
1147.0035898048468
 30
0.0
 11
41.16363586522997
 21
1144.4268568820987
 31
0.0
  0
LINE
  5
48
330
17
100
AcDbEntity
  8
0
100
AcDbLine
 10
129.89754404903553
 20
1127.4840159172386
 30
0.0
 11
-0.9321198378483138
 21
1126.3422827373884
 31
0.0
  0
LINE
  5
49
330
17
100
AcDbEntity
  8
0
100
AcDbLine
 10
335.84048812031097
 20
1214.323861003263
 30
0.0
 11
336.42798322669756
 21
1147.0035898048468
 31
0.0
  0
LINE
  5
4A
330
17
100
AcDbEntity
  8
0
100
AcDbLine
 10
335.65496334987307
 20
1235.58289401329
 30
0.0
 11
330.2644380754838
 21
1853.2759086934807
 31
0.0
  0
LINE
  5
4B
330
17
100
AcDbEntity
  8
0
100
AcDbLine
 10
359.6053480411929
 20
1874.7926149957798
 30
0.0
 11
368.067338959498
 21
905.1444982607205
 31
0.0
  0
LINE
  5
4C
330
17
100
AcDbEntity
  8
0
100
AcDbLine
 10
336.5825872020624
 20
1129.2877289631624
 30
0.0
 11
338.54090422335105
 21
904.8868249684457
 31
0.0
  0
LINE
  5
4D
330
17
100
AcDbEntity
  8
0
100
AcDbLine
 10
338.69550819871597
 20
887.1709641267564
 30
0.0
 11
338.7985775156259
 21
875.3603902322989
 31
0.0
  0
LINE
  5
4E
330
17
100
AcDbEntity
  8
0
100
AcDbLine
 10
41.16363586522997
 20
1144.4268568820987
 30
0.0
 11
40.85442791450018
 21
1179.8585785654761
 31
0.0
  0
LINE
  5
4F
330
17
100
AcDbEntity
  8
0
100
AcDbLine
 10
23.44777502354183
 20
1144.2722529067337
 30
0.0
 11
23.138567072812034
 21
1179.703974590111
 31
0.0
  0
LINE
  5
50
330
17
100
AcDbEntity
  8
0
100
AcDbLine
 10
180.8703639872989
 20
1377.15093701641
 30
0.0
 11
177.77828448000105
 21
1731.4681538501716
 31
0.0
  0
LINE
  5
51
330
17
100
AcDbEntity
  8
0
100
AcDbLine
 10
192.6809378817578
 20
1377.25400633332
 30
0.0
 11
189.58885837445996
 21
1731.5712231670814
 31
0.0
  0
LINE
  5
52
330
17
100
AcDbEntity
  8
0
100
AcDbLine
 10
36.051397746497514
 20
1730.2313220472524
 30
0.0
 11
331.3157451079651
 21
1732.8080549700007
 31
0.0
  0
LINE
  5
53
330
17
100
AcDbEntity
  8
0
100
AcDbLine
 10
36.3606056972273
 20
1694.7996003638762
 30
0.0
 11
178.08749243073083
 21
1696.0364321667953
 31
0.0
  0
LINE
  5
54
330
17
100
AcDbEntity
  8
0
100
AcDbLine
 10
36.669813647957085
 20
1659.3678786805
 30
0.0
 11
178.39670038146062
 21
1660.6047104834192
 31
0.0
  0
LINE
  5
55
330
17
100
AcDbEntity
  8
0
100
AcDbLine
 10
36.979021598686856
 20
1623.936156997125
 30
0.0
 11
178.7059083321904
 21
1625.172988800044
 31
0.0
  0
LINE
  5
56
330
17
100
AcDbEntity
  8
0
100
AcDbLine
 10
37.28822954941667
 20
1588.5044353137455
 30
0.0
 11
179.01511628292022
 21
1589.7412671166646
 31
0.0
  0
LINE
  5
57
330
17
100
AcDbEntity
  8
0
100
AcDbLine
 10
37.59743750014644
 20
1553.0727136303717
 30
0.0
 11
179.32432423364997
 21
1554.3095454332909
 31
0.0
  0
LINE
  5
58
330
17
100
AcDbEntity
  8
0
100
AcDbLine
 10
37.906645450876226
 20
1517.6409919469954
 30
0.0
 11
108.77008881762856
 21
1518.2594078484549
 31
0.0
  0
LINE
  5
59
330
17
100
AcDbEntity
  8
0
100
AcDbLine
 10
39.14347725379537
 20
1375.9141052134908
 30
0.0
 11
334.40782461526294
 21
1378.4908381362388
 31
0.0
  0
LINE
  5
5A
330
17
100
AcDbEntity
  8
0
100
AcDbLine
 10
40.85442791450018
 20
1179.8585785654761
 30
0.0
 11
23.138567072812034
 21
1179.703974590111
 31
0.0
  0
LINE
  5
5B
330
17
100
AcDbEntity
  8
0
100
AcDbLine
 10
39.61759611158102
 20
1321.5854652989822
 30
0.0
 11
21.90173526989288
 21
1321.4308613236171
 31
0.0
  0
LINE
  5
5C
330
17
100
AcDbEntity
  8
0
100
AcDbLine
 10
21.90173526989288
 20
1321.4308613236171
 30
0.0
 11
17.098705101890232
 21
1871.8036048053918
 31
0.0
  0
LINE
  5
5D
330
17
100
AcDbEntity
  8
0
100
AcDbLine
 10
39.61759611158102
 20
1321.5854652989822
 30
0.0
 11
34.81456594357837
 21
1871.9582087807569
 31
0.0
  0
LINE
  5
5E
330
17
100
AcDbEntity
  8
0
100
AcDbLine
 10
23.44777502354183
 20
1144.2722529067337
 30
0.0
 11
-1.0867238132131751
 21
1144.0581435790727
 31
0.0
  0
LINE
  5
5F
330
17
100
AcDbEntity
  8
0
100
AcDbLine
 10
189.89806632518975
 20
1696.1395014837053
 30
0.0
 11
331.62495305869487
 21
1697.3763332866242
 31
0.0
  0
LINE
  5
60
330
17
100
AcDbEntity
  8
0
100
AcDbLine
 10
190.20727427591953
 20
1660.7077798003293
 30
0.0
 11
331.93416100942466
 21
1661.9446116032482
 31
0.0
  0
LINE
  5
61
330
17
100
AcDbEntity
  8
0
100
AcDbLine
 10
190.51648222664932
 20
1625.2760581169541
 30
0.0
 11
332.24336896015444
 21
1626.512889919873
 31
0.0
  0
LINE
  5
62
330
17
100
AcDbEntity
  8
0
100
AcDbLine
 10
190.82569017737913
 20
1589.8443364335744
 30
0.0
 11
332.5525769108842
 21
1591.0811682364938
 31
0.0
  0
LINE
  5
63
330
17
100
AcDbEntity
  8
0
100
AcDbLine
 10
191.1348981281089
 20
1554.4126147502006
 30
0.0
 11
332.861784861614
 21
1555.64944655312
 31
0.0
  0
LINE
  5
64
330
17
100
AcDbEntity
  8
0
100
AcDbLine
 10
191.44410607883867
 20
1518.9808930668246
 30
0.0
 11
333.1709928123438
 21
1520.2177248697435
 31
0.0
  0
LINE
  5
65
330
17
100
AcDbEntity
  8
0
100
AcDbLine
 10
191.75331402956846
 20
1483.549171383448
 30
0.0
 11
333.4802007630736
 21
1484.7860031863675
 31
0.0
  0
LINE
  5
66
330
17
100
AcDbEntity
  8
0
100
AcDbLine
 10
192.06252198029824
 20
1448.1174497000734
 30
0.0
 11
333.78940871380337
 21
1449.3542815029923
 31
0.0
  0
LINE
  5
67
330
17
100
AcDbEntity
  8
0
100
AcDbLine
 10
192.37172993102806
 20
1412.6857280166937
 30
0.0
 11
334.09861666453315
 21
1413.922559819613
 31
0.0
  0
LINE
  5
68
330
17
100
AcDbEntity
  8
0
100
AcDbLine
 10
263.54438124850856
 20
1377.8724222347794
 30
0.0
 11
260.4523017412107
 21
1732.189639068541
 31
0.0
  0
LINE
  5
69
330
17
100
AcDbEntity
  8
0
100
AcDbLine
 10
283.8158083197709
 20
1709.2303850970056
 30
0.0
 11
260.4523017412107
 21
1732.189639068541
 31
0.0
  0
LINE
  5
6A
330
17
100
AcDbEntity
  8
0
100
AcDbLine
 10
237.49304776967836
 20
1708.826132489982
 30
0.0
 11
260.4523017412107
 21
1732.189639068541
 31
0.0
  0
LINE
  5
6B
330
17
100
AcDbEntity
  8
0
100
AcDbLine
 10
106.91484111324985
 20
1730.8497379487121
 30
0.0
 11
108.77008881762856
 21
1518.2594078484549
 31
0.0
  0
LINE
  5
6C
330
17
100
AcDbEntity
  8
0
100
AcDbLine
 10
85.4065822390686
 20
1541.2186618199898
 30
0.0
 11
108.77008881762856
 21
1518.2594078484549
 31
0.0
  0
LINE
  5
6D
330
17
100
AcDbEntity
  8
0
100
AcDbLine
 10
131.72934278916148
 20
1541.6229144270137
 30
0.0
 11
108.77008881762856
 21
1518.2594078484549
 31
0.0
  0
LINE
  5
6E
330
17
100
AcDbEntity
  8
0
100
AcDbLine
 10
38.21585340160601
 20
1482.2092702636191
 30
0.0
 11
179.32432423364997
 21
1554.3095454332909
 31
0.0
  0
LINE
  5
6F
330
17
100
AcDbEntity
  8
0
100
AcDbLine
 10
-7.435793734864773
 20
1871.589495477731
 30
0.0
 11
164.73087878262675
 21
1873.091971266766
 31
0.0
  0
LINE
  5
70
330
17
100
AcDbEntity
  8
0
100
AcDbLine
 10
-7.559476915156685
 20
1885.7621841510813
 30
0.0
 11
172.87459732845227
 21
1887.3368084619533
 31
0.0
  0
LINE
  5
71
330
17
100
AcDbEntity
  8
0
100
AcDbLine
 10
374.9590941039894
 20
1874.926605107763
 30
0.0
 11
374.8354109236975
 21
1889.099293781113
 31
0.0
  0
LINE
  5
72
330
17
100
AcDbEntity
  8
0
100
AcDbLine
 10
516.6859808374926
 20
1876.1634369106819
 30
0.0
 11
516.5622976572007
 21
1890.336125584032
 31
0.0
  0
LINE
  5
73
330
17
100
AcDbEntity
  8
0
100
AcDbLine
 10
516.5622976572007
 20
1890.336125584032
 30
0.0
 11
886.2332605537587
 21
1893.562195203313
 31
0.0
  0
LINE
  5
74
330
17
100
AcDbEntity
  8
0
100
AcDbLine
 10
516.6859808374926
 20
1876.1634369106819
 30
0.0
 11
872.1842550607024
 21
1879.2658233496709
 31
0.0
  0
LINE
  5
75
330
17
100
AcDbEntity
  8
0
100
AcDbLine
 10
271.02604383275263
 20
1874.0195951189553
 30
0.0
 11
270.90236065246074
 21
1888.1922837923057
 31
0.0
  0
LINE
  5
76
330
17
100
AcDbEntity
  8
0
100
AcDbLine
 10
164.73087878262675
 20
1873.091971266766
 30
0.0
 11
164.60719560233483
 21
1887.2646599401164
 31
0.0
  0
LINE
  5
77
330
17
100
AcDbEntity
  8
0
100
AcDbLine
 10
271.02604383275263
 20
1874.0195951189553
 30
0.0
 11
374.9590941039894
 21
1874.926605107763
 31
0.0
  0
LINE
  5
78
330
17
100
AcDbEntity
  8
0
100
AcDbLine
 10
551.3756034391188
 20
1961.5087769015145
 30
0.0
 11
956.4782880190539
 21
1965.044054471525
 31
0.0
  0
LINE
  5
79
330
17
100
AcDbEntity
  8
0
100
AcDbLine
 10
973.6311439682937
 20
-0.47855461435517554
 30
0.0
 11
967.908675264365
 21
655.2514095760507
 31
0.0
  0
LINE
  5
7A
330
17
100
AcDbEntity
  8
0
100
AcDbLine
 10
881.2749688121581
 20
837.5732058584074
 30
0.0
 11
895.4476574855063
 21
837.6968890386993
 31
0.0
  0
LINE
  5
7B
330
17
100
AcDbEntity
  8
0
100
AcDbLine
 10
882.6148699319872
 20
684.035745230446
 30
0.0
 11
896.7875586053353
 21
684.1594284107379
 31
0.0
  0
LINE
  5
7C
330
17
100
AcDbEntity
  8
0
100
AcDbLine
 10
895.4476574855063
 20
837.6968890386993
 30
0.0
 11
896.7875586053353
 21
684.1594284107379
 31
0.0
  0
LINE
  5
7D
330
17
100
AcDbEntity
  8
0
100
AcDbLine
 10
1144.139659829053
 20
763.0926143798297
 30
0.0
 11
1073.276216462301
 21
762.47419847837
 31
0.0
  0
LINE
  5
7E
330
17
100
AcDbEntity
  8
0
100
AcDbLine
 10
1096.6397230408618
 20
739.5149445068337
 30
0.0
 11
1073.276216462301
 21
762.47419847837
 31
0.0
  0
LINE
  5
7F
330
17
100
AcDbEntity
  8
0
100
AcDbLine
 10
1096.2354704338381
 20
785.8377050569228
 30
0.0
 11
1073.276216462301
 21
762.47419847837
 31
0.0
  0
LINE
  5
80
330
17
100
AcDbEntity
  8
0
100
AcDbLine
 10
1072.3485926101116
 20
868.7693635284957
 30
0.0
 11
1074.2038403144902
 21
656.17903342824
 31
0.0
  0
LINE
  5
81
330
17
100
AcDbEntity
  8
0
100
AcDbLine
 10
1107.7803142934897
 20
869.0785714792255
 30
0.0
 11
1109.6355619978683
 21
656.4882413789699
 31
0.0
  0
LINE
  5
82
330
17
100
AcDbEntity
  8
0
100
AcDbLine
 10
1143.2120359768674
 20
869.3877794299553
 30
0.0
 11
1145.067283681246
 21
656.7974493296997
 31
0.0
  0
LINE
  5
83
330
17
100
AcDbEntity
  8
0
100
AcDbLine
 10
966.0534275599863
 20
867.8417396763064
 30
0.0
 11
956.4782880190539
 21
1965.044054471525
 31
0.0
  0
LINE
  5
84
330
17
100
AcDbEntity
  8
0
100
AcDbLine
 10
10.709577276893913
 20
1250.4643486399514
 30
0.0
 11
52.04658590749942
 21
1250.825091249136
 31
0.0
  0
LINE
  5
85
330
17
100
AcDbEntity
  8
0
100
AcDbLine
 10
445.59578497353874
 20
1901.5282835770313
 30
0.0
 11
445.9256067876505
 21
1863.7344471147649
 31
0.0
  0
LINE
  5
86
330
17
100
AcDbEntity
  8
0
100
AcDbLine
 10
902.7677006015389
 20
-1.0969705158147462
 30
0.0
 11
902.2811531966346
 21
54.6558398360836
 31
0.0
  0
LINE
  5
87
330
17
100
AcDbEntity
  8
0
100
AcDbLine
 10
901.2916877542992
 20
168.03734922288515
 30
0.0
 11
899.6734994788133
 21
353.4633593658963
 31
0.0
  0
LINE
  5
88
330
17
100
AcDbEntity
  8
0
100
AcDbLine
 10
895.3142522852343
 20
176.2532162905536
 30
0.0
 11
895.3864008070713
 21
167.98581456443026
 31
0.0
  0
LINE
  5
89
330
17
100
AcDbEntity
  8
0
100
AcDbLine
 10
895.3864008070713
 20
167.98581456443026
 30
0.0
 11
901.2916877542992
 21
168.03734922288515
 31
0.0
  0
LINE
  5
8A
330
17
100
AcDbEntity
  8
0
100
AcDbLine
 10
901.2916877542992
 20
168.03734922288515
 30
0.0
 11
901.2916877542992
 21
168.03734922288515
 31
0.0
  0
LINE
  5
8B
330
17
100
AcDbEntity
  8
0
100
AcDbLine
 10
895.3864008070713
 20
167.98581456443026
 30
0.0
 11
896.3758662494066
 21
54.6043051776287
 31
0.0
  0
LINE
  5
8C
330
17
100
AcDbEntity
  8
0
100
AcDbLine
 10
896.3758662494066
 20
54.6043051776287
 30
0.0
 11
899.3285097230226
 21
54.63007250685621
 31
0.0
  0
LINE
  5
8D
330
17
100
AcDbEntity
  8
0
100
AcDbLine
 10
899.3285097230226
 20
54.63007250685621
 30
0.0
 11
898.3390442806873
 21
168.01158189365776
 31
0.0
  0
LINE
  5
8E
330
17
100
AcDbEntity
  8
0
100
AcDbLine
 10
898.3390442806873
 20
168.01158189365776
 30
0.0
 11
895.3864008070713
 21
167.98581456443026
 31
0.0
  0
LINE
  5
8F
330
17
100
AcDbEntity
  8
0
100
AcDbLine
 10
895.3864008070713
 20
167.98581456443026
 30
0.0
 11
895.3864008070713
 21
167.98581456443026
 31
0.0
  0
LINE
  5
90
330
17
100
AcDbEntity
  8
0
100
AcDbLine
 10
902.2811531966346
 20
54.6558398360836
 30
0.0
 11
896.3758662494066
 21
54.6043051776287
 31
0.0
  0
LINE
  5
91
330
17
100
AcDbEntity
  8
0
100
AcDbLine
 10
896.3758662494066
 20
54.6043051776287
 30
0.0
 11
896.4480147712435
 21
46.336903451505464
 31
0.0
  0
LINE
  5
92
330
17
100
AcDbEntity
  8
0
100
AcDbLine
 10
902.3533017184715
 20
46.38843810996036
 30
0.0
 11
902.3533017184715
 21
46.38843810996036
 31
0.0
  0
LINE
  5
93
330
17
100
AcDbEntity
  8
0
100
AcDbLine
 10
892.77874708925
 20
466.7933340942466
 30
0.0
 11
893.7682125315853
 21
353.4118247074414
 31
0.0
  0
LINE
  5
94
330
17
100
AcDbEntity
  8
0
100
AcDbLine
 10
893.7682125315853
 20
353.4118247074414
 30
0.0
 11
896.7208560052013
 21
353.4375920366689
 31
0.0
  0
LINE
  5
95
330
17
100
AcDbEntity
  8
0
100
AcDbLine
 10
896.7208560052013
 20
353.4375920366689
 30
0.0
 11
895.7313905628661
 21
466.8191014234741
 31
0.0
  0
LINE
  5
96
330
17
100
AcDbEntity
  8
0
100
AcDbLine
 10
895.7313905628661
 20
466.8191014234741
 30
0.0
 11
892.77874708925
 21
466.7933340942466
 31
0.0
  0
LINE
  5
97
330
17
100
AcDbEntity
  8
0
100
AcDbLine
 10
892.77874708925
 20
466.7933340942466
 30
0.0
 11
892.77874708925
 21
466.7933340942466
 31
0.0
  0
LINE
  5
98
330
17
100
AcDbEntity
  8
0
100
AcDbLine
 10
898.684034036478
 20
466.8448687527015
 30
0.0
 11
896.7875586053353
 21
684.1594284107379
 31
0.0
  0
LINE
  5
99
330
17
100
AcDbEntity
  8
0
100
AcDbLine
 10
892.706598567413
 20
475.0607358203664
 30
0.0
 11
892.77874708925
 21
466.7933340942466
 31
0.0
  0
LINE
  5
9A
330
17
100
AcDbEntity
  8
0
100
AcDbLine
 10
892.77874708925
 20
466.7933340942466
 30
0.0
 11
898.684034036478
 21
466.8448687527015
 31
0.0
  0
LINE
  5
9B
330
17
100
AcDbEntity
  8
0
100
AcDbLine
 10
898.684034036478
 20
466.8448687527015
 30
0.0
 11
898.684034036478
 21
466.8448687527015
 31
0.0
  0
LINE
  5
9C
330
17
100
AcDbEntity
  8
0
100
AcDbLine
 10
899.6734994788133
 20
353.4633593658963
 30
0.0
 11
893.7682125315853
 21
353.4118247074414
 31
0.0
  0
LINE
  5
9D
330
17
100
AcDbEntity
  8
0
100
AcDbLine
 10
893.7682125315853
 20
353.4118247074414
 30
0.0
 11
893.8403610534223
 21
345.1444229813203
 31
0.0
  0
LINE
  5
9E
330
17
100
AcDbEntity
  8
0
100
AcDbLine
 10
899.7456480006502
 20
345.1959576397752
 30
0.0
 11
899.7456480006502
 21
345.1959576397752
 31
0.0
  0
LINE
  5
9F
330
17
100
AcDbEntity
  8
0
100
AcDbLine
 10
895.4476574855063
 20
837.6968890386993
 30
0.0
 11
971.2656186160672
 21
763.190786140685
 31
0.0
  0
LINE
  5
A0
330
17
100
AcDbEntity
  8
0
100
AcDbLine
 10
896.7875586053353
 20
684.1594284107379
 30
0.0
 11
929.9013821155661
 21
717.8563000243194
 31
0.0
  0
LINE
  5
A1
330
17
100
AcDbEntity
  8
0
100
AcDbLine
 10
374.8354109236975
 20
1889.099293781113
 30
0.0
 11
516.5622976572007
 21
1890.336125584032
 31
0.0
  0
LINE
  5
A2
330
17
100
AcDbEntity
  8
0
100
AcDbLine
 10
516.5622976572007
 20
1890.336125584032
 30
0.0
 11
516.6859808374926
 21
1876.1634369106819
 31
0.0
  0
LINE
  5
A3
330
17
100
AcDbEntity
  8
0
100
AcDbLine
 10
516.6859808374926
 20
1876.1634369106819
 30
0.0
 11
374.9590941039894
 21
1874.926605107763
 31
0.0
  0
LINE
  5
A4
330
17
100
AcDbEntity
  8
0
100
AcDbLine
 10
374.9590941039894
 20
1874.926605107763
 30
0.0
 11
374.8354109236975
 21
1889.099293781113
 31
0.0
  0
LINE
  5
A5
330
17
100
AcDbEntity
  8
0
100
AcDbLine
 10
374.8354109236975
 20
1889.099293781113
 30
0.0
 11
374.8354109236975
 21
1889.099293781113
 31
0.0
  0
LINE
  5
A6
330
17
100
AcDbEntity
  8
0
100
AcDbLine
 10
21.90173526989288
 20
1321.4308613236171
 30
0.0
 11
23.138567072812034
 21
1179.703974590111
 31
0.0
  0
LINE
  5
A7
330
17
100
AcDbEntity
  8
0
100
AcDbLine
 10
23.138567072812034
 20
1179.703974590111
 30
0.0
 11
40.85442791450018
 21
1179.8585785654761
 31
0.0
  0
LINE
  5
A8
330
17
100
AcDbEntity
  8
0
100
AcDbLine
 10
40.85442791450018
 20
1179.8585785654761
 30
0.0
 11
39.61759611158102
 21
1321.5854652989822
 31
0.0
  0
LINE
  5
A9
330
17
100
AcDbEntity
  8
0
100
AcDbLine
 10
39.61759611158102
 20
1321.5854652989822
 30
0.0
 11
21.90173526989288
 21
1321.4308613236171
 31
0.0
  0
LINE
  5
AA
330
17
100
AcDbEntity
  8
0
100
AcDbLine
 10
21.90173526989288
 20
1321.4308613236171
 30
0.0
 11
21.90173526989288
 21
1321.4308613236171
 31
0.0
  0
LINE
  5
AB
330
17
100
AcDbEntity
  8
0
100
AcDbLine
 10
887.0468505591141
 20
176.18106776871662
 30
0.0
 11
901.2195392324622
 21
176.3047509490085
 31
0.0
  0
LINE
  5
AC
330
17
100
AcDbEntity
  8
0
100
AcDbLine
 10
901.2195392324622
 20
176.3047509490085
 30
0.0
 11
902.3533017184715
 21
46.38843810996036
 31
0.0
  0
LINE
  5
AD
330
17
100
AcDbEntity
  8
0
100
AcDbLine
 10
902.3533017184715
 20
46.38843810996036
 30
0.0
 11
888.1806130451233
 21
46.26475492966847
 31
0.0
  0
LINE
  5
AE
330
17
100
AcDbEntity
  8
0
100
AcDbLine
 10
888.1806130451233
 20
46.26475492966847
 30
0.0
 11
887.0468505591141
 21
176.18106776871662
 31
0.0
  0
LINE
  5
AF
330
17
100
AcDbEntity
  8
0
100
AcDbLine
 10
887.0468505591141
 20
176.18106776871662
 30
0.0
 11
887.0468505591141
 21
176.18106776871662
 31
0.0
  0
LINE
  5
B0
330
17
100
AcDbEntity
  8
0
100
AcDbLine
 10
884.4391968412929
 20
474.9885872985294
 30
0.0
 11
898.611885514641
 21
475.1122704788213
 31
0.0
  0
LINE
  5
B1
330
17
100
AcDbEntity
  8
0
100
AcDbLine
 10
898.611885514641
 20
475.1122704788213
 30
0.0
 11
899.7456480006502
 21
345.1959576397752
 31
0.0
  0
LINE
  5
B2
330
17
100
AcDbEntity
  8
0
100
AcDbLine
 10
899.7456480006502
 20
345.1959576397752
 30
0.0
 11
885.5729593273021
 21
345.0722744594833
 31
0.0
  0
LINE
  5
B3
330
17
100
AcDbEntity
  8
0
100
AcDbLine
 10
885.5729593273021
 20
345.0722744594833
 30
0.0
 11
884.4391968412929
 21
474.9885872985294
 31
0.0
  0
LINE
  5
B4
330
17
100
AcDbEntity
  8
0
100
AcDbLine
 10
884.4391968412929
 20
474.9885872985294
 30
0.0
 11
884.4391968412929
 21
474.9885872985294
 31
0.0
  0
LINE
  5
B5
330
17
100
AcDbEntity
  8
0
100
AcDbLine
 10
897.0452318976102
 20
654.6329936745913
 30
0.0
 11
1145.067283681246
 21
656.7974493296997
 31
0.0
  0
LINE
  5
B6
330
17
100
AcDbEntity
  8
0
100
AcDbLine
 10
1074.2038403144902
 20
656.17903342824
 30
0.0
 11
1072.3485926101116
 21
868.7693635284957
 31
0.0
  0
LINE
  5
B7
330
17
100
AcDbEntity
  8
0
100
AcDbLine
 10
1143.2120359768674
 20
869.3877794299553
 30
0.0
 11
895.1899841932315
 21
867.2233237748468
 31
0.0
  0
LINE
  5
B8
330
17
100
AcDbEntity
  8
0
100
AcDbLine
 10
170.0723180751852
 20
2005.4270870090052
 30
0.0
 11
187.78817891687106
 21
2005.5816909843702
 31
0.0
  0
LINE
  5
B9
330
17
100
AcDbEntity
  8
0
100
AcDbLine
 10
187.78817891687106
 20
2005.5816909843702
 30
0.0
 11
187.94278289223598
 21
1987.8658301426808
 31
0.0
  0
LINE
  5
BA
330
17
100
AcDbEntity
  8
0
100
AcDbLine
 10
187.94278289223598
 20
1987.8658301426808
 30
0.0
 11
170.22692205055012
 21
1987.711226167316
 31
0.0
  0
LINE
  5
BB
330
17
100
AcDbEntity
  8
0
100
AcDbLine
 10
170.22692205055012
 20
1987.711226167316
 30
0.0
 11
170.0723180751852
 21
2005.4270870090052
 31
0.0
  0
LINE
  5
BC
330
17
100
AcDbEntity
  8
0
100
AcDbLine
 10
170.0723180751852
 20
2005.4270870090052
 30
0.0
 11
170.0723180751852
 21
2005.4270870090052
 31
0.0
  0
LINE
  5
BD
330
17
100
AcDbEntity
  8
0
100
AcDbLine
 10
527.3421783825593
 20
2008.5449338455305
 30
0.0
 11
509.62631754087477
 21
2008.3903298701657
 31
0.0
  0
LINE
  5
BE
330
17
100
AcDbEntity
  8
0
100
AcDbLine
 10
509.62631754087477
 20
2008.3903298701657
 30
0.0
 11
509.7809215162397
 21
1990.6744690284763
 31
0.0
  0
LINE
  5
BF
330
17
100
AcDbEntity
  8
0
100
AcDbLine
 10
509.7809215162397
 20
1990.6744690284763
 30
0.0
 11
527.4967823579242
 21
1990.8290730038411
 31
0.0
  0
LINE
  5
C0
330
17
100
AcDbEntity
  8
0
100
AcDbLine
 10
527.4967823579242
 20
1990.8290730038411
 30
0.0
 11
527.3421783825593
 21
2008.5449338455305
 31
0.0
  0
LINE
  5
C1
330
17
100
AcDbEntity
  8
0
100
AcDbLine
 10
527.3421783825593
 20
2008.5449338455305
 30
0.0
 11
527.3421783825593
 21
2008.5449338455305
 31
0.0
  0
LINE
  5
C2
330
17
100
AcDbEntity
  8
0
100
AcDbLine
 10
164.73087878262675
 20
1873.091971266766
 30
0.0
 11
164.60719560233483
 21
1887.2646599401164
 31
0.0
  0
LINE
  5
C3
330
17
100
AcDbEntity
  8
0
100
AcDbLine
 10
164.60719560233483
 20
1887.2646599401164
 30
0.0
 11
270.90236065246074
 21
1888.1922837923057
 31
0.0
  0
LINE
  5
C4
330
17
100
AcDbEntity
  8
0
100
AcDbLine
 10
270.90236065246074
 20
1888.1922837923057
 30
0.0
 11
271.02604383275263
 21
1874.0195951189553
 31
0.0
  0
LINE
  5
C5
330
17
100
AcDbEntity
  8
0
100
AcDbLine
 10
271.02604383275263
 20
1874.0195951189553
 30
0.0
 11
164.73087878262675
 21
1873.091971266766
 31
0.0
  0
LINE
  5
C6
330
17
100
AcDbEntity
  8
0
100
AcDbLine
 10
164.73087878262675
 20
1873.091971266766
 30
0.0
 11
164.73087878262675
 21
1873.091971266766
 31
0.0
  0
LINE
  5
C7
330
17
100
AcDbEntity
  8
0
100
AcDbLine
 10
-8.79630871807584
 20
2027.4890708845874
 30
0.0
 11
550.7571875376592
 21
2032.372220268268
 31
0.0
  0
LINE
  5
C8
330
17
100
AcDbEntity
  8
0
100
AcDbLine
 10
550.7571875376592
 20
2032.372220268268
 30
0.0
 11
551.9940193405783
 21
1890.6453335347599
 31
0.0
  0
LINE
  5
C9
330
17
100
AcDbEntity
  8
0
100
AcDbLine
 10
862.1700845255489
 20
590.5466866937857
 30
0.0
 11
883.4291175355756
 21
590.7322114642236
 31
0.0
  0
LINE
  5
CA
330
17
100
AcDbEntity
  8
0
100
AcDbLine
 10
883.4291175355756
 20
590.7322114642236
 30
0.0
 11
883.6146423060135
 21
569.4731784542005
 31
0.0
  0
LINE
  5
CB
330
17
100
AcDbEntity
  8
0
100
AcDbLine
 10
883.6146423060135
 20
569.4731784542005
 30
0.0
 11
862.3556092959867
 21
569.2876536837625
 31
0.0
  0
LINE
  5
CC
330
17
100
AcDbEntity
  8
0
100
AcDbLine
 10
862.3556092959867
 20
569.2876536837625
 30
0.0
 11
862.1700845255489
 21
590.5466866937857
 31
0.0
  0
LINE
  5
CD
330
17
100
AcDbEntity
  8
0
100
AcDbLine
 10
862.1700845255489
 20
590.5466866937857
 30
0.0
 11
862.1700845255489
 21
590.5466866937857
 31
0.0
  0
LINE
  5
CE
330
17
100
AcDbEntity
  8
0
100
AcDbLine
 10
341.3237757799191
 20
586.0013298180579
 30
0.0
 11
362.5828087899427
 21
586.1868545884956
 31
0.0
  0
LINE
  5
CF
330
17
100
AcDbEntity
  8
0
100
AcDbLine
 10
362.5828087899427
 20
586.1868545884956
 30
0.0
 11
362.7683335603806
 21
564.9278215784725
 31
0.0
  0
LINE
  5
D0
330
17
100
AcDbEntity
  8
0
100
AcDbLine
 10
362.7683335603806
 20
564.9278215784725
 30
0.0
 11
341.509300550357
 21
564.7422968080348
 31
0.0
  0
LINE
  5
D1
330
17
100
AcDbEntity
  8
0
100
AcDbLine
 10
341.509300550357
 20
564.7422968080348
 30
0.0
 11
341.3237757799191
 21
586.0013298180579
 31
0.0
  0
LINE
  5
D2
330
17
100
AcDbEntity
  8
0
100
AcDbLine
 10
341.3237757799191
 20
586.0013298180579
 30
0.0
 11
341.3237757799191
 21
586.0013298180579
 31
0.0
  0
LINE
  5
D3
330
17
100
AcDbEntity
  8
0
100
AcDbLine
 10
856.5012720955027
 20
1240.1282508890176
 30
0.0
 11
877.7603051055295
 21
1240.3137756594556
 31
0.0
  0
LINE
  5
D4
330
17
100
AcDbEntity
  8
0
100
AcDbLine
 10
877.7603051055295
 20
1240.3137756594556
 30
0.0
 11
877.9458298759674
 21
1219.0547426494286
 31
0.0
  0
LINE
  5
D5
330
17
100
AcDbEntity
  8
0
100
AcDbLine
 10
877.9458298759674
 20
1219.0547426494286
 30
0.0
 11
856.6867968659407
 21
1218.8692178789906
 31
0.0
  0
LINE
  5
D6
330
17
100
AcDbEntity
  8
0
100
AcDbLine
 10
856.6867968659407
 20
1218.8692178789906
 30
0.0
 11
856.5012720955027
 21
1240.1282508890176
 31
0.0
  0
LINE
  5
D7
330
17
100
AcDbEntity
  8
0
100
AcDbLine
 10
856.5012720955027
 20
1240.1282508890176
 30
0.0
 11
856.5012720955027
 21
1240.1282508890176
 31
0.0
  0
LINE
  5
D8
330
17
100
AcDbEntity
  8
0
100
AcDbLine
 10
850.9252220506756
 20
1879.080298579233
 30
0.0
 11
872.1842550607024
 21
1879.2658233496709
 31
0.0
  0
LINE
  5
D9
330
17
100
AcDbEntity
  8
0
100
AcDbLine
 10
872.1842550607024
 20
1879.2658233496709
 30
0.0
 11
872.3697798311402
 21
1858.0067903396466
 31
0.0
  0
LINE
  5
DA
330
17
100
AcDbEntity
  8
0
100
AcDbLine
 10
872.3697798311402
 20
1858.0067903396466
 30
0.0
 11
851.1107468211135
 21
1857.8212655692087
 31
0.0
  0
LINE
  5
DB
330
17
100
AcDbEntity
  8
0
100
AcDbLine
 10
851.1107468211135
 20
1857.8212655692087
 30
0.0
 11
850.9252220506756
 21
1879.080298579233
 31
0.0
  0
LINE
  5
DC
330
17
100
AcDbEntity
  8
0
100
AcDbLine
 10
850.9252220506756
 20
1879.080298579233
 30
0.0
 11
850.9252220506756
 21
1879.080298579233
 31
0.0
  0
LINE
  5
DD
330
17
100
AcDbEntity
  8
0
100
AcDbLine
 10
335.65496334987307
 20
1235.58289401329
 30
0.0
 11
356.91399635989666
 21
1235.7684187837276
 31
0.0
  0
LINE
  5
DE
330
17
100
AcDbEntity
  8
0
100
AcDbLine
 10
356.91399635989666
 20
1235.7684187837276
 30
0.0
 11
357.09952113033455
 21
1214.5093857737006
 31
0.0
  0
LINE
  5
DF
330
17
100
AcDbEntity
  8
0
100
AcDbLine
 10
357.09952113033455
 20
1214.5093857737006
 30
0.0
 11
335.84048812031097
 21
1214.323861003263
 31
0.0
  0
LINE
  5
E0
330
17
100
AcDbEntity
  8
0
100
AcDbLine
 10
335.84048812031097
 20
1214.323861003263
 30
0.0
 11
335.65496334987307
 21
1235.58289401329
 31
0.0
  0
LINE
  5
E1
330
17
100
AcDbEntity
  8
0
100
AcDbLine
 10
335.65496334987307
 20
1235.58289401329
 30
0.0
 11
335.65496334987307
 21
1235.58289401329
 31
0.0
  0
LINE
  5
E2
330
17
100
AcDbEntity
  8
0
100
AcDbLine
 10
330.07891330504594
 20
1874.534941703505
 30
0.0
 11
351.33794631506953
 21
1874.720466473943
 31
0.0
  0
LINE
  5
E3
330
17
100
AcDbEntity
  8
0
100
AcDbLine
 10
351.33794631506953
 20
1874.720466473943
 30
0.0
 11
351.52347108550737
 21
1853.4614334639186
 31
0.0
  0
LINE
  5
E4
330
17
100
AcDbEntity
  8
0
100
AcDbLine
 10
351.52347108550737
 20
1853.4614334639186
 30
0.0
 11
330.2644380754838
 21
1853.2759086934807
 31
0.0
  0
LINE
  5
E5
330
17
100
AcDbEntity
  8
0
100
AcDbLine
 10
330.2644380754838
 20
1853.2759086934807
 30
0.0
 11
330.07891330504594
 21
1874.534941703505
 31
0.0
  0
LINE
  5
E6
330
17
100
AcDbEntity
  8
0
100
AcDbLine
 10
330.07891330504594
 20
1874.534941703505
 30
0.0
 11
330.07891330504594
 21
1874.534941703505
 31
0.0
  0
LINE
  5
E7
330
17
100
AcDbEntity
  8
0
100
AcDbLine
 10
262.634958926341
 20
1888.1201352704688
 30
0.0
 11
374.8354109236975
 21
1889.099293781113
 31
0.0
  0
LINE
  5
E8
330
17
100
AcDbEntity
  8
0
100
AcDbLine
 10
270.9538953109157
 20
1882.2869968450777
 30
0.0
 11
262.686493584796
 21
1882.2148483232409
 31
0.0
  0
LINE
  5
E9
330
17
100
AcDbEntity
  8
0
100
AcDbLine
 10
262.686493584796
 20
1882.2148483232409
 30
0.0
 11
262.634958926341
 21
1888.1201352704688
 31
0.0
  0
LINE
  5
EA
330
17
100
AcDbEntity
  8
0
100
AcDbLine
 10
262.634958926341
 20
1888.1201352704688
 30
0.0
 11
262.634958926341
 21
1888.1201352704688
 31
0.0
  0
LINE
  5
EB
330
17
100
AcDbEntity
  8
0
100
AcDbLine
 10
262.6607262555685
 20
1885.1674917968555
 30
0.0
 11
172.90036465767975
 21
1884.38416498834
 31
0.0
  0
LINE
  5
EC
330
17
100
AcDbEntity
  8
0
100
AcDbLine
 10
172.90036465767975
 20
1884.38416498834
 30
0.0
 11
172.92613198690722
 21
1881.4315215147253
 31
0.0
  0
LINE
  5
ED
330
17
100
AcDbEntity
  8
0
100
AcDbLine
 10
172.92613198690722
 20
1881.4315215147253
 30
0.0
 11
262.686493584796
 21
1882.2148483232409
 31
0.0
  0
LINE
  5
EE
330
17
100
AcDbEntity
  8
0
100
AcDbLine
 10
262.686493584796
 20
1882.2148483232409
 30
0.0
 11
262.6607262555685
 21
1885.1674917968555
 31
0.0
  0
LINE
  5
EF
330
17
100
AcDbEntity
  8
0
100
AcDbLine
 10
262.6607262555685
 20
1885.1674917968555
 30
0.0
 11
262.6607262555685
 21
1885.1674917968555
 31
0.0
  0
LINE
  5
F0
330
17
100
AcDbEntity
  8
0
100
AcDbLine
 10
172.87459732845227
 20
1887.3368084619533
 30
0.0
 11
172.92613198690722
 21
1881.4315215147253
 31
0.0
  0
LINE
  5
F1
330
17
100
AcDbEntity
  8
0
100
AcDbLine
 10
172.92613198690722
 20
1881.4315215147253
 30
0.0
 11
164.65873026078728
 21
1881.3593729928884
 31
0.0
  0
LINE
  5
F2
330
17
100
AcDbEntity
  8
0
100
AcDbLine
 10
164.60719560233233
 20
1887.2646599401164
 30
0.0
 11
164.60719560233233
 21
1887.2646599401164
 31
0.0
  0
LINE
  5
F3
330
17
100
AcDbEntity
  8
0
100
AcDbLine
 10
270.5947954351153
 20
1377.933950267256
 30
0.0
 11
270.57048305146793
 21
1378.4606563343877
 31
0.0
  0
LINE
  5
F4
330
17
100
AcDbEntity
  8
0
100
AcDbLine
 10
270.57048305146793
 20
1378.4606563343877
 30
0.0
 11
270.50687785648614
 21
1378.9840727578228
 31
0.0
  0
LINE
  5
F5
330
17
100
AcDbEntity
  8
0
100
AcDbLine
 10
270.50687785648614
 20
1378.9840727578228
 30
0.0
 11
270.4043355562228
 21
1379.5012723806055
 31
0.0
  0
LINE
  5
F6
330
17
100
AcDbEntity
  8
0
100
AcDbLine
 10
270.4043355562228
 20
1379.5012723806055
 30
0.0
 11
270.26342960881436
 21
1380.0093628126494
 31
0.0
  0
LINE
  5
F7
330
17
100
AcDbEntity
  8
0
100
AcDbLine
 10
270.26342960881436
 20
1380.0093628126494
 30
0.0
 11
270.0849480174776
 21
1380.5055026061596
 31
0.0
  0
LINE
  5
F8
330
17
100
AcDbEntity
  8
0
100
AcDbLine
 10
270.0849480174776
 20
1380.5055026061596
 30
0.0
 11
269.8698889236672
 21
1380.9869171461569
 31
0.0
  0
LINE
  5
F9
330
17
100
AcDbEntity
  8
0
100
AcDbLine
 10
269.8698889236672
 20
1380.9869171461569
 30
0.0
 11
269.61945502507353
 21
1381.4509141672524
 31
0.0
  0
LINE
  5
FA
330
17
100
AcDbEntity
  8
0
100
AcDbLine
 10
269.61945502507353
 20
1381.4509141672524
 30
0.0
 11
269.33504684964316
 21
1381.8948988098914
 31
0.0
  0
LINE
  5
FB
330
17
100
AcDbEntity
  8
0
100
AcDbLine
 10
269.33504684964316
 20
1381.8948988098914
 30
0.0
 11
269.0182549232584
 21
1382.316388131854
 31
0.0
  0
LINE
  5
FC
330
17
100
AcDbEntity
  8
0
100
AcDbLine
 10
269.0182549232584
 20
1382.316388131854
 30
0.0
 11
268.6708508748776
 21
1382.7130249938796
 31
0.0
  0
LINE
  5
FD
330
17
100
AcDbEntity
  8
0
100
AcDbLine
 10
268.6708508748776
 20
1382.7130249938796
 30
0.0
 11
268.294777528855
 21
1383.0825912417467
 31
0.0
  0
LINE
  5
FE
330
17
100
AcDbEntity
  8
0
100
AcDbLine
 10
268.294777528855
 20
1383.0825912417467
 30
0.0
 11
267.89213803989367
 21
1383.4230201110859
 31
0.0
  0
LINE
  5
FF
330
17
100
AcDbEntity
  8
0
100
AcDbLine
 10
267.89213803989367
 20
1383.4230201110859
 30
0.0
 11
267.4651841313405
 21
1383.7324077855694
 31
0.0
  0
LINE
  5
100
330
17
100
AcDbEntity
  8
0
100
AcDbLine
 10
267.4651841313405
 20
1383.7324077855694
 30
0.0
 11
267.016303502643
 21
1384.009024043822
 31
0.0
  0
LINE
  5
101
330
17
100
AcDbEntity
  8
0
100
AcDbLine
 10
267.016303502643
 20
1384.009024043822
 30
0.0
 11
266.54800647635557
 21
1384.251321935521
 31
0.0
  0
LINE
  5
102
330
17
100
AcDbEntity
  8
0
100
AcDbLine
 10
266.54800647635557
 20
1384.251321935521
 30
0.0
 11
266.0629119594125
 21
1384.457946432573
 31
0.0
  0
LINE
  5
103
330
17
100
AcDbEntity
  8
0
100
AcDbLine
 10
266.0629119594125
 20
1384.457946432573
 30
0.0
 11
265.56373279712284
 21
1384.6277420069741
 31
0.0
  0
LINE
  5
104
330
17
100
AcDbEntity
  8
0
100
AcDbLine
 10
265.56373279712284
 20
1384.6277420069741
 30
0.0
 11
265.0532606018472
 21
1384.7597590929968
 31
0.0
  0
LINE
  5
105
330
17
100
AcDbEntity
  8
0
100
AcDbLine
 10
265.0532606018472
 20
1384.7597590929968
 30
0.0
 11
264.5343501411712
 21
1384.8532593975456
 31
0.0
  0
LINE
  5
106
330
17
100
AcDbEntity
  8
0
100
AcDbLine
 10
264.5343501411712
 20
1384.8532593975456
 30
0.0
 11
264.00990337287806
 21
1384.9077200289885
 31
0.0
  0
LINE
  5
107
330
17
100
AcDbEntity
  8
0
100
AcDbLine
 10
264.00990337287806
 20
1384.9077200289885
 30
0.0
 11
263.4828532160319
 21
1384.9228364213882
 31
0.0
  0
LINE
  5
108
330
17
100
AcDbEntity
  8
0
100
AcDbLine
 10
263.4828532160319
 20
1384.9228364213882
 30
0.0
 11
262.95614714890155
 21
1384.8985240377383
 31
0.0
  0
LINE
  5
109
330
17
100
AcDbEntity
  8
0
100
AcDbLine
 10
262.95614714890155
 20
1384.8985240377383
 30
0.0
 11
262.4327307254654
 21
1384.834918842758
 31
0.0
  0
LINE
  5
10A
330
17
100
AcDbEntity
  8
0
100
AcDbLine
 10
262.4327307254654
 20
1384.834918842758
 30
0.0
 11
261.91553110268296
 21
1384.7323765424944
 31
0.0
  0
LINE
  5
10B
330
17
100
AcDbEntity
  8
0
100
AcDbLine
 10
261.91553110268296
 20
1384.7323765424944
 30
0.0
 11
261.40744067063713
 21
1384.5914705950863
 31
0.0
  0
LINE
  5
10C
330
17
100
AcDbEntity
  8
0
100
AcDbLine
 10
261.40744067063713
 20
1384.5914705950863
 30
0.0
 11
260.9113008771283
 21
1384.4129890037484
 31
0.0
  0
LINE
  5
10D
330
17
100
AcDbEntity
  8
0
100
AcDbLine
 10
260.9113008771283
 20
1384.4129890037484
 30
0.0
 11
260.4298863371313
 21
1384.197929909938
 31
0.0
  0
LINE
  5
10E
330
17
100
AcDbEntity
  8
0
100
AcDbLine
 10
260.4298863371313
 20
1384.197929909938
 30
0.0
 11
259.96588931603543
 21
1383.9474960113453
 31
0.0
  0
LINE
  5
10F
330
17
100
AcDbEntity
  8
0
100
AcDbLine
 10
259.96588931603543
 20
1383.9474960113453
 30
0.0
 11
259.521904673398
 21
1383.663087835915
 31
0.0
  0
LINE
  5
110
330
17
100
AcDbEntity
  8
0
100
AcDbLine
 10
259.521904673398
 20
1383.663087835915
 30
0.0
 11
259.100415351434
 21
1383.3462959095305
 31
0.0
  0
LINE
  5
111
330
17
100
AcDbEntity
  8
0
100
AcDbLine
 10
259.100415351434
 20
1383.3462959095305
 30
0.0
 11
258.7037784894078
 21
1382.9988918611482
 31
0.0
  0
LINE
  5
112
330
17
100
AcDbEntity
  8
0
100
AcDbLine
 10
258.7037784894078
 20
1382.9988918611482
 30
0.0
 11
258.33421224154154
 21
1382.6228185151256
 31
0.0
  0
LINE
  5
113
330
17
100
AcDbEntity
  8
0
100
AcDbLine
 10
258.33421224154154
 20
1382.6228185151256
 30
0.0
 11
257.99378337220264
 21
1382.220179026165
 31
0.0
  0
LINE
  5
114
330
17
100
AcDbEntity
  8
0
100
AcDbLine
 10
257.99378337220264
 20
1382.220179026165
 30
0.0
 11
257.68439569772
 21
1381.793225117612
 31
0.0
  0
LINE
  5
115
330
17
100
AcDbEntity
  8
0
100
AcDbLine
 10
257.68439569772
 20
1381.793225117612
 30
0.0
 11
257.407779439466
 21
1381.3443444889133
 31
0.0
  0
LINE
  5
116
330
17
100
AcDbEntity
  8
0
100
AcDbLine
 10
257.407779439466
 20
1381.3443444889133
 30
0.0
 11
257.16548154776603
 21
1380.8760474626274
 31
0.0
  0
LINE
  5
117
330
17
100
AcDbEntity
  8
0
100
AcDbLine
 10
257.16548154776603
 20
1380.8760474626274
 30
0.0
 11
256.9588570507151
 21
1380.3909529456832
 31
0.0
  0
LINE
  5
118
330
17
100
AcDbEntity
  8
0
100
AcDbLine
 10
256.9588570507151
 20
1380.3909529456832
 30
0.0
 11
256.7890614763144
 21
1379.891773783393
 31
0.0
  0
LINE
  5
119
330
17
100
AcDbEntity
  8
0
100
AcDbLine
 10
256.7890614763144
 20
1379.891773783393
 30
0.0
 11
256.65704439029116
 21
1379.3813015881194
 31
0.0
  0
LINE
  5
11A
330
17
100
AcDbEntity
  8
0
100
AcDbLine
 10
256.65704439029116
 20
1379.3813015881194
 30
0.0
 11
256.56354408574276
 21
1378.862391127443
 31
0.0
  0
LINE
  5
11B
330
17
100
AcDbEntity
  8
0
100
AcDbLine
 10
256.56354408574276
 20
1378.862391127443
 30
0.0
 11
256.509083454298
 21
1378.3379443591502
 31
0.0
  0
LINE
  5
11C
330
17
100
AcDbEntity
  8
0
100
AcDbLine
 10
256.509083454298
 20
1378.3379443591502
 30
0.0
 11
256.493967061901
 21
1377.8108942023027
 31
0.0
  0
LINE
  5
11D
330
17
100
AcDbEntity
  8
0
100
AcDbLine
 10
256.493967061901
 20
1377.8108942023027
 30
0.0
 11
256.51827944554833
 21
1377.2841881351737
 31
0.0
  0
LINE
  5
11E
330
17
100
AcDbEntity
  8
0
100
AcDbLine
 10
256.51827944554833
 20
1377.2841881351737
 30
0.0
 11
256.5818846405301
 21
1376.760771711737
 31
0.0
  0
LINE
  5
11F
330
17
100
AcDbEntity
  8
0
100
AcDbLine
 10
256.5818846405301
 20
1376.760771711737
 30
0.0
 11
256.6844269407935
 21
1376.2435720889546
 31
0.0
  0
LINE
  5
120
330
17
100
AcDbEntity
  8
0
100
AcDbLine
 10
256.6844269407935
 20
1376.2435720889546
 30
0.0
 11
256.82533288820196
 21
1375.735481656909
 31
0.0
  0
LINE
  5
121
330
17
100
AcDbEntity
  8
0
100
AcDbLine
 10
256.82533288820196
 20
1375.735481656909
 30
0.0
 11
257.0038144795396
 21
1375.2393418634003
 31
0.0
  0
LINE
  5
122
330
17
100
AcDbEntity
  8
0
100
AcDbLine
 10
257.0038144795396
 20
1375.2393418634003
 30
0.0
 11
257.218873573349
 21
1374.7579273234016
 31
0.0
  0
LINE
  5
123
330
17
100
AcDbEntity
  8
0
100
AcDbLine
 10
257.218873573349
 20
1374.7579273234016
 30
0.0
 11
257.46930747194267
 21
1374.293930302306
 31
0.0
  0
LINE
  5
124
330
17
100
AcDbEntity
  8
0
100
AcDbLine
 10
257.46930747194267
 20
1374.293930302306
 30
0.0
 11
257.7537156473745
 21
1373.8499456596674
 31
0.0
  0
LINE
  5
125
330
17
100
AcDbEntity
  8
0
100
AcDbLine
 10
257.7537156473745
 20
1373.8499456596674
 30
0.0
 11
258.0705075737578
 21
1373.428456337706
 31
0.0
  0
LINE
  5
126
330
17
100
AcDbEntity
  8
0
100
AcDbLine
 10
258.0705075737578
 20
1373.428456337706
 30
0.0
 11
258.4179116221401
 21
1373.0318194756794
 31
0.0
  0
LINE
  5
127
330
17
100
AcDbEntity
  8
0
100
AcDbLine
 10
258.4179116221401
 20
1373.0318194756794
 30
0.0
 11
258.7939849681618
 21
1372.6622532278122
 31
0.0
  0
LINE
  5
128
330
17
100
AcDbEntity
  8
0
100
AcDbLine
 10
258.7939849681618
 20
1372.6622532278122
 30
0.0
 11
259.196624457123
 21
1372.321824358473
 31
0.0
  0
LINE
  5
129
330
17
100
AcDbEntity
  8
0
100
AcDbLine
 10
259.196624457123
 20
1372.321824358473
 30
0.0
 11
259.6235783656771
 21
1372.0124366839916
 31
0.0
  0
LINE
  5
12A
330
17
100
AcDbEntity
  8
0
100
AcDbLine
 10
259.6235783656771
 20
1372.0124366839916
 30
0.0
 11
260.07245899437464
 21
1371.7358204257382
 31
0.0
  0
LINE
  5
12B
330
17
100
AcDbEntity
  8
0
100
AcDbLine
 10
260.07245899437464
 20
1371.7358204257382
 30
0.0
 11
260.54075602066075
 21
1371.4935225340378
 31
0.0
  0
LINE
  5
12C
330
17
100
AcDbEntity
  8
0
100
AcDbLine
 10
260.54075602066075
 20
1371.4935225340378
 30
0.0
 11
261.02585053760475
 21
1371.2868980369872
 31
0.0
  0
LINE
  5
12D
330
17
100
AcDbEntity
  8
0
100
AcDbLine
 10
261.02585053760475
 20
1371.2868980369872
 30
0.0
 11
261.5250296998935
 21
1371.117102462586
 31
0.0
  0
LINE
  5
12E
330
17
100
AcDbEntity
  8
0
100
AcDbLine
 10
261.5250296998935
 20
1371.117102462586
 30
0.0
 11
262.0355018951691
 21
1370.9850853765622
 31
0.0
  0
LINE
  5
12F
330
17
100
AcDbEntity
  8
0
100
AcDbLine
 10
262.0355018951691
 20
1370.9850853765622
 30
0.0
 11
262.5544123558451
 21
1370.8915850720143
 31
0.0
  0
LINE
  5
130
330
17
100
AcDbEntity
  8
0
100
AcDbLine
 10
262.5544123558451
 20
1370.8915850720143
 30
0.0
 11
263.07885912413906
 21
1370.83712444057
 31
0.0
  0
LINE
  5
131
330
17
100
AcDbEntity
  8
0
100
AcDbLine
 10
263.07885912413906
 20
1370.83712444057
 30
0.0
 11
263.60590928098514
 21
1370.8220080481733
 31
0.0
  0
LINE
  5
132
330
17
100
AcDbEntity
  8
0
100
AcDbLine
 10
263.60590928098514
 20
1370.8220080481733
 30
0.0
 11
264.13261534811556
 21
1370.8463204318205
 31
0.0
  0
LINE
  5
133
330
17
100
AcDbEntity
  8
0
100
AcDbLine
 10
264.13261534811556
 20
1370.8463204318205
 30
0.0
 11
264.65603177155094
 21
1370.9099256268019
 31
0.0
  0
LINE
  5
134
330
17
100
AcDbEntity
  8
0
100
AcDbLine
 10
264.65603177155094
 20
1370.9099256268019
 30
0.0
 11
265.17323139433336
 21
1371.0124679270646
 31
0.0
  0
LINE
  5
135
330
17
100
AcDbEntity
  8
0
100
AcDbLine
 10
265.17323139433336
 20
1371.0124679270646
 30
0.0
 11
265.6813218263792
 21
1371.1533738744738
 31
0.0
  0
LINE
  5
136
330
17
100
AcDbEntity
  8
0
100
AcDbLine
 10
265.6813218263792
 20
1371.1533738744738
 30
0.0
 11
266.1774616198889
 21
1371.3318554658117
 31
0.0
  0
LINE
  5
137
330
17
100
AcDbEntity
  8
0
100
AcDbLine
 10
266.1774616198889
 20
1371.3318554658117
 30
0.0
 11
266.65887615988504
 21
1371.5469145596207
 31
0.0
  0
LINE
  5
138
330
17
100
AcDbEntity
  8
0
100
AcDbLine
 10
266.65887615988504
 20
1371.5469145596207
 30
0.0
 11
267.1228731809822
 21
1371.7973484582149
 31
0.0
  0
LINE
  5
139
330
17
100
AcDbEntity
  8
0
100
AcDbLine
 10
267.1228731809822
 20
1371.7973484582149
 30
0.0
 11
267.56685782361956
 21
1372.0817566336461
 31
0.0
  0
LINE
  5
13A
330
17
100
AcDbEntity
  8
0
100
AcDbLine
 10
267.56685782361956
 20
1372.0817566336461
 30
0.0
 11
267.9883471455827
 21
1372.3985485600283
 31
0.0
  0
LINE
  5
13B
330
17
100
AcDbEntity
  8
0
100
AcDbLine
 10
267.9883471455827
 20
1372.3985485600283
 30
0.0
 11
268.384984007609
 21
1372.7459526084108
 31
0.0
  0
LINE
  5
13C
330
17
100
AcDbEntity
  8
0
100
AcDbLine
 10
268.384984007609
 20
1372.7459526084108
 30
0.0
 11
268.75455025547615
 21
1373.1220259544334
 31
0.0
  0
LINE
  5
13D
330
17
100
AcDbEntity
  8
0
100
AcDbLine
 10
268.75455025547615
 20
1373.1220259544334
 30
0.0
 11
269.09497912481356
 21
1373.524665443395
 31
0.0
  0
LINE
  5
13E
330
17
100
AcDbEntity
  8
0
100
AcDbLine
 10
269.09497912481356
 20
1373.524665443395
 30
0.0
 11
269.4043667992977
 21
1373.9516193519466
 31
0.0
  0
LINE
  5
13F
330
17
100
AcDbEntity
  8
0
100
AcDbLine
 10
269.4043667992977
 20
1373.9516193519466
 30
0.0
 11
269.6809830575502
 21
1374.4004999806455
 31
0.0
  0
LINE
  5
140
330
17
100
AcDbEntity
  8
0
100
AcDbLine
 10
269.6809830575502
 20
1374.4004999806455
 30
0.0
 11
269.92328094925017
 21
1374.8687970069311
 31
0.0
  0
LINE
  5
141
330
17
100
AcDbEntity
  8
0
100
AcDbLine
 10
269.92328094925017
 20
1374.8687970069311
 30
0.0
 11
270.1299054463021
 21
1375.3538915238769
 31
0.0
  0
LINE
  5
142
330
17
100
AcDbEntity
  8
0
100
AcDbLine
 10
270.1299054463021
 20
1375.3538915238769
 30
0.0
 11
270.29970102070195
 21
1375.8530706861654
 31
0.0
  0
LINE
  5
143
330
17
100
AcDbEntity
  8
0
100
AcDbLine
 10
270.29970102070195
 20
1375.8530706861654
 30
0.0
 11
270.43171810672516
 21
1376.3635428814407
 31
0.0
  0
LINE
  5
144
330
17
100
AcDbEntity
  8
0
100
AcDbLine
 10
270.43171810672516
 20
1376.3635428814407
 30
0.0
 11
270.5252184112735
 21
1376.8824533421168
 31
0.0
  0
LINE
  5
145
330
17
100
AcDbEntity
  8
0
100
AcDbLine
 10
270.5252184112735
 20
1376.8824533421168
 30
0.0
 11
270.5796790427183
 21
1377.4069001104112
 31
0.0
  0
LINE
  5
146
330
17
100
AcDbEntity
  8
0
100
AcDbLine
 10
270.5796790427183
 20
1377.4069001104112
 30
0.0
 11
270.5947954351153
 21
1377.933950267256
 31
0.0
  0
LINE
  5
147
330
17
100
AcDbEntity
  8
0
100
AcDbLine
 10
113.96525529985627
 20
1730.9112659811885
 30
0.0
 11
113.94094291620893
 21
1731.437972048319
 31
0.0
  0
LINE
  5
148
330
17
100
AcDbEntity
  8
0
100
AcDbLine
 10
113.94094291620893
 20
1731.437972048319
 30
0.0
 11
113.87733772122769
 21
1731.961388471755
 31
0.0
  0
LINE
  5
149
330
17
100
AcDbEntity
  8
0
100
AcDbLine
 10
113.87733772122769
 20
1731.961388471755
 30
0.0
 11
113.77479542096397
 21
1732.4785880945378
 31
0.0
  0
LINE
  5
14A
330
17
100
AcDbEntity
  8
0
100
AcDbLine
 10
113.77479542096397
 20
1732.4785880945378
 30
0.0
 11
113.63388947355575
 21
1732.9866785265822
 31
0.0
  0
LINE
  5
14B
330
17
100
AcDbEntity
  8
0
100
AcDbLine
 10
113.63388947355575
 20
1732.9866785265822
 30
0.0
 11
113.45540788221902
 21
1733.482818320092
 31
0.0
  0
LINE
  5
14C
330
17
100
AcDbEntity
  8
0
100
AcDbLine
 10
113.45540788221902
 20
1733.482818320092
 30
0.0
 11
113.24034878840824
 21
1733.9642328600894
 31
0.0
  0
LINE
  5
14D
330
17
100
AcDbEntity
  8
0
100
AcDbLine
 10
113.24034878840824
 20
1733.9642328600894
 30
0.0
 11
112.98991488981552
 21
1734.428229881185
 31
0.0
  0
LINE
  5
14E
330
17
100
AcDbEntity
  8
0
100
AcDbLine
 10
112.98991488981552
 20
1734.428229881185
 30
0.0
 11
112.70550671438446
 21
1734.8722145238237
 31
0.0
  0
LINE
  5
14F
330
17
100
AcDbEntity
  8
0
100
AcDbLine
 10
112.70550671438446
 20
1734.8722145238237
 30
0.0
 11
112.38871478799989
 21
1735.2937038457867
 31
0.0
  0
LINE
  5
150
330
17
100
AcDbEntity
  8
0
100
AcDbLine
 10
112.38871478799989
 20
1735.2937038457867
 30
0.0
 11
112.04131073961832
 21
1735.690340707812
 31
0.0
  0
LINE
  5
151
330
17
100
AcDbEntity
  8
0
100
AcDbLine
 10
112.04131073961832
 20
1735.690340707812
 30
0.0
 11
111.66523739359583
 21
1736.059906955679
 31
0.0
  0
LINE
  5
152
330
17
100
AcDbEntity
  8
0
100
AcDbLine
 10
111.66523739359583
 20
1736.059906955679
 30
0.0
 11
111.26259790463448
 21
1736.4003358250181
 31
0.0
  0
LINE
  5
153
330
17
100
AcDbEntity
  8
0
100
AcDbLine
 10
111.26259790463448
 20
1736.4003358250181
 30
0.0
 11
110.83564399608154
 21
1736.7097234995017
 31
0.0
  0
LINE
  5
154
330
17
100
AcDbEntity
  8
0
100
AcDbLine
 10
110.83564399608154
 20
1736.7097234995017
 30
0.0
 11
110.38676336738281
 21
1736.9863397577542
 31
0.0
  0
LINE
  5
155
330
17
100
AcDbEntity
  8
0
100
AcDbLine
 10
110.38676336738281
 20
1736.9863397577542
 30
0.0
 11
109.91846634109677
 21
1737.2286376494535
 31
0.0
  0
LINE
  5
156
330
17
100
AcDbEntity
  8
0
100
AcDbLine
 10
109.91846634109677
 20
1737.2286376494535
 30
0.0
 11
109.43337182415401
 21
1737.4352621465052
 31
0.0
  0
LINE
  5
157
330
17
100
AcDbEntity
  8
0
100
AcDbLine
 10
109.43337182415401
 20
1737.4352621465052
 30
0.0
 11
108.93419266186402
 21
1737.6050577209064
 31
0.0
  0
LINE
  5
158
330
17
100
AcDbEntity
  8
0
100
AcDbLine
 10
108.93419266186402
 20
1737.6050577209064
 30
0.0
 11
108.42372046658873
 21
1737.7370748069293
 31
0.0
  0
LINE
  5
159
330
17
100
AcDbEntity
  8
0
100
AcDbLine
 10
108.42372046658873
 20
1737.7370748069293
 30
0.0
 11
107.9048100059124
 21
1737.830575111478
 31
0.0
  0
LINE
  5
15A
330
17
100
AcDbEntity
  8
0
100
AcDbLine
 10
107.9048100059124
 20
1737.830575111478
 30
0.0
 11
107.38036323761958
 21
1737.885035742921
 31
0.0
  0
LINE
  5
15B
330
17
100
AcDbEntity
  8
0
100
AcDbLine
 10
107.38036323761958
 20
1737.885035742921
 30
0.0
 11
106.85331308077323
 21
1737.9001521353193
 31
0.0
  0
LINE
  5
15C
330
17
100
AcDbEntity
  8
0
100
AcDbLine
 10
106.85331308077323
 20
1737.9001521353193
 30
0.0
 11
106.32660701364307
 21
1737.8758397516706
 31
0.0
  0
LINE
  5
15D
330
17
100
AcDbEntity
  8
0
100
AcDbLine
 10
106.32660701364307
 20
1737.8758397516706
 30
0.0
 11
105.80319059020655
 21
1737.8122345566908
 31
0.0
  0
LINE
  5
15E
330
17
100
AcDbEntity
  8
0
100
AcDbLine
 10
105.80319059020655
 20
1737.8122345566908
 30
0.0
 11
105.2859909674239
 21
1737.709692256427
 31
0.0
  0
LINE
  5
15F
330
17
100
AcDbEntity
  8
0
100
AcDbLine
 10
105.2859909674239
 20
1737.709692256427
 30
0.0
 11
104.77790053537854
 21
1737.5687863090188
 31
0.0
  0
LINE
  5
160
330
17
100
AcDbEntity
  8
0
100
AcDbLine
 10
104.77790053537854
 20
1737.5687863090188
 30
0.0
 11
104.28176074186861
 21
1737.3903047176807
 31
0.0
  0
LINE
  5
161
330
17
100
AcDbEntity
  8
0
100
AcDbLine
 10
104.28176074186861
 20
1737.3903047176807
 30
0.0
 11
103.80034620187249
 21
1737.1752456238705
 31
0.0
  0
LINE
  5
162
330
17
100
AcDbEntity
  8
0
100
AcDbLine
 10
103.80034620187249
 20
1737.1752456238705
 30
0.0
 11
103.33634918077662
 21
1736.9248117252778
 31
0.0
  0
LINE
  5
163
330
17
100
AcDbEntity
  8
0
100
AcDbLine
 10
103.33634918077662
 20
1736.9248117252778
 30
0.0
 11
102.89236453813815
 21
1736.6404035498472
 31
0.0
  0
LINE
  5
164
330
17
100
AcDbEntity
  8
0
100
AcDbLine
 10
102.89236453813815
 20
1736.6404035498472
 30
0.0
 11
102.47087521617615
 21
1736.323611623463
 31
0.0
  0
LINE
  5
165
330
17
100
AcDbEntity
  8
0
100
AcDbLine
 10
102.47087521617615
 20
1736.323611623463
 30
0.0
 11
102.07423835414853
 21
1735.9762075750805
 31
0.0
  0
LINE
  5
166
330
17
100
AcDbEntity
  8
0
100
AcDbLine
 10
102.07423835414853
 20
1735.9762075750805
 30
0.0
 11
101.70467210628271
 21
1735.600134229058
 31
0.0
  0
LINE
  5
167
330
17
100
AcDbEntity
  8
0
100
AcDbLine
 10
101.70467210628271
 20
1735.600134229058
 30
0.0
 11
101.3642432369437
 21
1735.1974947400977
 31
0.0
  0
LINE
  5
168
330
17
100
AcDbEntity
  8
0
100
AcDbLine
 10
101.3642432369437
 20
1735.1974947400977
 30
0.0
 11
101.05485556246117
 21
1734.7705408315446
 31
0.0
  0
LINE
  5
169
330
17
100
AcDbEntity
  8
0
100
AcDbLine
 10
101.05485556246117
 20
1734.7705408315446
 30
0.0
 11
100.77823930420756
 21
1734.3216602028458
 31
0.0
  0
LINE
  5
16A
330
17
100
AcDbEntity
  8
0
100
AcDbLine
 10
100.77823930420756
 20
1734.3216602028458
 30
0.0
 11
100.53594141250731
 21
1733.85336317656
 31
0.0
  0
LINE
  5
16B
330
17
100
AcDbEntity
  8
0
100
AcDbLine
 10
100.53594141250731
 20
1733.85336317656
 30
0.0
 11
100.32931691545664
 21
1733.3682686596158
 31
0.0
  0
LINE
  5
16C
330
17
100
AcDbEntity
  8
0
100
AcDbLine
 10
100.32931691545664
 20
1733.3682686596158
 30
0.0
 11
100.15952134105542
 21
1732.8690894973256
 31
0.0
  0
LINE
  5
16D
330
17
100
AcDbEntity
  8
0
100
AcDbLine
 10
100.15952134105542
 20
1732.8690894973256
 30
0.0
 11
100.0275042550338
 21
1732.3586173020517
 31
0.0
  0
LINE
  5
16E
330
17
100
AcDbEntity
  8
0
100
AcDbLine
 10
100.0275042550338
 20
1732.3586173020517
 30
0.0
 11
99.93400395048397
 21
1731.8397068413756
 31
0.0
  0
LINE
  5
16F
330
17
100
AcDbEntity
  8
0
100
AcDbLine
 10
99.93400395048397
 20
1731.8397068413756
 30
0.0
 11
99.87954331903943
 21
1731.3152600730814
 31
0.0
  0
LINE
  5
170
330
17
100
AcDbEntity
  8
0
100
AcDbLine
 10
99.87954331903943
 20
1731.3152600730814
 30
0.0
 11
99.86442692664252
 21
1730.7882099162352
 31
0.0
  0
LINE
  5
171
330
17
100
AcDbEntity
  8
0
100
AcDbLine
 10
99.86442692664252
 20
1730.7882099162352
 30
0.0
 11
99.88873931028975
 21
1730.2615038491049
 31
0.0
  0
LINE
  5
172
330
17
100
AcDbEntity
  8
0
100
AcDbLine
 10
99.88873931028975
 20
1730.2615038491049
 30
0.0
 11
99.95234450527133
 21
1729.7380874256694
 31
0.0
  0
LINE
  5
173
330
17
100
AcDbEntity
  8
0
100
AcDbLine
 10
99.95234450527133
 20
1729.7380874256694
 30
0.0
 11
100.05488680553617
 21
1729.2208878028869
 31
0.0
  0
LINE
  5
174
330
17
100
AcDbEntity
  8
0
100
AcDbLine
 10
100.05488680553617
 20
1729.2208878028869
 30
0.0
 11
100.19579275294302
 21
1728.7127973708416
 31
0.0
  0
LINE
  5
175
330
17
100
AcDbEntity
  8
0
100
AcDbLine
 10
100.19579275294302
 20
1728.7127973708416
 30
0.0
 11
100.37427434428113
 21
1728.2166575773326
 31
0.0
  0
LINE
  5
176
330
17
100
AcDbEntity
  8
0
100
AcDbLine
 10
100.37427434428113
 20
1728.2166575773326
 30
0.0
 11
100.58933343809032
 21
1727.7352430373342
 31
0.0
  0
LINE
  5
177
330
17
100
AcDbEntity
  8
0
100
AcDbLine
 10
100.58933343809032
 20
1727.7352430373342
 30
0.0
 11
100.83976733668418
 21
1727.2712460162384
 31
0.0
  0
LINE
  5
178
330
17
100
AcDbEntity
  8
0
100
AcDbLine
 10
100.83976733668418
 20
1727.2712460162384
 30
0.0
 11
101.1241755121157
 21
1726.8272613735999
 31
0.0
  0
LINE
  5
179
330
17
100
AcDbEntity
  8
0
100
AcDbLine
 10
101.1241755121157
 20
1726.8272613735999
 30
0.0
 11
101.44096743849889
 21
1726.4057720516385
 31
0.0
  0
LINE
  5
17A
330
17
100
AcDbEntity
  8
0
100
AcDbLine
 10
101.44096743849889
 20
1726.4057720516385
 30
0.0
 11
101.78837148688126
 21
1726.0091351896122
 31
0.0
  0
LINE
  5
17B
330
17
100
AcDbEntity
  8
0
100
AcDbLine
 10
101.78837148688126
 20
1726.0091351896122
 30
0.0
 11
102.1644448329025
 21
1725.639568941745
 31
0.0
  0
LINE
  5
17C
330
17
100
AcDbEntity
  8
0
100
AcDbLine
 10
102.1644448329025
 20
1725.639568941745
 30
0.0
 11
102.56708432186522
 21
1725.2991400724056
 31
0.0
  0
LINE
  5
17D
330
17
100
AcDbEntity
  8
0
100
AcDbLine
 10
102.56708432186522
 20
1725.2991400724056
 30
0.0
 11
102.99403823041723
 21
1724.9897523979243
 31
0.0
  0
LINE
  5
17E
330
17
100
AcDbEntity
  8
0
100
AcDbLine
 10
102.99403823041723
 20
1724.9897523979243
 30
0.0
 11
103.44291885911585
 21
1724.7131361396705
 31
0.0
  0
LINE
  5
17F
330
17
100
AcDbEntity
  8
0
100
AcDbLine
 10
103.44291885911585
 20
1724.7131361396705
 30
0.0
 11
103.9112158854019
 21
1724.4708382479703
 31
0.0
  0
LINE
  5
180
330
17
100
AcDbEntity
  8
0
100
AcDbLine
 10
103.9112158854019
 20
1724.4708382479703
 30
0.0
 11
104.396310402345
 21
1724.2642137509197
 31
0.0
  0
LINE
  5
181
330
17
100
AcDbEntity
  8
0
100
AcDbLine
 10
104.396310402345
 20
1724.2642137509197
 30
0.0
 11
104.89548956463487
 21
1724.0944181765185
 31
0.0
  0
LINE
  5
182
330
17
100
AcDbEntity
  8
0
100
AcDbLine
 10
104.89548956463487
 20
1724.0944181765185
 30
0.0
 11
105.40596175991006
 21
1723.962401090495
 31
0.0
  0
LINE
  5
183
330
17
100
AcDbEntity
  8
0
100
AcDbLine
 10
105.40596175991006
 20
1723.962401090495
 30
0.0
 11
105.92487222058627
 21
1723.8689007859468
 31
0.0
  0
LINE
  5
184
330
17
100
AcDbEntity
  8
0
100
AcDbLine
 10
105.92487222058627
 20
1723.8689007859468
 30
0.0
 11
106.44931898888056
 21
1723.8144401545037
 31
0.0
  0
LINE
  5
185
330
17
100
AcDbEntity
  8
0
100
AcDbLine
 10
106.44931898888056
 20
1723.8144401545037
 30
0.0
 11
106.97636914572645
 21
1723.7993237621056
 31
0.0
  0
LINE
  5
186
330
17
100
AcDbEntity
  8
0
100
AcDbLine
 10
106.97636914572645
 20
1723.7993237621056
 30
0.0
 11
107.50307521285707
 21
1723.823636145754
 31
0.0
  0
LINE
  5
187
330
17
100
AcDbEntity
  8
0
100
AcDbLine
 10
107.50307521285707
 20
1723.823636145754
 30
0.0
 11
108.0264916362921
 21
1723.8872413407341
 31
0.0
  0
LINE
  5
188
330
17
100
AcDbEntity
  8
0
100
AcDbLine
 10
108.0264916362921
 20
1723.8872413407341
 30
0.0
 11
108.54369125907489
 21
1723.9897836409973
 31
0.0
  0
LINE
  5
189
330
17
100
AcDbEntity
  8
0
100
AcDbLine
 10
108.54369125907489
 20
1723.9897836409973
 30
0.0
 11
109.05178169112035
 21
1724.130689588406
 31
0.0
  0
LINE
  5
18A
330
17
100
AcDbEntity
  8
0
100
AcDbLine
 10
109.05178169112035
 20
1724.130689588406
 30
0.0
 11
109.5479214846304
 21
1724.3091711797442
 31
0.0
  0
LINE
  5
18B
330
17
100
AcDbEntity
  8
0
100
AcDbLine
 10
109.5479214846304
 20
1724.3091711797442
 30
0.0
 11
110.02933602462619
 21
1724.5242302735533
 31
0.0
  0
LINE
  5
18C
330
17
100
AcDbEntity
  8
0
100
AcDbLine
 10
110.02933602462619
 20
1724.5242302735533
 30
0.0
 11
110.49333304572204
 21
1724.7746641721474
 31
0.0
  0
LINE
  5
18D
330
17
100
AcDbEntity
  8
0
100
AcDbLine
 10
110.49333304572204
 20
1724.7746641721474
 30
0.0
 11
110.93731768836062
 21
1725.0590723475789
 31
0.0
  0
LINE
  5
18E
330
17
100
AcDbEntity
  8
0
100
AcDbLine
 10
110.93731768836062
 20
1725.0590723475789
 30
0.0
 11
111.35880701032355
 21
1725.3758642739608
 31
0.0
  0
LINE
  5
18F
330
17
100
AcDbEntity
  8
0
100
AcDbLine
 10
111.35880701032355
 20
1725.3758642739608
 30
0.0
 11
111.7554438723498
 21
1725.7232683223433
 31
0.0
  0
LINE
  5
190
330
17
100
AcDbEntity
  8
0
100
AcDbLine
 10
111.7554438723498
 20
1725.7232683223433
 30
0.0
 11
112.12501012021687
 21
1726.099341668366
 31
0.0
  0
LINE
  5
191
330
17
100
AcDbEntity
  8
0
100
AcDbLine
 10
112.12501012021687
 20
1726.099341668366
 30
0.0
 11
112.46543898955508
 21
1726.5019811573275
 31
0.0
  0
LINE
  5
192
330
17
100
AcDbEntity
  8
0
100
AcDbLine
 10
112.46543898955508
 20
1726.5019811573275
 30
0.0
 11
112.77482666403898
 21
1726.928935065879
 31
0.0
  0
LINE
  5
193
330
17
100
AcDbEntity
  8
0
100
AcDbLine
 10
112.77482666403898
 20
1726.928935065879
 30
0.0
 11
113.05144292229214
 21
1727.3778156945777
 31
0.0
  0
LINE
  5
194
330
17
100
AcDbEntity
  8
0
100
AcDbLine
 10
113.05144292229214
 20
1727.3778156945777
 30
0.0
 11
113.29374081399125
 21
1727.8461127208636
 31
0.0
  0
LINE
  5
195
330
17
100
AcDbEntity
  8
0
100
AcDbLine
 10
113.29374081399125
 20
1727.8461127208636
 30
0.0
 11
113.50036531104351
 21
1728.3312072378092
 31
0.0
  0
LINE
  5
196
330
17
100
AcDbEntity
  8
0
100
AcDbLine
 10
113.50036531104351
 20
1728.3312072378092
 30
0.0
 11
113.67016088544335
 21
1728.830386400098
 31
0.0
  0
LINE
  5
197
330
17
100
AcDbEntity
  8
0
100
AcDbLine
 10
113.67016088544335
 20
1728.830386400098
 30
0.0
 11
113.80217797146634
 21
1729.340858595373
 31
0.0
  0
LINE
  5
198
330
17
100
AcDbEntity
  8
0
100
AcDbLine
 10
113.80217797146634
 20
1729.340858595373
 30
0.0
 11
113.89567827601505
 21
1729.8597690560491
 31
0.0
  0
LINE
  5
199
330
17
100
AcDbEntity
  8
0
100
AcDbLine
 10
113.89567827601505
 20
1729.8597690560491
 30
0.0
 11
113.95013890745925
 21
1730.3842158243424
 31
0.0
  0
LINE
  5
19A
330
17
100
AcDbEntity
  8
0
100
AcDbLine
 10
113.95013890745925
 20
1730.3842158243424
 30
0.0
 11
113.96525529985627
 21
1730.9112659811885
 31
0.0
  0
LINE
  5
19B
330
17
100
AcDbEntity
  8
0
100
AcDbLine
 10
1151.190074015659
 20
763.1541424123063
 30
0.0
 11
1151.1657616320117
 21
763.6808484794365
 31
0.0
  0
LINE
  5
19C
330
17
100
AcDbEntity
  8
0
100
AcDbLine
 10
1151.1657616320117
 20
763.6808484794365
 30
0.0
 11
1151.1021564370305
 21
764.2042649028717
 31
0.0
  0
LINE
  5
19D
330
17
100
AcDbEntity
  8
0
100
AcDbLine
 10
1151.1021564370305
 20
764.2042649028717
 30
0.0
 11
1150.9996141367676
 21
764.7214645256556
 31
0.0
  0
LINE
  5
19E
330
17
100
AcDbEntity
  8
0
100
AcDbLine
 10
1150.9996141367676
 20
764.7214645256556
 30
0.0
 11
1150.85870818936
 21
765.2295549577009
 31
0.0
  0
LINE
  5
19F
330
17
100
AcDbEntity
  8
0
100
AcDbLine
 10
1150.85870818936
 20
765.2295549577009
 30
0.0
 11
1150.6802265980214
 21
765.7256947512097
 31
0.0
  0
LINE
  5
1A0
330
17
100
AcDbEntity
  8
0
100
AcDbLine
 10
1150.6802265980214
 20
765.7256947512097
 30
0.0
 11
1150.4651675042112
 21
766.2071092912071
 31
0.0
  0
LINE
  5
1A1
330
17
100
AcDbEntity
  8
0
100
AcDbLine
 10
1150.4651675042112
 20
766.2071092912071
 30
0.0
 11
1150.2147336056173
 21
766.6711063123025
 31
0.0
  0
LINE
  5
1A2
330
17
100
AcDbEntity
  8
0
100
AcDbLine
 10
1150.2147336056173
 20
766.6711063123025
 30
0.0
 11
1149.9303254301872
 21
767.1150909549413
 31
0.0
  0
LINE
  5
1A3
330
17
100
AcDbEntity
  8
0
100
AcDbLine
 10
1149.9303254301872
 20
767.1150909549413
 30
0.0
 11
1149.613533503804
 21
767.5365802769034
 31
0.0
  0
LINE
  5
1A4
330
17
100
AcDbEntity
  8
0
100
AcDbLine
 10
1149.613533503804
 20
767.5365802769034
 30
0.0
 11
1149.2661294554214
 21
767.9332171389304
 31
0.0
  0
LINE
  5
1A5
330
17
100
AcDbEntity
  8
0
100
AcDbLine
 10
1149.2661294554214
 20
767.9332171389304
 30
0.0
 11
1148.8900561093988
 21
768.3027833867967
 31
0.0
  0
LINE
  5
1A6
330
17
100
AcDbEntity
  8
0
100
AcDbLine
 10
1148.8900561093988
 20
768.3027833867967
 30
0.0
 11
1148.4874166204377
 21
768.6432122561357
 31
0.0
  0
LINE
  5
1A7
330
17
100
AcDbEntity
  8
0
100
AcDbLine
 10
1148.4874166204377
 20
768.6432122561357
 30
0.0
 11
1148.0604627118844
 21
768.9525999306195
 31
0.0
  0
LINE
  5
1A8
330
17
100
AcDbEntity
  8
0
100
AcDbLine
 10
1148.0604627118844
 20
768.9525999306195
 30
0.0
 11
1147.611582083187
 21
769.2292161888707
 31
0.0
  0
LINE
  5
1A9
330
17
100
AcDbEntity
  8
0
100
AcDbLine
 10
1147.611582083187
 20
769.2292161888707
 30
0.0
 11
1147.1432850569013
 21
769.4715140805711
 31
0.0
  0
LINE
  5
1AA
330
17
100
AcDbEntity
  8
0
100
AcDbLine
 10
1147.1432850569013
 20
769.4715140805711
 30
0.0
 11
1146.6581905399566
 21
769.678138577623
 31
0.0
  0
LINE
  5
1AB
330
17
100
AcDbEntity
  8
0
100
AcDbLine
 10
1146.6581905399566
 20
769.678138577623
 30
0.0
 11
1146.159011377666
 21
769.847934152024
 31
0.0
  0
LINE
  5
1AC
330
17
100
AcDbEntity
  8
0
100
AcDbLine
 10
1146.159011377666
 20
769.847934152024
 30
0.0
 11
1145.648539182393
 21
769.9799512380471
 31
0.0
  0
LINE
  5
1AD
330
17
100
AcDbEntity
  8
0
100
AcDbLine
 10
1145.648539182393
 20
769.9799512380471
 30
0.0
 11
1145.1296287217156
 21
770.0734515425955
 31
0.0
  0
LINE
  5
1AE
330
17
100
AcDbEntity
  8
0
100
AcDbLine
 10
1145.1296287217156
 20
770.0734515425955
 30
0.0
 11
1144.6051819534225
 21
770.12791217404
 31
0.0
  0
LINE
  5
1AF
330
17
100
AcDbEntity
  8
0
100
AcDbLine
 10
1144.6051819534225
 20
770.12791217404
 30
0.0
 11
1144.0781317965764
 21
770.1430285664371
 31
0.0
  0
LINE
  5
1B0
330
17
100
AcDbEntity
  8
0
100
AcDbLine
 10
1144.0781317965764
 20
770.1430285664371
 30
0.0
 11
1143.551425729446
 21
770.1187161827896
 31
0.0
  0
LINE
  5
1B1
330
17
100
AcDbEntity
  8
0
100
AcDbLine
 10
1143.551425729446
 20
770.1187161827896
 30
0.0
 11
1143.0280093060105
 21
770.0551109878082
 31
0.0
  0
LINE
  5
1B2
330
17
100
AcDbEntity
  8
0
100
AcDbLine
 10
1143.0280093060105
 20
770.0551109878082
 30
0.0
 11
1142.5108096832269
 21
769.9525686875447
 31
0.0
  0
LINE
  5
1B3
330
17
100
AcDbEntity
  8
0
100
AcDbLine
 10
1142.5108096832269
 20
769.9525686875447
 30
0.0
 11
1142.0027192511814
 21
769.8116627401364
 31
0.0
  0
LINE
  5
1B4
330
17
100
AcDbEntity
  8
0
100
AcDbLine
 10
1142.0027192511814
 20
769.8116627401364
 30
0.0
 11
1141.5065794576724
 21
769.6331811487985
 31
0.0
  0
LINE
  5
1B5
330
17
100
AcDbEntity
  8
0
100
AcDbLine
 10
1141.5065794576724
 20
769.6331811487985
 30
0.0
 11
1141.025164917675
 21
769.4181220549881
 31
0.0
  0
LINE
  5
1B6
330
17
100
AcDbEntity
  8
0
100
AcDbLine
 10
1141.025164917675
 20
769.4181220549881
 30
0.0
 11
1140.5611678965797
 21
769.1676881563941
 31
0.0
  0
LINE
  5
1B7
330
17
100
AcDbEntity
  8
0
100
AcDbLine
 10
1140.5611678965797
 20
769.1676881563941
 30
0.0
 11
1140.117183253941
 21
768.883279980965
 31
0.0
  0
LINE
  5
1B8
330
17
100
AcDbEntity
  8
0
100
AcDbLine
 10
1140.117183253941
 20
768.883279980965
 30
0.0
 11
1139.6956939319793
 21
768.5664880545805
 31
0.0
  0
LINE
  5
1B9
330
17
100
AcDbEntity
  8
0
100
AcDbLine
 10
1139.6956939319793
 20
768.5664880545805
 30
0.0
 11
1139.2990570699524
 21
768.2190840061982
 31
0.0
  0
LINE
  5
1BA
330
17
100
AcDbEntity
  8
0
100
AcDbLine
 10
1139.2990570699524
 20
768.2190840061982
 30
0.0
 11
1138.9294908220859
 21
767.8430106601764
 31
0.0
  0
LINE
  5
1BB
330
17
100
AcDbEntity
  8
0
100
AcDbLine
 10
1138.9294908220859
 20
767.8430106601764
 30
0.0
 11
1138.589061952746
 21
767.4403711712143
 31
0.0
  0
LINE
  5
1BC
330
17
100
AcDbEntity
  8
0
100
AcDbLine
 10
1138.589061952746
 20
767.4403711712143
 30
0.0
 11
1138.2796742782643
 21
767.0134172626622
 31
0.0
  0
LINE
  5
1BD
330
17
100
AcDbEntity
  8
0
100
AcDbLine
 10
1138.2796742782643
 20
767.0134172626622
 30
0.0
 11
1138.0030580200103
 21
766.5645366339634
 31
0.0
  0
LINE
  5
1BE
330
17
100
AcDbEntity
  8
0
100
AcDbLine
 10
1138.0030580200103
 20
766.5645366339634
 30
0.0
 11
1137.7607601283114
 21
766.0962396076776
 31
0.0
  0
LINE
  5
1BF
330
17
100
AcDbEntity
  8
0
100
AcDbLine
 10
1137.7607601283114
 20
766.0962396076776
 30
0.0
 11
1137.5541356312608
 21
765.6111450907334
 31
0.0
  0
LINE
  5
1C0
330
17
100
AcDbEntity
  8
0
100
AcDbLine
 10
1137.5541356312608
 20
765.6111450907334
 30
0.0
 11
1137.3843400568592
 21
765.1119659284445
 31
0.0
  0
LINE
  5
1C1
330
17
100
AcDbEntity
  8
0
100
AcDbLine
 10
1137.3843400568592
 20
765.1119659284445
 30
0.0
 11
1137.252322970837
 21
764.6014937331695
 31
0.0
  0
LINE
  5
1C2
330
17
100
AcDbEntity
  8
0
100
AcDbLine
 10
1137.252322970837
 20
764.6014937331695
 30
0.0
 11
1137.158822666288
 21
764.082583272492
 31
0.0
  0
LINE
  5
1C3
330
17
100
AcDbEntity
  8
0
100
AcDbLine
 10
1137.158822666288
 20
764.082583272492
 30
0.0
 11
1137.1043620348435
 21
763.558136504199
 31
0.0
  0
LINE
  5
1C4
330
17
100
AcDbEntity
  8
0
100
AcDbLine
 10
1137.1043620348435
 20
763.558136504199
 30
0.0
 11
1137.0892456424453
 21
763.031086347353
 31
0.0
  0
LINE
  5
1C5
330
17
100
AcDbEntity
  8
0
100
AcDbLine
 10
1137.0892456424453
 20
763.031086347353
 30
0.0
 11
1137.1135580260939
 21
762.5043802802238
 31
0.0
  0
LINE
  5
1C6
330
17
100
AcDbEntity
  8
0
100
AcDbLine
 10
1137.1135580260939
 20
762.5043802802238
 30
0.0
 11
1137.1771632210753
 21
761.9809638567871
 31
0.0
  0
LINE
  5
1C7
330
17
100
AcDbEntity
  8
0
100
AcDbLine
 10
1137.1771632210753
 20
761.9809638567871
 30
0.0
 11
1137.2797055213393
 21
761.4637642340033
 31
0.0
  0
LINE
  5
1C8
330
17
100
AcDbEntity
  8
0
100
AcDbLine
 10
1137.2797055213393
 20
761.4637642340033
 30
0.0
 11
1137.4206114687468
 21
760.955673801959
 31
0.0
  0
LINE
  5
1C9
330
17
100
AcDbEntity
  8
0
100
AcDbLine
 10
1137.4206114687468
 20
760.955673801959
 30
0.0
 11
1137.5990930600854
 21
760.4595340084493
 31
0.0
  0
LINE
  5
1CA
330
17
100
AcDbEntity
  8
0
100
AcDbLine
 10
1137.5990930600854
 20
760.4595340084493
 30
0.0
 11
1137.8141521538944
 21
759.9781194684531
 31
0.0
  0
LINE
  5
1CB
330
17
100
AcDbEntity
  8
0
100
AcDbLine
 10
1137.8141521538944
 20
759.9781194684531
 30
0.0
 11
1138.064586052487
 21
759.5141224473562
 31
0.0
  0
LINE
  5
1CC
330
17
100
AcDbEntity
  8
0
100
AcDbLine
 10
1138.064586052487
 20
759.5141224473562
 30
0.0
 11
1138.3489942279189
 21
759.0701378047188
 31
0.0
  0
LINE
  5
1CD
330
17
100
AcDbEntity
  8
0
100
AcDbLine
 10
1138.3489942279189
 20
759.0701378047188
 30
0.0
 11
1138.6657861543013
 21
758.648648482756
 31
0.0
  0
LINE
  5
1CE
330
17
100
AcDbEntity
  8
0
100
AcDbLine
 10
1138.6657861543013
 20
758.648648482756
 30
0.0
 11
1139.0131902026844
 21
758.2520116207297
 31
0.0
  0
LINE
  5
1CF
330
17
100
AcDbEntity
  8
0
100
AcDbLine
 10
1139.0131902026844
 20
758.2520116207297
 30
0.0
 11
1139.3892635487064
 21
757.8824453728625
 31
0.0
  0
LINE
  5
1D0
330
17
100
AcDbEntity
  8
0
100
AcDbLine
 10
1139.3892635487064
 20
757.8824453728625
 30
0.0
 11
1139.7919030376684
 21
757.542016503523
 31
0.0
  0
LINE
  5
1D1
330
17
100
AcDbEntity
  8
0
100
AcDbLine
 10
1139.7919030376684
 20
757.542016503523
 30
0.0
 11
1140.21885694622
 21
757.2326288290406
 31
0.0
  0
LINE
  5
1D2
330
17
100
AcDbEntity
  8
0
100
AcDbLine
 10
1140.21885694622
 20
757.2326288290406
 30
0.0
 11
1140.6677375749189
 21
756.9560125707881
 31
0.0
  0
LINE
  5
1D3
330
17
100
AcDbEntity
  8
0
100
AcDbLine
 10
1140.6677375749189
 20
756.9560125707881
 30
0.0
 11
1141.1360346012045
 21
756.7137146790878
 31
0.0
  0
LINE
  5
1D4
330
17
100
AcDbEntity
  8
0
100
AcDbLine
 10
1141.1360346012045
 20
756.7137146790878
 30
0.0
 11
1141.621129118149
 21
756.5070901820371
 31
0.0
  0
LINE
  5
1D5
330
17
100
AcDbEntity
  8
0
100
AcDbLine
 10
1141.621129118149
 20
756.5070901820371
 30
0.0
 11
1142.1203082804377
 21
756.3372946076361
 31
0.0
  0
LINE
  5
1D6
330
17
100
AcDbEntity
  8
0
100
AcDbLine
 10
1142.1203082804377
 20
756.3372946076361
 30
0.0
 11
1142.630780475713
 21
756.2052775216123
 31
0.0
  0
LINE
  5
1D7
330
17
100
AcDbEntity
  8
0
100
AcDbLine
 10
1142.630780475713
 20
756.2052775216123
 30
0.0
 11
1143.1496909363902
 21
756.1117772170646
 31
0.0
  0
LINE
  5
1D8
330
17
100
AcDbEntity
  8
0
100
AcDbLine
 10
1143.1496909363902
 20
756.1117772170646
 30
0.0
 11
1143.6741377046835
 21
756.0573165856188
 31
0.0
  0
LINE
  5
1D9
330
17
100
AcDbEntity
  8
0
100
AcDbLine
 10
1143.6741377046835
 20
756.0573165856188
 30
0.0
 11
1144.2011878615294
 21
756.0422001932233
 31
0.0
  0
LINE
  5
1DA
330
17
100
AcDbEntity
  8
0
100
AcDbLine
 10
1144.2011878615294
 20
756.0422001932233
 30
0.0
 11
1144.72789392866
 21
756.0665125768692
 31
0.0
  0
LINE
  5
1DB
330
17
100
AcDbEntity
  8
0
100
AcDbLine
 10
1144.72789392866
 20
756.0665125768692
 30
0.0
 11
1145.2513103520953
 21
756.1301177718519
 31
0.0
  0
LINE
  5
1DC
330
17
100
AcDbEntity
  8
0
100
AcDbLine
 10
1145.2513103520953
 20
756.1301177718519
 30
0.0
 11
1145.7685099748792
 21
756.2326600721146
 31
0.0
  0
LINE
  5
1DD
330
17
100
AcDbEntity
  8
0
100
AcDbLine
 10
1145.7685099748792
 20
756.2326600721146
 30
0.0
 11
1146.2766004069224
 21
756.3735660195237
 31
0.0
  0
LINE
  5
1DE
330
17
100
AcDbEntity
  8
0
100
AcDbLine
 10
1146.2766004069224
 20
756.3735660195237
 30
0.0
 11
1146.7727402004332
 21
756.5520476108617
 31
0.0
  0
LINE
  5
1DF
330
17
100
AcDbEntity
  8
0
100
AcDbLine
 10
1146.7727402004332
 20
756.5520476108617
 30
0.0
 11
1147.2541547404307
 21
756.7671067046708
 31
0.0
  0
LINE
  5
1E0
330
17
100
AcDbEntity
  8
0
100
AcDbLine
 10
1147.2541547404307
 20
756.7671067046708
 30
0.0
 11
1147.718151761526
 21
757.0175406032647
 31
0.0
  0
LINE
  5
1E1
330
17
100
AcDbEntity
  8
0
100
AcDbLine
 10
1147.718151761526
 20
757.0175406032647
 30
0.0
 11
1148.1621364041634
 21
757.3019487786951
 31
0.0
  0
LINE
  5
1E2
330
17
100
AcDbEntity
  8
0
100
AcDbLine
 10
1148.1621364041634
 20
757.3019487786951
 30
0.0
 11
1148.5836257261267
 21
757.6187407050782
 31
0.0
  0
LINE
  5
1E3
330
17
100
AcDbEntity
  8
0
100
AcDbLine
 10
1148.5836257261267
 20
757.6187407050782
 30
0.0
 11
1148.9802625881528
 21
757.9661447534611
 31
0.0
  0
LINE
  5
1E4
330
17
100
AcDbEntity
  8
0
100
AcDbLine
 10
1148.9802625881528
 20
757.9661447534611
 30
0.0
 11
1149.34982883602
 21
758.3422180994837
 31
0.0
  0
LINE
  5
1E5
330
17
100
AcDbEntity
  8
0
100
AcDbLine
 10
1149.34982883602
 20
758.3422180994837
 30
0.0
 11
1149.6902577053593
 21
758.744857588445
 31
0.0
  0
LINE
  5
1E6
330
17
100
AcDbEntity
  8
0
100
AcDbLine
 10
1149.6902577053593
 20
758.744857588445
 30
0.0
 11
1149.9996453798417
 21
759.1718114969979
 31
0.0
  0
LINE
  5
1E7
330
17
100
AcDbEntity
  8
0
100
AcDbLine
 10
1149.9996453798417
 20
759.1718114969979
 30
0.0
 11
1150.276261638094
 21
759.6206921256953
 31
0.0
  0
LINE
  5
1E8
330
17
100
AcDbEntity
  8
0
100
AcDbLine
 10
1150.276261638094
 20
759.6206921256953
 30
0.0
 11
1150.5185595297942
 21
760.0889891519826
 31
0.0
  0
LINE
  5
1E9
330
17
100
AcDbEntity
  8
0
100
AcDbLine
 10
1150.5185595297942
 20
760.0889891519826
 30
0.0
 11
1150.725184026846
 21
760.5740836689256
 31
0.0
  0
LINE
  5
1EA
330
17
100
AcDbEntity
  8
0
100
AcDbLine
 10
1150.725184026846
 20
760.5740836689256
 30
0.0
 11
1150.8949796012475
 21
761.0732628312154
 31
0.0
  0
LINE
  5
1EB
330
17
100
AcDbEntity
  8
0
100
AcDbLine
 10
1150.8949796012475
 20
761.0732628312154
 30
0.0
 11
1151.02699668727
 21
761.5837350264894
 31
0.0
  0
LINE
  5
1EC
330
17
100
AcDbEntity
  8
0
100
AcDbLine
 10
1151.02699668727
 20
761.5837350264894
 30
0.0
 11
1151.1204969918178
 21
762.1026454871668
 31
0.0
  0
LINE
  5
1ED
330
17
100
AcDbEntity
  8
0
100
AcDbLine
 10
1151.1204969918178
 20
762.1026454871668
 30
0.0
 11
1151.1749576232621
 21
762.6270922554613
 31
0.0
  0
LINE
  5
1EE
330
17
100
AcDbEntity
  8
0
100
AcDbLine
 10
1151.1749576232621
 20
762.6270922554613
 30
0.0
 11
1151.190074015659
 21
763.1541424123063
 31
0.0
  0
ENDSEC
  0
SECTION
  2
OBJECTS
  0
DICTIONARY
  5
A
330
0
100
AcDbDictionary
281
1
  3
ACAD_COLOR
350
B
  3
ACAD_GROUP
350
C
  3
ACAD_LAYOUT
350
D
  3
ACAD_MATERIAL
350
E
  3
ACAD_MLEADERSTYLE
350
F
  3
ACAD_MLINESTYLE
350
10
  3
ACAD_PLOTSETTINGS
350
11
  3
ACAD_PLOTSTYLENAME
350
12
  3
ACAD_SCALELIST
350
14
  3
ACAD_TABLESTYLE
350
15
  3
ACAD_VISUALSTYLE
350
16
  3
EZDXF_META
350
2D
  0
DICTIONARY
  5
B
330
A
100
AcDbDictionary
281
1
  0
DICTIONARY
  5
C
330
A
100
AcDbDictionary
281
1
  0
DICTIONARY
  5
D
330
A
100
AcDbDictionary
281
1
  3
Model
350
1A
  3
Layout1
350
1E
  0
DICTIONARY
  5
E
330
A
100
AcDbDictionary
281
1
  3
ByBlock
350
1F
  3
ByLayer
350
20
  3
Global
350
21
  0
DICTIONARY
  5
F
330
A
100
AcDbDictionary
281
1
  3
Standard
350
2C
  0
DICTIONARY
  5
10
330
A
100
AcDbDictionary
281
1
  3
Standard
350
22
  0
DICTIONARY
  5
11
330
A
100
AcDbDictionary
281
1
  0
ACDBDICTIONARYWDFLT
  5
12
330
A
100
AcDbDictionary
281
1
  3
Normal
350
13
100
AcDbDictionaryWithDefault
340
13
  0
ACDBPLACEHOLDER
  5
13
330
12
  0
DICTIONARY
  5
14
330
A
100
AcDbDictionary
281
1
  0
DICTIONARY
  5
15
330
A
100
AcDbDictionary
281
1
  0
DICTIONARY
  5
16
330
A
100
AcDbDictionary
281
1
  0
LAYOUT
  5
1A
330
D
100
AcDbPlotSettings
  1

  4
A3
  6

 40
7.5
 41
20.0
 42
7.5
 43
20.0
 44
420.0
 45
297.0
 46
0.0
 47
0.0
 48
0.0
 49
0.0
140
0.0
141
0.0
142
1.0
143
1.0
 70
1024
 72
1
 73
0
 74
5
  7

 75
16
 76
0
 77
2
 78
300
147
1.0
148
0.0
149
0.0
100
AcDbLayout
  1
Model
 70
1
 71
0
 10
0.0
 20
0.0
 11
420.0
 21
297.0
 12
0.0
 22
0.0
 32
0.0
 14
1e+20
 24
1e+20
 34
1e+20
 15
-1e+20
 25
-1e+20
 35
-1e+20
146
0.0
 13
0.0
 23
0.0
 33
0.0
 16
1.0
 26
0.0
 36
0.0
 17
0.0
 27
1.0
 37
0.0
 76
1
330
17
  0
LAYOUT
  5
1E
330
D
100
AcDbPlotSettings
  1

  4
A3
  6

 40
7.5
 41
20.0
 42
7.5
 43
20.0
 44
420.0
 45
297.0
 46
0.0
 47
0.0
 48
0.0
 49
0.0
140
0.0
141
0.0
142
1.0
143
1.0
 70
0
 72
1
 73
0
 74
5
  7

 75
16
 76
0
 77
2
 78
300
147
1.0
148
0.0
149
0.0
100
AcDbLayout
  1
Layout1
 70
1
 71
1
 10
0.0
 20
0.0
 11
420.0
 21
297.0
 12
0.0
 22
0.0
 32
0.0
 14
1e+20
 24
1e+20
 34
1e+20
 15
-1e+20
 25
-1e+20
 35
-1e+20
146
0.0
 13
0.0
 23
0.0
 33
0.0
 16
1.0
 26
0.0
 36
0.0
 17
0.0
 27
1.0
 37
0.0
 76
1
330
1B
  0
MATERIAL
  5
1F
102
{ACAD_REACTORS
330
E
102
}
330
E
100
AcDbMaterial
  1
ByBlock
  2

 70
0
 40
1.0
 71
1
 41
1.0
 91
-1023410177
 42
1.0
 72
1
  3

 73
1
 74
1
 75
1
 44
0.5
 73
0
 45
1.0
 46
1.0
 77
1
  4

 78
1
 79
1
170
1
 48
1.0
171
1
  6

172
1
173
1
174
1
140
1.0
141
1.0
175
1
  7

176
1
177
1
178
1
143
1.0
179
1
  8

270
1
271
1
272
1
145
1.0
146
1.0
273
1
  9

274
1
275
1
276
1
 42
1.0
 72
1
  3

 73
1
 74
1
 75
1
 94
63
  0
MATERIAL
  5
20
102
{ACAD_REACTORS
330
E
102
}
330
E
100
AcDbMaterial
  1
ByLayer
  2

 70
0
 40
1.0
 71
1
 41
1.0
 91
-1023410177
 42
1.0
 72
1
  3

 73
1
 74
1
 75
1
 44
0.5
 73
0
 45
1.0
 46
1.0
 77
1
  4

 78
1
 79
1
170
1
 48
1.0
171
1
  6

172
1
173
1
174
1
140
1.0
141
1.0
175
1
  7

176
1
177
1
178
1
143
1.0
179
1
  8

270
1
271
1
272
1
145
1.0
146
1.0
273
1
  9

274
1
275
1
276
1
 42
1.0
 72
1
  3

 73
1
 74
1
 75
1
 94
63
  0
MATERIAL
  5
21
102
{ACAD_REACTORS
330
E
102
}
330
E
100
AcDbMaterial
  1
Global
  2

 70
0
 40
1.0
 71
1
 41
1.0
 91
-1023410177
 42
1.0
 72
1
  3

 73
1
 74
1
 75
1
 44
0.5
 73
0
 45
1.0
 46
1.0
 77
1
  4

 78
1
 79
1
170
1
 48
1.0
171
1
  6

172
1
173
1
174
1
140
1.0
141
1.0
175
1
  7

176
1
177
1
178
1
143
1.0
179
1
  8

270
1
271
1
272
1
145
1.0
146
1.0
273
1
  9

274
1
275
1
276
1
 42
1.0
 72
1
  3

 73
1
 74
1
 75
1
 94
63
  0
MLINESTYLE
  5
22
102
{ACAD_REACTORS
330
10
102
}
330
10
100
AcDbMlineStyle
  2
Standard
 70
0
  3

 62
256
 51
90.0
 52
90.0
 71
2
 49
0.5
 62
256
  6
BYLAYER
 49
-0.5
 62
256
  6
BYLAYER
  0
MLEADERSTYLE
  5
2C
102
{ACAD_REACTORS
330
F
102
}
330
F
100
AcDbMLeaderStyle
179
2
170
2
171
1
172
0
 90
2
 40
0.0
 41
0.0
173
1
 91
-1056964608
 92
-2
290
1
 42
2.0
291
1
 43
8.0
  3
Standard
 44
4.0
300

342
29
174
1
175
1
176
0
178
1
 93
-1056964608
 45
4.0
292
0
297
0
 46
4.0
 94
-1056964608
 47
1.0
 49
1.0
140
1.0
294
1
141
0.0
177
0
142
1.0
295
0
296
0
143
3.75
271
0
272
9
273
9
  0
DICTIONARY
  5
2D
330
A
100
AcDbDictionary
280
1
281
1
  3
CREATED_BY_EZDXF
350
2E
  3
WRITTEN_BY_EZDXF
350
1F1
  0
DICTIONARYVAR
  5
2E
330
2D
100
DictionaryVariables
280
0
  1
1.4.3 @ 2026-04-16T08:37:49.775367+00:00
  0
DICTIONARYVAR
  5
1F1
330
2D
100
DictionaryVariables
280
0
  1
1.4.3 @ 2026-04-16T08:37:49.796005+00:00
  0
ENDSEC
  0
EOF
