  0
SECTION
  2
HEADER
  9
$ACADVER
  1
AC1024
  9
$ACADMAINTVER
 70
6
  9
$DWGCODEPAGE
  3
ANSI_1252
  9
$LASTSAVEDBY
  1
ezdxf
  9
$INSBASE
 10
0.0
 20
0.0
 30
0.0
  9
$EXTMIN
 10
1e+20
 20
1e+20
 30
1e+20
  9
$EXTMAX
 10
-1e+20
 20
-1e+20
 30
-1e+20
  9
$LIMMIN
 10
0.0
 20
0.0
  9
$LIMMAX
 10
420.0
 20
297.0
  9
$ORTHOMODE
 70
0
  9
$REGENMODE
 70
1
  9
$FILLMODE
 70
1
  9
$QTEXTMODE
 70
0
  9
$MIRRTEXT
 70
1
  9
$LTSCALE
 40
1.0
  9
$ATTMODE
 70
1
  9
$TEXTSIZE
 40
2.5
  9
$TRACEWID
 40
1.0
  9
$TEXTSTYLE
  7
Standard
  9
$CLAYER
  8
0
  9
$CELTYPE
  6
ByLayer
  9
$CECOLOR
 62
256
  9
$CELTSCALE
 40
1.0
  9
$DISPSILH
 70
0
  9
$DIMSCALE
 40
1.0
  9
$DIMASZ
 40
2.5
  9
$DIMEXO
 40
0.625
  9
$DIMDLI
 40
3.75
  9
$DIMRND
 40
0.0
  9
$DIMDLE
 40
0.0
  9
$DIMEXE
 40
1.25
  9
$DIMTP
 40
0.0
  9
$DIMTM
 40
0.0
  9
$DIMTXT
 40
2.5
  9
$DIMCEN
 40
2.5
  9
$DIMTSZ
 40
0.0
  9
$DIMTOL
 70
0
  9
$DIMLIM
 70
0
  9
$DIMTIH
 70
0
  9
$DIMTOH
 70
0
  9
$DIMSE1
 70
0
  9
$DIMSE2
 70
0
  9
$DIMTAD
 70
1
  9
$DIMZIN
 70
8
  9
$DIMBLK
  1

  9
$DIMASO
 70
1
  9
$DIMSHO
 70
1
  9
$DIMPOST
  1

  9
$DIMAPOST
  1

  9
$DIMALT
 70
0
  9
$DIMALTD
 70
3
  9
$DIMALTF
 40
0.03937007874
  9
$DIMLFAC
 40
1.0
  9
$DIMTOFL
 70
1
  9
$DIMTVP
 40
0.0
  9
$DIMTIX
 70
0
  9
$DIMSOXD
 70
0
  9
$DIMSAH
 70
0
  9
$DIMBLK1
  1

  9
$DIMBLK2
  1

  9
$DIMSTYLE
  2
ISO-25
  9
$DIMCLRD
 70
0
  9
$DIMCLRE
 70
0
  9
$DIMCLRT
 70
0
  9
$DIMTFAC
 40
1.0
  9
$DIMGAP
 40
0.625
  9
$DIMJUST
 70
0
  9
$DIMSD1
 70
0
  9
$DIMSD2
 70
0
  9
$DIMTOLJ
 70
0
  9
$DIMTZIN
 70
8
  9
$DIMALTZ
 70
0
  9
$DIMALTTZ
 70
0
  9
$DIMUPT
 70
0
  9
$DIMDEC
 70
2
  9
$DIMTDEC
 70
2
  9
$DIMALTU
 70
2
  9
$DIMALTTD
 70
3
  9
$DIMTXSTY
  7
Standard
  9
$DIMAUNIT
 70
0
  9
$DIMADEC
 70
0
  9
$DIMALTRND
 40
0.0
  9
$DIMAZIN
 70
0
  9
$DIMDSEP
 70
44
  9
$DIMATFIT
 70
3
  9
$DIMFRAC
 70
0
  9
$DIMLDRBLK
  1

  9
$DIMLUNIT
 70
2
  9
$DIMLWD
 70
-2
  9
$DIMLWE
 70
-2
  9
$DIMTMOVE
 70
0
  9
$DIMFXL
 40
1.0
  9
$DIMFXLON
 70
0
  9
$DIMJOGANG
 40
0.785398163397
  9
$DIMTFILL
 70
0
  9
$DIMTFILLCLR
 70
0
  9
$DIMARCSYM
 70
0
  9
$DIMLTYPE
  6

  9
$DIMLTEX1
  6

  9
$DIMLTEX2
  6

  9
$DIMTXTDIRECTION
 70
0
  9
$LUNITS
 70
2
  9
$LUPREC
 70
4
  9
$SKETCHINC
 40
1.0
  9
$FILLETRAD
 40
10.0
  9
$AUNITS
 70
0
  9
$AUPREC
 70
2
  9
$MENU
  1
.
  9
$ELEVATION
 40
0.0
  9
$PELEVATION
 40
0.0
  9
$THICKNESS
 40
0.0
  9
$LIMCHECK
 70
0
  9
$CHAMFERA
 40
0.0
  9
$CHAMFERB
 40
0.0
  9
$CHAMFERC
 40
0.0
  9
$CHAMFERD
 40
0.0
  9
$SKPOLY
 70
0
  9
$TDCREATE
 40
2461147.4846064816
  9
$TDUCREATE
 40
2458532.153996898
  9
$TDUPDATE
 40
2461147.4846064816
  9
$TDUUPDATE
 40
2458532.1544311
  9
$TDINDWG
 40
0.0
  9
$TDUSRTIMER
 40
0.0
  9
$USRTIMER
 70
1
  9
$ANGBASE
 50
0.0
  9
$ANGDIR
 70
0
  9
$PDMODE
 70
0
  9
$PDSIZE
 40
0.0
  9
$PLINEWID
 40
0.0
  9
$SPLFRAME
 70
0
  9
$SPLINETYPE
 70
6
  9
$SPLINESEGS
 70
8
  9
$HANDSEED
  5
33E
  9
$SURFTAB1
 70
6
  9
$SURFTAB2
 70
6
  9
$SURFTYPE
 70
6
  9
$SURFU
 70
6
  9
$SURFV
 70
6
  9
$UCSBASE
  2

  9
$UCSNAME
  2

  9
$UCSORG
 10
0.0
 20
0.0
 30
0.0
  9
$UCSXDIR
 10
1.0
 20
0.0
 30
0.0
  9
$UCSYDIR
 10
0.0
 20
1.0
 30
0.0
  9
$UCSORTHOREF
  2

  9
$UCSORTHOVIEW
 70
0
  9
$UCSORGTOP
 10
0.0
 20
0.0
 30
0.0
  9
$UCSORGBOTTOM
 10
0.0
 20
0.0
 30
0.0
  9
$UCSORGLEFT
 10
0.0
 20
0.0
 30
0.0
  9
$UCSORGRIGHT
 10
0.0
 20
0.0
 30
0.0
  9
$UCSORGFRONT
 10
0.0
 20
0.0
 30
0.0
  9
$UCSORGBACK
 10
0.0
 20
0.0
 30
0.0
  9
$PUCSBASE
  2

  9
$PUCSNAME
  2

  9
$PUCSORG
 10
0.0
 20
0.0
 30
0.0
  9
$PUCSXDIR
 10
1.0
 20
0.0
 30
0.0
  9
$PUCSYDIR
 10
0.0
 20
1.0
 30
0.0
  9
$PUCSORTHOREF
  2

  9
$PUCSORTHOVIEW
 70
0
  9
$PUCSORGTOP
 10
0.0
 20
0.0
 30
0.0
  9
$PUCSORGBOTTOM
 10
0.0
 20
0.0
 30
0.0
  9
$PUCSORGLEFT
 10
0.0
 20
0.0
 30
0.0
  9
$PUCSORGRIGHT
 10
0.0
 20
0.0
 30
0.0
  9
$PUCSORGFRONT
 10
0.0
 20
0.0
 30
0.0
  9
$PUCSORGBACK
 10
0.0
 20
0.0
 30
0.0
  9
$USERI1
 70
0
  9
$USERI2
 70
0
  9
$USERI3
 70
0
  9
$USERI4
 70
0
  9
$USERI5
 70
0
  9
$USERR1
 40
0.0
  9
$USERR2
 40
0.0
  9
$USERR3
 40
0.0
  9
$USERR4
 40
0.0
  9
$USERR5
 40
0.0
  9
$WORLDVIEW
 70
1
  9
$SHADEDGE
 70
3
  9
$SHADEDIF
 70
70
  9
$TILEMODE
 70
1
  9
$MAXACTVP
 70
64
  9
$PINSBASE
 10
0.0
 20
0.0
 30
0.0
  9
$PLIMCHECK
 70
0
  9
$PEXTMIN
 10
1e+20
 20
1e+20
 30
1e+20
  9
$PEXTMAX
 10
-1e+20
 20
-1e+20
 30
-1e+20
  9
$PLIMMIN
 10
0.0
 20
0.0
  9
$PLIMMAX
 10
420.0
 20
297.0
  9
$UNITMODE
 70
0
  9
$VISRETAIN
 70
1
  9
$PLINEGEN
 70
0
  9
$PSLTSCALE
 70
1
  9
$TREEDEPTH
 70
3020
  9
$CMLSTYLE
  2
Standard
  9
$CMLJUST
 70
0
  9
$CMLSCALE
 40
20.0
  9
$PROXYGRAPHICS
 70
1
  9
$MEASUREMENT
 70
1
  9
$CELWEIGHT
370
-1
  9
$ENDCAPS
280
0
  9
$JOINSTYLE
280
0
  9
$LWDISPLAY
290
0
  9
$INSUNITS
 70
0
  9
$HYPERLINKBASE
  1

  9
$STYLESHEET
  1

  9
$XEDIT
290
1
  9
$CEPSNTYPE
380
0
  9
$PSTYLEMODE
290
1
  9
$FINGERPRINTGUID
  2
{102058AA-DD64-461F-96EF-4F81736905CA}
  9
$VERSIONGUID
  2
{D96186F1-B35E-46AA-ABE6-E6872417D2DE}
  9
$EXTNAMES
290
1
  9
$PSVPSCALE
 40
0.0
  9
$OLESTARTUP
290
0
  9
$SORTENTS
280
127
  9
$INDEXCTL
280
0
  9
$HIDETEXT
280
1
  9
$XCLIPFRAME
280
1
  9
$HALOGAP
280
0
  9
$OBSCOLOR
 70
257
  9
$OBSLTYPE
280
0
  9
$INTERSECTIONDISPLAY
280
0
  9
$INTERSECTIONCOLOR
 70
257
  9
$DIMASSOC
280
2
  9
$PROJECTNAME
  1

  9
$CAMERADISPLAY
290
0
  9
$LENSLENGTH
 40
50.0
  9
$CAMERAHEIGHT
 40
0.0
  9
$STEPSPERSEC
 40
24.0
  9
$STEPSIZE
 40
100.0
  9
$3DDWFPREC
 40
2.0
  9
$PSOLWIDTH
 40
0.005
  9
$PSOLHEIGHT
 40
0.08
  9
$LOFTANG1
 40
1.570796326795
  9
$LOFTANG2
 40
1.570796326795
  9
$LOFTMAG1
 40
0.0
  9
$LOFTMAG2
 40
0.0
  9
$LOFTPARAM
 70
7
  9
$LOFTNORMALS
280
1
  9
$LATITUDE
 40
37.795
  9
$LONGITUDE
 40
-122.394
  9
$NORTHDIRECTION
 40
0.0
  9
$TIMEZONE
 70
-8000
  9
$LIGHTGLYPHDISPLAY
280
1
  9
$TILEMODELIGHTSYNCH
280
1
  9
$CMATERIAL
347
20
  9
$SOLIDHIST
280
0
  9
$SHOWHIST
280
1
  9
$DWFFRAME
280
2
  9
$DGNFRAME
280
2
  9
$REALWORLDSCALE
290
1
  9
$INTERFERECOLOR
 62
256
  9
$CSHADOW
280
0
  9
$SHADOWPLANELOCATION
 40
0.0
  0
ENDSEC
  0
SECTION
  2
CLASSES
  0
CLASS
  1
ACDBDICTIONARYWDFLT
  2
AcDbDictionaryWithDefault
  3
ObjectDBX Classes
 90
0
 91
0
280
0
281
0
  0
CLASS
  1
SUN
  2
AcDbSun
  3
SCENEOE
 90
1153
 91
0
280
0
281
0
  0
CLASS
  1
VISUALSTYLE
  2
AcDbVisualStyle
  3
ObjectDBX Classes
 90
4095
 91
0
280
0
281
0
  0
CLASS
  1
MATERIAL
  2
AcDbMaterial
  3
ObjectDBX Classes
 90
1153
 91
0
280
0
281
0
  0
CLASS
  1
SCALE
  2
AcDbScale
  3
ObjectDBX Classes
 90
1153
 91
0
280
0
281
0
  0
CLASS
  1
TABLESTYLE
  2
AcDbTableStyle
  3
ObjectDBX Classes
 90
4095
 91
0
280
0
281
0
  0
CLASS
  1
MLEADERSTYLE
  2
AcDbMLeaderStyle
  3
ACDB_MLEADERSTYLE_CLASS
 90
4095
 91
0
280
0
281
0
  0
CLASS
  1
DICTIONARYVAR
  2
AcDbDictionaryVar
  3
ObjectDBX Classes
 90
0
 91
0
280
0
281
0
  0
CLASS
  1
CELLSTYLEMAP
  2
AcDbCellStyleMap
  3
ObjectDBX Classes
 90
1152
 91
0
280
0
281
0
  0
CLASS
  1
MENTALRAYRENDERSETTINGS
  2
AcDbMentalRayRenderSettings
  3
SCENEOE
 90
1024
 91
0
280
0
281
0
  0
CLASS
  1
ACDBDETAILVIEWSTYLE
  2
AcDbDetailViewStyle
  3
ObjectDBX Classes
 90
1025
 91
0
280
0
281
0
  0
CLASS
  1
ACDBSECTIONVIEWSTYLE
  2
AcDbSectionViewStyle
  3
ObjectDBX Classes
 90
1025
 91
0
280
0
281
0
  0
CLASS
  1
RASTERVARIABLES
  2
AcDbRasterVariables
  3
ISM
 90
0
 91
0
280
0
281
0
  0
CLASS
  1
ACDBPLACEHOLDER
  2
AcDbPlaceHolder
  3
ObjectDBX Classes
 90
0
 91
0
280
0
281
0
  0
CLASS
  1
LAYOUT
  2
AcDbLayout
  3
ObjectDBX Classes
 90
0
 91
0
280
0
281
0
  0
ENDSEC
  0
SECTION
  2
TABLES
  0
TABLE
  2
VPORT
  5
8
330
0
100
AcDbSymbolTable
 70
1
  0
VPORT
  5
23
330
8
100
AcDbSymbolTableRecord
100
AcDbViewportTableRecord
  2
*Active
 70
0
 10
0.0
 20
0.0
 11
1.0
 21
1.0
 12
0.0
 22
0.0
 13
0.0
 23
0.0
 14
0.5
 24
0.5
 15
0.5
 25
0.5
 16
0.0
 26
0.0
 36
1.0
 17
0.0
 27
0.0
 37
0.0
 40
1000.0
 41
1.34
 42
50.0
 43
0.0
 44
0.0
 50
0.0
 51
0.0
 71
0
 72
1000
 73
1
 74
3
 75
0
 76
0
 77
0
 78
0
281
0
 65
0
146
0.0
  0
ENDTAB
  0
TABLE
  2
LTYPE
  5
2
330
0
100
AcDbSymbolTable
 70
3
  0
LTYPE
  5
24
330
2
100
AcDbSymbolTableRecord
100
AcDbLinetypeTableRecord
  2
ByBlock
 70
0
  3

 72
65
 73
0
 40
0.0
  0
LTYPE
  5
25
330
2
100
AcDbSymbolTableRecord
100
AcDbLinetypeTableRecord
  2
ByLayer
 70
0
  3

 72
65
 73
0
 40
0.0
  0
LTYPE
  5
26
330
2
100
AcDbSymbolTableRecord
100
AcDbLinetypeTableRecord
  2
Continuous
 70
0
  3

 72
65
 73
0
 40
0.0
  0
ENDTAB
  0
TABLE
  2
LAYER
  5
1
330
0
100
AcDbSymbolTable
 70
2
  0
LAYER
  5
27
330
1
100
AcDbSymbolTableRecord
100
AcDbLayerTableRecord
  2
0
 70
0
 62
7
  6
Continuous
370
-3
390
13
347
21
  0
LAYER
  5
28
330
1
100
AcDbSymbolTableRecord
100
AcDbLayerTableRecord
  2
Defpoints
 70
0
 62
7
  6
Continuous
290
0
370
-3
390
13
347
21
  0
ENDTAB
  0
TABLE
  2
STYLE
  5
5
330
0
100
AcDbSymbolTable
 70
1
  0
STYLE
  5
29
330
5
100
AcDbSymbolTableRecord
100
AcDbTextStyleTableRecord
  2
Standard
 70
0
 40
0.0
 41
1.0
 50
0.0
 71
0
 42
2.5
  3
txt
  4

  0
ENDTAB
  0
TABLE
  2
VIEW
  5
7
330
0
100
AcDbSymbolTable
 70
0
  0
ENDTAB
  0
TABLE
  2
UCS
  5
6
330
0
100
AcDbSymbolTable
 70
0
  0
ENDTAB
  0
TABLE
  2
APPID
  5
3
330
0
100
AcDbSymbolTable
 70
3
  0
APPID
  5
2A
330
3
100
AcDbSymbolTableRecord
100
AcDbRegAppTableRecord
  2
ACAD
 70
0
  0
APPID
  5
33B
330
3
100
AcDbSymbolTableRecord
100
AcDbRegAppTableRecord
  2
HATCHBACKGROUNDCOLOR
 70
0
  0
APPID
  5
33C
330
3
100
AcDbSymbolTableRecord
100
AcDbRegAppTableRecord
  2
EZDXF
 70
0
  0
ENDTAB
  0
TABLE
  2
DIMSTYLE
  5
4
330
0
100
AcDbSymbolTable
 70
1
100
AcDbDimStyleTable
  0
DIMSTYLE
105
2B
330
4
100
AcDbSymbolTableRecord
100
AcDbDimStyleTableRecord
  2
Standard
 70
0
 40
1.0
 41
2.5
 42
0.625
 43
3.75
 44
1.25
 45
0.0
 46
0.0
 47
0.0
 48
0.0
 49
2.5
140
2.5
141
2.5
142
0.0
143
0.03937007874
144
1.0
145
0.0
146
1.0
147
0.625
148
0.0
 69
0
 70
0
 71
0
 72
0
 73
0
 74
0
 75
0
 76
0
 77
1
 78
8
 79
3
170
0
171
3
172
1
173
0
174
0
175
0
176
0
177
0
178
0
179
2
271
2
272
2
273
2
274
3
275
0
276
0
277
2
278
44
279
0
280
0
281
0
282
0
283
0
284
8
285
0
286
0
288
0
289
3
290
0
371
-2
372
-2
  0
ENDTAB
  0
TABLE
  2
BLOCK_RECORD
  5
9
330
0
100
AcDbSymbolTable
 70
2
  0
BLOCK_RECORD
  5
17
330
9
100
AcDbSymbolTableRecord
100
AcDbBlockTableRecord
  2
*Model_Space
340
1A
 70
0
280
1
281
0
  0
BLOCK_RECORD
  5
1B
330
9
100
AcDbSymbolTableRecord
100
AcDbBlockTableRecord
  2
*Paper_Space
340
1E
 70
0
280
1
281
0
  0
ENDTAB
  0
ENDSEC
  0
SECTION
  2
BLOCKS
  0
BLOCK
  5
18
330
17
100
AcDbEntity
  8
0
100
AcDbBlockBegin
  2
*Model_Space
 70
0
 10
0.0
 20
0.0
 30
0.0
  3
*Model_Space
  1

  0
ENDBLK
  5
19
330
17
100
AcDbEntity
  8
0
100
AcDbBlockEnd
  0
BLOCK
  5
1C
330
1B
100
AcDbEntity
  8
0
100
AcDbBlockBegin
  2
*Paper_Space
 70
0
 10
0.0
 20
0.0
 30
0.0
  3
*Paper_Space
  1

  0
ENDBLK
  5
1D
330
1B
100
AcDbEntity
  8
0
100
AcDbBlockEnd
  0
ENDSEC
  0
SECTION
  2
ENTITIES
  0
LINE
  5
2F
330
17
100
AcDbEntity
  8
0
100
AcDbLine
 10
536.7515323559431
 20
2043.786839308615
 30
0.0
 11
554.6234770566131
 21
-4.135179126807657
 31
0.0
  0
LINE
  5
30
330
17
100
AcDbEntity
  8
0
100
AcDbLine
 10
1068.2273576065854
 20
2048.424958569562
 30
0.0
 11
1086.0993023072551
 21
0.5029401341390667
 31
0.0
  0
LINE
  5
31
330
17
100
AcDbEntity
  8
0
100
AcDbLine
 10
1599.703182857228
 20
2053.0630778305085
 30
0.0
 11
1617.5751275578978
 21
5.14105939508579
 31
0.0
  0
LINE
  5
32
330
17
100
AcDbEntity
  8
0
100
AcDbLine
 10
-6.067308057812694
 20
1714.776569023039
 30
0.0
 11
2041.85471037761
 21
1732.6485137237087
 31
0.0
  0
LINE
  5
33
330
17
100
AcDbEntity
  8
0
100
AcDbLine
 10
-0.39849562776664094
 20
1065.1950048278104
 30
0.0
 11
2047.523522807656
 21
1083.06694952848
 31
0.0
  0
LINE
  5
34
330
17
100
AcDbEntity
  8
0
100
AcDbLine
 10
5.27031680227942
 20
415.6134406325808
 30
0.0
 11
2053.192335237702
 21
433.48538533325063
 31
0.0
  0
LINE
  5
35
330
17
100
AcDbEntity
  8
0
100
AcDbLine
 10
550.918830726269
 20
420.37524307381955
 30
0.0
 11
762.3281034370826
 21
422.2201838465073
 31
0.0
  0
LINE
  5
36
330
17
100
AcDbEntity
  8
0
100
AcDbLine
 10
536.8698252332132
 20
406.0788712201763
 30
0.0
 11
762.4517866173745
 21
408.047495173156
 31
0.0
  0
LINE
  5
37
330
17
100
AcDbEntity
  8
0
100
AcDbLine
 10
891.3841162790478
 20
1334.0110351854228
 30
0.0
 11
896.2799088322694
 21
773.0087751986346
 31
0.0
  0
LINE
  5
38
330
17
100
AcDbEntity
  8
0
100
AcDbLine
 10
547.8679789457351
 20
769.9682303497917
 30
0.0
 11
723.8455299731711
 21
771.5039631717497
 31
0.0
  0
LINE
  5
39
330
17
100
AcDbEntity
  8
0
100
AcDbLine
 10
1092.8386477114866
 20
446.3651577300043
 30
0.0
 11
1092.1532367540356
 21
524.9054741281611
 31
0.0
  0
LINE
  5
3A
330
17
100
AcDbEntity
  8
0
100
AcDbLine
 10
1075.1227868698013
 20
446.2105537546395
 30
0.0
 11
1074.4373759123503
 21
524.7508701527963
 31
0.0
  0
LINE
  5
3B
330
17
100
AcDbEntity
  8
0
100
AcDbLine
 10
548.0225829211
 20
752.2523695081059
 30
0.0
 11
706.2842731068473
 21
753.6334983546989
 31
0.0
  0
LINE
  5
3C
330
17
100
AcDbEntity
  8
0
100
AcDbLine
 10
873.8228594127237
 20
1316.1405703683736
 30
0.0
 11
878.7186519659454
 21
755.1383103815839
 31
0.0
  0
LINE
  5
3D
330
17
100
AcDbEntity
  8
0
100
AcDbLine
 10
542.9721863925135
 20
1330.97049033658
 30
0.0
 11
891.3841162790478
 21
1334.0110351854228
 31
0.0
  0
LINE
  5
3E
330
17
100
AcDbEntity
  8
0
100
AcDbLine
 10
543.1267903678784
 20
1313.2546294948957
 30
0.0
 11
873.8228594127237
 21
1316.1405703683736
 31
0.0
  0
LINE
  5
3F
330
17
100
AcDbEntity
  8
0
100
AcDbLine
 10
726.896381753705
 20
421.9109758957775
 30
0.0
 11
726.4531836909923
 21
472.69644364194346
 31
0.0
  0
LINE
  5
40
330
17
100
AcDbEntity
  8
0
100
AcDbLine
 10
709.1805209120163
 20
421.75637192041256
 30
0.0
 11
708.8094713711406
 21
464.2744379404552
 31
0.0
  0
LINE
  5
41
330
17
100
AcDbEntity
  8
0
100
AcDbLine
 10
1696.544498488767
 20
430.3729668140827
 30
0.0
 11
1696.6681816690589
 21
416.20027814073137
 31
0.0
  0
LINE
  5
42
330
17
100
AcDbEntity
  8
0
100
AcDbLine
 10
1802.8396635388954
 20
431.300590666272
 30
0.0
 11
1802.9633467191873
 21
417.12790199292067
 31
0.0
  0
LINE
  5
43
330
17
100
AcDbEntity
  8
0
100
AcDbLine
 10
1956.377124166857
 20
432.64049178610094
 30
0.0
 11
1956.5008073471488
 21
418.4678031127496
 31
0.0
  0
LINE
  5
44
330
17
100
AcDbEntity
  8
0
100
AcDbLine
 10
1802.8396635388954
 20
431.300590666272
 30
0.0
 11
1956.377124166857
 21
432.64049178610094
 31
0.0
  0
LINE
  5
45
330
17
100
AcDbEntity
  8
0
100
AcDbLine
 10
1165.0686732381243
 20
425.73484755313575
 30
0.0
 11
1165.1923564184162
 21
411.5621588797844
 31
0.0
  0
LINE
  5
46
330
17
100
AcDbEntity
  8
0
100
AcDbLine
 10
1271.3638382882536
 20
426.6624714053253
 30
0.0
 11
1271.4875214685455
 21
412.48978273197395
 31
0.0
  0
LINE
  5
47
330
17
100
AcDbEntity
  8
0
100
AcDbLine
 10
1424.9012989162143
 20
428.0023725251542
 30
0.0
 11
1425.0249820965062
 21
413.8296838518029
 31
0.0
  0
LINE
  5
48
330
17
100
AcDbEntity
  8
0
100
AcDbLine
 10
1531.1964639663438
 20
428.9299963773435
 30
0.0
 11
1531.3201471466357
 21
414.7573077039922
 31
0.0
  0
LINE
  5
49
330
17
100
AcDbEntity
  8
0
100
AcDbLine
 10
1271.3638382882536
 20
426.6624714053253
 30
0.0
 11
1424.9012989162143
 21
428.0023725251542
 31
0.0
  0
LINE
  5
4A
330
17
100
AcDbEntity
  8
0
100
AcDbLine
 10
1531.1964639663438
 20
428.9299963773435
 30
0.0
 11
1696.544498488767
 21
430.3729668140827
 31
0.0
  0
LINE
  5
4B
330
17
100
AcDbEntity
  8
0
100
AcDbLine
 10
1330.4167077605473
 20
427.17781798987494
 30
0.0
 11
1329.9013611759976
 21
486.23068746216825
 31
0.0
  0
LINE
  5
4C
330
17
100
AcDbEntity
  8
0
100
AcDbLine
 10
1329.9013611759976
 20
486.23068746216825
 30
0.0
 11
1377.1436567538296
 21
486.6429647298079
 31
0.0
  0
LINE
  5
4D
330
17
100
AcDbEntity
  8
0
100
AcDbLine
 10
1377.6590033383793
 20
427.5900952575146
 30
0.0
 11
1377.1436567538296
 21
486.6429647298079
 31
0.0
  0
LINE
  5
4E
330
17
100
AcDbEntity
  8
0
100
AcDbLine
 10
878.7186519659454
 20
755.1383103815839
 30
0.0
 11
1072.41206383507
 21
756.8286471789067
 31
0.0
  0
LINE
  5
4F
330
17
100
AcDbEntity
  8
0
100
AcDbLine
 10
896.2799088322694
 20
773.0087751986346
 30
0.0
 11
1089.9733207013905
 21
774.6991119959574
 31
0.0
  0
LINE
  5
50
330
17
100
AcDbEntity
  8
0
100
AcDbLine
 10
733.7966164082345
 20
1120.0292693068886
 30
0.0
 11
736.8886959155324
 21
765.7120524731263
 31
0.0
  0
LINE
  5
51
330
17
100
AcDbEntity
  8
0
100
AcDbLine
 10
878.6155826490353
 20
766.9488842760454
 30
0.0
 11
736.8886959155324
 21
765.7120524731263
 31
0.0
  0
LINE
  5
52
330
17
100
AcDbEntity
  8
0
100
AcDbLine
 10
878.3063746983056
 20
802.3806059594167
 30
0.0
 11
736.5794879648026
 21
801.1437741564976
 31
0.0
  0
LINE
  5
53
330
17
100
AcDbEntity
  8
0
100
AcDbLine
 10
877.9971667475758
 20
837.8123276427975
 30
0.0
 11
736.2702800140728
 21
836.5754958398784
 31
0.0
  0
LINE
  5
54
330
17
100
AcDbEntity
  8
0
100
AcDbLine
 10
877.687958796846
 20
873.2440493261711
 30
0.0
 11
735.9610720633431
 21
872.0072175232519
 31
0.0
  0
LINE
  5
55
330
17
100
AcDbEntity
  8
0
100
AcDbLine
 10
877.3787508461162
 20
908.6757710095492
 30
0.0
 11
735.6518641126132
 21
907.43893920663
 31
0.0
  0
LINE
  5
56
330
17
100
AcDbEntity
  8
0
100
AcDbLine
 10
877.0695428953865
 20
944.1074926929259
 30
0.0
 11
735.3426561618835
 21
942.8706608900068
 31
0.0
  0
LINE
  5
57
330
17
100
AcDbEntity
  8
0
100
AcDbLine
 10
876.7603349446567
 20
979.5392143762972
 30
0.0
 11
735.0334482111538
 21
978.302382573378
 31
0.0
  0
LINE
  5
58
330
17
100
AcDbEntity
  8
0
100
AcDbLine
 10
876.4511269939269
 20
1014.9709360596775
 30
0.0
 11
734.7242402604239
 21
1013.7341042567583
 31
0.0
  0
LINE
  5
59
330
17
100
AcDbEntity
  8
0
100
AcDbLine
 10
876.1419190431972
 20
1050.4026577430525
 30
0.0
 11
734.4150323096942
 21
1049.1658259401333
 31
0.0
  0
LINE
  5
5A
330
17
100
AcDbEntity
  8
0
100
AcDbLine
 10
875.8327110924673
 20
1085.8343794264297
 30
0.0
 11
734.1058243589644
 21
1084.5975476235105
 31
0.0
  0
LINE
  5
5B
330
17
100
AcDbEntity
  8
0
100
AcDbLine
 10
875.5235031417375
 20
1121.2661011098078
 30
0.0
 11
544.8274340968921
 21
1118.3801602363296
 31
0.0
  0
LINE
  5
5C
330
17
100
AcDbEntity
  8
0
100
AcDbLine
 10
566.0864671069189
 20
1118.5656850067676
 30
0.0
 11
569.1270119557619
 21
770.1537551202296
 31
0.0
  0
LINE
  5
5D
330
17
100
AcDbEntity
  8
0
100
AcDbLine
 10
707.8133538404254
 20
1119.8025168096867
 30
0.0
 11
710.8538986892684
 21
771.3905869231487
 31
0.0
  0
LINE
  5
5E
330
17
100
AcDbEntity
  8
0
100
AcDbLine
 10
708.1225617911552
 20
1084.3707951263086
 30
0.0
 11
566.3956750576488
 21
1083.1339633233895
 31
0.0
  0
LINE
  5
5F
330
17
100
AcDbEntity
  8
0
100
AcDbLine
 10
708.4317697418851
 20
1048.9390734429314
 30
0.0
 11
566.7048830083786
 21
1047.7022416400123
 31
0.0
  0
LINE
  5
60
330
17
100
AcDbEntity
  8
0
100
AcDbLine
 10
708.7409776926148
 20
1013.5073517595564
 30
0.0
 11
567.0140909591083
 21
1012.2705199566373
 31
0.0
  0
LINE
  5
61
330
17
100
AcDbEntity
  8
0
100
AcDbLine
 10
709.0501856433447
 20
978.0756300761761
 30
0.0
 11
567.3232989098382
 21
976.838798273257
 31
0.0
  0
LINE
  5
62
330
17
100
AcDbEntity
  8
0
100
AcDbLine
 10
709.3593935940744
 20
942.6439083928049
 30
0.0
 11
567.6325068605679
 21
941.4070765898857
 31
0.0
  0
LINE
  5
63
330
17
100
AcDbEntity
  8
0
100
AcDbLine
 10
543.1267903678784
 20
1313.2546294948957
 30
0.0
 11
550.918830726269
 21
420.37524307381955
 31
0.0
  0
LINE
  5
64
330
17
100
AcDbEntity
  8
0
100
AcDbLine
 10
522.5788436825954
 20
2043.6631561283234
 30
0.0
 11
536.8698252332132
 21
406.0788712201763
 31
0.0
  0
LINE
  5
65
330
17
100
AcDbEntity
  8
0
100
AcDbLine
 10
1057.5924507985508
 20
424.7969167692554
 30
0.0
 11
1057.7161339788427
 21
410.6242280959041
 31
0.0
  0
LINE
  5
66
330
17
100
AcDbEntity
  8
0
100
AcDbLine
 10
939.4867118539634
 20
423.7662236001562
 30
0.0
 11
939.6103950342552
 21
409.59353492680486
 31
0.0
  0
LINE
  5
67
330
17
100
AcDbEntity
  8
0
100
AcDbLine
 10
762.4517866173745
 20
408.047495173156
 30
0.0
 11
762.3281034370826
 21
422.2201838465073
 31
0.0
  0
LINE
  5
68
330
17
100
AcDbEntity
  8
0
100
AcDbLine
 10
880.5575255619617
 20
409.0781883422552
 30
0.0
 11
880.4338423816698
 21
423.25087701560653
 31
0.0
  0
LINE
  5
69
330
17
100
AcDbEntity
  8
0
100
AcDbLine
 10
880.4338423816698
 20
423.25087701560653
 30
0.0
 11
939.4867118539634
 21
423.7662236001562
 31
0.0
  0
LINE
  5
6A
330
17
100
AcDbEntity
  8
0
100
AcDbLine
 10
880.5575255619617
 20
409.0781883422552
 30
0.0
 11
939.6103950342552
 21
409.59353492680486
 31
0.0
  0
LINE
  5
6B
330
17
100
AcDbEntity
  8
0
100
AcDbLine
 10
1057.5924507985508
 20
424.7969167692554
 30
0.0
 11
1165.0686732381243
 21
425.73484755313575
 31
0.0
  0
LINE
  5
6C
330
17
100
AcDbEntity
  8
0
100
AcDbLine
 10
1057.7161339788427
 20
410.6242280959041
 30
0.0
 11
1173.4597581445403
 21
411.63430740161834
 31
0.0
  0
LINE
  5
6D
330
17
100
AcDbEntity
  8
0
100
AcDbLine
 10
185.6446879067499
 20
48.66957487911748
 30
0.0
 11
1464.7298406766272
 21
59.83198190046278
 31
0.0
  0
LINE
  5
6E
330
17
100
AcDbEntity
  8
0
100
AcDbLine
 10
546.739041126457
 20
87.25521765993165
 30
0.0
 11
582.1707628098312
 21
87.56442561066137
 31
0.0
  0
LINE
  5
6F
330
17
100
AcDbEntity
  8
0
100
AcDbLine
 10
546.4298331757271
 20
122.68693934331611
 30
0.0
 11
581.8615548591014
 21
122.99614729404584
 31
0.0
  0
LINE
  5
70
330
17
100
AcDbEntity
  8
0
100
AcDbLine
 10
546.4298331757271
 20
122.68693934331611
 30
0.0
 11
546.739041126457
 21
87.25521765993165
 31
0.0
  0
LINE
  5
71
330
17
100
AcDbEntity
  8
0
100
AcDbLine
 10
581.8615548591014
 20
122.99614729404584
 30
0.0
 11
582.1707628098312
 21
87.56442561066137
 31
0.0
  0
LINE
  5
72
330
17
100
AcDbEntity
  8
0
100
AcDbLine
 10
1067.5853498720862
 20
91.8005745356595
 30
0.0
 11
1103.01707155546
 21
92.10978248638935
 31
0.0
  0
LINE
  5
73
330
17
100
AcDbEntity
  8
0
100
AcDbLine
 10
1067.2761419213564
 20
127.23229621904397
 30
0.0
 11
1102.7078636047302
 21
127.54150416977382
 31
0.0
  0
LINE
  5
74
330
17
100
AcDbEntity
  8
0
100
AcDbLine
 10
1067.2761419213564
 20
127.23229621904397
 30
0.0
 11
1067.5853498720862
 21
91.8005745356595
 31
0.0
  0
LINE
  5
75
330
17
100
AcDbEntity
  8
0
100
AcDbLine
 10
1102.7078636047302
 20
127.54150416977382
 30
0.0
 11
1103.01707155546
 21
92.10978248638935
 31
0.0
  0
LINE
  5
76
330
17
100
AcDbEntity
  8
0
100
AcDbLine
 10
807.7521392822839
 20
766.3304683745858
 30
0.0
 11
804.660059774986
 21
1120.647685208348
 31
0.0
  0
LINE
  5
77
330
17
100
AcDbEntity
  8
0
100
AcDbLine
 10
828.0235663535431
 20
1097.6884312368115
 30
0.0
 11
804.660059774986
 21
1120.647685208348
 31
0.0
  0
LINE
  5
78
330
17
100
AcDbEntity
  8
0
100
AcDbLine
 10
781.7008058034528
 20
1097.284178629788
 30
0.0
 11
804.660059774986
 21
1120.647685208348
 31
0.0
  0
LINE
  5
79
330
17
100
AcDbEntity
  8
0
100
AcDbLine
 10
706.645015716032
 20
712.2964897240909
 30
0.0
 11
724.3608765577208
 21
712.4510936994559
 31
0.0
  0
LINE
  5
7A
330
17
100
AcDbEntity
  8
0
100
AcDbLine
 10
707.5726395682213
 20
606.0013246739649
 30
0.0
 11
725.2885004099101
 21
606.1559286493298
 31
0.0
  0
LINE
  5
7B
330
17
100
AcDbEntity
  8
0
100
AcDbLine
 10
707.8818475189512
 20
570.5696029905872
 30
0.0
 11
725.5977083606399
 21
570.7242069659521
 31
0.0
  0
LINE
  5
7C
330
17
100
AcDbEntity
  8
0
100
AcDbLine
 10
708.8094713711406
 20
464.2744379404552
 30
0.0
 11
726.5253322128293
 21
464.4290419158201
 31
0.0
  0
LINE
  5
7D
330
17
100
AcDbEntity
  8
0
100
AcDbLine
 10
706.645015716032
 20
712.2964897240909
 30
0.0
 11
706.2842731068473
 21
753.6334983546989
 31
0.0
  0
LINE
  5
7E
330
17
100
AcDbEntity
  8
0
100
AcDbLine
 10
724.3608765577208
 20
712.4510936994559
 30
0.0
 11
723.8455299731711
 21
771.5039631717497
 31
0.0
  0
LINE
  5
7F
330
17
100
AcDbEntity
  8
0
100
AcDbLine
 10
707.8818475189512
 20
570.5696029905872
 30
0.0
 11
707.5726395682213
 21
606.0013246739649
 31
0.0
  0
LINE
  5
80
330
17
100
AcDbEntity
  8
0
100
AcDbLine
 10
636.9499104736701
 20
1119.184100908227
 30
0.0
 11
638.8051581780488
 21
906.5937708079684
 31
0.0
  0
LINE
  5
81
330
17
100
AcDbEntity
  8
0
100
AcDbLine
 10
638.8051581780488
 20
906.5937708079684
 30
0.0
 11
567.9417148112976
 21
905.975354906509
 31
0.0
  0
LINE
  5
82
330
17
100
AcDbEntity
  8
0
100
AcDbLine
 10
615.4416515994922
 20
929.553024779505
 30
0.0
 11
638.8051581780488
 21
906.5937708079684
 31
0.0
  0
LINE
  5
83
330
17
100
AcDbEntity
  8
0
100
AcDbLine
 10
661.7644121495856
 20
929.9572773865286
 30
0.0
 11
638.8051581780488
 21
906.5937708079684
 31
0.0
  0
LINE
  5
84
330
17
100
AcDbEntity
  8
0
100
AcDbLine
 10
568.2509227620275
 20
870.5436332231309
 30
0.0
 11
709.3593935940744
 21
942.6439083928049
 31
0.0
  0
LINE
  5
85
330
17
100
AcDbEntity
  8
0
100
AcDbLine
 10
536.7515323559431
 20
2043.786839308615
 30
0.0
 11
542.9721863925135
 21
1330.97049033658
 31
0.0
  0
LINE
  5
86
330
17
100
AcDbEntity
  8
0
100
AcDbLine
 10
253.04500222532783
 20
446.1232736343911
 30
0.0
 11
253.35421017605765
 21
410.6915519510135
 31
0.0
  0
LINE
  5
87
330
17
100
AcDbEntity
  8
0
100
AcDbLine
 10
217.61328054195042
 20
445.8140656836613
 30
0.0
 11
217.92248849268023
 21
410.38234400028364
 31
0.0
  0
LINE
  5
88
330
17
100
AcDbEntity
  8
0
100
AcDbLine
 10
171.90554796265644
 20
1623.0190750104653
 30
0.0
 11
185.6446879067499
 21
48.66957487911748
 31
0.0
  0
LINE
  5
89
330
17
100
AcDbEntity
  8
0
100
AcDbLine
 10
253.35421017605765
 20
410.6915519510135
 30
0.0
 11
217.92248849268023
 21
410.38234400028364
 31
0.0
  0
LINE
  5
8A
330
17
100
AcDbEntity
  8
0
100
AcDbLine
 10
253.04500222532783
 20
446.1232736343911
 30
0.0
 11
217.61328054195042
 21
445.8140656836613
 31
0.0
  0
LINE
  5
8B
330
17
100
AcDbEntity
  8
0
100
AcDbLine
 10
247.46895218050074
 20
1085.0753213246076
 30
0.0
 11
247.77816013123052
 21
1049.64359964123
 31
0.0
  0
LINE
  5
8C
330
17
100
AcDbEntity
  8
0
100
AcDbLine
 10
212.03723049712332
 20
1084.7661133738775
 30
0.0
 11
212.3464384478531
 21
1049.3343916905
 31
0.0
  0
LINE
  5
8D
330
17
100
AcDbEntity
  8
0
100
AcDbLine
 10
247.77816013123052
 20
1049.64359964123
 30
0.0
 11
212.3464384478531
 21
1049.3343916905
 31
0.0
  0
LINE
  5
8E
330
17
100
AcDbEntity
  8
0
100
AcDbLine
 10
247.46895218050074
 20
1085.0753213246076
 30
0.0
 11
212.03723049712332
 21
1084.7661133738775
 31
0.0
  0
LINE
  5
8F
330
17
100
AcDbEntity
  8
0
100
AcDbLine
 10
243.79968449850728
 20
1505.5317519673376
 30
0.0
 11
244.1088924492371
 21
1470.10003028396
 31
0.0
  0
LINE
  5
90
330
17
100
AcDbEntity
  8
0
100
AcDbLine
 10
208.36796281512986
 20
1505.2225440166078
 30
0.0
 11
208.67717076585967
 21
1469.7908223332302
 31
0.0
  0
LINE
  5
91
330
17
100
AcDbEntity
  8
0
100
AcDbLine
 10
244.1088924492371
 20
1470.10003028396
 30
0.0
 11
208.67717076585967
 21
1469.7908223332302
 31
0.0
  0
LINE
  5
92
330
17
100
AcDbEntity
  8
0
100
AcDbLine
 10
243.79968449850728
 20
1505.5317519673376
 30
0.0
 11
208.36796281512986
 21
1505.2225440166078
 31
0.0
  0
LINE
  5
93
330
17
100
AcDbEntity
  8
0
100
AcDbLine
 10
526.2227647964176
 20
1626.1111545177632
 30
0.0
 11
171.90554796265644
 21
1623.0190750104653
 31
0.0
  0
LINE
  5
94
330
17
100
AcDbEntity
  8
0
100
AcDbLine
 10
242.76899132940798
 20
1623.637490911925
 30
0.0
 11
242.15057542794847
 21
1694.5009342786736
 31
0.0
  0
LINE
  5
95
330
17
100
AcDbEntity
  8
0
100
AcDbLine
 10
525.9135568456877
 20
1661.5428762011406
 30
0.0
 11
242.4597833786782
 21
1659.0692125953024
 31
0.0
  0
LINE
  5
96
330
17
100
AcDbEntity
  8
0
100
AcDbLine
 10
525.604348894958
 20
1696.974597884512
 30
0.0
 11
242.15057542794847
 21
1694.5009342786736
 31
0.0
  0
LINE
  5
97
330
17
100
AcDbEntity
  8
0
100
AcDbLine
 10
172.93624113175574
 20
1504.913336065878
 30
0.0
 11
102.07279776500732
 21
1504.2949201644258
 31
0.0
  0
LINE
  5
98
330
17
100
AcDbEntity
  8
0
100
AcDbLine
 10
139.97818305419293
 20
1221.1503546481415
 30
0.0
 11
137.50451944837818
 21
1504.6041281151515
 31
0.0
  0
LINE
  5
99
330
17
100
AcDbEntity
  8
0
100
AcDbLine
 10
104.54646137082548
 20
1220.8411466974155
 30
0.0
 11
102.07279776500732
 21
1504.2949201644258
 31
0.0
  0
LINE
  5
9A
330
17
100
AcDbEntity
  8
0
100
AcDbLine
 10
104.54646137082548
 20
1220.8411466974155
 30
0.0
 11
175.40990473759396
 21
1221.4595625988752
 31
0.0
  0
LINE
  5
9B
330
17
100
AcDbEntity
  8
0
100
AcDbLine
 10
383.87746216145143
 20
1695.7377660815928
 30
0.0
 11
384.49587806291095
 21
1624.8743227148439
 31
0.0
  0
LINE
  5
9C
330
17
100
AcDbEntity
  8
0
100
AcDbLine
 10
361.13237148435405
 20
1647.8335766863804
 30
0.0
 11
384.49587806291095
 21
1624.8743227148439
 31
0.0
  0
LINE
  5
9D
330
17
100
AcDbEntity
  8
0
100
AcDbLine
 10
407.45513203444784
 20
1648.237829293404
 30
0.0
 11
384.49587806291095
 21
1624.8743227148439
 31
0.0
  0
LINE
  5
9E
330
17
100
AcDbEntity
  8
0
100
AcDbLine
 10
103.3096295679165
 20
1362.5680334309152
 30
0.0
 11
174.17307293466146
 21
1363.1864493323747
 31
0.0
  0
LINE
  5
9F
330
17
100
AcDbEntity
  8
0
100
AcDbLine
 10
151.21381896312803
 20
1339.8229427538217
 30
0.0
 11
174.17307293466146
 21
1363.1864493323747
 31
0.0
  0
LINE
  5
A0
330
17
100
AcDbEntity
  8
0
100
AcDbLine
 10
150.80956635610443
 20
1386.1457033039108
 30
0.0
 11
174.17307293466146
 21
1363.1864493323747
 31
0.0
  0
LINE
  5
A1
330
17
100
AcDbEntity
  8
0
100
AcDbLine
 10
1060.8082134861406
 20
56.30701126214308
 30
0.0
 11
1061.2970971288948
 21
0.2864945686281999
 31
0.0
  0
LINE
  5
A2
330
17
100
AcDbEntity
  8
0
100
AcDbLine
 10
765.5438661246724
 20
53.730278339395
 30
0.0
 11
766.0327497674267
 21
-2.2902383541198787
 31
0.0
  0
LINE
  5
A3
330
17
100
AcDbEntity
  8
0
100
AcDbLine
 10
765.8530740754021
 20
18.29855665601781
 30
0.0
 11
1061.1174214368705
 21
20.875289578765887
 31
0.0
  0
LINE
  5
A4
330
17
100
AcDbEntity
  8
0
100
AcDbLine
 10
913.6649234481607
 20
-1.0018718927458394
 30
0.0
 11
913.1760398054064
 21
55.018644800765856
 31
0.0
  0
LINE
  5
A5
330
17
100
AcDbEntity
  8
0
100
AcDbLine
 10
936.539546383963
 20
32.05939082922578
 30
0.0
 11
913.1760398054064
 21
55.018644800765856
 31
0.0
  0
LINE
  5
A6
330
17
100
AcDbEntity
  8
0
100
AcDbLine
 10
890.2167858338763
 20
31.65513822220214
 30
0.0
 11
913.1760398054064
 21
55.018644800765856
 31
0.0
  0
LINE
  5
A7
330
17
100
AcDbEntity
  8
0
100
AcDbLine
 10
1499.543146458565
 20
131.00463321794746
 30
0.0
 11
1497.0694828527066
 21
414.4584066849534
 31
0.0
  0
LINE
  5
A8
330
17
100
AcDbEntity
  8
0
100
AcDbLine
 10
1534.9748681419424
 20
131.3138411686773
 30
0.0
 11
1532.5012045360802
 21
414.76761463568323
 31
0.0
  0
LINE
  5
A9
330
17
100
AcDbEntity
  8
0
100
AcDbLine
 10
1534.9748681419424
 20
131.3138411686773
 30
0.0
 11
1464.1114247751675
 21
130.69542526721762
 31
0.0
  0
LINE
  5
AA
330
17
100
AcDbEntity
  8
0
100
AcDbLine
 10
1533.7380363390123
 20
273.04072790218333
 30
0.0
 11
1462.874592972258
 21
272.42231200072365
 31
0.0
  0
LINE
  5
AB
330
17
100
AcDbEntity
  8
0
100
AcDbLine
 10
1486.238099550818
 20
249.46305802918766
 30
0.0
 11
1462.874592972258
 21
272.42231200072365
 31
0.0
  0
LINE
  5
AC
330
17
100
AcDbEntity
  8
0
100
AcDbLine
 10
1485.8338469437945
 20
295.7858185792812
 30
0.0
 11
1462.874592972258
 21
272.42231200072365
 31
0.0
  0
LINE
  5
AD
330
17
100
AcDbEntity
  8
0
100
AcDbLine
 10
1464.7298406766272
 20
59.83198190046278
 30
0.0
 11
1461.6377611693292
 21
414.1491987342238
 31
0.0
  0
LINE
  5
AE
330
17
100
AcDbEntity
  8
0
100
AcDbLine
 10
1769.3310983267215
 20
345.9655576071266
 30
0.0
 11
2053.934434319454
 21
348.449253293144
 31
0.0
  0
LINE
  5
AF
330
17
100
AcDbEntity
  8
0
100
AcDbLine
 10
451.71540031584055
 20
2043.0447402268637
 30
0.0
 11
454.7409055282031
 21
1696.3561819830525
 31
0.0
  0
LINE
  5
B0
330
17
100
AcDbEntity
  8
0
100
AcDbLine
 10
1772.2936455753402
 20
6.49126744660623
 30
0.0
 11
1769.3310983267215
 21
345.9655576071266
 31
0.0
  0
LINE
  5
B1
330
17
100
AcDbEntity
  8
0
100
AcDbLine
 10
1073.097474792521
 20
678.2883307807613
 30
0.0
 11
1090.8133356342064
 21
678.4429347561261
 31
0.0
  0
LINE
  5
B2
330
17
100
AcDbEntity
  8
0
100
AcDbLine
 10
1074.4373759123503
 20
524.7508701527963
 30
0.0
 11
1092.1532367540356
 21
524.9054741281611
 31
0.0
  0
LINE
  5
B3
330
17
100
AcDbEntity
  8
0
100
AcDbLine
 10
1090.8133356342064
 20
678.4429347561261
 30
0.0
 11
1089.9733207013905
 21
774.6991119959574
 31
0.0
  0
LINE
  5
B4
330
17
100
AcDbEntity
  8
0
100
AcDbLine
 10
1073.097474792521
 20
678.2883307807613
 30
0.0
 11
1072.41206383507
 21
756.8286471789067
 31
0.0
  0
LINE
  5
B5
330
17
100
AcDbEntity
  8
0
100
AcDbLine
 10
695.2982537476684
 20
659.0458378821216
 30
0.0
 11
736.6352623782734
 21
659.4065804913064
 31
0.0
  0
LINE
  5
B6
330
17
100
AcDbEntity
  8
0
100
AcDbLine
 10
821.2779035924663
 20
434.54610432551476
 30
0.0
 11
821.6077254065781
 21
396.752267863244
 31
0.0
  0
LINE
  5
B7
330
17
100
AcDbEntity
  8
0
100
AcDbLine
 10
998.4365120093471
 20
436.09214407916375
 30
0.0
 11
998.7663338234589
 21
398.298307616893
 31
0.0
  0
LINE
  5
B8
330
17
100
AcDbEntity
  8
0
100
AcDbLine
 10
1073.097474792521
 20
678.2883307807576
 30
0.0
 11
998.591371894507
 21
602.4703696501961
 31
0.0
  0
LINE
  5
B9
330
17
100
AcDbEntity
  8
0
100
AcDbLine
 10
1074.4373759123503
 20
524.7508701527963
 30
0.0
 11
1040.7405042987652
 21
557.8646936630234
 31
0.0
  0
LINE
  5
BA
330
17
100
AcDbEntity
  8
0
100
AcDbLine
 10
762.4517866173745
 20
408.047495173156
 30
0.0
 11
880.5575255619617
 21
409.0781883422552
 31
0.0
  0
LINE
  5
BB
330
17
100
AcDbEntity
  8
0
100
AcDbLine
 10
880.5575255619617
 20
409.0781883422552
 30
0.0
 11
880.4338423816698
 21
423.25087701560653
 31
0.0
  0
LINE
  5
BC
330
17
100
AcDbEntity
  8
0
100
AcDbLine
 10
880.4338423816698
 20
423.25087701560653
 30
0.0
 11
762.3281034370826
 21
422.2201838465073
 31
0.0
  0
LINE
  5
BD
330
17
100
AcDbEntity
  8
0
100
AcDbLine
 10
762.3281034370826
 20
422.2201838465073
 30
0.0
 11
762.4517866173745
 21
408.047495173156
 31
0.0
  0
LINE
  5
BE
330
17
100
AcDbEntity
  8
0
100
AcDbLine
 10
762.4517866173745
 20
408.047495173156
 30
0.0
 11
762.4517866173745
 21
408.047495173156
 31
0.0
  0
LINE
  5
BF
330
17
100
AcDbEntity
  8
0
100
AcDbLine
 10
939.6103950342552
 20
409.59353492680486
 30
0.0
 11
1057.7161339788427
 21
410.6242280959041
 31
0.0
  0
LINE
  5
C0
330
17
100
AcDbEntity
  8
0
100
AcDbLine
 10
1057.7161339788427
 20
410.6242280959041
 30
0.0
 11
1057.5924507985508
 21
424.7969167692554
 31
0.0
  0
LINE
  5
C1
330
17
100
AcDbEntity
  8
0
100
AcDbLine
 10
1057.5924507985508
 20
424.7969167692554
 30
0.0
 11
939.4867118539634
 21
423.7662236001562
 31
0.0
  0
LINE
  5
C2
330
17
100
AcDbEntity
  8
0
100
AcDbLine
 10
939.4867118539634
 20
423.7662236001562
 30
0.0
 11
939.6103950342552
 21
409.59353492680486
 31
0.0
  0
LINE
  5
C3
330
17
100
AcDbEntity
  8
0
100
AcDbLine
 10
939.6103950342552
 20
409.59353492680486
 30
0.0
 11
939.6103950342552
 21
409.59353492680486
 31
0.0
  0
LINE
  5
C4
330
17
100
AcDbEntity
  8
0
100
AcDbLine
 10
707.5726395682213
 20
606.0013246739649
 30
0.0
 11
706.645015716032
 21
712.2964897240909
 31
0.0
  0
LINE
  5
C5
330
17
100
AcDbEntity
  8
0
100
AcDbLine
 10
706.645015716032
 20
712.2964897240909
 30
0.0
 11
724.3608765577208
 21
712.4510936994559
 31
0.0
  0
LINE
  5
C6
330
17
100
AcDbEntity
  8
0
100
AcDbLine
 10
724.3608765577208
 20
712.4510936994559
 30
0.0
 11
725.2885004099101
 21
606.1559286493298
 31
0.0
  0
LINE
  5
C7
330
17
100
AcDbEntity
  8
0
100
AcDbLine
 10
725.2885004099101
 20
606.1559286493298
 30
0.0
 11
707.5726395682213
 21
606.0013246739649
 31
0.0
  0
LINE
  5
C8
330
17
100
AcDbEntity
  8
0
100
AcDbLine
 10
707.5726395682213
 20
606.0013246739649
 30
0.0
 11
707.5726395682213
 21
606.0013246739649
 31
0.0
  0
LINE
  5
C9
330
17
100
AcDbEntity
  8
0
100
AcDbLine
 10
250.25697720291427
 20
765.599297479501
 30
0.0
 11
214.82525551953685
 21
765.2900895287712
 31
0.0
  0
LINE
  5
CA
330
17
100
AcDbEntity
  8
0
100
AcDbLine
 10
214.82525551953685
 20
765.2900895287712
 30
0.0
 11
215.13446347026667
 21
729.8583678453904
 31
0.0
  0
LINE
  5
CB
330
17
100
AcDbEntity
  8
0
100
AcDbLine
 10
215.13446347026667
 20
729.8583678453904
 30
0.0
 11
250.56618515364408
 21
730.1675757961202
 31
0.0
  0
LINE
  5
CC
330
17
100
AcDbEntity
  8
0
100
AcDbLine
 10
250.56618515364408
 20
730.1675757961202
 30
0.0
 11
250.25697720291427
 21
765.599297479501
 31
0.0
  0
LINE
  5
CD
330
17
100
AcDbEntity
  8
0
100
AcDbLine
 10
250.25697720291427
 20
765.599297479501
 30
0.0
 11
250.25697720291427
 21
765.599297479501
 31
0.0
  0
LINE
  5
CE
330
17
100
AcDbEntity
  8
0
100
AcDbLine
 10
1428.6797030917926
 20
130.38621731648777
 30
0.0
 11
1393.2479814084152
 21
130.07700936575793
 31
0.0
  0
LINE
  5
CF
330
17
100
AcDbEntity
  8
0
100
AcDbLine
 10
1393.2479814084152
 20
130.07700936575793
 30
0.0
 11
1393.557189359145
 21
94.64528768237346
 31
0.0
  0
LINE
  5
D0
330
17
100
AcDbEntity
  8
0
100
AcDbLine
 10
1393.557189359145
 20
94.64528768237346
 30
0.0
 11
1428.9889110425224
 21
94.9544956331033
 31
0.0
  0
LINE
  5
D1
330
17
100
AcDbEntity
  8
0
100
AcDbLine
 10
1428.9889110425224
 20
94.9544956331033
 30
0.0
 11
1428.6797030917926
 21
130.38621731648777
 31
0.0
  0
LINE
  5
D2
330
17
100
AcDbEntity
  8
0
100
AcDbLine
 10
1428.6797030917926
 20
130.38621731648777
 30
0.0
 11
1428.6797030917926
 21
130.38621731648777
 31
0.0
  0
LINE
  5
D3
330
17
100
AcDbEntity
  8
0
100
AcDbLine
 10
220.45799368866443
 20
119.84222619660204
 30
0.0
 11
255.88971537204185
 21
120.15143414733188
 31
0.0
  0
LINE
  5
D4
330
17
100
AcDbEntity
  8
0
100
AcDbLine
 10
255.88971537204185
 20
120.15143414733188
 30
0.0
 11
256.1989233227717
 21
84.71971246394742
 31
0.0
  0
LINE
  5
D5
330
17
100
AcDbEntity
  8
0
100
AcDbLine
 10
256.1989233227717
 20
84.71971246394742
 30
0.0
 11
220.7672016393943
 21
84.41050451321757
 31
0.0
  0
LINE
  5
D6
330
17
100
AcDbEntity
  8
0
100
AcDbLine
 10
220.7672016393943
 20
84.41050451321757
 30
0.0
 11
220.45799368866443
 21
119.84222619660204
 31
0.0
  0
LINE
  5
D7
330
17
100
AcDbEntity
  8
0
100
AcDbLine
 10
220.45799368866443
 20
119.84222619660204
 30
0.0
 11
220.45799368866443
 21
119.84222619660204
 31
0.0
  0
LINE
  5
D8
330
17
100
AcDbEntity
  8
0
100
AcDbLine
 10
707.8818475189512
 20
570.5696029905872
 30
0.0
 11
708.8094713711406
 21
464.2744379404552
 31
0.0
  0
LINE
  5
D9
330
17
100
AcDbEntity
  8
0
100
AcDbLine
 10
708.8094713711406
 20
464.2744379404552
 30
0.0
 11
726.5253322128293
 21
464.4290419158201
 31
0.0
  0
LINE
  5
DA
330
17
100
AcDbEntity
  8
0
100
AcDbLine
 10
726.5253322128293
 20
464.4290419158201
 30
0.0
 11
725.5977083606399
 21
570.7242069659521
 31
0.0
  0
LINE
  5
DB
330
17
100
AcDbEntity
  8
0
100
AcDbLine
 10
725.5977083606399
 20
570.7242069659521
 30
0.0
 11
707.8818475189512
 21
570.5696029905872
 31
0.0
  0
LINE
  5
DC
330
17
100
AcDbEntity
  8
0
100
AcDbLine
 10
707.8818475189512
 20
570.5696029905872
 30
0.0
 11
707.8818475189512
 21
570.5696029905872
 31
0.0
  0
LINE
  5
DD
330
17
100
AcDbEntity
  8
0
100
AcDbLine
 10
1531.1964639663438
 20
428.9299963773435
 30
0.0
 11
1531.3201471466357
 21
414.7573077039922
 31
0.0
  0
LINE
  5
DE
330
17
100
AcDbEntity
  8
0
100
AcDbLine
 10
1531.3201471466357
 20
414.7573077039922
 30
0.0
 11
1425.0249820965062
 21
413.8296838518029
 31
0.0
  0
LINE
  5
DF
330
17
100
AcDbEntity
  8
0
100
AcDbLine
 10
1425.0249820965062
 20
413.8296838518029
 30
0.0
 11
1424.9012989162143
 21
428.0023725251542
 31
0.0
  0
LINE
  5
E0
330
17
100
AcDbEntity
  8
0
100
AcDbLine
 10
1424.9012989162143
 20
428.0023725251542
 30
0.0
 11
1531.1964639663438
 21
428.9299963773435
 31
0.0
  0
LINE
  5
E1
330
17
100
AcDbEntity
  8
0
100
AcDbLine
 10
1531.1964639663438
 20
428.9299963773435
 30
0.0
 11
1531.1964639663438
 21
428.9299963773435
 31
0.0
  0
LINE
  5
E2
330
17
100
AcDbEntity
  8
0
100
AcDbLine
 10
1271.3638382882536
 20
426.6624714053253
 30
0.0
 11
1271.4875214685455
 21
412.48978273197395
 31
0.0
  0
LINE
  5
E3
330
17
100
AcDbEntity
  8
0
100
AcDbLine
 10
1271.4875214685455
 20
412.48978273197395
 30
0.0
 11
1165.1923564184162
 21
411.5621588797844
 31
0.0
  0
LINE
  5
E4
330
17
100
AcDbEntity
  8
0
100
AcDbLine
 10
1165.1923564184162
 20
411.5621588797844
 30
0.0
 11
1165.0686732381243
 21
425.73484755313575
 31
0.0
  0
LINE
  5
E5
330
17
100
AcDbEntity
  8
0
100
AcDbLine
 10
1165.0686732381243
 20
425.73484755313575
 30
0.0
 11
1271.3638382882536
 21
426.6624714053253
 31
0.0
  0
LINE
  5
E6
330
17
100
AcDbEntity
  8
0
100
AcDbLine
 10
1271.3638382882536
 20
426.6624714053253
 30
0.0
 11
1271.3638382882536
 21
426.6624714053253
 31
0.0
  0
LINE
  5
E7
330
17
100
AcDbEntity
  8
0
100
AcDbLine
 10
2053.316018417994
 20
419.3126966598993
 30
0.0
 11
1956.5008073471488
 21
418.4678031127496
 31
0.0
  0
LINE
  5
E8
330
17
100
AcDbEntity
  8
0
100
AcDbLine
 10
1956.5008073471488
 20
418.4678031127496
 30
0.0
 11
1956.377124166857
 21
432.64049178610094
 31
0.0
  0
LINE
  5
E9
330
17
100
AcDbEntity
  8
0
100
AcDbLine
 10
1956.377124166857
 20
432.64049178610094
 30
0.0
 11
2053.192335237702
 21
433.48538533325063
 31
0.0
  0
LINE
  5
EA
330
17
100
AcDbEntity
  8
0
100
AcDbLine
 10
1802.8396635388954
 20
431.300590666272
 30
0.0
 11
1802.9633467191873
 21
417.12790199292067
 31
0.0
  0
LINE
  5
EB
330
17
100
AcDbEntity
  8
0
100
AcDbLine
 10
1802.9633467191873
 20
417.12790199292067
 30
0.0
 11
1696.6681816690589
 21
416.20027814073137
 31
0.0
  0
LINE
  5
EC
330
17
100
AcDbEntity
  8
0
100
AcDbLine
 10
1696.6681816690589
 20
416.20027814073137
 30
0.0
 11
1696.544498488767
 21
430.3729668140827
 31
0.0
  0
LINE
  5
ED
330
17
100
AcDbEntity
  8
0
100
AcDbLine
 10
1696.544498488767
 20
430.3729668140827
 30
0.0
 11
1802.8396635388954
 21
431.300590666272
 31
0.0
  0
LINE
  5
EE
330
17
100
AcDbEntity
  8
0
100
AcDbLine
 10
1802.8396635388954
 20
431.300590666272
 30
0.0
 11
1802.8396635388954
 21
431.300590666272
 31
0.0
  0
LINE
  5
EF
330
17
100
AcDbEntity
  8
0
100
AcDbLine
 10
1603.0554399521054
 20
450.8177522205133
 30
0.0
 11
1624.3144729621288
 21
451.003276990951
 31
0.0
  0
LINE
  5
F0
330
17
100
AcDbEntity
  8
0
100
AcDbLine
 10
1624.3144729621288
 20
451.003276990951
 30
0.0
 11
1624.4999977325665
 21
429.74424398093197
 31
0.0
  0
LINE
  5
F1
330
17
100
AcDbEntity
  8
0
100
AcDbLine
 10
1624.4999977325665
 20
429.74424398093197
 30
0.0
 11
1603.2409647225431
 21
429.55871921049425
 31
0.0
  0
LINE
  5
F2
330
17
100
AcDbEntity
  8
0
100
AcDbLine
 10
1603.2409647225431
 20
429.55871921049425
 30
0.0
 11
1603.0554399521054
 21
450.8177522205133
 31
0.0
  0
LINE
  5
F3
330
17
100
AcDbEntity
  8
0
100
AcDbLine
 10
1603.0554399521054
 20
450.8177522205133
 30
0.0
 11
1603.0554399521054
 21
450.8177522205133
 31
0.0
  0
LINE
  5
F4
330
17
100
AcDbEntity
  8
0
100
AcDbLine
 10
1071.5796147014637
 20
446.17963295956633
 30
0.0
 11
1092.8386477114866
 21
446.3651577300043
 31
0.0
  0
LINE
  5
F5
330
17
100
AcDbEntity
  8
0
100
AcDbLine
 10
1092.8386477114866
 20
446.3651577300043
 30
0.0
 11
1093.0241724819243
 21
425.10612471998525
 31
0.0
  0
LINE
  5
F6
330
17
100
AcDbEntity
  8
0
100
AcDbLine
 10
1093.0241724819243
 20
425.10612471998525
 30
0.0
 11
1071.7651394719014
 21
424.9205999495473
 31
0.0
  0
LINE
  5
F7
330
17
100
AcDbEntity
  8
0
100
AcDbLine
 10
1071.7651394719014
 20
424.9205999495473
 30
0.0
 11
1071.5796147014637
 21
446.17963295956633
 31
0.0
  0
LINE
  5
F8
330
17
100
AcDbEntity
  8
0
100
AcDbLine
 10
1071.5796147014637
 20
446.17963295956633
 30
0.0
 11
1071.5796147014637
 21
446.17963295956633
 31
0.0
  0
LINE
  5
F9
330
17
100
AcDbEntity
  8
0
100
AcDbLine
 10
550.7333059558312
 20
441.6342760838386
 30
0.0
 11
571.9923389658579
 21
441.8198008542764
 31
0.0
  0
LINE
  5
FA
330
17
100
AcDbEntity
  8
0
100
AcDbLine
 10
571.9923389658579
 20
441.8198008542764
 30
0.0
 11
572.1778637362958
 21
420.5607678442574
 31
0.0
  0
LINE
  5
FB
330
17
100
AcDbEntity
  8
0
100
AcDbLine
 10
572.1778637362958
 20
420.5607678442574
 30
0.0
 11
550.918830726269
 21
420.37524307381955
 31
0.0
  0
LINE
  5
FC
330
17
100
AcDbEntity
  8
0
100
AcDbLine
 10
550.918830726269
 20
420.37524307381955
 30
0.0
 11
550.7333059558312
 21
441.6342760838386
 31
0.0
  0
LINE
  5
FD
330
17
100
AcDbEntity
  8
0
100
AcDbLine
 10
550.7333059558312
 20
441.6342760838386
 30
0.0
 11
550.7333059558312
 21
441.6342760838386
 31
0.0
  0
LINE
  5
FE
330
17
100
AcDbEntity
  8
0
100
AcDbLine
 10
1597.4793899072783
 20
1089.7697999107334
 30
0.0
 11
1618.7384229173017
 21
1089.955324681171
 31
0.0
  0
LINE
  5
FF
330
17
100
AcDbEntity
  8
0
100
AcDbLine
 10
1618.7384229173017
 20
1089.955324681171
 30
0.0
 11
1618.9239476877394
 21
1068.696291671148
 31
0.0
  0
LINE
  5
100
330
17
100
AcDbEntity
  8
0
100
AcDbLine
 10
1618.9239476877394
 20
1068.696291671148
 30
0.0
 11
1597.664914677716
 21
1068.5107669007102
 31
0.0
  0
LINE
  5
101
330
17
100
AcDbEntity
  8
0
100
AcDbLine
 10
1597.664914677716
 20
1068.5107669007102
 30
0.0
 11
1597.4793899072783
 21
1089.7697999107334
 31
0.0
  0
LINE
  5
102
330
17
100
AcDbEntity
  8
0
100
AcDbLine
 10
1597.4793899072783
 20
1089.7697999107334
 30
0.0
 11
1597.4793899072783
 21
1089.7697999107334
 31
0.0
  0
LINE
  5
103
330
17
100
AcDbEntity
  8
0
100
AcDbLine
 10
1066.0035646566366
 20
1085.1316806497864
 30
0.0
 11
1087.2625976666595
 21
1085.3172054202244
 31
0.0
  0
LINE
  5
104
330
17
100
AcDbEntity
  8
0
100
AcDbLine
 10
1087.2625976666595
 20
1085.3172054202244
 30
0.0
 11
1087.4481224370973
 21
1064.0581724102012
 31
0.0
  0
LINE
  5
105
330
17
100
AcDbEntity
  8
0
100
AcDbLine
 10
1087.4481224370973
 20
1064.0581724102012
 30
0.0
 11
1066.1890894270744
 21
1063.8726476397633
 31
0.0
  0
LINE
  5
106
330
17
100
AcDbEntity
  8
0
100
AcDbLine
 10
1066.1890894270744
 20
1063.8726476397633
 30
0.0
 11
1066.0035646566366
 21
1085.1316806497864
 31
0.0
  0
LINE
  5
107
330
17
100
AcDbEntity
  8
0
100
AcDbLine
 10
1066.0035646566366
 20
1085.1316806497864
 30
0.0
 11
1066.0035646566366
 21
1085.1316806497864
 31
0.0
  0
LINE
  5
108
330
17
100
AcDbEntity
  8
0
100
AcDbLine
 10
545.157255911004
 20
1080.5863237740587
 30
0.0
 11
566.4162889210307
 21
1080.7718485444964
 31
0.0
  0
LINE
  5
109
330
17
100
AcDbEntity
  8
0
100
AcDbLine
 10
566.4162889210307
 20
1080.7718485444964
 30
0.0
 11
566.6018136914686
 21
1059.5128155344732
 31
0.0
  0
LINE
  5
10A
330
17
100
AcDbEntity
  8
0
100
AcDbLine
 10
566.6018136914686
 20
1059.5128155344732
 30
0.0
 11
545.3427806814418
 21
1059.3272907640355
 31
0.0
  0
LINE
  5
10B
330
17
100
AcDbEntity
  8
0
100
AcDbLine
 10
545.3427806814418
 20
1059.3272907640355
 30
0.0
 11
545.157255911004
 21
1080.5863237740587
 31
0.0
  0
LINE
  5
10C
330
17
100
AcDbEntity
  8
0
100
AcDbLine
 10
545.157255911004
 20
1080.5863237740587
 30
0.0
 11
545.157255911004
 21
1080.5863237740587
 31
0.0
  0
LINE
  5
10D
330
17
100
AcDbEntity
  8
0
100
AcDbLine
 10
1591.810577477232
 20
1739.3513641059626
 30
0.0
 11
1613.0696104872554
 21
1739.5368888764006
 31
0.0
  0
LINE
  5
10E
330
17
100
AcDbEntity
  8
0
100
AcDbLine
 10
1613.0696104872554
 20
1739.5368888764006
 30
0.0
 11
1613.2551352576934
 21
1718.2778558663767
 31
0.0
  0
LINE
  5
10F
330
17
100
AcDbEntity
  8
0
100
AcDbLine
 10
1613.2551352576934
 20
1718.2778558663767
 30
0.0
 11
1591.99610224767
 21
1718.0923310959392
 31
0.0
  0
LINE
  5
110
330
17
100
AcDbEntity
  8
0
100
AcDbLine
 10
1591.99610224767
 20
1718.0923310959392
 30
0.0
 11
1591.810577477232
 21
1739.3513641059626
 31
0.0
  0
LINE
  5
111
330
17
100
AcDbEntity
  8
0
100
AcDbLine
 10
1591.810577477232
 20
1739.3513641059626
 30
0.0
 11
1591.810577477232
 21
1739.3513641059626
 31
0.0
  0
LINE
  5
112
330
17
100
AcDbEntity
  8
0
100
AcDbLine
 10
1060.3347522265904
 20
1734.7132448450157
 30
0.0
 11
1081.5937852366133
 21
1734.8987696154536
 31
0.0
  0
LINE
  5
113
330
17
100
AcDbEntity
  8
0
100
AcDbLine
 10
1081.5937852366133
 20
1734.8987696154536
 30
0.0
 11
1081.7793100070512
 21
1713.6397366054302
 31
0.0
  0
LINE
  5
114
330
17
100
AcDbEntity
  8
0
100
AcDbLine
 10
1081.7793100070512
 20
1713.6397366054302
 30
0.0
 11
1060.5202769970283
 21
1713.4542118349923
 31
0.0
  0
LINE
  5
115
330
17
100
AcDbEntity
  8
0
100
AcDbLine
 10
1060.5202769970283
 20
1713.4542118349923
 30
0.0
 11
1060.3347522265904
 21
1734.7132448450157
 31
0.0
  0
LINE
  5
116
330
17
100
AcDbEntity
  8
0
100
AcDbLine
 10
1060.3347522265904
 20
1734.7132448450157
 30
0.0
 11
1060.3347522265904
 21
1734.7132448450157
 31
0.0
  0
LINE
  5
117
330
17
100
AcDbEntity
  8
0
100
AcDbLine
 10
539.4884434809579
 20
1730.1678879692881
 30
0.0
 11
560.7474764909847
 21
1730.3534127397259
 31
0.0
  0
LINE
  5
118
330
17
100
AcDbEntity
  8
0
100
AcDbLine
 10
560.7474764909847
 20
1730.3534127397259
 30
0.0
 11
560.9330012614225
 21
1709.0943797297023
 31
0.0
  0
LINE
  5
119
330
17
100
AcDbEntity
  8
0
100
AcDbLine
 10
560.9330012614225
 20
1709.0943797297023
 30
0.0
 11
539.6739682513958
 21
1708.9088549592643
 31
0.0
  0
LINE
  5
11A
330
17
100
AcDbEntity
  8
0
100
AcDbLine
 10
539.6739682513958
 20
1708.9088549592643
 30
0.0
 11
539.4884434809579
 21
1730.1678879692881
 31
0.0
  0
LINE
  5
11B
330
17
100
AcDbEntity
  8
0
100
AcDbLine
 10
539.4884434809579
 20
1730.1678879692881
 30
0.0
 11
539.4884434809579
 21
1730.1678879692881
 31
0.0
  0
LINE
  5
11C
330
17
100
AcDbEntity
  8
0
100
AcDbLine
 10
720.6200452656003
 20
464.3775072573683
 30
0.0
 11
720.5478967437634
 21
472.64490898348845
 31
0.0
  0
LINE
  5
11D
330
17
100
AcDbEntity
  8
0
100
AcDbLine
 10
720.5478967437634
 20
472.64490898348845
 30
0.0
 11
726.4531836909923
 21
472.69644364194346
 31
0.0
  0
LINE
  5
11E
330
17
100
AcDbEntity
  8
0
100
AcDbLine
 10
726.4531836909923
 20
472.69644364194346
 30
0.0
 11
726.4531836909923
 21
472.69644364194346
 31
0.0
  0
LINE
  5
11F
330
17
100
AcDbEntity
  8
0
100
AcDbLine
 10
723.5005402173781
 20
472.67067631271595
 30
0.0
 11
722.7172134088626
 21
562.4310379106049
 31
0.0
  0
LINE
  5
120
330
17
100
AcDbEntity
  8
0
100
AcDbLine
 10
722.7172134088626
 20
562.4310379106049
 30
0.0
 11
719.7645699352479
 21
562.4052705813774
 31
0.0
  0
LINE
  5
121
330
17
100
AcDbEntity
  8
0
100
AcDbLine
 10
719.7645699352479
 20
562.4052705813774
 30
0.0
 11
720.5478967437634
 21
472.64490898348845
 31
0.0
  0
LINE
  5
122
330
17
100
AcDbEntity
  8
0
100
AcDbLine
 10
720.5478967437634
 20
472.64490898348845
 30
0.0
 11
723.5005402173781
 21
472.67067631271595
 31
0.0
  0
LINE
  5
123
330
17
100
AcDbEntity
  8
0
100
AcDbLine
 10
723.5005402173781
 20
472.67067631271595
 30
0.0
 11
723.5005402173781
 21
472.67067631271595
 31
0.0
  0
LINE
  5
124
330
17
100
AcDbEntity
  8
0
100
AcDbLine
 10
725.2885004099101
 20
606.1559286493298
 30
0.0
 11
725.6698568824768
 21
562.4568052398324
 31
0.0
  0
LINE
  5
125
330
17
100
AcDbEntity
  8
0
100
AcDbLine
 10
725.6698568824768
 20
562.4568052398324
 30
0.0
 11
719.7645699352479
 21
562.4052705813774
 31
0.0
  0
LINE
  5
126
330
17
100
AcDbEntity
  8
0
100
AcDbLine
 10
719.7645699352479
 20
562.4052705813774
 30
0.0
 11
719.692421413411
 21
570.6726723074971
 31
0.0
  0
LINE
  5
127
330
17
100
AcDbEntity
  8
0
100
AcDbLine
 10
725.5977083606399
 20
570.7242069659521
 30
0.0
 11
725.5977083606399
 21
570.7242069659521
 31
0.0
  0
LINE
  5
128
330
17
100
AcDbEntity
  8
0
100
AcDbLine
 10
1424.9734474380546
 20
419.73497079902813
 30
0.0
 11
1433.2408491641759
 21
419.80711932086524
 31
0.0
  0
LINE
  5
129
330
17
100
AcDbEntity
  8
0
100
AcDbLine
 10
1433.2408491641759
 20
419.80711932086524
 30
0.0
 11
1433.2923838226309
 21
413.9018323736368
 31
0.0
  0
LINE
  5
12A
330
17
100
AcDbEntity
  8
0
100
AcDbLine
 10
1433.2923838226309
 20
413.9018323736368
 30
0.0
 11
1433.2923838226309
 21
413.9018323736368
 31
0.0
  0
LINE
  5
12B
330
17
100
AcDbEntity
  8
0
100
AcDbLine
 10
1433.2666164934033
 20
416.854475847251
 30
0.0
 11
1523.0269780912909
 21
417.63780265576634
 31
0.0
  0
LINE
  5
12C
330
17
100
AcDbEntity
  8
0
100
AcDbLine
 10
1523.0269780912909
 20
417.63780265576634
 30
0.0
 11
1523.0012107620635
 21
420.59044612938055
 31
0.0
  0
LINE
  5
12D
330
17
100
AcDbEntity
  8
0
100
AcDbLine
 10
1523.0012107620635
 20
420.59044612938055
 30
0.0
 11
1433.2408491641759
 21
419.80711932086524
 31
0.0
  0
LINE
  5
12E
330
17
100
AcDbEntity
  8
0
100
AcDbLine
 10
1433.2408491641759
 20
419.80711932086524
 30
0.0
 11
1433.2666164934033
 21
416.854475847251
 31
0.0
  0
LINE
  5
12F
330
17
100
AcDbEntity
  8
0
100
AcDbLine
 10
1433.2666164934033
 20
416.854475847251
 30
0.0
 11
1433.2666164934033
 21
416.854475847251
 31
0.0
  0
LINE
  5
130
330
17
100
AcDbEntity
  8
0
100
AcDbLine
 10
1704.9355833951827
 20
416.27242666256507
 30
0.0
 11
1523.0527454205185
 21
414.6851591821521
 31
0.0
  0
LINE
  5
131
330
17
100
AcDbEntity
  8
0
100
AcDbLine
 10
1523.0527454205185
 20
414.6851591821521
 30
0.0
 11
1523.0012107620635
 21
420.59044612938055
 31
0.0
  0
LINE
  5
132
330
17
100
AcDbEntity
  8
0
100
AcDbLine
 10
1523.0012107620635
 20
420.59044612938055
 30
0.0
 11
1531.2686124881845
 21
420.66259465121766
 31
0.0
  0
LINE
  5
133
330
17
100
AcDbEntity
  8
0
100
AcDbLine
 10
1531.3201471466396
 20
414.7573077039892
 30
0.0
 11
1531.3201471466396
 21
414.7573077039892
 31
0.0
  0
LINE
  5
134
330
17
100
AcDbEntity
  8
0
100
AcDbLine
 10
1165.1408217599646
 20
417.46744582700967
 30
0.0
 11
1173.4082234860853
 21
417.5395943488468
 31
0.0
  0
LINE
  5
135
330
17
100
AcDbEntity
  8
0
100
AcDbLine
 10
1173.4082234860853
 20
417.5395943488468
 30
0.0
 11
1173.4597581445403
 21
411.63430740161834
 31
0.0
  0
LINE
  5
136
330
17
100
AcDbEntity
  8
0
100
AcDbLine
 10
1173.4597581445403
 20
411.63430740161834
 30
0.0
 11
1173.4597581445403
 21
411.63430740161834
 31
0.0
  0
LINE
  5
137
330
17
100
AcDbEntity
  8
0
100
AcDbLine
 10
1173.4339908153127
 20
414.58695087523256
 30
0.0
 11
1263.1943524132005
 21
415.3702776837479
 31
0.0
  0
LINE
  5
138
330
17
100
AcDbEntity
  8
0
100
AcDbLine
 10
1263.1943524132005
 20
415.3702776837479
 30
0.0
 11
1263.168585083973
 21
418.3229211573621
 31
0.0
  0
LINE
  5
139
330
17
100
AcDbEntity
  8
0
100
AcDbLine
 10
1263.168585083973
 20
418.3229211573621
 30
0.0
 11
1173.4082234860853
 21
417.5395943488468
 31
0.0
  0
LINE
  5
13A
330
17
100
AcDbEntity
  8
0
100
AcDbLine
 10
1173.4082234860853
 20
417.5395943488468
 30
0.0
 11
1173.4339908153127
 21
414.58695087523256
 31
0.0
  0
LINE
  5
13B
330
17
100
AcDbEntity
  8
0
100
AcDbLine
 10
1173.4339908153127
 20
414.58695087523256
 30
0.0
 11
1173.4339908153127
 21
414.58695087523256
 31
0.0
  0
LINE
  5
13C
330
17
100
AcDbEntity
  8
0
100
AcDbLine
 10
1433.2923838226309
 20
413.9018323736368
 30
0.0
 11
1263.220119742428
 21
412.41763421013366
 31
0.0
  0
LINE
  5
13D
330
17
100
AcDbEntity
  8
0
100
AcDbLine
 10
1263.220119742428
 20
412.41763421013366
 30
0.0
 11
1263.168585083973
 21
418.3229211573621
 31
0.0
  0
LINE
  5
13E
330
17
100
AcDbEntity
  8
0
100
AcDbLine
 10
1263.168585083973
 20
418.3229211573621
 30
0.0
 11
1271.435986810094
 21
418.3950696791992
 31
0.0
  0
LINE
  5
13F
330
17
100
AcDbEntity
  8
0
100
AcDbLine
 10
1271.487521468549
 20
412.48978273197076
 30
0.0
 11
1271.487521468549
 21
412.48978273197076
 31
0.0
  0
LINE
  5
140
330
17
100
AcDbEntity
  8
0
100
AcDbLine
 10
1956.4492726886972
 20
424.37309005997486
 30
0.0
 11
1964.7166744148183
 21
424.44523858181196
 31
0.0
  0
LINE
  5
141
330
17
100
AcDbEntity
  8
0
100
AcDbLine
 10
1964.7166744148183
 20
424.44523858181196
 30
0.0
 11
1964.7682090732733
 21
418.53995163458353
 31
0.0
  0
LINE
  5
142
330
17
100
AcDbEntity
  8
0
100
AcDbLine
 10
1964.7682090732733
 20
418.53995163458353
 30
0.0
 11
1964.7682090732733
 21
418.53995163458353
 31
0.0
  0
LINE
  5
143
330
17
100
AcDbEntity
  8
0
100
AcDbLine
 10
1964.7424417440457
 20
421.49259510819775
 30
0.0
 11
2053.2902510887666
 21
422.26534013351034
 31
0.0
  0
LINE
  5
144
330
17
100
AcDbEntity
  8
0
100
AcDbLine
 10
2053.264483759539
 20
425.21798360712455
 30
0.0
 11
1964.7166744148183
 21
424.44523858181196
 31
0.0
  0
LINE
  5
145
330
17
100
AcDbEntity
  8
0
100
AcDbLine
 10
1964.7166744148183
 20
424.44523858181196
 30
0.0
 11
1964.7424417440457
 21
421.49259510819775
 31
0.0
  0
LINE
  5
146
330
17
100
AcDbEntity
  8
0
100
AcDbLine
 10
1964.7424417440457
 20
421.49259510819775
 30
0.0
 11
1964.7424417440457
 21
421.49259510819775
 31
0.0
  0
LINE
  5
147
330
17
100
AcDbEntity
  8
0
100
AcDbLine
 10
1696.6166470106066
 20
422.1055650879566
 30
0.0
 11
1704.8840487367277
 21
422.1777136097935
 31
0.0
  0
LINE
  5
148
330
17
100
AcDbEntity
  8
0
100
AcDbLine
 10
1704.8840487367277
 20
422.1777136097935
 30
0.0
 11
1704.9355833951827
 21
416.27242666256507
 31
0.0
  0
LINE
  5
149
330
17
100
AcDbEntity
  8
0
100
AcDbLine
 10
1704.9355833951827
 20
416.27242666256507
 30
0.0
 11
1704.9355833951827
 21
416.27242666256507
 31
0.0
  0
LINE
  5
14A
330
17
100
AcDbEntity
  8
0
100
AcDbLine
 10
1704.909816065955
 20
419.2250701361793
 30
0.0
 11
1794.6701776638436
 21
420.0083969446948
 31
0.0
  0
LINE
  5
14B
330
17
100
AcDbEntity
  8
0
100
AcDbLine
 10
1794.6701776638436
 20
420.0083969446948
 30
0.0
 11
1794.6444103346162
 21
422.96104041830904
 31
0.0
  0
LINE
  5
14C
330
17
100
AcDbEntity
  8
0
100
AcDbLine
 10
1794.6444103346162
 20
422.96104041830904
 30
0.0
 11
1704.8840487367277
 21
422.1777136097935
 31
0.0
  0
LINE
  5
14D
330
17
100
AcDbEntity
  8
0
100
AcDbLine
 10
1704.8840487367277
 20
422.1777136097935
 30
0.0
 11
1704.909816065955
 21
419.2250701361793
 31
0.0
  0
LINE
  5
14E
330
17
100
AcDbEntity
  8
0
100
AcDbLine
 10
1704.909816065955
 20
419.2250701361793
 30
0.0
 11
1704.909816065955
 21
419.2250701361793
 31
0.0
  0
LINE
  5
14F
330
17
100
AcDbEntity
  8
0
100
AcDbLine
 10
1964.7682090732733
 20
418.53995163458353
 30
0.0
 11
1794.6959449930712
 21
417.0557534710806
 31
0.0
  0
LINE
  5
150
330
17
100
AcDbEntity
  8
0
100
AcDbLine
 10
1794.6959449930712
 20
417.0557534710806
 30
0.0
 11
1794.6444103346162
 21
422.96104041830904
 31
0.0
  0
LINE
  5
151
330
17
100
AcDbEntity
  8
0
100
AcDbLine
 10
1794.6444103346162
 20
422.96104041830904
 30
0.0
 11
1802.911812060736
 21
423.0331889401459
 31
0.0
  0
LINE
  5
152
330
17
100
AcDbEntity
  8
0
100
AcDbLine
 10
1802.9633467191911
 20
417.1279019929175
 30
0.0
 11
1802.9633467191911
 21
417.1279019929175
 31
0.0
  0
LINE
  5
153
330
17
100
AcDbEntity
  8
0
100
AcDbLine
 10
814.8025534688907
 20
766.3919964070624
 30
0.0
 11
814.7782410852434
 21
766.9187024741924
 31
0.0
  0
LINE
  5
154
330
17
100
AcDbEntity
  8
0
100
AcDbLine
 10
814.7782410852434
 20
766.9187024741924
 30
0.0
 11
814.7146358902621
 21
767.4421188976281
 31
0.0
  0
LINE
  5
155
330
17
100
AcDbEntity
  8
0
100
AcDbLine
 10
814.7146358902621
 20
767.4421188976281
 30
0.0
 11
814.6120935899985
 21
767.9593185204114
 31
0.0
  0
LINE
  5
156
330
17
100
AcDbEntity
  8
0
100
AcDbLine
 10
814.6120935899985
 20
767.9593185204114
 30
0.0
 11
814.4711876425905
 21
768.4674089524564
 31
0.0
  0
LINE
  5
157
330
17
100
AcDbEntity
  8
0
100
AcDbLine
 10
814.4711876425905
 20
768.4674089524564
 30
0.0
 11
814.2927060512527
 21
768.9635487459661
 31
0.0
  0
LINE
  5
158
330
17
100
AcDbEntity
  8
0
100
AcDbLine
 10
814.2927060512527
 20
768.9635487459661
 30
0.0
 11
814.0776469574429
 21
769.4449632859631
 31
0.0
  0
LINE
  5
159
330
17
100
AcDbEntity
  8
0
100
AcDbLine
 10
814.0776469574429
 20
769.4449632859631
 30
0.0
 11
813.8272130588493
 21
769.9089603070589
 31
0.0
  0
LINE
  5
15A
330
17
100
AcDbEntity
  8
0
100
AcDbLine
 10
813.8272130588493
 20
769.9089603070589
 30
0.0
 11
813.5428048834189
 21
770.3529449496973
 31
0.0
  0
LINE
  5
15B
330
17
100
AcDbEntity
  8
0
100
AcDbLine
 10
813.5428048834189
 20
770.3529449496973
 30
0.0
 11
813.2260129570349
 21
770.7744342716604
 31
0.0
  0
LINE
  5
15C
330
17
100
AcDbEntity
  8
0
100
AcDbLine
 10
813.2260129570349
 20
770.7744342716604
 30
0.0
 11
812.8786089086523
 21
771.1710711336862
 31
0.0
  0
LINE
  5
15D
330
17
100
AcDbEntity
  8
0
100
AcDbLine
 10
812.8786089086523
 20
771.1710711336862
 30
0.0
 11
812.5025355626301
 21
771.5406373815529
 31
0.0
  0
LINE
  5
15E
330
17
100
AcDbEntity
  8
0
100
AcDbLine
 10
812.5025355626301
 20
771.5406373815529
 30
0.0
 11
812.099896073669
 21
771.8810662508922
 31
0.0
  0
LINE
  5
15F
330
17
100
AcDbEntity
  8
0
100
AcDbLine
 10
812.099896073669
 20
771.8810662508922
 30
0.0
 11
811.6729421651163
 21
772.1904539253753
 31
0.0
  0
LINE
  5
160
330
17
100
AcDbEntity
  8
0
100
AcDbLine
 10
811.6729421651163
 20
772.1904539253753
 30
0.0
 11
811.2240615364176
 21
772.4670701836278
 31
0.0
  0
LINE
  5
161
330
17
100
AcDbEntity
  8
0
100
AcDbLine
 10
811.2240615364176
 20
772.4670701836278
 30
0.0
 11
810.7557645101317
 21
772.7093680753275
 31
0.0
  0
LINE
  5
162
330
17
100
AcDbEntity
  8
0
100
AcDbLine
 10
810.7557645101317
 20
772.7093680753275
 30
0.0
 11
810.2706699931882
 21
772.9159925723789
 31
0.0
  0
LINE
  5
163
330
17
100
AcDbEntity
  8
0
100
AcDbLine
 10
810.2706699931882
 20
772.9159925723789
 30
0.0
 11
809.7714908308983
 21
773.08578814678
 31
0.0
  0
LINE
  5
164
330
17
100
AcDbEntity
  8
0
100
AcDbLine
 10
809.7714908308983
 20
773.08578814678
 30
0.0
 11
809.2610186356236
 21
773.2178052328028
 31
0.0
  0
LINE
  5
165
330
17
100
AcDbEntity
  8
0
100
AcDbLine
 10
809.2610186356236
 20
773.2178052328028
 30
0.0
 11
808.7421081749466
 21
773.3113055373512
 31
0.0
  0
LINE
  5
166
330
17
100
AcDbEntity
  8
0
100
AcDbLine
 10
808.7421081749466
 20
773.3113055373512
 30
0.0
 11
808.2176614066532
 21
773.365766168795
 31
0.0
  0
LINE
  5
167
330
17
100
AcDbEntity
  8
0
100
AcDbLine
 10
808.2176614066532
 20
773.365766168795
 30
0.0
 11
807.6906112498074
 21
773.3808825611925
 31
0.0
  0
LINE
  5
168
330
17
100
AcDbEntity
  8
0
100
AcDbLine
 10
807.6906112498074
 20
773.3808825611925
 30
0.0
 11
807.163905182677
 21
773.3565701775447
 31
0.0
  0
LINE
  5
169
330
17
100
AcDbEntity
  8
0
100
AcDbLine
 10
807.163905182677
 20
773.3565701775447
 30
0.0
 11
806.6404887592414
 21
773.2929649825637
 31
0.0
  0
LINE
  5
16A
330
17
100
AcDbEntity
  8
0
100
AcDbLine
 10
806.6404887592414
 20
773.2929649825637
 30
0.0
 11
806.1232891364582
 21
773.1904226823004
 31
0.0
  0
LINE
  5
16B
330
17
100
AcDbEntity
  8
0
100
AcDbLine
 10
806.1232891364582
 20
773.1904226823004
 30
0.0
 11
805.6151987044132
 21
773.0495167348924
 31
0.0
  0
LINE
  5
16C
330
17
100
AcDbEntity
  8
0
100
AcDbLine
 10
805.6151987044132
 20
773.0495167348924
 30
0.0
 11
805.1190589109034
 21
772.8710351435543
 31
0.0
  0
LINE
  5
16D
330
17
100
AcDbEntity
  8
0
100
AcDbLine
 10
805.1190589109034
 20
772.8710351435543
 30
0.0
 11
804.6376443709069
 21
772.6559760497445
 31
0.0
  0
LINE
  5
16E
330
17
100
AcDbEntity
  8
0
100
AcDbLine
 10
804.6376443709069
 20
772.6559760497445
 30
0.0
 11
804.1736473498107
 21
772.4055421511512
 31
0.0
  0
LINE
  5
16F
330
17
100
AcDbEntity
  8
0
100
AcDbLine
 10
804.1736473498107
 20
772.4055421511512
 30
0.0
 11
803.7296627071722
 21
772.1211339757208
 31
0.0
  0
LINE
  5
170
330
17
100
AcDbEntity
  8
0
100
AcDbLine
 10
803.7296627071722
 20
772.1211339757208
 30
0.0
 11
803.3081733852099
 21
771.804342049337
 31
0.0
  0
LINE
  5
171
330
17
100
AcDbEntity
  8
0
100
AcDbLine
 10
803.3081733852099
 20
771.804342049337
 30
0.0
 11
802.9115365231836
 21
771.4569380009543
 31
0.0
  0
LINE
  5
172
330
17
100
AcDbEntity
  8
0
100
AcDbLine
 10
802.9115365231836
 20
771.4569380009543
 30
0.0
 11
802.5419702753168
 21
771.0808646549322
 31
0.0
  0
LINE
  5
173
330
17
100
AcDbEntity
  8
0
100
AcDbLine
 10
802.5419702753168
 20
771.0808646549322
 30
0.0
 11
802.2015414059779
 21
770.6782251659714
 31
0.0
  0
LINE
  5
174
330
17
100
AcDbEntity
  8
0
100
AcDbLine
 10
802.2015414059779
 20
770.6782251659714
 30
0.0
 11
801.8921537314944
 21
770.2512712574182
 31
0.0
  0
LINE
  5
175
330
17
100
AcDbEntity
  8
0
100
AcDbLine
 10
801.8921537314944
 20
770.2512712574182
 30
0.0
 11
801.6155374732417
 21
769.8023906287196
 31
0.0
  0
LINE
  5
176
330
17
100
AcDbEntity
  8
0
100
AcDbLine
 10
801.6155374732417
 20
769.8023906287196
 30
0.0
 11
801.373239581542
 21
769.3340936024337
 31
0.0
  0
LINE
  5
177
330
17
100
AcDbEntity
  8
0
100
AcDbLine
 10
801.373239581542
 20
769.3340936024337
 30
0.0
 11
801.1666150844907
 21
768.8489990854896
 31
0.0
  0
LINE
  5
178
330
17
100
AcDbEntity
  8
0
100
AcDbLine
 10
801.1666150844907
 20
768.8489990854896
 30
0.0
 11
800.9968195100896
 21
768.3498199232
 31
0.0
  0
LINE
  5
179
330
17
100
AcDbEntity
  8
0
100
AcDbLine
 10
800.9968195100896
 20
768.3498199232
 30
0.0
 11
800.8648024240671
 21
767.8393477279253
 31
0.0
  0
LINE
  5
17A
330
17
100
AcDbEntity
  8
0
100
AcDbLine
 10
800.8648024240671
 20
767.8393477279253
 30
0.0
 11
800.7713021195184
 21
767.3204372672484
 31
0.0
  0
LINE
  5
17B
330
17
100
AcDbEntity
  8
0
100
AcDbLine
 10
800.7713021195184
 20
767.3204372672484
 30
0.0
 11
800.7168414880745
 21
766.7959904989549
 31
0.0
  0
LINE
  5
17C
330
17
100
AcDbEntity
  8
0
100
AcDbLine
 10
800.7168414880745
 20
766.7959904989549
 30
0.0
 11
800.701725095677
 21
766.2689403421092
 31
0.0
  0
LINE
  5
17D
330
17
100
AcDbEntity
  8
0
100
AcDbLine
 10
800.701725095677
 20
766.2689403421092
 30
0.0
 11
800.7260374793248
 21
765.7422342749787
 31
0.0
  0
LINE
  5
17E
330
17
100
AcDbEntity
  8
0
100
AcDbLine
 10
800.7260374793248
 20
765.7422342749787
 30
0.0
 11
800.7896426743058
 21
765.2188178515435
 31
0.0
  0
LINE
  5
17F
330
17
100
AcDbEntity
  8
0
100
AcDbLine
 10
800.7896426743058
 20
765.2188178515435
 30
0.0
 11
800.8921849745694
 21
764.7016182287597
 31
0.0
  0
LINE
  5
180
330
17
100
AcDbEntity
  8
0
100
AcDbLine
 10
800.8921849745694
 20
764.7016182287597
 30
0.0
 11
801.0330909219772
 21
764.1935277967152
 31
0.0
  0
LINE
  5
181
330
17
100
AcDbEntity
  8
0
100
AcDbLine
 10
801.0330909219772
 20
764.1935277967152
 30
0.0
 11
801.2115725133151
 21
763.6973880032054
 31
0.0
  0
LINE
  5
182
330
17
100
AcDbEntity
  8
0
100
AcDbLine
 10
801.2115725133151
 20
763.6973880032054
 30
0.0
 11
801.4266316071249
 21
763.2159734632089
 31
0.0
  0
LINE
  5
183
330
17
100
AcDbEntity
  8
0
100
AcDbLine
 10
801.4266316071249
 20
763.2159734632089
 30
0.0
 11
801.6770655057184
 21
762.7519764421126
 31
0.0
  0
LINE
  5
184
330
17
100
AcDbEntity
  8
0
100
AcDbLine
 10
801.6770655057184
 20
762.7519764421126
 30
0.0
 11
801.961473681149
 21
762.3079917994739
 31
0.0
  0
LINE
  5
185
330
17
100
AcDbEntity
  8
0
100
AcDbLine
 10
801.961473681149
 20
762.3079917994739
 30
0.0
 11
802.2782656075331
 21
761.8865024775116
 31
0.0
  0
LINE
  5
186
330
17
100
AcDbEntity
  8
0
100
AcDbLine
 10
802.2782656075331
 20
761.8865024775116
 30
0.0
 11
802.6256696559153
 21
761.4898656154859
 31
0.0
  0
LINE
  5
187
330
17
100
AcDbEntity
  8
0
100
AcDbLine
 10
802.6256696559153
 20
761.4898656154859
 30
0.0
 11
803.0017430019376
 21
761.1202993676187
 31
0.0
  0
LINE
  5
188
330
17
100
AcDbEntity
  8
0
100
AcDbLine
 10
803.0017430019376
 20
761.1202993676187
 30
0.0
 11
803.404382490899
 21
760.7798704982795
 31
0.0
  0
LINE
  5
189
330
17
100
AcDbEntity
  8
0
100
AcDbLine
 10
803.404382490899
 20
760.7798704982795
 30
0.0
 11
803.8313363994513
 21
760.4704828237963
 31
0.0
  0
LINE
  5
18A
330
17
100
AcDbEntity
  8
0
100
AcDbLine
 10
803.8313363994513
 20
760.4704828237963
 30
0.0
 11
804.28021702815
 21
760.1938665655438
 31
0.0
  0
LINE
  5
18B
330
17
100
AcDbEntity
  8
0
100
AcDbLine
 10
804.28021702815
 20
760.1938665655438
 30
0.0
 11
804.7485140544362
 21
759.9515686738441
 31
0.0
  0
LINE
  5
18C
330
17
100
AcDbEntity
  8
0
100
AcDbLine
 10
804.7485140544362
 20
759.9515686738441
 30
0.0
 11
805.2336085713798
 21
759.7449441767924
 31
0.0
  0
LINE
  5
18D
330
17
100
AcDbEntity
  8
0
100
AcDbLine
 10
805.2336085713798
 20
759.7449441767924
 30
0.0
 11
805.7327877336695
 21
759.5751486023912
 31
0.0
  0
LINE
  5
18E
330
17
100
AcDbEntity
  8
0
100
AcDbLine
 10
805.7327877336695
 20
759.5751486023912
 30
0.0
 11
806.2432599289443
 21
759.4431315163688
 31
0.0
  0
LINE
  5
18F
330
17
100
AcDbEntity
  8
0
100
AcDbLine
 10
806.2432599289443
 20
759.4431315163688
 30
0.0
 11
806.7621703896211
 21
759.3496312118203
 31
0.0
  0
LINE
  5
190
330
17
100
AcDbEntity
  8
0
100
AcDbLine
 10
806.7621703896211
 20
759.3496312118203
 30
0.0
 11
807.2866171579145
 21
759.2951705803761
 31
0.0
  0
LINE
  5
191
330
17
100
AcDbEntity
  8
0
100
AcDbLine
 10
807.2866171579145
 20
759.2951705803761
 30
0.0
 11
807.8136673147606
 21
759.2800541879787
 31
0.0
  0
LINE
  5
192
330
17
100
AcDbEntity
  8
0
100
AcDbLine
 10
807.8136673147606
 20
759.2800541879787
 30
0.0
 11
808.3403733818907
 21
759.3043665716264
 31
0.0
  0
LINE
  5
193
330
17
100
AcDbEntity
  8
0
100
AcDbLine
 10
808.3403733818907
 20
759.3043665716264
 30
0.0
 11
808.8637898053263
 21
759.3679717666078
 31
0.0
  0
LINE
  5
194
330
17
100
AcDbEntity
  8
0
100
AcDbLine
 10
808.8637898053263
 20
759.3679717666078
 30
0.0
 11
809.3809894281097
 21
759.4705140668711
 31
0.0
  0
LINE
  5
195
330
17
100
AcDbEntity
  8
0
100
AcDbLine
 10
809.3809894281097
 20
759.4705140668711
 30
0.0
 11
809.8890798601547
 21
759.6114200142788
 31
0.0
  0
LINE
  5
196
330
17
100
AcDbEntity
  8
0
100
AcDbLine
 10
809.8890798601547
 20
759.6114200142788
 30
0.0
 11
810.3852196536646
 21
759.7899016056169
 31
0.0
  0
LINE
  5
197
330
17
100
AcDbEntity
  8
0
100
AcDbLine
 10
810.3852196536646
 20
759.7899016056169
 30
0.0
 11
810.8666341936611
 21
760.0049606994271
 31
0.0
  0
LINE
  5
198
330
17
100
AcDbEntity
  8
0
100
AcDbLine
 10
810.8666341936611
 20
760.0049606994271
 30
0.0
 11
811.3306312147569
 21
760.2553945980204
 31
0.0
  0
LINE
  5
199
330
17
100
AcDbEntity
  8
0
100
AcDbLine
 10
811.3306312147569
 20
760.2553945980204
 30
0.0
 11
811.7746158573954
 21
760.5398027734508
 31
0.0
  0
LINE
  5
19A
330
17
100
AcDbEntity
  8
0
100
AcDbLine
 10
811.7746158573954
 20
760.5398027734508
 30
0.0
 11
812.1961051793581
 21
760.8565946998347
 31
0.0
  0
LINE
  5
19B
330
17
100
AcDbEntity
  8
0
100
AcDbLine
 10
812.1961051793581
 20
760.8565946998347
 30
0.0
 11
812.5927420413841
 21
761.2039987482173
 31
0.0
  0
LINE
  5
19C
330
17
100
AcDbEntity
  8
0
100
AcDbLine
 10
812.5927420413841
 20
761.2039987482173
 30
0.0
 11
812.9623082892508
 21
761.5800720942399
 31
0.0
  0
LINE
  5
19D
330
17
100
AcDbEntity
  8
0
100
AcDbLine
 10
812.9623082892508
 20
761.5800720942399
 30
0.0
 11
813.30273715859
 21
761.9827115832006
 31
0.0
  0
LINE
  5
19E
330
17
100
AcDbEntity
  8
0
100
AcDbLine
 10
813.30273715859
 20
761.9827115832006
 30
0.0
 11
813.6121248330734
 21
762.409665491753
 31
0.0
  0
LINE
  5
19F
330
17
100
AcDbEntity
  8
0
100
AcDbLine
 10
813.6121248330734
 20
762.409665491753
 30
0.0
 11
813.888741091326
 21
762.8585461204518
 31
0.0
  0
LINE
  5
1A0
330
17
100
AcDbEntity
  8
0
100
AcDbLine
 10
813.888741091326
 20
762.8585461204518
 30
0.0
 11
814.1310389830259
 21
763.3268431467384
 31
0.0
  0
LINE
  5
1A1
330
17
100
AcDbEntity
  8
0
100
AcDbLine
 10
814.1310389830259
 20
763.3268431467384
 30
0.0
 11
814.3376634800771
 21
763.8119376636819
 31
0.0
  0
LINE
  5
1A2
330
17
100
AcDbEntity
  8
0
100
AcDbLine
 10
814.3376634800771
 20
763.8119376636819
 30
0.0
 11
814.5074590544781
 21
764.3111168259716
 31
0.0
  0
LINE
  5
1A3
330
17
100
AcDbEntity
  8
0
100
AcDbLine
 10
814.5074590544781
 20
764.3111168259716
 30
0.0
 11
814.6394761405008
 21
764.8215890212458
 31
0.0
  0
LINE
  5
1A4
330
17
100
AcDbEntity
  8
0
100
AcDbLine
 10
814.6394761405008
 20
764.8215890212458
 30
0.0
 11
814.7329764450495
 21
765.3404994819232
 31
0.0
  0
LINE
  5
1A5
330
17
100
AcDbEntity
  8
0
100
AcDbLine
 10
814.7329764450495
 20
765.3404994819232
 30
0.0
 11
814.7874370764937
 21
765.8649462502162
 31
0.0
  0
LINE
  5
1A6
330
17
100
AcDbEntity
  8
0
100
AcDbLine
 10
814.7874370764937
 20
765.8649462502162
 30
0.0
 11
814.8025534688907
 21
766.3919964070624
 31
0.0
  0
LINE
  5
1A7
330
17
100
AcDbEntity
  8
0
100
AcDbLine
 10
644.0003246602771
 20
1119.2456289407037
 30
0.0
 11
643.9760122766296
 21
1119.7723350078331
 31
0.0
  0
LINE
  5
1A8
330
17
100
AcDbEntity
  8
0
100
AcDbLine
 10
643.9760122766296
 20
1119.7723350078331
 30
0.0
 11
643.9124070816483
 21
1120.2957514312693
 31
0.0
  0
LINE
  5
1A9
330
17
100
AcDbEntity
  8
0
100
AcDbLine
 10
643.9124070816483
 20
1120.2957514312693
 30
0.0
 11
643.8098647813849
 21
1120.8129510540523
 31
0.0
  0
LINE
  5
1AA
330
17
100
AcDbEntity
  8
0
100
AcDbLine
 10
643.8098647813849
 20
1120.8129510540523
 30
0.0
 11
643.6689588339767
 21
1121.321041486097
 31
0.0
  0
LINE
  5
1AB
330
17
100
AcDbEntity
  8
0
100
AcDbLine
 10
643.6689588339767
 20
1121.321041486097
 30
0.0
 11
643.490477242639
 21
1121.817181279607
 31
0.0
  0
LINE
  5
1AC
330
17
100
AcDbEntity
  8
0
100
AcDbLine
 10
643.490477242639
 20
1121.817181279607
 30
0.0
 11
643.275418148829
 21
1122.2985958196045
 31
0.0
  0
LINE
  5
1AD
330
17
100
AcDbEntity
  8
0
100
AcDbLine
 10
643.275418148829
 20
1122.2985958196045
 30
0.0
 11
643.0249842502357
 21
1122.7625928407003
 31
0.0
  0
LINE
  5
1AE
330
17
100
AcDbEntity
  8
0
100
AcDbLine
 10
643.0249842502357
 20
1122.7625928407003
 30
0.0
 11
642.7405760748051
 21
1123.2065774833382
 31
0.0
  0
LINE
  5
1AF
330
17
100
AcDbEntity
  8
0
100
AcDbLine
 10
642.7405760748051
 20
1123.2065774833382
 30
0.0
 11
642.4237841484213
 21
1123.6280668053007
 31
0.0
  0
LINE
  5
1B0
330
17
100
AcDbEntity
  8
0
100
AcDbLine
 10
642.4237841484213
 20
1123.6280668053007
 30
0.0
 11
642.0763801000386
 21
1124.024703667327
 31
0.0
  0
LINE
  5
1B1
330
17
100
AcDbEntity
  8
0
100
AcDbLine
 10
642.0763801000386
 20
1124.024703667327
 30
0.0
 11
641.7003067540165
 21
1124.3942699151942
 31
0.0
  0
LINE
  5
1B2
330
17
100
AcDbEntity
  8
0
100
AcDbLine
 10
641.7003067540165
 20
1124.3942699151942
 30
0.0
 11
641.2976672650552
 21
1124.7346987845326
 31
0.0
  0
LINE
  5
1B3
330
17
100
AcDbEntity
  8
0
100
AcDbLine
 10
641.2976672650552
 20
1124.7346987845326
 30
0.0
 11
640.8707133565027
 21
1125.0440864590166
 31
0.0
  0
LINE
  5
1B4
330
17
100
AcDbEntity
  8
0
100
AcDbLine
 10
640.8707133565027
 20
1125.0440864590166
 30
0.0
 11
640.421832727804
 21
1125.3207027172687
 31
0.0
  0
LINE
  5
1B5
330
17
100
AcDbEntity
  8
0
100
AcDbLine
 10
640.421832727804
 20
1125.3207027172687
 30
0.0
 11
639.9535357015179
 21
1125.5630006089687
 31
0.0
  0
LINE
  5
1B6
330
17
100
AcDbEntity
  8
0
100
AcDbLine
 10
639.9535357015179
 20
1125.5630006089687
 30
0.0
 11
639.4684411845742
 21
1125.7696251060197
 31
0.0
  0
LINE
  5
1B7
330
17
100
AcDbEntity
  8
0
100
AcDbLine
 10
639.4684411845742
 20
1125.7696251060197
 30
0.0
 11
638.9692620222844
 21
1125.9394206804213
 31
0.0
  0
LINE
  5
1B8
330
17
100
AcDbEntity
  8
0
100
AcDbLine
 10
638.9692620222844
 20
1125.9394206804213
 30
0.0
 11
638.4587898270097
 21
1126.071437766444
 31
0.0
  0
LINE
  5
1B9
330
17
100
AcDbEntity
  8
0
100
AcDbLine
 10
638.4587898270097
 20
1126.071437766444
 30
0.0
 11
637.9398793663329
 21
1126.1649380709925
 31
0.0
  0
LINE
  5
1BA
330
17
100
AcDbEntity
  8
0
100
AcDbLine
 10
637.9398793663329
 20
1126.1649380709925
 30
0.0
 11
637.4154325980396
 21
1126.2193987024364
 31
0.0
  0
LINE
  5
1BB
330
17
100
AcDbEntity
  8
0
100
AcDbLine
 10
637.4154325980396
 20
1126.2193987024364
 30
0.0
 11
636.8883824411936
 21
1126.2345150948333
 31
0.0
  0
LINE
  5
1BC
330
17
100
AcDbEntity
  8
0
100
AcDbLine
 10
636.8883824411936
 20
1126.2345150948333
 30
0.0
 11
636.3616763740633
 21
1126.210202711186
 31
0.0
  0
LINE
  5
1BD
330
17
100
AcDbEntity
  8
0
100
AcDbLine
 10
636.3616763740633
 20
1126.210202711186
 30
0.0
 11
635.8382599506277
 21
1126.1465975162052
 31
0.0
  0
LINE
  5
1BE
330
17
100
AcDbEntity
  8
0
100
AcDbLine
 10
635.8382599506277
 20
1126.1465975162052
 30
0.0
 11
635.3210603278446
 21
1126.0440552159416
 31
0.0
  0
LINE
  5
1BF
330
17
100
AcDbEntity
  8
0
100
AcDbLine
 10
635.3210603278446
 20
1126.0440552159416
 30
0.0
 11
634.8129698957996
 21
1125.9031492685338
 31
0.0
  0
LINE
  5
1C0
330
17
100
AcDbEntity
  8
0
100
AcDbLine
 10
634.8129698957996
 20
1125.9031492685338
 30
0.0
 11
634.3168301022897
 21
1125.7246676771952
 31
0.0
  0
LINE
  5
1C1
330
17
100
AcDbEntity
  8
0
100
AcDbLine
 10
634.3168301022897
 20
1125.7246676771952
 30
0.0
 11
633.8354155622931
 21
1125.5096085833857
 31
0.0
  0
LINE
  5
1C2
330
17
100
AcDbEntity
  8
0
100
AcDbLine
 10
633.8354155622931
 20
1125.5096085833857
 30
0.0
 11
633.3714185411972
 21
1125.259174684792
 31
0.0
  0
LINE
  5
1C3
330
17
100
AcDbEntity
  8
0
100
AcDbLine
 10
633.3714185411972
 20
1125.259174684792
 30
0.0
 11
632.9274338985587
 21
1124.974766509362
 31
0.0
  0
LINE
  5
1C4
330
17
100
AcDbEntity
  8
0
100
AcDbLine
 10
632.9274338985587
 20
1124.974766509362
 30
0.0
 11
632.505944576596
 21
1124.6579745829774
 31
0.0
  0
LINE
  5
1C5
330
17
100
AcDbEntity
  8
0
100
AcDbLine
 10
632.505944576596
 20
1124.6579745829774
 30
0.0
 11
632.10930771457
 21
1124.3105705345956
 31
0.0
  0
LINE
  5
1C6
330
17
100
AcDbEntity
  8
0
100
AcDbLine
 10
632.10930771457
 20
1124.3105705345956
 30
0.0
 11
631.7397414667031
 21
1123.934497188573
 31
0.0
  0
LINE
  5
1C7
330
17
100
AcDbEntity
  8
0
100
AcDbLine
 10
631.7397414667031
 20
1123.934497188573
 30
0.0
 11
631.399312597364
 21
1123.5318576996117
 31
0.0
  0
LINE
  5
1C8
330
17
100
AcDbEntity
  8
0
100
AcDbLine
 10
631.399312597364
 20
1123.5318576996117
 30
0.0
 11
631.0899249228808
 21
1123.104903791059
 31
0.0
  0
LINE
  5
1C9
330
17
100
AcDbEntity
  8
0
100
AcDbLine
 10
631.0899249228808
 20
1123.104903791059
 30
0.0
 11
630.8133086646282
 21
1122.6560231623612
 31
0.0
  0
LINE
  5
1CA
330
17
100
AcDbEntity
  8
0
100
AcDbLine
 10
630.8133086646282
 20
1122.6560231623612
 30
0.0
 11
630.5710107729283
 21
1122.187726136075
 31
0.0
  0
LINE
  5
1CB
330
17
100
AcDbEntity
  8
0
100
AcDbLine
 10
630.5710107729283
 20
1122.187726136075
 30
0.0
 11
630.364386275877
 21
1121.7026316191307
 31
0.0
  0
LINE
  5
1CC
330
17
100
AcDbEntity
  8
0
100
AcDbLine
 10
630.364386275877
 20
1121.7026316191307
 30
0.0
 11
630.1945907014759
 21
1121.2034524568408
 31
0.0
  0
LINE
  5
1CD
330
17
100
AcDbEntity
  8
0
100
AcDbLine
 10
630.1945907014759
 20
1121.2034524568408
 30
0.0
 11
630.0625736154531
 21
1120.6929802615662
 31
0.0
  0
LINE
  5
1CE
330
17
100
AcDbEntity
  8
0
100
AcDbLine
 10
630.0625736154531
 20
1120.6929802615662
 30
0.0
 11
629.9690733109046
 21
1120.1740698008896
 31
0.0
  0
LINE
  5
1CF
330
17
100
AcDbEntity
  8
0
100
AcDbLine
 10
629.9690733109046
 20
1120.1740698008896
 30
0.0
 11
629.9146126794607
 21
1119.6496230325956
 31
0.0
  0
LINE
  5
1D0
330
17
100
AcDbEntity
  8
0
100
AcDbLine
 10
629.9146126794607
 20
1119.6496230325956
 30
0.0
 11
629.8994962870632
 21
1119.1225728757506
 31
0.0
  0
LINE
  5
1D1
330
17
100
AcDbEntity
  8
0
100
AcDbLine
 10
629.8994962870632
 20
1119.1225728757506
 30
0.0
 11
629.923808670711
 21
1118.5958668086196
 31
0.0
  0
LINE
  5
1D2
330
17
100
AcDbEntity
  8
0
100
AcDbLine
 10
629.923808670711
 20
1118.5958668086196
 30
0.0
 11
629.9874138656919
 21
1118.0724503851848
 31
0.0
  0
LINE
  5
1D3
330
17
100
AcDbEntity
  8
0
100
AcDbLine
 10
629.9874138656919
 20
1118.0724503851848
 30
0.0
 11
630.0899561659554
 21
1117.5552507624009
 31
0.0
  0
LINE
  5
1D4
330
17
100
AcDbEntity
  8
0
100
AcDbLine
 10
630.0899561659554
 20
1117.5552507624009
 30
0.0
 11
630.2308621133635
 21
1117.047160330356
 31
0.0
  0
LINE
  5
1D5
330
17
100
AcDbEntity
  8
0
100
AcDbLine
 10
630.2308621133635
 20
1117.047160330356
 30
0.0
 11
630.4093437047014
 21
1116.5510205368464
 31
0.0
  0
LINE
  5
1D6
330
17
100
AcDbEntity
  8
0
100
AcDbLine
 10
630.4093437047014
 20
1116.5510205368464
 30
0.0
 11
630.6244027985113
 21
1116.0696059968498
 31
0.0
  0
LINE
  5
1D7
330
17
100
AcDbEntity
  8
0
100
AcDbLine
 10
630.6244027985113
 20
1116.0696059968498
 30
0.0
 11
630.8748366971048
 21
1115.605608975754
 31
0.0
  0
LINE
  5
1D8
330
17
100
AcDbEntity
  8
0
100
AcDbLine
 10
630.8748366971048
 20
1115.605608975754
 30
0.0
 11
631.1592448725353
 21
1115.1616243331157
 31
0.0
  0
LINE
  5
1D9
330
17
100
AcDbEntity
  8
0
100
AcDbLine
 10
631.1592448725353
 20
1115.1616243331157
 30
0.0
 11
631.4760367989192
 21
1114.740135011153
 31
0.0
  0
LINE
  5
1DA
330
17
100
AcDbEntity
  8
0
100
AcDbLine
 10
631.4760367989192
 20
1114.740135011153
 30
0.0
 11
631.8234408473016
 21
1114.3434981491266
 31
0.0
  0
LINE
  5
1DB
330
17
100
AcDbEntity
  8
0
100
AcDbLine
 10
631.8234408473016
 20
1114.3434981491266
 30
0.0
 11
632.199514193324
 21
1113.97393190126
 31
0.0
  0
LINE
  5
1DC
330
17
100
AcDbEntity
  8
0
100
AcDbLine
 10
632.199514193324
 20
1113.97393190126
 30
0.0
 11
632.602153682285
 21
1113.6335030319212
 31
0.0
  0
LINE
  5
1DD
330
17
100
AcDbEntity
  8
0
100
AcDbLine
 10
632.602153682285
 20
1113.6335030319212
 30
0.0
 11
633.0291075908377
 21
1113.3241153574374
 31
0.0
  0
LINE
  5
1DE
330
17
100
AcDbEntity
  8
0
100
AcDbLine
 10
633.0291075908377
 20
1113.3241153574374
 30
0.0
 11
633.4779882195364
 21
1113.0474990991845
 31
0.0
  0
LINE
  5
1DF
330
17
100
AcDbEntity
  8
0
100
AcDbLine
 10
633.4779882195364
 20
1113.0474990991845
 30
0.0
 11
633.9462852458225
 21
1112.805201207485
 31
0.0
  0
LINE
  5
1E0
330
17
100
AcDbEntity
  8
0
100
AcDbLine
 10
633.9462852458225
 20
1112.805201207485
 30
0.0
 11
634.4313797627661
 21
1112.5985767104332
 31
0.0
  0
LINE
  5
1E1
330
17
100
AcDbEntity
  8
0
100
AcDbLine
 10
634.4313797627661
 20
1112.5985767104332
 30
0.0
 11
634.9305589250558
 21
1112.4287811360325
 31
0.0
  0
LINE
  5
1E2
330
17
100
AcDbEntity
  8
0
100
AcDbLine
 10
634.9305589250558
 20
1112.4287811360325
 30
0.0
 11
635.4410311203308
 21
1112.29676405001
 31
0.0
  0
LINE
  5
1E3
330
17
100
AcDbEntity
  8
0
100
AcDbLine
 10
635.4410311203308
 20
1112.29676405001
 30
0.0
 11
635.9599415810075
 21
1112.2032637454618
 31
0.0
  0
LINE
  5
1E4
330
17
100
AcDbEntity
  8
0
100
AcDbLine
 10
635.9599415810075
 20
1112.2032637454618
 30
0.0
 11
636.4843883493008
 21
1112.1488031140166
 31
0.0
  0
LINE
  5
1E5
330
17
100
AcDbEntity
  8
0
100
AcDbLine
 10
636.4843883493008
 20
1112.1488031140166
 30
0.0
 11
637.0114385061468
 21
1112.1336867216191
 31
0.0
  0
LINE
  5
1E6
330
17
100
AcDbEntity
  8
0
100
AcDbLine
 10
637.0114385061468
 20
1112.1336867216191
 30
0.0
 11
637.5381445732771
 21
1112.1579991052668
 31
0.0
  0
LINE
  5
1E7
330
17
100
AcDbEntity
  8
0
100
AcDbLine
 10
637.5381445732771
 20
1112.1579991052668
 30
0.0
 11
638.0615609967125
 21
1112.221604300249
 31
0.0
  0
LINE
  5
1E8
330
17
100
AcDbEntity
  8
0
100
AcDbLine
 10
638.0615609967125
 20
1112.221604300249
 30
0.0
 11
638.5787606194958
 21
1112.3241466005124
 31
0.0
  0
LINE
  5
1E9
330
17
100
AcDbEntity
  8
0
100
AcDbLine
 10
638.5787606194958
 20
1112.3241466005124
 30
0.0
 11
639.0868510515407
 21
1112.46505254792
 31
0.0
  0
LINE
  5
1EA
330
17
100
AcDbEntity
  8
0
100
AcDbLine
 10
639.0868510515407
 20
1112.46505254792
 30
0.0
 11
639.5829908450506
 21
1112.6435341392578
 31
0.0
  0
LINE
  5
1EB
330
17
100
AcDbEntity
  8
0
100
AcDbLine
 10
639.5829908450506
 20
1112.6435341392578
 30
0.0
 11
640.0644053850474
 21
1112.858593233068
 31
0.0
  0
LINE
  5
1EC
330
17
100
AcDbEntity
  8
0
100
AcDbLine
 10
640.0644053850474
 20
1112.858593233068
 30
0.0
 11
640.5284024061433
 21
1113.1090271316612
 31
0.0
  0
LINE
  5
1ED
330
17
100
AcDbEntity
  8
0
100
AcDbLine
 10
640.5284024061433
 20
1113.1090271316612
 30
0.0
 11
640.9723870487818
 21
1113.393435307092
 31
0.0
  0
LINE
  5
1EE
330
17
100
AcDbEntity
  8
0
100
AcDbLine
 10
640.9723870487818
 20
1113.393435307092
 30
0.0
 11
641.3938763707442
 21
1113.7102272334764
 31
0.0
  0
LINE
  5
1EF
330
17
100
AcDbEntity
  8
0
100
AcDbLine
 10
641.3938763707442
 20
1113.7102272334764
 30
0.0
 11
641.7905132327705
 21
1114.0576312818584
 31
0.0
  0
LINE
  5
1F0
330
17
100
AcDbEntity
  8
0
100
AcDbLine
 10
641.7905132327705
 20
1114.0576312818584
 30
0.0
 11
642.1600794806371
 21
1114.4337046278806
 31
0.0
  0
LINE
  5
1F1
330
17
100
AcDbEntity
  8
0
100
AcDbLine
 10
642.1600794806371
 20
1114.4337046278806
 30
0.0
 11
642.5005083499765
 21
1114.836344116842
 31
0.0
  0
LINE
  5
1F2
330
17
100
AcDbEntity
  8
0
100
AcDbLine
 10
642.5005083499765
 20
1114.836344116842
 30
0.0
 11
642.8098960244596
 21
1115.2632980253948
 31
0.0
  0
LINE
  5
1F3
330
17
100
AcDbEntity
  8
0
100
AcDbLine
 10
642.8098960244596
 20
1115.2632980253948
 30
0.0
 11
643.0865122827123
 21
1115.7121786540931
 31
0.0
  0
LINE
  5
1F4
330
17
100
AcDbEntity
  8
0
100
AcDbLine
 10
643.0865122827123
 20
1115.7121786540931
 30
0.0
 11
643.328810174412
 21
1116.1804756803792
 31
0.0
  0
LINE
  5
1F5
330
17
100
AcDbEntity
  8
0
100
AcDbLine
 10
643.328810174412
 20
1116.1804756803792
 30
0.0
 11
643.5354346714635
 21
1116.6655701973227
 31
0.0
  0
LINE
  5
1F6
330
17
100
AcDbEntity
  8
0
100
AcDbLine
 10
643.5354346714635
 20
1116.6655701973227
 30
0.0
 11
643.7052302458643
 21
1117.1647493596124
 31
0.0
  0
LINE
  5
1F7
330
17
100
AcDbEntity
  8
0
100
AcDbLine
 10
643.7052302458643
 20
1117.1647493596124
 30
0.0
 11
643.8372473318873
 21
1117.675221554887
 31
0.0
  0
LINE
  5
1F8
330
17
100
AcDbEntity
  8
0
100
AcDbLine
 10
643.8372473318873
 20
1117.675221554887
 30
0.0
 11
643.9307476364356
 21
1118.1941320155645
 31
0.0
  0
LINE
  5
1F9
330
17
100
AcDbEntity
  8
0
100
AcDbLine
 10
643.9307476364356
 20
1118.1941320155645
 30
0.0
 11
643.9852082678799
 21
1118.718578783857
 31
0.0
  0
LINE
  5
1FA
330
17
100
AcDbEntity
  8
0
100
AcDbLine
 10
643.9852082678799
 20
1118.718578783857
 30
0.0
 11
644.0003246602771
 21
1119.2456289407037
 31
0.0
  0
LINE
  5
1FB
330
17
100
AcDbEntity
  8
0
100
AcDbLine
 10
390.9278763480583
 20
1695.7992941140692
 30
0.0
 11
390.9035639644107
 21
1696.3260001812
 31
0.0
  0
LINE
  5
1FC
330
17
100
AcDbEntity
  8
0
100
AcDbLine
 10
390.9035639644107
 20
1696.3260001812
 30
0.0
 11
390.8399587694297
 21
1696.8494166046353
 31
0.0
  0
LINE
  5
1FD
330
17
100
AcDbEntity
  8
0
100
AcDbLine
 10
390.8399587694297
 20
1696.8494166046353
 30
0.0
 11
390.73741646916596
 21
1697.366616227419
 31
0.0
  0
LINE
  5
1FE
330
17
100
AcDbEntity
  8
0
100
AcDbLine
 10
390.73741646916596
 20
1697.366616227419
 30
0.0
 11
390.5965105217579
 21
1697.8747066594628
 31
0.0
  0
LINE
  5
1FF
330
17
100
AcDbEntity
  8
0
100
AcDbLine
 10
390.5965105217579
 20
1697.8747066594628
 30
0.0
 11
390.41802893042023
 21
1698.3708464529732
 31
0.0
  0
LINE
  5
200
330
17
100
AcDbEntity
  8
0
100
AcDbLine
 10
390.41802893042023
 20
1698.3708464529732
 30
0.0
 11
390.2029698366104
 21
1698.8522609929691
 31
0.0
  0
LINE
  5
201
330
17
100
AcDbEntity
  8
0
100
AcDbLine
 10
390.2029698366104
 20
1698.8522609929691
 30
0.0
 11
389.95253593801687
 21
1699.316258014066
 31
0.0
  0
LINE
  5
202
330
17
100
AcDbEntity
  8
0
100
AcDbLine
 10
389.95253593801687
 20
1699.316258014066
 30
0.0
 11
389.66812776258615
 21
1699.7602426567032
 31
0.0
  0
LINE
  5
203
330
17
100
AcDbEntity
  8
0
100
AcDbLine
 10
389.66812776258615
 20
1699.7602426567032
 30
0.0
 11
389.3513358362024
 21
1700.1817319786664
 31
0.0
  0
LINE
  5
204
330
17
100
AcDbEntity
  8
0
100
AcDbLine
 10
389.3513358362024
 20
1700.1817319786664
 30
0.0
 11
389.0039317878198
 21
1700.5783688406932
 31
0.0
  0
LINE
  5
205
330
17
100
AcDbEntity
  8
0
100
AcDbLine
 10
389.0039317878198
 20
1700.5783688406932
 30
0.0
 11
388.62785844179774
 21
1700.94793508856
 31
0.0
  0
LINE
  5
206
330
17
100
AcDbEntity
  8
0
100
AcDbLine
 10
388.62785844179774
 20
1700.94793508856
 30
0.0
 11
388.22521895283626
 21
1701.288363957899
 31
0.0
  0
LINE
  5
207
330
17
100
AcDbEntity
  8
0
100
AcDbLine
 10
388.22521895283626
 20
1701.288363957899
 30
0.0
 11
387.7982650442838
 21
1701.5977516323815
 31
0.0
  0
LINE
  5
208
330
17
100
AcDbEntity
  8
0
100
AcDbLine
 10
387.7982650442838
 20
1701.5977516323815
 30
0.0
 11
387.3493844155853
 21
1701.8743678906335
 31
0.0
  0
LINE
  5
209
330
17
100
AcDbEntity
  8
0
100
AcDbLine
 10
387.3493844155853
 20
1701.8743678906335
 30
0.0
 11
386.881087389299
 21
1702.1166657823344
 31
0.0
  0
LINE
  5
20A
330
17
100
AcDbEntity
  8
0
100
AcDbLine
 10
386.881087389299
 20
1702.1166657823344
 30
0.0
 11
386.39599287235546
 21
1702.323290279386
 31
0.0
  0
LINE
  5
20B
330
17
100
AcDbEntity
  8
0
100
AcDbLine
 10
386.39599287235546
 20
1702.323290279386
 30
0.0
 11
385.8968137100657
 21
1702.4930858537862
 31
0.0
  0
LINE
  5
20C
330
17
100
AcDbEntity
  8
0
100
AcDbLine
 10
385.8968137100657
 20
1702.4930858537862
 30
0.0
 11
385.3863415147909
 21
1702.625102939809
 31
0.0
  0
LINE
  5
20D
330
17
100
AcDbEntity
  8
0
100
AcDbLine
 10
385.3863415147909
 20
1702.625102939809
 30
0.0
 11
384.8674310541141
 21
1702.7186032443578
 31
0.0
  0
LINE
  5
20E
330
17
100
AcDbEntity
  8
0
100
AcDbLine
 10
384.8674310541141
 20
1702.7186032443578
 30
0.0
 11
384.34298428582093
 21
1702.773063875802
 31
0.0
  0
LINE
  5
20F
330
17
100
AcDbEntity
  8
0
100
AcDbLine
 10
384.34298428582093
 20
1702.773063875802
 30
0.0
 11
383.8159341289748
 21
1702.788180268199
 31
0.0
  0
LINE
  5
210
330
17
100
AcDbEntity
  8
0
100
AcDbLine
 10
383.8159341289748
 20
1702.788180268199
 30
0.0
 11
383.28922806184454
 21
1702.7638678845517
 31
0.0
  0
LINE
  5
211
330
17
100
AcDbEntity
  8
0
100
AcDbLine
 10
383.28922806184454
 20
1702.7638678845517
 30
0.0
 11
382.76581163840893
 21
1702.7002626895705
 31
0.0
  0
LINE
  5
212
330
17
100
AcDbEntity
  8
0
100
AcDbLine
 10
382.76581163840893
 20
1702.7002626895705
 30
0.0
 11
382.2486120156257
 21
1702.5977203893067
 31
0.0
  0
LINE
  5
213
330
17
100
AcDbEntity
  8
0
100
AcDbLine
 10
382.2486120156257
 20
1702.5977203893067
 30
0.0
 11
381.7405215835808
 21
1702.4568144418986
 31
0.0
  0
LINE
  5
214
330
17
100
AcDbEntity
  8
0
100
AcDbLine
 10
381.7405215835808
 20
1702.4568144418986
 30
0.0
 11
381.24438179007086
 21
1702.2783328505614
 31
0.0
  0
LINE
  5
215
330
17
100
AcDbEntity
  8
0
100
AcDbLine
 10
381.24438179007086
 20
1702.2783328505614
 30
0.0
 11
380.76296725007427
 21
1702.0632737567514
 31
0.0
  0
LINE
  5
216
330
17
100
AcDbEntity
  8
0
100
AcDbLine
 10
380.76296725007427
 20
1702.0632737567514
 30
0.0
 11
380.2989702289782
 21
1701.8128398581568
 31
0.0
  0
LINE
  5
217
330
17
100
AcDbEntity
  8
0
100
AcDbLine
 10
380.2989702289782
 20
1701.8128398581568
 30
0.0
 11
379.85498558634
 21
1701.528431682727
 31
0.0
  0
LINE
  5
218
330
17
100
AcDbEntity
  8
0
100
AcDbLine
 10
379.85498558634
 20
1701.528431682727
 30
0.0
 11
379.43349626437737
 21
1701.211639756344
 31
0.0
  0
LINE
  5
219
330
17
100
AcDbEntity
  8
0
100
AcDbLine
 10
379.43349626437737
 20
1701.211639756344
 30
0.0
 11
379.036859402351
 21
1700.8642357079614
 31
0.0
  0
LINE
  5
21A
330
17
100
AcDbEntity
  8
0
100
AcDbLine
 10
379.036859402351
 20
1700.8642357079614
 30
0.0
 11
378.6672931544843
 21
1700.4881623619392
 31
0.0
  0
LINE
  5
21B
330
17
100
AcDbEntity
  8
0
100
AcDbLine
 10
378.6672931544843
 20
1700.4881623619392
 30
0.0
 11
378.3268642851454
 21
1700.0855228729774
 31
0.0
  0
LINE
  5
21C
330
17
100
AcDbEntity
  8
0
100
AcDbLine
 10
378.3268642851454
 20
1700.0855228729774
 30
0.0
 11
378.01747661066196
 21
1699.6585689644244
 31
0.0
  0
LINE
  5
21D
330
17
100
AcDbEntity
  8
0
100
AcDbLine
 10
378.01747661066196
 20
1699.6585689644244
 30
0.0
 11
377.74086035240936
 21
1699.2096883357267
 31
0.0
  0
LINE
  5
21E
330
17
100
AcDbEntity
  8
0
100
AcDbLine
 10
377.74086035240936
 20
1699.2096883357267
 30
0.0
 11
377.4985624607096
 21
1698.7413913094397
 31
0.0
  0
LINE
  5
21F
330
17
100
AcDbEntity
  8
0
100
AcDbLine
 10
377.4985624607096
 20
1698.7413913094397
 30
0.0
 11
377.2919379636581
 21
1698.2562967924966
 31
0.0
  0
LINE
  5
220
330
17
100
AcDbEntity
  8
0
100
AcDbLine
 10
377.2919379636581
 20
1698.2562967924966
 30
0.0
 11
377.12214238925736
 21
1697.7571176302067
 31
0.0
  0
LINE
  5
221
330
17
100
AcDbEntity
  8
0
100
AcDbLine
 10
377.12214238925736
 20
1697.7571176302067
 30
0.0
 11
376.9901253032343
 21
1697.2466454349328
 31
0.0
  0
LINE
  5
222
330
17
100
AcDbEntity
  8
0
100
AcDbLine
 10
376.9901253032343
 20
1697.2466454349328
 30
0.0
 11
376.89662499868587
 21
1696.7277349742553
 31
0.0
  0
LINE
  5
223
330
17
100
AcDbEntity
  8
0
100
AcDbLine
 10
376.89662499868587
 20
1696.7277349742553
 30
0.0
 11
376.84216436724176
 21
1696.2032882059625
 31
0.0
  0
LINE
  5
224
330
17
100
AcDbEntity
  8
0
100
AcDbLine
 10
376.84216436724176
 20
1696.2032882059625
 30
0.0
 11
376.82704797484445
 21
1695.6762380491161
 31
0.0
  0
LINE
  5
225
330
17
100
AcDbEntity
  8
0
100
AcDbLine
 10
376.82704797484445
 20
1695.6762380491161
 30
0.0
 11
376.8513603584921
 21
1695.1495319819858
 31
0.0
  0
LINE
  5
226
330
17
100
AcDbEntity
  8
0
100
AcDbLine
 10
376.8513603584921
 20
1695.1495319819858
 30
0.0
 11
376.9149655534732
 21
1694.6261155585505
 31
0.0
  0
LINE
  5
227
330
17
100
AcDbEntity
  8
0
100
AcDbLine
 10
376.9149655534732
 20
1694.6261155585505
 30
0.0
 11
377.01750785373673
 21
1694.1089159357666
 31
0.0
  0
LINE
  5
228
330
17
100
AcDbEntity
  8
0
100
AcDbLine
 10
377.01750785373673
 20
1694.1089159357666
 30
0.0
 11
377.15841380114495
 21
1693.6008255037227
 31
0.0
  0
LINE
  5
229
330
17
100
AcDbEntity
  8
0
100
AcDbLine
 10
377.15841380114495
 20
1693.6008255037227
 30
0.0
 11
377.3368953924826
 21
1693.1046857102124
 31
0.0
  0
LINE
  5
22A
330
17
100
AcDbEntity
  8
0
100
AcDbLine
 10
377.3368953924826
 20
1693.1046857102124
 30
0.0
 11
377.5519544862926
 21
1692.6232711702146
 31
0.0
  0
LINE
  5
22B
330
17
100
AcDbEntity
  8
0
100
AcDbLine
 10
377.5519544862926
 20
1692.6232711702146
 30
0.0
 11
377.802388384886
 21
1692.159274149119
 31
0.0
  0
LINE
  5
22C
330
17
100
AcDbEntity
  8
0
100
AcDbLine
 10
377.802388384886
 20
1692.159274149119
 30
0.0
 11
378.0867965603165
 21
1691.715289506481
 31
0.0
  0
LINE
  5
22D
330
17
100
AcDbEntity
  8
0
100
AcDbLine
 10
378.0867965603165
 20
1691.715289506481
 30
0.0
 11
378.4035884867006
 21
1691.2938001845187
 31
0.0
  0
LINE
  5
22E
330
17
100
AcDbEntity
  8
0
100
AcDbLine
 10
378.4035884867006
 20
1691.2938001845187
 30
0.0
 11
378.75099253508284
 21
1690.897163322491
 31
0.0
  0
LINE
  5
22F
330
17
100
AcDbEntity
  8
0
100
AcDbLine
 10
378.75099253508284
 20
1690.897163322491
 30
0.0
 11
379.12706588110495
 21
1690.5275970746256
 31
0.0
  0
LINE
  5
230
330
17
100
AcDbEntity
  8
0
100
AcDbLine
 10
379.12706588110495
 20
1690.5275970746256
 30
0.0
 11
379.52970537006644
 21
1690.1871682052865
 31
0.0
  0
LINE
  5
231
330
17
100
AcDbEntity
  8
0
100
AcDbLine
 10
379.52970537006644
 20
1690.1871682052865
 30
0.0
 11
379.95665927861904
 21
1689.8777805308027
 31
0.0
  0
LINE
  5
232
330
17
100
AcDbEntity
  8
0
100
AcDbLine
 10
379.95665927861904
 20
1689.8777805308027
 30
0.0
 11
380.40553990731746
 21
1689.6011642725502
 31
0.0
  0
LINE
  5
233
330
17
100
AcDbEntity
  8
0
100
AcDbLine
 10
380.40553990731746
 20
1689.6011642725502
 30
0.0
 11
380.87383693360374
 21
1689.35886638085
 31
0.0
  0
LINE
  5
234
330
17
100
AcDbEntity
  8
0
100
AcDbLine
 10
380.87383693360374
 20
1689.35886638085
 30
0.0
 11
381.3589314505473
 21
1689.1522418837994
 31
0.0
  0
LINE
  5
235
330
17
100
AcDbEntity
  8
0
100
AcDbLine
 10
381.3589314505473
 20
1689.1522418837994
 30
0.0
 11
381.85811061283715
 21
1688.9824463093983
 31
0.0
  0
LINE
  5
236
330
17
100
AcDbEntity
  8
0
100
AcDbLine
 10
381.85811061283715
 20
1688.9824463093983
 30
0.0
 11
382.36858280811185
 21
1688.8504292233754
 31
0.0
  0
LINE
  5
237
330
17
100
AcDbEntity
  8
0
100
AcDbLine
 10
382.36858280811185
 20
1688.8504292233754
 30
0.0
 11
382.88749326878866
 21
1688.7569289188266
 31
0.0
  0
LINE
  5
238
330
17
100
AcDbEntity
  8
0
100
AcDbLine
 10
382.88749326878866
 20
1688.7569289188266
 30
0.0
 11
383.41194003708205
 21
1688.702468287382
 31
0.0
  0
LINE
  5
239
330
17
100
AcDbEntity
  8
0
100
AcDbLine
 10
383.41194003708205
 20
1688.702468287382
 30
0.0
 11
383.938990193928
 21
1688.687351894985
 31
0.0
  0
LINE
  5
23A
330
17
100
AcDbEntity
  8
0
100
AcDbLine
 10
383.938990193928
 20
1688.687351894985
 30
0.0
 11
384.46569626105844
 21
1688.7116642786325
 31
0.0
  0
LINE
  5
23B
330
17
100
AcDbEntity
  8
0
100
AcDbLine
 10
384.46569626105844
 20
1688.7116642786325
 30
0.0
 11
384.9891126844938
 21
1688.775269473614
 31
0.0
  0
LINE
  5
23C
330
17
100
AcDbEntity
  8
0
100
AcDbLine
 10
384.9891126844938
 20
1688.775269473614
 30
0.0
 11
385.506312307277
 21
1688.8778117738777
 31
0.0
  0
LINE
  5
23D
330
17
100
AcDbEntity
  8
0
100
AcDbLine
 10
385.506312307277
 20
1688.8778117738777
 30
0.0
 11
386.01440273932207
 21
1689.0187177212856
 31
0.0
  0
LINE
  5
23E
330
17
100
AcDbEntity
  8
0
100
AcDbLine
 10
386.01440273932207
 20
1689.0187177212856
 30
0.0
 11
386.5105425328319
 21
1689.197199312624
 31
0.0
  0
LINE
  5
23F
330
17
100
AcDbEntity
  8
0
100
AcDbLine
 10
386.5105425328319
 20
1689.197199312624
 30
0.0
 11
386.9919570728285
 21
1689.412258406433
 31
0.0
  0
LINE
  5
240
330
17
100
AcDbEntity
  8
0
100
AcDbLine
 10
386.9919570728285
 20
1689.412258406433
 30
0.0
 11
387.45595409392456
 21
1689.6626923050271
 31
0.0
  0
LINE
  5
241
330
17
100
AcDbEntity
  8
0
100
AcDbLine
 10
387.45595409392456
 20
1689.6626923050271
 30
0.0
 11
387.8999387365629
 21
1689.9471004804573
 31
0.0
  0
LINE
  5
242
330
17
100
AcDbEntity
  8
0
100
AcDbLine
 10
387.8999387365629
 20
1689.9471004804573
 30
0.0
 11
388.3214280585253
 21
1690.2638924068417
 31
0.0
  0
LINE
  5
243
330
17
100
AcDbEntity
  8
0
100
AcDbLine
 10
388.3214280585253
 20
1690.2638924068417
 30
0.0
 11
388.7180649205517
 21
1690.6112964552244
 31
0.0
  0
LINE
  5
244
330
17
100
AcDbEntity
  8
0
100
AcDbLine
 10
388.7180649205517
 20
1690.6112964552244
 30
0.0
 11
389.08763116841845
 21
1690.9873698012452
 31
0.0
  0
LINE
  5
245
330
17
100
AcDbEntity
  8
0
100
AcDbLine
 10
389.08763116841845
 20
1690.9873698012452
 30
0.0
 11
389.4280600377576
 21
1691.3900092902077
 31
0.0
  0
LINE
  5
246
330
17
100
AcDbEntity
  8
0
100
AcDbLine
 10
389.4280600377576
 20
1691.3900092902077
 30
0.0
 11
389.7374477122407
 21
1691.81696319876
 31
0.0
  0
LINE
  5
247
330
17
100
AcDbEntity
  8
0
100
AcDbLine
 10
389.7374477122407
 20
1691.81696319876
 30
0.0
 11
390.0140639704935
 21
1692.2658438274584
 31
0.0
  0
LINE
  5
248
330
17
100
AcDbEntity
  8
0
100
AcDbLine
 10
390.0140639704935
 20
1692.2658438274584
 30
0.0
 11
390.2563618621934
 21
1692.734140853744
 31
0.0
  0
LINE
  5
249
330
17
100
AcDbEntity
  8
0
100
AcDbLine
 10
390.2563618621934
 20
1692.734140853744
 30
0.0
 11
390.4629863592447
 21
1693.219235370689
 31
0.0
  0
LINE
  5
24A
330
17
100
AcDbEntity
  8
0
100
AcDbLine
 10
390.4629863592447
 20
1693.219235370689
 30
0.0
 11
390.6327819336455
 21
1693.718414532979
 31
0.0
  0
LINE
  5
24B
330
17
100
AcDbEntity
  8
0
100
AcDbLine
 10
390.6327819336455
 20
1693.718414532979
 30
0.0
 11
390.7647990196684
 21
1694.2288867282527
 31
0.0
  0
LINE
  5
24C
330
17
100
AcDbEntity
  8
0
100
AcDbLine
 10
390.7647990196684
 20
1694.2288867282527
 30
0.0
 11
390.85829932421706
 21
1694.7477971889302
 31
0.0
  0
LINE
  5
24D
330
17
100
AcDbEntity
  8
0
100
AcDbLine
 10
390.85829932421706
 20
1694.7477971889302
 30
0.0
 11
390.91275995566104
 21
1695.2722439572233
 31
0.0
  0
LINE
  5
24E
330
17
100
AcDbEntity
  8
0
100
AcDbLine
 10
390.91275995566104
 20
1695.2722439572233
 30
0.0
 11
390.9278763480583
 21
1695.7992941140692
 31
0.0
  0
LINE
  5
24F
330
17
100
AcDbEntity
  8
0
100
AcDbLine
 10
110.36004375452337
 20
1362.6295614633918
 30
0.0
 11
110.33573137087569
 21
1363.1562675305222
 31
0.0
  0
LINE
  5
250
330
17
100
AcDbEntity
  8
0
100
AcDbLine
 10
110.33573137087569
 20
1363.1562675305222
 30
0.0
 11
110.2721261758947
 21
1363.6796839539575
 31
0.0
  0
LINE
  5
251
330
17
100
AcDbEntity
  8
0
100
AcDbLine
 10
110.2721261758947
 20
1363.6796839539575
 30
0.0
 11
110.16958387563098
 21
1364.19688357674
 31
0.0
  0
LINE
  5
252
330
17
100
AcDbEntity
  8
0
100
AcDbLine
 10
110.16958387563098
 20
1364.19688357674
 30
0.0
 11
110.02867792822299
 21
1364.7049740087853
 31
0.0
  0
LINE
  5
253
330
17
100
AcDbEntity
  8
0
100
AcDbLine
 10
110.02867792822299
 20
1364.7049740087853
 30
0.0
 11
109.85019633688522
 21
1365.201113802295
 31
0.0
  0
LINE
  5
254
330
17
100
AcDbEntity
  8
0
100
AcDbLine
 10
109.85019633688522
 20
1365.201113802295
 30
0.0
 11
109.63513724307536
 21
1365.6825283422916
 31
0.0
  0
LINE
  5
255
330
17
100
AcDbEntity
  8
0
100
AcDbLine
 10
109.63513724307536
 20
1365.6825283422916
 30
0.0
 11
109.38470334448196
 21
1366.1465253633874
 31
0.0
  0
LINE
  5
256
330
17
100
AcDbEntity
  8
0
100
AcDbLine
 10
109.38470334448196
 20
1366.1465253633874
 30
0.0
 11
109.10029516905145
 21
1366.5905100060272
 31
0.0
  0
LINE
  5
257
330
17
100
AcDbEntity
  8
0
100
AcDbLine
 10
109.10029516905145
 20
1366.5905100060272
 30
0.0
 11
108.78350324266735
 21
1367.0119993279889
 31
0.0
  0
LINE
  5
258
330
17
100
AcDbEntity
  8
0
100
AcDbLine
 10
108.78350324266735
 20
1367.0119993279889
 30
0.0
 11
108.43609919428488
 21
1367.408636190015
 31
0.0
  0
LINE
  5
259
330
17
100
AcDbEntity
  8
0
100
AcDbLine
 10
108.43609919428488
 20
1367.408636190015
 30
0.0
 11
108.06002584826282
 21
1367.7782024378823
 31
0.0
  0
LINE
  5
25A
330
17
100
AcDbEntity
  8
0
100
AcDbLine
 10
108.06002584826282
 20
1367.7782024378823
 30
0.0
 11
107.6573863593015
 21
1368.1186313072199
 31
0.0
  0
LINE
  5
25B
330
17
100
AcDbEntity
  8
0
100
AcDbLine
 10
107.6573863593015
 20
1368.1186313072199
 30
0.0
 11
107.23043245074889
 21
1368.4280189817039
 31
0.0
  0
LINE
  5
25C
330
17
100
AcDbEntity
  8
0
100
AcDbLine
 10
107.23043245074889
 20
1368.4280189817039
 30
0.0
 11
106.78155182205039
 21
1368.704635239957
 31
0.0
  0
LINE
  5
25D
330
17
100
AcDbEntity
  8
0
100
AcDbLine
 10
106.78155182205039
 20
1368.704635239957
 30
0.0
 11
106.31325479576422
 21
1368.9469331316564
 31
0.0
  0
LINE
  5
25E
330
17
100
AcDbEntity
  8
0
100
AcDbLine
 10
106.31325479576422
 20
1368.9469331316564
 30
0.0
 11
105.82816027882055
 21
1369.153557628708
 31
0.0
  0
LINE
  5
25F
330
17
100
AcDbEntity
  8
0
100
AcDbLine
 10
105.82816027882055
 20
1369.153557628708
 30
0.0
 11
105.32898111653067
 21
1369.3233532031095
 31
0.0
  0
LINE
  5
260
330
17
100
AcDbEntity
  8
0
100
AcDbLine
 10
105.32898111653067
 20
1369.3233532031095
 30
0.0
 11
104.81850892125607
 21
1369.4553702891326
 31
0.0
  0
LINE
  5
261
330
17
100
AcDbEntity
  8
0
100
AcDbLine
 10
104.81850892125607
 20
1369.4553702891326
 30
0.0
 11
104.29959846057908
 21
1369.5488705936796
 31
0.0
  0
LINE
  5
262
330
17
100
AcDbEntity
  8
0
100
AcDbLine
 10
104.29959846057908
 20
1369.5488705936796
 30
0.0
 11
103.77515169228589
 21
1369.6033312251247
 31
0.0
  0
LINE
  5
263
330
17
100
AcDbEntity
  8
0
100
AcDbLine
 10
103.77515169228589
 20
1369.6033312251247
 30
0.0
 11
103.2481015354399
 21
1369.6184476175224
 31
0.0
  0
LINE
  5
264
330
17
100
AcDbEntity
  8
0
100
AcDbLine
 10
103.2481015354399
 20
1369.6184476175224
 30
0.0
 11
102.7213954683095
 21
1369.5941352338746
 31
0.0
  0
LINE
  5
265
330
17
100
AcDbEntity
  8
0
100
AcDbLine
 10
102.7213954683095
 20
1369.5941352338746
 30
0.0
 11
102.19797904487415
 21
1369.5305300388923
 31
0.0
  0
LINE
  5
266
330
17
100
AcDbEntity
  8
0
100
AcDbLine
 10
102.19797904487415
 20
1369.5305300388923
 30
0.0
 11
101.68077942209078
 21
1369.4279877386302
 31
0.0
  0
LINE
  5
267
330
17
100
AcDbEntity
  8
0
100
AcDbLine
 10
101.68077942209078
 20
1369.4279877386302
 30
0.0
 11
101.17268899004576
 21
1369.2870817912217
 31
0.0
  0
LINE
  5
268
330
17
100
AcDbEntity
  8
0
100
AcDbLine
 10
101.17268899004576
 20
1369.2870817912217
 30
0.0
 11
100.67654919653594
 21
1369.1086001998838
 31
0.0
  0
LINE
  5
269
330
17
100
AcDbEntity
  8
0
100
AcDbLine
 10
100.67654919653594
 20
1369.1086001998838
 30
0.0
 11
100.19513465653925
 21
1368.8935411060734
 31
0.0
  0
LINE
  5
26A
330
17
100
AcDbEntity
  8
0
100
AcDbLine
 10
100.19513465653925
 20
1368.8935411060734
 30
0.0
 11
99.7311376354434
 21
1368.6431072074806
 31
0.0
  0
LINE
  5
26B
330
17
100
AcDbEntity
  8
0
100
AcDbLine
 10
99.7311376354434
 20
1368.6431072074806
 30
0.0
 11
99.28715299280493
 21
1368.3586990320493
 31
0.0
  0
LINE
  5
26C
330
17
100
AcDbEntity
  8
0
100
AcDbLine
 10
99.28715299280493
 20
1368.3586990320493
 30
0.0
 11
98.86566367084238
 21
1368.0419071056644
 31
0.0
  0
LINE
  5
26D
330
17
100
AcDbEntity
  8
0
100
AcDbLine
 10
98.86566367084238
 20
1368.0419071056644
 30
0.0
 11
98.4690268088161
 21
1367.6945030572836
 31
0.0
  0
LINE
  5
26E
330
17
100
AcDbEntity
  8
0
100
AcDbLine
 10
98.4690268088161
 20
1367.6945030572836
 30
0.0
 11
98.09946056094938
 21
1367.3184297112612
 31
0.0
  0
LINE
  5
26F
330
17
100
AcDbEntity
  8
0
100
AcDbLine
 10
98.09946056094938
 20
1367.3184297112612
 30
0.0
 11
97.75903169161036
 21
1366.9157902222996
 31
0.0
  0
LINE
  5
270
330
17
100
AcDbEntity
  8
0
100
AcDbLine
 10
97.75903169161036
 20
1366.9157902222996
 30
0.0
 11
97.44964401712703
 21
1366.488836313748
 31
0.0
  0
LINE
  5
271
330
17
100
AcDbEntity
  8
0
100
AcDbLine
 10
97.44964401712703
 20
1366.488836313748
 30
0.0
 11
97.17302775887434
 21
1366.0399556850482
 31
0.0
  0
LINE
  5
272
330
17
100
AcDbEntity
  8
0
100
AcDbLine
 10
97.17302775887434
 20
1366.0399556850482
 30
0.0
 11
96.93072986717455
 21
1365.5716586587623
 31
0.0
  0
LINE
  5
273
330
17
100
AcDbEntity
  8
0
100
AcDbLine
 10
96.93072986717455
 20
1365.5716586587623
 30
0.0
 11
96.72410537012318
 21
1365.0865641418186
 31
0.0
  0
LINE
  5
274
330
17
100
AcDbEntity
  8
0
100
AcDbLine
 10
96.72410537012318
 20
1365.0865641418186
 30
0.0
 11
96.55430979572232
 21
1364.587384979529
 31
0.0
  0
LINE
  5
275
330
17
100
AcDbEntity
  8
0
100
AcDbLine
 10
96.55430979572232
 20
1364.587384979529
 30
0.0
 11
96.42229270969956
 21
1364.0769127842536
 31
0.0
  0
LINE
  5
276
330
17
100
AcDbEntity
  8
0
100
AcDbLine
 10
96.42229270969956
 20
1364.0769127842536
 30
0.0
 11
96.32879240515086
 21
1363.5580023235777
 31
0.0
  0
LINE
  5
277
330
17
100
AcDbEntity
  8
0
100
AcDbLine
 10
96.32879240515086
 20
1363.5580023235777
 30
0.0
 11
96.27433177370676
 21
1363.0335555552847
 31
0.0
  0
LINE
  5
278
330
17
100
AcDbEntity
  8
0
100
AcDbLine
 10
96.27433177370676
 20
1363.0335555552847
 30
0.0
 11
96.25921538130963
 21
1362.5065053984385
 31
0.0
  0
LINE
  5
279
330
17
100
AcDbEntity
  8
0
100
AcDbLine
 10
96.25921538130963
 20
1362.5065053984385
 30
0.0
 11
96.2835277649571
 21
1361.9797993313077
 31
0.0
  0
LINE
  5
27A
330
17
100
AcDbEntity
  8
0
100
AcDbLine
 10
96.2835277649571
 20
1361.9797993313077
 30
0.0
 11
96.34713295993821
 21
1361.456382907873
 31
0.0
  0
LINE
  5
27B
330
17
100
AcDbEntity
  8
0
100
AcDbLine
 10
96.34713295993821
 20
1361.456382907873
 30
0.0
 11
96.44967526020193
 21
1360.9391832850895
 31
0.0
  0
LINE
  5
27C
330
17
100
AcDbEntity
  8
0
100
AcDbLine
 10
96.44967526020193
 20
1360.9391832850895
 30
0.0
 11
96.59058120760992
 21
1360.4310928530451
 31
0.0
  0
LINE
  5
27D
330
17
100
AcDbEntity
  8
0
100
AcDbLine
 10
96.59058120760992
 20
1360.4310928530451
 30
0.0
 11
96.76906279894769
 21
1359.9349530595348
 31
0.0
  0
LINE
  5
27E
330
17
100
AcDbEntity
  8
0
100
AcDbLine
 10
96.76906279894769
 20
1359.9349530595348
 30
0.0
 11
96.98412189275754
 21
1359.4535385195375
 31
0.0
  0
LINE
  5
27F
330
17
100
AcDbEntity
  8
0
100
AcDbLine
 10
96.98412189275754
 20
1359.4535385195375
 30
0.0
 11
97.23455579135094
 21
1358.9895414984414
 31
0.0
  0
LINE
  5
280
330
17
100
AcDbEntity
  8
0
100
AcDbLine
 10
97.23455579135094
 20
1358.9895414984414
 30
0.0
 11
97.51896396678156
 21
1358.5455568558032
 31
0.0
  0
LINE
  5
281
330
17
100
AcDbEntity
  8
0
100
AcDbLine
 10
97.51896396678156
 20
1358.5455568558032
 30
0.0
 11
97.83575589316555
 21
1358.1240675338413
 31
0.0
  0
LINE
  5
282
330
17
100
AcDbEntity
  8
0
100
AcDbLine
 10
97.83575589316555
 20
1358.1240675338413
 30
0.0
 11
98.18315994154793
 21
1357.7274306718139
 31
0.0
  0
LINE
  5
283
330
17
100
AcDbEntity
  8
0
100
AcDbLine
 10
98.18315994154793
 20
1357.7274306718139
 30
0.0
 11
98.55923328757007
 21
1357.357864423948
 31
0.0
  0
LINE
  5
284
330
17
100
AcDbEntity
  8
0
100
AcDbLine
 10
98.55923328757007
 20
1357.357864423948
 30
0.0
 11
98.96187277653142
 21
1357.0174355546087
 31
0.0
  0
LINE
  5
285
330
17
100
AcDbEntity
  8
0
100
AcDbLine
 10
98.96187277653142
 20
1357.0174355546087
 30
0.0
 11
99.38882668508403
 21
1356.7080478801247
 31
0.0
  0
LINE
  5
286
330
17
100
AcDbEntity
  8
0
100
AcDbLine
 10
99.38882668508403
 20
1356.7080478801247
 30
0.0
 11
99.83770731378263
 21
1356.4314316218727
 31
0.0
  0
LINE
  5
287
330
17
100
AcDbEntity
  8
0
100
AcDbLine
 10
99.83770731378263
 20
1356.4314316218727
 30
0.0
 11
100.30600434006868
 21
1356.1891337301727
 31
0.0
  0
LINE
  5
288
330
17
100
AcDbEntity
  8
0
100
AcDbLine
 10
100.30600434006868
 20
1356.1891337301727
 30
0.0
 11
100.79109885701236
 21
1355.9825092331212
 31
0.0
  0
LINE
  5
289
330
17
100
AcDbEntity
  8
0
100
AcDbLine
 10
100.79109885701236
 20
1355.9825092331212
 30
0.0
 11
101.29027801930211
 21
1355.8127136587204
 31
0.0
  0
LINE
  5
28A
330
17
100
AcDbEntity
  8
0
100
AcDbLine
 10
101.29027801930211
 20
1355.8127136587204
 30
0.0
 11
101.80075021457695
 21
1355.6806965726973
 31
0.0
  0
LINE
  5
28B
330
17
100
AcDbEntity
  8
0
100
AcDbLine
 10
101.80075021457695
 20
1355.6806965726973
 30
0.0
 11
102.31966067525384
 21
1355.5871962681488
 31
0.0
  0
LINE
  5
28C
330
17
100
AcDbEntity
  8
0
100
AcDbLine
 10
102.31966067525384
 20
1355.5871962681488
 30
0.0
 11
102.84410744354702
 21
1355.5327356367045
 31
0.0
  0
LINE
  5
28D
330
17
100
AcDbEntity
  8
0
100
AcDbLine
 10
102.84410744354702
 20
1355.5327356367045
 30
0.0
 11
103.37115760039312
 21
1355.5176192443078
 31
0.0
  0
LINE
  5
28E
330
17
100
AcDbEntity
  8
0
100
AcDbLine
 10
103.37115760039312
 20
1355.5176192443078
 30
0.0
 11
103.89786366752341
 21
1355.541931627955
 31
0.0
  0
LINE
  5
28F
330
17
100
AcDbEntity
  8
0
100
AcDbLine
 10
103.89786366752341
 20
1355.541931627955
 30
0.0
 11
104.42128009095877
 21
1355.6055368229363
 31
0.0
  0
LINE
  5
290
330
17
100
AcDbEntity
  8
0
100
AcDbLine
 10
104.42128009095877
 20
1355.6055368229363
 30
0.0
 11
104.93847971374224
 21
1355.7080791231997
 31
0.0
  0
LINE
  5
291
330
17
100
AcDbEntity
  8
0
100
AcDbLine
 10
104.93847971374224
 20
1355.7080791231997
 30
0.0
 11
105.44657014578702
 21
1355.8489850706083
 31
0.0
  0
LINE
  5
292
330
17
100
AcDbEntity
  8
0
100
AcDbLine
 10
105.44657014578702
 20
1355.8489850706083
 30
0.0
 11
105.94270993929696
 21
1356.0274666619457
 31
0.0
  0
LINE
  5
293
330
17
100
AcDbEntity
  8
0
100
AcDbLine
 10
105.94270993929696
 20
1356.0274666619457
 30
0.0
 11
106.42412447929365
 21
1356.2425257557557
 31
0.0
  0
LINE
  5
294
330
17
100
AcDbEntity
  8
0
100
AcDbLine
 10
106.42412447929365
 20
1356.2425257557557
 30
0.0
 11
106.88812150038962
 21
1356.4929596543493
 31
0.0
  0
LINE
  5
295
330
17
100
AcDbEntity
  8
0
100
AcDbLine
 10
106.88812150038962
 20
1356.4929596543493
 30
0.0
 11
107.33210614302799
 21
1356.7773678297792
 31
0.0
  0
LINE
  5
296
330
17
100
AcDbEntity
  8
0
100
AcDbLine
 10
107.33210614302799
 20
1356.7773678297792
 30
0.0
 11
107.75359546499054
 21
1357.0941597561641
 31
0.0
  0
LINE
  5
297
330
17
100
AcDbEntity
  8
0
100
AcDbLine
 10
107.75359546499054
 20
1357.0941597561641
 30
0.0
 11
108.1502323270168
 21
1357.4415638045466
 31
0.0
  0
LINE
  5
298
330
17
100
AcDbEntity
  8
0
100
AcDbLine
 10
108.1502323270168
 20
1357.4415638045466
 30
0.0
 11
108.51979857488342
 21
1357.8176371505679
 31
0.0
  0
LINE
  5
299
330
17
100
AcDbEntity
  8
0
100
AcDbLine
 10
108.51979857488342
 20
1357.8176371505679
 30
0.0
 11
108.86022744422255
 21
1358.2202766395305
 31
0.0
  0
LINE
  5
29A
330
17
100
AcDbEntity
  8
0
100
AcDbLine
 10
108.86022744422255
 20
1358.2202766395305
 30
0.0
 11
109.16961511870598
 21
1358.6472305480825
 31
0.0
  0
LINE
  5
29B
330
17
100
AcDbEntity
  8
0
100
AcDbLine
 10
109.16961511870598
 20
1358.6472305480825
 30
0.0
 11
109.44623137695856
 21
1359.0961111767808
 31
0.0
  0
LINE
  5
29C
330
17
100
AcDbEntity
  8
0
100
AcDbLine
 10
109.44623137695856
 20
1359.0961111767808
 30
0.0
 11
109.68852926865836
 21
1359.5644082030667
 31
0.0
  0
LINE
  5
29D
330
17
100
AcDbEntity
  8
0
100
AcDbLine
 10
109.68852926865836
 20
1359.5644082030667
 30
0.0
 11
109.89515376570972
 21
1360.0495027200113
 31
0.0
  0
LINE
  5
29E
330
17
100
AcDbEntity
  8
0
100
AcDbLine
 10
109.89515376570972
 20
1360.0495027200113
 30
0.0
 11
110.06494934011059
 21
1360.5486818823013
 31
0.0
  0
LINE
  5
29F
330
17
100
AcDbEntity
  8
0
100
AcDbLine
 10
110.06494934011059
 20
1360.5486818823013
 30
0.0
 11
110.19696642613334
 21
1361.0591540775756
 31
0.0
  0
LINE
  5
2A0
330
17
100
AcDbEntity
  8
0
100
AcDbLine
 10
110.19696642613334
 20
1361.0591540775756
 30
0.0
 11
110.29046673068204
 21
1361.5780645382524
 31
0.0
  0
LINE
  5
2A1
330
17
100
AcDbEntity
  8
0
100
AcDbLine
 10
110.29046673068204
 20
1361.5780645382524
 30
0.0
 11
110.34492736212603
 21
1362.1025113065452
 31
0.0
  0
LINE
  5
2A2
330
17
100
AcDbEntity
  8
0
100
AcDbLine
 10
110.34492736212603
 20
1362.1025113065452
 30
0.0
 11
110.36004375452337
 21
1362.6295614633918
 31
0.0
  0
LINE
  5
2A3
330
17
100
AcDbEntity
  8
0
100
AcDbLine
 10
1540.7884505256188
 20
273.10225593465975
 30
0.0
 11
1540.7641381419714
 21
273.62896200179034
 31
0.0
  0
LINE
  5
2A4
330
17
100
AcDbEntity
  8
0
100
AcDbLine
 10
1540.7641381419714
 20
273.62896200179034
 30
0.0
 11
1540.7005329469903
 21
274.1523784252256
 31
0.0
  0
LINE
  5
2A5
330
17
100
AcDbEntity
  8
0
100
AcDbLine
 10
1540.7005329469903
 20
274.1523784252256
 30
0.0
 11
1540.5979906467267
 21
274.66957804800904
 31
0.0
  0
LINE
  5
2A6
330
17
100
AcDbEntity
  8
0
100
AcDbLine
 10
1540.5979906467267
 20
274.66957804800904
 30
0.0
 11
1540.4570846993188
 21
275.1776684800543
 31
0.0
  0
LINE
  5
2A7
330
17
100
AcDbEntity
  8
0
100
AcDbLine
 10
1540.4570846993188
 20
275.1776684800543
 30
0.0
 11
1540.2786031079816
 21
275.6738082735636
 31
0.0
  0
LINE
  5
2A8
330
17
100
AcDbEntity
  8
0
100
AcDbLine
 10
1540.2786031079816
 20
275.6738082735636
 30
0.0
 11
1540.063544014171
 21
276.1552228135605
 31
0.0
  0
LINE
  5
2A9
330
17
100
AcDbEntity
  8
0
100
AcDbLine
 10
1540.063544014171
 20
276.1552228135605
 30
0.0
 11
1539.8131101155773
 21
276.6192198346564
 31
0.0
  0
LINE
  5
2AA
330
17
100
AcDbEntity
  8
0
100
AcDbLine
 10
1539.8131101155773
 20
276.6192198346564
 30
0.0
 11
1539.528701940147
 21
277.0632044772947
 31
0.0
  0
LINE
  5
2AB
330
17
100
AcDbEntity
  8
0
100
AcDbLine
 10
1539.528701940147
 20
277.0632044772947
 30
0.0
 11
1539.2119100137638
 21
277.48469379925746
 31
0.0
  0
LINE
  5
2AC
330
17
100
AcDbEntity
  8
0
100
AcDbLine
 10
1539.2119100137638
 20
277.48469379925746
 30
0.0
 11
1538.864505965381
 21
277.88133066128364
 31
0.0
  0
LINE
  5
2AD
330
17
100
AcDbEntity
  8
0
100
AcDbLine
 10
1538.864505965381
 20
277.88133066128364
 30
0.0
 11
1538.4884326193587
 21
278.25089690915036
 31
0.0
  0
LINE
  5
2AE
330
17
100
AcDbEntity
  8
0
100
AcDbLine
 10
1538.4884326193587
 20
278.25089690915036
 30
0.0
 11
1538.0857931303972
 21
278.5913257784896
 31
0.0
  0
LINE
  5
2AF
330
17
100
AcDbEntity
  8
0
100
AcDbLine
 10
1538.0857931303972
 20
278.5913257784896
 30
0.0
 11
1537.6588392218443
 21
278.9007134529729
 31
0.0
  0
LINE
  5
2B0
330
17
100
AcDbEntity
  8
0
100
AcDbLine
 10
1537.6588392218443
 20
278.9007134529729
 30
0.0
 11
1537.2099585931455
 21
279.17732971122575
 31
0.0
  0
LINE
  5
2B1
330
17
100
AcDbEntity
  8
0
100
AcDbLine
 10
1537.2099585931455
 20
279.17732971122575
 30
0.0
 11
1536.7416615668596
 21
279.4196276029254
 31
0.0
  0
LINE
  5
2B2
330
17
100
AcDbEntity
  8
0
100
AcDbLine
 10
1536.7416615668596
 20
279.4196276029254
 30
0.0
 11
1536.2565670499164
 21
279.6262520999768
 31
0.0
  0
LINE
  5
2B3
330
17
100
AcDbEntity
  8
0
100
AcDbLine
 10
1536.2565670499164
 20
279.6262520999768
 30
0.0
 11
1535.7573878876265
 21
279.7960476743774
 31
0.0
  0
LINE
  5
2B4
330
17
100
AcDbEntity
  8
0
100
AcDbLine
 10
1535.7573878876265
 20
279.7960476743774
 30
0.0
 11
1535.2469156923514
 21
279.9280647604003
 31
0.0
  0
LINE
  5
2B5
330
17
100
AcDbEntity
  8
0
100
AcDbLine
 10
1535.2469156923514
 20
279.9280647604003
 30
0.0
 11
1534.728005231675
 21
280.02156506494873
 31
0.0
  0
LINE
  5
2B6
330
17
100
AcDbEntity
  8
0
100
AcDbLine
 10
1534.728005231675
 20
280.02156506494873
 30
0.0
 11
1534.203558463381
 21
280.076025696393
 31
0.0
  0
LINE
  5
2B7
330
17
100
AcDbEntity
  8
0
100
AcDbLine
 10
1534.203558463381
 20
280.076025696393
 30
0.0
 11
1533.6765083065357
 21
280.09114208879043
 31
0.0
  0
LINE
  5
2B8
330
17
100
AcDbEntity
  8
0
100
AcDbLine
 10
1533.6765083065357
 20
280.09114208879043
 30
0.0
 11
1533.1498022394055
 21
280.0668297051426
 31
0.0
  0
LINE
  5
2B9
330
17
100
AcDbEntity
  8
0
100
AcDbLine
 10
1533.1498022394055
 20
280.0668297051426
 30
0.0
 11
1532.6263858159705
 21
280.00322451016143
 31
0.0
  0
LINE
  5
2BA
330
17
100
AcDbEntity
  8
0
100
AcDbLine
 10
1532.6263858159705
 20
280.00322451016143
 30
0.0
 11
1532.1091861931864
 21
279.9006822098979
 31
0.0
  0
LINE
  5
2BB
330
17
100
AcDbEntity
  8
0
100
AcDbLine
 10
1532.1091861931864
 20
279.9006822098979
 30
0.0
 11
1531.601095761141
 21
279.7597762624898
 31
0.0
  0
LINE
  5
2BC
330
17
100
AcDbEntity
  8
0
100
AcDbLine
 10
1531.601095761141
 20
279.7597762624898
 30
0.0
 11
1531.1049559676323
 21
279.58129467115225
 31
0.0
  0
LINE
  5
2BD
330
17
100
AcDbEntity
  8
0
100
AcDbLine
 10
1531.1049559676323
 20
279.58129467115225
 30
0.0
 11
1530.6235414276348
 21
279.3662355773424
 31
0.0
  0
LINE
  5
2BE
330
17
100
AcDbEntity
  8
0
100
AcDbLine
 10
1530.6235414276348
 20
279.3662355773424
 30
0.0
 11
1530.1595444065392
 21
279.1158016787491
 31
0.0
  0
LINE
  5
2BF
330
17
100
AcDbEntity
  8
0
100
AcDbLine
 10
1530.1595444065392
 20
279.1158016787491
 30
0.0
 11
1529.7155597639007
 21
278.8313935033184
 31
0.0
  0
LINE
  5
2C0
330
17
100
AcDbEntity
  8
0
100
AcDbLine
 10
1529.7155597639007
 20
278.8313935033184
 30
0.0
 11
1529.2940704419377
 21
278.5146015769344
 31
0.0
  0
LINE
  5
2C1
330
17
100
AcDbEntity
  8
0
100
AcDbLine
 10
1529.2940704419377
 20
278.5146015769344
 30
0.0
 11
1528.8974335799116
 21
278.1671975285518
 31
0.0
  0
LINE
  5
2C2
330
17
100
AcDbEntity
  8
0
100
AcDbLine
 10
1528.8974335799116
 20
278.1671975285518
 30
0.0
 11
1528.5278673320454
 21
277.79112418252964
 31
0.0
  0
LINE
  5
2C3
330
17
100
AcDbEntity
  8
0
100
AcDbLine
 10
1528.5278673320454
 20
277.79112418252964
 30
0.0
 11
1528.1874384627063
 21
277.38848469356844
 31
0.0
  0
LINE
  5
2C4
330
17
100
AcDbEntity
  8
0
100
AcDbLine
 10
1528.1874384627063
 20
277.38848469356844
 30
0.0
 11
1527.8780507882225
 21
276.9615307850156
 31
0.0
  0
LINE
  5
2C5
330
17
100
AcDbEntity
  8
0
100
AcDbLine
 10
1527.8780507882225
 20
276.9615307850156
 30
0.0
 11
1527.6014345299702
 21
276.51265015631725
 31
0.0
  0
LINE
  5
2C6
330
17
100
AcDbEntity
  8
0
100
AcDbLine
 10
1527.6014345299702
 20
276.51265015631725
 30
0.0
 11
1527.3591366382698
 21
276.04435313003125
 31
0.0
  0
LINE
  5
2C7
330
17
100
AcDbEntity
  8
0
100
AcDbLine
 10
1527.3591366382698
 20
276.04435313003125
 30
0.0
 11
1527.1525121412192
 21
275.5592586130871
 31
0.0
  0
LINE
  5
2C8
330
17
100
AcDbEntity
  8
0
100
AcDbLine
 10
1527.1525121412192
 20
275.5592586130871
 30
0.0
 11
1526.982716566818
 21
275.06007945079796
 31
0.0
  0
LINE
  5
2C9
330
17
100
AcDbEntity
  8
0
100
AcDbLine
 10
1526.982716566818
 20
275.06007945079796
 30
0.0
 11
1526.8506994807951
 21
274.5496072555229
 31
0.0
  0
LINE
  5
2CA
330
17
100
AcDbEntity
  8
0
100
AcDbLine
 10
1526.8506994807951
 20
274.5496072555229
 30
0.0
 11
1526.7571991762466
 21
274.0306967948459
 31
0.0
  0
LINE
  5
2CB
330
17
100
AcDbEntity
  8
0
100
AcDbLine
 10
1526.7571991762466
 20
274.0306967948459
 30
0.0
 11
1526.7027385448023
 21
273.50625002655283
 31
0.0
  0
LINE
  5
2CC
330
17
100
AcDbEntity
  8
0
100
AcDbLine
 10
1526.7027385448023
 20
273.50625002655283
 30
0.0
 11
1526.6876221524053
 21
272.9791998697067
 31
0.0
  0
LINE
  5
2CD
330
17
100
AcDbEntity
  8
0
100
AcDbLine
 10
1526.6876221524053
 20
272.9791998697067
 30
0.0
 11
1526.7119345360527
 21
272.4524938025763
 31
0.0
  0
LINE
  5
2CE
330
17
100
AcDbEntity
  8
0
100
AcDbLine
 10
1526.7119345360527
 20
272.4524938025763
 30
0.0
 11
1526.7755397310339
 21
271.92907737914095
 31
0.0
  0
LINE
  5
2CF
330
17
100
AcDbEntity
  8
0
100
AcDbLine
 10
1526.7755397310339
 20
271.92907737914095
 30
0.0
 11
1526.8780820312975
 21
271.4118777563581
 31
0.0
  0
LINE
  5
2D0
330
17
100
AcDbEntity
  8
0
100
AcDbLine
 10
1526.8780820312975
 20
271.4118777563581
 30
0.0
 11
1527.0189879787056
 21
270.9037873243127
 31
0.0
  0
LINE
  5
2D1
330
17
100
AcDbEntity
  8
0
100
AcDbLine
 10
1527.0189879787056
 20
270.9037873243127
 30
0.0
 11
1527.1974695700437
 21
270.4076475308028
 31
0.0
  0
LINE
  5
2D2
330
17
100
AcDbEntity
  8
0
100
AcDbLine
 10
1527.1974695700437
 20
270.4076475308028
 30
0.0
 11
1527.4125286638528
 21
269.9262329908065
 31
0.0
  0
LINE
  5
2D3
330
17
100
AcDbEntity
  8
0
100
AcDbLine
 10
1527.4125286638528
 20
269.9262329908065
 30
0.0
 11
1527.6629625624469
 21
269.46223596971015
 31
0.0
  0
LINE
  5
2D4
330
17
100
AcDbEntity
  8
0
100
AcDbLine
 10
1527.6629625624469
 20
269.46223596971015
 30
0.0
 11
1527.947370737877
 21
269.01825132707177
 31
0.0
  0
LINE
  5
2D5
330
17
100
AcDbEntity
  8
0
100
AcDbLine
 10
1527.947370737877
 20
269.01825132707177
 30
0.0
 11
1528.2641626642614
 21
268.5967620051092
 31
0.0
  0
LINE
  5
2D6
330
17
100
AcDbEntity
  8
0
100
AcDbLine
 10
1528.2641626642614
 20
268.5967620051092
 30
0.0
 11
1528.611566712644
 21
268.20012514308326
 31
0.0
  0
LINE
  5
2D7
330
17
100
AcDbEntity
  8
0
100
AcDbLine
 10
1528.611566712644
 20
268.20012514308326
 30
0.0
 11
1528.9876400586656
 21
267.83055889521665
 31
0.0
  0
LINE
  5
2D8
330
17
100
AcDbEntity
  8
0
100
AcDbLine
 10
1528.9876400586656
 20
267.83055889521665
 30
0.0
 11
1529.3902795476267
 21
267.4901300258773
 31
0.0
  0
LINE
  5
2D9
330
17
100
AcDbEntity
  8
0
100
AcDbLine
 10
1529.3902795476267
 20
267.4901300258773
 30
0.0
 11
1529.8172334561798
 21
267.18074235139375
 31
0.0
  0
LINE
  5
2DA
330
17
100
AcDbEntity
  8
0
100
AcDbLine
 10
1529.8172334561798
 20
267.18074235139375
 30
0.0
 11
1530.2661140848784
 21
266.90412609314114
 31
0.0
  0
LINE
  5
2DB
330
17
100
AcDbEntity
  8
0
100
AcDbLine
 10
1530.2661140848784
 20
266.90412609314114
 30
0.0
 11
1530.7344111111643
 21
266.6618282014417
 31
0.0
  0
LINE
  5
2DC
330
17
100
AcDbEntity
  8
0
100
AcDbLine
 10
1530.7344111111643
 20
266.6618282014417
 30
0.0
 11
1531.2195056281087
 21
266.4552037043899
 31
0.0
  0
LINE
  5
2DD
330
17
100
AcDbEntity
  8
0
100
AcDbLine
 10
1531.2195056281087
 20
266.4552037043899
 30
0.0
 11
1531.7186847903974
 21
266.28540812998904
 31
0.0
  0
LINE
  5
2DE
330
17
100
AcDbEntity
  8
0
100
AcDbLine
 10
1531.7186847903974
 20
266.28540812998904
 30
0.0
 11
1532.2291569856725
 21
266.1533910439664
 31
0.0
  0
LINE
  5
2DF
330
17
100
AcDbEntity
  8
0
100
AcDbLine
 10
1532.2291569856725
 20
266.1533910439664
 30
0.0
 11
1532.7480674463502
 21
266.05989073941794
 31
0.0
  0
LINE
  5
2E0
330
17
100
AcDbEntity
  8
0
100
AcDbLine
 10
1532.7480674463502
 20
266.05989073941794
 30
0.0
 11
1533.272514214643
 21
266.00543010797355
 31
0.0
  0
LINE
  5
2E1
330
17
100
AcDbEntity
  8
0
100
AcDbLine
 10
1533.272514214643
 20
266.00543010797355
 30
0.0
 11
1533.799564371489
 21
265.99031371557624
 31
0.0
  0
LINE
  5
2E2
330
17
100
AcDbEntity
  8
0
100
AcDbLine
 10
1533.799564371489
 20
265.99031371557624
 30
0.0
 11
1534.3262704386184
 21
266.01462609922396
 31
0.0
  0
LINE
  5
2E3
330
17
100
AcDbEntity
  8
0
100
AcDbLine
 10
1534.3262704386184
 20
266.01462609922396
 30
0.0
 11
1534.8496868620548
 21
266.07823129420524
 31
0.0
  0
LINE
  5
2E4
330
17
100
AcDbEntity
  8
0
100
AcDbLine
 10
1534.8496868620548
 20
266.07823129420524
 30
0.0
 11
1535.3668864848376
 21
266.18077359446875
 31
0.0
  0
LINE
  5
2E5
330
17
100
AcDbEntity
  8
0
100
AcDbLine
 10
1535.3668864848376
 20
266.18077359446875
 30
0.0
 11
1535.8749769168828
 21
266.3216795418766
 31
0.0
  0
LINE
  5
2E6
330
17
100
AcDbEntity
  8
0
100
AcDbLine
 10
1535.8749769168828
 20
266.3216795418766
 30
0.0
 11
1536.3711167103927
 21
266.5001611332144
 31
0.0
  0
LINE
  5
2E7
330
17
100
AcDbEntity
  8
0
100
AcDbLine
 10
1536.3711167103927
 20
266.5001611332144
 30
0.0
 11
1536.8525312503891
 21
266.7152202270247
 31
0.0
  0
LINE
  5
2E8
330
17
100
AcDbEntity
  8
0
100
AcDbLine
 10
1536.8525312503891
 20
266.7152202270247
 30
0.0
 11
1537.3165282714847
 21
266.9656541256178
 31
0.0
  0
LINE
  5
2E9
330
17
100
AcDbEntity
  8
0
100
AcDbLine
 10
1537.3165282714847
 20
266.9656541256178
 30
0.0
 11
1537.7605129141234
 21
267.2500623010483
 31
0.0
  0
LINE
  5
2EA
330
17
100
AcDbEntity
  8
0
100
AcDbLine
 10
1537.7605129141234
 20
267.2500623010483
 30
0.0
 11
1538.1820022360862
 21
267.5668542274325
 31
0.0
  0
LINE
  5
2EB
330
17
100
AcDbEntity
  8
0
100
AcDbLine
 10
1538.1820022360862
 20
267.5668542274325
 30
0.0
 11
1538.5786390981127
 21
267.91425827581475
 31
0.0
  0
LINE
  5
2EC
330
17
100
AcDbEntity
  8
0
100
AcDbLine
 10
1538.5786390981127
 20
267.91425827581475
 30
0.0
 11
1538.9482053459797
 21
268.29033162183725
 31
0.0
  0
LINE
  5
2ED
330
17
100
AcDbEntity
  8
0
100
AcDbLine
 10
1538.9482053459797
 20
268.29033162183725
 30
0.0
 11
1539.288634215319
 21
268.6929711107982
 31
0.0
  0
LINE
  5
2EE
330
17
100
AcDbEntity
  8
0
100
AcDbLine
 10
1539.288634215319
 20
268.6929711107982
 30
0.0
 11
1539.5980218898014
 21
269.11992501935083
 31
0.0
  0
LINE
  5
2EF
330
17
100
AcDbEntity
  8
0
100
AcDbLine
 10
1539.5980218898014
 20
269.11992501935083
 30
0.0
 11
1539.874638148054
 21
269.5688056480493
 31
0.0
  0
LINE
  5
2F0
330
17
100
AcDbEntity
  8
0
100
AcDbLine
 10
1539.874638148054
 20
269.5688056480493
 30
0.0
 11
1540.116936039754
 21
270.03710267433576
 31
0.0
  0
LINE
  5
2F1
330
17
100
AcDbEntity
  8
0
100
AcDbLine
 10
1540.116936039754
 20
270.03710267433576
 30
0.0
 11
1540.323560536806
 21
270.52219719127936
 31
0.0
  0
LINE
  5
2F2
330
17
100
AcDbEntity
  8
0
100
AcDbLine
 10
1540.323560536806
 20
270.52219719127936
 30
0.0
 11
1540.4933561112064
 21
271.02137635356905
 31
0.0
  0
LINE
  5
2F3
330
17
100
AcDbEntity
  8
0
100
AcDbLine
 10
1540.4933561112064
 20
271.02137635356905
 30
0.0
 11
1540.625373197229
 21
271.5318485488442
 31
0.0
  0
LINE
  5
2F4
330
17
100
AcDbEntity
  8
0
100
AcDbLine
 10
1540.625373197229
 20
271.5318485488442
 30
0.0
 11
1540.7188735017776
 21
272.0507590095207
 31
0.0
  0
LINE
  5
2F5
330
17
100
AcDbEntity
  8
0
100
AcDbLine
 10
1540.7188735017776
 20
272.0507590095207
 30
0.0
 11
1540.7733341332219
 21
272.57520577781384
 31
0.0
  0
LINE
  5
2F6
330
17
100
AcDbEntity
  8
0
100
AcDbLine
 10
1540.7733341332219
 20
272.57520577781384
 30
0.0
 11
1540.7884505256188
 21
273.10225593465975
 31
0.0
  0
LINE
  5
2F7
330
17
100
AcDbEntity
  8
0
100
AcDbLine
 10
998.591371894507
 20
602.4703696501933
 30
0.0
 11
1000.0573256859293
 21
601.0571245391608
 31
0.0
  0
LINE
  5
2F8
330
17
100
AcDbEntity
  8
0
100
AcDbLine
 10
1000.0573256859293
 20
601.0571245391608
 30
0.0
 11
1001.5500810587495
 21
599.6722188891752
 31
0.0
  0
LINE
  5
2F9
330
17
100
AcDbEntity
  8
0
100
AcDbLine
 10
1001.5500810587495
 20
599.6722188891752
 30
0.0
 11
1003.0690902566276
 21
598.3161608818593
 31
0.0
  0
LINE
  5
2FA
330
17
100
AcDbEntity
  8
0
100
AcDbLine
 10
1003.0690902566276
 20
598.3161608818593
 30
0.0
 11
1004.6137958895654
 21
596.9894481133915
 31
0.0
  0
LINE
  5
2FB
330
17
100
AcDbEntity
  8
0
100
AcDbLine
 10
1004.6137958895654
 20
596.9894481133915
 30
0.0
 11
1006.183631138433
 21
595.6925674119173
 31
0.0
  0
LINE
  5
2FC
330
17
100
AcDbEntity
  8
0
100
AcDbLine
 10
1006.183631138433
 20
595.6925674119173
 30
0.0
 11
1007.7780199629601
 21
594.4259946589076
 31
0.0
  0
LINE
  5
2FD
330
17
100
AcDbEntity
  8
0
100
AcDbLine
 10
1007.7780199629601
 20
594.4259946589076
 30
0.0
 11
1009.3963773131113
 21
593.1901946145412
 31
0.0
  0
LINE
  5
2FE
330
17
100
AcDbEntity
  8
0
100
AcDbLine
 10
1009.3963773131113
 20
593.1901946145412
 30
0.0
 11
1011.0381093437642
 21
591.985620747162
 31
0.0
  0
LINE
  5
2FF
330
17
100
AcDbEntity
  8
0
100
AcDbLine
 10
1011.0381093437642
 20
591.985620747162
 30
0.0
 11
1012.7026136326186
 21
590.8127150668839
 31
0.0
  0
LINE
  5
300
330
17
100
AcDbEntity
  8
0
100
AcDbLine
 10
1012.7026136326186
 20
590.8127150668839
 30
0.0
 11
1014.3892794012503
 21
589.6719079633947
 31
0.0
  0
LINE
  5
301
330
17
100
AcDbEntity
  8
0
100
AcDbLine
 10
1014.3892794012503
 20
589.6719079633947
 30
0.0
 11
1016.0974877392317
 21
588.5636180480321
 31
0.0
  0
LINE
  5
302
330
17
100
AcDbEntity
  8
0
100
AcDbLine
 10
1016.0974877392317
 20
588.5636180480321
 30
0.0
 11
1017.826611831238
 21
587.4882520001735
 31
0.0
  0
LINE
  5
303
330
17
100
AcDbEntity
  8
0
100
AcDbLine
 10
1017.826611831238
 20
587.4882520001735
 30
0.0
 11
1019.5760171870512
 21
586.446204418009
 31
0.0
  0
LINE
  5
304
330
17
100
AcDbEntity
  8
0
100
AcDbLine
 10
1019.5760171870512
 20
586.446204418009
 30
0.0
 11
1021.345061874384
 21
585.4378576737461
 31
0.0
  0
LINE
  5
305
330
17
100
AcDbEntity
  8
0
100
AcDbLine
 10
1021.345061874384
 20
585.4378576737461
 30
0.0
 11
1023.1330967544295
 21
584.4635817733026
 31
0.0
  0
LINE
  5
306
330
17
100
AcDbEntity
  8
0
100
AcDbLine
 10
1023.1330967544295
 20
584.4635817733026
 30
0.0
 11
1024.9394657200612
 21
583.5237342205332
 31
0.0
  0
LINE
  5
307
330
17
100
AcDbEntity
  8
0
100
AcDbLine
 10
1024.9394657200612
 20
583.5237342205332
 30
0.0
 11
1026.763505936585
 21
582.6186598860461
 31
0.0
  0
LINE
  5
308
330
17
100
AcDbEntity
  8
0
100
AcDbLine
 10
1026.763505936585
 20
582.6186598860461
 30
0.0
 11
1028.6045480849637
 21
581.7486908806568
 31
0.0
  0
LINE
  5
309
330
17
100
AcDbEntity
  8
0
100
AcDbLine
 10
1028.6045480849637
 20
581.7486908806568
 30
0.0
 11
1030.4619166074165
 21
580.91414643352
 31
0.0
  0
LINE
  5
30A
330
17
100
AcDbEntity
  8
0
100
AcDbLine
 10
1030.4619166074165
 20
580.91414643352
 30
0.0
 11
1032.3349299553117
 21
580.1153327749935
 31
0.0
  0
LINE
  5
30B
330
17
100
AcDbEntity
  8
0
100
AcDbLine
 10
1032.3349299553117
 20
580.1153327749935
 30
0.0
 11
1034.222900839258
 21
579.352543024266
 31
0.0
  0
LINE
  5
30C
330
17
100
AcDbEntity
  8
0
100
AcDbLine
 10
1034.222900839258
 20
579.352543024266
 30
0.0
 11
1036.1251364812977
 21
578.6260570818012
 31
0.0
  0
LINE
  5
30D
330
17
100
AcDbEntity
  8
0
100
AcDbLine
 10
1036.1251364812977
 20
578.6260570818012
 30
0.0
 11
1038.0409388691176
 21
577.9361415266292
 31
0.0
  0
LINE
  5
30E
330
17
100
AcDbEntity
  8
0
100
AcDbLine
 10
1038.0409388691176
 20
577.9361415266292
 30
0.0
 11
1039.9696050121806
 21
577.2830495185284
 31
0.0
  0
LINE
  5
30F
330
17
100
AcDbEntity
  8
0
100
AcDbLine
 10
1039.9696050121806
 20
577.2830495185284
 30
0.0
 11
1041.9104271996837
 21
576.6670207051276
 31
0.0
  0
LINE
  5
310
330
17
100
AcDbEntity
  8
0
100
AcDbLine
 10
1041.9104271996837
 20
576.6670207051276
 30
0.0
 11
1043.862693260246
 21
576.0882811339725
 31
0.0
  0
LINE
  5
311
330
17
100
AcDbEntity
  8
0
100
AcDbLine
 10
1043.862693260246
 20
576.0882811339725
 30
0.0
 11
1045.8256868232359
 21
575.5470431695758
 31
0.0
  0
LINE
  5
312
330
17
100
AcDbEntity
  8
0
100
AcDbLine
 10
1045.8256868232359
 20
575.5470431695758
 30
0.0
 11
1047.798687581639
 21
575.0435054154942
 31
0.0
  0
LINE
  5
313
330
17
100
AcDbEntity
  8
0
100
AcDbLine
 10
1047.798687581639
 20
575.0435054154942
 30
0.0
 11
1049.7809715563685
 21
574.5778526414504
 31
0.0
  0
LINE
  5
314
330
17
100
AcDbEntity
  8
0
100
AcDbLine
 10
1049.7809715563685
 20
574.5778526414504
 30
0.0
 11
1051.7718113619255
 21
574.1502557155338
 31
0.0
  0
LINE
  5
315
330
17
100
AcDbEntity
  8
0
100
AcDbLine
 10
1051.7718113619255
 20
574.1502557155338
 30
0.0
 11
1053.7704764733078
 21
573.7608715415015
 31
0.0
  0
LINE
  5
316
330
17
100
AcDbEntity
  8
0
100
AcDbLine
 10
1053.7704764733078
 20
573.7608715415015
 30
0.0
 11
1055.7762334940714
 21
573.4098430012034
 31
0.0
  0
LINE
  5
317
330
17
100
AcDbEntity
  8
0
100
AcDbLine
 10
1055.7762334940714
 20
573.4098430012034
 30
0.0
 11
1057.7883464254428
 21
573.0972989021534
 31
0.0
  0
LINE
  5
318
330
17
100
AcDbEntity
  8
0
100
AcDbLine
 10
1057.7883464254428
 20
573.0972989021534
 30
0.0
 11
1059.8060769363929
 21
572.8233539302634
 31
0.0
  0
LINE
  5
319
330
17
100
AcDbEntity
  8
0
100
AcDbLine
 10
1059.8060769363929
 20
572.8233539302634
 30
0.0
 11
1061.8286846345602
 21
572.5881086077598
 31
0.0
  0
LINE
  5
31A
330
17
100
AcDbEntity
  8
0
100
AcDbLine
 10
1061.8286846345602
 20
572.5881086077598
 30
0.0
 11
1063.8554273379314
 21
572.3916492563001
 31
0.0
  0
LINE
  5
31B
330
17
100
AcDbEntity
  8
0
100
AcDbLine
 10
1063.8554273379314
 20
572.3916492563001
 30
0.0
 11
1065.8855613471824
 21
572.2340479652946
 31
0.0
  0
LINE
  5
31C
330
17
100
AcDbEntity
  8
0
100
AcDbLine
 10
1065.8855613471824
 20
572.2340479652946
 30
0.0
 11
1067.9183417185725
 21
572.1153625654551
 31
0.0
  0
LINE
  5
31D
330
17
100
AcDbEntity
  8
0
100
AcDbLine
 10
1067.9183417185725
 20
572.1153625654551
 30
0.0
 11
1069.9530225372966
 21
572.035636607575
 31
0.0
  0
LINE
  5
31E
330
17
100
AcDbEntity
  8
0
100
AcDbLine
 10
1069.9530225372966
 20
572.035636607575
 30
0.0
 11
1071.9888571911938
 21
571.9948993465466
 31
0.0
  0
LINE
  5
31F
330
17
100
AcDbEntity
  8
0
100
AcDbLine
 10
1071.9888571911938
 20
571.9948993465466
 30
0.0
 11
1074.0250986447104
 21
571.9931657306288
 31
0.0
  0
LINE
  5
320
330
17
100
AcDbEntity
  8
0
100
AcDbLine
 10
1074.0250986447104
 20
571.9931657306311
 30
0.0
 11
1072.6512441789143
 21
571.9611889129965
 31
0.0
  0
LINE
  5
321
330
17
100
AcDbEntity
  8
0
100
AcDbLine
 10
1072.6512441789143
 20
571.9611889129965
 30
0.0
 11
1071.2789009588844
 21
571.8892674524209
 31
0.0
  0
LINE
  5
322
330
17
100
AcDbEntity
  8
0
100
AcDbLine
 10
1071.2789009588844
 20
571.8892674524209
 30
0.0
 11
1069.9092301239932
 21
571.7774622016391
 31
0.0
  0
LINE
  5
323
330
17
100
AcDbEntity
  8
0
100
AcDbLine
 10
1069.9092301239932
 20
571.7774622016391
 30
0.0
 11
1068.5433905525092
 21
571.6258677590565
 31
0.0
  0
LINE
  5
324
330
17
100
AcDbEntity
  8
0
100
AcDbLine
 10
1068.5433905525092
 20
571.6258677590565
 30
0.0
 11
1067.182537881069
 21
571.4346123887049
 31
0.0
  0
LINE
  5
325
330
17
100
AcDbEntity
  8
0
100
AcDbLine
 10
1067.182537881069
 20
571.4346123887049
 30
0.0
 11
1065.8278235268942
 21
571.2038579117228
 31
0.0
  0
LINE
  5
326
330
17
100
AcDbEntity
  8
0
100
AcDbLine
 10
1065.8278235268942
 20
571.2038579117228
 30
0.0
 11
1064.4803937135778
 21
570.9337995694352
 31
0.0
  0
LINE
  5
327
330
17
100
AcDbEntity
  8
0
100
AcDbLine
 10
1064.4803937135778
 20
570.9337995694352
 30
0.0
 11
1063.1413885012626
 21
570.6246658581598
 31
0.0
  0
LINE
  5
328
330
17
100
AcDbEntity
  8
0
100
AcDbLine
 10
1063.1413885012626
 20
570.6246658581598
 30
0.0
 11
1061.8119408220389
 21
570.276718335881
 31
0.0
  0
LINE
  5
329
330
17
100
AcDbEntity
  8
0
100
AcDbLine
 10
1061.8119408220389
 20
570.276718335881
 30
0.0
 11
1060.4931755213693
 21
569.8902514009376
 31
0.0
  0
LINE
  5
32A
330
17
100
AcDbEntity
  8
0
100
AcDbLine
 10
1060.4931755213693
 20
569.8902514009376
 30
0.0
 11
1059.1862084063582
 21
569.4655920429418
 31
0.0
  0
LINE
  5
32B
330
17
100
AcDbEntity
  8
0
100
AcDbLine
 10
1059.1862084063582
 20
569.4655920429418
 30
0.0
 11
1057.8921453016667
 21
569.003099566106
 31
0.0
  0
LINE
  5
32C
330
17
100
AcDbEntity
  8
0
100
AcDbLine
 10
1057.8921453016667
 20
569.003099566106
 30
0.0
 11
1056.6120811138749
 21
568.5031652852388
 31
0.0
  0
LINE
  5
32D
330
17
100
AcDbEntity
  8
0
100
AcDbLine
 10
1056.6120811138749
 20
568.5031652852388
 30
0.0
 11
1055.3470989050813
 21
567.9662121946528
 31
0.0
  0
LINE
  5
32E
330
17
100
AcDbEntity
  8
0
100
AcDbLine
 10
1055.3470989050813
 20
567.9662121946528
 30
0.0
 11
1054.0982689765253
 21
567.3926946102702
 31
0.0
  0
LINE
  5
32F
330
17
100
AcDbEntity
  8
0
100
AcDbLine
 10
1054.0982689765253
 20
567.3926946102702
 30
0.0
 11
1052.8666479630035
 21
566.7830977852236
 31
0.0
  0
LINE
  5
330
330
17
100
AcDbEntity
  8
0
100
AcDbLine
 10
1052.8666479630035
 20
566.7830977852236
 30
0.0
 11
1051.6532779388542
 21
566.1379374992879
 31
0.0
  0
LINE
  5
331
330
17
100
AcDbEntity
  8
0
100
AcDbLine
 10
1051.6532779388542
 20
566.1379374992879
 30
0.0
 11
1050.4591855362537
 21
565.4577596224744
 31
0.0
  0
LINE
  5
332
330
17
100
AcDbEntity
  8
0
100
AcDbLine
 10
1050.4591855362537
 20
565.4577596224744
 30
0.0
 11
1049.285381076589
 21
564.7431396531731
 31
0.0
  0
LINE
  5
333
330
17
100
AcDbEntity
  8
0
100
AcDbLine
 10
1049.285381076589
 20
564.7431396531731
 30
0.0
 11
1048.1328577156198
 21
563.9946822312221
 31
0.0
  0
LINE
  5
334
330
17
100
AcDbEntity
  8
0
100
AcDbLine
 10
1048.1328577156198
 20
563.9946822312221
 30
0.0
 11
1047.0025906031724
 21
563.2130206263234
 31
0.0
  0
LINE
  5
335
330
17
100
AcDbEntity
  8
0
100
AcDbLine
 10
1047.0025906031724
 20
563.2130206263234
 30
0.0
 11
1045.895536058064
 21
562.398816202232
 31
0.0
  0
LINE
  5
336
330
17
100
AcDbEntity
  8
0
100
AcDbLine
 10
1045.895536058064
 20
562.398816202232
 30
0.0
 11
1044.8126307589646
 21
561.5527578571778
 31
0.0
  0
LINE
  5
337
330
17
100
AcDbEntity
  8
0
100
AcDbLine
 10
1044.8126307589646
 20
561.5527578571778
 30
0.0
 11
1043.7547909518694
 21
560.675561440987
 31
0.0
  0
LINE
  5
338
330
17
100
AcDbEntity
  8
0
100
AcDbLine
 10
1043.7547909518694
 20
560.675561440987
 30
0.0
 11
1042.722911674864
 21
559.7679691494029
 31
0.0
  0
LINE
  5
339
330
17
100
AcDbEntity
  8
0
100
AcDbLine
 10
1042.722911674864
 20
559.7679691494029
 30
0.0
 11
1041.7178660008371
 21
558.830748896115
 31
0.0
  0
LINE
  5
33A
330
17
100
AcDbEntity
  8
0
100
AcDbLine
 10
1041.7178660008371
 20
558.830748896115
 30
0.0
 11
1040.7405042987666
 21
557.8646936630248
 31
0.0
  0
ENDSEC
  0
SECTION
  2
OBJECTS
  0
DICTIONARY
  5
A
330
0
100
AcDbDictionary
281
1
  3
ACAD_COLOR
350
B
  3
ACAD_GROUP
350
C
  3
ACAD_LAYOUT
350
D
  3
ACAD_MATERIAL
350
E
  3
ACAD_MLEADERSTYLE
350
F
  3
ACAD_MLINESTYLE
350
10
  3
ACAD_PLOTSETTINGS
350
11
  3
ACAD_PLOTSTYLENAME
350
12
  3
ACAD_SCALELIST
350
14
  3
ACAD_TABLESTYLE
350
15
  3
ACAD_VISUALSTYLE
350
16
  3
EZDXF_META
350
2D
  0
DICTIONARY
  5
B
330
A
100
AcDbDictionary
281
1
  0
DICTIONARY
  5
C
330
A
100
AcDbDictionary
281
1
  0
DICTIONARY
  5
D
330
A
100
AcDbDictionary
281
1
  3
Model
350
1A
  3
Layout1
350
1E
  0
DICTIONARY
  5
E
330
A
100
AcDbDictionary
281
1
  3
ByBlock
350
1F
  3
ByLayer
350
20
  3
Global
350
21
  0
DICTIONARY
  5
F
330
A
100
AcDbDictionary
281
1
  3
Standard
350
2C
  0
DICTIONARY
  5
10
330
A
100
AcDbDictionary
281
1
  3
Standard
350
22
  0
DICTIONARY
  5
11
330
A
100
AcDbDictionary
281
1
  0
ACDBDICTIONARYWDFLT
  5
12
330
A
100
AcDbDictionary
281
1
  3
Normal
350
13
100
AcDbDictionaryWithDefault
340
13
  0
ACDBPLACEHOLDER
  5
13
330
12
  0
DICTIONARY
  5
14
330
A
100
AcDbDictionary
281
1
  0
DICTIONARY
  5
15
330
A
100
AcDbDictionary
281
1
  0
DICTIONARY
  5
16
330
A
100
AcDbDictionary
281
1
  0
LAYOUT
  5
1A
330
D
100
AcDbPlotSettings
  1

  4
A3
  6

 40
7.5
 41
20.0
 42
7.5
 43
20.0
 44
420.0
 45
297.0
 46
0.0
 47
0.0
 48
0.0
 49
0.0
140
0.0
141
0.0
142
1.0
143
1.0
 70
1024
 72
1
 73
0
 74
5
  7

 75
16
 76
0
 77
2
 78
300
147
1.0
148
0.0
149
0.0
100
AcDbLayout
  1
Model
 70
1
 71
0
 10
0.0
 20
0.0
 11
420.0
 21
297.0
 12
0.0
 22
0.0
 32
0.0
 14
1e+20
 24
1e+20
 34
1e+20
 15
-1e+20
 25
-1e+20
 35
-1e+20
146
0.0
 13
0.0
 23
0.0
 33
0.0
 16
1.0
 26
0.0
 36
0.0
 17
0.0
 27
1.0
 37
0.0
 76
1
330
17
  0
LAYOUT
  5
1E
330
D
100
AcDbPlotSettings
  1

  4
A3
  6

 40
7.5
 41
20.0
 42
7.5
 43
20.0
 44
420.0
 45
297.0
 46
0.0
 47
0.0
 48
0.0
 49
0.0
140
0.0
141
0.0
142
1.0
143
1.0
 70
0
 72
1
 73
0
 74
5
  7

 75
16
 76
0
 77
2
 78
300
147
1.0
148
0.0
149
0.0
100
AcDbLayout
  1
Layout1
 70
1
 71
1
 10
0.0
 20
0.0
 11
420.0
 21
297.0
 12
0.0
 22
0.0
 32
0.0
 14
1e+20
 24
1e+20
 34
1e+20
 15
-1e+20
 25
-1e+20
 35
-1e+20
146
0.0
 13
0.0
 23
0.0
 33
0.0
 16
1.0
 26
0.0
 36
0.0
 17
0.0
 27
1.0
 37
0.0
 76
1
330
1B
  0
MATERIAL
  5
1F
102
{ACAD_REACTORS
330
E
102
}
330
E
100
AcDbMaterial
  1
ByBlock
  2

 70
0
 40
1.0
 71
1
 41
1.0
 91
-1023410177
 42
1.0
 72
1
  3

 73
1
 74
1
 75
1
 44
0.5
 73
0
 45
1.0
 46
1.0
 77
1
  4

 78
1
 79
1
170
1
 48
1.0
171
1
  6

172
1
173
1
174
1
140
1.0
141
1.0
175
1
  7

176
1
177
1
178
1
143
1.0
179
1
  8

270
1
271
1
272
1
145
1.0
146
1.0
273
1
  9

274
1
275
1
276
1
 42
1.0
 72
1
  3

 73
1
 74
1
 75
1
 94
63
  0
MATERIAL
  5
20
102
{ACAD_REACTORS
330
E
102
}
330
E
100
AcDbMaterial
  1
ByLayer
  2

 70
0
 40
1.0
 71
1
 41
1.0
 91
-1023410177
 42
1.0
 72
1
  3

 73
1
 74
1
 75
1
 44
0.5
 73
0
 45
1.0
 46
1.0
 77
1
  4

 78
1
 79
1
170
1
 48
1.0
171
1
  6

172
1
173
1
174
1
140
1.0
141
1.0
175
1
  7

176
1
177
1
178
1
143
1.0
179
1
  8

270
1
271
1
272
1
145
1.0
146
1.0
273
1
  9

274
1
275
1
276
1
 42
1.0
 72
1
  3

 73
1
 74
1
 75
1
 94
63
  0
MATERIAL
  5
21
102
{ACAD_REACTORS
330
E
102
}
330
E
100
AcDbMaterial
  1
Global
  2

 70
0
 40
1.0
 71
1
 41
1.0
 91
-1023410177
 42
1.0
 72
1
  3

 73
1
 74
1
 75
1
 44
0.5
 73
0
 45
1.0
 46
1.0
 77
1
  4

 78
1
 79
1
170
1
 48
1.0
171
1
  6

172
1
173
1
174
1
140
1.0
141
1.0
175
1
  7

176
1
177
1
178
1
143
1.0
179
1
  8

270
1
271
1
272
1
145
1.0
146
1.0
273
1
  9

274
1
275
1
276
1
 42
1.0
 72
1
  3

 73
1
 74
1
 75
1
 94
63
  0
MLINESTYLE
  5
22
102
{ACAD_REACTORS
330
10
102
}
330
10
100
AcDbMlineStyle
  2
Standard
 70
0
  3

 62
256
 51
90.0
 52
90.0
 71
2
 49
0.5
 62
256
  6
BYLAYER
 49
-0.5
 62
256
  6
BYLAYER
  0
MLEADERSTYLE
  5
2C
102
{ACAD_REACTORS
330
F
102
}
330
F
100
AcDbMLeaderStyle
179
2
170
2
171
1
172
0
 90
2
 40
0.0
 41
0.0
173
1
 91
-1056964608
 92
-2
290
1
 42
2.0
291
1
 43
8.0
  3
Standard
 44
4.0
300

342
29
174
1
175
1
176
0
178
1
 93
-1056964608
 45
4.0
292
0
297
0
 46
4.0
 94
-1056964608
 47
1.0
 49
1.0
140
1.0
294
1
141
0.0
177
0
142
1.0
295
0
296
0
143
3.75
271
0
272
9
273
9
  0
DICTIONARY
  5
2D
330
A
100
AcDbDictionary
280
1
281
1
  3
CREATED_BY_EZDXF
350
2E
  3
WRITTEN_BY_EZDXF
350
33D
  0
DICTIONARYVAR
  5
2E
330
2D
100
DictionaryVariables
280
0
  1
1.4.3 @ 2026-04-16T08:37:50.348634+00:00
  0
DICTIONARYVAR
  5
33D
330
2D
100
DictionaryVariables
280
0
  1
1.4.3 @ 2026-04-16T08:37:50.381048+00:00
  0
ENDSEC
  0
EOF
