  0
SECTION
  2
HEADER
  9
$ACADVER
  1
AC1024
  9
$ACADMAINTVER
 70
6
  9
$DWGCODEPAGE
  3
ANSI_1252
  9
$LASTSAVEDBY
  1
ezdxf
  9
$INSBASE
 10
0.0
 20
0.0
 30
0.0
  9
$EXTMIN
 10
1e+20
 20
1e+20
 30
1e+20
  9
$EXTMAX
 10
-1e+20
 20
-1e+20
 30
-1e+20
  9
$LIMMIN
 10
0.0
 20
0.0
  9
$LIMMAX
 10
420.0
 20
297.0
  9
$ORTHOMODE
 70
0
  9
$REGENMODE
 70
1
  9
$FILLMODE
 70
1
  9
$QTEXTMODE
 70
0
  9
$MIRRTEXT
 70
1
  9
$LTSCALE
 40
1.0
  9
$ATTMODE
 70
1
  9
$TEXTSIZE
 40
2.5
  9
$TRACEWID
 40
1.0
  9
$TEXTSTYLE
  7
Standard
  9
$CLAYER
  8
0
  9
$CELTYPE
  6
ByLayer
  9
$CECOLOR
 62
256
  9
$CELTSCALE
 40
1.0
  9
$DISPSILH
 70
0
  9
$DIMSCALE
 40
1.0
  9
$DIMASZ
 40
2.5
  9
$DIMEXO
 40
0.625
  9
$DIMDLI
 40
3.75
  9
$DIMRND
 40
0.0
  9
$DIMDLE
 40
0.0
  9
$DIMEXE
 40
1.25
  9
$DIMTP
 40
0.0
  9
$DIMTM
 40
0.0
  9
$DIMTXT
 40
2.5
  9
$DIMCEN
 40
2.5
  9
$DIMTSZ
 40
0.0
  9
$DIMTOL
 70
0
  9
$DIMLIM
 70
0
  9
$DIMTIH
 70
0
  9
$DIMTOH
 70
0
  9
$DIMSE1
 70
0
  9
$DIMSE2
 70
0
  9
$DIMTAD
 70
1
  9
$DIMZIN
 70
8
  9
$DIMBLK
  1

  9
$DIMASO
 70
1
  9
$DIMSHO
 70
1
  9
$DIMPOST
  1

  9
$DIMAPOST
  1

  9
$DIMALT
 70
0
  9
$DIMALTD
 70
3
  9
$DIMALTF
 40
0.03937007874
  9
$DIMLFAC
 40
1.0
  9
$DIMTOFL
 70
1
  9
$DIMTVP
 40
0.0
  9
$DIMTIX
 70
0
  9
$DIMSOXD
 70
0
  9
$DIMSAH
 70
0
  9
$DIMBLK1
  1

  9
$DIMBLK2
  1

  9
$DIMSTYLE
  2
ISO-25
  9
$DIMCLRD
 70
0
  9
$DIMCLRE
 70
0
  9
$DIMCLRT
 70
0
  9
$DIMTFAC
 40
1.0
  9
$DIMGAP
 40
0.625
  9
$DIMJUST
 70
0
  9
$DIMSD1
 70
0
  9
$DIMSD2
 70
0
  9
$DIMTOLJ
 70
0
  9
$DIMTZIN
 70
8
  9
$DIMALTZ
 70
0
  9
$DIMALTTZ
 70
0
  9
$DIMUPT
 70
0
  9
$DIMDEC
 70
2
  9
$DIMTDEC
 70
2
  9
$DIMALTU
 70
2
  9
$DIMALTTD
 70
3
  9
$DIMTXSTY
  7
Standard
  9
$DIMAUNIT
 70
0
  9
$DIMADEC
 70
0
  9
$DIMALTRND
 40
0.0
  9
$DIMAZIN
 70
0
  9
$DIMDSEP
 70
44
  9
$DIMATFIT
 70
3
  9
$DIMFRAC
 70
0
  9
$DIMLDRBLK
  1

  9
$DIMLUNIT
 70
2
  9
$DIMLWD
 70
-2
  9
$DIMLWE
 70
-2
  9
$DIMTMOVE
 70
0
  9
$DIMFXL
 40
1.0
  9
$DIMFXLON
 70
0
  9
$DIMJOGANG
 40
0.785398163397
  9
$DIMTFILL
 70
0
  9
$DIMTFILLCLR
 70
0
  9
$DIMARCSYM
 70
0
  9
$DIMLTYPE
  6

  9
$DIMLTEX1
  6

  9
$DIMLTEX2
  6

  9
$DIMTXTDIRECTION
 70
0
  9
$LUNITS
 70
2
  9
$LUPREC
 70
4
  9
$SKETCHINC
 40
1.0
  9
$FILLETRAD
 40
10.0
  9
$AUNITS
 70
0
  9
$AUPREC
 70
2
  9
$MENU
  1
.
  9
$ELEVATION
 40
0.0
  9
$PELEVATION
 40
0.0
  9
$THICKNESS
 40
0.0
  9
$LIMCHECK
 70
0
  9
$CHAMFERA
 40
0.0
  9
$CHAMFERB
 40
0.0
  9
$CHAMFERC
 40
0.0
  9
$CHAMFERD
 40
0.0
  9
$SKPOLY
 70
0
  9
$TDCREATE
 40
2461147.578935185
  9
$TDUCREATE
 40
2458532.153996898
  9
$TDUPDATE
 40
2461147.578935185
  9
$TDUUPDATE
 40
2458532.1544311
  9
$TDINDWG
 40
0.0
  9
$TDUSRTIMER
 40
0.0
  9
$USRTIMER
 70
1
  9
$ANGBASE
 50
0.0
  9
$ANGDIR
 70
0
  9
$PDMODE
 70
0
  9
$PDSIZE
 40
0.0
  9
$PLINEWID
 40
0.0
  9
$SPLFRAME
 70
0
  9
$SPLINETYPE
 70
6
  9
$SPLINESEGS
 70
8
  9
$HANDSEED
  5
342
  9
$SURFTAB1
 70
6
  9
$SURFTAB2
 70
6
  9
$SURFTYPE
 70
6
  9
$SURFU
 70
6
  9
$SURFV
 70
6
  9
$UCSBASE
  2

  9
$UCSNAME
  2

  9
$UCSORG
 10
0.0
 20
0.0
 30
0.0
  9
$UCSXDIR
 10
1.0
 20
0.0
 30
0.0
  9
$UCSYDIR
 10
0.0
 20
1.0
 30
0.0
  9
$UCSORTHOREF
  2

  9
$UCSORTHOVIEW
 70
0
  9
$UCSORGTOP
 10
0.0
 20
0.0
 30
0.0
  9
$UCSORGBOTTOM
 10
0.0
 20
0.0
 30
0.0
  9
$UCSORGLEFT
 10
0.0
 20
0.0
 30
0.0
  9
$UCSORGRIGHT
 10
0.0
 20
0.0
 30
0.0
  9
$UCSORGFRONT
 10
0.0
 20
0.0
 30
0.0
  9
$UCSORGBACK
 10
0.0
 20
0.0
 30
0.0
  9
$PUCSBASE
  2

  9
$PUCSNAME
  2

  9
$PUCSORG
 10
0.0
 20
0.0
 30
0.0
  9
$PUCSXDIR
 10
1.0
 20
0.0
 30
0.0
  9
$PUCSYDIR
 10
0.0
 20
1.0
 30
0.0
  9
$PUCSORTHOREF
  2

  9
$PUCSORTHOVIEW
 70
0
  9
$PUCSORGTOP
 10
0.0
 20
0.0
 30
0.0
  9
$PUCSORGBOTTOM
 10
0.0
 20
0.0
 30
0.0
  9
$PUCSORGLEFT
 10
0.0
 20
0.0
 30
0.0
  9
$PUCSORGRIGHT
 10
0.0
 20
0.0
 30
0.0
  9
$PUCSORGFRONT
 10
0.0
 20
0.0
 30
0.0
  9
$PUCSORGBACK
 10
0.0
 20
0.0
 30
0.0
  9
$USERI1
 70
0
  9
$USERI2
 70
0
  9
$USERI3
 70
0
  9
$USERI4
 70
0
  9
$USERI5
 70
0
  9
$USERR1
 40
0.0
  9
$USERR2
 40
0.0
  9
$USERR3
 40
0.0
  9
$USERR4
 40
0.0
  9
$USERR5
 40
0.0
  9
$WORLDVIEW
 70
1
  9
$SHADEDGE
 70
3
  9
$SHADEDIF
 70
70
  9
$TILEMODE
 70
1
  9
$MAXACTVP
 70
64
  9
$PINSBASE
 10
0.0
 20
0.0
 30
0.0
  9
$PLIMCHECK
 70
0
  9
$PEXTMIN
 10
1e+20
 20
1e+20
 30
1e+20
  9
$PEXTMAX
 10
-1e+20
 20
-1e+20
 30
-1e+20
  9
$PLIMMIN
 10
0.0
 20
0.0
  9
$PLIMMAX
 10
420.0
 20
297.0
  9
$UNITMODE
 70
0
  9
$VISRETAIN
 70
1
  9
$PLINEGEN
 70
0
  9
$PSLTSCALE
 70
1
  9
$TREEDEPTH
 70
3020
  9
$CMLSTYLE
  2
Standard
  9
$CMLJUST
 70
0
  9
$CMLSCALE
 40
20.0
  9
$PROXYGRAPHICS
 70
1
  9
$MEASUREMENT
 70
1
  9
$CELWEIGHT
370
-1
  9
$ENDCAPS
280
0
  9
$JOINSTYLE
280
0
  9
$LWDISPLAY
290
0
  9
$INSUNITS
 70
0
  9
$HYPERLINKBASE
  1

  9
$STYLESHEET
  1

  9
$XEDIT
290
1
  9
$CEPSNTYPE
380
0
  9
$PSTYLEMODE
290
1
  9
$FINGERPRINTGUID
  2
{E7696758-EBC1-4149-9F74-4034E2E3413E}
  9
$VERSIONGUID
  2
{644872A1-52C6-45F2-A3D0-9C798023FEE4}
  9
$EXTNAMES
290
1
  9
$PSVPSCALE
 40
0.0
  9
$OLESTARTUP
290
0
  9
$SORTENTS
280
127
  9
$INDEXCTL
280
0
  9
$HIDETEXT
280
1
  9
$XCLIPFRAME
280
1
  9
$HALOGAP
280
0
  9
$OBSCOLOR
 70
257
  9
$OBSLTYPE
280
0
  9
$INTERSECTIONDISPLAY
280
0
  9
$INTERSECTIONCOLOR
 70
257
  9
$DIMASSOC
280
2
  9
$PROJECTNAME
  1

  9
$CAMERADISPLAY
290
0
  9
$LENSLENGTH
 40
50.0
  9
$CAMERAHEIGHT
 40
0.0
  9
$STEPSPERSEC
 40
24.0
  9
$STEPSIZE
 40
100.0
  9
$3DDWFPREC
 40
2.0
  9
$PSOLWIDTH
 40
0.005
  9
$PSOLHEIGHT
 40
0.08
  9
$LOFTANG1
 40
1.570796326795
  9
$LOFTANG2
 40
1.570796326795
  9
$LOFTMAG1
 40
0.0
  9
$LOFTMAG2
 40
0.0
  9
$LOFTPARAM
 70
7
  9
$LOFTNORMALS
280
1
  9
$LATITUDE
 40
37.795
  9
$LONGITUDE
 40
-122.394
  9
$NORTHDIRECTION
 40
0.0
  9
$TIMEZONE
 70
-8000
  9
$LIGHTGLYPHDISPLAY
280
1
  9
$TILEMODELIGHTSYNCH
280
1
  9
$CMATERIAL
347
20
  9
$SOLIDHIST
280
0
  9
$SHOWHIST
280
1
  9
$DWFFRAME
280
2
  9
$DGNFRAME
280
2
  9
$REALWORLDSCALE
290
1
  9
$INTERFERECOLOR
 62
256
  9
$CSHADOW
280
0
  9
$SHADOWPLANELOCATION
 40
0.0
  0
ENDSEC
  0
SECTION
  2
CLASSES
  0
CLASS
  1
ACDBDICTIONARYWDFLT
  2
AcDbDictionaryWithDefault
  3
ObjectDBX Classes
 90
0
 91
0
280
0
281
0
  0
CLASS
  1
SUN
  2
AcDbSun
  3
SCENEOE
 90
1153
 91
0
280
0
281
0
  0
CLASS
  1
VISUALSTYLE
  2
AcDbVisualStyle
  3
ObjectDBX Classes
 90
4095
 91
0
280
0
281
0
  0
CLASS
  1
MATERIAL
  2
AcDbMaterial
  3
ObjectDBX Classes
 90
1153
 91
0
280
0
281
0
  0
CLASS
  1
SCALE
  2
AcDbScale
  3
ObjectDBX Classes
 90
1153
 91
0
280
0
281
0
  0
CLASS
  1
TABLESTYLE
  2
AcDbTableStyle
  3
ObjectDBX Classes
 90
4095
 91
0
280
0
281
0
  0
CLASS
  1
MLEADERSTYLE
  2
AcDbMLeaderStyle
  3
ACDB_MLEADERSTYLE_CLASS
 90
4095
 91
0
280
0
281
0
  0
CLASS
  1
DICTIONARYVAR
  2
AcDbDictionaryVar
  3
ObjectDBX Classes
 90
0
 91
0
280
0
281
0
  0
CLASS
  1
CELLSTYLEMAP
  2
AcDbCellStyleMap
  3
ObjectDBX Classes
 90
1152
 91
0
280
0
281
0
  0
CLASS
  1
MENTALRAYRENDERSETTINGS
  2
AcDbMentalRayRenderSettings
  3
SCENEOE
 90
1024
 91
0
280
0
281
0
  0
CLASS
  1
ACDBDETAILVIEWSTYLE
  2
AcDbDetailViewStyle
  3
ObjectDBX Classes
 90
1025
 91
0
280
0
281
0
  0
CLASS
  1
ACDBSECTIONVIEWSTYLE
  2
AcDbSectionViewStyle
  3
ObjectDBX Classes
 90
1025
 91
0
280
0
281
0
  0
CLASS
  1
RASTERVARIABLES
  2
AcDbRasterVariables
  3
ISM
 90
0
 91
0
280
0
281
0
  0
CLASS
  1
LAYOUT
  2
AcDbLayout
  3
ObjectDBX Classes
 90
0
 91
0
280
0
281
0
  0
CLASS
  1
ACDBPLACEHOLDER
  2
AcDbPlaceHolder
  3
ObjectDBX Classes
 90
0
 91
0
280
0
281
0
  0
ENDSEC
  0
SECTION
  2
TABLES
  0
TABLE
  2
VPORT
  5
8
330
0
100
AcDbSymbolTable
 70
1
  0
VPORT
  5
23
330
8
100
AcDbSymbolTableRecord
100
AcDbViewportTableRecord
  2
*Active
 70
0
 10
0.0
 20
0.0
 11
1.0
 21
1.0
 12
0.0
 22
0.0
 13
0.0
 23
0.0
 14
0.5
 24
0.5
 15
0.5
 25
0.5
 16
0.0
 26
0.0
 36
1.0
 17
0.0
 27
0.0
 37
0.0
 40
1000.0
 41
1.34
 42
50.0
 43
0.0
 44
0.0
 50
0.0
 51
0.0
 71
0
 72
1000
 73
1
 74
3
 75
0
 76
0
 77
0
 78
0
281
0
 65
0
146
0.0
  0
ENDTAB
  0
TABLE
  2
LTYPE
  5
2
330
0
100
AcDbSymbolTable
 70
3
  0
LTYPE
  5
24
330
2
100
AcDbSymbolTableRecord
100
AcDbLinetypeTableRecord
  2
ByBlock
 70
0
  3

 72
65
 73
0
 40
0.0
  0
LTYPE
  5
25
330
2
100
AcDbSymbolTableRecord
100
AcDbLinetypeTableRecord
  2
ByLayer
 70
0
  3

 72
65
 73
0
 40
0.0
  0
LTYPE
  5
26
330
2
100
AcDbSymbolTableRecord
100
AcDbLinetypeTableRecord
  2
Continuous
 70
0
  3

 72
65
 73
0
 40
0.0
  0
ENDTAB
  0
TABLE
  2
LAYER
  5
1
330
0
100
AcDbSymbolTable
 70
2
  0
LAYER
  5
27
330
1
100
AcDbSymbolTableRecord
100
AcDbLayerTableRecord
  2
0
 70
0
 62
7
  6
Continuous
370
-3
390
13
347
21
  0
LAYER
  5
28
330
1
100
AcDbSymbolTableRecord
100
AcDbLayerTableRecord
  2
Defpoints
 70
0
 62
7
  6
Continuous
290
0
370
-3
390
13
347
21
  0
ENDTAB
  0
TABLE
  2
STYLE
  5
5
330
0
100
AcDbSymbolTable
 70
1
  0
STYLE
  5
29
330
5
100
AcDbSymbolTableRecord
100
AcDbTextStyleTableRecord
  2
Standard
 70
0
 40
0.0
 41
1.0
 50
0.0
 71
0
 42
2.5
  3
txt
  4

  0
ENDTAB
  0
TABLE
  2
VIEW
  5
7
330
0
100
AcDbSymbolTable
 70
0
  0
ENDTAB
  0
TABLE
  2
UCS
  5
6
330
0
100
AcDbSymbolTable
 70
0
  0
ENDTAB
  0
TABLE
  2
APPID
  5
3
330
0
100
AcDbSymbolTable
 70
3
  0
APPID
  5
2A
330
3
100
AcDbSymbolTableRecord
100
AcDbRegAppTableRecord
  2
ACAD
 70
0
  0
APPID
  5
33F
330
3
100
AcDbSymbolTableRecord
100
AcDbRegAppTableRecord
  2
HATCHBACKGROUNDCOLOR
 70
0
  0
APPID
  5
340
330
3
100
AcDbSymbolTableRecord
100
AcDbRegAppTableRecord
  2
EZDXF
 70
0
  0
ENDTAB
  0
TABLE
  2
DIMSTYLE
  5
4
330
0
100
AcDbSymbolTable
 70
1
100
AcDbDimStyleTable
  0
DIMSTYLE
105
2B
330
4
100
AcDbSymbolTableRecord
100
AcDbDimStyleTableRecord
  2
Standard
 70
0
 40
1.0
 41
2.5
 42
0.625
 43
3.75
 44
1.25
 45
0.0
 46
0.0
 47
0.0
 48
0.0
 49
2.5
140
2.5
141
2.5
142
0.0
143
0.03937007874
144
1.0
145
0.0
146
1.0
147
0.625
148
0.0
 69
0
 70
0
 71
0
 72
0
 73
0
 74
0
 75
0
 76
0
 77
1
 78
8
 79
3
170
0
171
3
172
1
173
0
174
0
175
0
176
0
177
0
178
0
179
2
271
2
272
2
273
2
274
3
275
0
276
0
277
2
278
44
279
0
280
0
281
0
282
0
283
0
284
8
285
0
286
0
288
0
289
3
290
0
371
-2
372
-2
  0
ENDTAB
  0
TABLE
  2
BLOCK_RECORD
  5
9
330
0
100
AcDbSymbolTable
 70
2
  0
BLOCK_RECORD
  5
17
330
9
100
AcDbSymbolTableRecord
100
AcDbBlockTableRecord
  2
*Model_Space
340
1A
 70
0
280
1
281
0
  0
BLOCK_RECORD
  5
1B
330
9
100
AcDbSymbolTableRecord
100
AcDbBlockTableRecord
  2
*Paper_Space
340
1E
 70
0
280
1
281
0
  0
ENDTAB
  0
ENDSEC
  0
SECTION
  2
BLOCKS
  0
BLOCK
  5
18
330
17
100
AcDbEntity
  8
0
100
AcDbBlockBegin
  2
*Model_Space
 70
0
 10
0.0
 20
0.0
 30
0.0
  3
*Model_Space
  1

  0
ENDBLK
  5
19
330
17
100
AcDbEntity
  8
0
100
AcDbBlockEnd
  0
BLOCK
  5
1C
330
1B
100
AcDbEntity
  8
0
100
AcDbBlockBegin
  2
*Paper_Space
 70
0
 10
0.0
 20
0.0
 30
0.0
  3
*Paper_Space
  1

  0
ENDBLK
  5
1D
330
1B
100
AcDbEntity
  8
0
100
AcDbBlockEnd
  0
ENDSEC
  0
SECTION
  2
ENTITIES
  0
LINE
  5
2F
330
17
100
AcDbEntity
  8
0
100
AcDbLine
 10
538.7340792849465
 20
2047.7867631547435
 30
0.0
 11
556.6409301276097
 21
-4.135102972936011
 31
0.0
  0
LINE
  5
30
330
17
100
AcDbEntity
  8
0
100
AcDbLine
 10
1070.2099045355885
 20
2052.4248824156903
 30
0.0
 11
1088.116755378252
 21
0.5030162880107127
 31
0.0
  0
LINE
  5
31
330
17
100
AcDbEntity
  8
0
100
AcDbLine
 10
1601.6857297862311
 20
2057.063001676637
 30
0.0
 11
1619.5925806288947
 21
5.141135548957436
 31
0.0
  0
LINE
  5
32
330
17
100
AcDbEntity
  8
0
100
AcDbLine
 10
-4.067308057812694
 20
1716.776569023039
 30
0.0
 11
2045.8546342237382
 21
1734.6659667947056
 31
0.0
  0
LINE
  5
33
330
17
100
AcDbEntity
  8
0
100
AcDbLine
 10
1.601504372233359
 20
1067.1950048278104
 30
0.0
 11
2051.5234466537845
 21
1085.084402599477
 31
0.0
  0
LINE
  5
34
330
17
100
AcDbEntity
  8
0
100
AcDbLine
 10
7.27031680227942
 20
417.6134406325808
 30
0.0
 11
2057.1922590838303
 21
435.50283840424754
 31
0.0
  0
LINE
  5
35
330
17
100
AcDbEntity
  8
0
100
AcDbLine
 10
552.918830726269
 20
422.37524307381955
 30
0.0
 11
764.3281034370826
 21
424.2201838465073
 31
0.0
  0
LINE
  5
36
330
17
100
AcDbEntity
  8
0
100
AcDbLine
 10
538.8698252332132
 20
408.0788712201763
 30
0.0
 11
764.4517866173745
 21
410.047495173156
 31
0.0
  0
LINE
  5
37
330
17
100
AcDbEntity
  8
0
100
AcDbLine
 10
893.3841162790478
 20
1336.011035185423
 30
0.0
 11
898.2799088322694
 21
775.0087751986347
 31
0.0
  0
LINE
  5
38
330
17
100
AcDbEntity
  8
0
100
AcDbLine
 10
549.8679789457351
 20
771.9682303497917
 30
0.0
 11
725.8455299731711
 21
773.5039631717497
 31
0.0
  0
LINE
  5
39
330
17
100
AcDbEntity
  8
0
100
AcDbLine
 10
1094.8386477114866
 20
448.3651577300043
 30
0.0
 11
1094.1532367540356
 21
526.9054741281611
 31
0.0
  0
LINE
  5
3A
330
17
100
AcDbEntity
  8
0
100
AcDbLine
 10
1077.1227868698013
 20
448.2105537546395
 30
0.0
 11
1076.4373759123503
 21
526.7508701527963
 31
0.0
  0
LINE
  5
3B
330
17
100
AcDbEntity
  8
0
100
AcDbLine
 10
550.0225829211
 20
754.2523695081059
 30
0.0
 11
708.2842731068473
 21
755.6334983546989
 31
0.0
  0
LINE
  5
3C
330
17
100
AcDbEntity
  8
0
100
AcDbLine
 10
875.8228594127237
 20
1318.1405703683736
 30
0.0
 11
880.7186519659454
 21
757.1383103815838
 31
0.0
  0
LINE
  5
3D
330
17
100
AcDbEntity
  8
0
100
AcDbLine
 10
544.9721863925135
 20
1332.97049033658
 30
0.0
 11
893.3841162790478
 21
1336.011035185423
 31
0.0
  0
LINE
  5
3E
330
17
100
AcDbEntity
  8
0
100
AcDbLine
 10
545.1267903678784
 20
1315.2546294948957
 30
0.0
 11
875.8228594127237
 21
1318.1405703683736
 31
0.0
  0
LINE
  5
3F
330
17
100
AcDbEntity
  8
0
100
AcDbLine
 10
728.896381753705
 20
423.9109758957775
 30
0.0
 11
728.4531836909923
 21
474.69644364194346
 31
0.0
  0
LINE
  5
40
330
17
100
AcDbEntity
  8
0
100
AcDbLine
 10
711.1805209120163
 20
423.75637192041256
 30
0.0
 11
710.8094713711406
 21
466.2744379404552
 31
0.0
  0
LINE
  5
41
330
17
100
AcDbEntity
  8
0
100
AcDbLine
 10
1698.544498488767
 20
432.3729668140827
 30
0.0
 11
1698.6681816690589
 21
418.20027814073137
 31
0.0
  0
LINE
  5
42
330
17
100
AcDbEntity
  8
0
100
AcDbLine
 10
1804.8396635388954
 20
433.300590666272
 30
0.0
 11
1804.9633467191873
 21
419.12790199292067
 31
0.0
  0
LINE
  5
43
330
17
100
AcDbEntity
  8
0
100
AcDbLine
 10
1958.377124166857
 20
434.64049178610094
 30
0.0
 11
1958.5008073471488
 21
420.4678031127496
 31
0.0
  0
LINE
  5
44
330
17
100
AcDbEntity
  8
0
100
AcDbLine
 10
1804.8396635388954
 20
433.300590666272
 30
0.0
 11
1958.377124166857
 21
434.64049178610094
 31
0.0
  0
LINE
  5
45
330
17
100
AcDbEntity
  8
0
100
AcDbLine
 10
1167.0686732381243
 20
427.73484755313575
 30
0.0
 11
1167.1923564184162
 21
413.5621588797844
 31
0.0
  0
LINE
  5
46
330
17
100
AcDbEntity
  8
0
100
AcDbLine
 10
1273.3638382882536
 20
428.6624714053253
 30
0.0
 11
1273.4875214685455
 21
414.48978273197395
 31
0.0
  0
LINE
  5
47
330
17
100
AcDbEntity
  8
0
100
AcDbLine
 10
1426.9012989162143
 20
430.0023725251542
 30
0.0
 11
1427.0249820965062
 21
415.8296838518029
 31
0.0
  0
LINE
  5
48
330
17
100
AcDbEntity
  8
0
100
AcDbLine
 10
1533.1964639663438
 20
430.9299963773435
 30
0.0
 11
1533.3201471466357
 21
416.7573077039922
 31
0.0
  0
LINE
  5
49
330
17
100
AcDbEntity
  8
0
100
AcDbLine
 10
1273.3638382882536
 20
428.6624714053253
 30
0.0
 11
1426.9012989162143
 21
430.0023725251542
 31
0.0
  0
LINE
  5
4A
330
17
100
AcDbEntity
  8
0
100
AcDbLine
 10
1533.1964639663438
 20
430.9299963773435
 30
0.0
 11
1698.544498488767
 21
432.3729668140827
 31
0.0
  0
LINE
  5
4B
330
17
100
AcDbEntity
  8
0
100
AcDbLine
 10
1332.4167077605473
 20
429.17781798987494
 30
0.0
 11
1331.9013611759976
 21
488.23068746216825
 31
0.0
  0
LINE
  5
4C
330
17
100
AcDbEntity
  8
0
100
AcDbLine
 10
1331.9013611759976
 20
488.23068746216825
 30
0.0
 11
1379.1436567538296
 21
488.6429647298079
 31
0.0
  0
LINE
  5
4D
330
17
100
AcDbEntity
  8
0
100
AcDbLine
 10
1379.6590033383793
 20
429.5900952575146
 30
0.0
 11
1379.1436567538296
 21
488.6429647298079
 31
0.0
  0
LINE
  5
4E
330
17
100
AcDbEntity
  8
0
100
AcDbLine
 10
880.7186519659454
 20
757.1383103815838
 30
0.0
 11
1074.41206383507
 21
758.8286471789067
 31
0.0
  0
LINE
  5
4F
330
17
100
AcDbEntity
  8
0
100
AcDbLine
 10
898.2799088322694
 20
775.0087751986347
 30
0.0
 11
1091.9733207013905
 21
776.6991119959574
 31
0.0
  0
LINE
  5
50
330
17
100
AcDbEntity
  8
0
100
AcDbLine
 10
735.7966164082345
 20
1122.0292693068886
 30
0.0
 11
738.8886959155324
 21
767.7120524731263
 31
0.0
  0
LINE
  5
51
330
17
100
AcDbEntity
  8
0
100
AcDbLine
 10
880.6155826490353
 20
768.9488842760453
 30
0.0
 11
738.8886959155324
 21
767.7120524731263
 31
0.0
  0
LINE
  5
52
330
17
100
AcDbEntity
  8
0
100
AcDbLine
 10
880.3063746983056
 20
804.3806059594166
 30
0.0
 11
738.5794879648026
 21
803.1437741564976
 31
0.0
  0
LINE
  5
53
330
17
100
AcDbEntity
  8
0
100
AcDbLine
 10
879.9971667475758
 20
839.8123276427973
 30
0.0
 11
738.2702800140728
 21
838.5754958398784
 31
0.0
  0
LINE
  5
54
330
17
100
AcDbEntity
  8
0
100
AcDbLine
 10
879.687958796846
 20
875.2440493261709
 30
0.0
 11
737.9610720633431
 21
874.0072175232519
 31
0.0
  0
LINE
  5
55
330
17
100
AcDbEntity
  8
0
100
AcDbLine
 10
879.3787508461162
 20
910.675771009549
 30
0.0
 11
737.6518641126132
 21
909.43893920663
 31
0.0
  0
LINE
  5
56
330
17
100
AcDbEntity
  8
0
100
AcDbLine
 10
879.0695428953865
 20
946.1074926929257
 30
0.0
 11
737.3426561618835
 21
944.8706608900068
 31
0.0
  0
LINE
  5
57
330
17
100
AcDbEntity
  8
0
100
AcDbLine
 10
878.7603349446567
 20
981.539214376297
 30
0.0
 11
737.0334482111538
 21
980.302382573378
 31
0.0
  0
LINE
  5
58
330
17
100
AcDbEntity
  8
0
100
AcDbLine
 10
878.4511269939269
 20
1016.9709360596773
 30
0.0
 11
736.7242402604239
 21
1015.7341042567583
 31
0.0
  0
LINE
  5
59
330
17
100
AcDbEntity
  8
0
100
AcDbLine
 10
878.1419190431972
 20
1052.4026577430523
 30
0.0
 11
736.4150323096942
 21
1051.1658259401333
 31
0.0
  0
LINE
  5
5A
330
17
100
AcDbEntity
  8
0
100
AcDbLine
 10
877.8327110924673
 20
1087.8343794264295
 30
0.0
 11
736.1058243589644
 21
1086.5975476235105
 31
0.0
  0
LINE
  5
5B
330
17
100
AcDbEntity
  8
0
100
AcDbLine
 10
877.5235031417375
 20
1123.2661011098076
 30
0.0
 11
546.8274340968921
 21
1120.3801602363296
 31
0.0
  0
LINE
  5
5C
330
17
100
AcDbEntity
  8
0
100
AcDbLine
 10
568.0864671069189
 20
1120.5656850067676
 30
0.0
 11
571.1270119557619
 21
772.1537551202296
 31
0.0
  0
LINE
  5
5D
330
17
100
AcDbEntity
  8
0
100
AcDbLine
 10
709.8133538404254
 20
1121.8025168096867
 30
0.0
 11
712.8538986892684
 21
773.3905869231487
 31
0.0
  0
LINE
  5
5E
330
17
100
AcDbEntity
  8
0
100
AcDbLine
 10
710.1225617911552
 20
1086.3707951263086
 30
0.0
 11
568.3956750576488
 21
1085.1339633233895
 31
0.0
  0
LINE
  5
5F
330
17
100
AcDbEntity
  8
0
100
AcDbLine
 10
710.4317697418851
 20
1050.9390734429314
 30
0.0
 11
568.7048830083786
 21
1049.7022416400123
 31
0.0
  0
LINE
  5
60
330
17
100
AcDbEntity
  8
0
100
AcDbLine
 10
710.7409776926148
 20
1015.5073517595564
 30
0.0
 11
569.0140909591083
 21
1014.2705199566373
 31
0.0
  0
LINE
  5
61
330
17
100
AcDbEntity
  8
0
100
AcDbLine
 10
711.0501856433447
 20
980.0756300761761
 30
0.0
 11
569.3232989098382
 21
978.838798273257
 31
0.0
  0
LINE
  5
62
330
17
100
AcDbEntity
  8
0
100
AcDbLine
 10
711.3593935940744
 20
944.6439083928049
 30
0.0
 11
569.6325068605679
 21
943.4070765898857
 31
0.0
  0
LINE
  5
63
330
17
100
AcDbEntity
  8
0
100
AcDbLine
 10
545.1267903678784
 20
1315.2546294948957
 30
0.0
 11
552.918830726269
 21
422.37524307381955
 31
0.0
  0
LINE
  5
64
330
17
100
AcDbEntity
  8
0
100
AcDbLine
 10
524.5613906115988
 20
2047.6630799744516
 30
0.0
 11
538.8698252332132
 21
408.0788712201763
 31
0.0
  0
LINE
  5
65
330
17
100
AcDbEntity
  8
0
100
AcDbLine
 10
1059.5924507985508
 20
426.7969167692554
 30
0.0
 11
1059.7161339788427
 21
412.6242280959041
 31
0.0
  0
LINE
  5
66
330
17
100
AcDbEntity
  8
0
100
AcDbLine
 10
941.4867118539634
 20
425.7662236001563
 30
0.0
 11
941.6103950342552
 21
411.593534926805
 31
0.0
  0
LINE
  5
67
330
17
100
AcDbEntity
  8
0
100
AcDbLine
 10
764.4517866173745
 20
410.047495173156
 30
0.0
 11
764.3281034370826
 21
424.2201838465073
 31
0.0
  0
LINE
  5
68
330
17
100
AcDbEntity
  8
0
100
AcDbLine
 10
882.5575255619617
 20
411.0781883422553
 30
0.0
 11
882.4338423816698
 21
425.25087701560665
 31
0.0
  0
LINE
  5
69
330
17
100
AcDbEntity
  8
0
100
AcDbLine
 10
882.4338423816698
 20
425.25087701560665
 30
0.0
 11
941.4867118539634
 21
425.7662236001563
 31
0.0
  0
LINE
  5
6A
330
17
100
AcDbEntity
  8
0
100
AcDbLine
 10
882.5575255619617
 20
411.0781883422553
 30
0.0
 11
941.6103950342552
 21
411.593534926805
 31
0.0
  0
LINE
  5
6B
330
17
100
AcDbEntity
  8
0
100
AcDbLine
 10
1059.5924507985508
 20
426.7969167692554
 30
0.0
 11
1167.0686732381243
 21
427.73484755313575
 31
0.0
  0
LINE
  5
6C
330
17
100
AcDbEntity
  8
0
100
AcDbLine
 10
1059.7161339788427
 20
412.6242280959041
 30
0.0
 11
1175.4597581445403
 21
413.63430740161834
 31
0.0
  0
LINE
  5
6D
330
17
100
AcDbEntity
  8
0
100
AcDbLine
 10
187.6446879067499
 20
50.66957487911748
 30
0.0
 11
1466.7298406766272
 21
61.83198190046278
 31
0.0
  0
LINE
  5
6E
330
17
100
AcDbEntity
  8
0
100
AcDbLine
 10
548.739041126457
 20
89.25521765993165
 30
0.0
 11
584.1707628098312
 21
89.56442561066137
 31
0.0
  0
LINE
  5
6F
330
17
100
AcDbEntity
  8
0
100
AcDbLine
 10
548.4298331757271
 20
124.68693934331611
 30
0.0
 11
583.8615548591014
 21
124.99614729404584
 31
0.0
  0
LINE
  5
70
330
17
100
AcDbEntity
  8
0
100
AcDbLine
 10
548.4298331757271
 20
124.68693934331611
 30
0.0
 11
548.739041126457
 21
89.25521765993165
 31
0.0
  0
LINE
  5
71
330
17
100
AcDbEntity
  8
0
100
AcDbLine
 10
583.8615548591014
 20
124.99614729404584
 30
0.0
 11
584.1707628098312
 21
89.56442561066137
 31
0.0
  0
LINE
  5
72
330
17
100
AcDbEntity
  8
0
100
AcDbLine
 10
1069.5853498720862
 20
93.8005745356595
 30
0.0
 11
1105.01707155546
 21
94.10978248638935
 31
0.0
  0
LINE
  5
73
330
17
100
AcDbEntity
  8
0
100
AcDbLine
 10
1069.2761419213564
 20
129.23229621904397
 30
0.0
 11
1104.7078636047302
 21
129.54150416977382
 31
0.0
  0
LINE
  5
74
330
17
100
AcDbEntity
  8
0
100
AcDbLine
 10
1069.2761419213564
 20
129.23229621904397
 30
0.0
 11
1069.5853498720862
 21
93.8005745356595
 31
0.0
  0
LINE
  5
75
330
17
100
AcDbEntity
  8
0
100
AcDbLine
 10
1104.7078636047302
 20
129.54150416977382
 30
0.0
 11
1105.01707155546
 21
94.10978248638935
 31
0.0
  0
LINE
  5
76
330
17
100
AcDbEntity
  8
0
100
AcDbLine
 10
809.7521392822839
 20
768.3304683745858
 30
0.0
 11
806.660059774986
 21
1122.647685208348
 31
0.0
  0
LINE
  5
77
330
17
100
AcDbEntity
  8
0
100
AcDbLine
 10
830.0235663535431
 20
1099.6884312368115
 30
0.0
 11
806.660059774986
 21
1122.647685208348
 31
0.0
  0
LINE
  5
78
330
17
100
AcDbEntity
  8
0
100
AcDbLine
 10
783.7008058034528
 20
1099.284178629788
 30
0.0
 11
806.660059774986
 21
1122.647685208348
 31
0.0
  0
LINE
  5
79
330
17
100
AcDbEntity
  8
0
100
AcDbLine
 10
708.645015716032
 20
714.2964897240909
 30
0.0
 11
726.3608765577208
 21
714.4510936994559
 31
0.0
  0
LINE
  5
7A
330
17
100
AcDbEntity
  8
0
100
AcDbLine
 10
709.5726395682213
 20
608.0013246739649
 30
0.0
 11
727.2885004099101
 21
608.1559286493298
 31
0.0
  0
LINE
  5
7B
330
17
100
AcDbEntity
  8
0
100
AcDbLine
 10
709.8818475189512
 20
572.5696029905872
 30
0.0
 11
727.5977083606399
 21
572.7242069659521
 31
0.0
  0
LINE
  5
7C
330
17
100
AcDbEntity
  8
0
100
AcDbLine
 10
710.8094713711406
 20
466.2744379404552
 30
0.0
 11
728.5253322128293
 21
466.4290419158201
 31
0.0
  0
LINE
  5
7D
330
17
100
AcDbEntity
  8
0
100
AcDbLine
 10
708.645015716032
 20
714.2964897240909
 30
0.0
 11
708.2842731068473
 21
755.6334983546989
 31
0.0
  0
LINE
  5
7E
330
17
100
AcDbEntity
  8
0
100
AcDbLine
 10
726.3608765577208
 20
714.4510936994559
 30
0.0
 11
725.8455299731711
 21
773.5039631717497
 31
0.0
  0
LINE
  5
7F
330
17
100
AcDbEntity
  8
0
100
AcDbLine
 10
709.8818475189512
 20
572.5696029905872
 30
0.0
 11
709.5726395682213
 21
608.0013246739649
 31
0.0
  0
LINE
  5
80
330
17
100
AcDbEntity
  8
0
100
AcDbLine
 10
638.9499104736701
 20
1121.184100908227
 30
0.0
 11
640.8051581780488
 21
908.5937708079684
 31
0.0
  0
LINE
  5
81
330
17
100
AcDbEntity
  8
0
100
AcDbLine
 10
640.8051581780488
 20
908.5937708079684
 30
0.0
 11
569.9417148112976
 21
907.975354906509
 31
0.0
  0
LINE
  5
82
330
17
100
AcDbEntity
  8
0
100
AcDbLine
 10
617.4416515994922
 20
931.553024779505
 30
0.0
 11
640.8051581780488
 21
908.5937708079684
 31
0.0
  0
LINE
  5
83
330
17
100
AcDbEntity
  8
0
100
AcDbLine
 10
663.7644121495856
 20
931.9572773865286
 30
0.0
 11
640.8051581780488
 21
908.5937708079684
 31
0.0
  0
LINE
  5
84
330
17
100
AcDbEntity
  8
0
100
AcDbLine
 10
570.2509227620275
 20
872.5436332231309
 30
0.0
 11
711.3593935940744
 21
944.6439083928049
 31
0.0
  0
LINE
  5
85
330
17
100
AcDbEntity
  8
0
100
AcDbLine
 10
538.7340792849465
 20
2047.7867631547435
 30
0.0
 11
544.9721863925135
 21
1332.97049033658
 31
0.0
  0
LINE
  5
86
330
17
100
AcDbEntity
  8
0
100
AcDbLine
 10
255.04500222532783
 20
448.1232736343911
 30
0.0
 11
255.35421017605765
 21
412.6915519510135
 31
0.0
  0
LINE
  5
87
330
17
100
AcDbEntity
  8
0
100
AcDbLine
 10
219.61328054195042
 20
447.8140656836613
 30
0.0
 11
219.92248849268023
 21
412.38234400028364
 31
0.0
  0
LINE
  5
88
330
17
100
AcDbEntity
  8
0
100
AcDbLine
 10
173.90554796265644
 20
1625.0190750104653
 30
0.0
 11
187.6446879067499
 21
50.66957487911748
 31
0.0
  0
LINE
  5
89
330
17
100
AcDbEntity
  8
0
100
AcDbLine
 10
255.35421017605765
 20
412.6915519510135
 30
0.0
 11
219.92248849268023
 21
412.38234400028364
 31
0.0
  0
LINE
  5
8A
330
17
100
AcDbEntity
  8
0
100
AcDbLine
 10
255.04500222532783
 20
448.1232736343911
 30
0.0
 11
219.61328054195042
 21
447.8140656836613
 31
0.0
  0
LINE
  5
8B
330
17
100
AcDbEntity
  8
0
100
AcDbLine
 10
249.46895218050074
 20
1087.0753213246076
 30
0.0
 11
249.77816013123052
 21
1051.64359964123
 31
0.0
  0
LINE
  5
8C
330
17
100
AcDbEntity
  8
0
100
AcDbLine
 10
214.03723049712332
 20
1086.7661133738775
 30
0.0
 11
214.3464384478531
 21
1051.3343916905
 31
0.0
  0
LINE
  5
8D
330
17
100
AcDbEntity
  8
0
100
AcDbLine
 10
249.77816013123052
 20
1051.64359964123
 30
0.0
 11
214.3464384478531
 21
1051.3343916905
 31
0.0
  0
LINE
  5
8E
330
17
100
AcDbEntity
  8
0
100
AcDbLine
 10
249.46895218050074
 20
1087.0753213246076
 30
0.0
 11
214.03723049712332
 21
1086.7661133738775
 31
0.0
  0
LINE
  5
8F
330
17
100
AcDbEntity
  8
0
100
AcDbLine
 10
245.79968449850728
 20
1507.5317519673376
 30
0.0
 11
246.1088924492371
 21
1472.10003028396
 31
0.0
  0
LINE
  5
90
330
17
100
AcDbEntity
  8
0
100
AcDbLine
 10
210.36796281512986
 20
1507.2225440166078
 30
0.0
 11
210.67717076585967
 21
1471.7908223332302
 31
0.0
  0
LINE
  5
91
330
17
100
AcDbEntity
  8
0
100
AcDbLine
 10
246.1088924492371
 20
1472.10003028396
 30
0.0
 11
210.67717076585967
 21
1471.7908223332302
 31
0.0
  0
LINE
  5
92
330
17
100
AcDbEntity
  8
0
100
AcDbLine
 10
245.79968449850728
 20
1507.5317519673376
 30
0.0
 11
210.36796281512986
 21
1507.2225440166078
 31
0.0
  0
LINE
  5
93
330
17
100
AcDbEntity
  8
0
100
AcDbLine
 10
528.2227647964176
 20
1628.1111545177632
 30
0.0
 11
173.90554796265644
 21
1625.0190750104653
 31
0.0
  0
LINE
  5
94
330
17
100
AcDbEntity
  8
0
100
AcDbLine
 10
244.76899132940798
 20
1625.637490911925
 30
0.0
 11
244.15057542794847
 21
1696.5009342786736
 31
0.0
  0
LINE
  5
95
330
17
100
AcDbEntity
  8
0
100
AcDbLine
 10
527.9135568456877
 20
1663.5428762011406
 30
0.0
 11
244.4597833786782
 21
1661.0692125953024
 31
0.0
  0
LINE
  5
96
330
17
100
AcDbEntity
  8
0
100
AcDbLine
 10
527.604348894958
 20
1698.974597884512
 30
0.0
 11
244.15057542794847
 21
1696.5009342786736
 31
0.0
  0
LINE
  5
97
330
17
100
AcDbEntity
  8
0
100
AcDbLine
 10
174.93624113175574
 20
1506.913336065878
 30
0.0
 11
104.07279776500732
 21
1506.2949201644258
 31
0.0
  0
LINE
  5
98
330
17
100
AcDbEntity
  8
0
100
AcDbLine
 10
141.97818305419293
 20
1223.1503546481415
 30
0.0
 11
139.50451944837818
 21
1506.6041281151515
 31
0.0
  0
LINE
  5
99
330
17
100
AcDbEntity
  8
0
100
AcDbLine
 10
106.54646137082548
 20
1222.8411466974155
 30
0.0
 11
104.07279776500732
 21
1506.2949201644258
 31
0.0
  0
LINE
  5
9A
330
17
100
AcDbEntity
  8
0
100
AcDbLine
 10
106.54646137082548
 20
1222.8411466974155
 30
0.0
 11
177.40990473759396
 21
1223.4595625988752
 31
0.0
  0
LINE
  5
9B
330
17
100
AcDbEntity
  8
0
100
AcDbLine
 10
385.87746216145143
 20
1697.7377660815928
 30
0.0
 11
386.49587806291095
 21
1626.8743227148439
 31
0.0
  0
LINE
  5
9C
330
17
100
AcDbEntity
  8
0
100
AcDbLine
 10
363.13237148435405
 20
1649.8335766863804
 30
0.0
 11
386.49587806291095
 21
1626.8743227148439
 31
0.0
  0
LINE
  5
9D
330
17
100
AcDbEntity
  8
0
100
AcDbLine
 10
409.45513203444784
 20
1650.237829293404
 30
0.0
 11
386.49587806291095
 21
1626.8743227148439
 31
0.0
  0
LINE
  5
9E
330
17
100
AcDbEntity
  8
0
100
AcDbLine
 10
105.3096295679165
 20
1364.5680334309152
 30
0.0
 11
176.17307293466146
 21
1365.1864493323747
 31
0.0
  0
LINE
  5
9F
330
17
100
AcDbEntity
  8
0
100
AcDbLine
 10
153.21381896312803
 20
1341.8229427538217
 30
0.0
 11
176.17307293466146
 21
1365.1864493323747
 31
0.0
  0
LINE
  5
A0
330
17
100
AcDbEntity
  8
0
100
AcDbLine
 10
152.80956635610443
 20
1388.1457033039108
 30
0.0
 11
176.17307293466146
 21
1365.1864493323747
 31
0.0
  0
LINE
  5
A1
330
17
100
AcDbEntity
  8
0
100
AcDbLine
 10
1062.8082134861406
 20
58.30701126214308
 30
0.0
 11
1063.3145501998918
 21
0.28657072249984594
 31
0.0
  0
LINE
  5
A2
330
17
100
AcDbEntity
  8
0
100
AcDbLine
 10
767.5438661246724
 20
55.730278339395
 30
0.0
 11
768.0502028384234
 21
-2.2901622002482327
 31
0.0
  0
LINE
  5
A3
330
17
100
AcDbEntity
  8
0
100
AcDbLine
 10
767.8530740754021
 20
20.29855665601781
 30
0.0
 11
1063.1174214368705
 21
22.875289578765887
 31
0.0
  0
LINE
  5
A4
330
17
100
AcDbEntity
  8
0
100
AcDbLine
 10
915.6823765191574
 20
-1.0017957388740797
 30
0.0
 11
915.1760398054064
 21
57.01864480076597
 31
0.0
  0
LINE
  5
A5
330
17
100
AcDbEntity
  8
0
100
AcDbLine
 10
938.539546383963
 20
34.05939082922578
 30
0.0
 11
915.1760398054064
 21
57.01864480076597
 31
0.0
  0
LINE
  5
A6
330
17
100
AcDbEntity
  8
0
100
AcDbLine
 10
892.2167858338763
 20
33.65513822220214
 30
0.0
 11
915.1760398054064
 21
57.01864480076597
 31
0.0
  0
LINE
  5
A7
330
17
100
AcDbEntity
  8
0
100
AcDbLine
 10
1501.543146458565
 20
133.00463321794746
 30
0.0
 11
1499.0694828527066
 21
416.4584066849534
 31
0.0
  0
LINE
  5
A8
330
17
100
AcDbEntity
  8
0
100
AcDbLine
 10
1536.9748681419424
 20
133.3138411686773
 30
0.0
 11
1534.5012045360802
 21
416.76761463568323
 31
0.0
  0
LINE
  5
A9
330
17
100
AcDbEntity
  8
0
100
AcDbLine
 10
1536.9748681419424
 20
133.3138411686773
 30
0.0
 11
1466.1114247751675
 21
132.69542526721762
 31
0.0
  0
LINE
  5
AA
330
17
100
AcDbEntity
  8
0
100
AcDbLine
 10
1535.7380363390123
 20
275.04072790218333
 30
0.0
 11
1464.874592972258
 21
274.42231200072365
 31
0.0
  0
LINE
  5
AB
330
17
100
AcDbEntity
  8
0
100
AcDbLine
 10
1488.238099550818
 20
251.46305802918766
 30
0.0
 11
1464.874592972258
 21
274.42231200072365
 31
0.0
  0
LINE
  5
AC
330
17
100
AcDbEntity
  8
0
100
AcDbLine
 10
1487.8338469437945
 20
297.7858185792812
 30
0.0
 11
1464.874592972258
 21
274.42231200072365
 31
0.0
  0
LINE
  5
AD
330
17
100
AcDbEntity
  8
0
100
AcDbLine
 10
1466.7298406766272
 20
61.83198190046278
 30
0.0
 11
1463.6377611693292
 21
416.1491987342238
 31
0.0
  0
LINE
  5
AE
330
17
100
AcDbEntity
  8
0
100
AcDbLine
 10
1771.3310983267215
 20
347.9655576071266
 30
0.0
 11
2057.934358165582
 21
350.4667063641409
 31
0.0
  0
LINE
  5
AF
330
17
100
AcDbEntity
  8
0
100
AcDbLine
 10
453.6979472448438
 20
2047.044664072992
 30
0.0
 11
456.7409055282031
 21
1698.3561819830525
 31
0.0
  0
LINE
  5
B0
330
17
100
AcDbEntity
  8
0
100
AcDbLine
 10
1774.3110986463373
 20
6.491343600477876
 30
0.0
 11
1771.3310983267215
 21
347.9655576071266
 31
0.0
  0
LINE
  5
B1
330
17
100
AcDbEntity
  8
0
100
AcDbLine
 10
1075.097474792521
 20
680.2883307807613
 30
0.0
 11
1092.8133356342064
 21
680.4429347561261
 31
0.0
  0
LINE
  5
B2
330
17
100
AcDbEntity
  8
0
100
AcDbLine
 10
1076.4373759123503
 20
526.7508701527963
 30
0.0
 11
1094.1532367540356
 21
526.9054741281611
 31
0.0
  0
LINE
  5
B3
330
17
100
AcDbEntity
  8
0
100
AcDbLine
 10
1092.8133356342064
 20
680.4429347561261
 30
0.0
 11
1091.9733207013905
 21
776.6991119959574
 31
0.0
  0
LINE
  5
B4
330
17
100
AcDbEntity
  8
0
100
AcDbLine
 10
1075.097474792521
 20
680.2883307807613
 30
0.0
 11
1074.41206383507
 21
758.8286471789067
 31
0.0
  0
LINE
  5
B5
330
17
100
AcDbEntity
  8
0
100
AcDbLine
 10
697.2982537476684
 20
661.0458378821216
 30
0.0
 11
738.6352623782734
 21
661.4065804913064
 31
0.0
  0
LINE
  5
B6
330
17
100
AcDbEntity
  8
0
100
AcDbLine
 10
823.2779035924663
 20
436.5461043255149
 30
0.0
 11
823.6077254065781
 21
398.7522678632441
 31
0.0
  0
LINE
  5
B7
330
17
100
AcDbEntity
  8
0
100
AcDbLine
 10
1000.4365120093471
 20
438.09214407916363
 30
0.0
 11
1000.7663338234589
 21
400.2983076168929
 31
0.0
  0
LINE
  5
B8
330
17
100
AcDbEntity
  8
0
100
AcDbLine
 10
1075.097474792521
 20
680.2883307807576
 30
0.0
 11
1000.591371894507
 21
604.4703696501961
 31
0.0
  0
LINE
  5
B9
330
17
100
AcDbEntity
  8
0
100
AcDbLine
 10
1076.4373759123503
 20
526.7508701527963
 30
0.0
 11
1042.7405042987652
 21
559.8646936630234
 31
0.0
  0
LINE
  5
BA
330
17
100
AcDbEntity
  8
0
100
AcDbLine
 10
764.4517866173745
 20
410.047495173156
 30
0.0
 11
882.5575255619617
 21
411.0781883422553
 31
0.0
  0
LINE
  5
BB
330
17
100
AcDbEntity
  8
0
100
AcDbLine
 10
882.5575255619617
 20
411.0781883422553
 30
0.0
 11
882.4338423816698
 21
425.25087701560665
 31
0.0
  0
LINE
  5
BC
330
17
100
AcDbEntity
  8
0
100
AcDbLine
 10
882.4338423816698
 20
425.25087701560665
 30
0.0
 11
764.3281034370826
 21
424.2201838465073
 31
0.0
  0
LINE
  5
BD
330
17
100
AcDbEntity
  8
0
100
AcDbLine
 10
764.3281034370826
 20
424.2201838465073
 30
0.0
 11
764.4517866173745
 21
410.047495173156
 31
0.0
  0
LINE
  5
BE
330
17
100
AcDbEntity
  8
0
100
AcDbLine
 10
764.4517866173745
 20
410.047495173156
 30
0.0
 11
764.4517866173745
 21
410.047495173156
 31
0.0
  0
LINE
  5
BF
330
17
100
AcDbEntity
  8
0
100
AcDbLine
 10
941.6103950342552
 20
411.593534926805
 30
0.0
 11
1059.7161339788427
 21
412.6242280959041
 31
0.0
  0
LINE
  5
C0
330
17
100
AcDbEntity
  8
0
100
AcDbLine
 10
1059.7161339788427
 20
412.6242280959041
 30
0.0
 11
1059.5924507985508
 21
426.7969167692554
 31
0.0
  0
LINE
  5
C1
330
17
100
AcDbEntity
  8
0
100
AcDbLine
 10
1059.5924507985508
 20
426.7969167692554
 30
0.0
 11
941.4867118539634
 21
425.7662236001563
 31
0.0
  0
LINE
  5
C2
330
17
100
AcDbEntity
  8
0
100
AcDbLine
 10
941.4867118539634
 20
425.7662236001563
 30
0.0
 11
941.6103950342552
 21
411.593534926805
 31
0.0
  0
LINE
  5
C3
330
17
100
AcDbEntity
  8
0
100
AcDbLine
 10
941.6103950342552
 20
411.593534926805
 30
0.0
 11
941.6103950342552
 21
411.593534926805
 31
0.0
  0
LINE
  5
C4
330
17
100
AcDbEntity
  8
0
100
AcDbLine
 10
709.5726395682213
 20
608.0013246739649
 30
0.0
 11
708.645015716032
 21
714.2964897240909
 31
0.0
  0
LINE
  5
C5
330
17
100
AcDbEntity
  8
0
100
AcDbLine
 10
708.645015716032
 20
714.2964897240909
 30
0.0
 11
726.3608765577208
 21
714.4510936994559
 31
0.0
  0
LINE
  5
C6
330
17
100
AcDbEntity
  8
0
100
AcDbLine
 10
726.3608765577208
 20
714.4510936994559
 30
0.0
 11
727.2885004099101
 21
608.1559286493298
 31
0.0
  0
LINE
  5
C7
330
17
100
AcDbEntity
  8
0
100
AcDbLine
 10
727.2885004099101
 20
608.1559286493298
 30
0.0
 11
709.5726395682213
 21
608.0013246739649
 31
0.0
  0
LINE
  5
C8
330
17
100
AcDbEntity
  8
0
100
AcDbLine
 10
709.5726395682213
 20
608.0013246739649
 30
0.0
 11
709.5726395682213
 21
608.0013246739649
 31
0.0
  0
LINE
  5
C9
330
17
100
AcDbEntity
  8
0
100
AcDbLine
 10
252.25697720291427
 20
767.599297479501
 30
0.0
 11
216.82525551953685
 21
767.2900895287712
 31
0.0
  0
LINE
  5
CA
330
17
100
AcDbEntity
  8
0
100
AcDbLine
 10
216.82525551953685
 20
767.2900895287712
 30
0.0
 11
217.13446347026667
 21
731.8583678453904
 31
0.0
  0
LINE
  5
CB
330
17
100
AcDbEntity
  8
0
100
AcDbLine
 10
217.13446347026667
 20
731.8583678453904
 30
0.0
 11
252.56618515364408
 21
732.1675757961202
 31
0.0
  0
LINE
  5
CC
330
17
100
AcDbEntity
  8
0
100
AcDbLine
 10
252.56618515364408
 20
732.1675757961202
 30
0.0
 11
252.25697720291427
 21
767.599297479501
 31
0.0
  0
LINE
  5
CD
330
17
100
AcDbEntity
  8
0
100
AcDbLine
 10
252.25697720291427
 20
767.599297479501
 30
0.0
 11
252.25697720291427
 21
767.599297479501
 31
0.0
  0
LINE
  5
CE
330
17
100
AcDbEntity
  8
0
100
AcDbLine
 10
1430.6797030917926
 20
132.38621731648777
 30
0.0
 11
1395.2479814084152
 21
132.07700936575793
 31
0.0
  0
LINE
  5
CF
330
17
100
AcDbEntity
  8
0
100
AcDbLine
 10
1395.2479814084152
 20
132.07700936575793
 30
0.0
 11
1395.557189359145
 21
96.64528768237346
 31
0.0
  0
LINE
  5
D0
330
17
100
AcDbEntity
  8
0
100
AcDbLine
 10
1395.557189359145
 20
96.64528768237346
 30
0.0
 11
1430.9889110425224
 21
96.9544956331033
 31
0.0
  0
LINE
  5
D1
330
17
100
AcDbEntity
  8
0
100
AcDbLine
 10
1430.9889110425224
 20
96.9544956331033
 30
0.0
 11
1430.6797030917926
 21
132.38621731648777
 31
0.0
  0
LINE
  5
D2
330
17
100
AcDbEntity
  8
0
100
AcDbLine
 10
1430.6797030917926
 20
132.38621731648777
 30
0.0
 11
1430.6797030917926
 21
132.38621731648777
 31
0.0
  0
LINE
  5
D3
330
17
100
AcDbEntity
  8
0
100
AcDbLine
 10
222.45799368866443
 20
121.84222619660204
 30
0.0
 11
257.88971537204185
 21
122.15143414733188
 31
0.0
  0
LINE
  5
D4
330
17
100
AcDbEntity
  8
0
100
AcDbLine
 10
257.88971537204185
 20
122.15143414733188
 30
0.0
 11
258.1989233227717
 21
86.71971246394742
 31
0.0
  0
LINE
  5
D5
330
17
100
AcDbEntity
  8
0
100
AcDbLine
 10
258.1989233227717
 20
86.71971246394742
 30
0.0
 11
222.7672016393943
 21
86.41050451321757
 31
0.0
  0
LINE
  5
D6
330
17
100
AcDbEntity
  8
0
100
AcDbLine
 10
222.7672016393943
 20
86.41050451321757
 30
0.0
 11
222.45799368866443
 21
121.84222619660204
 31
0.0
  0
LINE
  5
D7
330
17
100
AcDbEntity
  8
0
100
AcDbLine
 10
222.45799368866443
 20
121.84222619660204
 30
0.0
 11
222.45799368866443
 21
121.84222619660204
 31
0.0
  0
LINE
  5
D8
330
17
100
AcDbEntity
  8
0
100
AcDbLine
 10
709.8818475189512
 20
572.5696029905872
 30
0.0
 11
710.8094713711406
 21
466.2744379404552
 31
0.0
  0
LINE
  5
D9
330
17
100
AcDbEntity
  8
0
100
AcDbLine
 10
710.8094713711406
 20
466.2744379404552
 30
0.0
 11
728.5253322128293
 21
466.4290419158201
 31
0.0
  0
LINE
  5
DA
330
17
100
AcDbEntity
  8
0
100
AcDbLine
 10
728.5253322128293
 20
466.4290419158201
 30
0.0
 11
727.5977083606399
 21
572.7242069659521
 31
0.0
  0
LINE
  5
DB
330
17
100
AcDbEntity
  8
0
100
AcDbLine
 10
727.5977083606399
 20
572.7242069659521
 30
0.0
 11
709.8818475189512
 21
572.5696029905872
 31
0.0
  0
LINE
  5
DC
330
17
100
AcDbEntity
  8
0
100
AcDbLine
 10
709.8818475189512
 20
572.5696029905872
 30
0.0
 11
709.8818475189512
 21
572.5696029905872
 31
0.0
  0
LINE
  5
DD
330
17
100
AcDbEntity
  8
0
100
AcDbLine
 10
1533.1964639663438
 20
430.9299963773435
 30
0.0
 11
1533.3201471466357
 21
416.7573077039922
 31
0.0
  0
LINE
  5
DE
330
17
100
AcDbEntity
  8
0
100
AcDbLine
 10
1533.3201471466357
 20
416.7573077039922
 30
0.0
 11
1427.0249820965062
 21
415.8296838518029
 31
0.0
  0
LINE
  5
DF
330
17
100
AcDbEntity
  8
0
100
AcDbLine
 10
1427.0249820965062
 20
415.8296838518029
 30
0.0
 11
1426.9012989162143
 21
430.0023725251542
 31
0.0
  0
LINE
  5
E0
330
17
100
AcDbEntity
  8
0
100
AcDbLine
 10
1426.9012989162143
 20
430.0023725251542
 30
0.0
 11
1533.1964639663438
 21
430.9299963773435
 31
0.0
  0
LINE
  5
E1
330
17
100
AcDbEntity
  8
0
100
AcDbLine
 10
1533.1964639663438
 20
430.9299963773435
 30
0.0
 11
1533.1964639663438
 21
430.9299963773435
 31
0.0
  0
LINE
  5
E2
330
17
100
AcDbEntity
  8
0
100
AcDbLine
 10
1273.3638382882536
 20
428.6624714053253
 30
0.0
 11
1273.4875214685455
 21
414.48978273197395
 31
0.0
  0
LINE
  5
E3
330
17
100
AcDbEntity
  8
0
100
AcDbLine
 10
1273.4875214685455
 20
414.48978273197395
 30
0.0
 11
1167.1923564184162
 21
413.5621588797844
 31
0.0
  0
LINE
  5
E4
330
17
100
AcDbEntity
  8
0
100
AcDbLine
 10
1167.1923564184162
 20
413.5621588797844
 30
0.0
 11
1167.0686732381243
 21
427.73484755313575
 31
0.0
  0
LINE
  5
E5
330
17
100
AcDbEntity
  8
0
100
AcDbLine
 10
1167.0686732381243
 20
427.73484755313575
 30
0.0
 11
1273.3638382882536
 21
428.6624714053253
 31
0.0
  0
LINE
  5
E6
330
17
100
AcDbEntity
  8
0
100
AcDbLine
 10
1273.3638382882536
 20
428.6624714053253
 30
0.0
 11
1273.3638382882536
 21
428.6624714053253
 31
0.0
  0
LINE
  5
E7
330
17
100
AcDbEntity
  8
0
100
AcDbLine
 10
2057.3159422641224
 20
421.3301497308962
 30
0.0
 11
1958.5008073471488
 21
420.4678031127496
 31
0.0
  0
LINE
  5
E8
330
17
100
AcDbEntity
  8
0
100
AcDbLine
 10
1958.5008073471488
 20
420.4678031127496
 30
0.0
 11
1958.377124166857
 21
434.64049178610094
 31
0.0
  0
LINE
  5
E9
330
17
100
AcDbEntity
  8
0
100
AcDbLine
 10
1958.377124166857
 20
434.64049178610094
 30
0.0
 11
2057.1922590838303
 21
435.50283840424754
 31
0.0
  0
LINE
  5
EA
330
17
100
AcDbEntity
  8
0
100
AcDbLine
 10
1804.8396635388954
 20
433.300590666272
 30
0.0
 11
1804.9633467191873
 21
419.12790199292067
 31
0.0
  0
LINE
  5
EB
330
17
100
AcDbEntity
  8
0
100
AcDbLine
 10
1804.9633467191873
 20
419.12790199292067
 30
0.0
 11
1698.6681816690589
 21
418.20027814073137
 31
0.0
  0
LINE
  5
EC
330
17
100
AcDbEntity
  8
0
100
AcDbLine
 10
1698.6681816690589
 20
418.20027814073137
 30
0.0
 11
1698.544498488767
 21
432.3729668140827
 31
0.0
  0
LINE
  5
ED
330
17
100
AcDbEntity
  8
0
100
AcDbLine
 10
1698.544498488767
 20
432.3729668140827
 30
0.0
 11
1804.8396635388954
 21
433.300590666272
 31
0.0
  0
LINE
  5
EE
330
17
100
AcDbEntity
  8
0
100
AcDbLine
 10
1804.8396635388954
 20
433.300590666272
 30
0.0
 11
1804.8396635388954
 21
433.300590666272
 31
0.0
  0
LINE
  5
EF
330
17
100
AcDbEntity
  8
0
100
AcDbLine
 10
1605.0554399521054
 20
452.8177522205133
 30
0.0
 11
1626.3144729621288
 21
453.003276990951
 31
0.0
  0
LINE
  5
F0
330
17
100
AcDbEntity
  8
0
100
AcDbLine
 10
1626.3144729621288
 20
453.003276990951
 30
0.0
 11
1626.4999977325665
 21
431.74424398093197
 31
0.0
  0
LINE
  5
F1
330
17
100
AcDbEntity
  8
0
100
AcDbLine
 10
1626.4999977325665
 20
431.74424398093197
 30
0.0
 11
1605.2409647225431
 21
431.55871921049425
 31
0.0
  0
LINE
  5
F2
330
17
100
AcDbEntity
  8
0
100
AcDbLine
 10
1605.2409647225431
 20
431.55871921049425
 30
0.0
 11
1605.0554399521054
 21
452.8177522205133
 31
0.0
  0
LINE
  5
F3
330
17
100
AcDbEntity
  8
0
100
AcDbLine
 10
1605.0554399521054
 20
452.8177522205133
 30
0.0
 11
1605.0554399521054
 21
452.8177522205133
 31
0.0
  0
LINE
  5
F4
330
17
100
AcDbEntity
  8
0
100
AcDbLine
 10
1073.5796147014637
 20
448.17963295956633
 30
0.0
 11
1094.8386477114866
 21
448.3651577300043
 31
0.0
  0
LINE
  5
F5
330
17
100
AcDbEntity
  8
0
100
AcDbLine
 10
1094.8386477114866
 20
448.3651577300043
 30
0.0
 11
1095.0241724819243
 21
427.10612471998525
 31
0.0
  0
LINE
  5
F6
330
17
100
AcDbEntity
  8
0
100
AcDbLine
 10
1095.0241724819243
 20
427.10612471998525
 30
0.0
 11
1073.7651394719014
 21
426.9205999495473
 31
0.0
  0
LINE
  5
F7
330
17
100
AcDbEntity
  8
0
100
AcDbLine
 10
1073.7651394719014
 20
426.9205999495473
 30
0.0
 11
1073.5796147014637
 21
448.17963295956633
 31
0.0
  0
LINE
  5
F8
330
17
100
AcDbEntity
  8
0
100
AcDbLine
 10
1073.5796147014637
 20
448.17963295956633
 30
0.0
 11
1073.5796147014637
 21
448.17963295956633
 31
0.0
  0
LINE
  5
F9
330
17
100
AcDbEntity
  8
0
100
AcDbLine
 10
552.7333059558312
 20
443.6342760838386
 30
0.0
 11
573.9923389658579
 21
443.8198008542764
 31
0.0
  0
LINE
  5
FA
330
17
100
AcDbEntity
  8
0
100
AcDbLine
 10
573.9923389658579
 20
443.8198008542764
 30
0.0
 11
574.1778637362958
 21
422.5607678442574
 31
0.0
  0
LINE
  5
FB
330
17
100
AcDbEntity
  8
0
100
AcDbLine
 10
574.1778637362958
 20
422.5607678442574
 30
0.0
 11
552.918830726269
 21
422.37524307381955
 31
0.0
  0
LINE
  5
FC
330
17
100
AcDbEntity
  8
0
100
AcDbLine
 10
552.918830726269
 20
422.37524307381955
 30
0.0
 11
552.7333059558312
 21
443.6342760838386
 31
0.0
  0
LINE
  5
FD
330
17
100
AcDbEntity
  8
0
100
AcDbLine
 10
552.7333059558312
 20
443.6342760838386
 30
0.0
 11
552.7333059558312
 21
443.6342760838386
 31
0.0
  0
LINE
  5
FE
330
17
100
AcDbEntity
  8
0
100
AcDbLine
 10
1599.4793899072783
 20
1091.7697999107334
 30
0.0
 11
1620.7384229173017
 21
1091.955324681171
 31
0.0
  0
LINE
  5
FF
330
17
100
AcDbEntity
  8
0
100
AcDbLine
 10
1620.7384229173017
 20
1091.955324681171
 30
0.0
 11
1620.9239476877394
 21
1070.696291671148
 31
0.0
  0
LINE
  5
100
330
17
100
AcDbEntity
  8
0
100
AcDbLine
 10
1620.9239476877394
 20
1070.696291671148
 30
0.0
 11
1599.664914677716
 21
1070.5107669007102
 31
0.0
  0
LINE
  5
101
330
17
100
AcDbEntity
  8
0
100
AcDbLine
 10
1599.664914677716
 20
1070.5107669007102
 30
0.0
 11
1599.4793899072783
 21
1091.7697999107334
 31
0.0
  0
LINE
  5
102
330
17
100
AcDbEntity
  8
0
100
AcDbLine
 10
1599.4793899072783
 20
1091.7697999107334
 30
0.0
 11
1599.4793899072783
 21
1091.7697999107334
 31
0.0
  0
LINE
  5
103
330
17
100
AcDbEntity
  8
0
100
AcDbLine
 10
1068.0035646566366
 20
1087.1316806497864
 30
0.0
 11
1089.2625976666595
 21
1087.3172054202244
 31
0.0
  0
LINE
  5
104
330
17
100
AcDbEntity
  8
0
100
AcDbLine
 10
1089.2625976666595
 20
1087.3172054202244
 30
0.0
 11
1089.4481224370973
 21
1066.0581724102012
 31
0.0
  0
LINE
  5
105
330
17
100
AcDbEntity
  8
0
100
AcDbLine
 10
1089.4481224370973
 20
1066.0581724102012
 30
0.0
 11
1068.1890894270744
 21
1065.8726476397633
 31
0.0
  0
LINE
  5
106
330
17
100
AcDbEntity
  8
0
100
AcDbLine
 10
1068.1890894270744
 20
1065.8726476397633
 30
0.0
 11
1068.0035646566366
 21
1087.1316806497864
 31
0.0
  0
LINE
  5
107
330
17
100
AcDbEntity
  8
0
100
AcDbLine
 10
1068.0035646566366
 20
1087.1316806497864
 30
0.0
 11
1068.0035646566366
 21
1087.1316806497864
 31
0.0
  0
LINE
  5
108
330
17
100
AcDbEntity
  8
0
100
AcDbLine
 10
547.157255911004
 20
1082.5863237740587
 30
0.0
 11
568.4162889210307
 21
1082.7718485444964
 31
0.0
  0
LINE
  5
109
330
17
100
AcDbEntity
  8
0
100
AcDbLine
 10
568.4162889210307
 20
1082.7718485444964
 30
0.0
 11
568.6018136914686
 21
1061.5128155344732
 31
0.0
  0
LINE
  5
10A
330
17
100
AcDbEntity
  8
0
100
AcDbLine
 10
568.6018136914686
 20
1061.5128155344732
 30
0.0
 11
547.3427806814418
 21
1061.3272907640355
 31
0.0
  0
LINE
  5
10B
330
17
100
AcDbEntity
  8
0
100
AcDbLine
 10
547.3427806814418
 20
1061.3272907640355
 30
0.0
 11
547.157255911004
 21
1082.5863237740587
 31
0.0
  0
LINE
  5
10C
330
17
100
AcDbEntity
  8
0
100
AcDbLine
 10
547.157255911004
 20
1082.5863237740587
 30
0.0
 11
547.157255911004
 21
1082.5863237740587
 31
0.0
  0
LINE
  5
10D
330
17
100
AcDbEntity
  8
0
100
AcDbLine
 10
1593.810577477232
 20
1741.3513641059626
 30
0.0
 11
1615.0696104872554
 21
1741.5368888764006
 31
0.0
  0
LINE
  5
10E
330
17
100
AcDbEntity
  8
0
100
AcDbLine
 10
1615.0696104872554
 20
1741.5368888764006
 30
0.0
 11
1615.2551352576934
 21
1720.2778558663767
 31
0.0
  0
LINE
  5
10F
330
17
100
AcDbEntity
  8
0
100
AcDbLine
 10
1615.2551352576934
 20
1720.2778558663767
 30
0.0
 11
1593.99610224767
 21
1720.0923310959392
 31
0.0
  0
LINE
  5
110
330
17
100
AcDbEntity
  8
0
100
AcDbLine
 10
1593.99610224767
 20
1720.0923310959392
 30
0.0
 11
1593.810577477232
 21
1741.3513641059626
 31
0.0
  0
LINE
  5
111
330
17
100
AcDbEntity
  8
0
100
AcDbLine
 10
1593.810577477232
 20
1741.3513641059626
 30
0.0
 11
1593.810577477232
 21
1741.3513641059626
 31
0.0
  0
LINE
  5
112
330
17
100
AcDbEntity
  8
0
100
AcDbLine
 10
1062.3347522265904
 20
1736.7132448450157
 30
0.0
 11
1083.5937852366133
 21
1736.8987696154536
 31
0.0
  0
LINE
  5
113
330
17
100
AcDbEntity
  8
0
100
AcDbLine
 10
1083.5937852366133
 20
1736.8987696154536
 30
0.0
 11
1083.7793100070512
 21
1715.6397366054302
 31
0.0
  0
LINE
  5
114
330
17
100
AcDbEntity
  8
0
100
AcDbLine
 10
1083.7793100070512
 20
1715.6397366054302
 30
0.0
 11
1062.5202769970283
 21
1715.4542118349923
 31
0.0
  0
LINE
  5
115
330
17
100
AcDbEntity
  8
0
100
AcDbLine
 10
1062.5202769970283
 20
1715.4542118349923
 30
0.0
 11
1062.3347522265904
 21
1736.7132448450157
 31
0.0
  0
LINE
  5
116
330
17
100
AcDbEntity
  8
0
100
AcDbLine
 10
1062.3347522265904
 20
1736.7132448450157
 30
0.0
 11
1062.3347522265904
 21
1736.7132448450157
 31
0.0
  0
LINE
  5
117
330
17
100
AcDbEntity
  8
0
100
AcDbLine
 10
541.4884434809579
 20
1732.1678879692881
 30
0.0
 11
562.7474764909847
 21
1732.3534127397259
 31
0.0
  0
LINE
  5
118
330
17
100
AcDbEntity
  8
0
100
AcDbLine
 10
562.7474764909847
 20
1732.3534127397259
 30
0.0
 11
562.9330012614225
 21
1711.0943797297023
 31
0.0
  0
LINE
  5
119
330
17
100
AcDbEntity
  8
0
100
AcDbLine
 10
562.9330012614225
 20
1711.0943797297023
 30
0.0
 11
541.6739682513958
 21
1710.9088549592643
 31
0.0
  0
LINE
  5
11A
330
17
100
AcDbEntity
  8
0
100
AcDbLine
 10
541.6739682513958
 20
1710.9088549592643
 30
0.0
 11
541.4884434809579
 21
1732.1678879692881
 31
0.0
  0
LINE
  5
11B
330
17
100
AcDbEntity
  8
0
100
AcDbLine
 10
541.4884434809579
 20
1732.1678879692881
 30
0.0
 11
541.4884434809579
 21
1732.1678879692881
 31
0.0
  0
LINE
  5
11C
330
17
100
AcDbEntity
  8
0
100
AcDbLine
 10
722.6200452656003
 20
466.3775072573683
 30
0.0
 11
722.5478967437634
 21
474.64490898348845
 31
0.0
  0
LINE
  5
11D
330
17
100
AcDbEntity
  8
0
100
AcDbLine
 10
722.5478967437634
 20
474.64490898348845
 30
0.0
 11
728.4531836909923
 21
474.69644364194346
 31
0.0
  0
LINE
  5
11E
330
17
100
AcDbEntity
  8
0
100
AcDbLine
 10
728.4531836909923
 20
474.69644364194346
 30
0.0
 11
728.4531836909923
 21
474.69644364194346
 31
0.0
  0
LINE
  5
11F
330
17
100
AcDbEntity
  8
0
100
AcDbLine
 10
725.5005402173781
 20
474.67067631271595
 30
0.0
 11
724.7172134088626
 21
564.4310379106049
 31
0.0
  0
LINE
  5
120
330
17
100
AcDbEntity
  8
0
100
AcDbLine
 10
724.7172134088626
 20
564.4310379106049
 30
0.0
 11
721.7645699352479
 21
564.4052705813774
 31
0.0
  0
LINE
  5
121
330
17
100
AcDbEntity
  8
0
100
AcDbLine
 10
721.7645699352479
 20
564.4052705813774
 30
0.0
 11
722.5478967437634
 21
474.64490898348845
 31
0.0
  0
LINE
  5
122
330
17
100
AcDbEntity
  8
0
100
AcDbLine
 10
722.5478967437634
 20
474.64490898348845
 30
0.0
 11
725.5005402173781
 21
474.67067631271595
 31
0.0
  0
LINE
  5
123
330
17
100
AcDbEntity
  8
0
100
AcDbLine
 10
725.5005402173781
 20
474.67067631271595
 30
0.0
 11
725.5005402173781
 21
474.67067631271595
 31
0.0
  0
LINE
  5
124
330
17
100
AcDbEntity
  8
0
100
AcDbLine
 10
727.2885004099101
 20
608.1559286493298
 30
0.0
 11
727.6698568824768
 21
564.4568052398324
 31
0.0
  0
LINE
  5
125
330
17
100
AcDbEntity
  8
0
100
AcDbLine
 10
727.6698568824768
 20
564.4568052398324
 30
0.0
 11
721.7645699352479
 21
564.4052705813774
 31
0.0
  0
LINE
  5
126
330
17
100
AcDbEntity
  8
0
100
AcDbLine
 10
721.7645699352479
 20
564.4052705813774
 30
0.0
 11
721.692421413411
 21
572.6726723074971
 31
0.0
  0
LINE
  5
127
330
17
100
AcDbEntity
  8
0
100
AcDbLine
 10
727.5977083606399
 20
572.7242069659521
 30
0.0
 11
727.5977083606399
 21
572.7242069659521
 31
0.0
  0
LINE
  5
128
330
17
100
AcDbEntity
  8
0
100
AcDbLine
 10
1426.9734474380546
 20
421.73497079902813
 30
0.0
 11
1435.2408491641759
 21
421.80711932086524
 31
0.0
  0
LINE
  5
129
330
17
100
AcDbEntity
  8
0
100
AcDbLine
 10
1435.2408491641759
 20
421.80711932086524
 30
0.0
 11
1435.2923838226309
 21
415.9018323736368
 31
0.0
  0
LINE
  5
12A
330
17
100
AcDbEntity
  8
0
100
AcDbLine
 10
1435.2923838226309
 20
415.9018323736368
 30
0.0
 11
1435.2923838226309
 21
415.9018323736368
 31
0.0
  0
LINE
  5
12B
330
17
100
AcDbEntity
  8
0
100
AcDbLine
 10
1435.2666164934033
 20
418.854475847251
 30
0.0
 11
1525.0269780912909
 21
419.63780265576634
 31
0.0
  0
LINE
  5
12C
330
17
100
AcDbEntity
  8
0
100
AcDbLine
 10
1525.0269780912909
 20
419.63780265576634
 30
0.0
 11
1525.0012107620635
 21
422.59044612938055
 31
0.0
  0
LINE
  5
12D
330
17
100
AcDbEntity
  8
0
100
AcDbLine
 10
1525.0012107620635
 20
422.59044612938055
 30
0.0
 11
1435.2408491641759
 21
421.80711932086524
 31
0.0
  0
LINE
  5
12E
330
17
100
AcDbEntity
  8
0
100
AcDbLine
 10
1435.2408491641759
 20
421.80711932086524
 30
0.0
 11
1435.2666164934033
 21
418.854475847251
 31
0.0
  0
LINE
  5
12F
330
17
100
AcDbEntity
  8
0
100
AcDbLine
 10
1435.2666164934033
 20
418.854475847251
 30
0.0
 11
1435.2666164934033
 21
418.854475847251
 31
0.0
  0
LINE
  5
130
330
17
100
AcDbEntity
  8
0
100
AcDbLine
 10
1706.9355833951827
 20
418.27242666256507
 30
0.0
 11
1525.0527454205185
 21
416.6851591821521
 31
0.0
  0
LINE
  5
131
330
17
100
AcDbEntity
  8
0
100
AcDbLine
 10
1525.0527454205185
 20
416.6851591821521
 30
0.0
 11
1525.0012107620635
 21
422.59044612938055
 31
0.0
  0
LINE
  5
132
330
17
100
AcDbEntity
  8
0
100
AcDbLine
 10
1525.0012107620635
 20
422.59044612938055
 30
0.0
 11
1533.2686124881845
 21
422.66259465121766
 31
0.0
  0
LINE
  5
133
330
17
100
AcDbEntity
  8
0
100
AcDbLine
 10
1533.3201471466396
 20
416.7573077039892
 30
0.0
 11
1533.3201471466396
 21
416.7573077039892
 31
0.0
  0
LINE
  5
134
330
17
100
AcDbEntity
  8
0
100
AcDbLine
 10
1167.1408217599646
 20
419.46744582700967
 30
0.0
 11
1175.4082234860853
 21
419.5395943488468
 31
0.0
  0
LINE
  5
135
330
17
100
AcDbEntity
  8
0
100
AcDbLine
 10
1175.4082234860853
 20
419.5395943488468
 30
0.0
 11
1175.4597581445403
 21
413.63430740161834
 31
0.0
  0
LINE
  5
136
330
17
100
AcDbEntity
  8
0
100
AcDbLine
 10
1175.4597581445403
 20
413.63430740161834
 30
0.0
 11
1175.4597581445403
 21
413.63430740161834
 31
0.0
  0
LINE
  5
137
330
17
100
AcDbEntity
  8
0
100
AcDbLine
 10
1175.4339908153127
 20
416.58695087523256
 30
0.0
 11
1265.1943524132005
 21
417.3702776837479
 31
0.0
  0
LINE
  5
138
330
17
100
AcDbEntity
  8
0
100
AcDbLine
 10
1265.1943524132005
 20
417.3702776837479
 30
0.0
 11
1265.168585083973
 21
420.3229211573621
 31
0.0
  0
LINE
  5
139
330
17
100
AcDbEntity
  8
0
100
AcDbLine
 10
1265.168585083973
 20
420.3229211573621
 30
0.0
 11
1175.4082234860853
 21
419.5395943488468
 31
0.0
  0
LINE
  5
13A
330
17
100
AcDbEntity
  8
0
100
AcDbLine
 10
1175.4082234860853
 20
419.5395943488468
 30
0.0
 11
1175.4339908153127
 21
416.58695087523256
 31
0.0
  0
LINE
  5
13B
330
17
100
AcDbEntity
  8
0
100
AcDbLine
 10
1175.4339908153127
 20
416.58695087523256
 30
0.0
 11
1175.4339908153127
 21
416.58695087523256
 31
0.0
  0
LINE
  5
13C
330
17
100
AcDbEntity
  8
0
100
AcDbLine
 10
1435.2923838226309
 20
415.9018323736368
 30
0.0
 11
1265.220119742428
 21
414.41763421013366
 31
0.0
  0
LINE
  5
13D
330
17
100
AcDbEntity
  8
0
100
AcDbLine
 10
1265.220119742428
 20
414.41763421013366
 30
0.0
 11
1265.168585083973
 21
420.3229211573621
 31
0.0
  0
LINE
  5
13E
330
17
100
AcDbEntity
  8
0
100
AcDbLine
 10
1265.168585083973
 20
420.3229211573621
 30
0.0
 11
1273.435986810094
 21
420.3950696791992
 31
0.0
  0
LINE
  5
13F
330
17
100
AcDbEntity
  8
0
100
AcDbLine
 10
1273.487521468549
 20
414.48978273197076
 30
0.0
 11
1273.487521468549
 21
414.48978273197076
 31
0.0
  0
LINE
  5
140
330
17
100
AcDbEntity
  8
0
100
AcDbLine
 10
1958.4492726886972
 20
426.37309005997486
 30
0.0
 11
1966.7166744148183
 21
426.44523858181196
 31
0.0
  0
LINE
  5
141
330
17
100
AcDbEntity
  8
0
100
AcDbLine
 10
1966.7166744148183
 20
426.44523858181196
 30
0.0
 11
1966.7682090732733
 21
420.53995163458353
 31
0.0
  0
LINE
  5
142
330
17
100
AcDbEntity
  8
0
100
AcDbLine
 10
1966.7682090732733
 20
420.53995163458353
 30
0.0
 11
1966.7682090732733
 21
420.53995163458353
 31
0.0
  0
LINE
  5
143
330
17
100
AcDbEntity
  8
0
100
AcDbLine
 10
1966.7424417440457
 20
423.49259510819775
 30
0.0
 11
2056.5028033419344
 21
424.2759219167133
 31
0.0
  0
LINE
  5
144
330
17
100
AcDbEntity
  8
0
100
AcDbLine
 10
2056.5028033419344
 20
424.2759219167133
 30
0.0
 11
2056.477036012707
 21
427.2285653903275
 31
0.0
  0
LINE
  5
145
330
17
100
AcDbEntity
  8
0
100
AcDbLine
 10
2056.477036012707
 20
427.2285653903275
 30
0.0
 11
1966.7166744148183
 21
426.44523858181196
 31
0.0
  0
LINE
  5
146
330
17
100
AcDbEntity
  8
0
100
AcDbLine
 10
1966.7166744148183
 20
426.44523858181196
 30
0.0
 11
1966.7424417440457
 21
423.49259510819775
 31
0.0
  0
LINE
  5
147
330
17
100
AcDbEntity
  8
0
100
AcDbLine
 10
1966.7424417440457
 20
423.49259510819775
 30
0.0
 11
1966.7424417440457
 21
423.49259510819775
 31
0.0
  0
LINE
  5
148
330
17
100
AcDbEntity
  8
0
100
AcDbLine
 10
2057.3159422641224
 20
421.330149730893
 30
0.0
 11
2056.528570671162
 21
421.32327844309907
 31
0.0
  0
LINE
  5
149
330
17
100
AcDbEntity
  8
0
100
AcDbLine
 10
2056.528570671162
 20
421.32327844309907
 30
0.0
 11
2056.477036012707
 21
427.2285653903275
 31
0.0
  0
LINE
  5
14A
330
17
100
AcDbEntity
  8
0
100
AcDbLine
 10
2056.477036012707
 20
427.2285653903275
 30
0.0
 11
2057.264407605667
 21
427.23543667812146
 31
0.0
  0
LINE
  5
14B
330
17
100
AcDbEntity
  8
0
100
AcDbLine
 10
1698.6166470106066
 20
424.1055650879566
 30
0.0
 11
1706.8840487367277
 21
424.1777136097935
 31
0.0
  0
LINE
  5
14C
330
17
100
AcDbEntity
  8
0
100
AcDbLine
 10
1706.8840487367277
 20
424.1777136097935
 30
0.0
 11
1706.9355833951827
 21
418.27242666256507
 31
0.0
  0
LINE
  5
14D
330
17
100
AcDbEntity
  8
0
100
AcDbLine
 10
1706.9355833951827
 20
418.27242666256507
 30
0.0
 11
1706.9355833951827
 21
418.27242666256507
 31
0.0
  0
LINE
  5
14E
330
17
100
AcDbEntity
  8
0
100
AcDbLine
 10
1706.909816065955
 20
421.2250701361793
 30
0.0
 11
1796.6701776638436
 21
422.0083969446948
 31
0.0
  0
LINE
  5
14F
330
17
100
AcDbEntity
  8
0
100
AcDbLine
 10
1796.6701776638436
 20
422.0083969446948
 30
0.0
 11
1796.6444103346162
 21
424.96104041830904
 31
0.0
  0
LINE
  5
150
330
17
100
AcDbEntity
  8
0
100
AcDbLine
 10
1796.6444103346162
 20
424.96104041830904
 30
0.0
 11
1706.8840487367277
 21
424.1777136097935
 31
0.0
  0
LINE
  5
151
330
17
100
AcDbEntity
  8
0
100
AcDbLine
 10
1706.8840487367277
 20
424.1777136097935
 30
0.0
 11
1706.909816065955
 21
421.2250701361793
 31
0.0
  0
LINE
  5
152
330
17
100
AcDbEntity
  8
0
100
AcDbLine
 10
1706.909816065955
 20
421.2250701361793
 30
0.0
 11
1706.909816065955
 21
421.2250701361793
 31
0.0
  0
LINE
  5
153
330
17
100
AcDbEntity
  8
0
100
AcDbLine
 10
1966.7682090732733
 20
420.53995163458353
 30
0.0
 11
1796.6959449930712
 21
419.0557534710806
 31
0.0
  0
LINE
  5
154
330
17
100
AcDbEntity
  8
0
100
AcDbLine
 10
1796.6959449930712
 20
419.0557534710806
 30
0.0
 11
1796.6444103346162
 21
424.96104041830904
 31
0.0
  0
LINE
  5
155
330
17
100
AcDbEntity
  8
0
100
AcDbLine
 10
1796.6444103346162
 20
424.96104041830904
 30
0.0
 11
1804.911812060736
 21
425.0331889401459
 31
0.0
  0
LINE
  5
156
330
17
100
AcDbEntity
  8
0
100
AcDbLine
 10
1804.9633467191911
 20
419.1279019929175
 30
0.0
 11
1804.9633467191911
 21
419.1279019929175
 31
0.0
  0
LINE
  5
157
330
17
100
AcDbEntity
  8
0
100
AcDbLine
 10
816.8025534688907
 20
768.3919964070625
 30
0.0
 11
816.7782410852434
 21
768.9187024741924
 31
0.0
  0
LINE
  5
158
330
17
100
AcDbEntity
  8
0
100
AcDbLine
 10
816.7782410852434
 20
768.9187024741924
 30
0.0
 11
816.7146358902621
 21
769.442118897628
 31
0.0
  0
LINE
  5
159
330
17
100
AcDbEntity
  8
0
100
AcDbLine
 10
816.7146358902621
 20
769.442118897628
 30
0.0
 11
816.6120935899985
 21
769.9593185204114
 31
0.0
  0
LINE
  5
15A
330
17
100
AcDbEntity
  8
0
100
AcDbLine
 10
816.6120935899985
 20
769.9593185204114
 30
0.0
 11
816.4711876425905
 21
770.4674089524563
 31
0.0
  0
LINE
  5
15B
330
17
100
AcDbEntity
  8
0
100
AcDbLine
 10
816.4711876425905
 20
770.4674089524563
 30
0.0
 11
816.2927060512527
 21
770.9635487459661
 31
0.0
  0
LINE
  5
15C
330
17
100
AcDbEntity
  8
0
100
AcDbLine
 10
816.2927060512527
 20
770.9635487459661
 30
0.0
 11
816.0776469574429
 21
771.4449632859631
 31
0.0
  0
LINE
  5
15D
330
17
100
AcDbEntity
  8
0
100
AcDbLine
 10
816.0776469574429
 20
771.4449632859631
 30
0.0
 11
815.8272130588493
 21
771.908960307059
 31
0.0
  0
LINE
  5
15E
330
17
100
AcDbEntity
  8
0
100
AcDbLine
 10
815.8272130588493
 20
771.908960307059
 30
0.0
 11
815.5428048834189
 21
772.3529449496971
 31
0.0
  0
LINE
  5
15F
330
17
100
AcDbEntity
  8
0
100
AcDbLine
 10
815.5428048834189
 20
772.3529449496971
 30
0.0
 11
815.2260129570349
 21
772.7744342716604
 31
0.0
  0
LINE
  5
160
330
17
100
AcDbEntity
  8
0
100
AcDbLine
 10
815.2260129570349
 20
772.7744342716604
 30
0.0
 11
814.8786089086523
 21
773.1710711336862
 31
0.0
  0
LINE
  5
161
330
17
100
AcDbEntity
  8
0
100
AcDbLine
 10
814.8786089086523
 20
773.1710711336862
 30
0.0
 11
814.5025355626301
 21
773.5406373815528
 31
0.0
  0
LINE
  5
162
330
17
100
AcDbEntity
  8
0
100
AcDbLine
 10
814.5025355626301
 20
773.5406373815528
 30
0.0
 11
814.099896073669
 21
773.881066250892
 31
0.0
  0
LINE
  5
163
330
17
100
AcDbEntity
  8
0
100
AcDbLine
 10
814.099896073669
 20
773.881066250892
 30
0.0
 11
813.6729421651163
 21
774.1904539253753
 31
0.0
  0
LINE
  5
164
330
17
100
AcDbEntity
  8
0
100
AcDbLine
 10
813.6729421651163
 20
774.1904539253753
 30
0.0
 11
813.2240615364176
 21
774.4670701836278
 31
0.0
  0
LINE
  5
165
330
17
100
AcDbEntity
  8
0
100
AcDbLine
 10
813.2240615364176
 20
774.4670701836278
 30
0.0
 11
812.7557645101317
 21
774.7093680753275
 31
0.0
  0
LINE
  5
166
330
17
100
AcDbEntity
  8
0
100
AcDbLine
 10
812.7557645101317
 20
774.7093680753275
 30
0.0
 11
812.2706699931882
 21
774.9159925723789
 31
0.0
  0
LINE
  5
167
330
17
100
AcDbEntity
  8
0
100
AcDbLine
 10
812.2706699931882
 20
774.9159925723789
 30
0.0
 11
811.7714908308983
 21
775.0857881467799
 31
0.0
  0
LINE
  5
168
330
17
100
AcDbEntity
  8
0
100
AcDbLine
 10
811.7714908308983
 20
775.0857881467799
 30
0.0
 11
811.2610186356236
 21
775.2178052328028
 31
0.0
  0
LINE
  5
169
330
17
100
AcDbEntity
  8
0
100
AcDbLine
 10
811.2610186356236
 20
775.2178052328028
 30
0.0
 11
810.7421081749466
 21
775.3113055373512
 31
0.0
  0
LINE
  5
16A
330
17
100
AcDbEntity
  8
0
100
AcDbLine
 10
810.7421081749466
 20
775.3113055373512
 30
0.0
 11
810.2176614066532
 21
775.365766168795
 31
0.0
  0
LINE
  5
16B
330
17
100
AcDbEntity
  8
0
100
AcDbLine
 10
810.2176614066532
 20
775.365766168795
 30
0.0
 11
809.6906112498074
 21
775.3808825611925
 31
0.0
  0
LINE
  5
16C
330
17
100
AcDbEntity
  8
0
100
AcDbLine
 10
809.6906112498074
 20
775.3808825611925
 30
0.0
 11
809.163905182677
 21
775.3565701775448
 31
0.0
  0
LINE
  5
16D
330
17
100
AcDbEntity
  8
0
100
AcDbLine
 10
809.163905182677
 20
775.3565701775448
 30
0.0
 11
808.6404887592414
 21
775.292964982564
 31
0.0
  0
LINE
  5
16E
330
17
100
AcDbEntity
  8
0
100
AcDbLine
 10
808.6404887592414
 20
775.292964982564
 30
0.0
 11
808.1232891364582
 21
775.1904226823004
 31
0.0
  0
LINE
  5
16F
330
17
100
AcDbEntity
  8
0
100
AcDbLine
 10
808.1232891364582
 20
775.1904226823004
 30
0.0
 11
807.6151987044132
 21
775.0495167348923
 31
0.0
  0
LINE
  5
170
330
17
100
AcDbEntity
  8
0
100
AcDbLine
 10
807.6151987044132
 20
775.0495167348923
 30
0.0
 11
807.1190589109034
 21
774.8710351435543
 31
0.0
  0
LINE
  5
171
330
17
100
AcDbEntity
  8
0
100
AcDbLine
 10
807.1190589109034
 20
774.8710351435543
 30
0.0
 11
806.6376443709069
 21
774.6559760497445
 31
0.0
  0
LINE
  5
172
330
17
100
AcDbEntity
  8
0
100
AcDbLine
 10
806.6376443709069
 20
774.6559760497445
 30
0.0
 11
806.1736473498107
 21
774.4055421511512
 31
0.0
  0
LINE
  5
173
330
17
100
AcDbEntity
  8
0
100
AcDbLine
 10
806.1736473498107
 20
774.4055421511512
 30
0.0
 11
805.7296627071722
 21
774.1211339757208
 31
0.0
  0
LINE
  5
174
330
17
100
AcDbEntity
  8
0
100
AcDbLine
 10
805.7296627071722
 20
774.1211339757208
 30
0.0
 11
805.3081733852099
 21
773.8043420493368
 31
0.0
  0
LINE
  5
175
330
17
100
AcDbEntity
  8
0
100
AcDbLine
 10
805.3081733852099
 20
773.8043420493368
 30
0.0
 11
804.9115365231836
 21
773.4569380009542
 31
0.0
  0
LINE
  5
176
330
17
100
AcDbEntity
  8
0
100
AcDbLine
 10
804.9115365231836
 20
773.4569380009542
 30
0.0
 11
804.5419702753168
 21
773.0808646549322
 31
0.0
  0
LINE
  5
177
330
17
100
AcDbEntity
  8
0
100
AcDbLine
 10
804.5419702753168
 20
773.0808646549322
 30
0.0
 11
804.2015414059779
 21
772.6782251659714
 31
0.0
  0
LINE
  5
178
330
17
100
AcDbEntity
  8
0
100
AcDbLine
 10
804.2015414059779
 20
772.6782251659714
 30
0.0
 11
803.8921537314944
 21
772.251271257418
 31
0.0
  0
LINE
  5
179
330
17
100
AcDbEntity
  8
0
100
AcDbLine
 10
803.8921537314944
 20
772.251271257418
 30
0.0
 11
803.6155374732417
 21
771.8023906287196
 31
0.0
  0
LINE
  5
17A
330
17
100
AcDbEntity
  8
0
100
AcDbLine
 10
803.6155374732417
 20
771.8023906287196
 30
0.0
 11
803.373239581542
 21
771.3340936024337
 31
0.0
  0
LINE
  5
17B
330
17
100
AcDbEntity
  8
0
100
AcDbLine
 10
803.373239581542
 20
771.3340936024337
 30
0.0
 11
803.1666150844907
 21
770.8489990854898
 31
0.0
  0
LINE
  5
17C
330
17
100
AcDbEntity
  8
0
100
AcDbLine
 10
803.1666150844907
 20
770.8489990854898
 30
0.0
 11
802.9968195100896
 21
770.3498199231999
 31
0.0
  0
LINE
  5
17D
330
17
100
AcDbEntity
  8
0
100
AcDbLine
 10
802.9968195100896
 20
770.3498199231999
 30
0.0
 11
802.8648024240671
 21
769.8393477279253
 31
0.0
  0
LINE
  5
17E
330
17
100
AcDbEntity
  8
0
100
AcDbLine
 10
802.8648024240671
 20
769.8393477279253
 30
0.0
 11
802.7713021195184
 21
769.3204372672483
 31
0.0
  0
LINE
  5
17F
330
17
100
AcDbEntity
  8
0
100
AcDbLine
 10
802.7713021195184
 20
769.3204372672483
 30
0.0
 11
802.7168414880745
 21
768.7959904989549
 31
0.0
  0
LINE
  5
180
330
17
100
AcDbEntity
  8
0
100
AcDbLine
 10
802.7168414880745
 20
768.7959904989549
 30
0.0
 11
802.701725095677
 21
768.2689403421092
 31
0.0
  0
LINE
  5
181
330
17
100
AcDbEntity
  8
0
100
AcDbLine
 10
802.701725095677
 20
768.2689403421092
 30
0.0
 11
802.7260374793248
 21
767.7422342749787
 31
0.0
  0
LINE
  5
182
330
17
100
AcDbEntity
  8
0
100
AcDbLine
 10
802.7260374793248
 20
767.7422342749787
 30
0.0
 11
802.7896426743058
 21
767.2188178515435
 31
0.0
  0
LINE
  5
183
330
17
100
AcDbEntity
  8
0
100
AcDbLine
 10
802.7896426743058
 20
767.2188178515435
 30
0.0
 11
802.8921849745694
 21
766.7016182287597
 31
0.0
  0
LINE
  5
184
330
17
100
AcDbEntity
  8
0
100
AcDbLine
 10
802.8921849745694
 20
766.7016182287597
 30
0.0
 11
803.0330909219772
 21
766.1935277967151
 31
0.0
  0
LINE
  5
185
330
17
100
AcDbEntity
  8
0
100
AcDbLine
 10
803.0330909219772
 20
766.1935277967151
 30
0.0
 11
803.2115725133151
 21
765.6973880032056
 31
0.0
  0
LINE
  5
186
330
17
100
AcDbEntity
  8
0
100
AcDbLine
 10
803.2115725133151
 20
765.6973880032056
 30
0.0
 11
803.4266316071249
 21
765.2159734632089
 31
0.0
  0
LINE
  5
187
330
17
100
AcDbEntity
  8
0
100
AcDbLine
 10
803.4266316071249
 20
765.2159734632089
 30
0.0
 11
803.6770655057184
 21
764.7519764421126
 31
0.0
  0
LINE
  5
188
330
17
100
AcDbEntity
  8
0
100
AcDbLine
 10
803.6770655057184
 20
764.7519764421126
 30
0.0
 11
803.961473681149
 21
764.3079917994738
 31
0.0
  0
LINE
  5
189
330
17
100
AcDbEntity
  8
0
100
AcDbLine
 10
803.961473681149
 20
764.3079917994738
 30
0.0
 11
804.2782656075331
 21
763.8865024775116
 31
0.0
  0
LINE
  5
18A
330
17
100
AcDbEntity
  8
0
100
AcDbLine
 10
804.2782656075331
 20
763.8865024775116
 30
0.0
 11
804.6256696559153
 21
763.4898656154858
 31
0.0
  0
LINE
  5
18B
330
17
100
AcDbEntity
  8
0
100
AcDbLine
 10
804.6256696559153
 20
763.4898656154858
 30
0.0
 11
805.0017430019376
 21
763.1202993676186
 31
0.0
  0
LINE
  5
18C
330
17
100
AcDbEntity
  8
0
100
AcDbLine
 10
805.0017430019376
 20
763.1202993676186
 30
0.0
 11
805.404382490899
 21
762.7798704982794
 31
0.0
  0
LINE
  5
18D
330
17
100
AcDbEntity
  8
0
100
AcDbLine
 10
805.404382490899
 20
762.7798704982794
 30
0.0
 11
805.8313363994513
 21
762.4704828237963
 31
0.0
  0
LINE
  5
18E
330
17
100
AcDbEntity
  8
0
100
AcDbLine
 10
805.8313363994513
 20
762.4704828237963
 30
0.0
 11
806.28021702815
 21
762.1938665655437
 31
0.0
  0
LINE
  5
18F
330
17
100
AcDbEntity
  8
0
100
AcDbLine
 10
806.28021702815
 20
762.1938665655437
 30
0.0
 11
806.7485140544362
 21
761.9515686738441
 31
0.0
  0
LINE
  5
190
330
17
100
AcDbEntity
  8
0
100
AcDbLine
 10
806.7485140544362
 20
761.9515686738441
 30
0.0
 11
807.2336085713798
 21
761.7449441767924
 31
0.0
  0
LINE
  5
191
330
17
100
AcDbEntity
  8
0
100
AcDbLine
 10
807.2336085713798
 20
761.7449441767924
 30
0.0
 11
807.7327877336695
 21
761.575148602391
 31
0.0
  0
LINE
  5
192
330
17
100
AcDbEntity
  8
0
100
AcDbLine
 10
807.7327877336695
 20
761.575148602391
 30
0.0
 11
808.2432599289443
 21
761.4431315163688
 31
0.0
  0
LINE
  5
193
330
17
100
AcDbEntity
  8
0
100
AcDbLine
 10
808.2432599289443
 20
761.4431315163688
 30
0.0
 11
808.7621703896211
 21
761.3496312118205
 31
0.0
  0
LINE
  5
194
330
17
100
AcDbEntity
  8
0
100
AcDbLine
 10
808.7621703896211
 20
761.3496312118205
 30
0.0
 11
809.2866171579145
 21
761.2951705803762
 31
0.0
  0
LINE
  5
195
330
17
100
AcDbEntity
  8
0
100
AcDbLine
 10
809.2866171579145
 20
761.2951705803762
 30
0.0
 11
809.8136673147606
 21
761.2800541879787
 31
0.0
  0
LINE
  5
196
330
17
100
AcDbEntity
  8
0
100
AcDbLine
 10
809.8136673147606
 20
761.2800541879787
 30
0.0
 11
810.3403733818907
 21
761.3043665716264
 31
0.0
  0
LINE
  5
197
330
17
100
AcDbEntity
  8
0
100
AcDbLine
 10
810.3403733818907
 20
761.3043665716264
 30
0.0
 11
810.8637898053263
 21
761.3679717666078
 31
0.0
  0
LINE
  5
198
330
17
100
AcDbEntity
  8
0
100
AcDbLine
 10
810.8637898053263
 20
761.3679717666078
 30
0.0
 11
811.3809894281097
 21
761.4705140668711
 31
0.0
  0
LINE
  5
199
330
17
100
AcDbEntity
  8
0
100
AcDbLine
 10
811.3809894281097
 20
761.4705140668711
 30
0.0
 11
811.8890798601547
 21
761.6114200142786
 31
0.0
  0
LINE
  5
19A
330
17
100
AcDbEntity
  8
0
100
AcDbLine
 10
811.8890798601547
 20
761.6114200142786
 30
0.0
 11
812.3852196536646
 21
761.7899016056169
 31
0.0
  0
LINE
  5
19B
330
17
100
AcDbEntity
  8
0
100
AcDbLine
 10
812.3852196536646
 20
761.7899016056169
 30
0.0
 11
812.8666341936611
 21
762.0049606994271
 31
0.0
  0
LINE
  5
19C
330
17
100
AcDbEntity
  8
0
100
AcDbLine
 10
812.8666341936611
 20
762.0049606994271
 30
0.0
 11
813.3306312147569
 21
762.2553945980203
 31
0.0
  0
LINE
  5
19D
330
17
100
AcDbEntity
  8
0
100
AcDbLine
 10
813.3306312147569
 20
762.2553945980203
 30
0.0
 11
813.7746158573954
 21
762.5398027734508
 31
0.0
  0
LINE
  5
19E
330
17
100
AcDbEntity
  8
0
100
AcDbLine
 10
813.7746158573954
 20
762.5398027734508
 30
0.0
 11
814.1961051793581
 21
762.8565946998345
 31
0.0
  0
LINE
  5
19F
330
17
100
AcDbEntity
  8
0
100
AcDbLine
 10
814.1961051793581
 20
762.8565946998345
 30
0.0
 11
814.5927420413841
 21
763.2039987482171
 31
0.0
  0
LINE
  5
1A0
330
17
100
AcDbEntity
  8
0
100
AcDbLine
 10
814.5927420413841
 20
763.2039987482171
 30
0.0
 11
814.9623082892508
 21
763.5800720942398
 31
0.0
  0
LINE
  5
1A1
330
17
100
AcDbEntity
  8
0
100
AcDbLine
 10
814.9623082892508
 20
763.5800720942398
 30
0.0
 11
815.30273715859
 21
763.9827115832006
 31
0.0
  0
LINE
  5
1A2
330
17
100
AcDbEntity
  8
0
100
AcDbLine
 10
815.30273715859
 20
763.9827115832006
 30
0.0
 11
815.6121248330734
 21
764.4096654917529
 31
0.0
  0
LINE
  5
1A3
330
17
100
AcDbEntity
  8
0
100
AcDbLine
 10
815.6121248330734
 20
764.4096654917529
 30
0.0
 11
815.888741091326
 21
764.8585461204519
 31
0.0
  0
LINE
  5
1A4
330
17
100
AcDbEntity
  8
0
100
AcDbLine
 10
815.888741091326
 20
764.8585461204519
 30
0.0
 11
816.1310389830259
 21
765.3268431467384
 31
0.0
  0
LINE
  5
1A5
330
17
100
AcDbEntity
  8
0
100
AcDbLine
 10
816.1310389830259
 20
765.3268431467384
 30
0.0
 11
816.3376634800771
 21
765.8119376636819
 31
0.0
  0
LINE
  5
1A6
330
17
100
AcDbEntity
  8
0
100
AcDbLine
 10
816.3376634800771
 20
765.8119376636819
 30
0.0
 11
816.5074590544781
 21
766.3111168259715
 31
0.0
  0
LINE
  5
1A7
330
17
100
AcDbEntity
  8
0
100
AcDbLine
 10
816.5074590544781
 20
766.3111168259715
 30
0.0
 11
816.6394761405008
 21
766.8215890212458
 31
0.0
  0
LINE
  5
1A8
330
17
100
AcDbEntity
  8
0
100
AcDbLine
 10
816.6394761405008
 20
766.8215890212458
 30
0.0
 11
816.7329764450495
 21
767.3404994819232
 31
0.0
  0
LINE
  5
1A9
330
17
100
AcDbEntity
  8
0
100
AcDbLine
 10
816.7329764450495
 20
767.3404994819232
 30
0.0
 11
816.7874370764937
 21
767.8649462502162
 31
0.0
  0
LINE
  5
1AA
330
17
100
AcDbEntity
  8
0
100
AcDbLine
 10
816.7874370764937
 20
767.8649462502162
 30
0.0
 11
816.8025534688907
 21
768.3919964070625
 31
0.0
  0
LINE
  5
1AB
330
17
100
AcDbEntity
  8
0
100
AcDbLine
 10
646.0003246602771
 20
1121.2456289407037
 30
0.0
 11
645.9760122766296
 21
1121.7723350078331
 31
0.0
  0
LINE
  5
1AC
330
17
100
AcDbEntity
  8
0
100
AcDbLine
 10
645.9760122766296
 20
1121.7723350078331
 30
0.0
 11
645.9124070816483
 21
1122.2957514312693
 31
0.0
  0
LINE
  5
1AD
330
17
100
AcDbEntity
  8
0
100
AcDbLine
 10
645.9124070816483
 20
1122.2957514312693
 30
0.0
 11
645.8098647813849
 21
1122.8129510540523
 31
0.0
  0
LINE
  5
1AE
330
17
100
AcDbEntity
  8
0
100
AcDbLine
 10
645.8098647813849
 20
1122.8129510540523
 30
0.0
 11
645.6689588339767
 21
1123.321041486097
 31
0.0
  0
LINE
  5
1AF
330
17
100
AcDbEntity
  8
0
100
AcDbLine
 10
645.6689588339767
 20
1123.321041486097
 30
0.0
 11
645.490477242639
 21
1123.817181279607
 31
0.0
  0
LINE
  5
1B0
330
17
100
AcDbEntity
  8
0
100
AcDbLine
 10
645.490477242639
 20
1123.817181279607
 30
0.0
 11
645.275418148829
 21
1124.2985958196045
 31
0.0
  0
LINE
  5
1B1
330
17
100
AcDbEntity
  8
0
100
AcDbLine
 10
645.275418148829
 20
1124.2985958196045
 30
0.0
 11
645.0249842502357
 21
1124.7625928407003
 31
0.0
  0
LINE
  5
1B2
330
17
100
AcDbEntity
  8
0
100
AcDbLine
 10
645.0249842502357
 20
1124.7625928407003
 30
0.0
 11
644.7405760748051
 21
1125.2065774833382
 31
0.0
  0
LINE
  5
1B3
330
17
100
AcDbEntity
  8
0
100
AcDbLine
 10
644.7405760748051
 20
1125.2065774833382
 30
0.0
 11
644.4237841484213
 21
1125.6280668053007
 31
0.0
  0
LINE
  5
1B4
330
17
100
AcDbEntity
  8
0
100
AcDbLine
 10
644.4237841484213
 20
1125.6280668053007
 30
0.0
 11
644.0763801000386
 21
1126.024703667327
 31
0.0
  0
LINE
  5
1B5
330
17
100
AcDbEntity
  8
0
100
AcDbLine
 10
644.0763801000386
 20
1126.024703667327
 30
0.0
 11
643.7003067540165
 21
1126.3942699151942
 31
0.0
  0
LINE
  5
1B6
330
17
100
AcDbEntity
  8
0
100
AcDbLine
 10
643.7003067540165
 20
1126.3942699151942
 30
0.0
 11
643.2976672650552
 21
1126.7346987845326
 31
0.0
  0
LINE
  5
1B7
330
17
100
AcDbEntity
  8
0
100
AcDbLine
 10
643.2976672650552
 20
1126.7346987845326
 30
0.0
 11
642.8707133565027
 21
1127.0440864590166
 31
0.0
  0
LINE
  5
1B8
330
17
100
AcDbEntity
  8
0
100
AcDbLine
 10
642.8707133565027
 20
1127.0440864590166
 30
0.0
 11
642.421832727804
 21
1127.3207027172687
 31
0.0
  0
LINE
  5
1B9
330
17
100
AcDbEntity
  8
0
100
AcDbLine
 10
642.421832727804
 20
1127.3207027172687
 30
0.0
 11
641.9535357015179
 21
1127.5630006089687
 31
0.0
  0
LINE
  5
1BA
330
17
100
AcDbEntity
  8
0
100
AcDbLine
 10
641.9535357015179
 20
1127.5630006089687
 30
0.0
 11
641.4684411845742
 21
1127.7696251060197
 31
0.0
  0
LINE
  5
1BB
330
17
100
AcDbEntity
  8
0
100
AcDbLine
 10
641.4684411845742
 20
1127.7696251060197
 30
0.0
 11
640.9692620222844
 21
1127.9394206804213
 31
0.0
  0
LINE
  5
1BC
330
17
100
AcDbEntity
  8
0
100
AcDbLine
 10
640.9692620222844
 20
1127.9394206804213
 30
0.0
 11
640.4587898270097
 21
1128.071437766444
 31
0.0
  0
LINE
  5
1BD
330
17
100
AcDbEntity
  8
0
100
AcDbLine
 10
640.4587898270097
 20
1128.071437766444
 30
0.0
 11
639.9398793663329
 21
1128.1649380709925
 31
0.0
  0
LINE
  5
1BE
330
17
100
AcDbEntity
  8
0
100
AcDbLine
 10
639.9398793663329
 20
1128.1649380709925
 30
0.0
 11
639.4154325980396
 21
1128.2193987024364
 31
0.0
  0
LINE
  5
1BF
330
17
100
AcDbEntity
  8
0
100
AcDbLine
 10
639.4154325980396
 20
1128.2193987024364
 30
0.0
 11
638.8883824411936
 21
1128.2345150948333
 31
0.0
  0
LINE
  5
1C0
330
17
100
AcDbEntity
  8
0
100
AcDbLine
 10
638.8883824411936
 20
1128.2345150948333
 30
0.0
 11
638.3616763740633
 21
1128.210202711186
 31
0.0
  0
LINE
  5
1C1
330
17
100
AcDbEntity
  8
0
100
AcDbLine
 10
638.3616763740633
 20
1128.210202711186
 30
0.0
 11
637.8382599506277
 21
1128.1465975162052
 31
0.0
  0
LINE
  5
1C2
330
17
100
AcDbEntity
  8
0
100
AcDbLine
 10
637.8382599506277
 20
1128.1465975162052
 30
0.0
 11
637.3210603278446
 21
1128.0440552159416
 31
0.0
  0
LINE
  5
1C3
330
17
100
AcDbEntity
  8
0
100
AcDbLine
 10
637.3210603278446
 20
1128.0440552159416
 30
0.0
 11
636.8129698957996
 21
1127.9031492685338
 31
0.0
  0
LINE
  5
1C4
330
17
100
AcDbEntity
  8
0
100
AcDbLine
 10
636.8129698957996
 20
1127.9031492685338
 30
0.0
 11
636.3168301022897
 21
1127.7246676771952
 31
0.0
  0
LINE
  5
1C5
330
17
100
AcDbEntity
  8
0
100
AcDbLine
 10
636.3168301022897
 20
1127.7246676771952
 30
0.0
 11
635.8354155622931
 21
1127.5096085833857
 31
0.0
  0
LINE
  5
1C6
330
17
100
AcDbEntity
  8
0
100
AcDbLine
 10
635.8354155622931
 20
1127.5096085833857
 30
0.0
 11
635.3714185411972
 21
1127.259174684792
 31
0.0
  0
LINE
  5
1C7
330
17
100
AcDbEntity
  8
0
100
AcDbLine
 10
635.3714185411972
 20
1127.259174684792
 30
0.0
 11
634.9274338985587
 21
1126.974766509362
 31
0.0
  0
LINE
  5
1C8
330
17
100
AcDbEntity
  8
0
100
AcDbLine
 10
634.9274338985587
 20
1126.974766509362
 30
0.0
 11
634.505944576596
 21
1126.6579745829774
 31
0.0
  0
LINE
  5
1C9
330
17
100
AcDbEntity
  8
0
100
AcDbLine
 10
634.505944576596
 20
1126.6579745829774
 30
0.0
 11
634.10930771457
 21
1126.3105705345956
 31
0.0
  0
LINE
  5
1CA
330
17
100
AcDbEntity
  8
0
100
AcDbLine
 10
634.10930771457
 20
1126.3105705345956
 30
0.0
 11
633.7397414667031
 21
1125.934497188573
 31
0.0
  0
LINE
  5
1CB
330
17
100
AcDbEntity
  8
0
100
AcDbLine
 10
633.7397414667031
 20
1125.934497188573
 30
0.0
 11
633.399312597364
 21
1125.5318576996117
 31
0.0
  0
LINE
  5
1CC
330
17
100
AcDbEntity
  8
0
100
AcDbLine
 10
633.399312597364
 20
1125.5318576996117
 30
0.0
 11
633.0899249228808
 21
1125.104903791059
 31
0.0
  0
LINE
  5
1CD
330
17
100
AcDbEntity
  8
0
100
AcDbLine
 10
633.0899249228808
 20
1125.104903791059
 30
0.0
 11
632.8133086646282
 21
1124.6560231623612
 31
0.0
  0
LINE
  5
1CE
330
17
100
AcDbEntity
  8
0
100
AcDbLine
 10
632.8133086646282
 20
1124.6560231623612
 30
0.0
 11
632.5710107729283
 21
1124.187726136075
 31
0.0
  0
LINE
  5
1CF
330
17
100
AcDbEntity
  8
0
100
AcDbLine
 10
632.5710107729283
 20
1124.187726136075
 30
0.0
 11
632.364386275877
 21
1123.7026316191307
 31
0.0
  0
LINE
  5
1D0
330
17
100
AcDbEntity
  8
0
100
AcDbLine
 10
632.364386275877
 20
1123.7026316191307
 30
0.0
 11
632.1945907014759
 21
1123.2034524568408
 31
0.0
  0
LINE
  5
1D1
330
17
100
AcDbEntity
  8
0
100
AcDbLine
 10
632.1945907014759
 20
1123.2034524568408
 30
0.0
 11
632.0625736154531
 21
1122.6929802615662
 31
0.0
  0
LINE
  5
1D2
330
17
100
AcDbEntity
  8
0
100
AcDbLine
 10
632.0625736154531
 20
1122.6929802615662
 30
0.0
 11
631.9690733109046
 21
1122.1740698008896
 31
0.0
  0
LINE
  5
1D3
330
17
100
AcDbEntity
  8
0
100
AcDbLine
 10
631.9690733109046
 20
1122.1740698008896
 30
0.0
 11
631.9146126794607
 21
1121.6496230325956
 31
0.0
  0
LINE
  5
1D4
330
17
100
AcDbEntity
  8
0
100
AcDbLine
 10
631.9146126794607
 20
1121.6496230325956
 30
0.0
 11
631.8994962870632
 21
1121.1225728757506
 31
0.0
  0
LINE
  5
1D5
330
17
100
AcDbEntity
  8
0
100
AcDbLine
 10
631.8994962870632
 20
1121.1225728757506
 30
0.0
 11
631.923808670711
 21
1120.5958668086196
 31
0.0
  0
LINE
  5
1D6
330
17
100
AcDbEntity
  8
0
100
AcDbLine
 10
631.923808670711
 20
1120.5958668086196
 30
0.0
 11
631.9874138656919
 21
1120.0724503851848
 31
0.0
  0
LINE
  5
1D7
330
17
100
AcDbEntity
  8
0
100
AcDbLine
 10
631.9874138656919
 20
1120.0724503851848
 30
0.0
 11
632.0899561659554
 21
1119.5552507624009
 31
0.0
  0
LINE
  5
1D8
330
17
100
AcDbEntity
  8
0
100
AcDbLine
 10
632.0899561659554
 20
1119.5552507624009
 30
0.0
 11
632.2308621133635
 21
1119.047160330356
 31
0.0
  0
LINE
  5
1D9
330
17
100
AcDbEntity
  8
0
100
AcDbLine
 10
632.2308621133635
 20
1119.047160330356
 30
0.0
 11
632.4093437047014
 21
1118.5510205368464
 31
0.0
  0
LINE
  5
1DA
330
17
100
AcDbEntity
  8
0
100
AcDbLine
 10
632.4093437047014
 20
1118.5510205368464
 30
0.0
 11
632.6244027985113
 21
1118.0696059968498
 31
0.0
  0
LINE
  5
1DB
330
17
100
AcDbEntity
  8
0
100
AcDbLine
 10
632.6244027985113
 20
1118.0696059968498
 30
0.0
 11
632.8748366971048
 21
1117.605608975754
 31
0.0
  0
LINE
  5
1DC
330
17
100
AcDbEntity
  8
0
100
AcDbLine
 10
632.8748366971048
 20
1117.605608975754
 30
0.0
 11
633.1592448725353
 21
1117.1616243331157
 31
0.0
  0
LINE
  5
1DD
330
17
100
AcDbEntity
  8
0
100
AcDbLine
 10
633.1592448725353
 20
1117.1616243331157
 30
0.0
 11
633.4760367989192
 21
1116.740135011153
 31
0.0
  0
LINE
  5
1DE
330
17
100
AcDbEntity
  8
0
100
AcDbLine
 10
633.4760367989192
 20
1116.740135011153
 30
0.0
 11
633.8234408473016
 21
1116.3434981491266
 31
0.0
  0
LINE
  5
1DF
330
17
100
AcDbEntity
  8
0
100
AcDbLine
 10
633.8234408473016
 20
1116.3434981491266
 30
0.0
 11
634.199514193324
 21
1115.97393190126
 31
0.0
  0
LINE
  5
1E0
330
17
100
AcDbEntity
  8
0
100
AcDbLine
 10
634.199514193324
 20
1115.97393190126
 30
0.0
 11
634.602153682285
 21
1115.6335030319212
 31
0.0
  0
LINE
  5
1E1
330
17
100
AcDbEntity
  8
0
100
AcDbLine
 10
634.602153682285
 20
1115.6335030319212
 30
0.0
 11
635.0291075908377
 21
1115.3241153574374
 31
0.0
  0
LINE
  5
1E2
330
17
100
AcDbEntity
  8
0
100
AcDbLine
 10
635.0291075908377
 20
1115.3241153574374
 30
0.0
 11
635.4779882195364
 21
1115.0474990991845
 31
0.0
  0
LINE
  5
1E3
330
17
100
AcDbEntity
  8
0
100
AcDbLine
 10
635.4779882195364
 20
1115.0474990991845
 30
0.0
 11
635.9462852458225
 21
1114.805201207485
 31
0.0
  0
LINE
  5
1E4
330
17
100
AcDbEntity
  8
0
100
AcDbLine
 10
635.9462852458225
 20
1114.805201207485
 30
0.0
 11
636.4313797627661
 21
1114.5985767104332
 31
0.0
  0
LINE
  5
1E5
330
17
100
AcDbEntity
  8
0
100
AcDbLine
 10
636.4313797627661
 20
1114.5985767104332
 30
0.0
 11
636.9305589250558
 21
1114.4287811360325
 31
0.0
  0
LINE
  5
1E6
330
17
100
AcDbEntity
  8
0
100
AcDbLine
 10
636.9305589250558
 20
1114.4287811360325
 30
0.0
 11
637.4410311203308
 21
1114.29676405001
 31
0.0
  0
LINE
  5
1E7
330
17
100
AcDbEntity
  8
0
100
AcDbLine
 10
637.4410311203308
 20
1114.29676405001
 30
0.0
 11
637.9599415810075
 21
1114.2032637454618
 31
0.0
  0
LINE
  5
1E8
330
17
100
AcDbEntity
  8
0
100
AcDbLine
 10
637.9599415810075
 20
1114.2032637454618
 30
0.0
 11
638.4843883493008
 21
1114.1488031140166
 31
0.0
  0
LINE
  5
1E9
330
17
100
AcDbEntity
  8
0
100
AcDbLine
 10
638.4843883493008
 20
1114.1488031140166
 30
0.0
 11
639.0114385061468
 21
1114.1336867216191
 31
0.0
  0
LINE
  5
1EA
330
17
100
AcDbEntity
  8
0
100
AcDbLine
 10
639.0114385061468
 20
1114.1336867216191
 30
0.0
 11
639.5381445732771
 21
1114.1579991052668
 31
0.0
  0
LINE
  5
1EB
330
17
100
AcDbEntity
  8
0
100
AcDbLine
 10
639.5381445732771
 20
1114.1579991052668
 30
0.0
 11
640.0615609967125
 21
1114.221604300249
 31
0.0
  0
LINE
  5
1EC
330
17
100
AcDbEntity
  8
0
100
AcDbLine
 10
640.0615609967125
 20
1114.221604300249
 30
0.0
 11
640.5787606194958
 21
1114.3241466005124
 31
0.0
  0
LINE
  5
1ED
330
17
100
AcDbEntity
  8
0
100
AcDbLine
 10
640.5787606194958
 20
1114.3241466005124
 30
0.0
 11
641.0868510515407
 21
1114.46505254792
 31
0.0
  0
LINE
  5
1EE
330
17
100
AcDbEntity
  8
0
100
AcDbLine
 10
641.0868510515407
 20
1114.46505254792
 30
0.0
 11
641.5829908450506
 21
1114.6435341392578
 31
0.0
  0
LINE
  5
1EF
330
17
100
AcDbEntity
  8
0
100
AcDbLine
 10
641.5829908450506
 20
1114.6435341392578
 30
0.0
 11
642.0644053850474
 21
1114.858593233068
 31
0.0
  0
LINE
  5
1F0
330
17
100
AcDbEntity
  8
0
100
AcDbLine
 10
642.0644053850474
 20
1114.858593233068
 30
0.0
 11
642.5284024061433
 21
1115.1090271316612
 31
0.0
  0
LINE
  5
1F1
330
17
100
AcDbEntity
  8
0
100
AcDbLine
 10
642.5284024061433
 20
1115.1090271316612
 30
0.0
 11
642.9723870487818
 21
1115.393435307092
 31
0.0
  0
LINE
  5
1F2
330
17
100
AcDbEntity
  8
0
100
AcDbLine
 10
642.9723870487818
 20
1115.393435307092
 30
0.0
 11
643.3938763707442
 21
1115.7102272334764
 31
0.0
  0
LINE
  5
1F3
330
17
100
AcDbEntity
  8
0
100
AcDbLine
 10
643.3938763707442
 20
1115.7102272334764
 30
0.0
 11
643.7905132327705
 21
1116.0576312818584
 31
0.0
  0
LINE
  5
1F4
330
17
100
AcDbEntity
  8
0
100
AcDbLine
 10
643.7905132327705
 20
1116.0576312818584
 30
0.0
 11
644.1600794806371
 21
1116.4337046278806
 31
0.0
  0
LINE
  5
1F5
330
17
100
AcDbEntity
  8
0
100
AcDbLine
 10
644.1600794806371
 20
1116.4337046278806
 30
0.0
 11
644.5005083499765
 21
1116.836344116842
 31
0.0
  0
LINE
  5
1F6
330
17
100
AcDbEntity
  8
0
100
AcDbLine
 10
644.5005083499765
 20
1116.836344116842
 30
0.0
 11
644.8098960244596
 21
1117.2632980253948
 31
0.0
  0
LINE
  5
1F7
330
17
100
AcDbEntity
  8
0
100
AcDbLine
 10
644.8098960244596
 20
1117.2632980253948
 30
0.0
 11
645.0865122827123
 21
1117.7121786540931
 31
0.0
  0
LINE
  5
1F8
330
17
100
AcDbEntity
  8
0
100
AcDbLine
 10
645.0865122827123
 20
1117.7121786540931
 30
0.0
 11
645.328810174412
 21
1118.1804756803792
 31
0.0
  0
LINE
  5
1F9
330
17
100
AcDbEntity
  8
0
100
AcDbLine
 10
645.328810174412
 20
1118.1804756803792
 30
0.0
 11
645.5354346714635
 21
1118.6655701973227
 31
0.0
  0
LINE
  5
1FA
330
17
100
AcDbEntity
  8
0
100
AcDbLine
 10
645.5354346714635
 20
1118.6655701973227
 30
0.0
 11
645.7052302458643
 21
1119.1647493596124
 31
0.0
  0
LINE
  5
1FB
330
17
100
AcDbEntity
  8
0
100
AcDbLine
 10
645.7052302458643
 20
1119.1647493596124
 30
0.0
 11
645.8372473318873
 21
1119.675221554887
 31
0.0
  0
LINE
  5
1FC
330
17
100
AcDbEntity
  8
0
100
AcDbLine
 10
645.8372473318873
 20
1119.675221554887
 30
0.0
 11
645.9307476364356
 21
1120.1941320155645
 31
0.0
  0
LINE
  5
1FD
330
17
100
AcDbEntity
  8
0
100
AcDbLine
 10
645.9307476364356
 20
1120.1941320155645
 30
0.0
 11
645.9852082678799
 21
1120.718578783857
 31
0.0
  0
LINE
  5
1FE
330
17
100
AcDbEntity
  8
0
100
AcDbLine
 10
645.9852082678799
 20
1120.718578783857
 30
0.0
 11
646.0003246602771
 21
1121.2456289407037
 31
0.0
  0
LINE
  5
1FF
330
17
100
AcDbEntity
  8
0
100
AcDbLine
 10
392.9278763480583
 20
1697.7992941140692
 30
0.0
 11
392.9035639644107
 21
1698.3260001812
 31
0.0
  0
LINE
  5
200
330
17
100
AcDbEntity
  8
0
100
AcDbLine
 10
392.9035639644107
 20
1698.3260001812
 30
0.0
 11
392.8399587694297
 21
1698.8494166046353
 31
0.0
  0
LINE
  5
201
330
17
100
AcDbEntity
  8
0
100
AcDbLine
 10
392.8399587694297
 20
1698.8494166046353
 30
0.0
 11
392.73741646916596
 21
1699.366616227419
 31
0.0
  0
LINE
  5
202
330
17
100
AcDbEntity
  8
0
100
AcDbLine
 10
392.73741646916596
 20
1699.366616227419
 30
0.0
 11
392.5965105217579
 21
1699.8747066594628
 31
0.0
  0
LINE
  5
203
330
17
100
AcDbEntity
  8
0
100
AcDbLine
 10
392.5965105217579
 20
1699.8747066594628
 30
0.0
 11
392.41802893042023
 21
1700.3708464529732
 31
0.0
  0
LINE
  5
204
330
17
100
AcDbEntity
  8
0
100
AcDbLine
 10
392.41802893042023
 20
1700.3708464529732
 30
0.0
 11
392.2029698366104
 21
1700.8522609929691
 31
0.0
  0
LINE
  5
205
330
17
100
AcDbEntity
  8
0
100
AcDbLine
 10
392.2029698366104
 20
1700.8522609929691
 30
0.0
 11
391.95253593801687
 21
1701.316258014066
 31
0.0
  0
LINE
  5
206
330
17
100
AcDbEntity
  8
0
100
AcDbLine
 10
391.95253593801687
 20
1701.316258014066
 30
0.0
 11
391.66812776258615
 21
1701.7602426567032
 31
0.0
  0
LINE
  5
207
330
17
100
AcDbEntity
  8
0
100
AcDbLine
 10
391.66812776258615
 20
1701.7602426567032
 30
0.0
 11
391.3513358362024
 21
1702.1817319786664
 31
0.0
  0
LINE
  5
208
330
17
100
AcDbEntity
  8
0
100
AcDbLine
 10
391.3513358362024
 20
1702.1817319786664
 30
0.0
 11
391.0039317878198
 21
1702.5783688406932
 31
0.0
  0
LINE
  5
209
330
17
100
AcDbEntity
  8
0
100
AcDbLine
 10
391.0039317878198
 20
1702.5783688406932
 30
0.0
 11
390.62785844179774
 21
1702.94793508856
 31
0.0
  0
LINE
  5
20A
330
17
100
AcDbEntity
  8
0
100
AcDbLine
 10
390.62785844179774
 20
1702.94793508856
 30
0.0
 11
390.22521895283626
 21
1703.288363957899
 31
0.0
  0
LINE
  5
20B
330
17
100
AcDbEntity
  8
0
100
AcDbLine
 10
390.22521895283626
 20
1703.288363957899
 30
0.0
 11
389.7982650442838
 21
1703.5977516323815
 31
0.0
  0
LINE
  5
20C
330
17
100
AcDbEntity
  8
0
100
AcDbLine
 10
389.7982650442838
 20
1703.5977516323815
 30
0.0
 11
389.3493844155853
 21
1703.8743678906335
 31
0.0
  0
LINE
  5
20D
330
17
100
AcDbEntity
  8
0
100
AcDbLine
 10
389.3493844155853
 20
1703.8743678906335
 30
0.0
 11
388.881087389299
 21
1704.1166657823344
 31
0.0
  0
LINE
  5
20E
330
17
100
AcDbEntity
  8
0
100
AcDbLine
 10
388.881087389299
 20
1704.1166657823344
 30
0.0
 11
388.39599287235546
 21
1704.323290279386
 31
0.0
  0
LINE
  5
20F
330
17
100
AcDbEntity
  8
0
100
AcDbLine
 10
388.39599287235546
 20
1704.323290279386
 30
0.0
 11
387.8968137100657
 21
1704.4930858537862
 31
0.0
  0
LINE
  5
210
330
17
100
AcDbEntity
  8
0
100
AcDbLine
 10
387.8968137100657
 20
1704.4930858537862
 30
0.0
 11
387.3863415147909
 21
1704.625102939809
 31
0.0
  0
LINE
  5
211
330
17
100
AcDbEntity
  8
0
100
AcDbLine
 10
387.3863415147909
 20
1704.625102939809
 30
0.0
 11
386.8674310541141
 21
1704.7186032443578
 31
0.0
  0
LINE
  5
212
330
17
100
AcDbEntity
  8
0
100
AcDbLine
 10
386.8674310541141
 20
1704.7186032443578
 30
0.0
 11
386.34298428582093
 21
1704.773063875802
 31
0.0
  0
LINE
  5
213
330
17
100
AcDbEntity
  8
0
100
AcDbLine
 10
386.34298428582093
 20
1704.773063875802
 30
0.0
 11
385.8159341289748
 21
1704.788180268199
 31
0.0
  0
LINE
  5
214
330
17
100
AcDbEntity
  8
0
100
AcDbLine
 10
385.8159341289748
 20
1704.788180268199
 30
0.0
 11
385.28922806184454
 21
1704.7638678845517
 31
0.0
  0
LINE
  5
215
330
17
100
AcDbEntity
  8
0
100
AcDbLine
 10
385.28922806184454
 20
1704.7638678845517
 30
0.0
 11
384.76581163840893
 21
1704.7002626895705
 31
0.0
  0
LINE
  5
216
330
17
100
AcDbEntity
  8
0
100
AcDbLine
 10
384.76581163840893
 20
1704.7002626895705
 30
0.0
 11
384.2486120156257
 21
1704.5977203893067
 31
0.0
  0
LINE
  5
217
330
17
100
AcDbEntity
  8
0
100
AcDbLine
 10
384.2486120156257
 20
1704.5977203893067
 30
0.0
 11
383.7405215835808
 21
1704.4568144418986
 31
0.0
  0
LINE
  5
218
330
17
100
AcDbEntity
  8
0
100
AcDbLine
 10
383.7405215835808
 20
1704.4568144418986
 30
0.0
 11
383.24438179007086
 21
1704.2783328505614
 31
0.0
  0
LINE
  5
219
330
17
100
AcDbEntity
  8
0
100
AcDbLine
 10
383.24438179007086
 20
1704.2783328505614
 30
0.0
 11
382.76296725007427
 21
1704.0632737567514
 31
0.0
  0
LINE
  5
21A
330
17
100
AcDbEntity
  8
0
100
AcDbLine
 10
382.76296725007427
 20
1704.0632737567514
 30
0.0
 11
382.2989702289782
 21
1703.8128398581568
 31
0.0
  0
LINE
  5
21B
330
17
100
AcDbEntity
  8
0
100
AcDbLine
 10
382.2989702289782
 20
1703.8128398581568
 30
0.0
 11
381.85498558634
 21
1703.528431682727
 31
0.0
  0
LINE
  5
21C
330
17
100
AcDbEntity
  8
0
100
AcDbLine
 10
381.85498558634
 20
1703.528431682727
 30
0.0
 11
381.43349626437737
 21
1703.211639756344
 31
0.0
  0
LINE
  5
21D
330
17
100
AcDbEntity
  8
0
100
AcDbLine
 10
381.43349626437737
 20
1703.211639756344
 30
0.0
 11
381.036859402351
 21
1702.8642357079614
 31
0.0
  0
LINE
  5
21E
330
17
100
AcDbEntity
  8
0
100
AcDbLine
 10
381.036859402351
 20
1702.8642357079614
 30
0.0
 11
380.6672931544843
 21
1702.4881623619392
 31
0.0
  0
LINE
  5
21F
330
17
100
AcDbEntity
  8
0
100
AcDbLine
 10
380.6672931544843
 20
1702.4881623619392
 30
0.0
 11
380.3268642851454
 21
1702.0855228729774
 31
0.0
  0
LINE
  5
220
330
17
100
AcDbEntity
  8
0
100
AcDbLine
 10
380.3268642851454
 20
1702.0855228729774
 30
0.0
 11
380.01747661066196
 21
1701.6585689644244
 31
0.0
  0
LINE
  5
221
330
17
100
AcDbEntity
  8
0
100
AcDbLine
 10
380.01747661066196
 20
1701.6585689644244
 30
0.0
 11
379.74086035240936
 21
1701.2096883357267
 31
0.0
  0
LINE
  5
222
330
17
100
AcDbEntity
  8
0
100
AcDbLine
 10
379.74086035240936
 20
1701.2096883357267
 30
0.0
 11
379.4985624607096
 21
1700.7413913094397
 31
0.0
  0
LINE
  5
223
330
17
100
AcDbEntity
  8
0
100
AcDbLine
 10
379.4985624607096
 20
1700.7413913094397
 30
0.0
 11
379.2919379636581
 21
1700.2562967924966
 31
0.0
  0
LINE
  5
224
330
17
100
AcDbEntity
  8
0
100
AcDbLine
 10
379.2919379636581
 20
1700.2562967924966
 30
0.0
 11
379.12214238925736
 21
1699.7571176302067
 31
0.0
  0
LINE
  5
225
330
17
100
AcDbEntity
  8
0
100
AcDbLine
 10
379.12214238925736
 20
1699.7571176302067
 30
0.0
 11
378.9901253032343
 21
1699.2466454349328
 31
0.0
  0
LINE
  5
226
330
17
100
AcDbEntity
  8
0
100
AcDbLine
 10
378.9901253032343
 20
1699.2466454349328
 30
0.0
 11
378.89662499868587
 21
1698.7277349742553
 31
0.0
  0
LINE
  5
227
330
17
100
AcDbEntity
  8
0
100
AcDbLine
 10
378.89662499868587
 20
1698.7277349742553
 30
0.0
 11
378.84216436724176
 21
1698.2032882059625
 31
0.0
  0
LINE
  5
228
330
17
100
AcDbEntity
  8
0
100
AcDbLine
 10
378.84216436724176
 20
1698.2032882059625
 30
0.0
 11
378.82704797484445
 21
1697.6762380491161
 31
0.0
  0
LINE
  5
229
330
17
100
AcDbEntity
  8
0
100
AcDbLine
 10
378.82704797484445
 20
1697.6762380491161
 30
0.0
 11
378.8513603584921
 21
1697.1495319819858
 31
0.0
  0
LINE
  5
22A
330
17
100
AcDbEntity
  8
0
100
AcDbLine
 10
378.8513603584921
 20
1697.1495319819858
 30
0.0
 11
378.9149655534732
 21
1696.6261155585505
 31
0.0
  0
LINE
  5
22B
330
17
100
AcDbEntity
  8
0
100
AcDbLine
 10
378.9149655534732
 20
1696.6261155585505
 30
0.0
 11
379.01750785373673
 21
1696.1089159357666
 31
0.0
  0
LINE
  5
22C
330
17
100
AcDbEntity
  8
0
100
AcDbLine
 10
379.01750785373673
 20
1696.1089159357666
 30
0.0
 11
379.15841380114495
 21
1695.6008255037227
 31
0.0
  0
LINE
  5
22D
330
17
100
AcDbEntity
  8
0
100
AcDbLine
 10
379.15841380114495
 20
1695.6008255037227
 30
0.0
 11
379.3368953924826
 21
1695.1046857102124
 31
0.0
  0
LINE
  5
22E
330
17
100
AcDbEntity
  8
0
100
AcDbLine
 10
379.3368953924826
 20
1695.1046857102124
 30
0.0
 11
379.5519544862926
 21
1694.6232711702146
 31
0.0
  0
LINE
  5
22F
330
17
100
AcDbEntity
  8
0
100
AcDbLine
 10
379.5519544862926
 20
1694.6232711702146
 30
0.0
 11
379.802388384886
 21
1694.159274149119
 31
0.0
  0
LINE
  5
230
330
17
100
AcDbEntity
  8
0
100
AcDbLine
 10
379.802388384886
 20
1694.159274149119
 30
0.0
 11
380.0867965603165
 21
1693.715289506481
 31
0.0
  0
LINE
  5
231
330
17
100
AcDbEntity
  8
0
100
AcDbLine
 10
380.0867965603165
 20
1693.715289506481
 30
0.0
 11
380.4035884867006
 21
1693.2938001845187
 31
0.0
  0
LINE
  5
232
330
17
100
AcDbEntity
  8
0
100
AcDbLine
 10
380.4035884867006
 20
1693.2938001845187
 30
0.0
 11
380.75099253508284
 21
1692.897163322491
 31
0.0
  0
LINE
  5
233
330
17
100
AcDbEntity
  8
0
100
AcDbLine
 10
380.75099253508284
 20
1692.897163322491
 30
0.0
 11
381.12706588110495
 21
1692.5275970746256
 31
0.0
  0
LINE
  5
234
330
17
100
AcDbEntity
  8
0
100
AcDbLine
 10
381.12706588110495
 20
1692.5275970746256
 30
0.0
 11
381.52970537006644
 21
1692.1871682052865
 31
0.0
  0
LINE
  5
235
330
17
100
AcDbEntity
  8
0
100
AcDbLine
 10
381.52970537006644
 20
1692.1871682052865
 30
0.0
 11
381.95665927861904
 21
1691.8777805308027
 31
0.0
  0
LINE
  5
236
330
17
100
AcDbEntity
  8
0
100
AcDbLine
 10
381.95665927861904
 20
1691.8777805308027
 30
0.0
 11
382.40553990731746
 21
1691.6011642725502
 31
0.0
  0
LINE
  5
237
330
17
100
AcDbEntity
  8
0
100
AcDbLine
 10
382.40553990731746
 20
1691.6011642725502
 30
0.0
 11
382.87383693360374
 21
1691.35886638085
 31
0.0
  0
LINE
  5
238
330
17
100
AcDbEntity
  8
0
100
AcDbLine
 10
382.87383693360374
 20
1691.35886638085
 30
0.0
 11
383.3589314505473
 21
1691.1522418837994
 31
0.0
  0
LINE
  5
239
330
17
100
AcDbEntity
  8
0
100
AcDbLine
 10
383.3589314505473
 20
1691.1522418837994
 30
0.0
 11
383.85811061283715
 21
1690.9824463093983
 31
0.0
  0
LINE
  5
23A
330
17
100
AcDbEntity
  8
0
100
AcDbLine
 10
383.85811061283715
 20
1690.9824463093983
 30
0.0
 11
384.36858280811185
 21
1690.8504292233754
 31
0.0
  0
LINE
  5
23B
330
17
100
AcDbEntity
  8
0
100
AcDbLine
 10
384.36858280811185
 20
1690.8504292233754
 30
0.0
 11
384.88749326878866
 21
1690.7569289188266
 31
0.0
  0
LINE
  5
23C
330
17
100
AcDbEntity
  8
0
100
AcDbLine
 10
384.88749326878866
 20
1690.7569289188266
 30
0.0
 11
385.41194003708205
 21
1690.702468287382
 31
0.0
  0
LINE
  5
23D
330
17
100
AcDbEntity
  8
0
100
AcDbLine
 10
385.41194003708205
 20
1690.702468287382
 30
0.0
 11
385.938990193928
 21
1690.687351894985
 31
0.0
  0
LINE
  5
23E
330
17
100
AcDbEntity
  8
0
100
AcDbLine
 10
385.938990193928
 20
1690.687351894985
 30
0.0
 11
386.46569626105844
 21
1690.7116642786325
 31
0.0
  0
LINE
  5
23F
330
17
100
AcDbEntity
  8
0
100
AcDbLine
 10
386.46569626105844
 20
1690.7116642786325
 30
0.0
 11
386.9891126844938
 21
1690.775269473614
 31
0.0
  0
LINE
  5
240
330
17
100
AcDbEntity
  8
0
100
AcDbLine
 10
386.9891126844938
 20
1690.775269473614
 30
0.0
 11
387.506312307277
 21
1690.8778117738777
 31
0.0
  0
LINE
  5
241
330
17
100
AcDbEntity
  8
0
100
AcDbLine
 10
387.506312307277
 20
1690.8778117738777
 30
0.0
 11
388.01440273932207
 21
1691.0187177212856
 31
0.0
  0
LINE
  5
242
330
17
100
AcDbEntity
  8
0
100
AcDbLine
 10
388.01440273932207
 20
1691.0187177212856
 30
0.0
 11
388.5105425328319
 21
1691.197199312624
 31
0.0
  0
LINE
  5
243
330
17
100
AcDbEntity
  8
0
100
AcDbLine
 10
388.5105425328319
 20
1691.197199312624
 30
0.0
 11
388.9919570728285
 21
1691.412258406433
 31
0.0
  0
LINE
  5
244
330
17
100
AcDbEntity
  8
0
100
AcDbLine
 10
388.9919570728285
 20
1691.412258406433
 30
0.0
 11
389.45595409392456
 21
1691.6626923050271
 31
0.0
  0
LINE
  5
245
330
17
100
AcDbEntity
  8
0
100
AcDbLine
 10
389.45595409392456
 20
1691.6626923050271
 30
0.0
 11
389.8999387365629
 21
1691.9471004804573
 31
0.0
  0
LINE
  5
246
330
17
100
AcDbEntity
  8
0
100
AcDbLine
 10
389.8999387365629
 20
1691.9471004804573
 30
0.0
 11
390.3214280585253
 21
1692.2638924068417
 31
0.0
  0
LINE
  5
247
330
17
100
AcDbEntity
  8
0
100
AcDbLine
 10
390.3214280585253
 20
1692.2638924068417
 30
0.0
 11
390.7180649205517
 21
1692.6112964552244
 31
0.0
  0
LINE
  5
248
330
17
100
AcDbEntity
  8
0
100
AcDbLine
 10
390.7180649205517
 20
1692.6112964552244
 30
0.0
 11
391.08763116841845
 21
1692.9873698012452
 31
0.0
  0
LINE
  5
249
330
17
100
AcDbEntity
  8
0
100
AcDbLine
 10
391.08763116841845
 20
1692.9873698012452
 30
0.0
 11
391.4280600377576
 21
1693.3900092902077
 31
0.0
  0
LINE
  5
24A
330
17
100
AcDbEntity
  8
0
100
AcDbLine
 10
391.4280600377576
 20
1693.3900092902077
 30
0.0
 11
391.7374477122407
 21
1693.81696319876
 31
0.0
  0
LINE
  5
24B
330
17
100
AcDbEntity
  8
0
100
AcDbLine
 10
391.7374477122407
 20
1693.81696319876
 30
0.0
 11
392.0140639704935
 21
1694.2658438274584
 31
0.0
  0
LINE
  5
24C
330
17
100
AcDbEntity
  8
0
100
AcDbLine
 10
392.0140639704935
 20
1694.2658438274584
 30
0.0
 11
392.2563618621934
 21
1694.734140853744
 31
0.0
  0
LINE
  5
24D
330
17
100
AcDbEntity
  8
0
100
AcDbLine
 10
392.2563618621934
 20
1694.734140853744
 30
0.0
 11
392.4629863592447
 21
1695.219235370689
 31
0.0
  0
LINE
  5
24E
330
17
100
AcDbEntity
  8
0
100
AcDbLine
 10
392.4629863592447
 20
1695.219235370689
 30
0.0
 11
392.6327819336455
 21
1695.718414532979
 31
0.0
  0
LINE
  5
24F
330
17
100
AcDbEntity
  8
0
100
AcDbLine
 10
392.6327819336455
 20
1695.718414532979
 30
0.0
 11
392.7647990196684
 21
1696.2288867282527
 31
0.0
  0
LINE
  5
250
330
17
100
AcDbEntity
  8
0
100
AcDbLine
 10
392.7647990196684
 20
1696.2288867282527
 30
0.0
 11
392.85829932421706
 21
1696.7477971889302
 31
0.0
  0
LINE
  5
251
330
17
100
AcDbEntity
  8
0
100
AcDbLine
 10
392.85829932421706
 20
1696.7477971889302
 30
0.0
 11
392.91275995566104
 21
1697.2722439572233
 31
0.0
  0
LINE
  5
252
330
17
100
AcDbEntity
  8
0
100
AcDbLine
 10
392.91275995566104
 20
1697.2722439572233
 30
0.0
 11
392.9278763480583
 21
1697.7992941140692
 31
0.0
  0
LINE
  5
253
330
17
100
AcDbEntity
  8
0
100
AcDbLine
 10
112.36004375452337
 20
1364.6295614633918
 30
0.0
 11
112.33573137087569
 21
1365.1562675305222
 31
0.0
  0
LINE
  5
254
330
17
100
AcDbEntity
  8
0
100
AcDbLine
 10
112.33573137087569
 20
1365.1562675305222
 30
0.0
 11
112.2721261758947
 21
1365.6796839539575
 31
0.0
  0
LINE
  5
255
330
17
100
AcDbEntity
  8
0
100
AcDbLine
 10
112.2721261758947
 20
1365.6796839539575
 30
0.0
 11
112.16958387563098
 21
1366.19688357674
 31
0.0
  0
LINE
  5
256
330
17
100
AcDbEntity
  8
0
100
AcDbLine
 10
112.16958387563098
 20
1366.19688357674
 30
0.0
 11
112.02867792822299
 21
1366.7049740087853
 31
0.0
  0
LINE
  5
257
330
17
100
AcDbEntity
  8
0
100
AcDbLine
 10
112.02867792822299
 20
1366.7049740087853
 30
0.0
 11
111.85019633688522
 21
1367.201113802295
 31
0.0
  0
LINE
  5
258
330
17
100
AcDbEntity
  8
0
100
AcDbLine
 10
111.85019633688522
 20
1367.201113802295
 30
0.0
 11
111.63513724307536
 21
1367.6825283422916
 31
0.0
  0
LINE
  5
259
330
17
100
AcDbEntity
  8
0
100
AcDbLine
 10
111.63513724307536
 20
1367.6825283422916
 30
0.0
 11
111.38470334448196
 21
1368.1465253633874
 31
0.0
  0
LINE
  5
25A
330
17
100
AcDbEntity
  8
0
100
AcDbLine
 10
111.38470334448196
 20
1368.1465253633874
 30
0.0
 11
111.10029516905145
 21
1368.5905100060272
 31
0.0
  0
LINE
  5
25B
330
17
100
AcDbEntity
  8
0
100
AcDbLine
 10
111.10029516905145
 20
1368.5905100060272
 30
0.0
 11
110.78350324266735
 21
1369.0119993279889
 31
0.0
  0
LINE
  5
25C
330
17
100
AcDbEntity
  8
0
100
AcDbLine
 10
110.78350324266735
 20
1369.0119993279889
 30
0.0
 11
110.43609919428488
 21
1369.408636190015
 31
0.0
  0
LINE
  5
25D
330
17
100
AcDbEntity
  8
0
100
AcDbLine
 10
110.43609919428488
 20
1369.408636190015
 30
0.0
 11
110.06002584826282
 21
1369.7782024378823
 31
0.0
  0
LINE
  5
25E
330
17
100
AcDbEntity
  8
0
100
AcDbLine
 10
110.06002584826282
 20
1369.7782024378823
 30
0.0
 11
109.6573863593015
 21
1370.1186313072199
 31
0.0
  0
LINE
  5
25F
330
17
100
AcDbEntity
  8
0
100
AcDbLine
 10
109.6573863593015
 20
1370.1186313072199
 30
0.0
 11
109.23043245074889
 21
1370.4280189817039
 31
0.0
  0
LINE
  5
260
330
17
100
AcDbEntity
  8
0
100
AcDbLine
 10
109.23043245074889
 20
1370.4280189817039
 30
0.0
 11
108.78155182205039
 21
1370.704635239957
 31
0.0
  0
LINE
  5
261
330
17
100
AcDbEntity
  8
0
100
AcDbLine
 10
108.78155182205039
 20
1370.704635239957
 30
0.0
 11
108.31325479576422
 21
1370.9469331316564
 31
0.0
  0
LINE
  5
262
330
17
100
AcDbEntity
  8
0
100
AcDbLine
 10
108.31325479576422
 20
1370.9469331316564
 30
0.0
 11
107.82816027882055
 21
1371.153557628708
 31
0.0
  0
LINE
  5
263
330
17
100
AcDbEntity
  8
0
100
AcDbLine
 10
107.82816027882055
 20
1371.153557628708
 30
0.0
 11
107.32898111653067
 21
1371.3233532031095
 31
0.0
  0
LINE
  5
264
330
17
100
AcDbEntity
  8
0
100
AcDbLine
 10
107.32898111653067
 20
1371.3233532031095
 30
0.0
 11
106.81850892125607
 21
1371.4553702891326
 31
0.0
  0
LINE
  5
265
330
17
100
AcDbEntity
  8
0
100
AcDbLine
 10
106.81850892125607
 20
1371.4553702891326
 30
0.0
 11
106.29959846057908
 21
1371.5488705936796
 31
0.0
  0
LINE
  5
266
330
17
100
AcDbEntity
  8
0
100
AcDbLine
 10
106.29959846057908
 20
1371.5488705936796
 30
0.0
 11
105.77515169228589
 21
1371.6033312251247
 31
0.0
  0
LINE
  5
267
330
17
100
AcDbEntity
  8
0
100
AcDbLine
 10
105.77515169228589
 20
1371.6033312251247
 30
0.0
 11
105.2481015354399
 21
1371.6184476175224
 31
0.0
  0
LINE
  5
268
330
17
100
AcDbEntity
  8
0
100
AcDbLine
 10
105.2481015354399
 20
1371.6184476175224
 30
0.0
 11
104.7213954683095
 21
1371.5941352338746
 31
0.0
  0
LINE
  5
269
330
17
100
AcDbEntity
  8
0
100
AcDbLine
 10
104.7213954683095
 20
1371.5941352338746
 30
0.0
 11
104.19797904487415
 21
1371.5305300388923
 31
0.0
  0
LINE
  5
26A
330
17
100
AcDbEntity
  8
0
100
AcDbLine
 10
104.19797904487415
 20
1371.5305300388923
 30
0.0
 11
103.68077942209078
 21
1371.4279877386302
 31
0.0
  0
LINE
  5
26B
330
17
100
AcDbEntity
  8
0
100
AcDbLine
 10
103.68077942209078
 20
1371.4279877386302
 30
0.0
 11
103.17268899004576
 21
1371.2870817912217
 31
0.0
  0
LINE
  5
26C
330
17
100
AcDbEntity
  8
0
100
AcDbLine
 10
103.17268899004576
 20
1371.2870817912217
 30
0.0
 11
102.67654919653594
 21
1371.1086001998838
 31
0.0
  0
LINE
  5
26D
330
17
100
AcDbEntity
  8
0
100
AcDbLine
 10
102.67654919653594
 20
1371.1086001998838
 30
0.0
 11
102.19513465653925
 21
1370.8935411060734
 31
0.0
  0
LINE
  5
26E
330
17
100
AcDbEntity
  8
0
100
AcDbLine
 10
102.19513465653925
 20
1370.8935411060734
 30
0.0
 11
101.7311376354434
 21
1370.6431072074806
 31
0.0
  0
LINE
  5
26F
330
17
100
AcDbEntity
  8
0
100
AcDbLine
 10
101.7311376354434
 20
1370.6431072074806
 30
0.0
 11
101.28715299280493
 21
1370.3586990320493
 31
0.0
  0
LINE
  5
270
330
17
100
AcDbEntity
  8
0
100
AcDbLine
 10
101.28715299280493
 20
1370.3586990320493
 30
0.0
 11
100.86566367084238
 21
1370.0419071056644
 31
0.0
  0
LINE
  5
271
330
17
100
AcDbEntity
  8
0
100
AcDbLine
 10
100.86566367084238
 20
1370.0419071056644
 30
0.0
 11
100.4690268088161
 21
1369.6945030572836
 31
0.0
  0
LINE
  5
272
330
17
100
AcDbEntity
  8
0
100
AcDbLine
 10
100.4690268088161
 20
1369.6945030572836
 30
0.0
 11
100.09946056094938
 21
1369.3184297112612
 31
0.0
  0
LINE
  5
273
330
17
100
AcDbEntity
  8
0
100
AcDbLine
 10
100.09946056094938
 20
1369.3184297112612
 30
0.0
 11
99.75903169161036
 21
1368.9157902222996
 31
0.0
  0
LINE
  5
274
330
17
100
AcDbEntity
  8
0
100
AcDbLine
 10
99.75903169161036
 20
1368.9157902222996
 30
0.0
 11
99.44964401712703
 21
1368.488836313748
 31
0.0
  0
LINE
  5
275
330
17
100
AcDbEntity
  8
0
100
AcDbLine
 10
99.44964401712703
 20
1368.488836313748
 30
0.0
 11
99.17302775887434
 21
1368.0399556850482
 31
0.0
  0
LINE
  5
276
330
17
100
AcDbEntity
  8
0
100
AcDbLine
 10
99.17302775887434
 20
1368.0399556850482
 30
0.0
 11
98.93072986717455
 21
1367.5716586587623
 31
0.0
  0
LINE
  5
277
330
17
100
AcDbEntity
  8
0
100
AcDbLine
 10
98.93072986717455
 20
1367.5716586587623
 30
0.0
 11
98.72410537012318
 21
1367.0865641418186
 31
0.0
  0
LINE
  5
278
330
17
100
AcDbEntity
  8
0
100
AcDbLine
 10
98.72410537012318
 20
1367.0865641418186
 30
0.0
 11
98.55430979572232
 21
1366.587384979529
 31
0.0
  0
LINE
  5
279
330
17
100
AcDbEntity
  8
0
100
AcDbLine
 10
98.55430979572232
 20
1366.587384979529
 30
0.0
 11
98.42229270969956
 21
1366.0769127842536
 31
0.0
  0
LINE
  5
27A
330
17
100
AcDbEntity
  8
0
100
AcDbLine
 10
98.42229270969956
 20
1366.0769127842536
 30
0.0
 11
98.32879240515086
 21
1365.5580023235777
 31
0.0
  0
LINE
  5
27B
330
17
100
AcDbEntity
  8
0
100
AcDbLine
 10
98.32879240515086
 20
1365.5580023235777
 30
0.0
 11
98.27433177370676
 21
1365.0335555552847
 31
0.0
  0
LINE
  5
27C
330
17
100
AcDbEntity
  8
0
100
AcDbLine
 10
98.27433177370676
 20
1365.0335555552847
 30
0.0
 11
98.25921538130963
 21
1364.5065053984385
 31
0.0
  0
LINE
  5
27D
330
17
100
AcDbEntity
  8
0
100
AcDbLine
 10
98.25921538130963
 20
1364.5065053984385
 30
0.0
 11
98.2835277649571
 21
1363.9797993313077
 31
0.0
  0
LINE
  5
27E
330
17
100
AcDbEntity
  8
0
100
AcDbLine
 10
98.2835277649571
 20
1363.9797993313077
 30
0.0
 11
98.34713295993821
 21
1363.456382907873
 31
0.0
  0
LINE
  5
27F
330
17
100
AcDbEntity
  8
0
100
AcDbLine
 10
98.34713295993821
 20
1363.456382907873
 30
0.0
 11
98.44967526020193
 21
1362.9391832850895
 31
0.0
  0
LINE
  5
280
330
17
100
AcDbEntity
  8
0
100
AcDbLine
 10
98.44967526020193
 20
1362.9391832850895
 30
0.0
 11
98.59058120760992
 21
1362.4310928530451
 31
0.0
  0
LINE
  5
281
330
17
100
AcDbEntity
  8
0
100
AcDbLine
 10
98.59058120760992
 20
1362.4310928530451
 30
0.0
 11
98.76906279894769
 21
1361.9349530595348
 31
0.0
  0
LINE
  5
282
330
17
100
AcDbEntity
  8
0
100
AcDbLine
 10
98.76906279894769
 20
1361.9349530595348
 30
0.0
 11
98.98412189275754
 21
1361.4535385195375
 31
0.0
  0
LINE
  5
283
330
17
100
AcDbEntity
  8
0
100
AcDbLine
 10
98.98412189275754
 20
1361.4535385195375
 30
0.0
 11
99.23455579135094
 21
1360.9895414984414
 31
0.0
  0
LINE
  5
284
330
17
100
AcDbEntity
  8
0
100
AcDbLine
 10
99.23455579135094
 20
1360.9895414984414
 30
0.0
 11
99.51896396678156
 21
1360.5455568558032
 31
0.0
  0
LINE
  5
285
330
17
100
AcDbEntity
  8
0
100
AcDbLine
 10
99.51896396678156
 20
1360.5455568558032
 30
0.0
 11
99.83575589316555
 21
1360.1240675338413
 31
0.0
  0
LINE
  5
286
330
17
100
AcDbEntity
  8
0
100
AcDbLine
 10
99.83575589316555
 20
1360.1240675338413
 30
0.0
 11
100.18315994154793
 21
1359.7274306718139
 31
0.0
  0
LINE
  5
287
330
17
100
AcDbEntity
  8
0
100
AcDbLine
 10
100.18315994154793
 20
1359.7274306718139
 30
0.0
 11
100.55923328757007
 21
1359.357864423948
 31
0.0
  0
LINE
  5
288
330
17
100
AcDbEntity
  8
0
100
AcDbLine
 10
100.55923328757007
 20
1359.357864423948
 30
0.0
 11
100.96187277653142
 21
1359.0174355546087
 31
0.0
  0
LINE
  5
289
330
17
100
AcDbEntity
  8
0
100
AcDbLine
 10
100.96187277653142
 20
1359.0174355546087
 30
0.0
 11
101.38882668508403
 21
1358.7080478801247
 31
0.0
  0
LINE
  5
28A
330
17
100
AcDbEntity
  8
0
100
AcDbLine
 10
101.38882668508403
 20
1358.7080478801247
 30
0.0
 11
101.83770731378263
 21
1358.4314316218727
 31
0.0
  0
LINE
  5
28B
330
17
100
AcDbEntity
  8
0
100
AcDbLine
 10
101.83770731378263
 20
1358.4314316218727
 30
0.0
 11
102.30600434006868
 21
1358.1891337301727
 31
0.0
  0
LINE
  5
28C
330
17
100
AcDbEntity
  8
0
100
AcDbLine
 10
102.30600434006868
 20
1358.1891337301727
 30
0.0
 11
102.79109885701236
 21
1357.9825092331212
 31
0.0
  0
LINE
  5
28D
330
17
100
AcDbEntity
  8
0
100
AcDbLine
 10
102.79109885701236
 20
1357.9825092331212
 30
0.0
 11
103.29027801930211
 21
1357.8127136587204
 31
0.0
  0
LINE
  5
28E
330
17
100
AcDbEntity
  8
0
100
AcDbLine
 10
103.29027801930211
 20
1357.8127136587204
 30
0.0
 11
103.80075021457695
 21
1357.6806965726973
 31
0.0
  0
LINE
  5
28F
330
17
100
AcDbEntity
  8
0
100
AcDbLine
 10
103.80075021457695
 20
1357.6806965726973
 30
0.0
 11
104.31966067525384
 21
1357.5871962681488
 31
0.0
  0
LINE
  5
290
330
17
100
AcDbEntity
  8
0
100
AcDbLine
 10
104.31966067525384
 20
1357.5871962681488
 30
0.0
 11
104.84410744354702
 21
1357.5327356367045
 31
0.0
  0
LINE
  5
291
330
17
100
AcDbEntity
  8
0
100
AcDbLine
 10
104.84410744354702
 20
1357.5327356367045
 30
0.0
 11
105.37115760039312
 21
1357.5176192443078
 31
0.0
  0
LINE
  5
292
330
17
100
AcDbEntity
  8
0
100
AcDbLine
 10
105.37115760039312
 20
1357.5176192443078
 30
0.0
 11
105.89786366752341
 21
1357.541931627955
 31
0.0
  0
LINE
  5
293
330
17
100
AcDbEntity
  8
0
100
AcDbLine
 10
105.89786366752341
 20
1357.541931627955
 30
0.0
 11
106.42128009095877
 21
1357.6055368229363
 31
0.0
  0
LINE
  5
294
330
17
100
AcDbEntity
  8
0
100
AcDbLine
 10
106.42128009095877
 20
1357.6055368229363
 30
0.0
 11
106.93847971374224
 21
1357.7080791231997
 31
0.0
  0
LINE
  5
295
330
17
100
AcDbEntity
  8
0
100
AcDbLine
 10
106.93847971374224
 20
1357.7080791231997
 30
0.0
 11
107.44657014578702
 21
1357.8489850706083
 31
0.0
  0
LINE
  5
296
330
17
100
AcDbEntity
  8
0
100
AcDbLine
 10
107.44657014578702
 20
1357.8489850706083
 30
0.0
 11
107.94270993929696
 21
1358.0274666619457
 31
0.0
  0
LINE
  5
297
330
17
100
AcDbEntity
  8
0
100
AcDbLine
 10
107.94270993929696
 20
1358.0274666619457
 30
0.0
 11
108.42412447929365
 21
1358.2425257557557
 31
0.0
  0
LINE
  5
298
330
17
100
AcDbEntity
  8
0
100
AcDbLine
 10
108.42412447929365
 20
1358.2425257557557
 30
0.0
 11
108.88812150038962
 21
1358.4929596543493
 31
0.0
  0
LINE
  5
299
330
17
100
AcDbEntity
  8
0
100
AcDbLine
 10
108.88812150038962
 20
1358.4929596543493
 30
0.0
 11
109.33210614302799
 21
1358.7773678297792
 31
0.0
  0
LINE
  5
29A
330
17
100
AcDbEntity
  8
0
100
AcDbLine
 10
109.33210614302799
 20
1358.7773678297792
 30
0.0
 11
109.75359546499054
 21
1359.0941597561641
 31
0.0
  0
LINE
  5
29B
330
17
100
AcDbEntity
  8
0
100
AcDbLine
 10
109.75359546499054
 20
1359.0941597561641
 30
0.0
 11
110.1502323270168
 21
1359.4415638045466
 31
0.0
  0
LINE
  5
29C
330
17
100
AcDbEntity
  8
0
100
AcDbLine
 10
110.1502323270168
 20
1359.4415638045466
 30
0.0
 11
110.51979857488342
 21
1359.8176371505679
 31
0.0
  0
LINE
  5
29D
330
17
100
AcDbEntity
  8
0
100
AcDbLine
 10
110.51979857488342
 20
1359.8176371505679
 30
0.0
 11
110.86022744422255
 21
1360.2202766395305
 31
0.0
  0
LINE
  5
29E
330
17
100
AcDbEntity
  8
0
100
AcDbLine
 10
110.86022744422255
 20
1360.2202766395305
 30
0.0
 11
111.16961511870598
 21
1360.6472305480825
 31
0.0
  0
LINE
  5
29F
330
17
100
AcDbEntity
  8
0
100
AcDbLine
 10
111.16961511870598
 20
1360.6472305480825
 30
0.0
 11
111.44623137695856
 21
1361.0961111767808
 31
0.0
  0
LINE
  5
2A0
330
17
100
AcDbEntity
  8
0
100
AcDbLine
 10
111.44623137695856
 20
1361.0961111767808
 30
0.0
 11
111.68852926865836
 21
1361.5644082030667
 31
0.0
  0
LINE
  5
2A1
330
17
100
AcDbEntity
  8
0
100
AcDbLine
 10
111.68852926865836
 20
1361.5644082030667
 30
0.0
 11
111.89515376570972
 21
1362.0495027200113
 31
0.0
  0
LINE
  5
2A2
330
17
100
AcDbEntity
  8
0
100
AcDbLine
 10
111.89515376570972
 20
1362.0495027200113
 30
0.0
 11
112.06494934011059
 21
1362.5486818823013
 31
0.0
  0
LINE
  5
2A3
330
17
100
AcDbEntity
  8
0
100
AcDbLine
 10
112.06494934011059
 20
1362.5486818823013
 30
0.0
 11
112.19696642613334
 21
1363.0591540775756
 31
0.0
  0
LINE
  5
2A4
330
17
100
AcDbEntity
  8
0
100
AcDbLine
 10
112.19696642613334
 20
1363.0591540775756
 30
0.0
 11
112.29046673068204
 21
1363.5780645382524
 31
0.0
  0
LINE
  5
2A5
330
17
100
AcDbEntity
  8
0
100
AcDbLine
 10
112.29046673068204
 20
1363.5780645382524
 30
0.0
 11
112.34492736212603
 21
1364.1025113065452
 31
0.0
  0
LINE
  5
2A6
330
17
100
AcDbEntity
  8
0
100
AcDbLine
 10
112.34492736212603
 20
1364.1025113065452
 30
0.0
 11
112.36004375452337
 21
1364.6295614633918
 31
0.0
  0
LINE
  5
2A7
330
17
100
AcDbEntity
  8
0
100
AcDbLine
 10
1542.7884505256188
 20
275.10225593465975
 30
0.0
 11
1542.7641381419714
 21
275.62896200179034
 31
0.0
  0
LINE
  5
2A8
330
17
100
AcDbEntity
  8
0
100
AcDbLine
 10
1542.7641381419714
 20
275.62896200179034
 30
0.0
 11
1542.7005329469903
 21
276.1523784252256
 31
0.0
  0
LINE
  5
2A9
330
17
100
AcDbEntity
  8
0
100
AcDbLine
 10
1542.7005329469903
 20
276.1523784252256
 30
0.0
 11
1542.5979906467267
 21
276.66957804800904
 31
0.0
  0
LINE
  5
2AA
330
17
100
AcDbEntity
  8
0
100
AcDbLine
 10
1542.5979906467267
 20
276.66957804800904
 30
0.0
 11
1542.4570846993188
 21
277.1776684800543
 31
0.0
  0
LINE
  5
2AB
330
17
100
AcDbEntity
  8
0
100
AcDbLine
 10
1542.4570846993188
 20
277.1776684800543
 30
0.0
 11
1542.2786031079816
 21
277.6738082735636
 31
0.0
  0
LINE
  5
2AC
330
17
100
AcDbEntity
  8
0
100
AcDbLine
 10
1542.2786031079816
 20
277.6738082735636
 30
0.0
 11
1542.063544014171
 21
278.1552228135605
 31
0.0
  0
LINE
  5
2AD
330
17
100
AcDbEntity
  8
0
100
AcDbLine
 10
1542.063544014171
 20
278.1552228135605
 30
0.0
 11
1541.8131101155773
 21
278.6192198346564
 31
0.0
  0
LINE
  5
2AE
330
17
100
AcDbEntity
  8
0
100
AcDbLine
 10
1541.8131101155773
 20
278.6192198346564
 30
0.0
 11
1541.528701940147
 21
279.0632044772947
 31
0.0
  0
LINE
  5
2AF
330
17
100
AcDbEntity
  8
0
100
AcDbLine
 10
1541.528701940147
 20
279.0632044772947
 30
0.0
 11
1541.2119100137638
 21
279.48469379925746
 31
0.0
  0
LINE
  5
2B0
330
17
100
AcDbEntity
  8
0
100
AcDbLine
 10
1541.2119100137638
 20
279.48469379925746
 30
0.0
 11
1540.864505965381
 21
279.88133066128364
 31
0.0
  0
LINE
  5
2B1
330
17
100
AcDbEntity
  8
0
100
AcDbLine
 10
1540.864505965381
 20
279.88133066128364
 30
0.0
 11
1540.4884326193587
 21
280.25089690915036
 31
0.0
  0
LINE
  5
2B2
330
17
100
AcDbEntity
  8
0
100
AcDbLine
 10
1540.4884326193587
 20
280.25089690915036
 30
0.0
 11
1540.0857931303972
 21
280.5913257784896
 31
0.0
  0
LINE
  5
2B3
330
17
100
AcDbEntity
  8
0
100
AcDbLine
 10
1540.0857931303972
 20
280.5913257784896
 30
0.0
 11
1539.6588392218443
 21
280.9007134529729
 31
0.0
  0
LINE
  5
2B4
330
17
100
AcDbEntity
  8
0
100
AcDbLine
 10
1539.6588392218443
 20
280.9007134529729
 30
0.0
 11
1539.2099585931455
 21
281.17732971122575
 31
0.0
  0
LINE
  5
2B5
330
17
100
AcDbEntity
  8
0
100
AcDbLine
 10
1539.2099585931455
 20
281.17732971122575
 30
0.0
 11
1538.7416615668596
 21
281.4196276029254
 31
0.0
  0
LINE
  5
2B6
330
17
100
AcDbEntity
  8
0
100
AcDbLine
 10
1538.7416615668596
 20
281.4196276029254
 30
0.0
 11
1538.2565670499164
 21
281.6262520999768
 31
0.0
  0
LINE
  5
2B7
330
17
100
AcDbEntity
  8
0
100
AcDbLine
 10
1538.2565670499164
 20
281.6262520999768
 30
0.0
 11
1537.7573878876265
 21
281.7960476743774
 31
0.0
  0
LINE
  5
2B8
330
17
100
AcDbEntity
  8
0
100
AcDbLine
 10
1537.7573878876265
 20
281.7960476743774
 30
0.0
 11
1537.2469156923514
 21
281.9280647604003
 31
0.0
  0
LINE
  5
2B9
330
17
100
AcDbEntity
  8
0
100
AcDbLine
 10
1537.2469156923514
 20
281.9280647604003
 30
0.0
 11
1536.728005231675
 21
282.02156506494873
 31
0.0
  0
LINE
  5
2BA
330
17
100
AcDbEntity
  8
0
100
AcDbLine
 10
1536.728005231675
 20
282.02156506494873
 30
0.0
 11
1536.203558463381
 21
282.076025696393
 31
0.0
  0
LINE
  5
2BB
330
17
100
AcDbEntity
  8
0
100
AcDbLine
 10
1536.203558463381
 20
282.076025696393
 30
0.0
 11
1535.6765083065357
 21
282.09114208879043
 31
0.0
  0
LINE
  5
2BC
330
17
100
AcDbEntity
  8
0
100
AcDbLine
 10
1535.6765083065357
 20
282.09114208879043
 30
0.0
 11
1535.1498022394055
 21
282.0668297051426
 31
0.0
  0
LINE
  5
2BD
330
17
100
AcDbEntity
  8
0
100
AcDbLine
 10
1535.1498022394055
 20
282.0668297051426
 30
0.0
 11
1534.6263858159705
 21
282.00322451016143
 31
0.0
  0
LINE
  5
2BE
330
17
100
AcDbEntity
  8
0
100
AcDbLine
 10
1534.6263858159705
 20
282.00322451016143
 30
0.0
 11
1534.1091861931864
 21
281.9006822098979
 31
0.0
  0
LINE
  5
2BF
330
17
100
AcDbEntity
  8
0
100
AcDbLine
 10
1534.1091861931864
 20
281.9006822098979
 30
0.0
 11
1533.601095761141
 21
281.7597762624898
 31
0.0
  0
LINE
  5
2C0
330
17
100
AcDbEntity
  8
0
100
AcDbLine
 10
1533.601095761141
 20
281.7597762624898
 30
0.0
 11
1533.1049559676323
 21
281.58129467115225
 31
0.0
  0
LINE
  5
2C1
330
17
100
AcDbEntity
  8
0
100
AcDbLine
 10
1533.1049559676323
 20
281.58129467115225
 30
0.0
 11
1532.6235414276348
 21
281.3662355773424
 31
0.0
  0
LINE
  5
2C2
330
17
100
AcDbEntity
  8
0
100
AcDbLine
 10
1532.6235414276348
 20
281.3662355773424
 30
0.0
 11
1532.1595444065392
 21
281.1158016787491
 31
0.0
  0
LINE
  5
2C3
330
17
100
AcDbEntity
  8
0
100
AcDbLine
 10
1532.1595444065392
 20
281.1158016787491
 30
0.0
 11
1531.7155597639007
 21
280.8313935033184
 31
0.0
  0
LINE
  5
2C4
330
17
100
AcDbEntity
  8
0
100
AcDbLine
 10
1531.7155597639007
 20
280.8313935033184
 30
0.0
 11
1531.2940704419377
 21
280.5146015769344
 31
0.0
  0
LINE
  5
2C5
330
17
100
AcDbEntity
  8
0
100
AcDbLine
 10
1531.2940704419377
 20
280.5146015769344
 30
0.0
 11
1530.8974335799116
 21
280.1671975285518
 31
0.0
  0
LINE
  5
2C6
330
17
100
AcDbEntity
  8
0
100
AcDbLine
 10
1530.8974335799116
 20
280.1671975285518
 30
0.0
 11
1530.5278673320454
 21
279.79112418252964
 31
0.0
  0
LINE
  5
2C7
330
17
100
AcDbEntity
  8
0
100
AcDbLine
 10
1530.5278673320454
 20
279.79112418252964
 30
0.0
 11
1530.1874384627063
 21
279.38848469356844
 31
0.0
  0
LINE
  5
2C8
330
17
100
AcDbEntity
  8
0
100
AcDbLine
 10
1530.1874384627063
 20
279.38848469356844
 30
0.0
 11
1529.8780507882225
 21
278.9615307850156
 31
0.0
  0
LINE
  5
2C9
330
17
100
AcDbEntity
  8
0
100
AcDbLine
 10
1529.8780507882225
 20
278.9615307850156
 30
0.0
 11
1529.6014345299702
 21
278.51265015631725
 31
0.0
  0
LINE
  5
2CA
330
17
100
AcDbEntity
  8
0
100
AcDbLine
 10
1529.6014345299702
 20
278.51265015631725
 30
0.0
 11
1529.3591366382698
 21
278.04435313003125
 31
0.0
  0
LINE
  5
2CB
330
17
100
AcDbEntity
  8
0
100
AcDbLine
 10
1529.3591366382698
 20
278.04435313003125
 30
0.0
 11
1529.1525121412192
 21
277.5592586130871
 31
0.0
  0
LINE
  5
2CC
330
17
100
AcDbEntity
  8
0
100
AcDbLine
 10
1529.1525121412192
 20
277.5592586130871
 30
0.0
 11
1528.982716566818
 21
277.06007945079796
 31
0.0
  0
LINE
  5
2CD
330
17
100
AcDbEntity
  8
0
100
AcDbLine
 10
1528.982716566818
 20
277.06007945079796
 30
0.0
 11
1528.8506994807951
 21
276.5496072555229
 31
0.0
  0
LINE
  5
2CE
330
17
100
AcDbEntity
  8
0
100
AcDbLine
 10
1528.8506994807951
 20
276.5496072555229
 30
0.0
 11
1528.7571991762466
 21
276.0306967948459
 31
0.0
  0
LINE
  5
2CF
330
17
100
AcDbEntity
  8
0
100
AcDbLine
 10
1528.7571991762466
 20
276.0306967948459
 30
0.0
 11
1528.7027385448023
 21
275.50625002655283
 31
0.0
  0
LINE
  5
2D0
330
17
100
AcDbEntity
  8
0
100
AcDbLine
 10
1528.7027385448023
 20
275.50625002655283
 30
0.0
 11
1528.6876221524053
 21
274.9791998697067
 31
0.0
  0
LINE
  5
2D1
330
17
100
AcDbEntity
  8
0
100
AcDbLine
 10
1528.6876221524053
 20
274.9791998697067
 30
0.0
 11
1528.7119345360527
 21
274.4524938025763
 31
0.0
  0
LINE
  5
2D2
330
17
100
AcDbEntity
  8
0
100
AcDbLine
 10
1528.7119345360527
 20
274.4524938025763
 30
0.0
 11
1528.7755397310339
 21
273.92907737914095
 31
0.0
  0
LINE
  5
2D3
330
17
100
AcDbEntity
  8
0
100
AcDbLine
 10
1528.7755397310339
 20
273.92907737914095
 30
0.0
 11
1528.8780820312975
 21
273.4118777563581
 31
0.0
  0
LINE
  5
2D4
330
17
100
AcDbEntity
  8
0
100
AcDbLine
 10
1528.8780820312975
 20
273.4118777563581
 30
0.0
 11
1529.0189879787056
 21
272.9037873243127
 31
0.0
  0
LINE
  5
2D5
330
17
100
AcDbEntity
  8
0
100
AcDbLine
 10
1529.0189879787056
 20
272.9037873243127
 30
0.0
 11
1529.1974695700437
 21
272.4076475308028
 31
0.0
  0
LINE
  5
2D6
330
17
100
AcDbEntity
  8
0
100
AcDbLine
 10
1529.1974695700437
 20
272.4076475308028
 30
0.0
 11
1529.4125286638528
 21
271.9262329908065
 31
0.0
  0
LINE
  5
2D7
330
17
100
AcDbEntity
  8
0
100
AcDbLine
 10
1529.4125286638528
 20
271.9262329908065
 30
0.0
 11
1529.6629625624469
 21
271.46223596971015
 31
0.0
  0
LINE
  5
2D8
330
17
100
AcDbEntity
  8
0
100
AcDbLine
 10
1529.6629625624469
 20
271.46223596971015
 30
0.0
 11
1529.947370737877
 21
271.01825132707177
 31
0.0
  0
LINE
  5
2D9
330
17
100
AcDbEntity
  8
0
100
AcDbLine
 10
1529.947370737877
 20
271.01825132707177
 30
0.0
 11
1530.2641626642614
 21
270.5967620051092
 31
0.0
  0
LINE
  5
2DA
330
17
100
AcDbEntity
  8
0
100
AcDbLine
 10
1530.2641626642614
 20
270.5967620051092
 30
0.0
 11
1530.611566712644
 21
270.20012514308326
 31
0.0
  0
LINE
  5
2DB
330
17
100
AcDbEntity
  8
0
100
AcDbLine
 10
1530.611566712644
 20
270.20012514308326
 30
0.0
 11
1530.9876400586656
 21
269.83055889521665
 31
0.0
  0
LINE
  5
2DC
330
17
100
AcDbEntity
  8
0
100
AcDbLine
 10
1530.9876400586656
 20
269.83055889521665
 30
0.0
 11
1531.3902795476267
 21
269.4901300258773
 31
0.0
  0
LINE
  5
2DD
330
17
100
AcDbEntity
  8
0
100
AcDbLine
 10
1531.3902795476267
 20
269.4901300258773
 30
0.0
 11
1531.8172334561798
 21
269.18074235139375
 31
0.0
  0
LINE
  5
2DE
330
17
100
AcDbEntity
  8
0
100
AcDbLine
 10
1531.8172334561798
 20
269.18074235139375
 30
0.0
 11
1532.2661140848784
 21
268.90412609314114
 31
0.0
  0
LINE
  5
2DF
330
17
100
AcDbEntity
  8
0
100
AcDbLine
 10
1532.2661140848784
 20
268.90412609314114
 30
0.0
 11
1532.7344111111643
 21
268.6618282014417
 31
0.0
  0
LINE
  5
2E0
330
17
100
AcDbEntity
  8
0
100
AcDbLine
 10
1532.7344111111643
 20
268.6618282014417
 30
0.0
 11
1533.2195056281087
 21
268.4552037043899
 31
0.0
  0
LINE
  5
2E1
330
17
100
AcDbEntity
  8
0
100
AcDbLine
 10
1533.2195056281087
 20
268.4552037043899
 30
0.0
 11
1533.7186847903974
 21
268.28540812998904
 31
0.0
  0
LINE
  5
2E2
330
17
100
AcDbEntity
  8
0
100
AcDbLine
 10
1533.7186847903974
 20
268.28540812998904
 30
0.0
 11
1534.2291569856725
 21
268.1533910439664
 31
0.0
  0
LINE
  5
2E3
330
17
100
AcDbEntity
  8
0
100
AcDbLine
 10
1534.2291569856725
 20
268.1533910439664
 30
0.0
 11
1534.7480674463502
 21
268.05989073941794
 31
0.0
  0
LINE
  5
2E4
330
17
100
AcDbEntity
  8
0
100
AcDbLine
 10
1534.7480674463502
 20
268.05989073941794
 30
0.0
 11
1535.272514214643
 21
268.00543010797355
 31
0.0
  0
LINE
  5
2E5
330
17
100
AcDbEntity
  8
0
100
AcDbLine
 10
1535.272514214643
 20
268.00543010797355
 30
0.0
 11
1535.799564371489
 21
267.99031371557624
 31
0.0
  0
LINE
  5
2E6
330
17
100
AcDbEntity
  8
0
100
AcDbLine
 10
1535.799564371489
 20
267.99031371557624
 30
0.0
 11
1536.3262704386184
 21
268.01462609922396
 31
0.0
  0
LINE
  5
2E7
330
17
100
AcDbEntity
  8
0
100
AcDbLine
 10
1536.3262704386184
 20
268.01462609922396
 30
0.0
 11
1536.8496868620548
 21
268.07823129420524
 31
0.0
  0
LINE
  5
2E8
330
17
100
AcDbEntity
  8
0
100
AcDbLine
 10
1536.8496868620548
 20
268.07823129420524
 30
0.0
 11
1537.3668864848376
 21
268.18077359446875
 31
0.0
  0
LINE
  5
2E9
330
17
100
AcDbEntity
  8
0
100
AcDbLine
 10
1537.3668864848376
 20
268.18077359446875
 30
0.0
 11
1537.8749769168828
 21
268.3216795418766
 31
0.0
  0
LINE
  5
2EA
330
17
100
AcDbEntity
  8
0
100
AcDbLine
 10
1537.8749769168828
 20
268.3216795418766
 30
0.0
 11
1538.3711167103927
 21
268.5001611332144
 31
0.0
  0
LINE
  5
2EB
330
17
100
AcDbEntity
  8
0
100
AcDbLine
 10
1538.3711167103927
 20
268.5001611332144
 30
0.0
 11
1538.8525312503891
 21
268.7152202270247
 31
0.0
  0
LINE
  5
2EC
330
17
100
AcDbEntity
  8
0
100
AcDbLine
 10
1538.8525312503891
 20
268.7152202270247
 30
0.0
 11
1539.3165282714847
 21
268.9656541256178
 31
0.0
  0
LINE
  5
2ED
330
17
100
AcDbEntity
  8
0
100
AcDbLine
 10
1539.3165282714847
 20
268.9656541256178
 30
0.0
 11
1539.7605129141234
 21
269.2500623010483
 31
0.0
  0
LINE
  5
2EE
330
17
100
AcDbEntity
  8
0
100
AcDbLine
 10
1539.7605129141234
 20
269.2500623010483
 30
0.0
 11
1540.1820022360862
 21
269.5668542274325
 31
0.0
  0
LINE
  5
2EF
330
17
100
AcDbEntity
  8
0
100
AcDbLine
 10
1540.1820022360862
 20
269.5668542274325
 30
0.0
 11
1540.5786390981127
 21
269.91425827581475
 31
0.0
  0
LINE
  5
2F0
330
17
100
AcDbEntity
  8
0
100
AcDbLine
 10
1540.5786390981127
 20
269.91425827581475
 30
0.0
 11
1540.9482053459797
 21
270.29033162183725
 31
0.0
  0
LINE
  5
2F1
330
17
100
AcDbEntity
  8
0
100
AcDbLine
 10
1540.9482053459797
 20
270.29033162183725
 30
0.0
 11
1541.288634215319
 21
270.6929711107982
 31
0.0
  0
LINE
  5
2F2
330
17
100
AcDbEntity
  8
0
100
AcDbLine
 10
1541.288634215319
 20
270.6929711107982
 30
0.0
 11
1541.5980218898014
 21
271.11992501935083
 31
0.0
  0
LINE
  5
2F3
330
17
100
AcDbEntity
  8
0
100
AcDbLine
 10
1541.5980218898014
 20
271.11992501935083
 30
0.0
 11
1541.874638148054
 21
271.5688056480493
 31
0.0
  0
LINE
  5
2F4
330
17
100
AcDbEntity
  8
0
100
AcDbLine
 10
1541.874638148054
 20
271.5688056480493
 30
0.0
 11
1542.116936039754
 21
272.03710267433576
 31
0.0
  0
LINE
  5
2F5
330
17
100
AcDbEntity
  8
0
100
AcDbLine
 10
1542.116936039754
 20
272.03710267433576
 30
0.0
 11
1542.323560536806
 21
272.52219719127936
 31
0.0
  0
LINE
  5
2F6
330
17
100
AcDbEntity
  8
0
100
AcDbLine
 10
1542.323560536806
 20
272.52219719127936
 30
0.0
 11
1542.4933561112064
 21
273.02137635356905
 31
0.0
  0
LINE
  5
2F7
330
17
100
AcDbEntity
  8
0
100
AcDbLine
 10
1542.4933561112064
 20
273.02137635356905
 30
0.0
 11
1542.625373197229
 21
273.5318485488442
 31
0.0
  0
LINE
  5
2F8
330
17
100
AcDbEntity
  8
0
100
AcDbLine
 10
1542.625373197229
 20
273.5318485488442
 30
0.0
 11
1542.7188735017776
 21
274.0507590095207
 31
0.0
  0
LINE
  5
2F9
330
17
100
AcDbEntity
  8
0
100
AcDbLine
 10
1542.7188735017776
 20
274.0507590095207
 30
0.0
 11
1542.7733341332219
 21
274.57520577781384
 31
0.0
  0
LINE
  5
2FA
330
17
100
AcDbEntity
  8
0
100
AcDbLine
 10
1542.7733341332219
 20
274.57520577781384
 30
0.0
 11
1542.7884505256188
 21
275.10225593465975
 31
0.0
  0
LINE
  5
2FB
330
17
100
AcDbEntity
  8
0
100
AcDbLine
 10
1000.591371894507
 20
604.4703696501933
 30
0.0
 11
1002.0573256859293
 21
603.0571245391608
 31
0.0
  0
LINE
  5
2FC
330
17
100
AcDbEntity
  8
0
100
AcDbLine
 10
1002.0573256859293
 20
603.0571245391608
 30
0.0
 11
1003.5500810587495
 21
601.672218889175
 31
0.0
  0
LINE
  5
2FD
330
17
100
AcDbEntity
  8
0
100
AcDbLine
 10
1003.5500810587495
 20
601.672218889175
 30
0.0
 11
1005.0690902566276
 21
600.3161608818593
 31
0.0
  0
LINE
  5
2FE
330
17
100
AcDbEntity
  8
0
100
AcDbLine
 10
1005.0690902566276
 20
600.3161608818593
 30
0.0
 11
1006.6137958895654
 21
598.9894481133916
 31
0.0
  0
LINE
  5
2FF
330
17
100
AcDbEntity
  8
0
100
AcDbLine
 10
1006.6137958895654
 20
598.9894481133916
 30
0.0
 11
1008.183631138433
 21
597.6925674119173
 31
0.0
  0
LINE
  5
300
330
17
100
AcDbEntity
  8
0
100
AcDbLine
 10
1008.183631138433
 20
597.6925674119173
 30
0.0
 11
1009.7780199629601
 21
596.4259946589076
 31
0.0
  0
LINE
  5
301
330
17
100
AcDbEntity
  8
0
100
AcDbLine
 10
1009.7780199629601
 20
596.4259946589076
 30
0.0
 11
1011.3963773131113
 21
595.1901946145412
 31
0.0
  0
LINE
  5
302
330
17
100
AcDbEntity
  8
0
100
AcDbLine
 10
1011.3963773131113
 20
595.1901946145412
 30
0.0
 11
1013.0381093437642
 21
593.9856207471619
 31
0.0
  0
LINE
  5
303
330
17
100
AcDbEntity
  8
0
100
AcDbLine
 10
1013.0381093437642
 20
593.9856207471619
 30
0.0
 11
1014.7026136326186
 21
592.8127150668838
 31
0.0
  0
LINE
  5
304
330
17
100
AcDbEntity
  8
0
100
AcDbLine
 10
1014.7026136326186
 20
592.8127150668838
 30
0.0
 11
1016.3892794012503
 21
591.6719079633947
 31
0.0
  0
LINE
  5
305
330
17
100
AcDbEntity
  8
0
100
AcDbLine
 10
1016.3892794012503
 20
591.6719079633947
 30
0.0
 11
1018.0974877392317
 21
590.5636180480321
 31
0.0
  0
LINE
  5
306
330
17
100
AcDbEntity
  8
0
100
AcDbLine
 10
1018.0974877392317
 20
590.5636180480321
 30
0.0
 11
1019.826611831238
 21
589.4882520001736
 31
0.0
  0
LINE
  5
307
330
17
100
AcDbEntity
  8
0
100
AcDbLine
 10
1019.826611831238
 20
589.4882520001736
 30
0.0
 11
1021.5760171870512
 21
588.4462044180091
 31
0.0
  0
LINE
  5
308
330
17
100
AcDbEntity
  8
0
100
AcDbLine
 10
1021.5760171870512
 20
588.4462044180091
 30
0.0
 11
1023.345061874384
 21
587.4378576737461
 31
0.0
  0
LINE
  5
309
330
17
100
AcDbEntity
  8
0
100
AcDbLine
 10
1023.345061874384
 20
587.4378576737461
 30
0.0
 11
1025.1330967544295
 21
586.4635817733025
 31
0.0
  0
LINE
  5
30A
330
17
100
AcDbEntity
  8
0
100
AcDbLine
 10
1025.1330967544295
 20
586.4635817733025
 30
0.0
 11
1026.9394657200612
 21
585.5237342205334
 31
0.0
  0
LINE
  5
30B
330
17
100
AcDbEntity
  8
0
100
AcDbLine
 10
1026.9394657200612
 20
585.5237342205334
 30
0.0
 11
1028.7635059365853
 21
584.6186598860462
 31
0.0
  0
LINE
  5
30C
330
17
100
AcDbEntity
  8
0
100
AcDbLine
 10
1028.7635059365853
 20
584.6186598860462
 30
0.0
 11
1030.6045480849637
 21
583.7486908806568
 31
0.0
  0
LINE
  5
30D
330
17
100
AcDbEntity
  8
0
100
AcDbLine
 10
1030.6045480849637
 20
583.7486908806568
 30
0.0
 11
1032.4619166074165
 21
582.91414643352
 31
0.0
  0
LINE
  5
30E
330
17
100
AcDbEntity
  8
0
100
AcDbLine
 10
1032.4619166074165
 20
582.91414643352
 30
0.0
 11
1034.3349299553117
 21
582.1153327749935
 31
0.0
  0
LINE
  5
30F
330
17
100
AcDbEntity
  8
0
100
AcDbLine
 10
1034.3349299553117
 20
582.1153327749935
 30
0.0
 11
1036.222900839258
 21
581.352543024266
 31
0.0
  0
LINE
  5
310
330
17
100
AcDbEntity
  8
0
100
AcDbLine
 10
1036.222900839258
 20
581.352543024266
 30
0.0
 11
1038.1251364812977
 21
580.6260570818012
 31
0.0
  0
LINE
  5
311
330
17
100
AcDbEntity
  8
0
100
AcDbLine
 10
1038.1251364812977
 20
580.6260570818012
 30
0.0
 11
1040.0409388691176
 21
579.9361415266292
 31
0.0
  0
LINE
  5
312
330
17
100
AcDbEntity
  8
0
100
AcDbLine
 10
1040.0409388691176
 20
579.9361415266292
 30
0.0
 11
1041.9696050121806
 21
579.2830495185284
 31
0.0
  0
LINE
  5
313
330
17
100
AcDbEntity
  8
0
100
AcDbLine
 10
1041.9696050121806
 20
579.2830495185284
 30
0.0
 11
1043.9104271996837
 21
578.6670207051276
 31
0.0
  0
LINE
  5
314
330
17
100
AcDbEntity
  8
0
100
AcDbLine
 10
1043.9104271996837
 20
578.6670207051276
 30
0.0
 11
1045.862693260246
 21
578.0882811339725
 31
0.0
  0
LINE
  5
315
330
17
100
AcDbEntity
  8
0
100
AcDbLine
 10
1045.862693260246
 20
578.0882811339725
 30
0.0
 11
1047.8256868232359
 21
577.5470431695758
 31
0.0
  0
LINE
  5
316
330
17
100
AcDbEntity
  8
0
100
AcDbLine
 10
1047.8256868232359
 20
577.5470431695758
 30
0.0
 11
1049.798687581639
 21
577.0435054154942
 31
0.0
  0
LINE
  5
317
330
17
100
AcDbEntity
  8
0
100
AcDbLine
 10
1049.798687581639
 20
577.0435054154942
 30
0.0
 11
1051.7809715563685
 21
576.5778526414504
 31
0.0
  0
LINE
  5
318
330
17
100
AcDbEntity
  8
0
100
AcDbLine
 10
1051.7809715563685
 20
576.5778526414504
 30
0.0
 11
1053.7718113619255
 21
576.1502557155338
 31
0.0
  0
LINE
  5
319
330
17
100
AcDbEntity
  8
0
100
AcDbLine
 10
1053.7718113619255
 20
576.1502557155338
 30
0.0
 11
1055.7704764733078
 21
575.7608715415015
 31
0.0
  0
LINE
  5
31A
330
17
100
AcDbEntity
  8
0
100
AcDbLine
 10
1055.7704764733078
 20
575.7608715415015
 30
0.0
 11
1057.7762334940714
 21
575.4098430012034
 31
0.0
  0
LINE
  5
31B
330
17
100
AcDbEntity
  8
0
100
AcDbLine
 10
1057.7762334940714
 20
575.4098430012034
 30
0.0
 11
1059.7883464254428
 21
575.0972989021534
 31
0.0
  0
LINE
  5
31C
330
17
100
AcDbEntity
  8
0
100
AcDbLine
 10
1059.7883464254428
 20
575.0972989021534
 30
0.0
 11
1061.8060769363929
 21
574.8233539302634
 31
0.0
  0
LINE
  5
31D
330
17
100
AcDbEntity
  8
0
100
AcDbLine
 10
1061.8060769363929
 20
574.8233539302634
 30
0.0
 11
1063.8286846345602
 21
574.5881086077598
 31
0.0
  0
LINE
  5
31E
330
17
100
AcDbEntity
  8
0
100
AcDbLine
 10
1063.8286846345602
 20
574.5881086077598
 30
0.0
 11
1065.8554273379314
 21
574.3916492563001
 31
0.0
  0
LINE
  5
31F
330
17
100
AcDbEntity
  8
0
100
AcDbLine
 10
1065.8554273379314
 20
574.3916492563001
 30
0.0
 11
1067.8855613471824
 21
574.2340479652946
 31
0.0
  0
LINE
  5
320
330
17
100
AcDbEntity
  8
0
100
AcDbLine
 10
1067.8855613471824
 20
574.2340479652946
 30
0.0
 11
1069.9183417185725
 21
574.1153625654551
 31
0.0
  0
LINE
  5
321
330
17
100
AcDbEntity
  8
0
100
AcDbLine
 10
1069.9183417185725
 20
574.1153625654551
 30
0.0
 11
1071.9530225372966
 21
574.035636607575
 31
0.0
  0
LINE
  5
322
330
17
100
AcDbEntity
  8
0
100
AcDbLine
 10
1071.9530225372966
 20
574.035636607575
 30
0.0
 11
1073.9888571911938
 21
573.9948993465466
 31
0.0
  0
LINE
  5
323
330
17
100
AcDbEntity
  8
0
100
AcDbLine
 10
1073.9888571911938
 20
573.9948993465466
 30
0.0
 11
1076.0250986447104
 21
573.9931657306288
 31
0.0
  0
LINE
  5
324
330
17
100
AcDbEntity
  8
0
100
AcDbLine
 10
1076.0250986447104
 20
573.9931657306311
 30
0.0
 11
1074.6512441789143
 21
573.9611889129965
 31
0.0
  0
LINE
  5
325
330
17
100
AcDbEntity
  8
0
100
AcDbLine
 10
1074.6512441789143
 20
573.9611889129965
 30
0.0
 11
1073.2789009588844
 21
573.8892674524209
 31
0.0
  0
LINE
  5
326
330
17
100
AcDbEntity
  8
0
100
AcDbLine
 10
1073.2789009588844
 20
573.8892674524209
 30
0.0
 11
1071.9092301239932
 21
573.7774622016391
 31
0.0
  0
LINE
  5
327
330
17
100
AcDbEntity
  8
0
100
AcDbLine
 10
1071.9092301239932
 20
573.7774622016391
 30
0.0
 11
1070.5433905525092
 21
573.6258677590565
 31
0.0
  0
LINE
  5
328
330
17
100
AcDbEntity
  8
0
100
AcDbLine
 10
1070.5433905525092
 20
573.6258677590565
 30
0.0
 11
1069.182537881069
 21
573.4346123887049
 31
0.0
  0
LINE
  5
329
330
17
100
AcDbEntity
  8
0
100
AcDbLine
 10
1069.182537881069
 20
573.4346123887049
 30
0.0
 11
1067.8278235268942
 21
573.2038579117228
 31
0.0
  0
LINE
  5
32A
330
17
100
AcDbEntity
  8
0
100
AcDbLine
 10
1067.8278235268942
 20
573.2038579117228
 30
0.0
 11
1066.4803937135778
 21
572.9337995694352
 31
0.0
  0
LINE
  5
32B
330
17
100
AcDbEntity
  8
0
100
AcDbLine
 10
1066.4803937135778
 20
572.9337995694352
 30
0.0
 11
1065.1413885012626
 21
572.6246658581598
 31
0.0
  0
LINE
  5
32C
330
17
100
AcDbEntity
  8
0
100
AcDbLine
 10
1065.1413885012626
 20
572.6246658581598
 30
0.0
 11
1063.8119408220389
 21
572.276718335881
 31
0.0
  0
LINE
  5
32D
330
17
100
AcDbEntity
  8
0
100
AcDbLine
 10
1063.8119408220389
 20
572.276718335881
 30
0.0
 11
1062.4931755213693
 21
571.8902514009376
 31
0.0
  0
LINE
  5
32E
330
17
100
AcDbEntity
  8
0
100
AcDbLine
 10
1062.4931755213693
 20
571.8902514009376
 30
0.0
 11
1061.1862084063582
 21
571.4655920429418
 31
0.0
  0
LINE
  5
32F
330
17
100
AcDbEntity
  8
0
100
AcDbLine
 10
1061.1862084063582
 20
571.4655920429418
 30
0.0
 11
1059.8921453016667
 21
571.003099566106
 31
0.0
  0
LINE
  5
330
330
17
100
AcDbEntity
  8
0
100
AcDbLine
 10
1059.8921453016667
 20
571.003099566106
 30
0.0
 11
1058.6120811138749
 21
570.5031652852388
 31
0.0
  0
LINE
  5
331
330
17
100
AcDbEntity
  8
0
100
AcDbLine
 10
1058.6120811138749
 20
570.5031652852388
 30
0.0
 11
1057.3470989050813
 21
569.9662121946528
 31
0.0
  0
LINE
  5
332
330
17
100
AcDbEntity
  8
0
100
AcDbLine
 10
1057.3470989050813
 20
569.9662121946528
 30
0.0
 11
1056.0982689765253
 21
569.3926946102702
 31
0.0
  0
LINE
  5
333
330
17
100
AcDbEntity
  8
0
100
AcDbLine
 10
1056.0982689765253
 20
569.3926946102702
 30
0.0
 11
1054.8666479630035
 21
568.7830977852236
 31
0.0
  0
LINE
  5
334
330
17
100
AcDbEntity
  8
0
100
AcDbLine
 10
1054.8666479630035
 20
568.7830977852236
 30
0.0
 11
1053.6532779388542
 21
568.1379374992879
 31
0.0
  0
LINE
  5
335
330
17
100
AcDbEntity
  8
0
100
AcDbLine
 10
1053.6532779388542
 20
568.1379374992879
 30
0.0
 11
1052.4591855362537
 21
567.4577596224744
 31
0.0
  0
LINE
  5
336
330
17
100
AcDbEntity
  8
0
100
AcDbLine
 10
1052.4591855362537
 20
567.4577596224744
 30
0.0
 11
1051.285381076589
 21
566.7431396531731
 31
0.0
  0
LINE
  5
337
330
17
100
AcDbEntity
  8
0
100
AcDbLine
 10
1051.285381076589
 20
566.7431396531731
 30
0.0
 11
1050.1328577156198
 21
565.9946822312221
 31
0.0
  0
LINE
  5
338
330
17
100
AcDbEntity
  8
0
100
AcDbLine
 10
1050.1328577156198
 20
565.9946822312221
 30
0.0
 11
1049.0025906031724
 21
565.2130206263234
 31
0.0
  0
LINE
  5
339
330
17
100
AcDbEntity
  8
0
100
AcDbLine
 10
1049.0025906031724
 20
565.2130206263234
 30
0.0
 11
1047.895536058064
 21
564.398816202232
 31
0.0
  0
LINE
  5
33A
330
17
100
AcDbEntity
  8
0
100
AcDbLine
 10
1047.895536058064
 20
564.398816202232
 30
0.0
 11
1046.8126307589646
 21
563.5527578571778
 31
0.0
  0
LINE
  5
33B
330
17
100
AcDbEntity
  8
0
100
AcDbLine
 10
1046.8126307589646
 20
563.5527578571778
 30
0.0
 11
1045.7547909518694
 21
562.675561440987
 31
0.0
  0
LINE
  5
33C
330
17
100
AcDbEntity
  8
0
100
AcDbLine
 10
1045.7547909518694
 20
562.675561440987
 30
0.0
 11
1044.722911674864
 21
561.7679691494029
 31
0.0
  0
LINE
  5
33D
330
17
100
AcDbEntity
  8
0
100
AcDbLine
 10
1044.722911674864
 20
561.7679691494029
 30
0.0
 11
1043.7178660008371
 21
560.830748896115
 31
0.0
  0
LINE
  5
33E
330
17
100
AcDbEntity
  8
0
100
AcDbLine
 10
1043.7178660008371
 20
560.830748896115
 30
0.0
 11
1042.7405042987666
 21
559.8646936630248
 31
0.0
  0
ENDSEC
  0
SECTION
  2
OBJECTS
  0
DICTIONARY
  5
A
330
0
100
AcDbDictionary
281
1
  3
ACAD_COLOR
350
B
  3
ACAD_GROUP
350
C
  3
ACAD_LAYOUT
350
D
  3
ACAD_MATERIAL
350
E
  3
ACAD_MLEADERSTYLE
350
F
  3
ACAD_MLINESTYLE
350
10
  3
ACAD_PLOTSETTINGS
350
11
  3
ACAD_PLOTSTYLENAME
350
12
  3
ACAD_SCALELIST
350
14
  3
ACAD_TABLESTYLE
350
15
  3
ACAD_VISUALSTYLE
350
16
  3
EZDXF_META
350
2D
  0
DICTIONARY
  5
B
330
A
100
AcDbDictionary
281
1
  0
DICTIONARY
  5
C
330
A
100
AcDbDictionary
281
1
  0
DICTIONARY
  5
D
330
A
100
AcDbDictionary
281
1
  3
Model
350
1A
  3
Layout1
350
1E
  0
DICTIONARY
  5
E
330
A
100
AcDbDictionary
281
1
  3
ByBlock
350
1F
  3
ByLayer
350
20
  3
Global
350
21
  0
DICTIONARY
  5
F
330
A
100
AcDbDictionary
281
1
  3
Standard
350
2C
  0
DICTIONARY
  5
10
330
A
100
AcDbDictionary
281
1
  3
Standard
350
22
  0
DICTIONARY
  5
11
330
A
100
AcDbDictionary
281
1
  0
ACDBDICTIONARYWDFLT
  5
12
330
A
100
AcDbDictionary
281
1
  3
Normal
350
13
100
AcDbDictionaryWithDefault
340
13
  0
ACDBPLACEHOLDER
  5
13
330
12
  0
DICTIONARY
  5
14
330
A
100
AcDbDictionary
281
1
  0
DICTIONARY
  5
15
330
A
100
AcDbDictionary
281
1
  0
DICTIONARY
  5
16
330
A
100
AcDbDictionary
281
1
  0
LAYOUT
  5
1A
330
D
100
AcDbPlotSettings
  1

  4
A3
  6

 40
7.5
 41
20.0
 42
7.5
 43
20.0
 44
420.0
 45
297.0
 46
0.0
 47
0.0
 48
0.0
 49
0.0
140
0.0
141
0.0
142
1.0
143
1.0
 70
1024
 72
1
 73
0
 74
5
  7

 75
16
 76
0
 77
2
 78
300
147
1.0
148
0.0
149
0.0
100
AcDbLayout
  1
Model
 70
1
 71
0
 10
0.0
 20
0.0
 11
420.0
 21
297.0
 12
0.0
 22
0.0
 32
0.0
 14
1e+20
 24
1e+20
 34
1e+20
 15
-1e+20
 25
-1e+20
 35
-1e+20
146
0.0
 13
0.0
 23
0.0
 33
0.0
 16
1.0
 26
0.0
 36
0.0
 17
0.0
 27
1.0
 37
0.0
 76
1
330
17
  0
LAYOUT
  5
1E
330
D
100
AcDbPlotSettings
  1

  4
A3
  6

 40
7.5
 41
20.0
 42
7.5
 43
20.0
 44
420.0
 45
297.0
 46
0.0
 47
0.0
 48
0.0
 49
0.0
140
0.0
141
0.0
142
1.0
143
1.0
 70
0
 72
1
 73
0
 74
5
  7

 75
16
 76
0
 77
2
 78
300
147
1.0
148
0.0
149
0.0
100
AcDbLayout
  1
Layout1
 70
1
 71
1
 10
0.0
 20
0.0
 11
420.0
 21
297.0
 12
0.0
 22
0.0
 32
0.0
 14
1e+20
 24
1e+20
 34
1e+20
 15
-1e+20
 25
-1e+20
 35
-1e+20
146
0.0
 13
0.0
 23
0.0
 33
0.0
 16
1.0
 26
0.0
 36
0.0
 17
0.0
 27
1.0
 37
0.0
 76
1
330
1B
  0
MATERIAL
  5
1F
102
{ACAD_REACTORS
330
E
102
}
330
E
100
AcDbMaterial
  1
ByBlock
  2

 70
0
 40
1.0
 71
1
 41
1.0
 91
-1023410177
 42
1.0
 72
1
  3

 73
1
 74
1
 75
1
 44
0.5
 73
0
 45
1.0
 46
1.0
 77
1
  4

 78
1
 79
1
170
1
 48
1.0
171
1
  6

172
1
173
1
174
1
140
1.0
141
1.0
175
1
  7

176
1
177
1
178
1
143
1.0
179
1
  8

270
1
271
1
272
1
145
1.0
146
1.0
273
1
  9

274
1
275
1
276
1
 42
1.0
 72
1
  3

 73
1
 74
1
 75
1
 94
63
  0
MATERIAL
  5
20
102
{ACAD_REACTORS
330
E
102
}
330
E
100
AcDbMaterial
  1
ByLayer
  2

 70
0
 40
1.0
 71
1
 41
1.0
 91
-1023410177
 42
1.0
 72
1
  3

 73
1
 74
1
 75
1
 44
0.5
 73
0
 45
1.0
 46
1.0
 77
1
  4

 78
1
 79
1
170
1
 48
1.0
171
1
  6

172
1
173
1
174
1
140
1.0
141
1.0
175
1
  7

176
1
177
1
178
1
143
1.0
179
1
  8

270
1
271
1
272
1
145
1.0
146
1.0
273
1
  9

274
1
275
1
276
1
 42
1.0
 72
1
  3

 73
1
 74
1
 75
1
 94
63
  0
MATERIAL
  5
21
102
{ACAD_REACTORS
330
E
102
}
330
E
100
AcDbMaterial
  1
Global
  2

 70
0
 40
1.0
 71
1
 41
1.0
 91
-1023410177
 42
1.0
 72
1
  3

 73
1
 74
1
 75
1
 44
0.5
 73
0
 45
1.0
 46
1.0
 77
1
  4

 78
1
 79
1
170
1
 48
1.0
171
1
  6

172
1
173
1
174
1
140
1.0
141
1.0
175
1
  7

176
1
177
1
178
1
143
1.0
179
1
  8

270
1
271
1
272
1
145
1.0
146
1.0
273
1
  9

274
1
275
1
276
1
 42
1.0
 72
1
  3

 73
1
 74
1
 75
1
 94
63
  0
MLINESTYLE
  5
22
102
{ACAD_REACTORS
330
10
102
}
330
10
100
AcDbMlineStyle
  2
Standard
 70
0
  3

 62
256
 51
90.0
 52
90.0
 71
2
 49
0.5
 62
256
  6
BYLAYER
 49
-0.5
 62
256
  6
BYLAYER
  0
MLEADERSTYLE
  5
2C
102
{ACAD_REACTORS
330
F
102
}
330
F
100
AcDbMLeaderStyle
179
2
170
2
171
1
172
0
 90
2
 40
0.0
 41
0.0
173
1
 91
-1056964608
 92
-2
290
1
 42
2.0
291
1
 43
8.0
  3
Standard
 44
4.0
300

342
29
174
1
175
1
176
0
178
1
 93
-1056964608
 45
4.0
292
0
297
0
 46
4.0
 94
-1056964608
 47
1.0
 49
1.0
140
1.0
294
1
141
0.0
177
0
142
1.0
295
0
296
0
143
3.75
271
0
272
9
273
9
  0
DICTIONARY
  5
2D
330
A
100
AcDbDictionary
280
1
281
1
  3
CREATED_BY_EZDXF
350
2E
  3
WRITTEN_BY_EZDXF
350
341
  0
DICTIONARYVAR
  5
2E
330
2D
100
DictionaryVariables
280
0
  1
1.4.3 @ 2026-04-16T10:53:40.171550+00:00
  0
DICTIONARYVAR
  5
341
330
2D
100
DictionaryVariables
280
0
  1
1.4.3 @ 2026-04-16T10:53:40.183189+00:00
  0
ENDSEC
  0
EOF
