  0
SECTION
  2
HEADER
  9
$ACADVER
  1
AC1024
  9
$ACADMAINTVER
 70
6
  9
$DWGCODEPAGE
  3
ANSI_1252
  9
$LASTSAVEDBY
  1
ezdxf
  9
$INSBASE
 10
0.0
 20
0.0
 30
0.0
  9
$EXTMIN
 10
1e+20
 20
1e+20
 30
1e+20
  9
$EXTMAX
 10
-1e+20
 20
-1e+20
 30
-1e+20
  9
$LIMMIN
 10
0.0
 20
0.0
  9
$LIMMAX
 10
420.0
 20
297.0
  9
$ORTHOMODE
 70
0
  9
$REGENMODE
 70
1
  9
$FILLMODE
 70
1
  9
$QTEXTMODE
 70
0
  9
$MIRRTEXT
 70
1
  9
$LTSCALE
 40
1.0
  9
$ATTMODE
 70
1
  9
$TEXTSIZE
 40
2.5
  9
$TRACEWID
 40
1.0
  9
$TEXTSTYLE
  7
Standard
  9
$CLAYER
  8
0
  9
$CELTYPE
  6
ByLayer
  9
$CECOLOR
 62
256
  9
$CELTSCALE
 40
1.0
  9
$DISPSILH
 70
0
  9
$DIMSCALE
 40
1.0
  9
$DIMASZ
 40
2.5
  9
$DIMEXO
 40
0.625
  9
$DIMDLI
 40
3.75
  9
$DIMRND
 40
0.0
  9
$DIMDLE
 40
0.0
  9
$DIMEXE
 40
1.25
  9
$DIMTP
 40
0.0
  9
$DIMTM
 40
0.0
  9
$DIMTXT
 40
2.5
  9
$DIMCEN
 40
2.5
  9
$DIMTSZ
 40
0.0
  9
$DIMTOL
 70
0
  9
$DIMLIM
 70
0
  9
$DIMTIH
 70
0
  9
$DIMTOH
 70
0
  9
$DIMSE1
 70
0
  9
$DIMSE2
 70
0
  9
$DIMTAD
 70
1
  9
$DIMZIN
 70
8
  9
$DIMBLK
  1

  9
$DIMASO
 70
1
  9
$DIMSHO
 70
1
  9
$DIMPOST
  1

  9
$DIMAPOST
  1

  9
$DIMALT
 70
0
  9
$DIMALTD
 70
3
  9
$DIMALTF
 40
0.03937007874
  9
$DIMLFAC
 40
1.0
  9
$DIMTOFL
 70
1
  9
$DIMTVP
 40
0.0
  9
$DIMTIX
 70
0
  9
$DIMSOXD
 70
0
  9
$DIMSAH
 70
0
  9
$DIMBLK1
  1

  9
$DIMBLK2
  1

  9
$DIMSTYLE
  2
ISO-25
  9
$DIMCLRD
 70
0
  9
$DIMCLRE
 70
0
  9
$DIMCLRT
 70
0
  9
$DIMTFAC
 40
1.0
  9
$DIMGAP
 40
0.625
  9
$DIMJUST
 70
0
  9
$DIMSD1
 70
0
  9
$DIMSD2
 70
0
  9
$DIMTOLJ
 70
0
  9
$DIMTZIN
 70
8
  9
$DIMALTZ
 70
0
  9
$DIMALTTZ
 70
0
  9
$DIMUPT
 70
0
  9
$DIMDEC
 70
2
  9
$DIMTDEC
 70
2
  9
$DIMALTU
 70
2
  9
$DIMALTTD
 70
3
  9
$DIMTXSTY
  7
Standard
  9
$DIMAUNIT
 70
0
  9
$DIMADEC
 70
0
  9
$DIMALTRND
 40
0.0
  9
$DIMAZIN
 70
0
  9
$DIMDSEP
 70
44
  9
$DIMATFIT
 70
3
  9
$DIMFRAC
 70
0
  9
$DIMLDRBLK
  1

  9
$DIMLUNIT
 70
2
  9
$DIMLWD
 70
-2
  9
$DIMLWE
 70
-2
  9
$DIMTMOVE
 70
0
  9
$DIMFXL
 40
1.0
  9
$DIMFXLON
 70
0
  9
$DIMJOGANG
 40
0.785398163397
  9
$DIMTFILL
 70
0
  9
$DIMTFILLCLR
 70
0
  9
$DIMARCSYM
 70
0
  9
$DIMLTYPE
  6

  9
$DIMLTEX1
  6

  9
$DIMLTEX2
  6

  9
$DIMTXTDIRECTION
 70
0
  9
$LUNITS
 70
2
  9
$LUPREC
 70
4
  9
$SKETCHINC
 40
1.0
  9
$FILLETRAD
 40
10.0
  9
$AUNITS
 70
0
  9
$AUPREC
 70
2
  9
$MENU
  1
.
  9
$ELEVATION
 40
0.0
  9
$PELEVATION
 40
0.0
  9
$THICKNESS
 40
0.0
  9
$LIMCHECK
 70
0
  9
$CHAMFERA
 40
0.0
  9
$CHAMFERB
 40
0.0
  9
$CHAMFERC
 40
0.0
  9
$CHAMFERD
 40
0.0
  9
$SKPOLY
 70
0
  9
$TDCREATE
 40
2461147.4845949076
  9
$TDUCREATE
 40
2458532.153996898
  9
$TDUPDATE
 40
2461147.4845949076
  9
$TDUUPDATE
 40
2458532.1544311
  9
$TDINDWG
 40
0.0
  9
$TDUSRTIMER
 40
0.0
  9
$USRTIMER
 70
1
  9
$ANGBASE
 50
0.0
  9
$ANGDIR
 70
0
  9
$PDMODE
 70
0
  9
$PDSIZE
 40
0.0
  9
$PLINEWID
 40
0.0
  9
$SPLFRAME
 70
0
  9
$SPLINETYPE
 70
6
  9
$SPLINESEGS
 70
8
  9
$HANDSEED
  5
318
  9
$SURFTAB1
 70
6
  9
$SURFTAB2
 70
6
  9
$SURFTYPE
 70
6
  9
$SURFU
 70
6
  9
$SURFV
 70
6
  9
$UCSBASE
  2

  9
$UCSNAME
  2

  9
$UCSORG
 10
0.0
 20
0.0
 30
0.0
  9
$UCSXDIR
 10
1.0
 20
0.0
 30
0.0
  9
$UCSYDIR
 10
0.0
 20
1.0
 30
0.0
  9
$UCSORTHOREF
  2

  9
$UCSORTHOVIEW
 70
0
  9
$UCSORGTOP
 10
0.0
 20
0.0
 30
0.0
  9
$UCSORGBOTTOM
 10
0.0
 20
0.0
 30
0.0
  9
$UCSORGLEFT
 10
0.0
 20
0.0
 30
0.0
  9
$UCSORGRIGHT
 10
0.0
 20
0.0
 30
0.0
  9
$UCSORGFRONT
 10
0.0
 20
0.0
 30
0.0
  9
$UCSORGBACK
 10
0.0
 20
0.0
 30
0.0
  9
$PUCSBASE
  2

  9
$PUCSNAME
  2

  9
$PUCSORG
 10
0.0
 20
0.0
 30
0.0
  9
$PUCSXDIR
 10
1.0
 20
0.0
 30
0.0
  9
$PUCSYDIR
 10
0.0
 20
1.0
 30
0.0
  9
$PUCSORTHOREF
  2

  9
$PUCSORTHOVIEW
 70
0
  9
$PUCSORGTOP
 10
0.0
 20
0.0
 30
0.0
  9
$PUCSORGBOTTOM
 10
0.0
 20
0.0
 30
0.0
  9
$PUCSORGLEFT
 10
0.0
 20
0.0
 30
0.0
  9
$PUCSORGRIGHT
 10
0.0
 20
0.0
 30
0.0
  9
$PUCSORGFRONT
 10
0.0
 20
0.0
 30
0.0
  9
$PUCSORGBACK
 10
0.0
 20
0.0
 30
0.0
  9
$USERI1
 70
0
  9
$USERI2
 70
0
  9
$USERI3
 70
0
  9
$USERI4
 70
0
  9
$USERI5
 70
0
  9
$USERR1
 40
0.0
  9
$USERR2
 40
0.0
  9
$USERR3
 40
0.0
  9
$USERR4
 40
0.0
  9
$USERR5
 40
0.0
  9
$WORLDVIEW
 70
1
  9
$SHADEDGE
 70
3
  9
$SHADEDIF
 70
70
  9
$TILEMODE
 70
1
  9
$MAXACTVP
 70
64
  9
$PINSBASE
 10
0.0
 20
0.0
 30
0.0
  9
$PLIMCHECK
 70
0
  9
$PEXTMIN
 10
1e+20
 20
1e+20
 30
1e+20
  9
$PEXTMAX
 10
-1e+20
 20
-1e+20
 30
-1e+20
  9
$PLIMMIN
 10
0.0
 20
0.0
  9
$PLIMMAX
 10
420.0
 20
297.0
  9
$UNITMODE
 70
0
  9
$VISRETAIN
 70
1
  9
$PLINEGEN
 70
0
  9
$PSLTSCALE
 70
1
  9
$TREEDEPTH
 70
3020
  9
$CMLSTYLE
  2
Standard
  9
$CMLJUST
 70
0
  9
$CMLSCALE
 40
20.0
  9
$PROXYGRAPHICS
 70
1
  9
$MEASUREMENT
 70
1
  9
$CELWEIGHT
370
-1
  9
$ENDCAPS
280
0
  9
$JOINSTYLE
280
0
  9
$LWDISPLAY
290
0
  9
$INSUNITS
 70
0
  9
$HYPERLINKBASE
  1

  9
$STYLESHEET
  1

  9
$XEDIT
290
1
  9
$CEPSNTYPE
380
0
  9
$PSTYLEMODE
290
1
  9
$FINGERPRINTGUID
  2
{6E9C923D-2CF7-4538-BC7D-BAB1989EB43A}
  9
$VERSIONGUID
  2
{2FB6F97C-4881-45E9-A05F-84AD2EBF8A68}
  9
$EXTNAMES
290
1
  9
$PSVPSCALE
 40
0.0
  9
$OLESTARTUP
290
0
  9
$SORTENTS
280
127
  9
$INDEXCTL
280
0
  9
$HIDETEXT
280
1
  9
$XCLIPFRAME
280
1
  9
$HALOGAP
280
0
  9
$OBSCOLOR
 70
257
  9
$OBSLTYPE
280
0
  9
$INTERSECTIONDISPLAY
280
0
  9
$INTERSECTIONCOLOR
 70
257
  9
$DIMASSOC
280
2
  9
$PROJECTNAME
  1

  9
$CAMERADISPLAY
290
0
  9
$LENSLENGTH
 40
50.0
  9
$CAMERAHEIGHT
 40
0.0
  9
$STEPSPERSEC
 40
24.0
  9
$STEPSIZE
 40
100.0
  9
$3DDWFPREC
 40
2.0
  9
$PSOLWIDTH
 40
0.005
  9
$PSOLHEIGHT
 40
0.08
  9
$LOFTANG1
 40
1.570796326795
  9
$LOFTANG2
 40
1.570796326795
  9
$LOFTMAG1
 40
0.0
  9
$LOFTMAG2
 40
0.0
  9
$LOFTPARAM
 70
7
  9
$LOFTNORMALS
280
1
  9
$LATITUDE
 40
37.795
  9
$LONGITUDE
 40
-122.394
  9
$NORTHDIRECTION
 40
0.0
  9
$TIMEZONE
 70
-8000
  9
$LIGHTGLYPHDISPLAY
280
1
  9
$TILEMODELIGHTSYNCH
280
1
  9
$CMATERIAL
347
20
  9
$SOLIDHIST
280
0
  9
$SHOWHIST
280
1
  9
$DWFFRAME
280
2
  9
$DGNFRAME
280
2
  9
$REALWORLDSCALE
290
1
  9
$INTERFERECOLOR
 62
256
  9
$CSHADOW
280
0
  9
$SHADOWPLANELOCATION
 40
0.0
  0
ENDSEC
  0
SECTION
  2
CLASSES
  0
CLASS
  1
ACDBDICTIONARYWDFLT
  2
AcDbDictionaryWithDefault
  3
ObjectDBX Classes
 90
0
 91
0
280
0
281
0
  0
CLASS
  1
SUN
  2
AcDbSun
  3
SCENEOE
 90
1153
 91
0
280
0
281
0
  0
CLASS
  1
VISUALSTYLE
  2
AcDbVisualStyle
  3
ObjectDBX Classes
 90
4095
 91
0
280
0
281
0
  0
CLASS
  1
MATERIAL
  2
AcDbMaterial
  3
ObjectDBX Classes
 90
1153
 91
0
280
0
281
0
  0
CLASS
  1
SCALE
  2
AcDbScale
  3
ObjectDBX Classes
 90
1153
 91
0
280
0
281
0
  0
CLASS
  1
TABLESTYLE
  2
AcDbTableStyle
  3
ObjectDBX Classes
 90
4095
 91
0
280
0
281
0
  0
CLASS
  1
MLEADERSTYLE
  2
AcDbMLeaderStyle
  3
ACDB_MLEADERSTYLE_CLASS
 90
4095
 91
0
280
0
281
0
  0
CLASS
  1
DICTIONARYVAR
  2
AcDbDictionaryVar
  3
ObjectDBX Classes
 90
0
 91
0
280
0
281
0
  0
CLASS
  1
CELLSTYLEMAP
  2
AcDbCellStyleMap
  3
ObjectDBX Classes
 90
1152
 91
0
280
0
281
0
  0
CLASS
  1
MENTALRAYRENDERSETTINGS
  2
AcDbMentalRayRenderSettings
  3
SCENEOE
 90
1024
 91
0
280
0
281
0
  0
CLASS
  1
ACDBDETAILVIEWSTYLE
  2
AcDbDetailViewStyle
  3
ObjectDBX Classes
 90
1025
 91
0
280
0
281
0
  0
CLASS
  1
ACDBSECTIONVIEWSTYLE
  2
AcDbSectionViewStyle
  3
ObjectDBX Classes
 90
1025
 91
0
280
0
281
0
  0
CLASS
  1
RASTERVARIABLES
  2
AcDbRasterVariables
  3
ISM
 90
0
 91
0
280
0
281
0
  0
CLASS
  1
ACDBPLACEHOLDER
  2
AcDbPlaceHolder
  3
ObjectDBX Classes
 90
0
 91
0
280
0
281
0
  0
CLASS
  1
LAYOUT
  2
AcDbLayout
  3
ObjectDBX Classes
 90
0
 91
0
280
0
281
0
  0
ENDSEC
  0
SECTION
  2
TABLES
  0
TABLE
  2
VPORT
  5
8
330
0
100
AcDbSymbolTable
 70
1
  0
VPORT
  5
23
330
8
100
AcDbSymbolTableRecord
100
AcDbViewportTableRecord
  2
*Active
 70
0
 10
0.0
 20
0.0
 11
1.0
 21
1.0
 12
0.0
 22
0.0
 13
0.0
 23
0.0
 14
0.5
 24
0.5
 15
0.5
 25
0.5
 16
0.0
 26
0.0
 36
1.0
 17
0.0
 27
0.0
 37
0.0
 40
1000.0
 41
1.34
 42
50.0
 43
0.0
 44
0.0
 50
0.0
 51
0.0
 71
0
 72
1000
 73
1
 74
3
 75
0
 76
0
 77
0
 78
0
281
0
 65
0
146
0.0
  0
ENDTAB
  0
TABLE
  2
LTYPE
  5
2
330
0
100
AcDbSymbolTable
 70
3
  0
LTYPE
  5
24
330
2
100
AcDbSymbolTableRecord
100
AcDbLinetypeTableRecord
  2
ByBlock
 70
0
  3

 72
65
 73
0
 40
0.0
  0
LTYPE
  5
25
330
2
100
AcDbSymbolTableRecord
100
AcDbLinetypeTableRecord
  2
ByLayer
 70
0
  3

 72
65
 73
0
 40
0.0
  0
LTYPE
  5
26
330
2
100
AcDbSymbolTableRecord
100
AcDbLinetypeTableRecord
  2
Continuous
 70
0
  3

 72
65
 73
0
 40
0.0
  0
ENDTAB
  0
TABLE
  2
LAYER
  5
1
330
0
100
AcDbSymbolTable
 70
2
  0
LAYER
  5
27
330
1
100
AcDbSymbolTableRecord
100
AcDbLayerTableRecord
  2
0
 70
0
 62
7
  6
Continuous
370
-3
390
13
347
21
  0
LAYER
  5
28
330
1
100
AcDbSymbolTableRecord
100
AcDbLayerTableRecord
  2
Defpoints
 70
0
 62
7
  6
Continuous
290
0
370
-3
390
13
347
21
  0
ENDTAB
  0
TABLE
  2
STYLE
  5
5
330
0
100
AcDbSymbolTable
 70
1
  0
STYLE
  5
29
330
5
100
AcDbSymbolTableRecord
100
AcDbTextStyleTableRecord
  2
Standard
 70
0
 40
0.0
 41
1.0
 50
0.0
 71
0
 42
2.5
  3
txt
  4

  0
ENDTAB
  0
TABLE
  2
VIEW
  5
7
330
0
100
AcDbSymbolTable
 70
0
  0
ENDTAB
  0
TABLE
  2
UCS
  5
6
330
0
100
AcDbSymbolTable
 70
0
  0
ENDTAB
  0
TABLE
  2
APPID
  5
3
330
0
100
AcDbSymbolTable
 70
3
  0
APPID
  5
2A
330
3
100
AcDbSymbolTableRecord
100
AcDbRegAppTableRecord
  2
ACAD
 70
0
  0
APPID
  5
315
330
3
100
AcDbSymbolTableRecord
100
AcDbRegAppTableRecord
  2
HATCHBACKGROUNDCOLOR
 70
0
  0
APPID
  5
316
330
3
100
AcDbSymbolTableRecord
100
AcDbRegAppTableRecord
  2
EZDXF
 70
0
  0
ENDTAB
  0
TABLE
  2
DIMSTYLE
  5
4
330
0
100
AcDbSymbolTable
 70
1
100
AcDbDimStyleTable
  0
DIMSTYLE
105
2B
330
4
100
AcDbSymbolTableRecord
100
AcDbDimStyleTableRecord
  2
Standard
 70
0
 40
1.0
 41
2.5
 42
0.625
 43
3.75
 44
1.25
 45
0.0
 46
0.0
 47
0.0
 48
0.0
 49
2.5
140
2.5
141
2.5
142
0.0
143
0.03937007874
144
1.0
145
0.0
146
1.0
147
0.625
148
0.0
 69
0
 70
0
 71
0
 72
0
 73
0
 74
0
 75
0
 76
0
 77
1
 78
8
 79
3
170
0
171
3
172
1
173
0
174
0
175
0
176
0
177
0
178
0
179
2
271
2
272
2
273
2
274
3
275
0
276
0
277
2
278
44
279
0
280
0
281
0
282
0
283
0
284
8
285
0
286
0
288
0
289
3
290
0
371
-2
372
-2
  0
ENDTAB
  0
TABLE
  2
BLOCK_RECORD
  5
9
330
0
100
AcDbSymbolTable
 70
2
  0
BLOCK_RECORD
  5
17
330
9
100
AcDbSymbolTableRecord
100
AcDbBlockTableRecord
  2
*Model_Space
340
1A
 70
0
280
1
281
0
  0
BLOCK_RECORD
  5
1B
330
9
100
AcDbSymbolTableRecord
100
AcDbBlockTableRecord
  2
*Paper_Space
340
1E
 70
0
280
1
281
0
  0
ENDTAB
  0
ENDSEC
  0
SECTION
  2
BLOCKS
  0
BLOCK
  5
18
330
17
100
AcDbEntity
  8
0
100
AcDbBlockBegin
  2
*Model_Space
 70
0
 10
0.0
 20
0.0
 30
0.0
  3
*Model_Space
  1

  0
ENDBLK
  5
19
330
17
100
AcDbEntity
  8
0
100
AcDbBlockEnd
  0
BLOCK
  5
1C
330
1B
100
AcDbEntity
  8
0
100
AcDbBlockBegin
  2
*Paper_Space
 70
0
 10
0.0
 20
0.0
 30
0.0
  3
*Paper_Space
  1

  0
ENDBLK
  5
1D
330
1B
100
AcDbEntity
  8
0
100
AcDbBlockEnd
  0
ENDSEC
  0
SECTION
  2
ENTITIES
  0
LINE
  5
2F
330
17
100
AcDbEntity
  8
0
100
AcDbLine
 10
-7.435793734864773
 20
1871.589495477731
 30
0.0
 11
2040.486224700558
 21
1889.4614401784008
 31
0.0
  0
LINE
  5
30
330
17
100
AcDbEntity
  8
0
100
AcDbLine
 10
538.1199578039058
 20
1886.9808144239828
 30
0.0
 11
554.6234770566131
 21
-4.135179126807657
 31
0.0
  0
LINE
  5
31
330
17
100
AcDbEntity
  8
0
100
AcDbLine
 10
-1.7669813048187142
 20
1222.0079312825017
 30
0.0
 11
2046.1550371306041
 21
1239.8798759831716
 31
0.0
  0
LINE
  5
32
330
17
100
AcDbEntity
  8
0
100
AcDbLine
 10
538.2127201891248
 20
1876.3512979189697
 30
0.0
 11
656.3184591337119
 21
1877.381991088069
 31
0.0
  0
LINE
  5
33
330
17
100
AcDbEntity
  8
0
100
AcDbLine
 10
1069.688545439767
 20
1880.9894171799165
 30
0.0
 11
1086.0993023072551
 21
0.5029401341390667
 31
0.0
  0
LINE
  5
34
330
17
100
AcDbEntity
  8
0
100
AcDbLine
 10
1601.1643706904097
 20
1885.6275364408632
 30
0.0
 11
1617.5751275578978
 21
5.14105939508579
 31
0.0
  0
LINE
  5
35
330
17
100
AcDbEntity
  8
0
100
AcDbLine
 10
3.9018311252273343
 20
572.4263670872735
 30
0.0
 11
2051.82384956065
 21
590.2983117879435
 31
0.0
  0
LINE
  5
36
330
17
100
AcDbEntity
  8
0
100
AcDbLine
 10
538.2127201891248
 20
1876.3512979189697
 30
0.0
 11
541.8407601443542
 21
1460.6190968340206
 31
0.0
  0
LINE
  5
37
330
17
100
AcDbEntity
  8
0
100
AcDbLine
 10
523.9163483354852
 20
1890.400303412028
 30
0.0
 11
664.462177679544
 21
1891.6268282832561
 31
0.0
  0
LINE
  5
38
330
17
100
AcDbEntity
  8
0
100
AcDbLine
 10
2048.9482156188633
 20
919.8133234433415
 30
0.0
 11
1941.5034880430046
 21
918.875667510973
 31
0.0
  0
LINE
  5
39
330
17
100
AcDbEntity
  8
0
100
AcDbLine
 10
2049.102819594228
 20
902.0974626016522
 30
0.0
 11
1599.151449079069
 21
898.1707964788958
 31
0.0
  0
LINE
  5
3A
330
17
100
AcDbEntity
  8
0
100
AcDbLine
 10
1941.5034880430046
 20
918.875667510973
 30
0.0
 11
1939.545171021716
 21
1143.2765715056896
 31
0.0
  0
LINE
  5
3B
330
17
100
AcDbEntity
  8
0
100
AcDbLine
 10
2046.9898985975744
 20
1144.214227438058
 30
0.0
 11
1939.545171021716
 21
1143.2765715056896
 31
0.0
  0
LINE
  5
3C
330
17
100
AcDbEntity
  8
0
100
AcDbLine
 10
1923.7876272013193
 20
918.721063535608
 30
0.0
 11
1921.8293101800307
 21
1143.1219675303246
 31
0.0
  0
LINE
  5
3D
330
17
100
AcDbEntity
  8
0
100
AcDbLine
 10
1923.7876272013193
 20
918.721063535608
 30
0.0
 11
1616.7127059453899
 21
916.0412612959499
 31
0.0
  0
LINE
  5
3E
330
17
100
AcDbEntity
  8
0
100
AcDbLine
 10
537.25351794363
 20
362.11204146906584
 30
0.0
 11
540.4507883832654
 21
-4.258862307099548
 31
0.0
  0
LINE
  5
3F
330
17
100
AcDbEntity
  8
0
100
AcDbLine
 10
2046.8352946222096
 20
1161.9300882797427
 30
0.0
 11
1833.095401996225
 21
1160.0648084951847
 31
0.0
  0
LINE
  5
40
330
17
100
AcDbEntity
  8
0
100
AcDbLine
 10
1921.8293101800307
 20
1143.1219675303246
 30
0.0
 11
1614.7543889241012
 21
1140.4421652906665
 31
0.0
  0
LINE
  5
41
330
17
100
AcDbEntity
  8
0
100
AcDbLine
 10
1614.5997849487364
 20
1158.158026132351
 30
0.0
 11
1614.0122898423497
 21
1225.478297330767
 31
0.0
  0
LINE
  5
42
330
17
100
AcDbEntity
  8
0
100
AcDbLine
 10
1616.7127059453899
 20
916.0412612959499
 30
0.0
 11
1614.7543889241012
 21
1140.4421652906665
 31
0.0
  0
LINE
  5
43
330
17
100
AcDbEntity
  8
0
100
AcDbLine
 10
1599.151449079069
 20
898.1707964788958
 30
0.0
 11
1596.296429000664
 21
1225.3236933554022
 31
0.0
  0
LINE
  5
44
330
17
100
AcDbEntity
  8
0
100
AcDbLine
 10
1372.1423064548203
 20
1871.8174177983533
 30
0.0
 11
1581.301013213686
 21
1590.1673573772664
 31
0.0
  0
LINE
  5
45
330
17
100
AcDbEntity
  8
0
100
AcDbLine
 10
1374.6159700606586
 20
1588.3636443313426
 30
0.0
 11
1578.8273496078477
 21
1873.621130844277
 31
0.0
  0
LINE
  5
46
330
17
100
AcDbEntity
  8
0
100
AcDbLine
 10
1833.095401996225
 20
1160.0648084951847
 30
0.0
 11
1832.7861940454952
 21
1195.4965301785621
 31
0.0
  0
LINE
  5
47
330
17
100
AcDbEntity
  8
0
100
AcDbLine
 10
1815.3795411545368
 20
1159.91020451982
 30
0.0
 11
1815.070333203807
 21
1195.3419262031973
 31
0.0
  0
LINE
  5
48
330
17
100
AcDbEntity
  8
0
100
AcDbLine
 10
1972.802130118294
 20
1392.788888629496
 30
0.0
 11
1969.710050610996
 21
1747.1061054632576
 31
0.0
  0
LINE
  5
49
330
17
100
AcDbEntity
  8
0
100
AcDbLine
 10
1984.6127040127528
 20
1392.891957946406
 30
0.0
 11
1981.5206245054549
 21
1747.2091747801676
 31
0.0
  0
LINE
  5
4A
330
17
100
AcDbEntity
  8
0
100
AcDbLine
 10
1827.9831638774924
 20
1745.8692736603384
 30
0.0
 11
2041.723056503477
 21
1747.7345534448964
 31
0.0
  0
LINE
  5
4B
330
17
100
AcDbEntity
  8
0
100
AcDbLine
 10
1828.2923718282223
 20
1710.4375519769621
 30
0.0
 11
1970.0192585617258
 21
1711.6743837798813
 31
0.0
  0
LINE
  5
4C
330
17
100
AcDbEntity
  8
0
100
AcDbLine
 10
1828.601579778952
 20
1675.005830293586
 30
0.0
 11
1970.3284665124556
 21
1676.2426620965052
 31
0.0
  0
LINE
  5
4D
330
17
100
AcDbEntity
  8
0
100
AcDbLine
 10
1828.910787729682
 20
1639.574108610211
 30
0.0
 11
1970.6376744631855
 21
1640.81094041313
 31
0.0
  0
LINE
  5
4E
330
17
100
AcDbEntity
  8
0
100
AcDbLine
 10
1829.2199956804118
 20
1604.1423869268315
 30
0.0
 11
1970.9468824139153
 21
1605.3792187297506
 31
0.0
  0
LINE
  5
4F
330
17
100
AcDbEntity
  8
0
100
AcDbLine
 10
1829.5292036311414
 20
1568.7106652434577
 30
0.0
 11
1971.256090364645
 21
1569.9474970463768
 31
0.0
  0
LINE
  5
50
330
17
100
AcDbEntity
  8
0
100
AcDbLine
 10
1829.8384115818712
 20
1533.2789435600814
 30
0.0
 11
1900.7018549486236
 21
1533.897359461541
 31
0.0
  0
LINE
  5
51
330
17
100
AcDbEntity
  8
0
100
AcDbLine
 10
1831.0752433847904
 20
1391.5520568265767
 30
0.0
 11
2044.815136010775
 21
1393.4173366111347
 31
0.0
  0
LINE
  5
52
330
17
100
AcDbEntity
  8
0
100
AcDbLine
 10
1832.7861940454952
 20
1195.4965301785621
 30
0.0
 11
1815.070333203807
 21
1195.3419262031973
 31
0.0
  0
LINE
  5
53
330
17
100
AcDbEntity
  8
0
100
AcDbLine
 10
1831.549362242576
 20
1337.2234169120682
 30
0.0
 11
1813.8335014008878
 21
1337.0688129367034
 31
0.0
  0
LINE
  5
54
330
17
100
AcDbEntity
  8
0
100
AcDbLine
 10
1813.8335014008878
 20
1337.0688129367034
 30
0.0
 11
1809.0304712328852
 21
1887.441556418478
 31
0.0
  0
LINE
  5
55
330
17
100
AcDbEntity
  8
0
100
AcDbLine
 10
1831.549362242576
 20
1337.2234169120682
 30
0.0
 11
1826.7463320745735
 21
1887.5961603938429
 31
0.0
  0
LINE
  5
56
330
17
100
AcDbEntity
  8
0
100
AcDbLine
 10
1815.3795411545368
 20
1159.91020451982
 30
0.0
 11
1614.5997849487364
 21
1158.158026132351
 31
0.0
  0
LINE
  5
57
330
17
100
AcDbEntity
  8
0
100
AcDbLine
 10
1981.8298324561847
 20
1711.7774530967913
 30
0.0
 11
2042.0322644542068
 21
1712.30283176152
 31
0.0
  0
LINE
  5
58
330
17
100
AcDbEntity
  8
0
100
AcDbLine
 10
1982.1390404069145
 20
1676.3457314134153
 30
0.0
 11
2042.3414724049367
 21
1676.871110078144
 31
0.0
  0
LINE
  5
59
330
17
100
AcDbEntity
  8
0
100
AcDbLine
 10
1982.4482483576444
 20
1640.91400973004
 30
0.0
 11
2042.6506803556665
 21
1641.439388394769
 31
0.0
  0
LINE
  5
5A
330
17
100
AcDbEntity
  8
0
100
AcDbLine
 10
1982.7574563083742
 20
1605.4822880466606
 30
0.0
 11
2042.9598883063964
 21
1606.0076667113894
 31
0.0
  0
LINE
  5
5B
330
17
100
AcDbEntity
  8
0
100
AcDbLine
 10
1983.0666642591038
 20
1570.0505663632869
 30
0.0
 11
2043.269096257126
 21
1570.5759450280157
 31
0.0
  0
LINE
  5
5C
330
17
100
AcDbEntity
  8
0
100
AcDbLine
 10
1983.3758722098337
 20
1534.6188446799106
 30
0.0
 11
2043.5783042078558
 21
1535.1442233446394
 31
0.0
  0
LINE
  5
5D
330
17
100
AcDbEntity
  8
0
100
AcDbLine
 10
1983.6850801605635
 20
1499.1871229965343
 30
0.0
 11
2043.8875121585857
 21
1499.712501661263
 31
0.0
  0
LINE
  5
5E
330
17
100
AcDbEntity
  8
0
100
AcDbLine
 10
1983.9942881112931
 20
1463.7554013131594
 30
0.0
 11
2044.1967201093153
 21
1464.2807799778882
 31
0.0
  0
LINE
  5
5F
330
17
100
AcDbEntity
  8
0
100
AcDbLine
 10
1984.303496062023
 20
1428.32367962978
 30
0.0
 11
2044.505928060045
 21
1428.8490582945087
 31
0.0
  0
LINE
  5
60
330
17
100
AcDbEntity
  8
0
100
AcDbLine
 10
2029.4248139006734
 20
1724.4640841030682
 30
0.0
 11
2041.8160937402079
 21
1737.0735420761666
 31
0.0
  0
LINE
  5
61
330
17
100
AcDbEntity
  8
0
100
AcDbLine
 10
1898.8466072442448
 20
1746.487689561798
 30
0.0
 11
1900.7018549486236
 21
1533.897359461541
 31
0.0
  0
LINE
  5
62
330
17
100
AcDbEntity
  8
0
100
AcDbLine
 10
1877.3383483700636
 20
1556.8566134330758
 30
0.0
 11
1900.7018549486236
 21
1533.897359461541
 31
0.0
  0
LINE
  5
63
330
17
100
AcDbEntity
  8
0
100
AcDbLine
 10
1923.6611089201563
 20
1557.2608660400997
 30
0.0
 11
1900.7018549486236
 21
1533.897359461541
 31
0.0
  0
LINE
  5
64
330
17
100
AcDbEntity
  8
0
100
AcDbLine
 10
1830.147619532601
 20
1497.8472218767051
 30
0.0
 11
1971.256090364645
 21
1569.9474970463768
 31
0.0
  0
LINE
  5
65
330
17
100
AcDbEntity
  8
0
100
AcDbLine
 10
1305.7763401486495
 20
1897.2234921914653
 30
0.0
 11
1635.29135180405
 21
1900.0991261332524
 31
0.0
  0
LINE
  5
66
330
17
100
AcDbEntity
  8
0
100
AcDbLine
 10
1305.9000233289416
 20
1883.0508035181151
 30
0.0
 11
1635.4150349843421
 21
1885.9264374599022
 31
0.0
  0
LINE
  5
67
330
17
100
AcDbEntity
  8
0
100
AcDbLine
 10
544.9019188565791
 20
1109.8450521686
 30
0.0
 11
530.7292301832314
 21
1109.721368988308
 31
0.0
  0
LINE
  5
68
330
17
100
AcDbEntity
  8
0
100
AcDbLine
 10
545.8295427087685
 20
1003.5498871184706
 30
0.0
 11
531.6568540354208
 21
1003.4262039381787
 31
0.0
  0
LINE
  5
69
330
17
100
AcDbEntity
  8
0
100
AcDbLine
 10
547.3034339405805
 20
834.6586804277063
 30
0.0
 11
545.8295427087685
 21
1003.5498871184706
 31
0.0
  0
LINE
  5
6A
330
17
100
AcDbEntity
  8
0
100
AcDbLine
 10
533.1307452672328
 20
834.5349972474144
 30
0.0
 11
531.5847055135838
 21
1011.693605664296
 31
0.0
  0
LINE
  5
6B
330
17
100
AcDbEntity
  8
0
100
AcDbLine
 10
551.4983551388145
 20
353.9683229232413
 30
0.0
 11
554.6234770566131
 21
-4.135179126807657
 31
0.0
  0
LINE
  5
6C
330
17
100
AcDbEntity
  8
0
100
AcDbLine
 10
548.6433350604095
 20
681.121219799745
 30
0.0
 11
550.5707312866251
 21
460.2634879733695
 31
0.0
  0
LINE
  5
6D
330
17
100
AcDbEntity
  8
0
100
AcDbLine
 10
550.5707312866251
 20
460.2634879733695
 30
0.0
 11
536.3980426132774
 21
460.1398047930776
 31
0.0
  0
LINE
  5
6E
330
17
100
AcDbEntity
  8
0
100
AcDbLine
 10
551.4983551388145
 20
353.9683229232413
 30
0.0
 11
537.3256664654668
 21
353.8446397429494
 31
0.0
  0
LINE
  5
6F
330
17
100
AcDbEntity
  8
0
100
AcDbLine
 10
542.7683839965435
 20
1354.3239317838945
 30
0.0
 11
528.5956953231959
 21
1354.2002486036026
 31
0.0
  0
LINE
  5
70
330
17
100
AcDbEntity
  8
0
100
AcDbLine
 10
541.8407601443542
 20
1460.6190968340206
 30
0.0
 11
527.6680714710066
 21
1460.4954136537287
 31
0.0
  0
LINE
  5
71
330
17
100
AcDbEntity
  8
0
100
AcDbLine
 10
542.7683839965435
 20
1354.3239317838945
 30
0.0
 11
544.9019188565791
 21
1109.8450521686
 31
0.0
  0
LINE
  5
72
330
17
100
AcDbEntity
  8
0
100
AcDbLine
 10
1635.4150349843421
 20
1885.9264374599022
 30
0.0
 11
1635.29135180405
 21
1900.0991261332524
 31
0.0
  0
LINE
  5
73
330
17
100
AcDbEntity
  8
0
100
AcDbLine
 10
1777.1419217178457
 20
1887.1632692628211
 30
0.0
 11
1777.0182385375535
 21
1901.3359579361713
 31
0.0
  0
LINE
  5
74
330
17
100
AcDbEntity
  8
0
100
AcDbLine
 10
1777.1419217178457
 20
1887.1632692628211
 30
0.0
 11
1956.662644913622
 21
1888.7299228798522
 31
0.0
  0
LINE
  5
75
330
17
100
AcDbEntity
  8
0
100
AcDbLine
 10
1777.0182385375535
 20
1901.3359579361713
 30
0.0
 11
1964.8063634594473
 21
1902.9747600750393
 31
0.0
  0
LINE
  5
76
330
17
100
AcDbEntity
  8
0
100
AcDbLine
 10
1956.662644913622
 20
1888.7299228798522
 30
0.0
 11
1956.5389617333299
 21
1902.9026115532024
 31
0.0
  0
LINE
  5
77
330
17
100
AcDbEntity
  8
0
100
AcDbLine
 10
452.43448906727065
 20
1960.6453308773212
 30
0.0
 11
1027.6094377274108
 21
1965.6648066108346
 31
0.0
  0
LINE
  5
78
330
17
100
AcDbEntity
  8
0
100
AcDbLine
 10
452.43448906727065
 20
1960.6453308773212
 30
0.0
 11
462.009628608203
 21
863.4430160821024
 31
0.0
  0
LINE
  5
79
330
17
100
AcDbEntity
  8
0
100
AcDbLine
 10
463.8648763125817
 20
650.8526859818469
 30
0.0
 11
469.58734501651037
 21
-4.877278208559119
 31
0.0
  0
LINE
  5
7A
330
17
100
AcDbEntity
  8
0
100
AcDbLine
 10
1105.1202671231483
 20
1881.2986251306463
 30
0.0
 11
1104.9965839428562
 21
1895.4713138039965
 31
0.0
  0
LINE
  5
7B
330
17
100
AcDbEntity
  8
0
100
AcDbLine
 10
1305.9000233289416
 20
1883.0508035181151
 30
0.0
 11
1305.7763401486495
 21
1897.2234921914653
 31
0.0
  0
LINE
  5
7C
330
17
100
AcDbEntity
  8
0
100
AcDbLine
 10
547.3034339405805
 20
834.6586804277063
 30
0.0
 11
533.1307452672328
 21
834.5349972474144
 31
0.0
  0
LINE
  5
7D
330
17
100
AcDbEntity
  8
0
100
AcDbLine
 10
548.6433350604095
 20
681.121219799745
 30
0.0
 11
534.4706463870618
 21
680.9975366194531
 31
0.0
  0
LINE
  5
7E
330
17
100
AcDbEntity
  8
0
100
AcDbLine
 10
656.19477595342
 20
1891.5546797614193
 30
0.0
 11
656.3184591337119
 21
1877.381991088069
 31
0.0
  0
LINE
  5
7F
330
17
100
AcDbEntity
  8
0
100
AcDbLine
 10
845.1639582647625
 20
1893.203788831978
 30
0.0
 11
845.2876414450544
 21
1879.0311001586279
 31
0.0
  0
LINE
  5
80
330
17
100
AcDbEntity
  8
0
100
AcDbLine
 10
845.2876414450544
 20
1879.0311001586279
 30
0.0
 11
1105.1202671231483
 21
1881.2986251306463
 31
0.0
  0
LINE
  5
81
330
17
100
AcDbEntity
  8
0
100
AcDbLine
 10
656.19477595342
 20
1891.5546797614193
 30
0.0
 11
845.1639582647625
 21
1893.203788831978
 31
0.0
  0
LINE
  5
82
330
17
100
AcDbEntity
  8
0
100
AcDbLine
 10
656.3184591337119
 20
1877.381991088069
 30
0.0
 11
845.2876414450544
 21
1879.0311001586279
 31
0.0
  0
LINE
  5
83
330
17
100
AcDbEntity
  8
0
100
AcDbLine
 10
533.1307452672328
 20
834.5349972474144
 30
0.0
 11
534.4706463870618
 21
680.9975366194531
 31
0.0
  0
LINE
  5
84
330
17
100
AcDbEntity
  8
0
100
AcDbLine
 10
1104.9965839428562
 20
1895.4713138039965
 30
0.0
 11
1305.7763401486495
 21
1897.2234921914653
 31
0.0
  0
LINE
  5
85
330
17
100
AcDbEntity
  8
0
100
AcDbLine
 10
285.77864404351527
 20
755.6018112783279
 30
0.0
 11
356.6420874102669
 21
756.2202271797873
 31
0.0
  0
LINE
  5
86
330
17
100
AcDbEntity
  8
0
100
AcDbLine
 10
333.68283343873037
 20
732.8567206012272
 30
0.0
 11
356.6420874102669
 21
756.2202271797873
 31
0.0
  0
LINE
  5
87
330
17
100
AcDbEntity
  8
0
100
AcDbLine
 10
333.27858083170673
 20
779.1794811513164
 30
0.0
 11
356.6420874102669
 21
756.2202271797873
 31
0.0
  0
LINE
  5
88
330
17
100
AcDbEntity
  8
0
100
AcDbLine
 10
355.71446355807757
 20
862.515392229913
 30
0.0
 11
357.5697112624563
 21
649.9250621296574
 31
0.0
  0
LINE
  5
89
330
17
100
AcDbEntity
  8
0
100
AcDbLine
 10
320.2827418746999
 20
862.2061842791833
 30
0.0
 11
322.13798957907863
 21
649.6158541789277
 31
0.0
  0
LINE
  5
8A
330
17
100
AcDbEntity
  8
0
100
AcDbLine
 10
284.8510201913225
 20
861.8969763284534
 30
0.0
 11
286.7062678957012
 21
649.3066462281979
 31
0.0
  0
LINE
  5
8B
330
17
100
AcDbEntity
  8
0
100
AcDbLine
 10
284.8510201913225
 20
861.8969763284534
 30
0.0
 11
532.873071974958
 21
864.061431983562
 31
0.0
  0
LINE
  5
8C
330
17
100
AcDbEntity
  8
0
100
AcDbLine
 10
286.7062678957012
 20
649.3066462281979
 30
0.0
 11
534.7283196793367
 21
651.4711018833063
 31
0.0
  0
LINE
  5
8D
330
17
100
AcDbEntity
  8
0
100
AcDbLine
 10
1348.119773241664
 20
1240.8750985419815
 30
0.0
 11
1347.4498226817495
 21
1317.6438288559623
 31
0.0
  0
LINE
  5
8E
330
17
100
AcDbEntity
  8
0
100
AcDbLine
 10
1365.8356340833532
 20
1241.0297025173465
 30
0.0
 11
1365.1656835234387
 21
1317.7984328313273
 31
0.0
  0
LINE
  5
8F
330
17
100
AcDbEntity
  8
0
100
AcDbLine
 10
1364.1349903543394
 20
1435.9041717759164
 30
0.0
 11
1594.4411812962853
 21
1437.91402345566
 31
0.0
  0
LINE
  5
90
330
17
100
AcDbEntity
  8
0
100
AcDbLine
 10
1363.9803863789746
 20
1453.6200326176036
 30
0.0
 11
1612.0024381626063
 21
1455.784488272712
 31
0.0
  0
LINE
  5
91
330
17
100
AcDbEntity
  8
0
100
AcDbLine
 10
1363.9803863789746
 20
1453.6200326176036
 30
0.0
 11
1360.2286632434532
 21
1883.5249223759008
 31
0.0
  0
LINE
  5
92
330
17
100
AcDbEntity
  8
0
100
AcDbLine
 10
1613.826765071912
 20
1246.737330340794
 30
0.0
 11
1612.0024381626063
 21
1455.784488272712
 31
0.0
  0
LINE
  5
93
330
17
100
AcDbEntity
  8
0
100
AcDbLine
 10
1596.1109042302262
 20
1246.5827263654292
 30
0.0
 11
1594.4411812962853
 21
1437.91402345566
 31
0.0
  0
LINE
  5
94
330
17
100
AcDbEntity
  8
0
100
AcDbLine
 10
1365.8356340833532
 20
1241.0297025173465
 30
0.0
 11
1596.141825025299
 21
1243.0395541970902
 31
0.0
  0
LINE
  5
95
330
17
100
AcDbEntity
  8
0
100
AcDbLine
 10
1086.079636760045
 20
1220.8710988648932
 30
0.0
 11
1110.8818419384131
 21
1221.087544430404
 31
0.0
  0
LINE
  5
96
330
17
100
AcDbEntity
  8
0
100
AcDbLine
 10
1085.9250327846803
 20
1238.5869597065812
 30
0.0
 11
1110.7272379630483
 21
1238.803405272092
 31
0.0
  0
LINE
  5
97
330
17
100
AcDbEntity
  8
0
100
AcDbLine
 10
565.0787240390516
 20
1234.0416028308532
 30
0.0
 11
1064.6659997746574
 21
1238.4014349361432
 31
0.0
  0
LINE
  5
98
330
17
100
AcDbEntity
  8
0
100
AcDbLine
 10
565.2333280144165
 20
1216.3257419891654
 30
0.0
 11
1064.8206037500222
 21
1220.6855740944552
 31
0.0
  0
LINE
  5
99
330
17
100
AcDbEntity
  8
0
100
AcDbLine
 10
541.4594036717875
 20
1504.3182202435178
 30
0.0
 11
1062.30571241742
 21
1508.8635771192457
 31
0.0
  0
LINE
  5
9A
330
17
100
AcDbEntity
  8
0
100
AcDbLine
 10
541.6140076471523
 20
1486.602359401832
 30
0.0
 11
1062.460316392785
 21
1491.1477162775598
 31
0.0
  0
LINE
  5
9B
330
17
100
AcDbEntity
  8
0
100
AcDbLine
 10
1062.30571241742
 20
1508.8635771192457
 30
0.0
 11
1061.6872965159605
 21
1579.7270204860015
 31
0.0
  0
LINE
  5
9C
330
17
100
AcDbEntity
  8
0
100
AcDbLine
 10
1061.6872965159605
 20
1579.7270204860015
 30
0.0
 11
1079.4031573576458
 21
1579.8816244613663
 31
0.0
  0
LINE
  5
9D
330
17
100
AcDbEntity
  8
0
100
AcDbLine
 10
1063.0684253625534
 20
1421.4653303002533
 30
0.0
 11
1080.7842862042387
 21
1421.6199342756183
 31
0.0
  0
LINE
  5
9E
330
17
100
AcDbEntity
  8
0
100
AcDbLine
 10
1063.0684253625534
 20
1421.4653303002533
 30
0.0
 11
1062.460316392785
 21
1491.1477162775598
 31
0.0
  0
LINE
  5
9F
330
17
100
AcDbEntity
  8
0
100
AcDbLine
 10
1080.7842862042387
 20
1421.6199342756183
 30
0.0
 11
1079.4031573576458
 21
1579.8816244613663
 31
0.0
  0
LINE
  5
A0
330
17
100
AcDbEntity
  8
0
100
AcDbLine
 10
1060.6566033468612
 20
1697.8327594305883
 30
0.0
 11
1059.2445537051951
 21
1859.6376217846732
 31
0.0
  0
LINE
  5
A1
330
17
100
AcDbEntity
  8
0
100
AcDbLine
 10
1078.3724641885465
 20
1697.9873634059536
 30
0.0
 11
1076.9604145468804
 21
1859.7922257600383
 31
0.0
  0
LINE
  5
A2
330
17
100
AcDbEntity
  8
0
100
AcDbLine
 10
1060.6566033468612
 20
1697.8327594305883
 30
0.0
 11
1078.3724641885465
 21
1697.9873634059536
 31
0.0
  0
LINE
  5
A3
330
17
100
AcDbEntity
  8
0
100
AcDbLine
 10
1064.0991185316527
 20
1303.359591355666
 30
0.0
 11
1081.814979373338
 21
1303.5141953310313
 31
0.0
  0
LINE
  5
A4
330
17
100
AcDbEntity
  8
0
100
AcDbLine
 10
1082.3509398212698
 20
1242.0992110798472
 30
0.0
 11
1081.814979373338
 21
1303.5141953310313
 31
0.0
  0
LINE
  5
A5
330
17
100
AcDbEntity
  8
0
100
AcDbLine
 10
1064.6350789795845
 20
1241.9446071044822
 30
0.0
 11
1064.0991185316527
 21
1303.359591355666
 31
0.0
  0
LINE
  5
A6
330
17
100
AcDbEntity
  8
0
100
AcDbLine
 10
1110.7272379630483
 20
1238.803405272092
 30
0.0
 11
1110.8818419384131
 21
1221.087544430404
 31
0.0
  0
LINE
  5
A7
330
17
100
AcDbEntity
  8
0
100
AcDbLine
 10
1311.5069941688416
 20
1240.5555836595609
 30
0.0
 11
1311.6615981442064
 21
1222.8397228178728
 31
0.0
  0
LINE
  5
A8
330
17
100
AcDbEntity
  8
0
100
AcDbLine
 10
1311.5069941688416
 20
1240.5555836595609
 30
0.0
 11
1348.119773241664
 21
1240.8750985419815
 31
0.0
  0
LINE
  5
A9
330
17
100
AcDbEntity
  8
0
100
AcDbLine
 10
1311.6615981442064
 20
1222.8397228178728
 30
0.0
 11
1596.296429000664
 21
1225.3236933554022
 31
0.0
  0
LINE
  5
AA
330
17
100
AcDbEntity
  8
0
100
AcDbLine
 10
1346.52219882956
 20
1423.9389939060916
 30
0.0
 11
1364.2380596712492
 21
1424.0935978814566
 31
0.0
  0
LINE
  5
AB
330
17
100
AcDbEntity
  8
0
100
AcDbLine
 10
1347.4498226817495
 20
1317.6438288559623
 30
0.0
 11
1365.1656835234387
 21
1317.7984328313273
 31
0.0
  0
LINE
  5
AC
330
17
100
AcDbEntity
  8
0
100
AcDbLine
 10
1364.2380596712492
 20
1424.0935978814566
 30
0.0
 11
1364.1349903543394
 21
1435.9041717759164
 31
0.0
  0
LINE
  5
AD
330
17
100
AcDbEntity
  8
0
100
AcDbLine
 10
1346.52219882956
 20
1423.9389939060916
 30
0.0
 11
1342.512802401764
 21
1883.3703184005358
 31
0.0
  0
LINE
  5
AE
330
17
100
AcDbEntity
  8
0
100
AcDbLine
 10
1028.2278536288702
 20
1894.801363244082
 30
0.0
 11
1027.4577844431979
 21
1983.0425517364736
 31
0.0
  0
LINE
  5
AF
330
17
100
AcDbEntity
  8
0
100
AcDbLine
 10
1382.5450704626314
 20
1897.8934427513798
 30
0.0
 11
1381.775001276959
 21
1986.1346312437713
 31
0.0
  0
LINE
  5
B0
330
17
100
AcDbEntity
  8
0
100
AcDbLine
 10
1026.8903489759807
 20
2048.064215960377
 30
0.0
 11
1381.207565809742
 21
2051.156295467675
 31
0.0
  0
LINE
  5
B1
330
17
100
AcDbEntity
  8
0
100
AcDbLine
 10
1381.926654561172
 20
1968.7568861181323
 30
0.0
 11
1599.2412142192134
 21
1970.6533615492751
 31
0.0
  0
LINE
  5
B2
330
17
100
AcDbEntity
  8
0
100
AcDbLine
 10
1381.591640248314
 20
2007.145724002528
 30
0.0
 11
1381.207565809742
 21
2051.156295467675
 31
0.0
  0
LINE
  5
B3
330
17
100
AcDbEntity
  8
0
100
AcDbLine
 10
1027.2744234145528
 20
2004.0536444952302
 30
0.0
 11
1026.8903489759807
 21
2048.064215960377
 31
0.0
  0
LINE
  5
B4
330
17
100
AcDbEntity
  8
0
100
AcDbLine
 10
1802.6413434078888
 20
1266.1023002530374
 30
0.0
 11
1843.9783520384942
 21
1266.4630428622222
 31
0.0
  0
LINE
  5
B5
330
17
100
AcDbEntity
  8
0
100
AcDbLine
 10
1706.0517258538916
 20
1912.5281159291708
 30
0.0
 11
1706.3815476680033
 21
1874.7342794669044
 31
0.0
  0
LINE
  5
B6
330
17
100
AcDbEntity
  8
0
100
AcDbLine
 10
1079.4031573576458
 20
1579.8816244613663
 30
0.0
 11
1162.187716133219
 21
1664.1238034953249
 31
0.0
  0
LINE
  5
B7
330
17
100
AcDbEntity
  8
0
100
AcDbLine
 10
1081.814979373338
 20
1303.5141953310313
 30
0.0
 11
1164.5995381489115
 21
1387.7563743649926
 31
0.0
  0
LINE
  5
B8
330
17
100
AcDbEntity
  8
0
100
AcDbLine
 10
1347.4498226817495
 20
1317.6438288559623
 30
0.0
 11
1271.6318615511884
 21
1392.1499317539785
 31
0.0
  0
LINE
  5
B9
330
17
100
AcDbEntity
  8
0
100
AcDbLine
 10
664.513712337992
 20
1885.7215413360282
 30
0.0
 11
836.9480911970903
 21
1887.2263533629132
 31
0.0
  0
LINE
  5
BA
330
17
100
AcDbEntity
  8
0
100
AcDbLine
 10
836.9480911970903
 20
1887.2263533629132
 30
0.0
 11
836.9223238678629
 21
1890.1789968365265
 31
0.0
  0
LINE
  5
BB
330
17
100
AcDbEntity
  8
0
100
AcDbLine
 10
836.9223238678629
 20
1890.1789968365265
 30
0.0
 11
664.4879450087647
 21
1888.6741848096417
 31
0.0
  0
LINE
  5
BC
330
17
100
AcDbEntity
  8
0
100
AcDbLine
 10
664.4879450087647
 20
1888.6741848096417
 30
0.0
 11
664.513712337992
 21
1885.7215413360282
 31
0.0
  0
LINE
  5
BD
330
17
100
AcDbEntity
  8
0
100
AcDbLine
 10
664.513712337992
 20
1885.7215413360282
 30
0.0
 11
664.513712337992
 21
1885.7215413360282
 31
0.0
  0
LINE
  5
BE
330
17
100
AcDbEntity
  8
0
100
AcDbLine
 10
1104.9965839428562
 20
1895.4713138039965
 30
0.0
 11
836.8965565386384
 21
1893.1316403101412
 31
0.0
  0
LINE
  5
BF
330
17
100
AcDbEntity
  8
0
100
AcDbLine
 10
836.8965565386384
 20
1893.1316403101412
 30
0.0
 11
836.9480911970933
 21
1887.2263533629134
 31
0.0
  0
LINE
  5
C0
330
17
100
AcDbEntity
  8
0
100
AcDbLine
 10
836.9480911970933
 20
1887.2263533629134
 30
0.0
 11
845.2154929232174
 21
1887.2985018847503
 31
0.0
  0
LINE
  5
C1
330
17
100
AcDbEntity
  8
0
100
AcDbLine
 10
845.1639582647625
 20
1893.203788831978
 30
0.0
 11
845.1639582647625
 21
1893.203788831978
 31
0.0
  0
LINE
  5
C2
330
17
100
AcDbEntity
  8
0
100
AcDbLine
 10
656.246310611875
 20
1885.6493928141913
 30
0.0
 11
664.5137123379989
 21
1885.7215413360282
 31
0.0
  0
LINE
  5
C3
330
17
100
AcDbEntity
  8
0
100
AcDbLine
 10
664.5137123379989
 20
1885.7215413360282
 30
0.0
 11
664.462177679544
 21
1891.6268282832561
 31
0.0
  0
LINE
  5
C4
330
17
100
AcDbEntity
  8
0
100
AcDbLine
 10
664.462177679544
 20
1891.6268282832561
 30
0.0
 11
664.462177679544
 21
1891.6268282832561
 31
0.0
  0
LINE
  5
C5
330
17
100
AcDbEntity
  8
0
100
AcDbLine
 10
1104.9965839428562
 20
1895.4713138039965
 30
0.0
 11
1162.9457750857516
 21
1954.4408391277673
 31
0.0
  0
LINE
  5
C6
330
17
100
AcDbEntity
  8
0
100
AcDbLine
 10
1305.7763401486495
 20
1897.2234921914653
 30
0.0
 11
1221.534161114694
 21
1980.008050967041
 31
0.0
  0
LINE
  5
C7
330
17
100
AcDbEntity
  8
0
100
AcDbLine
 10
1110.8818419384131
 20
1221.087544430404
 30
0.0
 11
1169.8513672621784
 21
1163.1383532875032
 31
0.0
  0
LINE
  5
C8
330
17
100
AcDbEntity
  8
0
100
AcDbLine
 10
1311.6615981442064
 20
1222.8397228178728
 30
0.0
 11
1228.8770393686364
 21
1138.5975437839118
 31
0.0
  0
LINE
  5
C9
330
17
100
AcDbEntity
  8
0
100
AcDbLine
 10
533.1307452672328
 20
834.5349972474144
 30
0.0
 11
458.62464236921835
 21
758.7170361168533
 31
0.0
  0
LINE
  5
CA
330
17
100
AcDbEntity
  8
0
100
AcDbLine
 10
534.4706463870618
 20
680.9975366194531
 30
0.0
 11
500.7737747734771
 21
714.1113601296802
 31
0.0
  0
LINE
  5
CB
330
17
100
AcDbEntity
  8
0
100
AcDbLine
 10
1635.29135180405
 20
1900.0991261332524
 30
0.0
 11
1777.0182385375535
 21
1901.3359579361713
 31
0.0
  0
LINE
  5
CC
330
17
100
AcDbEntity
  8
0
100
AcDbLine
 10
1777.0182385375535
 20
1901.3359579361713
 30
0.0
 11
1777.1419217178457
 21
1887.1632692628211
 31
0.0
  0
LINE
  5
CD
330
17
100
AcDbEntity
  8
0
100
AcDbLine
 10
1777.1419217178457
 20
1887.1632692628211
 30
0.0
 11
1635.4150349843421
 21
1885.9264374599022
 31
0.0
  0
LINE
  5
CE
330
17
100
AcDbEntity
  8
0
100
AcDbLine
 10
1635.4150349843421
 20
1885.9264374599022
 30
0.0
 11
1635.29135180405
 21
1900.0991261332524
 31
0.0
  0
LINE
  5
CF
330
17
100
AcDbEntity
  8
0
100
AcDbLine
 10
1635.29135180405
 20
1900.0991261332524
 30
0.0
 11
1635.29135180405
 21
1900.0991261332524
 31
0.0
  0
LINE
  5
D0
330
17
100
AcDbEntity
  8
0
100
AcDbLine
 10
1813.8335014008878
 20
1337.0688129367034
 30
0.0
 11
1815.070333203807
 21
1195.3419262031973
 31
0.0
  0
LINE
  5
D1
330
17
100
AcDbEntity
  8
0
100
AcDbLine
 10
1815.070333203807
 20
1195.3419262031973
 30
0.0
 11
1832.7861940454952
 21
1195.4965301785621
 31
0.0
  0
LINE
  5
D2
330
17
100
AcDbEntity
  8
0
100
AcDbLine
 10
1832.7861940454952
 20
1195.4965301785621
 30
0.0
 11
1831.549362242576
 21
1337.2234169120682
 31
0.0
  0
LINE
  5
D3
330
17
100
AcDbEntity
  8
0
100
AcDbLine
 10
1831.549362242576
 20
1337.2234169120682
 30
0.0
 11
1813.8335014008878
 21
1337.0688129367034
 31
0.0
  0
LINE
  5
D4
330
17
100
AcDbEntity
  8
0
100
AcDbLine
 10
1813.8335014008878
 20
1337.0688129367034
 30
0.0
 11
1813.8335014008878
 21
1337.0688129367034
 31
0.0
  0
LINE
  5
D5
330
17
100
AcDbEntity
  8
0
100
AcDbLine
 10
1399.4287548328555
 20
1986.2886932170643
 30
0.0
 11
1221.993493065918
 21
1984.7402391462035
 31
0.0
  0
LINE
  5
D6
330
17
100
AcDbEntity
  8
0
100
AcDbLine
 10
1221.993493065918
 20
1984.7402391462035
 30
0.0
 11
1216.8489800318382
 21
1960.3708230910333
 31
0.0
  0
LINE
  5
D7
330
17
100
AcDbEntity
  8
0
100
AcDbLine
 10
1216.8489800318382
 20
1960.3708230910333
 30
0.0
 11
1205.7109111249306
 21
2008.9226637763866
 31
0.0
  0
LINE
  5
D8
330
17
100
AcDbEntity
  8
0
100
AcDbLine
 10
1205.7109111249306
 20
2008.9226637763866
 30
0.0
 11
1200.566398090851
 21
1984.5532477212162
 31
0.0
  0
LINE
  5
D9
330
17
100
AcDbEntity
  8
0
100
AcDbLine
 10
1200.566398090851
 20
1984.5532477212162
 30
0.0
 11
1011.267184932878
 21
1982.9012585150938
 31
0.0
  0
LINE
  5
DA
330
17
100
AcDbEntity
  8
0
100
AcDbLine
 10
1399.2453938042104
 20
2007.299785975821
 30
0.0
 11
1221.810132037273
 21
2005.7513319049622
 31
0.0
  0
LINE
  5
DB
330
17
100
AcDbEntity
  8
0
100
AcDbLine
 10
1221.810132037273
 20
2005.7513319049622
 30
0.0
 11
1216.6656190031933
 21
1981.3819158497918
 31
0.0
  0
LINE
  5
DC
330
17
100
AcDbEntity
  8
0
100
AcDbLine
 10
1216.6656190031933
 20
1981.3819158497918
 30
0.0
 11
1205.5275500962855
 21
2029.9337565351461
 31
0.0
  0
LINE
  5
DD
330
17
100
AcDbEntity
  8
0
100
AcDbLine
 10
1205.5275500962855
 20
2029.9337565351461
 30
0.0
 11
1200.3830370622059
 21
2005.5643404799748
 31
0.0
  0
LINE
  5
DE
330
17
100
AcDbEntity
  8
0
100
AcDbLine
 10
1200.3830370622059
 20
2005.5643404799748
 30
0.0
 11
1011.083823904233
 21
2003.9123512738504
 31
0.0
  0
LINE
  5
DF
330
17
100
AcDbEntity
  8
0
100
AcDbLine
 10
357.5697112624563
 20
649.9250621296574
 30
0.0
 11
355.71446355807757
 21
862.515392229913
 31
0.0
  0
LINE
  5
E0
330
17
100
AcDbEntity
  8
0
100
AcDbLine
 10
1622.4500847404936
 20
2018.1017957609308
 30
0.0
 11
1640.1659455821782
 21
2018.2563997362956
 31
0.0
  0
LINE
  5
E1
330
17
100
AcDbEntity
  8
0
100
AcDbLine
 10
1640.1659455821782
 20
2018.2563997362956
 30
0.0
 11
1640.320549557543
 21
2000.5405388946065
 31
0.0
  0
LINE
  5
E2
330
17
100
AcDbEntity
  8
0
100
AcDbLine
 10
1640.320549557543
 20
2000.5405388946065
 30
0.0
 11
1622.6046887158584
 21
2000.3859349192417
 31
0.0
  0
LINE
  5
E3
330
17
100
AcDbEntity
  8
0
100
AcDbLine
 10
1622.6046887158584
 20
2000.3859349192417
 30
0.0
 11
1622.4500847404936
 21
2018.1017957609308
 31
0.0
  0
LINE
  5
E4
330
17
100
AcDbEntity
  8
0
100
AcDbLine
 10
1622.4500847404936
 20
2018.1017957609308
 30
0.0
 11
1622.4500847404936
 21
2018.1017957609308
 31
0.0
  0
LINE
  5
E5
330
17
100
AcDbEntity
  8
0
100
AcDbLine
 10
1962.0040842061803
 20
2021.0650386220912
 30
0.0
 11
1979.7199450478663
 21
2021.2196425974562
 31
0.0
  0
LINE
  5
E6
330
17
100
AcDbEntity
  8
0
100
AcDbLine
 10
1979.7199450478663
 20
2021.2196425974562
 30
0.0
 11
1979.874549023231
 21
2003.5037817557668
 31
0.0
  0
LINE
  5
E7
330
17
100
AcDbEntity
  8
0
100
AcDbLine
 10
1979.874549023231
 20
2003.5037817557668
 30
0.0
 11
1962.1586881815451
 21
2003.349177780402
 31
0.0
  0
LINE
  5
E8
330
17
100
AcDbEntity
  8
0
100
AcDbLine
 10
1962.1586881815451
 20
2003.349177780402
 30
0.0
 11
1962.0040842061803
 21
2021.0650386220912
 31
0.0
  0
LINE
  5
E9
330
17
100
AcDbEntity
  8
0
100
AcDbLine
 10
1962.0040842061803
 20
2021.0650386220912
 30
0.0
 11
1962.0040842061803
 21
2021.0650386220912
 31
0.0
  0
LINE
  5
EA
330
17
100
AcDbEntity
  8
0
100
AcDbLine
 10
1956.662644913622
 20
1888.7299228798522
 30
0.0
 11
1956.5389617333299
 21
1902.9026115532024
 31
0.0
  0
LINE
  5
EB
330
17
100
AcDbEntity
  8
0
100
AcDbLine
 10
1956.5389617333299
 20
1902.9026115532024
 30
0.0
 11
2040.362541520266
 21
1903.634128851751
 31
0.0
  0
LINE
  5
EC
330
17
100
AcDbEntity
  8
0
100
AcDbLine
 10
2040.486224700558
 20
1889.4614401784008
 30
0.0
 11
1956.662644913622
 21
1888.7299228798522
 31
0.0
  0
LINE
  5
ED
330
17
100
AcDbEntity
  8
0
100
AcDbLine
 10
1956.662644913622
 20
1888.7299228798522
 30
0.0
 11
1956.662644913622
 21
1888.7299228798522
 31
0.0
  0
LINE
  5
EE
330
17
100
AcDbEntity
  8
0
100
AcDbLine
 10
1599.8596301206728
 20
1899.7899181825226
 30
0.0
 11
1598.6227983177537
 21
2041.5168049160288
 31
0.0
  0
LINE
  5
EF
330
17
100
AcDbEntity
  8
0
100
AcDbLine
 10
1598.6227983177537
 20
2041.5168049160288
 30
0.0
 11
2039.1257097173468
 21
2045.361015585257
 31
0.0
  0
LINE
  5
F0
330
17
100
AcDbEntity
  8
0
100
AcDbLine
 10
541.8407601443542
 20
1460.6190968340206
 30
0.0
 11
527.6680714710066
 21
1460.4954136537287
 31
0.0
  0
LINE
  5
F1
330
17
100
AcDbEntity
  8
0
100
AcDbLine
 10
527.6680714710066
 20
1460.4954136537287
 30
0.0
 11
528.5956953231959
 21
1354.2002486036026
 31
0.0
  0
LINE
  5
F2
330
17
100
AcDbEntity
  8
0
100
AcDbLine
 10
528.5956953231959
 20
1354.2002486036026
 30
0.0
 11
542.7683839965435
 21
1354.3239317838945
 31
0.0
  0
LINE
  5
F3
330
17
100
AcDbEntity
  8
0
100
AcDbLine
 10
542.7683839965435
 20
1354.3239317838945
 30
0.0
 11
541.8407601443542
 21
1460.6190968340206
 31
0.0
  0
LINE
  5
F4
330
17
100
AcDbEntity
  8
0
100
AcDbLine
 10
541.8407601443542
 20
1460.6190968340206
 30
0.0
 11
541.8407601443542
 21
1460.6190968340206
 31
0.0
  0
LINE
  5
F5
330
17
100
AcDbEntity
  8
0
100
AcDbLine
 10
550.5707312866251
 20
460.2634879733695
 30
0.0
 11
536.3980426132774
 21
460.1398047930776
 31
0.0
  0
LINE
  5
F6
330
17
100
AcDbEntity
  8
0
100
AcDbLine
 10
536.3980426132774
 20
460.1398047930776
 30
0.0
 11
537.3256664654668
 21
353.8446397429494
 31
0.0
  0
LINE
  5
F7
330
17
100
AcDbEntity
  8
0
100
AcDbLine
 10
537.3256664654668
 20
353.8446397429494
 30
0.0
 11
551.4983551388145
 21
353.9683229232413
 31
0.0
  0
LINE
  5
F8
330
17
100
AcDbEntity
  8
0
100
AcDbLine
 10
551.4983551388145
 20
353.9683229232413
 30
0.0
 11
550.5707312866251
 21
460.2634879733695
 31
0.0
  0
LINE
  5
F9
330
17
100
AcDbEntity
  8
0
100
AcDbLine
 10
550.5707312866251
 20
460.2634879733695
 30
0.0
 11
550.5707312866251
 21
460.2634879733695
 31
0.0
  0
LINE
  5
FA
330
17
100
AcDbEntity
  8
0
100
AcDbLine
 10
544.9019188565791
 20
1109.8450521686
 30
0.0
 11
530.7292301832314
 21
1109.721368988308
 31
0.0
  0
LINE
  5
FB
330
17
100
AcDbEntity
  8
0
100
AcDbLine
 10
530.7292301832314
 20
1109.721368988308
 30
0.0
 11
531.6568540354208
 21
1003.4262039381787
 31
0.0
  0
LINE
  5
FC
330
17
100
AcDbEntity
  8
0
100
AcDbLine
 10
531.6568540354208
 20
1003.4262039381787
 30
0.0
 11
545.8295427087685
 21
1003.5498871184706
 31
0.0
  0
LINE
  5
FD
330
17
100
AcDbEntity
  8
0
100
AcDbLine
 10
545.8295427087685
 20
1003.5498871184706
 30
0.0
 11
544.9019188565791
 21
1109.8450521686
 31
0.0
  0
LINE
  5
FE
330
17
100
AcDbEntity
  8
0
100
AcDbLine
 10
544.9019188565791
 20
1109.8450521686
 30
0.0
 11
544.9019188565791
 21
1109.8450521686
 31
0.0
  0
LINE
  5
FF
330
17
100
AcDbEntity
  8
0
100
AcDbLine
 10
1372.1423064548203
 20
1871.8174177983533
 30
0.0
 11
1374.6159700606586
 21
1588.3636443313426
 31
0.0
  0
LINE
  5
100
330
17
100
AcDbEntity
  8
0
100
AcDbLine
 10
1374.6159700606586
 20
1588.3636443313426
 30
0.0
 11
1581.301013213686
 21
1590.1673573772664
 31
0.0
  0
LINE
  5
101
330
17
100
AcDbEntity
  8
0
100
AcDbLine
 10
1581.301013213686
 20
1590.1673573772664
 30
0.0
 11
1578.8273496078477
 21
1873.621130844277
 31
0.0
  0
LINE
  5
102
330
17
100
AcDbEntity
  8
0
100
AcDbLine
 10
1578.8273496078477
 20
1873.621130844277
 30
0.0
 11
1372.1423064548203
 21
1871.8174177983533
 31
0.0
  0
LINE
  5
103
330
17
100
AcDbEntity
  8
0
100
AcDbLine
 10
1372.1423064548203
 20
1871.8174177983533
 30
0.0
 11
1372.1423064548203
 21
1871.8174177983533
 31
0.0
  0
LINE
  5
104
330
17
100
AcDbEntity
  8
0
100
AcDbLine
 10
1601.7797166602722
 20
597.0011621701972
 30
0.0
 11
1623.0387496702956
 21
597.1866869406349
 31
0.0
  0
LINE
  5
105
330
17
100
AcDbEntity
  8
0
100
AcDbLine
 10
1623.0387496702956
 20
597.1866869406349
 30
0.0
 11
1623.2242744407333
 21
575.9276539306118
 31
0.0
  0
LINE
  5
106
330
17
100
AcDbEntity
  8
0
100
AcDbLine
 10
1623.2242744407333
 20
575.9276539306118
 30
0.0
 11
1601.96524143071
 21
575.742129160174
 31
0.0
  0
LINE
  5
107
330
17
100
AcDbEntity
  8
0
100
AcDbLine
 10
1601.96524143071
 20
575.742129160174
 30
0.0
 11
1601.7797166602722
 21
597.0011621701972
 31
0.0
  0
LINE
  5
108
330
17
100
AcDbEntity
  8
0
100
AcDbLine
 10
1601.7797166602722
 20
597.0011621701972
 30
0.0
 11
1601.7797166602722
 21
597.0011621701972
 31
0.0
  0
LINE
  5
109
330
17
100
AcDbEntity
  8
0
100
AcDbLine
 10
1070.3038914096305
 20
592.3630429092502
 30
0.0
 11
1091.5629244196534
 21
592.5485676796882
 31
0.0
  0
LINE
  5
10A
330
17
100
AcDbEntity
  8
0
100
AcDbLine
 10
1091.5629244196534
 20
592.5485676796882
 30
0.0
 11
1091.7484491900912
 21
571.289534669665
 31
0.0
  0
LINE
  5
10B
330
17
100
AcDbEntity
  8
0
100
AcDbLine
 10
1091.7484491900912
 20
571.289534669665
 30
0.0
 11
1070.4894161800682
 21
571.1040098992271
 31
0.0
  0
LINE
  5
10C
330
17
100
AcDbEntity
  8
0
100
AcDbLine
 10
1070.4894161800682
 20
571.1040098992271
 30
0.0
 11
1070.3038914096305
 21
592.3630429092502
 31
0.0
  0
LINE
  5
10D
330
17
100
AcDbEntity
  8
0
100
AcDbLine
 10
1070.3038914096305
 20
592.3630429092502
 30
0.0
 11
1070.3038914096305
 21
592.3630429092502
 31
0.0
  0
LINE
  5
10E
330
17
100
AcDbEntity
  8
0
100
AcDbLine
 10
549.457582663998
 20
587.8176860335225
 30
0.0
 11
570.7166156740248
 21
588.0032108039604
 31
0.0
  0
LINE
  5
10F
330
17
100
AcDbEntity
  8
0
100
AcDbLine
 10
570.7166156740248
 20
588.0032108039604
 30
0.0
 11
570.9021404444626
 21
566.7441777939373
 31
0.0
  0
LINE
  5
110
330
17
100
AcDbEntity
  8
0
100
AcDbLine
 10
570.9021404444626
 20
566.7441777939373
 30
0.0
 11
549.6431074344358
 21
566.5586530234993
 31
0.0
  0
LINE
  5
111
330
17
100
AcDbEntity
  8
0
100
AcDbLine
 10
549.6431074344358
 20
566.5586530234993
 30
0.0
 11
549.457582663998
 21
587.8176860335225
 31
0.0
  0
LINE
  5
112
330
17
100
AcDbEntity
  8
0
100
AcDbLine
 10
549.457582663998
 20
587.8176860335225
 30
0.0
 11
549.457582663998
 21
587.8176860335225
 31
0.0
  0
LINE
  5
113
330
17
100
AcDbEntity
  8
0
100
AcDbLine
 10
1596.1109042302262
 20
1246.5827263654292
 30
0.0
 11
1617.3699372402496
 21
1246.7682511358669
 31
0.0
  0
LINE
  5
114
330
17
100
AcDbEntity
  8
0
100
AcDbLine
 10
1617.3699372402496
 20
1246.7682511358669
 30
0.0
 11
1617.5554620106873
 21
1225.5092181258399
 31
0.0
  0
LINE
  5
115
330
17
100
AcDbEntity
  8
0
100
AcDbLine
 10
1617.5554620106873
 20
1225.5092181258399
 30
0.0
 11
1596.296429000664
 21
1225.3236933554022
 31
0.0
  0
LINE
  5
116
330
17
100
AcDbEntity
  8
0
100
AcDbLine
 10
1596.296429000664
 20
1225.3236933554022
 30
0.0
 11
1596.1109042302262
 21
1246.5827263654292
 31
0.0
  0
LINE
  5
117
330
17
100
AcDbEntity
  8
0
100
AcDbLine
 10
1596.1109042302262
 20
1246.5827263654292
 30
0.0
 11
1596.1109042302262
 21
1246.5827263654292
 31
0.0
  0
LINE
  5
118
330
17
100
AcDbEntity
  8
0
100
AcDbLine
 10
1590.5348541853991
 20
1885.5347740556444
 30
0.0
 11
1611.7938871954225
 21
1885.7202988260822
 31
0.0
  0
LINE
  5
119
330
17
100
AcDbEntity
  8
0
100
AcDbLine
 10
1611.7938871954225
 20
1885.7202988260822
 30
0.0
 11
1611.9794119658602
 21
1864.461265816058
 31
0.0
  0
LINE
  5
11A
330
17
100
AcDbEntity
  8
0
100
AcDbLine
 10
1611.9794119658602
 20
1864.461265816058
 30
0.0
 11
1590.7203789558368
 21
1864.2757410456202
 31
0.0
  0
LINE
  5
11B
330
17
100
AcDbEntity
  8
0
100
AcDbLine
 10
1590.7203789558368
 20
1864.2757410456202
 30
0.0
 11
1590.5348541853991
 21
1885.5347740556444
 31
0.0
  0
LINE
  5
11C
330
17
100
AcDbEntity
  8
0
100
AcDbLine
 10
1590.5348541853991
 20
1885.5347740556444
 30
0.0
 11
1590.5348541853991
 21
1885.5347740556444
 31
0.0
  0
LINE
  5
11D
330
17
100
AcDbEntity
  8
0
100
AcDbLine
 10
1064.6350789795845
 20
1241.9446071044822
 30
0.0
 11
1085.8941119896074
 21
1242.1301318749202
 31
0.0
  0
LINE
  5
11E
330
17
100
AcDbEntity
  8
0
100
AcDbLine
 10
1085.8941119896074
 20
1242.1301318749202
 30
0.0
 11
1086.079636760045
 21
1220.8710988648932
 31
0.0
  0
LINE
  5
11F
330
17
100
AcDbEntity
  8
0
100
AcDbLine
 10
1086.079636760045
 20
1220.8710988648932
 30
0.0
 11
1064.8206037500222
 21
1220.6855740944552
 31
0.0
  0
LINE
  5
120
330
17
100
AcDbEntity
  8
0
100
AcDbLine
 10
1064.8206037500222
 20
1220.6855740944552
 30
0.0
 11
1064.6350789795845
 21
1241.9446071044822
 31
0.0
  0
LINE
  5
121
330
17
100
AcDbEntity
  8
0
100
AcDbLine
 10
1064.6350789795845
 20
1241.9446071044822
 30
0.0
 11
1064.6350789795845
 21
1241.9446071044822
 31
0.0
  0
LINE
  5
122
330
17
100
AcDbEntity
  8
0
100
AcDbLine
 10
543.7887702339518
 20
1237.3992502287545
 30
0.0
 11
565.0478032439786
 21
1237.5847749991924
 31
0.0
  0
LINE
  5
123
330
17
100
AcDbEntity
  8
0
100
AcDbLine
 10
565.0478032439786
 20
1237.5847749991924
 30
0.0
 11
565.2333280144165
 21
1216.3257419891654
 31
0.0
  0
LINE
  5
124
330
17
100
AcDbEntity
  8
0
100
AcDbLine
 10
565.2333280144165
 20
1216.3257419891654
 30
0.0
 11
543.9742950043898
 21
1216.1402172187275
 31
0.0
  0
LINE
  5
125
330
17
100
AcDbEntity
  8
0
100
AcDbLine
 10
543.9742950043898
 20
1216.1402172187275
 30
0.0
 11
543.7887702339518
 21
1237.3992502287545
 31
0.0
  0
LINE
  5
126
330
17
100
AcDbEntity
  8
0
100
AcDbLine
 10
543.7887702339518
 20
1237.3992502287545
 30
0.0
 11
543.7887702339518
 21
1237.3992502287545
 31
0.0
  0
LINE
  5
127
330
17
100
AcDbEntity
  8
0
100
AcDbLine
 10
1059.0590289347574
 20
1880.8966547946975
 30
0.0
 11
1080.3180619447803
 21
1881.0821795651354
 31
0.0
  0
LINE
  5
128
330
17
100
AcDbEntity
  8
0
100
AcDbLine
 10
1080.3180619447803
 20
1881.0821795651354
 30
0.0
 11
1080.503586715218
 21
1859.8231465551112
 31
0.0
  0
LINE
  5
129
330
17
100
AcDbEntity
  8
0
100
AcDbLine
 10
1080.503586715218
 20
1859.8231465551112
 30
0.0
 11
1059.2445537051951
 21
1859.6376217846732
 31
0.0
  0
LINE
  5
12A
330
17
100
AcDbEntity
  8
0
100
AcDbLine
 10
1059.2445537051951
 20
1859.6376217846732
 30
0.0
 11
1059.0590289347574
 21
1880.8966547946975
 31
0.0
  0
LINE
  5
12B
330
17
100
AcDbEntity
  8
0
100
AcDbLine
 10
1059.0590289347574
 20
1880.8966547946975
 30
0.0
 11
1059.0590289347574
 21
1880.8966547946975
 31
0.0
  0
LINE
  5
12C
330
17
100
AcDbEntity
  8
0
100
AcDbLine
 10
538.2127201891248
 20
1876.3512979189697
 30
0.0
 11
559.4717531991515
 21
1876.5368226894075
 31
0.0
  0
LINE
  5
12D
330
17
100
AcDbEntity
  8
0
100
AcDbLine
 10
559.4717531991515
 20
1876.5368226894075
 30
0.0
 11
559.6572779695894
 21
1855.2777896793832
 31
0.0
  0
LINE
  5
12E
330
17
100
AcDbEntity
  8
0
100
AcDbLine
 10
559.6572779695894
 20
1855.2777896793832
 30
0.0
 11
538.3982449595626
 21
1855.0922649089455
 31
0.0
  0
LINE
  5
12F
330
17
100
AcDbEntity
  8
0
100
AcDbLine
 10
538.3982449595626
 20
1855.0922649089455
 30
0.0
 11
538.2127201891248
 21
1876.3512979189697
 31
0.0
  0
LINE
  5
130
330
17
100
AcDbEntity
  8
0
100
AcDbLine
 10
538.2127201891248
 20
1876.3512979189697
 30
0.0
 11
538.2127201891248
 21
1876.3512979189697
 31
0.0
  0
LINE
  5
131
330
17
100
AcDbEntity
  8
0
100
AcDbLine
 10
2040.3883088494936
 20
1900.681485378138
 30
0.0
 11
1964.832130788675
 21
1900.0221166014262
 31
0.0
  0
LINE
  5
132
330
17
100
AcDbEntity
  8
0
100
AcDbLine
 10
1964.832130788675
 20
1900.0221166014262
 30
0.0
 11
1964.8578981179023
 21
1897.0694731278113
 31
0.0
  0
LINE
  5
133
330
17
100
AcDbEntity
  8
0
100
AcDbLine
 10
1964.8578981179023
 20
1897.0694731278113
 30
0.0
 11
2040.414076178721
 21
1897.728841904523
 31
0.0
  0
LINE
  5
134
330
17
100
AcDbEntity
  8
0
100
AcDbLine
 10
1964.8063634594473
 20
1902.9747600750393
 30
0.0
 11
1964.8578981179023
 21
1897.0694731278113
 31
0.0
  0
LINE
  5
135
330
17
100
AcDbEntity
  8
0
100
AcDbLine
 10
1964.8578981179023
 20
1897.0694731278113
 30
0.0
 11
1956.5904963917822
 21
1896.9973246059744
 31
0.0
  0
LINE
  5
136
330
17
100
AcDbEntity
  8
0
100
AcDbLine
 10
1956.5389617333271
 20
1902.9026115532024
 30
0.0
 11
1956.5389617333271
 21
1902.9026115532024
 31
0.0
  0
LINE
  5
137
330
17
100
AcDbEntity
  8
0
100
AcDbLine
 10
534.5009822704252
 20
1354.25178326206
 30
0.0
 11
534.4288337485883
 21
1362.5191849881799
 31
0.0
  0
LINE
  5
138
330
17
100
AcDbEntity
  8
0
100
AcDbLine
 10
534.4288337485883
 20
1362.5191849881799
 30
0.0
 11
528.523546801359
 21
1362.467650329725
 31
0.0
  0
LINE
  5
139
330
17
100
AcDbEntity
  8
0
100
AcDbLine
 10
528.523546801359
 20
1362.467650329725
 30
0.0
 11
528.523546801359
 21
1362.467650329725
 31
0.0
  0
LINE
  5
13A
330
17
100
AcDbEntity
  8
0
100
AcDbLine
 10
531.4761902749736
 20
1362.4934176589525
 30
0.0
 11
530.6928634664581
 21
1452.253779256841
 31
0.0
  0
LINE
  5
13B
330
17
100
AcDbEntity
  8
0
100
AcDbLine
 10
530.6928634664581
 20
1452.253779256841
 30
0.0
 11
533.6455069400728
 21
1452.2795465860686
 31
0.0
  0
LINE
  5
13C
330
17
100
AcDbEntity
  8
0
100
AcDbLine
 10
533.6455069400728
 20
1452.2795465860686
 30
0.0
 11
534.4288337485883
 21
1362.5191849881799
 31
0.0
  0
LINE
  5
13D
330
17
100
AcDbEntity
  8
0
100
AcDbLine
 10
534.4288337485883
 20
1362.5191849881799
 30
0.0
 11
531.4761902749736
 21
1362.4934176589525
 31
0.0
  0
LINE
  5
13E
330
17
100
AcDbEntity
  8
0
100
AcDbLine
 10
531.4761902749736
 20
1362.4934176589525
 30
0.0
 11
531.4761902749736
 21
1362.4934176589525
 31
0.0
  0
LINE
  5
13F
330
17
100
AcDbEntity
  8
0
100
AcDbLine
 10
523.9163483354852
 20
1890.400303412028
 30
0.0
 11
527.7402199928434
 21
1452.2280119276136
 31
0.0
  0
LINE
  5
140
330
17
100
AcDbEntity
  8
0
100
AcDbLine
 10
527.7402199928434
 20
1452.2280119276136
 30
0.0
 11
533.6455069400728
 21
1452.2795465860686
 31
0.0
  0
LINE
  5
141
330
17
100
AcDbEntity
  8
0
100
AcDbLine
 10
533.6455069400728
 20
1452.2795465860686
 30
0.0
 11
533.5733584182359
 21
1460.5469483121883
 31
0.0
  0
LINE
  5
142
330
17
100
AcDbEntity
  8
0
100
AcDbLine
 10
527.6680714710066
 20
1460.4954136537333
 30
0.0
 11
527.6680714710066
 21
1460.4954136537333
 31
0.0
  0
LINE
  5
143
330
17
100
AcDbEntity
  8
0
100
AcDbLine
 10
543.2309534126962
 20
353.8961744014006
 30
0.0
 11
543.1588048908593
 21
362.16357612752086
 31
0.0
  0
LINE
  5
144
330
17
100
AcDbEntity
  8
0
100
AcDbLine
 10
543.1588048908593
 20
362.16357612752086
 30
0.0
 11
537.25351794363
 21
362.11204146906584
 31
0.0
  0
LINE
  5
145
330
17
100
AcDbEntity
  8
0
100
AcDbLine
 10
537.25351794363
 20
362.11204146906584
 30
0.0
 11
537.25351794363
 21
362.11204146906584
 31
0.0
  0
LINE
  5
146
330
17
100
AcDbEntity
  8
0
100
AcDbLine
 10
540.2061614172446
 20
362.13780879829335
 30
0.0
 11
539.4228346087291
 21
451.89817039618174
 31
0.0
  0
LINE
  5
147
330
17
100
AcDbEntity
  8
0
100
AcDbLine
 10
539.4228346087291
 20
451.89817039618174
 30
0.0
 11
542.3754780823438
 21
451.92393772540925
 31
0.0
  0
LINE
  5
148
330
17
100
AcDbEntity
  8
0
100
AcDbLine
 10
542.3754780823438
 20
451.92393772540925
 30
0.0
 11
543.1588048908593
 21
362.16357612752086
 31
0.0
  0
LINE
  5
149
330
17
100
AcDbEntity
  8
0
100
AcDbLine
 10
543.1588048908593
 20
362.16357612752086
 30
0.0
 11
540.2061614172446
 21
362.13780879829335
 31
0.0
  0
LINE
  5
14A
330
17
100
AcDbEntity
  8
0
100
AcDbLine
 10
540.2061614172446
 20
362.13780879829335
 30
0.0
 11
540.2061614172446
 21
362.13780879829335
 31
0.0
  0
LINE
  5
14B
330
17
100
AcDbEntity
  8
0
100
AcDbLine
 10
534.4706463870618
 20
680.9975366194531
 30
0.0
 11
536.4701911351144
 21
451.87240306695423
 31
0.0
  0
LINE
  5
14C
330
17
100
AcDbEntity
  8
0
100
AcDbLine
 10
536.4701911351144
 20
451.87240306695423
 30
0.0
 11
542.3754780823438
 21
451.92393772540925
 31
0.0
  0
LINE
  5
14D
330
17
100
AcDbEntity
  8
0
100
AcDbLine
 10
542.3754780823438
 20
451.92393772540925
 30
0.0
 11
542.3033295605069
 21
460.19133945153055
 31
0.0
  0
LINE
  5
14E
330
17
100
AcDbEntity
  8
0
100
AcDbLine
 10
536.3980426132775
 20
460.13980479307554
 30
0.0
 11
536.3980426132775
 21
460.13980479307554
 31
0.0
  0
LINE
  5
14F
330
17
100
AcDbEntity
  8
0
100
AcDbLine
 10
537.5621409826501
 20
1003.47773859663
 30
0.0
 11
537.4899924608131
 21
1011.745140322751
 31
0.0
  0
LINE
  5
150
330
17
100
AcDbEntity
  8
0
100
AcDbLine
 10
537.4899924608131
 20
1011.745140322751
 30
0.0
 11
531.5847055135838
 21
1011.693605664296
 31
0.0
  0
LINE
  5
151
330
17
100
AcDbEntity
  8
0
100
AcDbLine
 10
531.5847055135838
 20
1011.693605664296
 30
0.0
 11
531.5847055135838
 21
1011.693605664296
 31
0.0
  0
LINE
  5
152
330
17
100
AcDbEntity
  8
0
100
AcDbLine
 10
534.5373489871985
 20
1011.7193729935235
 30
0.0
 11
533.754022178683
 21
1101.4797345914124
 31
0.0
  0
LINE
  5
153
330
17
100
AcDbEntity
  8
0
100
AcDbLine
 10
533.754022178683
 20
1101.4797345914124
 30
0.0
 11
536.7066656522977
 21
1101.5055019206397
 31
0.0
  0
LINE
  5
154
330
17
100
AcDbEntity
  8
0
100
AcDbLine
 10
536.7066656522977
 20
1101.5055019206397
 30
0.0
 11
537.4899924608131
 21
1011.745140322751
 31
0.0
  0
LINE
  5
155
330
17
100
AcDbEntity
  8
0
100
AcDbLine
 10
537.4899924608131
 20
1011.745140322751
 30
0.0
 11
534.5373489871985
 21
1011.7193729935235
 31
0.0
  0
LINE
  5
156
330
17
100
AcDbEntity
  8
0
100
AcDbLine
 10
534.5373489871985
 20
1011.7193729935235
 30
0.0
 11
534.5373489871985
 21
1011.7193729935235
 31
0.0
  0
LINE
  5
157
330
17
100
AcDbEntity
  8
0
100
AcDbLine
 10
528.523546801359
 20
1362.467650329725
 30
0.0
 11
530.8013787050684
 21
1101.453967262185
 31
0.0
  0
LINE
  5
158
330
17
100
AcDbEntity
  8
0
100
AcDbLine
 10
530.8013787050684
 20
1101.453967262185
 30
0.0
 11
536.7066656522977
 21
1101.5055019206397
 31
0.0
  0
LINE
  5
159
330
17
100
AcDbEntity
  8
0
100
AcDbLine
 10
536.7066656522977
 20
1101.5055019206397
 30
0.0
 11
536.6345171304607
 21
1109.77290364676
 31
0.0
  0
LINE
  5
15A
330
17
100
AcDbEntity
  8
0
100
AcDbLine
 10
530.7292301832314
 20
1109.721368988305
 30
0.0
 11
530.7292301832314
 21
1109.721368988305
 31
0.0
  0
LINE
  5
15B
330
17
100
AcDbEntity
  8
0
100
AcDbLine
 10
1905.897021430851
 20
1746.5492175942748
 30
0.0
 11
1905.872709047204
 21
1747.0759236614049
 31
0.0
  0
LINE
  5
15C
330
17
100
AcDbEntity
  8
0
100
AcDbLine
 10
1905.872709047204
 20
1747.0759236614049
 30
0.0
 11
1905.8091038522225
 21
1747.599340084841
 31
0.0
  0
LINE
  5
15D
330
17
100
AcDbEntity
  8
0
100
AcDbLine
 10
1905.8091038522225
 20
1747.599340084841
 30
0.0
 11
1905.7065615519589
 21
1748.1165397076238
 31
0.0
  0
LINE
  5
15E
330
17
100
AcDbEntity
  8
0
100
AcDbLine
 10
1905.7065615519589
 20
1748.1165397076238
 30
0.0
 11
1905.5656556045508
 21
1748.6246301396682
 31
0.0
  0
LINE
  5
15F
330
17
100
AcDbEntity
  8
0
100
AcDbLine
 10
1905.5656556045508
 20
1748.6246301396682
 30
0.0
 11
1905.387174013214
 21
1749.120769933178
 31
0.0
  0
LINE
  5
160
330
17
100
AcDbEntity
  8
0
100
AcDbLine
 10
1905.387174013214
 20
1749.120769933178
 30
0.0
 11
1905.1721149194032
 21
1749.6021844731754
 31
0.0
  0
LINE
  5
161
330
17
100
AcDbEntity
  8
0
100
AcDbLine
 10
1905.1721149194032
 20
1749.6021844731754
 30
0.0
 11
1904.9216810208104
 21
1750.0661814942714
 31
0.0
  0
LINE
  5
162
330
17
100
AcDbEntity
  8
0
100
AcDbLine
 10
1904.9216810208104
 20
1750.0661814942714
 30
0.0
 11
1904.6372728453794
 21
1750.5101661369097
 31
0.0
  0
LINE
  5
163
330
17
100
AcDbEntity
  8
0
100
AcDbLine
 10
1904.6372728453794
 20
1750.5101661369097
 30
0.0
 11
1904.320480918995
 21
1750.9316554588727
 31
0.0
  0
LINE
  5
164
330
17
100
AcDbEntity
  8
0
100
AcDbLine
 10
1904.320480918995
 20
1750.9316554588727
 30
0.0
 11
1903.9730768706133
 21
1751.328292320898
 31
0.0
  0
LINE
  5
165
330
17
100
AcDbEntity
  8
0
100
AcDbLine
 10
1903.9730768706133
 20
1751.328292320898
 30
0.0
 11
1903.5970035245907
 21
1751.697858568765
 31
0.0
  0
LINE
  5
166
330
17
100
AcDbEntity
  8
0
100
AcDbLine
 10
1903.5970035245907
 20
1751.697858568765
 30
0.0
 11
1903.1943640356294
 21
1752.0382874381041
 31
0.0
  0
LINE
  5
167
330
17
100
AcDbEntity
  8
0
100
AcDbLine
 10
1903.1943640356294
 20
1752.0382874381041
 30
0.0
 11
1902.7674101270766
 21
1752.347675112588
 31
0.0
  0
LINE
  5
168
330
17
100
AcDbEntity
  8
0
100
AcDbLine
 10
1902.7674101270766
 20
1752.347675112588
 30
0.0
 11
1902.3185294983778
 21
1752.6242913708402
 31
0.0
  0
LINE
  5
169
330
17
100
AcDbEntity
  8
0
100
AcDbLine
 10
1902.3185294983778
 20
1752.6242913708402
 30
0.0
 11
1901.8502324720919
 21
1752.8665892625395
 31
0.0
  0
LINE
  5
16A
330
17
100
AcDbEntity
  8
0
100
AcDbLine
 10
1901.8502324720919
 20
1752.8665892625395
 30
0.0
 11
1901.3651379551488
 21
1753.0732137595915
 31
0.0
  0
LINE
  5
16B
330
17
100
AcDbEntity
  8
0
100
AcDbLine
 10
1901.3651379551488
 20
1753.0732137595915
 30
0.0
 11
1900.8659587928591
 21
1753.2430093339924
 31
0.0
  0
LINE
  5
16C
330
17
100
AcDbEntity
  8
0
100
AcDbLine
 10
1900.8659587928591
 20
1753.2430093339924
 30
0.0
 11
1900.3554865975834
 21
1753.3750264200155
 31
0.0
  0
LINE
  5
16D
330
17
100
AcDbEntity
  8
0
100
AcDbLine
 10
1900.3554865975834
 20
1753.3750264200155
 30
0.0
 11
1899.8365761369073
 21
1753.468526724564
 31
0.0
  0
LINE
  5
16E
330
17
100
AcDbEntity
  8
0
100
AcDbLine
 10
1899.8365761369073
 20
1753.468526724564
 30
0.0
 11
1899.3121293686145
 21
1753.522987356007
 31
0.0
  0
LINE
  5
16F
330
17
100
AcDbEntity
  8
0
100
AcDbLine
 10
1899.3121293686145
 20
1753.522987356007
 30
0.0
 11
1898.7850792117683
 21
1753.5381037484053
 31
0.0
  0
LINE
  5
170
330
17
100
AcDbEntity
  8
0
100
AcDbLine
 10
1898.7850792117683
 20
1753.5381037484053
 30
0.0
 11
1898.258373144638
 21
1753.5137913647568
 31
0.0
  0
LINE
  5
171
330
17
100
AcDbEntity
  8
0
100
AcDbLine
 10
1898.258373144638
 20
1753.5137913647568
 30
0.0
 11
1897.7349567212016
 21
1753.4501861697768
 31
0.0
  0
LINE
  5
172
330
17
100
AcDbEntity
  8
0
100
AcDbLine
 10
1897.7349567212016
 20
1753.4501861697768
 30
0.0
 11
1897.2177570984188
 21
1753.3476438695131
 31
0.0
  0
LINE
  5
173
330
17
100
AcDbEntity
  8
0
100
AcDbLine
 10
1897.2177570984188
 20
1753.3476438695131
 30
0.0
 11
1896.7096666663736
 21
1753.2067379221048
 31
0.0
  0
LINE
  5
174
330
17
100
AcDbEntity
  8
0
100
AcDbLine
 10
1896.7096666663736
 20
1753.2067379221048
 30
0.0
 11
1896.2135268728637
 21
1753.028256330767
 31
0.0
  0
LINE
  5
175
330
17
100
AcDbEntity
  8
0
100
AcDbLine
 10
1896.2135268728637
 20
1753.028256330767
 30
0.0
 11
1895.7321123328675
 21
1752.8131972369565
 31
0.0
  0
LINE
  5
176
330
17
100
AcDbEntity
  8
0
100
AcDbLine
 10
1895.7321123328675
 20
1752.8131972369565
 30
0.0
 11
1895.2681153117717
 21
1752.5627633383638
 31
0.0
  0
LINE
  5
177
330
17
100
AcDbEntity
  8
0
100
AcDbLine
 10
1895.2681153117717
 20
1752.5627633383638
 30
0.0
 11
1894.8241306691332
 21
1752.2783551629334
 31
0.0
  0
LINE
  5
178
330
17
100
AcDbEntity
  8
0
100
AcDbLine
 10
1894.8241306691332
 20
1752.2783551629334
 30
0.0
 11
1894.402641347171
 21
1751.961563236549
 31
0.0
  0
LINE
  5
179
330
17
100
AcDbEntity
  8
0
100
AcDbLine
 10
1894.402641347171
 20
1751.961563236549
 30
0.0
 11
1894.0060044851436
 21
1751.6141591881665
 31
0.0
  0
LINE
  5
17A
330
17
100
AcDbEntity
  8
0
100
AcDbLine
 10
1894.0060044851436
 20
1751.6141591881665
 30
0.0
 11
1893.6364382372778
 21
1751.238085842144
 31
0.0
  0
LINE
  5
17B
330
17
100
AcDbEntity
  8
0
100
AcDbLine
 10
1893.6364382372778
 20
1751.238085842144
 30
0.0
 11
1893.2960093679387
 21
1750.8354463531837
 31
0.0
  0
LINE
  5
17C
330
17
100
AcDbEntity
  8
0
100
AcDbLine
 10
1893.2960093679387
 20
1750.8354463531837
 30
0.0
 11
1892.986621693456
 21
1750.4084924446306
 31
0.0
  0
LINE
  5
17D
330
17
100
AcDbEntity
  8
0
100
AcDbLine
 10
1892.986621693456
 20
1750.4084924446306
 30
0.0
 11
1892.7100054352027
 21
1749.959611815932
 31
0.0
  0
LINE
  5
17E
330
17
100
AcDbEntity
  8
0
100
AcDbLine
 10
1892.7100054352027
 20
1749.959611815932
 30
0.0
 11
1892.4677075435022
 21
1749.491314789646
 31
0.0
  0
LINE
  5
17F
330
17
100
AcDbEntity
  8
0
100
AcDbLine
 10
1892.4677075435022
 20
1749.491314789646
 30
0.0
 11
1892.2610830464516
 21
1749.0062202727017
 31
0.0
  0
LINE
  5
180
330
17
100
AcDbEntity
  8
0
100
AcDbLine
 10
1892.2610830464516
 20
1749.0062202727017
 30
0.0
 11
1892.0912874720502
 21
1748.5070411104116
 31
0.0
  0
LINE
  5
181
330
17
100
AcDbEntity
  8
0
100
AcDbLine
 10
1892.0912874720502
 20
1748.5070411104116
 30
0.0
 11
1891.9592703860287
 21
1747.9965689151377
 31
0.0
  0
LINE
  5
182
330
17
100
AcDbEntity
  8
0
100
AcDbLine
 10
1891.9592703860287
 20
1747.9965689151377
 30
0.0
 11
1891.865770081479
 21
1747.4776584544616
 31
0.0
  0
LINE
  5
183
330
17
100
AcDbEntity
  8
0
100
AcDbLine
 10
1891.865770081479
 20
1747.4776584544616
 30
0.0
 11
1891.8113094500343
 21
1746.9532116861674
 31
0.0
  0
LINE
  5
184
330
17
100
AcDbEntity
  8
0
100
AcDbLine
 10
1891.8113094500343
 20
1746.9532116861674
 30
0.0
 11
1891.7961930576373
 21
1746.4261615293215
 31
0.0
  0
LINE
  5
185
330
17
100
AcDbEntity
  8
0
100
AcDbLine
 10
1891.7961930576373
 20
1746.4261615293215
 30
0.0
 11
1891.8205054412847
 21
1745.8994554621909
 31
0.0
  0
LINE
  5
186
330
17
100
AcDbEntity
  8
0
100
AcDbLine
 10
1891.8205054412847
 20
1745.8994554621909
 30
0.0
 11
1891.8841106362665
 21
1745.3760390387554
 31
0.0
  0
LINE
  5
187
330
17
100
AcDbEntity
  8
0
100
AcDbLine
 10
1891.8841106362665
 20
1745.3760390387554
 30
0.0
 11
1891.9866529365313
 21
1744.858839415973
 31
0.0
  0
LINE
  5
188
330
17
100
AcDbEntity
  8
0
100
AcDbLine
 10
1891.9866529365313
 20
1744.858839415973
 30
0.0
 11
1892.1275588839378
 21
1744.3507489839276
 31
0.0
  0
LINE
  5
189
330
17
100
AcDbEntity
  8
0
100
AcDbLine
 10
1892.1275588839378
 20
1744.3507489839276
 30
0.0
 11
1892.306040475276
 21
1743.854609190419
 31
0.0
  0
LINE
  5
18A
330
17
100
AcDbEntity
  8
0
100
AcDbLine
 10
1892.306040475276
 20
1743.854609190419
 30
0.0
 11
1892.5210995690854
 21
1743.3731946504204
 31
0.0
  0
LINE
  5
18B
330
17
100
AcDbEntity
  8
0
100
AcDbLine
 10
1892.5210995690854
 20
1743.3731946504204
 30
0.0
 11
1892.7715334676793
 21
1742.9091976293246
 31
0.0
  0
LINE
  5
18C
330
17
100
AcDbEntity
  8
0
100
AcDbLine
 10
1892.7715334676793
 20
1742.9091976293246
 30
0.0
 11
1893.0559416431108
 21
1742.4652129866859
 31
0.0
  0
LINE
  5
18D
330
17
100
AcDbEntity
  8
0
100
AcDbLine
 10
1893.0559416431108
 20
1742.4652129866859
 30
0.0
 11
1893.372733569494
 21
1742.0437236647244
 31
0.0
  0
LINE
  5
18E
330
17
100
AcDbEntity
  8
0
100
AcDbLine
 10
1893.372733569494
 20
1742.0437236647244
 30
0.0
 11
1893.7201376178764
 21
1741.6470868026981
 31
0.0
  0
LINE
  5
18F
330
17
100
AcDbEntity
  8
0
100
AcDbLine
 10
1893.7201376178764
 20
1741.6470868026981
 30
0.0
 11
1894.0962109638976
 21
1741.277520554831
 31
0.0
  0
LINE
  5
190
330
17
100
AcDbEntity
  8
0
100
AcDbLine
 10
1894.0962109638976
 20
1741.277520554831
 30
0.0
 11
1894.4988504528603
 21
1740.9370916854916
 31
0.0
  0
LINE
  5
191
330
17
100
AcDbEntity
  8
0
100
AcDbLine
 10
1894.4988504528603
 20
1740.9370916854916
 30
0.0
 11
1894.9258043614122
 21
1740.6277040110103
 31
0.0
  0
LINE
  5
192
330
17
100
AcDbEntity
  8
0
100
AcDbLine
 10
1894.9258043614122
 20
1740.6277040110103
 30
0.0
 11
1895.3746849901108
 21
1740.3510877527565
 31
0.0
  0
LINE
  5
193
330
17
100
AcDbEntity
  8
0
100
AcDbLine
 10
1895.3746849901108
 20
1740.3510877527565
 30
0.0
 11
1895.8429820163967
 21
1740.1087898610563
 31
0.0
  0
LINE
  5
194
330
17
100
AcDbEntity
  8
0
100
AcDbLine
 10
1895.8429820163967
 20
1740.1087898610563
 30
0.0
 11
1896.3280765333402
 21
1739.9021653640057
 31
0.0
  0
LINE
  5
195
330
17
100
AcDbEntity
  8
0
100
AcDbLine
 10
1896.3280765333402
 20
1739.9021653640057
 30
0.0
 11
1896.82725569563
 21
1739.7323697896045
 31
0.0
  0
LINE
  5
196
330
17
100
AcDbEntity
  8
0
100
AcDbLine
 10
1896.82725569563
 20
1739.7323697896045
 30
0.0
 11
1897.3377278909052
 21
1739.600352703581
 31
0.0
  0
LINE
  5
197
330
17
100
AcDbEntity
  8
0
100
AcDbLine
 10
1897.3377278909052
 20
1739.600352703581
 30
0.0
 11
1897.8566383515813
 21
1739.506852399033
 31
0.0
  0
LINE
  5
198
330
17
100
AcDbEntity
  8
0
100
AcDbLine
 10
1897.8566383515813
 20
1739.506852399033
 30
0.0
 11
1898.3810851198755
 21
1739.4523917675901
 31
0.0
  0
LINE
  5
199
330
17
100
AcDbEntity
  8
0
100
AcDbLine
 10
1898.3810851198755
 20
1739.4523917675901
 30
0.0
 11
1898.9081352767214
 21
1739.4372753751918
 31
0.0
  0
LINE
  5
19A
330
17
100
AcDbEntity
  8
0
100
AcDbLine
 10
1898.9081352767214
 20
1739.4372753751918
 30
0.0
 11
1899.434841343852
 21
1739.4615877588403
 31
0.0
  0
LINE
  5
19B
330
17
100
AcDbEntity
  8
0
100
AcDbLine
 10
1899.434841343852
 20
1739.4615877588403
 30
0.0
 11
1899.958257767287
 21
1739.5251929538204
 31
0.0
  0
LINE
  5
19C
330
17
100
AcDbEntity
  8
0
100
AcDbLine
 10
1899.958257767287
 20
1739.5251929538204
 30
0.0
 11
1900.4754573900698
 21
1739.6277352540833
 31
0.0
  0
LINE
  5
19D
330
17
100
AcDbEntity
  8
0
100
AcDbLine
 10
1900.4754573900698
 20
1739.6277352540833
 30
0.0
 11
1900.9835478221155
 21
1739.768641201492
 31
0.0
  0
LINE
  5
19E
330
17
100
AcDbEntity
  8
0
100
AcDbLine
 10
1900.9835478221155
 20
1739.768641201492
 30
0.0
 11
1901.4796876156254
 21
1739.9471227928302
 31
0.0
  0
LINE
  5
19F
330
17
100
AcDbEntity
  8
0
100
AcDbLine
 10
1901.4796876156254
 20
1739.9471227928302
 30
0.0
 11
1901.9611021556211
 21
1740.1621818866392
 31
0.0
  0
LINE
  5
1A0
330
17
100
AcDbEntity
  8
0
100
AcDbLine
 10
1901.9611021556211
 20
1740.1621818866392
 30
0.0
 11
1902.425099176717
 21
1740.4126157852334
 31
0.0
  0
LINE
  5
1A1
330
17
100
AcDbEntity
  8
0
100
AcDbLine
 10
1902.425099176717
 20
1740.4126157852334
 30
0.0
 11
1902.8690838193556
 21
1740.6970239606649
 31
0.0
  0
LINE
  5
1A2
330
17
100
AcDbEntity
  8
0
100
AcDbLine
 10
1902.8690838193556
 20
1740.6970239606649
 30
0.0
 11
1903.2905731413186
 21
1741.0138158870468
 31
0.0
  0
LINE
  5
1A3
330
17
100
AcDbEntity
  8
0
100
AcDbLine
 10
1903.2905731413186
 20
1741.0138158870468
 30
0.0
 11
1903.6872100033447
 21
1741.3612199354293
 31
0.0
  0
LINE
  5
1A4
330
17
100
AcDbEntity
  8
0
100
AcDbLine
 10
1903.6872100033447
 20
1741.3612199354293
 30
0.0
 11
1904.0567762512119
 21
1741.737293281452
 31
0.0
  0
LINE
  5
1A5
330
17
100
AcDbEntity
  8
0
100
AcDbLine
 10
1904.0567762512119
 20
1741.737293281452
 30
0.0
 11
1904.39720512055
 21
1742.1399327704135
 31
0.0
  0
LINE
  5
1A6
330
17
100
AcDbEntity
  8
0
100
AcDbLine
 10
1904.39720512055
 20
1742.1399327704135
 30
0.0
 11
1904.706592795034
 21
1742.566886678965
 31
0.0
  0
LINE
  5
1A7
330
17
100
AcDbEntity
  8
0
100
AcDbLine
 10
1904.706592795034
 20
1742.566886678965
 30
0.0
 11
1904.983209053287
 21
1743.015767307664
 31
0.0
  0
LINE
  5
1A8
330
17
100
AcDbEntity
  8
0
100
AcDbLine
 10
1904.983209053287
 20
1743.015767307664
 30
0.0
 11
1905.2255069449864
 21
1743.4840643339498
 31
0.0
  0
LINE
  5
1A9
330
17
100
AcDbEntity
  8
0
100
AcDbLine
 10
1905.2255069449864
 20
1743.4840643339498
 30
0.0
 11
1905.4321314420383
 21
1743.9691588508954
 31
0.0
  0
LINE
  5
1AA
330
17
100
AcDbEntity
  8
0
100
AcDbLine
 10
1905.4321314420383
 20
1743.9691588508954
 30
0.0
 11
1905.6019270164384
 21
1744.468338013184
 31
0.0
  0
LINE
  5
1AB
330
17
100
AcDbEntity
  8
0
100
AcDbLine
 10
1905.6019270164384
 20
1744.468338013184
 30
0.0
 11
1905.7339441024615
 21
1744.9788102084592
 31
0.0
  0
LINE
  5
1AC
330
17
100
AcDbEntity
  8
0
100
AcDbLine
 10
1905.7339441024615
 20
1744.9788102084592
 30
0.0
 11
1905.82744440701
 21
1745.497720669135
 31
0.0
  0
LINE
  5
1AD
330
17
100
AcDbEntity
  8
0
100
AcDbLine
 10
1905.82744440701
 20
1745.497720669135
 30
0.0
 11
1905.8819050384543
 21
1746.0221674374284
 31
0.0
  0
LINE
  5
1AE
330
17
100
AcDbEntity
  8
0
100
AcDbLine
 10
1905.8819050384543
 20
1746.0221674374284
 30
0.0
 11
1905.897021430851
 21
1746.5492175942748
 31
0.0
  0
LINE
  5
1AF
330
17
100
AcDbEntity
  8
0
100
AcDbLine
 10
292.82905823012214
 20
755.6633393108045
 30
0.0
 11
292.80474584647453
 21
756.1900453779347
 31
0.0
  0
LINE
  5
1B0
330
17
100
AcDbEntity
  8
0
100
AcDbLine
 10
292.80474584647453
 20
756.1900453779347
 30
0.0
 11
292.74114065149354
 21
756.7134618013699
 31
0.0
  0
LINE
  5
1B1
330
17
100
AcDbEntity
  8
0
100
AcDbLine
 10
292.74114065149354
 20
756.7134618013699
 30
0.0
 11
292.6385983512298
 21
757.2306614241538
 31
0.0
  0
LINE
  5
1B2
330
17
100
AcDbEntity
  8
0
100
AcDbLine
 10
292.6385983512298
 20
757.2306614241538
 30
0.0
 11
292.4976924038218
 21
757.7387518561991
 31
0.0
  0
LINE
  5
1B3
330
17
100
AcDbEntity
  8
0
100
AcDbLine
 10
292.4976924038218
 20
757.7387518561991
 30
0.0
 11
292.31921081248396
 21
758.234891649708
 31
0.0
  0
LINE
  5
1B4
330
17
100
AcDbEntity
  8
0
100
AcDbLine
 10
292.31921081248396
 20
758.234891649708
 30
0.0
 11
292.1041517186741
 21
758.7163061897052
 31
0.0
  0
LINE
  5
1B5
330
17
100
AcDbEntity
  8
0
100
AcDbLine
 10
292.1041517186741
 20
758.7163061897052
 30
0.0
 11
291.8537178200807
 21
759.1803032108008
 31
0.0
  0
LINE
  5
1B6
330
17
100
AcDbEntity
  8
0
100
AcDbLine
 10
291.8537178200807
 20
759.1803032108008
 30
0.0
 11
291.5693096446502
 21
759.6242878534396
 31
0.0
  0
LINE
  5
1B7
330
17
100
AcDbEntity
  8
0
100
AcDbLine
 10
291.5693096446502
 20
759.6242878534396
 30
0.0
 11
291.2525177182662
 21
760.0457771754016
 31
0.0
  0
LINE
  5
1B8
330
17
100
AcDbEntity
  8
0
100
AcDbLine
 10
291.2525177182662
 20
760.0457771754016
 30
0.0
 11
290.90511366988375
 21
760.4424140374286
 31
0.0
  0
LINE
  5
1B9
330
17
100
AcDbEntity
  8
0
100
AcDbLine
 10
290.90511366988375
 20
760.4424140374286
 30
0.0
 11
290.5290403238616
 21
760.811980285295
 31
0.0
  0
LINE
  5
1BA
330
17
100
AcDbEntity
  8
0
100
AcDbLine
 10
290.5290403238616
 20
760.811980285295
 30
0.0
 11
290.1264008349003
 21
761.152409154634
 31
0.0
  0
LINE
  5
1BB
330
17
100
AcDbEntity
  8
0
100
AcDbLine
 10
290.1264008349003
 20
761.152409154634
 30
0.0
 11
289.6994469263477
 21
761.4617968291177
 31
0.0
  0
LINE
  5
1BC
330
17
100
AcDbEntity
  8
0
100
AcDbLine
 10
289.6994469263477
 20
761.4617968291177
 30
0.0
 11
289.250566297649
 21
761.7384130873689
 31
0.0
  0
LINE
  5
1BD
330
17
100
AcDbEntity
  8
0
100
AcDbLine
 10
289.250566297649
 20
761.7384130873689
 30
0.0
 11
288.78226927136296
 21
761.9807109790693
 31
0.0
  0
LINE
  5
1BE
330
17
100
AcDbEntity
  8
0
100
AcDbLine
 10
288.78226927136296
 20
761.9807109790693
 30
0.0
 11
288.2971747544194
 21
762.187335476121
 31
0.0
  0
LINE
  5
1BF
330
17
100
AcDbEntity
  8
0
100
AcDbLine
 10
288.2971747544194
 20
762.187335476121
 30
0.0
 11
287.79799559212944
 21
762.3571310505224
 31
0.0
  0
LINE
  5
1C0
330
17
100
AcDbEntity
  8
0
100
AcDbLine
 10
287.79799559212944
 20
762.3571310505224
 30
0.0
 11
287.2875233968547
 21
762.4891481365453
 31
0.0
  0
LINE
  5
1C1
330
17
100
AcDbEntity
  8
0
100
AcDbLine
 10
287.2875233968547
 20
762.4891481365453
 30
0.0
 11
286.76861293617793
 21
762.5826484410937
 31
0.0
  0
LINE
  5
1C2
330
17
100
AcDbEntity
  8
0
100
AcDbLine
 10
286.76861293617793
 20
762.5826484410937
 30
0.0
 11
286.2441661678847
 21
762.6371090725382
 31
0.0
  0
LINE
  5
1C3
330
17
100
AcDbEntity
  8
0
100
AcDbLine
 10
286.2441661678847
 20
762.6371090725382
 30
0.0
 11
285.7171160110386
 21
762.6522254649353
 31
0.0
  0
LINE
  5
1C4
330
17
100
AcDbEntity
  8
0
100
AcDbLine
 10
285.7171160110386
 20
762.6522254649353
 30
0.0
 11
285.1904099439083
 21
762.6279130812879
 31
0.0
  0
LINE
  5
1C5
330
17
100
AcDbEntity
  8
0
100
AcDbLine
 10
285.1904099439083
 20
762.6279130812879
 30
0.0
 11
284.6669935204729
 21
762.5643078863063
 31
0.0
  0
LINE
  5
1C6
330
17
100
AcDbEntity
  8
0
100
AcDbLine
 10
284.6669935204729
 20
762.5643078863063
 30
0.0
 11
284.1497938976895
 21
762.4617655860429
 31
0.0
  0
LINE
  5
1C7
330
17
100
AcDbEntity
  8
0
100
AcDbLine
 10
284.1497938976895
 20
762.4617655860429
 30
0.0
 11
283.64170346564464
 21
762.3208596386346
 31
0.0
  0
LINE
  5
1C8
330
17
100
AcDbEntity
  8
0
100
AcDbLine
 10
283.64170346564464
 20
762.3208596386346
 30
0.0
 11
283.1455636721347
 21
762.1423780472967
 31
0.0
  0
LINE
  5
1C9
330
17
100
AcDbEntity
  8
0
100
AcDbLine
 10
283.1455636721347
 20
762.1423780472967
 30
0.0
 11
282.6641491321381
 21
761.9273189534862
 31
0.0
  0
LINE
  5
1CA
330
17
100
AcDbEntity
  8
0
100
AcDbLine
 10
282.6641491321381
 20
761.9273189534862
 30
0.0
 11
282.20015211104226
 21
761.6768850548924
 31
0.0
  0
LINE
  5
1CB
330
17
100
AcDbEntity
  8
0
100
AcDbLine
 10
282.20015211104226
 20
761.6768850548924
 30
0.0
 11
281.75616746840376
 21
761.3924768794632
 31
0.0
  0
LINE
  5
1CC
330
17
100
AcDbEntity
  8
0
100
AcDbLine
 10
281.75616746840376
 20
761.3924768794632
 30
0.0
 11
281.3346781464412
 21
761.0756849530787
 31
0.0
  0
LINE
  5
1CD
330
17
100
AcDbEntity
  8
0
100
AcDbLine
 10
281.3346781464412
 20
761.0756849530787
 30
0.0
 11
280.93804128441485
 21
760.7282809046965
 31
0.0
  0
LINE
  5
1CE
330
17
100
AcDbEntity
  8
0
100
AcDbLine
 10
280.93804128441485
 20
760.7282809046965
 30
0.0
 11
280.56847503654814
 21
760.3522075586748
 31
0.0
  0
LINE
  5
1CF
330
17
100
AcDbEntity
  8
0
100
AcDbLine
 10
280.56847503654814
 20
760.3522075586748
 30
0.0
 11
280.2280461672091
 21
759.9495680697125
 31
0.0
  0
LINE
  5
1D0
330
17
100
AcDbEntity
  8
0
100
AcDbLine
 10
280.2280461672091
 20
759.9495680697125
 30
0.0
 11
279.9186584927258
 21
759.5226141611604
 31
0.0
  0
LINE
  5
1D1
330
17
100
AcDbEntity
  8
0
100
AcDbLine
 10
279.9186584927258
 20
759.5226141611604
 30
0.0
 11
279.6420422344732
 21
759.0737335324616
 31
0.0
  0
LINE
  5
1D2
330
17
100
AcDbEntity
  8
0
100
AcDbLine
 10
279.6420422344732
 20
759.0737335324616
 30
0.0
 11
279.3997443427734
 21
758.6054365061758
 31
0.0
  0
LINE
  5
1D3
330
17
100
AcDbEntity
  8
0
100
AcDbLine
 10
279.3997443427734
 20
758.6054365061758
 30
0.0
 11
279.1931198457219
 21
758.1203419892315
 31
0.0
  0
LINE
  5
1D4
330
17
100
AcDbEntity
  8
0
100
AcDbLine
 10
279.1931198457219
 20
758.1203419892315
 30
0.0
 11
279.02332427132103
 21
757.6211628269429
 31
0.0
  0
LINE
  5
1D5
330
17
100
AcDbEntity
  8
0
100
AcDbLine
 10
279.02332427132103
 20
757.6211628269429
 30
0.0
 11
278.8913071852983
 21
757.1106906316676
 31
0.0
  0
LINE
  5
1D6
330
17
100
AcDbEntity
  8
0
100
AcDbLine
 10
278.8913071852983
 20
757.1106906316676
 30
0.0
 11
278.7978068807497
 21
756.5917801709902
 31
0.0
  0
LINE
  5
1D7
330
17
100
AcDbEntity
  8
0
100
AcDbLine
 10
278.7978068807497
 20
756.5917801709902
 30
0.0
 11
278.7433462493055
 21
756.0673334026972
 31
0.0
  0
LINE
  5
1D8
330
17
100
AcDbEntity
  8
0
100
AcDbLine
 10
278.7433462493055
 20
756.0673334026972
 30
0.0
 11
278.7282298569084
 21
755.5402832458512
 31
0.0
  0
LINE
  5
1D9
330
17
100
AcDbEntity
  8
0
100
AcDbLine
 10
278.7282298569084
 20
755.5402832458512
 30
0.0
 11
278.75254224055584
 21
755.0135771787219
 31
0.0
  0
LINE
  5
1DA
330
17
100
AcDbEntity
  8
0
100
AcDbLine
 10
278.75254224055584
 20
755.0135771787219
 30
0.0
 11
278.81614743553706
 21
754.4901607552854
 31
0.0
  0
LINE
  5
1DB
330
17
100
AcDbEntity
  8
0
100
AcDbLine
 10
278.81614743553706
 20
754.4901607552854
 30
0.0
 11
278.9186897358007
 21
753.9729611325015
 31
0.0
  0
LINE
  5
1DC
330
17
100
AcDbEntity
  8
0
100
AcDbLine
 10
278.9186897358007
 20
753.9729611325015
 30
0.0
 11
279.05959568320867
 21
753.4648707004574
 31
0.0
  0
LINE
  5
1DD
330
17
100
AcDbEntity
  8
0
100
AcDbLine
 10
279.05959568320867
 20
753.4648707004574
 30
0.0
 11
279.2380772745464
 21
752.9687309069473
 31
0.0
  0
LINE
  5
1DE
330
17
100
AcDbEntity
  8
0
100
AcDbLine
 10
279.2380772745464
 20
752.9687309069473
 30
0.0
 11
279.4531363683564
 21
752.4873163669513
 31
0.0
  0
LINE
  5
1DF
330
17
100
AcDbEntity
  8
0
100
AcDbLine
 10
279.4531363683564
 20
752.4873163669513
 30
0.0
 11
279.7035702669498
 21
752.0233193458544
 31
0.0
  0
LINE
  5
1E0
330
17
100
AcDbEntity
  8
0
100
AcDbLine
 10
279.7035702669498
 20
752.0233193458544
 30
0.0
 11
279.98797844238027
 21
751.579334703217
 31
0.0
  0
LINE
  5
1E1
330
17
100
AcDbEntity
  8
0
100
AcDbLine
 10
279.98797844238027
 20
751.579334703217
 30
0.0
 11
280.3047703687643
 21
751.1578453812541
 31
0.0
  0
LINE
  5
1E2
330
17
100
AcDbEntity
  8
0
100
AcDbLine
 10
280.3047703687643
 20
751.1578453812541
 30
0.0
 11
280.6521744171467
 21
750.7612085192279
 31
0.0
  0
LINE
  5
1E3
330
17
100
AcDbEntity
  8
0
100
AcDbLine
 10
280.6521744171467
 20
750.7612085192279
 30
0.0
 11
281.0282477631688
 21
750.3916422713609
 31
0.0
  0
LINE
  5
1E4
330
17
100
AcDbEntity
  8
0
100
AcDbLine
 10
281.0282477631688
 20
750.3916422713609
 30
0.0
 11
281.4308872521303
 21
750.0512134020212
 31
0.0
  0
LINE
  5
1E5
330
17
100
AcDbEntity
  8
0
100
AcDbLine
 10
281.4308872521303
 20
750.0512134020212
 30
0.0
 11
281.8578411606829
 21
749.7418257275388
 31
0.0
  0
LINE
  5
1E6
330
17
100
AcDbEntity
  8
0
100
AcDbLine
 10
281.8578411606829
 20
749.7418257275388
 30
0.0
 11
282.30672178938136
 21
749.4652094692863
 31
0.0
  0
LINE
  5
1E7
330
17
100
AcDbEntity
  8
0
100
AcDbLine
 10
282.30672178938136
 20
749.4652094692863
 30
0.0
 11
282.7750188156675
 21
749.222911577586
 31
0.0
  0
LINE
  5
1E8
330
17
100
AcDbEntity
  8
0
100
AcDbLine
 10
282.7750188156675
 20
749.222911577586
 30
0.0
 11
283.26011333261107
 21
749.0162870805353
 31
0.0
  0
LINE
  5
1E9
330
17
100
AcDbEntity
  8
0
100
AcDbLine
 10
283.26011333261107
 20
749.0162870805353
 30
0.0
 11
283.75929249490093
 21
748.8464915061343
 31
0.0
  0
LINE
  5
1EA
330
17
100
AcDbEntity
  8
0
100
AcDbLine
 10
283.75929249490093
 20
748.8464915061343
 30
0.0
 11
284.2697646901757
 21
748.7144744201104
 31
0.0
  0
LINE
  5
1EB
330
17
100
AcDbEntity
  8
0
100
AcDbLine
 10
284.2697646901757
 20
748.7144744201104
 30
0.0
 11
284.78867515085255
 21
748.6209741155626
 31
0.0
  0
LINE
  5
1EC
330
17
100
AcDbEntity
  8
0
100
AcDbLine
 10
284.78867515085255
 20
748.6209741155626
 30
0.0
 11
285.3131219191459
 21
748.5665134841171
 31
0.0
  0
LINE
  5
1ED
330
17
100
AcDbEntity
  8
0
100
AcDbLine
 10
285.3131219191459
 20
748.5665134841171
 30
0.0
 11
285.84017207599186
 21
748.5513970917215
 31
0.0
  0
LINE
  5
1EE
330
17
100
AcDbEntity
  8
0
100
AcDbLine
 10
285.84017207599186
 20
748.5513970917215
 30
0.0
 11
286.3668781431223
 21
748.5757094753674
 31
0.0
  0
LINE
  5
1EF
330
17
100
AcDbEntity
  8
0
100
AcDbLine
 10
286.3668781431223
 20
748.5757094753674
 30
0.0
 11
286.8902945665576
 21
748.6393146703501
 31
0.0
  0
LINE
  5
1F0
330
17
100
AcDbEntity
  8
0
100
AcDbLine
 10
286.8902945665576
 20
748.6393146703501
 30
0.0
 11
287.40749418934087
 21
748.7418569706128
 31
0.0
  0
LINE
  5
1F1
330
17
100
AcDbEntity
  8
0
100
AcDbLine
 10
287.40749418934087
 20
748.7418569706128
 30
0.0
 11
287.91558462138573
 21
748.882762918022
 31
0.0
  0
LINE
  5
1F2
330
17
100
AcDbEntity
  8
0
100
AcDbLine
 10
287.91558462138573
 20
748.882762918022
 30
0.0
 11
288.4117244148958
 21
749.0612445093598
 31
0.0
  0
LINE
  5
1F3
330
17
100
AcDbEntity
  8
0
100
AcDbLine
 10
288.4117244148958
 20
749.0612445093598
 30
0.0
 11
288.8931389548924
 21
749.276303603169
 31
0.0
  0
LINE
  5
1F4
330
17
100
AcDbEntity
  8
0
100
AcDbLine
 10
288.8931389548924
 20
749.276303603169
 30
0.0
 11
289.35713597598823
 21
749.5267375017629
 31
0.0
  0
LINE
  5
1F5
330
17
100
AcDbEntity
  8
0
100
AcDbLine
 10
289.35713597598823
 20
749.5267375017629
 30
0.0
 11
289.80112061862684
 21
749.8111456771933
 31
0.0
  0
LINE
  5
1F6
330
17
100
AcDbEntity
  8
0
100
AcDbLine
 10
289.80112061862684
 20
749.8111456771933
 30
0.0
 11
290.2226099405894
 21
750.1279376035766
 31
0.0
  0
LINE
  5
1F7
330
17
100
AcDbEntity
  8
0
100
AcDbLine
 10
290.2226099405894
 20
750.1279376035766
 30
0.0
 11
290.6192468026155
 21
750.4753416519594
 31
0.0
  0
LINE
  5
1F8
330
17
100
AcDbEntity
  8
0
100
AcDbLine
 10
290.6192468026155
 20
750.4753416519594
 30
0.0
 11
290.9888130504823
 21
750.8514149979819
 31
0.0
  0
LINE
  5
1F9
330
17
100
AcDbEntity
  8
0
100
AcDbLine
 10
290.9888130504823
 20
750.8514149979819
 30
0.0
 11
291.3292419198214
 21
751.2540544869432
 31
0.0
  0
LINE
  5
1FA
330
17
100
AcDbEntity
  8
0
100
AcDbLine
 10
291.3292419198214
 20
751.2540544869432
 30
0.0
 11
291.6386295943047
 21
751.6810083954963
 31
0.0
  0
LINE
  5
1FB
330
17
100
AcDbEntity
  8
0
100
AcDbLine
 10
291.6386295943047
 20
751.6810083954963
 30
0.0
 11
291.9152458525573
 21
752.1298890241937
 31
0.0
  0
LINE
  5
1FC
330
17
100
AcDbEntity
  8
0
100
AcDbLine
 10
291.9152458525573
 20
752.1298890241937
 30
0.0
 11
292.1575437442571
 21
752.5981860504805
 31
0.0
  0
LINE
  5
1FD
330
17
100
AcDbEntity
  8
0
100
AcDbLine
 10
292.1575437442571
 20
752.5981860504805
 30
0.0
 11
292.36416824130845
 21
753.0832805674238
 31
0.0
  0
LINE
  5
1FE
330
17
100
AcDbEntity
  8
0
100
AcDbLine
 10
292.36416824130845
 20
753.0832805674238
 30
0.0
 11
292.53396381570946
 21
753.5824597297136
 31
0.0
  0
LINE
  5
1FF
330
17
100
AcDbEntity
  8
0
100
AcDbLine
 10
292.53396381570946
 20
753.5824597297136
 30
0.0
 11
292.6659809017322
 21
754.0929319249876
 31
0.0
  0
LINE
  5
200
330
17
100
AcDbEntity
  8
0
100
AcDbLine
 10
292.6659809017322
 20
754.0929319249876
 30
0.0
 11
292.7594812062809
 21
754.611842385665
 31
0.0
  0
LINE
  5
201
330
17
100
AcDbEntity
  8
0
100
AcDbLine
 10
292.7594812062809
 20
754.611842385665
 30
0.0
 11
292.8139418377249
 21
755.1362891539595
 31
0.0
  0
LINE
  5
202
330
17
100
AcDbEntity
  8
0
100
AcDbLine
 10
292.8139418377249
 20
755.1362891539595
 30
0.0
 11
292.82905823012214
 21
755.6633393108045
 31
0.0
  0
LINE
  5
203
330
17
100
AcDbEntity
  8
0
100
AcDbLine
 10
1162.1877161332166
 20
1664.1238034953262
 30
0.0
 11
1160.6353034737333
 21
1665.6217337301932
 31
0.0
  0
LINE
  5
204
330
17
100
AcDbEntity
  8
0
100
AcDbLine
 10
1160.6353034737333
 20
1665.6217337301932
 30
0.0
 11
1159.0557914748051
 21
1667.091060752709
 31
0.0
  0
LINE
  5
205
330
17
100
AcDbEntity
  8
0
100
AcDbLine
 10
1159.0557914748051
 20
1667.091060752709
 30
0.0
 11
1157.449707067381
 21
1668.531294390034
 31
0.0
  0
LINE
  5
206
330
17
100
AcDbEntity
  8
0
100
AcDbLine
 10
1157.449707067381
 20
1668.531294390034
 30
0.0
 11
1155.8175860470615
 21
1669.941954174987
 31
0.0
  0
LINE
  5
207
330
17
100
AcDbEntity
  8
0
100
AcDbLine
 10
1155.8175860470615
 20
1669.941954174987
 30
0.0
 11
1154.1599728953565
 21
1671.322569506333
 31
0.0
  0
LINE
  5
208
330
17
100
AcDbEntity
  8
0
100
AcDbLine
 10
1154.1599728953565
 20
1671.322569506333
 30
0.0
 11
1152.4774205980427
 21
1672.672679805774
 31
0.0
  0
LINE
  5
209
330
17
100
AcDbEntity
  8
0
100
AcDbLine
 10
1152.4774205980427
 20
1672.672679805774
 30
0.0
 11
1150.7704904606887
 21
1673.991834671605
 31
0.0
  0
LINE
  5
20A
330
17
100
AcDbEntity
  8
0
100
AcDbLine
 10
1150.7704904606887
 20
1673.991834671605
 30
0.0
 11
1149.0397519213955
 21
1675.279594028962
 31
0.0
  0
LINE
  5
20B
330
17
100
AcDbEntity
  8
0
100
AcDbLine
 10
1149.0397519213955
 20
1675.279594028962
 30
0.0
 11
1147.2857823608376
 21
1676.5355282766377
 31
0.0
  0
LINE
  5
20C
330
17
100
AcDbEntity
  8
0
100
AcDbLine
 10
1147.2857823608376
 20
1676.5355282766377
 30
0.0
 11
1145.50916690964
 21
1677.759218430403
 31
0.0
  0
LINE
  5
20D
330
17
100
AcDbEntity
  8
0
100
AcDbLine
 10
1145.50916690964
 20
1677.759218430403
 30
0.0
 11
1143.7104982531803
 21
1678.9502562627663
 31
0.0
  0
LINE
  5
20E
330
17
100
AcDbEntity
  8
0
100
AcDbLine
 10
1143.7104982531803
 20
1678.9502562627663
 30
0.0
 11
1141.890376433865
 21
1680.1082444391768
 31
0.0
  0
LINE
  5
20F
330
17
100
AcDbEntity
  8
0
100
AcDbLine
 10
1141.890376433865
 20
1680.1082444391768
 30
0.0
 11
1140.049408650955
 21
1681.2327966505645
 31
0.0
  0
LINE
  5
210
330
17
100
AcDbEntity
  8
0
100
AcDbLine
 10
1140.049408650955
 20
1681.2327966505645
 30
0.0
 11
1138.1882090579986
 21
1682.3235377422245
 31
0.0
  0
LINE
  5
211
330
17
100
AcDbEntity
  8
0
100
AcDbLine
 10
1138.1882090579986
 20
1682.3235377422245
 30
0.0
 11
1136.3073985579508
 21
1683.3801038389563
 31
0.0
  0
LINE
  5
212
330
17
100
AcDbEntity
  8
0
100
AcDbLine
 10
1136.3073985579508
 20
1683.3801038389563
 30
0.0
 11
1134.4076045960371
 21
1684.402142466468
 31
0.0
  0
LINE
  5
213
330
17
100
AcDbEntity
  8
0
100
AcDbLine
 10
1134.4076045960371
 20
1684.402142466468
 30
0.0
 11
1132.4894609504333
 21
1685.3893126689566
 31
0.0
  0
LINE
  5
214
330
17
100
AcDbEntity
  8
0
100
AcDbLine
 10
1132.4894609504333
 20
1685.3893126689566
 30
0.0
 11
1130.5536075208374
 21
1686.3412851228527
 31
0.0
  0
LINE
  5
215
330
17
100
AcDbEntity
  8
0
100
AcDbLine
 10
1130.5536075208374
 20
1686.3412851228527
 30
0.0
 11
1128.6006901149958
 21
1687.2577422466788
 31
0.0
  0
LINE
  5
216
330
17
100
AcDbEntity
  8
0
100
AcDbLine
 10
1128.6006901149958
 20
1687.2577422466788
 30
0.0
 11
1126.6313602332589
 21
1688.138378307008
 31
0.0
  0
LINE
  5
217
330
17
100
AcDbEntity
  8
0
100
AcDbLine
 10
1126.6313602332589
 20
1688.138378307008
 30
0.0
 11
1124.6462748512395
 21
1688.982899520444
 31
0.0
  0
LINE
  5
218
330
17
100
AcDbEntity
  8
0
100
AcDbLine
 10
1124.6462748512395
 20
1688.982899520444
 30
0.0
 11
1122.6460962006422
 21
1689.791024151641
 31
0.0
  0
LINE
  5
219
330
17
100
AcDbEntity
  8
0
100
AcDbLine
 10
1122.6460962006422
 20
1689.791024151641
 30
0.0
 11
1120.6314915483401
 21
1690.5624826072813
 31
0.0
  0
LINE
  5
21A
330
17
100
AcDbEntity
  8
0
100
AcDbLine
 10
1120.6314915483401
 20
1690.5624826072813
 30
0.0
 11
1118.6031329737752
 21
1691.297017526017
 31
0.0
  0
LINE
  5
21B
330
17
100
AcDbEntity
  8
0
100
AcDbLine
 10
1118.6031329737752
 20
1691.297017526017
 30
0.0
 11
1116.5616971447462
 21
1691.9943838643273
 31
0.0
  0
LINE
  5
21C
330
17
100
AcDbEntity
  8
0
100
AcDbLine
 10
1116.5616971447462
 20
1691.9943838643273
 30
0.0
 11
1114.5078650916716
 21
1692.6543489782653
 31
0.0
  0
LINE
  5
21D
330
17
100
AcDbEntity
  8
0
100
AcDbLine
 10
1114.5078650916716
 20
1692.6543489782653
 30
0.0
 11
1112.4423219803955
 21
1693.2766927010684
 31
0.0
  0
LINE
  5
21E
330
17
100
AcDbEntity
  8
0
100
AcDbLine
 10
1112.4423219803955
 20
1693.2766927010684
 30
0.0
 11
1110.3657568836131
 21
1693.861207416606
 31
0.0
  0
LINE
  5
21F
330
17
100
AcDbEntity
  8
0
100
AcDbLine
 10
1110.3657568836131
 20
1693.861207416606
 30
0.0
 11
1108.278862550996
 21
1694.4076981286432
 31
0.0
  0
LINE
  5
220
330
17
100
AcDbEntity
  8
0
100
AcDbLine
 10
1108.278862550996
 20
1694.4076981286432
 30
0.0
 11
1106.1823351780847
 21
1694.9159825258907
 31
0.0
  0
LINE
  5
221
330
17
100
AcDbEntity
  8
0
100
AcDbLine
 10
1106.1823351780847
 20
1694.9159825258907
 30
0.0
 11
1104.076874174037
 21
1695.3858910428235
 31
0.0
  0
LINE
  5
222
330
17
100
AcDbEntity
  8
0
100
AcDbLine
 10
1104.076874174037
 20
1695.3858910428235
 30
0.0
 11
1101.9631819283022
 21
1695.8172669162523
 31
0.0
  0
LINE
  5
223
330
17
100
AcDbEntity
  8
0
100
AcDbLine
 10
1101.9631819283022
 20
1695.8172669162523
 30
0.0
 11
1099.8419635763046
 21
1696.209966237616
 31
0.0
  0
LINE
  5
224
330
17
100
AcDbEntity
  8
0
100
AcDbLine
 10
1099.8419635763046
 20
1696.209966237616
 30
0.0
 11
1097.7139267642008
 21
1696.5638580009927
 31
0.0
  0
LINE
  5
225
330
17
100
AcDbEntity
  8
0
100
AcDbLine
 10
1097.7139267642008
 20
1696.5638580009927
 30
0.0
 11
1095.579781412814
 21
1696.878824146801
 31
0.0
  0
LINE
  5
226
330
17
100
AcDbEntity
  8
0
100
AcDbLine
 10
1095.579781412814
 20
1696.878824146801
 30
0.0
 11
1093.4402394807962
 21
1697.1547596011924
 31
0.0
  0
LINE
  5
227
330
17
100
AcDbEntity
  8
0
100
AcDbLine
 10
1093.4402394807962
 20
1697.1547596011924
 30
0.0
 11
1091.2960147271187
 21
1697.3915723110922
 31
0.0
  0
LINE
  5
228
330
17
100
AcDbEntity
  8
0
100
AcDbLine
 10
1091.2960147271187
 20
1697.3915723110922
 30
0.0
 11
1089.1478224729601
 21
1697.5891832749207
 31
0.0
  0
LINE
  5
229
330
17
100
AcDbEntity
  8
0
100
AcDbLine
 10
1089.1478224729601
 20
1697.5891832749207
 30
0.0
 11
1086.9963793630707
 21
1697.747526568941
 31
0.0
  0
LINE
  5
22A
330
17
100
AcDbEntity
  8
0
100
AcDbLine
 10
1086.9963793630707
 20
1697.747526568941
 30
0.0
 11
1084.8424031266977
 21
1697.8665493692536
 31
0.0
  0
LINE
  5
22B
330
17
100
AcDbEntity
  8
0
100
AcDbLine
 10
1084.8424031266977
 20
1697.8665493692536
 30
0.0
 11
1082.6866123381496
 21
1697.9462119694203
 31
0.0
  0
LINE
  5
22C
330
17
100
AcDbEntity
  8
0
100
AcDbLine
 10
1082.6866123381496
 20
1697.9462119694203
 30
0.0
 11
1080.5297261770766
 21
1697.9864877937075
 31
0.0
  0
LINE
  5
22D
330
17
100
AcDbEntity
  8
0
100
AcDbLine
 10
1080.5297261770766
 20
1697.9864877937075
 30
0.0
 11
1078.3724641885465
 21
1697.9873634059536
 31
0.0
  0
LINE
  5
22E
330
17
100
AcDbEntity
  8
0
100
AcDbLine
 10
1164.599538148909
 20
1387.7563743649912
 30
0.0
 11
1163.0471254894258
 21
1389.254304599858
 31
0.0
  0
LINE
  5
22F
330
17
100
AcDbEntity
  8
0
100
AcDbLine
 10
1163.0471254894258
 20
1389.254304599858
 30
0.0
 11
1161.4676134904976
 21
1390.7236316223737
 31
0.0
  0
LINE
  5
230
330
17
100
AcDbEntity
  8
0
100
AcDbLine
 10
1161.4676134904976
 20
1390.7236316223737
 30
0.0
 11
1159.8615290830733
 21
1392.1638652596987
 31
0.0
  0
LINE
  5
231
330
17
100
AcDbEntity
  8
0
100
AcDbLine
 10
1159.8615290830733
 20
1392.1638652596987
 30
0.0
 11
1158.229408062754
 21
1393.5745250446516
 31
0.0
  0
LINE
  5
232
330
17
100
AcDbEntity
  8
0
100
AcDbLine
 10
1158.229408062754
 20
1393.5745250446516
 30
0.0
 11
1156.5717949110488
 21
1394.955140375997
 31
0.0
  0
LINE
  5
233
330
17
100
AcDbEntity
  8
0
100
AcDbLine
 10
1156.5717949110488
 20
1394.955140375997
 30
0.0
 11
1154.889242613735
 21
1396.305250675439
 31
0.0
  0
LINE
  5
234
330
17
100
AcDbEntity
  8
0
100
AcDbLine
 10
1154.889242613735
 20
1396.305250675439
 30
0.0
 11
1153.182312476381
 21
1397.6244055412685
 31
0.0
  0
LINE
  5
235
330
17
100
AcDbEntity
  8
0
100
AcDbLine
 10
1153.182312476381
 20
1397.6244055412685
 30
0.0
 11
1151.4515739370877
 21
1398.9121648986256
 31
0.0
  0
LINE
  5
236
330
17
100
AcDbEntity
  8
0
100
AcDbLine
 10
1151.4515739370877
 20
1398.9121648986256
 30
0.0
 11
1149.69760437653
 21
1400.1680991463024
 31
0.0
  0
LINE
  5
237
330
17
100
AcDbEntity
  8
0
100
AcDbLine
 10
1149.69760437653
 20
1400.1680991463024
 30
0.0
 11
1147.9209889253323
 21
1401.3917893000664
 31
0.0
  0
LINE
  5
238
330
17
100
AcDbEntity
  8
0
100
AcDbLine
 10
1147.9209889253323
 20
1401.3917893000664
 30
0.0
 11
1146.1223202688727
 21
1402.5828271324315
 31
0.0
  0
LINE
  5
239
330
17
100
AcDbEntity
  8
0
100
AcDbLine
 10
1146.1223202688727
 20
1402.5828271324315
 30
0.0
 11
1144.3021984495574
 21
1403.740815308842
 31
0.0
  0
LINE
  5
23A
330
17
100
AcDbEntity
  8
0
100
AcDbLine
 10
1144.3021984495574
 20
1403.740815308842
 30
0.0
 11
1142.4612306666475
 21
1404.8653675202306
 31
0.0
  0
LINE
  5
23B
330
17
100
AcDbEntity
  8
0
100
AcDbLine
 10
1142.4612306666475
 20
1404.8653675202306
 30
0.0
 11
1140.600031073691
 21
1405.956108611888
 31
0.0
  0
LINE
  5
23C
330
17
100
AcDbEntity
  8
0
100
AcDbLine
 10
1140.600031073691
 20
1405.956108611888
 30
0.0
 11
1138.719220573643
 21
1407.01267470862
 31
0.0
  0
LINE
  5
23D
330
17
100
AcDbEntity
  8
0
100
AcDbLine
 10
1138.719220573643
 20
1407.01267470862
 30
0.0
 11
1136.8194266117293
 21
1408.0347133361338
 31
0.0
  0
LINE
  5
23E
330
17
100
AcDbEntity
  8
0
100
AcDbLine
 10
1136.8194266117293
 20
1408.0347133361338
 30
0.0
 11
1134.9012829661258
 21
1409.0218835386213
 31
0.0
  0
LINE
  5
23F
330
17
100
AcDbEntity
  8
0
100
AcDbLine
 10
1134.9012829661258
 20
1409.0218835386213
 30
0.0
 11
1132.9654295365297
 21
1409.9738559925172
 31
0.0
  0
LINE
  5
240
330
17
100
AcDbEntity
  8
0
100
AcDbLine
 10
1132.9654295365297
 20
1409.9738559925172
 30
0.0
 11
1131.0125121306883
 21
1410.8903131163436
 31
0.0
  0
LINE
  5
241
330
17
100
AcDbEntity
  8
0
100
AcDbLine
 10
1131.0125121306883
 20
1410.8903131163436
 30
0.0
 11
1129.0431822489513
 21
1411.7709491766718
 31
0.0
  0
LINE
  5
242
330
17
100
AcDbEntity
  8
0
100
AcDbLine
 10
1129.0431822489513
 20
1411.7709491766718
 30
0.0
 11
1127.0580968669317
 21
1412.6154703901088
 31
0.0
  0
LINE
  5
243
330
17
100
AcDbEntity
  8
0
100
AcDbLine
 10
1127.0580968669317
 20
1412.6154703901088
 30
0.0
 11
1125.0579182163344
 21
1413.423595021306
 31
0.0
  0
LINE
  5
244
330
17
100
AcDbEntity
  8
0
100
AcDbLine
 10
1125.0579182163344
 20
1413.423595021306
 30
0.0
 11
1123.0433135640326
 21
1414.1950534769462
 31
0.0
  0
LINE
  5
245
330
17
100
AcDbEntity
  8
0
100
AcDbLine
 10
1123.0433135640326
 20
1414.1950534769462
 30
0.0
 11
1121.0149549894677
 21
1414.9295883956822
 31
0.0
  0
LINE
  5
246
330
17
100
AcDbEntity
  8
0
100
AcDbLine
 10
1121.0149549894677
 20
1414.9295883956822
 30
0.0
 11
1118.9735191604384
 21
1415.626954733992
 31
0.0
  0
LINE
  5
247
330
17
100
AcDbEntity
  8
0
100
AcDbLine
 10
1118.9735191604384
 20
1415.626954733992
 30
0.0
 11
1116.9196871073639
 21
1416.2869198479302
 31
0.0
  0
LINE
  5
248
330
17
100
AcDbEntity
  8
0
100
AcDbLine
 10
1116.9196871073639
 20
1416.2869198479302
 30
0.0
 11
1114.8541439960877
 21
1416.9092635707332
 31
0.0
  0
LINE
  5
249
330
17
100
AcDbEntity
  8
0
100
AcDbLine
 10
1114.8541439960877
 20
1416.9092635707332
 30
0.0
 11
1112.7775788993056
 21
1417.493778286271
 31
0.0
  0
LINE
  5
24A
330
17
100
AcDbEntity
  8
0
100
AcDbLine
 10
1112.7775788993056
 20
1417.493778286271
 30
0.0
 11
1110.6906845666883
 21
1418.040268998308
 31
0.0
  0
LINE
  5
24B
330
17
100
AcDbEntity
  8
0
100
AcDbLine
 10
1110.6906845666883
 20
1418.040268998308
 30
0.0
 11
1108.594157193777
 21
1418.548553395556
 31
0.0
  0
LINE
  5
24C
330
17
100
AcDbEntity
  8
0
100
AcDbLine
 10
1108.594157193777
 20
1418.548553395556
 30
0.0
 11
1106.4886961897291
 21
1419.0184619124884
 31
0.0
  0
LINE
  5
24D
330
17
100
AcDbEntity
  8
0
100
AcDbLine
 10
1106.4886961897291
 20
1419.0184619124884
 30
0.0
 11
1104.3750039439947
 21
1419.449837785917
 31
0.0
  0
LINE
  5
24E
330
17
100
AcDbEntity
  8
0
100
AcDbLine
 10
1104.3750039439947
 20
1419.449837785917
 30
0.0
 11
1102.2537855919968
 21
1419.8425371072808
 31
0.0
  0
LINE
  5
24F
330
17
100
AcDbEntity
  8
0
100
AcDbLine
 10
1102.2537855919968
 20
1419.8425371072808
 30
0.0
 11
1100.1257487798932
 21
1420.1964288706572
 31
0.0
  0
LINE
  5
250
330
17
100
AcDbEntity
  8
0
100
AcDbLine
 10
1100.1257487798932
 20
1420.1964288706572
 30
0.0
 11
1097.9916034285063
 21
1420.511395016466
 31
0.0
  0
LINE
  5
251
330
17
100
AcDbEntity
  8
0
100
AcDbLine
 10
1097.9916034285063
 20
1420.511395016466
 30
0.0
 11
1095.8520614964884
 21
1420.7873304708562
 31
0.0
  0
LINE
  5
252
330
17
100
AcDbEntity
  8
0
100
AcDbLine
 10
1095.8520614964884
 20
1420.7873304708562
 30
0.0
 11
1093.707836742811
 21
1421.0241431807567
 31
0.0
  0
LINE
  5
253
330
17
100
AcDbEntity
  8
0
100
AcDbLine
 10
1093.707836742811
 20
1421.0241431807567
 30
0.0
 11
1091.5596444886526
 21
1421.2217541445839
 31
0.0
  0
LINE
  5
254
330
17
100
AcDbEntity
  8
0
100
AcDbLine
 10
1091.5596444886526
 20
1421.2217541445839
 30
0.0
 11
1089.4082013787631
 21
1421.3800974386058
 31
0.0
  0
LINE
  5
255
330
17
100
AcDbEntity
  8
0
100
AcDbLine
 10
1089.4082013787631
 20
1421.3800974386058
 30
0.0
 11
1087.25422514239
 21
1421.4991202389174
 31
0.0
  0
LINE
  5
256
330
17
100
AcDbEntity
  8
0
100
AcDbLine
 10
1087.25422514239
 20
1421.4991202389174
 30
0.0
 11
1085.098434353842
 21
1421.5787828390849
 31
0.0
  0
LINE
  5
257
330
17
100
AcDbEntity
  8
0
100
AcDbLine
 10
1085.098434353842
 20
1421.5787828390849
 30
0.0
 11
1082.9415481927688
 21
1421.619058663371
 31
0.0
  0
LINE
  5
258
330
17
100
AcDbEntity
  8
0
100
AcDbLine
 10
1082.9415481927688
 20
1421.619058663371
 30
0.0
 11
1080.7842862042387
 21
1421.6199342756183
 31
0.0
  0
LINE
  5
259
330
17
100
AcDbEntity
  8
0
100
AcDbLine
 10
1346.52219882956
 20
1423.938993906093
 30
0.0
 11
1344.4862977612493
 21
1423.9017232407623
 31
0.0
  0
LINE
  5
25A
330
17
100
AcDbEntity
  8
0
100
AcDbLine
 10
1344.4862977612493
 20
1423.9017232407623
 30
0.0
 11
1342.451484138067
 21
1423.8254619703969
 31
0.0
  0
LINE
  5
25B
330
17
100
AcDbEntity
  8
0
100
AcDbLine
 10
1342.451484138067
 20
1423.8254619703969
 30
0.0
 11
1340.418504620907
 21
1423.7102380785477
 31
0.0
  0
LINE
  5
25C
330
17
100
AcDbEntity
  8
0
100
AcDbLine
 10
1340.418504620907
 20
1423.7102380785477
 30
0.0
 11
1338.3881051976493
 21
1423.556093845831
 31
0.0
  0
LINE
  5
25D
330
17
100
AcDbEntity
  8
0
100
AcDbLine
 10
1338.3881051976493
 20
1423.556093845831
 30
0.0
 11
1336.3610309094272
 21
1423.3630858344131
 31
0.0
  0
LINE
  5
25E
330
17
100
AcDbEntity
  8
0
100
AcDbLine
 10
1336.3610309094272
 20
1423.3630858344131
 30
0.0
 11
1334.3380255772365
 21
1423.1312848672615
 31
0.0
  0
LINE
  5
25F
330
17
100
AcDbEntity
  8
0
100
AcDbLine
 10
1334.3380255772365
 20
1423.1312848672615
 30
0.0
 11
1332.3198315289992
 21
1422.8607760021507
 31
0.0
  0
LINE
  5
260
330
17
100
AcDbEntity
  8
0
100
AcDbLine
 10
1332.3198315289992
 20
1422.8607760021507
 30
0.0
 11
1330.3071893271697
 21
1422.5516585004475
 31
0.0
  0
LINE
  5
261
330
17
100
AcDbEntity
  8
0
100
AcDbLine
 10
1330.3071893271697
 20
1422.5516585004475
 30
0.0
 11
1328.3008374969893
 21
1422.2040457907
 31
0.0
  0
LINE
  5
262
330
17
100
AcDbEntity
  8
0
100
AcDbLine
 10
1328.3008374969893
 20
1422.2040457907
 30
0.0
 11
1326.3015122554916
 21
1421.8180654270097
 31
0.0
  0
LINE
  5
263
330
17
100
AcDbEntity
  8
0
100
AcDbLine
 10
1326.3015122554916
 20
1421.8180654270097
 30
0.0
 11
1324.3099472413521
 21
1421.393859042218
 31
0.0
  0
LINE
  5
264
330
17
100
AcDbEntity
  8
0
100
AcDbLine
 10
1324.3099472413521
 20
1421.393859042218
 30
0.0
 11
1322.3268732456825
 21
1420.9315822959454
 31
0.0
  0
LINE
  5
265
330
17
100
AcDbEntity
  8
0
100
AcDbLine
 10
1322.3268732456825
 20
1420.9315822959454
 30
0.0
 11
1320.3530179438749
 21
1420.4314048174726
 31
0.0
  0
LINE
  5
266
330
17
100
AcDbEntity
  8
0
100
AcDbLine
 10
1320.3530179438749
 20
1420.4314048174726
 30
0.0
 11
1318.3891056285845
 21
1419.8935101434934
 31
0.0
  0
LINE
  5
267
330
17
100
AcDbEntity
  8
0
100
AcDbLine
 10
1318.3891056285845
 20
1419.8935101434934
 30
0.0
 11
1316.435856943956
 21
1419.3180956507667
 31
0.0
  0
LINE
  5
268
330
17
100
AcDbEntity
  8
0
100
AcDbLine
 10
1316.435856943956
 20
1419.3180956507667
 30
0.0
 11
1314.4939886211876
 21
1418.705372483687
 31
0.0
  0
LINE
  5
269
330
17
100
AcDbEntity
  8
0
100
AcDbLine
 10
1314.4939886211876
 20
1418.705372483687
 30
0.0
 11
1312.564213215533
 21
1418.05556547682
 31
0.0
  0
LINE
  5
26A
330
17
100
AcDbEntity
  8
0
100
AcDbLine
 10
1312.564213215533
 20
1418.05556547682
 30
0.0
 11
1310.6472388448312
 21
1417.3689130723837
 31
0.0
  0
LINE
  5
26B
330
17
100
AcDbEntity
  8
0
100
AcDbLine
 10
1310.6472388448312
 20
1417.3689130723837
 30
0.0
 11
1308.7437689296708
 21
1416.645667232768
 31
0.0
  0
LINE
  5
26C
330
17
100
AcDbEntity
  8
0
100
AcDbLine
 10
1308.7437689296708
 20
1416.645667232768
 30
0.0
 11
1306.8545019352719
 21
1415.8860933480657
 31
0.0
  0
LINE
  5
26D
330
17
100
AcDbEntity
  8
0
100
AcDbLine
 10
1306.8545019352719
 20
1415.8860933480657
 30
0.0
 11
1304.9801311151916
 21
1415.090470138703
 31
0.0
  0
LINE
  5
26E
330
17
100
AcDbEntity
  8
0
100
AcDbLine
 10
1304.9801311151916
 20
1415.090470138703
 30
0.0
 11
1303.1213442569372
 21
1414.2590895531562
 31
0.0
  0
LINE
  5
26F
330
17
100
AcDbEntity
  8
0
100
AcDbLine
 10
1303.1213442569372
 20
1414.2590895531562
 30
0.0
 11
1301.2788234295879
 21
1413.3922566608235
 31
0.0
  0
LINE
  5
270
330
17
100
AcDbEntity
  8
0
100
AcDbLine
 10
1301.2788234295879
 20
1413.3922566608235
 30
0.0
 11
1299.4532447335157
 21
1412.490289540085
 31
0.0
  0
LINE
  5
271
330
17
100
AcDbEntity
  8
0
100
AcDbLine
 10
1299.4532447335157
 20
1412.490289540085
 30
0.0
 11
1297.6452780522934
 21
1411.5535191615863
 31
0.0
  0
LINE
  5
272
330
17
100
AcDbEntity
  8
0
100
AcDbLine
 10
1297.6452780522934
 20
1411.5535191615863
 30
0.0
 11
1295.855586806884
 21
1410.5822892667875
 31
0.0
  0
LINE
  5
273
330
17
100
AcDbEntity
  8
0
100
AcDbLine
 10
1295.855586806884
 20
1410.5822892667875
 30
0.0
 11
1294.084827712208
 21
1409.576956241833
 31
0.0
  0
LINE
  5
274
330
17
100
AcDbEntity
  8
0
100
AcDbLine
 10
1294.084827712208
 20
1409.576956241833
 30
0.0
 11
1292.3336505361606
 21
1408.5378889867734
 31
0.0
  0
LINE
  5
275
330
17
100
AcDbEntity
  8
0
100
AcDbLine
 10
1292.3336505361606
 20
1408.5378889867734
 30
0.0
 11
1290.6026978611872
 21
1407.4654687802097
 31
0.0
  0
LINE
  5
276
330
17
100
AcDbEntity
  8
0
100
AcDbLine
 10
1290.6026978611872
 20
1407.4654687802097
 30
0.0
 11
1288.8926048484911
 21
1406.3600891393746
 31
0.0
  0
LINE
  5
277
330
17
100
AcDbEntity
  8
0
100
AcDbLine
 10
1288.8926048484911
 20
1406.3600891393746
 30
0.0
 11
1287.203999004967
 21
1405.2221556757404
 31
0.0
  0
LINE
  5
278
330
17
100
AcDbEntity
  8
0
100
AcDbLine
 10
1287.203999004967
 20
1405.2221556757404
 30
0.0
 11
1285.5374999529377
 21
1404.0520859461808
 31
0.0
  0
LINE
  5
279
330
17
100
AcDbEntity
  8
0
100
AcDbLine
 10
1285.5374999529377
 20
1404.0520859461808
 30
0.0
 11
1283.8937192027936
 21
1402.850309299753
 31
0.0
  0
LINE
  5
27A
330
17
100
AcDbEntity
  8
0
100
AcDbLine
 10
1283.8937192027936
 20
1402.850309299753
 30
0.0
 11
1282.2732599285978
 21
1401.6172667201474
 31
0.0
  0
LINE
  5
27B
330
17
100
AcDbEntity
  8
0
100
AcDbLine
 10
1282.2732599285978
 20
1401.6172667201474
 30
0.0
 11
1280.6767167467594
 21
1400.3534106638785
 31
0.0
  0
LINE
  5
27C
330
17
100
AcDbEntity
  8
0
100
AcDbLine
 10
1280.6767167467594
 20
1400.3534106638785
 30
0.0
 11
1279.1046754978402
 21
1399.059204894249
 31
0.0
  0
LINE
  5
27D
330
17
100
AcDbEntity
  8
0
100
AcDbLine
 10
1279.1046754978402
 20
1399.059204894249
 30
0.0
 11
1277.5577130315876
 21
1397.7351243111834
 31
0.0
  0
LINE
  5
27E
330
17
100
AcDbEntity
  8
0
100
AcDbLine
 10
1277.5577130315876
 20
1397.7351243111834
 30
0.0
 11
1276.0363969952605
 21
1396.3816547769645
 31
0.0
  0
LINE
  5
27F
330
17
100
AcDbEntity
  8
0
100
AcDbLine
 10
1276.0363969952605
 20
1396.3816547769645
 30
0.0
 11
1274.5412856253365
 21
1394.9992929379491
 31
0.0
  0
LINE
  5
280
330
17
100
AcDbEntity
  8
0
100
AcDbLine
 10
1274.5412856253365
 20
1394.9992929379491
 30
0.0
 11
1273.0729275426716
 21
1393.5885460423226
 31
0.0
  0
LINE
  5
281
330
17
100
AcDbEntity
  8
0
100
AcDbLine
 10
1273.0729275426716
 20
1393.5885460423226
 30
0.0
 11
1271.6318615511852
 21
1392.14993175398
 31
0.0
  0
LINE
  5
282
330
17
100
AcDbEntity
  8
0
100
AcDbLine
 10
1169.8513672621807
 20
1163.1383532875032
 30
0.0
 11
1171.1014890546714
 21
1164.4385570412178
 31
0.0
  0
LINE
  5
283
330
17
100
AcDbEntity
  8
0
100
AcDbLine
 10
1171.1014890546714
 20
1164.4385570412178
 30
0.0
 11
1172.3229495566195
 21
1165.7657226448307
 31
0.0
  0
LINE
  5
284
330
17
100
AcDbEntity
  8
0
100
AcDbLine
 10
1172.3229495566195
 20
1165.7657226448307
 30
0.0
 11
1173.515167418981
 21
1167.1192184393926
 31
0.0
  0
LINE
  5
285
330
17
100
AcDbEntity
  8
0
100
AcDbLine
 10
1173.515167418981
 20
1167.1192184393926
 30
0.0
 11
1174.677575210623
 21
1168.4984002342117
 31
0.0
  0
LINE
  5
286
330
17
100
AcDbEntity
  8
0
100
AcDbLine
 10
1174.677575210623
 20
1168.4984002342117
 30
0.0
 11
1175.8096196883928
 21
1169.9026116134492
 31
0.0
  0
LINE
  5
287
330
17
100
AcDbEntity
  8
0
100
AcDbLine
 10
1175.8096196883928
 20
1169.9026116134492
 30
0.0
 11
1176.9107620604304
 21
1171.3311842485423
 31
0.0
  0
LINE
  5
288
330
17
100
AcDbEntity
  8
0
100
AcDbLine
 10
1176.9107620604304
 20
1171.3311842485423
 30
0.0
 11
1177.9804782426038
 21
1172.783438216285
 31
0.0
  0
LINE
  5
289
330
17
100
AcDbEntity
  8
0
100
AcDbLine
 10
1177.9804782426038
 20
1172.783438216285
 30
0.0
 11
1179.0182591079467
 21
1174.2586823224456
 31
0.0
  0
LINE
  5
28A
330
17
100
AcDbEntity
  8
0
100
AcDbLine
 10
1179.0182591079467
 20
1174.2586823224456
 30
0.0
 11
1180.0236107289727
 21
1175.7562144307262
 31
0.0
  0
LINE
  5
28B
330
17
100
AcDbEntity
  8
0
100
AcDbLine
 10
1180.0236107289727
 20
1175.7562144307262
 30
0.0
 11
1180.9960546127604
 21
1177.275321796951
 31
0.0
  0
LINE
  5
28C
330
17
100
AcDbEntity
  8
0
100
AcDbLine
 10
1180.9960546127604
 20
1177.275321796951
 30
0.0
 11
1181.9351279286877
 21
1178.815281408286
 31
0.0
  0
LINE
  5
28D
330
17
100
AcDbEntity
  8
0
100
AcDbLine
 10
1181.9351279286877
 20
1178.815281408286
 30
0.0
 11
1182.8403837287165
 21
1180.3753603273626
 31
0.0
  0
LINE
  5
28E
330
17
100
AcDbEntity
  8
0
100
AcDbLine
 10
1182.8403837287165
 20
1180.3753603273626
 30
0.0
 11
1183.7113911601152
 21
1181.9548160411061
 31
0.0
  0
LINE
  5
28F
330
17
100
AcDbEntity
  8
0
100
AcDbLine
 10
1183.7113911601152
 20
1181.9548160411061
 30
0.0
 11
1184.5477356705192
 21
1183.5528968141427
 31
0.0
  0
LINE
  5
290
330
17
100
AcDbEntity
  8
0
100
AcDbLine
 10
1184.5477356705192
 20
1183.5528968141427
 30
0.0
 11
1185.3490192052384
 21
1185.1688420465757
 31
0.0
  0
LINE
  5
291
330
17
100
AcDbEntity
  8
0
100
AcDbLine
 10
1185.3490192052384
 20
1185.1688420465757
 30
0.0
 11
1186.1148603967072
 21
1186.8018826359908
 31
0.0
  0
LINE
  5
292
330
17
100
AcDbEntity
  8
0
100
AcDbLine
 10
1186.1148603967072
 20
1186.8018826359908
 30
0.0
 11
1186.8448947459963
 21
1188.4512413435164
 31
0.0
  0
LINE
  5
293
330
17
100
AcDbEntity
  8
0
100
AcDbLine
 10
1186.8448947459963
 20
1188.4512413435164
 30
0.0
 11
1187.5387747962943
 21
1190.1161331637345
 31
0.0
  0
LINE
  5
294
330
17
100
AcDbEntity
  8
0
100
AcDbLine
 10
1187.5387747962943
 20
1190.1161331637345
 30
0.0
 11
1188.1961702982776
 21
1191.7957656983097
 31
0.0
  0
LINE
  5
295
330
17
100
AcDbEntity
  8
0
100
AcDbLine
 10
1188.1961702982776
 20
1191.7957656983097
 30
0.0
 11
1188.8167683672914
 21
1193.4893395331248
 31
0.0
  0
LINE
  5
296
330
17
100
AcDbEntity
  8
0
100
AcDbLine
 10
1188.8167683672914
 20
1193.4893395331248
 30
0.0
 11
1189.4002736322661
 21
1195.1960486187568
 31
0.0
  0
LINE
  5
297
330
17
100
AcDbEntity
  8
0
100
AcDbLine
 10
1189.4002736322661
 20
1195.1960486187568
 30
0.0
 11
1189.9464083762991
 21
1196.9150806541147
 31
0.0
  0
LINE
  5
298
330
17
100
AcDbEntity
  8
0
100
AcDbLine
 10
1189.9464083762991
 20
1196.9150806541147
 30
0.0
 11
1190.4549126688305
 21
1198.6456174730556
 31
0.0
  0
LINE
  5
299
330
17
100
AcDbEntity
  8
0
100
AcDbLine
 10
1190.4549126688305
 20
1198.6456174730556
 30
0.0
 11
1190.9255444893563
 21
1200.3868354337778
 31
0.0
  0
LINE
  5
29A
330
17
100
AcDbEntity
  8
0
100
AcDbLine
 10
1190.9255444893563
 20
1200.3868354337778
 30
0.0
 11
1191.3580798426206
 21
1202.1379058108344
 31
0.0
  0
LINE
  5
29B
330
17
100
AcDbEntity
  8
0
100
AcDbLine
 10
1191.3580798426206
 20
1202.1379058108344
 30
0.0
 11
1191.752312865221
 21
1203.8979951895658
 31
0.0
  0
LINE
  5
29C
330
17
100
AcDbEntity
  8
0
100
AcDbLine
 10
1191.752312865221
 20
1203.8979951895658
 30
0.0
 11
1192.1080559235904
 21
1205.6662658627527
 31
0.0
  0
LINE
  5
29D
330
17
100
AcDbEntity
  8
0
100
AcDbLine
 10
1192.1080559235904
 20
1205.6662658627527
 30
0.0
 11
1192.4251397032997
 21
1207.4418762293246
 31
0.0
  0
LINE
  5
29E
330
17
100
AcDbEntity
  8
0
100
AcDbLine
 10
1192.4251397032997
 20
1207.4418762293246
 30
0.0
 11
1192.7034132896426
 21
1209.223981194913
 31
0.0
  0
LINE
  5
29F
330
17
100
AcDbEntity
  8
0
100
AcDbLine
 10
1192.7034132896426
 20
1209.223981194913
 30
0.0
 11
1192.9427442394647
 21
1211.011732574074
 31
0.0
  0
LINE
  5
2A0
330
17
100
AcDbEntity
  8
0
100
AcDbLine
 10
1192.9427442394647
 20
1211.011732574074
 30
0.0
 11
1193.1430186441944
 21
1212.8042794939731
 31
0.0
  0
LINE
  5
2A1
330
17
100
AcDbEntity
  8
0
100
AcDbLine
 10
1193.1430186441944
 20
1212.8042794939731
 30
0.0
 11
1193.304141184063
 21
1214.6007687993617
 31
0.0
  0
LINE
  5
2A2
330
17
100
AcDbEntity
  8
0
100
AcDbLine
 10
1193.304141184063
 20
1214.6007687993617
 30
0.0
 11
1193.426035173467
 21
1216.4003454586286
 31
0.0
  0
LINE
  5
2A3
330
17
100
AcDbEntity
  8
0
100
AcDbLine
 10
1193.426035173467
 20
1216.4003454586286
 30
0.0
 11
1193.5086425974694
 21
1218.202152970748
 31
0.0
  0
LINE
  5
2A4
330
17
100
AcDbEntity
  8
0
100
AcDbLine
 10
1193.5086425974694
 20
1218.202152970748
 30
0.0
 11
1193.5519241394113
 21
1220.005333772931
 31
0.0
  0
LINE
  5
2A5
330
17
100
AcDbEntity
  8
0
100
AcDbLine
 10
1193.5519241394113
 20
1220.005333772931
 30
0.0
 11
1193.5558591996212
 21
1221.8090296487735
 31
0.0
  0
LINE
  5
2A6
330
17
100
AcDbEntity
  8
0
100
AcDbLine
 10
1193.5558591996194
 20
1221.8090296487735
 30
0.0
 11
1193.5943840915215
 21
1219.6521115032347
 31
0.0
  0
LINE
  5
2A7
330
17
100
AcDbEntity
  8
0
100
AcDbLine
 10
1193.5943840915215
 20
1219.6521115032347
 30
0.0
 11
1193.6722966355278
 21
1217.4962567564248
 31
0.0
  0
LINE
  5
2A8
330
17
100
AcDbEntity
  8
0
100
AcDbLine
 10
1193.6722966355278
 20
1217.4962567564248
 30
0.0
 11
1193.78957083973
 21
1215.342184609333
 31
0.0
  0
LINE
  5
2A9
330
17
100
AcDbEntity
  8
0
100
AcDbLine
 10
1193.78957083973
 20
1215.342184609333
 30
0.0
 11
1193.9461675810276
 21
1213.1906136682592
 31
0.0
  0
LINE
  5
2AA
330
17
100
AcDbEntity
  8
0
100
AcDbLine
 10
1193.9461675810276
 20
1213.1906136682592
 30
0.0
 11
1194.1420346181776
 21
1211.0422617050992
 31
0.0
  0
LINE
  5
2AB
330
17
100
AcDbEntity
  8
0
100
AcDbLine
 10
1194.1420346181776
 20
1211.0422617050992
 30
0.0
 11
1194.3771066092238
 21
1208.8978454178841
 31
0.0
  0
LINE
  5
2AC
330
17
100
AcDbEntity
  8
0
100
AcDbLine
 10
1194.3771066092238
 20
1208.8978454178841
 30
0.0
 11
1194.6513051332952
 21
1206.7580801916845
 31
0.0
  0
LINE
  5
2AD
330
17
100
AcDbEntity
  8
0
100
AcDbLine
 10
1194.6513051332952
 20
1206.7580801916845
 30
0.0
 11
1194.9645387167664
 21
1204.6236798599657
 31
0.0
  0
LINE
  5
2AE
330
17
100
AcDbEntity
  8
0
100
AcDbLine
 10
1194.9645387167664
 20
1204.6236798599657
 30
0.0
 11
1195.3167028637752
 21
1202.495356466444
 31
0.0
  0
LINE
  5
2AF
330
17
100
AcDbEntity
  8
0
100
AcDbLine
 10
1195.3167028637752
 20
1202.495356466444
 30
0.0
 11
1195.7076800910797
 21
1200.3738200275434
 31
0.0
  0
LINE
  5
2B0
330
17
100
AcDbEntity
  8
0
100
AcDbLine
 10
1195.7076800910797
 20
1200.3738200275434
 30
0.0
 11
1196.137339967256
 21
1198.2597782955393
 31
0.0
  0
LINE
  5
2B1
330
17
100
AcDbEntity
  8
0
100
AcDbLine
 10
1196.137339967256
 20
1198.2597782955393
 30
0.0
 11
1196.6055391562054
 21
1196.1539365224417
 31
0.0
  0
LINE
  5
2B2
330
17
100
AcDbEntity
  8
0
100
AcDbLine
 10
1196.6055391562054
 20
1196.1539365224417
 30
0.0
 11
1197.1121214649763
 21
1194.0569972247285
 31
0.0
  0
LINE
  5
2B3
330
17
100
AcDbEntity
  8
0
100
AcDbLine
 10
1197.1121214649763
 20
1194.0569972247285
 30
0.0
 11
1197.6569178958669
 21
1191.9696599489776
 31
0.0
  0
LINE
  5
2B4
330
17
100
AcDbEntity
  8
0
100
AcDbLine
 10
1197.6569178958669
 20
1191.9696599489776
 30
0.0
 11
1198.239746702806
 21
1189.8926210384952
 31
0.0
  0
LINE
  5
2B5
330
17
100
AcDbEntity
  8
0
100
AcDbLine
 10
1198.239746702806
 20
1189.8926210384952
 30
0.0
 11
1198.8604134519837
 21
1187.8265734010201
 31
0.0
  0
LINE
  5
2B6
330
17
100
AcDbEntity
  8
0
100
AcDbLine
 10
1198.8604134519837
 20
1187.8265734010201
 30
0.0
 11
1199.518711086715
 21
1185.772206277558
 31
0.0
  0
LINE
  5
2B7
330
17
100
AcDbEntity
  8
0
100
AcDbLine
 10
1199.518711086715
 20
1185.772206277558
 30
0.0
 11
1200.2144199965137
 21
1183.730205012456
 31
0.0
  0
LINE
  5
2B8
330
17
100
AcDbEntity
  8
0
100
AcDbLine
 10
1200.2144199965137
 20
1183.730205012456
 30
0.0
 11
1200.9473080903574
 21
1181.701250824763
 31
0.0
  0
LINE
  5
2B9
330
17
100
AcDbEntity
  8
0
100
AcDbLine
 10
1200.9473080903574
 20
1181.701250824763
 30
0.0
 11
1201.7171308741108
 21
1179.6860205809774
 31
0.0
  0
LINE
  5
2BA
330
17
100
AcDbEntity
  8
0
100
AcDbLine
 10
1201.7171308741108
 20
1179.6860205809774
 30
0.0
 11
1202.5236315320935
 21
1177.6851865692397
 31
0.0
  0
LINE
  5
2BB
330
17
100
AcDbEntity
  8
0
100
AcDbLine
 10
1202.5236315320935
 20
1177.6851865692397
 30
0.0
 11
1203.3665410127524
 21
1175.699416275054
 31
0.0
  0
LINE
  5
2BC
330
17
100
AcDbEntity
  8
0
100
AcDbLine
 10
1203.3665410127524
 20
1175.699416275054
 30
0.0
 11
1204.2455781184183
 21
1173.7293721586152
 31
0.0
  0
LINE
  5
2BD
330
17
100
AcDbEntity
  8
0
100
AcDbLine
 10
1204.2455781184183
 20
1173.7293721586152
 30
0.0
 11
1205.1604495991148
 21
1171.7757114338067
 31
0.0
  0
LINE
  5
2BE
330
17
100
AcDbEntity
  8
0
100
AcDbLine
 10
1205.1604495991148
 20
1171.7757114338067
 30
0.0
 11
1206.1108502503882
 21
1169.8390858489513
 31
0.0
  0
LINE
  5
2BF
330
17
100
AcDbEntity
  8
0
100
AcDbLine
 10
1206.1108502503882
 20
1169.8390858489513
 30
0.0
 11
1207.0964630151234
 21
1167.920141469393
 31
0.0
  0
LINE
  5
2C0
330
17
100
AcDbEntity
  8
0
100
AcDbLine
 10
1207.0964630151234
 20
1167.920141469393
 30
0.0
 11
1208.1169590893176
 21
1166.019518461953
 31
0.0
  0
LINE
  5
2C1
330
17
100
AcDbEntity
  8
0
100
AcDbLine
 10
1208.1169590893176
 20
1166.019518461953
 30
0.0
 11
1209.1719980317673
 21
1164.1378508813848
 31
0.0
  0
LINE
  5
2C2
330
17
100
AcDbEntity
  8
0
100
AcDbLine
 10
1209.1719980317673
 20
1164.1378508813848
 30
0.0
 11
1210.2612278776437
 21
1162.275766458832
 31
0.0
  0
LINE
  5
2C3
330
17
100
AcDbEntity
  8
0
100
AcDbLine
 10
1210.2612278776437
 20
1162.275766458832
 30
0.0
 11
1211.384285255908
 21
1160.4338863924388
 31
0.0
  0
LINE
  5
2C4
330
17
100
AcDbEntity
  8
0
100
AcDbLine
 10
1211.384285255908
 20
1160.4338863924388
 30
0.0
 11
1212.5407955105331
 21
1158.6128251400924
 31
0.0
  0
LINE
  5
2C5
330
17
100
AcDbEntity
  8
0
100
AcDbLine
 10
1212.5407955105331
 20
1158.6128251400924
 30
0.0
 11
1213.7303728254915
 21
1156.8131902144492
 31
0.0
  0
LINE
  5
2C6
330
17
100
AcDbEntity
  8
0
100
AcDbLine
 10
1213.7303728254915
 20
1156.8131902144492
 30
0.0
 11
1214.9526203534629
 21
1155.0355819802717
 31
0.0
  0
LINE
  5
2C7
330
17
100
AcDbEntity
  8
0
100
AcDbLine
 10
1214.9526203534629
 20
1155.0355819802717
 30
0.0
 11
1216.2071303482269
 21
1153.2805934541293
 31
0.0
  0
LINE
  5
2C8
330
17
100
AcDbEntity
  8
0
100
AcDbLine
 10
1216.2071303482269
 20
1153.2805934541293
 30
0.0
 11
1217.4934843006845
 21
1151.5488101065787
 31
0.0
  0
LINE
  5
2C9
330
17
100
AcDbEntity
  8
0
100
AcDbLine
 10
1217.4934843006845
 20
1151.5488101065787
 30
0.0
 11
1218.8112530784783
 21
1149.8408096668481
 31
0.0
  0
LINE
  5
2CA
330
17
100
AcDbEntity
  8
0
100
AcDbLine
 10
1218.8112530784783
 20
1149.8408096668481
 30
0.0
 11
1220.1599970691502
 21
1148.157161930092
 31
0.0
  0
LINE
  5
2CB
330
17
100
AcDbEntity
  8
0
100
AcDbLine
 10
1220.1599970691502
 20
1148.157161930092
 30
0.0
 11
1221.5392663267987
 21
1146.4984285673247
 31
0.0
  0
LINE
  5
2CC
330
17
100
AcDbEntity
  8
0
100
AcDbLine
 10
1221.5392663267987
 20
1146.4984285673247
 30
0.0
 11
1222.9486007221817
 21
1144.8651629380272
 31
0.0
  0
LINE
  5
2CD
330
17
100
AcDbEntity
  8
0
100
AcDbLine
 10
1222.9486007221817
 20
1144.8651629380272
 30
0.0
 11
1224.3875300962186
 21
1143.2579099055563
 31
0.0
  0
LINE
  5
2CE
330
17
100
AcDbEntity
  8
0
100
AcDbLine
 10
1224.3875300962186
 20
1143.2579099055563
 30
0.0
 11
1225.8555744168352
 21
1141.6772056553698
 31
0.0
  0
LINE
  5
2CF
330
17
100
AcDbEntity
  8
0
100
AcDbLine
 10
1225.8555744168352
 20
1141.6772056553698
 30
0.0
 11
1227.3522439391068
 21
1140.1235775161563
 31
0.0
  0
LINE
  5
2D0
330
17
100
AcDbEntity
  8
0
100
AcDbLine
 10
1227.3522439391068
 20
1140.1235775161563
 30
0.0
 11
1228.877039368635
 21
1138.5975437839127
 31
0.0
  0
LINE
  5
2D1
330
17
100
AcDbEntity
  8
0
100
AcDbLine
 10
458.62464236921863
 20
758.7170361168507
 30
0.0
 11
460.09059616064104
 21
757.3037910058176
 31
0.0
  0
LINE
  5
2D2
330
17
100
AcDbEntity
  8
0
100
AcDbLine
 10
460.09059616064104
 20
757.3037910058176
 30
0.0
 11
461.5833515334609
 21
755.9188853558317
 31
0.0
  0
LINE
  5
2D3
330
17
100
AcDbEntity
  8
0
100
AcDbLine
 10
461.5833515334609
 20
755.9188853558317
 30
0.0
 11
463.1023607313392
 21
754.562827348517
 31
0.0
  0
LINE
  5
2D4
330
17
100
AcDbEntity
  8
0
100
AcDbLine
 10
463.1023607313392
 20
754.562827348517
 30
0.0
 11
464.6470663642772
 21
753.2361145800494
 31
0.0
  0
LINE
  5
2D5
330
17
100
AcDbEntity
  8
0
100
AcDbLine
 10
464.6470663642772
 20
753.2361145800494
 30
0.0
 11
466.21690161314433
 21
751.9392338785738
 31
0.0
  0
LINE
  5
2D6
330
17
100
AcDbEntity
  8
0
100
AcDbLine
 10
466.21690161314433
 20
751.9392338785738
 30
0.0
 11
467.8112904376718
 21
750.6726611255651
 31
0.0
  0
LINE
  5
2D7
330
17
100
AcDbEntity
  8
0
100
AcDbLine
 10
467.8112904376718
 20
750.6726611255651
 30
0.0
 11
469.4296477878229
 21
749.436861081198
 31
0.0
  0
LINE
  5
2D8
330
17
100
AcDbEntity
  8
0
100
AcDbLine
 10
469.4296477878229
 20
749.436861081198
 30
0.0
 11
471.07137981847575
 21
748.2322872138193
 31
0.0
  0
LINE
  5
2D9
330
17
100
AcDbEntity
  8
0
100
AcDbLine
 10
471.07137981847575
 20
748.2322872138193
 30
0.0
 11
472.7358841073302
 21
747.059381533541
 31
0.0
  0
LINE
  5
2DA
330
17
100
AcDbEntity
  8
0
100
AcDbLine
 10
472.7358841073302
 20
747.059381533541
 30
0.0
 11
474.4225498759618
 21
745.9185744300521
 31
0.0
  0
LINE
  5
2DB
330
17
100
AcDbEntity
  8
0
100
AcDbLine
 10
474.4225498759618
 20
745.9185744300521
 30
0.0
 11
476.1307582139434
 21
744.8102845146894
 31
0.0
  0
LINE
  5
2DC
330
17
100
AcDbEntity
  8
0
100
AcDbLine
 10
476.1307582139434
 20
744.8102845146894
 30
0.0
 11
477.85988230594967
 21
743.7349184668311
 31
0.0
  0
LINE
  5
2DD
330
17
100
AcDbEntity
  8
0
100
AcDbLine
 10
477.85988230594967
 20
743.7349184668311
 30
0.0
 11
479.609287661763
 21
742.6928708846667
 31
0.0
  0
LINE
  5
2DE
330
17
100
AcDbEntity
  8
0
100
AcDbLine
 10
479.609287661763
 20
742.6928708846667
 30
0.0
 11
481.3783323490956
 21
741.684524140403
 31
0.0
  0
LINE
  5
2DF
330
17
100
AcDbEntity
  8
0
100
AcDbLine
 10
481.3783323490956
 20
741.684524140403
 30
0.0
 11
483.16636722914103
 21
740.71024823996
 31
0.0
  0
LINE
  5
2E0
330
17
100
AcDbEntity
  8
0
100
AcDbLine
 10
483.16636722914103
 20
740.71024823996
 30
0.0
 11
484.9727361947728
 21
739.7704006871907
 31
0.0
  0
LINE
  5
2E1
330
17
100
AcDbEntity
  8
0
100
AcDbLine
 10
484.9727361947728
 20
739.7704006871907
 30
0.0
 11
486.79677641129683
 21
738.8653263527037
 31
0.0
  0
LINE
  5
2E2
330
17
100
AcDbEntity
  8
0
100
AcDbLine
 10
486.79677641129683
 20
738.8653263527037
 30
0.0
 11
488.6378185596753
 21
737.9953573473136
 31
0.0
  0
LINE
  5
2E3
330
17
100
AcDbEntity
  8
0
100
AcDbLine
 10
488.6378185596753
 20
737.9953573473136
 30
0.0
 11
490.49518708212787
 21
737.1608129001772
 31
0.0
  0
LINE
  5
2E4
330
17
100
AcDbEntity
  8
0
100
AcDbLine
 10
490.49518708212787
 20
737.1608129001772
 30
0.0
 11
492.36820043002353
 21
736.3619992416508
 31
0.0
  0
LINE
  5
2E5
330
17
100
AcDbEntity
  8
0
100
AcDbLine
 10
492.36820043002353
 20
736.3619992416508
 30
0.0
 11
494.25617131396996
 21
735.5992094909229
 31
0.0
  0
LINE
  5
2E6
330
17
100
AcDbEntity
  8
0
100
AcDbLine
 10
494.25617131396996
 20
735.5992094909229
 30
0.0
 11
496.1584069560093
 21
734.8727235484585
 31
0.0
  0
LINE
  5
2E7
330
17
100
AcDbEntity
  8
0
100
AcDbLine
 10
496.1584069560093
 20
734.8727235484585
 30
0.0
 11
498.07420934382924
 21
734.1828079932875
 31
0.0
  0
LINE
  5
2E8
330
17
100
AcDbEntity
  8
0
100
AcDbLine
 10
498.07420934382924
 20
734.1828079932875
 30
0.0
 11
500.00287548689215
 21
733.5297159851859
 31
0.0
  0
LINE
  5
2E9
330
17
100
AcDbEntity
  8
0
100
AcDbLine
 10
500.00287548689215
 20
733.5297159851859
 30
0.0
 11
501.94369767439554
 21
732.9136871717844
 31
0.0
  0
LINE
  5
2EA
330
17
100
AcDbEntity
  8
0
100
AcDbLine
 10
501.94369767439554
 20
732.9136871717844
 30
0.0
 11
503.8959637349578
 21
732.3349476006297
 31
0.0
  0
LINE
  5
2EB
330
17
100
AcDbEntity
  8
0
100
AcDbLine
 10
503.8959637349578
 20
732.3349476006297
 30
0.0
 11
505.8589572979475
 21
731.7937096362322
 31
0.0
  0
LINE
  5
2EC
330
17
100
AcDbEntity
  8
0
100
AcDbLine
 10
505.8589572979475
 20
731.7937096362322
 30
0.0
 11
507.8319580563507
 21
731.290171882152
 31
0.0
  0
LINE
  5
2ED
330
17
100
AcDbEntity
  8
0
100
AcDbLine
 10
507.8319580563507
 20
731.290171882152
 30
0.0
 11
509.81424203107997
 21
730.8245191081078
 31
0.0
  0
LINE
  5
2EE
330
17
100
AcDbEntity
  8
0
100
AcDbLine
 10
509.81424203107997
 20
730.8245191081078
 30
0.0
 11
511.8050818366371
 21
730.3969221821911
 31
0.0
  0
LINE
  5
2EF
330
17
100
AcDbEntity
  8
0
100
AcDbLine
 10
511.8050818366371
 20
730.3969221821911
 30
0.0
 11
513.8037469480197
 21
730.0075380081583
 31
0.0
  0
LINE
  5
2F0
330
17
100
AcDbEntity
  8
0
100
AcDbLine
 10
513.8037469480197
 20
730.0075380081583
 30
0.0
 11
515.8095039687828
 21
729.6565094678607
 31
0.0
  0
LINE
  5
2F1
330
17
100
AcDbEntity
  8
0
100
AcDbLine
 10
515.8095039687828
 20
729.6565094678607
 30
0.0
 11
517.8216169001545
 21
729.3439653688108
 31
0.0
  0
LINE
  5
2F2
330
17
100
AcDbEntity
  8
0
100
AcDbLine
 10
517.8216169001545
 20
729.3439653688108
 30
0.0
 11
519.8393474111048
 21
729.0700203969193
 31
0.0
  0
LINE
  5
2F3
330
17
100
AcDbEntity
  8
0
100
AcDbLine
 10
519.8393474111048
 20
729.0700203969193
 30
0.0
 11
521.8619551092719
 21
728.8347750744167
 31
0.0
  0
LINE
  5
2F4
330
17
100
AcDbEntity
  8
0
100
AcDbLine
 10
521.8619551092719
 20
728.8347750744167
 30
0.0
 11
523.888697812643
 21
728.638315722957
 31
0.0
  0
LINE
  5
2F5
330
17
100
AcDbEntity
  8
0
100
AcDbLine
 10
523.888697812643
 20
728.638315722957
 30
0.0
 11
525.918831821894
 21
728.4807144319525
 31
0.0
  0
LINE
  5
2F6
330
17
100
AcDbEntity
  8
0
100
AcDbLine
 10
525.918831821894
 20
728.4807144319525
 30
0.0
 11
527.9516121932842
 21
728.3620290321118
 31
0.0
  0
LINE
  5
2F7
330
17
100
AcDbEntity
  8
0
100
AcDbLine
 10
527.9516121932842
 20
728.3620290321118
 30
0.0
 11
529.9862930120084
 21
728.282303074232
 31
0.0
  0
LINE
  5
2F8
330
17
100
AcDbEntity
  8
0
100
AcDbLine
 10
529.9862930120084
 20
728.282303074232
 30
0.0
 11
532.0221276659053
 21
728.2415658132045
 31
0.0
  0
LINE
  5
2F9
330
17
100
AcDbEntity
  8
0
100
AcDbLine
 10
532.0221276659053
 20
728.2415658132045
 30
0.0
 11
534.0583691194221
 21
728.2398321972858
 31
0.0
  0
LINE
  5
2FA
330
17
100
AcDbEntity
  8
0
100
AcDbLine
 10
534.0583691194221
 20
728.2398321972869
 30
0.0
 11
532.684514653626
 21
728.2078553796539
 31
0.0
  0
LINE
  5
2FB
330
17
100
AcDbEntity
  8
0
100
AcDbLine
 10
532.684514653626
 20
728.2078553796539
 30
0.0
 11
531.3121714335961
 21
728.1359339190773
 31
0.0
  0
LINE
  5
2FC
330
17
100
AcDbEntity
  8
0
100
AcDbLine
 10
531.3121714335961
 20
728.1359339190773
 30
0.0
 11
529.9425005987049
 21
728.0241286682965
 31
0.0
  0
LINE
  5
2FD
330
17
100
AcDbEntity
  8
0
100
AcDbLine
 10
529.9425005987049
 20
728.0241286682965
 30
0.0
 11
528.5766610272206
 21
727.8725342257142
 31
0.0
  0
LINE
  5
2FE
330
17
100
AcDbEntity
  8
0
100
AcDbLine
 10
528.5766610272206
 20
727.8725342257142
 30
0.0
 11
527.2158083557806
 21
727.6812788553627
 31
0.0
  0
LINE
  5
2FF
330
17
100
AcDbEntity
  8
0
100
AcDbLine
 10
527.2158083557806
 20
727.6812788553627
 30
0.0
 11
525.8610940016059
 21
727.450524378381
 31
0.0
  0
LINE
  5
300
330
17
100
AcDbEntity
  8
0
100
AcDbLine
 10
525.8610940016059
 20
727.450524378381
 30
0.0
 11
524.5136641882895
 21
727.1804660360921
 31
0.0
  0
LINE
  5
301
330
17
100
AcDbEntity
  8
0
100
AcDbLine
 10
524.5136641882895
 20
727.1804660360921
 30
0.0
 11
523.1746589759742
 21
726.8713323248176
 31
0.0
  0
LINE
  5
302
330
17
100
AcDbEntity
  8
0
100
AcDbLine
 10
523.1746589759742
 20
726.8713323248176
 30
0.0
 11
521.8452112967504
 21
726.5233848025382
 31
0.0
  0
LINE
  5
303
330
17
100
AcDbEntity
  8
0
100
AcDbLine
 10
521.8452112967504
 20
726.5233848025382
 30
0.0
 11
520.5264459960811
 21
726.1369178675959
 31
0.0
  0
LINE
  5
304
330
17
100
AcDbEntity
  8
0
100
AcDbLine
 10
520.5264459960811
 20
726.1369178675959
 30
0.0
 11
519.21947888107
 21
725.7122585096002
 31
0.0
  0
LINE
  5
305
330
17
100
AcDbEntity
  8
0
100
AcDbLine
 10
519.21947888107
 20
725.7122585096002
 30
0.0
 11
517.9254157763785
 21
725.2497660327645
 31
0.0
  0
LINE
  5
306
330
17
100
AcDbEntity
  8
0
100
AcDbLine
 10
517.9254157763785
 20
725.2497660327645
 30
0.0
 11
516.6453515885863
 21
724.7498317518962
 31
0.0
  0
LINE
  5
307
330
17
100
AcDbEntity
  8
0
100
AcDbLine
 10
516.6453515885863
 20
724.7498317518962
 30
0.0
 11
515.3803693797929
 21
724.21287866131
 31
0.0
  0
LINE
  5
308
330
17
100
AcDbEntity
  8
0
100
AcDbLine
 10
515.3803693797929
 20
724.21287866131
 30
0.0
 11
514.1315394512369
 21
723.639361076927
 31
0.0
  0
LINE
  5
309
330
17
100
AcDbEntity
  8
0
100
AcDbLine
 10
514.1315394512369
 20
723.639361076927
 30
0.0
 11
512.8999184377155
 21
723.0297642518806
 31
0.0
  0
LINE
  5
30A
330
17
100
AcDbEntity
  8
0
100
AcDbLine
 10
512.8999184377155
 20
723.0297642518806
 30
0.0
 11
511.6865484135657
 21
722.3846039659447
 31
0.0
  0
LINE
  5
30B
330
17
100
AcDbEntity
  8
0
100
AcDbLine
 10
511.6865484135657
 20
722.3846039659447
 30
0.0
 11
510.4924560109656
 21
721.7044260891323
 31
0.0
  0
LINE
  5
30C
330
17
100
AcDbEntity
  8
0
100
AcDbLine
 10
510.4924560109656
 20
721.7044260891323
 30
0.0
 11
509.31865155130066
 21
720.9898061198292
 31
0.0
  0
LINE
  5
30D
330
17
100
AcDbEntity
  8
0
100
AcDbLine
 10
509.31865155130066
 20
720.9898061198292
 30
0.0
 11
508.1661281903312
 21
720.2413486978797
 31
0.0
  0
LINE
  5
30E
330
17
100
AcDbEntity
  8
0
100
AcDbLine
 10
508.1661281903312
 20
720.2413486978797
 30
0.0
 11
507.03586107788357
 21
719.4596870929796
 31
0.0
  0
LINE
  5
30F
330
17
100
AcDbEntity
  8
0
100
AcDbLine
 10
507.03586107788357
 20
719.4596870929796
 30
0.0
 11
505.9288065327756
 21
718.6454826688882
 31
0.0
  0
LINE
  5
310
330
17
100
AcDbEntity
  8
0
100
AcDbLine
 10
505.9288065327756
 20
718.6454826688882
 30
0.0
 11
504.8459012336762
 21
717.7994243238345
 31
0.0
  0
LINE
  5
311
330
17
100
AcDbEntity
  8
0
100
AcDbLine
 10
504.8459012336762
 20
717.7994243238345
 30
0.0
 11
503.78806142658067
 21
716.9222279076437
 31
0.0
  0
LINE
  5
312
330
17
100
AcDbEntity
  8
0
100
AcDbLine
 10
503.78806142658067
 20
716.9222279076437
 30
0.0
 11
502.756182149576
 21
716.014635616059
 31
0.0
  0
LINE
  5
313
330
17
100
AcDbEntity
  8
0
100
AcDbLine
 10
502.756182149576
 20
716.014635616059
 30
0.0
 11
501.7511364755486
 21
715.0774153627724
 31
0.0
  0
LINE
  5
314
330
17
100
AcDbEntity
  8
0
100
AcDbLine
 10
501.7511364755486
 20
715.0774153627724
 30
0.0
 11
500.7737747734784
 21
714.1113601296827
 31
0.0
  0
ENDSEC
  0
SECTION
  2
OBJECTS
  0
DICTIONARY
  5
A
330
0
100
AcDbDictionary
281
1
  3
ACAD_COLOR
350
B
  3
ACAD_GROUP
350
C
  3
ACAD_LAYOUT
350
D
  3
ACAD_MATERIAL
350
E
  3
ACAD_MLEADERSTYLE
350
F
  3
ACAD_MLINESTYLE
350
10
  3
ACAD_PLOTSETTINGS
350
11
  3
ACAD_PLOTSTYLENAME
350
12
  3
ACAD_SCALELIST
350
14
  3
ACAD_TABLESTYLE
350
15
  3
ACAD_VISUALSTYLE
350
16
  3
EZDXF_META
350
2D
  0
DICTIONARY
  5
B
330
A
100
AcDbDictionary
281
1
  0
DICTIONARY
  5
C
330
A
100
AcDbDictionary
281
1
  0
DICTIONARY
  5
D
330
A
100
AcDbDictionary
281
1
  3
Model
350
1A
  3
Layout1
350
1E
  0
DICTIONARY
  5
E
330
A
100
AcDbDictionary
281
1
  3
ByBlock
350
1F
  3
ByLayer
350
20
  3
Global
350
21
  0
DICTIONARY
  5
F
330
A
100
AcDbDictionary
281
1
  3
Standard
350
2C
  0
DICTIONARY
  5
10
330
A
100
AcDbDictionary
281
1
  3
Standard
350
22
  0
DICTIONARY
  5
11
330
A
100
AcDbDictionary
281
1
  0
ACDBDICTIONARYWDFLT
  5
12
330
A
100
AcDbDictionary
281
1
  3
Normal
350
13
100
AcDbDictionaryWithDefault
340
13
  0
ACDBPLACEHOLDER
  5
13
330
12
  0
DICTIONARY
  5
14
330
A
100
AcDbDictionary
281
1
  0
DICTIONARY
  5
15
330
A
100
AcDbDictionary
281
1
  0
DICTIONARY
  5
16
330
A
100
AcDbDictionary
281
1
  0
LAYOUT
  5
1A
330
D
100
AcDbPlotSettings
  1

  4
A3
  6

 40
7.5
 41
20.0
 42
7.5
 43
20.0
 44
420.0
 45
297.0
 46
0.0
 47
0.0
 48
0.0
 49
0.0
140
0.0
141
0.0
142
1.0
143
1.0
 70
1024
 72
1
 73
0
 74
5
  7

 75
16
 76
0
 77
2
 78
300
147
1.0
148
0.0
149
0.0
100
AcDbLayout
  1
Model
 70
1
 71
0
 10
0.0
 20
0.0
 11
420.0
 21
297.0
 12
0.0
 22
0.0
 32
0.0
 14
1e+20
 24
1e+20
 34
1e+20
 15
-1e+20
 25
-1e+20
 35
-1e+20
146
0.0
 13
0.0
 23
0.0
 33
0.0
 16
1.0
 26
0.0
 36
0.0
 17
0.0
 27
1.0
 37
0.0
 76
1
330
17
  0
LAYOUT
  5
1E
330
D
100
AcDbPlotSettings
  1

  4
A3
  6

 40
7.5
 41
20.0
 42
7.5
 43
20.0
 44
420.0
 45
297.0
 46
0.0
 47
0.0
 48
0.0
 49
0.0
140
0.0
141
0.0
142
1.0
143
1.0
 70
0
 72
1
 73
0
 74
5
  7

 75
16
 76
0
 77
2
 78
300
147
1.0
148
0.0
149
0.0
100
AcDbLayout
  1
Layout1
 70
1
 71
1
 10
0.0
 20
0.0
 11
420.0
 21
297.0
 12
0.0
 22
0.0
 32
0.0
 14
1e+20
 24
1e+20
 34
1e+20
 15
-1e+20
 25
-1e+20
 35
-1e+20
146
0.0
 13
0.0
 23
0.0
 33
0.0
 16
1.0
 26
0.0
 36
0.0
 17
0.0
 27
1.0
 37
0.0
 76
1
330
1B
  0
MATERIAL
  5
1F
102
{ACAD_REACTORS
330
E
102
}
330
E
100
AcDbMaterial
  1
ByBlock
  2

 70
0
 40
1.0
 71
1
 41
1.0
 91
-1023410177
 42
1.0
 72
1
  3

 73
1
 74
1
 75
1
 44
0.5
 73
0
 45
1.0
 46
1.0
 77
1
  4

 78
1
 79
1
170
1
 48
1.0
171
1
  6

172
1
173
1
174
1
140
1.0
141
1.0
175
1
  7

176
1
177
1
178
1
143
1.0
179
1
  8

270
1
271
1
272
1
145
1.0
146
1.0
273
1
  9

274
1
275
1
276
1
 42
1.0
 72
1
  3

 73
1
 74
1
 75
1
 94
63
  0
MATERIAL
  5
20
102
{ACAD_REACTORS
330
E
102
}
330
E
100
AcDbMaterial
  1
ByLayer
  2

 70
0
 40
1.0
 71
1
 41
1.0
 91
-1023410177
 42
1.0
 72
1
  3

 73
1
 74
1
 75
1
 44
0.5
 73
0
 45
1.0
 46
1.0
 77
1
  4

 78
1
 79
1
170
1
 48
1.0
171
1
  6

172
1
173
1
174
1
140
1.0
141
1.0
175
1
  7

176
1
177
1
178
1
143
1.0
179
1
  8

270
1
271
1
272
1
145
1.0
146
1.0
273
1
  9

274
1
275
1
276
1
 42
1.0
 72
1
  3

 73
1
 74
1
 75
1
 94
63
  0
MATERIAL
  5
21
102
{ACAD_REACTORS
330
E
102
}
330
E
100
AcDbMaterial
  1
Global
  2

 70
0
 40
1.0
 71
1
 41
1.0
 91
-1023410177
 42
1.0
 72
1
  3

 73
1
 74
1
 75
1
 44
0.5
 73
0
 45
1.0
 46
1.0
 77
1
  4

 78
1
 79
1
170
1
 48
1.0
171
1
  6

172
1
173
1
174
1
140
1.0
141
1.0
175
1
  7

176
1
177
1
178
1
143
1.0
179
1
  8

270
1
271
1
272
1
145
1.0
146
1.0
273
1
  9

274
1
275
1
276
1
 42
1.0
 72
1
  3

 73
1
 74
1
 75
1
 94
63
  0
MLINESTYLE
  5
22
102
{ACAD_REACTORS
330
10
102
}
330
10
100
AcDbMlineStyle
  2
Standard
 70
0
  3

 62
256
 51
90.0
 52
90.0
 71
2
 49
0.5
 62
256
  6
BYLAYER
 49
-0.5
 62
256
  6
BYLAYER
  0
MLEADERSTYLE
  5
2C
102
{ACAD_REACTORS
330
F
102
}
330
F
100
AcDbMLeaderStyle
179
2
170
2
171
1
172
0
 90
2
 40
0.0
 41
0.0
173
1
 91
-1056964608
 92
-2
290
1
 42
2.0
291
1
 43
8.0
  3
Standard
 44
4.0
300

342
29
174
1
175
1
176
0
178
1
 93
-1056964608
 45
4.0
292
0
297
0
 46
4.0
 94
-1056964608
 47
1.0
 49
1.0
140
1.0
294
1
141
0.0
177
0
142
1.0
295
0
296
0
143
3.75
271
0
272
9
273
9
  0
DICTIONARY
  5
2D
330
A
100
AcDbDictionary
280
1
281
1
  3
CREATED_BY_EZDXF
350
2E
  3
WRITTEN_BY_EZDXF
350
317
  0
DICTIONARYVAR
  5
2E
330
2D
100
DictionaryVariables
280
0
  1
1.4.3 @ 2026-04-16T08:37:49.236419+00:00
  0
DICTIONARYVAR
  5
317
330
2D
100
DictionaryVariables
280
0
  1
1.4.3 @ 2026-04-16T08:37:49.268857+00:00
  0
ENDSEC
  0
EOF
