  0
SECTION
  2
HEADER
  9
$ACADVER
  1
AC1032
  9
$ACADMAINTVER
 90
      378
  9
$DWGCODEPAGE
  3
ANSI_1251
  9
$LASTSAVEDBY
  1
Xhaver
  9
$REQUIREDVERSIONS
160
                 0
  9
$INSBASE
 10
0.0
 20
0.0
 30
0.0
  9
$EXTMIN
 10
3.159209086726548
 20
6.413631111001905
 30
-0.0000000116415251
  9
$EXTMAX
 10
31.00069668163809
 20
28.22073791758025
 30
-0.0000000116415251
  9
$LIMMIN
 10
0.0
 20
0.0
  9
$LIMMAX
 10
12.0
 20
9.0
  9
$ORTHOMODE
 70
     0
  9
$REGENMODE
 70
     1
  9
$FILLMODE
 70
     1
  9
$QTEXTMODE
 70
     0
  9
$MIRRTEXT
 70
     0
  9
$LTSCALE
 40
1.0
  9
$ATTMODE
 70
     1
  9
$TEXTSIZE
 40
0.0823984444723465
  9
$TRACEWID
 40
0.05
  9
$TEXTSTYLE
  7
Standard
  9
$CLAYER
  8
YOLO_STAMP
  9
$CELTYPE
  6
ByLayer
  9
$CECOLOR
 62
   256
  9
$CELTSCALE
 40
1.0
  9
$DISPSILH
 70
     0
  9
$DIMSCALE
 40
1.0
  9
$DIMASZ
 40
0.125
  9
$DIMEXO
 40
0.125
  9
$DIMDLI
 40
0.0
  9
$DIMRND
 40
0.0
  9
$DIMDLE
 40
0.0
  9
$DIMEXE
 40
0.125
  9
$DIMTP
 40
0.0
  9
$DIMTM
 40
0.0
  9
$DIMTXT
 40
0.25
  9
$DIMCEN
 40
0.09
  9
$DIMTSZ
 40
0.0
  9
$DIMTOL
 70
     0
  9
$DIMLIM
 70
     0
  9
$DIMTIH
 70
     0
  9
$DIMTOH
 70
     0
  9
$DIMSE1
 70
     0
  9
$DIMSE2
 70
     0
  9
$DIMTAD
 70
     1
  9
$DIMZIN
 70
    11
  9
$DIMBLK
  1
Oblique
  9
$DIMASO
 70
     1
  9
$DIMSHO
 70
     1
  9
$DIMPOST
  1

  9
$DIMAPOST
  1

  9
$DIMALT
 70
     0
  9
$DIMALTD
 70
     4
  9
$DIMALTF
 40
1.0
  9
$DIMLFAC
 40
1000.0
  9
$DIMTOFL
 70
     0
  9
$DIMTVP
 40
0.0
  9
$DIMTIX
 70
     0
  9
$DIMSOXD
 70
     0
  9
$DIMSAH
 70
     0
  9
$DIMBLK1
  1

  9
$DIMBLK2
  1

  9
$DIMSTYLE
  2
Standard
  9
$DIMCLRD
 70
     7
  9
$DIMCLRE
 70
     0
  9
$DIMCLRT
 70
     0
  9
$DIMTFAC
 40
1.0
  9
$DIMGAP
 40
0.125
  9
$DIMJUST
 70
     0
  9
$DIMSD1
 70
     0
  9
$DIMSD2
 70
     0
  9
$DIMTOLJ
 70
     0
  9
$DIMTZIN
 70
    11
  9
$DIMALTZ
 70
    15
  9
$DIMALTTZ
 70
    15
  9
$DIMUPT
 70
     0
  9
$DIMDEC
 70
     4
  9
$DIMTDEC
 70
     4
  9
$DIMALTU
 70
     2
  9
$DIMALTTD
 70
     4
  9
$DIMTXSTY
  7
Style-Arial
  9
$DIMAUNIT
 70
     0
  9
$DIMADEC
 70
     4
  9
$DIMALTRND
 40
0.0
  9
$DIMAZIN
 70
     3
  9
$DIMDSEP
 70
    46
  9
$DIMATFIT
 70
     3
  9
$DIMFRAC
 70
     2
  9
$DIMLDRBLK
  1
TerminatorOpen
  9
$DIMLUNIT
 70
     2
  9
$DIMLWD
 70
     0
  9
$DIMLWE
 70
    -2
  9
$DIMTMOVE
 70
     0
  9
$DIMFXL
 40
1.0
  9
$DIMFXLON
 70
     0
  9
$DIMJOGANG
 40
0.7853981633974483
  9
$DIMTFILL
 70
     0
  9
$DIMTFILLCLR
 70
     0
  9
$DIMARCSYM
 70
     0
  9
$DIMLTYPE
  6

  9
$DIMLTEX1
  6

  9
$DIMLTEX2
  6

  9
$DIMTXTDIRECTION
 70
     0
  9
$LUNITS
 70
     2
  9
$LUPREC
 70
     4
  9
$SKETCHINC
 40
0.1
  9
$FILLETRAD
 40
0.0
  9
$AUNITS
 70
     0
  9
$AUPREC
 70
     4
  9
$MENU
  1
.
  9
$ELEVATION
 40
0.0
  9
$PELEVATION
 40
0.0
  9
$THICKNESS
 40
0.0
  9
$LIMCHECK
 70
     0
  9
$CHAMFERA
 40
0.0
  9
$CHAMFERB
 40
0.0
  9
$CHAMFERC
 40
0.0
  9
$CHAMFERD
 40
0.0
  9
$SKPOLY
 70
     0
  9
$TDCREATE
 40
2454144.903020833
  9
$TDUCREATE
 40
2454144.778024017
  9
$TDUPDATE
 40
2461171.606990741
  9
$TDUUPDATE
 40
2461171.481990741
  9
$TDINDWG
 40
0.3149283796
  9
$TDUSRTIMER
 40
0.3149281944
  9
$USRTIMER
 70
     1
  9
$ANGBASE
 50
0.0
  9
$ANGDIR
 70
     0
  9
$PDMODE
 70
     0
  9
$PDSIZE
 40
0.0
  9
$PLINEWID
 40
0.0
  9
$SPLFRAME
 70
     0
  9
$SPLINETYPE
 70
     6
  9
$SPLINESEGS
 70
     8
  9
$HANDSEED
  5
3D25D
  9
$SURFTAB1
 70
     6
  9
$SURFTAB2
 70
     6
  9
$SURFTYPE
 70
     6
  9
$SURFU
 70
     6
  9
$SURFV
 70
     6
  9
$UCSBASE
  2

  9
$UCSNAME
  2

  9
$UCSORG
 10
0.0
 20
0.0
 30
0.0
  9
$UCSXDIR
 10
1.0
 20
0.0
 30
0.0
  9
$UCSYDIR
 10
0.0
 20
1.0
 30
0.0
  9
$UCSORTHOREF
  2

  9
$UCSORTHOVIEW
 70
     0
  9
$UCSORGTOP
 10
0.0
 20
0.0
 30
0.0
  9
$UCSORGBOTTOM
 10
0.0
 20
0.0
 30
0.0
  9
$UCSORGLEFT
 10
0.0
 20
0.0
 30
0.0
  9
$UCSORGRIGHT
 10
0.0
 20
0.0
 30
0.0
  9
$UCSORGFRONT
 10
0.0
 20
0.0
 30
0.0
  9
$UCSORGBACK
 10
0.0
 20
0.0
 30
0.0
  9
$PUCSBASE
  2

  9
$PUCSNAME
  2

  9
$PUCSORG
 10
0.0
 20
0.0
 30
0.0
  9
$PUCSXDIR
 10
1.0
 20
0.0
 30
0.0
  9
$PUCSYDIR
 10
0.0
 20
1.0
 30
0.0
  9
$PUCSORTHOREF
  2

  9
$PUCSORTHOVIEW
 70
     0
  9
$PUCSORGTOP
 10
0.0
 20
0.0
 30
0.0
  9
$PUCSORGBOTTOM
 10
0.0
 20
0.0
 30
0.0
  9
$PUCSORGLEFT
 10
0.0
 20
0.0
 30
0.0
  9
$PUCSORGRIGHT
 10
0.0
 20
0.0
 30
0.0
  9
$PUCSORGFRONT
 10
0.0
 20
0.0
 30
0.0
  9
$PUCSORGBACK
 10
0.0
 20
0.0
 30
0.0
  9
$USERI1
 70
     0
  9
$USERI2
 70
     0
  9
$USERI3
 70
     0
  9
$USERI4
 70
     0
  9
$USERI5
 70
     0
  9
$USERR1
 40
0.0
  9
$USERR2
 40
0.0
  9
$USERR3
 40
0.0
  9
$USERR4
 40
0.0
  9
$USERR5
 40
0.0
  9
$WORLDVIEW
 70
     1
  9
$SHADEDGE
 70
     3
  9
$SHADEDIF
 70
    70
  9
$TILEMODE
 70
     1
  9
$MAXACTVP
 70
    64
  9
$PINSBASE
 10
0.0
 20
0.0
 30
0.0
  9
$PLIMCHECK
 70
     0
  9
$PEXTMIN
 10
1.049743681505489
 20
0.7996673802841308
 30
-0.0015258207003583
  9
$PEXTMAX
 10
9.450622583565561
 20
7.200576801086516
 30
0.0000000349246037
  9
$PLIMMIN
 10
-0.2500002402958907
 20
-0.2499999962453767
  9
$PLIMMAX
 10
10.74999951940821
 20
8.249999763458731
  9
$UNITMODE
 70
     0
  9
$VISRETAIN
 70
     1
  9
$PLINEGEN
 70
     0
  9
$PSLTSCALE
 70
     0
  9
$TREEDEPTH
 70
  3020
  9
$CMLSTYLE
  2
Standard
  9
$CMLJUST
 70
     0
  9
$CMLSCALE
 40
1.0
  9
$PROXYGRAPHICS
 70
     1
  9
$MEASUREMENT
 70
     0
  9
$CELWEIGHT
370
    -1
  9
$ENDCAPS
280
     0
  9
$JOINSTYLE
280
     0
  9
$LWDISPLAY
290
     1
  9
$INSUNITS
 70
     6
  9
$HYPERLINKBASE
  1

  9
$STYLESHEET
  1

  9
$XEDIT
290
     1
  9
$CEPSNTYPE
380
     0
  9
$PSTYLEMODE
290
     1
  9
$FINGERPRINTGUID
  2
{E8FCBFDA-E850-456E-B581-1C7964D09A2F}
  9
$VERSIONGUID
  2
{2EDD1C01-845A-6648-83E2-EF96F4C4EB1D}
  9
$EXTNAMES
290
     1
  9
$PSVPSCALE
 40
0.0
  9
$OLESTARTUP
290
     0
  9
$SORTENTS
280
   127
  9
$INDEXCTL
280
     0
  9
$HIDETEXT
280
     1
  9
$XCLIPFRAME
280
     0
  9
$HALOGAP
280
     0
  9
$OBSCOLOR
 70
   257
  9
$OBSLTYPE
280
     0
  9
$INTERSECTIONDISPLAY
280
     0
  9
$INTERSECTIONCOLOR
 70
   257
  9
$DIMASSOC
280
     2
  9
$PROJECTNAME
  1

  9
$CAMERADISPLAY
290
     0
  9
$LENSLENGTH
 40
50.0
  9
$CAMERAHEIGHT
 40
0.0
  9
$STEPSPERSEC
 40
2.0
  9
$STEPSIZE
 40
6.0
  9
$3DDWFPREC
 40
2.0
  9
$PSOLWIDTH
 40
0.25
  9
$PSOLHEIGHT
 40
4.0
  9
$LOFTANG1
 40
1.570796326794896
  9
$LOFTANG2
 40
1.570796326794896
  9
$LOFTMAG1
 40
0.0
  9
$LOFTMAG2
 40
0.0
  9
$LOFTPARAM
 70
     7
  9
$LOFTNORMALS
280
     1
  9
$LATITUDE
 40
37.795
  9
$LONGITUDE
 40
-122.394
  9
$NORTHDIRECTION
 40
0.0
  9
$TIMEZONE
 70
 -8000
  9
$LIGHTGLYPHDISPLAY
280
     1
  9
$TILEMODELIGHTSYNCH
280
     1
  9
$CMATERIAL
347
3866F
  9
$SOLIDHIST
280
     1
  9
$SHOWHIST
280
     1
  9
$DWFFRAME
280
     2
  9
$DGNFRAME
280
     0
  9
$REALWORLDSCALE
290
     1
  9
$INTERFERECOLOR
 62
     1
  9
$INTERFEREOBJVS
345
38685
  9
$INTERFEREVPVS
346
38686
  9
$CSHADOW
280
     0
  9
$SHADOWPLANELOCATION
 40
0.0
  0
ENDSEC
  0
SECTION
  2
CLASSES
  0
CLASS
  1
ACDBDICTIONARYWDFLT
  2
AcDbDictionaryWithDefault
  3
ObjectDBX Classes
 90
        0
 91
        1
280
     0
281
     0
  0
CLASS
  1
DICTIONARYVAR
  2
AcDbDictionaryVar
  3
ObjectDBX Classes
 90
        0
 91
       10
280
     0
281
     0
  0
CLASS
  1
TABLESTYLE
  2
AcDbTableStyle
  3
ObjectDBX Classes
 90
     4095
 91
        1
280
     0
281
     0
  0
CLASS
  1
MATERIAL
  2
AcDbMaterial
  3
ObjectDBX Classes
 90
     1153
 91
        3
280
     0
281
     0
  0
CLASS
  1
VISUALSTYLE
  2
AcDbVisualStyle
  3
ObjectDBX Classes
 90
     4095
 91
       26
280
     0
281
     0
  0
CLASS
  1
SCALE
  2
AcDbScale
  3
ObjectDBX Classes
 90
     1153
 91
       33
280
     0
281
     0
  0
CLASS
  1
MLEADERSTYLE
  2
AcDbMLeaderStyle
  3
ACDB_MLEADERSTYLE_CLASS
 90
     4095
 91
        1
280
     0
281
     0
  0
CLASS
  1
DBCOLOR
  2
AcDbColor
  3
ObjectDBX Classes
 90
        0
 91
        1
280
     0
281
     0
  0
CLASS
  1
SORTENTSTABLE
  2
AcDbSortentsTable
  3
ObjectDBX Classes
 90
        0
 91
        1
280
     0
281
     0
  0
CLASS
  1
CELLSTYLEMAP
  2
AcDbCellStyleMap
  3
ObjectDBX Classes
 90
     1152
 91
        2
280
     0
281
     0
  0
CLASS
  1
ACDBSECTIONVIEWSTYLE
  2
AcDbSectionViewStyle
  3
ObjectDBX Classes
 90
     1025
 91
        1
280
     0
281
     0
  0
CLASS
  1
ACDBDETAILVIEWSTYLE
  2
AcDbDetailViewStyle
  3
ObjectDBX Classes
 90
     1025
 91
        1
280
     0
281
     0
  0
CLASS
  1
EXACXREFPANELOBJECT
  2
ExAcXREFPanelObject
  3
EXAC_ESW
 90
     1025
 91
        0
280
     0
281
     0
  0
CLASS
  1
NPOCOLLECTION
  2
AcDbImpNonPersistentObjectsCollection
  3
ObjectDBX Classes
 90
     1153
 91
        0
280
     0
281
     0
  0
CLASS
  1
SUN
  2
AcDbSun
  3
SCENEOE
 90
     1153
 91
        0
280
     0
281
     0
  0
CLASS
  1
MENTALRAYRENDERSETTINGS
  2
AcDbMentalRayRenderSettings
  3
SCENEOE
 90
     1024
 91
        0
280
     0
281
     0
  0
CLASS
  1
RASTERVARIABLES
  2
AcDbRasterVariables
  3
ISM
 90
        0
 91
        0
280
     0
281
     0
  0
ENDSEC
  0
SECTION
  2
TABLES
  0
TABLE
  2
VPORT
  5
38663
330
0
100
AcDbSymbolTable
 70
     1
  0
VPORT
  5
4B
330
38663
100
AcDbSymbolTableRecord
100
AcDbViewportTableRecord
  2
*ACTIVE
 70
     0
 10
0.0
 20
0.0
 11
1.0
 21
1.0
 12
17.32224680141229
 22
15.3490884508698
 13
0.0
 23
0.0
 14
0.1
 24
0.1
 15
0.1
 25
0.1
 16
0.0
 26
0.0
 36
1.0
 17
0.0
 27
0.0
 37
0.0
 40
35.05447712294501
 41
2.272959183673469
 42
50.0
 43
0.0
 44
0.0
 50
0.0
 51
0.0
 71
     0
 72
   100
 73
     1
 74
     0
 75
     0
 76
     1
 77
     0
 78
     1
281
     0
 65
     1
110
0.0
120
0.0
130
0.0
111
1.0
121
0.0
131
0.0
112
0.0
122
1.0
132
0.0
 79
     0
146
0.0
348
38665
 60
     3
 61
    10
292
     1
282
     1
141
0.0
142
0.0
 63
   250
421
  3355443
1001
ACAD_NAV_VCDISPLAY
1070
     3
  0
ENDTAB
  0
TABLE
  2
LTYPE
  5
3865E
330
0
100
AcDbSymbolTable
 70
     1
  0
LTYPE
  5
3865F
330
3865E
100
AcDbSymbolTableRecord
100
AcDbLinetypeTableRecord
  2
ByBlock
 70
     0
  3

 72
    65
 73
     0
 40
0.0
  0
LTYPE
  5
38660
330
3865E
100
AcDbSymbolTableRecord
100
AcDbLinetypeTableRecord
  2
ByLayer
 70
     0
  3

 72
    65
 73
     0
 40
0.0
  0
LTYPE
  5
3864D
330
3865E
100
AcDbSymbolTableRecord
100
AcDbLinetypeTableRecord
  2
Continuous
 70
     0
  3
Solid line
 72
    65
 73
     0
 40
0.0
  0
ENDTAB
  0
TABLE
  2
LAYER
  5
38658
102
{ACAD_XDICTIONARY
360
38659
102
}
330
0
100
AcDbSymbolTable
 70
    11
  0
LAYER
  5
38640
102
{ACAD_XDICTIONARY
360
3CDFD
102
}
330
38658
100
AcDbSymbolTableRecord
100
AcDbLayerTableRecord
  2
0
 70
     0
 62
     7
  6
Continuous
370
    -3
390
38641
347
38644
348
0
  0
LAYER
  5
1ACB
102
{ACAD_XDICTIONARY
360
3CE01
102
}
330
38658
100
AcDbSymbolTableRecord
100
AcDbLayerTableRecord
  2
Level 50
 70
     0
 62
     7
  6
Continuous
370
     0
390
38641
347
38644
348
0
  0
LAYER
  5
1ACC
102
{ACAD_XDICTIONARY
360
3CE03
102
}
330
38658
100
AcDbSymbolTableRecord
100
AcDbLayerTableRecord
  2
Level 63
 70
     0
 62
     7
  6
Continuous
370
     0
390
38641
347
38644
348
0
  0
LAYER
  5
901F
102
{ACAD_XDICTIONARY
360
3CE0D
102
}
330
38658
100
AcDbSymbolTableRecord
100
AcDbLayerTableRecord
  2
Level 4
 70
     0
 62
     7
  6
Continuous
370
     0
390
38641
347
38644
348
0
  0
LAYER
  5
359D6
330
38658
100
AcDbSymbolTableRecord
100
AcDbLayerTableRecord
  2
DEFPOINTS
 70
     0
 62
     7
  6
Continuous
290
     0
370
     0
390
38641
347
38644
348
0
1001
AcAecLayerStandard
1000

1000
DEFPOINTS
  0
LAYER
  5
3A615
102
{ACAD_XDICTIONARY
360
3A616
102
}
330
38658
100
AcDbSymbolTableRecord
100
AcDbLayerTableRecord
  2
DLXEM
 70
     0
 62
    95
  6
Continuous
370
    -3
390
38641
347
38644
348
0
  0
LAYER
  5
3A619
102
{ACAD_XDICTIONARY
360
3A61A
102
}
330
38658
100
AcDbSymbolTableRecord
100
AcDbLayerTableRecord
  2
DLXISO
 70
     0
 62
     7
  6
Continuous
370
    -3
390
38641
347
38644
348
0
  0
LAYER
  5
3A61F
102
{ACAD_XDICTIONARY
360
3A620
102
}
330
38658
100
AcDbSymbolTableRecord
100
AcDbLayerTableRecord
  2
DLXSCENE
 70
     0
 62
     7
  6
Continuous
370
    -3
390
38641
347
38644
348
0
  0
LAYER
  5
3CE63
330
38658
100
AcDbSymbolTableRecord
100
AcDbLayerTableRecord
  2
YOLO_TABLE
 70
     0
 62
     1
  6
Continuous
370
    -3
390
38641
347
38644
348
0
1001
AcAecLayerStandard
1000

1000

1001
AcCmTransparency
1071
 33554687
  0
LAYER
  5
3CE64
330
38658
100
AcDbSymbolTableRecord
100
AcDbLayerTableRecord
  2
YOLO_FRAME
 70
     0
 62
     1
  6
Continuous
370
    -3
390
38641
347
38644
348
0
1001
AcAecLayerStandard
1000

1000

1001
AcCmTransparency
1071
 33554687
  0
LAYER
  5
3CE65
330
38658
100
AcDbSymbolTableRecord
100
AcDbLayerTableRecord
  2
YOLO_STAMP
 70
     0
 62
     1
  6
Continuous
370
    -3
390
38641
347
38644
348
0
1001
AcAecLayerStandard
1000

1000

1001
AcCmTransparency
1071
 33554687
  0
ENDTAB
  0
TABLE
  2
STYLE
  5
3865B
330
0
100
AcDbSymbolTable
 70
     2
  0
STYLE
  5
3865C
330
3865B
100
AcDbSymbolTableRecord
100
AcDbTextStyleTableRecord
  2
Standard
 70
     0
 40
0.0
 41
1.0
 50
0.0
 71
     0
 42
0.0823984444723465
  3
txt.shx
  4

  0
STYLE
  5
7FC9
330
3865B
100
AcDbSymbolTableRecord
100
AcDbTextStyleTableRecord
  2
Style-Arial
 70
     0
 40
0.0
 41
1.0
 50
0.0
 71
     0
 42
0.2
  3
arial.ttf
  4

1001
ACAD
1000
Arial
1071
    52263
  0
ENDTAB
  0
TABLE
  2
VIEW
  5
38661
330
0
100
AcDbSymbolTable
 70
     0
  0
ENDTAB
  0
TABLE
  2
UCS
  5
38662
330
0
100
AcDbSymbolTable
 70
     0
  0
ENDTAB
  0
TABLE
  2
APPID
  5
38667
330
0
100
AcDbSymbolTable
 70
    12
  0
APPID
  5
38668
330
38667
100
AcDbSymbolTableRecord
100
AcDbRegAppTableRecord
  2
ACAD
 70
     0
  0
APPID
  5
38657
330
38667
100
AcDbSymbolTableRecord
100
AcDbRegAppTableRecord
  2
ACAD_PSEXT
 70
     0
  0
APPID
  5
386AA
330
38667
100
AcDbSymbolTableRecord
100
AcDbRegAppTableRecord
  2
AcAecLayerStandard
 70
     0
  0
APPID
  5
7C4
330
38667
100
AcDbSymbolTableRecord
100
AcDbRegAppTableRecord
  2
AcDbBlockRepETag
 70
     0
  0
APPID
  5
29269
330
38667
100
AcDbSymbolTableRecord
100
AcDbRegAppTableRecord
  2
GradientColor1ACI
 70
     0
  0
APPID
  5
2926A
330
38667
100
AcDbSymbolTableRecord
100
AcDbRegAppTableRecord
  2
GradientColor2ACI
 70
     0
  0
APPID
  5
389A1
330
38667
100
AcDbSymbolTableRecord
100
AcDbRegAppTableRecord
  2
ACAD_MLEADERVER
 70
     0
  0
APPID
  5
38AE4
330
38667
100
AcDbSymbolTableRecord
100
AcDbRegAppTableRecord
  2
ACAD_EXEMPT_FROM_CAD_STANDARDS
 70
     0
  0
APPID
  5
3A621
330
38667
100
AcDbSymbolTableRecord
100
AcDbRegAppTableRecord
  2
ACAD_NAV_VCDISPLAY
 70
     0
  0
APPID
  5
3CE66
330
38667
100
AcDbSymbolTableRecord
100
AcDbRegAppTableRecord
  2
AcCmTransparency
 70
     0
  0
APPID
  5
3D1CD
330
38667
100
AcDbSymbolTableRecord
100
AcDbRegAppTableRecord
  2
HATCHBACKGROUNDCOLOR
 70
     0
  0
APPID
  5
3D1CE
330
38667
100
AcDbSymbolTableRecord
100
AcDbRegAppTableRecord
  2
EZDXF
 70
     0
  0
ENDTAB
  0
TABLE
  2
DIMSTYLE
  5
38669
330
0
100
AcDbSymbolTable
 70
     1
100
AcDbDimStyleTable
 71
     0
  0
DIMSTYLE
105
3866A
330
38669
100
AcDbSymbolTableRecord
100
AcDbDimStyleTableRecord
  2
Standard
 70
     0
 41
2.5
 42
0.625
 43
3.75
 44
1.25
 49
2.5
 73
     0
 74
     0
 77
     1
 78
     8
 79
     3
140
2.5
141
2.5
143
0.03937007874
147
0.625
171
     3
172
     1
179
     2
271
     2
272
     2
274
     3
278
    44
283
     0
284
     8
340
3865C
  0
ENDTAB
  0
TABLE
  2
BLOCK_RECORD
  5
3863D
330
0
100
AcDbSymbolTable
 70
    30
  0
BLOCK_RECORD
  5
3863E
102
{ACAD_XDICTIONARY
360
38796
102
}
330
3863D
100
AcDbSymbolTableRecord
100
AcDbBlockTableRecord
  2
*Model_Space
340
3864F
 70
     0
280
     1
281
     0
  0
BLOCK_RECORD
  5
38651
330
3863D
100
AcDbSymbolTableRecord
100
AcDbBlockTableRecord
  2
*Paper_Space
340
38654
 70
     0
280
     1
281
     0
  0
BLOCK_RECORD
  5
386AD
330
3863D
100
AcDbSymbolTableRecord
100
AcDbBlockTableRecord
  2
_Oblique
340
0
 70
     0
280
     1
281
     0
  0
BLOCK_RECORD
  5
386DE
330
3863D
100
AcDbSymbolTableRecord
100
AcDbBlockTableRecord
  2
TerminatorOpen
340
0
 70
     0
280
     1
281
     0
  0
BLOCK_RECORD
  5
38784
330
3863D
100
AcDbSymbolTableRecord
100
AcDbBlockTableRecord
  2
SINK10
340
0
 70
     0
280
     1
281
     0
  0
BLOCK_RECORD
  5
38787
330
3863D
100
AcDbSymbolTableRecord
100
AcDbBlockTableRecord
  2
DUSH2
340
0
 70
     0
280
     1
281
     0
  0
BLOCK_RECORD
  5
3878A
330
3863D
100
AcDbSymbolTableRecord
100
AcDbBlockTableRecord
  2
SHIT2
340
0
 70
     0
280
     1
281
     0
  0
BLOCK_RECORD
  5
3878D
330
3863D
100
AcDbSymbolTableRecord
100
AcDbBlockTableRecord
  2
*U5
340
0
 70
     0
280
     1
281
     0
  0
BLOCK_RECORD
  5
396E1
330
3863D
100
AcDbSymbolTableRecord
100
AcDbBlockTableRecord
  2
*U6
340
0
 70
     0
280
     1
281
     0
  0
BLOCK_RECORD
  5
396E4
330
3863D
100
AcDbSymbolTableRecord
100
AcDbBlockTableRecord
  2
*U7
340
0
 70
     0
280
     1
281
     0
  0
BLOCK_RECORD
  5
3984A
330
3863D
100
AcDbSymbolTableRecord
100
AcDbBlockTableRecord
  2
*U8
340
0
 70
     0
280
     1
281
     0
  0
BLOCK_RECORD
  5
3984D
330
3863D
100
AcDbSymbolTableRecord
100
AcDbBlockTableRecord
  2
*U9
340
0
 70
     0
280
     1
281
     0
  0
BLOCK_RECORD
  5
39850
330
3863D
100
AcDbSymbolTableRecord
100
AcDbBlockTableRecord
  2
*U10
340
0
 70
     0
280
     1
281
     0
  0
BLOCK_RECORD
  5
39910
330
3863D
100
AcDbSymbolTableRecord
100
AcDbBlockTableRecord
  2
*U11
340
0
 70
     0
280
     1
281
     0
  0
BLOCK_RECORD
  5
39913
330
3863D
100
AcDbSymbolTableRecord
100
AcDbBlockTableRecord
  2
*U12
340
0
 70
     0
280
     1
281
     0
  0
BLOCK_RECORD
  5
39916
330
3863D
100
AcDbSymbolTableRecord
100
AcDbBlockTableRecord
  2
*U13
340
0
 70
     0
280
     1
281
     0
  0
BLOCK_RECORD
  5
39BB5
330
3863D
100
AcDbSymbolTableRecord
100
AcDbBlockTableRecord
  2
*U14
340
0
 70
     0
280
     1
281
     0
  0
BLOCK_RECORD
  5
39BB8
330
3863D
100
AcDbSymbolTableRecord
100
AcDbBlockTableRecord
  2
*U15
340
0
 70
     0
280
     1
281
     0
  0
BLOCK_RECORD
  5
39BBB
330
3863D
100
AcDbSymbolTableRecord
100
AcDbBlockTableRecord
  2
*U16
340
0
 70
     0
280
     1
281
     0
  0
BLOCK_RECORD
  5
39D1D
330
3863D
100
AcDbSymbolTableRecord
100
AcDbBlockTableRecord
  2
*U17
340
0
 70
     0
280
     1
281
     0
  0
BLOCK_RECORD
  5
3BA60
330
3863D
100
AcDbSymbolTableRecord
100
AcDbBlockTableRecord
  2
*U18
340
0
 70
     0
280
     1
281
     0
  0
BLOCK_RECORD
  5
3BA63
330
3863D
100
AcDbSymbolTableRecord
100
AcDbBlockTableRecord
  2
*U19
340
0
 70
     0
280
     1
281
     0
  0
BLOCK_RECORD
  5
3BBC9
330
3863D
100
AcDbSymbolTableRecord
100
AcDbBlockTableRecord
  2
*U20
340
0
 70
     0
280
     1
281
     0
  0
BLOCK_RECORD
  5
3BBCC
330
3863D
100
AcDbSymbolTableRecord
100
AcDbBlockTableRecord
  2
*U21
340
0
 70
     0
280
     1
281
     0
  0
BLOCK_RECORD
  5
3BBCF
330
3863D
100
AcDbSymbolTableRecord
100
AcDbBlockTableRecord
  2
*U22
340
0
 70
     0
280
     1
281
     0
  0
BLOCK_RECORD
  5
3BC8F
330
3863D
100
AcDbSymbolTableRecord
100
AcDbBlockTableRecord
  2
*U23
340
0
 70
     0
280
     1
281
     0
  0
BLOCK_RECORD
  5
3BC92
330
3863D
100
AcDbSymbolTableRecord
100
AcDbBlockTableRecord
  2
*U24
340
0
 70
     0
280
     1
281
     0
  0
BLOCK_RECORD
  5
3BC95
330
3863D
100
AcDbSymbolTableRecord
100
AcDbBlockTableRecord
  2
*U25
340
0
 70
     0
280
     1
281
     0
  0
BLOCK_RECORD
  5
3BF34
330
3863D
100
AcDbSymbolTableRecord
100
AcDbBlockTableRecord
  2
*U26
340
0
 70
     0
280
     1
281
     0
  0
BLOCK_RECORD
  5
3BF37
330
3863D
100
AcDbSymbolTableRecord
100
AcDbBlockTableRecord
  2
*U27
340
0
 70
     0
280
     1
281
     0
  0
BLOCK_RECORD
  5
3BF3A
330
3863D
100
AcDbSymbolTableRecord
100
AcDbBlockTableRecord
  2
*U28
340
0
 70
     0
280
     1
281
     0
  0
BLOCK_RECORD
  5
3C09C
330
3863D
100
AcDbSymbolTableRecord
100
AcDbBlockTableRecord
  2
*U29
340
0
 70
     0
280
     1
281
     0
  0
ENDTAB
  0
ENDSEC
  0
SECTION
  2
BLOCKS
  0
BLOCK
  5
3863F
330
3863E
100
AcDbEntity
  8
0
100
AcDbBlockBegin
  2
*Model_Space
 70
     0
 10
0.0
 20
0.0
 30
0.0
  3
*Model_Space
  1

  0
ENDBLK
  5
3864E
330
3863E
100
AcDbEntity
  8
0
100
AcDbBlockEnd
  0
BLOCK
  5
38652
330
38651
100
AcDbEntity
 67
     1
  8
0
100
AcDbBlockBegin
  2
*Paper_Space
 70
     0
 10
0.0
 20
0.0
 30
0.0
  3
*Paper_Space
  1

  0
ENDBLK
  5
38653
330
38651
100
AcDbEntity
 67
     1
  8
0
100
AcDbBlockEnd
  0
BLOCK
  5
386AF
330
386AD
100
AcDbEntity
  8
0
100
AcDbBlockBegin
  2
_Oblique
 70
     0
 10
0.0
 20
0.0
 30
0.0
  3
_Oblique
  1

  0
LINE
  5
386AE
330
386AD
100
AcDbEntity
  8
0
  6
ByBlock
 62
     0
370
    -2
100
AcDbLine
 10
0.5
 20
0.5
 30
0.0
 11
-0.5
 21
-0.5
 31
0.0
  0
ENDBLK
  5
386B0
330
386AD
100
AcDbEntity
  8
0
100
AcDbBlockEnd
  0
BLOCK
  5
386E2
330
386DE
100
AcDbEntity
  8
0
100
AcDbBlockBegin
  2
TerminatorOpen
 70
     0
 10
0.0
 20
0.0
 30
0.0
  3
TerminatorOpen
  1

  0
LINE
  5
386DF
330
386DE
100
AcDbEntity
  8
0
  6
ByBlock
 62
     0
370
    -2
100
AcDbLine
 10
0.0
 20
0.0
 30
0.0
 11
-1.0
 21
0.0
 31
0.0
  0
LINE
  5
386E0
330
386DE
100
AcDbEntity
  8
0
  6
ByBlock
 62
     0
370
    -2
100
AcDbLine
 10
0.0
 20
0.0
 30
0.0
 11
-1.0
 21
0.5
 31
0.0
  0
LINE
  5
386E1
330
386DE
100
AcDbEntity
  8
0
  6
ByBlock
 62
     0
370
    -2
100
AcDbLine
 10
0.0
 20
0.0
 30
0.0
 11
-1.0
 21
-0.5
 31
0.0
  0
ENDBLK
  5
386E3
330
386DE
100
AcDbEntity
  8
0
100
AcDbBlockEnd
  0
BLOCK
  5
38785
330
38784
100
AcDbEntity
  8
0
100
AcDbBlockBegin
  2
SINK10
 70
     0
 10
0.0
 20
0.0
 30
0.0
  3
SINK10
  1

  0
LINE
  5
385D2
330
38784
100
AcDbEntity
  8
Level 4
  6
Continuous
 62
     7
370
     0
100
AcDbLine
 10
-9.110000000000582
 20
-6.767599999995582
 30
0.0
 11
-9.110000000000582
 21
-6.769999999996797
 31
0.0
  0
LINE
  5
385D3
330
38784
100
AcDbEntity
  8
Level 4
  6
Continuous
 62
     7
370
     0
100
AcDbLine
 10
-18.0
 20
-13.43999999999869
 30
0.0
 11
-18.0
 21
-16.79999999999927
 31
0.0
  0
LINE
  5
385D4
330
38784
100
AcDbEntity
  8
Level 4
  6
Continuous
 62
     7
370
     0
100
AcDbLine
 10
-22.99950000000172
 20
0.0
 30
0.0
 11
-22.99950000000172
 21
-16.79999999999927
 31
0.0
  0
LINE
  5
385D5
330
38784
100
AcDbEntity
  8
Level 4
  6
Continuous
 62
     7
370
     0
100
AcDbLine
 10
9.110000000000582
 20
-6.767599999995582
 30
0.0
 11
9.110000000000582
 21
-6.769999999996797
 31
0.0
  0
LINE
  5
385D6
330
38784
100
AcDbEntity
  8
Level 4
  6
Continuous
 62
     7
370
     0
100
AcDbLine
 10
18.0
 20
-13.43999999999869
 30
0.0
 11
18.0
 21
-16.79999999999927
 31
0.0
  0
LINE
  5
385D7
330
38784
100
AcDbEntity
  8
Level 4
  6
Continuous
 62
     7
370
     0
100
AcDbLine
 10
22.99950000000172
 20
0.0
 30
0.0
 11
22.99950000000172
 21
-16.79999999999927
 31
0.0
  0
LINE
  5
385D8
330
38784
100
AcDbEntity
  8
Level 4
  6
Continuous
 62
     7
370
     0
100
AcDbLine
 10
22.99950000000172
 20
0.0
 30
0.0
 11
-22.99950000000172
 21
0.0
 31
0.0
  0
LINE
  5
385D9
330
38784
100
AcDbEntity
  8
Level 4
  6
Continuous
 62
     7
370
     0
100
AcDbLine
 10
-9.110000000000582
 20
-6.769999999996797
 30
0.0
 11
-10.65380000000004
 21
-6.871399999999994
 31
0.0
  0
LINE
  5
385DA
330
38784
100
AcDbEntity
  8
Level 4
  6
Continuous
 62
     7
370
     0
100
AcDbLine
 10
-10.65380000000004
 20
-6.871399999999994
 30
0.0
 11
-12.15060000000085
 21
-7.172299999998357
 31
0.0
  0
LINE
  5
385DB
330
38784
100
AcDbEntity
  8
Level 4
  6
Continuous
 62
     7
370
     0
100
AcDbLine
 10
-12.15060000000085
 20
-7.172299999998357
 30
0.0
 11
-13.55500000000029
 21
-7.663700000000972
 31
0.0
  0
LINE
  5
385DC
330
38784
100
AcDbEntity
  8
Level 4
  6
Continuous
 62
     7
370
     0
100
AcDbLine
 10
-13.55500000000029
 20
-7.663700000000972
 30
0.0
 11
-14.82439999999769
 21
-8.330499999996391
 31
0.0
  0
LINE
  5
385DD
330
38784
100
AcDbEntity
  8
Level 4
  6
Continuous
 62
     7
370
     0
100
AcDbLine
 10
-14.82439999999769
 20
-8.330499999996391
 30
0.0
 11
-15.92020000000047
 21
-9.152699999998732
 31
0.0
  0
LINE
  5
385DE
330
38784
100
AcDbEntity
  8
Level 4
  6
Continuous
 62
     7
370
     0
100
AcDbLine
 10
-15.92020000000047
 20
-9.152699999998732
 30
0.0
 11
-16.80899999999747
 21
-10.10499999999956
 31
0.0
  0
LINE
  5
385DF
330
38784
100
AcDbEntity
  8
Level 4
  6
Continuous
 62
     7
370
     0
100
AcDbLine
 10
-16.80899999999747
 20
-10.10499999999956
 30
0.0
 11
-17.46390000000246
 21
-11.15879999999743
 31
0.0
  0
LINE
  5
385E0
330
38784
100
AcDbEntity
  8
Level 4
  6
Continuous
 62
     7
370
     0
100
AcDbLine
 10
-17.46390000000246
 20
-11.15879999999743
 30
0.0
 11
-17.8650000000016
 21
-12.28180000000065
 31
0.0
  0
LINE
  5
385E1
330
38784
100
AcDbEntity
  8
Level 4
  6
Continuous
 62
     7
370
     0
100
AcDbLine
 10
-17.8650000000016
 20
-12.28180000000065
 30
0.0
 11
-18.0
 21
-13.43999999999869
 31
0.0
  0
LINE
  5
385E2
330
38784
100
AcDbEntity
  8
Level 4
  6
Continuous
 62
     7
370
     0
100
AcDbLine
 10
18.0
 20
-13.43999999999869
 30
0.0
 11
17.86490000000049
 21
-12.28180000000065
 31
0.0
  0
LINE
  5
385E3
330
38784
100
AcDbEntity
  8
Level 4
  6
Continuous
 62
     7
370
     0
100
AcDbLine
 10
17.86490000000049
 20
-12.28180000000065
 30
0.0
 11
17.46379999999772
 21
-11.15879999999743
 31
0.0
  0
LINE
  5
385E4
330
38784
100
AcDbEntity
  8
Level 4
  6
Continuous
 62
     7
370
     0
100
AcDbLine
 10
17.46379999999772
 20
-11.15879999999743
 30
0.0
 11
16.80889999999999
 21
-10.10499999999956
 31
0.0
  0
LINE
  5
385E5
330
38784
100
AcDbEntity
  8
Level 4
  6
Continuous
 62
     7
370
     0
100
AcDbLine
 10
16.80889999999999
 20
-10.10499999999956
 30
0.0
 11
15.92009999999936
 21
-9.152699999998732
 31
0.0
  0
LINE
  5
385E6
330
38784
100
AcDbEntity
  8
Level 4
  6
Continuous
 62
     7
370
     0
100
AcDbLine
 10
15.92009999999936
 20
-9.152699999998732
 30
0.0
 11
14.82439999999769
 21
-8.330499999996391
 31
0.0
  0
LINE
  5
385E7
330
38784
100
AcDbEntity
  8
Level 4
  6
Continuous
 62
     7
370
     0
100
AcDbLine
 10
14.82439999999769
 20
-8.330499999996391
 30
0.0
 11
13.55500000000029
 21
-7.663700000000972
 31
0.0
  0
LINE
  5
385E8
330
38784
100
AcDbEntity
  8
Level 4
  6
Continuous
 62
     7
370
     0
100
AcDbLine
 10
13.55500000000029
 20
-7.663700000000972
 30
0.0
 11
12.15049999999974
 21
-7.172299999998357
 31
0.0
  0
LINE
  5
385E9
330
38784
100
AcDbEntity
  8
Level 4
  6
Continuous
 62
     7
370
     0
100
AcDbLine
 10
12.15049999999974
 20
-7.172299999998357
 30
0.0
 11
10.65370000000257
 21
-6.871399999999994
 31
0.0
  0
LINE
  5
385EA
330
38784
100
AcDbEntity
  8
Level 4
  6
Continuous
 62
     7
370
     0
100
AcDbLine
 10
10.65370000000257
 20
-6.871399999999994
 30
0.0
 11
9.110000000000582
 21
-6.769999999996797
 31
0.0
  0
LINE
  5
385EB
330
38784
100
AcDbEntity
  8
Level 4
  6
Continuous
 62
     7
370
     0
100
AcDbLine
 10
9.110000000000582
 20
-6.769999999996797
 30
0.0
 11
-9.110000000000582
 21
-6.769999999996797
 31
0.0
  0
ARC
  5
385EC
330
38784
100
AcDbEntity
  8
Level 4
  6
Continuous
 62
     7
370
     0
100
AcDbCircle
 10
-0.0000721714022802
 20
0.000022601296223
 30
0.0
 40
33.00000052946033
100
AcDbArc
 50
241.5254388888889
 51
298.4745583333333
  0
ARC
  5
385ED
330
38784
100
AcDbEntity
  8
Level 4
  6
Continuous
 62
     7
370
     0
100
AcDbCircle
 10
-0.0000721714022802
 20
0.000022601296223
 30
0.0
 40
28.00000049449314
100
AcDbArc
 50
241.5254388888889
 51
298.4745583333333
  0
ARC
  5
385EE
330
38784
100
AcDbEntity
  8
Level 4
  6
Continuous
 62
     7
370
     0
100
AcDbCircle
 10
9.111927944704801
 20
-16.79997755075601
 30
0.0
 40
8.888000305476296
100
AcDbArc
 50
298.4745583333333
 51
359.9999972222222
  0
ARC
  5
385EF
330
38784
100
AcDbEntity
  8
Level 4
  6
Continuous
 62
     7
370
     0
100
AcDbCircle
 10
9.111927944704801
 20
-16.79997755075601
 30
0.0
 40
13.88800034044348
100
AcDbArc
 50
298.4745583333333
 51
359.9999972222222
  0
ARC
  5
385F0
330
38784
100
AcDbEntity
  8
Level 4
  6
Continuous
 62
     7
370
     0
100
AcDbCircle
 10
-9.112072287512999
 20
-16.79997755075601
 30
0.0
 40
8.888000243317858
100
AcDbArc
 50
180.0
 51
241.5254388888889
  0
ARC
  5
385F1
330
38784
100
AcDbEntity
  8
Level 4
  6
Continuous
 62
     7
370
     0
100
AcDbCircle
 10
-9.112072287512999
 20
-16.79997755075601
 30
0.0
 40
13.88800024331829
100
AcDbArc
 50
180.0
 51
241.5254388888889
  0
ARC
  5
385F2
330
38784
100
AcDbEntity
  8
Level 4
  6
Continuous
 62
     7
370
     0
100
AcDbCircle
 10
-0.0000721714022802
 20
-15.18997753618532
 30
0.0
 40
1.749999999999999
100
AcDbArc
 50
0.0
 51
359.999994270422
  0
ENDBLK
  5
38786
330
38784
100
AcDbEntity
  8
0
100
AcDbBlockEnd
  0
BLOCK
  5
38788
330
38787
100
AcDbEntity
  8
0
100
AcDbBlockBegin
  2
DUSH2
 70
     0
 10
0.0
 20
0.0
 30
0.0
  3
DUSH2
  1

  0
LINE
  5
385F4
330
38787
100
AcDbEntity
  8
Level 4
  6
Continuous
 62
     7
370
     0
100
AcDbLine
 10
0.000000000003638
 20
0.0
 30
0.0
 11
90.00000000000364
 21
0.0
 31
0.0
  0
LINE
  5
385F5
330
38787
100
AcDbEntity
  8
Level 4
  6
Continuous
 62
     7
370
     0
100
AcDbLine
 10
90.00000000000364
 20
0.0
 30
0.0
 11
90.00000000000364
 21
90.0
 31
0.0
  0
LINE
  5
385F6
330
38787
100
AcDbEntity
  8
Level 4
  6
Continuous
 62
     7
370
     0
100
AcDbLine
 10
90.00000000000364
 20
90.0
 30
0.0
 11
0.000000000003638
 21
90.0
 31
0.0
  0
LINE
  5
385F7
330
38787
100
AcDbEntity
  8
Level 4
  6
Continuous
 62
     7
370
     0
100
AcDbLine
 10
0.000000000003638
 20
90.0
 30
0.0
 11
0.000000000003638
 21
0.0
 31
0.0
  0
LINE
  5
385F8
330
38787
100
AcDbEntity
  8
Level 4
  6
Continuous
 62
     7
370
     0
100
AcDbLine
 10
7.000000000003637
 20
85.0
 30
0.0
 11
5.000000000003636
 21
83.0
 31
0.0
  0
LINE
  5
385F9
330
38787
100
AcDbEntity
  8
Level 4
  6
Continuous
 62
     7
370
     0
100
AcDbLine
 10
5.000000000003636
 20
83.0
 30
0.0
 11
5.000000000003636
 21
7.0
 31
0.0
  0
LINE
  5
385FA
330
38787
100
AcDbEntity
  8
Level 4
  6
Continuous
 62
     7
370
     0
100
AcDbLine
 10
5.000000000003636
 20
7.0
 30
0.0
 11
7.000000000003637
 21
5.0
 31
0.0
  0
LINE
  5
385FB
330
38787
100
AcDbEntity
  8
Level 4
  6
Continuous
 62
     7
370
     0
100
AcDbLine
 10
7.000000000003637
 20
5.0
 30
0.0
 11
83.00000000000364
 21
5.0
 31
0.0
  0
LINE
  5
385FC
330
38787
100
AcDbEntity
  8
Level 4
  6
Continuous
 62
     7
370
     0
100
AcDbLine
 10
83.00000000000364
 20
5.0
 30
0.0
 11
85.00000000000364
 21
7.0
 31
0.0
  0
LINE
  5
385FD
330
38787
100
AcDbEntity
  8
Level 4
  6
Continuous
 62
     7
370
     0
100
AcDbLine
 10
85.00000000000364
 20
7.0
 30
0.0
 11
85.00000000000364
 21
83.0
 31
0.0
  0
LINE
  5
385FE
330
38787
100
AcDbEntity
  8
Level 4
  6
Continuous
 62
     7
370
     0
100
AcDbLine
 10
85.00000000000364
 20
83.0
 30
0.0
 11
83.00000000000364
 21
85.0
 31
0.0
  0
LINE
  5
385FF
330
38787
100
AcDbEntity
  8
Level 4
  6
Continuous
 62
     7
370
     0
100
AcDbLine
 10
83.00000000000364
 20
85.0
 30
0.0
 11
7.000000000003637
 21
85.0
 31
0.0
  0
LINE
  5
38600
330
38787
100
AcDbEntity
  8
Level 4
  6
Continuous
 62
     7
370
     0
100
AcDbLine
 10
10.00000000000364
 20
10.0
 30
0.0
 11
40.00000000000364
 21
40.0
 31
0.0
  0
LINE
  5
38601
330
38787
100
AcDbEntity
  8
Level 4
  6
Continuous
 62
     7
370
     0
100
AcDbLine
 10
80.00000000000364
 20
10.0
 30
0.0
 11
50.00000000000365
 21
40.0
 31
0.0
  0
LINE
  5
38602
330
38787
100
AcDbEntity
  8
Level 4
  6
Continuous
 62
     7
370
     0
100
AcDbLine
 10
80.00000000000364
 20
80.0
 30
0.0
 11
50.00000000000365
 21
50.0
 31
0.0
  0
LINE
  5
38603
330
38787
100
AcDbEntity
  8
Level 4
  6
Continuous
 62
     7
370
     0
100
AcDbLine
 10
10.00000000000364
 20
80.0
 30
0.0
 11
40.00000000000364
 21
50.0
 31
0.0
  0
ARC
  5
38604
330
38787
100
AcDbEntity
  8
Level 4
  6
Continuous
 62
     7
370
     0
100
AcDbCircle
 10
44.99990772764067
 20
45.0000735888716
 30
0.0
 40
2.499999999999999
100
AcDbArc
 50
0.0
 51
359.999994270422
  0
ENDBLK
  5
38789
330
38787
100
AcDbEntity
  8
0
100
AcDbBlockEnd
  0
BLOCK
  5
3878B
330
3878A
100
AcDbEntity
  8
0
100
AcDbBlockBegin
  2
SHIT2
 70
     0
 10
0.0
 20
0.0
 30
0.0
  3
SHIT2
  1

  0
LINE
  5
38606
330
3878A
100
AcDbEntity
  8
Level 4
  6
Continuous
 62
     7
370
     0
100
AcDbLine
 10
-18.50170000000071
 20
-52.99999999999634
 30
0.0
 11
-18.50170000000071
 21
0.000000000003638
 31
0.0
  0
LINE
  5
38607
330
3878A
100
AcDbEntity
  8
Level 4
  6
Continuous
 62
     7
370
     0
100
AcDbLine
 10
18.50169999999707
 20
-52.99999999999634
 30
0.0
 11
18.50169999999707
 21
0.000000000003638
 31
0.0
  0
LINE
  5
38608
330
3878A
100
AcDbEntity
  8
Level 4
  6
Continuous
 62
     7
370
     0
100
AcDbLine
 10
18.50169999999707
 20
0.000000000003638
 30
0.0
 11
-18.50170000000071
 21
0.000000000003638
 31
0.0
  0
LINE
  5
38609
330
3878A
100
AcDbEntity
  8
Level 4
  6
Continuous
 62
     7
370
     0
100
AcDbLine
 10
18.50169999999707
 20
-19.99999999999636
 30
0.0
 11
-18.50170000000071
 21
-19.99999999999636
 31
0.0
  0
LINE
  5
3860A
330
3878A
100
AcDbEntity
  8
Level 4
  6
Continuous
 62
     7
370
     0
100
AcDbLine
 10
-12.49970000000394
 20
-27.49999999999636
 30
0.0
 11
-12.49970000000394
 21
-52.99999999999634
 31
0.0
  0
LINE
  5
3860B
330
3878A
100
AcDbEntity
  8
Level 4
  6
Continuous
 62
     7
370
     0
100
AcDbLine
 10
12.50140000000101
 20
-52.99999999999634
 30
0.0
 11
12.50140000000101
 21
-27.49999999999636
 31
0.0
  0
LINE
  5
3860C
330
3878A
100
AcDbEntity
  8
Level 4
  6
Continuous
 62
     7
370
     0
100
AcDbLine
 10
12.50140000000101
 20
-27.49999999999636
 30
0.0
 11
-12.49970000000394
 21
-27.49999999999636
 31
0.0
  0
LWPOLYLINE
  5
3860D
330
3878A
100
AcDbEntity
  8
Level 4
  6
Continuous
 62
     7
370
     0
100
AcDbPolyline
 90
        6
 70
   128
 43
0.0
 10
-12.49970000000394
 20
-52.99999999999634
 10
-12.32390000000305
 20
-54.89009999999689
 10
-11.80259999999907
 20
-56.71539999999732
 10
-10.95370000000184
 20
-58.41319999999541
 10
-9.806200000002716
 20
-59.92540000000007
 10
-8.399500000003174
 20
-61.19999999999709
  0
LWPOLYLINE
  5
3860E
330
3878A
100
AcDbEntity
  8
Level 4
  6
Continuous
 62
     7
370
     0
100
AcDbPolyline
 90
        9
 70
   128
 43
0.0
 10
-8.399500000003174
 20
-61.19999999999709
 10
-6.496900000001914
 20
-62.40089999999691
 10
-4.426500000001396
 20
-63.28159999999844
 10
-2.24180000000342
 20
-63.81929999999918
 10
0.0007999999979802
 20
-63.99999999999636
 10
2.243500000000494
 20
-63.81929999999918
 10
4.428199999994831
 20
-63.28159999999844
 10
6.498599999995347
 20
-62.40089999999691
 10
8.401200000000244
 20
-61.19999999999709
  0
LWPOLYLINE
  5
3860F
330
3878A
100
AcDbEntity
  8
Level 4
  6
Continuous
 62
     7
370
     0
100
AcDbPolyline
 90
        6
 70
   128
 43
0.0
 10
8.401200000000244
 20
-61.19999999999709
 10
9.807899999999786
 20
-59.92540000000007
 10
10.95539999999892
 20
-58.41319999999541
 10
11.80429999999978
 20
-56.71539999999732
 10
12.32560000000012
 20
-54.89009999999689
 10
12.50140000000101
 20
-52.99999999999634
  0
LWPOLYLINE
  5
38610
330
3878A
100
AcDbEntity
  8
Level 4
  6
Continuous
 62
     7
370
     0
100
AcDbPolyline
 90
        7
 70
   128
 43
0.0
 10
-18.50170000000071
 20
-52.99999999999634
 10
-18.3080000000009
 20
-55.50169999999707
 10
-17.73150000000169
 20
-57.94379999999728
 10
-16.78589999999894
 20
-60.2679999999964
 10
-15.49380000000019
 20
-62.41899999999803
 10
-13.88590000000113
 20
-64.34539999999834
 10
-12.00070000000051
 20
-66.00140000000101
  0
LWPOLYLINE
  5
38611
330
3878A
100
AcDbEntity
  8
Level 4
  6
Continuous
 62
     7
370
     0
100
AcDbPolyline
 90
        7
 70
   128
 43
0.0
 10
12.00069999999687
 20
-66.00140000000101
 10
13.88589999999749
 20
-64.34539999999834
 10
15.49379999999655
 20
-62.41899999999803
 10
16.78589999999531
 20
-60.2679999999964
 10
17.73149999999805
 20
-57.94379999999728
 10
18.30799999999726
 20
-55.50169999999707
 10
18.50169999999707
 20
-52.99999999999634
  0
LWPOLYLINE
  5
38612
330
3878A
100
AcDbEntity
  8
Level 4
  6
Continuous
 62
     7
370
     0
100
AcDbPolyline
 90
       11
 70
   128
 43
0.0
 10
-12.00010000000111
 20
-66.00059999999939
 10
-9.847300000001267
 20
-67.40839999999661
 10
-7.531600000002072
 20
-68.52829999999812
 10
-5.091300000000044
 20
-69.34169999999721
 10
-2.566800000004148
 20
-69.83519999999771
 10
0.0001999999985856
 20
-70.00069999999687
 10
2.567099999996571
 20
-69.83539999999994
 10
5.091699999997215
 20
-69.34200000000052
 10
7.53199999999924
 20
-68.52879999999641
 10
9.847799999995912
 20
-67.408999999996
 10
12.00069999999687
 20
-66.00140000000101
  0
ENDBLK
  5
3878C
330
3878A
100
AcDbEntity
  8
0
100
AcDbBlockEnd
  0
BLOCK
  5
3878E
330
3878D
100
AcDbEntity
  8
0
100
AcDbBlockBegin
  2
*U5
 70
     1
 10
0.0
 20
0.0
 30
0.0
  3
*U5
  1

  0
LWPOLYLINE
  5
38620
330
3878D
100
AcDbEntity
  8
0
  6
Continuous
 62
     7
370
     0
100
AcDbPolyline
 90
        3
 70
   128
 43
0.0
 10
-0.0270828726444847
 20
0.1504260149680476
 10
0.3401298840358891
 20
0.1504260149680476
 10
-0.3401465288575309
 20
-0.1504143034200638
  0
LINE
  5
38621
330
3878D
100
AcDbEntity
  8
0
  6
Continuous
 62
     7
370
     0
100
AcDbLine
 10
-0.3401465288575309
 20
-0.1504143034200638
 30
0.0
 11
-0.0270828726444847
 21
-0.1504143034200638
 31
0.0
  0
ENDBLK
  5
3878F
330
3878D
100
AcDbEntity
  8
0
100
AcDbBlockEnd
  0
BLOCK
  5
396E2
330
396E1
100
AcDbEntity
  8
0
100
AcDbBlockBegin
  2
*U6
 70
     1
 10
0.0
 20
0.0
 30
0.0
  3
*U6
  1

  0
ENDBLK
  5
396E3
330
396E1
100
AcDbEntity
  8
0
100
AcDbBlockEnd
  0
BLOCK
  5
396E5
330
396E4
100
AcDbEntity
  8
0
100
AcDbBlockBegin
  2
*U7
 70
     1
 10
0.0
 20
0.0
 30
0.0
  3
*U7
  1

  0
ENDBLK
  5
396E6
330
396E4
100
AcDbEntity
  8
0
100
AcDbBlockEnd
  0
BLOCK
  5
3984B
330
3984A
100
AcDbEntity
  8
0
100
AcDbBlockBegin
  2
*U8
 70
     1
 10
0.0
 20
0.0
 30
0.0
  3
*U8
  1

  0
ENDBLK
  5
3984C
330
3984A
100
AcDbEntity
  8
0
100
AcDbBlockEnd
  0
BLOCK
  5
3984E
330
3984D
100
AcDbEntity
  8
0
100
AcDbBlockBegin
  2
*U9
 70
     1
 10
0.0
 20
0.0
 30
0.0
  3
*U9
  1

  0
ENDBLK
  5
3984F
330
3984D
100
AcDbEntity
  8
0
100
AcDbBlockEnd
  0
BLOCK
  5
39851
330
39850
100
AcDbEntity
  8
0
100
AcDbBlockBegin
  2
*U10
 70
     1
 10
0.0
 20
0.0
 30
0.0
  3
*U10
  1

  0
ENDBLK
  5
39852
330
39850
100
AcDbEntity
  8
0
100
AcDbBlockEnd
  0
BLOCK
  5
39911
330
39910
100
AcDbEntity
  8
0
100
AcDbBlockBegin
  2
*U11
 70
     1
 10
0.0
 20
0.0
 30
0.0
  3
*U11
  1

  0
ENDBLK
  5
39912
330
39910
100
AcDbEntity
  8
0
100
AcDbBlockEnd
  0
BLOCK
  5
39914
330
39913
100
AcDbEntity
  8
0
100
AcDbBlockBegin
  2
*U12
 70
     1
 10
0.0
 20
0.0
 30
0.0
  3
*U12
  1

  0
ENDBLK
  5
39915
330
39913
100
AcDbEntity
  8
0
100
AcDbBlockEnd
  0
BLOCK
  5
39917
330
39916
100
AcDbEntity
  8
0
100
AcDbBlockBegin
  2
*U13
 70
     1
 10
0.0
 20
0.0
 30
0.0
  3
*U13
  1

  0
ENDBLK
  5
39918
330
39916
100
AcDbEntity
  8
0
100
AcDbBlockEnd
  0
BLOCK
  5
39BB6
330
39BB5
100
AcDbEntity
  8
0
100
AcDbBlockBegin
  2
*U14
 70
     1
 10
0.0
 20
0.0
 30
0.0
  3
*U14
  1

  0
ENDBLK
  5
39BB7
330
39BB5
100
AcDbEntity
  8
0
100
AcDbBlockEnd
  0
BLOCK
  5
39BB9
330
39BB8
100
AcDbEntity
  8
0
100
AcDbBlockBegin
  2
*U15
 70
     1
 10
0.0
 20
0.0
 30
0.0
  3
*U15
  1

  0
ENDBLK
  5
39BBA
330
39BB8
100
AcDbEntity
  8
0
100
AcDbBlockEnd
  0
BLOCK
  5
39BBC
330
39BBB
100
AcDbEntity
  8
0
100
AcDbBlockBegin
  2
*U16
 70
     1
 10
0.0
 20
0.0
 30
0.0
  3
*U16
  1

  0
ENDBLK
  5
39BBD
330
39BBB
100
AcDbEntity
  8
0
100
AcDbBlockEnd
  0
BLOCK
  5
39D1E
330
39D1D
100
AcDbEntity
  8
0
100
AcDbBlockBegin
  2
*U17
 70
     1
 10
0.0
 20
0.0
 30
0.0
  3
*U17
  1

  0
ENDBLK
  5
39D1F
330
39D1D
100
AcDbEntity
  8
0
100
AcDbBlockEnd
  0
BLOCK
  5
3BA61
330
3BA60
100
AcDbEntity
  8
0
100
AcDbBlockBegin
  2
*U18
 70
     1
 10
0.0
 20
0.0
 30
0.0
  3
*U18
  1

  0
ENDBLK
  5
3BA62
330
3BA60
100
AcDbEntity
  8
0
100
AcDbBlockEnd
  0
BLOCK
  5
3BA64
330
3BA63
100
AcDbEntity
  8
0
100
AcDbBlockBegin
  2
*U19
 70
     1
 10
0.0
 20
0.0
 30
0.0
  3
*U19
  1

  0
ENDBLK
  5
3BA65
330
3BA63
100
AcDbEntity
  8
0
100
AcDbBlockEnd
  0
BLOCK
  5
3BBCA
330
3BBC9
100
AcDbEntity
  8
0
100
AcDbBlockBegin
  2
*U20
 70
     1
 10
0.0
 20
0.0
 30
0.0
  3
*U20
  1

  0
ENDBLK
  5
3BBCB
330
3BBC9
100
AcDbEntity
  8
0
100
AcDbBlockEnd
  0
BLOCK
  5
3BBCD
330
3BBCC
100
AcDbEntity
  8
0
100
AcDbBlockBegin
  2
*U21
 70
     1
 10
0.0
 20
0.0
 30
0.0
  3
*U21
  1

  0
ENDBLK
  5
3BBCE
330
3BBCC
100
AcDbEntity
  8
0
100
AcDbBlockEnd
  0
BLOCK
  5
3BBD0
330
3BBCF
100
AcDbEntity
  8
0
100
AcDbBlockBegin
  2
*U22
 70
     1
 10
0.0
 20
0.0
 30
0.0
  3
*U22
  1

  0
ENDBLK
  5
3BBD1
330
3BBCF
100
AcDbEntity
  8
0
100
AcDbBlockEnd
  0
BLOCK
  5
3BC90
330
3BC8F
100
AcDbEntity
  8
0
100
AcDbBlockBegin
  2
*U23
 70
     1
 10
0.0
 20
0.0
 30
0.0
  3
*U23
  1

  0
ENDBLK
  5
3BC91
330
3BC8F
100
AcDbEntity
  8
0
100
AcDbBlockEnd
  0
BLOCK
  5
3BC93
330
3BC92
100
AcDbEntity
  8
0
100
AcDbBlockBegin
  2
*U24
 70
     1
 10
0.0
 20
0.0
 30
0.0
  3
*U24
  1

  0
ENDBLK
  5
3BC94
330
3BC92
100
AcDbEntity
  8
0
100
AcDbBlockEnd
  0
BLOCK
  5
3BC96
330
3BC95
100
AcDbEntity
  8
0
100
AcDbBlockBegin
  2
*U25
 70
     1
 10
0.0
 20
0.0
 30
0.0
  3
*U25
  1

  0
ENDBLK
  5
3BC97
330
3BC95
100
AcDbEntity
  8
0
100
AcDbBlockEnd
  0
BLOCK
  5
3BF35
330
3BF34
100
AcDbEntity
  8
0
100
AcDbBlockBegin
  2
*U26
 70
     1
 10
0.0
 20
0.0
 30
0.0
  3
*U26
  1

  0
ENDBLK
  5
3BF36
330
3BF34
100
AcDbEntity
  8
0
100
AcDbBlockEnd
  0
BLOCK
  5
3BF38
330
3BF37
100
AcDbEntity
  8
0
100
AcDbBlockBegin
  2
*U27
 70
     1
 10
0.0
 20
0.0
 30
0.0
  3
*U27
  1

  0
ENDBLK
  5
3BF39
330
3BF37
100
AcDbEntity
  8
0
100
AcDbBlockEnd
  0
BLOCK
  5
3BF3B
330
3BF3A
100
AcDbEntity
  8
0
100
AcDbBlockBegin
  2
*U28
 70
     1
 10
0.0
 20
0.0
 30
0.0
  3
*U28
  1

  0
ENDBLK
  5
3BF3C
330
3BF3A
100
AcDbEntity
  8
0
100
AcDbBlockEnd
  0
BLOCK
  5
3C09D
330
3C09C
100
AcDbEntity
  8
0
100
AcDbBlockBegin
  2
*U29
 70
     1
 10
0.0
 20
0.0
 30
0.0
  3
*U29
  1

  0
ENDBLK
  5
3C09E
330
3C09C
100
AcDbEntity
  8
0
100
AcDbBlockEnd
  0
ENDSEC
  0
SECTION
  2
ENTITIES
  0
LINE
  5
3AA48
330
3863E
100
AcDbEntity
  8
0
  6
Continuous
 62
     7
370
    30
100
AcDbLine
 10
29.53364246280779
 20
27.36363116287322
 30
0.0
 11
29.53364246280779
 21
21.99363116287321
 31
0.0
  0
LINE
  5
3AA49
330
3863E
100
AcDbEntity
  8
0
  6
Continuous
 62
     7
370
    30
100
AcDbLine
 10
29.8336424628078
 20
27.36363116287322
 30
0.0
 11
29.8336424628078
 21
21.99363116287321
 31
0.0
  0
LINE
  5
3AA4A
330
3863E
100
AcDbEntity
  8
0
  6
Continuous
 62
     7
370
    30
100
AcDbLine
 10
26.23364246280778
 20
16.39363116287325
 30
0.0
 11
27.9036424628078
 21
16.39363116287325
 31
0.0
  0
LINE
  5
3AA4B
330
3863E
100
AcDbEntity
  8
0
  6
Continuous
 62
     7
370
    30
100
AcDbLine
 10
26.23364246280778
 20
15.39363116287325
 30
0.0
 11
27.9036424628078
 21
15.39363116287325
 31
0.0
  0
LINE
  5
3AA4C
330
3863E
100
AcDbEntity
  8
0
  6
Continuous
 62
     7
370
    30
100
AcDbLine
 10
26.23364246280778
 20
16.39363116287325
 30
0.0
 11
26.23364246280778
 21
15.39363116287325
 31
0.0
  0
LINE
  5
3AA4D
330
3863E
100
AcDbEntity
  8
0
  6
Continuous
 62
     7
370
    30
100
AcDbLine
 10
21.13364246280776
 20
16.39363116287325
 30
0.0
 11
21.13364246280776
 21
15.54363116287322
 31
0.0
  0
LINE
  5
3AA4E
330
3863E
100
AcDbEntity
  8
0
  6
Continuous
 62
     7
370
    30
100
AcDbLine
 10
17.93364246280771
 20
16.39363116287325
 30
0.0
 11
17.93364246280771
 21
15.54363116287322
 31
0.0
  0
LINE
  5
3AA4F
330
3863E
100
AcDbEntity
  8
0
  6
Continuous
 62
     7
370
    30
100
AcDbLine
 10
21.13364246280776
 20
16.39363116287325
 30
0.0
 11
17.93364246280771
 21
16.39363116287325
 31
0.0
  0
LINE
  5
3AA50
330
3863E
100
AcDbEntity
  8
0
  6
Continuous
 62
     7
370
    30
100
AcDbLine
 10
21.13364246280776
 20
15.54363116287322
 30
0.0
 11
17.93364246280771
 21
15.54363116287322
 31
0.0
  0
LINE
  5
3AA51
330
3863E
100
AcDbEntity
  8
0
  6
Continuous
 62
     7
370
    30
100
AcDbLine
 10
12.83364246280774
 20
16.61363116287322
 30
0.0
 11
12.83364246280774
 21
15.45363116287319
 31
0.0
  0
LINE
  5
3AA52
330
3863E
100
AcDbEntity
  8
0
  6
Continuous
 62
     7
370
    30
100
AcDbLine
 10
9.733642462807722
 20
18.35363116287323
 30
0.0
 11
9.733642462807722
 21
16.10363116287323
 31
0.0
  0
LINE
  5
3AA53
330
3863E
100
AcDbEntity
  8
0
  6
Continuous
 62
     7
370
    30
100
AcDbLine
 10
6.333642462807743
 20
18.35363116287323
 30
0.0
 11
9.733642462807722
 21
18.35363116287323
 31
0.0
  0
LINE
  5
3AA54
330
3863E
100
AcDbEntity
  8
0
  6
Continuous
 62
     7
370
    30
100
AcDbLine
 10
9.733642462807722
 20
16.10363116287323
 30
0.0
 11
11.8136424628077
 21
16.10363116287323
 31
0.0
  0
LINE
  5
3AA55
330
3863E
100
AcDbEntity
  8
0
  6
Continuous
 62
     7
370
    30
100
AcDbLine
 10
11.8136424628077
 20
16.61363116287322
 30
0.0
 11
12.83364246280774
 21
16.61363116287322
 31
0.0
  0
LINE
  5
3AA56
330
3863E
100
AcDbEntity
  8
0
  6
Continuous
 62
     7
370
    30
100
AcDbLine
 10
12.23364246280772
 20
15.45363116287319
 30
0.0
 11
12.83364246280774
 21
15.45363116287319
 31
0.0
  0
LINE
  5
3AA57
330
3863E
100
AcDbEntity
  8
0
  6
Continuous
 62
     7
370
    30
100
AcDbLine
 10
12.23364246280772
 20
15.7536311628732
 30
0.0
 11
12.23364246280772
 21
15.45363116287319
 31
0.0
  0
LINE
  5
3AA58
330
3863E
100
AcDbEntity
  8
0
  6
Continuous
 62
     7
370
    30
100
AcDbLine
 10
9.733642462807722
 20
15.7536311628732
 30
0.0
 11
12.23364246280772
 21
15.7536311628732
 31
0.0
  0
LINE
  5
3AA59
330
3863E
100
AcDbEntity
  8
0
  6
Continuous
 62
     7
370
    30
100
AcDbLine
 10
9.733642462807722
 20
8.68363116287321
 30
0.0
 11
12.23364246280772
 21
8.68363116287321
 31
0.0
  0
LINE
  5
3AA5A
330
3863E
100
AcDbEntity
  8
0
  6
Continuous
 62
     7
370
    30
100
AcDbLine
 10
12.23364246280772
 20
9.983631162873223
 30
0.0
 11
12.6936424628077
 21
9.983631162873223
 31
0.0
  0
LINE
  5
3AA5B
330
3863E
100
AcDbEntity
  8
0
  6
Continuous
 62
     7
370
    30
100
AcDbLine
 10
12.23364246280772
 20
9.983631162873223
 30
0.0
 11
12.23364246280772
 21
8.68363116287321
 31
0.0
  0
LINE
  5
3AA5C
330
3863E
100
AcDbEntity
  8
0
  6
Continuous
 62
     7
370
    30
100
AcDbLine
 10
12.6936424628077
 20
9.983631162873223
 30
0.0
 11
12.6936424628077
 21
8.3836311628732
 31
0.0
  0
LINE
  5
3AA5D
330
3863E
100
AcDbEntity
  8
0
  6
Continuous
 62
     7
370
    30
100
AcDbLine
 10
9.733642462807722
 20
8.3836311628732
 30
0.0
 11
12.6936424628077
 21
8.3836311628732
 31
0.0
  0
LINE
  5
3AA5F
330
3863E
100
AcDbEntity
  8
0
  6
Continuous
 62
     7
370
    13
100
AcDbLine
 10
12.6936424628077
 20
8.68363116287321
 30
0.0
 11
17.93364246280771
 21
8.683631162873155
 31
0.0
  0
LINE
  5
3AA61
330
3863E
100
AcDbEntity
  8
0
  6
Continuous
 62
     7
370
    30
100
AcDbLine
 10
28.76364246280775
 20
16.39363116287325
 30
0.0
 11
28.76364246280775
 21
15.39363116287325
 31
0.0
  0
LINE
  5
3AA62
330
3863E
100
AcDbEntity
  8
0
  6
Continuous
 62
     7
370
    30
100
AcDbLine
 10
27.9036424628078
 20
16.39363116287325
 30
0.0
 11
27.9036424628078
 21
15.39363116287325
 31
0.0
  0
LINE
  5
3AA63
330
3863E
100
AcDbEntity
  8
0
  6
Continuous
 62
     7
370
    30
100
AcDbLine
 10
28.76364246280775
 20
16.39363116287325
 30
0.0
 11
29.53364246280785
 21
16.39363116287325
 31
0.0
  0
LINE
  5
3AA64
330
3863E
100
AcDbEntity
  8
0
  6
Continuous
 62
     7
370
    30
100
AcDbLine
 10
28.76364246280775
 20
15.39363116287325
 30
0.0
 11
29.53364246280785
 21
15.39363116287325
 31
0.0
  0
LINE
  5
3AA65
330
3863E
100
AcDbEntity
  8
0
  6
Continuous
 62
     7
370
    30
100
AcDbLine
 10
17.93364246280771
 20
9.983631162873223
 30
0.0
 11
18.73364246280766
 21
9.983631162873223
 31
0.0
  0
LINE
  5
3AA66
330
3863E
100
AcDbEntity
  8
0
  6
Continuous
 62
     7
370
    30
100
AcDbLine
 10
18.53364246280773
 20
9.383631162873198
 30
0.0
 11
18.53364246280773
 21
8.113631162873218
 31
0.0
  0
LINE
  5
3AA67
330
3863E
100
AcDbEntity
  8
0
  6
Continuous
 62
     7
370
    30
100
AcDbLine
 10
20.53364246280773
 20
9.383631162873198
 30
0.0
 11
20.53364246280773
 21
8.113631162873218
 31
0.0
  0
LINE
  5
3AA68
330
3863E
100
AcDbEntity
  8
0
  6
Continuous
 62
     7
370
    30
100
AcDbLine
 10
17.93364246280771
 20
8.113631162873218
 30
0.0
 11
18.53364246280773
 21
8.113631162873218
 31
0.0
  0
LINE
  5
3AA69
330
3863E
100
AcDbEntity
  8
0
  6
Continuous
 62
     7
370
    30
100
AcDbLine
 10
17.93364246280771
 20
9.983631162873223
 30
0.0
 11
17.93364246280771
 21
8.113631162873218
 31
0.0
  0
LINE
  5
3AA6A
330
3863E
100
AcDbEntity
  8
0
  6
Continuous
 62
     7
370
    30
100
AcDbLine
 10
21.1336424628077
 20
9.983631162873223
 30
0.0
 11
21.1336424628077
 21
8.113631162873218
 31
0.0
  0
LINE
  5
3AA6B
330
3863E
100
AcDbEntity
  8
0
  6
Continuous
 62
     7
370
    13
100
AcDbLine
 10
21.1336424628077
 20
8.683631162873155
 30
0.0
 11
26.22364246280779
 21
8.683631162873098
 31
0.0
  0
LINE
  5
3AA6C
330
3863E
100
AcDbEntity
  8
0
  6
Continuous
 62
     7
370
    30
100
AcDbLine
 10
26.22364246280779
 20
8.3836311628732
 30
0.0
 11
29.8336424628078
 21
8.3836311628732
 31
0.0
  0
LINE
  5
3AA6D
330
3863E
100
AcDbEntity
  8
0
  6
Continuous
 62
     7
370
    30
100
AcDbLine
 10
20.53364246280773
 20
8.113631162873218
 30
0.0
 11
21.1336424628077
 21
8.113631162873218
 31
0.0
  0
LINE
  5
3AA6E
330
3863E
100
AcDbEntity
  8
0
  6
Continuous
 62
     7
370
    30
100
AcDbLine
 10
18.53364246280773
 20
9.383631162873198
 30
0.0
 11
18.73364246280766
 21
9.383631162873198
 31
0.0
  0
LINE
  5
3AA6F
330
3863E
100
AcDbEntity
  8
0
  6
Continuous
 62
     7
370
    30
100
AcDbLine
 10
6.333642462807743
 20
18.35363116287323
 30
0.0
 11
6.333642462807743
 21
16.55363116287321
 31
0.0
  0
LINE
  5
3AA70
330
3863E
100
AcDbEntity
  8
0
  6
Continuous
 62
     7
370
    30
100
AcDbLine
 10
4.503642462807761
 20
16.55363116287321
 30
0.0
 11
4.763642462807695
 21
16.55363116287321
 31
0.0
  0
LINE
  5
3AA71
330
3863E
100
AcDbEntity
  8
0
  6
Continuous
 62
     7
370
    30
100
AcDbLine
 10
4.503642462807761
 20
18.35363116287323
 30
0.0
 11
4.503642462807761
 21
16.55363116287321
 31
0.0
  0
LINE
  5
3AA72
330
3863E
100
AcDbEntity
  8
0
  6
Continuous
 62
     7
370
    30
100
AcDbLine
 10
4.503642462807761
 20
15.55363116287322
 30
0.0
 11
4.763642462807695
 21
15.55363116287322
 31
0.0
  0
LINE
  5
3AA73
330
3863E
100
AcDbEntity
  8
0
  6
Continuous
 62
     7
370
    30
100
AcDbLine
 10
4.503642462807761
 20
10.03363116287323
 30
0.0
 11
4.763642462807695
 21
10.03363116287323
 31
0.0
  0
LINE
  5
3AA74
330
3863E
100
AcDbEntity
  8
0
  6
Continuous
 62
     7
370
    30
100
AcDbLine
 10
4.578642462807806
 20
9.733631162873223
 30
0.0
 11
4.763642462807695
 21
9.733631162873223
 31
0.0
  0
LINE
  5
3AA75
330
3863E
100
AcDbEntity
  8
0
  6
Continuous
 62
     7
370
    30
100
AcDbLine
 10
6.258642462807755
 20
7.933631162873211
 30
0.0
 11
9.733642462807722
 21
7.933631162873211
 31
0.0
  0
LINE
  5
3AA76
330
3863E
100
AcDbEntity
  8
0
  6
Continuous
 62
     7
370
    30
100
AcDbLine
 10
6.858642462807722
 20
17.83363116287324
 30
0.0
 11
6.858642462807722
 21
16.55363116287321
 31
0.0
  0
LINE
  5
3AA77
330
3863E
100
AcDbEntity
  8
0
  6
Continuous
 62
     7
370
    30
100
AcDbLine
 10
9.208642462807803
 20
17.83363116287324
 30
0.0
 11
9.208642462807803
 21
12.88363116287326
 31
0.0
  0
LINE
  5
3AA78
330
3863E
100
AcDbEntity
  8
0
  6
Continuous
 62
     7
370
    30
100
AcDbLine
 10
6.858642462807722
 20
17.83363116287324
 30
0.0
 11
9.208642462807803
 21
17.83363116287324
 31
0.0
  0
LINE
  5
3AA79
330
3863E
100
AcDbEntity
  8
0
  6
Continuous
 62
     7
370
    30
100
AcDbLine
 10
7.178642462807772
 20
16.55363116287321
 30
0.0
 11
7.178642462807772
 21
15.55363116287322
 31
0.0
  0
LINE
  5
3AA7A
330
3863E
100
AcDbEntity
  8
0
  6
Continuous
 62
     7
370
    30
100
AcDbLine
 10
6.333642462807743
 20
12.88363116287326
 30
0.0
 11
9.208642462807803
 21
12.88363116287326
 31
0.0
  0
LINE
  5
3AA7B
330
3863E
100
AcDbEntity
  8
0
  6
Continuous
 62
     7
370
    30
100
AcDbLine
 10
7.158642462807788
 20
8.233631162873223
 30
0.0
 11
9.208642462807803
 21
8.233631162873223
 31
0.0
  0
LINE
  5
3AA7C
330
3863E
100
AcDbEntity
  8
0
  6
Continuous
 62
     7
370
    30
100
AcDbLine
 10
17.90364246280779
 20
21.99363116287321
 30
0.0
 11
17.90364246280779
 21
27.36363116287322
 31
0.0
  0
LINE
  5
3AA7D
330
3863E
100
AcDbEntity
  8
0
  6
Continuous
 62
     7
370
    30
100
AcDbLine
 10
7.113642462807717
 20
21.99363116287321
 30
0.0
 11
7.113642462807717
 21
27.36363116287322
 31
0.0
  0
LINE
  5
3AA7E
330
3863E
100
AcDbEntity
  8
0
  6
Continuous
 62
     7
370
    30
100
AcDbLine
 10
25.07364246280781
 20
21.99363116287321
 30
0.0
 11
25.07364246280781
 21
21.65363116287324
 31
0.0
  0
LINE
  5
3AA7F
330
3863E
100
AcDbEntity
  8
0
  6
Continuous
 62
     7
370
    30
100
AcDbLine
 10
25.8936424628078
 20
21.99363116287321
 30
0.0
 11
25.8936424628078
 21
21.65363116287324
 31
0.0
  0
LINE
  5
3AA80
330
3863E
100
AcDbEntity
  8
0
  6
Continuous
 62
     7
370
    30
100
AcDbLine
 10
11.8136424628077
 20
16.61363116287322
 30
0.0
 11
11.8136424628077
 21
16.10363116287323
 31
0.0
  0
LINE
  5
3AA81
330
3863E
100
AcDbEntity
  8
0
  6
Continuous
 62
     7
370
    30
100
AcDbLine
 10
18.20364246280781
 20
21.99363116287321
 30
0.0
 11
18.20364246280781
 21
27.36363116287322
 31
0.0
  0
LINE
  5
3AA82
330
3863E
100
AcDbEntity
  8
0
  6
Continuous
 62
     7
370
    13
100
AcDbLine
 10
26.59364246280779
 20
24.6336311628732
 30
0.0
 11
29.53364246280785
 21
24.6336311628732
 31
0.0
  0
LINE
  5
3AA83
330
3863E
100
AcDbEntity
  8
0
  6
Continuous
 62
     7
370
    13
100
AcDbLine
 10
26.44364246280782
 20
24.8836311628732
 30
0.0
 11
29.53364246280785
 21
24.8836311628732
 31
0.0
  0
LINE
  5
3AA84
330
3863E
100
AcDbEntity
  8
0
  6
Continuous
 62
     7
370
    13
100
AcDbLine
 10
24.94364246280782
 20
27.36363116287322
 30
0.0
 11
24.94364246280782
 21
26.02363116287325
 31
0.0
  0
LINE
  5
3AA85
330
3863E
100
AcDbEntity
  8
0
  6
Continuous
 62
     7
370
    13
100
AcDbLine
 10
24.79364246280785
 20
27.36363116287322
 30
0.0
 11
24.79364246280785
 21
25.87363116287327
 31
0.0
  0
LINE
  5
3AA86
330
3863E
100
AcDbEntity
  8
0
  6
Continuous
 62
     7
370
    13
100
AcDbLine
 10
24.94364246280782
 20
26.02363116287325
 30
0.0
 11
25.14364246280775
 21
26.02363116287325
 31
0.0
  0
LINE
  5
3AA87
330
3863E
100
AcDbEntity
  8
0
  6
Continuous
 62
     7
370
    13
100
AcDbLine
 10
24.79364246280785
 20
25.87363116287327
 30
0.0
 11
25.14364246280775
 21
25.87363116287327
 31
0.0
  0
LINE
  5
3AA88
330
3863E
100
AcDbEntity
  8
0
  6
Continuous
 62
     7
370
    13
100
AcDbLine
 10
25.07364246280781
 20
25.87363116287327
 30
0.0
 11
25.07364246280781
 21
25.72363116287318
 31
0.0
  0
LINE
  5
3AA89
330
3863E
100
AcDbEntity
  8
0
  6
Continuous
 62
     7
370
    13
100
AcDbLine
 10
24.92364246280784
 20
25.87363116287327
 30
0.0
 11
24.92364246280784
 21
25.72363116287318
 31
0.0
  0
LINE
  5
3AA8A
330
3863E
100
AcDbEntity
  8
0
  6
Continuous
 62
     7
370
    13
100
AcDbLine
 10
21.73364246280784
 20
24.92363116287317
 30
0.0
 11
21.73364246280784
 21
21.99363116287321
 31
0.0
  0
LINE
  5
3AA8B
330
3863E
100
AcDbEntity
  8
0
  6
Continuous
 62
     7
370
    13
100
AcDbLine
 10
21.07364246280781
 20
24.77363116287319
 30
0.0
 11
21.73364246280784
 21
24.77363116287319
 31
0.0
  0
LINE
  5
3AA8C
330
3863E
100
AcDbEntity
  8
0
  6
Continuous
 62
     7
370
    30
100
AcDbLine
 10
21.07364246280781
 20
27.36363116287322
 30
0.0
 11
21.07364246280781
 21
21.99363116287321
 31
0.0
  0
LINE
  5
3AA8D
330
3863E
100
AcDbEntity
  8
0
  6
Continuous
 62
     7
370
    13
100
AcDbLine
 10
21.07364246280781
 20
24.92363116287317
 30
0.0
 11
21.73364246280784
 21
24.92363116287317
 31
0.0
  0
LINE
  5
3AA8E
330
3863E
100
AcDbEntity
  8
0
  6
Continuous
 62
     7
370
    30
100
AcDbLine
 10
20.7736424628078
 20
27.36363116287322
 30
0.0
 11
20.7736424628078
 21
21.99363116287321
 31
0.0
  0
LINE
  5
3AA8F
330
3863E
100
AcDbEntity
  8
0
  6
Continuous
 62
     7
370
    13
100
AcDbLine
 10
26.37364246280777
 20
11.75363116287326
 30
0.0
 11
27.33364246280775
 21
11.75363116287326
 31
0.0
  0
LINE
  5
3AA90
330
3863E
100
AcDbEntity
  8
0
  6
Continuous
 62
     7
370
    13
100
AcDbLine
 10
26.37364246280777
 20
15.39363116287325
 30
0.0
 11
26.37364246280777
 21
9.743631162873272
 31
0.0
  0
LINE
  5
3AA91
330
3863E
100
AcDbEntity
  8
0
  6
Continuous
 62
     7
370
    13
100
AcDbLine
 10
26.37364246280777
 20
11.60363116287328
 30
0.0
 11
27.33364246280775
 21
11.60363116287328
 31
0.0
  0
LINE
  5
3AA92
330
3863E
100
AcDbEntity
  8
0
  6
Continuous
 62
     7
370
    30
100
AcDbLine
 10
26.22364246280779
 20
9.743631162873272
 30
0.0
 11
29.8336424628078
 21
9.743631162873272
 31
0.0
  0
LINE
  5
3AA93
330
3863E
100
AcDbEntity
  8
0
  6
Continuous
 62
     7
370
    13
100
AcDbLine
 10
26.22364246280779
 20
15.39363116287325
 30
0.0
 11
26.22364246280779
 21
9.743631162873272
 31
0.0
  0
LINE
  5
3AA94
330
3863E
100
AcDbEntity
  8
0
  6
Continuous
 62
     7
370
    30
100
AcDbLine
 10
26.52364246280781
 20
9.443631162873259
 30
0.0
 11
29.8336424628078
 21
9.443631162873259
 31
0.0
  0
LINE
  5
3AA95
330
3863E
100
AcDbEntity
  8
0
  6
Continuous
 62
     7
370
    30
100
AcDbLine
 10
26.52364246280781
 20
9.443631162873259
 30
0.0
 11
26.52364246280781
 21
8.3836311628732
 31
0.0
  0
LINE
  5
3AA96
330
3863E
100
AcDbEntity
  8
0
  6
Continuous
 62
     7
370
    30
100
AcDbLine
 10
26.22364246280779
 20
9.743631162873272
 30
0.0
 11
26.22364246280779
 21
8.3836311628732
 31
0.0
  0
LINE
  5
3AA97
330
3863E
100
AcDbEntity
  8
0
  6
Continuous
 62
     7
370
    30
100
AcDbLine
 10
26.52364246280781
 20
8.683631162873098
 30
0.0
 11
29.53364246280779
 21
8.683631162873039
 31
0.0
  0
LINE
  5
3AA98
330
3863E
100
AcDbEntity
  8
0
  6
Continuous
 62
     7
370
    30
100
AcDbLine
 10
29.53364246280779
 20
9.443631162873259
 30
0.0
 11
29.53364246280779
 21
8.683631162873039
 31
0.0
  0
LINE
  5
3AA99
330
3863E
100
AcDbEntity
  8
0
  6
Continuous
 62
     7
370
    30
100
AcDbLine
 10
29.8336424628078
 20
9.743631162873272
 30
0.0
 11
29.8336424628078
 21
8.3836311628732
 31
0.0
  0
LINE
  5
3AA9A
330
3863E
100
AcDbEntity
  8
0
  6
Continuous
 62
     7
370
    30
100
AcDbLine
 10
29.53364246280779
 20
11.60363116287328
 30
0.0
 11
29.8336424628078
 21
11.60363116287328
 31
0.0
  0
LINE
  5
3AA9B
330
3863E
100
AcDbEntity
  8
0
  6
Continuous
 62
     7
370
    13
100
AcDbLine
 10
29.8336424628078
 20
11.60363116287328
 30
0.0
 11
29.8336424628078
 21
11.47363116287329
 31
0.0
  0
LINE
  5
3AA9C
330
3863E
100
AcDbEntity
  8
0
  6
Continuous
 62
     7
370
    13
100
AcDbLine
 10
29.68364246280783
 20
11.60363116287328
 30
0.0
 11
29.68364246280783
 21
11.47363116287329
 31
0.0
  0
LINE
  5
3AA9D
330
3863E
100
AcDbEntity
  8
0
  6
Continuous
 62
     7
370
    30
100
AcDbLine
 10
6.858642462807722
 20
12.42363116287322
 30
0.0
 11
9.208642462807803
 21
12.42363116287322
 31
0.0
  0
LINE
  5
3AA9E
330
3863E
100
AcDbEntity
  8
0
  6
Continuous
 62
     7
370
    30
100
AcDbLine
 10
6.333642462807743
 20
12.88363116287326
 30
0.0
 11
6.333642462807743
 21
12.12363116287321
 31
0.0
  0
LINE
  5
3AA9F
330
3863E
100
AcDbEntity
  8
0
  6
Continuous
 62
     7
370
    30
100
AcDbLine
 10
6.333642462807743
 20
13.66363116287323
 30
0.0
 11
6.858642462807722
 21
13.66363116287323
 31
0.0
  0
LINE
  5
3AAA0
330
3863E
100
AcDbEntity
  8
0
  6
Continuous
 62
     7
370
    30
100
AcDbLine
 10
6.333642462807743
 20
12.12363116287321
 30
0.0
 11
6.858642462807722
 21
12.12363116287321
 31
0.0
  0
LINE
  5
3AAA1
330
3863E
100
AcDbEntity
  8
0
  6
Continuous
 62
     7
370
    30
100
AcDbLine
 10
6.333642462807743
 20
11.31363116287321
 30
0.0
 11
6.858642462807722
 21
11.31363116287321
 31
0.0
  0
LINE
  5
3AAA2
330
3863E
100
AcDbEntity
  8
0
  6
Continuous
 62
     7
370
    30
100
AcDbLine
 10
6.333642462807743
 20
11.31363116287321
 30
0.0
 11
6.333642462807743
 21
10.03363116287323
 31
0.0
  0
LINE
  5
3AAA3
330
3863E
100
AcDbEntity
  8
0
  6
Continuous
 62
     7
370
    30
100
AcDbLine
 10
6.858642462807722
 20
11.31363116287321
 30
0.0
 11
6.858642462807722
 21
9.923631162873221
 31
0.0
  0
LINE
  5
3AAA4
330
3863E
100
AcDbEntity
  8
0
  6
Continuous
 62
     7
370
    30
100
AcDbLine
 10
6.858642462807722
 20
12.42363116287322
 30
0.0
 11
6.858642462807722
 21
12.12363116287321
 31
0.0
  0
LINE
  5
3AAA5
330
3863E
100
AcDbEntity
  8
0
  6
Continuous
 62
     7
370
    30
100
AcDbLine
 10
4.578642462807806
 20
9.733631162873223
 30
0.0
 11
4.578642462807806
 21
7.933631162873211
 31
0.0
  0
LINE
  5
3AAA6
330
3863E
100
AcDbEntity
  8
0
  6
Continuous
 62
     7
370
    30
100
AcDbLine
 10
6.258642462807755
 20
9.733631162873223
 30
0.0
 11
6.258642462807755
 21
7.933631162873211
 31
0.0
  0
LINE
  5
3AAA7
330
3863E
100
AcDbEntity
  8
0
  6
Continuous
 62
     7
370
    30
100
AcDbLine
 10
6.813642462807762
 20
21.99363116287321
 30
0.0
 11
6.813642462807762
 21
27.36363116287322
 31
0.0
  0
LINE
  5
3AAA8
330
3863E
100
AcDbEntity
  8
0
  6
Continuous
 62
     7
370
    30
100
AcDbLine
 10
5.453642462807806
 20
21.65363116287324
 30
0.0
 11
5.453642462807806
 21
21.40363116287324
 31
0.0
  0
LINE
  5
3AAA9
330
3863E
100
AcDbEntity
  8
0
  6
Continuous
 62
     7
370
    30
100
AcDbLine
 10
6.31364246280782
 20
21.65363116287324
 30
0.0
 11
6.31364246280782
 21
21.40363116287324
 31
0.0
  0
LINE
  5
3AAAA
330
3863E
100
AcDbEntity
  8
0
  6
Continuous
 62
     7
370
    30
100
AcDbLine
 10
5.453642462807806
 20
21.40363116287324
 30
0.0
 11
6.31364246280782
 21
21.40363116287324
 31
0.0
  0
LINE
  5
3AAAB
330
3863E
100
AcDbEntity
  8
0
  6
Continuous
 62
     7
370
     0
100
AcDbLine
 10
19.40364246280779
 20
23.26363116287325
 30
0.0
 11
19.40364246280779
 21
25.96363116287324
 31
0.0
  0
LINE
  5
3AAAC
330
3863E
100
AcDbEntity
  8
0
  6
Continuous
 62
     7
370
     0
100
AcDbLine
 10
19.5736424628078
 20
23.72075933132419
 30
0.0
 11
20.7736424628078
 21
25.1357593313241
 31
0.0
  0
LINE
  5
3AAAD
330
3863E
100
AcDbEntity
  8
0
  6
Continuous
 62
     7
370
     0
100
AcDbLine
 10
18.20364246280781
 20
25.96363116287324
 30
0.0
 11
19.40364246280779
 21
25.96363116287324
 31
0.0
  0
LINE
  5
3AAAE
330
3863E
100
AcDbEntity
  8
0
  6
Continuous
 62
     7
370
     0
100
AcDbLine
 10
18.20364246280781
 20
25.66363116287323
 30
0.0
 11
19.40364246280779
 21
25.66363116287323
 31
0.0
  0
LINE
  5
3AAAF
330
3863E
100
AcDbEntity
  8
0
  6
Continuous
 62
     7
370
     0
100
AcDbLine
 10
18.20364246280781
 20
25.36363116287322
 30
0.0
 11
19.40364246280779
 21
25.36363116287322
 31
0.0
  0
LINE
  5
3AAB0
330
3863E
100
AcDbEntity
  8
0
  6
Continuous
 62
     7
370
     0
100
AcDbLine
 10
18.20364246280781
 20
25.06363116287327
 30
0.0
 11
19.40364246280779
 21
25.06363116287327
 31
0.0
  0
LINE
  5
3AAB1
330
3863E
100
AcDbEntity
  8
0
  6
Continuous
 62
     7
370
     0
100
AcDbLine
 10
18.20364246280781
 20
24.76363116287326
 30
0.0
 11
19.40364246280779
 21
24.76363116287326
 31
0.0
  0
LINE
  5
3AAB2
330
3863E
100
AcDbEntity
  8
0
  6
Continuous
 62
     7
370
     0
100
AcDbLine
 10
19.5736424628078
 20
23.72075933132419
 30
0.0
 11
19.5736424628078
 21
23.26363116287331
 31
0.0
  0
LINE
  5
3AAB3
330
3863E
100
AcDbEntity
  8
0
  6
Continuous
 62
     7
370
     0
100
AcDbLine
 10
18.20364246280781
 20
24.46363116287324
 30
0.0
 11
19.40364246280779
 21
24.46363116287324
 31
0.0
  0
LINE
  5
3AAB4
330
3863E
100
AcDbEntity
  8
0
  6
Continuous
 62
     7
370
     0
100
AcDbLine
 10
18.20364246280781
 20
24.16363116287323
 30
0.0
 11
19.40364246280779
 21
24.16363116287323
 31
0.0
  0
LINE
  5
3AAB5
330
3863E
100
AcDbEntity
  8
0
  6
Continuous
 62
     7
370
     0
100
AcDbLine
 10
18.20364246280781
 20
23.86363116287322
 30
0.0
 11
19.40364246280779
 21
23.86363116287322
 31
0.0
  0
LINE
  5
3AAB6
330
3863E
100
AcDbEntity
  8
0
  6
Continuous
 62
     7
370
     0
100
AcDbLine
 10
18.20364246280781
 20
23.56363116287326
 30
0.0
 11
19.40364246280779
 21
23.56363116287326
 31
0.0
  0
LINE
  5
3AAB7
330
3863E
100
AcDbEntity
  8
0
  6
Continuous
 62
     7
370
     0
100
AcDbLine
 10
18.20364246280781
 20
23.26363116287325
 30
0.0
 11
20.7736424628078
 21
23.26363116287325
 31
0.0
  0
LINE
  5
3AAB8
330
3863E
100
AcDbEntity
  8
0
  6
Continuous
 62
     7
370
     0
100
AcDbLine
 10
20.20363977578234
 20
24.46363116287324
 30
0.0
 11
20.7736424628078
 21
24.46363116287324
 31
0.0
  0
LINE
  5
3AAB9
330
3863E
100
AcDbEntity
  8
0
  6
Continuous
 62
     7
370
     0
100
AcDbLine
 10
19.94922281465153
 20
24.16363116287323
 30
0.0
 11
20.7736424628078
 21
24.16363116287323
 31
0.0
  0
LINE
  5
3AABA
330
3863E
100
AcDbEntity
  8
0
  6
Continuous
 62
     7
370
     0
100
AcDbLine
 10
19.69480585352073
 20
23.86363116287322
 30
0.0
 11
20.7736424628078
 21
23.86363116287322
 31
0.0
  0
LINE
  5
3AABB
330
3863E
100
AcDbEntity
  8
0
  6
Continuous
 62
     7
370
     0
100
AcDbLine
 10
19.5736424628078
 20
23.56363116287326
 30
0.0
 11
20.7736424628078
 21
23.56363116287326
 31
0.0
  0
LINE
  5
3AAC1
330
3863E
100
AcDbEntity
  8
0
  6
Continuous
 62
     7
370
    30
100
AcDbLine
 10
18.88864246280775
 20
27.36363116287322
 30
0.0
 11
18.88864246280775
 21
27.66363116287323
 31
0.0
  0
LINE
  5
3AAC2
330
3863E
100
AcDbEntity
  8
0
  6
Continuous
 62
     7
370
    30
100
AcDbLine
 10
20.0886424628078
 20
27.36363116287322
 30
0.0
 11
20.0886424628078
 21
27.66363116287323
 31
0.0
  0
LINE
  5
3AAC3
330
3863E
100
AcDbEntity
  8
0
  6
Continuous
 62
     7
370
    30
100
AcDbLine
 10
20.0886424628078
 20
27.66363116287323
 30
0.0
 11
21.67364246280783
 21
27.66363116287323
 31
0.0
  0
LINE
  5
3AAC4
330
3863E
100
AcDbEntity
  8
0
  6
Continuous
 62
     7
370
    30
100
AcDbLine
 10
20.0886424628078
 20
27.36363116287322
 30
0.0
 11
21.67364246280783
 21
27.36363116287322
 31
0.0
  0
LINE
  5
3AAC5
330
3863E
100
AcDbEntity
  8
0
  6
Continuous
 62
     7
370
    13
100
AcDbLine
 10
18.88864246280775
 20
27.66363116287323
 30
0.0
 11
20.0886424628078
 21
27.66363116287323
 31
0.0
  0
LINE
  5
3AAC6
330
3863E
100
AcDbEntity
  8
0
  6
Continuous
 62
     7
370
    13
100
AcDbLine
 10
20.0886424628078
 20
27.36363116287322
 30
0.0
 11
18.88864246280775
 21
27.36363116287322
 31
0.0
  0
LINE
  5
3AAC7
330
3863E
100
AcDbEntity
  8
0
  6
Continuous
 62
     7
370
    13
100
AcDbLine
 10
19.48864246280782
 20
27.89944171393103
 30
0.0
 11
19.48864246280782
 21
27.06077670884372
 31
0.0
  0
LINE
  5
3AAC8
330
3863E
100
AcDbEntity
  8
0
  6
Continuous
 62
     7
370
    13
100
AcDbLine
 10
21.5836424628078
 20
24.77363116287319
 30
0.0
 11
21.5836424628078
 21
21.99363116287321
 31
0.0
  0
LINE
  5
3AAC9
330
3863E
100
AcDbEntity
  8
0
  6
Continuous
 62
     7
370
    30
100
AcDbLine
 10
6.333642462807743
 20
15.55363116287322
 30
0.0
 11
6.333642462807743
 21
13.66363116287323
 31
0.0
  0
LINE
  5
3AACA
330
3863E
100
AcDbEntity
  8
0
  6
Continuous
 62
     7
370
    30
100
AcDbLine
 10
6.858642462807722
 20
15.55363116287322
 30
0.0
 11
6.858642462807722
 21
13.66363116287323
 31
0.0
  0
LINE
  5
3AACB
330
3863E
100
AcDbEntity
  8
0
  6
Continuous
 62
     7
370
    30
100
AcDbLine
 10
5.963642462807738
 20
16.55363116287321
 30
0.0
 11
6.333642462807743
 21
16.55363116287321
 31
0.0
  0
LINE
  5
3AACC
330
3863E
100
AcDbEntity
  8
0
  6
Continuous
 62
     7
370
    30
100
AcDbLine
 10
5.963642462807738
 20
15.55363116287322
 30
0.0
 11
6.333642462807743
 21
15.55363116287322
 31
0.0
  0
LINE
  5
3AACD
330
3863E
100
AcDbEntity
  8
0
  6
Continuous
 62
     7
370
    30
100
AcDbLine
 10
18.73364246280766
 20
9.383631162873198
 30
0.0
 11
18.73364246280766
 21
9.983631162873223
 31
0.0
  0
LINE
  5
3AACE
330
3863E
100
AcDbEntity
  8
0
  6
Continuous
 62
     7
370
    30
100
AcDbLine
 10
20.33364246280775
 20
9.383631162873198
 30
0.0
 11
20.33364246280775
 21
9.983631162873223
 31
0.0
  0
LINE
  5
3AACF
330
3863E
100
AcDbEntity
  8
0
  6
Continuous
 62
     7
370
    30
100
AcDbLine
 10
20.33364246280775
 20
9.983631162873223
 30
0.0
 11
21.1336424628077
 21
9.983631162873223
 31
0.0
  0
LINE
  5
3AAD0
330
3863E
100
AcDbEntity
  8
0
  6
Continuous
 62
     7
370
    30
100
AcDbLine
 10
20.33364246280775
 20
9.383631162873198
 30
0.0
 11
20.53364246280773
 21
9.383631162873198
 31
0.0
  0
LINE
  5
3AAD1
330
3863E
100
AcDbEntity
  8
0
  6
Continuous
 62
     7
370
     0
100
AcDbLine
 10
18.73364246280766
 20
9.683631162873268
 30
0.0
 11
20.33364246280775
 21
9.683631162873268
 31
0.0
  0
LINE
  5
3AAD2
330
3863E
100
AcDbEntity
  8
0
  6
Continuous
 62
     7
370
     0
100
AcDbLine
 10
20.53364246280773
 20
8.3836311628732
 30
0.0
 11
18.53364246280773
 21
8.3836311628732
 31
0.0
  0
LINE
  5
3AAD3
330
3863E
100
AcDbEntity
  8
0
  6
Continuous
 62
     7
370
    30
100
AcDbLine
 10
27.61364246280789
 20
27.36363116287322
 30
0.0
 11
27.61364246280789
 21
27.66363116287323
 31
0.0
  0
LINE
  5
3AAD4
330
3863E
100
AcDbEntity
  8
0
  6
Continuous
 62
     7
370
    30
100
AcDbLine
 10
28.51364246280787
 20
27.36363116287322
 30
0.0
 11
28.51364246280787
 21
27.66363116287323
 31
0.0
  0
LINE
  5
3AAD5
330
3863E
100
AcDbEntity
  8
0
  6
Continuous
 62
     7
370
    13
100
AcDbLine
 10
27.61364246280789
 20
27.66363116287323
 30
0.0
 11
28.51364246280787
 21
27.66363116287323
 31
0.0
  0
LINE
  5
3AAD6
330
3863E
100
AcDbEntity
  8
0
  6
Continuous
 62
     7
370
    13
100
AcDbLine
 10
28.51364246280787
 20
27.36363116287322
 30
0.0
 11
27.61364246280789
 21
27.36363116287322
 31
0.0
  0
LINE
  5
3AAD7
330
3863E
100
AcDbEntity
  8
0
  6
Continuous
 62
     7
370
     0
100
AcDbLine
 10
27.61364246280789
 20
27.60363116287323
 30
0.0
 11
28.51364246280787
 21
27.60363116287323
 31
0.0
  0
LINE
  5
3AAD8
330
3863E
100
AcDbEntity
  8
0
  6
Continuous
 62
     7
370
     0
100
AcDbLine
 10
27.61364246280789
 20
27.54363116287322
 30
0.0
 11
28.51364246280787
 21
27.54363116287322
 31
0.0
  0
LINE
  5
3AAD9
330
3863E
100
AcDbEntity
  8
0
  6
Continuous
 62
     7
370
    30
100
AcDbLine
 10
22.57364246280781
 20
27.36363116287322
 30
0.0
 11
25.19364246280782
 21
27.36363116287322
 31
0.0
  0
LINE
  5
3AADA
330
3863E
100
AcDbEntity
  8
0
  6
Continuous
 62
     7
370
    30
100
AcDbLine
 10
22.57364246280781
 20
27.66363116287323
 30
0.0
 11
25.19364246280782
 21
27.66363116287323
 31
0.0
  0
LINE
  5
3AADB
330
3863E
100
AcDbEntity
  8
0
  6
Continuous
 62
     7
370
    30
100
AcDbLine
 10
21.67364246280783
 20
27.36363116287322
 30
0.0
 11
21.67364246280783
 21
27.66363116287323
 31
0.0
  0
LINE
  5
3AADC
330
3863E
100
AcDbEntity
  8
0
  6
Continuous
 62
     7
370
    30
100
AcDbLine
 10
22.57364246280781
 20
27.36363116287322
 30
0.0
 11
22.57364246280781
 21
27.66363116287323
 31
0.0
  0
LINE
  5
3AADD
330
3863E
100
AcDbEntity
  8
0
  6
Continuous
 62
     7
370
    13
100
AcDbLine
 10
21.67364246280783
 20
27.66363116287323
 30
0.0
 11
22.57364246280781
 21
27.66363116287323
 31
0.0
  0
LINE
  5
3AADE
330
3863E
100
AcDbEntity
  8
0
  6
Continuous
 62
     7
370
    13
100
AcDbLine
 10
22.57364246280781
 20
27.36363116287322
 30
0.0
 11
21.67364246280783
 21
27.36363116287322
 31
0.0
  0
LINE
  5
3AADF
330
3863E
100
AcDbEntity
  8
0
  6
Continuous
 62
     7
370
     0
100
AcDbLine
 10
21.67364246280783
 20
27.60363116287323
 30
0.0
 11
22.57364246280781
 21
27.60363116287323
 31
0.0
  0
LINE
  5
3AAE0
330
3863E
100
AcDbEntity
  8
0
  6
Continuous
 62
     7
370
     0
100
AcDbLine
 10
21.67364246280783
 20
27.54363116287322
 30
0.0
 11
22.57364246280781
 21
27.54363116287322
 31
0.0
  0
LINE
  5
3AAE1
330
3863E
100
AcDbEntity
  8
0
  6
Continuous
 62
     7
370
    30
100
AcDbLine
 10
25.19364246280782
 20
27.36363116287322
 30
0.0
 11
25.19364246280782
 21
27.66363116287323
 31
0.0
  0
LINE
  5
3AAE2
330
3863E
100
AcDbEntity
  8
0
  6
Continuous
 62
     7
370
    30
100
AcDbLine
 10
26.19364246280782
 20
27.36363116287322
 30
0.0
 11
26.19364246280782
 21
27.66363116287323
 31
0.0
  0
LINE
  5
3AAE3
330
3863E
100
AcDbEntity
  8
0
  6
Continuous
 62
     7
370
    30
100
AcDbLine
 10
26.19364246280782
 20
27.66363116287323
 30
0.0
 11
27.61364246280789
 21
27.66363116287323
 31
0.0
  0
LINE
  5
3AAE4
330
3863E
100
AcDbEntity
  8
0
  6
Continuous
 62
     7
370
    30
100
AcDbLine
 10
26.19364246280782
 20
27.36363116287322
 30
0.0
 11
27.61364246280789
 21
27.36363116287322
 31
0.0
  0
LINE
  5
3AAE5
330
3863E
100
AcDbEntity
  8
0
  6
Continuous
 62
     7
370
    13
100
AcDbLine
 10
26.24364246280777
 20
26.02363116287325
 30
0.0
 11
26.44364246280782
 21
26.02363116287325
 31
0.0
  0
LINE
  5
3AAE6
330
3863E
100
AcDbEntity
  8
0
  6
Continuous
 62
     7
370
    13
100
AcDbLine
 10
26.24364246280777
 20
25.87363116287327
 30
0.0
 11
26.59364246280779
 21
25.87363116287327
 31
0.0
  0
LINE
  5
3AAE7
330
3863E
100
AcDbEntity
  8
0
  6
Continuous
 62
     7
370
    13
100
AcDbLine
 10
26.44364246280782
 20
27.36363116287316
 30
0.0
 11
26.44364246280782
 21
25.87363116287327
 31
0.0
  0
LINE
  5
3AAE8
330
3863E
100
AcDbEntity
  8
0
  6
Continuous
 62
     7
370
    13
100
AcDbLine
 10
26.59364246280779
 20
27.36363116287316
 30
0.0
 11
26.59364246280779
 21
25.87363116287327
 31
0.0
  0
LINE
  5
3AAE9
330
3863E
100
AcDbEntity
  8
0
  6
Continuous
 62
     7
370
    13
100
AcDbLine
 10
26.44364246280782
 20
24.43363116287327
 30
0.0
 11
26.59364246280779
 21
24.43363116287327
 31
0.0
  0
LINE
  5
3AAEA
330
3863E
100
AcDbEntity
  8
0
  6
Continuous
 62
     7
370
    13
100
AcDbLine
 10
26.44364246280782
 20
23.63363116287326
 30
0.0
 11
26.59364246280779
 21
23.63363116287326
 31
0.0
  0
LINE
  5
3AAEB
330
3863E
100
AcDbEntity
  8
0
  6
Continuous
 62
     7
370
    13
100
AcDbLine
 10
26.44364246280782
 20
23.63363116287326
 30
0.0
 11
26.44364246280782
 21
21.99363116287321
 31
0.0
  0
LINE
  5
3AAEC
330
3863E
100
AcDbEntity
  8
0
  6
Continuous
 62
     7
370
    13
100
AcDbLine
 10
26.59364246280779
 20
23.63363116287326
 30
0.0
 11
26.59364246280779
 21
21.99363116287321
 31
0.0
  0
LINE
  5
3AAED
330
3863E
100
AcDbEntity
  8
0
  6
Continuous
 62
     7
370
    13
100
AcDbLine
 10
24.92364246280784
 20
25.72363116287318
 30
0.0
 11
25.07364246280781
 21
25.72363116287318
 31
0.0
  0
LINE
  5
3AAEE
330
3863E
100
AcDbEntity
  8
0
  6
Continuous
 62
     7
370
    13
100
AcDbLine
 10
24.92364246280784
 20
24.92363116287317
 30
0.0
 11
24.92364246280784
 21
21.99363116287321
 31
0.0
  0
LINE
  5
3AAEF
330
3863E
100
AcDbEntity
  8
0
  6
Continuous
 62
     7
370
    13
100
AcDbLine
 10
25.07364246280781
 20
24.92363116287317
 30
0.0
 11
25.07364246280781
 21
21.99363116287321
 31
0.0
  0
LINE
  5
3AAF0
330
3863E
100
AcDbEntity
  8
0
  6
Continuous
 62
     7
370
     0
100
AcDbLine
 10
24.99864246280777
 20
24.92363116287317
 30
0.0
 11
24.99864246280777
 21
25.72363116287318
 31
0.0
  0
LINE
  5
3AAF1
330
3863E
100
AcDbEntity
  8
0
  6
Continuous
 62
     7
370
    13
100
AcDbLine
 10
21.1336424628077
 20
8.383631162873257
 30
0.0
 11
26.22364246280779
 21
8.3836311628732
 31
0.0
  0
LINE
  5
3AAF2
330
3863E
100
AcDbEntity
  8
0
  6
Continuous
 62
     7
370
     0
100
AcDbLine
 10
21.1336424628077
 20
8.443631162873316
 30
0.0
 11
26.22364246280779
 21
8.443631162873202
 31
0.0
  0
LINE
  5
3AAF3
330
3863E
100
AcDbEntity
  8
0
  6
Continuous
 62
     7
370
     0
100
AcDbLine
 10
21.1336424628077
 20
8.50363116287326
 30
0.0
 11
26.22364246280779
 21
8.503631162873205
 31
0.0
  0
LINE
  5
3AAF4
330
3863E
100
AcDbEntity
  8
0
  6
Continuous
 62
     7
370
    13
100
AcDbLine
 10
12.6936424628077
 20
8.3836311628732
 30
0.0
 11
17.93364246280771
 21
8.383631162873143
 31
0.0
  0
LINE
  5
3AAF5
330
3863E
100
AcDbEntity
  8
0
  6
Continuous
 62
     7
370
    30
100
AcDbLine
 10
6.858642462807722
 20
16.55363116287321
 30
0.0
 11
7.178642462807772
 21
16.55363116287321
 31
0.0
  0
LINE
  5
3AAF6
330
3863E
100
AcDbEntity
  8
0
  6
Continuous
 62
     7
370
    30
100
AcDbLine
 10
6.858642462807722
 20
15.55363116287322
 30
0.0
 11
7.178642462807772
 21
15.55363116287322
 31
0.0
  0
LINE
  5
3AAF7
330
3863E
100
AcDbEntity
  8
0
  6
Continuous
 62
     7
370
    30
100
AcDbLine
 10
9.208642462807803
 20
12.42363116287322
 30
0.0
 11
9.208642462807803
 21
8.233631162873223
 31
0.0
  0
LINE
  5
3AAF8
330
3863E
100
AcDbEntity
  8
0
  6
Continuous
 62
     7
370
    30
100
AcDbLine
 10
4.503642462807761
 20
15.55363116287322
 30
0.0
 11
4.503642462807761
 21
10.03363116287323
 31
0.0
  0
LINE
  5
3AAF9
330
3863E
100
AcDbEntity
  8
0
  6
Continuous
 62
     7
370
    30
100
AcDbLine
 10
9.733642462807722
 20
15.7536311628732
 30
0.0
 11
9.733642462807722
 21
7.933631162873211
 31
0.0
  0
LINE
  5
3AAFA
330
3863E
100
AcDbEntity
  8
0
  6
Continuous
 62
     7
370
    30
100
AcDbLine
 10
14.85364246280778
 20
21.99363116287321
 30
0.0
 11
25.07364246280781
 21
21.99363116287321
 31
0.0
  0
LINE
  5
3AAFB
330
3863E
100
AcDbEntity
  8
0
  6
Continuous
 62
     7
370
    30
100
AcDbLine
 10
14.85364246280778
 20
21.65363116287324
 30
0.0
 11
25.07364246280781
 21
21.65363116287324
 31
0.0
  0
LINE
  5
3AAFC
330
3863E
100
AcDbEntity
  8
0
  6
Continuous
 62
     7
370
    13
100
AcDbLine
 10
24.92364246280784
 20
24.92363116287317
 30
0.0
 11
25.07364246280781
 21
24.92363116287317
 31
0.0
  0
LINE
  5
3AAFD
330
3863E
100
AcDbEntity
  8
0
  6
Continuous
 62
     7
370
    13
100
AcDbLine
 10
27.59364246280779
 20
26.26363116287321
 30
0.0
 11
29.53364246280779
 21
26.26363116287321
 31
0.0
  0
LINE
  5
3AAFE
330
3863E
100
AcDbEntity
  8
0
  6
Continuous
 62
     7
370
    13
100
AcDbLine
 10
27.74364246280777
 20
26.11363116287322
 30
0.0
 11
29.53364246280779
 21
26.11363116287322
 31
0.0
  0
LINE
  5
3AAFF
330
3863E
100
AcDbEntity
  8
0
  6
Continuous
 62
     7
370
    13
100
AcDbLine
 10
27.59364246280779
 20
26.26363116287321
 30
0.0
 11
27.59364246280779
 21
25.78363116287318
 31
0.0
  0
LINE
  5
3AB00
330
3863E
100
AcDbEntity
  8
0
  6
Continuous
 62
     7
370
    13
100
AcDbLine
 10
27.74364246280777
 20
26.11363116287322
 30
0.0
 11
27.74364246280777
 21
25.78363116287318
 31
0.0
  0
LINE
  5
3AB01
330
3863E
100
AcDbEntity
  8
0
  6
Continuous
 62
     7
370
    13
100
AcDbLine
 10
27.59364246280779
 20
25.78363116287318
 30
0.0
 11
27.74364246280777
 21
25.78363116287318
 31
0.0
  0
LINE
  5
3AB02
330
3863E
100
AcDbEntity
  8
0
  6
Continuous
 62
     7
370
    13
100
AcDbLine
 10
26.44364246280782
 20
24.8836311628732
 30
0.0
 11
26.44364246280782
 21
24.43363116287327
 31
0.0
  0
LINE
  5
3AB03
330
3863E
100
AcDbEntity
  8
0
  6
Continuous
 62
     7
370
    13
100
AcDbLine
 10
26.59364246280779
 20
24.8836311628732
 30
0.0
 11
26.59364246280779
 21
24.43363116287327
 31
0.0
  0
LINE
  5
3AB04
330
3863E
100
AcDbEntity
  8
0
  6
Continuous
 62
     7
370
    30
100
AcDbLine
 10
4.503642462807761
 20
18.35363116287323
 30
0.0
 11
4.262711274349669
 21
18.35363116287323
 31
0.0
  0
LINE
  5
3AB05
330
3863E
100
AcDbEntity
  8
0
  6
Continuous
 62
     7
370
    30
100
AcDbLine
 10
4.253642462807817
 20
21.65363116287324
 30
0.0
 11
4.253642462807817
 21
18.35363116287323
 31
0.0
  0
LINE
  5
3AB06
330
3863E
100
AcDbEntity
  8
0
  6
Continuous
 62
     7
370
    30
100
AcDbLine
 10
4.003642462807817
 20
21.65363116287324
 30
0.0
 11
4.003642462807817
 21
8.233631162873223
 31
0.0
  0
LINE
  5
3AB07
330
3863E
100
AcDbEntity
  8
0
  6
Continuous
 62
     7
370
    30
100
AcDbLine
 10
7.158642462807788
 20
9.923631162873221
 30
0.0
 11
7.158642462807788
 21
8.23363116287328
 31
0.0
  0
LINE
  5
3AB08
330
3863E
100
AcDbEntity
  8
0
  6
Continuous
 62
     7
370
    30
100
AcDbLine
 10
6.858642462807722
 20
9.923631162873221
 30
0.0
 11
7.158642462807788
 21
9.923631162873221
 31
0.0
  0
LINE
  5
3AB09
330
3863E
100
AcDbEntity
  8
0
  6
Continuous
 62
     7
370
    13
100
AcDbLine
 10
5.033642462807731
 20
18.35363116287323
 30
0.0
 11
4.503642462807761
 21
18.35363116287323
 31
0.0
  0
LINE
  5
3AB0A
330
3863E
100
AcDbEntity
  8
0
  6
Continuous
 62
     7
370
    13
100
AcDbLine
 10
5.033642462807731
 20
18.35363116287323
 30
0.0
 11
5.033642462807731
 21
18.20363116287325
 31
0.0
  0
LINE
  5
3AB0B
330
3863E
100
AcDbEntity
  8
0
  6
Continuous
 62
     7
370
    13
100
AcDbLine
 10
5.033642462807731
 20
18.20363116287325
 30
0.0
 11
4.503642462807816
 21
18.20363116287325
 31
0.0
  0
LINE
  5
3AB0C
330
3863E
100
AcDbEntity
  8
0
  6
Continuous
 62
     7
370
    13
100
AcDbLine
 10
28.43364246280783
 20
11.75363116287326
 30
0.0
 11
28.43364246280783
 21
11.60363116287328
 31
0.0
  0
LINE
  5
3AB0D
330
3863E
100
AcDbEntity
  8
0
  6
Continuous
 62
     7
370
    13
100
AcDbLine
 10
27.33364246280775
 20
11.75363116287326
 30
0.0
 11
27.33364246280775
 21
11.60363116287328
 31
0.0
  0
LINE
  5
3AB0E
330
3863E
100
AcDbEntity
  8
0
  6
Continuous
 62
     7
370
    13
100
AcDbLine
 10
28.43364246280783
 20
11.75363116287326
 30
0.0
 11
29.53364246280779
 21
11.75363116287326
 31
0.0
  0
LINE
  5
3AB0F
330
3863E
100
AcDbEntity
  8
0
  6
Continuous
 62
     7
370
    13
100
AcDbLine
 10
28.43364246280783
 20
11.60363116287328
 30
0.0
 11
29.53364246280779
 21
11.60363116287328
 31
0.0
  0
LINE
  5
3AB10
330
3863E
100
AcDbEntity
  8
0
  6
Continuous
 62
     7
370
    30
100
AcDbLine
 10
4.763642462807695
 20
15.55363116287322
 30
0.0
 11
4.763642462807695
 21
16.55363116287321
 31
0.0
  0
LINE
  5
3AB11
330
3863E
100
AcDbEntity
  8
0
  6
Continuous
 62
     7
370
    30
100
AcDbLine
 10
5.963642462807738
 20
15.55363116287322
 30
0.0
 11
5.963642462807738
 21
16.55363116287321
 31
0.0
  0
LINE
  5
3AB12
330
3863E
100
AcDbEntity
  8
0
  6
Continuous
 62
     7
370
    30
100
AcDbLine
 10
4.763642462807695
 20
10.03363116287323
 30
0.0
 11
4.763642462807695
 21
9.733631162873223
 31
0.0
  0
LINE
  5
3AB13
330
3863E
100
AcDbEntity
  8
0
  6
Continuous
 62
     7
370
    30
100
AcDbLine
 10
6.068642462807757
 20
10.03363116287323
 30
0.0
 11
6.333642462807743
 21
10.03363116287323
 31
0.0
  0
LINE
  5
3AB14
330
3863E
100
AcDbEntity
  8
0
  6
Continuous
 62
     7
370
    30
100
AcDbLine
 10
6.068642462807757
 20
9.733631162873223
 30
0.0
 11
6.258642462807755
 21
9.733631162873223
 31
0.0
  0
LINE
  5
3AB15
330
3863E
100
AcDbEntity
  8
0
  6
Continuous
 62
     7
370
    30
100
AcDbLine
 10
29.53364246280779
 20
21.65615293415715
 30
0.0
 11
29.53364246280779
 21
11.60363116287328
 31
0.0
  0
LINE
  5
3AB16
330
3863E
100
AcDbEntity
  8
0
  6
Continuous
 62
     7
370
    30
100
AcDbLine
 10
29.8336424628078
 20
21.65363116287324
 30
0.0
 11
29.8336424628078
 21
11.60363116287328
 31
0.0
  0
LINE
  5
3AB17
330
3863E
100
AcDbEntity
  8
0
  6
Continuous
 62
     7
370
     0
100
AcDbLine
 10
30.63348394114588
 20
15.15880597461336
 30
0.0
 11
30.63348394114588
 21
21.19205282509768
 31
0.0
  0
LINE
  5
3AB18
330
3863E
100
AcDbEntity
  8
0
  6
Continuous
 62
     7
370
    30
100
AcDbLine
 10
25.8936424628078
 20
21.65363116287324
 30
0.0
 11
30.63348394114588
 21
21.65363116287324
 31
0.0
  0
LINE
  5
3AB19
330
3863E
100
AcDbEntity
  8
0
  6
Continuous
 62
     7
370
    30
100
AcDbLine
 10
25.8936424628078
 20
21.99363116287321
 30
0.0
 11
30.63348394114588
 21
21.99363116287321
 31
0.0
  0
LINE
  5
3AB1A
330
3863E
100
AcDbEntity
  8
0
  6
Continuous
 62
     7
370
    30
100
AcDbLine
 10
28.51364246280787
 20
27.66363116287323
 30
0.0
 11
30.63348394114588
 21
27.66363116287323
 31
0.0
  0
LINE
  5
3AB1B
330
3863E
100
AcDbEntity
  8
0
  6
Continuous
 62
     7
370
    30
100
AcDbLine
 10
28.51364246280787
 20
27.36363116287322
 30
0.0
 11
30.63348394114588
 21
27.36363116287322
 31
0.0
  0
LINE
  5
3AB1C
330
3863E
100
AcDbEntity
  8
0
  6
Continuous
 62
     7
370
    30
100
AcDbLine
 10
29.8336424628078
 20
16.25363116287326
 30
0.0
 11
30.63348394114588
 21
16.25363116287326
 31
0.0
  0
LINE
  5
3AB1D
330
3863E
100
AcDbEntity
  8
0
  6
Continuous
 62
     7
370
    30
100
AcDbLine
 10
29.8336424628078
 20
15.95363116287325
 30
0.0
 11
30.63348394114588
 21
15.95363116287325
 31
0.0
  0
LINE
  5
3AB1E
330
3863E
100
AcDbEntity
  8
0
  6
Continuous
 62
     7
370
     0
100
AcDbLine
 10
6.094304031238322
 20
28.18368254445528
 30
0.0
 11
6.094304031238322
 21
27.57857568675599
 31
0.0
  0
LINE
  5
3AB1F
330
3863E
100
AcDbEntity
  8
0
  6
Continuous
 62
     7
370
     0
100
AcDbLine
 10
3.472272814261089
 20
22.51784635780257
 30
0.0
 11
3.472272814261089
 21
14.90958655201245
 31
0.0
  0
LINE
  5
3AB20
330
3863E
100
AcDbEntity
  8
0
  6
Continuous
 62
     7
370
    30
100
AcDbLine
 10
6.094304031238322
 20
27.36363116287322
 30
0.0
 11
18.88864246280775
 21
27.36363116287322
 31
0.0
  0
LINE
  5
3AB21
330
3863E
100
AcDbEntity
  8
0
  6
Continuous
 62
     7
370
    30
100
AcDbLine
 10
6.094304031238322
 20
27.66363116287323
 30
0.0
 11
18.88864246280775
 21
27.66363116287323
 31
0.0
  0
LINE
  5
3AB22
330
3863E
100
AcDbEntity
  8
0
  6
Continuous
 62
     7
370
    30
100
AcDbLine
 10
3.472272814261089
 20
21.99363116287321
 30
0.0
 11
13.4536424628078
 21
21.99363116287321
 31
0.0
  0
LINE
  5
3AB23
330
3863E
100
AcDbEntity
  8
0
  6
Continuous
 62
     7
370
    30
100
AcDbLine
 10
3.472272814261089
 20
21.65363116287324
 30
0.0
 11
13.4536424628078
 21
21.65363116287324
 31
0.0
  0
LINE
  5
3AB24
330
3863E
100
AcDbEntity
  8
0
  6
Continuous
 62
     7
370
    30
100
AcDbLine
 10
3.472272814261089
 20
7.933631162873211
 30
0.0
 11
4.578642462807806
 21
7.933631162873211
 31
0.0
  0
LINE
  5
3AB25
330
3863E
100
AcDbEntity
  8
0
  6
Continuous
 62
     7
370
    30
100
AcDbLine
 10
3.472272814261089
 20
8.233631162873223
 30
0.0
 11
4.003642462807817
 21
8.233631162873223
 31
0.0
  0
LINE
  5
3AB26
330
3863E
100
AcDbEntity
  8
0
  6
Continuous
 62
     7
370
    13
100
AcDbLine
 10
25.14364246280775
 20
26.02363116287325
 30
0.0
 11
25.14364246280775
 21
25.87363116287327
 31
0.0
  0
LINE
  5
3AB27
330
3863E
100
AcDbEntity
  8
0
  6
Continuous
 62
     7
370
    13
100
AcDbLine
 10
26.24364246280777
 20
26.02363116287325
 30
0.0
 11
26.24364246280777
 21
25.87363116287327
 31
0.0
  0
LINE
  5
3AB28
330
3863E
100
AcDbEntity
  8
0
  6
Continuous
 62
     7
370
     0
100
AcDbLine
 10
24.99864246280777
 20
25.72363116287318
 30
0.0
 11
24.4329570378585
 21
25.15794573792391
 31
0.0
  0
LINE
  5
3AB2A
330
3863E
100
AcDbEntity
  8
0
  6
Continuous
 62
     7
370
     0
100
AcDbLine
 10
27.66864246280778
 20
25.78363116287318
 30
0.0
 11
27.66864246280778
 21
24.8836311628732
 31
0.0
  0
LINE
  5
3AB2B
330
3863E
100
AcDbEntity
  8
0
  6
Continuous
 62
     7
370
     0
100
AcDbLine
 10
27.66864246280778
 20
24.8836311628732
 30
0.0
 11
27.03224635973987
 21
25.52002726594106
 31
0.0
  0
LINE
  5
3AB2D
330
3863E
100
AcDbEntity
  8
0
  6
Continuous
 62
     7
370
     0
100
AcDbLine
 10
26.5186424628078
 20
24.43363116287327
 30
0.0
 11
26.5186424628078
 21
23.63363116287326
 31
0.0
  0
LINE
  5
3AB2E
330
3863E
100
AcDbEntity
  8
0
  6
Continuous
 62
     7
370
     0
100
AcDbLine
 10
26.5186424628078
 20
23.63363116287326
 30
0.0
 11
25.9529570378586
 21
24.19931658782247
 31
0.0
  0
LINE
  5
3AB30
330
3863E
100
AcDbEntity
  8
0
  6
Continuous
 62
     7
370
     0
100
AcDbLine
 10
25.19364246280782
 20
27.51363116287325
 30
0.0
 11
26.19364246280782
 21
27.51363116287325
 31
0.0
  0
LINE
  5
3AB31
330
3863E
100
AcDbEntity
  8
0
  6
Continuous
 62
     7
370
     0
100
AcDbLine
 10
25.19364246280782
 20
27.51363116287325
 30
0.0
 11
25.90074924399444
 21
28.22073794405975
 31
0.0
  0
LINE
  5
3AB33
330
3863E
100
AcDbEntity
  8
0
  6
Continuous
 62
     7
370
     0
100
AcDbLine
 10
28.76364246280775
 20
16.1278093982562
 30
0.0
 11
27.9036424628078
 21
16.1278093982562
 31
0.0
  0
LINE
  5
3AB34
330
3863E
100
AcDbEntity
  8
0
  6
Continuous
 62
     7
370
     0
100
AcDbLine
 10
28.76364246280775
 20
16.1278093982562
 30
0.0
 11
28.15553063098736
 21
16.73592123007665
 31
0.0
  0
LINE
  5
3AB36
330
3863E
100
AcDbEntity
  8
0
  6
Continuous
 62
     7
370
    13
100
AcDbLine
 10
29.68364246280783
 20
11.47363116287329
 30
0.0
 11
29.8336424628078
 21
11.47363116287329
 31
0.0
  0
LINE
  5
3AB37
330
3863E
100
AcDbEntity
  8
0
  6
Continuous
 62
     7
370
    13
100
AcDbLine
 10
29.68364246280783
 20
9.873631162873266
 30
0.0
 11
29.8336424628078
 21
9.873631162873266
 31
0.0
  0
LINE
  5
3AB38
330
3863E
100
AcDbEntity
  8
0
  6
Continuous
 62
     7
370
    13
100
AcDbLine
 10
29.68364246280783
 20
9.873631162873266
 30
0.0
 11
29.68364246280783
 21
9.743631162873272
 31
0.0
  0
LINE
  5
3AB39
330
3863E
100
AcDbEntity
  8
0
  6
Continuous
 62
     7
370
    13
100
AcDbLine
 10
29.8336424628078
 20
9.873631162873266
 30
0.0
 11
29.8336424628078
 21
9.743631162873272
 31
0.0
  0
LINE
  5
3AB3A
330
3863E
100
AcDbEntity
  8
0
  6
Continuous
 62
     7
370
     0
100
AcDbLine
 10
29.75864246280776
 20
11.47363116287329
 30
0.0
 11
29.75864246280776
 21
9.873631162873266
 31
0.0
  0
LINE
  5
3AB3B
330
3863E
100
AcDbEntity
  8
0
  6
Continuous
 62
     7
370
     0
100
AcDbLine
 10
29.75864246280776
 20
11.47363116287329
 30
0.0
 11
30.46574924399437
 21
10.76652438168679
 31
0.0
  0
LINE
  5
3AB3C
330
3863E
100
AcDbEntity
  8
0
  6
Continuous
 62
     7
370
     0
100
AcDbLine
 10
29.75864246280776
 20
9.873631162873266
 30
0.0
 11
30.18290653151968
 21
10.29789523158524
 31
0.0
  0
LINE
  5
3AB3F
330
3863E
100
AcDbEntity
  8
0
  6
Continuous
 62
     7
370
     0
100
AcDbLine
 10
12.6936424628077
 20
8.443631162873316
 30
0.0
 11
17.93364246280771
 21
8.443631162873257
 31
0.0
  0
LINE
  5
3AB40
330
3863E
100
AcDbEntity
  8
0
  6
Continuous
 62
     7
370
     0
100
AcDbLine
 10
12.6936424628077
 20
8.503631162873315
 30
0.0
 11
17.93364246280771
 21
8.50363116287326
 31
0.0
  0
LINE
  5
3AB41
330
3863E
100
AcDbEntity
  8
0
  6
Continuous
 62
     7
370
    30
100
AcDbLine
 10
13.4536424628078
 20
21.99363116287321
 30
0.0
 11
13.4536424628078
 21
21.65363116287324
 31
0.0
  0
LINE
  5
3AB42
330
3863E
100
AcDbEntity
  8
0
  6
Continuous
 62
     7
370
    30
100
AcDbLine
 10
14.85364246280778
 20
21.99363116287321
 30
0.0
 11
14.85364246280778
 21
21.65363116287324
 31
0.0
  0
LINE
  5
3AB43
330
3863E
100
AcDbEntity
  8
0
  6
Continuous
 62
     7
370
     0
100
AcDbLine
 10
5.033642462807731
 20
18.27863116287323
 30
0.0
 11
6.333642462807743
 21
18.27863116287323
 31
0.0
  0
LINE
  5
3AB44
330
3863E
100
AcDbEntity
  8
0
  6
Continuous
 62
     7
370
     0
100
AcDbLine
 10
6.333642462807743
 20
18.27863116287323
 30
0.0
 11
5.626535681621191
 21
17.57152438168668
 31
0.0
  0
LINE
  5
3AB45
330
3863E
100
AcDbEntity
  8
0
  6
Continuous
 62
     7
370
     0
100
AcDbLine
 10
5.033642462807731
 20
18.27863116287323
 30
0.0
 11
5.245774497163778
 21
18.06649912851731
 31
0.0
  0
LINE
  5
3AB48
330
3863E
100
AcDbEntity
  8
0
  6
Continuous
 62
     7
370
    30
100
AcDbLine
 10
6.068642462807757
 20
9.733631162873223
 30
0.0
 11
6.068642462807757
 21
10.03363116287323
 31
0.0
  0
LINE
  5
3AB49
330
3863E
100
AcDbEntity
  8
0
  6
Continuous
 62
     7
370
     0
100
AcDbLine
 10
4.768642462807747
 20
9.883631162873255
 30
0.0
 11
6.068642462807757
 21
9.883631162873255
 31
0.0
  0
LINE
  5
3AB4A
330
3863E
100
AcDbEntity
  8
0
  6
Continuous
 62
     7
370
     0
100
AcDbLine
 10
6.068642462807757
 20
9.883631162873255
 30
0.0
 11
5.361535681621205
 21
9.176524381686702
 31
0.0
  0
LINE
  5
3AB4B
330
3863E
100
AcDbEntity
  8
0
  6
Continuous
 62
     7
370
     0
100
AcDbLine
 10
4.768642462807747
 20
9.883631162873255
 30
0.0
 11
4.980774497163736
 21
9.671499128517323
 31
0.0
  0
LINE
  5
3AB4E
330
3863E
100
AcDbEntity
  8
0
  6
Continuous
 62
     7
370
     0
100
AcDbLine
 10
6.596142462807732
 20
13.66363116287323
 30
0.0
 11
6.596142462807732
 21
12.88363116287326
 31
0.0
  0
LINE
  5
3AB4F
330
3863E
100
AcDbEntity
  8
0
  6
Continuous
 62
     7
370
     0
100
AcDbLine
 10
6.596142462807732
 20
12.12363116287321
 30
0.0
 11
6.596142462807732
 21
11.31363116287321
 31
0.0
  0
LINE
  5
3AB50
330
3863E
100
AcDbEntity
  8
0
  6
Continuous
 62
     7
370
     0
100
AcDbLine
 10
6.596142462807732
 20
12.12363116287321
 30
0.0
 11
6.02338597004666
 21
11.55087467011202
 31
0.0
  0
LINE
  5
3AB51
330
3863E
100
AcDbEntity
  8
0
  6
Continuous
 62
     7
370
     0
100
AcDbLine
 10
6.596142462807732
 20
13.66363116287323
 30
0.0
 11
6.044599173482252
 21
13.11208787354769
 31
0.0
  0
LINE
  5
3AB54
330
3863E
100
AcDbEntity
  8
0
  6
Continuous
 62
     7
370
     0
100
AcDbLine
 10
18.73364246280766
 20
9.683631162873268
 30
0.0
 11
19.29932788775704
 21
9.11794573792406
 31
0.0
  0
LINE
  5
3AB55
330
3863E
100
AcDbEntity
  8
0
  6
Continuous
 62
     7
370
     0
100
AcDbLine
 10
20.33364246280775
 20
9.683631162873268
 30
0.0
 11
19.76795703785848
 21
9.117945737923943
 31
0.0
  0
LINE
  5
3AB58
330
3863E
100
AcDbEntity
  8
0
  6
Continuous
 62
     7
370
     0
100
AcDbLine
 10
18.53364246280773
 20
8.3836311628732
 30
0.0
 11
19.24074924399429
 21
7.676524381686704
 31
0.0
  0
LINE
  5
3AB59
330
3863E
100
AcDbEntity
  8
0
  6
Continuous
 62
     7
370
     0
100
AcDbLine
 10
20.53364246280773
 20
8.3836311628732
 30
0.0
 11
19.82653568162118
 21
7.676524381686647
 31
0.0
  0
LINE
  5
3AB7A
330
3863E
100
AcDbEntity
  8
0
  6
Continuous
 62
     7
370
     0
100
AcDbLine
 10
21.1336424628077
 20
8.113631162873218
 30
0.0
 11
21.1336424628077
 21
6.41363116287323
 31
0.0
  0
LINE
  5
3AB7B
330
3863E
100
AcDbEntity
  8
0
  6
Continuous
 62
     7
370
     0
100
AcDbLine
 10
17.93364246280771
 20
8.113631162873218
 30
0.0
 11
17.93364246280771
 21
6.41363116287323
 31
0.0
  0
LINE
  5
3AB7C
330
3863E
100
AcDbEntity
  8
0
  6
Continuous
 62
     7
370
     0
100
AcDbLine
 10
17.93364246280771
 20
6.71363116287324
 30
0.0
 11
21.1336424628077
 21
6.71363116287324
 31
0.0
  0
LINE
  5
3AB7D
330
3863E
100
AcDbEntity
  8
0
  6
Continuous
 62
     7
370
     0
100
AcDbLine
 10
17.93364246280771
 20
6.41363116287323
 30
0.0
 11
21.1336424628077
 21
6.41363116287323
 31
0.0
  0
LINE
  5
3AB7E
330
3863E
100
AcDbEntity
  8
0
  6
Continuous
 62
     7
370
     0
100
AcDbLine
 10
21.1336424628077
 20
8.113631162873218
 30
0.0
 11
22.93364246280771
 21
8.113631162873218
 31
0.0
  0
LINE
  5
3AB7F
330
3863E
100
AcDbEntity
  8
0
  6
Continuous
 62
     7
370
     0
100
AcDbLine
 10
21.1336424628077
 20
7.013631162873195
 30
0.0
 11
22.93364246280771
 21
7.013631162873195
 31
0.0
  0
LINE
  5
3AB80
330
3863E
100
AcDbEntity
  8
0
  6
Continuous
 62
     7
370
     0
100
AcDbLine
 10
22.93364246280771
 20
8.113631162873218
 30
0.0
 11
22.93364246280771
 21
7.013631162873195
 31
0.0
  0
LINE
  5
3ABA9
330
3863E
100
AcDbEntity
  8
0
  6
Continuous
 62
     7
370
     0
100
AcDbLine
 10
25.07364246280781
 20
21.82363116287326
 30
0.0
 11
25.8936424628078
 21
21.82363116287326
 31
0.0
  0
LINE
  5
3ABAA
330
3863E
100
AcDbEntity
  8
0
  6
Continuous
 62
     7
370
     0
100
AcDbLine
 10
25.8936424628078
 20
21.82363116287326
 30
0.0
 11
25.31381490223487
 21
21.24380360230026
 31
0.0
  0
LINE
  5
3ABBB
330
3863E
100
AcDbEntity
  8
0
  6
Continuous
 62
     7
370
     0
100
AcDbLine
 10
3.472272814261089
 20
14.60874623362434
 30
0.0
 11
3.472272814261089
 21
7.301326746222342
 31
0.0
  0
LINE
  5
3ABBF
330
3863E
100
AcDbEntity
  8
0
  6
Continuous
 62
     7
370
     0
100
AcDbLine
 10
6.094304031238322
 20
27.27773536836787
 30
0.0
 11
6.094304031238322
 21
26.51726013661625
 31
0.0
  0
LINE
  5
3ABC0
330
3863E
100
AcDbEntity
  8
0
  6
Continuous
 62
     7
370
     0
100
AcDbLine
 10
30.63348394114588
 20
21.49289314348579
 30
0.0
 11
30.63348394114588
 21
28.13607047565989
 31
0.0
  0
LINE
  5
3D248
330
3863E
100
AcDbEntity
  8
0
  6
Continuous
 62
     7
370
     0
100
AcDbLine
 10
3.472272814261087
 20
14.90958655201246
 30
0.0
 11
3.839485570941461
 21
14.90958655201246
 31
0.0
  0
LINE
  5
3D249
330
3863E
100
AcDbEntity
  8
0
  6
Continuous
 62
     7
370
     0
100
AcDbLine
 10
3.839485570941461
 20
14.90958655201246
 30
0.0
 11
3.159209158048041
 21
14.60874623362435
 31
0.0
  0
LINE
  5
3D24A
330
3863E
100
AcDbEntity
  8
0
  6
Continuous
 62
     7
370
     0
100
AcDbLine
 10
3.159209158048041
 20
14.60874623362435
 30
0.0
 11
3.472272814261087
 21
14.60874623362435
 31
0.0
  0
LINE
  5
3D24B
330
3863E
100
AcDbEntity
  8
0
  6
Continuous
 62
     7
370
     0
100
AcDbLine
 10
6.094304031238208
 20
27.57857568675599
 30
0.0
 11
6.461516787918581
 21
27.57857568675599
 31
0.0
  0
LINE
  5
3D24C
330
3863E
100
AcDbEntity
  8
0
  6
Continuous
 62
     7
370
     0
100
AcDbLine
 10
6.461516787918581
 20
27.57857568675599
 30
0.0
 11
5.781240375025162
 21
27.27773536836788
 31
0.0
  0
LINE
  5
3D24D
330
3863E
100
AcDbEntity
  8
0
  6
Continuous
 62
     7
370
     0
100
AcDbLine
 10
5.781240375025162
 20
27.27773536836788
 30
0.0
 11
6.094304031238208
 21
27.27773536836788
 31
0.0
  0
LINE
  5
3D24E
330
3863E
100
AcDbEntity
  8
0
  6
Continuous
 62
     7
370
     0
100
AcDbLine
 10
30.63348394114583
 20
21.49289314348579
 30
0.0
 11
31.0006966978262
 21
21.49289314348579
 31
0.0
  0
LINE
  5
3D24F
330
3863E
100
AcDbEntity
  8
0
  6
Continuous
 62
     7
370
     0
100
AcDbLine
 10
31.0006966978262
 20
21.49289314348579
 30
0.0
 11
30.32042028493278
 21
21.19205282509768
 31
0.0
  0
LINE
  5
3D250
330
3863E
100
AcDbEntity
  8
0
  6
Continuous
 62
     7
370
     0
100
AcDbLine
 10
30.32042028493278
 20
21.19205282509768
 30
0.0
 11
30.63348394114583
 21
21.19205282509768
 31
0.0
  0
ENDSEC
  0
SECTION
  2
OBJECTS
  0
DICTIONARY
  5
38643
330
0
100
AcDbDictionary
281
     1
  3
ACAD_CIP_PREVIOUS_PRODUCT_INFO
350
38ADF
  3
ACAD_COLOR
350
3867F
  3
ACAD_DETAILVIEWSTYLE
350
38AD5
  3
ACAD_GROUP
350
3866C
  3
ACAD_LAST_SAVED_VERSION_INFO
350
3CE5D
  3
ACAD_LAYOUT
350
38650
  3
ACAD_MATERIAL
350
38645
  3
ACAD_MLEADERSTYLE
350
38682
  3
ACAD_MLINESTYLE
350
3866D
  3
ACAD_PLOTSETTINGS
350
3866E
  3
ACAD_PLOTSTYLENAME
350
38642
  3
ACAD_SCALELIST
350
38680
  3
ACAD_SECTIONVIEWSTYLE
350
38AD3
  3
ACAD_TABLESTYLE
350
38681
  3
ACAD_VISUALSTYLE
350
38666
  3
AcadDim
350
386E4
  3
ACDB_RECOMPOSE_DATA
350
3D25C
  3
AcDbVariableDictionary
350
387A8
  3
EZDXF_META
350
3D1CF
  3
MicroStation
350
386E5
  3
Siberia
350
3ABD3
  0
DICTIONARY
  5
38659
330
38658
100
AcDbDictionary
280
     1
281
     1
  3
ACAD_LAYERFILTERS
360
386AB
  3
ACAD_LAYERSTATES
360
3865A
  0
DICTIONARY
  5
3CDFD
330
38640
100
AcDbDictionary
280
     1
281
     1
  3
ADSK_XREC_LAYER_RECONCILED
360
3CDFE
  0
DICTIONARY
  5
3CE01
330
1ACB
100
AcDbDictionary
280
     1
281
     1
  3
ADSK_XREC_LAYER_RECONCILED
360
3CE02
  0
DICTIONARY
  5
3CE03
330
1ACC
100
AcDbDictionary
280
     1
281
     1
  3
ADSK_XREC_LAYER_RECONCILED
360
3CE04
  0
DICTIONARY
  5
3CE0D
330
901F
100
AcDbDictionary
280
     1
281
     1
  3
ADSK_XREC_LAYER_RECONCILED
360
3CE0E
  0
DICTIONARY
  5
3A616
330
3A615
100
AcDbDictionary
280
     1
281
     1
  3
ADSK_XREC_LAYER_RECONCILED
360
3CE40
  0
DICTIONARY
  5
3A61A
330
3A619
100
AcDbDictionary
280
     1
281
     1
  3
ADSK_XREC_LAYER_RECONCILED
360
3CE42
  0
DICTIONARY
  5
3A620
330
3A61F
100
AcDbDictionary
280
     1
281
     1
  3
ADSK_XREC_LAYER_RECONCILED
360
3CE45
  0
DICTIONARY
  5
38796
330
3863E
100
AcDbDictionary
280
     1
281
     1
  3
ACAD_SORTENTS
360
38797
  0
XRECORD
  5
38ADF
102
{ACAD_REACTORS
330
38643
102
}
330
38643
100
AcDbXrecord
280
     1
300
ACD
300
2026
300
88023ACD_2026_0F
  0
DICTIONARY
  5
3867F
102
{ACAD_REACTORS
330
38643
102
}
330
38643
100
AcDbDictionary
281
     1
  3
Standard$black
350
386E7
  0
DICTIONARY
  5
38AD5
102
{ACAD_REACTORS
330
38643
102
}
330
38643
100
AcDbDictionary
281
     1
  3
Imperial24
350
38AD6
  0
DICTIONARY
  5
3866C
102
{ACAD_REACTORS
330
38643
102
}
330
38643
100
AcDbDictionary
281
     1
  0
XRECORD
  5
3CE5D
102
{ACAD_REACTORS
330
38643
102
}
330
38643
100
AcDbXrecord
280
     1
300
{2EDD1C01-845A-6648-83E2-EF96F4C4EB1D}
301
{D3CE042C-8847-F148-8D28-37B0223B6713}
302
{2EDD1C01-845A-6648-83E2-EF96F4C4EB1D}
303
C:\YandexDisk\Studies\_03_Maga\0_Diplom\Diplom\Dataset\sources\geometry_only\10_geometry_only.dxf
  0
DICTIONARY
  5
38650
102
{ACAD_REACTORS
330
38643
102
}
330
38643
100
AcDbDictionary
281
     1
  3
Layout1
350
38654
  3
Model
350
3864F
  0
DICTIONARY
  5
38645
102
{ACAD_REACTORS
330
38643
102
}
330
38643
100
AcDbDictionary
281
     1
  3
ByBlock
350
38677
  3
ByLayer
350
3866F
  3
Global
350
38644
  0
DICTIONARY
  5
38682
102
{ACAD_REACTORS
330
38643
102
}
330
38643
100
AcDbDictionary
281
     1
  3
Standard
350
387C1
  0
DICTIONARY
  5
3866D
102
{ACAD_REACTORS
330
38643
102
}
330
38643
100
AcDbDictionary
281
     1
  3
Standard
350
38683
  0
DICTIONARY
  5
3866E
102
{ACAD_REACTORS
330
38643
102
}
330
38643
100
AcDbDictionary
281
     1
  0
ACDBDICTIONARYWDFLT
  5
38642
102
{ACAD_REACTORS
330
38643
102
}
330
38643
100
AcDbDictionary
281
     1
  3
Normal
350
38641
100
AcDbDictionaryWithDefault
340
38641
  0
DICTIONARY
  5
38680
102
{ACAD_REACTORS
330
38643
102
}
330
38643
100
AcDbDictionary
281
     1
  3
A0
350
38687
  3
A1
350
38688
  3
A2
350
38689
  3
A3
350
3868A
  3
A4
350
3868B
  3
A5
350
3868C
  3
A6
350
3868D
  3
A7
350
3868E
  3
A8
350
3868F
  3
A9
350
38690
  3
B0
350
38691
  3
B1
350
38692
  3
B2
350
38693
  3
B3
350
38694
  3
B4
350
38695
  3
B5
350
38696
  3
B6
350
38697
  3
B7
350
38698
  3
B8
350
38699
  3
B9
350
3869A
  3
C0
350
3869B
  3
C1
350
3869C
  3
C2
350
3869D
  3
C3
350
3869E
  3
C4
350
3869F
  3
C5
350
386A0
  3
C6
350
386A1
  3
C7
350
386A2
  3
C8
350
386A3
  3
C9
350
386A4
  3
D0
350
386A5
  3
D1
350
386A6
  3
D2
350
386A7
  0
DICTIONARY
  5
38AD3
102
{ACAD_REACTORS
330
38643
102
}
330
38643
100
AcDbDictionary
281
     1
  3
Imperial24
350
38AD4
  0
DICTIONARY
  5
38681
102
{ACAD_REACTORS
330
38643
102
}
330
38643
100
AcDbDictionary
281
     1
  3
Standard
350
38684
  0
DICTIONARY
  5
38666
102
{ACAD_REACTORS
330
38643
102
}
330
38643
100
AcDbDictionary
281
     1
  3
2dWireframe
350
38665
  3
3D Hidden
350
387B6
  3
3dWireframe
350
38686
  3
Basic
350
387B5
  3
Brighten
350
387B9
  3
ColorChange
350
387BD
  3
Conceptual
350
387B7
  3
Dim
350
387B8
  3
EdgeColorOff
350
387C0
  3
Facepattern
350
387BC
  3
Flat
350
387B1
  3
FlatWithEdges
350
387B2
  3
Gouraud
350
387B3
  3
GouraudWithEdges
350
387B4
  3
Hidden
350
38ACD
  3
JitterOff
350
387BE
  3
Linepattern
350
387BB
  3
OverhangOff
350
387BF
  3
Realistic
350
38685
  3
Shaded
350
38AD2
  3
Shaded with edges
350
38AD1
  3
Shades of Gray
350
38ACE
  3
Sketchy
350
38ACF
  3
Thicken
350
387BA
  3
Wireframe
350
38ACC
  3
X-Ray
350
38AD0
  0
XRECORD
  5
386E4
102
{ACAD_REACTORS
330
38643
102
}
330
38643
100
AcDbXrecord
280
     1
 90
   990106
  3
 
 60
     0
 61
     0
 62
     1
 63
     1
 64
     0
 65
     0
 66
     0
 67
     3
 68
     1
 69
     1
 70
     0
 71
     0
 72
     0
 40
0.0
170
     0
  0
XRECORD
  5
3D25C
102
{ACAD_REACTORS
330
38643
102
}
330
38643
100
AcDbXrecord
280
     1
 90
        1
330
38684
  0
DICTIONARY
  5
387A8
102
{ACAD_REACTORS
330
38643
102
}
330
38643
100
AcDbDictionary
281
     1
  3
CANNOSCALE
350
387AC
  3
CMLEADERSTYLE
350
387AA
  3
CTABLESTYLE
350
387A9
  3
CVIEWDETAILSTYLE
350
3CE52
  3
CVIEWSECTIONSTYLE
350
3CE53
  3
LAYEREVAL
350
387AE
  3
LAYERNOTIFY
350
387AF
  3
LIGHTINGUNITS
350
387AD
  3
MSLTSCALE
350
387AB
  0
DICTIONARY
  5
3D1CF
330
38643
100
AcDbDictionary
280
     1
281
     1
  3
WRITTEN_BY_EZDXF
360
3D1D0
  0
DICTIONARY
  5
386E5
102
{ACAD_REACTORS
330
38643
102
}
330
38643
100
AcDbDictionary
281
     1
  0
DICTIONARY
  5
3ABD3
102
{ACAD_REACTORS
330
38643
102
}
330
38643
100
AcDbDictionary
280
     1
281
     1
  3
Styles
360
3ABD4
  0
DICTIONARY
  5
386AB
102
{ACAD_REACTORS
330
38659
102
}
330
38659
100
AcDbDictionary
281
     1
  0
DICTIONARY
  5
3865A
102
{ACAD_REACTORS
330
38659
102
}
330
38659
100
AcDbDictionary
281
     1
  0
XRECORD
  5
3CDFE
102
{ACAD_REACTORS
330
3CDFD
102
}
330
3CDFD
100
AcDbXrecord
280
     1
290
     1
  0
XRECORD
  5
3CE02
102
{ACAD_REACTORS
330
3CE01
102
}
330
3CE01
100
AcDbXrecord
280
     1
290
     1
  0
XRECORD
  5
3CE04
102
{ACAD_REACTORS
330
3CE03
102
}
330
3CE03
100
AcDbXrecord
280
     1
290
     1
  0
XRECORD
  5
3CE0E
102
{ACAD_REACTORS
330
3CE0D
102
}
330
3CE0D
100
AcDbXrecord
280
     1
290
     1
  0
XRECORD
  5
3CE40
102
{ACAD_REACTORS
330
3A616
102
}
330
3A616
100
AcDbXrecord
280
     1
290
     1
  0
XRECORD
  5
3CE42
102
{ACAD_REACTORS
330
3A61A
102
}
330
3A61A
100
AcDbXrecord
280
     1
290
     1
  0
XRECORD
  5
3CE45
102
{ACAD_REACTORS
330
3A620
102
}
330
3A620
100
AcDbXrecord
280
     1
290
     1
  0
SORTENTSTABLE
  5
38797
102
{ACAD_REACTORS
330
38796
102
}
330
38796
100
AcDbSortentsTable
330
3863E
331
3D152
  5
3D11D
331
3D16E
  5
3D14F
331
3D180
  5
3D161
331
3D123
  5
3D17F
331
3CBDC
  5
3D173
331
3D16D
  5
3D14E
331
3D122
  5
3D17E
331
3CBA9
  5
3D16C
331
3D16C
  5
3D14D
331
3D17F
  5
3D160
331
3D115
  5
3D179
331
3CBA8
  5
3D16B
331
3D17E
  5
3D15F
331
3D16B
  5
3D14C
331
3D120
  5
3D17D
331
3D114
  5
3D178
331
3D16A
  5
3D14B
331
3CBB9
  5
3D16F
331
3D15A
  5
3D126
331
3CBB8
  5
3D16E
331
3D17B
  5
3D15C
331
3D159
  5
3D125
331
3D17A
  5
3D15B
331
3D158
  5
3D124
331
3D177
  5
3D158
331
3CBB7
  5
3D16D
331
3D179
  5
3D15A
331
3D176
  5
3D157
331
3D11F
  5
3D17C
331
3D178
  5
3D159
331
3D12A
  5
3D186
331
3D11E
  5
3D17B
331
3CBC4
  5
3D172
331
3ABD2
  5
3D16A
331
3D129
  5
3D185
331
3D11D
  5
3D17A
331
3CBC3
  5
3D171
331
3ABD1
  5
3D169
331
3D186
  5
3D167
331
3D128
  5
3D184
331
3CBC2
  5
3D170
331
3ABD0
  5
3D168
331
3D185
  5
3D166
331
3D157
  5
3D123
331
3D184
  5
3D165
331
3D127
  5
3D183
331
3D126
  5
3D182
331
3D182
  5
3D163
331
3D125
  5
3D181
331
3CBE9
  5
3D176
331
3CBDE
  5
3D175
331
3D181
  5
3D162
331
3D16F
  5
3D150
331
3D124
  5
3D180
331
3CBDD
  5
3D174
  0
DBCOLOR
  5
386E7
102
{ACAD_REACTORS
330
3867F
102
}
330
3867F
100
AcDbColor
 62
    18
1001
ACAD
1000
DBColXD
1070
    18
1071
-1040187392
1000
Standard$black
1000
DBColXD
1070
    18
1071
-1040187392
1000
Standard$black
1000
DBColXD
1070
    18
1071
-1040187392
1000
Standard$black
  0
ACDBDETAILVIEWSTYLE
  5
38AD6
102
{ACAD_REACTORS
330
38AD5
102
}
330
38AD5
100
AcDbModelDocViewStyle
 70
     0
  3
Imperial24
290
     0
300
Imperial24
 90
        0
100
AcDbDetailViewStyle
 70
     0
 71
     0
 90
        3
 71
     1
340
3865C
 62
   256
 40
0.24
340
0
 62
   256
 40
0.24
300

 40
0.36
280
     3
 71
     2
340
3864D
 90
       25
 62
   256
 71
     3
340
3865C
 62
   256
 40
0.24
 90
        1
 40
0.75
 90
        1
300
%<\AcVar ViewType \f "%tc1">% %<\AcVar ViewDetailId>%\PМАСШТАБ %<\AcVar ViewScale \f "%sn">%
 71
     4
340
3864D
 90
       25
 62
   256
340
3864D
 90
       25
 62
   256
280
     0
  0
LAYOUT
  5
38654
102
{ACAD_XDICTIONARY
360
38655
102
}
102
{ACAD_REACTORS
330
38650
102
}
330
38650
100
AcDbPlotSettings
  1

  2
none_device
  4
Letter_(8.50_x_11.00_Inches)
  6

 40
6.349999904632567
 41
6.349999904632567
 42
6.350006103515625
 43
6.350006103515625
 44
215.8999938964844
 45
279.3999938964844
 46
0.0
 47
0.0
 48
0.0
 49
0.0
140
0.0
141
0.0
142
1.0
143
1.0
 70
   688
 72
     0
 73
     1
 74
     5
  7

 75
    16
147
1.0
 76
     0
 77
     2
 78
   300
148
0.0
149
0.0
100
AcDbLayout
  1
Layout1
 70
     0
 71
     1
 10
-0.2500002402958907
 20
-0.2499999962453767
 11
10.74999951940821
 21
8.249999763458731
 12
0.0
 22
0.0
 32
0.0
 14
1.049743681505489
 24
0.7996673802841308
 34
-0.0015258207003583
 15
9.450622583565561
 25
7.200576801086516
 35
0.0000000349246037
146
0.0
 13
0.0
 23
0.0
 33
0.0
 16
1.0
 26
0.0
 36
0.0
 17
0.0
 27
1.0
 37
0.0
 76
     0
330
38651
1001
ACAD_PSEXT
1000
None
1000
None
1000
Not applicable
1000
The layout will not be plotted unless a new plotter configuration name is selected.
1070
     0
  0
LAYOUT
  5
3864F
102
{ACAD_REACTORS
330
38650
102
}
330
38650
100
AcDbPlotSettings
  1

  2
none_device
  4
ANSI_A_(8.50_x_11.00_Inches)
  6

 40
6.349999904632567
 41
19.04999923706055
 42
6.350006103515625
 43
19.04998779296875
 44
215.8999938964844
 45
279.3999938964844
 46
0.0
 47
0.0
 48
0.0
 49
0.0
140
0.0
141
0.0
142
1.0
143
2.584895464708373
 70
 11952
 72
     0
 73
     1
 74
     0
  7

 75
     0
147
0.3868628397755418
 76
     0
 77
     2
 78
   300
148
0.0
149
0.0
100
AcDbLayout
  1
Model
 70
     1
 71
     0
 10
0.0
 20
0.0
 11
12.0
 21
9.0
 12
0.0
 22
0.0
 32
0.0
 14
0.0
 24
0.0
 34
0.0
 15
0.0
 25
0.0
 35
0.0
146
0.0
 13
0.0
 23
0.0
 33
0.0
 16
1.0
 26
0.0
 36
0.0
 17
0.0
 27
1.0
 37
0.0
 76
     0
330
3863E
331
4B
  0
MATERIAL
  5
38677
102
{ACAD_XDICTIONARY
360
38678
102
}
102
{ACAD_REACTORS
330
38645
102
}
330
38645
100
AcDbMaterial
  1
ByBlock
 91
-1023410177
 73
     1
 43
0.0208333333333333
 43
0.0
 43
0.0
 43
0.0
 43
0.0
 43
0.0208333333333333
 43
0.0
 43
0.0
 43
0.0
 43
0.0
 43
1.0
 43
0.0
 43
0.0
 43
0.0
 43
0.0
 43
1.0
 78
     1
 47
0.0208333333333333
 47
0.0
 47
0.0
 47
0.0
 47
0.0
 47
0.0208333333333333
 47
0.0
 47
0.0
 47
0.0
 47
0.0
 47
1.0
 47
0.0
 47
0.0
 47
0.0
 47
0.0
 47
1.0
172
     1
 49
0.0208333333333333
 49
0.0
 49
0.0
 49
0.0
 49
0.0
 49
0.0208333333333333
 49
0.0
 49
0.0
 49
0.0
 49
0.0
 49
1.0
 49
0.0
 49
0.0
 49
0.0
 49
0.0
 49
1.0
176
     1
142
0.0208333333333333
142
0.0
142
0.0
142
0.0
142
0.0
142
0.0208333333333333
142
0.0
142
0.0
142
0.0
142
0.0
142
1.0
142
0.0
142
0.0
142
0.0
142
0.0
142
1.0
270
     1
144
0.0208333333333333
144
0.0
144
0.0
144
0.0
144
0.0
144
0.0208333333333333
144
0.0
144
0.0
144
0.0
144
0.0
144
1.0
144
0.0
144
0.0
144
0.0
144
0.0
144
1.0
273
     1
274
     1
147
0.0208333333333333
147
0.0
147
0.0
147
0.0
147
0.0
147
0.0208333333333333
147
0.0
147
0.0
147
0.0
147
0.0
147
1.0
147
0.0
147
0.0
147
0.0
147
0.0
147
1.0
 94
       63
  0
MATERIAL
  5
3866F
102
{ACAD_XDICTIONARY
360
38670
102
}
102
{ACAD_REACTORS
330
38645
102
}
330
38645
100
AcDbMaterial
  1
ByLayer
 91
-1023410177
 73
     1
 43
0.0208333333333333
 43
0.0
 43
0.0
 43
0.0
 43
0.0
 43
0.0208333333333333
 43
0.0
 43
0.0
 43
0.0
 43
0.0
 43
1.0
 43
0.0
 43
0.0
 43
0.0
 43
0.0
 43
1.0
 78
     1
 47
0.0208333333333333
 47
0.0
 47
0.0
 47
0.0
 47
0.0
 47
0.0208333333333333
 47
0.0
 47
0.0
 47
0.0
 47
0.0
 47
1.0
 47
0.0
 47
0.0
 47
0.0
 47
0.0
 47
1.0
172
     1
 49
0.0208333333333333
 49
0.0
 49
0.0
 49
0.0
 49
0.0
 49
0.0208333333333333
 49
0.0
 49
0.0
 49
0.0
 49
0.0
 49
1.0
 49
0.0
 49
0.0
 49
0.0
 49
0.0
 49
1.0
176
     1
142
0.0208333333333333
142
0.0
142
0.0
142
0.0
142
0.0
142
0.0208333333333333
142
0.0
142
0.0
142
0.0
142
0.0
142
1.0
142
0.0
142
0.0
142
0.0
142
0.0
142
1.0
270
     1
144
0.0208333333333333
144
0.0
144
0.0
144
0.0
144
0.0
144
0.0208333333333333
144
0.0
144
0.0
144
0.0
144
0.0
144
1.0
144
0.0
144
0.0
144
0.0
144
0.0
144
1.0
273
     1
274
     1
147
0.0208333333333333
147
0.0
147
0.0
147
0.0
147
0.0
147
0.0208333333333333
147
0.0
147
0.0
147
0.0
147
0.0
147
1.0
147
0.0
147
0.0
147
0.0
147
0.0
147
1.0
 94
       63
  0
MATERIAL
  5
38644
102
{ACAD_XDICTIONARY
360
38646
102
}
102
{ACAD_REACTORS
330
38645
102
}
330
38645
100
AcDbMaterial
  1
Global
 91
-1023410177
 73
     1
 43
0.0208333333333333
 43
0.0
 43
0.0
 43
0.0
 43
0.0
 43
0.0208333333333333
 43
0.0
 43
0.0
 43
0.0
 43
0.0
 43
1.0
 43
0.0
 43
0.0
 43
0.0
 43
0.0
 43
1.0
 78
     1
 47
0.0208333333333333
 47
0.0
 47
0.0
 47
0.0
 47
0.0
 47
0.0208333333333333
 47
0.0
 47
0.0
 47
0.0
 47
0.0
 47
1.0
 47
0.0
 47
0.0
 47
0.0
 47
0.0
 47
1.0
172
     1
 49
0.0208333333333333
 49
0.0
 49
0.0
 49
0.0
 49
0.0
 49
0.0208333333333333
 49
0.0
 49
0.0
 49
0.0
 49
0.0
 49
1.0
 49
0.0
 49
0.0
 49
0.0
 49
0.0
 49
1.0
176
     1
142
0.0208333333333333
142
0.0
142
0.0
142
0.0
142
0.0
142
0.0208333333333333
142
0.0
142
0.0
142
0.0
142
0.0
142
1.0
142
0.0
142
0.0
142
0.0
142
0.0
142
1.0
270
     1
144
0.0208333333333333
144
0.0
144
0.0
144
0.0
144
0.0
144
0.0208333333333333
144
0.0
144
0.0
144
0.0
144
0.0
144
1.0
144
0.0
144
0.0
144
0.0
144
0.0
144
1.0
273
     1
274
     1
147
0.0208333333333333
147
0.0
147
0.0
147
0.0
147
0.0
147
0.0208333333333333
147
0.0
147
0.0
147
0.0
147
0.0
147
1.0
147
0.0
147
0.0
147
0.0
147
0.0
147
1.0
 94
       63
  0
MLEADERSTYLE
  5
387C1
102
{ACAD_REACTORS
330
38682
102
}
330
38682
100
AcDbMLeaderStyle
179
     2
170
     2
171
     1
172
     0
 90
        2
 40
0.0
 41
0.0
173
     1
 91
-1056964608
340
3865F
 92
       -2
290
     1
 42
0.09
291
     1
 43
0.36
  3
Standard
 44
0.18
300

342
3865C
174
     1
178
     6
175
     1
176
     0
 93
-1056964608
 45
0.18
292
     0
297
     0
 46
0.18
 94
-1056964608
 47
1.0
 49
1.0
140
1.0
293
     1
141
0.0
294
     1
177
     0
142
1.0
295
     0
296
     0
143
0.125
271
     0
272
     9
273
     9
298
     0
  0
MLINESTYLE
  5
38683
102
{ACAD_REACTORS
330
3866D
102
}
330
3866D
100
AcDbMlineStyle
  2
STANDARD
 70
     0
  3

 62
   256
 51
90.0
 52
90.0
 71
     2
 49
0.5
 62
   256
  6
BYLAYER
 49
-0.5
 62
   256
  6
BYLAYER
  0
ACDBPLACEHOLDER
  5
38641
102
{ACAD_REACTORS
330
38642
102
}
330
38642
  0
SCALE
  5
38687
102
{ACAD_REACTORS
330
38680
102
}
330
38680
100
AcDbScale
 70
     0
300
1:1
140
1.0
141
1.0
290
     1
  0
SCALE
  5
38688
102
{ACAD_REACTORS
330
38680
102
}
330
38680
100
AcDbScale
 70
     0
300
1:2
140
1.0
141
2.0
290
     0
  0
SCALE
  5
38689
102
{ACAD_REACTORS
330
38680
102
}
330
38680
100
AcDbScale
 70
     0
300
1:4
140
1.0
141
4.0
290
     0
  0
SCALE
  5
3868A
102
{ACAD_REACTORS
330
38680
102
}
330
38680
100
AcDbScale
 70
     0
300
1:5
140
1.0
141
5.0
290
     0
  0
SCALE
  5
3868B
102
{ACAD_REACTORS
330
38680
102
}
330
38680
100
AcDbScale
 70
     0
300
1:8
140
1.0
141
8.0
290
     0
  0
SCALE
  5
3868C
102
{ACAD_REACTORS
330
38680
102
}
330
38680
100
AcDbScale
 70
     0
300
1:10
140
1.0
141
10.0
290
     0
  0
SCALE
  5
3868D
102
{ACAD_REACTORS
330
38680
102
}
330
38680
100
AcDbScale
 70
     0
300
1:16
140
1.0
141
16.0
290
     0
  0
SCALE
  5
3868E
102
{ACAD_REACTORS
330
38680
102
}
330
38680
100
AcDbScale
 70
     0
300
1:20
140
1.0
141
20.0
290
     0
  0
SCALE
  5
3868F
102
{ACAD_REACTORS
330
38680
102
}
330
38680
100
AcDbScale
 70
     0
300
1:30
140
1.0
141
30.0
290
     0
  0
SCALE
  5
38690
102
{ACAD_REACTORS
330
38680
102
}
330
38680
100
AcDbScale
 70
     0
300
1:40
140
1.0
141
40.0
290
     0
  0
SCALE
  5
38691
102
{ACAD_REACTORS
330
38680
102
}
330
38680
100
AcDbScale
 70
     0
300
1:50
140
1.0
141
50.0
290
     0
  0
SCALE
  5
38692
102
{ACAD_REACTORS
330
38680
102
}
330
38680
100
AcDbScale
 70
     0
300
1:100
140
1.0
141
100.0
290
     0
  0
SCALE
  5
38693
102
{ACAD_REACTORS
330
38680
102
}
330
38680
100
AcDbScale
 70
     0
300
2:1
140
2.0
141
1.0
290
     0
  0
SCALE
  5
38694
102
{ACAD_REACTORS
330
38680
102
}
330
38680
100
AcDbScale
 70
     0
300
4:1
140
4.0
141
1.0
290
     0
  0
SCALE
  5
38695
102
{ACAD_REACTORS
330
38680
102
}
330
38680
100
AcDbScale
 70
     0
300
8:1
140
8.0
141
1.0
290
     0
  0
SCALE
  5
38696
102
{ACAD_REACTORS
330
38680
102
}
330
38680
100
AcDbScale
 70
     0
300
10:1
140
10.0
141
1.0
290
     0
  0
SCALE
  5
38697
102
{ACAD_REACTORS
330
38680
102
}
330
38680
100
AcDbScale
 70
     0
300
100:1
140
100.0
141
1.0
290
     0
  0
SCALE
  5
38698
102
{ACAD_REACTORS
330
38680
102
}
330
38680
100
AcDbScale
 70
     0
300
1/128" = 1'-0"
140
0.0078125
141
12.0
290
     0
  0
SCALE
  5
38699
102
{ACAD_REACTORS
330
38680
102
}
330
38680
100
AcDbScale
 70
     0
300
1/64" = 1'-0"
140
0.015625
141
12.0
290
     0
  0
SCALE
  5
3869A
102
{ACAD_REACTORS
330
38680
102
}
330
38680
100
AcDbScale
 70
     0
300
1/32" = 1'-0"
140
0.03125
141
12.0
290
     0
  0
SCALE
  5
3869B
102
{ACAD_REACTORS
330
38680
102
}
330
38680
100
AcDbScale
 70
     0
300
1/16" = 1'-0"
140
0.0625
141
12.0
290
     0
  0
SCALE
  5
3869C
102
{ACAD_REACTORS
330
38680
102
}
330
38680
100
AcDbScale
 70
     0
300
3/32" = 1'-0"
140
0.09375
141
12.0
290
     0
  0
SCALE
  5
3869D
102
{ACAD_REACTORS
330
38680
102
}
330
38680
100
AcDbScale
 70
     0
300
1/8" = 1'-0"
140
0.125
141
12.0
290
     0
  0
SCALE
  5
3869E
102
{ACAD_REACTORS
330
38680
102
}
330
38680
100
AcDbScale
 70
     0
300
3/16" = 1'-0"
140
0.1875
141
12.0
290
     0
  0
SCALE
  5
3869F
102
{ACAD_REACTORS
330
38680
102
}
330
38680
100
AcDbScale
 70
     0
300
1/4" = 1'-0"
140
0.25
141
12.0
290
     0
  0
SCALE
  5
386A0
102
{ACAD_REACTORS
330
38680
102
}
330
38680
100
AcDbScale
 70
     0
300
3/8" = 1'-0"
140
0.375
141
12.0
290
     0
  0
SCALE
  5
386A1
102
{ACAD_REACTORS
330
38680
102
}
330
38680
100
AcDbScale
 70
     0
300
1/2" = 1'-0"
140
0.5
141
12.0
290
     0
  0
SCALE
  5
386A2
102
{ACAD_REACTORS
330
38680
102
}
330
38680
100
AcDbScale
 70
     0
300
3/4" = 1'-0"
140
0.75
141
12.0
290
     0
  0
SCALE
  5
386A3
102
{ACAD_REACTORS
330
38680
102
}
330
38680
100
AcDbScale
 70
     0
300
1" = 1'-0"
140
1.0
141
12.0
290
     0
  0
SCALE
  5
386A4
102
{ACAD_REACTORS
330
38680
102
}
330
38680
100
AcDbScale
 70
     0
300
1-1/2" = 1'-0"
140
1.5
141
12.0
290
     0
  0
SCALE
  5
386A5
102
{ACAD_REACTORS
330
38680
102
}
330
38680
100
AcDbScale
 70
     0
300
3" = 1'-0"
140
3.0
141
12.0
290
     0
  0
SCALE
  5
386A6
102
{ACAD_REACTORS
330
38680
102
}
330
38680
100
AcDbScale
 70
     0
300
6" = 1'-0"
140
6.0
141
12.0
290
     0
  0
SCALE
  5
386A7
102
{ACAD_REACTORS
330
38680
102
}
330
38680
100
AcDbScale
 70
     0
300
1'-0" = 1'-0"
140
12.0
141
12.0
290
     0
  0
ACDBSECTIONVIEWSTYLE
  5
38AD4
102
{ACAD_REACTORS
330
38AD3
102
}
330
38AD3
100
AcDbModelDocViewStyle
 70
     0
  3
Imperial24
290
     0
300
Imperial24
 90
        0
100
AcDbSectionViewStyle
 70
     0
 71
     0
 90
       78
 71
     1
340
3865C
 62
   256
 40
0.24
340
0
340
0
 62
   256
 40
0.24
300
I, O, Q, S, X, Z
 40
0.48
 90
        3
 40
0.18
 90
        1
 71
     2
340
3864D
 90
       25
 62
   256
340
3864D
 90
       50
 62
   256
 40
0.24
 40
0.0
 40
0.24
 71
     3
340
3865C
 62
   256
 40
0.24
 90
        1
 40
0.75
 90
        1
300
%<\AcVar ViewType \f "%tc1">% %<\AcVar ViewSectionStartId>%-%<\AcVar ViewSectionEndId>%\PМАСШТАБ %<\AcVar ViewScale \f "%sn">%
 71
     4
 62
   256
 62
   257
300
ANSI31
 40
1.0
 90
        0
290
     0
290
     0
 90
        6
 40
0.0
 40
1.570796326794896
 40
0.2617993877991494
 40
1.308996938995747
 40
-0.2617993877991494
 40
1.832595714594044
  0
TABLESTYLE
  5
38684
102
{ACAD_XDICTIONARY
360
3879F
102
}
102
{ACAD_REACTORS
330
38681
102
}
330
38681
100
AcDbTableStyle
280
     0
  3
Standard
 70
     0
 71
     0
 40
0.06
 41
0.06
280
     0
281
     0
  7
Standard
140
0.18
170
     2
 62
     0
 63
     7
283
     0
 90
        4
 91
        0
  1

274
    -2
284
     1
 64
     0
275
    -2
285
     1
 65
     0
276
    -2
286
     1
 66
     0
277
    -2
287
     1
 67
     0
278
    -2
288
     1
 68
     0
279
    -2
289
     1
 69
     0
  7
Standard
140
0.25
170
     5
 62
     0
 63
     7
283
     0
 90
        4
 91
        0
  1

274
    -2
284
     1
 64
     0
275
    -2
285
     1
 65
     0
276
    -2
286
     1
 66
     0
277
    -2
287
     1
 67
     0
278
    -2
288
     1
 68
     0
279
    -2
289
     1
 69
     0
  7
Standard
140
0.18
170
     5
 62
     0
 63
     7
283
     0
 90
        4
 91
        0
  1

274
    -2
284
     1
 64
     0
275
    -2
285
     1
 65
     0
276
    -2
286
     1
 66
     0
277
    -2
287
     1
 67
     0
278
    -2
288
     1
 68
     0
279
    -2
289
     1
 69
     0
  0
VISUALSTYLE
  5
38665
102
{ACAD_REACTORS
330
38666
102
}
330
38666
100
AcDbVisualStyle
  2
2dWireframe
 70
     4
177
     3
291
     0
 70
    58
 90
        0
176
     1
 90
        2
176
     1
 90
        0
176
     1
 90
        0
176
     1
 40
0.6
176
     1
 40
30.0
176
     1
 62
     7
420
 16777215
176
     1
 90
        1
176
     1
 90
        4
176
     1
 62
     7
176
     1
 62
   257
176
     1
 90
        1
176
     1
 90
        1
176
     1
 40
1.0
176
     1
 90
        0
176
     1
 62
   257
176
     1
 40
1.0
176
     1
 90
        1
176
     1
 90
        6
176
     1
 90
        2
176
     1
 62
     7
176
     1
 90
        5
176
     1
 90
        0
176
     1
 90
        0
176
     1
290
     0
176
     1
 90
        1
176
     1
 40
0.0
176
     1
 90
        0
176
     1
290
     1
176
     1
290
     1
176
     1
290
     0
176
     1
290
     0
176
     1
290
     0
176
     1
290
     0
176
     1
290
     0
176
     1
290
     0
176
     1
290
     0
176
     1
 90
       50
176
     1
 40
0.0
176
     1
 40
1.0
176
     1
 90
        0
176
     1
 62
    18
176
     1
 90
       50
176
     1
 90
        3
176
     1
 62
     5
420
      255
176
     1
290
     0
176
     1
 90
       50
176
     1
 90
       50
176
     1
 90
       50
176
     1
290
     0
176
     1
 90
       50
176
     1
 62
   256
176
     0
 40
1.0
176
     0
 90
        2
176
     1
  1
strokes_ogs.tif
176
     1
290
     0
176
     1
 40
1.0
176
     1
 40
1.0
176
     1
  0
VISUALSTYLE
  5
387B6
102
{ACAD_REACTORS
330
38666
102
}
330
38666
100
AcDbVisualStyle
  2
3D Hidden
 70
     6
177
     3
291
     0
 70
    58
 90
        1
176
     1
 90
        2
176
     1
 90
        2
176
     1
 90
        0
176
     1
 40
0.6
176
     1
 40
30.0
176
     1
 62
     7
420
 16777215
176
     1
 90
        2
176
     1
 90
        2
176
     1
 62
     7
176
     1
 62
   257
176
     1
 90
        2
176
     1
 90
        1
176
     1
 40
179.0
176
     1
 90
        0
176
     1
 62
   257
176
     1
 40
1.0
176
     1
 90
        1
176
     1
 90
        6
176
     1
 90
        2
176
     1
 62
     7
176
     1
 90
        3
176
     1
 90
        0
176
     1
 90
        0
176
     1
290
     0
176
     1
 90
        1
176
     1
 40
0.0
176
     1
 90
        0
176
     1
290
     0
176
     1
290
     1
176
     1
290
     1
176
     1
290
     0
176
     1
290
     0
176
     1
290
     0
176
     1
290
     0
176
     1
290
     0
176
     1
290
     0
176
     1
 90
       50
176
     1
 40
0.0
176
     1
 40
1.0
176
     1
 90
        0
176
     1
 62
    18
176
     1
 90
       50
176
     1
 90
        3
176
     1
 62
     5
420
      255
176
     1
290
     0
176
     1
 90
       50
176
     1
 90
       50
176
     1
 90
       50
176
     1
290
     0
176
     1
 90
       50
176
     1
 62
   256
176
     0
 40
1.0
176
     0
 90
        2
176
     1
  1
strokes_ogs.tif
176
     1
290
     0
176
     1
 40
1.0
176
     1
 40
1.0
176
     1
  0
VISUALSTYLE
  5
38686
102
{ACAD_REACTORS
330
38666
102
}
330
38666
100
AcDbVisualStyle
  2
3dWireframe
 70
     5
177
     3
291
     0
 70
    58
 90
        0
176
     1
 90
        2
176
     1
 90
        0
176
     1
 90
        0
176
     1
 40
0.6
176
     1
 40
30.0
176
     1
 62
     7
420
 16777215
176
     1
 90
        1
176
     1
 90
        4
176
     1
 62
     7
176
     1
 62
   257
176
     1
 90
        1
176
     1
 90
        1
176
     1
 40
1.0
176
     1
 90
        0
176
     1
 62
   257
176
     1
 40
1.0
176
     1
 90
        1
176
     1
 90
        6
176
     1
 90
        2
176
     1
 62
     7
176
     1
 90
        5
176
     1
 90
        0
176
     1
 90
        0
176
     1
290
     0
176
     1
 90
        1
176
     1
 40
0.0
176
     1
 90
        0
176
     1
290
     0
176
     1
290
     1
176
     1
290
     1
176
     1
290
     0
176
     1
290
     0
176
     1
290
     0
176
     1
290
     0
176
     1
290
     0
176
     1
290
     0
176
     1
 90
       50
176
     1
 40
0.0
176
     1
 40
1.0
176
     1
 90
        0
176
     1
 62
    18
176
     1
 90
       50
176
     1
 90
        3
176
     1
 62
     5
420
      255
176
     1
290
     0
176
     1
 90
       50
176
     1
 90
       50
176
     1
 90
       50
176
     1
290
     0
176
     1
 90
       50
176
     1
 62
   256
176
     0
 40
1.0
176
     0
 90
        2
176
     1
  1
strokes_ogs.tif
176
     1
290
     0
176
     1
 40
1.0
176
     1
 40
1.0
176
     1
  0
VISUALSTYLE
  5
387B5
102
{ACAD_REACTORS
330
38666
102
}
330
38666
100
AcDbVisualStyle
  2
Basic
 70
     7
177
     3
291
     1
 70
    58
 90
        1
176
     1
 90
        0
176
     1
 90
        1
176
     1
 90
        0
176
     1
 40
0.6
176
     1
 40
30.0
176
     1
 62
     7
420
 16777215
176
     1
 90
        0
176
     1
 90
        4
176
     1
 62
     7
176
     1
 62
   257
176
     1
 90
        1
176
     1
 90
        1
176
     1
 40
1.0
176
     1
 90
        8
176
     1
 62
     7
176
     1
 40
1.0
176
     1
 90
        1
176
     1
 90
        6
176
     1
 90
        2
176
     1
 62
     7
176
     1
 90
        5
176
     1
 90
        0
176
     1
 90
        0
176
     1
290
     0
176
     1
 90
        1
176
     1
 40
0.0
176
     1
 90
        0
176
     1
290
     0
176
     1
290
     1
176
     1
290
     1
176
     1
290
     0
176
     1
290
     0
176
     1
290
     0
176
     1
290
     0
176
     1
290
     0
176
     1
290
     0
176
     1
 90
       50
176
     1
 40
0.0
176
     1
 40
1.0
176
     1
 90
        0
176
     1
 62
    18
176
     1
 90
       50
176
     1
 90
        3
176
     1
 62
     5
420
      255
176
     1
290
     0
176
     1
 90
       50
176
     1
 90
       50
176
     1
 90
       50
176
     1
290
     0
176
     1
 90
       50
176
     1
 62
   256
176
     0
 40
1.0
176
     0
 90
        2
176
     1
  1
strokes_ogs.tif
176
     1
290
     0
176
     1
 40
1.0
176
     1
 40
1.0
176
     1
  0
VISUALSTYLE
  5
387B9
102
{ACAD_REACTORS
330
38666
102
}
330
38666
100
AcDbVisualStyle
  2
Brighten
 70
    12
177
     3
291
     1
 70
    58
 90
        2
176
     1
 90
        2
176
     1
 90
        0
176
     1
 90
        0
176
     1
 40
0.6
176
     1
 40
30.0
176
     1
 62
     7
420
 16777215
176
     1
 90
        1
176
     1
 90
        4
176
     1
 62
     7
176
     1
 62
   257
176
     1
 90
        1
176
     1
 90
        1
176
     1
 40
1.0
176
     1
 90
        8
176
     1
 62
     7
176
     1
 40
1.0
176
     1
 90
        1
176
     1
 90
        6
176
     1
 90
        2
176
     1
 62
     7
176
     1
 90
        5
176
     1
 90
        0
176
     1
 90
        0
176
     1
290
     0
176
     1
 90
        1
176
     1
 40
50.0
176
     1
 90
        0
176
     1
290
     0
176
     1
290
     1
176
     1
290
     1
176
     1
290
     0
176
     1
290
     0
176
     1
290
     0
176
     1
290
     0
176
     1
290
     0
176
     1
290
     0
176
     1
 90
       50
176
     1
 40
0.0
176
     1
 40
1.0
176
     1
 90
        0
176
     1
 62
    18
176
     1
 90
       50
176
     1
 90
        3
176
     1
 62
     5
420
      255
176
     1
290
     0
176
     1
 90
       50
176
     1
 90
       50
176
     1
 90
       50
176
     1
290
     0
176
     1
 90
       50
176
     1
 62
   256
176
     0
 40
1.0
176
     0
 90
        2
176
     1
  1
strokes_ogs.tif
176
     1
290
     0
176
     1
 40
1.0
176
     1
 40
1.0
176
     1
  0
VISUALSTYLE
  5
387BD
102
{ACAD_REACTORS
330
38666
102
}
330
38666
100
AcDbVisualStyle
  2
ColorChange
 70
    16
177
     3
291
     1
 70
    58
 90
        2
176
     1
 90
        2
176
     1
 90
        3
176
     1
 90
        0
176
     1
 40
0.6
176
     1
 40
30.0
176
     1
 62
     8
420
  8421504
176
     1
 90
        1
176
     1
 90
        4
176
     1
 62
     7
176
     1
 62
   257
176
     1
 90
        1
176
     1
 90
        1
176
     1
 40
1.0
176
     1
 90
        8
176
     1
 62
     8
420
  8421504
176
     1
 40
1.0
176
     1
 90
        1
176
     1
 90
        6
176
     1
 90
        2
176
     1
 62
     7
176
     1
 90
        5
176
     1
 90
        0
176
     1
 90
        0
176
     1
290
     0
176
     1
 90
        1
176
     1
 40
0.0
176
     1
 90
        0
176
     1
290
     0
176
     1
290
     1
176
     1
290
     1
176
     1
290
     0
176
     1
290
     0
176
     1
290
     0
176
     1
290
     0
176
     1
290
     0
176
     1
290
     0
176
     1
 90
       50
176
     1
 40
0.0
176
     1
 40
1.0
176
     1
 90
        0
176
     1
 62
    18
176
     1
 90
       50
176
     1
 90
        3
176
     1
 62
     5
420
      255
176
     1
290
     0
176
     1
 90
       50
176
     1
 90
       50
176
     1
 90
       50
176
     1
290
     0
176
     1
 90
       50
176
     1
 62
   256
176
     0
 40
1.0
176
     0
 90
        2
176
     1
  1
strokes_ogs.tif
176
     1
290
     0
176
     1
 40
1.0
176
     1
 40
1.0
176
     1
  0
VISUALSTYLE
  5
387B7
102
{ACAD_REACTORS
330
38666
102
}
330
38666
100
AcDbVisualStyle
  2
Conceptual
 70
     9
177
     3
291
     0
 70
    58
 90
        3
176
     1
 90
        2
176
     1
 90
        0
176
     1
 90
        0
176
     1
 40
0.6
176
     1
 40
30.0
176
     1
 62
     7
420
 16777215
176
     1
 90
        2
176
     1
 90
        2
176
     1
 62
     7
176
     1
 62
   257
176
     1
 90
        1
176
     1
 90
        1
176
     1
 40
179.0
176
     1
 90
        8
176
     1
 62
     7
176
     1
 40
1.0
176
     1
 90
        1
176
     1
 90
        6
176
     1
 90
        2
176
     1
 62
     7
176
     1
 90
        3
176
     1
 90
        0
176
     1
 90
        0
176
     1
290
     0
176
     1
 90
        1
176
     1
 40
0.0
176
     1
 90
        0
176
     1
290
     0
176
     1
290
     1
176
     1
290
     1
176
     1
290
     0
176
     1
290
     0
176
     1
290
     0
176
     1
290
     0
176
     1
290
     0
176
     1
290
     0
176
     1
 90
       50
176
     1
 40
0.0
176
     1
 40
1.0
176
     1
 90
        0
176
     1
 62
    18
176
     1
 90
       50
176
     1
 90
        3
176
     1
 62
     5
420
      255
176
     1
290
     0
176
     1
 90
       50
176
     1
 90
       50
176
     1
 90
       50
176
     1
290
     0
176
     1
 90
       50
176
     1
 62
   256
176
     0
 40
1.0
176
     0
 90
        2
176
     1
  1
strokes_ogs.tif
176
     1
290
     0
176
     1
 40
1.0
176
     1
 40
1.0
176
     1
  0
VISUALSTYLE
  5
387B8
102
{ACAD_REACTORS
330
38666
102
}
330
38666
100
AcDbVisualStyle
  2
Dim
 70
    11
177
     3
291
     1
 70
    58
 90
        2
176
     1
 90
        2
176
     1
 90
        0
176
     1
 90
        0
176
     1
 40
0.6
176
     1
 40
30.0
176
     1
 62
     7
420
 16777215
176
     1
 90
        1
176
     1
 90
        4
176
     1
 62
     7
176
     1
 62
   257
176
     1
 90
        1
176
     1
 90
        1
176
     1
 40
1.0
176
     1
 90
        8
176
     1
 62
     7
176
     1
 40
1.0
176
     1
 90
        1
176
     1
 90
        6
176
     1
 90
        2
176
     1
 62
     7
176
     1
 90
        5
176
     1
 90
        0
176
     1
 90
        0
176
     1
290
     0
176
     1
 90
        1
176
     1
 40
-50.0
176
     1
 90
        0
176
     1
290
     0
176
     1
290
     1
176
     1
290
     1
176
     1
290
     0
176
     1
290
     0
176
     1
290
     0
176
     1
290
     0
176
     1
290
     0
176
     1
290
     0
176
     1
 90
       50
176
     1
 40
0.0
176
     1
 40
1.0
176
     1
 90
        0
176
     1
 62
    18
176
     1
 90
       50
176
     1
 90
        3
176
     1
 62
     5
420
      255
176
     1
290
     0
176
     1
 90
       50
176
     1
 90
       50
176
     1
 90
       50
176
     1
290
     0
176
     1
 90
       50
176
     1
 62
   256
176
     0
 40
1.0
176
     0
 90
        2
176
     1
  1
strokes_ogs.tif
176
     1
290
     0
176
     1
 40
1.0
176
     1
 40
1.0
176
     1
  0
VISUALSTYLE
  5
387C0
102
{ACAD_REACTORS
330
38666
102
}
330
38666
100
AcDbVisualStyle
  2
EdgeColorOff
 70
    22
177
     3
291
     1
 70
    58
 90
        2
176
     0
 90
        2
176
     0
 90
        0
176
     0
 90
        0
176
     0
 40
0.6
176
     0
 40
30.0
176
     0
 62
     7
420
 16777215
176
     0
 90
        1
176
     0
 90
        4
176
     0
 62
     7
176
     0
 62
   257
176
     0
 90
        1
176
     0
 90
        1
176
     0
 40
1.0
176
     0
 90
        8
176
     2
 62
     7
176
     0
 40
1.0
176
     0
 90
        1
176
     0
 90
        6
176
     0
 90
        2
176
     0
 62
     7
176
     0
 90
        5
176
     0
 90
        0
176
     0
 90
        0
176
     0
290
     0
176
     0
 90
        1
176
     0
 40
0.0
176
     0
 90
        0
176
     0
290
     0
176
     1
290
     1
176
     1
290
     1
176
     1
290
     0
176
     1
290
     0
176
     1
290
     0
176
     1
290
     0
176
     1
290
     0
176
     1
290
     0
176
     1
 90
       50
176
     1
 40
0.0
176
     1
 40
1.0
176
     1
 90
        0
176
     1
 62
    18
176
     1
 90
       50
176
     1
 90
        3
176
     1
 62
     5
420
      255
176
     1
290
     0
176
     1
 90
       50
176
     1
 90
       50
176
     1
 90
       50
176
     1
290
     0
176
     1
 90
       50
176
     1
 62
   256
176
     0
 40
1.0
176
     0
 90
        2
176
     1
  1
strokes_ogs.tif
176
     1
290
     0
176
     1
 40
1.0
176
     1
 40
1.0
176
     1
  0
VISUALSTYLE
  5
387BC
102
{ACAD_REACTORS
330
38666
102
}
330
38666
100
AcDbVisualStyle
  2
Facepattern
 70
    15
177
     3
291
     1
 70
    58
 90
        2
176
     1
 90
        2
176
     1
 90
        0
176
     1
 90
        0
176
     1
 40
0.6
176
     1
 40
30.0
176
     1
 62
     7
420
 16777215
176
     1
 90
        1
176
     1
 90
        4
176
     1
 62
     7
176
     1
 62
   257
176
     1
 90
        1
176
     1
 90
        1
176
     1
 40
1.0
176
     1
 90
        8
176
     1
 62
     7
176
     1
 40
1.0
176
     1
 90
        1
176
     1
 90
        6
176
     1
 90
        2
176
     1
 62
     7
176
     1
 90
        5
176
     1
 90
        0
176
     1
 90
        0
176
     1
290
     0
176
     1
 90
        1
176
     1
 40
0.0
176
     1
 90
        0
176
     1
290
     0
176
     1
290
     1
176
     1
290
     1
176
     1
290
     0
176
     1
290
     0
176
     1
290
     0
176
     1
290
     0
176
     1
290
     0
176
     1
290
     0
176
     1
 90
       50
176
     1
 40
0.0
176
     1
 40
1.0
176
     1
 90
        0
176
     1
 62
    18
176
     1
 90
       50
176
     1
 90
        3
176
     1
 62
     5
420
      255
176
     1
290
     0
176
     1
 90
       50
176
     1
 90
       50
176
     1
 90
       50
176
     1
290
     0
176
     1
 90
       50
176
     1
 62
   256
176
     0
 40
1.0
176
     0
 90
        2
176
     1
  1
strokes_ogs.tif
176
     1
290
     0
176
     1
 40
1.0
176
     1
 40
1.0
176
     1
  0
VISUALSTYLE
  5
387B1
102
{ACAD_REACTORS
330
38666
102
}
330
38666
100
AcDbVisualStyle
  2
Flat
 70
     0
177
     3
291
     1
 70
    58
 90
        2
176
     1
 90
        1
176
     1
 90
        1
176
     1
 90
        2
176
     1
 40
0.6
176
     1
 40
30.0
176
     1
 62
     7
420
 16777215
176
     1
 90
        0
176
     1
 90
        4
176
     1
 62
     7
176
     1
 62
   257
176
     1
 90
        1
176
     1
 90
        1
176
     1
 40
1.0
176
     1
 90
        8
176
     1
 62
     7
176
     1
 40
1.0
176
     1
 90
        1
176
     1
 90
        6
176
     1
 90
        2
176
     1
 62
     7
176
     1
 90
        5
176
     1
 90
        0
176
     1
 90
        0
176
     1
290
     0
176
     1
 90
       13
176
     1
 40
0.0
176
     1
 90
        0
176
     1
290
     0
176
     1
290
     1
176
     1
290
     1
176
     1
290
     0
176
     1
290
     0
176
     1
290
     0
176
     1
290
     0
176
     1
290
     0
176
     1
290
     0
176
     1
 90
       50
176
     1
 40
0.0
176
     1
 40
1.0
176
     1
 90
        0
176
     1
 62
    18
176
     1
 90
       50
176
     1
 90
        3
176
     1
 62
     5
420
      255
176
     1
290
     0
176
     1
 90
       50
176
     1
 90
       50
176
     1
 90
       50
176
     1
290
     0
176
     1
 90
       50
176
     1
 62
   256
176
     0
 40
1.0
176
     0
 90
        2
176
     1
  1
strokes_ogs.tif
176
     1
290
     0
176
     1
 40
1.0
176
     1
 40
1.0
176
     1
  0
VISUALSTYLE
  5
387B2
102
{ACAD_REACTORS
330
38666
102
}
330
38666
100
AcDbVisualStyle
  2
FlatWithEdges
 70
     1
177
     3
291
     1
 70
    58
 90
        2
176
     1
 90
        1
176
     1
 90
        1
176
     1
 90
        2
176
     1
 40
0.6
176
     1
 40
30.0
176
     1
 62
     7
420
 16777215
176
     1
 90
        1
176
     1
 90
        4
176
     1
 62
     7
176
     1
 62
   257
176
     1
 90
        1
176
     1
 90
        1
176
     1
 40
1.0
176
     1
 90
        0
176
     1
 62
   257
176
     1
 40
1.0
176
     1
 90
        1
176
     1
 90
        6
176
     1
 90
        2
176
     1
 62
     7
176
     1
 90
        5
176
     1
 90
        0
176
     1
 90
        0
176
     1
290
     0
176
     1
 90
       13
176
     1
 40
0.0
176
     1
 90
        0
176
     1
290
     0
176
     1
290
     1
176
     1
290
     1
176
     1
290
     0
176
     1
290
     0
176
     1
290
     0
176
     1
290
     0
176
     1
290
     0
176
     1
290
     0
176
     1
 90
       50
176
     1
 40
0.0
176
     1
 40
1.0
176
     1
 90
        0
176
     1
 62
    18
176
     1
 90
       50
176
     1
 90
        3
176
     1
 62
     5
420
      255
176
     1
290
     0
176
     1
 90
       50
176
     1
 90
       50
176
     1
 90
       50
176
     1
290
     0
176
     1
 90
       50
176
     1
 62
   256
176
     0
 40
1.0
176
     0
 90
        2
176
     1
  1
strokes_ogs.tif
176
     1
290
     0
176
     1
 40
1.0
176
     1
 40
1.0
176
     1
  0
VISUALSTYLE
  5
387B3
102
{ACAD_REACTORS
330
38666
102
}
330
38666
100
AcDbVisualStyle
  2
Gouraud
 70
     2
177
     3
291
     1
 70
    58
 90
        2
176
     1
 90
        2
176
     1
 90
        1
176
     1
 90
        2
176
     1
 40
0.6
176
     1
 40
30.0
176
     1
 62
     7
420
 16777215
176
     1
 90
        0
176
     1
 90
        4
176
     1
 62
     7
176
     1
 62
   257
176
     1
 90
        1
176
     1
 90
        1
176
     1
 40
1.0
176
     1
 90
        0
176
     1
 62
     7
176
     1
 40
1.0
176
     1
 90
        1
176
     1
 90
        6
176
     1
 90
        2
176
     1
 62
     7
176
     1
 90
        5
176
     1
 90
        0
176
     1
 90
        0
176
     1
290
     0
176
     1
 90
       13
176
     1
 40
0.0
176
     1
 90
        0
176
     1
290
     0
176
     1
290
     1
176
     1
290
     1
176
     1
290
     0
176
     1
290
     0
176
     1
290
     0
176
     1
290
     0
176
     1
290
     0
176
     1
290
     0
176
     1
 90
       50
176
     1
 40
0.0
176
     1
 40
1.0
176
     1
 90
        0
176
     1
 62
    18
176
     1
 90
       50
176
     1
 90
        3
176
     1
 62
     5
420
      255
176
     1
290
     0
176
     1
 90
       50
176
     1
 90
       50
176
     1
 90
       50
176
     1
290
     0
176
     1
 90
       50
176
     1
 62
   256
176
     0
 40
1.0
176
     0
 90
        2
176
     1
  1
strokes_ogs.tif
176
     1
290
     0
176
     1
 40
1.0
176
     1
 40
1.0
176
     1
  0
VISUALSTYLE
  5
387B4
102
{ACAD_REACTORS
330
38666
102
}
330
38666
100
AcDbVisualStyle
  2
GouraudWithEdges
 70
     3
177
     3
291
     1
 70
    58
 90
        2
176
     1
 90
        2
176
     1
 90
        1
176
     1
 90
        2
176
     1
 40
0.6
176
     1
 40
30.0
176
     1
 62
     7
420
 16777215
176
     1
 90
        1
176
     1
 90
        4
176
     1
 62
     7
176
     1
 62
   257
176
     1
 90
        1
176
     1
 90
        1
176
     1
 40
1.0
176
     1
 90
        0
176
     1
 62
   257
176
     1
 40
1.0
176
     1
 90
        1
176
     1
 90
        6
176
     1
 90
        2
176
     1
 62
     7
176
     1
 90
        5
176
     1
 90
        0
176
     1
 90
        0
176
     1
290
     0
176
     1
 90
       13
176
     1
 40
0.0
176
     1
 90
        0
176
     1
290
     0
176
     1
290
     1
176
     1
290
     1
176
     1
290
     0
176
     1
290
     0
176
     1
290
     0
176
     1
290
     0
176
     1
290
     0
176
     1
290
     0
176
     1
 90
       50
176
     1
 40
0.0
176
     1
 40
1.0
176
     1
 90
        0
176
     1
 62
    18
176
     1
 90
       50
176
     1
 90
        3
176
     1
 62
     5
420
      255
176
     1
290
     0
176
     1
 90
       50
176
     1
 90
       50
176
     1
 90
       50
176
     1
290
     0
176
     1
 90
       50
176
     1
 62
   256
176
     0
 40
1.0
176
     0
 90
        2
176
     1
  1
strokes_ogs.tif
176
     1
290
     0
176
     1
 40
1.0
176
     1
 40
1.0
176
     1
  0
VISUALSTYLE
  5
38ACD
102
{ACAD_REACTORS
330
38666
102
}
330
38666
100
AcDbVisualStyle
  2
Hidden
 70
     6
177
     3
291
     0
 70
    58
 90
        1
176
     1
 90
        2
176
     1
 90
        2
176
     1
 90
        0
176
     1
 40
0.6
176
     1
 40
30.0
176
     1
 62
     7
420
 16777215
176
     1
 90
        2
176
     1
 90
        2
176
     1
 62
     7
176
     1
 62
   257
176
     1
 90
        2
176
     1
 90
        1
176
     1
 40
40.0
176
     1
 90
        0
176
     1
 62
   257
176
     1
 40
1.0
176
     1
 90
        1
176
     1
 90
        6
176
     1
 90
        2
176
     1
 62
     7
176
     1
 90
        3
176
     1
 90
        0
176
     1
 90
        0
176
     1
290
     0
176
     1
 90
        1
176
     1
 40
0.0
176
     1
 90
        0
176
     1
290
     0
176
     1
290
     1
176
     1
290
     1
176
     1
290
     0
176
     1
290
     0
176
     1
290
     0
176
     1
290
     0
176
     1
290
     0
176
     1
290
     0
176
     1
 90
       50
176
     1
 40
0.0
176
     1
 40
1.0
176
     1
 90
        0
176
     1
 62
    18
176
     1
 90
       50
176
     1
 90
        3
176
     1
 62
     5
420
      255
176
     1
290
     0
176
     1
 90
       50
176
     1
 90
       50
176
     1
 90
       50
176
     1
290
     0
176
     1
 90
       50
176
     1
 62
   256
176
     0
 40
1.0
176
     0
 90
        2
176
     1
  1
strokes_ogs.tif
176
     1
290
     0
176
     1
 40
1.0
176
     1
 40
1.0
176
     1
  0
VISUALSTYLE
  5
387BE
102
{ACAD_REACTORS
330
38666
102
}
330
38666
100
AcDbVisualStyle
  2
JitterOff
 70
    20
177
     3
291
     1
 70
    58
 90
        2
176
     0
 90
        2
176
     0
 90
        0
176
     0
 90
        0
176
     0
 40
0.6
176
     0
 40
30.0
176
     0
 62
     7
420
 16777215
176
     0
 90
        1
176
     0
 90
        4
176
     0
 62
     7
176
     0
 62
   257
176
     0
 90
        1
176
     0
 90
        1
176
     0
 40
1.0
176
     0
 90
       10
176
     2
 62
     7
176
     0
 40
1.0
176
     0
 90
        1
176
     0
 90
        6
176
     0
 90
        2
176
     0
 62
     7
176
     0
 90
        5
176
     0
 90
        0
176
     0
 90
        0
176
     0
290
     0
176
     0
 90
        1
176
     0
 40
0.0
176
     0
 90
        0
176
     0
290
     0
176
     1
290
     1
176
     1
290
     1
176
     1
290
     0
176
     1
290
     0
176
     1
290
     0
176
     1
290
     0
176
     1
290
     0
176
     1
290
     0
176
     1
 90
       50
176
     1
 40
0.0
176
     1
 40
1.0
176
     1
 90
        0
176
     1
 62
    18
176
     1
 90
       50
176
     1
 90
        3
176
     1
 62
     5
420
      255
176
     1
290
     0
176
     1
 90
       50
176
     1
 90
       50
176
     1
 90
       50
176
     1
290
     0
176
     1
 90
       50
176
     1
 62
   256
176
     0
 40
1.0
176
     0
 90
        2
176
     1
  1
strokes_ogs.tif
176
     1
290
     0
176
     1
 40
1.0
176
     1
 40
1.0
176
     1
  0
VISUALSTYLE
  5
387BB
102
{ACAD_REACTORS
330
38666
102
}
330
38666
100
AcDbVisualStyle
  2
Linepattern
 70
    14
177
     3
291
     1
 70
    58
 90
        2
176
     1
 90
        2
176
     1
 90
        0
176
     1
 90
        0
176
     1
 40
0.6
176
     1
 40
30.0
176
     1
 62
     7
420
 16777215
176
     1
 90
        1
176
     1
 90
        4
176
     1
 62
     7
176
     1
 62
   257
176
     1
 90
        7
176
     1
 90
        7
176
     1
 40
1.0
176
     1
 90
        8
176
     1
 62
     7
176
     1
 40
1.0
176
     1
 90
        1
176
     1
 90
        6
176
     1
 90
        2
176
     1
 62
     7
176
     1
 90
        5
176
     1
 90
        0
176
     1
 90
        0
176
     1
290
     0
176
     1
 90
        1
176
     1
 40
0.0
176
     1
 90
        0
176
     1
290
     0
176
     1
290
     1
176
     1
290
     1
176
     1
290
     0
176
     1
290
     0
176
     1
290
     0
176
     1
290
     0
176
     1
290
     0
176
     1
290
     0
176
     1
 90
       50
176
     1
 40
0.0
176
     1
 40
1.0
176
     1
 90
        0
176
     1
 62
    18
176
     1
 90
       50
176
     1
 90
        3
176
     1
 62
     5
420
      255
176
     1
290
     0
176
     1
 90
       50
176
     1
 90
       50
176
     1
 90
       50
176
     1
290
     0
176
     1
 90
       50
176
     1
 62
   256
176
     0
 40
1.0
176
     0
 90
        2
176
     1
  1
strokes_ogs.tif
176
     1
290
     0
176
     1
 40
1.0
176
     1
 40
1.0
176
     1
  0
VISUALSTYLE
  5
387BF
102
{ACAD_REACTORS
330
38666
102
}
330
38666
100
AcDbVisualStyle
  2
OverhangOff
 70
    21
177
     3
291
     1
 70
    58
 90
        2
176
     0
 90
        2
176
     0
 90
        0
176
     0
 90
        0
176
     0
 40
0.6
176
     0
 40
30.0
176
     0
 62
     7
420
 16777215
176
     0
 90
        1
176
     0
 90
        4
176
     0
 62
     7
176
     0
 62
   257
176
     0
 90
        1
176
     0
 90
        1
176
     0
 40
1.0
176
     0
 90
        9
176
     2
 62
     7
176
     0
 40
1.0
176
     0
 90
        1
176
     0
 90
        6
176
     0
 90
        2
176
     0
 62
     7
176
     0
 90
        5
176
     0
 90
        0
176
     0
 90
        0
176
     0
290
     0
176
     0
 90
        1
176
     0
 40
0.0
176
     0
 90
        0
176
     0
290
     0
176
     1
290
     1
176
     1
290
     1
176
     1
290
     0
176
     1
290
     0
176
     1
290
     0
176
     1
290
     0
176
     1
290
     0
176
     1
290
     0
176
     1
 90
       50
176
     1
 40
0.0
176
     1
 40
1.0
176
     1
 90
        0
176
     1
 62
    18
176
     1
 90
       50
176
     1
 90
        3
176
     1
 62
     5
420
      255
176
     1
290
     0
176
     1
 90
       50
176
     1
 90
       50
176
     1
 90
       50
176
     1
290
     0
176
     1
 90
       50
176
     1
 62
   256
176
     0
 40
1.0
176
     0
 90
        2
176
     1
  1
strokes_ogs.tif
176
     1
290
     0
176
     1
 40
1.0
176
     1
 40
1.0
176
     1
  0
VISUALSTYLE
  5
38685
102
{ACAD_REACTORS
330
38666
102
}
330
38666
100
AcDbVisualStyle
  2
Realistic
 70
     8
177
     3
291
     0
 70
    58
 90
        2
176
     1
 90
        2
176
     1
 90
        0
176
     1
 90
        0
176
     1
 40
0.6
176
     1
 40
30.0
176
     1
 62
     7
420
 16777215
176
     1
 90
        1
176
     1
 90
        0
176
     1
 62
     7
176
     1
 62
   257
176
     1
 90
        1
176
     1
 90
        1
176
     1
 40
1.0
176
     1
 90
        8
176
     1
 62
     8
420
  7895160
176
     1
 40
1.0
176
     1
 90
        1
176
     1
 90
        6
176
     1
 90
        2
176
     1
 62
     7
176
     1
 90
        5
176
     1
 90
        0
176
     1
 90
        0
176
     1
290
     0
176
     1
 90
       13
176
     1
 40
0.0
176
     1
 90
        0
176
     1
290
     0
176
     1
290
     1
176
     1
290
     1
176
     1
290
     0
176
     1
290
     0
176
     1
290
     0
176
     1
290
     0
176
     1
290
     0
176
     1
290
     0
176
     1
 90
       50
176
     1
 40
0.0
176
     1
 40
1.0
176
     1
 90
        0
176
     1
 62
    18
176
     1
 90
       50
176
     1
 90
        3
176
     1
 62
     5
420
      255
176
     1
290
     0
176
     1
 90
       50
176
     1
 90
       50
176
     1
 90
       50
176
     1
290
     0
176
     1
 90
       50
176
     1
 62
   256
176
     0
 40
1.0
176
     0
 90
        2
176
     1
  1
strokes_ogs.tif
176
     1
290
     0
176
     1
 40
1.0
176
     1
 40
1.0
176
     1
  0
VISUALSTYLE
  5
38AD2
102
{ACAD_REACTORS
330
38666
102
}
330
38666
100
AcDbVisualStyle
  2
Shaded
 70
    27
177
     3
291
     0
 70
    58
 90
        2
176
     1
 90
        2
176
     1
 90
        1
176
     1
 90
        2
176
     1
 40
0.6
176
     1
 40
30.0
176
     1
 62
     7
420
 16777215
176
     1
 90
        0
176
     1
 90
        4
176
     1
 62
     7
176
     1
 62
   257
176
     1
 90
        1
176
     1
 90
        1
176
     1
 40
1.0
176
     1
 90
        8
176
     1
 62
   257
176
     1
 40
1.0
176
     1
 90
        1
176
     1
 90
        6
176
     1
 90
        2
176
     1
 62
     8
420
  7895160
176
     1
 90
        3
176
     1
 90
        0
176
     1
 90
        0
176
     1
290
     0
176
     1
 90
        5
176
     1
 40
0.0
176
     1
 90
        0
176
     1
290
     0
176
     1
290
     1
176
     1
290
     1
176
     1
290
     0
176
     1
290
     0
176
     1
290
     0
176
     1
290
     0
176
     1
290
     0
176
     1
290
     0
176
     1
 90
       50
176
     1
 40
0.0
176
     1
 40
1.0
176
     1
 90
        0
176
     1
 62
    18
176
     1
 90
       50
176
     1
 90
        3
176
     1
 62
     5
420
      255
176
     1
290
     0
176
     1
 90
       50
176
     1
 90
       50
176
     1
 90
       50
176
     1
290
     0
176
     1
 90
       50
176
     1
 62
   256
176
     0
 40
1.0
176
     0
 90
        2
176
     1
  1
strokes_ogs.tif
176
     1
290
     0
176
     1
 40
1.0
176
     1
 40
1.0
176
     1
  0
VISUALSTYLE
  5
38AD1
102
{ACAD_REACTORS
330
38666
102
}
330
38666
100
AcDbVisualStyle
  2
Shaded with edges
 70
    26
177
     3
291
     0
 70
    58
 90
        2
176
     1
 90
        2
176
     1
 90
        1
176
     1
 90
        2
176
     1
 40
0.6
176
     1
 40
30.0
176
     1
 62
     7
420
 16777215
176
     1
 90
        1
176
     1
 90
        2
176
     1
 62
     7
176
     1
 62
   257
176
     1
 90
        2
176
     1
 90
        1
176
     1
 40
1.0
176
     1
 90
        8
176
     1
 62
   257
176
     1
 40
1.0
176
     1
 90
        1
176
     1
 90
        6
176
     1
 90
        2
176
     1
 62
     7
176
     1
 90
        3
176
     1
 90
        0
176
     1
 90
        0
176
     1
290
     0
176
     1
 90
        5
176
     1
 40
0.0
176
     1
 90
        0
176
     1
290
     0
176
     1
290
     1
176
     1
290
     1
176
     1
290
     0
176
     1
290
     0
176
     1
290
     0
176
     1
290
     0
176
     1
290
     0
176
     1
290
     0
176
     1
 90
       50
176
     1
 40
0.0
176
     1
 40
1.0
176
     1
 90
        0
176
     1
 62
    18
176
     1
 90
       50
176
     1
 90
        3
176
     1
 62
     5
420
      255
176
     1
290
     0
176
     1
 90
       50
176
     1
 90
       50
176
     1
 90
       50
176
     1
290
     0
176
     1
 90
       50
176
     1
 62
   256
176
     0
 40
1.0
176
     0
 90
        2
176
     1
  1
strokes_ogs.tif
176
     1
290
     0
176
     1
 40
1.0
176
     1
 40
1.0
176
     1
  0
VISUALSTYLE
  5
38ACE
102
{ACAD_REACTORS
330
38666
102
}
330
38666
100
AcDbVisualStyle
  2
Shades of Gray
 70
    23
177
     3
291
     0
 70
    58
 90
        2
176
     1
 90
        2
176
     1
 90
        3
176
     1
 90
        0
176
     1
 40
0.6
176
     1
 40
30.0
176
     1
 62
     7
420
 16777215
176
     1
 90
        2
176
     1
 90
        2
176
     1
 62
     7
176
     1
 62
     7
176
     1
 90
        1
176
     1
 90
        1
176
     1
 40
40.0
176
     1
 90
        8
176
     1
 62
     7
176
     1
 40
1.0
176
     1
 90
        1
176
     1
 90
        6
176
     1
 90
        2
176
     1
 62
     7
176
     1
 90
        3
176
     1
 90
        0
176
     1
 90
        0
176
     1
290
     0
176
     1
 90
        1
176
     1
 40
0.0
176
     1
 90
        0
176
     1
290
     0
176
     1
290
     1
176
     1
290
     1
176
     1
290
     0
176
     1
290
     0
176
     1
290
     0
176
     1
290
     0
176
     1
290
     0
176
     1
290
     0
176
     1
 90
       50
176
     1
 40
0.0
176
     1
 40
1.0
176
     1
 90
        0
176
     1
 62
    18
176
     1
 90
       50
176
     1
 90
        3
176
     1
 62
     5
420
      255
176
     1
290
     0
176
     1
 90
       50
176
     1
 90
       50
176
     1
 90
       50
176
     1
290
     0
176
     1
 90
       50
176
     1
 62
   256
176
     0
 40
1.0
176
     0
 90
        2
176
     1
  1
strokes_ogs.tif
176
     1
290
     0
176
     1
 40
1.0
176
     1
 40
1.0
176
     1
  0
VISUALSTYLE
  5
38ACF
102
{ACAD_REACTORS
330
38666
102
}
330
38666
100
AcDbVisualStyle
  2
Sketchy
 70
    24
177
     3
291
     0
 70
    58
 90
        1
176
     1
 90
        2
176
     1
 90
        2
176
     1
 90
        0
176
     1
 40
0.6
176
     1
 40
30.0
176
     1
 62
     7
420
 16777215
176
     1
 90
        2
176
     1
 90
        2
176
     1
 62
     7
176
     1
 62
     7
176
     1
 90
        1
176
     1
 90
        1
176
     1
 40
40.0
176
     1
 90
       11
176
     1
 62
     7
176
     1
 40
1.0
176
     1
 90
        1
176
     1
 90
        6
176
     1
 90
        2
176
     1
 62
     7
176
     1
 90
        6
176
     1
 90
        0
176
     1
 90
        0
176
     1
290
     0
176
     1
 90
        1
176
     1
 40
0.0
176
     1
 90
        0
176
     1
290
     0
176
     1
290
     1
176
     1
290
     1
176
     1
290
     0
176
     1
290
     0
176
     1
290
     0
176
     1
290
     0
176
     1
290
     0
176
     1
290
     0
176
     1
 90
       50
176
     1
 40
0.0
176
     1
 40
1.0
176
     1
 90
        0
176
     1
 62
    18
176
     1
 90
       50
176
     1
 90
        3
176
     1
 62
     5
420
      255
176
     1
290
     0
176
     1
 90
       50
176
     1
 90
       50
176
     1
 90
       50
176
     1
290
     0
176
     1
 90
       50
176
     1
 62
   256
176
     0
 40
1.0
176
     0
 90
        2
176
     1
  1
strokes_ogs.tif
176
     1
290
     0
176
     1
 40
1.0
176
     1
 40
1.0
176
     1
  0
VISUALSTYLE
  5
387BA
102
{ACAD_REACTORS
330
38666
102
}
330
38666
100
AcDbVisualStyle
  2
Thicken
 70
    13
177
     3
291
     1
 70
    58
 90
        2
176
     1
 90
        2
176
     1
 90
        0
176
     1
 90
        0
176
     1
 40
0.6
176
     1
 40
30.0
176
     1
 62
     7
420
 16777215
176
     1
 90
        1
176
     1
 90
        4
176
     1
 62
     7
176
     1
 62
   257
176
     1
 90
        1
176
     1
 90
        1
176
     1
 40
1.0
176
     1
 90
       12
176
     1
 62
     7
176
     1
 40
1.0
176
     1
 90
        1
176
     1
 90
        6
176
     1
 90
        2
176
     1
 62
     7
176
     1
 90
        5
176
     1
 90
        0
176
     1
 90
        0
176
     1
290
     0
176
     1
 90
        1
176
     1
 40
0.0
176
     1
 90
        0
176
     1
290
     0
176
     1
290
     1
176
     1
290
     1
176
     1
290
     0
176
     1
290
     0
176
     1
290
     0
176
     1
290
     0
176
     1
290
     0
176
     1
290
     0
176
     1
 90
       50
176
     1
 40
0.0
176
     1
 40
1.0
176
     1
 90
        0
176
     1
 62
    18
176
     1
 90
       50
176
     1
 90
        3
176
     1
 62
     5
420
      255
176
     1
290
     0
176
     1
 90
       50
176
     1
 90
       50
176
     1
 90
       50
176
     1
290
     0
176
     1
 90
       50
176
     1
 62
   256
176
     0
 40
1.0
176
     0
 90
        2
176
     1
  1
strokes_ogs.tif
176
     1
290
     0
176
     1
 40
1.0
176
     1
 40
1.0
176
     1
  0
VISUALSTYLE
  5
38ACC
102
{ACAD_REACTORS
330
38666
102
}
330
38666
100
AcDbVisualStyle
  2
Wireframe
 70
     5
177
     3
291
     0
 70
    58
 90
        0
176
     1
 90
        2
176
     1
 90
        0
176
     1
 90
        0
176
     1
 40
0.6
176
     1
 40
30.0
176
     1
 62
     7
420
 16777215
176
     1
 90
        1
176
     1
 90
        4
176
     1
 62
     7
176
     1
 62
   257
176
     1
 90
        1
176
     1
 90
        1
176
     1
 40
1.0
176
     1
 90
        0
176
     1
 62
   257
176
     1
 40
1.0
176
     1
 90
        1
176
     1
 90
        6
176
     1
 90
        2
176
     1
 62
     7
176
     1
 90
        3
176
     1
 90
        0
176
     1
 90
        0
176
     1
290
     0
176
     1
 90
        1
176
     1
 40
0.0
176
     1
 90
        0
176
     1
290
     0
176
     1
290
     1
176
     1
290
     1
176
     1
290
     0
176
     1
290
     0
176
     1
290
     0
176
     1
290
     0
176
     1
290
     0
176
     1
290
     0
176
     1
 90
       50
176
     1
 40
0.0
176
     1
 40
1.0
176
     1
 90
        0
176
     1
 62
    18
176
     1
 90
       50
176
     1
 90
        3
176
     1
 62
     5
420
      255
176
     1
290
     0
176
     1
 90
       50
176
     1
 90
       50
176
     1
 90
       50
176
     1
290
     0
176
     1
 90
       50
176
     1
 62
   256
176
     0
 40
1.0
176
     0
 90
        2
176
     1
  1
strokes_ogs.tif
176
     1
290
     0
176
     1
 40
1.0
176
     1
 40
1.0
176
     1
  0
VISUALSTYLE
  5
38AD0
102
{ACAD_REACTORS
330
38666
102
}
330
38666
100
AcDbVisualStyle
  2
X-Ray
 70
    25
177
     3
291
     0
 70
    58
 90
        2
176
     1
 90
        2
176
     1
 90
        1
176
     1
 90
        1
176
     1
 40
0.5
176
     1
 40
30.0
176
     1
 62
     7
420
 16777215
176
     1
 90
        1
176
     1
 90
        0
176
     1
 62
     7
176
     1
 62
   257
176
     1
 90
        1
176
     1
 90
        1
176
     1
 40
1.0
176
     1
 90
        8
176
     1
 62
     7
176
     1
 40
1.0
176
     1
 90
        1
176
     1
 90
        6
176
     1
 90
        2
176
     1
 62
     7
176
     1
 90
        3
176
     1
 90
        0
176
     1
 90
        0
176
     1
290
     0
176
     1
 90
       13
176
     1
 40
0.0
176
     1
 90
        0
176
     1
290
     0
176
     1
290
     1
176
     1
290
     1
176
     1
290
     0
176
     1
290
     0
176
     1
290
     0
176
     1
290
     0
176
     1
290
     0
176
     1
290
     0
176
     1
 90
       50
176
     1
 40
0.0
176
     1
 40
1.0
176
     1
 90
        0
176
     1
 62
    18
176
     1
 90
       50
176
     1
 90
        3
176
     1
 62
     5
420
      255
176
     1
290
     0
176
     1
 90
       50
176
     1
 90
       50
176
     1
 90
       50
176
     1
290
     0
176
     1
 90
       50
176
     1
 62
   256
176
     0
 40
1.0
176
     0
 90
        2
176
     1
  1
strokes_ogs.tif
176
     1
290
     0
176
     1
 40
1.0
176
     1
 40
1.0
176
     1
  0
DICTIONARYVAR
  5
387AC
102
{ACAD_REACTORS
330
387A8
102
}
330
387A8
100
DictionaryVariables
280
     0
  1
1:1
  0
DICTIONARYVAR
  5
387AA
102
{ACAD_REACTORS
330
387A8
102
}
330
387A8
100
DictionaryVariables
280
     0
  1
STANDARD
  0
DICTIONARYVAR
  5
387A9
102
{ACAD_REACTORS
330
387A8
102
}
330
387A8
100
DictionaryVariables
280
     0
  1
STANDARD
  0
DICTIONARYVAR
  5
3CE52
102
{ACAD_REACTORS
330
387A8
102
}
330
387A8
100
DictionaryVariables
280
     0
  1
Imperial24
  0
DICTIONARYVAR
  5
3CE53
102
{ACAD_REACTORS
330
387A8
102
}
330
387A8
100
DictionaryVariables
280
     0
  1
Imperial24
  0
DICTIONARYVAR
  5
387AE
102
{ACAD_REACTORS
330
387A8
102
}
330
387A8
100
DictionaryVariables
280
     0
  1
1
  0
DICTIONARYVAR
  5
387AF
102
{ACAD_REACTORS
330
387A8
102
}
330
387A8
100
DictionaryVariables
280
     0
  1
15
  0
DICTIONARYVAR
  5
387AD
102
{ACAD_REACTORS
330
387A8
102
}
330
387A8
100
DictionaryVariables
280
     0
  1
0
  0
DICTIONARYVAR
  5
387AB
102
{ACAD_REACTORS
330
387A8
102
}
330
387A8
100
DictionaryVariables
280
     0
  1
0
  0
DICTIONARYVAR
  5
3D1D0
330
3D1CF
100
DictionaryVariables
280
     0
  1
1.4.3 @ 2026-05-09T19:44:06.275775+00:00
  0
DICTIONARY
  5
3ABD4
102
{ACAD_REACTORS
330
3ABD3
102
}
330
3ABD3
100
AcDbDictionary
280
     1
281
     1
  0
DICTIONARY
  5
38655
330
38654
100
AcDbDictionary
280
     1
281
     1
  0
DICTIONARY
  5
38678
330
38677
100
AcDbDictionary
280
     1
281
     1
  3
BUMPTILE
360
38679
  3
DIFFUSETILE
360
3867A
  3
OPACITYTILE
360
3867B
  3
REFLECTIONTILE
360
3867C
  3
REFRACTIONTILE
360
3867D
  3
SPECULARTILE
360
3867E
  0
DICTIONARY
  5
38670
330
3866F
100
AcDbDictionary
280
     1
281
     1
  3
BUMPTILE
360
38671
  3
DIFFUSETILE
360
38672
  3
OPACITYTILE
360
38673
  3
REFLECTIONTILE
360
38674
  3
REFRACTIONTILE
360
38675
  3
SPECULARTILE
360
38676
  0
DICTIONARY
  5
38646
330
38644
100
AcDbDictionary
280
     1
281
     1
  3
BUMPTILE
360
38647
  3
DIFFUSETILE
360
38648
  3
OPACITYTILE
360
38649
  3
REFLECTIONTILE
360
3864A
  3
REFRACTIONTILE
360
3864B
  3
SPECULARTILE
360
3864C
  0
DICTIONARY
  5
3879F
330
38684
100
AcDbDictionary
280
     1
281
     1
  3
ACAD_ROUNDTRIP_2008_TABLESTYLE_CELLSTYLEMAP
360
3D25B
  0
XRECORD
  5
38679
102
{ACAD_REACTORS
330
38678
102
}
330
38678
100
AcDbXrecord
280
     1
270
     1
271
     1
  0
XRECORD
  5
3867A
102
{ACAD_REACTORS
330
38678
102
}
330
38678
100
AcDbXrecord
280
     1
270
     1
271
     1
  0
XRECORD
  5
3867B
102
{ACAD_REACTORS
330
38678
102
}
330
38678
100
AcDbXrecord
280
     1
270
     1
271
     1
  0
XRECORD
  5
3867C
102
{ACAD_REACTORS
330
38678
102
}
330
38678
100
AcDbXrecord
280
     1
270
     1
271
     1
  0
XRECORD
  5
3867D
102
{ACAD_REACTORS
330
38678
102
}
330
38678
100
AcDbXrecord
280
     1
270
     1
271
     1
  0
XRECORD
  5
3867E
102
{ACAD_REACTORS
330
38678
102
}
330
38678
100
AcDbXrecord
280
     1
270
     1
271
     1
  0
XRECORD
  5
38671
102
{ACAD_REACTORS
330
38670
102
}
330
38670
100
AcDbXrecord
280
     1
270
     1
271
     1
  0
XRECORD
  5
38672
102
{ACAD_REACTORS
330
38670
102
}
330
38670
100
AcDbXrecord
280
     1
270
     1
271
     1
  0
XRECORD
  5
38673
102
{ACAD_REACTORS
330
38670
102
}
330
38670
100
AcDbXrecord
280
     1
270
     1
271
     1
  0
XRECORD
  5
38674
102
{ACAD_REACTORS
330
38670
102
}
330
38670
100
AcDbXrecord
280
     1
270
     1
271
     1
  0
XRECORD
  5
38675
102
{ACAD_REACTORS
330
38670
102
}
330
38670
100
AcDbXrecord
280
     1
270
     1
271
     1
  0
XRECORD
  5
38676
102
{ACAD_REACTORS
330
38670
102
}
330
38670
100
AcDbXrecord
280
     1
270
     1
271
     1
  0
XRECORD
  5
38647
102
{ACAD_REACTORS
330
38646
102
}
330
38646
100
AcDbXrecord
280
     1
270
     1
271
     1
  0
XRECORD
  5
38648
102
{ACAD_REACTORS
330
38646
102
}
330
38646
100
AcDbXrecord
280
     1
270
     1
271
     1
  0
XRECORD
  5
38649
102
{ACAD_REACTORS
330
38646
102
}
330
38646
100
AcDbXrecord
280
     1
270
     1
271
     1
  0
XRECORD
  5
3864A
102
{ACAD_REACTORS
330
38646
102
}
330
38646
100
AcDbXrecord
280
     1
270
     1
271
     1
  0
XRECORD
  5
3864B
102
{ACAD_REACTORS
330
38646
102
}
330
38646
100
AcDbXrecord
280
     1
270
     1
271
     1
  0
XRECORD
  5
3864C
102
{ACAD_REACTORS
330
38646
102
}
330
38646
100
AcDbXrecord
280
     1
270
     1
271
     1
  0
CELLSTYLEMAP
  5
3D25B
102
{ACAD_REACTORS
330
3879F
102
}
330
3879F
100
AcDbCellStyleMap
 90
        3
300
CELLSTYLE
  1
TABLEFORMAT_BEGIN
 90
        5
170
     1
 91
        0
 92
    32768
 62
   257
 93
        1
300
CONTENTFORMAT
  1
CONTENTFORMAT_BEGIN
 90
        0
 91
        0
 92
        4
 93
        0
300

 40
0.0
140
1.0
 94
        5
 62
     0
340
3865C
144
0.25
309
CONTENTFORMAT_END
171
     1
301
MARGIN
  1
CELLMARGIN_BEGIN
 40
0.06
 40
0.06
 40
0.06
 40
0.06
 40
0.18
 40
0.18
309
CELLMARGIN_END
 94
        6
 95
        1
302
GRIDFORMAT
  1
GRIDFORMAT_BEGIN
 90
        0
 91
        1
 62
     0
 92
       -2
340
0
 93
        0
 40
0.045
309
GRIDFORMAT_END
 95
        2
302
GRIDFORMAT
  1
GRIDFORMAT_BEGIN
 90
        0
 91
        1
 62
     0
 92
       -2
340
0
 93
        0
 40
0.045
309
GRIDFORMAT_END
 95
        4
302
GRIDFORMAT
  1
GRIDFORMAT_BEGIN
 90
        0
 91
        1
 62
     0
 92
       -2
340
0
 93
        0
 40
0.045
309
GRIDFORMAT_END
 95
        8
302
GRIDFORMAT
  1
GRIDFORMAT_BEGIN
 90
        0
 91
        1
 62
     0
 92
       -2
340
0
 93
        0
 40
0.045
309
GRIDFORMAT_END
 95
       16
302
GRIDFORMAT
  1
GRIDFORMAT_BEGIN
 90
        0
 91
        1
 62
     0
 92
       -2
340
0
 93
        0
 40
0.045
309
GRIDFORMAT_END
 95
       32
302
GRIDFORMAT
  1
GRIDFORMAT_BEGIN
 90
        0
 91
        1
 62
     0
 92
       -2
340
0
 93
        0
 40
0.045
309
GRIDFORMAT_END
309
TABLEFORMAT_END
  1
CELLSTYLE_BEGIN
 90
        1
 91
        1
300
_TITLE
309
CELLSTYLE_END
300
CELLSTYLE
  1
TABLEFORMAT_BEGIN
 90
        5
170
     1
 91
        0
 92
        0
 62
   257
 93
        1
300
CONTENTFORMAT
  1
CONTENTFORMAT_BEGIN
 90
        0
 91
        0
 92
        4
 93
        0
300

 40
0.0
140
1.0
 94
        5
 62
     0
340
3865C
144
0.18
309
CONTENTFORMAT_END
171
     1
301
MARGIN
  1
CELLMARGIN_BEGIN
 40
0.06
 40
0.06
 40
0.06
 40
0.06
 40
0.18
 40
0.18
309
CELLMARGIN_END
 94
        6
 95
        1
302
GRIDFORMAT
  1
GRIDFORMAT_BEGIN
 90
        0
 91
        1
 62
     0
 92
       -2
340
0
 93
        0
 40
0.045
309
GRIDFORMAT_END
 95
        2
302
GRIDFORMAT
  1
GRIDFORMAT_BEGIN
 90
        0
 91
        1
 62
     0
 92
       -2
340
0
 93
        0
 40
0.045
309
GRIDFORMAT_END
 95
        4
302
GRIDFORMAT
  1
GRIDFORMAT_BEGIN
 90
        0
 91
        1
 62
     0
 92
       -2
340
0
 93
        0
 40
0.045
309
GRIDFORMAT_END
 95
        8
302
GRIDFORMAT
  1
GRIDFORMAT_BEGIN
 90
        0
 91
        1
 62
     0
 92
       -2
340
0
 93
        0
 40
0.045
309
GRIDFORMAT_END
 95
       16
302
GRIDFORMAT
  1
GRIDFORMAT_BEGIN
 90
        0
 91
        1
 62
     0
 92
       -2
340
0
 93
        0
 40
0.045
309
GRIDFORMAT_END
 95
       32
302
GRIDFORMAT
  1
GRIDFORMAT_BEGIN
 90
        0
 91
        1
 62
     0
 92
       -2
340
0
 93
        0
 40
0.045
309
GRIDFORMAT_END
309
TABLEFORMAT_END
  1
CELLSTYLE_BEGIN
 90
        2
 91
        1
300
_HEADER
309
CELLSTYLE_END
300
CELLSTYLE
  1
TABLEFORMAT_BEGIN
 90
        5
170
     1
 91
        0
 92
        0
 62
   257
 93
        1
300
CONTENTFORMAT
  1
CONTENTFORMAT_BEGIN
 90
        0
 91
        0
 92
        4
 93
        0
300

 40
0.0
140
1.0
 94
        2
 62
     0
340
3865C
144
0.18
309
CONTENTFORMAT_END
171
     1
301
MARGIN
  1
CELLMARGIN_BEGIN
 40
0.06
 40
0.06
 40
0.06
 40
0.06
 40
0.18
 40
0.18
309
CELLMARGIN_END
 94
        6
 95
        1
302
GRIDFORMAT
  1
GRIDFORMAT_BEGIN
 90
        0
 91
        1
 62
     0
 92
       -2
340
0
 93
        0
 40
0.045
309
GRIDFORMAT_END
 95
        2
302
GRIDFORMAT
  1
GRIDFORMAT_BEGIN
 90
        0
 91
        1
 62
     0
 92
       -2
340
0
 93
        0
 40
0.045
309
GRIDFORMAT_END
 95
        4
302
GRIDFORMAT
  1
GRIDFORMAT_BEGIN
 90
        0
 91
        1
 62
     0
 92
       -2
340
0
 93
        0
 40
0.045
309
GRIDFORMAT_END
 95
        8
302
GRIDFORMAT
  1
GRIDFORMAT_BEGIN
 90
        0
 91
        1
 62
     0
 92
       -2
340
0
 93
        0
 40
0.045
309
GRIDFORMAT_END
 95
       16
302
GRIDFORMAT
  1
GRIDFORMAT_BEGIN
 90
        0
 91
        1
 62
     0
 92
       -2
340
0
 93
        0
 40
0.045
309
GRIDFORMAT_END
 95
       32
302
GRIDFORMAT
  1
GRIDFORMAT_BEGIN
 90
        0
 91
        1
 62
     0
 92
       -2
340
0
 93
        0
 40
0.045
309
GRIDFORMAT_END
309
TABLEFORMAT_END
  1
CELLSTYLE_BEGIN
 90
        3
 91
        2
300
_DATA
309
CELLSTYLE_END
  0
ENDSEC
  0
SECTION
  2
ACDSDATA
 70
     2
 71
     8
  0
ACDSSCHEMA
 90
        0
  1
AcDb_Thumbnail_Schema
  2
AcDbDs::ID
280
    10
 91
        8
  2
Thumbnail_Data
280
    15
 91
        0
101
ACDSRECORD
 95
        0
 90
        1
  2
AcDbDs::TreatedAsObjectData
280
     1
291
     1
101
ACDSRECORD
 95
        0
 90
        2
  2
AcDbDs::Legacy
280
     1
291
     1
101
ACDSRECORD
  1
AcDbDs::ID
 90
        3
  2
AcDs:Indexable
280
     1
291
     1
101
ACDSRECORD
  1
AcDbDs::ID
 90
        4
  2
AcDbDs::HandleAttribute
280
     7
282
     1
  0
ACDSSCHEMA
 90
        1
  1
AcDbDs::TreatedAsObjectDataSchema
  2
AcDbDs::TreatedAsObjectData
280
     1
 91
        0
  0
ACDSSCHEMA
 90
        2
  1
AcDbDs::LegacySchema
  2
AcDbDs::Legacy
280
     1
 91
        0
  0
ACDSSCHEMA
 90
        3
  1
AcDbDs::IndexedPropertySchema
  2
AcDs:Indexable
280
     1
 91
        0
  0
ACDSSCHEMA
 90
        4
  1
AcDbDs::HandleAttributeSchema
  2
AcDbDs::HandleAttribute
280
     7
 91
        1
284
     1
  0
ACDSRECORD
 90
        0
  2
AcDbDs::ID
280
    10
320
38654
  2
Thumbnail_Data
280
    15
 94
     1048
310
89504E470D0A1A0A0000000D49484452000000B40000008B0803000000FF3F437800000300504C5445FFFFFF000000FFFFFF0000000000000000000000000000000000000000000000000000330000660000990000CC0000FF0033000033330033660033990033CC0033FF0066000066330066660066990066CC0066FF0099
310
000099330099660099990099CC0099FF00CC0000CC3300CC6600CC9900CCCC00CCFF00FF0000FF3300FF6600FF9900FFCC00FFFF3300003300333300663300993300CC3300FF3333003333333333663333993333CC3333FF3366003366333366663366993366CC3366FF3399003399333399663399993399CC3399FF33CC00
310
33CC3333CC6633CC9933CCCC33CCFF33FF0033FF3333FF6633FF9933FFCC33FFFF6600006600336600666600996600CC6600FF6633006633336633666633996633CC6633FF6666006666336666666666996666CC6666FF6699006699336699666699996699CC6699FF66CC0066CC3366CC6666CC9966CCCC66CCFF66FF0066
310
FF3366FF6666FF9966FFCC66FFFF9900009900339900669900999900CC9900FF9933009933339933669933999933CC9933FF9966009966339966669966999966CC9966FF9999009999339999669999999999CC9999FF99CC0099CC3399CC6699CC9999CCCC99CCFF99FF0099FF3399FF6699FF9999FFCC99FFFFCC0000CC00
310
33CC0066CC0099CC00CCCC00FFCC3300CC3333CC3366CC3399CC33CCCC33FFCC6600CC6633CC6666CC6699CC66CCCC66FFCC9900CC9933CC9966CC9999CC99CCCC99FFCCCC00CCCC33CCCC66CCCC99CCCCCCCCCCFFCCFF00CCFF33CCFF66CCFF99CCFFCCCCFFFFFF0000FF0033FF0066FF0099FF00CCFF00FFFF3300FF3333
310
FF3366FF3399FF33CCFF33FFFF6600FF6633FF6666FF6699FF66CCFF66FFFF9900FF9933FF9966FF9999FF99CCFF99FFFFCC00FFCC33FFCC66FFCC99FFCCCCFFCCFFFFFF00FFFF33FFFF66FFFF99FFFFCCFFFFFF0000000D0D0D1A1A1A2828283535354343435050505D5D5D6B6B6B787878868686939393A1A1A1AEAEAEBB
310
BBBBC9C9C9D6D6D6E4E4E4F1F1F1FFFFFF000000000000000000000000000000000000000000000000000000000000790CAC0F000000D34944415478DAEDDD310A80300C0550EF7FCC5CC0C95D10041DA4568B34F665CCE2434ABF59E214E96A9EA7255B417F868E0DBD1F9643FF5CA5FEF2B27FFF0107749EB70C0D0D0D3D
310
243A65224243D7A0BBF9DEAF4277745940433F40471A744043434343434343434343B7401BB7A0A1A1A1A19BA3C538343434343434343434F46068E316343434347473B418878686868686868686861E0C6DDC82868686866E8E16E3D0D0D0D0D0D0D0D0D0D083A18D5BD0FF4767DCC3D475414397D1D62942434343778ECE
310
B8E95B8C435FA123E12F1956FC241BF103F904980000000049454E44AE426082
  0
ACDSRECORD
 90
        0
  2
AcDbDs::ID
280
    10
320
3864F
  2
Thumbnail_Data
280
    15
 94
     2300
310
89504E470D0A1A0A0000000D4948445200000100000000AE0803000000EECD237E00000300504C5445FFFFFFFFFFFFFFFFFF0000000000000000000000000000000000000000000000000000330000660000990000CC0000FF0033000033330033660033990033CC0033FF0066000066330066660066990066CC0066FF0099
310
000099330099660099990099CC0099FF00CC0000CC3300CC6600CC9900CCCC00CCFF00FF0000FF3300FF6600FF9900FFCC00FFFF3300003300333300663300993300CC3300FF3333003333333333663333993333CC3333FF3366003366333366663366993366CC3366FF3399003399333399663399993399CC3399FF33CC00
310
33CC3333CC6633CC9933CCCC33CCFF33FF0033FF3333FF6633FF9933FFCC33FFFF6600006600336600666600996600CC6600FF6633006633336633666633996633CC6633FF6666006666336666666666996666CC6666FF6699006699336699666699996699CC6699FF66CC0066CC3366CC6666CC9966CCCC66CCFF66FF0066
310
FF3366FF6666FF9966FFCC66FFFF9900009900339900669900999900CC9900FF9933009933339933669933999933CC9933FF9966009966339966669966999966CC9966FF9999009999339999669999999999CC9999FF99CC0099CC3399CC6699CC9999CCCC99CCFF99FF0099FF3399FF6699FF9999FFCC99FFFFCC0000CC00
310
33CC0066CC0099CC00CCCC00FFCC3300CC3333CC3366CC3399CC33CCCC33FFCC6600CC6633CC6666CC6699CC66CCCC66FFCC9900CC9933CC9966CC9999CC99CCCC99FFCCCC00CCCC33CCCC66CCCC99CCCCCCCCCCFFCCFF00CCFF33CCFF66CCFF99CCFFCCCCFFFFFF0000FF0033FF0066FF0099FF00CCFF00FFFF3300FF3333
310
FF3366FF3399FF33CCFF33FFFF6600FF6633FF6666FF6699FF66CCFF66FFFF9900FF9933FF9966FF9999FF99CCFF99FFFFCC00FFCC33FFCC66FFCC99FFCCCCFFCCFFFFFF00FFFF33FFFF66FFFF99FFFFCCFFFFFF0000000D0D0D1A1A1A2828283535354343435050505D5D5D6B6B6B787878868686939393A1A1A1AEAEAEBB
310
BBBBC9C9C9D6D6D6E4E4E4F1F1F1FFFFFF000000000000000000000000000000000000000000000000000000000000AD4AB4E4000005894944415478DAED9D5976E4200C45F5DDFB5F8F17F356D227A9B80C661220400C7CD4B16BB0CD8D268420443FEDDAB2D1D3CCE36DDA011038C61E2D0260F13F3CEED76C0043C8008A
310
00C84AA07D49EF1D5E6FB95F991800E8D5BDC01D2802A48C40318041A68A2549794A556A04BB778EAD496572B0AB04940290EF19CB08BEBF232400A56EB0F6B6E615F07EC3E3003F11FBFDF1EFD96317AB1CB30200C4010098007ECE1EBFB02B006C05C0A302344C05A83F004F383C50024603F03B92390138C301FF37ED83
310
9500F0DCA00F8015CCAE2D015ED5A74500700321EBA1704742EB4A8099AA85FD20BFDDB503810525E013F73C1DB69F780709780090731FD32D2E2401160E7BB6E27BA3E880727609888C6CB700001E8040526B7E1530323E4100C082003CE9AE10004F3FD79100332B1696801501B829FF880DC0AA1260BB012F808F5BFC7E
310
78DDE76B4800D21270C106001C00B4664A6C3715E002583A103A00D403C0F60004A6ADEB27BFDBCC8E3707001100485EA1250089D20581429A81F5011A008CAC10391230DE083208B47583AE25A2AE0DD1721D6AEE05E8ED8C4849EBE5069575DB8DA60E8003E00038000E8003E00038000E800900BC566A6E08C0A87E3900
310
8E0A4C0A403831BB0800AC0FA05962722A0014CEEFAD0F80AC72AE3D0150243FBB0980CD55C07002EFE738000E804D00200DA01791EE71801D07260120FDF03966345430D0331022CF520F1700AB47F98E24B2A1406F00C6DA3DA2D8D46F66FFF38975D941E203802C009402E0ABEF970490DE458559BB331240FA2DFFC73C
310
70D2007255A089041847EE0F4BB7922B31827FAF76CD6E571BE0596470D98F9DD0FCA7C7155EC0AEDA1E05E07ED48BEF129F1FBF0178EB7B8281D0BB6C3D2710A8F3822C00E18B8701DC4B78C00A85DF65EBAF3B3489FBDCD25113009800BE2B52EB00F48D7CDD3B2400446D400E0068074005008246D00100FD12E03160DC
310
960680790024D61F725520E505960730A1116CAA023349804824A81FC033BF1A53817814F61D594C09003416000502CB7E00700DB501CE4276952A90F602B536A0FBCC90B41BA4EC38E06F573FD20AA0B90AFC591FBD12D0DA0D86F31FA44F05A27F147CC7EB7900E219B0F5016837829D4361DD12209A10997134D812C0E8
310
4850870A0C0100EFEC50EFD16030093E1E40860A60091B602BA308803BCB3C09006B60266203183343AC89913EA3C11700897C409E0404A7C6DA02205C9E71DD4600603CB3311722A5022273831D5580626381C09385DD2003003846905BF3659F9618C1F8602808A0480590078035DB1DE05104A0B90A2060644A4223EFB6
310
CAF99585761C2010092600447748190F20C30B50910A300B25B90048A64EB02F00909B03AB02F009654400B4B701F414CAC9A9C0E75AFF6400349600024903B84339E801101E0BBCEB14D98F1603C00EA6FAA8C08D87C2718034006E38CD3082220991A71AB81E0067B565B2D892BD60F3E2EFF615CB097A00200040641FBC
310
64B9AD4E009A9ABC0DB001A014006728803BA5515CFFEEB830CEC8344B02D8000A529CF407C0995D2C195BB70240408BFD0360A4B4E0F4BA14400B1568F49FA6E1E6B4E019E3E64B400B37D8124040C92B55A0A2507224004FAA57830A5077008536A0E4E61A00404A05D84174B440620000C8E8DA6C00C44B2CC496CDF5A9
310
F8D0B2130F6338BC743B00D401B83A377D000C87E0BEBAA7F5B71BE4050E80CA8056C4F96C2801DB0358470584DACC1220924B3D0016F002A569F465E280ED015045FF570A84CA62A7650094468F0780BED1A08240480B00AB32A138147633A166E9EB01302C29DA6D383CDD58C02CCAB493778512103ED0ED0504017CF784
310
9E0A80980A4C0B607B09D8DD066C9B1132572789C40133E604B70720EC052605206904A7CC096E0F60571530B790168D03F800064F8F8F0730B429289058B6052CC801601E6FD97EBBFE1F945E4D779BDC093F0000000049454E44AE4260825705D07979BC3F80AE434183C4B483B0201B8079BDE4F84CFD2FD4914FFC4C01
310
62210000000049454E44AE426082
  0
ENDSEC
  0
EOF
