  0
SECTION
  2
HEADER
  9
$ACADVER
  1
AC1032
  9
$ACADMAINTVER
 90
      378
  9
$DWGCODEPAGE
  3
ANSI_1251
  9
$LASTSAVEDBY
  1
Xhaver
  9
$REQUIREDVERSIONS
160
                 0
  9
$INSBASE
 10
0.0
 20
0.0
 30
0.0
  9
$EXTMIN
 10
2.886244333477577
 20
11.8194050557791
 30
-0.0000000116415251
  9
$EXTMAX
 10
41.82624433757777
 20
26.51940503886193
 30
-0.0000000116415251
  9
$LIMMIN
 10
0.0
 20
0.0
  9
$LIMMAX
 10
12.0
 20
9.0
  9
$ORTHOMODE
 70
     0
  9
$REGENMODE
 70
     1
  9
$FILLMODE
 70
     1
  9
$QTEXTMODE
 70
     0
  9
$MIRRTEXT
 70
     0
  9
$LTSCALE
 40
1.0
  9
$ATTMODE
 70
     1
  9
$TEXTSIZE
 40
0.7285714285714288
  9
$TRACEWID
 40
0.05
  9
$TEXTSTYLE
  7
GOST 2.304
  9
$CLAYER
  8
0
  9
$CELTYPE
  6
ByLayer
  9
$CECOLOR
 62
   256
  9
$CELTSCALE
 40
1.0
  9
$DISPSILH
 70
     0
  9
$DIMSCALE
 40
1.0
  9
$DIMASZ
 40
0.125
  9
$DIMEXO
 40
0.125
  9
$DIMDLI
 40
0.0
  9
$DIMRND
 40
0.0
  9
$DIMDLE
 40
0.0
  9
$DIMEXE
 40
0.125
  9
$DIMTP
 40
0.0
  9
$DIMTM
 40
0.0
  9
$DIMTXT
 40
0.25
  9
$DIMCEN
 40
0.09
  9
$DIMTSZ
 40
0.0
  9
$DIMTOL
 70
     0
  9
$DIMLIM
 70
     0
  9
$DIMTIH
 70
     0
  9
$DIMTOH
 70
     0
  9
$DIMSE1
 70
     0
  9
$DIMSE2
 70
     0
  9
$DIMTAD
 70
     1
  9
$DIMZIN
 70
    11
  9
$DIMBLK
  1
Oblique
  9
$DIMASO
 70
     1
  9
$DIMSHO
 70
     1
  9
$DIMPOST
  1

  9
$DIMAPOST
  1

  9
$DIMALT
 70
     0
  9
$DIMALTD
 70
     4
  9
$DIMALTF
 40
1.0
  9
$DIMLFAC
 40
1000.0
  9
$DIMTOFL
 70
     0
  9
$DIMTVP
 40
0.0
  9
$DIMTIX
 70
     0
  9
$DIMSOXD
 70
     0
  9
$DIMSAH
 70
     0
  9
$DIMBLK1
  1

  9
$DIMBLK2
  1

  9
$DIMSTYLE
  2
Standard
  9
$DIMCLRD
 70
     5
  9
$DIMCLRE
 70
     0
  9
$DIMCLRT
 70
     0
  9
$DIMTFAC
 40
1.0
  9
$DIMGAP
 40
0.125
  9
$DIMJUST
 70
     0
  9
$DIMSD1
 70
     0
  9
$DIMSD2
 70
     0
  9
$DIMTOLJ
 70
     0
  9
$DIMTZIN
 70
    11
  9
$DIMALTZ
 70
    15
  9
$DIMALTTZ
 70
    15
  9
$DIMUPT
 70
     0
  9
$DIMDEC
 70
     4
  9
$DIMTDEC
 70
     4
  9
$DIMALTU
 70
     2
  9
$DIMALTTD
 70
     4
  9
$DIMTXSTY
  7
Style-Arial
  9
$DIMAUNIT
 70
     0
  9
$DIMADEC
 70
     4
  9
$DIMALTRND
 40
0.0
  9
$DIMAZIN
 70
     3
  9
$DIMDSEP
 70
    46
  9
$DIMATFIT
 70
     3
  9
$DIMFRAC
 70
     2
  9
$DIMLDRBLK
  1
TerminatorOpen
  9
$DIMLUNIT
 70
     2
  9
$DIMLWD
 70
     0
  9
$DIMLWE
 70
    -2
  9
$DIMTMOVE
 70
     0
  9
$DIMFXL
 40
1.0
  9
$DIMFXLON
 70
     0
  9
$DIMJOGANG
 40
0.7853981633974483
  9
$DIMTFILL
 70
     0
  9
$DIMTFILLCLR
 70
     0
  9
$DIMARCSYM
 70
     0
  9
$DIMLTYPE
  6

  9
$DIMLTEX1
  6

  9
$DIMLTEX2
  6

  9
$DIMTXTDIRECTION
 70
     0
  9
$LUNITS
 70
     2
  9
$LUPREC
 70
     4
  9
$SKETCHINC
 40
0.1
  9
$FILLETRAD
 40
0.0
  9
$AUNITS
 70
     0
  9
$AUPREC
 70
     4
  9
$MENU
  1
.
  9
$ELEVATION
 40
0.0
  9
$PELEVATION
 40
0.0
  9
$THICKNESS
 40
0.0
  9
$LIMCHECK
 70
     0
  9
$CHAMFERA
 40
0.0
  9
$CHAMFERB
 40
0.0
  9
$CHAMFERC
 40
0.0
  9
$CHAMFERD
 40
0.0
  9
$SKPOLY
 70
     0
  9
$TDCREATE
 40
2454144.903020833
  9
$TDUCREATE
 40
2454144.778024017
  9
$TDUPDATE
 40
2461171.614189815
  9
$TDUUPDATE
 40
2461171.489189815
  9
$TDINDWG
 40
0.2393068287
  9
$TDUSRTIMER
 40
0.2393066435
  9
$USRTIMER
 70
     1
  9
$ANGBASE
 50
0.0
  9
$ANGDIR
 70
     0
  9
$PDMODE
 70
     0
  9
$PDSIZE
 40
0.0
  9
$PLINEWID
 40
0.0
  9
$SPLFRAME
 70
     0
  9
$SPLINETYPE
 70
     6
  9
$SPLINESEGS
 70
     8
  9
$HANDSEED
  5
C9E6
  9
$SURFTAB1
 70
     6
  9
$SURFTAB2
 70
     6
  9
$SURFTYPE
 70
     6
  9
$SURFU
 70
     6
  9
$SURFV
 70
     6
  9
$UCSBASE
  2

  9
$UCSNAME
  2

  9
$UCSORG
 10
0.0
 20
0.0
 30
0.0
  9
$UCSXDIR
 10
1.0
 20
0.0
 30
0.0
  9
$UCSYDIR
 10
0.0
 20
1.0
 30
0.0
  9
$UCSORTHOREF
  2

  9
$UCSORTHOVIEW
 70
     0
  9
$UCSORGTOP
 10
0.0
 20
0.0
 30
0.0
  9
$UCSORGBOTTOM
 10
0.0
 20
0.0
 30
0.0
  9
$UCSORGLEFT
 10
0.0
 20
0.0
 30
0.0
  9
$UCSORGRIGHT
 10
0.0
 20
0.0
 30
0.0
  9
$UCSORGFRONT
 10
0.0
 20
0.0
 30
0.0
  9
$UCSORGBACK
 10
0.0
 20
0.0
 30
0.0
  9
$PUCSBASE
  2

  9
$PUCSNAME
  2

  9
$PUCSORG
 10
0.0
 20
0.0
 30
0.0
  9
$PUCSXDIR
 10
1.0
 20
0.0
 30
0.0
  9
$PUCSYDIR
 10
0.0
 20
1.0
 30
0.0
  9
$PUCSORTHOREF
  2

  9
$PUCSORTHOVIEW
 70
     0
  9
$PUCSORGTOP
 10
0.0
 20
0.0
 30
0.0
  9
$PUCSORGBOTTOM
 10
0.0
 20
0.0
 30
0.0
  9
$PUCSORGLEFT
 10
0.0
 20
0.0
 30
0.0
  9
$PUCSORGRIGHT
 10
0.0
 20
0.0
 30
0.0
  9
$PUCSORGFRONT
 10
0.0
 20
0.0
 30
0.0
  9
$PUCSORGBACK
 10
0.0
 20
0.0
 30
0.0
  9
$USERI1
 70
     0
  9
$USERI2
 70
     0
  9
$USERI3
 70
     0
  9
$USERI4
 70
     0
  9
$USERI5
 70
     0
  9
$USERR1
 40
0.0
  9
$USERR2
 40
0.0
  9
$USERR3
 40
0.0
  9
$USERR4
 40
0.0
  9
$USERR5
 40
0.0
  9
$WORLDVIEW
 70
     1
  9
$SHADEDGE
 70
     3
  9
$SHADEDIF
 70
    70
  9
$TILEMODE
 70
     1
  9
$MAXACTVP
 70
    64
  9
$PINSBASE
 10
0.0
 20
0.0
 30
0.0
  9
$PLIMCHECK
 70
     0
  9
$PEXTMIN
 10
1.049743681505489
 20
0.7996673802841308
 30
-0.0015258207003583
  9
$PEXTMAX
 10
9.450622583565561
 20
7.200576801086516
 30
0.0000000349246037
  9
$PLIMMIN
 10
-0.2500002402958907
 20
-0.2499999962453767
  9
$PLIMMAX
 10
10.74999951940821
 20
8.249999763458731
  9
$UNITMODE
 70
     0
  9
$VISRETAIN
 70
     1
  9
$PLINEGEN
 70
     0
  9
$PSLTSCALE
 70
     0
  9
$TREEDEPTH
 70
  3020
  9
$CMLSTYLE
  2
Standard
  9
$CMLJUST
 70
     0
  9
$CMLSCALE
 40
1.0
  9
$PROXYGRAPHICS
 70
     1
  9
$MEASUREMENT
 70
     0
  9
$CELWEIGHT
370
    -1
  9
$ENDCAPS
280
     0
  9
$JOINSTYLE
280
     0
  9
$LWDISPLAY
290
     1
  9
$INSUNITS
 70
     6
  9
$HYPERLINKBASE
  1

  9
$STYLESHEET
  1

  9
$XEDIT
290
     1
  9
$CEPSNTYPE
380
     0
  9
$PSTYLEMODE
290
     1
  9
$FINGERPRINTGUID
  2
{390053D4-1D7F-4759-8E93-B8E91275E7C5}
  9
$VERSIONGUID
  2
{0B9E7541-8814-404C-8140-A64CD0575721}
  9
$EXTNAMES
290
     1
  9
$PSVPSCALE
 40
0.0
  9
$OLESTARTUP
290
     0
  9
$SORTENTS
280
   127
  9
$INDEXCTL
280
     0
  9
$HIDETEXT
280
     1
  9
$XCLIPFRAME
280
     0
  9
$HALOGAP
280
     0
  9
$OBSCOLOR
 70
   257
  9
$OBSLTYPE
280
     0
  9
$INTERSECTIONDISPLAY
280
     0
  9
$INTERSECTIONCOLOR
 70
   257
  9
$DIMASSOC
280
     2
  9
$PROJECTNAME
  1

  9
$CAMERADISPLAY
290
     0
  9
$LENSLENGTH
 40
50.0
  9
$CAMERAHEIGHT
 40
0.0
  9
$STEPSPERSEC
 40
2.0
  9
$STEPSIZE
 40
6.0
  9
$3DDWFPREC
 40
2.0
  9
$PSOLWIDTH
 40
0.25
  9
$PSOLHEIGHT
 40
4.0
  9
$LOFTANG1
 40
1.570796326794896
  9
$LOFTANG2
 40
1.570796326794896
  9
$LOFTMAG1
 40
0.0
  9
$LOFTMAG2
 40
0.0
  9
$LOFTPARAM
 70
     7
  9
$LOFTNORMALS
280
     1
  9
$LATITUDE
 40
37.795
  9
$LONGITUDE
 40
-122.394
  9
$NORTHDIRECTION
 40
0.0
  9
$TIMEZONE
 70
 -8000
  9
$LIGHTGLYPHDISPLAY
280
     1
  9
$TILEMODELIGHTSYNCH
280
     1
  9
$CMATERIAL
347
C19C
  9
$SOLIDHIST
280
     1
  9
$SHOWHIST
280
     1
  9
$DWFFRAME
280
     2
  9
$DGNFRAME
280
     0
  9
$REALWORLDSCALE
290
     1
  9
$INTERFERECOLOR
 62
     1
  9
$INTERFEREOBJVS
345
C1B2
  9
$INTERFEREVPVS
346
C1B3
  9
$CSHADOW
280
     0
  9
$SHADOWPLANELOCATION
 40
0.0
  0
ENDSEC
  0
SECTION
  2
CLASSES
  0
CLASS
  1
ACDBDICTIONARYWDFLT
  2
AcDbDictionaryWithDefault
  3
ObjectDBX Classes
 90
        0
 91
        1
280
     0
281
     0
  0
CLASS
  1
DICTIONARYVAR
  2
AcDbDictionaryVar
  3
ObjectDBX Classes
 90
        0
 91
       10
280
     0
281
     0
  0
CLASS
  1
TABLESTYLE
  2
AcDbTableStyle
  3
ObjectDBX Classes
 90
     4095
 91
        1
280
     0
281
     0
  0
CLASS
  1
MATERIAL
  2
AcDbMaterial
  3
ObjectDBX Classes
 90
     1153
 91
        3
280
     0
281
     0
  0
CLASS
  1
VISUALSTYLE
  2
AcDbVisualStyle
  3
ObjectDBX Classes
 90
     4095
 91
       26
280
     0
281
     0
  0
CLASS
  1
SCALE
  2
AcDbScale
  3
ObjectDBX Classes
 90
     1153
 91
       33
280
     0
281
     0
  0
CLASS
  1
MLEADERSTYLE
  2
AcDbMLeaderStyle
  3
ACDB_MLEADERSTYLE_CLASS
 90
     4095
 91
        1
280
     0
281
     0
  0
CLASS
  1
DBCOLOR
  2
AcDbColor
  3
ObjectDBX Classes
 90
        0
 91
        1
280
     0
281
     0
  0
CLASS
  1
IMAGE
  2
AcDbRasterImage
  3
ISM
 90
     2175
 91
        0
280
     0
281
     1
  0
CLASS
  1
IMAGEDEF
  2
AcDbRasterImageDef
  3
ISM
 90
        0
 91
        0
280
     0
281
     0
  0
CLASS
  1
IMAGEDEF_REACTOR
  2
AcDbRasterImageDefReactor
  3
ISM
 90
        1
 91
        0
280
     0
281
     0
  0
CLASS
  1
RASTERVARIABLES
  2
AcDbRasterVariables
  3
ISM
 90
        0
 91
        1
280
     0
281
     0
  0
CLASS
  1
SORTENTSTABLE
  2
AcDbSortentsTable
  3
ObjectDBX Classes
 90
        0
 91
        1
280
     0
281
     0
  0
CLASS
  1
CELLSTYLEMAP
  2
AcDbCellStyleMap
  3
ObjectDBX Classes
 90
     1152
 91
        2
280
     0
281
     0
  0
CLASS
  1
ACDBSECTIONVIEWSTYLE
  2
AcDbSectionViewStyle
  3
ObjectDBX Classes
 90
     1025
 91
        1
280
     0
281
     0
  0
CLASS
  1
ACDBDETAILVIEWSTYLE
  2
AcDbDetailViewStyle
  3
ObjectDBX Classes
 90
     1025
 91
        1
280
     0
281
     0
  0
CLASS
  1
EXACXREFPANELOBJECT
  2
ExAcXREFPanelObject
  3
EXAC_ESW
 90
     1025
 91
        0
280
     0
281
     0
  0
CLASS
  1
NPOCOLLECTION
  2
AcDbImpNonPersistentObjectsCollection
  3
ObjectDBX Classes
 90
     1153
 91
        0
280
     0
281
     0
  0
CLASS
  1
DIMASSOC
  2
AcDbDimAssoc
  3
"AcDbDimAssoc|Product Desc:     AcDim ARX App For Dimension|Company:          Autodesk, Inc.|WEB Address:      www.autodesk.com"
 90
        0
 91
        0
280
     0
281
     0
  0
CLASS
  1
SUN
  2
AcDbSun
  3
SCENEOE
 90
     1153
 91
        0
280
     0
281
     0
  0
CLASS
  1
MENTALRAYRENDERSETTINGS
  2
AcDbMentalRayRenderSettings
  3
SCENEOE
 90
     1024
 91
        0
280
     0
281
     0
  0
ENDSEC
  0
SECTION
  2
TABLES
  0
TABLE
  2
VPORT
  5
C190
330
0
100
AcDbSymbolTable
 70
     1
  0
VPORT
  5
4B
330
C190
100
AcDbSymbolTableRecord
100
AcDbViewportTableRecord
  2
*ACTIVE
 70
     0
 10
0.0
 20
0.0
 11
1.0
 21
1.0
 12
22.35624433552768
 22
19.16940504732052
 13
0.0
 23
0.0
 14
0.1
 24
0.1
 15
0.1
 25
0.1
 16
0.0
 26
0.0
 36
1.0
 17
0.0
 27
0.0
 37
0.0
 40
17.17027451657285
 41
2.272959183673469
 42
50.0
 43
0.0
 44
0.0
 50
0.0
 51
0.0
 71
     0
 72
   100
 73
     1
 74
     0
 75
     0
 76
     1
 77
     0
 78
     1
281
     0
 65
     1
110
0.0
120
0.0
130
0.0
111
1.0
121
0.0
131
0.0
112
0.0
122
1.0
132
0.0
 79
     0
146
0.0
348
C192
 60
     3
 61
    10
292
     1
282
     1
141
0.0
142
0.0
 63
   250
421
  3355443
1001
ACAD_NAV_VCDISPLAY
1070
     3
  0
ENDTAB
  0
TABLE
  2
LTYPE
  5
C18B
330
0
100
AcDbSymbolTable
 70
     2
  0
LTYPE
  5
C18C
330
C18B
100
AcDbSymbolTableRecord
100
AcDbLinetypeTableRecord
  2
ByBlock
 70
     0
  3

 72
    65
 73
     0
 40
0.0
  0
LTYPE
  5
C18D
330
C18B
100
AcDbSymbolTableRecord
100
AcDbLinetypeTableRecord
  2
ByLayer
 70
     0
  3

 72
    65
 73
     0
 40
0.0
  0
LTYPE
  5
C17A
330
C18B
100
AcDbSymbolTableRecord
100
AcDbLinetypeTableRecord
  2
Continuous
 70
     0
  3
Solid line
 72
    65
 73
     0
 40
0.0
  0
LTYPE
  5
C1FD
330
C18B
100
AcDbSymbolTableRecord
100
AcDbLinetypeTableRecord
  2
DGN Style 2
 70
     0
  3
Dgn Style 2
 72
    65
 73
     2
 40
2.207757220292845
 49
1.324654332175707
 74
     0
 49
-0.8831028881171381
 74
     0
  0
ENDTAB
  0
TABLE
  2
LAYER
  5
C185
102
{ACAD_XDICTIONARY
360
C186
102
}
330
0
100
AcDbSymbolTable
 70
     7
  0
LAYER
  5
C16D
102
{ACAD_XDICTIONARY
360
C3C7
102
}
330
C185
100
AcDbSymbolTableRecord
100
AcDbLayerTableRecord
  2
0
 70
     0
 62
     7
  6
Continuous
370
    -3
390
C16E
347
C171
348
0
  0
LAYER
  5
447C
102
{ACAD_XDICTIONARY
360
C3CD
102
}
330
C185
100
AcDbSymbolTableRecord
100
AcDbLayerTableRecord
  2
Level 63
 70
     0
 62
     7
  6
Continuous
370
     0
390
C16E
347
C171
348
0
  0
LAYER
  5
447D
102
{ACAD_XDICTIONARY
360
C3CF
102
}
330
C185
100
AcDbSymbolTableRecord
100
AcDbLayerTableRecord
  2
Level 50
 70
     0
 62
     7
  6
Continuous
370
     0
390
C16E
347
C171
348
0
  0
LAYER
  5
C3EE
330
C185
100
AcDbSymbolTableRecord
100
AcDbLayerTableRecord
  2
YOLO_TABLE
 70
     0
 62
     1
  6
Continuous
370
    -3
390
C16E
347
C171
348
0
1001
AcAecLayerStandard
1000

1000

1001
AcCmTransparency
1071
 33554687
  0
LAYER
  5
C3EF
330
C185
100
AcDbSymbolTableRecord
100
AcDbLayerTableRecord
  2
YOLO_FRAME
 70
     0
 62
     1
  6
Continuous
370
    -3
390
C16E
347
C171
348
0
1001
AcAecLayerStandard
1000

1000

1001
AcCmTransparency
1071
 33554687
  0
LAYER
  5
C3F0
330
C185
100
AcDbSymbolTableRecord
100
AcDbLayerTableRecord
  2
YOLO_STAMP
 70
     0
 62
     1
  6
Continuous
370
    -3
390
C16E
347
C171
348
0
1001
AcAecLayerStandard
1000

1000

1001
AcCmTransparency
1071
 33554687
  0
LAYER
  5
C767
330
C185
100
AcDbSymbolTableRecord
100
AcDbLayerTableRecord
  2
Defpoints
 70
     0
 62
     7
  6
Continuous
290
     0
370
    -3
390
C16E
347
C171
348
0
  0
ENDTAB
  0
TABLE
  2
STYLE
  5
C188
330
0
100
AcDbSymbolTable
 70
     3
  0
STYLE
  5
C189
330
C188
100
AcDbSymbolTableRecord
100
AcDbTextStyleTableRecord
  2
STANDARD
 70
     0
 40
0.0
 41
1.0
 50
0.0
 71
     0
 42
0.7285714285714288
  3
CS_Gost2304.shx
  4

  0
STYLE
  5
7A9
330
C188
100
AcDbSymbolTableRecord
100
AcDbTextStyleTableRecord
  2
GOST 2.304
 70
     0
 40
0.0
 41
1.0
 50
0.0
 71
     0
 42
0.7285714285714288
  3
CS_Gost2304.shx
  4

  0
STYLE
  5
12A1
330
C188
100
AcDbSymbolTableRecord
100
AcDbTextStyleTableRecord
  2
Style-Arial
 70
     0
 40
0.0
 41
1.0
 50
0.0
 71
     0
 42
0.2
  3
arial.ttf
  4

1001
ACAD
1000
Arial
1071
    52263
  0
ENDTAB
  0
TABLE
  2
VIEW
  5
C18E
330
0
100
AcDbSymbolTable
 70
     0
  0
ENDTAB
  0
TABLE
  2
UCS
  5
C18F
330
0
100
AcDbSymbolTable
 70
     0
  0
ENDTAB
  0
TABLE
  2
APPID
  5
C194
330
0
100
AcDbSymbolTable
 70
    11
  0
APPID
  5
C195
330
C194
100
AcDbSymbolTableRecord
100
AcDbRegAppTableRecord
  2
ACAD
 70
     0
  0
APPID
  5
C184
330
C194
100
AcDbSymbolTableRecord
100
AcDbRegAppTableRecord
  2
ACAD_PSEXT
 70
     0
  0
APPID
  5
132D
330
C194
100
AcDbSymbolTableRecord
100
AcDbRegAppTableRecord
  2
GradientColor1ACI
 70
     0
  0
APPID
  5
132E
330
C194
100
AcDbSymbolTableRecord
100
AcDbRegAppTableRecord
  2
GradientColor2ACI
 70
     0
  0
APPID
  5
C3B0
330
C194
100
AcDbSymbolTableRecord
100
AcDbRegAppTableRecord
  2
ACAD_MLEADERVER
 70
     0
  0
APPID
  5
C3E7
330
C194
100
AcDbSymbolTableRecord
100
AcDbRegAppTableRecord
  2
ACAD_NAV_VCDISPLAY
 70
     0
  0
APPID
  5
C3F1
330
C194
100
AcDbSymbolTableRecord
100
AcDbRegAppTableRecord
  2
AcCmTransparency
 70
     0
  0
APPID
  5
C3F2
330
C194
100
AcDbSymbolTableRecord
100
AcDbRegAppTableRecord
  2
AcAecLayerStandard
 70
     0
  0
APPID
  5
C6FB
330
C194
100
AcDbSymbolTableRecord
100
AcDbRegAppTableRecord
  2
ACAD_EXEMPT_FROM_CAD_STANDARDS
 70
     0
  0
APPID
  5
C98C
330
C194
100
AcDbSymbolTableRecord
100
AcDbRegAppTableRecord
  2
HATCHBACKGROUNDCOLOR
 70
     0
  0
APPID
  5
C98D
330
C194
100
AcDbSymbolTableRecord
100
AcDbRegAppTableRecord
  2
EZDXF
 70
     0
  0
ENDTAB
  0
TABLE
  2
DIMSTYLE
  5
C196
330
0
100
AcDbSymbolTable
 70
     1
100
AcDbDimStyleTable
 71
     0
  0
DIMSTYLE
105
C197
330
C196
100
AcDbSymbolTableRecord
100
AcDbDimStyleTableRecord
  2
Standard
 70
     0
 42
0.625
 43
3.75
 44
1.25
 49
2.5
 73
     0
 74
     0
 77
     1
 78
     8
 79
     3
143
0.03937007874
147
0.625
171
     3
172
     1
179
     2
271
     2
272
     2
274
     3
278
    44
283
     0
284
     8
340
C189
  0
ENDTAB
  0
TABLE
  2
BLOCK_RECORD
  5
C16A
330
0
100
AcDbSymbolTable
 70
    22
  0
BLOCK_RECORD
  5
C16B
102
{ACAD_XDICTIONARY
360
C1FE
102
}
330
C16A
100
AcDbSymbolTableRecord
100
AcDbBlockTableRecord
  2
*Model_Space
340
C17C
 70
     0
280
     1
281
     0
  0
BLOCK_RECORD
  5
C17E
330
C16A
100
AcDbSymbolTableRecord
100
AcDbBlockTableRecord
  2
*Paper_Space
340
C181
 70
     0
280
     1
281
     0
  0
BLOCK_RECORD
  5
C1DE
330
C16A
100
AcDbSymbolTableRecord
100
AcDbBlockTableRecord
  2
_Oblique
340
0
102
{BLKREFS
331
C80F
331
C810
331
C818
331
C819
331
C8B1
331
C8B2
331
C821
331
C822
331
C838
331
C839
331
C850
331
C851
331
C868
331
C869
331
C880
331
C881
331
C898
331
C899
331
C778
331
C779
331
C790
331
C791
331
C7A8
331
C7A9
331
C7C0
331
C7C1
331
C7D8
331
C7D9
331
C8D1
331
C8D2
331
C8EB
331
C8EC
331
C903
331
C904
331
C91B
331
C91C
331
C933
331
C934
331
C94B
331
C94C
102
}
 70
     0
280
     1
281
     0
  0
BLOCK_RECORD
  5
C1E2
330
C16A
100
AcDbSymbolTableRecord
100
AcDbBlockTableRecord
  2
TerminatorOpen
340
0
 70
     0
280
     1
281
     0
  0
BLOCK_RECORD
  5
C768
330
C16A
100
AcDbSymbolTableRecord
100
AcDbBlockTableRecord
  2
*D2
340
0
 70
     0
280
     1
281
     0
  0
BLOCK_RECORD
  5
C780
330
C16A
100
AcDbSymbolTableRecord
100
AcDbBlockTableRecord
  2
*D3
340
0
 70
     0
280
     1
281
     0
  0
BLOCK_RECORD
  5
C798
330
C16A
100
AcDbSymbolTableRecord
100
AcDbBlockTableRecord
  2
*D4
340
0
 70
     0
280
     1
281
     0
  0
BLOCK_RECORD
  5
C7B0
330
C16A
100
AcDbSymbolTableRecord
100
AcDbBlockTableRecord
  2
*D5
340
0
 70
     0
280
     1
281
     0
  0
BLOCK_RECORD
  5
C7C8
330
C16A
100
AcDbSymbolTableRecord
100
AcDbBlockTableRecord
  2
*D6
340
0
 70
     0
280
     1
281
     0
  0
BLOCK_RECORD
  5
C7E2
330
C16A
100
AcDbSymbolTableRecord
100
AcDbBlockTableRecord
  2
*D7
340
0
 70
     0
280
     1
281
     0
  0
BLOCK_RECORD
  5
C7F1
330
C16A
100
AcDbSymbolTableRecord
100
AcDbBlockTableRecord
  2
*D8
340
0
 70
     0
280
     1
281
     0
  0
BLOCK_RECORD
  5
C800
330
C16A
100
AcDbSymbolTableRecord
100
AcDbBlockTableRecord
  2
*D9
340
0
 70
     0
280
     1
281
     0
  0
BLOCK_RECORD
  5
C828
330
C16A
100
AcDbSymbolTableRecord
100
AcDbBlockTableRecord
  2
*D10
340
0
 70
     0
280
     1
281
     0
  0
BLOCK_RECORD
  5
C840
330
C16A
100
AcDbSymbolTableRecord
100
AcDbBlockTableRecord
  2
*D11
340
0
 70
     0
280
     1
281
     0
  0
BLOCK_RECORD
  5
C858
330
C16A
100
AcDbSymbolTableRecord
100
AcDbBlockTableRecord
  2
*D12
340
0
 70
     0
280
     1
281
     0
  0
BLOCK_RECORD
  5
C870
330
C16A
100
AcDbSymbolTableRecord
100
AcDbBlockTableRecord
  2
*D13
340
0
 70
     0
280
     1
281
     0
  0
BLOCK_RECORD
  5
C888
330
C16A
100
AcDbSymbolTableRecord
100
AcDbBlockTableRecord
  2
*D14
340
0
 70
     0
280
     1
281
     0
  0
BLOCK_RECORD
  5
C8A2
330
C16A
100
AcDbSymbolTableRecord
100
AcDbBlockTableRecord
  2
*D15
340
0
 70
     0
280
     1
281
     0
  0
BLOCK_RECORD
  5
C8C1
330
C16A
100
AcDbSymbolTableRecord
100
AcDbBlockTableRecord
  2
*D16
340
0
 70
     0
280
     1
281
     0
  0
BLOCK_RECORD
  5
C8D9
330
C16A
100
AcDbSymbolTableRecord
100
AcDbBlockTableRecord
  2
*D17
340
0
 70
     0
280
     1
281
     0
  0
BLOCK_RECORD
  5
C8F3
330
C16A
100
AcDbSymbolTableRecord
100
AcDbBlockTableRecord
  2
*D18
340
0
 70
     0
280
     1
281
     0
  0
BLOCK_RECORD
  5
C90B
330
C16A
100
AcDbSymbolTableRecord
100
AcDbBlockTableRecord
  2
*D19
340
0
 70
     0
280
     1
281
     0
  0
BLOCK_RECORD
  5
C923
330
C16A
100
AcDbSymbolTableRecord
100
AcDbBlockTableRecord
  2
*D20
340
0
 70
     0
280
     1
281
     0
  0
BLOCK_RECORD
  5
C93B
330
C16A
100
AcDbSymbolTableRecord
100
AcDbBlockTableRecord
  2
*D21
340
0
 70
     0
280
     1
281
     0
  0
ENDTAB
  0
ENDSEC
  0
SECTION
  2
BLOCKS
  0
BLOCK
  5
C16C
330
C16B
100
AcDbEntity
  8
0
100
AcDbBlockBegin
  2
*Model_Space
 70
     0
 10
0.0
 20
0.0
 30
0.0
  3
*Model_Space
  1

  0
ENDBLK
  5
C17B
330
C16B
100
AcDbEntity
  8
0
100
AcDbBlockEnd
  0
BLOCK
  5
C17F
330
C17E
100
AcDbEntity
 67
     1
  8
0
100
AcDbBlockBegin
  2
*Paper_Space
 70
     0
 10
0.0
 20
0.0
 30
0.0
  3
*Paper_Space
  1

  0
ENDBLK
  5
C180
330
C17E
100
AcDbEntity
 67
     1
  8
0
100
AcDbBlockEnd
  0
BLOCK
  5
C1E0
330
C1DE
100
AcDbEntity
  8
0
100
AcDbBlockBegin
  2
_Oblique
 70
     0
 10
0.0
 20
0.0
 30
0.0
  3
_Oblique
  1

  0
LINE
  5
C1DF
330
C1DE
100
AcDbEntity
  8
0
  6
ByBlock
 62
     0
370
    -2
100
AcDbLine
 10
0.5
 20
0.5
 30
0.0
 11
-0.5
 21
-0.5
 31
0.0
  0
ENDBLK
  5
C1E1
330
C1DE
100
AcDbEntity
  8
0
100
AcDbBlockEnd
  0
BLOCK
  5
C1E6
330
C1E2
100
AcDbEntity
  8
0
100
AcDbBlockBegin
  2
TerminatorOpen
 70
     0
 10
0.0
 20
0.0
 30
0.0
  3
TerminatorOpen
  1

  0
LINE
  5
C1E3
330
C1E2
100
AcDbEntity
  8
0
  6
ByBlock
 62
     0
370
    -2
100
AcDbLine
 10
0.0
 20
0.0
 30
0.0
 11
-1.0
 21
0.0
 31
0.0
  0
LINE
  5
C1E4
330
C1E2
100
AcDbEntity
  8
0
  6
ByBlock
 62
     0
370
    -2
100
AcDbLine
 10
0.0
 20
0.0
 30
0.0
 11
-1.0
 21
0.5
 31
0.0
  0
LINE
  5
C1E5
330
C1E2
100
AcDbEntity
  8
0
  6
ByBlock
 62
     0
370
    -2
100
AcDbLine
 10
0.0
 20
0.0
 30
0.0
 11
-1.0
 21
-0.5
 31
0.0
  0
ENDBLK
  5
C1E7
330
C1E2
100
AcDbEntity
  8
0
100
AcDbBlockEnd
  0
BLOCK
  5
C769
330
C768
100
AcDbEntity
  8
0
100
AcDbBlockBegin
  2
*D2
 70
     1
 10
0.0
 20
0.0
 30
0.0
  3
*D2
  1

  0
LINE
  5
C775
330
C768
100
AcDbEntity
  8
0
 62
     0
440
 16777216
370
    -2
100
AcDbLine
 10
4.736244364110972
 20
16.73440505943415
 30
0.0
 11
4.736244364110972
 21
16.99609862974648
 31
0.0
  0
LINE
  5
C776
330
C768
100
AcDbEntity
  8
0
 62
     0
440
 16777216
370
    -2
100
AcDbLine
 10
6.236244364110972
 20
16.73440505943415
 30
0.0
 11
6.236244364110972
 21
16.99609862974648
 31
0.0
  0
LINE
  5
C777
330
C768
100
AcDbEntity
  8
0
 62
     5
440
 16777216
370
     0
100
AcDbLine
 10
4.736244364110972
 20
16.87109862974648
 30
0.0
 11
6.236244364110972
 21
16.87109862974648
 31
0.0
  0
INSERT
  5
C778
330
C768
100
AcDbEntity
  8
0
 62
     5
440
 16777216
370
     0
100
AcDbBlockReference
  2
_Oblique
 10
4.736244364110972
 20
16.87109862974648
 30
0.0
 41
0.125
 42
0.125
 43
0.125
 50
180.0
  0
INSERT
  5
C779
330
C768
100
AcDbEntity
  8
0
 62
     5
440
 16777216
370
     0
100
AcDbBlockReference
  2
_Oblique
 10
6.236244364110972
 20
16.87109862974648
 30
0.0
 41
0.125
 42
0.125
 43
0.125
  0
MTEXT
  5
C77A
330
C768
100
AcDbEntity
  8
0
 62
     0
440
 16777216
100
AcDbMText
 10
5.486244364110972
 20
17.1237418766769
 30
0.0
 40
0.25
 41
0.0
 46
0.0
 71
     5
 72
     5
  1
1500
  7
Style-Arial
 73
     1
 44
1.0
  0
POINT
  5
C77B
330
C768
100
AcDbEntity
  8
Defpoints
 62
     0
440
 16777216
100
AcDbPoint
 10
4.736244364110972
 20
16.60940505943415
 30
0.0
  0
POINT
  5
C77C
330
C768
100
AcDbEntity
  8
Defpoints
 62
     0
440
 16777216
100
AcDbPoint
 10
6.236244364110972
 20
16.60940505943415
 30
0.0
  0
POINT
  5
C77D
330
C768
100
AcDbEntity
  8
Defpoints
 62
     0
440
 16777216
100
AcDbPoint
 10
6.236244364110972
 20
16.87109862974648
 30
0.0
  0
ENDBLK
  5
C76A
330
C768
100
AcDbEntity
  8
0
100
AcDbBlockEnd
  0
BLOCK
  5
C781
330
C780
100
AcDbEntity
  8
0
100
AcDbBlockBegin
  2
*D3
 70
     1
 10
0.0
 20
0.0
 30
0.0
  3
*D3
  1

  0
LINE
  5
C78D
330
C780
100
AcDbEntity
  8
0
 62
     0
440
 16777216
370
    -2
100
AcDbLine
 10
7.101244364110928
 20
16.05940505943416
 30
0.0
 11
7.571704567367312
 21
16.05940505943416
 31
0.0
  0
LINE
  5
C78E
330
C780
100
AcDbEntity
  8
0
 62
     0
440
 16777216
370
    -2
100
AcDbLine
 10
7.101244364110928
 20
14.55940505943416
 30
0.0
 11
7.571704567367312
 21
14.55940505943416
 31
0.0
  0
LINE
  5
C78F
330
C780
100
AcDbEntity
  8
0
 62
     5
440
 16777216
370
     0
100
AcDbLine
 10
7.446704567367312
 20
16.05940505943416
 30
0.0
 11
7.446704567367312
 21
14.55940505943416
 31
0.0
  0
INSERT
  5
C790
330
C780
100
AcDbEntity
  8
0
 62
     5
440
 16777216
370
     0
100
AcDbBlockReference
  2
_Oblique
 10
7.446704567367312
 20
16.05940505943416
 30
0.0
 41
0.125
 42
0.125
 43
0.125
 50
90.0
  0
INSERT
  5
C791
330
C780
100
AcDbEntity
  8
0
 62
     5
440
 16777216
370
     0
100
AcDbBlockReference
  2
_Oblique
 10
7.446704567367312
 20
14.55940505943416
 30
0.0
 41
0.125
 42
0.125
 43
0.125
 50
270.0
  0
MTEXT
  5
C792
330
C780
100
AcDbEntity
  8
0
 62
     0
440
 16777216
100
AcDbMText
 10
7.194061320436892
 20
15.30940505943416
 30
0.0
 40
0.25
 41
0.0
 46
0.0
 71
     5
 72
     5
  1
1500
  7
Style-Arial
 11
0.0000000000000001
 21
1.0
 31
0.0
 73
     1
 44
1.0
  0
POINT
  5
C793
330
C780
100
AcDbEntity
  8
Defpoints
 62
     0
440
 16777216
100
AcDbPoint
 10
6.976244364110928
 20
16.05940505943416
 30
0.0
  0
POINT
  5
C794
330
C780
100
AcDbEntity
  8
Defpoints
 62
     0
440
 16777216
100
AcDbPoint
 10
6.976244364110928
 20
14.55940505943416
 30
0.0
  0
POINT
  5
C795
330
C780
100
AcDbEntity
  8
Defpoints
 62
     0
440
 16777216
100
AcDbPoint
 10
7.446704567367312
 20
14.55940505943416
 30
0.0
  0
ENDBLK
  5
C782
330
C780
100
AcDbEntity
  8
0
100
AcDbBlockEnd
  0
BLOCK
  5
C799
330
C798
100
AcDbEntity
  8
0
100
AcDbBlockBegin
  2
*D4
 70
     1
 10
0.0
 20
0.0
 30
0.0
  3
*D4
  1

  0
LINE
  5
C7A5
330
C798
100
AcDbEntity
  8
0
 62
     0
440
 16777216
370
    -2
100
AcDbLine
 10
4.786244364110983
 20
14.24440505943415
 30
0.0
 11
4.786244364110983
 21
14.57948860363081
 31
0.0
  0
LINE
  5
C7A6
330
C798
100
AcDbEntity
  8
0
 62
     0
440
 16777216
370
    -2
100
AcDbLine
 10
6.186244364110963
 20
14.24440505943415
 30
0.0
 11
6.186244364110963
 21
14.57948860363081
 31
0.0
  0
LINE
  5
C7A7
330
C798
100
AcDbEntity
  8
0
 62
     5
440
 16777216
370
     0
100
AcDbLine
 10
4.786244364110983
 20
14.45448860363081
 30
0.0
 11
6.186244364110963
 21
14.45448860363081
 31
0.0
  0
INSERT
  5
C7A8
330
C798
100
AcDbEntity
  8
0
 62
     5
440
 16777216
370
     0
100
AcDbBlockReference
  2
_Oblique
 10
4.786244364110983
 20
14.45448860363081
 30
0.0
 41
0.125
 42
0.125
 43
0.125
 50
180.0
  0
INSERT
  5
C7A9
330
C798
100
AcDbEntity
  8
0
 62
     5
440
 16777216
370
     0
100
AcDbBlockReference
  2
_Oblique
 10
6.186244364110963
 20
14.45448860363081
 30
0.0
 41
0.125
 42
0.125
 43
0.125
  0
MTEXT
  5
C7AA
330
C798
100
AcDbEntity
  8
0
 62
     0
440
 16777216
100
AcDbMText
 10
5.486244364110972
 20
14.70713185056123
 30
0.0
 40
0.25
 41
0.0
 46
0.0
 71
     5
 72
     5
  1
1400
  7
Style-Arial
 73
     1
 44
1.0
  0
POINT
  5
C7AB
330
C798
100
AcDbEntity
  8
Defpoints
 62
     0
440
 16777216
100
AcDbPoint
 10
4.786244364110983
 20
14.11940505943416
 30
0.0
  0
POINT
  5
C7AC
330
C798
100
AcDbEntity
  8
Defpoints
 62
     0
440
 16777216
100
AcDbPoint
 10
6.186244364110963
 20
14.11940505943416
 30
0.0
  0
POINT
  5
C7AD
330
C798
100
AcDbEntity
  8
Defpoints
 62
     0
440
 16777216
100
AcDbPoint
 10
6.186244364110963
 20
14.45448860363081
 30
0.0
  0
ENDBLK
  5
C79A
330
C798
100
AcDbEntity
  8
0
100
AcDbBlockEnd
  0
BLOCK
  5
C7B1
330
C7B0
100
AcDbEntity
  8
0
100
AcDbBlockBegin
  2
*D5
 70
     1
 10
0.0
 20
0.0
 30
0.0
  3
*D5
  1

  0
LINE
  5
C7BD
330
C7B0
100
AcDbEntity
  8
0
 62
     0
440
 16777216
370
    -2
100
AcDbLine
 10
3.88624436411095
 20
11.69440505943416
 30
0.0
 11
3.88624436411095
 21
10.83771575862056
 31
0.0
  0
LINE
  5
C7BE
330
C7B0
100
AcDbEntity
  8
0
 62
     0
440
 16777216
370
    -2
100
AcDbLine
 10
6.786244364110928
 20
11.69440505943416
 30
0.0
 11
6.786244364110928
 21
10.83771575862056
 31
0.0
  0
LINE
  5
C7BF
330
C7B0
100
AcDbEntity
  8
0
 62
     5
440
 16777216
370
     0
100
AcDbLine
 10
3.88624436411095
 20
10.96271575862056
 30
0.0
 11
6.786244364110928
 21
10.96271575862056
 31
0.0
  0
INSERT
  5
C7C0
330
C7B0
100
AcDbEntity
  8
0
 62
     5
440
 16777216
370
     0
100
AcDbBlockReference
  2
_Oblique
 10
3.88624436411095
 20
10.96271575862056
 30
0.0
 41
0.125
 42
0.125
 43
0.125
 50
180.0
  0
INSERT
  5
C7C1
330
C7B0
100
AcDbEntity
  8
0
 62
     5
440
 16777216
370
     0
100
AcDbBlockReference
  2
_Oblique
 10
6.786244364110928
 20
10.96271575862056
 30
0.0
 41
0.125
 42
0.125
 43
0.125
  0
MTEXT
  5
C7C2
330
C7B0
100
AcDbEntity
  8
0
 62
     0
440
 16777216
100
AcDbMText
 10
5.336244364110938
 20
11.21535900555098
 30
0.0
 40
0.25
 41
0.0
 46
0.0
 71
     5
 72
     5
  1
2900
  7
Style-Arial
 73
     1
 44
1.0
  0
POINT
  5
C7C3
330
C7B0
100
AcDbEntity
  8
Defpoints
 62
     0
440
 16777216
100
AcDbPoint
 10
3.88624436411095
 20
11.81940505943416
 30
0.0
  0
POINT
  5
C7C4
330
C7B0
100
AcDbEntity
  8
Defpoints
 62
     0
440
 16777216
100
AcDbPoint
 10
6.786244364110928
 20
11.81940505943416
 30
0.0
  0
POINT
  5
C7C5
330
C7B0
100
AcDbEntity
  8
Defpoints
 62
     0
440
 16777216
100
AcDbPoint
 10
6.786244364110928
 20
10.96271575862056
 30
0.0
  0
ENDBLK
  5
C7B2
330
C7B0
100
AcDbEntity
  8
0
100
AcDbBlockEnd
  0
BLOCK
  5
C7C9
330
C7C8
100
AcDbEntity
  8
0
100
AcDbBlockBegin
  2
*D6
 70
     1
 10
0.0
 20
0.0
 30
0.0
  3
*D6
  1

  0
LINE
  5
C7D5
330
C7C8
100
AcDbEntity
  8
0
 62
     0
440
 16777216
370
    -2
100
AcDbLine
 10
7.976244364110982
 20
14.24440505943415
 30
0.0
 11
7.976244364110982
 21
14.66528257934601
 31
0.0
  0
LINE
  5
C7D6
330
C7C8
100
AcDbEntity
  8
0
 62
     0
440
 16777216
370
    -2
100
AcDbLine
 10
9.776244364110967
 20
14.24440505943415
 30
0.0
 11
9.776244364110967
 21
14.66528257934601
 31
0.0
  0
LINE
  5
C7D7
330
C7C8
100
AcDbEntity
  8
0
 62
     5
440
 16777216
370
     0
100
AcDbLine
 10
7.976244364110982
 20
14.54028257934601
 30
0.0
 11
9.776244364110967
 21
14.54028257934601
 31
0.0
  0
INSERT
  5
C7D8
330
C7C8
100
AcDbEntity
  8
0
 62
     5
440
 16777216
370
     0
100
AcDbBlockReference
  2
_Oblique
 10
7.976244364110982
 20
14.54028257934601
 30
0.0
 41
0.125
 42
0.125
 43
0.125
 50
180.0
  0
INSERT
  5
C7D9
330
C7C8
100
AcDbEntity
  8
0
 62
     5
440
 16777216
370
     0
100
AcDbBlockReference
  2
_Oblique
 10
9.776244364110967
 20
14.54028257934601
 30
0.0
 41
0.125
 42
0.125
 43
0.125
  0
MTEXT
  5
C7DA
330
C7C8
100
AcDbEntity
  8
0
 62
     0
440
 16777216
100
AcDbMText
 10
8.876244364110974
 20
14.79292582627643
 30
0.0
 40
0.25
 41
0.0
 46
0.0
 71
     5
 72
     5
  1
1800
  7
Style-Arial
 73
     1
 44
1.0
  0
POINT
  5
C7DB
330
C7C8
100
AcDbEntity
  8
Defpoints
 62
     0
440
 16777216
100
AcDbPoint
 10
7.976244364110982
 20
14.11940505943416
 30
0.0
  0
POINT
  5
C7DC
330
C7C8
100
AcDbEntity
  8
Defpoints
 62
     0
440
 16777216
100
AcDbPoint
 10
9.776244364110967
 20
14.11940505943416
 30
0.0
  0
POINT
  5
C7DD
330
C7C8
100
AcDbEntity
  8
Defpoints
 62
     0
440
 16777216
100
AcDbPoint
 10
9.776244364110967
 20
14.54028257934601
 30
0.0
  0
ENDBLK
  5
C7CA
330
C7C8
100
AcDbEntity
  8
0
100
AcDbBlockEnd
  0
BLOCK
  5
C7E3
330
C7E2
100
AcDbEntity
  8
0
100
AcDbBlockBegin
  2
*D7
 70
     1
 10
0.0
 20
0.0
 30
0.0
  3
*D7
  1

  0
LINE
  5
C80C
330
C7E2
100
AcDbEntity
  8
0
 62
     0
440
 16777216
370
    -2
100
AcDbLine
 10
10.77624436411099
 20
14.24440505943415
 30
0.0
 11
10.77624436411099
 21
14.66528257934601
 31
0.0
  0
LINE
  5
C80D
330
C7E2
100
AcDbEntity
  8
0
 62
     0
440
 16777216
370
    -2
100
AcDbLine
 10
12.57624436411098
 20
14.24440505943415
 30
0.0
 11
12.57624436411098
 21
14.66528257934601
 31
0.0
  0
LINE
  5
C80E
330
C7E2
100
AcDbEntity
  8
0
 62
     5
440
 16777216
370
     0
100
AcDbLine
 10
10.77624436411099
 20
14.54028257934601
 30
0.0
 11
12.57624436411098
 21
14.54028257934601
 31
0.0
  0
INSERT
  5
C80F
330
C7E2
100
AcDbEntity
  8
0
 62
     5
440
 16777216
370
     0
100
AcDbBlockReference
  2
_Oblique
 10
10.77624436411099
 20
14.54028257934601
 30
0.0
 41
0.125
 42
0.125
 43
0.125
 50
180.0
  0
INSERT
  5
C810
330
C7E2
100
AcDbEntity
  8
0
 62
     5
440
 16777216
370
     0
100
AcDbBlockReference
  2
_Oblique
 10
12.57624436411098
 20
14.54028257934601
 30
0.0
 41
0.125
 42
0.125
 43
0.125
  0
MTEXT
  5
C811
330
C7E2
100
AcDbEntity
  8
0
 62
     0
440
 16777216
100
AcDbMText
 10
11.67624436411098
 20
14.79292582627643
 30
0.0
 40
0.25
 41
0.0
 46
0.0
 71
     5
 72
     5
  1
1800
  7
Style-Arial
 73
     1
 44
1.0
  0
POINT
  5
C812
330
C7E2
100
AcDbEntity
  8
Defpoints
 62
     0
440
 16777216
100
AcDbPoint
 10
10.77624436411099
 20
14.11940505943416
 30
0.0
  0
POINT
  5
C813
330
C7E2
100
AcDbEntity
  8
Defpoints
 62
     0
440
 16777216
100
AcDbPoint
 10
12.57624436411098
 20
14.11940505943416
 30
0.0
  0
POINT
  5
C814
330
C7E2
100
AcDbEntity
  8
Defpoints
 62
     0
440
 16777216
100
AcDbPoint
 10
12.57624436411098
 20
14.54028257934601
 30
0.0
  0
ENDBLK
  5
C7E4
330
C7E2
100
AcDbEntity
  8
0
100
AcDbBlockEnd
  0
BLOCK
  5
C7F2
330
C7F1
100
AcDbEntity
  8
0
100
AcDbBlockBegin
  2
*D8
 70
     1
 10
0.0
 20
0.0
 30
0.0
  3
*D8
  1

  0
LINE
  5
C815
330
C7F1
100
AcDbEntity
  8
0
 62
     0
440
 16777216
370
    -2
100
AcDbLine
 10
13.57624436411098
 20
14.24440505943415
 30
0.0
 11
13.57624436411098
 21
14.66528257934601
 31
0.0
  0
LINE
  5
C816
330
C7F1
100
AcDbEntity
  8
0
 62
     0
440
 16777216
370
    -2
100
AcDbLine
 10
15.37624436411096
 20
14.24440505943415
 30
0.0
 11
15.37624436411096
 21
14.66528257934601
 31
0.0
  0
LINE
  5
C817
330
C7F1
100
AcDbEntity
  8
0
 62
     5
440
 16777216
370
     0
100
AcDbLine
 10
13.57624436411098
 20
14.54028257934601
 30
0.0
 11
15.37624436411096
 21
14.54028257934601
 31
0.0
  0
INSERT
  5
C818
330
C7F1
100
AcDbEntity
  8
0
 62
     5
440
 16777216
370
     0
100
AcDbBlockReference
  2
_Oblique
 10
13.57624436411098
 20
14.54028257934601
 30
0.0
 41
0.125
 42
0.125
 43
0.125
 50
180.0
  0
INSERT
  5
C819
330
C7F1
100
AcDbEntity
  8
0
 62
     5
440
 16777216
370
     0
100
AcDbBlockReference
  2
_Oblique
 10
15.37624436411096
 20
14.54028257934601
 30
0.0
 41
0.125
 42
0.125
 43
0.125
  0
MTEXT
  5
C81A
330
C7F1
100
AcDbEntity
  8
0
 62
     0
440
 16777216
100
AcDbMText
 10
14.47624436411097
 20
14.79292582627643
 30
0.0
 40
0.25
 41
0.0
 46
0.0
 71
     5
 72
     5
  1
1800
  7
Style-Arial
 73
     1
 44
1.0
  0
POINT
  5
C81B
330
C7F1
100
AcDbEntity
  8
Defpoints
 62
     0
440
 16777216
100
AcDbPoint
 10
13.57624436411098
 20
14.11940505943416
 30
0.0
  0
POINT
  5
C81C
330
C7F1
100
AcDbEntity
  8
Defpoints
 62
     0
440
 16777216
100
AcDbPoint
 10
15.37624436411096
 20
14.11940505943416
 30
0.0
  0
POINT
  5
C81D
330
C7F1
100
AcDbEntity
  8
Defpoints
 62
     0
440
 16777216
100
AcDbPoint
 10
15.37624436411096
 20
14.54028257934601
 30
0.0
  0
ENDBLK
  5
C7F3
330
C7F1
100
AcDbEntity
  8
0
100
AcDbBlockEnd
  0
BLOCK
  5
C801
330
C800
100
AcDbEntity
  8
0
100
AcDbBlockBegin
  2
*D9
 70
     1
 10
0.0
 20
0.0
 30
0.0
  3
*D9
  1

  0
LINE
  5
C81E
330
C800
100
AcDbEntity
  8
0
 62
     0
440
 16777216
370
    -2
100
AcDbLine
 10
16.37624436411104
 20
14.24440505943415
 30
0.0
 11
16.37624436411104
 21
14.66528257934601
 31
0.0
  0
LINE
  5
C81F
330
C800
100
AcDbEntity
  8
0
 62
     0
440
 16777216
370
    -2
100
AcDbLine
 10
18.17624436411103
 20
14.24440505943415
 30
0.0
 11
18.17624436411103
 21
14.66528257934601
 31
0.0
  0
LINE
  5
C820
330
C800
100
AcDbEntity
  8
0
 62
     5
440
 16777216
370
     0
100
AcDbLine
 10
16.37624436411104
 20
14.54028257934601
 30
0.0
 11
18.17624436411103
 21
14.54028257934601
 31
0.0
  0
INSERT
  5
C821
330
C800
100
AcDbEntity
  8
0
 62
     5
440
 16777216
370
     0
100
AcDbBlockReference
  2
_Oblique
 10
16.37624436411104
 20
14.54028257934601
 30
0.0
 41
0.125
 42
0.125
 43
0.125
 50
180.0
  0
INSERT
  5
C822
330
C800
100
AcDbEntity
  8
0
 62
     5
440
 16777216
370
     0
100
AcDbBlockReference
  2
_Oblique
 10
18.17624436411103
 20
14.54028257934601
 30
0.0
 41
0.125
 42
0.125
 43
0.125
  0
MTEXT
  5
C823
330
C800
100
AcDbEntity
  8
0
 62
     0
440
 16777216
100
AcDbMText
 10
17.27624436411104
 20
14.79292582627643
 30
0.0
 40
0.25
 41
0.0
 46
0.0
 71
     5
 72
     5
  1
1800
  7
Style-Arial
 73
     1
 44
1.0
  0
POINT
  5
C824
330
C800
100
AcDbEntity
  8
Defpoints
 62
     0
440
 16777216
100
AcDbPoint
 10
16.37624436411104
 20
14.11940505943416
 30
0.0
  0
POINT
  5
C825
330
C800
100
AcDbEntity
  8
Defpoints
 62
     0
440
 16777216
100
AcDbPoint
 10
18.17624436411103
 20
14.11940505943416
 30
0.0
  0
POINT
  5
C826
330
C800
100
AcDbEntity
  8
Defpoints
 62
     0
440
 16777216
100
AcDbPoint
 10
18.17624436411103
 20
14.54028257934601
 30
0.0
  0
ENDBLK
  5
C802
330
C800
100
AcDbEntity
  8
0
100
AcDbBlockEnd
  0
BLOCK
  5
C829
330
C828
100
AcDbEntity
  8
0
100
AcDbBlockBegin
  2
*D10
 70
     1
 10
0.0
 20
0.0
 30
0.0
  3
*D10
  1

  0
LINE
  5
C835
330
C828
100
AcDbEntity
  8
0
 62
     0
440
 16777216
370
    -2
100
AcDbLine
 10
30.08624436411097
 20
14.24440505943415
 30
0.0
 11
30.08624436411097
 21
14.66528257934601
 31
0.0
  0
LINE
  5
C836
330
C828
100
AcDbEntity
  8
0
 62
     0
440
 16777216
370
    -2
100
AcDbLine
 10
31.38624436411098
 20
14.24440505943415
 30
0.0
 11
31.38624436411098
 21
14.66528257934601
 31
0.0
  0
LINE
  5
C837
330
C828
100
AcDbEntity
  8
0
 62
     5
440
 16777216
370
     0
100
AcDbLine
 10
30.08624436411097
 20
14.54028257934601
 30
0.0
 11
31.38624436411098
 21
14.54028257934601
 31
0.0
  0
INSERT
  5
C838
330
C828
100
AcDbEntity
  8
0
 62
     5
440
 16777216
370
     0
100
AcDbBlockReference
  2
_Oblique
 10
30.08624436411097
 20
14.54028257934601
 30
0.0
 41
0.125
 42
0.125
 43
0.125
 50
180.0
  0
INSERT
  5
C839
330
C828
100
AcDbEntity
  8
0
 62
     5
440
 16777216
370
     0
100
AcDbBlockReference
  2
_Oblique
 10
31.38624436411098
 20
14.54028257934601
 30
0.0
 41
0.125
 42
0.125
 43
0.125
  0
MTEXT
  5
C83A
330
C828
100
AcDbEntity
  8
0
 62
     0
440
 16777216
100
AcDbMText
 10
30.73624436411098
 20
14.79301109230645
 30
0.0
 40
0.25
 41
0.0
 46
0.0
 71
     5
 72
     5
  1
1300
  7
Style-Arial
 73
     1
 44
1.0
  0
POINT
  5
C83B
330
C828
100
AcDbEntity
  8
Defpoints
 62
     0
440
 16777216
100
AcDbPoint
 10
30.08624436411097
 20
14.11940505943416
 30
0.0
  0
POINT
  5
C83C
330
C828
100
AcDbEntity
  8
Defpoints
 62
     0
440
 16777216
100
AcDbPoint
 10
31.38624436411098
 20
14.11940505943416
 30
0.0
  0
POINT
  5
C83D
330
C828
100
AcDbEntity
  8
Defpoints
 62
     0
440
 16777216
100
AcDbPoint
 10
31.38624436411098
 20
14.54028257934601
 30
0.0
  0
ENDBLK
  5
C82A
330
C828
100
AcDbEntity
  8
0
100
AcDbBlockEnd
  0
BLOCK
  5
C841
330
C840
100
AcDbEntity
  8
0
100
AcDbBlockBegin
  2
*D11
 70
     1
 10
0.0
 20
0.0
 30
0.0
  3
*D11
  1

  0
LINE
  5
C84D
330
C840
100
AcDbEntity
  8
0
 62
     0
440
 16777216
370
    -2
100
AcDbLine
 10
33.801244364111
 20
19.09940505943411
 30
0.0
 11
33.3514747778693
 21
19.09940505943411
 31
0.0
  0
LINE
  5
C84E
330
C840
100
AcDbEntity
  8
0
 62
     0
440
 16777216
370
    -2
100
AcDbLine
 10
33.801244364111
 20
20.69940505943412
 30
0.0
 11
33.3514747778693
 21
20.69940505943412
 31
0.0
  0
LINE
  5
C84F
330
C840
100
AcDbEntity
  8
0
 62
     5
440
 16777216
370
     0
100
AcDbLine
 10
33.4764747778693
 20
19.09940505943411
 30
0.0
 11
33.4764747778693
 21
20.69940505943412
 31
0.0
  0
INSERT
  5
C850
330
C840
100
AcDbEntity
  8
0
 62
     5
440
 16777216
370
     0
100
AcDbBlockReference
  2
_Oblique
 10
33.4764747778693
 20
19.09940505943411
 30
0.0
 41
0.125
 42
0.125
 43
0.125
 50
270.0
  0
INSERT
  5
C851
330
C840
100
AcDbEntity
  8
0
 62
     5
440
 16777216
370
     0
100
AcDbBlockReference
  2
_Oblique
 10
33.4764747778693
 20
20.69940505943412
 30
0.0
 41
0.125
 42
0.125
 43
0.125
 50
90.0
  0
MTEXT
  5
C852
330
C840
100
AcDbEntity
  8
0
 62
     0
440
 16777216
100
AcDbMText
 10
33.22383153093888
 20
19.8994050594341
 30
0.0
 40
0.25
 41
0.0
 46
0.0
 71
     5
 72
     5
  1
1600
  7
Style-Arial
 11
0.0000000000000001
 21
1.0
 31
0.0
 73
     1
 44
1.0
  0
POINT
  5
C853
330
C840
100
AcDbEntity
  8
Defpoints
 62
     0
440
 16777216
100
AcDbPoint
 10
33.92624436411099
 20
19.09940505943411
 30
0.0
  0
POINT
  5
C854
330
C840
100
AcDbEntity
  8
Defpoints
 62
     0
440
 16777216
100
AcDbPoint
 10
33.92624436411099
 20
20.69940505943412
 30
0.0
  0
POINT
  5
C855
330
C840
100
AcDbEntity
  8
Defpoints
 62
     0
440
 16777216
100
AcDbPoint
 10
33.4764747778693
 20
20.69940505943412
 30
0.0
  0
ENDBLK
  5
C842
330
C840
100
AcDbEntity
  8
0
100
AcDbBlockEnd
  0
BLOCK
  5
C859
330
C858
100
AcDbEntity
  8
0
100
AcDbBlockBegin
  2
*D12
 70
     1
 10
0.0
 20
0.0
 30
0.0
  3
*D12
  1

  0
LINE
  5
C865
330
C858
100
AcDbEntity
  8
0
 62
     0
440
 16777216
370
    -2
100
AcDbLine
 10
38.50124436411103
 20
20.77940505943413
 30
0.0
 11
38.10460294311841
 21
20.77940505943413
 31
0.0
  0
LINE
  5
C866
330
C858
100
AcDbEntity
  8
0
 62
     0
440
 16777216
370
    -2
100
AcDbLine
 10
38.50124436411103
 20
19.17940505943414
 30
0.0
 11
38.10460294311841
 21
19.17940505943414
 31
0.0
  0
LINE
  5
C867
330
C858
100
AcDbEntity
  8
0
 62
     5
440
 16777216
370
     0
100
AcDbLine
 10
38.22960294311841
 20
20.77940505943413
 30
0.0
 11
38.22960294311841
 21
19.17940505943414
 31
0.0
  0
INSERT
  5
C868
330
C858
100
AcDbEntity
  8
0
 62
     5
440
 16777216
370
     0
100
AcDbBlockReference
  2
_Oblique
 10
38.22960294311841
 20
20.77940505943413
 30
0.0
 41
0.125
 42
0.125
 43
0.125
 50
90.0
  0
INSERT
  5
C869
330
C858
100
AcDbEntity
  8
0
 62
     5
440
 16777216
370
     0
100
AcDbBlockReference
  2
_Oblique
 10
38.22960294311841
 20
19.17940505943414
 30
0.0
 41
0.125
 42
0.125
 43
0.125
 50
270.0
  0
MTEXT
  5
C86A
330
C858
100
AcDbEntity
  8
0
 62
     0
440
 16777216
100
AcDbMText
 10
37.97695969618799
 20
19.97940505943412
 30
0.0
 40
0.25
 41
0.0
 46
0.0
 71
     5
 72
     5
  1
1600
  7
Style-Arial
 11
0.0000000000000001
 21
1.0
 31
0.0
 73
     1
 44
1.0
  0
POINT
  5
C86B
330
C858
100
AcDbEntity
  8
Defpoints
 62
     0
440
 16777216
100
AcDbPoint
 10
38.62624436411103
 20
20.77940505943413
 30
0.0
  0
POINT
  5
C86C
330
C858
100
AcDbEntity
  8
Defpoints
 62
     0
440
 16777216
100
AcDbPoint
 10
38.62624436411103
 20
19.17940505943414
 30
0.0
  0
POINT
  5
C86D
330
C858
100
AcDbEntity
  8
Defpoints
 62
     0
440
 16777216
100
AcDbPoint
 10
38.22960294311841
 20
19.17940505943414
 30
0.0
  0
ENDBLK
  5
C85A
330
C858
100
AcDbEntity
  8
0
100
AcDbBlockEnd
  0
BLOCK
  5
C871
330
C870
100
AcDbEntity
  8
0
100
AcDbBlockBegin
  2
*D13
 70
     1
 10
0.0
 20
0.0
 30
0.0
  3
*D13
  1

  0
LINE
  5
C87D
330
C870
100
AcDbEntity
  8
0
 62
     0
440
 16777216
370
    -2
100
AcDbLine
 10
31.50624436411093
 20
24.09440505943415
 30
0.0
 11
31.50624436411093
 21
23.58585567520686
 31
0.0
  0
LINE
  5
C87E
330
C870
100
AcDbEntity
  8
0
 62
     0
440
 16777216
370
    -2
100
AcDbLine
 10
32.40624436411092
 20
24.09440505943415
 30
0.0
 11
32.40624436411092
 21
23.58585567520686
 31
0.0
  0
LINE
  5
C87F
330
C870
100
AcDbEntity
  8
0
 62
     5
440
 16777216
370
     0
100
AcDbLine
 10
31.50624436411093
 20
23.71085567520686
 30
0.0
 11
32.40624436411092
 21
23.71085567520686
 31
0.0
  0
INSERT
  5
C880
330
C870
100
AcDbEntity
  8
0
 62
     5
440
 16777216
370
     0
100
AcDbBlockReference
  2
_Oblique
 10
31.50624436411093
 20
23.71085567520686
 30
0.0
 41
0.125
 42
0.125
 43
0.125
 50
180.0
  0
INSERT
  5
C881
330
C870
100
AcDbEntity
  8
0
 62
     5
440
 16777216
370
     0
100
AcDbBlockReference
  2
_Oblique
 10
32.40624436411092
 20
23.71085567520686
 30
0.0
 41
0.125
 42
0.125
 43
0.125
  0
MTEXT
  5
C882
330
C870
100
AcDbEntity
  8
0
 62
     0
440
 16777216
100
AcDbMText
 10
31.95624436411093
 20
23.96349892213728
 30
0.0
 40
0.25
 41
0.0
 46
0.0
 71
     5
 72
     5
  1
900
  7
Style-Arial
 73
     1
 44
1.0
  0
POINT
  5
C883
330
C870
100
AcDbEntity
  8
Defpoints
 62
     0
440
 16777216
100
AcDbPoint
 10
31.50624436411093
 20
24.21940505943415
 30
0.0
  0
POINT
  5
C884
330
C870
100
AcDbEntity
  8
Defpoints
 62
     0
440
 16777216
100
AcDbPoint
 10
32.40624436411092
 20
24.21940505943415
 30
0.0
  0
POINT
  5
C885
330
C870
100
AcDbEntity
  8
Defpoints
 62
     0
440
 16777216
100
AcDbPoint
 10
32.40624436411092
 20
23.71085567520686
 30
0.0
  0
ENDBLK
  5
C872
330
C870
100
AcDbEntity
  8
0
100
AcDbBlockEnd
  0
BLOCK
  5
C889
330
C888
100
AcDbEntity
  8
0
100
AcDbBlockBegin
  2
*D14
 70
     1
 10
0.0
 20
0.0
 30
0.0
  3
*D14
  1

  0
LINE
  5
C895
330
C888
100
AcDbEntity
  8
0
 62
     0
440
 16777216
370
    -2
100
AcDbLine
 10
35.22624436411101
 20
17.64440505943415
 30
0.0
 11
35.22624436411101
 21
17.039019929407
 31
0.0
  0
LINE
  5
C896
330
C888
100
AcDbEntity
  8
0
 62
     0
440
 16777216
370
    -2
100
AcDbLine
 10
36.12624436411096
 20
17.64440505943415
 30
0.0
 11
36.12624436411096
 21
17.039019929407
 31
0.0
  0
LINE
  5
C897
330
C888
100
AcDbEntity
  8
0
 62
     5
440
 16777216
370
     0
100
AcDbLine
 10
35.22624436411101
 20
17.164019929407
 30
0.0
 11
36.12624436411096
 21
17.164019929407
 31
0.0
  0
INSERT
  5
C898
330
C888
100
AcDbEntity
  8
0
 62
     5
440
 16777216
370
     0
100
AcDbBlockReference
  2
_Oblique
 10
35.22624436411101
 20
17.164019929407
 30
0.0
 41
0.125
 42
0.125
 43
0.125
 50
180.0
  0
INSERT
  5
C899
330
C888
100
AcDbEntity
  8
0
 62
     5
440
 16777216
370
     0
100
AcDbBlockReference
  2
_Oblique
 10
36.12624436411096
 20
17.164019929407
 30
0.0
 41
0.125
 42
0.125
 43
0.125
  0
MTEXT
  5
C89A
330
C888
100
AcDbEntity
  8
0
 62
     0
440
 16777216
100
AcDbMText
 10
35.676244364111
 20
17.41666317633742
 30
0.0
 40
0.25
 41
0.0
 46
0.0
 71
     5
 72
     5
  1
900
  7
Style-Arial
 73
     1
 44
1.0
  0
POINT
  5
C89B
330
C888
100
AcDbEntity
  8
Defpoints
 62
     0
440
 16777216
100
AcDbPoint
 10
35.22624436411101
 20
17.76940505943415
 30
0.0
  0
POINT
  5
C89C
330
C888
100
AcDbEntity
  8
Defpoints
 62
     0
440
 16777216
100
AcDbPoint
 10
36.12624436411096
 20
17.76940505943415
 30
0.0
  0
POINT
  5
C89D
330
C888
100
AcDbEntity
  8
Defpoints
 62
     0
440
 16777216
100
AcDbPoint
 10
36.12624436411096
 20
17.164019929407
 30
0.0
  0
ENDBLK
  5
C88A
330
C888
100
AcDbEntity
  8
0
100
AcDbBlockEnd
  0
BLOCK
  5
C8A3
330
C8A2
100
AcDbEntity
  8
0
100
AcDbBlockBegin
  2
*D15
 70
     1
 10
0.0
 20
0.0
 30
0.0
  3
*D15
  1

  0
LINE
  5
C8AE
330
C8A2
100
AcDbEntity
  8
0
 62
     0
440
 16777216
370
    -2
100
AcDbLine
 10
36.67624436411106
 20
17.64440505943415
 30
0.0
 11
36.67624436411106
 21
17.039019929407
 31
0.0
  0
LINE
  5
C8AF
330
C8A2
100
AcDbEntity
  8
0
 62
     0
440
 16777216
370
    -2
100
AcDbLine
 10
37.57624436411101
 20
17.64440505943415
 30
0.0
 11
37.57624436411101
 21
17.039019929407
 31
0.0
  0
LINE
  5
C8B0
330
C8A2
100
AcDbEntity
  8
0
 62
     5
440
 16777216
370
     0
100
AcDbLine
 10
36.67624436411106
 20
17.164019929407
 30
0.0
 11
37.57624436411101
 21
17.164019929407
 31
0.0
  0
INSERT
  5
C8B1
330
C8A2
100
AcDbEntity
  8
0
 62
     5
440
 16777216
370
     0
100
AcDbBlockReference
  2
_Oblique
 10
36.67624436411106
 20
17.164019929407
 30
0.0
 41
0.125
 42
0.125
 43
0.125
 50
180.0
  0
INSERT
  5
C8B2
330
C8A2
100
AcDbEntity
  8
0
 62
     5
440
 16777216
370
     0
100
AcDbBlockReference
  2
_Oblique
 10
37.57624436411101
 20
17.164019929407
 30
0.0
 41
0.125
 42
0.125
 43
0.125
  0
MTEXT
  5
C8B3
330
C8A2
100
AcDbEntity
  8
0
 62
     0
440
 16777216
100
AcDbMText
 10
37.12624436411103
 20
17.41666317633742
 30
0.0
 40
0.25
 41
0.0
 46
0.0
 71
     5
 72
     5
  1
900
  7
Style-Arial
 73
     1
 44
1.0
  0
POINT
  5
C8B4
330
C8A2
100
AcDbEntity
  8
Defpoints
 62
     0
440
 16777216
100
AcDbPoint
 10
36.67624436411106
 20
17.76940505943415
 30
0.0
  0
POINT
  5
C8B5
330
C8A2
100
AcDbEntity
  8
Defpoints
 62
     0
440
 16777216
100
AcDbPoint
 10
37.57624436411101
 20
17.76940505943415
 30
0.0
  0
POINT
  5
C8B6
330
C8A2
100
AcDbEntity
  8
Defpoints
 62
     0
440
 16777216
100
AcDbPoint
 10
37.57624436411101
 20
17.164019929407
 30
0.0
  0
ENDBLK
  5
C8A4
330
C8A2
100
AcDbEntity
  8
0
100
AcDbBlockEnd
  0
BLOCK
  5
C8C2
330
C8C1
100
AcDbEntity
  8
0
100
AcDbBlockBegin
  2
*D16
 70
     1
 10
0.0
 20
0.0
 30
0.0
  3
*D16
  1

  0
LINE
  5
C8CE
330
C8C1
100
AcDbEntity
  8
0
 62
     0
440
 16777216
370
    -2
100
AcDbLine
 10
36.00124436411103
 20
20.94940505943414
 30
0.0
 11
36.5044272791636
 21
20.94940505943414
 31
0.0
  0
LINE
  5
C8CF
330
C8C1
100
AcDbEntity
  8
0
 62
     0
440
 16777216
370
    -2
100
AcDbLine
 10
36.00124436411103
 20
22.06940505943414
 30
0.0
 11
36.5044272791636
 21
22.06940505943414
 31
0.0
  0
LINE
  5
C8D0
330
C8C1
100
AcDbEntity
  8
0
 62
     5
440
 16777216
370
     0
100
AcDbLine
 10
36.37942727916359
 20
20.94940505943414
 30
0.0
 11
36.37942727916359
 21
22.06940505943414
 31
0.0
  0
INSERT
  5
C8D1
330
C8C1
100
AcDbEntity
  8
0
 62
     5
440
 16777216
370
     0
100
AcDbBlockReference
  2
_Oblique
 10
36.37942727916359
 20
20.94940505943414
 30
0.0
 41
0.125
 42
0.125
 43
0.125
 50
270.0
  0
INSERT
  5
C8D2
330
C8C1
100
AcDbEntity
  8
0
 62
     5
440
 16777216
370
     0
100
AcDbBlockReference
  2
_Oblique
 10
36.37942727916359
 20
22.06940505943414
 30
0.0
 41
0.125
 42
0.125
 43
0.125
 50
90.0
  0
MTEXT
  5
C8D3
330
C8C1
100
AcDbEntity
  8
0
 62
     0
440
 16777216
100
AcDbMText
 10
36.12678403223317
 20
21.50940505943412
 30
0.0
 40
0.25
 41
0.0
 46
0.0
 71
     5
 72
     5
  1
1120
  7
Style-Arial
 11
0.0000000000000001
 21
1.0
 31
0.0
 73
     1
 44
1.0
  0
POINT
  5
C8D4
330
C8C1
100
AcDbEntity
  8
Defpoints
 62
     0
440
 16777216
100
AcDbPoint
 10
35.87624436411103
 20
20.94940505943414
 30
0.0
  0
POINT
  5
C8D5
330
C8C1
100
AcDbEntity
  8
Defpoints
 62
     0
440
 16777216
100
AcDbPoint
 10
35.87624436411103
 20
22.06940505943414
 30
0.0
  0
POINT
  5
C8D6
330
C8C1
100
AcDbEntity
  8
Defpoints
 62
     0
440
 16777216
100
AcDbPoint
 10
36.37942727916359
 20
22.06940505943414
 30
0.0
  0
ENDBLK
  5
C8C3
330
C8C1
100
AcDbEntity
  8
0
100
AcDbBlockEnd
  0
BLOCK
  5
C8DA
330
C8D9
100
AcDbEntity
  8
0
100
AcDbBlockBegin
  2
*D17
 70
     1
 10
0.0
 20
0.0
 30
0.0
  3
*D17
  1

  0
LINE
  5
C8E7
330
C8D9
100
AcDbEntity
  8
0
 62
     0
440
 16777216
370
    -2
100
AcDbLine
 10
36.00124436411103
 20
22.31940505943414
 30
0.0
 11
36.50442727916362
 21
22.31940505943414
 31
0.0
  0
LINE
  5
C8E8
330
C8D9
100
AcDbEntity
  8
0
 62
     0
440
 16777216
370
    -2
100
AcDbLine
 10
36.00124436411103
 20
23.11940505943415
 30
0.0
 11
36.50442727916362
 21
23.11940505943415
 31
0.0
  0
LINE
  5
C8E9
330
C8D9
100
AcDbEntity
  8
0
 62
     5
440
 16777216
370
     0
100
AcDbLine
 10
36.37942727916362
 20
22.31940505943414
 30
0.0
 11
36.37942727916362
 21
23.11940505943415
 31
0.0
  0
LINE
  5
C8EA
330
C8D9
100
AcDbEntity
  8
0
 62
     5
440
 16777216
370
     0
100
AcDbLine
 10
36.37942727916362
 20
23.11940505943415
 30
0.0
 11
36.37942727916362
 21
24.04624680568244
 31
0.0
  0
INSERT
  5
C8EB
330
C8D9
100
AcDbEntity
  8
0
 62
     5
440
 16777216
370
     0
100
AcDbBlockReference
  2
_Oblique
 10
36.37942727916362
 20
22.31940505943414
 30
0.0
 41
0.125
 42
0.125
 43
0.125
 50
270.0
  0
INSERT
  5
C8EC
330
C8D9
100
AcDbEntity
  8
0
 62
     5
440
 16777216
370
     0
100
AcDbBlockReference
  2
_Oblique
 10
36.37942727916362
 20
23.11940505943415
 30
0.0
 41
0.125
 42
0.125
 43
0.125
 50
90.0
  0
MTEXT
  5
C8ED
330
C8D9
100
AcDbEntity
  8
0
 62
     0
440
 16777216
100
AcDbMText
 10
36.1267840322332
 20
23.64532593255827
 30
0.0
 40
0.25
 41
0.0
 46
0.0
 71
     5
 72
     5
  1
800
  7
Style-Arial
 11
0.0000000000000001
 21
1.0
 31
0.0
 73
     1
 44
1.0
  0
POINT
  5
C8EE
330
C8D9
100
AcDbEntity
  8
Defpoints
 62
     0
440
 16777216
100
AcDbPoint
 10
35.87624436411103
 20
22.31940505943414
 30
0.0
  0
POINT
  5
C8EF
330
C8D9
100
AcDbEntity
  8
Defpoints
 62
     0
440
 16777216
100
AcDbPoint
 10
35.87624436411103
 20
23.11940505943415
 30
0.0
  0
POINT
  5
C8F0
330
C8D9
100
AcDbEntity
  8
Defpoints
 62
     0
440
 16777216
100
AcDbPoint
 10
36.37942727916362
 20
23.11940505943415
 30
0.0
  0
ENDBLK
  5
C8DB
330
C8D9
100
AcDbEntity
  8
0
100
AcDbBlockEnd
  0
BLOCK
  5
C8F4
330
C8F3
100
AcDbEntity
  8
0
100
AcDbBlockBegin
  2
*D18
 70
     1
 10
0.0
 20
0.0
 30
0.0
  3
*D18
  1

  0
LINE
  5
C900
330
C8F3
100
AcDbEntity
  8
0
 62
     0
440
 16777216
370
    -2
100
AcDbLine
 10
34.32624436411098
 20
24.34440505943415
 30
0.0
 11
34.32624436411098
 21
25.29636607534349
 31
0.0
  0
LINE
  5
C901
330
C8F3
100
AcDbEntity
  8
0
 62
     0
440
 16777216
370
    -2
100
AcDbLine
 10
35.72624436411101
 20
24.34440505943415
 30
0.0
 11
35.72624436411101
 21
25.29636607534349
 31
0.0
  0
LINE
  5
C902
330
C8F3
100
AcDbEntity
  8
0
 62
     5
440
 16777216
370
     0
100
AcDbLine
 10
34.32624436411098
 20
25.17136607534349
 30
0.0
 11
35.72624436411101
 21
25.17136607534349
 31
0.0
  0
INSERT
  5
C903
330
C8F3
100
AcDbEntity
  8
0
 62
     5
440
 16777216
370
     0
100
AcDbBlockReference
  2
_Oblique
 10
34.32624436411098
 20
25.17136607534349
 30
0.0
 41
0.125
 42
0.125
 43
0.125
 50
180.0
  0
INSERT
  5
C904
330
C8F3
100
AcDbEntity
  8
0
 62
     5
440
 16777216
370
     0
100
AcDbBlockReference
  2
_Oblique
 10
35.72624436411101
 20
25.17136607534349
 30
0.0
 41
0.125
 42
0.125
 43
0.125
  0
MTEXT
  5
C905
330
C8F3
100
AcDbEntity
  8
0
 62
     0
440
 16777216
100
AcDbMText
 10
35.026244364111
 20
25.42400932227391
 30
0.0
 40
0.25
 41
0.0
 46
0.0
 71
     5
 72
     5
  1
1400
  7
Style-Arial
 73
     1
 44
1.0
  0
POINT
  5
C906
330
C8F3
100
AcDbEntity
  8
Defpoints
 62
     0
440
 16777216
100
AcDbPoint
 10
34.32624436411098
 20
24.21940505943415
 30
0.0
  0
POINT
  5
C907
330
C8F3
100
AcDbEntity
  8
Defpoints
 62
     0
440
 16777216
100
AcDbPoint
 10
35.72624436411101
 20
24.21940505943415
 30
0.0
  0
POINT
  5
C908
330
C8F3
100
AcDbEntity
  8
Defpoints
 62
     0
440
 16777216
100
AcDbPoint
 10
35.72624436411101
 20
25.17136607534349
 30
0.0
  0
ENDBLK
  5
C8F5
330
C8F3
100
AcDbEntity
  8
0
100
AcDbBlockEnd
  0
BLOCK
  5
C90C
330
C90B
100
AcDbEntity
  8
0
100
AcDbBlockBegin
  2
*D19
 70
     1
 10
0.0
 20
0.0
 30
0.0
  3
*D19
  1

  0
LINE
  5
C918
330
C90B
100
AcDbEntity
  8
0
 62
     0
440
 16777216
370
    -2
100
AcDbLine
 10
29.95624436411091
 20
26.64440505943415
 30
0.0
 11
29.95624436411091
 21
27.6057055221138
 31
0.0
  0
LINE
  5
C919
330
C90B
100
AcDbEntity
  8
0
 62
     0
440
 16777216
370
    -2
100
AcDbLine
 10
32.95624436411092
 20
26.64440505943415
 30
0.0
 11
32.95624436411092
 21
27.6057055221138
 31
0.0
  0
LINE
  5
C91A
330
C90B
100
AcDbEntity
  8
0
 62
     5
440
 16777216
370
     0
100
AcDbLine
 10
29.95624436411091
 20
27.48070552211379
 30
0.0
 11
32.95624436411092
 21
27.48070552211379
 31
0.0
  0
INSERT
  5
C91B
330
C90B
100
AcDbEntity
  8
0
 62
     5
440
 16777216
370
     0
100
AcDbBlockReference
  2
_Oblique
 10
29.95624436411091
 20
27.48070552211379
 30
0.0
 41
0.125
 42
0.125
 43
0.125
 50
180.0
  0
INSERT
  5
C91C
330
C90B
100
AcDbEntity
  8
0
 62
     5
440
 16777216
370
     0
100
AcDbBlockReference
  2
_Oblique
 10
32.95624436411092
 20
27.48070552211379
 30
0.0
 41
0.125
 42
0.125
 43
0.125
  0
MTEXT
  5
C91D
330
C90B
100
AcDbEntity
  8
0
 62
     0
440
 16777216
100
AcDbMText
 10
31.45624436411092
 20
27.73343403507424
 30
0.0
 40
0.25
 41
0.0
 46
0.0
 71
     5
 72
     5
  1
3000
  7
Style-Arial
 73
     1
 44
1.0
  0
POINT
  5
C91E
330
C90B
100
AcDbEntity
  8
Defpoints
 62
     0
440
 16777216
100
AcDbPoint
 10
29.95624436411091
 20
26.51940505943415
 30
0.0
  0
POINT
  5
C91F
330
C90B
100
AcDbEntity
  8
Defpoints
 62
     0
440
 16777216
100
AcDbPoint
 10
32.95624436411092
 20
26.51940505943415
 30
0.0
  0
POINT
  5
C920
330
C90B
100
AcDbEntity
  8
Defpoints
 62
     0
440
 16777216
100
AcDbPoint
 10
32.95624436411092
 20
27.48070552211379
 30
0.0
  0
ENDBLK
  5
C90D
330
C90B
100
AcDbEntity
  8
0
100
AcDbBlockEnd
  0
BLOCK
  5
C924
330
C923
100
AcDbEntity
  8
0
100
AcDbBlockBegin
  2
*D20
 70
     1
 10
0.0
 20
0.0
 30
0.0
  3
*D20
  1

  0
LINE
  5
C930
330
C923
100
AcDbEntity
  8
0
 62
     0
440
 16777216
370
    -2
100
AcDbLine
 10
41.951244364111
 20
24.51940505943416
 30
0.0
 11
42.91281205905696
 21
24.51940505943416
 31
0.0
  0
LINE
  5
C931
330
C923
100
AcDbEntity
  8
0
 62
     0
440
 16777216
370
    -2
100
AcDbLine
 10
41.951244364111
 20
21.16940505943412
 30
0.0
 11
42.91281205905696
 21
21.16940505943412
 31
0.0
  0
LINE
  5
C932
330
C923
100
AcDbEntity
  8
0
 62
     5
440
 16777216
370
     0
100
AcDbLine
 10
42.78781205905696
 20
24.51940505943416
 30
0.0
 11
42.78781205905696
 21
21.16940505943412
 31
0.0
  0
INSERT
  5
C933
330
C923
100
AcDbEntity
  8
0
 62
     5
440
 16777216
370
     0
100
AcDbBlockReference
  2
_Oblique
 10
42.78781205905696
 20
24.51940505943416
 30
0.0
 41
0.125
 42
0.125
 43
0.125
 50
90.0
  0
INSERT
  5
C934
330
C923
100
AcDbEntity
  8
0
 62
     5
440
 16777216
370
     0
100
AcDbBlockReference
  2
_Oblique
 10
42.78781205905696
 20
21.16940505943412
 30
0.0
 41
0.125
 42
0.125
 43
0.125
 50
270.0
  0
MTEXT
  5
C935
330
C923
100
AcDbEntity
  8
0
 62
     0
440
 16777216
100
AcDbMText
 10
42.53508354609652
 20
22.84440505943413
 30
0.0
 40
0.25
 41
0.0
 46
0.0
 71
     5
 72
     5
  1
3350
  7
Style-Arial
 11
0.0000000000000001
 21
1.0
 31
0.0
 73
     1
 44
1.0
  0
POINT
  5
C936
330
C923
100
AcDbEntity
  8
Defpoints
 62
     0
440
 16777216
100
AcDbPoint
 10
41.82624436411102
 20
24.51940505943416
 30
0.0
  0
POINT
  5
C937
330
C923
100
AcDbEntity
  8
Defpoints
 62
     0
440
 16777216
100
AcDbPoint
 10
41.82624436411102
 20
21.16940505943412
 30
0.0
  0
POINT
  5
C938
330
C923
100
AcDbEntity
  8
Defpoints
 62
     0
440
 16777216
100
AcDbPoint
 10
42.78781205905696
 20
21.16940505943412
 30
0.0
  0
ENDBLK
  5
C925
330
C923
100
AcDbEntity
  8
0
100
AcDbBlockEnd
  0
BLOCK
  5
C93C
330
C93B
100
AcDbEntity
  8
0
100
AcDbBlockBegin
  2
*D21
 70
     1
 10
0.0
 20
0.0
 30
0.0
  3
*D21
  1

  0
LINE
  5
C948
330
C93B
100
AcDbEntity
  8
0
 62
     0
440
 16777216
370
    -2
100
AcDbLine
 10
41.951244364111
 20
18.53940505943414
 30
0.0
 11
42.91281205905699
 21
18.53940505943414
 31
0.0
  0
LINE
  5
C949
330
C93B
100
AcDbEntity
  8
0
 62
     0
440
 16777216
370
    -2
100
AcDbLine
 10
41.951244364111
 20
21.16940505943412
 30
0.0
 11
42.91281205905699
 21
21.16940505943412
 31
0.0
  0
LINE
  5
C94A
330
C93B
100
AcDbEntity
  8
0
 62
     5
440
 16777216
370
     0
100
AcDbLine
 10
42.78781205905699
 20
18.53940505943414
 30
0.0
 11
42.78781205905699
 21
21.16940505943412
 31
0.0
  0
INSERT
  5
C94B
330
C93B
100
AcDbEntity
  8
0
 62
     5
440
 16777216
370
     0
100
AcDbBlockReference
  2
_Oblique
 10
42.78781205905699
 20
18.53940505943414
 30
0.0
 41
0.125
 42
0.125
 43
0.125
 50
270.0
  0
INSERT
  5
C94C
330
C93B
100
AcDbEntity
  8
0
 62
     5
440
 16777216
370
     0
100
AcDbBlockReference
  2
_Oblique
 10
42.78781205905699
 20
21.16940505943412
 30
0.0
 41
0.125
 42
0.125
 43
0.125
 50
90.0
  0
MTEXT
  5
C94D
330
C93B
100
AcDbEntity
  8
0
 62
     0
440
 16777216
100
AcDbMText
 10
42.53508354609655
 20
19.85440505943412
 30
0.0
 40
0.25
 41
0.0
 46
0.0
 71
     5
 72
     5
  1
2630
  7
Style-Arial
 11
0.0000000000000001
 21
1.0
 31
0.0
 73
     1
 44
1.0
  0
POINT
  5
C94E
330
C93B
100
AcDbEntity
  8
Defpoints
 62
     0
440
 16777216
100
AcDbPoint
 10
41.82624436411102
 20
18.53940505943414
 30
0.0
  0
POINT
  5
C94F
330
C93B
100
AcDbEntity
  8
Defpoints
 62
     0
440
 16777216
100
AcDbPoint
 10
41.82624436411102
 20
21.16940505943412
 30
0.0
  0
POINT
  5
C950
330
C93B
100
AcDbEntity
  8
Defpoints
 62
     0
440
 16777216
100
AcDbPoint
 10
42.78781205905699
 20
21.16940505943412
 30
0.0
  0
ENDBLK
  5
C93D
330
C93B
100
AcDbEntity
  8
0
100
AcDbBlockEnd
  0
ENDSEC
  0
SECTION
  2
ENTITIES
  0
LINE
  5
BF29
330
C16B
100
AcDbEntity
  8
Level 50
  6
Continuous
 62
     7
370
    30
100
AcDbLine
 10
4.186244364110905
 20
24.21940505943415
 30
0.0
 11
4.186244364110905
 21
14.11940505943416
 31
0.0
  0
LINE
  5
BF2A
330
C16B
100
AcDbEntity
  8
Level 50
  6
Continuous
 62
     7
370
    30
100
AcDbLine
 10
4.186244364110905
 20
24.21940505943415
 30
0.0
 11
31.50624436411093
 21
24.21940505943415
 31
0.0
  0
LINE
  5
BF2C
330
C16B
100
AcDbEntity
  8
Level 50
  6
Continuous
 62
     7
370
    30
100
AcDbLine
 10
4.186244364110962
 20
14.11940505943416
 30
0.0
 11
4.786244364110983
 21
14.11940505943416
 31
0.0
  0
LINE
  5
BF2D
330
C16B
100
AcDbEntity
  8
Level 50
  6
Continuous
 62
     7
370
    30
100
AcDbLine
 10
3.88624436411095
 20
24.51940505943415
 30
0.0
 11
31.50624436411093
 21
24.51940505943415
 31
0.0
  0
LINE
  5
BF2E
330
C16B
100
AcDbEntity
  8
Level 50
  6
Continuous
 62
     7
370
    30
100
AcDbLine
 10
3.88624436411095
 20
24.51940505943415
 30
0.0
 11
3.88624436411095
 21
13.81940505943416
 31
0.0
  0
LINE
  5
BF2F
330
C16B
100
AcDbEntity
  8
Level 50
  6
Continuous
 62
     7
370
    30
100
AcDbLine
 10
3.88624436411095
 20
13.81940505943416
 30
0.0
 11
4.786244364110983
 21
13.81940505943416
 31
0.0
  0
LINE
  5
BF30
330
C16B
100
AcDbEntity
  8
Level 50
  6
Continuous
 62
     7
370
    30
100
AcDbLine
 10
4.786244364110983
 20
14.11940505943416
 30
0.0
 11
4.786244364110983
 21
13.81940505943416
 31
0.0
  0
LINE
  5
BF31
330
C16B
100
AcDbEntity
  8
Level 50
  6
Continuous
 62
     7
370
    30
100
AcDbLine
 10
6.186244364110963
 20
14.11940505943416
 30
0.0
 11
6.186244364110963
 21
13.81940505943416
 31
0.0
  0
LINE
  5
BF32
330
C16B
100
AcDbEntity
  8
Level 50
  6
Continuous
 62
     7
370
    30
100
AcDbLine
 10
6.186244364110963
 20
14.11940505943416
 30
0.0
 11
7.976244364110982
 21
14.11940505943416
 31
0.0
  0
LINE
  5
BF33
330
C16B
100
AcDbEntity
  8
Level 50
  6
Continuous
 62
     7
370
    30
100
AcDbLine
 10
6.186244364110963
 20
13.81940505943416
 30
0.0
 11
7.976244364110982
 21
13.81940505943416
 31
0.0
  0
LINE
  5
BF36
330
C16B
100
AcDbEntity
  8
Level 50
  6
Continuous
 62
     7
370
    30
100
AcDbLine
 10
7.976244364110982
 20
14.11940505943416
 30
0.0
 11
7.976244364110982
 21
13.81940505943416
 31
0.0
  0
LINE
  5
BF41
330
C16B
100
AcDbEntity
  8
Level 50
  6
Continuous
 62
     7
370
    30
100
AcDbLine
 10
9.776244364110967
 20
14.11940505943416
 30
0.0
 11
9.776244364110967
 21
13.81940505943416
 31
0.0
  0
LINE
  5
BF42
330
C16B
100
AcDbEntity
  8
Level 50
  6
Continuous
 62
     7
370
    30
100
AcDbLine
 10
10.77624436411096
 20
14.11940505943416
 30
0.0
 11
10.77624436411096
 21
13.81940505943416
 31
0.0
  0
LINE
  5
BF43
330
C16B
100
AcDbEntity
  8
Level 50
  6
Continuous
 62
     7
370
    30
100
AcDbLine
 10
12.57624436411098
 20
14.11940505943416
 30
0.0
 11
12.57624436411098
 21
13.81940505943416
 31
0.0
  0
LINE
  5
BF44
330
C16B
100
AcDbEntity
  8
Level 50
  6
Continuous
 62
     7
370
    30
100
AcDbLine
 10
13.57624436411098
 20
14.11940505943416
 30
0.0
 11
13.57624436411098
 21
13.81940505943416
 31
0.0
  0
LINE
  5
BF45
330
C16B
100
AcDbEntity
  8
Level 50
  6
Continuous
 62
     7
370
    30
100
AcDbLine
 10
15.37624436411096
 20
14.11940505943416
 30
0.0
 11
15.37624436411096
 21
13.81940505943416
 31
0.0
  0
LINE
  5
BF46
330
C16B
100
AcDbEntity
  8
Level 50
  6
Continuous
 62
     7
370
    30
100
AcDbLine
 10
16.37624436411101
 20
14.11940505943416
 30
0.0
 11
16.37624436411101
 21
13.81940505943416
 31
0.0
  0
LINE
  5
BF47
330
C16B
100
AcDbEntity
  8
Level 50
  6
Continuous
 62
     7
370
    30
100
AcDbLine
 10
18.17624436411103
 20
14.11940505943416
 30
0.0
 11
18.17624436411103
 21
13.81940505943416
 31
0.0
  0
LINE
  5
BF48
330
C16B
100
AcDbEntity
  8
Level 50
  6
Continuous
 62
     7
370
    13
100
AcDbLine
 10
33.92624436411097
 20
22.06940505943413
 30
0.0
 11
33.92624436411097
 21
20.69940505943411
 31
0.0
  0
LINE
  5
BF4A
330
C16B
100
AcDbEntity
  8
Level 50
  6
Continuous
 62
     7
370
    13
100
AcDbLine
 10
34.17624436411097
 20
22.06940505943413
 30
0.0
 11
34.17624436411097
 21
20.69940505943411
 31
0.0
  0
LINE
  5
BF4D
330
C16B
100
AcDbEntity
  8
Level 50
  6
Continuous
 62
     7
370
    30
100
AcDbLine
 10
38.62624436411103
 20
24.21940505943415
 30
0.0
 11
38.62624436411103
 21
20.77940505943413
 31
0.0
  0
LINE
  5
BF4E
330
C16B
100
AcDbEntity
  8
Level 50
  6
Continuous
 62
     7
370
    30
100
AcDbLine
 10
38.92624436411104
 20
24.51940505943415
 30
0.0
 11
38.92624436411104
 21
20.77940505943413
 31
0.0
  0
LINE
  5
BF4F
330
C16B
100
AcDbEntity
  8
Level 50
  6
Continuous
 62
     7
370
    30
100
AcDbLine
 10
18.17624436411103
 20
14.11940505943416
 30
0.0
 11
30.08624436411097
 21
14.11940505943416
 31
0.0
  0
LINE
  5
BF50
330
C16B
100
AcDbEntity
  8
Level 50
  6
Continuous
 62
     7
370
    30
100
AcDbLine
 10
18.17624436411103
 20
13.81940505943416
 30
0.0
 11
30.08624436411097
 21
13.81940505943416
 31
0.0
  0
LINE
  5
BF51
330
C16B
100
AcDbEntity
  8
Level 50
  6
Continuous
 62
     7
370
    30
100
AcDbLine
 10
15.37624436411096
 20
14.11940505943416
 30
0.0
 11
16.37624436411101
 21
14.11940505943416
 31
0.0
  0
LINE
  5
BF52
330
C16B
100
AcDbEntity
  8
Level 50
  6
Continuous
 62
     7
370
    30
100
AcDbLine
 10
15.37624436411096
 20
13.81940505943416
 30
0.0
 11
16.37624436411101
 21
13.81940505943416
 31
0.0
  0
LINE
  5
BF53
330
C16B
100
AcDbEntity
  8
Level 50
  6
Continuous
 62
     7
370
    30
100
AcDbLine
 10
12.57624436411098
 20
14.11940505943416
 30
0.0
 11
13.57624436411098
 21
14.11940505943416
 31
0.0
  0
LINE
  5
BF54
330
C16B
100
AcDbEntity
  8
Level 50
  6
Continuous
 62
     7
370
    30
100
AcDbLine
 10
12.57624436411098
 20
13.81940505943416
 30
0.0
 11
13.57624436411098
 21
13.81940505943416
 31
0.0
  0
LINE
  5
BF55
330
C16B
100
AcDbEntity
  8
Level 50
  6
Continuous
 62
     7
370
    30
100
AcDbLine
 10
9.776244364110967
 20
14.11940505943416
 30
0.0
 11
10.77624436411096
 21
14.11940505943416
 31
0.0
  0
LINE
  5
BF56
330
C16B
100
AcDbEntity
  8
Level 50
  6
Continuous
 62
     7
370
    30
100
AcDbLine
 10
9.776244364110967
 20
13.81940505943416
 30
0.0
 11
10.77624436411096
 21
13.81940505943416
 31
0.0
  0
LINE
  5
BF57
330
C16B
100
AcDbEntity
  8
Level 50
  6
Continuous
 62
     7
370
    13
100
AcDbLine
 10
31.40624436411096
 20
22.21940505943415
 30
0.0
 11
35.72624436411101
 21
22.21940505943415
 31
0.0
  0
LINE
  5
BF58
330
C16B
100
AcDbEntity
  8
Level 50
  6
Continuous
 62
     7
370
    13
100
AcDbLine
 10
31.18624436411096
 20
22.06940505943413
 30
0.0
 11
35.87624436411103
 21
22.06940505943413
 31
0.0
  0
LINE
  5
BF59
330
C16B
100
AcDbEntity
  8
Level 50
  6
Continuous
 62
     7
370
    13
100
AcDbLine
 10
31.18624436411096
 20
24.21940505943415
 30
0.0
 11
31.18624436411096
 21
22.06940505943413
 31
0.0
  0
LINE
  5
BF5A
330
C16B
100
AcDbEntity
  8
Level 50
  6
Continuous
 62
     7
370
    13
100
AcDbLine
 10
35.87624436411103
 20
24.21940505943415
 30
0.0
 11
35.87624436411103
 21
23.11940505943413
 31
0.0
  0
LINE
  5
BF5B
330
C16B
100
AcDbEntity
  8
Level 50
  6
Continuous
 62
     7
370
    13
100
AcDbLine
 10
35.72624436411101
 20
24.21940505943415
 30
0.0
 11
35.72624436411101
 21
23.11940505943413
 31
0.0
  0
LINE
  5
BF5C
330
C16B
100
AcDbEntity
  8
Level 50
  6
Continuous
 62
     7
370
    13
100
AcDbLine
 10
34.32624436411098
 20
24.21940505943415
 30
0.0
 11
34.32624436411098
 21
22.21940505943415
 31
0.0
  0
LINE
  5
BF5D
330
C16B
100
AcDbEntity
  8
Level 50
  6
Continuous
 62
     7
370
    13
100
AcDbLine
 10
34.17624436411097
 20
24.21940505943415
 30
0.0
 11
34.17624436411097
 21
22.21940505943415
 31
0.0
  0
LINE
  5
BF5E
330
C16B
100
AcDbEntity
  8
Level 50
  6
Continuous
 62
     7
370
    13
100
AcDbLine
 10
31.40624436411096
 20
24.21940505943415
 30
0.0
 11
31.40624436411096
 21
22.21940505943415
 31
0.0
  0
LINE
  5
BF5F
330
C16B
100
AcDbEntity
  8
Level 50
  6
Continuous
 62
     7
370
    30
100
AcDbLine
 10
38.62624436411103
 20
20.77940505943413
 30
0.0
 11
38.92624436411104
 21
20.77940505943413
 31
0.0
  0
LINE
  5
BF60
330
C16B
100
AcDbEntity
  8
Level 50
  6
Continuous
 62
     7
370
    30
100
AcDbLine
 10
38.62624436411103
 20
19.17940505943413
 30
0.0
 11
38.92624436411104
 21
19.17940505943413
 31
0.0
  0
LINE
  5
BF61
330
C16B
100
AcDbEntity
  8
Level 50
  6
Continuous
 62
     7
370
    30
100
AcDbLine
 10
38.62624436411103
 20
19.17940505943413
 30
0.0
 11
38.62624436411103
 21
14.11940505943416
 31
0.0
  0
LINE
  5
BF62
330
C16B
100
AcDbEntity
  8
Level 50
  6
Continuous
 62
     7
370
    30
100
AcDbLine
 10
38.92624436411104
 20
19.17940505943413
 30
0.0
 11
38.92624436411104
 21
13.81940505943416
 31
0.0
  0
LINE
  5
BF63
330
C16B
100
AcDbEntity
  8
Level 50
  6
Continuous
 62
     7
370
    13
100
AcDbLine
 10
34.17624436411097
 20
20.94940505943413
 30
0.0
 11
35.87624436411103
 21
20.94940505943413
 31
0.0
  0
LINE
  5
BF64
330
C16B
100
AcDbEntity
  8
Level 50
  6
Continuous
 62
     7
370
    13
100
AcDbLine
 10
34.17624436411097
 20
20.79940505943411
 30
0.0
 11
35.87624436411103
 21
20.79940505943411
 31
0.0
  0
LINE
  5
BF65
330
C16B
100
AcDbEntity
  8
Level 50
  6
Continuous
 62
     7
370
    13
100
AcDbLine
 10
35.87624436411103
 20
20.94940505943413
 30
0.0
 11
35.87624436411103
 21
20.79940505943411
 31
0.0
  0
LINE
  5
BF66
330
C16B
100
AcDbEntity
  8
Level 50
  6
Continuous
 62
     7
370
    13
100
AcDbLine
 10
33.92624436411097
 20
20.69940505943411
 30
0.0
 11
34.17624436411097
 21
20.69940505943411
 31
0.0
  0
LINE
  5
BF67
330
C16B
100
AcDbEntity
  8
Level 50
  6
Continuous
 62
     7
370
    13
100
AcDbLine
 10
33.92624436411097
 20
19.0994050594341
 30
0.0
 11
34.17624436411097
 21
19.0994050594341
 31
0.0
  0
LINE
  5
BF68
330
C16B
100
AcDbEntity
  8
Level 50
  6
Continuous
 62
     7
370
    13
100
AcDbLine
 10
34.17624436411097
 20
19.0994050594341
 30
0.0
 11
34.17624436411097
 21
14.11940505943416
 31
0.0
  0
LINE
  5
BF69
330
C16B
100
AcDbEntity
  8
Level 50
  6
Continuous
 62
     7
370
    13
100
AcDbLine
 10
33.92624436411097
 20
19.0994050594341
 30
0.0
 11
33.92624436411097
 21
14.11940505943416
 31
0.0
  0
LINE
  5
BF6A
330
C16B
100
AcDbEntity
  8
Level 50
  6
Continuous
 62
     7
370
    30
100
AcDbLine
 10
31.50624436411093
 20
24.51940505943415
 30
0.0
 11
31.50624436411093
 21
24.21940505943415
 31
0.0
  0
LINE
  5
BF6B
330
C16B
100
AcDbEntity
  8
Level 50
  6
Continuous
 62
     7
370
    30
100
AcDbLine
 10
32.40624436411092
 20
24.51940505943415
 30
0.0
 11
32.40624436411092
 21
24.21940505943415
 31
0.0
  0
LINE
  5
BF6C
330
C16B
100
AcDbEntity
  8
Level 50
  6
Continuous
 62
     7
370
    30
100
AcDbLine
 10
32.40624436411092
 20
24.51940505943415
 30
0.0
 11
38.92624436411104
 21
24.51940505943415
 31
0.0
  0
LINE
  5
BF6D
330
C16B
100
AcDbEntity
  8
Level 50
  6
Continuous
 62
     7
370
    30
100
AcDbLine
 10
32.40624436411092
 20
24.21940505943415
 30
0.0
 11
38.62624436411103
 21
24.21940505943415
 31
0.0
  0
LINE
  5
BF70
330
C16B
100
AcDbEntity
  8
Level 50
  6
Continuous
 62
     7
370
    13
100
AcDbLine
 10
36.67624436411104
 20
17.91940505943415
 30
0.0
 11
36.67624436411104
 21
17.76940505943415
 31
0.0
  0
LINE
  5
BF71
330
C16B
100
AcDbEntity
  8
Level 50
  6
Continuous
 62
     7
370
    13
100
AcDbLine
 10
37.57624436411101
 20
17.91940505943415
 30
0.0
 11
37.57624436411101
 21
17.76940505943415
 31
0.0
  0
LINE
  5
BF72
330
C16B
100
AcDbEntity
  8
Level 50
  6
Continuous
 62
     7
370
    13
100
AcDbLine
 10
37.57624436411101
 20
17.91940505943415
 30
0.0
 11
38.62624436411103
 21
17.91940505943415
 31
0.0
  0
LINE
  5
BF73
330
C16B
100
AcDbEntity
  8
Level 50
  6
Continuous
 62
     7
370
    13
100
AcDbLine
 10
37.57624436411101
 20
17.76940505943415
 30
0.0
 11
38.62624436411103
 21
17.76940505943415
 31
0.0
  0
LINE
  5
BF74
330
C16B
100
AcDbEntity
  8
Level 50
  6
Continuous
 62
     7
370
    13
100
AcDbLine
 10
36.12624436411096
 20
17.91940505943415
 30
0.0
 11
36.12624436411096
 21
17.76940505943415
 31
0.0
  0
LINE
  5
BF75
330
C16B
100
AcDbEntity
  8
Level 50
  6
Continuous
 62
     7
370
    13
100
AcDbLine
 10
35.22624436411101
 20
17.91940505943415
 30
0.0
 11
35.22624436411101
 21
17.76940505943415
 31
0.0
  0
LINE
  5
BF76
330
C16B
100
AcDbEntity
  8
Level 50
  6
Continuous
 62
     7
370
    13
100
AcDbLine
 10
36.12624436411096
 20
17.91940505943415
 30
0.0
 11
36.67624436411104
 21
17.91940505943415
 31
0.0
  0
LINE
  5
BF77
330
C16B
100
AcDbEntity
  8
Level 50
  6
Continuous
 62
     7
370
    13
100
AcDbLine
 10
36.12624436411096
 20
17.76940505943415
 30
0.0
 11
36.67624436411104
 21
17.76940505943415
 31
0.0
  0
LINE
  5
BF78
330
C16B
100
AcDbEntity
  8
Level 50
  6
Continuous
 62
     7
370
    13
100
AcDbLine
 10
36.22624436411097
 20
17.76940505943415
 30
0.0
 11
36.22624436411097
 21
14.11940505943416
 31
0.0
  0
LINE
  5
BF79
330
C16B
100
AcDbEntity
  8
Level 50
  6
Continuous
 62
     7
370
    13
100
AcDbLine
 10
36.37624436411096
 20
17.76940505943415
 30
0.0
 11
36.37624436411096
 21
14.11940505943416
 31
0.0
  0
LINE
  5
BF7A
330
C16B
100
AcDbEntity
  8
Level 50
  6
Continuous
 62
     7
370
    13
100
AcDbLine
 10
34.17624436411097
 20
17.76940505943415
 30
0.0
 11
35.22624436411101
 21
17.76940505943415
 31
0.0
  0
LINE
  5
BF7B
330
C16B
100
AcDbEntity
  8
Level 50
  6
Continuous
 62
     7
370
    13
100
AcDbLine
 10
34.17624436411097
 20
17.91940505943415
 30
0.0
 11
35.22624436411101
 21
17.91940505943415
 31
0.0
  0
LINE
  5
BF7C
330
C16B
100
AcDbEntity
  8
Level 50
  6
Continuous
 62
     7
370
    30
100
AcDbLine
 10
31.38624436411098
 20
14.11940505943416
 30
0.0
 11
31.38624436411098
 21
13.81940505943416
 31
0.0
  0
LINE
  5
BF7D
330
C16B
100
AcDbEntity
  8
Level 50
  6
Continuous
 62
     7
370
    30
100
AcDbLine
 10
30.08624436411097
 20
14.11940505943416
 30
0.0
 11
30.08624436411097
 21
13.81940505943416
 31
0.0
  0
LINE
  5
BF7F
330
C16B
100
AcDbEntity
  8
Level 50
  6
Continuous
 62
     7
370
    30
100
AcDbLine
 10
31.38624436411098
 20
14.11940505943416
 30
0.0
 11
38.62624436411103
 21
14.11940505943416
 31
0.0
  0
LINE
  5
BF80
330
C16B
100
AcDbEntity
  8
Level 50
  6
Continuous
 62
     7
370
    30
100
AcDbLine
 10
31.38624436411098
 20
13.81940505943416
 30
0.0
 11
38.92624436411104
 21
13.81940505943416
 31
0.0
  0
LINE
  5
BF81
330
C16B
100
AcDbEntity
  8
Level 50
  6
Continuous
 62
     7
370
     0
100
AcDbLine
 10
29.95624436411091
 20
26.51940505943415
 30
0.0
 11
32.95624436411092
 21
26.51940505943415
 31
0.0
  0
LINE
  5
BF83
330
C16B
100
AcDbEntity
  8
Level 50
  6
Continuous
 62
     7
370
     0
100
AcDbLine
 10
32.95624436411092
 20
24.51940505943415
 30
0.0
 11
32.95624436411092
 21
26.51940505943415
 31
0.0
  0
LINE
  5
BF84
330
C16B
100
AcDbEntity
  8
Level 50
  6
Continuous
 62
     7
370
     0
100
AcDbLine
 10
29.95624436411091
 20
24.51940505943415
 30
0.0
 11
29.95624436411091
 21
26.51940505943415
 31
0.0
  0
LINE
  5
BF89
330
C16B
100
AcDbEntity
  8
Level 50
  6
Continuous
 62
     7
370
     0
100
AcDbLine
 10
38.92624436411104
 20
18.53940505943413
 30
0.0
 11
41.82624436411099
 21
18.53940505943413
 31
0.0
  0
LINE
  5
C06B
330
C16B
100
AcDbEntity
  8
Level 50
  6
Continuous
 62
     7
370
    13
100
AcDbLine
 10
16.37624436411101
 20
14.11940505943416
 30
0.0
 11
18.17624436411103
 21
14.11940505943416
 31
0.0
  0
LINE
  5
C06C
330
C16B
100
AcDbEntity
  8
Level 50
  6
Continuous
 62
     7
370
    13
100
AcDbLine
 10
18.17624436411103
 20
13.81940505943416
 30
0.0
 11
16.37624436411101
 21
13.81940505943416
 31
0.0
  0
LINE
  5
C06D
330
C16B
100
AcDbEntity
  8
Level 50
  6
Continuous
 62
     7
370
     0
100
AcDbLine
 10
18.17624436411103
 20
13.91940505943415
 30
0.0
 11
16.37624436411101
 21
13.91940505943415
 31
0.0
  0
LINE
  5
C06E
330
C16B
100
AcDbEntity
  8
Level 50
  6
Continuous
 62
     7
370
     0
100
AcDbLine
 10
18.17624436411103
 20
14.01940505943415
 30
0.0
 11
16.37624436411101
 21
14.01940505943415
 31
0.0
  0
LINE
  5
C06F
330
C16B
100
AcDbEntity
  8
Level 50
  6
Continuous
 62
     7
370
    13
100
AcDbLine
 10
13.57624436411098
 20
14.11940505943416
 30
0.0
 11
15.37624436411096
 21
14.11940505943416
 31
0.0
  0
LINE
  5
C070
330
C16B
100
AcDbEntity
  8
Level 50
  6
Continuous
 62
     7
370
    13
100
AcDbLine
 10
15.37624436411096
 20
13.81940505943416
 30
0.0
 11
13.57624436411098
 21
13.81940505943416
 31
0.0
  0
LINE
  5
C071
330
C16B
100
AcDbEntity
  8
Level 50
  6
Continuous
 62
     7
370
     0
100
AcDbLine
 10
15.37624436411096
 20
13.91940505943415
 30
0.0
 11
13.57624436411098
 21
13.91940505943415
 31
0.0
  0
LINE
  5
C072
330
C16B
100
AcDbEntity
  8
Level 50
  6
Continuous
 62
     7
370
     0
100
AcDbLine
 10
15.37624436411096
 20
14.01940505943415
 30
0.0
 11
13.57624436411098
 21
14.01940505943415
 31
0.0
  0
LINE
  5
C073
330
C16B
100
AcDbEntity
  8
Level 50
  6
Continuous
 62
     7
370
    13
100
AcDbLine
 10
10.77624436411096
 20
14.11940505943416
 30
0.0
 11
12.57624436411098
 21
14.11940505943416
 31
0.0
  0
LINE
  5
C074
330
C16B
100
AcDbEntity
  8
Level 50
  6
Continuous
 62
     7
370
    13
100
AcDbLine
 10
12.57624436411098
 20
13.81940505943416
 30
0.0
 11
10.77624436411096
 21
13.81940505943416
 31
0.0
  0
LINE
  5
C075
330
C16B
100
AcDbEntity
  8
Level 50
  6
Continuous
 62
     7
370
     0
100
AcDbLine
 10
12.57624436411098
 20
13.91940505943415
 30
0.0
 11
10.77624436411096
 21
13.91940505943415
 31
0.0
  0
LINE
  5
C076
330
C16B
100
AcDbEntity
  8
Level 50
  6
Continuous
 62
     7
370
     0
100
AcDbLine
 10
12.57624436411098
 20
14.01940505943415
 30
0.0
 11
10.77624436411096
 21
14.01940505943415
 31
0.0
  0
LINE
  5
C077
330
C16B
100
AcDbEntity
  8
Level 50
  6
Continuous
 62
     7
370
    13
100
AcDbLine
 10
7.976244364110982
 20
14.11940505943416
 30
0.0
 11
9.776244364110967
 21
14.11940505943416
 31
0.0
  0
LINE
  5
C078
330
C16B
100
AcDbEntity
  8
Level 50
  6
Continuous
 62
     7
370
    13
100
AcDbLine
 10
9.776244364110967
 20
13.81940505943416
 30
0.0
 11
7.976244364110982
 21
13.81940505943416
 31
0.0
  0
LINE
  5
C079
330
C16B
100
AcDbEntity
  8
Level 50
  6
Continuous
 62
     7
370
     0
100
AcDbLine
 10
9.776244364110967
 20
13.91940505943415
 30
0.0
 11
7.976244364110982
 21
13.91940505943415
 31
0.0
  0
LINE
  5
C07A
330
C16B
100
AcDbEntity
  8
Level 50
  6
Continuous
 62
     7
370
     0
100
AcDbLine
 10
9.776244364110967
 20
14.01940505943415
 30
0.0
 11
7.976244364110982
 21
14.01940505943415
 31
0.0
  0
LINE
  5
C07B
330
C16B
100
AcDbEntity
  8
Level 50
  6
Continuous
 62
     7
370
    13
100
AcDbLine
 10
35.72624436411101
 20
22.31940505943413
 30
0.0
 11
35.87624436411103
 21
22.31940505943413
 31
0.0
  0
LINE
  5
C07C
330
C16B
100
AcDbEntity
  8
Level 50
  6
Continuous
 62
     7
370
    13
100
AcDbLine
 10
35.72624436411101
 20
23.11940505943413
 30
0.0
 11
35.87624436411103
 21
23.11940505943413
 31
0.0
  0
LINE
  5
C07D
330
C16B
100
AcDbEntity
  8
Level 50
  6
Continuous
 62
     7
370
    13
100
AcDbLine
 10
35.72624436411101
 20
22.31940505943413
 30
0.0
 11
35.72624436411101
 21
22.21940505943415
 31
0.0
  0
LINE
  5
C07E
330
C16B
100
AcDbEntity
  8
Level 50
  6
Continuous
 62
     7
370
    13
100
AcDbLine
 10
35.87624436411103
 20
22.31940505943413
 30
0.0
 11
35.87624436411103
 21
22.06940505943413
 31
0.0
  0
LINE
  5
C080
330
C16B
100
AcDbEntity
  8
Level 50
  6
Continuous
 62
     7
370
     0
100
AcDbLine
 10
29.98624436411097
 20
12.31940505943416
 30
0.0
 11
31.48624436411097
 21
12.31940505943416
 31
0.0
  0
LINE
  5
C082
330
C16B
100
AcDbEntity
  8
Level 50
  6
Continuous
 62
     7
370
     0
100
AcDbLine
 10
29.98624436411097
 20
13.81940505943416
 30
0.0
 11
29.98624436411097
 21
12.31940505943416
 31
0.0
  0
LINE
  5
C083
330
C16B
100
AcDbEntity
  8
Level 50
  6
Continuous
 62
     7
370
     0
100
AcDbLine
 10
31.48624436411097
 20
13.81940505943416
 30
0.0
 11
31.48624436411097
 21
12.31940505943416
 31
0.0
  0
LINE
  5
C085
330
C16B
100
AcDbEntity
  8
Level 50
  6
Continuous
 62
     7
370
    13
100
AcDbLine
 10
38.92624436411104
 20
21.16940505943412
 30
0.0
 11
39.77624436411102
 21
21.16940505943412
 31
0.0
  0
LINE
  5
C086
330
C16B
100
AcDbEntity
  8
Level 50
  6
Continuous
 62
     7
370
    13
100
AcDbLine
 10
41.82624436411099
 20
24.51940505943415
 30
0.0
 11
41.82624436411099
 21
21.16940505943412
 31
0.0
  0
LINE
  5
C087
330
C16B
100
AcDbEntity
  8
Level 50
  6
Continuous
 62
     7
370
    13
100
AcDbLine
 10
38.92624436411104
 20
24.51940505943415
 30
0.0
 11
41.82624436411099
 21
24.51940505943415
 31
0.0
  0
LINE
  5
C088
330
C16B
100
AcDbEntity
  8
Level 50
  6
Continuous
 62
     7
370
    13
100
AcDbLine
 10
38.92624436411104
 20
24.43940505943415
 30
0.0
 11
41.74624436411102
 21
24.43940505943415
 31
0.0
  0
LINE
  5
C089
330
C16B
100
AcDbEntity
  8
Level 50
  6
Continuous
 62
     7
370
    13
100
AcDbLine
 10
41.74624436411102
 20
24.43940505943415
 30
0.0
 11
41.74624436411102
 21
21.24940505943411
 31
0.0
  0
LINE
  5
C08A
330
C16B
100
AcDbEntity
  8
Level 50
  6
Continuous
 62
     7
370
    13
100
AcDbLine
 10
38.92624436411104
 20
21.24940505943411
 30
0.0
 11
39.77624436411102
 21
21.24940505943411
 31
0.0
  0
LINE
  5
C08C
330
C16B
100
AcDbEntity
  8
Level 50
  6
Continuous
 62
     7
370
    13
100
AcDbLine
 10
39.77624436411102
 20
21.24940505943411
 30
0.0
 11
39.77624436411102
 21
21.16940505943412
 31
0.0
  0
LINE
  5
C08D
330
C16B
100
AcDbEntity
  8
Level 50
  6
Continuous
 62
     7
370
    13
100
AcDbLine
 10
40.97624436411101
 20
21.24940505943411
 30
0.0
 11
40.97624436411101
 21
21.16940505943412
 31
0.0
  0
LINE
  5
C08E
330
C16B
100
AcDbEntity
  8
Level 50
  6
Continuous
 62
     7
370
    13
100
AcDbLine
 10
40.97624436411101
 20
21.24940505943411
 30
0.0
 11
41.74624436411102
 21
21.24940505943411
 31
0.0
  0
LINE
  5
C08F
330
C16B
100
AcDbEntity
  8
Level 50
  6
Continuous
 62
     7
370
    13
100
AcDbLine
 10
40.97624436411101
 20
21.16940505943412
 30
0.0
 11
41.82624436411099
 21
21.16940505943412
 31
0.0
  0
LINE
  5
C090
330
C16B
100
AcDbEntity
  8
Level 50
  6
Continuous
 62
     7
370
     0
100
AcDbLine
 10
41.82624436411099
 20
21.16940505943412
 30
0.0
 11
41.82624436411099
 21
18.53940505943413
 31
0.0
  0
LINE
  5
C091
330
C16B
100
AcDbEntity
  8
Level 50
  6
Continuous
 62
     7
370
     0
100
AcDbLine
 10
3.88624436411095
 20
13.81940505943416
 30
0.0
 11
3.88624436411095
 21
11.81940505943416
 31
0.0
  0
LINE
  5
C093
330
C16B
100
AcDbEntity
  8
Level 50
  6
Continuous
 62
     7
370
     0
100
AcDbLine
 10
2.88624436411095
 20
11.81940505943416
 30
0.0
 11
6.786244364110928
 21
11.81940505943416
 31
0.0
  0
LINE
  5
C094
330
C16B
100
AcDbEntity
  8
Level 50
  6
Continuous
 62
     7
370
     0
100
AcDbLine
 10
6.786244364110928
 20
13.81940505943416
 30
0.0
 11
6.786244364110928
 21
11.81940505943416
 31
0.0
  0
LINE
  5
C095
330
C16B
100
AcDbEntity
  8
Level 50
  6
Continuous
 62
     7
370
     0
100
AcDbLine
 10
2.88624436411095
 20
13.81940505943416
 30
0.0
 11
2.88624436411095
 21
11.81940505943416
 31
0.0
  0
LINE
  5
C096
330
C16B
100
AcDbEntity
  8
Level 50
  6
Continuous
 62
     7
370
     0
100
AcDbLine
 10
3.88624436411095
 20
13.81940505943416
 30
0.0
 11
2.88624436411095
 21
13.81940505943416
 31
0.0
  0
LINE
  5
C097
330
C16B
100
AcDbEntity
  8
Level 50
  6
Continuous
 62
     7
370
     0
100
AcDbLine
 10
3.88624436411095
 20
12.81940505943416
 30
0.0
 11
2.88624436411095
 21
12.81940505943416
 31
0.0
  0
LINE
  5
C09A
330
C16B
100
AcDbEntity
  8
Level 50
  6
Continuous
 62
     7
370
     0
100
AcDbLine
 10
4.286244364110928
 20
16.50940505943416
 30
0.0
 11
4.686244364110962
 21
16.50940505943416
 31
0.0
  0
LINE
  5
C09B
330
C16B
100
AcDbEntity
  8
Level 50
  6
Continuous
 62
     7
370
     0
100
AcDbLine
 10
4.286244364110928
 20
16.60940505943415
 30
0.0
 11
4.686244364110962
 21
16.60940505943415
 31
0.0
  0
LINE
  5
C0A3
330
C16B
100
AcDbEntity
  8
Level 50
  6
Continuous
 62
     7
370
     0
100
AcDbLine
 10
6.286244364110983
 20
16.60940505943415
 30
0.0
 11
6.876244364110902
 21
16.60940505943415
 31
0.0
  0
LINE
  5
C0A4
330
C16B
100
AcDbEntity
  8
Level 50
  6
Continuous
 62
     7
370
     0
100
AcDbLine
 10
6.286244364110983
 20
16.50940505943416
 30
0.0
 11
6.876244364110902
 21
16.50940505943416
 31
0.0
  0
LINE
  5
C0A9
330
C16B
100
AcDbEntity
  8
Level 50
  6
Continuous
 62
     7
370
     0
100
AcDbLine
 10
6.876244364110902
 20
16.50940505943416
 30
0.0
 11
6.876244364110902
 21
16.10940505943415
 31
0.0
  0
LINE
  5
C0AA
330
C16B
100
AcDbEntity
  8
Level 50
  6
Continuous
 62
     7
370
     0
100
AcDbLine
 10
6.926244364110914
 20
16.50940505943416
 30
0.0
 11
6.926244364110914
 21
16.10940505943415
 31
0.0
  0
LINE
  5
C0AB
330
C16B
100
AcDbEntity
  8
Level 50
  6
Continuous
 62
     7
370
     0
100
AcDbLine
 10
6.976244364110924
 20
16.50940505943416
 30
0.0
 11
6.976244364110924
 21
16.10940505943415
 31
0.0
  0
LINE
  5
C0AC
330
C16B
100
AcDbEntity
  8
Level 50
  6
Continuous
 62
     7
370
     0
100
AcDbLine
 10
6.286244364110983
 20
16.55940505943415
 30
0.0
 11
6.876244364110902
 21
16.55940505943415
 31
0.0
  0
LINE
  5
C0AD
330
C16B
100
AcDbEntity
  8
Level 50
  6
Continuous
 62
     7
370
     0
100
AcDbLine
 10
4.286244364110928
 20
16.55940505943415
 30
0.0
 11
4.686244364110962
 21
16.55940505943415
 31
0.0
  0
LINE
  5
C0AE
330
C16B
100
AcDbEntity
  8
Level 50
  6
Continuous
 62
     7
370
     0
100
AcDbLine
 10
6.876244364110902
 20
14.50940505943416
 30
0.0
 11
6.876244364110902
 21
14.21940505943415
 31
0.0
  0
LINE
  5
C0AF
330
C16B
100
AcDbEntity
  8
Level 50
  6
Continuous
 62
     7
370
     0
100
AcDbLine
 10
6.926244364110914
 20
14.50940505943416
 30
0.0
 11
6.926244364110914
 21
14.21940505943415
 31
0.0
  0
LINE
  5
C0B0
330
C16B
100
AcDbEntity
  8
Level 50
  6
Continuous
 62
     7
370
     0
100
AcDbLine
 10
6.976244364110924
 20
14.50940505943416
 30
0.0
 11
6.976244364110924
 21
14.21940505943415
 31
0.0
  0
LINE
  5
C0B1
330
C16B
100
AcDbEntity
  8
Level 50
  6
Continuous
 62
     7
370
     0
100
AcDbLine
 10
4.786244364110983
 20
16.55940505943415
 30
0.0
 11
6.186244364110963
 21
16.55940505943415
 31
0.0
  0
LINE
  5
C0B7
330
C16B
100
AcDbEntity
  8
Level 50
  6
Continuous
 62
     7
370
     0
100
AcDbLine
 10
4.786244364110983
 20
16.55940505943415
 30
0.0
 11
5.493351145297482
 21
15.8522982782476
 31
0.0
  0
LINE
  5
C0B8
330
C16B
100
AcDbEntity
  8
Level 50
  6
Continuous
 62
     7
370
     0
100
AcDbLine
 10
6.186244364110963
 20
16.55940505943415
 30
0.0
 11
5.903401651636328
 21
16.27656234695954
 31
0.0
  0
LINE
  5
C0BF
330
C16B
100
AcDbEntity
  8
Level 50
  6
Continuous
 62
     7
370
     0
100
AcDbLine
 10
6.926244364110914
 20
16.00940505943416
 30
0.0
 11
6.926244364110914
 21
14.60940505943415
 31
0.0
  0
LINE
  5
C0C0
330
C16B
100
AcDbEntity
  8
Level 50
  6
Continuous
 62
     7
370
     0
100
AcDbLine
 10
6.926244364110914
 20
16.00940505943416
 30
0.0
 11
6.219137582924361
 21
15.30229827824766
 31
0.0
  0
LINE
  5
C0C1
330
C16B
100
AcDbEntity
  8
Level 50
  6
Continuous
 62
     7
370
     0
100
AcDbLine
 10
6.926244364110914
 20
14.60940505943415
 30
0.0
 11
6.643401651636338
 21
14.89224777190877
 31
0.0
  0
LINE
  5
C0C4
330
C16B
100
AcDbEntity
  8
Level 50
  6
Continuous
 62
     7
370
     0
100
AcDbLine
 10
6.186244364110963
 20
13.96940505943415
 30
0.0
 11
4.786244364110983
 21
13.96940505943415
 31
0.0
  0
LINE
  5
C0C5
330
C16B
100
AcDbEntity
  8
Level 50
  6
Continuous
 62
     7
370
     0
100
AcDbLine
 10
6.186244364110963
 20
13.96940505943415
 30
0.0
 11
5.479137582924408
 21
13.2622982782476
 31
0.0
  0
LINE
  5
C0C6
330
C16B
100
AcDbEntity
  8
Level 50
  6
Continuous
 62
     7
370
     0
100
AcDbLine
 10
4.786244364110983
 20
13.96940505943415
 30
0.0
 11
5.069087076585559
 21
13.68656234695953
 31
0.0
  0
LINE
  5
C0C9
330
C16B
100
AcDbEntity
  8
Level 50
  6
Continuous
 62
     7
370
     0
100
AcDbLine
 10
31.38624436411098
 20
13.96940505943415
 30
0.0
 11
30.08624436411097
 21
13.96940505943415
 31
0.0
  0
LINE
  5
C0CA
330
C16B
100
AcDbEntity
  8
Level 50
  6
Continuous
 62
     7
370
     0
100
AcDbLine
 10
31.38624436411098
 20
13.96940505943415
 30
0.0
 11
30.67913758292443
 21
13.2622982782476
 31
0.0
  0
LINE
  5
C0CB
330
C16B
100
AcDbEntity
  8
Level 50
  6
Continuous
 62
     7
370
     0
100
AcDbLine
 10
30.08624436411097
 20
13.96940505943415
 30
0.0
 11
30.31463258225247
 21
13.74101684129265
 31
0.0
  0
LINE
  5
C0D4
330
C16B
100
AcDbEntity
  8
Level 50
  6
Continuous
 62
     7
370
     0
100
AcDbLine
 10
31.50624436411093
 20
24.36940505943416
 30
0.0
 11
32.40624436411092
 21
24.36940505943416
 31
0.0
  0
LINE
  5
C0D6
330
C16B
100
AcDbEntity
  8
Level 50
  6
Continuous
 62
     7
370
     0
100
AcDbLine
 10
31.50624436411093
 20
24.36940505943416
 30
0.0
 11
32.14264046717881
 21
25.00580116250204
 31
0.0
  0
LINE
  5
C0D8
330
C16B
100
AcDbEntity
  8
Level 50
  6
Continuous
 62
     7
370
     0
100
AcDbLine
 10
35.80124436411104
 20
23.11940505943413
 30
0.0
 11
35.80124436411104
 21
22.31940505943413
 31
0.0
  0
LINE
  5
C0DA
330
C16B
100
AcDbEntity
  8
Level 50
  6
Continuous
 62
     7
370
     0
100
AcDbLine
 10
35.80124436411104
 20
22.31940505943413
 30
0.0
 11
35.23555893916178
 21
22.88509048438335
 31
0.0
  0
LINE
  5
C0DC
330
C16B
100
AcDbEntity
  8
Level 50
  6
Continuous
 62
     7
370
     0
100
AcDbLine
 10
35.22624436411101
 20
17.84440505943415
 30
0.0
 11
36.12624436411096
 21
17.84440505943415
 31
0.0
  0
LINE
  5
C0DE
330
C16B
100
AcDbEntity
  8
Level 50
  6
Continuous
 62
     7
370
     0
100
AcDbLine
 10
35.22624436411101
 20
17.84440505943415
 30
0.0
 11
35.86264046717889
 21
18.48080116250202
 31
0.0
  0
LINE
  5
C0E0
330
C16B
100
AcDbEntity
  8
Level 50
  6
Continuous
 62
     7
370
     0
100
AcDbLine
 10
36.67624436411104
 20
17.84440505943415
 30
0.0
 11
37.31264046717891
 21
18.48080116250202
 31
0.0
  0
LINE
  5
C0E2
330
C16B
100
AcDbEntity
  8
Level 50
  6
Continuous
 62
     7
370
     0
100
AcDbLine
 10
36.67624436411104
 20
17.84440505943415
 30
0.0
 11
37.57624436411098
 21
17.84440505943415
 31
0.0
  0
LINE
  5
C0E3
330
C16B
100
AcDbEntity
  8
Level 50
  6
Continuous
 62
     7
370
     0
100
AcDbLine
 10
34.05124436411097
 20
20.69940505943411
 30
0.0
 11
34.05124436411097
 21
19.0994050594341
 31
0.0
  0
LINE
  5
C0E7
330
C16B
100
AcDbEntity
  8
Level 50
  6
Continuous
 62
     7
370
     0
100
AcDbLine
 10
34.05124436411097
 20
20.69940505943411
 30
0.0
 11
34.7583511452975
 21
19.99229827824757
 31
0.0
  0
LINE
  5
C0E8
330
C16B
100
AcDbEntity
  8
Level 50
  6
Continuous
 62
     7
370
     0
100
AcDbLine
 10
34.47550843282289
 20
19.52366912814605
 30
0.0
 11
34.05124436411097
 21
19.0994050594341
 31
0.0
  0
LINE
  5
C0EF
330
C16B
100
AcDbEntity
  8
Level 50
  6
Continuous
 62
     7
370
     0
100
AcDbLine
 10
38.77624436411102
 20
20.77940505943413
 30
0.0
 11
38.77624436411102
 21
19.17940505943413
 31
0.0
  0
LINE
  5
C0F0
330
C16B
100
AcDbEntity
  8
Level 50
  6
Continuous
 62
     7
370
     0
100
AcDbLine
 10
38.77624436411102
 20
20.77940505943413
 30
0.0
 11
39.48335114529755
 21
20.0722982782476
 31
0.0
  0
LINE
  5
C0F1
330
C16B
100
AcDbEntity
  8
Level 50
  6
Continuous
 62
     7
370
     0
100
AcDbLine
 10
39.20050843282295
 20
19.60366912814608
 30
0.0
 11
38.77624436411102
 21
19.17940505943413
 31
0.0
  0
LINE
  5
C0F4
330
C16B
100
AcDbEntity
  8
Level 50
  6
Continuous
 62
     7
370
     0
100
AcDbLine
 10
39.77624436411102
 20
21.2094050594341
 30
0.0
 11
40.97624436411101
 21
21.2094050594341
 31
0.0
  0
LINE
  5
C0F8
330
C16B
100
AcDbEntity
  8
Level 50
  6
Continuous
 62
     7
370
     0
100
AcDbLine
 10
40.97624436411101
 20
21.2094050594341
 30
0.0
 11
40.3398482610431
 21
20.57300895636618
 31
0.0
  0
LINE
  5
C0F9
330
C16B
100
AcDbEntity
  8
Level 50
  6
Continuous
 62
     7
370
     0
100
AcDbLine
 10
39.77624436411102
 20
21.2094050594341
 30
0.0
 11
39.98837639846693
 21
20.99727302507817
 31
0.0
  0
LINE
  5
C9B8
330
C16B
100
AcDbEntity
  8
Level 50
  6
Continuous
 62
     7
370
    13
100
AcDbLine
 10
4.186244364110905
 20
16.60940505943415
 30
0.0
 11
4.286244364110928
 21
16.60940505943415
 31
0.0
  0
LINE
  5
C9B9
330
C16B
100
AcDbEntity
  8
Level 50
  6
Continuous
 62
     7
370
    13
100
AcDbLine
 10
4.286244364110928
 20
16.60940505943415
 30
0.0
 11
4.286244364110928
 21
16.50940505943416
 31
0.0
  0
LINE
  5
C9BA
330
C16B
100
AcDbEntity
  8
Level 50
  6
Continuous
 62
     7
370
    13
100
AcDbLine
 10
4.286244364110928
 20
16.50940505943416
 30
0.0
 11
4.186244364110905
 21
16.50940505943416
 31
0.0
  0
LINE
  5
C9BB
330
C16B
100
AcDbEntity
  8
Level 50
  6
Continuous
 62
     7
370
    13
100
AcDbLine
 10
4.186244364110905
 20
16.50940505943416
 30
0.0
 11
4.186244364110905
 21
16.60940505943415
 31
0.0
  0
LINE
  5
C9BC
330
C16B
100
AcDbEntity
  8
Level 50
  6
Continuous
 62
     7
370
    13
100
AcDbLine
 10
4.186244364110905
 20
16.60940505943415
 30
0.0
 11
4.186244364110905
 21
16.60940505943415
 31
0.0
  0
LINE
  5
C9BD
330
C16B
100
AcDbEntity
  8
Level 50
  6
Continuous
 62
     7
370
    13
100
AcDbLine
 10
6.876244364110902
 20
16.60940505943415
 30
0.0
 11
6.976244364110924
 21
16.60940505943415
 31
0.0
  0
LINE
  5
C9BE
330
C16B
100
AcDbEntity
  8
Level 50
  6
Continuous
 62
     7
370
    13
100
AcDbLine
 10
6.976244364110924
 20
16.60940505943415
 30
0.0
 11
6.976244364110924
 21
16.50940505943416
 31
0.0
  0
LINE
  5
C9BF
330
C16B
100
AcDbEntity
  8
Level 50
  6
Continuous
 62
     7
370
    13
100
AcDbLine
 10
6.976244364110924
 20
16.50940505943416
 30
0.0
 11
6.876244364110902
 21
16.50940505943416
 31
0.0
  0
LINE
  5
C9C0
330
C16B
100
AcDbEntity
  8
Level 50
  6
Continuous
 62
     7
370
    13
100
AcDbLine
 10
6.876244364110902
 20
16.50940505943416
 30
0.0
 11
6.876244364110902
 21
16.60940505943415
 31
0.0
  0
LINE
  5
C9C1
330
C16B
100
AcDbEntity
  8
Level 50
  6
Continuous
 62
     7
370
    13
100
AcDbLine
 10
6.876244364110902
 20
16.60940505943415
 30
0.0
 11
6.876244364110902
 21
16.60940505943415
 31
0.0
  0
LINE
  5
C9C2
330
C16B
100
AcDbEntity
  8
Level 50
  6
Continuous
 62
     7
370
    13
100
AcDbLine
 10
6.876244364110902
 20
14.21940505943415
 30
0.0
 11
6.976244364110924
 21
14.21940505943415
 31
0.0
  0
LINE
  5
C9C3
330
C16B
100
AcDbEntity
  8
Level 50
  6
Continuous
 62
     7
370
    13
100
AcDbLine
 10
6.976244364110924
 20
14.21940505943415
 30
0.0
 11
6.976244364110924
 21
14.11940505943416
 31
0.0
  0
LINE
  5
C9C4
330
C16B
100
AcDbEntity
  8
Level 50
  6
Continuous
 62
     7
370
    13
100
AcDbLine
 10
6.976244364110924
 20
14.11940505943416
 30
0.0
 11
6.876244364110902
 21
14.11940505943416
 31
0.0
  0
LINE
  5
C9C5
330
C16B
100
AcDbEntity
  8
Level 50
  6
Continuous
 62
     7
370
    13
100
AcDbLine
 10
6.876244364110902
 20
14.11940505943416
 30
0.0
 11
6.876244364110902
 21
14.21940505943415
 31
0.0
  0
LINE
  5
C9C6
330
C16B
100
AcDbEntity
  8
Level 50
  6
Continuous
 62
     7
370
    13
100
AcDbLine
 10
6.876244364110902
 20
14.21940505943415
 30
0.0
 11
6.876244364110902
 21
14.21940505943415
 31
0.0
  0
LINE
  5
C9C7
330
C16B
100
AcDbEntity
  8
Level 50
  6
Continuous
 62
     7
370
    13
100
AcDbLine
 10
4.686244364110962
 20
16.60940505943415
 30
0.0
 11
4.786244364110983
 21
16.60940505943415
 31
0.0
  0
LINE
  5
C9C8
330
C16B
100
AcDbEntity
  8
Level 50
  6
Continuous
 62
     7
370
    13
100
AcDbLine
 10
4.786244364110983
 20
16.60940505943415
 30
0.0
 11
4.786244364110983
 21
16.50940505943416
 31
0.0
  0
LINE
  5
C9C9
330
C16B
100
AcDbEntity
  8
Level 50
  6
Continuous
 62
     7
370
    13
100
AcDbLine
 10
4.786244364110983
 20
16.50940505943416
 30
0.0
 11
4.686244364110962
 21
16.50940505943416
 31
0.0
  0
LINE
  5
C9CA
330
C16B
100
AcDbEntity
  8
Level 50
  6
Continuous
 62
     7
370
    13
100
AcDbLine
 10
4.686244364110962
 20
16.50940505943416
 30
0.0
 11
4.686244364110962
 21
16.60940505943415
 31
0.0
  0
LINE
  5
C9CB
330
C16B
100
AcDbEntity
  8
Level 50
  6
Continuous
 62
     7
370
    13
100
AcDbLine
 10
4.686244364110962
 20
16.60940505943415
 30
0.0
 11
4.686244364110962
 21
16.60940505943415
 31
0.0
  0
LINE
  5
C9CC
330
C16B
100
AcDbEntity
  8
Level 50
  6
Continuous
 62
     7
370
    13
100
AcDbLine
 10
6.186244364110963
 20
16.60940505943415
 30
0.0
 11
6.286244364110983
 21
16.60940505943415
 31
0.0
  0
LINE
  5
C9CD
330
C16B
100
AcDbEntity
  8
Level 50
  6
Continuous
 62
     7
370
    13
100
AcDbLine
 10
6.286244364110983
 20
16.60940505943415
 30
0.0
 11
6.286244364110983
 21
16.50940505943416
 31
0.0
  0
LINE
  5
C9CE
330
C16B
100
AcDbEntity
  8
Level 50
  6
Continuous
 62
     7
370
    13
100
AcDbLine
 10
6.286244364110983
 20
16.50940505943416
 30
0.0
 11
6.186244364110963
 21
16.50940505943416
 31
0.0
  0
LINE
  5
C9CF
330
C16B
100
AcDbEntity
  8
Level 50
  6
Continuous
 62
     7
370
    13
100
AcDbLine
 10
6.186244364110963
 20
16.50940505943416
 30
0.0
 11
6.186244364110963
 21
16.60940505943415
 31
0.0
  0
LINE
  5
C9D0
330
C16B
100
AcDbEntity
  8
Level 50
  6
Continuous
 62
     7
370
    13
100
AcDbLine
 10
6.186244364110963
 20
16.60940505943415
 30
0.0
 11
6.186244364110963
 21
16.60940505943415
 31
0.0
  0
LINE
  5
C9D1
330
C16B
100
AcDbEntity
  8
Level 50
  6
Continuous
 62
     7
370
    13
100
AcDbLine
 10
6.876244364110902
 20
16.10940505943415
 30
0.0
 11
6.976244364110924
 21
16.10940505943415
 31
0.0
  0
LINE
  5
C9D2
330
C16B
100
AcDbEntity
  8
Level 50
  6
Continuous
 62
     7
370
    13
100
AcDbLine
 10
6.976244364110924
 20
16.10940505943415
 30
0.0
 11
6.976244364110924
 21
16.00940505943416
 31
0.0
  0
LINE
  5
C9D3
330
C16B
100
AcDbEntity
  8
Level 50
  6
Continuous
 62
     7
370
    13
100
AcDbLine
 10
6.976244364110924
 20
16.00940505943416
 30
0.0
 11
6.876244364110902
 21
16.00940505943416
 31
0.0
  0
LINE
  5
C9D4
330
C16B
100
AcDbEntity
  8
Level 50
  6
Continuous
 62
     7
370
    13
100
AcDbLine
 10
6.876244364110902
 20
16.00940505943416
 30
0.0
 11
6.876244364110902
 21
16.10940505943415
 31
0.0
  0
LINE
  5
C9D5
330
C16B
100
AcDbEntity
  8
Level 50
  6
Continuous
 62
     7
370
    13
100
AcDbLine
 10
6.876244364110902
 20
16.10940505943415
 30
0.0
 11
6.876244364110902
 21
16.10940505943415
 31
0.0
  0
LINE
  5
C9D6
330
C16B
100
AcDbEntity
  8
Level 50
  6
Continuous
 62
     7
370
    13
100
AcDbLine
 10
6.876244364110902
 20
14.60940505943415
 30
0.0
 11
6.976244364110924
 21
14.60940505943415
 31
0.0
  0
LINE
  5
C9D7
330
C16B
100
AcDbEntity
  8
Level 50
  6
Continuous
 62
     7
370
    13
100
AcDbLine
 10
6.976244364110924
 20
14.60940505943415
 30
0.0
 11
6.976244364110924
 21
14.50940505943416
 31
0.0
  0
LINE
  5
C9D8
330
C16B
100
AcDbEntity
  8
Level 50
  6
Continuous
 62
     7
370
    13
100
AcDbLine
 10
6.976244364110924
 20
14.50940505943416
 30
0.0
 11
6.876244364110902
 21
14.50940505943416
 31
0.0
  0
LINE
  5
C9D9
330
C16B
100
AcDbEntity
  8
Level 50
  6
Continuous
 62
     7
370
    13
100
AcDbLine
 10
6.876244364110902
 20
14.50940505943416
 30
0.0
 11
6.876244364110902
 21
14.60940505943415
 31
0.0
  0
LINE
  5
C9DA
330
C16B
100
AcDbEntity
  8
Level 50
  6
Continuous
 62
     7
370
    13
100
AcDbLine
 10
6.876244364110902
 20
14.60940505943415
 30
0.0
 11
6.876244364110902
 21
14.60940505943415
 31
0.0
  0
ENDSEC
  0
SECTION
  2
OBJECTS
  0
DICTIONARY
  5
C170
330
0
100
AcDbDictionary
281
     1
  3
ACAD_CIP_PREVIOUS_PRODUCT_INFO
350
C3C5
  3
ACAD_COLOR
350
C1AC
  3
ACAD_DETAILVIEWSTYLE
350
C3BB
  3
ACAD_GROUP
350
C199
  3
ACAD_IMAGE_DICT
350
C1F6
  3
ACAD_IMAGE_VARS
350
C1F9
  3
ACAD_LAST_SAVED_VERSION_INFO
350
C3C6
  3
ACAD_LAYOUT
350
C17D
  3
ACAD_MATERIAL
350
C172
  3
ACAD_MLEADERSTYLE
350
C1AF
  3
ACAD_MLINESTYLE
350
C19A
  3
ACAD_PLOTSETTINGS
350
C19B
  3
ACAD_PLOTSTYLENAME
350
C16F
  3
ACAD_SCALELIST
350
C1AD
  3
ACAD_SECTIONVIEWSTYLE
350
C3B9
  3
ACAD_TABLESTYLE
350
C1AE
  3
ACAD_VISUALSTYLE
350
C193
  3
AcadDim
350
C1E8
  3
ACDB_RECOMPOSE_DATA
350
C9E5
  3
AcDbVariableDictionary
350
C20F
  3
EZDXF_META
350
C98E
  3
MicroStation
350
C1E9
  0
DICTIONARY
  5
C186
330
C185
100
AcDbDictionary
280
     1
281
     1
  3
ACAD_LAYERFILTERS
360
C1D7
  3
ACAD_LAYERSTATES
360
C187
  0
DICTIONARY
  5
C3C7
330
C16D
100
AcDbDictionary
280
     1
281
     1
  3
ADSK_XREC_LAYER_RECONCILED
360
C3C8
  0
DICTIONARY
  5
C3CD
330
447C
100
AcDbDictionary
280
     1
281
     1
  3
ADSK_XREC_LAYER_RECONCILED
360
C3CE
  0
DICTIONARY
  5
C3CF
330
447D
100
AcDbDictionary
280
     1
281
     1
  3
ADSK_XREC_LAYER_RECONCILED
360
C3D0
  0
DICTIONARY
  5
C1FE
330
C16B
100
AcDbDictionary
280
     1
281
     1
  3
ACAD_SORTENTS
360
C1FF
  0
XRECORD
  5
C3C5
102
{ACAD_REACTORS
330
C170
102
}
330
C170
100
AcDbXrecord
280
     1
300
ACD
300
2026
300
88023ACD_2026_0F
  0
DICTIONARY
  5
C1AC
102
{ACAD_REACTORS
330
C170
102
}
330
C170
100
AcDbDictionary
281
     1
  3
Standard$black
350
C1F4
  0
DICTIONARY
  5
C3BB
102
{ACAD_REACTORS
330
C170
102
}
330
C170
100
AcDbDictionary
281
     1
  3
Imperial24
350
C3BC
  0
DICTIONARY
  5
C199
102
{ACAD_REACTORS
330
C170
102
}
330
C170
100
AcDbDictionary
281
     1
  0
DICTIONARY
  5
C1F6
102
{ACAD_REACTORS
330
C170
102
}
330
C170
100
AcDbDictionary
281
     1
  0
RASTERVARIABLES
  5
C1F9
102
{ACAD_REACTORS
330
C170
102
}
330
C170
100
AcDbRasterVariables
 90
        0
 70
     1
 71
     1
 72
     3
  0
XRECORD
  5
C3C6
102
{ACAD_REACTORS
330
C170
102
}
330
C170
100
AcDbXrecord
280
     1
300
{0B9E7541-8814-404C-8140-A64CD0575721}
301
{D3CE042C-8847-F148-8D28-37B0223B6713}
302
{0B9E7541-8814-404C-8140-A64CD0575721}
303
C:\YandexDisk\Studies\_03_Maga\0_Diplom\Diplom\Dataset\sources\geometry_only\28_geometry_only.dxf
  0
DICTIONARY
  5
C17D
102
{ACAD_REACTORS
330
C170
102
}
330
C170
100
AcDbDictionary
281
     1
  3
Layout1
350
C181
  3
Model
350
C17C
  0
DICTIONARY
  5
C172
102
{ACAD_REACTORS
330
C170
102
}
330
C170
100
AcDbDictionary
281
     1
  3
ByBlock
350
C1A4
  3
ByLayer
350
C19C
  3
Global
350
C171
  0
DICTIONARY
  5
C1AF
102
{ACAD_REACTORS
330
C170
102
}
330
C170
100
AcDbDictionary
281
     1
  3
Standard
350
C228
  0
DICTIONARY
  5
C19A
102
{ACAD_REACTORS
330
C170
102
}
330
C170
100
AcDbDictionary
281
     1
  3
Standard
350
C1B0
  0
DICTIONARY
  5
C19B
102
{ACAD_REACTORS
330
C170
102
}
330
C170
100
AcDbDictionary
281
     1
  0
ACDBDICTIONARYWDFLT
  5
C16F
102
{ACAD_REACTORS
330
C170
102
}
330
C170
100
AcDbDictionary
281
     1
  3
Normal
350
C16E
100
AcDbDictionaryWithDefault
340
C16E
  0
DICTIONARY
  5
C1AD
102
{ACAD_REACTORS
330
C170
102
}
330
C170
100
AcDbDictionary
281
     1
  3
A0
350
C1B4
  3
A1
350
C1B5
  3
A2
350
C1B6
  3
A3
350
C1B7
  3
A4
350
C1B8
  3
A5
350
C1B9
  3
A6
350
C1BA
  3
A7
350
C1BB
  3
A8
350
C1BC
  3
A9
350
C1BD
  3
B0
350
C1BE
  3
B1
350
C1BF
  3
B2
350
C1C0
  3
B3
350
C1C1
  3
B4
350
C1C2
  3
B5
350
C1C3
  3
B6
350
C1C4
  3
B7
350
C1C5
  3
B8
350
C1C6
  3
B9
350
C1C7
  3
C0
350
C1C8
  3
C1
350
C1C9
  3
C2
350
C1CA
  3
C3
350
C1CB
  3
C4
350
C1CC
  3
C5
350
C1CD
  3
C6
350
C1CE
  3
C7
350
C1CF
  3
C8
350
C1D0
  3
C9
350
C1D1
  3
D0
350
C1D2
  3
D1
350
C1D3
  3
D2
350
C1D4
  0
DICTIONARY
  5
C3B9
102
{ACAD_REACTORS
330
C170
102
}
330
C170
100
AcDbDictionary
281
     1
  3
Imperial24
350
C3BA
  0
DICTIONARY
  5
C1AE
102
{ACAD_REACTORS
330
C170
102
}
330
C170
100
AcDbDictionary
281
     1
  3
Standard
350
C1B1
  0
DICTIONARY
  5
C193
102
{ACAD_REACTORS
330
C170
102
}
330
C170
100
AcDbDictionary
281
     1
  3
2dWireframe
350
C192
  3
3D Hidden
350
C21D
  3
3dWireframe
350
C1B3
  3
Basic
350
C21C
  3
Brighten
350
C220
  3
ColorChange
350
C224
  3
Conceptual
350
C21E
  3
Dim
350
C21F
  3
EdgeColorOff
350
C227
  3
Facepattern
350
C223
  3
Flat
350
C218
  3
FlatWithEdges
350
C219
  3
Gouraud
350
C21A
  3
GouraudWithEdges
350
C21B
  3
Hidden
350
C3B3
  3
JitterOff
350
C225
  3
Linepattern
350
C222
  3
OverhangOff
350
C226
  3
Realistic
350
C1B2
  3
Shaded
350
C3B8
  3
Shaded with edges
350
C3B7
  3
Shades of Gray
350
C3B4
  3
Sketchy
350
C3B5
  3
Thicken
350
C221
  3
Wireframe
350
C3B2
  3
X-Ray
350
C3B6
  0
XRECORD
  5
C1E8
102
{ACAD_REACTORS
330
C170
102
}
330
C170
100
AcDbXrecord
280
     1
 90
   990106
  3
 
 60
     0
 61
     0
 62
     1
 63
     1
 64
     0
 65
     0
 66
     0
 67
     3
 68
     1
 69
     1
 70
     0
 71
     0
 72
     0
 40
0.0
170
     0
  0
XRECORD
  5
C9E5
102
{ACAD_REACTORS
330
C170
102
}
330
C170
100
AcDbXrecord
280
     1
 90
        1
330
C1B1
  0
DICTIONARY
  5
C20F
102
{ACAD_REACTORS
330
C170
102
}
330
C170
100
AcDbDictionary
281
     1
  3
CANNOSCALE
350
C213
  3
CMLEADERSTYLE
350
C211
  3
CTABLESTYLE
350
C210
  3
CVIEWDETAILSTYLE
350
C6A2
  3
CVIEWSECTIONSTYLE
350
C6A3
  3
LAYEREVAL
350
C215
  3
LAYERNOTIFY
350
C216
  3
LIGHTINGUNITS
350
C214
  3
MSLTSCALE
350
C212
  0
DICTIONARY
  5
C98E
330
C170
100
AcDbDictionary
280
     1
281
     1
  3
WRITTEN_BY_EZDXF
360
C98F
  0
DICTIONARY
  5
C1E9
102
{ACAD_REACTORS
330
C170
102
}
330
C170
100
AcDbDictionary
281
     1
  0
DICTIONARY
  5
C1D7
102
{ACAD_REACTORS
330
C186
102
}
330
C186
100
AcDbDictionary
281
     1
  0
DICTIONARY
  5
C187
102
{ACAD_REACTORS
330
C186
102
}
330
C186
100
AcDbDictionary
281
     1
  0
XRECORD
  5
C3C8
102
{ACAD_REACTORS
330
C3C7
102
}
330
C3C7
100
AcDbXrecord
280
     1
290
     1
  0
XRECORD
  5
C3CE
102
{ACAD_REACTORS
330
C3CD
102
}
330
C3CD
100
AcDbXrecord
280
     1
290
     1
  0
XRECORD
  5
C3D0
102
{ACAD_REACTORS
330
C3CF
102
}
330
C3CF
100
AcDbXrecord
280
     1
290
     1
  0
SORTENTSTABLE
  5
C1FF
102
{ACAD_REACTORS
330
C1FE
102
}
330
C1FE
100
AcDbSortentsTable
330
C16B
331
BF29
  5
8828
331
BF2A
  5
8829
331
BF2C
  5
89DE
331
BF2D
  5
89E1
331
BF2E
  5
89E2
331
BF2F
  5
B17F
331
BF30
  5
B180
331
BF31
  5
B4D4
331
BF32
  5
BF23
331
BF33
  5
BF24
331
BF36
  5
BF29
331
BF41
  5
BF2A
331
BF42
  5
BF2C
331
BF43
  5
BF2D
331
BF44
  5
BF2E
331
BF45
  5
BF2F
331
BF46
  5
BF30
331
BF47
  5
BF31
331
BF48
  5
BF32
331
BF4A
  5
BF33
331
BF4D
  5
BF36
331
BF4E
  5
BF37
331
BF4F
  5
BF41
331
BF50
  5
BF42
331
BF51
  5
BF43
331
BF52
  5
BF44
331
BF53
  5
BF45
331
BF54
  5
BF46
331
BF55
  5
BF47
331
BF56
  5
BF48
331
BF57
  5
BF4A
331
BF58
  5
BF4D
331
BF59
  5
BF4E
331
BF5A
  5
BF4F
331
BF5B
  5
BF50
331
BF5C
  5
BF51
331
BF5D
  5
BF52
331
BF5E
  5
BF53
331
BF5F
  5
BF54
331
BF60
  5
BF55
331
BF61
  5
BF56
331
BF62
  5
BF57
331
BF63
  5
BF58
331
BF64
  5
BF59
331
BF65
  5
BF5A
331
BF66
  5
BF5B
331
BF67
  5
BF5C
331
BF68
  5
BF5D
331
BF69
  5
BF5E
331
BF6A
  5
BF5F
331
BF6B
  5
BF60
331
BF6C
  5
BF61
331
BF6D
  5
BF62
331
BF70
  5
BF63
331
BF71
  5
BF64
331
BF72
  5
BF65
331
BF73
  5
BF66
331
BF74
  5
BF67
331
BF75
  5
BF68
331
BF76
  5
BF69
331
BF77
  5
BF6A
331
BF78
  5
BF6B
331
BF79
  5
BF6C
331
BF7A
  5
BF6D
331
BF7B
  5
BF70
331
BF7C
  5
BF71
331
BF7D
  5
BF72
331
BF7F
  5
BF73
331
BF80
  5
BF74
331
BF81
  5
BF75
331
BF83
  5
BF76
331
BF84
  5
BF77
331
BF89
  5
BF78
331
C06B
  5
BF79
331
C06C
  5
BF7A
331
C06D
  5
BF7B
331
C06E
  5
BF7C
331
C06F
  5
BF7D
331
C070
  5
BF7F
331
C071
  5
BF80
331
C072
  5
BF81
331
C073
  5
BF83
331
C074
  5
BF84
331
C075
  5
BF89
331
C076
  5
C06B
331
C077
  5
C06C
331
C078
  5
C06D
331
C079
  5
C06E
331
C07A
  5
C06F
331
C07B
  5
C070
331
C07C
  5
C071
331
C07D
  5
C072
331
C07E
  5
C073
331
C080
  5
C074
331
C082
  5
C075
331
C083
  5
C076
331
C085
  5
C077
331
C086
  5
C078
331
C087
  5
C079
331
C088
  5
C07A
331
C089
  5
C07B
331
C08A
  5
C07C
331
C08C
  5
C07D
331
C08D
  5
C07E
331
C08E
  5
C080
331
C08F
  5
C082
331
C090
  5
C083
331
C091
  5
C085
331
C093
  5
C086
331
C094
  5
C087
331
C095
  5
C088
331
C096
  5
C089
331
C097
  5
C08A
331
C09A
  5
C08E
331
C09B
  5
C08F
331
C0A3
  5
C096
331
C0A4
  5
C097
331
C0A9
  5
C09A
331
C0AA
  5
C09B
331
C0AB
  5
C09C
331
C0AC
  5
C09D
331
C0AD
  5
C09E
331
C0AE
  5
C0A0
331
C0AF
  5
C0A2
331
C0B0
  5
C0A3
331
C0B1
  5
C0A4
331
C0B7
  5
C0A7
331
C0B8
  5
C0A8
331
C0BF
  5
C0AB
331
C0C0
  5
C0AC
331
C0C1
  5
C0AD
331
C0C4
  5
C0B0
331
C0C5
  5
C0B1
331
C0C6
  5
C0B7
331
C0C9
  5
C0BE
331
C0CA
  5
C0BF
331
C0CB
  5
C0C0
331
C0D4
  5
C0C7
331
C0D6
  5
C0C8
331
C0D8
  5
C0CA
331
C0DA
  5
C0CB
331
C0DC
  5
C0CD
331
C0DE
  5
C0CE
331
C0E0
  5
C0D2
331
C0E2
  5
C0D4
331
C0E3
  5
C0D6
331
C0E7
  5
C0D7
331
C0E8
  5
C0D8
331
C0EF
  5
C0DC
331
C0F0
  5
C0DE
331
C0F1
  5
C0DF
331
C0F4
  5
C0E2
331
C0F8
  5
C0E3
331
C0F9
  5
C0E7
  0
DBCOLOR
  5
C1F4
102
{ACAD_REACTORS
330
C1AC
102
}
330
C1AC
100
AcDbColor
 62
    18
1001
ACAD
1000
DBColXD
1070
    18
1071
-1040187392
1000
Standard$black
1000
DBColXD
1070
    18
1071
-1040187392
1000
Standard$black
  0
ACDBDETAILVIEWSTYLE
  5
C3BC
102
{ACAD_REACTORS
330
C3BB
102
}
330
C3BB
100
AcDbModelDocViewStyle
 70
     0
  3
Imperial24
290
     0
300
Imperial24
 90
        0
100
AcDbDetailViewStyle
 70
     0
 71
     0
 90
        3
 71
     1
340
C189
 62
   256
 40
0.24
340
0
 62
   256
 40
0.24
300

 40
0.36
280
     3
 71
     2
340
C17A
 90
       25
 62
   256
 71
     3
340
C189
 62
   256
 40
0.24
 90
        1
 40
0.75
 90
        1
300
%<\AcVar ViewType \f "%tc1">% %<\AcVar ViewDetailId>%\PМАСШТАБ %<\AcVar ViewScale \f "%sn">%
 71
     4
340
C17A
 90
       25
 62
   256
340
C17A
 90
       25
 62
   256
280
     0
  0
LAYOUT
  5
C181
102
{ACAD_XDICTIONARY
360
C182
102
}
102
{ACAD_REACTORS
330
C17D
102
}
330
C17D
100
AcDbPlotSettings
  1

  2
none_device
  4
Letter_(8.50_x_11.00_Inches)
  6

 40
6.349999904632567
 41
6.349999904632567
 42
6.350006103515625
 43
6.350006103515625
 44
215.8999938964844
 45
279.3999938964844
 46
0.0
 47
0.0
 48
0.0
 49
0.0
140
0.0
141
0.0
142
1.0
143
1.0
 70
   688
 72
     0
 73
     1
 74
     5
  7

 75
    16
147
1.0
 76
     0
 77
     2
 78
   300
148
0.0
149
0.0
100
AcDbLayout
  1
Layout1
 70
     0
 71
     1
 10
-0.2500002402958907
 20
-0.2499999962453767
 11
10.74999951940821
 21
8.249999763458731
 12
0.0
 22
0.0
 32
0.0
 14
1.049743681505489
 24
0.7996673802841308
 34
-0.0015258207003583
 15
9.450622583565561
 25
7.200576801086516
 35
0.0000000349246037
146
0.0
 13
0.0
 23
0.0
 33
0.0
 16
1.0
 26
0.0
 36
0.0
 17
0.0
 27
1.0
 37
0.0
 76
     0
330
C17E
1001
ACAD_PSEXT
1000
None
1000
None
1000
Not applicable
1000
The layout will not be plotted unless a new plotter configuration name is selected.
1070
     0
  0
LAYOUT
  5
C17C
102
{ACAD_REACTORS
330
C17D
102
}
330
C17D
100
AcDbPlotSettings
  1

  2
none_device
  4
ANSI_A_(8.50_x_11.00_Inches)
  6

 40
6.349999904632567
 41
19.04999923706055
 42
6.350006103515625
 43
19.04998779296875
 44
215.8999938964844
 45
279.3999938964844
 46
0.0
 47
0.0
 48
0.0
 49
0.0
140
0.0
141
0.0
142
1.0
143
2.584895464708373
 70
 11952
 72
     0
 73
     1
 74
     0
  7

 75
     0
147
0.3868628397755418
 76
     0
 77
     2
 78
   300
148
0.0
149
0.0
100
AcDbLayout
  1
Model
 70
     1
 71
     0
 10
0.0
 20
0.0
 11
12.0
 21
9.0
 12
0.0
 22
0.0
 32
0.0
 14
0.0
 24
0.0
 34
0.0
 15
0.0
 25
0.0
 35
0.0
146
0.0
 13
0.0
 23
0.0
 33
0.0
 16
1.0
 26
0.0
 36
0.0
 17
0.0
 27
1.0
 37
0.0
 76
     0
330
C16B
331
4B
  0
MATERIAL
  5
C1A4
102
{ACAD_XDICTIONARY
360
C1A5
102
}
102
{ACAD_REACTORS
330
C172
102
}
330
C172
100
AcDbMaterial
  1
ByBlock
 91
-1023410177
 73
     1
 43
0.0208333333333333
 43
0.0
 43
0.0
 43
0.0
 43
0.0
 43
0.0208333333333333
 43
0.0
 43
0.0
 43
0.0
 43
0.0
 43
1.0
 43
0.0
 43
0.0
 43
0.0
 43
0.0
 43
1.0
 78
     1
 47
0.0208333333333333
 47
0.0
 47
0.0
 47
0.0
 47
0.0
 47
0.0208333333333333
 47
0.0
 47
0.0
 47
0.0
 47
0.0
 47
1.0
 47
0.0
 47
0.0
 47
0.0
 47
0.0
 47
1.0
172
     1
 49
0.0208333333333333
 49
0.0
 49
0.0
 49
0.0
 49
0.0
 49
0.0208333333333333
 49
0.0
 49
0.0
 49
0.0
 49
0.0
 49
1.0
 49
0.0
 49
0.0
 49
0.0
 49
0.0
 49
1.0
176
     1
142
0.0208333333333333
142
0.0
142
0.0
142
0.0
142
0.0
142
0.0208333333333333
142
0.0
142
0.0
142
0.0
142
0.0
142
1.0
142
0.0
142
0.0
142
0.0
142
0.0
142
1.0
270
     1
144
0.0208333333333333
144
0.0
144
0.0
144
0.0
144
0.0
144
0.0208333333333333
144
0.0
144
0.0
144
0.0
144
0.0
144
1.0
144
0.0
144
0.0
144
0.0
144
0.0
144
1.0
273
     1
274
     1
147
0.0208333333333333
147
0.0
147
0.0
147
0.0
147
0.0
147
0.0208333333333333
147
0.0
147
0.0
147
0.0
147
0.0
147
1.0
147
0.0
147
0.0
147
0.0
147
0.0
147
1.0
 94
       63
  0
MATERIAL
  5
C19C
102
{ACAD_XDICTIONARY
360
C19D
102
}
102
{ACAD_REACTORS
330
C172
102
}
330
C172
100
AcDbMaterial
  1
ByLayer
 91
-1023410177
 73
     1
 43
0.0208333333333333
 43
0.0
 43
0.0
 43
0.0
 43
0.0
 43
0.0208333333333333
 43
0.0
 43
0.0
 43
0.0
 43
0.0
 43
1.0
 43
0.0
 43
0.0
 43
0.0
 43
0.0
 43
1.0
 78
     1
 47
0.0208333333333333
 47
0.0
 47
0.0
 47
0.0
 47
0.0
 47
0.0208333333333333
 47
0.0
 47
0.0
 47
0.0
 47
0.0
 47
1.0
 47
0.0
 47
0.0
 47
0.0
 47
0.0
 47
1.0
172
     1
 49
0.0208333333333333
 49
0.0
 49
0.0
 49
0.0
 49
0.0
 49
0.0208333333333333
 49
0.0
 49
0.0
 49
0.0
 49
0.0
 49
1.0
 49
0.0
 49
0.0
 49
0.0
 49
0.0
 49
1.0
176
     1
142
0.0208333333333333
142
0.0
142
0.0
142
0.0
142
0.0
142
0.0208333333333333
142
0.0
142
0.0
142
0.0
142
0.0
142
1.0
142
0.0
142
0.0
142
0.0
142
0.0
142
1.0
270
     1
144
0.0208333333333333
144
0.0
144
0.0
144
0.0
144
0.0
144
0.0208333333333333
144
0.0
144
0.0
144
0.0
144
0.0
144
1.0
144
0.0
144
0.0
144
0.0
144
0.0
144
1.0
273
     1
274
     1
147
0.0208333333333333
147
0.0
147
0.0
147
0.0
147
0.0
147
0.0208333333333333
147
0.0
147
0.0
147
0.0
147
0.0
147
1.0
147
0.0
147
0.0
147
0.0
147
0.0
147
1.0
 94
       63
  0
MATERIAL
  5
C171
102
{ACAD_XDICTIONARY
360
C173
102
}
102
{ACAD_REACTORS
330
C172
102
}
330
C172
100
AcDbMaterial
  1
Global
 91
-1023410177
 73
     1
 43
0.0208333333333333
 43
0.0
 43
0.0
 43
0.0
 43
0.0
 43
0.0208333333333333
 43
0.0
 43
0.0
 43
0.0
 43
0.0
 43
1.0
 43
0.0
 43
0.0
 43
0.0
 43
0.0
 43
1.0
 78
     1
 47
0.0208333333333333
 47
0.0
 47
0.0
 47
0.0
 47
0.0
 47
0.0208333333333333
 47
0.0
 47
0.0
 47
0.0
 47
0.0
 47
1.0
 47
0.0
 47
0.0
 47
0.0
 47
0.0
 47
1.0
172
     1
 49
0.0208333333333333
 49
0.0
 49
0.0
 49
0.0
 49
0.0
 49
0.0208333333333333
 49
0.0
 49
0.0
 49
0.0
 49
0.0
 49
1.0
 49
0.0
 49
0.0
 49
0.0
 49
0.0
 49
1.0
176
     1
142
0.0208333333333333
142
0.0
142
0.0
142
0.0
142
0.0
142
0.0208333333333333
142
0.0
142
0.0
142
0.0
142
0.0
142
1.0
142
0.0
142
0.0
142
0.0
142
0.0
142
1.0
270
     1
144
0.0208333333333333
144
0.0
144
0.0
144
0.0
144
0.0
144
0.0208333333333333
144
0.0
144
0.0
144
0.0
144
0.0
144
1.0
144
0.0
144
0.0
144
0.0
144
0.0
144
1.0
273
     1
274
     1
147
0.0208333333333333
147
0.0
147
0.0
147
0.0
147
0.0
147
0.0208333333333333
147
0.0
147
0.0
147
0.0
147
0.0
147
1.0
147
0.0
147
0.0
147
0.0
147
0.0
147
1.0
 94
       63
  0
MLEADERSTYLE
  5
C228
102
{ACAD_REACTORS
330
C1AF
102
}
330
C1AF
100
AcDbMLeaderStyle
179
     2
170
     2
171
     1
172
     0
 90
        2
 40
0.0
 41
0.0
173
     1
 91
-1056964608
340
C18C
 92
       -2
290
     1
 42
0.09
291
     1
 43
0.36
  3
Standard
 44
0.18
300

342
C189
174
     1
178
     6
175
     1
176
     0
 93
-1056964608
 45
0.18
292
     0
297
     0
 46
0.18
 94
-1056964608
 47
1.0
 49
1.0
140
1.0
293
     1
141
0.0
294
     1
177
     0
142
1.0
295
     0
296
     0
143
0.125
271
     0
272
     9
273
     9
298
     0
  0
MLINESTYLE
  5
C1B0
102
{ACAD_REACTORS
330
C19A
102
}
330
C19A
100
AcDbMlineStyle
  2
STANDARD
 70
     0
  3

 62
   256
 51
90.0
 52
90.0
 71
     2
 49
0.5
 62
   256
  6
BYLAYER
 49
-0.5
 62
   256
  6
BYLAYER
  0
ACDBPLACEHOLDER
  5
C16E
102
{ACAD_REACTORS
330
C16F
102
}
330
C16F
  0
SCALE
  5
C1B4
102
{ACAD_REACTORS
330
C1AD
102
}
330
C1AD
100
AcDbScale
 70
     0
300
1:1
140
1.0
141
1.0
290
     1
  0
SCALE
  5
C1B5
102
{ACAD_REACTORS
330
C1AD
102
}
330
C1AD
100
AcDbScale
 70
     0
300
1:2
140
1.0
141
2.0
290
     0
  0
SCALE
  5
C1B6
102
{ACAD_REACTORS
330
C1AD
102
}
330
C1AD
100
AcDbScale
 70
     0
300
1:4
140
1.0
141
4.0
290
     0
  0
SCALE
  5
C1B7
102
{ACAD_REACTORS
330
C1AD
102
}
330
C1AD
100
AcDbScale
 70
     0
300
1:5
140
1.0
141
5.0
290
     0
  0
SCALE
  5
C1B8
102
{ACAD_REACTORS
330
C1AD
102
}
330
C1AD
100
AcDbScale
 70
     0
300
1:8
140
1.0
141
8.0
290
     0
  0
SCALE
  5
C1B9
102
{ACAD_REACTORS
330
C1AD
102
}
330
C1AD
100
AcDbScale
 70
     0
300
1:10
140
1.0
141
10.0
290
     0
  0
SCALE
  5
C1BA
102
{ACAD_REACTORS
330
C1AD
102
}
330
C1AD
100
AcDbScale
 70
     0
300
1:16
140
1.0
141
16.0
290
     0
  0
SCALE
  5
C1BB
102
{ACAD_REACTORS
330
C1AD
102
}
330
C1AD
100
AcDbScale
 70
     0
300
1:20
140
1.0
141
20.0
290
     0
  0
SCALE
  5
C1BC
102
{ACAD_REACTORS
330
C1AD
102
}
330
C1AD
100
AcDbScale
 70
     0
300
1:30
140
1.0
141
30.0
290
     0
  0
SCALE
  5
C1BD
102
{ACAD_REACTORS
330
C1AD
102
}
330
C1AD
100
AcDbScale
 70
     0
300
1:40
140
1.0
141
40.0
290
     0
  0
SCALE
  5
C1BE
102
{ACAD_REACTORS
330
C1AD
102
}
330
C1AD
100
AcDbScale
 70
     0
300
1:50
140
1.0
141
50.0
290
     0
  0
SCALE
  5
C1BF
102
{ACAD_REACTORS
330
C1AD
102
}
330
C1AD
100
AcDbScale
 70
     0
300
1:100
140
1.0
141
100.0
290
     0
  0
SCALE
  5
C1C0
102
{ACAD_REACTORS
330
C1AD
102
}
330
C1AD
100
AcDbScale
 70
     0
300
2:1
140
2.0
141
1.0
290
     0
  0
SCALE
  5
C1C1
102
{ACAD_REACTORS
330
C1AD
102
}
330
C1AD
100
AcDbScale
 70
     0
300
4:1
140
4.0
141
1.0
290
     0
  0
SCALE
  5
C1C2
102
{ACAD_REACTORS
330
C1AD
102
}
330
C1AD
100
AcDbScale
 70
     0
300
8:1
140
8.0
141
1.0
290
     0
  0
SCALE
  5
C1C3
102
{ACAD_REACTORS
330
C1AD
102
}
330
C1AD
100
AcDbScale
 70
     0
300
10:1
140
10.0
141
1.0
290
     0
  0
SCALE
  5
C1C4
102
{ACAD_REACTORS
330
C1AD
102
}
330
C1AD
100
AcDbScale
 70
     0
300
100:1
140
100.0
141
1.0
290
     0
  0
SCALE
  5
C1C5
102
{ACAD_REACTORS
330
C1AD
102
}
330
C1AD
100
AcDbScale
 70
     0
300
1/128" = 1'-0"
140
0.0078125
141
12.0
290
     0
  0
SCALE
  5
C1C6
102
{ACAD_REACTORS
330
C1AD
102
}
330
C1AD
100
AcDbScale
 70
     0
300
1/64" = 1'-0"
140
0.015625
141
12.0
290
     0
  0
SCALE
  5
C1C7
102
{ACAD_REACTORS
330
C1AD
102
}
330
C1AD
100
AcDbScale
 70
     0
300
1/32" = 1'-0"
140
0.03125
141
12.0
290
     0
  0
SCALE
  5
C1C8
102
{ACAD_REACTORS
330
C1AD
102
}
330
C1AD
100
AcDbScale
 70
     0
300
1/16" = 1'-0"
140
0.0625
141
12.0
290
     0
  0
SCALE
  5
C1C9
102
{ACAD_REACTORS
330
C1AD
102
}
330
C1AD
100
AcDbScale
 70
     0
300
3/32" = 1'-0"
140
0.09375
141
12.0
290
     0
  0
SCALE
  5
C1CA
102
{ACAD_REACTORS
330
C1AD
102
}
330
C1AD
100
AcDbScale
 70
     0
300
1/8" = 1'-0"
140
0.125
141
12.0
290
     0
  0
SCALE
  5
C1CB
102
{ACAD_REACTORS
330
C1AD
102
}
330
C1AD
100
AcDbScale
 70
     0
300
3/16" = 1'-0"
140
0.1875
141
12.0
290
     0
  0
SCALE
  5
C1CC
102
{ACAD_REACTORS
330
C1AD
102
}
330
C1AD
100
AcDbScale
 70
     0
300
1/4" = 1'-0"
140
0.25
141
12.0
290
     0
  0
SCALE
  5
C1CD
102
{ACAD_REACTORS
330
C1AD
102
}
330
C1AD
100
AcDbScale
 70
     0
300
3/8" = 1'-0"
140
0.375
141
12.0
290
     0
  0
SCALE
  5
C1CE
102
{ACAD_REACTORS
330
C1AD
102
}
330
C1AD
100
AcDbScale
 70
     0
300
1/2" = 1'-0"
140
0.5
141
12.0
290
     0
  0
SCALE
  5
C1CF
102
{ACAD_REACTORS
330
C1AD
102
}
330
C1AD
100
AcDbScale
 70
     0
300
3/4" = 1'-0"
140
0.75
141
12.0
290
     0
  0
SCALE
  5
C1D0
102
{ACAD_REACTORS
330
C1AD
102
}
330
C1AD
100
AcDbScale
 70
     0
300
1" = 1'-0"
140
1.0
141
12.0
290
     0
  0
SCALE
  5
C1D1
102
{ACAD_REACTORS
330
C1AD
102
}
330
C1AD
100
AcDbScale
 70
     0
300
1-1/2" = 1'-0"
140
1.5
141
12.0
290
     0
  0
SCALE
  5
C1D2
102
{ACAD_REACTORS
330
C1AD
102
}
330
C1AD
100
AcDbScale
 70
     0
300
3" = 1'-0"
140
3.0
141
12.0
290
     0
  0
SCALE
  5
C1D3
102
{ACAD_REACTORS
330
C1AD
102
}
330
C1AD
100
AcDbScale
 70
     0
300
6" = 1'-0"
140
6.0
141
12.0
290
     0
  0
SCALE
  5
C1D4
102
{ACAD_REACTORS
330
C1AD
102
}
330
C1AD
100
AcDbScale
 70
     0
300
1'-0" = 1'-0"
140
12.0
141
12.0
290
     0
  0
ACDBSECTIONVIEWSTYLE
  5
C3BA
102
{ACAD_REACTORS
330
C3B9
102
}
330
C3B9
100
AcDbModelDocViewStyle
 70
     0
  3
Imperial24
290
     0
300
Imperial24
 90
        0
100
AcDbSectionViewStyle
 70
     0
 71
     0
 90
       78
 71
     1
340
C189
 62
   256
 40
0.24
340
0
340
0
 62
   256
 40
0.24
300
I, O, Q, S, X, Z
 40
0.48
 90
        3
 40
0.18
 90
        1
 71
     2
340
C17A
 90
       25
 62
   256
340
C17A
 90
       50
 62
   256
 40
0.24
 40
0.0
 40
0.24
 71
     3
340
C189
 62
   256
 40
0.24
 90
        1
 40
0.75
 90
        1
300
%<\AcVar ViewType \f "%tc1">% %<\AcVar ViewSectionStartId>%-%<\AcVar ViewSectionEndId>%\PМАСШТАБ %<\AcVar ViewScale \f "%sn">%
 71
     4
 62
   256
 62
   257
300
ANSI31
 40
1.0
 90
        0
290
     0
290
     0
 90
        6
 40
0.0
 40
1.570796326794896
 40
0.2617993877991494
 40
1.308996938995747
 40
-0.2617993877991494
 40
1.832595714594045
  0
TABLESTYLE
  5
C1B1
102
{ACAD_XDICTIONARY
360
C206
102
}
102
{ACAD_REACTORS
330
C1AE
102
}
330
C1AE
100
AcDbTableStyle
280
     0
  3
Standard
 70
     0
 71
     0
 40
0.06
 41
0.06
280
     0
281
     0
  7
STANDARD
140
0.18
170
     2
 62
     0
 63
     7
283
     0
 90
        4
 91
        0
  1

274
    -2
284
     1
 64
     0
275
    -2
285
     1
 65
     0
276
    -2
286
     1
 66
     0
277
    -2
287
     1
 67
     0
278
    -2
288
     1
 68
     0
279
    -2
289
     1
 69
     0
  7
STANDARD
140
0.25
170
     5
 62
     0
 63
     7
283
     0
 90
        4
 91
        0
  1

274
    -2
284
     1
 64
     0
275
    -2
285
     1
 65
     0
276
    -2
286
     1
 66
     0
277
    -2
287
     1
 67
     0
278
    -2
288
     1
 68
     0
279
    -2
289
     1
 69
     0
  7
STANDARD
140
0.18
170
     5
 62
     0
 63
     7
283
     0
 90
        4
 91
        0
  1

274
    -2
284
     1
 64
     0
275
    -2
285
     1
 65
     0
276
    -2
286
     1
 66
     0
277
    -2
287
     1
 67
     0
278
    -2
288
     1
 68
     0
279
    -2
289
     1
 69
     0
  0
VISUALSTYLE
  5
C192
102
{ACAD_REACTORS
330
C193
102
}
330
C193
100
AcDbVisualStyle
  2
2dWireframe
 70
     4
177
     3
291
     0
 70
    58
 90
        0
176
     1
 90
        2
176
     1
 90
        0
176
     1
 90
        0
176
     1
 40
0.6
176
     1
 40
30.0
176
     1
 62
     7
420
 16777215
176
     1
 90
        1
176
     1
 90
        4
176
     1
 62
     7
176
     1
 62
   257
176
     1
 90
        1
176
     1
 90
        1
176
     1
 40
1.0
176
     1
 90
        0
176
     1
 62
   257
176
     1
 40
1.0
176
     1
 90
        1
176
     1
 90
        6
176
     1
 90
        2
176
     1
 62
     7
176
     1
 90
        5
176
     1
 90
        0
176
     1
 90
        0
176
     1
290
     0
176
     1
 90
        1
176
     1
 40
0.0
176
     1
 90
        0
176
     1
290
     1
176
     1
290
     1
176
     1
290
     0
176
     1
290
     0
176
     1
290
     0
176
     1
290
     0
176
     1
290
     0
176
     1
290
     0
176
     1
290
     0
176
     1
 90
       50
176
     1
 40
0.0
176
     1
 40
1.0
176
     1
 90
        0
176
     1
 62
    18
176
     1
 90
       50
176
     1
 90
        3
176
     1
 62
     5
420
      255
176
     1
290
     0
176
     1
 90
       50
176
     1
 90
       50
176
     1
 90
       50
176
     1
290
     0
176
     1
 90
       50
176
     1
 62
   256
176
     0
 40
1.0
176
     0
 90
        2
176
     1
  1
strokes_ogs.tif
176
     1
290
     0
176
     1
 40
1.0
176
     1
 40
1.0
176
     1
  0
VISUALSTYLE
  5
C21D
102
{ACAD_REACTORS
330
C193
102
}
330
C193
100
AcDbVisualStyle
  2
3D Hidden
 70
     6
177
     3
291
     0
 70
    58
 90
        1
176
     1
 90
        2
176
     1
 90
        2
176
     1
 90
        0
176
     1
 40
0.6
176
     1
 40
30.0
176
     1
 62
     7
420
 16777215
176
     1
 90
        2
176
     1
 90
        2
176
     1
 62
     7
176
     1
 62
   257
176
     1
 90
        2
176
     1
 90
        1
176
     1
 40
179.0
176
     1
 90
        0
176
     1
 62
   257
176
     1
 40
1.0
176
     1
 90
        1
176
     1
 90
        6
176
     1
 90
        2
176
     1
 62
     7
176
     1
 90
        3
176
     1
 90
        0
176
     1
 90
        0
176
     1
290
     0
176
     1
 90
        1
176
     1
 40
0.0
176
     1
 90
        0
176
     1
290
     0
176
     1
290
     1
176
     1
290
     1
176
     1
290
     0
176
     1
290
     0
176
     1
290
     0
176
     1
290
     0
176
     1
290
     0
176
     1
290
     0
176
     1
 90
       50
176
     1
 40
0.0
176
     1
 40
1.0
176
     1
 90
        0
176
     1
 62
    18
176
     1
 90
       50
176
     1
 90
        3
176
     1
 62
     5
420
      255
176
     1
290
     0
176
     1
 90
       50
176
     1
 90
       50
176
     1
 90
       50
176
     1
290
     0
176
     1
 90
       50
176
     1
 62
   256
176
     0
 40
1.0
176
     0
 90
        2
176
     1
  1
strokes_ogs.tif
176
     1
290
     0
176
     1
 40
1.0
176
     1
 40
1.0
176
     1
  0
VISUALSTYLE
  5
C1B3
102
{ACAD_REACTORS
330
C193
102
}
330
C193
100
AcDbVisualStyle
  2
3dWireframe
 70
     5
177
     3
291
     0
 70
    58
 90
        0
176
     1
 90
        2
176
     1
 90
        0
176
     1
 90
        0
176
     1
 40
0.6
176
     1
 40
30.0
176
     1
 62
     7
420
 16777215
176
     1
 90
        1
176
     1
 90
        4
176
     1
 62
     7
176
     1
 62
   257
176
     1
 90
        1
176
     1
 90
        1
176
     1
 40
1.0
176
     1
 90
        0
176
     1
 62
   257
176
     1
 40
1.0
176
     1
 90
        1
176
     1
 90
        6
176
     1
 90
        2
176
     1
 62
     7
176
     1
 90
        5
176
     1
 90
        0
176
     1
 90
        0
176
     1
290
     0
176
     1
 90
        1
176
     1
 40
0.0
176
     1
 90
        0
176
     1
290
     0
176
     1
290
     1
176
     1
290
     1
176
     1
290
     0
176
     1
290
     0
176
     1
290
     0
176
     1
290
     0
176
     1
290
     0
176
     1
290
     0
176
     1
 90
       50
176
     1
 40
0.0
176
     1
 40
1.0
176
     1
 90
        0
176
     1
 62
    18
176
     1
 90
       50
176
     1
 90
        3
176
     1
 62
     5
420
      255
176
     1
290
     0
176
     1
 90
       50
176
     1
 90
       50
176
     1
 90
       50
176
     1
290
     0
176
     1
 90
       50
176
     1
 62
   256
176
     0
 40
1.0
176
     0
 90
        2
176
     1
  1
strokes_ogs.tif
176
     1
290
     0
176
     1
 40
1.0
176
     1
 40
1.0
176
     1
  0
VISUALSTYLE
  5
C21C
102
{ACAD_REACTORS
330
C193
102
}
330
C193
100
AcDbVisualStyle
  2
Basic
 70
     7
177
     3
291
     1
 70
    58
 90
        1
176
     1
 90
        0
176
     1
 90
        1
176
     1
 90
        0
176
     1
 40
0.6
176
     1
 40
30.0
176
     1
 62
     7
420
 16777215
176
     1
 90
        0
176
     1
 90
        4
176
     1
 62
     7
176
     1
 62
   257
176
     1
 90
        1
176
     1
 90
        1
176
     1
 40
1.0
176
     1
 90
        8
176
     1
 62
     7
176
     1
 40
1.0
176
     1
 90
        1
176
     1
 90
        6
176
     1
 90
        2
176
     1
 62
     7
176
     1
 90
        5
176
     1
 90
        0
176
     1
 90
        0
176
     1
290
     0
176
     1
 90
        1
176
     1
 40
0.0
176
     1
 90
        0
176
     1
290
     0
176
     1
290
     1
176
     1
290
     1
176
     1
290
     0
176
     1
290
     0
176
     1
290
     0
176
     1
290
     0
176
     1
290
     0
176
     1
290
     0
176
     1
 90
       50
176
     1
 40
0.0
176
     1
 40
1.0
176
     1
 90
        0
176
     1
 62
    18
176
     1
 90
       50
176
     1
 90
        3
176
     1
 62
     5
420
      255
176
     1
290
     0
176
     1
 90
       50
176
     1
 90
       50
176
     1
 90
       50
176
     1
290
     0
176
     1
 90
       50
176
     1
 62
   256
176
     0
 40
1.0
176
     0
 90
        2
176
     1
  1
strokes_ogs.tif
176
     1
290
     0
176
     1
 40
1.0
176
     1
 40
1.0
176
     1
  0
VISUALSTYLE
  5
C220
102
{ACAD_REACTORS
330
C193
102
}
330
C193
100
AcDbVisualStyle
  2
Brighten
 70
    12
177
     3
291
     1
 70
    58
 90
        2
176
     1
 90
        2
176
     1
 90
        0
176
     1
 90
        0
176
     1
 40
0.6
176
     1
 40
30.0
176
     1
 62
     7
420
 16777215
176
     1
 90
        1
176
     1
 90
        4
176
     1
 62
     7
176
     1
 62
   257
176
     1
 90
        1
176
     1
 90
        1
176
     1
 40
1.0
176
     1
 90
        8
176
     1
 62
     7
176
     1
 40
1.0
176
     1
 90
        1
176
     1
 90
        6
176
     1
 90
        2
176
     1
 62
     7
176
     1
 90
        5
176
     1
 90
        0
176
     1
 90
        0
176
     1
290
     0
176
     1
 90
        1
176
     1
 40
50.0
176
     1
 90
        0
176
     1
290
     0
176
     1
290
     1
176
     1
290
     1
176
     1
290
     0
176
     1
290
     0
176
     1
290
     0
176
     1
290
     0
176
     1
290
     0
176
     1
290
     0
176
     1
 90
       50
176
     1
 40
0.0
176
     1
 40
1.0
176
     1
 90
        0
176
     1
 62
    18
176
     1
 90
       50
176
     1
 90
        3
176
     1
 62
     5
420
      255
176
     1
290
     0
176
     1
 90
       50
176
     1
 90
       50
176
     1
 90
       50
176
     1
290
     0
176
     1
 90
       50
176
     1
 62
   256
176
     0
 40
1.0
176
     0
 90
        2
176
     1
  1
strokes_ogs.tif
176
     1
290
     0
176
     1
 40
1.0
176
     1
 40
1.0
176
     1
  0
VISUALSTYLE
  5
C224
102
{ACAD_REACTORS
330
C193
102
}
330
C193
100
AcDbVisualStyle
  2
ColorChange
 70
    16
177
     3
291
     1
 70
    58
 90
        2
176
     1
 90
        2
176
     1
 90
        3
176
     1
 90
        0
176
     1
 40
0.6
176
     1
 40
30.0
176
     1
 62
     8
420
  8421504
176
     1
 90
        1
176
     1
 90
        4
176
     1
 62
     7
176
     1
 62
   257
176
     1
 90
        1
176
     1
 90
        1
176
     1
 40
1.0
176
     1
 90
        8
176
     1
 62
     8
420
  8421504
176
     1
 40
1.0
176
     1
 90
        1
176
     1
 90
        6
176
     1
 90
        2
176
     1
 62
     7
176
     1
 90
        5
176
     1
 90
        0
176
     1
 90
        0
176
     1
290
     0
176
     1
 90
        1
176
     1
 40
0.0
176
     1
 90
        0
176
     1
290
     0
176
     1
290
     1
176
     1
290
     1
176
     1
290
     0
176
     1
290
     0
176
     1
290
     0
176
     1
290
     0
176
     1
290
     0
176
     1
290
     0
176
     1
 90
       50
176
     1
 40
0.0
176
     1
 40
1.0
176
     1
 90
        0
176
     1
 62
    18
176
     1
 90
       50
176
     1
 90
        3
176
     1
 62
     5
420
      255
176
     1
290
     0
176
     1
 90
       50
176
     1
 90
       50
176
     1
 90
       50
176
     1
290
     0
176
     1
 90
       50
176
     1
 62
   256
176
     0
 40
1.0
176
     0
 90
        2
176
     1
  1
strokes_ogs.tif
176
     1
290
     0
176
     1
 40
1.0
176
     1
 40
1.0
176
     1
  0
VISUALSTYLE
  5
C21E
102
{ACAD_REACTORS
330
C193
102
}
330
C193
100
AcDbVisualStyle
  2
Conceptual
 70
     9
177
     3
291
     0
 70
    58
 90
        3
176
     1
 90
        2
176
     1
 90
        0
176
     1
 90
        0
176
     1
 40
0.6
176
     1
 40
30.0
176
     1
 62
     7
420
 16777215
176
     1
 90
        2
176
     1
 90
        2
176
     1
 62
     7
176
     1
 62
   257
176
     1
 90
        1
176
     1
 90
        1
176
     1
 40
179.0
176
     1
 90
        8
176
     1
 62
     7
176
     1
 40
1.0
176
     1
 90
        1
176
     1
 90
        6
176
     1
 90
        2
176
     1
 62
     7
176
     1
 90
        3
176
     1
 90
        0
176
     1
 90
        0
176
     1
290
     0
176
     1
 90
        1
176
     1
 40
0.0
176
     1
 90
        0
176
     1
290
     0
176
     1
290
     1
176
     1
290
     1
176
     1
290
     0
176
     1
290
     0
176
     1
290
     0
176
     1
290
     0
176
     1
290
     0
176
     1
290
     0
176
     1
 90
       50
176
     1
 40
0.0
176
     1
 40
1.0
176
     1
 90
        0
176
     1
 62
    18
176
     1
 90
       50
176
     1
 90
        3
176
     1
 62
     5
420
      255
176
     1
290
     0
176
     1
 90
       50
176
     1
 90
       50
176
     1
 90
       50
176
     1
290
     0
176
     1
 90
       50
176
     1
 62
   256
176
     0
 40
1.0
176
     0
 90
        2
176
     1
  1
strokes_ogs.tif
176
     1
290
     0
176
     1
 40
1.0
176
     1
 40
1.0
176
     1
  0
VISUALSTYLE
  5
C21F
102
{ACAD_REACTORS
330
C193
102
}
330
C193
100
AcDbVisualStyle
  2
Dim
 70
    11
177
     3
291
     1
 70
    58
 90
        2
176
     1
 90
        2
176
     1
 90
        0
176
     1
 90
        0
176
     1
 40
0.6
176
     1
 40
30.0
176
     1
 62
     7
420
 16777215
176
     1
 90
        1
176
     1
 90
        4
176
     1
 62
     7
176
     1
 62
   257
176
     1
 90
        1
176
     1
 90
        1
176
     1
 40
1.0
176
     1
 90
        8
176
     1
 62
     7
176
     1
 40
1.0
176
     1
 90
        1
176
     1
 90
        6
176
     1
 90
        2
176
     1
 62
     7
176
     1
 90
        5
176
     1
 90
        0
176
     1
 90
        0
176
     1
290
     0
176
     1
 90
        1
176
     1
 40
-50.0
176
     1
 90
        0
176
     1
290
     0
176
     1
290
     1
176
     1
290
     1
176
     1
290
     0
176
     1
290
     0
176
     1
290
     0
176
     1
290
     0
176
     1
290
     0
176
     1
290
     0
176
     1
 90
       50
176
     1
 40
0.0
176
     1
 40
1.0
176
     1
 90
        0
176
     1
 62
    18
176
     1
 90
       50
176
     1
 90
        3
176
     1
 62
     5
420
      255
176
     1
290
     0
176
     1
 90
       50
176
     1
 90
       50
176
     1
 90
       50
176
     1
290
     0
176
     1
 90
       50
176
     1
 62
   256
176
     0
 40
1.0
176
     0
 90
        2
176
     1
  1
strokes_ogs.tif
176
     1
290
     0
176
     1
 40
1.0
176
     1
 40
1.0
176
     1
  0
VISUALSTYLE
  5
C227
102
{ACAD_REACTORS
330
C193
102
}
330
C193
100
AcDbVisualStyle
  2
EdgeColorOff
 70
    22
177
     3
291
     1
 70
    58
 90
        2
176
     0
 90
        2
176
     0
 90
        0
176
     0
 90
        0
176
     0
 40
0.6
176
     0
 40
30.0
176
     0
 62
     7
420
 16777215
176
     0
 90
        1
176
     0
 90
        4
176
     0
 62
     7
176
     0
 62
   257
176
     0
 90
        1
176
     0
 90
        1
176
     0
 40
1.0
176
     0
 90
        8
176
     2
 62
     7
176
     0
 40
1.0
176
     0
 90
        1
176
     0
 90
        6
176
     0
 90
        2
176
     0
 62
     7
176
     0
 90
        5
176
     0
 90
        0
176
     0
 90
        0
176
     0
290
     0
176
     0
 90
        1
176
     0
 40
0.0
176
     0
 90
        0
176
     0
290
     0
176
     1
290
     1
176
     1
290
     1
176
     1
290
     0
176
     1
290
     0
176
     1
290
     0
176
     1
290
     0
176
     1
290
     0
176
     1
290
     0
176
     1
 90
       50
176
     1
 40
0.0
176
     1
 40
1.0
176
     1
 90
        0
176
     1
 62
    18
176
     1
 90
       50
176
     1
 90
        3
176
     1
 62
     5
420
      255
176
     1
290
     0
176
     1
 90
       50
176
     1
 90
       50
176
     1
 90
       50
176
     1
290
     0
176
     1
 90
       50
176
     1
 62
   256
176
     0
 40
1.0
176
     0
 90
        2
176
     1
  1
strokes_ogs.tif
176
     1
290
     0
176
     1
 40
1.0
176
     1
 40
1.0
176
     1
  0
VISUALSTYLE
  5
C223
102
{ACAD_REACTORS
330
C193
102
}
330
C193
100
AcDbVisualStyle
  2
Facepattern
 70
    15
177
     3
291
     1
 70
    58
 90
        2
176
     1
 90
        2
176
     1
 90
        0
176
     1
 90
        0
176
     1
 40
0.6
176
     1
 40
30.0
176
     1
 62
     7
420
 16777215
176
     1
 90
        1
176
     1
 90
        4
176
     1
 62
     7
176
     1
 62
   257
176
     1
 90
        1
176
     1
 90
        1
176
     1
 40
1.0
176
     1
 90
        8
176
     1
 62
     7
176
     1
 40
1.0
176
     1
 90
        1
176
     1
 90
        6
176
     1
 90
        2
176
     1
 62
     7
176
     1
 90
        5
176
     1
 90
        0
176
     1
 90
        0
176
     1
290
     0
176
     1
 90
        1
176
     1
 40
0.0
176
     1
 90
        0
176
     1
290
     0
176
     1
290
     1
176
     1
290
     1
176
     1
290
     0
176
     1
290
     0
176
     1
290
     0
176
     1
290
     0
176
     1
290
     0
176
     1
290
     0
176
     1
 90
       50
176
     1
 40
0.0
176
     1
 40
1.0
176
     1
 90
        0
176
     1
 62
    18
176
     1
 90
       50
176
     1
 90
        3
176
     1
 62
     5
420
      255
176
     1
290
     0
176
     1
 90
       50
176
     1
 90
       50
176
     1
 90
       50
176
     1
290
     0
176
     1
 90
       50
176
     1
 62
   256
176
     0
 40
1.0
176
     0
 90
        2
176
     1
  1
strokes_ogs.tif
176
     1
290
     0
176
     1
 40
1.0
176
     1
 40
1.0
176
     1
  0
VISUALSTYLE
  5
C218
102
{ACAD_REACTORS
330
C193
102
}
330
C193
100
AcDbVisualStyle
  2
Flat
 70
     0
177
     3
291
     1
 70
    58
 90
        2
176
     1
 90
        1
176
     1
 90
        1
176
     1
 90
        2
176
     1
 40
0.6
176
     1
 40
30.0
176
     1
 62
     7
420
 16777215
176
     1
 90
        0
176
     1
 90
        4
176
     1
 62
     7
176
     1
 62
   257
176
     1
 90
        1
176
     1
 90
        1
176
     1
 40
1.0
176
     1
 90
        8
176
     1
 62
     7
176
     1
 40
1.0
176
     1
 90
        1
176
     1
 90
        6
176
     1
 90
        2
176
     1
 62
     7
176
     1
 90
        5
176
     1
 90
        0
176
     1
 90
        0
176
     1
290
     0
176
     1
 90
       13
176
     1
 40
0.0
176
     1
 90
        0
176
     1
290
     0
176
     1
290
     1
176
     1
290
     1
176
     1
290
     0
176
     1
290
     0
176
     1
290
     0
176
     1
290
     0
176
     1
290
     0
176
     1
290
     0
176
     1
 90
       50
176
     1
 40
0.0
176
     1
 40
1.0
176
     1
 90
        0
176
     1
 62
    18
176
     1
 90
       50
176
     1
 90
        3
176
     1
 62
     5
420
      255
176
     1
290
     0
176
     1
 90
       50
176
     1
 90
       50
176
     1
 90
       50
176
     1
290
     0
176
     1
 90
       50
176
     1
 62
   256
176
     0
 40
1.0
176
     0
 90
        2
176
     1
  1
strokes_ogs.tif
176
     1
290
     0
176
     1
 40
1.0
176
     1
 40
1.0
176
     1
  0
VISUALSTYLE
  5
C219
102
{ACAD_REACTORS
330
C193
102
}
330
C193
100
AcDbVisualStyle
  2
FlatWithEdges
 70
     1
177
     3
291
     1
 70
    58
 90
        2
176
     1
 90
        1
176
     1
 90
        1
176
     1
 90
        2
176
     1
 40
0.6
176
     1
 40
30.0
176
     1
 62
     7
420
 16777215
176
     1
 90
        1
176
     1
 90
        4
176
     1
 62
     7
176
     1
 62
   257
176
     1
 90
        1
176
     1
 90
        1
176
     1
 40
1.0
176
     1
 90
        0
176
     1
 62
   257
176
     1
 40
1.0
176
     1
 90
        1
176
     1
 90
        6
176
     1
 90
        2
176
     1
 62
     7
176
     1
 90
        5
176
     1
 90
        0
176
     1
 90
        0
176
     1
290
     0
176
     1
 90
       13
176
     1
 40
0.0
176
     1
 90
        0
176
     1
290
     0
176
     1
290
     1
176
     1
290
     1
176
     1
290
     0
176
     1
290
     0
176
     1
290
     0
176
     1
290
     0
176
     1
290
     0
176
     1
290
     0
176
     1
 90
       50
176
     1
 40
0.0
176
     1
 40
1.0
176
     1
 90
        0
176
     1
 62
    18
176
     1
 90
       50
176
     1
 90
        3
176
     1
 62
     5
420
      255
176
     1
290
     0
176
     1
 90
       50
176
     1
 90
       50
176
     1
 90
       50
176
     1
290
     0
176
     1
 90
       50
176
     1
 62
   256
176
     0
 40
1.0
176
     0
 90
        2
176
     1
  1
strokes_ogs.tif
176
     1
290
     0
176
     1
 40
1.0
176
     1
 40
1.0
176
     1
  0
VISUALSTYLE
  5
C21A
102
{ACAD_REACTORS
330
C193
102
}
330
C193
100
AcDbVisualStyle
  2
Gouraud
 70
     2
177
     3
291
     1
 70
    58
 90
        2
176
     1
 90
        2
176
     1
 90
        1
176
     1
 90
        2
176
     1
 40
0.6
176
     1
 40
30.0
176
     1
 62
     7
420
 16777215
176
     1
 90
        0
176
     1
 90
        4
176
     1
 62
     7
176
     1
 62
   257
176
     1
 90
        1
176
     1
 90
        1
176
     1
 40
1.0
176
     1
 90
        0
176
     1
 62
     7
176
     1
 40
1.0
176
     1
 90
        1
176
     1
 90
        6
176
     1
 90
        2
176
     1
 62
     7
176
     1
 90
        5
176
     1
 90
        0
176
     1
 90
        0
176
     1
290
     0
176
     1
 90
       13
176
     1
 40
0.0
176
     1
 90
        0
176
     1
290
     0
176
     1
290
     1
176
     1
290
     1
176
     1
290
     0
176
     1
290
     0
176
     1
290
     0
176
     1
290
     0
176
     1
290
     0
176
     1
290
     0
176
     1
 90
       50
176
     1
 40
0.0
176
     1
 40
1.0
176
     1
 90
        0
176
     1
 62
    18
176
     1
 90
       50
176
     1
 90
        3
176
     1
 62
     5
420
      255
176
     1
290
     0
176
     1
 90
       50
176
     1
 90
       50
176
     1
 90
       50
176
     1
290
     0
176
     1
 90
       50
176
     1
 62
   256
176
     0
 40
1.0
176
     0
 90
        2
176
     1
  1
strokes_ogs.tif
176
     1
290
     0
176
     1
 40
1.0
176
     1
 40
1.0
176
     1
  0
VISUALSTYLE
  5
C21B
102
{ACAD_REACTORS
330
C193
102
}
330
C193
100
AcDbVisualStyle
  2
GouraudWithEdges
 70
     3
177
     3
291
     1
 70
    58
 90
        2
176
     1
 90
        2
176
     1
 90
        1
176
     1
 90
        2
176
     1
 40
0.6
176
     1
 40
30.0
176
     1
 62
     7
420
 16777215
176
     1
 90
        1
176
     1
 90
        4
176
     1
 62
     7
176
     1
 62
   257
176
     1
 90
        1
176
     1
 90
        1
176
     1
 40
1.0
176
     1
 90
        0
176
     1
 62
   257
176
     1
 40
1.0
176
     1
 90
        1
176
     1
 90
        6
176
     1
 90
        2
176
     1
 62
     7
176
     1
 90
        5
176
     1
 90
        0
176
     1
 90
        0
176
     1
290
     0
176
     1
 90
       13
176
     1
 40
0.0
176
     1
 90
        0
176
     1
290
     0
176
     1
290
     1
176
     1
290
     1
176
     1
290
     0
176
     1
290
     0
176
     1
290
     0
176
     1
290
     0
176
     1
290
     0
176
     1
290
     0
176
     1
 90
       50
176
     1
 40
0.0
176
     1
 40
1.0
176
     1
 90
        0
176
     1
 62
    18
176
     1
 90
       50
176
     1
 90
        3
176
     1
 62
     5
420
      255
176
     1
290
     0
176
     1
 90
       50
176
     1
 90
       50
176
     1
 90
       50
176
     1
290
     0
176
     1
 90
       50
176
     1
 62
   256
176
     0
 40
1.0
176
     0
 90
        2
176
     1
  1
strokes_ogs.tif
176
     1
290
     0
176
     1
 40
1.0
176
     1
 40
1.0
176
     1
  0
VISUALSTYLE
  5
C3B3
102
{ACAD_REACTORS
330
C193
102
}
330
C193
100
AcDbVisualStyle
  2
Hidden
 70
     6
177
     3
291
     0
 70
    58
 90
        1
176
     1
 90
        2
176
     1
 90
        2
176
     1
 90
        0
176
     1
 40
0.6
176
     1
 40
30.0
176
     1
 62
     7
420
 16777215
176
     1
 90
        2
176
     1
 90
        2
176
     1
 62
     7
176
     1
 62
   257
176
     1
 90
        2
176
     1
 90
        1
176
     1
 40
40.0
176
     1
 90
        0
176
     1
 62
   257
176
     1
 40
1.0
176
     1
 90
        1
176
     1
 90
        6
176
     1
 90
        2
176
     1
 62
     7
176
     1
 90
        3
176
     1
 90
        0
176
     1
 90
        0
176
     1
290
     0
176
     1
 90
        1
176
     1
 40
0.0
176
     1
 90
        0
176
     1
290
     0
176
     1
290
     1
176
     1
290
     1
176
     1
290
     0
176
     1
290
     0
176
     1
290
     0
176
     1
290
     0
176
     1
290
     0
176
     1
290
     0
176
     1
 90
       50
176
     1
 40
0.0
176
     1
 40
1.0
176
     1
 90
        0
176
     1
 62
    18
176
     1
 90
       50
176
     1
 90
        3
176
     1
 62
     5
420
      255
176
     1
290
     0
176
     1
 90
       50
176
     1
 90
       50
176
     1
 90
       50
176
     1
290
     0
176
     1
 90
       50
176
     1
 62
   256
176
     0
 40
1.0
176
     0
 90
        2
176
     1
  1
strokes_ogs.tif
176
     1
290
     0
176
     1
 40
1.0
176
     1
 40
1.0
176
     1
  0
VISUALSTYLE
  5
C225
102
{ACAD_REACTORS
330
C193
102
}
330
C193
100
AcDbVisualStyle
  2
JitterOff
 70
    20
177
     3
291
     1
 70
    58
 90
        2
176
     0
 90
        2
176
     0
 90
        0
176
     0
 90
        0
176
     0
 40
0.6
176
     0
 40
30.0
176
     0
 62
     7
420
 16777215
176
     0
 90
        1
176
     0
 90
        4
176
     0
 62
     7
176
     0
 62
   257
176
     0
 90
        1
176
     0
 90
        1
176
     0
 40
1.0
176
     0
 90
       10
176
     2
 62
     7
176
     0
 40
1.0
176
     0
 90
        1
176
     0
 90
        6
176
     0
 90
        2
176
     0
 62
     7
176
     0
 90
        5
176
     0
 90
        0
176
     0
 90
        0
176
     0
290
     0
176
     0
 90
        1
176
     0
 40
0.0
176
     0
 90
        0
176
     0
290
     0
176
     1
290
     1
176
     1
290
     1
176
     1
290
     0
176
     1
290
     0
176
     1
290
     0
176
     1
290
     0
176
     1
290
     0
176
     1
290
     0
176
     1
 90
       50
176
     1
 40
0.0
176
     1
 40
1.0
176
     1
 90
        0
176
     1
 62
    18
176
     1
 90
       50
176
     1
 90
        3
176
     1
 62
     5
420
      255
176
     1
290
     0
176
     1
 90
       50
176
     1
 90
       50
176
     1
 90
       50
176
     1
290
     0
176
     1
 90
       50
176
     1
 62
   256
176
     0
 40
1.0
176
     0
 90
        2
176
     1
  1
strokes_ogs.tif
176
     1
290
     0
176
     1
 40
1.0
176
     1
 40
1.0
176
     1
  0
VISUALSTYLE
  5
C222
102
{ACAD_REACTORS
330
C193
102
}
330
C193
100
AcDbVisualStyle
  2
Linepattern
 70
    14
177
     3
291
     1
 70
    58
 90
        2
176
     1
 90
        2
176
     1
 90
        0
176
     1
 90
        0
176
     1
 40
0.6
176
     1
 40
30.0
176
     1
 62
     7
420
 16777215
176
     1
 90
        1
176
     1
 90
        4
176
     1
 62
     7
176
     1
 62
   257
176
     1
 90
        7
176
     1
 90
        7
176
     1
 40
1.0
176
     1
 90
        8
176
     1
 62
     7
176
     1
 40
1.0
176
     1
 90
        1
176
     1
 90
        6
176
     1
 90
        2
176
     1
 62
     7
176
     1
 90
        5
176
     1
 90
        0
176
     1
 90
        0
176
     1
290
     0
176
     1
 90
        1
176
     1
 40
0.0
176
     1
 90
        0
176
     1
290
     0
176
     1
290
     1
176
     1
290
     1
176
     1
290
     0
176
     1
290
     0
176
     1
290
     0
176
     1
290
     0
176
     1
290
     0
176
     1
290
     0
176
     1
 90
       50
176
     1
 40
0.0
176
     1
 40
1.0
176
     1
 90
        0
176
     1
 62
    18
176
     1
 90
       50
176
     1
 90
        3
176
     1
 62
     5
420
      255
176
     1
290
     0
176
     1
 90
       50
176
     1
 90
       50
176
     1
 90
       50
176
     1
290
     0
176
     1
 90
       50
176
     1
 62
   256
176
     0
 40
1.0
176
     0
 90
        2
176
     1
  1
strokes_ogs.tif
176
     1
290
     0
176
     1
 40
1.0
176
     1
 40
1.0
176
     1
  0
VISUALSTYLE
  5
C226
102
{ACAD_REACTORS
330
C193
102
}
330
C193
100
AcDbVisualStyle
  2
OverhangOff
 70
    21
177
     3
291
     1
 70
    58
 90
        2
176
     0
 90
        2
176
     0
 90
        0
176
     0
 90
        0
176
     0
 40
0.6
176
     0
 40
30.0
176
     0
 62
     7
420
 16777215
176
     0
 90
        1
176
     0
 90
        4
176
     0
 62
     7
176
     0
 62
   257
176
     0
 90
        1
176
     0
 90
        1
176
     0
 40
1.0
176
     0
 90
        9
176
     2
 62
     7
176
     0
 40
1.0
176
     0
 90
        1
176
     0
 90
        6
176
     0
 90
        2
176
     0
 62
     7
176
     0
 90
        5
176
     0
 90
        0
176
     0
 90
        0
176
     0
290
     0
176
     0
 90
        1
176
     0
 40
0.0
176
     0
 90
        0
176
     0
290
     0
176
     1
290
     1
176
     1
290
     1
176
     1
290
     0
176
     1
290
     0
176
     1
290
     0
176
     1
290
     0
176
     1
290
     0
176
     1
290
     0
176
     1
 90
       50
176
     1
 40
0.0
176
     1
 40
1.0
176
     1
 90
        0
176
     1
 62
    18
176
     1
 90
       50
176
     1
 90
        3
176
     1
 62
     5
420
      255
176
     1
290
     0
176
     1
 90
       50
176
     1
 90
       50
176
     1
 90
       50
176
     1
290
     0
176
     1
 90
       50
176
     1
 62
   256
176
     0
 40
1.0
176
     0
 90
        2
176
     1
  1
strokes_ogs.tif
176
     1
290
     0
176
     1
 40
1.0
176
     1
 40
1.0
176
     1
  0
VISUALSTYLE
  5
C1B2
102
{ACAD_REACTORS
330
C193
102
}
330
C193
100
AcDbVisualStyle
  2
Realistic
 70
     8
177
     3
291
     0
 70
    58
 90
        2
176
     1
 90
        2
176
     1
 90
        0
176
     1
 90
        0
176
     1
 40
0.6
176
     1
 40
30.0
176
     1
 62
     7
420
 16777215
176
     1
 90
        1
176
     1
 90
        0
176
     1
 62
     7
176
     1
 62
   257
176
     1
 90
        1
176
     1
 90
        1
176
     1
 40
1.0
176
     1
 90
        8
176
     1
 62
     8
420
  7895160
176
     1
 40
1.0
176
     1
 90
        1
176
     1
 90
        6
176
     1
 90
        2
176
     1
 62
     7
176
     1
 90
        5
176
     1
 90
        0
176
     1
 90
        0
176
     1
290
     0
176
     1
 90
       13
176
     1
 40
0.0
176
     1
 90
        0
176
     1
290
     0
176
     1
290
     1
176
     1
290
     1
176
     1
290
     0
176
     1
290
     0
176
     1
290
     0
176
     1
290
     0
176
     1
290
     0
176
     1
290
     0
176
     1
 90
       50
176
     1
 40
0.0
176
     1
 40
1.0
176
     1
 90
        0
176
     1
 62
    18
176
     1
 90
       50
176
     1
 90
        3
176
     1
 62
     5
420
      255
176
     1
290
     0
176
     1
 90
       50
176
     1
 90
       50
176
     1
 90
       50
176
     1
290
     0
176
     1
 90
       50
176
     1
 62
   256
176
     0
 40
1.0
176
     0
 90
        2
176
     1
  1
strokes_ogs.tif
176
     1
290
     0
176
     1
 40
1.0
176
     1
 40
1.0
176
     1
  0
VISUALSTYLE
  5
C3B8
102
{ACAD_REACTORS
330
C193
102
}
330
C193
100
AcDbVisualStyle
  2
Shaded
 70
    27
177
     3
291
     0
 70
    58
 90
        2
176
     1
 90
        2
176
     1
 90
        1
176
     1
 90
        2
176
     1
 40
0.6
176
     1
 40
30.0
176
     1
 62
     7
420
 16777215
176
     1
 90
        0
176
     1
 90
        4
176
     1
 62
     7
176
     1
 62
   257
176
     1
 90
        1
176
     1
 90
        1
176
     1
 40
1.0
176
     1
 90
        8
176
     1
 62
   257
176
     1
 40
1.0
176
     1
 90
        1
176
     1
 90
        6
176
     1
 90
        2
176
     1
 62
     8
420
  7895160
176
     1
 90
        3
176
     1
 90
        0
176
     1
 90
        0
176
     1
290
     0
176
     1
 90
        5
176
     1
 40
0.0
176
     1
 90
        0
176
     1
290
     0
176
     1
290
     1
176
     1
290
     1
176
     1
290
     0
176
     1
290
     0
176
     1
290
     0
176
     1
290
     0
176
     1
290
     0
176
     1
290
     0
176
     1
 90
       50
176
     1
 40
0.0
176
     1
 40
1.0
176
     1
 90
        0
176
     1
 62
    18
176
     1
 90
       50
176
     1
 90
        3
176
     1
 62
     5
420
      255
176
     1
290
     0
176
     1
 90
       50
176
     1
 90
       50
176
     1
 90
       50
176
     1
290
     0
176
     1
 90
       50
176
     1
 62
   256
176
     0
 40
1.0
176
     0
 90
        2
176
     1
  1
strokes_ogs.tif
176
     1
290
     0
176
     1
 40
1.0
176
     1
 40
1.0
176
     1
  0
VISUALSTYLE
  5
C3B7
102
{ACAD_REACTORS
330
C193
102
}
330
C193
100
AcDbVisualStyle
  2
Shaded with edges
 70
    26
177
     3
291
     0
 70
    58
 90
        2
176
     1
 90
        2
176
     1
 90
        1
176
     1
 90
        2
176
     1
 40
0.6
176
     1
 40
30.0
176
     1
 62
     7
420
 16777215
176
     1
 90
        1
176
     1
 90
        2
176
     1
 62
     7
176
     1
 62
   257
176
     1
 90
        2
176
     1
 90
        1
176
     1
 40
1.0
176
     1
 90
        8
176
     1
 62
   257
176
     1
 40
1.0
176
     1
 90
        1
176
     1
 90
        6
176
     1
 90
        2
176
     1
 62
     7
176
     1
 90
        3
176
     1
 90
        0
176
     1
 90
        0
176
     1
290
     0
176
     1
 90
        5
176
     1
 40
0.0
176
     1
 90
        0
176
     1
290
     0
176
     1
290
     1
176
     1
290
     1
176
     1
290
     0
176
     1
290
     0
176
     1
290
     0
176
     1
290
     0
176
     1
290
     0
176
     1
290
     0
176
     1
 90
       50
176
     1
 40
0.0
176
     1
 40
1.0
176
     1
 90
        0
176
     1
 62
    18
176
     1
 90
       50
176
     1
 90
        3
176
     1
 62
     5
420
      255
176
     1
290
     0
176
     1
 90
       50
176
     1
 90
       50
176
     1
 90
       50
176
     1
290
     0
176
     1
 90
       50
176
     1
 62
   256
176
     0
 40
1.0
176
     0
 90
        2
176
     1
  1
strokes_ogs.tif
176
     1
290
     0
176
     1
 40
1.0
176
     1
 40
1.0
176
     1
  0
VISUALSTYLE
  5
C3B4
102
{ACAD_REACTORS
330
C193
102
}
330
C193
100
AcDbVisualStyle
  2
Shades of Gray
 70
    23
177
     3
291
     0
 70
    58
 90
        2
176
     1
 90
        2
176
     1
 90
        3
176
     1
 90
        0
176
     1
 40
0.6
176
     1
 40
30.0
176
     1
 62
     7
420
 16777215
176
     1
 90
        2
176
     1
 90
        2
176
     1
 62
     7
176
     1
 62
     7
176
     1
 90
        1
176
     1
 90
        1
176
     1
 40
40.0
176
     1
 90
        8
176
     1
 62
     7
176
     1
 40
1.0
176
     1
 90
        1
176
     1
 90
        6
176
     1
 90
        2
176
     1
 62
     7
176
     1
 90
        3
176
     1
 90
        0
176
     1
 90
        0
176
     1
290
     0
176
     1
 90
        1
176
     1
 40
0.0
176
     1
 90
        0
176
     1
290
     0
176
     1
290
     1
176
     1
290
     1
176
     1
290
     0
176
     1
290
     0
176
     1
290
     0
176
     1
290
     0
176
     1
290
     0
176
     1
290
     0
176
     1
 90
       50
176
     1
 40
0.0
176
     1
 40
1.0
176
     1
 90
        0
176
     1
 62
    18
176
     1
 90
       50
176
     1
 90
        3
176
     1
 62
     5
420
      255
176
     1
290
     0
176
     1
 90
       50
176
     1
 90
       50
176
     1
 90
       50
176
     1
290
     0
176
     1
 90
       50
176
     1
 62
   256
176
     0
 40
1.0
176
     0
 90
        2
176
     1
  1
strokes_ogs.tif
176
     1
290
     0
176
     1
 40
1.0
176
     1
 40
1.0
176
     1
  0
VISUALSTYLE
  5
C3B5
102
{ACAD_REACTORS
330
C193
102
}
330
C193
100
AcDbVisualStyle
  2
Sketchy
 70
    24
177
     3
291
     0
 70
    58
 90
        1
176
     1
 90
        2
176
     1
 90
        2
176
     1
 90
        0
176
     1
 40
0.6
176
     1
 40
30.0
176
     1
 62
     7
420
 16777215
176
     1
 90
        2
176
     1
 90
        2
176
     1
 62
     7
176
     1
 62
     7
176
     1
 90
        1
176
     1
 90
        1
176
     1
 40
40.0
176
     1
 90
       11
176
     1
 62
     7
176
     1
 40
1.0
176
     1
 90
        1
176
     1
 90
        6
176
     1
 90
        2
176
     1
 62
     7
176
     1
 90
        6
176
     1
 90
        0
176
     1
 90
        0
176
     1
290
     0
176
     1
 90
        1
176
     1
 40
0.0
176
     1
 90
        0
176
     1
290
     0
176
     1
290
     1
176
     1
290
     1
176
     1
290
     0
176
     1
290
     0
176
     1
290
     0
176
     1
290
     0
176
     1
290
     0
176
     1
290
     0
176
     1
 90
       50
176
     1
 40
0.0
176
     1
 40
1.0
176
     1
 90
        0
176
     1
 62
    18
176
     1
 90
       50
176
     1
 90
        3
176
     1
 62
     5
420
      255
176
     1
290
     0
176
     1
 90
       50
176
     1
 90
       50
176
     1
 90
       50
176
     1
290
     0
176
     1
 90
       50
176
     1
 62
   256
176
     0
 40
1.0
176
     0
 90
        2
176
     1
  1
strokes_ogs.tif
176
     1
290
     0
176
     1
 40
1.0
176
     1
 40
1.0
176
     1
  0
VISUALSTYLE
  5
C221
102
{ACAD_REACTORS
330
C193
102
}
330
C193
100
AcDbVisualStyle
  2
Thicken
 70
    13
177
     3
291
     1
 70
    58
 90
        2
176
     1
 90
        2
176
     1
 90
        0
176
     1
 90
        0
176
     1
 40
0.6
176
     1
 40
30.0
176
     1
 62
     7
420
 16777215
176
     1
 90
        1
176
     1
 90
        4
176
     1
 62
     7
176
     1
 62
   257
176
     1
 90
        1
176
     1
 90
        1
176
     1
 40
1.0
176
     1
 90
       12
176
     1
 62
     7
176
     1
 40
1.0
176
     1
 90
        1
176
     1
 90
        6
176
     1
 90
        2
176
     1
 62
     7
176
     1
 90
        5
176
     1
 90
        0
176
     1
 90
        0
176
     1
290
     0
176
     1
 90
        1
176
     1
 40
0.0
176
     1
 90
        0
176
     1
290
     0
176
     1
290
     1
176
     1
290
     1
176
     1
290
     0
176
     1
290
     0
176
     1
290
     0
176
     1
290
     0
176
     1
290
     0
176
     1
290
     0
176
     1
 90
       50
176
     1
 40
0.0
176
     1
 40
1.0
176
     1
 90
        0
176
     1
 62
    18
176
     1
 90
       50
176
     1
 90
        3
176
     1
 62
     5
420
      255
176
     1
290
     0
176
     1
 90
       50
176
     1
 90
       50
176
     1
 90
       50
176
     1
290
     0
176
     1
 90
       50
176
     1
 62
   256
176
     0
 40
1.0
176
     0
 90
        2
176
     1
  1
strokes_ogs.tif
176
     1
290
     0
176
     1
 40
1.0
176
     1
 40
1.0
176
     1
  0
VISUALSTYLE
  5
C3B2
102
{ACAD_REACTORS
330
C193
102
}
330
C193
100
AcDbVisualStyle
  2
Wireframe
 70
     5
177
     3
291
     0
 70
    58
 90
        0
176
     1
 90
        2
176
     1
 90
        0
176
     1
 90
        0
176
     1
 40
0.6
176
     1
 40
30.0
176
     1
 62
     7
420
 16777215
176
     1
 90
        1
176
     1
 90
        4
176
     1
 62
     7
176
     1
 62
   257
176
     1
 90
        1
176
     1
 90
        1
176
     1
 40
1.0
176
     1
 90
        0
176
     1
 62
   257
176
     1
 40
1.0
176
     1
 90
        1
176
     1
 90
        6
176
     1
 90
        2
176
     1
 62
     7
176
     1
 90
        3
176
     1
 90
        0
176
     1
 90
        0
176
     1
290
     0
176
     1
 90
        1
176
     1
 40
0.0
176
     1
 90
        0
176
     1
290
     0
176
     1
290
     1
176
     1
290
     1
176
     1
290
     0
176
     1
290
     0
176
     1
290
     0
176
     1
290
     0
176
     1
290
     0
176
     1
290
     0
176
     1
 90
       50
176
     1
 40
0.0
176
     1
 40
1.0
176
     1
 90
        0
176
     1
 62
    18
176
     1
 90
       50
176
     1
 90
        3
176
     1
 62
     5
420
      255
176
     1
290
     0
176
     1
 90
       50
176
     1
 90
       50
176
     1
 90
       50
176
     1
290
     0
176
     1
 90
       50
176
     1
 62
   256
176
     0
 40
1.0
176
     0
 90
        2
176
     1
  1
strokes_ogs.tif
176
     1
290
     0
176
     1
 40
1.0
176
     1
 40
1.0
176
     1
  0
VISUALSTYLE
  5
C3B6
102
{ACAD_REACTORS
330
C193
102
}
330
C193
100
AcDbVisualStyle
  2
X-Ray
 70
    25
177
     3
291
     0
 70
    58
 90
        2
176
     1
 90
        2
176
     1
 90
        1
176
     1
 90
        1
176
     1
 40
0.5
176
     1
 40
30.0
176
     1
 62
     7
420
 16777215
176
     1
 90
        1
176
     1
 90
        0
176
     1
 62
     7
176
     1
 62
   257
176
     1
 90
        1
176
     1
 90
        1
176
     1
 40
1.0
176
     1
 90
        8
176
     1
 62
     7
176
     1
 40
1.0
176
     1
 90
        1
176
     1
 90
        6
176
     1
 90
        2
176
     1
 62
     7
176
     1
 90
        3
176
     1
 90
        0
176
     1
 90
        0
176
     1
290
     0
176
     1
 90
       13
176
     1
 40
0.0
176
     1
 90
        0
176
     1
290
     0
176
     1
290
     1
176
     1
290
     1
176
     1
290
     0
176
     1
290
     0
176
     1
290
     0
176
     1
290
     0
176
     1
290
     0
176
     1
290
     0
176
     1
 90
       50
176
     1
 40
0.0
176
     1
 40
1.0
176
     1
 90
        0
176
     1
 62
    18
176
     1
 90
       50
176
     1
 90
        3
176
     1
 62
     5
420
      255
176
     1
290
     0
176
     1
 90
       50
176
     1
 90
       50
176
     1
 90
       50
176
     1
290
     0
176
     1
 90
       50
176
     1
 62
   256
176
     0
 40
1.0
176
     0
 90
        2
176
     1
  1
strokes_ogs.tif
176
     1
290
     0
176
     1
 40
1.0
176
     1
 40
1.0
176
     1
  0
DICTIONARYVAR
  5
C213
102
{ACAD_REACTORS
330
C20F
102
}
330
C20F
100
DictionaryVariables
280
     0
  1
1:1
  0
DICTIONARYVAR
  5
C211
102
{ACAD_REACTORS
330
C20F
102
}
330
C20F
100
DictionaryVariables
280
     0
  1
STANDARD
  0
DICTIONARYVAR
  5
C210
102
{ACAD_REACTORS
330
C20F
102
}
330
C20F
100
DictionaryVariables
280
     0
  1
STANDARD
  0
DICTIONARYVAR
  5
C6A2
102
{ACAD_REACTORS
330
C20F
102
}
330
C20F
100
DictionaryVariables
280
     0
  1
Imperial24
  0
DICTIONARYVAR
  5
C6A3
102
{ACAD_REACTORS
330
C20F
102
}
330
C20F
100
DictionaryVariables
280
     0
  1
Imperial24
  0
DICTIONARYVAR
  5
C215
102
{ACAD_REACTORS
330
C20F
102
}
330
C20F
100
DictionaryVariables
280
     0
  1
1
  0
DICTIONARYVAR
  5
C216
102
{ACAD_REACTORS
330
C20F
102
}
330
C20F
100
DictionaryVariables
280
     0
  1
15
  0
DICTIONARYVAR
  5
C214
102
{ACAD_REACTORS
330
C20F
102
}
330
C20F
100
DictionaryVariables
280
     0
  1
0
  0
DICTIONARYVAR
  5
C212
102
{ACAD_REACTORS
330
C20F
102
}
330
C20F
100
DictionaryVariables
280
     0
  1
0
  0
DICTIONARYVAR
  5
C98F
330
C98E
100
DictionaryVariables
280
     0
  1
1.4.3 @ 2026-05-09T19:44:09.172297+00:00
  0
DICTIONARY
  5
C182
330
C181
100
AcDbDictionary
280
     1
281
     1
  0
DICTIONARY
  5
C1A5
330
C1A4
100
AcDbDictionary
280
     1
281
     1
  3
BUMPTILE
360
C1A6
  3
DIFFUSETILE
360
C1A7
  3
OPACITYTILE
360
C1A8
  3
REFLECTIONTILE
360
C1A9
  3
REFRACTIONTILE
360
C1AA
  3
SPECULARTILE
360
C1AB
  0
DICTIONARY
  5
C19D
330
C19C
100
AcDbDictionary
280
     1
281
     1
  3
BUMPTILE
360
C19E
  3
DIFFUSETILE
360
C19F
  3
OPACITYTILE
360
C1A0
  3
REFLECTIONTILE
360
C1A1
  3
REFRACTIONTILE
360
C1A2
  3
SPECULARTILE
360
C1A3
  0
DICTIONARY
  5
C173
330
C171
100
AcDbDictionary
280
     1
281
     1
  3
BUMPTILE
360
C174
  3
DIFFUSETILE
360
C175
  3
OPACITYTILE
360
C176
  3
REFLECTIONTILE
360
C177
  3
REFRACTIONTILE
360
C178
  3
SPECULARTILE
360
C179
  0
DICTIONARY
  5
C206
330
C1B1
100
AcDbDictionary
280
     1
281
     1
  3
ACAD_ROUNDTRIP_2008_TABLESTYLE_CELLSTYLEMAP
360
C9E4
  0
XRECORD
  5
C1A6
102
{ACAD_REACTORS
330
C1A5
102
}
330
C1A5
100
AcDbXrecord
280
     1
270
     1
271
     1
  0
XRECORD
  5
C1A7
102
{ACAD_REACTORS
330
C1A5
102
}
330
C1A5
100
AcDbXrecord
280
     1
270
     1
271
     1
  0
XRECORD
  5
C1A8
102
{ACAD_REACTORS
330
C1A5
102
}
330
C1A5
100
AcDbXrecord
280
     1
270
     1
271
     1
  0
XRECORD
  5
C1A9
102
{ACAD_REACTORS
330
C1A5
102
}
330
C1A5
100
AcDbXrecord
280
     1
270
     1
271
     1
  0
XRECORD
  5
C1AA
102
{ACAD_REACTORS
330
C1A5
102
}
330
C1A5
100
AcDbXrecord
280
     1
270
     1
271
     1
  0
XRECORD
  5
C1AB
102
{ACAD_REACTORS
330
C1A5
102
}
330
C1A5
100
AcDbXrecord
280
     1
270
     1
271
     1
  0
XRECORD
  5
C19E
102
{ACAD_REACTORS
330
C19D
102
}
330
C19D
100
AcDbXrecord
280
     1
270
     1
271
     1
  0
XRECORD
  5
C19F
102
{ACAD_REACTORS
330
C19D
102
}
330
C19D
100
AcDbXrecord
280
     1
270
     1
271
     1
  0
XRECORD
  5
C1A0
102
{ACAD_REACTORS
330
C19D
102
}
330
C19D
100
AcDbXrecord
280
     1
270
     1
271
     1
  0
XRECORD
  5
C1A1
102
{ACAD_REACTORS
330
C19D
102
}
330
C19D
100
AcDbXrecord
280
     1
270
     1
271
     1
  0
XRECORD
  5
C1A2
102
{ACAD_REACTORS
330
C19D
102
}
330
C19D
100
AcDbXrecord
280
     1
270
     1
271
     1
  0
XRECORD
  5
C1A3
102
{ACAD_REACTORS
330
C19D
102
}
330
C19D
100
AcDbXrecord
280
     1
270
     1
271
     1
  0
XRECORD
  5
C174
102
{ACAD_REACTORS
330
C173
102
}
330
C173
100
AcDbXrecord
280
     1
270
     1
271
     1
  0
XRECORD
  5
C175
102
{ACAD_REACTORS
330
C173
102
}
330
C173
100
AcDbXrecord
280
     1
270
     1
271
     1
  0
XRECORD
  5
C176
102
{ACAD_REACTORS
330
C173
102
}
330
C173
100
AcDbXrecord
280
     1
270
     1
271
     1
  0
XRECORD
  5
C177
102
{ACAD_REACTORS
330
C173
102
}
330
C173
100
AcDbXrecord
280
     1
270
     1
271
     1
  0
XRECORD
  5
C178
102
{ACAD_REACTORS
330
C173
102
}
330
C173
100
AcDbXrecord
280
     1
270
     1
271
     1
  0
XRECORD
  5
C179
102
{ACAD_REACTORS
330
C173
102
}
330
C173
100
AcDbXrecord
280
     1
270
     1
271
     1
  0
CELLSTYLEMAP
  5
C9E4
102
{ACAD_REACTORS
330
C206
102
}
330
C206
100
AcDbCellStyleMap
 90
        3
300
CELLSTYLE
  1
TABLEFORMAT_BEGIN
 90
        5
170
     1
 91
        0
 92
    32768
 62
   257
 93
        1
300
CONTENTFORMAT
  1
CONTENTFORMAT_BEGIN
 90
        0
 91
        0
 92
        4
 93
        0
300

 40
0.0
140
1.0
 94
        5
 62
     0
340
C189
144
0.25
309
CONTENTFORMAT_END
171
     1
301
MARGIN
  1
CELLMARGIN_BEGIN
 40
0.06
 40
0.06
 40
0.06
 40
0.06
 40
0.18
 40
0.18
309
CELLMARGIN_END
 94
        6
 95
        1
302
GRIDFORMAT
  1
GRIDFORMAT_BEGIN
 90
        0
 91
        1
 62
     0
 92
       -2
340
0
 93
        0
 40
0.045
309
GRIDFORMAT_END
 95
        2
302
GRIDFORMAT
  1
GRIDFORMAT_BEGIN
 90
        0
 91
        1
 62
     0
 92
       -2
340
0
 93
        0
 40
0.045
309
GRIDFORMAT_END
 95
        4
302
GRIDFORMAT
  1
GRIDFORMAT_BEGIN
 90
        0
 91
        1
 62
     0
 92
       -2
340
0
 93
        0
 40
0.045
309
GRIDFORMAT_END
 95
        8
302
GRIDFORMAT
  1
GRIDFORMAT_BEGIN
 90
        0
 91
        1
 62
     0
 92
       -2
340
0
 93
        0
 40
0.045
309
GRIDFORMAT_END
 95
       16
302
GRIDFORMAT
  1
GRIDFORMAT_BEGIN
 90
        0
 91
        1
 62
     0
 92
       -2
340
0
 93
        0
 40
0.045
309
GRIDFORMAT_END
 95
       32
302
GRIDFORMAT
  1
GRIDFORMAT_BEGIN
 90
        0
 91
        1
 62
     0
 92
       -2
340
0
 93
        0
 40
0.045
309
GRIDFORMAT_END
309
TABLEFORMAT_END
  1
CELLSTYLE_BEGIN
 90
        1
 91
        1
300
_TITLE
309
CELLSTYLE_END
300
CELLSTYLE
  1
TABLEFORMAT_BEGIN
 90
        5
170
     1
 91
        0
 92
        0
 62
   257
 93
        1
300
CONTENTFORMAT
  1
CONTENTFORMAT_BEGIN
 90
        0
 91
        0
 92
        4
 93
        0
300

 40
0.0
140
1.0
 94
        5
 62
     0
340
C189
144
0.18
309
CONTENTFORMAT_END
171
     1
301
MARGIN
  1
CELLMARGIN_BEGIN
 40
0.06
 40
0.06
 40
0.06
 40
0.06
 40
0.18
 40
0.18
309
CELLMARGIN_END
 94
        6
 95
        1
302
GRIDFORMAT
  1
GRIDFORMAT_BEGIN
 90
        0
 91
        1
 62
     0
 92
       -2
340
0
 93
        0
 40
0.045
309
GRIDFORMAT_END
 95
        2
302
GRIDFORMAT
  1
GRIDFORMAT_BEGIN
 90
        0
 91
        1
 62
     0
 92
       -2
340
0
 93
        0
 40
0.045
309
GRIDFORMAT_END
 95
        4
302
GRIDFORMAT
  1
GRIDFORMAT_BEGIN
 90
        0
 91
        1
 62
     0
 92
       -2
340
0
 93
        0
 40
0.045
309
GRIDFORMAT_END
 95
        8
302
GRIDFORMAT
  1
GRIDFORMAT_BEGIN
 90
        0
 91
        1
 62
     0
 92
       -2
340
0
 93
        0
 40
0.045
309
GRIDFORMAT_END
 95
       16
302
GRIDFORMAT
  1
GRIDFORMAT_BEGIN
 90
        0
 91
        1
 62
     0
 92
       -2
340
0
 93
        0
 40
0.045
309
GRIDFORMAT_END
 95
       32
302
GRIDFORMAT
  1
GRIDFORMAT_BEGIN
 90
        0
 91
        1
 62
     0
 92
       -2
340
0
 93
        0
 40
0.045
309
GRIDFORMAT_END
309
TABLEFORMAT_END
  1
CELLSTYLE_BEGIN
 90
        2
 91
        1
300
_HEADER
309
CELLSTYLE_END
300
CELLSTYLE
  1
TABLEFORMAT_BEGIN
 90
        5
170
     1
 91
        0
 92
        0
 62
   257
 93
        1
300
CONTENTFORMAT
  1
CONTENTFORMAT_BEGIN
 90
        0
 91
        0
 92
        4
 93
        0
300

 40
0.0
140
1.0
 94
        2
 62
     0
340
C189
144
0.18
309
CONTENTFORMAT_END
171
     1
301
MARGIN
  1
CELLMARGIN_BEGIN
 40
0.06
 40
0.06
 40
0.06
 40
0.06
 40
0.18
 40
0.18
309
CELLMARGIN_END
 94
        6
 95
        1
302
GRIDFORMAT
  1
GRIDFORMAT_BEGIN
 90
        0
 91
        1
 62
     0
 92
       -2
340
0
 93
        0
 40
0.045
309
GRIDFORMAT_END
 95
        2
302
GRIDFORMAT
  1
GRIDFORMAT_BEGIN
 90
        0
 91
        1
 62
     0
 92
       -2
340
0
 93
        0
 40
0.045
309
GRIDFORMAT_END
 95
        4
302
GRIDFORMAT
  1
GRIDFORMAT_BEGIN
 90
        0
 91
        1
 62
     0
 92
       -2
340
0
 93
        0
 40
0.045
309
GRIDFORMAT_END
 95
        8
302
GRIDFORMAT
  1
GRIDFORMAT_BEGIN
 90
        0
 91
        1
 62
     0
 92
       -2
340
0
 93
        0
 40
0.045
309
GRIDFORMAT_END
 95
       16
302
GRIDFORMAT
  1
GRIDFORMAT_BEGIN
 90
        0
 91
        1
 62
     0
 92
       -2
340
0
 93
        0
 40
0.045
309
GRIDFORMAT_END
 95
       32
302
GRIDFORMAT
  1
GRIDFORMAT_BEGIN
 90
        0
 91
        1
 62
     0
 92
       -2
340
0
 93
        0
 40
0.045
309
GRIDFORMAT_END
309
TABLEFORMAT_END
  1
CELLSTYLE_BEGIN
 90
        3
 91
        2
300
_DATA
309
CELLSTYLE_END
  0
ENDSEC
  0
SECTION
  2
ACDSDATA
 70
     2
 71
     8
  0
ACDSSCHEMA
 90
        0
  1
AcDb_Thumbnail_Schema
  2
AcDbDs::ID
280
    10
 91
        8
  2
Thumbnail_Data
280
    15
 91
        0
101
ACDSRECORD
 95
        0
 90
        1
  2
AcDbDs::TreatedAsObjectData
280
     1
291
     1
101
ACDSRECORD
 95
        0
 90
        2
  2
AcDbDs::Legacy
280
     1
291
     1
101
ACDSRECORD
  1
AcDbDs::ID
 90
        3
  2
AcDs:Indexable
280
     1
291
     1
101
ACDSRECORD
  1
AcDbDs::ID
 90
        4
  2
AcDbDs::HandleAttribute
280
     7
282
     1
  0
ACDSSCHEMA
 90
        1
  1
AcDbDs::TreatedAsObjectDataSchema
  2
AcDbDs::TreatedAsObjectData
280
     1
 91
        0
  0
ACDSSCHEMA
 90
        2
  1
AcDbDs::LegacySchema
  2
AcDbDs::Legacy
280
     1
 91
        0
  0
ACDSSCHEMA
 90
        3
  1
AcDbDs::IndexedPropertySchema
  2
AcDs:Indexable
280
     1
 91
        0
  0
ACDSSCHEMA
 90
        4
  1
AcDbDs::HandleAttributeSchema
  2
AcDbDs::HandleAttribute
280
     7
 91
        1
284
     1
  0
ACDSRECORD
 90
        0
  2
AcDbDs::ID
280
    10
320
C181
  2
Thumbnail_Data
280
    15
 94
     1048
310
89504E470D0A1A0A0000000D49484452000000B40000008B0803000000FF3F437800000300504C5445FFFFFF000000FFFFFF0000000000000000000000000000000000000000000000000000330000660000990000CC0000FF0033000033330033660033990033CC0033FF0066000066330066660066990066CC0066FF0099
310
000099330099660099990099CC0099FF00CC0000CC3300CC6600CC9900CCCC00CCFF00FF0000FF3300FF6600FF9900FFCC00FFFF3300003300333300663300993300CC3300FF3333003333333333663333993333CC3333FF3366003366333366663366993366CC3366FF3399003399333399663399993399CC3399FF33CC00
310
33CC3333CC6633CC9933CCCC33CCFF33FF0033FF3333FF6633FF9933FFCC33FFFF6600006600336600666600996600CC6600FF6633006633336633666633996633CC6633FF6666006666336666666666996666CC6666FF6699006699336699666699996699CC6699FF66CC0066CC3366CC6666CC9966CCCC66CCFF66FF0066
310
FF3366FF6666FF9966FFCC66FFFF9900009900339900669900999900CC9900FF9933009933339933669933999933CC9933FF9966009966339966669966999966CC9966FF9999009999339999669999999999CC9999FF99CC0099CC3399CC6699CC9999CCCC99CCFF99FF0099FF3399FF6699FF9999FFCC99FFFFCC0000CC00
310
33CC0066CC0099CC00CCCC00FFCC3300CC3333CC3366CC3399CC33CCCC33FFCC6600CC6633CC6666CC6699CC66CCCC66FFCC9900CC9933CC9966CC9999CC99CCCC99FFCCCC00CCCC33CCCC66CCCC99CCCCCCCCCCFFCCFF00CCFF33CCFF66CCFF99CCFFCCCCFFFFFF0000FF0033FF0066FF0099FF00CCFF00FFFF3300FF3333
310
FF3366FF3399FF33CCFF33FFFF6600FF6633FF6666FF6699FF66CCFF66FFFF9900FF9933FF9966FF9999FF99CCFF99FFFFCC00FFCC33FFCC66FFCC99FFCCCCFFCCFFFFFF00FFFF33FFFF66FFFF99FFFFCCFFFFFF0000000D0D0D1A1A1A2828283535354343435050505D5D5D6B6B6B787878868686939393A1A1A1AEAEAEBB
310
BBBBC9C9C9D6D6D6E4E4E4F1F1F1FFFFFF000000000000000000000000000000000000000000000000000000000000790CAC0F000000D34944415478DAEDDD310A80300C0550EF7FCC5CC0C95D10041DA4568B34F665CCE2434ABF59E214E96A9EA7255B417F868E0DBD1F9643FF5CA5FEF2B27FFF0107749EB70C0D0D0D3D
310
243A65224243D7A0BBF9DEAF4277745940433F40471A744043434343434343434343B7401BB7A0A1A1A1A19BA3C538343434343434343434F46068E316343434347473B418878686868686868686861E0C6DDC82868686866E8E16E3D0D0D0D0D0D0D0D0D0D083A18D5BD0FF4767DCC3D475414397D1D62942434343778ECE
310
B8E95B8C435FA123E12F1956FC241BF103F904980000000049454E44AE426082
  0
ACDSRECORD
 90
        0
  2
AcDbDs::ID
280
    10
320
C17C
  2
Thumbnail_Data
280
    15
 94
     1669
310
89504E470D0A1A0A0000000D49484452000001000000006C0803000000B2ED9CC100000300504C5445FFFFFFFFFFFFFFFFFF0000000000000000000000000000000000000000000000000000330000660000990000CC0000FF0033000033330033660033990033CC0033FF0066000066330066660066990066CC0066FF0099
310
000099330099660099990099CC0099FF00CC0000CC3300CC6600CC9900CCCC00CCFF00FF0000FF3300FF6600FF9900FFCC00FFFF3300003300333300663300993300CC3300FF3333003333333333663333993333CC3333FF3366003366333366663366993366CC3366FF3399003399333399663399993399CC3399FF33CC00
310
33CC3333CC6633CC9933CCCC33CCFF33FF0033FF3333FF6633FF9933FFCC33FFFF6600006600336600666600996600CC6600FF6633006633336633666633996633CC6633FF6666006666336666666666996666CC6666FF6699006699336699666699996699CC6699FF66CC0066CC3366CC6666CC9966CCCC66CCFF66FF0066
310
FF3366FF6666FF9966FFCC66FFFF9900009900339900669900999900CC9900FF9933009933339933669933999933CC9933FF9966009966339966669966999966CC9966FF9999009999339999669999999999CC9999FF99CC0099CC3399CC6699CC9999CCCC99CCFF99FF0099FF3399FF6699FF9999FFCC99FFFFCC0000CC00
310
33CC0066CC0099CC00CCCC00FFCC3300CC3333CC3366CC3399CC33CCCC33FFCC6600CC6633CC6666CC6699CC66CCCC66FFCC9900CC9933CC9966CC9999CC99CCCC99FFCCCC00CCCC33CCCC66CCCC99CCCCCCCCCCFFCCFF00CCFF33CCFF66CCFF99CCFFCCCCFFFFFF0000FF0033FF0066FF0099FF00CCFF00FFFF3300FF3333
310
FF3366FF3399FF33CCFF33FFFF6600FF6633FF6666FF6699FF66CCFF66FFFF9900FF9933FF9966FF9999FF99CCFF99FFFFCC00FFCC33FFCC66FFCC99FFCCCCFFCCFFFFFF00FFFF33FFFF66FFFF99FFFFCCFFFFFF0000000D0D0D1A1A1A2828283535354343435050505D5D5D6B6B6B787878868686939393A1A1A1AEAEAEBB
310
BBBBC9C9C9D6D6D6E4E4E4F1F1F1FFFFFF000000000000000000000000000000000000000000000000000000000000AD4AB4E4000003404944415478DAED9C5B9683200C86799E97EC7F332C262B1911506E2A6A0991C069A7D673A6CAE76F124244A9D97837346F44BF29AFC1D21600EB875805E49B13C004200740D0A602
310
A61B9C002402D80C007A9BB04407FC0C14550370A11103E3886CDAF800FE6E2844B002A8AD43D73E83280090749815009A03993FDABA45BD6C2C000AE7303080301AC2F0C0910CC606A077051808A08A00705C00E188080B00942400C60660D1068C0AA0E4180419C1580CD61888F2023100EB072403C8E380C0128E0FA064
310
0310B7B401C2C800824BEDFA099B0B742E626C05804A8F0761B64804009F1974812144A7303800737F236E171B933D76E70700B86BF71880FFA2FD9E50015F00804FF3DB6977BF0AE0B102EC1D7F760E02BD809205401D00C80749A303C03051149F034800E07C60118094B1009F99A10E0AD82FBF4405D80383991830F73B
310
8BB941C2A9FB75C8BF4E0FBBC2B9EE006C111F2980DD0F28260A20BC17CC61D650D24E15B000E09D1219007B3CF345230723B865EA815A0148AF8048EFA105DC935463DB009794563A0060676B89B2911C01F8F95AB9006C6E460C80D406E0668AD055F61736618DDC829DB74A61804F9558AE80A04F3E1E827D586E6B5BF2
310
9D770054FC47D75B601740B31A3064A90064D4FA0008AC607C22C5CD74E747EB443300E118BD99D96554289ED46E133CCD804D7FFDB50D100D40BC028800F07A5E8A1E00B37612078803A0642A003300B21EE94A042FEFD1EE4401F2DA0430014C0013806C006A2A40F0620E4BD32EF2D313C00430014C00E504B77800BC16
310
79680DE03217924EE68EA780A873F9F5C6A88E661400D124D70580C613473D0028E9362004A0AE0AB62B15F09999D2560AC0C23B9B7AA81BAD117B014C319414806F14503D3E2331B6ADE280170AE80B205480181BD04301F58B49755340332FC01B00A10DA8FBF15E0A38EBD97B05DC40FC5905ECC566F1A2108A2100751A
310
07247D9D9160B50222375E1507C442A18C03F6D1605D24A8DA4482E329401D2BE0D8E52169E2E5D958E0070A380010BDF0DB5EA0A40038B7010C005C5DC81F8C06858C05305E1C0EFDF2C9170AE89D0FF8597BE605860310DB00A8F10259D43CAA02040028B8F3AB48B0C72DA0751363FBF975D67B36E9452B2F01FC03AD7F
310
F06E5487B07A0000000049454E44AE426082
  0
ENDSEC
  0
EOF
