  0
SECTION
  2
HEADER
  9
$ACADVER
  1
AC1032
  9
$ACADMAINTVER
 90
4
  9
$DWGCODEPAGE
  3
ANSI_1251
  9
$LASTSAVEDBY
  1
Xhaver
  9
$REQUIREDVERSIONS
160
0
  9
$INSBASE
 10
0.0
 20
0.0
 30
0.0
  9
$EXTMIN
 10
14685.18590362313
 20
5488.010932914993
 30
-1.16415251e-08
  9
$EXTMAX
 10
14704.29234381068
 20
5504.947540695092
 30
-1.16415251e-08
  9
$LIMMIN
 10
0.0
 20
0.0
  9
$LIMMAX
 10
12.0
 20
9.0
  9
$ORTHOMODE
 70
0
  9
$REGENMODE
 70
1
  9
$FILLMODE
 70
1
  9
$QTEXTMODE
 70
0
  9
$MIRRTEXT
 70
0
  9
$LTSCALE
 40
1.0
  9
$ATTMODE
 70
1
  9
$TEXTSIZE
 40
0.5319063004846553
  9
$TRACEWID
 40
0.05
  9
$TEXTSTYLE
  7
Style-Arial
  9
$CLAYER
  8
0
  9
$CELTYPE
  6
Continuous
  9
$CECOLOR
 62
1
  9
$CELTSCALE
 40
1.0
  9
$DISPSILH
 70
0
  9
$DIMSCALE
 40
1.0
  9
$DIMASZ
 40
0.1
  9
$DIMEXO
 40
0.1
  9
$DIMDLI
 40
0.0
  9
$DIMRND
 40
0.0
  9
$DIMDLE
 40
0.0
  9
$DIMEXE
 40
0.1
  9
$DIMTP
 40
0.0
  9
$DIMTM
 40
0.0
  9
$DIMTXT
 40
0.2
  9
$DIMCEN
 40
0.09
  9
$DIMTSZ
 40
0.0
  9
$DIMTOL
 70
0
  9
$DIMLIM
 70
0
  9
$DIMTIH
 70
0
  9
$DIMTOH
 70
0
  9
$DIMSE1
 70
0
  9
$DIMSE2
 70
0
  9
$DIMTAD
 70
1
  9
$DIMZIN
 70
11
  9
$DIMBLK
  1
Oblique
  9
$DIMASO
 70
1
  9
$DIMSHO
 70
1
  9
$DIMPOST
  1

  9
$DIMAPOST
  1

  9
$DIMALT
 70
0
  9
$DIMALTD
 70
4
  9
$DIMALTF
 40
1.0
  9
$DIMLFAC
 40
1000.0
  9
$DIMTOFL
 70
0
  9
$DIMTVP
 40
0.0
  9
$DIMTIX
 70
0
  9
$DIMSOXD
 70
0
  9
$DIMSAH
 70
0
  9
$DIMBLK1
  1

  9
$DIMBLK2
  1

  9
$DIMSTYLE
  2
100
  9
$DIMCLRD
 70
7
  9
$DIMCLRE
 70
7
  9
$DIMCLRT
 70
0
  9
$DIMTFAC
 40
1.0
  9
$DIMGAP
 40
0.1
  9
$DIMJUST
 70
0
  9
$DIMSD1
 70
0
  9
$DIMSD2
 70
0
  9
$DIMTOLJ
 70
0
  9
$DIMTZIN
 70
11
  9
$DIMALTZ
 70
15
  9
$DIMALTTZ
 70
15
  9
$DIMUPT
 70
0
  9
$DIMDEC
 70
4
  9
$DIMTDEC
 70
4
  9
$DIMALTU
 70
2
  9
$DIMALTTD
 70
4
  9
$DIMTXSTY
  7
Style-Arial
  9
$DIMAUNIT
 70
0
  9
$DIMADEC
 70
0
  9
$DIMALTRND
 40
0.0
  9
$DIMAZIN
 70
3
  9
$DIMDSEP
 70
46
  9
$DIMATFIT
 70
3
  9
$DIMFRAC
 70
0
  9
$DIMLDRBLK
  1
TerminatorOpen
  9
$DIMLUNIT
 70
2
  9
$DIMLWD
 70
0
  9
$DIMLWE
 70
0
  9
$DIMTMOVE
 70
0
  9
$DIMFXL
 40
1.0
  9
$DIMFXLON
 70
0
  9
$DIMJOGANG
 40
0.7853981633974483
  9
$DIMTFILL
 70
0
  9
$DIMTFILLCLR
 70
0
  9
$DIMARCSYM
 70
0
  9
$DIMLTYPE
  6

  9
$DIMLTEX1
  6

  9
$DIMLTEX2
  6

  9
$DIMTXTDIRECTION
 70
0
  9
$LUNITS
 70
2
  9
$LUPREC
 70
4
  9
$SKETCHINC
 40
0.1
  9
$FILLETRAD
 40
0.0
  9
$AUNITS
 70
0
  9
$AUPREC
 70
4
  9
$MENU
  1
.
  9
$ELEVATION
 40
0.0
  9
$PELEVATION
 40
0.0
  9
$THICKNESS
 40
0.0
  9
$LIMCHECK
 70
0
  9
$CHAMFERA
 40
0.0
  9
$CHAMFERB
 40
0.0
  9
$CHAMFERC
 40
0.0
  9
$CHAMFERD
 40
0.0
  9
$SKPOLY
 70
0
  9
$TDCREATE
 40
2461147.482037037
  9
$TDUCREATE
 40
2454144.778024017
  9
$TDUPDATE
 40
2461147.482037037
  9
$TDUUPDATE
 40
2461147.324803241
  9
$TDINDWG
 40
0.0076451157
  9
$TDUSRTIMER
 40
0.0076449306
  9
$USRTIMER
 70
1
  9
$ANGBASE
 50
0.0
  9
$ANGDIR
 70
0
  9
$PDMODE
 70
0
  9
$PDSIZE
 40
0.0
  9
$PLINEWID
 40
0.0
  9
$SPLFRAME
 70
0
  9
$SPLINETYPE
 70
6
  9
$SPLINESEGS
 70
8
  9
$HANDSEED
  5
9079D
  9
$SURFTAB1
 70
6
  9
$SURFTAB2
 70
6
  9
$SURFTYPE
 70
6
  9
$SURFU
 70
6
  9
$SURFV
 70
6
  9
$UCSBASE
  2

  9
$UCSNAME
  2

  9
$UCSORG
 10
0.0
 20
0.0
 30
0.0
  9
$UCSXDIR
 10
1.0
 20
0.0
 30
0.0
  9
$UCSYDIR
 10
0.0
 20
1.0
 30
0.0
  9
$UCSORTHOREF
  2

  9
$UCSORTHOVIEW
 70
0
  9
$UCSORGTOP
 10
0.0
 20
0.0
 30
0.0
  9
$UCSORGBOTTOM
 10
0.0
 20
0.0
 30
0.0
  9
$UCSORGLEFT
 10
0.0
 20
0.0
 30
0.0
  9
$UCSORGRIGHT
 10
0.0
 20
0.0
 30
0.0
  9
$UCSORGFRONT
 10
0.0
 20
0.0
 30
0.0
  9
$UCSORGBACK
 10
0.0
 20
0.0
 30
0.0
  9
$PUCSBASE
  2

  9
$PUCSNAME
  2

  9
$PUCSORG
 10
0.0
 20
0.0
 30
0.0
  9
$PUCSXDIR
 10
1.0
 20
0.0
 30
0.0
  9
$PUCSYDIR
 10
0.0
 20
1.0
 30
0.0
  9
$PUCSORTHOREF
  2

  9
$PUCSORTHOVIEW
 70
0
  9
$PUCSORGTOP
 10
0.0
 20
0.0
 30
0.0
  9
$PUCSORGBOTTOM
 10
0.0
 20
0.0
 30
0.0
  9
$PUCSORGLEFT
 10
0.0
 20
0.0
 30
0.0
  9
$PUCSORGRIGHT
 10
0.0
 20
0.0
 30
0.0
  9
$PUCSORGFRONT
 10
0.0
 20
0.0
 30
0.0
  9
$PUCSORGBACK
 10
0.0
 20
0.0
 30
0.0
  9
$USERI1
 70
0
  9
$USERI2
 70
0
  9
$USERI3
 70
0
  9
$USERI4
 70
0
  9
$USERI5
 70
0
  9
$USERR1
 40
0.0
  9
$USERR2
 40
0.0
  9
$USERR3
 40
0.0
  9
$USERR4
 40
0.0
  9
$USERR5
 40
0.0
  9
$WORLDVIEW
 70
1
  9
$SHADEDGE
 70
3
  9
$SHADEDIF
 70
70
  9
$TILEMODE
 70
1
  9
$MAXACTVP
 70
64
  9
$PINSBASE
 10
0.0
 20
0.0
 30
0.0
  9
$PLIMCHECK
 70
0
  9
$PEXTMIN
 10
1.049743681505489
 20
0.7996673802841308
 30
-0.0015258207003583
  9
$PEXTMAX
 10
9.450622583565561
 20
7.200576801086516
 30
3.49246037e-08
  9
$PLIMMIN
 10
-0.2500002402958907
 20
-0.2499999962453767
  9
$PLIMMAX
 10
10.74999951940821
 20
8.249999763458732
  9
$UNITMODE
 70
0
  9
$VISRETAIN
 70
1
  9
$PLINEGEN
 70
0
  9
$PSLTSCALE
 70
0
  9
$TREEDEPTH
 70
3020
  9
$CMLSTYLE
  2
Standard
  9
$CMLJUST
 70
0
  9
$CMLSCALE
 40
1.0
  9
$PROXYGRAPHICS
 70
1
  9
$MEASUREMENT
 70
0
  9
$CELWEIGHT
370
40
  9
$ENDCAPS
280
0
  9
$JOINSTYLE
280
0
  9
$LWDISPLAY
290
1
  9
$INSUNITS
 70
6
  9
$HYPERLINKBASE
  1

  9
$STYLESHEET
  1

  9
$XEDIT
290
1
  9
$CEPSNTYPE
380
0
  9
$PSTYLEMODE
290
1
  9
$FINGERPRINTGUID
  2
{24FD6D57-612D-4DDB-B176-8214555A0ACF}
  9
$VERSIONGUID
  2
{75321797-65C3-4E67-A6A7-205951C4FC37}
  9
$EXTNAMES
290
1
  9
$PSVPSCALE
 40
0.0
  9
$OLESTARTUP
290
0
  9
$SORTENTS
280
127
  9
$INDEXCTL
280
0
  9
$HIDETEXT
280
1
  9
$XCLIPFRAME
280
0
  9
$HALOGAP
280
0
  9
$OBSCOLOR
 70
257
  9
$OBSLTYPE
280
0
  9
$INTERSECTIONDISPLAY
280
0
  9
$INTERSECTIONCOLOR
 70
257
  9
$DIMASSOC
280
2
  9
$PROJECTNAME
  1

  9
$CAMERADISPLAY
290
0
  9
$LENSLENGTH
 40
50.0
  9
$CAMERAHEIGHT
 40
0.0
  9
$STEPSPERSEC
 40
2.0
  9
$STEPSIZE
 40
6.0
  9
$3DDWFPREC
 40
2.0
  9
$PSOLWIDTH
 40
0.25
  9
$PSOLHEIGHT
 40
4.0
  9
$LOFTANG1
 40
1.570796326794896
  9
$LOFTANG2
 40
1.570796326794896
  9
$LOFTMAG1
 40
0.0
  9
$LOFTMAG2
 40
0.0
  9
$LOFTPARAM
 70
7
  9
$LOFTNORMALS
280
1
  9
$LATITUDE
 40
37.795
  9
$LONGITUDE
 40
-122.394
  9
$NORTHDIRECTION
 40
0.0
  9
$TIMEZONE
 70
-8000
  9
$LIGHTGLYPHDISPLAY
280
1
  9
$TILEMODELIGHTSYNCH
280
1
  9
$CMATERIAL
347
88D9C
  9
$SOLIDHIST
280
1
  9
$SHOWHIST
280
1
  9
$DWFFRAME
280
2
  9
$DGNFRAME
280
0
  9
$REALWORLDSCALE
290
1
  9
$INTERFERECOLOR
 62
1
  9
$INTERFEREOBJVS
345
88DB2
  9
$INTERFEREVPVS
346
88DB3
  9
$CSHADOW
280
0
  9
$SHADOWPLANELOCATION
 40
0.0
  0
ENDSEC
  0
SECTION
  2
CLASSES
  0
CLASS
  1
ACDBDICTIONARYWDFLT
  2
AcDbDictionaryWithDefault
  3
ObjectDBX Classes
 90
0
 91
1
280
0
281
0
  0
CLASS
  1
DICTIONARYVAR
  2
AcDbDictionaryVar
  3
ObjectDBX Classes
 90
0
 91
17
280
0
281
0
  0
CLASS
  1
TABLESTYLE
  2
AcDbTableStyle
  3
ObjectDBX Classes
 90
4095
 91
1
280
0
281
0
  0
CLASS
  1
MATERIAL
  2
AcDbMaterial
  3
ObjectDBX Classes
 90
1153
 91
3
280
0
281
0
  0
CLASS
  1
VISUALSTYLE
  2
AcDbVisualStyle
  3
ObjectDBX Classes
 90
4095
 91
26
280
0
281
0
  0
CLASS
  1
SCALE
  2
AcDbScale
  3
ObjectDBX Classes
 90
1153
 91
33
280
0
281
0
  0
CLASS
  1
MLEADERSTYLE
  2
AcDbMLeaderStyle
  3
ACDB_MLEADERSTYLE_CLASS
 90
4095
 91
1
280
0
281
0
  0
CLASS
  1
IMAGE
  2
AcDbRasterImage
  3
ISM
 90
2175
 91
4
280
0
281
1
  0
CLASS
  1
IMAGEDEF
  2
AcDbRasterImageDef
  3
ISM
 90
0
 91
4
280
0
281
0
  0
CLASS
  1
IMAGEDEF_REACTOR
  2
AcDbRasterImageDefReactor
  3
ISM
 90
1
 91
4
280
0
281
0
  0
CLASS
  1
RASTERVARIABLES
  2
AcDbRasterVariables
  3
ISM
 90
0
 91
1
280
0
281
0
  0
CLASS
  1
SORTENTSTABLE
  2
AcDbSortentsTable
  3
ObjectDBX Classes
 90
0
 91
7
280
0
281
0
  0
CLASS
  1
DBCOLOR
  2
AcDbColor
  3
ObjectDBX Classes
 90
0
 91
1
280
0
281
0
  0
CLASS
  1
CELLSTYLEMAP
  2
AcDbCellStyleMap
  3
ObjectDBX Classes
 90
1152
 91
2
280
0
281
0
  0
CLASS
  1
ACDBSECTIONVIEWSTYLE
  2
AcDbSectionViewStyle
  3
ObjectDBX Classes
 90
1025
 91
1
280
0
281
0
  0
CLASS
  1
ACDBDETAILVIEWSTYLE
  2
AcDbDetailViewStyle
  3
ObjectDBX Classes
 90
1025
 91
1
280
0
281
0
  0
CLASS
  1
SUN
  2
AcDbSun
  3
SCENEOE
 90
1153
 91
0
280
0
281
0
  0
CLASS
  1
MENTALRAYRENDERSETTINGS
  2
AcDbMentalRayRenderSettings
  3
SCENEOE
 90
1024
 91
0
280
0
281
0
  0
CLASS
  1
LAYOUT
  2
AcDbLayout
  3
ObjectDBX Classes
 90
0
 91
0
280
0
281
0
  0
CLASS
  1
ACDBPLACEHOLDER
  2
AcDbPlaceHolder
  3
ObjectDBX Classes
 90
0
 91
0
280
0
281
0
  0
ENDSEC
  0
SECTION
  2
TABLES
  0
TABLE
  2
VPORT
  5
88D90
330
0
100
AcDbSymbolTable
 70
1
  0
VPORT
  5
48D
330
88D90
100
AcDbSymbolTableRecord
100
AcDbViewportTableRecord
  2
*ACTIVE
 70
0
 10
0.0
 20
0.0
 11
1.0
 21
1.0
 12
14694.73912371691
 22
5496.479236805043
 13
0.0
 23
0.0
 14
0.1
 24
0.1
 15
0.1
 25
0.1
 16
0.0
 26
0.0
 36
1.0
 17
0.0
 27
0.0
 37
0.0
 40
17.0235364770042
 41
1.663527397260273
 42
50.0
 43
0.0
 44
0.0
 50
0.0
 51
0.0
 71
0
 72
100
 73
1
 74
0
 75
0
 76
0
 77
0
 78
1
281
0
 65
1
110
0.0
120
0.0
130
0.0
111
1.0
121
0.0
131
0.0
112
0.0
122
1.0
132
0.0
 79
0
146
0.0
 60
3
 61
10
348
88D92
292
1
282
1
141
0.0
142
0.0
 63
250
421
3355443
1001
ACAD_NAV_VCDISPLAY
1070
3
  0
ENDTAB
  0
TABLE
  2
LTYPE
  5
88D8B
330
0
100
AcDbSymbolTable
 70
4
  0
LTYPE
  5
88D8C
330
88D8B
100
AcDbSymbolTableRecord
100
AcDbLinetypeTableRecord
  2
ByBlock
 70
0
  3

 72
65
 73
0
 40
0.0
  0
LTYPE
  5
88D8D
330
88D8B
100
AcDbSymbolTableRecord
100
AcDbLinetypeTableRecord
  2
ByLayer
 70
0
  3

 72
65
 73
0
 40
0.0
  0
LTYPE
  5
88D7A
330
88D8B
100
AcDbSymbolTableRecord
100
AcDbLinetypeTableRecord
  2
Continuous
 70
0
  3
Solid line
 72
65
 73
0
 40
0.0
  0
LTYPE
  5
255EF
330
88D8B
100
AcDbSymbolTableRecord
100
AcDbLinetypeTableRecord
  2
DGN Style 4
 70
0
  3

 72
65
 73
4
 40
5.601258242091302
 49
2.798879821157427
 74
0
 49
-1.399439910578713
 74
0
 49
0.0034985997764468
 74
0
 49
-1.399439910578713
 74
0
  0
ENDTAB
  0
TABLE
  2
LAYER
  5
88D85
102
{ACAD_XDICTIONARY
360
88D86
102
}
330
0
100
AcDbSymbolTable
 70
4
  0
LAYER
  5
88D6D
102
{ACAD_XDICTIONARY
360
904EA
102
}
330
88D85
100
AcDbSymbolTableRecord
100
AcDbLayerTableRecord
  2
0
 70
0
 62
7
  6
Continuous
370
-3
390
88D6E
347
88D71
348
0
  0
LAYER
  5
19AE1
102
{ACAD_XDICTIONARY
360
9056E
102
}
330
88D85
100
AcDbSymbolTableRecord
100
AcDbLayerTableRecord
  2
Стены
 70
0
 62
7
  6
Continuous
370
13
390
88D6E
347
88D71
348
0
  0
LAYER
  5
25EA8
330
88D85
100
AcDbSymbolTableRecord
100
AcDbLayerTableRecord
  2
Defpoints
 70
0
 62
7
  6
Continuous
290
0
370
0
390
88D6E
347
88D71
348
0
  0
LAYER
  5
49DDC
102
{ACAD_XDICTIONARY
360
905B6
102
}
330
88D85
100
AcDbSymbolTableRecord
100
AcDbLayerTableRecord
  2
Оси
 70
0
 62
7
  6
Continuous
370
0
390
88D6E
347
88D71
348
0
  0
ENDTAB
  0
TABLE
  2
STYLE
  5
88D88
330
0
100
AcDbSymbolTable
 70
4
  0
STYLE
  5
88D89
330
88D88
100
AcDbSymbolTableRecord
100
AcDbTextStyleTableRecord
  2
Standard
 70
0
 40
0.0025
 41
1.0
 50
0.0
 71
0
 42
0.5319063004846553
  3
txt.shx
  4

  0
STYLE
  5
25E28
330
88D88
100
AcDbSymbolTableRecord
100
AcDbTextStyleTableRecord
  2
Style-Arial
 70
0
 40
0.0
 41
1.0
 50
0.0
 71
0
 42
0.5319063004846553
  3
arial.ttf
  4

1001
ACAD
1000
Arial
1071
52263
  0
STYLE
  5
49C31
330
88D88
100
AcDbSymbolTableRecord
100
AcDbTextStyleTableRecord
  2
Style-txt
 70
0
 40
0.0
 41
1.0
 50
0.0
 71
0
 42
0.2
  3
txt.shx
  4

  0
STYLE
  5
88DE7
330
88D88
100
AcDbSymbolTableRecord
100
AcDbTextStyleTableRecord
  2
Standard_0
 70
0
 40
0.0
 41
1.0
 50
0.0
 71
0
 42
0.2
  3
txt.shx
  4

  0
ENDTAB
  0
TABLE
  2
VIEW
  5
88D8E
330
0
100
AcDbSymbolTable
 70
0
  0
ENDTAB
  0
TABLE
  2
UCS
  5
88D8F
330
0
100
AcDbSymbolTable
 70
0
  0
ENDTAB
  0
TABLE
  2
APPID
  5
88D94
330
0
100
AcDbSymbolTable
 70
12
  0
APPID
  5
88D95
330
88D94
100
AcDbSymbolTableRecord
100
AcDbRegAppTableRecord
  2
ACAD
 70
0
  0
APPID
  5
88D84
330
88D94
100
AcDbSymbolTableRecord
100
AcDbRegAppTableRecord
  2
ACAD_PSEXT
 70
0
  0
APPID
  5
88DD7
330
88D94
100
AcDbSymbolTableRecord
100
AcDbRegAppTableRecord
  2
AcAecLayerStandard
 70
0
  0
APPID
  5
25E8F
330
88D94
100
AcDbSymbolTableRecord
100
AcDbRegAppTableRecord
  2
AcDbBlockRepETag
 70
0
  0
APPID
  5
4BD58
330
88D94
100
AcDbSymbolTableRecord
100
AcDbRegAppTableRecord
  2
GradientColor1ACI
 70
0
  0
APPID
  5
4BD59
330
88D94
100
AcDbSymbolTableRecord
100
AcDbRegAppTableRecord
  2
GradientColor2ACI
 70
0
  0
APPID
  5
607E8
330
88D94
100
AcDbSymbolTableRecord
100
AcDbRegAppTableRecord
  2
AcadAnnotative
 70
0
  0
APPID
  5
8C09B
330
88D94
100
AcDbSymbolTableRecord
100
AcDbRegAppTableRecord
  2
ACAD_MLEADERVER
 70
0
  0
APPID
  5
90644
330
88D94
100
AcDbSymbolTableRecord
100
AcDbRegAppTableRecord
  2
ACAD_NAV_VCDISPLAY
 70
0
  0
APPID
  5
90649
330
88D94
100
AcDbSymbolTableRecord
100
AcDbRegAppTableRecord
  2
ACAD_EXEMPT_FROM_CAD_STANDARDS
 70
0
  0
APPID
  5
90799
330
88D94
100
AcDbSymbolTableRecord
100
AcDbRegAppTableRecord
  2
HATCHBACKGROUNDCOLOR
 70
0
  0
APPID
  5
9079A
330
88D94
100
AcDbSymbolTableRecord
100
AcDbRegAppTableRecord
  2
EZDXF
 70
0
  0
ENDTAB
  0
TABLE
  2
DIMSTYLE
  5
88D96
330
0
100
AcDbSymbolTable
 70
2
100
AcDbDimStyleTable
  0
DIMSTYLE
105
88D97
330
88D96
100
AcDbSymbolTableRecord
100
AcDbDimStyleTableRecord
  2
Standard
 70
0
 40
1.0
 41
0.00018
 42
0.625
 43
0.00038
 44
0.0002
 45
0.0
 46
0.0
 47
0.0
 48
0.0
 49
0.01
140
0.00018
141
9e-05
142
0.0
143
0.03937007874
144
1000.0
145
0.0
146
1.0
147
9e-05
148
0.0
 69
0
 70
0
 71
0
 72
0
 73
0
 74
0
 75
0
 76
0
 77
1
 78
8
 79
3
170
0
171
3
172
1
173
0
174
0
175
0
176
0
177
0
178
0
179
2
271
2
272
2
273
2
274
3
275
0
276
0
277
2
278
44
279
0
280
0
281
0
282
0
283
0
284
8
285
0
286
0
288
0
289
0
290
1
340
88DE7
371
-2
372
-2
  0
DIMSTYLE
105
53ECF
330
88D96
100
AcDbSymbolTableRecord
100
AcDbDimStyleTableRecord
  2
100
 70
0
 40
1.0
 41
0.1875
 42
0.125
 43
0.0
 44
0.125
 45
0.0
 46
0.0
 47
0.0
 48
0.0
 49
2.5
140
0.25
141
0.09
142
0.0
143
1.0
144
1000.0
145
0.0
146
1.0
147
0.0625
148
0.0
 69
0
 70
0
 71
0
 72
0
 73
0
 74
0
 75
0
 76
0
 77
1
 78
11
 79
3
170
0
171
4
172
1
173
0
174
0
175
0
176
0
177
0
178
0
179
2
271
0
272
0
273
2
274
4
275
0
276
2
277
2
278
44
279
0
280
0
281
0
282
0
283
0
284
11
285
15
286
15
288
0
289
3
290
0
340
49C31
341
88DE1
342
88DDA
371
0
372
0
  0
ENDTAB
  0
TABLE
  2
BLOCK_RECORD
  5
88D6A
330
0
100
AcDbSymbolTable
 70
4
  0
BLOCK_RECORD
  5
88D6B
102
{ACAD_XDICTIONARY
360
8AD05
102
}
330
88D6A
100
AcDbSymbolTableRecord
100
AcDbBlockTableRecord
  2
*Model_Space
340
88D7C
 70
0
280
1
281
0
  0
BLOCK_RECORD
  5
88D7E
330
88D6A
100
AcDbSymbolTableRecord
100
AcDbBlockTableRecord
  2
*Paper_Space
340
88D81
 70
0
280
1
281
0
  0
BLOCK_RECORD
  5
88DDA
330
88D6A
100
AcDbSymbolTableRecord
100
AcDbBlockTableRecord
  2
_Oblique
340
0
 70
0
280
1
281
0
  0
BLOCK_RECORD
  5
88DE1
330
88D6A
100
AcDbSymbolTableRecord
100
AcDbBlockTableRecord
  2
TerminatorOpen
340
0
 70
0
280
1
281
0
  0
ENDTAB
  0
ENDSEC
  0
SECTION
  2
BLOCKS
  0
BLOCK
  5
88D6C
330
88D6B
100
AcDbEntity
  8
0
100
AcDbBlockBegin
  2
*Model_Space
 70
0
 10
0.0
 20
0.0
 30
0.0
  3
*Model_Space
  1

  0
ENDBLK
  5
88D7B
330
88D6B
100
AcDbEntity
  8
0
100
AcDbBlockEnd
  0
BLOCK
  5
88D7F
330
88D7E
100
AcDbEntity
 67
1
  8
0
100
AcDbBlockBegin
  2
*Paper_Space
 70
0
 10
0.0
 20
0.0
 30
0.0
  3
*Paper_Space
  1

  0
ENDBLK
  5
88D80
330
88D7E
100
AcDbEntity
 67
1
  8
0
100
AcDbBlockEnd
  0
BLOCK
  5
88DDC
330
88DDA
100
AcDbEntity
  8
0
100
AcDbBlockBegin
  2
_Oblique
 70
0
 10
0.0
 20
0.0
 30
0.0
  3
_Oblique
  1

  0
LINE
  5
88DDB
330
88DDA
100
AcDbEntity
  8
0
  6
ByBlock
 62
0
370
-2
100
AcDbLine
 10
0.5
 20
0.5
 30
0.0
 11
-0.5
 21
-0.5
 31
0.0
  0
ENDBLK
  5
88DDD
330
88DDA
100
AcDbEntity
  8
0
100
AcDbBlockEnd
  0
BLOCK
  5
88DE5
330
88DE1
100
AcDbEntity
  8
0
100
AcDbBlockBegin
  2
TerminatorOpen
 70
0
 10
0.0
 20
0.0
 30
0.0
  3
TerminatorOpen
  1

  0
LINE
  5
88DE2
330
88DE1
100
AcDbEntity
  8
0
  6
ByBlock
 62
0
370
-2
100
AcDbLine
 10
0.0
 20
0.0
 30
0.0
 11
-1.0
 21
0.0
 31
0.0
  0
LINE
  5
88DE3
330
88DE1
100
AcDbEntity
  8
0
  6
ByBlock
 62
0
370
-2
100
AcDbLine
 10
0.0
 20
0.0
 30
0.0
 11
-1.0
 21
0.5
 31
0.0
  0
LINE
  5
88DE4
330
88DE1
100
AcDbEntity
  8
0
  6
ByBlock
 62
0
370
-2
100
AcDbLine
 10
0.0
 20
0.0
 30
0.0
 11
-1.0
 21
-0.5
 31
0.0
  0
ENDBLK
  5
88DE6
330
88DE1
100
AcDbEntity
  8
0
100
AcDbBlockEnd
  0
ENDSEC
  0
SECTION
  2
ENTITIES
  0
LINE
  5
75506
330
88D6B
100
AcDbEntity
  8
0
  6
Continuous
 62
7
370
30
100
AcDbLine
 10
14685.33590408847
 20
5503.313031451034
 30
0.0
 11
14685.33590408847
 21
5501.403031451033
 31
0.0
  0
LINE
  5
75507
330
88D6B
100
AcDbEntity
  8
0
  6
Continuous
 62
7
370
30
100
AcDbLine
 10
14685.33590408847
 20
5503.313031451034
 30
0.0
 11
14688.50590408847
 21
5503.313031451034
 31
0.0
  0
LINE
  5
75508
330
88D6B
100
AcDbEntity
  8
0
  6
Continuous
 62
7
370
30
100
AcDbLine
 10
14685.84590408847
 20
5502.803031451033
 30
0.0
 11
14688.50590408847
 21
5502.803031451033
 31
0.0
  0
LINE
  5
75509
330
88D6B
100
AcDbEntity
  8
0
  6
Continuous
 62
7
370
30
100
AcDbLine
 10
14685.84590408847
 20
5502.803031451033
 30
0.0
 11
14685.84590408847
 21
5501.403031451033
 31
0.0
  0
LINE
  5
7550F
330
88D6B
100
AcDbEntity
  8
0
  6
Continuous
 62
7
370
30
100
AcDbLine
 10
14690.95590408848
 20
5502.803031451033
 30
0.0
 11
14690.95590408848
 21
5498.943031451034
 31
0.0
  0
LINE
  5
75510
330
88D6B
100
AcDbEntity
  8
0
  6
Continuous
 62
7
370
30
100
AcDbLine
 10
14691.40590408847
 20
5502.803031451033
 30
0.0
 11
14691.40590408847
 21
5498.943031451034
 31
0.0
  0
LINE
  5
75516
330
88D6B
100
AcDbEntity
  8
0
  6
Continuous
 62
7
370
30
100
AcDbLine
 10
14690.40590408847
 20
5502.803031451033
 30
0.0
 11
14690.95590408848
 21
5502.803031451033
 31
0.0
  0
LINE
  5
75528
330
88D6B
100
AcDbEntity
  8
0
  6
Continuous
 62
7
370
30
100
AcDbLine
 10
14685.84590408847
 20
5489.483031451033
 30
0.0
 11
14688.85590408848
 21
5489.483031451033
 31
0.0
  0
LINE
  5
75529
330
88D6B
100
AcDbEntity
  8
0
  6
Continuous
 62
7
370
30
100
AcDbLine
 10
14685.33590408847
 20
5488.973031451034
 30
0.0
 11
14688.85590408848
 21
5488.973031451034
 31
0.0
  0
LINE
  5
7552A
330
88D6B
100
AcDbEntity
  8
0
  6
Continuous
 62
7
370
13
100
AcDbLine
 10
14688.35590408848
 20
5502.803031451033
 30
0.0
 11
14688.35590408848
 21
5500.603031451033
 31
0.0
  0
LINE
  5
7552B
330
88D6B
100
AcDbEntity
  8
0
  6
Continuous
 62
7
370
13
100
AcDbLine
 10
14688.50590408847
 20
5502.803031451033
 30
0.0
 11
14688.50590408847
 21
5500.603031451033
 31
0.0
  0
LINE
  5
7552C
330
88D6B
100
AcDbEntity
  8
0
  6
Continuous
 62
7
370
30
100
AcDbLine
 10
14691.40590408847
 20
5489.483031451033
 30
0.0
 11
14691.80590408847
 21
5489.483031451033
 31
0.0
  0
LINE
  5
7553B
330
88D6B
100
AcDbEntity
  8
0
  6
Continuous
 62
7
370
30
100
AcDbLine
 10
14690.75590408847
 20
5488.973031451034
 30
0.0
 11
14691.80590408847
 21
5488.973031451034
 31
0.0
  0
LINE
  5
75540
330
88D6B
100
AcDbEntity
  8
0
  6
Continuous
 62
7
370
30
100
AcDbLine
 10
14690.75590408847
 20
5489.483031451033
 30
0.0
 11
14690.95590408848
 21
5489.483031451033
 31
0.0
  0
LINE
  5
75541
330
88D6B
100
AcDbEntity
  8
0
  6
Continuous
 62
7
370
30
100
AcDbLine
 10
14691.40590408847
 20
5497.233031451034
 30
0.0
 11
14691.40590408847
 21
5496.858031451034
 31
0.0
  0
LINE
  5
75542
330
88D6B
100
AcDbEntity
  8
0
  6
Continuous
 62
7
370
30
100
AcDbLine
 10
14691.40590408847
 20
5494.633031451034
 30
0.0
 11
14691.40590408847
 21
5494.383031451033
 31
0.0
  0
LINE
  5
75543
330
88D6B
100
AcDbEntity
  8
0
  6
Continuous
 62
7
370
13
100
AcDbLine
 10
14693.70590408848
 20
5494.633031451034
 30
0.0
 11
14693.70590408848
 21
5494.183031451033
 31
0.0
  0
LINE
  5
75544
330
88D6B
100
AcDbEntity
  8
0
  6
Continuous
 62
7
370
13
100
AcDbLine
 10
14693.85590408847
 20
5494.633031451034
 30
0.0
 11
14693.85590408847
 21
5494.183031451033
 31
0.0
  0
LINE
  5
75546
330
88D6B
100
AcDbEntity
  8
0
  6
Continuous
 62
7
370
30
100
AcDbLine
 10
14691.40590408847
 20
5496.858031451034
 30
0.0
 11
14690.95590408848
 21
5496.858031451034
 31
0.0
  0
LINE
  5
75547
330
88D6B
100
AcDbEntity
  8
0
  6
Continuous
 62
7
370
30
100
AcDbLine
 10
14691.40590408847
 20
5495.458031451033
 30
0.0
 11
14690.95590408848
 21
5495.458031451033
 31
0.0
  0
LINE
  5
75548
330
88D6B
100
AcDbEntity
  8
0
  6
Continuous
 62
7
370
30
100
AcDbLine
 10
14691.40590408847
 20
5495.458031451033
 30
0.0
 11
14691.40590408847
 21
5495.083031451033
 31
0.0
  0
LINE
  5
75549
330
88D6B
100
AcDbEntity
  8
0
  6
Continuous
 62
7
370
30
100
AcDbLine
 10
14690.95590408848
 20
5495.458031451033
 30
0.0
 11
14690.95590408848
 21
5494.383031451033
 31
0.0
  0
LINE
  5
7554A
330
88D6B
100
AcDbEntity
  8
0
  6
Continuous
 62
7
370
13
100
AcDbLine
 10
14685.84590408847
 20
5497.603031451034
 30
0.0
 11
14686.24590408848
 21
5497.603031451034
 31
0.0
  0
LINE
  5
7554B
330
88D6B
100
AcDbEntity
  8
0
  6
Continuous
 62
7
370
13
100
AcDbLine
 10
14685.84590408847
 20
5497.453031451033
 30
0.0
 11
14686.24590408848
 21
5497.453031451033
 31
0.0
  0
LINE
  5
7554C
330
88D6B
100
AcDbEntity
  8
0
  6
Continuous
 62
7
370
13
100
AcDbLine
 10
14685.84590408847
 20
5494.603031451034
 30
0.0
 11
14689.55590408847
 21
5494.603031451034
 31
0.0
  0
LINE
  5
7554D
330
88D6B
100
AcDbEntity
  8
0
  6
Continuous
 62
7
370
13
100
AcDbLine
 10
14685.84590408847
 20
5494.453031451033
 30
0.0
 11
14689.55590408847
 21
5494.453031451033
 31
0.0
  0
LINE
  5
75559
330
88D6B
100
AcDbEntity
  8
0
  6
Continuous
 62
7
370
13
100
AcDbLine
 10
14685.84590408847
 20
5499.403031451034
 30
0.0
 11
14688.35590408848
 21
5499.403031451034
 31
0.0
  0
LINE
  5
7555A
330
88D6B
100
AcDbEntity
  8
0
  6
Continuous
 62
7
370
13
100
AcDbLine
 10
14685.84590408847
 20
5499.253031451033
 30
0.0
 11
14688.35590408848
 21
5499.253031451033
 31
0.0
  0
LINE
  5
7555B
330
88D6B
100
AcDbEntity
  8
0
  6
Continuous
 62
7
370
13
100
AcDbLine
 10
14688.35590408848
 20
5499.703031451034
 30
0.0
 11
14688.50590408847
 21
5499.703031451034
 31
0.0
  0
LINE
  5
7555C
330
88D6B
100
AcDbEntity
  8
0
  6
Continuous
 62
7
370
13
100
AcDbLine
 10
14688.35590408848
 20
5500.603031451033
 30
0.0
 11
14688.50590408847
 21
5500.603031451033
 31
0.0
  0
LINE
  5
7555D
330
88D6B
100
AcDbEntity
  8
0
  6
Continuous
 62
7
370
13
100
AcDbLine
 10
14688.35590408848
 20
5499.703031451034
 30
0.0
 11
14688.35590408848
 21
5498.803031451033
 31
0.0
  0
LINE
  5
7555E
330
88D6B
100
AcDbEntity
  8
0
  6
Continuous
 62
7
370
13
100
AcDbLine
 10
14688.50590408847
 20
5499.703031451034
 30
0.0
 11
14688.50590408847
 21
5498.803031451033
 31
0.0
  0
LINE
  5
75564
330
88D6B
100
AcDbEntity
  8
0
  6
Continuous
 62
7
370
30
100
AcDbLine
 10
14691.40590408847
 20
5495.083031451033
 30
0.0
 11
14695.13590408847
 21
5495.083031451033
 31
0.0
  0
LINE
  5
75565
330
88D6B
100
AcDbEntity
  8
0
  6
Continuous
 62
7
370
30
100
AcDbLine
 10
14691.40590408847
 20
5494.633031451034
 30
0.0
 11
14695.13590408847
 21
5494.633031451034
 31
0.0
  0
LINE
  5
75568
330
88D6B
100
AcDbEntity
  8
0
  6
Continuous
 62
7
370
13
100
AcDbLine
 10
14690.45590408847
 20
5497.603031451034
 30
0.0
 11
14690.45590408847
 21
5497.453031451033
 31
0.0
  0
LINE
  5
75569
330
88D6B
100
AcDbEntity
  8
0
  6
Continuous
 62
7
370
13
100
AcDbLine
 10
14689.55590408847
 20
5497.603031451034
 30
0.0
 11
14689.55590408847
 21
5497.453031451033
 31
0.0
  0
LINE
  5
7556A
330
88D6B
100
AcDbEntity
  8
0
  6
Continuous
 62
7
370
13
100
AcDbLine
 10
14690.45590408847
 20
5494.603031451034
 30
0.0
 11
14690.45590408847
 21
5494.453031451033
 31
0.0
  0
LINE
  5
7556B
330
88D6B
100
AcDbEntity
  8
0
  6
Continuous
 62
7
370
13
100
AcDbLine
 10
14689.55590408847
 20
5494.603031451034
 30
0.0
 11
14689.55590408847
 21
5494.453031451033
 31
0.0
  0
LINE
  5
7556C
330
88D6B
100
AcDbEntity
  8
0
  6
Continuous
 62
7
370
13
100
AcDbLine
 10
14690.45590408847
 20
5497.453031451033
 30
0.0
 11
14690.95590408848
 21
5497.453031451033
 31
0.0
  0
LINE
  5
7556D
330
88D6B
100
AcDbEntity
  8
0
  6
Continuous
 62
7
370
13
100
AcDbLine
 10
14690.45590408847
 20
5497.603031451034
 30
0.0
 11
14690.95590408848
 21
5497.603031451034
 31
0.0
  0
LINE
  5
7556E
330
88D6B
100
AcDbEntity
  8
0
  6
Continuous
 62
7
370
13
100
AcDbLine
 10
14690.45590408847
 20
5494.453031451033
 30
0.0
 11
14690.95590408848
 21
5494.453031451033
 31
0.0
  0
LINE
  5
7556F
330
88D6B
100
AcDbEntity
  8
0
  6
Continuous
 62
7
370
13
100
AcDbLine
 10
14690.45590408847
 20
5494.603031451034
 30
0.0
 11
14690.95590408848
 21
5494.603031451034
 31
0.0
  0
LINE
  5
75570
330
88D6B
100
AcDbEntity
  8
0
  6
Continuous
 62
7
370
30
100
AcDbLine
 10
14690.95590408848
 20
5498.043031451032
 30
0.0
 11
14691.40590408847
 21
5498.043031451032
 31
0.0
  0
LINE
  5
75571
330
88D6B
100
AcDbEntity
  8
0
  6
Continuous
 62
7
370
30
100
AcDbLine
 10
14690.95590408848
 20
5498.943031451034
 30
0.0
 11
14691.40590408847
 21
5498.943031451034
 31
0.0
  0
LINE
  5
75572
330
88D6B
100
AcDbEntity
  8
0
  6
Continuous
 62
7
370
30
100
AcDbLine
 10
14691.40590408847
 20
5498.043031451032
 30
0.0
 11
14691.40590408847
 21
5497.683031451034
 31
0.0
  0
LINE
  5
75573
330
88D6B
100
AcDbEntity
  8
0
  6
Continuous
 62
7
370
30
100
AcDbLine
 10
14690.95590408848
 20
5498.043031451032
 30
0.0
 11
14690.95590408848
 21
5496.858031451034
 31
0.0
  0
LINE
  5
75575
330
88D6B
100
AcDbEntity
  8
0
  6
Continuous
 62
7
370
13
100
AcDbLine
 10
14686.24590408848
 20
5497.603031451034
 30
0.0
 11
14686.24590408848
 21
5497.453031451033
 31
0.0
  0
LINE
  5
75576
330
88D6B
100
AcDbEntity
  8
0
  6
Continuous
 62
7
370
13
100
AcDbLine
 10
14688.50590408847
 20
5497.603031451034
 30
0.0
 11
14689.55590408847
 21
5497.603031451034
 31
0.0
  0
LINE
  5
75577
330
88D6B
100
AcDbEntity
  8
0
  6
Continuous
 62
7
370
13
100
AcDbLine
 10
14688.35590408848
 20
5497.453031451033
 30
0.0
 11
14689.55590408847
 21
5497.453031451033
 31
0.0
  0
LINE
  5
75578
330
88D6B
100
AcDbEntity
  8
0
  6
Continuous
 62
7
370
13
100
AcDbLine
 10
14688.35590408848
 20
5498.803031451033
 30
0.0
 11
14688.50590408847
 21
5498.803031451033
 31
0.0
  0
LINE
  5
75579
330
88D6B
100
AcDbEntity
  8
0
  6
Continuous
 62
7
370
13
100
AcDbLine
 10
14688.35590408848
 20
5497.903031451034
 30
0.0
 11
14688.50590408847
 21
5497.903031451034
 31
0.0
  0
LINE
  5
7557A
330
88D6B
100
AcDbEntity
  8
0
  6
Continuous
 62
7
370
13
100
AcDbLine
 10
14688.35590408848
 20
5497.903031451034
 30
0.0
 11
14688.35590408848
 21
5497.453031451033
 31
0.0
  0
LINE
  5
7557B
330
88D6B
100
AcDbEntity
  8
0
  6
Continuous
 62
7
370
13
100
AcDbLine
 10
14688.50590408847
 20
5497.903031451034
 30
0.0
 11
14688.50590408847
 21
5497.603031451034
 31
0.0
  0
LINE
  5
75598
330
88D6B
100
AcDbEntity
  8
0
  6
Continuous
 62
7
370
30
100
AcDbLine
 10
14685.33590408847
 20
5499.503031451033
 30
0.0
 11
14685.33590408847
 21
5497.153031451034
 31
0.0
  0
LINE
  5
75599
330
88D6B
100
AcDbEntity
  8
0
  6
Continuous
 62
7
370
30
100
AcDbLine
 10
14685.84590408847
 20
5499.503031451033
 30
0.0
 11
14685.84590408847
 21
5497.153031451034
 31
0.0
  0
LINE
  5
7559A
330
88D6B
100
AcDbEntity
  8
0
  6
Continuous
 62
7
370
30
100
AcDbLine
 10
14685.84590408847
 20
5490.883031451033
 30
0.0
 11
14685.84590408847
 21
5489.483031451033
 31
0.0
  0
LINE
  5
7559B
330
88D6B
100
AcDbEntity
  8
0
  6
Continuous
 62
7
370
30
100
AcDbLine
 10
14685.33590408847
 20
5490.883031451033
 30
0.0
 11
14685.33590408847
 21
5488.973031451034
 31
0.0
  0
LINE
  5
755BB
330
88D6B
100
AcDbEntity
  8
0
  6
Continuous
 62
7
370
30
100
AcDbLine
 10
14685.33590408847
 20
5495.253031451033
 30
0.0
 11
14685.33590408847
 21
5492.783031451033
 31
0.0
  0
LINE
  5
755BC
330
88D6B
100
AcDbEntity
  8
0
  6
Continuous
 62
7
370
30
100
AcDbLine
 10
14685.84590408847
 20
5495.253031451033
 30
0.0
 11
14685.84590408847
 21
5492.783031451033
 31
0.0
  0
LINE
  5
755C5
330
88D6B
100
AcDbEntity
  8
0
  6
Continuous
 62
7
370
13
100
AcDbLine
 10
14689.20590408847
 20
5497.453031451033
 30
0.0
 11
14689.20590408847
 21
5494.603031451034
 31
0.0
  0
LINE
  5
755C6
330
88D6B
100
AcDbEntity
  8
0
  6
Continuous
 62
7
370
13
100
AcDbLine
 10
14689.05590408847
 20
5497.453031451033
 30
0.0
 11
14689.05590408847
 21
5494.603031451034
 31
0.0
  0
LINE
  5
755C8
330
88D6B
100
AcDbEntity
  8
0
  6
Continuous
 62
7
370
13
100
AcDbLine
 10
14690.70590408848
 20
5497.103031451033
 30
0.0
 11
14690.95590408848
 21
5497.103031451033
 31
0.0
  0
LINE
  5
755CC
330
88D6B
100
AcDbEntity
  8
0
  6
Continuous
 62
7
370
13
100
AcDbLine
 10
14690.70590408848
 20
5497.453031451033
 30
0.0
 11
14690.70590408848
 21
5497.103031451033
 31
0.0
  0
LINE
  5
755CF
330
88D6B
100
AcDbEntity
  8
0
  6
Continuous
 62
7
370
13
100
AcDbLine
 10
14689.29590408848
 20
5492.153031451033
 30
0.0
 11
14690.95590408848
 21
5492.153031451033
 31
0.0
  0
LINE
  5
755D0
330
88D6B
100
AcDbEntity
  8
0
  6
Continuous
 62
7
370
13
100
AcDbLine
 10
14689.14590408847
 20
5492.003031451034
 30
0.0
 11
14690.95590408848
 21
5492.003031451034
 31
0.0
  0
LINE
  5
755D4
330
88D6B
100
AcDbEntity
  8
0
  6
Continuous
 62
7
370
13
100
AcDbLine
 10
14689.29590408848
 20
5494.453031451033
 30
0.0
 11
14689.29590408848
 21
5494.153031451034
 31
0.0
  0
LINE
  5
755D5
330
88D6B
100
AcDbEntity
  8
0
  6
Continuous
 62
7
370
13
100
AcDbLine
 10
14689.14590408847
 20
5494.453031451033
 30
0.0
 11
14689.14590408847
 21
5494.153031451034
 31
0.0
  0
LINE
  5
755EC
330
88D6B
100
AcDbEntity
  8
0
  6
Continuous
 62
7
370
13
100
AcDbLine
 10
14689.29590408848
 20
5494.153031451034
 30
0.0
 11
14689.14590408847
 21
5494.153031451034
 31
0.0
  0
LINE
  5
755ED
330
88D6B
100
AcDbEntity
  8
0
  6
Continuous
 62
7
370
13
100
AcDbLine
 10
14689.29590408848
 20
5493.253031451033
 30
0.0
 11
14689.14590408847
 21
5493.253031451033
 31
0.0
  0
LINE
  5
755EF
330
88D6B
100
AcDbEntity
  8
0
  6
Continuous
 62
7
370
13
100
AcDbLine
 10
14689.29590408848
 20
5493.253031451033
 30
0.0
 11
14689.29590408848
 21
5492.153031451033
 31
0.0
  0
LINE
  5
755F0
330
88D6B
100
AcDbEntity
  8
0
  6
Continuous
 62
7
370
13
100
AcDbLine
 10
14689.14590408847
 20
5493.253031451033
 30
0.0
 11
14689.14590408847
 21
5492.003031451034
 31
0.0
  0
LINE
  5
755F3
330
88D6B
100
AcDbEntity
  8
0
  6
Continuous
 62
7
370
13
100
AcDbLine
 10
14693.70590408848
 20
5494.183031451033
 30
0.0
 11
14693.85590408847
 21
5494.183031451033
 31
0.0
  0
LINE
  5
755F4
330
88D6B
100
AcDbEntity
  8
0
  6
Continuous
 62
7
370
13
100
AcDbLine
 10
14693.70590408848
 20
5493.283031451033
 30
0.0
 11
14693.85590408847
 21
5493.283031451033
 31
0.0
  0
LINE
  5
755F5
330
88D6B
100
AcDbEntity
  8
0
  6
Continuous
 62
7
370
13
100
AcDbLine
 10
14693.70590408848
 20
5493.283031451033
 30
0.0
 11
14693.70590408848
 21
5489.483031451033
 31
0.0
  0
LINE
  5
755F6
330
88D6B
100
AcDbEntity
  8
0
  6
Continuous
 62
7
370
13
100
AcDbLine
 10
14693.85590408847
 20
5493.283031451033
 30
0.0
 11
14693.85590408847
 21
5489.483031451033
 31
0.0
  0
LINE
  5
755F7
330
88D6B
100
AcDbEntity
  8
0
  6
Continuous
 62
7
370
30
100
AcDbLine
 10
14690.95590408848
 20
5494.383031451033
 30
0.0
 11
14691.40590408847
 21
5494.383031451033
 31
0.0
  0
LINE
  5
755F8
330
88D6B
100
AcDbEntity
  8
0
  6
Continuous
 62
7
370
30
100
AcDbLine
 10
14690.95590408848
 20
5493.483031451034
 30
0.0
 11
14691.40590408847
 21
5493.483031451034
 31
0.0
  0
LINE
  5
755F9
330
88D6B
100
AcDbEntity
  8
0
  6
Continuous
 62
7
370
30
100
AcDbLine
 10
14691.40590408847
 20
5493.483031451034
 30
0.0
 11
14691.40590408847
 21
5489.483031451033
 31
0.0
  0
LINE
  5
755FA
330
88D6B
100
AcDbEntity
  8
0
  6
Continuous
 62
7
370
30
100
AcDbLine
 10
14690.95590408848
 20
5493.483031451034
 30
0.0
 11
14690.95590408848
 21
5489.483031451033
 31
0.0
  0
LINE
  5
755FC
330
88D6B
100
AcDbEntity
  8
0
  6
Continuous
 62
7
370
13
100
AcDbLine
 10
14696.99590408847
 20
5494.633031451034
 30
0.0
 11
14696.99590408847
 21
5491.283031451033
 31
0.0
  0
LINE
  5
755FD
330
88D6B
100
AcDbEntity
  8
0
  6
Continuous
 62
7
370
13
100
AcDbLine
 10
14697.14590408847
 20
5494.633031451034
 30
0.0
 11
14697.14590408847
 21
5491.283031451033
 31
0.0
  0
LINE
  5
755FE
330
88D6B
100
AcDbEntity
  8
0
  6
Continuous
 62
7
370
13
100
AcDbLine
 10
14699.74590408847
 20
5494.633031451034
 30
0.0
 11
14699.74590408847
 21
5494.533031451033
 31
0.0
  0
LINE
  5
755FF
330
88D6B
100
AcDbEntity
  8
0
  6
Continuous
 62
7
370
13
100
AcDbLine
 10
14699.89590408848
 20
5494.633031451034
 30
0.0
 11
14699.89590408848
 21
5494.533031451033
 31
0.0
  0
LINE
  5
75600
330
88D6B
100
AcDbEntity
  8
0
  6
Continuous
 62
7
370
13
100
AcDbLine
 10
14693.53590408848
 20
5495.303031451033
 30
0.0
 11
14693.53590408848
 21
5495.083031451033
 31
0.0
  0
LINE
  5
75601
330
88D6B
100
AcDbEntity
  8
0
  6
Continuous
 62
7
370
13
100
AcDbLine
 10
14693.77590408847
 20
5495.303031451033
 30
0.0
 11
14693.77590408847
 21
5495.083031451033
 31
0.0
  0
LINE
  5
75602
330
88D6B
100
AcDbEntity
  8
0
  6
Continuous
 62
7
370
30
100
AcDbLine
 10
14695.13590408847
 20
5495.083031451033
 30
0.0
 11
14695.13590408847
 21
5494.633031451034
 31
0.0
  0
LINE
  5
75603
330
88D6B
100
AcDbEntity
  8
0
  6
Continuous
 62
7
370
30
100
AcDbLine
 10
14696.03590408848
 20
5495.083031451033
 30
0.0
 11
14696.03590408848
 21
5494.633031451034
 31
0.0
  0
LINE
  5
75606
330
88D6B
100
AcDbEntity
  8
0
  6
Continuous
 62
7
370
13
100
AcDbLine
 10
14702.59590408848
 20
5494.633031451034
 30
0.0
 11
14702.59590408848
 21
5489.483031451033
 31
0.0
  0
LINE
  5
75607
330
88D6B
100
AcDbEntity
  8
0
  6
Continuous
 62
7
370
13
100
AcDbLine
 10
14702.74590408847
 20
5494.633031451034
 30
0.0
 11
14702.74590408847
 21
5489.483031451033
 31
0.0
  0
LINE
  5
75608
330
88D6B
100
AcDbEntity
  8
0
  6
Continuous
 62
7
370
30
100
AcDbLine
 10
14693.30590408847
 20
5502.803031451033
 30
0.0
 11
14694.29590408847
 21
5502.803031451033
 31
0.0
  0
LINE
  5
75609
330
88D6B
100
AcDbEntity
  8
0
  6
Continuous
 62
7
370
30
100
AcDbLine
 10
14690.40590408847
 20
5503.313031451034
 30
0.0
 11
14691.40590408847
 21
5503.313031451034
 31
0.0
  0
LINE
  5
7560A
330
88D6B
100
AcDbEntity
  8
0
  6
Continuous
 62
7
370
30
100
AcDbLine
 10
14691.40590408847
 20
5497.683031451034
 30
0.0
 11
14694.82590408848
 21
5497.683031451034
 31
0.0
  0
LINE
  5
7560B
330
88D6B
100
AcDbEntity
  8
0
  6
Continuous
 62
7
370
30
100
AcDbLine
 10
14691.40590408847
 20
5497.233031451034
 30
0.0
 11
14694.82590408848
 21
5497.233031451034
 31
0.0
  0
LINE
  5
7560C
330
88D6B
100
AcDbEntity
  8
0
  6
Continuous
 62
7
370
30
100
AcDbLine
 10
14693.70590408848
 20
5489.483031451033
 30
0.0
 11
14694.69590408847
 21
5489.483031451033
 31
0.0
  0
LINE
  5
7560D
330
88D6B
100
AcDbEntity
  8
0
  6
Continuous
 62
7
370
30
100
AcDbLine
 10
14693.70590408848
 20
5488.973031451034
 30
0.0
 11
14694.69590408847
 21
5488.973031451034
 31
0.0
  0
LINE
  5
7560E
330
88D6B
100
AcDbEntity
  8
0
  6
Continuous
 62
7
370
30
100
AcDbLine
 10
14696.03590408848
 20
5495.083031451033
 30
0.0
 11
14700.20590408848
 21
5495.083031451033
 31
0.0
  0
LINE
  5
7560F
330
88D6B
100
AcDbEntity
  8
0
  6
Continuous
 62
7
370
30
100
AcDbLine
 10
14696.03590408848
 20
5494.633031451034
 30
0.0
 11
14700.20590408848
 21
5494.633031451034
 31
0.0
  0
LINE
  5
75613
330
88D6B
100
AcDbEntity
  8
0
  6
Continuous
 62
7
370
13
100
AcDbLine
 10
14693.53590408848
 20
5495.303031451033
 30
0.0
 11
14693.77590408847
 21
5495.303031451033
 31
0.0
  0
LINE
  5
75614
330
88D6B
100
AcDbEntity
  8
0
  6
Continuous
 62
7
370
0
100
AcDbLine
 10
14693.59590408848
 20
5495.243031451033
 30
0.0
 11
14693.71590408847
 21
5495.243031451033
 31
0.0
  0
LINE
  5
75615
330
88D6B
100
AcDbEntity
  8
0
  6
Continuous
 62
7
370
0
100
AcDbLine
 10
14693.59590408848
 20
5495.243031451033
 30
0.0
 11
14693.59590408848
 21
5495.083031451033
 31
0.0
  0
LINE
  5
75616
330
88D6B
100
AcDbEntity
  8
0
  6
Continuous
 62
7
370
0
100
AcDbLine
 10
14693.71590408847
 20
5495.243031451033
 30
0.0
 11
14693.71590408847
 21
5495.083031451033
 31
0.0
  0
LINE
  5
75617
330
88D6B
100
AcDbEntity
  8
0
  6
Continuous
 62
7
370
0
100
AcDbLine
 10
14690.76590408848
 20
5497.453031451033
 30
0.0
 11
14690.76590408848
 21
5497.163031451033
 31
0.0
  0
LINE
  5
75618
330
88D6B
100
AcDbEntity
  8
0
  6
Continuous
 62
7
370
0
100
AcDbLine
 10
14690.76590408848
 20
5497.163031451033
 30
0.0
 11
14690.95590408848
 21
5497.163031451033
 31
0.0
  0
LINE
  5
7561D
330
88D6B
100
AcDbEntity
  8
0
  6
Continuous
 62
7
370
13
100
AcDbLine
 10
14699.89590408848
 20
5493.633031451033
 30
0.0
 11
14700.82590408847
 21
5493.633031451033
 31
0.0
  0
LINE
  5
7561E
330
88D6B
100
AcDbEntity
  8
0
  6
Continuous
 62
7
370
13
100
AcDbLine
 10
14699.89590408848
 20
5493.483031451034
 30
0.0
 11
14700.82590408847
 21
5493.483031451034
 31
0.0
  0
LINE
  5
7561F
330
88D6B
100
AcDbEntity
  8
0
  6
Continuous
 62
7
370
13
100
AcDbLine
 10
14701.72590408847
 20
5493.633031451033
 30
0.0
 11
14701.72590408847
 21
5493.483031451034
 31
0.0
  0
LINE
  5
75620
330
88D6B
100
AcDbEntity
  8
0
  6
Continuous
 62
7
370
13
100
AcDbLine
 10
14700.82590408847
 20
5493.633031451033
 30
0.0
 11
14700.82590408847
 21
5493.483031451034
 31
0.0
  0
LINE
  5
75621
330
88D6B
100
AcDbEntity
  8
0
  6
Continuous
 62
7
370
13
100
AcDbLine
 10
14701.72590408847
 20
5493.633031451033
 30
0.0
 11
14702.59590408848
 21
5493.633031451033
 31
0.0
  0
LINE
  5
75622
330
88D6B
100
AcDbEntity
  8
0
  6
Continuous
 62
7
370
13
100
AcDbLine
 10
14701.72590408847
 20
5493.483031451034
 30
0.0
 11
14702.59590408848
 21
5493.483031451034
 31
0.0
  0
LINE
  5
75623
330
88D6B
100
AcDbEntity
  8
0
  6
Continuous
 62
7
370
30
100
AcDbLine
 10
14700.20590408848
 20
5495.083031451033
 30
0.0
 11
14700.20590408848
 21
5494.633031451034
 31
0.0
  0
LINE
  5
75624
330
88D6B
100
AcDbEntity
  8
0
  6
Continuous
 62
7
370
30
100
AcDbLine
 10
14701.74590408847
 20
5495.083031451033
 30
0.0
 11
14703.78409752468
 21
5495.083031451033
 31
0.0
  0
LINE
  5
75625
330
88D6B
100
AcDbEntity
  8
0
  6
Continuous
 62
7
370
30
100
AcDbLine
 10
14701.74590408847
 20
5494.633031451034
 30
0.0
 11
14703.78409752468
 21
5494.633031451034
 31
0.0
  0
LINE
  5
75627
330
88D6B
100
AcDbEntity
  8
0
  6
Continuous
 62
7
370
30
100
AcDbLine
 10
14701.74590408847
 20
5495.083031451033
 30
0.0
 11
14701.74590408847
 21
5494.633031451034
 31
0.0
  0
LINE
  5
75628
330
88D6B
100
AcDbEntity
  8
0
  6
Continuous
 62
7
370
13
100
AcDbLine
 10
14696.99590408847
 20
5490.383031451034
 30
0.0
 11
14697.14590408847
 21
5490.383031451034
 31
0.0
  0
LINE
  5
75629
330
88D6B
100
AcDbEntity
  8
0
  6
Continuous
 62
7
370
13
100
AcDbLine
 10
14696.99590408847
 20
5491.283031451033
 30
0.0
 11
14697.14590408847
 21
5491.283031451033
 31
0.0
  0
LINE
  5
7562A
330
88D6B
100
AcDbEntity
  8
0
  6
Continuous
 62
7
370
13
100
AcDbLine
 10
14696.99590408847
 20
5490.383031451034
 30
0.0
 11
14696.99590408847
 21
5489.483031451033
 31
0.0
  0
LINE
  5
7562B
330
88D6B
100
AcDbEntity
  8
0
  6
Continuous
 62
7
370
13
100
AcDbLine
 10
14697.14590408847
 20
5490.383031451034
 30
0.0
 11
14697.14590408847
 21
5489.483031451033
 31
0.0
  0
LINE
  5
7562C
330
88D6B
100
AcDbEntity
  8
0
  6
Continuous
 62
7
370
13
100
AcDbLine
 10
14699.74590408847
 20
5494.533031451033
 30
0.0
 11
14699.89590408848
 21
5494.533031451033
 31
0.0
  0
LINE
  5
7562D
330
88D6B
100
AcDbEntity
  8
0
  6
Continuous
 62
7
370
13
100
AcDbLine
 10
14699.74590408847
 20
5493.733031451034
 30
0.0
 11
14699.89590408848
 21
5493.733031451034
 31
0.0
  0
LINE
  5
7562E
330
88D6B
100
AcDbEntity
  8
0
  6
Continuous
 62
7
370
13
100
AcDbLine
 10
14699.89590408848
 20
5493.733031451034
 30
0.0
 11
14699.89590408848
 21
5489.483031451033
 31
0.0
  0
LINE
  5
7562F
330
88D6B
100
AcDbEntity
  8
0
  6
Continuous
 62
7
370
13
100
AcDbLine
 10
14699.74590408847
 20
5493.733031451034
 30
0.0
 11
14699.74590408847
 21
5489.483031451033
 31
0.0
  0
LINE
  5
75640
330
88D6B
100
AcDbEntity
  8
0
  6
Continuous
 62
7
370
30
100
AcDbLine
 10
14696.59590408848
 20
5489.483031451033
 30
0.0
 11
14697.54590408847
 21
5489.483031451033
 31
0.0
  0
LINE
  5
75641
330
88D6B
100
AcDbEntity
  8
0
  6
Continuous
 62
7
370
30
100
AcDbLine
 10
14696.59590408848
 20
5488.973031451034
 30
0.0
 11
14697.54590408847
 21
5488.973031451034
 31
0.0
  0
LINE
  5
75651
330
88D6B
100
AcDbEntity
  8
0
  6
Continuous
 62
7
370
30
100
AcDbLine
 10
14699.44590408847
 20
5489.483031451033
 30
0.0
 11
14700.42590408848
 21
5489.483031451033
 31
0.0
  0
LINE
  5
75652
330
88D6B
100
AcDbEntity
  8
0
  6
Continuous
 62
7
370
30
100
AcDbLine
 10
14699.44590408847
 20
5488.973031451034
 30
0.0
 11
14700.42590408848
 21
5488.973031451034
 31
0.0
  0
LINE
  5
75662
330
88D6B
100
AcDbEntity
  8
0
  6
Continuous
 62
7
370
30
100
AcDbLine
 10
14702.32590408848
 20
5489.483031451033
 30
0.0
 11
14703.78409752468
 21
5489.483031451033
 31
0.0
  0
LINE
  5
75663
330
88D6B
100
AcDbEntity
  8
0
  6
Continuous
 62
7
370
30
100
AcDbLine
 10
14702.32590408848
 20
5488.973031451034
 30
0.0
 11
14703.78409752468
 21
5488.973031451034
 31
0.0
  0
LINE
  5
75673
330
88D6B
100
AcDbEntity
  8
0
  6
Continuous
 62
7
370
30
100
AcDbLine
 10
14693.30590408847
 20
5503.313031451034
 30
0.0
 11
14694.29590408847
 21
5503.313031451034
 31
0.0
  0
LINE
  5
75674
330
88D6B
100
AcDbEntity
  8
0
  6
Continuous
 62
7
370
13
100
AcDbLine
 10
14693.72590408847
 20
5502.803031451033
 30
0.0
 11
14693.72590408847
 21
5501.503031451033
 31
0.0
  0
LINE
  5
75675
330
88D6B
100
AcDbEntity
  8
0
  6
Continuous
 62
7
370
13
100
AcDbLine
 10
14693.87590408848
 20
5502.803031451033
 30
0.0
 11
14693.87590408848
 21
5501.503031451033
 31
0.0
  0
LINE
  5
75678
330
88D6B
100
AcDbEntity
  8
0
  6
Continuous
 62
7
370
13
100
AcDbLine
 10
14691.40590408847
 20
5499.313031451034
 30
0.0
 11
14693.72590408847
 21
5499.313031451034
 31
0.0
  0
LINE
  5
75679
330
88D6B
100
AcDbEntity
  8
0
  6
Continuous
 62
7
370
13
100
AcDbLine
 10
14691.40590408847
 20
5499.463031451033
 30
0.0
 11
14693.72590408847
 21
5499.463031451033
 31
0.0
  0
LINE
  5
7567D
330
88D6B
100
AcDbEntity
  8
0
  6
Continuous
 62
7
370
13
100
AcDbLine
 10
14693.72590408847
 20
5501.503031451033
 30
0.0
 11
14693.87590408848
 21
5501.503031451033
 31
0.0
  0
LINE
  5
7567E
330
88D6B
100
AcDbEntity
  8
0
  6
Continuous
 62
7
370
13
100
AcDbLine
 10
14693.72590408847
 20
5500.603031451033
 30
0.0
 11
14693.87590408848
 21
5500.603031451033
 31
0.0
  0
LINE
  5
7567F
330
88D6B
100
AcDbEntity
  8
0
  6
Continuous
 62
7
370
13
100
AcDbLine
 10
14693.87590408848
 20
5500.603031451033
 30
0.0
 11
14693.87590408848
 21
5497.683031451034
 31
0.0
  0
LINE
  5
75680
330
88D6B
100
AcDbEntity
  8
0
  6
Continuous
 62
7
370
13
100
AcDbLine
 10
14693.72590408847
 20
5500.603031451033
 30
0.0
 11
14693.72590408847
 21
5497.683031451034
 31
0.0
  0
LINE
  5
75681
330
88D6B
100
AcDbEntity
  8
0
  6
Continuous
 62
7
370
13
100
AcDbLine
 10
14696.92590408848
 20
5502.803031451033
 30
0.0
 11
14696.92590408848
 21
5502.003031451033
 31
0.0
  0
LINE
  5
75682
330
88D6B
100
AcDbEntity
  8
0
  6
Continuous
 62
7
370
13
100
AcDbLine
 10
14697.07590408847
 20
5502.803031451033
 30
0.0
 11
14697.07590408847
 21
5502.003031451033
 31
0.0
  0
LINE
  5
75683
330
88D6B
100
AcDbEntity
  8
0
  6
Continuous
 62
7
370
30
100
AcDbLine
 10
14702.47590408847
 20
5502.803031451033
 30
0.0
 11
14702.47590408847
 21
5500.803031451034
 31
0.0
  0
LINE
  5
75684
330
88D6B
100
AcDbEntity
  8
0
  6
Continuous
 62
7
370
30
100
AcDbLine
 10
14702.91590408848
 20
5503.603031451033
 30
0.0
 11
14702.91590408848
 21
5497.683031451034
 31
0.0
  0
LINE
  5
75685
330
88D6B
100
AcDbEntity
  8
0
  6
Continuous
 62
7
370
30
100
AcDbLine
 10
14702.40590408848
 20
5504.113031451034
 30
0.0
 11
14702.40590408848
 21
5503.313031451034
 31
0.0
  0
LINE
  5
75687
330
88D6B
100
AcDbEntity
  8
0
  6
Continuous
 62
7
370
30
100
AcDbLine
 10
14702.40590408848
 20
5504.113031451034
 30
0.0
 11
14703.78409752468
 21
5504.113031451034
 31
0.0
  0
LINE
  5
75688
330
88D6B
100
AcDbEntity
  8
0
  6
Continuous
 62
7
370
30
100
AcDbLine
 10
14702.91590408848
 20
5503.603031451033
 30
0.0
 11
14703.78409752468
 21
5503.603031451033
 31
0.0
  0
LINE
  5
75689
330
88D6B
100
AcDbEntity
  8
0
  6
Continuous
 62
7
370
30
100
AcDbLine
 10
14702.91590408848
 20
5497.683031451034
 30
0.0
 11
14703.78409752468
 21
5497.683031451034
 31
0.0
  0
LINE
  5
7568A
330
88D6B
100
AcDbEntity
  8
0
  6
Continuous
 62
7
370
30
100
AcDbLine
 10
14700.05590408848
 20
5500.803031451034
 30
0.0
 11
14702.47590408847
 21
5500.803031451034
 31
0.0
  0
LINE
  5
7568B
330
88D6B
100
AcDbEntity
  8
0
  6
Continuous
 62
7
370
30
100
AcDbLine
 10
14700.35590408848
 20
5500.503031451033
 30
0.0
 11
14702.47590408847
 21
5500.503031451033
 31
0.0
  0
LINE
  5
7568C
330
88D6B
100
AcDbEntity
  8
0
  6
Continuous
 62
7
370
30
100
AcDbLine
 10
14700.05590408848
 20
5500.803031451034
 30
0.0
 11
14700.05590408848
 21
5497.683031451034
 31
0.0
  0
LINE
  5
7568D
330
88D6B
100
AcDbEntity
  8
0
  6
Continuous
 62
7
370
30
100
AcDbLine
 10
14700.35590408848
 20
5500.503031451033
 30
0.0
 11
14700.35590408848
 21
5497.683031451034
 31
0.0
  0
LINE
  5
7568E
330
88D6B
100
AcDbEntity
  8
0
  6
Continuous
 62
7
370
30
100
AcDbLine
 10
14700.35590408848
 20
5497.683031451034
 30
0.0
 11
14700.81590408848
 21
5497.683031451034
 31
0.0
  0
LINE
  5
75692
330
88D6B
100
AcDbEntity
  8
0
  6
Continuous
 62
7
370
13
100
AcDbLine
 10
14700.05590408848
 20
5500.503031451033
 30
0.0
 11
14697.07590408847
 21
5500.503031451033
 31
0.0
  0
LINE
  5
75693
330
88D6B
100
AcDbEntity
  8
0
  6
Continuous
 62
7
370
13
100
AcDbLine
 10
14700.05590408848
 20
5500.353031451034
 30
0.0
 11
14698.13590408847
 21
5500.353031451034
 31
0.0
  0
LINE
  5
75694
330
88D6B
100
AcDbEntity
  8
0
  6
Continuous
 62
7
370
13
100
AcDbLine
 10
14696.92590408848
 20
5502.003031451033
 30
0.0
 11
14697.07590408847
 21
5502.003031451033
 31
0.0
  0
LINE
  5
75695
330
88D6B
100
AcDbEntity
  8
0
  6
Continuous
 62
7
370
13
100
AcDbLine
 10
14696.92590408848
 20
5501.033031451033
 30
0.0
 11
14697.07590408847
 21
5501.033031451033
 31
0.0
  0
LINE
  5
75696
330
88D6B
100
AcDbEntity
  8
0
  6
Continuous
 62
7
370
13
100
AcDbLine
 10
14696.92590408848
 20
5501.033031451033
 30
0.0
 11
14696.92590408848
 21
5500.273031451033
 31
0.0
  0
LINE
  5
75697
330
88D6B
100
AcDbEntity
  8
0
  6
Continuous
 62
7
370
13
100
AcDbLine
 10
14697.07590408847
 20
5501.033031451033
 30
0.0
 11
14697.07590408847
 21
5500.503031451033
 31
0.0
  0
LINE
  5
75698
330
88D6B
100
AcDbEntity
  8
0
  6
Continuous
 62
7
370
13
100
AcDbLine
 10
14697.98590408847
 20
5500.353031451034
 30
0.0
 11
14697.98590408847
 21
5500.273031451033
 31
0.0
  0
LINE
  5
75699
330
88D6B
100
AcDbEntity
  8
0
  6
Continuous
 62
7
370
13
100
AcDbLine
 10
14698.13590408847
 20
5500.353031451034
 30
0.0
 11
14698.13590408847
 21
5500.273031451033
 31
0.0
  0
LINE
  5
7569A
330
88D6B
100
AcDbEntity
  8
0
  6
Continuous
 62
7
370
13
100
AcDbLine
 10
14700.05590408848
 20
5498.753031451033
 30
0.0
 11
14698.13590408847
 21
5498.753031451033
 31
0.0
  0
LINE
  5
7569B
330
88D6B
100
AcDbEntity
  8
0
  6
Continuous
 62
7
370
13
100
AcDbLine
 10
14700.05590408848
 20
5498.603031451033
 30
0.0
 11
14697.98590408847
 21
5498.603031451033
 31
0.0
  0
LINE
  5
7569C
330
88D6B
100
AcDbEntity
  8
0
  6
Continuous
 62
7
370
13
100
AcDbLine
 10
14698.13590408847
 20
5499.573031451033
 30
0.0
 11
14697.98590408847
 21
5499.573031451033
 31
0.0
  0
LINE
  5
7569D
330
88D6B
100
AcDbEntity
  8
0
  6
Continuous
 62
7
370
13
100
AcDbLine
 10
14698.13590408847
 20
5500.273031451033
 30
0.0
 11
14697.98590408847
 21
5500.273031451033
 31
0.0
  0
LINE
  5
7569E
330
88D6B
100
AcDbEntity
  8
0
  6
Continuous
 62
7
370
13
100
AcDbLine
 10
14697.98590408847
 20
5499.573031451033
 30
0.0
 11
14697.98590408847
 21
5499.053031451033
 31
0.0
  0
LINE
  5
7569F
330
88D6B
100
AcDbEntity
  8
0
  6
Continuous
 62
7
370
13
100
AcDbLine
 10
14698.13590408847
 20
5499.573031451033
 30
0.0
 11
14698.13590408847
 21
5498.753031451033
 31
0.0
  0
LINE
  5
756A0
330
88D6B
100
AcDbEntity
  8
0
  6
Continuous
 62
7
370
13
100
AcDbLine
 10
14697.98590408847
 20
5500.353031451034
 30
0.0
 11
14697.07590408847
 21
5500.353031451034
 31
0.0
  0
LINE
  5
756A1
330
88D6B
100
AcDbEntity
  8
0
  6
Continuous
 62
7
370
13
100
AcDbLine
 10
14697.98590408847
 20
5499.053031451033
 30
0.0
 11
14697.07590408847
 21
5499.053031451033
 31
0.0
  0
LINE
  5
756A2
330
88D6B
100
AcDbEntity
  8
0
  6
Continuous
 62
7
370
13
100
AcDbLine
 10
14697.98590408847
 20
5498.903031451034
 30
0.0
 11
14697.07590408847
 21
5498.903031451034
 31
0.0
  0
LINE
  5
756A3
330
88D6B
100
AcDbEntity
  8
0
  6
Continuous
 62
7
370
13
100
AcDbLine
 10
14697.98590408847
 20
5498.903031451034
 30
0.0
 11
14697.98590408847
 21
5498.603031451033
 31
0.0
  0
LINE
  5
756A4
330
88D6B
100
AcDbEntity
  8
0
  6
Continuous
 62
7
370
13
100
AcDbLine
 10
14697.07590408847
 20
5498.903031451034
 30
0.0
 11
14697.07590408847
 21
5497.683031451034
 31
0.0
  0
LINE
  5
756A5
330
88D6B
100
AcDbEntity
  8
0
  6
Continuous
 62
7
370
13
100
AcDbLine
 10
14696.56590408847
 20
5498.483031451034
 30
0.0
 11
14696.92590408848
 21
5498.483031451034
 31
0.0
  0
LINE
  5
756A6
330
88D6B
100
AcDbEntity
  8
0
  6
Continuous
 62
7
370
13
100
AcDbLine
 10
14696.56590408847
 20
5498.483031451034
 30
0.0
 11
14696.56590408847
 21
5497.683031451034
 31
0.0
  0
LINE
  5
756A7
330
88D6B
100
AcDbEntity
  8
0
  6
Continuous
 62
7
370
0
100
AcDbLine
 10
14696.62590408848
 20
5498.423031451033
 30
0.0
 11
14696.92590408848
 21
5498.423031451033
 31
0.0
  0
LINE
  5
756A8
330
88D6B
100
AcDbEntity
  8
0
  6
Continuous
 62
7
370
0
100
AcDbLine
 10
14696.62590408848
 20
5498.423031451033
 30
0.0
 11
14696.62590408848
 21
5497.683031451034
 31
0.0
  0
LINE
  5
756A9
330
88D6B
100
AcDbEntity
  8
0
  6
Continuous
 62
7
370
13
100
AcDbLine
 10
14697.07590408847
 20
5500.273031451033
 30
0.0
 11
14696.92590408848
 21
5500.273031451033
 31
0.0
  0
LINE
  5
756AA
330
88D6B
100
AcDbEntity
  8
0
  6
Continuous
 62
7
370
13
100
AcDbLine
 10
14697.07590408847
 20
5499.573031451033
 30
0.0
 11
14696.92590408848
 21
5499.573031451033
 31
0.0
  0
LINE
  5
756AB
330
88D6B
100
AcDbEntity
  8
0
  6
Continuous
 62
7
370
13
100
AcDbLine
 10
14696.92590408848
 20
5499.573031451033
 30
0.0
 11
14696.92590408848
 21
5497.683031451034
 31
0.0
  0
LINE
  5
756AC
330
88D6B
100
AcDbEntity
  8
0
  6
Continuous
 62
7
370
13
100
AcDbLine
 10
14697.07590408847
 20
5499.573031451033
 30
0.0
 11
14697.07590408847
 21
5499.053031451033
 31
0.0
  0
LINE
  5
756AD
330
88D6B
100
AcDbEntity
  8
0
  6
Continuous
 62
7
370
13
100
AcDbLine
 10
14697.07590408847
 20
5500.353031451034
 30
0.0
 11
14697.07590408847
 21
5500.273031451033
 31
0.0
  0
LINE
  5
75782
330
88D6B
100
AcDbEntity
  8
0
  6
Continuous
 62
7
370
13
100
AcDbLine
 10
14691.40590408847
 20
5490.133031451033
 30
0.0
 11
14691.67590408847
 21
5490.133031451033
 31
0.0
  0
LINE
  5
75783
330
88D6B
100
AcDbEntity
  8
0
  6
Continuous
 62
7
370
13
100
AcDbLine
 10
14691.40590408847
 20
5490.513031451033
 30
0.0
 11
14691.67590408847
 21
5490.513031451033
 31
0.0
  0
LINE
  5
75784
330
88D6B
100
AcDbEntity
  8
0
  6
Continuous
 62
7
370
13
100
AcDbLine
 10
14691.67590408847
 20
5490.513031451033
 30
0.0
 11
14691.67590408847
 21
5490.133031451033
 31
0.0
  0
LINE
  5
75785
330
88D6B
100
AcDbEntity
  8
0
  6
Continuous
 62
7
370
0
100
AcDbLine
 10
14691.40590408847
 20
5490.453031451033
 30
0.0
 11
14691.61590408847
 21
5490.453031451033
 31
0.0
  0
LINE
  5
75786
330
88D6B
100
AcDbEntity
  8
0
  6
Continuous
 62
7
370
0
100
AcDbLine
 10
14691.61590408847
 20
5490.453031451033
 30
0.0
 11
14691.61590408847
 21
5490.193031451034
 31
0.0
  0
LINE
  5
75787
330
88D6B
100
AcDbEntity
  8
0
  6
Continuous
 62
7
370
0
100
AcDbLine
 10
14691.40590408847
 20
5490.193031451034
 30
0.0
 11
14691.61590408847
 21
5490.193031451034
 31
0.0
  0
LINE
  5
7593C
330
88D6B
100
AcDbEntity
  8
0
  6
Continuous
 62
7
370
30
100
AcDbLine
 10
14694.82590408848
 20
5497.683031451034
 30
0.0
 11
14694.82590408848
 21
5497.233031451034
 31
0.0
  0
LINE
  5
7593D
330
88D6B
100
AcDbEntity
  8
0
  6
Continuous
 62
7
370
30
100
AcDbLine
 10
14695.82590408847
 20
5497.683031451034
 30
0.0
 11
14695.82590408847
 21
5497.233031451034
 31
0.0
  0
LINE
  5
7593E
330
88D6B
100
AcDbEntity
  8
0
  6
Continuous
 62
7
370
30
100
AcDbLine
 10
14695.82590408847
 20
5497.233031451034
 30
0.0
 11
14699.04590408847
 21
5497.233031451034
 31
0.0
  0
LINE
  5
7593F
330
88D6B
100
AcDbEntity
  8
0
  6
Continuous
 62
7
370
30
100
AcDbLine
 10
14695.82590408847
 20
5497.683031451034
 30
0.0
 11
14699.04590408847
 21
5497.683031451034
 31
0.0
  0
LINE
  5
75941
330
88D6B
100
AcDbEntity
  8
0
  6
Continuous
 62
7
370
13
100
AcDbLine
 10
14693.74590408848
 20
5497.233031451034
 30
0.0
 11
14693.74590408848
 21
5497.033031451032
 31
0.0
  0
LINE
  5
75942
330
88D6B
100
AcDbEntity
  8
0
  6
Continuous
 62
7
370
13
100
AcDbLine
 10
14694.00590408848
 20
5497.233031451034
 30
0.0
 11
14694.00590408848
 21
5497.033031451032
 31
0.0
  0
LINE
  5
75943
330
88D6B
100
AcDbEntity
  8
0
  6
Continuous
 62
7
370
13
100
AcDbLine
 10
14696.16590408848
 20
5497.233031451034
 30
0.0
 11
14696.16590408848
 21
5497.033031451032
 31
0.0
  0
LINE
  5
75944
330
88D6B
100
AcDbEntity
  8
0
  6
Continuous
 62
7
370
13
100
AcDbLine
 10
14696.64590408847
 20
5497.233031451034
 30
0.0
 11
14696.64590408847
 21
5497.033031451032
 31
0.0
  0
LINE
  5
75945
330
88D6B
100
AcDbEntity
  8
0
  6
Continuous
 62
7
370
30
100
AcDbLine
 10
14699.04590408847
 20
5497.683031451034
 30
0.0
 11
14699.04590408847
 21
5497.233031451034
 31
0.0
  0
LINE
  5
75946
330
88D6B
100
AcDbEntity
  8
0
  6
Continuous
 62
7
370
13
100
AcDbLine
 10
14700.05590408848
 20
5497.233031451034
 30
0.0
 11
14700.05590408848
 21
5496.833031451033
 31
0.0
  0
LINE
  5
75948
330
88D6B
100
AcDbEntity
  8
0
  6
Continuous
 62
7
370
13
100
AcDbLine
 10
14700.20590408848
 20
5497.233031451034
 30
0.0
 11
14700.20590408848
 21
5496.833031451033
 31
0.0
  0
LINE
  5
75949
330
88D6B
100
AcDbEntity
  8
0
  6
Continuous
 62
7
370
13
100
AcDbLine
 10
14700.05590408848
 20
5496.833031451033
 30
0.0
 11
14700.20590408848
 21
5496.833031451033
 31
0.0
  0
LINE
  5
7594A
330
88D6B
100
AcDbEntity
  8
0
  6
Continuous
 62
7
370
13
100
AcDbLine
 10
14700.05590408848
 20
5495.373031451033
 30
0.0
 11
14700.20590408848
 21
5495.373031451033
 31
0.0
  0
LINE
  5
7594B
330
88D6B
100
AcDbEntity
  8
0
  6
Continuous
 62
7
370
13
100
AcDbLine
 10
14700.20590408848
 20
5495.373031451033
 30
0.0
 11
14700.20590408848
 21
5495.083031451033
 31
0.0
  0
LINE
  5
7594C
330
88D6B
100
AcDbEntity
  8
0
  6
Continuous
 62
7
370
13
100
AcDbLine
 10
14700.05590408848
 20
5495.373031451033
 30
0.0
 11
14700.05590408848
 21
5495.083031451033
 31
0.0
  0
LINE
  5
7594D
330
88D6B
100
AcDbEntity
  8
0
  6
Continuous
 62
7
370
30
100
AcDbLine
 10
14699.99590408848
 20
5497.683031451034
 30
0.0
 11
14699.99590408848
 21
5497.233031451034
 31
0.0
  0
LINE
  5
7594E
330
88D6B
100
AcDbEntity
  8
0
  6
Continuous
 62
7
370
30
100
AcDbLine
 10
14699.99590408848
 20
5497.683031451034
 30
0.0
 11
14700.05590408848
 21
5497.683031451034
 31
0.0
  0
LINE
  5
7594F
330
88D6B
100
AcDbEntity
  8
0
  6
Continuous
 62
7
370
30
100
AcDbLine
 10
14699.99590408848
 20
5497.233031451034
 30
0.0
 11
14700.81590408848
 21
5497.233031451034
 31
0.0
  0
LINE
  5
75951
330
88D6B
100
AcDbEntity
  8
0
  6
Continuous
 62
7
370
30
100
AcDbLine
 10
14700.81590408848
 20
5497.683031451034
 30
0.0
 11
14700.81590408848
 21
5497.233031451034
 31
0.0
  0
LINE
  5
75952
330
88D6B
100
AcDbEntity
  8
0
  6
Continuous
 62
7
370
30
100
AcDbLine
 10
14702.01590408848
 20
5497.683031451034
 30
0.0
 11
14702.01590408848
 21
5497.233031451034
 31
0.0
  0
LINE
  5
75953
330
88D6B
100
AcDbEntity
  8
0
  6
Continuous
 62
7
370
30
100
AcDbLine
 10
14702.01590408848
 20
5497.683031451034
 30
0.0
 11
14702.47590408847
 21
5497.683031451034
 31
0.0
  0
LINE
  5
75954
330
88D6B
100
AcDbEntity
  8
0
  6
Continuous
 62
7
370
30
100
AcDbLine
 10
14702.01590408848
 20
5497.233031451034
 30
0.0
 11
14703.78409752468
 21
5497.233031451034
 31
0.0
  0
LINE
  5
75956
330
88D6B
100
AcDbEntity
  8
0
  6
Continuous
 62
7
370
0
100
AcDbLine
 10
14700.40590408848
 20
5500.453031451034
 30
0.0
 11
14702.42590408848
 21
5497.733031451033
 31
0.0
  0
LINE
  5
75957
330
88D6B
100
AcDbEntity
  8
0
  6
Continuous
 62
7
370
0
100
AcDbLine
 10
14702.42590408848
 20
5500.453031451034
 30
0.0
 11
14700.40590408848
 21
5497.733031451033
 31
0.0
  0
LINE
  5
75958
330
88D6B
100
AcDbEntity
  8
0
  6
Continuous
 62
7
370
13
100
AcDbLine
 10
14696.16590408848
 20
5497.033031451032
 30
0.0
 11
14696.64590408847
 21
5497.033031451032
 31
0.0
  0
LINE
  5
75959
330
88D6B
100
AcDbEntity
  8
0
  6
Continuous
 62
7
370
13
100
AcDbLine
 10
14693.74590408848
 20
5497.033031451032
 30
0.0
 11
14694.00590408848
 21
5497.033031451032
 31
0.0
  0
LINE
  5
7595A
330
88D6B
100
AcDbEntity
  8
0
  6
Continuous
 62
7
370
0
100
AcDbLine
 10
14693.80590408847
 20
5497.233031451034
 30
0.0
 11
14693.80590408847
 21
5497.093031451033
 31
0.0
  0
LINE
  5
7595B
330
88D6B
100
AcDbEntity
  8
0
  6
Continuous
 62
7
370
0
100
AcDbLine
 10
14693.80590408847
 20
5497.093031451033
 30
0.0
 11
14693.94590408848
 21
5497.093031451033
 31
0.0
  0
LINE
  5
7595C
330
88D6B
100
AcDbEntity
  8
0
  6
Continuous
 62
7
370
0
100
AcDbLine
 10
14693.94590408848
 20
5497.233031451034
 30
0.0
 11
14693.94590408848
 21
5497.093031451033
 31
0.0
  0
LINE
  5
7595D
330
88D6B
100
AcDbEntity
  8
0
  6
Continuous
 62
7
370
0
100
AcDbLine
 10
14696.22590408848
 20
5497.233031451034
 30
0.0
 11
14696.22590408848
 21
5497.093031451033
 31
0.0
  0
LINE
  5
7595E
330
88D6B
100
AcDbEntity
  8
0
  6
Continuous
 62
7
370
0
100
AcDbLine
 10
14696.22590408848
 20
5497.093031451033
 30
0.0
 11
14696.58590408847
 21
5497.093031451033
 31
0.0
  0
LINE
  5
7595F
330
88D6B
100
AcDbEntity
  8
0
  6
Continuous
 62
7
370
0
100
AcDbLine
 10
14696.58590408847
 20
5497.233031451034
 30
0.0
 11
14696.58590408847
 21
5497.093031451033
 31
0.0
  0
LINE
  5
75961
330
88D6B
100
AcDbEntity
  8
0
  6
Continuous
 62
7
370
0
100
AcDbLine
 10
14702.91590408848
 20
5502.203031451033
 30
0.0
 11
14703.78409752468
 21
5502.203031451033
 31
0.0
  0
LINE
  5
75963
330
88D6B
100
AcDbEntity
  8
0
  6
Continuous
 62
7
370
0
100
AcDbLine
 10
14702.91590408848
 20
5501.903031451034
 30
0.0
 11
14703.78409752468
 21
5501.903031451034
 31
0.0
  0
LINE
  5
75964
330
88D6B
100
AcDbEntity
  8
0
  6
Continuous
 62
7
370
0
100
AcDbLine
 10
14702.91590408848
 20
5501.603031451034
 30
0.0
 11
14703.78409752468
 21
5501.603031451034
 31
0.0
  0
LINE
  5
75965
330
88D6B
100
AcDbEntity
  8
0
  6
Continuous
 62
7
370
0
100
AcDbLine
 10
14702.91590408848
 20
5501.303031451033
 30
0.0
 11
14703.78409752468
 21
5501.303031451033
 31
0.0
  0
LINE
  5
75966
330
88D6B
100
AcDbEntity
  8
0
  6
Continuous
 62
7
370
0
100
AcDbLine
 10
14702.91590408848
 20
5501.003031451033
 30
0.0
 11
14703.78409752468
 21
5501.003031451033
 31
0.0
  0
LINE
  5
75967
330
88D6B
100
AcDbEntity
  8
0
  6
Continuous
 62
7
370
0
100
AcDbLine
 10
14702.91590408848
 20
5500.703031451033
 30
0.0
 11
14703.78409752468
 21
5500.703031451033
 31
0.0
  0
LINE
  5
75968
330
88D6B
100
AcDbEntity
  8
0
  6
Continuous
 62
7
370
0
100
AcDbLine
 10
14702.91590408848
 20
5500.403031451034
 30
0.0
 11
14703.78409752468
 21
5500.403031451034
 31
0.0
  0
LINE
  5
75969
330
88D6B
100
AcDbEntity
  8
0
  6
Continuous
 62
7
370
0
100
AcDbLine
 10
14702.91590408848
 20
5500.103031451033
 30
0.0
 11
14703.78409752468
 21
5500.103031451033
 31
0.0
  0
LINE
  5
7596A
330
88D6B
100
AcDbEntity
  8
0
  6
Continuous
 62
7
370
0
100
AcDbLine
 10
14702.91590408848
 20
5499.803031451033
 30
0.0
 11
14703.78409752468
 21
5499.803031451033
 31
0.0
  0
LINE
  5
7596B
330
88D6B
100
AcDbEntity
  8
0
  6
Continuous
 62
7
370
0
100
AcDbLine
 10
14702.91590408848
 20
5499.503031451033
 30
0.0
 11
14703.78409752468
 21
5499.503031451033
 31
0.0
  0
LINE
  5
7596C
330
88D6B
100
AcDbEntity
  8
0
  6
Continuous
 62
7
370
0
100
AcDbLine
 10
14702.91590408848
 20
5499.203031451033
 30
0.0
 11
14703.78409752468
 21
5499.203031451033
 31
0.0
  0
LINE
  5
7599A
330
88D6B
100
AcDbEntity
  8
0
  6
Continuous
 62
7
370
30
100
AcDbLine
 10
14696.19590408847
 20
5503.313031451034
 30
0.0
 11
14697.17590408848
 21
5503.313031451034
 31
0.0
  0
LINE
  5
7599B
330
88D6B
100
AcDbEntity
  8
0
  6
Continuous
 62
7
370
30
100
AcDbLine
 10
14696.19590408847
 20
5502.803031451033
 30
0.0
 11
14697.17590408848
 21
5502.803031451033
 31
0.0
  0
LINE
  5
759A2
330
88D6B
100
AcDbEntity
  8
0
  6
Continuous
 62
7
370
30
100
AcDbLine
 10
14699.07590408847
 20
5503.313031451034
 30
0.0
 11
14700.03590408848
 21
5503.313031451034
 31
0.0
  0
LINE
  5
759A3
330
88D6B
100
AcDbEntity
  8
0
  6
Continuous
 62
7
370
30
100
AcDbLine
 10
14699.07590408847
 20
5502.803031451033
 30
0.0
 11
14700.03590408848
 21
5502.803031451033
 31
0.0
  0
LINE
  5
759A4
330
88D6B
100
AcDbEntity
  8
0
  6
Continuous
 62
7
370
30
100
AcDbLine
 10
14701.93590408848
 20
5503.313031451034
 30
0.0
 11
14702.40590408848
 21
5503.313031451034
 31
0.0
  0
LINE
  5
759A5
330
88D6B
100
AcDbEntity
  8
0
  6
Continuous
 62
7
370
30
100
AcDbLine
 10
14701.93590408848
 20
5502.803031451033
 30
0.0
 11
14702.47590408847
 21
5502.803031451033
 31
0.0
  0
LINE
  5
759C9
330
88D6B
100
AcDbEntity
  8
0
  6
Continuous
 62
7
370
30
100
AcDbLine
 10
14702.47590408847
 20
5500.503031451033
 30
0.0
 11
14702.47590408847
 21
5497.683031451034
 31
0.0
  0
LINE
  5
7FF91
330
88D6B
100
AcDbEntity
  8
0
  6
DGN Style 4
 62
7
370
13
100
AcDbLine
 10
14685.18590408848
 20
5503.463031451033
 30
0.0
 11
14702.62590408847
 21
5503.463031451033
 31
0.0
  0
LINE
  5
7FF92
330
88D6B
100
AcDbEntity
  8
0
  6
DGN Style 4
 62
7
370
13
100
AcDbLine
 10
14685.18590408848
 20
5503.463031451033
 30
0.0
 11
14685.18590408848
 21
5488.823031451033
 31
0.0
  0
LINE
  5
7FF93
330
88D6B
100
AcDbEntity
  8
0
  6
DGN Style 4
 62
7
370
13
100
AcDbLine
 10
14700.20590408848
 20
5500.653031451033
 30
0.0
 11
14702.62590408847
 21
5500.653031451033
 31
0.0
  0
LINE
  5
7FF94
330
88D6B
100
AcDbEntity
  8
0
  6
DGN Style 4
 62
7
370
13
100
AcDbLine
 10
14702.62590408847
 20
5503.463031451033
 30
0.0
 11
14702.62590408847
 21
5500.653031451033
 31
0.0
  0
LINE
  5
7FF95
330
88D6B
100
AcDbEntity
  8
0
  6
DGN Style 4
 62
7
370
13
100
AcDbLine
 10
14700.20590408848
 20
5500.653031451033
 30
0.0
 11
14700.20590408848
 21
5497.383031451033
 31
0.0
  0
LINE
  5
7FF96
330
88D6B
100
AcDbEntity
  8
0
  6
DGN Style 4
 62
7
370
13
100
AcDbLine
 10
14700.20590408848
 20
5497.383031451033
 30
0.0
 11
14702.89590408848
 21
5497.383031451033
 31
0.0
  0
LINE
  5
7FF97
330
88D6B
100
AcDbEntity
  8
0
  6
DGN Style 4
 62
7
370
13
100
AcDbLine
 10
14702.89590408848
 20
5497.383031451033
 30
0.0
 11
14702.89590408848
 21
5488.823031451033
 31
0.0
  0
LINE
  5
7FF98
330
88D6B
100
AcDbEntity
  8
0
  6
DGN Style 4
 62
7
370
13
100
AcDbLine
 10
14685.18590408848
 20
5488.823031451033
 30
0.0
 11
14702.89590408848
 21
5488.823031451033
 31
0.0
  0
LINE
  5
82A97
330
88D6B
100
AcDbEntity
  8
0
  6
Continuous
 62
7
370
0
100
AcDbLine
 10
14688.35590408848
 20
5500.603031451033
 30
0.0
 11
14688.35590408848
 21
5499.703031451034
 31
0.0
  0
LINE
  5
82A98
330
88D6B
100
AcDbEntity
  8
0
  6
Continuous
 62
7
370
0
100
AcDbLine
 10
14688.50590408847
 20
5500.603031451033
 30
0.0
 11
14688.50590408847
 21
5499.703031451034
 31
0.0
  0
LINE
  5
82A99
330
88D6B
100
AcDbEntity
  8
0
  6
Continuous
 62
7
370
0
100
AcDbLine
 10
14688.21691776198
 20
5500.12388208771
 30
0.0
 11
14688.6928838669
 21
5500.12388208771
 31
0.0
  0
LINE
  5
82A9A
330
88D6B
100
AcDbEntity
  8
0
  6
Continuous
 62
7
370
0
100
AcDbLine
 10
14688.50590408847
 20
5498.803031451033
 30
0.0
 11
14688.50590408847
 21
5497.903031451034
 31
0.0
  0
LINE
  5
82A9B
330
88D6B
100
AcDbEntity
  8
0
  6
Continuous
 62
7
370
0
100
AcDbLine
 10
14688.35590408848
 20
5498.803031451033
 30
0.0
 11
14688.35590408848
 21
5497.903031451034
 31
0.0
  0
LINE
  5
82A9C
330
88D6B
100
AcDbEntity
  8
0
  6
Continuous
 62
7
370
0
100
AcDbLine
 10
14688.20369648128
 20
5498.363780106569
 30
0.0
 11
14688.66644130551
 21
5498.363780106569
 31
0.0
  0
LINE
  5
82A9D
330
88D6B
100
AcDbEntity
  8
0
  6
Continuous
 62
7
370
0
100
AcDbLine
 10
14690.45590408847
 20
5497.603031451034
 30
0.0
 11
14689.55590408847
 21
5497.603031451034
 31
0.0
  0
LINE
  5
82A9E
330
88D6B
100
AcDbEntity
  8
0
  6
Continuous
 62
7
370
0
100
AcDbLine
 10
14689.55590408847
 20
5497.453031451033
 30
0.0
 11
14690.45590408847
 21
5497.453031451033
 31
0.0
  0
LINE
  5
82A9F
330
88D6B
100
AcDbEntity
  8
0
  6
Continuous
 62
7
370
0
100
AcDbLine
 10
14689.98416228117
 20
5497.799135861992
 30
0.0
 11
14689.98416228117
 21
5497.128620821555
 31
0.0
  0
LINE
  5
82AA0
330
88D6B
100
AcDbEntity
  8
0
  6
Continuous
 62
7
370
0
100
AcDbLine
 10
14689.55590408847
 20
5494.603031451034
 30
0.0
 11
14690.45590408847
 21
5494.603031451034
 31
0.0
  0
LINE
  5
82AA2
330
88D6B
100
AcDbEntity
  8
0
  6
Continuous
 62
7
370
0
100
AcDbLine
 10
14689.55590408847
 20
5494.453031451033
 30
0.0
 11
14690.45590408847
 21
5494.453031451033
 31
0.0
  0
LINE
  5
82AA3
330
88D6B
100
AcDbEntity
  8
0
  6
Continuous
 62
7
370
0
100
AcDbLine
 10
14690.05695802307
 20
5494.786780873583
 30
0.0
 11
14690.05695802307
 21
5494.22969882871
 31
0.0
  0
LINE
  5
82AA4
330
88D6B
100
AcDbEntity
  8
0
  6
Continuous
 62
7
370
0
100
AcDbLine
 10
14689.29590408848
 20
5494.153031451034
 30
0.0
 11
14689.29590408848
 21
5493.253031451033
 31
0.0
  0
LINE
  5
82AA5
330
88D6B
100
AcDbEntity
  8
0
  6
Continuous
 62
7
370
0
100
AcDbLine
 10
14689.14590408847
 20
5493.253031451033
 30
0.0
 11
14689.14590408847
 21
5494.153031451034
 31
0.0
  0
LINE
  5
82AA6
330
88D6B
100
AcDbEntity
  8
0
  6
Continuous
 62
7
370
0
100
AcDbLine
 10
14688.94637044492
 20
5493.735635114704
 30
0.0
 11
14689.43744658492
 21
5493.735635114704
 31
0.0
  0
LINE
  5
82AA7
330
88D6B
100
AcDbEntity
  8
0
  6
Continuous
 62
7
370
0
100
AcDbLine
 10
14690.95590408848
 20
5494.383031451033
 30
0.0
 11
14690.95590408848
 21
5493.483031451034
 31
0.0
  0
LINE
  5
82AA8
330
88D6B
100
AcDbEntity
  8
0
  6
Continuous
 62
7
370
0
100
AcDbLine
 10
14691.40590408847
 20
5493.483031451034
 30
0.0
 11
14691.40590408847
 21
5494.383031451033
 31
0.0
  0
LINE
  5
82AA9
330
88D6B
100
AcDbEntity
  8
0
  6
Continuous
 62
7
370
0
100
AcDbLine
 10
14691.6233649927
 20
5493.992749904645
 30
0.0
 11
14690.80742309855
 21
5493.992749904645
 31
0.0
  0
LINE
  5
82AAA
330
88D6B
100
AcDbEntity
  8
0
  6
Continuous
 62
7
370
0
100
AcDbLine
 10
14690.95590408848
 20
5498.943031451034
 30
0.0
 11
14690.95590408848
 21
5498.043031451032
 31
0.0
  0
LINE
  5
82AAB
330
88D6B
100
AcDbEntity
  8
0
  6
Continuous
 62
7
370
0
100
AcDbLine
 10
14691.40590408847
 20
5498.043031451032
 30
0.0
 11
14691.40590408847
 21
5498.943031451034
 31
0.0
  0
LINE
  5
82AAC
330
88D6B
100
AcDbEntity
  8
0
  6
Continuous
 62
7
370
0
100
AcDbLine
 10
14690.77650949251
 20
5498.497219161218
 30
0.0
 11
14691.57860052117
 21
5498.497219161218
 31
0.0
  0
LINE
  5
82AAD
330
88D6B
100
AcDbEntity
  8
0
  6
Continuous
 62
7
370
0
100
AcDbLine
 10
14693.87590408848
 20
5501.503031451033
 30
0.0
 11
14693.87590408848
 21
5500.603031451033
 31
0.0
  0
LINE
  5
82AAE
330
88D6B
100
AcDbEntity
  8
0
  6
Continuous
 62
7
370
0
100
AcDbLine
 10
14693.72590408847
 20
5501.503031451033
 30
0.0
 11
14693.72590408847
 21
5500.603031451033
 31
0.0
  0
LINE
  5
82AAF
330
88D6B
100
AcDbEntity
  8
0
  6
Continuous
 62
7
370
0
100
AcDbLine
 10
14693.53590095031
 20
5501.010409889466
 30
0.0
 11
14694.11433198059
 21
5501.010409889466
 31
0.0
  0
LINE
  5
82AB0
330
88D6B
100
AcDbEntity
  8
0
  6
Continuous
 62
7
370
0
100
AcDbLine
 10
14696.92590408848
 20
5502.003031451033
 30
0.0
 11
14696.92590408848
 21
5501.033031451033
 31
0.0
  0
LINE
  5
82AB1
330
88D6B
100
AcDbEntity
  8
0
  6
Continuous
 62
7
370
0
100
AcDbLine
 10
14697.07590408847
 20
5501.033031451033
 30
0.0
 11
14697.07590408847
 21
5502.003031451033
 31
0.0
  0
LINE
  5
82AB2
330
88D6B
100
AcDbEntity
  8
0
  6
Continuous
 62
7
370
0
100
AcDbLine
 10
14696.68256575505
 20
5501.489034112409
 30
0.0
 11
14697.30727126775
 21
5501.489034112409
 31
0.0
  0
LINE
  5
82AB3
330
88D6B
100
AcDbEntity
  8
0
  6
Continuous
 62
7
370
0
100
AcDbLine
 10
14697.07590408847
 20
5500.273031451033
 30
0.0
 11
14697.07590408847
 21
5499.573031451033
 31
0.0
  0
LINE
  5
82AB4
330
88D6B
100
AcDbEntity
  8
0
  6
Continuous
 62
7
370
0
100
AcDbLine
 10
14696.92590408848
 20
5499.573031451033
 30
0.0
 11
14696.92590408848
 21
5500.273031451033
 31
0.0
  0
LINE
  5
82AB5
330
88D6B
100
AcDbEntity
  8
0
  6
Continuous
 62
7
370
0
100
AcDbLine
 10
14696.67485334132
 20
5499.906486278483
 30
0.0
 11
14697.2532843716
 21
5499.906486278483
 31
0.0
  0
LINE
  5
82AB6
330
88D6B
100
AcDbEntity
  8
0
  6
Continuous
 62
7
370
0
100
AcDbLine
 10
14695.82590408847
 20
5497.683031451034
 30
0.0
 11
14694.82590408848
 21
5497.683031451034
 31
0.0
  0
LINE
  5
82AB7
330
88D6B
100
AcDbEntity
  8
0
  6
Continuous
 62
7
370
0
100
AcDbLine
 10
14694.82590408848
 20
5497.233031451034
 30
0.0
 11
14695.82590408847
 21
5497.233031451034
 31
0.0
  0
LINE
  5
82AB8
330
88D6B
100
AcDbEntity
  8
0
  6
Continuous
 62
7
370
0
100
AcDbLine
 10
14695.34831817854
 20
5497.907072185867
 30
0.0
 11
14695.34831817854
 21
5496.907072185867
 31
0.0
  0
LINE
  5
82AB9
330
88D6B
100
AcDbEntity
  8
0
  6
Continuous
 62
7
370
0
100
AcDbLine
 10
14699.04590408847
 20
5497.683031451034
 30
0.0
 11
14699.99590408848
 21
5497.683031451034
 31
0.0
  0
LINE
  5
82ABA
330
88D6B
100
AcDbEntity
  8
0
  6
Continuous
 62
7
370
0
100
AcDbLine
 10
14699.99590408848
 20
5497.233031451034
 30
0.0
 11
14699.04590408847
 21
5497.233031451034
 31
0.0
  0
LINE
  5
82ABB
330
88D6B
100
AcDbEntity
  8
0
  6
Continuous
 62
7
370
0
100
AcDbLine
 10
14699.45903470041
 20
5497.837594476084
 30
0.0
 11
14699.45903470041
 21
5496.887594476085
 31
0.0
  0
LINE
  5
82ABC
330
88D6B
100
AcDbEntity
  8
0
  6
Continuous
 62
7
370
0
100
AcDbLine
 10
14693.70590408848
 20
5494.183031451033
 30
0.0
 11
14693.70590408848
 21
5493.283031451033
 31
0.0
  0
LINE
  5
82ABD
330
88D6B
100
AcDbEntity
  8
0
  6
Continuous
 62
7
370
0
100
AcDbLine
 10
14693.85590408847
 20
5493.283031451033
 30
0.0
 11
14693.85590408847
 21
5494.183031451033
 31
0.0
  0
LINE
  5
82ABE
330
88D6B
100
AcDbEntity
  8
0
  6
Continuous
 62
7
370
0
100
AcDbLine
 10
14693.46600720083
 20
5493.725382528359
 30
0.0
 11
14694.05986305858
 21
5493.725382528359
 31
0.0
  0
LINE
  5
82ABF
330
88D6B
100
AcDbEntity
  8
0
  6
Continuous
 62
7
370
0
100
AcDbLine
 10
14696.03590408848
 20
5495.083031451033
 30
0.0
 11
14695.13590408847
 21
5495.083031451033
 31
0.0
  0
LINE
  5
82AC0
330
88D6B
100
AcDbEntity
  8
0
  6
Continuous
 62
7
370
0
100
AcDbLine
 10
14695.13590408847
 20
5494.633031451034
 30
0.0
 11
14696.03590408848
 21
5494.633031451034
 31
0.0
  0
LINE
  5
82AC1
330
88D6B
100
AcDbEntity
  8
0
  6
Continuous
 62
7
370
0
100
AcDbLine
 10
14695.61777063348
 20
5495.261611889096
 30
0.0
 11
14695.61777063348
 21
5494.361611889095
 31
0.0
  0
LINE
  5
82AC2
330
88D6B
100
AcDbEntity
  8
0
  6
Continuous
 62
7
370
0
100
AcDbLine
 10
14696.99590408847
 20
5491.283031451033
 30
0.0
 11
14696.99590408847
 21
5490.383031451034
 31
0.0
  0
LINE
  5
82AC3
330
88D6B
100
AcDbEntity
  8
0
  6
Continuous
 62
7
370
0
100
AcDbLine
 10
14697.14590408847
 20
5491.283031451033
 30
0.0
 11
14697.14590408847
 21
5490.383031451034
 31
0.0
  0
LINE
  5
82AC4
330
88D6B
100
AcDbEntity
  8
0
  6
Continuous
 62
7
370
0
100
AcDbLine
 10
14696.79005752152
 20
5490.745560753262
 30
0.0
 11
14697.3067892419
 21
5490.745560753262
 31
0.0
  0
LINE
  5
82AC5
330
88D6B
100
AcDbEntity
  8
0
  6
Continuous
 62
7
370
0
100
AcDbLine
 10
14699.74590408847
 20
5494.533031451033
 30
0.0
 11
14699.74590408847
 21
5493.733031451034
 31
0.0
  0
LINE
  5
82AC6
330
88D6B
100
AcDbEntity
  8
0
  6
Continuous
 62
7
370
0
100
AcDbLine
 10
14699.89590408848
 20
5494.533031451033
 30
0.0
 11
14699.89590408848
 21
5493.733031451034
 31
0.0
  0
LINE
  5
82AC7
330
88D6B
100
AcDbEntity
  8
0
  6
Continuous
 62
7
370
0
100
AcDbLine
 10
14700.08325818726
 20
5494.103650059394
 30
0.0
 11
14699.56652646687
 21
5494.103650059394
 31
0.0
  0
LINE
  5
82AC8
330
88D6B
100
AcDbEntity
  8
0
  6
Continuous
 62
7
370
0
100
AcDbLine
 10
14700.82590408847
 20
5493.633031451033
 30
0.0
 11
14701.72590408847
 21
5493.633031451033
 31
0.0
  0
LINE
  5
82AC9
330
88D6B
100
AcDbEntity
  8
0
  6
Continuous
 62
7
370
0
100
AcDbLine
 10
14701.72590408847
 20
5493.483031451034
 30
0.0
 11
14700.82590408847
 21
5493.483031451034
 31
0.0
  0
LINE
  5
82ACB
330
88D6B
100
AcDbEntity
  8
0
  6
Continuous
 62
7
370
0
100
AcDbLine
 10
14701.24012024782
 20
5493.825739220267
 30
0.0
 11
14701.24012024782
 21
5493.187060534332
 31
0.0
  0
LINE
  5
9065A
330
88D6B
100
AcDbEntity
  8
Стены
  6
Continuous
 62
7
370
30
100
AcDbLine
 10
14694.29590408848
 20
5502.803031451033
 30
0.0
 11
14694.29590408848
 21
5503.313031451034
 31
0.0
  0
LINE
  5
9065B
330
88D6B
100
AcDbEntity
  8
Стены
  6
Continuous
 62
7
370
30
100
AcDbLine
 10
14696.19590408847
 20
5502.803031451033
 30
0.0
 11
14696.19590408847
 21
5503.313031451034
 31
0.0
  0
LINE
  5
9065D
330
88D6B
100
AcDbEntity
  8
Стены
  6
Continuous
 62
7
370
0
100
AcDbLine
 10
14696.09590408848
 20
5503.213031451033
 30
0.0
 11
14694.39590408848
 21
5503.213031451033
 31
0.0
  0
LINE
  5
9065F
330
88D6B
100
AcDbEntity
  8
Стены
  6
Continuous
 62
7
370
0
100
AcDbLine
 10
14694.21590408848
 20
5503.393031451033
 30
0.0
 11
14696.27590408848
 21
5503.393031451033
 31
0.0
  0
LINE
  5
90660
330
88D6B
100
AcDbEntity
  8
Стены
  6
Continuous
 62
7
370
0
100
AcDbLine
 10
14694.21590408848
 20
5502.723031451033
 30
0.0
 11
14696.27590408848
 21
5502.723031451033
 31
0.0
  0
LINE
  5
90661
330
88D6B
100
AcDbEntity
  8
Стены
  6
Continuous
 62
7
370
0
100
AcDbLine
 10
14694.21590408848
 20
5503.313031451034
 30
0.0
 11
14694.21590408848
 21
5503.393031451033
 31
0.0
  0
LINE
  5
90662
330
88D6B
100
AcDbEntity
  8
Стены
  6
Continuous
 62
7
370
0
100
AcDbLine
 10
14696.09590408848
 20
5503.163031451034
 30
0.0
 11
14694.39590408848
 21
5503.163031451034
 31
0.0
  0
LINE
  5
90663
330
88D6B
100
AcDbEntity
  8
Стены
  6
Continuous
 62
7
370
0
100
AcDbLine
 10
14696.09590408848
 20
5503.113031451032
 30
0.0
 11
14694.39590408848
 21
5503.113031451032
 31
0.0
  0
LINE
  5
90664
330
88D6B
100
AcDbEntity
  8
Стены
  6
Continuous
 62
7
370
0
100
AcDbLine
 10
14696.27590408848
 20
5503.313031451034
 30
0.0
 11
14696.27590408848
 21
5503.393031451033
 31
0.0
  0
LINE
  5
90665
330
88D6B
100
AcDbEntity
  8
Стены
  6
Continuous
 62
7
370
0
100
AcDbLine
 10
14696.27590408848
 20
5502.723031451033
 30
0.0
 11
14696.27590408848
 21
5502.803031451033
 31
0.0
  0
LINE
  5
90666
330
88D6B
100
AcDbEntity
  8
Стены
  6
Continuous
 62
7
370
0
100
AcDbLine
 10
14694.21590408848
 20
5502.803031451033
 30
0.0
 11
14694.21590408848
 21
5502.723031451033
 31
0.0
  0
LINE
  5
90667
330
88D6B
100
AcDbEntity
  8
Стены
  6
Continuous
 62
7
370
30
100
AcDbLine
 10
14697.17590408848
 20
5502.803031451033
 30
0.0
 11
14697.17590408848
 21
5503.313031451034
 31
0.0
  0
LINE
  5
90668
330
88D6B
100
AcDbEntity
  8
Стены
  6
Continuous
 62
7
370
30
100
AcDbLine
 10
14699.07590408847
 20
5502.803031451033
 30
0.0
 11
14699.07590408847
 21
5503.313031451034
 31
0.0
  0
LINE
  5
9066A
330
88D6B
100
AcDbEntity
  8
Стены
  6
Continuous
 62
7
370
0
100
AcDbLine
 10
14698.97590408848
 20
5503.213031451033
 30
0.0
 11
14697.27590408847
 21
5503.213031451033
 31
0.0
  0
LINE
  5
9066C
330
88D6B
100
AcDbEntity
  8
Стены
  6
Continuous
 62
7
370
0
100
AcDbLine
 10
14697.09590408847
 20
5503.393031451033
 30
0.0
 11
14699.15590408847
 21
5503.393031451033
 31
0.0
  0
LINE
  5
9066D
330
88D6B
100
AcDbEntity
  8
Стены
  6
Continuous
 62
7
370
0
100
AcDbLine
 10
14697.09590408847
 20
5502.723031451033
 30
0.0
 11
14699.15590408847
 21
5502.723031451033
 31
0.0
  0
LINE
  5
9066E
330
88D6B
100
AcDbEntity
  8
Стены
  6
Continuous
 62
7
370
0
100
AcDbLine
 10
14697.09590408847
 20
5503.313031451034
 30
0.0
 11
14697.09590408847
 21
5503.393031451033
 31
0.0
  0
LINE
  5
9066F
330
88D6B
100
AcDbEntity
  8
Стены
  6
Continuous
 62
7
370
0
100
AcDbLine
 10
14698.97590408848
 20
5503.163031451034
 30
0.0
 11
14697.27590408847
 21
5503.163031451034
 31
0.0
  0
LINE
  5
90670
330
88D6B
100
AcDbEntity
  8
Стены
  6
Continuous
 62
7
370
0
100
AcDbLine
 10
14698.97590408848
 20
5503.113031451032
 30
0.0
 11
14697.27590408847
 21
5503.113031451032
 31
0.0
  0
LINE
  5
90671
330
88D6B
100
AcDbEntity
  8
Стены
  6
Continuous
 62
7
370
0
100
AcDbLine
 10
14699.15590408847
 20
5503.313031451034
 30
0.0
 11
14699.15590408847
 21
5503.393031451033
 31
0.0
  0
LINE
  5
90672
330
88D6B
100
AcDbEntity
  8
Стены
  6
Continuous
 62
7
370
0
100
AcDbLine
 10
14699.15590408847
 20
5502.723031451033
 30
0.0
 11
14699.15590408847
 21
5502.803031451033
 31
0.0
  0
LINE
  5
90673
330
88D6B
100
AcDbEntity
  8
Стены
  6
Continuous
 62
7
370
0
100
AcDbLine
 10
14697.09590408847
 20
5502.803031451033
 30
0.0
 11
14697.09590408847
 21
5502.723031451033
 31
0.0
  0
LINE
  5
90674
330
88D6B
100
AcDbEntity
  8
Стены
  6
Continuous
 62
7
370
30
100
AcDbLine
 10
14700.03590408848
 20
5502.803031451033
 30
0.0
 11
14700.03590408848
 21
5503.313031451034
 31
0.0
  0
LINE
  5
90675
330
88D6B
100
AcDbEntity
  8
Стены
  6
Continuous
 62
7
370
30
100
AcDbLine
 10
14701.93590408848
 20
5502.803031451033
 30
0.0
 11
14701.93590408848
 21
5503.313031451034
 31
0.0
  0
LINE
  5
90677
330
88D6B
100
AcDbEntity
  8
Стены
  6
Continuous
 62
7
370
0
100
AcDbLine
 10
14701.83590408848
 20
5503.213031451033
 30
0.0
 11
14700.13590408848
 21
5503.213031451033
 31
0.0
  0
LINE
  5
90679
330
88D6B
100
AcDbEntity
  8
Стены
  6
Continuous
 62
7
370
0
100
AcDbLine
 10
14699.95590408847
 20
5503.393031451033
 30
0.0
 11
14702.01590408848
 21
5503.393031451033
 31
0.0
  0
LINE
  5
9067A
330
88D6B
100
AcDbEntity
  8
Стены
  6
Continuous
 62
7
370
0
100
AcDbLine
 10
14699.95590408847
 20
5502.723031451033
 30
0.0
 11
14702.01590408848
 21
5502.723031451033
 31
0.0
  0
LINE
  5
9067B
330
88D6B
100
AcDbEntity
  8
Стены
  6
Continuous
 62
7
370
0
100
AcDbLine
 10
14699.95590408847
 20
5503.313031451034
 30
0.0
 11
14699.95590408847
 21
5503.393031451033
 31
0.0
  0
LINE
  5
9067C
330
88D6B
100
AcDbEntity
  8
Стены
  6
Continuous
 62
7
370
0
100
AcDbLine
 10
14701.83590408848
 20
5503.163031451034
 30
0.0
 11
14700.13590408848
 21
5503.163031451034
 31
0.0
  0
LINE
  5
9067D
330
88D6B
100
AcDbEntity
  8
Стены
  6
Continuous
 62
7
370
0
100
AcDbLine
 10
14701.83590408848
 20
5503.113031451032
 30
0.0
 11
14700.13590408848
 21
5503.113031451032
 31
0.0
  0
LINE
  5
9067E
330
88D6B
100
AcDbEntity
  8
Стены
  6
Continuous
 62
7
370
0
100
AcDbLine
 10
14702.01590408848
 20
5503.313031451034
 30
0.0
 11
14702.01590408848
 21
5503.393031451033
 31
0.0
  0
LINE
  5
9067F
330
88D6B
100
AcDbEntity
  8
Стены
  6
Continuous
 62
7
370
0
100
AcDbLine
 10
14702.01590408848
 20
5502.723031451033
 30
0.0
 11
14702.01590408848
 21
5502.803031451033
 31
0.0
  0
LINE
  5
90680
330
88D6B
100
AcDbEntity
  8
Стены
  6
Continuous
 62
7
370
0
100
AcDbLine
 10
14699.95590408847
 20
5502.803031451033
 30
0.0
 11
14699.95590408847
 21
5502.723031451033
 31
0.0
  0
LINE
  5
90681
330
88D6B
100
AcDbEntity
  8
0
  6
Continuous
 62
7
370
0
100
AcDbLine
 10
14702.42590408848
 20
5500.453031451034
 30
0.0
 11
14700.40590408848
 21
5500.453031451034
 31
0.0
  0
LINE
  5
90682
330
88D6B
100
AcDbEntity
  8
0
  6
Continuous
 62
7
370
0
100
AcDbLine
 10
14700.40590408848
 20
5500.453031451034
 30
0.0
 11
14700.40590408848
 21
5497.733031451033
 31
0.0
  0
LINE
  5
90683
330
88D6B
100
AcDbEntity
  8
0
  6
Continuous
 62
7
370
0
100
AcDbLine
 10
14700.40590408848
 20
5497.733031451033
 30
0.0
 11
14702.42590408848
 21
5497.733031451033
 31
0.0
  0
LINE
  5
90684
330
88D6B
100
AcDbEntity
  8
0
  6
Continuous
 62
7
370
0
100
AcDbLine
 10
14702.42590408848
 20
5497.733031451033
 30
0.0
 11
14702.42590408848
 21
5500.453031451034
 31
0.0
  0
LINE
  5
90685
330
88D6B
100
AcDbEntity
  8
0
  6
Continuous
 62
7
370
0
100
AcDbLine
 10
14702.42590408848
 20
5500.453031451034
 30
0.0
 11
14702.42590408848
 21
5500.453031451034
 31
0.0
  0
LINE
  5
90686
330
88D6B
100
AcDbEntity
  8
Стены
  6
Continuous
 62
7
370
30
100
AcDbLine
 10
14691.40590408847
 20
5502.803031451033
 30
0.0
 11
14691.40590408847
 21
5503.313031451034
 31
0.0
  0
LINE
  5
90687
330
88D6B
100
AcDbEntity
  8
Стены
  6
Continuous
 62
7
370
30
100
AcDbLine
 10
14693.30590408847
 20
5502.803031451033
 30
0.0
 11
14693.30590408847
 21
5503.313031451034
 31
0.0
  0
LINE
  5
90689
330
88D6B
100
AcDbEntity
  8
Стены
  6
Continuous
 62
7
370
0
100
AcDbLine
 10
14693.20590408847
 20
5503.213031451033
 30
0.0
 11
14691.50590408847
 21
5503.213031451033
 31
0.0
  0
LINE
  5
9068B
330
88D6B
100
AcDbEntity
  8
Стены
  6
Continuous
 62
7
370
0
100
AcDbLine
 10
14691.32590408847
 20
5503.393031451033
 30
0.0
 11
14693.38590408847
 21
5503.393031451033
 31
0.0
  0
LINE
  5
9068C
330
88D6B
100
AcDbEntity
  8
Стены
  6
Continuous
 62
7
370
0
100
AcDbLine
 10
14691.40590408847
 20
5502.723031451033
 30
0.0
 11
14693.38590408847
 21
5502.723031451033
 31
0.0
  0
LINE
  5
9068D
330
88D6B
100
AcDbEntity
  8
Стены
  6
Continuous
 62
7
370
0
100
AcDbLine
 10
14691.32590408847
 20
5503.313031451034
 30
0.0
 11
14691.32590408847
 21
5503.393031451033
 31
0.0
  0
LINE
  5
9068E
330
88D6B
100
AcDbEntity
  8
Стены
  6
Continuous
 62
7
370
0
100
AcDbLine
 10
14693.20590408847
 20
5503.163031451033
 30
0.0
 11
14691.50590408847
 21
5503.163031451033
 31
0.0
  0
LINE
  5
9068F
330
88D6B
100
AcDbEntity
  8
Стены
  6
Continuous
 62
7
370
0
100
AcDbLine
 10
14693.20590408847
 20
5503.113031451033
 30
0.0
 11
14691.50590408847
 21
5503.113031451033
 31
0.0
  0
LINE
  5
90690
330
88D6B
100
AcDbEntity
  8
Стены
  6
Continuous
 62
7
370
0
100
AcDbLine
 10
14693.38590408847
 20
5503.313031451033
 30
0.0
 11
14693.38590408847
 21
5503.393031451033
 31
0.0
  0
LINE
  5
90691
330
88D6B
100
AcDbEntity
  8
Стены
  6
Continuous
 62
7
370
0
100
AcDbLine
 10
14693.38590408847
 20
5502.723031451033
 30
0.0
 11
14693.38590408847
 21
5502.803031451033
 31
0.0
  0
LINE
  5
90692
330
88D6B
100
AcDbEntity
  8
Стены
  6
Continuous
 62
7
370
30
100
AcDbLine
 10
14702.32590408848
 20
5489.483031451033
 30
0.0
 11
14702.32590408848
 21
5488.973031451034
 31
0.0
  0
LINE
  5
90693
330
88D6B
100
AcDbEntity
  8
Стены
  6
Continuous
 62
7
370
30
100
AcDbLine
 10
14700.42590408848
 20
5489.483031451033
 30
0.0
 11
14700.42590408848
 21
5488.973031451034
 31
0.0
  0
LINE
  5
90695
330
88D6B
100
AcDbEntity
  8
Стены
  6
Continuous
 62
7
370
0
100
AcDbLine
 10
14700.52590408847
 20
5489.073031451034
 30
0.0
 11
14702.22590408847
 21
5489.073031451034
 31
0.0
  0
LINE
  5
90697
330
88D6B
100
AcDbEntity
  8
Стены
  6
Continuous
 62
7
370
0
100
AcDbLine
 10
14702.40590408848
 20
5488.893031451033
 30
0.0
 11
14700.34590408848
 21
5488.893031451033
 31
0.0
  0
LINE
  5
90698
330
88D6B
100
AcDbEntity
  8
Стены
  6
Continuous
 62
7
370
0
100
AcDbLine
 10
14702.40590408848
 20
5489.563031451034
 30
0.0
 11
14700.34590408848
 21
5489.563031451034
 31
0.0
  0
LINE
  5
90699
330
88D6B
100
AcDbEntity
  8
Стены
  6
Continuous
 62
7
370
0
100
AcDbLine
 10
14702.40590408848
 20
5488.973031451034
 30
0.0
 11
14702.40590408848
 21
5488.893031451033
 31
0.0
  0
LINE
  5
9069A
330
88D6B
100
AcDbEntity
  8
Стены
  6
Continuous
 62
7
370
0
100
AcDbLine
 10
14700.52590408847
 20
5489.123031451033
 30
0.0
 11
14702.22590408847
 21
5489.123031451033
 31
0.0
  0
LINE
  5
9069B
330
88D6B
100
AcDbEntity
  8
Стены
  6
Continuous
 62
7
370
0
100
AcDbLine
 10
14700.52590408847
 20
5489.173031451034
 30
0.0
 11
14702.22590408847
 21
5489.173031451034
 31
0.0
  0
LINE
  5
9069C
330
88D6B
100
AcDbEntity
  8
Стены
  6
Continuous
 62
7
370
0
100
AcDbLine
 10
14700.34590408848
 20
5488.973031451034
 30
0.0
 11
14700.34590408848
 21
5488.893031451033
 31
0.0
  0
LINE
  5
9069D
330
88D6B
100
AcDbEntity
  8
Стены
  6
Continuous
 62
7
370
0
100
AcDbLine
 10
14700.34590408848
 20
5489.563031451034
 30
0.0
 11
14700.34590408848
 21
5489.483031451033
 31
0.0
  0
LINE
  5
9069E
330
88D6B
100
AcDbEntity
  8
Стены
  6
Continuous
 62
7
370
0
100
AcDbLine
 10
14702.40590408848
 20
5489.483031451033
 30
0.0
 11
14702.40590408848
 21
5489.563031451034
 31
0.0
  0
LINE
  5
9069F
330
88D6B
100
AcDbEntity
  8
Стены
  6
Continuous
 62
7
370
30
100
AcDbLine
 10
14699.44590408847
 20
5489.483031451033
 30
0.0
 11
14699.44590408847
 21
5488.973031451034
 31
0.0
  0
LINE
  5
906A0
330
88D6B
100
AcDbEntity
  8
Стены
  6
Continuous
 62
7
370
30
100
AcDbLine
 10
14697.54590408847
 20
5489.483031451033
 30
0.0
 11
14697.54590408847
 21
5488.973031451034
 31
0.0
  0
LINE
  5
906A2
330
88D6B
100
AcDbEntity
  8
Стены
  6
Continuous
 62
7
370
0
100
AcDbLine
 10
14697.64590408847
 20
5489.073031451034
 30
0.0
 11
14699.34590408847
 21
5489.073031451034
 31
0.0
  0
LINE
  5
906A4
330
88D6B
100
AcDbEntity
  8
Стены
  6
Continuous
 62
7
370
0
100
AcDbLine
 10
14699.52590408848
 20
5488.893031451033
 30
0.0
 11
14697.46590408847
 21
5488.893031451033
 31
0.0
  0
LINE
  5
906A5
330
88D6B
100
AcDbEntity
  8
Стены
  6
Continuous
 62
7
370
0
100
AcDbLine
 10
14699.52590408848
 20
5489.563031451034
 30
0.0
 11
14697.46590408847
 21
5489.563031451034
 31
0.0
  0
LINE
  5
906A6
330
88D6B
100
AcDbEntity
  8
Стены
  6
Continuous
 62
7
370
0
100
AcDbLine
 10
14699.52590408848
 20
5488.973031451034
 30
0.0
 11
14699.52590408848
 21
5488.893031451033
 31
0.0
  0
LINE
  5
906A7
330
88D6B
100
AcDbEntity
  8
Стены
  6
Continuous
 62
7
370
0
100
AcDbLine
 10
14697.64590408847
 20
5489.123031451033
 30
0.0
 11
14699.34590408847
 21
5489.123031451033
 31
0.0
  0
LINE
  5
906A8
330
88D6B
100
AcDbEntity
  8
Стены
  6
Continuous
 62
7
370
0
100
AcDbLine
 10
14697.64590408847
 20
5489.173031451034
 30
0.0
 11
14699.34590408847
 21
5489.173031451034
 31
0.0
  0
LINE
  5
906A9
330
88D6B
100
AcDbEntity
  8
Стены
  6
Continuous
 62
7
370
0
100
AcDbLine
 10
14697.46590408847
 20
5488.973031451034
 30
0.0
 11
14697.46590408847
 21
5488.893031451033
 31
0.0
  0
LINE
  5
906AA
330
88D6B
100
AcDbEntity
  8
Стены
  6
Continuous
 62
7
370
0
100
AcDbLine
 10
14697.46590408847
 20
5489.563031451034
 30
0.0
 11
14697.46590408847
 21
5489.483031451033
 31
0.0
  0
LINE
  5
906AB
330
88D6B
100
AcDbEntity
  8
Стены
  6
Continuous
 62
7
370
0
100
AcDbLine
 10
14699.52590408848
 20
5489.483031451033
 30
0.0
 11
14699.52590408848
 21
5489.563031451034
 31
0.0
  0
LINE
  5
906AC
330
88D6B
100
AcDbEntity
  8
Стены
  6
Continuous
 62
7
370
30
100
AcDbLine
 10
14696.59590408847
 20
5489.483031451033
 30
0.0
 11
14696.59590408847
 21
5488.973031451034
 31
0.0
  0
LINE
  5
906AD
330
88D6B
100
AcDbEntity
  8
Стены
  6
Continuous
 62
7
370
30
100
AcDbLine
 10
14694.69590408847
 20
5489.483031451033
 30
0.0
 11
14694.69590408847
 21
5488.973031451034
 31
0.0
  0
LINE
  5
906AF
330
88D6B
100
AcDbEntity
  8
Стены
  6
Continuous
 62
7
370
0
100
AcDbLine
 10
14694.79590408847
 20
5489.073031451034
 30
0.0
 11
14696.49590408847
 21
5489.073031451034
 31
0.0
  0
LINE
  5
906B1
330
88D6B
100
AcDbEntity
  8
Стены
  6
Continuous
 62
7
370
0
100
AcDbLine
 10
14696.67590408847
 20
5488.893031451033
 30
0.0
 11
14694.61590408847
 21
5488.893031451033
 31
0.0
  0
LINE
  5
906B2
330
88D6B
100
AcDbEntity
  8
Стены
  6
Continuous
 62
7
370
0
100
AcDbLine
 10
14696.67590408847
 20
5489.563031451034
 30
0.0
 11
14694.61590408847
 21
5489.563031451034
 31
0.0
  0
LINE
  5
906B3
330
88D6B
100
AcDbEntity
  8
Стены
  6
Continuous
 62
7
370
0
100
AcDbLine
 10
14696.67590408847
 20
5488.973031451034
 30
0.0
 11
14696.67590408847
 21
5488.893031451033
 31
0.0
  0
LINE
  5
906B4
330
88D6B
100
AcDbEntity
  8
Стены
  6
Continuous
 62
7
370
0
100
AcDbLine
 10
14694.79590408847
 20
5489.123031451033
 30
0.0
 11
14696.49590408847
 21
5489.123031451033
 31
0.0
  0
LINE
  5
906B5
330
88D6B
100
AcDbEntity
  8
Стены
  6
Continuous
 62
7
370
0
100
AcDbLine
 10
14694.79590408847
 20
5489.173031451034
 30
0.0
 11
14696.49590408847
 21
5489.173031451034
 31
0.0
  0
LINE
  5
906B6
330
88D6B
100
AcDbEntity
  8
Стены
  6
Continuous
 62
7
370
0
100
AcDbLine
 10
14694.61590408847
 20
5488.973031451034
 30
0.0
 11
14694.61590408847
 21
5488.893031451033
 31
0.0
  0
LINE
  5
906B7
330
88D6B
100
AcDbEntity
  8
Стены
  6
Continuous
 62
7
370
0
100
AcDbLine
 10
14694.61590408847
 20
5489.563031451034
 30
0.0
 11
14694.61590408847
 21
5489.483031451033
 31
0.0
  0
LINE
  5
906B8
330
88D6B
100
AcDbEntity
  8
Стены
  6
Continuous
 62
7
370
0
100
AcDbLine
 10
14696.67590408847
 20
5489.483031451033
 30
0.0
 11
14696.67590408847
 21
5489.563031451034
 31
0.0
  0
LINE
  5
906B9
330
88D6B
100
AcDbEntity
  8
Стены
  6
Continuous
 62
7
370
30
100
AcDbLine
 10
14690.75590408847
 20
5489.483031451033
 30
0.0
 11
14690.75590408847
 21
5488.973031451034
 31
0.0
  0
LINE
  5
906BA
330
88D6B
100
AcDbEntity
  8
Стены
  6
Continuous
 62
7
370
30
100
AcDbLine
 10
14688.85590408847
 20
5489.483031451033
 30
0.0
 11
14688.85590408847
 21
5488.973031451034
 31
0.0
  0
LINE
  5
906BC
330
88D6B
100
AcDbEntity
  8
Стены
  6
Continuous
 62
7
370
0
100
AcDbLine
 10
14688.95590408847
 20
5489.073031451034
 30
0.0
 11
14690.65590408847
 21
5489.073031451034
 31
0.0
  0
LINE
  5
906BE
330
88D6B
100
AcDbEntity
  8
Стены
  6
Continuous
 62
7
370
0
100
AcDbLine
 10
14690.83590408847
 20
5488.893031451033
 30
0.0
 11
14688.77590408847
 21
5488.893031451033
 31
0.0
  0
LINE
  5
906BF
330
88D6B
100
AcDbEntity
  8
Стены
  6
Continuous
 62
7
370
0
100
AcDbLine
 10
14690.83590408847
 20
5489.563031451034
 30
0.0
 11
14688.77590408847
 21
5489.563031451034
 31
0.0
  0
LINE
  5
906C0
330
88D6B
100
AcDbEntity
  8
Стены
  6
Continuous
 62
7
370
0
100
AcDbLine
 10
14690.83590408847
 20
5488.973031451034
 30
0.0
 11
14690.83590408847
 21
5488.893031451033
 31
0.0
  0
LINE
  5
906C1
330
88D6B
100
AcDbEntity
  8
Стены
  6
Continuous
 62
7
370
0
100
AcDbLine
 10
14688.95590408847
 20
5489.123031451033
 30
0.0
 11
14690.65590408847
 21
5489.123031451033
 31
0.0
  0
LINE
  5
906C2
330
88D6B
100
AcDbEntity
  8
Стены
  6
Continuous
 62
7
370
0
100
AcDbLine
 10
14688.95590408847
 20
5489.173031451034
 30
0.0
 11
14690.65590408847
 21
5489.173031451034
 31
0.0
  0
LINE
  5
906C3
330
88D6B
100
AcDbEntity
  8
Стены
  6
Continuous
 62
7
370
0
100
AcDbLine
 10
14688.77590408847
 20
5488.973031451034
 30
0.0
 11
14688.77590408847
 21
5488.893031451033
 31
0.0
  0
LINE
  5
906C4
330
88D6B
100
AcDbEntity
  8
Стены
  6
Continuous
 62
7
370
0
100
AcDbLine
 10
14688.77590408847
 20
5489.563031451034
 30
0.0
 11
14688.77590408847
 21
5489.483031451033
 31
0.0
  0
LINE
  5
906C5
330
88D6B
100
AcDbEntity
  8
Стены
  6
Continuous
 62
7
370
0
100
AcDbLine
 10
14690.83590408847
 20
5489.483031451033
 30
0.0
 11
14690.83590408847
 21
5489.563031451034
 31
0.0
  0
LINE
  5
906C6
330
88D6B
100
AcDbEntity
  8
Стены
  6
Continuous
 62
7
370
30
100
AcDbLine
 10
14685.84590408847
 20
5495.253031451033
 30
0.0
 11
14685.33590408847
 21
5495.253031451033
 31
0.0
  0
LINE
  5
906C7
330
88D6B
100
AcDbEntity
  8
Стены
  6
Continuous
 62
7
370
30
100
AcDbLine
 10
14685.84590408847
 20
5497.153031451033
 30
0.0
 11
14685.33590408847
 21
5497.153031451033
 31
0.0
  0
LINE
  5
906C9
330
88D6B
100
AcDbEntity
  8
Стены
  6
Continuous
 62
7
370
0
100
AcDbLine
 10
14685.43590408847
 20
5497.053031451033
 30
0.0
 11
14685.43590408847
 21
5495.353031451034
 31
0.0
  0
LINE
  5
906CB
330
88D6B
100
AcDbEntity
  8
Стены
  6
Continuous
 62
7
370
0
100
AcDbLine
 10
14685.25590408848
 20
5495.173031451034
 30
0.0
 11
14685.25590408848
 21
5497.233031451034
 31
0.0
  0
LINE
  5
906CC
330
88D6B
100
AcDbEntity
  8
Стены
  6
Continuous
 62
7
370
0
100
AcDbLine
 10
14685.92590408847
 20
5495.173031451034
 30
0.0
 11
14685.92590408847
 21
5497.233031451034
 31
0.0
  0
LINE
  5
906CD
330
88D6B
100
AcDbEntity
  8
Стены
  6
Continuous
 62
7
370
0
100
AcDbLine
 10
14685.33590408847
 20
5495.173031451034
 30
0.0
 11
14685.25590408848
 21
5495.173031451034
 31
0.0
  0
LINE
  5
906CE
330
88D6B
100
AcDbEntity
  8
Стены
  6
Continuous
 62
7
370
0
100
AcDbLine
 10
14685.48590408848
 20
5497.053031451033
 30
0.0
 11
14685.48590408848
 21
5495.353031451034
 31
0.0
  0
LINE
  5
906CF
330
88D6B
100
AcDbEntity
  8
Стены
  6
Continuous
 62
7
370
0
100
AcDbLine
 10
14685.53590408848
 20
5497.053031451033
 30
0.0
 11
14685.53590408848
 21
5495.353031451034
 31
0.0
  0
LINE
  5
906D0
330
88D6B
100
AcDbEntity
  8
Стены
  6
Continuous
 62
7
370
0
100
AcDbLine
 10
14685.33590408847
 20
5497.233031451034
 30
0.0
 11
14685.25590408848
 21
5497.233031451034
 31
0.0
  0
LINE
  5
906D1
330
88D6B
100
AcDbEntity
  8
Стены
  6
Continuous
 62
7
370
0
100
AcDbLine
 10
14685.92590408847
 20
5497.233031451034
 30
0.0
 11
14685.84590408847
 21
5497.233031451034
 31
0.0
  0
LINE
  5
906D2
330
88D6B
100
AcDbEntity
  8
Стены
  6
Continuous
 62
7
370
0
100
AcDbLine
 10
14685.84590408847
 20
5495.173031451034
 30
0.0
 11
14685.92590408847
 21
5495.173031451034
 31
0.0
  0
LINE
  5
906D3
330
88D6B
100
AcDbEntity
  8
Стены
  6
Continuous
 62
7
370
30
100
AcDbLine
 10
14685.84590408847
 20
5499.503031451033
 30
0.0
 11
14685.33590408847
 21
5499.503031451033
 31
0.0
  0
LINE
  5
906D4
330
88D6B
100
AcDbEntity
  8
Стены
  6
Continuous
 62
7
370
30
100
AcDbLine
 10
14685.84590408847
 20
5501.403031451033
 30
0.0
 11
14685.33590408847
 21
5501.403031451033
 31
0.0
  0
LINE
  5
906D6
330
88D6B
100
AcDbEntity
  8
Стены
  6
Continuous
 62
7
370
0
100
AcDbLine
 10
14685.43590408847
 20
5501.303031451033
 30
0.0
 11
14685.43590408847
 21
5499.603031451034
 31
0.0
  0
LINE
  5
906D8
330
88D6B
100
AcDbEntity
  8
Стены
  6
Continuous
 62
7
370
0
100
AcDbLine
 10
14685.25590408848
 20
5499.423031451033
 30
0.0
 11
14685.25590408848
 21
5501.483031451034
 31
0.0
  0
LINE
  5
906D9
330
88D6B
100
AcDbEntity
  8
Стены
  6
Continuous
 62
7
370
0
100
AcDbLine
 10
14685.92590408847
 20
5499.423031451033
 30
0.0
 11
14685.92590408847
 21
5501.483031451034
 31
0.0
  0
LINE
  5
906DA
330
88D6B
100
AcDbEntity
  8
Стены
  6
Continuous
 62
7
370
0
100
AcDbLine
 10
14685.33590408847
 20
5499.423031451033
 30
0.0
 11
14685.25590408848
 21
5499.423031451033
 31
0.0
  0
LINE
  5
906DB
330
88D6B
100
AcDbEntity
  8
Стены
  6
Continuous
 62
7
370
0
100
AcDbLine
 10
14685.48590408848
 20
5501.303031451033
 30
0.0
 11
14685.48590408848
 21
5499.603031451034
 31
0.0
  0
LINE
  5
906DC
330
88D6B
100
AcDbEntity
  8
Стены
  6
Continuous
 62
7
370
0
100
AcDbLine
 10
14685.53590408848
 20
5501.303031451033
 30
0.0
 11
14685.53590408848
 21
5499.603031451034
 31
0.0
  0
LINE
  5
906DD
330
88D6B
100
AcDbEntity
  8
Стены
  6
Continuous
 62
7
370
0
100
AcDbLine
 10
14685.33590408847
 20
5501.483031451034
 30
0.0
 11
14685.25590408848
 21
5501.483031451034
 31
0.0
  0
LINE
  5
906DE
330
88D6B
100
AcDbEntity
  8
Стены
  6
Continuous
 62
7
370
0
100
AcDbLine
 10
14685.92590408847
 20
5501.483031451034
 30
0.0
 11
14685.84590408847
 21
5501.483031451034
 31
0.0
  0
LINE
  5
906DF
330
88D6B
100
AcDbEntity
  8
Стены
  6
Continuous
 62
7
370
0
100
AcDbLine
 10
14685.84590408847
 20
5499.423031451033
 30
0.0
 11
14685.92590408847
 21
5499.423031451033
 31
0.0
  0
LINE
  5
906E0
330
88D6B
100
AcDbEntity
  8
Стены
  6
Continuous
 62
7
370
30
100
AcDbLine
 10
14685.84590408847
 20
5490.883031451033
 30
0.0
 11
14685.33590408847
 21
5490.883031451033
 31
0.0
  0
LINE
  5
906E1
330
88D6B
100
AcDbEntity
  8
Стены
  6
Continuous
 62
7
370
30
100
AcDbLine
 10
14685.84590408847
 20
5492.783031451033
 30
0.0
 11
14685.33590408847
 21
5492.783031451033
 31
0.0
  0
LINE
  5
906E3
330
88D6B
100
AcDbEntity
  8
Стены
  6
Continuous
 62
7
370
0
100
AcDbLine
 10
14685.43590408847
 20
5492.683031451033
 30
0.0
 11
14685.43590408847
 21
5490.983031451033
 31
0.0
  0
LINE
  5
906E5
330
88D6B
100
AcDbEntity
  8
Стены
  6
Continuous
 62
7
370
0
100
AcDbLine
 10
14685.25590408848
 20
5490.803031451033
 30
0.0
 11
14685.25590408848
 21
5492.863031451033
 31
0.0
  0
LINE
  5
906E6
330
88D6B
100
AcDbEntity
  8
Стены
  6
Continuous
 62
7
370
0
100
AcDbLine
 10
14685.92590408847
 20
5490.803031451033
 30
0.0
 11
14685.92590408847
 21
5492.863031451033
 31
0.0
  0
LINE
  5
906E7
330
88D6B
100
AcDbEntity
  8
Стены
  6
Continuous
 62
7
370
0
100
AcDbLine
 10
14685.33590408847
 20
5490.803031451033
 30
0.0
 11
14685.25590408848
 21
5490.803031451033
 31
0.0
  0
LINE
  5
906E8
330
88D6B
100
AcDbEntity
  8
Стены
  6
Continuous
 62
7
370
0
100
AcDbLine
 10
14685.48590408848
 20
5492.683031451033
 30
0.0
 11
14685.48590408848
 21
5490.983031451033
 31
0.0
  0
LINE
  5
906E9
330
88D6B
100
AcDbEntity
  8
Стены
  6
Continuous
 62
7
370
0
100
AcDbLine
 10
14685.53590408848
 20
5492.683031451033
 30
0.0
 11
14685.53590408848
 21
5490.983031451033
 31
0.0
  0
LINE
  5
906EA
330
88D6B
100
AcDbEntity
  8
Стены
  6
Continuous
 62
7
370
0
100
AcDbLine
 10
14685.33590408847
 20
5492.863031451033
 30
0.0
 11
14685.25590408848
 21
5492.863031451033
 31
0.0
  0
LINE
  5
906EB
330
88D6B
100
AcDbEntity
  8
Стены
  6
Continuous
 62
7
370
0
100
AcDbLine
 10
14685.92590408847
 20
5492.863031451033
 30
0.0
 11
14685.84590408847
 21
5492.863031451033
 31
0.0
  0
LINE
  5
906EC
330
88D6B
100
AcDbEntity
  8
Стены
  6
Continuous
 62
7
370
0
100
AcDbLine
 10
14685.84590408847
 20
5490.803031451033
 30
0.0
 11
14685.92590408847
 21
5490.803031451033
 31
0.0
  0
LINE
  5
906ED
330
88D6B
100
AcDbEntity
  8
0
  6
Continuous
 62
7
370
0
100
AcDbLine
 10
14703.78409752468
 20
5504.947540872732
 30
0.0
 11
14703.78409752468
 21
5496.519897936117
 31
0.0
  0
LINE
  5
906EE
330
88D6B
100
AcDbEntity
  8
0
  6
Continuous
 62
7
370
0
100
AcDbLine
 10
14703.78409752468
 20
5496.519897936117
 30
0.0
 11
14704.29234435187
 21
5496.425235404122
 31
0.0
  0
LINE
  5
906EF
330
88D6B
100
AcDbEntity
  8
0
  6
Continuous
 62
7
370
0
100
AcDbLine
 10
14704.29234435187
 20
5496.425235404122
 30
0.0
 11
14703.25383614251
 21
5496.289722865134
 31
0.0
  0
LINE
  5
906F0
330
88D6B
100
AcDbEntity
  8
0
  6
Continuous
 62
7
370
0
100
AcDbLine
 10
14703.25383614251
 20
5496.289722865134
 30
0.0
 11
14703.78409752468
 21
5496.181777434165
 31
0.0
  0
LINE
  5
906F1
330
88D6B
100
AcDbEntity
  8
0
  6
Continuous
 62
7
370
0
100
AcDbLine
 10
14703.78409752468
 20
5496.181777434165
 30
0.0
 11
14703.78409752468
 21
5488.010934051203
 31
0.0
  0
LINE
  5
906F2
330
88D6B
100
AcDbEntity
  8
Стены
  6
Continuous
 62
7
370
30
100
AcDbLine
 10
14693.70590408848
 20
5489.483031451033
 30
0.0
 11
14693.70590408848
 21
5488.973031451034
 31
0.0
  0
LINE
  5
906F3
330
88D6B
100
AcDbEntity
  8
Стены
  6
Continuous
 62
7
370
30
100
AcDbLine
 10
14691.80590408848
 20
5489.483031451033
 30
0.0
 11
14691.80590408848
 21
5488.973031451034
 31
0.0
  0
LINE
  5
906F5
330
88D6B
100
AcDbEntity
  8
Стены
  6
Continuous
 62
7
370
0
100
AcDbLine
 10
14691.90590408848
 20
5489.073031451034
 30
0.0
 11
14693.60590408848
 21
5489.073031451034
 31
0.0
  0
LINE
  5
906F7
330
88D6B
100
AcDbEntity
  8
Стены
  6
Continuous
 62
7
370
0
100
AcDbLine
 10
14693.78590408848
 20
5488.893031451033
 30
0.0
 11
14691.72590408848
 21
5488.893031451033
 31
0.0
  0
LINE
  5
906F8
330
88D6B
100
AcDbEntity
  8
Стены
  6
Continuous
 62
7
370
0
100
AcDbLine
 10
14693.70590408848
 20
5489.563031451034
 30
0.0
 11
14691.72590408848
 21
5489.563031451034
 31
0.0
  0
LINE
  5
906F9
330
88D6B
100
AcDbEntity
  8
Стены
  6
Continuous
 62
7
370
0
100
AcDbLine
 10
14693.78590408848
 20
5488.973031451034
 30
0.0
 11
14693.78590408848
 21
5488.893031451033
 31
0.0
  0
LINE
  5
906FA
330
88D6B
100
AcDbEntity
  8
Стены
  6
Continuous
 62
7
370
0
100
AcDbLine
 10
14691.90590408848
 20
5489.123031451033
 30
0.0
 11
14693.60590408848
 21
5489.123031451033
 31
0.0
  0
LINE
  5
906FB
330
88D6B
100
AcDbEntity
  8
Стены
  6
Continuous
 62
7
370
0
100
AcDbLine
 10
14691.90590408848
 20
5489.173031451033
 30
0.0
 11
14693.60590408848
 21
5489.173031451033
 31
0.0
  0
LINE
  5
906FC
330
88D6B
100
AcDbEntity
  8
Стены
  6
Continuous
 62
7
370
0
100
AcDbLine
 10
14691.72590408848
 20
5488.973031451035
 30
0.0
 11
14691.72590408848
 21
5488.893031451033
 31
0.0
  0
LINE
  5
906FD
330
88D6B
100
AcDbEntity
  8
Стены
  6
Continuous
 62
7
370
0
100
AcDbLine
 10
14691.72590408848
 20
5489.563031451034
 30
0.0
 11
14691.72590408848
 21
5489.483031451033
 31
0.0
  0
LINE
  5
906FE
330
88D6B
100
AcDbEntity
  8
Стены
  6
Continuous
 62
7
370
30
100
AcDbLine
 10
14688.50590408847
 20
5502.803031451033
 30
0.0
 11
14688.50590408847
 21
5503.313031451034
 31
0.0
  0
LINE
  5
906FF
330
88D6B
100
AcDbEntity
  8
Стены
  6
Continuous
 62
7
370
30
100
AcDbLine
 10
14690.40590408847
 20
5502.803031451033
 30
0.0
 11
14690.40590408847
 21
5503.313031451034
 31
0.0
  0
LINE
  5
90701
330
88D6B
100
AcDbEntity
  8
Стены
  6
Continuous
 62
7
370
0
100
AcDbLine
 10
14690.30590408847
 20
5503.213031451033
 30
0.0
 11
14688.60590408848
 21
5503.213031451033
 31
0.0
  0
LINE
  5
90703
330
88D6B
100
AcDbEntity
  8
Стены
  6
Continuous
 62
7
370
0
100
AcDbLine
 10
14688.42590408848
 20
5503.393031451033
 30
0.0
 11
14690.48590408847
 21
5503.393031451033
 31
0.0
  0
LINE
  5
90704
330
88D6B
100
AcDbEntity
  8
Стены
  6
Continuous
 62
7
370
0
100
AcDbLine
 10
14688.50590408847
 20
5502.723031451033
 30
0.0
 11
14690.48590408847
 21
5502.723031451033
 31
0.0
  0
LINE
  5
90705
330
88D6B
100
AcDbEntity
  8
Стены
  6
Continuous
 62
7
370
0
100
AcDbLine
 10
14688.42590408848
 20
5503.313031451034
 30
0.0
 11
14688.42590408848
 21
5503.393031451033
 31
0.0
  0
LINE
  5
90706
330
88D6B
100
AcDbEntity
  8
Стены
  6
Continuous
 62
7
370
0
100
AcDbLine
 10
14690.30590408847
 20
5503.163031451033
 30
0.0
 11
14688.60590408848
 21
5503.163031451033
 31
0.0
  0
LINE
  5
90707
330
88D6B
100
AcDbEntity
  8
Стены
  6
Continuous
 62
7
370
0
100
AcDbLine
 10
14690.30590408847
 20
5503.113031451033
 30
0.0
 11
14688.60590408848
 21
5503.113031451033
 31
0.0
  0
LINE
  5
90708
330
88D6B
100
AcDbEntity
  8
Стены
  6
Continuous
 62
7
370
0
100
AcDbLine
 10
14690.48590408847
 20
5503.313031451033
 30
0.0
 11
14690.48590408847
 21
5503.393031451033
 31
0.0
  0
LINE
  5
90709
330
88D6B
100
AcDbEntity
  8
Стены
  6
Continuous
 62
7
370
0
100
AcDbLine
 10
14690.48590408847
 20
5502.723031451033
 30
0.0
 11
14690.48590408847
 21
5502.803031451033
 31
0.0
  0
LINE
  5
9070A
330
88D6B
100
AcDbEntity
  8
Стены
  6
Continuous
 62
7
370
13
100
AcDbLine
 10
14694.29590408848
 20
5503.213031451033
 30
0.0
 11
14694.39590408848
 21
5503.213031451033
 31
0.0
  0
LINE
  5
9070B
330
88D6B
100
AcDbEntity
  8
Стены
  6
Continuous
 62
7
370
13
100
AcDbLine
 10
14694.39590408848
 20
5503.213031451033
 30
0.0
 11
14694.39590408848
 21
5503.113031451032
 31
0.0
  0
LINE
  5
9070C
330
88D6B
100
AcDbEntity
  8
Стены
  6
Continuous
 62
7
370
13
100
AcDbLine
 10
14694.39590408848
 20
5503.113031451032
 30
0.0
 11
14694.29590408848
 21
5503.113031451032
 31
0.0
  0
LINE
  5
9070D
330
88D6B
100
AcDbEntity
  8
Стены
  6
Continuous
 62
7
370
13
100
AcDbLine
 10
14694.29590408848
 20
5503.113031451032
 30
0.0
 11
14694.29590408848
 21
5503.213031451033
 31
0.0
  0
LINE
  5
9070E
330
88D6B
100
AcDbEntity
  8
Стены
  6
Continuous
 62
7
370
13
100
AcDbLine
 10
14694.29590408848
 20
5503.213031451033
 30
0.0
 11
14694.29590408848
 21
5503.213031451033
 31
0.0
  0
LINE
  5
9070F
330
88D6B
100
AcDbEntity
  8
Стены
  6
Continuous
 62
7
370
13
100
AcDbLine
 10
14696.09590408848
 20
5503.213031451033
 30
0.0
 11
14696.19590408847
 21
5503.213031451033
 31
0.0
  0
LINE
  5
90710
330
88D6B
100
AcDbEntity
  8
Стены
  6
Continuous
 62
7
370
13
100
AcDbLine
 10
14696.19590408847
 20
5503.213031451033
 30
0.0
 11
14696.19590408847
 21
5503.113031451032
 31
0.0
  0
LINE
  5
90711
330
88D6B
100
AcDbEntity
  8
Стены
  6
Continuous
 62
7
370
13
100
AcDbLine
 10
14696.19590408847
 20
5503.113031451032
 30
0.0
 11
14696.09590408848
 21
5503.113031451032
 31
0.0
  0
LINE
  5
90712
330
88D6B
100
AcDbEntity
  8
Стены
  6
Continuous
 62
7
370
13
100
AcDbLine
 10
14696.09590408848
 20
5503.113031451032
 30
0.0
 11
14696.09590408848
 21
5503.213031451033
 31
0.0
  0
LINE
  5
90713
330
88D6B
100
AcDbEntity
  8
Стены
  6
Continuous
 62
7
370
13
100
AcDbLine
 10
14696.09590408848
 20
5503.213031451033
 30
0.0
 11
14696.09590408848
 21
5503.213031451033
 31
0.0
  0
LINE
  5
90714
330
88D6B
100
AcDbEntity
  8
Стены
  6
Continuous
 62
7
370
13
100
AcDbLine
 10
14697.17590408848
 20
5503.213031451033
 30
0.0
 11
14697.27590408847
 21
5503.213031451033
 31
0.0
  0
LINE
  5
90715
330
88D6B
100
AcDbEntity
  8
Стены
  6
Continuous
 62
7
370
13
100
AcDbLine
 10
14697.27590408847
 20
5503.213031451033
 30
0.0
 11
14697.27590408847
 21
5503.113031451032
 31
0.0
  0
LINE
  5
90716
330
88D6B
100
AcDbEntity
  8
Стены
  6
Continuous
 62
7
370
13
100
AcDbLine
 10
14697.27590408847
 20
5503.113031451032
 30
0.0
 11
14697.17590408848
 21
5503.113031451032
 31
0.0
  0
LINE
  5
90717
330
88D6B
100
AcDbEntity
  8
Стены
  6
Continuous
 62
7
370
13
100
AcDbLine
 10
14697.17590408848
 20
5503.113031451032
 30
0.0
 11
14697.17590408848
 21
5503.213031451033
 31
0.0
  0
LINE
  5
90718
330
88D6B
100
AcDbEntity
  8
Стены
  6
Continuous
 62
7
370
13
100
AcDbLine
 10
14697.17590408848
 20
5503.213031451033
 30
0.0
 11
14697.17590408848
 21
5503.213031451033
 31
0.0
  0
LINE
  5
90719
330
88D6B
100
AcDbEntity
  8
Стены
  6
Continuous
 62
7
370
13
100
AcDbLine
 10
14698.97590408848
 20
5503.213031451033
 30
0.0
 11
14699.07590408847
 21
5503.213031451033
 31
0.0
  0
LINE
  5
9071A
330
88D6B
100
AcDbEntity
  8
Стены
  6
Continuous
 62
7
370
13
100
AcDbLine
 10
14699.07590408847
 20
5503.213031451033
 30
0.0
 11
14699.07590408847
 21
5503.113031451032
 31
0.0
  0
LINE
  5
9071B
330
88D6B
100
AcDbEntity
  8
Стены
  6
Continuous
 62
7
370
13
100
AcDbLine
 10
14699.07590408847
 20
5503.113031451032
 30
0.0
 11
14698.97590408848
 21
5503.113031451032
 31
0.0
  0
LINE
  5
9071C
330
88D6B
100
AcDbEntity
  8
Стены
  6
Continuous
 62
7
370
13
100
AcDbLine
 10
14698.97590408848
 20
5503.113031451032
 30
0.0
 11
14698.97590408848
 21
5503.213031451033
 31
0.0
  0
LINE
  5
9071D
330
88D6B
100
AcDbEntity
  8
Стены
  6
Continuous
 62
7
370
13
100
AcDbLine
 10
14698.97590408848
 20
5503.213031451033
 30
0.0
 11
14698.97590408848
 21
5503.213031451033
 31
0.0
  0
LINE
  5
9071E
330
88D6B
100
AcDbEntity
  8
Стены
  6
Continuous
 62
7
370
13
100
AcDbLine
 10
14700.03590408848
 20
5503.213031451033
 30
0.0
 11
14700.13590408848
 21
5503.213031451033
 31
0.0
  0
LINE
  5
9071F
330
88D6B
100
AcDbEntity
  8
Стены
  6
Continuous
 62
7
370
13
100
AcDbLine
 10
14700.13590408848
 20
5503.213031451033
 30
0.0
 11
14700.13590408848
 21
5503.113031451032
 31
0.0
  0
LINE
  5
90720
330
88D6B
100
AcDbEntity
  8
Стены
  6
Continuous
 62
7
370
13
100
AcDbLine
 10
14700.13590408848
 20
5503.113031451032
 30
0.0
 11
14700.03590408848
 21
5503.113031451032
 31
0.0
  0
LINE
  5
90721
330
88D6B
100
AcDbEntity
  8
Стены
  6
Continuous
 62
7
370
13
100
AcDbLine
 10
14700.03590408848
 20
5503.113031451032
 30
0.0
 11
14700.03590408848
 21
5503.213031451033
 31
0.0
  0
LINE
  5
90722
330
88D6B
100
AcDbEntity
  8
Стены
  6
Continuous
 62
7
370
13
100
AcDbLine
 10
14700.03590408848
 20
5503.213031451033
 30
0.0
 11
14700.03590408848
 21
5503.213031451033
 31
0.0
  0
LINE
  5
90723
330
88D6B
100
AcDbEntity
  8
Стены
  6
Continuous
 62
7
370
13
100
AcDbLine
 10
14701.83590408848
 20
5503.213031451033
 30
0.0
 11
14701.93590408848
 21
5503.213031451033
 31
0.0
  0
LINE
  5
90724
330
88D6B
100
AcDbEntity
  8
Стены
  6
Continuous
 62
7
370
13
100
AcDbLine
 10
14701.93590408848
 20
5503.213031451033
 30
0.0
 11
14701.93590408848
 21
5503.113031451032
 31
0.0
  0
LINE
  5
90725
330
88D6B
100
AcDbEntity
  8
Стены
  6
Continuous
 62
7
370
13
100
AcDbLine
 10
14701.93590408848
 20
5503.113031451032
 30
0.0
 11
14701.83590408848
 21
5503.113031451032
 31
0.0
  0
LINE
  5
90726
330
88D6B
100
AcDbEntity
  8
Стены
  6
Continuous
 62
7
370
13
100
AcDbLine
 10
14701.83590408848
 20
5503.113031451032
 30
0.0
 11
14701.83590408848
 21
5503.213031451033
 31
0.0
  0
LINE
  5
90727
330
88D6B
100
AcDbEntity
  8
Стены
  6
Continuous
 62
7
370
13
100
AcDbLine
 10
14701.83590408848
 20
5503.213031451033
 30
0.0
 11
14701.83590408848
 21
5503.213031451033
 31
0.0
  0
LINE
  5
90728
330
88D6B
100
AcDbEntity
  8
Стены
  6
Continuous
 62
7
370
13
100
AcDbLine
 10
14691.40590408847
 20
5503.213031451033
 30
0.0
 11
14691.50590408847
 21
5503.213031451033
 31
0.0
  0
LINE
  5
90729
330
88D6B
100
AcDbEntity
  8
Стены
  6
Continuous
 62
7
370
13
100
AcDbLine
 10
14691.50590408847
 20
5503.213031451033
 30
0.0
 11
14691.50590408847
 21
5503.113031451033
 31
0.0
  0
LINE
  5
9072A
330
88D6B
100
AcDbEntity
  8
Стены
  6
Continuous
 62
7
370
13
100
AcDbLine
 10
14691.50590408847
 20
5503.113031451033
 30
0.0
 11
14691.40590408847
 21
5503.113031451033
 31
0.0
  0
LINE
  5
9072B
330
88D6B
100
AcDbEntity
  8
Стены
  6
Continuous
 62
7
370
13
100
AcDbLine
 10
14691.40590408847
 20
5503.113031451033
 30
0.0
 11
14691.40590408847
 21
5503.213031451033
 31
0.0
  0
LINE
  5
9072C
330
88D6B
100
AcDbEntity
  8
Стены
  6
Continuous
 62
7
370
13
100
AcDbLine
 10
14691.40590408847
 20
5503.213031451033
 30
0.0
 11
14691.40590408847
 21
5503.213031451033
 31
0.0
  0
LINE
  5
9072D
330
88D6B
100
AcDbEntity
  8
Стены
  6
Continuous
 62
7
370
13
100
AcDbLine
 10
14693.20590408847
 20
5503.213031451033
 30
0.0
 11
14693.30590408847
 21
5503.213031451033
 31
0.0
  0
LINE
  5
9072E
330
88D6B
100
AcDbEntity
  8
Стены
  6
Continuous
 62
7
370
13
100
AcDbLine
 10
14693.30590408847
 20
5503.213031451033
 30
0.0
 11
14693.30590408847
 21
5503.113031451033
 31
0.0
  0
LINE
  5
9072F
330
88D6B
100
AcDbEntity
  8
Стены
  6
Continuous
 62
7
370
13
100
AcDbLine
 10
14693.30590408847
 20
5503.113031451033
 30
0.0
 11
14693.20590408847
 21
5503.113031451033
 31
0.0
  0
LINE
  5
90730
330
88D6B
100
AcDbEntity
  8
Стены
  6
Continuous
 62
7
370
13
100
AcDbLine
 10
14693.20590408847
 20
5503.113031451033
 30
0.0
 11
14693.20590408847
 21
5503.213031451033
 31
0.0
  0
LINE
  5
90731
330
88D6B
100
AcDbEntity
  8
Стены
  6
Continuous
 62
7
370
13
100
AcDbLine
 10
14693.20590408847
 20
5503.213031451033
 30
0.0
 11
14693.20590408847
 21
5503.213031451033
 31
0.0
  0
LINE
  5
90732
330
88D6B
100
AcDbEntity
  8
Стены
  6
Continuous
 62
7
370
13
100
AcDbLine
 10
14702.32590408848
 20
5489.073031451034
 30
0.0
 11
14702.22590408847
 21
5489.073031451034
 31
0.0
  0
LINE
  5
90733
330
88D6B
100
AcDbEntity
  8
Стены
  6
Continuous
 62
7
370
13
100
AcDbLine
 10
14702.22590408847
 20
5489.073031451034
 30
0.0
 11
14702.22590408847
 21
5489.173031451034
 31
0.0
  0
LINE
  5
90734
330
88D6B
100
AcDbEntity
  8
Стены
  6
Continuous
 62
7
370
13
100
AcDbLine
 10
14702.22590408847
 20
5489.173031451034
 30
0.0
 11
14702.32590408848
 21
5489.173031451034
 31
0.0
  0
LINE
  5
90735
330
88D6B
100
AcDbEntity
  8
Стены
  6
Continuous
 62
7
370
13
100
AcDbLine
 10
14702.32590408848
 20
5489.173031451034
 30
0.0
 11
14702.32590408848
 21
5489.073031451034
 31
0.0
  0
LINE
  5
90736
330
88D6B
100
AcDbEntity
  8
Стены
  6
Continuous
 62
7
370
13
100
AcDbLine
 10
14702.32590408848
 20
5489.073031451034
 30
0.0
 11
14702.32590408848
 21
5489.073031451034
 31
0.0
  0
LINE
  5
90737
330
88D6B
100
AcDbEntity
  8
Стены
  6
Continuous
 62
7
370
13
100
AcDbLine
 10
14700.52590408847
 20
5489.073031451034
 30
0.0
 11
14700.42590408848
 21
5489.073031451034
 31
0.0
  0
LINE
  5
90738
330
88D6B
100
AcDbEntity
  8
Стены
  6
Continuous
 62
7
370
13
100
AcDbLine
 10
14700.42590408848
 20
5489.073031451034
 30
0.0
 11
14700.42590408848
 21
5489.173031451034
 31
0.0
  0
LINE
  5
90739
330
88D6B
100
AcDbEntity
  8
Стены
  6
Continuous
 62
7
370
13
100
AcDbLine
 10
14700.42590408848
 20
5489.173031451034
 30
0.0
 11
14700.52590408847
 21
5489.173031451034
 31
0.0
  0
LINE
  5
9073A
330
88D6B
100
AcDbEntity
  8
Стены
  6
Continuous
 62
7
370
13
100
AcDbLine
 10
14700.52590408847
 20
5489.173031451034
 30
0.0
 11
14700.52590408847
 21
5489.073031451034
 31
0.0
  0
LINE
  5
9073B
330
88D6B
100
AcDbEntity
  8
Стены
  6
Continuous
 62
7
370
13
100
AcDbLine
 10
14700.52590408847
 20
5489.073031451034
 30
0.0
 11
14700.52590408847
 21
5489.073031451034
 31
0.0
  0
LINE
  5
9073C
330
88D6B
100
AcDbEntity
  8
Стены
  6
Continuous
 62
7
370
13
100
AcDbLine
 10
14699.44590408847
 20
5489.073031451034
 30
0.0
 11
14699.34590408847
 21
5489.073031451034
 31
0.0
  0
LINE
  5
9073D
330
88D6B
100
AcDbEntity
  8
Стены
  6
Continuous
 62
7
370
13
100
AcDbLine
 10
14699.34590408847
 20
5489.073031451034
 30
0.0
 11
14699.34590408847
 21
5489.173031451034
 31
0.0
  0
LINE
  5
9073E
330
88D6B
100
AcDbEntity
  8
Стены
  6
Continuous
 62
7
370
13
100
AcDbLine
 10
14699.34590408847
 20
5489.173031451034
 30
0.0
 11
14699.44590408847
 21
5489.173031451034
 31
0.0
  0
LINE
  5
9073F
330
88D6B
100
AcDbEntity
  8
Стены
  6
Continuous
 62
7
370
13
100
AcDbLine
 10
14699.44590408847
 20
5489.173031451034
 30
0.0
 11
14699.44590408847
 21
5489.073031451034
 31
0.0
  0
LINE
  5
90740
330
88D6B
100
AcDbEntity
  8
Стены
  6
Continuous
 62
7
370
13
100
AcDbLine
 10
14699.44590408847
 20
5489.073031451034
 30
0.0
 11
14699.44590408847
 21
5489.073031451034
 31
0.0
  0
LINE
  5
90741
330
88D6B
100
AcDbEntity
  8
Стены
  6
Continuous
 62
7
370
13
100
AcDbLine
 10
14697.64590408847
 20
5489.073031451034
 30
0.0
 11
14697.54590408847
 21
5489.073031451034
 31
0.0
  0
LINE
  5
90742
330
88D6B
100
AcDbEntity
  8
Стены
  6
Continuous
 62
7
370
13
100
AcDbLine
 10
14697.54590408847
 20
5489.073031451034
 30
0.0
 11
14697.54590408847
 21
5489.173031451034
 31
0.0
  0
LINE
  5
90743
330
88D6B
100
AcDbEntity
  8
Стены
  6
Continuous
 62
7
370
13
100
AcDbLine
 10
14697.54590408847
 20
5489.173031451034
 30
0.0
 11
14697.64590408847
 21
5489.173031451034
 31
0.0
  0
LINE
  5
90744
330
88D6B
100
AcDbEntity
  8
Стены
  6
Continuous
 62
7
370
13
100
AcDbLine
 10
14697.64590408847
 20
5489.173031451034
 30
0.0
 11
14697.64590408847
 21
5489.073031451034
 31
0.0
  0
LINE
  5
90745
330
88D6B
100
AcDbEntity
  8
Стены
  6
Continuous
 62
7
370
13
100
AcDbLine
 10
14697.64590408847
 20
5489.073031451034
 30
0.0
 11
14697.64590408847
 21
5489.073031451034
 31
0.0
  0
LINE
  5
90746
330
88D6B
100
AcDbEntity
  8
Стены
  6
Continuous
 62
7
370
13
100
AcDbLine
 10
14696.59590408847
 20
5489.073031451034
 30
0.0
 11
14696.49590408847
 21
5489.073031451034
 31
0.0
  0
LINE
  5
90747
330
88D6B
100
AcDbEntity
  8
Стены
  6
Continuous
 62
7
370
13
100
AcDbLine
 10
14696.49590408847
 20
5489.073031451034
 30
0.0
 11
14696.49590408847
 21
5489.173031451034
 31
0.0
  0
LINE
  5
90748
330
88D6B
100
AcDbEntity
  8
Стены
  6
Continuous
 62
7
370
13
100
AcDbLine
 10
14696.49590408847
 20
5489.173031451034
 30
0.0
 11
14696.59590408847
 21
5489.173031451034
 31
0.0
  0
LINE
  5
90749
330
88D6B
100
AcDbEntity
  8
Стены
  6
Continuous
 62
7
370
13
100
AcDbLine
 10
14696.59590408847
 20
5489.173031451034
 30
0.0
 11
14696.59590408847
 21
5489.073031451034
 31
0.0
  0
LINE
  5
9074A
330
88D6B
100
AcDbEntity
  8
Стены
  6
Continuous
 62
7
370
13
100
AcDbLine
 10
14696.59590408847
 20
5489.073031451034
 30
0.0
 11
14696.59590408847
 21
5489.073031451034
 31
0.0
  0
LINE
  5
9074B
330
88D6B
100
AcDbEntity
  8
Стены
  6
Continuous
 62
7
370
13
100
AcDbLine
 10
14694.79590408847
 20
5489.073031451034
 30
0.0
 11
14694.69590408847
 21
5489.073031451034
 31
0.0
  0
LINE
  5
9074C
330
88D6B
100
AcDbEntity
  8
Стены
  6
Continuous
 62
7
370
13
100
AcDbLine
 10
14694.69590408847
 20
5489.073031451034
 30
0.0
 11
14694.69590408847
 21
5489.173031451034
 31
0.0
  0
LINE
  5
9074D
330
88D6B
100
AcDbEntity
  8
Стены
  6
Continuous
 62
7
370
13
100
AcDbLine
 10
14694.69590408847
 20
5489.173031451034
 30
0.0
 11
14694.79590408847
 21
5489.173031451034
 31
0.0
  0
LINE
  5
9074E
330
88D6B
100
AcDbEntity
  8
Стены
  6
Continuous
 62
7
370
13
100
AcDbLine
 10
14694.79590408847
 20
5489.173031451034
 30
0.0
 11
14694.79590408847
 21
5489.073031451034
 31
0.0
  0
LINE
  5
9074F
330
88D6B
100
AcDbEntity
  8
Стены
  6
Continuous
 62
7
370
13
100
AcDbLine
 10
14694.79590408847
 20
5489.073031451034
 30
0.0
 11
14694.79590408847
 21
5489.073031451034
 31
0.0
  0
LINE
  5
90750
330
88D6B
100
AcDbEntity
  8
Стены
  6
Continuous
 62
7
370
13
100
AcDbLine
 10
14690.75590408847
 20
5489.073031451034
 30
0.0
 11
14690.65590408847
 21
5489.073031451034
 31
0.0
  0
LINE
  5
90751
330
88D6B
100
AcDbEntity
  8
Стены
  6
Continuous
 62
7
370
13
100
AcDbLine
 10
14690.65590408847
 20
5489.073031451034
 30
0.0
 11
14690.65590408847
 21
5489.173031451034
 31
0.0
  0
LINE
  5
90752
330
88D6B
100
AcDbEntity
  8
Стены
  6
Continuous
 62
7
370
13
100
AcDbLine
 10
14690.65590408847
 20
5489.173031451034
 30
0.0
 11
14690.75590408847
 21
5489.173031451034
 31
0.0
  0
LINE
  5
90753
330
88D6B
100
AcDbEntity
  8
Стены
  6
Continuous
 62
7
370
13
100
AcDbLine
 10
14690.75590408847
 20
5489.173031451034
 30
0.0
 11
14690.75590408847
 21
5489.073031451034
 31
0.0
  0
LINE
  5
90754
330
88D6B
100
AcDbEntity
  8
Стены
  6
Continuous
 62
7
370
13
100
AcDbLine
 10
14690.75590408847
 20
5489.073031451034
 30
0.0
 11
14690.75590408847
 21
5489.073031451034
 31
0.0
  0
LINE
  5
90755
330
88D6B
100
AcDbEntity
  8
Стены
  6
Continuous
 62
7
370
13
100
AcDbLine
 10
14688.95590408847
 20
5489.073031451034
 30
0.0
 11
14688.85590408847
 21
5489.073031451034
 31
0.0
  0
LINE
  5
90756
330
88D6B
100
AcDbEntity
  8
Стены
  6
Continuous
 62
7
370
13
100
AcDbLine
 10
14688.85590408847
 20
5489.073031451034
 30
0.0
 11
14688.85590408847
 21
5489.173031451034
 31
0.0
  0
LINE
  5
90757
330
88D6B
100
AcDbEntity
  8
Стены
  6
Continuous
 62
7
370
13
100
AcDbLine
 10
14688.85590408847
 20
5489.173031451034
 30
0.0
 11
14688.95590408847
 21
5489.173031451034
 31
0.0
  0
LINE
  5
90758
330
88D6B
100
AcDbEntity
  8
Стены
  6
Continuous
 62
7
370
13
100
AcDbLine
 10
14688.95590408847
 20
5489.173031451034
 30
0.0
 11
14688.95590408847
 21
5489.073031451034
 31
0.0
  0
LINE
  5
90759
330
88D6B
100
AcDbEntity
  8
Стены
  6
Continuous
 62
7
370
13
100
AcDbLine
 10
14688.95590408847
 20
5489.073031451034
 30
0.0
 11
14688.95590408847
 21
5489.073031451034
 31
0.0
  0
LINE
  5
9075A
330
88D6B
100
AcDbEntity
  8
Стены
  6
Continuous
 62
7
370
13
100
AcDbLine
 10
14685.43590408847
 20
5495.253031451033
 30
0.0
 11
14685.43590408847
 21
5495.353031451034
 31
0.0
  0
LINE
  5
9075B
330
88D6B
100
AcDbEntity
  8
Стены
  6
Continuous
 62
7
370
13
100
AcDbLine
 10
14685.43590408847
 20
5495.353031451034
 30
0.0
 11
14685.53590408848
 21
5495.353031451034
 31
0.0
  0
LINE
  5
9075C
330
88D6B
100
AcDbEntity
  8
Стены
  6
Continuous
 62
7
370
13
100
AcDbLine
 10
14685.53590408848
 20
5495.353031451034
 30
0.0
 11
14685.53590408848
 21
5495.253031451033
 31
0.0
  0
LINE
  5
9075D
330
88D6B
100
AcDbEntity
  8
Стены
  6
Continuous
 62
7
370
13
100
AcDbLine
 10
14685.53590408848
 20
5495.253031451033
 30
0.0
 11
14685.43590408847
 21
5495.253031451033
 31
0.0
  0
LINE
  5
9075E
330
88D6B
100
AcDbEntity
  8
Стены
  6
Continuous
 62
7
370
13
100
AcDbLine
 10
14685.43590408847
 20
5495.253031451033
 30
0.0
 11
14685.43590408847
 21
5495.253031451033
 31
0.0
  0
LINE
  5
9075F
330
88D6B
100
AcDbEntity
  8
Стены
  6
Continuous
 62
7
370
13
100
AcDbLine
 10
14685.43590408847
 20
5497.053031451033
 30
0.0
 11
14685.43590408847
 21
5497.153031451033
 31
0.0
  0
LINE
  5
90760
330
88D6B
100
AcDbEntity
  8
Стены
  6
Continuous
 62
7
370
13
100
AcDbLine
 10
14685.43590408847
 20
5497.153031451033
 30
0.0
 11
14685.53590408848
 21
5497.153031451033
 31
0.0
  0
LINE
  5
90761
330
88D6B
100
AcDbEntity
  8
Стены
  6
Continuous
 62
7
370
13
100
AcDbLine
 10
14685.53590408848
 20
5497.153031451033
 30
0.0
 11
14685.53590408848
 21
5497.053031451033
 31
0.0
  0
LINE
  5
90762
330
88D6B
100
AcDbEntity
  8
Стены
  6
Continuous
 62
7
370
13
100
AcDbLine
 10
14685.53590408848
 20
5497.053031451033
 30
0.0
 11
14685.43590408847
 21
5497.053031451033
 31
0.0
  0
LINE
  5
90763
330
88D6B
100
AcDbEntity
  8
Стены
  6
Continuous
 62
7
370
13
100
AcDbLine
 10
14685.43590408847
 20
5497.053031451033
 30
0.0
 11
14685.43590408847
 21
5497.053031451033
 31
0.0
  0
LINE
  5
90764
330
88D6B
100
AcDbEntity
  8
Стены
  6
Continuous
 62
7
370
13
100
AcDbLine
 10
14685.43590408847
 20
5499.503031451033
 30
0.0
 11
14685.43590408847
 21
5499.603031451034
 31
0.0
  0
LINE
  5
90765
330
88D6B
100
AcDbEntity
  8
Стены
  6
Continuous
 62
7
370
13
100
AcDbLine
 10
14685.43590408847
 20
5499.603031451034
 30
0.0
 11
14685.53590408848
 21
5499.603031451034
 31
0.0
  0
LINE
  5
90766
330
88D6B
100
AcDbEntity
  8
Стены
  6
Continuous
 62
7
370
13
100
AcDbLine
 10
14685.53590408848
 20
5499.603031451034
 30
0.0
 11
14685.53590408848
 21
5499.503031451033
 31
0.0
  0
LINE
  5
90767
330
88D6B
100
AcDbEntity
  8
Стены
  6
Continuous
 62
7
370
13
100
AcDbLine
 10
14685.53590408848
 20
5499.503031451033
 30
0.0
 11
14685.43590408847
 21
5499.503031451033
 31
0.0
  0
LINE
  5
90768
330
88D6B
100
AcDbEntity
  8
Стены
  6
Continuous
 62
7
370
13
100
AcDbLine
 10
14685.43590408847
 20
5499.503031451033
 30
0.0
 11
14685.43590408847
 21
5499.503031451033
 31
0.0
  0
LINE
  5
90769
330
88D6B
100
AcDbEntity
  8
Стены
  6
Continuous
 62
7
370
13
100
AcDbLine
 10
14685.43590408847
 20
5501.303031451033
 30
0.0
 11
14685.43590408847
 21
5501.403031451033
 31
0.0
  0
LINE
  5
9076A
330
88D6B
100
AcDbEntity
  8
Стены
  6
Continuous
 62
7
370
13
100
AcDbLine
 10
14685.43590408847
 20
5501.403031451033
 30
0.0
 11
14685.53590408848
 21
5501.403031451033
 31
0.0
  0
LINE
  5
9076B
330
88D6B
100
AcDbEntity
  8
Стены
  6
Continuous
 62
7
370
13
100
AcDbLine
 10
14685.53590408848
 20
5501.403031451033
 30
0.0
 11
14685.53590408848
 21
5501.303031451033
 31
0.0
  0
LINE
  5
9076C
330
88D6B
100
AcDbEntity
  8
Стены
  6
Continuous
 62
7
370
13
100
AcDbLine
 10
14685.53590408848
 20
5501.303031451033
 30
0.0
 11
14685.43590408847
 21
5501.303031451033
 31
0.0
  0
LINE
  5
9076D
330
88D6B
100
AcDbEntity
  8
Стены
  6
Continuous
 62
7
370
13
100
AcDbLine
 10
14685.43590408847
 20
5501.303031451033
 30
0.0
 11
14685.43590408847
 21
5501.303031451033
 31
0.0
  0
LINE
  5
9076E
330
88D6B
100
AcDbEntity
  8
Стены
  6
Continuous
 62
7
370
13
100
AcDbLine
 10
14685.43590408847
 20
5490.883031451033
 30
0.0
 11
14685.43590408847
 21
5490.983031451033
 31
0.0
  0
LINE
  5
9076F
330
88D6B
100
AcDbEntity
  8
Стены
  6
Continuous
 62
7
370
13
100
AcDbLine
 10
14685.43590408847
 20
5490.983031451033
 30
0.0
 11
14685.53590408848
 21
5490.983031451033
 31
0.0
  0
LINE
  5
90770
330
88D6B
100
AcDbEntity
  8
Стены
  6
Continuous
 62
7
370
13
100
AcDbLine
 10
14685.53590408848
 20
5490.983031451033
 30
0.0
 11
14685.53590408848
 21
5490.883031451033
 31
0.0
  0
LINE
  5
90771
330
88D6B
100
AcDbEntity
  8
Стены
  6
Continuous
 62
7
370
13
100
AcDbLine
 10
14685.53590408848
 20
5490.883031451033
 30
0.0
 11
14685.43590408847
 21
5490.883031451033
 31
0.0
  0
LINE
  5
90772
330
88D6B
100
AcDbEntity
  8
Стены
  6
Continuous
 62
7
370
13
100
AcDbLine
 10
14685.43590408847
 20
5490.883031451033
 30
0.0
 11
14685.43590408847
 21
5490.883031451033
 31
0.0
  0
LINE
  5
90773
330
88D6B
100
AcDbEntity
  8
Стены
  6
Continuous
 62
7
370
13
100
AcDbLine
 10
14685.43590408847
 20
5492.683031451033
 30
0.0
 11
14685.43590408847
 21
5492.783031451033
 31
0.0
  0
LINE
  5
90774
330
88D6B
100
AcDbEntity
  8
Стены
  6
Continuous
 62
7
370
13
100
AcDbLine
 10
14685.43590408847
 20
5492.783031451033
 30
0.0
 11
14685.53590408848
 21
5492.783031451033
 31
0.0
  0
LINE
  5
90775
330
88D6B
100
AcDbEntity
  8
Стены
  6
Continuous
 62
7
370
13
100
AcDbLine
 10
14685.53590408848
 20
5492.783031451033
 30
0.0
 11
14685.53590408848
 21
5492.683031451033
 31
0.0
  0
LINE
  5
90776
330
88D6B
100
AcDbEntity
  8
Стены
  6
Continuous
 62
7
370
13
100
AcDbLine
 10
14685.53590408848
 20
5492.683031451033
 30
0.0
 11
14685.43590408847
 21
5492.683031451033
 31
0.0
  0
LINE
  5
90777
330
88D6B
100
AcDbEntity
  8
Стены
  6
Continuous
 62
7
370
13
100
AcDbLine
 10
14685.43590408847
 20
5492.683031451033
 30
0.0
 11
14685.43590408847
 21
5492.683031451033
 31
0.0
  0
LINE
  5
90778
330
88D6B
100
AcDbEntity
  8
Стены
  6
Continuous
 62
7
370
13
100
AcDbLine
 10
14693.70590408848
 20
5489.073031451034
 30
0.0
 11
14693.60590408848
 21
5489.073031451034
 31
0.0
  0
LINE
  5
90779
330
88D6B
100
AcDbEntity
  8
Стены
  6
Continuous
 62
7
370
13
100
AcDbLine
 10
14693.60590408848
 20
5489.073031451034
 30
0.0
 11
14693.60590408848
 21
5489.173031451033
 31
0.0
  0
LINE
  5
9077A
330
88D6B
100
AcDbEntity
  8
Стены
  6
Continuous
 62
7
370
13
100
AcDbLine
 10
14693.60590408848
 20
5489.173031451033
 30
0.0
 11
14693.70590408848
 21
5489.173031451033
 31
0.0
  0
LINE
  5
9077B
330
88D6B
100
AcDbEntity
  8
Стены
  6
Continuous
 62
7
370
13
100
AcDbLine
 10
14693.70590408848
 20
5489.173031451033
 30
0.0
 11
14693.70590408848
 21
5489.073031451034
 31
0.0
  0
LINE
  5
9077C
330
88D6B
100
AcDbEntity
  8
Стены
  6
Continuous
 62
7
370
13
100
AcDbLine
 10
14693.70590408848
 20
5489.073031451034
 30
0.0
 11
14693.70590408848
 21
5489.073031451034
 31
0.0
  0
LINE
  5
9077D
330
88D6B
100
AcDbEntity
  8
Стены
  6
Continuous
 62
7
370
13
100
AcDbLine
 10
14691.90590408848
 20
5489.073031451034
 30
0.0
 11
14691.80590408848
 21
5489.073031451034
 31
0.0
  0
LINE
  5
9077E
330
88D6B
100
AcDbEntity
  8
Стены
  6
Continuous
 62
7
370
13
100
AcDbLine
 10
14691.80590408848
 20
5489.073031451034
 30
0.0
 11
14691.80590408848
 21
5489.173031451033
 31
0.0
  0
LINE
  5
9077F
330
88D6B
100
AcDbEntity
  8
Стены
  6
Continuous
 62
7
370
13
100
AcDbLine
 10
14691.80590408848
 20
5489.173031451033
 30
0.0
 11
14691.90590408848
 21
5489.173031451033
 31
0.0
  0
LINE
  5
90780
330
88D6B
100
AcDbEntity
  8
Стены
  6
Continuous
 62
7
370
13
100
AcDbLine
 10
14691.90590408848
 20
5489.173031451033
 30
0.0
 11
14691.90590408848
 21
5489.073031451034
 31
0.0
  0
LINE
  5
90781
330
88D6B
100
AcDbEntity
  8
Стены
  6
Continuous
 62
7
370
13
100
AcDbLine
 10
14691.90590408848
 20
5489.073031451034
 30
0.0
 11
14691.90590408848
 21
5489.073031451034
 31
0.0
  0
LINE
  5
90782
330
88D6B
100
AcDbEntity
  8
Стены
  6
Continuous
 62
7
370
13
100
AcDbLine
 10
14688.50590408847
 20
5503.213031451033
 30
0.0
 11
14688.60590408848
 21
5503.213031451033
 31
0.0
  0
LINE
  5
90783
330
88D6B
100
AcDbEntity
  8
Стены
  6
Continuous
 62
7
370
13
100
AcDbLine
 10
14688.60590408848
 20
5503.213031451033
 30
0.0
 11
14688.60590408848
 21
5503.113031451033
 31
0.0
  0
LINE
  5
90784
330
88D6B
100
AcDbEntity
  8
Стены
  6
Continuous
 62
7
370
13
100
AcDbLine
 10
14688.60590408848
 20
5503.113031451033
 30
0.0
 11
14688.50590408847
 21
5503.113031451033
 31
0.0
  0
LINE
  5
90785
330
88D6B
100
AcDbEntity
  8
Стены
  6
Continuous
 62
7
370
13
100
AcDbLine
 10
14688.50590408847
 20
5503.113031451033
 30
0.0
 11
14688.50590408847
 21
5503.213031451033
 31
0.0
  0
LINE
  5
90786
330
88D6B
100
AcDbEntity
  8
Стены
  6
Continuous
 62
7
370
13
100
AcDbLine
 10
14688.50590408847
 20
5503.213031451033
 30
0.0
 11
14688.50590408847
 21
5503.213031451033
 31
0.0
  0
LINE
  5
90787
330
88D6B
100
AcDbEntity
  8
Стены
  6
Continuous
 62
7
370
13
100
AcDbLine
 10
14690.30590408847
 20
5503.213031451033
 30
0.0
 11
14690.40590408847
 21
5503.213031451033
 31
0.0
  0
LINE
  5
90788
330
88D6B
100
AcDbEntity
  8
Стены
  6
Continuous
 62
7
370
13
100
AcDbLine
 10
14690.40590408847
 20
5503.213031451033
 30
0.0
 11
14690.40590408847
 21
5503.113031451033
 31
0.0
  0
LINE
  5
90789
330
88D6B
100
AcDbEntity
  8
Стены
  6
Continuous
 62
7
370
13
100
AcDbLine
 10
14690.40590408847
 20
5503.113031451033
 30
0.0
 11
14690.30590408847
 21
5503.113031451033
 31
0.0
  0
LINE
  5
9078A
330
88D6B
100
AcDbEntity
  8
Стены
  6
Continuous
 62
7
370
13
100
AcDbLine
 10
14690.30590408847
 20
5503.113031451033
 30
0.0
 11
14690.30590408847
 21
5503.213031451033
 31
0.0
  0
LINE
  5
9078B
330
88D6B
100
AcDbEntity
  8
Стены
  6
Continuous
 62
7
370
13
100
AcDbLine
 10
14690.30590408847
 20
5503.213031451033
 30
0.0
 11
14690.30590408847
 21
5503.213031451033
 31
0.0
  0
VIEWPORT
  5
8D426
330
88D7E
100
AcDbEntity
 67
1
  8
0
  6
Continuous
 62
1
370
40
100
AcDbViewport
 10
5.250183132535525
 20
4.000122090685323
 30
0.0
 40
8.400878902060072
 41
6.400909420802384
 68
1
 69
1
 12
5.250183132535525
 22
4.000122090685323
 13
0.0
 23
0.0
 14
0.0
 24
0.0
 15
0.1
 25
0.1
 16
0.0
 26
0.0
 36
1.0
 17
0.0
 27
0.0
 37
0.0
 42
50.0
 43
0.0
 44
0.0
 45
6.400909420802384
 50
0.0
 51
0.0
 72
100
 90
32768
  1

281
0
 71
1
 74
1
110
0.0
120
0.0
130
0.0
111
1.0
121
0.0
131
0.0
112
0.0
122
1.0
132
0.0
 79
0
146
0.0
170
0
 61
10
282
1
141
0.0
142
0.0
 63
250
421
3355443
  0
ENDSEC
  0
SECTION
  2
OBJECTS
  0
DICTIONARY
  5
88D70
330
0
100
AcDbDictionary
281
1
  3
ACAD_CIP_PREVIOUS_PRODUCT_INFO
350
904E8
  3
ACAD_COLOR
350
88DAC
  3
ACAD_DETAILVIEWSTYLE
350
904D8
  3
ACAD_GROUP
350
88D99
  3
ACAD_IMAGE_DICT
350
89663
  3
ACAD_IMAGE_VARS
350
89666
  3
ACAD_LAST_SAVED_VERSION_INFO
350
904E9
  3
ACAD_LAYOUT
350
88D7D
  3
ACAD_MATERIAL
350
88D72
  3
ACAD_MLEADERSTYLE
350
88DAF
  3
ACAD_MLINESTYLE
350
88D9A
  3
ACAD_PLOTSETTINGS
350
88D9B
  3
ACAD_PLOTSTYLENAME
350
88D6F
  3
ACAD_SCALELIST
350
88DAD
  3
ACAD_SECTIONVIEWSTYLE
350
904D6
  3
ACAD_TABLESTYLE
350
88DAE
  3
ACAD_VISUALSTYLE
350
88D93
  3
AcadDim
350
88F22
  3
ACDB_RECOMPOSE_DATA
350
90798
  3
AcDbVariableDictionary
350
8AD16
  3
MicroStation
350
88F23
  3
EZDXF_META
350
9079B
  0
DICTIONARY
  5
88D86
330
88D85
100
AcDbDictionary
280
1
281
1
  3
ACAD_LAYERFILTERS
360
88DD9
  3
ACAD_LAYERSTATES
360
88D87
  0
DICTIONARY
  5
904EA
330
88D6D
100
AcDbDictionary
280
1
281
1
  3
ADSK_XREC_LAYER_RECONCILED
360
904EB
  0
DICTIONARY
  5
9056E
330
19AE1
100
AcDbDictionary
280
1
281
1
  3
ADSK_XREC_LAYER_RECONCILED
360
9056F
  0
DICTIONARY
  5
905B6
330
49DDC
100
AcDbDictionary
280
1
281
1
  3
ADSK_XREC_LAYER_RECONCILED
360
905B7
  0
DICTIONARY
  5
8AD05
330
88D6B
100
AcDbDictionary
280
1
281
1
  3
ACAD_SORTENTS
360
8AD06
  0
XRECORD
  5
904E8
102
{ACAD_REACTORS
330
88D70
102
}
330
88D70
100
AcDbXrecord
280
1
300
ACD
300
2026
300
88023ACD_2026_0F
  0
DICTIONARY
  5
88DAC
102
{ACAD_REACTORS
330
88D70
102
}
330
88D70
100
AcDbDictionary
281
1
  3
Standard$black
350
89796
  0
DICTIONARY
  5
904D8
102
{ACAD_REACTORS
330
88D70
102
}
330
88D70
100
AcDbDictionary
281
1
  3
Imperial24
350
904D9
  0
DICTIONARY
  5
88D99
102
{ACAD_REACTORS
330
88D70
102
}
330
88D70
100
AcDbDictionary
281
1
  0
DICTIONARY
  5
89663
102
{ACAD_REACTORS
330
88D70
102
}
330
88D70
100
AcDbDictionary
281
1
  3
image13
350
89664
  3
WhatsApp Image 2022-11-25 at 10.11.29
350
8A8EB
  3
WhatsApp Image 2022-11-25 at 10.11.29 (1)
350
8A8ED
  3
WhatsApp Image 2022-11-25 at 10.11.29 (2)
350
8A8EF
  0
RASTERVARIABLES
  5
89666
102
{ACAD_REACTORS
330
88D70
102
}
330
88D70
100
AcDbRasterVariables
 90
0
 70
1
 71
1
 72
3
  0
XRECORD
  5
904E9
102
{ACAD_REACTORS
330
88D70
102
}
330
88D70
100
AcDbXrecord
280
1
300
{11B6C662-3461-B64D-B973-7F61899B3780}
301
{D3CE042C-8847-F148-8D28-37B0223B6713}
302
{11B6C662-3461-B64D-B973-7F61899B3780}
303
C:\YandexDisk\Studies\_03_Maga\0_Diplom\Diplom\Dataset\sources\10_geometry_only.dxf
  0
DICTIONARY
  5
88D7D
102
{ACAD_REACTORS
330
88D70
102
}
330
88D70
100
AcDbDictionary
281
1
  3
Layout1
350
88D81
  3
Model
350
88D7C
  0
DICTIONARY
  5
88D72
102
{ACAD_REACTORS
330
88D70
102
}
330
88D70
100
AcDbDictionary
281
1
  3
ByBlock
350
88DA4
  3
ByLayer
350
88D9C
  3
Global
350
88D71
  0
DICTIONARY
  5
88DAF
102
{ACAD_REACTORS
330
88D70
102
}
330
88D70
100
AcDbDictionary
281
1
  3
Standard
350
8AD2F
  0
DICTIONARY
  5
88D9A
102
{ACAD_REACTORS
330
88D70
102
}
330
88D70
100
AcDbDictionary
281
1
  3
Standard
350
88DB0
  0
DICTIONARY
  5
88D9B
102
{ACAD_REACTORS
330
88D70
102
}
330
88D70
100
AcDbDictionary
281
1
  0
ACDBDICTIONARYWDFLT
  5
88D6F
102
{ACAD_REACTORS
330
88D70
102
}
330
88D70
100
AcDbDictionary
281
1
  3
Normal
350
88D6E
100
AcDbDictionaryWithDefault
340
88D6E
  0
DICTIONARY
  5
88DAD
102
{ACAD_REACTORS
330
88D70
102
}
330
88D70
100
AcDbDictionary
281
1
  3
A0
350
88DB4
  3
A1
350
88DB5
  3
A2
350
88DB6
  3
A3
350
88DB7
  3
A4
350
88DB8
  3
A5
350
88DB9
  3
A6
350
88DBA
  3
A7
350
88DBB
  3
A8
350
88DBC
  3
A9
350
88DBD
  3
B0
350
88DBE
  3
B1
350
88DBF
  3
B2
350
88DC0
  3
B3
350
88DC1
  3
B4
350
88DC2
  3
B5
350
88DC3
  3
B6
350
88DC4
  3
B7
350
88DC5
  3
B8
350
88DC6
  3
B9
350
88DC7
  3
C0
350
88DC8
  3
C1
350
88DC9
  3
C2
350
88DCA
  3
C3
350
88DCB
  3
C4
350
88DCC
  3
C5
350
88DCD
  3
C6
350
88DCE
  3
C7
350
88DCF
  3
C8
350
88DD0
  3
C9
350
88DD1
  3
D0
350
88DD2
  3
D1
350
88DD3
  3
D2
350
88DD4
  0
DICTIONARY
  5
904D6
102
{ACAD_REACTORS
330
88D70
102
}
330
88D70
100
AcDbDictionary
281
1
  3
Imperial24
350
904D7
  0
DICTIONARY
  5
88DAE
102
{ACAD_REACTORS
330
88D70
102
}
330
88D70
100
AcDbDictionary
281
1
  3
Standard
350
88DB1
  0
DICTIONARY
  5
88D93
102
{ACAD_REACTORS
330
88D70
102
}
330
88D70
100
AcDbDictionary
281
1
  3
2dWireframe
350
88D92
  3
3D Hidden
350
8AD24
  3
3dWireframe
350
88DB3
  3
Basic
350
8AD23
  3
Brighten
350
8AD27
  3
ColorChange
350
8AD2B
  3
Conceptual
350
8AD25
  3
Dim
350
8AD26
  3
EdgeColorOff
350
8AD2E
  3
Facepattern
350
8AD2A
  3
Flat
350
8AD1F
  3
FlatWithEdges
350
8AD20
  3
Gouraud
350
8AD21
  3
GouraudWithEdges
350
8AD22
  3
Hidden
350
904D0
  3
JitterOff
350
8AD2C
  3
Linepattern
350
8AD29
  3
OverhangOff
350
8AD2D
  3
Realistic
350
88DB2
  3
Shaded
350
904D5
  3
Shaded with edges
350
904D4
  3
Shades of Gray
350
904D1
  3
Sketchy
350
904D2
  3
Thicken
350
8AD28
  3
Wireframe
350
904CF
  3
X-Ray
350
904D3
  0
XRECORD
  5
88F22
102
{ACAD_REACTORS
330
88D70
102
}
330
88D70
100
AcDbXrecord
280
1
 90
990106
  3
 
 60
0
 61
0
 62
1
 63
1
 64
0
 65
0
 66
0
 67
3
 68
1
 69
1
 70
0
 71
0
 72
0
 40
0.0
170
0
  0
XRECORD
  5
90798
102
{ACAD_REACTORS
330
88D70
102
}
330
88D70
100
AcDbXrecord
280
1
 90
1
330
88DB1
  0
DICTIONARY
  5
8AD16
102
{ACAD_REACTORS
330
88D70
102
}
330
88D70
100
AcDbDictionary
281
1
  3
CANNOSCALE
350
8AD1A
  3
CMLEADERSTYLE
350
8AD18
  3
CTABLESTYLE
350
8AD17
  3
CVIEWDETAILSTYLE
350
90795
  3
CVIEWSECTIONSTYLE
350
90796
  3
LAYEREVAL
350
8AD1C
  3
LAYERNOTIFY
350
8AD1D
  3
LIGHTINGUNITS
350
8AD1B
  3
MSLTSCALE
350
8AD19
  0
DICTIONARY
  5
88F23
102
{ACAD_REACTORS
330
88D70
102
}
330
88D70
100
AcDbDictionary
281
1
  0
DICTIONARY
  5
88DD9
102
{ACAD_REACTORS
330
88D86
102
}
330
88D86
100
AcDbDictionary
281
1
  0
DICTIONARY
  5
88D87
102
{ACAD_REACTORS
330
88D86
102
}
330
88D86
100
AcDbDictionary
281
1
  0
XRECORD
  5
904EB
102
{ACAD_REACTORS
330
904EA
102
}
330
904EA
100
AcDbXrecord
280
1
290
1
  0
XRECORD
  5
9056F
102
{ACAD_REACTORS
330
9056E
102
}
330
9056E
100
AcDbXrecord
280
1
290
1
  0
XRECORD
  5
905B7
102
{ACAD_REACTORS
330
905B6
102
}
330
905B6
100
AcDbXrecord
280
1
290
1
  0
SORTENTSTABLE
  5
8AD06
102
{ACAD_REACTORS
330
8AD05
102
}
330
8AD05
100
AcDbSortentsTable
330
88D6B
331
75506
  5
7552C
331
75507
  5
7552D
331
75508
  5
7552E
331
75509
  5
7553B
331
7550F
  5
75540
331
75510
  5
75541
331
75516
  5
75542
331
75528
  5
75543
331
75529
  5
75544
331
7552A
  5
75546
331
7552B
  5
75547
331
7552C
  5
75548
331
7553B
  5
755C6
331
75540
  5
755D0
331
75541
  5
755D4
331
75542
  5
755D9
331
75543
  5
755DA
331
75544
  5
755DD
331
75546
  5
755EC
331
75547
  5
755ED
331
75548
  5
755EF
331
75549
  5
755F0
331
7554A
  5
755F1
331
7554B
  5
755F8
331
7554C
  5
755F9
331
7554D
  5
755FA
331
75559
  5
755FB
331
7555A
  5
755FE
331
7555B
  5
755FF
331
7555C
  5
75600
331
7555D
  5
75601
331
7555E
  5
75602
331
75564
  5
7560B
331
75565
  5
7560C
331
75568
  5
7560D
331
75569
  5
7560E
331
7556A
  5
7560F
331
7556B
  5
75610
331
7556C
  5
75611
331
7556D
  5
75613
331
7556E
  5
75615
331
7556F
  5
75616
331
75570
  5
75617
331
75571
  5
75618
331
75572
  5
7561D
331
75573
  5
7561E
331
75575
  5
75622
331
75576
  5
75623
331
75577
  5
75624
331
75578
  5
75625
331
75579
  5
75628
331
7557A
  5
7562A
331
7557B
  5
7562B
331
75598
  5
7562C
331
75599
  5
7562D
331
7559A
  5
7562E
331
7559B
  5
7562F
331
755BB
  5
758D0
331
755BC
  5
758EB
331
755C5
  5
75906
331
755C6
  5
75921
331
755C8
  5
7593C
331
755CC
  5
7593D
331
755CF
  5
75949
331
755D0
  5
7594A
331
755D4
  5
7594B
331
755D5
  5
7594C
331
755EC
  5
75968
331
755ED
  5
75969
331
755EF
  5
7596A
331
755F0
  5
7596B
331
755F3
  5
7596C
331
755F4
  5
75970
331
755F5
  5
7597E
331
755F6
  5
7598C
331
755F7
  5
7599A
331
755F8
  5
759A2
331
755F9
  5
759A4
331
755FA
  5
759A5
331
755FC
  5
759A6
331
755FD
  5
759C1
331
755FE
  5
759C5
331
755FF
  5
759C6
331
75600
  5
759C7
331
75601
  5
759C8
331
75602
  5
759C9
331
75603
  5
759CA
331
75606
  5
759D4
331
75607
  5
7FF7A
331
75608
  5
7FF91
331
75609
  5
7FF93
331
7560A
  5
7FF94
331
7560B
  5
7FF95
331
7560C
  5
7FF96
331
7560D
  5
82A95
331
7560E
  5
82A96
331
7560F
  5
82A97
331
75613
  5
82A98
331
75614
  5
82A99
331
75615
  5
82A9A
331
75616
  5
82A9B
331
75617
  5
82A9C
331
75618
  5
82A9E
331
7561D
  5
82AA0
331
7561E
  5
82AA2
331
7561F
  5
82AA3
331
75620
  5
82AA4
331
75621
  5
82AA5
331
75622
  5
82AA6
331
75623
  5
82AA7
331
75624
  5
82AA8
331
75625
  5
82AA9
331
75627
  5
82AAA
331
75628
  5
82AAB
331
75629
  5
82AAC
331
7562A
  5
82AAD
331
7562B
  5
82AAE
331
7562C
  5
82AAF
331
7562D
  5
82AB0
331
7562E
  5
82AB1
331
7562F
  5
82AB2
331
75640
  5
82AC8
331
75641
  5
8365C
331
75651
  5
9066E
331
75652
  5
9066F
331
75662
  5
90685
331
75663
  5
90686
331
75673
  5
9069B
331
75674
  5
9069C
331
75675
  5
9069D
331
75678
  5
9069E
331
75679
  5
9069F
331
7567D
  5
906A0
331
7567E
  5
906A2
331
7567F
  5
906A4
331
75680
  5
906A5
331
75681
  5
906A6
331
75682
  5
906A7
331
75683
  5
906A8
331
75684
  5
906A9
331
75685
  5
906AA
331
75687
  5
906AB
331
75688
  5
906AC
331
75689
  5
906AD
331
7568A
  5
906AF
331
7568B
  5
906B1
331
7568C
  5
906B2
331
7568D
  5
906B3
331
7568E
  5
906B4
331
75692
  5
906B5
331
75693
  5
906B6
331
75694
  5
906B7
331
75695
  5
906B8
331
75696
  5
906B9
331
75697
  5
906BA
331
75698
  5
906BC
331
75699
  5
906BE
331
7569A
  5
906BF
331
7569B
  5
906C0
331
7569C
  5
906C1
331
7569D
  5
906C2
331
7569E
  5
906C3
331
7569F
  5
906C4
331
756A0
  5
906C5
331
756A1
  5
906C6
331
756A2
  5
906C7
331
756A3
  5
906C8
331
756A4
  5
906C9
331
756A5
  5
906CA
331
756A6
  5
906CB
331
756A7
  5
906CC
331
756A8
  5
906CD
331
756A9
  5
906CE
331
756AA
  5
906CF
331
756AB
  5
906D0
331
756AC
  5
906D1
331
756AD
  5
906D2
331
75782
  5
906D3
331
75783
  5
906D4
331
75784
  5
906D5
331
75785
  5
906D6
331
75786
  5
906D7
331
75787
  5
906D8
331
7593C
  5
906D9
331
7593D
  5
906DA
331
7593E
  5
906DB
331
7593F
  5
906DC
331
75941
  5
906DD
331
75942
  5
906DE
331
75943
  5
906DF
331
75944
  5
906E0
331
75945
  5
906E1
331
75946
  5
906E2
331
75948
  5
906E3
331
75949
  5
906E4
331
7594A
  5
906E5
331
7594B
  5
906E6
331
7594C
  5
906E7
331
7594D
  5
906E8
331
7594E
  5
906E9
331
7594F
  5
906EA
331
75951
  5
906EB
331
75952
  5
906EC
331
75953
  5
906ED
331
75954
  5
906EE
331
75956
  5
906F4
331
75957
  5
906F5
331
75958
  5
906F6
331
75959
  5
906F7
331
7595A
  5
906F8
331
7595B
  5
906F9
331
7595C
  5
906FA
331
7595D
  5
906FB
331
7595E
  5
906FC
331
7595F
  5
906FD
331
75961
  5
906FE
331
75963
  5
906FF
331
75964
  5
90700
331
75965
  5
90701
331
75966
  5
90702
331
75967
  5
90703
331
75968
  5
90704
331
75969
  5
90705
331
7596A
  5
90706
331
7596B
  5
90707
331
7596C
  5
90708
331
7599A
  5
90748
331
7599B
  5
90749
331
759A2
  5
9074A
331
759A3
  5
9074B
331
759A4
  5
9074C
331
759A5
  5
9074D
331
759C9
  5
9074E
331
7FF91
  5
9074F
331
7FF92
  5
90750
331
7FF93
  5
90751
331
7FF94
  5
90752
331
7FF95
  5
90753
331
7FF96
  5
90754
331
7FF97
  5
90755
331
7FF98
  5
90756
331
82A97
  5
90757
331
82A98
  5
90758
331
82A99
  5
90759
331
82A9A
  5
9075A
331
82A9B
  5
9075B
331
82A9C
  5
9075C
331
82A9D
  5
9075D
331
82A9E
  5
9075E
331
82A9F
  5
9075F
331
82AA0
  5
90760
331
82AA2
  5
90761
331
82AA3
  5
90762
331
82AA4
  5
90763
331
82AA5
  5
90764
331
82AA6
  5
90765
331
82AA7
  5
90766
331
82AA8
  5
90767
331
82AA9
  5
90768
331
82AAA
  5
90769
331
82AAB
  5
9076A
331
82AAC
  5
9076B
331
82AAD
  5
9076C
331
82AAE
  5
9076D
331
82AAF
  5
9076E
331
82AB0
  5
9076F
331
82AB1
  5
90770
331
82AB2
  5
90771
331
82AB3
  5
90772
331
82AB4
  5
90773
331
82AB5
  5
90774
331
82AB6
  5
90775
331
82AB7
  5
90776
331
82AB8
  5
90777
331
82AB9
  5
90778
331
82ABA
  5
90779
331
82ABB
  5
9077A
331
82ABC
  5
9077B
331
82ABD
  5
9077C
331
82ABE
  5
9077D
331
82ABF
  5
9077E
331
82AC0
  5
9077F
331
82AC1
  5
90780
331
82AC2
  5
90781
331
82AC3
  5
90782
331
82AC4
  5
90783
331
82AC5
  5
90784
331
82AC6
  5
90785
331
82AC7
  5
90786
331
82AC8
  5
90787
331
82AC9
  5
90788
331
82ACB
  5
90789
331
8370A
  5
9078A
331
8370E
  5
9078B
331
9065A
  5
90733
331
9065B
  5
90734
331
9065D
  5
9073A
331
9065F
  5
90740
331
90660
  5
90741
331
90661
  5
90742
331
90662
  5
90743
331
90663
  5
90744
331
90664
  5
90745
331
90665
  5
90746
331
90666
  5
90747
331
90667
  5
9071E
331
90668
  5
9071F
331
9066A
  5
90725
331
9066C
  5
9072B
331
9066D
  5
9072C
331
9066E
  5
9072D
331
9066F
  5
9072E
331
90670
  5
9072F
331
90671
  5
90730
331
90672
  5
90731
331
90673
  5
90732
331
90674
  5
90709
331
90675
  5
9070A
331
90677
  5
90710
331
90679
  5
90716
331
9067A
  5
90717
331
9067B
  5
90718
331
9067C
  5
90719
331
9067D
  5
9071A
331
9067E
  5
9071B
331
9067F
  5
9071C
331
90680
  5
9071D
331
90681
  5
906EF
331
90682
  5
906F0
331
90683
  5
906F1
331
90684
  5
906F2
331
90685
  5
906F3
331
90686
  5
90687
331
90687
  5
90688
331
90689
  5
9068E
331
9068B
  5
90694
331
9068C
  5
90695
331
9068D
  5
90696
331
9068E
  5
90697
331
9068F
  5
90698
331
90690
  5
90699
331
90691
  5
9069A
331
90692
  5
90670
331
90693
  5
90671
331
90695
  5
90677
331
90697
  5
9067D
331
90698
  5
9067E
331
90699
  5
9067F
331
9069A
  5
90680
331
9069B
  5
90681
331
9069C
  5
90682
331
9069D
  5
90683
331
9069E
  5
90684
331
9069F
  5
83660
331
906A0
  5
9065A
331
906A2
  5
90660
331
906A4
  5
90666
331
906A5
  5
90667
331
906A6
  5
90668
331
906A7
  5
90669
331
906A8
  5
9066A
331
906A9
  5
9066B
331
906AA
  5
9066C
331
906AB
  5
9066D
331
906AC
  5
82AB3
331
906AD
  5
82AB4
331
906AF
  5
82ABA
331
906B1
  5
82AC0
331
906B2
  5
82AC1
331
906B3
  5
82AC2
331
906B4
  5
82AC3
331
906B5
  5
82AC4
331
906B6
  5
82AC5
331
906B7
  5
82AC6
331
906B8
  5
82AC7
331
906B9
  5
7594D
331
906BA
  5
7594E
331
906BC
  5
75955
331
906BE
  5
7595B
331
906BF
  5
7595C
331
906C0
  5
7595D
331
906C1
  5
7595E
331
906C2
  5
75963
331
906C3
  5
75965
331
906C4
  5
75966
331
906C5
  5
75967
331
906C6
  5
756A4
331
906C7
  5
756A5
331
906C9
  5
756AB
331
906CB
  5
75785
331
906CC
  5
75786
331
906CD
  5
75787
331
906CE
  5
757F4
331
906CF
  5
75849
331
906D0
  5
7587F
331
906D1
  5
7589A
331
906D2
  5
758B5
331
906D3
  5
7568A
331
906D4
  5
7568B
331
906D6
  5
75696
331
906D8
  5
7569C
331
906D9
  5
7569D
331
906DA
  5
7569E
331
906DB
  5
7569F
331
906DC
  5
756A0
331
906DD
  5
756A1
331
906DE
  5
756A2
331
906DF
  5
756A3
331
906E0
  5
75632
331
906E1
  5
75640
331
906E3
  5
75664
331
906E5
  5
7567B
331
906E6
  5
7567C
331
906E7
  5
75680
331
906E8
  5
75681
331
906E9
  5
75682
331
906EA
  5
75683
331
906EB
  5
75684
331
906EC
  5
75689
331
906ED
  5
75603
331
906EE
  5
75606
331
906EF
  5
75607
331
906F0
  5
75609
331
906F1
  5
7560A
331
906F2
  5
75576
331
906F3
  5
75577
331
906F5
  5
75599
331
906F7
  5
755BB
331
906F8
  5
755BC
331
906F9
  5
755BF
331
906FA
  5
755C0
331
906FB
  5
755C1
331
906FC
  5
755C2
331
906FD
  5
755C5
331
906FE
  5
7554B
331
906FF
  5
7554C
331
90701
  5
7555C
331
90703
  5
7556D
331
90704
  5
7556E
331
90705
  5
7556F
331
90706
  5
75571
331
90707
  5
75572
331
90708
  5
75573
331
90709
  5
75575
331
9070A
  5
9073B
331
9070B
  5
9073C
331
9070C
  5
9073D
331
9070D
  5
9073E
331
9070E
  5
9073F
331
9070F
  5
90735
331
90710
  5
90736
331
90711
  5
90737
331
90712
  5
90738
331
90713
  5
90739
331
90714
  5
90726
331
90715
  5
90727
331
90716
  5
90728
331
90717
  5
90729
331
90718
  5
9072A
331
90719
  5
90720
331
9071A
  5
90721
331
9071B
  5
90722
331
9071C
  5
90723
331
9071D
  5
90724
331
9071E
  5
90711
331
9071F
  5
90712
331
90720
  5
90713
331
90721
  5
90714
331
90722
  5
90715
331
90723
  5
9070B
331
90724
  5
9070C
331
90725
  5
9070D
331
90726
  5
9070E
331
90727
  5
9070F
331
90728
  5
9068F
331
90729
  5
90690
331
9072A
  5
90691
331
9072B
  5
90692
331
9072C
  5
90693
331
9072D
  5
90689
331
9072E
  5
9068A
331
9072F
  5
9068B
331
90730
  5
9068C
331
90731
  5
9068D
331
90732
  5
90678
331
90733
  5
90679
331
90734
  5
9067A
331
90735
  5
9067B
331
90736
  5
9067C
331
90737
  5
90672
331
90738
  5
90673
331
90739
  5
90674
331
9073A
  5
90675
331
9073B
  5
90676
331
9073C
  5
90661
331
9073D
  5
90662
331
9073E
  5
90663
331
9073F
  5
90664
331
90740
  5
90665
331
90741
  5
9065B
331
90742
  5
9065C
331
90743
  5
9065D
331
90744
  5
9065E
331
90745
  5
9065F
331
90746
  5
82ABB
331
90747
  5
82ABC
331
90748
  5
82ABD
331
90749
  5
82ABE
331
9074A
  5
82ABF
331
9074B
  5
82AB5
331
9074C
  5
82AB6
331
9074D
  5
82AB7
331
9074E
  5
82AB8
331
9074F
  5
82AB9
331
90750
  5
75956
331
90751
  5
75957
331
90752
  5
75958
331
90753
  5
75959
331
90754
  5
7595A
331
90755
  5
7594F
331
90756
  5
75951
331
90757
  5
75952
331
90758
  5
75953
331
90759
  5
75954
331
9075A
  5
756AC
331
9075B
  5
756AD
331
9075C
  5
75782
331
9075D
  5
75783
331
9075E
  5
75784
331
9075F
  5
756A6
331
90760
  5
756A7
331
90761
  5
756A8
331
90762
  5
756A9
331
90763
  5
756AA
331
90764
  5
75697
331
90765
  5
75698
331
90766
  5
75699
331
90767
  5
7569A
331
90768
  5
7569B
331
90769
  5
7568C
331
9076A
  5
7568D
331
9076B
  5
75692
331
9076C
  5
75694
331
9076D
  5
75695
331
9076E
  5
75665
331
9076F
  5
75673
331
90770
  5
75674
331
90771
  5
75678
331
90772
  5
75679
331
90773
  5
75641
331
90774
  5
75643
331
90775
  5
75652
331
90776
  5
75662
331
90777
  5
75663
331
90778
  5
7559A
331
90779
  5
7559B
331
9077A
  5
7559D
331
9077B
  5
7559E
331
9077C
  5
755AD
331
9077D
  5
75578
331
9077E
  5
75579
331
9077F
  5
7557A
331
90780
  5
7557B
331
90781
  5
75598
331
90782
  5
7555D
331
90783
  5
7555E
331
90784
  5
7555F
331
90785
  5
75564
331
90786
  5
7556B
331
90787
  5
75554
331
90788
  5
75556
331
90789
  5
75559
331
9078A
  5
7555A
331
9078B
  5
7555B
  0
DBCOLOR
  5
89796
102
{ACAD_REACTORS
330
88DAC
102
}
330
88DAC
100
AcDbColor
 62
18
420
0
430
Standard$black
1001
ACAD
1000
DBColXD
1070
18
1071
-1040187392
1000
Standard$black
1000
DBColXD
1070
18
1071
-1040187392
1000
Standard$black
1000
DBColXD
1070
18
1071
-1040187392
1000
Standard$black
1000
DBColXD
1070
18
1071
-1040187392
1000
Standard$black
1000
DBColXD
1070
18
1071
-1040187392
1000
Standard$black
  0
ACDBDETAILVIEWSTYLE
  5
904D9
102
{ACAD_REACTORS
330
904D8
102
}
330
904D8
100
AcDbModelDocViewStyle
 70
0
  3
Imperial24
290
1
300
Imperial24
 90
0
100
AcDbDetailViewStyle
 70
0
 71
0
 90
3
 71
1
340
88D89
 62
256
 40
0.24
340
0
 62
256
 40
0.24
300

 40
0.36
280
3
 71
2
340
88D7A
 90
25
 62
256
 71
3
340
88D89
 62
256
 40
0.24
 90
1
 40
0.75
 90
1
300
%<\AcVar ViewType \f "%tc1">% %<\AcVar ViewDetailId>%\PМАСШТАБ %<\AcVar ViewScale \f "%sn">%
 71
4
340
88D7A
 90
25
 62
256
340
88D7A
 90
25
 62
256
280
0
  0
IMAGEDEF
  5
89664
102
{ACAD_REACTORS
330
89663
330
89665
102
}
330
89663
100
AcDbRasterImageDef
 90
0
  1
image13.png
 10
1924.0
 20
2299.0
 11
0.0846668360003387
 21
0.0846668360003387
280
1
281
2
  0
IMAGEDEF
  5
8A8EB
102
{ACAD_REACTORS
330
89663
330
8A8EC
102
}
330
89663
100
AcDbRasterImageDef
 90
0
  1
WhatsApp Image 2022-11-25 at 10.11.29.jpeg
 10
959.0
 20
760.0
 11
0.0010427528675704
 21
0.0010427528675704
280
1
281
0
  0
IMAGEDEF
  5
8A8ED
102
{ACAD_REACTORS
330
89663
330
8A8EE
102
}
330
89663
100
AcDbRasterImageDef
 90
0
  1
WhatsApp Image 2022-11-25 at 10.11.29 (1).jpeg
 10
1024.0
 20
764.0
 11
0.0009765625
 21
0.0009765625
280
1
281
0
  0
IMAGEDEF
  5
8A8EF
102
{ACAD_REACTORS
330
89663
330
8A8F0
102
}
330
89663
100
AcDbRasterImageDef
 90
0
  1
WhatsApp Image 2022-11-25 at 10.11.29 (2).jpeg
 10
993.0
 20
778.0
 11
0.0010070493454179
 21
0.0010070493454179
280
1
281
0
  0
LAYOUT
  5
88D81
102
{ACAD_XDICTIONARY
360
88D82
102
}
102
{ACAD_REACTORS
330
88D7D
102
}
330
88D7D
100
AcDbPlotSettings
  1

  2
none_device
  4
Letter_(8.50_x_11.00_Inches)
  6

 40
6.349999904632568
 41
6.349999904632568
 42
6.350006103515625
 43
6.350006103515625
 44
215.8999938964844
 45
279.3999938964844
 46
0.0
 47
0.0
 48
0.0
 49
0.0
140
0.0
141
0.0
142
1.0
143
1.0
 70
688
 72
0
 73
1
 74
5
  7

 75
16
 76
0
 77
2
 78
300
147
1.0
148
0.0
149
0.0
100
AcDbLayout
  1
Layout1
 70
0
 71
1
 10
-0.2500002402958907
 20
-0.2499999962453767
 11
10.74999951940821
 21
8.249999763458732
 12
0.0
 22
0.0
 32
0.0
 14
1.049743681505489
 24
0.7996673802841308
 34
-0.0015258207003583
 15
9.450622583565561
 25
7.200576801086516
 35
3.49246037e-08
146
0.0
 13
0.0
 23
0.0
 33
0.0
 16
1.0
 26
0.0
 36
0.0
 17
0.0
 27
1.0
 37
0.0
 76
0
330
88D7E
331
8D426
1001
ACAD_PSEXT
1000
None
1000
None
1000
Not applicable
1000
The layout will not be plotted unless a new plotter configuration name is selected.
1070
0
  0
LAYOUT
  5
88D7C
102
{ACAD_REACTORS
330
88D7D
102
}
330
88D7D
100
AcDbPlotSettings
  1

  2
none_device
  4
ANSI_A_(8.50_x_11.00_Inches)
  6

 40
6.349999904632568
 41
19.04999923706055
 42
6.350006103515625
 43
19.04998779296875
 44
215.8999938964844
 45
279.3999938964844
 46
0.0
 47
0.0
 48
0.0
 49
0.0
140
0.0
141
0.0
142
1.0
143
2.584895464708373
 70
11952
 72
0
 73
1
 74
0
  7

 75
0
 76
0
 77
2
 78
300
147
0.3868628397755418
148
0.0
149
0.0
100
AcDbLayout
  1
Model
 70
1
 71
0
 10
0.0
 20
0.0
 11
12.0
 21
9.0
 12
0.0
 22
0.0
 32
0.0
 14
0.0
 24
0.0
 34
0.0
 15
0.0
 25
0.0
 35
0.0
146
0.0
 13
0.0
 23
0.0
 33
0.0
 16
1.0
 26
0.0
 36
0.0
 17
0.0
 27
1.0
 37
0.0
 76
0
330
88D6B
331
48D
  0
MATERIAL
  5
88DA4
102
{ACAD_XDICTIONARY
360
88DA5
102
}
102
{ACAD_REACTORS
330
88D72
102
}
330
88D72
100
AcDbMaterial
  1
ByBlock
  2

 70
0
 40
1.0
 71
0
 41
1.0
 91
-1023410177
 42
1.0
 72
0
  3

 73
1
 74
1
 75
1
 43
0.0208333333333333
 43
0.0
 43
0.0
 43
0.0
 43
0.0
 43
0.0208333333333333
 43
0.0
 43
0.0
 43
0.0
 43
0.0
 43
1.0
 43
0.0
 43
0.0
 43
0.0
 43
0.0
 43
1.0
 44
0.5
 73
0
 45
1.0
 46
1.0
 77
0
  4

 78
1
 79
1
170
1
 47
0.0208333333333333
 47
0.0
 47
0.0
 47
0.0
 47
0.0
 47
0.0208333333333333
 47
0.0
 47
0.0
 47
0.0
 47
0.0
 47
1.0
 47
0.0
 47
0.0
 47
0.0
 47
0.0
 47
1.0
 48
1.0
171
0
  6

172
1
173
1
174
1
 49
0.0208333333333333
 49
0.0
 49
0.0
 49
0.0
 49
0.0
 49
0.0208333333333333
 49
0.0
 49
0.0
 49
0.0
 49
0.0
 49
1.0
 49
0.0
 49
0.0
 49
0.0
 49
0.0
 49
1.0
140
1.0
141
1.0
175
0
  7

176
1
177
1
178
1
142
0.0208333333333333
142
0.0
142
0.0
142
0.0
142
0.0
142
0.0208333333333333
142
0.0
142
0.0
142
0.0
142
0.0
142
1.0
142
0.0
142
0.0
142
0.0
142
0.0
142
1.0
143
1.0
179
0
  8

270
1
271
1
272
1
144
0.0208333333333333
144
0.0
144
0.0
144
0.0
144
0.0
144
0.0208333333333333
144
0.0
144
0.0
144
0.0
144
0.0
144
1.0
144
0.0
144
0.0
144
0.0
144
0.0
144
1.0
145
1.0
146
1.0
273
1
  9

274
1
275
1
276
1
147
0.0208333333333333
147
0.0
147
0.0
147
0.0
147
0.0
147
0.0208333333333333
147
0.0
147
0.0
147
0.0
147
0.0
147
1.0
147
0.0
147
0.0
147
0.0
147
0.0
147
1.0
 42
1.0
 72
1
  3

 73
1
 74
1
 75
1
 94
63
  0
MATERIAL
  5
88D9C
102
{ACAD_XDICTIONARY
360
88D9D
102
}
102
{ACAD_REACTORS
330
88D72
102
}
330
88D72
100
AcDbMaterial
  1
ByLayer
  2

 70
0
 40
1.0
 71
0
 41
1.0
 91
-1023410177
 42
1.0
 72
0
  3

 73
1
 74
1
 75
1
 43
0.0208333333333333
 43
0.0
 43
0.0
 43
0.0
 43
0.0
 43
0.0208333333333333
 43
0.0
 43
0.0
 43
0.0
 43
0.0
 43
1.0
 43
0.0
 43
0.0
 43
0.0
 43
0.0
 43
1.0
 44
0.5
 73
0
 45
1.0
 46
1.0
 77
0
  4

 78
1
 79
1
170
1
 47
0.0208333333333333
 47
0.0
 47
0.0
 47
0.0
 47
0.0
 47
0.0208333333333333
 47
0.0
 47
0.0
 47
0.0
 47
0.0
 47
1.0
 47
0.0
 47
0.0
 47
0.0
 47
0.0
 47
1.0
 48
1.0
171
0
  6

172
1
173
1
174
1
 49
0.0208333333333333
 49
0.0
 49
0.0
 49
0.0
 49
0.0
 49
0.0208333333333333
 49
0.0
 49
0.0
 49
0.0
 49
0.0
 49
1.0
 49
0.0
 49
0.0
 49
0.0
 49
0.0
 49
1.0
140
1.0
141
1.0
175
0
  7

176
1
177
1
178
1
142
0.0208333333333333
142
0.0
142
0.0
142
0.0
142
0.0
142
0.0208333333333333
142
0.0
142
0.0
142
0.0
142
0.0
142
1.0
142
0.0
142
0.0
142
0.0
142
0.0
142
1.0
143
1.0
179
0
  8

270
1
271
1
272
1
144
0.0208333333333333
144
0.0
144
0.0
144
0.0
144
0.0
144
0.0208333333333333
144
0.0
144
0.0
144
0.0
144
0.0
144
1.0
144
0.0
144
0.0
144
0.0
144
0.0
144
1.0
145
1.0
146
1.0
273
1
  9

274
1
275
1
276
1
147
0.0208333333333333
147
0.0
147
0.0
147
0.0
147
0.0
147
0.0208333333333333
147
0.0
147
0.0
147
0.0
147
0.0
147
1.0
147
0.0
147
0.0
147
0.0
147
0.0
147
1.0
 42
1.0
 72
1
  3

 73
1
 74
1
 75
1
 94
63
  0
MATERIAL
  5
88D71
102
{ACAD_XDICTIONARY
360
88D73
102
}
102
{ACAD_REACTORS
330
88D72
102
}
330
88D72
100
AcDbMaterial
  1
Global
  2

 70
0
 40
1.0
 71
0
 41
1.0
 91
-1023410177
 42
1.0
 72
0
  3

 73
1
 74
1
 75
1
 43
0.0208333333333333
 43
0.0
 43
0.0
 43
0.0
 43
0.0
 43
0.0208333333333333
 43
0.0
 43
0.0
 43
0.0
 43
0.0
 43
1.0
 43
0.0
 43
0.0
 43
0.0
 43
0.0
 43
1.0
 44
0.5
 73
0
 45
1.0
 46
1.0
 77
0
  4

 78
1
 79
1
170
1
 47
0.0208333333333333
 47
0.0
 47
0.0
 47
0.0
 47
0.0
 47
0.0208333333333333
 47
0.0
 47
0.0
 47
0.0
 47
0.0
 47
1.0
 47
0.0
 47
0.0
 47
0.0
 47
0.0
 47
1.0
 48
1.0
171
0
  6

172
1
173
1
174
1
 49
0.0208333333333333
 49
0.0
 49
0.0
 49
0.0
 49
0.0
 49
0.0208333333333333
 49
0.0
 49
0.0
 49
0.0
 49
0.0
 49
1.0
 49
0.0
 49
0.0
 49
0.0
 49
0.0
 49
1.0
140
1.0
141
1.0
175
0
  7

176
1
177
1
178
1
142
0.0208333333333333
142
0.0
142
0.0
142
0.0
142
0.0
142
0.0208333333333333
142
0.0
142
0.0
142
0.0
142
0.0
142
1.0
142
0.0
142
0.0
142
0.0
142
0.0
142
1.0
143
1.0
179
0
  8

270
1
271
1
272
1
144
0.0208333333333333
144
0.0
144
0.0
144
0.0
144
0.0
144
0.0208333333333333
144
0.0
144
0.0
144
0.0
144
0.0
144
1.0
144
0.0
144
0.0
144
0.0
144
0.0
144
1.0
145
1.0
146
1.0
273
1
  9

274
1
275
1
276
1
147
0.0208333333333333
147
0.0
147
0.0
147
0.0
147
0.0
147
0.0208333333333333
147
0.0
147
0.0
147
0.0
147
0.0
147
1.0
147
0.0
147
0.0
147
0.0
147
0.0
147
1.0
 42
1.0
 72
1
  3

 73
1
 74
1
 75
1
 94
63
  0
MLEADERSTYLE
  5
8AD2F
102
{ACAD_REACTORS
330
88DAF
102
}
330
88DAF
100
AcDbMLeaderStyle
179
2
170
2
171
1
172
0
 90
2
 40
0.0
 41
0.0
173
1
 91
-1056964608
340
88D8C
 92
-2
290
1
 42
0.09
291
1
 43
0.36
  3
Standard
 44
0.18
300

342
88D89
174
1
175
1
176
0
178
6
 93
-1056964608
 45
0.18
292
0
297
0
 46
0.18
293
1
 94
-1056964608
 47
1.0
 49
1.0
140
1.0
294
1
141
0.0
177
0
142
1.0
295
0
296
0
143
0.125
271
0
272
9
273
9
298
0
  0
MLINESTYLE
  5
88DB0
102
{ACAD_REACTORS
330
88D9A
102
}
330
88D9A
100
AcDbMlineStyle
  2
STANDARD
 70
0
  3

 62
256
 51
90.0
 52
90.0
 71
2
 49
0.5
 62
256
  6
BYLAYER
 49
-0.5
 62
256
  6
BYLAYER
  0
ACDBPLACEHOLDER
  5
88D6E
102
{ACAD_REACTORS
330
88D6F
102
}
330
88D6F
  0
SCALE
  5
88DB4
102
{ACAD_REACTORS
330
88DAD
102
}
330
88DAD
100
AcDbScale
 70
0
300
1:1
140
1.0
141
1.0
290
1
  0
SCALE
  5
88DB5
102
{ACAD_REACTORS
330
88DAD
102
}
330
88DAD
100
AcDbScale
 70
0
300
1:2
140
1.0
141
2.0
290
0
  0
SCALE
  5
88DB6
102
{ACAD_REACTORS
330
88DAD
102
}
330
88DAD
100
AcDbScale
 70
0
300
1:4
140
1.0
141
4.0
290
0
  0
SCALE
  5
88DB7
102
{ACAD_REACTORS
330
88DAD
102
}
330
88DAD
100
AcDbScale
 70
0
300
1:5
140
1.0
141
5.0
290
0
  0
SCALE
  5
88DB8
102
{ACAD_REACTORS
330
88DAD
102
}
330
88DAD
100
AcDbScale
 70
0
300
1:8
140
1.0
141
8.0
290
0
  0
SCALE
  5
88DB9
102
{ACAD_REACTORS
330
88DAD
102
}
330
88DAD
100
AcDbScale
 70
0
300
1:10
140
1.0
141
10.0
290
0
  0
SCALE
  5
88DBA
102
{ACAD_REACTORS
330
88DAD
102
}
330
88DAD
100
AcDbScale
 70
0
300
1:16
140
1.0
141
16.0
290
0
  0
SCALE
  5
88DBB
102
{ACAD_REACTORS
330
88DAD
102
}
330
88DAD
100
AcDbScale
 70
0
300
1:20
140
1.0
141
20.0
290
0
  0
SCALE
  5
88DBC
102
{ACAD_REACTORS
330
88DAD
102
}
330
88DAD
100
AcDbScale
 70
0
300
1:30
140
1.0
141
30.0
290
0
  0
SCALE
  5
88DBD
102
{ACAD_REACTORS
330
88DAD
102
}
330
88DAD
100
AcDbScale
 70
0
300
1:40
140
1.0
141
40.0
290
0
  0
SCALE
  5
88DBE
102
{ACAD_REACTORS
330
88DAD
102
}
330
88DAD
100
AcDbScale
 70
0
300
1:50
140
1.0
141
50.0
290
0
  0
SCALE
  5
88DBF
102
{ACAD_REACTORS
330
88DAD
102
}
330
88DAD
100
AcDbScale
 70
0
300
1:100
140
1.0
141
100.0
290
0
  0
SCALE
  5
88DC0
102
{ACAD_REACTORS
330
88DAD
102
}
330
88DAD
100
AcDbScale
 70
0
300
2:1
140
2.0
141
1.0
290
0
  0
SCALE
  5
88DC1
102
{ACAD_REACTORS
330
88DAD
102
}
330
88DAD
100
AcDbScale
 70
0
300
4:1
140
4.0
141
1.0
290
0
  0
SCALE
  5
88DC2
102
{ACAD_REACTORS
330
88DAD
102
}
330
88DAD
100
AcDbScale
 70
0
300
8:1
140
8.0
141
1.0
290
0
  0
SCALE
  5
88DC3
102
{ACAD_REACTORS
330
88DAD
102
}
330
88DAD
100
AcDbScale
 70
0
300
10:1
140
10.0
141
1.0
290
0
  0
SCALE
  5
88DC4
102
{ACAD_REACTORS
330
88DAD
102
}
330
88DAD
100
AcDbScale
 70
0
300
100:1
140
100.0
141
1.0
290
0
  0
SCALE
  5
88DC5
102
{ACAD_REACTORS
330
88DAD
102
}
330
88DAD
100
AcDbScale
 70
0
300
1/128" = 1'-0"
140
0.0078125
141
12.0
290
0
  0
SCALE
  5
88DC6
102
{ACAD_REACTORS
330
88DAD
102
}
330
88DAD
100
AcDbScale
 70
0
300
1/64" = 1'-0"
140
0.015625
141
12.0
290
0
  0
SCALE
  5
88DC7
102
{ACAD_REACTORS
330
88DAD
102
}
330
88DAD
100
AcDbScale
 70
0
300
1/32" = 1'-0"
140
0.03125
141
12.0
290
0
  0
SCALE
  5
88DC8
102
{ACAD_REACTORS
330
88DAD
102
}
330
88DAD
100
AcDbScale
 70
0
300
1/16" = 1'-0"
140
0.0625
141
12.0
290
0
  0
SCALE
  5
88DC9
102
{ACAD_REACTORS
330
88DAD
102
}
330
88DAD
100
AcDbScale
 70
0
300
3/32" = 1'-0"
140
0.09375
141
12.0
290
0
  0
SCALE
  5
88DCA
102
{ACAD_REACTORS
330
88DAD
102
}
330
88DAD
100
AcDbScale
 70
0
300
1/8" = 1'-0"
140
0.125
141
12.0
290
0
  0
SCALE
  5
88DCB
102
{ACAD_REACTORS
330
88DAD
102
}
330
88DAD
100
AcDbScale
 70
0
300
3/16" = 1'-0"
140
0.1875
141
12.0
290
0
  0
SCALE
  5
88DCC
102
{ACAD_REACTORS
330
88DAD
102
}
330
88DAD
100
AcDbScale
 70
0
300
1/4" = 1'-0"
140
0.25
141
12.0
290
0
  0
SCALE
  5
88DCD
102
{ACAD_REACTORS
330
88DAD
102
}
330
88DAD
100
AcDbScale
 70
0
300
3/8" = 1'-0"
140
0.375
141
12.0
290
0
  0
SCALE
  5
88DCE
102
{ACAD_REACTORS
330
88DAD
102
}
330
88DAD
100
AcDbScale
 70
0
300
1/2" = 1'-0"
140
0.5
141
12.0
290
0
  0
SCALE
  5
88DCF
102
{ACAD_REACTORS
330
88DAD
102
}
330
88DAD
100
AcDbScale
 70
0
300
3/4" = 1'-0"
140
0.75
141
12.0
290
0
  0
SCALE
  5
88DD0
102
{ACAD_REACTORS
330
88DAD
102
}
330
88DAD
100
AcDbScale
 70
0
300
1" = 1'-0"
140
1.0
141
12.0
290
0
  0
SCALE
  5
88DD1
102
{ACAD_REACTORS
330
88DAD
102
}
330
88DAD
100
AcDbScale
 70
0
300
1-1/2" = 1'-0"
140
1.5
141
12.0
290
0
  0
SCALE
  5
88DD2
102
{ACAD_REACTORS
330
88DAD
102
}
330
88DAD
100
AcDbScale
 70
0
300
3" = 1'-0"
140
3.0
141
12.0
290
0
  0
SCALE
  5
88DD3
102
{ACAD_REACTORS
330
88DAD
102
}
330
88DAD
100
AcDbScale
 70
0
300
6" = 1'-0"
140
6.0
141
12.0
290
0
  0
SCALE
  5
88DD4
102
{ACAD_REACTORS
330
88DAD
102
}
330
88DAD
100
AcDbScale
 70
0
300
1'-0" = 1'-0"
140
12.0
141
12.0
290
0
  0
ACDBSECTIONVIEWSTYLE
  5
904D7
102
{ACAD_REACTORS
330
904D6
102
}
330
904D6
100
AcDbModelDocViewStyle
 70
0
  3
Imperial24
290
1
300
Imperial24
 90
0
100
AcDbSectionViewStyle
 70
0
 71
0
 90
78
 71
1
340
88D89
 62
256
 40
0.24
340
0
340
0
 62
256
 40
0.24
300
I, O, Q, S, X, Z
 40
0.48
 90
3
 40
0.18
 90
1
 71
2
340
88D7A
 90
25
 62
256
340
88D7A
 90
50
 62
256
 40
0.24
 40
0.0
 40
0.24
 71
3
340
88D89
 62
256
 40
0.24
 90
1
 40
0.75
 90
1
300
%<\AcVar ViewType \f "%tc1">% %<\AcVar ViewSectionStartId>%-%<\AcVar ViewSectionEndId>%\PМАСШТАБ %<\AcVar ViewScale \f "%sn">%
 71
4
 62
256
 62
257
300
ANSI31
 40
1.0
 90
0
290
0
290
0
 90
6
 40
0.0
 40
1.570796326794896
 40
0.2617993877991494
 40
1.308996938995747
 40
-0.2617993877991494
 40
1.832595714594046
  0
TABLESTYLE
  5
88DB1
102
{ACAD_XDICTIONARY
360
8AD0D
102
}
102
{ACAD_REACTORS
330
88DAE
102
}
330
88DAE
100
AcDbTableStyle
280
0
  3
Standard
 70
0
 71
0
 40
0.06
 41
0.06
280
0
281
0
  7
Standard
140
0.18
170
2
 62
0
 63
7
283
0
 90
4
 91
0
  1

274
-2
284
1
 64
0
275
-2
285
1
 65
0
276
-2
286
1
 66
0
277
-2
287
1
 67
0
278
-2
288
1
 68
0
279
-2
289
1
 69
0
  7
Standard
140
0.25
170
5
 62
0
 63
7
283
0
 90
4
 91
0
  1

274
-2
284
1
 64
0
275
-2
285
1
 65
0
276
-2
286
1
 66
0
277
-2
287
1
 67
0
278
-2
288
1
 68
0
279
-2
289
1
 69
0
  7
Standard
140
0.18
170
5
 62
0
 63
7
283
0
 90
4
 91
0
  1

274
-2
284
1
 64
0
275
-2
285
1
 65
0
276
-2
286
1
 66
0
277
-2
287
1
 67
0
278
-2
288
1
 68
0
279
-2
289
1
 69
0
  0
VISUALSTYLE
  5
88D92
102
{ACAD_REACTORS
330
88D93
102
}
330
88D93
100
AcDbVisualStyle
  2
2dWireframe
 70
4
177
3
291
0
 70
58
 90
0
176
1
 90
2
176
1
 90
0
176
1
 90
0
176
1
 40
0.6
176
1
 40
30.0
176
1
 62
7
420
16777215
176
1
 90
1
176
1
 90
4
176
1
 62
7
176
1
 62
257
176
1
 90
1
176
1
 90
1
176
1
 40
1.0
176
1
 90
0
176
1
 62
257
176
1
 40
1.0
176
1
 90
1
176
1
 90
6
176
1
 90
2
176
1
 62
7
176
1
 90
5
176
1
 90
0
176
1
 90
0
176
1
290
0
176
1
 90
1
176
1
 40
0.0
176
1
 90
0
176
1
290
1
176
1
290
1
176
1
290
0
176
1
290
0
176
1
290
0
176
1
290
0
176
1
290
0
176
1
290
0
176
1
290
0
176
1
 90
50
176
1
 40
0.0
176
1
 40
1.0
176
1
 90
0
176
1
 62
18
420
0
176
1
 90
50
176
1
 90
3
176
1
 62
5
420
255
176
1
290
0
176
1
 90
50
176
1
 90
50
176
1
 90
50
176
1
290
0
176
1
 90
50
176
1
 62
256
176
0
 40
1.0
176
0
 90
2
176
1
  1
strokes_ogs.tif
176
1
290
0
176
1
 40
1.0
176
1
 40
1.0
176
1
  0
VISUALSTYLE
  5
8AD24
102
{ACAD_REACTORS
330
88D93
102
}
330
88D93
100
AcDbVisualStyle
  2
3D Hidden
 70
6
177
3
291
0
 70
58
 90
1
176
1
 90
2
176
1
 90
2
176
1
 90
0
176
1
 40
0.6
176
1
 40
30.0
176
1
 62
7
420
16777215
176
1
 90
2
176
1
 90
2
176
1
 62
7
176
1
 62
257
176
1
 90
2
176
1
 90
1
176
1
 40
179.0
176
1
 90
0
176
1
 62
257
176
1
 40
1.0
176
1
 90
1
176
1
 90
6
176
1
 90
2
176
1
 62
7
176
1
 90
3
176
1
 90
0
176
1
 90
0
176
1
290
0
176
1
 90
1
176
1
 40
0.0
176
1
 90
0
176
1
290
0
176
1
290
1
176
1
290
1
176
1
290
0
176
1
290
0
176
1
290
0
176
1
290
0
176
1
290
0
176
1
290
0
176
1
 90
50
176
1
 40
0.0
176
1
 40
1.0
176
1
 90
0
176
1
 62
18
420
0
176
1
 90
50
176
1
 90
3
176
1
 62
5
420
255
176
1
290
0
176
1
 90
50
176
1
 90
50
176
1
 90
50
176
1
290
0
176
1
 90
50
176
1
 62
256
176
0
 40
1.0
176
0
 90
2
176
1
  1
strokes_ogs.tif
176
1
290
0
176
1
 40
1.0
176
1
 40
1.0
176
1
  0
VISUALSTYLE
  5
88DB3
102
{ACAD_REACTORS
330
88D93
102
}
330
88D93
100
AcDbVisualStyle
  2
3dWireframe
 70
5
177
3
291
0
 70
58
 90
0
176
1
 90
2
176
1
 90
0
176
1
 90
0
176
1
 40
0.6
176
1
 40
30.0
176
1
 62
7
420
16777215
176
1
 90
1
176
1
 90
4
176
1
 62
7
176
1
 62
257
176
1
 90
1
176
1
 90
1
176
1
 40
1.0
176
1
 90
0
176
1
 62
257
176
1
 40
1.0
176
1
 90
1
176
1
 90
6
176
1
 90
2
176
1
 62
7
176
1
 90
5
176
1
 90
0
176
1
 90
0
176
1
290
0
176
1
 90
1
176
1
 40
0.0
176
1
 90
0
176
1
290
0
176
1
290
1
176
1
290
1
176
1
290
0
176
1
290
0
176
1
290
0
176
1
290
0
176
1
290
0
176
1
290
0
176
1
 90
50
176
1
 40
0.0
176
1
 40
1.0
176
1
 90
0
176
1
 62
18
420
0
176
1
 90
50
176
1
 90
3
176
1
 62
5
420
255
176
1
290
0
176
1
 90
50
176
1
 90
50
176
1
 90
50
176
1
290
0
176
1
 90
50
176
1
 62
256
176
0
 40
1.0
176
0
 90
2
176
1
  1
strokes_ogs.tif
176
1
290
0
176
1
 40
1.0
176
1
 40
1.0
176
1
  0
VISUALSTYLE
  5
8AD23
102
{ACAD_REACTORS
330
88D93
102
}
330
88D93
100
AcDbVisualStyle
  2
Basic
 70
7
177
3
291
1
 70
58
 90
1
176
1
 90
0
176
1
 90
1
176
1
 90
0
176
1
 40
0.6
176
1
 40
30.0
176
1
 62
7
420
16777215
176
1
 90
0
176
1
 90
4
176
1
 62
7
176
1
 62
257
176
1
 90
1
176
1
 90
1
176
1
 40
1.0
176
1
 90
8
176
1
 62
7
176
1
 40
1.0
176
1
 90
1
176
1
 90
6
176
1
 90
2
176
1
 62
7
176
1
 90
5
176
1
 90
0
176
1
 90
0
176
1
290
0
176
1
 90
1
176
1
 40
0.0
176
1
 90
0
176
1
290
0
176
1
290
1
176
1
290
1
176
1
290
0
176
1
290
0
176
1
290
0
176
1
290
0
176
1
290
0
176
1
290
0
176
1
 90
50
176
1
 40
0.0
176
1
 40
1.0
176
1
 90
0
176
1
 62
18
420
0
176
1
 90
50
176
1
 90
3
176
1
 62
5
420
255
176
1
290
0
176
1
 90
50
176
1
 90
50
176
1
 90
50
176
1
290
0
176
1
 90
50
176
1
 62
256
176
0
 40
1.0
176
0
 90
2
176
1
  1
strokes_ogs.tif
176
1
290
0
176
1
 40
1.0
176
1
 40
1.0
176
1
  0
VISUALSTYLE
  5
8AD27
102
{ACAD_REACTORS
330
88D93
102
}
330
88D93
100
AcDbVisualStyle
  2
Brighten
 70
12
177
3
291
1
 70
58
 90
2
176
1
 90
2
176
1
 90
0
176
1
 90
0
176
1
 40
0.6
176
1
 40
30.0
176
1
 62
7
420
16777215
176
1
 90
1
176
1
 90
4
176
1
 62
7
176
1
 62
257
176
1
 90
1
176
1
 90
1
176
1
 40
1.0
176
1
 90
8
176
1
 62
7
176
1
 40
1.0
176
1
 90
1
176
1
 90
6
176
1
 90
2
176
1
 62
7
176
1
 90
5
176
1
 90
0
176
1
 90
0
176
1
290
0
176
1
 90
1
176
1
 40
50.0
176
1
 90
0
176
1
290
0
176
1
290
1
176
1
290
1
176
1
290
0
176
1
290
0
176
1
290
0
176
1
290
0
176
1
290
0
176
1
290
0
176
1
 90
50
176
1
 40
0.0
176
1
 40
1.0
176
1
 90
0
176
1
 62
18
420
0
176
1
 90
50
176
1
 90
3
176
1
 62
5
420
255
176
1
290
0
176
1
 90
50
176
1
 90
50
176
1
 90
50
176
1
290
0
176
1
 90
50
176
1
 62
256
176
0
 40
1.0
176
0
 90
2
176
1
  1
strokes_ogs.tif
176
1
290
0
176
1
 40
1.0
176
1
 40
1.0
176
1
  0
VISUALSTYLE
  5
8AD2B
102
{ACAD_REACTORS
330
88D93
102
}
330
88D93
100
AcDbVisualStyle
  2
ColorChange
 70
16
177
3
291
1
 70
58
 90
2
176
1
 90
2
176
1
 90
3
176
1
 90
0
176
1
 40
0.6
176
1
 40
30.0
176
1
 62
8
420
8421504
176
1
 90
1
176
1
 90
4
176
1
 62
7
176
1
 62
257
176
1
 90
1
176
1
 90
1
176
1
 40
1.0
176
1
 90
8
176
1
 62
8
420
8421504
176
1
 40
1.0
176
1
 90
1
176
1
 90
6
176
1
 90
2
176
1
 62
7
176
1
 90
5
176
1
 90
0
176
1
 90
0
176
1
290
0
176
1
 90
1
176
1
 40
0.0
176
1
 90
0
176
1
290
0
176
1
290
1
176
1
290
1
176
1
290
0
176
1
290
0
176
1
290
0
176
1
290
0
176
1
290
0
176
1
290
0
176
1
 90
50
176
1
 40
0.0
176
1
 40
1.0
176
1
 90
0
176
1
 62
18
420
0
176
1
 90
50
176
1
 90
3
176
1
 62
5
420
255
176
1
290
0
176
1
 90
50
176
1
 90
50
176
1
 90
50
176
1
290
0
176
1
 90
50
176
1
 62
256
176
0
 40
1.0
176
0
 90
2
176
1
  1
strokes_ogs.tif
176
1
290
0
176
1
 40
1.0
176
1
 40
1.0
176
1
  0
VISUALSTYLE
  5
8AD25
102
{ACAD_REACTORS
330
88D93
102
}
330
88D93
100
AcDbVisualStyle
  2
Conceptual
 70
9
177
3
291
0
 70
58
 90
3
176
1
 90
2
176
1
 90
0
176
1
 90
0
176
1
 40
0.6
176
1
 40
30.0
176
1
 62
7
420
16777215
176
1
 90
2
176
1
 90
2
176
1
 62
7
176
1
 62
257
176
1
 90
1
176
1
 90
1
176
1
 40
179.0
176
1
 90
8
176
1
 62
7
176
1
 40
1.0
176
1
 90
1
176
1
 90
6
176
1
 90
2
176
1
 62
7
176
1
 90
3
176
1
 90
0
176
1
 90
0
176
1
290
0
176
1
 90
1
176
1
 40
0.0
176
1
 90
0
176
1
290
0
176
1
290
1
176
1
290
1
176
1
290
0
176
1
290
0
176
1
290
0
176
1
290
0
176
1
290
0
176
1
290
0
176
1
 90
50
176
1
 40
0.0
176
1
 40
1.0
176
1
 90
0
176
1
 62
18
420
0
176
1
 90
50
176
1
 90
3
176
1
 62
5
420
255
176
1
290
0
176
1
 90
50
176
1
 90
50
176
1
 90
50
176
1
290
0
176
1
 90
50
176
1
 62
256
176
0
 40
1.0
176
0
 90
2
176
1
  1
strokes_ogs.tif
176
1
290
0
176
1
 40
1.0
176
1
 40
1.0
176
1
  0
VISUALSTYLE
  5
8AD26
102
{ACAD_REACTORS
330
88D93
102
}
330
88D93
100
AcDbVisualStyle
  2
Dim
 70
11
177
3
291
1
 70
58
 90
2
176
1
 90
2
176
1
 90
0
176
1
 90
0
176
1
 40
0.6
176
1
 40
30.0
176
1
 62
7
420
16777215
176
1
 90
1
176
1
 90
4
176
1
 62
7
176
1
 62
257
176
1
 90
1
176
1
 90
1
176
1
 40
1.0
176
1
 90
8
176
1
 62
7
176
1
 40
1.0
176
1
 90
1
176
1
 90
6
176
1
 90
2
176
1
 62
7
176
1
 90
5
176
1
 90
0
176
1
 90
0
176
1
290
0
176
1
 90
1
176
1
 40
-50.0
176
1
 90
0
176
1
290
0
176
1
290
1
176
1
290
1
176
1
290
0
176
1
290
0
176
1
290
0
176
1
290
0
176
1
290
0
176
1
290
0
176
1
 90
50
176
1
 40
0.0
176
1
 40
1.0
176
1
 90
0
176
1
 62
18
420
0
176
1
 90
50
176
1
 90
3
176
1
 62
5
420
255
176
1
290
0
176
1
 90
50
176
1
 90
50
176
1
 90
50
176
1
290
0
176
1
 90
50
176
1
 62
256
176
0
 40
1.0
176
0
 90
2
176
1
  1
strokes_ogs.tif
176
1
290
0
176
1
 40
1.0
176
1
 40
1.0
176
1
  0
VISUALSTYLE
  5
8AD2E
102
{ACAD_REACTORS
330
88D93
102
}
330
88D93
100
AcDbVisualStyle
  2
EdgeColorOff
 70
22
177
3
291
1
 70
58
 90
2
176
0
 90
2
176
0
 90
0
176
0
 90
0
176
0
 40
0.6
176
0
 40
30.0
176
0
 62
7
420
16777215
176
0
 90
1
176
0
 90
4
176
0
 62
7
176
0
 62
257
176
0
 90
1
176
0
 90
1
176
0
 40
1.0
176
0
 90
8
176
2
 62
7
176
0
 40
1.0
176
0
 90
1
176
0
 90
6
176
0
 90
2
176
0
 62
7
176
0
 90
5
176
0
 90
0
176
0
 90
0
176
0
290
0
176
0
 90
1
176
0
 40
0.0
176
0
 90
0
176
0
290
0
176
1
290
1
176
1
290
1
176
1
290
0
176
1
290
0
176
1
290
0
176
1
290
0
176
1
290
0
176
1
290
0
176
1
 90
50
176
1
 40
0.0
176
1
 40
1.0
176
1
 90
0
176
1
 62
18
420
0
176
1
 90
50
176
1
 90
3
176
1
 62
5
420
255
176
1
290
0
176
1
 90
50
176
1
 90
50
176
1
 90
50
176
1
290
0
176
1
 90
50
176
1
 62
256
176
0
 40
1.0
176
0
 90
2
176
1
  1
strokes_ogs.tif
176
1
290
0
176
1
 40
1.0
176
1
 40
1.0
176
1
  0
VISUALSTYLE
  5
8AD2A
102
{ACAD_REACTORS
330
88D93
102
}
330
88D93
100
AcDbVisualStyle
  2
Facepattern
 70
15
177
3
291
1
 70
58
 90
2
176
1
 90
2
176
1
 90
0
176
1
 90
0
176
1
 40
0.6
176
1
 40
30.0
176
1
 62
7
420
16777215
176
1
 90
1
176
1
 90
4
176
1
 62
7
176
1
 62
257
176
1
 90
1
176
1
 90
1
176
1
 40
1.0
176
1
 90
8
176
1
 62
7
176
1
 40
1.0
176
1
 90
1
176
1
 90
6
176
1
 90
2
176
1
 62
7
176
1
 90
5
176
1
 90
0
176
1
 90
0
176
1
290
0
176
1
 90
1
176
1
 40
0.0
176
1
 90
0
176
1
290
0
176
1
290
1
176
1
290
1
176
1
290
0
176
1
290
0
176
1
290
0
176
1
290
0
176
1
290
0
176
1
290
0
176
1
 90
50
176
1
 40
0.0
176
1
 40
1.0
176
1
 90
0
176
1
 62
18
420
0
176
1
 90
50
176
1
 90
3
176
1
 62
5
420
255
176
1
290
0
176
1
 90
50
176
1
 90
50
176
1
 90
50
176
1
290
0
176
1
 90
50
176
1
 62
256
176
0
 40
1.0
176
0
 90
2
176
1
  1
strokes_ogs.tif
176
1
290
0
176
1
 40
1.0
176
1
 40
1.0
176
1
  0
VISUALSTYLE
  5
8AD1F
102
{ACAD_REACTORS
330
88D93
102
}
330
88D93
100
AcDbVisualStyle
  2
Flat
 70
0
177
3
291
1
 70
58
 90
2
176
1
 90
1
176
1
 90
1
176
1
 90
2
176
1
 40
0.6
176
1
 40
30.0
176
1
 62
7
420
16777215
176
1
 90
0
176
1
 90
4
176
1
 62
7
176
1
 62
257
176
1
 90
1
176
1
 90
1
176
1
 40
1.0
176
1
 90
8
176
1
 62
7
176
1
 40
1.0
176
1
 90
1
176
1
 90
6
176
1
 90
2
176
1
 62
7
176
1
 90
5
176
1
 90
0
176
1
 90
0
176
1
290
0
176
1
 90
13
176
1
 40
0.0
176
1
 90
0
176
1
290
0
176
1
290
1
176
1
290
1
176
1
290
0
176
1
290
0
176
1
290
0
176
1
290
0
176
1
290
0
176
1
290
0
176
1
 90
50
176
1
 40
0.0
176
1
 40
1.0
176
1
 90
0
176
1
 62
18
420
0
176
1
 90
50
176
1
 90
3
176
1
 62
5
420
255
176
1
290
0
176
1
 90
50
176
1
 90
50
176
1
 90
50
176
1
290
0
176
1
 90
50
176
1
 62
256
176
0
 40
1.0
176
0
 90
2
176
1
  1
strokes_ogs.tif
176
1
290
0
176
1
 40
1.0
176
1
 40
1.0
176
1
  0
VISUALSTYLE
  5
8AD20
102
{ACAD_REACTORS
330
88D93
102
}
330
88D93
100
AcDbVisualStyle
  2
FlatWithEdges
 70
1
177
3
291
1
 70
58
 90
2
176
1
 90
1
176
1
 90
1
176
1
 90
2
176
1
 40
0.6
176
1
 40
30.0
176
1
 62
7
420
16777215
176
1
 90
1
176
1
 90
4
176
1
 62
7
176
1
 62
257
176
1
 90
1
176
1
 90
1
176
1
 40
1.0
176
1
 90
0
176
1
 62
257
176
1
 40
1.0
176
1
 90
1
176
1
 90
6
176
1
 90
2
176
1
 62
7
176
1
 90
5
176
1
 90
0
176
1
 90
0
176
1
290
0
176
1
 90
13
176
1
 40
0.0
176
1
 90
0
176
1
290
0
176
1
290
1
176
1
290
1
176
1
290
0
176
1
290
0
176
1
290
0
176
1
290
0
176
1
290
0
176
1
290
0
176
1
 90
50
176
1
 40
0.0
176
1
 40
1.0
176
1
 90
0
176
1
 62
18
420
0
176
1
 90
50
176
1
 90
3
176
1
 62
5
420
255
176
1
290
0
176
1
 90
50
176
1
 90
50
176
1
 90
50
176
1
290
0
176
1
 90
50
176
1
 62
256
176
0
 40
1.0
176
0
 90
2
176
1
  1
strokes_ogs.tif
176
1
290
0
176
1
 40
1.0
176
1
 40
1.0
176
1
  0
VISUALSTYLE
  5
8AD21
102
{ACAD_REACTORS
330
88D93
102
}
330
88D93
100
AcDbVisualStyle
  2
Gouraud
 70
2
177
3
291
1
 70
58
 90
2
176
1
 90
2
176
1
 90
1
176
1
 90
2
176
1
 40
0.6
176
1
 40
30.0
176
1
 62
7
420
16777215
176
1
 90
0
176
1
 90
4
176
1
 62
7
176
1
 62
257
176
1
 90
1
176
1
 90
1
176
1
 40
1.0
176
1
 90
0
176
1
 62
7
176
1
 40
1.0
176
1
 90
1
176
1
 90
6
176
1
 90
2
176
1
 62
7
176
1
 90
5
176
1
 90
0
176
1
 90
0
176
1
290
0
176
1
 90
13
176
1
 40
0.0
176
1
 90
0
176
1
290
0
176
1
290
1
176
1
290
1
176
1
290
0
176
1
290
0
176
1
290
0
176
1
290
0
176
1
290
0
176
1
290
0
176
1
 90
50
176
1
 40
0.0
176
1
 40
1.0
176
1
 90
0
176
1
 62
18
420
0
176
1
 90
50
176
1
 90
3
176
1
 62
5
420
255
176
1
290
0
176
1
 90
50
176
1
 90
50
176
1
 90
50
176
1
290
0
176
1
 90
50
176
1
 62
256
176
0
 40
1.0
176
0
 90
2
176
1
  1
strokes_ogs.tif
176
1
290
0
176
1
 40
1.0
176
1
 40
1.0
176
1
  0
VISUALSTYLE
  5
8AD22
102
{ACAD_REACTORS
330
88D93
102
}
330
88D93
100
AcDbVisualStyle
  2
GouraudWithEdges
 70
3
177
3
291
1
 70
58
 90
2
176
1
 90
2
176
1
 90
1
176
1
 90
2
176
1
 40
0.6
176
1
 40
30.0
176
1
 62
7
420
16777215
176
1
 90
1
176
1
 90
4
176
1
 62
7
176
1
 62
257
176
1
 90
1
176
1
 90
1
176
1
 40
1.0
176
1
 90
0
176
1
 62
257
176
1
 40
1.0
176
1
 90
1
176
1
 90
6
176
1
 90
2
176
1
 62
7
176
1
 90
5
176
1
 90
0
176
1
 90
0
176
1
290
0
176
1
 90
13
176
1
 40
0.0
176
1
 90
0
176
1
290
0
176
1
290
1
176
1
290
1
176
1
290
0
176
1
290
0
176
1
290
0
176
1
290
0
176
1
290
0
176
1
290
0
176
1
 90
50
176
1
 40
0.0
176
1
 40
1.0
176
1
 90
0
176
1
 62
18
420
0
176
1
 90
50
176
1
 90
3
176
1
 62
5
420
255
176
1
290
0
176
1
 90
50
176
1
 90
50
176
1
 90
50
176
1
290
0
176
1
 90
50
176
1
 62
256
176
0
 40
1.0
176
0
 90
2
176
1
  1
strokes_ogs.tif
176
1
290
0
176
1
 40
1.0
176
1
 40
1.0
176
1
  0
VISUALSTYLE
  5
904D0
102
{ACAD_REACTORS
330
88D93
102
}
330
88D93
100
AcDbVisualStyle
  2
Hidden
 70
6
177
3
291
0
 70
58
 90
1
176
1
 90
2
176
1
 90
2
176
1
 90
0
176
1
 40
0.6
176
1
 40
30.0
176
1
 62
7
420
16777215
176
1
 90
2
176
1
 90
2
176
1
 62
7
176
1
 62
257
176
1
 90
2
176
1
 90
1
176
1
 40
40.0
176
1
 90
0
176
1
 62
257
176
1
 40
1.0
176
1
 90
1
176
1
 90
6
176
1
 90
2
176
1
 62
7
176
1
 90
3
176
1
 90
0
176
1
 90
0
176
1
290
0
176
1
 90
1
176
1
 40
0.0
176
1
 90
0
176
1
290
0
176
1
290
1
176
1
290
1
176
1
290
0
176
1
290
0
176
1
290
0
176
1
290
0
176
1
290
0
176
1
290
0
176
1
 90
50
176
1
 40
0.0
176
1
 40
1.0
176
1
 90
0
176
1
 62
18
420
0
176
1
 90
50
176
1
 90
3
176
1
 62
5
420
255
176
1
290
0
176
1
 90
50
176
1
 90
50
176
1
 90
50
176
1
290
0
176
1
 90
50
176
1
 62
256
176
0
 40
1.0
176
0
 90
2
176
1
  1
strokes_ogs.tif
176
1
290
0
176
1
 40
1.0
176
1
 40
1.0
176
1
  0
VISUALSTYLE
  5
8AD2C
102
{ACAD_REACTORS
330
88D93
102
}
330
88D93
100
AcDbVisualStyle
  2
JitterOff
 70
20
177
3
291
1
 70
58
 90
2
176
0
 90
2
176
0
 90
0
176
0
 90
0
176
0
 40
0.6
176
0
 40
30.0
176
0
 62
7
420
16777215
176
0
 90
1
176
0
 90
4
176
0
 62
7
176
0
 62
257
176
0
 90
1
176
0
 90
1
176
0
 40
1.0
176
0
 90
10
176
2
 62
7
176
0
 40
1.0
176
0
 90
1
176
0
 90
6
176
0
 90
2
176
0
 62
7
176
0
 90
5
176
0
 90
0
176
0
 90
0
176
0
290
0
176
0
 90
1
176
0
 40
0.0
176
0
 90
0
176
0
290
0
176
1
290
1
176
1
290
1
176
1
290
0
176
1
290
0
176
1
290
0
176
1
290
0
176
1
290
0
176
1
290
0
176
1
 90
50
176
1
 40
0.0
176
1
 40
1.0
176
1
 90
0
176
1
 62
18
420
0
176
1
 90
50
176
1
 90
3
176
1
 62
5
420
255
176
1
290
0
176
1
 90
50
176
1
 90
50
176
1
 90
50
176
1
290
0
176
1
 90
50
176
1
 62
256
176
0
 40
1.0
176
0
 90
2
176
1
  1
strokes_ogs.tif
176
1
290
0
176
1
 40
1.0
176
1
 40
1.0
176
1
  0
VISUALSTYLE
  5
8AD29
102
{ACAD_REACTORS
330
88D93
102
}
330
88D93
100
AcDbVisualStyle
  2
Linepattern
 70
14
177
3
291
1
 70
58
 90
2
176
1
 90
2
176
1
 90
0
176
1
 90
0
176
1
 40
0.6
176
1
 40
30.0
176
1
 62
7
420
16777215
176
1
 90
1
176
1
 90
4
176
1
 62
7
176
1
 62
257
176
1
 90
7
176
1
 90
7
176
1
 40
1.0
176
1
 90
8
176
1
 62
7
176
1
 40
1.0
176
1
 90
1
176
1
 90
6
176
1
 90
2
176
1
 62
7
176
1
 90
5
176
1
 90
0
176
1
 90
0
176
1
290
0
176
1
 90
1
176
1
 40
0.0
176
1
 90
0
176
1
290
0
176
1
290
1
176
1
290
1
176
1
290
0
176
1
290
0
176
1
290
0
176
1
290
0
176
1
290
0
176
1
290
0
176
1
 90
50
176
1
 40
0.0
176
1
 40
1.0
176
1
 90
0
176
1
 62
18
420
0
176
1
 90
50
176
1
 90
3
176
1
 62
5
420
255
176
1
290
0
176
1
 90
50
176
1
 90
50
176
1
 90
50
176
1
290
0
176
1
 90
50
176
1
 62
256
176
0
 40
1.0
176
0
 90
2
176
1
  1
strokes_ogs.tif
176
1
290
0
176
1
 40
1.0
176
1
 40
1.0
176
1
  0
VISUALSTYLE
  5
8AD2D
102
{ACAD_REACTORS
330
88D93
102
}
330
88D93
100
AcDbVisualStyle
  2
OverhangOff
 70
21
177
3
291
1
 70
58
 90
2
176
0
 90
2
176
0
 90
0
176
0
 90
0
176
0
 40
0.6
176
0
 40
30.0
176
0
 62
7
420
16777215
176
0
 90
1
176
0
 90
4
176
0
 62
7
176
0
 62
257
176
0
 90
1
176
0
 90
1
176
0
 40
1.0
176
0
 90
9
176
2
 62
7
176
0
 40
1.0
176
0
 90
1
176
0
 90
6
176
0
 90
2
176
0
 62
7
176
0
 90
5
176
0
 90
0
176
0
 90
0
176
0
290
0
176
0
 90
1
176
0
 40
0.0
176
0
 90
0
176
0
290
0
176
1
290
1
176
1
290
1
176
1
290
0
176
1
290
0
176
1
290
0
176
1
290
0
176
1
290
0
176
1
290
0
176
1
 90
50
176
1
 40
0.0
176
1
 40
1.0
176
1
 90
0
176
1
 62
18
420
0
176
1
 90
50
176
1
 90
3
176
1
 62
5
420
255
176
1
290
0
176
1
 90
50
176
1
 90
50
176
1
 90
50
176
1
290
0
176
1
 90
50
176
1
 62
256
176
0
 40
1.0
176
0
 90
2
176
1
  1
strokes_ogs.tif
176
1
290
0
176
1
 40
1.0
176
1
 40
1.0
176
1
  0
VISUALSTYLE
  5
88DB2
102
{ACAD_REACTORS
330
88D93
102
}
330
88D93
100
AcDbVisualStyle
  2
Realistic
 70
8
177
3
291
0
 70
58
 90
2
176
1
 90
2
176
1
 90
0
176
1
 90
0
176
1
 40
0.6
176
1
 40
30.0
176
1
 62
7
420
16777215
176
1
 90
1
176
1
 90
0
176
1
 62
7
176
1
 62
257
176
1
 90
1
176
1
 90
1
176
1
 40
1.0
176
1
 90
8
176
1
 62
8
420
7895160
176
1
 40
1.0
176
1
 90
1
176
1
 90
6
176
1
 90
2
176
1
 62
7
176
1
 90
5
176
1
 90
0
176
1
 90
0
176
1
290
0
176
1
 90
13
176
1
 40
0.0
176
1
 90
0
176
1
290
0
176
1
290
1
176
1
290
1
176
1
290
0
176
1
290
0
176
1
290
0
176
1
290
0
176
1
290
0
176
1
290
0
176
1
 90
50
176
1
 40
0.0
176
1
 40
1.0
176
1
 90
0
176
1
 62
18
420
0
176
1
 90
50
176
1
 90
3
176
1
 62
5
420
255
176
1
290
0
176
1
 90
50
176
1
 90
50
176
1
 90
50
176
1
290
0
176
1
 90
50
176
1
 62
256
176
0
 40
1.0
176
0
 90
2
176
1
  1
strokes_ogs.tif
176
1
290
0
176
1
 40
1.0
176
1
 40
1.0
176
1
  0
VISUALSTYLE
  5
904D5
102
{ACAD_REACTORS
330
88D93
102
}
330
88D93
100
AcDbVisualStyle
  2
Shaded
 70
27
177
3
291
0
 70
58
 90
2
176
1
 90
2
176
1
 90
1
176
1
 90
2
176
1
 40
0.6
176
1
 40
30.0
176
1
 62
7
420
16777215
176
1
 90
0
176
1
 90
4
176
1
 62
7
176
1
 62
257
176
1
 90
1
176
1
 90
1
176
1
 40
1.0
176
1
 90
8
176
1
 62
257
176
1
 40
1.0
176
1
 90
1
176
1
 90
6
176
1
 90
2
176
1
 62
8
420
7895160
176
1
 90
3
176
1
 90
0
176
1
 90
0
176
1
290
0
176
1
 90
5
176
1
 40
0.0
176
1
 90
0
176
1
290
0
176
1
290
1
176
1
290
1
176
1
290
0
176
1
290
0
176
1
290
0
176
1
290
0
176
1
290
0
176
1
290
0
176
1
 90
50
176
1
 40
0.0
176
1
 40
1.0
176
1
 90
0
176
1
 62
18
420
0
176
1
 90
50
176
1
 90
3
176
1
 62
5
420
255
176
1
290
0
176
1
 90
50
176
1
 90
50
176
1
 90
50
176
1
290
0
176
1
 90
50
176
1
 62
256
176
0
 40
1.0
176
0
 90
2
176
1
  1
strokes_ogs.tif
176
1
290
0
176
1
 40
1.0
176
1
 40
1.0
176
1
  0
VISUALSTYLE
  5
904D4
102
{ACAD_REACTORS
330
88D93
102
}
330
88D93
100
AcDbVisualStyle
  2
Shaded with edges
 70
26
177
3
291
0
 70
58
 90
2
176
1
 90
2
176
1
 90
1
176
1
 90
2
176
1
 40
0.6
176
1
 40
30.0
176
1
 62
7
420
16777215
176
1
 90
1
176
1
 90
2
176
1
 62
7
176
1
 62
257
176
1
 90
2
176
1
 90
1
176
1
 40
1.0
176
1
 90
8
176
1
 62
257
176
1
 40
1.0
176
1
 90
1
176
1
 90
6
176
1
 90
2
176
1
 62
7
176
1
 90
3
176
1
 90
0
176
1
 90
0
176
1
290
0
176
1
 90
5
176
1
 40
0.0
176
1
 90
0
176
1
290
0
176
1
290
1
176
1
290
1
176
1
290
0
176
1
290
0
176
1
290
0
176
1
290
0
176
1
290
0
176
1
290
0
176
1
 90
50
176
1
 40
0.0
176
1
 40
1.0
176
1
 90
0
176
1
 62
18
420
0
176
1
 90
50
176
1
 90
3
176
1
 62
5
420
255
176
1
290
0
176
1
 90
50
176
1
 90
50
176
1
 90
50
176
1
290
0
176
1
 90
50
176
1
 62
256
176
0
 40
1.0
176
0
 90
2
176
1
  1
strokes_ogs.tif
176
1
290
0
176
1
 40
1.0
176
1
 40
1.0
176
1
  0
VISUALSTYLE
  5
904D1
102
{ACAD_REACTORS
330
88D93
102
}
330
88D93
100
AcDbVisualStyle
  2
Shades of Gray
 70
23
177
3
291
0
 70
58
 90
2
176
1
 90
2
176
1
 90
3
176
1
 90
0
176
1
 40
0.6
176
1
 40
30.0
176
1
 62
7
420
16777215
176
1
 90
2
176
1
 90
2
176
1
 62
7
176
1
 62
7
176
1
 90
1
176
1
 90
1
176
1
 40
40.0
176
1
 90
8
176
1
 62
7
176
1
 40
1.0
176
1
 90
1
176
1
 90
6
176
1
 90
2
176
1
 62
7
176
1
 90
3
176
1
 90
0
176
1
 90
0
176
1
290
0
176
1
 90
1
176
1
 40
0.0
176
1
 90
0
176
1
290
0
176
1
290
1
176
1
290
1
176
1
290
0
176
1
290
0
176
1
290
0
176
1
290
0
176
1
290
0
176
1
290
0
176
1
 90
50
176
1
 40
0.0
176
1
 40
1.0
176
1
 90
0
176
1
 62
18
420
0
176
1
 90
50
176
1
 90
3
176
1
 62
5
420
255
176
1
290
0
176
1
 90
50
176
1
 90
50
176
1
 90
50
176
1
290
0
176
1
 90
50
176
1
 62
256
176
0
 40
1.0
176
0
 90
2
176
1
  1
strokes_ogs.tif
176
1
290
0
176
1
 40
1.0
176
1
 40
1.0
176
1
  0
VISUALSTYLE
  5
904D2
102
{ACAD_REACTORS
330
88D93
102
}
330
88D93
100
AcDbVisualStyle
  2
Sketchy
 70
24
177
3
291
0
 70
58
 90
1
176
1
 90
2
176
1
 90
2
176
1
 90
0
176
1
 40
0.6
176
1
 40
30.0
176
1
 62
7
420
16777215
176
1
 90
2
176
1
 90
2
176
1
 62
7
176
1
 62
7
176
1
 90
1
176
1
 90
1
176
1
 40
40.0
176
1
 90
11
176
1
 62
7
176
1
 40
1.0
176
1
 90
1
176
1
 90
6
176
1
 90
2
176
1
 62
7
176
1
 90
6
176
1
 90
0
176
1
 90
0
176
1
290
0
176
1
 90
1
176
1
 40
0.0
176
1
 90
0
176
1
290
0
176
1
290
1
176
1
290
1
176
1
290
0
176
1
290
0
176
1
290
0
176
1
290
0
176
1
290
0
176
1
290
0
176
1
 90
50
176
1
 40
0.0
176
1
 40
1.0
176
1
 90
0
176
1
 62
18
420
0
176
1
 90
50
176
1
 90
3
176
1
 62
5
420
255
176
1
290
0
176
1
 90
50
176
1
 90
50
176
1
 90
50
176
1
290
0
176
1
 90
50
176
1
 62
256
176
0
 40
1.0
176
0
 90
2
176
1
  1
strokes_ogs.tif
176
1
290
0
176
1
 40
1.0
176
1
 40
1.0
176
1
  0
VISUALSTYLE
  5
8AD28
102
{ACAD_REACTORS
330
88D93
102
}
330
88D93
100
AcDbVisualStyle
  2
Thicken
 70
13
177
3
291
1
 70
58
 90
2
176
1
 90
2
176
1
 90
0
176
1
 90
0
176
1
 40
0.6
176
1
 40
30.0
176
1
 62
7
420
16777215
176
1
 90
1
176
1
 90
4
176
1
 62
7
176
1
 62
257
176
1
 90
1
176
1
 90
1
176
1
 40
1.0
176
1
 90
12
176
1
 62
7
176
1
 40
1.0
176
1
 90
1
176
1
 90
6
176
1
 90
2
176
1
 62
7
176
1
 90
5
176
1
 90
0
176
1
 90
0
176
1
290
0
176
1
 90
1
176
1
 40
0.0
176
1
 90
0
176
1
290
0
176
1
290
1
176
1
290
1
176
1
290
0
176
1
290
0
176
1
290
0
176
1
290
0
176
1
290
0
176
1
290
0
176
1
 90
50
176
1
 40
0.0
176
1
 40
1.0
176
1
 90
0
176
1
 62
18
420
0
176
1
 90
50
176
1
 90
3
176
1
 62
5
420
255
176
1
290
0
176
1
 90
50
176
1
 90
50
176
1
 90
50
176
1
290
0
176
1
 90
50
176
1
 62
256
176
0
 40
1.0
176
0
 90
2
176
1
  1
strokes_ogs.tif
176
1
290
0
176
1
 40
1.0
176
1
 40
1.0
176
1
  0
VISUALSTYLE
  5
904CF
102
{ACAD_REACTORS
330
88D93
102
}
330
88D93
100
AcDbVisualStyle
  2
Wireframe
 70
5
177
3
291
0
 70
58
 90
0
176
1
 90
2
176
1
 90
0
176
1
 90
0
176
1
 40
0.6
176
1
 40
30.0
176
1
 62
7
420
16777215
176
1
 90
1
176
1
 90
4
176
1
 62
7
176
1
 62
257
176
1
 90
1
176
1
 90
1
176
1
 40
1.0
176
1
 90
0
176
1
 62
257
176
1
 40
1.0
176
1
 90
1
176
1
 90
6
176
1
 90
2
176
1
 62
7
176
1
 90
3
176
1
 90
0
176
1
 90
0
176
1
290
0
176
1
 90
1
176
1
 40
0.0
176
1
 90
0
176
1
290
0
176
1
290
1
176
1
290
1
176
1
290
0
176
1
290
0
176
1
290
0
176
1
290
0
176
1
290
0
176
1
290
0
176
1
 90
50
176
1
 40
0.0
176
1
 40
1.0
176
1
 90
0
176
1
 62
18
420
0
176
1
 90
50
176
1
 90
3
176
1
 62
5
420
255
176
1
290
0
176
1
 90
50
176
1
 90
50
176
1
 90
50
176
1
290
0
176
1
 90
50
176
1
 62
256
176
0
 40
1.0
176
0
 90
2
176
1
  1
strokes_ogs.tif
176
1
290
0
176
1
 40
1.0
176
1
 40
1.0
176
1
  0
VISUALSTYLE
  5
904D3
102
{ACAD_REACTORS
330
88D93
102
}
330
88D93
100
AcDbVisualStyle
  2
X-Ray
 70
25
177
3
291
0
 70
58
 90
2
176
1
 90
2
176
1
 90
1
176
1
 90
1
176
1
 40
0.5
176
1
 40
30.0
176
1
 62
7
420
16777215
176
1
 90
1
176
1
 90
0
176
1
 62
7
176
1
 62
257
176
1
 90
1
176
1
 90
1
176
1
 40
1.0
176
1
 90
8
176
1
 62
7
176
1
 40
1.0
176
1
 90
1
176
1
 90
6
176
1
 90
2
176
1
 62
7
176
1
 90
3
176
1
 90
0
176
1
 90
0
176
1
290
0
176
1
 90
13
176
1
 40
0.0
176
1
 90
0
176
1
290
0
176
1
290
1
176
1
290
1
176
1
290
0
176
1
290
0
176
1
290
0
176
1
290
0
176
1
290
0
176
1
290
0
176
1
 90
50
176
1
 40
0.0
176
1
 40
1.0
176
1
 90
0
176
1
 62
18
420
0
176
1
 90
50
176
1
 90
3
176
1
 62
5
420
255
176
1
290
0
176
1
 90
50
176
1
 90
50
176
1
 90
50
176
1
290
0
176
1
 90
50
176
1
 62
256
176
0
 40
1.0
176
0
 90
2
176
1
  1
strokes_ogs.tif
176
1
290
0
176
1
 40
1.0
176
1
 40
1.0
176
1
  0
DICTIONARYVAR
  5
8AD1A
102
{ACAD_REACTORS
330
8AD16
102
}
330
8AD16
100
DictionaryVariables
280
0
  1
1:1
  0
DICTIONARYVAR
  5
8AD18
102
{ACAD_REACTORS
330
8AD16
102
}
330
8AD16
100
DictionaryVariables
280
0
  1
STANDARD
  0
DICTIONARYVAR
  5
8AD17
102
{ACAD_REACTORS
330
8AD16
102
}
330
8AD16
100
DictionaryVariables
280
0
  1
STANDARD
  0
DICTIONARYVAR
  5
90795
102
{ACAD_REACTORS
330
8AD16
102
}
330
8AD16
100
DictionaryVariables
280
0
  1
Imperial24
  0
DICTIONARYVAR
  5
90796
102
{ACAD_REACTORS
330
8AD16
102
}
330
8AD16
100
DictionaryVariables
280
0
  1
Imperial24
  0
DICTIONARYVAR
  5
8AD1C
102
{ACAD_REACTORS
330
8AD16
102
}
330
8AD16
100
DictionaryVariables
280
0
  1
1
  0
DICTIONARYVAR
  5
8AD1D
102
{ACAD_REACTORS
330
8AD16
102
}
330
8AD16
100
DictionaryVariables
280
0
  1
15
  0
DICTIONARYVAR
  5
8AD1B
102
{ACAD_REACTORS
330
8AD16
102
}
330
8AD16
100
DictionaryVariables
280
0
  1
0
  0
DICTIONARYVAR
  5
8AD19
102
{ACAD_REACTORS
330
8AD16
102
}
330
8AD16
100
DictionaryVariables
280
0
  1
0
  0
DICTIONARY
  5
88D82
330
88D81
100
AcDbDictionary
280
1
281
1
  0
DICTIONARY
  5
88DA5
330
88DA4
100
AcDbDictionary
280
1
281
1
  3
BUMPTILE
360
88DA6
  3
DIFFUSETILE
360
88DA7
  3
OPACITYTILE
360
88DA8
  3
REFLECTIONTILE
360
88DA9
  3
REFRACTIONTILE
360
88DAA
  3
SPECULARTILE
360
88DAB
  0
DICTIONARY
  5
88D9D
330
88D9C
100
AcDbDictionary
280
1
281
1
  3
BUMPTILE
360
88D9E
  3
DIFFUSETILE
360
88D9F
  3
OPACITYTILE
360
88DA0
  3
REFLECTIONTILE
360
88DA1
  3
REFRACTIONTILE
360
88DA2
  3
SPECULARTILE
360
88DA3
  0
DICTIONARY
  5
88D73
330
88D71
100
AcDbDictionary
280
1
281
1
  3
BUMPTILE
360
88D74
  3
DIFFUSETILE
360
88D75
  3
OPACITYTILE
360
88D76
  3
REFLECTIONTILE
360
88D77
  3
REFRACTIONTILE
360
88D78
  3
SPECULARTILE
360
88D79
  0
DICTIONARY
  5
8AD0D
330
88DB1
100
AcDbDictionary
280
1
281
1
  3
ACAD_ROUNDTRIP_2008_TABLESTYLE_CELLSTYLEMAP
360
90797
  0
XRECORD
  5
88DA6
102
{ACAD_REACTORS
330
88DA5
102
}
330
88DA5
100
AcDbXrecord
280
1
270
1
271
1
  0
XRECORD
  5
88DA7
102
{ACAD_REACTORS
330
88DA5
102
}
330
88DA5
100
AcDbXrecord
280
1
270
1
271
1
  0
XRECORD
  5
88DA8
102
{ACAD_REACTORS
330
88DA5
102
}
330
88DA5
100
AcDbXrecord
280
1
270
1
271
1
  0
XRECORD
  5
88DA9
102
{ACAD_REACTORS
330
88DA5
102
}
330
88DA5
100
AcDbXrecord
280
1
270
1
271
1
  0
XRECORD
  5
88DAA
102
{ACAD_REACTORS
330
88DA5
102
}
330
88DA5
100
AcDbXrecord
280
1
270
1
271
1
  0
XRECORD
  5
88DAB
102
{ACAD_REACTORS
330
88DA5
102
}
330
88DA5
100
AcDbXrecord
280
1
270
1
271
1
  0
XRECORD
  5
88D9E
102
{ACAD_REACTORS
330
88D9D
102
}
330
88D9D
100
AcDbXrecord
280
1
270
1
271
1
  0
XRECORD
  5
88D9F
102
{ACAD_REACTORS
330
88D9D
102
}
330
88D9D
100
AcDbXrecord
280
1
270
1
271
1
  0
XRECORD
  5
88DA0
102
{ACAD_REACTORS
330
88D9D
102
}
330
88D9D
100
AcDbXrecord
280
1
270
1
271
1
  0
XRECORD
  5
88DA1
102
{ACAD_REACTORS
330
88D9D
102
}
330
88D9D
100
AcDbXrecord
280
1
270
1
271
1
  0
XRECORD
  5
88DA2
102
{ACAD_REACTORS
330
88D9D
102
}
330
88D9D
100
AcDbXrecord
280
1
270
1
271
1
  0
XRECORD
  5
88DA3
102
{ACAD_REACTORS
330
88D9D
102
}
330
88D9D
100
AcDbXrecord
280
1
270
1
271
1
  0
XRECORD
  5
88D74
102
{ACAD_REACTORS
330
88D73
102
}
330
88D73
100
AcDbXrecord
280
1
270
1
271
1
  0
XRECORD
  5
88D75
102
{ACAD_REACTORS
330
88D73
102
}
330
88D73
100
AcDbXrecord
280
1
270
1
271
1
  0
XRECORD
  5
88D76
102
{ACAD_REACTORS
330
88D73
102
}
330
88D73
100
AcDbXrecord
280
1
270
1
271
1
  0
XRECORD
  5
88D77
102
{ACAD_REACTORS
330
88D73
102
}
330
88D73
100
AcDbXrecord
280
1
270
1
271
1
  0
XRECORD
  5
88D78
102
{ACAD_REACTORS
330
88D73
102
}
330
88D73
100
AcDbXrecord
280
1
270
1
271
1
  0
XRECORD
  5
88D79
102
{ACAD_REACTORS
330
88D73
102
}
330
88D73
100
AcDbXrecord
280
1
270
1
271
1
  0
CELLSTYLEMAP
  5
90797
102
{ACAD_REACTORS
330
8AD0D
102
}
330
8AD0D
100
AcDbCellStyleMap
 90
3
300
CELLSTYLE
  1
TABLEFORMAT_BEGIN
 90
5
170
1
 91
0
 92
32768
 62
257
 93
1
300
CONTENTFORMAT
  1
CONTENTFORMAT_BEGIN
 90
0
 91
0
 92
4
 93
0
300

 40
0.0
140
1.0
 94
5
 62
0
340
88D89
144
0.25
309
CONTENTFORMAT_END
171
0
 94
6
 95
1
302
GRIDFORMAT
  1
GRIDFORMAT_BEGIN
 90
0
 91
1
 62
0
 92
-2
340
0
 93
0
 40
0.045
309
GRIDFORMAT_END
 95
2
302
GRIDFORMAT
  1
GRIDFORMAT_BEGIN
 90
0
 91
1
 62
0
 92
-2
340
0
 93
0
 40
0.045
309
GRIDFORMAT_END
 95
4
302
GRIDFORMAT
  1
GRIDFORMAT_BEGIN
 90
0
 91
1
 62
0
 92
-2
340
0
 93
0
 40
0.045
309
GRIDFORMAT_END
 95
8
302
GRIDFORMAT
  1
GRIDFORMAT_BEGIN
 90
0
 91
1
 62
0
 92
-2
340
0
 93
0
 40
0.045
309
GRIDFORMAT_END
 95
16
302
GRIDFORMAT
  1
GRIDFORMAT_BEGIN
 90
0
 91
1
 62
0
 92
-2
340
0
 93
0
 40
0.045
309
GRIDFORMAT_END
 95
32
302
GRIDFORMAT
  1
GRIDFORMAT_BEGIN
 90
0
 91
1
 62
0
 92
-2
340
0
 93
0
 40
0.045
309
GRIDFORMAT_END
309
TABLEFORMAT_END
  1
CELLSTYLE_BEGIN
 90
1
 91
1
300
_TITLE
309
CELLSTYLE_END
300
CELLSTYLE
  1
TABLEFORMAT_BEGIN
 90
5
170
1
 91
0
 92
0
 62
257
 93
1
300
CONTENTFORMAT
  1
CONTENTFORMAT_BEGIN
 90
0
 91
0
 92
4
 93
0
300

 40
0.0
140
1.0
 94
5
 62
0
340
88D89
144
0.18
309
CONTENTFORMAT_END
171
0
 94
6
 95
1
302
GRIDFORMAT
  1
GRIDFORMAT_BEGIN
 90
0
 91
1
 62
0
 92
-2
340
0
 93
0
 40
0.045
309
GRIDFORMAT_END
 95
2
302
GRIDFORMAT
  1
GRIDFORMAT_BEGIN
 90
0
 91
1
 62
0
 92
-2
340
0
 93
0
 40
0.045
309
GRIDFORMAT_END
 95
4
302
GRIDFORMAT
  1
GRIDFORMAT_BEGIN
 90
0
 91
1
 62
0
 92
-2
340
0
 93
0
 40
0.045
309
GRIDFORMAT_END
 95
8
302
GRIDFORMAT
  1
GRIDFORMAT_BEGIN
 90
0
 91
1
 62
0
 92
-2
340
0
 93
0
 40
0.045
309
GRIDFORMAT_END
 95
16
302
GRIDFORMAT
  1
GRIDFORMAT_BEGIN
 90
0
 91
1
 62
0
 92
-2
340
0
 93
0
 40
0.045
309
GRIDFORMAT_END
 95
32
302
GRIDFORMAT
  1
GRIDFORMAT_BEGIN
 90
0
 91
1
 62
0
 92
-2
340
0
 93
0
 40
0.045
309
GRIDFORMAT_END
309
TABLEFORMAT_END
  1
CELLSTYLE_BEGIN
 90
2
 91
1
300
_HEADER
309
CELLSTYLE_END
300
CELLSTYLE
  1
TABLEFORMAT_BEGIN
 90
5
170
1
 91
0
 92
0
 62
257
 93
1
300
CONTENTFORMAT
  1
CONTENTFORMAT_BEGIN
 90
0
 91
0
 92
4
 93
0
300

 40
0.0
140
1.0
 94
2
 62
0
340
88D89
144
0.18
309
CONTENTFORMAT_END
171
0
 94
6
 95
1
302
GRIDFORMAT
  1
GRIDFORMAT_BEGIN
 90
0
 91
1
 62
0
 92
-2
340
0
 93
0
 40
0.045
309
GRIDFORMAT_END
 95
2
302
GRIDFORMAT
  1
GRIDFORMAT_BEGIN
 90
0
 91
1
 62
0
 92
-2
340
0
 93
0
 40
0.045
309
GRIDFORMAT_END
 95
4
302
GRIDFORMAT
  1
GRIDFORMAT_BEGIN
 90
0
 91
1
 62
0
 92
-2
340
0
 93
0
 40
0.045
309
GRIDFORMAT_END
 95
8
302
GRIDFORMAT
  1
GRIDFORMAT_BEGIN
 90
0
 91
1
 62
0
 92
-2
340
0
 93
0
 40
0.045
309
GRIDFORMAT_END
 95
16
302
GRIDFORMAT
  1
GRIDFORMAT_BEGIN
 90
0
 91
1
 62
0
 92
-2
340
0
 93
0
 40
0.045
309
GRIDFORMAT_END
 95
32
302
GRIDFORMAT
  1
GRIDFORMAT_BEGIN
 90
0
 91
1
 62
0
 92
-2
340
0
 93
0
 40
0.045
309
GRIDFORMAT_END
309
TABLEFORMAT_END
  1
CELLSTYLE_BEGIN
 90
3
 91
2
300
_DATA
309
CELLSTYLE_END
  0
DICTIONARY
  5
9079B
330
88D70
100
AcDbDictionary
280
1
281
1
  3
WRITTEN_BY_EZDXF
350
9079C
  0
DICTIONARYVAR
  5
9079C
330
9079B
100
DictionaryVariables
280
0
  1
1.4.3 @ 2026-04-16T08:34:08.345626+00:00
  0
ENDSEC
  0
SECTION
  2
ACDSDATA
 70
2
 71
8
  0
ACDSSCHEMA
 90
0
  1
AcDb3DSolid_ASM_Data
  2
AcDbDs::ID
280
10
 91
8
  2
ASM_Data
280
15
 91
0
101
ACDSRECORD
 95
0
 90
2
  2
AcDbDs::TreatedAsObjectData
280
1
291
1
101
ACDSRECORD
 95
0
 90
3
  2
AcDbDs::Legacy
280
1
291
1
101
ACDSRECORD
  1
AcDbDs::ID
 90
4
  2
AcDs:Indexable
280
1
291
1
101
ACDSRECORD
  1
AcDbDs::ID
 90
5
  2
AcDbDs::HandleAttribute
280
7
282
1
  0
ACDSSCHEMA
 90
1
  1
AcDb_Thumbnail_Schema
  2
AcDbDs::ID
280
10
 91
8
  2
Thumbnail_Data
280
15
 91
0
101
ACDSRECORD
 95
1
 90
2
  2
AcDbDs::TreatedAsObjectData
280
1
291
1
101
ACDSRECORD
 95
1
 90
3
  2
AcDbDs::Legacy
280
1
291
1
101
ACDSRECORD
  1
AcDbDs::ID
 90
4
  2
AcDs:Indexable
280
1
291
1
101
ACDSRECORD
  1
AcDbDs::ID
 90
5
  2
AcDbDs::HandleAttribute
280
7
282
1
  0
ACDSSCHEMA
 90
2
  1
AcDbDs::TreatedAsObjectDataSchema
  2
AcDbDs::TreatedAsObjectData
280
1
 91
0
  0
ACDSSCHEMA
 90
3
  1
AcDbDs::LegacySchema
  2
AcDbDs::Legacy
280
1
 91
0
  0
ACDSSCHEMA
 90
4
  1
AcDbDs::IndexedPropertySchema
  2
AcDs:Indexable
280
1
 91
0
  0
ACDSSCHEMA
 90
5
  1
AcDbDs::HandleAttributeSchema
  2
AcDbDs::HandleAttribute
280
7
 91
1
284
1
  0
ACDSRECORD
 90
1
  2
AcDbDs::ID
280
10
320
88D81
  2
Thumbnail_Data
280
15
 94
1048
310
89504E470D0A1A0A0000000D49484452000000B40000008B0803000000FF3F437800000300504C5445FFFFFF000000FFFFFF0000000000000000000000000000000000000000000000000000330000660000990000CC0000FF0033000033330033660033990033CC0033FF0066000066330066660066990066CC0066FF0099
310
000099330099660099990099CC0099FF00CC0000CC3300CC6600CC9900CCCC00CCFF00FF0000FF3300FF6600FF9900FFCC00FFFF3300003300333300663300993300CC3300FF3333003333333333663333993333CC3333FF3366003366333366663366993366CC3366FF3399003399333399663399993399CC3399FF33CC00
310
33CC3333CC6633CC9933CCCC33CCFF33FF0033FF3333FF6633FF9933FFCC33FFFF6600006600336600666600996600CC6600FF6633006633336633666633996633CC6633FF6666006666336666666666996666CC6666FF6699006699336699666699996699CC6699FF66CC0066CC3366CC6666CC9966CCCC66CCFF66FF0066
310
FF3366FF6666FF9966FFCC66FFFF9900009900339900669900999900CC9900FF9933009933339933669933999933CC9933FF9966009966339966669966999966CC9966FF9999009999339999669999999999CC9999FF99CC0099CC3399CC6699CC9999CCCC99CCFF99FF0099FF3399FF6699FF9999FFCC99FFFFCC0000CC00
310
33CC0066CC0099CC00CCCC00FFCC3300CC3333CC3366CC3399CC33CCCC33FFCC6600CC6633CC6666CC6699CC66CCCC66FFCC9900CC9933CC9966CC9999CC99CCCC99FFCCCC00CCCC33CCCC66CCCC99CCCCCCCCCCFFCCFF00CCFF33CCFF66CCFF99CCFFCCCCFFFFFF0000FF0033FF0066FF0099FF00CCFF00FFFF3300FF3333
310
FF3366FF3399FF33CCFF33FFFF6600FF6633FF6666FF6699FF66CCFF66FFFF9900FF9933FF9966FF9999FF99CCFF99FFFFCC00FFCC33FFCC66FFCC99FFCCCCFFCCFFFFFF00FFFF33FFFF66FFFF99FFFFCCFFFFFF0000000D0D0D1A1A1A2828283535354343435050505D5D5D6B6B6B787878868686939393A1A1A1AEAEAEBB
310
BBBBC9C9C9D6D6D6E4E4E4F1F1F1FFFFFF000000000000000000000000000000000000000000000000000000000000790CAC0F000000D34944415478DAEDDD310A80300C0550EF7FCC5CC0C95D10041DA4568B34F665CCE2434ABF59E214E96A9EA7255B417F868E0DBD1F9643FF5CA5FEF2B27FFF0107749EB70C0D0D0D3D
310
243A65224243D7A0BBF9DEAF4277745940433F40471A744043434343434343434343B7401BB7A0A1A1A1A19BA3C538343434343434343434F46068E316343434347473B418878686868686868686861E0C6DDC82868686866E8E16E3D0D0D0D0D0D0D0D0D0D083A18D5BD0FF4767DCC3D475414397D1D62942434343778ECE
310
B8E95B8C435FA123E12F1956FC241BF103F904980000000049454E44AE426082
  0
ACDSRECORD
 90
1
  2
AcDbDs::ID
280
10
320
88D7C
  2
Thumbnail_Data
280
15
 94
1949
310
89504E470D0A1A0A0000000D4948445200000100000000990803000000F7B2146B00000300504C5445FFFFFFFFFFFFFFFFFF0000000000000000000000000000000000000000000000000000330000660000990000CC0000FF0033000033330033660033990033CC0033FF0066000066330066660066990066CC0066FF0099
310
000099330099660099990099CC0099FF00CC0000CC3300CC6600CC9900CCCC00CCFF00FF0000FF3300FF6600FF9900FFCC00FFFF3300003300333300663300993300CC3300FF3333003333333333663333993333CC3333FF3366003366333366663366993366CC3366FF3399003399333399663399993399CC3399FF33CC00
310
33CC3333CC6633CC9933CCCC33CCFF33FF0033FF3333FF6633FF9933FFCC33FFFF6600006600336600666600996600CC6600FF6633006633336633666633996633CC6633FF6666006666336666666666996666CC6666FF6699006699336699666699996699CC6699FF66CC0066CC3366CC6666CC9966CCCC66CCFF66FF0066
310
FF3366FF6666FF9966FFCC66FFFF9900009900339900669900999900CC9900FF9933009933339933669933999933CC9933FF9966009966339966669966999966CC9966FF9999009999339999669999999999CC9999FF99CC0099CC3399CC6699CC9999CCCC99CCFF99FF0099FF3399FF6699FF9999FFCC99FFFFCC0000CC00
310
33CC0066CC0099CC00CCCC00FFCC3300CC3333CC3366CC3399CC33CCCC33FFCC6600CC6633CC6666CC6699CC66CCCC66FFCC9900CC9933CC9966CC9999CC99CCCC99FFCCCC00CCCC33CCCC66CCCC99CCCCCCCCCCFFCCFF00CCFF33CCFF66CCFF99CCFFCCCCFFFFFF0000FF0033FF0066FF0099FF00CCFF00FFFF3300FF3333
310
FF3366FF3399FF33CCFF33FFFF6600FF6633FF6666FF6699FF66CCFF66FFFF9900FF9933FF9966FF9999FF99CCFF99FFFFCC00FFCC33FFCC66FFCC99FFCCCCFFCCFFFFFF00FFFF33FFFF66FFFF99FFFFCCFFFFFF0000000D0D0D1A1A1A2828283535354343435050505D5D5D6B6B6B787878868686939393A1A1A1AEAEAEBB
310
BBBBC9C9C9D6D6D6E4E4E4F1F1F1FFFFFF000000000000000000000000000000000000000000000000000000000000AD4AB4E40000013D4944415478DAEDDA4BAE83300C05D08CBBFF157A25AF1205121A82DEA8927DCE84B674E2ABE07C446B000000000000000000000000C08FC45BF9002269599FD2F60AEF2E1913886F
310
E38FD7BF14086025F113F0E8953D80E3CBAA07E46DED6391B1DF2C32093C0590BE075C03D82B2D124057EB7C0444E100F24F83678FAF3B02BADA2E85BEAFC7ECD86A06D02D0F6A4E834596C26300379BA00201C46A67D0920E81F87ECE6BED07CFA2623D021207B07FBAF480E92949DE95E0A7F32F4B2C30026E87406B99A7
310
C1E923309F04F2CE024F016C27620E45CB0690BB079C2702C3BAF8D8136CABC46DA550208098047074C2AA01941F01ED582C674CE0DA0E6B051002E8E7B6A20184006E02882A018CA7C28B374572BF1F3006D0BD3233DEB4191240F21ED06AF5807FC6D500000000000000000000000000000066FE0049A43D4BDFA9DAA100
310
00000049454E44AE426082F4DE197DE682918F0B7C643CAE087E4700EF2EC00D17F08920776001BA0856A17FD7BBFF44940450F8B940FEBFC5B61502B20B2B5D8086B300522D4010509634C26A80D07826AD7B55C33861D0D280831D4D899B71305218946376A6166C5E5D44113C590A6DCF862C111411B7A39AE0A2787C8E
310
09CA8C21704144143CB43D8CDA857356168E5A122393006B1D83EA974ACAA57A0B22BD10C0990B90D565AB8F49794EB082C81AD1A8BDCA6BFC2F91EA021CC802B6892EB72CC082EA028145909CFB3DB647191AC02D39E9A5285A64C26C866EAD9DCA3038C0CA109B61509D20EC0F3612210EB536D8CC03EC7C8EFF5889501C
310
171004F03902E26782DEE32CEAE593AD019D59803167156DFB45C9C0504D1D599489BB17C1F5E79080320CDA0488BAE1D70591A734C043C05ADA2AF7C5D4AB085AE5B89909F65010715A4056E6AC5686B412B14D40772EA00D41AA09607212B06986C302A2B84051F8F510B0D6030613C1D3041C5940178990498022DD9710
310
10C40288AD5E172B432C1C9FAA9D33DDAF0B9C2660AB91C88C87D9950875E7027A14284A628286A252A259C0DA1C5704B782085315E2BD1A601110220CA672A02F25208C0558B59C9F2DC0313F7B3D0CA63A11A2F218509EFC53B5897E79FC3816D0C804D9383A6011F05517FB7001BAC4057A23801B04C8D92A3B0FCB6DCD
310
29C0C9516ECC06B542AF522C26B339053839EAB3809FCECDF1EC04C002D6175D118100711C36EBFD7201CB6630BDB9D822D3101ED72787BD42C00D2B0FB15C0004CC44C0ED1FD9D7792ABCECF106012000048000100002AE8FAF206076027EFFB4E42708B821138C4400CD2E82F48E0B74F3C9D2376980F24BAEC322E38BE0
310
C959EA9C16300001D00068C045DF17010B18D502BC79625C02C83854834CB0B728702701B447F3ADF5E859CB0621A6E7F280676783679F155904E5A1A4A328C0D5ED6479008B90199E0058C0C47301B16BCA1905E6C8045BBB42072340D7802601955E8E1A05F4F9C1501620B4DC1F059E27A0F3EF9B9CEF1B27EB8F95BAFB
310
AD7AB70100000000000000000000000000000000981D7F010B41A53A5A46037D0000000049454E44AE426082
  0
ENDSEC
  0
EOF
