  0
SECTION
  2
HEADER
  9
$ACADVER
  1
AC1032
  9
$ACADMAINTVER
 90
      378
  9
$DWGCODEPAGE
  3
ANSI_1251
  9
$AUTHOR
  1
Лена
  9
$LASTSAVEDBY
  1
Xhaver
  9
$REQUIREDVERSIONS
160
                 0
  9
$INSBASE
 10
0.0
 20
0.0
 30
0.0
  9
$EXTMIN
 10
14856.88682379358
 20
5622.683166442887
 30
-0.0000000116415251
  9
$EXTMAX
 10
14877.88682370439
 20
5652.383166905421
 30
-0.0000000116415251
  9
$LIMMIN
 10
13962.43660556468
 20
4774.21935556468
  9
$LIMMAX
 10
15647.99009443532
 20
6459.77284443532
  9
$ORTHOMODE
 70
     0
  9
$REGENMODE
 70
     1
  9
$FILLMODE
 70
     1
  9
$QTEXTMODE
 70
     0
  9
$MIRRTEXT
 70
     0
  9
$LTSCALE
 40
1.0
  9
$ATTMODE
 70
     1
  9
$TEXTSIZE
 40
1.0
  9
$TRACEWID
 40
0.05
  9
$TEXTSTYLE
  7
Standard
  9
$CLAYER
  8
0
  9
$CELTYPE
  6
Continuous
  9
$CECOLOR
 62
     7
  9
$CELTSCALE
 40
1.0
  9
$DISPSILH
 70
     0
  9
$DIMSCALE
 40
1.0
  9
$DIMASZ
 40
0.1
  9
$DIMEXO
 40
0.1
  9
$DIMDLI
 40
0.0
  9
$DIMRND
 40
0.0
  9
$DIMDLE
 40
0.0
  9
$DIMEXE
 40
0.1
  9
$DIMTP
 40
0.0
  9
$DIMTM
 40
0.0
  9
$DIMTXT
 40
0.2
  9
$DIMCEN
 40
0.09
  9
$DIMTSZ
 40
0.0
  9
$DIMTOL
 70
     0
  9
$DIMLIM
 70
     0
  9
$DIMTIH
 70
     0
  9
$DIMTOH
 70
     0
  9
$DIMSE1
 70
     0
  9
$DIMSE2
 70
     0
  9
$DIMTAD
 70
     1
  9
$DIMZIN
 70
    11
  9
$DIMBLK
  1
Oblique
  9
$DIMASO
 70
     1
  9
$DIMSHO
 70
     1
  9
$DIMPOST
  1

  9
$DIMAPOST
  1

  9
$DIMALT
 70
     0
  9
$DIMALTD
 70
     4
  9
$DIMALTF
 40
1.0
  9
$DIMLFAC
 40
1000.0
  9
$DIMTOFL
 70
     0
  9
$DIMTVP
 40
0.0
  9
$DIMTIX
 70
     0
  9
$DIMSOXD
 70
     0
  9
$DIMSAH
 70
     0
  9
$DIMBLK1
  1

  9
$DIMBLK2
  1

  9
$DIMSTYLE
  2
100
  9
$DIMCLRD
 70
     7
  9
$DIMCLRE
 70
     7
  9
$DIMCLRT
 70
     0
  9
$DIMTFAC
 40
1.0
  9
$DIMGAP
 40
0.1
  9
$DIMJUST
 70
     0
  9
$DIMSD1
 70
     0
  9
$DIMSD2
 70
     0
  9
$DIMTOLJ
 70
     0
  9
$DIMTZIN
 70
    11
  9
$DIMALTZ
 70
    15
  9
$DIMALTTZ
 70
    15
  9
$DIMUPT
 70
     0
  9
$DIMDEC
 70
     4
  9
$DIMTDEC
 70
     4
  9
$DIMALTU
 70
     2
  9
$DIMALTTD
 70
     4
  9
$DIMTXSTY
  7
Style-Arial
  9
$DIMAUNIT
 70
     0
  9
$DIMADEC
 70
     0
  9
$DIMALTRND
 40
0.0
  9
$DIMAZIN
 70
     3
  9
$DIMDSEP
 70
    46
  9
$DIMATFIT
 70
     3
  9
$DIMFRAC
 70
     0
  9
$DIMLDRBLK
  1
TerminatorOpen
  9
$DIMLUNIT
 70
     2
  9
$DIMLWD
 70
     0
  9
$DIMLWE
 70
     0
  9
$DIMTMOVE
 70
     0
  9
$DIMFXL
 40
1.0
  9
$DIMFXLON
 70
     0
  9
$DIMJOGANG
 40
0.7853981633974483
  9
$DIMTFILL
 70
     0
  9
$DIMTFILLCLR
 70
     0
  9
$DIMARCSYM
 70
     0
  9
$DIMLTYPE
  6

  9
$DIMLTEX1
  6

  9
$DIMLTEX2
  6

  9
$DIMTXTDIRECTION
 70
     0
  9
$LUNITS
 70
     2
  9
$LUPREC
 70
     4
  9
$SKETCHINC
 40
0.1
  9
$FILLETRAD
 40
0.0
  9
$AUNITS
 70
     0
  9
$AUPREC
 70
     4
  9
$MENU
  1
.
  9
$ELEVATION
 40
0.0
  9
$PELEVATION
 40
0.0
  9
$THICKNESS
 40
0.0
  9
$LIMCHECK
 70
     0
  9
$CHAMFERA
 40
0.0
  9
$CHAMFERB
 40
0.0
  9
$CHAMFERC
 40
0.0
  9
$CHAMFERD
 40
0.0
  9
$SKPOLY
 70
     0
  9
$TDCREATE
 40
2454144.903020833
  9
$TDUCREATE
 40
2454144.778024017
  9
$TDUPDATE
 40
2461147.345081019
  9
$TDUUPDATE
 40
2461147.220081019
  9
$TDINDWG
 40
0.0208306366
  9
$TDUSRTIMER
 40
0.0208304514
  9
$USRTIMER
 70
     1
  9
$ANGBASE
 50
0.0
  9
$ANGDIR
 70
     0
  9
$PDMODE
 70
     0
  9
$PDSIZE
 40
0.0
  9
$PLINEWID
 40
0.0
  9
$SPLFRAME
 70
     0
  9
$SPLINETYPE
 70
     6
  9
$SPLINESEGS
 70
     8
  9
$HANDSEED
  5
760F4
  9
$SURFTAB1
 70
     6
  9
$SURFTAB2
 70
     6
  9
$SURFTYPE
 70
     6
  9
$SURFU
 70
     6
  9
$SURFV
 70
     6
  9
$UCSBASE
  2

  9
$UCSNAME
  2

  9
$UCSORG
 10
0.0
 20
0.0
 30
0.0
  9
$UCSXDIR
 10
1.0
 20
0.0
 30
0.0
  9
$UCSYDIR
 10
0.0
 20
1.0
 30
0.0
  9
$UCSORTHOREF
  2

  9
$UCSORTHOVIEW
 70
     0
  9
$UCSORGTOP
 10
0.0
 20
0.0
 30
0.0
  9
$UCSORGBOTTOM
 10
0.0
 20
0.0
 30
0.0
  9
$UCSORGLEFT
 10
0.0
 20
0.0
 30
0.0
  9
$UCSORGRIGHT
 10
0.0
 20
0.0
 30
0.0
  9
$UCSORGFRONT
 10
0.0
 20
0.0
 30
0.0
  9
$UCSORGBACK
 10
0.0
 20
0.0
 30
0.0
  9
$PUCSBASE
  2

  9
$PUCSNAME
  2

  9
$PUCSORG
 10
0.0
 20
0.0
 30
0.0
  9
$PUCSXDIR
 10
1.0
 20
0.0
 30
0.0
  9
$PUCSYDIR
 10
0.0
 20
1.0
 30
0.0
  9
$PUCSORTHOREF
  2

  9
$PUCSORTHOVIEW
 70
     0
  9
$PUCSORGTOP
 10
0.0
 20
0.0
 30
0.0
  9
$PUCSORGBOTTOM
 10
0.0
 20
0.0
 30
0.0
  9
$PUCSORGLEFT
 10
0.0
 20
0.0
 30
0.0
  9
$PUCSORGRIGHT
 10
0.0
 20
0.0
 30
0.0
  9
$PUCSORGFRONT
 10
0.0
 20
0.0
 30
0.0
  9
$PUCSORGBACK
 10
0.0
 20
0.0
 30
0.0
  9
$USERI1
 70
     0
  9
$USERI2
 70
     0
  9
$USERI3
 70
     0
  9
$USERI4
 70
     0
  9
$USERI5
 70
     0
  9
$USERR1
 40
0.0
  9
$USERR2
 40
0.0
  9
$USERR3
 40
0.0
  9
$USERR4
 40
0.0
  9
$USERR5
 40
0.0
  9
$WORLDVIEW
 70
     1
  9
$SHADEDGE
 70
     3
  9
$SHADEDIF
 70
    70
  9
$TILEMODE
 70
     1
  9
$MAXACTVP
 70
    64
  9
$PINSBASE
 10
0.0
 20
0.0
 30
0.0
  9
$PLIMCHECK
 70
     0
  9
$PEXTMIN
 10
1.049743681505489
 20
0.7996673802841308
 30
-0.0015258207003583
  9
$PEXTMAX
 10
9.450622583565561
 20
7.200576801086516
 30
0.0000000349246037
  9
$PLIMMIN
 10
-0.2500002402958907
 20
-0.2499999962453767
  9
$PLIMMAX
 10
10.74999951940821
 20
8.249999763458731
  9
$UNITMODE
 70
     0
  9
$VISRETAIN
 70
     1
  9
$PLINEGEN
 70
     0
  9
$PSLTSCALE
 70
     0
  9
$TREEDEPTH
 70
  3020
  9
$CMLSTYLE
  2
Standard
  9
$CMLJUST
 70
     0
  9
$CMLSCALE
 40
1.0
  9
$PROXYGRAPHICS
 70
     1
  9
$MEASUREMENT
 70
     0
  9
$CELWEIGHT
370
    13
  9
$ENDCAPS
280
     0
  9
$JOINSTYLE
280
     0
  9
$LWDISPLAY
290
     1
  9
$INSUNITS
 70
     6
  9
$HYPERLINKBASE
  1

  9
$STYLESHEET
  1

  9
$XEDIT
290
     1
  9
$CEPSNTYPE
380
     0
  9
$PSTYLEMODE
290
     1
  9
$FINGERPRINTGUID
  2
{020C2F1E-B16A-4E25-AF57-11AC020BAACD}
  9
$VERSIONGUID
  2
{0D4E05D6-41C5-FB43-BEC4-A7934169FA33}
  9
$EXTNAMES
290
     1
  9
$PSVPSCALE
 40
0.0
  9
$OLESTARTUP
290
     0
  9
$SORTENTS
280
   127
  9
$INDEXCTL
280
     0
  9
$HIDETEXT
280
     1
  9
$XCLIPFRAME
280
     0
  9
$HALOGAP
280
     0
  9
$OBSCOLOR
 70
   257
  9
$OBSLTYPE
280
     0
  9
$INTERSECTIONDISPLAY
280
     0
  9
$INTERSECTIONCOLOR
 70
   257
  9
$DIMASSOC
280
     2
  9
$PROJECTNAME
  1

  9
$CAMERADISPLAY
290
     0
  9
$LENSLENGTH
 40
50.0
  9
$CAMERAHEIGHT
 40
0.0
  9
$STEPSPERSEC
 40
2.0
  9
$STEPSIZE
 40
6.0
  9
$3DDWFPREC
 40
2.0
  9
$PSOLWIDTH
 40
0.25
  9
$PSOLHEIGHT
 40
4.0
  9
$LOFTANG1
 40
1.570796326794896
  9
$LOFTANG2
 40
1.570796326794896
  9
$LOFTMAG1
 40
0.0
  9
$LOFTMAG2
 40
0.0
  9
$LOFTPARAM
 70
     7
  9
$LOFTNORMALS
280
     1
  9
$LATITUDE
 40
37.795
  9
$LONGITUDE
 40
-122.394
  9
$NORTHDIRECTION
 40
0.0
  9
$TIMEZONE
 70
 -8000
  9
$LIGHTGLYPHDISPLAY
280
     1
  9
$TILEMODELIGHTSYNCH
280
     1
  9
$CMATERIAL
347
725E8
  9
$SOLIDHIST
280
     1
  9
$SHOWHIST
280
     1
  9
$DWFFRAME
280
     2
  9
$DGNFRAME
280
     0
  9
$REALWORLDSCALE
290
     1
  9
$INTERFERECOLOR
 62
     1
  9
$INTERFEREOBJVS
345
725FE
  9
$INTERFEREVPVS
346
725FF
  9
$CSHADOW
280
     0
  9
$SHADOWPLANELOCATION
 40
0.0
  0
ENDSEC
  0
SECTION
  2
CLASSES
  0
CLASS
  1
ACDBDICTIONARYWDFLT
  2
AcDbDictionaryWithDefault
  3
ObjectDBX Classes
 90
        0
 91
        1
280
     0
281
     0
  0
CLASS
  1
DICTIONARYVAR
  2
AcDbDictionaryVar
  3
ObjectDBX Classes
 90
        0
 91
        9
280
     0
281
     0
  0
CLASS
  1
TABLESTYLE
  2
AcDbTableStyle
  3
ObjectDBX Classes
 90
     4095
 91
        1
280
     0
281
     0
  0
CLASS
  1
MATERIAL
  2
AcDbMaterial
  3
ObjectDBX Classes
 90
     1153
 91
        3
280
     0
281
     0
  0
CLASS
  1
VISUALSTYLE
  2
AcDbVisualStyle
  3
ObjectDBX Classes
 90
     4095
 91
       26
280
     0
281
     0
  0
CLASS
  1
SCALE
  2
AcDbScale
  3
ObjectDBX Classes
 90
     1153
 91
       33
280
     0
281
     0
  0
CLASS
  1
MLEADERSTYLE
  2
AcDbMLeaderStyle
  3
ACDB_MLEADERSTYLE_CLASS
 90
     4095
 91
        1
280
     0
281
     0
  0
CLASS
  1
DBCOLOR
  2
AcDbColor
  3
ObjectDBX Classes
 90
        0
 91
        1
280
     0
281
     0
  0
CLASS
  1
SORTENTSTABLE
  2
AcDbSortentsTable
  3
ObjectDBX Classes
 90
        0
 91
        1
280
     0
281
     0
  0
CLASS
  1
DIMASSOC
  2
AcDbDimAssoc
  3
"AcDbDimAssoc|Product Desc:     AcDim ARX App For Dimension|Company:          Autodesk, Inc.|WEB Address:      www.autodesk.com"
 90
        0
 91
        0
280
     0
281
     0
  0
CLASS
  1
CELLSTYLEMAP
  2
AcDbCellStyleMap
  3
ObjectDBX Classes
 90
     1152
 91
        2
280
     0
281
     0
  0
CLASS
  1
ACDBSECTIONVIEWSTYLE
  2
AcDbSectionViewStyle
  3
ObjectDBX Classes
 90
     1025
 91
        1
280
     0
281
     0
  0
CLASS
  1
ACDBDETAILVIEWSTYLE
  2
AcDbDetailViewStyle
  3
ObjectDBX Classes
 90
     1025
 91
        1
280
     0
281
     0
  0
ENDSEC
  0
SECTION
  2
TABLES
  0
TABLE
  2
VPORT
  5
725DC
330
0
100
AcDbSymbolTable
 70
     1
  0
VPORT
  5
48D
330
725DC
100
AcDbSymbolTableRecord
100
AcDbViewportTableRecord
  2
*ACTIVE
 70
     0
 10
0.0
 20
0.0
 11
1.0
 21
1.0
 12
14856.61903714284
 22
5634.357652990067
 13
0.0
 23
0.0
 14
0.1
 24
0.1
 15
0.1
 25
0.1
 16
0.0
 26
0.0
 36
1.0
 17
0.0
 27
0.0
 37
0.0
 40
47.96432909395571
 41
1.663527397260273
 42
50.0
 43
0.0
 44
0.0
 50
0.0
 51
0.0
 71
     0
 72
   100
 73
     1
 74
     0
 75
     0
 76
     0
 77
     0
 78
     1
281
     0
 65
     1
110
0.0
120
0.0
130
0.0
111
1.0
121
0.0
131
0.0
112
0.0
122
1.0
132
0.0
 79
     0
146
0.0
348
725DE
 60
     3
 61
    10
292
     1
282
     1
141
0.0
142
0.0
 63
   250
421
  3355443
1001
ACAD_NAV_VCDISPLAY
1070
     3
  0
ENDTAB
  0
TABLE
  2
LTYPE
  5
725D7
330
0
100
AcDbSymbolTable
 70
    13
  0
LTYPE
  5
725D8
330
725D7
100
AcDbSymbolTableRecord
100
AcDbLinetypeTableRecord
  2
ByBlock
 70
     0
  3

 72
    65
 73
     0
 40
0.0
  0
LTYPE
  5
725D9
330
725D7
100
AcDbSymbolTableRecord
100
AcDbLinetypeTableRecord
  2
ByLayer
 70
     0
  3

 72
    65
 73
     0
 40
0.0
  0
LTYPE
  5
725C6
330
725D7
100
AcDbSymbolTableRecord
100
AcDbLinetypeTableRecord
  2
Continuous
 70
     0
  3
Solid line
 72
    65
 73
     0
 40
0.0
  0
LTYPE
  5
255EF
330
725D7
100
AcDbSymbolTableRecord
100
AcDbLinetypeTableRecord
  2
DGN Style 4
 70
     0
  3

 72
    65
 73
     4
 40
5.601258242091302
 49
2.798879821157427
 74
     0
 49
-1.399439910578713
 74
     0
 49
0.0034985997764468
 74
     0
 49
-1.399439910578713
 74
     0
  0
LTYPE
  5
259FE
330
725D7
100
AcDbSymbolTableRecord
100
AcDbLinetypeTableRecord
  2
DGN Style 3
 70
     0
  3

 72
    65
 73
     2
 40
4.898039687025498
 49
3.498599776446784
 74
     0
 49
-1.399439910578713
 74
     0
  0
LTYPE
  5
6DDFA
330
725D7
100
AcDbSymbolTableRecord
100
AcDbLinetypeTableRecord
  2
AM_DIN_F_W050x2
 70
     0
  3

 72
    65
 73
     2
 40
0.003125
 49
0.00225
 74
     0
 49
-0.000875
 74
     0
  0
LTYPE
  5
7311D
330
725D7
100
AcDbSymbolTableRecord
100
AcDbLinetypeTableRecord
  2
гр_тер3
 70
     0
  3
new compound component
 72
    65
 73
     8
 40
7.5
 49
-0.8
 74
     0
 49
0.025
 74
     4
 75
     3
340
7311E
 46
0.0031746031746032
 50
0.0
 44
0.0
 45
0.0
 49
0.025
 74
     0
 49
-0.8
 74
     0
 49
0.025
 74
     4
 75
     3
340
7311E
 46
0.0031746031746032
 50
0.0
 44
0.0
 45
0.0
 49
0.025
 74
     0
 49
-0.8
 74
     0
 49
5.0
 74
     0
  0
ENDTAB
  0
TABLE
  2
LAYER
  5
725D1
102
{ACAD_XDICTIONARY
360
725D2
102
}
330
0
100
AcDbSymbolTable
 70
   167
  0
LAYER
  5
725B9
102
{ACAD_XDICTIONARY
360
75F76
102
}
330
725D1
100
AcDbSymbolTableRecord
100
AcDbLayerTableRecord
  2
0
 70
     0
 62
     7
  6
Continuous
370
    -3
390
725BA
347
725BD
348
0
  0
LAYER
  5
3B7
102
{ACAD_XDICTIONARY
360
75FDA
102
}
330
725D1
100
AcDbSymbolTableRecord
100
AcDbLayerTableRecord
  2
Level 50
 70
     0
 62
     7
  6
Continuous
370
     0
390
725BA
347
725BD
348
0
  0
LAYER
  5
3C4
102
{ACAD_XDICTIONARY
360
75FF4
102
}
330
725D1
100
AcDbSymbolTableRecord
100
AcDbLayerTableRecord
  2
Level 63
 70
     0
 62
     7
  6
Continuous
370
     0
390
725BA
347
725BD
348
0
  0
LAYER
  5
25EA8
330
725D1
100
AcDbSymbolTableRecord
100
AcDbLayerTableRecord
  2
Defpoints
 70
     0
 62
     7
  6
Continuous
290
     0
370
     0
390
725BA
347
725BD
348
0
  0
ENDTAB
  0
TABLE
  2
STYLE
  5
725D4
330
0
100
AcDbSymbolTable
 70
    22
  0
STYLE
  5
725D5
330
725D4
100
AcDbSymbolTableRecord
100
AcDbTextStyleTableRecord
  2
Standard
 70
     0
 40
0.0025
 41
1.0
 50
0.0
 71
     0
 42
1.0
  3
txt.shx
  4

  0
STYLE
  5
25E28
330
725D4
100
AcDbSymbolTableRecord
100
AcDbTextStyleTableRecord
  2
Style-Arial
 70
     0
 40
0.0
 41
1.0
 50
0.0
 71
     0
 42
1.0
  3
arial.ttf
  4

1001
ACAD
1000
Arial
1071
    52263
  0
STYLE
  5
45D75
330
725D4
100
AcDbSymbolTableRecord
100
AcDbTextStyleTableRecord
  2
GOST 2.304
 70
     0
 40
0.0
 41
1.0
 50
0.0
 71
     0
 42
0.2
  3
CS_Gost2304.shx
  4

  0
STYLE
  5
472E2
330
725D4
100
AcDbSymbolTableRecord
100
AcDbTextStyleTableRecord
  2
MONOTXT
 70
     0
 40
0.5
 41
0.8
 50
0.0
 71
     0
 42
1.0
  3
monotxt.shx
  4

  0
STYLE
  5
49C31
330
725D4
100
AcDbSymbolTableRecord
100
AcDbTextStyleTableRecord
  2
Style-txt
 70
     0
 40
0.0
 41
1.0
 50
0.0
 71
     0
 42
0.2
  3
txt.shx
  4

  0
STYLE
  5
72634
330
725D4
100
AcDbSymbolTableRecord
100
AcDbTextStyleTableRecord
  2
Standard_0
 70
     0
 40
0.0
 41
1.0
 50
0.0
 71
     0
 42
0.2
  3
txt.shx
  4

  0
STYLE
  5
7311E
330
725D4
100
AcDbSymbolTableRecord
100
AcDbTextStyleTableRecord
  2

 70
     1
 40
1.0
 41
1.0
 50
0.0
 71
     0
 42
0.25
  3
dgnlstyle-new.shx
  4

  0
ENDTAB
  0
TABLE
  2
VIEW
  5
725DA
330
0
100
AcDbSymbolTable
 70
     3
  0
ENDTAB
  0
TABLE
  2
UCS
  5
725DB
330
0
100
AcDbSymbolTable
 70
     0
  0
ENDTAB
  0
TABLE
  2
APPID
  5
725E0
330
0
100
AcDbSymbolTable
 70
    10
  0
APPID
  5
725E1
330
725E0
100
AcDbSymbolTableRecord
100
AcDbRegAppTableRecord
  2
ACAD
 70
     0
  0
APPID
  5
725D0
330
725E0
100
AcDbSymbolTableRecord
100
AcDbRegAppTableRecord
  2
ACAD_PSEXT
 70
     0
  0
APPID
  5
72623
330
725E0
100
AcDbSymbolTableRecord
100
AcDbRegAppTableRecord
  2
AcAecLayerStandard
 70
     0
  0
APPID
  5
25E8F
330
725E0
100
AcDbSymbolTableRecord
100
AcDbRegAppTableRecord
  2
AcDbBlockRepETag
 70
     0
  0
APPID
  5
4BD58
330
725E0
100
AcDbSymbolTableRecord
100
AcDbRegAppTableRecord
  2
GradientColor1ACI
 70
     0
  0
APPID
  5
4BD59
330
725E0
100
AcDbSymbolTableRecord
100
AcDbRegAppTableRecord
  2
GradientColor2ACI
 70
     0
  0
APPID
  5
607E8
330
725E0
100
AcDbSymbolTableRecord
100
AcDbRegAppTableRecord
  2
AcadAnnotative
 70
     0
  0
APPID
  5
744B6
330
725E0
100
AcDbSymbolTableRecord
100
AcDbRegAppTableRecord
  2
ACAD_MLEADERVER
 70
     0
  0
APPID
  5
760C2
330
725E0
100
AcDbSymbolTableRecord
100
AcDbRegAppTableRecord
  2
ACAD_NAV_VCDISPLAY
 70
     0
  0
APPID
  5
760D3
330
725E0
100
AcDbSymbolTableRecord
100
AcDbRegAppTableRecord
  2
ACAD_EXEMPT_FROM_CAD_STANDARDS
 70
     0
  0
ENDTAB
  0
TABLE
  2
DIMSTYLE
  5
725E2
330
0
100
AcDbSymbolTable
 70
    10
100
AcDbDimStyleTable
 71
     2
340
53ECF
340
725E3
  0
DIMSTYLE
105
725E3
330
725E2
100
AcDbSymbolTableRecord
100
AcDbDimStyleTableRecord
  2
Standard
 70
     0
 41
0.00018
 43
0.00038
 44
0.0002
 49
0.01
140
0.00018
141
0.00009
144
1000.0
147
0.00009
289
     0
290
     1
340
72634
  0
DIMSTYLE
105
53ECF
330
725E2
100
AcDbSymbolTableRecord
100
AcDbDimStyleTableRecord
  2
100
 70
     0
 41
0.1875
 42
0.125
 43
0.0
 44
0.125
 73
     0
 74
     0
 77
     1
 78
    11
 79
     3
140
0.25
141
0.09
143
1.0
144
1000.0
147
0.0625
171
     4
172
     1
271
     0
272
     0
274
     4
276
     2
283
     0
284
    11
285
    15
286
    15
340
49C31
341
7262E
342
72627
371
     0
372
     0
  0
ENDTAB
  0
TABLE
  2
BLOCK_RECORD
  5
725B6
330
0
100
AcDbSymbolTable
 70
    65
  0
BLOCK_RECORD
  5
725B7
102
{ACAD_XDICTIONARY
360
736B4
102
}
330
725B6
100
AcDbSymbolTableRecord
100
AcDbBlockTableRecord
  2
*Model_Space
340
725C8
 70
     0
280
     1
281
     0
  0
BLOCK_RECORD
  5
725CA
330
725B6
100
AcDbSymbolTableRecord
100
AcDbBlockTableRecord
  2
*Paper_Space
340
725CD
 70
     0
280
     1
281
     0
  0
BLOCK_RECORD
  5
72627
330
725B6
100
AcDbSymbolTableRecord
100
AcDbBlockTableRecord
  2
_Oblique
340
0
 70
     0
280
     1
281
     0
  0
BLOCK_RECORD
  5
7262E
330
725B6
100
AcDbSymbolTableRecord
100
AcDbBlockTableRecord
  2
TerminatorOpen
340
0
 70
     0
280
     1
281
     0
  0
BLOCK_RECORD
  5
754A2
330
725B6
100
AcDbSymbolTableRecord
100
AcDbBlockTableRecord
  2
*U58
340
0
102
{BLKREFS
331
75004
102
}
 70
     0
280
     1
281
     0
  0
BLOCK_RECORD
  5
754A5
330
725B6
100
AcDbSymbolTableRecord
100
AcDbBlockTableRecord
  2
*U59
340
0
102
{BLKREFS
331
75005
102
}
 70
     0
280
     1
281
     0
  0
BLOCK_RECORD
  5
754A8
330
725B6
100
AcDbSymbolTableRecord
100
AcDbBlockTableRecord
  2
формат А4_1
340
0
102
{BLKREFS
331
7502F
102
}
 70
     0
280
     1
281
     0
  0
BLOCK_RECORD
  5
754AB
330
725B6
100
AcDbSymbolTableRecord
100
AcDbBlockTableRecord
  2
*U61
340
0
102
{BLKREFS
331
75030
102
}
 70
     0
280
     1
281
     0
  0
ENDTAB
  0
ENDSEC
  0
SECTION
  2
BLOCKS
  0
BLOCK
  5
725B8
330
725B7
100
AcDbEntity
  8
0
100
AcDbBlockBegin
  2
*Model_Space
 70
     0
 10
0.0
 20
0.0
 30
0.0
  3
*Model_Space
  1

  0
ENDBLK
  5
725C7
330
725B7
100
AcDbEntity
  8
0
100
AcDbBlockEnd
  0
BLOCK
  5
725CB
330
725CA
100
AcDbEntity
 67
     1
  8
0
100
AcDbBlockBegin
  2
*Paper_Space
 70
     0
 10
0.0
 20
0.0
 30
0.0
  3
*Paper_Space
  1

  0
ENDBLK
  5
725CC
330
725CA
100
AcDbEntity
 67
     1
  8
0
100
AcDbBlockEnd
  0
BLOCK
  5
72629
330
72627
100
AcDbEntity
  8
0
100
AcDbBlockBegin
  2
_Oblique
 70
     0
 10
0.0
 20
0.0
 30
0.0
  3
_Oblique
  1

  0
LINE
  5
72628
330
72627
100
AcDbEntity
  8
0
  6
ByBlock
 62
     0
370
    -2
100
AcDbLine
 10
0.5
 20
0.5
 30
0.0
 11
-0.5
 21
-0.5
 31
0.0
  0
ENDBLK
  5
7262A
330
72627
100
AcDbEntity
  8
0
100
AcDbBlockEnd
  0
BLOCK
  5
72632
330
7262E
100
AcDbEntity
  8
0
100
AcDbBlockBegin
  2
TerminatorOpen
 70
     0
 10
0.0
 20
0.0
 30
0.0
  3
TerminatorOpen
  1

  0
LINE
  5
7262F
330
7262E
100
AcDbEntity
  8
0
  6
ByBlock
 62
     0
370
    -2
100
AcDbLine
 10
0.0
 20
0.0
 30
0.0
 11
-1.0
 21
0.0
 31
0.0
  0
LINE
  5
72630
330
7262E
100
AcDbEntity
  8
0
  6
ByBlock
 62
     0
370
    -2
100
AcDbLine
 10
0.0
 20
0.0
 30
0.0
 11
-1.0
 21
0.5
 31
0.0
  0
LINE
  5
72631
330
7262E
100
AcDbEntity
  8
0
  6
ByBlock
 62
     0
370
    -2
100
AcDbLine
 10
0.0
 20
0.0
 30
0.0
 11
-1.0
 21
-0.5
 31
0.0
  0
ENDBLK
  5
72633
330
7262E
100
AcDbEntity
  8
0
100
AcDbBlockEnd
  0
BLOCK
  5
754A3
330
754A2
100
AcDbEntity
  8
0
 62
     1
370
     0
100
AcDbBlockBegin
  2
*U58
 70
     1
 10
0.0
 20
0.0
 30
0.0
  3
*U58
  1

  0
INSERT
  5
75005
330
754A2
100
AcDbEntity
  8
0
  6
Continuous
 62
     7
370
     0
100
AcDbBlockReference
  2
*U59
 10
0.0000347031800629
 20
0.000011835109035
 30
0.0
  0
LINE
  5
7502B
330
754A2
100
AcDbEntity
  8
0
  6
DGN Style 3
 62
     7
370
     0
100
AcDbLine
 10
-0.7670856326658396
 20
2.087796368047747
 30
0.0
 11
0.7729143673332147
 21
2.087796368047747
 31
0.0
  0
LINE
  5
7502C
330
754A2
100
AcDbEntity
  8
0
  6
DGN Style 3
 62
     7
370
     0
100
AcDbLine
 10
0.7729143673332147
 20
1.167796368047675
 30
0.0
 11
0.7729143673332147
 21
2.087796368047747
 31
0.0
  0
LINE
  5
7502D
330
754A2
100
AcDbEntity
  8
0
  6
DGN Style 3
 62
     7
370
     0
100
AcDbLine
 10
-0.7670856326658396
 20
1.167796368047675
 30
0.0
 11
-0.7670856326658396
 21
2.087796368047747
 31
0.0
  0
LINE
  5
7502E
330
754A2
100
AcDbEntity
  8
0
  6
DGN Style 3
 62
     7
370
     0
100
AcDbLine
 10
-0.7670856326658396
 20
-1.832203631952324
 30
0.0
 11
0.7729143673332147
 21
-1.832203631952324
 31
0.0
  0
ENDBLK
  5
754A4
330
754A2
100
AcDbEntity
  8
0
 62
     1
370
     0
100
AcDbBlockEnd
  0
BLOCK
  5
754A6
330
754A5
100
AcDbEntity
  8
0
 62
     1
370
     0
100
AcDbBlockBegin
  2
*U59
 70
     1
 10
0.0
 20
0.0
 30
0.0
  3
*U59
  1

  0
LINE
  5
75006
330
754A5
100
AcDbEntity
  8
0
  6
Continuous
 62
     7
370
     0
100
AcDbLine
 10
-0.5071203358456842
 20
2.087784532938712
 30
0.0
 11
-0.1871203358459752
 21
2.087784532938712
 31
0.0
  0
LINE
  5
75007
330
754A5
100
AcDbEntity
  8
0
  6
Continuous
 62
     7
370
     0
100
AcDbLine
 10
-0.5071203358456842
 20
2.087784532938712
 30
0.0
 11
-0.5071203358456842
 21
1.637784532938894
 31
0.0
  0
LINE
  5
75008
330
754A5
100
AcDbEntity
  8
0
  6
Continuous
 62
     7
370
     0
100
AcDbLine
 10
-0.1871203358459752
 20
2.087784532938712
 30
0.0
 11
-0.1871203358459752
 21
1.637784532938894
 31
0.0
  0
LINE
  5
75009
330
754A5
100
AcDbEntity
  8
0
  6
Continuous
 62
     7
370
     0
100
AcDbLine
 10
-0.7671203358459025
 20
1.637784532938894
 30
0.0
 11
0.0728796641542431
 21
1.637784532938894
 31
0.0
  0
LINE
  5
7500A
330
754A5
100
AcDbEntity
  8
0
  6
Continuous
 62
     7
370
     0
100
AcDbLine
 10
-0.7671203358459025
 20
1.487784532939258
 30
0.0
 11
0.0728796641542431
 21
1.487784532939258
 31
0.0
  0
LINE
  5
7500B
330
754A5
100
AcDbEntity
  8
0
  6
Continuous
 62
     7
370
     0
100
AcDbLine
 10
0.0728796641542431
 20
1.637784532938894
 30
0.0
 11
0.0728796641542431
 21
1.487784532939258
 31
0.0
  0
LINE
  5
7500C
330
754A5
100
AcDbEntity
  8
0
  6
Continuous
 62
     7
370
     0
100
AcDbLine
 10
-0.7671203358459025
 20
1.637784532938894
 30
0.0
 11
-0.7671203358459025
 21
1.487784532939258
 31
0.0
  0
LINE
  5
7500D
330
754A5
100
AcDbEntity
  8
0
  6
Continuous
 62
     7
370
     0
100
AcDbLine
 10
-0.7671203358459025
 20
1.16778453293864
 30
0.0
 11
0.2328796641540975
 21
1.16778453293864
 31
0.0
  0
LINE
  5
7500E
330
754A5
100
AcDbEntity
  8
0
  6
Continuous
 62
     7
370
     0
100
AcDbLine
 10
-0.7671203358459025
 20
1.16778453293864
 30
0.0
 11
-0.7671203358459025
 21
-1.832215467061359
 31
0.0
  0
LINE
  5
7500F
330
754A5
100
AcDbEntity
  8
0
  6
Continuous
 62
     7
370
     0
100
AcDbLine
 10
0.2328796641540975
 20
1.16778453293864
 30
0.0
 11
0.2328796641540975
 21
-1.832215467061359
 31
0.0
  0
LINE
  5
75010
330
754A5
100
AcDbEntity
  8
0
  6
Continuous
 62
     7
370
     0
100
AcDbLine
 10
-0.7671203358459025
 20
-1.832215467061359
 30
0.0
 11
0.2328796641540975
 21
-1.832215467061359
 31
0.0
  0
LINE
  5
75011
330
754A5
100
AcDbEntity
  8
0
  6
Continuous
 62
     7
370
     0
100
AcDbLine
 10
0.7728796641531517
 20
1.16778453293864
 30
0.0
 11
0.7728796641531517
 21
-1.832215467061359
 31
0.0
  0
LINE
  5
75012
330
754A5
100
AcDbEntity
  8
0
  6
Continuous
 62
     7
370
     0
100
AcDbLine
 10
0.7228796641538793
 20
1.16778453293864
 30
0.0
 11
0.7728796641531517
 21
1.16778453293864
 31
0.0
  0
LINE
  5
75013
330
754A5
100
AcDbEntity
  8
0
  6
DGN Style 4
 62
     7
370
     0
100
AcDbLine
 10
-0.3471203358458297
 20
2.087784532938712
 30
0.0
 11
-0.3471203358458297
 21
-2.087825980002889
 31
0.0
  0
LINE
  5
75014
330
754A5
100
AcDbEntity
  8
0
  6
DGN Style 4
 62
     7
370
     0
100
AcDbLine
 10
-0.9219919159222627
 20
-0.33221546706136
 30
0.0
 11
0.9220106131197098
 21
-0.33221546706136
 31
0.0
  0
LINE
  5
75015
330
754A5
100
AcDbEntity
  8
0
  6
Continuous
 62
     7
370
     0
100
AcDbLine
 10
0.7228796641538793
 20
1.16778453293864
 30
0.0
 11
0.7228796641538793
 21
-1.832215467061359
 31
0.0
  0
LINE
  5
75016
330
754A5
100
AcDbEntity
  8
0
  6
Continuous
 62
     7
370
     0
100
AcDbLine
 10
0.6728796641527879
 20
0.9677845329388219
 30
0.0
 11
0.7228796641538793
 21
0.9677845329388219
 31
0.0
  0
LINE
  5
75017
330
754A5
100
AcDbEntity
  8
0
  6
Continuous
 62
     7
370
     0
100
AcDbLine
 10
0.6728796641527879
 20
0.9677845329388219
 30
0.0
 11
0.6728796641527879
 21
-1.632215467061541
 31
0.0
  0
LINE
  5
75018
330
754A5
100
AcDbEntity
  8
0
  6
Continuous
 62
     7
370
     0
100
AcDbLine
 10
0.7228796641538793
 20
-1.832215467061359
 30
0.0
 11
0.7728796641531517
 21
-1.832215467061359
 31
0.0
  0
LINE
  5
75019
330
754A5
100
AcDbEntity
  8
0
  6
Continuous
 62
     7
370
     0
100
AcDbLine
 10
0.6728796641527879
 20
-1.632215467061541
 30
0.0
 11
0.7228796641538793
 21
-1.632215467061541
 31
0.0
  0
LINE
  5
7501A
330
754A5
100
AcDbEntity
  8
0
  6
Continuous
 62
     7
370
     0
100
AcDbLine
 10
-0.0387351544395642
 20
-0.2322154670619057
 30
0.0
 11
0.4912648455592717
 21
-0.2322154670619057
 31
0.0
  0
LINE
  5
7501B
330
754A5
100
AcDbEntity
  8
0
  6
Continuous
 62
     7
370
     0
100
AcDbLine
 10
-0.0387351544395642
 20
-0.4322154670617238
 30
0.0
 11
0.4912648455592717
 21
-0.4322154670617238
 31
0.0
  0
LINE
  5
7501C
330
754A5
100
AcDbEntity
  8
0
  6
Continuous
 62
     7
370
     0
100
AcDbLine
 10
0.4912648455592717
 20
-0.1822154670617237
 30
0.0
 11
0.7912648455603631
 21
-0.1822154670617237
 31
0.0
  0
LINE
  5
7501D
330
754A5
100
AcDbEntity
  8
0
  6
Continuous
 62
     7
370
     0
100
AcDbLine
 10
0.4912648455592717
 20
-0.4822154670619057
 30
0.0
 11
0.7912648455603631
 21
-0.4822154670619057
 31
0.0
  0
LINE
  5
7501E
330
754A5
100
AcDbEntity
  8
0
  6
Continuous
 62
     7
370
     0
100
AcDbLine
 10
0.4912648455592717
 20
-0.1822154670617237
 30
0.0
 11
0.4912648455592717
 21
-0.4822154670619057
 31
0.0
  0
LINE
  5
7501F
330
754A5
100
AcDbEntity
  8
0
  6
Continuous
 62
     7
370
     0
100
AcDbLine
 10
0.7912648455603631
 20
-0.1822154670617237
 30
0.0
 11
0.7912648455603631
 21
-0.4822154670619057
 31
0.0
  0
3DFACE
  5
75020
330
754A5
100
AcDbEntity
  8
0
  6
Continuous
 62
     7
370
     0
100
AcDbFace
 10
-0.6505446124756418
 20
0.7555368816565533
 30
0.0
 11
0.047742340095283
 21
0.7555368816565533
 31
0.0
 12
0.047742340095283
 22
-1.461618502279634
 32
0.0
 13
-0.6505446124756418
 23
-1.461618502279634
 33
0.0
  0
LINE
  5
75021
330
754A5
100
AcDbEntity
  8
0
  6
Continuous
 62
     7
370
     0
100
AcDbLine
 10
-0.0387351544395642
 20
-0.2322154670619057
 30
0.0
 11
-0.0387351544395642
 21
-0.4322154670617238
 31
0.0
  0
LINE
  5
75022
330
754A5
100
AcDbEntity
  8
0
  6
Continuous
 62
     7
370
     0
100
AcDbLine
 10
-0.138735154439928
 20
-0.2572154670615419
 30
0.0
 11
-0.0387351544395642
 21
-0.2572154670615419
 31
0.0
  0
LINE
  5
75023
330
754A5
100
AcDbEntity
  8
0
  6
Continuous
 62
     7
370
     0
100
AcDbLine
 10
-0.138735154439928
 20
-0.4072154670611781
 30
0.0
 11
-0.0387351544395642
 21
-0.4072154670611781
 31
0.0
  0
LINE
  5
75024
330
754A5
100
AcDbEntity
  8
0
  6
Continuous
 62
     7
370
     0
100
AcDbLine
 10
-0.138735154439928
 20
-0.2572154670615419
 30
0.0
 11
-0.138735154439928
 21
-0.4072154670611781
 31
0.0
  0
LINE
  5
75025
330
754A5
100
AcDbEntity
  8
0
  6
Continuous
 62
     7
370
     0
100
AcDbLine
 10
-0.2721203358469211
 20
-0.282215467061178
 30
0.0
 11
-0.138735154439928
 21
-0.282215467061178
 31
0.0
  0
LINE
  5
75026
330
754A5
100
AcDbEntity
  8
0
  6
Continuous
 62
     7
370
     0
100
AcDbLine
 10
-0.2721203358469211
 20
-0.3822154670615418
 30
0.0
 11
-0.138735154439928
 21
-0.3822154670615418
 31
0.0
  0
LINE
  5
75027
330
754A5
100
AcDbEntity
  8
0
  6
Continuous
 62
     7
370
     0
100
AcDbLine
 10
-0.4221203358465573
 20
-0.1322154670615419
 30
0.0
 11
-0.4221203358465573
 21
-0.5322154670611781
 31
0.0
  0
LINE
  5
75028
330
754A5
100
AcDbEntity
  8
0
  6
Continuous
 62
     7
370
     0
100
AcDbLine
 10
-0.2721203358469211
 20
-0.1322154670615419
 30
0.0
 11
-0.2721203358469211
 21
-0.5322154670611781
 31
0.0
  0
LINE
  5
75029
330
754A5
100
AcDbEntity
  8
0
  6
Continuous
 62
     7
370
     0
100
AcDbLine
 10
-0.4221203358465573
 20
-0.1322154670615419
 30
0.0
 11
-0.2721203358469211
 21
-0.1322154670615419
 31
0.0
  0
LINE
  5
7502A
330
754A5
100
AcDbEntity
  8
0
  6
Continuous
 62
     7
370
     0
100
AcDbLine
 10
-0.4221203358465573
 20
-0.5322154670611781
 30
0.0
 11
-0.2721203358469211
 21
-0.5322154670611781
 31
0.0
  0
ENDBLK
  5
754A7
330
754A5
100
AcDbEntity
  8
0
 62
     1
370
     0
100
AcDbBlockEnd
  0
BLOCK
  5
754A9
330
754A8
100
AcDbEntity
  8
0
 62
     1
370
     0
100
AcDbBlockBegin
  2
формат А4_1
 70
     0
 10
0.0
 20
0.0
 30
0.0
  3
формат А4_1
  1

  0
INSERT
  5
75030
330
754A8
100
AcDbEntity
  8
Level 50
  6
Continuous
 62
     7
370
     0
100
AcDbBlockReference
  2
*U61
 10
10.488684803453
 20
-14.85472452746762
 30
0.0
  0
ENDBLK
  5
754AA
330
754A8
100
AcDbEntity
  8
0
 62
     1
370
     0
100
AcDbBlockEnd
  0
BLOCK
  5
754AC
330
754AB
100
AcDbEntity
  8
0
 62
     1
370
     0
100
AcDbBlockBegin
  2
*U61
 70
     1
 10
0.0
 20
0.0
 30
0.0
  3
*U61
  1

  0
LINE
  5
75031
330
754AB
100
AcDbEntity
  8
Level 50
  6
Continuous
 62
     7
370
     0
100
AcDbLine
 10
10.511315196547
 20
14.85472452746762
 30
0.0
 11
-10.488684803453
 21
14.85472452746762
 31
0.0
  0
LINE
  5
75032
330
754AB
100
AcDbEntity
  8
Level 50
  6
Continuous
 62
     7
370
     0
100
AcDbLine
 10
-10.488684803453
 20
14.85472452746762
 30
0.0
 11
-10.488684803453
 21
-14.84527547253219
 31
0.0
  0
LINE
  5
75033
330
754AB
100
AcDbEntity
  8
Level 50
  6
Continuous
 62
     7
370
     0
100
AcDbLine
 10
-10.488684803453
 20
-14.84527547253219
 30
0.0
 11
10.511315196547
 21
-14.84527547253219
 31
0.0
  0
LINE
  5
75034
330
754AB
100
AcDbEntity
  8
Level 50
  6
Continuous
 62
     7
370
     0
100
AcDbLine
 10
10.511315196547
 20
-14.84527547253219
 30
0.0
 11
10.511315196547
 21
14.85472452746762
 31
0.0
  0
LINE
  5
75035
330
754AB
100
AcDbEntity
  8
Level 63
  6
Continuous
 62
     7
370
    13
100
AcDbLine
 10
-10.488684803453
 20
-5.845275472532193
 30
0.0
 11
-8.488684803452997
 21
-5.845275472532193
 31
0.0
  0
LINE
  5
75036
330
754AB
100
AcDbEntity
  8
Level 63
  6
Continuous
 62
     7
370
    13
100
AcDbLine
 10
-9.988684803452997
 20
-3.845275472532193
 30
0.0
 11
-8.488684803452997
 21
-3.845275472532193
 31
0.0
  0
LINE
  5
75037
330
754AB
100
AcDbEntity
  8
Level 63
  6
Continuous
 62
     7
370
    13
100
AcDbLine
 10
-9.988684803452997
 20
-1.845275472532193
 30
0.0
 11
-8.488684803452997
 21
-1.845275472532193
 31
0.0
  0
LINE
  5
75038
330
754AB
100
AcDbEntity
  8
Level 63
  6
Continuous
 62
     7
370
    13
100
AcDbLine
 10
-9.988684803452997
 20
-0.3452754725321938
 30
0.0
 11
-8.488684803452997
 21
-0.3452754725321938
 31
0.0
  0
LINE
  5
75039
330
754AB
100
AcDbEntity
  8
Level 63
  6
Continuous
 62
     7
370
    13
100
AcDbLine
 10
-10.488684803453
 20
0.6547245274678062
 30
0.0
 11
-8.488684803452997
 21
0.6547245274678062
 31
0.0
  0
LINE
  5
7503A
330
754AB
100
AcDbEntity
  8
Level 63
  6
Continuous
 62
     7
370
    13
100
AcDbLine
 10
-9.488684803452997
 20
0.6547245274678062
 30
0.0
 11
-9.488684803452997
 21
-5.845275472532193
 31
0.0
  0
LINE
  5
7503B
330
754AB
100
AcDbEntity
  8
Level 63
  6
Continuous
 62
     7
370
    13
100
AcDbLine
 10
-8.988684803452997
 20
0.6547245274678062
 30
0.0
 11
-8.988684803452997
 21
-5.845275472532193
 31
0.0
  0
LINE
  5
7503C
330
754AB
100
AcDbEntity
  8
Level 63
  6
Continuous
 62
     7
370
    13
100
AcDbLine
 10
-9.988684803452997
 20
0.6547245274678062
 30
0.0
 11
-9.988684803452997
 21
-5.845275472532193
 31
0.0
  0
LINE
  5
7503D
330
754AB
100
AcDbEntity
  8
Level 63
  6
Continuous
 62
     7
370
    13
100
AcDbLine
 10
-10.488684803453
 20
0.6547245274678062
 30
0.0
 11
-10.488684803453
 21
-5.845275472532193
 31
0.0
  0
LWPOLYLINE
  5
7503E
330
754AB
100
AcDbEntity
  8
Level 63
  6
Continuous
 62
     7
370
    13
100
AcDbPolyline
 90
        3
 70
   128
 43
0.0
 10
-8.488684803452997
 20
-14.34527547253219
 10
-9.688684803451906
 20
-14.34527547253219
 10
-9.688684803451906
 20
-5.845275472532193
  0
LINE
  5
7503F
330
754AB
100
AcDbEntity
  8
Level 63
  6
Continuous
 62
     7
370
    13
100
AcDbLine
 10
-9.188684803451906
 20
-14.34527547253219
 30
0.0
 11
-9.188684803451906
 21
-5.845275472532193
 31
0.0
  0
LINE
  5
75040
330
754AB
100
AcDbEntity
  8
Level 63
  6
Continuous
 62
     7
370
    13
100
AcDbLine
 10
-9.688684803451906
 20
-11.84527547253219
 30
0.0
 11
-8.488684803452997
 21
-11.84527547253219
 31
0.0
  0
LINE
  5
75041
330
754AB
100
AcDbEntity
  8
Level 63
  6
Continuous
 62
     7
370
    13
100
AcDbLine
 10
-9.688684803451906
 20
-8.345275472532193
 30
0.0
 11
-8.488684803452997
 21
-8.345275472532193
 31
0.0
  0
LINE
  5
75042
330
754AB
100
AcDbEntity
  8
Level 63
  6
Continuous
 62
     7
370
    13
100
AcDbLine
 10
-9.688684803451906
 20
-5.845275472532193
 30
0.0
 11
-8.488684803452997
 21
-5.845275472532193
 31
0.0
  0
LINE
  5
75043
330
754AB
100
AcDbEntity
  8
Level 50
  6
Continuous
 62
     7
370
    13
100
AcDbLine
 10
-8.488684803452997
 20
14.35472452746762
 30
0.0
 11
-8.488684803452997
 21
-14.34527547253219
 31
0.0
  0
LINE
  5
75044
330
754AB
100
AcDbEntity
  8
Level 50
  6
Continuous
 62
     7
370
    13
100
AcDbLine
 10
-8.488684803452997
 20
14.35472452746762
 30
0.0
 11
10.011315196547
 21
14.35472452746762
 31
0.0
  0
LINE
  5
75045
330
754AB
100
AcDbEntity
  8
Level 50
  6
Continuous
 62
     7
370
    13
100
AcDbLine
 10
10.011315196547
 20
-14.34527547253219
 30
0.0
 11
10.011315196547
 21
14.35472452746762
 31
0.0
  0
TEXT
  5
75046
330
754AB
100
AcDbEntity
  8
Level 63
  6
Continuous
 62
     7
370
     0
100
AcDbText
 10
-10.13633645636557
 20
-5.60121035074547
 30
0.0
 40
0.25002
  1
Согласовано
 50
89.99999999999998
  7
Style-Arial
 72
     1
 11
-10.26134645636557
 21
-4.547323181577667
 31
0.0
100
AcDbText
 73
     2
  0
TEXT
  5
75047
330
754AB
100
AcDbEntity
  8
Level 63
  6
Continuous
 62
     7
370
     0
100
AcDbText
 10
-9.343662816965409
 20
-14.12450393567935
 30
0.0
 40
0.25002
  1
Инв. № подл.
 50
89.99999999999998
  7
Style-Arial
 72
     1
 11
-9.468672816965408
 21
-13.0328408933874
 31
0.0
100
AcDbText
 73
     2
  0
TEXT
  5
75048
330
754AB
100
AcDbEntity
  8
Level 63
  6
Continuous
 62
     7
370
     0
100
AcDbText
 10
-9.334501370741893
 20
-11.17420177296373
 30
0.0
 40
0.25002
  1
Подп. и дата
 50
89.99999999999998
  7
Style-Arial
 72
     1
 11
-9.459511370741893
 21
-10.1358342627318
 31
0.0
100
AcDbText
 73
     2
  0
TEXT
  5
75049
330
754AB
100
AcDbEntity
  8
Level 63
  6
Continuous
 62
     7
370
     0
100
AcDbText
 10
-9.338125679137849
 20
-8.17508956455503
 30
0.0
 40
0.25002
  1
Взам. инв. №
 50
89.99999999999998
  7
Style-Arial
 72
     1
 11
-9.463135679137849
 21
-7.093147627310827
 31
0.0
100
AcDbText
 73
     2
  0
LINE
  5
7504A
330
754AB
100
AcDbEntity
  8
Level 50
  6
Continuous
 62
     7
370
    13
100
AcDbLine
 10
9.011315196547002
 20
13.6547245274678
 30
0.0
 11
9.011315196547002
 21
14.35472452746762
 31
0.0
  0
LINE
  5
7504B
330
754AB
100
AcDbEntity
  8
Level 50
  6
Continuous
 62
     7
370
    13
100
AcDbLine
 10
9.011315196547002
 20
13.6547245274678
 30
0.0
 11
10.011315196547
 21
13.6547245274678
 31
0.0
  0
MTEXT
  5
7504C
330
754AB
100
AcDbEntity
  8
0
  6
Continuous
 62
     7
370
     0
100
AcDbMText
 10
7.559441379880809
 20
-14.64636629412052
 30
0.0
 40
0.25
 41
0.0
 46
0.0
 71
     5
 72
     1
  1
Формат А4
  7
Style-Arial
 73
     2
 44
1.214482758621396
  0
LINE
  5
7504E
330
754AB
100
AcDbEntity
  8
Level 63
  6
Continuous
 62
     7
370
    13
100
AcDbLine
 10
-8.488684803452997
 20
-14.34527547253219
 30
0.0
 11
10.011315196547
 21
-14.34527547253219
 31
0.0
  0
LINE
  5
7504F
330
754AB
100
AcDbEntity
  8
Level 63
  6
Continuous
 62
     7
370
    13
100
AcDbLine
 10
-8.488684803452997
 20
-8.845275472534012
 30
0.0
 11
10.011315196547
 21
-8.845275472534012
 31
0.0
  0
LINE
  5
75050
330
754AB
100
AcDbEntity
  8
Level 63
  6
Continuous
 62
     7
370
    13
100
AcDbLine
 10
-1.988684803456635
 20
-9.845275472539469
 30
0.0
 11
10.011315196547
 21
-9.845275472539469
 31
0.0
  0
LINE
  5
75051
330
754AB
100
AcDbEntity
  8
Level 63
  6
Continuous
 62
     7
370
     0
100
AcDbLine
 10
-8.488684803452997
 20
-9.345275472536741
 30
0.0
 11
-1.988684803456635
 21
-9.345275472536741
 31
0.0
  0
LINE
  5
75052
330
754AB
100
AcDbEntity
  8
Level 63
  6
Continuous
 62
     7
370
     0
100
AcDbLine
 10
-8.488684803452997
 20
-9.845275472539469
 30
0.0
 11
-1.988684803456635
 21
-9.845275472539469
 31
0.0
  0
LINE
  5
75053
330
754AB
100
AcDbEntity
  8
Level 63
  6
Continuous
 62
     7
370
     0
100
AcDbLine
 10
-8.488684803452997
 20
-10.34527547254583
 30
0.0
 11
-1.988684803456635
 21
-10.34527547254583
 31
0.0
  0
LINE
  5
75054
330
754AB
100
AcDbEntity
  8
Level 63
  6
Continuous
 62
     7
370
    13
100
AcDbLine
 10
-8.488684803452997
 20
-10.84527547255129
 30
0.0
 11
-1.988684803456635
 21
-10.84527547255129
 31
0.0
  0
LINE
  5
75055
330
754AB
100
AcDbEntity
  8
Level 63
  6
Continuous
 62
     7
370
    13
100
AcDbLine
 10
-4.488684803452997
 20
-8.845275472534012
 30
0.0
 11
-4.488684803452997
 21
-14.34527547253401
 31
0.0
  0
LINE
  5
75056
330
754AB
100
AcDbEntity
  8
Level 63
  6
Continuous
 62
     7
370
    13
100
AcDbLine
 10
-8.488684803452997
 20
-8.845275472534012
 30
0.0
 11
-8.488684803452997
 21
-14.34527547253401
 31
0.0
  0
LINE
  5
75057
330
754AB
100
AcDbEntity
  8
Level 63
  6
Continuous
 62
     7
370
    13
100
AcDbLine
 10
-7.488684803452997
 20
-8.845275472534012
 30
0.0
 11
-7.488684803452997
 21
-11.34527547252764
 31
0.0
  0
LINE
  5
75058
330
754AB
100
AcDbEntity
  8
Level 63
  6
Continuous
 62
     7
370
    13
100
AcDbLine
 10
-6.488684803452997
 20
-8.845275472534012
 30
0.0
 11
-6.488684803452997
 21
-14.34527547253401
 31
0.0
  0
LINE
  5
75059
330
754AB
100
AcDbEntity
  8
Level 63
  6
Continuous
 62
     7
370
    13
100
AcDbLine
 10
-5.488684803452997
 20
-8.845275472534012
 30
0.0
 11
-5.488684803452997
 21
-11.34527547252764
 31
0.0
  0
LINE
  5
7505A
330
754AB
100
AcDbEntity
  8
Level 63
  6
Continuous
 62
     7
370
    13
100
AcDbLine
 10
-2.988684803456635
 20
-8.845275472534012
 30
0.0
 11
-2.988684803456635
 21
-14.34527547253401
 31
0.0
  0
LINE
  5
7505B
330
754AB
100
AcDbEntity
  8
Level 63
  6
Continuous
 62
     7
370
    13
100
AcDbLine
 10
-1.988684803456635
 20
-8.845275472534012
 30
0.0
 11
-1.988684803456635
 21
-14.34527547253401
 31
0.0
  0
TEXT
  5
7505C
330
754AB
100
AcDbEntity
  8
Level 63
  6
Continuous
 62
     7
370
     0
100
AcDbText
 10
-8.35578430745905
 20
-11.20526547253394
 30
0.0
 40
0.25
  1
Изм.
  7
Style-Arial
 72
     1
 11
-7.981636967759186
 21
-11.08026547253394
 31
0.0
100
AcDbText
 73
     2
  0
TEXT
  5
7505D
330
754AB
100
AcDbEntity
  8
Level 63
  6
Continuous
 62
     7
370
     0
100
AcDbText
 10
-7.531857761175832
 20
-11.20526547253394
 30
0.0
 40
0.25
  1
Кол.уч
  7
Style-Arial
 72
     1
 11
-7.004316833481425
 21
-11.08026547253394
 31
0.0
100
AcDbText
 73
     2
  0
TEXT
  5
7505E
330
754AB
100
AcDbEntity
  8
Level 63
  6
Continuous
 62
     7
370
     0
100
AcDbText
 10
-6.345352991265484
 20
-11.20526547253394
 30
0.0
 40
0.25
  1
Лист
  7
Style-Arial
 72
     1
 11
-5.965919157704774
 21
-11.08026547253394
 31
0.0
100
AcDbText
 73
     2
  0
TEXT
  5
7505F
330
754AB
100
AcDbEntity
  8
Level 63
  6
Continuous
 62
     7
370
     0
100
AcDbText
 10
-5.519637227654344
 20
-11.20526547253394
 30
0.0
 40
0.25
  1
№ док
  7
Style-Arial
 72
     1
 11
-5.007017855212325
 21
-11.08026547253394
 31
0.0
100
AcDbText
 73
     2
  0
TEXT
  5
75060
330
754AB
100
AcDbEntity
  8
Level 63
  6
Continuous
 62
     7
370
     0
100
AcDbText
 10
-4.427936674869236
 20
-11.20526547253394
 30
0.0
 40
0.25
  1
Подпись
  7
Style-Arial
 72
     1
 11
-3.73301853025805
 21
-11.08026547253394
 31
0.0
100
AcDbText
 73
     2
  0
TEXT
  5
75061
330
754AB
100
AcDbEntity
  8
Level 63
  6
Continuous
 62
     7
370
     0
100
AcDbText
 10
-2.87002094849061
 20
-11.20526547253394
 30
0.0
 40
0.25
  1
Дата
  7
Style-Arial
 72
     1
 11
-2.477541412337814
 21
-11.08026547253394
 31
0.0
100
AcDbText
 73
     2
  0
LINE
  5
75062
330
754AB
100
AcDbEntity
  8
Level 63
  6
Continuous
 62
     7
370
    13
100
AcDbLine
 10
-8.488684803452997
 20
-11.34527547252764
 30
0.0
 11
-1.988684803456635
 21
-11.34527547252764
 31
0.0
  0
LINE
  5
75063
330
754AB
100
AcDbEntity
  8
Level 63
  6
Continuous
 62
     7
370
     0
100
AcDbLine
 10
-8.488684803452997
 20
-11.84527547253401
 30
0.0
 11
-1.988684803456635
 21
-11.84527547253401
 31
0.0
  0
LINE
  5
75064
330
754AB
100
AcDbEntity
  8
Level 63
  6
Continuous
 62
     7
370
     0
100
AcDbLine
 10
-8.488684803452997
 20
-12.34527547253947
 30
0.0
 11
-1.988684803456635
 21
-12.34527547253947
 31
0.0
  0
LINE
  5
75065
330
754AB
100
AcDbEntity
  8
Level 63
  6
Continuous
 62
     7
370
     0
100
AcDbLine
 10
-8.488684803452997
 20
-12.8452754725422
 30
0.0
 11
-1.988684803456635
 21
-12.8452754725422
 31
0.0
  0
LINE
  5
75066
330
754AB
100
AcDbEntity
  8
Level 63
  6
Continuous
 62
     7
370
     0
100
AcDbLine
 10
-8.488684803452997
 20
-13.34527547254583
 30
0.0
 11
-1.988684803456635
 21
-13.34527547254583
 31
0.0
  0
LINE
  5
75067
330
754AB
100
AcDbEntity
  8
Level 63
  6
Continuous
 62
     7
370
     0
100
AcDbLine
 10
-8.488684803452997
 20
-13.84527547255129
 30
0.0
 11
-1.988684803456635
 21
-13.84527547255129
 31
0.0
  0
TEXT
  5
75068
330
754AB
100
AcDbEntity
  8
Level 63
  6
Continuous
 62
     7
370
     0
100
AcDbText
 10
-8.329645382973717
 20
-12.19895884914422
 30
0.0
 40
0.25
  1
Провер.
  7
Style-Arial
 72
     1
 11
-7.674375942318874
 21
-12.07395884914422
 31
0.0
100
AcDbText
 73
     2
  0
TEXT
  5
75069
330
754AB
100
AcDbEntity
  8
Level 63
  6
Continuous
 62
     7
370
     0
100
AcDbText
 10
-8.333261976529184
 20
-11.70122778418681
 30
0.0
 40
0.25
  1
Разработ.
  7
Style-Arial
 72
     1
 11
-7.519738784169021
 21
-11.57622778418681
 31
0.0
100
AcDbText
 73
     2
  0
TEXT
  5
7506A
330
754AB
100
AcDbEntity
  8
Level 63
  6
Continuous
 62
     7
370
     0
100
AcDbText
 10
-8.331911141245903
 20
-13.70526547253121
 30
0.0
 40
0.25
  1
Н. контр.
  7
Style-Arial
 72
     1
 11
-7.613203774260909
 21
-13.58026547253121
 31
0.0
100
AcDbText
 73
     2
  0
TEXT
  5
7506B
330
754AB
100
AcDbEntity
  8
Level 63
  6
Continuous
 62
     7
370
     0
100
AcDbText
 10
-8.329112424336507
 20
-12.68618865445296
 30
0.0
 40
0.25
  1
Гл. спец.
  7
Style-Arial
 72
     1
 11
-7.608102874541145
 21
-12.56118865445296
 31
0.0
100
AcDbText
 73
     2
  0
TEXT
  5
7506C
330
754AB
100
AcDbEntity
  8
Level 63
  6
Continuous
 62
     7
370
     0
100
AcDbText
 10
-8.301348006778374
 20
-14.17207537253489
 30
0.0
 40
0.25
  1
Утв.
  7
Style-Arial
 72
     1
 11
-7.969151553845222
 21
-14.04707537253489
 31
0.0
100
AcDbText
 73
     2
  0
TEXT
  5
7506D
330
754AB
100
AcDbEntity
  8
Level 63
  6
Continuous
 62
     7
370
     0
100
AcDbText
 10
-8.324036319007165
 20
-13.22769212686398
 30
0.0
 40
0.25
  1
ГАП
  7
Style-Arial
 72
     1
 11
-7.987491298543318
 21
-13.10269212686398
 31
0.0
100
AcDbText
 73
     2
  0
LINE
  5
7506E
330
754AB
100
AcDbEntity
  8
Level 63
  6
Continuous
 62
     7
370
    13
100
AcDbLine
 10
-1.988684803456635
 20
-12.8452754725422
 30
0.0
 11
10.011315196547
 21
-12.8452754725422
 31
0.0
  0
LINE
  5
7506F
330
754AB
100
AcDbEntity
  8
Level 63
  6
Continuous
 62
     7
370
    13
100
AcDbLine
 10
-1.988684803456635
 20
-11.34527547252764
 30
0.0
 11
10.011315196547
 21
-11.34527547252764
 31
0.0
  0
LWPOLYLINE
  5
75070
330
754AB
100
AcDbEntity
  8
Level 63
  6
Continuous
 62
     7
370
    13
100
AcDbPolyline
 90
        2
 70
   128
 43
0.0
 10
6.511315196547002
 20
-11.34527547252764
 10
6.511315196547002
 20
-12.8452754725422
  0
LWPOLYLINE
  5
75071
330
754AB
100
AcDbEntity
  8
Level 63
  6
Continuous
 62
     7
370
    13
100
AcDbPolyline
 90
        2
 70
   128
 43
0.0
 10
8.011315196543364
 20
-11.34527547252764
 10
8.011315196543364
 20
-12.8452754725422
  0
TEXT
  5
75072
330
754AB
100
AcDbEntity
  8
Level 63
  6
Continuous
 62
     7
370
     0
100
AcDbText
 10
5.132556673308591
 20
-11.69526547253735
 30
0.0
 40
0.25
  1
Стадия
  7
Style-Arial
 72
     1
 11
5.729759947524144
 21
-11.57026547253735
 31
0.0
100
AcDbText
 73
     2
  0
TEXT
  5
75073
330
754AB
100
AcDbEntity
  8
Level 63
  6
Continuous
 62
     7
370
     0
100
AcDbText
 10
6.894647008737935
 20
-11.69526547253735
 30
0.0
 40
0.25
  1
Лист
  7
Style-Arial
 72
     1
 11
7.274080842298644
 21
-11.57026547253735
 31
0.0
100
AcDbText
 73
     2
  0
TEXT
  5
75074
330
754AB
100
AcDbEntity
  8
Level 63
  6
Continuous
 62
     7
370
     0
100
AcDbText
 10
8.438250610924711
 20
-11.69526547253735
 30
0.0
 40
0.25
  1
Листов
  7
Style-Arial
 72
     1
 11
9.007571893325803
 21
-11.57026547253735
 31
0.0
100
AcDbText
 73
     2
  0
LINE
  5
75075
330
754AB
100
AcDbEntity
  8
Level 63
  6
Continuous
 62
     7
370
    13
100
AcDbLine
 10
5.011315196543364
 20
-11.84527547253401
 30
0.0
 11
10.011315196547
 21
-11.84527547253401
 31
0.0
  0
LWPOLYLINE
  5
75076
330
754AB
100
AcDbEntity
  8
Level 63
  6
Continuous
 62
     7
370
    13
100
AcDbPolyline
 90
        2
 70
   128
 43
0.0
 10
5.011315196543364
 20
-11.34527547252764
 10
5.011315196543364
 20
-14.34527547253401
  0
MTEXT
  5
75077
330
754AB
100
AcDbEntity
  8
Level 63
  6
Continuous
 62
     7
370
     0
100
AcDbMText
 10
7.434259575737087
 20
-13.59744329667774
 30
0.0
 40
0.25
 41
0.0
 46
0.0
 71
     5
 72
     1
  1
\fArial|b0|i0|c204204|p39;ООО "НеваПроект"
  7
GOST 2.304
 73
     2
 44
0.6
  0
ENDBLK
  5
754AD
330
754AB
100
AcDbEntity
  8
0
 62
     1
370
     0
100
AcDbBlockEnd
  0
ENDSEC
  0
SECTION
  2
ENTITIES
  0
INSERT
  5
75004
330
725B7
100
AcDbEntity
  8
0
  6
Continuous
 62
     7
370
     0
100
AcDbBlockReference
  2
*U58
 10
14873.28859383462
 20
5646.870997198328
 30
0.0
  0
INSERT
  5
7502F
330
725B7
100
AcDbEntity
  8
0
  6
Continuous
 62
     7
370
     0
100
AcDbBlockReference
  2
формат А4_1
 10
14856.88682550128
 20
5652.383166957783
 30
0.0
  0
TEXT
  5
75078
330
725B7
100
AcDbEntity
  8
0
  6
Continuous
 62
     7
370
    13
100
AcDbText
 10
14866.64200340874
 20
5647.321234194143
 30
0.0
 40
0.25
  1
2
  7
Style-Arial
 72
     1
 11
14866.73912141693
 21
5647.446234194142
 31
0.0
100
AcDbText
 73
     2
  0
CIRCLE
  5
75079
330
725B7
100
AcDbEntity
  8
0
  6
Continuous
 62
     7
370
     0
100
AcDbCircle
 10
14866.74597318521
 20
5647.42577692886
 30
0.0
 40
0.2699948659471636
  0
LINE
  5
7507A
330
725B7
100
AcDbEntity
  8
0
  6
Continuous
 62
     7
370
    30
100
AcDbLine
 10
14859.15972706505
 20
5649.828793566377
 30
0.0
 11
14860.45150820195
 21
5649.828793566377
 31
0.0
  0
LINE
  5
7507B
330
725B7
100
AcDbEntity
  8
0
  6
Continuous
 62
     7
370
    30
100
AcDbLine
 10
14865.26150820195
 20
5649.828793566377
 30
0.0
 11
14866.82150820195
 21
5649.828793566377
 31
0.0
  0
LINE
  5
7507C
330
725B7
100
AcDbEntity
  8
0
  6
Continuous
 62
     7
370
    30
100
AcDbLine
 10
14868.67150820195
 20
5649.828793566376
 30
0.0
 11
14870.27150820195
 21
5649.828793566377
 31
0.0
  0
LINE
  5
7507D
330
725B7
100
AcDbEntity
  8
0
  6
Continuous
 62
     7
370
    30
100
AcDbLine
 10
14872.09150820195
 20
5649.828793566377
 30
0.0
 11
14877.03150820195
 21
5649.828793566378
 31
0.0
  0
LINE
  5
7507E
330
725B7
100
AcDbEntity
  8
0
  6
Continuous
 62
     7
370
    30
100
AcDbLine
 10
14859.80150820195
 20
5649.318793566376
 30
0.0
 11
14860.45150820195
 21
5649.318793566376
 31
0.0
  0
LINE
  5
7507F
330
725B7
100
AcDbEntity
  8
0
  6
Continuous
 62
     7
370
    30
100
AcDbLine
 10
14865.26150820195
 20
5649.318793566376
 30
0.0
 11
14866.82150820195
 21
5649.318793566376
 31
0.0
  0
LINE
  5
75080
330
725B7
100
AcDbEntity
  8
0
  6
Continuous
 62
     7
370
    30
100
AcDbLine
 10
14868.67150820195
 20
5649.318793566376
 30
0.0
 11
14870.27150820195
 21
5649.318793566376
 31
0.0
  0
LINE
  5
75081
330
725B7
100
AcDbEntity
  8
0
  6
Continuous
 62
     7
370
    30
100
AcDbLine
 10
14872.09150820196
 20
5649.318793566376
 30
0.0
 11
14876.52150820195
 21
5649.318793566376
 31
0.0
  0
LINE
  5
75082
330
725B7
100
AcDbEntity
  8
0
  6
Continuous
 62
     7
370
    13
100
AcDbLine
 10
14865.26150820195
 20
5649.318793566376
 30
0.0
 11
14865.26150820195
 21
5645.818793566377
 31
0.0
  0
LINE
  5
75083
330
725B7
100
AcDbEntity
  8
0
  6
Continuous
 62
     7
370
     0
100
AcDbLine
 10
14864.84150820195
 20
5647.888793566377
 30
0.0
 11
14864.84150820195
 21
5647.238793566376
 31
0.0
  0
LINE
  5
75084
330
725B7
100
AcDbEntity
  8
0
  6
Continuous
 62
     7
370
    13
100
AcDbLine
 10
14865.46150820195
 20
5649.318793566376
 30
0.0
 11
14865.46150820195
 21
5646.018793566376
 31
0.0
  0
LINE
  5
75085
330
725B7
100
AcDbEntity
  8
0
  6
Continuous
 62
     7
370
    13
100
AcDbLine
 10
14865.73312295514
 20
5646.168793566374
 30
0.0
 11
14865.73312295514
 21
5646.018793566376
 31
0.0
  0
LINE
  5
75086
330
725B7
100
AcDbEntity
  8
0
  6
Continuous
 62
     7
370
    13
100
AcDbLine
 10
14865.96150820195
 20
5646.168793566374
 30
0.0
 11
14865.96150820195
 21
5646.018793566376
 31
0.0
  0
LINE
  5
75087
330
725B7
100
AcDbEntity
  8
0
  6
Continuous
 62
     7
370
    13
100
AcDbLine
 10
14865.26150820195
 20
5645.818793566377
 30
0.0
 11
14868.05150820195
 21
5645.818793566377
 31
0.0
  0
LINE
  5
75088
330
725B7
100
AcDbEntity
  8
0
  6
Continuous
 62
     7
370
    13
100
AcDbLine
 10
14868.25150820195
 20
5645.818793566377
 30
0.0
 11
14868.87150820195
 21
5645.818793566376
 31
0.0
  0
LINE
  5
75089
330
725B7
100
AcDbEntity
  8
0
  6
Continuous
 62
     7
370
    13
100
AcDbLine
 10
14868.05150820195
 20
5645.388793566376
 30
0.0
 11
14868.25150820195
 21
5645.388793566377
 31
0.0
  0
LINE
  5
7508A
330
725B7
100
AcDbEntity
  8
0
  6
Continuous
 62
     7
370
    13
100
AcDbLine
 10
14868.05150820195
 20
5644.098793566376
 30
0.0
 11
14868.25150820196
 21
5644.098793566377
 31
0.0
  0
LINE
  5
7508B
330
725B7
100
AcDbEntity
  8
0
  6
Continuous
 62
     7
370
    13
100
AcDbLine
 10
14868.67150820195
 20
5646.238793566375
 30
0.0
 11
14868.87150820195
 21
5646.238793566375
 31
0.0
  0
LINE
  5
7508C
330
725B7
100
AcDbEntity
  8
0
  6
Continuous
 62
     7
370
    13
100
AcDbLine
 10
14868.67150820195
 20
5647.218793566375
 30
0.0
 11
14868.87150820195
 21
5647.218793566375
 31
0.0
  0
LINE
  5
7508D
330
725B7
100
AcDbEntity
  8
0
  6
Continuous
 62
     7
370
    13
100
AcDbLine
 10
14868.67150820195
 20
5647.688793566375
 30
0.0
 11
14868.87150820195
 21
5647.688793566375
 31
0.0
  0
LINE
  5
7508E
330
725B7
100
AcDbEntity
  8
0
  6
Continuous
 62
     7
370
    13
100
AcDbLine
 10
14868.67150820195
 20
5648.688793566375
 30
0.0
 11
14868.87150820195
 21
5648.688793566375
 31
0.0
  0
LINE
  5
7508F
330
725B7
100
AcDbEntity
  8
0
  6
Continuous
 62
     7
370
    13
100
AcDbLine
 10
14865.46150820195
 20
5646.018793566376
 30
0.0
 11
14868.67150820196
 21
5646.018793566376
 31
0.0
  0
LINE
  5
75090
330
725B7
100
AcDbEntity
  8
0
  6
Continuous
 62
     7
370
    13
100
AcDbLine
 10
14865.73312295514
 20
5646.168793566376
 30
0.0
 11
14865.96150820195
 21
5646.168793566376
 31
0.0
  0
LINE
  5
75091
330
725B7
100
AcDbEntity
  8
0
  6
Continuous
 62
     7
370
    13
100
AcDbLine
 10
14868.05150820195
 20
5645.818793566377
 30
0.0
 11
14868.05150820195
 21
5645.388793566374
 31
0.0
  0
LINE
  5
75092
330
725B7
100
AcDbEntity
  8
0
  6
Continuous
 62
     7
370
    13
100
AcDbLine
 10
14868.05150820195
 20
5644.098793566374
 30
0.0
 11
14868.05150820195
 21
5643.838793566377
 31
0.0
  0
LINE
  5
75093
330
725B7
100
AcDbEntity
  8
0
  6
Continuous
 62
     7
370
    13
100
AcDbLine
 10
14868.25150820195
 20
5645.818793566377
 30
0.0
 11
14868.25150820195
 21
5645.388793566375
 31
0.0
  0
LINE
  5
75094
330
725B7
100
AcDbEntity
  8
0
  6
Continuous
 62
     7
370
    13
100
AcDbLine
 10
14868.25150820195
 20
5644.098793566374
 30
0.0
 11
14868.25150820195
 21
5643.838793566377
 31
0.0
  0
LINE
  5
75095
330
725B7
100
AcDbEntity
  8
0
  6
Continuous
 62
     7
370
    30
100
AcDbLine
 10
14876.52150820195
 20
5649.318793566376
 30
0.0
 11
14876.52150820195
 21
5643.838793566377
 31
0.0
  0
LINE
  5
75096
330
725B7
100
AcDbEntity
  8
0
  6
Continuous
 62
     7
370
    30
100
AcDbLine
 10
14876.00150820195
 20
5643.838793566377
 30
0.0
 11
14876.00150820195
 21
5643.438793566378
 31
0.0
  0
LINE
  5
75097
330
725B7
100
AcDbEntity
  8
0
  6
Continuous
 62
     7
370
    30
100
AcDbLine
 10
14875.02150820195
 20
5643.688793566376
 30
0.0
 11
14875.02150820195
 21
5643.438793566378
 31
0.0
  0
LINE
  5
75098
330
725B7
100
AcDbEntity
  8
0
  6
Continuous
 62
     7
370
    30
100
AcDbLine
 10
14874.87150820195
 20
5643.838793566377
 30
0.0
 11
14874.87150820195
 21
5643.688793566377
 31
0.0
  0
LINE
  5
75099
330
725B7
100
AcDbEntity
  8
0
  6
Continuous
 62
     7
370
    30
100
AcDbLine
 10
14876.52150820194
 20
5643.438793566378
 30
0.0
 11
14876.52150820194
 21
5640.973165916741
 31
0.0
  0
LINE
  5
7509A
330
725B7
100
AcDbEntity
  8
0
  6
Continuous
 62
     7
370
    13
100
AcDbLine
 10
14872.72150820196
 20
5643.438793566399
 30
0.0
 11
14872.72150820194
 21
5641.588793566377
 31
0.0
  0
LINE
  5
7509B
330
725B7
100
AcDbEntity
  8
0
  6
Continuous
 62
     7
370
    30
100
AcDbLine
 10
14877.03150820195
 20
5649.828793566377
 30
0.0
 11
14877.03150820195
 21
5640.973165916741
 31
0.0
  0
LINE
  5
7509C
330
725B7
100
AcDbEntity
  8
0
  6
Continuous
 62
     7
370
    13
100
AcDbLine
 10
14868.87150820195
 20
5649.318793566376
 30
0.0
 11
14868.87150820195
 21
5648.688793566375
 31
0.0
  0
LINE
  5
7509D
330
725B7
100
AcDbEntity
  8
0
  6
Continuous
 62
     7
370
    13
100
AcDbLine
 10
14868.87150820195
 20
5647.688793566374
 30
0.0
 11
14868.87150820195
 21
5647.218793566374
 31
0.0
  0
LINE
  5
7509E
330
725B7
100
AcDbEntity
  8
0
  6
Continuous
 62
     7
370
    13
100
AcDbLine
 10
14868.87150820195
 20
5646.238793566375
 30
0.0
 11
14868.87150820195
 21
5645.818793566377
 31
0.0
  0
LINE
  5
7509F
330
725B7
100
AcDbEntity
  8
0
  6
Continuous
 62
     7
370
    30
100
AcDbLine
 10
14870.27150820195
 20
5649.828793566378
 30
0.0
 11
14870.27150820195
 21
5649.318793566378
 31
0.0
  0
LINE
  5
750A0
330
725B7
100
AcDbEntity
  8
0
  6
Continuous
 62
     7
370
    30
100
AcDbLine
 10
14872.09150820195
 20
5649.828793566378
 30
0.0
 11
14872.09150820195
 21
5649.318793566378
 31
0.0
  0
LINE
  5
750A1
330
725B7
100
AcDbEntity
  8
0
  6
Continuous
 62
     7
370
    30
100
AcDbLine
 10
14868.67150820195
 20
5649.828793566377
 30
0.0
 11
14868.67150820195
 21
5649.318793566376
 31
0.0
  0
LINE
  5
750A2
330
725B7
100
AcDbEntity
  8
0
  6
Continuous
 62
     7
370
    13
100
AcDbLine
 10
14868.67150820195
 20
5647.688793566374
 30
0.0
 11
14868.67150820195
 21
5647.218793566375
 31
0.0
  0
LINE
  5
750A3
330
725B7
100
AcDbEntity
  8
0
  6
Continuous
 62
     7
370
    13
100
AcDbLine
 10
14868.67150820195
 20
5646.238793566375
 30
0.0
 11
14868.67150820196
 21
5646.018793566376
 31
0.0
  0
LINE
  5
750A4
330
725B7
100
AcDbEntity
  8
0
  6
Continuous
 62
     7
370
    30
100
AcDbLine
 10
14866.82150820195
 20
5649.828793566374
 30
0.0
 11
14866.82150820195
 21
5649.318793566376
 31
0.0
  0
LINE
  5
750A5
330
725B7
100
AcDbEntity
  8
0
  6
Continuous
 62
     7
370
    30
100
AcDbLine
 10
14859.80150820195
 20
5643.838793566377
 30
0.0
 11
14860.40150820195
 21
5643.838793566377
 31
0.0
  0
LINE
  5
750A6
330
725B7
100
AcDbEntity
  8
0
  6
Continuous
 62
     7
370
    30
100
AcDbLine
 10
14876.00150820195
 20
5643.838793566377
 30
0.0
 11
14876.52150820195
 21
5643.838793566377
 31
0.0
  0
LINE
  5
750A7
330
725B7
100
AcDbEntity
  8
0
  6
Continuous
 62
     7
370
    30
100
AcDbLine
 10
14874.87150820196
 20
5643.688793566378
 30
0.0
 11
14875.02150820195
 21
5643.688793566377
 31
0.0
  0
LINE
  5
750A8
330
725B7
100
AcDbEntity
  8
0
  6
Continuous
 62
     7
370
    30
100
AcDbLine
 10
14859.15972706505
 20
5643.438793566375
 30
0.0
 11
14860.40150820195
 21
5643.438793566375
 31
0.0
  0
LINE
  5
750A9
330
725B7
100
AcDbEntity
  8
0
  6
Continuous
 62
     7
370
    30
100
AcDbLine
 10
14876.00150820196
 20
5643.438793566377
 30
0.0
 11
14876.52150820195
 21
5643.438793566378
 31
0.0
  0
LINE
  5
750AA
330
725B7
100
AcDbEntity
  8
0
  6
Continuous
 62
     7
370
    13
100
AcDbLine
 10
14872.72150820194
 20
5641.588793566377
 30
0.0
 11
14876.52150820195
 21
5641.588793566377
 31
0.0
  0
LINE
  5
750AB
330
725B7
100
AcDbEntity
  8
0
  6
Continuous
 62
     7
370
    30
100
AcDbLine
 10
14863.41150820195
 20
5649.828793566374
 30
0.0
 11
14863.41150820195
 21
5649.318793566376
 31
0.0
  0
LINE
  5
750AC
330
725B7
100
AcDbEntity
  8
0
  6
Continuous
 62
     7
370
     0
100
AcDbLine
 10
14876.28256173586
 20
5640.973165916741
 30
0.0
 11
14876.74133371352
 21
5640.973165916741
 31
0.0
  0
LINE
  5
750AD
330
725B7
100
AcDbEntity
  8
0
  6
Continuous
 62
     7
370
     0
100
AcDbLine
 10
14876.83019696049
 20
5640.973165916741
 30
0.0
 11
14877.25666643412
 21
5640.973165916741
 31
0.0
  0
LWPOLYLINE
  5
750AE
330
725B7
100
AcDbEntity
  8
0
  6
Continuous
 62
     7
370
     0
100
AcDbPolyline
 90
        4
 70
   128
 43
0.0
 10
14876.74133371352
 20
5640.97316591674
 10
14876.7662124769
 20
5641.106740967838
 10
14876.80182724781
 20
5640.833805103389
 10
14876.83019696049
 20
5640.97316591674
  0
LINE
  5
750AF
330
725B7
100
AcDbEntity
  8
0
  6
Continuous
 62
     7
370
    13
100
AcDbLine
 10
14863.41150820195
 20
5649.828793566374
 30
0.0
 11
14865.26150820195
 21
5649.828793566374
 31
0.0
  0
LINE
  5
750B0
330
725B7
100
AcDbEntity
  8
0
  6
Continuous
 62
     7
370
    13
100
AcDbLine
 10
14863.41150820195
 20
5649.728793566374
 30
0.0
 11
14865.26150820195
 21
5649.728793566374
 31
0.0
  0
LINE
  5
750B1
330
725B7
100
AcDbEntity
  8
0
  6
Continuous
 62
     7
370
    13
100
AcDbLine
 10
14863.41150820195
 20
5649.628793566373
 30
0.0
 11
14865.26150820195
 21
5649.628793566373
 31
0.0
  0
LINE
  5
750B2
330
725B7
100
AcDbEntity
  8
0
  6
Continuous
 62
     7
370
    13
100
AcDbLine
 10
14863.41150820195
 20
5649.318793566376
 30
0.0
 11
14865.26150820195
 21
5649.318793566376
 31
0.0
  0
LINE
  5
750B3
330
725B7
100
AcDbEntity
  8
0
  6
Continuous
 62
     7
370
     0
100
AcDbLine
 10
14864.84150820195
 20
5647.888793566377
 30
0.0
 11
14865.26150820195
 21
5647.888793566377
 31
0.0
  0
LINE
  5
750B4
330
725B7
100
AcDbEntity
  8
0
  6
Continuous
 62
     7
370
     0
100
AcDbLine
 10
14864.84150820195
 20
5647.238793566376
 30
0.0
 11
14865.26150820195
 21
5647.238793566376
 31
0.0
  0
LINE
  5
750B5
330
725B7
100
AcDbEntity
  8
0
  6
Continuous
 62
     7
370
    13
100
AcDbLine
 10
14866.82150820195
 20
5649.318793566376
 30
0.0
 11
14868.67150820195
 21
5649.318793566376
 31
0.0
  0
LINE
  5
750B6
330
725B7
100
AcDbEntity
  8
0
  6
Continuous
 62
     7
370
    13
100
AcDbLine
 10
14866.82150820195
 20
5649.828793566374
 30
0.0
 11
14868.67150820195
 21
5649.828793566374
 31
0.0
  0
LINE
  5
750B7
330
725B7
100
AcDbEntity
  8
0
  6
Continuous
 62
     7
370
     0
100
AcDbLine
 10
14866.82150820195
 20
5649.728793566374
 30
0.0
 11
14868.67150820195
 21
5649.728793566374
 31
0.0
  0
LINE
  5
750B8
330
725B7
100
AcDbEntity
  8
0
  6
Continuous
 62
     7
370
     0
100
AcDbLine
 10
14866.82150820195
 20
5649.628793566375
 30
0.0
 11
14868.67150820195
 21
5649.628793566375
 31
0.0
  0
LINE
  5
750B9
330
725B7
100
AcDbEntity
  8
0
  6
Continuous
 62
     7
370
    13
100
AcDbLine
 10
14870.27150820195
 20
5649.318793566376
 30
0.0
 11
14872.09150820196
 21
5649.318793566376
 31
0.0
  0
LINE
  5
750BA
330
725B7
100
AcDbEntity
  8
0
  6
Continuous
 62
     7
370
    13
100
AcDbLine
 10
14870.27150820195
 20
5649.828793566374
 30
0.0
 11
14872.09150820195
 21
5649.828793566378
 31
0.0
  0
LINE
  5
750BB
330
725B7
100
AcDbEntity
  8
0
  6
Continuous
 62
     7
370
     0
100
AcDbLine
 10
14870.27150820195
 20
5649.728793566374
 30
0.0
 11
14872.09150820195
 21
5649.728793566377
 31
0.0
  0
LINE
  5
750BC
330
725B7
100
AcDbEntity
  8
0
  6
Continuous
 62
     7
370
     0
100
AcDbLine
 10
14870.27150820195
 20
5649.628793566375
 30
0.0
 11
14872.09150820195
 21
5649.628793566378
 31
0.0
  0
TEXT
  5
750BD
330
725B7
100
AcDbEntity
  8
0
  6
Continuous
 62
     7
370
    13
100
AcDbText
 10
14870.60205518202
 20
5646.10782575378
 30
0.0
 40
0.25
  1
1
  7
Style-Arial
 72
     1
 11
14870.69917319021
 21
5646.232825753781
 31
0.0
100
AcDbText
 73
     2
  0
CIRCLE
  5
750BE
330
725B7
100
AcDbEntity
  8
0
  6
Continuous
 62
     7
370
     0
100
AcDbCircle
 10
14870.69985429249
 20
5646.227821880836
 30
0.0
 40
0.2699948659471636
  0
TEXT
  5
750BF
330
725B7
100
AcDbEntity
  8
0
  6
Continuous
 62
     7
370
    13
100
AcDbText
 10
14874.46269503956
 20
5642.2079349102
 30
0.0
 40
0.25
  1
3
  7
Style-Arial
 72
     1
 11
14874.55981304775
 21
5642.3329349102
 31
0.0
100
AcDbText
 73
     2
  0
CIRCLE
  5
750C0
330
725B7
100
AcDbEntity
  8
0
  6
Continuous
 62
     7
370
     0
100
AcDbCircle
 10
14874.56049415003
 20
5642.327931037256
 30
0.0
 40
0.2699948659471636
  0
LINE
  5
750C1
330
725B7
100
AcDbEntity
  8
0
  6
Continuous
 62
     7
370
     0
100
AcDbLine
 10
14868.87150820195
 20
5647.688793566374
 30
0.0
 11
14868.87150820195
 21
5648.688793566375
 31
0.0
  0
LINE
  5
750C2
330
725B7
100
AcDbEntity
  8
0
  6
Continuous
 62
     7
370
     0
100
AcDbLine
 10
14868.67150820195
 20
5648.688793566375
 30
0.0
 11
14868.67150820195
 21
5647.688793566375
 31
0.0
  0
LINE
  5
750C3
330
725B7
100
AcDbEntity
  8
0
  6
Continuous
 62
     7
370
     0
100
AcDbLine
 10
14868.79650820195
 20
5647.688793566375
 30
0.0
 11
14868.79650820195
 21
5648.638793566375
 31
0.0
  0
TEXT
  5
750C4
330
725B7
100
AcDbEntity
  8
0
  6
Continuous
 62
     7
370
    13
100
AcDbText
 10
14867.3788788198
 20
5646.332947063029
 30
0.0
 40
0.25
  1
%%u10.6%%U
  7
Style-Arial
 11
14867.3788788198
 21
5646.582947063029
 31
0.0
100
AcDbText
 73
     3
  0
TEXT
  5
750C5
330
725B7
100
AcDbEntity
  8
0
  6
Continuous
 62
     7
370
    13
100
AcDbText
 10
14875.7861889857
 20
5641.904704472425
 30
0.0
 40
0.25
  1
%%u7.0%%U
  7
Style-Arial
 11
14875.7861889857
 21
5642.154704472424
 31
0.0
100
AcDbText
 73
     3
  0
LINE
  5
750C6
330
725B7
100
AcDbEntity
  8
0
  6
Continuous
 62
     7
370
     0
100
AcDbLine
 10
14873.54150820195
 20
5647.718793566376
 30
0.0
 11
14874.16150820195
 21
5647.718793566379
 31
0.0
  0
LINE
  5
750C7
330
725B7
100
AcDbEntity
  8
0
  6
Continuous
 62
     7
370
     0
100
AcDbLine
 10
14873.54150820196
 20
5646.868793566376
 30
0.0
 11
14874.16150820195
 21
5646.868793566377
 31
0.0
  0
LINE
  5
750C8
330
725B7
100
AcDbEntity
  8
0
  6
Continuous
 62
     7
370
     0
100
AcDbLine
 10
14874.34150820195
 20
5649.318793566376
 30
0.0
 11
14874.34150820195
 21
5643.838793566377
 31
0.0
  0
LINE
  5
750C9
330
725B7
100
AcDbEntity
  8
0
  6
Continuous
 62
     7
370
     0
100
AcDbLine
 10
14873.54150820196
 20
5647.718793566379
 30
0.0
 11
14873.54150820196
 21
5646.868793566376
 31
0.0
  0
LINE
  5
750CA
330
725B7
100
AcDbEntity
  8
0
  6
Continuous
 62
     7
370
    30
100
AcDbLine
 10
14865.26150820195
 20
5649.828793566374
 30
0.0
 11
14865.26150820195
 21
5649.318793566376
 31
0.0
  0
LINE
  5
750CB
330
725B7
100
AcDbEntity
  8
0
  6
Continuous
 62
     7
370
    13
100
AcDbLine
 10
14868.67150820195
 20
5649.318793566376
 30
0.0
 11
14868.67150820195
 21
5648.688793566375
 31
0.0
  0
LINE
  5
750CC
330
725B7
100
AcDbEntity
  8
0
  6
Continuous
 62
     7
370
     0
100
AcDbLine
 10
14874.16150820195
 20
5646.868793566377
 30
0.0
 11
14874.16150820195
 21
5643.838793566377
 31
0.0
  0
LINE
  5
750CD
330
725B7
100
AcDbEntity
  8
0
  6
Continuous
 62
     7
370
     0
100
AcDbLine
 10
14865.51150820195
 20
5649.238793566376
 30
0.0
 11
14874.16150820195
 21
5649.238793566376
 31
0.0
  0
LINE
  5
750CE
330
725B7
100
AcDbEntity
  8
0
  6
Continuous
 62
     7
370
     0
100
AcDbLine
 10
14865.69150820195
 20
5649.058793566376
 30
0.0
 11
14868.44150820195
 21
5649.058793566376
 31
0.0
  0
LINE
  5
7511D
330
725B7
100
AcDbEntity
  8
0
  6
Continuous
 62
     7
370
     0
100
AcDbLine
 10
14868.74650820195
 20
5647.688793566375
 30
0.0
 11
14868.74650820195
 21
5648.638793566375
 31
0.0
  0
3DFACE
  5
7511E
330
725B7
100
AcDbEntity
  8
0
  6
Continuous
 62
     7
370
    13
100
AcDbFace
 10
14868.74650820195
 20
5648.688793566375
 30
0.0
 11
14868.79650820195
 21
5648.688793566375
 31
0.0
 12
14868.79650820195
 22
5648.638793566375
 32
0.0
 13
14868.74650820195
 23
5648.638793566375
 33
0.0
  0
3DFACE
  5
7511F
330
725B7
100
AcDbEntity
  8
0
  6
Continuous
 62
     7
370
    13
100
AcDbFace
 10
14868.74650820195
 20
5647.738793566375
 30
0.0
 11
14868.79650820195
 21
5647.738793566375
 31
0.0
 12
14868.79650820195
 22
5647.688793566375
 32
0.0
 13
14868.74650820195
 23
5647.688793566375
 33
0.0
  0
LINE
  5
75120
330
725B7
100
AcDbEntity
  8
0
  6
Continuous
 62
     7
370
    13
100
AcDbLine
 10
14872.52150820195
 20
5643.438793566399
 30
0.0
 11
14872.52150820194
 21
5641.388793566378
 31
0.0
  0
LINE
  5
75121
330
725B7
100
AcDbEntity
  8
0
  6
Continuous
 62
     7
370
    13
100
AcDbLine
 10
14872.52150820194
 20
5641.388793566378
 30
0.0
 11
14876.52150820195
 21
5641.388793566378
 31
0.0
  0
LINE
  5
75122
330
725B7
100
AcDbEntity
  8
0
  6
Continuous
 62
     7
370
     0
100
AcDbLine
 10
14868.62150820195
 20
5649.058793566376
 30
0.0
 11
14868.62150820195
 21
5647.959364385951
 31
0.0
  0
LINE
  5
75123
330
725B7
100
AcDbEntity
  8
0
  6
Continuous
 62
     7
370
     0
100
AcDbLine
 10
14868.44150820195
 20
5649.058793566376
 30
0.0
 11
14868.44150820195
 21
5647.959364385951
 31
0.0
  0
LINE
  5
75124
330
725B7
100
AcDbEntity
  8
0
  6
Continuous
 62
     7
370
     0
100
AcDbLine
 10
14868.62150820195
 20
5647.959364385951
 30
0.0
 11
14868.44150820195
 21
5647.959364385951
 31
0.0
  0
LINE
  5
75125
330
725B7
100
AcDbEntity
  8
0
  6
Continuous
 62
     7
370
     0
100
AcDbLine
 10
14865.51150820195
 20
5649.238793566376
 30
0.0
 11
14865.51150820195
 21
5647.389573128471
 31
0.0
  0
LINE
  5
75126
330
725B7
100
AcDbEntity
  8
0
  6
Continuous
 62
     7
370
     0
100
AcDbLine
 10
14865.69150820195
 20
5649.058793566376
 30
0.0
 11
14865.69150820195
 21
5647.389573128471
 31
0.0
  0
LINE
  5
75127
330
725B7
100
AcDbEntity
  8
0
  6
Continuous
 62
     7
370
     0
100
AcDbLine
 10
14865.51150820195
 20
5647.389573128471
 30
0.0
 11
14865.69150820195
 21
5647.389573128471
 31
0.0
  0
LINE
  5
75128
330
725B7
100
AcDbEntity
  8
0
  6
Continuous
 62
     7
370
     0
100
AcDbLine
 10
14868.62150820195
 20
5649.058793566376
 30
0.0
 11
14874.16150820195
 21
5649.058793566376
 31
0.0
  0
LINE
  5
75129
330
725B7
100
AcDbEntity
  8
0
  6
Continuous
 62
     7
370
     0
100
AcDbLine
 10
14874.16150820195
 20
5649.318793566376
 30
0.0
 11
14874.16150820195
 21
5649.238793566376
 31
0.0
  0
LINE
  5
7512A
330
725B7
100
AcDbEntity
  8
0
  6
Continuous
 62
     7
370
     0
100
AcDbLine
 10
14874.16150820195
 20
5649.058793566376
 30
0.0
 11
14874.16150820195
 21
5647.718793566379
 31
0.0
  0
LWPOLYLINE
  5
7512B
102
{ACAD_REACTORS
330
754B2
102
}
330
725B7
100
AcDbEntity
  8
0
  6
Continuous
 62
     7
370
     0
100
AcDbPolyline
 90
       11
 70
   129
 43
0.0
 10
14865.51150820195
 20
5649.238793566376
 10
14865.51150820195
 20
5647.389573128471
 10
14865.69150820195
 20
5647.389573128471
 10
14865.69150820195
 20
5649.058793566376
 10
14868.44150820195
 20
5649.058793566376
 10
14868.44150820195
 20
5647.959364385951
 10
14868.62150820195
 20
5647.959364385951
 10
14868.62150820195
 20
5649.058793566376
 10
14868.67150820195
 20
5649.058793566376
 10
14868.67150820195
 20
5649.238793566376
 10
14865.51150820195
 20
5649.238793566376
  0
HATCH
  5
754B2
330
725B7
100
AcDbEntity
  8
0
  6
Continuous
 62
     7
370
     0
100
AcDbHatch
 10
0.0
 20
0.0
 30
0.0
210
0.0
220
0.0
230
1.0
  2
CROSSHATCH
 70
     0
 71
     1
 91
        1
 92
        1
 93
       10
 72
     1
 10
14865.51150820195
 20
5649.238793566376
 11
14865.51150820195
 21
5647.389573128471
 72
     1
 10
14865.51150820195
 20
5647.389573128471
 11
14865.69150820195
 21
5647.389573128471
 72
     1
 10
14865.69150820195
 20
5647.389573128471
 11
14865.69150820195
 21
5649.058793566376
 72
     1
 10
14865.69150820195
 20
5649.058793566376
 11
14868.44150820195
 21
5649.058793566376
 72
     1
 10
14868.44150820195
 20
5649.058793566376
 11
14868.44150820195
 21
5647.959364385951
 72
     1
 10
14868.44150820195
 20
5647.959364385951
 11
14868.62150820195
 21
5647.959364385951
 72
     1
 10
14868.62150820195
 20
5647.959364385951
 11
14868.62150820195
 21
5649.058793566376
 72
     1
 10
14868.62150820195
 20
5649.058793566376
 11
14868.67150820195
 21
5649.058793566376
 72
     1
 10
14868.67150820195
 20
5649.058793566376
 11
14868.67150820195
 21
5649.238793566376
 72
     1
 10
14868.67150820195
 20
5649.238793566376
 11
14865.51150820195
 21
5649.238793566376
 97
        1
330
7512B
 75
     0
 76
     2
 52
0.0
 41
1.0
 77
     0
 78
     2
 53
45.0
 43
14865.746409
 44
5649.155533
 45
-0.1060660171779821
 46
0.1060660171779821
 79
     0
 53
315.0
 43
14865.746409
 44
5649.155533
 45
0.1060660171779821
 46
0.1060660171779821
 79
     0
 98
        1
 10
0.0
 20
0.0
  0
LWPOLYLINE
  5
75136
102
{ACAD_REACTORS
330
754B3
102
}
330
725B7
100
AcDbEntity
  8
0
  6
Continuous
 62
     7
370
     0
100
AcDbPolyline
 90
       15
 70
   129
 43
0.0
 10
14874.16150820195
 20
5649.058793566376
 10
14874.16150820195
 20
5647.718793566379
 10
14873.54150820195
 20
5647.718793566376
 10
14873.54150820196
 20
5646.868793566376
 10
14874.16150820195
 20
5646.868793566377
 10
14874.16150820195
 20
5643.838793566377
 10
14874.34150820195
 20
5643.838793566377
 10
14874.34150820195
 20
5649.318793566376
 10
14874.16150820195
 20
5649.318793566376
 10
14874.16150820195
 20
5649.238793566376
 10
14868.67150820195
 20
5649.238793566376
 10
14868.67150820195
 20
5649.058793566376
 10
14872.10413702894
 20
5649.058793566376
 10
14872.75190438496
 20
5649.058793566376
 10
14874.16150820195
 20
5649.058793566376
  0
HATCH
  5
754B3
330
725B7
100
AcDbEntity
  8
0
  6
Continuous
 62
     7
370
     0
100
AcDbHatch
 10
0.0
 20
0.0
 30
0.0
210
0.0
220
0.0
230
1.0
  2
CROSSHATCH
 70
     0
 71
     1
 91
        1
 92
        1
 93
       14
 72
     1
 10
14874.16150820195
 20
5649.058793566376
 11
14874.16150820195
 21
5647.718793566379
 72
     1
 10
14874.16150820195
 20
5647.718793566379
 11
14873.54150820195
 21
5647.718793566376
 72
     1
 10
14873.54150820195
 20
5647.718793566376
 11
14873.54150820196
 21
5646.868793566376
 72
     1
 10
14873.54150820196
 20
5646.868793566376
 11
14874.16150820195
 21
5646.868793566377
 72
     1
 10
14874.16150820195
 20
5646.868793566377
 11
14874.16150820195
 21
5643.838793566377
 72
     1
 10
14874.16150820195
 20
5643.838793566377
 11
14874.34150820195
 21
5643.838793566377
 72
     1
 10
14874.34150820195
 20
5643.838793566377
 11
14874.34150820195
 21
5649.318793566376
 72
     1
 10
14874.34150820195
 20
5649.318793566376
 11
14874.16150820195
 21
5649.318793566376
 72
     1
 10
14874.16150820195
 20
5649.318793566376
 11
14874.16150820195
 21
5649.238793566376
 72
     1
 10
14874.16150820195
 20
5649.238793566376
 11
14868.67150820195
 21
5649.238793566376
 72
     1
 10
14868.67150820195
 20
5649.238793566376
 11
14868.67150820195
 21
5649.058793566376
 72
     1
 10
14868.67150820195
 20
5649.058793566376
 11
14872.10413702894
 21
5649.058793566376
 72
     1
 10
14872.10413702894
 20
5649.058793566376
 11
14872.75190438496
 21
5649.058793566376
 72
     1
 10
14872.75190438496
 20
5649.058793566376
 11
14874.16150820195
 21
5649.058793566376
 97
        1
330
75136
 75
     0
 76
     2
 52
0.0
 41
1.0
 77
     0
 78
     2
 53
45.0
 43
14868.942893
 44
5649.155433
 45
-0.1060660171779821
 46
0.1060660171779821
 79
     0
 53
315.0
 43
14868.942893
 44
5649.155433
 45
0.1060660171779821
 46
0.1060660171779821
 79
     0
 98
        1
 10
0.0
 20
0.0
  0
LINE
  5
75143
330
725B7
100
AcDbEntity
  8
0
  6
Continuous
 62
     7
370
    30
100
AcDbLine
 10
14859.80150820195
 20
5649.318793566376
 30
0.0
 11
14859.80150820195
 21
5643.838793566377
 31
0.0
  0
LINE
  5
75144
330
725B7
100
AcDbEntity
  8
0
  6
Continuous
 62
     7
370
    30
100
AcDbLine
 10
14859.42150820195
 20
5649.318793566376
 30
0.0
 11
14859.42150820195
 21
5643.838793566377
 31
0.0
  0
LINE
  5
75145
330
725B7
100
AcDbEntity
  8
0
  6
Continuous
 62
     7
370
    30
100
AcDbLine
 10
14859.15972706505
 20
5649.318793566376
 30
0.0
 11
14859.42150820195
 21
5649.318793566376
 31
0.0
  0
LINE
  5
75146
330
725B7
100
AcDbEntity
  8
0
  6
Continuous
 62
     7
370
    30
100
AcDbLine
 10
14859.15972706505
 20
5643.838793566377
 30
0.0
 11
14859.42150820195
 21
5643.838793566377
 31
0.0
  0
LWPOLYLINE
  5
75147
330
725B7
100
AcDbEntity
  8
0
  6
Continuous
 62
     7
370
     0
100
AcDbPolyline
 90
        6
 70
   128
 43
0.0
 10
14859.15972706505
 20
5650.123920731526
 10
14859.15972706505
 20
5649.619961391913
 10
14859.29330211614
 20
5649.59508262854
 10
14859.02036625169
 20
5649.559467857621
 10
14859.15972706505
 20
5649.531098144941
 10
14859.15972706505
 20
5648.802824703107
  0
LWPOLYLINE
  5
75148
330
725B7
100
AcDbEntity
  8
0
  6
Continuous
 62
     7
370
     0
100
AcDbPolyline
 90
        6
 70
   128
 43
0.0
 10
14859.15972706505
 20
5644.184092471994
 10
14859.15972706505
 20
5643.680133132381
 10
14859.29330211614
 20
5643.655254369008
 10
14859.02036625169
 20
5643.61963959809
 10
14859.15972706505
 20
5643.591269885408
 10
14859.15972706505
 20
5642.862996443575
  0
LINE
  5
75149
330
725B7
100
AcDbEntity
  8
0
  6
гр_тер3
 62
     7
 48
0.1
370
    13
100
AcDbLine
 10
14877.16157235398
 20
5649.963414947984
 30
0.0
 11
14859.59687282837
 21
5649.963414947984
 31
0.0
  0
LINE
  5
7514A
330
725B7
100
AcDbEntity
  8
0
  6
гр_тер3
 62
     7
 48
0.1
370
    13
100
AcDbLine
 10
14877.16157235398
 20
5649.963414947984
 30
0.0
 11
14877.16157235398
 21
5641.252288493411
 31
0.0
  0
LINE
  5
7514B
330
725B7
100
AcDbEntity
  8
0
  6
гр_тер3
 62
     7
 48
0.1
370
    13
100
AcDbLine
 10
14877.16157235398
 20
5641.252288493411
 30
0.0
 11
14872.36478508996
 21
5641.252288493411
 31
0.0
  0
LINE
  5
7514C
330
725B7
100
AcDbEntity
  8
0
  6
гр_тер3
 62
     7
 48
0.1
370
    13
100
AcDbLine
 10
14872.36478508996
 20
5641.252288493411
 30
0.0
 11
14872.36478508996
 21
5643.293512919414
 31
0.0
  0
LINE
  5
7514D
330
725B7
100
AcDbEntity
  8
0
  6
гр_тер3
 62
     7
 48
0.1
370
    13
100
AcDbLine
 10
14872.36478508996
 20
5643.293512919414
 30
0.0
 11
14859.59687282837
 21
5643.293512919414
 31
0.0
  0
LINE
  5
7514E
330
725B7
100
AcDbEntity
  8
0
  6
гр_тер3
 62
     7
 48
0.1
370
    13
100
AcDbLine
 10
14859.59687282837
 20
5649.963414947984
 30
0.0
 11
14859.59687282837
 21
5643.293512919414
 31
0.0
  0
LINE
  5
7514F
330
725B7
100
AcDbEntity
  8
0
  6
Continuous
 62
     7
370
    13
100
AcDbLine
 10
14867.90150820195
 20
5643.968793566376
 30
0.0
 11
14868.05150820195
 21
5643.968793566376
 31
0.0
  0
LINE
  5
75150
330
725B7
100
AcDbEntity
  8
0
  6
Continuous
 62
     7
370
    13
100
AcDbLine
 10
14867.90150820195
 20
5643.968793566376
 30
0.0
 11
14867.90150820195
 21
5643.838793566377
 31
0.0
  0
LINE
  5
75151
330
725B7
100
AcDbEntity
  8
0
  6
Continuous
 62
     7
370
    30
100
AcDbLine
 10
14867.10150820195
 20
5643.838793566377
 30
0.0
 11
14867.10150820195
 21
5643.438793566376
 31
0.0
  0
LINE
  5
75152
330
725B7
100
AcDbEntity
  8
0
  6
Continuous
 62
     7
370
    30
100
AcDbLine
 10
14865.80150820195
 20
5643.838793566377
 30
0.0
 11
14865.80150820195
 21
5643.438793566376
 31
0.0
  0
LINE
  5
75153
330
725B7
100
AcDbEntity
  8
0
  6
Continuous
 62
     7
370
    30
100
AcDbLine
 10
14865.30150820195
 20
5643.838793566377
 30
0.0
 11
14865.30150820195
 21
5643.438793566376
 31
0.0
  0
LINE
  5
75154
330
725B7
100
AcDbEntity
  8
0
  6
Continuous
 62
     7
370
    30
100
AcDbLine
 10
14864.40150820195
 20
5643.838793566377
 30
0.0
 11
14864.40150820195
 21
5643.438793566376
 31
0.0
  0
LINE
  5
75155
330
725B7
100
AcDbEntity
  8
0
  6
Continuous
 62
     7
370
    30
100
AcDbLine
 10
14860.40150820195
 20
5643.838793566377
 30
0.0
 11
14860.40150820195
 21
5643.438793566375
 31
0.0
  0
LINE
  5
75156
330
725B7
100
AcDbEntity
  8
0
  6
Continuous
 62
     7
370
    30
100
AcDbLine
 10
14861.90150820195
 20
5643.838793566377
 30
0.0
 11
14861.90150820195
 21
5643.438793566375
 31
0.0
  0
LINE
  5
75157
330
725B7
100
AcDbEntity
  8
0
  6
Continuous
 62
     7
370
    30
100
AcDbLine
 10
14861.90150820195
 20
5643.838793566377
 30
0.0
 11
14864.40150820195
 21
5643.838793566377
 31
0.0
  0
LINE
  5
75158
330
725B7
100
AcDbEntity
  8
0
  6
Continuous
 62
     7
370
    30
100
AcDbLine
 10
14861.90150820195
 20
5643.438793566375
 30
0.0
 11
14864.40150820195
 21
5643.438793566376
 31
0.0
  0
LINE
  5
75159
330
725B7
100
AcDbEntity
  8
0
  6
Continuous
 62
     7
370
    30
100
AcDbLine
 10
14865.30150820195
 20
5643.838793566377
 30
0.0
 11
14865.80150820195
 21
5643.838793566377
 31
0.0
  0
LINE
  5
7515A
330
725B7
100
AcDbEntity
  8
0
  6
Continuous
 62
     7
370
    30
100
AcDbLine
 10
14865.30150820195
 20
5643.438793566376
 30
0.0
 11
14865.80150820195
 21
5643.438793566376
 31
0.0
  0
LINE
  5
7515B
330
725B7
100
AcDbEntity
  8
0
  6
Continuous
 62
     7
370
    30
100
AcDbLine
 10
14867.10150820195
 20
5643.838793566377
 30
0.0
 11
14874.87150820195
 21
5643.838793566377
 31
0.0
  0
LINE
  5
7515C
330
725B7
100
AcDbEntity
  8
0
  6
Continuous
 62
     7
370
    30
100
AcDbLine
 10
14867.10150820195
 20
5643.438793566376
 30
0.0
 11
14875.02150820195
 21
5643.438793566378
 31
0.0
  0
LINE
  5
7515D
330
725B7
100
AcDbEntity
  8
0
  6
Continuous
 62
     7
370
     0
100
AcDbLine
 10
14860.40150820195
 20
5643.638793566376
 30
0.0
 11
14861.90150820195
 21
5643.638793566376
 31
0.0
  0
LINE
  5
7515E
330
725B7
100
AcDbEntity
  8
0
  6
Continuous
 62
     7
370
     0
100
AcDbLine
 10
14860.40150820195
 20
5643.638793566376
 30
0.0
 11
14860.93183828784
 21
5644.169123652266
 31
0.0
  0
LINE
  5
7515F
330
725B7
100
AcDbEntity
  8
0
  6
Continuous
 62
     7
370
     0
100
AcDbLine
 10
14861.37117811606
 20
5644.169123652266
 30
0.0
 11
14861.90150820195
 21
5643.638793566376
 31
0.0
  0
ARC
  5
75160
330
725B7
100
AcDbEntity
  8
0
  6
Continuous
 62
     7
370
     0
100
AcDbCircle
 10
14861.90150820195
 20
5643.638793566376
 30
0.0
 40
0.75
100
AcDbArc
 50
135.0000000000402
 51
180.0
  0
ARC
  5
75161
330
725B7
100
AcDbEntity
  8
0
  6
Continuous
 62
     7
370
     0
100
AcDbCircle
 10
14860.40150820195
 20
5643.638793566376
 30
0.0
 40
0.75
100
AcDbArc
 50
0.0
 51
45.000000000161
  0
LINE
  5
75162
330
725B7
100
AcDbEntity
  8
0
  6
Continuous
 62
     7
370
     0
100
AcDbLine
 10
14867.10150820195
 20
5643.638793566378
 30
0.0
 11
14865.80150820195
 21
5643.638793566378
 31
0.0
  0
LINE
  5
75163
330
725B7
100
AcDbEntity
  8
0
  6
Continuous
 62
     7
370
     0
100
AcDbLine
 10
14865.80150820195
 20
5643.638793566378
 30
0.0
 11
14866.43790430502
 21
5644.275189669444
 31
0.0
  0
LINE
  5
75164
330
725B7
100
AcDbEntity
  8
0
  6
Continuous
 62
     7
370
     0
100
AcDbLine
 10
14866.81866548948
 20
5643.921636278852
 30
0.0
 11
14867.10150820195
 21
5643.638793566378
 31
0.0
  0
ARC
  5
75165
330
725B7
100
AcDbEntity
  8
0
  6
Continuous
 62
     7
370
     0
100
AcDbCircle
 10
14867.10150820195
 20
5643.638793566378
 30
0.0
 40
0.4
100
AcDbArc
 50
134.9999999998491
 51
180.0
  0
ARC
  5
75166
330
725B7
100
AcDbEntity
  8
0
  6
Continuous
 62
     7
370
     0
100
AcDbCircle
 10
14865.80150820195
 20
5643.638793566378
 30
0.0
 40
0.9
100
AcDbArc
 50
0.0000000000474284
 51
44.99999999986585
  0
LINE
  5
75167
330
725B7
100
AcDbEntity
  8
0
  6
Continuous
 62
     7
370
     0
100
AcDbLine
 10
14864.40150820195
 20
5643.638793566378
 30
0.0
 11
14865.30150820195
 21
5643.638793566378
 31
0.0
  0
LINE
  5
75168
330
725B7
100
AcDbEntity
  8
0
  6
Continuous
 62
     7
370
     0
100
AcDbLine
 10
14865.30150820195
 20
5643.638793566378
 30
0.0
 11
14864.66511209888
 21
5644.275189669444
 31
0.0
  0
ARC
  5
75169
330
725B7
100
AcDbEntity
  8
0
  6
Continuous
 62
     7
370
     0
100
AcDbCircle
 10
14865.30150820195
 20
5643.638793566378
 30
0.0
 40
0.9
100
AcDbArc
 50
135.0000000001006
 51
179.9999999999051
  0
LINE
  5
7516A
330
725B7
100
AcDbEntity
  8
0
  6
Continuous
 62
     7
370
    13
100
AcDbLine
 10
14859.80150820195
 20
5648.218793566375
 30
0.0
 11
14860.45150820195
 21
5648.218793566375
 31
0.0
  0
LINE
  5
7516B
330
725B7
100
AcDbEntity
  8
0
  6
Continuous
 62
     7
370
    13
100
AcDbLine
 10
14859.80150820195
 20
5647.968793566375
 30
0.0
 11
14860.45150820195
 21
5647.968793566375
 31
0.0
  0
LINE
  5
7516C
330
725B7
100
AcDbEntity
  8
0
  6
Continuous
 62
     7
370
    13
100
AcDbLine
 10
14861.90150820195
 20
5647.968793566375
 30
0.0
 11
14861.90150820195
 21
5649.318793566376
 31
0.0
  0
LINE
  5
7516D
330
725B7
100
AcDbEntity
  8
0
  6
Continuous
 62
     7
370
    13
100
AcDbLine
 10
14861.65150820195
 20
5648.218793566375
 30
0.0
 11
14861.65150820195
 21
5649.318793566376
 31
0.0
  0
LINE
  5
7516E
330
725B7
100
AcDbEntity
  8
0
  6
Continuous
 62
     7
370
    13
100
AcDbLine
 10
14861.45150820195
 20
5647.968793566375
 30
0.0
 11
14861.45150820195
 21
5648.218793566375
 31
0.0
  0
LINE
  5
7516F
330
725B7
100
AcDbEntity
  8
0
  6
Continuous
 62
     7
370
    13
100
AcDbLine
 10
14860.45150820195
 20
5647.968793566375
 30
0.0
 11
14860.45150820195
 21
5648.218793566375
 31
0.0
  0
LINE
  5
75170
330
725B7
100
AcDbEntity
  8
0
  6
Continuous
 62
     7
370
    30
100
AcDbLine
 10
14861.45150820195
 20
5649.318793566376
 30
0.0
 11
14863.41150820195
 21
5649.318793566376
 31
0.0
  0
LINE
  5
75171
330
725B7
100
AcDbEntity
  8
0
  6
Continuous
 62
     7
370
    30
100
AcDbLine
 10
14861.45150820195
 20
5649.828793566377
 30
0.0
 11
14863.41150820195
 21
5649.828793566377
 31
0.0
  0
LINE
  5
75172
330
725B7
100
AcDbEntity
  8
0
  6
Continuous
 62
     7
370
    30
100
AcDbLine
 10
14861.45150820195
 20
5649.318793566376
 30
0.0
 11
14861.45150820195
 21
5649.828793566377
 31
0.0
  0
LINE
  5
75173
330
725B7
100
AcDbEntity
  8
0
  6
Continuous
 62
     7
370
    30
100
AcDbLine
 10
14860.45150820195
 20
5649.318793566376
 30
0.0
 11
14860.45150820195
 21
5649.828793566377
 31
0.0
  0
LINE
  5
75174
330
725B7
100
AcDbEntity
  8
0
  6
Continuous
 62
     7
370
    13
100
AcDbLine
 10
14861.45150820195
 20
5648.218793566375
 30
0.0
 11
14861.65150820195
 21
5648.218793566375
 31
0.0
  0
LINE
  5
75175
330
725B7
100
AcDbEntity
  8
0
  6
Continuous
 62
     7
370
    13
100
AcDbLine
 10
14861.45150820195
 20
5647.968793566375
 30
0.0
 11
14861.90150820195
 21
5647.968793566375
 31
0.0
  0
LINE
  5
75176
330
725B7
100
AcDbEntity
  8
0
  6
Continuous
 62
     7
370
     0
100
AcDbLine
 10
14860.45150820195
 20
5649.573793566375
 30
0.0
 11
14861.45150820195
 21
5649.573793566375
 31
0.0
  0
LINE
  5
75177
330
725B7
100
AcDbEntity
  8
0
  6
Continuous
 62
     7
370
     0
100
AcDbLine
 10
14860.45150820195
 20
5649.573793566375
 30
0.0
 11
14861.15861498314
 21
5650.280900347563
 31
0.0
  0
ARC
  5
75178
330
725B7
100
AcDbEntity
  8
0
  6
Continuous
 62
     7
370
     0
100
AcDbCircle
 10
14860.45150820195
 20
5649.573793566375
 30
0.0
 40
1.0
100
AcDbArc
 50
359.9999999999573
 51
44.99999999990946
  0
LINE
  5
75179
330
725B7
100
AcDbEntity
  8
0
  6
Continuous
 62
     7
370
     0
100
AcDbLine
 10
14860.45150820195
 20
5648.093793566375
 30
0.0
 11
14861.15861498314
 21
5648.800900347563
 31
0.0
  0
ARC
  5
7517A
330
725B7
100
AcDbEntity
  8
0
  6
Continuous
 62
     7
370
     0
100
AcDbCircle
 10
14860.45150820195
 20
5648.093793566375
 30
0.0
 40
1.0
100
AcDbArc
 50
359.9999999999573
 51
44.99999999990946
  0
LINE
  5
7517B
330
725B7
100
AcDbEntity
  8
0
  6
Continuous
 62
     7
370
     0
100
AcDbLine
 10
14860.45150820195
 20
5648.093793566375
 30
0.0
 11
14861.45150820195
 21
5648.093793566375
 31
0.0
  0
LINE
  5
7517C
330
725B7
100
AcDbEntity
  8
0
  6
Continuous
 62
     7
370
     0
100
AcDbLine
 10
14860.16399419574
 20
5650.828793566376
 30
0.0
 11
14862.00980265898
 21
5650.828793566376
 31
0.0
  0
LINE
  5
7517D
330
725B7
100
AcDbEntity
  8
0
  6
Continuous
 62
     7
370
     0
100
AcDbLine
 10
14861.70980265898
 20
5649.828793566377
 30
0.0
 11
14861.70980265898
 21
5650.828793566376
 31
0.0
  0
LINE
  5
7517E
330
725B7
100
AcDbEntity
  8
0
  6
Continuous
 62
     7
370
     0
100
AcDbLine
 10
14860.16399419574
 20
5649.828793566377
 30
0.0
 11
14860.16399419574
 21
5650.828793566376
 31
0.0
  0
LINE
  5
7517F
330
725B7
100
AcDbEntity
  8
0
  6
Continuous
 62
     7
370
     0
100
AcDbLine
 10
14862.00980265898
 20
5649.828793566377
 30
0.0
 11
14862.00980265898
 21
5650.828793566376
 31
0.0
  0
LINE
  5
75180
330
725B7
100
AcDbEntity
  8
0
  6
Continuous
 62
     7
370
     0
100
AcDbLine
 10
14862.00980265898
 20
5650.328793566377
 30
0.0
 11
14861.70980265898
 21
5650.328793566377
 31
0.0
  0
LINE
  5
75181
330
725B7
100
AcDbEntity
  8
0
  6
Continuous
 62
     7
370
     0
100
AcDbLine
 10
14861.70980265898
 20
5650.328793566377
 30
0.0
 11
14861.88576543643
 21
5650.477252766086
 31
0.0
  0
LINE
  5
75182
330
725B7
100
AcDbEntity
  8
0
  6
Continuous
 62
     7
370
     0
100
AcDbLine
 10
14861.70980265898
 20
5650.328793566377
 30
0.0
 11
14861.88576543643
 21
5650.180334366666
 31
0.0
  0
HATCH
  5
75183
330
725B7
100
AcDbEntity
  8
0
  6
Continuous
 62
     7
370
     0
100
AcDbHatch
 10
0.0
 20
0.0
 30
0.0
210
0.0
220
0.0
230
1.0
  2
SOLID
 70
     1
 71
     0
 91
        1
 92
        1
 93
        1
 72
     2
 10
14862.00980265898
 20
5650.328793566377
 40
0.0353014468125999
 50
0.0
 51
360.0
 73
     1
 97
        0
 75
     0
 76
     1
 98
        1
 10
0.0
 20
0.0
450
        0
451
        0
460
0.0
461
0.0
452
        0
462
0.0
453
        0
470

  0
LINE
  5
75184
330
725B7
100
AcDbEntity
  8
0
  6
Continuous
 62
     7
370
     0
100
AcDbLine
 10
14865.78312295514
 20
5646.118793566376
 30
0.0
 11
14865.91150820195
 21
5646.118793566376
 31
0.0
  0
LINE
  5
75185
330
725B7
100
AcDbEntity
  8
0
  6
Continuous
 62
     7
370
     0
100
AcDbLine
 10
14865.78312295514
 20
5646.118793566376
 30
0.0
 11
14865.78312295514
 21
5646.018793566376
 31
0.0
  0
LINE
  5
75186
330
725B7
100
AcDbEntity
  8
0
  6
Continuous
 62
     7
370
     0
100
AcDbLine
 10
14865.91150820195
 20
5646.118793566376
 30
0.0
 11
14865.91150820195
 21
5646.018793566376
 31
0.0
  0
CIRCLE
  5
75187
330
725B7
100
AcDbEntity
  8
0
  6
Continuous
 62
     7
370
    13
100
AcDbCircle
 10
14865.87947529333
 20
5646.063900062926
 30
0.0
 40
0.025
  0
CIRCLE
  5
75188
330
725B7
100
AcDbEntity
  8
0
  6
Continuous
 62
     7
370
    13
100
AcDbCircle
 10
14865.80871569586
 20
5646.092869276948
 30
0.0
 40
0.016
  0
CIRCLE
  5
75189
330
725B7
100
AcDbEntity
  8
0
  6
Continuous
 62
     7
370
    13
100
AcDbCircle
 10
14865.80981088066
 20
5646.0475696651
 30
0.0
 40
0.016
  0
LINE
  5
7518A
330
725B7
100
AcDbEntity
  8
0
  6
Continuous
 62
     7
370
    13
100
AcDbLine
 10
14868.49312295515
 20
5646.168793566374
 30
0.0
 11
14868.49312295515
 21
5646.018793566376
 31
0.0
  0
LINE
  5
7518B
330
725B7
100
AcDbEntity
  8
0
  6
Continuous
 62
     7
370
     0
100
AcDbLine
 10
14868.54312295515
 20
5646.118793566376
 30
0.0
 11
14868.54312295515
 21
5646.018793566376
 31
0.0
  0
CIRCLE
  5
7518C
330
725B7
100
AcDbEntity
  8
0
  6
Continuous
 62
     7
370
    13
100
AcDbCircle
 10
14868.63947529334
 20
5646.063900062926
 30
0.0
 40
0.025
  0
CIRCLE
  5
7518D
330
725B7
100
AcDbEntity
  8
0
  6
Continuous
 62
     7
370
    13
100
AcDbCircle
 10
14868.56871569586
 20
5646.092869276948
 30
0.0
 40
0.016
  0
CIRCLE
  5
7518E
330
725B7
100
AcDbEntity
  8
0
  6
Continuous
 62
     7
370
    13
100
AcDbCircle
 10
14868.56981088067
 20
5646.0475696651
 30
0.0
 40
0.016
  0
LINE
  5
7518F
330
725B7
100
AcDbEntity
  8
0
  6
Continuous
 62
     7
370
    13
100
AcDbLine
 10
14868.49312295515
 20
5646.168793566374
 30
0.0
 11
14868.67150820195
 21
5646.168793566374
 31
0.0
  0
LINE
  5
75190
330
725B7
100
AcDbEntity
  8
0
  6
Continuous
 62
     7
370
     0
100
AcDbLine
 10
14868.54312295515
 20
5646.118793566375
 30
0.0
 11
14868.67150820196
 21
5646.118793566375
 31
0.0
  0
LINE
  5
75191
330
725B7
100
AcDbEntity
  8
0
  6
Continuous
 62
     7
370
     0
100
AcDbLine
 10
14868.77150820195
 20
5647.218793566375
 30
0.0
 11
14868.77150820195
 21
5646.238793566375
 31
0.0
  0
LINE
  5
75192
330
725B7
100
AcDbEntity
  8
0
  6
Continuous
 62
     7
370
     0
100
AcDbLine
 10
14868.77150820195
 20
5646.238793566375
 30
0.0
 11
14868.07854355639
 21
5646.931758211938
 31
0.0
  0
ARC
  5
75193
330
725B7
100
AcDbEntity
  8
0
  6
Continuous
 62
     7
370
     0
100
AcDbCircle
 10
14868.77150820195
 20
5646.238793566375
 30
0.0
 40
0.979999999999255
100
AcDbArc
 50
90.0
 51
134.9999999999692
  0
LINE
  5
75194
330
725B7
100
AcDbEntity
  8
0
  6
Continuous
 62
     7
370
     0
100
AcDbLine
 10
14875.02150820195
 20
5643.563793566377
 30
0.0
 11
14876.00150820195
 21
5643.563793566377
 31
0.0
  0
LINE
  5
75195
330
725B7
100
AcDbEntity
  8
0
  6
Continuous
 62
     7
370
     0
100
AcDbLine
 10
14876.00150820195
 20
5643.563793566377
 30
0.0
 11
14875.30854355639
 21
5642.870828920814
 31
0.0
  0
ARC
  5
75196
330
725B7
100
AcDbEntity
  8
0
  6
Continuous
 62
     7
370
     0
100
AcDbCircle
 10
14876.00150820195
 20
5643.563793566377
 30
0.0
 40
0.98
100
AcDbArc
 50
180.0000000000435
 51
225.0000000000924
  0
CIRCLE
  5
7519A
330
725B7
100
AcDbEntity
  8
0
  6
Continuous
 62
     7
370
     0
100
AcDbCircle
 10
14862.35854230727
 20
5645.898073419328
 30
0.0
 40
0.2699948659471636
  0
TEXT
  5
7519B
330
725B7
100
AcDbEntity
  8
0
  6
Continuous
 62
     7
370
    13
100
AcDbText
 10
14862.26338920034
 20
5645.790958363863
 30
0.0
 40
0.25
  1
4
  7
Style-Arial
 72
     1
 11
14862.36050720853
 21
5645.915958363863
 31
0.0
100
AcDbText
 73
     2
  0
TEXT
  5
7519C
330
725B7
100
AcDbEntity
  8
0
  6
Continuous
 62
     7
370
    13
100
AcDbText
 10
14860.23294028249
 20
5648.687806588845
 30
0.0
 40
0.25
  1
5
  7
Style-Arial
 72
     1
 11
14860.33005829067
 21
5648.812806588845
 31
0.0
100
AcDbText
 73
     2
  0
CIRCLE
  5
7519D
330
725B7
100
AcDbEntity
  8
0
  6
Continuous
 62
     7
370
     0
100
AcDbCircle
 10
14860.33780543364
 20
5648.787932295797
 30
0.0
 40
0.2699948659471636
  0
LINE
  5
7519E
330
725B7
100
AcDbEntity
  8
0
  6
Continuous
 62
     7
370
     0
100
AcDbLine
 10
14868.15150820195
 20
5645.388793566377
 30
0.0
 11
14868.15150820196
 21
5644.098793566377
 31
0.0
  0
LINE
  5
7519F
330
725B7
100
AcDbEntity
  8
0
  6
Continuous
 62
     7
370
     0
100
AcDbLine
 10
14868.15150820195
 20
5645.388793566377
 30
0.0
 11
14867.87573655729
 21
5645.113021921714
 31
0.0
  0
LINE
  5
751A0
330
725B7
100
AcDbEntity
  8
0
  6
Continuous
 62
     7
370
     0
100
AcDbLine
 10
14868.15150820196
 20
5644.098793566377
 30
0.0
 11
14867.51511209889
 21
5644.735189669446
 31
0.0
  0
ARC
  5
751A1
330
725B7
100
AcDbEntity
  8
0
  6
Continuous
 62
     7
370
     0
100
AcDbCircle
 10
14868.15150820196
 20
5644.098793566377
 30
0.0
 40
0.9
100
AcDbArc
 50
90.00000000018971
 51
134.9999999998323
  0
ARC
  5
751A2
330
725B7
100
AcDbEntity
  8
0
  6
Continuous
 62
     7
370
     0
100
AcDbCircle
 10
14868.15150820195
 20
5645.388793566377
 30
0.0
 40
0.39
100
AcDbArc
 50
225.000000000387
 51
270.0000000008756
  0
3DFACE
  5
751A3
330
725B7
100
AcDbEntity
  8
0
  6
Continuous
 62
     7
370
     0
100
AcDbFace
 10
14868.04983779267
 20
5648.863600885037
 30
0.0
 11
14868.64983779267
 21
5648.863600885037
 31
0.0
 12
14868.64983779267
 22
5647.324614023776
 32
0.0
 13
14868.04983779267
 23
5647.324614023776
 33
0.0
  0
TEXT
  5
75252
330
725B7
100
AcDbEntity
  8
0
  6
Continuous
 62
     7
370
    13
100
AcDbText
 10
14868.12299135426
 20
5647.541397283237
 30
0.0
 40
0.25
  1
03
  7
Style-Arial
 72
     1
 11
14868.31722737063
 21
5647.666397283237
 31
0.0
100
AcDbText
 73
     2
  0
3DFACE
  5
75253
330
725B7
100
AcDbEntity
  8
0
  6
Continuous
 62
     7
370
     0
100
AcDbFace
 10
14869.46649151686
 20
5649.038105885271
 30
0.0
 11
14869.46649151686
 21
5648.558105885271
 31
0.0
 12
14868.89649151686
 22
5648.558105885271
 32
0.0
 13
14868.89649151686
 23
5649.038105885271
 33
0.0
  0
HATCH
  5
75259
330
725B7
100
AcDbEntity
  8
0
  6
Continuous
 62
     7
 48
0.000001
100
AcDbHatch
 10
0.0
 20
0.0
 30
0.0
210
0.0
220
0.0
230
1.0
  2
SOLID
 70
     1
 71
     0
 91
        1
 92
        7
 72
     1
 73
     1
 93
        3
 10
14867.57657058284
 20
5645.246331123276
 42
0.0
 10
14867.68314062829
 20
5645.430915856574
 42
0.2802901307372668
 10
14867.4699339916
 20
5645.431031117245
 42
0.0
 97
        0
 75
     0
 76
     1
 47
0.00005
 98
        1
 10
14867.57057886375
 20
5645.391779276263
450
        0
451
        0
460
0.0
461
0.0
452
        0
462
0.0
453
        0
470

  0
HATCH
  5
7525E
330
725B7
100
AcDbEntity
  8
0
  6
Continuous
 62
     7
 48
0.000001
100
AcDbHatch
 10
0.0
 20
0.0
 30
0.0
210
0.0
220
0.0
230
-1.0
  2
SOLID
 70
     1
 71
     0
 91
        1
 92
        7
 72
     1
 73
     1
 93
        3
 10
-14867.57657058284
 20
5645.245867235471
 42
0.0
 10
-14867.68314062829
 20
5645.061282502178
 42
0.2802901307372727
 10
-14867.4699339916
 20
5645.061167241507
 42
0.0
 97
        0
 75
     0
 76
     1
 47
0.00005
 98
        1
 10
-14867.57057886375
 20
5645.100419082485
450
        0
451
        0
460
0.0
461
0.0
452
        0
462
0.0
453
        0
470

  0
LINE
  5
75263
330
725B7
100
AcDbEntity
  8
0
  6
Continuous
 62
     7
 48
0.000001
100
AcDbLine
 10
14867.57683963031
 20
5645.246797127177
 30
0.0
 11
14867.68314062829
 21
5645.430915856574
 31
0.0
  0
LINE
  5
75264
330
725B7
100
AcDbEntity
  8
0
  6
Continuous
 62
     7
 48
0.000001
100
AcDbLine
 10
14867.57660768641
 20
5645.246266858
 30
0.0
 11
14867.4699339916
 21
5645.431031117245
 31
0.0
  0
ARC
  5
75265
330
725B7
100
AcDbEntity
  8
0
  6
Continuous
 62
     7
 48
0.000001
100
AcDbCircle
 10
14867.57644258177
 20
5645.255747393908
 30
0.0
 40
0.2051059810064304
100
AcDbArc
 50
357.3038034253891
 51
182.6961965746109
  0
LINE
  5
75266
330
725B7
100
AcDbEntity
  8
0
  6
Continuous
 62
     7
 48
0.000001
100
AcDbLine
 10
14867.57683963031
 20
5645.24540123157
 30
0.0
 11
14867.68314062829
 21
5645.061282502178
 31
0.0
  0
LINE
  5
75267
330
725B7
100
AcDbEntity
  8
0
  6
Continuous
 62
     7
 48
0.000001
100
AcDbLine
 10
14867.57660768641
 20
5645.245931500753
 30
0.0
 11
14867.4699339916
 21
5645.061167241507
 31
0.0
  0
ARC
  5
75268
330
725B7
100
AcDbEntity
  8
0
  6
Continuous
 62
     7
 48
0.000001
100
AcDbCircle
 10
14867.57644258177
 20
5645.236450964839
 30
0.0
 40
0.2051059810064304
100
AcDbArc
 50
177.303803425389
 51
2.696196574610974
  0
POINT
  5
75269
330
725B7
100
AcDbEntity
  8
0
 62
     7
 48
0.000001
100
AcDbPoint
 10
14867.55362429204
 20
5645.261774576358
 30
0.0
  0
MTEXT
  5
7526A
330
725B7
100
AcDbEntity
  8
0
  6
AM_DIN_F_W050x2
 62
     7
 48
100.0
370
    30
100
AcDbMText
 10
14862.42110782527
 20
5636.661288483917
 30
0.0
 40
0.25
 41
0.0
 46
0.0
 71
     7
 72
     1
  1
\fArial|b0|i0|c204204|p39;Условные обозначения
  7
MONOTXT
 73
     2
 44
0.6
  0
LINE
  5
7526D
330
725B7
100
AcDbEntity
  8
0
  6
Continuous
 62
     7
 48
100.0
370
    30
100
AcDbLine
 10
14862.07767372138
 20
5636.633759686414
 30
0.0
 11
14867.02383498034
 21
5636.633759686414
 31
0.0
  0
TEXT
  5
7528B
330
725B7
100
AcDbEntity
  8
0
  6
Continuous
 62
     7
370
    13
100
AcDbText
 10
14860.54975339766
 20
5635.989129580132
 30
0.0
 40
0.25
  1
01
  7
Style-Arial
 72
     1
 11
14860.74398941403
 21
5636.114129580132
 31
0.0
100
AcDbText
 73
     2
  0
TEXT
  5
7528C
330
725B7
100
AcDbEntity
  8
0
  6
Continuous
 62
     7
370
    13
100
AcDbText
 10
14860.58835933078
 20
5635.186244068921
 30
0.0
 40
0.25
  1
02
  7
Style-Arial
 72
     1
 11
14860.78259534715
 21
5635.311244068921
 31
0.0
100
AcDbText
 73
     2
  0
TEXT
  5
7528D
330
725B7
100
AcDbEntity
  8
0
  6
Continuous
 62
     7
370
    13
100
AcDbText
 10
14860.59670922366
 20
5634.637000214605
 30
0.0
 40
0.25
  1
03
  7
Style-Arial
 72
     1
 11
14860.79094524003
 21
5634.762000214605
 31
0.0
100
AcDbText
 73
     2
  0
MTEXT
  5
7528E
330
725B7
100
AcDbEntity
  8
0
  6
Continuous
 62
     7
370
    13
100
AcDbMText
 10
14861.12640829986
 20
5635.456399237212
 30
0.0
 40
0.25
 41
0.0
 46
0.0
 71
     1
 72
     1
  1
- Питающее устройство
  7
Style-Arial
 73
     2
 44
0.72
  0
MTEXT
  5
75290
330
725B7
100
AcDbEntity
  8
0
  6
Continuous
 62
     7
370
    13
100
AcDbMText
 10
14861.12640829986
 20
5634.907578711682
 30
0.0
 40
0.25
 41
0.0
 46
0.0
 71
     1
 72
     1
  1
- Пульт дистанционного управления питающего устройства
  7
Style-Arial
 73
     2
 44
0.72
  0
MTEXT
  5
75292
330
725B7
100
AcDbEntity
  8
0
  6
Continuous
 62
     7
370
    13
100
AcDbMText
 10
14861.12640829986
 20
5636.257642580591
 30
0.0
 40
0.25
 41
0.0
 46
0.0
 71
     1
 72
     1
  1
- Установка рентгенодиагностическая цифровая ГАММА на два рабочих места \Pна базе плоскопанельных детекторов 43х43 
  7
Style-Arial
 73
     2
 44
0.72
  0
3DFACE
  5
75297
330
725B7
100
AcDbEntity
  8
0
  6
Continuous
 62
     7
370
    13
100
AcDbFace
 10
14872.09150820195
 20
5649.548793566377
 30
0.0
 11
14872.04150820195
 21
5649.548793566377
 31
0.0
 12
14872.04150820195
 22
5649.598793566377
 32
0.0
 13
14872.09150820195
 23
5649.598793566377
 33
0.0
  0
3DFACE
  5
75298
330
725B7
100
AcDbEntity
  8
0
  6
Continuous
 62
     7
370
    13
100
AcDbFace
 10
14870.32150820195
 20
5649.548793566377
 30
0.0
 11
14870.27150820195
 21
5649.548793566377
 31
0.0
 12
14870.27150820195
 22
5649.598793566377
 32
0.0
 13
14870.32150820195
 23
5649.598793566377
 33
0.0
  0
LINE
  5
75299
330
725B7
100
AcDbEntity
  8
0
  6
Continuous
 62
     7
370
     0
100
AcDbLine
 10
14870.32150820195
 20
5649.573793566378
 30
0.0
 11
14872.04150820195
 21
5649.573793566378
 31
0.0
  0
LINE
  5
7529A
330
725B7
100
AcDbEntity
  8
0
  6
Continuous
 62
     7
370
     0
100
AcDbLine
 10
14870.32150820195
 20
5649.573793566378
 30
0.0
 11
14870.92962003377
 21
5648.965681734556
 31
0.0
  0
LINE
  5
7529B
330
725B7
100
AcDbEntity
  8
0
  6
Continuous
 62
     7
370
     0
100
AcDbLine
 10
14872.04150820195
 20
5649.573793566378
 30
0.0
 11
14871.43339637013
 21
5648.965681734556
 31
0.0
  0
ARC
  5
7529C
330
725B7
100
AcDbEntity
  8
0
  6
Continuous
 62
     7
370
     0
100
AcDbCircle
 10
14870.32150820195
 20
5649.573793566378
 30
0.0
 40
0.8599999999999999
100
AcDbArc
 50
314.9999999999298
 51
359.9999999999504
  0
ARC
  5
7529D
330
725B7
100
AcDbEntity
  8
0
  6
Continuous
 62
     7
370
     0
100
AcDbCircle
 10
14872.04150820195
 20
5649.573793566378
 30
0.0
 40
0.8599999999999999
100
AcDbArc
 50
180.0
 51
225.0000000001404
  0
MTEXT
  5
7529F
330
725B7
100
AcDbEntity
  8
0
  6
Continuous
 62
     7
370
    13
100
AcDbMText
 10
14860.52771231071
 20
5629.4214486891
 30
0.0
 40
0.25
 41
0.0
 46
0.0
 71
     4
 72
     1
  1
Примечания:\PМесто установки рентгенодиагностического аппарата на два рабочих места согласовать\Pс поставщиком и монтажом данного оборудования и при необходимости скорректировать.\P\P
  7
Style-Arial
 73
     2
 44
1.139999999999999
  0
TEXT
  5
752A3
330
725B7
100
AcDbEntity
  8
0
  6
Continuous
 62
     7
370
    13
100
AcDbText
 10
14873.579272842
 20
5645.329112669105
 30
-0.0000000000000065
 40
0.25
  1
01
  7
Style-Arial
 72
     1
 11
14873.77350885837
 21
5645.454112669105
 31
-0.0000000000000065
100
AcDbText
 73
     2
  0
TEXT
  5
752A4
330
725B7
100
AcDbEntity
  8
0
  6
Continuous
 62
     7
370
    13
100
AcDbText
 10
14868.98537427971
 20
5648.687799873325
 30
0.0
 40
0.25
  1
02
  7
Style-Arial
 72
     1
 11
14869.17961029608
 21
5648.812799873326
 31
0.0
100
AcDbText
 73
     2
  0
LWPOLYLINE
  5
752A9
330
725B7
100
AcDbEntity
  8
0
  6
Continuous
 62
     7
370
     0
100
AcDbPolyline
 90
        3
 70
   128
 43
0.0
 10
14873.51546236785
 20
5651.13065589666
 10
14869.52184377846
 20
5651.13065589666
 10
14869.52184377846
 20
5649.153439817411
  0
MTEXT
  5
752AA
330
725B7
100
AcDbEntity
  8
0
  6
Continuous
 62
     7
370
     0
100
AcDbMText
 10
14871.20200210217
 20
5627.430287857857
 30
0.0
 40
0.25
 41
0.0
 46
0.0
 71
     2
 72
     1
  1
Капитальный ремонт помещений под рентгенодиагностическую \Pустановку в 
  7
Style-Arial
 73
     2
 44
0.7765243902439022
  0
TEXT
  5
752AE
330
725B7
100
AcDbEntity
  8
0
  6
Continuous
 62
     7
370
    13
100
AcDbText
 10
14874.33428458279
 20
5628.046666764377
 30
0.0
 40
0.25
  1
11/11-2021-АР
  7
Style-Arial
 72
     1
 11
14875.50899467829
 21
5628.296666764377
 31
0.0
100
AcDbText
 73
     3
  0
TEXT
  5
752B2
330
725B7
100
AcDbEntity
  8
0
 62
     7
370
    13
100
AcDbText
 10
14860.99603534978
 20
5624.346164319673
 30
0.0
 40
0.25
  1
Ляльков
  7
Style-Arial
 11
14860.99603534978
 21
5624.596164319673
 31
0.0
100
AcDbText
 73
     3
  0
TEXT
  5
752B3
330
725B7
100
AcDbEntity
  8
0
  6
Continuous
 62
     7
370
     0
100
AcDbText
 10
14861.02335083752
 20
5625.82997611732
 30
0.0
 40
0.25
  1
Липская
  7
Style-Arial
 72
     1
 11
14861.68544156057
 21
5626.079976117321
 31
0.0
100
AcDbText
 73
     3
  0
MTEXT
  5
752BD
330
725B7
100
AcDbEntity
  8
0
  6
Continuous
 62
     7
370
    30
100
AcDbMText
 10
14864.42076319547
 20
5626.047146816632
 30
0.0
 40
0.25
 41
0.0
 46
0.0
 71
     1
 72
     1
  1
\fArial|b0|i0|c204204|p39;11.21
  7
GOST 2.304
 73
     2
 44
0.72
  0
MTEXT
  5
752BE
330
725B7
100
AcDbEntity
  8
0
  6
Continuous
 62
     7
370
    30
100
AcDbMText
 10
14864.42076319547
 20
5624.56004075455
 30
0.0
 40
0.25
 41
0.0
 46
0.0
 71
     1
 72
     1
  1
\fArial|b0|i0|c204204|p39;11.21
  7
GOST 2.304
 73
     2
 44
0.72
  0
TEXT
  5
752BF
330
725B7
100
AcDbEntity
  8
0
  6
Continuous
 62
     7
370
     0
100
AcDbText
 10
14862.0084488895
 20
5640.388046564783
 30
0.0
 40
0.25
  1
Наименование
  7
Style-Arial
 72
     1
 11
14863.22093183629
 21
5640.513046564783
 31
0.0
100
AcDbText
 73
     2
  0
TEXT
  5
752C0
330
725B7
100
AcDbEntity
  8
0
  6
Continuous
 62
     7
370
     0
100
AcDbText
 10
14861.57709427035
 20
5641.16722902342
 30
0.0
 40
0.25
  1
ЭКСПЛИКАЦИЯ ПОМЕЩЕНИЙ 
  7
Style-Arial
 72
     1
 11
14864.17267749
 21
5641.29222902342
 31
0.0
100
AcDbText
 73
     2
  0
LINE
  5
752C1
330
725B7
100
AcDbEntity
  8
0
  6
Continuous
 62
     7
370
    13
100
AcDbLine
 10
14860.39237954948
 20
5639.957856196584
 30
0.0
 11
14869.25968792724
 21
5639.957856196584
 31
0.0
  0
LINE
  5
752C2
330
725B7
100
AcDbEntity
  8
0
  6
Continuous
 62
     7
370
     0
100
AcDbLine
 10
14860.39237954948
 20
5639.467347833922
 30
0.0
 11
14869.25968792724
 21
5639.467347833922
 31
0.0
  0
LINE
  5
752C3
330
725B7
100
AcDbEntity
  8
0
  6
Continuous
 62
     7
370
     0
100
AcDbLine
 10
14860.39237954948
 20
5638.976839471261
 30
0.0
 11
14869.25968792724
 21
5638.976839471261
 31
0.0
  0
LINE
  5
752C4
330
725B7
100
AcDbEntity
  8
0
  6
Continuous
 62
     7
370
    13
100
AcDbLine
 10
14860.39237954948
 20
5640.877559376571
 30
0.0
 11
14869.25968792724
 21
5640.877559376571
 31
0.0
  0
MTEXT
  5
752C5
330
725B7
100
AcDbEntity
  8
0
  6
Continuous
 62
     7
370
     0
100
AcDbMText
 10
14868.3556477796
 20
5640.390196222352
 30
0.0
 40
0.25
 41
0.0
 46
0.0
 71
     5
 72
     1
  1
Площадь,\Pм2\P
  7
Style-Arial
 73
     2
 44
0.7765243902439023
  0
MTEXT
  5
752C8
330
725B7
100
AcDbEntity
  8
0
  6
Continuous
 62
     7
370
     0
100
AcDbMText
 10
14860.99425311299
 20
5640.452771363268
 30
0.0
 40
0.25
 41
0.0
 46
0.0
 71
     5
 72
     1
  1
№ по\Pплану\P
  7
Style-Arial
 73
     2
 44
0.7765243902439024
  0
TEXT
  5
752CB
330
725B7
100
AcDbEntity
  8
0
  6
Continuous
 62
     7
370
    13
100
AcDbText
 10
14860.89660104803
 20
5639.557559303209
 30
0.0
 40
0.25
  1
1
  7
Style-Arial
 72
     1
 11
14860.99371905621
 21
5639.68255930321
 31
0.0
100
AcDbText
 73
     2
  0
TEXT
  5
752CC
330
725B7
100
AcDbEntity
  8
0
  6
Continuous
 62
     7
370
    13
100
AcDbText
 10
14860.90933909108
 20
5639.096329407248
 30
0.0
 40
0.25
  1
2
  7
Style-Arial
 72
     1
 11
14861.00645709927
 21
5639.221329407249
 31
0.0
100
AcDbText
 73
     2
  0
TEXT
  5
752CD
330
725B7
100
AcDbEntity
  8
0
  6
Continuous
 62
     7
370
    13
100
AcDbText
 10
14861.7011123587
 20
5639.610294563155
 30
0.0
 40
0.25
  1
процедурная
  7
Style-Arial
 11
14861.7011123587
 21
5639.860294563156
 31
0.0
100
AcDbText
 73
     3
  0
MTEXT
  5
752CE
330
725B7
100
AcDbEntity
  8
0
  6
Continuous
 62
     7
370
    13
100
AcDbMText
 10
14861.69728799345
 20
5639.379012592652
 30
0.0
 40
0.25
 41
0.0
 46
0.0
 71
     1
 72
     1
  1
комната управления
  7
Style-Arial
 73
     2
 44
0.6
  0
LINE
  5
752D0
330
725B7
100
AcDbEntity
  8
0
  6
Continuous
 62
     7
370
     0
100
AcDbLine
 10
14860.39237954948
 20
5638.486331108603
 30
0.0
 11
14869.25968792724
 21
5638.486331108603
 31
0.0
  0
LINE
  5
752D1
330
725B7
100
AcDbEntity
  8
0
  6
Continuous
 62
     7
370
     0
100
AcDbLine
 10
14860.39237954948
 20
5637.995822745943
 30
0.0
 11
14869.25968792724
 21
5637.995822745943
 31
0.0
  0
TEXT
  5
752D2
330
725B7
100
AcDbEntity
  8
0
  6
Continuous
 62
     7
370
    13
100
AcDbText
 10
14860.91067293255
 20
5638.605821044588
 30
0.0
 40
0.25
  1
3
  7
Style-Arial
 72
     1
 11
14861.00779094073
 21
5638.730821044588
 31
0.0
100
AcDbText
 73
     2
  0
TEXT
  5
752D3
330
725B7
100
AcDbEntity
  8
0
  6
Continuous
 62
     7
370
    13
100
AcDbText
 10
14860.91010128621
 20
5638.115312681929
 30
0.0
 40
0.25
  1
4
  7
Style-Arial
 72
     1
 11
14861.00721929439
 21
5638.240312681928
 31
0.0
100
AcDbText
 73
     2
  0
MTEXT
  5
752D4
330
725B7
100
AcDbEntity
  8
0
  6
Continuous
 62
     7
370
     0
100
AcDbMText
 10
14868.00087114528
 20
5639.503281448364
 30
0.0
 40
0.25
 41
0.0
 46
0.0
 71
     7
 72
     1
  1
\fArial|b0|i0|c204204|p39;43.3
  7
MONOTXT
 73
     2
 44
0.6
  0
MTEXT
  5
752D5
330
725B7
100
AcDbEntity
  8
0
  6
Continuous
 62
     7
370
    13
100
AcDbMText
 10
14867.96445078191
 20
5639.034362765622
 30
0.0
 40
0.25
 41
0.0
 46
0.0
 71
     7
 72
     1
  1
\fArial|b0|i0|c204204|p39;10.6
  7
MONOTXT
 73
     2
 44
0.6
  0
MTEXT
  5
752D6
330
725B7
100
AcDbEntity
  8
0
  6
Continuous
 62
     7
370
    13
100
AcDbMText
 10
14868.0332497186
 20
5638.557749500403
 30
0.0
 40
0.25
 41
0.0
 46
0.0
 71
     7
 72
     1
  1
\fArial|b0|i0|c204204|p39;7.0
  7
MONOTXT
 73
     2
 44
0.6
  0
MTEXT
  5
752D7
330
725B7
100
AcDbEntity
  8
0
  6
Continuous
 62
     7
370
    13
100
AcDbMText
 10
14867.9269430062
 20
5638.081136235188
 30
0.0
 40
0.25
 41
0.0
 46
0.0
 71
     7
 72
     1
  1
\fArial|b0|i0|c204204|p39;32.6
  7
MONOTXT
 73
     2
 44
0.6
  0
LINE
  5
752D8
330
725B7
100
AcDbEntity
  8
0
  6
Continuous
 62
     7
370
    13
100
AcDbLine
 10
14860.39237954948
 20
5637.505314383282
 30
0.0
 11
14869.25968792724
 21
5637.505314383282
 31
0.0
  0
MTEXT
  5
752D9
330
725B7
100
AcDbEntity
  8
0
  6
Continuous
 62
     7
370
    13
100
AcDbMText
 10
14868.89119530919
 20
5624.28736397539
 30
0.0
 40
0.25
 41
0.0
 46
0.0
 71
     2
 72
     1
  1
Фрагмент плана первого этажа, М 1:100\PРасстановк оборудования
  7
Style-Arial
 73
     2
 44
0.7765243902439023
  0
MTEXT
  5
752DC
330
725B7
100
AcDbEntity
  8
0
  6
Continuous
 62
     7
370
     0
100
AcDbMText
 10
14873.12961105137
 20
5625.190059642669
 30
0.0
 40
0.25
 41
0.0
 46
0.0
 71
     5
 72
     1
  1
\fArial|b0|i0|c204204|p39;П
  7
GOST 2.304
 73
     2
 44
0.72
  0
MTEXT
  5
752DD
330
725B7
100
AcDbEntity
  8
0
  6
Continuous
 62
     7
370
    13
100
AcDbMText
 10
14861.69728799345
 20
5638.864360964285
 30
0.0
 40
0.25
 41
0.0
 46
0.0
 71
     1
 72
     1
  1
подсобное помещение
  7
Style-Arial
 73
     2
 44
0.6
  0
TEXT
  5
752DF
330
725B7
100
AcDbEntity
  8
0
  6
Continuous
 62
     7
370
    13
100
AcDbText
 10
14860.91162567645
 20
5637.648947584975
 30
0.0
 40
0.25
  1
5
  7
Style-Arial
 72
     1
 11
14861.00874368463
 21
5637.773947584975
 31
0.0
100
AcDbText
 73
     2
  0
MTEXT
  5
752E0
330
725B7
100
AcDbEntity
  8
0
  6
Continuous
 62
     7
370
    13
100
AcDbMText
 10
14861.70408826648
 20
5638.065923630078
 30
0.0
 40
0.25
 41
0.0
 46
0.0
 71
     7
 72
     1
  1
\fArial|b0|i0|c204204|p39;коридор (ожидание посетителей)
  7
MONOTXT
 73
     2
 44
0.6
  0
MTEXT
  5
752E1
330
725B7
100
AcDbEntity
  8
0
  6
Continuous
 62
     7
370
    13
100
AcDbMText
 10
14861.70408826648
 20
5637.593279741117
 30
0.0
 40
0.25
 41
0.0
 46
0.0
 71
     7
 72
     1
  1
\fArial|b0|i0|c204204|p39;тамбур
  7
MONOTXT
 73
     2
 44
0.6
  0
TEXT
  5
752E2
330
725B7
100
AcDbEntity
  8
0
  6
Continuous
 62
     7
370
    13
100
AcDbText
 10
14863.37952941196
 20
5644.395050815121
 30
0.0
 40
0.25
  1
%%u32.6%%U
  7
Style-Arial
 11
14863.37952941196
 21
5644.645050815121
 31
0.0
100
AcDbText
 73
     3
  0
MTEXT
  5
752E3
330
725B7
100
AcDbEntity
  8
0
  6
Continuous
 62
     7
370
    13
100
AcDbMText
 10
14868.04317950728
 20
5637.90061160298
 30
0.0
 40
0.25
 41
0.0
 46
0.0
 71
     1
 72
     1
  1
2.0
  7
Style-Arial
 73
     2
 44
0.6
  0
TEXT
  5
752E4
330
725B7
100
AcDbEntity
  8
0
  6
Continuous
 62
     7
370
    13
100
AcDbText
 10
14860.81152120187
 20
5649.00282393894
 30
0.0
 40
0.25
  1
%%u2.0%%U
  7
Style-Arial
 11
14860.81152120187
 21
5649.25282393894
 31
0.0
100
AcDbText
 73
     3
  0
MTEXT
  5
752E5
330
725B7
100
AcDbEntity
  8
0
  6
Continuous
 62
     7
370
     0
100
AcDbMText
 10
14870.91760830799
 20
5644.210025773078
 30
0.0
 40
0.25
 41
0.0
 46
0.0
 71
     5
 72
     1
  1
\fArial|b0|i0|c204204|p39;h-3.28
  7
MONOTXT
 73
     2
 44
0.72
  0
MTEXT
  5
752E6
330
725B7
100
AcDbEntity
  8
0
  6
Continuous
 62
     7
370
     0
100
AcDbMText
 10
14864.93169374878
 20
5644.295172220932
 30
0.0
 40
0.25
 41
0.0
 46
0.0
 71
     7
 72
     1
  1
\fArial|b0|i0|c204204|p39;h-3.0
  7
MONOTXT
 73
     2
 44
0.72
  0
MTEXT
  5
752E7
330
725B7
100
AcDbEntity
  8
0
  6
Continuous
 62
     7
370
     0
100
AcDbMText
 10
14869.69597030328
 20
5650.788994615167
 30
0.0
 40
0.25
 41
0.0
 46
0.0
 71
     7
 72
     1
  1
\fArial|b0|i0|c204204|p39;Канал в полу h - 0.07 м,\Pширина 0.18 м
  7
MONOTXT
 73
     2
 44
0.9
  0
CIRCLE
  5
752EA
330
725B7
100
AcDbEntity
  8
0
  6
Continuous
 62
     7
370
    13
100
AcDbCircle
 10
14872.76531513895
 20
5643.394388067299
 30
0.0
 40
0.025
  0
CIRCLE
  5
752EB
330
725B7
100
AcDbEntity
  8
0
  6
Continuous
 62
     7
370
    13
100
AcDbCircle
 10
14872.76199763527
 20
5643.339325932784
 30
0.0
 40
0.016
  0
CIRCLE
  5
752EC
330
725B7
100
AcDbEntity
  8
0
  6
Continuous
 62
     7
370
    13
100
AcDbCircle
 10
14872.76309282008
 20
5643.294026320934
 30
0.0
 40
0.016
  0
CIRCLE
  5
752ED
330
725B7
100
AcDbEntity
  8
0
  6
Continuous
 62
     7
370
    13
100
AcDbCircle
 10
14874.26031399609
 20
5641.644826711825
 30
0.0
 40
0.025
  0
TEXT
  5
752EE
330
725B7
100
AcDbEntity
  8
0
  6
Continuous
 62
     7
370
    13
100
AcDbText
 10
14870.80506278521
 20
5644.953181834298
 30
0.0
 40
0.25
  1
%%u43.3%%U
  7
Style-Arial
 11
14870.80506278521
 21
5645.203181834299
 31
0.0
100
AcDbText
 73
     3
  0
LINE
  5
752EF
330
725B7
100
AcDbEntity
  8
0
  6
Continuous
 62
     7
370
    13
100
AcDbLine
 10
14861.56322652991
 20
5640.877570100666
 30
0.0
 11
14861.56322652991
 21
5637.505314383282
 31
0.0
  0
LINE
  5
752F0
330
725B7
100
AcDbEntity
  8
0
  6
Continuous
 62
     7
370
    13
100
AcDbLine
 10
14867.44898544261
 20
5640.877570100666
 30
0.0
 11
14867.44898544261
 21
5637.505314383282
 31
0.0
  0
LINE
  5
752F1
330
725B7
100
AcDbEntity
  8
0
  6
Continuous
 62
     7
370
    13
100
AcDbLine
 10
14860.39237954948
 20
5640.877555689876
 30
0.0
 11
14860.39237954948
 21
5637.505314383282
 31
0.0
  0
LINE
  5
752F2
330
725B7
100
AcDbEntity
  8
0
  6
Continuous
 62
     7
370
    13
100
AcDbLine
 10
14869.25968792724
 20
5640.877559376571
 30
0.0
 11
14869.25968792724
 21
5637.505314383282
 31
0.0
  0
MTEXT
  5
752F5
330
725B7
100
AcDbEntity
  8
0
  6
AM_DIN_F_W050x2
 62
     7
370
    30
100
AcDbMText
 10
14864.05249250812
 20
5647.559138567769
 30
0.0
 40
0.25
 41
0.0
 46
0.0
 71
     7
 72
     1
  1
\fArial|b0|i0|c204204|p39;ВРУ\P
  7
MONOTXT
 73
     2
 44
0.72
  0
LINE
  5
752F7
330
725B7
100
AcDbEntity
  8
0
  6
Continuous
 62
     7
370
     0
100
AcDbLine
 10
14863.96297235562
 20
5647.57666656974
 30
0.0
 11
14865.0730839364
 21
5647.57666656974
 31
0.0
  0
VIEWPORT
  5
7370E
330
725CA
100
AcDbEntity
 67
     1
  8
0
  6
Continuous
 62
     1
370
     0
100
AcDbViewport
 10
5.250183132535525
 20
4.000122090685323
 30
0.0
 40
8.400878902060071
 41
6.400909420802384
 68
     1
 69
     1
 12
5.250183132535525
 22
4.000122090685323
 13
0.0
 23
0.0
 14
0.0
 24
0.0
 15
0.1
 25
0.1
 16
0.0
 26
0.0
 36
1.0
 17
0.0
 27
0.0
 37
0.0
 42
50.0
 43
0.0
 44
0.0
 45
6.400909420802384
 50
0.0
 51
0.0
 72
   100
 90
    32768
  1

281
     0
 71
     1
 74
     1
110
0.0
120
0.0
130
0.0
111
1.0
121
0.0
131
0.0
112
0.0
122
1.0
132
0.0
 79
     0
146
0.0
170
     0
 61
    10
348
725DE
292
     1
282
     1
141
0.0
142
0.0
 63
   250
421
  3355443
  0
ENDSEC
  0
SECTION
  2
OBJECTS
  0
DICTIONARY
  5
725BC
330
0
100
AcDbDictionary
281
     1
  3
ACAD_CIP_PREVIOUS_PRODUCT_INFO
350
75F74
  3
ACAD_COLOR
350
725F8
  3
ACAD_DETAILVIEWSTYLE
350
75F68
  3
ACAD_GROUP
350
725E5
  3
ACAD_LAST_SAVED_VERSION_INFO
350
75F75
  3
ACAD_LAYOUT
350
725C9
  3
ACAD_MATERIAL
350
725BE
  3
ACAD_MLEADERSTYLE
350
725FB
  3
ACAD_MLINESTYLE
350
725E6
  3
ACAD_PLOTSETTINGS
350
725E7
  3
ACAD_PLOTSTYLENAME
350
725BB
  3
ACAD_SCALELIST
350
725F9
  3
ACAD_SECTIONVIEWSTYLE
350
75F66
  3
ACAD_TABLESTYLE
350
725FA
  3
ACAD_VISUALSTYLE
350
725DF
  3
AcadDim
350
727C8
  3
ACDB_RECOMPOSE_DATA
350
760F3
  3
AcDbVariableDictionary
350
736C8
  3
MicroStation
350
727C9
  0
DICTIONARY
  5
725D2
330
725D1
100
AcDbDictionary
280
     1
281
     1
  3
ACAD_LAYERFILTERS
360
72626
  3
ACAD_LAYERSTATES
360
725D3
  0
DICTIONARY
  5
75F76
330
725B9
100
AcDbDictionary
280
     1
281
     1
  3
ADSK_XREC_LAYER_RECONCILED
360
75F77
  0
DICTIONARY
  5
75FDA
330
3B7
100
AcDbDictionary
280
     1
281
     1
  3
ADSK_XREC_LAYER_RECONCILED
360
75FDB
  0
DICTIONARY
  5
75FF4
330
3C4
100
AcDbDictionary
280
     1
281
     1
  3
ADSK_XREC_LAYER_RECONCILED
360
75FF5
  0
DICTIONARY
  5
736B4
330
725B7
100
AcDbDictionary
280
     1
281
     1
  3
ACAD_SORTENTS
360
736B5
  0
XRECORD
  5
75F74
102
{ACAD_REACTORS
330
725BC
102
}
330
725BC
100
AcDbXrecord
280
     1
300
ACD
300
2026
300
88023ACD_2026_0F
  0
DICTIONARY
  5
725F8
102
{ACAD_REACTORS
330
725BC
102
}
330
725BC
100
AcDbDictionary
281
     1
  3
Standard$black
350
72F45
  0
DICTIONARY
  5
75F68
102
{ACAD_REACTORS
330
725BC
102
}
330
725BC
100
AcDbDictionary
281
     1
  3
Imperial24
350
75F69
  0
DICTIONARY
  5
725E5
102
{ACAD_REACTORS
330
725BC
102
}
330
725BC
100
AcDbDictionary
281
     1
  0
XRECORD
  5
75F75
102
{ACAD_REACTORS
330
725BC
102
}
330
725BC
100
AcDbXrecord
280
     1
300
{0D4E05D6-41C5-FB43-BEC4-A7934169FA33}
301
{D3CE042C-8847-F148-8D28-37B0223B6713}
302
{0D4E05D6-41C5-FB43-BEC4-A7934169FA33}
303
C:\YandexDisk\Studies\_03_Maga\0_Diplom\Diplom\Dataset\sources\8_full_annotated.dxf
  0
DICTIONARY
  5
725C9
102
{ACAD_REACTORS
330
725BC
102
}
330
725BC
100
AcDbDictionary
281
     1
  3
Layout1
350
725CD
  3
Model
350
725C8
  0
DICTIONARY
  5
725BE
102
{ACAD_REACTORS
330
725BC
102
}
330
725BC
100
AcDbDictionary
281
     1
  3
ByBlock
350
725F0
  3
ByLayer
350
725E8
  3
Global
350
725BD
  0
DICTIONARY
  5
725FB
102
{ACAD_REACTORS
330
725BC
102
}
330
725BC
100
AcDbDictionary
281
     1
  3
Standard
350
736E1
  0
DICTIONARY
  5
725E6
102
{ACAD_REACTORS
330
725BC
102
}
330
725BC
100
AcDbDictionary
281
     1
  3
Standard
350
725FC
  0
DICTIONARY
  5
725E7
102
{ACAD_REACTORS
330
725BC
102
}
330
725BC
100
AcDbDictionary
281
     1
  0
ACDBDICTIONARYWDFLT
  5
725BB
102
{ACAD_REACTORS
330
725BC
102
}
330
725BC
100
AcDbDictionary
281
     1
  3
Normal
350
725BA
100
AcDbDictionaryWithDefault
340
725BA
  0
DICTIONARY
  5
725F9
102
{ACAD_REACTORS
330
725BC
102
}
330
725BC
100
AcDbDictionary
281
     1
  3
A0
350
72600
  3
A1
350
72601
  3
A2
350
72602
  3
A3
350
72603
  3
A4
350
72604
  3
A5
350
72605
  3
A6
350
72606
  3
A7
350
72607
  3
A8
350
72608
  3
A9
350
72609
  3
B0
350
7260A
  3
B1
350
7260B
  3
B2
350
7260C
  3
B3
350
7260D
  3
B4
350
7260E
  3
B5
350
7260F
  3
B6
350
72610
  3
B7
350
72611
  3
B8
350
72612
  3
B9
350
72613
  3
C0
350
72614
  3
C1
350
72615
  3
C2
350
72616
  3
C3
350
72617
  3
C4
350
72618
  3
C5
350
72619
  3
C6
350
7261A
  3
C7
350
7261B
  3
C8
350
7261C
  3
C9
350
7261D
  3
D0
350
7261E
  3
D1
350
7261F
  3
D2
350
72620
  0
DICTIONARY
  5
75F66
102
{ACAD_REACTORS
330
725BC
102
}
330
725BC
100
AcDbDictionary
281
     1
  3
Imperial24
350
75F67
  0
DICTIONARY
  5
725FA
102
{ACAD_REACTORS
330
725BC
102
}
330
725BC
100
AcDbDictionary
281
     1
  3
Standard
350
725FD
  0
DICTIONARY
  5
725DF
102
{ACAD_REACTORS
330
725BC
102
}
330
725BC
100
AcDbDictionary
281
     1
  3
2dWireframe
350
725DE
  3
3D Hidden
350
736D6
  3
3dWireframe
350
725FF
  3
Basic
350
736D5
  3
Brighten
350
736D9
  3
ColorChange
350
736DD
  3
Conceptual
350
736D7
  3
Dim
350
736D8
  3
EdgeColorOff
350
736E0
  3
Facepattern
350
736DC
  3
Flat
350
736D1
  3
FlatWithEdges
350
736D2
  3
Gouraud
350
736D3
  3
GouraudWithEdges
350
736D4
  3
Hidden
350
75F60
  3
JitterOff
350
736DE
  3
Linepattern
350
736DB
  3
OverhangOff
350
736DF
  3
Realistic
350
725FE
  3
Shaded
350
75F65
  3
Shaded with edges
350
75F64
  3
Shades of Gray
350
75F61
  3
Sketchy
350
75F62
  3
Thicken
350
736DA
  3
Wireframe
350
75F5F
  3
X-Ray
350
75F63
  0
XRECORD
  5
727C8
102
{ACAD_REACTORS
330
725BC
102
}
330
725BC
100
AcDbXrecord
280
     1
 90
   990106
  3
 
 60
     0
 61
     0
 62
     1
 63
     1
 64
     0
 65
     0
 66
     0
 67
     3
 68
     1
 69
     1
 70
     0
 71
     0
 72
     0
 40
0.0
170
     0
  0
XRECORD
  5
760F3
102
{ACAD_REACTORS
330
725BC
102
}
330
725BC
100
AcDbXrecord
280
     1
 90
        1
330
725FD
  0
DICTIONARY
  5
736C8
102
{ACAD_REACTORS
330
725BC
102
}
330
725BC
100
AcDbDictionary
281
     1
  3
CANNOSCALE
350
736CC
  3
CMLEADERSTYLE
350
736CA
  3
CTABLESTYLE
350
736C9
  3
CVIEWDETAILSTYLE
350
760C3
  3
CVIEWSECTIONSTYLE
350
760C4
  3
LAYEREVAL
350
736CE
  3
LAYERNOTIFY
350
736CF
  3
LIGHTINGUNITS
350
736CD
  3
MSLTSCALE
350
736CB
  0
DICTIONARY
  5
727C9
102
{ACAD_REACTORS
330
725BC
102
}
330
725BC
100
AcDbDictionary
281
     1
  0
DICTIONARY
  5
72626
102
{ACAD_REACTORS
330
725D2
102
}
330
725D2
100
AcDbDictionary
281
     1
  0
DICTIONARY
  5
725D3
102
{ACAD_REACTORS
330
725D2
102
}
330
725D2
100
AcDbDictionary
281
     1
  0
XRECORD
  5
75F77
102
{ACAD_REACTORS
330
75F76
102
}
330
75F76
100
AcDbXrecord
280
     1
290
     1
  0
XRECORD
  5
75FDB
102
{ACAD_REACTORS
330
75FDA
102
}
330
75FDA
100
AcDbXrecord
280
     1
290
     1
  0
XRECORD
  5
75FF5
102
{ACAD_REACTORS
330
75FF4
102
}
330
75FF4
100
AcDbXrecord
280
     1
290
     1
  0
SORTENTSTABLE
  5
736B5
102
{ACAD_REACTORS
330
736B4
102
}
330
736B4
100
AcDbSortentsTable
330
725B7
  0
DBCOLOR
  5
72F45
102
{ACAD_REACTORS
330
725F8
102
}
330
725F8
100
AcDbColor
 62
    18
420
        0
430
Standard$black
1001
ACAD
1000
DBColXD
1070
    18
1071
-1040187392
1000
Standard$black
1000
DBColXD
1070
    18
1071
-1040187392
1000
Standard$black
1000
DBColXD
1070
    18
1071
-1040187392
1000
Standard$black
1000
DBColXD
1070
    18
1071
-1040187392
1000
Standard$black
1000
DBColXD
1070
    18
1071
-1040187392
1000
Standard$black
1000
DBColXD
1070
    18
1071
-1040187392
1000
Standard$black
1000
DBColXD
1070
    18
1071
-1040187392
1000
Standard$black
1000
DBColXD
1070
    18
1071
-1040187392
1000
Standard$black
  0
ACDBDETAILVIEWSTYLE
  5
75F69
102
{ACAD_REACTORS
330
75F68
102
}
330
75F68
100
AcDbModelDocViewStyle
 70
     0
  3
Imperial24
290
     1
300
Imperial24
 90
        0
100
AcDbDetailViewStyle
 70
     0
 71
     0
 90
        3
 71
     1
340
725D5
 62
   256
 40
0.24
340
0
 62
   256
 40
0.24
300

 40
0.36
280
     3
 71
     2
340
725C6
 90
       25
 62
   256
 71
     3
340
725D5
 62
   256
 40
0.24
 90
        1
 40
0.75
 90
        1
300
%<\AcVar ViewType \f "%tc1">% %<\AcVar ViewDetailId>%\PМАСШТАБ %<\AcVar ViewScale \f "%sn">%
 71
     4
340
725C6
 90
       25
 62
   256
340
725C6
 90
       25
 62
   256
280
     0
  0
LAYOUT
  5
725CD
102
{ACAD_XDICTIONARY
360
725CE
102
}
102
{ACAD_REACTORS
330
725C9
102
}
330
725C9
100
AcDbPlotSettings
  1

  2
none_device
  4
Letter_(8.50_x_11.00_Inches)
  6

 40
6.349999904632568
 41
6.349999904632568
 42
6.350006103515625
 43
6.350006103515625
 44
215.8999938964844
 45
279.3999938964844
 46
0.0
 47
0.0
 48
0.0
 49
0.0
140
0.0
141
0.0
142
1.0
143
1.0
 70
   688
 72
     0
 73
     1
 74
     5
  7

 75
    16
147
1.0
 76
     0
 77
     2
 78
   300
148
0.0
149
0.0
100
AcDbLayout
  1
Layout1
 70
     0
 71
     1
 10
-0.2500002402958907
 20
-0.2499999962453767
 11
10.74999951940821
 21
8.249999763458731
 12
0.0
 22
0.0
 32
0.0
 14
1.049743681505489
 24
0.7996673802841308
 34
-0.0015258207003583
 15
9.450622583565561
 25
7.200576801086516
 35
0.0000000349246037
146
0.0
 13
0.0
 23
0.0
 33
0.0
 16
1.0
 26
0.0
 36
0.0
 17
0.0
 27
1.0
 37
0.0
 76
     0
330
725CA
331
7370E
1001
ACAD_PSEXT
1000
None
1000
None
1000
Not applicable
1000
The layout will not be plotted unless a new plotter configuration name is selected.
1070
     0
  0
LAYOUT
  5
725C8
102
{ACAD_REACTORS
330
725C9
102
}
330
725C9
100
AcDbPlotSettings
  1

  2
none_device
  4
ANSI_A_(8.50_x_11.00_Inches)
  6

 40
6.349999904632568
 41
19.04999923706055
 42
6.350006103515625
 43
19.04998779296875
 44
215.8999938964844
 45
279.3999938964844
 46
0.0
 47
0.0
 48
0.0
 49
0.0
140
0.0
141
0.0
142
1.0
143
2.584895464708373
 70
 11952
 72
     0
 73
     1
 74
     0
  7

 75
     0
147
0.3868628397755418
 76
     0
 77
     2
 78
   300
148
0.0
149
0.0
100
AcDbLayout
  1
Model
 70
     1
 71
     0
 10
0.0
 20
0.0
 11
12.0
 21
9.0
 12
0.0
 22
0.0
 32
0.0
 14
0.0
 24
0.0
 34
0.0
 15
0.0
 25
0.0
 35
0.0
146
0.0
 13
0.0
 23
0.0
 33
0.0
 16
1.0
 26
0.0
 36
0.0
 17
0.0
 27
1.0
 37
0.0
 76
     0
330
725B7
331
48D
  0
MATERIAL
  5
725F0
102
{ACAD_XDICTIONARY
360
725F1
102
}
102
{ACAD_REACTORS
330
725BE
102
}
330
725BE
100
AcDbMaterial
  1
ByBlock
 72
     0
 43
0.0208333333333333
 43
0.0
 43
0.0
 43
0.0
 43
0.0
 43
0.0208333333333333
 43
0.0
 43
0.0
 43
0.0
 43
0.0
 43
1.0
 43
0.0
 43
0.0
 43
0.0
 43
0.0
 43
1.0
 77
     0
 47
0.0208333333333333
 47
0.0
 47
0.0
 47
0.0
 47
0.0
 47
0.0208333333333333
 47
0.0
 47
0.0
 47
0.0
 47
0.0
 47
1.0
 47
0.0
 47
0.0
 47
0.0
 47
0.0
 47
1.0
171
     0
 49
0.0208333333333333
 49
0.0
 49
0.0
 49
0.0
 49
0.0
 49
0.0208333333333333
 49
0.0
 49
0.0
 49
0.0
 49
0.0
 49
1.0
 49
0.0
 49
0.0
 49
0.0
 49
0.0
 49
1.0
175
     0
142
0.0208333333333333
142
0.0
142
0.0
142
0.0
142
0.0
142
0.0208333333333333
142
0.0
142
0.0
142
0.0
142
0.0
142
1.0
142
0.0
142
0.0
142
0.0
142
0.0
142
1.0
179
     0
144
0.0208333333333333
144
0.0
144
0.0
144
0.0
144
0.0
144
0.0208333333333333
144
0.0
144
0.0
144
0.0
144
0.0
144
1.0
144
0.0
144
0.0
144
0.0
144
0.0
144
1.0
147
0.0208333333333333
147
0.0
147
0.0
147
0.0
147
0.0
147
0.0208333333333333
147
0.0
147
0.0
147
0.0
147
0.0
147
1.0
147
0.0
147
0.0
147
0.0
147
0.0
147
1.0
  0
MATERIAL
  5
725E8
102
{ACAD_XDICTIONARY
360
725E9
102
}
102
{ACAD_REACTORS
330
725BE
102
}
330
725BE
100
AcDbMaterial
  1
ByLayer
 72
     0
 43
0.0208333333333333
 43
0.0
 43
0.0
 43
0.0
 43
0.0
 43
0.0208333333333333
 43
0.0
 43
0.0
 43
0.0
 43
0.0
 43
1.0
 43
0.0
 43
0.0
 43
0.0
 43
0.0
 43
1.0
 77
     0
 47
0.0208333333333333
 47
0.0
 47
0.0
 47
0.0
 47
0.0
 47
0.0208333333333333
 47
0.0
 47
0.0
 47
0.0
 47
0.0
 47
1.0
 47
0.0
 47
0.0
 47
0.0
 47
0.0
 47
1.0
171
     0
 49
0.0208333333333333
 49
0.0
 49
0.0
 49
0.0
 49
0.0
 49
0.0208333333333333
 49
0.0
 49
0.0
 49
0.0
 49
0.0
 49
1.0
 49
0.0
 49
0.0
 49
0.0
 49
0.0
 49
1.0
175
     0
142
0.0208333333333333
142
0.0
142
0.0
142
0.0
142
0.0
142
0.0208333333333333
142
0.0
142
0.0
142
0.0
142
0.0
142
1.0
142
0.0
142
0.0
142
0.0
142
0.0
142
1.0
179
     0
144
0.0208333333333333
144
0.0
144
0.0
144
0.0
144
0.0
144
0.0208333333333333
144
0.0
144
0.0
144
0.0
144
0.0
144
1.0
144
0.0
144
0.0
144
0.0
144
0.0
144
1.0
147
0.0208333333333333
147
0.0
147
0.0
147
0.0
147
0.0
147
0.0208333333333333
147
0.0
147
0.0
147
0.0
147
0.0
147
1.0
147
0.0
147
0.0
147
0.0
147
0.0
147
1.0
  0
MATERIAL
  5
725BD
102
{ACAD_XDICTIONARY
360
725BF
102
}
102
{ACAD_REACTORS
330
725BE
102
}
330
725BE
100
AcDbMaterial
  1
Global
 72
     0
 43
0.0208333333333333
 43
0.0
 43
0.0
 43
0.0
 43
0.0
 43
0.0208333333333333
 43
0.0
 43
0.0
 43
0.0
 43
0.0
 43
1.0
 43
0.0
 43
0.0
 43
0.0
 43
0.0
 43
1.0
 77
     0
 47
0.0208333333333333
 47
0.0
 47
0.0
 47
0.0
 47
0.0
 47
0.0208333333333333
 47
0.0
 47
0.0
 47
0.0
 47
0.0
 47
1.0
 47
0.0
 47
0.0
 47
0.0
 47
0.0
 47
1.0
171
     0
 49
0.0208333333333333
 49
0.0
 49
0.0
 49
0.0
 49
0.0
 49
0.0208333333333333
 49
0.0
 49
0.0
 49
0.0
 49
0.0
 49
1.0
 49
0.0
 49
0.0
 49
0.0
 49
0.0
 49
1.0
175
     0
142
0.0208333333333333
142
0.0
142
0.0
142
0.0
142
0.0
142
0.0208333333333333
142
0.0
142
0.0
142
0.0
142
0.0
142
1.0
142
0.0
142
0.0
142
0.0
142
0.0
142
1.0
179
     0
144
0.0208333333333333
144
0.0
144
0.0
144
0.0
144
0.0
144
0.0208333333333333
144
0.0
144
0.0
144
0.0
144
0.0
144
1.0
144
0.0
144
0.0
144
0.0
144
0.0
144
1.0
147
0.0208333333333333
147
0.0
147
0.0
147
0.0
147
0.0
147
0.0208333333333333
147
0.0
147
0.0
147
0.0
147
0.0
147
1.0
147
0.0
147
0.0
147
0.0
147
0.0
147
1.0
  0
MLEADERSTYLE
  5
736E1
102
{ACAD_REACTORS
330
725FB
102
}
330
725FB
100
AcDbMLeaderStyle
179
     2
170
     2
171
     1
172
     0
 90
        2
 40
0.0
 41
0.0
173
     1
 91
-1056964608
340
725D8
 92
       -2
290
     1
 42
0.09
291
     1
 43
0.36
  3
Standard
 44
0.18
300

342
725D5
174
     1
178
     6
175
     1
176
     0
 93
-1056964608
 45
0.18
292
     0
297
     0
 46
0.18
 94
-1056964608
 47
1.0
 49
1.0
140
1.0
293
     1
141
0.0
294
     1
177
     0
142
1.0
295
     0
296
     0
143
0.125
271
     0
272
     9
273
     9
298
     0
  0
MLINESTYLE
  5
725FC
102
{ACAD_REACTORS
330
725E6
102
}
330
725E6
100
AcDbMlineStyle
  2
STANDARD
 70
     0
  3

 62
   256
 51
90.0
 52
90.0
 71
     2
 49
0.5
 62
   256
  6
BYLAYER
 49
-0.5
 62
   256
  6
BYLAYER
  0
ACDBPLACEHOLDER
  5
725BA
102
{ACAD_REACTORS
330
725BB
102
}
330
725BB
  0
SCALE
  5
72600
102
{ACAD_REACTORS
330
725F9
102
}
330
725F9
100
AcDbScale
 70
     0
300
1:1
140
1.0
141
1.0
290
     1
  0
SCALE
  5
72601
102
{ACAD_REACTORS
330
725F9
102
}
330
725F9
100
AcDbScale
 70
     0
300
1:2
140
1.0
141
2.0
290
     0
  0
SCALE
  5
72602
102
{ACAD_REACTORS
330
725F9
102
}
330
725F9
100
AcDbScale
 70
     0
300
1:4
140
1.0
141
4.0
290
     0
  0
SCALE
  5
72603
102
{ACAD_REACTORS
330
725F9
102
}
330
725F9
100
AcDbScale
 70
     0
300
1:5
140
1.0
141
5.0
290
     0
  0
SCALE
  5
72604
102
{ACAD_REACTORS
330
725F9
102
}
330
725F9
100
AcDbScale
 70
     0
300
1:8
140
1.0
141
8.0
290
     0
  0
SCALE
  5
72605
102
{ACAD_REACTORS
330
725F9
102
}
330
725F9
100
AcDbScale
 70
     0
300
1:10
140
1.0
141
10.0
290
     0
  0
SCALE
  5
72606
102
{ACAD_REACTORS
330
725F9
102
}
330
725F9
100
AcDbScale
 70
     0
300
1:16
140
1.0
141
16.0
290
     0
  0
SCALE
  5
72607
102
{ACAD_REACTORS
330
725F9
102
}
330
725F9
100
AcDbScale
 70
     0
300
1:20
140
1.0
141
20.0
290
     0
  0
SCALE
  5
72608
102
{ACAD_REACTORS
330
725F9
102
}
330
725F9
100
AcDbScale
 70
     0
300
1:30
140
1.0
141
30.0
290
     0
  0
SCALE
  5
72609
102
{ACAD_REACTORS
330
725F9
102
}
330
725F9
100
AcDbScale
 70
     0
300
1:40
140
1.0
141
40.0
290
     0
  0
SCALE
  5
7260A
102
{ACAD_REACTORS
330
725F9
102
}
330
725F9
100
AcDbScale
 70
     0
300
1:50
140
1.0
141
50.0
290
     0
  0
SCALE
  5
7260B
102
{ACAD_REACTORS
330
725F9
102
}
330
725F9
100
AcDbScale
 70
     0
300
1:100
140
1.0
141
100.0
290
     0
  0
SCALE
  5
7260C
102
{ACAD_REACTORS
330
725F9
102
}
330
725F9
100
AcDbScale
 70
     0
300
2:1
140
2.0
141
1.0
290
     0
  0
SCALE
  5
7260D
102
{ACAD_REACTORS
330
725F9
102
}
330
725F9
100
AcDbScale
 70
     0
300
4:1
140
4.0
141
1.0
290
     0
  0
SCALE
  5
7260E
102
{ACAD_REACTORS
330
725F9
102
}
330
725F9
100
AcDbScale
 70
     0
300
8:1
140
8.0
141
1.0
290
     0
  0
SCALE
  5
7260F
102
{ACAD_REACTORS
330
725F9
102
}
330
725F9
100
AcDbScale
 70
     0
300
10:1
140
10.0
141
1.0
290
     0
  0
SCALE
  5
72610
102
{ACAD_REACTORS
330
725F9
102
}
330
725F9
100
AcDbScale
 70
     0
300
100:1
140
100.0
141
1.0
290
     0
  0
SCALE
  5
72611
102
{ACAD_REACTORS
330
725F9
102
}
330
725F9
100
AcDbScale
 70
     0
300
1/128" = 1'-0"
140
0.0078125
141
12.0
290
     0
  0
SCALE
  5
72612
102
{ACAD_REACTORS
330
725F9
102
}
330
725F9
100
AcDbScale
 70
     0
300
1/64" = 1'-0"
140
0.015625
141
12.0
290
     0
  0
SCALE
  5
72613
102
{ACAD_REACTORS
330
725F9
102
}
330
725F9
100
AcDbScale
 70
     0
300
1/32" = 1'-0"
140
0.03125
141
12.0
290
     0
  0
SCALE
  5
72614
102
{ACAD_REACTORS
330
725F9
102
}
330
725F9
100
AcDbScale
 70
     0
300
1/16" = 1'-0"
140
0.0625
141
12.0
290
     0
  0
SCALE
  5
72615
102
{ACAD_REACTORS
330
725F9
102
}
330
725F9
100
AcDbScale
 70
     0
300
3/32" = 1'-0"
140
0.09375
141
12.0
290
     0
  0
SCALE
  5
72616
102
{ACAD_REACTORS
330
725F9
102
}
330
725F9
100
AcDbScale
 70
     0
300
1/8" = 1'-0"
140
0.125
141
12.0
290
     0
  0
SCALE
  5
72617
102
{ACAD_REACTORS
330
725F9
102
}
330
725F9
100
AcDbScale
 70
     0
300
3/16" = 1'-0"
140
0.1875
141
12.0
290
     0
  0
SCALE
  5
72618
102
{ACAD_REACTORS
330
725F9
102
}
330
725F9
100
AcDbScale
 70
     0
300
1/4" = 1'-0"
140
0.25
141
12.0
290
     0
  0
SCALE
  5
72619
102
{ACAD_REACTORS
330
725F9
102
}
330
725F9
100
AcDbScale
 70
     0
300
3/8" = 1'-0"
140
0.375
141
12.0
290
     0
  0
SCALE
  5
7261A
102
{ACAD_REACTORS
330
725F9
102
}
330
725F9
100
AcDbScale
 70
     0
300
1/2" = 1'-0"
140
0.5
141
12.0
290
     0
  0
SCALE
  5
7261B
102
{ACAD_REACTORS
330
725F9
102
}
330
725F9
100
AcDbScale
 70
     0
300
3/4" = 1'-0"
140
0.75
141
12.0
290
     0
  0
SCALE
  5
7261C
102
{ACAD_REACTORS
330
725F9
102
}
330
725F9
100
AcDbScale
 70
     0
300
1" = 1'-0"
140
1.0
141
12.0
290
     0
  0
SCALE
  5
7261D
102
{ACAD_REACTORS
330
725F9
102
}
330
725F9
100
AcDbScale
 70
     0
300
1-1/2" = 1'-0"
140
1.5
141
12.0
290
     0
  0
SCALE
  5
7261E
102
{ACAD_REACTORS
330
725F9
102
}
330
725F9
100
AcDbScale
 70
     0
300
3" = 1'-0"
140
3.0
141
12.0
290
     0
  0
SCALE
  5
7261F
102
{ACAD_REACTORS
330
725F9
102
}
330
725F9
100
AcDbScale
 70
     0
300
6" = 1'-0"
140
6.0
141
12.0
290
     0
  0
SCALE
  5
72620
102
{ACAD_REACTORS
330
725F9
102
}
330
725F9
100
AcDbScale
 70
     0
300
1'-0" = 1'-0"
140
12.0
141
12.0
290
     0
  0
ACDBSECTIONVIEWSTYLE
  5
75F67
102
{ACAD_REACTORS
330
75F66
102
}
330
75F66
100
AcDbModelDocViewStyle
 70
     0
  3
Imperial24
290
     1
300
Imperial24
 90
        0
100
AcDbSectionViewStyle
 70
     0
 71
     0
 90
       78
 71
     1
340
725D5
 62
   256
 40
0.24
340
0
340
0
 62
   256
 40
0.24
300
I, O, Q, S, X, Z
 40
0.48
 90
        3
 40
0.18
 90
        1
 71
     2
340
725C6
 90
       25
 62
   256
340
725C6
 90
       50
 62
   256
 40
0.24
 40
0.0
 40
0.24
 71
     3
340
725D5
 62
   256
 40
0.24
 90
        1
 40
0.75
 90
        1
300
%<\AcVar ViewType \f "%tc1">% %<\AcVar ViewSectionStartId>%-%<\AcVar ViewSectionEndId>%\PМАСШТАБ %<\AcVar ViewScale \f "%sn">%
 71
     4
 62
   256
 62
   257
300
ANSI31
 40
1.0
 90
        0
290
     0
290
     0
 90
        6
 40
0.0
 40
1.570796326794896
 40
0.2617993877991494
 40
1.308996938995747
 40
-0.2617993877991494
 40
1.832595714594046
  0
TABLESTYLE
  5
725FD
102
{ACAD_XDICTIONARY
360
736BF
102
}
102
{ACAD_REACTORS
330
725FA
102
}
330
725FA
100
AcDbTableStyle
280
     0
  3
Standard
 70
     0
 71
     0
 40
0.06
 41
0.06
280
     0
281
     0
  7
Standard
140
0.18
170
     2
 62
     0
 63
     7
283
     0
 90
        4
 91
        0
  1

274
    -2
284
     1
 64
     0
275
    -2
285
     1
 65
     0
276
    -2
286
     1
 66
     0
277
    -2
287
     1
 67
     0
278
    -2
288
     1
 68
     0
279
    -2
289
     1
 69
     0
  7
Standard
140
0.25
170
     5
 62
     0
 63
     7
283
     0
 90
        4
 91
        0
  1

274
    -2
284
     1
 64
     0
275
    -2
285
     1
 65
     0
276
    -2
286
     1
 66
     0
277
    -2
287
     1
 67
     0
278
    -2
288
     1
 68
     0
279
    -2
289
     1
 69
     0
  7
Standard
140
0.18
170
     5
 62
     0
 63
     7
283
     0
 90
        4
 91
        0
  1

274
    -2
284
     1
 64
     0
275
    -2
285
     1
 65
     0
276
    -2
286
     1
 66
     0
277
    -2
287
     1
 67
     0
278
    -2
288
     1
 68
     0
279
    -2
289
     1
 69
     0
  0
VISUALSTYLE
  5
725DE
102
{ACAD_REACTORS
330
725DF
102
}
330
725DF
100
AcDbVisualStyle
  2
2dWireframe
 70
     4
177
     3
291
     0
 70
    58
 90
        0
176
     1
 90
        2
176
     1
 90
        0
176
     1
 90
        0
176
     1
 40
0.6
176
     1
 40
30.0
176
     1
 62
     7
420
 16777215
176
     1
 90
        1
176
     1
 90
        4
176
     1
 62
     7
176
     1
 62
   257
176
     1
 90
        1
176
     1
 90
        1
176
     1
 40
1.0
176
     1
 90
        0
176
     1
 62
   257
176
     1
 40
1.0
176
     1
 90
        1
176
     1
 90
        6
176
     1
 90
        2
176
     1
 62
     7
176
     1
 90
        5
176
     1
 90
        0
176
     1
 90
        0
176
     1
290
     0
176
     1
 90
        1
176
     1
 40
0.0
176
     1
 90
        0
176
     1
290
     1
176
     1
290
     1
176
     1
290
     0
176
     1
290
     0
176
     1
290
     0
176
     1
290
     0
176
     1
290
     0
176
     1
290
     0
176
     1
290
     0
176
     1
 90
       50
176
     1
 40
0.0
176
     1
 40
1.0
176
     1
 90
        0
176
     1
 62
    18
420
        0
176
     1
 90
       50
176
     1
 90
        3
176
     1
 62
     5
420
      255
176
     1
290
     0
176
     1
 90
       50
176
     1
 90
       50
176
     1
 90
       50
176
     1
290
     0
176
     1
 90
       50
176
     1
 62
   256
176
     0
 40
1.0
176
     0
 90
        2
176
     1
  1
strokes_ogs.tif
176
     1
290
     0
176
     1
 40
1.0
176
     1
 40
1.0
176
     1
  0
VISUALSTYLE
  5
736D6
102
{ACAD_REACTORS
330
725DF
102
}
330
725DF
100
AcDbVisualStyle
  2
3D Hidden
 70
     6
177
     3
291
     0
 70
    58
 90
        1
176
     1
 90
        2
176
     1
 90
        2
176
     1
 90
        0
176
     1
 40
0.6
176
     1
 40
30.0
176
     1
 62
     7
420
 16777215
176
     1
 90
        2
176
     1
 90
        2
176
     1
 62
     7
176
     1
 62
   257
176
     1
 90
        2
176
     1
 90
        1
176
     1
 40
179.0
176
     1
 90
        0
176
     1
 62
   257
176
     1
 40
1.0
176
     1
 90
        1
176
     1
 90
        6
176
     1
 90
        2
176
     1
 62
     7
176
     1
 90
        3
176
     1
 90
        0
176
     1
 90
        0
176
     1
290
     0
176
     1
 90
        1
176
     1
 40
0.0
176
     1
 90
        0
176
     1
290
     0
176
     1
290
     1
176
     1
290
     1
176
     1
290
     0
176
     1
290
     0
176
     1
290
     0
176
     1
290
     0
176
     1
290
     0
176
     1
290
     0
176
     1
 90
       50
176
     1
 40
0.0
176
     1
 40
1.0
176
     1
 90
        0
176
     1
 62
    18
420
        0
176
     1
 90
       50
176
     1
 90
        3
176
     1
 62
     5
420
      255
176
     1
290
     0
176
     1
 90
       50
176
     1
 90
       50
176
     1
 90
       50
176
     1
290
     0
176
     1
 90
       50
176
     1
 62
   256
176
     0
 40
1.0
176
     0
 90
        2
176
     1
  1
strokes_ogs.tif
176
     1
290
     0
176
     1
 40
1.0
176
     1
 40
1.0
176
     1
  0
VISUALSTYLE
  5
725FF
102
{ACAD_REACTORS
330
725DF
102
}
330
725DF
100
AcDbVisualStyle
  2
3dWireframe
 70
     5
177
     3
291
     0
 70
    58
 90
        0
176
     1
 90
        2
176
     1
 90
        0
176
     1
 90
        0
176
     1
 40
0.6
176
     1
 40
30.0
176
     1
 62
     7
420
 16777215
176
     1
 90
        1
176
     1
 90
        4
176
     1
 62
     7
176
     1
 62
   257
176
     1
 90
        1
176
     1
 90
        1
176
     1
 40
1.0
176
     1
 90
        0
176
     1
 62
   257
176
     1
 40
1.0
176
     1
 90
        1
176
     1
 90
        6
176
     1
 90
        2
176
     1
 62
     7
176
     1
 90
        5
176
     1
 90
        0
176
     1
 90
        0
176
     1
290
     0
176
     1
 90
        1
176
     1
 40
0.0
176
     1
 90
        0
176
     1
290
     0
176
     1
290
     1
176
     1
290
     1
176
     1
290
     0
176
     1
290
     0
176
     1
290
     0
176
     1
290
     0
176
     1
290
     0
176
     1
290
     0
176
     1
 90
       50
176
     1
 40
0.0
176
     1
 40
1.0
176
     1
 90
        0
176
     1
 62
    18
420
        0
176
     1
 90
       50
176
     1
 90
        3
176
     1
 62
     5
420
      255
176
     1
290
     0
176
     1
 90
       50
176
     1
 90
       50
176
     1
 90
       50
176
     1
290
     0
176
     1
 90
       50
176
     1
 62
   256
176
     0
 40
1.0
176
     0
 90
        2
176
     1
  1
strokes_ogs.tif
176
     1
290
     0
176
     1
 40
1.0
176
     1
 40
1.0
176
     1
  0
VISUALSTYLE
  5
736D5
102
{ACAD_REACTORS
330
725DF
102
}
330
725DF
100
AcDbVisualStyle
  2
Basic
 70
     7
177
     3
291
     1
 70
    58
 90
        1
176
     1
 90
        0
176
     1
 90
        1
176
     1
 90
        0
176
     1
 40
0.6
176
     1
 40
30.0
176
     1
 62
     7
420
 16777215
176
     1
 90
        0
176
     1
 90
        4
176
     1
 62
     7
176
     1
 62
   257
176
     1
 90
        1
176
     1
 90
        1
176
     1
 40
1.0
176
     1
 90
        8
176
     1
 62
     7
176
     1
 40
1.0
176
     1
 90
        1
176
     1
 90
        6
176
     1
 90
        2
176
     1
 62
     7
176
     1
 90
        5
176
     1
 90
        0
176
     1
 90
        0
176
     1
290
     0
176
     1
 90
        1
176
     1
 40
0.0
176
     1
 90
        0
176
     1
290
     0
176
     1
290
     1
176
     1
290
     1
176
     1
290
     0
176
     1
290
     0
176
     1
290
     0
176
     1
290
     0
176
     1
290
     0
176
     1
290
     0
176
     1
 90
       50
176
     1
 40
0.0
176
     1
 40
1.0
176
     1
 90
        0
176
     1
 62
    18
420
        0
176
     1
 90
       50
176
     1
 90
        3
176
     1
 62
     5
420
      255
176
     1
290
     0
176
     1
 90
       50
176
     1
 90
       50
176
     1
 90
       50
176
     1
290
     0
176
     1
 90
       50
176
     1
 62
   256
176
     0
 40
1.0
176
     0
 90
        2
176
     1
  1
strokes_ogs.tif
176
     1
290
     0
176
     1
 40
1.0
176
     1
 40
1.0
176
     1
  0
VISUALSTYLE
  5
736D9
102
{ACAD_REACTORS
330
725DF
102
}
330
725DF
100
AcDbVisualStyle
  2
Brighten
 70
    12
177
     3
291
     1
 70
    58
 90
        2
176
     1
 90
        2
176
     1
 90
        0
176
     1
 90
        0
176
     1
 40
0.6
176
     1
 40
30.0
176
     1
 62
     7
420
 16777215
176
     1
 90
        1
176
     1
 90
        4
176
     1
 62
     7
176
     1
 62
   257
176
     1
 90
        1
176
     1
 90
        1
176
     1
 40
1.0
176
     1
 90
        8
176
     1
 62
     7
176
     1
 40
1.0
176
     1
 90
        1
176
     1
 90
        6
176
     1
 90
        2
176
     1
 62
     7
176
     1
 90
        5
176
     1
 90
        0
176
     1
 90
        0
176
     1
290
     0
176
     1
 90
        1
176
     1
 40
50.0
176
     1
 90
        0
176
     1
290
     0
176
     1
290
     1
176
     1
290
     1
176
     1
290
     0
176
     1
290
     0
176
     1
290
     0
176
     1
290
     0
176
     1
290
     0
176
     1
290
     0
176
     1
 90
       50
176
     1
 40
0.0
176
     1
 40
1.0
176
     1
 90
        0
176
     1
 62
    18
420
        0
176
     1
 90
       50
176
     1
 90
        3
176
     1
 62
     5
420
      255
176
     1
290
     0
176
     1
 90
       50
176
     1
 90
       50
176
     1
 90
       50
176
     1
290
     0
176
     1
 90
       50
176
     1
 62
   256
176
     0
 40
1.0
176
     0
 90
        2
176
     1
  1
strokes_ogs.tif
176
     1
290
     0
176
     1
 40
1.0
176
     1
 40
1.0
176
     1
  0
VISUALSTYLE
  5
736DD
102
{ACAD_REACTORS
330
725DF
102
}
330
725DF
100
AcDbVisualStyle
  2
ColorChange
 70
    16
177
     3
291
     1
 70
    58
 90
        2
176
     1
 90
        2
176
     1
 90
        3
176
     1
 90
        0
176
     1
 40
0.6
176
     1
 40
30.0
176
     1
 62
     8
420
  8421504
176
     1
 90
        1
176
     1
 90
        4
176
     1
 62
     7
176
     1
 62
   257
176
     1
 90
        1
176
     1
 90
        1
176
     1
 40
1.0
176
     1
 90
        8
176
     1
 62
     8
420
  8421504
176
     1
 40
1.0
176
     1
 90
        1
176
     1
 90
        6
176
     1
 90
        2
176
     1
 62
     7
176
     1
 90
        5
176
     1
 90
        0
176
     1
 90
        0
176
     1
290
     0
176
     1
 90
        1
176
     1
 40
0.0
176
     1
 90
        0
176
     1
290
     0
176
     1
290
     1
176
     1
290
     1
176
     1
290
     0
176
     1
290
     0
176
     1
290
     0
176
     1
290
     0
176
     1
290
     0
176
     1
290
     0
176
     1
 90
       50
176
     1
 40
0.0
176
     1
 40
1.0
176
     1
 90
        0
176
     1
 62
    18
420
        0
176
     1
 90
       50
176
     1
 90
        3
176
     1
 62
     5
420
      255
176
     1
290
     0
176
     1
 90
       50
176
     1
 90
       50
176
     1
 90
       50
176
     1
290
     0
176
     1
 90
       50
176
     1
 62
   256
176
     0
 40
1.0
176
     0
 90
        2
176
     1
  1
strokes_ogs.tif
176
     1
290
     0
176
     1
 40
1.0
176
     1
 40
1.0
176
     1
  0
VISUALSTYLE
  5
736D7
102
{ACAD_REACTORS
330
725DF
102
}
330
725DF
100
AcDbVisualStyle
  2
Conceptual
 70
     9
177
     3
291
     0
 70
    58
 90
        3
176
     1
 90
        2
176
     1
 90
        0
176
     1
 90
        0
176
     1
 40
0.6
176
     1
 40
30.0
176
     1
 62
     7
420
 16777215
176
     1
 90
        2
176
     1
 90
        2
176
     1
 62
     7
176
     1
 62
   257
176
     1
 90
        1
176
     1
 90
        1
176
     1
 40
179.0
176
     1
 90
        8
176
     1
 62
     7
176
     1
 40
1.0
176
     1
 90
        1
176
     1
 90
        6
176
     1
 90
        2
176
     1
 62
     7
176
     1
 90
        3
176
     1
 90
        0
176
     1
 90
        0
176
     1
290
     0
176
     1
 90
        1
176
     1
 40
0.0
176
     1
 90
        0
176
     1
290
     0
176
     1
290
     1
176
     1
290
     1
176
     1
290
     0
176
     1
290
     0
176
     1
290
     0
176
     1
290
     0
176
     1
290
     0
176
     1
290
     0
176
     1
 90
       50
176
     1
 40
0.0
176
     1
 40
1.0
176
     1
 90
        0
176
     1
 62
    18
420
        0
176
     1
 90
       50
176
     1
 90
        3
176
     1
 62
     5
420
      255
176
     1
290
     0
176
     1
 90
       50
176
     1
 90
       50
176
     1
 90
       50
176
     1
290
     0
176
     1
 90
       50
176
     1
 62
   256
176
     0
 40
1.0
176
     0
 90
        2
176
     1
  1
strokes_ogs.tif
176
     1
290
     0
176
     1
 40
1.0
176
     1
 40
1.0
176
     1
  0
VISUALSTYLE
  5
736D8
102
{ACAD_REACTORS
330
725DF
102
}
330
725DF
100
AcDbVisualStyle
  2
Dim
 70
    11
177
     3
291
     1
 70
    58
 90
        2
176
     1
 90
        2
176
     1
 90
        0
176
     1
 90
        0
176
     1
 40
0.6
176
     1
 40
30.0
176
     1
 62
     7
420
 16777215
176
     1
 90
        1
176
     1
 90
        4
176
     1
 62
     7
176
     1
 62
   257
176
     1
 90
        1
176
     1
 90
        1
176
     1
 40
1.0
176
     1
 90
        8
176
     1
 62
     7
176
     1
 40
1.0
176
     1
 90
        1
176
     1
 90
        6
176
     1
 90
        2
176
     1
 62
     7
176
     1
 90
        5
176
     1
 90
        0
176
     1
 90
        0
176
     1
290
     0
176
     1
 90
        1
176
     1
 40
-50.0
176
     1
 90
        0
176
     1
290
     0
176
     1
290
     1
176
     1
290
     1
176
     1
290
     0
176
     1
290
     0
176
     1
290
     0
176
     1
290
     0
176
     1
290
     0
176
     1
290
     0
176
     1
 90
       50
176
     1
 40
0.0
176
     1
 40
1.0
176
     1
 90
        0
176
     1
 62
    18
420
        0
176
     1
 90
       50
176
     1
 90
        3
176
     1
 62
     5
420
      255
176
     1
290
     0
176
     1
 90
       50
176
     1
 90
       50
176
     1
 90
       50
176
     1
290
     0
176
     1
 90
       50
176
     1
 62
   256
176
     0
 40
1.0
176
     0
 90
        2
176
     1
  1
strokes_ogs.tif
176
     1
290
     0
176
     1
 40
1.0
176
     1
 40
1.0
176
     1
  0
VISUALSTYLE
  5
736E0
102
{ACAD_REACTORS
330
725DF
102
}
330
725DF
100
AcDbVisualStyle
  2
EdgeColorOff
 70
    22
177
     3
291
     1
 70
    58
 90
        2
176
     0
 90
        2
176
     0
 90
        0
176
     0
 90
        0
176
     0
 40
0.6
176
     0
 40
30.0
176
     0
 62
     7
420
 16777215
176
     0
 90
        1
176
     0
 90
        4
176
     0
 62
     7
176
     0
 62
   257
176
     0
 90
        1
176
     0
 90
        1
176
     0
 40
1.0
176
     0
 90
        8
176
     2
 62
     7
176
     0
 40
1.0
176
     0
 90
        1
176
     0
 90
        6
176
     0
 90
        2
176
     0
 62
     7
176
     0
 90
        5
176
     0
 90
        0
176
     0
 90
        0
176
     0
290
     0
176
     0
 90
        1
176
     0
 40
0.0
176
     0
 90
        0
176
     0
290
     0
176
     1
290
     1
176
     1
290
     1
176
     1
290
     0
176
     1
290
     0
176
     1
290
     0
176
     1
290
     0
176
     1
290
     0
176
     1
290
     0
176
     1
 90
       50
176
     1
 40
0.0
176
     1
 40
1.0
176
     1
 90
        0
176
     1
 62
    18
420
        0
176
     1
 90
       50
176
     1
 90
        3
176
     1
 62
     5
420
      255
176
     1
290
     0
176
     1
 90
       50
176
     1
 90
       50
176
     1
 90
       50
176
     1
290
     0
176
     1
 90
       50
176
     1
 62
   256
176
     0
 40
1.0
176
     0
 90
        2
176
     1
  1
strokes_ogs.tif
176
     1
290
     0
176
     1
 40
1.0
176
     1
 40
1.0
176
     1
  0
VISUALSTYLE
  5
736DC
102
{ACAD_REACTORS
330
725DF
102
}
330
725DF
100
AcDbVisualStyle
  2
Facepattern
 70
    15
177
     3
291
     1
 70
    58
 90
        2
176
     1
 90
        2
176
     1
 90
        0
176
     1
 90
        0
176
     1
 40
0.6
176
     1
 40
30.0
176
     1
 62
     7
420
 16777215
176
     1
 90
        1
176
     1
 90
        4
176
     1
 62
     7
176
     1
 62
   257
176
     1
 90
        1
176
     1
 90
        1
176
     1
 40
1.0
176
     1
 90
        8
176
     1
 62
     7
176
     1
 40
1.0
176
     1
 90
        1
176
     1
 90
        6
176
     1
 90
        2
176
     1
 62
     7
176
     1
 90
        5
176
     1
 90
        0
176
     1
 90
        0
176
     1
290
     0
176
     1
 90
        1
176
     1
 40
0.0
176
     1
 90
        0
176
     1
290
     0
176
     1
290
     1
176
     1
290
     1
176
     1
290
     0
176
     1
290
     0
176
     1
290
     0
176
     1
290
     0
176
     1
290
     0
176
     1
290
     0
176
     1
 90
       50
176
     1
 40
0.0
176
     1
 40
1.0
176
     1
 90
        0
176
     1
 62
    18
420
        0
176
     1
 90
       50
176
     1
 90
        3
176
     1
 62
     5
420
      255
176
     1
290
     0
176
     1
 90
       50
176
     1
 90
       50
176
     1
 90
       50
176
     1
290
     0
176
     1
 90
       50
176
     1
 62
   256
176
     0
 40
1.0
176
     0
 90
        2
176
     1
  1
strokes_ogs.tif
176
     1
290
     0
176
     1
 40
1.0
176
     1
 40
1.0
176
     1
  0
VISUALSTYLE
  5
736D1
102
{ACAD_REACTORS
330
725DF
102
}
330
725DF
100
AcDbVisualStyle
  2
Flat
 70
     0
177
     3
291
     1
 70
    58
 90
        2
176
     1
 90
        1
176
     1
 90
        1
176
     1
 90
        2
176
     1
 40
0.6
176
     1
 40
30.0
176
     1
 62
     7
420
 16777215
176
     1
 90
        0
176
     1
 90
        4
176
     1
 62
     7
176
     1
 62
   257
176
     1
 90
        1
176
     1
 90
        1
176
     1
 40
1.0
176
     1
 90
        8
176
     1
 62
     7
176
     1
 40
1.0
176
     1
 90
        1
176
     1
 90
        6
176
     1
 90
        2
176
     1
 62
     7
176
     1
 90
        5
176
     1
 90
        0
176
     1
 90
        0
176
     1
290
     0
176
     1
 90
       13
176
     1
 40
0.0
176
     1
 90
        0
176
     1
290
     0
176
     1
290
     1
176
     1
290
     1
176
     1
290
     0
176
     1
290
     0
176
     1
290
     0
176
     1
290
     0
176
     1
290
     0
176
     1
290
     0
176
     1
 90
       50
176
     1
 40
0.0
176
     1
 40
1.0
176
     1
 90
        0
176
     1
 62
    18
420
        0
176
     1
 90
       50
176
     1
 90
        3
176
     1
 62
     5
420
      255
176
     1
290
     0
176
     1
 90
       50
176
     1
 90
       50
176
     1
 90
       50
176
     1
290
     0
176
     1
 90
       50
176
     1
 62
   256
176
     0
 40
1.0
176
     0
 90
        2
176
     1
  1
strokes_ogs.tif
176
     1
290
     0
176
     1
 40
1.0
176
     1
 40
1.0
176
     1
  0
VISUALSTYLE
  5
736D2
102
{ACAD_REACTORS
330
725DF
102
}
330
725DF
100
AcDbVisualStyle
  2
FlatWithEdges
 70
     1
177
     3
291
     1
 70
    58
 90
        2
176
     1
 90
        1
176
     1
 90
        1
176
     1
 90
        2
176
     1
 40
0.6
176
     1
 40
30.0
176
     1
 62
     7
420
 16777215
176
     1
 90
        1
176
     1
 90
        4
176
     1
 62
     7
176
     1
 62
   257
176
     1
 90
        1
176
     1
 90
        1
176
     1
 40
1.0
176
     1
 90
        0
176
     1
 62
   257
176
     1
 40
1.0
176
     1
 90
        1
176
     1
 90
        6
176
     1
 90
        2
176
     1
 62
     7
176
     1
 90
        5
176
     1
 90
        0
176
     1
 90
        0
176
     1
290
     0
176
     1
 90
       13
176
     1
 40
0.0
176
     1
 90
        0
176
     1
290
     0
176
     1
290
     1
176
     1
290
     1
176
     1
290
     0
176
     1
290
     0
176
     1
290
     0
176
     1
290
     0
176
     1
290
     0
176
     1
290
     0
176
     1
 90
       50
176
     1
 40
0.0
176
     1
 40
1.0
176
     1
 90
        0
176
     1
 62
    18
420
        0
176
     1
 90
       50
176
     1
 90
        3
176
     1
 62
     5
420
      255
176
     1
290
     0
176
     1
 90
       50
176
     1
 90
       50
176
     1
 90
       50
176
     1
290
     0
176
     1
 90
       50
176
     1
 62
   256
176
     0
 40
1.0
176
     0
 90
        2
176
     1
  1
strokes_ogs.tif
176
     1
290
     0
176
     1
 40
1.0
176
     1
 40
1.0
176
     1
  0
VISUALSTYLE
  5
736D3
102
{ACAD_REACTORS
330
725DF
102
}
330
725DF
100
AcDbVisualStyle
  2
Gouraud
 70
     2
177
     3
291
     1
 70
    58
 90
        2
176
     1
 90
        2
176
     1
 90
        1
176
     1
 90
        2
176
     1
 40
0.6
176
     1
 40
30.0
176
     1
 62
     7
420
 16777215
176
     1
 90
        0
176
     1
 90
        4
176
     1
 62
     7
176
     1
 62
   257
176
     1
 90
        1
176
     1
 90
        1
176
     1
 40
1.0
176
     1
 90
        0
176
     1
 62
     7
176
     1
 40
1.0
176
     1
 90
        1
176
     1
 90
        6
176
     1
 90
        2
176
     1
 62
     7
176
     1
 90
        5
176
     1
 90
        0
176
     1
 90
        0
176
     1
290
     0
176
     1
 90
       13
176
     1
 40
0.0
176
     1
 90
        0
176
     1
290
     0
176
     1
290
     1
176
     1
290
     1
176
     1
290
     0
176
     1
290
     0
176
     1
290
     0
176
     1
290
     0
176
     1
290
     0
176
     1
290
     0
176
     1
 90
       50
176
     1
 40
0.0
176
     1
 40
1.0
176
     1
 90
        0
176
     1
 62
    18
420
        0
176
     1
 90
       50
176
     1
 90
        3
176
     1
 62
     5
420
      255
176
     1
290
     0
176
     1
 90
       50
176
     1
 90
       50
176
     1
 90
       50
176
     1
290
     0
176
     1
 90
       50
176
     1
 62
   256
176
     0
 40
1.0
176
     0
 90
        2
176
     1
  1
strokes_ogs.tif
176
     1
290
     0
176
     1
 40
1.0
176
     1
 40
1.0
176
     1
  0
VISUALSTYLE
  5
736D4
102
{ACAD_REACTORS
330
725DF
102
}
330
725DF
100
AcDbVisualStyle
  2
GouraudWithEdges
 70
     3
177
     3
291
     1
 70
    58
 90
        2
176
     1
 90
        2
176
     1
 90
        1
176
     1
 90
        2
176
     1
 40
0.6
176
     1
 40
30.0
176
     1
 62
     7
420
 16777215
176
     1
 90
        1
176
     1
 90
        4
176
     1
 62
     7
176
     1
 62
   257
176
     1
 90
        1
176
     1
 90
        1
176
     1
 40
1.0
176
     1
 90
        0
176
     1
 62
   257
176
     1
 40
1.0
176
     1
 90
        1
176
     1
 90
        6
176
     1
 90
        2
176
     1
 62
     7
176
     1
 90
        5
176
     1
 90
        0
176
     1
 90
        0
176
     1
290
     0
176
     1
 90
       13
176
     1
 40
0.0
176
     1
 90
        0
176
     1
290
     0
176
     1
290
     1
176
     1
290
     1
176
     1
290
     0
176
     1
290
     0
176
     1
290
     0
176
     1
290
     0
176
     1
290
     0
176
     1
290
     0
176
     1
 90
       50
176
     1
 40
0.0
176
     1
 40
1.0
176
     1
 90
        0
176
     1
 62
    18
420
        0
176
     1
 90
       50
176
     1
 90
        3
176
     1
 62
     5
420
      255
176
     1
290
     0
176
     1
 90
       50
176
     1
 90
       50
176
     1
 90
       50
176
     1
290
     0
176
     1
 90
       50
176
     1
 62
   256
176
     0
 40
1.0
176
     0
 90
        2
176
     1
  1
strokes_ogs.tif
176
     1
290
     0
176
     1
 40
1.0
176
     1
 40
1.0
176
     1
  0
VISUALSTYLE
  5
75F60
102
{ACAD_REACTORS
330
725DF
102
}
330
725DF
100
AcDbVisualStyle
  2
Hidden
 70
     6
177
     3
291
     0
 70
    58
 90
        1
176
     1
 90
        2
176
     1
 90
        2
176
     1
 90
        0
176
     1
 40
0.6
176
     1
 40
30.0
176
     1
 62
     7
420
 16777215
176
     1
 90
        2
176
     1
 90
        2
176
     1
 62
     7
176
     1
 62
   257
176
     1
 90
        2
176
     1
 90
        1
176
     1
 40
40.0
176
     1
 90
        0
176
     1
 62
   257
176
     1
 40
1.0
176
     1
 90
        1
176
     1
 90
        6
176
     1
 90
        2
176
     1
 62
     7
176
     1
 90
        3
176
     1
 90
        0
176
     1
 90
        0
176
     1
290
     0
176
     1
 90
        1
176
     1
 40
0.0
176
     1
 90
        0
176
     1
290
     0
176
     1
290
     1
176
     1
290
     1
176
     1
290
     0
176
     1
290
     0
176
     1
290
     0
176
     1
290
     0
176
     1
290
     0
176
     1
290
     0
176
     1
 90
       50
176
     1
 40
0.0
176
     1
 40
1.0
176
     1
 90
        0
176
     1
 62
    18
420
        0
176
     1
 90
       50
176
     1
 90
        3
176
     1
 62
     5
420
      255
176
     1
290
     0
176
     1
 90
       50
176
     1
 90
       50
176
     1
 90
       50
176
     1
290
     0
176
     1
 90
       50
176
     1
 62
   256
176
     0
 40
1.0
176
     0
 90
        2
176
     1
  1
strokes_ogs.tif
176
     1
290
     0
176
     1
 40
1.0
176
     1
 40
1.0
176
     1
  0
VISUALSTYLE
  5
736DE
102
{ACAD_REACTORS
330
725DF
102
}
330
725DF
100
AcDbVisualStyle
  2
JitterOff
 70
    20
177
     3
291
     1
 70
    58
 90
        2
176
     0
 90
        2
176
     0
 90
        0
176
     0
 90
        0
176
     0
 40
0.6
176
     0
 40
30.0
176
     0
 62
     7
420
 16777215
176
     0
 90
        1
176
     0
 90
        4
176
     0
 62
     7
176
     0
 62
   257
176
     0
 90
        1
176
     0
 90
        1
176
     0
 40
1.0
176
     0
 90
       10
176
     2
 62
     7
176
     0
 40
1.0
176
     0
 90
        1
176
     0
 90
        6
176
     0
 90
        2
176
     0
 62
     7
176
     0
 90
        5
176
     0
 90
        0
176
     0
 90
        0
176
     0
290
     0
176
     0
 90
        1
176
     0
 40
0.0
176
     0
 90
        0
176
     0
290
     0
176
     1
290
     1
176
     1
290
     1
176
     1
290
     0
176
     1
290
     0
176
     1
290
     0
176
     1
290
     0
176
     1
290
     0
176
     1
290
     0
176
     1
 90
       50
176
     1
 40
0.0
176
     1
 40
1.0
176
     1
 90
        0
176
     1
 62
    18
420
        0
176
     1
 90
       50
176
     1
 90
        3
176
     1
 62
     5
420
      255
176
     1
290
     0
176
     1
 90
       50
176
     1
 90
       50
176
     1
 90
       50
176
     1
290
     0
176
     1
 90
       50
176
     1
 62
   256
176
     0
 40
1.0
176
     0
 90
        2
176
     1
  1
strokes_ogs.tif
176
     1
290
     0
176
     1
 40
1.0
176
     1
 40
1.0
176
     1
  0
VISUALSTYLE
  5
736DB
102
{ACAD_REACTORS
330
725DF
102
}
330
725DF
100
AcDbVisualStyle
  2
Linepattern
 70
    14
177
     3
291
     1
 70
    58
 90
        2
176
     1
 90
        2
176
     1
 90
        0
176
     1
 90
        0
176
     1
 40
0.6
176
     1
 40
30.0
176
     1
 62
     7
420
 16777215
176
     1
 90
        1
176
     1
 90
        4
176
     1
 62
     7
176
     1
 62
   257
176
     1
 90
        7
176
     1
 90
        7
176
     1
 40
1.0
176
     1
 90
        8
176
     1
 62
     7
176
     1
 40
1.0
176
     1
 90
        1
176
     1
 90
        6
176
     1
 90
        2
176
     1
 62
     7
176
     1
 90
        5
176
     1
 90
        0
176
     1
 90
        0
176
     1
290
     0
176
     1
 90
        1
176
     1
 40
0.0
176
     1
 90
        0
176
     1
290
     0
176
     1
290
     1
176
     1
290
     1
176
     1
290
     0
176
     1
290
     0
176
     1
290
     0
176
     1
290
     0
176
     1
290
     0
176
     1
290
     0
176
     1
 90
       50
176
     1
 40
0.0
176
     1
 40
1.0
176
     1
 90
        0
176
     1
 62
    18
420
        0
176
     1
 90
       50
176
     1
 90
        3
176
     1
 62
     5
420
      255
176
     1
290
     0
176
     1
 90
       50
176
     1
 90
       50
176
     1
 90
       50
176
     1
290
     0
176
     1
 90
       50
176
     1
 62
   256
176
     0
 40
1.0
176
     0
 90
        2
176
     1
  1
strokes_ogs.tif
176
     1
290
     0
176
     1
 40
1.0
176
     1
 40
1.0
176
     1
  0
VISUALSTYLE
  5
736DF
102
{ACAD_REACTORS
330
725DF
102
}
330
725DF
100
AcDbVisualStyle
  2
OverhangOff
 70
    21
177
     3
291
     1
 70
    58
 90
        2
176
     0
 90
        2
176
     0
 90
        0
176
     0
 90
        0
176
     0
 40
0.6
176
     0
 40
30.0
176
     0
 62
     7
420
 16777215
176
     0
 90
        1
176
     0
 90
        4
176
     0
 62
     7
176
     0
 62
   257
176
     0
 90
        1
176
     0
 90
        1
176
     0
 40
1.0
176
     0
 90
        9
176
     2
 62
     7
176
     0
 40
1.0
176
     0
 90
        1
176
     0
 90
        6
176
     0
 90
        2
176
     0
 62
     7
176
     0
 90
        5
176
     0
 90
        0
176
     0
 90
        0
176
     0
290
     0
176
     0
 90
        1
176
     0
 40
0.0
176
     0
 90
        0
176
     0
290
     0
176
     1
290
     1
176
     1
290
     1
176
     1
290
     0
176
     1
290
     0
176
     1
290
     0
176
     1
290
     0
176
     1
290
     0
176
     1
290
     0
176
     1
 90
       50
176
     1
 40
0.0
176
     1
 40
1.0
176
     1
 90
        0
176
     1
 62
    18
420
        0
176
     1
 90
       50
176
     1
 90
        3
176
     1
 62
     5
420
      255
176
     1
290
     0
176
     1
 90
       50
176
     1
 90
       50
176
     1
 90
       50
176
     1
290
     0
176
     1
 90
       50
176
     1
 62
   256
176
     0
 40
1.0
176
     0
 90
        2
176
     1
  1
strokes_ogs.tif
176
     1
290
     0
176
     1
 40
1.0
176
     1
 40
1.0
176
     1
  0
VISUALSTYLE
  5
725FE
102
{ACAD_REACTORS
330
725DF
102
}
330
725DF
100
AcDbVisualStyle
  2
Realistic
 70
     8
177
     3
291
     0
 70
    58
 90
        2
176
     1
 90
        2
176
     1
 90
        0
176
     1
 90
        0
176
     1
 40
0.6
176
     1
 40
30.0
176
     1
 62
     7
420
 16777215
176
     1
 90
        1
176
     1
 90
        0
176
     1
 62
     7
176
     1
 62
   257
176
     1
 90
        1
176
     1
 90
        1
176
     1
 40
1.0
176
     1
 90
        8
176
     1
 62
     8
420
  7895160
176
     1
 40
1.0
176
     1
 90
        1
176
     1
 90
        6
176
     1
 90
        2
176
     1
 62
     7
176
     1
 90
        5
176
     1
 90
        0
176
     1
 90
        0
176
     1
290
     0
176
     1
 90
       13
176
     1
 40
0.0
176
     1
 90
        0
176
     1
290
     0
176
     1
290
     1
176
     1
290
     1
176
     1
290
     0
176
     1
290
     0
176
     1
290
     0
176
     1
290
     0
176
     1
290
     0
176
     1
290
     0
176
     1
 90
       50
176
     1
 40
0.0
176
     1
 40
1.0
176
     1
 90
        0
176
     1
 62
    18
420
        0
176
     1
 90
       50
176
     1
 90
        3
176
     1
 62
     5
420
      255
176
     1
290
     0
176
     1
 90
       50
176
     1
 90
       50
176
     1
 90
       50
176
     1
290
     0
176
     1
 90
       50
176
     1
 62
   256
176
     0
 40
1.0
176
     0
 90
        2
176
     1
  1
strokes_ogs.tif
176
     1
290
     0
176
     1
 40
1.0
176
     1
 40
1.0
176
     1
  0
VISUALSTYLE
  5
75F65
102
{ACAD_REACTORS
330
725DF
102
}
330
725DF
100
AcDbVisualStyle
  2
Shaded
 70
    27
177
     3
291
     0
 70
    58
 90
        2
176
     1
 90
        2
176
     1
 90
        1
176
     1
 90
        2
176
     1
 40
0.6
176
     1
 40
30.0
176
     1
 62
     7
420
 16777215
176
     1
 90
        0
176
     1
 90
        4
176
     1
 62
     7
176
     1
 62
   257
176
     1
 90
        1
176
     1
 90
        1
176
     1
 40
1.0
176
     1
 90
        8
176
     1
 62
   257
176
     1
 40
1.0
176
     1
 90
        1
176
     1
 90
        6
176
     1
 90
        2
176
     1
 62
     8
420
  7895160
176
     1
 90
        3
176
     1
 90
        0
176
     1
 90
        0
176
     1
290
     0
176
     1
 90
        5
176
     1
 40
0.0
176
     1
 90
        0
176
     1
290
     0
176
     1
290
     1
176
     1
290
     1
176
     1
290
     0
176
     1
290
     0
176
     1
290
     0
176
     1
290
     0
176
     1
290
     0
176
     1
290
     0
176
     1
 90
       50
176
     1
 40
0.0
176
     1
 40
1.0
176
     1
 90
        0
176
     1
 62
    18
420
        0
176
     1
 90
       50
176
     1
 90
        3
176
     1
 62
     5
420
      255
176
     1
290
     0
176
     1
 90
       50
176
     1
 90
       50
176
     1
 90
       50
176
     1
290
     0
176
     1
 90
       50
176
     1
 62
   256
176
     0
 40
1.0
176
     0
 90
        2
176
     1
  1
strokes_ogs.tif
176
     1
290
     0
176
     1
 40
1.0
176
     1
 40
1.0
176
     1
  0
VISUALSTYLE
  5
75F64
102
{ACAD_REACTORS
330
725DF
102
}
330
725DF
100
AcDbVisualStyle
  2
Shaded with edges
 70
    26
177
     3
291
     0
 70
    58
 90
        2
176
     1
 90
        2
176
     1
 90
        1
176
     1
 90
        2
176
     1
 40
0.6
176
     1
 40
30.0
176
     1
 62
     7
420
 16777215
176
     1
 90
        1
176
     1
 90
        2
176
     1
 62
     7
176
     1
 62
   257
176
     1
 90
        2
176
     1
 90
        1
176
     1
 40
1.0
176
     1
 90
        8
176
     1
 62
   257
176
     1
 40
1.0
176
     1
 90
        1
176
     1
 90
        6
176
     1
 90
        2
176
     1
 62
     7
176
     1
 90
        3
176
     1
 90
        0
176
     1
 90
        0
176
     1
290
     0
176
     1
 90
        5
176
     1
 40
0.0
176
     1
 90
        0
176
     1
290
     0
176
     1
290
     1
176
     1
290
     1
176
     1
290
     0
176
     1
290
     0
176
     1
290
     0
176
     1
290
     0
176
     1
290
     0
176
     1
290
     0
176
     1
 90
       50
176
     1
 40
0.0
176
     1
 40
1.0
176
     1
 90
        0
176
     1
 62
    18
420
        0
176
     1
 90
       50
176
     1
 90
        3
176
     1
 62
     5
420
      255
176
     1
290
     0
176
     1
 90
       50
176
     1
 90
       50
176
     1
 90
       50
176
     1
290
     0
176
     1
 90
       50
176
     1
 62
   256
176
     0
 40
1.0
176
     0
 90
        2
176
     1
  1
strokes_ogs.tif
176
     1
290
     0
176
     1
 40
1.0
176
     1
 40
1.0
176
     1
  0
VISUALSTYLE
  5
75F61
102
{ACAD_REACTORS
330
725DF
102
}
330
725DF
100
AcDbVisualStyle
  2
Shades of Gray
 70
    23
177
     3
291
     0
 70
    58
 90
        2
176
     1
 90
        2
176
     1
 90
        3
176
     1
 90
        0
176
     1
 40
0.6
176
     1
 40
30.0
176
     1
 62
     7
420
 16777215
176
     1
 90
        2
176
     1
 90
        2
176
     1
 62
     7
176
     1
 62
     7
176
     1
 90
        1
176
     1
 90
        1
176
     1
 40
40.0
176
     1
 90
        8
176
     1
 62
     7
176
     1
 40
1.0
176
     1
 90
        1
176
     1
 90
        6
176
     1
 90
        2
176
     1
 62
     7
176
     1
 90
        3
176
     1
 90
        0
176
     1
 90
        0
176
     1
290
     0
176
     1
 90
        1
176
     1
 40
0.0
176
     1
 90
        0
176
     1
290
     0
176
     1
290
     1
176
     1
290
     1
176
     1
290
     0
176
     1
290
     0
176
     1
290
     0
176
     1
290
     0
176
     1
290
     0
176
     1
290
     0
176
     1
 90
       50
176
     1
 40
0.0
176
     1
 40
1.0
176
     1
 90
        0
176
     1
 62
    18
420
        0
176
     1
 90
       50
176
     1
 90
        3
176
     1
 62
     5
420
      255
176
     1
290
     0
176
     1
 90
       50
176
     1
 90
       50
176
     1
 90
       50
176
     1
290
     0
176
     1
 90
       50
176
     1
 62
   256
176
     0
 40
1.0
176
     0
 90
        2
176
     1
  1
strokes_ogs.tif
176
     1
290
     0
176
     1
 40
1.0
176
     1
 40
1.0
176
     1
  0
VISUALSTYLE
  5
75F62
102
{ACAD_REACTORS
330
725DF
102
}
330
725DF
100
AcDbVisualStyle
  2
Sketchy
 70
    24
177
     3
291
     0
 70
    58
 90
        1
176
     1
 90
        2
176
     1
 90
        2
176
     1
 90
        0
176
     1
 40
0.6
176
     1
 40
30.0
176
     1
 62
     7
420
 16777215
176
     1
 90
        2
176
     1
 90
        2
176
     1
 62
     7
176
     1
 62
     7
176
     1
 90
        1
176
     1
 90
        1
176
     1
 40
40.0
176
     1
 90
       11
176
     1
 62
     7
176
     1
 40
1.0
176
     1
 90
        1
176
     1
 90
        6
176
     1
 90
        2
176
     1
 62
     7
176
     1
 90
        6
176
     1
 90
        0
176
     1
 90
        0
176
     1
290
     0
176
     1
 90
        1
176
     1
 40
0.0
176
     1
 90
        0
176
     1
290
     0
176
     1
290
     1
176
     1
290
     1
176
     1
290
     0
176
     1
290
     0
176
     1
290
     0
176
     1
290
     0
176
     1
290
     0
176
     1
290
     0
176
     1
 90
       50
176
     1
 40
0.0
176
     1
 40
1.0
176
     1
 90
        0
176
     1
 62
    18
420
        0
176
     1
 90
       50
176
     1
 90
        3
176
     1
 62
     5
420
      255
176
     1
290
     0
176
     1
 90
       50
176
     1
 90
       50
176
     1
 90
       50
176
     1
290
     0
176
     1
 90
       50
176
     1
 62
   256
176
     0
 40
1.0
176
     0
 90
        2
176
     1
  1
strokes_ogs.tif
176
     1
290
     0
176
     1
 40
1.0
176
     1
 40
1.0
176
     1
  0
VISUALSTYLE
  5
736DA
102
{ACAD_REACTORS
330
725DF
102
}
330
725DF
100
AcDbVisualStyle
  2
Thicken
 70
    13
177
     3
291
     1
 70
    58
 90
        2
176
     1
 90
        2
176
     1
 90
        0
176
     1
 90
        0
176
     1
 40
0.6
176
     1
 40
30.0
176
     1
 62
     7
420
 16777215
176
     1
 90
        1
176
     1
 90
        4
176
     1
 62
     7
176
     1
 62
   257
176
     1
 90
        1
176
     1
 90
        1
176
     1
 40
1.0
176
     1
 90
       12
176
     1
 62
     7
176
     1
 40
1.0
176
     1
 90
        1
176
     1
 90
        6
176
     1
 90
        2
176
     1
 62
     7
176
     1
 90
        5
176
     1
 90
        0
176
     1
 90
        0
176
     1
290
     0
176
     1
 90
        1
176
     1
 40
0.0
176
     1
 90
        0
176
     1
290
     0
176
     1
290
     1
176
     1
290
     1
176
     1
290
     0
176
     1
290
     0
176
     1
290
     0
176
     1
290
     0
176
     1
290
     0
176
     1
290
     0
176
     1
 90
       50
176
     1
 40
0.0
176
     1
 40
1.0
176
     1
 90
        0
176
     1
 62
    18
420
        0
176
     1
 90
       50
176
     1
 90
        3
176
     1
 62
     5
420
      255
176
     1
290
     0
176
     1
 90
       50
176
     1
 90
       50
176
     1
 90
       50
176
     1
290
     0
176
     1
 90
       50
176
     1
 62
   256
176
     0
 40
1.0
176
     0
 90
        2
176
     1
  1
strokes_ogs.tif
176
     1
290
     0
176
     1
 40
1.0
176
     1
 40
1.0
176
     1
  0
VISUALSTYLE
  5
75F5F
102
{ACAD_REACTORS
330
725DF
102
}
330
725DF
100
AcDbVisualStyle
  2
Wireframe
 70
     5
177
     3
291
     0
 70
    58
 90
        0
176
     1
 90
        2
176
     1
 90
        0
176
     1
 90
        0
176
     1
 40
0.6
176
     1
 40
30.0
176
     1
 62
     7
420
 16777215
176
     1
 90
        1
176
     1
 90
        4
176
     1
 62
     7
176
     1
 62
   257
176
     1
 90
        1
176
     1
 90
        1
176
     1
 40
1.0
176
     1
 90
        0
176
     1
 62
   257
176
     1
 40
1.0
176
     1
 90
        1
176
     1
 90
        6
176
     1
 90
        2
176
     1
 62
     7
176
     1
 90
        3
176
     1
 90
        0
176
     1
 90
        0
176
     1
290
     0
176
     1
 90
        1
176
     1
 40
0.0
176
     1
 90
        0
176
     1
290
     0
176
     1
290
     1
176
     1
290
     1
176
     1
290
     0
176
     1
290
     0
176
     1
290
     0
176
     1
290
     0
176
     1
290
     0
176
     1
290
     0
176
     1
 90
       50
176
     1
 40
0.0
176
     1
 40
1.0
176
     1
 90
        0
176
     1
 62
    18
420
        0
176
     1
 90
       50
176
     1
 90
        3
176
     1
 62
     5
420
      255
176
     1
290
     0
176
     1
 90
       50
176
     1
 90
       50
176
     1
 90
       50
176
     1
290
     0
176
     1
 90
       50
176
     1
 62
   256
176
     0
 40
1.0
176
     0
 90
        2
176
     1
  1
strokes_ogs.tif
176
     1
290
     0
176
     1
 40
1.0
176
     1
 40
1.0
176
     1
  0
VISUALSTYLE
  5
75F63
102
{ACAD_REACTORS
330
725DF
102
}
330
725DF
100
AcDbVisualStyle
  2
X-Ray
 70
    25
177
     3
291
     0
 70
    58
 90
        2
176
     1
 90
        2
176
     1
 90
        1
176
     1
 90
        1
176
     1
 40
0.5
176
     1
 40
30.0
176
     1
 62
     7
420
 16777215
176
     1
 90
        1
176
     1
 90
        0
176
     1
 62
     7
176
     1
 62
   257
176
     1
 90
        1
176
     1
 90
        1
176
     1
 40
1.0
176
     1
 90
        8
176
     1
 62
     7
176
     1
 40
1.0
176
     1
 90
        1
176
     1
 90
        6
176
     1
 90
        2
176
     1
 62
     7
176
     1
 90
        3
176
     1
 90
        0
176
     1
 90
        0
176
     1
290
     0
176
     1
 90
       13
176
     1
 40
0.0
176
     1
 90
        0
176
     1
290
     0
176
     1
290
     1
176
     1
290
     1
176
     1
290
     0
176
     1
290
     0
176
     1
290
     0
176
     1
290
     0
176
     1
290
     0
176
     1
290
     0
176
     1
 90
       50
176
     1
 40
0.0
176
     1
 40
1.0
176
     1
 90
        0
176
     1
 62
    18
420
        0
176
     1
 90
       50
176
     1
 90
        3
176
     1
 62
     5
420
      255
176
     1
290
     0
176
     1
 90
       50
176
     1
 90
       50
176
     1
 90
       50
176
     1
290
     0
176
     1
 90
       50
176
     1
 62
   256
176
     0
 40
1.0
176
     0
 90
        2
176
     1
  1
strokes_ogs.tif
176
     1
290
     0
176
     1
 40
1.0
176
     1
 40
1.0
176
     1
  0
DICTIONARYVAR
  5
736CC
102
{ACAD_REACTORS
330
736C8
102
}
330
736C8
100
DictionaryVariables
280
     0
  1
1:1
  0
DICTIONARYVAR
  5
736CA
102
{ACAD_REACTORS
330
736C8
102
}
330
736C8
100
DictionaryVariables
280
     0
  1
STANDARD
  0
DICTIONARYVAR
  5
736C9
102
{ACAD_REACTORS
330
736C8
102
}
330
736C8
100
DictionaryVariables
280
     0
  1
STANDARD
  0
DICTIONARYVAR
  5
760C3
102
{ACAD_REACTORS
330
736C8
102
}
330
736C8
100
DictionaryVariables
280
     0
  1
Imperial24
  0
DICTIONARYVAR
  5
760C4
102
{ACAD_REACTORS
330
736C8
102
}
330
736C8
100
DictionaryVariables
280
     0
  1
Imperial24
  0
DICTIONARYVAR
  5
736CE
102
{ACAD_REACTORS
330
736C8
102
}
330
736C8
100
DictionaryVariables
280
     0
  1
1
  0
DICTIONARYVAR
  5
736CF
102
{ACAD_REACTORS
330
736C8
102
}
330
736C8
100
DictionaryVariables
280
     0
  1
15
  0
DICTIONARYVAR
  5
736CD
102
{ACAD_REACTORS
330
736C8
102
}
330
736C8
100
DictionaryVariables
280
     0
  1
0
  0
DICTIONARYVAR
  5
736CB
102
{ACAD_REACTORS
330
736C8
102
}
330
736C8
100
DictionaryVariables
280
     0
  1
0
  0
DICTIONARY
  5
725CE
330
725CD
100
AcDbDictionary
280
     1
281
     1
  0
DICTIONARY
  5
725F1
330
725F0
100
AcDbDictionary
280
     1
281
     1
  3
BUMPTILE
360
725F2
  3
DIFFUSETILE
360
725F3
  3
OPACITYTILE
360
725F4
  3
REFLECTIONTILE
360
725F5
  3
REFRACTIONTILE
360
725F6
  3
SPECULARTILE
360
725F7
  0
DICTIONARY
  5
725E9
330
725E8
100
AcDbDictionary
280
     1
281
     1
  3
BUMPTILE
360
725EA
  3
DIFFUSETILE
360
725EB
  3
OPACITYTILE
360
725EC
  3
REFLECTIONTILE
360
725ED
  3
REFRACTIONTILE
360
725EE
  3
SPECULARTILE
360
725EF
  0
DICTIONARY
  5
725BF
330
725BD
100
AcDbDictionary
280
     1
281
     1
  3
BUMPTILE
360
725C0
  3
DIFFUSETILE
360
725C1
  3
OPACITYTILE
360
725C2
  3
REFLECTIONTILE
360
725C3
  3
REFRACTIONTILE
360
725C4
  3
SPECULARTILE
360
725C5
  0
DICTIONARY
  5
736BF
330
725FD
100
AcDbDictionary
280
     1
281
     1
  3
ACAD_ROUNDTRIP_2008_TABLESTYLE_CELLSTYLEMAP
360
760F2
  0
XRECORD
  5
725F2
102
{ACAD_REACTORS
330
725F1
102
}
330
725F1
100
AcDbXrecord
280
     1
270
     1
271
     1
  0
XRECORD
  5
725F3
102
{ACAD_REACTORS
330
725F1
102
}
330
725F1
100
AcDbXrecord
280
     1
270
     1
271
     1
  0
XRECORD
  5
725F4
102
{ACAD_REACTORS
330
725F1
102
}
330
725F1
100
AcDbXrecord
280
     1
270
     1
271
     1
  0
XRECORD
  5
725F5
102
{ACAD_REACTORS
330
725F1
102
}
330
725F1
100
AcDbXrecord
280
     1
270
     1
271
     1
  0
XRECORD
  5
725F6
102
{ACAD_REACTORS
330
725F1
102
}
330
725F1
100
AcDbXrecord
280
     1
270
     1
271
     1
  0
XRECORD
  5
725F7
102
{ACAD_REACTORS
330
725F1
102
}
330
725F1
100
AcDbXrecord
280
     1
270
     1
271
     1
  0
XRECORD
  5
725EA
102
{ACAD_REACTORS
330
725E9
102
}
330
725E9
100
AcDbXrecord
280
     1
270
     1
271
     1
  0
XRECORD
  5
725EB
102
{ACAD_REACTORS
330
725E9
102
}
330
725E9
100
AcDbXrecord
280
     1
270
     1
271
     1
  0
XRECORD
  5
725EC
102
{ACAD_REACTORS
330
725E9
102
}
330
725E9
100
AcDbXrecord
280
     1
270
     1
271
     1
  0
XRECORD
  5
725ED
102
{ACAD_REACTORS
330
725E9
102
}
330
725E9
100
AcDbXrecord
280
     1
270
     1
271
     1
  0
XRECORD
  5
725EE
102
{ACAD_REACTORS
330
725E9
102
}
330
725E9
100
AcDbXrecord
280
     1
270
     1
271
     1
  0
XRECORD
  5
725EF
102
{ACAD_REACTORS
330
725E9
102
}
330
725E9
100
AcDbXrecord
280
     1
270
     1
271
     1
  0
XRECORD
  5
725C0
102
{ACAD_REACTORS
330
725BF
102
}
330
725BF
100
AcDbXrecord
280
     1
270
     1
271
     1
  0
XRECORD
  5
725C1
102
{ACAD_REACTORS
330
725BF
102
}
330
725BF
100
AcDbXrecord
280
     1
270
     1
271
     1
  0
XRECORD
  5
725C2
102
{ACAD_REACTORS
330
725BF
102
}
330
725BF
100
AcDbXrecord
280
     1
270
     1
271
     1
  0
XRECORD
  5
725C3
102
{ACAD_REACTORS
330
725BF
102
}
330
725BF
100
AcDbXrecord
280
     1
270
     1
271
     1
  0
XRECORD
  5
725C4
102
{ACAD_REACTORS
330
725BF
102
}
330
725BF
100
AcDbXrecord
280
     1
270
     1
271
     1
  0
XRECORD
  5
725C5
102
{ACAD_REACTORS
330
725BF
102
}
330
725BF
100
AcDbXrecord
280
     1
270
     1
271
     1
  0
CELLSTYLEMAP
  5
760F2
102
{ACAD_REACTORS
330
736BF
102
}
330
736BF
100
AcDbCellStyleMap
 90
        3
300
CELLSTYLE
  1
TABLEFORMAT_BEGIN
 90
        5
170
     1
 91
        0
 92
    32768
 62
   257
 93
        1
300
CONTENTFORMAT
  1
CONTENTFORMAT_BEGIN
 90
        0
 91
        0
 92
        4
 93
        0
300

 40
0.0
140
1.0
 94
        5
 62
     0
340
725D5
144
0.25
309
CONTENTFORMAT_END
171
     0
 94
        6
 95
        1
302
GRIDFORMAT
  1
GRIDFORMAT_BEGIN
 90
        0
 91
        1
 62
     0
 92
       -2
340
0
 93
        0
 40
0.045
309
GRIDFORMAT_END
 95
        2
302
GRIDFORMAT
  1
GRIDFORMAT_BEGIN
 90
        0
 91
        1
 62
     0
 92
       -2
340
0
 93
        0
 40
0.045
309
GRIDFORMAT_END
 95
        4
302
GRIDFORMAT
  1
GRIDFORMAT_BEGIN
 90
        0
 91
        1
 62
     0
 92
       -2
340
0
 93
        0
 40
0.045
309
GRIDFORMAT_END
 95
        8
302
GRIDFORMAT
  1
GRIDFORMAT_BEGIN
 90
        0
 91
        1
 62
     0
 92
       -2
340
0
 93
        0
 40
0.045
309
GRIDFORMAT_END
 95
       16
302
GRIDFORMAT
  1
GRIDFORMAT_BEGIN
 90
        0
 91
        1
 62
     0
 92
       -2
340
0
 93
        0
 40
0.045
309
GRIDFORMAT_END
 95
       32
302
GRIDFORMAT
  1
GRIDFORMAT_BEGIN
 90
        0
 91
        1
 62
     0
 92
       -2
340
0
 93
        0
 40
0.045
309
GRIDFORMAT_END
309
TABLEFORMAT_END
  1
CELLSTYLE_BEGIN
 90
        1
 91
        1
300
_TITLE
309
CELLSTYLE_END
300
CELLSTYLE
  1
TABLEFORMAT_BEGIN
 90
        5
170
     1
 91
        0
 92
        0
 62
   257
 93
        1
300
CONTENTFORMAT
  1
CONTENTFORMAT_BEGIN
 90
        0
 91
        0
 92
        4
 93
        0
300

 40
0.0
140
1.0
 94
        5
 62
     0
340
725D5
144
0.18
309
CONTENTFORMAT_END
171
     0
 94
        6
 95
        1
302
GRIDFORMAT
  1
GRIDFORMAT_BEGIN
 90
        0
 91
        1
 62
     0
 92
       -2
340
0
 93
        0
 40
0.045
309
GRIDFORMAT_END
 95
        2
302
GRIDFORMAT
  1
GRIDFORMAT_BEGIN
 90
        0
 91
        1
 62
     0
 92
       -2
340
0
 93
        0
 40
0.045
309
GRIDFORMAT_END
 95
        4
302
GRIDFORMAT
  1
GRIDFORMAT_BEGIN
 90
        0
 91
        1
 62
     0
 92
       -2
340
0
 93
        0
 40
0.045
309
GRIDFORMAT_END
 95
        8
302
GRIDFORMAT
  1
GRIDFORMAT_BEGIN
 90
        0
 91
        1
 62
     0
 92
       -2
340
0
 93
        0
 40
0.045
309
GRIDFORMAT_END
 95
       16
302
GRIDFORMAT
  1
GRIDFORMAT_BEGIN
 90
        0
 91
        1
 62
     0
 92
       -2
340
0
 93
        0
 40
0.045
309
GRIDFORMAT_END
 95
       32
302
GRIDFORMAT
  1
GRIDFORMAT_BEGIN
 90
        0
 91
        1
 62
     0
 92
       -2
340
0
 93
        0
 40
0.045
309
GRIDFORMAT_END
309
TABLEFORMAT_END
  1
CELLSTYLE_BEGIN
 90
        2
 91
        1
300
_HEADER
309
CELLSTYLE_END
300
CELLSTYLE
  1
TABLEFORMAT_BEGIN
 90
        5
170
     1
 91
        0
 92
        0
 62
   257
 93
        1
300
CONTENTFORMAT
  1
CONTENTFORMAT_BEGIN
 90
        0
 91
        0
 92
        4
 93
        0
300

 40
0.0
140
1.0
 94
        2
 62
     0
340
725D5
144
0.18
309
CONTENTFORMAT_END
171
     0
 94
        6
 95
        1
302
GRIDFORMAT
  1
GRIDFORMAT_BEGIN
 90
        0
 91
        1
 62
     0
 92
       -2
340
0
 93
        0
 40
0.045
309
GRIDFORMAT_END
 95
        2
302
GRIDFORMAT
  1
GRIDFORMAT_BEGIN
 90
        0
 91
        1
 62
     0
 92
       -2
340
0
 93
        0
 40
0.045
309
GRIDFORMAT_END
 95
        4
302
GRIDFORMAT
  1
GRIDFORMAT_BEGIN
 90
        0
 91
        1
 62
     0
 92
       -2
340
0
 93
        0
 40
0.045
309
GRIDFORMAT_END
 95
        8
302
GRIDFORMAT
  1
GRIDFORMAT_BEGIN
 90
        0
 91
        1
 62
     0
 92
       -2
340
0
 93
        0
 40
0.045
309
GRIDFORMAT_END
 95
       16
302
GRIDFORMAT
  1
GRIDFORMAT_BEGIN
 90
        0
 91
        1
 62
     0
 92
       -2
340
0
 93
        0
 40
0.045
309
GRIDFORMAT_END
 95
       32
302
GRIDFORMAT
  1
GRIDFORMAT_BEGIN
 90
        0
 91
        1
 62
     0
 92
       -2
340
0
 93
        0
 40
0.045
309
GRIDFORMAT_END
309
TABLEFORMAT_END
  1
CELLSTYLE_BEGIN
 90
        3
 91
        2
300
_DATA
309
CELLSTYLE_END
  0
ENDSEC
  0
SECTION
  2
ACDSDATA
 70
     2
 71
     8
  0
ACDSSCHEMA
 90
        0
  1
AcDb_Thumbnail_Schema
  2
AcDbDs::ID
280
    10
 91
        8
  2
Thumbnail_Data
280
    15
 91
        0
101
ACDSRECORD
 95
        0
 90
        1
  2
AcDbDs::TreatedAsObjectData
280
     1
291
     1
101
ACDSRECORD
 95
        0
 90
        2
  2
AcDbDs::Legacy
280
     1
291
     1
101
ACDSRECORD
  1
AcDbDs::ID
 90
        3
  2
AcDs:Indexable
280
     1
291
     1
101
ACDSRECORD
  1
AcDbDs::ID
 90
        4
  2
AcDbDs::HandleAttribute
280
     7
282
     1
  0
ACDSSCHEMA
 90
        1
  1
AcDbDs::TreatedAsObjectDataSchema
  2
AcDbDs::TreatedAsObjectData
280
     1
 91
        0
  0
ACDSSCHEMA
 90
        2
  1
AcDbDs::LegacySchema
  2
AcDbDs::Legacy
280
     1
 91
        0
  0
ACDSSCHEMA
 90
        3
  1
AcDbDs::IndexedPropertySchema
  2
AcDs:Indexable
280
     1
 91
        0
  0
ACDSSCHEMA
 90
        4
  1
AcDbDs::HandleAttributeSchema
  2
AcDbDs::HandleAttribute
280
     7
 91
        1
284
     1
  0
ACDSRECORD
 90
        0
  2
AcDbDs::ID
280
    10
320
725CD
  2
Thumbnail_Data
280
    15
 94
     1048
310
89504E470D0A1A0A0000000D49484452000000B40000008B0803000000FF3F437800000300504C5445FFFFFF000000FFFFFF0000000000000000000000000000000000000000000000000000330000660000990000CC0000FF0033000033330033660033990033CC0033FF0066000066330066660066990066CC0066FF0099
310
000099330099660099990099CC0099FF00CC0000CC3300CC6600CC9900CCCC00CCFF00FF0000FF3300FF6600FF9900FFCC00FFFF3300003300333300663300993300CC3300FF3333003333333333663333993333CC3333FF3366003366333366663366993366CC3366FF3399003399333399663399993399CC3399FF33CC00
310
33CC3333CC6633CC9933CCCC33CCFF33FF0033FF3333FF6633FF9933FFCC33FFFF6600006600336600666600996600CC6600FF6633006633336633666633996633CC6633FF6666006666336666666666996666CC6666FF6699006699336699666699996699CC6699FF66CC0066CC3366CC6666CC9966CCCC66CCFF66FF0066
310
FF3366FF6666FF9966FFCC66FFFF9900009900339900669900999900CC9900FF9933009933339933669933999933CC9933FF9966009966339966669966999966CC9966FF9999009999339999669999999999CC9999FF99CC0099CC3399CC6699CC9999CCCC99CCFF99FF0099FF3399FF6699FF9999FFCC99FFFFCC0000CC00
310
33CC0066CC0099CC00CCCC00FFCC3300CC3333CC3366CC3399CC33CCCC33FFCC6600CC6633CC6666CC6699CC66CCCC66FFCC9900CC9933CC9966CC9999CC99CCCC99FFCCCC00CCCC33CCCC66CCCC99CCCCCCCCCCFFCCFF00CCFF33CCFF66CCFF99CCFFCCCCFFFFFF0000FF0033FF0066FF0099FF00CCFF00FFFF3300FF3333
310
FF3366FF3399FF33CCFF33FFFF6600FF6633FF6666FF6699FF66CCFF66FFFF9900FF9933FF9966FF9999FF99CCFF99FFFFCC00FFCC33FFCC66FFCC99FFCCCCFFCCFFFFFF00FFFF33FFFF66FFFF99FFFFCCFFFFFF0000000D0D0D1A1A1A2828283535354343435050505D5D5D6B6B6B787878868686939393A1A1A1AEAEAEBB
310
BBBBC9C9C9D6D6D6E4E4E4F1F1F1FFFFFF000000000000000000000000000000000000000000000000000000000000790CAC0F000000D34944415478DAEDDD310A80300C0550EF7FCC5CC0C95D10041DA4568B34F665CCE2434ABF59E214E96A9EA7255B417F868E0DBD1F9643FF5CA5FEF2B27FFF0107749EB70C0D0D0D3D
310
243A65224243D7A0BBF9DEAF4277745940433F40471A744043434343434343434343B7401BB7A0A1A1A1A19BA3C538343434343434343434F46068E316343434347473B418878686868686868686861E0C6DDC82868686866E8E16E3D0D0D0D0D0D0D0D0D0D083A18D5BD0FF4767DCC3D475414397D1D62942434343778ECE
310
B8E95B8C435FA123E12F1956FC241BF103F904980000000049454E44AE426082
  0
ACDSRECORD
 90
        0
  2
AcDbDs::ID
280
    10
320
725C8
  2
Thumbnail_Data
280
    15
 94
     1657
310
89504E470D0A1A0A0000000D4948445200000100000000990803000000F7B2146B00000300504C5445FFFFFFFFFFFFFFFFFF0000000000000000000000000000000000000000000000000000330000660000990000CC0000FF0033000033330033660033990033CC0033FF0066000066330066660066990066CC0066FF0099
310
000099330099660099990099CC0099FF00CC0000CC3300CC6600CC9900CCCC00CCFF00FF0000FF3300FF6600FF9900FFCC00FFFF3300003300333300663300993300CC3300FF3333003333333333663333993333CC3333FF3366003366333366663366993366CC3366FF3399003399333399663399993399CC3399FF33CC00
310
33CC3333CC6633CC9933CCCC33CCFF33FF0033FF3333FF6633FF9933FFCC33FFFF6600006600336600666600996600CC6600FF6633006633336633666633996633CC6633FF6666006666336666666666996666CC6666FF6699006699336699666699996699CC6699FF66CC0066CC3366CC6666CC9966CCCC66CCFF66FF0066
310
FF3366FF6666FF9966FFCC66FFFF9900009900339900669900999900CC9900FF9933009933339933669933999933CC9933FF9966009966339966669966999966CC9966FF9999009999339999669999999999CC9999FF99CC0099CC3399CC6699CC9999CCCC99CCFF99FF0099FF3399FF6699FF9999FFCC99FFFFCC0000CC00
310
33CC0066CC0099CC00CCCC00FFCC3300CC3333CC3366CC3399CC33CCCC33FFCC6600CC6633CC6666CC6699CC66CCCC66FFCC9900CC9933CC9966CC9999CC99CCCC99FFCCCC00CCCC33CCCC66CCCC99CCCCCCCCCCFFCCFF00CCFF33CCFF66CCFF99CCFFCCCCFFFFFF0000FF0033FF0066FF0099FF00CCFF00FFFF3300FF3333
310
FF3366FF3399FF33CCFF33FFFF6600FF6633FF6666FF6699FF66CCFF66FFFF9900FF9933FF9966FF9999FF99CCFF99FFFFCC00FFCC33FFCC66FFCC99FFCCCCFFCCFFFFFF00FFFF33FFFF66FFFF99FFFFCCFFFFFF0000000D0D0D1A1A1A2828283535354343435050505D5D5D6B6B6B787878868686939393A1A1A1AEAEAEBB
310
BBBBC9C9C9D6D6D6E4E4E4F1F1F1FFFFFF000000000000000000000000000000000000000000000000000000000000AD4AB4E4000002094944415478DAED9C6D6EC3201005F9DDFB9F704F5229690C6B0332286DD4F766DA48561A57F264975DF04729000000000000000000F097C41BF8DF02DEE04142C0FEEE2E02FA5FB8
310
A580D681540ACC337AF847A541304B986DCA57819223E2BA49194400029405E491EF78F7F1232D20D5B4633B1F66FB39C5081808C80D81AA80D4D5C44440C80AB8F47D612AE0150151C25640A91190E64A6602D2565808381F761DF4E33269541450E3BD333B728B80E8B7072E6340B70BF01490EB82B58038D6CF5405D4A4
310
3FBFD199044ACE06B38198AD14C809F8624104014BC7AD25E0FE1E5177B53C39DA368CC602DA89916F0484A900E50B246E1C9CB080F5622F2860F48918ED2E2760BA0032ED0B1C53404D40E975B7CF25512200012629D01DE80B29201C01F30BC01C52E031CAB75560A5111213601A019DAB7F57A63A4211B037D91313B0BE
310
EA2B1F0146291065E75480D420B873E6433602EEB75208B019032CAAC0C66C02012AB3415701F61180000420802AE0DC073C5B010420000108B017B05710F4042C2E0B0A08A00FD88A80D012E07CB9FC4F041CBFE9659302AB5F6D7BE31029400AF84680D5183088775D01A480CD20B8738F80601528F9E182C32A70BA7FDA
310
AF118AB65A6A09B81B016113014E9DE04A0AC896C14B0A8CBA03A74EB0F3A8513D013C5BFCE3FFE29302DC9F2E0F000000000000000000000000000000000000F07B7C03ACE900C9581750540000000049454E44AE42608200DCC217AA8DF2AE6FDE65FA0000000049454E44AE426082E0040980790001685812330FE0A1EE
310
87B400022000022000022000026022F4EDB580DB6D8000088000088000E6050502000770FBF11801980430DA6CE2CB00545E9B3603C0590F8323FD4134FF93958F051C7B2083CD90A3FB22F1C3E0FD3D0149D705C02870D302C00118F601421FD0F701E7730165166000C0E928D00911F401C016E0666C14632A8C0D20AE8F
310
871220B7B72394A32F2154397C3D15569208C537FE8C1394F47C6BC550B4A0800EE0A20588720B30510CC54D134F4501FDC5D0953BADCA07F4015828861A2FD52B01907AF1240A3401A898021D008A9DE03302EB2132E15285962B00009E94A3288AA2288AA2288AA2288AA2288AEAE9171B7D5FDE0B520365000000004945
310
4E44AE426082
  0
ENDSEC
  0
EOF
