  0
SECTION
  2
HEADER
  9
$ACADVER
  1
AC1024
  9
$ACADMAINTVER
 70
6
  9
$DWGCODEPAGE
  3
ANSI_1252
  9
$LASTSAVEDBY
  1
ezdxf
  9
$INSBASE
 10
0.0
 20
0.0
 30
0.0
  9
$EXTMIN
 10
1e+20
 20
1e+20
 30
1e+20
  9
$EXTMAX
 10
-1e+20
 20
-1e+20
 30
-1e+20
  9
$LIMMIN
 10
0.0
 20
0.0
  9
$LIMMAX
 10
420.0
 20
297.0
  9
$ORTHOMODE
 70
0
  9
$REGENMODE
 70
1
  9
$FILLMODE
 70
1
  9
$QTEXTMODE
 70
0
  9
$MIRRTEXT
 70
1
  9
$LTSCALE
 40
1.0
  9
$ATTMODE
 70
1
  9
$TEXTSIZE
 40
2.5
  9
$TRACEWID
 40
1.0
  9
$TEXTSTYLE
  7
Standard
  9
$CLAYER
  8
0
  9
$CELTYPE
  6
ByLayer
  9
$CECOLOR
 62
256
  9
$CELTSCALE
 40
1.0
  9
$DISPSILH
 70
0
  9
$DIMSCALE
 40
1.0
  9
$DIMASZ
 40
2.5
  9
$DIMEXO
 40
0.625
  9
$DIMDLI
 40
3.75
  9
$DIMRND
 40
0.0
  9
$DIMDLE
 40
0.0
  9
$DIMEXE
 40
1.25
  9
$DIMTP
 40
0.0
  9
$DIMTM
 40
0.0
  9
$DIMTXT
 40
2.5
  9
$DIMCEN
 40
2.5
  9
$DIMTSZ
 40
0.0
  9
$DIMTOL
 70
0
  9
$DIMLIM
 70
0
  9
$DIMTIH
 70
0
  9
$DIMTOH
 70
0
  9
$DIMSE1
 70
0
  9
$DIMSE2
 70
0
  9
$DIMTAD
 70
1
  9
$DIMZIN
 70
8
  9
$DIMBLK
  1

  9
$DIMASO
 70
1
  9
$DIMSHO
 70
1
  9
$DIMPOST
  1

  9
$DIMAPOST
  1

  9
$DIMALT
 70
0
  9
$DIMALTD
 70
3
  9
$DIMALTF
 40
0.03937007874
  9
$DIMLFAC
 40
1.0
  9
$DIMTOFL
 70
1
  9
$DIMTVP
 40
0.0
  9
$DIMTIX
 70
0
  9
$DIMSOXD
 70
0
  9
$DIMSAH
 70
0
  9
$DIMBLK1
  1

  9
$DIMBLK2
  1

  9
$DIMSTYLE
  2
ISO-25
  9
$DIMCLRD
 70
0
  9
$DIMCLRE
 70
0
  9
$DIMCLRT
 70
0
  9
$DIMTFAC
 40
1.0
  9
$DIMGAP
 40
0.625
  9
$DIMJUST
 70
0
  9
$DIMSD1
 70
0
  9
$DIMSD2
 70
0
  9
$DIMTOLJ
 70
0
  9
$DIMTZIN
 70
8
  9
$DIMALTZ
 70
0
  9
$DIMALTTZ
 70
0
  9
$DIMUPT
 70
0
  9
$DIMDEC
 70
2
  9
$DIMTDEC
 70
2
  9
$DIMALTU
 70
2
  9
$DIMALTTD
 70
3
  9
$DIMTXSTY
  7
Standard
  9
$DIMAUNIT
 70
0
  9
$DIMADEC
 70
0
  9
$DIMALTRND
 40
0.0
  9
$DIMAZIN
 70
0
  9
$DIMDSEP
 70
44
  9
$DIMATFIT
 70
3
  9
$DIMFRAC
 70
0
  9
$DIMLDRBLK
  1

  9
$DIMLUNIT
 70
2
  9
$DIMLWD
 70
-2
  9
$DIMLWE
 70
-2
  9
$DIMTMOVE
 70
0
  9
$DIMFXL
 40
1.0
  9
$DIMFXLON
 70
0
  9
$DIMJOGANG
 40
0.785398163397
  9
$DIMTFILL
 70
0
  9
$DIMTFILLCLR
 70
0
  9
$DIMARCSYM
 70
0
  9
$DIMLTYPE
  6

  9
$DIMLTEX1
  6

  9
$DIMLTEX2
  6

  9
$DIMTXTDIRECTION
 70
0
  9
$LUNITS
 70
2
  9
$LUPREC
 70
4
  9
$SKETCHINC
 40
1.0
  9
$FILLETRAD
 40
10.0
  9
$AUNITS
 70
0
  9
$AUPREC
 70
2
  9
$MENU
  1
.
  9
$ELEVATION
 40
0.0
  9
$PELEVATION
 40
0.0
  9
$THICKNESS
 40
0.0
  9
$LIMCHECK
 70
0
  9
$CHAMFERA
 40
0.0
  9
$CHAMFERB
 40
0.0
  9
$CHAMFERC
 40
0.0
  9
$CHAMFERD
 40
0.0
  9
$SKPOLY
 70
0
  9
$TDCREATE
 40
2461147.5789699075
  9
$TDUCREATE
 40
2458532.153996898
  9
$TDUPDATE
 40
2461147.5789699075
  9
$TDUUPDATE
 40
2458532.1544311
  9
$TDINDWG
 40
0.0
  9
$TDUSRTIMER
 40
0.0
  9
$USRTIMER
 70
1
  9
$ANGBASE
 50
0.0
  9
$ANGDIR
 70
0
  9
$PDMODE
 70
0
  9
$PDSIZE
 40
0.0
  9
$PLINEWID
 40
0.0
  9
$SPLFRAME
 70
0
  9
$SPLINETYPE
 70
6
  9
$SPLINESEGS
 70
8
  9
$HANDSEED
  5
1F2
  9
$SURFTAB1
 70
6
  9
$SURFTAB2
 70
6
  9
$SURFTYPE
 70
6
  9
$SURFU
 70
6
  9
$SURFV
 70
6
  9
$UCSBASE
  2

  9
$UCSNAME
  2

  9
$UCSORG
 10
0.0
 20
0.0
 30
0.0
  9
$UCSXDIR
 10
1.0
 20
0.0
 30
0.0
  9
$UCSYDIR
 10
0.0
 20
1.0
 30
0.0
  9
$UCSORTHOREF
  2

  9
$UCSORTHOVIEW
 70
0
  9
$UCSORGTOP
 10
0.0
 20
0.0
 30
0.0
  9
$UCSORGBOTTOM
 10
0.0
 20
0.0
 30
0.0
  9
$UCSORGLEFT
 10
0.0
 20
0.0
 30
0.0
  9
$UCSORGRIGHT
 10
0.0
 20
0.0
 30
0.0
  9
$UCSORGFRONT
 10
0.0
 20
0.0
 30
0.0
  9
$UCSORGBACK
 10
0.0
 20
0.0
 30
0.0
  9
$PUCSBASE
  2

  9
$PUCSNAME
  2

  9
$PUCSORG
 10
0.0
 20
0.0
 30
0.0
  9
$PUCSXDIR
 10
1.0
 20
0.0
 30
0.0
  9
$PUCSYDIR
 10
0.0
 20
1.0
 30
0.0
  9
$PUCSORTHOREF
  2

  9
$PUCSORTHOVIEW
 70
0
  9
$PUCSORGTOP
 10
0.0
 20
0.0
 30
0.0
  9
$PUCSORGBOTTOM
 10
0.0
 20
0.0
 30
0.0
  9
$PUCSORGLEFT
 10
0.0
 20
0.0
 30
0.0
  9
$PUCSORGRIGHT
 10
0.0
 20
0.0
 30
0.0
  9
$PUCSORGFRONT
 10
0.0
 20
0.0
 30
0.0
  9
$PUCSORGBACK
 10
0.0
 20
0.0
 30
0.0
  9
$USERI1
 70
0
  9
$USERI2
 70
0
  9
$USERI3
 70
0
  9
$USERI4
 70
0
  9
$USERI5
 70
0
  9
$USERR1
 40
0.0
  9
$USERR2
 40
0.0
  9
$USERR3
 40
0.0
  9
$USERR4
 40
0.0
  9
$USERR5
 40
0.0
  9
$WORLDVIEW
 70
1
  9
$SHADEDGE
 70
3
  9
$SHADEDIF
 70
70
  9
$TILEMODE
 70
1
  9
$MAXACTVP
 70
64
  9
$PINSBASE
 10
0.0
 20
0.0
 30
0.0
  9
$PLIMCHECK
 70
0
  9
$PEXTMIN
 10
1e+20
 20
1e+20
 30
1e+20
  9
$PEXTMAX
 10
-1e+20
 20
-1e+20
 30
-1e+20
  9
$PLIMMIN
 10
0.0
 20
0.0
  9
$PLIMMAX
 10
420.0
 20
297.0
  9
$UNITMODE
 70
0
  9
$VISRETAIN
 70
1
  9
$PLINEGEN
 70
0
  9
$PSLTSCALE
 70
1
  9
$TREEDEPTH
 70
3020
  9
$CMLSTYLE
  2
Standard
  9
$CMLJUST
 70
0
  9
$CMLSCALE
 40
20.0
  9
$PROXYGRAPHICS
 70
1
  9
$MEASUREMENT
 70
1
  9
$CELWEIGHT
370
-1
  9
$ENDCAPS
280
0
  9
$JOINSTYLE
280
0
  9
$LWDISPLAY
290
0
  9
$INSUNITS
 70
0
  9
$HYPERLINKBASE
  1

  9
$STYLESHEET
  1

  9
$XEDIT
290
1
  9
$CEPSNTYPE
380
0
  9
$PSTYLEMODE
290
1
  9
$FINGERPRINTGUID
  2
{2AE96087-9B66-4493-B454-8530BF64409B}
  9
$VERSIONGUID
  2
{88351664-4B68-4178-A606-C0C13C59B7BE}
  9
$EXTNAMES
290
1
  9
$PSVPSCALE
 40
0.0
  9
$OLESTARTUP
290
0
  9
$SORTENTS
280
127
  9
$INDEXCTL
280
0
  9
$HIDETEXT
280
1
  9
$XCLIPFRAME
280
1
  9
$HALOGAP
280
0
  9
$OBSCOLOR
 70
257
  9
$OBSLTYPE
280
0
  9
$INTERSECTIONDISPLAY
280
0
  9
$INTERSECTIONCOLOR
 70
257
  9
$DIMASSOC
280
2
  9
$PROJECTNAME
  1

  9
$CAMERADISPLAY
290
0
  9
$LENSLENGTH
 40
50.0
  9
$CAMERAHEIGHT
 40
0.0
  9
$STEPSPERSEC
 40
24.0
  9
$STEPSIZE
 40
100.0
  9
$3DDWFPREC
 40
2.0
  9
$PSOLWIDTH
 40
0.005
  9
$PSOLHEIGHT
 40
0.08
  9
$LOFTANG1
 40
1.570796326795
  9
$LOFTANG2
 40
1.570796326795
  9
$LOFTMAG1
 40
0.0
  9
$LOFTMAG2
 40
0.0
  9
$LOFTPARAM
 70
7
  9
$LOFTNORMALS
280
1
  9
$LATITUDE
 40
37.795
  9
$LONGITUDE
 40
-122.394
  9
$NORTHDIRECTION
 40
0.0
  9
$TIMEZONE
 70
-8000
  9
$LIGHTGLYPHDISPLAY
280
1
  9
$TILEMODELIGHTSYNCH
280
1
  9
$CMATERIAL
347
20
  9
$SOLIDHIST
280
0
  9
$SHOWHIST
280
1
  9
$DWFFRAME
280
2
  9
$DGNFRAME
280
2
  9
$REALWORLDSCALE
290
1
  9
$INTERFERECOLOR
 62
256
  9
$CSHADOW
280
0
  9
$SHADOWPLANELOCATION
 40
0.0
  0
ENDSEC
  0
SECTION
  2
CLASSES
  0
CLASS
  1
ACDBDICTIONARYWDFLT
  2
AcDbDictionaryWithDefault
  3
ObjectDBX Classes
 90
0
 91
0
280
0
281
0
  0
CLASS
  1
SUN
  2
AcDbSun
  3
SCENEOE
 90
1153
 91
0
280
0
281
0
  0
CLASS
  1
VISUALSTYLE
  2
AcDbVisualStyle
  3
ObjectDBX Classes
 90
4095
 91
0
280
0
281
0
  0
CLASS
  1
MATERIAL
  2
AcDbMaterial
  3
ObjectDBX Classes
 90
1153
 91
0
280
0
281
0
  0
CLASS
  1
SCALE
  2
AcDbScale
  3
ObjectDBX Classes
 90
1153
 91
0
280
0
281
0
  0
CLASS
  1
TABLESTYLE
  2
AcDbTableStyle
  3
ObjectDBX Classes
 90
4095
 91
0
280
0
281
0
  0
CLASS
  1
MLEADERSTYLE
  2
AcDbMLeaderStyle
  3
ACDB_MLEADERSTYLE_CLASS
 90
4095
 91
0
280
0
281
0
  0
CLASS
  1
DICTIONARYVAR
  2
AcDbDictionaryVar
  3
ObjectDBX Classes
 90
0
 91
0
280
0
281
0
  0
CLASS
  1
CELLSTYLEMAP
  2
AcDbCellStyleMap
  3
ObjectDBX Classes
 90
1152
 91
0
280
0
281
0
  0
CLASS
  1
MENTALRAYRENDERSETTINGS
  2
AcDbMentalRayRenderSettings
  3
SCENEOE
 90
1024
 91
0
280
0
281
0
  0
CLASS
  1
ACDBDETAILVIEWSTYLE
  2
AcDbDetailViewStyle
  3
ObjectDBX Classes
 90
1025
 91
0
280
0
281
0
  0
CLASS
  1
ACDBSECTIONVIEWSTYLE
  2
AcDbSectionViewStyle
  3
ObjectDBX Classes
 90
1025
 91
0
280
0
281
0
  0
CLASS
  1
RASTERVARIABLES
  2
AcDbRasterVariables
  3
ISM
 90
0
 91
0
280
0
281
0
  0
CLASS
  1
LAYOUT
  2
AcDbLayout
  3
ObjectDBX Classes
 90
0
 91
0
280
0
281
0
  0
CLASS
  1
ACDBPLACEHOLDER
  2
AcDbPlaceHolder
  3
ObjectDBX Classes
 90
0
 91
0
280
0
281
0
  0
ENDSEC
  0
SECTION
  2
TABLES
  0
TABLE
  2
VPORT
  5
8
330
0
100
AcDbSymbolTable
 70
1
  0
VPORT
  5
23
330
8
100
AcDbSymbolTableRecord
100
AcDbViewportTableRecord
  2
*Active
 70
0
 10
0.0
 20
0.0
 11
1.0
 21
1.0
 12
0.0
 22
0.0
 13
0.0
 23
0.0
 14
0.5
 24
0.5
 15
0.5
 25
0.5
 16
0.0
 26
0.0
 36
1.0
 17
0.0
 27
0.0
 37
0.0
 40
1000.0
 41
1.34
 42
50.0
 43
0.0
 44
0.0
 50
0.0
 51
0.0
 71
0
 72
1000
 73
1
 74
3
 75
0
 76
0
 77
0
 78
0
281
0
 65
0
146
0.0
  0
ENDTAB
  0
TABLE
  2
LTYPE
  5
2
330
0
100
AcDbSymbolTable
 70
3
  0
LTYPE
  5
24
330
2
100
AcDbSymbolTableRecord
100
AcDbLinetypeTableRecord
  2
ByBlock
 70
0
  3

 72
65
 73
0
 40
0.0
  0
LTYPE
  5
25
330
2
100
AcDbSymbolTableRecord
100
AcDbLinetypeTableRecord
  2
ByLayer
 70
0
  3

 72
65
 73
0
 40
0.0
  0
LTYPE
  5
26
330
2
100
AcDbSymbolTableRecord
100
AcDbLinetypeTableRecord
  2
Continuous
 70
0
  3

 72
65
 73
0
 40
0.0
  0
ENDTAB
  0
TABLE
  2
LAYER
  5
1
330
0
100
AcDbSymbolTable
 70
2
  0
LAYER
  5
27
330
1
100
AcDbSymbolTableRecord
100
AcDbLayerTableRecord
  2
0
 70
0
 62
7
  6
Continuous
370
-3
390
13
347
21
  0
LAYER
  5
28
330
1
100
AcDbSymbolTableRecord
100
AcDbLayerTableRecord
  2
Defpoints
 70
0
 62
7
  6
Continuous
290
0
370
-3
390
13
347
21
  0
ENDTAB
  0
TABLE
  2
STYLE
  5
5
330
0
100
AcDbSymbolTable
 70
1
  0
STYLE
  5
29
330
5
100
AcDbSymbolTableRecord
100
AcDbTextStyleTableRecord
  2
Standard
 70
0
 40
0.0
 41
1.0
 50
0.0
 71
0
 42
2.5
  3
txt
  4

  0
ENDTAB
  0
TABLE
  2
VIEW
  5
7
330
0
100
AcDbSymbolTable
 70
0
  0
ENDTAB
  0
TABLE
  2
UCS
  5
6
330
0
100
AcDbSymbolTable
 70
0
  0
ENDTAB
  0
TABLE
  2
APPID
  5
3
330
0
100
AcDbSymbolTable
 70
3
  0
APPID
  5
2A
330
3
100
AcDbSymbolTableRecord
100
AcDbRegAppTableRecord
  2
ACAD
 70
0
  0
APPID
  5
1EF
330
3
100
AcDbSymbolTableRecord
100
AcDbRegAppTableRecord
  2
HATCHBACKGROUNDCOLOR
 70
0
  0
APPID
  5
1F0
330
3
100
AcDbSymbolTableRecord
100
AcDbRegAppTableRecord
  2
EZDXF
 70
0
  0
ENDTAB
  0
TABLE
  2
DIMSTYLE
  5
4
330
0
100
AcDbSymbolTable
 70
1
100
AcDbDimStyleTable
  0
DIMSTYLE
105
2B
330
4
100
AcDbSymbolTableRecord
100
AcDbDimStyleTableRecord
  2
Standard
 70
0
 40
1.0
 41
2.5
 42
0.625
 43
3.75
 44
1.25
 45
0.0
 46
0.0
 47
0.0
 48
0.0
 49
2.5
140
2.5
141
2.5
142
0.0
143
0.03937007874
144
1.0
145
0.0
146
1.0
147
0.625
148
0.0
 69
0
 70
0
 71
0
 72
0
 73
0
 74
0
 75
0
 76
0
 77
1
 78
8
 79
3
170
0
171
3
172
1
173
0
174
0
175
0
176
0
177
0
178
0
179
2
271
2
272
2
273
2
274
3
275
0
276
0
277
2
278
44
279
0
280
0
281
0
282
0
283
0
284
8
285
0
286
0
288
0
289
3
290
0
371
-2
372
-2
  0
ENDTAB
  0
TABLE
  2
BLOCK_RECORD
  5
9
330
0
100
AcDbSymbolTable
 70
2
  0
BLOCK_RECORD
  5
17
330
9
100
AcDbSymbolTableRecord
100
AcDbBlockTableRecord
  2
*Model_Space
340
1A
 70
0
280
1
281
0
  0
BLOCK_RECORD
  5
1B
330
9
100
AcDbSymbolTableRecord
100
AcDbBlockTableRecord
  2
*Paper_Space
340
1E
 70
0
280
1
281
0
  0
ENDTAB
  0
ENDSEC
  0
SECTION
  2
BLOCKS
  0
BLOCK
  5
18
330
17
100
AcDbEntity
  8
0
100
AcDbBlockBegin
  2
*Model_Space
 70
0
 10
0.0
 20
0.0
 30
0.0
  3
*Model_Space
  1

  0
ENDBLK
  5
19
330
17
100
AcDbEntity
  8
0
100
AcDbBlockEnd
  0
BLOCK
  5
1C
330
1B
100
AcDbEntity
  8
0
100
AcDbBlockBegin
  2
*Paper_Space
 70
0
 10
0.0
 20
0.0
 30
0.0
  3
*Paper_Space
  1

  0
ENDBLK
  5
1D
330
1B
100
AcDbEntity
  8
0
100
AcDbBlockEnd
  0
ENDSEC
  0
SECTION
  2
ENTITIES
  0
LINE
  5
2F
330
17
100
AcDbEntity
  8
0
100
AcDbLine
 10
-70.74971616686052
 20
1789.876828768602
 30
0.0
 11
807.5488692294609
 21
1866.7179981816357
 31
0.0
  0
LINE
  5
30
330
17
100
AcDbEntity
  8
0
100
AcDbLine
 10
-14.132796665429055
 20
1142.7424776460116
 30
0.0
 11
864.1657887308924
 21
1219.5836470590452
 31
0.0
  0
LINE
  5
31
330
17
100
AcDbEntity
  8
0
100
AcDbLine
 10
278.0753092200684
 20
1820.3950640441008
 30
0.0
 11
442.1510572038953
 21
-54.99931702572928
 31
0.0
  0
LINE
  5
32
330
17
100
AcDbEntity
  8
0
100
AcDbLine
 10
806.6224105467102
 20
1877.3074693818237
 30
0.0
 11
971.6246172132877
 21
-8.67638288819444
 31
0.0
  0
LINE
  5
33
330
17
100
AcDbEntity
  8
0
100
AcDbLine
 10
42.48412283600232
 20
495.6081265234222
 30
0.0
 11
920.7827082323238
 21
572.4492959364559
 31
0.0
  0
LINE
  5
34
330
17
100
AcDbEntity
  8
0
100
AcDbLine
 10
897.7241810171957
 20
836.0094680300152
 30
0.0
 11
838.8937854605969
 21
830.8624753480669
 31
0.0
  0
LINE
  5
35
330
17
100
AcDbEntity
  8
0
100
AcDbLine
 10
838.8937854605969
 20
830.8624753480669
 30
0.0
 11
835.8055898514274
 21
866.1607126820311
 31
0.0
  0
LINE
  5
36
330
17
100
AcDbEntity
  8
0
100
AcDbLine
 10
892.0624890670522
 20
900.722903142279
 30
0.0
 11
381.4146556357703
 21
856.0470066629675
 31
0.0
  0
LINE
  5
37
330
17
100
AcDbEntity
  8
0
100
AcDbLine
 10
351.99945785747065
 20
853.4735103219933
 30
0.0
 11
163.74219207635127
 21
837.0031337397586
 31
0.0
  0
LINE
  5
38
330
17
100
AcDbEntity
  8
0
100
AcDbLine
 10
353.54355566205527
 20
835.8243916550124
 30
0.0
 11
15.30800147531532
 21
806.2326150622644
 31
0.0
  0
LINE
  5
39
330
17
100
AcDbEntity
  8
0
100
AcDbLine
 10
835.8055898514274
 20
866.1607126820311
 30
0.0
 11
354.57295419844485
 21
824.0583125436937
 31
0.0
  0
LINE
  5
3A
330
17
100
AcDbEntity
  8
0
100
AcDbLine
 10
967.3115220771366
 20
40.62252010479824
 30
0.0
 11
981.4308170107208
 21
41.85779834846585
 31
0.0
  0
LINE
  5
3B
330
17
100
AcDbEntity
  8
0
100
AcDbLine
 10
929.9443552061919
 20
467.73119184570817
 30
0.0
 11
944.0636501397761
 21
468.9664700893758
 31
0.0
  0
LINE
  5
3C
330
17
100
AcDbEntity
  8
0
100
AcDbLine
 10
941.2677391064782
 20
338.30432162118973
 30
0.0
 11
955.3870340400624
 21
339.53959986485734
 31
0.0
  0
LINE
  5
3D
330
17
100
AcDbEntity
  8
0
100
AcDbLine
 10
955.988138176851
 20
170.04939032930918
 30
0.0
 11
970.1074331104352
 21
171.28466857297678
 31
0.0
  0
LINE
  5
3E
330
17
100
AcDbEntity
  8
0
100
AcDbLine
 10
955.988138176851
 20
170.04939032930918
 30
0.0
 11
941.2677391064782
 21
338.30432162118973
 31
0.0
  0
LINE
  5
3F
330
17
100
AcDbEntity
  8
0
100
AcDbLine
 10
929.9443552061919
 20
467.73119184570817
 30
0.0
 11
911.724001112095
 21
675.9907921160664
 31
0.0
  0
LINE
  5
40
330
17
100
AcDbEntity
  8
0
100
AcDbLine
 10
971.6246172132877
 20
-8.67638288819444
 30
0.0
 11
967.3115220771366
 21
40.62252010479824
 31
0.0
  0
LINE
  5
41
330
17
100
AcDbEntity
  8
0
100
AcDbLine
 10
898.3418201390296
 20
828.9498205632221
 30
0.0
 11
807.5488692294609
 21
1866.7179981816357
 31
0.0
  0
LINE
  5
42
330
17
100
AcDbEntity
  8
0
100
AcDbLine
 10
912.461115072611
 20
830.1850988068895
 30
0.0
 11
820.4328859193748
 21
1882.0725713588868
 31
0.0
  0
LINE
  5
43
330
17
100
AcDbEntity
  8
0
100
AcDbLine
 10
163.74219207635127
 20
837.0031337397586
 30
0.0
 11
144.18361988494757
 21
1060.5586368548363
 31
0.0
  0
LINE
  5
44
330
17
100
AcDbEntity
  8
0
100
AcDbLine
 10
332.44088566606695
 20
1077.0290134370712
 30
0.0
 11
144.18361988494757
 21
1060.5586368548363
 31
0.0
  0
LINE
  5
45
330
17
100
AcDbEntity
  8
0
100
AcDbLine
 10
146.0930734093742
 20
835.4590359351744
 30
0.0
 11
126.53450121797052
 21
1059.014539050252
 31
0.0
  0
LINE
  5
46
330
17
100
AcDbEntity
  8
0
100
AcDbLine
 10
146.0930734093742
 20
835.4590359351744
 30
0.0
 11
13.763903670730722
 21
823.8817337292453
 31
0.0
  0
LINE
  5
47
330
17
100
AcDbEntity
  8
0
100
AcDbLine
 10
330.8967878614828
 20
1094.6781321040473
 30
0.0
 11
36.74481007848732
 21
1068.9431686943058
 31
0.0
  0
LINE
  5
48
330
17
100
AcDbEntity
  8
0
100
AcDbLine
 10
126.53450121797052
 20
1059.014539050252
 30
0.0
 11
-5.794668520672975
 21
1047.437236844323
 31
0.0
  0
LINE
  5
49
330
17
100
AcDbEntity
  8
0
100
AcDbLine
 10
325.0292162040616
 20
1161.7447830385715
 30
0.0
 11
330.8967878614828
 21
1094.6781321040473
 31
0.0
  0
LINE
  5
4A
330
17
100
AcDbEntity
  8
0
100
AcDbLine
 10
323.17629883856006
 20
1182.9237254389486
 30
0.0
 11
269.3387553853807
 21
1798.2896629609759
 31
0.0
  0
LINE
  5
4B
330
17
100
AcDbEntity
  8
0
100
AcDbLine
 10
296.90103579817907
 20
1822.042101702324
 30
0.0
 11
381.4146556357703
 21
856.0470066629675
 31
0.0
  0
LINE
  5
4C
330
17
100
AcDbEntity
  8
0
100
AcDbLine
 10
332.44088566606695
 20
1077.0290134370712
 30
0.0
 11
351.99945785747065
 21
853.4735103219933
 31
0.0
  0
LINE
  5
4D
330
17
100
AcDbEntity
  8
0
100
AcDbLine
 10
353.54355566205527
 20
835.8243916550124
 30
0.0
 11
354.57295419844485
 21
824.0583125436937
 31
0.0
  0
LINE
  5
4E
330
17
100
AcDbEntity
  8
0
100
AcDbLine
 10
36.74481007848732
 20
1068.9431686943058
 30
0.0
 11
33.656614469318214
 21
1104.2414060282665
 31
0.0
  0
LINE
  5
4F
330
17
100
AcDbEntity
  8
0
100
AcDbLine
 10
19.095691411507513
 20
1067.3990708897213
 30
0.0
 11
16.00749580233841
 21
1102.697308223682
 31
0.0
  0
LINE
  5
50
330
17
100
AcDbEntity
  8
0
100
AcDbLine
 10
157.76154810108665
 20
1311.9111017128516
 30
0.0
 11
126.87959200939672
 21
1664.8934750524468
 31
0.0
  0
LINE
  5
51
330
17
100
AcDbEntity
  8
0
100
AcDbLine
 10
169.52762721240674
 20
1312.9405002492413
 30
0.0
 11
138.64567112071683
 21
1665.9228735888364
 31
0.0
  0
LINE
  5
52
330
17
100
AcDbEntity
  8
0
100
AcDbLine
 10
-14.313357326440112
 20
1652.5406926157707
 30
0.0
 11
279.83862045655536
 21
1678.2756560255123
 31
0.0
  0
LINE
  5
53
330
17
100
AcDbEntity
  8
0
100
AcDbLine
 10
-11.225161717271106
 20
1617.242455281811
 30
0.0
 11
129.96778761856572
 21
1629.5952377184872
 31
0.0
  0
LINE
  5
54
330
17
100
AcDbEntity
  8
0
100
AcDbLine
 10
-8.13696610810213
 20
1581.944217947852
 30
0.0
 11
133.0559832277347
 21
1594.2970003845276
 31
0.0
  0
LINE
  5
55
330
17
100
AcDbEntity
  8
0
100
AcDbLine
 10
-5.048770498933223
 20
1546.6459806138932
 30
0.0
 11
136.14417883690362
 21
1558.998763050569
 31
0.0
  0
LINE
  5
56
330
17
100
AcDbEntity
  8
0
100
AcDbLine
 10
-1.9605748897639472
 20
1511.3477432799305
 30
0.0
 11
139.23237444607287
 21
1523.7005257166063
 31
0.0
  0
LINE
  5
57
330
17
100
AcDbEntity
  8
0
100
AcDbLine
 10
1.1276207194048382
 20
1476.0495059459734
 30
0.0
 11
142.32057005524166
 21
1488.4022883826492
 31
0.0
  0
LINE
  5
58
330
17
100
AcDbEntity
  8
0
100
AcDbLine
 10
4.215816328573837
 20
1440.7512686120137
 30
0.0
 11
74.81229099649282
 21
1446.9276598303518
 31
0.0
  0
LINE
  5
59
330
17
100
AcDbEntity
  8
0
100
AcDbLine
 10
16.568598765249803
 20
1299.5583192761758
 30
0.0
 11
310.7205765482453
 21
1325.2932826859171
 31
0.0
  0
LINE
  5
5A
330
17
100
AcDbEntity
  8
0
100
AcDbLine
 10
33.656614469318214
 20
1104.2414060282665
 30
0.0
 11
16.00749580233841
 21
1102.697308223682
 31
0.0
  0
LINE
  5
5B
330
17
100
AcDbEntity
  8
0
100
AcDbLine
 10
21.30383203264213
 20
1245.434355364106
 30
0.0
 11
3.654713365662328
 21
1243.8902575595214
 31
0.0
  0
LINE
  5
5C
330
17
100
AcDbEntity
  8
0
100
AcDbLine
 10
3.654713365662328
 20
1243.8902575595214
 30
0.0
 11
-44.31525843009585
 21
1792.189544147024
 31
0.0
  0
LINE
  5
5D
330
17
100
AcDbEntity
  8
0
100
AcDbLine
 10
21.30383203264213
 20
1245.434355364106
 30
0.0
 11
-26.66613976311605
 21
1793.7336419516087
 31
0.0
  0
LINE
  5
5E
330
17
100
AcDbEntity
  8
0
100
AcDbLine
 10
19.095691411507513
 20
1067.3990708897213
 30
0.0
 11
-7.338766325257158
 21
1065.0863555112992
 31
0.0
  0
LINE
  5
5F
330
17
100
AcDbEntity
  8
0
100
AcDbLine
 10
141.73386672988582
 20
1630.6246362548768
 30
0.0
 11
282.9268160657243
 21
1642.9774186915527
 31
0.0
  0
LINE
  5
60
330
17
100
AcDbEntity
  8
0
100
AcDbLine
 10
144.8220623390548
 20
1595.3263989209172
 30
0.0
 11
286.01501167489334
 21
1607.6791813575933
 31
0.0
  0
LINE
  5
61
330
17
100
AcDbEntity
  8
0
100
AcDbLine
 10
147.91025794822372
 20
1560.0281615869587
 30
0.0
 11
289.10320728406225
 21
1572.3809440236346
 31
0.0
  0
LINE
  5
62
330
17
100
AcDbEntity
  8
0
100
AcDbLine
 10
150.99845355739296
 20
1524.729924252996
 30
0.0
 11
292.1914028932315
 21
1537.0827066896718
 31
0.0
  0
LINE
  5
63
330
17
100
AcDbEntity
  8
0
100
AcDbLine
 10
154.08664916656176
 20
1489.4316869190388
 30
0.0
 11
295.2795985024003
 21
1501.784469355715
 31
0.0
  0
LINE
  5
64
330
17
100
AcDbEntity
  8
0
100
AcDbLine
 10
157.17484477573078
 20
1454.1334495850792
 30
0.0
 11
298.3677941115693
 21
1466.4862320217553
 31
0.0
  0
LINE
  5
65
330
17
100
AcDbEntity
  8
0
100
AcDbLine
 10
160.26304038489977
 20
1418.8352122511196
 30
0.0
 11
301.45598972073833
 21
1431.1879946877957
 31
0.0
  0
LINE
  5
66
330
17
100
AcDbEntity
  8
0
100
AcDbLine
 10
163.35123599406865
 20
1383.5369749171614
 30
0.0
 11
304.5441853299072
 21
1395.8897573538375
 31
0.0
  0
LINE
  5
67
330
17
100
AcDbEntity
  8
0
100
AcDbLine
 10
166.43943160323792
 20
1348.2387375831986
 30
0.0
 11
307.6323809390765
 21
1360.5915200198747
 31
0.0
  0
LINE
  5
68
330
17
100
AcDbEntity
  8
0
100
AcDbLine
 10
240.12410188032425
 20
1319.116891467579
 30
0.0
 11
209.24214578863433
 21
1672.0992648071742
 31
0.0
  0
LINE
  5
69
330
17
100
AcDbEntity
  8
0
100
AcDbLine
 10
234.33499277878147
 20
1651.0438661525548
 30
0.0
 11
209.24214578863433
 21
1672.0992648071742
 31
0.0
  0
LINE
  5
6A
330
17
100
AcDbEntity
  8
0
100
AcDbLine
 10
188.18674713401774
 20
1647.0064178170283
 30
0.0
 11
209.24214578863433
 21
1672.0992648071742
 31
0.0
  0
LINE
  5
6B
330
17
100
AcDbEntity
  8
0
100
AcDbLine
 10
56.28311734147887
 20
1658.7170838341087
 30
0.0
 11
74.81229099649282
 21
1446.9276598303518
 31
0.0
  0
LINE
  5
6C
330
17
100
AcDbEntity
  8
0
100
AcDbLine
 10
49.71944400634594
 20
1467.9830584849706
 30
0.0
 11
74.81229099649282
 21
1446.9276598303518
 31
0.0
  0
LINE
  5
6D
330
17
100
AcDbEntity
  8
0
100
AcDbLine
 10
95.8676896511099
 20
1472.020506820497
 30
0.0
 11
74.81229099649282
 21
1446.9276598303518
 31
0.0
  0
LINE
  5
6E
330
17
100
AcDbEntity
  8
0
100
AcDbLine
 10
7.3040119377428425
 20
1405.4530312780541
 30
0.0
 11
142.32057005524166
 21
1488.4022883826492
 31
0.0
  0
LINE
  5
6F
330
17
100
AcDbEntity
  8
0
100
AcDbLine
 10
-70.74971616686052
 20
1789.876828768602
 30
0.0
 11
102.76073046140455
 21
1805.057025851895
 31
0.0
  0
LINE
  5
70
330
17
100
AcDbEntity
  8
0
100
AcDbLine
 10
-71.9849944105281
 20
1803.9961237021855
 30
0.0
 11
109.76170759565717
 21
1819.8968997609509
 31
0.0
  0
LINE
  5
71
330
17
100
AcDbEntity
  8
0
100
AcDbLine
 10
312.19693864289496
 20
1823.3803197996308
 30
0.0
 11
310.9616603992274
 21
1837.4996147332145
 31
0.0
  0
LINE
  5
72
330
17
100
AcDbEntity
  8
0
100
AcDbLine
 10
453.3898879787317
 20
1835.7331022363066
 30
0.0
 11
452.1546097350641
 21
1849.85239716989
 31
0.0
  0
LINE
  5
73
330
17
100
AcDbEntity
  8
0
100
AcDbLine
 10
452.1546097350641
 20
1849.85239716989
 30
0.0
 11
820.4328859193748
 21
1882.0725713588868
 31
0.0
  0
LINE
  5
74
330
17
100
AcDbEntity
  8
0
100
AcDbLine
 10
453.3898879787317
 20
1835.7331022363066
 30
0.0
 11
807.5488692294609
 21
1866.7179981816357
 31
0.0
  0
LINE
  5
75
330
17
100
AcDbEntity
  8
0
100
AcDbLine
 10
208.6554424632805
 20
1814.3216126794018
 30
0.0
 11
207.42016421961296
 21
1828.4409076129853
 31
0.0
  0
LINE
  5
76
330
17
100
AcDbEntity
  8
0
100
AcDbLine
 10
102.76073046140455
 20
1805.057025851895
 30
0.0
 11
101.52545221773697
 21
1819.1763207854785
 31
0.0
  0
LINE
  5
77
330
17
100
AcDbEntity
  8
0
100
AcDbLine
 10
208.6554424632805
 20
1814.3216126794018
 30
0.0
 11
312.19693864289496
 21
1823.3803197996308
 31
0.0
  0
LINE
  5
78
330
17
100
AcDbEntity
  8
0
100
AcDbLine
 10
481.27645585068706
 20
1923.5370674469787
 30
0.0
 11
884.8529693689583
 21
1958.8454372451442
 31
0.0
  0
LINE
  5
79
330
17
100
AcDbEntity
  8
0
100
AcDbLine
 10
1056.3403868147907
 20
-1.2647134261887913
 30
0.0
 11
999.0132670545722
 21
653.9872637997726
 31
0.0
  0
LINE
  5
7A
330
17
100
AcDbEntity
  8
0
100
AcDbLine
 10
898.3418201390296
 20
828.9498205632221
 30
0.0
 11
912.461115072611
 21
830.1850988068895
 31
0.0
  0
LINE
  5
7B
330
17
100
AcDbEntity
  8
0
100
AcDbLine
 10
911.724001112095
 20
675.9907921160664
 30
0.0
 11
925.8432960456765
 21
677.2260703597337
 31
0.0
  0
LINE
  5
7C
330
17
100
AcDbEntity
  8
0
100
AcDbLine
 10
912.461115072611
 20
830.1850988068895
 30
0.0
 11
925.8432960456765
 21
677.2260703597337
 31
0.0
  0
LINE
  5
7D
330
17
100
AcDbEntity
  8
0
100
AcDbLine
 10
1166.239866896859
 20
775.3229538474972
 30
0.0
 11
1095.6433922289402
 21
769.1465626291591
 31
0.0
  0
LINE
  5
7E
330
17
100
AcDbEntity
  8
0
100
AcDbLine
 10
1120.7362392190885
 20
748.0911639745389
 30
0.0
 11
1095.6433922289402
 21
769.1465626291591
 31
0.0
  0
LINE
  5
7F
330
17
100
AcDbEntity
  8
0
100
AcDbLine
 10
1116.6987908835624
 20
794.2394096192992
 30
0.0
 11
1095.6433922289402
 21
769.1465626291591
 31
0.0
  0
LINE
  5
80
330
17
100
AcDbEntity
  8
0
100
AcDbLine
 10
1086.3788054014335
 20
875.0412746310349
 30
0.0
 11
1104.9079790564474
 21
663.2518506272792
 31
0.0
  0
LINE
  5
81
330
17
100
AcDbEntity
  8
0
100
AcDbLine
 10
1121.677042735395
 20
878.129470240204
 30
0.0
 11
1140.2062163904088
 21
666.3400462364483
 31
0.0
  0
LINE
  5
82
330
17
100
AcDbEntity
  8
0
100
AcDbLine
 10
1156.975280069356
 20
881.2176658493731
 30
0.0
 11
1175.5044537243698
 21
669.4282418456174
 31
0.0
  0
LINE
  5
83
330
17
100
AcDbEntity
  8
0
100
AcDbLine
 10
980.4840933995583
 20
865.7766878035281
 30
0.0
 11
884.8529693689583
 21
1958.8454372451442
 31
0.0
  0
LINE
  5
84
330
17
100
AcDbEntity
  8
0
100
AcDbLine
 10
-1.9349745273190138
 20
1172.2643843552091
 30
0.0
 11
39.2463023623003
 21
1175.8672792325729
 31
0.0
  0
LINE
  5
85
330
17
100
AcDbEntity
  8
0
100
AcDbLine
 10
380.52873653075557
 20
1855.4420850628724
 30
0.0
 11
383.8228118472024
 21
1817.79063190665
 31
0.0
  0
LINE
  5
86
330
17
100
AcDbEntity
  8
0
100
AcDbLine
 10
985.7439121468692
 20
-7.4411046445270586
 30
0.0
 11
980.710238035246
 21
50.094053726382185
 31
0.0
  0
LINE
  5
87
330
17
100
AcDbEntity
  8
0
100
AcDbLine
 10
970.8280120859055
 20
163.04841319505044
 30
0.0
 11
954.6664550645869
 21
347.77585524278095
 31
0.0
  0
LINE
  5
88
330
17
100
AcDbEntity
  8
0
100
AcDbLine
 10
964.2243935547739
 20
170.76996930478185
 30
0.0
 11
964.9449725302469
 21
162.53371392685574
 31
0.0
  0
LINE
  5
89
330
17
100
AcDbEntity
  8
0
100
AcDbLine
 10
964.9449725302469
 20
162.53371392685574
 30
0.0
 11
970.8280120859055
 21
163.04841319505044
 31
0.0
  0
LINE
  5
8A
330
17
100
AcDbEntity
  8
0
100
AcDbLine
 10
970.8280120859055
 20
163.04841319505044
 30
0.0
 11
970.8280120859055
 21
163.04841319505044
 31
0.0
  0
LINE
  5
8B
330
17
100
AcDbEntity
  8
0
100
AcDbLine
 10
964.9449725302469
 20
162.53371392685574
 30
0.0
 11
974.8271984795874
 21
49.57935445818748
 31
0.0
  0
LINE
  5
8C
330
17
100
AcDbEntity
  8
0
100
AcDbLine
 10
974.8271984795874
 20
49.57935445818748
 30
0.0
 11
977.7687182574188
 21
49.836704092285004
 31
0.0
  0
LINE
  5
8D
330
17
100
AcDbEntity
  8
0
100
AcDbLine
 10
977.7687182574188
 20
49.836704092285004
 30
0.0
 11
967.8864923080782
 21
162.79106356095326
 31
0.0
  0
LINE
  5
8E
330
17
100
AcDbEntity
  8
0
100
AcDbLine
 10
967.8864923080782
 20
162.79106356095326
 30
0.0
 11
964.9449725302469
 21
162.53371392685574
 31
0.0
  0
LINE
  5
8F
330
17
100
AcDbEntity
  8
0
100
AcDbLine
 10
964.9449725302469
 20
162.53371392685574
 30
0.0
 11
964.9449725302469
 21
162.53371392685574
 31
0.0
  0
LINE
  5
90
330
17
100
AcDbEntity
  8
0
100
AcDbLine
 10
980.710238035246
 20
50.094053726382185
 30
0.0
 11
974.8271984795874
 21
49.57935445818748
 31
0.0
  0
LINE
  5
91
330
17
100
AcDbEntity
  8
0
100
AcDbLine
 10
974.8271984795874
 20
49.57935445818748
 30
0.0
 11
975.5477774550604
 21
41.34309908026137
 31
0.0
  0
LINE
  5
92
330
17
100
AcDbEntity
  8
0
100
AcDbLine
 10
981.430817010719
 20
41.85779834845607
 30
0.0
 11
981.430817010719
 21
41.85779834845607
 31
0.0
  0
LINE
  5
93
330
17
100
AcDbEntity
  8
0
100
AcDbLine
 10
938.9011895595875
 20
460.21551544325814
 30
0.0
 11
948.7834155089283
 21
347.26115597458625
 31
0.0
  0
LINE
  5
94
330
17
100
AcDbEntity
  8
0
100
AcDbLine
 10
948.7834155089283
 20
347.26115597458625
 30
0.0
 11
951.7249352867597
 21
347.51850560868377
 31
0.0
  0
LINE
  5
95
330
17
100
AcDbEntity
  8
0
100
AcDbLine
 10
951.7249352867597
 20
347.51850560868377
 30
0.0
 11
941.8427093374188
 21
460.47286507735566
 31
0.0
  0
LINE
  5
96
330
17
100
AcDbEntity
  8
0
100
AcDbLine
 10
941.8427093374188
 20
460.47286507735566
 30
0.0
 11
938.9011895595875
 21
460.21551544325814
 31
0.0
  0
LINE
  5
97
330
17
100
AcDbEntity
  8
0
100
AcDbLine
 10
938.9011895595875
 20
460.21551544325814
 30
0.0
 11
938.9011895595875
 21
460.21551544325814
 31
0.0
  0
LINE
  5
98
330
17
100
AcDbEntity
  8
0
100
AcDbLine
 10
944.784229115246
 20
460.73021471145285
 30
0.0
 11
925.8432960456765
 21
677.2260703597337
 31
0.0
  0
LINE
  5
99
330
17
100
AcDbEntity
  8
0
100
AcDbLine
 10
938.1806105841148
 20
468.45177082118084
 30
0.0
 11
938.9011895595875
 21
460.21551544325814
 31
0.0
  0
LINE
  5
9A
330
17
100
AcDbEntity
  8
0
100
AcDbLine
 10
938.9011895595875
 20
460.21551544325814
 30
0.0
 11
944.784229115246
 21
460.73021471145285
 31
0.0
  0
LINE
  5
9B
330
17
100
AcDbEntity
  8
0
100
AcDbLine
 10
944.784229115246
 20
460.73021471145285
 30
0.0
 11
944.784229115246
 21
460.73021471145285
 31
0.0
  0
LINE
  5
9C
330
17
100
AcDbEntity
  8
0
100
AcDbLine
 10
954.6664550645869
 20
347.77585524278095
 30
0.0
 11
948.7834155089283
 21
347.26115597458625
 31
0.0
  0
LINE
  5
9D
330
17
100
AcDbEntity
  8
0
100
AcDbLine
 10
948.7834155089283
 20
347.26115597458625
 30
0.0
 11
949.5039944844011
 21
339.0249005966624
 31
0.0
  0
LINE
  5
9E
330
17
100
AcDbEntity
  8
0
100
AcDbLine
 10
955.3870340400597
 20
339.5395998648571
 30
0.0
 11
955.3870340400597
 21
339.5395998648571
 31
0.0
  0
LINE
  5
9F
330
17
100
AcDbEntity
  8
0
100
AcDbLine
 10
912.461115072611
 20
830.1850988068895
 30
0.0
 11
993.8910361915558
 21
761.8572820291879
 31
0.0
  0
LINE
  5
A0
330
17
100
AcDbEntity
  8
0
100
AcDbLine
 10
925.8432960456765
 20
677.2260703597337
 30
0.0
 11
956.2112146135464
 21
713.417146412597
 31
0.0
  0
LINE
  5
A1
330
17
100
AcDbEntity
  8
0
100
AcDbLine
 10
310.9616603992274
 20
1837.4996147332145
 30
0.0
 11
452.1546097350641
 21
1849.85239716989
 31
0.0
  0
LINE
  5
A2
330
17
100
AcDbEntity
  8
0
100
AcDbLine
 10
452.1546097350641
 20
1849.85239716989
 30
0.0
 11
453.3898879787317
 21
1835.7331022363066
 31
0.0
  0
LINE
  5
A3
330
17
100
AcDbEntity
  8
0
100
AcDbLine
 10
453.3898879787317
 20
1835.7331022363066
 30
0.0
 11
312.19693864289496
 21
1823.3803197996308
 31
0.0
  0
LINE
  5
A4
330
17
100
AcDbEntity
  8
0
100
AcDbLine
 10
312.19693864289496
 20
1823.3803197996308
 30
0.0
 11
310.9616603992274
 21
1837.4996147332145
 31
0.0
  0
LINE
  5
A5
330
17
100
AcDbEntity
  8
0
100
AcDbLine
 10
310.9616603992274
 20
1837.4996147332145
 30
0.0
 11
310.9616603992274
 21
1837.4996147332145
 31
0.0
  0
LINE
  5
A6
330
17
100
AcDbEntity
  8
0
100
AcDbLine
 10
3.654713365662328
 20
1243.8902575595214
 30
0.0
 11
16.00749580233841
 21
1102.697308223682
 31
0.0
  0
LINE
  5
A7
330
17
100
AcDbEntity
  8
0
100
AcDbLine
 10
16.00749580233841
 20
1102.697308223682
 30
0.0
 11
33.656614469318214
 21
1104.2414060282665
 31
0.0
  0
LINE
  5
A8
330
17
100
AcDbEntity
  8
0
100
AcDbLine
 10
33.656614469318214
 20
1104.2414060282665
 30
0.0
 11
21.30383203264213
 21
1245.434355364106
 31
0.0
  0
LINE
  5
A9
330
17
100
AcDbEntity
  8
0
100
AcDbLine
 10
21.30383203264213
 20
1245.434355364106
 30
0.0
 11
3.654713365662328
 21
1243.8902575595214
 31
0.0
  0
LINE
  5
AA
330
17
100
AcDbEntity
  8
0
100
AcDbLine
 10
3.654713365662328
 20
1243.8902575595214
 30
0.0
 11
3.654713365662328
 21
1243.8902575595214
 31
0.0
  0
LINE
  5
AB
330
17
100
AcDbEntity
  8
0
100
AcDbLine
 10
955.988138176851
 20
170.04939032930918
 30
0.0
 11
970.1074331104325
 21
171.28466857297656
 31
0.0
  0
LINE
  5
AC
330
17
100
AcDbEntity
  8
0
100
AcDbLine
 10
970.1074331104325
 20
171.28466857297656
 30
0.0
 11
981.430817010719
 21
41.85779834845607
 31
0.0
  0
LINE
  5
AD
330
17
100
AcDbEntity
  8
0
100
AcDbLine
 10
981.430817010719
 20
41.85779834845607
 30
0.0
 11
967.3115220771375
 21
40.62252010478869
 31
0.0
  0
LINE
  5
AE
330
17
100
AcDbEntity
  8
0
100
AcDbLine
 10
967.3115220771375
 20
40.62252010478869
 30
0.0
 11
955.988138176851
 21
170.04939032930918
 31
0.0
  0
LINE
  5
AF
330
17
100
AcDbEntity
  8
0
100
AcDbLine
 10
955.988138176851
 20
170.04939032930918
 30
0.0
 11
955.988138176851
 21
170.04939032930918
 31
0.0
  0
LINE
  5
B0
330
17
100
AcDbEntity
  8
0
100
AcDbLine
 10
929.9443552061919
 20
467.73119184570817
 30
0.0
 11
944.0636501397734
 21
468.96647008937555
 31
0.0
  0
LINE
  5
B1
330
17
100
AcDbEntity
  8
0
100
AcDbLine
 10
944.0636501397734
 20
468.96647008937555
 30
0.0
 11
955.3870340400597
 21
339.5395998648571
 31
0.0
  0
LINE
  5
B2
330
17
100
AcDbEntity
  8
0
100
AcDbLine
 10
955.3870340400597
 20
339.5395998648571
 30
0.0
 11
941.2677391064782
 21
338.30432162118973
 31
0.0
  0
LINE
  5
B3
330
17
100
AcDbEntity
  8
0
100
AcDbLine
 10
941.2677391064782
 20
338.30432162118973
 30
0.0
 11
929.9443552061919
 21
467.73119184570817
 31
0.0
  0
LINE
  5
B4
330
17
100
AcDbEntity
  8
0
100
AcDbLine
 10
929.9443552061919
 20
467.73119184570817
 30
0.0
 11
929.9443552061919
 21
467.73119184570817
 31
0.0
  0
LINE
  5
B5
330
17
100
AcDbEntity
  8
0
100
AcDbLine
 10
928.4167923866507
 20
647.8108725814343
 30
0.0
 11
1175.5044537243698
 21
669.4282418456174
 31
0.0
  0
LINE
  5
B6
330
17
100
AcDbEntity
  8
0
100
AcDbLine
 10
1104.9079790564474
 20
663.2518506272792
 30
0.0
 11
1086.3788054014335
 21
875.0412746310349
 31
0.0
  0
LINE
  5
B7
330
17
100
AcDbEntity
  8
0
100
AcDbLine
 10
1156.975280069356
 20
881.2176658493731
 30
0.0
 11
909.8876187316368
 21
859.6002965851899
 31
0.0
  0
LINE
  5
B8
330
17
100
AcDbEntity
  8
0
100
AcDbLine
 10
97.7028103650636
 20
1937.4032810936924
 30
0.0
 11
115.35192903204113
 21
1938.9473788982764
 31
0.0
  0
LINE
  5
B9
330
17
100
AcDbEntity
  8
0
100
AcDbLine
 10
115.35192903204113
 20
1938.9473788982764
 30
0.0
 11
116.89602683662572
 21
1921.2982602312954
 31
0.0
  0
LINE
  5
BA
330
17
100
AcDbEntity
  8
0
100
AcDbLine
 10
116.89602683662572
 20
1921.2982602312954
 30
0.0
 11
99.2469081696482
 21
1919.7541624267114
 31
0.0
  0
LINE
  5
BB
330
17
100
AcDbEntity
  8
0
100
AcDbLine
 10
99.2469081696482
 20
1919.7541624267114
 30
0.0
 11
97.7028103650636
 21
1937.4032810936924
 31
0.0
  0
LINE
  5
BC
330
17
100
AcDbEntity
  8
0
100
AcDbLine
 10
97.7028103650636
 20
1937.4032810936924
 30
0.0
 11
97.7028103650636
 21
1937.4032810936924
 31
0.0
  0
LINE
  5
BD
330
17
100
AcDbEntity
  8
0
100
AcDbLine
 10
453.62670348248633
 20
1968.5425868194793
 30
0.0
 11
435.97758481551017
 21
1966.9984890148953
 31
0.0
  0
LINE
  5
BE
330
17
100
AcDbEntity
  8
0
100
AcDbLine
 10
435.97758481551017
 20
1966.9984890148953
 30
0.0
 11
437.52168262009474
 21
1949.3493703479144
 31
0.0
  0
LINE
  5
BF
330
17
100
AcDbEntity
  8
0
100
AcDbLine
 10
437.52168262009474
 20
1949.3493703479144
 30
0.0
 11
455.1708012870709
 21
1950.8934681524984
 31
0.0
  0
LINE
  5
C0
330
17
100
AcDbEntity
  8
0
100
AcDbLine
 10
455.1708012870709
 20
1950.8934681524984
 30
0.0
 11
453.62670348248633
 21
1968.5425868194793
 31
0.0
  0
LINE
  5
C1
330
17
100
AcDbEntity
  8
0
100
AcDbLine
 10
453.62670348248633
 20
1968.5425868194793
 30
0.0
 11
453.62670348248633
 21
1968.5425868194793
 31
0.0
  0
LINE
  5
C2
330
17
100
AcDbEntity
  8
0
100
AcDbLine
 10
102.76073046140455
 20
1805.057025851895
 30
0.0
 11
101.52545221773697
 21
1819.1763207854785
 31
0.0
  0
LINE
  5
C3
330
17
100
AcDbEntity
  8
0
100
AcDbLine
 10
101.52545221773697
 20
1819.1763207854785
 30
0.0
 11
207.42016421961296
 21
1828.4409076129853
 31
0.0
  0
LINE
  5
C4
330
17
100
AcDbEntity
  8
0
100
AcDbLine
 10
207.42016421961296
 20
1828.4409076129853
 30
0.0
 11
208.6554424632805
 21
1814.3216126794018
 31
0.0
  0
LINE
  5
C5
330
17
100
AcDbEntity
  8
0
100
AcDbLine
 10
208.6554424632805
 20
1814.3216126794018
 30
0.0
 11
102.76073046140455
 21
1805.057025851895
 31
0.0
  0
LINE
  5
C6
330
17
100
AcDbEntity
  8
0
100
AcDbLine
 10
102.76073046140455
 20
1805.057025851895
 30
0.0
 11
102.76073046140455
 21
1805.057025851895
 31
0.0
  0
LINE
  5
C7
330
17
100
AcDbEntity
  8
0
100
AcDbLine
 10
-84.33777684720421
 20
1945.189073038025
 30
0.0
 11
475.10006463234896
 21
1994.1335421148988
 31
0.0
  0
LINE
  5
C8
330
17
100
AcDbEntity
  8
0
100
AcDbLine
 10
475.10006463234896
 20
1994.1335421148988
 30
0.0
 11
487.45284706902527
 21
1852.9405927790572
 31
0.0
  0
LINE
  5
C9
330
17
100
AcDbEntity
  8
0
100
AcDbLine
 10
898.6773071491965
 20
581.1858497711396
 30
0.0
 11
919.8562495495732
 21
583.0387671366411
 31
0.0
  0
LINE
  5
CA
330
17
100
AcDbEntity
  8
0
100
AcDbLine
 10
919.8562495495732
 20
583.0387671366411
 30
0.0
 11
921.7091669150744
 21
561.8598247362679
 31
0.0
  0
LINE
  5
CB
330
17
100
AcDbEntity
  8
0
100
AcDbLine
 10
921.7091669150744
 20
561.8598247362679
 30
0.0
 11
900.5302245146977
 21
560.0069073707664
 31
0.0
  0
LINE
  5
CC
330
17
100
AcDbEntity
  8
0
100
AcDbLine
 10
900.5302245146977
 20
560.0069073707664
 30
0.0
 11
898.6773071491965
 21
581.1858497711396
 31
0.0
  0
LINE
  5
CD
330
17
100
AcDbEntity
  8
0
100
AcDbLine
 10
898.6773071491965
 20
581.1858497711396
 30
0.0
 11
898.6773071491965
 21
581.1858497711396
 31
0.0
  0
LINE
  5
CE
330
17
100
AcDbEntity
  8
0
100
AcDbLine
 10
379.79321833999177
 20
535.7893743163554
 30
0.0
 11
400.9721607403653
 21
537.6422916818567
 31
0.0
  0
LINE
  5
CF
330
17
100
AcDbEntity
  8
0
100
AcDbLine
 10
400.9721607403653
 20
537.6422916818567
 30
0.0
 11
402.8250781058665
 21
516.4633492814835
 31
0.0
  0
LINE
  5
D0
330
17
100
AcDbEntity
  8
0
100
AcDbLine
 10
402.8250781058665
 20
516.4633492814835
 30
0.0
 11
381.64613570549295
 21
514.6104319159822
 31
0.0
  0
LINE
  5
D1
330
17
100
AcDbEntity
  8
0
100
AcDbLine
 10
381.64613570549295
 20
514.6104319159822
 30
0.0
 11
379.79321833999177
 21
535.7893743163554
 31
0.0
  0
LINE
  5
D2
330
17
100
AcDbEntity
  8
0
100
AcDbLine
 10
379.79321833999177
 20
535.7893743163554
 30
0.0
 11
379.79321833999177
 21
535.7893743163554
 31
0.0
  0
LINE
  5
D3
330
17
100
AcDbEntity
  8
0
100
AcDbLine
 10
842.0603876477649
 20
1228.3202008937328
 30
0.0
 11
863.2393300481416
 21
1230.1731182592343
 31
0.0
  0
LINE
  5
D4
330
17
100
AcDbEntity
  8
0
100
AcDbLine
 10
863.2393300481416
 20
1230.1731182592343
 30
0.0
 11
865.092247413643
 21
1208.9941758588573
 31
0.0
  0
LINE
  5
D5
330
17
100
AcDbEntity
  8
0
100
AcDbLine
 10
865.092247413643
 20
1208.9941758588573
 30
0.0
 11
843.9133050132663
 21
1207.1412584933557
 31
0.0
  0
LINE
  5
D6
330
17
100
AcDbEntity
  8
0
100
AcDbLine
 10
843.9133050132663
 20
1207.1412584933557
 30
0.0
 11
842.0603876477649
 21
1228.3202008937328
 31
0.0
  0
LINE
  5
D7
330
17
100
AcDbEntity
  8
0
100
AcDbLine
 10
842.0603876477649
 20
1228.3202008937328
 30
0.0
 11
842.0603876477649
 21
1228.3202008937328
 31
0.0
  0
LINE
  5
D8
330
17
100
AcDbEntity
  8
0
100
AcDbLine
 10
786.3699268290842
 20
1864.8650808161342
 30
0.0
 11
807.5488692294609
 21
1866.7179981816357
 31
0.0
  0
LINE
  5
D9
330
17
100
AcDbEntity
  8
0
100
AcDbLine
 10
807.5488692294609
 20
1866.7179981816357
 30
0.0
 11
809.4017865949621
 21
1845.5390557812616
 31
0.0
  0
LINE
  5
DA
330
17
100
AcDbEntity
  8
0
100
AcDbLine
 10
809.4017865949621
 20
1845.5390557812616
 30
0.0
 11
788.2228441945854
 21
1843.68613841576
 31
0.0
  0
LINE
  5
DB
330
17
100
AcDbEntity
  8
0
100
AcDbLine
 10
788.2228441945854
 20
1843.68613841576
 30
0.0
 11
786.3699268290842
 21
1864.8650808161342
 31
0.0
  0
LINE
  5
DC
330
17
100
AcDbEntity
  8
0
100
AcDbLine
 10
786.3699268290842
 20
1864.8650808161342
 30
0.0
 11
786.3699268290842
 21
1864.8650808161342
 31
0.0
  0
LINE
  5
DD
330
17
100
AcDbEntity
  8
0
100
AcDbLine
 10
323.17629883856006
 20
1182.9237254389486
 30
0.0
 11
344.3552412389336
 21
1184.77664280445
 31
0.0
  0
LINE
  5
DE
330
17
100
AcDbEntity
  8
0
100
AcDbLine
 10
344.3552412389336
 20
1184.77664280445
 30
0.0
 11
346.20815860443514
 21
1163.5977004040728
 31
0.0
  0
LINE
  5
DF
330
17
100
AcDbEntity
  8
0
100
AcDbLine
 10
346.20815860443514
 20
1163.5977004040728
 30
0.0
 11
325.0292162040616
 21
1161.7447830385715
 31
0.0
  0
LINE
  5
E0
330
17
100
AcDbEntity
  8
0
100
AcDbLine
 10
325.0292162040616
 20
1161.7447830385715
 30
0.0
 11
323.17629883856006
 21
1182.9237254389486
 31
0.0
  0
LINE
  5
E1
330
17
100
AcDbEntity
  8
0
100
AcDbLine
 10
323.17629883856006
 20
1182.9237254389486
 30
0.0
 11
323.17629883856006
 21
1182.9237254389486
 31
0.0
  0
LINE
  5
E2
330
17
100
AcDbEntity
  8
0
100
AcDbLine
 10
267.4858380198794
 20
1819.46860536135
 30
0.0
 11
288.66478042025295
 21
1821.3215227268513
 31
0.0
  0
LINE
  5
E3
330
17
100
AcDbEntity
  8
0
100
AcDbLine
 10
288.66478042025295
 20
1821.3215227268513
 30
0.0
 11
290.51769778575425
 21
1800.142580326477
 31
0.0
  0
LINE
  5
E4
330
17
100
AcDbEntity
  8
0
100
AcDbLine
 10
290.51769778575425
 20
1800.142580326477
 30
0.0
 11
269.3387553853807
 21
1798.2896629609759
 31
0.0
  0
LINE
  5
E5
330
17
100
AcDbEntity
  8
0
100
AcDbLine
 10
269.3387553853807
 20
1798.2896629609759
 30
0.0
 11
267.4858380198794
 21
1819.46860536135
 31
0.0
  0
LINE
  5
E6
330
17
100
AcDbEntity
  8
0
100
AcDbLine
 10
267.4858380198794
 20
1819.46860536135
 30
0.0
 11
267.4858380198794
 21
1819.46860536135
 31
0.0
  0
LINE
  5
E7
330
17
100
AcDbEntity
  8
0
100
AcDbLine
 10
199.18390884169048
 20
1827.7203286375127
 30
0.0
 11
310.9616603992274
 21
1837.4996147332145
 31
0.0
  0
LINE
  5
E8
330
17
100
AcDbEntity
  8
0
100
AcDbLine
 10
207.93486348780763
 20
1822.557868057327
 30
0.0
 11
199.69860810988516
 21
1821.8372890818544
 31
0.0
  0
LINE
  5
E9
330
17
100
AcDbEntity
  8
0
100
AcDbLine
 10
199.69860810988516
 20
1821.8372890818544
 30
0.0
 11
199.18390884169048
 21
1827.7203286375127
 31
0.0
  0
LINE
  5
EA
330
17
100
AcDbEntity
  8
0
100
AcDbLine
 10
199.18390884169048
 20
1827.7203286375127
 30
0.0
 11
199.18390884169048
 21
1827.7203286375127
 31
0.0
  0
LINE
  5
EB
330
17
100
AcDbEntity
  8
0
100
AcDbLine
 10
199.44125847578775
 20
1824.7788088596844
 30
0.0
 11
110.01905722975445
 21
1816.9553799831226
 31
0.0
  0
LINE
  5
EC
330
17
100
AcDbEntity
  8
0
100
AcDbLine
 10
110.01905722975445
 20
1816.9553799831226
 30
0.0
 11
110.27640686385186
 21
1814.0138602052925
 31
0.0
  0
LINE
  5
ED
330
17
100
AcDbEntity
  8
0
100
AcDbLine
 10
110.27640686385186
 20
1814.0138602052925
 30
0.0
 11
199.69860810988516
 21
1821.8372890818544
 31
0.0
  0
LINE
  5
EE
330
17
100
AcDbEntity
  8
0
100
AcDbLine
 10
199.69860810988516
 20
1821.8372890818544
 30
0.0
 11
199.44125847578775
 21
1824.7788088596844
 31
0.0
  0
LINE
  5
EF
330
17
100
AcDbEntity
  8
0
100
AcDbLine
 10
199.44125847578775
 20
1824.7788088596844
 30
0.0
 11
199.44125847578775
 21
1824.7788088596844
 31
0.0
  0
LINE
  5
F0
330
17
100
AcDbEntity
  8
0
100
AcDbLine
 10
109.76170759565717
 20
1819.8968997609509
 30
0.0
 11
110.27640686385186
 21
1814.0138602052925
 31
0.0
  0
LINE
  5
F1
330
17
100
AcDbEntity
  8
0
100
AcDbLine
 10
110.27640686385186
 20
1814.0138602052925
 30
0.0
 11
102.04015148592916
 21
1813.29328122982
 31
0.0
  0
LINE
  5
F2
330
17
100
AcDbEntity
  8
0
100
AcDbLine
 10
101.52545221773447
 20
1819.1763207854783
 30
0.0
 11
101.52545221773447
 21
1819.1763207854783
 31
0.0
  0
LINE
  5
F3
330
17
100
AcDbEntity
  8
0
100
AcDbLine
 10
247.14795455916033
 20
1319.7313989512534
 30
0.0
 11
247.08239224073637
 21
1320.2545738317235
 31
0.0
  0
LINE
  5
F4
330
17
100
AcDbEntity
  8
0
100
AcDbLine
 10
247.08239224073637
 20
1320.2545738317235
 30
0.0
 11
246.97791634007177
 21
1320.7713863309248
 31
0.0
  0
LINE
  5
F5
330
17
100
AcDbEntity
  8
0
100
AcDbLine
 10
246.97791634007177
 20
1320.7713863309248
 30
0.0
 11
246.83511112878398
 21
1321.2789462237245
 31
0.0
  0
LINE
  5
F6
330
17
100
AcDbEntity
  8
0
100
AcDbLine
 10
246.83511112878398
 20
1321.2789462237245
 30
0.0
 11
246.65477523154027
 21
1321.7744150293167
 31
0.0
  0
LINE
  5
F7
330
17
100
AcDbEntity
  8
0
100
AcDbLine
 10
246.65477523154027
 20
1321.7744150293167
 30
0.0
 11
246.43791715983096
 21
1322.2550218851616
 31
0.0
  0
LINE
  5
F8
330
17
100
AcDbEntity
  8
0
100
AcDbLine
 10
246.43791715983096
 20
1322.2550218851616
 30
0.0
 11
246.18574967195613
 21
1322.7180790427674
 31
0.0
  0
LINE
  5
F9
330
17
100
AcDbEntity
  8
0
100
AcDbLine
 10
246.18574967195613
 20
1322.7180790427674
 30
0.0
 11
245.89968299079823
 21
1323.160996898675
 31
0.0
  0
LINE
  5
FA
330
17
100
AcDbEntity
  8
0
100
AcDbLine
 10
245.89968299079823
 20
1323.160996898675
 30
0.0
 11
245.58131691727772
 21
1323.581298476571
 31
0.0
  0
LINE
  5
FB
330
17
100
AcDbEntity
  8
0
100
AcDbLine
 10
245.58131691727772
 20
1323.581298476571
 30
0.0
 11
245.23243188361783
 21
1323.976633279541
 31
0.0
  0
LINE
  5
FC
330
17
100
AcDbEntity
  8
0
100
AcDbLine
 10
245.23243188361783
 20
1323.976633279541
 30
0.0
 11
244.85497899645117
 21
1324.3447904350037
 31
0.0
  0
LINE
  5
FD
330
17
100
AcDbEntity
  8
0
100
AcDbLine
 10
244.85497899645117
 20
1324.3447904350037
 30
0.0
 11
244.451069125427
 21
1324.6837110588087
 31
0.0
  0
LINE
  5
FE
330
17
100
AcDbEntity
  8
0
100
AcDbLine
 10
244.451069125427
 20
1324.6837110588087
 30
0.0
 11
244.02296109838807
 21
1324.991499769348
 31
0.0
  0
LINE
  5
FF
330
17
100
AcDbEntity
  8
0
100
AcDbLine
 10
244.02296109838807
 20
1324.991499769348
 30
0.0
 11
243.57304906907694
 21
1325.2664352873016
 31
0.0
  0
LINE
  5
100
330
17
100
AcDbEntity
  8
0
100
AcDbLine
 10
243.57304906907694
 20
1325.2664352873016
 30
0.0
 11
243.1038491280652
 21
1325.5069800617284
 31
0.0
  0
LINE
  5
101
330
17
100
AcDbEntity
  8
0
100
AcDbLine
 10
243.1038491280652
 20
1325.5069800617284
 30
0.0
 11
242.61798523174417
 21
1325.7117888686757
 31
0.0
  0
LINE
  5
102
330
17
100
AcDbEntity
  8
0
100
AcDbLine
 10
242.61798523174417
 20
1325.7117888686757
 30
0.0
 11
242.11817452811079
 21
1325.8797163342188
 31
0.0
  0
LINE
  5
103
330
17
100
AcDbEntity
  8
0
100
AcDbLine
 10
242.11817452811079
 20
1325.8797163342188
 30
0.0
 11
241.60721216135974
 21
1326.009823339851
 31
0.0
  0
LINE
  5
104
330
17
100
AcDbEntity
  8
0
100
AcDbLine
 10
241.60721216135974
 20
1326.009823339851
 30
0.0
 11
241.08795564031067
 21
1326.1013822744203
 31
0.0
  0
LINE
  5
105
330
17
100
AcDbEntity
  8
0
100
AcDbLine
 10
241.08795564031067
 20
1326.1013822744203
 30
0.0
 11
240.5633088580622
 21
1326.153881103226
 31
0.0
  0
LINE
  5
106
330
17
100
AcDbEntity
  8
0
100
AcDbLine
 10
240.5633088580622
 20
1326.153881103226
 30
0.0
 11
240.0362058522347
 21
1326.1670262315201
 31
0.0
  0
LINE
  5
107
330
17
100
AcDbEntity
  8
0
100
AcDbLine
 10
240.0362058522347
 20
1326.1670262315201
 30
0.0
 11
239.5095943966497
 21
1326.140744146417
 31
0.0
  0
LINE
  5
108
330
17
100
AcDbEntity
  8
0
100
AcDbLine
 10
239.5095943966497
 20
1326.140744146417
 30
0.0
 11
238.98641951618114
 21
1326.075181827991
 31
0.0
  0
LINE
  5
109
330
17
100
AcDbEntity
  8
0
100
AcDbLine
 10
238.98641951618114
 20
1326.075181827991
 30
0.0
 11
238.46960701697876
 21
1325.9707059273278
 31
0.0
  0
LINE
  5
10A
330
17
100
AcDbEntity
  8
0
100
AcDbLine
 10
238.46960701697876
 20
1325.9707059273278
 30
0.0
 11
237.96204712417915
 21
1325.82790071604
 31
0.0
  0
LINE
  5
10B
330
17
100
AcDbEntity
  8
0
100
AcDbLine
 10
237.96204712417915
 20
1325.82790071604
 30
0.0
 11
237.46657831858514
 21
1325.6475648187964
 31
0.0
  0
LINE
  5
10C
330
17
100
AcDbEntity
  8
0
100
AcDbLine
 10
237.46657831858514
 20
1325.6475648187964
 30
0.0
 11
236.98597146274176
 21
1325.4307067470859
 31
0.0
  0
LINE
  5
10D
330
17
100
AcDbEntity
  8
0
100
AcDbLine
 10
236.98597146274176
 20
1325.4307067470859
 30
0.0
 11
236.522914305136
 21
1325.178539259211
 31
0.0
  0
LINE
  5
10E
330
17
100
AcDbEntity
  8
0
100
AcDbLine
 10
236.522914305136
 20
1325.178539259211
 30
0.0
 11
236.07999644922822
 21
1324.892472578054
 31
0.0
  0
LINE
  5
10F
330
17
100
AcDbEntity
  8
0
100
AcDbLine
 10
236.07999644922822
 20
1324.892472578054
 30
0.0
 11
235.65969487133356
 21
1324.5741065045336
 31
0.0
  0
LINE
  5
110
330
17
100
AcDbEntity
  8
0
100
AcDbLine
 10
235.65969487133356
 20
1324.5741065045336
 30
0.0
 11
235.26436006836224
 21
1324.2252214708742
 31
0.0
  0
LINE
  5
111
330
17
100
AcDbEntity
  8
0
100
AcDbLine
 10
235.26436006836224
 20
1324.2252214708742
 30
0.0
 11
234.89620291289907
 21
1323.8477685837058
 31
0.0
  0
LINE
  5
112
330
17
100
AcDbEntity
  8
0
100
AcDbLine
 10
234.89620291289907
 20
1323.8477685837058
 30
0.0
 11
234.55728228909476
 21
1323.4438587126817
 31
0.0
  0
LINE
  5
113
330
17
100
AcDbEntity
  8
0
100
AcDbLine
 10
234.55728228909476
 20
1323.4438587126817
 30
0.0
 11
234.2494935785558
 21
1323.0157506856433
 31
0.0
  0
LINE
  5
114
330
17
100
AcDbEntity
  8
0
100
AcDbLine
 10
234.2494935785558
 20
1323.0157506856433
 30
0.0
 11
233.97455806060316
 21
1322.5658386563327
 31
0.0
  0
LINE
  5
115
330
17
100
AcDbEntity
  8
0
100
AcDbLine
 10
233.97455806060316
 20
1322.5658386563327
 30
0.0
 11
233.73401328617496
 21
1322.0966387153196
 31
0.0
  0
LINE
  5
116
330
17
100
AcDbEntity
  8
0
100
AcDbLine
 10
233.73401328617496
 20
1322.0966387153196
 30
0.0
 11
233.52920447922665
 21
1321.6107748190002
 31
0.0
  0
LINE
  5
117
330
17
100
AcDbEntity
  8
0
100
AcDbLine
 10
233.52920447922665
 20
1321.6107748190002
 30
0.0
 11
233.3612770136846
 21
1321.1109641153657
 31
0.0
  0
LINE
  5
118
330
17
100
AcDbEntity
  8
0
100
AcDbLine
 10
233.3612770136846
 20
1321.1109641153657
 30
0.0
 11
233.2311700080528
 21
1320.6000017486142
 31
0.0
  0
LINE
  5
119
330
17
100
AcDbEntity
  8
0
100
AcDbLine
 10
233.2311700080528
 20
1320.6000017486142
 30
0.0
 11
233.13961107348268
 21
1320.080745227567
 31
0.0
  0
LINE
  5
11A
330
17
100
AcDbEntity
  8
0
100
AcDbLine
 10
233.13961107348268
 20
1320.080745227567
 30
0.0
 11
233.08711224467737
 21
1319.5560984453182
 31
0.0
  0
LINE
  5
11B
330
17
100
AcDbEntity
  8
0
100
AcDbLine
 10
233.08711224467737
 20
1319.5560984453182
 30
0.0
 11
233.07396711638174
 21
1319.0289954394907
 31
0.0
  0
LINE
  5
11C
330
17
100
AcDbEntity
  8
0
100
AcDbLine
 10
233.07396711638174
 20
1319.0289954394907
 30
0.0
 11
233.10024920148715
 21
1318.5023839839046
 31
0.0
  0
LINE
  5
11D
330
17
100
AcDbEntity
  8
0
100
AcDbLine
 10
233.10024920148715
 20
1318.5023839839046
 30
0.0
 11
233.16581151991085
 21
1317.9792091034371
 31
0.0
  0
LINE
  5
11E
330
17
100
AcDbEntity
  8
0
100
AcDbLine
 10
233.16581151991085
 20
1317.9792091034371
 30
0.0
 11
233.27028742057556
 21
1317.4623966042345
 31
0.0
  0
LINE
  5
11F
330
17
100
AcDbEntity
  8
0
100
AcDbLine
 10
233.27028742057556
 20
1317.4623966042345
 30
0.0
 11
233.41309263186335
 21
1316.9548367114348
 31
0.0
  0
LINE
  5
120
330
17
100
AcDbEntity
  8
0
100
AcDbLine
 10
233.41309263186335
 20
1316.9548367114348
 30
0.0
 11
233.5934285291072
 21
1316.4593679058412
 31
0.0
  0
LINE
  5
121
330
17
100
AcDbEntity
  8
0
100
AcDbLine
 10
233.5934285291072
 20
1316.4593679058412
 30
0.0
 11
233.81028660081728
 21
1315.9787610499982
 31
0.0
  0
LINE
  5
122
330
17
100
AcDbEntity
  8
0
100
AcDbLine
 10
233.81028660081728
 20
1315.9787610499982
 30
0.0
 11
234.06245408869145
 21
1315.5157038923903
 31
0.0
  0
LINE
  5
123
330
17
100
AcDbEntity
  8
0
100
AcDbLine
 10
234.06245408869145
 20
1315.5157038923903
 30
0.0
 11
234.34852076984933
 21
1315.0727860364832
 31
0.0
  0
LINE
  5
124
330
17
100
AcDbEntity
  8
0
100
AcDbLine
 10
234.34852076984933
 20
1315.0727860364832
 30
0.0
 11
234.6668868433712
 21
1314.6524844585872
 31
0.0
  0
LINE
  5
125
330
17
100
AcDbEntity
  8
0
100
AcDbLine
 10
234.6668868433712
 20
1314.6524844585872
 30
0.0
 11
235.0157718770295
 21
1314.2571496556182
 31
0.0
  0
LINE
  5
126
330
17
100
AcDbEntity
  8
0
100
AcDbLine
 10
235.0157718770295
 20
1314.2571496556182
 30
0.0
 11
235.39322476419773
 21
1313.888992500155
 31
0.0
  0
LINE
  5
127
330
17
100
AcDbEntity
  8
0
100
AcDbLine
 10
235.39322476419773
 20
1313.888992500155
 30
0.0
 11
235.79713463522097
 21
1313.5500718763496
 31
0.0
  0
LINE
  5
128
330
17
100
AcDbEntity
  8
0
100
AcDbLine
 10
235.79713463522097
 20
1313.5500718763496
 30
0.0
 11
236.22524266225994
 21
1313.2422831658102
 31
0.0
  0
LINE
  5
129
330
17
100
AcDbEntity
  8
0
100
AcDbLine
 10
236.22524266225994
 20
1313.2422831658102
 30
0.0
 11
236.6751546915717
 21
1312.967347647859
 31
0.0
  0
LINE
  5
12A
330
17
100
AcDbEntity
  8
0
100
AcDbLine
 10
236.6751546915717
 20
1312.967347647859
 30
0.0
 11
237.1443546325835
 21
1312.726802873431
 31
0.0
  0
LINE
  5
12B
330
17
100
AcDbEntity
  8
0
100
AcDbLine
 10
237.1443546325835
 20
1312.726802873431
 30
0.0
 11
237.63021852890327
 21
1312.5219940664824
 31
0.0
  0
LINE
  5
12C
330
17
100
AcDbEntity
  8
0
100
AcDbLine
 10
237.63021852890327
 20
1312.5219940664824
 30
0.0
 11
238.13002923253745
 21
1312.3540666009408
 31
0.0
  0
LINE
  5
12D
330
17
100
AcDbEntity
  8
0
100
AcDbLine
 10
238.13002923253745
 20
1312.3540666009408
 30
0.0
 11
238.6409915992877
 21
1312.2239595953083
 31
0.0
  0
LINE
  5
12E
330
17
100
AcDbEntity
  8
0
100
AcDbLine
 10
238.6409915992877
 20
1312.2239595953083
 30
0.0
 11
239.16024812033675
 21
1312.1324006607379
 31
0.0
  0
LINE
  5
12F
330
17
100
AcDbEntity
  8
0
100
AcDbLine
 10
239.16024812033675
 20
1312.1324006607379
 30
0.0
 11
239.68489490258526
 21
1312.0799018319333
 31
0.0
  0
LINE
  5
130
330
17
100
AcDbEntity
  8
0
100
AcDbLine
 10
239.68489490258526
 20
1312.0799018319333
 30
0.0
 11
240.21199790841376
 21
1312.066756703638
 31
0.0
  0
LINE
  5
131
330
17
100
AcDbEntity
  8
0
100
AcDbLine
 10
240.21199790841376
 20
1312.066756703638
 30
0.0
 11
240.73860936399853
 21
1312.0930387887433
 31
0.0
  0
LINE
  5
132
330
17
100
AcDbEntity
  8
0
100
AcDbLine
 10
240.73860936399853
 20
1312.0930387887433
 30
0.0
 11
241.26178424446732
 21
1312.1586011071672
 31
0.0
  0
LINE
  5
133
330
17
100
AcDbEntity
  8
0
100
AcDbLine
 10
241.26178424446732
 20
1312.1586011071672
 30
0.0
 11
241.7785967436687
 21
1312.2630770078315
 31
0.0
  0
LINE
  5
134
330
17
100
AcDbEntity
  8
0
100
AcDbLine
 10
241.7785967436687
 20
1312.2630770078315
 30
0.0
 11
242.28615663646826
 21
1312.4058822191184
 31
0.0
  0
LINE
  5
135
330
17
100
AcDbEntity
  8
0
100
AcDbLine
 10
242.28615663646826
 20
1312.4058822191184
 30
0.0
 11
242.7816254420623
 21
1312.586218116363
 31
0.0
  0
LINE
  5
136
330
17
100
AcDbEntity
  8
0
100
AcDbLine
 10
242.7816254420623
 20
1312.586218116363
 30
0.0
 11
243.26223229790648
 21
1312.8030761880736
 31
0.0
  0
LINE
  5
137
330
17
100
AcDbEntity
  8
0
100
AcDbLine
 10
243.26223229790648
 20
1312.8030761880736
 30
0.0
 11
243.72528945551144
 21
1313.0552436759472
 31
0.0
  0
LINE
  5
138
330
17
100
AcDbEntity
  8
0
100
AcDbLine
 10
243.72528945551144
 20
1313.0552436759472
 30
0.0
 11
244.16820731142047
 21
1313.3413103571056
 31
0.0
  0
LINE
  5
139
330
17
100
AcDbEntity
  8
0
100
AcDbLine
 10
244.16820731142047
 20
1313.3413103571056
 30
0.0
 11
244.58850888931508
 21
1313.6596764306269
 31
0.0
  0
LINE
  5
13A
330
17
100
AcDbEntity
  8
0
100
AcDbLine
 10
244.58850888931508
 20
1313.6596764306269
 30
0.0
 11
244.98384369228577
 21
1314.008561464284
 31
0.0
  0
LINE
  5
13B
330
17
100
AcDbEntity
  8
0
100
AcDbLine
 10
244.98384369228577
 20
1314.008561464284
 30
0.0
 11
245.3520008477489
 21
1314.3860143514526
 31
0.0
  0
LINE
  5
13C
330
17
100
AcDbEntity
  8
0
100
AcDbLine
 10
245.3520008477489
 20
1314.3860143514526
 30
0.0
 11
245.69092147155413
 21
1314.7899242224767
 31
0.0
  0
LINE
  5
13D
330
17
100
AcDbEntity
  8
0
100
AcDbLine
 10
245.69092147155413
 20
1314.7899242224767
 30
0.0
 11
245.99871018209151
 21
1315.2180322495158
 31
0.0
  0
LINE
  5
13E
330
17
100
AcDbEntity
  8
0
100
AcDbLine
 10
245.99871018209151
 20
1315.2180322495158
 30
0.0
 11
246.27364570004576
 21
1315.6679442788254
 31
0.0
  0
LINE
  5
13F
330
17
100
AcDbEntity
  8
0
100
AcDbLine
 10
246.27364570004576
 20
1315.6679442788254
 30
0.0
 11
246.5141904744726
 21
1316.1371442198383
 31
0.0
  0
LINE
  5
140
330
17
100
AcDbEntity
  8
0
100
AcDbLine
 10
246.5141904744726
 20
1316.1371442198383
 30
0.0
 11
246.71899928142093
 21
1316.6230081161577
 31
0.0
  0
LINE
  5
141
330
17
100
AcDbEntity
  8
0
100
AcDbLine
 10
246.71899928142093
 20
1316.6230081161577
 30
0.0
 11
246.88692674696364
 21
1317.1228188197938
 31
0.0
  0
LINE
  5
142
330
17
100
AcDbEntity
  8
0
100
AcDbLine
 10
246.88692674696364
 20
1317.1228188197938
 30
0.0
 11
247.01703375259467
 21
1317.6337811865437
 31
0.0
  0
LINE
  5
143
330
17
100
AcDbEntity
  8
0
100
AcDbLine
 10
247.01703375259467
 20
1317.6337811865437
 30
0.0
 11
247.10859268716464
 21
1318.1530377075924
 31
0.0
  0
LINE
  5
144
330
17
100
AcDbEntity
  8
0
100
AcDbLine
 10
247.10859268716464
 20
1318.1530377075924
 30
0.0
 11
247.16109151596996
 21
1318.677684489841
 31
0.0
  0
LINE
  5
145
330
17
100
AcDbEntity
  8
0
100
AcDbLine
 10
247.16109151596996
 20
1318.677684489841
 30
0.0
 11
247.17423664426548
 21
1319.20478749567
 31
0.0
  0
LINE
  5
146
330
17
100
AcDbEntity
  8
0
100
AcDbLine
 10
247.17423664426548
 20
1319.20478749567
 30
0.0
 11
247.14795455916033
 21
1319.7313989512534
 31
0.0
  0
LINE
  5
147
330
17
100
AcDbEntity
  8
0
100
AcDbLine
 10
63.30697002031472
 20
1659.331591317783
 30
0.0
 11
63.24140770189103
 21
1659.8547661982516
 31
0.0
  0
LINE
  5
148
330
17
100
AcDbEntity
  8
0
100
AcDbLine
 10
63.24140770189103
 20
1659.8547661982516
 30
0.0
 11
63.13693180122679
 21
1660.371578697454
 31
0.0
  0
LINE
  5
149
330
17
100
AcDbEntity
  8
0
100
AcDbLine
 10
63.13693180122679
 20
1660.371578697454
 30
0.0
 11
62.99412658993874
 21
1660.879138590254
 31
0.0
  0
LINE
  5
14A
330
17
100
AcDbEntity
  8
0
100
AcDbLine
 10
62.99412658993874
 20
1660.879138590254
 30
0.0
 11
62.813790692695235
 21
1661.3746073958464
 31
0.0
  0
LINE
  5
14B
330
17
100
AcDbEntity
  8
0
100
AcDbLine
 10
62.813790692695235
 20
1661.3746073958464
 30
0.0
 11
62.59693262098597
 21
1661.855214251691
 31
0.0
  0
LINE
  5
14C
330
17
100
AcDbEntity
  8
0
100
AcDbLine
 10
62.59693262098597
 20
1661.855214251691
 30
0.0
 11
62.34476513311056
 21
1662.3182714092968
 31
0.0
  0
LINE
  5
14D
330
17
100
AcDbEntity
  8
0
100
AcDbLine
 10
62.34476513311056
 20
1662.3182714092968
 30
0.0
 11
62.05869845195354
 21
1662.7611892652046
 31
0.0
  0
LINE
  5
14E
330
17
100
AcDbEntity
  8
0
100
AcDbLine
 10
62.05869845195354
 20
1662.7611892652046
 30
0.0
 11
61.74033237843239
 21
1663.1814908431004
 31
0.0
  0
LINE
  5
14F
330
17
100
AcDbEntity
  8
0
100
AcDbLine
 10
61.74033237843239
 20
1663.1814908431004
 30
0.0
 11
61.39144734477282
 21
1663.5768256460706
 31
0.0
  0
LINE
  5
150
330
17
100
AcDbEntity
  8
0
100
AcDbLine
 10
61.39144734477282
 20
1663.5768256460706
 30
0.0
 11
61.01399445760535
 21
1663.9449828015331
 31
0.0
  0
LINE
  5
151
330
17
100
AcDbEntity
  8
0
100
AcDbLine
 10
61.01399445760535
 20
1663.9449828015331
 30
0.0
 11
60.61008458658122
 21
1664.2839034253382
 31
0.0
  0
LINE
  5
152
330
17
100
AcDbEntity
  8
0
100
AcDbLine
 10
60.61008458658122
 20
1664.2839034253382
 30
0.0
 11
60.18197655954227
 21
1664.591692135877
 31
0.0
  0
LINE
  5
153
330
17
100
AcDbEntity
  8
0
100
AcDbLine
 10
60.18197655954227
 20
1664.591692135877
 30
0.0
 11
59.73206453023136
 21
1664.8666276538308
 31
0.0
  0
LINE
  5
154
330
17
100
AcDbEntity
  8
0
100
AcDbLine
 10
59.73206453023136
 20
1664.8666276538308
 30
0.0
 11
59.26286458921861
 21
1665.1071724282579
 31
0.0
  0
LINE
  5
155
330
17
100
AcDbEntity
  8
0
100
AcDbLine
 10
59.26286458921861
 20
1665.1071724282579
 30
0.0
 11
58.77700069289894
 21
1665.3119812352052
 31
0.0
  0
LINE
  5
156
330
17
100
AcDbEntity
  8
0
100
AcDbLine
 10
58.77700069289894
 20
1665.3119812352052
 30
0.0
 11
58.27718998926579
 21
1665.4799087007482
 31
0.0
  0
LINE
  5
157
330
17
100
AcDbEntity
  8
0
100
AcDbLine
 10
58.27718998926579
 20
1665.4799087007482
 30
0.0
 11
57.76622762251439
 21
1665.6100157063802
 31
0.0
  0
LINE
  5
158
330
17
100
AcDbEntity
  8
0
100
AcDbLine
 10
57.76622762251439
 20
1665.6100157063802
 30
0.0
 11
57.24697110146566
 21
1665.7015746409502
 31
0.0
  0
LINE
  5
159
330
17
100
AcDbEntity
  8
0
100
AcDbLine
 10
57.24697110146566
 20
1665.7015746409502
 30
0.0
 11
56.72232431921683
 21
1665.7540734697554
 31
0.0
  0
LINE
  5
15A
330
17
100
AcDbEntity
  8
0
100
AcDbLine
 10
56.72232431921683
 20
1665.7540734697554
 30
0.0
 11
56.195221313389595
 21
1665.7672185980496
 31
0.0
  0
LINE
  5
15B
330
17
100
AcDbEntity
  8
0
100
AcDbLine
 10
56.195221313389595
 20
1665.7672185980496
 30
0.0
 11
55.66860985780446
 21
1665.7409365129456
 31
0.0
  0
LINE
  5
15C
330
17
100
AcDbEntity
  8
0
100
AcDbLine
 10
55.66860985780446
 20
1665.7409365129456
 30
0.0
 11
55.14543497733604
 21
1665.6753741945204
 31
0.0
  0
LINE
  5
15D
330
17
100
AcDbEntity
  8
0
100
AcDbLine
 10
55.14543497733604
 20
1665.6753741945204
 30
0.0
 11
54.6286224781334
 21
1665.5708982938575
 31
0.0
  0
LINE
  5
15E
330
17
100
AcDbEntity
  8
0
100
AcDbLine
 10
54.6286224781334
 20
1665.5708982938575
 30
0.0
 11
54.12106258533369
 21
1665.4280930825694
 31
0.0
  0
LINE
  5
15F
330
17
100
AcDbEntity
  8
0
100
AcDbLine
 10
54.12106258533369
 20
1665.4280930825694
 30
0.0
 11
53.625593779740015
 21
1665.2477571853258
 31
0.0
  0
LINE
  5
160
330
17
100
AcDbEntity
  8
0
100
AcDbLine
 10
53.625593779740015
 20
1665.2477571853258
 30
0.0
 11
53.14498692389563
 21
1665.0308991136153
 31
0.0
  0
LINE
  5
161
330
17
100
AcDbEntity
  8
0
100
AcDbLine
 10
53.14498692389563
 20
1665.0308991136153
 30
0.0
 11
52.681929766290764
 21
1664.7787316257404
 31
0.0
  0
LINE
  5
162
330
17
100
AcDbEntity
  8
0
100
AcDbLine
 10
52.681929766290764
 20
1664.7787316257404
 30
0.0
 11
52.239011910382985
 21
1664.4926649445833
 31
0.0
  0
LINE
  5
163
330
17
100
AcDbEntity
  8
0
100
AcDbLine
 10
52.239011910382985
 20
1664.4926649445833
 30
0.0
 11
51.81871033248718
 21
1664.174298871063
 31
0.0
  0
LINE
  5
164
330
17
100
AcDbEntity
  8
0
100
AcDbLine
 10
51.81871033248718
 20
1664.174298871063
 30
0.0
 11
51.423375529517806
 21
1663.8254138374036
 31
0.0
  0
LINE
  5
165
330
17
100
AcDbEntity
  8
0
100
AcDbLine
 10
51.423375529517806
 20
1663.8254138374036
 30
0.0
 11
51.05521837405328
 21
1663.447960950235
 31
0.0
  0
LINE
  5
166
330
17
100
AcDbEntity
  8
0
100
AcDbLine
 10
51.05521837405328
 20
1663.447960950235
 30
0.0
 11
50.716297750249396
 21
1663.0440510792114
 31
0.0
  0
LINE
  5
167
330
17
100
AcDbEntity
  8
0
100
AcDbLine
 10
50.716297750249396
 20
1663.0440510792114
 30
0.0
 11
50.408509039710346
 21
1662.615943052173
 31
0.0
  0
LINE
  5
168
330
17
100
AcDbEntity
  8
0
100
AcDbLine
 10
50.408509039710346
 20
1662.615943052173
 30
0.0
 11
50.13357352175783
 21
1662.1660310228622
 31
0.0
  0
LINE
  5
169
330
17
100
AcDbEntity
  8
0
100
AcDbLine
 10
50.13357352175783
 20
1662.1660310228622
 30
0.0
 11
49.893028747329815
 21
1661.6968310818493
 31
0.0
  0
LINE
  5
16A
330
17
100
AcDbEntity
  8
0
100
AcDbLine
 10
49.893028747329815
 20
1661.6968310818493
 30
0.0
 11
49.68821994038131
 21
1661.2109671855296
 31
0.0
  0
LINE
  5
16B
330
17
100
AcDbEntity
  8
0
100
AcDbLine
 10
49.68821994038131
 20
1661.2109671855296
 30
0.0
 11
49.52029247483961
 21
1660.7111564818952
 31
0.0
  0
LINE
  5
16C
330
17
100
AcDbEntity
  8
0
100
AcDbLine
 10
49.52029247483961
 20
1660.7111564818952
 30
0.0
 11
49.39018546920731
 21
1660.2001941151439
 31
0.0
  0
LINE
  5
16D
330
17
100
AcDbEntity
  8
0
100
AcDbLine
 10
49.39018546920731
 20
1660.2001941151439
 30
0.0
 11
49.29862653463881
 21
1659.6809375940966
 31
0.0
  0
LINE
  5
16E
330
17
100
AcDbEntity
  8
0
100
AcDbLine
 10
49.29862653463881
 20
1659.6809375940966
 30
0.0
 11
49.24612770583216
 21
1659.1562908118476
 31
0.0
  0
LINE
  5
16F
330
17
100
AcDbEntity
  8
0
100
AcDbLine
 10
49.24612770583216
 20
1659.1562908118476
 30
0.0
 11
49.23298257753685
 21
1658.6291878060188
 31
0.0
  0
LINE
  5
170
330
17
100
AcDbEntity
  8
0
100
AcDbLine
 10
49.23298257753685
 20
1658.6291878060188
 30
0.0
 11
49.25926466264211
 21
1658.1025763504344
 31
0.0
  0
LINE
  5
171
330
17
100
AcDbEntity
  8
0
100
AcDbLine
 10
49.25926466264211
 20
1658.1025763504344
 30
0.0
 11
49.32482698106596
 21
1657.5794014699654
 31
0.0
  0
LINE
  5
172
330
17
100
AcDbEntity
  8
0
100
AcDbLine
 10
49.32482698106596
 20
1657.5794014699654
 30
0.0
 11
49.42930288173034
 21
1657.062588970764
 31
0.0
  0
LINE
  5
173
330
17
100
AcDbEntity
  8
0
100
AcDbLine
 10
49.42930288173034
 20
1657.062588970764
 30
0.0
 11
49.572108093019494
 21
1656.5550290779645
 31
0.0
  0
LINE
  5
174
330
17
100
AcDbEntity
  8
0
100
AcDbLine
 10
49.572108093019494
 20
1656.5550290779645
 30
0.0
 11
49.75244399026173
 21
1656.0595602723706
 31
0.0
  0
LINE
  5
175
330
17
100
AcDbEntity
  8
0
100
AcDbLine
 10
49.75244399026173
 20
1656.0595602723706
 30
0.0
 11
49.96930206197227
 21
1655.5789534165274
 31
0.0
  0
LINE
  5
176
330
17
100
AcDbEntity
  8
0
100
AcDbLine
 10
49.96930206197227
 20
1655.5789534165274
 30
0.0
 11
50.221469549846084
 21
1655.11589625892
 31
0.0
  0
LINE
  5
177
330
17
100
AcDbEntity
  8
0
100
AcDbLine
 10
50.221469549846084
 20
1655.11589625892
 30
0.0
 11
50.507536231004224
 21
1654.6729784030126
 31
0.0
  0
LINE
  5
178
330
17
100
AcDbEntity
  8
0
100
AcDbLine
 10
50.507536231004224
 20
1654.6729784030126
 30
0.0
 11
50.82590230452585
 21
1654.2526768251166
 31
0.0
  0
LINE
  5
179
330
17
100
AcDbEntity
  8
0
100
AcDbLine
 10
50.82590230452585
 20
1654.2526768251166
 30
0.0
 11
51.174787338184046
 21
1653.8573420221478
 31
0.0
  0
LINE
  5
17A
330
17
100
AcDbEntity
  8
0
100
AcDbLine
 10
51.174787338184046
 20
1653.8573420221478
 30
0.0
 11
51.55224022535238
 21
1653.4891848666844
 31
0.0
  0
LINE
  5
17B
330
17
100
AcDbEntity
  8
0
100
AcDbLine
 10
51.55224022535238
 20
1653.4891848666844
 30
0.0
 11
51.95615009637516
 21
1653.150264242879
 31
0.0
  0
LINE
  5
17C
330
17
100
AcDbEntity
  8
0
100
AcDbLine
 10
51.95615009637516
 20
1653.150264242879
 30
0.0
 11
52.3842581234155
 21
1652.84247553234
 31
0.0
  0
LINE
  5
17D
330
17
100
AcDbEntity
  8
0
100
AcDbLine
 10
52.3842581234155
 20
1652.84247553234
 30
0.0
 11
52.8341701527253
 21
1652.5675400143887
 31
0.0
  0
LINE
  5
17E
330
17
100
AcDbEntity
  8
0
100
AcDbLine
 10
52.8341701527253
 20
1652.5675400143887
 30
0.0
 11
53.30337009373826
 21
1652.3269952399605
 31
0.0
  0
LINE
  5
17F
330
17
100
AcDbEntity
  8
0
100
AcDbLine
 10
53.30337009373826
 20
1652.3269952399605
 30
0.0
 11
53.78923399005805
 21
1652.1221864330118
 31
0.0
  0
LINE
  5
180
330
17
100
AcDbEntity
  8
0
100
AcDbLine
 10
53.78923399005805
 20
1652.1221864330118
 30
0.0
 11
54.2890446936913
 21
1651.9542589674702
 31
0.0
  0
LINE
  5
181
330
17
100
AcDbEntity
  8
0
100
AcDbLine
 10
54.2890446936913
 20
1651.9542589674702
 30
0.0
 11
54.80000706044259
 21
1651.8241519618377
 31
0.0
  0
LINE
  5
182
330
17
100
AcDbEntity
  8
0
100
AcDbLine
 10
54.80000706044259
 20
1651.8241519618377
 30
0.0
 11
55.31926358149127
 21
1651.7325930272673
 31
0.0
  0
LINE
  5
183
330
17
100
AcDbEntity
  8
0
100
AcDbLine
 10
55.31926358149127
 20
1651.7325930272673
 30
0.0
 11
55.84391036373992
 21
1651.6800941984625
 31
0.0
  0
LINE
  5
184
330
17
100
AcDbEntity
  8
0
100
AcDbLine
 10
55.84391036373992
 20
1651.6800941984625
 30
0.0
 11
56.37101336956852
 21
1651.6669490701688
 31
0.0
  0
LINE
  5
185
330
17
100
AcDbEntity
  8
0
100
AcDbLine
 10
56.37101336956852
 20
1651.6669490701688
 30
0.0
 11
56.89762482515321
 21
1651.6932311552728
 31
0.0
  0
LINE
  5
186
330
17
100
AcDbEntity
  8
0
100
AcDbLine
 10
56.89762482515321
 20
1651.6932311552728
 30
0.0
 11
57.42079970562208
 21
1651.758793473698
 31
0.0
  0
LINE
  5
187
330
17
100
AcDbEntity
  8
0
100
AcDbLine
 10
57.42079970562208
 20
1651.758793473698
 30
0.0
 11
57.93761220482335
 21
1651.8632693743607
 31
0.0
  0
LINE
  5
188
330
17
100
AcDbEntity
  8
0
100
AcDbLine
 10
57.93761220482335
 20
1651.8632693743607
 30
0.0
 11
58.44517209762324
 21
1652.006074585648
 31
0.0
  0
LINE
  5
189
330
17
100
AcDbEntity
  8
0
100
AcDbLine
 10
58.44517209762324
 20
1652.006074585648
 30
0.0
 11
58.940640903216966
 21
1652.1864104828924
 31
0.0
  0
LINE
  5
18A
330
17
100
AcDbEntity
  8
0
100
AcDbLine
 10
58.940640903216966
 20
1652.1864104828924
 30
0.0
 11
59.421247759061465
 21
1652.403268554603
 31
0.0
  0
LINE
  5
18B
330
17
100
AcDbEntity
  8
0
100
AcDbLine
 10
59.421247759061465
 20
1652.403268554603
 30
0.0
 11
59.884304916666224
 21
1652.6554360424766
 31
0.0
  0
LINE
  5
18C
330
17
100
AcDbEntity
  8
0
100
AcDbLine
 10
59.884304916666224
 20
1652.6554360424766
 30
0.0
 11
60.32722277257388
 21
1652.941502723635
 31
0.0
  0
LINE
  5
18D
330
17
100
AcDbEntity
  8
0
100
AcDbLine
 10
60.32722277257388
 20
1652.941502723635
 30
0.0
 11
60.74752435046948
 21
1653.2598687971565
 31
0.0
  0
LINE
  5
18E
330
17
100
AcDbEntity
  8
0
100
AcDbLine
 10
60.74752435046948
 20
1653.2598687971565
 30
0.0
 11
61.142859153439964
 21
1653.6087538308136
 31
0.0
  0
LINE
  5
18F
330
17
100
AcDbEntity
  8
0
100
AcDbLine
 10
61.142859153439964
 20
1653.6087538308136
 30
0.0
 11
61.5110163089031
 21
1653.9862067179822
 31
0.0
  0
LINE
  5
190
330
17
100
AcDbEntity
  8
0
100
AcDbLine
 10
61.5110163089031
 20
1653.9862067179822
 30
0.0
 11
61.84993693270833
 21
1654.3901165890065
 31
0.0
  0
LINE
  5
191
330
17
100
AcDbEntity
  8
0
100
AcDbLine
 10
61.84993693270833
 20
1654.3901165890065
 30
0.0
 11
62.15772564324652
 21
1654.8182246160452
 31
0.0
  0
LINE
  5
192
330
17
100
AcDbEntity
  8
0
100
AcDbLine
 10
62.15772564324652
 20
1654.8182246160452
 30
0.0
 11
62.43266116120041
 21
1655.2681366453548
 31
0.0
  0
LINE
  5
193
330
17
100
AcDbEntity
  8
0
100
AcDbLine
 10
62.43266116120041
 20
1655.2681366453548
 30
0.0
 11
62.67320593562795
 21
1655.7373365863677
 31
0.0
  0
LINE
  5
194
330
17
100
AcDbEntity
  8
0
100
AcDbLine
 10
62.67320593562795
 20
1655.7373365863677
 30
0.0
 11
62.87801474257534
 21
1656.2232004826874
 31
0.0
  0
LINE
  5
195
330
17
100
AcDbEntity
  8
0
100
AcDbLine
 10
62.87801474257534
 20
1656.2232004826874
 30
0.0
 11
63.04594220811863
 21
1656.7230111863232
 31
0.0
  0
LINE
  5
196
330
17
100
AcDbEntity
  8
0
100
AcDbLine
 10
63.04594220811863
 20
1656.7230111863232
 30
0.0
 11
63.17604921374966
 21
1657.2339735530734
 31
0.0
  0
LINE
  5
197
330
17
100
AcDbEntity
  8
0
100
AcDbLine
 10
63.17604921374966
 20
1657.2339735530734
 30
0.0
 11
63.267608148319425
 21
1657.7532300741218
 31
0.0
  0
LINE
  5
198
330
17
100
AcDbEntity
  8
0
100
AcDbLine
 10
63.267608148319425
 20
1657.7532300741218
 30
0.0
 11
63.320106977124965
 21
1658.2778768563703
 31
0.0
  0
LINE
  5
199
330
17
100
AcDbEntity
  8
0
100
AcDbLine
 10
63.320106977124965
 20
1658.2778768563703
 30
0.0
 11
63.33325210542014
 21
1658.804979862198
 31
0.0
  0
LINE
  5
19A
330
17
100
AcDbEntity
  8
0
100
AcDbLine
 10
63.33325210542014
 20
1658.804979862198
 30
0.0
 11
63.30697002031472
 21
1659.331591317783
 31
0.0
  0
LINE
  5
19B
330
17
100
AcDbEntity
  8
0
100
AcDbLine
 10
1173.2637195756947
 20
775.9374613311714
 30
0.0
 11
1173.1981572572709
 21
776.4606362116399
 31
0.0
  0
LINE
  5
19C
330
17
100
AcDbEntity
  8
0
100
AcDbLine
 10
1173.1981572572709
 20
776.4606362116399
 30
0.0
 11
1173.0936813566068
 21
776.9774487108414
 31
0.0
  0
LINE
  5
19D
330
17
100
AcDbEntity
  8
0
100
AcDbLine
 10
1173.0936813566068
 20
776.9774487108414
 30
0.0
 11
1172.9508761453194
 21
777.4850086036424
 31
0.0
  0
LINE
  5
19E
330
17
100
AcDbEntity
  8
0
100
AcDbLine
 10
1172.9508761453194
 20
777.4850086036424
 30
0.0
 11
1172.7705402480765
 21
777.9804774092361
 31
0.0
  0
LINE
  5
19F
330
17
100
AcDbEntity
  8
0
100
AcDbLine
 10
1172.7705402480765
 20
777.9804774092361
 30
0.0
 11
1172.5536821763653
 21
778.4610842650791
 31
0.0
  0
LINE
  5
1A0
330
17
100
AcDbEntity
  8
0
100
AcDbLine
 10
1172.5536821763653
 20
778.4610842650791
 30
0.0
 11
1172.3015146884904
 21
778.9241414226854
 31
0.0
  0
LINE
  5
1A1
330
17
100
AcDbEntity
  8
0
100
AcDbLine
 10
1172.3015146884904
 20
778.9241414226854
 30
0.0
 11
1172.0154480073325
 21
779.3670592785928
 31
0.0
  0
LINE
  5
1A2
330
17
100
AcDbEntity
  8
0
100
AcDbLine
 10
1172.0154480073325
 20
779.3670592785928
 30
0.0
 11
1171.6970819338121
 21
779.7873608564887
 31
0.0
  0
LINE
  5
1A3
330
17
100
AcDbEntity
  8
0
100
AcDbLine
 10
1171.6970819338121
 20
779.7873608564887
 30
0.0
 11
1171.3481969001543
 21
780.1826956594582
 31
0.0
  0
LINE
  5
1A4
330
17
100
AcDbEntity
  8
0
100
AcDbLine
 10
1171.3481969001543
 20
780.1826956594582
 30
0.0
 11
1170.9707440129855
 21
780.5508528149223
 31
0.0
  0
LINE
  5
1A5
330
17
100
AcDbEntity
  8
0
100
AcDbLine
 10
1170.9707440129855
 20
780.5508528149223
 30
0.0
 11
1170.5668341419614
 21
780.8897734387266
 31
0.0
  0
LINE
  5
1A6
330
17
100
AcDbEntity
  8
0
100
AcDbLine
 10
1170.5668341419614
 20
780.8897734387266
 30
0.0
 11
1170.1387261149225
 21
781.1975621492657
 31
0.0
  0
LINE
  5
1A7
330
17
100
AcDbEntity
  8
0
100
AcDbLine
 10
1170.1387261149225
 20
781.1975621492657
 30
0.0
 11
1169.6888140856113
 21
781.4724976672192
 31
0.0
  0
LINE
  5
1A8
330
17
100
AcDbEntity
  8
0
100
AcDbLine
 10
1169.6888140856113
 20
781.4724976672192
 30
0.0
 11
1169.2196141445997
 21
781.7130424416451
 31
0.0
  0
LINE
  5
1A9
330
17
100
AcDbEntity
  8
0
100
AcDbLine
 10
1169.2196141445997
 20
781.7130424416451
 30
0.0
 11
1168.7337502482803
 21
781.9178512485936
 31
0.0
  0
LINE
  5
1AA
330
17
100
AcDbEntity
  8
0
100
AcDbLine
 10
1168.7337502482803
 20
781.9178512485936
 30
0.0
 11
1168.2339395446456
 21
782.0857787141366
 31
0.0
  0
LINE
  5
1AB
330
17
100
AcDbEntity
  8
0
100
AcDbLine
 10
1168.2339395446456
 20
782.0857787141366
 30
0.0
 11
1167.7229771778937
 21
782.2158857197687
 31
0.0
  0
LINE
  5
1AC
330
17
100
AcDbEntity
  8
0
100
AcDbLine
 10
1167.7229771778937
 20
782.2158857197687
 30
0.0
 11
1167.203720656847
 21
782.3074446543387
 31
0.0
  0
LINE
  5
1AD
330
17
100
AcDbEntity
  8
0
100
AcDbLine
 10
1167.203720656847
 20
782.3074446543387
 30
0.0
 11
1166.6790738745972
 21
782.3599434831438
 31
0.0
  0
LINE
  5
1AE
330
17
100
AcDbEntity
  8
0
100
AcDbLine
 10
1166.6790738745972
 20
782.3599434831438
 30
0.0
 11
1166.1519708687695
 21
782.3730886114394
 31
0.0
  0
LINE
  5
1AF
330
17
100
AcDbEntity
  8
0
100
AcDbLine
 10
1166.1519708687695
 20
782.3730886114394
 30
0.0
 11
1165.6253594131847
 21
782.3468065263339
 31
0.0
  0
LINE
  5
1B0
330
17
100
AcDbEntity
  8
0
100
AcDbLine
 10
1165.6253594131847
 20
782.3468065263339
 30
0.0
 11
1165.102184532716
 21
782.2812442079102
 31
0.0
  0
LINE
  5
1B1
330
17
100
AcDbEntity
  8
0
100
AcDbLine
 10
1165.102184532716
 20
782.2812442079102
 30
0.0
 11
1164.5853720335147
 21
782.1767683072458
 31
0.0
  0
LINE
  5
1B2
330
17
100
AcDbEntity
  8
0
100
AcDbLine
 10
1164.5853720335147
 20
782.1767683072458
 30
0.0
 11
1164.0778121407136
 21
782.0339630959579
 31
0.0
  0
LINE
  5
1B3
330
17
100
AcDbEntity
  8
0
100
AcDbLine
 10
1164.0778121407136
 20
782.0339630959579
 30
0.0
 11
1163.58234333512
 21
781.8536271987143
 31
0.0
  0
LINE
  5
1B4
330
17
100
AcDbEntity
  8
0
100
AcDbLine
 10
1163.58234333512
 20
781.8536271987143
 30
0.0
 11
1163.1017364792767
 21
781.6367691270037
 31
0.0
  0
LINE
  5
1B5
330
17
100
AcDbEntity
  8
0
100
AcDbLine
 10
1163.1017364792767
 20
781.6367691270037
 30
0.0
 11
1162.6386793216705
 21
781.3846016391288
 31
0.0
  0
LINE
  5
1B6
330
17
100
AcDbEntity
  8
0
100
AcDbLine
 10
1162.6386793216705
 20
781.3846016391288
 30
0.0
 11
1162.1957614657633
 21
781.0985349579706
 31
0.0
  0
LINE
  5
1B7
330
17
100
AcDbEntity
  8
0
100
AcDbLine
 10
1162.1957614657633
 20
781.0985349579706
 30
0.0
 11
1161.775459887867
 21
780.7801688844513
 31
0.0
  0
LINE
  5
1B8
330
17
100
AcDbEntity
  8
0
100
AcDbLine
 10
1161.775459887867
 20
780.7801688844513
 30
0.0
 11
1161.380125084898
 21
780.4312838507919
 31
0.0
  0
LINE
  5
1B9
330
17
100
AcDbEntity
  8
0
100
AcDbLine
 10
1161.380125084898
 20
780.4312838507919
 30
0.0
 11
1161.0119679294344
 21
780.0538309636235
 31
0.0
  0
LINE
  5
1BA
330
17
100
AcDbEntity
  8
0
100
AcDbLine
 10
1161.0119679294344
 20
780.0538309636235
 30
0.0
 11
1160.6730473056296
 21
779.6499210926004
 31
0.0
  0
LINE
  5
1BB
330
17
100
AcDbEntity
  8
0
100
AcDbLine
 10
1160.6730473056296
 20
779.6499210926004
 30
0.0
 11
1160.36525859509
 21
779.2218130655604
 31
0.0
  0
LINE
  5
1BC
330
17
100
AcDbEntity
  8
0
100
AcDbLine
 10
1160.36525859509
 20
779.2218130655604
 30
0.0
 11
1160.090323077138
 21
778.7719010362507
 31
0.0
  0
LINE
  5
1BD
330
17
100
AcDbEntity
  8
0
100
AcDbLine
 10
1160.090323077138
 20
778.7719010362507
 30
0.0
 11
1159.8497783027096
 21
778.3027010952375
 31
0.0
  0
LINE
  5
1BE
330
17
100
AcDbEntity
  8
0
100
AcDbLine
 10
1159.8497783027096
 20
778.3027010952375
 30
0.0
 11
1159.6449694957623
 21
777.8168371989182
 31
0.0
  0
LINE
  5
1BF
330
17
100
AcDbEntity
  8
0
100
AcDbLine
 10
1159.6449694957623
 20
777.8168371989182
 30
0.0
 11
1159.4770420302207
 21
777.3170264952835
 31
0.0
  0
LINE
  5
1C0
330
17
100
AcDbEntity
  8
0
100
AcDbLine
 10
1159.4770420302207
 20
777.3170264952835
 30
0.0
 11
1159.346935024588
 21
776.8060641285335
 31
0.0
  0
LINE
  5
1C1
330
17
100
AcDbEntity
  8
0
100
AcDbLine
 10
1159.346935024588
 20
776.8060641285335
 30
0.0
 11
1159.255376090019
 21
776.2868076074849
 31
0.0
  0
LINE
  5
1C2
330
17
100
AcDbEntity
  8
0
100
AcDbLine
 10
1159.255376090019
 20
776.2868076074849
 30
0.0
 11
1159.2028772612134
 21
775.762160825235
 31
0.0
  0
LINE
  5
1C3
330
17
100
AcDbEntity
  8
0
100
AcDbLine
 10
1159.2028772612134
 20
775.762160825235
 30
0.0
 11
1159.1897321329182
 21
775.2350578194073
 31
0.0
  0
LINE
  5
1C4
330
17
100
AcDbEntity
  8
0
100
AcDbLine
 10
1159.1897321329182
 20
775.2350578194073
 30
0.0
 11
1159.216014218022
 21
774.7084463638226
 31
0.0
  0
LINE
  5
1C5
330
17
100
AcDbEntity
  8
0
100
AcDbLine
 10
1159.216014218022
 20
774.7084463638226
 30
0.0
 11
1159.2815765364471
 21
774.1852714833551
 31
0.0
  0
LINE
  5
1C6
330
17
100
AcDbEntity
  8
0
100
AcDbLine
 10
1159.2815765364471
 20
774.1852714833551
 30
0.0
 11
1159.3860524371114
 21
773.6684589841525
 31
0.0
  0
LINE
  5
1C7
330
17
100
AcDbEntity
  8
0
100
AcDbLine
 10
1159.3860524371114
 20
773.6684589841525
 30
0.0
 11
1159.5288576483997
 21
773.1608990913514
 31
0.0
  0
LINE
  5
1C8
330
17
100
AcDbEntity
  8
0
100
AcDbLine
 10
1159.5288576483997
 20
773.1608990913514
 30
0.0
 11
1159.7091935456426
 21
772.665430285759
 31
0.0
  0
LINE
  5
1C9
330
17
100
AcDbEntity
  8
0
100
AcDbLine
 10
1159.7091935456426
 20
772.665430285759
 30
0.0
 11
1159.9260516173536
 21
772.1848234299146
 31
0.0
  0
LINE
  5
1CA
330
17
100
AcDbEntity
  8
0
100
AcDbLine
 10
1159.9260516173536
 20
772.1848234299146
 30
0.0
 11
1160.178219105227
 21
771.7217662723098
 31
0.0
  0
LINE
  5
1CB
330
17
100
AcDbEntity
  8
0
100
AcDbLine
 10
1160.178219105227
 20
771.7217662723098
 30
0.0
 11
1160.4642857863842
 21
771.2788484164009
 31
0.0
  0
LINE
  5
1CC
330
17
100
AcDbEntity
  8
0
100
AcDbLine
 10
1160.4642857863842
 20
771.2788484164009
 30
0.0
 11
1160.782651859906
 21
770.8585468385065
 31
0.0
  0
LINE
  5
1CD
330
17
100
AcDbEntity
  8
0
100
AcDbLine
 10
1160.782651859906
 20
770.8585468385065
 30
0.0
 11
1161.1315368935634
 21
770.4632120355359
 31
0.0
  0
LINE
  5
1CE
330
17
100
AcDbEntity
  8
0
100
AcDbLine
 10
1161.1315368935634
 20
770.4632120355359
 30
0.0
 11
1161.5089897807325
 21
770.0950548800728
 31
0.0
  0
LINE
  5
1CF
330
17
100
AcDbEntity
  8
0
100
AcDbLine
 10
1161.5089897807325
 20
770.0950548800728
 30
0.0
 11
1161.912899651756
 21
769.7561342562675
 31
0.0
  0
LINE
  5
1D0
330
17
100
AcDbEntity
  8
0
100
AcDbLine
 10
1161.912899651756
 20
769.7561342562675
 30
0.0
 11
1162.3410076787957
 21
769.448345545728
 31
0.0
  0
LINE
  5
1D1
330
17
100
AcDbEntity
  8
0
100
AcDbLine
 10
1162.3410076787957
 20
769.448345545728
 30
0.0
 11
1162.7909197081055
 21
769.1734100277756
 31
0.0
  0
LINE
  5
1D2
330
17
100
AcDbEntity
  8
0
100
AcDbLine
 10
1162.7909197081055
 20
769.1734100277756
 30
0.0
 11
1163.2601196491185
 21
768.9328652533487
 31
0.0
  0
LINE
  5
1D3
330
17
100
AcDbEntity
  8
0
100
AcDbLine
 10
1163.2601196491185
 20
768.9328652533487
 30
0.0
 11
1163.7459835454376
 21
768.7280564464003
 31
0.0
  0
LINE
  5
1D4
330
17
100
AcDbEntity
  8
0
100
AcDbLine
 10
1163.7459835454376
 20
768.7280564464003
 30
0.0
 11
1164.2457942490726
 21
768.5601289808585
 31
0.0
  0
LINE
  5
1D5
330
17
100
AcDbEntity
  8
0
100
AcDbLine
 10
1164.2457942490726
 20
768.5601289808585
 30
0.0
 11
1164.7567566158225
 21
768.4300219752263
 31
0.0
  0
LINE
  5
1D6
330
17
100
AcDbEntity
  8
0
100
AcDbLine
 10
1164.7567566158225
 20
768.4300219752263
 30
0.0
 11
1165.2760131368711
 21
768.3384630406557
 31
0.0
  0
LINE
  5
1D7
330
17
100
AcDbEntity
  8
0
100
AcDbLine
 10
1165.2760131368711
 20
768.3384630406557
 30
0.0
 11
1165.800659919121
 21
768.2859642118511
 31
0.0
  0
LINE
  5
1D8
330
17
100
AcDbEntity
  8
0
100
AcDbLine
 10
1165.800659919121
 20
768.2859642118511
 30
0.0
 11
1166.3277629249487
 21
768.2728190835546
 31
0.0
  0
LINE
  5
1D9
330
17
100
AcDbEntity
  8
0
100
AcDbLine
 10
1166.3277629249487
 20
768.2728190835546
 30
0.0
 11
1166.8543743805333
 21
768.2991011686613
 31
0.0
  0
LINE
  5
1DA
330
17
100
AcDbEntity
  8
0
100
AcDbLine
 10
1166.8543743805333
 20
768.2991011686613
 30
0.0
 11
1167.3775492610023
 21
768.3646634870838
 31
0.0
  0
LINE
  5
1DB
330
17
100
AcDbEntity
  8
0
100
AcDbLine
 10
1167.3775492610023
 20
768.3646634870838
 30
0.0
 11
1167.8943617602035
 21
768.4691393877491
 31
0.0
  0
LINE
  5
1DC
330
17
100
AcDbEntity
  8
0
100
AcDbLine
 10
1167.8943617602035
 20
768.4691393877491
 30
0.0
 11
1168.4019216530046
 21
768.6119445990365
 31
0.0
  0
LINE
  5
1DD
330
17
100
AcDbEntity
  8
0
100
AcDbLine
 10
1168.4019216530046
 20
768.6119445990365
 30
0.0
 11
1168.8973904585962
 21
768.7922804962807
 31
0.0
  0
LINE
  5
1DE
330
17
100
AcDbEntity
  8
0
100
AcDbLine
 10
1168.8973904585962
 20
768.7922804962807
 30
0.0
 11
1169.3779973144415
 21
769.0091385679914
 31
0.0
  0
LINE
  5
1DF
330
17
100
AcDbEntity
  8
0
100
AcDbLine
 10
1169.3779973144415
 20
769.0091385679914
 30
0.0
 11
1169.8410544720475
 21
769.261306055865
 31
0.0
  0
LINE
  5
1E0
330
17
100
AcDbEntity
  8
0
100
AcDbLine
 10
1169.8410544720475
 20
769.261306055865
 30
0.0
 11
1170.2839723279549
 21
769.5473727370232
 31
0.0
  0
LINE
  5
1E1
330
17
100
AcDbEntity
  8
0
100
AcDbLine
 10
1170.2839723279549
 20
769.5473727370232
 30
0.0
 11
1170.7042739058497
 21
769.8657388105435
 31
0.0
  0
LINE
  5
1E2
330
17
100
AcDbEntity
  8
0
100
AcDbLine
 10
1170.7042739058497
 20
769.8657388105435
 30
0.0
 11
1171.0996087088201
 21
770.2146238442017
 31
0.0
  0
LINE
  5
1E3
330
17
100
AcDbEntity
  8
0
100
AcDbLine
 10
1171.0996087088201
 20
770.2146238442017
 30
0.0
 11
1171.4677658642831
 21
770.5920767313706
 31
0.0
  0
LINE
  5
1E4
330
17
100
AcDbEntity
  8
0
100
AcDbLine
 10
1171.4677658642831
 20
770.5920767313706
 30
0.0
 11
1171.8066864880884
 21
770.9959866023947
 31
0.0
  0
LINE
  5
1E5
330
17
100
AcDbEntity
  8
0
100
AcDbLine
 10
1171.8066864880884
 20
770.9959866023947
 30
0.0
 11
1172.1144751986278
 21
771.4240946294337
 31
0.0
  0
LINE
  5
1E6
330
17
100
AcDbEntity
  8
0
100
AcDbLine
 10
1172.1144751986278
 20
771.4240946294337
 30
0.0
 11
1172.3894107165802
 21
771.8740066587445
 31
0.0
  0
LINE
  5
1E7
330
17
100
AcDbEntity
  8
0
100
AcDbLine
 10
1172.3894107165802
 20
771.8740066587445
 30
0.0
 11
1172.629955491007
 21
772.3432065997563
 31
0.0
  0
LINE
  5
1E8
330
17
100
AcDbEntity
  8
0
100
AcDbLine
 10
1172.629955491007
 20
772.3432065997563
 30
0.0
 11
1172.8347642979552
 21
772.829070496077
 31
0.0
  0
LINE
  5
1E9
330
17
100
AcDbEntity
  8
0
100
AcDbLine
 10
1172.8347642979552
 20
772.829070496077
 30
0.0
 11
1173.0026917634982
 21
773.3288811997102
 31
0.0
  0
LINE
  5
1EA
330
17
100
AcDbEntity
  8
0
100
AcDbLine
 10
1173.0026917634982
 20
773.3288811997102
 30
0.0
 11
1173.132798769131
 21
773.8398435664616
 31
0.0
  0
LINE
  5
1EB
330
17
100
AcDbEntity
  8
0
100
AcDbLine
 10
1173.132798769131
 20
773.8398435664616
 30
0.0
 11
1173.2243577037002
 21
774.359100087509
 31
0.0
  0
LINE
  5
1EC
330
17
100
AcDbEntity
  8
0
100
AcDbLine
 10
1173.2243577037002
 20
774.359100087509
 30
0.0
 11
1173.276856532505
 21
774.8837468697589
 31
0.0
  0
LINE
  5
1ED
330
17
100
AcDbEntity
  8
0
100
AcDbLine
 10
1173.276856532505
 20
774.8837468697589
 30
0.0
 11
1173.2900016607998
 21
775.4108498755877
 31
0.0
  0
LINE
  5
1EE
330
17
100
AcDbEntity
  8
0
100
AcDbLine
 10
1173.2900016607998
 20
775.4108498755877
 30
0.0
 11
1173.2637195756947
 21
775.9374613311714
 31
0.0
  0
ENDSEC
  0
SECTION
  2
OBJECTS
  0
DICTIONARY
  5
A
330
0
100
AcDbDictionary
281
1
  3
ACAD_COLOR
350
B
  3
ACAD_GROUP
350
C
  3
ACAD_LAYOUT
350
D
  3
ACAD_MATERIAL
350
E
  3
ACAD_MLEADERSTYLE
350
F
  3
ACAD_MLINESTYLE
350
10
  3
ACAD_PLOTSETTINGS
350
11
  3
ACAD_PLOTSTYLENAME
350
12
  3
ACAD_SCALELIST
350
14
  3
ACAD_TABLESTYLE
350
15
  3
ACAD_VISUALSTYLE
350
16
  3
EZDXF_META
350
2D
  0
DICTIONARY
  5
B
330
A
100
AcDbDictionary
281
1
  0
DICTIONARY
  5
C
330
A
100
AcDbDictionary
281
1
  0
DICTIONARY
  5
D
330
A
100
AcDbDictionary
281
1
  3
Model
350
1A
  3
Layout1
350
1E
  0
DICTIONARY
  5
E
330
A
100
AcDbDictionary
281
1
  3
ByBlock
350
1F
  3
ByLayer
350
20
  3
Global
350
21
  0
DICTIONARY
  5
F
330
A
100
AcDbDictionary
281
1
  3
Standard
350
2C
  0
DICTIONARY
  5
10
330
A
100
AcDbDictionary
281
1
  3
Standard
350
22
  0
DICTIONARY
  5
11
330
A
100
AcDbDictionary
281
1
  0
ACDBDICTIONARYWDFLT
  5
12
330
A
100
AcDbDictionary
281
1
  3
Normal
350
13
100
AcDbDictionaryWithDefault
340
13
  0
ACDBPLACEHOLDER
  5
13
330
12
  0
DICTIONARY
  5
14
330
A
100
AcDbDictionary
281
1
  0
DICTIONARY
  5
15
330
A
100
AcDbDictionary
281
1
  0
DICTIONARY
  5
16
330
A
100
AcDbDictionary
281
1
  0
LAYOUT
  5
1A
330
D
100
AcDbPlotSettings
  1

  4
A3
  6

 40
7.5
 41
20.0
 42
7.5
 43
20.0
 44
420.0
 45
297.0
 46
0.0
 47
0.0
 48
0.0
 49
0.0
140
0.0
141
0.0
142
1.0
143
1.0
 70
1024
 72
1
 73
0
 74
5
  7

 75
16
 76
0
 77
2
 78
300
147
1.0
148
0.0
149
0.0
100
AcDbLayout
  1
Model
 70
1
 71
0
 10
0.0
 20
0.0
 11
420.0
 21
297.0
 12
0.0
 22
0.0
 32
0.0
 14
1e+20
 24
1e+20
 34
1e+20
 15
-1e+20
 25
-1e+20
 35
-1e+20
146
0.0
 13
0.0
 23
0.0
 33
0.0
 16
1.0
 26
0.0
 36
0.0
 17
0.0
 27
1.0
 37
0.0
 76
1
330
17
  0
LAYOUT
  5
1E
330
D
100
AcDbPlotSettings
  1

  4
A3
  6

 40
7.5
 41
20.0
 42
7.5
 43
20.0
 44
420.0
 45
297.0
 46
0.0
 47
0.0
 48
0.0
 49
0.0
140
0.0
141
0.0
142
1.0
143
1.0
 70
0
 72
1
 73
0
 74
5
  7

 75
16
 76
0
 77
2
 78
300
147
1.0
148
0.0
149
0.0
100
AcDbLayout
  1
Layout1
 70
1
 71
1
 10
0.0
 20
0.0
 11
420.0
 21
297.0
 12
0.0
 22
0.0
 32
0.0
 14
1e+20
 24
1e+20
 34
1e+20
 15
-1e+20
 25
-1e+20
 35
-1e+20
146
0.0
 13
0.0
 23
0.0
 33
0.0
 16
1.0
 26
0.0
 36
0.0
 17
0.0
 27
1.0
 37
0.0
 76
1
330
1B
  0
MATERIAL
  5
1F
102
{ACAD_REACTORS
330
E
102
}
330
E
100
AcDbMaterial
  1
ByBlock
  2

 70
0
 40
1.0
 71
1
 41
1.0
 91
-1023410177
 42
1.0
 72
1
  3

 73
1
 74
1
 75
1
 44
0.5
 73
0
 45
1.0
 46
1.0
 77
1
  4

 78
1
 79
1
170
1
 48
1.0
171
1
  6

172
1
173
1
174
1
140
1.0
141
1.0
175
1
  7

176
1
177
1
178
1
143
1.0
179
1
  8

270
1
271
1
272
1
145
1.0
146
1.0
273
1
  9

274
1
275
1
276
1
 42
1.0
 72
1
  3

 73
1
 74
1
 75
1
 94
63
  0
MATERIAL
  5
20
102
{ACAD_REACTORS
330
E
102
}
330
E
100
AcDbMaterial
  1
ByLayer
  2

 70
0
 40
1.0
 71
1
 41
1.0
 91
-1023410177
 42
1.0
 72
1
  3

 73
1
 74
1
 75
1
 44
0.5
 73
0
 45
1.0
 46
1.0
 77
1
  4

 78
1
 79
1
170
1
 48
1.0
171
1
  6

172
1
173
1
174
1
140
1.0
141
1.0
175
1
  7

176
1
177
1
178
1
143
1.0
179
1
  8

270
1
271
1
272
1
145
1.0
146
1.0
273
1
  9

274
1
275
1
276
1
 42
1.0
 72
1
  3

 73
1
 74
1
 75
1
 94
63
  0
MATERIAL
  5
21
102
{ACAD_REACTORS
330
E
102
}
330
E
100
AcDbMaterial
  1
Global
  2

 70
0
 40
1.0
 71
1
 41
1.0
 91
-1023410177
 42
1.0
 72
1
  3

 73
1
 74
1
 75
1
 44
0.5
 73
0
 45
1.0
 46
1.0
 77
1
  4

 78
1
 79
1
170
1
 48
1.0
171
1
  6

172
1
173
1
174
1
140
1.0
141
1.0
175
1
  7

176
1
177
1
178
1
143
1.0
179
1
  8

270
1
271
1
272
1
145
1.0
146
1.0
273
1
  9

274
1
275
1
276
1
 42
1.0
 72
1
  3

 73
1
 74
1
 75
1
 94
63
  0
MLINESTYLE
  5
22
102
{ACAD_REACTORS
330
10
102
}
330
10
100
AcDbMlineStyle
  2
Standard
 70
0
  3

 62
256
 51
90.0
 52
90.0
 71
2
 49
0.5
 62
256
  6
BYLAYER
 49
-0.5
 62
256
  6
BYLAYER
  0
MLEADERSTYLE
  5
2C
102
{ACAD_REACTORS
330
F
102
}
330
F
100
AcDbMLeaderStyle
179
2
170
2
171
1
172
0
 90
2
 40
0.0
 41
0.0
173
1
 91
-1056964608
 92
-2
290
1
 42
2.0
291
1
 43
8.0
  3
Standard
 44
4.0
300

342
29
174
1
175
1
176
0
178
1
 93
-1056964608
 45
4.0
292
0
297
0
 46
4.0
 94
-1056964608
 47
1.0
 49
1.0
140
1.0
294
1
141
0.0
177
0
142
1.0
295
0
296
0
143
3.75
271
0
272
9
273
9
  0
DICTIONARY
  5
2D
330
A
100
AcDbDictionary
280
1
281
1
  3
CREATED_BY_EZDXF
350
2E
  3
WRITTEN_BY_EZDXF
350
1F1
  0
DICTIONARYVAR
  5
2E
330
2D
100
DictionaryVariables
280
0
  1
1.4.3 @ 2026-04-16T10:53:43.954404+00:00
  0
DICTIONARYVAR
  5
1F1
330
2D
100
DictionaryVariables
280
0
  1
1.4.3 @ 2026-04-16T10:53:43.961671+00:00
  0
ENDSEC
  0
EOF
