  0
SECTION
  2
HEADER
  9
$ACADVER
  1
AC1024
  9
$ACADMAINTVER
 70
6
  9
$DWGCODEPAGE
  3
ANSI_1252
  9
$LASTSAVEDBY
  1
ezdxf
  9
$INSBASE
 10
0.0
 20
0.0
 30
0.0
  9
$EXTMIN
 10
1e+20
 20
1e+20
 30
1e+20
  9
$EXTMAX
 10
-1e+20
 20
-1e+20
 30
-1e+20
  9
$LIMMIN
 10
0.0
 20
0.0
  9
$LIMMAX
 10
420.0
 20
297.0
  9
$ORTHOMODE
 70
0
  9
$REGENMODE
 70
1
  9
$FILLMODE
 70
1
  9
$QTEXTMODE
 70
0
  9
$MIRRTEXT
 70
1
  9
$LTSCALE
 40
1.0
  9
$ATTMODE
 70
1
  9
$TEXTSIZE
 40
2.5
  9
$TRACEWID
 40
1.0
  9
$TEXTSTYLE
  7
Standard
  9
$CLAYER
  8
0
  9
$CELTYPE
  6
ByLayer
  9
$CECOLOR
 62
256
  9
$CELTSCALE
 40
1.0
  9
$DISPSILH
 70
0
  9
$DIMSCALE
 40
1.0
  9
$DIMASZ
 40
2.5
  9
$DIMEXO
 40
0.625
  9
$DIMDLI
 40
3.75
  9
$DIMRND
 40
0.0
  9
$DIMDLE
 40
0.0
  9
$DIMEXE
 40
1.25
  9
$DIMTP
 40
0.0
  9
$DIMTM
 40
0.0
  9
$DIMTXT
 40
2.5
  9
$DIMCEN
 40
2.5
  9
$DIMTSZ
 40
0.0
  9
$DIMTOL
 70
0
  9
$DIMLIM
 70
0
  9
$DIMTIH
 70
0
  9
$DIMTOH
 70
0
  9
$DIMSE1
 70
0
  9
$DIMSE2
 70
0
  9
$DIMTAD
 70
1
  9
$DIMZIN
 70
8
  9
$DIMBLK
  1

  9
$DIMASO
 70
1
  9
$DIMSHO
 70
1
  9
$DIMPOST
  1

  9
$DIMAPOST
  1

  9
$DIMALT
 70
0
  9
$DIMALTD
 70
3
  9
$DIMALTF
 40
0.03937007874
  9
$DIMLFAC
 40
1.0
  9
$DIMTOFL
 70
1
  9
$DIMTVP
 40
0.0
  9
$DIMTIX
 70
0
  9
$DIMSOXD
 70
0
  9
$DIMSAH
 70
0
  9
$DIMBLK1
  1

  9
$DIMBLK2
  1

  9
$DIMSTYLE
  2
ISO-25
  9
$DIMCLRD
 70
0
  9
$DIMCLRE
 70
0
  9
$DIMCLRT
 70
0
  9
$DIMTFAC
 40
1.0
  9
$DIMGAP
 40
0.625
  9
$DIMJUST
 70
0
  9
$DIMSD1
 70
0
  9
$DIMSD2
 70
0
  9
$DIMTOLJ
 70
0
  9
$DIMTZIN
 70
8
  9
$DIMALTZ
 70
0
  9
$DIMALTTZ
 70
0
  9
$DIMUPT
 70
0
  9
$DIMDEC
 70
2
  9
$DIMTDEC
 70
2
  9
$DIMALTU
 70
2
  9
$DIMALTTD
 70
3
  9
$DIMTXSTY
  7
Standard
  9
$DIMAUNIT
 70
0
  9
$DIMADEC
 70
0
  9
$DIMALTRND
 40
0.0
  9
$DIMAZIN
 70
0
  9
$DIMDSEP
 70
44
  9
$DIMATFIT
 70
3
  9
$DIMFRAC
 70
0
  9
$DIMLDRBLK
  1

  9
$DIMLUNIT
 70
2
  9
$DIMLWD
 70
-2
  9
$DIMLWE
 70
-2
  9
$DIMTMOVE
 70
0
  9
$DIMFXL
 40
1.0
  9
$DIMFXLON
 70
0
  9
$DIMJOGANG
 40
0.785398163397
  9
$DIMTFILL
 70
0
  9
$DIMTFILLCLR
 70
0
  9
$DIMARCSYM
 70
0
  9
$DIMLTYPE
  6

  9
$DIMLTEX1
  6

  9
$DIMLTEX2
  6

  9
$DIMTXTDIRECTION
 70
0
  9
$LUNITS
 70
2
  9
$LUPREC
 70
4
  9
$SKETCHINC
 40
1.0
  9
$FILLETRAD
 40
10.0
  9
$AUNITS
 70
0
  9
$AUPREC
 70
2
  9
$MENU
  1
.
  9
$ELEVATION
 40
0.0
  9
$PELEVATION
 40
0.0
  9
$THICKNESS
 40
0.0
  9
$LIMCHECK
 70
0
  9
$CHAMFERA
 40
0.0
  9
$CHAMFERB
 40
0.0
  9
$CHAMFERC
 40
0.0
  9
$CHAMFERD
 40
0.0
  9
$SKPOLY
 70
0
  9
$TDCREATE
 40
2461147.5789699075
  9
$TDUCREATE
 40
2458532.153996898
  9
$TDUPDATE
 40
2461147.5789699075
  9
$TDUUPDATE
 40
2458532.1544311
  9
$TDINDWG
 40
0.0
  9
$TDUSRTIMER
 40
0.0
  9
$USRTIMER
 70
1
  9
$ANGBASE
 50
0.0
  9
$ANGDIR
 70
0
  9
$PDMODE
 70
0
  9
$PDSIZE
 40
0.0
  9
$PLINEWID
 40
0.0
  9
$SPLFRAME
 70
0
  9
$SPLINETYPE
 70
6
  9
$SPLINESEGS
 70
8
  9
$HANDSEED
  5
318
  9
$SURFTAB1
 70
6
  9
$SURFTAB2
 70
6
  9
$SURFTYPE
 70
6
  9
$SURFU
 70
6
  9
$SURFV
 70
6
  9
$UCSBASE
  2

  9
$UCSNAME
  2

  9
$UCSORG
 10
0.0
 20
0.0
 30
0.0
  9
$UCSXDIR
 10
1.0
 20
0.0
 30
0.0
  9
$UCSYDIR
 10
0.0
 20
1.0
 30
0.0
  9
$UCSORTHOREF
  2

  9
$UCSORTHOVIEW
 70
0
  9
$UCSORGTOP
 10
0.0
 20
0.0
 30
0.0
  9
$UCSORGBOTTOM
 10
0.0
 20
0.0
 30
0.0
  9
$UCSORGLEFT
 10
0.0
 20
0.0
 30
0.0
  9
$UCSORGRIGHT
 10
0.0
 20
0.0
 30
0.0
  9
$UCSORGFRONT
 10
0.0
 20
0.0
 30
0.0
  9
$UCSORGBACK
 10
0.0
 20
0.0
 30
0.0
  9
$PUCSBASE
  2

  9
$PUCSNAME
  2

  9
$PUCSORG
 10
0.0
 20
0.0
 30
0.0
  9
$PUCSXDIR
 10
1.0
 20
0.0
 30
0.0
  9
$PUCSYDIR
 10
0.0
 20
1.0
 30
0.0
  9
$PUCSORTHOREF
  2

  9
$PUCSORTHOVIEW
 70
0
  9
$PUCSORGTOP
 10
0.0
 20
0.0
 30
0.0
  9
$PUCSORGBOTTOM
 10
0.0
 20
0.0
 30
0.0
  9
$PUCSORGLEFT
 10
0.0
 20
0.0
 30
0.0
  9
$PUCSORGRIGHT
 10
0.0
 20
0.0
 30
0.0
  9
$PUCSORGFRONT
 10
0.0
 20
0.0
 30
0.0
  9
$PUCSORGBACK
 10
0.0
 20
0.0
 30
0.0
  9
$USERI1
 70
0
  9
$USERI2
 70
0
  9
$USERI3
 70
0
  9
$USERI4
 70
0
  9
$USERI5
 70
0
  9
$USERR1
 40
0.0
  9
$USERR2
 40
0.0
  9
$USERR3
 40
0.0
  9
$USERR4
 40
0.0
  9
$USERR5
 40
0.0
  9
$WORLDVIEW
 70
1
  9
$SHADEDGE
 70
3
  9
$SHADEDIF
 70
70
  9
$TILEMODE
 70
1
  9
$MAXACTVP
 70
64
  9
$PINSBASE
 10
0.0
 20
0.0
 30
0.0
  9
$PLIMCHECK
 70
0
  9
$PEXTMIN
 10
1e+20
 20
1e+20
 30
1e+20
  9
$PEXTMAX
 10
-1e+20
 20
-1e+20
 30
-1e+20
  9
$PLIMMIN
 10
0.0
 20
0.0
  9
$PLIMMAX
 10
420.0
 20
297.0
  9
$UNITMODE
 70
0
  9
$VISRETAIN
 70
1
  9
$PLINEGEN
 70
0
  9
$PSLTSCALE
 70
1
  9
$TREEDEPTH
 70
3020
  9
$CMLSTYLE
  2
Standard
  9
$CMLJUST
 70
0
  9
$CMLSCALE
 40
20.0
  9
$PROXYGRAPHICS
 70
1
  9
$MEASUREMENT
 70
1
  9
$CELWEIGHT
370
-1
  9
$ENDCAPS
280
0
  9
$JOINSTYLE
280
0
  9
$LWDISPLAY
290
0
  9
$INSUNITS
 70
0
  9
$HYPERLINKBASE
  1

  9
$STYLESHEET
  1

  9
$XEDIT
290
1
  9
$CEPSNTYPE
380
0
  9
$PSTYLEMODE
290
1
  9
$FINGERPRINTGUID
  2
{AC4E1049-010B-4926-8C11-B4C67CFCC05F}
  9
$VERSIONGUID
  2
{56C5395F-6D91-4B03-A4F9-F61EEBCD4B54}
  9
$EXTNAMES
290
1
  9
$PSVPSCALE
 40
0.0
  9
$OLESTARTUP
290
0
  9
$SORTENTS
280
127
  9
$INDEXCTL
280
0
  9
$HIDETEXT
280
1
  9
$XCLIPFRAME
280
1
  9
$HALOGAP
280
0
  9
$OBSCOLOR
 70
257
  9
$OBSLTYPE
280
0
  9
$INTERSECTIONDISPLAY
280
0
  9
$INTERSECTIONCOLOR
 70
257
  9
$DIMASSOC
280
2
  9
$PROJECTNAME
  1

  9
$CAMERADISPLAY
290
0
  9
$LENSLENGTH
 40
50.0
  9
$CAMERAHEIGHT
 40
0.0
  9
$STEPSPERSEC
 40
24.0
  9
$STEPSIZE
 40
100.0
  9
$3DDWFPREC
 40
2.0
  9
$PSOLWIDTH
 40
0.005
  9
$PSOLHEIGHT
 40
0.08
  9
$LOFTANG1
 40
1.570796326795
  9
$LOFTANG2
 40
1.570796326795
  9
$LOFTMAG1
 40
0.0
  9
$LOFTMAG2
 40
0.0
  9
$LOFTPARAM
 70
7
  9
$LOFTNORMALS
280
1
  9
$LATITUDE
 40
37.795
  9
$LONGITUDE
 40
-122.394
  9
$NORTHDIRECTION
 40
0.0
  9
$TIMEZONE
 70
-8000
  9
$LIGHTGLYPHDISPLAY
280
1
  9
$TILEMODELIGHTSYNCH
280
1
  9
$CMATERIAL
347
20
  9
$SOLIDHIST
280
0
  9
$SHOWHIST
280
1
  9
$DWFFRAME
280
2
  9
$DGNFRAME
280
2
  9
$REALWORLDSCALE
290
1
  9
$INTERFERECOLOR
 62
256
  9
$CSHADOW
280
0
  9
$SHADOWPLANELOCATION
 40
0.0
  0
ENDSEC
  0
SECTION
  2
CLASSES
  0
CLASS
  1
ACDBDICTIONARYWDFLT
  2
AcDbDictionaryWithDefault
  3
ObjectDBX Classes
 90
0
 91
0
280
0
281
0
  0
CLASS
  1
SUN
  2
AcDbSun
  3
SCENEOE
 90
1153
 91
0
280
0
281
0
  0
CLASS
  1
VISUALSTYLE
  2
AcDbVisualStyle
  3
ObjectDBX Classes
 90
4095
 91
0
280
0
281
0
  0
CLASS
  1
MATERIAL
  2
AcDbMaterial
  3
ObjectDBX Classes
 90
1153
 91
0
280
0
281
0
  0
CLASS
  1
SCALE
  2
AcDbScale
  3
ObjectDBX Classes
 90
1153
 91
0
280
0
281
0
  0
CLASS
  1
TABLESTYLE
  2
AcDbTableStyle
  3
ObjectDBX Classes
 90
4095
 91
0
280
0
281
0
  0
CLASS
  1
MLEADERSTYLE
  2
AcDbMLeaderStyle
  3
ACDB_MLEADERSTYLE_CLASS
 90
4095
 91
0
280
0
281
0
  0
CLASS
  1
DICTIONARYVAR
  2
AcDbDictionaryVar
  3
ObjectDBX Classes
 90
0
 91
0
280
0
281
0
  0
CLASS
  1
CELLSTYLEMAP
  2
AcDbCellStyleMap
  3
ObjectDBX Classes
 90
1152
 91
0
280
0
281
0
  0
CLASS
  1
MENTALRAYRENDERSETTINGS
  2
AcDbMentalRayRenderSettings
  3
SCENEOE
 90
1024
 91
0
280
0
281
0
  0
CLASS
  1
ACDBDETAILVIEWSTYLE
  2
AcDbDetailViewStyle
  3
ObjectDBX Classes
 90
1025
 91
0
280
0
281
0
  0
CLASS
  1
ACDBSECTIONVIEWSTYLE
  2
AcDbSectionViewStyle
  3
ObjectDBX Classes
 90
1025
 91
0
280
0
281
0
  0
CLASS
  1
RASTERVARIABLES
  2
AcDbRasterVariables
  3
ISM
 90
0
 91
0
280
0
281
0
  0
CLASS
  1
LAYOUT
  2
AcDbLayout
  3
ObjectDBX Classes
 90
0
 91
0
280
0
281
0
  0
CLASS
  1
ACDBPLACEHOLDER
  2
AcDbPlaceHolder
  3
ObjectDBX Classes
 90
0
 91
0
280
0
281
0
  0
ENDSEC
  0
SECTION
  2
TABLES
  0
TABLE
  2
VPORT
  5
8
330
0
100
AcDbSymbolTable
 70
1
  0
VPORT
  5
23
330
8
100
AcDbSymbolTableRecord
100
AcDbViewportTableRecord
  2
*Active
 70
0
 10
0.0
 20
0.0
 11
1.0
 21
1.0
 12
0.0
 22
0.0
 13
0.0
 23
0.0
 14
0.5
 24
0.5
 15
0.5
 25
0.5
 16
0.0
 26
0.0
 36
1.0
 17
0.0
 27
0.0
 37
0.0
 40
1000.0
 41
1.34
 42
50.0
 43
0.0
 44
0.0
 50
0.0
 51
0.0
 71
0
 72
1000
 73
1
 74
3
 75
0
 76
0
 77
0
 78
0
281
0
 65
0
146
0.0
  0
ENDTAB
  0
TABLE
  2
LTYPE
  5
2
330
0
100
AcDbSymbolTable
 70
3
  0
LTYPE
  5
24
330
2
100
AcDbSymbolTableRecord
100
AcDbLinetypeTableRecord
  2
ByBlock
 70
0
  3

 72
65
 73
0
 40
0.0
  0
LTYPE
  5
25
330
2
100
AcDbSymbolTableRecord
100
AcDbLinetypeTableRecord
  2
ByLayer
 70
0
  3

 72
65
 73
0
 40
0.0
  0
LTYPE
  5
26
330
2
100
AcDbSymbolTableRecord
100
AcDbLinetypeTableRecord
  2
Continuous
 70
0
  3

 72
65
 73
0
 40
0.0
  0
ENDTAB
  0
TABLE
  2
LAYER
  5
1
330
0
100
AcDbSymbolTable
 70
2
  0
LAYER
  5
27
330
1
100
AcDbSymbolTableRecord
100
AcDbLayerTableRecord
  2
0
 70
0
 62
7
  6
Continuous
370
-3
390
13
347
21
  0
LAYER
  5
28
330
1
100
AcDbSymbolTableRecord
100
AcDbLayerTableRecord
  2
Defpoints
 70
0
 62
7
  6
Continuous
290
0
370
-3
390
13
347
21
  0
ENDTAB
  0
TABLE
  2
STYLE
  5
5
330
0
100
AcDbSymbolTable
 70
1
  0
STYLE
  5
29
330
5
100
AcDbSymbolTableRecord
100
AcDbTextStyleTableRecord
  2
Standard
 70
0
 40
0.0
 41
1.0
 50
0.0
 71
0
 42
2.5
  3
txt
  4

  0
ENDTAB
  0
TABLE
  2
VIEW
  5
7
330
0
100
AcDbSymbolTable
 70
0
  0
ENDTAB
  0
TABLE
  2
UCS
  5
6
330
0
100
AcDbSymbolTable
 70
0
  0
ENDTAB
  0
TABLE
  2
APPID
  5
3
330
0
100
AcDbSymbolTable
 70
3
  0
APPID
  5
2A
330
3
100
AcDbSymbolTableRecord
100
AcDbRegAppTableRecord
  2
ACAD
 70
0
  0
APPID
  5
315
330
3
100
AcDbSymbolTableRecord
100
AcDbRegAppTableRecord
  2
HATCHBACKGROUNDCOLOR
 70
0
  0
APPID
  5
316
330
3
100
AcDbSymbolTableRecord
100
AcDbRegAppTableRecord
  2
EZDXF
 70
0
  0
ENDTAB
  0
TABLE
  2
DIMSTYLE
  5
4
330
0
100
AcDbSymbolTable
 70
1
100
AcDbDimStyleTable
  0
DIMSTYLE
105
2B
330
4
100
AcDbSymbolTableRecord
100
AcDbDimStyleTableRecord
  2
Standard
 70
0
 40
1.0
 41
2.5
 42
0.625
 43
3.75
 44
1.25
 45
0.0
 46
0.0
 47
0.0
 48
0.0
 49
2.5
140
2.5
141
2.5
142
0.0
143
0.03937007874
144
1.0
145
0.0
146
1.0
147
0.625
148
0.0
 69
0
 70
0
 71
0
 72
0
 73
0
 74
0
 75
0
 76
0
 77
1
 78
8
 79
3
170
0
171
3
172
1
173
0
174
0
175
0
176
0
177
0
178
0
179
2
271
2
272
2
273
2
274
3
275
0
276
0
277
2
278
44
279
0
280
0
281
0
282
0
283
0
284
8
285
0
286
0
288
0
289
3
290
0
371
-2
372
-2
  0
ENDTAB
  0
TABLE
  2
BLOCK_RECORD
  5
9
330
0
100
AcDbSymbolTable
 70
2
  0
BLOCK_RECORD
  5
17
330
9
100
AcDbSymbolTableRecord
100
AcDbBlockTableRecord
  2
*Model_Space
340
1A
 70
0
280
1
281
0
  0
BLOCK_RECORD
  5
1B
330
9
100
AcDbSymbolTableRecord
100
AcDbBlockTableRecord
  2
*Paper_Space
340
1E
 70
0
280
1
281
0
  0
ENDTAB
  0
ENDSEC
  0
SECTION
  2
BLOCKS
  0
BLOCK
  5
18
330
17
100
AcDbEntity
  8
0
100
AcDbBlockBegin
  2
*Model_Space
 70
0
 10
0.0
 20
0.0
 30
0.0
  3
*Model_Space
  1

  0
ENDBLK
  5
19
330
17
100
AcDbEntity
  8
0
100
AcDbBlockEnd
  0
BLOCK
  5
1C
330
1B
100
AcDbEntity
  8
0
100
AcDbBlockBegin
  2
*Paper_Space
 70
0
 10
0.0
 20
0.0
 30
0.0
  3
*Paper_Space
  1

  0
ENDBLK
  5
1D
330
1B
100
AcDbEntity
  8
0
100
AcDbBlockEnd
  0
ENDSEC
  0
SECTION
  2
ENTITIES
  0
LINE
  5
2F
330
17
100
AcDbEntity
  8
0
100
AcDbLine
 10
-68.75732677067701
 20
1790.0511402540974
 30
0.0
 11
1973.4418043174012
 21
1968.7204128867966
 31
0.0
  0
LINE
  5
30
330
17
100
AcDbEntity
  8
0
100
AcDbLine
 10
473.90906948954523
 20
1848.1988238354875
 30
0.0
 11
638.9112761561228
 21
-37.78502843453077
 31
0.0
  0
LINE
  5
31
330
17
100
AcDbEntity
  8
0
100
AcDbLine
 10
-12.140407269245543
 20
1142.916789131507
 30
0.0
 11
2030.0587238188327
 21
1321.586061764206
 31
0.0
  0
LINE
  5
32
330
17
100
AcDbEntity
  8
0
100
AcDbLine
 10
474.83552817229594
 20
1837.6093526352993
 30
0.0
 11
592.4963192854943
 21
1847.903337999196
 31
0.0
  0
LINE
  5
33
330
17
100
AcDbEntity
  8
0
100
AcDbLine
 10
1004.3090881816883
 20
1883.9322867728342
 30
0.0
 11
1168.384836165515
 21
8.537905703004185
 31
0.0
  0
LINE
  5
34
330
17
100
AcDbEntity
  8
0
100
AcDbLine
 10
1533.7826481910809
 20
1930.2552209103692
 30
0.0
 11
1697.8583961749077
 21
54.860839840538915
 31
0.0
  0
LINE
  5
35
330
17
100
AcDbEntity
  8
0
100
AcDbLine
 10
44.47651223218583
 20
495.7824380089175
 30
0.0
 11
2086.675643320264
 21
674.4517106416167
 31
0.0
  0
LINE
  5
36
330
17
100
AcDbEntity
  8
0
100
AcDbLine
 10
474.83552817229594
 20
1837.6093526352993
 30
0.0
 11
511.0703566532123
 21
1423.4433679168392
 31
0.0
  0
LINE
  5
37
330
17
100
AcDbEntity
  8
0
100
AcDbLine
 10
459.48095499504745
 20
1850.4933693252156
 30
0.0
 11
599.4972964197533
 21
1862.7432119082528
 31
0.0
  0
LINE
  5
38
330
17
100
AcDbEntity
  8
0
100
AcDbLine
 10
2057.9554241549927
 20
1002.7253178474398
 30
0.0
 11
1948.9230910567592
 21
993.186224743562
 31
0.0
  0
LINE
  5
39
330
17
100
AcDbEntity
  8
0
100
AcDbLine
 10
2059.499521959577
 20
985.0761991804588
 30
0.0
 11
1609.2508946330713
 21
945.6845485212812
 31
0.0
  0
LINE
  5
3A
330
17
100
AcDbEntity
  8
0
100
AcDbLine
 10
1948.9230910567592
 20
993.186224743562
 30
0.0
 11
1929.3645188653556
 21
1216.7417278586397
 31
0.0
  0
LINE
  5
3B
330
17
100
AcDbEntity
  8
0
100
AcDbLine
 10
2038.396851963589
 20
1226.2808209625175
 30
0.0
 11
1929.3645188653556
 21
1216.7417278586397
 31
0.0
  0
LINE
  5
3C
330
17
100
AcDbEntity
  8
0
100
AcDbLine
 10
1931.2739723897823
 20
991.6421269389778
 30
0.0
 11
1911.7154001983788
 21
1215.1976300540555
 31
0.0
  0
LINE
  5
3D
330
17
100
AcDbEntity
  8
0
100
AcDbLine
 10
1931.2739723897823
 20
991.6421269389778
 30
0.0
 11
1625.355915495464
 21
964.8777649928463
 31
0.0
  0
LINE
  5
3E
330
17
100
AcDbEntity
  8
0
100
AcDbLine
 10
592.6851256038702
 20
327.9627323204255
 30
0.0
 11
624.7919812225418
 21
-39.02030667819804
 31
0.0
  0
LINE
  5
3F
330
17
100
AcDbEntity
  8
0
100
AcDbLine
 10
2036.8527541590047
 20
1243.9299396294937
 30
0.0
 11
1821.9257090588953
 21
1225.1262596981092
 31
0.0
  0
LINE
  5
40
330
17
100
AcDbEntity
  8
0
100
AcDbLine
 10
1911.7154001983788
 20
1215.1976300540555
 30
0.0
 11
1605.7973433040604
 21
1188.433268107924
 31
0.0
  0
LINE
  5
41
330
17
100
AcDbEntity
  8
0
100
AcDbLine
 10
1604.2532454994762
 20
1206.0823867749002
 30
0.0
 11
1598.385673842055
 21
1273.1490377094246
 31
0.0
  0
LINE
  5
42
330
17
100
AcDbEntity
  8
0
100
AcDbLine
 10
1625.355915495464
 20
964.8777649928463
 30
0.0
 11
1605.7973433040604
 21
1188.433268107924
 31
0.0
  0
LINE
  5
43
330
17
100
AcDbEntity
  8
0
100
AcDbLine
 10
1609.2508946330713
 20
945.6845485212812
 30
0.0
 11
1580.7365551750777
 21
1271.6049399048404
 31
0.0
  0
LINE
  5
44
330
17
100
AcDbEntity
  8
0
100
AcDbLine
 10
1306.5501119678659
 20
1898.5188101930912
 30
0.0
 11
1537.1620612893146
 21
1634.147385908233
 31
0.0
  0
LINE
  5
45
330
17
100
AcDbEntity
  8
0
100
AcDbLine
 10
1331.2556768412178
 20
1616.132911521414
 30
0.0
 11
1512.4564964159626
 21
1916.5332845799103
 31
0.0
  0
LINE
  5
46
330
17
100
AcDbEntity
  8
0
100
AcDbLine
 10
1821.9257090588953
 20
1225.1262596981092
 30
0.0
 11
1818.8375134497262
 21
1260.42449703207
 31
0.0
  0
LINE
  5
47
330
17
100
AcDbEntity
  8
0
100
AcDbLine
 10
1804.2765903919155
 20
1223.5821618935247
 30
0.0
 11
1801.1883947827464
 21
1258.8803992274854
 31
0.0
  0
LINE
  5
48
330
17
100
AcDbEntity
  8
0
100
AcDbLine
 10
1942.9424470814947
 20
1468.094192716655
 30
0.0
 11
1912.060490989805
 21
1821.0765660562502
 31
0.0
  0
LINE
  5
49
330
17
100
AcDbEntity
  8
0
100
AcDbLine
 10
1954.7085261928146
 20
1469.1235912530447
 30
0.0
 11
1923.8265701011248
 21
1822.1059645926398
 31
0.0
  0
LINE
  5
4A
330
17
100
AcDbEntity
  8
0
100
AcDbLine
 10
1770.867541653968
 20
1808.723783619574
 30
0.0
 11
1985.7945867540773
 21
1827.5274635509586
 31
0.0
  0
LINE
  5
4B
330
17
100
AcDbEntity
  8
0
100
AcDbLine
 10
1773.9557372631368
 20
1773.4255462856145
 30
0.0
 11
1915.1486865989739
 21
1785.7783287222906
 31
0.0
  0
LINE
  5
4C
330
17
100
AcDbEntity
  8
0
100
AcDbLine
 10
1777.0439328723057
 20
1738.1273089516553
 30
0.0
 11
1918.2368822081428
 21
1750.480091388331
 31
0.0
  0
LINE
  5
4D
330
17
100
AcDbEntity
  8
0
100
AcDbLine
 10
1780.1321284814746
 20
1702.8290716176966
 30
0.0
 11
1921.3250778173117
 21
1715.1818540543725
 31
0.0
  0
LINE
  5
4E
330
17
100
AcDbEntity
  8
0
100
AcDbLine
 10
1783.220324090644
 20
1667.5308342837338
 30
0.0
 11
1924.413273426481
 21
1679.8836167204097
 31
0.0
  0
LINE
  5
4F
330
17
100
AcDbEntity
  8
0
100
AcDbLine
 10
1786.308519699813
 20
1632.2325969497767
 30
0.0
 11
1927.50146903565
 21
1644.5853793864526
 31
0.0
  0
LINE
  5
50
330
17
100
AcDbEntity
  8
0
100
AcDbLine
 10
1789.3967153089818
 20
1596.9343596158171
 30
0.0
 11
1859.993189976901
 21
1603.1107508341552
 31
0.0
  0
LINE
  5
51
330
17
100
AcDbEntity
  8
0
100
AcDbLine
 10
1801.7494977456577
 20
1455.7414102799792
 30
0.0
 11
2016.676542845767
 21
1474.5450902113637
 31
0.0
  0
LINE
  5
52
330
17
100
AcDbEntity
  8
0
100
AcDbLine
 10
1818.8375134497262
 20
1260.42449703207
 30
0.0
 11
1801.1883947827464
 21
1258.8803992274854
 31
0.0
  0
LINE
  5
53
330
17
100
AcDbEntity
  8
0
100
AcDbLine
 10
1806.4847310130501
 20
1401.6174463679095
 30
0.0
 11
1788.8356123460703
 21
1400.073348563325
 31
0.0
  0
LINE
  5
54
330
17
100
AcDbEntity
  8
0
100
AcDbLine
 10
1788.8356123460703
 20
1400.073348563325
 30
0.0
 11
1740.865640550312
 21
1948.3726351508276
 31
0.0
  0
LINE
  5
55
330
17
100
AcDbEntity
  8
0
100
AcDbLine
 10
1806.4847310130501
 20
1401.6174463679095
 30
0.0
 11
1758.5147592172918
 21
1949.916732955412
 31
0.0
  0
LINE
  5
56
330
17
100
AcDbEntity
  8
0
100
AcDbLine
 10
1804.2765903919155
 20
1223.5821618935247
 30
0.0
 11
1604.2532454994762
 21
1206.0823867749002
 31
0.0
  0
LINE
  5
57
330
17
100
AcDbEntity
  8
0
100
AcDbLine
 10
1926.9147657102938
 20
1786.8077272586802
 30
0.0
 11
1988.8827823632462
 21
1792.229226216999
 31
0.0
  0
LINE
  5
58
330
17
100
AcDbEntity
  8
0
100
AcDbLine
 10
1930.0029613194627
 20
1751.5094899247206
 30
0.0
 11
1991.970977972415
 21
1756.9309888830398
 31
0.0
  0
LINE
  5
59
330
17
100
AcDbEntity
  8
0
100
AcDbLine
 10
1933.0911569286316
 20
1716.2112525907621
 30
0.0
 11
1995.059173581584
 21
1721.6327515490811
 31
0.0
  0
LINE
  5
5A
330
17
100
AcDbEntity
  8
0
100
AcDbLine
 10
1936.179352537801
 20
1680.9130152567993
 30
0.0
 11
1998.1473691907534
 21
1686.3345142151184
 31
0.0
  0
LINE
  5
5B
330
17
100
AcDbEntity
  8
0
100
AcDbLine
 10
1939.2675481469698
 20
1645.6147779228422
 30
0.0
 11
2001.2355647999223
 21
1651.0362768811613
 31
0.0
  0
LINE
  5
5C
330
17
100
AcDbEntity
  8
0
100
AcDbLine
 10
1942.3557437561387
 20
1610.3165405888826
 30
0.0
 11
2004.3237604090912
 21
1615.7380395472017
 31
0.0
  0
LINE
  5
5D
330
17
100
AcDbEntity
  8
0
100
AcDbLine
 10
1945.4439393653076
 20
1575.018303254923
 30
0.0
 11
2007.41195601826
 21
1580.439802213242
 31
0.0
  0
LINE
  5
5E
330
17
100
AcDbEntity
  8
0
100
AcDbLine
 10
1948.5321349744765
 20
1539.7200659209648
 30
0.0
 11
2010.500151627429
 21
1545.1415648792838
 31
0.0
  0
LINE
  5
5F
330
17
100
AcDbEntity
  8
0
100
AcDbLine
 10
1951.620330583646
 20
1504.421828587002
 30
0.0
 11
2013.5883472365983
 21
1509.843327545321
 31
0.0
  0
LINE
  5
60
330
17
100
AcDbEntity
  8
0
100
AcDbLine
 10
1973.3676461144257
 20
1803.1895088208316
 30
0.0
 11
1986.549479014096
 21
1818.8990055359925
 31
0.0
  0
LINE
  5
61
330
17
100
AcDbEntity
  8
0
100
AcDbLine
 10
1841.4640163218871
 20
1814.9001748379123
 30
0.0
 11
1859.993189976901
 21
1603.1107508341552
 31
0.0
  0
LINE
  5
62
330
17
100
AcDbEntity
  8
0
100
AcDbLine
 10
1834.900342986754
 20
1624.1661494887742
 30
0.0
 11
1859.993189976901
 21
1603.1107508341552
 31
0.0
  0
LINE
  5
63
330
17
100
AcDbEntity
  8
0
100
AcDbLine
 10
1881.0485886315178
 20
1628.2035978243005
 30
0.0
 11
1859.993189976901
 21
1603.1107508341552
 31
0.0
  0
LINE
  5
64
330
17
100
AcDbEntity
  8
0
100
AcDbLine
 10
1792.4849109181507
 20
1561.6361222818575
 30
0.0
 11
1927.50146903565
 21
1644.5853793864526
 31
0.0
  0
LINE
  5
65
330
17
100
AcDbEntity
  8
0
100
AcDbLine
 10
1238.3953921644174
 20
1918.639552434211
 30
0.0
 11
1566.668999370243
 21
1947.3597715994829
 31
0.0
  0
LINE
  5
66
330
17
100
AcDbEntity
  8
0
100
AcDbLine
 10
1239.630670408085
 20
1904.5202575006274
 30
0.0
 11
1567.9042776139106
 21
1933.2404766658992
 31
0.0
  0
LINE
  5
67
330
17
100
AcDbEntity
  8
0
100
AcDbLine
 10
541.643493183985
 20
1073.9908183106436
 30
0.0
 11
527.5241982504041
 21
1072.7555400669762
 31
0.0
  0
LINE
  5
68
330
17
100
AcDbEntity
  8
0
100
AcDbLine
 10
550.9080800114921
 20
968.096106308764
 30
0.0
 11
536.7887850779111
 21
966.8608280650967
 31
0.0
  0
LINE
  5
69
330
17
100
AcDbEntity
  8
0
100
AcDbLine
 10
565.6284790818646
 20
799.8411750168859
 30
0.0
 11
550.9080800114921
 21
968.096106308764
 31
0.0
  0
LINE
  5
6A
330
17
100
AcDbEntity
  8
0
100
AcDbLine
 10
551.5091841482837
 20
798.6058967732185
 30
0.0
 11
536.0682061024387
 21
975.0970834430169
 31
0.0
  0
LINE
  5
6B
330
17
100
AcDbEntity
  8
0
100
AcDbLine
 10
607.5249995129235
 20
320.9617551861735
 30
0.0
 11
638.9112761561228
 21
-37.78502843453077
 31
0.0
  0
LINE
  5
6C
330
17
100
AcDbEntity
  8
0
100
AcDbLine
 10
579.0106600549301
 20
646.88214656973
 30
0.0
 11
598.2604126854166
 21
426.8564671880516
 31
0.0
  0
LINE
  5
6D
330
17
100
AcDbEntity
  8
0
100
AcDbLine
 10
598.2604126854166
 20
426.8564671880516
 30
0.0
 11
584.1411177518356
 21
425.62118894438436
 31
0.0
  0
LINE
  5
6E
330
17
100
AcDbEntity
  8
0
100
AcDbLine
 10
607.5249995129235
 20
320.9617551861735
 30
0.0
 11
593.4057045793426
 21
319.7264769425062
 31
0.0
  0
LINE
  5
6F
330
17
100
AcDbEntity
  8
0
100
AcDbLine
 10
520.3349434807191
 20
1317.548655914963
 30
0.0
 11
506.21564854713813
 21
1316.3133776712957
 31
0.0
  0
LINE
  5
70
330
17
100
AcDbEntity
  8
0
100
AcDbLine
 10
511.0703566532123
 20
1423.4433679168392
 30
0.0
 11
496.95106171963135
 21
1422.2080896731718
 31
0.0
  0
LINE
  5
71
330
17
100
AcDbEntity
  8
0
100
AcDbLine
 10
520.3349434807191
 20
1317.548655914963
 30
0.0
 11
541.643493183985
 21
1073.9908183106436
 31
0.0
  0
LINE
  5
72
330
17
100
AcDbEntity
  8
0
100
AcDbLine
 10
1567.9042776139106
 20
1933.2404766658992
 30
0.0
 11
1566.668999370243
 21
1947.3597715994829
 31
0.0
  0
LINE
  5
73
330
17
100
AcDbEntity
  8
0
100
AcDbLine
 10
1709.0972269497474
 20
1945.5932591025753
 30
0.0
 11
1707.8619487060798
 21
1959.7125540361587
 31
0.0
  0
LINE
  5
74
330
17
100
AcDbEntity
  8
0
100
AcDbLine
 10
1709.0972269497474
 20
1945.5932591025753
 30
0.0
 11
1887.9416294418127
 21
1961.2401168556985
 31
0.0
  0
LINE
  5
75
330
17
100
AcDbEntity
  8
0
100
AcDbLine
 10
1707.8619487060798
 20
1959.7125540361587
 30
0.0
 11
1894.9426065760651
 21
1976.0799907647545
 31
0.0
  0
LINE
  5
76
330
17
100
AcDbEntity
  8
0
100
AcDbLine
 10
1887.9416294418127
 20
1961.2401168556985
 30
0.0
 11
1886.706351198145
 21
1975.359411789282
 31
0.0
  0
LINE
  5
77
330
17
100
AcDbEntity
  8
0
100
AcDbLine
 10
382.7080891087876
 20
1914.9134527747965
 30
0.0
 11
955.716141830064
 21
1965.0451614969734
 31
0.0
  0
LINE
  5
78
330
17
100
AcDbEntity
  8
0
100
AcDbLine
 10
382.7080891087876
 20
1914.9134527747965
 30
0.0
 11
478.33921313938765
 21
821.8447033331806
 31
0.0
  0
LINE
  5
79
330
17
100
AcDbEntity
  8
0
100
AcDbLine
 10
496.8683867944015
 20
610.055279329425
 30
0.0
 11
554.19550655462
 21
-45.19669789653631
 31
0.0
  0
LINE
  5
7A
330
17
100
AcDbEntity
  8
0
100
AcDbLine
 10
1039.6073255156527
 20
1887.0204823820036
 30
0.0
 11
1038.3720472719851
 21
1901.1397773155873
 31
0.0
  0
LINE
  5
7B
330
17
100
AcDbEntity
  8
0
100
AcDbLine
 10
1239.630670408085
 20
1904.5202575006274
 30
0.0
 11
1238.3953921644174
 21
1918.639552434211
 31
0.0
  0
LINE
  5
7C
330
17
100
AcDbEntity
  8
0
100
AcDbLine
 10
565.6284790818646
 20
799.8411750168859
 30
0.0
 11
551.5091841482837
 21
798.6058967732185
 31
0.0
  0
LINE
  5
7D
330
17
100
AcDbEntity
  8
0
100
AcDbLine
 10
579.0106600549301
 20
646.88214656973
 30
0.0
 11
564.8913651213492
 21
645.6468683260628
 31
0.0
  0
LINE
  5
7E
330
17
100
AcDbEntity
  8
0
100
AcDbLine
 10
591.2610410418267
 20
1862.0226329327797
 30
0.0
 11
592.4963192854943
 21
1847.903337999196
 31
0.0
  0
LINE
  5
7F
330
17
100
AcDbEntity
  8
0
100
AcDbLine
 10
779.5183068229469
 20
1878.4930095150144
 30
0.0
 11
780.7535850666145
 21
1864.373714581431
 31
0.0
  0
LINE
  5
80
330
17
100
AcDbEntity
  8
0
100
AcDbLine
 10
780.7535850666145
 20
1864.373714581431
 30
0.0
 11
1039.6073255156527
 21
1887.0204823820036
 31
0.0
  0
LINE
  5
81
330
17
100
AcDbEntity
  8
0
100
AcDbLine
 10
591.2610410418267
 20
1862.0226329327797
 30
0.0
 11
779.5183068229469
 21
1878.4930095150144
 31
0.0
  0
LINE
  5
82
330
17
100
AcDbEntity
  8
0
100
AcDbLine
 10
592.4963192854943
 20
1847.903337999196
 30
0.0
 11
780.7535850666145
 21
1864.373714581431
 31
0.0
  0
LINE
  5
83
330
17
100
AcDbEntity
  8
0
100
AcDbLine
 10
551.5091841482837
 20
798.6058967732185
 30
0.0
 11
564.8913651213492
 21
645.6468683260628
 31
0.0
  0
LINE
  5
84
330
17
100
AcDbEntity
  8
0
100
AcDbLine
 10
1038.3720472719851
 20
1901.1397773155873
 30
0.0
 11
1238.3953921644174
 21
1918.639552434211
 31
0.0
  0
LINE
  5
85
330
17
100
AcDbEntity
  8
0
100
AcDbLine
 10
311.11261329710067
 20
700.5090132854604
 30
0.0
 11
381.70908796501897
 21
706.6854045037983
 31
0.0
  0
LINE
  5
86
330
17
100
AcDbEntity
  8
0
100
AcDbLine
 10
360.65368931039853
 20
681.592557513651
 30
0.0
 11
381.70908796501897
 21
706.6854045037983
 31
0.0
  0
LINE
  5
87
330
17
100
AcDbEntity
  8
0
100
AcDbLine
 10
356.6162409748724
 20
727.7408031584114
 30
0.0
 11
381.70908796501897
 21
706.6854045037983
 31
0.0
  0
LINE
  5
88
330
17
100
AcDbEntity
  8
0
100
AcDbLine
 10
372.44450113751225
 20
812.5801165056739
 30
0.0
 11
390.9736747925261
 21
600.7906925019183
 31
0.0
  0
LINE
  5
89
330
17
100
AcDbEntity
  8
0
100
AcDbLine
 10
337.1462638035513
 20
809.4919208965048
 30
0.0
 11
355.6754374585651
 21
597.7024968927492
 31
0.0
  0
LINE
  5
8A
330
17
100
AcDbEntity
  8
0
100
AcDbLine
 10
301.84802646959054
 20
806.4037252873359
 30
0.0
 11
320.37720012460437
 21
594.6143012835802
 31
0.0
  0
LINE
  5
8B
330
17
100
AcDbEntity
  8
0
100
AcDbLine
 10
301.84802646959054
 20
806.4037252873359
 30
0.0
 11
548.9356878073095
 21
828.0210945515189
 31
0.0
  0
LINE
  5
8C
330
17
100
AcDbEntity
  8
0
100
AcDbLine
 10
320.37720012460437
 20
594.6143012835802
 30
0.0
 11
567.4648614623234
 21
616.2316705477633
 31
0.0
  0
LINE
  5
8D
330
17
100
AcDbEntity
  8
0
100
AcDbLine
 10
1332.1047960327746
 20
1267.6366893076367
 30
0.0
 11
1325.4137055462418
 21
1344.1162035312148
 31
0.0
  0
LINE
  5
8E
330
17
100
AcDbEntity
  8
0
100
AcDbLine
 10
1349.7539146997556
 20
1269.1807871122214
 30
0.0
 11
1343.0628242132227
 21
1345.6603013357994
 31
0.0
  0
LINE
  5
8F
330
17
100
AcDbEntity
  8
0
100
AcDbLine
 10
1332.768838849326
 20
1463.3210924489997
 30
0.0
 11
1562.2073815200636
 21
1483.3943639085983
 31
0.0
  0
LINE
  5
90
330
17
100
AcDbEntity
  8
0
100
AcDbLine
 10
1331.2247410447414
 20
1480.9702111159784
 30
0.0
 11
1578.3124023824564
 21
1502.5875803801612
 31
0.0
  0
LINE
  5
91
330
17
100
AcDbEntity
  8
0
100
AcDbLine
 10
1331.2247410447414
 20
1480.9702111159784
 30
0.0
 11
1293.7546343201577
 21
1909.25549076802
 31
0.0
  0
LINE
  5
92
330
17
100
AcDbEntity
  8
0
100
AcDbLine
 10
1596.5327564765535
 20
1294.3279801098015
 30
0.0
 11
1578.3124023824564
 21
1502.5875803801612
 31
0.0
  0
LINE
  5
93
330
17
100
AcDbEntity
  8
0
100
AcDbLine
 10
1578.8836378095762
 20
1292.7838823052173
 30
0.0
 11
1562.2073815200636
 21
1483.3943639085983
 31
0.0
  0
LINE
  5
94
330
17
100
AcDbEntity
  8
0
100
AcDbLine
 10
1349.7539146997556
 20
1269.1807871122214
 30
0.0
 11
1579.1924573704932
 21
1289.25405857182
 31
0.0
  0
LINE
  5
95
330
17
100
AcDbEntity
  8
0
100
AcDbLine
 10
1072.4419375660589
 20
1227.1349231328068
 30
0.0
 11
1097.150703699835
 21
1229.2966600592254
 31
0.0
  0
LINE
  5
96
330
17
100
AcDbEntity
  8
0
100
AcDbLine
 10
1070.8978397614744
 20
1244.7840417997863
 30
0.0
 11
1095.6066058952506
 21
1246.945778726205
 31
0.0
  0
LINE
  5
97
330
17
100
AcDbEntity
  8
0
100
AcDbLine
 10
552.0137509522702
 20
1199.3875663450021
 30
0.0
 11
1049.7188973611012
 21
1242.931124434285
 31
0.0
  0
LINE
  5
98
330
17
100
AcDbEntity
  8
0
100
AcDbLine
 10
553.5578487568547
 20
1181.7384476780226
 30
0.0
 11
1051.2629951656857
 21
1225.2820057673055
 31
0.0
  0
LINE
  5
99
330
17
100
AcDbEntity
  8
0
100
AcDbLine
 10
507.26158206857053
 20
1466.9778606287225
 30
0.0
 11
1026.145670877778
 21
1512.374336083507
 31
0.0
  0
LINE
  5
9A
330
17
100
AcDbEntity
  8
0
100
AcDbLine
 10
508.8056798731549
 20
1449.328741961745
 30
0.0
 11
1027.6897686823622
 21
1494.7252174165294
 31
0.0
  0
LINE
  5
9B
330
17
100
AcDbEntity
  8
0
100
AcDbLine
 10
1026.145670877778
 20
1512.374336083507
 30
0.0
 11
1019.9692796594397
 21
1582.9708107514293
 31
0.0
  0
LINE
  5
9C
330
17
100
AcDbEntity
  8
0
100
AcDbLine
 10
1019.9692796594397
 20
1582.9708107514293
 30
0.0
 11
1037.6183983264168
 21
1584.5149085560136
 31
0.0
  0
LINE
  5
9D
330
17
100
AcDbEntity
  8
0
100
AcDbLine
 10
1033.7632200470614
 20
1425.3053506597423
 30
0.0
 11
1051.4123387140385
 21
1426.8494484643265
 31
0.0
  0
LINE
  5
9E
330
17
100
AcDbEntity
  8
0
100
AcDbLine
 10
1033.7632200470614
 20
1425.3053506597423
 30
0.0
 11
1027.6897686823622
 21
1494.7252174165294
 31
0.0
  0
LINE
  5
9F
330
17
100
AcDbEntity
  8
0
100
AcDbLine
 10
1051.4123387140385
 20
1426.8494484643265
 30
0.0
 11
1037.6183983264168
 21
1584.5149085560136
 31
0.0
  0
LINE
  5
A0
330
17
100
AcDbEntity
  8
0
100
AcDbLine
 10
1009.6752942955432
 20
1700.6316018646276
 30
0.0
 11
995.5725343470046
 21
1861.8268856897096
 31
0.0
  0
LINE
  5
A1
330
17
100
AcDbEntity
  8
0
100
AcDbLine
 10
1027.3244129625202
 20
1702.175699669212
 30
0.0
 11
1013.2216530139817
 21
1863.3709834942938
 31
0.0
  0
LINE
  5
A2
330
17
100
AcDbEntity
  8
0
100
AcDbLine
 10
1009.6752942955432
 20
1700.6316018646276
 30
0.0
 11
1027.3244129625202
 21
1702.175699669212
 31
0.0
  0
LINE
  5
A3
330
17
100
AcDbEntity
  8
0
100
AcDbLine
 10
1044.057205410958
 20
1307.644559546544
 30
0.0
 11
1061.706324077935
 21
1309.1886573511283
 31
0.0
  0
LINE
  5
A4
330
17
100
AcDbEntity
  8
0
100
AcDbLine
 10
1067.0591964671612
 20
1248.0050459722665
 30
0.0
 11
1061.706324077935
 21
1309.1886573511283
 31
0.0
  0
LINE
  5
A5
330
17
100
AcDbEntity
  8
0
100
AcDbLine
 10
1049.4100778001841
 20
1246.4609481676823
 30
0.0
 11
1044.057205410958
 21
1307.644559546544
 31
0.0
  0
LINE
  5
A6
330
17
100
AcDbEntity
  8
0
100
AcDbLine
 10
1095.6066058952506
 20
1246.945778726205
 30
0.0
 11
1097.150703699835
 21
1229.2966600592254
 31
0.0
  0
LINE
  5
A7
330
17
100
AcDbEntity
  8
0
100
AcDbLine
 10
1295.629950787683
 20
1264.4455538448287
 30
0.0
 11
1297.1740485922674
 21
1246.7964351778492
 31
0.0
  0
LINE
  5
A8
330
17
100
AcDbEntity
  8
0
100
AcDbLine
 10
1295.629950787683
 20
1264.4455538448287
 30
0.0
 11
1332.1047960327746
 21
1267.6366893076367
 31
0.0
  0
LINE
  5
A9
330
17
100
AcDbEntity
  8
0
100
AcDbLine
 10
1297.1740485922674
 20
1246.7964351778492
 30
0.0
 11
1580.7365551750777
 21
1271.6049399048404
 31
0.0
  0
LINE
  5
AA
330
17
100
AcDbEntity
  8
0
100
AcDbLine
 10
1316.1491187187348
 20
1450.010915533094
 30
0.0
 11
1333.7982373857158
 21
1451.5550133376787
 31
0.0
  0
LINE
  5
AB
330
17
100
AcDbEntity
  8
0
100
AcDbLine
 10
1325.4137055462418
 20
1344.1162035312148
 30
0.0
 11
1343.0628242132227
 21
1345.6603013357994
 31
0.0
  0
LINE
  5
AC
330
17
100
AcDbEntity
  8
0
100
AcDbLine
 10
1333.7982373857158
 20
1451.5550133376787
 30
0.0
 11
1332.768838849326
 21
1463.3210924489997
 31
0.0
  0
LINE
  5
AD
330
17
100
AcDbEntity
  8
0
100
AcDbLine
 10
1316.1491187187348
 20
1450.010915533094
 30
0.0
 11
1276.1055156531768
 21
1907.7113929634356
 31
0.0
  0
LINE
  5
AE
330
17
100
AcDbEntity
  8
0
100
AcDbLine
 10
961.892533048402
 20
1894.4486868290542
 30
0.0
 11
954.201513873968
 21
1982.357438254376
 31
0.0
  0
LINE
  5
AF
330
17
100
AcDbEntity
  8
0
100
AcDbLine
 10
1314.8749063879964
 20
1925.330642920744
 30
0.0
 11
1307.1838872135625
 21
2013.2393943460656
 31
0.0
  0
LINE
  5
B0
330
17
100
AcDbEntity
  8
0
100
AcDbLine
 10
948.5342866431972
 20
2047.1341419137188
 30
0.0
 11
1301.5166599827917
 21
2078.016098005409
 31
0.0
  0
LINE
  5
B1
330
17
100
AcDbEntity
  8
0
100
AcDbLine
 10
1308.6985151696585
 20
1995.9271175886631
 30
0.0
 11
1525.1943708179447
 21
2014.868050658233
 31
0.0
  0
LINE
  5
B2
330
17
100
AcDbEntity
  8
0
100
AcDbLine
 10
1305.3525800876691
 20
2034.1713305774454
 30
0.0
 11
1301.5166599827917
 21
2078.016098005409
 31
0.0
  0
LINE
  5
B3
330
17
100
AcDbEntity
  8
0
100
AcDbLine
 10
952.3702067480747
 20
2003.2893744857556
 30
0.0
 11
948.5342866431972
 21
2047.1341419137188
 31
0.0
  0
LINE
  5
B4
330
17
100
AcDbEntity
  8
0
100
AcDbLine
 10
1783.245924453089
 20
1328.4474753590125
 30
0.0
 11
1824.4272013427083
 21
1332.0503702363762
 31
0.0
  0
LINE
  5
B5
330
17
100
AcDbEntity
  8
0
100
AcDbLine
 10
1636.2360755017712
 20
1965.302241929141
 30
0.0
 11
1639.530150818218
 21
1927.650788772919
 31
0.0
  0
LINE
  5
B6
330
17
100
AcDbEntity
  8
0
100
AcDbLine
 10
1037.6183983264168
 20
1584.5149085560136
 30
0.0
 11
1113.5381947460874
 21
1674.9925986881767
 31
0.0
  0
LINE
  5
B7
330
17
100
AcDbEntity
  8
0
100
AcDbLine
 10
1061.706324077935
 20
1309.1886573511283
 30
0.0
 11
1137.6261204976054
 21
1399.666347483294
 31
0.0
  0
LINE
  5
B8
330
17
100
AcDbEntity
  8
0
100
AcDbLine
 10
1325.4137055462418
 20
1344.1162035312148
 30
0.0
 11
1243.983784427297
 21
1412.4440203089184
 31
0.0
  0
LINE
  5
B9
330
17
100
AcDbEntity
  8
0
100
AcDbLine
 10
600.0119956879414
 20
1856.8601723525937
 30
0.0
 11
771.7967507132118
 21
1871.889390983883
 31
0.0
  0
LINE
  5
BA
330
17
100
AcDbEntity
  8
0
100
AcDbLine
 10
771.7967507132118
 20
1871.889390983883
 30
0.0
 11
771.5394010791146
 21
1874.8309107617115
 31
0.0
  0
LINE
  5
BB
330
17
100
AcDbEntity
  8
0
100
AcDbLine
 10
771.5394010791146
 20
1874.8309107617115
 30
0.0
 11
599.7546460538441
 21
1859.8016921304225
 31
0.0
  0
LINE
  5
BC
330
17
100
AcDbEntity
  8
0
100
AcDbLine
 10
599.7546460538441
 20
1859.8016921304225
 30
0.0
 11
600.0119956879414
 21
1856.8601723525937
 31
0.0
  0
LINE
  5
BD
330
17
100
AcDbEntity
  8
0
100
AcDbLine
 10
600.0119956879414
 20
1856.8601723525937
 30
0.0
 11
600.0119956879414
 21
1856.8601723525937
 31
0.0
  0
LINE
  5
BE
330
17
100
AcDbEntity
  8
0
100
AcDbLine
 10
1038.3720472719851
 20
1901.1397773155873
 30
0.0
 11
771.2820514450201
 21
1877.7724305395413
 31
0.0
  0
LINE
  5
BF
330
17
100
AcDbEntity
  8
0
100
AcDbLine
 10
771.2820514450201
 20
1877.7724305395413
 30
0.0
 11
771.7967507132148
 21
1871.889390983883
 31
0.0
  0
LINE
  5
C0
330
17
100
AcDbEntity
  8
0
100
AcDbLine
 10
771.7967507132148
 20
1871.889390983883
 30
0.0
 11
780.0330060911416
 21
1872.609969959356
 31
0.0
  0
LINE
  5
C1
330
17
100
AcDbEntity
  8
0
100
AcDbLine
 10
779.5183068229469
 20
1878.4930095150144
 30
0.0
 11
779.5183068229469
 21
1878.4930095150144
 31
0.0
  0
LINE
  5
C2
330
17
100
AcDbEntity
  8
0
100
AcDbLine
 10
591.7757403100214
 20
1856.1395933771214
 30
0.0
 11
600.011995687948
 21
1856.8601723525944
 31
0.0
  0
LINE
  5
C3
330
17
100
AcDbEntity
  8
0
100
AcDbLine
 10
600.011995687948
 20
1856.8601723525944
 30
0.0
 11
599.4972964197533
 21
1862.7432119082528
 31
0.0
  0
LINE
  5
C4
330
17
100
AcDbEntity
  8
0
100
AcDbLine
 10
599.4972964197533
 20
1862.7432119082528
 30
0.0
 11
599.4972964197533
 21
1862.7432119082528
 31
0.0
  0
LINE
  5
C5
330
17
100
AcDbEntity
  8
0
100
AcDbLine
 10
1038.3720472719851
 20
1901.1397773155873
 30
0.0
 11
1091.5159047657485
 21
1964.4741604081007
 31
0.0
  0
LINE
  5
C6
330
17
100
AcDbEntity
  8
0
100
AcDbLine
 10
1238.3953921644174
 20
1918.639552434211
 30
0.0
 11
1147.9177020322575
 21
1994.5593488538839
 31
0.0
  0
LINE
  5
C7
330
17
100
AcDbEntity
  8
0
100
AcDbLine
 10
1097.150703699835
 20
1229.2966600592254
 30
0.0
 11
1160.4850867923433
 21
1176.152802565456
 31
0.0
  0
LINE
  5
C8
330
17
100
AcDbEntity
  8
0
100
AcDbLine
 10
1297.1740485922674
 20
1246.7964351778492
 30
0.0
 11
1221.2542521726004
 21
1156.3187450456837
 31
0.0
  0
LINE
  5
C9
330
17
100
AcDbEntity
  8
0
100
AcDbLine
 10
551.5091841482837
 20
798.6058967732185
 30
0.0
 11
483.1813673705817
 21
717.1759756542735
 31
0.0
  0
LINE
  5
CA
330
17
100
AcDbEntity
  8
0
100
AcDbLine
 10
564.8913651213492
 20
645.6468683260628
 30
0.0
 11
528.7002890684828
 21
676.0147868939287
 31
0.0
  0
LINE
  5
CB
330
17
100
AcDbEntity
  8
0
100
AcDbLine
 10
1566.668999370243
 20
1947.3597715994829
 30
0.0
 11
1707.8619487060798
 21
1959.7125540361587
 31
0.0
  0
LINE
  5
CC
330
17
100
AcDbEntity
  8
0
100
AcDbLine
 10
1707.8619487060798
 20
1959.7125540361587
 30
0.0
 11
1709.0972269497474
 21
1945.5932591025753
 31
0.0
  0
LINE
  5
CD
330
17
100
AcDbEntity
  8
0
100
AcDbLine
 10
1709.0972269497474
 20
1945.5932591025753
 30
0.0
 11
1567.9042776139106
 21
1933.2404766658992
 31
0.0
  0
LINE
  5
CE
330
17
100
AcDbEntity
  8
0
100
AcDbLine
 10
1567.9042776139106
 20
1933.2404766658992
 30
0.0
 11
1566.668999370243
 21
1947.3597715994829
 31
0.0
  0
LINE
  5
CF
330
17
100
AcDbEntity
  8
0
100
AcDbLine
 10
1566.668999370243
 20
1947.3597715994829
 30
0.0
 11
1566.668999370243
 21
1947.3597715994829
 31
0.0
  0
LINE
  5
D0
330
17
100
AcDbEntity
  8
0
100
AcDbLine
 10
1788.8356123460703
 20
1400.073348563325
 30
0.0
 11
1801.1883947827464
 21
1258.8803992274854
 31
0.0
  0
LINE
  5
D1
330
17
100
AcDbEntity
  8
0
100
AcDbLine
 10
1801.1883947827464
 20
1258.8803992274854
 30
0.0
 11
1818.8375134497262
 21
1260.42449703207
 31
0.0
  0
LINE
  5
D2
330
17
100
AcDbEntity
  8
0
100
AcDbLine
 10
1818.8375134497262
 20
1260.42449703207
 30
0.0
 11
1806.4847310130501
 21
1401.6174463679095
 31
0.0
  0
LINE
  5
D3
330
17
100
AcDbEntity
  8
0
100
AcDbLine
 10
1806.4847310130501
 20
1401.6174463679095
 30
0.0
 11
1788.8356123460703
 21
1400.073348563325
 31
0.0
  0
LINE
  5
D4
330
17
100
AcDbEntity
  8
0
100
AcDbLine
 10
1788.8356123460703
 20
1400.073348563325
 30
0.0
 11
1788.8356123460703
 21
1400.073348563325
 31
0.0
  0
LINE
  5
D5
330
17
100
AcDbEntity
  8
0
100
AcDbLine
 10
1324.771132575778
 20
2014.7780789379085
 30
0.0
 11
1148.0043348110191
 21
1999.3129880457102
 31
0.0
  0
LINE
  5
D6
330
17
100
AcDbEntity
  8
0
100
AcDbLine
 10
1148.0043348110191
 20
1999.3129880457102
 30
0.0
 11
1144.787682940833
 21
1974.6150609267424
 31
0.0
  0
LINE
  5
D7
330
17
100
AcDbEntity
  8
0
100
AcDbLine
 10
1144.787682940833
 20
1974.6150609267424
 30
0.0
 11
1129.8746154671276
 21
2022.14334967603
 31
0.0
  0
LINE
  5
D8
330
17
100
AcDbEntity
  8
0
100
AcDbLine
 10
1129.8746154671276
 20
2022.14334967603
 30
0.0
 11
1126.657963596942
 21
1997.4454225570623
 31
0.0
  0
LINE
  5
D9
330
17
100
AcDbEntity
  8
0
100
AcDbLine
 10
1126.657963596942
 20
1997.4454225570623
 30
0.0
 11
938.0719103169811
 21
1980.946280795972
 31
0.0
  0
LINE
  5
DA
330
17
100
AcDbEntity
  8
0
100
AcDbLine
 10
1322.9398254498847
 20
2035.7100151692882
 30
0.0
 11
1146.1730276851256
 21
2020.244924277092
 31
0.0
  0
LINE
  5
DB
330
17
100
AcDbEntity
  8
0
100
AcDbLine
 10
1146.1730276851256
 20
2020.244924277092
 30
0.0
 11
1142.9563758149397
 21
1995.5469971581244
 31
0.0
  0
LINE
  5
DC
330
17
100
AcDbEntity
  8
0
100
AcDbLine
 10
1142.9563758149397
 20
1995.5469971581244
 30
0.0
 11
1128.043308341234
 21
2043.0752859074128
 31
0.0
  0
LINE
  5
DD
330
17
100
AcDbEntity
  8
0
100
AcDbLine
 10
1128.043308341234
 20
2043.0752859074128
 30
0.0
 11
1124.8266564710484
 21
2018.377358788444
 31
0.0
  0
LINE
  5
DE
330
17
100
AcDbEntity
  8
0
100
AcDbLine
 10
1124.8266564710484
 20
2018.377358788444
 30
0.0
 11
936.2406031910878
 21
2001.8782170273516
 31
0.0
  0
LINE
  5
DF
330
17
100
AcDbEntity
  8
0
100
AcDbLine
 10
390.9736747925261
 20
600.7906925019183
 30
0.0
 11
372.44450113751225
 21
812.5801165056739
 31
0.0
  0
LINE
  5
E0
330
17
100
AcDbEntity
  8
0
100
AcDbLine
 10
1544.608934895028
 20
2063.991164176293
 30
0.0
 11
1562.2580535620043
 21
2065.5352619808773
 31
0.0
  0
LINE
  5
E1
330
17
100
AcDbEntity
  8
0
100
AcDbLine
 10
1562.2580535620043
 20
2065.5352619808773
 30
0.0
 11
1563.8021513665888
 21
2047.8861433138961
 31
0.0
  0
LINE
  5
E2
330
17
100
AcDbEntity
  8
0
100
AcDbLine
 10
1563.8021513665888
 20
2047.8861433138961
 30
0.0
 11
1546.1530326996124
 21
2046.3420455093121
 31
0.0
  0
LINE
  5
E3
330
17
100
AcDbEntity
  8
0
100
AcDbLine
 10
1546.1530326996124
 20
2046.3420455093121
 30
0.0
 11
1544.608934895028
 21
2063.991164176293
 31
0.0
  0
LINE
  5
E4
330
17
100
AcDbEntity
  8
0
100
AcDbLine
 10
1544.608934895028
 20
2063.991164176293
 30
0.0
 11
1544.608934895028
 21
2063.991164176293
 31
0.0
  0
LINE
  5
E5
330
17
100
AcDbEntity
  8
0
100
AcDbLine
 10
1882.8837093454715
 20
2093.5863720974958
 30
0.0
 11
1900.5328280124493
 21
2095.13046990208
 31
0.0
  0
LINE
  5
E6
330
17
100
AcDbEntity
  8
0
100
AcDbLine
 10
1900.5328280124493
 20
2095.13046990208
 30
0.0
 11
1902.0769258170337
 21
2077.4813512350993
 31
0.0
  0
LINE
  5
E7
330
17
100
AcDbEntity
  8
0
100
AcDbLine
 10
1902.0769258170337
 20
2077.4813512350993
 30
0.0
 11
1884.427807150056
 21
2075.937253430515
 31
0.0
  0
LINE
  5
E8
330
17
100
AcDbEntity
  8
0
100
AcDbLine
 10
1884.427807150056
 20
2075.937253430515
 30
0.0
 11
1882.8837093454715
 21
2093.5863720974958
 31
0.0
  0
LINE
  5
E9
330
17
100
AcDbEntity
  8
0
100
AcDbLine
 10
1882.8837093454715
 20
2093.5863720974958
 30
0.0
 11
1882.8837093454715
 21
2093.5863720974958
 31
0.0
  0
LINE
  5
EA
330
17
100
AcDbEntity
  8
0
100
AcDbLine
 10
1887.9416294418127
 20
1961.2401168556985
 30
0.0
 11
1886.706351198145
 21
1975.359411789282
 31
0.0
  0
LINE
  5
EB
330
17
100
AcDbEntity
  8
0
100
AcDbLine
 10
1886.706351198145
 20
1975.359411789282
 30
0.0
 11
1972.2065260737336
 21
1982.83970782038
 31
0.0
  0
LINE
  5
EC
330
17
100
AcDbEntity
  8
0
100
AcDbLine
 10
1973.4418043174012
 20
1968.7204128867966
 30
0.0
 11
1887.9416294418127
 21
1961.2401168556985
 31
0.0
  0
LINE
  5
ED
330
17
100
AcDbEntity
  8
0
100
AcDbLine
 10
1887.9416294418127
 20
1961.2401168556985
 30
0.0
 11
1887.9416294418127
 21
1961.2401168556985
 31
0.0
  0
LINE
  5
EE
330
17
100
AcDbEntity
  8
0
100
AcDbLine
 10
1531.3707620362825
 20
1944.2715759903137
 30
0.0
 11
1519.0179795996064
 21
2085.4645253261533
 31
0.0
  0
LINE
  5
EF
330
17
100
AcDbEntity
  8
0
100
AcDbLine
 10
1519.0179795996064
 20
2085.4645253261533
 30
0.0
 11
1959.8537436370575
 21
2124.0326571562196
 31
0.0
  0
LINE
  5
F0
330
17
100
AcDbEntity
  8
0
100
AcDbLine
 10
511.0703566532123
 20
1423.4433679168392
 30
0.0
 11
496.95106171963135
 21
1422.2080896731718
 31
0.0
  0
LINE
  5
F1
330
17
100
AcDbEntity
  8
0
100
AcDbLine
 10
496.95106171963135
 20
1422.2080896731718
 30
0.0
 11
506.21564854713813
 21
1316.3133776712957
 31
0.0
  0
LINE
  5
F2
330
17
100
AcDbEntity
  8
0
100
AcDbLine
 10
506.21564854713813
 20
1316.3133776712957
 30
0.0
 11
520.3349434807191
 21
1317.548655914963
 31
0.0
  0
LINE
  5
F3
330
17
100
AcDbEntity
  8
0
100
AcDbLine
 10
520.3349434807191
 20
1317.548655914963
 30
0.0
 11
511.0703566532123
 21
1423.4433679168392
 31
0.0
  0
LINE
  5
F4
330
17
100
AcDbEntity
  8
0
100
AcDbLine
 10
511.0703566532123
 20
1423.4433679168392
 30
0.0
 11
511.0703566532123
 21
1423.4433679168392
 31
0.0
  0
LINE
  5
F5
330
17
100
AcDbEntity
  8
0
100
AcDbLine
 10
598.2604126854166
 20
426.8564671880516
 30
0.0
 11
584.1411177518356
 21
425.62118894438436
 31
0.0
  0
LINE
  5
F6
330
17
100
AcDbEntity
  8
0
100
AcDbLine
 10
584.1411177518356
 20
425.62118894438436
 30
0.0
 11
593.4057045793426
 21
319.7264769425062
 31
0.0
  0
LINE
  5
F7
330
17
100
AcDbEntity
  8
0
100
AcDbLine
 10
593.4057045793426
 20
319.7264769425062
 30
0.0
 11
607.5249995129235
 21
320.9617551861735
 31
0.0
  0
LINE
  5
F8
330
17
100
AcDbEntity
  8
0
100
AcDbLine
 10
607.5249995129235
 20
320.9617551861735
 30
0.0
 11
598.2604126854166
 21
426.8564671880516
 31
0.0
  0
LINE
  5
F9
330
17
100
AcDbEntity
  8
0
100
AcDbLine
 10
598.2604126854166
 20
426.8564671880516
 30
0.0
 11
598.2604126854166
 21
426.8564671880516
 31
0.0
  0
LINE
  5
FA
330
17
100
AcDbEntity
  8
0
100
AcDbLine
 10
541.643493183985
 20
1073.9908183106436
 30
0.0
 11
527.5241982504041
 21
1072.7555400669762
 31
0.0
  0
LINE
  5
FB
330
17
100
AcDbEntity
  8
0
100
AcDbLine
 10
527.5241982504041
 20
1072.7555400669762
 30
0.0
 11
536.7887850779111
 21
966.8608280650967
 31
0.0
  0
LINE
  5
FC
330
17
100
AcDbEntity
  8
0
100
AcDbLine
 10
536.7887850779111
 20
966.8608280650967
 30
0.0
 11
550.9080800114921
 21
968.096106308764
 31
0.0
  0
LINE
  5
FD
330
17
100
AcDbEntity
  8
0
100
AcDbLine
 10
550.9080800114921
 20
968.096106308764
 30
0.0
 11
541.643493183985
 21
1073.9908183106436
 31
0.0
  0
LINE
  5
FE
330
17
100
AcDbEntity
  8
0
100
AcDbLine
 10
541.643493183985
 20
1073.9908183106436
 30
0.0
 11
541.643493183985
 21
1073.9908183106436
 31
0.0
  0
LINE
  5
FF
330
17
100
AcDbEntity
  8
0
100
AcDbLine
 10
1306.5501119678659
 20
1898.5188101930912
 30
0.0
 11
1331.2556768412178
 21
1616.132911521414
 31
0.0
  0
LINE
  5
100
330
17
100
AcDbEntity
  8
0
100
AcDbLine
 10
1331.2556768412178
 20
1616.132911521414
 30
0.0
 11
1537.1620612893146
 21
1634.147385908233
 31
0.0
  0
LINE
  5
101
330
17
100
AcDbEntity
  8
0
100
AcDbLine
 10
1537.1620612893146
 20
1634.147385908233
 30
0.0
 11
1512.4564964159626
 21
1916.5332845799103
 31
0.0
  0
LINE
  5
102
330
17
100
AcDbEntity
  8
0
100
AcDbLine
 10
1512.4564964159626
 20
1916.5332845799103
 30
0.0
 11
1306.5501119678659
 21
1898.5188101930912
 31
0.0
  0
LINE
  5
103
330
17
100
AcDbEntity
  8
0
100
AcDbLine
 10
1306.5501119678659
 20
1898.5188101930912
 30
0.0
 11
1306.5501119678659
 21
1898.5188101930912
 31
0.0
  0
LINE
  5
104
330
17
100
AcDbEntity
  8
0
100
AcDbLine
 10
1635.500557311008
 20
645.6495311826242
 30
0.0
 11
1656.6794997113811
 21
647.5024485481252
 31
0.0
  0
LINE
  5
105
330
17
100
AcDbEntity
  8
0
100
AcDbLine
 10
1656.6794997113811
 20
647.5024485481252
 30
0.0
 11
1658.5324170768822
 21
626.3235061477521
 31
0.0
  0
LINE
  5
106
330
17
100
AcDbEntity
  8
0
100
AcDbLine
 10
1658.5324170768822
 20
626.3235061477521
 30
0.0
 11
1637.353474676509
 21
624.4705887822511
 31
0.0
  0
LINE
  5
107
330
17
100
AcDbEntity
  8
0
100
AcDbLine
 10
1637.353474676509
 20
624.4705887822511
 30
0.0
 11
1635.500557311008
 21
645.6495311826242
 31
0.0
  0
LINE
  5
108
330
17
100
AcDbEntity
  8
0
100
AcDbLine
 10
1635.500557311008
 20
645.6495311826242
 30
0.0
 11
1635.500557311008
 21
645.6495311826242
 31
0.0
  0
LINE
  5
109
330
17
100
AcDbEntity
  8
0
100
AcDbLine
 10
1106.026997301616
 20
599.3265970450892
 30
0.0
 11
1127.205939701989
 21
601.1795144105905
 31
0.0
  0
LINE
  5
10A
330
17
100
AcDbEntity
  8
0
100
AcDbLine
 10
1127.205939701989
 20
601.1795144105905
 30
0.0
 11
1129.0588570674902
 21
580.0005720102174
 31
0.0
  0
LINE
  5
10B
330
17
100
AcDbEntity
  8
0
100
AcDbLine
 10
1129.0588570674902
 20
580.0005720102174
 30
0.0
 11
1107.879914667117
 21
578.1476546447161
 31
0.0
  0
LINE
  5
10C
330
17
100
AcDbEntity
  8
0
100
AcDbLine
 10
1107.879914667117
 20
578.1476546447161
 30
0.0
 11
1106.026997301616
 21
599.3265970450892
 31
0.0
  0
LINE
  5
10D
330
17
100
AcDbEntity
  8
0
100
AcDbLine
 10
1106.026997301616
 20
599.3265970450892
 30
0.0
 11
1106.026997301616
 21
599.3265970450892
 31
0.0
  0
LINE
  5
10E
330
17
100
AcDbEntity
  8
0
100
AcDbLine
 10
587.1429084924083
 20
553.9301215903048
 30
0.0
 11
608.3218508927849
 21
555.7830389558063
 31
0.0
  0
LINE
  5
10F
330
17
100
AcDbEntity
  8
0
100
AcDbLine
 10
608.3218508927849
 20
555.7830389558063
 30
0.0
 11
610.1747682582861
 21
534.6040965554332
 31
0.0
  0
LINE
  5
110
330
17
100
AcDbEntity
  8
0
100
AcDbLine
 10
610.1747682582861
 20
534.6040965554332
 30
0.0
 11
588.9958258579095
 21
532.7511791899317
 31
0.0
  0
LINE
  5
111
330
17
100
AcDbEntity
  8
0
100
AcDbLine
 10
588.9958258579095
 20
532.7511791899317
 30
0.0
 11
587.1429084924083
 21
553.9301215903048
 31
0.0
  0
LINE
  5
112
330
17
100
AcDbEntity
  8
0
100
AcDbLine
 10
587.1429084924083
 20
553.9301215903048
 30
0.0
 11
587.1429084924083
 21
553.9301215903048
 31
0.0
  0
LINE
  5
113
330
17
100
AcDbEntity
  8
0
100
AcDbLine
 10
1578.8836378095762
 20
1292.7838823052173
 30
0.0
 11
1600.0625802099494
 21
1294.6367996707183
 31
0.0
  0
LINE
  5
114
330
17
100
AcDbEntity
  8
0
100
AcDbLine
 10
1600.0625802099494
 20
1294.6367996707183
 30
0.0
 11
1601.915497575451
 21
1273.4578572703415
 31
0.0
  0
LINE
  5
115
330
17
100
AcDbEntity
  8
0
100
AcDbLine
 10
1601.915497575451
 20
1273.4578572703415
 30
0.0
 11
1580.7365551750777
 21
1271.6049399048404
 31
0.0
  0
LINE
  5
116
330
17
100
AcDbEntity
  8
0
100
AcDbLine
 10
1580.7365551750777
 20
1271.6049399048404
 30
0.0
 11
1578.8836378095762
 21
1292.7838823052173
 31
0.0
  0
LINE
  5
117
330
17
100
AcDbEntity
  8
0
100
AcDbLine
 10
1578.8836378095762
 20
1292.7838823052173
 30
0.0
 11
1578.8836378095762
 21
1292.7838823052173
 31
0.0
  0
LINE
  5
118
330
17
100
AcDbEntity
  8
0
100
AcDbLine
 10
1523.1931769908954
 20
1929.3287622276189
 30
0.0
 11
1544.3721193912686
 21
1931.18167959312
 31
0.0
  0
LINE
  5
119
330
17
100
AcDbEntity
  8
0
100
AcDbLine
 10
1544.3721193912686
 20
1931.18167959312
 30
0.0
 11
1546.22503675677
 21
1910.0027371927456
 31
0.0
  0
LINE
  5
11A
330
17
100
AcDbEntity
  8
0
100
AcDbLine
 10
1546.22503675677
 20
1910.0027371927456
 30
0.0
 11
1525.0460943563967
 21
1908.1498198272445
 31
0.0
  0
LINE
  5
11B
330
17
100
AcDbEntity
  8
0
100
AcDbLine
 10
1525.0460943563967
 20
1908.1498198272445
 30
0.0
 11
1523.1931769908954
 21
1929.3287622276189
 31
0.0
  0
LINE
  5
11C
330
17
100
AcDbEntity
  8
0
100
AcDbLine
 10
1523.1931769908954
 20
1929.3287622276189
 30
0.0
 11
1523.1931769908954
 21
1929.3287622276189
 31
0.0
  0
LINE
  5
11D
330
17
100
AcDbEntity
  8
0
100
AcDbLine
 10
1049.4100778001841
 20
1246.4609481676823
 30
0.0
 11
1070.5890202005573
 21
1248.3138655331836
 31
0.0
  0
LINE
  5
11E
330
17
100
AcDbEntity
  8
0
100
AcDbLine
 10
1070.5890202005573
 20
1248.3138655331836
 30
0.0
 11
1072.4419375660589
 21
1227.1349231328068
 31
0.0
  0
LINE
  5
11F
330
17
100
AcDbEntity
  8
0
100
AcDbLine
 10
1072.4419375660589
 20
1227.1349231328068
 30
0.0
 11
1051.2629951656857
 21
1225.2820057673055
 31
0.0
  0
LINE
  5
120
330
17
100
AcDbEntity
  8
0
100
AcDbLine
 10
1051.2629951656857
 20
1225.2820057673055
 30
0.0
 11
1049.4100778001841
 21
1246.4609481676823
 31
0.0
  0
LINE
  5
121
330
17
100
AcDbEntity
  8
0
100
AcDbLine
 10
1049.4100778001841
 20
1246.4609481676823
 30
0.0
 11
1049.4100778001841
 21
1246.4609481676823
 31
0.0
  0
LINE
  5
122
330
17
100
AcDbEntity
  8
0
100
AcDbLine
 10
530.5259889909767
 20
1201.064472712898
 30
0.0
 11
551.7049313913533
 21
1202.9173900783994
 31
0.0
  0
LINE
  5
123
330
17
100
AcDbEntity
  8
0
100
AcDbLine
 10
551.7049313913533
 20
1202.9173900783994
 30
0.0
 11
553.5578487568547
 21
1181.7384476780226
 31
0.0
  0
LINE
  5
124
330
17
100
AcDbEntity
  8
0
100
AcDbLine
 10
553.5578487568547
 20
1181.7384476780226
 30
0.0
 11
532.3789063564781
 21
1179.885530312521
 31
0.0
  0
LINE
  5
125
330
17
100
AcDbEntity
  8
0
100
AcDbLine
 10
532.3789063564781
 20
1179.885530312521
 30
0.0
 11
530.5259889909767
 21
1201.064472712898
 31
0.0
  0
LINE
  5
126
330
17
100
AcDbEntity
  8
0
100
AcDbLine
 10
530.5259889909767
 20
1201.064472712898
 30
0.0
 11
530.5259889909767
 21
1201.064472712898
 31
0.0
  0
LINE
  5
127
330
17
100
AcDbEntity
  8
0
100
AcDbLine
 10
993.7196169815035
 20
1883.005828090084
 30
0.0
 11
1014.8985593818767
 21
1884.858745455585
 31
0.0
  0
LINE
  5
128
330
17
100
AcDbEntity
  8
0
100
AcDbLine
 10
1014.8985593818767
 20
1884.858745455585
 30
0.0
 11
1016.7514767473779
 21
1863.6798030552109
 31
0.0
  0
LINE
  5
129
330
17
100
AcDbEntity
  8
0
100
AcDbLine
 10
1016.7514767473779
 20
1863.6798030552109
 30
0.0
 11
995.5725343470046
 21
1861.8268856897096
 31
0.0
  0
LINE
  5
12A
330
17
100
AcDbEntity
  8
0
100
AcDbLine
 10
995.5725343470046
 20
1861.8268856897096
 30
0.0
 11
993.7196169815035
 21
1883.005828090084
 31
0.0
  0
LINE
  5
12B
330
17
100
AcDbEntity
  8
0
100
AcDbLine
 10
993.7196169815035
 20
1883.005828090084
 30
0.0
 11
993.7196169815035
 21
1883.005828090084
 31
0.0
  0
LINE
  5
12C
330
17
100
AcDbEntity
  8
0
100
AcDbLine
 10
474.83552817229594
 20
1837.6093526352993
 30
0.0
 11
496.01447057267256
 21
1839.4622700008008
 31
0.0
  0
LINE
  5
12D
330
17
100
AcDbEntity
  8
0
100
AcDbLine
 10
496.01447057267256
 20
1839.4622700008008
 30
0.0
 11
497.86738793817386
 21
1818.2833276004267
 31
0.0
  0
LINE
  5
12E
330
17
100
AcDbEntity
  8
0
100
AcDbLine
 10
497.86738793817386
 20
1818.2833276004267
 30
0.0
 11
476.68844553779724
 21
1816.4304102349251
 31
0.0
  0
LINE
  5
12F
330
17
100
AcDbEntity
  8
0
100
AcDbLine
 10
476.68844553779724
 20
1816.4304102349251
 30
0.0
 11
474.83552817229594
 21
1837.6093526352993
 31
0.0
  0
LINE
  5
130
330
17
100
AcDbEntity
  8
0
100
AcDbLine
 10
474.83552817229594
 20
1837.6093526352993
 30
0.0
 11
474.83552817229594
 21
1837.6093526352993
 31
0.0
  0
LINE
  5
131
330
17
100
AcDbEntity
  8
0
100
AcDbLine
 10
1972.463875707831
 20
1979.8981880425517
 30
0.0
 11
1895.1999562101626
 21
1973.1384709869262
 31
0.0
  0
LINE
  5
132
330
17
100
AcDbEntity
  8
0
100
AcDbLine
 10
1895.1999562101626
 20
1973.1384709869262
 30
0.0
 11
1895.45730584426
 21
1970.1969512090961
 31
0.0
  0
LINE
  5
133
330
17
100
AcDbEntity
  8
0
100
AcDbLine
 10
1895.45730584426
 20
1970.1969512090961
 30
0.0
 11
1972.7212253419284
 21
1976.9566682647217
 31
0.0
  0
LINE
  5
134
330
17
100
AcDbEntity
  8
0
100
AcDbLine
 10
1894.9426065760651
 20
1976.0799907647545
 30
0.0
 11
1895.45730584426
 21
1970.1969512090961
 31
0.0
  0
LINE
  5
135
330
17
100
AcDbEntity
  8
0
100
AcDbLine
 10
1895.45730584426
 20
1970.1969512090961
 30
0.0
 11
1887.2210504663371
 21
1969.4763722336234
 31
0.0
  0
LINE
  5
136
330
17
100
AcDbEntity
  8
0
100
AcDbLine
 10
1886.7063511981423
 20
1975.3594117892817
 30
0.0
 11
1886.7063511981423
 21
1975.3594117892817
 31
0.0
  0
LINE
  5
137
330
17
100
AcDbEntity
  8
0
100
AcDbLine
 10
512.0986881027976
 20
1316.8280769394928
 30
0.0
 11
511.37810912732493
 21
1325.0643323174156
 31
0.0
  0
LINE
  5
138
330
17
100
AcDbEntity
  8
0
100
AcDbLine
 10
511.37810912732493
 20
1325.0643323174156
 30
0.0
 11
505.4950695716652
 21
1324.5496330492208
 31
0.0
  0
LINE
  5
139
330
17
100
AcDbEntity
  8
0
100
AcDbLine
 10
505.4950695716652
 20
1324.5496330492208
 30
0.0
 11
505.4950695716652
 21
1324.5496330492208
 31
0.0
  0
LINE
  5
13A
330
17
100
AcDbEntity
  8
0
100
AcDbLine
 10
508.4365893494951
 20
1324.8069826833182
 30
0.0
 11
500.6131604729335
 21
1414.2291839293512
 31
0.0
  0
LINE
  5
13B
330
17
100
AcDbEntity
  8
0
100
AcDbLine
 10
500.6131604729335
 20
1414.2291839293512
 30
0.0
 11
503.55468025076334
 21
1414.4865335634486
 31
0.0
  0
LINE
  5
13C
330
17
100
AcDbEntity
  8
0
100
AcDbLine
 10
503.55468025076334
 20
1414.4865335634486
 30
0.0
 11
511.37810912732493
 21
1325.0643323174156
 31
0.0
  0
LINE
  5
13D
330
17
100
AcDbEntity
  8
0
100
AcDbLine
 10
511.37810912732493
 20
1325.0643323174156
 30
0.0
 11
508.4365893494951
 21
1324.8069826833182
 31
0.0
  0
LINE
  5
13E
330
17
100
AcDbEntity
  8
0
100
AcDbLine
 10
508.4365893494951
 20
1324.8069826833182
 30
0.0
 11
508.4365893494951
 21
1324.8069826833182
 31
0.0
  0
LINE
  5
13F
330
17
100
AcDbEntity
  8
0
100
AcDbLine
 10
459.48095499504745
 20
1850.4933693252156
 30
0.0
 11
497.67164069510363
 21
1413.9718342952538
 31
0.0
  0
LINE
  5
140
330
17
100
AcDbEntity
  8
0
100
AcDbLine
 10
497.67164069510363
 20
1413.9718342952538
 30
0.0
 11
503.55468025076334
 21
1414.4865335634486
 31
0.0
  0
LINE
  5
141
330
17
100
AcDbEntity
  8
0
100
AcDbLine
 10
503.55468025076334
 20
1414.4865335634486
 30
0.0
 11
502.83410127529066
 21
1422.7227889413712
 31
0.0
  0
LINE
  5
142
330
17
100
AcDbEntity
  8
0
100
AcDbLine
 10
496.95106171963096
 20
1422.2080896731763
 30
0.0
 11
496.95106171963096
 21
1422.2080896731763
 31
0.0
  0
LINE
  5
143
330
17
100
AcDbEntity
  8
0
100
AcDbLine
 10
599.2887441350026
 20
320.2411762106972
 30
0.0
 11
598.5681651595299
 21
328.47743158862033
 31
0.0
  0
LINE
  5
144
330
17
100
AcDbEntity
  8
0
100
AcDbLine
 10
598.5681651595299
 20
328.47743158862033
 30
0.0
 11
592.6851256038702
 21
327.9627323204255
 31
0.0
  0
LINE
  5
145
330
17
100
AcDbEntity
  8
0
100
AcDbLine
 10
592.6851256038702
 20
327.9627323204255
 30
0.0
 11
592.6851256038702
 21
327.9627323204255
 31
0.0
  0
LINE
  5
146
330
17
100
AcDbEntity
  8
0
100
AcDbLine
 10
595.6266453817001
 20
328.2200819545229
 30
0.0
 11
587.8032165051385
 21
417.64228320055577
 31
0.0
  0
LINE
  5
147
330
17
100
AcDbEntity
  8
0
100
AcDbLine
 10
587.8032165051385
 20
417.64228320055577
 30
0.0
 11
590.7447362829683
 21
417.8996328346532
 31
0.0
  0
LINE
  5
148
330
17
100
AcDbEntity
  8
0
100
AcDbLine
 10
590.7447362829683
 20
417.8996328346532
 30
0.0
 11
598.5681651595299
 21
328.47743158862033
 31
0.0
  0
LINE
  5
149
330
17
100
AcDbEntity
  8
0
100
AcDbLine
 10
598.5681651595299
 20
328.47743158862033
 30
0.0
 11
595.6266453817001
 21
328.2200819545229
 31
0.0
  0
LINE
  5
14A
330
17
100
AcDbEntity
  8
0
100
AcDbLine
 10
595.6266453817001
 20
328.2200819545229
 30
0.0
 11
595.6266453817001
 21
328.2200819545229
 31
0.0
  0
LINE
  5
14B
330
17
100
AcDbEntity
  8
0
100
AcDbLine
 10
564.8913651213492
 20
645.6468683260628
 30
0.0
 11
584.8616967273086
 21
417.38493356645836
 31
0.0
  0
LINE
  5
14C
330
17
100
AcDbEntity
  8
0
100
AcDbLine
 10
584.8616967273086
 20
417.38493356645836
 30
0.0
 11
590.7447362829683
 21
417.8996328346532
 31
0.0
  0
LINE
  5
14D
330
17
100
AcDbEntity
  8
0
100
AcDbLine
 10
590.7447362829683
 20
417.8996328346532
 30
0.0
 11
590.0241573074956
 21
426.13588821257724
 31
0.0
  0
LINE
  5
14E
330
17
100
AcDbEntity
  8
0
100
AcDbLine
 10
584.1411177518358
 20
425.6211889443824
 30
0.0
 11
584.1411177518358
 21
425.6211889443824
 31
0.0
  0
LINE
  5
14F
330
17
100
AcDbEntity
  8
0
100
AcDbLine
 10
542.6718246335712
 20
967.3755273332879
 30
0.0
 11
541.9512456580984
 21
975.6117827112117
 31
0.0
  0
LINE
  5
150
330
17
100
AcDbEntity
  8
0
100
AcDbLine
 10
541.9512456580984
 20
975.6117827112117
 30
0.0
 11
536.0682061024387
 21
975.0970834430169
 31
0.0
  0
LINE
  5
151
330
17
100
AcDbEntity
  8
0
100
AcDbLine
 10
536.0682061024387
 20
975.0970834430169
 30
0.0
 11
536.0682061024387
 21
975.0970834430169
 31
0.0
  0
LINE
  5
152
330
17
100
AcDbEntity
  8
0
100
AcDbLine
 10
539.0097258802685
 20
975.3544330771143
 30
0.0
 11
531.1862970037068
 21
1064.7766343231476
 31
0.0
  0
LINE
  5
153
330
17
100
AcDbEntity
  8
0
100
AcDbLine
 10
531.1862970037068
 20
1064.7766343231476
 30
0.0
 11
534.1278167815367
 21
1065.033983957245
 31
0.0
  0
LINE
  5
154
330
17
100
AcDbEntity
  8
0
100
AcDbLine
 10
534.1278167815367
 20
1065.033983957245
 30
0.0
 11
541.9512456580984
 21
975.6117827112117
 31
0.0
  0
LINE
  5
155
330
17
100
AcDbEntity
  8
0
100
AcDbLine
 10
541.9512456580984
 20
975.6117827112117
 30
0.0
 11
539.0097258802685
 21
975.3544330771143
 31
0.0
  0
LINE
  5
156
330
17
100
AcDbEntity
  8
0
100
AcDbLine
 10
539.0097258802685
 20
975.3544330771143
 30
0.0
 11
539.0097258802685
 21
975.3544330771143
 31
0.0
  0
LINE
  5
157
330
17
100
AcDbEntity
  8
0
100
AcDbLine
 10
505.4950695716652
 20
1324.5496330492208
 30
0.0
 11
528.244777225877
 21
1064.5192846890502
 31
0.0
  0
LINE
  5
158
330
17
100
AcDbEntity
  8
0
100
AcDbLine
 10
528.244777225877
 20
1064.5192846890502
 30
0.0
 11
534.1278167815367
 21
1065.033983957245
 31
0.0
  0
LINE
  5
159
330
17
100
AcDbEntity
  8
0
100
AcDbLine
 10
534.1278167815367
 20
1065.033983957245
 30
0.0
 11
533.407237806064
 21
1073.2702393351678
 31
0.0
  0
LINE
  5
15A
330
17
100
AcDbEntity
  8
0
100
AcDbLine
 10
527.5241982504043
 20
1072.755540066973
 30
0.0
 11
527.5241982504043
 21
1072.755540066973
 31
0.0
  0
LINE
  5
15B
330
17
100
AcDbEntity
  8
0
100
AcDbLine
 10
1848.4878690007229
 20
1815.5146823215864
 30
0.0
 11
1848.422306682299
 21
1816.037857202055
 31
0.0
  0
LINE
  5
15C
330
17
100
AcDbEntity
  8
0
100
AcDbLine
 10
1848.422306682299
 20
1816.037857202055
 30
0.0
 11
1848.317830781635
 21
1816.5546697012576
 31
0.0
  0
LINE
  5
15D
330
17
100
AcDbEntity
  8
0
100
AcDbLine
 10
1848.317830781635
 20
1816.5546697012576
 30
0.0
 11
1848.1750255703466
 21
1817.062229594057
 31
0.0
  0
LINE
  5
15E
330
17
100
AcDbEntity
  8
0
100
AcDbLine
 10
1848.1750255703466
 20
1817.062229594057
 30
0.0
 11
1847.994689673103
 21
1817.5576983996498
 31
0.0
  0
LINE
  5
15F
330
17
100
AcDbEntity
  8
0
100
AcDbLine
 10
1847.994689673103
 20
1817.5576983996498
 30
0.0
 11
1847.777831601394
 21
1818.0383052554944
 31
0.0
  0
LINE
  5
160
330
17
100
AcDbEntity
  8
0
100
AcDbLine
 10
1847.777831601394
 20
1818.0383052554944
 30
0.0
 11
1847.5256641135188
 21
1818.5013624131002
 31
0.0
  0
LINE
  5
161
330
17
100
AcDbEntity
  8
0
100
AcDbLine
 10
1847.5256641135188
 20
1818.5013624131002
 30
0.0
 11
1847.2395974323617
 21
1818.944280269008
 31
0.0
  0
LINE
  5
162
330
17
100
AcDbEntity
  8
0
100
AcDbLine
 10
1847.2395974323617
 20
1818.944280269008
 30
0.0
 11
1846.9212313588405
 21
1819.3645818469038
 31
0.0
  0
LINE
  5
163
330
17
100
AcDbEntity
  8
0
100
AcDbLine
 10
1846.9212313588405
 20
1819.3645818469038
 30
0.0
 11
1846.5723463251807
 21
1819.759916649874
 31
0.0
  0
LINE
  5
164
330
17
100
AcDbEntity
  8
0
100
AcDbLine
 10
1846.5723463251807
 20
1819.759916649874
 30
0.0
 11
1846.1948934380134
 21
1820.1280738053365
 31
0.0
  0
LINE
  5
165
330
17
100
AcDbEntity
  8
0
100
AcDbLine
 10
1846.1948934380134
 20
1820.1280738053365
 30
0.0
 11
1845.7909835669893
 21
1820.4669944291418
 31
0.0
  0
LINE
  5
166
330
17
100
AcDbEntity
  8
0
100
AcDbLine
 10
1845.7909835669893
 20
1820.4669944291418
 30
0.0
 11
1845.3628755399504
 21
1820.7747831396805
 31
0.0
  0
LINE
  5
167
330
17
100
AcDbEntity
  8
0
100
AcDbLine
 10
1845.3628755399504
 20
1820.7747831396805
 30
0.0
 11
1844.9129635106394
 21
1821.0497186576342
 31
0.0
  0
LINE
  5
168
330
17
100
AcDbEntity
  8
0
100
AcDbLine
 10
1844.9129635106394
 20
1821.0497186576342
 30
0.0
 11
1844.4437635696265
 21
1821.2902634320612
 31
0.0
  0
LINE
  5
169
330
17
100
AcDbEntity
  8
0
100
AcDbLine
 10
1844.4437635696265
 20
1821.2902634320612
 30
0.0
 11
1843.957899673307
 21
1821.4950722390086
 31
0.0
  0
LINE
  5
16A
330
17
100
AcDbEntity
  8
0
100
AcDbLine
 10
1843.957899673307
 20
1821.4950722390086
 30
0.0
 11
1843.4580889696738
 21
1821.6629997045516
 31
0.0
  0
LINE
  5
16B
330
17
100
AcDbEntity
  8
0
100
AcDbLine
 10
1843.4580889696738
 20
1821.6629997045516
 30
0.0
 11
1842.9471266029223
 21
1821.7931067101836
 31
0.0
  0
LINE
  5
16C
330
17
100
AcDbEntity
  8
0
100
AcDbLine
 10
1842.9471266029223
 20
1821.7931067101836
 30
0.0
 11
1842.4278700818738
 21
1821.8846656447536
 31
0.0
  0
LINE
  5
16D
330
17
100
AcDbEntity
  8
0
100
AcDbLine
 10
1842.4278700818738
 20
1821.8846656447536
 30
0.0
 11
1841.9032232996249
 21
1821.9371644735588
 31
0.0
  0
LINE
  5
16E
330
17
100
AcDbEntity
  8
0
100
AcDbLine
 10
1841.9032232996249
 20
1821.9371644735588
 30
0.0
 11
1841.3761202937976
 21
1821.950309601853
 31
0.0
  0
LINE
  5
16F
330
17
100
AcDbEntity
  8
0
100
AcDbLine
 10
1841.3761202937976
 20
1821.950309601853
 30
0.0
 11
1840.8495088382126
 21
1821.924027516749
 31
0.0
  0
LINE
  5
170
330
17
100
AcDbEntity
  8
0
100
AcDbLine
 10
1840.8495088382126
 20
1821.924027516749
 30
0.0
 11
1840.326333957744
 21
1821.8584651983238
 31
0.0
  0
LINE
  5
171
330
17
100
AcDbEntity
  8
0
100
AcDbLine
 10
1840.326333957744
 20
1821.8584651983238
 30
0.0
 11
1839.8095214585414
 21
1821.753989297661
 31
0.0
  0
LINE
  5
172
330
17
100
AcDbEntity
  8
0
100
AcDbLine
 10
1839.8095214585414
 20
1821.753989297661
 30
0.0
 11
1839.3019615657417
 21
1821.6111840863728
 31
0.0
  0
LINE
  5
173
330
17
100
AcDbEntity
  8
0
100
AcDbLine
 10
1839.3019615657417
 20
1821.6111840863728
 30
0.0
 11
1838.806492760148
 21
1821.4308481891294
 31
0.0
  0
LINE
  5
174
330
17
100
AcDbEntity
  8
0
100
AcDbLine
 10
1838.806492760148
 20
1821.4308481891294
 30
0.0
 11
1838.3258859043037
 21
1821.2139901174187
 31
0.0
  0
LINE
  5
175
330
17
100
AcDbEntity
  8
0
100
AcDbLine
 10
1838.3258859043037
 20
1821.2139901174187
 30
0.0
 11
1837.8628287466988
 21
1820.9618226295438
 31
0.0
  0
LINE
  5
176
330
17
100
AcDbEntity
  8
0
100
AcDbLine
 10
1837.8628287466988
 20
1820.9618226295438
 30
0.0
 11
1837.4199108907908
 21
1820.6757559483867
 31
0.0
  0
LINE
  5
177
330
17
100
AcDbEntity
  8
0
100
AcDbLine
 10
1837.4199108907908
 20
1820.6757559483867
 30
0.0
 11
1836.9996093128952
 21
1820.3573898748664
 31
0.0
  0
LINE
  5
178
330
17
100
AcDbEntity
  8
0
100
AcDbLine
 10
1836.9996093128952
 20
1820.3573898748664
 30
0.0
 11
1836.604274509926
 21
1820.008504841207
 31
0.0
  0
LINE
  5
179
330
17
100
AcDbEntity
  8
0
100
AcDbLine
 10
1836.604274509926
 20
1820.008504841207
 30
0.0
 11
1836.2361173544614
 21
1819.6310519540384
 31
0.0
  0
LINE
  5
17A
330
17
100
AcDbEntity
  8
0
100
AcDbLine
 10
1836.2361173544614
 20
1819.6310519540384
 30
0.0
 11
1835.8971967306575
 21
1819.2271420830148
 31
0.0
  0
LINE
  5
17B
330
17
100
AcDbEntity
  8
0
100
AcDbLine
 10
1835.8971967306575
 20
1819.2271420830148
 30
0.0
 11
1835.5894080201183
 21
1818.7990340559766
 31
0.0
  0
LINE
  5
17C
330
17
100
AcDbEntity
  8
0
100
AcDbLine
 10
1835.5894080201183
 20
1818.7990340559766
 30
0.0
 11
1835.314472502166
 21
1818.3491220266656
 31
0.0
  0
LINE
  5
17D
330
17
100
AcDbEntity
  8
0
100
AcDbLine
 10
1835.314472502166
 20
1818.3491220266656
 30
0.0
 11
1835.073927727738
 21
1817.8799220856527
 31
0.0
  0
LINE
  5
17E
330
17
100
AcDbEntity
  8
0
100
AcDbLine
 10
1835.073927727738
 20
1817.8799220856527
 30
0.0
 11
1834.8691189207893
 21
1817.394058189333
 31
0.0
  0
LINE
  5
17F
330
17
100
AcDbEntity
  8
0
100
AcDbLine
 10
1834.8691189207893
 20
1817.394058189333
 30
0.0
 11
1834.7011914552477
 21
1816.8942474856985
 31
0.0
  0
LINE
  5
180
330
17
100
AcDbEntity
  8
0
100
AcDbLine
 10
1834.7011914552477
 20
1816.8942474856985
 30
0.0
 11
1834.5710844496152
 21
1816.3832851189472
 31
0.0
  0
LINE
  5
181
330
17
100
AcDbEntity
  8
0
100
AcDbLine
 10
1834.5710844496152
 20
1816.3832851189472
 30
0.0
 11
1834.4795255150468
 21
1815.8640285979
 31
0.0
  0
LINE
  5
182
330
17
100
AcDbEntity
  8
0
100
AcDbLine
 10
1834.4795255150468
 20
1815.8640285979
 30
0.0
 11
1834.4270266862402
 21
1815.339381815651
 31
0.0
  0
LINE
  5
183
330
17
100
AcDbEntity
  8
0
100
AcDbLine
 10
1834.4270266862402
 20
1815.339381815651
 30
0.0
 11
1834.413881557945
 21
1814.8122788098224
 31
0.0
  0
LINE
  5
184
330
17
100
AcDbEntity
  8
0
100
AcDbLine
 10
1834.413881557945
 20
1814.8122788098224
 30
0.0
 11
1834.44016364305
 21
1814.2856673542378
 31
0.0
  0
LINE
  5
185
330
17
100
AcDbEntity
  8
0
100
AcDbLine
 10
1834.44016364305
 20
1814.2856673542378
 30
0.0
 11
1834.5057259614741
 21
1813.7624924737688
 31
0.0
  0
LINE
  5
186
330
17
100
AcDbEntity
  8
0
100
AcDbLine
 10
1834.5057259614741
 20
1813.7624924737688
 30
0.0
 11
1834.6102018621382
 21
1813.2456799745673
 31
0.0
  0
LINE
  5
187
330
17
100
AcDbEntity
  8
0
100
AcDbLine
 10
1834.6102018621382
 20
1813.2456799745673
 30
0.0
 11
1834.7530070734274
 21
1812.7381200817679
 31
0.0
  0
LINE
  5
188
330
17
100
AcDbEntity
  8
0
100
AcDbLine
 10
1834.7530070734274
 20
1812.7381200817679
 30
0.0
 11
1834.9333429706696
 21
1812.242651276174
 31
0.0
  0
LINE
  5
189
330
17
100
AcDbEntity
  8
0
100
AcDbLine
 10
1834.9333429706696
 20
1812.242651276174
 30
0.0
 11
1835.1502010423803
 21
1811.7620444203308
 31
0.0
  0
LINE
  5
18A
330
17
100
AcDbEntity
  8
0
100
AcDbLine
 10
1835.1502010423803
 20
1811.7620444203308
 30
0.0
 11
1835.402368530254
 21
1811.2989872627234
 31
0.0
  0
LINE
  5
18B
330
17
100
AcDbEntity
  8
0
100
AcDbLine
 10
1835.402368530254
 20
1811.2989872627234
 30
0.0
 11
1835.6884352114125
 21
1810.856069406816
 31
0.0
  0
LINE
  5
18C
330
17
100
AcDbEntity
  8
0
100
AcDbLine
 10
1835.6884352114125
 20
1810.856069406816
 30
0.0
 11
1836.006801284934
 21
1810.43576782892
 31
0.0
  0
LINE
  5
18D
330
17
100
AcDbEntity
  8
0
100
AcDbLine
 10
1836.006801284934
 20
1810.43576782892
 30
0.0
 11
1836.355686318592
 21
1810.0404330259512
 31
0.0
  0
LINE
  5
18E
330
17
100
AcDbEntity
  8
0
100
AcDbLine
 10
1836.355686318592
 20
1810.0404330259512
 30
0.0
 11
1836.7331392057604
 21
1809.6722758704877
 31
0.0
  0
LINE
  5
18F
330
17
100
AcDbEntity
  8
0
100
AcDbLine
 10
1836.7331392057604
 20
1809.6722758704877
 30
0.0
 11
1837.1370490767833
 21
1809.3333552466825
 31
0.0
  0
LINE
  5
190
330
17
100
AcDbEntity
  8
0
100
AcDbLine
 10
1837.1370490767833
 20
1809.3333552466825
 30
0.0
 11
1837.5651571038236
 21
1809.0255665361433
 31
0.0
  0
LINE
  5
191
330
17
100
AcDbEntity
  8
0
100
AcDbLine
 10
1837.5651571038236
 20
1809.0255665361433
 30
0.0
 11
1838.0150691331335
 21
1808.750631018192
 31
0.0
  0
LINE
  5
192
330
17
100
AcDbEntity
  8
0
100
AcDbLine
 10
1838.0150691331335
 20
1808.750631018192
 30
0.0
 11
1838.4842690741461
 21
1808.510086243764
 31
0.0
  0
LINE
  5
193
330
17
100
AcDbEntity
  8
0
100
AcDbLine
 10
1838.4842690741461
 20
1808.510086243764
 30
0.0
 11
1838.970132970466
 21
1808.3052774368152
 31
0.0
  0
LINE
  5
194
330
17
100
AcDbEntity
  8
0
100
AcDbLine
 10
1838.970132970466
 20
1808.3052774368152
 30
0.0
 11
1839.4699436740993
 21
1808.1373499712736
 31
0.0
  0
LINE
  5
195
330
17
100
AcDbEntity
  8
0
100
AcDbLine
 10
1839.4699436740993
 20
1808.1373499712736
 30
0.0
 11
1839.9809060408509
 21
1808.0072429656414
 31
0.0
  0
LINE
  5
196
330
17
100
AcDbEntity
  8
0
100
AcDbLine
 10
1839.9809060408509
 20
1808.0072429656414
 30
0.0
 11
1840.5001625618993
 21
1807.915684031071
 31
0.0
  0
LINE
  5
197
330
17
100
AcDbEntity
  8
0
100
AcDbLine
 10
1840.5001625618993
 20
1807.915684031071
 30
0.0
 11
1841.024809344148
 21
1807.863185202266
 31
0.0
  0
LINE
  5
198
330
17
100
AcDbEntity
  8
0
100
AcDbLine
 10
1841.024809344148
 20
1807.863185202266
 30
0.0
 11
1841.5519123499766
 21
1807.8500400739722
 31
0.0
  0
LINE
  5
199
330
17
100
AcDbEntity
  8
0
100
AcDbLine
 10
1841.5519123499766
 20
1807.8500400739722
 30
0.0
 11
1842.0785238055614
 21
1807.8763221590762
 31
0.0
  0
LINE
  5
19A
330
17
100
AcDbEntity
  8
0
100
AcDbLine
 10
1842.0785238055614
 20
1807.8763221590762
 30
0.0
 11
1842.6016986860302
 21
1807.9418844775014
 31
0.0
  0
LINE
  5
19B
330
17
100
AcDbEntity
  8
0
100
AcDbLine
 10
1842.6016986860302
 20
1807.9418844775014
 30
0.0
 11
1843.1185111852315
 21
1808.046360378164
 31
0.0
  0
LINE
  5
19C
330
17
100
AcDbEntity
  8
0
100
AcDbLine
 10
1843.1185111852315
 20
1808.046360378164
 30
0.0
 11
1843.6260710780314
 21
1808.1891655894515
 31
0.0
  0
LINE
  5
19D
330
17
100
AcDbEntity
  8
0
100
AcDbLine
 10
1843.6260710780314
 20
1808.1891655894515
 30
0.0
 11
1844.121539883625
 21
1808.3695014866958
 31
0.0
  0
LINE
  5
19E
330
17
100
AcDbEntity
  8
0
100
AcDbLine
 10
1844.121539883625
 20
1808.3695014866958
 30
0.0
 11
1844.6021467394694
 21
1808.5863595584065
 31
0.0
  0
LINE
  5
19F
330
17
100
AcDbEntity
  8
0
100
AcDbLine
 10
1844.6021467394694
 20
1808.5863595584065
 30
0.0
 11
1845.0652038970743
 21
1808.83852704628
 31
0.0
  0
LINE
  5
1A0
330
17
100
AcDbEntity
  8
0
100
AcDbLine
 10
1845.0652038970743
 20
1808.83852704628
 30
0.0
 11
1845.5081217529819
 21
1809.1245937274384
 31
0.0
  0
LINE
  5
1A1
330
17
100
AcDbEntity
  8
0
100
AcDbLine
 10
1845.5081217529819
 20
1809.1245937274384
 30
0.0
 11
1845.9284233308776
 21
1809.44295980096
 31
0.0
  0
LINE
  5
1A2
330
17
100
AcDbEntity
  8
0
100
AcDbLine
 10
1845.9284233308776
 20
1809.44295980096
 30
0.0
 11
1846.323758133848
 21
1809.791844834617
 31
0.0
  0
LINE
  5
1A3
330
17
100
AcDbEntity
  8
0
100
AcDbLine
 10
1846.323758133848
 20
1809.791844834617
 30
0.0
 11
1846.6919152893113
 21
1810.1692977217858
 31
0.0
  0
LINE
  5
1A4
330
17
100
AcDbEntity
  8
0
100
AcDbLine
 10
1846.6919152893113
 20
1810.1692977217858
 30
0.0
 11
1847.0308359131163
 21
1810.57320759281
 31
0.0
  0
LINE
  5
1A5
330
17
100
AcDbEntity
  8
0
100
AcDbLine
 10
1847.0308359131163
 20
1810.57320759281
 30
0.0
 11
1847.3386246236544
 21
1811.0013156198486
 31
0.0
  0
LINE
  5
1A6
330
17
100
AcDbEntity
  8
0
100
AcDbLine
 10
1847.3386246236544
 20
1811.0013156198486
 30
0.0
 11
1847.6135601416086
 21
1811.4512276491582
 31
0.0
  0
LINE
  5
1A7
330
17
100
AcDbEntity
  8
0
100
AcDbLine
 10
1847.6135601416086
 20
1811.4512276491582
 30
0.0
 11
1847.8541049160362
 21
1811.9204275901711
 31
0.0
  0
LINE
  5
1A8
330
17
100
AcDbEntity
  8
0
100
AcDbLine
 10
1847.8541049160362
 20
1811.9204275901711
 30
0.0
 11
1848.0589137229836
 21
1812.4062914864908
 31
0.0
  0
LINE
  5
1A9
330
17
100
AcDbEntity
  8
0
100
AcDbLine
 10
1848.0589137229836
 20
1812.4062914864908
 30
0.0
 11
1848.2268411885266
 21
1812.9061021901266
 31
0.0
  0
LINE
  5
1AA
330
17
100
AcDbEntity
  8
0
100
AcDbLine
 10
1848.2268411885266
 20
1812.9061021901266
 30
0.0
 11
1848.3569481941574
 21
1813.417064556877
 31
0.0
  0
LINE
  5
1AB
330
17
100
AcDbEntity
  8
0
100
AcDbLine
 10
1848.3569481941574
 20
1813.417064556877
 30
0.0
 11
1848.4485071287272
 21
1813.9363210779252
 31
0.0
  0
LINE
  5
1AC
330
17
100
AcDbEntity
  8
0
100
AcDbLine
 10
1848.4485071287272
 20
1813.9363210779252
 30
0.0
 11
1848.501005957533
 21
1814.460967860174
 31
0.0
  0
LINE
  5
1AD
330
17
100
AcDbEntity
  8
0
100
AcDbLine
 10
1848.501005957533
 20
1814.460967860174
 30
0.0
 11
1848.5141510858282
 21
1814.9880708660014
 31
0.0
  0
LINE
  5
1AE
330
17
100
AcDbEntity
  8
0
100
AcDbLine
 10
1848.5141510858282
 20
1814.9880708660014
 30
0.0
 11
1848.4878690007229
 21
1815.5146823215864
 31
0.0
  0
LINE
  5
1AF
330
17
100
AcDbEntity
  8
0
100
AcDbLine
 10
318.13646597593697
 20
701.1235207691348
 30
0.0
 11
318.070903657513
 21
701.6466956496033
 31
0.0
  0
LINE
  5
1B0
330
17
100
AcDbEntity
  8
0
100
AcDbLine
 10
318.070903657513
 20
701.6466956496033
 30
0.0
 11
317.96642775684904
 21
702.1635081488048
 31
0.0
  0
LINE
  5
1B1
330
17
100
AcDbEntity
  8
0
100
AcDbLine
 10
317.96642775684904
 20
702.1635081488048
 30
0.0
 11
317.8236225455609
 21
702.6710680416056
 31
0.0
  0
LINE
  5
1B2
330
17
100
AcDbEntity
  8
0
100
AcDbLine
 10
317.8236225455609
 20
702.6710680416056
 30
0.0
 11
317.64328664831754
 21
703.1665368471993
 31
0.0
  0
LINE
  5
1B3
330
17
100
AcDbEntity
  8
0
100
AcDbLine
 10
317.64328664831754
 20
703.1665368471993
 30
0.0
 11
317.42642857660724
 21
703.6471437030425
 31
0.0
  0
LINE
  5
1B4
330
17
100
AcDbEntity
  8
0
100
AcDbLine
 10
317.42642857660724
 20
703.6471437030425
 30
0.0
 11
317.17426108873286
 21
704.1102008606485
 31
0.0
  0
LINE
  5
1B5
330
17
100
AcDbEntity
  8
0
100
AcDbLine
 10
317.17426108873286
 20
704.1102008606485
 30
0.0
 11
316.88819440757516
 21
704.5531187165561
 31
0.0
  0
LINE
  5
1B6
330
17
100
AcDbEntity
  8
0
100
AcDbLine
 10
316.88819440757516
 20
704.5531187165561
 30
0.0
 11
316.56982833405453
 21
704.9734202944521
 31
0.0
  0
LINE
  5
1B7
330
17
100
AcDbEntity
  8
0
100
AcDbLine
 10
316.56982833405453
 20
704.9734202944521
 30
0.0
 11
316.2209433003955
 21
705.3687550974214
 31
0.0
  0
LINE
  5
1B8
330
17
100
AcDbEntity
  8
0
100
AcDbLine
 10
316.2209433003955
 20
705.3687550974214
 30
0.0
 11
315.84349041322713
 21
705.7369122528855
 31
0.0
  0
LINE
  5
1B9
330
17
100
AcDbEntity
  8
0
100
AcDbLine
 10
315.84349041322713
 20
705.7369122528855
 30
0.0
 11
315.4395805422035
 21
706.0758328766899
 31
0.0
  0
LINE
  5
1BA
330
17
100
AcDbEntity
  8
0
100
AcDbLine
 10
315.4395805422035
 20
706.0758328766899
 30
0.0
 11
315.01147251516454
 21
706.383621587229
 31
0.0
  0
LINE
  5
1BB
330
17
100
AcDbEntity
  8
0
100
AcDbLine
 10
315.01147251516454
 20
706.383621587229
 30
0.0
 11
314.561560485854
 21
706.6585571051826
 31
0.0
  0
LINE
  5
1BC
330
17
100
AcDbEntity
  8
0
100
AcDbLine
 10
314.561560485854
 20
706.6585571051826
 30
0.0
 11
314.0923605448412
 21
706.8991018796083
 31
0.0
  0
LINE
  5
1BD
330
17
100
AcDbEntity
  8
0
100
AcDbLine
 10
314.0923605448412
 20
706.8991018796083
 30
0.0
 11
313.60649664852144
 21
707.1039106865568
 31
0.0
  0
LINE
  5
1BE
330
17
100
AcDbEntity
  8
0
100
AcDbLine
 10
313.60649664852144
 20
707.1039106865568
 30
0.0
 11
313.1066859448875
 21
707.2718381520998
 31
0.0
  0
LINE
  5
1BF
330
17
100
AcDbEntity
  8
0
100
AcDbLine
 10
313.1066859448875
 20
707.2718381520998
 30
0.0
 11
312.59572357813624
 21
707.4019451577321
 31
0.0
  0
LINE
  5
1C0
330
17
100
AcDbEntity
  8
0
100
AcDbLine
 10
312.59572357813624
 20
707.4019451577321
 30
0.0
 11
312.07646705708805
 21
707.4935040923019
 31
0.0
  0
LINE
  5
1C1
330
17
100
AcDbEntity
  8
0
100
AcDbLine
 10
312.07646705708805
 20
707.4935040923019
 30
0.0
 11
311.5518202748388
 21
707.5460029211072
 31
0.0
  0
LINE
  5
1C2
330
17
100
AcDbEntity
  8
0
100
AcDbLine
 10
311.5518202748388
 20
707.5460029211072
 30
0.0
 11
311.0247172690111
 21
707.5591480494026
 31
0.0
  0
LINE
  5
1C3
330
17
100
AcDbEntity
  8
0
100
AcDbLine
 10
311.0247172690111
 20
707.5591480494026
 30
0.0
 11
310.49810581342626
 21
707.5328659642971
 31
0.0
  0
LINE
  5
1C4
330
17
100
AcDbEntity
  8
0
100
AcDbLine
 10
310.49810581342626
 20
707.5328659642971
 30
0.0
 11
309.97493093295765
 21
707.4673036458735
 31
0.0
  0
LINE
  5
1C5
330
17
100
AcDbEntity
  8
0
100
AcDbLine
 10
309.97493093295765
 20
707.4673036458735
 30
0.0
 11
309.45811843375617
 21
707.362827745209
 31
0.0
  0
LINE
  5
1C6
330
17
100
AcDbEntity
  8
0
100
AcDbLine
 10
309.45811843375617
 20
707.362827745209
 30
0.0
 11
308.9505585409556
 21
707.2200225339211
 31
0.0
  0
LINE
  5
1C7
330
17
100
AcDbEntity
  8
0
100
AcDbLine
 10
308.9505585409556
 20
707.2200225339211
 30
0.0
 11
308.45508973536255
 21
707.0396866366776
 31
0.0
  0
LINE
  5
1C8
330
17
100
AcDbEntity
  8
0
100
AcDbLine
 10
308.45508973536255
 20
707.0396866366776
 30
0.0
 11
307.974482879518
 21
706.8228285649669
 31
0.0
  0
LINE
  5
1C9
330
17
100
AcDbEntity
  8
0
100
AcDbLine
 10
307.974482879518
 20
706.8228285649669
 30
0.0
 11
307.5114257219127
 21
706.570661077092
 31
0.0
  0
LINE
  5
1CA
330
17
100
AcDbEntity
  8
0
100
AcDbLine
 10
307.5114257219127
 20
706.570661077092
 30
0.0
 11
307.068507866005
 21
706.2845943959339
 31
0.0
  0
LINE
  5
1CB
330
17
100
AcDbEntity
  8
0
100
AcDbLine
 10
307.068507866005
 20
706.2845943959339
 30
0.0
 11
306.64820628810924
 21
705.9662283224146
 31
0.0
  0
LINE
  5
1CC
330
17
100
AcDbEntity
  8
0
100
AcDbLine
 10
306.64820628810924
 20
705.9662283224146
 30
0.0
 11
306.2528714851393
 21
705.6173432887553
 31
0.0
  0
LINE
  5
1CD
330
17
100
AcDbEntity
  8
0
100
AcDbLine
 10
306.2528714851393
 20
705.6173432887553
 30
0.0
 11
305.884714329676
 21
705.2398904015869
 31
0.0
  0
LINE
  5
1CE
330
17
100
AcDbEntity
  8
0
100
AcDbLine
 10
305.884714329676
 20
705.2398904015869
 30
0.0
 11
305.5457937058712
 21
704.8359805305636
 31
0.0
  0
LINE
  5
1CF
330
17
100
AcDbEntity
  8
0
100
AcDbLine
 10
305.5457937058712
 20
704.8359805305636
 30
0.0
 11
305.2380049953321
 21
704.4078725035238
 31
0.0
  0
LINE
  5
1D0
330
17
100
AcDbEntity
  8
0
100
AcDbLine
 10
305.2380049953321
 20
704.4078725035238
 30
0.0
 11
304.96306947737884
 21
703.9579604742139
 31
0.0
  0
LINE
  5
1D1
330
17
100
AcDbEntity
  8
0
100
AcDbLine
 10
304.96306947737884
 20
703.9579604742139
 30
0.0
 11
304.7225247029519
 21
703.4887605332008
 31
0.0
  0
LINE
  5
1D2
330
17
100
AcDbEntity
  8
0
100
AcDbLine
 10
304.7225247029519
 20
703.4887605332008
 30
0.0
 11
304.51771589600384
 21
703.0028966368814
 31
0.0
  0
LINE
  5
1D3
330
17
100
AcDbEntity
  8
0
100
AcDbLine
 10
304.51771589600384
 20
703.0028966368814
 30
0.0
 11
304.34978843046133
 21
702.5030859332467
 31
0.0
  0
LINE
  5
1D4
330
17
100
AcDbEntity
  8
0
100
AcDbLine
 10
304.34978843046133
 20
702.5030859332467
 30
0.0
 11
304.21968142482916
 21
701.9921235664967
 31
0.0
  0
LINE
  5
1D5
330
17
100
AcDbEntity
  8
0
100
AcDbLine
 10
304.21968142482916
 20
701.9921235664967
 30
0.0
 11
304.1281224902596
 21
701.4728670454481
 31
0.0
  0
LINE
  5
1D6
330
17
100
AcDbEntity
  8
0
100
AcDbLine
 10
304.1281224902596
 20
701.4728670454481
 30
0.0
 11
304.0756236614543
 21
700.9482202631982
 31
0.0
  0
LINE
  5
1D7
330
17
100
AcDbEntity
  8
0
100
AcDbLine
 10
304.0756236614543
 20
700.9482202631982
 30
0.0
 11
304.06247853315926
 21
700.4211172573706
 31
0.0
  0
LINE
  5
1D8
330
17
100
AcDbEntity
  8
0
100
AcDbLine
 10
304.06247853315926
 20
700.4211172573706
 30
0.0
 11
304.08876061826425
 21
699.894505801786
 31
0.0
  0
LINE
  5
1D9
330
17
100
AcDbEntity
  8
0
100
AcDbLine
 10
304.08876061826425
 20
699.894505801786
 30
0.0
 11
304.15432293668823
 21
699.3713309213184
 31
0.0
  0
LINE
  5
1DA
330
17
100
AcDbEntity
  8
0
100
AcDbLine
 10
304.15432293668823
 20
699.3713309213184
 30
0.0
 11
304.2587988373524
 21
698.8545184221157
 31
0.0
  0
LINE
  5
1DB
330
17
100
AcDbEntity
  8
0
100
AcDbLine
 10
304.2587988373524
 20
698.8545184221157
 30
0.0
 11
304.4016040486404
 21
698.3469585293146
 31
0.0
  0
LINE
  5
1DC
330
17
100
AcDbEntity
  8
0
100
AcDbLine
 10
304.4016040486404
 20
698.3469585293146
 30
0.0
 11
304.5819399458837
 21
697.8514897237222
 31
0.0
  0
LINE
  5
1DD
330
17
100
AcDbEntity
  8
0
100
AcDbLine
 10
304.5819399458837
 20
697.8514897237222
 30
0.0
 11
304.7987980175941
 21
697.3708828678778
 31
0.0
  0
LINE
  5
1DE
330
17
100
AcDbEntity
  8
0
100
AcDbLine
 10
304.7987980175941
 20
697.3708828678778
 30
0.0
 11
305.05096550546847
 21
696.907825710273
 31
0.0
  0
LINE
  5
1DF
330
17
100
AcDbEntity
  8
0
100
AcDbLine
 10
305.05096550546847
 20
696.907825710273
 30
0.0
 11
305.3370321866263
 21
696.4649078543641
 31
0.0
  0
LINE
  5
1E0
330
17
100
AcDbEntity
  8
0
100
AcDbLine
 10
305.3370321866263
 20
696.4649078543641
 30
0.0
 11
305.65539826014674
 21
696.0446062764696
 31
0.0
  0
LINE
  5
1E1
330
17
100
AcDbEntity
  8
0
100
AcDbLine
 10
305.65539826014674
 20
696.0446062764696
 30
0.0
 11
306.00428329380577
 21
695.6492714734993
 31
0.0
  0
LINE
  5
1E2
330
17
100
AcDbEntity
  8
0
100
AcDbLine
 10
306.00428329380577
 20
695.6492714734993
 30
0.0
 11
306.3817361809742
 21
695.2811143180361
 31
0.0
  0
LINE
  5
1E3
330
17
100
AcDbEntity
  8
0
100
AcDbLine
 10
306.3817361809742
 20
695.2811143180361
 30
0.0
 11
306.7856460519979
 21
694.9421936942309
 31
0.0
  0
LINE
  5
1E4
330
17
100
AcDbEntity
  8
0
100
AcDbLine
 10
306.7856460519979
 20
694.9421936942309
 30
0.0
 11
307.213754079037
 21
694.6344049836914
 31
0.0
  0
LINE
  5
1E5
330
17
100
AcDbEntity
  8
0
100
AcDbLine
 10
307.213754079037
 20
694.6344049836914
 30
0.0
 11
307.66366610834746
 21
694.3594694657389
 31
0.0
  0
LINE
  5
1E6
330
17
100
AcDbEntity
  8
0
100
AcDbLine
 10
307.66366610834746
 20
694.3594694657389
 30
0.0
 11
308.1328660493601
 21
694.118924691312
 31
0.0
  0
LINE
  5
1E7
330
17
100
AcDbEntity
  8
0
100
AcDbLine
 10
308.1328660493601
 20
694.118924691312
 30
0.0
 11
308.61872994568
 21
693.9141158843635
 31
0.0
  0
LINE
  5
1E8
330
17
100
AcDbEntity
  8
0
100
AcDbLine
 10
308.61872994568
 20
693.9141158843635
 30
0.0
 11
309.11854064931373
 21
693.7461884188217
 31
0.0
  0
LINE
  5
1E9
330
17
100
AcDbEntity
  8
0
100
AcDbLine
 10
309.11854064931373
 20
693.7461884188217
 30
0.0
 11
309.6295030160651
 21
693.6160814131897
 31
0.0
  0
LINE
  5
1EA
330
17
100
AcDbEntity
  8
0
100
AcDbLine
 10
309.6295030160651
 20
693.6160814131897
 30
0.0
 11
310.1487595371132
 21
693.5245224786189
 31
0.0
  0
LINE
  5
1EB
330
17
100
AcDbEntity
  8
0
100
AcDbLine
 10
310.1487595371132
 20
693.5245224786189
 30
0.0
 11
310.67340631936264
 21
693.4720236498144
 31
0.0
  0
LINE
  5
1EC
330
17
100
AcDbEntity
  8
0
100
AcDbLine
 10
310.67340631936264
 20
693.4720236498144
 30
0.0
 11
311.20050932519047
 21
693.4588785215178
 31
0.0
  0
LINE
  5
1ED
330
17
100
AcDbEntity
  8
0
100
AcDbLine
 10
311.20050932519047
 20
693.4588785215178
 30
0.0
 11
311.727120780775
 21
693.4851606066245
 31
0.0
  0
LINE
  5
1EE
330
17
100
AcDbEntity
  8
0
100
AcDbLine
 10
311.727120780775
 20
693.4851606066245
 30
0.0
 11
312.2502956612439
 21
693.550722925047
 31
0.0
  0
LINE
  5
1EF
330
17
100
AcDbEntity
  8
0
100
AcDbLine
 10
312.2502956612439
 20
693.550722925047
 30
0.0
 11
312.7671081604453
 21
693.6551988257125
 31
0.0
  0
LINE
  5
1F0
330
17
100
AcDbEntity
  8
0
100
AcDbLine
 10
312.7671081604453
 20
693.6551988257125
 30
0.0
 11
313.27466805324565
 21
693.7980040369997
 31
0.0
  0
LINE
  5
1F1
330
17
100
AcDbEntity
  8
0
100
AcDbLine
 10
313.27466805324565
 20
693.7980040369997
 30
0.0
 11
313.7701368588388
 21
693.9783399342441
 31
0.0
  0
LINE
  5
1F2
330
17
100
AcDbEntity
  8
0
100
AcDbLine
 10
313.7701368588388
 20
693.9783399342441
 30
0.0
 11
314.2507437146832
 21
694.1951980059546
 31
0.0
  0
LINE
  5
1F3
330
17
100
AcDbEntity
  8
0
100
AcDbLine
 10
314.2507437146832
 20
694.1951980059546
 30
0.0
 11
314.71380087228874
 21
694.4473654938282
 31
0.0
  0
LINE
  5
1F4
330
17
100
AcDbEntity
  8
0
100
AcDbLine
 10
314.71380087228874
 20
694.4473654938282
 30
0.0
 11
315.1567187281964
 21
694.7334321749864
 31
0.0
  0
LINE
  5
1F5
330
17
100
AcDbEntity
  8
0
100
AcDbLine
 10
315.1567187281964
 20
694.7334321749864
 30
0.0
 11
315.5770203060922
 21
695.0517982485069
 31
0.0
  0
LINE
  5
1F6
330
17
100
AcDbEntity
  8
0
100
AcDbLine
 10
315.5770203060922
 20
695.0517982485069
 30
0.0
 11
315.9723551090623
 21
695.4006832821651
 31
0.0
  0
LINE
  5
1F7
330
17
100
AcDbEntity
  8
0
100
AcDbLine
 10
315.9723551090623
 20
695.4006832821651
 30
0.0
 11
316.3405122645254
 21
695.778136169334
 31
0.0
  0
LINE
  5
1F8
330
17
100
AcDbEntity
  8
0
100
AcDbLine
 10
316.3405122645254
 20
695.778136169334
 30
0.0
 11
316.67943288833015
 21
696.182046040358
 31
0.0
  0
LINE
  5
1F9
330
17
100
AcDbEntity
  8
0
100
AcDbLine
 10
316.67943288833015
 20
696.182046040358
 30
0.0
 11
316.98722159886916
 21
696.6101540673969
 31
0.0
  0
LINE
  5
1FA
330
17
100
AcDbEntity
  8
0
100
AcDbLine
 10
316.98722159886916
 20
696.6101540673969
 30
0.0
 11
317.26215711682244
 21
697.0600660967078
 31
0.0
  0
LINE
  5
1FB
330
17
100
AcDbEntity
  8
0
100
AcDbLine
 10
317.26215711682244
 20
697.0600660967078
 30
0.0
 11
317.50270189124956
 21
697.5292660377195
 31
0.0
  0
LINE
  5
1FC
330
17
100
AcDbEntity
  8
0
100
AcDbLine
 10
317.50270189124956
 20
697.5292660377195
 30
0.0
 11
317.7075106981975
 21
698.0151299340403
 31
0.0
  0
LINE
  5
1FD
330
17
100
AcDbEntity
  8
0
100
AcDbLine
 10
317.7075106981975
 20
698.0151299340403
 30
0.0
 11
317.87543816374
 21
698.5149406376736
 31
0.0
  0
LINE
  5
1FE
330
17
100
AcDbEntity
  8
0
100
AcDbLine
 10
317.87543816374
 20
698.5149406376736
 30
0.0
 11
318.00554516937206
 21
699.0259030044248
 31
0.0
  0
LINE
  5
1FF
330
17
100
AcDbEntity
  8
0
100
AcDbLine
 10
318.00554516937206
 20
699.0259030044248
 30
0.0
 11
318.0971041039417
 21
699.5451595254722
 31
0.0
  0
LINE
  5
200
330
17
100
AcDbEntity
  8
0
100
AcDbLine
 10
318.0971041039417
 20
699.5451595254722
 30
0.0
 11
318.14960293274714
 21
700.0698063077222
 31
0.0
  0
LINE
  5
201
330
17
100
AcDbEntity
  8
0
100
AcDbLine
 10
318.14960293274714
 20
700.0698063077222
 30
0.0
 11
318.16274806104195
 21
700.5969093135511
 31
0.0
  0
LINE
  5
202
330
17
100
AcDbEntity
  8
0
100
AcDbLine
 10
318.16274806104195
 20
700.5969093135511
 30
0.0
 11
318.13646597593697
 21
701.1235207691348
 31
0.0
  0
LINE
  5
203
330
17
100
AcDbEntity
  8
0
100
AcDbLine
 10
1113.5381947460849
 20
1674.9925986881776
 30
0.0
 11
1111.8730414050478
 21
1676.36411041058
 31
0.0
  0
LINE
  5
204
330
17
100
AcDbEntity
  8
0
100
AcDbLine
 10
1111.8730414050478
 20
1676.36411041058
 30
0.0
 11
1110.1831164449618
 21
1677.7049809051211
 31
0.0
  0
LINE
  5
205
330
17
100
AcDbEntity
  8
0
100
AcDbLine
 10
1110.1831164449618
 20
1677.7049809051211
 30
0.0
 11
1108.468983630941
 21
1679.0147628525272
 31
0.0
  0
LINE
  5
206
330
17
100
AcDbEntity
  8
0
100
AcDbLine
 10
1108.468983630941
 20
1679.0147628525272
 30
0.0
 11
1106.7312148039273
 21
1680.2930193047741
 31
0.0
  0
LINE
  5
207
330
17
100
AcDbEntity
  8
0
100
AcDbLine
 10
1106.7312148039273
 20
1680.2930193047741
 30
0.0
 11
1104.970389689923
 21
1681.5393238308611
 31
0.0
  0
LINE
  5
208
330
17
100
AcDbEntity
  8
0
100
AcDbLine
 10
1104.970389689923
 20
1681.5393238308611
 30
0.0
 11
1103.1870957065914
 21
1682.7532606590635
 31
0.0
  0
LINE
  5
209
330
17
100
AcDbEntity
  8
0
100
AcDbLine
 10
1103.1870957065914
 20
1682.7532606590635
 30
0.0
 11
1101.3819277672937
 21
1683.9344248156417
 31
0.0
  0
LINE
  5
20A
330
17
100
AcDbEntity
  8
0
100
AcDbLine
 10
1101.3819277672937
 20
1683.9344248156417
 30
0.0
 11
1099.555488082619
 21
1685.0824222599335
 31
0.0
  0
LINE
  5
20B
330
17
100
AcDbEntity
  8
0
100
AcDbLine
 10
1099.555488082619
 20
1685.0824222599335
 30
0.0
 11
1097.7083859594923
 21
1686.196870015815
 31
0.0
  0
LINE
  5
20C
330
17
100
AcDbEntity
  8
0
100
AcDbLine
 10
1097.7083859594923
 20
1686.196870015815
 30
0.0
 11
1095.8412375978999
 21
1687.2773962994652
 31
0.0
  0
LINE
  5
20D
330
17
100
AcDbEntity
  8
0
100
AcDbLine
 10
1095.8412375978999
 20
1687.2773962994652
 30
0.0
 11
1093.9546658853278
 21
1688.3236406433803
 31
0.0
  0
LINE
  5
20E
330
17
100
AcDbEntity
  8
0
100
AcDbLine
 10
1093.9546658853278
 20
1688.3236406433803
 30
0.0
 11
1092.049300188962
 21
1689.3352540166438
 31
0.0
  0
LINE
  5
20F
330
17
100
AcDbEntity
  8
0
100
AcDbLine
 10
1092.049300188962
 20
1689.3352540166438
 30
0.0
 11
1090.1257761457305
 21
1690.3118989413529
 31
0.0
  0
LINE
  5
210
330
17
100
AcDbEntity
  8
0
100
AcDbLine
 10
1090.1257761457305
 20
1690.3118989413529
 30
0.0
 11
1088.1847354502506
 21
1691.2532496052113
 31
0.0
  0
LINE
  5
211
330
17
100
AcDbEntity
  8
0
100
AcDbLine
 10
1088.1847354502506
 20
1691.2532496052113
 30
0.0
 11
1086.226825640759
 21
1692.158991970209
 31
0.0
  0
LINE
  5
212
330
17
100
AcDbEntity
  8
0
100
AcDbLine
 10
1086.226825640759
 20
1692.158991970209
 30
0.0
 11
1084.2526998830924
 21
1693.0288238773992
 31
0.0
  0
LINE
  5
213
330
17
100
AcDbEntity
  8
0
100
AcDbLine
 10
1084.2526998830924
 20
1693.0288238773992
 30
0.0
 11
1082.2630167527832
 21
1693.8624551476946
 31
0.0
  0
LINE
  5
214
330
17
100
AcDbEntity
  8
0
100
AcDbLine
 10
1082.2630167527832
 20
1693.8624551476946
 30
0.0
 11
1080.2584400153617
 21
1694.6596076786723
 31
0.0
  0
LINE
  5
215
330
17
100
AcDbEntity
  8
0
100
AcDbLine
 10
1080.2584400153617
 20
1694.6596076786723
 30
0.0
 11
1078.2396384049202
 21
1695.4200155373442
 31
0.0
  0
LINE
  5
216
330
17
100
AcDbEntity
  8
0
100
AcDbLine
 10
1078.2396384049202
 20
1695.4200155373442
 30
0.0
 11
1076.2072854010194
 21
1696.143425048886
 31
0.0
  0
LINE
  5
217
330
17
100
AcDbEntity
  8
0
100
AcDbLine
 10
1076.2072854010194
 20
1696.143425048886
 30
0.0
 11
1074.162059004015
 21
1696.8295948812502
 31
0.0
  0
LINE
  5
218
330
17
100
AcDbEntity
  8
0
100
AcDbLine
 10
1074.162059004015
 20
1696.8295948812502
 30
0.0
 11
1072.1046415088722
 21
1697.478296125687
 31
0.0
  0
LINE
  5
219
330
17
100
AcDbEntity
  8
0
100
AcDbLine
 10
1072.1046415088722
 20
1697.478296125687
 30
0.0
 11
1070.035719277552
 21
1698.0893123731012
 31
0.0
  0
LINE
  5
21A
330
17
100
AcDbEntity
  8
0
100
AcDbLine
 10
1070.035719277552
 20
1698.0893123731012
 30
0.0
 11
1067.9559825100375
 21
1698.6624397862486
 31
0.0
  0
LINE
  5
21B
330
17
100
AcDbEntity
  8
0
100
AcDbLine
 10
1067.9559825100375
 20
1698.6624397862486
 30
0.0
 11
1065.8661250140797
 21
1699.1974871677403
 31
0.0
  0
LINE
  5
21C
330
17
100
AcDbEntity
  8
0
100
AcDbLine
 10
1065.8661250140797
 20
1699.1974871677403
 30
0.0
 11
1063.7668439737413
 21
1699.694276023823
 31
0.0
  0
LINE
  5
21D
330
17
100
AcDbEntity
  8
0
100
AcDbLine
 10
1063.7668439737413
 20
1699.694276023823
 30
0.0
 11
1061.658839716814
 21
1700.1526406239282
 31
0.0
  0
LINE
  5
21E
330
17
100
AcDbEntity
  8
0
100
AcDbLine
 10
1061.658839716814
 20
1700.1526406239282
 30
0.0
 11
1059.542815481186
 21
1700.572428055956
 31
0.0
  0
LINE
  5
21F
330
17
100
AcDbEntity
  8
0
100
AcDbLine
 10
1059.542815481186
 20
1700.572428055956
 30
0.0
 11
1057.4194771802404
 21
1700.9534982772932
 31
0.0
  0
LINE
  5
220
330
17
100
AcDbEntity
  8
0
100
AcDbLine
 10
1057.4194771802404
 20
1700.9534982772932
 30
0.0
 11
1055.2895331673583
 21
1701.2957241615277
 31
0.0
  0
LINE
  5
221
330
17
100
AcDbEntity
  8
0
100
AcDbLine
 10
1055.2895331673583
 20
1701.2957241615277
 30
0.0
 11
1053.1536939996106
 21
1701.5989915408595
 31
0.0
  0
LINE
  5
222
330
17
100
AcDbEntity
  8
0
100
AcDbLine
 10
1053.1536939996106
 20
1701.5989915408595
 30
0.0
 11
1051.0126722007126
 21
1701.8631992441874
 31
0.0
  0
LINE
  5
223
330
17
100
AcDbEntity
  8
0
100
AcDbLine
 10
1051.0126722007126
 20
1701.8631992441874
 30
0.0
 11
1048.867182023326
 21
1702.0882591308612
 31
0.0
  0
LINE
  5
224
330
17
100
AcDbEntity
  8
0
100
AcDbLine
 10
1048.867182023326
 20
1702.0882591308612
 30
0.0
 11
1046.7179392107778
 21
1702.2740961200834
 31
0.0
  0
LINE
  5
225
330
17
100
AcDbEntity
  8
0
100
AcDbLine
 10
1046.7179392107778
 20
1702.2740961200834
 30
0.0
 11
1044.5656607582891
 21
1702.4206482159575
 31
0.0
  0
LINE
  5
226
330
17
100
AcDbEntity
  8
0
100
AcDbLine
 10
1044.5656607582891
 20
1702.4206482159575
 30
0.0
 11
1042.4110646737806
 21
1702.5278665281737
 31
0.0
  0
LINE
  5
227
330
17
100
AcDbEntity
  8
0
100
AcDbLine
 10
1042.4110646737806
 20
1702.5278665281737
 30
0.0
 11
1040.2548697383447
 21
1702.5957152883102
 31
0.0
  0
LINE
  5
228
330
17
100
AcDbEntity
  8
0
100
AcDbLine
 10
1040.2548697383447
 20
1702.5957152883102
 30
0.0
 11
1038.0977952664546
 21
1702.6241718617757
 31
0.0
  0
LINE
  5
229
330
17
100
AcDbEntity
  8
0
100
AcDbLine
 10
1038.0977952664546
 20
1702.6241718617757
 30
0.0
 11
1035.9405608660018
 21
1702.6132267553535
 31
0.0
  0
LINE
  5
22A
330
17
100
AcDbEntity
  8
0
100
AcDbLine
 10
1035.9405608660018
 20
1702.6132267553535
 30
0.0
 11
1033.7838861982286
 21
1702.5628836203691
 31
0.0
  0
LINE
  5
22B
330
17
100
AcDbEntity
  8
0
100
AcDbLine
 10
1033.7838861982286
 20
1702.5628836203691
 30
0.0
 11
1031.6284907376507
 21
1702.4731592514777
 31
0.0
  0
LINE
  5
22C
330
17
100
AcDbEntity
  8
0
100
AcDbLine
 10
1031.6284907376507
 20
1702.4731592514777
 30
0.0
 11
1029.4750935320344
 21
1702.3440835810543
 31
0.0
  0
LINE
  5
22D
330
17
100
AcDbEntity
  8
0
100
AcDbLine
 10
1029.4750935320344
 20
1702.3440835810543
 30
0.0
 11
1027.3244129625202
 21
1702.175699669212
 31
0.0
  0
LINE
  5
22E
330
17
100
AcDbEntity
  8
0
100
AcDbLine
 10
1137.626120497603
 20
1399.6663474832926
 30
0.0
 11
1135.960967156566
 21
1401.037859205695
 31
0.0
  0
LINE
  5
22F
330
17
100
AcDbEntity
  8
0
100
AcDbLine
 10
1135.960967156566
 20
1401.037859205695
 30
0.0
 11
1134.27104219648
 21
1402.378729700236
 31
0.0
  0
LINE
  5
230
330
17
100
AcDbEntity
  8
0
100
AcDbLine
 10
1134.27104219648
 20
1402.378729700236
 30
0.0
 11
1132.5569093824593
 21
1403.688511647642
 31
0.0
  0
LINE
  5
231
330
17
100
AcDbEntity
  8
0
100
AcDbLine
 10
1132.5569093824593
 20
1403.688511647642
 30
0.0
 11
1130.8191405554455
 21
1404.9667680998887
 31
0.0
  0
LINE
  5
232
330
17
100
AcDbEntity
  8
0
100
AcDbLine
 10
1130.8191405554455
 20
1404.9667680998887
 30
0.0
 11
1129.0583154414412
 21
1406.2130726259752
 31
0.0
  0
LINE
  5
233
330
17
100
AcDbEntity
  8
0
100
AcDbLine
 10
1129.0583154414412
 20
1406.2130726259752
 30
0.0
 11
1127.2750214581097
 21
1407.4270094541787
 31
0.0
  0
LINE
  5
234
330
17
100
AcDbEntity
  8
0
100
AcDbLine
 10
1127.2750214581097
 20
1407.4270094541787
 30
0.0
 11
1125.469853518812
 21
1408.6081736107549
 31
0.0
  0
LINE
  5
235
330
17
100
AcDbEntity
  8
0
100
AcDbLine
 10
1125.469853518812
 20
1408.6081736107549
 30
0.0
 11
1123.6434138341374
 21
1409.7561710550472
 31
0.0
  0
LINE
  5
236
330
17
100
AcDbEntity
  8
0
100
AcDbLine
 10
1123.6434138341374
 20
1409.7561710550472
 30
0.0
 11
1121.7963117110105
 21
1410.8706188109295
 31
0.0
  0
LINE
  5
237
330
17
100
AcDbEntity
  8
0
100
AcDbLine
 10
1121.7963117110105
 20
1410.8706188109295
 30
0.0
 11
1119.929163349418
 21
1411.9511450945784
 31
0.0
  0
LINE
  5
238
330
17
100
AcDbEntity
  8
0
100
AcDbLine
 10
1119.929163349418
 20
1411.9511450945784
 30
0.0
 11
1118.042591636846
 21
1412.9973894384952
 31
0.0
  0
LINE
  5
239
330
17
100
AcDbEntity
  8
0
100
AcDbLine
 10
1118.042591636846
 20
1412.9973894384952
 30
0.0
 11
1116.1372259404802
 21
1414.009002811759
 31
0.0
  0
LINE
  5
23A
330
17
100
AcDbEntity
  8
0
100
AcDbLine
 10
1116.1372259404802
 20
1414.009002811759
 30
0.0
 11
1114.2137018972485
 21
1414.9856477364692
 31
0.0
  0
LINE
  5
23B
330
17
100
AcDbEntity
  8
0
100
AcDbLine
 10
1114.2137018972485
 20
1414.9856477364692
 30
0.0
 11
1112.2726612017689
 21
1415.926998400325
 31
0.0
  0
LINE
  5
23C
330
17
100
AcDbEntity
  8
0
100
AcDbLine
 10
1112.2726612017689
 20
1415.926998400325
 30
0.0
 11
1110.3147513922775
 21
1416.8327407653226
 31
0.0
  0
LINE
  5
23D
330
17
100
AcDbEntity
  8
0
100
AcDbLine
 10
1110.3147513922775
 20
1416.8327407653226
 30
0.0
 11
1108.3406256346104
 21
1417.7025726725149
 31
0.0
  0
LINE
  5
23E
330
17
100
AcDbEntity
  8
0
100
AcDbLine
 10
1108.3406256346104
 20
1417.7025726725149
 30
0.0
 11
1106.3509425043012
 21
1418.5362039428096
 31
0.0
  0
LINE
  5
23F
330
17
100
AcDbEntity
  8
0
100
AcDbLine
 10
1106.3509425043012
 20
1418.5362039428096
 30
0.0
 11
1104.34636576688
 21
1419.333356473787
 31
0.0
  0
LINE
  5
240
330
17
100
AcDbEntity
  8
0
100
AcDbLine
 10
1104.34636576688
 20
1419.333356473787
 30
0.0
 11
1102.3275641564385
 21
1420.0937643324592
 31
0.0
  0
LINE
  5
241
330
17
100
AcDbEntity
  8
0
100
AcDbLine
 10
1102.3275641564385
 20
1420.0937643324592
 30
0.0
 11
1100.2952111525378
 21
1420.8171738439999
 31
0.0
  0
LINE
  5
242
330
17
100
AcDbEntity
  8
0
100
AcDbLine
 10
1100.2952111525378
 20
1420.8171738439999
 30
0.0
 11
1098.2499847555332
 21
1421.503343676365
 31
0.0
  0
LINE
  5
243
330
17
100
AcDbEntity
  8
0
100
AcDbLine
 10
1098.2499847555332
 20
1421.503343676365
 30
0.0
 11
1096.1925672603904
 21
1422.152044920802
 31
0.0
  0
LINE
  5
244
330
17
100
AcDbEntity
  8
0
100
AcDbLine
 10
1096.1925672603904
 20
1422.152044920802
 30
0.0
 11
1094.1236450290703
 21
1422.7630611682157
 31
0.0
  0
LINE
  5
245
330
17
100
AcDbEntity
  8
0
100
AcDbLine
 10
1094.1236450290703
 20
1422.7630611682157
 30
0.0
 11
1092.0439082615558
 21
1423.3361885813638
 31
0.0
  0
LINE
  5
246
330
17
100
AcDbEntity
  8
0
100
AcDbLine
 10
1092.0439082615558
 20
1423.3361885813638
 30
0.0
 11
1089.954050765598
 21
1423.871235962855
 31
0.0
  0
LINE
  5
247
330
17
100
AcDbEntity
  8
0
100
AcDbLine
 10
1089.954050765598
 20
1423.871235962855
 30
0.0
 11
1087.8547697252595
 21
1424.368024818938
 31
0.0
  0
LINE
  5
248
330
17
100
AcDbEntity
  8
0
100
AcDbLine
 10
1087.8547697252595
 20
1424.368024818938
 30
0.0
 11
1085.7467654683323
 21
1424.8263894190427
 31
0.0
  0
LINE
  5
249
330
17
100
AcDbEntity
  8
0
100
AcDbLine
 10
1085.7467654683323
 20
1424.8263894190427
 30
0.0
 11
1083.6307412327042
 21
1425.246176851071
 31
0.0
  0
LINE
  5
24A
330
17
100
AcDbEntity
  8
0
100
AcDbLine
 10
1083.6307412327042
 20
1425.246176851071
 30
0.0
 11
1081.5074029317586
 21
1425.627247072408
 31
0.0
  0
LINE
  5
24B
330
17
100
AcDbEntity
  8
0
100
AcDbLine
 10
1081.5074029317586
 20
1425.627247072408
 30
0.0
 11
1079.3774589188765
 21
1425.9694729566431
 31
0.0
  0
LINE
  5
24C
330
17
100
AcDbEntity
  8
0
100
AcDbLine
 10
1079.3774589188765
 20
1425.9694729566431
 30
0.0
 11
1077.2416197511288
 21
1426.272740335974
 31
0.0
  0
LINE
  5
24D
330
17
100
AcDbEntity
  8
0
100
AcDbLine
 10
1077.2416197511288
 20
1426.272740335974
 30
0.0
 11
1075.1005979522308
 21
1426.5369480393022
 31
0.0
  0
LINE
  5
24E
330
17
100
AcDbEntity
  8
0
100
AcDbLine
 10
1075.1005979522308
 20
1426.5369480393022
 30
0.0
 11
1072.9551077748442
 21
1426.762007925976
 31
0.0
  0
LINE
  5
24F
330
17
100
AcDbEntity
  8
0
100
AcDbLine
 10
1072.9551077748442
 20
1426.762007925976
 30
0.0
 11
1070.805864962296
 21
1426.9478449151982
 31
0.0
  0
LINE
  5
250
330
17
100
AcDbEntity
  8
0
100
AcDbLine
 10
1070.805864962296
 20
1426.9478449151982
 30
0.0
 11
1068.6535865098074
 21
1427.0943970110723
 31
0.0
  0
LINE
  5
251
330
17
100
AcDbEntity
  8
0
100
AcDbLine
 10
1068.6535865098074
 20
1427.0943970110723
 30
0.0
 11
1066.498990425299
 21
1427.2016153232876
 31
0.0
  0
LINE
  5
252
330
17
100
AcDbEntity
  8
0
100
AcDbLine
 10
1066.498990425299
 20
1427.2016153232876
 30
0.0
 11
1064.342795489863
 21
1427.269464083425
 31
0.0
  0
LINE
  5
253
330
17
100
AcDbEntity
  8
0
100
AcDbLine
 10
1064.342795489863
 20
1427.269464083425
 30
0.0
 11
1062.1857210179728
 21
1427.2979206568891
 31
0.0
  0
LINE
  5
254
330
17
100
AcDbEntity
  8
0
100
AcDbLine
 10
1062.1857210179728
 20
1427.2979206568891
 30
0.0
 11
1060.02848661752
 21
1427.286975550468
 31
0.0
  0
LINE
  5
255
330
17
100
AcDbEntity
  8
0
100
AcDbLine
 10
1060.02848661752
 20
1427.286975550468
 30
0.0
 11
1057.8718119497469
 21
1427.236632415483
 31
0.0
  0
LINE
  5
256
330
17
100
AcDbEntity
  8
0
100
AcDbLine
 10
1057.8718119497469
 20
1427.236632415483
 30
0.0
 11
1055.716416489169
 21
1427.1469080465924
 31
0.0
  0
LINE
  5
257
330
17
100
AcDbEntity
  8
0
100
AcDbLine
 10
1055.716416489169
 20
1427.1469080465924
 30
0.0
 11
1053.5630192835526
 21
1427.017832376168
 31
0.0
  0
LINE
  5
258
330
17
100
AcDbEntity
  8
0
100
AcDbLine
 10
1053.5630192835526
 20
1427.017832376168
 30
0.0
 11
1051.4123387140385
 21
1426.8494484643265
 31
0.0
  0
LINE
  5
259
330
17
100
AcDbEntity
  8
0
100
AcDbLine
 10
1316.1491187187346
 20
1450.0109155330954
 30
0.0
 11
1314.1224178766686
 21
1449.8140248039767
 31
0.0
  0
LINE
  5
25A
330
17
100
AcDbEntity
  8
0
100
AcDbLine
 10
1314.1224178766686
 20
1449.8140248039767
 30
0.0
 11
1312.099860295114
 21
1449.5783489848072
 31
0.0
  0
LINE
  5
25B
330
17
100
AcDbEntity
  8
0
100
AcDbLine
 10
1312.099860295114
 20
1449.5783489848072
 30
0.0
 11
1310.0821881376935
 21
1449.3039745552128
 31
0.0
  0
LINE
  5
25C
330
17
100
AcDbEntity
  8
0
100
AcDbLine
 10
1310.0821881376935
 20
1449.3039745552128
 30
0.0
 11
1308.0701417753571
 21
1448.9910021950072
 31
0.0
  0
LINE
  5
25D
330
17
100
AcDbEntity
  8
0
100
AcDbLine
 10
1308.0701417753571
 20
1448.9910021950072
 30
0.0
 11
1306.0644595147078
 21
1448.6395467472487
 31
0.0
  0
LINE
  5
25E
330
17
100
AcDbEntity
  8
0
100
AcDbLine
 10
1306.0644595147078
 20
1448.6395467472487
 30
0.0
 11
1304.0658773270836
 21
1448.2497371761026
 31
0.0
  0
LINE
  5
25F
330
17
100
AcDbEntity
  8
0
100
AcDbLine
 10
1304.0658773270836
 20
1448.2497371761026
 30
0.0
 11
1302.0751285785018
 21
1447.8217165195172
 31
0.0
  0
LINE
  5
260
330
17
100
AcDbEntity
  8
0
100
AcDbLine
 10
1302.0751285785018
 20
1447.8217165195172
 30
0.0
 11
1300.0929437605525
 21
1447.3556418367295
 31
0.0
  0
LINE
  5
261
330
17
100
AcDbEntity
  8
0
100
AcDbLine
 10
1300.0929437605525
 20
1447.3556418367295
 30
0.0
 11
1298.1200502223487
 21
1446.8516841506487
 31
0.0
  0
LINE
  5
262
330
17
100
AcDbEntity
  8
0
100
AcDbLine
 10
1298.1200502223487
 20
1446.8516841506487
 30
0.0
 11
1296.1571719036338
 21
1446.3100283850915
 31
0.0
  0
LINE
  5
263
330
17
100
AcDbEntity
  8
0
100
AcDbLine
 10
1296.1571719036338
 20
1446.3100283850915
 30
0.0
 11
1294.2050290691338
 21
1445.73087329692
 31
0.0
  0
LINE
  5
264
330
17
100
AcDbEntity
  8
0
100
AcDbLine
 10
1294.2050290691338
 20
1445.73087329692
 30
0.0
 11
1292.264338044264
 21
1445.1144314031171
 31
0.0
  0
LINE
  5
265
330
17
100
AcDbEntity
  8
0
100
AcDbLine
 10
1292.264338044264
 20
1445.1144314031171
 30
0.0
 11
1290.335810952275
 21
1444.4609289028074
 31
0.0
  0
LINE
  5
266
330
17
100
AcDbEntity
  8
0
100
AcDbLine
 10
1290.335810952275
 20
1444.4609289028074
 30
0.0
 11
1288.4201554529477
 21
1443.770605594248
 31
0.0
  0
LINE
  5
267
330
17
100
AcDbEntity
  8
0
100
AcDbLine
 10
1288.4201554529477
 20
1443.770605594248
 30
0.0
 11
1286.518074482918
 21
1443.0437147868402
 31
0.0
  0
LINE
  5
268
330
17
100
AcDbEntity
  8
0
100
AcDbLine
 10
1286.518074482918
 20
1443.0437147868402
 30
0.0
 11
1284.630265997744
 21
1442.2805232081714
 31
0.0
  0
LINE
  5
269
330
17
100
AcDbEntity
  8
0
100
AcDbLine
 10
1284.630265997744
 20
1442.2805232081714
 30
0.0
 11
1282.757422715791
 21
1441.4813109061593
 31
0.0
  0
LINE
  5
26A
330
17
100
AcDbEntity
  8
0
100
AcDbLine
 10
1282.757422715791
 20
1441.4813109061593
 30
0.0
 11
1280.9002318640476
 21
1440.6463711462684
 31
0.0
  0
LINE
  5
26B
330
17
100
AcDbEntity
  8
0
100
AcDbLine
 10
1280.9002318640476
 20
1440.6463711462684
 30
0.0
 11
1279.05937492595
 21
1439.7760103039166
 31
0.0
  0
LINE
  5
26C
330
17
100
AcDbEntity
  8
0
100
AcDbLine
 10
1279.05937492595
 20
1439.7760103039166
 30
0.0
 11
1277.235527391316
 21
1438.8705477520366
 31
0.0
  0
LINE
  5
26D
330
17
100
AcDbEntity
  8
0
100
AcDbLine
 10
1277.235527391316
 20
1438.8705477520366
 30
0.0
 11
1275.429358508481
 21
1437.9303157439003
 31
0.0
  0
LINE
  5
26E
330
17
100
AcDbEntity
  8
0
100
AcDbLine
 10
1275.429358508481
 20
1437.9303157439003
 30
0.0
 11
1273.6415310387194
 21
1436.9556592911902
 31
0.0
  0
LINE
  5
26F
330
17
100
AcDbEntity
  8
0
100
AcDbLine
 10
1273.6415310387194
 20
1436.9556592911902
 30
0.0
 11
1271.8727010130506
 21
1435.9469360374003
 31
0.0
  0
LINE
  5
270
330
17
100
AcDbEntity
  8
0
100
AcDbLine
 10
1271.8727010130506
 20
1435.9469360374003
 30
0.0
 11
1270.1235174915116
 21
1434.904516126605
 31
0.0
  0
LINE
  5
271
330
17
100
AcDbEntity
  8
0
100
AcDbLine
 10
1270.1235174915116
 20
1434.904516126605
 30
0.0
 11
1268.3946223249905
 21
1433.828782067637
 31
0.0
  0
LINE
  5
272
330
17
100
AcDbEntity
  8
0
100
AcDbLine
 10
1268.3946223249905
 20
1433.828782067637
 30
0.0
 11
1266.6866499197015
 21
1432.7201285937253
 31
0.0
  0
LINE
  5
273
330
17
100
AcDbEntity
  8
0
100
AcDbLine
 10
1266.6866499197015
 20
1432.7201285937253
 30
0.0
 11
1265.0002270043965
 21
1431.5789625176535
 31
0.0
  0
LINE
  5
274
330
17
100
AcDbEntity
  8
0
100
AcDbLine
 10
1265.0002270043965
 20
1431.5789625176535
 30
0.0
 11
1263.3359724003894
 21
1430.4057025824782
 31
0.0
  0
LINE
  5
275
330
17
100
AcDbEntity
  8
0
100
AcDbLine
 10
1263.3359724003894
 20
1430.4057025824782
 30
0.0
 11
1261.694496794484
 21
1429.200779307883
 31
0.0
  0
LINE
  5
276
330
17
100
AcDbEntity
  8
0
100
AcDbLine
 10
1261.694496794484
 20
1429.200779307883
 30
0.0
 11
1260.0764025148874
 21
1427.9646348321926
 31
0.0
  0
LINE
  5
277
330
17
100
AcDbEntity
  8
0
100
AcDbLine
 10
1260.0764025148874
 20
1427.9646348321926
 30
0.0
 11
1258.4822833101903
 21
1426.6977227501368
 31
0.0
  0
LINE
  5
278
330
17
100
AcDbEntity
  8
0
100
AcDbLine
 10
1258.4822833101903
 20
1426.6977227501368
 30
0.0
 11
1256.9127241314923
 21
1425.4005079464089
 31
0.0
  0
LINE
  5
279
330
17
100
AcDbEntity
  8
0
100
AcDbLine
 10
1256.9127241314923
 20
1425.4005079464089
 30
0.0
 11
1255.368300917762
 21
1424.0734664250785
 31
0.0
  0
LINE
  5
27A
330
17
100
AcDbEntity
  8
0
100
AcDbLine
 10
1255.368300917762
 20
1424.0734664250785
 30
0.0
 11
1253.8495803844976
 21
1422.7170851349215
 31
0.0
  0
LINE
  5
27B
330
17
100
AcDbEntity
  8
0
100
AcDbLine
 10
1253.8495803844976
 20
1422.7170851349215
 30
0.0
 11
1252.3571198157745
 21
1421.3318617907457
 31
0.0
  0
LINE
  5
27C
330
17
100
AcDbEntity
  8
0
100
AcDbLine
 10
1252.3571198157745
 20
1421.3318617907457
 30
0.0
 11
1250.8914668597545
 21
1419.9183046907476
 31
0.0
  0
LINE
  5
27D
330
17
100
AcDbEntity
  8
0
100
AcDbLine
 10
1250.8914668597545
 20
1419.9183046907476
 30
0.0
 11
1249.4531593277309
 21
1418.476932530003
 31
0.0
  0
LINE
  5
27E
330
17
100
AcDbEntity
  8
0
100
AcDbLine
 10
1249.4531593277309
 20
1418.476932530003
 30
0.0
 11
1248.0427249967802
 21
1417.0082742101338
 31
0.0
  0
LINE
  5
27F
330
17
100
AcDbEntity
  8
0
100
AcDbLine
 10
1248.0427249967802
 20
1417.0082742101338
 30
0.0
 11
1246.6606814160994
 21
1415.5128686452315
 31
0.0
  0
LINE
  5
280
330
17
100
AcDbEntity
  8
0
100
AcDbLine
 10
1246.6606814160994
 20
1415.5128686452315
 30
0.0
 11
1245.3075357170953
 21
1413.991264564101
 31
0.0
  0
LINE
  5
281
330
17
100
AcDbEntity
  8
0
100
AcDbLine
 10
1245.3075357170953
 20
1413.991264564101
 30
0.0
 11
1243.9837844272936
 21
1412.4440203089196
 31
0.0
  0
LINE
  5
282
330
17
100
AcDbEntity
  8
0
100
AcDbLine
 10
1160.4850867923456
 20
1176.1528025654563
 30
0.0
 11
1161.6293420657787
 21
1177.5470816503077
 31
0.0
  0
LINE
  5
283
330
17
100
AcDbEntity
  8
0
100
AcDbLine
 10
1161.6293420657787
 20
1177.5470816503077
 30
0.0
 11
1162.7429089995007
 21
1178.9659907317339
 31
0.0
  0
LINE
  5
284
330
17
100
AcDbEntity
  8
0
100
AcDbLine
 10
1162.7429089995007
 20
1178.9659907317339
 30
0.0
 11
1163.8252575959623
 21
1180.4088544858591
 31
0.0
  0
LINE
  5
285
330
17
100
AcDbEntity
  8
0
100
AcDbLine
 10
1163.8252575959623
 20
1180.4088544858591
 30
0.0
 11
1164.8758727158506
 21
1181.8749861876827
 31
0.0
  0
LINE
  5
286
330
17
100
AcDbEntity
  8
0
100
AcDbLine
 10
1164.8758727158506
 20
1181.8749861876827
 30
0.0
 11
1165.8942543232704
 21
1183.3636880379192
 31
0.0
  0
LINE
  5
287
330
17
100
AcDbEntity
  8
0
100
AcDbLine
 10
1165.8942543232704
 20
1183.3636880379192
 30
0.0
 11
1166.879917723732
 21
1184.874251495118
 31
0.0
  0
LINE
  5
288
330
17
100
AcDbEntity
  8
0
100
AcDbLine
 10
1166.879917723732
 20
1184.874251495118
 30
0.0
 11
1167.8323937948392
 21
1186.405957612882
 31
0.0
  0
LINE
  5
289
330
17
100
AcDbEntity
  8
0
100
AcDbLine
 10
1167.8323937948392
 20
1186.405957612882
 30
0.0
 11
1168.751229209569
 21
1187.9580773820599
 31
0.0
  0
LINE
  5
28A
330
17
100
AcDbEntity
  8
0
100
AcDbLine
 10
1168.751229209569
 20
1187.9580773820599
 30
0.0
 11
1169.635986652027
 21
1189.5298720777012
 31
0.0
  0
LINE
  5
28B
330
17
100
AcDbEntity
  8
0
100
AcDbLine
 10
1169.635986652027
 20
1189.5298720777012
 30
0.0
 11
1170.4862450255905
 21
1191.1205936106599
 31
0.0
  0
LINE
  5
28C
330
17
100
AcDbEntity
  8
0
100
AcDbLine
 10
1170.4862450255905
 20
1191.1205936106599
 30
0.0
 11
1171.301599653322
 21
1192.7294848836389
 31
0.0
  0
LINE
  5
28D
330
17
100
AcDbEntity
  8
0
100
AcDbLine
 10
1171.301599653322
 20
1192.7294848836389
 30
0.0
 11
1172.0816624705783
 21
1194.3557801515306
 31
0.0
  0
LINE
  5
28E
330
17
100
AcDbEntity
  8
0
100
AcDbLine
 10
1172.0816624705783
 20
1194.3557801515306
 30
0.0
 11
1172.8260622097075
 21
1195.9987053858652
 31
0.0
  0
LINE
  5
28F
330
17
100
AcDbEntity
  8
0
100
AcDbLine
 10
1172.8260622097075
 20
1195.9987053858652
 30
0.0
 11
1173.5344445767491
 21
1197.6574786432143
 31
0.0
  0
LINE
  5
290
330
17
100
AcDbEntity
  8
0
100
AcDbLine
 10
1173.5344445767491
 20
1197.6574786432143
 30
0.0
 11
1174.2064724200636
 21
1199.3313104373456
 31
0.0
  0
LINE
  5
291
330
17
100
AcDbEntity
  8
0
100
AcDbLine
 10
1174.2064724200636
 20
1199.3313104373456
 30
0.0
 11
1174.841825890793
 21
1201.019404114977
 31
0.0
  0
LINE
  5
292
330
17
100
AcDbEntity
  8
0
100
AcDbLine
 10
1174.841825890793
 20
1201.019404114977
 30
0.0
 11
1175.4402025950967
 21
1202.7209562349485
 31
0.0
  0
LINE
  5
293
330
17
100
AcDbEntity
  8
0
100
AcDbLine
 10
1175.4402025950967
 20
1202.7209562349485
 30
0.0
 11
1176.0013177380713
 21
1204.4351569506043
 31
0.0
  0
LINE
  5
294
330
17
100
AcDbEntity
  8
0
100
AcDbLine
 10
1176.0013177380713
 20
1204.4351569506043
 30
0.0
 11
1176.5249042592986
 21
1206.1611903952455
 31
0.0
  0
LINE
  5
295
330
17
100
AcDbEntity
  8
0
100
AcDbLine
 10
1176.5249042592986
 20
1206.1611903952455
 30
0.0
 11
1177.010712959952
 21
1207.898235070435
 31
0.0
  0
LINE
  5
296
330
17
100
AcDbEntity
  8
0
100
AcDbLine
 10
1177.010712959952
 20
1207.898235070435
 30
0.0
 11
1177.4585126214006
 21
1209.6454642369838
 31
0.0
  0
LINE
  5
297
330
17
100
AcDbEntity
  8
0
100
AcDbLine
 10
1177.4585126214006
 20
1209.6454642369838
 30
0.0
 11
1177.8680901152595
 21
1211.402046308437
 31
0.0
  0
LINE
  5
298
330
17
100
AcDbEntity
  8
0
100
AcDbLine
 10
1177.8680901152595
 20
1211.402046308437
 30
0.0
 11
1178.239250504824
 21
1213.1671452468684
 31
0.0
  0
LINE
  5
299
330
17
100
AcDbEntity
  8
0
100
AcDbLine
 10
1178.239250504824
 20
1213.1671452468684
 30
0.0
 11
1178.5718171378494
 21
1214.9399209607789
 31
0.0
  0
LINE
  5
29A
330
17
100
AcDbEntity
  8
0
100
AcDbLine
 10
1178.5718171378494
 20
1214.9399209607789
 30
0.0
 11
1178.865631730631
 21
1216.7195297049407
 31
0.0
  0
LINE
  5
29B
330
17
100
AcDbEntity
  8
0
100
AcDbLine
 10
1178.865631730631
 20
1216.7195297049407
 30
0.0
 11
1179.120554443336
 21
1218.505124481977
 31
0.0
  0
LINE
  5
29C
330
17
100
AcDbEntity
  8
0
100
AcDbLine
 10
1179.120554443336
 20
1218.505124481977
 30
0.0
 11
1179.3364639465597
 21
1220.29585544548
 31
0.0
  0
LINE
  5
29D
330
17
100
AcDbEntity
  8
0
100
AcDbLine
 10
1179.3364639465597
 20
1220.29585544548
 30
0.0
 11
1179.513257479071
 21
1222.0908703044975
 31
0.0
  0
LINE
  5
29E
330
17
100
AcDbEntity
  8
0
100
AcDbLine
 10
1179.513257479071
 20
1222.0908703044975
 30
0.0
 11
1179.6508508967243
 21
1223.8893147291742
 31
0.0
  0
LINE
  5
29F
330
17
100
AcDbEntity
  8
0
100
AcDbLine
 10
1179.6508508967243
 20
1223.8893147291742
 30
0.0
 11
1179.7491787125052
 21
1225.6903327573673
 31
0.0
  0
LINE
  5
2A0
330
17
100
AcDbEntity
  8
0
100
AcDbLine
 10
1179.7491787125052
 20
1225.6903327573673
 30
0.0
 11
1179.8081941276987
 21
1227.4930672020373
 31
0.0
  0
LINE
  5
2A1
330
17
100
AcDbEntity
  8
0
100
AcDbLine
 10
1179.8081941276987
 20
1227.4930672020373
 30
0.0
 11
1179.827869054163
 21
1229.2966600592251
 31
0.0
  0
LINE
  5
2A2
330
17
100
AcDbEntity
  8
0
100
AcDbLine
 10
1179.827869054163
 20
1229.2966600592251
 30
0.0
 11
1179.8081941276987
 21
1231.1002529164134
 31
0.0
  0
LINE
  5
2A3
330
17
100
AcDbEntity
  8
0
100
AcDbLine
 10
1179.8081941276987
 20
1231.1002529164134
 30
0.0
 11
1179.7491787125055
 21
1232.9029873610832
 31
0.0
  0
LINE
  5
2A4
330
17
100
AcDbEntity
  8
0
100
AcDbLine
 10
1179.7491787125055
 20
1232.9029873610832
 30
0.0
 11
1179.6508508967247
 21
1234.7040053892763
 31
0.0
  0
LINE
  5
2A5
330
17
100
AcDbEntity
  8
0
100
AcDbLine
 10
1179.6508508967247
 20
1234.7040053892763
 30
0.0
 11
1179.513257479071
 21
1236.5024498139528
 31
0.0
  0
LINE
  5
2A6
330
17
100
AcDbEntity
  8
0
100
AcDbLine
 10
1179.5132574790691
 20
1236.5024498139526
 30
0.0
 11
1179.7208934588443
 21
1234.3552033554029
 31
0.0
  0
LINE
  5
2A7
330
17
100
AcDbEntity
  8
0
100
AcDbLine
 10
1179.7208934588443
 20
1234.3552033554029
 30
0.0
 11
1179.9677122384346
 21
1232.212107337046
 31
0.0
  0
LINE
  5
2A8
330
17
100
AcDbEntity
  8
0
100
AcDbLine
 10
1179.9677122384346
 20
1232.212107337046
 30
0.0
 11
1180.2536314781971
 21
1230.0738767035118
 31
0.0
  0
LINE
  5
2A9
330
17
100
AcDbEntity
  8
0
100
AcDbLine
 10
1180.2536314781971
 20
1230.0738767035118
 30
0.0
 11
1180.5785557944337
 21
1227.9412247763153
 31
0.0
  0
LINE
  5
2AA
330
17
100
AcDbEntity
  8
0
100
AcDbLine
 10
1180.5785557944337
 20
1227.9412247763153
 30
0.0
 11
1180.94237679121
 21
1225.8148630158994
 31
0.0
  0
LINE
  5
2AB
330
17
100
AcDbEntity
  8
0
100
AcDbLine
 10
1180.94237679121
 20
1225.8148630158994
 30
0.0
 11
1181.344973096518
 21
1223.6955007842832
 31
0.0
  0
LINE
  5
2AC
330
17
100
AcDbEntity
  8
0
100
AcDbLine
 10
1181.344973096518
 20
1223.6955007842832
 30
0.0
 11
1181.7862104027665
 21
1221.5838451084142
 31
0.0
  0
LINE
  5
2AD
330
17
100
AcDbEntity
  8
0
100
AcDbLine
 10
1181.7862104027665
 20
1221.5838451084142
 30
0.0
 11
1182.2659415115843
 21
1219.480600444309
 31
0.0
  0
LINE
  5
2AE
330
17
100
AcDbEntity
  8
0
100
AcDbLine
 10
1182.2659415115843
 20
1219.480600444309
 30
0.0
 11
1182.7840063829285
 21
1217.3864684420391
 31
0.0
  0
LINE
  5
2AF
330
17
100
AcDbEntity
  8
0
100
AcDbLine
 10
1182.7840063829285
 20
1217.3864684420391
 30
0.0
 11
1183.3402321884735
 21
1215.3021477116572
 31
0.0
  0
LINE
  5
2B0
330
17
100
AcDbEntity
  8
0
100
AcDbLine
 10
1183.3402321884735
 20
1215.3021477116572
 30
0.0
 11
1183.934433369267
 21
1213.2283335901427
 31
0.0
  0
LINE
  5
2B1
330
17
100
AcDbEntity
  8
0
100
AcDbLine
 10
1183.934433369267
 20
1213.2283335901427
 30
0.0
 11
1184.5664116976338
 21
1211.1657179094277
 31
0.0
  0
LINE
  5
2B2
330
17
100
AcDbEntity
  8
0
100
AcDbLine
 10
1184.5664116976338
 20
1211.1657179094277
 30
0.0
 11
1185.2359563433047
 21
1209.1149887656093
 31
0.0
  0
LINE
  5
2B3
330
17
100
AcDbEntity
  8
0
100
AcDbLine
 10
1185.2359563433047
 20
1209.1149887656093
 30
0.0
 11
1185.9428439437497
 21
1207.0768302893891
 31
0.0
  0
LINE
  5
2B4
330
17
100
AcDbEntity
  8
0
100
AcDbLine
 10
1185.9428439437497
 20
1207.0768302893891
 30
0.0
 11
1186.6868386786946
 21
1205.051922417848
 31
0.0
  0
LINE
  5
2B5
330
17
100
AcDbEntity
  8
0
100
AcDbLine
 10
1186.6868386786946
 20
1205.051922417848
 30
0.0
 11
1187.4676923487887
 21
1203.0409406676195
 31
0.0
  0
LINE
  5
2B6
330
17
100
AcDbEntity
  8
0
100
AcDbLine
 10
1187.4676923487887
 20
1203.0409406676195
 30
0.0
 11
1188.2851444584076
 21
1201.0445559095294
 31
0.0
  0
LINE
  5
2B7
330
17
100
AcDbEntity
  8
0
100
AcDbLine
 10
1188.2851444584076
 20
1201.0445559095294
 30
0.0
 11
1189.1389223025535
 21
1199.0634341447967
 31
0.0
  0
LINE
  5
2B8
330
17
100
AcDbEntity
  8
0
100
AcDbLine
 10
1189.1389223025535
 20
1199.0634341447967
 30
0.0
 11
1190.0287410578321
 21
1197.098236282848
 31
0.0
  0
LINE
  5
2B9
330
17
100
AcDbEntity
  8
0
100
AcDbLine
 10
1190.0287410578321
 20
1197.098236282848
 30
0.0
 11
1190.9543038774696
 21
1195.1496179208386
 31
0.0
  0
LINE
  5
2BA
330
17
100
AcDbEntity
  8
0
100
AcDbLine
 10
1190.9543038774696
 20
1195.1496179208386
 30
0.0
 11
1191.9153019903424
 21
1193.218229124944
 31
0.0
  0
LINE
  5
2BB
330
17
100
AcDbEntity
  8
0
100
AcDbLine
 10
1191.9153019903424
 20
1193.218229124944
 30
0.0
 11
1192.9114148039841
 21
1191.3047142134906
 31
0.0
  0
LINE
  5
2BC
330
17
100
AcDbEntity
  8
0
100
AcDbLine
 10
1192.9114148039841
 20
1191.3047142134906
 30
0.0
 11
1193.9423100115368
 21
1189.4097115420157
 31
0.0
  0
LINE
  5
2BD
330
17
100
AcDbEntity
  8
0
100
AcDbLine
 10
1193.9423100115368
 20
1189.4097115420157
 30
0.0
 11
1195.007643702609
 21
1187.533853290303
 31
0.0
  0
LINE
  5
2BE
330
17
100
AcDbEntity
  8
0
100
AcDbLine
 10
1195.007643702609
 20
1187.533853290303
 30
0.0
 11
1196.1070604780055
 21
1185.6777652514877
 31
0.0
  0
LINE
  5
2BF
330
17
100
AcDbEntity
  8
0
100
AcDbLine
 10
1196.1070604780055
 20
1185.6777652514877
 30
0.0
 11
1197.240193568291
 21
1183.8420666232953
 31
0.0
  0
LINE
  5
2C0
330
17
100
AcDbEntity
  8
0
100
AcDbLine
 10
1197.240193568291
 20
1183.8420666232953
 30
0.0
 11
1198.4066649561448
 21
1182.0273698014614
 31
0.0
  0
LINE
  5
2C1
330
17
100
AcDbEntity
  8
0
100
AcDbLine
 10
1198.4066649561448
 20
1182.0273698014614
 30
0.0
 11
1199.6060855024687
 21
1180.2342801754517
 31
0.0
  0
LINE
  5
2C2
330
17
100
AcDbEntity
  8
0
100
AcDbLine
 10
1199.6060855024687
 20
1180.2342801754517
 30
0.0
 11
1200.8380550762047
 21
1178.4633959264818
 31
0.0
  0
LINE
  5
2C3
330
17
100
AcDbEntity
  8
0
100
AcDbLine
 10
1200.8380550762047
 20
1178.4633959264818
 30
0.0
 11
1202.1021626878214
 21
1176.715307827986
 31
0.0
  0
LINE
  5
2C4
330
17
100
AcDbEntity
  8
0
100
AcDbLine
 10
1202.1021626878214
 20
1176.715307827986
 30
0.0
 11
1203.3979866264212
 21
1174.9905990485095
 31
0.0
  0
LINE
  5
2C5
330
17
100
AcDbEntity
  8
0
100
AcDbLine
 10
1203.3979866264212
 20
1174.9905990485095
 30
0.0
 11
1204.7250946004253
 21
1173.2898449571744
 31
0.0
  0
LINE
  5
2C6
330
17
100
AcDbEntity
  8
0
100
AcDbLine
 10
1204.7250946004253
 20
1173.2898449571744
 30
0.0
 11
1206.0830438817845
 21
1171.6136129317365
 31
0.0
  0
LINE
  5
2C7
330
17
100
AcDbEntity
  8
0
100
AcDbLine
 10
1206.0830438817845
 20
1171.6136129317365
 30
0.0
 11
1207.4713814536801
 21
1169.9624621692928
 31
0.0
  0
LINE
  5
2C8
330
17
100
AcDbEntity
  8
0
100
AcDbLine
 10
1207.4713814536801
 20
1169.9624621692928
 30
0.0
 11
1208.8896441616466
 21
1168.3369434997453
 31
0.0
  0
LINE
  5
2C9
330
17
100
AcDbEntity
  8
0
100
AcDbLine
 10
1208.8896441616466
 20
1168.3369434997453
 30
0.0
 11
1210.3373588680854
 21
1166.737599202038
 31
0.0
  0
LINE
  5
2CA
330
17
100
AcDbEntity
  8
0
100
AcDbLine
 10
1210.3373588680854
 20
1166.737599202038
 30
0.0
 11
1211.8140426101047
 21
1165.1649628232417
 31
0.0
  0
LINE
  5
2CB
330
17
100
AcDbEntity
  8
0
100
AcDbLine
 10
1211.8140426101047
 20
1165.1649628232417
 30
0.0
 11
1213.3192027606362
 21
1163.6195590005777
 31
0.0
  0
LINE
  5
2CC
330
17
100
AcDbEntity
  8
0
100
AcDbLine
 10
1213.3192027606362
 20
1163.6195590005777
 30
0.0
 11
1214.852337192778
 21
1162.1019032863805
 31
0.0
  0
LINE
  5
2CD
330
17
100
AcDbEntity
  8
0
100
AcDbLine
 10
1214.852337192778
 20
1162.1019032863805
 30
0.0
 11
1216.4129344473065
 21
1160.6125019761182
 31
0.0
  0
LINE
  5
2CE
330
17
100
AcDbEntity
  8
0
100
AcDbLine
 10
1216.4129344473065
 20
1160.6125019761182
 30
0.0
 11
1218.0004739033006
 21
1159.151851939486
 31
0.0
  0
LINE
  5
2CF
330
17
100
AcDbEntity
  8
0
100
AcDbLine
 10
1218.0004739033006
 20
1159.151851939486
 30
0.0
 11
1219.614425951823
 21
1157.7204404546494
 31
0.0
  0
LINE
  5
2D0
330
17
100
AcDbEntity
  8
0
100
AcDbLine
 10
1219.614425951823
 20
1157.7204404546494
 30
0.0
 11
1221.2542521725989
 21
1156.3187450456849
 31
0.0
  0
LINE
  5
2D1
330
17
100
AcDbEntity
  8
0
100
AcDbLine
 10
483.1813673705821
 20
717.175975654271
 30
0.0
 11
484.75368404915645
 21
715.8821045151226
 31
0.0
  0
LINE
  5
2D2
330
17
100
AcDbEntity
  8
0
100
AcDbLine
 10
484.75368404915645
 20
715.8821045151226
 30
0.0
 11
486.3504962003101
 21
714.6185883037608
 31
0.0
  0
LINE
  5
2D3
330
17
100
AcDbEntity
  8
0
100
AcDbLine
 10
486.3504962003101
 20
714.6185883037608
 30
0.0
 11
487.9712178847835
 21
713.385890658789
 31
0.0
  0
LINE
  5
2D4
330
17
100
AcDbEntity
  8
0
100
AcDbLine
 10
487.9712178847835
 20
713.385890658789
 30
0.0
 11
489.6152543898791
 21
712.1844639101446
 31
0.0
  0
LINE
  5
2D5
330
17
100
AcDbEntity
  8
0
100
AcDbLine
 10
489.6152543898791
 20
712.1844639101446
 30
0.0
 11
491.28200244768476
 21
711.0147489131274
 31
0.0
  0
LINE
  5
2D6
330
17
100
AcDbEntity
  8
0
100
AcDbLine
 10
491.28200244768476
 20
711.0147489131274
 30
0.0
 11
492.9708504564411
 21
709.87717488663
 31
0.0
  0
LINE
  5
2D7
330
17
100
AcDbEntity
  8
0
100
AcDbLine
 10
492.9708504564411
 20
709.87717488663
 30
0.0
 11
494.6811787049626
 21
708.7721592556295
 31
0.0
  0
LINE
  5
2D8
330
17
100
AcDbEntity
  8
0
100
AcDbLine
 10
494.6811787049626
 20
708.7721592556295
 30
0.0
 11
496.4123596000372
 21
707.7001074980303
 31
0.0
  0
LINE
  5
2D9
330
17
100
AcDbEntity
  8
0
100
AcDbLine
 10
496.4123596000372
 20
707.7001074980303
 30
0.0
 11
498.1637578967181
 21
706.6614129958655
 31
0.0
  0
LINE
  5
2DA
330
17
100
AcDbEntity
  8
0
100
AcDbLine
 10
498.1637578967181
 20
706.6614129958655
 30
0.0
 11
499.93473093142086
 21
705.6564568909535
 31
0.0
  0
LINE
  5
2DB
330
17
100
AcDbEntity
  8
0
100
AcDbLine
 10
499.93473093142086
 20
705.6564568909535
 30
0.0
 11
501.72462885774576
 21
704.6856079450395
 31
0.0
  0
LINE
  5
2DC
330
17
100
AcDbEntity
  8
0
100
AcDbLine
 10
501.72462885774576
 20
704.6856079450395
 30
0.0
 11
503.5327948849338
 21
703.7492224044815
 31
0.0
  0
LINE
  5
2DD
330
17
100
AcDbEntity
  8
0
100
AcDbLine
 10
503.5327948849338
 20
703.7492224044815
 30
0.0
 11
505.3585655188717
 21
702.8476438695257
 31
0.0
  0
LINE
  5
2DE
330
17
100
AcDbEntity
  8
0
100
AcDbLine
 10
505.3585655188717
 20
702.8476438695257
 30
0.0
 11
507.20127080555704
 21
701.9812031682262
 31
0.0
  0
LINE
  5
2DF
330
17
100
AcDbEntity
  8
0
100
AcDbLine
 10
507.20127080555704
 20
701.9812031682262
 30
0.0
 11
509.06023457693203
 21
701.1502182350544
 31
0.0
  0
LINE
  5
2E0
330
17
100
AcDbEntity
  8
0
100
AcDbLine
 10
509.06023457693203
 20
701.1502182350544
 30
0.0
 11
510.9347746990001
 21
700.3549939942261
 31
0.0
  0
LINE
  5
2E1
330
17
100
AcDbEntity
  8
0
100
AcDbLine
 10
510.9347746990001
 20
700.3549939942261
 30
0.0
 11
512.8242033221296
 21
699.5958222478189
 31
0.0
  0
LINE
  5
2E2
330
17
100
AcDbEntity
  8
0
100
AcDbLine
 10
512.8242033221296
 20
699.5958222478189
 30
0.0
 11
514.7278271334557
 21
698.8729815686936
 31
0.0
  0
LINE
  5
2E3
330
17
100
AcDbEntity
  8
0
100
AcDbLine
 10
514.7278271334557
 20
698.8729815686936
 30
0.0
 11
516.6449476112859
 21
698.1867371982776
 31
0.0
  0
LINE
  5
2E4
330
17
100
AcDbEntity
  8
0
100
AcDbLine
 10
516.6449476112859
 20
698.1867371982776
 30
0.0
 11
518.5748612814195
 21
697.5373409492317
 31
0.0
  0
LINE
  5
2E5
330
17
100
AcDbEntity
  8
0
100
AcDbLine
 10
518.5748612814195
 20
697.5373409492317
 30
0.0
 11
520.5168599752818
 21
696.9250311130522
 31
0.0
  0
LINE
  5
2E6
330
17
100
AcDbEntity
  8
0
100
AcDbLine
 10
520.5168599752818
 20
696.9250311130522
 30
0.0
 11
522.4702310897806
 21
696.3500323726316
 31
0.0
  0
LINE
  5
2E7
330
17
100
AcDbEntity
  8
0
100
AcDbLine
 10
522.4702310897806
 20
696.3500323726316
 30
0.0
 11
524.4342578487929
 21
695.812555719811
 31
0.0
  0
LINE
  5
2E8
330
17
100
AcDbEntity
  8
0
100
AcDbLine
 10
524.4342578487929
 20
695.812555719811
 30
0.0
 11
526.4082195661794
 21
695.3127983779577
 31
0.0
  0
LINE
  5
2E9
330
17
100
AcDbEntity
  8
0
100
AcDbLine
 10
526.4082195661794
 20
695.3127983779577
 30
0.0
 11
528.391391910237
 21
694.8509437295987
 31
0.0
  0
LINE
  5
2EA
330
17
100
AcDbEntity
  8
0
100
AcDbLine
 10
528.391391910237
 20
694.8509437295987
 30
0.0
 11
530.3830471694852
 21
694.4271612491293
 31
0.0
  0
LINE
  5
2EB
330
17
100
AcDbEntity
  8
0
100
AcDbLine
 10
530.3830471694852
 20
694.4271612491293
 30
0.0
 11
532.3824545196962
 21
694.0416064406186
 31
0.0
  0
LINE
  5
2EC
330
17
100
AcDbEntity
  8
0
100
AcDbLine
 10
532.3824545196962
 20
694.0416064406186
 30
0.0
 11
534.3888802920669
 21
693.6944207807617
 31
0.0
  0
LINE
  5
2ED
330
17
100
AcDbEntity
  8
0
100
AcDbLine
 10
534.3888802920669
 20
693.6944207807617
 30
0.0
 11
536.4015882424308
 21
693.3857316669491
 31
0.0
  0
LINE
  5
2EE
330
17
100
AcDbEntity
  8
0
100
AcDbLine
 10
536.4015882424308
 20
693.3857316669491
 30
0.0
 11
538.4198398214199
 21
693.1156523705349
 31
0.0
  0
LINE
  5
2EF
330
17
100
AcDbEntity
  8
0
100
AcDbLine
 10
538.4198398214199
 20
693.1156523705349
 30
0.0
 11
540.4428944454703
 21
692.8842819952621
 31
0.0
  0
LINE
  5
2F0
330
17
100
AcDbEntity
  8
0
100
AcDbLine
 10
540.4428944454703
 20
692.8842819952621
 30
0.0
 11
542.4700097685723
 21
692.6917054409032
 31
0.0
  0
LINE
  5
2F1
330
17
100
AcDbEntity
  8
0
100
AcDbLine
 10
542.4700097685723
 20
692.6917054409032
 30
0.0
 11
544.5004419546718
 21
692.537993372102
 31
0.0
  0
LINE
  5
2F2
330
17
100
AcDbEntity
  8
0
100
AcDbLine
 10
544.5004419546718
 20
692.537993372102
 30
0.0
 11
546.5334459506144
 21
692.4232021924461
 31
0.0
  0
LINE
  5
2F3
330
17
100
AcDbEntity
  8
0
100
AcDbLine
 10
546.5334459506144
 20
692.4232021924461
 30
0.0
 11
548.5682757595368
 21
692.3473740237739
 31
0.0
  0
LINE
  5
2F4
330
17
100
AcDbEntity
  8
0
100
AcDbLine
 10
548.5682757595368
 20
692.3473740237739
 30
0.0
 11
550.6041847146074
 21
692.3105366907095
 31
0.0
  0
LINE
  5
2F5
330
17
100
AcDbEntity
  8
0
100
AcDbLine
 10
550.6041847146074
 20
692.3105366907095
 30
0.0
 11
552.6404257530087
 21
692.3127037104605
 31
0.0
  0
LINE
  5
2F6
330
17
100
AcDbEntity
  8
0
100
AcDbLine
 10
552.6404257530087
 20
692.3127037104605
 30
0.0
 11
554.6762516900676
 21
692.3538742878507
 31
0.0
  0
LINE
  5
2F7
330
17
100
AcDbEntity
  8
0
100
AcDbLine
 10
554.6762516900676
 20
692.3538742878507
 30
0.0
 11
556.7109154934294
 21
692.4340333156238
 31
0.0
  0
LINE
  5
2F8
330
17
100
AcDbEntity
  8
0
100
AcDbLine
 10
556.7109154934294
 20
692.4340333156238
 30
0.0
 11
558.7436705571764
 21
692.5531513799726
 31
0.0
  0
LINE
  5
2F9
330
17
100
AcDbEntity
  8
0
100
AcDbLine
 10
558.7436705571764
 20
692.5531513799726
 30
0.0
 11
560.7737709757907
 21
692.71118477134
 31
0.0
  0
LINE
  5
2FA
330
17
100
AcDbEntity
  8
0
100
AcDbLine
 10
560.7737709757906
 20
692.7111847713411
 30
0.0
 11
559.4066605170075
 21
692.571515148517
 31
0.0
  0
LINE
  5
2FB
330
17
100
AcDbEntity
  8
0
100
AcDbLine
 10
559.4066605170075
 20
692.571515148517
 30
0.0
 11
558.0441906658888
 21
692.392142589729
 31
0.0
  0
LINE
  5
2FC
330
17
100
AcDbEntity
  8
0
100
AcDbLine
 10
558.0441906658888
 20
692.392142589729
 30
0.0
 11
556.6875142079509
 21
692.1732188620729
 31
0.0
  0
LINE
  5
2FD
330
17
100
AcDbEntity
  8
0
100
AcDbLine
 10
556.6875142079509
 20
692.1732188620729
 30
0.0
 11
555.3377790269219
 21
691.914929196877
 31
0.0
  0
LINE
  5
2FE
330
17
100
AcDbEntity
  8
0
100
AcDbLine
 10
555.3377790269219
 20
691.914929196877
 30
0.0
 11
553.9961271335172
 21
691.617492132984
 31
0.0
  0
LINE
  5
2FF
330
17
100
AcDbEntity
  8
0
100
AcDbLine
 10
553.9961271335172
 20
691.617492132984
 30
0.0
 11
552.6636936991824
 21
691.2811593318465
 31
0.0
  0
LINE
  5
300
330
17
100
AcDbEntity
  8
0
100
AcDbLine
 10
552.6636936991824
 20
691.2811593318465
 30
0.0
 11
551.3416060956283
 21
690.9062153645898
 31
0.0
  0
LINE
  5
301
330
17
100
AcDbEntity
  8
0
100
AcDbLine
 10
551.3416060956283
 20
690.9062153645898
 30
0.0
 11
550.030982940958
 21
690.4929774712457
 31
0.0
  0
LINE
  5
302
330
17
100
AcDbEntity
  8
0
100
AcDbLine
 10
550.030982940958
 20
690.4929774712457
 30
0.0
 11
548.7329331532072
 21
690.0417952923267
 31
0.0
  0
LINE
  5
303
330
17
100
AcDbEntity
  8
0
100
AcDbLine
 10
548.7329331532072
 20
690.0417952923267
 30
0.0
 11
547.4485550120884
 21
689.5530505730001
 31
0.0
  0
LINE
  5
304
330
17
100
AcDbEntity
  8
0
100
AcDbLine
 10
547.4485550120884
 20
689.5530505730001
 30
0.0
 11
546.1789352297353
 21
689.0271568400926
 31
0.0
  0
LINE
  5
305
330
17
100
AcDbEntity
  8
0
100
AcDbLine
 10
546.1789352297353
 20
689.0271568400926
 30
0.0
 11
544.9251480312373
 21
688.4645590522048
 31
0.0
  0
LINE
  5
306
330
17
100
AcDbEntity
  8
0
100
AcDbLine
 10
544.9251480312373
 20
688.4645590522048
 30
0.0
 11
543.6882542457366
 21
687.8657332232322
 31
0.0
  0
LINE
  5
307
330
17
100
AcDbEntity
  8
0
100
AcDbLine
 10
543.6882542457366
 20
687.8657332232322
 30
0.0
 11
542.4693004088621
 21
687.2311860196115
 31
0.0
  0
LINE
  5
308
330
17
100
AcDbEntity
  8
0
100
AcDbLine
 10
542.4693004088621
 20
687.2311860196115
 30
0.0
 11
541.2693178772546
 21
686.5614543316269
 31
0.0
  0
LINE
  5
309
330
17
100
AcDbEntity
  8
0
100
AcDbLine
 10
541.2693178772546
 20
686.5614543316269
 30
0.0
 11
540.0893219559368
 21
685.8571048191491
 31
0.0
  0
LINE
  5
30A
330
17
100
AcDbEntity
  8
0
100
AcDbLine
 10
540.0893219559368
 20
685.8571048191491
 30
0.0
 11
538.9303110392638
 21
685.1187334321855
 31
0.0
  0
LINE
  5
30B
330
17
100
AcDbEntity
  8
0
100
AcDbLine
 10
538.9303110392638
 20
685.1187334321855
 30
0.0
 11
537.7932657661815
 21
684.3469649066458
 31
0.0
  0
LINE
  5
30C
330
17
100
AcDbEntity
  8
0
100
AcDbLine
 10
537.7932657661815
 20
684.3469649066458
 30
0.0
 11
536.679148190509
 21
683.5424522357491
 31
0.0
  0
LINE
  5
30D
330
17
100
AcDbEntity
  8
0
100
AcDbLine
 10
536.679148190509
 20
683.5424522357491
 30
0.0
 11
535.5889009669429
 21
682.7058761175397
 31
0.0
  0
LINE
  5
30E
330
17
100
AcDbEntity
  8
0
100
AcDbLine
 10
535.5889009669429
 20
682.7058761175397
 30
0.0
 11
534.5234465534811
 21
681.8379443789274
 31
0.0
  0
LINE
  5
30F
330
17
100
AcDbEntity
  8
0
100
AcDbLine
 10
534.5234465534811
 20
681.8379443789274
 30
0.0
 11
533.4836864309268
 21
680.9393913768181
 31
0.0
  0
LINE
  5
310
330
17
100
AcDbEntity
  8
0
100
AcDbLine
 10
533.4836864309268
 20
680.9393913768181
 30
0.0
 11
532.470500340149
 21
680.0109773767581
 31
0.0
  0
LINE
  5
311
330
17
100
AcDbEntity
  8
0
100
AcDbLine
 10
532.470500340149
 20
680.0109773767581
 30
0.0
 11
531.4847455377326
 21
679.0534879096795
 31
0.0
  0
LINE
  5
312
330
17
100
AcDbEntity
  8
0
100
AcDbLine
 10
531.4847455377326
 20
679.0534879096795
 30
0.0
 11
530.527256070654
 21
678.0677331072619
 31
0.0
  0
LINE
  5
313
330
17
100
AcDbEntity
  8
0
100
AcDbLine
 10
530.527256070654
 20
678.0677331072619
 30
0.0
 11
529.5988420705932
 21
677.0545470164852
 31
0.0
  0
LINE
  5
314
330
17
100
AcDbEntity
  8
0
100
AcDbLine
 10
529.5988420705932
 20
677.0545470164852
 30
0.0
 11
528.7002890684839
 21
676.0147868939312
 31
0.0
  0
ENDSEC
  0
SECTION
  2
OBJECTS
  0
DICTIONARY
  5
A
330
0
100
AcDbDictionary
281
1
  3
ACAD_COLOR
350
B
  3
ACAD_GROUP
350
C
  3
ACAD_LAYOUT
350
D
  3
ACAD_MATERIAL
350
E
  3
ACAD_MLEADERSTYLE
350
F
  3
ACAD_MLINESTYLE
350
10
  3
ACAD_PLOTSETTINGS
350
11
  3
ACAD_PLOTSTYLENAME
350
12
  3
ACAD_SCALELIST
350
14
  3
ACAD_TABLESTYLE
350
15
  3
ACAD_VISUALSTYLE
350
16
  3
EZDXF_META
350
2D
  0
DICTIONARY
  5
B
330
A
100
AcDbDictionary
281
1
  0
DICTIONARY
  5
C
330
A
100
AcDbDictionary
281
1
  0
DICTIONARY
  5
D
330
A
100
AcDbDictionary
281
1
  3
Model
350
1A
  3
Layout1
350
1E
  0
DICTIONARY
  5
E
330
A
100
AcDbDictionary
281
1
  3
ByBlock
350
1F
  3
ByLayer
350
20
  3
Global
350
21
  0
DICTIONARY
  5
F
330
A
100
AcDbDictionary
281
1
  3
Standard
350
2C
  0
DICTIONARY
  5
10
330
A
100
AcDbDictionary
281
1
  3
Standard
350
22
  0
DICTIONARY
  5
11
330
A
100
AcDbDictionary
281
1
  0
ACDBDICTIONARYWDFLT
  5
12
330
A
100
AcDbDictionary
281
1
  3
Normal
350
13
100
AcDbDictionaryWithDefault
340
13
  0
ACDBPLACEHOLDER
  5
13
330
12
  0
DICTIONARY
  5
14
330
A
100
AcDbDictionary
281
1
  0
DICTIONARY
  5
15
330
A
100
AcDbDictionary
281
1
  0
DICTIONARY
  5
16
330
A
100
AcDbDictionary
281
1
  0
LAYOUT
  5
1A
330
D
100
AcDbPlotSettings
  1

  4
A3
  6

 40
7.5
 41
20.0
 42
7.5
 43
20.0
 44
420.0
 45
297.0
 46
0.0
 47
0.0
 48
0.0
 49
0.0
140
0.0
141
0.0
142
1.0
143
1.0
 70
1024
 72
1
 73
0
 74
5
  7

 75
16
 76
0
 77
2
 78
300
147
1.0
148
0.0
149
0.0
100
AcDbLayout
  1
Model
 70
1
 71
0
 10
0.0
 20
0.0
 11
420.0
 21
297.0
 12
0.0
 22
0.0
 32
0.0
 14
1e+20
 24
1e+20
 34
1e+20
 15
-1e+20
 25
-1e+20
 35
-1e+20
146
0.0
 13
0.0
 23
0.0
 33
0.0
 16
1.0
 26
0.0
 36
0.0
 17
0.0
 27
1.0
 37
0.0
 76
1
330
17
  0
LAYOUT
  5
1E
330
D
100
AcDbPlotSettings
  1

  4
A3
  6

 40
7.5
 41
20.0
 42
7.5
 43
20.0
 44
420.0
 45
297.0
 46
0.0
 47
0.0
 48
0.0
 49
0.0
140
0.0
141
0.0
142
1.0
143
1.0
 70
0
 72
1
 73
0
 74
5
  7

 75
16
 76
0
 77
2
 78
300
147
1.0
148
0.0
149
0.0
100
AcDbLayout
  1
Layout1
 70
1
 71
1
 10
0.0
 20
0.0
 11
420.0
 21
297.0
 12
0.0
 22
0.0
 32
0.0
 14
1e+20
 24
1e+20
 34
1e+20
 15
-1e+20
 25
-1e+20
 35
-1e+20
146
0.0
 13
0.0
 23
0.0
 33
0.0
 16
1.0
 26
0.0
 36
0.0
 17
0.0
 27
1.0
 37
0.0
 76
1
330
1B
  0
MATERIAL
  5
1F
102
{ACAD_REACTORS
330
E
102
}
330
E
100
AcDbMaterial
  1
ByBlock
  2

 70
0
 40
1.0
 71
1
 41
1.0
 91
-1023410177
 42
1.0
 72
1
  3

 73
1
 74
1
 75
1
 44
0.5
 73
0
 45
1.0
 46
1.0
 77
1
  4

 78
1
 79
1
170
1
 48
1.0
171
1
  6

172
1
173
1
174
1
140
1.0
141
1.0
175
1
  7

176
1
177
1
178
1
143
1.0
179
1
  8

270
1
271
1
272
1
145
1.0
146
1.0
273
1
  9

274
1
275
1
276
1
 42
1.0
 72
1
  3

 73
1
 74
1
 75
1
 94
63
  0
MATERIAL
  5
20
102
{ACAD_REACTORS
330
E
102
}
330
E
100
AcDbMaterial
  1
ByLayer
  2

 70
0
 40
1.0
 71
1
 41
1.0
 91
-1023410177
 42
1.0
 72
1
  3

 73
1
 74
1
 75
1
 44
0.5
 73
0
 45
1.0
 46
1.0
 77
1
  4

 78
1
 79
1
170
1
 48
1.0
171
1
  6

172
1
173
1
174
1
140
1.0
141
1.0
175
1
  7

176
1
177
1
178
1
143
1.0
179
1
  8

270
1
271
1
272
1
145
1.0
146
1.0
273
1
  9

274
1
275
1
276
1
 42
1.0
 72
1
  3

 73
1
 74
1
 75
1
 94
63
  0
MATERIAL
  5
21
102
{ACAD_REACTORS
330
E
102
}
330
E
100
AcDbMaterial
  1
Global
  2

 70
0
 40
1.0
 71
1
 41
1.0
 91
-1023410177
 42
1.0
 72
1
  3

 73
1
 74
1
 75
1
 44
0.5
 73
0
 45
1.0
 46
1.0
 77
1
  4

 78
1
 79
1
170
1
 48
1.0
171
1
  6

172
1
173
1
174
1
140
1.0
141
1.0
175
1
  7

176
1
177
1
178
1
143
1.0
179
1
  8

270
1
271
1
272
1
145
1.0
146
1.0
273
1
  9

274
1
275
1
276
1
 42
1.0
 72
1
  3

 73
1
 74
1
 75
1
 94
63
  0
MLINESTYLE
  5
22
102
{ACAD_REACTORS
330
10
102
}
330
10
100
AcDbMlineStyle
  2
Standard
 70
0
  3

 62
256
 51
90.0
 52
90.0
 71
2
 49
0.5
 62
256
  6
BYLAYER
 49
-0.5
 62
256
  6
BYLAYER
  0
MLEADERSTYLE
  5
2C
102
{ACAD_REACTORS
330
F
102
}
330
F
100
AcDbMLeaderStyle
179
2
170
2
171
1
172
0
 90
2
 40
0.0
 41
0.0
173
1
 91
-1056964608
 92
-2
290
1
 42
2.0
291
1
 43
8.0
  3
Standard
 44
4.0
300

342
29
174
1
175
1
176
0
178
1
 93
-1056964608
 45
4.0
292
0
297
0
 46
4.0
 94
-1056964608
 47
1.0
 49
1.0
140
1.0
294
1
141
0.0
177
0
142
1.0
295
0
296
0
143
3.75
271
0
272
9
273
9
  0
DICTIONARY
  5
2D
330
A
100
AcDbDictionary
280
1
281
1
  3
CREATED_BY_EZDXF
350
2E
  3
WRITTEN_BY_EZDXF
350
317
  0
DICTIONARYVAR
  5
2E
330
2D
100
DictionaryVariables
280
0
  1
1.4.3 @ 2026-04-16T10:53:43.722583+00:00
  0
DICTIONARYVAR
  5
317
330
2D
100
DictionaryVariables
280
0
  1
1.4.3 @ 2026-04-16T10:53:43.733957+00:00
  0
ENDSEC
  0
EOF
