  0
SECTION
  2
HEADER
  9
$ACADVER
  1
AC1024
  9
$ACADMAINTVER
 70
6
  9
$DWGCODEPAGE
  3
ANSI_1252
  9
$LASTSAVEDBY
  1
ezdxf
  9
$INSBASE
 10
0.0
 20
0.0
 30
0.0
  9
$EXTMIN
 10
1e+20
 20
1e+20
 30
1e+20
  9
$EXTMAX
 10
-1e+20
 20
-1e+20
 30
-1e+20
  9
$LIMMIN
 10
0.0
 20
0.0
  9
$LIMMAX
 10
420.0
 20
297.0
  9
$ORTHOMODE
 70
0
  9
$REGENMODE
 70
1
  9
$FILLMODE
 70
1
  9
$QTEXTMODE
 70
0
  9
$MIRRTEXT
 70
1
  9
$LTSCALE
 40
1.0
  9
$ATTMODE
 70
1
  9
$TEXTSIZE
 40
2.5
  9
$TRACEWID
 40
1.0
  9
$TEXTSTYLE
  7
Standard
  9
$CLAYER
  8
0
  9
$CELTYPE
  6
ByLayer
  9
$CECOLOR
 62
256
  9
$CELTSCALE
 40
1.0
  9
$DISPSILH
 70
0
  9
$DIMSCALE
 40
1.0
  9
$DIMASZ
 40
2.5
  9
$DIMEXO
 40
0.625
  9
$DIMDLI
 40
3.75
  9
$DIMRND
 40
0.0
  9
$DIMDLE
 40
0.0
  9
$DIMEXE
 40
1.25
  9
$DIMTP
 40
0.0
  9
$DIMTM
 40
0.0
  9
$DIMTXT
 40
2.5
  9
$DIMCEN
 40
2.5
  9
$DIMTSZ
 40
0.0
  9
$DIMTOL
 70
0
  9
$DIMLIM
 70
0
  9
$DIMTIH
 70
0
  9
$DIMTOH
 70
0
  9
$DIMSE1
 70
0
  9
$DIMSE2
 70
0
  9
$DIMTAD
 70
1
  9
$DIMZIN
 70
8
  9
$DIMBLK
  1

  9
$DIMASO
 70
1
  9
$DIMSHO
 70
1
  9
$DIMPOST
  1

  9
$DIMAPOST
  1

  9
$DIMALT
 70
0
  9
$DIMALTD
 70
3
  9
$DIMALTF
 40
0.03937007874
  9
$DIMLFAC
 40
1.0
  9
$DIMTOFL
 70
1
  9
$DIMTVP
 40
0.0
  9
$DIMTIX
 70
0
  9
$DIMSOXD
 70
0
  9
$DIMSAH
 70
0
  9
$DIMBLK1
  1

  9
$DIMBLK2
  1

  9
$DIMSTYLE
  2
ISO-25
  9
$DIMCLRD
 70
0
  9
$DIMCLRE
 70
0
  9
$DIMCLRT
 70
0
  9
$DIMTFAC
 40
1.0
  9
$DIMGAP
 40
0.625
  9
$DIMJUST
 70
0
  9
$DIMSD1
 70
0
  9
$DIMSD2
 70
0
  9
$DIMTOLJ
 70
0
  9
$DIMTZIN
 70
8
  9
$DIMALTZ
 70
0
  9
$DIMALTTZ
 70
0
  9
$DIMUPT
 70
0
  9
$DIMDEC
 70
2
  9
$DIMTDEC
 70
2
  9
$DIMALTU
 70
2
  9
$DIMALTTD
 70
3
  9
$DIMTXSTY
  7
Standard
  9
$DIMAUNIT
 70
0
  9
$DIMADEC
 70
0
  9
$DIMALTRND
 40
0.0
  9
$DIMAZIN
 70
0
  9
$DIMDSEP
 70
44
  9
$DIMATFIT
 70
3
  9
$DIMFRAC
 70
0
  9
$DIMLDRBLK
  1

  9
$DIMLUNIT
 70
2
  9
$DIMLWD
 70
-2
  9
$DIMLWE
 70
-2
  9
$DIMTMOVE
 70
0
  9
$DIMFXL
 40
1.0
  9
$DIMFXLON
 70
0
  9
$DIMJOGANG
 40
0.785398163397
  9
$DIMTFILL
 70
0
  9
$DIMTFILLCLR
 70
0
  9
$DIMARCSYM
 70
0
  9
$DIMLTYPE
  6

  9
$DIMLTEX1
  6

  9
$DIMLTEX2
  6

  9
$DIMTXTDIRECTION
 70
0
  9
$LUNITS
 70
2
  9
$LUPREC
 70
4
  9
$SKETCHINC
 40
1.0
  9
$FILLETRAD
 40
10.0
  9
$AUNITS
 70
0
  9
$AUPREC
 70
2
  9
$MENU
  1
.
  9
$ELEVATION
 40
0.0
  9
$PELEVATION
 40
0.0
  9
$THICKNESS
 40
0.0
  9
$LIMCHECK
 70
0
  9
$CHAMFERA
 40
0.0
  9
$CHAMFERB
 40
0.0
  9
$CHAMFERC
 40
0.0
  9
$CHAMFERD
 40
0.0
  9
$SKPOLY
 70
0
  9
$TDCREATE
 40
2461147.48474537
  9
$TDUCREATE
 40
2458532.153996898
  9
$TDUPDATE
 40
2461147.48474537
  9
$TDUUPDATE
 40
2458532.1544311
  9
$TDINDWG
 40
0.0
  9
$TDUSRTIMER
 40
0.0
  9
$USRTIMER
 70
1
  9
$ANGBASE
 50
0.0
  9
$ANGDIR
 70
0
  9
$PDMODE
 70
0
  9
$PDSIZE
 40
0.0
  9
$PLINEWID
 40
0.0
  9
$SPLFRAME
 70
0
  9
$SPLINETYPE
 70
6
  9
$SPLINESEGS
 70
8
  9
$HANDSEED
  5
1F2
  9
$SURFTAB1
 70
6
  9
$SURFTAB2
 70
6
  9
$SURFTYPE
 70
6
  9
$SURFU
 70
6
  9
$SURFV
 70
6
  9
$UCSBASE
  2

  9
$UCSNAME
  2

  9
$UCSORG
 10
0.0
 20
0.0
 30
0.0
  9
$UCSXDIR
 10
1.0
 20
0.0
 30
0.0
  9
$UCSYDIR
 10
0.0
 20
1.0
 30
0.0
  9
$UCSORTHOREF
  2

  9
$UCSORTHOVIEW
 70
0
  9
$UCSORGTOP
 10
0.0
 20
0.0
 30
0.0
  9
$UCSORGBOTTOM
 10
0.0
 20
0.0
 30
0.0
  9
$UCSORGLEFT
 10
0.0
 20
0.0
 30
0.0
  9
$UCSORGRIGHT
 10
0.0
 20
0.0
 30
0.0
  9
$UCSORGFRONT
 10
0.0
 20
0.0
 30
0.0
  9
$UCSORGBACK
 10
0.0
 20
0.0
 30
0.0
  9
$PUCSBASE
  2

  9
$PUCSNAME
  2

  9
$PUCSORG
 10
0.0
 20
0.0
 30
0.0
  9
$PUCSXDIR
 10
1.0
 20
0.0
 30
0.0
  9
$PUCSYDIR
 10
0.0
 20
1.0
 30
0.0
  9
$PUCSORTHOREF
  2

  9
$PUCSORTHOVIEW
 70
0
  9
$PUCSORGTOP
 10
0.0
 20
0.0
 30
0.0
  9
$PUCSORGBOTTOM
 10
0.0
 20
0.0
 30
0.0
  9
$PUCSORGLEFT
 10
0.0
 20
0.0
 30
0.0
  9
$PUCSORGRIGHT
 10
0.0
 20
0.0
 30
0.0
  9
$PUCSORGFRONT
 10
0.0
 20
0.0
 30
0.0
  9
$PUCSORGBACK
 10
0.0
 20
0.0
 30
0.0
  9
$USERI1
 70
0
  9
$USERI2
 70
0
  9
$USERI3
 70
0
  9
$USERI4
 70
0
  9
$USERI5
 70
0
  9
$USERR1
 40
0.0
  9
$USERR2
 40
0.0
  9
$USERR3
 40
0.0
  9
$USERR4
 40
0.0
  9
$USERR5
 40
0.0
  9
$WORLDVIEW
 70
1
  9
$SHADEDGE
 70
3
  9
$SHADEDIF
 70
70
  9
$TILEMODE
 70
1
  9
$MAXACTVP
 70
64
  9
$PINSBASE
 10
0.0
 20
0.0
 30
0.0
  9
$PLIMCHECK
 70
0
  9
$PEXTMIN
 10
1e+20
 20
1e+20
 30
1e+20
  9
$PEXTMAX
 10
-1e+20
 20
-1e+20
 30
-1e+20
  9
$PLIMMIN
 10
0.0
 20
0.0
  9
$PLIMMAX
 10
420.0
 20
297.0
  9
$UNITMODE
 70
0
  9
$VISRETAIN
 70
1
  9
$PLINEGEN
 70
0
  9
$PSLTSCALE
 70
1
  9
$TREEDEPTH
 70
3020
  9
$CMLSTYLE
  2
Standard
  9
$CMLJUST
 70
0
  9
$CMLSCALE
 40
20.0
  9
$PROXYGRAPHICS
 70
1
  9
$MEASUREMENT
 70
1
  9
$CELWEIGHT
370
-1
  9
$ENDCAPS
280
0
  9
$JOINSTYLE
280
0
  9
$LWDISPLAY
290
0
  9
$INSUNITS
 70
0
  9
$HYPERLINKBASE
  1

  9
$STYLESHEET
  1

  9
$XEDIT
290
1
  9
$CEPSNTYPE
380
0
  9
$PSTYLEMODE
290
1
  9
$FINGERPRINTGUID
  2
{2532CB5D-F140-4A7E-A0A2-47E93E6E6AC8}
  9
$VERSIONGUID
  2
{15A24791-4B82-42D3-B9D3-05F4E7995A7D}
  9
$EXTNAMES
290
1
  9
$PSVPSCALE
 40
0.0
  9
$OLESTARTUP
290
0
  9
$SORTENTS
280
127
  9
$INDEXCTL
280
0
  9
$HIDETEXT
280
1
  9
$XCLIPFRAME
280
1
  9
$HALOGAP
280
0
  9
$OBSCOLOR
 70
257
  9
$OBSLTYPE
280
0
  9
$INTERSECTIONDISPLAY
280
0
  9
$INTERSECTIONCOLOR
 70
257
  9
$DIMASSOC
280
2
  9
$PROJECTNAME
  1

  9
$CAMERADISPLAY
290
0
  9
$LENSLENGTH
 40
50.0
  9
$CAMERAHEIGHT
 40
0.0
  9
$STEPSPERSEC
 40
24.0
  9
$STEPSIZE
 40
100.0
  9
$3DDWFPREC
 40
2.0
  9
$PSOLWIDTH
 40
0.005
  9
$PSOLHEIGHT
 40
0.08
  9
$LOFTANG1
 40
1.570796326795
  9
$LOFTANG2
 40
1.570796326795
  9
$LOFTMAG1
 40
0.0
  9
$LOFTMAG2
 40
0.0
  9
$LOFTPARAM
 70
7
  9
$LOFTNORMALS
280
1
  9
$LATITUDE
 40
37.795
  9
$LONGITUDE
 40
-122.394
  9
$NORTHDIRECTION
 40
0.0
  9
$TIMEZONE
 70
-8000
  9
$LIGHTGLYPHDISPLAY
280
1
  9
$TILEMODELIGHTSYNCH
280
1
  9
$CMATERIAL
347
20
  9
$SOLIDHIST
280
0
  9
$SHOWHIST
280
1
  9
$DWFFRAME
280
2
  9
$DGNFRAME
280
2
  9
$REALWORLDSCALE
290
1
  9
$INTERFERECOLOR
 62
256
  9
$CSHADOW
280
0
  9
$SHADOWPLANELOCATION
 40
0.0
  0
ENDSEC
  0
SECTION
  2
CLASSES
  0
CLASS
  1
ACDBDICTIONARYWDFLT
  2
AcDbDictionaryWithDefault
  3
ObjectDBX Classes
 90
0
 91
0
280
0
281
0
  0
CLASS
  1
SUN
  2
AcDbSun
  3
SCENEOE
 90
1153
 91
0
280
0
281
0
  0
CLASS
  1
VISUALSTYLE
  2
AcDbVisualStyle
  3
ObjectDBX Classes
 90
4095
 91
0
280
0
281
0
  0
CLASS
  1
MATERIAL
  2
AcDbMaterial
  3
ObjectDBX Classes
 90
1153
 91
0
280
0
281
0
  0
CLASS
  1
SCALE
  2
AcDbScale
  3
ObjectDBX Classes
 90
1153
 91
0
280
0
281
0
  0
CLASS
  1
TABLESTYLE
  2
AcDbTableStyle
  3
ObjectDBX Classes
 90
4095
 91
0
280
0
281
0
  0
CLASS
  1
MLEADERSTYLE
  2
AcDbMLeaderStyle
  3
ACDB_MLEADERSTYLE_CLASS
 90
4095
 91
0
280
0
281
0
  0
CLASS
  1
DICTIONARYVAR
  2
AcDbDictionaryVar
  3
ObjectDBX Classes
 90
0
 91
0
280
0
281
0
  0
CLASS
  1
CELLSTYLEMAP
  2
AcDbCellStyleMap
  3
ObjectDBX Classes
 90
1152
 91
0
280
0
281
0
  0
CLASS
  1
MENTALRAYRENDERSETTINGS
  2
AcDbMentalRayRenderSettings
  3
SCENEOE
 90
1024
 91
0
280
0
281
0
  0
CLASS
  1
ACDBDETAILVIEWSTYLE
  2
AcDbDetailViewStyle
  3
ObjectDBX Classes
 90
1025
 91
0
280
0
281
0
  0
CLASS
  1
ACDBSECTIONVIEWSTYLE
  2
AcDbSectionViewStyle
  3
ObjectDBX Classes
 90
1025
 91
0
280
0
281
0
  0
CLASS
  1
RASTERVARIABLES
  2
AcDbRasterVariables
  3
ISM
 90
0
 91
0
280
0
281
0
  0
CLASS
  1
ACDBPLACEHOLDER
  2
AcDbPlaceHolder
  3
ObjectDBX Classes
 90
0
 91
0
280
0
281
0
  0
CLASS
  1
LAYOUT
  2
AcDbLayout
  3
ObjectDBX Classes
 90
0
 91
0
280
0
281
0
  0
ENDSEC
  0
SECTION
  2
TABLES
  0
TABLE
  2
VPORT
  5
8
330
0
100
AcDbSymbolTable
 70
1
  0
VPORT
  5
23
330
8
100
AcDbSymbolTableRecord
100
AcDbViewportTableRecord
  2
*Active
 70
0
 10
0.0
 20
0.0
 11
1.0
 21
1.0
 12
0.0
 22
0.0
 13
0.0
 23
0.0
 14
0.5
 24
0.5
 15
0.5
 25
0.5
 16
0.0
 26
0.0
 36
1.0
 17
0.0
 27
0.0
 37
0.0
 40
1000.0
 41
1.34
 42
50.0
 43
0.0
 44
0.0
 50
0.0
 51
0.0
 71
0
 72
1000
 73
1
 74
3
 75
0
 76
0
 77
0
 78
0
281
0
 65
0
146
0.0
  0
ENDTAB
  0
TABLE
  2
LTYPE
  5
2
330
0
100
AcDbSymbolTable
 70
3
  0
LTYPE
  5
24
330
2
100
AcDbSymbolTableRecord
100
AcDbLinetypeTableRecord
  2
ByBlock
 70
0
  3

 72
65
 73
0
 40
0.0
  0
LTYPE
  5
25
330
2
100
AcDbSymbolTableRecord
100
AcDbLinetypeTableRecord
  2
ByLayer
 70
0
  3

 72
65
 73
0
 40
0.0
  0
LTYPE
  5
26
330
2
100
AcDbSymbolTableRecord
100
AcDbLinetypeTableRecord
  2
Continuous
 70
0
  3

 72
65
 73
0
 40
0.0
  0
ENDTAB
  0
TABLE
  2
LAYER
  5
1
330
0
100
AcDbSymbolTable
 70
2
  0
LAYER
  5
27
330
1
100
AcDbSymbolTableRecord
100
AcDbLayerTableRecord
  2
0
 70
0
 62
7
  6
Continuous
370
-3
390
13
347
21
  0
LAYER
  5
28
330
1
100
AcDbSymbolTableRecord
100
AcDbLayerTableRecord
  2
Defpoints
 70
0
 62
7
  6
Continuous
290
0
370
-3
390
13
347
21
  0
ENDTAB
  0
TABLE
  2
STYLE
  5
5
330
0
100
AcDbSymbolTable
 70
1
  0
STYLE
  5
29
330
5
100
AcDbSymbolTableRecord
100
AcDbTextStyleTableRecord
  2
Standard
 70
0
 40
0.0
 41
1.0
 50
0.0
 71
0
 42
2.5
  3
txt
  4

  0
ENDTAB
  0
TABLE
  2
VIEW
  5
7
330
0
100
AcDbSymbolTable
 70
0
  0
ENDTAB
  0
TABLE
  2
UCS
  5
6
330
0
100
AcDbSymbolTable
 70
0
  0
ENDTAB
  0
TABLE
  2
APPID
  5
3
330
0
100
AcDbSymbolTable
 70
3
  0
APPID
  5
2A
330
3
100
AcDbSymbolTableRecord
100
AcDbRegAppTableRecord
  2
ACAD
 70
0
  0
APPID
  5
1EF
330
3
100
AcDbSymbolTableRecord
100
AcDbRegAppTableRecord
  2
HATCHBACKGROUNDCOLOR
 70
0
  0
APPID
  5
1F0
330
3
100
AcDbSymbolTableRecord
100
AcDbRegAppTableRecord
  2
EZDXF
 70
0
  0
ENDTAB
  0
TABLE
  2
DIMSTYLE
  5
4
330
0
100
AcDbSymbolTable
 70
1
100
AcDbDimStyleTable
  0
DIMSTYLE
105
2B
330
4
100
AcDbSymbolTableRecord
100
AcDbDimStyleTableRecord
  2
Standard
 70
0
 40
1.0
 41
2.5
 42
0.625
 43
3.75
 44
1.25
 45
0.0
 46
0.0
 47
0.0
 48
0.0
 49
2.5
140
2.5
141
2.5
142
0.0
143
0.03937007874
144
1.0
145
0.0
146
1.0
147
0.625
148
0.0
 69
0
 70
0
 71
0
 72
0
 73
0
 74
0
 75
0
 76
0
 77
1
 78
8
 79
3
170
0
171
3
172
1
173
0
174
0
175
0
176
0
177
0
178
0
179
2
271
2
272
2
273
2
274
3
275
0
276
0
277
2
278
44
279
0
280
0
281
0
282
0
283
0
284
8
285
0
286
0
288
0
289
3
290
0
371
-2
372
-2
  0
ENDTAB
  0
TABLE
  2
BLOCK_RECORD
  5
9
330
0
100
AcDbSymbolTable
 70
2
  0
BLOCK_RECORD
  5
17
330
9
100
AcDbSymbolTableRecord
100
AcDbBlockTableRecord
  2
*Model_Space
340
1A
 70
0
280
1
281
0
  0
BLOCK_RECORD
  5
1B
330
9
100
AcDbSymbolTableRecord
100
AcDbBlockTableRecord
  2
*Paper_Space
340
1E
 70
0
280
1
281
0
  0
ENDTAB
  0
ENDSEC
  0
SECTION
  2
BLOCKS
  0
BLOCK
  5
18
330
17
100
AcDbEntity
  8
0
100
AcDbBlockBegin
  2
*Model_Space
 70
0
 10
0.0
 20
0.0
 30
0.0
  3
*Model_Space
  1

  0
ENDBLK
  5
19
330
17
100
AcDbEntity
  8
0
100
AcDbBlockEnd
  0
BLOCK
  5
1C
330
1B
100
AcDbEntity
  8
0
100
AcDbBlockBegin
  2
*Paper_Space
 70
0
 10
0.0
 20
0.0
 30
0.0
  3
*Paper_Space
  1

  0
ENDBLK
  5
1D
330
1B
100
AcDbEntity
  8
0
100
AcDbBlockEnd
  0
ENDSEC
  0
SECTION
  2
ENTITIES
  0
LINE
  5
2F
330
17
100
AcDbEntity
  8
0
100
AcDbLine
 10
-70.75732677067701
 20
1788.0511402540974
 30
0.0
 11
805.5488692294609
 21
1864.7179981816357
 31
0.0
  0
LINE
  5
30
330
17
100
AcDbEntity
  8
0
100
AcDbLine
 10
-14.140407269245543
 20
1140.916789131507
 30
0.0
 11
862.1657887308924
 21
1217.5836470590452
 31
0.0
  0
LINE
  5
31
330
17
100
AcDbEntity
  8
0
100
AcDbLine
 10
276.0753092200684
 20
1818.3950640441008
 30
0.0
 11
439.9767457183999
 21
-55.00692762954577
 31
0.0
  0
LINE
  5
32
330
17
100
AcDbEntity
  8
0
100
AcDbLine
 10
804.6224105467102
 20
1875.3074693818237
 30
0.0
 11
969.4503057277924
 21
-8.683993492010927
 31
0.0
  0
LINE
  5
33
330
17
100
AcDbEntity
  8
0
100
AcDbLine
 10
42.47651223218583
 20
493.7824380089175
 30
0.0
 11
918.7827082323238
 21
570.4492959364559
 31
0.0
  0
LINE
  5
34
330
17
100
AcDbEntity
  8
0
100
AcDbLine
 10
895.7241810171957
 20
834.0094680300152
 30
0.0
 11
836.8937854605969
 21
828.8624753480669
 31
0.0
  0
LINE
  5
35
330
17
100
AcDbEntity
  8
0
100
AcDbLine
 10
836.8937854605969
 20
828.8624753480669
 30
0.0
 11
833.8055898514274
 21
864.1607126820311
 31
0.0
  0
LINE
  5
36
330
17
100
AcDbEntity
  8
0
100
AcDbLine
 10
890.0624890670522
 20
898.722903142279
 30
0.0
 11
379.4146556357703
 21
854.0470066629675
 31
0.0
  0
LINE
  5
37
330
17
100
AcDbEntity
  8
0
100
AcDbLine
 10
349.99945785747065
 20
851.4735103219933
 30
0.0
 11
161.74219207635127
 21
835.0031337397586
 31
0.0
  0
LINE
  5
38
330
17
100
AcDbEntity
  8
0
100
AcDbLine
 10
351.54355566205527
 20
833.8243916550124
 30
0.0
 11
15.300390871498832
 21
804.4069265477597
 31
0.0
  0
LINE
  5
39
330
17
100
AcDbEntity
  8
0
100
AcDbLine
 10
833.8055898514274
 20
864.1607126820311
 30
0.0
 11
352.57295419844485
 21
822.0583125436937
 31
0.0
  0
LINE
  5
3A
330
17
100
AcDbEntity
  8
0
100
AcDbLine
 10
965.3115220771366
 20
38.62252010479824
 30
0.0
 11
979.4308170107208
 21
39.85779834846585
 31
0.0
  0
LINE
  5
3B
330
17
100
AcDbEntity
  8
0
100
AcDbLine
 10
927.9443552061919
 20
465.73119184570817
 30
0.0
 11
942.0636501397761
 21
466.9664700893758
 31
0.0
  0
LINE
  5
3C
330
17
100
AcDbEntity
  8
0
100
AcDbLine
 10
939.2677391064782
 20
336.30432162118973
 30
0.0
 11
953.3870340400624
 21
337.53959986485734
 31
0.0
  0
LINE
  5
3D
330
17
100
AcDbEntity
  8
0
100
AcDbLine
 10
953.988138176851
 20
168.04939032930918
 30
0.0
 11
968.1074331104352
 21
169.28466857297678
 31
0.0
  0
LINE
  5
3E
330
17
100
AcDbEntity
  8
0
100
AcDbLine
 10
953.988138176851
 20
168.04939032930918
 30
0.0
 11
939.2677391064782
 21
336.30432162118973
 31
0.0
  0
LINE
  5
3F
330
17
100
AcDbEntity
  8
0
100
AcDbLine
 10
927.9443552061919
 20
465.73119184570817
 30
0.0
 11
909.724001112095
 21
673.9907921160664
 31
0.0
  0
LINE
  5
40
330
17
100
AcDbEntity
  8
0
100
AcDbLine
 10
969.4503057277924
 20
-8.683993492010927
 30
0.0
 11
965.3115220771366
 21
38.62252010479824
 31
0.0
  0
LINE
  5
41
330
17
100
AcDbEntity
  8
0
100
AcDbLine
 10
896.3418201390296
 20
826.9498205632221
 30
0.0
 11
805.5488692294609
 21
1864.7179981816357
 31
0.0
  0
LINE
  5
42
330
17
100
AcDbEntity
  8
0
100
AcDbLine
 10
910.461115072611
 20
828.1850988068895
 30
0.0
 11
818.4328859193748
 21
1880.0725713588868
 31
0.0
  0
LINE
  5
43
330
17
100
AcDbEntity
  8
0
100
AcDbLine
 10
161.74219207635127
 20
835.0031337397586
 30
0.0
 11
142.18361988494757
 21
1058.5586368548363
 31
0.0
  0
LINE
  5
44
330
17
100
AcDbEntity
  8
0
100
AcDbLine
 10
330.44088566606695
 20
1075.0290134370712
 30
0.0
 11
142.18361988494757
 21
1058.5586368548363
 31
0.0
  0
LINE
  5
45
330
17
100
AcDbEntity
  8
0
100
AcDbLine
 10
144.0930734093742
 20
833.4590359351744
 30
0.0
 11
124.53450121797052
 21
1057.014539050252
 31
0.0
  0
LINE
  5
46
330
17
100
AcDbEntity
  8
0
100
AcDbLine
 10
144.0930734093742
 20
833.4590359351744
 30
0.0
 11
13.756293066914234
 21
822.0560452147406
 31
0.0
  0
LINE
  5
47
330
17
100
AcDbEntity
  8
0
100
AcDbLine
 10
328.8967878614828
 20
1092.6781321040473
 30
0.0
 11
34.74481007848732
 21
1066.9431686943058
 31
0.0
  0
LINE
  5
48
330
17
100
AcDbEntity
  8
0
100
AcDbLine
 10
124.53450121797052
 20
1057.014539050252
 30
0.0
 11
-5.802279124489463
 21
1045.6115483298183
 31
0.0
  0
LINE
  5
49
330
17
100
AcDbEntity
  8
0
100
AcDbLine
 10
323.0292162040616
 20
1159.7447830385715
 30
0.0
 11
328.8967878614828
 21
1092.6781321040473
 31
0.0
  0
LINE
  5
4A
330
17
100
AcDbEntity
  8
0
100
AcDbLine
 10
321.17629883856006
 20
1180.9237254389486
 30
0.0
 11
267.3387553853807
 21
1796.2896629609759
 31
0.0
  0
LINE
  5
4B
330
17
100
AcDbEntity
  8
0
100
AcDbLine
 10
294.90103579817907
 20
1820.042101702324
 30
0.0
 11
379.4146556357703
 21
854.0470066629675
 31
0.0
  0
LINE
  5
4C
330
17
100
AcDbEntity
  8
0
100
AcDbLine
 10
330.44088566606695
 20
1075.0290134370712
 30
0.0
 11
349.99945785747065
 21
851.4735103219933
 31
0.0
  0
LINE
  5
4D
330
17
100
AcDbEntity
  8
0
100
AcDbLine
 10
351.54355566205527
 20
833.8243916550124
 30
0.0
 11
352.57295419844485
 21
822.0583125436937
 31
0.0
  0
LINE
  5
4E
330
17
100
AcDbEntity
  8
0
100
AcDbLine
 10
34.74481007848732
 20
1066.9431686943058
 30
0.0
 11
31.656614469318214
 21
1102.2414060282665
 31
0.0
  0
LINE
  5
4F
330
17
100
AcDbEntity
  8
0
100
AcDbLine
 10
17.095691411507513
 20
1065.3990708897213
 30
0.0
 11
14.007495802338413
 21
1100.697308223682
 31
0.0
  0
LINE
  5
50
330
17
100
AcDbEntity
  8
0
100
AcDbLine
 10
155.76154810108665
 20
1309.9111017128516
 30
0.0
 11
124.87959200939672
 21
1662.8934750524468
 31
0.0
  0
LINE
  5
51
330
17
100
AcDbEntity
  8
0
100
AcDbLine
 10
167.52762721240674
 20
1310.9405002492413
 30
0.0
 11
136.64567112071683
 21
1663.9228735888364
 31
0.0
  0
LINE
  5
52
330
17
100
AcDbEntity
  8
0
100
AcDbLine
 10
-16.313357326440112
 20
1650.5406926157707
 30
0.0
 11
277.83862045655536
 21
1676.2756560255123
 31
0.0
  0
LINE
  5
53
330
17
100
AcDbEntity
  8
0
100
AcDbLine
 10
-13.225161717271106
 20
1615.242455281811
 30
0.0
 11
127.96778761856572
 21
1627.5952377184872
 31
0.0
  0
LINE
  5
54
330
17
100
AcDbEntity
  8
0
100
AcDbLine
 10
-10.13696610810213
 20
1579.944217947852
 30
0.0
 11
131.0559832277347
 21
1592.2970003845276
 31
0.0
  0
LINE
  5
55
330
17
100
AcDbEntity
  8
0
100
AcDbLine
 10
-7.048770498933223
 20
1544.6459806138932
 30
0.0
 11
134.14417883690362
 21
1556.998763050569
 31
0.0
  0
LINE
  5
56
330
17
100
AcDbEntity
  8
0
100
AcDbLine
 10
-3.9605748897639472
 20
1509.3477432799305
 30
0.0
 11
137.23237444607287
 21
1521.7005257166063
 31
0.0
  0
LINE
  5
57
330
17
100
AcDbEntity
  8
0
100
AcDbLine
 10
-0.8723792805951618
 20
1474.0495059459734
 30
0.0
 11
140.32057005524166
 21
1486.4022883826492
 31
0.0
  0
LINE
  5
58
330
17
100
AcDbEntity
  8
0
100
AcDbLine
 10
2.215816328573837
 20
1438.7512686120137
 30
0.0
 11
72.81229099649282
 21
1444.9276598303518
 31
0.0
  0
LINE
  5
59
330
17
100
AcDbEntity
  8
0
100
AcDbLine
 10
14.568598765249803
 20
1297.5583192761758
 30
0.0
 11
308.7205765482453
 21
1323.2932826859171
 31
0.0
  0
LINE
  5
5A
330
17
100
AcDbEntity
  8
0
100
AcDbLine
 10
31.656614469318214
 20
1102.2414060282665
 30
0.0
 11
14.007495802338413
 21
1100.697308223682
 31
0.0
  0
LINE
  5
5B
330
17
100
AcDbEntity
  8
0
100
AcDbLine
 10
19.30383203264213
 20
1243.434355364106
 30
0.0
 11
1.654713365662328
 21
1241.8902575595214
 31
0.0
  0
LINE
  5
5C
330
17
100
AcDbEntity
  8
0
100
AcDbLine
 10
1.654713365662328
 20
1241.8902575595214
 30
0.0
 11
-46.31525843009585
 21
1790.189544147024
 31
0.0
  0
LINE
  5
5D
330
17
100
AcDbEntity
  8
0
100
AcDbLine
 10
19.30383203264213
 20
1243.434355364106
 30
0.0
 11
-28.66613976311605
 21
1791.7336419516087
 31
0.0
  0
LINE
  5
5E
330
17
100
AcDbEntity
  8
0
100
AcDbLine
 10
17.095691411507513
 20
1065.3990708897213
 30
0.0
 11
-7.346376929073646
 21
1063.2606669967945
 31
0.0
  0
LINE
  5
5F
330
17
100
AcDbEntity
  8
0
100
AcDbLine
 10
139.73386672988582
 20
1628.6246362548768
 30
0.0
 11
280.9268160657243
 21
1640.9774186915527
 31
0.0
  0
LINE
  5
60
330
17
100
AcDbEntity
  8
0
100
AcDbLine
 10
142.8220623390548
 20
1593.3263989209172
 30
0.0
 11
284.01501167489334
 21
1605.6791813575933
 31
0.0
  0
LINE
  5
61
330
17
100
AcDbEntity
  8
0
100
AcDbLine
 10
145.91025794822372
 20
1558.0281615869587
 30
0.0
 11
287.10320728406225
 21
1570.3809440236346
 31
0.0
  0
LINE
  5
62
330
17
100
AcDbEntity
  8
0
100
AcDbLine
 10
148.99845355739296
 20
1522.729924252996
 30
0.0
 11
290.1914028932315
 21
1535.0827066896718
 31
0.0
  0
LINE
  5
63
330
17
100
AcDbEntity
  8
0
100
AcDbLine
 10
152.08664916656176
 20
1487.4316869190388
 30
0.0
 11
293.2795985024003
 21
1499.784469355715
 31
0.0
  0
LINE
  5
64
330
17
100
AcDbEntity
  8
0
100
AcDbLine
 10
155.17484477573078
 20
1452.1334495850792
 30
0.0
 11
296.3677941115693
 21
1464.4862320217553
 31
0.0
  0
LINE
  5
65
330
17
100
AcDbEntity
  8
0
100
AcDbLine
 10
158.26304038489977
 20
1416.8352122511196
 30
0.0
 11
299.45598972073833
 21
1429.1879946877957
 31
0.0
  0
LINE
  5
66
330
17
100
AcDbEntity
  8
0
100
AcDbLine
 10
161.35123599406865
 20
1381.5369749171614
 30
0.0
 11
302.5441853299072
 21
1393.8897573538375
 31
0.0
  0
LINE
  5
67
330
17
100
AcDbEntity
  8
0
100
AcDbLine
 10
164.43943160323792
 20
1346.2387375831986
 30
0.0
 11
305.6323809390765
 21
1358.5915200198747
 31
0.0
  0
LINE
  5
68
330
17
100
AcDbEntity
  8
0
100
AcDbLine
 10
238.12410188032425
 20
1317.116891467579
 30
0.0
 11
207.24214578863433
 21
1670.0992648071742
 31
0.0
  0
LINE
  5
69
330
17
100
AcDbEntity
  8
0
100
AcDbLine
 10
232.33499277878147
 20
1649.0438661525548
 30
0.0
 11
207.24214578863433
 21
1670.0992648071742
 31
0.0
  0
LINE
  5
6A
330
17
100
AcDbEntity
  8
0
100
AcDbLine
 10
186.18674713401774
 20
1645.0064178170283
 30
0.0
 11
207.24214578863433
 21
1670.0992648071742
 31
0.0
  0
LINE
  5
6B
330
17
100
AcDbEntity
  8
0
100
AcDbLine
 10
54.28311734147887
 20
1656.7170838341087
 30
0.0
 11
72.81229099649282
 21
1444.9276598303518
 31
0.0
  0
LINE
  5
6C
330
17
100
AcDbEntity
  8
0
100
AcDbLine
 10
47.71944400634594
 20
1465.9830584849706
 30
0.0
 11
72.81229099649282
 21
1444.9276598303518
 31
0.0
  0
LINE
  5
6D
330
17
100
AcDbEntity
  8
0
100
AcDbLine
 10
93.8676896511099
 20
1470.020506820497
 30
0.0
 11
72.81229099649282
 21
1444.9276598303518
 31
0.0
  0
LINE
  5
6E
330
17
100
AcDbEntity
  8
0
100
AcDbLine
 10
5.3040119377428425
 20
1403.4530312780541
 30
0.0
 11
140.32057005524166
 21
1486.4022883826492
 31
0.0
  0
LINE
  5
6F
330
17
100
AcDbEntity
  8
0
100
AcDbLine
 10
-70.75732677067701
 20
1788.0511402540974
 30
0.0
 11
100.76073046140455
 21
1803.057025851895
 31
0.0
  0
LINE
  5
70
330
17
100
AcDbEntity
  8
0
100
AcDbLine
 10
-71.99260501434459
 20
1802.1704351876808
 30
0.0
 11
107.76170759565717
 21
1817.8968997609509
 31
0.0
  0
LINE
  5
71
330
17
100
AcDbEntity
  8
0
100
AcDbLine
 10
310.19693864289496
 20
1821.3803197996308
 30
0.0
 11
308.9616603992274
 21
1835.4996147332145
 31
0.0
  0
LINE
  5
72
330
17
100
AcDbEntity
  8
0
100
AcDbLine
 10
451.3898879787317
 20
1833.7331022363066
 30
0.0
 11
450.1546097350641
 21
1847.85239716989
 31
0.0
  0
LINE
  5
73
330
17
100
AcDbEntity
  8
0
100
AcDbLine
 10
450.1546097350641
 20
1847.85239716989
 30
0.0
 11
818.4328859193748
 21
1880.0725713588868
 31
0.0
  0
LINE
  5
74
330
17
100
AcDbEntity
  8
0
100
AcDbLine
 10
451.3898879787317
 20
1833.7331022363066
 30
0.0
 11
805.5488692294609
 21
1864.7179981816357
 31
0.0
  0
LINE
  5
75
330
17
100
AcDbEntity
  8
0
100
AcDbLine
 10
206.6554424632805
 20
1812.3216126794018
 30
0.0
 11
205.42016421961296
 21
1826.4409076129853
 31
0.0
  0
LINE
  5
76
330
17
100
AcDbEntity
  8
0
100
AcDbLine
 10
100.76073046140455
 20
1803.057025851895
 30
0.0
 11
99.52545221773697
 21
1817.1763207854785
 31
0.0
  0
LINE
  5
77
330
17
100
AcDbEntity
  8
0
100
AcDbLine
 10
206.6554424632805
 20
1812.3216126794018
 30
0.0
 11
310.19693864289496
 21
1821.3803197996308
 31
0.0
  0
LINE
  5
78
330
17
100
AcDbEntity
  8
0
100
AcDbLine
 10
479.27645585068706
 20
1921.5370674469787
 30
0.0
 11
882.8529693689583
 21
1956.8454372451442
 31
0.0
  0
LINE
  5
79
330
17
100
AcDbEntity
  8
0
100
AcDbLine
 10
1054.1660753292954
 20
-1.2723240300052794
 30
0.0
 11
997.0132670545722
 21
651.9872637997726
 31
0.0
  0
LINE
  5
7A
330
17
100
AcDbEntity
  8
0
100
AcDbLine
 10
896.3418201390296
 20
826.9498205632221
 30
0.0
 11
910.461115072611
 21
828.1850988068895
 31
0.0
  0
LINE
  5
7B
330
17
100
AcDbEntity
  8
0
100
AcDbLine
 10
909.724001112095
 20
673.9907921160664
 30
0.0
 11
923.8432960456765
 21
675.2260703597337
 31
0.0
  0
LINE
  5
7C
330
17
100
AcDbEntity
  8
0
100
AcDbLine
 10
910.461115072611
 20
828.1850988068895
 30
0.0
 11
923.8432960456765
 21
675.2260703597337
 31
0.0
  0
LINE
  5
7D
330
17
100
AcDbEntity
  8
0
100
AcDbLine
 10
1164.239866896859
 20
773.3229538474972
 30
0.0
 11
1093.6433922289402
 21
767.1465626291591
 31
0.0
  0
LINE
  5
7E
330
17
100
AcDbEntity
  8
0
100
AcDbLine
 10
1118.7362392190885
 20
746.0911639745389
 30
0.0
 11
1093.6433922289402
 21
767.1465626291591
 31
0.0
  0
LINE
  5
7F
330
17
100
AcDbEntity
  8
0
100
AcDbLine
 10
1114.6987908835624
 20
792.2394096192992
 30
0.0
 11
1093.6433922289402
 21
767.1465626291591
 31
0.0
  0
LINE
  5
80
330
17
100
AcDbEntity
  8
0
100
AcDbLine
 10
1084.3788054014335
 20
873.0412746310349
 30
0.0
 11
1102.9079790564474
 21
661.2518506272792
 31
0.0
  0
LINE
  5
81
330
17
100
AcDbEntity
  8
0
100
AcDbLine
 10
1119.677042735395
 20
876.129470240204
 30
0.0
 11
1138.2062163904088
 21
664.3400462364483
 31
0.0
  0
LINE
  5
82
330
17
100
AcDbEntity
  8
0
100
AcDbLine
 10
1154.975280069356
 20
879.2176658493731
 30
0.0
 11
1173.5044537243698
 21
667.4282418456174
 31
0.0
  0
LINE
  5
83
330
17
100
AcDbEntity
  8
0
100
AcDbLine
 10
978.4840933995583
 20
863.7766878035281
 30
0.0
 11
882.8529693689583
 21
1956.8454372451442
 31
0.0
  0
LINE
  5
84
330
17
100
AcDbEntity
  8
0
100
AcDbLine
 10
-3.9349745273190138
 20
1170.2643843552091
 30
0.0
 11
37.2463023623003
 21
1173.8672792325729
 31
0.0
  0
LINE
  5
85
330
17
100
AcDbEntity
  8
0
100
AcDbLine
 10
378.52873653075557
 20
1853.4420850628724
 30
0.0
 11
381.8228118472024
 21
1815.79063190665
 31
0.0
  0
LINE
  5
86
330
17
100
AcDbEntity
  8
0
100
AcDbLine
 10
983.5696006613739
 20
-7.448715248343547
 30
0.0
 11
978.710238035246
 21
48.094053726382185
 31
0.0
  0
LINE
  5
87
330
17
100
AcDbEntity
  8
0
100
AcDbLine
 10
968.8280120859055
 20
161.04841319505044
 30
0.0
 11
952.6664550645869
 21
345.77585524278095
 31
0.0
  0
LINE
  5
88
330
17
100
AcDbEntity
  8
0
100
AcDbLine
 10
962.2243935547739
 20
168.76996930478185
 30
0.0
 11
962.9449725302469
 21
160.53371392685574
 31
0.0
  0
LINE
  5
89
330
17
100
AcDbEntity
  8
0
100
AcDbLine
 10
962.9449725302469
 20
160.53371392685574
 30
0.0
 11
968.8280120859055
 21
161.04841319505044
 31
0.0
  0
LINE
  5
8A
330
17
100
AcDbEntity
  8
0
100
AcDbLine
 10
968.8280120859055
 20
161.04841319505044
 30
0.0
 11
968.8280120859055
 21
161.04841319505044
 31
0.0
  0
LINE
  5
8B
330
17
100
AcDbEntity
  8
0
100
AcDbLine
 10
962.9449725302469
 20
160.53371392685574
 30
0.0
 11
972.8271984795874
 21
47.57935445818748
 31
0.0
  0
LINE
  5
8C
330
17
100
AcDbEntity
  8
0
100
AcDbLine
 10
972.8271984795874
 20
47.57935445818748
 30
0.0
 11
975.7687182574188
 21
47.836704092285004
 31
0.0
  0
LINE
  5
8D
330
17
100
AcDbEntity
  8
0
100
AcDbLine
 10
975.7687182574188
 20
47.836704092285004
 30
0.0
 11
965.8864923080782
 21
160.79106356095326
 31
0.0
  0
LINE
  5
8E
330
17
100
AcDbEntity
  8
0
100
AcDbLine
 10
965.8864923080782
 20
160.79106356095326
 30
0.0
 11
962.9449725302469
 21
160.53371392685574
 31
0.0
  0
LINE
  5
8F
330
17
100
AcDbEntity
  8
0
100
AcDbLine
 10
962.9449725302469
 20
160.53371392685574
 30
0.0
 11
962.9449725302469
 21
160.53371392685574
 31
0.0
  0
LINE
  5
90
330
17
100
AcDbEntity
  8
0
100
AcDbLine
 10
978.710238035246
 20
48.094053726382185
 30
0.0
 11
972.8271984795874
 21
47.57935445818748
 31
0.0
  0
LINE
  5
91
330
17
100
AcDbEntity
  8
0
100
AcDbLine
 10
972.8271984795874
 20
47.57935445818748
 30
0.0
 11
973.5477774550604
 21
39.34309908026137
 31
0.0
  0
LINE
  5
92
330
17
100
AcDbEntity
  8
0
100
AcDbLine
 10
979.430817010719
 20
39.85779834845607
 30
0.0
 11
979.430817010719
 21
39.85779834845607
 31
0.0
  0
LINE
  5
93
330
17
100
AcDbEntity
  8
0
100
AcDbLine
 10
936.9011895595875
 20
458.21551544325814
 30
0.0
 11
946.7834155089283
 21
345.26115597458625
 31
0.0
  0
LINE
  5
94
330
17
100
AcDbEntity
  8
0
100
AcDbLine
 10
946.7834155089283
 20
345.26115597458625
 30
0.0
 11
949.7249352867597
 21
345.51850560868377
 31
0.0
  0
LINE
  5
95
330
17
100
AcDbEntity
  8
0
100
AcDbLine
 10
949.7249352867597
 20
345.51850560868377
 30
0.0
 11
939.8427093374188
 21
458.47286507735566
 31
0.0
  0
LINE
  5
96
330
17
100
AcDbEntity
  8
0
100
AcDbLine
 10
939.8427093374188
 20
458.47286507735566
 30
0.0
 11
936.9011895595875
 21
458.21551544325814
 31
0.0
  0
LINE
  5
97
330
17
100
AcDbEntity
  8
0
100
AcDbLine
 10
936.9011895595875
 20
458.21551544325814
 30
0.0
 11
936.9011895595875
 21
458.21551544325814
 31
0.0
  0
LINE
  5
98
330
17
100
AcDbEntity
  8
0
100
AcDbLine
 10
942.784229115246
 20
458.73021471145285
 30
0.0
 11
923.8432960456765
 21
675.2260703597337
 31
0.0
  0
LINE
  5
99
330
17
100
AcDbEntity
  8
0
100
AcDbLine
 10
936.1806105841148
 20
466.45177082118084
 30
0.0
 11
936.9011895595875
 21
458.21551544325814
 31
0.0
  0
LINE
  5
9A
330
17
100
AcDbEntity
  8
0
100
AcDbLine
 10
936.9011895595875
 20
458.21551544325814
 30
0.0
 11
942.784229115246
 21
458.73021471145285
 31
0.0
  0
LINE
  5
9B
330
17
100
AcDbEntity
  8
0
100
AcDbLine
 10
942.784229115246
 20
458.73021471145285
 30
0.0
 11
942.784229115246
 21
458.73021471145285
 31
0.0
  0
LINE
  5
9C
330
17
100
AcDbEntity
  8
0
100
AcDbLine
 10
952.6664550645869
 20
345.77585524278095
 30
0.0
 11
946.7834155089283
 21
345.26115597458625
 31
0.0
  0
LINE
  5
9D
330
17
100
AcDbEntity
  8
0
100
AcDbLine
 10
946.7834155089283
 20
345.26115597458625
 30
0.0
 11
947.5039944844011
 21
337.0249005966624
 31
0.0
  0
LINE
  5
9E
330
17
100
AcDbEntity
  8
0
100
AcDbLine
 10
953.3870340400597
 20
337.5395998648571
 30
0.0
 11
953.3870340400597
 21
337.5395998648571
 31
0.0
  0
LINE
  5
9F
330
17
100
AcDbEntity
  8
0
100
AcDbLine
 10
910.461115072611
 20
828.1850988068895
 30
0.0
 11
991.8910361915558
 21
759.8572820291879
 31
0.0
  0
LINE
  5
A0
330
17
100
AcDbEntity
  8
0
100
AcDbLine
 10
923.8432960456765
 20
675.2260703597337
 30
0.0
 11
954.2112146135464
 21
711.417146412597
 31
0.0
  0
LINE
  5
A1
330
17
100
AcDbEntity
  8
0
100
AcDbLine
 10
308.9616603992274
 20
1835.4996147332145
 30
0.0
 11
450.1546097350641
 21
1847.85239716989
 31
0.0
  0
LINE
  5
A2
330
17
100
AcDbEntity
  8
0
100
AcDbLine
 10
450.1546097350641
 20
1847.85239716989
 30
0.0
 11
451.3898879787317
 21
1833.7331022363066
 31
0.0
  0
LINE
  5
A3
330
17
100
AcDbEntity
  8
0
100
AcDbLine
 10
451.3898879787317
 20
1833.7331022363066
 30
0.0
 11
310.19693864289496
 21
1821.3803197996308
 31
0.0
  0
LINE
  5
A4
330
17
100
AcDbEntity
  8
0
100
AcDbLine
 10
310.19693864289496
 20
1821.3803197996308
 30
0.0
 11
308.9616603992274
 21
1835.4996147332145
 31
0.0
  0
LINE
  5
A5
330
17
100
AcDbEntity
  8
0
100
AcDbLine
 10
308.9616603992274
 20
1835.4996147332145
 30
0.0
 11
308.9616603992274
 21
1835.4996147332145
 31
0.0
  0
LINE
  5
A6
330
17
100
AcDbEntity
  8
0
100
AcDbLine
 10
1.654713365662328
 20
1241.8902575595214
 30
0.0
 11
14.007495802338413
 21
1100.697308223682
 31
0.0
  0
LINE
  5
A7
330
17
100
AcDbEntity
  8
0
100
AcDbLine
 10
14.007495802338413
 20
1100.697308223682
 30
0.0
 11
31.656614469318214
 21
1102.2414060282665
 31
0.0
  0
LINE
  5
A8
330
17
100
AcDbEntity
  8
0
100
AcDbLine
 10
31.656614469318214
 20
1102.2414060282665
 30
0.0
 11
19.30383203264213
 21
1243.434355364106
 31
0.0
  0
LINE
  5
A9
330
17
100
AcDbEntity
  8
0
100
AcDbLine
 10
19.30383203264213
 20
1243.434355364106
 30
0.0
 11
1.654713365662328
 21
1241.8902575595214
 31
0.0
  0
LINE
  5
AA
330
17
100
AcDbEntity
  8
0
100
AcDbLine
 10
1.654713365662328
 20
1241.8902575595214
 30
0.0
 11
1.654713365662328
 21
1241.8902575595214
 31
0.0
  0
LINE
  5
AB
330
17
100
AcDbEntity
  8
0
100
AcDbLine
 10
953.988138176851
 20
168.04939032930918
 30
0.0
 11
968.1074331104325
 21
169.28466857297656
 31
0.0
  0
LINE
  5
AC
330
17
100
AcDbEntity
  8
0
100
AcDbLine
 10
968.1074331104325
 20
169.28466857297656
 30
0.0
 11
979.430817010719
 21
39.85779834845607
 31
0.0
  0
LINE
  5
AD
330
17
100
AcDbEntity
  8
0
100
AcDbLine
 10
979.430817010719
 20
39.85779834845607
 30
0.0
 11
965.3115220771375
 21
38.62252010478869
 31
0.0
  0
LINE
  5
AE
330
17
100
AcDbEntity
  8
0
100
AcDbLine
 10
965.3115220771375
 20
38.62252010478869
 30
0.0
 11
953.988138176851
 21
168.04939032930918
 31
0.0
  0
LINE
  5
AF
330
17
100
AcDbEntity
  8
0
100
AcDbLine
 10
953.988138176851
 20
168.04939032930918
 30
0.0
 11
953.988138176851
 21
168.04939032930918
 31
0.0
  0
LINE
  5
B0
330
17
100
AcDbEntity
  8
0
100
AcDbLine
 10
927.9443552061919
 20
465.73119184570817
 30
0.0
 11
942.0636501397734
 21
466.96647008937555
 31
0.0
  0
LINE
  5
B1
330
17
100
AcDbEntity
  8
0
100
AcDbLine
 10
942.0636501397734
 20
466.96647008937555
 30
0.0
 11
953.3870340400597
 21
337.5395998648571
 31
0.0
  0
LINE
  5
B2
330
17
100
AcDbEntity
  8
0
100
AcDbLine
 10
953.3870340400597
 20
337.5395998648571
 30
0.0
 11
939.2677391064782
 21
336.30432162118973
 31
0.0
  0
LINE
  5
B3
330
17
100
AcDbEntity
  8
0
100
AcDbLine
 10
939.2677391064782
 20
336.30432162118973
 30
0.0
 11
927.9443552061919
 21
465.73119184570817
 31
0.0
  0
LINE
  5
B4
330
17
100
AcDbEntity
  8
0
100
AcDbLine
 10
927.9443552061919
 20
465.73119184570817
 30
0.0
 11
927.9443552061919
 21
465.73119184570817
 31
0.0
  0
LINE
  5
B5
330
17
100
AcDbEntity
  8
0
100
AcDbLine
 10
926.4167923866507
 20
645.8108725814343
 30
0.0
 11
1173.5044537243698
 21
667.4282418456174
 31
0.0
  0
LINE
  5
B6
330
17
100
AcDbEntity
  8
0
100
AcDbLine
 10
1102.9079790564474
 20
661.2518506272792
 30
0.0
 11
1084.3788054014335
 21
873.0412746310349
 31
0.0
  0
LINE
  5
B7
330
17
100
AcDbEntity
  8
0
100
AcDbLine
 10
1154.975280069356
 20
879.2176658493731
 30
0.0
 11
907.8876187316368
 21
857.6002965851899
 31
0.0
  0
LINE
  5
B8
330
17
100
AcDbEntity
  8
0
100
AcDbLine
 10
95.7028103650636
 20
1935.4032810936924
 30
0.0
 11
113.35192903204113
 21
1936.9473788982764
 31
0.0
  0
LINE
  5
B9
330
17
100
AcDbEntity
  8
0
100
AcDbLine
 10
113.35192903204113
 20
1936.9473788982764
 30
0.0
 11
114.89602683662572
 21
1919.2982602312954
 31
0.0
  0
LINE
  5
BA
330
17
100
AcDbEntity
  8
0
100
AcDbLine
 10
114.89602683662572
 20
1919.2982602312954
 30
0.0
 11
97.2469081696482
 21
1917.7541624267114
 31
0.0
  0
LINE
  5
BB
330
17
100
AcDbEntity
  8
0
100
AcDbLine
 10
97.2469081696482
 20
1917.7541624267114
 30
0.0
 11
95.7028103650636
 21
1935.4032810936924
 31
0.0
  0
LINE
  5
BC
330
17
100
AcDbEntity
  8
0
100
AcDbLine
 10
95.7028103650636
 20
1935.4032810936924
 30
0.0
 11
95.7028103650636
 21
1935.4032810936924
 31
0.0
  0
LINE
  5
BD
330
17
100
AcDbEntity
  8
0
100
AcDbLine
 10
451.62670348248633
 20
1966.5425868194793
 30
0.0
 11
433.97758481551017
 21
1964.9984890148953
 31
0.0
  0
LINE
  5
BE
330
17
100
AcDbEntity
  8
0
100
AcDbLine
 10
433.97758481551017
 20
1964.9984890148953
 30
0.0
 11
435.52168262009474
 21
1947.3493703479144
 31
0.0
  0
LINE
  5
BF
330
17
100
AcDbEntity
  8
0
100
AcDbLine
 10
435.52168262009474
 20
1947.3493703479144
 30
0.0
 11
453.1708012870709
 21
1948.8934681524984
 31
0.0
  0
LINE
  5
C0
330
17
100
AcDbEntity
  8
0
100
AcDbLine
 10
453.1708012870709
 20
1948.8934681524984
 30
0.0
 11
451.62670348248633
 21
1966.5425868194793
 31
0.0
  0
LINE
  5
C1
330
17
100
AcDbEntity
  8
0
100
AcDbLine
 10
451.62670348248633
 20
1966.5425868194793
 30
0.0
 11
451.62670348248633
 21
1966.5425868194793
 31
0.0
  0
LINE
  5
C2
330
17
100
AcDbEntity
  8
0
100
AcDbLine
 10
100.76073046140455
 20
1803.057025851895
 30
0.0
 11
99.52545221773697
 21
1817.1763207854785
 31
0.0
  0
LINE
  5
C3
330
17
100
AcDbEntity
  8
0
100
AcDbLine
 10
99.52545221773697
 20
1817.1763207854785
 30
0.0
 11
205.42016421961296
 21
1826.4409076129853
 31
0.0
  0
LINE
  5
C4
330
17
100
AcDbEntity
  8
0
100
AcDbLine
 10
205.42016421961296
 20
1826.4409076129853
 30
0.0
 11
206.6554424632805
 21
1812.3216126794018
 31
0.0
  0
LINE
  5
C5
330
17
100
AcDbEntity
  8
0
100
AcDbLine
 10
206.6554424632805
 20
1812.3216126794018
 30
0.0
 11
100.76073046140455
 21
1803.057025851895
 31
0.0
  0
LINE
  5
C6
330
17
100
AcDbEntity
  8
0
100
AcDbLine
 10
100.76073046140455
 20
1803.057025851895
 30
0.0
 11
100.76073046140455
 21
1803.057025851895
 31
0.0
  0
LINE
  5
C7
330
17
100
AcDbEntity
  8
0
100
AcDbLine
 10
-84.3453874510207
 20
1943.3633845235204
 30
0.0
 11
473.10006463234896
 21
1992.1335421148988
 31
0.0
  0
LINE
  5
C8
330
17
100
AcDbEntity
  8
0
100
AcDbLine
 10
473.10006463234896
 20
1992.1335421148988
 30
0.0
 11
485.45284706902527
 21
1850.9405927790572
 31
0.0
  0
LINE
  5
C9
330
17
100
AcDbEntity
  8
0
100
AcDbLine
 10
896.6773071491965
 20
579.1858497711396
 30
0.0
 11
917.8562495495732
 21
581.0387671366411
 31
0.0
  0
LINE
  5
CA
330
17
100
AcDbEntity
  8
0
100
AcDbLine
 10
917.8562495495732
 20
581.0387671366411
 30
0.0
 11
919.7091669150744
 21
559.8598247362679
 31
0.0
  0
LINE
  5
CB
330
17
100
AcDbEntity
  8
0
100
AcDbLine
 10
919.7091669150744
 20
559.8598247362679
 30
0.0
 11
898.5302245146977
 21
558.0069073707664
 31
0.0
  0
LINE
  5
CC
330
17
100
AcDbEntity
  8
0
100
AcDbLine
 10
898.5302245146977
 20
558.0069073707664
 30
0.0
 11
896.6773071491965
 21
579.1858497711396
 31
0.0
  0
LINE
  5
CD
330
17
100
AcDbEntity
  8
0
100
AcDbLine
 10
896.6773071491965
 20
579.1858497711396
 30
0.0
 11
896.6773071491965
 21
579.1858497711396
 31
0.0
  0
LINE
  5
CE
330
17
100
AcDbEntity
  8
0
100
AcDbLine
 10
377.79321833999177
 20
533.7893743163554
 30
0.0
 11
398.9721607403653
 21
535.6422916818567
 31
0.0
  0
LINE
  5
CF
330
17
100
AcDbEntity
  8
0
100
AcDbLine
 10
398.9721607403653
 20
535.6422916818567
 30
0.0
 11
400.8250781058665
 21
514.4633492814835
 31
0.0
  0
LINE
  5
D0
330
17
100
AcDbEntity
  8
0
100
AcDbLine
 10
400.8250781058665
 20
514.4633492814835
 30
0.0
 11
379.64613570549295
 21
512.6104319159822
 31
0.0
  0
LINE
  5
D1
330
17
100
AcDbEntity
  8
0
100
AcDbLine
 10
379.64613570549295
 20
512.6104319159822
 30
0.0
 11
377.79321833999177
 21
533.7893743163554
 31
0.0
  0
LINE
  5
D2
330
17
100
AcDbEntity
  8
0
100
AcDbLine
 10
377.79321833999177
 20
533.7893743163554
 30
0.0
 11
377.79321833999177
 21
533.7893743163554
 31
0.0
  0
LINE
  5
D3
330
17
100
AcDbEntity
  8
0
100
AcDbLine
 10
840.0603876477649
 20
1226.3202008937328
 30
0.0
 11
861.2393300481416
 21
1228.1731182592343
 31
0.0
  0
LINE
  5
D4
330
17
100
AcDbEntity
  8
0
100
AcDbLine
 10
861.2393300481416
 20
1228.1731182592343
 30
0.0
 11
863.092247413643
 21
1206.9941758588573
 31
0.0
  0
LINE
  5
D5
330
17
100
AcDbEntity
  8
0
100
AcDbLine
 10
863.092247413643
 20
1206.9941758588573
 30
0.0
 11
841.9133050132663
 21
1205.1412584933557
 31
0.0
  0
LINE
  5
D6
330
17
100
AcDbEntity
  8
0
100
AcDbLine
 10
841.9133050132663
 20
1205.1412584933557
 30
0.0
 11
840.0603876477649
 21
1226.3202008937328
 31
0.0
  0
LINE
  5
D7
330
17
100
AcDbEntity
  8
0
100
AcDbLine
 10
840.0603876477649
 20
1226.3202008937328
 30
0.0
 11
840.0603876477649
 21
1226.3202008937328
 31
0.0
  0
LINE
  5
D8
330
17
100
AcDbEntity
  8
0
100
AcDbLine
 10
784.3699268290842
 20
1862.8650808161342
 30
0.0
 11
805.5488692294609
 21
1864.7179981816357
 31
0.0
  0
LINE
  5
D9
330
17
100
AcDbEntity
  8
0
100
AcDbLine
 10
805.5488692294609
 20
1864.7179981816357
 30
0.0
 11
807.4017865949621
 21
1843.5390557812616
 31
0.0
  0
LINE
  5
DA
330
17
100
AcDbEntity
  8
0
100
AcDbLine
 10
807.4017865949621
 20
1843.5390557812616
 30
0.0
 11
786.2228441945854
 21
1841.68613841576
 31
0.0
  0
LINE
  5
DB
330
17
100
AcDbEntity
  8
0
100
AcDbLine
 10
786.2228441945854
 20
1841.68613841576
 30
0.0
 11
784.3699268290842
 21
1862.8650808161342
 31
0.0
  0
LINE
  5
DC
330
17
100
AcDbEntity
  8
0
100
AcDbLine
 10
784.3699268290842
 20
1862.8650808161342
 30
0.0
 11
784.3699268290842
 21
1862.8650808161342
 31
0.0
  0
LINE
  5
DD
330
17
100
AcDbEntity
  8
0
100
AcDbLine
 10
321.17629883856006
 20
1180.9237254389486
 30
0.0
 11
342.3552412389336
 21
1182.77664280445
 31
0.0
  0
LINE
  5
DE
330
17
100
AcDbEntity
  8
0
100
AcDbLine
 10
342.3552412389336
 20
1182.77664280445
 30
0.0
 11
344.20815860443514
 21
1161.5977004040728
 31
0.0
  0
LINE
  5
DF
330
17
100
AcDbEntity
  8
0
100
AcDbLine
 10
344.20815860443514
 20
1161.5977004040728
 30
0.0
 11
323.0292162040616
 21
1159.7447830385715
 31
0.0
  0
LINE
  5
E0
330
17
100
AcDbEntity
  8
0
100
AcDbLine
 10
323.0292162040616
 20
1159.7447830385715
 30
0.0
 11
321.17629883856006
 21
1180.9237254389486
 31
0.0
  0
LINE
  5
E1
330
17
100
AcDbEntity
  8
0
100
AcDbLine
 10
321.17629883856006
 20
1180.9237254389486
 30
0.0
 11
321.17629883856006
 21
1180.9237254389486
 31
0.0
  0
LINE
  5
E2
330
17
100
AcDbEntity
  8
0
100
AcDbLine
 10
265.4858380198794
 20
1817.46860536135
 30
0.0
 11
286.66478042025295
 21
1819.3215227268513
 31
0.0
  0
LINE
  5
E3
330
17
100
AcDbEntity
  8
0
100
AcDbLine
 10
286.66478042025295
 20
1819.3215227268513
 30
0.0
 11
288.51769778575425
 21
1798.142580326477
 31
0.0
  0
LINE
  5
E4
330
17
100
AcDbEntity
  8
0
100
AcDbLine
 10
288.51769778575425
 20
1798.142580326477
 30
0.0
 11
267.3387553853807
 21
1796.2896629609759
 31
0.0
  0
LINE
  5
E5
330
17
100
AcDbEntity
  8
0
100
AcDbLine
 10
267.3387553853807
 20
1796.2896629609759
 30
0.0
 11
265.4858380198794
 21
1817.46860536135
 31
0.0
  0
LINE
  5
E6
330
17
100
AcDbEntity
  8
0
100
AcDbLine
 10
265.4858380198794
 20
1817.46860536135
 30
0.0
 11
265.4858380198794
 21
1817.46860536135
 31
0.0
  0
LINE
  5
E7
330
17
100
AcDbEntity
  8
0
100
AcDbLine
 10
197.18390884169048
 20
1825.7203286375127
 30
0.0
 11
308.9616603992274
 21
1835.4996147332145
 31
0.0
  0
LINE
  5
E8
330
17
100
AcDbEntity
  8
0
100
AcDbLine
 10
205.93486348780763
 20
1820.557868057327
 30
0.0
 11
197.69860810988516
 21
1819.8372890818544
 31
0.0
  0
LINE
  5
E9
330
17
100
AcDbEntity
  8
0
100
AcDbLine
 10
197.69860810988516
 20
1819.8372890818544
 30
0.0
 11
197.18390884169048
 21
1825.7203286375127
 31
0.0
  0
LINE
  5
EA
330
17
100
AcDbEntity
  8
0
100
AcDbLine
 10
197.18390884169048
 20
1825.7203286375127
 30
0.0
 11
197.18390884169048
 21
1825.7203286375127
 31
0.0
  0
LINE
  5
EB
330
17
100
AcDbEntity
  8
0
100
AcDbLine
 10
197.44125847578775
 20
1822.7788088596844
 30
0.0
 11
108.01905722975445
 21
1814.9553799831226
 31
0.0
  0
LINE
  5
EC
330
17
100
AcDbEntity
  8
0
100
AcDbLine
 10
108.01905722975445
 20
1814.9553799831226
 30
0.0
 11
108.27640686385186
 21
1812.0138602052925
 31
0.0
  0
LINE
  5
ED
330
17
100
AcDbEntity
  8
0
100
AcDbLine
 10
108.27640686385186
 20
1812.0138602052925
 30
0.0
 11
197.69860810988516
 21
1819.8372890818544
 31
0.0
  0
LINE
  5
EE
330
17
100
AcDbEntity
  8
0
100
AcDbLine
 10
197.69860810988516
 20
1819.8372890818544
 30
0.0
 11
197.44125847578775
 21
1822.7788088596844
 31
0.0
  0
LINE
  5
EF
330
17
100
AcDbEntity
  8
0
100
AcDbLine
 10
197.44125847578775
 20
1822.7788088596844
 30
0.0
 11
197.44125847578775
 21
1822.7788088596844
 31
0.0
  0
LINE
  5
F0
330
17
100
AcDbEntity
  8
0
100
AcDbLine
 10
107.76170759565717
 20
1817.8968997609509
 30
0.0
 11
108.27640686385186
 21
1812.0138602052925
 31
0.0
  0
LINE
  5
F1
330
17
100
AcDbEntity
  8
0
100
AcDbLine
 10
108.27640686385186
 20
1812.0138602052925
 30
0.0
 11
100.04015148592916
 21
1811.29328122982
 31
0.0
  0
LINE
  5
F2
330
17
100
AcDbEntity
  8
0
100
AcDbLine
 10
99.52545221773447
 20
1817.1763207854783
 30
0.0
 11
99.52545221773447
 21
1817.1763207854783
 31
0.0
  0
LINE
  5
F3
330
17
100
AcDbEntity
  8
0
100
AcDbLine
 10
245.14795455916033
 20
1317.7313989512534
 30
0.0
 11
245.08239224073637
 21
1318.2545738317235
 31
0.0
  0
LINE
  5
F4
330
17
100
AcDbEntity
  8
0
100
AcDbLine
 10
245.08239224073637
 20
1318.2545738317235
 30
0.0
 11
244.97791634007177
 21
1318.7713863309248
 31
0.0
  0
LINE
  5
F5
330
17
100
AcDbEntity
  8
0
100
AcDbLine
 10
244.97791634007177
 20
1318.7713863309248
 30
0.0
 11
244.83511112878398
 21
1319.2789462237245
 31
0.0
  0
LINE
  5
F6
330
17
100
AcDbEntity
  8
0
100
AcDbLine
 10
244.83511112878398
 20
1319.2789462237245
 30
0.0
 11
244.65477523154027
 21
1319.7744150293167
 31
0.0
  0
LINE
  5
F7
330
17
100
AcDbEntity
  8
0
100
AcDbLine
 10
244.65477523154027
 20
1319.7744150293167
 30
0.0
 11
244.43791715983096
 21
1320.2550218851616
 31
0.0
  0
LINE
  5
F8
330
17
100
AcDbEntity
  8
0
100
AcDbLine
 10
244.43791715983096
 20
1320.2550218851616
 30
0.0
 11
244.18574967195613
 21
1320.7180790427674
 31
0.0
  0
LINE
  5
F9
330
17
100
AcDbEntity
  8
0
100
AcDbLine
 10
244.18574967195613
 20
1320.7180790427674
 30
0.0
 11
243.89968299079823
 21
1321.160996898675
 31
0.0
  0
LINE
  5
FA
330
17
100
AcDbEntity
  8
0
100
AcDbLine
 10
243.89968299079823
 20
1321.160996898675
 30
0.0
 11
243.58131691727772
 21
1321.581298476571
 31
0.0
  0
LINE
  5
FB
330
17
100
AcDbEntity
  8
0
100
AcDbLine
 10
243.58131691727772
 20
1321.581298476571
 30
0.0
 11
243.23243188361783
 21
1321.976633279541
 31
0.0
  0
LINE
  5
FC
330
17
100
AcDbEntity
  8
0
100
AcDbLine
 10
243.23243188361783
 20
1321.976633279541
 30
0.0
 11
242.85497899645117
 21
1322.3447904350037
 31
0.0
  0
LINE
  5
FD
330
17
100
AcDbEntity
  8
0
100
AcDbLine
 10
242.85497899645117
 20
1322.3447904350037
 30
0.0
 11
242.451069125427
 21
1322.6837110588087
 31
0.0
  0
LINE
  5
FE
330
17
100
AcDbEntity
  8
0
100
AcDbLine
 10
242.451069125427
 20
1322.6837110588087
 30
0.0
 11
242.02296109838807
 21
1322.991499769348
 31
0.0
  0
LINE
  5
FF
330
17
100
AcDbEntity
  8
0
100
AcDbLine
 10
242.02296109838807
 20
1322.991499769348
 30
0.0
 11
241.57304906907694
 21
1323.2664352873016
 31
0.0
  0
LINE
  5
100
330
17
100
AcDbEntity
  8
0
100
AcDbLine
 10
241.57304906907694
 20
1323.2664352873016
 30
0.0
 11
241.1038491280652
 21
1323.5069800617284
 31
0.0
  0
LINE
  5
101
330
17
100
AcDbEntity
  8
0
100
AcDbLine
 10
241.1038491280652
 20
1323.5069800617284
 30
0.0
 11
240.61798523174417
 21
1323.7117888686757
 31
0.0
  0
LINE
  5
102
330
17
100
AcDbEntity
  8
0
100
AcDbLine
 10
240.61798523174417
 20
1323.7117888686757
 30
0.0
 11
240.11817452811079
 21
1323.8797163342188
 31
0.0
  0
LINE
  5
103
330
17
100
AcDbEntity
  8
0
100
AcDbLine
 10
240.11817452811079
 20
1323.8797163342188
 30
0.0
 11
239.60721216135974
 21
1324.009823339851
 31
0.0
  0
LINE
  5
104
330
17
100
AcDbEntity
  8
0
100
AcDbLine
 10
239.60721216135974
 20
1324.009823339851
 30
0.0
 11
239.08795564031067
 21
1324.1013822744203
 31
0.0
  0
LINE
  5
105
330
17
100
AcDbEntity
  8
0
100
AcDbLine
 10
239.08795564031067
 20
1324.1013822744203
 30
0.0
 11
238.5633088580622
 21
1324.153881103226
 31
0.0
  0
LINE
  5
106
330
17
100
AcDbEntity
  8
0
100
AcDbLine
 10
238.5633088580622
 20
1324.153881103226
 30
0.0
 11
238.0362058522347
 21
1324.1670262315201
 31
0.0
  0
LINE
  5
107
330
17
100
AcDbEntity
  8
0
100
AcDbLine
 10
238.0362058522347
 20
1324.1670262315201
 30
0.0
 11
237.5095943966497
 21
1324.140744146417
 31
0.0
  0
LINE
  5
108
330
17
100
AcDbEntity
  8
0
100
AcDbLine
 10
237.5095943966497
 20
1324.140744146417
 30
0.0
 11
236.98641951618114
 21
1324.075181827991
 31
0.0
  0
LINE
  5
109
330
17
100
AcDbEntity
  8
0
100
AcDbLine
 10
236.98641951618114
 20
1324.075181827991
 30
0.0
 11
236.46960701697876
 21
1323.9707059273278
 31
0.0
  0
LINE
  5
10A
330
17
100
AcDbEntity
  8
0
100
AcDbLine
 10
236.46960701697876
 20
1323.9707059273278
 30
0.0
 11
235.96204712417915
 21
1323.82790071604
 31
0.0
  0
LINE
  5
10B
330
17
100
AcDbEntity
  8
0
100
AcDbLine
 10
235.96204712417915
 20
1323.82790071604
 30
0.0
 11
235.46657831858514
 21
1323.6475648187964
 31
0.0
  0
LINE
  5
10C
330
17
100
AcDbEntity
  8
0
100
AcDbLine
 10
235.46657831858514
 20
1323.6475648187964
 30
0.0
 11
234.98597146274176
 21
1323.4307067470859
 31
0.0
  0
LINE
  5
10D
330
17
100
AcDbEntity
  8
0
100
AcDbLine
 10
234.98597146274176
 20
1323.4307067470859
 30
0.0
 11
234.522914305136
 21
1323.178539259211
 31
0.0
  0
LINE
  5
10E
330
17
100
AcDbEntity
  8
0
100
AcDbLine
 10
234.522914305136
 20
1323.178539259211
 30
0.0
 11
234.07999644922822
 21
1322.892472578054
 31
0.0
  0
LINE
  5
10F
330
17
100
AcDbEntity
  8
0
100
AcDbLine
 10
234.07999644922822
 20
1322.892472578054
 30
0.0
 11
233.65969487133356
 21
1322.5741065045336
 31
0.0
  0
LINE
  5
110
330
17
100
AcDbEntity
  8
0
100
AcDbLine
 10
233.65969487133356
 20
1322.5741065045336
 30
0.0
 11
233.26436006836224
 21
1322.2252214708742
 31
0.0
  0
LINE
  5
111
330
17
100
AcDbEntity
  8
0
100
AcDbLine
 10
233.26436006836224
 20
1322.2252214708742
 30
0.0
 11
232.89620291289907
 21
1321.8477685837058
 31
0.0
  0
LINE
  5
112
330
17
100
AcDbEntity
  8
0
100
AcDbLine
 10
232.89620291289907
 20
1321.8477685837058
 30
0.0
 11
232.55728228909476
 21
1321.4438587126817
 31
0.0
  0
LINE
  5
113
330
17
100
AcDbEntity
  8
0
100
AcDbLine
 10
232.55728228909476
 20
1321.4438587126817
 30
0.0
 11
232.2494935785558
 21
1321.0157506856433
 31
0.0
  0
LINE
  5
114
330
17
100
AcDbEntity
  8
0
100
AcDbLine
 10
232.2494935785558
 20
1321.0157506856433
 30
0.0
 11
231.97455806060316
 21
1320.5658386563327
 31
0.0
  0
LINE
  5
115
330
17
100
AcDbEntity
  8
0
100
AcDbLine
 10
231.97455806060316
 20
1320.5658386563327
 30
0.0
 11
231.73401328617496
 21
1320.0966387153196
 31
0.0
  0
LINE
  5
116
330
17
100
AcDbEntity
  8
0
100
AcDbLine
 10
231.73401328617496
 20
1320.0966387153196
 30
0.0
 11
231.52920447922665
 21
1319.6107748190002
 31
0.0
  0
LINE
  5
117
330
17
100
AcDbEntity
  8
0
100
AcDbLine
 10
231.52920447922665
 20
1319.6107748190002
 30
0.0
 11
231.3612770136846
 21
1319.1109641153657
 31
0.0
  0
LINE
  5
118
330
17
100
AcDbEntity
  8
0
100
AcDbLine
 10
231.3612770136846
 20
1319.1109641153657
 30
0.0
 11
231.2311700080528
 21
1318.6000017486142
 31
0.0
  0
LINE
  5
119
330
17
100
AcDbEntity
  8
0
100
AcDbLine
 10
231.2311700080528
 20
1318.6000017486142
 30
0.0
 11
231.13961107348268
 21
1318.080745227567
 31
0.0
  0
LINE
  5
11A
330
17
100
AcDbEntity
  8
0
100
AcDbLine
 10
231.13961107348268
 20
1318.080745227567
 30
0.0
 11
231.08711224467737
 21
1317.5560984453182
 31
0.0
  0
LINE
  5
11B
330
17
100
AcDbEntity
  8
0
100
AcDbLine
 10
231.08711224467737
 20
1317.5560984453182
 30
0.0
 11
231.07396711638174
 21
1317.0289954394907
 31
0.0
  0
LINE
  5
11C
330
17
100
AcDbEntity
  8
0
100
AcDbLine
 10
231.07396711638174
 20
1317.0289954394907
 30
0.0
 11
231.10024920148715
 21
1316.5023839839046
 31
0.0
  0
LINE
  5
11D
330
17
100
AcDbEntity
  8
0
100
AcDbLine
 10
231.10024920148715
 20
1316.5023839839046
 30
0.0
 11
231.16581151991085
 21
1315.9792091034371
 31
0.0
  0
LINE
  5
11E
330
17
100
AcDbEntity
  8
0
100
AcDbLine
 10
231.16581151991085
 20
1315.9792091034371
 30
0.0
 11
231.27028742057556
 21
1315.4623966042345
 31
0.0
  0
LINE
  5
11F
330
17
100
AcDbEntity
  8
0
100
AcDbLine
 10
231.27028742057556
 20
1315.4623966042345
 30
0.0
 11
231.41309263186335
 21
1314.9548367114348
 31
0.0
  0
LINE
  5
120
330
17
100
AcDbEntity
  8
0
100
AcDbLine
 10
231.41309263186335
 20
1314.9548367114348
 30
0.0
 11
231.5934285291072
 21
1314.4593679058412
 31
0.0
  0
LINE
  5
121
330
17
100
AcDbEntity
  8
0
100
AcDbLine
 10
231.5934285291072
 20
1314.4593679058412
 30
0.0
 11
231.81028660081728
 21
1313.9787610499982
 31
0.0
  0
LINE
  5
122
330
17
100
AcDbEntity
  8
0
100
AcDbLine
 10
231.81028660081728
 20
1313.9787610499982
 30
0.0
 11
232.06245408869145
 21
1313.5157038923903
 31
0.0
  0
LINE
  5
123
330
17
100
AcDbEntity
  8
0
100
AcDbLine
 10
232.06245408869145
 20
1313.5157038923903
 30
0.0
 11
232.34852076984933
 21
1313.0727860364832
 31
0.0
  0
LINE
  5
124
330
17
100
AcDbEntity
  8
0
100
AcDbLine
 10
232.34852076984933
 20
1313.0727860364832
 30
0.0
 11
232.6668868433712
 21
1312.6524844585872
 31
0.0
  0
LINE
  5
125
330
17
100
AcDbEntity
  8
0
100
AcDbLine
 10
232.6668868433712
 20
1312.6524844585872
 30
0.0
 11
233.0157718770295
 21
1312.2571496556182
 31
0.0
  0
LINE
  5
126
330
17
100
AcDbEntity
  8
0
100
AcDbLine
 10
233.0157718770295
 20
1312.2571496556182
 30
0.0
 11
233.39322476419773
 21
1311.888992500155
 31
0.0
  0
LINE
  5
127
330
17
100
AcDbEntity
  8
0
100
AcDbLine
 10
233.39322476419773
 20
1311.888992500155
 30
0.0
 11
233.79713463522097
 21
1311.5500718763496
 31
0.0
  0
LINE
  5
128
330
17
100
AcDbEntity
  8
0
100
AcDbLine
 10
233.79713463522097
 20
1311.5500718763496
 30
0.0
 11
234.22524266225994
 21
1311.2422831658102
 31
0.0
  0
LINE
  5
129
330
17
100
AcDbEntity
  8
0
100
AcDbLine
 10
234.22524266225994
 20
1311.2422831658102
 30
0.0
 11
234.6751546915717
 21
1310.967347647859
 31
0.0
  0
LINE
  5
12A
330
17
100
AcDbEntity
  8
0
100
AcDbLine
 10
234.6751546915717
 20
1310.967347647859
 30
0.0
 11
235.1443546325835
 21
1310.726802873431
 31
0.0
  0
LINE
  5
12B
330
17
100
AcDbEntity
  8
0
100
AcDbLine
 10
235.1443546325835
 20
1310.726802873431
 30
0.0
 11
235.63021852890327
 21
1310.5219940664824
 31
0.0
  0
LINE
  5
12C
330
17
100
AcDbEntity
  8
0
100
AcDbLine
 10
235.63021852890327
 20
1310.5219940664824
 30
0.0
 11
236.13002923253745
 21
1310.3540666009408
 31
0.0
  0
LINE
  5
12D
330
17
100
AcDbEntity
  8
0
100
AcDbLine
 10
236.13002923253745
 20
1310.3540666009408
 30
0.0
 11
236.6409915992877
 21
1310.2239595953083
 31
0.0
  0
LINE
  5
12E
330
17
100
AcDbEntity
  8
0
100
AcDbLine
 10
236.6409915992877
 20
1310.2239595953083
 30
0.0
 11
237.16024812033675
 21
1310.1324006607379
 31
0.0
  0
LINE
  5
12F
330
17
100
AcDbEntity
  8
0
100
AcDbLine
 10
237.16024812033675
 20
1310.1324006607379
 30
0.0
 11
237.68489490258526
 21
1310.0799018319333
 31
0.0
  0
LINE
  5
130
330
17
100
AcDbEntity
  8
0
100
AcDbLine
 10
237.68489490258526
 20
1310.0799018319333
 30
0.0
 11
238.21199790841376
 21
1310.066756703638
 31
0.0
  0
LINE
  5
131
330
17
100
AcDbEntity
  8
0
100
AcDbLine
 10
238.21199790841376
 20
1310.066756703638
 30
0.0
 11
238.73860936399853
 21
1310.0930387887433
 31
0.0
  0
LINE
  5
132
330
17
100
AcDbEntity
  8
0
100
AcDbLine
 10
238.73860936399853
 20
1310.0930387887433
 30
0.0
 11
239.26178424446732
 21
1310.1586011071672
 31
0.0
  0
LINE
  5
133
330
17
100
AcDbEntity
  8
0
100
AcDbLine
 10
239.26178424446732
 20
1310.1586011071672
 30
0.0
 11
239.7785967436687
 21
1310.2630770078315
 31
0.0
  0
LINE
  5
134
330
17
100
AcDbEntity
  8
0
100
AcDbLine
 10
239.7785967436687
 20
1310.2630770078315
 30
0.0
 11
240.28615663646826
 21
1310.4058822191184
 31
0.0
  0
LINE
  5
135
330
17
100
AcDbEntity
  8
0
100
AcDbLine
 10
240.28615663646826
 20
1310.4058822191184
 30
0.0
 11
240.7816254420623
 21
1310.586218116363
 31
0.0
  0
LINE
  5
136
330
17
100
AcDbEntity
  8
0
100
AcDbLine
 10
240.7816254420623
 20
1310.586218116363
 30
0.0
 11
241.26223229790648
 21
1310.8030761880736
 31
0.0
  0
LINE
  5
137
330
17
100
AcDbEntity
  8
0
100
AcDbLine
 10
241.26223229790648
 20
1310.8030761880736
 30
0.0
 11
241.72528945551144
 21
1311.0552436759472
 31
0.0
  0
LINE
  5
138
330
17
100
AcDbEntity
  8
0
100
AcDbLine
 10
241.72528945551144
 20
1311.0552436759472
 30
0.0
 11
242.16820731142047
 21
1311.3413103571056
 31
0.0
  0
LINE
  5
139
330
17
100
AcDbEntity
  8
0
100
AcDbLine
 10
242.16820731142047
 20
1311.3413103571056
 30
0.0
 11
242.58850888931508
 21
1311.6596764306269
 31
0.0
  0
LINE
  5
13A
330
17
100
AcDbEntity
  8
0
100
AcDbLine
 10
242.58850888931508
 20
1311.6596764306269
 30
0.0
 11
242.98384369228577
 21
1312.008561464284
 31
0.0
  0
LINE
  5
13B
330
17
100
AcDbEntity
  8
0
100
AcDbLine
 10
242.98384369228577
 20
1312.008561464284
 30
0.0
 11
243.3520008477489
 21
1312.3860143514526
 31
0.0
  0
LINE
  5
13C
330
17
100
AcDbEntity
  8
0
100
AcDbLine
 10
243.3520008477489
 20
1312.3860143514526
 30
0.0
 11
243.69092147155413
 21
1312.7899242224767
 31
0.0
  0
LINE
  5
13D
330
17
100
AcDbEntity
  8
0
100
AcDbLine
 10
243.69092147155413
 20
1312.7899242224767
 30
0.0
 11
243.99871018209151
 21
1313.2180322495158
 31
0.0
  0
LINE
  5
13E
330
17
100
AcDbEntity
  8
0
100
AcDbLine
 10
243.99871018209151
 20
1313.2180322495158
 30
0.0
 11
244.27364570004576
 21
1313.6679442788254
 31
0.0
  0
LINE
  5
13F
330
17
100
AcDbEntity
  8
0
100
AcDbLine
 10
244.27364570004576
 20
1313.6679442788254
 30
0.0
 11
244.5141904744726
 21
1314.1371442198383
 31
0.0
  0
LINE
  5
140
330
17
100
AcDbEntity
  8
0
100
AcDbLine
 10
244.5141904744726
 20
1314.1371442198383
 30
0.0
 11
244.71899928142093
 21
1314.6230081161577
 31
0.0
  0
LINE
  5
141
330
17
100
AcDbEntity
  8
0
100
AcDbLine
 10
244.71899928142093
 20
1314.6230081161577
 30
0.0
 11
244.88692674696364
 21
1315.1228188197938
 31
0.0
  0
LINE
  5
142
330
17
100
AcDbEntity
  8
0
100
AcDbLine
 10
244.88692674696364
 20
1315.1228188197938
 30
0.0
 11
245.01703375259467
 21
1315.6337811865437
 31
0.0
  0
LINE
  5
143
330
17
100
AcDbEntity
  8
0
100
AcDbLine
 10
245.01703375259467
 20
1315.6337811865437
 30
0.0
 11
245.10859268716464
 21
1316.1530377075924
 31
0.0
  0
LINE
  5
144
330
17
100
AcDbEntity
  8
0
100
AcDbLine
 10
245.10859268716464
 20
1316.1530377075924
 30
0.0
 11
245.16109151596996
 21
1316.677684489841
 31
0.0
  0
LINE
  5
145
330
17
100
AcDbEntity
  8
0
100
AcDbLine
 10
245.16109151596996
 20
1316.677684489841
 30
0.0
 11
245.17423664426548
 21
1317.20478749567
 31
0.0
  0
LINE
  5
146
330
17
100
AcDbEntity
  8
0
100
AcDbLine
 10
245.17423664426548
 20
1317.20478749567
 30
0.0
 11
245.14795455916033
 21
1317.7313989512534
 31
0.0
  0
LINE
  5
147
330
17
100
AcDbEntity
  8
0
100
AcDbLine
 10
61.30697002031472
 20
1657.331591317783
 30
0.0
 11
61.24140770189103
 21
1657.8547661982516
 31
0.0
  0
LINE
  5
148
330
17
100
AcDbEntity
  8
0
100
AcDbLine
 10
61.24140770189103
 20
1657.8547661982516
 30
0.0
 11
61.13693180122679
 21
1658.371578697454
 31
0.0
  0
LINE
  5
149
330
17
100
AcDbEntity
  8
0
100
AcDbLine
 10
61.13693180122679
 20
1658.371578697454
 30
0.0
 11
60.99412658993874
 21
1658.879138590254
 31
0.0
  0
LINE
  5
14A
330
17
100
AcDbEntity
  8
0
100
AcDbLine
 10
60.99412658993874
 20
1658.879138590254
 30
0.0
 11
60.813790692695235
 21
1659.3746073958464
 31
0.0
  0
LINE
  5
14B
330
17
100
AcDbEntity
  8
0
100
AcDbLine
 10
60.813790692695235
 20
1659.3746073958464
 30
0.0
 11
60.59693262098597
 21
1659.855214251691
 31
0.0
  0
LINE
  5
14C
330
17
100
AcDbEntity
  8
0
100
AcDbLine
 10
60.59693262098597
 20
1659.855214251691
 30
0.0
 11
60.34476513311056
 21
1660.3182714092968
 31
0.0
  0
LINE
  5
14D
330
17
100
AcDbEntity
  8
0
100
AcDbLine
 10
60.34476513311056
 20
1660.3182714092968
 30
0.0
 11
60.05869845195354
 21
1660.7611892652046
 31
0.0
  0
LINE
  5
14E
330
17
100
AcDbEntity
  8
0
100
AcDbLine
 10
60.05869845195354
 20
1660.7611892652046
 30
0.0
 11
59.74033237843239
 21
1661.1814908431004
 31
0.0
  0
LINE
  5
14F
330
17
100
AcDbEntity
  8
0
100
AcDbLine
 10
59.74033237843239
 20
1661.1814908431004
 30
0.0
 11
59.39144734477282
 21
1661.5768256460706
 31
0.0
  0
LINE
  5
150
330
17
100
AcDbEntity
  8
0
100
AcDbLine
 10
59.39144734477282
 20
1661.5768256460706
 30
0.0
 11
59.01399445760535
 21
1661.9449828015331
 31
0.0
  0
LINE
  5
151
330
17
100
AcDbEntity
  8
0
100
AcDbLine
 10
59.01399445760535
 20
1661.9449828015331
 30
0.0
 11
58.61008458658122
 21
1662.2839034253382
 31
0.0
  0
LINE
  5
152
330
17
100
AcDbEntity
  8
0
100
AcDbLine
 10
58.61008458658122
 20
1662.2839034253382
 30
0.0
 11
58.18197655954227
 21
1662.591692135877
 31
0.0
  0
LINE
  5
153
330
17
100
AcDbEntity
  8
0
100
AcDbLine
 10
58.18197655954227
 20
1662.591692135877
 30
0.0
 11
57.73206453023136
 21
1662.8666276538308
 31
0.0
  0
LINE
  5
154
330
17
100
AcDbEntity
  8
0
100
AcDbLine
 10
57.73206453023136
 20
1662.8666276538308
 30
0.0
 11
57.26286458921861
 21
1663.1071724282579
 31
0.0
  0
LINE
  5
155
330
17
100
AcDbEntity
  8
0
100
AcDbLine
 10
57.26286458921861
 20
1663.1071724282579
 30
0.0
 11
56.77700069289894
 21
1663.3119812352052
 31
0.0
  0
LINE
  5
156
330
17
100
AcDbEntity
  8
0
100
AcDbLine
 10
56.77700069289894
 20
1663.3119812352052
 30
0.0
 11
56.27718998926579
 21
1663.4799087007482
 31
0.0
  0
LINE
  5
157
330
17
100
AcDbEntity
  8
0
100
AcDbLine
 10
56.27718998926579
 20
1663.4799087007482
 30
0.0
 11
55.76622762251439
 21
1663.6100157063802
 31
0.0
  0
LINE
  5
158
330
17
100
AcDbEntity
  8
0
100
AcDbLine
 10
55.76622762251439
 20
1663.6100157063802
 30
0.0
 11
55.24697110146566
 21
1663.7015746409502
 31
0.0
  0
LINE
  5
159
330
17
100
AcDbEntity
  8
0
100
AcDbLine
 10
55.24697110146566
 20
1663.7015746409502
 30
0.0
 11
54.72232431921683
 21
1663.7540734697554
 31
0.0
  0
LINE
  5
15A
330
17
100
AcDbEntity
  8
0
100
AcDbLine
 10
54.72232431921683
 20
1663.7540734697554
 30
0.0
 11
54.195221313389595
 21
1663.7672185980496
 31
0.0
  0
LINE
  5
15B
330
17
100
AcDbEntity
  8
0
100
AcDbLine
 10
54.195221313389595
 20
1663.7672185980496
 30
0.0
 11
53.66860985780446
 21
1663.7409365129456
 31
0.0
  0
LINE
  5
15C
330
17
100
AcDbEntity
  8
0
100
AcDbLine
 10
53.66860985780446
 20
1663.7409365129456
 30
0.0
 11
53.14543497733604
 21
1663.6753741945204
 31
0.0
  0
LINE
  5
15D
330
17
100
AcDbEntity
  8
0
100
AcDbLine
 10
53.14543497733604
 20
1663.6753741945204
 30
0.0
 11
52.6286224781334
 21
1663.5708982938575
 31
0.0
  0
LINE
  5
15E
330
17
100
AcDbEntity
  8
0
100
AcDbLine
 10
52.6286224781334
 20
1663.5708982938575
 30
0.0
 11
52.12106258533369
 21
1663.4280930825694
 31
0.0
  0
LINE
  5
15F
330
17
100
AcDbEntity
  8
0
100
AcDbLine
 10
52.12106258533369
 20
1663.4280930825694
 30
0.0
 11
51.625593779740015
 21
1663.2477571853258
 31
0.0
  0
LINE
  5
160
330
17
100
AcDbEntity
  8
0
100
AcDbLine
 10
51.625593779740015
 20
1663.2477571853258
 30
0.0
 11
51.14498692389563
 21
1663.0308991136153
 31
0.0
  0
LINE
  5
161
330
17
100
AcDbEntity
  8
0
100
AcDbLine
 10
51.14498692389563
 20
1663.0308991136153
 30
0.0
 11
50.681929766290764
 21
1662.7787316257404
 31
0.0
  0
LINE
  5
162
330
17
100
AcDbEntity
  8
0
100
AcDbLine
 10
50.681929766290764
 20
1662.7787316257404
 30
0.0
 11
50.239011910382985
 21
1662.4926649445833
 31
0.0
  0
LINE
  5
163
330
17
100
AcDbEntity
  8
0
100
AcDbLine
 10
50.239011910382985
 20
1662.4926649445833
 30
0.0
 11
49.81871033248718
 21
1662.174298871063
 31
0.0
  0
LINE
  5
164
330
17
100
AcDbEntity
  8
0
100
AcDbLine
 10
49.81871033248718
 20
1662.174298871063
 30
0.0
 11
49.423375529517806
 21
1661.8254138374036
 31
0.0
  0
LINE
  5
165
330
17
100
AcDbEntity
  8
0
100
AcDbLine
 10
49.423375529517806
 20
1661.8254138374036
 30
0.0
 11
49.05521837405328
 21
1661.447960950235
 31
0.0
  0
LINE
  5
166
330
17
100
AcDbEntity
  8
0
100
AcDbLine
 10
49.05521837405328
 20
1661.447960950235
 30
0.0
 11
48.716297750249396
 21
1661.0440510792114
 31
0.0
  0
LINE
  5
167
330
17
100
AcDbEntity
  8
0
100
AcDbLine
 10
48.716297750249396
 20
1661.0440510792114
 30
0.0
 11
48.408509039710346
 21
1660.615943052173
 31
0.0
  0
LINE
  5
168
330
17
100
AcDbEntity
  8
0
100
AcDbLine
 10
48.408509039710346
 20
1660.615943052173
 30
0.0
 11
48.13357352175783
 21
1660.1660310228622
 31
0.0
  0
LINE
  5
169
330
17
100
AcDbEntity
  8
0
100
AcDbLine
 10
48.13357352175783
 20
1660.1660310228622
 30
0.0
 11
47.893028747329815
 21
1659.6968310818493
 31
0.0
  0
LINE
  5
16A
330
17
100
AcDbEntity
  8
0
100
AcDbLine
 10
47.893028747329815
 20
1659.6968310818493
 30
0.0
 11
47.68821994038131
 21
1659.2109671855296
 31
0.0
  0
LINE
  5
16B
330
17
100
AcDbEntity
  8
0
100
AcDbLine
 10
47.68821994038131
 20
1659.2109671855296
 30
0.0
 11
47.52029247483961
 21
1658.7111564818952
 31
0.0
  0
LINE
  5
16C
330
17
100
AcDbEntity
  8
0
100
AcDbLine
 10
47.52029247483961
 20
1658.7111564818952
 30
0.0
 11
47.39018546920731
 21
1658.2001941151439
 31
0.0
  0
LINE
  5
16D
330
17
100
AcDbEntity
  8
0
100
AcDbLine
 10
47.39018546920731
 20
1658.2001941151439
 30
0.0
 11
47.29862653463881
 21
1657.6809375940966
 31
0.0
  0
LINE
  5
16E
330
17
100
AcDbEntity
  8
0
100
AcDbLine
 10
47.29862653463881
 20
1657.6809375940966
 30
0.0
 11
47.24612770583216
 21
1657.1562908118476
 31
0.0
  0
LINE
  5
16F
330
17
100
AcDbEntity
  8
0
100
AcDbLine
 10
47.24612770583216
 20
1657.1562908118476
 30
0.0
 11
47.23298257753685
 21
1656.6291878060188
 31
0.0
  0
LINE
  5
170
330
17
100
AcDbEntity
  8
0
100
AcDbLine
 10
47.23298257753685
 20
1656.6291878060188
 30
0.0
 11
47.25926466264211
 21
1656.1025763504344
 31
0.0
  0
LINE
  5
171
330
17
100
AcDbEntity
  8
0
100
AcDbLine
 10
47.25926466264211
 20
1656.1025763504344
 30
0.0
 11
47.32482698106596
 21
1655.5794014699654
 31
0.0
  0
LINE
  5
172
330
17
100
AcDbEntity
  8
0
100
AcDbLine
 10
47.32482698106596
 20
1655.5794014699654
 30
0.0
 11
47.42930288173034
 21
1655.062588970764
 31
0.0
  0
LINE
  5
173
330
17
100
AcDbEntity
  8
0
100
AcDbLine
 10
47.42930288173034
 20
1655.062588970764
 30
0.0
 11
47.572108093019494
 21
1654.5550290779645
 31
0.0
  0
LINE
  5
174
330
17
100
AcDbEntity
  8
0
100
AcDbLine
 10
47.572108093019494
 20
1654.5550290779645
 30
0.0
 11
47.75244399026173
 21
1654.0595602723706
 31
0.0
  0
LINE
  5
175
330
17
100
AcDbEntity
  8
0
100
AcDbLine
 10
47.75244399026173
 20
1654.0595602723706
 30
0.0
 11
47.96930206197227
 21
1653.5789534165274
 31
0.0
  0
LINE
  5
176
330
17
100
AcDbEntity
  8
0
100
AcDbLine
 10
47.96930206197227
 20
1653.5789534165274
 30
0.0
 11
48.221469549846084
 21
1653.11589625892
 31
0.0
  0
LINE
  5
177
330
17
100
AcDbEntity
  8
0
100
AcDbLine
 10
48.221469549846084
 20
1653.11589625892
 30
0.0
 11
48.507536231004224
 21
1652.6729784030126
 31
0.0
  0
LINE
  5
178
330
17
100
AcDbEntity
  8
0
100
AcDbLine
 10
48.507536231004224
 20
1652.6729784030126
 30
0.0
 11
48.82590230452585
 21
1652.2526768251166
 31
0.0
  0
LINE
  5
179
330
17
100
AcDbEntity
  8
0
100
AcDbLine
 10
48.82590230452585
 20
1652.2526768251166
 30
0.0
 11
49.174787338184046
 21
1651.8573420221478
 31
0.0
  0
LINE
  5
17A
330
17
100
AcDbEntity
  8
0
100
AcDbLine
 10
49.174787338184046
 20
1651.8573420221478
 30
0.0
 11
49.55224022535238
 21
1651.4891848666844
 31
0.0
  0
LINE
  5
17B
330
17
100
AcDbEntity
  8
0
100
AcDbLine
 10
49.55224022535238
 20
1651.4891848666844
 30
0.0
 11
49.95615009637516
 21
1651.150264242879
 31
0.0
  0
LINE
  5
17C
330
17
100
AcDbEntity
  8
0
100
AcDbLine
 10
49.95615009637516
 20
1651.150264242879
 30
0.0
 11
50.3842581234155
 21
1650.84247553234
 31
0.0
  0
LINE
  5
17D
330
17
100
AcDbEntity
  8
0
100
AcDbLine
 10
50.3842581234155
 20
1650.84247553234
 30
0.0
 11
50.8341701527253
 21
1650.5675400143887
 31
0.0
  0
LINE
  5
17E
330
17
100
AcDbEntity
  8
0
100
AcDbLine
 10
50.8341701527253
 20
1650.5675400143887
 30
0.0
 11
51.30337009373826
 21
1650.3269952399605
 31
0.0
  0
LINE
  5
17F
330
17
100
AcDbEntity
  8
0
100
AcDbLine
 10
51.30337009373826
 20
1650.3269952399605
 30
0.0
 11
51.78923399005805
 21
1650.1221864330118
 31
0.0
  0
LINE
  5
180
330
17
100
AcDbEntity
  8
0
100
AcDbLine
 10
51.78923399005805
 20
1650.1221864330118
 30
0.0
 11
52.2890446936913
 21
1649.9542589674702
 31
0.0
  0
LINE
  5
181
330
17
100
AcDbEntity
  8
0
100
AcDbLine
 10
52.2890446936913
 20
1649.9542589674702
 30
0.0
 11
52.80000706044259
 21
1649.8241519618377
 31
0.0
  0
LINE
  5
182
330
17
100
AcDbEntity
  8
0
100
AcDbLine
 10
52.80000706044259
 20
1649.8241519618377
 30
0.0
 11
53.31926358149127
 21
1649.7325930272673
 31
0.0
  0
LINE
  5
183
330
17
100
AcDbEntity
  8
0
100
AcDbLine
 10
53.31926358149127
 20
1649.7325930272673
 30
0.0
 11
53.84391036373992
 21
1649.6800941984625
 31
0.0
  0
LINE
  5
184
330
17
100
AcDbEntity
  8
0
100
AcDbLine
 10
53.84391036373992
 20
1649.6800941984625
 30
0.0
 11
54.37101336956852
 21
1649.6669490701688
 31
0.0
  0
LINE
  5
185
330
17
100
AcDbEntity
  8
0
100
AcDbLine
 10
54.37101336956852
 20
1649.6669490701688
 30
0.0
 11
54.89762482515321
 21
1649.6932311552728
 31
0.0
  0
LINE
  5
186
330
17
100
AcDbEntity
  8
0
100
AcDbLine
 10
54.89762482515321
 20
1649.6932311552728
 30
0.0
 11
55.42079970562208
 21
1649.758793473698
 31
0.0
  0
LINE
  5
187
330
17
100
AcDbEntity
  8
0
100
AcDbLine
 10
55.42079970562208
 20
1649.758793473698
 30
0.0
 11
55.93761220482335
 21
1649.8632693743607
 31
0.0
  0
LINE
  5
188
330
17
100
AcDbEntity
  8
0
100
AcDbLine
 10
55.93761220482335
 20
1649.8632693743607
 30
0.0
 11
56.44517209762324
 21
1650.006074585648
 31
0.0
  0
LINE
  5
189
330
17
100
AcDbEntity
  8
0
100
AcDbLine
 10
56.44517209762324
 20
1650.006074585648
 30
0.0
 11
56.940640903216966
 21
1650.1864104828924
 31
0.0
  0
LINE
  5
18A
330
17
100
AcDbEntity
  8
0
100
AcDbLine
 10
56.940640903216966
 20
1650.1864104828924
 30
0.0
 11
57.421247759061465
 21
1650.403268554603
 31
0.0
  0
LINE
  5
18B
330
17
100
AcDbEntity
  8
0
100
AcDbLine
 10
57.421247759061465
 20
1650.403268554603
 30
0.0
 11
57.884304916666224
 21
1650.6554360424766
 31
0.0
  0
LINE
  5
18C
330
17
100
AcDbEntity
  8
0
100
AcDbLine
 10
57.884304916666224
 20
1650.6554360424766
 30
0.0
 11
58.32722277257388
 21
1650.941502723635
 31
0.0
  0
LINE
  5
18D
330
17
100
AcDbEntity
  8
0
100
AcDbLine
 10
58.32722277257388
 20
1650.941502723635
 30
0.0
 11
58.74752435046948
 21
1651.2598687971565
 31
0.0
  0
LINE
  5
18E
330
17
100
AcDbEntity
  8
0
100
AcDbLine
 10
58.74752435046948
 20
1651.2598687971565
 30
0.0
 11
59.142859153439964
 21
1651.6087538308136
 31
0.0
  0
LINE
  5
18F
330
17
100
AcDbEntity
  8
0
100
AcDbLine
 10
59.142859153439964
 20
1651.6087538308136
 30
0.0
 11
59.5110163089031
 21
1651.9862067179822
 31
0.0
  0
LINE
  5
190
330
17
100
AcDbEntity
  8
0
100
AcDbLine
 10
59.5110163089031
 20
1651.9862067179822
 30
0.0
 11
59.84993693270833
 21
1652.3901165890065
 31
0.0
  0
LINE
  5
191
330
17
100
AcDbEntity
  8
0
100
AcDbLine
 10
59.84993693270833
 20
1652.3901165890065
 30
0.0
 11
60.15772564324652
 21
1652.8182246160452
 31
0.0
  0
LINE
  5
192
330
17
100
AcDbEntity
  8
0
100
AcDbLine
 10
60.15772564324652
 20
1652.8182246160452
 30
0.0
 11
60.43266116120041
 21
1653.2681366453548
 31
0.0
  0
LINE
  5
193
330
17
100
AcDbEntity
  8
0
100
AcDbLine
 10
60.43266116120041
 20
1653.2681366453548
 30
0.0
 11
60.67320593562795
 21
1653.7373365863677
 31
0.0
  0
LINE
  5
194
330
17
100
AcDbEntity
  8
0
100
AcDbLine
 10
60.67320593562795
 20
1653.7373365863677
 30
0.0
 11
60.87801474257534
 21
1654.2232004826874
 31
0.0
  0
LINE
  5
195
330
17
100
AcDbEntity
  8
0
100
AcDbLine
 10
60.87801474257534
 20
1654.2232004826874
 30
0.0
 11
61.04594220811863
 21
1654.7230111863232
 31
0.0
  0
LINE
  5
196
330
17
100
AcDbEntity
  8
0
100
AcDbLine
 10
61.04594220811863
 20
1654.7230111863232
 30
0.0
 11
61.17604921374966
 21
1655.2339735530734
 31
0.0
  0
LINE
  5
197
330
17
100
AcDbEntity
  8
0
100
AcDbLine
 10
61.17604921374966
 20
1655.2339735530734
 30
0.0
 11
61.267608148319425
 21
1655.7532300741218
 31
0.0
  0
LINE
  5
198
330
17
100
AcDbEntity
  8
0
100
AcDbLine
 10
61.267608148319425
 20
1655.7532300741218
 30
0.0
 11
61.320106977124965
 21
1656.2778768563703
 31
0.0
  0
LINE
  5
199
330
17
100
AcDbEntity
  8
0
100
AcDbLine
 10
61.320106977124965
 20
1656.2778768563703
 30
0.0
 11
61.33325210542014
 21
1656.804979862198
 31
0.0
  0
LINE
  5
19A
330
17
100
AcDbEntity
  8
0
100
AcDbLine
 10
61.33325210542014
 20
1656.804979862198
 30
0.0
 11
61.30697002031472
 21
1657.331591317783
 31
0.0
  0
LINE
  5
19B
330
17
100
AcDbEntity
  8
0
100
AcDbLine
 10
1171.2637195756947
 20
773.9374613311714
 30
0.0
 11
1171.1981572572709
 21
774.4606362116399
 31
0.0
  0
LINE
  5
19C
330
17
100
AcDbEntity
  8
0
100
AcDbLine
 10
1171.1981572572709
 20
774.4606362116399
 30
0.0
 11
1171.0936813566068
 21
774.9774487108414
 31
0.0
  0
LINE
  5
19D
330
17
100
AcDbEntity
  8
0
100
AcDbLine
 10
1171.0936813566068
 20
774.9774487108414
 30
0.0
 11
1170.9508761453194
 21
775.4850086036424
 31
0.0
  0
LINE
  5
19E
330
17
100
AcDbEntity
  8
0
100
AcDbLine
 10
1170.9508761453194
 20
775.4850086036424
 30
0.0
 11
1170.7705402480765
 21
775.9804774092361
 31
0.0
  0
LINE
  5
19F
330
17
100
AcDbEntity
  8
0
100
AcDbLine
 10
1170.7705402480765
 20
775.9804774092361
 30
0.0
 11
1170.5536821763653
 21
776.4610842650791
 31
0.0
  0
LINE
  5
1A0
330
17
100
AcDbEntity
  8
0
100
AcDbLine
 10
1170.5536821763653
 20
776.4610842650791
 30
0.0
 11
1170.3015146884904
 21
776.9241414226854
 31
0.0
  0
LINE
  5
1A1
330
17
100
AcDbEntity
  8
0
100
AcDbLine
 10
1170.3015146884904
 20
776.9241414226854
 30
0.0
 11
1170.0154480073325
 21
777.3670592785928
 31
0.0
  0
LINE
  5
1A2
330
17
100
AcDbEntity
  8
0
100
AcDbLine
 10
1170.0154480073325
 20
777.3670592785928
 30
0.0
 11
1169.6970819338121
 21
777.7873608564887
 31
0.0
  0
LINE
  5
1A3
330
17
100
AcDbEntity
  8
0
100
AcDbLine
 10
1169.6970819338121
 20
777.7873608564887
 30
0.0
 11
1169.3481969001543
 21
778.1826956594582
 31
0.0
  0
LINE
  5
1A4
330
17
100
AcDbEntity
  8
0
100
AcDbLine
 10
1169.3481969001543
 20
778.1826956594582
 30
0.0
 11
1168.9707440129855
 21
778.5508528149223
 31
0.0
  0
LINE
  5
1A5
330
17
100
AcDbEntity
  8
0
100
AcDbLine
 10
1168.9707440129855
 20
778.5508528149223
 30
0.0
 11
1168.5668341419614
 21
778.8897734387266
 31
0.0
  0
LINE
  5
1A6
330
17
100
AcDbEntity
  8
0
100
AcDbLine
 10
1168.5668341419614
 20
778.8897734387266
 30
0.0
 11
1168.1387261149225
 21
779.1975621492657
 31
0.0
  0
LINE
  5
1A7
330
17
100
AcDbEntity
  8
0
100
AcDbLine
 10
1168.1387261149225
 20
779.1975621492657
 30
0.0
 11
1167.6888140856113
 21
779.4724976672192
 31
0.0
  0
LINE
  5
1A8
330
17
100
AcDbEntity
  8
0
100
AcDbLine
 10
1167.6888140856113
 20
779.4724976672192
 30
0.0
 11
1167.2196141445997
 21
779.7130424416451
 31
0.0
  0
LINE
  5
1A9
330
17
100
AcDbEntity
  8
0
100
AcDbLine
 10
1167.2196141445997
 20
779.7130424416451
 30
0.0
 11
1166.7337502482803
 21
779.9178512485936
 31
0.0
  0
LINE
  5
1AA
330
17
100
AcDbEntity
  8
0
100
AcDbLine
 10
1166.7337502482803
 20
779.9178512485936
 30
0.0
 11
1166.2339395446456
 21
780.0857787141366
 31
0.0
  0
LINE
  5
1AB
330
17
100
AcDbEntity
  8
0
100
AcDbLine
 10
1166.2339395446456
 20
780.0857787141366
 30
0.0
 11
1165.7229771778937
 21
780.2158857197687
 31
0.0
  0
LINE
  5
1AC
330
17
100
AcDbEntity
  8
0
100
AcDbLine
 10
1165.7229771778937
 20
780.2158857197687
 30
0.0
 11
1165.203720656847
 21
780.3074446543387
 31
0.0
  0
LINE
  5
1AD
330
17
100
AcDbEntity
  8
0
100
AcDbLine
 10
1165.203720656847
 20
780.3074446543387
 30
0.0
 11
1164.6790738745972
 21
780.3599434831438
 31
0.0
  0
LINE
  5
1AE
330
17
100
AcDbEntity
  8
0
100
AcDbLine
 10
1164.6790738745972
 20
780.3599434831438
 30
0.0
 11
1164.1519708687695
 21
780.3730886114394
 31
0.0
  0
LINE
  5
1AF
330
17
100
AcDbEntity
  8
0
100
AcDbLine
 10
1164.1519708687695
 20
780.3730886114394
 30
0.0
 11
1163.6253594131847
 21
780.3468065263339
 31
0.0
  0
LINE
  5
1B0
330
17
100
AcDbEntity
  8
0
100
AcDbLine
 10
1163.6253594131847
 20
780.3468065263339
 30
0.0
 11
1163.102184532716
 21
780.2812442079102
 31
0.0
  0
LINE
  5
1B1
330
17
100
AcDbEntity
  8
0
100
AcDbLine
 10
1163.102184532716
 20
780.2812442079102
 30
0.0
 11
1162.5853720335147
 21
780.1767683072458
 31
0.0
  0
LINE
  5
1B2
330
17
100
AcDbEntity
  8
0
100
AcDbLine
 10
1162.5853720335147
 20
780.1767683072458
 30
0.0
 11
1162.0778121407136
 21
780.0339630959579
 31
0.0
  0
LINE
  5
1B3
330
17
100
AcDbEntity
  8
0
100
AcDbLine
 10
1162.0778121407136
 20
780.0339630959579
 30
0.0
 11
1161.58234333512
 21
779.8536271987143
 31
0.0
  0
LINE
  5
1B4
330
17
100
AcDbEntity
  8
0
100
AcDbLine
 10
1161.58234333512
 20
779.8536271987143
 30
0.0
 11
1161.1017364792767
 21
779.6367691270037
 31
0.0
  0
LINE
  5
1B5
330
17
100
AcDbEntity
  8
0
100
AcDbLine
 10
1161.1017364792767
 20
779.6367691270037
 30
0.0
 11
1160.6386793216705
 21
779.3846016391288
 31
0.0
  0
LINE
  5
1B6
330
17
100
AcDbEntity
  8
0
100
AcDbLine
 10
1160.6386793216705
 20
779.3846016391288
 30
0.0
 11
1160.1957614657633
 21
779.0985349579706
 31
0.0
  0
LINE
  5
1B7
330
17
100
AcDbEntity
  8
0
100
AcDbLine
 10
1160.1957614657633
 20
779.0985349579706
 30
0.0
 11
1159.775459887867
 21
778.7801688844513
 31
0.0
  0
LINE
  5
1B8
330
17
100
AcDbEntity
  8
0
100
AcDbLine
 10
1159.775459887867
 20
778.7801688844513
 30
0.0
 11
1159.380125084898
 21
778.4312838507919
 31
0.0
  0
LINE
  5
1B9
330
17
100
AcDbEntity
  8
0
100
AcDbLine
 10
1159.380125084898
 20
778.4312838507919
 30
0.0
 11
1159.0119679294344
 21
778.0538309636235
 31
0.0
  0
LINE
  5
1BA
330
17
100
AcDbEntity
  8
0
100
AcDbLine
 10
1159.0119679294344
 20
778.0538309636235
 30
0.0
 11
1158.6730473056296
 21
777.6499210926004
 31
0.0
  0
LINE
  5
1BB
330
17
100
AcDbEntity
  8
0
100
AcDbLine
 10
1158.6730473056296
 20
777.6499210926004
 30
0.0
 11
1158.36525859509
 21
777.2218130655604
 31
0.0
  0
LINE
  5
1BC
330
17
100
AcDbEntity
  8
0
100
AcDbLine
 10
1158.36525859509
 20
777.2218130655604
 30
0.0
 11
1158.090323077138
 21
776.7719010362507
 31
0.0
  0
LINE
  5
1BD
330
17
100
AcDbEntity
  8
0
100
AcDbLine
 10
1158.090323077138
 20
776.7719010362507
 30
0.0
 11
1157.8497783027096
 21
776.3027010952375
 31
0.0
  0
LINE
  5
1BE
330
17
100
AcDbEntity
  8
0
100
AcDbLine
 10
1157.8497783027096
 20
776.3027010952375
 30
0.0
 11
1157.6449694957623
 21
775.8168371989182
 31
0.0
  0
LINE
  5
1BF
330
17
100
AcDbEntity
  8
0
100
AcDbLine
 10
1157.6449694957623
 20
775.8168371989182
 30
0.0
 11
1157.4770420302207
 21
775.3170264952835
 31
0.0
  0
LINE
  5
1C0
330
17
100
AcDbEntity
  8
0
100
AcDbLine
 10
1157.4770420302207
 20
775.3170264952835
 30
0.0
 11
1157.346935024588
 21
774.8060641285335
 31
0.0
  0
LINE
  5
1C1
330
17
100
AcDbEntity
  8
0
100
AcDbLine
 10
1157.346935024588
 20
774.8060641285335
 30
0.0
 11
1157.255376090019
 21
774.2868076074849
 31
0.0
  0
LINE
  5
1C2
330
17
100
AcDbEntity
  8
0
100
AcDbLine
 10
1157.255376090019
 20
774.2868076074849
 30
0.0
 11
1157.2028772612134
 21
773.762160825235
 31
0.0
  0
LINE
  5
1C3
330
17
100
AcDbEntity
  8
0
100
AcDbLine
 10
1157.2028772612134
 20
773.762160825235
 30
0.0
 11
1157.1897321329182
 21
773.2350578194073
 31
0.0
  0
LINE
  5
1C4
330
17
100
AcDbEntity
  8
0
100
AcDbLine
 10
1157.1897321329182
 20
773.2350578194073
 30
0.0
 11
1157.216014218022
 21
772.7084463638226
 31
0.0
  0
LINE
  5
1C5
330
17
100
AcDbEntity
  8
0
100
AcDbLine
 10
1157.216014218022
 20
772.7084463638226
 30
0.0
 11
1157.2815765364471
 21
772.1852714833551
 31
0.0
  0
LINE
  5
1C6
330
17
100
AcDbEntity
  8
0
100
AcDbLine
 10
1157.2815765364471
 20
772.1852714833551
 30
0.0
 11
1157.3860524371114
 21
771.6684589841525
 31
0.0
  0
LINE
  5
1C7
330
17
100
AcDbEntity
  8
0
100
AcDbLine
 10
1157.3860524371114
 20
771.6684589841525
 30
0.0
 11
1157.5288576483997
 21
771.1608990913514
 31
0.0
  0
LINE
  5
1C8
330
17
100
AcDbEntity
  8
0
100
AcDbLine
 10
1157.5288576483997
 20
771.1608990913514
 30
0.0
 11
1157.7091935456426
 21
770.665430285759
 31
0.0
  0
LINE
  5
1C9
330
17
100
AcDbEntity
  8
0
100
AcDbLine
 10
1157.7091935456426
 20
770.665430285759
 30
0.0
 11
1157.9260516173536
 21
770.1848234299146
 31
0.0
  0
LINE
  5
1CA
330
17
100
AcDbEntity
  8
0
100
AcDbLine
 10
1157.9260516173536
 20
770.1848234299146
 30
0.0
 11
1158.178219105227
 21
769.7217662723098
 31
0.0
  0
LINE
  5
1CB
330
17
100
AcDbEntity
  8
0
100
AcDbLine
 10
1158.178219105227
 20
769.7217662723098
 30
0.0
 11
1158.4642857863842
 21
769.2788484164009
 31
0.0
  0
LINE
  5
1CC
330
17
100
AcDbEntity
  8
0
100
AcDbLine
 10
1158.4642857863842
 20
769.2788484164009
 30
0.0
 11
1158.782651859906
 21
768.8585468385065
 31
0.0
  0
LINE
  5
1CD
330
17
100
AcDbEntity
  8
0
100
AcDbLine
 10
1158.782651859906
 20
768.8585468385065
 30
0.0
 11
1159.1315368935634
 21
768.4632120355359
 31
0.0
  0
LINE
  5
1CE
330
17
100
AcDbEntity
  8
0
100
AcDbLine
 10
1159.1315368935634
 20
768.4632120355359
 30
0.0
 11
1159.5089897807325
 21
768.0950548800728
 31
0.0
  0
LINE
  5
1CF
330
17
100
AcDbEntity
  8
0
100
AcDbLine
 10
1159.5089897807325
 20
768.0950548800728
 30
0.0
 11
1159.912899651756
 21
767.7561342562675
 31
0.0
  0
LINE
  5
1D0
330
17
100
AcDbEntity
  8
0
100
AcDbLine
 10
1159.912899651756
 20
767.7561342562675
 30
0.0
 11
1160.3410076787957
 21
767.448345545728
 31
0.0
  0
LINE
  5
1D1
330
17
100
AcDbEntity
  8
0
100
AcDbLine
 10
1160.3410076787957
 20
767.448345545728
 30
0.0
 11
1160.7909197081055
 21
767.1734100277756
 31
0.0
  0
LINE
  5
1D2
330
17
100
AcDbEntity
  8
0
100
AcDbLine
 10
1160.7909197081055
 20
767.1734100277756
 30
0.0
 11
1161.2601196491185
 21
766.9328652533487
 31
0.0
  0
LINE
  5
1D3
330
17
100
AcDbEntity
  8
0
100
AcDbLine
 10
1161.2601196491185
 20
766.9328652533487
 30
0.0
 11
1161.7459835454376
 21
766.7280564464003
 31
0.0
  0
LINE
  5
1D4
330
17
100
AcDbEntity
  8
0
100
AcDbLine
 10
1161.7459835454376
 20
766.7280564464003
 30
0.0
 11
1162.2457942490726
 21
766.5601289808585
 31
0.0
  0
LINE
  5
1D5
330
17
100
AcDbEntity
  8
0
100
AcDbLine
 10
1162.2457942490726
 20
766.5601289808585
 30
0.0
 11
1162.7567566158225
 21
766.4300219752263
 31
0.0
  0
LINE
  5
1D6
330
17
100
AcDbEntity
  8
0
100
AcDbLine
 10
1162.7567566158225
 20
766.4300219752263
 30
0.0
 11
1163.2760131368711
 21
766.3384630406557
 31
0.0
  0
LINE
  5
1D7
330
17
100
AcDbEntity
  8
0
100
AcDbLine
 10
1163.2760131368711
 20
766.3384630406557
 30
0.0
 11
1163.800659919121
 21
766.2859642118511
 31
0.0
  0
LINE
  5
1D8
330
17
100
AcDbEntity
  8
0
100
AcDbLine
 10
1163.800659919121
 20
766.2859642118511
 30
0.0
 11
1164.3277629249487
 21
766.2728190835546
 31
0.0
  0
LINE
  5
1D9
330
17
100
AcDbEntity
  8
0
100
AcDbLine
 10
1164.3277629249487
 20
766.2728190835546
 30
0.0
 11
1164.8543743805333
 21
766.2991011686613
 31
0.0
  0
LINE
  5
1DA
330
17
100
AcDbEntity
  8
0
100
AcDbLine
 10
1164.8543743805333
 20
766.2991011686613
 30
0.0
 11
1165.3775492610023
 21
766.3646634870838
 31
0.0
  0
LINE
  5
1DB
330
17
100
AcDbEntity
  8
0
100
AcDbLine
 10
1165.3775492610023
 20
766.3646634870838
 30
0.0
 11
1165.8943617602035
 21
766.4691393877491
 31
0.0
  0
LINE
  5
1DC
330
17
100
AcDbEntity
  8
0
100
AcDbLine
 10
1165.8943617602035
 20
766.4691393877491
 30
0.0
 11
1166.4019216530046
 21
766.6119445990365
 31
0.0
  0
LINE
  5
1DD
330
17
100
AcDbEntity
  8
0
100
AcDbLine
 10
1166.4019216530046
 20
766.6119445990365
 30
0.0
 11
1166.8973904585962
 21
766.7922804962807
 31
0.0
  0
LINE
  5
1DE
330
17
100
AcDbEntity
  8
0
100
AcDbLine
 10
1166.8973904585962
 20
766.7922804962807
 30
0.0
 11
1167.3779973144415
 21
767.0091385679914
 31
0.0
  0
LINE
  5
1DF
330
17
100
AcDbEntity
  8
0
100
AcDbLine
 10
1167.3779973144415
 20
767.0091385679914
 30
0.0
 11
1167.8410544720475
 21
767.261306055865
 31
0.0
  0
LINE
  5
1E0
330
17
100
AcDbEntity
  8
0
100
AcDbLine
 10
1167.8410544720475
 20
767.261306055865
 30
0.0
 11
1168.2839723279549
 21
767.5473727370232
 31
0.0
  0
LINE
  5
1E1
330
17
100
AcDbEntity
  8
0
100
AcDbLine
 10
1168.2839723279549
 20
767.5473727370232
 30
0.0
 11
1168.7042739058497
 21
767.8657388105435
 31
0.0
  0
LINE
  5
1E2
330
17
100
AcDbEntity
  8
0
100
AcDbLine
 10
1168.7042739058497
 20
767.8657388105435
 30
0.0
 11
1169.0996087088201
 21
768.2146238442017
 31
0.0
  0
LINE
  5
1E3
330
17
100
AcDbEntity
  8
0
100
AcDbLine
 10
1169.0996087088201
 20
768.2146238442017
 30
0.0
 11
1169.4677658642831
 21
768.5920767313706
 31
0.0
  0
LINE
  5
1E4
330
17
100
AcDbEntity
  8
0
100
AcDbLine
 10
1169.4677658642831
 20
768.5920767313706
 30
0.0
 11
1169.8066864880884
 21
768.9959866023947
 31
0.0
  0
LINE
  5
1E5
330
17
100
AcDbEntity
  8
0
100
AcDbLine
 10
1169.8066864880884
 20
768.9959866023947
 30
0.0
 11
1170.1144751986278
 21
769.4240946294337
 31
0.0
  0
LINE
  5
1E6
330
17
100
AcDbEntity
  8
0
100
AcDbLine
 10
1170.1144751986278
 20
769.4240946294337
 30
0.0
 11
1170.3894107165802
 21
769.8740066587445
 31
0.0
  0
LINE
  5
1E7
330
17
100
AcDbEntity
  8
0
100
AcDbLine
 10
1170.3894107165802
 20
769.8740066587445
 30
0.0
 11
1170.629955491007
 21
770.3432065997563
 31
0.0
  0
LINE
  5
1E8
330
17
100
AcDbEntity
  8
0
100
AcDbLine
 10
1170.629955491007
 20
770.3432065997563
 30
0.0
 11
1170.8347642979552
 21
770.829070496077
 31
0.0
  0
LINE
  5
1E9
330
17
100
AcDbEntity
  8
0
100
AcDbLine
 10
1170.8347642979552
 20
770.829070496077
 30
0.0
 11
1171.0026917634982
 21
771.3288811997102
 31
0.0
  0
LINE
  5
1EA
330
17
100
AcDbEntity
  8
0
100
AcDbLine
 10
1171.0026917634982
 20
771.3288811997102
 30
0.0
 11
1171.132798769131
 21
771.8398435664616
 31
0.0
  0
LINE
  5
1EB
330
17
100
AcDbEntity
  8
0
100
AcDbLine
 10
1171.132798769131
 20
771.8398435664616
 30
0.0
 11
1171.2243577037002
 21
772.359100087509
 31
0.0
  0
LINE
  5
1EC
330
17
100
AcDbEntity
  8
0
100
AcDbLine
 10
1171.2243577037002
 20
772.359100087509
 30
0.0
 11
1171.276856532505
 21
772.8837468697589
 31
0.0
  0
LINE
  5
1ED
330
17
100
AcDbEntity
  8
0
100
AcDbLine
 10
1171.276856532505
 20
772.8837468697589
 30
0.0
 11
1171.2900016607998
 21
773.4108498755877
 31
0.0
  0
LINE
  5
1EE
330
17
100
AcDbEntity
  8
0
100
AcDbLine
 10
1171.2900016607998
 20
773.4108498755877
 30
0.0
 11
1171.2637195756947
 21
773.9374613311714
 31
0.0
  0
ENDSEC
  0
SECTION
  2
OBJECTS
  0
DICTIONARY
  5
A
330
0
100
AcDbDictionary
281
1
  3
ACAD_COLOR
350
B
  3
ACAD_GROUP
350
C
  3
ACAD_LAYOUT
350
D
  3
ACAD_MATERIAL
350
E
  3
ACAD_MLEADERSTYLE
350
F
  3
ACAD_MLINESTYLE
350
10
  3
ACAD_PLOTSETTINGS
350
11
  3
ACAD_PLOTSTYLENAME
350
12
  3
ACAD_SCALELIST
350
14
  3
ACAD_TABLESTYLE
350
15
  3
ACAD_VISUALSTYLE
350
16
  3
EZDXF_META
350
2D
  0
DICTIONARY
  5
B
330
A
100
AcDbDictionary
281
1
  0
DICTIONARY
  5
C
330
A
100
AcDbDictionary
281
1
  0
DICTIONARY
  5
D
330
A
100
AcDbDictionary
281
1
  3
Model
350
1A
  3
Layout1
350
1E
  0
DICTIONARY
  5
E
330
A
100
AcDbDictionary
281
1
  3
ByBlock
350
1F
  3
ByLayer
350
20
  3
Global
350
21
  0
DICTIONARY
  5
F
330
A
100
AcDbDictionary
281
1
  3
Standard
350
2C
  0
DICTIONARY
  5
10
330
A
100
AcDbDictionary
281
1
  3
Standard
350
22
  0
DICTIONARY
  5
11
330
A
100
AcDbDictionary
281
1
  0
ACDBDICTIONARYWDFLT
  5
12
330
A
100
AcDbDictionary
281
1
  3
Normal
350
13
100
AcDbDictionaryWithDefault
340
13
  0
ACDBPLACEHOLDER
  5
13
330
12
  0
DICTIONARY
  5
14
330
A
100
AcDbDictionary
281
1
  0
DICTIONARY
  5
15
330
A
100
AcDbDictionary
281
1
  0
DICTIONARY
  5
16
330
A
100
AcDbDictionary
281
1
  0
LAYOUT
  5
1A
330
D
100
AcDbPlotSettings
  1

  4
A3
  6

 40
7.5
 41
20.0
 42
7.5
 43
20.0
 44
420.0
 45
297.0
 46
0.0
 47
0.0
 48
0.0
 49
0.0
140
0.0
141
0.0
142
1.0
143
1.0
 70
1024
 72
1
 73
0
 74
5
  7

 75
16
 76
0
 77
2
 78
300
147
1.0
148
0.0
149
0.0
100
AcDbLayout
  1
Model
 70
1
 71
0
 10
0.0
 20
0.0
 11
420.0
 21
297.0
 12
0.0
 22
0.0
 32
0.0
 14
1e+20
 24
1e+20
 34
1e+20
 15
-1e+20
 25
-1e+20
 35
-1e+20
146
0.0
 13
0.0
 23
0.0
 33
0.0
 16
1.0
 26
0.0
 36
0.0
 17
0.0
 27
1.0
 37
0.0
 76
1
330
17
  0
LAYOUT
  5
1E
330
D
100
AcDbPlotSettings
  1

  4
A3
  6

 40
7.5
 41
20.0
 42
7.5
 43
20.0
 44
420.0
 45
297.0
 46
0.0
 47
0.0
 48
0.0
 49
0.0
140
0.0
141
0.0
142
1.0
143
1.0
 70
0
 72
1
 73
0
 74
5
  7

 75
16
 76
0
 77
2
 78
300
147
1.0
148
0.0
149
0.0
100
AcDbLayout
  1
Layout1
 70
1
 71
1
 10
0.0
 20
0.0
 11
420.0
 21
297.0
 12
0.0
 22
0.0
 32
0.0
 14
1e+20
 24
1e+20
 34
1e+20
 15
-1e+20
 25
-1e+20
 35
-1e+20
146
0.0
 13
0.0
 23
0.0
 33
0.0
 16
1.0
 26
0.0
 36
0.0
 17
0.0
 27
1.0
 37
0.0
 76
1
330
1B
  0
MATERIAL
  5
1F
102
{ACAD_REACTORS
330
E
102
}
330
E
100
AcDbMaterial
  1
ByBlock
  2

 70
0
 40
1.0
 71
1
 41
1.0
 91
-1023410177
 42
1.0
 72
1
  3

 73
1
 74
1
 75
1
 44
0.5
 73
0
 45
1.0
 46
1.0
 77
1
  4

 78
1
 79
1
170
1
 48
1.0
171
1
  6

172
1
173
1
174
1
140
1.0
141
1.0
175
1
  7

176
1
177
1
178
1
143
1.0
179
1
  8

270
1
271
1
272
1
145
1.0
146
1.0
273
1
  9

274
1
275
1
276
1
 42
1.0
 72
1
  3

 73
1
 74
1
 75
1
 94
63
  0
MATERIAL
  5
20
102
{ACAD_REACTORS
330
E
102
}
330
E
100
AcDbMaterial
  1
ByLayer
  2

 70
0
 40
1.0
 71
1
 41
1.0
 91
-1023410177
 42
1.0
 72
1
  3

 73
1
 74
1
 75
1
 44
0.5
 73
0
 45
1.0
 46
1.0
 77
1
  4

 78
1
 79
1
170
1
 48
1.0
171
1
  6

172
1
173
1
174
1
140
1.0
141
1.0
175
1
  7

176
1
177
1
178
1
143
1.0
179
1
  8

270
1
271
1
272
1
145
1.0
146
1.0
273
1
  9

274
1
275
1
276
1
 42
1.0
 72
1
  3

 73
1
 74
1
 75
1
 94
63
  0
MATERIAL
  5
21
102
{ACAD_REACTORS
330
E
102
}
330
E
100
AcDbMaterial
  1
Global
  2

 70
0
 40
1.0
 71
1
 41
1.0
 91
-1023410177
 42
1.0
 72
1
  3

 73
1
 74
1
 75
1
 44
0.5
 73
0
 45
1.0
 46
1.0
 77
1
  4

 78
1
 79
1
170
1
 48
1.0
171
1
  6

172
1
173
1
174
1
140
1.0
141
1.0
175
1
  7

176
1
177
1
178
1
143
1.0
179
1
  8

270
1
271
1
272
1
145
1.0
146
1.0
273
1
  9

274
1
275
1
276
1
 42
1.0
 72
1
  3

 73
1
 74
1
 75
1
 94
63
  0
MLINESTYLE
  5
22
102
{ACAD_REACTORS
330
10
102
}
330
10
100
AcDbMlineStyle
  2
Standard
 70
0
  3

 62
256
 51
90.0
 52
90.0
 71
2
 49
0.5
 62
256
  6
BYLAYER
 49
-0.5
 62
256
  6
BYLAYER
  0
MLEADERSTYLE
  5
2C
102
{ACAD_REACTORS
330
F
102
}
330
F
100
AcDbMLeaderStyle
179
2
170
2
171
1
172
0
 90
2
 40
0.0
 41
0.0
173
1
 91
-1056964608
 92
-2
290
1
 42
2.0
291
1
 43
8.0
  3
Standard
 44
4.0
300

342
29
174
1
175
1
176
0
178
1
 93
-1056964608
 45
4.0
292
0
297
0
 46
4.0
 94
-1056964608
 47
1.0
 49
1.0
140
1.0
294
1
141
0.0
177
0
142
1.0
295
0
296
0
143
3.75
271
0
272
9
273
9
  0
DICTIONARY
  5
2D
330
A
100
AcDbDictionary
280
1
281
1
  3
CREATED_BY_EZDXF
350
2E
  3
WRITTEN_BY_EZDXF
350
1F1
  0
DICTIONARYVAR
  5
2E
330
2D
100
DictionaryVariables
280
0
  1
1.4.3 @ 2026-04-16T08:38:02.306233+00:00
  0
DICTIONARYVAR
  5
1F1
330
2D
100
DictionaryVariables
280
0
  1
1.4.3 @ 2026-04-16T08:38:02.326762+00:00
  0
ENDSEC
  0
EOF
