  0
SECTION
  2
HEADER
  9
$ACADVER
  1
AC1024
  9
$ACADMAINTVER
 70
6
  9
$DWGCODEPAGE
  3
ANSI_1252
  9
$LASTSAVEDBY
  1
ezdxf
  9
$INSBASE
 10
0.0
 20
0.0
 30
0.0
  9
$EXTMIN
 10
1e+20
 20
1e+20
 30
1e+20
  9
$EXTMAX
 10
-1e+20
 20
-1e+20
 30
-1e+20
  9
$LIMMIN
 10
0.0
 20
0.0
  9
$LIMMAX
 10
420.0
 20
297.0
  9
$ORTHOMODE
 70
0
  9
$REGENMODE
 70
1
  9
$FILLMODE
 70
1
  9
$QTEXTMODE
 70
0
  9
$MIRRTEXT
 70
1
  9
$LTSCALE
 40
1.0
  9
$ATTMODE
 70
1
  9
$TEXTSIZE
 40
2.5
  9
$TRACEWID
 40
1.0
  9
$TEXTSTYLE
  7
Standard
  9
$CLAYER
  8
0
  9
$CELTYPE
  6
ByLayer
  9
$CECOLOR
 62
256
  9
$CELTSCALE
 40
1.0
  9
$DISPSILH
 70
0
  9
$DIMSCALE
 40
1.0
  9
$DIMASZ
 40
2.5
  9
$DIMEXO
 40
0.625
  9
$DIMDLI
 40
3.75
  9
$DIMRND
 40
0.0
  9
$DIMDLE
 40
0.0
  9
$DIMEXE
 40
1.25
  9
$DIMTP
 40
0.0
  9
$DIMTM
 40
0.0
  9
$DIMTXT
 40
2.5
  9
$DIMCEN
 40
2.5
  9
$DIMTSZ
 40
0.0
  9
$DIMTOL
 70
0
  9
$DIMLIM
 70
0
  9
$DIMTIH
 70
0
  9
$DIMTOH
 70
0
  9
$DIMSE1
 70
0
  9
$DIMSE2
 70
0
  9
$DIMTAD
 70
1
  9
$DIMZIN
 70
8
  9
$DIMBLK
  1

  9
$DIMASO
 70
1
  9
$DIMSHO
 70
1
  9
$DIMPOST
  1

  9
$DIMAPOST
  1

  9
$DIMALT
 70
0
  9
$DIMALTD
 70
3
  9
$DIMALTF
 40
0.03937007874
  9
$DIMLFAC
 40
1.0
  9
$DIMTOFL
 70
1
  9
$DIMTVP
 40
0.0
  9
$DIMTIX
 70
0
  9
$DIMSOXD
 70
0
  9
$DIMSAH
 70
0
  9
$DIMBLK1
  1

  9
$DIMBLK2
  1

  9
$DIMSTYLE
  2
ISO-25
  9
$DIMCLRD
 70
0
  9
$DIMCLRE
 70
0
  9
$DIMCLRT
 70
0
  9
$DIMTFAC
 40
1.0
  9
$DIMGAP
 40
0.625
  9
$DIMJUST
 70
0
  9
$DIMSD1
 70
0
  9
$DIMSD2
 70
0
  9
$DIMTOLJ
 70
0
  9
$DIMTZIN
 70
8
  9
$DIMALTZ
 70
0
  9
$DIMALTTZ
 70
0
  9
$DIMUPT
 70
0
  9
$DIMDEC
 70
2
  9
$DIMTDEC
 70
2
  9
$DIMALTU
 70
2
  9
$DIMALTTD
 70
3
  9
$DIMTXSTY
  7
Standard
  9
$DIMAUNIT
 70
0
  9
$DIMADEC
 70
0
  9
$DIMALTRND
 40
0.0
  9
$DIMAZIN
 70
0
  9
$DIMDSEP
 70
44
  9
$DIMATFIT
 70
3
  9
$DIMFRAC
 70
0
  9
$DIMLDRBLK
  1

  9
$DIMLUNIT
 70
2
  9
$DIMLWD
 70
-2
  9
$DIMLWE
 70
-2
  9
$DIMTMOVE
 70
0
  9
$DIMFXL
 40
1.0
  9
$DIMFXLON
 70
0
  9
$DIMJOGANG
 40
0.785398163397
  9
$DIMTFILL
 70
0
  9
$DIMTFILLCLR
 70
0
  9
$DIMARCSYM
 70
0
  9
$DIMLTYPE
  6

  9
$DIMLTEX1
  6

  9
$DIMLTEX2
  6

  9
$DIMTXTDIRECTION
 70
0
  9
$LUNITS
 70
2
  9
$LUPREC
 70
4
  9
$SKETCHINC
 40
1.0
  9
$FILLETRAD
 40
10.0
  9
$AUNITS
 70
0
  9
$AUPREC
 70
2
  9
$MENU
  1
.
  9
$ELEVATION
 40
0.0
  9
$PELEVATION
 40
0.0
  9
$THICKNESS
 40
0.0
  9
$LIMCHECK
 70
0
  9
$CHAMFERA
 40
0.0
  9
$CHAMFERB
 40
0.0
  9
$CHAMFERC
 40
0.0
  9
$CHAMFERD
 40
0.0
  9
$SKPOLY
 70
0
  9
$TDCREATE
 40
2461147.48474537
  9
$TDUCREATE
 40
2458532.153996898
  9
$TDUPDATE
 40
2461147.48474537
  9
$TDUUPDATE
 40
2458532.1544311
  9
$TDINDWG
 40
0.0
  9
$TDUSRTIMER
 40
0.0
  9
$USRTIMER
 70
1
  9
$ANGBASE
 50
0.0
  9
$ANGDIR
 70
0
  9
$PDMODE
 70
0
  9
$PDSIZE
 40
0.0
  9
$PLINEWID
 40
0.0
  9
$SPLFRAME
 70
0
  9
$SPLINETYPE
 70
6
  9
$SPLINESEGS
 70
8
  9
$HANDSEED
  5
33E
  9
$SURFTAB1
 70
6
  9
$SURFTAB2
 70
6
  9
$SURFTYPE
 70
6
  9
$SURFU
 70
6
  9
$SURFV
 70
6
  9
$UCSBASE
  2

  9
$UCSNAME
  2

  9
$UCSORG
 10
0.0
 20
0.0
 30
0.0
  9
$UCSXDIR
 10
1.0
 20
0.0
 30
0.0
  9
$UCSYDIR
 10
0.0
 20
1.0
 30
0.0
  9
$UCSORTHOREF
  2

  9
$UCSORTHOVIEW
 70
0
  9
$UCSORGTOP
 10
0.0
 20
0.0
 30
0.0
  9
$UCSORGBOTTOM
 10
0.0
 20
0.0
 30
0.0
  9
$UCSORGLEFT
 10
0.0
 20
0.0
 30
0.0
  9
$UCSORGRIGHT
 10
0.0
 20
0.0
 30
0.0
  9
$UCSORGFRONT
 10
0.0
 20
0.0
 30
0.0
  9
$UCSORGBACK
 10
0.0
 20
0.0
 30
0.0
  9
$PUCSBASE
  2

  9
$PUCSNAME
  2

  9
$PUCSORG
 10
0.0
 20
0.0
 30
0.0
  9
$PUCSXDIR
 10
1.0
 20
0.0
 30
0.0
  9
$PUCSYDIR
 10
0.0
 20
1.0
 30
0.0
  9
$PUCSORTHOREF
  2

  9
$PUCSORTHOVIEW
 70
0
  9
$PUCSORGTOP
 10
0.0
 20
0.0
 30
0.0
  9
$PUCSORGBOTTOM
 10
0.0
 20
0.0
 30
0.0
  9
$PUCSORGLEFT
 10
0.0
 20
0.0
 30
0.0
  9
$PUCSORGRIGHT
 10
0.0
 20
0.0
 30
0.0
  9
$PUCSORGFRONT
 10
0.0
 20
0.0
 30
0.0
  9
$PUCSORGBACK
 10
0.0
 20
0.0
 30
0.0
  9
$USERI1
 70
0
  9
$USERI2
 70
0
  9
$USERI3
 70
0
  9
$USERI4
 70
0
  9
$USERI5
 70
0
  9
$USERR1
 40
0.0
  9
$USERR2
 40
0.0
  9
$USERR3
 40
0.0
  9
$USERR4
 40
0.0
  9
$USERR5
 40
0.0
  9
$WORLDVIEW
 70
1
  9
$SHADEDGE
 70
3
  9
$SHADEDIF
 70
70
  9
$TILEMODE
 70
1
  9
$MAXACTVP
 70
64
  9
$PINSBASE
 10
0.0
 20
0.0
 30
0.0
  9
$PLIMCHECK
 70
0
  9
$PEXTMIN
 10
1e+20
 20
1e+20
 30
1e+20
  9
$PEXTMAX
 10
-1e+20
 20
-1e+20
 30
-1e+20
  9
$PLIMMIN
 10
0.0
 20
0.0
  9
$PLIMMAX
 10
420.0
 20
297.0
  9
$UNITMODE
 70
0
  9
$VISRETAIN
 70
1
  9
$PLINEGEN
 70
0
  9
$PSLTSCALE
 70
1
  9
$TREEDEPTH
 70
3020
  9
$CMLSTYLE
  2
Standard
  9
$CMLJUST
 70
0
  9
$CMLSCALE
 40
20.0
  9
$PROXYGRAPHICS
 70
1
  9
$MEASUREMENT
 70
1
  9
$CELWEIGHT
370
-1
  9
$ENDCAPS
280
0
  9
$JOINSTYLE
280
0
  9
$LWDISPLAY
290
0
  9
$INSUNITS
 70
0
  9
$HYPERLINKBASE
  1

  9
$STYLESHEET
  1

  9
$XEDIT
290
1
  9
$CEPSNTYPE
380
0
  9
$PSTYLEMODE
290
1
  9
$FINGERPRINTGUID
  2
{2DE1C111-80CE-4D87-8211-A02EC404F82A}
  9
$VERSIONGUID
  2
{3C9D3920-CF98-4C09-9F93-BF4361675E4D}
  9
$EXTNAMES
290
1
  9
$PSVPSCALE
 40
0.0
  9
$OLESTARTUP
290
0
  9
$SORTENTS
280
127
  9
$INDEXCTL
280
0
  9
$HIDETEXT
280
1
  9
$XCLIPFRAME
280
1
  9
$HALOGAP
280
0
  9
$OBSCOLOR
 70
257
  9
$OBSLTYPE
280
0
  9
$INTERSECTIONDISPLAY
280
0
  9
$INTERSECTIONCOLOR
 70
257
  9
$DIMASSOC
280
2
  9
$PROJECTNAME
  1

  9
$CAMERADISPLAY
290
0
  9
$LENSLENGTH
 40
50.0
  9
$CAMERAHEIGHT
 40
0.0
  9
$STEPSPERSEC
 40
24.0
  9
$STEPSIZE
 40
100.0
  9
$3DDWFPREC
 40
2.0
  9
$PSOLWIDTH
 40
0.005
  9
$PSOLHEIGHT
 40
0.08
  9
$LOFTANG1
 40
1.570796326795
  9
$LOFTANG2
 40
1.570796326795
  9
$LOFTMAG1
 40
0.0
  9
$LOFTMAG2
 40
0.0
  9
$LOFTPARAM
 70
7
  9
$LOFTNORMALS
280
1
  9
$LATITUDE
 40
37.795
  9
$LONGITUDE
 40
-122.394
  9
$NORTHDIRECTION
 40
0.0
  9
$TIMEZONE
 70
-8000
  9
$LIGHTGLYPHDISPLAY
280
1
  9
$TILEMODELIGHTSYNCH
280
1
  9
$CMATERIAL
347
20
  9
$SOLIDHIST
280
0
  9
$SHOWHIST
280
1
  9
$DWFFRAME
280
2
  9
$DGNFRAME
280
2
  9
$REALWORLDSCALE
290
1
  9
$INTERFERECOLOR
 62
256
  9
$CSHADOW
280
0
  9
$SHADOWPLANELOCATION
 40
0.0
  0
ENDSEC
  0
SECTION
  2
CLASSES
  0
CLASS
  1
ACDBDICTIONARYWDFLT
  2
AcDbDictionaryWithDefault
  3
ObjectDBX Classes
 90
0
 91
0
280
0
281
0
  0
CLASS
  1
SUN
  2
AcDbSun
  3
SCENEOE
 90
1153
 91
0
280
0
281
0
  0
CLASS
  1
VISUALSTYLE
  2
AcDbVisualStyle
  3
ObjectDBX Classes
 90
4095
 91
0
280
0
281
0
  0
CLASS
  1
MATERIAL
  2
AcDbMaterial
  3
ObjectDBX Classes
 90
1153
 91
0
280
0
281
0
  0
CLASS
  1
SCALE
  2
AcDbScale
  3
ObjectDBX Classes
 90
1153
 91
0
280
0
281
0
  0
CLASS
  1
TABLESTYLE
  2
AcDbTableStyle
  3
ObjectDBX Classes
 90
4095
 91
0
280
0
281
0
  0
CLASS
  1
MLEADERSTYLE
  2
AcDbMLeaderStyle
  3
ACDB_MLEADERSTYLE_CLASS
 90
4095
 91
0
280
0
281
0
  0
CLASS
  1
DICTIONARYVAR
  2
AcDbDictionaryVar
  3
ObjectDBX Classes
 90
0
 91
0
280
0
281
0
  0
CLASS
  1
CELLSTYLEMAP
  2
AcDbCellStyleMap
  3
ObjectDBX Classes
 90
1152
 91
0
280
0
281
0
  0
CLASS
  1
MENTALRAYRENDERSETTINGS
  2
AcDbMentalRayRenderSettings
  3
SCENEOE
 90
1024
 91
0
280
0
281
0
  0
CLASS
  1
ACDBDETAILVIEWSTYLE
  2
AcDbDetailViewStyle
  3
ObjectDBX Classes
 90
1025
 91
0
280
0
281
0
  0
CLASS
  1
ACDBSECTIONVIEWSTYLE
  2
AcDbSectionViewStyle
  3
ObjectDBX Classes
 90
1025
 91
0
280
0
281
0
  0
CLASS
  1
RASTERVARIABLES
  2
AcDbRasterVariables
  3
ISM
 90
0
 91
0
280
0
281
0
  0
CLASS
  1
ACDBPLACEHOLDER
  2
AcDbPlaceHolder
  3
ObjectDBX Classes
 90
0
 91
0
280
0
281
0
  0
CLASS
  1
LAYOUT
  2
AcDbLayout
  3
ObjectDBX Classes
 90
0
 91
0
280
0
281
0
  0
ENDSEC
  0
SECTION
  2
TABLES
  0
TABLE
  2
VPORT
  5
8
330
0
100
AcDbSymbolTable
 70
1
  0
VPORT
  5
23
330
8
100
AcDbSymbolTableRecord
100
AcDbViewportTableRecord
  2
*Active
 70
0
 10
0.0
 20
0.0
 11
1.0
 21
1.0
 12
0.0
 22
0.0
 13
0.0
 23
0.0
 14
0.5
 24
0.5
 15
0.5
 25
0.5
 16
0.0
 26
0.0
 36
1.0
 17
0.0
 27
0.0
 37
0.0
 40
1000.0
 41
1.34
 42
50.0
 43
0.0
 44
0.0
 50
0.0
 51
0.0
 71
0
 72
1000
 73
1
 74
3
 75
0
 76
0
 77
0
 78
0
281
0
 65
0
146
0.0
  0
ENDTAB
  0
TABLE
  2
LTYPE
  5
2
330
0
100
AcDbSymbolTable
 70
3
  0
LTYPE
  5
24
330
2
100
AcDbSymbolTableRecord
100
AcDbLinetypeTableRecord
  2
ByBlock
 70
0
  3

 72
65
 73
0
 40
0.0
  0
LTYPE
  5
25
330
2
100
AcDbSymbolTableRecord
100
AcDbLinetypeTableRecord
  2
ByLayer
 70
0
  3

 72
65
 73
0
 40
0.0
  0
LTYPE
  5
26
330
2
100
AcDbSymbolTableRecord
100
AcDbLinetypeTableRecord
  2
Continuous
 70
0
  3

 72
65
 73
0
 40
0.0
  0
ENDTAB
  0
TABLE
  2
LAYER
  5
1
330
0
100
AcDbSymbolTable
 70
2
  0
LAYER
  5
27
330
1
100
AcDbSymbolTableRecord
100
AcDbLayerTableRecord
  2
0
 70
0
 62
7
  6
Continuous
370
-3
390
13
347
21
  0
LAYER
  5
28
330
1
100
AcDbSymbolTableRecord
100
AcDbLayerTableRecord
  2
Defpoints
 70
0
 62
7
  6
Continuous
290
0
370
-3
390
13
347
21
  0
ENDTAB
  0
TABLE
  2
STYLE
  5
5
330
0
100
AcDbSymbolTable
 70
1
  0
STYLE
  5
29
330
5
100
AcDbSymbolTableRecord
100
AcDbTextStyleTableRecord
  2
Standard
 70
0
 40
0.0
 41
1.0
 50
0.0
 71
0
 42
2.5
  3
txt
  4

  0
ENDTAB
  0
TABLE
  2
VIEW
  5
7
330
0
100
AcDbSymbolTable
 70
0
  0
ENDTAB
  0
TABLE
  2
UCS
  5
6
330
0
100
AcDbSymbolTable
 70
0
  0
ENDTAB
  0
TABLE
  2
APPID
  5
3
330
0
100
AcDbSymbolTable
 70
3
  0
APPID
  5
2A
330
3
100
AcDbSymbolTableRecord
100
AcDbRegAppTableRecord
  2
ACAD
 70
0
  0
APPID
  5
33B
330
3
100
AcDbSymbolTableRecord
100
AcDbRegAppTableRecord
  2
HATCHBACKGROUNDCOLOR
 70
0
  0
APPID
  5
33C
330
3
100
AcDbSymbolTableRecord
100
AcDbRegAppTableRecord
  2
EZDXF
 70
0
  0
ENDTAB
  0
TABLE
  2
DIMSTYLE
  5
4
330
0
100
AcDbSymbolTable
 70
1
100
AcDbDimStyleTable
  0
DIMSTYLE
105
2B
330
4
100
AcDbSymbolTableRecord
100
AcDbDimStyleTableRecord
  2
Standard
 70
0
 40
1.0
 41
2.5
 42
0.625
 43
3.75
 44
1.25
 45
0.0
 46
0.0
 47
0.0
 48
0.0
 49
2.5
140
2.5
141
2.5
142
0.0
143
0.03937007874
144
1.0
145
0.0
146
1.0
147
0.625
148
0.0
 69
0
 70
0
 71
0
 72
0
 73
0
 74
0
 75
0
 76
0
 77
1
 78
8
 79
3
170
0
171
3
172
1
173
0
174
0
175
0
176
0
177
0
178
0
179
2
271
2
272
2
273
2
274
3
275
0
276
0
277
2
278
44
279
0
280
0
281
0
282
0
283
0
284
8
285
0
286
0
288
0
289
3
290
0
371
-2
372
-2
  0
ENDTAB
  0
TABLE
  2
BLOCK_RECORD
  5
9
330
0
100
AcDbSymbolTable
 70
2
  0
BLOCK_RECORD
  5
17
330
9
100
AcDbSymbolTableRecord
100
AcDbBlockTableRecord
  2
*Model_Space
340
1A
 70
0
280
1
281
0
  0
BLOCK_RECORD
  5
1B
330
9
100
AcDbSymbolTableRecord
100
AcDbBlockTableRecord
  2
*Paper_Space
340
1E
 70
0
280
1
281
0
  0
ENDTAB
  0
ENDSEC
  0
SECTION
  2
BLOCKS
  0
BLOCK
  5
18
330
17
100
AcDbEntity
  8
0
100
AcDbBlockBegin
  2
*Model_Space
 70
0
 10
0.0
 20
0.0
 30
0.0
  3
*Model_Space
  1

  0
ENDBLK
  5
19
330
17
100
AcDbEntity
  8
0
100
AcDbBlockEnd
  0
BLOCK
  5
1C
330
1B
100
AcDbEntity
  8
0
100
AcDbBlockBegin
  2
*Paper_Space
 70
0
 10
0.0
 20
0.0
 30
0.0
  3
*Paper_Space
  1

  0
ENDBLK
  5
1D
330
1B
100
AcDbEntity
  8
0
100
AcDbBlockEnd
  0
ENDSEC
  0
SECTION
  2
ENTITIES
  0
LINE
  5
2F
330
17
100
AcDbEntity
  8
0
100
AcDbLine
 10
458.2420035234236
 20
2002.4141026535476
 30
0.0
 11
636.7369646706275
 21
-37.79263903834726
 31
0.0
  0
LINE
  5
30
330
17
100
AcDbEntity
  8
0
100
AcDbLine
 10
987.7155635328158
 20
2048.7370367910826
 30
0.0
 11
1166.2105246800197
 21
8.530295099187697
 31
0.0
  0
LINE
  5
31
330
17
100
AcDbEntity
  8
0
100
AcDbLine
 10
1517.1891235422086
 20
2095.059970928617
 30
0.0
 11
1695.6840846894124
 21
54.85322923672243
 31
0.0
  0
LINE
  5
32
330
17
100
AcDbEntity
  8
0
100
AcDbLine
 10
-57.08965927018609
 20
1631.8289858667345
 30
0.0
 11
1983.1170824217088
 21
1810.3239470139383
 31
0.0
  0
LINE
  5
33
330
17
100
AcDbEntity
  8
0
100
AcDbLine
 10
-0.4727397687546748
 20
984.6946347441448
 30
0.0
 11
2039.73400192314
 21
1163.1895958913487
 31
0.0
  0
LINE
  5
34
330
17
100
AcDbEntity
  8
0
100
AcDbLine
 10
56.14417973267682
 20
337.56028362155405
 30
0.0
 11
2096.350921424572
 21
516.0552447687579
 31
0.0
  0
LINE
  5
35
330
17
100
AcDbEntity
  8
0
100
AcDbLine
 10
599.7370346756497
 20
385.11849600275616
 30
0.0
 11
810.3498507682773
 21
403.5447298041314
 31
0.0
  0
LINE
  5
36
330
17
100
AcDbEntity
  8
0
100
AcDbLine
 10
586.8530179857365
 20
369.7639228255042
 30
0.0
 11
811.585129011945
 21
389.4254348705467
 31
0.0
  0
LINE
  5
37
330
17
100
AcDbEntity
  8
0
100
AcDbLine
 10
867.4697413039444
 20
1322.6504523090039
 30
0.0
 11
916.3661717824533
 21
763.7616945213126
 31
0.0
  0
LINE
  5
38
330
17
100
AcDbEntity
  8
0
100
AcDbLine
 10
569.2668379985163
 20
733.3944376978174
 30
0.0
 11
744.5814167571829
 21
748.7324758900235
 31
0.0
  0
LINE
  5
39
330
17
100
AcDbEntity
  8
0
100
AcDbLine
 10
1137.9471485197296
 20
453.546831223411
 30
0.0
 11
1131.1016482527377
 21
531.7912573136944
 31
0.0
  0
LINE
  5
3A
330
17
100
AcDbEntity
  8
0
100
AcDbLine
 10
1120.2980298527525
 20
452.00273341882655
 30
0.0
 11
1113.4525295857607
 21
530.2471595091099
 31
0.0
  0
LINE
  5
3B
330
17
100
AcDbEntity
  8
0
100
AcDbLine
 10
570.8109358031005
 20
715.7453190308397
 30
0.0
 11
728.4763958947866
 21
729.5392594184614
 31
0.0
  0
LINE
  5
3C
330
17
100
AcDbEntity
  8
0
100
AcDbLine
 10
851.364720441548
 20
1303.457235837443
 30
0.0
 11
900.261150920057
 21
744.5684780497504
 31
0.0
  0
LINE
  5
3D
330
17
100
AcDbEntity
  8
0
100
AcDbLine
 10
520.3704075200073
 20
1292.2831954855085
 30
0.0
 11
867.4697413039444
 21
1322.6504523090039
 31
0.0
  0
LINE
  5
3E
330
17
100
AcDbEntity
  8
0
100
AcDbLine
 10
521.9145053245915
 20
1274.6340768185323
 30
0.0
 11
851.364720441548
 21
1303.457235837443
 31
0.0
  0
LINE
  5
3F
330
17
100
AcDbEntity
  8
0
100
AcDbLine
 10
775.0516134343163
 20
400.4565341949623
 30
0.0
 11
770.6251997278414
 21
451.05067437363107
 31
0.0
  0
LINE
  5
40
330
17
100
AcDbEntity
  8
0
100
AcDbLine
 10
757.4024947673358
 20
398.9124363903777
 30
0.0
 11
753.6966600363338
 21
441.2703211911204
 31
0.0
  0
LINE
  5
41
330
17
100
AcDbEntity
  8
0
100
AcDbLine
 10
1741.0467084736758
 20
484.97015403255375
 30
0.0
 11
1742.2819867173434
 21
470.85085909896907
 31
0.0
  0
LINE
  5
42
330
17
100
AcDbEntity
  8
0
100
AcDbLine
 10
1846.9414204755542
 20
494.2347408600607
 30
0.0
 11
1848.1766987192218
 21
480.115445926476
 31
0.0
  0
LINE
  5
43
330
17
100
AcDbEntity
  8
0
100
AcDbLine
 10
1999.90044892271
 20
507.6169218331262
 30
0.0
 11
2001.1357271663776
 21
493.4976268995415
 31
0.0
  0
LINE
  5
44
330
17
100
AcDbEntity
  8
0
100
AcDbLine
 10
1846.9414204755542
 20
494.2347408600607
 30
0.0
 11
1999.90044892271
 21
507.6169218331262
 31
0.0
  0
LINE
  5
45
330
17
100
AcDbEntity
  8
0
100
AcDbLine
 10
1211.5731484642831
 20
438.6472198950188
 30
0.0
 11
1212.8084267079507
 21
424.5279249614341
 31
0.0
  0
LINE
  5
46
330
17
100
AcDbEntity
  8
0
100
AcDbLine
 10
1317.4678604661624
 20
447.91180672252597
 30
0.0
 11
1318.70313870983
 21
433.7925117889413
 31
0.0
  0
LINE
  5
47
330
17
100
AcDbEntity
  8
0
100
AcDbLine
 10
1470.4268889133177
 20
461.2939876955912
 30
0.0
 11
1471.6621671569853
 21
447.17469276200654
 31
0.0
  0
LINE
  5
48
330
17
100
AcDbEntity
  8
0
100
AcDbLine
 10
1576.321600915197
 20
470.5585745230984
 30
0.0
 11
1577.5568791588646
 21
456.4392795895137
 31
0.0
  0
LINE
  5
49
330
17
100
AcDbEntity
  8
0
100
AcDbLine
 10
1317.4678604661624
 20
447.91180672252597
 30
0.0
 11
1470.4268889133177
 21
461.2939876955912
 31
0.0
  0
LINE
  5
4A
330
17
100
AcDbEntity
  8
0
100
AcDbLine
 10
1576.321600915197
 20
470.5585745230984
 30
0.0
 11
1741.0467084736758
 21
484.97015403255375
 31
0.0
  0
LINE
  5
4B
330
17
100
AcDbEntity
  8
0
100
AcDbLine
 10
1376.2982560227615
 20
453.05879940447414
 30
0.0
 11
1371.1512633408133
 21
511.88919496107303
 31
0.0
  0
LINE
  5
4C
330
17
100
AcDbEntity
  8
0
100
AcDbLine
 10
1371.1512633408133
 20
511.88919496107303
 30
0.0
 11
1418.21557978609
 21
516.0067891066316
 31
0.0
  0
LINE
  5
4D
330
17
100
AcDbEntity
  8
0
100
AcDbLine
 10
1423.3625724680383
 20
457.1763935500327
 30
0.0
 11
1418.21557978609
 21
516.0067891066316
 31
0.0
  0
LINE
  5
4E
330
17
100
AcDbEntity
  8
0
100
AcDbLine
 10
900.261150920057
 20
744.5684780497504
 30
0.0
 11
1093.2248483457042
 21
761.450614046541
 31
0.0
  0
LINE
  5
4F
330
17
100
AcDbEntity
  8
0
100
AcDbLine
 10
916.3661717824533
 20
763.7616945213126
 30
0.0
 11
1109.3298692080969
 21
780.6438305181031
 31
0.0
  0
LINE
  5
50
330
17
100
AcDbEntity
  8
0
100
AcDbLine
 10
727.1568469561408
 20
1096.964148063993
 30
0.0
 11
758.0388030478308
 21
743.9817747243973
 31
0.0
  0
LINE
  5
51
330
17
100
AcDbEntity
  8
0
100
AcDbLine
 10
899.2317523836672
 20
756.3345571610731
 30
0.0
 11
758.0388030478308
 21
743.9817747243973
 31
0.0
  0
LINE
  5
52
330
17
100
AcDbEntity
  8
0
100
AcDbLine
 10
896.1435567744986
 20
791.6327944950277
 30
0.0
 11
754.9506074386622
 21
779.2800120583519
 31
0.0
  0
LINE
  5
53
330
17
100
AcDbEntity
  8
0
100
AcDbLine
 10
893.0553611653293
 20
826.9310318289919
 30
0.0
 11
751.8624118294929
 21
814.578249392316
 31
0.0
  0
LINE
  5
54
330
17
100
AcDbEntity
  8
0
100
AcDbLine
 10
889.9671655561605
 20
862.2292691629488
 30
0.0
 11
748.7742162203241
 21
849.8764867262729
 31
0.0
  0
LINE
  5
55
330
17
100
AcDbEntity
  8
0
100
AcDbLine
 10
886.8789699469913
 20
897.5275064969102
 30
0.0
 11
745.686020611155
 21
885.1747240602343
 31
0.0
  0
LINE
  5
56
330
17
100
AcDbEntity
  8
0
100
AcDbLine
 10
883.7907743378223
 20
932.8257438308702
 30
0.0
 11
742.5978250019859
 21
920.4729613941944
 31
0.0
  0
LINE
  5
57
330
17
100
AcDbEntity
  8
0
100
AcDbLine
 10
880.7025787286537
 20
968.1239811648248
 30
0.0
 11
739.5096293928174
 21
955.771198728149
 31
0.0
  0
LINE
  5
58
330
17
100
AcDbEntity
  8
0
100
AcDbLine
 10
877.6143831194844
 20
1003.4222184987885
 30
0.0
 11
736.421433783648
 21
991.0694360621127
 31
0.0
  0
LINE
  5
59
330
17
100
AcDbEntity
  8
0
100
AcDbLine
 10
874.5261875103155
 20
1038.720455832747
 30
0.0
 11
733.3332381744791
 21
1026.367673396071
 31
0.0
  0
LINE
  5
5A
330
17
100
AcDbEntity
  8
0
100
AcDbLine
 10
871.4379919011463
 20
1074.0186931667074
 30
0.0
 11
730.24504256531
 21
1061.6659107300316
 31
0.0
  0
LINE
  5
5B
330
17
100
AcDbEntity
  8
0
100
AcDbLine
 10
868.3497962919772
 20
1109.3169305006688
 30
0.0
 11
538.8995811750207
 21
1080.4937714817581
 31
0.0
  0
LINE
  5
5C
330
17
100
AcDbEntity
  8
0
100
AcDbLine
 10
560.0785235753973
 20
1082.3466888472597
 30
0.0
 11
590.4457803988929
 21
735.2473550633189
 31
0.0
  0
LINE
  5
5D
330
17
100
AcDbEntity
  8
0
100
AcDbLine
 10
701.2714729112372
 20
1094.6994712839357
 30
0.0
 11
731.6387297347328
 21
747.600137499995
 31
0.0
  0
LINE
  5
5E
330
17
100
AcDbEntity
  8
0
100
AcDbLine
 10
704.3596685204063
 20
1059.4012339499743
 30
0.0
 11
563.1667191845664
 21
1047.0484515132982
 31
0.0
  0
LINE
  5
5F
330
17
100
AcDbEntity
  8
0
100
AcDbLine
 10
707.4478641295755
 20
1024.1029966160138
 30
0.0
 11
566.2549147937356
 21
1011.7502141793377
 31
0.0
  0
LINE
  5
60
330
17
100
AcDbEntity
  8
0
100
AcDbLine
 10
710.5360597387444
 20
988.8047592820554
 30
0.0
 11
569.3431104029045
 21
976.4519768453794
 31
0.0
  0
LINE
  5
61
330
17
100
AcDbEntity
  8
0
100
AcDbLine
 10
713.6242553479137
 20
953.5065219480917
 30
0.0
 11
572.4313060120738
 21
941.1537395114157
 31
0.0
  0
LINE
  5
62
330
17
100
AcDbEntity
  8
0
100
AcDbLine
 10
716.7124509570823
 20
918.2082846141371
 30
0.0
 11
575.5195016212424
 21
905.8555021774611
 31
0.0
  0
LINE
  5
63
330
17
100
AcDbEntity
  8
0
100
AcDbLine
 10
521.9145053245915
 20
1274.6340768185323
 30
0.0
 11
599.7370346756497
 21
385.11849600275616
 31
0.0
  0
LINE
  5
64
330
17
100
AcDbEntity
  8
0
100
AcDbLine
 10
444.12270858984266
 20
2001.1788244098802
 30
0.0
 11
586.8530179857365
 21
369.7639228255042
 31
0.0
  0
LINE
  5
65
330
17
100
AcDbEntity
  8
0
100
AcDbLine
 10
1104.5018285512733
 20
429.279693213873
 30
0.0
 11
1105.737106794941
 21
415.1603982802883
 31
0.0
  0
LINE
  5
66
330
17
100
AcDbEntity
  8
0
100
AcDbLine
 10
986.8410374380747
 20
418.9857078499764
 30
0.0
 11
988.0763156817425
 21
404.8664129163917
 31
0.0
  0
LINE
  5
67
330
17
100
AcDbEntity
  8
0
100
AcDbLine
 10
811.585129011945
 20
389.4254348705467
 30
0.0
 11
810.3498507682773
 21
403.5447298041314
 31
0.0
  0
LINE
  5
68
330
17
100
AcDbEntity
  8
0
100
AcDbLine
 10
929.2459201251434
 20
399.7194202344433
 30
0.0
 11
928.0106418814756
 21
413.838715168028
 31
0.0
  0
LINE
  5
69
330
17
100
AcDbEntity
  8
0
100
AcDbLine
 10
928.0106418814756
 20
413.838715168028
 30
0.0
 11
986.8410374380747
 21
418.9857078499764
 31
0.0
  0
LINE
  5
6A
330
17
100
AcDbEntity
  8
0
100
AcDbLine
 10
929.2459201251434
 20
399.7194202344433
 30
0.0
 11
988.0763156817425
 21
404.8664129163917
 31
0.0
  0
LINE
  5
6B
330
17
100
AcDbEntity
  8
0
100
AcDbLine
 10
1104.5018285512733
 20
429.279693213873
 30
0.0
 11
1211.5731484642831
 21
438.6472198950188
 31
0.0
  0
LINE
  5
6C
330
17
100
AcDbEntity
  8
0
100
AcDbLine
 10
1105.737106794941
 20
415.1603982802883
 30
0.0
 11
1221.0446820858776
 21
425.24850393690406
 31
0.0
  0
LINE
  5
6D
330
17
100
AcDbEntity
  8
0
100
AcDbLine
 10
264.7526007378318
 20
-14.100406605780108
 30
0.0
 11
1539.0189684937677
 21
97.38345488522043
 31
0.0
  0
LINE
  5
6E
330
17
100
AcDbEntity
  8
0
100
AcDbLine
 10
621.7064259350502
 20
52.697425941697475
 30
0.0
 11
657.0046632690078
 21
55.78562155086627
 31
0.0
  0
LINE
  5
6F
330
17
100
AcDbEntity
  8
0
100
AcDbLine
 10
618.6182303258804
 20
87.99566327566527
 30
0.0
 11
653.916467659838
 21
91.08385888483406
 31
0.0
  0
LINE
  5
70
330
17
100
AcDbEntity
  8
0
100
AcDbLine
 10
618.6182303258804
 20
87.99566327566527
 30
0.0
 11
621.7064259350502
 21
52.697425941697475
 31
0.0
  0
LINE
  5
71
330
17
100
AcDbEntity
  8
0
100
AcDbLine
 10
653.916467659838
 20
91.08385888483406
 30
0.0
 11
657.0046632690078
 21
55.78562155086627
 31
0.0
  0
LINE
  5
72
330
17
100
AcDbEntity
  8
0
100
AcDbLine
 10
1140.5905147442545
 20
98.09390139648167
 30
0.0
 11
1175.8887520782116
 21
101.18209700565035
 31
0.0
  0
LINE
  5
73
330
17
100
AcDbEntity
  8
0
100
AcDbLine
 10
1137.5023191350847
 20
133.39213873044946
 30
0.0
 11
1172.8005564690418
 21
136.48033433961814
 31
0.0
  0
LINE
  5
74
330
17
100
AcDbEntity
  8
0
100
AcDbLine
 10
1137.5023191350847
 20
133.39213873044946
 30
0.0
 11
1140.5905147442545
 21
98.09390139648167
 31
0.0
  0
LINE
  5
75
330
17
100
AcDbEntity
  8
0
100
AcDbLine
 10
1172.8005564690418
 20
136.48033433961814
 30
0.0
 11
1175.8887520782116
 21
101.18209700565035
 31
0.0
  0
LINE
  5
76
330
17
100
AcDbEntity
  8
0
100
AcDbLine
 10
828.635277715749
 20
750.1581659427352
 30
0.0
 11
797.753321624059
 21
1103.1405392823308
 31
0.0
  0
LINE
  5
77
330
17
100
AcDbEntity
  8
0
100
AcDbLine
 10
822.8461686142032
 20
1082.0851406277102
 30
0.0
 11
797.753321624059
 21
1103.1405392823308
 31
0.0
  0
LINE
  5
78
330
17
100
AcDbEntity
  8
0
100
AcDbLine
 10
776.6979229694417
 20
1078.047692292184
 30
0.0
 11
797.753321624059
 21
1103.1405392823308
 31
0.0
  0
LINE
  5
79
330
17
100
AcDbEntity
  8
0
100
AcDbLine
 10
732.0792907721507
 20
688.3579825288396
 30
0.0
 11
749.7284094391312
 21
689.902080333424
 31
0.0
  0
LINE
  5
7A
330
17
100
AcDbEntity
  8
0
100
AcDbLine
 10
741.3438775996575
 20
582.4632705269635
 30
0.0
 11
758.992996266638
 21
584.0073683315479
 31
0.0
  0
LINE
  5
7B
330
17
100
AcDbEntity
  8
0
100
AcDbLine
 10
744.4320732088265
 20
547.1650331930025
 30
0.0
 11
762.081191875807
 21
548.709130997587
 31
0.0
  0
LINE
  5
7C
330
17
100
AcDbEntity
  8
0
100
AcDbLine
 10
753.6966600363338
 20
441.2703211911204
 30
0.0
 11
771.3457787033143
 21
442.81441899570495
 31
0.0
  0
LINE
  5
7D
330
17
100
AcDbEntity
  8
0
100
AcDbLine
 10
732.0792907721507
 20
688.3579825288396
 30
0.0
 11
728.4763958947866
 21
729.5392594184614
 31
0.0
  0
LINE
  5
7E
330
17
100
AcDbEntity
  8
0
100
AcDbLine
 10
749.7284094391312
 20
689.902080333424
 30
0.0
 11
744.5814167571829
 21
748.7324758900235
 31
0.0
  0
LINE
  5
7F
330
17
100
AcDbEntity
  8
0
100
AcDbLine
 10
744.4320732088265
 20
547.1650331930025
 30
0.0
 11
741.3438775996575
 21
582.4632705269635
 31
0.0
  0
LINE
  5
80
330
17
100
AcDbEntity
  8
0
100
AcDbLine
 10
630.6749982433154
 20
1088.5230800655975
 30
0.0
 11
649.2041718983295
 21
876.7336560618389
 31
0.0
  0
LINE
  5
81
330
17
100
AcDbEntity
  8
0
100
AcDbLine
 10
649.2041718983295
 20
876.7336560618389
 30
0.0
 11
578.6076972304114
 21
870.557264843501
 31
0.0
  0
LINE
  5
82
330
17
100
AcDbEntity
  8
0
100
AcDbLine
 10
624.1113249081858
 20
897.7890547164598
 30
0.0
 11
649.2041718983295
 21
876.7336560618389
 31
0.0
  0
LINE
  5
83
330
17
100
AcDbEntity
  8
0
100
AcDbLine
 10
670.2595705529503
 20
901.8265030519863
 30
0.0
 11
649.2041718983295
 21
876.7336560618389
 31
0.0
  0
LINE
  5
84
330
17
100
AcDbEntity
  8
0
100
AcDbLine
 10
581.6958928395806
 20
835.2590275095396
 30
0.0
 11
716.7124509570823
 21
918.2082846141371
 31
0.0
  0
LINE
  5
85
330
17
100
AcDbEntity
  8
0
100
AcDbLine
 10
458.2420035234236
 20
2002.4141026535476
 30
0.0
 11
520.3704075200073
 21
1292.2831954855085
 31
0.0
  0
LINE
  5
86
330
17
100
AcDbEntity
  8
0
100
AcDbLine
 10
300.7612845830572
 20
387.4162427529053
 30
0.0
 11
303.84948019222634
 21
352.11800541894434
 31
0.0
  0
LINE
  5
87
330
17
100
AcDbEntity
  8
0
100
AcDbLine
 10
265.46304724909646
 20
384.3280471437363
 30
0.0
 11
268.5512428582656
 21
349.0298098097753
 31
0.0
  0
LINE
  5
88
330
17
100
AcDbEntity
  8
0
100
AcDbLine
 10
127.5337758370896
 20
1554.317938933154
 30
0.0
 11
264.7526007378318
 21
-14.100406605780108
 31
0.0
  0
LINE
  5
89
330
17
100
AcDbEntity
  8
0
100
AcDbLine
 10
303.84948019222634
 20
352.11800541894434
 30
0.0
 11
268.5512428582656
 21
349.0298098097753
 31
0.0
  0
LINE
  5
8A
330
17
100
AcDbEntity
  8
0
100
AcDbLine
 10
300.7612845830572
 20
387.4162427529053
 30
0.0
 11
265.46304724909646
 21
384.3280471437363
 31
0.0
  0
LINE
  5
8B
330
17
100
AcDbEntity
  8
0
100
AcDbLine
 10
245.07082376437643
 20
1023.9611226753078
 30
0.0
 11
248.15901937354556
 21
988.6628853413469
 31
0.0
  0
LINE
  5
8C
330
17
100
AcDbEntity
  8
0
100
AcDbLine
 10
209.77258643041569
 20
1020.8729270661388
 30
0.0
 11
212.86078203958482
 21
985.5746897321778
 31
0.0
  0
LINE
  5
8D
330
17
100
AcDbEntity
  8
0
100
AcDbLine
 10
248.15901937354556
 20
988.6628853413469
 30
0.0
 11
212.86078203958482
 21
985.5746897321778
 31
0.0
  0
LINE
  5
8E
330
17
100
AcDbEntity
  8
0
100
AcDbLine
 10
245.07082376437643
 20
1023.9611226753078
 30
0.0
 11
209.77258643041569
 21
1020.8729270661388
 31
0.0
  0
LINE
  5
8F
330
17
100
AcDbEntity
  8
0
100
AcDbLine
 10
208.42423586890442
 20
1442.8335390382936
 30
0.0
 11
211.51243147807355
 21
1407.5353017043326
 31
0.0
  0
LINE
  5
90
330
17
100
AcDbEntity
  8
0
100
AcDbLine
 10
173.12599853494368
 20
1439.7453434291247
 30
0.0
 11
176.2141941441128
 21
1404.4471060951637
 31
0.0
  0
LINE
  5
91
330
17
100
AcDbEntity
  8
0
100
AcDbLine
 10
211.51243147807355
 20
1407.5353017043326
 30
0.0
 11
176.2141941441128
 21
1404.4471060951637
 31
0.0
  0
LINE
  5
92
330
17
100
AcDbEntity
  8
0
100
AcDbLine
 10
208.42423586890442
 20
1442.8335390382936
 30
0.0
 11
173.12599853494368
 21
1439.7453434291247
 31
0.0
  0
LINE
  5
93
330
17
100
AcDbEntity
  8
0
100
AcDbLine
 10
480.51614917668417
 20
1585.199895024844
 30
0.0
 11
127.5337758370896
 21
1554.317938933154
 31
0.0
  0
LINE
  5
94
330
17
100
AcDbEntity
  8
0
100
AcDbLine
 10
198.13025050500778
 20
1560.4943301514918
 30
0.0
 11
191.9538592866701
 21
1631.0908048194074
 31
0.0
  0
LINE
  5
95
330
17
100
AcDbEntity
  8
0
100
AcDbLine
 10
477.42795356751503
 20
1620.498132358805
 30
0.0
 11
195.04205489583867
 21
1595.7925674854528
 31
0.0
  0
LINE
  5
96
330
17
100
AcDbEntity
  8
0
100
AcDbLine
 10
474.33975795834647
 20
1655.7963696927595
 30
0.0
 11
191.9538592866701
 21
1631.0908048194074
 31
0.0
  0
LINE
  5
97
330
17
100
AcDbEntity
  8
0
100
AcDbLine
 10
137.82776120098623
 20
1436.6571478199558
 30
0.0
 11
67.23128653307049
 21
1430.4807566016254
 31
0.0
  0
LINE
  5
98
330
17
100
AcDbEntity
  8
0
100
AcDbLine
 10
127.23508874035355
 20
1151.1830535391114
 30
0.0
 11
102.52952386702499
 21
1433.5689522107898
 31
0.0
  0
LINE
  5
99
330
17
100
AcDbEntity
  8
0
100
AcDbLine
 10
91.93685140640248
 20
1148.0948579299468
 30
0.0
 11
67.23128653307049
 21
1430.4807566016254
 31
0.0
  0
LINE
  5
9A
330
17
100
AcDbEntity
  8
0
100
AcDbLine
 10
91.93685140640248
 20
1148.0948579299468
 30
0.0
 11
162.53332607433762
 21
1154.271249148286
 31
0.0
  0
LINE
  5
9B
330
17
100
AcDbEntity
  8
0
100
AcDbLine
 10
333.14680862250634
 20
1643.4435872560834
 30
0.0
 11
339.32319984084404
 21
1572.8471125881679
 31
0.0
  0
LINE
  5
9C
330
17
100
AcDbEntity
  8
0
100
AcDbLine
 10
314.2303528507001
 20
1593.9025112427885
 30
0.0
 11
339.32319984084404
 21
1572.8471125881679
 31
0.0
  0
LINE
  5
9D
330
17
100
AcDbEntity
  8
0
100
AcDbLine
 10
360.3785984954651
 20
1597.9399595783152
 30
0.0
 11
339.32319984084404
 21
1572.8471125881679
 31
0.0
  0
LINE
  5
9E
330
17
100
AcDbEntity
  8
0
100
AcDbLine
 10
79.58406896973707
 20
1289.2878072657807
 30
0.0
 11
150.18054363764867
 21
1295.464198484118
 31
0.0
  0
LINE
  5
9F
330
17
100
AcDbEntity
  8
0
100
AcDbLine
 10
129.12514498303062
 20
1270.3713514939782
 30
0.0
 11
150.18054363764867
 21
1295.464198484118
 31
0.0
  0
LINE
  5
A0
330
17
100
AcDbEntity
  8
0
100
AcDbLine
 10
125.08769664750453
 20
1316.5195971387384
 30
0.0
 11
150.18054363764867
 21
1295.464198484118
 31
0.0
  0
LINE
  5
A1
330
17
100
AcDbEntity
  8
0
100
AcDbLine
 10
1136.619062886631
 20
62.178024940693945
 30
0.0
 11
1141.501758546251
 21
6.3685581727695535
 31
0.0
  0
LINE
  5
A2
330
17
100
AcDbEntity
  8
0
100
AcDbLine
 10
842.4670851036349
 20
36.44306153095238
 30
0.0
 11
847.349780763255
 21
-19.366405236972014
 31
0.0
  0
LINE
  5
A3
330
17
100
AcDbEntity
  8
0
100
AcDbLine
 10
845.555280712804
 20
1.1448241969918627
 30
0.0
 11
1139.7072584958
 21
26.87978760673343
 31
0.0
  0
LINE
  5
A4
330
17
100
AcDbEntity
  8
0
100
AcDbLine
 10
994.4257696547529
 20
-6.49892353210123
 30
0.0
 11
989.543073995133
 21
49.31054323582009
 31
0.0
  0
LINE
  5
A5
330
17
100
AcDbEntity
  8
0
100
AcDbLine
 10
1014.6359209852772
 20
28.255144581195623
 30
0.0
 11
989.543073995133
 21
49.31054323582009
 31
0.0
  0
LINE
  5
A6
330
17
100
AcDbEntity
  8
0
100
AcDbLine
 10
968.4876753405192
 20
24.217696245669686
 30
0.0
 11
989.543073995133
 21
49.31054323582009
 31
0.0
  0
LINE
  5
A7
330
17
100
AcDbEntity
  8
0
100
AcDbLine
 10
1568.1408146094102
 20
171.06812516231275
 30
0.0
 11
1543.4352497360385
 21
453.4540238339837
 31
0.0
  0
LINE
  5
A8
330
17
100
AcDbEntity
  8
0
100
AcDbLine
 10
1603.4390519433707
 20
174.1563207714819
 30
0.0
 11
1578.7334870699954
 21
456.5422194431526
 31
0.0
  0
LINE
  5
A9
330
17
100
AcDbEntity
  8
0
100
AcDbLine
 10
1603.4390519433707
 20
174.1563207714819
 30
0.0
 11
1532.8425772754294
 21
167.97992955314203
 31
0.0
  0
LINE
  5
AA
330
17
100
AcDbEntity
  8
0
100
AcDbLine
 10
1591.0862695066837
 20
315.3492701073203
 30
0.0
 11
1520.4897948387627
 21
309.17287888898204
 31
0.0
  0
LINE
  5
AB
330
17
100
AcDbEntity
  8
0
100
AcDbLine
 10
1545.5826418289098
 20
288.1174802343619
 30
0.0
 11
1520.4897948387627
 21
309.17287888898204
 31
0.0
  0
LINE
  5
AC
330
17
100
AcDbEntity
  8
0
100
AcDbLine
 10
1541.5451934933833
 20
334.26572587912653
 30
0.0
 11
1520.4897948387627
 21
309.17287888898204
 31
0.0
  0
LINE
  5
AD
330
17
100
AcDbEntity
  8
0
100
AcDbLine
 10
1539.0189684937677
 20
97.38345488522043
 30
0.0
 11
1508.1370124020777
 21
450.3658282248148
 31
0.0
  0
LINE
  5
AE
330
17
100
AcDbEntity
  8
0
100
AcDbLine
 10
1820.2314605147374
 20
406.5337155030245
 30
0.0
 11
2103.7625908865775
 21
431.3394751672513
 31
0.0
  0
LINE
  5
AF
330
17
100
AcDbEntity
  8
0
100
AcDbLine
 10
373.52623392192083
 20
1995.002433191542
 30
0.0
 11
403.74328329042464
 21
1649.6199784744213
 31
0.0
  0
LINE
  5
B0
330
17
100
AcDbEntity
  8
0
100
AcDbLine
 10
1849.8197210477351
 20
68.33835006342997
 30
0.0
 11
1820.2314605147374
 21
406.5337155030245
 31
0.0
  0
LINE
  5
B1
330
17
100
AcDbEntity
  8
0
100
AcDbLine
 10
1100.070348612695
 20
683.2061879562691
 30
0.0
 11
1117.719467279672
 21
684.7502857608536
 31
0.0
  0
LINE
  5
B2
330
17
100
AcDbEntity
  8
0
100
AcDbLine
 10
1113.4525295857607
 20
530.2471595091099
 30
0.0
 11
1131.1016482527377
 21
531.7912573136944
 31
0.0
  0
LINE
  5
B3
330
17
100
AcDbEntity
  8
0
100
AcDbLine
 10
1117.719467279672
 20
684.7502857608536
 30
0.0
 11
1109.3298692080969
 21
780.6438305181031
 31
0.0
  0
LINE
  5
B4
330
17
100
AcDbEntity
  8
0
100
AcDbLine
 10
1100.070348612695
 20
683.2061879562691
 30
0.0
 11
1093.2248483457042
 21
761.450614046541
 31
0.0
  0
LINE
  5
B5
330
17
100
AcDbEntity
  8
0
100
AcDbLine
 10
724.9455050745844
 20
634.3812279915155
 30
0.0
 11
766.1267819642035
 21
637.9841228688792
 31
0.0
  0
LINE
  5
B6
330
17
100
AcDbEntity
  8
0
100
AcDbLine
 10
868.150847788487
 20
420.45780159739866
 30
0.0
 11
871.4449231049341
 21
382.80634844117253
 31
0.0
  0
LINE
  5
B7
330
17
100
AcDbEntity
  8
0
100
AcDbLine
 10
1044.6420344582843
 20
435.89877964324364
 30
0.0
 11
1047.9361097747317
 21
398.2473264870175
 31
0.0
  0
LINE
  5
B8
330
17
100
AcDbEntity
  8
0
100
AcDbLine
 10
1100.0703486126954
 20
683.2061879562655
 30
0.0
 11
1031.7425318349935
 21
601.7762668373205
 31
0.0
  0
LINE
  5
B9
330
17
100
AcDbEntity
  8
0
100
AcDbLine
 10
1113.4525295857607
 20
530.2471595091099
 30
0.0
 11
1077.2614535328944
 21
560.6150780769759
 31
0.0
  0
LINE
  5
BA
330
17
100
AcDbEntity
  8
0
100
AcDbLine
 10
811.585129011945
 20
389.4254348705467
 30
0.0
 11
929.2459201251434
 21
399.7194202344433
 31
0.0
  0
LINE
  5
BB
330
17
100
AcDbEntity
  8
0
100
AcDbLine
 10
929.2459201251434
 20
399.7194202344433
 30
0.0
 11
928.0106418814756
 21
413.838715168028
 31
0.0
  0
LINE
  5
BC
330
17
100
AcDbEntity
  8
0
100
AcDbLine
 10
928.0106418814756
 20
413.838715168028
 30
0.0
 11
810.3498507682773
 21
403.5447298041314
 31
0.0
  0
LINE
  5
BD
330
17
100
AcDbEntity
  8
0
100
AcDbLine
 10
810.3498507682773
 20
403.5447298041314
 30
0.0
 11
811.585129011945
 21
389.4254348705467
 31
0.0
  0
LINE
  5
BE
330
17
100
AcDbEntity
  8
0
100
AcDbLine
 10
811.585129011945
 20
389.4254348705467
 30
0.0
 11
811.585129011945
 21
389.4254348705467
 31
0.0
  0
LINE
  5
BF
330
17
100
AcDbEntity
  8
0
100
AcDbLine
 10
988.0763156817425
 20
404.8664129163917
 30
0.0
 11
1105.737106794941
 21
415.1603982802883
 31
0.0
  0
LINE
  5
C0
330
17
100
AcDbEntity
  8
0
100
AcDbLine
 10
1105.737106794941
 20
415.1603982802883
 30
0.0
 11
1104.5018285512733
 21
429.279693213873
 31
0.0
  0
LINE
  5
C1
330
17
100
AcDbEntity
  8
0
100
AcDbLine
 10
1104.5018285512733
 20
429.279693213873
 30
0.0
 11
986.8410374380747
 21
418.9857078499764
 31
0.0
  0
LINE
  5
C2
330
17
100
AcDbEntity
  8
0
100
AcDbLine
 10
986.8410374380747
 20
418.9857078499764
 30
0.0
 11
988.0763156817425
 21
404.8664129163917
 31
0.0
  0
LINE
  5
C3
330
17
100
AcDbEntity
  8
0
100
AcDbLine
 10
988.0763156817425
 20
404.8664129163917
 30
0.0
 11
988.0763156817425
 21
404.8664129163917
 31
0.0
  0
LINE
  5
C4
330
17
100
AcDbEntity
  8
0
100
AcDbLine
 10
741.3438775996575
 20
582.4632705269635
 30
0.0
 11
732.0792907721507
 21
688.3579825288396
 31
0.0
  0
LINE
  5
C5
330
17
100
AcDbEntity
  8
0
100
AcDbLine
 10
732.0792907721507
 20
688.3579825288396
 30
0.0
 11
749.7284094391312
 21
689.902080333424
 31
0.0
  0
LINE
  5
C6
330
17
100
AcDbEntity
  8
0
100
AcDbLine
 10
749.7284094391312
 20
689.902080333424
 30
0.0
 11
758.992996266638
 21
584.0073683315479
 31
0.0
  0
LINE
  5
C7
330
17
100
AcDbEntity
  8
0
100
AcDbLine
 10
758.992996266638
 20
584.0073683315479
 30
0.0
 11
741.3438775996575
 21
582.4632705269635
 31
0.0
  0
LINE
  5
C8
330
17
100
AcDbEntity
  8
0
100
AcDbLine
 10
741.3438775996575
 20
582.4632705269635
 30
0.0
 11
741.3438775996575
 21
582.4632705269635
 31
0.0
  0
LINE
  5
C9
330
17
100
AcDbEntity
  8
0
100
AcDbLine
 10
272.91605417371665
 20
705.6886827141084
 30
0.0
 11
237.6178168397559
 21
702.6004871049394
 31
0.0
  0
LINE
  5
CA
330
17
100
AcDbEntity
  8
0
100
AcDbLine
 10
237.6178168397559
 20
702.6004871049394
 30
0.0
 11
240.70601244892532
 21
667.3022497709752
 31
0.0
  0
LINE
  5
CB
330
17
100
AcDbEntity
  8
0
100
AcDbLine
 10
240.70601244892532
 20
667.3022497709752
 30
0.0
 11
276.00424978288606
 21
670.3904453801442
 31
0.0
  0
LINE
  5
CC
330
17
100
AcDbEntity
  8
0
100
AcDbLine
 10
276.00424978288606
 20
670.3904453801442
 30
0.0
 11
272.91605417371665
 21
705.6886827141084
 31
0.0
  0
LINE
  5
CD
330
17
100
AcDbEntity
  8
0
100
AcDbLine
 10
272.91605417371665
 20
705.6886827141084
 30
0.0
 11
272.91605417371665
 21
705.6886827141084
 31
0.0
  0
LINE
  5
CE
330
17
100
AcDbEntity
  8
0
100
AcDbLine
 10
1497.5443399414712
 20
164.89173394397312
 30
0.0
 11
1462.2461026075105
 21
161.803538334804
 31
0.0
  0
LINE
  5
CF
330
17
100
AcDbEntity
  8
0
100
AcDbLine
 10
1462.2461026075105
 20
161.803538334804
 30
0.0
 11
1465.3342982166803
 21
126.5053010008362
 31
0.0
  0
LINE
  5
D0
330
17
100
AcDbEntity
  8
0
100
AcDbLine
 10
1465.3342982166803
 20
126.5053010008362
 30
0.0
 11
1500.632535550641
 21
129.59349661000533
 31
0.0
  0
LINE
  5
D1
330
17
100
AcDbEntity
  8
0
100
AcDbLine
 10
1500.632535550641
 20
129.59349661000533
 30
0.0
 11
1497.5443399414712
 21
164.89173394397312
 31
0.0
  0
LINE
  5
D2
330
17
100
AcDbEntity
  8
0
100
AcDbLine
 10
1497.5443399414712
 20
164.89173394397312
 30
0.0
 11
1497.5443399414712
 21
164.89173394397312
 31
0.0
  0
LINE
  5
D3
330
17
100
AcDbEntity
  8
0
100
AcDbLine
 10
293.87444685345105
 20
59.584263671310396
 30
0.0
 11
329.1726841874118
 21
62.672459280479416
 31
0.0
  0
LINE
  5
D4
330
17
100
AcDbEntity
  8
0
100
AcDbLine
 10
329.1726841874118
 20
62.672459280479416
 30
0.0
 11
332.2608797965815
 21
27.374221946511625
 31
0.0
  0
LINE
  5
D5
330
17
100
AcDbEntity
  8
0
100
AcDbLine
 10
332.2608797965815
 20
27.374221946511625
 30
0.0
 11
296.96264246262075
 21
24.286026337342605
 31
0.0
  0
LINE
  5
D6
330
17
100
AcDbEntity
  8
0
100
AcDbLine
 10
296.96264246262075
 20
24.286026337342605
 30
0.0
 11
293.87444685345105
 21
59.584263671310396
 31
0.0
  0
LINE
  5
D7
330
17
100
AcDbEntity
  8
0
100
AcDbLine
 10
293.87444685345105
 20
59.584263671310396
 30
0.0
 11
293.87444685345105
 21
59.584263671310396
 31
0.0
  0
LINE
  5
D8
330
17
100
AcDbEntity
  8
0
100
AcDbLine
 10
744.4320732088265
 20
547.1650331930025
 30
0.0
 11
753.6966600363338
 21
441.2703211911204
 31
0.0
  0
LINE
  5
D9
330
17
100
AcDbEntity
  8
0
100
AcDbLine
 10
753.6966600363338
 20
441.2703211911204
 30
0.0
 11
771.3457787033143
 21
442.81441899570495
 31
0.0
  0
LINE
  5
DA
330
17
100
AcDbEntity
  8
0
100
AcDbLine
 10
771.3457787033143
 20
442.81441899570495
 30
0.0
 11
762.081191875807
 21
548.709130997587
 31
0.0
  0
LINE
  5
DB
330
17
100
AcDbEntity
  8
0
100
AcDbLine
 10
762.081191875807
 20
548.709130997587
 30
0.0
 11
744.4320732088265
 21
547.1650331930025
 31
0.0
  0
LINE
  5
DC
330
17
100
AcDbEntity
  8
0
100
AcDbLine
 10
744.4320732088265
 20
547.1650331930025
 30
0.0
 11
744.4320732088265
 21
547.1650331930025
 31
0.0
  0
LINE
  5
DD
330
17
100
AcDbEntity
  8
0
100
AcDbLine
 10
1576.321600915197
 20
470.5585745230984
 30
0.0
 11
1577.5568791588646
 21
456.4392795895137
 31
0.0
  0
LINE
  5
DE
330
17
100
AcDbEntity
  8
0
100
AcDbLine
 10
1577.5568791588646
 20
456.4392795895137
 30
0.0
 11
1471.6621671569853
 21
447.17469276200654
 31
0.0
  0
LINE
  5
DF
330
17
100
AcDbEntity
  8
0
100
AcDbLine
 10
1471.6621671569853
 20
447.17469276200654
 30
0.0
 11
1470.4268889133177
 21
461.2939876955912
 31
0.0
  0
LINE
  5
E0
330
17
100
AcDbEntity
  8
0
100
AcDbLine
 10
1470.4268889133177
 20
461.2939876955912
 30
0.0
 11
1576.321600915197
 21
470.5585745230984
 31
0.0
  0
LINE
  5
E1
330
17
100
AcDbEntity
  8
0
100
AcDbLine
 10
1576.321600915197
 20
470.5585745230984
 30
0.0
 11
1576.321600915197
 21
470.5585745230984
 31
0.0
  0
LINE
  5
E2
330
17
100
AcDbEntity
  8
0
100
AcDbLine
 10
1317.4678604661624
 20
447.91180672252597
 30
0.0
 11
1318.70313870983
 21
433.7925117889413
 31
0.0
  0
LINE
  5
E3
330
17
100
AcDbEntity
  8
0
100
AcDbLine
 10
1318.70313870983
 20
433.7925117889413
 30
0.0
 11
1212.8084267079507
 21
424.5279249614341
 31
0.0
  0
LINE
  5
E4
330
17
100
AcDbEntity
  8
0
100
AcDbLine
 10
1212.8084267079507
 20
424.5279249614341
 30
0.0
 11
1211.5731484642831
 21
438.6472198950188
 31
0.0
  0
LINE
  5
E5
330
17
100
AcDbEntity
  8
0
100
AcDbLine
 10
1211.5731484642831
 20
438.6472198950188
 30
0.0
 11
1317.4678604661624
 21
447.91180672252597
 31
0.0
  0
LINE
  5
E6
330
17
100
AcDbEntity
  8
0
100
AcDbLine
 10
1317.4678604661624
 20
447.91180672252597
 30
0.0
 11
1317.4678604661624
 21
447.91180672252597
 31
0.0
  0
LINE
  5
E7
330
17
100
AcDbEntity
  8
0
100
AcDbLine
 10
2097.5861996682393
 20
501.93594983517323
 30
0.0
 11
2001.1357271663776
 21
493.4976268995415
 31
0.0
  0
LINE
  5
E8
330
17
100
AcDbEntity
  8
0
100
AcDbLine
 10
2001.1357271663776
 20
493.4976268995415
 30
0.0
 11
1999.90044892271
 21
507.6169218331262
 31
0.0
  0
LINE
  5
E9
330
17
100
AcDbEntity
  8
0
100
AcDbLine
 10
1999.90044892271
 20
507.6169218331262
 30
0.0
 11
2096.350921424572
 21
516.0552447687579
 31
0.0
  0
LINE
  5
EA
330
17
100
AcDbEntity
  8
0
100
AcDbLine
 10
1846.9414204755542
 20
494.2347408600607
 30
0.0
 11
1848.1766987192218
 21
480.115445926476
 31
0.0
  0
LINE
  5
EB
330
17
100
AcDbEntity
  8
0
100
AcDbLine
 10
1848.1766987192218
 20
480.115445926476
 30
0.0
 11
1742.2819867173434
 21
470.85085909896907
 31
0.0
  0
LINE
  5
EC
330
17
100
AcDbEntity
  8
0
100
AcDbLine
 10
1742.2819867173434
 20
470.85085909896907
 30
0.0
 11
1741.0467084736758
 21
484.97015403255375
 31
0.0
  0
LINE
  5
ED
330
17
100
AcDbEntity
  8
0
100
AcDbLine
 10
1741.0467084736758
 20
484.97015403255375
 30
0.0
 11
1846.9414204755542
 21
494.2347408600607
 31
0.0
  0
LINE
  5
EE
330
17
100
AcDbEntity
  8
0
100
AcDbLine
 10
1846.9414204755542
 20
494.2347408600607
 30
0.0
 11
1846.9414204755542
 21
494.2347408600607
 31
0.0
  0
LINE
  5
EF
330
17
100
AcDbEntity
  8
0
100
AcDbLine
 10
1646.2417661287484
 20
498.01684799544466
 30
0.0
 11
1667.4207085291216
 21
499.86976536094573
 31
0.0
  0
LINE
  5
F0
330
17
100
AcDbEntity
  8
0
100
AcDbLine
 10
1667.4207085291216
 20
499.86976536094573
 30
0.0
 11
1669.2736258946225
 21
478.6908229605766
 31
0.0
  0
LINE
  5
F1
330
17
100
AcDbEntity
  8
0
100
AcDbLine
 10
1669.2736258946225
 20
478.6908229605766
 30
0.0
 11
1648.0946834942492
 21
476.83790559507554
 31
0.0
  0
LINE
  5
F2
330
17
100
AcDbEntity
  8
0
100
AcDbLine
 10
1648.0946834942492
 20
476.83790559507554
 30
0.0
 11
1646.2417661287484
 21
498.01684799544466
 31
0.0
  0
LINE
  5
F3
330
17
100
AcDbEntity
  8
0
100
AcDbLine
 10
1646.2417661287484
 20
498.01684799544466
 30
0.0
 11
1646.2417661287484
 21
498.01684799544466
 31
0.0
  0
LINE
  5
F4
330
17
100
AcDbEntity
  8
0
100
AcDbLine
 10
1116.7682061193564
 20
451.6939138579097
 30
0.0
 11
1137.9471485197296
 21
453.546831223411
 31
0.0
  0
LINE
  5
F5
330
17
100
AcDbEntity
  8
0
100
AcDbLine
 10
1137.9471485197296
 20
453.546831223411
 30
0.0
 11
1139.8000658852304
 21
432.3678888230419
 31
0.0
  0
LINE
  5
F6
330
17
100
AcDbEntity
  8
0
100
AcDbLine
 10
1139.8000658852304
 20
432.3678888230419
 30
0.0
 11
1118.6211234848572
 21
430.5149714575406
 31
0.0
  0
LINE
  5
F7
330
17
100
AcDbEntity
  8
0
100
AcDbLine
 10
1118.6211234848572
 20
430.5149714575406
 30
0.0
 11
1116.7682061193564
 21
451.6939138579097
 31
0.0
  0
LINE
  5
F8
330
17
100
AcDbEntity
  8
0
100
AcDbLine
 10
1116.7682061193564
 20
451.6939138579097
 30
0.0
 11
1116.7682061193564
 21
451.6939138579097
 31
0.0
  0
LINE
  5
F9
330
17
100
AcDbEntity
  8
0
100
AcDbLine
 10
597.884117310149
 20
406.2974384031253
 30
0.0
 11
619.0630597105256
 21
408.1503557686268
 31
0.0
  0
LINE
  5
FA
330
17
100
AcDbEntity
  8
0
100
AcDbLine
 10
619.0630597105256
 20
408.1503557686268
 30
0.0
 11
620.9159770760264
 21
386.9714133682577
 31
0.0
  0
LINE
  5
FB
330
17
100
AcDbEntity
  8
0
100
AcDbLine
 10
620.9159770760264
 20
386.9714133682577
 30
0.0
 11
599.7370346756497
 21
385.11849600275616
 31
0.0
  0
LINE
  5
FC
330
17
100
AcDbEntity
  8
0
100
AcDbLine
 10
599.7370346756497
 20
385.11849600275616
 30
0.0
 11
597.884117310149
 21
406.2974384031253
 31
0.0
  0
LINE
  5
FD
330
17
100
AcDbEntity
  8
0
100
AcDbLine
 10
597.884117310149
 20
406.2974384031253
 30
0.0
 11
597.884117310149
 21
406.2974384031253
 31
0.0
  0
LINE
  5
FE
330
17
100
AcDbEntity
  8
0
100
AcDbLine
 10
1590.5513053100674
 20
1134.5617279178507
 30
0.0
 11
1611.7302477104406
 21
1136.4146452833518
 31
0.0
  0
LINE
  5
FF
330
17
100
AcDbEntity
  8
0
100
AcDbLine
 10
1611.7302477104406
 20
1136.4146452833518
 30
0.0
 11
1613.5831650759417
 21
1115.2357028829788
 31
0.0
  0
LINE
  5
100
330
17
100
AcDbEntity
  8
0
100
AcDbLine
 10
1613.5831650759417
 20
1115.2357028829788
 30
0.0
 11
1592.4042226755685
 21
1113.3827855174777
 31
0.0
  0
LINE
  5
101
330
17
100
AcDbEntity
  8
0
100
AcDbLine
 10
1592.4042226755685
 20
1113.3827855174777
 30
0.0
 11
1590.5513053100674
 21
1134.5617279178507
 31
0.0
  0
LINE
  5
102
330
17
100
AcDbEntity
  8
0
100
AcDbLine
 10
1590.5513053100674
 20
1134.5617279178507
 30
0.0
 11
1590.5513053100674
 21
1134.5617279178507
 31
0.0
  0
LINE
  5
103
330
17
100
AcDbEntity
  8
0
100
AcDbLine
 10
1061.0777453006754
 20
1088.2387937803157
 30
0.0
 11
1082.2566877010486
 21
1090.091711145817
 31
0.0
  0
LINE
  5
104
330
17
100
AcDbEntity
  8
0
100
AcDbLine
 10
1082.2566877010486
 20
1090.091711145817
 30
0.0
 11
1084.1096050665496
 21
1068.912768745444
 31
0.0
  0
LINE
  5
105
330
17
100
AcDbEntity
  8
0
100
AcDbLine
 10
1084.1096050665496
 20
1068.912768745444
 30
0.0
 11
1062.9306626661764
 21
1067.0598513799428
 31
0.0
  0
LINE
  5
106
330
17
100
AcDbEntity
  8
0
100
AcDbLine
 10
1062.9306626661764
 20
1067.0598513799428
 30
0.0
 11
1061.0777453006754
 21
1088.2387937803157
 31
0.0
  0
LINE
  5
107
330
17
100
AcDbEntity
  8
0
100
AcDbLine
 10
1061.0777453006754
 20
1088.2387937803157
 30
0.0
 11
1061.0777453006754
 21
1088.2387937803157
 31
0.0
  0
LINE
  5
108
330
17
100
AcDbEntity
  8
0
100
AcDbLine
 10
542.1936564914679
 20
1042.8423183255313
 30
0.0
 11
563.3725988918445
 21
1044.6952356910328
 31
0.0
  0
LINE
  5
109
330
17
100
AcDbEntity
  8
0
100
AcDbLine
 10
563.3725988918445
 20
1044.6952356910328
 30
0.0
 11
565.2255162573457
 21
1023.5162932906599
 31
0.0
  0
LINE
  5
10A
330
17
100
AcDbEntity
  8
0
100
AcDbLine
 10
565.2255162573457
 20
1023.5162932906599
 30
0.0
 11
544.0465738569691
 21
1021.6633759251583
 31
0.0
  0
LINE
  5
10B
330
17
100
AcDbEntity
  8
0
100
AcDbLine
 10
544.0465738569691
 20
1021.6633759251583
 30
0.0
 11
542.1936564914679
 21
1042.8423183255313
 31
0.0
  0
LINE
  5
10C
330
17
100
AcDbEntity
  8
0
100
AcDbLine
 10
542.1936564914679
 20
1042.8423183255313
 30
0.0
 11
542.1936564914679
 21
1042.8423183255313
 31
0.0
  0
LINE
  5
10D
330
17
100
AcDbEntity
  8
0
100
AcDbLine
 10
1533.9343858086359
 20
1781.6960790404414
 30
0.0
 11
1555.113328209009
 21
1783.5489964059425
 31
0.0
  0
LINE
  5
10E
330
17
100
AcDbEntity
  8
0
100
AcDbLine
 10
1555.113328209009
 20
1783.5489964059425
 30
0.0
 11
1556.9662455745104
 21
1762.3700540055688
 31
0.0
  0
LINE
  5
10F
330
17
100
AcDbEntity
  8
0
100
AcDbLine
 10
1556.9662455745104
 20
1762.3700540055688
 30
0.0
 11
1535.7873031741372
 21
1760.5171366400677
 31
0.0
  0
LINE
  5
110
330
17
100
AcDbEntity
  8
0
100
AcDbLine
 10
1535.7873031741372
 20
1760.5171366400677
 30
0.0
 11
1533.9343858086359
 21
1781.6960790404414
 31
0.0
  0
LINE
  5
111
330
17
100
AcDbEntity
  8
0
100
AcDbLine
 10
1533.9343858086359
 20
1781.6960790404414
 30
0.0
 11
1533.9343858086359
 21
1781.6960790404414
 31
0.0
  0
LINE
  5
112
330
17
100
AcDbEntity
  8
0
100
AcDbLine
 10
1004.4608257992438
 20
1735.3731449029065
 30
0.0
 11
1025.639768199617
 21
1737.226062268408
 31
0.0
  0
LINE
  5
113
330
17
100
AcDbEntity
  8
0
100
AcDbLine
 10
1025.639768199617
 20
1737.226062268408
 30
0.0
 11
1027.4926855651183
 21
1716.0471198680343
 31
0.0
  0
LINE
  5
114
330
17
100
AcDbEntity
  8
0
100
AcDbLine
 10
1027.4926855651183
 20
1716.0471198680343
 30
0.0
 11
1006.3137431647451
 21
1714.1942025025328
 31
0.0
  0
LINE
  5
115
330
17
100
AcDbEntity
  8
0
100
AcDbLine
 10
1006.3137431647451
 20
1714.1942025025328
 30
0.0
 11
1004.4608257992438
 21
1735.3731449029065
 31
0.0
  0
LINE
  5
116
330
17
100
AcDbEntity
  8
0
100
AcDbLine
 10
1004.4608257992438
 20
1735.3731449029065
 30
0.0
 11
1004.4608257992438
 21
1735.3731449029065
 31
0.0
  0
LINE
  5
117
330
17
100
AcDbEntity
  8
0
100
AcDbLine
 10
485.5767369900364
 20
1689.9766694481223
 30
0.0
 11
506.75567939041304
 21
1691.8295868136238
 31
0.0
  0
LINE
  5
118
330
17
100
AcDbEntity
  8
0
100
AcDbLine
 10
506.75567939041304
 20
1691.8295868136238
 30
0.0
 11
508.6085967559142
 21
1670.6506444132501
 31
0.0
  0
LINE
  5
119
330
17
100
AcDbEntity
  8
0
100
AcDbLine
 10
508.6085967559142
 20
1670.6506444132501
 30
0.0
 11
487.4296543555376
 21
1668.7977270477486
 31
0.0
  0
LINE
  5
11A
330
17
100
AcDbEntity
  8
0
100
AcDbLine
 10
487.4296543555376
 20
1668.7977270477486
 30
0.0
 11
485.5767369900364
 21
1689.9766694481223
 31
0.0
  0
LINE
  5
11B
330
17
100
AcDbEntity
  8
0
100
AcDbLine
 10
485.5767369900364
 20
1689.9766694481223
 30
0.0
 11
485.5767369900364
 21
1689.9766694481223
 31
0.0
  0
LINE
  5
11C
330
17
100
AcDbEntity
  8
0
100
AcDbLine
 10
765.4627391476546
 20
442.2997197275133
 30
0.0
 11
764.7421601721819
 21
450.53597510543625
 31
0.0
  0
LINE
  5
11D
330
17
100
AcDbEntity
  8
0
100
AcDbLine
 10
764.7421601721819
 20
450.53597510543625
 30
0.0
 11
770.6251997278414
 21
451.05067437363107
 31
0.0
  0
LINE
  5
11E
330
17
100
AcDbEntity
  8
0
100
AcDbLine
 10
770.6251997278414
 20
451.05067437363107
 30
0.0
 11
770.6251997278414
 21
451.05067437363107
 31
0.0
  0
LINE
  5
11F
330
17
100
AcDbEntity
  8
0
100
AcDbLine
 10
767.6836799500118
 20
450.79332473953366
 30
0.0
 11
759.8602510734501
 21
540.2155259855672
 31
0.0
  0
LINE
  5
120
330
17
100
AcDbEntity
  8
0
100
AcDbLine
 10
759.8602510734501
 20
540.2155259855672
 30
0.0
 11
756.9187312956202
 21
539.9581763514698
 31
0.0
  0
LINE
  5
121
330
17
100
AcDbEntity
  8
0
100
AcDbLine
 10
756.9187312956202
 20
539.9581763514698
 30
0.0
 11
764.7421601721819
 21
450.53597510543625
 31
0.0
  0
LINE
  5
122
330
17
100
AcDbEntity
  8
0
100
AcDbLine
 10
764.7421601721819
 20
450.53597510543625
 30
0.0
 11
767.6836799500118
 21
450.79332473953366
 31
0.0
  0
LINE
  5
123
330
17
100
AcDbEntity
  8
0
100
AcDbLine
 10
767.6836799500118
 20
450.79332473953366
 30
0.0
 11
767.6836799500118
 21
450.79332473953366
 31
0.0
  0
LINE
  5
124
330
17
100
AcDbEntity
  8
0
100
AcDbLine
 10
758.992996266638
 20
584.0073683315479
 30
0.0
 11
762.8017708512797
 21
540.4728756196646
 31
0.0
  0
LINE
  5
125
330
17
100
AcDbEntity
  8
0
100
AcDbLine
 10
762.8017708512797
 20
540.4728756196646
 30
0.0
 11
756.9187312956202
 21
539.9581763514698
 31
0.0
  0
LINE
  5
126
330
17
100
AcDbEntity
  8
0
100
AcDbLine
 10
756.9187312956202
 20
539.9581763514698
 30
0.0
 11
756.1981523201475
 21
548.1944317293921
 31
0.0
  0
LINE
  5
127
330
17
100
AcDbEntity
  8
0
100
AcDbLine
 10
762.081191875807
 20
548.709130997587
 30
0.0
 11
762.081191875807
 21
548.709130997587
 31
0.0
  0
LINE
  5
128
330
17
100
AcDbEntity
  8
0
100
AcDbLine
 10
1471.1474678887942
 20
453.05773231766295
 30
0.0
 11
1479.383723266718
 21
453.77831129313574
 31
0.0
  0
LINE
  5
129
330
17
100
AcDbEntity
  8
0
100
AcDbLine
 10
1479.383723266718
 20
453.77831129313574
 30
0.0
 11
1479.898422534913
 21
447.8952717374767
 31
0.0
  0
LINE
  5
12A
330
17
100
AcDbEntity
  8
0
100
AcDbLine
 10
1479.898422534913
 20
447.8952717374767
 30
0.0
 11
1479.898422534913
 21
447.8952717374767
 31
0.0
  0
LINE
  5
12B
330
17
100
AcDbEntity
  8
0
100
AcDbLine
 10
1479.6410729008155
 20
450.83679151530623
 30
0.0
 11
1569.0632741468473
 21
458.6602203918676
 31
0.0
  0
LINE
  5
12C
330
17
100
AcDbEntity
  8
0
100
AcDbLine
 10
1569.0632741468473
 20
458.6602203918676
 30
0.0
 11
1568.80592451275
 21
461.6017401696971
 31
0.0
  0
LINE
  5
12D
330
17
100
AcDbEntity
  8
0
100
AcDbLine
 10
1568.80592451275
 20
461.6017401696971
 30
0.0
 11
1479.383723266718
 21
453.77831129313574
 31
0.0
  0
LINE
  5
12E
330
17
100
AcDbEntity
  8
0
100
AcDbLine
 10
1479.383723266718
 20
453.77831129313574
 30
0.0
 11
1479.6410729008155
 21
450.83679151530623
 31
0.0
  0
LINE
  5
12F
330
17
100
AcDbEntity
  8
0
100
AcDbLine
 10
1479.6410729008155
 20
450.83679151530623
 30
0.0
 11
1479.6410729008155
 21
450.83679151530623
 31
0.0
  0
LINE
  5
130
330
17
100
AcDbEntity
  8
0
100
AcDbLine
 10
1750.5182420952701
 20
471.571438074439
 30
0.0
 11
1569.3206237809447
 21
455.7187006140381
 31
0.0
  0
LINE
  5
131
330
17
100
AcDbEntity
  8
0
100
AcDbLine
 10
1569.3206237809447
 20
455.7187006140381
 30
0.0
 11
1568.80592451275
 21
461.6017401696971
 31
0.0
  0
LINE
  5
132
330
17
100
AcDbEntity
  8
0
100
AcDbLine
 10
1568.80592451275
 20
461.6017401696971
 30
0.0
 11
1577.0421798906739
 21
462.3223191451699
 31
0.0
  0
LINE
  5
133
330
17
100
AcDbEntity
  8
0
100
AcDbLine
 10
1577.5568791588687
 20
456.4392795895109
 30
0.0
 11
1577.5568791588687
 21
456.4392795895109
 31
0.0
  0
LINE
  5
134
330
17
100
AcDbEntity
  8
0
100
AcDbLine
 10
1212.2937274397596
 20
430.4109645170905
 30
0.0
 11
1220.5299828176828
 21
431.1315434925631
 31
0.0
  0
LINE
  5
135
330
17
100
AcDbEntity
  8
0
100
AcDbLine
 10
1220.5299828176828
 20
431.1315434925631
 30
0.0
 11
1221.0446820858776
 21
425.24850393690406
 31
0.0
  0
LINE
  5
136
330
17
100
AcDbEntity
  8
0
100
AcDbLine
 10
1221.0446820858776
 20
425.24850393690406
 30
0.0
 11
1221.0446820858776
 21
425.24850393690406
 31
0.0
  0
LINE
  5
137
330
17
100
AcDbEntity
  8
0
100
AcDbLine
 10
1220.7873324517802
 20
428.19002371473357
 30
0.0
 11
1310.2095336978127
 21
436.01345259129516
 31
0.0
  0
LINE
  5
138
330
17
100
AcDbEntity
  8
0
100
AcDbLine
 10
1310.2095336978127
 20
436.01345259129516
 30
0.0
 11
1309.9521840637153
 21
438.9549723691247
 31
0.0
  0
LINE
  5
139
330
17
100
AcDbEntity
  8
0
100
AcDbLine
 10
1309.9521840637153
 20
438.9549723691247
 30
0.0
 11
1220.5299828176828
 21
431.1315434925631
 31
0.0
  0
LINE
  5
13A
330
17
100
AcDbEntity
  8
0
100
AcDbLine
 10
1220.5299828176828
 20
431.1315434925631
 30
0.0
 11
1220.7873324517802
 21
428.19002371473357
 31
0.0
  0
LINE
  5
13B
330
17
100
AcDbEntity
  8
0
100
AcDbLine
 10
1220.7873324517802
 20
428.19002371473357
 30
0.0
 11
1220.7873324517802
 21
428.19002371473357
 31
0.0
  0
LINE
  5
13C
330
17
100
AcDbEntity
  8
0
100
AcDbLine
 10
1479.898422534913
 20
447.8952717374767
 30
0.0
 11
1310.4668833319101
 21
433.07193281346565
 31
0.0
  0
LINE
  5
13D
330
17
100
AcDbEntity
  8
0
100
AcDbLine
 10
1310.4668833319101
 20
433.07193281346565
 30
0.0
 11
1309.9521840637153
 21
438.9549723691247
 31
0.0
  0
LINE
  5
13E
330
17
100
AcDbEntity
  8
0
100
AcDbLine
 10
1309.9521840637153
 20
438.9549723691247
 30
0.0
 11
1318.1884394416388
 21
439.67555134459747
 31
0.0
  0
LINE
  5
13F
330
17
100
AcDbEntity
  8
0
100
AcDbLine
 10
1318.7031387098336
 20
433.79251178893844
 30
0.0
 11
1318.7031387098336
 21
433.79251178893844
 31
0.0
  0
LINE
  5
140
330
17
100
AcDbEntity
  8
0
100
AcDbLine
 10
2000.6210278981866
 20
499.3806664551977
 30
0.0
 11
2008.8572832761104
 21
500.1012454306705
 31
0.0
  0
LINE
  5
141
330
17
100
AcDbEntity
  8
0
100
AcDbLine
 10
2008.8572832761104
 20
500.1012454306705
 30
0.0
 11
2009.3719825443052
 21
494.21820587501145
 31
0.0
  0
LINE
  5
142
330
17
100
AcDbEntity
  8
0
100
AcDbLine
 10
2009.3719825443052
 20
494.21820587501145
 30
0.0
 11
2009.3719825443052
 21
494.21820587501145
 31
0.0
  0
LINE
  5
143
330
17
100
AcDbEntity
  8
0
100
AcDbLine
 10
2009.1146329102078
 20
497.15972565284096
 30
0.0
 11
2097.3288500341423
 21
504.8774696129997
 31
0.0
  0
LINE
  5
144
330
17
100
AcDbEntity
  8
0
100
AcDbLine
 10
2097.071500400045
 20
507.8189893908292
 30
0.0
 11
2008.8572832761104
 21
500.1012454306705
 31
0.0
  0
LINE
  5
145
330
17
100
AcDbEntity
  8
0
100
AcDbLine
 10
2008.8572832761104
 20
500.1012454306705
 30
0.0
 11
2009.1146329102078
 21
497.15972565284096
 31
0.0
  0
LINE
  5
146
330
17
100
AcDbEntity
  8
0
100
AcDbLine
 10
2009.1146329102078
 20
497.15972565284096
 30
0.0
 11
2009.1146329102078
 21
497.15972565284096
 31
0.0
  0
LINE
  5
147
330
17
100
AcDbEntity
  8
0
100
AcDbLine
 10
1741.7672874491516
 20
476.73389865462525
 30
0.0
 11
1750.0035428270753
 21
477.45447763009804
 31
0.0
  0
LINE
  5
148
330
17
100
AcDbEntity
  8
0
100
AcDbLine
 10
1750.0035428270753
 20
477.45447763009804
 30
0.0
 11
1750.5182420952701
 21
471.571438074439
 31
0.0
  0
LINE
  5
149
330
17
100
AcDbEntity
  8
0
100
AcDbLine
 10
1750.5182420952701
 20
471.571438074439
 30
0.0
 11
1750.5182420952701
 21
471.571438074439
 31
0.0
  0
LINE
  5
14A
330
17
100
AcDbEntity
  8
0
100
AcDbLine
 10
1750.2608924611727
 20
474.5129578522685
 30
0.0
 11
1839.6830937072057
 21
482.3363867288301
 31
0.0
  0
LINE
  5
14B
330
17
100
AcDbEntity
  8
0
100
AcDbLine
 10
1839.6830937072057
 20
482.3363867288301
 30
0.0
 11
1839.4257440731083
 21
485.27790650665963
 31
0.0
  0
LINE
  5
14C
330
17
100
AcDbEntity
  8
0
100
AcDbLine
 10
1839.4257440731083
 20
485.27790650665963
 30
0.0
 11
1750.0035428270753
 21
477.45447763009804
 31
0.0
  0
LINE
  5
14D
330
17
100
AcDbEntity
  8
0
100
AcDbLine
 10
1750.0035428270753
 20
477.45447763009804
 30
0.0
 11
1750.2608924611727
 21
474.5129578522685
 31
0.0
  0
LINE
  5
14E
330
17
100
AcDbEntity
  8
0
100
AcDbLine
 10
1750.2608924611727
 20
474.5129578522685
 30
0.0
 11
1750.2608924611727
 21
474.5129578522685
 31
0.0
  0
LINE
  5
14F
330
17
100
AcDbEntity
  8
0
100
AcDbLine
 10
2009.3719825443052
 20
494.21820587501145
 30
0.0
 11
1839.940443341303
 21
479.3948669510006
 31
0.0
  0
LINE
  5
150
330
17
100
AcDbEntity
  8
0
100
AcDbLine
 10
1839.940443341303
 20
479.3948669510006
 30
0.0
 11
1839.4257440731083
 21
485.27790650665963
 31
0.0
  0
LINE
  5
151
330
17
100
AcDbEntity
  8
0
100
AcDbLine
 10
1839.4257440731083
 20
485.27790650665963
 30
0.0
 11
1847.661999451031
 21
485.9984854821324
 31
0.0
  0
LINE
  5
152
330
17
100
AcDbEntity
  8
0
100
AcDbLine
 10
1848.176698719226
 20
480.1154459264734
 30
0.0
 11
1848.176698719226
 21
480.1154459264734
 31
0.0
  0
LINE
  5
153
330
17
100
AcDbEntity
  8
0
100
AcDbLine
 10
835.6591303945853
 20
750.7726734264096
 30
0.0
 11
835.5935680761614
 21
751.2958483068779
 31
0.0
  0
LINE
  5
154
330
17
100
AcDbEntity
  8
0
100
AcDbLine
 10
835.5935680761614
 20
751.2958483068779
 30
0.0
 11
835.4890921754973
 21
751.8126608060797
 31
0.0
  0
LINE
  5
155
330
17
100
AcDbEntity
  8
0
100
AcDbLine
 10
835.4890921754973
 20
751.8126608060797
 30
0.0
 11
835.3462869642093
 21
752.3202206988801
 31
0.0
  0
LINE
  5
156
330
17
100
AcDbEntity
  8
0
100
AcDbLine
 10
835.3462869642093
 20
752.3202206988801
 30
0.0
 11
835.165951066966
 21
752.8156895044734
 31
0.0
  0
LINE
  5
157
330
17
100
AcDbEntity
  8
0
100
AcDbLine
 10
835.165951066966
 20
752.8156895044734
 30
0.0
 11
834.9490929952556
 21
753.2962963603176
 31
0.0
  0
LINE
  5
158
330
17
100
AcDbEntity
  8
0
100
AcDbLine
 10
834.9490929952556
 20
753.2962963603176
 30
0.0
 11
834.6969255073813
 21
753.7593535179234
 31
0.0
  0
LINE
  5
159
330
17
100
AcDbEntity
  8
0
100
AcDbLine
 10
834.6969255073813
 20
753.7593535179234
 30
0.0
 11
834.4108588262235
 21
754.2022713738311
 31
0.0
  0
LINE
  5
15A
330
17
100
AcDbEntity
  8
0
100
AcDbLine
 10
834.4108588262235
 20
754.2022713738311
 30
0.0
 11
834.0924927527029
 21
754.6225729517266
 31
0.0
  0
LINE
  5
15B
330
17
100
AcDbEntity
  8
0
100
AcDbLine
 10
834.0924927527029
 20
754.6225729517266
 30
0.0
 11
833.7436077190439
 21
755.0179077546973
 31
0.0
  0
LINE
  5
15C
330
17
100
AcDbEntity
  8
0
100
AcDbLine
 10
833.7436077190439
 20
755.0179077546973
 30
0.0
 11
833.3661548318753
 21
755.3860649101599
 31
0.0
  0
LINE
  5
15D
330
17
100
AcDbEntity
  8
0
100
AcDbLine
 10
833.3661548318753
 20
755.3860649101599
 30
0.0
 11
832.9622449608516
 21
755.7249855339647
 31
0.0
  0
LINE
  5
15E
330
17
100
AcDbEntity
  8
0
100
AcDbLine
 10
832.9622449608516
 20
755.7249855339647
 30
0.0
 11
832.5341369338129
 21
756.0327742445039
 31
0.0
  0
LINE
  5
15F
330
17
100
AcDbEntity
  8
0
100
AcDbLine
 10
832.5341369338129
 20
756.0327742445039
 30
0.0
 11
832.0842249045022
 21
756.3077097624572
 31
0.0
  0
LINE
  5
160
330
17
100
AcDbEntity
  8
0
100
AcDbLine
 10
832.0842249045022
 20
756.3077097624572
 30
0.0
 11
831.6150249634894
 21
756.5482545368841
 31
0.0
  0
LINE
  5
161
330
17
100
AcDbEntity
  8
0
100
AcDbLine
 10
831.6150249634894
 20
756.5482545368841
 30
0.0
 11
831.1291610671698
 21
756.7530633438319
 31
0.0
  0
LINE
  5
162
330
17
100
AcDbEntity
  8
0
100
AcDbLine
 10
831.1291610671698
 20
756.7530633438319
 30
0.0
 11
830.6293503635361
 21
756.9209908093743
 31
0.0
  0
LINE
  5
163
330
17
100
AcDbEntity
  8
0
100
AcDbLine
 10
830.6293503635361
 20
756.9209908093743
 30
0.0
 11
830.1183879967847
 21
757.0510978150066
 31
0.0
  0
LINE
  5
164
330
17
100
AcDbEntity
  8
0
100
AcDbLine
 10
830.1183879967847
 20
757.0510978150066
 30
0.0
 11
829.5991314757366
 21
757.1426567495762
 31
0.0
  0
LINE
  5
165
330
17
100
AcDbEntity
  8
0
100
AcDbLine
 10
829.5991314757366
 20
757.1426567495762
 30
0.0
 11
829.0744846934872
 21
757.1951555783814
 31
0.0
  0
LINE
  5
166
330
17
100
AcDbEntity
  8
0
100
AcDbLine
 10
829.0744846934872
 20
757.1951555783814
 30
0.0
 11
828.5473816876593
 21
757.2083007066761
 31
0.0
  0
LINE
  5
167
330
17
100
AcDbEntity
  8
0
100
AcDbLine
 10
828.5473816876593
 20
757.2083007066761
 30
0.0
 11
828.0207702320747
 21
757.1820186215713
 31
0.0
  0
LINE
  5
168
330
17
100
AcDbEntity
  8
0
100
AcDbLine
 10
828.0207702320747
 20
757.1820186215713
 30
0.0
 11
827.497595351606
 21
757.1164563031471
 31
0.0
  0
LINE
  5
169
330
17
100
AcDbEntity
  8
0
100
AcDbLine
 10
827.497595351606
 20
757.1164563031471
 30
0.0
 11
826.9807828524042
 21
757.0119804024833
 31
0.0
  0
LINE
  5
16A
330
17
100
AcDbEntity
  8
0
100
AcDbLine
 10
826.9807828524042
 20
757.0119804024833
 30
0.0
 11
826.473222959604
 21
756.8691751911955
 31
0.0
  0
LINE
  5
16B
330
17
100
AcDbEntity
  8
0
100
AcDbLine
 10
826.473222959604
 20
756.8691751911955
 30
0.0
 11
825.9777541540108
 21
756.6888392939521
 31
0.0
  0
LINE
  5
16C
330
17
100
AcDbEntity
  8
0
100
AcDbLine
 10
825.9777541540108
 20
756.6888392939521
 30
0.0
 11
825.4971472981665
 21
756.4719812222415
 31
0.0
  0
LINE
  5
16D
330
17
100
AcDbEntity
  8
0
100
AcDbLine
 10
825.4971472981665
 20
756.4719812222415
 30
0.0
 11
825.0340901405611
 21
756.2198137343672
 31
0.0
  0
LINE
  5
16E
330
17
100
AcDbEntity
  8
0
100
AcDbLine
 10
825.0340901405611
 20
756.2198137343672
 30
0.0
 11
824.5911722846531
 21
755.9337470532096
 31
0.0
  0
LINE
  5
16F
330
17
100
AcDbEntity
  8
0
100
AcDbLine
 10
824.5911722846531
 20
755.9337470532096
 30
0.0
 11
824.1708707067573
 21
755.6153809796892
 31
0.0
  0
LINE
  5
170
330
17
100
AcDbEntity
  8
0
100
AcDbLine
 10
824.1708707067573
 20
755.6153809796892
 30
0.0
 11
823.7755359037876
 21
755.2664959460302
 31
0.0
  0
LINE
  5
171
330
17
100
AcDbEntity
  8
0
100
AcDbLine
 10
823.7755359037876
 20
755.2664959460302
 30
0.0
 11
823.4073787483244
 21
754.8890430588617
 31
0.0
  0
LINE
  5
172
330
17
100
AcDbEntity
  8
0
100
AcDbLine
 10
823.4073787483244
 20
754.8890430588617
 30
0.0
 11
823.0684581245196
 21
754.4851331878381
 31
0.0
  0
LINE
  5
173
330
17
100
AcDbEntity
  8
0
100
AcDbLine
 10
823.0684581245196
 20
754.4851331878381
 30
0.0
 11
822.7606694139806
 21
754.0570251607995
 31
0.0
  0
LINE
  5
174
330
17
100
AcDbEntity
  8
0
100
AcDbLine
 10
822.7606694139806
 20
754.0570251607995
 30
0.0
 11
822.4857338960272
 21
753.6071131314884
 31
0.0
  0
LINE
  5
175
330
17
100
AcDbEntity
  8
0
100
AcDbLine
 10
822.4857338960272
 20
753.6071131314884
 30
0.0
 11
822.2451891216001
 21
753.1379131904757
 31
0.0
  0
LINE
  5
176
330
17
100
AcDbEntity
  8
0
100
AcDbLine
 10
822.2451891216001
 20
753.1379131904757
 30
0.0
 11
822.040380314652
 21
752.6520492941561
 31
0.0
  0
LINE
  5
177
330
17
100
AcDbEntity
  8
0
100
AcDbLine
 10
822.040380314652
 20
752.6520492941561
 30
0.0
 11
821.8724528491094
 21
752.1522385905218
 31
0.0
  0
LINE
  5
178
330
17
100
AcDbEntity
  8
0
100
AcDbLine
 10
821.8724528491094
 20
752.1522385905218
 30
0.0
 11
821.7423458434776
 21
751.6412762237708
 31
0.0
  0
LINE
  5
179
330
17
100
AcDbEntity
  8
0
100
AcDbLine
 10
821.7423458434776
 20
751.6412762237708
 30
0.0
 11
821.6507869089081
 21
751.1220197027226
 31
0.0
  0
LINE
  5
17A
330
17
100
AcDbEntity
  8
0
100
AcDbLine
 10
821.6507869089081
 20
751.1220197027226
 30
0.0
 11
821.5982880801027
 21
750.5973729204733
 31
0.0
  0
LINE
  5
17B
330
17
100
AcDbEntity
  8
0
100
AcDbLine
 10
821.5982880801027
 20
750.5973729204733
 30
0.0
 11
821.5851429518077
 21
750.0702699146452
 31
0.0
  0
LINE
  5
17C
330
17
100
AcDbEntity
  8
0
100
AcDbLine
 10
821.5851429518077
 20
750.0702699146452
 30
0.0
 11
821.6114250369127
 21
749.5436584590609
 31
0.0
  0
LINE
  5
17D
330
17
100
AcDbEntity
  8
0
100
AcDbLine
 10
821.6114250369127
 20
749.5436584590609
 30
0.0
 11
821.6769873553368
 21
749.0204835785921
 31
0.0
  0
LINE
  5
17E
330
17
100
AcDbEntity
  8
0
100
AcDbLine
 10
821.6769873553368
 20
749.0204835785921
 30
0.0
 11
821.7814632560007
 21
748.5036710793906
 31
0.0
  0
LINE
  5
17F
330
17
100
AcDbEntity
  8
0
100
AcDbLine
 10
821.7814632560007
 20
748.5036710793906
 30
0.0
 11
821.9242684672889
 21
747.9961111865897
 31
0.0
  0
LINE
  5
180
330
17
100
AcDbEntity
  8
0
100
AcDbLine
 10
821.9242684672889
 20
747.9961111865897
 30
0.0
 11
822.104604364532
 21
747.5006423809971
 31
0.0
  0
LINE
  5
181
330
17
100
AcDbEntity
  8
0
100
AcDbLine
 10
822.104604364532
 20
747.5006423809971
 30
0.0
 11
822.3214624362423
 21
747.0200355251529
 31
0.0
  0
LINE
  5
182
330
17
100
AcDbEntity
  8
0
100
AcDbLine
 10
822.3214624362423
 20
747.0200355251529
 30
0.0
 11
822.5736299241167
 21
746.5569783675476
 31
0.0
  0
LINE
  5
183
330
17
100
AcDbEntity
  8
0
100
AcDbLine
 10
822.5736299241167
 20
746.5569783675476
 30
0.0
 11
822.8596966052745
 21
746.1140605116392
 31
0.0
  0
LINE
  5
184
330
17
100
AcDbEntity
  8
0
100
AcDbLine
 10
822.8596966052745
 20
746.1140605116392
 30
0.0
 11
823.1780626787952
 21
745.6937589337433
 31
0.0
  0
LINE
  5
185
330
17
100
AcDbEntity
  8
0
100
AcDbLine
 10
823.1780626787952
 20
745.6937589337433
 30
0.0
 11
823.5269477124543
 21
745.2984241307736
 31
0.0
  0
LINE
  5
186
330
17
100
AcDbEntity
  8
0
100
AcDbLine
 10
823.5269477124543
 20
745.2984241307736
 30
0.0
 11
823.9044005996225
 21
744.930266975311
 31
0.0
  0
LINE
  5
187
330
17
100
AcDbEntity
  8
0
100
AcDbLine
 10
823.9044005996225
 20
744.930266975311
 30
0.0
 11
824.3083104706463
 21
744.5913463515058
 31
0.0
  0
LINE
  5
188
330
17
100
AcDbEntity
  8
0
100
AcDbLine
 10
824.3083104706463
 20
744.5913463515058
 30
0.0
 11
824.7364184976852
 21
744.2835576409664
 31
0.0
  0
LINE
  5
189
330
17
100
AcDbEntity
  8
0
100
AcDbLine
 10
824.7364184976852
 20
744.2835576409664
 30
0.0
 11
825.1863305269956
 21
744.0086221230133
 31
0.0
  0
LINE
  5
18A
330
17
100
AcDbEntity
  8
0
100
AcDbLine
 10
825.1863305269956
 20
744.0086221230133
 30
0.0
 11
825.6555304680085
 21
743.7680773485864
 31
0.0
  0
LINE
  5
18B
330
17
100
AcDbEntity
  8
0
100
AcDbLine
 10
825.6555304680085
 20
743.7680773485864
 30
0.0
 11
826.1413943643283
 21
743.5632685416385
 31
0.0
  0
LINE
  5
18C
330
17
100
AcDbEntity
  8
0
100
AcDbLine
 10
826.1413943643283
 20
743.5632685416385
 30
0.0
 11
826.6412050679622
 21
743.3953410760956
 31
0.0
  0
LINE
  5
18D
330
17
100
AcDbEntity
  8
0
100
AcDbLine
 10
826.6412050679622
 20
743.3953410760956
 30
0.0
 11
827.1521674347134
 21
743.2652340704633
 31
0.0
  0
LINE
  5
18E
330
17
100
AcDbEntity
  8
0
100
AcDbLine
 10
827.1521674347134
 20
743.2652340704633
 30
0.0
 11
827.6714239557615
 21
743.1736751358942
 31
0.0
  0
LINE
  5
18F
330
17
100
AcDbEntity
  8
0
100
AcDbLine
 10
827.6714239557615
 20
743.1736751358942
 30
0.0
 11
828.1960707380108
 21
743.121176307089
 31
0.0
  0
LINE
  5
190
330
17
100
AcDbEntity
  8
0
100
AcDbLine
 10
828.1960707380108
 20
743.121176307089
 30
0.0
 11
828.7231737438386
 21
743.1080311787938
 31
0.0
  0
LINE
  5
191
330
17
100
AcDbEntity
  8
0
100
AcDbLine
 10
828.7231737438386
 20
743.1080311787938
 30
0.0
 11
829.2497851994234
 21
743.1343132638985
 31
0.0
  0
LINE
  5
192
330
17
100
AcDbEntity
  8
0
100
AcDbLine
 10
829.2497851994234
 20
743.1343132638985
 30
0.0
 11
829.7729600798918
 21
743.1998755823229
 31
0.0
  0
LINE
  5
193
330
17
100
AcDbEntity
  8
0
100
AcDbLine
 10
829.7729600798918
 20
743.1998755823229
 30
0.0
 11
830.2897725790937
 21
743.3043514829872
 31
0.0
  0
LINE
  5
194
330
17
100
AcDbEntity
  8
0
100
AcDbLine
 10
830.2897725790937
 20
743.3043514829872
 30
0.0
 11
830.7973324718942
 21
743.447156694275
 31
0.0
  0
LINE
  5
195
330
17
100
AcDbEntity
  8
0
100
AcDbLine
 10
830.7973324718942
 20
743.447156694275
 30
0.0
 11
831.2928012774873
 21
743.6274925915178
 31
0.0
  0
LINE
  5
196
330
17
100
AcDbEntity
  8
0
100
AcDbLine
 10
831.2928012774873
 20
743.6274925915178
 30
0.0
 11
831.7734081333318
 21
743.8443506632284
 31
0.0
  0
LINE
  5
197
330
17
100
AcDbEntity
  8
0
100
AcDbLine
 10
831.7734081333318
 20
743.8443506632284
 30
0.0
 11
832.2364652909371
 21
744.0965181511033
 31
0.0
  0
LINE
  5
198
330
17
100
AcDbEntity
  8
0
100
AcDbLine
 10
832.2364652909371
 20
744.0965181511033
 30
0.0
 11
832.6793831468448
 21
744.3825848322608
 31
0.0
  0
LINE
  5
199
330
17
100
AcDbEntity
  8
0
100
AcDbLine
 10
832.6793831468448
 20
744.3825848322608
 30
0.0
 11
833.0996847247404
 21
744.7009509057812
 31
0.0
  0
LINE
  5
19A
330
17
100
AcDbEntity
  8
0
100
AcDbLine
 10
833.0996847247404
 20
744.7009509057812
 30
0.0
 11
833.4950195277105
 21
745.0498359394401
 31
0.0
  0
LINE
  5
19B
330
17
100
AcDbEntity
  8
0
100
AcDbLine
 10
833.4950195277105
 20
745.0498359394401
 30
0.0
 11
833.8631766831736
 21
745.4272888266087
 31
0.0
  0
LINE
  5
19C
330
17
100
AcDbEntity
  8
0
100
AcDbLine
 10
833.8631766831736
 20
745.4272888266087
 30
0.0
 11
834.2020973069783
 21
745.8311986976328
 31
0.0
  0
LINE
  5
19D
330
17
100
AcDbEntity
  8
0
100
AcDbLine
 10
834.2020973069783
 20
745.8311986976328
 30
0.0
 11
834.5098860175176
 21
746.2593067246714
 31
0.0
  0
LINE
  5
19E
330
17
100
AcDbEntity
  8
0
100
AcDbLine
 10
834.5098860175176
 20
746.2593067246714
 30
0.0
 11
834.7848215354709
 21
746.7092187539815
 31
0.0
  0
LINE
  5
19F
330
17
100
AcDbEntity
  8
0
100
AcDbLine
 10
834.7848215354709
 20
746.7092187539815
 30
0.0
 11
835.0253663098979
 21
747.1784186949945
 31
0.0
  0
LINE
  5
1A0
330
17
100
AcDbEntity
  8
0
100
AcDbLine
 10
835.0253663098979
 20
747.1784186949945
 30
0.0
 11
835.230175116846
 21
747.6642825913148
 31
0.0
  0
LINE
  5
1A1
330
17
100
AcDbEntity
  8
0
100
AcDbLine
 10
835.230175116846
 20
747.6642825913148
 30
0.0
 11
835.3981025823884
 21
748.1640932949485
 31
0.0
  0
LINE
  5
1A2
330
17
100
AcDbEntity
  8
0
100
AcDbLine
 10
835.3981025823884
 20
748.1640932949485
 30
0.0
 11
835.5282095880204
 21
748.6750556616996
 31
0.0
  0
LINE
  5
1A3
330
17
100
AcDbEntity
  8
0
100
AcDbLine
 10
835.5282095880204
 20
748.6750556616996
 30
0.0
 11
835.6197685225901
 21
749.1943121827472
 31
0.0
  0
LINE
  5
1A4
330
17
100
AcDbEntity
  8
0
100
AcDbLine
 10
835.6197685225901
 20
749.1943121827472
 30
0.0
 11
835.6722673513952
 21
749.7189589649972
 31
0.0
  0
LINE
  5
1A5
330
17
100
AcDbEntity
  8
0
100
AcDbLine
 10
835.6722673513952
 20
749.7189589649972
 30
0.0
 11
835.6854124796905
 21
750.2460619708248
 31
0.0
  0
LINE
  5
1A6
330
17
100
AcDbEntity
  8
0
100
AcDbLine
 10
835.6854124796905
 20
750.2460619708248
 30
0.0
 11
835.6591303945853
 21
750.7726734264096
 31
0.0
  0
LINE
  5
1A7
330
17
100
AcDbEntity
  8
0
100
AcDbLine
 10
637.6988509221518
 20
1089.1375875492718
 30
0.0
 11
637.6332886037278
 21
1089.6607624297396
 31
0.0
  0
LINE
  5
1A8
330
17
100
AcDbEntity
  8
0
100
AcDbLine
 10
637.6332886037278
 20
1089.6607624297396
 30
0.0
 11
637.5288127030637
 21
1090.177574928942
 31
0.0
  0
LINE
  5
1A9
330
17
100
AcDbEntity
  8
0
100
AcDbLine
 10
637.5288127030637
 20
1090.177574928942
 30
0.0
 11
637.3860074917759
 21
1090.6851348217422
 31
0.0
  0
LINE
  5
1AA
330
17
100
AcDbEntity
  8
0
100
AcDbLine
 10
637.3860074917759
 20
1090.6851348217422
 30
0.0
 11
637.2056715945323
 21
1091.1806036273351
 31
0.0
  0
LINE
  5
1AB
330
17
100
AcDbEntity
  8
0
100
AcDbLine
 10
637.2056715945323
 20
1091.1806036273351
 30
0.0
 11
636.988813522822
 21
1091.6612104831793
 31
0.0
  0
LINE
  5
1AC
330
17
100
AcDbEntity
  8
0
100
AcDbLine
 10
636.988813522822
 20
1091.6612104831793
 30
0.0
 11
636.7366460349475
 21
1092.1242676407855
 31
0.0
  0
LINE
  5
1AD
330
17
100
AcDbEntity
  8
0
100
AcDbLine
 10
636.7366460349475
 20
1092.1242676407855
 30
0.0
 11
636.4505793537899
 21
1092.5671854966934
 31
0.0
  0
LINE
  5
1AE
330
17
100
AcDbEntity
  8
0
100
AcDbLine
 10
636.4505793537899
 20
1092.5671854966934
 30
0.0
 11
636.1322132802693
 21
1092.9874870745884
 31
0.0
  0
LINE
  5
1AF
330
17
100
AcDbEntity
  8
0
100
AcDbLine
 10
636.1322132802693
 20
1092.9874870745884
 30
0.0
 11
635.7833282466104
 21
1093.3828218775586
 31
0.0
  0
LINE
  5
1B0
330
17
100
AcDbEntity
  8
0
100
AcDbLine
 10
635.7833282466104
 20
1093.3828218775586
 30
0.0
 11
635.4058753594418
 21
1093.7509790330216
 31
0.0
  0
LINE
  5
1B1
330
17
100
AcDbEntity
  8
0
100
AcDbLine
 10
635.4058753594418
 20
1093.7509790330216
 30
0.0
 11
635.0019654884181
 21
1094.089899656827
 31
0.0
  0
LINE
  5
1B2
330
17
100
AcDbEntity
  8
0
100
AcDbLine
 10
635.0019654884181
 20
1094.089899656827
 30
0.0
 11
634.5738574613792
 21
1094.3976883673654
 31
0.0
  0
LINE
  5
1B3
330
17
100
AcDbEntity
  8
0
100
AcDbLine
 10
634.5738574613792
 20
1094.3976883673654
 30
0.0
 11
634.1239454320687
 21
1094.6726238853194
 31
0.0
  0
LINE
  5
1B4
330
17
100
AcDbEntity
  8
0
100
AcDbLine
 10
634.1239454320687
 20
1094.6726238853194
 30
0.0
 11
633.6547454910559
 21
1094.913168659746
 31
0.0
  0
LINE
  5
1B5
330
17
100
AcDbEntity
  8
0
100
AcDbLine
 10
633.6547454910559
 20
1094.913168659746
 30
0.0
 11
633.1688815947363
 21
1095.1179774666941
 31
0.0
  0
LINE
  5
1B6
330
17
100
AcDbEntity
  8
0
100
AcDbLine
 10
633.1688815947363
 20
1095.1179774666941
 30
0.0
 11
632.6690708911021
 21
1095.2859049322362
 31
0.0
  0
LINE
  5
1B7
330
17
100
AcDbEntity
  8
0
100
AcDbLine
 10
632.6690708911021
 20
1095.2859049322362
 30
0.0
 11
632.158108524351
 21
1095.416011937869
 31
0.0
  0
LINE
  5
1B8
330
17
100
AcDbEntity
  8
0
100
AcDbLine
 10
632.158108524351
 20
1095.416011937869
 30
0.0
 11
631.6388520033028
 21
1095.5075708724385
 31
0.0
  0
LINE
  5
1B9
330
17
100
AcDbEntity
  8
0
100
AcDbLine
 10
631.6388520033028
 20
1095.5075708724385
 30
0.0
 11
631.1142052210535
 21
1095.5600697012437
 31
0.0
  0
LINE
  5
1BA
330
17
100
AcDbEntity
  8
0
100
AcDbLine
 10
631.1142052210535
 20
1095.5600697012437
 30
0.0
 11
630.5871022152257
 21
1095.5732148295385
 31
0.0
  0
LINE
  5
1BB
330
17
100
AcDbEntity
  8
0
100
AcDbLine
 10
630.5871022152257
 20
1095.5732148295385
 30
0.0
 11
630.0604907596411
 21
1095.5469327444332
 31
0.0
  0
LINE
  5
1BC
330
17
100
AcDbEntity
  8
0
100
AcDbLine
 10
630.0604907596411
 20
1095.5469327444332
 30
0.0
 11
629.5373158791724
 21
1095.4813704260093
 31
0.0
  0
LINE
  5
1BD
330
17
100
AcDbEntity
  8
0
100
AcDbLine
 10
629.5373158791724
 20
1095.4813704260093
 30
0.0
 11
629.0205033799707
 21
1095.3768945253455
 31
0.0
  0
LINE
  5
1BE
330
17
100
AcDbEntity
  8
0
100
AcDbLine
 10
629.0205033799707
 20
1095.3768945253455
 30
0.0
 11
628.5129434871704
 21
1095.2340893140577
 31
0.0
  0
LINE
  5
1BF
330
17
100
AcDbEntity
  8
0
100
AcDbLine
 10
628.5129434871704
 20
1095.2340893140577
 30
0.0
 11
628.0174746815773
 21
1095.0537534168145
 31
0.0
  0
LINE
  5
1C0
330
17
100
AcDbEntity
  8
0
100
AcDbLine
 10
628.0174746815773
 20
1095.0537534168145
 30
0.0
 11
627.536867825733
 21
1094.8368953451034
 31
0.0
  0
LINE
  5
1C1
330
17
100
AcDbEntity
  8
0
100
AcDbLine
 10
627.536867825733
 20
1094.8368953451034
 30
0.0
 11
627.0738106681275
 21
1094.5847278572294
 31
0.0
  0
LINE
  5
1C2
330
17
100
AcDbEntity
  8
0
100
AcDbLine
 10
627.0738106681275
 20
1094.5847278572294
 30
0.0
 11
626.6308928122197
 21
1094.2986611760714
 31
0.0
  0
LINE
  5
1C3
330
17
100
AcDbEntity
  8
0
100
AcDbLine
 10
626.6308928122197
 20
1094.2986611760714
 30
0.0
 11
626.2105912343238
 21
1093.9802951025515
 31
0.0
  0
LINE
  5
1C4
330
17
100
AcDbEntity
  8
0
100
AcDbLine
 10
626.2105912343238
 20
1093.9802951025515
 30
0.0
 11
625.8152564313539
 21
1093.6314100688917
 31
0.0
  0
LINE
  5
1C5
330
17
100
AcDbEntity
  8
0
100
AcDbLine
 10
625.8152564313539
 20
1093.6314100688917
 30
0.0
 11
625.4470992758909
 21
1093.253957181724
 31
0.0
  0
LINE
  5
1C6
330
17
100
AcDbEntity
  8
0
100
AcDbLine
 10
625.4470992758909
 20
1093.253957181724
 30
0.0
 11
625.1081786520859
 21
1092.8500473107
 31
0.0
  0
LINE
  5
1C7
330
17
100
AcDbEntity
  8
0
100
AcDbLine
 10
625.1081786520859
 20
1092.8500473107
 30
0.0
 11
624.8003899415467
 21
1092.4219392836608
 31
0.0
  0
LINE
  5
1C8
330
17
100
AcDbEntity
  8
0
100
AcDbLine
 10
624.8003899415467
 20
1092.4219392836608
 30
0.0
 11
624.5254544235936
 21
1091.9720272543502
 31
0.0
  0
LINE
  5
1C9
330
17
100
AcDbEntity
  8
0
100
AcDbLine
 10
624.5254544235936
 20
1091.9720272543502
 30
0.0
 11
624.2849096491666
 21
1091.5028273133382
 31
0.0
  0
LINE
  5
1CA
330
17
100
AcDbEntity
  8
0
100
AcDbLine
 10
624.2849096491666
 20
1091.5028273133382
 30
0.0
 11
624.0801008422185
 21
1091.0169634170184
 31
0.0
  0
LINE
  5
1CB
330
17
100
AcDbEntity
  8
0
100
AcDbLine
 10
624.0801008422185
 20
1091.0169634170184
 30
0.0
 11
623.912173376676
 21
1090.5171527133837
 31
0.0
  0
LINE
  5
1CC
330
17
100
AcDbEntity
  8
0
100
AcDbLine
 10
623.912173376676
 20
1090.5171527133837
 30
0.0
 11
623.782066371044
 21
1090.0061903466326
 31
0.0
  0
LINE
  5
1CD
330
17
100
AcDbEntity
  8
0
100
AcDbLine
 10
623.782066371044
 20
1090.0061903466326
 30
0.0
 11
623.6905074364743
 21
1089.4869338255846
 31
0.0
  0
LINE
  5
1CE
330
17
100
AcDbEntity
  8
0
100
AcDbLine
 10
623.6905074364743
 20
1089.4869338255846
 30
0.0
 11
623.638008607669
 21
1088.9622870433354
 31
0.0
  0
LINE
  5
1CF
330
17
100
AcDbEntity
  8
0
100
AcDbLine
 10
623.638008607669
 20
1088.9622870433354
 30
0.0
 11
623.6248634793742
 21
1088.435184037507
 31
0.0
  0
LINE
  5
1D0
330
17
100
AcDbEntity
  8
0
100
AcDbLine
 10
623.6248634793742
 20
1088.435184037507
 30
0.0
 11
623.651145564479
 21
1087.9085725819232
 31
0.0
  0
LINE
  5
1D1
330
17
100
AcDbEntity
  8
0
100
AcDbLine
 10
623.651145564479
 20
1087.9085725819232
 30
0.0
 11
623.7167078829033
 21
1087.385397701454
 31
0.0
  0
LINE
  5
1D2
330
17
100
AcDbEntity
  8
0
100
AcDbLine
 10
623.7167078829033
 20
1087.385397701454
 30
0.0
 11
623.821183783567
 21
1086.868585202253
 31
0.0
  0
LINE
  5
1D3
330
17
100
AcDbEntity
  8
0
100
AcDbLine
 10
623.821183783567
 20
1086.868585202253
 30
0.0
 11
623.963988994855
 21
1086.361025309452
 31
0.0
  0
LINE
  5
1D4
330
17
100
AcDbEntity
  8
0
100
AcDbLine
 10
623.963988994855
 20
1086.361025309452
 30
0.0
 11
624.1443248920986
 21
1085.865556503859
 31
0.0
  0
LINE
  5
1D5
330
17
100
AcDbEntity
  8
0
100
AcDbLine
 10
624.1443248920986
 20
1085.865556503859
 30
0.0
 11
624.3611829638088
 21
1085.3849496480148
 31
0.0
  0
LINE
  5
1D6
330
17
100
AcDbEntity
  8
0
100
AcDbLine
 10
624.3611829638088
 20
1085.3849496480148
 30
0.0
 11
624.6133504516832
 21
1084.9218924904094
 31
0.0
  0
LINE
  5
1D7
330
17
100
AcDbEntity
  8
0
100
AcDbLine
 10
624.6133504516832
 20
1084.9218924904094
 30
0.0
 11
624.8994171328409
 21
1084.4789746345016
 31
0.0
  0
LINE
  5
1D8
330
17
100
AcDbEntity
  8
0
100
AcDbLine
 10
624.8994171328409
 20
1084.4789746345016
 30
0.0
 11
625.2177832063614
 21
1084.058673056606
 31
0.0
  0
LINE
  5
1D9
330
17
100
AcDbEntity
  8
0
100
AcDbLine
 10
625.2177832063614
 20
1084.058673056606
 30
0.0
 11
625.5666682400204
 21
1083.6633382536359
 31
0.0
  0
LINE
  5
1DA
330
17
100
AcDbEntity
  8
0
100
AcDbLine
 10
625.5666682400204
 20
1083.6633382536359
 30
0.0
 11
625.944121127189
 21
1083.2951810981729
 31
0.0
  0
LINE
  5
1DB
330
17
100
AcDbEntity
  8
0
100
AcDbLine
 10
625.944121127189
 20
1083.2951810981729
 30
0.0
 11
626.3480309982128
 21
1082.956260474368
 31
0.0
  0
LINE
  5
1DC
330
17
100
AcDbEntity
  8
0
100
AcDbLine
 10
626.3480309982128
 20
1082.956260474368
 30
0.0
 11
626.7761390252515
 21
1082.6484717638293
 31
0.0
  0
LINE
  5
1DD
330
17
100
AcDbEntity
  8
0
100
AcDbLine
 10
626.7761390252515
 20
1082.6484717638293
 30
0.0
 11
627.226051054562
 21
1082.3735362458756
 31
0.0
  0
LINE
  5
1DE
330
17
100
AcDbEntity
  8
0
100
AcDbLine
 10
627.226051054562
 20
1082.3735362458756
 30
0.0
 11
627.695250995575
 21
1082.1329914714481
 31
0.0
  0
LINE
  5
1DF
330
17
100
AcDbEntity
  8
0
100
AcDbLine
 10
627.695250995575
 20
1082.1329914714481
 30
0.0
 11
628.1811148918948
 21
1081.9281826645004
 31
0.0
  0
LINE
  5
1E0
330
17
100
AcDbEntity
  8
0
100
AcDbLine
 10
628.1811148918948
 20
1081.9281826645004
 30
0.0
 11
628.6809255955287
 21
1081.7602551989576
 31
0.0
  0
LINE
  5
1E1
330
17
100
AcDbEntity
  8
0
100
AcDbLine
 10
628.6809255955287
 20
1081.7602551989576
 30
0.0
 11
629.1918879622797
 21
1081.6301481933256
 31
0.0
  0
LINE
  5
1E2
330
17
100
AcDbEntity
  8
0
100
AcDbLine
 10
629.1918879622797
 20
1081.6301481933256
 30
0.0
 11
629.711144483328
 21
1081.5385892587565
 31
0.0
  0
LINE
  5
1E3
330
17
100
AcDbEntity
  8
0
100
AcDbLine
 10
629.711144483328
 20
1081.5385892587565
 30
0.0
 11
630.2357912655773
 21
1081.4860904299512
 31
0.0
  0
LINE
  5
1E4
330
17
100
AcDbEntity
  8
0
100
AcDbLine
 10
630.2357912655773
 20
1081.4860904299512
 30
0.0
 11
630.7628942714051
 21
1081.4729453016553
 31
0.0
  0
LINE
  5
1E5
330
17
100
AcDbEntity
  8
0
100
AcDbLine
 10
630.7628942714051
 20
1081.4729453016553
 30
0.0
 11
631.2895057269899
 21
1081.4992273867601
 31
0.0
  0
LINE
  5
1E6
330
17
100
AcDbEntity
  8
0
100
AcDbLine
 10
631.2895057269899
 20
1081.4992273867601
 30
0.0
 11
631.8126806074584
 21
1081.5647897051842
 31
0.0
  0
LINE
  5
1E7
330
17
100
AcDbEntity
  8
0
100
AcDbLine
 10
631.8126806074584
 20
1081.5647897051842
 30
0.0
 11
632.3294931066599
 21
1081.6692656058494
 31
0.0
  0
LINE
  5
1E8
330
17
100
AcDbEntity
  8
0
100
AcDbLine
 10
632.3294931066599
 20
1081.6692656058494
 30
0.0
 11
632.8370529994603
 21
1081.8120708171373
 31
0.0
  0
LINE
  5
1E9
330
17
100
AcDbEntity
  8
0
100
AcDbLine
 10
632.8370529994603
 20
1081.8120708171373
 30
0.0
 11
633.3325218050536
 21
1081.9924067143802
 31
0.0
  0
LINE
  5
1EA
330
17
100
AcDbEntity
  8
0
100
AcDbLine
 10
633.3325218050536
 20
1081.9924067143802
 30
0.0
 11
633.8131286608979
 21
1082.2092647860902
 31
0.0
  0
LINE
  5
1EB
330
17
100
AcDbEntity
  8
0
100
AcDbLine
 10
633.8131286608979
 20
1082.2092647860902
 30
0.0
 11
634.2761858185036
 21
1082.461432273965
 31
0.0
  0
LINE
  5
1EC
330
17
100
AcDbEntity
  8
0
100
AcDbLine
 10
634.2761858185036
 20
1082.461432273965
 30
0.0
 11
634.7191036744111
 21
1082.7474989551226
 31
0.0
  0
LINE
  5
1ED
330
17
100
AcDbEntity
  8
0
100
AcDbLine
 10
634.7191036744111
 20
1082.7474989551226
 30
0.0
 11
635.1394052523069
 21
1083.0658650286434
 31
0.0
  0
LINE
  5
1EE
330
17
100
AcDbEntity
  8
0
100
AcDbLine
 10
635.1394052523069
 20
1083.0658650286434
 30
0.0
 11
635.5347400552769
 21
1083.414750062303
 31
0.0
  0
LINE
  5
1EF
330
17
100
AcDbEntity
  8
0
100
AcDbLine
 10
635.5347400552769
 20
1083.414750062303
 30
0.0
 11
635.9028972107401
 21
1083.792202949471
 31
0.0
  0
LINE
  5
1F0
330
17
100
AcDbEntity
  8
0
100
AcDbLine
 10
635.9028972107401
 20
1083.792202949471
 30
0.0
 11
636.2418178345448
 21
1084.1961128204946
 31
0.0
  0
LINE
  5
1F1
330
17
100
AcDbEntity
  8
0
100
AcDbLine
 10
636.2418178345448
 20
1084.1961128204946
 30
0.0
 11
636.5496065450841
 21
1084.6242208475337
 31
0.0
  0
LINE
  5
1F2
330
17
100
AcDbEntity
  8
0
100
AcDbLine
 10
636.5496065450841
 20
1084.6242208475337
 30
0.0
 11
636.8245420630371
 21
1085.0741328768443
 31
0.0
  0
LINE
  5
1F3
330
17
100
AcDbEntity
  8
0
100
AcDbLine
 10
636.8245420630371
 20
1085.0741328768443
 30
0.0
 11
637.0650868374642
 21
1085.543332817857
 31
0.0
  0
LINE
  5
1F4
330
17
100
AcDbEntity
  8
0
100
AcDbLine
 10
637.0650868374642
 20
1085.543332817857
 30
0.0
 11
637.2698956444123
 21
1086.0291967141766
 31
0.0
  0
LINE
  5
1F5
330
17
100
AcDbEntity
  8
0
100
AcDbLine
 10
637.2698956444123
 20
1086.0291967141766
 30
0.0
 11
637.4378231099548
 21
1086.5290074178104
 31
0.0
  0
LINE
  5
1F6
330
17
100
AcDbEntity
  8
0
100
AcDbLine
 10
637.4378231099548
 20
1086.5290074178104
 30
0.0
 11
637.5679301155868
 21
1087.0399697845614
 31
0.0
  0
LINE
  5
1F7
330
17
100
AcDbEntity
  8
0
100
AcDbLine
 10
637.5679301155868
 20
1087.0399697845614
 30
0.0
 11
637.6594890501566
 21
1087.5592263056096
 31
0.0
  0
LINE
  5
1F8
330
17
100
AcDbEntity
  8
0
100
AcDbLine
 10
637.6594890501566
 20
1087.5592263056096
 30
0.0
 11
637.7119878789617
 21
1088.0838730878595
 31
0.0
  0
LINE
  5
1F9
330
17
100
AcDbEntity
  8
0
100
AcDbLine
 10
637.7119878789617
 20
1088.0838730878595
 30
0.0
 11
637.7251330072569
 21
1088.6109760936865
 31
0.0
  0
LINE
  5
1FA
330
17
100
AcDbEntity
  8
0
100
AcDbLine
 10
637.7251330072569
 20
1088.6109760936865
 30
0.0
 11
637.6988509221518
 21
1089.1375875492718
 31
0.0
  0
LINE
  5
1FB
330
17
100
AcDbEntity
  8
0
100
AcDbLine
 10
340.17066130134265
 20
1644.0580947397577
 30
0.0
 11
340.1050989829187
 21
1644.5812696202265
 31
0.0
  0
LINE
  5
1FC
330
17
100
AcDbEntity
  8
0
100
AcDbLine
 10
340.1050989829187
 20
1644.5812696202265
 30
0.0
 11
340.00062308225483
 21
1645.098082119428
 31
0.0
  0
LINE
  5
1FD
330
17
100
AcDbEntity
  8
0
100
AcDbLine
 10
340.00062308225483
 20
1645.098082119428
 30
0.0
 11
339.85781787096664
 21
1645.6056420122288
 31
0.0
  0
LINE
  5
1FE
330
17
100
AcDbEntity
  8
0
100
AcDbLine
 10
339.85781787096664
 20
1645.6056420122288
 30
0.0
 11
339.6774819737233
 21
1646.101110817821
 31
0.0
  0
LINE
  5
1FF
330
17
100
AcDbEntity
  8
0
100
AcDbLine
 10
339.6774819737233
 20
1646.101110817821
 30
0.0
 11
339.4606239020131
 21
1646.581717673666
 31
0.0
  0
LINE
  5
200
330
17
100
AcDbEntity
  8
0
100
AcDbLine
 10
339.4606239020131
 20
1646.581717673666
 30
0.0
 11
339.2084564141387
 21
1647.0447748312708
 31
0.0
  0
LINE
  5
201
330
17
100
AcDbEntity
  8
0
100
AcDbLine
 10
339.2084564141387
 20
1647.0447748312708
 30
0.0
 11
338.92238973298083
 21
1647.4876926871793
 31
0.0
  0
LINE
  5
202
330
17
100
AcDbEntity
  8
0
100
AcDbLine
 10
338.92238973298083
 20
1647.4876926871793
 30
0.0
 11
338.6040236594602
 21
1647.907994265074
 31
0.0
  0
LINE
  5
203
330
17
100
AcDbEntity
  8
0
100
AcDbLine
 10
338.6040236594602
 20
1647.907994265074
 30
0.0
 11
338.2551386258013
 21
1648.3033290680444
 31
0.0
  0
LINE
  5
204
330
17
100
AcDbEntity
  8
0
100
AcDbLine
 10
338.2551386258013
 20
1648.3033290680444
 30
0.0
 11
337.8776857386327
 21
1648.671486223508
 31
0.0
  0
LINE
  5
205
330
17
100
AcDbEntity
  8
0
100
AcDbLine
 10
337.8776857386327
 20
1648.671486223508
 30
0.0
 11
337.47377586760916
 21
1649.0104068473129
 31
0.0
  0
LINE
  5
206
330
17
100
AcDbEntity
  8
0
100
AcDbLine
 10
337.47377586760916
 20
1649.0104068473129
 30
0.0
 11
337.04566784057
 21
1649.318195557852
 31
0.0
  0
LINE
  5
207
330
17
100
AcDbEntity
  8
0
100
AcDbLine
 10
337.04566784057
 20
1649.318195557852
 30
0.0
 11
336.59575581125966
 21
1649.5931310758044
 31
0.0
  0
LINE
  5
208
330
17
100
AcDbEntity
  8
0
100
AcDbLine
 10
336.59575581125966
 20
1649.5931310758044
 30
0.0
 11
336.12655587024716
 21
1649.8336758502307
 31
0.0
  0
LINE
  5
209
330
17
100
AcDbEntity
  8
0
100
AcDbLine
 10
336.12655587024716
 20
1649.8336758502307
 30
0.0
 11
335.6406919739271
 21
1650.03848465718
 31
0.0
  0
LINE
  5
20A
330
17
100
AcDbEntity
  8
0
100
AcDbLine
 10
335.6406919739271
 20
1650.03848465718
 30
0.0
 11
335.14088127029333
 21
1650.2064121227227
 31
0.0
  0
LINE
  5
20B
330
17
100
AcDbEntity
  8
0
100
AcDbLine
 10
335.14088127029333
 20
1650.2064121227227
 30
0.0
 11
334.6299189035421
 21
1650.3365191283538
 31
0.0
  0
LINE
  5
20C
330
17
100
AcDbEntity
  8
0
100
AcDbLine
 10
334.6299189035421
 20
1650.3365191283538
 30
0.0
 11
334.11066238249396
 21
1650.4280780629235
 31
0.0
  0
LINE
  5
20D
330
17
100
AcDbEntity
  8
0
100
AcDbLine
 10
334.11066238249396
 20
1650.4280780629235
 30
0.0
 11
333.58601560024454
 21
1650.4805768917292
 31
0.0
  0
LINE
  5
20E
330
17
100
AcDbEntity
  8
0
100
AcDbLine
 10
333.58601560024454
 20
1650.4805768917292
 30
0.0
 11
333.0589125944168
 21
1650.4937220200245
 31
0.0
  0
LINE
  5
20F
330
17
100
AcDbEntity
  8
0
100
AcDbLine
 10
333.0589125944168
 20
1650.4937220200245
 30
0.0
 11
332.53230113883205
 21
1650.4674399349192
 31
0.0
  0
LINE
  5
210
330
17
100
AcDbEntity
  8
0
100
AcDbLine
 10
332.53230113883205
 20
1650.4674399349192
 30
0.0
 11
332.0091262583634
 21
1650.4018776164953
 31
0.0
  0
LINE
  5
211
330
17
100
AcDbEntity
  8
0
100
AcDbLine
 10
332.0091262583634
 20
1650.4018776164953
 30
0.0
 11
331.4923137591618
 21
1650.297401715831
 31
0.0
  0
LINE
  5
212
330
17
100
AcDbEntity
  8
0
100
AcDbLine
 10
331.4923137591618
 20
1650.297401715831
 30
0.0
 11
330.98475386636153
 21
1650.1545965045427
 31
0.0
  0
LINE
  5
213
330
17
100
AcDbEntity
  8
0
100
AcDbLine
 10
330.98475386636153
 20
1650.1545965045427
 30
0.0
 11
330.4892850607683
 21
1649.9742606072996
 31
0.0
  0
LINE
  5
214
330
17
100
AcDbEntity
  8
0
100
AcDbLine
 10
330.4892850607683
 20
1649.9742606072996
 30
0.0
 11
330.00867820492385
 21
1649.7574025355898
 31
0.0
  0
LINE
  5
215
330
17
100
AcDbEntity
  8
0
100
AcDbLine
 10
330.00867820492385
 20
1649.7574025355898
 30
0.0
 11
329.5456210473185
 21
1649.5052350477154
 31
0.0
  0
LINE
  5
216
330
17
100
AcDbEntity
  8
0
100
AcDbLine
 10
329.5456210473185
 20
1649.5052350477154
 30
0.0
 11
329.1027031914106
 21
1649.2191683665565
 31
0.0
  0
LINE
  5
217
330
17
100
AcDbEntity
  8
0
100
AcDbLine
 10
329.1027031914106
 20
1649.2191683665565
 30
0.0
 11
328.682401613515
 21
1648.9008022930366
 31
0.0
  0
LINE
  5
218
330
17
100
AcDbEntity
  8
0
100
AcDbLine
 10
328.682401613515
 20
1648.9008022930366
 30
0.0
 11
328.28706681054496
 21
1648.5519172593786
 31
0.0
  0
LINE
  5
219
330
17
100
AcDbEntity
  8
0
100
AcDbLine
 10
328.28706681054496
 20
1648.5519172593786
 30
0.0
 11
327.9189096550817
 21
1648.1744643722097
 31
0.0
  0
LINE
  5
21A
330
17
100
AcDbEntity
  8
0
100
AcDbLine
 10
327.9189096550817
 20
1648.1744643722097
 30
0.0
 11
327.57998903127685
 21
1647.7705545011863
 31
0.0
  0
LINE
  5
21B
330
17
100
AcDbEntity
  8
0
100
AcDbLine
 10
327.57998903127685
 20
1647.7705545011863
 30
0.0
 11
327.272200320738
 21
1647.3424464741468
 31
0.0
  0
LINE
  5
21C
330
17
100
AcDbEntity
  8
0
100
AcDbLine
 10
327.272200320738
 20
1647.3424464741468
 30
0.0
 11
326.9972648027846
 21
1646.8925344448357
 31
0.0
  0
LINE
  5
21D
330
17
100
AcDbEntity
  8
0
100
AcDbLine
 10
326.9972648027846
 20
1646.8925344448357
 30
0.0
 11
326.75672002835756
 21
1646.423334503824
 31
0.0
  0
LINE
  5
21E
330
17
100
AcDbEntity
  8
0
100
AcDbLine
 10
326.75672002835756
 20
1646.423334503824
 30
0.0
 11
326.55191122140957
 21
1645.9374706075032
 31
0.0
  0
LINE
  5
21F
330
17
100
AcDbEntity
  8
0
100
AcDbLine
 10
326.55191122140957
 20
1645.9374706075032
 30
0.0
 11
326.38398375586706
 21
1645.43765990387
 31
0.0
  0
LINE
  5
220
330
17
100
AcDbEntity
  8
0
100
AcDbLine
 10
326.38398375586706
 20
1645.43765990387
 30
0.0
 11
326.25387675023524
 21
1644.9266975371186
 31
0.0
  0
LINE
  5
221
330
17
100
AcDbEntity
  8
0
100
AcDbLine
 10
326.25387675023524
 20
1644.9266975371186
 30
0.0
 11
326.16231781566535
 21
1644.4074410160713
 31
0.0
  0
LINE
  5
222
330
17
100
AcDbEntity
  8
0
100
AcDbLine
 10
326.16231781566535
 20
1644.4074410160713
 30
0.0
 11
326.1098189868601
 21
1643.8827942338214
 31
0.0
  0
LINE
  5
223
330
17
100
AcDbEntity
  8
0
100
AcDbLine
 10
326.1098189868601
 20
1643.8827942338214
 30
0.0
 11
326.0966738585651
 21
1643.3556912279937
 31
0.0
  0
LINE
  5
224
330
17
100
AcDbEntity
  8
0
100
AcDbLine
 10
326.0966738585651
 20
1643.3556912279937
 30
0.0
 11
326.12295594367004
 21
1642.829079772409
 31
0.0
  0
LINE
  5
225
330
17
100
AcDbEntity
  8
0
100
AcDbLine
 10
326.12295594367004
 20
1642.829079772409
 30
0.0
 11
326.18851826209425
 21
1642.3059048919404
 31
0.0
  0
LINE
  5
226
330
17
100
AcDbEntity
  8
0
100
AcDbLine
 10
326.18851826209425
 20
1642.3059048919404
 30
0.0
 11
326.29299416275813
 21
1641.789092392739
 31
0.0
  0
LINE
  5
227
330
17
100
AcDbEntity
  8
0
100
AcDbLine
 10
326.29299416275813
 20
1641.789092392739
 30
0.0
 11
326.43579937404616
 21
1641.2815324999378
 31
0.0
  0
LINE
  5
228
330
17
100
AcDbEntity
  8
0
100
AcDbLine
 10
326.43579937404616
 20
1641.2815324999378
 30
0.0
 11
326.61613527128964
 21
1640.7860636943456
 31
0.0
  0
LINE
  5
229
330
17
100
AcDbEntity
  8
0
100
AcDbLine
 10
326.61613527128964
 20
1640.7860636943456
 30
0.0
 11
326.8329933429999
 21
1640.305456838501
 31
0.0
  0
LINE
  5
22A
330
17
100
AcDbEntity
  8
0
100
AcDbLine
 10
326.8329933429999
 20
1640.305456838501
 30
0.0
 11
327.0851608308743
 21
1639.8423996808942
 31
0.0
  0
LINE
  5
22B
330
17
100
AcDbEntity
  8
0
100
AcDbLine
 10
327.0851608308743
 20
1639.8423996808942
 30
0.0
 11
327.37122751203196
 21
1639.399481824987
 31
0.0
  0
LINE
  5
22C
330
17
100
AcDbEntity
  8
0
100
AcDbLine
 10
327.37122751203196
 20
1639.399481824987
 30
0.0
 11
327.68959358555253
 21
1638.9791802470913
 31
0.0
  0
LINE
  5
22D
330
17
100
AcDbEntity
  8
0
100
AcDbLine
 10
327.68959358555253
 20
1638.9791802470913
 30
0.0
 11
328.0384786192117
 21
1638.5838454441218
 31
0.0
  0
LINE
  5
22E
330
17
100
AcDbEntity
  8
0
100
AcDbLine
 10
328.0384786192117
 20
1638.5838454441218
 30
0.0
 11
328.41593150638005
 21
1638.2156882886572
 31
0.0
  0
LINE
  5
22F
330
17
100
AcDbEntity
  8
0
100
AcDbLine
 10
328.41593150638005
 20
1638.2156882886572
 30
0.0
 11
328.8198413774036
 21
1637.8767676648538
 31
0.0
  0
LINE
  5
230
330
17
100
AcDbEntity
  8
0
100
AcDbLine
 10
328.8198413774036
 20
1637.8767676648538
 30
0.0
 11
329.24794940444264
 21
1637.5689789543146
 31
0.0
  0
LINE
  5
231
330
17
100
AcDbEntity
  8
0
100
AcDbLine
 10
329.24794940444264
 20
1637.5689789543146
 30
0.0
 11
329.69786143375325
 21
1637.2940434363609
 31
0.0
  0
LINE
  5
232
330
17
100
AcDbEntity
  8
0
100
AcDbLine
 10
329.69786143375325
 20
1637.2940434363609
 30
0.0
 11
330.16706137476586
 21
1637.053498661934
 31
0.0
  0
LINE
  5
233
330
17
100
AcDbEntity
  8
0
100
AcDbLine
 10
330.16706137476586
 20
1637.053498661934
 30
0.0
 11
330.65292527108585
 21
1636.8486898549854
 31
0.0
  0
LINE
  5
234
330
17
100
AcDbEntity
  8
0
100
AcDbLine
 10
330.65292527108585
 20
1636.8486898549854
 30
0.0
 11
331.1527359747196
 21
1636.6807623894438
 31
0.0
  0
LINE
  5
235
330
17
100
AcDbEntity
  8
0
100
AcDbLine
 10
331.1527359747196
 20
1636.6807623894438
 30
0.0
 11
331.6636983414709
 21
1636.5506553838115
 31
0.0
  0
LINE
  5
236
330
17
100
AcDbEntity
  8
0
100
AcDbLine
 10
331.6636983414709
 20
1636.5506553838115
 30
0.0
 11
332.182954862519
 21
1636.4590964492418
 31
0.0
  0
LINE
  5
237
330
17
100
AcDbEntity
  8
0
100
AcDbLine
 10
332.182954862519
 20
1636.4590964492418
 30
0.0
 11
332.7076016447683
 21
1636.406597620436
 31
0.0
  0
LINE
  5
238
330
17
100
AcDbEntity
  8
0
100
AcDbLine
 10
332.7076016447683
 20
1636.406597620436
 30
0.0
 11
333.23470465059614
 21
1636.393452492141
 31
0.0
  0
LINE
  5
239
330
17
100
AcDbEntity
  8
0
100
AcDbLine
 10
333.23470465059614
 20
1636.393452492141
 30
0.0
 11
333.7613161061808
 21
1636.4197345772463
 31
0.0
  0
LINE
  5
23A
330
17
100
AcDbEntity
  8
0
100
AcDbLine
 10
333.7613161061808
 20
1636.4197345772463
 30
0.0
 11
334.2844909866496
 21
1636.4852968956702
 31
0.0
  0
LINE
  5
23B
330
17
100
AcDbEntity
  8
0
100
AcDbLine
 10
334.2844909866496
 20
1636.4852968956702
 30
0.0
 11
334.80130348585107
 21
1636.5897727963343
 31
0.0
  0
LINE
  5
23C
330
17
100
AcDbEntity
  8
0
100
AcDbLine
 10
334.80130348585107
 20
1636.5897727963343
 30
0.0
 11
335.30886337865144
 21
1636.7325780076226
 31
0.0
  0
LINE
  5
23D
330
17
100
AcDbEntity
  8
0
100
AcDbLine
 10
335.30886337865144
 20
1636.7325780076226
 30
0.0
 11
335.8043321842447
 21
1636.912913904866
 31
0.0
  0
LINE
  5
23E
330
17
100
AcDbEntity
  8
0
100
AcDbLine
 10
335.8043321842447
 20
1636.912913904866
 30
0.0
 11
336.28493904008906
 21
1637.1297719765766
 31
0.0
  0
LINE
  5
23F
330
17
100
AcDbEntity
  8
0
100
AcDbLine
 10
336.28493904008906
 20
1637.1297719765766
 30
0.0
 11
336.7479961976945
 21
1637.3819394644502
 31
0.0
  0
LINE
  5
240
330
17
100
AcDbEntity
  8
0
100
AcDbLine
 10
336.7479961976945
 20
1637.3819394644502
 30
0.0
 11
337.1909140536024
 21
1637.6680061456086
 31
0.0
  0
LINE
  5
241
330
17
100
AcDbEntity
  8
0
100
AcDbLine
 10
337.1909140536024
 20
1637.6680061456086
 30
0.0
 11
337.6112156314979
 21
1637.986372219129
 31
0.0
  0
LINE
  5
242
330
17
100
AcDbEntity
  8
0
100
AcDbLine
 10
337.6112156314979
 20
1637.986372219129
 30
0.0
 11
338.00655043446767
 21
1638.3352572527883
 31
0.0
  0
LINE
  5
243
330
17
100
AcDbEntity
  8
0
100
AcDbLine
 10
338.00655043446767
 20
1638.3352572527883
 30
0.0
 11
338.37470758993106
 21
1638.712710139957
 31
0.0
  0
LINE
  5
244
330
17
100
AcDbEntity
  8
0
100
AcDbLine
 10
338.37470758993106
 20
1638.712710139957
 30
0.0
 11
338.713628213736
 21
1639.1166200109792
 31
0.0
  0
LINE
  5
245
330
17
100
AcDbEntity
  8
0
100
AcDbLine
 10
338.713628213736
 20
1639.1166200109792
 30
0.0
 11
339.02141692427494
 21
1639.5447280380195
 31
0.0
  0
LINE
  5
246
330
17
100
AcDbEntity
  8
0
100
AcDbLine
 10
339.02141692427494
 20
1639.5447280380195
 30
0.0
 11
339.2963524422281
 21
1639.9946400673298
 31
0.0
  0
LINE
  5
247
330
17
100
AcDbEntity
  8
0
100
AcDbLine
 10
339.2963524422281
 20
1639.9946400673298
 30
0.0
 11
339.53689721665523
 21
1640.4638400083422
 31
0.0
  0
LINE
  5
248
330
17
100
AcDbEntity
  8
0
100
AcDbLine
 10
339.53689721665523
 20
1640.4638400083422
 30
0.0
 11
339.74170602360346
 21
1640.9497039046616
 31
0.0
  0
LINE
  5
249
330
17
100
AcDbEntity
  8
0
100
AcDbLine
 10
339.74170602360346
 20
1640.9497039046616
 30
0.0
 11
339.9096334891459
 21
1641.4495146082968
 31
0.0
  0
LINE
  5
24A
330
17
100
AcDbEntity
  8
0
100
AcDbLine
 10
339.9096334891459
 20
1641.4495146082968
 30
0.0
 11
340.0397404947777
 21
1641.960476975048
 31
0.0
  0
LINE
  5
24B
330
17
100
AcDbEntity
  8
0
100
AcDbLine
 10
340.0397404947777
 20
1641.960476975048
 30
0.0
 11
340.13129942934745
 21
1642.4797334960954
 31
0.0
  0
LINE
  5
24C
330
17
100
AcDbEntity
  8
0
100
AcDbLine
 10
340.13129942934745
 20
1642.4797334960954
 30
0.0
 11
340.1837982581529
 21
1643.0043802783453
 31
0.0
  0
LINE
  5
24D
330
17
100
AcDbEntity
  8
0
100
AcDbLine
 10
340.1837982581529
 20
1643.0043802783453
 30
0.0
 11
340.19694338644786
 21
1643.5314832841727
 31
0.0
  0
LINE
  5
24E
330
17
100
AcDbEntity
  8
0
100
AcDbLine
 10
340.19694338644786
 20
1643.5314832841727
 30
0.0
 11
340.17066130134265
 21
1644.0580947397577
 31
0.0
  0
LINE
  5
24F
330
17
100
AcDbEntity
  8
0
100
AcDbLine
 10
86.60792164857338
 20
1289.902314749455
 30
0.0
 11
86.54235933014921
 21
1290.4254896299237
 31
0.0
  0
LINE
  5
250
330
17
100
AcDbEntity
  8
0
100
AcDbLine
 10
86.54235933014921
 20
1290.4254896299237
 30
0.0
 11
86.4378834294853
 21
1290.9423021291252
 31
0.0
  0
LINE
  5
251
330
17
100
AcDbEntity
  8
0
100
AcDbLine
 10
86.4378834294853
 20
1290.9423021291252
 30
0.0
 11
86.29507821819726
 21
1291.4498620219247
 31
0.0
  0
LINE
  5
252
330
17
100
AcDbEntity
  8
0
100
AcDbLine
 10
86.29507821819726
 20
1291.4498620219247
 30
0.0
 11
86.1147423209539
 21
1291.9453308275183
 31
0.0
  0
LINE
  5
253
330
17
100
AcDbEntity
  8
0
100
AcDbLine
 10
86.1147423209539
 20
1291.9453308275183
 30
0.0
 11
85.89788424924362
 21
1292.4259376833625
 31
0.0
  0
LINE
  5
254
330
17
100
AcDbEntity
  8
0
100
AcDbLine
 10
85.89788424924362
 20
1292.4259376833625
 30
0.0
 11
85.6457167613693
 21
1292.8889948409678
 31
0.0
  0
LINE
  5
255
330
17
100
AcDbEntity
  8
0
100
AcDbLine
 10
85.6457167613693
 20
1292.8889948409678
 30
0.0
 11
85.35965008021148
 21
1293.3319126968756
 31
0.0
  0
LINE
  5
256
330
17
100
AcDbEntity
  8
0
100
AcDbLine
 10
85.35965008021148
 20
1293.3319126968756
 30
0.0
 11
85.04128400669092
 21
1293.7522142747725
 31
0.0
  0
LINE
  5
257
330
17
100
AcDbEntity
  8
0
100
AcDbLine
 10
85.04128400669092
 20
1293.7522142747725
 30
0.0
 11
84.69239897303179
 21
1294.1475490777416
 31
0.0
  0
LINE
  5
258
330
17
100
AcDbEntity
  8
0
100
AcDbLine
 10
84.69239897303179
 20
1294.1475490777416
 30
0.0
 11
84.31494608586334
 21
1294.5157062332048
 31
0.0
  0
LINE
  5
259
330
17
100
AcDbEntity
  8
0
100
AcDbLine
 10
84.31494608586334
 20
1294.5157062332048
 30
0.0
 11
83.91103621483975
 21
1294.85462685701
 31
0.0
  0
LINE
  5
25A
330
17
100
AcDbEntity
  8
0
100
AcDbLine
 10
83.91103621483975
 20
1294.85462685701
 30
0.0
 11
83.48292818780095
 21
1295.1624155675477
 31
0.0
  0
LINE
  5
25B
330
17
100
AcDbEntity
  8
0
100
AcDbLine
 10
83.48292818780095
 20
1295.1624155675477
 30
0.0
 11
83.03301615849034
 21
1295.4373510855016
 31
0.0
  0
LINE
  5
25C
330
17
100
AcDbEntity
  8
0
100
AcDbLine
 10
83.03301615849034
 20
1295.4373510855016
 30
0.0
 11
82.56381621747752
 21
1295.6778958599293
 31
0.0
  0
LINE
  5
25D
330
17
100
AcDbEntity
  8
0
100
AcDbLine
 10
82.56381621747752
 20
1295.6778958599293
 30
0.0
 11
82.07795232115772
 21
1295.8827046668769
 31
0.0
  0
LINE
  5
25E
330
17
100
AcDbEntity
  8
0
100
AcDbLine
 10
82.07795232115772
 20
1295.8827046668769
 30
0.0
 11
81.57814161752378
 21
1296.0506321324197
 31
0.0
  0
LINE
  5
25F
330
17
100
AcDbEntity
  8
0
100
AcDbLine
 10
81.57814161752378
 20
1296.0506321324197
 30
0.0
 11
81.06717925077261
 21
1296.180739138052
 31
0.0
  0
LINE
  5
260
330
17
100
AcDbEntity
  8
0
100
AcDbLine
 10
81.06717925077261
 20
1296.180739138052
 30
0.0
 11
80.54792272972443
 21
1296.272298072622
 31
0.0
  0
LINE
  5
261
330
17
100
AcDbEntity
  8
0
100
AcDbLine
 10
80.54792272972443
 20
1296.272298072622
 30
0.0
 11
80.02327594747517
 21
1296.324796901426
 31
0.0
  0
LINE
  5
262
330
17
100
AcDbEntity
  8
0
100
AcDbLine
 10
80.02327594747517
 20
1296.324796901426
 30
0.0
 11
79.4961729416474
 21
1296.337942029722
 31
0.0
  0
LINE
  5
263
330
17
100
AcDbEntity
  8
0
100
AcDbLine
 10
79.4961729416474
 20
1296.337942029722
 30
0.0
 11
78.96956148606267
 21
1296.311659944617
 31
0.0
  0
LINE
  5
264
330
17
100
AcDbEntity
  8
0
100
AcDbLine
 10
78.96956148606267
 20
1296.311659944617
 30
0.0
 11
78.44638660559396
 21
1296.246097626193
 31
0.0
  0
LINE
  5
265
330
17
100
AcDbEntity
  8
0
100
AcDbLine
 10
78.44638660559396
 20
1296.246097626193
 30
0.0
 11
77.92957410639242
 21
1296.1416217255278
 31
0.0
  0
LINE
  5
266
330
17
100
AcDbEntity
  8
0
100
AcDbLine
 10
77.92957410639242
 20
1296.1416217255278
 30
0.0
 11
77.422014213592
 21
1295.9988165142413
 31
0.0
  0
LINE
  5
267
330
17
100
AcDbEntity
  8
0
100
AcDbLine
 10
77.422014213592
 20
1295.9988165142413
 30
0.0
 11
76.92654540799869
 21
1295.8184806169975
 31
0.0
  0
LINE
  5
268
330
17
100
AcDbEntity
  8
0
100
AcDbLine
 10
76.92654540799869
 20
1295.8184806169975
 30
0.0
 11
76.44593855215442
 21
1295.601622545287
 31
0.0
  0
LINE
  5
269
330
17
100
AcDbEntity
  8
0
100
AcDbLine
 10
76.44593855215442
 20
1295.601622545287
 30
0.0
 11
75.98288139454898
 21
1295.3494550574121
 31
0.0
  0
LINE
  5
26A
330
17
100
AcDbEntity
  8
0
100
AcDbLine
 10
75.98288139454898
 20
1295.3494550574121
 30
0.0
 11
75.53996353864122
 21
1295.063388376255
 31
0.0
  0
LINE
  5
26B
330
17
100
AcDbEntity
  8
0
100
AcDbLine
 10
75.53996353864122
 20
1295.063388376255
 30
0.0
 11
75.11966196074547
 21
1294.7450223027338
 31
0.0
  0
LINE
  5
26C
330
17
100
AcDbEntity
  8
0
100
AcDbLine
 10
75.11966196074547
 20
1294.7450223027338
 30
0.0
 11
74.72432715777569
 21
1294.3961372690737
 31
0.0
  0
LINE
  5
26D
330
17
100
AcDbEntity
  8
0
100
AcDbLine
 10
74.72432715777569
 20
1294.3961372690737
 30
0.0
 11
74.35617000231227
 21
1294.0186843819072
 31
0.0
  0
LINE
  5
26E
330
17
100
AcDbEntity
  8
0
100
AcDbLine
 10
74.35617000231227
 20
1294.0186843819072
 30
0.0
 11
74.01724937850761
 21
1293.614774510883
 31
0.0
  0
LINE
  5
26F
330
17
100
AcDbEntity
  8
0
100
AcDbLine
 10
74.01724937850761
 20
1293.614774510883
 30
0.0
 11
73.70946066796851
 21
1293.186666483844
 31
0.0
  0
LINE
  5
270
330
17
100
AcDbEntity
  8
0
100
AcDbLine
 10
73.70946066796851
 20
1293.186666483844
 30
0.0
 11
73.4345251500151
 21
1292.7367544545343
 31
0.0
  0
LINE
  5
271
330
17
100
AcDbEntity
  8
0
100
AcDbLine
 10
73.4345251500151
 20
1292.7367544545343
 30
0.0
 11
73.19398037558821
 21
1292.2675545135203
 31
0.0
  0
LINE
  5
272
330
17
100
AcDbEntity
  8
0
100
AcDbLine
 10
73.19398037558821
 20
1292.2675545135203
 30
0.0
 11
72.98917156864005
 21
1291.7816906172006
 31
0.0
  0
LINE
  5
273
330
17
100
AcDbEntity
  8
0
100
AcDbLine
 10
72.98917156864005
 20
1291.7816906172006
 30
0.0
 11
72.8212441030976
 21
1291.2818799135669
 31
0.0
  0
LINE
  5
274
330
17
100
AcDbEntity
  8
0
100
AcDbLine
 10
72.8212441030976
 20
1291.2818799135669
 30
0.0
 11
72.69113709746563
 21
1290.7709175468158
 31
0.0
  0
LINE
  5
275
330
17
100
AcDbEntity
  8
0
100
AcDbLine
 10
72.69113709746563
 20
1290.7709175468158
 30
0.0
 11
72.59957816289608
 21
1290.2516610257671
 31
0.0
  0
LINE
  5
276
330
17
100
AcDbEntity
  8
0
100
AcDbLine
 10
72.59957816289608
 20
1290.2516610257671
 30
0.0
 11
72.54707933409055
 21
1289.7270142435186
 31
0.0
  0
LINE
  5
277
330
17
100
AcDbEntity
  8
0
100
AcDbLine
 10
72.54707933409055
 20
1289.7270142435186
 30
0.0
 11
72.5339342057956
 21
1289.1999112376911
 31
0.0
  0
LINE
  5
278
330
17
100
AcDbEntity
  8
0
100
AcDbLine
 10
72.5339342057956
 20
1289.1999112376911
 30
0.0
 11
72.56021629090066
 21
1288.6732997821061
 31
0.0
  0
LINE
  5
279
330
17
100
AcDbEntity
  8
0
100
AcDbLine
 10
72.56021629090066
 20
1288.6732997821061
 30
0.0
 11
72.62577860932475
 21
1288.1501249016371
 31
0.0
  0
LINE
  5
27A
330
17
100
AcDbEntity
  8
0
100
AcDbLine
 10
72.62577860932475
 20
1288.1501249016371
 30
0.0
 11
72.73025450998863
 21
1287.6333124024359
 31
0.0
  0
LINE
  5
27B
330
17
100
AcDbEntity
  8
0
100
AcDbLine
 10
72.73025450998863
 20
1287.6333124024359
 30
0.0
 11
72.87305972127673
 21
1287.1257525096357
 31
0.0
  0
LINE
  5
27C
330
17
100
AcDbEntity
  8
0
100
AcDbLine
 10
72.87305972127673
 20
1287.1257525096357
 30
0.0
 11
73.05339561852003
 21
1286.630283704043
 31
0.0
  0
LINE
  5
27D
330
17
100
AcDbEntity
  8
0
100
AcDbLine
 10
73.05339561852003
 20
1286.630283704043
 30
0.0
 11
73.27025369023033
 21
1286.1496768481984
 31
0.0
  0
LINE
  5
27E
330
17
100
AcDbEntity
  8
0
100
AcDbLine
 10
73.27025369023033
 20
1286.1496768481984
 30
0.0
 11
73.52242117810474
 21
1285.6866196905921
 31
0.0
  0
LINE
  5
27F
330
17
100
AcDbEntity
  8
0
100
AcDbLine
 10
73.52242117810474
 20
1285.6866196905921
 30
0.0
 11
73.80848785926256
 21
1285.243701834684
 31
0.0
  0
LINE
  5
280
330
17
100
AcDbEntity
  8
0
100
AcDbLine
 10
73.80848785926256
 20
1285.243701834684
 30
0.0
 11
74.12685393278312
 21
1284.8234002567888
 31
0.0
  0
LINE
  5
281
330
17
100
AcDbEntity
  8
0
100
AcDbLine
 10
74.12685393278312
 20
1284.8234002567888
 30
0.0
 11
74.47573896644214
 21
1284.4280654538195
 31
0.0
  0
LINE
  5
282
330
17
100
AcDbEntity
  8
0
100
AcDbLine
 10
74.47573896644214
 20
1284.4280654538195
 30
0.0
 11
74.8531918536107
 21
1284.059908298355
 31
0.0
  0
LINE
  5
283
330
17
100
AcDbEntity
  8
0
100
AcDbLine
 10
74.8531918536107
 20
1284.059908298355
 30
0.0
 11
75.25710172463415
 21
1283.7209876745512
 31
0.0
  0
LINE
  5
284
330
17
100
AcDbEntity
  8
0
100
AcDbLine
 10
75.25710172463415
 20
1283.7209876745512
 30
0.0
 11
75.68520975167324
 21
1283.4131989640118
 31
0.0
  0
LINE
  5
285
330
17
100
AcDbEntity
  8
0
100
AcDbLine
 10
75.68520975167324
 20
1283.4131989640118
 30
0.0
 11
76.13512178098374
 21
1283.1382634460579
 31
0.0
  0
LINE
  5
286
330
17
100
AcDbEntity
  8
0
100
AcDbLine
 10
76.13512178098374
 20
1283.1382634460579
 30
0.0
 11
76.60432172199656
 21
1282.8977186716313
 31
0.0
  0
LINE
  5
287
330
17
100
AcDbEntity
  8
0
100
AcDbLine
 10
76.60432172199656
 20
1282.8977186716313
 30
0.0
 11
77.09018561831631
 21
1282.6929098646829
 31
0.0
  0
LINE
  5
288
330
17
100
AcDbEntity
  8
0
100
AcDbLine
 10
77.09018561831631
 20
1282.6929098646829
 30
0.0
 11
77.58999632195021
 21
1282.5249823991405
 31
0.0
  0
LINE
  5
289
330
17
100
AcDbEntity
  8
0
100
AcDbLine
 10
77.58999632195021
 20
1282.5249823991405
 30
0.0
 11
78.10095868870134
 21
1282.3948753935088
 31
0.0
  0
LINE
  5
28A
330
17
100
AcDbEntity
  8
0
100
AcDbLine
 10
78.10095868870134
 20
1282.3948753935088
 30
0.0
 11
78.62021520974965
 21
1282.3033164589388
 31
0.0
  0
LINE
  5
28B
330
17
100
AcDbEntity
  8
0
100
AcDbLine
 10
78.62021520974965
 20
1282.3033164589388
 30
0.0
 11
79.14486199199891
 21
1282.2508176301335
 31
0.0
  0
LINE
  5
28C
330
17
100
AcDbEntity
  8
0
100
AcDbLine
 10
79.14486199199891
 20
1282.2508176301335
 30
0.0
 11
79.67196499782672
 21
1282.2376725018385
 31
0.0
  0
LINE
  5
28D
330
17
100
AcDbEntity
  8
0
100
AcDbLine
 10
79.67196499782672
 20
1282.2376725018385
 30
0.0
 11
80.1985764534115
 21
1282.2639545869436
 31
0.0
  0
LINE
  5
28E
330
17
100
AcDbEntity
  8
0
100
AcDbLine
 10
80.1985764534115
 20
1282.2639545869436
 30
0.0
 11
80.72175133388016
 21
1282.3295169053674
 31
0.0
  0
LINE
  5
28F
330
17
100
AcDbEntity
  8
0
100
AcDbLine
 10
80.72175133388016
 20
1282.3295169053674
 30
0.0
 11
81.23856383308166
 21
1282.4339928060317
 31
0.0
  0
LINE
  5
290
330
17
100
AcDbEntity
  8
0
100
AcDbLine
 10
81.23856383308166
 20
1282.4339928060317
 30
0.0
 11
81.74612372588207
 21
1282.5767980173196
 31
0.0
  0
LINE
  5
291
330
17
100
AcDbEntity
  8
0
100
AcDbLine
 10
81.74612372588207
 20
1282.5767980173196
 30
0.0
 11
82.24159253147526
 21
1282.7571339145634
 31
0.0
  0
LINE
  5
292
330
17
100
AcDbEntity
  8
0
100
AcDbLine
 10
82.24159253147526
 20
1282.7571339145634
 30
0.0
 11
82.72219938731958
 21
1282.9739919862734
 31
0.0
  0
LINE
  5
293
330
17
100
AcDbEntity
  8
0
100
AcDbLine
 10
82.72219938731958
 20
1282.9739919862734
 30
0.0
 11
83.18525654492505
 21
1283.2261594741476
 31
0.0
  0
LINE
  5
294
330
17
100
AcDbEntity
  8
0
100
AcDbLine
 10
83.18525654492505
 20
1283.2261594741476
 30
0.0
 11
83.62817440083286
 21
1283.5122261553058
 31
0.0
  0
LINE
  5
295
330
17
100
AcDbEntity
  8
0
100
AcDbLine
 10
83.62817440083286
 20
1283.5122261553058
 30
0.0
 11
84.0484759787286
 21
1283.8305922288257
 31
0.0
  0
LINE
  5
296
330
17
100
AcDbEntity
  8
0
100
AcDbLine
 10
84.0484759787286
 20
1283.8305922288257
 30
0.0
 11
84.4438107816985
 21
1284.1794772624855
 31
0.0
  0
LINE
  5
297
330
17
100
AcDbEntity
  8
0
100
AcDbLine
 10
84.4438107816985
 20
1284.1794772624855
 30
0.0
 11
84.81196793716164
 21
1284.5569301496541
 31
0.0
  0
LINE
  5
298
330
17
100
AcDbEntity
  8
0
100
AcDbLine
 10
84.81196793716164
 20
1284.5569301496541
 30
0.0
 11
85.15088856096642
 21
1284.9608400206769
 31
0.0
  0
LINE
  5
299
330
17
100
AcDbEntity
  8
0
100
AcDbLine
 10
85.15088856096642
 20
1284.9608400206769
 30
0.0
 11
85.45867727150541
 21
1285.3889480477171
 31
0.0
  0
LINE
  5
29A
330
17
100
AcDbEntity
  8
0
100
AcDbLine
 10
85.45867727150541
 20
1285.3889480477171
 30
0.0
 11
85.73361278945893
 21
1285.8388600770268
 31
0.0
  0
LINE
  5
29B
330
17
100
AcDbEntity
  8
0
100
AcDbLine
 10
85.73361278945893
 20
1285.8388600770268
 30
0.0
 11
85.97415756388583
 21
1286.3080600180394
 31
0.0
  0
LINE
  5
29C
330
17
100
AcDbEntity
  8
0
100
AcDbLine
 10
85.97415756388583
 20
1286.3080600180394
 30
0.0
 11
86.17896637083399
 21
1286.7939239143593
 31
0.0
  0
LINE
  5
29D
330
17
100
AcDbEntity
  8
0
100
AcDbLine
 10
86.17896637083399
 20
1286.7939239143593
 30
0.0
 11
86.34689383637635
 21
1287.293734617994
 31
0.0
  0
LINE
  5
29E
330
17
100
AcDbEntity
  8
0
100
AcDbLine
 10
86.34689383637635
 20
1287.293734617994
 30
0.0
 11
86.4770008420083
 21
1287.8046969847455
 31
0.0
  0
LINE
  5
29F
330
17
100
AcDbEntity
  8
0
100
AcDbLine
 10
86.4770008420083
 20
1287.8046969847455
 30
0.0
 11
86.56855977657791
 21
1288.3239535057933
 31
0.0
  0
LINE
  5
2A0
330
17
100
AcDbEntity
  8
0
100
AcDbLine
 10
86.56855977657791
 20
1288.3239535057933
 30
0.0
 11
86.62105860538337
 21
1288.8486002880427
 31
0.0
  0
LINE
  5
2A1
330
17
100
AcDbEntity
  8
0
100
AcDbLine
 10
86.62105860538337
 20
1288.8486002880427
 30
0.0
 11
86.63420373367836
 21
1289.3757032938697
 31
0.0
  0
LINE
  5
2A2
330
17
100
AcDbEntity
  8
0
100
AcDbLine
 10
86.63420373367836
 20
1289.3757032938697
 30
0.0
 11
86.60792164857338
 21
1289.902314749455
 31
0.0
  0
LINE
  5
2A3
330
17
100
AcDbEntity
  8
0
100
AcDbLine
 10
1598.1101221855197
 20
315.9637775909946
 30
0.0
 11
1598.0445598670958
 21
316.48695247146327
 31
0.0
  0
LINE
  5
2A4
330
17
100
AcDbEntity
  8
0
100
AcDbLine
 10
1598.0445598670958
 20
316.48695247146327
 30
0.0
 11
1597.9400839664318
 21
317.00376497066475
 31
0.0
  0
LINE
  5
2A5
330
17
100
AcDbEntity
  8
0
100
AcDbLine
 10
1597.9400839664318
 20
317.00376497066475
 30
0.0
 11
1597.7972787551437
 21
317.51132486346523
 31
0.0
  0
LINE
  5
2A6
330
17
100
AcDbEntity
  8
0
100
AcDbLine
 10
1597.7972787551437
 20
317.51132486346523
 30
0.0
 11
1597.6169428579003
 21
318.0067936690589
 31
0.0
  0
LINE
  5
2A7
330
17
100
AcDbEntity
  8
0
100
AcDbLine
 10
1597.6169428579003
 20
318.0067936690589
 30
0.0
 11
1597.4000847861907
 21
318.4874005249027
 31
0.0
  0
LINE
  5
2A8
330
17
100
AcDbEntity
  8
0
100
AcDbLine
 10
1597.4000847861907
 20
318.4874005249027
 30
0.0
 11
1597.1479172983159
 21
318.9504576825084
 31
0.0
  0
LINE
  5
2A9
330
17
100
AcDbEntity
  8
0
100
AcDbLine
 10
1597.1479172983159
 20
318.9504576825084
 30
0.0
 11
1596.8618506171574
 21
319.3933755384162
 31
0.0
  0
LINE
  5
2AA
330
17
100
AcDbEntity
  8
0
100
AcDbLine
 10
1596.8618506171574
 20
319.3933755384162
 30
0.0
 11
1596.5434845436375
 21
319.8136771163116
 31
0.0
  0
LINE
  5
2AB
330
17
100
AcDbEntity
  8
0
100
AcDbLine
 10
1596.5434845436375
 20
319.8136771163116
 30
0.0
 11
1596.1945995099793
 21
320.2090119192818
 31
0.0
  0
LINE
  5
2AC
330
17
100
AcDbEntity
  8
0
100
AcDbLine
 10
1596.1945995099793
 20
320.2090119192818
 30
0.0
 11
1595.8171466228105
 21
320.5771690747449
 31
0.0
  0
LINE
  5
2AD
330
17
100
AcDbEntity
  8
0
100
AcDbLine
 10
1595.8171466228105
 20
320.5771690747449
 30
0.0
 11
1595.4132367517866
 21
320.91608969854974
 31
0.0
  0
LINE
  5
2AE
330
17
100
AcDbEntity
  8
0
100
AcDbLine
 10
1595.4132367517866
 20
320.91608969854974
 30
0.0
 11
1594.9851287247475
 21
321.2238784090889
 31
0.0
  0
LINE
  5
2AF
330
17
100
AcDbEntity
  8
0
100
AcDbLine
 10
1594.9851287247475
 20
321.2238784090889
 30
0.0
 11
1594.5352166954367
 21
321.4988139270421
 31
0.0
  0
LINE
  5
2B0
330
17
100
AcDbEntity
  8
0
100
AcDbLine
 10
1594.5352166954367
 20
321.4988139270421
 30
0.0
 11
1594.0660167544238
 21
321.7393587014694
 31
0.0
  0
LINE
  5
2B1
330
17
100
AcDbEntity
  8
0
100
AcDbLine
 10
1594.0660167544238
 20
321.7393587014694
 30
0.0
 11
1593.5801528581042
 21
321.9441675084174
 31
0.0
  0
LINE
  5
2B2
330
17
100
AcDbEntity
  8
0
100
AcDbLine
 10
1593.5801528581042
 20
321.9441675084174
 30
0.0
 11
1593.0803421544704
 21
322.11209497396
 31
0.0
  0
LINE
  5
2B3
330
17
100
AcDbEntity
  8
0
100
AcDbLine
 10
1593.0803421544704
 20
322.11209497396
 30
0.0
 11
1592.5693797877193
 21
322.2422019795915
 31
0.0
  0
LINE
  5
2B4
330
17
100
AcDbEntity
  8
0
100
AcDbLine
 10
1592.5693797877193
 20
322.2422019795915
 30
0.0
 11
1592.0501232666709
 21
322.3337609141611
 31
0.0
  0
LINE
  5
2B5
330
17
100
AcDbEntity
  8
0
100
AcDbLine
 10
1592.0501232666709
 20
322.3337609141611
 30
0.0
 11
1591.525476484422
 21
322.38625974296633
 31
0.0
  0
LINE
  5
2B6
330
17
100
AcDbEntity
  8
0
100
AcDbLine
 10
1591.525476484422
 20
322.38625974296633
 30
0.0
 11
1590.9983734785933
 21
322.3994048712615
 31
0.0
  0
LINE
  5
2B7
330
17
100
AcDbEntity
  8
0
100
AcDbLine
 10
1590.9983734785933
 20
322.3994048712615
 30
0.0
 11
1590.4717620230094
 21
322.37312278615684
 31
0.0
  0
LINE
  5
2B8
330
17
100
AcDbEntity
  8
0
100
AcDbLine
 10
1590.4717620230094
 20
322.37312278615684
 30
0.0
 11
1589.9485871425409
 21
322.3075604677325
 31
0.0
  0
LINE
  5
2B9
330
17
100
AcDbEntity
  8
0
100
AcDbLine
 10
1589.9485871425409
 20
322.3075604677325
 30
0.0
 11
1589.4317746433396
 21
322.20308456706834
 31
0.0
  0
LINE
  5
2BA
330
17
100
AcDbEntity
  8
0
100
AcDbLine
 10
1589.4317746433396
 20
322.20308456706834
 30
0.0
 11
1588.9242147505386
 21
322.0602793557805
 31
0.0
  0
LINE
  5
2BB
330
17
100
AcDbEntity
  8
0
100
AcDbLine
 10
1588.9242147505386
 20
322.0602793557805
 30
0.0
 11
1588.428745944945
 21
321.8799434585371
 31
0.0
  0
LINE
  5
2BC
330
17
100
AcDbEntity
  8
0
100
AcDbLine
 10
1588.428745944945
 20
321.8799434585371
 30
0.0
 11
1587.9481390891017
 21
321.6630853868271
 31
0.0
  0
LINE
  5
2BD
330
17
100
AcDbEntity
  8
0
100
AcDbLine
 10
1587.9481390891017
 20
321.6630853868271
 30
0.0
 11
1587.4850819314956
 21
321.4109178989527
 31
0.0
  0
LINE
  5
2BE
330
17
100
AcDbEntity
  8
0
100
AcDbLine
 10
1587.4850819314956
 20
321.4109178989527
 30
0.0
 11
1587.042164075588
 21
321.12485121779514
 31
0.0
  0
LINE
  5
2BF
330
17
100
AcDbEntity
  8
0
100
AcDbLine
 10
1587.042164075588
 20
321.12485121779514
 30
0.0
 11
1586.6218624976923
 21
320.80648514427423
 31
0.0
  0
LINE
  5
2C0
330
17
100
AcDbEntity
  8
0
100
AcDbLine
 10
1586.6218624976923
 20
320.80648514427423
 30
0.0
 11
1586.2265276947219
 21
320.4576001106152
 31
0.0
  0
LINE
  5
2C1
330
17
100
AcDbEntity
  8
0
100
AcDbLine
 10
1586.2265276947219
 20
320.4576001106152
 30
0.0
 11
1585.8583705392587
 21
320.0801472234466
 31
0.0
  0
LINE
  5
2C2
330
17
100
AcDbEntity
  8
0
100
AcDbLine
 10
1585.8583705392587
 20
320.0801472234466
 30
0.0
 11
1585.5194499154545
 21
319.67623735242296
 31
0.0
  0
LINE
  5
2C3
330
17
100
AcDbEntity
  8
0
100
AcDbLine
 10
1585.5194499154545
 20
319.67623735242296
 30
0.0
 11
1585.2116612049153
 21
319.2481293253842
 31
0.0
  0
LINE
  5
2C4
330
17
100
AcDbEntity
  8
0
100
AcDbLine
 10
1585.2116612049153
 20
319.2481293253842
 30
0.0
 11
1584.9367256869618
 21
318.7982172960734
 31
0.0
  0
LINE
  5
2C5
330
17
100
AcDbEntity
  8
0
100
AcDbLine
 10
1584.9367256869618
 20
318.7982172960734
 30
0.0
 11
1584.696180912535
 21
318.32901735506084
 31
0.0
  0
LINE
  5
2C6
330
17
100
AcDbEntity
  8
0
100
AcDbLine
 10
1584.696180912535
 20
318.32901735506084
 30
0.0
 11
1584.4913721055864
 21
317.84315345874097
 31
0.0
  0
LINE
  5
2C7
330
17
100
AcDbEntity
  8
0
100
AcDbLine
 10
1584.4913721055864
 20
317.84315345874097
 30
0.0
 11
1584.3234446400445
 21
317.34334275510685
 31
0.0
  0
LINE
  5
2C8
330
17
100
AcDbEntity
  8
0
100
AcDbLine
 10
1584.3234446400445
 20
317.34334275510685
 30
0.0
 11
1584.193337634412
 21
316.83238038835634
 31
0.0
  0
LINE
  5
2C9
330
17
100
AcDbEntity
  8
0
100
AcDbLine
 10
1584.193337634412
 20
316.83238038835634
 30
0.0
 11
1584.1017786998425
 21
316.3131238673077
 31
0.0
  0
LINE
  5
2CA
330
17
100
AcDbEntity
  8
0
100
AcDbLine
 10
1584.1017786998425
 20
316.3131238673077
 30
0.0
 11
1584.0492798710375
 21
315.78847708505816
 31
0.0
  0
LINE
  5
2CB
330
17
100
AcDbEntity
  8
0
100
AcDbLine
 10
1584.0492798710375
 20
315.78847708505816
 30
0.0
 11
1584.036134742742
 21
315.2613740792307
 31
0.0
  0
LINE
  5
2CC
330
17
100
AcDbEntity
  8
0
100
AcDbLine
 10
1584.036134742742
 20
315.2613740792307
 30
0.0
 11
1584.0624168278473
 21
314.7347626236458
 31
0.0
  0
LINE
  5
2CD
330
17
100
AcDbEntity
  8
0
100
AcDbLine
 10
1584.0624168278473
 20
314.7347626236458
 30
0.0
 11
1584.1279791462712
 21
314.2115877431771
 31
0.0
  0
LINE
  5
2CE
330
17
100
AcDbEntity
  8
0
100
AcDbLine
 10
1584.1279791462712
 20
314.2115877431771
 30
0.0
 11
1584.2324550469355
 21
313.69477524397564
 31
0.0
  0
LINE
  5
2CF
330
17
100
AcDbEntity
  8
0
100
AcDbLine
 10
1584.2324550469355
 20
313.69477524397564
 30
0.0
 11
1584.3752602582233
 21
313.1872153511757
 31
0.0
  0
LINE
  5
2D0
330
17
100
AcDbEntity
  8
0
100
AcDbLine
 10
1584.3752602582233
 20
313.1872153511757
 30
0.0
 11
1584.5555961554667
 21
312.6917465455822
 31
0.0
  0
LINE
  5
2D1
330
17
100
AcDbEntity
  8
0
100
AcDbLine
 10
1584.5555961554667
 20
312.6917465455822
 30
0.0
 11
1584.7724542271774
 21
312.21113968973793
 31
0.0
  0
LINE
  5
2D2
330
17
100
AcDbEntity
  8
0
100
AcDbLine
 10
1584.7724542271774
 20
312.21113968973793
 30
0.0
 11
1585.0246217150511
 21
311.74808253213246
 31
0.0
  0
LINE
  5
2D3
330
17
100
AcDbEntity
  8
0
100
AcDbLine
 10
1585.0246217150511
 20
311.74808253213246
 30
0.0
 11
1585.3106883962093
 21
311.3051646762242
 31
0.0
  0
LINE
  5
2D4
330
17
100
AcDbEntity
  8
0
100
AcDbLine
 10
1585.3106883962093
 20
311.3051646762242
 30
0.0
 11
1585.6290544697297
 21
310.88486309832876
 31
0.0
  0
LINE
  5
2D5
330
17
100
AcDbEntity
  8
0
100
AcDbLine
 10
1585.6290544697297
 20
310.88486309832876
 30
0.0
 11
1585.977939503389
 21
310.4895282953588
 31
0.0
  0
LINE
  5
2D6
330
17
100
AcDbEntity
  8
0
100
AcDbLine
 10
1585.977939503389
 20
310.4895282953588
 30
0.0
 11
1586.3553923905574
 21
310.1213711398959
 31
0.0
  0
LINE
  5
2D7
330
17
100
AcDbEntity
  8
0
100
AcDbLine
 10
1586.3553923905574
 20
310.1213711398959
 30
0.0
 11
1586.7593022615804
 21
309.7824505160911
 31
0.0
  0
LINE
  5
2D8
330
17
100
AcDbEntity
  8
0
100
AcDbLine
 10
1586.7593022615804
 20
309.7824505160911
 30
0.0
 11
1587.1874102886195
 21
309.4746618055518
 31
0.0
  0
LINE
  5
2D9
330
17
100
AcDbEntity
  8
0
100
AcDbLine
 10
1587.1874102886195
 20
309.4746618055518
 30
0.0
 11
1587.6373223179305
 21
309.1997262875983
 31
0.0
  0
LINE
  5
2DA
330
17
100
AcDbEntity
  8
0
100
AcDbLine
 10
1587.6373223179305
 20
309.1997262875983
 30
0.0
 11
1588.1065222589434
 21
308.9591815131714
 31
0.0
  0
LINE
  5
2DB
330
17
100
AcDbEntity
  8
0
100
AcDbLine
 10
1588.1065222589434
 20
308.9591815131714
 30
0.0
 11
1588.5923861552628
 21
308.75437270622365
 31
0.0
  0
LINE
  5
2DC
330
17
100
AcDbEntity
  8
0
100
AcDbLine
 10
1588.5923861552628
 20
308.75437270622365
 30
0.0
 11
1589.0921968588975
 21
308.58644524068063
 31
0.0
  0
LINE
  5
2DD
330
17
100
AcDbEntity
  8
0
100
AcDbLine
 10
1589.0921968588975
 20
308.58644524068063
 30
0.0
 11
1589.6031592256475
 21
308.45633823504875
 31
0.0
  0
LINE
  5
2DE
330
17
100
AcDbEntity
  8
0
100
AcDbLine
 10
1589.6031592256475
 20
308.45633823504875
 30
0.0
 11
1590.122415746696
 21
308.3647793004793
 31
0.0
  0
LINE
  5
2DF
330
17
100
AcDbEntity
  8
0
100
AcDbLine
 10
1590.122415746696
 20
308.3647793004793
 30
0.0
 11
1590.6470625289462
 21
308.31228047167406
 31
0.0
  0
LINE
  5
2E0
330
17
100
AcDbEntity
  8
0
100
AcDbLine
 10
1590.6470625289462
 20
308.31228047167406
 30
0.0
 11
1591.1741655347737
 21
308.2991353433788
 31
0.0
  0
LINE
  5
2E1
330
17
100
AcDbEntity
  8
0
100
AcDbLine
 10
1591.1741655347737
 20
308.2991353433788
 30
0.0
 11
1591.7007769903582
 21
308.3254174284838
 31
0.0
  0
LINE
  5
2E2
330
17
100
AcDbEntity
  8
0
100
AcDbLine
 10
1591.7007769903582
 20
308.3254174284838
 30
0.0
 11
1592.223951870826
 21
308.39097974690776
 31
0.0
  0
LINE
  5
2E3
330
17
100
AcDbEntity
  8
0
100
AcDbLine
 10
1592.223951870826
 20
308.39097974690776
 30
0.0
 11
1592.7407643700285
 21
308.49545564757204
 31
0.0
  0
LINE
  5
2E4
330
17
100
AcDbEntity
  8
0
100
AcDbLine
 10
1592.7407643700285
 20
308.49545564757204
 30
0.0
 11
1593.2483242628284
 21
308.6382608588599
 31
0.0
  0
LINE
  5
2E5
330
17
100
AcDbEntity
  8
0
100
AcDbLine
 10
1593.2483242628284
 20
308.6382608588599
 30
0.0
 11
1593.7437930684218
 21
308.81859675610315
 31
0.0
  0
LINE
  5
2E6
330
17
100
AcDbEntity
  8
0
100
AcDbLine
 10
1593.7437930684218
 20
308.81859675610315
 30
0.0
 11
1594.2243999242662
 21
309.0354548278135
 31
0.0
  0
LINE
  5
2E7
330
17
100
AcDbEntity
  8
0
100
AcDbLine
 10
1594.2243999242662
 20
309.0354548278135
 30
0.0
 11
1594.6874570818713
 21
309.2876223156884
 31
0.0
  0
LINE
  5
2E8
330
17
100
AcDbEntity
  8
0
100
AcDbLine
 10
1594.6874570818713
 20
309.2876223156884
 30
0.0
 11
1595.1303749377792
 21
309.5736889968457
 31
0.0
  0
LINE
  5
2E9
330
17
100
AcDbEntity
  8
0
100
AcDbLine
 10
1595.1303749377792
 20
309.5736889968457
 30
0.0
 11
1595.550676515675
 21
309.89205507036615
 31
0.0
  0
LINE
  5
2EA
330
17
100
AcDbEntity
  8
0
100
AcDbLine
 10
1595.550676515675
 20
309.89205507036615
 30
0.0
 11
1595.946011318645
 21
310.2409401040255
 31
0.0
  0
LINE
  5
2EB
330
17
100
AcDbEntity
  8
0
100
AcDbLine
 10
1595.946011318645
 20
310.2409401040255
 30
0.0
 11
1596.3141684741086
 21
310.6183929911938
 31
0.0
  0
LINE
  5
2EC
330
17
100
AcDbEntity
  8
0
100
AcDbLine
 10
1596.3141684741086
 20
310.6183929911938
 30
0.0
 11
1596.6530890979134
 21
311.0223028622179
 31
0.0
  0
LINE
  5
2ED
330
17
100
AcDbEntity
  8
0
100
AcDbLine
 10
1596.6530890979134
 20
311.0223028622179
 30
0.0
 11
1596.960877808453
 21
311.45041088925643
 31
0.0
  0
LINE
  5
2EE
330
17
100
AcDbEntity
  8
0
100
AcDbLine
 10
1596.960877808453
 20
311.45041088925643
 30
0.0
 11
1597.2358133264054
 21
311.900322918567
 31
0.0
  0
LINE
  5
2EF
330
17
100
AcDbEntity
  8
0
100
AcDbLine
 10
1597.2358133264054
 20
311.900322918567
 30
0.0
 11
1597.476358100832
 21
312.36952285957955
 31
0.0
  0
LINE
  5
2F0
330
17
100
AcDbEntity
  8
0
100
AcDbLine
 10
1597.476358100832
 20
312.36952285957955
 30
0.0
 11
1597.6811669077806
 21
312.8553867558999
 31
0.0
  0
LINE
  5
2F1
330
17
100
AcDbEntity
  8
0
100
AcDbLine
 10
1597.6811669077806
 20
312.8553867558999
 30
0.0
 11
1597.8490943733236
 21
313.35519745953377
 31
0.0
  0
LINE
  5
2F2
330
17
100
AcDbEntity
  8
0
100
AcDbLine
 10
1597.8490943733236
 20
313.35519745953377
 30
0.0
 11
1597.979201378955
 21
313.86615982628473
 31
0.0
  0
LINE
  5
2F3
330
17
100
AcDbEntity
  8
0
100
AcDbLine
 10
1597.979201378955
 20
313.86615982628473
 30
0.0
 11
1598.0707603135245
 21
314.38541634733326
 31
0.0
  0
LINE
  5
2F4
330
17
100
AcDbEntity
  8
0
100
AcDbLine
 10
1598.0707603135245
 20
314.38541634733326
 30
0.0
 11
1598.12325914233
 21
314.9100631295822
 31
0.0
  0
LINE
  5
2F5
330
17
100
AcDbEntity
  8
0
100
AcDbLine
 10
1598.12325914233
 20
314.9100631295822
 30
0.0
 11
1598.136404270625
 21
315.4371661354097
 31
0.0
  0
LINE
  5
2F6
330
17
100
AcDbEntity
  8
0
100
AcDbLine
 10
1598.136404270625
 20
315.4371661354097
 30
0.0
 11
1598.1101221855197
 21
315.9637775909946
 31
0.0
  0
LINE
  5
2F7
330
17
100
AcDbEntity
  8
0
100
AcDbLine
 10
1031.7425318349938
 20
601.7762668373177
 30
0.0
 11
1033.314848513568
 21
600.4823956981695
 31
0.0
  0
LINE
  5
2F8
330
17
100
AcDbEntity
  8
0
100
AcDbLine
 10
1033.314848513568
 20
600.4823956981695
 30
0.0
 11
1034.911660664722
 21
599.2188794868082
 31
0.0
  0
LINE
  5
2F9
330
17
100
AcDbEntity
  8
0
100
AcDbLine
 10
1034.911660664722
 20
599.2188794868082
 30
0.0
 11
1036.5323823491951
 21
597.9861818418353
 31
0.0
  0
LINE
  5
2FA
330
17
100
AcDbEntity
  8
0
100
AcDbLine
 10
1036.5323823491951
 20
597.9861818418353
 30
0.0
 11
1038.1764188542907
 21
596.7847550931906
 31
0.0
  0
LINE
  5
2FB
330
17
100
AcDbEntity
  8
0
100
AcDbLine
 10
1038.1764188542907
 20
596.7847550931906
 30
0.0
 11
1039.8431669120966
 21
595.6150400961749
 31
0.0
  0
LINE
  5
2FC
330
17
100
AcDbEntity
  8
0
100
AcDbLine
 10
1039.8431669120966
 20
595.6150400961749
 30
0.0
 11
1041.5320149208526
 21
594.4774660696763
 31
0.0
  0
LINE
  5
2FD
330
17
100
AcDbEntity
  8
0
100
AcDbLine
 10
1041.5320149208526
 20
594.4774660696763
 30
0.0
 11
1043.2423431693744
 21
593.3724504386767
 31
0.0
  0
LINE
  5
2FE
330
17
100
AcDbEntity
  8
0
100
AcDbLine
 10
1043.2423431693744
 20
593.3724504386767
 30
0.0
 11
1044.9735240644488
 21
592.3003986810769
 31
0.0
  0
LINE
  5
2FF
330
17
100
AcDbEntity
  8
0
100
AcDbLine
 10
1044.9735240644488
 20
592.3003986810769
 30
0.0
 11
1046.7249223611298
 21
591.2617041789124
 31
0.0
  0
LINE
  5
300
330
17
100
AcDbEntity
  8
0
100
AcDbLine
 10
1046.7249223611298
 20
591.2617041789124
 30
0.0
 11
1048.4958953958326
 21
590.2567480739999
 31
0.0
  0
LINE
  5
301
330
17
100
AcDbEntity
  8
0
100
AcDbLine
 10
1048.4958953958326
 20
590.2567480739999
 30
0.0
 11
1050.2857933221576
 21
589.2858991280862
 31
0.0
  0
LINE
  5
302
330
17
100
AcDbEntity
  8
0
100
AcDbLine
 10
1050.2857933221576
 20
589.2858991280862
 30
0.0
 11
1052.0939593493454
 21
588.3495135875278
 31
0.0
  0
LINE
  5
303
330
17
100
AcDbEntity
  8
0
100
AcDbLine
 10
1052.0939593493454
 20
588.3495135875278
 30
0.0
 11
1053.919729983283
 21
587.4479350525719
 31
0.0
  0
LINE
  5
304
330
17
100
AcDbEntity
  8
0
100
AcDbLine
 10
1053.919729983283
 20
587.4479350525719
 30
0.0
 11
1055.7624352699686
 21
586.5814943512731
 31
0.0
  0
LINE
  5
305
330
17
100
AcDbEntity
  8
0
100
AcDbLine
 10
1055.7624352699686
 20
586.5814943512731
 30
0.0
 11
1057.621399041344
 21
585.7505094181008
 31
0.0
  0
LINE
  5
306
330
17
100
AcDbEntity
  8
0
100
AcDbLine
 10
1057.621399041344
 20
585.7505094181008
 30
0.0
 11
1059.4959391634118
 21
584.9552851772728
 31
0.0
  0
LINE
  5
307
330
17
100
AcDbEntity
  8
0
100
AcDbLine
 10
1059.4959391634118
 20
584.9552851772728
 30
0.0
 11
1061.3853677865413
 21
584.1961134308652
 31
0.0
  0
LINE
  5
308
330
17
100
AcDbEntity
  8
0
100
AcDbLine
 10
1061.3853677865413
 20
584.1961134308652
 30
0.0
 11
1063.2889915978672
 21
583.4732727517408
 31
0.0
  0
LINE
  5
309
330
17
100
AcDbEntity
  8
0
100
AcDbLine
 10
1063.2889915978672
 20
583.4732727517408
 30
0.0
 11
1065.2061120756978
 21
582.7870283813245
 31
0.0
  0
LINE
  5
30A
330
17
100
AcDbEntity
  8
0
100
AcDbLine
 10
1065.2061120756978
 20
582.7870283813245
 30
0.0
 11
1067.1360257458311
 21
582.1376321322782
 31
0.0
  0
LINE
  5
30B
330
17
100
AcDbEntity
  8
0
100
AcDbLine
 10
1067.1360257458311
 20
582.1376321322782
 30
0.0
 11
1069.078024439693
 21
581.5253222960991
 31
0.0
  0
LINE
  5
30C
330
17
100
AcDbEntity
  8
0
100
AcDbLine
 10
1069.078024439693
 20
581.5253222960991
 30
0.0
 11
1071.0313955541922
 21
580.9503235556781
 31
0.0
  0
LINE
  5
30D
330
17
100
AcDbEntity
  8
0
100
AcDbLine
 10
1071.0313955541922
 20
580.9503235556781
 30
0.0
 11
1072.9954223132045
 21
580.4128469028567
 31
0.0
  0
LINE
  5
30E
330
17
100
AcDbEntity
  8
0
100
AcDbLine
 10
1072.9954223132045
 20
580.4128469028567
 30
0.0
 11
1074.9693840305913
 21
579.913089561004
 31
0.0
  0
LINE
  5
30F
330
17
100
AcDbEntity
  8
0
100
AcDbLine
 10
1074.9693840305913
 20
579.913089561004
 30
0.0
 11
1076.9525563746486
 21
579.451234912646
 31
0.0
  0
LINE
  5
310
330
17
100
AcDbEntity
  8
0
100
AcDbLine
 10
1076.9525563746486
 20
579.451234912646
 30
0.0
 11
1078.9442116338967
 21
579.0274524321758
 31
0.0
  0
LINE
  5
311
330
17
100
AcDbEntity
  8
0
100
AcDbLine
 10
1078.9442116338967
 20
579.0274524321758
 30
0.0
 11
1080.9436189841078
 21
578.6418976236662
 31
0.0
  0
LINE
  5
312
330
17
100
AcDbEntity
  8
0
100
AcDbLine
 10
1080.9436189841078
 20
578.6418976236662
 30
0.0
 11
1082.9500447564787
 21
578.2947119638081
 31
0.0
  0
LINE
  5
313
330
17
100
AcDbEntity
  8
0
100
AcDbLine
 10
1082.9500447564787
 20
578.2947119638081
 30
0.0
 11
1084.9627527068426
 21
577.9860228499956
 31
0.0
  0
LINE
  5
314
330
17
100
AcDbEntity
  8
0
100
AcDbLine
 10
1084.9627527068426
 20
577.9860228499956
 30
0.0
 11
1086.9810042858317
 21
577.7159435535816
 31
0.0
  0
LINE
  5
315
330
17
100
AcDbEntity
  8
0
100
AcDbLine
 10
1086.9810042858317
 20
577.7159435535816
 30
0.0
 11
1089.0040589098817
 21
577.484573178309
 31
0.0
  0
LINE
  5
316
330
17
100
AcDbEntity
  8
0
100
AcDbLine
 10
1089.0040589098817
 20
577.484573178309
 30
0.0
 11
1091.031174232984
 21
577.2919966239498
 31
0.0
  0
LINE
  5
317
330
17
100
AcDbEntity
  8
0
100
AcDbLine
 10
1091.031174232984
 20
577.2919966239498
 30
0.0
 11
1093.0616064190835
 21
577.1382845551486
 31
0.0
  0
LINE
  5
318
330
17
100
AcDbEntity
  8
0
100
AcDbLine
 10
1093.0616064190835
 20
577.1382845551486
 30
0.0
 11
1095.0946104150257
 21
577.023493375494
 31
0.0
  0
LINE
  5
319
330
17
100
AcDbEntity
  8
0
100
AcDbLine
 10
1095.0946104150257
 20
577.023493375494
 30
0.0
 11
1097.1294402239484
 21
576.947665206821
 31
0.0
  0
LINE
  5
31A
330
17
100
AcDbEntity
  8
0
100
AcDbLine
 10
1097.1294402239484
 20
576.947665206821
 30
0.0
 11
1099.165349179019
 21
576.9108278737565
 31
0.0
  0
LINE
  5
31B
330
17
100
AcDbEntity
  8
0
100
AcDbLine
 10
1099.165349179019
 20
576.9108278737565
 30
0.0
 11
1101.2015902174203
 21
576.9129948935065
 31
0.0
  0
LINE
  5
31C
330
17
100
AcDbEntity
  8
0
100
AcDbLine
 10
1101.2015902174203
 20
576.9129948935065
 30
0.0
 11
1103.2374161544792
 21
576.954165470898
 31
0.0
  0
LINE
  5
31D
330
17
100
AcDbEntity
  8
0
100
AcDbLine
 10
1103.2374161544792
 20
576.954165470898
 30
0.0
 11
1105.272079957841
 21
577.0343244986708
 31
0.0
  0
LINE
  5
31E
330
17
100
AcDbEntity
  8
0
100
AcDbLine
 10
1105.272079957841
 20
577.0343244986708
 30
0.0
 11
1107.3048350215884
 21
577.1534425630189
 31
0.0
  0
LINE
  5
31F
330
17
100
AcDbEntity
  8
0
100
AcDbLine
 10
1107.3048350215884
 20
577.1534425630189
 30
0.0
 11
1109.3349354402023
 21
577.3114759543867
 31
0.0
  0
LINE
  5
320
330
17
100
AcDbEntity
  8
0
100
AcDbLine
 10
1109.3349354402021
 20
577.3114759543889
 30
0.0
 11
1107.9678249814192
 21
577.1718063315635
 31
0.0
  0
LINE
  5
321
330
17
100
AcDbEntity
  8
0
100
AcDbLine
 10
1107.9678249814192
 20
577.1718063315635
 30
0.0
 11
1106.6053551303005
 21
576.9924337727766
 31
0.0
  0
LINE
  5
322
330
17
100
AcDbEntity
  8
0
100
AcDbLine
 10
1106.6053551303005
 20
576.9924337727766
 30
0.0
 11
1105.2486786723625
 21
576.7735100451196
 31
0.0
  0
LINE
  5
323
330
17
100
AcDbEntity
  8
0
100
AcDbLine
 10
1105.2486786723625
 20
576.7735100451196
 30
0.0
 11
1103.8989434913337
 21
576.5152203799231
 31
0.0
  0
LINE
  5
324
330
17
100
AcDbEntity
  8
0
100
AcDbLine
 10
1103.8989434913337
 20
576.5152203799231
 30
0.0
 11
1102.5572915979292
 21
576.2177833160301
 31
0.0
  0
LINE
  5
325
330
17
100
AcDbEntity
  8
0
100
AcDbLine
 10
1102.5572915979292
 20
576.2177833160301
 30
0.0
 11
1101.2248581635943
 21
575.8814505148921
 31
0.0
  0
LINE
  5
326
330
17
100
AcDbEntity
  8
0
100
AcDbLine
 10
1101.2248581635943
 20
575.8814505148921
 30
0.0
 11
1099.90277056004
 21
575.5065065476367
 31
0.0
  0
LINE
  5
327
330
17
100
AcDbEntity
  8
0
100
AcDbLine
 10
1099.90277056004
 20
575.5065065476367
 30
0.0
 11
1098.5921474053694
 21
575.093268654292
 31
0.0
  0
LINE
  5
328
330
17
100
AcDbEntity
  8
0
100
AcDbLine
 10
1098.5921474053694
 20
575.093268654292
 30
0.0
 11
1097.2940976176187
 21
574.6420864753734
 31
0.0
  0
LINE
  5
329
330
17
100
AcDbEntity
  8
0
100
AcDbLine
 10
1097.2940976176187
 20
574.6420864753734
 30
0.0
 11
1096.0097194764999
 21
574.1533417560458
 31
0.0
  0
LINE
  5
32A
330
17
100
AcDbEntity
  8
0
100
AcDbLine
 10
1096.0097194764999
 20
574.1533417560458
 30
0.0
 11
1094.740099694147
 21
573.6274480231383
 31
0.0
  0
LINE
  5
32B
330
17
100
AcDbEntity
  8
0
100
AcDbLine
 10
1094.740099694147
 20
573.6274480231383
 30
0.0
 11
1093.4863124956487
 21
573.0648502352506
 31
0.0
  0
LINE
  5
32C
330
17
100
AcDbEntity
  8
0
100
AcDbLine
 10
1093.4863124956487
 20
573.0648502352506
 30
0.0
 11
1092.2494187101483
 21
572.4660244062787
 31
0.0
  0
LINE
  5
32D
330
17
100
AcDbEntity
  8
0
100
AcDbLine
 10
1092.2494187101483
 20
572.4660244062787
 30
0.0
 11
1091.030464873274
 21
571.8314772026583
 31
0.0
  0
LINE
  5
32E
330
17
100
AcDbEntity
  8
0
100
AcDbLine
 10
1091.030464873274
 20
571.8314772026583
 30
0.0
 11
1089.830482341666
 21
571.1617455146738
 31
0.0
  0
LINE
  5
32F
330
17
100
AcDbEntity
  8
0
100
AcDbLine
 10
1089.830482341666
 20
571.1617455146738
 30
0.0
 11
1088.6504864203482
 21
570.4573960021962
 31
0.0
  0
LINE
  5
330
330
17
100
AcDbEntity
  8
0
100
AcDbLine
 10
1088.6504864203482
 20
570.4573960021962
 30
0.0
 11
1087.4914755036755
 21
569.7190246152326
 31
0.0
  0
LINE
  5
331
330
17
100
AcDbEntity
  8
0
100
AcDbLine
 10
1087.4914755036755
 20
569.7190246152326
 30
0.0
 11
1086.3544302305932
 21
568.9472560896918
 31
0.0
  0
LINE
  5
332
330
17
100
AcDbEntity
  8
0
100
AcDbLine
 10
1086.3544302305932
 20
568.9472560896918
 30
0.0
 11
1085.2403126549204
 21
568.142743418797
 31
0.0
  0
LINE
  5
333
330
17
100
AcDbEntity
  8
0
100
AcDbLine
 10
1085.2403126549204
 20
568.142743418797
 30
0.0
 11
1084.1500654313547
 21
567.3061673005859
 31
0.0
  0
LINE
  5
334
330
17
100
AcDbEntity
  8
0
100
AcDbLine
 10
1084.1500654313547
 20
567.3061673005859
 30
0.0
 11
1083.084611017893
 21
566.438235561975
 31
0.0
  0
LINE
  5
335
330
17
100
AcDbEntity
  8
0
100
AcDbLine
 10
1083.084611017893
 20
566.438235561975
 30
0.0
 11
1082.0448508953384
 21
565.5396825598656
 31
0.0
  0
LINE
  5
336
330
17
100
AcDbEntity
  8
0
100
AcDbLine
 10
1082.0448508953384
 20
565.5396825598656
 30
0.0
 11
1081.031664804561
 21
564.6112685598052
 31
0.0
  0
LINE
  5
337
330
17
100
AcDbEntity
  8
0
100
AcDbLine
 10
1081.031664804561
 20
564.6112685598052
 30
0.0
 11
1080.0459100021446
 21
563.6537790927266
 31
0.0
  0
LINE
  5
338
330
17
100
AcDbEntity
  8
0
100
AcDbLine
 10
1080.0459100021446
 20
563.6537790927266
 30
0.0
 11
1079.0884205350653
 21
562.6680242903096
 31
0.0
  0
LINE
  5
339
330
17
100
AcDbEntity
  8
0
100
AcDbLine
 10
1079.0884205350653
 20
562.6680242903096
 30
0.0
 11
1078.160006535005
 21
561.6548381995317
 31
0.0
  0
LINE
  5
33A
330
17
100
AcDbEntity
  8
0
100
AcDbLine
 10
1078.160006535005
 20
561.6548381995317
 30
0.0
 11
1077.2614535328955
 21
560.6150780769773
 31
0.0
  0
ENDSEC
  0
SECTION
  2
OBJECTS
  0
DICTIONARY
  5
A
330
0
100
AcDbDictionary
281
1
  3
ACAD_COLOR
350
B
  3
ACAD_GROUP
350
C
  3
ACAD_LAYOUT
350
D
  3
ACAD_MATERIAL
350
E
  3
ACAD_MLEADERSTYLE
350
F
  3
ACAD_MLINESTYLE
350
10
  3
ACAD_PLOTSETTINGS
350
11
  3
ACAD_PLOTSTYLENAME
350
12
  3
ACAD_SCALELIST
350
14
  3
ACAD_TABLESTYLE
350
15
  3
ACAD_VISUALSTYLE
350
16
  3
EZDXF_META
350
2D
  0
DICTIONARY
  5
B
330
A
100
AcDbDictionary
281
1
  0
DICTIONARY
  5
C
330
A
100
AcDbDictionary
281
1
  0
DICTIONARY
  5
D
330
A
100
AcDbDictionary
281
1
  3
Model
350
1A
  3
Layout1
350
1E
  0
DICTIONARY
  5
E
330
A
100
AcDbDictionary
281
1
  3
ByBlock
350
1F
  3
ByLayer
350
20
  3
Global
350
21
  0
DICTIONARY
  5
F
330
A
100
AcDbDictionary
281
1
  3
Standard
350
2C
  0
DICTIONARY
  5
10
330
A
100
AcDbDictionary
281
1
  3
Standard
350
22
  0
DICTIONARY
  5
11
330
A
100
AcDbDictionary
281
1
  0
ACDBDICTIONARYWDFLT
  5
12
330
A
100
AcDbDictionary
281
1
  3
Normal
350
13
100
AcDbDictionaryWithDefault
340
13
  0
ACDBPLACEHOLDER
  5
13
330
12
  0
DICTIONARY
  5
14
330
A
100
AcDbDictionary
281
1
  0
DICTIONARY
  5
15
330
A
100
AcDbDictionary
281
1
  0
DICTIONARY
  5
16
330
A
100
AcDbDictionary
281
1
  0
LAYOUT
  5
1A
330
D
100
AcDbPlotSettings
  1

  4
A3
  6

 40
7.5
 41
20.0
 42
7.5
 43
20.0
 44
420.0
 45
297.0
 46
0.0
 47
0.0
 48
0.0
 49
0.0
140
0.0
141
0.0
142
1.0
143
1.0
 70
1024
 72
1
 73
0
 74
5
  7

 75
16
 76
0
 77
2
 78
300
147
1.0
148
0.0
149
0.0
100
AcDbLayout
  1
Model
 70
1
 71
0
 10
0.0
 20
0.0
 11
420.0
 21
297.0
 12
0.0
 22
0.0
 32
0.0
 14
1e+20
 24
1e+20
 34
1e+20
 15
-1e+20
 25
-1e+20
 35
-1e+20
146
0.0
 13
0.0
 23
0.0
 33
0.0
 16
1.0
 26
0.0
 36
0.0
 17
0.0
 27
1.0
 37
0.0
 76
1
330
17
  0
LAYOUT
  5
1E
330
D
100
AcDbPlotSettings
  1

  4
A3
  6

 40
7.5
 41
20.0
 42
7.5
 43
20.0
 44
420.0
 45
297.0
 46
0.0
 47
0.0
 48
0.0
 49
0.0
140
0.0
141
0.0
142
1.0
143
1.0
 70
0
 72
1
 73
0
 74
5
  7

 75
16
 76
0
 77
2
 78
300
147
1.0
148
0.0
149
0.0
100
AcDbLayout
  1
Layout1
 70
1
 71
1
 10
0.0
 20
0.0
 11
420.0
 21
297.0
 12
0.0
 22
0.0
 32
0.0
 14
1e+20
 24
1e+20
 34
1e+20
 15
-1e+20
 25
-1e+20
 35
-1e+20
146
0.0
 13
0.0
 23
0.0
 33
0.0
 16
1.0
 26
0.0
 36
0.0
 17
0.0
 27
1.0
 37
0.0
 76
1
330
1B
  0
MATERIAL
  5
1F
102
{ACAD_REACTORS
330
E
102
}
330
E
100
AcDbMaterial
  1
ByBlock
  2

 70
0
 40
1.0
 71
1
 41
1.0
 91
-1023410177
 42
1.0
 72
1
  3

 73
1
 74
1
 75
1
 44
0.5
 73
0
 45
1.0
 46
1.0
 77
1
  4

 78
1
 79
1
170
1
 48
1.0
171
1
  6

172
1
173
1
174
1
140
1.0
141
1.0
175
1
  7

176
1
177
1
178
1
143
1.0
179
1
  8

270
1
271
1
272
1
145
1.0
146
1.0
273
1
  9

274
1
275
1
276
1
 42
1.0
 72
1
  3

 73
1
 74
1
 75
1
 94
63
  0
MATERIAL
  5
20
102
{ACAD_REACTORS
330
E
102
}
330
E
100
AcDbMaterial
  1
ByLayer
  2

 70
0
 40
1.0
 71
1
 41
1.0
 91
-1023410177
 42
1.0
 72
1
  3

 73
1
 74
1
 75
1
 44
0.5
 73
0
 45
1.0
 46
1.0
 77
1
  4

 78
1
 79
1
170
1
 48
1.0
171
1
  6

172
1
173
1
174
1
140
1.0
141
1.0
175
1
  7

176
1
177
1
178
1
143
1.0
179
1
  8

270
1
271
1
272
1
145
1.0
146
1.0
273
1
  9

274
1
275
1
276
1
 42
1.0
 72
1
  3

 73
1
 74
1
 75
1
 94
63
  0
MATERIAL
  5
21
102
{ACAD_REACTORS
330
E
102
}
330
E
100
AcDbMaterial
  1
Global
  2

 70
0
 40
1.0
 71
1
 41
1.0
 91
-1023410177
 42
1.0
 72
1
  3

 73
1
 74
1
 75
1
 44
0.5
 73
0
 45
1.0
 46
1.0
 77
1
  4

 78
1
 79
1
170
1
 48
1.0
171
1
  6

172
1
173
1
174
1
140
1.0
141
1.0
175
1
  7

176
1
177
1
178
1
143
1.0
179
1
  8

270
1
271
1
272
1
145
1.0
146
1.0
273
1
  9

274
1
275
1
276
1
 42
1.0
 72
1
  3

 73
1
 74
1
 75
1
 94
63
  0
MLINESTYLE
  5
22
102
{ACAD_REACTORS
330
10
102
}
330
10
100
AcDbMlineStyle
  2
Standard
 70
0
  3

 62
256
 51
90.0
 52
90.0
 71
2
 49
0.5
 62
256
  6
BYLAYER
 49
-0.5
 62
256
  6
BYLAYER
  0
MLEADERSTYLE
  5
2C
102
{ACAD_REACTORS
330
F
102
}
330
F
100
AcDbMLeaderStyle
179
2
170
2
171
1
172
0
 90
2
 40
0.0
 41
0.0
173
1
 91
-1056964608
 92
-2
290
1
 42
2.0
291
1
 43
8.0
  3
Standard
 44
4.0
300

342
29
174
1
175
1
176
0
178
1
 93
-1056964608
 45
4.0
292
0
297
0
 46
4.0
 94
-1056964608
 47
1.0
 49
1.0
140
1.0
294
1
141
0.0
177
0
142
1.0
295
0
296
0
143
3.75
271
0
272
9
273
9
  0
DICTIONARY
  5
2D
330
A
100
AcDbDictionary
280
1
281
1
  3
CREATED_BY_EZDXF
350
2E
  3
WRITTEN_BY_EZDXF
350
33D
  0
DICTIONARYVAR
  5
2E
330
2D
100
DictionaryVariables
280
0
  1
1.4.3 @ 2026-04-16T08:38:02.864889+00:00
  0
DICTIONARYVAR
  5
33D
330
2D
100
DictionaryVariables
280
0
  1
1.4.3 @ 2026-04-16T08:38:02.904446+00:00
  0
ENDSEC
  0
EOF
