  0
SECTION
  2
HEADER
  9
$ACADVER
  1
AC1024
  9
$ACADMAINTVER
 70
6
  9
$DWGCODEPAGE
  3
ANSI_1252
  9
$LASTSAVEDBY
  1
ezdxf
  9
$INSBASE
 10
0.0
 20
0.0
 30
0.0
  9
$EXTMIN
 10
1e+20
 20
1e+20
 30
1e+20
  9
$EXTMAX
 10
-1e+20
 20
-1e+20
 30
-1e+20
  9
$LIMMIN
 10
0.0
 20
0.0
  9
$LIMMAX
 10
420.0
 20
297.0
  9
$ORTHOMODE
 70
0
  9
$REGENMODE
 70
1
  9
$FILLMODE
 70
1
  9
$QTEXTMODE
 70
0
  9
$MIRRTEXT
 70
1
  9
$LTSCALE
 40
1.0
  9
$ATTMODE
 70
1
  9
$TEXTSIZE
 40
2.5
  9
$TRACEWID
 40
1.0
  9
$TEXTSTYLE
  7
Standard
  9
$CLAYER
  8
0
  9
$CELTYPE
  6
ByLayer
  9
$CECOLOR
 62
256
  9
$CELTSCALE
 40
1.0
  9
$DISPSILH
 70
0
  9
$DIMSCALE
 40
1.0
  9
$DIMASZ
 40
2.5
  9
$DIMEXO
 40
0.625
  9
$DIMDLI
 40
3.75
  9
$DIMRND
 40
0.0
  9
$DIMDLE
 40
0.0
  9
$DIMEXE
 40
1.25
  9
$DIMTP
 40
0.0
  9
$DIMTM
 40
0.0
  9
$DIMTXT
 40
2.5
  9
$DIMCEN
 40
2.5
  9
$DIMTSZ
 40
0.0
  9
$DIMTOL
 70
0
  9
$DIMLIM
 70
0
  9
$DIMTIH
 70
0
  9
$DIMTOH
 70
0
  9
$DIMSE1
 70
0
  9
$DIMSE2
 70
0
  9
$DIMTAD
 70
1
  9
$DIMZIN
 70
8
  9
$DIMBLK
  1

  9
$DIMASO
 70
1
  9
$DIMSHO
 70
1
  9
$DIMPOST
  1

  9
$DIMAPOST
  1

  9
$DIMALT
 70
0
  9
$DIMALTD
 70
3
  9
$DIMALTF
 40
0.03937007874
  9
$DIMLFAC
 40
1.0
  9
$DIMTOFL
 70
1
  9
$DIMTVP
 40
0.0
  9
$DIMTIX
 70
0
  9
$DIMSOXD
 70
0
  9
$DIMSAH
 70
0
  9
$DIMBLK1
  1

  9
$DIMBLK2
  1

  9
$DIMSTYLE
  2
ISO-25
  9
$DIMCLRD
 70
0
  9
$DIMCLRE
 70
0
  9
$DIMCLRT
 70
0
  9
$DIMTFAC
 40
1.0
  9
$DIMGAP
 40
0.625
  9
$DIMJUST
 70
0
  9
$DIMSD1
 70
0
  9
$DIMSD2
 70
0
  9
$DIMTOLJ
 70
0
  9
$DIMTZIN
 70
8
  9
$DIMALTZ
 70
0
  9
$DIMALTTZ
 70
0
  9
$DIMUPT
 70
0
  9
$DIMDEC
 70
2
  9
$DIMTDEC
 70
2
  9
$DIMALTU
 70
2
  9
$DIMALTTD
 70
3
  9
$DIMTXSTY
  7
Standard
  9
$DIMAUNIT
 70
0
  9
$DIMADEC
 70
0
  9
$DIMALTRND
 40
0.0
  9
$DIMAZIN
 70
0
  9
$DIMDSEP
 70
44
  9
$DIMATFIT
 70
3
  9
$DIMFRAC
 70
0
  9
$DIMLDRBLK
  1

  9
$DIMLUNIT
 70
2
  9
$DIMLWD
 70
-2
  9
$DIMLWE
 70
-2
  9
$DIMTMOVE
 70
0
  9
$DIMFXL
 40
1.0
  9
$DIMFXLON
 70
0
  9
$DIMJOGANG
 40
0.785398163397
  9
$DIMTFILL
 70
0
  9
$DIMTFILLCLR
 70
0
  9
$DIMARCSYM
 70
0
  9
$DIMLTYPE
  6

  9
$DIMLTEX1
  6

  9
$DIMLTEX2
  6

  9
$DIMTXTDIRECTION
 70
0
  9
$LUNITS
 70
2
  9
$LUPREC
 70
4
  9
$SKETCHINC
 40
1.0
  9
$FILLETRAD
 40
10.0
  9
$AUNITS
 70
0
  9
$AUPREC
 70
2
  9
$MENU
  1
.
  9
$ELEVATION
 40
0.0
  9
$PELEVATION
 40
0.0
  9
$THICKNESS
 40
0.0
  9
$LIMCHECK
 70
0
  9
$CHAMFERA
 40
0.0
  9
$CHAMFERB
 40
0.0
  9
$CHAMFERC
 40
0.0
  9
$CHAMFERD
 40
0.0
  9
$SKPOLY
 70
0
  9
$TDCREATE
 40
2461147.484733796
  9
$TDUCREATE
 40
2458532.153996898
  9
$TDUPDATE
 40
2461147.484733796
  9
$TDUUPDATE
 40
2458532.1544311
  9
$TDINDWG
 40
0.0
  9
$TDUSRTIMER
 40
0.0
  9
$USRTIMER
 70
1
  9
$ANGBASE
 50
0.0
  9
$ANGDIR
 70
0
  9
$PDMODE
 70
0
  9
$PDSIZE
 40
0.0
  9
$PLINEWID
 40
0.0
  9
$SPLFRAME
 70
0
  9
$SPLINETYPE
 70
6
  9
$SPLINESEGS
 70
8
  9
$HANDSEED
  5
318
  9
$SURFTAB1
 70
6
  9
$SURFTAB2
 70
6
  9
$SURFTYPE
 70
6
  9
$SURFU
 70
6
  9
$SURFV
 70
6
  9
$UCSBASE
  2

  9
$UCSNAME
  2

  9
$UCSORG
 10
0.0
 20
0.0
 30
0.0
  9
$UCSXDIR
 10
1.0
 20
0.0
 30
0.0
  9
$UCSYDIR
 10
0.0
 20
1.0
 30
0.0
  9
$UCSORTHOREF
  2

  9
$UCSORTHOVIEW
 70
0
  9
$UCSORGTOP
 10
0.0
 20
0.0
 30
0.0
  9
$UCSORGBOTTOM
 10
0.0
 20
0.0
 30
0.0
  9
$UCSORGLEFT
 10
0.0
 20
0.0
 30
0.0
  9
$UCSORGRIGHT
 10
0.0
 20
0.0
 30
0.0
  9
$UCSORGFRONT
 10
0.0
 20
0.0
 30
0.0
  9
$UCSORGBACK
 10
0.0
 20
0.0
 30
0.0
  9
$PUCSBASE
  2

  9
$PUCSNAME
  2

  9
$PUCSORG
 10
0.0
 20
0.0
 30
0.0
  9
$PUCSXDIR
 10
1.0
 20
0.0
 30
0.0
  9
$PUCSYDIR
 10
0.0
 20
1.0
 30
0.0
  9
$PUCSORTHOREF
  2

  9
$PUCSORTHOVIEW
 70
0
  9
$PUCSORGTOP
 10
0.0
 20
0.0
 30
0.0
  9
$PUCSORGBOTTOM
 10
0.0
 20
0.0
 30
0.0
  9
$PUCSORGLEFT
 10
0.0
 20
0.0
 30
0.0
  9
$PUCSORGRIGHT
 10
0.0
 20
0.0
 30
0.0
  9
$PUCSORGFRONT
 10
0.0
 20
0.0
 30
0.0
  9
$PUCSORGBACK
 10
0.0
 20
0.0
 30
0.0
  9
$USERI1
 70
0
  9
$USERI2
 70
0
  9
$USERI3
 70
0
  9
$USERI4
 70
0
  9
$USERI5
 70
0
  9
$USERR1
 40
0.0
  9
$USERR2
 40
0.0
  9
$USERR3
 40
0.0
  9
$USERR4
 40
0.0
  9
$USERR5
 40
0.0
  9
$WORLDVIEW
 70
1
  9
$SHADEDGE
 70
3
  9
$SHADEDIF
 70
70
  9
$TILEMODE
 70
1
  9
$MAXACTVP
 70
64
  9
$PINSBASE
 10
0.0
 20
0.0
 30
0.0
  9
$PLIMCHECK
 70
0
  9
$PEXTMIN
 10
1e+20
 20
1e+20
 30
1e+20
  9
$PEXTMAX
 10
-1e+20
 20
-1e+20
 30
-1e+20
  9
$PLIMMIN
 10
0.0
 20
0.0
  9
$PLIMMAX
 10
420.0
 20
297.0
  9
$UNITMODE
 70
0
  9
$VISRETAIN
 70
1
  9
$PLINEGEN
 70
0
  9
$PSLTSCALE
 70
1
  9
$TREEDEPTH
 70
3020
  9
$CMLSTYLE
  2
Standard
  9
$CMLJUST
 70
0
  9
$CMLSCALE
 40
20.0
  9
$PROXYGRAPHICS
 70
1
  9
$MEASUREMENT
 70
1
  9
$CELWEIGHT
370
-1
  9
$ENDCAPS
280
0
  9
$JOINSTYLE
280
0
  9
$LWDISPLAY
290
0
  9
$INSUNITS
 70
0
  9
$HYPERLINKBASE
  1

  9
$STYLESHEET
  1

  9
$XEDIT
290
1
  9
$CEPSNTYPE
380
0
  9
$PSTYLEMODE
290
1
  9
$FINGERPRINTGUID
  2
{E0F12A48-3BFA-4EC9-B021-3848FC13EF40}
  9
$VERSIONGUID
  2
{5E07C4AC-6A7D-45D1-ACFB-76CDB764D75A}
  9
$EXTNAMES
290
1
  9
$PSVPSCALE
 40
0.0
  9
$OLESTARTUP
290
0
  9
$SORTENTS
280
127
  9
$INDEXCTL
280
0
  9
$HIDETEXT
280
1
  9
$XCLIPFRAME
280
1
  9
$HALOGAP
280
0
  9
$OBSCOLOR
 70
257
  9
$OBSLTYPE
280
0
  9
$INTERSECTIONDISPLAY
280
0
  9
$INTERSECTIONCOLOR
 70
257
  9
$DIMASSOC
280
2
  9
$PROJECTNAME
  1

  9
$CAMERADISPLAY
290
0
  9
$LENSLENGTH
 40
50.0
  9
$CAMERAHEIGHT
 40
0.0
  9
$STEPSPERSEC
 40
24.0
  9
$STEPSIZE
 40
100.0
  9
$3DDWFPREC
 40
2.0
  9
$PSOLWIDTH
 40
0.005
  9
$PSOLHEIGHT
 40
0.08
  9
$LOFTANG1
 40
1.570796326795
  9
$LOFTANG2
 40
1.570796326795
  9
$LOFTMAG1
 40
0.0
  9
$LOFTMAG2
 40
0.0
  9
$LOFTPARAM
 70
7
  9
$LOFTNORMALS
280
1
  9
$LATITUDE
 40
37.795
  9
$LONGITUDE
 40
-122.394
  9
$NORTHDIRECTION
 40
0.0
  9
$TIMEZONE
 70
-8000
  9
$LIGHTGLYPHDISPLAY
280
1
  9
$TILEMODELIGHTSYNCH
280
1
  9
$CMATERIAL
347
20
  9
$SOLIDHIST
280
0
  9
$SHOWHIST
280
1
  9
$DWFFRAME
280
2
  9
$DGNFRAME
280
2
  9
$REALWORLDSCALE
290
1
  9
$INTERFERECOLOR
 62
256
  9
$CSHADOW
280
0
  9
$SHADOWPLANELOCATION
 40
0.0
  0
ENDSEC
  0
SECTION
  2
CLASSES
  0
CLASS
  1
ACDBDICTIONARYWDFLT
  2
AcDbDictionaryWithDefault
  3
ObjectDBX Classes
 90
0
 91
0
280
0
281
0
  0
CLASS
  1
SUN
  2
AcDbSun
  3
SCENEOE
 90
1153
 91
0
280
0
281
0
  0
CLASS
  1
VISUALSTYLE
  2
AcDbVisualStyle
  3
ObjectDBX Classes
 90
4095
 91
0
280
0
281
0
  0
CLASS
  1
MATERIAL
  2
AcDbMaterial
  3
ObjectDBX Classes
 90
1153
 91
0
280
0
281
0
  0
CLASS
  1
SCALE
  2
AcDbScale
  3
ObjectDBX Classes
 90
1153
 91
0
280
0
281
0
  0
CLASS
  1
TABLESTYLE
  2
AcDbTableStyle
  3
ObjectDBX Classes
 90
4095
 91
0
280
0
281
0
  0
CLASS
  1
MLEADERSTYLE
  2
AcDbMLeaderStyle
  3
ACDB_MLEADERSTYLE_CLASS
 90
4095
 91
0
280
0
281
0
  0
CLASS
  1
DICTIONARYVAR
  2
AcDbDictionaryVar
  3
ObjectDBX Classes
 90
0
 91
0
280
0
281
0
  0
CLASS
  1
CELLSTYLEMAP
  2
AcDbCellStyleMap
  3
ObjectDBX Classes
 90
1152
 91
0
280
0
281
0
  0
CLASS
  1
MENTALRAYRENDERSETTINGS
  2
AcDbMentalRayRenderSettings
  3
SCENEOE
 90
1024
 91
0
280
0
281
0
  0
CLASS
  1
ACDBDETAILVIEWSTYLE
  2
AcDbDetailViewStyle
  3
ObjectDBX Classes
 90
1025
 91
0
280
0
281
0
  0
CLASS
  1
ACDBSECTIONVIEWSTYLE
  2
AcDbSectionViewStyle
  3
ObjectDBX Classes
 90
1025
 91
0
280
0
281
0
  0
CLASS
  1
RASTERVARIABLES
  2
AcDbRasterVariables
  3
ISM
 90
0
 91
0
280
0
281
0
  0
CLASS
  1
ACDBPLACEHOLDER
  2
AcDbPlaceHolder
  3
ObjectDBX Classes
 90
0
 91
0
280
0
281
0
  0
CLASS
  1
LAYOUT
  2
AcDbLayout
  3
ObjectDBX Classes
 90
0
 91
0
280
0
281
0
  0
ENDSEC
  0
SECTION
  2
TABLES
  0
TABLE
  2
VPORT
  5
8
330
0
100
AcDbSymbolTable
 70
1
  0
VPORT
  5
23
330
8
100
AcDbSymbolTableRecord
100
AcDbViewportTableRecord
  2
*Active
 70
0
 10
0.0
 20
0.0
 11
1.0
 21
1.0
 12
0.0
 22
0.0
 13
0.0
 23
0.0
 14
0.5
 24
0.5
 15
0.5
 25
0.5
 16
0.0
 26
0.0
 36
1.0
 17
0.0
 27
0.0
 37
0.0
 40
1000.0
 41
1.34
 42
50.0
 43
0.0
 44
0.0
 50
0.0
 51
0.0
 71
0
 72
1000
 73
1
 74
3
 75
0
 76
0
 77
0
 78
0
281
0
 65
0
146
0.0
  0
ENDTAB
  0
TABLE
  2
LTYPE
  5
2
330
0
100
AcDbSymbolTable
 70
3
  0
LTYPE
  5
24
330
2
100
AcDbSymbolTableRecord
100
AcDbLinetypeTableRecord
  2
ByBlock
 70
0
  3

 72
65
 73
0
 40
0.0
  0
LTYPE
  5
25
330
2
100
AcDbSymbolTableRecord
100
AcDbLinetypeTableRecord
  2
ByLayer
 70
0
  3

 72
65
 73
0
 40
0.0
  0
LTYPE
  5
26
330
2
100
AcDbSymbolTableRecord
100
AcDbLinetypeTableRecord
  2
Continuous
 70
0
  3

 72
65
 73
0
 40
0.0
  0
ENDTAB
  0
TABLE
  2
LAYER
  5
1
330
0
100
AcDbSymbolTable
 70
2
  0
LAYER
  5
27
330
1
100
AcDbSymbolTableRecord
100
AcDbLayerTableRecord
  2
0
 70
0
 62
7
  6
Continuous
370
-3
390
13
347
21
  0
LAYER
  5
28
330
1
100
AcDbSymbolTableRecord
100
AcDbLayerTableRecord
  2
Defpoints
 70
0
 62
7
  6
Continuous
290
0
370
-3
390
13
347
21
  0
ENDTAB
  0
TABLE
  2
STYLE
  5
5
330
0
100
AcDbSymbolTable
 70
1
  0
STYLE
  5
29
330
5
100
AcDbSymbolTableRecord
100
AcDbTextStyleTableRecord
  2
Standard
 70
0
 40
0.0
 41
1.0
 50
0.0
 71
0
 42
2.5
  3
txt
  4

  0
ENDTAB
  0
TABLE
  2
VIEW
  5
7
330
0
100
AcDbSymbolTable
 70
0
  0
ENDTAB
  0
TABLE
  2
UCS
  5
6
330
0
100
AcDbSymbolTable
 70
0
  0
ENDTAB
  0
TABLE
  2
APPID
  5
3
330
0
100
AcDbSymbolTable
 70
3
  0
APPID
  5
2A
330
3
100
AcDbSymbolTableRecord
100
AcDbRegAppTableRecord
  2
ACAD
 70
0
  0
APPID
  5
315
330
3
100
AcDbSymbolTableRecord
100
AcDbRegAppTableRecord
  2
HATCHBACKGROUNDCOLOR
 70
0
  0
APPID
  5
316
330
3
100
AcDbSymbolTableRecord
100
AcDbRegAppTableRecord
  2
EZDXF
 70
0
  0
ENDTAB
  0
TABLE
  2
DIMSTYLE
  5
4
330
0
100
AcDbSymbolTable
 70
1
100
AcDbDimStyleTable
  0
DIMSTYLE
105
2B
330
4
100
AcDbSymbolTableRecord
100
AcDbDimStyleTableRecord
  2
Standard
 70
0
 40
1.0
 41
2.5
 42
0.625
 43
3.75
 44
1.25
 45
0.0
 46
0.0
 47
0.0
 48
0.0
 49
2.5
140
2.5
141
2.5
142
0.0
143
0.03937007874
144
1.0
145
0.0
146
1.0
147
0.625
148
0.0
 69
0
 70
0
 71
0
 72
0
 73
0
 74
0
 75
0
 76
0
 77
1
 78
8
 79
3
170
0
171
3
172
1
173
0
174
0
175
0
176
0
177
0
178
0
179
2
271
2
272
2
273
2
274
3
275
0
276
0
277
2
278
44
279
0
280
0
281
0
282
0
283
0
284
8
285
0
286
0
288
0
289
3
290
0
371
-2
372
-2
  0
ENDTAB
  0
TABLE
  2
BLOCK_RECORD
  5
9
330
0
100
AcDbSymbolTable
 70
2
  0
BLOCK_RECORD
  5
17
330
9
100
AcDbSymbolTableRecord
100
AcDbBlockTableRecord
  2
*Model_Space
340
1A
 70
0
280
1
281
0
  0
BLOCK_RECORD
  5
1B
330
9
100
AcDbSymbolTableRecord
100
AcDbBlockTableRecord
  2
*Paper_Space
340
1E
 70
0
280
1
281
0
  0
ENDTAB
  0
ENDSEC
  0
SECTION
  2
BLOCKS
  0
BLOCK
  5
18
330
17
100
AcDbEntity
  8
0
100
AcDbBlockBegin
  2
*Model_Space
 70
0
 10
0.0
 20
0.0
 30
0.0
  3
*Model_Space
  1

  0
ENDBLK
  5
19
330
17
100
AcDbEntity
  8
0
100
AcDbBlockEnd
  0
BLOCK
  5
1C
330
1B
100
AcDbEntity
  8
0
100
AcDbBlockBegin
  2
*Paper_Space
 70
0
 10
0.0
 20
0.0
 30
0.0
  3
*Paper_Space
  1

  0
ENDBLK
  5
1D
330
1B
100
AcDbEntity
  8
0
100
AcDbBlockEnd
  0
ENDSEC
  0
SECTION
  2
ENTITIES
  0
LINE
  5
2F
330
17
100
AcDbEntity
  8
0
100
AcDbLine
 10
-70.75732677067701
 20
1788.0511402540974
 30
0.0
 11
1969.4494149212178
 21
1966.5461014013013
 31
0.0
  0
LINE
  5
30
330
17
100
AcDbEntity
  8
0
100
AcDbLine
 10
471.90906948954523
 20
1846.1988238354875
 30
0.0
 11
636.7369646706275
 21
-37.79263903834726
 31
0.0
  0
LINE
  5
31
330
17
100
AcDbEntity
  8
0
100
AcDbLine
 10
-14.140407269245543
 20
1140.916789131507
 30
0.0
 11
2026.0663344226493
 21
1319.4117502787108
 31
0.0
  0
LINE
  5
32
330
17
100
AcDbEntity
  8
0
100
AcDbLine
 10
472.83552817229594
 20
1835.6093526352993
 30
0.0
 11
590.4963192854943
 21
1845.903337999196
 31
0.0
  0
LINE
  5
33
330
17
100
AcDbEntity
  8
0
100
AcDbLine
 10
1002.3090881816883
 20
1881.9322867728342
 30
0.0
 11
1166.2105246800197
 21
8.530295099187697
 31
0.0
  0
LINE
  5
34
330
17
100
AcDbEntity
  8
0
100
AcDbLine
 10
1531.7826481910809
 20
1928.2552209103692
 30
0.0
 11
1695.6840846894124
 21
54.85322923672243
 31
0.0
  0
LINE
  5
35
330
17
100
AcDbEntity
  8
0
100
AcDbLine
 10
42.47651223218583
 20
493.7824380089175
 30
0.0
 11
2082.683253924081
 21
672.2773991561214
 31
0.0
  0
LINE
  5
36
330
17
100
AcDbEntity
  8
0
100
AcDbLine
 10
472.83552817229594
 20
1835.6093526352993
 30
0.0
 11
509.0703566532123
 21
1421.4433679168392
 31
0.0
  0
LINE
  5
37
330
17
100
AcDbEntity
  8
0
100
AcDbLine
 10
457.48095499504745
 20
1848.4933693252156
 30
0.0
 11
597.4972964197533
 21
1860.7432119082528
 31
0.0
  0
LINE
  5
38
330
17
100
AcDbEntity
  8
0
100
AcDbLine
 10
2053.963034758809
 20
1000.5510063619445
 30
0.0
 11
1946.9230910567592
 21
991.186224743562
 31
0.0
  0
LINE
  5
39
330
17
100
AcDbEntity
  8
0
100
AcDbLine
 10
2055.5071325633935
 20
982.9018876949635
 30
0.0
 11
1607.2508946330713
 21
943.6845485212812
 31
0.0
  0
LINE
  5
3A
330
17
100
AcDbEntity
  8
0
100
AcDbLine
 10
1946.9230910567592
 20
991.186224743562
 30
0.0
 11
1927.3645188653556
 21
1214.7417278586397
 31
0.0
  0
LINE
  5
3B
330
17
100
AcDbEntity
  8
0
100
AcDbLine
 10
2034.4044625674055
 20
1224.1065094770222
 30
0.0
 11
1927.3645188653556
 21
1214.7417278586397
 31
0.0
  0
LINE
  5
3C
330
17
100
AcDbEntity
  8
0
100
AcDbLine
 10
1929.2739723897823
 20
989.6421269389778
 30
0.0
 11
1909.7154001983788
 21
1213.1976300540555
 31
0.0
  0
LINE
  5
3D
330
17
100
AcDbEntity
  8
0
100
AcDbLine
 10
1929.2739723897823
 20
989.6421269389778
 30
0.0
 11
1623.355915495464
 21
962.8777649928463
 31
0.0
  0
LINE
  5
3E
330
17
100
AcDbEntity
  8
0
100
AcDbLine
 10
590.6851256038702
 20
325.9627323204255
 30
0.0
 11
622.6176697370465
 21
-39.02791728201453
 31
0.0
  0
LINE
  5
3F
330
17
100
AcDbEntity
  8
0
100
AcDbLine
 10
2032.8603647628213
 20
1241.7556281439984
 30
0.0
 11
1819.9257090588953
 21
1223.1262596981092
 31
0.0
  0
LINE
  5
40
330
17
100
AcDbEntity
  8
0
100
AcDbLine
 10
1909.7154001983788
 20
1213.1976300540555
 30
0.0
 11
1603.7973433040604
 21
1186.433268107924
 31
0.0
  0
LINE
  5
41
330
17
100
AcDbEntity
  8
0
100
AcDbLine
 10
1602.2532454994762
 20
1204.0823867749002
 30
0.0
 11
1596.385673842055
 21
1271.1490377094246
 31
0.0
  0
LINE
  5
42
330
17
100
AcDbEntity
  8
0
100
AcDbLine
 10
1623.355915495464
 20
962.8777649928463
 30
0.0
 11
1603.7973433040604
 21
1186.433268107924
 31
0.0
  0
LINE
  5
43
330
17
100
AcDbEntity
  8
0
100
AcDbLine
 10
1607.2508946330713
 20
943.6845485212812
 30
0.0
 11
1578.7365551750777
 21
1269.6049399048404
 31
0.0
  0
LINE
  5
44
330
17
100
AcDbEntity
  8
0
100
AcDbLine
 10
1304.5501119678659
 20
1896.5188101930912
 30
0.0
 11
1535.1620612893146
 21
1632.147385908233
 31
0.0
  0
LINE
  5
45
330
17
100
AcDbEntity
  8
0
100
AcDbLine
 10
1329.2556768412178
 20
1614.132911521414
 30
0.0
 11
1510.4564964159626
 21
1914.5332845799103
 31
0.0
  0
LINE
  5
46
330
17
100
AcDbEntity
  8
0
100
AcDbLine
 10
1819.9257090588953
 20
1223.1262596981092
 30
0.0
 11
1816.8375134497262
 21
1258.42449703207
 31
0.0
  0
LINE
  5
47
330
17
100
AcDbEntity
  8
0
100
AcDbLine
 10
1802.2765903919155
 20
1221.5821618935247
 30
0.0
 11
1799.1883947827464
 21
1256.8803992274854
 31
0.0
  0
LINE
  5
48
330
17
100
AcDbEntity
  8
0
100
AcDbLine
 10
1940.9424470814947
 20
1466.094192716655
 30
0.0
 11
1910.060490989805
 21
1819.0765660562502
 31
0.0
  0
LINE
  5
49
330
17
100
AcDbEntity
  8
0
100
AcDbLine
 10
1952.7085261928146
 20
1467.1235912530447
 30
0.0
 11
1921.8265701011248
 21
1820.1059645926398
 31
0.0
  0
LINE
  5
4A
330
17
100
AcDbEntity
  8
0
100
AcDbLine
 10
1768.867541653968
 20
1806.723783619574
 30
0.0
 11
1981.8021973578939
 21
1825.3531520654633
 31
0.0
  0
LINE
  5
4B
330
17
100
AcDbEntity
  8
0
100
AcDbLine
 10
1771.9557372631368
 20
1771.4255462856145
 30
0.0
 11
1913.1486865989739
 21
1783.7783287222906
 31
0.0
  0
LINE
  5
4C
330
17
100
AcDbEntity
  8
0
100
AcDbLine
 10
1775.0439328723057
 20
1736.1273089516553
 30
0.0
 11
1916.2368822081428
 21
1748.480091388331
 31
0.0
  0
LINE
  5
4D
330
17
100
AcDbEntity
  8
0
100
AcDbLine
 10
1778.1321284814746
 20
1700.8290716176966
 30
0.0
 11
1919.3250778173117
 21
1713.1818540543725
 31
0.0
  0
LINE
  5
4E
330
17
100
AcDbEntity
  8
0
100
AcDbLine
 10
1781.220324090644
 20
1665.5308342837338
 30
0.0
 11
1922.413273426481
 21
1677.8836167204097
 31
0.0
  0
LINE
  5
4F
330
17
100
AcDbEntity
  8
0
100
AcDbLine
 10
1784.308519699813
 20
1630.2325969497767
 30
0.0
 11
1925.50146903565
 21
1642.5853793864526
 31
0.0
  0
LINE
  5
50
330
17
100
AcDbEntity
  8
0
100
AcDbLine
 10
1787.3967153089818
 20
1594.9343596158171
 30
0.0
 11
1857.993189976901
 21
1601.1107508341552
 31
0.0
  0
LINE
  5
51
330
17
100
AcDbEntity
  8
0
100
AcDbLine
 10
1799.7494977456577
 20
1453.7414102799792
 30
0.0
 11
2012.6841534495836
 21
1472.3707787258684
 31
0.0
  0
LINE
  5
52
330
17
100
AcDbEntity
  8
0
100
AcDbLine
 10
1816.8375134497262
 20
1258.42449703207
 30
0.0
 11
1799.1883947827464
 21
1256.8803992274854
 31
0.0
  0
LINE
  5
53
330
17
100
AcDbEntity
  8
0
100
AcDbLine
 10
1804.4847310130501
 20
1399.6174463679095
 30
0.0
 11
1786.8356123460703
 21
1398.073348563325
 31
0.0
  0
LINE
  5
54
330
17
100
AcDbEntity
  8
0
100
AcDbLine
 10
1786.8356123460703
 20
1398.073348563325
 30
0.0
 11
1738.865640550312
 21
1946.3726351508276
 31
0.0
  0
LINE
  5
55
330
17
100
AcDbEntity
  8
0
100
AcDbLine
 10
1804.4847310130501
 20
1399.6174463679095
 30
0.0
 11
1756.5147592172918
 21
1947.916732955412
 31
0.0
  0
LINE
  5
56
330
17
100
AcDbEntity
  8
0
100
AcDbLine
 10
1802.2765903919155
 20
1221.5821618935247
 30
0.0
 11
1602.2532454994762
 21
1204.0823867749002
 31
0.0
  0
LINE
  5
57
330
17
100
AcDbEntity
  8
0
100
AcDbLine
 10
1924.9147657102938
 20
1784.8077272586802
 30
0.0
 11
1984.8903929670628
 21
1790.0549147315037
 31
0.0
  0
LINE
  5
58
330
17
100
AcDbEntity
  8
0
100
AcDbLine
 10
1928.0029613194627
 20
1749.5094899247206
 30
0.0
 11
1987.9785885762317
 21
1754.7566773975445
 31
0.0
  0
LINE
  5
59
330
17
100
AcDbEntity
  8
0
100
AcDbLine
 10
1931.0911569286316
 20
1714.2112525907621
 30
0.0
 11
1991.0667841854006
 21
1719.4584400635858
 31
0.0
  0
LINE
  5
5A
330
17
100
AcDbEntity
  8
0
100
AcDbLine
 10
1934.179352537801
 20
1678.9130152567993
 30
0.0
 11
1994.15497979457
 21
1684.160202729623
 31
0.0
  0
LINE
  5
5B
330
17
100
AcDbEntity
  8
0
100
AcDbLine
 10
1937.2675481469698
 20
1643.6147779228422
 30
0.0
 11
1997.2431754037389
 21
1648.861965395666
 31
0.0
  0
LINE
  5
5C
330
17
100
AcDbEntity
  8
0
100
AcDbLine
 10
1940.3557437561387
 20
1608.3165405888826
 30
0.0
 11
2000.3313710129078
 21
1613.5637280617063
 31
0.0
  0
LINE
  5
5D
330
17
100
AcDbEntity
  8
0
100
AcDbLine
 10
1943.4439393653076
 20
1573.018303254923
 30
0.0
 11
2003.4195666220767
 21
1578.2654907277467
 31
0.0
  0
LINE
  5
5E
330
17
100
AcDbEntity
  8
0
100
AcDbLine
 10
1946.5321349744765
 20
1537.7200659209648
 30
0.0
 11
2006.5077622312456
 21
1542.9672533937885
 31
0.0
  0
LINE
  5
5F
330
17
100
AcDbEntity
  8
0
100
AcDbLine
 10
1949.620330583646
 20
1502.421828587002
 30
0.0
 11
2009.595957840415
 21
1507.6690160598257
 31
0.0
  0
LINE
  5
60
330
17
100
AcDbEntity
  8
0
100
AcDbLine
 10
1971.3676461144257
 20
1801.1895088208316
 30
0.0
 11
1982.7314011034082
 21
1814.7323046543136
 31
0.0
  0
LINE
  5
61
330
17
100
AcDbEntity
  8
0
100
AcDbLine
 10
1839.4640163218871
 20
1812.9001748379123
 30
0.0
 11
1857.993189976901
 21
1601.1107508341552
 31
0.0
  0
LINE
  5
62
330
17
100
AcDbEntity
  8
0
100
AcDbLine
 10
1832.900342986754
 20
1622.1661494887742
 30
0.0
 11
1857.993189976901
 21
1601.1107508341552
 31
0.0
  0
LINE
  5
63
330
17
100
AcDbEntity
  8
0
100
AcDbLine
 10
1879.0485886315178
 20
1626.2035978243005
 30
0.0
 11
1857.993189976901
 21
1601.1107508341552
 31
0.0
  0
LINE
  5
64
330
17
100
AcDbEntity
  8
0
100
AcDbLine
 10
1790.4849109181507
 20
1559.6361222818575
 30
0.0
 11
1925.50146903565
 21
1642.5853793864526
 31
0.0
  0
LINE
  5
65
330
17
100
AcDbEntity
  8
0
100
AcDbLine
 10
1236.3953921644174
 20
1916.639552434211
 30
0.0
 11
1564.668999370243
 21
1945.3597715994829
 31
0.0
  0
LINE
  5
66
330
17
100
AcDbEntity
  8
0
100
AcDbLine
 10
1237.630670408085
 20
1902.5202575006274
 30
0.0
 11
1565.9042776139106
 21
1931.2404766658992
 31
0.0
  0
LINE
  5
67
330
17
100
AcDbEntity
  8
0
100
AcDbLine
 10
539.643493183985
 20
1071.9908183106436
 30
0.0
 11
525.5241982504041
 21
1070.7555400669762
 31
0.0
  0
LINE
  5
68
330
17
100
AcDbEntity
  8
0
100
AcDbLine
 10
548.9080800114921
 20
966.096106308764
 30
0.0
 11
534.7887850779111
 21
964.8608280650967
 31
0.0
  0
LINE
  5
69
330
17
100
AcDbEntity
  8
0
100
AcDbLine
 10
563.6284790818646
 20
797.8411750168859
 30
0.0
 11
548.9080800114921
 21
966.096106308764
 31
0.0
  0
LINE
  5
6A
330
17
100
AcDbEntity
  8
0
100
AcDbLine
 10
549.5091841482837
 20
796.6058967732185
 30
0.0
 11
534.0682061024387
 21
973.0970834430169
 31
0.0
  0
LINE
  5
6B
330
17
100
AcDbEntity
  8
0
100
AcDbLine
 10
605.5249995129235
 20
318.9617551861735
 30
0.0
 11
636.7369646706275
 21
-37.79263903834726
 31
0.0
  0
LINE
  5
6C
330
17
100
AcDbEntity
  8
0
100
AcDbLine
 10
577.0106600549301
 20
644.88214656973
 30
0.0
 11
596.2604126854166
 21
424.8564671880516
 31
0.0
  0
LINE
  5
6D
330
17
100
AcDbEntity
  8
0
100
AcDbLine
 10
596.2604126854166
 20
424.8564671880516
 30
0.0
 11
582.1411177518356
 21
423.62118894438436
 31
0.0
  0
LINE
  5
6E
330
17
100
AcDbEntity
  8
0
100
AcDbLine
 10
605.5249995129235
 20
318.9617551861735
 30
0.0
 11
591.4057045793426
 21
317.7264769425062
 31
0.0
  0
LINE
  5
6F
330
17
100
AcDbEntity
  8
0
100
AcDbLine
 10
518.3349434807191
 20
1315.548655914963
 30
0.0
 11
504.21564854713813
 21
1314.3133776712957
 31
0.0
  0
LINE
  5
70
330
17
100
AcDbEntity
  8
0
100
AcDbLine
 10
509.0703566532123
 20
1421.4433679168392
 30
0.0
 11
494.95106171963135
 21
1420.2080896731718
 31
0.0
  0
LINE
  5
71
330
17
100
AcDbEntity
  8
0
100
AcDbLine
 10
518.3349434807191
 20
1315.548655914963
 30
0.0
 11
539.643493183985
 21
1071.9908183106436
 31
0.0
  0
LINE
  5
72
330
17
100
AcDbEntity
  8
0
100
AcDbLine
 10
1565.9042776139106
 20
1931.2404766658992
 30
0.0
 11
1564.668999370243
 21
1945.3597715994829
 31
0.0
  0
LINE
  5
73
330
17
100
AcDbEntity
  8
0
100
AcDbLine
 10
1707.0972269497474
 20
1943.5932591025753
 30
0.0
 11
1705.8619487060798
 21
1957.7125540361587
 31
0.0
  0
LINE
  5
74
330
17
100
AcDbEntity
  8
0
100
AcDbLine
 10
1707.0972269497474
 20
1943.5932591025753
 30
0.0
 11
1885.9416294418127
 21
1959.2401168556985
 31
0.0
  0
LINE
  5
75
330
17
100
AcDbEntity
  8
0
100
AcDbLine
 10
1705.8619487060798
 20
1957.7125540361587
 30
0.0
 11
1892.9426065760651
 21
1974.0799907647545
 31
0.0
  0
LINE
  5
76
330
17
100
AcDbEntity
  8
0
100
AcDbLine
 10
1885.9416294418127
 20
1959.2401168556985
 30
0.0
 11
1884.706351198145
 21
1973.359411789282
 31
0.0
  0
LINE
  5
77
330
17
100
AcDbEntity
  8
0
100
AcDbLine
 10
380.7080891087876
 20
1912.9134527747965
 30
0.0
 11
953.716141830064
 21
1963.0451614969734
 31
0.0
  0
LINE
  5
78
330
17
100
AcDbEntity
  8
0
100
AcDbLine
 10
380.7080891087876
 20
1912.9134527747965
 30
0.0
 11
476.33921313938765
 21
819.8447033331806
 31
0.0
  0
LINE
  5
79
330
17
100
AcDbEntity
  8
0
100
AcDbLine
 10
494.8683867944015
 20
608.055279329425
 30
0.0
 11
552.0211950691247
 21
-45.204308500352795
 31
0.0
  0
LINE
  5
7A
330
17
100
AcDbEntity
  8
0
100
AcDbLine
 10
1037.6073255156527
 20
1885.0204823820036
 30
0.0
 11
1036.3720472719851
 21
1899.1397773155873
 31
0.0
  0
LINE
  5
7B
330
17
100
AcDbEntity
  8
0
100
AcDbLine
 10
1237.630670408085
 20
1902.5202575006274
 30
0.0
 11
1236.3953921644174
 21
1916.639552434211
 31
0.0
  0
LINE
  5
7C
330
17
100
AcDbEntity
  8
0
100
AcDbLine
 10
563.6284790818646
 20
797.8411750168859
 30
0.0
 11
549.5091841482837
 21
796.6058967732185
 31
0.0
  0
LINE
  5
7D
330
17
100
AcDbEntity
  8
0
100
AcDbLine
 10
577.0106600549301
 20
644.88214656973
 30
0.0
 11
562.8913651213492
 21
643.6468683260628
 31
0.0
  0
LINE
  5
7E
330
17
100
AcDbEntity
  8
0
100
AcDbLine
 10
589.2610410418267
 20
1860.0226329327797
 30
0.0
 11
590.4963192854943
 21
1845.903337999196
 31
0.0
  0
LINE
  5
7F
330
17
100
AcDbEntity
  8
0
100
AcDbLine
 10
777.5183068229469
 20
1876.4930095150144
 30
0.0
 11
778.7535850666145
 21
1862.373714581431
 31
0.0
  0
LINE
  5
80
330
17
100
AcDbEntity
  8
0
100
AcDbLine
 10
778.7535850666145
 20
1862.373714581431
 30
0.0
 11
1037.6073255156527
 21
1885.0204823820036
 31
0.0
  0
LINE
  5
81
330
17
100
AcDbEntity
  8
0
100
AcDbLine
 10
589.2610410418267
 20
1860.0226329327797
 30
0.0
 11
777.5183068229469
 21
1876.4930095150144
 31
0.0
  0
LINE
  5
82
330
17
100
AcDbEntity
  8
0
100
AcDbLine
 10
590.4963192854943
 20
1845.903337999196
 30
0.0
 11
778.7535850666145
 21
1862.373714581431
 31
0.0
  0
LINE
  5
83
330
17
100
AcDbEntity
  8
0
100
AcDbLine
 10
549.5091841482837
 20
796.6058967732185
 30
0.0
 11
562.8913651213492
 21
643.6468683260628
 31
0.0
  0
LINE
  5
84
330
17
100
AcDbEntity
  8
0
100
AcDbLine
 10
1036.3720472719851
 20
1899.1397773155873
 30
0.0
 11
1236.3953921644174
 21
1916.639552434211
 31
0.0
  0
LINE
  5
85
330
17
100
AcDbEntity
  8
0
100
AcDbLine
 10
309.11261329710067
 20
698.5090132854604
 30
0.0
 11
379.70908796501897
 21
704.6854045037983
 31
0.0
  0
LINE
  5
86
330
17
100
AcDbEntity
  8
0
100
AcDbLine
 10
358.65368931039853
 20
679.592557513651
 30
0.0
 11
379.70908796501897
 21
704.6854045037983
 31
0.0
  0
LINE
  5
87
330
17
100
AcDbEntity
  8
0
100
AcDbLine
 10
354.6162409748724
 20
725.7408031584114
 30
0.0
 11
379.70908796501897
 21
704.6854045037983
 31
0.0
  0
LINE
  5
88
330
17
100
AcDbEntity
  8
0
100
AcDbLine
 10
370.44450113751225
 20
810.5801165056739
 30
0.0
 11
388.9736747925261
 21
598.7906925019183
 31
0.0
  0
LINE
  5
89
330
17
100
AcDbEntity
  8
0
100
AcDbLine
 10
335.1462638035513
 20
807.4919208965048
 30
0.0
 11
353.6754374585651
 21
595.7024968927492
 31
0.0
  0
LINE
  5
8A
330
17
100
AcDbEntity
  8
0
100
AcDbLine
 10
299.84802646959054
 20
804.4037252873359
 30
0.0
 11
318.37720012460437
 21
592.6143012835802
 31
0.0
  0
LINE
  5
8B
330
17
100
AcDbEntity
  8
0
100
AcDbLine
 10
299.84802646959054
 20
804.4037252873359
 30
0.0
 11
546.9356878073095
 21
826.0210945515189
 31
0.0
  0
LINE
  5
8C
330
17
100
AcDbEntity
  8
0
100
AcDbLine
 10
318.37720012460437
 20
592.6143012835802
 30
0.0
 11
565.4648614623234
 21
614.2316705477633
 31
0.0
  0
LINE
  5
8D
330
17
100
AcDbEntity
  8
0
100
AcDbLine
 10
1330.1047960327746
 20
1265.6366893076367
 30
0.0
 11
1323.4137055462418
 21
1342.1162035312148
 31
0.0
  0
LINE
  5
8E
330
17
100
AcDbEntity
  8
0
100
AcDbLine
 10
1347.7539146997556
 20
1267.1807871122214
 30
0.0
 11
1341.0628242132227
 21
1343.6603013357994
 31
0.0
  0
LINE
  5
8F
330
17
100
AcDbEntity
  8
0
100
AcDbLine
 10
1330.768838849326
 20
1461.3210924489997
 30
0.0
 11
1560.2073815200636
 21
1481.3943639085983
 31
0.0
  0
LINE
  5
90
330
17
100
AcDbEntity
  8
0
100
AcDbLine
 10
1329.2247410447414
 20
1478.9702111159784
 30
0.0
 11
1576.3124023824564
 21
1500.5875803801612
 31
0.0
  0
LINE
  5
91
330
17
100
AcDbEntity
  8
0
100
AcDbLine
 10
1329.2247410447414
 20
1478.9702111159784
 30
0.0
 11
1291.7546343201577
 21
1907.25549076802
 31
0.0
  0
LINE
  5
92
330
17
100
AcDbEntity
  8
0
100
AcDbLine
 10
1594.5327564765535
 20
1292.3279801098015
 30
0.0
 11
1576.3124023824564
 21
1500.5875803801612
 31
0.0
  0
LINE
  5
93
330
17
100
AcDbEntity
  8
0
100
AcDbLine
 10
1576.8836378095762
 20
1290.7838823052173
 30
0.0
 11
1560.2073815200636
 21
1481.3943639085983
 31
0.0
  0
LINE
  5
94
330
17
100
AcDbEntity
  8
0
100
AcDbLine
 10
1347.7539146997556
 20
1267.1807871122214
 30
0.0
 11
1577.1924573704932
 21
1287.25405857182
 31
0.0
  0
LINE
  5
95
330
17
100
AcDbEntity
  8
0
100
AcDbLine
 10
1070.4419375660589
 20
1225.1349231328068
 30
0.0
 11
1095.150703699835
 21
1227.2966600592254
 31
0.0
  0
LINE
  5
96
330
17
100
AcDbEntity
  8
0
100
AcDbLine
 10
1068.8978397614744
 20
1242.7840417997863
 30
0.0
 11
1093.6066058952506
 21
1244.945778726205
 31
0.0
  0
LINE
  5
97
330
17
100
AcDbEntity
  8
0
100
AcDbLine
 10
550.0137509522702
 20
1197.3875663450021
 30
0.0
 11
1047.7188973611012
 21
1240.931124434285
 31
0.0
  0
LINE
  5
98
330
17
100
AcDbEntity
  8
0
100
AcDbLine
 10
551.5578487568547
 20
1179.7384476780226
 30
0.0
 11
1049.2629951656857
 21
1223.2820057673055
 31
0.0
  0
LINE
  5
99
330
17
100
AcDbEntity
  8
0
100
AcDbLine
 10
505.26158206857053
 20
1464.9778606287225
 30
0.0
 11
1024.145670877778
 21
1510.374336083507
 31
0.0
  0
LINE
  5
9A
330
17
100
AcDbEntity
  8
0
100
AcDbLine
 10
506.8056798731549
 20
1447.328741961745
 30
0.0
 11
1025.6897686823622
 21
1492.7252174165294
 31
0.0
  0
LINE
  5
9B
330
17
100
AcDbEntity
  8
0
100
AcDbLine
 10
1024.145670877778
 20
1510.374336083507
 30
0.0
 11
1017.9692796594397
 21
1580.9708107514293
 31
0.0
  0
LINE
  5
9C
330
17
100
AcDbEntity
  8
0
100
AcDbLine
 10
1017.9692796594397
 20
1580.9708107514293
 30
0.0
 11
1035.6183983264168
 21
1582.5149085560136
 31
0.0
  0
LINE
  5
9D
330
17
100
AcDbEntity
  8
0
100
AcDbLine
 10
1031.7632200470614
 20
1423.3053506597423
 30
0.0
 11
1049.4123387140385
 21
1424.8494484643265
 31
0.0
  0
LINE
  5
9E
330
17
100
AcDbEntity
  8
0
100
AcDbLine
 10
1031.7632200470614
 20
1423.3053506597423
 30
0.0
 11
1025.6897686823622
 21
1492.7252174165294
 31
0.0
  0
LINE
  5
9F
330
17
100
AcDbEntity
  8
0
100
AcDbLine
 10
1049.4123387140385
 20
1424.8494484643265
 30
0.0
 11
1035.6183983264168
 21
1582.5149085560136
 31
0.0
  0
LINE
  5
A0
330
17
100
AcDbEntity
  8
0
100
AcDbLine
 10
1007.6752942955432
 20
1698.6316018646276
 30
0.0
 11
993.5725343470046
 21
1859.8268856897096
 31
0.0
  0
LINE
  5
A1
330
17
100
AcDbEntity
  8
0
100
AcDbLine
 10
1025.3244129625202
 20
1700.175699669212
 30
0.0
 11
1011.2216530139817
 21
1861.3709834942938
 31
0.0
  0
LINE
  5
A2
330
17
100
AcDbEntity
  8
0
100
AcDbLine
 10
1007.6752942955432
 20
1698.6316018646276
 30
0.0
 11
1025.3244129625202
 21
1700.175699669212
 31
0.0
  0
LINE
  5
A3
330
17
100
AcDbEntity
  8
0
100
AcDbLine
 10
1042.057205410958
 20
1305.644559546544
 30
0.0
 11
1059.706324077935
 21
1307.1886573511283
 31
0.0
  0
LINE
  5
A4
330
17
100
AcDbEntity
  8
0
100
AcDbLine
 10
1065.0591964671612
 20
1246.0050459722665
 30
0.0
 11
1059.706324077935
 21
1307.1886573511283
 31
0.0
  0
LINE
  5
A5
330
17
100
AcDbEntity
  8
0
100
AcDbLine
 10
1047.4100778001841
 20
1244.4609481676823
 30
0.0
 11
1042.057205410958
 21
1305.644559546544
 31
0.0
  0
LINE
  5
A6
330
17
100
AcDbEntity
  8
0
100
AcDbLine
 10
1093.6066058952506
 20
1244.945778726205
 30
0.0
 11
1095.150703699835
 21
1227.2966600592254
 31
0.0
  0
LINE
  5
A7
330
17
100
AcDbEntity
  8
0
100
AcDbLine
 10
1293.629950787683
 20
1262.4455538448287
 30
0.0
 11
1295.1740485922674
 21
1244.7964351778492
 31
0.0
  0
LINE
  5
A8
330
17
100
AcDbEntity
  8
0
100
AcDbLine
 10
1293.629950787683
 20
1262.4455538448287
 30
0.0
 11
1330.1047960327746
 21
1265.6366893076367
 31
0.0
  0
LINE
  5
A9
330
17
100
AcDbEntity
  8
0
100
AcDbLine
 10
1295.1740485922674
 20
1244.7964351778492
 30
0.0
 11
1578.7365551750777
 21
1269.6049399048404
 31
0.0
  0
LINE
  5
AA
330
17
100
AcDbEntity
  8
0
100
AcDbLine
 10
1314.1491187187348
 20
1448.010915533094
 30
0.0
 11
1331.7982373857158
 21
1449.5550133376787
 31
0.0
  0
LINE
  5
AB
330
17
100
AcDbEntity
  8
0
100
AcDbLine
 10
1323.4137055462418
 20
1342.1162035312148
 30
0.0
 11
1341.0628242132227
 21
1343.6603013357994
 31
0.0
  0
LINE
  5
AC
330
17
100
AcDbEntity
  8
0
100
AcDbLine
 10
1331.7982373857158
 20
1449.5550133376787
 30
0.0
 11
1330.768838849326
 21
1461.3210924489997
 31
0.0
  0
LINE
  5
AD
330
17
100
AcDbEntity
  8
0
100
AcDbLine
 10
1314.1491187187348
 20
1448.010915533094
 30
0.0
 11
1274.1055156531768
 21
1905.7113929634356
 31
0.0
  0
LINE
  5
AE
330
17
100
AcDbEntity
  8
0
100
AcDbLine
 10
959.892533048402
 20
1892.4486868290542
 30
0.0
 11
952.201513873968
 21
1980.357438254376
 31
0.0
  0
LINE
  5
AF
330
17
100
AcDbEntity
  8
0
100
AcDbLine
 10
1312.8749063879964
 20
1923.330642920744
 30
0.0
 11
1305.1838872135625
 21
2011.2393943460656
 31
0.0
  0
LINE
  5
B0
330
17
100
AcDbEntity
  8
0
100
AcDbLine
 10
946.5342866431972
 20
2045.1341419137188
 30
0.0
 11
1299.5166599827917
 21
2076.016098005409
 31
0.0
  0
LINE
  5
B1
330
17
100
AcDbEntity
  8
0
100
AcDbLine
 10
1306.6985151696585
 20
1993.9271175886631
 30
0.0
 11
1523.1943708179447
 21
2012.868050658233
 31
0.0
  0
LINE
  5
B2
330
17
100
AcDbEntity
  8
0
100
AcDbLine
 10
1303.3525800876691
 20
2032.1713305774454
 30
0.0
 11
1299.5166599827917
 21
2076.016098005409
 31
0.0
  0
LINE
  5
B3
330
17
100
AcDbEntity
  8
0
100
AcDbLine
 10
950.3702067480747
 20
2001.2893744857556
 30
0.0
 11
946.5342866431972
 21
2045.1341419137188
 31
0.0
  0
LINE
  5
B4
330
17
100
AcDbEntity
  8
0
100
AcDbLine
 10
1781.245924453089
 20
1326.4474753590125
 30
0.0
 11
1822.4272013427083
 21
1330.0503702363762
 31
0.0
  0
LINE
  5
B5
330
17
100
AcDbEntity
  8
0
100
AcDbLine
 10
1634.2360755017712
 20
1963.302241929141
 30
0.0
 11
1637.530150818218
 21
1925.650788772919
 31
0.0
  0
LINE
  5
B6
330
17
100
AcDbEntity
  8
0
100
AcDbLine
 10
1035.6183983264168
 20
1582.5149085560136
 30
0.0
 11
1111.5381947460874
 21
1672.9925986881767
 31
0.0
  0
LINE
  5
B7
330
17
100
AcDbEntity
  8
0
100
AcDbLine
 10
1059.706324077935
 20
1307.1886573511283
 30
0.0
 11
1135.6261204976054
 21
1397.666347483294
 31
0.0
  0
LINE
  5
B8
330
17
100
AcDbEntity
  8
0
100
AcDbLine
 10
1323.4137055462418
 20
1342.1162035312148
 30
0.0
 11
1241.983784427297
 21
1410.4440203089184
 31
0.0
  0
LINE
  5
B9
330
17
100
AcDbEntity
  8
0
100
AcDbLine
 10
598.0119956879414
 20
1854.8601723525937
 30
0.0
 11
769.7967507132118
 21
1869.889390983883
 31
0.0
  0
LINE
  5
BA
330
17
100
AcDbEntity
  8
0
100
AcDbLine
 10
769.7967507132118
 20
1869.889390983883
 30
0.0
 11
769.5394010791146
 21
1872.8309107617115
 31
0.0
  0
LINE
  5
BB
330
17
100
AcDbEntity
  8
0
100
AcDbLine
 10
769.5394010791146
 20
1872.8309107617115
 30
0.0
 11
597.7546460538441
 21
1857.8016921304225
 31
0.0
  0
LINE
  5
BC
330
17
100
AcDbEntity
  8
0
100
AcDbLine
 10
597.7546460538441
 20
1857.8016921304225
 30
0.0
 11
598.0119956879414
 21
1854.8601723525937
 31
0.0
  0
LINE
  5
BD
330
17
100
AcDbEntity
  8
0
100
AcDbLine
 10
598.0119956879414
 20
1854.8601723525937
 30
0.0
 11
598.0119956879414
 21
1854.8601723525937
 31
0.0
  0
LINE
  5
BE
330
17
100
AcDbEntity
  8
0
100
AcDbLine
 10
1036.3720472719851
 20
1899.1397773155873
 30
0.0
 11
769.2820514450201
 21
1875.7724305395413
 31
0.0
  0
LINE
  5
BF
330
17
100
AcDbEntity
  8
0
100
AcDbLine
 10
769.2820514450201
 20
1875.7724305395413
 30
0.0
 11
769.7967507132148
 21
1869.889390983883
 31
0.0
  0
LINE
  5
C0
330
17
100
AcDbEntity
  8
0
100
AcDbLine
 10
769.7967507132148
 20
1869.889390983883
 30
0.0
 11
778.0330060911416
 21
1870.609969959356
 31
0.0
  0
LINE
  5
C1
330
17
100
AcDbEntity
  8
0
100
AcDbLine
 10
777.5183068229469
 20
1876.4930095150144
 30
0.0
 11
777.5183068229469
 21
1876.4930095150144
 31
0.0
  0
LINE
  5
C2
330
17
100
AcDbEntity
  8
0
100
AcDbLine
 10
589.7757403100214
 20
1854.1395933771214
 30
0.0
 11
598.011995687948
 21
1854.8601723525944
 31
0.0
  0
LINE
  5
C3
330
17
100
AcDbEntity
  8
0
100
AcDbLine
 10
598.011995687948
 20
1854.8601723525944
 30
0.0
 11
597.4972964197533
 21
1860.7432119082528
 31
0.0
  0
LINE
  5
C4
330
17
100
AcDbEntity
  8
0
100
AcDbLine
 10
597.4972964197533
 20
1860.7432119082528
 30
0.0
 11
597.4972964197533
 21
1860.7432119082528
 31
0.0
  0
LINE
  5
C5
330
17
100
AcDbEntity
  8
0
100
AcDbLine
 10
1036.3720472719851
 20
1899.1397773155873
 30
0.0
 11
1089.5159047657485
 21
1962.4741604081007
 31
0.0
  0
LINE
  5
C6
330
17
100
AcDbEntity
  8
0
100
AcDbLine
 10
1236.3953921644174
 20
1916.639552434211
 30
0.0
 11
1145.9177020322575
 21
1992.5593488538839
 31
0.0
  0
LINE
  5
C7
330
17
100
AcDbEntity
  8
0
100
AcDbLine
 10
1095.150703699835
 20
1227.2966600592254
 30
0.0
 11
1158.4850867923433
 21
1174.152802565456
 31
0.0
  0
LINE
  5
C8
330
17
100
AcDbEntity
  8
0
100
AcDbLine
 10
1295.1740485922674
 20
1244.7964351778492
 30
0.0
 11
1219.2542521726004
 21
1154.3187450456837
 31
0.0
  0
LINE
  5
C9
330
17
100
AcDbEntity
  8
0
100
AcDbLine
 10
549.5091841482837
 20
796.6058967732185
 30
0.0
 11
481.1813673705817
 21
715.1759756542735
 31
0.0
  0
LINE
  5
CA
330
17
100
AcDbEntity
  8
0
100
AcDbLine
 10
562.8913651213492
 20
643.6468683260628
 30
0.0
 11
526.7002890684828
 21
674.0147868939287
 31
0.0
  0
LINE
  5
CB
330
17
100
AcDbEntity
  8
0
100
AcDbLine
 10
1564.668999370243
 20
1945.3597715994829
 30
0.0
 11
1705.8619487060798
 21
1957.7125540361587
 31
0.0
  0
LINE
  5
CC
330
17
100
AcDbEntity
  8
0
100
AcDbLine
 10
1705.8619487060798
 20
1957.7125540361587
 30
0.0
 11
1707.0972269497474
 21
1943.5932591025753
 31
0.0
  0
LINE
  5
CD
330
17
100
AcDbEntity
  8
0
100
AcDbLine
 10
1707.0972269497474
 20
1943.5932591025753
 30
0.0
 11
1565.9042776139106
 21
1931.2404766658992
 31
0.0
  0
LINE
  5
CE
330
17
100
AcDbEntity
  8
0
100
AcDbLine
 10
1565.9042776139106
 20
1931.2404766658992
 30
0.0
 11
1564.668999370243
 21
1945.3597715994829
 31
0.0
  0
LINE
  5
CF
330
17
100
AcDbEntity
  8
0
100
AcDbLine
 10
1564.668999370243
 20
1945.3597715994829
 30
0.0
 11
1564.668999370243
 21
1945.3597715994829
 31
0.0
  0
LINE
  5
D0
330
17
100
AcDbEntity
  8
0
100
AcDbLine
 10
1786.8356123460703
 20
1398.073348563325
 30
0.0
 11
1799.1883947827464
 21
1256.8803992274854
 31
0.0
  0
LINE
  5
D1
330
17
100
AcDbEntity
  8
0
100
AcDbLine
 10
1799.1883947827464
 20
1256.8803992274854
 30
0.0
 11
1816.8375134497262
 21
1258.42449703207
 31
0.0
  0
LINE
  5
D2
330
17
100
AcDbEntity
  8
0
100
AcDbLine
 10
1816.8375134497262
 20
1258.42449703207
 30
0.0
 11
1804.4847310130501
 21
1399.6174463679095
 31
0.0
  0
LINE
  5
D3
330
17
100
AcDbEntity
  8
0
100
AcDbLine
 10
1804.4847310130501
 20
1399.6174463679095
 30
0.0
 11
1786.8356123460703
 21
1398.073348563325
 31
0.0
  0
LINE
  5
D4
330
17
100
AcDbEntity
  8
0
100
AcDbLine
 10
1786.8356123460703
 20
1398.073348563325
 30
0.0
 11
1786.8356123460703
 21
1398.073348563325
 31
0.0
  0
LINE
  5
D5
330
17
100
AcDbEntity
  8
0
100
AcDbLine
 10
1322.771132575778
 20
2012.7780789379085
 30
0.0
 11
1146.0043348110191
 21
1997.3129880457102
 31
0.0
  0
LINE
  5
D6
330
17
100
AcDbEntity
  8
0
100
AcDbLine
 10
1146.0043348110191
 20
1997.3129880457102
 30
0.0
 11
1142.787682940833
 21
1972.6150609267424
 31
0.0
  0
LINE
  5
D7
330
17
100
AcDbEntity
  8
0
100
AcDbLine
 10
1142.787682940833
 20
1972.6150609267424
 30
0.0
 11
1127.8746154671276
 21
2020.14334967603
 31
0.0
  0
LINE
  5
D8
330
17
100
AcDbEntity
  8
0
100
AcDbLine
 10
1127.8746154671276
 20
2020.14334967603
 30
0.0
 11
1124.657963596942
 21
1995.4454225570623
 31
0.0
  0
LINE
  5
D9
330
17
100
AcDbEntity
  8
0
100
AcDbLine
 10
1124.657963596942
 20
1995.4454225570623
 30
0.0
 11
936.0719103169811
 21
1978.9462807959721
 31
0.0
  0
LINE
  5
DA
330
17
100
AcDbEntity
  8
0
100
AcDbLine
 10
1320.9398254498847
 20
2033.7100151692882
 30
0.0
 11
1144.1730276851256
 21
2018.244924277092
 31
0.0
  0
LINE
  5
DB
330
17
100
AcDbEntity
  8
0
100
AcDbLine
 10
1144.1730276851256
 20
2018.244924277092
 30
0.0
 11
1140.9563758149397
 21
1993.5469971581244
 31
0.0
  0
LINE
  5
DC
330
17
100
AcDbEntity
  8
0
100
AcDbLine
 10
1140.9563758149397
 20
1993.5469971581244
 30
0.0
 11
1126.043308341234
 21
2041.0752859074128
 31
0.0
  0
LINE
  5
DD
330
17
100
AcDbEntity
  8
0
100
AcDbLine
 10
1126.043308341234
 20
2041.0752859074128
 30
0.0
 11
1122.8266564710484
 21
2016.377358788444
 31
0.0
  0
LINE
  5
DE
330
17
100
AcDbEntity
  8
0
100
AcDbLine
 10
1122.8266564710484
 20
2016.377358788444
 30
0.0
 11
934.2406031910878
 21
1999.8782170273516
 31
0.0
  0
LINE
  5
DF
330
17
100
AcDbEntity
  8
0
100
AcDbLine
 10
388.9736747925261
 20
598.7906925019183
 30
0.0
 11
370.44450113751225
 21
810.5801165056739
 31
0.0
  0
LINE
  5
E0
330
17
100
AcDbEntity
  8
0
100
AcDbLine
 10
1542.608934895028
 20
2061.991164176293
 30
0.0
 11
1560.2580535620043
 21
2063.5352619808773
 31
0.0
  0
LINE
  5
E1
330
17
100
AcDbEntity
  8
0
100
AcDbLine
 10
1560.2580535620043
 20
2063.5352619808773
 30
0.0
 11
1561.8021513665888
 21
2045.8861433138961
 31
0.0
  0
LINE
  5
E2
330
17
100
AcDbEntity
  8
0
100
AcDbLine
 10
1561.8021513665888
 20
2045.8861433138961
 30
0.0
 11
1544.1530326996124
 21
2044.3420455093121
 31
0.0
  0
LINE
  5
E3
330
17
100
AcDbEntity
  8
0
100
AcDbLine
 10
1544.1530326996124
 20
2044.3420455093121
 30
0.0
 11
1542.608934895028
 21
2061.991164176293
 31
0.0
  0
LINE
  5
E4
330
17
100
AcDbEntity
  8
0
100
AcDbLine
 10
1542.608934895028
 20
2061.991164176293
 30
0.0
 11
1542.608934895028
 21
2061.991164176293
 31
0.0
  0
LINE
  5
E5
330
17
100
AcDbEntity
  8
0
100
AcDbLine
 10
1880.8837093454715
 20
2091.5863720974958
 30
0.0
 11
1898.5328280124493
 21
2093.13046990208
 31
0.0
  0
LINE
  5
E6
330
17
100
AcDbEntity
  8
0
100
AcDbLine
 10
1898.5328280124493
 20
2093.13046990208
 30
0.0
 11
1900.0769258170337
 21
2075.4813512350993
 31
0.0
  0
LINE
  5
E7
330
17
100
AcDbEntity
  8
0
100
AcDbLine
 10
1900.0769258170337
 20
2075.4813512350993
 30
0.0
 11
1882.427807150056
 21
2073.937253430515
 31
0.0
  0
LINE
  5
E8
330
17
100
AcDbEntity
  8
0
100
AcDbLine
 10
1882.427807150056
 20
2073.937253430515
 30
0.0
 11
1880.8837093454715
 21
2091.5863720974958
 31
0.0
  0
LINE
  5
E9
330
17
100
AcDbEntity
  8
0
100
AcDbLine
 10
1880.8837093454715
 20
2091.5863720974958
 30
0.0
 11
1880.8837093454715
 21
2091.5863720974958
 31
0.0
  0
LINE
  5
EA
330
17
100
AcDbEntity
  8
0
100
AcDbLine
 10
1885.9416294418127
 20
1959.2401168556985
 30
0.0
 11
1884.706351198145
 21
1973.359411789282
 31
0.0
  0
LINE
  5
EB
330
17
100
AcDbEntity
  8
0
100
AcDbLine
 10
1884.706351198145
 20
1973.359411789282
 30
0.0
 11
1968.2141366775502
 21
1980.6653963348847
 31
0.0
  0
LINE
  5
EC
330
17
100
AcDbEntity
  8
0
100
AcDbLine
 10
1969.4494149212178
 20
1966.5461014013013
 30
0.0
 11
1885.9416294418127
 21
1959.2401168556985
 31
0.0
  0
LINE
  5
ED
330
17
100
AcDbEntity
  8
0
100
AcDbLine
 10
1885.9416294418127
 20
1959.2401168556985
 30
0.0
 11
1885.9416294418127
 21
1959.2401168556985
 31
0.0
  0
LINE
  5
EE
330
17
100
AcDbEntity
  8
0
100
AcDbLine
 10
1529.3707620362825
 20
1942.2715759903137
 30
0.0
 11
1517.0179795996064
 21
2083.4645253261533
 31
0.0
  0
LINE
  5
EF
330
17
100
AcDbEntity
  8
0
100
AcDbLine
 10
1517.0179795996064
 20
2083.4645253261533
 30
0.0
 11
1955.861354240874
 21
2121.8583456707242
 31
0.0
  0
LINE
  5
F0
330
17
100
AcDbEntity
  8
0
100
AcDbLine
 10
509.0703566532123
 20
1421.4433679168392
 30
0.0
 11
494.95106171963135
 21
1420.2080896731718
 31
0.0
  0
LINE
  5
F1
330
17
100
AcDbEntity
  8
0
100
AcDbLine
 10
494.95106171963135
 20
1420.2080896731718
 30
0.0
 11
504.21564854713813
 21
1314.3133776712957
 31
0.0
  0
LINE
  5
F2
330
17
100
AcDbEntity
  8
0
100
AcDbLine
 10
504.21564854713813
 20
1314.3133776712957
 30
0.0
 11
518.3349434807191
 21
1315.548655914963
 31
0.0
  0
LINE
  5
F3
330
17
100
AcDbEntity
  8
0
100
AcDbLine
 10
518.3349434807191
 20
1315.548655914963
 30
0.0
 11
509.0703566532123
 21
1421.4433679168392
 31
0.0
  0
LINE
  5
F4
330
17
100
AcDbEntity
  8
0
100
AcDbLine
 10
509.0703566532123
 20
1421.4433679168392
 30
0.0
 11
509.0703566532123
 21
1421.4433679168392
 31
0.0
  0
LINE
  5
F5
330
17
100
AcDbEntity
  8
0
100
AcDbLine
 10
596.2604126854166
 20
424.8564671880516
 30
0.0
 11
582.1411177518356
 21
423.62118894438436
 31
0.0
  0
LINE
  5
F6
330
17
100
AcDbEntity
  8
0
100
AcDbLine
 10
582.1411177518356
 20
423.62118894438436
 30
0.0
 11
591.4057045793426
 21
317.7264769425062
 31
0.0
  0
LINE
  5
F7
330
17
100
AcDbEntity
  8
0
100
AcDbLine
 10
591.4057045793426
 20
317.7264769425062
 30
0.0
 11
605.5249995129235
 21
318.9617551861735
 31
0.0
  0
LINE
  5
F8
330
17
100
AcDbEntity
  8
0
100
AcDbLine
 10
605.5249995129235
 20
318.9617551861735
 30
0.0
 11
596.2604126854166
 21
424.8564671880516
 31
0.0
  0
LINE
  5
F9
330
17
100
AcDbEntity
  8
0
100
AcDbLine
 10
596.2604126854166
 20
424.8564671880516
 30
0.0
 11
596.2604126854166
 21
424.8564671880516
 31
0.0
  0
LINE
  5
FA
330
17
100
AcDbEntity
  8
0
100
AcDbLine
 10
539.643493183985
 20
1071.9908183106436
 30
0.0
 11
525.5241982504041
 21
1070.7555400669762
 31
0.0
  0
LINE
  5
FB
330
17
100
AcDbEntity
  8
0
100
AcDbLine
 10
525.5241982504041
 20
1070.7555400669762
 30
0.0
 11
534.7887850779111
 21
964.8608280650967
 31
0.0
  0
LINE
  5
FC
330
17
100
AcDbEntity
  8
0
100
AcDbLine
 10
534.7887850779111
 20
964.8608280650967
 30
0.0
 11
548.9080800114921
 21
966.096106308764
 31
0.0
  0
LINE
  5
FD
330
17
100
AcDbEntity
  8
0
100
AcDbLine
 10
548.9080800114921
 20
966.096106308764
 30
0.0
 11
539.643493183985
 21
1071.9908183106436
 31
0.0
  0
LINE
  5
FE
330
17
100
AcDbEntity
  8
0
100
AcDbLine
 10
539.643493183985
 20
1071.9908183106436
 30
0.0
 11
539.643493183985
 21
1071.9908183106436
 31
0.0
  0
LINE
  5
FF
330
17
100
AcDbEntity
  8
0
100
AcDbLine
 10
1304.5501119678659
 20
1896.5188101930912
 30
0.0
 11
1329.2556768412178
 21
1614.132911521414
 31
0.0
  0
LINE
  5
100
330
17
100
AcDbEntity
  8
0
100
AcDbLine
 10
1329.2556768412178
 20
1614.132911521414
 30
0.0
 11
1535.1620612893146
 21
1632.147385908233
 31
0.0
  0
LINE
  5
101
330
17
100
AcDbEntity
  8
0
100
AcDbLine
 10
1535.1620612893146
 20
1632.147385908233
 30
0.0
 11
1510.4564964159626
 21
1914.5332845799103
 31
0.0
  0
LINE
  5
102
330
17
100
AcDbEntity
  8
0
100
AcDbLine
 10
1510.4564964159626
 20
1914.5332845799103
 30
0.0
 11
1304.5501119678659
 21
1896.5188101930912
 31
0.0
  0
LINE
  5
103
330
17
100
AcDbEntity
  8
0
100
AcDbLine
 10
1304.5501119678659
 20
1896.5188101930912
 30
0.0
 11
1304.5501119678659
 21
1896.5188101930912
 31
0.0
  0
LINE
  5
104
330
17
100
AcDbEntity
  8
0
100
AcDbLine
 10
1633.500557311008
 20
643.6495311826242
 30
0.0
 11
1654.6794997113811
 21
645.5024485481252
 31
0.0
  0
LINE
  5
105
330
17
100
AcDbEntity
  8
0
100
AcDbLine
 10
1654.6794997113811
 20
645.5024485481252
 30
0.0
 11
1656.5324170768822
 21
624.3235061477521
 31
0.0
  0
LINE
  5
106
330
17
100
AcDbEntity
  8
0
100
AcDbLine
 10
1656.5324170768822
 20
624.3235061477521
 30
0.0
 11
1635.353474676509
 21
622.4705887822511
 31
0.0
  0
LINE
  5
107
330
17
100
AcDbEntity
  8
0
100
AcDbLine
 10
1635.353474676509
 20
622.4705887822511
 30
0.0
 11
1633.500557311008
 21
643.6495311826242
 31
0.0
  0
LINE
  5
108
330
17
100
AcDbEntity
  8
0
100
AcDbLine
 10
1633.500557311008
 20
643.6495311826242
 30
0.0
 11
1633.500557311008
 21
643.6495311826242
 31
0.0
  0
LINE
  5
109
330
17
100
AcDbEntity
  8
0
100
AcDbLine
 10
1104.026997301616
 20
597.3265970450892
 30
0.0
 11
1125.205939701989
 21
599.1795144105905
 31
0.0
  0
LINE
  5
10A
330
17
100
AcDbEntity
  8
0
100
AcDbLine
 10
1125.205939701989
 20
599.1795144105905
 30
0.0
 11
1127.0588570674902
 21
578.0005720102174
 31
0.0
  0
LINE
  5
10B
330
17
100
AcDbEntity
  8
0
100
AcDbLine
 10
1127.0588570674902
 20
578.0005720102174
 30
0.0
 11
1105.879914667117
 21
576.1476546447161
 31
0.0
  0
LINE
  5
10C
330
17
100
AcDbEntity
  8
0
100
AcDbLine
 10
1105.879914667117
 20
576.1476546447161
 30
0.0
 11
1104.026997301616
 21
597.3265970450892
 31
0.0
  0
LINE
  5
10D
330
17
100
AcDbEntity
  8
0
100
AcDbLine
 10
1104.026997301616
 20
597.3265970450892
 30
0.0
 11
1104.026997301616
 21
597.3265970450892
 31
0.0
  0
LINE
  5
10E
330
17
100
AcDbEntity
  8
0
100
AcDbLine
 10
585.1429084924083
 20
551.9301215903048
 30
0.0
 11
606.3218508927849
 21
553.7830389558063
 31
0.0
  0
LINE
  5
10F
330
17
100
AcDbEntity
  8
0
100
AcDbLine
 10
606.3218508927849
 20
553.7830389558063
 30
0.0
 11
608.1747682582861
 21
532.6040965554332
 31
0.0
  0
LINE
  5
110
330
17
100
AcDbEntity
  8
0
100
AcDbLine
 10
608.1747682582861
 20
532.6040965554332
 30
0.0
 11
586.9958258579095
 21
530.7511791899317
 31
0.0
  0
LINE
  5
111
330
17
100
AcDbEntity
  8
0
100
AcDbLine
 10
586.9958258579095
 20
530.7511791899317
 30
0.0
 11
585.1429084924083
 21
551.9301215903048
 31
0.0
  0
LINE
  5
112
330
17
100
AcDbEntity
  8
0
100
AcDbLine
 10
585.1429084924083
 20
551.9301215903048
 30
0.0
 11
585.1429084924083
 21
551.9301215903048
 31
0.0
  0
LINE
  5
113
330
17
100
AcDbEntity
  8
0
100
AcDbLine
 10
1576.8836378095762
 20
1290.7838823052173
 30
0.0
 11
1598.0625802099494
 21
1292.6367996707183
 31
0.0
  0
LINE
  5
114
330
17
100
AcDbEntity
  8
0
100
AcDbLine
 10
1598.0625802099494
 20
1292.6367996707183
 30
0.0
 11
1599.915497575451
 21
1271.4578572703415
 31
0.0
  0
LINE
  5
115
330
17
100
AcDbEntity
  8
0
100
AcDbLine
 10
1599.915497575451
 20
1271.4578572703415
 30
0.0
 11
1578.7365551750777
 21
1269.6049399048404
 31
0.0
  0
LINE
  5
116
330
17
100
AcDbEntity
  8
0
100
AcDbLine
 10
1578.7365551750777
 20
1269.6049399048404
 30
0.0
 11
1576.8836378095762
 21
1290.7838823052173
 31
0.0
  0
LINE
  5
117
330
17
100
AcDbEntity
  8
0
100
AcDbLine
 10
1576.8836378095762
 20
1290.7838823052173
 30
0.0
 11
1576.8836378095762
 21
1290.7838823052173
 31
0.0
  0
LINE
  5
118
330
17
100
AcDbEntity
  8
0
100
AcDbLine
 10
1521.1931769908954
 20
1927.3287622276189
 30
0.0
 11
1542.3721193912686
 21
1929.18167959312
 31
0.0
  0
LINE
  5
119
330
17
100
AcDbEntity
  8
0
100
AcDbLine
 10
1542.3721193912686
 20
1929.18167959312
 30
0.0
 11
1544.22503675677
 21
1908.0027371927456
 31
0.0
  0
LINE
  5
11A
330
17
100
AcDbEntity
  8
0
100
AcDbLine
 10
1544.22503675677
 20
1908.0027371927456
 30
0.0
 11
1523.0460943563967
 21
1906.1498198272445
 31
0.0
  0
LINE
  5
11B
330
17
100
AcDbEntity
  8
0
100
AcDbLine
 10
1523.0460943563967
 20
1906.1498198272445
 30
0.0
 11
1521.1931769908954
 21
1927.3287622276189
 31
0.0
  0
LINE
  5
11C
330
17
100
AcDbEntity
  8
0
100
AcDbLine
 10
1521.1931769908954
 20
1927.3287622276189
 30
0.0
 11
1521.1931769908954
 21
1927.3287622276189
 31
0.0
  0
LINE
  5
11D
330
17
100
AcDbEntity
  8
0
100
AcDbLine
 10
1047.4100778001841
 20
1244.4609481676823
 30
0.0
 11
1068.5890202005573
 21
1246.3138655331836
 31
0.0
  0
LINE
  5
11E
330
17
100
AcDbEntity
  8
0
100
AcDbLine
 10
1068.5890202005573
 20
1246.3138655331836
 30
0.0
 11
1070.4419375660589
 21
1225.1349231328068
 31
0.0
  0
LINE
  5
11F
330
17
100
AcDbEntity
  8
0
100
AcDbLine
 10
1070.4419375660589
 20
1225.1349231328068
 30
0.0
 11
1049.2629951656857
 21
1223.2820057673055
 31
0.0
  0
LINE
  5
120
330
17
100
AcDbEntity
  8
0
100
AcDbLine
 10
1049.2629951656857
 20
1223.2820057673055
 30
0.0
 11
1047.4100778001841
 21
1244.4609481676823
 31
0.0
  0
LINE
  5
121
330
17
100
AcDbEntity
  8
0
100
AcDbLine
 10
1047.4100778001841
 20
1244.4609481676823
 30
0.0
 11
1047.4100778001841
 21
1244.4609481676823
 31
0.0
  0
LINE
  5
122
330
17
100
AcDbEntity
  8
0
100
AcDbLine
 10
528.5259889909767
 20
1199.064472712898
 30
0.0
 11
549.7049313913533
 21
1200.9173900783994
 31
0.0
  0
LINE
  5
123
330
17
100
AcDbEntity
  8
0
100
AcDbLine
 10
549.7049313913533
 20
1200.9173900783994
 30
0.0
 11
551.5578487568547
 21
1179.7384476780226
 31
0.0
  0
LINE
  5
124
330
17
100
AcDbEntity
  8
0
100
AcDbLine
 10
551.5578487568547
 20
1179.7384476780226
 30
0.0
 11
530.3789063564781
 21
1177.885530312521
 31
0.0
  0
LINE
  5
125
330
17
100
AcDbEntity
  8
0
100
AcDbLine
 10
530.3789063564781
 20
1177.885530312521
 30
0.0
 11
528.5259889909767
 21
1199.064472712898
 31
0.0
  0
LINE
  5
126
330
17
100
AcDbEntity
  8
0
100
AcDbLine
 10
528.5259889909767
 20
1199.064472712898
 30
0.0
 11
528.5259889909767
 21
1199.064472712898
 31
0.0
  0
LINE
  5
127
330
17
100
AcDbEntity
  8
0
100
AcDbLine
 10
991.7196169815035
 20
1881.005828090084
 30
0.0
 11
1012.8985593818767
 21
1882.858745455585
 31
0.0
  0
LINE
  5
128
330
17
100
AcDbEntity
  8
0
100
AcDbLine
 10
1012.8985593818767
 20
1882.858745455585
 30
0.0
 11
1014.7514767473779
 21
1861.6798030552109
 31
0.0
  0
LINE
  5
129
330
17
100
AcDbEntity
  8
0
100
AcDbLine
 10
1014.7514767473779
 20
1861.6798030552109
 30
0.0
 11
993.5725343470046
 21
1859.8268856897096
 31
0.0
  0
LINE
  5
12A
330
17
100
AcDbEntity
  8
0
100
AcDbLine
 10
993.5725343470046
 20
1859.8268856897096
 30
0.0
 11
991.7196169815035
 21
1881.005828090084
 31
0.0
  0
LINE
  5
12B
330
17
100
AcDbEntity
  8
0
100
AcDbLine
 10
991.7196169815035
 20
1881.005828090084
 30
0.0
 11
991.7196169815035
 21
1881.005828090084
 31
0.0
  0
LINE
  5
12C
330
17
100
AcDbEntity
  8
0
100
AcDbLine
 10
472.83552817229594
 20
1835.6093526352993
 30
0.0
 11
494.01447057267256
 21
1837.4622700008008
 31
0.0
  0
LINE
  5
12D
330
17
100
AcDbEntity
  8
0
100
AcDbLine
 10
494.01447057267256
 20
1837.4622700008008
 30
0.0
 11
495.86738793817386
 21
1816.2833276004267
 31
0.0
  0
LINE
  5
12E
330
17
100
AcDbEntity
  8
0
100
AcDbLine
 10
495.86738793817386
 20
1816.2833276004267
 30
0.0
 11
474.68844553779724
 21
1814.4304102349251
 31
0.0
  0
LINE
  5
12F
330
17
100
AcDbEntity
  8
0
100
AcDbLine
 10
474.68844553779724
 20
1814.4304102349251
 30
0.0
 11
472.83552817229594
 21
1835.6093526352993
 31
0.0
  0
LINE
  5
130
330
17
100
AcDbEntity
  8
0
100
AcDbLine
 10
472.83552817229594
 20
1835.6093526352993
 30
0.0
 11
472.83552817229594
 21
1835.6093526352993
 31
0.0
  0
LINE
  5
131
330
17
100
AcDbEntity
  8
0
100
AcDbLine
 10
1968.4714863116476
 20
1977.7238765570564
 30
0.0
 11
1893.1999562101626
 21
1971.1384709869262
 31
0.0
  0
LINE
  5
132
330
17
100
AcDbEntity
  8
0
100
AcDbLine
 10
1893.1999562101626
 20
1971.1384709869262
 30
0.0
 11
1893.45730584426
 21
1968.1969512090961
 31
0.0
  0
LINE
  5
133
330
17
100
AcDbEntity
  8
0
100
AcDbLine
 10
1893.45730584426
 20
1968.1969512090961
 30
0.0
 11
1968.728835945745
 21
1974.7823567792263
 31
0.0
  0
LINE
  5
134
330
17
100
AcDbEntity
  8
0
100
AcDbLine
 10
1892.9426065760651
 20
1974.0799907647545
 30
0.0
 11
1893.45730584426
 21
1968.1969512090961
 31
0.0
  0
LINE
  5
135
330
17
100
AcDbEntity
  8
0
100
AcDbLine
 10
1893.45730584426
 20
1968.1969512090961
 30
0.0
 11
1885.2210504663371
 21
1967.4763722336234
 31
0.0
  0
LINE
  5
136
330
17
100
AcDbEntity
  8
0
100
AcDbLine
 10
1884.7063511981423
 20
1973.3594117892817
 30
0.0
 11
1884.7063511981423
 21
1973.3594117892817
 31
0.0
  0
LINE
  5
137
330
17
100
AcDbEntity
  8
0
100
AcDbLine
 10
510.09868810279767
 20
1314.8280769394928
 30
0.0
 11
509.37810912732493
 21
1323.0643323174156
 31
0.0
  0
LINE
  5
138
330
17
100
AcDbEntity
  8
0
100
AcDbLine
 10
509.37810912732493
 20
1323.0643323174156
 30
0.0
 11
503.4950695716652
 21
1322.5496330492208
 31
0.0
  0
LINE
  5
139
330
17
100
AcDbEntity
  8
0
100
AcDbLine
 10
503.4950695716652
 20
1322.5496330492208
 30
0.0
 11
503.4950695716652
 21
1322.5496330492208
 31
0.0
  0
LINE
  5
13A
330
17
100
AcDbEntity
  8
0
100
AcDbLine
 10
506.4365893494951
 20
1322.8069826833182
 30
0.0
 11
498.6131604729335
 21
1412.2291839293512
 31
0.0
  0
LINE
  5
13B
330
17
100
AcDbEntity
  8
0
100
AcDbLine
 10
498.6131604729335
 20
1412.2291839293512
 30
0.0
 11
501.55468025076334
 21
1412.4865335634486
 31
0.0
  0
LINE
  5
13C
330
17
100
AcDbEntity
  8
0
100
AcDbLine
 10
501.55468025076334
 20
1412.4865335634486
 30
0.0
 11
509.37810912732493
 21
1323.0643323174156
 31
0.0
  0
LINE
  5
13D
330
17
100
AcDbEntity
  8
0
100
AcDbLine
 10
509.37810912732493
 20
1323.0643323174156
 30
0.0
 11
506.4365893494951
 21
1322.8069826833182
 31
0.0
  0
LINE
  5
13E
330
17
100
AcDbEntity
  8
0
100
AcDbLine
 10
506.4365893494951
 20
1322.8069826833182
 30
0.0
 11
506.4365893494951
 21
1322.8069826833182
 31
0.0
  0
LINE
  5
13F
330
17
100
AcDbEntity
  8
0
100
AcDbLine
 10
457.48095499504745
 20
1848.4933693252156
 30
0.0
 11
495.67164069510363
 21
1411.9718342952538
 31
0.0
  0
LINE
  5
140
330
17
100
AcDbEntity
  8
0
100
AcDbLine
 10
495.67164069510363
 20
1411.9718342952538
 30
0.0
 11
501.55468025076334
 21
1412.4865335634486
 31
0.0
  0
LINE
  5
141
330
17
100
AcDbEntity
  8
0
100
AcDbLine
 10
501.55468025076334
 20
1412.4865335634486
 30
0.0
 11
500.83410127529066
 21
1420.7227889413712
 31
0.0
  0
LINE
  5
142
330
17
100
AcDbEntity
  8
0
100
AcDbLine
 10
494.95106171963096
 20
1420.2080896731763
 30
0.0
 11
494.95106171963096
 21
1420.2080896731763
 31
0.0
  0
LINE
  5
143
330
17
100
AcDbEntity
  8
0
100
AcDbLine
 10
597.2887441350026
 20
318.2411762106972
 30
0.0
 11
596.5681651595299
 21
326.47743158862033
 31
0.0
  0
LINE
  5
144
330
17
100
AcDbEntity
  8
0
100
AcDbLine
 10
596.5681651595299
 20
326.47743158862033
 30
0.0
 11
590.6851256038702
 21
325.9627323204255
 31
0.0
  0
LINE
  5
145
330
17
100
AcDbEntity
  8
0
100
AcDbLine
 10
590.6851256038702
 20
325.9627323204255
 30
0.0
 11
590.6851256038702
 21
325.9627323204255
 31
0.0
  0
LINE
  5
146
330
17
100
AcDbEntity
  8
0
100
AcDbLine
 10
593.6266453817001
 20
326.2200819545229
 30
0.0
 11
585.8032165051385
 21
415.64228320055577
 31
0.0
  0
LINE
  5
147
330
17
100
AcDbEntity
  8
0
100
AcDbLine
 10
585.8032165051385
 20
415.64228320055577
 30
0.0
 11
588.7447362829683
 21
415.8996328346532
 31
0.0
  0
LINE
  5
148
330
17
100
AcDbEntity
  8
0
100
AcDbLine
 10
588.7447362829683
 20
415.8996328346532
 30
0.0
 11
596.5681651595299
 21
326.47743158862033
 31
0.0
  0
LINE
  5
149
330
17
100
AcDbEntity
  8
0
100
AcDbLine
 10
596.5681651595299
 20
326.47743158862033
 30
0.0
 11
593.6266453817001
 21
326.2200819545229
 31
0.0
  0
LINE
  5
14A
330
17
100
AcDbEntity
  8
0
100
AcDbLine
 10
593.6266453817001
 20
326.2200819545229
 30
0.0
 11
593.6266453817001
 21
326.2200819545229
 31
0.0
  0
LINE
  5
14B
330
17
100
AcDbEntity
  8
0
100
AcDbLine
 10
562.8913651213492
 20
643.6468683260628
 30
0.0
 11
582.8616967273086
 21
415.38493356645836
 31
0.0
  0
LINE
  5
14C
330
17
100
AcDbEntity
  8
0
100
AcDbLine
 10
582.8616967273086
 20
415.38493356645836
 30
0.0
 11
588.7447362829683
 21
415.8996328346532
 31
0.0
  0
LINE
  5
14D
330
17
100
AcDbEntity
  8
0
100
AcDbLine
 10
588.7447362829683
 20
415.8996328346532
 30
0.0
 11
588.0241573074956
 21
424.13588821257724
 31
0.0
  0
LINE
  5
14E
330
17
100
AcDbEntity
  8
0
100
AcDbLine
 10
582.1411177518358
 20
423.6211889443824
 30
0.0
 11
582.1411177518358
 21
423.6211889443824
 31
0.0
  0
LINE
  5
14F
330
17
100
AcDbEntity
  8
0
100
AcDbLine
 10
540.6718246335712
 20
965.3755273332879
 30
0.0
 11
539.9512456580984
 21
973.6117827112117
 31
0.0
  0
LINE
  5
150
330
17
100
AcDbEntity
  8
0
100
AcDbLine
 10
539.9512456580984
 20
973.6117827112117
 30
0.0
 11
534.0682061024387
 21
973.0970834430169
 31
0.0
  0
LINE
  5
151
330
17
100
AcDbEntity
  8
0
100
AcDbLine
 10
534.0682061024387
 20
973.0970834430169
 30
0.0
 11
534.0682061024387
 21
973.0970834430169
 31
0.0
  0
LINE
  5
152
330
17
100
AcDbEntity
  8
0
100
AcDbLine
 10
537.0097258802685
 20
973.3544330771143
 30
0.0
 11
529.1862970037068
 21
1062.7766343231476
 31
0.0
  0
LINE
  5
153
330
17
100
AcDbEntity
  8
0
100
AcDbLine
 10
529.1862970037068
 20
1062.7766343231476
 30
0.0
 11
532.1278167815367
 21
1063.033983957245
 31
0.0
  0
LINE
  5
154
330
17
100
AcDbEntity
  8
0
100
AcDbLine
 10
532.1278167815367
 20
1063.033983957245
 30
0.0
 11
539.9512456580984
 21
973.6117827112117
 31
0.0
  0
LINE
  5
155
330
17
100
AcDbEntity
  8
0
100
AcDbLine
 10
539.9512456580984
 20
973.6117827112117
 30
0.0
 11
537.0097258802685
 21
973.3544330771143
 31
0.0
  0
LINE
  5
156
330
17
100
AcDbEntity
  8
0
100
AcDbLine
 10
537.0097258802685
 20
973.3544330771143
 30
0.0
 11
537.0097258802685
 21
973.3544330771143
 31
0.0
  0
LINE
  5
157
330
17
100
AcDbEntity
  8
0
100
AcDbLine
 10
503.4950695716652
 20
1322.5496330492208
 30
0.0
 11
526.244777225877
 21
1062.5192846890502
 31
0.0
  0
LINE
  5
158
330
17
100
AcDbEntity
  8
0
100
AcDbLine
 10
526.244777225877
 20
1062.5192846890502
 30
0.0
 11
532.1278167815367
 21
1063.033983957245
 31
0.0
  0
LINE
  5
159
330
17
100
AcDbEntity
  8
0
100
AcDbLine
 10
532.1278167815367
 20
1063.033983957245
 30
0.0
 11
531.407237806064
 21
1071.2702393351678
 31
0.0
  0
LINE
  5
15A
330
17
100
AcDbEntity
  8
0
100
AcDbLine
 10
525.5241982504043
 20
1070.755540066973
 30
0.0
 11
525.5241982504043
 21
1070.755540066973
 31
0.0
  0
LINE
  5
15B
330
17
100
AcDbEntity
  8
0
100
AcDbLine
 10
1846.4878690007229
 20
1813.5146823215864
 30
0.0
 11
1846.422306682299
 21
1814.037857202055
 31
0.0
  0
LINE
  5
15C
330
17
100
AcDbEntity
  8
0
100
AcDbLine
 10
1846.422306682299
 20
1814.037857202055
 30
0.0
 11
1846.317830781635
 21
1814.5546697012576
 31
0.0
  0
LINE
  5
15D
330
17
100
AcDbEntity
  8
0
100
AcDbLine
 10
1846.317830781635
 20
1814.5546697012576
 30
0.0
 11
1846.1750255703466
 21
1815.062229594057
 31
0.0
  0
LINE
  5
15E
330
17
100
AcDbEntity
  8
0
100
AcDbLine
 10
1846.1750255703466
 20
1815.062229594057
 30
0.0
 11
1845.994689673103
 21
1815.5576983996498
 31
0.0
  0
LINE
  5
15F
330
17
100
AcDbEntity
  8
0
100
AcDbLine
 10
1845.994689673103
 20
1815.5576983996498
 30
0.0
 11
1845.777831601394
 21
1816.0383052554944
 31
0.0
  0
LINE
  5
160
330
17
100
AcDbEntity
  8
0
100
AcDbLine
 10
1845.777831601394
 20
1816.0383052554944
 30
0.0
 11
1845.5256641135188
 21
1816.5013624131002
 31
0.0
  0
LINE
  5
161
330
17
100
AcDbEntity
  8
0
100
AcDbLine
 10
1845.5256641135188
 20
1816.5013624131002
 30
0.0
 11
1845.2395974323617
 21
1816.944280269008
 31
0.0
  0
LINE
  5
162
330
17
100
AcDbEntity
  8
0
100
AcDbLine
 10
1845.2395974323617
 20
1816.944280269008
 30
0.0
 11
1844.9212313588405
 21
1817.3645818469038
 31
0.0
  0
LINE
  5
163
330
17
100
AcDbEntity
  8
0
100
AcDbLine
 10
1844.9212313588405
 20
1817.3645818469038
 30
0.0
 11
1844.5723463251807
 21
1817.759916649874
 31
0.0
  0
LINE
  5
164
330
17
100
AcDbEntity
  8
0
100
AcDbLine
 10
1844.5723463251807
 20
1817.759916649874
 30
0.0
 11
1844.1948934380134
 21
1818.1280738053365
 31
0.0
  0
LINE
  5
165
330
17
100
AcDbEntity
  8
0
100
AcDbLine
 10
1844.1948934380134
 20
1818.1280738053365
 30
0.0
 11
1843.7909835669893
 21
1818.4669944291418
 31
0.0
  0
LINE
  5
166
330
17
100
AcDbEntity
  8
0
100
AcDbLine
 10
1843.7909835669893
 20
1818.4669944291418
 30
0.0
 11
1843.3628755399504
 21
1818.7747831396805
 31
0.0
  0
LINE
  5
167
330
17
100
AcDbEntity
  8
0
100
AcDbLine
 10
1843.3628755399504
 20
1818.7747831396805
 30
0.0
 11
1842.9129635106394
 21
1819.0497186576342
 31
0.0
  0
LINE
  5
168
330
17
100
AcDbEntity
  8
0
100
AcDbLine
 10
1842.9129635106394
 20
1819.0497186576342
 30
0.0
 11
1842.4437635696265
 21
1819.2902634320612
 31
0.0
  0
LINE
  5
169
330
17
100
AcDbEntity
  8
0
100
AcDbLine
 10
1842.4437635696265
 20
1819.2902634320612
 30
0.0
 11
1841.957899673307
 21
1819.4950722390086
 31
0.0
  0
LINE
  5
16A
330
17
100
AcDbEntity
  8
0
100
AcDbLine
 10
1841.957899673307
 20
1819.4950722390086
 30
0.0
 11
1841.4580889696738
 21
1819.6629997045516
 31
0.0
  0
LINE
  5
16B
330
17
100
AcDbEntity
  8
0
100
AcDbLine
 10
1841.4580889696738
 20
1819.6629997045516
 30
0.0
 11
1840.9471266029223
 21
1819.7931067101836
 31
0.0
  0
LINE
  5
16C
330
17
100
AcDbEntity
  8
0
100
AcDbLine
 10
1840.9471266029223
 20
1819.7931067101836
 30
0.0
 11
1840.4278700818738
 21
1819.8846656447536
 31
0.0
  0
LINE
  5
16D
330
17
100
AcDbEntity
  8
0
100
AcDbLine
 10
1840.4278700818738
 20
1819.8846656447536
 30
0.0
 11
1839.9032232996249
 21
1819.9371644735588
 31
0.0
  0
LINE
  5
16E
330
17
100
AcDbEntity
  8
0
100
AcDbLine
 10
1839.9032232996249
 20
1819.9371644735588
 30
0.0
 11
1839.3761202937976
 21
1819.950309601853
 31
0.0
  0
LINE
  5
16F
330
17
100
AcDbEntity
  8
0
100
AcDbLine
 10
1839.3761202937976
 20
1819.950309601853
 30
0.0
 11
1838.8495088382126
 21
1819.924027516749
 31
0.0
  0
LINE
  5
170
330
17
100
AcDbEntity
  8
0
100
AcDbLine
 10
1838.8495088382126
 20
1819.924027516749
 30
0.0
 11
1838.326333957744
 21
1819.8584651983238
 31
0.0
  0
LINE
  5
171
330
17
100
AcDbEntity
  8
0
100
AcDbLine
 10
1838.326333957744
 20
1819.8584651983238
 30
0.0
 11
1837.8095214585414
 21
1819.753989297661
 31
0.0
  0
LINE
  5
172
330
17
100
AcDbEntity
  8
0
100
AcDbLine
 10
1837.8095214585414
 20
1819.753989297661
 30
0.0
 11
1837.3019615657417
 21
1819.6111840863728
 31
0.0
  0
LINE
  5
173
330
17
100
AcDbEntity
  8
0
100
AcDbLine
 10
1837.3019615657417
 20
1819.6111840863728
 30
0.0
 11
1836.806492760148
 21
1819.4308481891294
 31
0.0
  0
LINE
  5
174
330
17
100
AcDbEntity
  8
0
100
AcDbLine
 10
1836.806492760148
 20
1819.4308481891294
 30
0.0
 11
1836.3258859043037
 21
1819.2139901174187
 31
0.0
  0
LINE
  5
175
330
17
100
AcDbEntity
  8
0
100
AcDbLine
 10
1836.3258859043037
 20
1819.2139901174187
 30
0.0
 11
1835.8628287466988
 21
1818.9618226295438
 31
0.0
  0
LINE
  5
176
330
17
100
AcDbEntity
  8
0
100
AcDbLine
 10
1835.8628287466988
 20
1818.9618226295438
 30
0.0
 11
1835.4199108907908
 21
1818.6757559483867
 31
0.0
  0
LINE
  5
177
330
17
100
AcDbEntity
  8
0
100
AcDbLine
 10
1835.4199108907908
 20
1818.6757559483867
 30
0.0
 11
1834.9996093128952
 21
1818.3573898748664
 31
0.0
  0
LINE
  5
178
330
17
100
AcDbEntity
  8
0
100
AcDbLine
 10
1834.9996093128952
 20
1818.3573898748664
 30
0.0
 11
1834.604274509926
 21
1818.008504841207
 31
0.0
  0
LINE
  5
179
330
17
100
AcDbEntity
  8
0
100
AcDbLine
 10
1834.604274509926
 20
1818.008504841207
 30
0.0
 11
1834.2361173544614
 21
1817.6310519540384
 31
0.0
  0
LINE
  5
17A
330
17
100
AcDbEntity
  8
0
100
AcDbLine
 10
1834.2361173544614
 20
1817.6310519540384
 30
0.0
 11
1833.8971967306575
 21
1817.2271420830148
 31
0.0
  0
LINE
  5
17B
330
17
100
AcDbEntity
  8
0
100
AcDbLine
 10
1833.8971967306575
 20
1817.2271420830148
 30
0.0
 11
1833.5894080201183
 21
1816.7990340559766
 31
0.0
  0
LINE
  5
17C
330
17
100
AcDbEntity
  8
0
100
AcDbLine
 10
1833.5894080201183
 20
1816.7990340559766
 30
0.0
 11
1833.314472502166
 21
1816.3491220266656
 31
0.0
  0
LINE
  5
17D
330
17
100
AcDbEntity
  8
0
100
AcDbLine
 10
1833.314472502166
 20
1816.3491220266656
 30
0.0
 11
1833.073927727738
 21
1815.8799220856527
 31
0.0
  0
LINE
  5
17E
330
17
100
AcDbEntity
  8
0
100
AcDbLine
 10
1833.073927727738
 20
1815.8799220856527
 30
0.0
 11
1832.8691189207893
 21
1815.394058189333
 31
0.0
  0
LINE
  5
17F
330
17
100
AcDbEntity
  8
0
100
AcDbLine
 10
1832.8691189207893
 20
1815.394058189333
 30
0.0
 11
1832.7011914552477
 21
1814.8942474856985
 31
0.0
  0
LINE
  5
180
330
17
100
AcDbEntity
  8
0
100
AcDbLine
 10
1832.7011914552477
 20
1814.8942474856985
 30
0.0
 11
1832.5710844496152
 21
1814.3832851189472
 31
0.0
  0
LINE
  5
181
330
17
100
AcDbEntity
  8
0
100
AcDbLine
 10
1832.5710844496152
 20
1814.3832851189472
 30
0.0
 11
1832.4795255150468
 21
1813.8640285979
 31
0.0
  0
LINE
  5
182
330
17
100
AcDbEntity
  8
0
100
AcDbLine
 10
1832.4795255150468
 20
1813.8640285979
 30
0.0
 11
1832.4270266862402
 21
1813.339381815651
 31
0.0
  0
LINE
  5
183
330
17
100
AcDbEntity
  8
0
100
AcDbLine
 10
1832.4270266862402
 20
1813.339381815651
 30
0.0
 11
1832.413881557945
 21
1812.8122788098224
 31
0.0
  0
LINE
  5
184
330
17
100
AcDbEntity
  8
0
100
AcDbLine
 10
1832.413881557945
 20
1812.8122788098224
 30
0.0
 11
1832.44016364305
 21
1812.2856673542378
 31
0.0
  0
LINE
  5
185
330
17
100
AcDbEntity
  8
0
100
AcDbLine
 10
1832.44016364305
 20
1812.2856673542378
 30
0.0
 11
1832.5057259614741
 21
1811.7624924737688
 31
0.0
  0
LINE
  5
186
330
17
100
AcDbEntity
  8
0
100
AcDbLine
 10
1832.5057259614741
 20
1811.7624924737688
 30
0.0
 11
1832.6102018621382
 21
1811.2456799745673
 31
0.0
  0
LINE
  5
187
330
17
100
AcDbEntity
  8
0
100
AcDbLine
 10
1832.6102018621382
 20
1811.2456799745673
 30
0.0
 11
1832.7530070734274
 21
1810.7381200817679
 31
0.0
  0
LINE
  5
188
330
17
100
AcDbEntity
  8
0
100
AcDbLine
 10
1832.7530070734274
 20
1810.7381200817679
 30
0.0
 11
1832.9333429706696
 21
1810.242651276174
 31
0.0
  0
LINE
  5
189
330
17
100
AcDbEntity
  8
0
100
AcDbLine
 10
1832.9333429706696
 20
1810.242651276174
 30
0.0
 11
1833.1502010423803
 21
1809.7620444203308
 31
0.0
  0
LINE
  5
18A
330
17
100
AcDbEntity
  8
0
100
AcDbLine
 10
1833.1502010423803
 20
1809.7620444203308
 30
0.0
 11
1833.402368530254
 21
1809.2989872627234
 31
0.0
  0
LINE
  5
18B
330
17
100
AcDbEntity
  8
0
100
AcDbLine
 10
1833.402368530254
 20
1809.2989872627234
 30
0.0
 11
1833.6884352114125
 21
1808.856069406816
 31
0.0
  0
LINE
  5
18C
330
17
100
AcDbEntity
  8
0
100
AcDbLine
 10
1833.6884352114125
 20
1808.856069406816
 30
0.0
 11
1834.006801284934
 21
1808.43576782892
 31
0.0
  0
LINE
  5
18D
330
17
100
AcDbEntity
  8
0
100
AcDbLine
 10
1834.006801284934
 20
1808.43576782892
 30
0.0
 11
1834.355686318592
 21
1808.0404330259512
 31
0.0
  0
LINE
  5
18E
330
17
100
AcDbEntity
  8
0
100
AcDbLine
 10
1834.355686318592
 20
1808.0404330259512
 30
0.0
 11
1834.7331392057604
 21
1807.6722758704877
 31
0.0
  0
LINE
  5
18F
330
17
100
AcDbEntity
  8
0
100
AcDbLine
 10
1834.7331392057604
 20
1807.6722758704877
 30
0.0
 11
1835.1370490767833
 21
1807.3333552466825
 31
0.0
  0
LINE
  5
190
330
17
100
AcDbEntity
  8
0
100
AcDbLine
 10
1835.1370490767833
 20
1807.3333552466825
 30
0.0
 11
1835.5651571038236
 21
1807.0255665361433
 31
0.0
  0
LINE
  5
191
330
17
100
AcDbEntity
  8
0
100
AcDbLine
 10
1835.5651571038236
 20
1807.0255665361433
 30
0.0
 11
1836.0150691331335
 21
1806.750631018192
 31
0.0
  0
LINE
  5
192
330
17
100
AcDbEntity
  8
0
100
AcDbLine
 10
1836.0150691331335
 20
1806.750631018192
 30
0.0
 11
1836.4842690741461
 21
1806.510086243764
 31
0.0
  0
LINE
  5
193
330
17
100
AcDbEntity
  8
0
100
AcDbLine
 10
1836.4842690741461
 20
1806.510086243764
 30
0.0
 11
1836.970132970466
 21
1806.3052774368152
 31
0.0
  0
LINE
  5
194
330
17
100
AcDbEntity
  8
0
100
AcDbLine
 10
1836.970132970466
 20
1806.3052774368152
 30
0.0
 11
1837.4699436740993
 21
1806.1373499712736
 31
0.0
  0
LINE
  5
195
330
17
100
AcDbEntity
  8
0
100
AcDbLine
 10
1837.4699436740993
 20
1806.1373499712736
 30
0.0
 11
1837.9809060408509
 21
1806.0072429656414
 31
0.0
  0
LINE
  5
196
330
17
100
AcDbEntity
  8
0
100
AcDbLine
 10
1837.9809060408509
 20
1806.0072429656414
 30
0.0
 11
1838.5001625618993
 21
1805.915684031071
 31
0.0
  0
LINE
  5
197
330
17
100
AcDbEntity
  8
0
100
AcDbLine
 10
1838.5001625618993
 20
1805.915684031071
 30
0.0
 11
1839.024809344148
 21
1805.863185202266
 31
0.0
  0
LINE
  5
198
330
17
100
AcDbEntity
  8
0
100
AcDbLine
 10
1839.024809344148
 20
1805.863185202266
 30
0.0
 11
1839.5519123499766
 21
1805.8500400739722
 31
0.0
  0
LINE
  5
199
330
17
100
AcDbEntity
  8
0
100
AcDbLine
 10
1839.5519123499766
 20
1805.8500400739722
 30
0.0
 11
1840.0785238055614
 21
1805.8763221590762
 31
0.0
  0
LINE
  5
19A
330
17
100
AcDbEntity
  8
0
100
AcDbLine
 10
1840.0785238055614
 20
1805.8763221590762
 30
0.0
 11
1840.6016986860302
 21
1805.9418844775014
 31
0.0
  0
LINE
  5
19B
330
17
100
AcDbEntity
  8
0
100
AcDbLine
 10
1840.6016986860302
 20
1805.9418844775014
 30
0.0
 11
1841.1185111852315
 21
1806.046360378164
 31
0.0
  0
LINE
  5
19C
330
17
100
AcDbEntity
  8
0
100
AcDbLine
 10
1841.1185111852315
 20
1806.046360378164
 30
0.0
 11
1841.6260710780314
 21
1806.1891655894515
 31
0.0
  0
LINE
  5
19D
330
17
100
AcDbEntity
  8
0
100
AcDbLine
 10
1841.6260710780314
 20
1806.1891655894515
 30
0.0
 11
1842.121539883625
 21
1806.3695014866958
 31
0.0
  0
LINE
  5
19E
330
17
100
AcDbEntity
  8
0
100
AcDbLine
 10
1842.121539883625
 20
1806.3695014866958
 30
0.0
 11
1842.6021467394694
 21
1806.5863595584065
 31
0.0
  0
LINE
  5
19F
330
17
100
AcDbEntity
  8
0
100
AcDbLine
 10
1842.6021467394694
 20
1806.5863595584065
 30
0.0
 11
1843.0652038970743
 21
1806.83852704628
 31
0.0
  0
LINE
  5
1A0
330
17
100
AcDbEntity
  8
0
100
AcDbLine
 10
1843.0652038970743
 20
1806.83852704628
 30
0.0
 11
1843.5081217529819
 21
1807.1245937274384
 31
0.0
  0
LINE
  5
1A1
330
17
100
AcDbEntity
  8
0
100
AcDbLine
 10
1843.5081217529819
 20
1807.1245937274384
 30
0.0
 11
1843.9284233308776
 21
1807.44295980096
 31
0.0
  0
LINE
  5
1A2
330
17
100
AcDbEntity
  8
0
100
AcDbLine
 10
1843.9284233308776
 20
1807.44295980096
 30
0.0
 11
1844.323758133848
 21
1807.791844834617
 31
0.0
  0
LINE
  5
1A3
330
17
100
AcDbEntity
  8
0
100
AcDbLine
 10
1844.323758133848
 20
1807.791844834617
 30
0.0
 11
1844.6919152893113
 21
1808.1692977217858
 31
0.0
  0
LINE
  5
1A4
330
17
100
AcDbEntity
  8
0
100
AcDbLine
 10
1844.6919152893113
 20
1808.1692977217858
 30
0.0
 11
1845.0308359131163
 21
1808.57320759281
 31
0.0
  0
LINE
  5
1A5
330
17
100
AcDbEntity
  8
0
100
AcDbLine
 10
1845.0308359131163
 20
1808.57320759281
 30
0.0
 11
1845.3386246236544
 21
1809.0013156198486
 31
0.0
  0
LINE
  5
1A6
330
17
100
AcDbEntity
  8
0
100
AcDbLine
 10
1845.3386246236544
 20
1809.0013156198486
 30
0.0
 11
1845.6135601416086
 21
1809.4512276491582
 31
0.0
  0
LINE
  5
1A7
330
17
100
AcDbEntity
  8
0
100
AcDbLine
 10
1845.6135601416086
 20
1809.4512276491582
 30
0.0
 11
1845.8541049160362
 21
1809.9204275901711
 31
0.0
  0
LINE
  5
1A8
330
17
100
AcDbEntity
  8
0
100
AcDbLine
 10
1845.8541049160362
 20
1809.9204275901711
 30
0.0
 11
1846.0589137229836
 21
1810.4062914864908
 31
0.0
  0
LINE
  5
1A9
330
17
100
AcDbEntity
  8
0
100
AcDbLine
 10
1846.0589137229836
 20
1810.4062914864908
 30
0.0
 11
1846.2268411885266
 21
1810.9061021901266
 31
0.0
  0
LINE
  5
1AA
330
17
100
AcDbEntity
  8
0
100
AcDbLine
 10
1846.2268411885266
 20
1810.9061021901266
 30
0.0
 11
1846.3569481941574
 21
1811.417064556877
 31
0.0
  0
LINE
  5
1AB
330
17
100
AcDbEntity
  8
0
100
AcDbLine
 10
1846.3569481941574
 20
1811.417064556877
 30
0.0
 11
1846.4485071287272
 21
1811.9363210779252
 31
0.0
  0
LINE
  5
1AC
330
17
100
AcDbEntity
  8
0
100
AcDbLine
 10
1846.4485071287272
 20
1811.9363210779252
 30
0.0
 11
1846.501005957533
 21
1812.460967860174
 31
0.0
  0
LINE
  5
1AD
330
17
100
AcDbEntity
  8
0
100
AcDbLine
 10
1846.501005957533
 20
1812.460967860174
 30
0.0
 11
1846.5141510858282
 21
1812.9880708660014
 31
0.0
  0
LINE
  5
1AE
330
17
100
AcDbEntity
  8
0
100
AcDbLine
 10
1846.5141510858282
 20
1812.9880708660014
 30
0.0
 11
1846.4878690007229
 21
1813.5146823215864
 31
0.0
  0
LINE
  5
1AF
330
17
100
AcDbEntity
  8
0
100
AcDbLine
 10
316.13646597593697
 20
699.1235207691348
 30
0.0
 11
316.070903657513
 21
699.6466956496033
 31
0.0
  0
LINE
  5
1B0
330
17
100
AcDbEntity
  8
0
100
AcDbLine
 10
316.070903657513
 20
699.6466956496033
 30
0.0
 11
315.96642775684904
 21
700.1635081488048
 31
0.0
  0
LINE
  5
1B1
330
17
100
AcDbEntity
  8
0
100
AcDbLine
 10
315.96642775684904
 20
700.1635081488048
 30
0.0
 11
315.8236225455609
 21
700.6710680416056
 31
0.0
  0
LINE
  5
1B2
330
17
100
AcDbEntity
  8
0
100
AcDbLine
 10
315.8236225455609
 20
700.6710680416056
 30
0.0
 11
315.64328664831754
 21
701.1665368471993
 31
0.0
  0
LINE
  5
1B3
330
17
100
AcDbEntity
  8
0
100
AcDbLine
 10
315.64328664831754
 20
701.1665368471993
 30
0.0
 11
315.42642857660724
 21
701.6471437030425
 31
0.0
  0
LINE
  5
1B4
330
17
100
AcDbEntity
  8
0
100
AcDbLine
 10
315.42642857660724
 20
701.6471437030425
 30
0.0
 11
315.17426108873286
 21
702.1102008606485
 31
0.0
  0
LINE
  5
1B5
330
17
100
AcDbEntity
  8
0
100
AcDbLine
 10
315.17426108873286
 20
702.1102008606485
 30
0.0
 11
314.88819440757516
 21
702.5531187165561
 31
0.0
  0
LINE
  5
1B6
330
17
100
AcDbEntity
  8
0
100
AcDbLine
 10
314.88819440757516
 20
702.5531187165561
 30
0.0
 11
314.56982833405453
 21
702.9734202944521
 31
0.0
  0
LINE
  5
1B7
330
17
100
AcDbEntity
  8
0
100
AcDbLine
 10
314.56982833405453
 20
702.9734202944521
 30
0.0
 11
314.2209433003955
 21
703.3687550974214
 31
0.0
  0
LINE
  5
1B8
330
17
100
AcDbEntity
  8
0
100
AcDbLine
 10
314.2209433003955
 20
703.3687550974214
 30
0.0
 11
313.84349041322713
 21
703.7369122528855
 31
0.0
  0
LINE
  5
1B9
330
17
100
AcDbEntity
  8
0
100
AcDbLine
 10
313.84349041322713
 20
703.7369122528855
 30
0.0
 11
313.4395805422035
 21
704.0758328766899
 31
0.0
  0
LINE
  5
1BA
330
17
100
AcDbEntity
  8
0
100
AcDbLine
 10
313.4395805422035
 20
704.0758328766899
 30
0.0
 11
313.01147251516454
 21
704.383621587229
 31
0.0
  0
LINE
  5
1BB
330
17
100
AcDbEntity
  8
0
100
AcDbLine
 10
313.01147251516454
 20
704.383621587229
 30
0.0
 11
312.561560485854
 21
704.6585571051826
 31
0.0
  0
LINE
  5
1BC
330
17
100
AcDbEntity
  8
0
100
AcDbLine
 10
312.561560485854
 20
704.6585571051826
 30
0.0
 11
312.0923605448412
 21
704.8991018796083
 31
0.0
  0
LINE
  5
1BD
330
17
100
AcDbEntity
  8
0
100
AcDbLine
 10
312.0923605448412
 20
704.8991018796083
 30
0.0
 11
311.60649664852144
 21
705.1039106865568
 31
0.0
  0
LINE
  5
1BE
330
17
100
AcDbEntity
  8
0
100
AcDbLine
 10
311.60649664852144
 20
705.1039106865568
 30
0.0
 11
311.1066859448875
 21
705.2718381520998
 31
0.0
  0
LINE
  5
1BF
330
17
100
AcDbEntity
  8
0
100
AcDbLine
 10
311.1066859448875
 20
705.2718381520998
 30
0.0
 11
310.59572357813624
 21
705.4019451577321
 31
0.0
  0
LINE
  5
1C0
330
17
100
AcDbEntity
  8
0
100
AcDbLine
 10
310.59572357813624
 20
705.4019451577321
 30
0.0
 11
310.07646705708805
 21
705.4935040923019
 31
0.0
  0
LINE
  5
1C1
330
17
100
AcDbEntity
  8
0
100
AcDbLine
 10
310.07646705708805
 20
705.4935040923019
 30
0.0
 11
309.5518202748388
 21
705.5460029211072
 31
0.0
  0
LINE
  5
1C2
330
17
100
AcDbEntity
  8
0
100
AcDbLine
 10
309.5518202748388
 20
705.5460029211072
 30
0.0
 11
309.0247172690111
 21
705.5591480494026
 31
0.0
  0
LINE
  5
1C3
330
17
100
AcDbEntity
  8
0
100
AcDbLine
 10
309.0247172690111
 20
705.5591480494026
 30
0.0
 11
308.49810581342626
 21
705.5328659642971
 31
0.0
  0
LINE
  5
1C4
330
17
100
AcDbEntity
  8
0
100
AcDbLine
 10
308.49810581342626
 20
705.5328659642971
 30
0.0
 11
307.97493093295765
 21
705.4673036458735
 31
0.0
  0
LINE
  5
1C5
330
17
100
AcDbEntity
  8
0
100
AcDbLine
 10
307.97493093295765
 20
705.4673036458735
 30
0.0
 11
307.45811843375617
 21
705.362827745209
 31
0.0
  0
LINE
  5
1C6
330
17
100
AcDbEntity
  8
0
100
AcDbLine
 10
307.45811843375617
 20
705.362827745209
 30
0.0
 11
306.9505585409556
 21
705.2200225339211
 31
0.0
  0
LINE
  5
1C7
330
17
100
AcDbEntity
  8
0
100
AcDbLine
 10
306.9505585409556
 20
705.2200225339211
 30
0.0
 11
306.45508973536255
 21
705.0396866366776
 31
0.0
  0
LINE
  5
1C8
330
17
100
AcDbEntity
  8
0
100
AcDbLine
 10
306.45508973536255
 20
705.0396866366776
 30
0.0
 11
305.974482879518
 21
704.8228285649669
 31
0.0
  0
LINE
  5
1C9
330
17
100
AcDbEntity
  8
0
100
AcDbLine
 10
305.974482879518
 20
704.8228285649669
 30
0.0
 11
305.5114257219127
 21
704.570661077092
 31
0.0
  0
LINE
  5
1CA
330
17
100
AcDbEntity
  8
0
100
AcDbLine
 10
305.5114257219127
 20
704.570661077092
 30
0.0
 11
305.068507866005
 21
704.2845943959339
 31
0.0
  0
LINE
  5
1CB
330
17
100
AcDbEntity
  8
0
100
AcDbLine
 10
305.068507866005
 20
704.2845943959339
 30
0.0
 11
304.64820628810924
 21
703.9662283224146
 31
0.0
  0
LINE
  5
1CC
330
17
100
AcDbEntity
  8
0
100
AcDbLine
 10
304.64820628810924
 20
703.9662283224146
 30
0.0
 11
304.2528714851393
 21
703.6173432887553
 31
0.0
  0
LINE
  5
1CD
330
17
100
AcDbEntity
  8
0
100
AcDbLine
 10
304.2528714851393
 20
703.6173432887553
 30
0.0
 11
303.884714329676
 21
703.2398904015869
 31
0.0
  0
LINE
  5
1CE
330
17
100
AcDbEntity
  8
0
100
AcDbLine
 10
303.884714329676
 20
703.2398904015869
 30
0.0
 11
303.5457937058712
 21
702.8359805305636
 31
0.0
  0
LINE
  5
1CF
330
17
100
AcDbEntity
  8
0
100
AcDbLine
 10
303.5457937058712
 20
702.8359805305636
 30
0.0
 11
303.2380049953321
 21
702.4078725035238
 31
0.0
  0
LINE
  5
1D0
330
17
100
AcDbEntity
  8
0
100
AcDbLine
 10
303.2380049953321
 20
702.4078725035238
 30
0.0
 11
302.96306947737884
 21
701.9579604742139
 31
0.0
  0
LINE
  5
1D1
330
17
100
AcDbEntity
  8
0
100
AcDbLine
 10
302.96306947737884
 20
701.9579604742139
 30
0.0
 11
302.7225247029519
 21
701.4887605332008
 31
0.0
  0
LINE
  5
1D2
330
17
100
AcDbEntity
  8
0
100
AcDbLine
 10
302.7225247029519
 20
701.4887605332008
 30
0.0
 11
302.51771589600384
 21
701.0028966368814
 31
0.0
  0
LINE
  5
1D3
330
17
100
AcDbEntity
  8
0
100
AcDbLine
 10
302.51771589600384
 20
701.0028966368814
 30
0.0
 11
302.34978843046133
 21
700.5030859332467
 31
0.0
  0
LINE
  5
1D4
330
17
100
AcDbEntity
  8
0
100
AcDbLine
 10
302.34978843046133
 20
700.5030859332467
 30
0.0
 11
302.21968142482916
 21
699.9921235664967
 31
0.0
  0
LINE
  5
1D5
330
17
100
AcDbEntity
  8
0
100
AcDbLine
 10
302.21968142482916
 20
699.9921235664967
 30
0.0
 11
302.1281224902596
 21
699.4728670454481
 31
0.0
  0
LINE
  5
1D6
330
17
100
AcDbEntity
  8
0
100
AcDbLine
 10
302.1281224902596
 20
699.4728670454481
 30
0.0
 11
302.0756236614543
 21
698.9482202631982
 31
0.0
  0
LINE
  5
1D7
330
17
100
AcDbEntity
  8
0
100
AcDbLine
 10
302.0756236614543
 20
698.9482202631982
 30
0.0
 11
302.06247853315926
 21
698.4211172573706
 31
0.0
  0
LINE
  5
1D8
330
17
100
AcDbEntity
  8
0
100
AcDbLine
 10
302.06247853315926
 20
698.4211172573706
 30
0.0
 11
302.08876061826425
 21
697.894505801786
 31
0.0
  0
LINE
  5
1D9
330
17
100
AcDbEntity
  8
0
100
AcDbLine
 10
302.08876061826425
 20
697.894505801786
 30
0.0
 11
302.15432293668823
 21
697.3713309213184
 31
0.0
  0
LINE
  5
1DA
330
17
100
AcDbEntity
  8
0
100
AcDbLine
 10
302.15432293668823
 20
697.3713309213184
 30
0.0
 11
302.2587988373524
 21
696.8545184221157
 31
0.0
  0
LINE
  5
1DB
330
17
100
AcDbEntity
  8
0
100
AcDbLine
 10
302.2587988373524
 20
696.8545184221157
 30
0.0
 11
302.4016040486404
 21
696.3469585293146
 31
0.0
  0
LINE
  5
1DC
330
17
100
AcDbEntity
  8
0
100
AcDbLine
 10
302.4016040486404
 20
696.3469585293146
 30
0.0
 11
302.5819399458837
 21
695.8514897237222
 31
0.0
  0
LINE
  5
1DD
330
17
100
AcDbEntity
  8
0
100
AcDbLine
 10
302.5819399458837
 20
695.8514897237222
 30
0.0
 11
302.7987980175941
 21
695.3708828678778
 31
0.0
  0
LINE
  5
1DE
330
17
100
AcDbEntity
  8
0
100
AcDbLine
 10
302.7987980175941
 20
695.3708828678778
 30
0.0
 11
303.05096550546847
 21
694.907825710273
 31
0.0
  0
LINE
  5
1DF
330
17
100
AcDbEntity
  8
0
100
AcDbLine
 10
303.05096550546847
 20
694.907825710273
 30
0.0
 11
303.3370321866263
 21
694.4649078543641
 31
0.0
  0
LINE
  5
1E0
330
17
100
AcDbEntity
  8
0
100
AcDbLine
 10
303.3370321866263
 20
694.4649078543641
 30
0.0
 11
303.65539826014674
 21
694.0446062764696
 31
0.0
  0
LINE
  5
1E1
330
17
100
AcDbEntity
  8
0
100
AcDbLine
 10
303.65539826014674
 20
694.0446062764696
 30
0.0
 11
304.00428329380577
 21
693.6492714734993
 31
0.0
  0
LINE
  5
1E2
330
17
100
AcDbEntity
  8
0
100
AcDbLine
 10
304.00428329380577
 20
693.6492714734993
 30
0.0
 11
304.3817361809742
 21
693.2811143180361
 31
0.0
  0
LINE
  5
1E3
330
17
100
AcDbEntity
  8
0
100
AcDbLine
 10
304.3817361809742
 20
693.2811143180361
 30
0.0
 11
304.7856460519979
 21
692.9421936942309
 31
0.0
  0
LINE
  5
1E4
330
17
100
AcDbEntity
  8
0
100
AcDbLine
 10
304.7856460519979
 20
692.9421936942309
 30
0.0
 11
305.213754079037
 21
692.6344049836914
 31
0.0
  0
LINE
  5
1E5
330
17
100
AcDbEntity
  8
0
100
AcDbLine
 10
305.213754079037
 20
692.6344049836914
 30
0.0
 11
305.66366610834746
 21
692.3594694657389
 31
0.0
  0
LINE
  5
1E6
330
17
100
AcDbEntity
  8
0
100
AcDbLine
 10
305.66366610834746
 20
692.3594694657389
 30
0.0
 11
306.1328660493601
 21
692.118924691312
 31
0.0
  0
LINE
  5
1E7
330
17
100
AcDbEntity
  8
0
100
AcDbLine
 10
306.1328660493601
 20
692.118924691312
 30
0.0
 11
306.61872994568
 21
691.9141158843635
 31
0.0
  0
LINE
  5
1E8
330
17
100
AcDbEntity
  8
0
100
AcDbLine
 10
306.61872994568
 20
691.9141158843635
 30
0.0
 11
307.11854064931373
 21
691.7461884188217
 31
0.0
  0
LINE
  5
1E9
330
17
100
AcDbEntity
  8
0
100
AcDbLine
 10
307.11854064931373
 20
691.7461884188217
 30
0.0
 11
307.6295030160651
 21
691.6160814131897
 31
0.0
  0
LINE
  5
1EA
330
17
100
AcDbEntity
  8
0
100
AcDbLine
 10
307.6295030160651
 20
691.6160814131897
 30
0.0
 11
308.1487595371132
 21
691.5245224786189
 31
0.0
  0
LINE
  5
1EB
330
17
100
AcDbEntity
  8
0
100
AcDbLine
 10
308.1487595371132
 20
691.5245224786189
 30
0.0
 11
308.67340631936264
 21
691.4720236498144
 31
0.0
  0
LINE
  5
1EC
330
17
100
AcDbEntity
  8
0
100
AcDbLine
 10
308.67340631936264
 20
691.4720236498144
 30
0.0
 11
309.20050932519047
 21
691.4588785215178
 31
0.0
  0
LINE
  5
1ED
330
17
100
AcDbEntity
  8
0
100
AcDbLine
 10
309.20050932519047
 20
691.4588785215178
 30
0.0
 11
309.727120780775
 21
691.4851606066245
 31
0.0
  0
LINE
  5
1EE
330
17
100
AcDbEntity
  8
0
100
AcDbLine
 10
309.727120780775
 20
691.4851606066245
 30
0.0
 11
310.2502956612439
 21
691.550722925047
 31
0.0
  0
LINE
  5
1EF
330
17
100
AcDbEntity
  8
0
100
AcDbLine
 10
310.2502956612439
 20
691.550722925047
 30
0.0
 11
310.7671081604453
 21
691.6551988257125
 31
0.0
  0
LINE
  5
1F0
330
17
100
AcDbEntity
  8
0
100
AcDbLine
 10
310.7671081604453
 20
691.6551988257125
 30
0.0
 11
311.27466805324565
 21
691.7980040369997
 31
0.0
  0
LINE
  5
1F1
330
17
100
AcDbEntity
  8
0
100
AcDbLine
 10
311.27466805324565
 20
691.7980040369997
 30
0.0
 11
311.7701368588388
 21
691.9783399342441
 31
0.0
  0
LINE
  5
1F2
330
17
100
AcDbEntity
  8
0
100
AcDbLine
 10
311.7701368588388
 20
691.9783399342441
 30
0.0
 11
312.2507437146832
 21
692.1951980059546
 31
0.0
  0
LINE
  5
1F3
330
17
100
AcDbEntity
  8
0
100
AcDbLine
 10
312.2507437146832
 20
692.1951980059546
 30
0.0
 11
312.71380087228874
 21
692.4473654938282
 31
0.0
  0
LINE
  5
1F4
330
17
100
AcDbEntity
  8
0
100
AcDbLine
 10
312.71380087228874
 20
692.4473654938282
 30
0.0
 11
313.1567187281964
 21
692.7334321749864
 31
0.0
  0
LINE
  5
1F5
330
17
100
AcDbEntity
  8
0
100
AcDbLine
 10
313.1567187281964
 20
692.7334321749864
 30
0.0
 11
313.5770203060922
 21
693.0517982485069
 31
0.0
  0
LINE
  5
1F6
330
17
100
AcDbEntity
  8
0
100
AcDbLine
 10
313.5770203060922
 20
693.0517982485069
 30
0.0
 11
313.9723551090623
 21
693.4006832821651
 31
0.0
  0
LINE
  5
1F7
330
17
100
AcDbEntity
  8
0
100
AcDbLine
 10
313.9723551090623
 20
693.4006832821651
 30
0.0
 11
314.3405122645254
 21
693.778136169334
 31
0.0
  0
LINE
  5
1F8
330
17
100
AcDbEntity
  8
0
100
AcDbLine
 10
314.3405122645254
 20
693.778136169334
 30
0.0
 11
314.67943288833015
 21
694.182046040358
 31
0.0
  0
LINE
  5
1F9
330
17
100
AcDbEntity
  8
0
100
AcDbLine
 10
314.67943288833015
 20
694.182046040358
 30
0.0
 11
314.98722159886916
 21
694.6101540673969
 31
0.0
  0
LINE
  5
1FA
330
17
100
AcDbEntity
  8
0
100
AcDbLine
 10
314.98722159886916
 20
694.6101540673969
 30
0.0
 11
315.26215711682244
 21
695.0600660967078
 31
0.0
  0
LINE
  5
1FB
330
17
100
AcDbEntity
  8
0
100
AcDbLine
 10
315.26215711682244
 20
695.0600660967078
 30
0.0
 11
315.50270189124956
 21
695.5292660377195
 31
0.0
  0
LINE
  5
1FC
330
17
100
AcDbEntity
  8
0
100
AcDbLine
 10
315.50270189124956
 20
695.5292660377195
 30
0.0
 11
315.7075106981975
 21
696.0151299340403
 31
0.0
  0
LINE
  5
1FD
330
17
100
AcDbEntity
  8
0
100
AcDbLine
 10
315.7075106981975
 20
696.0151299340403
 30
0.0
 11
315.87543816374
 21
696.5149406376736
 31
0.0
  0
LINE
  5
1FE
330
17
100
AcDbEntity
  8
0
100
AcDbLine
 10
315.87543816374
 20
696.5149406376736
 30
0.0
 11
316.00554516937206
 21
697.0259030044248
 31
0.0
  0
LINE
  5
1FF
330
17
100
AcDbEntity
  8
0
100
AcDbLine
 10
316.00554516937206
 20
697.0259030044248
 30
0.0
 11
316.0971041039417
 21
697.5451595254722
 31
0.0
  0
LINE
  5
200
330
17
100
AcDbEntity
  8
0
100
AcDbLine
 10
316.0971041039417
 20
697.5451595254722
 30
0.0
 11
316.14960293274714
 21
698.0698063077222
 31
0.0
  0
LINE
  5
201
330
17
100
AcDbEntity
  8
0
100
AcDbLine
 10
316.14960293274714
 20
698.0698063077222
 30
0.0
 11
316.16274806104195
 21
698.5969093135511
 31
0.0
  0
LINE
  5
202
330
17
100
AcDbEntity
  8
0
100
AcDbLine
 10
316.16274806104195
 20
698.5969093135511
 30
0.0
 11
316.13646597593697
 21
699.1235207691348
 31
0.0
  0
LINE
  5
203
330
17
100
AcDbEntity
  8
0
100
AcDbLine
 10
1111.5381947460849
 20
1672.9925986881776
 30
0.0
 11
1109.8730414050478
 21
1674.36411041058
 31
0.0
  0
LINE
  5
204
330
17
100
AcDbEntity
  8
0
100
AcDbLine
 10
1109.8730414050478
 20
1674.36411041058
 30
0.0
 11
1108.1831164449618
 21
1675.7049809051211
 31
0.0
  0
LINE
  5
205
330
17
100
AcDbEntity
  8
0
100
AcDbLine
 10
1108.1831164449618
 20
1675.7049809051211
 30
0.0
 11
1106.468983630941
 21
1677.0147628525272
 31
0.0
  0
LINE
  5
206
330
17
100
AcDbEntity
  8
0
100
AcDbLine
 10
1106.468983630941
 20
1677.0147628525272
 30
0.0
 11
1104.7312148039273
 21
1678.2930193047741
 31
0.0
  0
LINE
  5
207
330
17
100
AcDbEntity
  8
0
100
AcDbLine
 10
1104.7312148039273
 20
1678.2930193047741
 30
0.0
 11
1102.970389689923
 21
1679.5393238308611
 31
0.0
  0
LINE
  5
208
330
17
100
AcDbEntity
  8
0
100
AcDbLine
 10
1102.970389689923
 20
1679.5393238308611
 30
0.0
 11
1101.1870957065914
 21
1680.7532606590635
 31
0.0
  0
LINE
  5
209
330
17
100
AcDbEntity
  8
0
100
AcDbLine
 10
1101.1870957065914
 20
1680.7532606590635
 30
0.0
 11
1099.3819277672937
 21
1681.9344248156417
 31
0.0
  0
LINE
  5
20A
330
17
100
AcDbEntity
  8
0
100
AcDbLine
 10
1099.3819277672937
 20
1681.9344248156417
 30
0.0
 11
1097.555488082619
 21
1683.0824222599335
 31
0.0
  0
LINE
  5
20B
330
17
100
AcDbEntity
  8
0
100
AcDbLine
 10
1097.555488082619
 20
1683.0824222599335
 30
0.0
 11
1095.7083859594923
 21
1684.196870015815
 31
0.0
  0
LINE
  5
20C
330
17
100
AcDbEntity
  8
0
100
AcDbLine
 10
1095.7083859594923
 20
1684.196870015815
 30
0.0
 11
1093.8412375978999
 21
1685.2773962994652
 31
0.0
  0
LINE
  5
20D
330
17
100
AcDbEntity
  8
0
100
AcDbLine
 10
1093.8412375978999
 20
1685.2773962994652
 30
0.0
 11
1091.9546658853278
 21
1686.3236406433803
 31
0.0
  0
LINE
  5
20E
330
17
100
AcDbEntity
  8
0
100
AcDbLine
 10
1091.9546658853278
 20
1686.3236406433803
 30
0.0
 11
1090.049300188962
 21
1687.3352540166438
 31
0.0
  0
LINE
  5
20F
330
17
100
AcDbEntity
  8
0
100
AcDbLine
 10
1090.049300188962
 20
1687.3352540166438
 30
0.0
 11
1088.1257761457305
 21
1688.3118989413529
 31
0.0
  0
LINE
  5
210
330
17
100
AcDbEntity
  8
0
100
AcDbLine
 10
1088.1257761457305
 20
1688.3118989413529
 30
0.0
 11
1086.1847354502506
 21
1689.2532496052113
 31
0.0
  0
LINE
  5
211
330
17
100
AcDbEntity
  8
0
100
AcDbLine
 10
1086.1847354502506
 20
1689.2532496052113
 30
0.0
 11
1084.226825640759
 21
1690.158991970209
 31
0.0
  0
LINE
  5
212
330
17
100
AcDbEntity
  8
0
100
AcDbLine
 10
1084.226825640759
 20
1690.158991970209
 30
0.0
 11
1082.2526998830924
 21
1691.0288238773992
 31
0.0
  0
LINE
  5
213
330
17
100
AcDbEntity
  8
0
100
AcDbLine
 10
1082.2526998830924
 20
1691.0288238773992
 30
0.0
 11
1080.2630167527832
 21
1691.8624551476946
 31
0.0
  0
LINE
  5
214
330
17
100
AcDbEntity
  8
0
100
AcDbLine
 10
1080.2630167527832
 20
1691.8624551476946
 30
0.0
 11
1078.2584400153617
 21
1692.6596076786723
 31
0.0
  0
LINE
  5
215
330
17
100
AcDbEntity
  8
0
100
AcDbLine
 10
1078.2584400153617
 20
1692.6596076786723
 30
0.0
 11
1076.2396384049202
 21
1693.4200155373442
 31
0.0
  0
LINE
  5
216
330
17
100
AcDbEntity
  8
0
100
AcDbLine
 10
1076.2396384049202
 20
1693.4200155373442
 30
0.0
 11
1074.2072854010194
 21
1694.143425048886
 31
0.0
  0
LINE
  5
217
330
17
100
AcDbEntity
  8
0
100
AcDbLine
 10
1074.2072854010194
 20
1694.143425048886
 30
0.0
 11
1072.162059004015
 21
1694.8295948812502
 31
0.0
  0
LINE
  5
218
330
17
100
AcDbEntity
  8
0
100
AcDbLine
 10
1072.162059004015
 20
1694.8295948812502
 30
0.0
 11
1070.1046415088722
 21
1695.478296125687
 31
0.0
  0
LINE
  5
219
330
17
100
AcDbEntity
  8
0
100
AcDbLine
 10
1070.1046415088722
 20
1695.478296125687
 30
0.0
 11
1068.035719277552
 21
1696.0893123731012
 31
0.0
  0
LINE
  5
21A
330
17
100
AcDbEntity
  8
0
100
AcDbLine
 10
1068.035719277552
 20
1696.0893123731012
 30
0.0
 11
1065.9559825100375
 21
1696.6624397862486
 31
0.0
  0
LINE
  5
21B
330
17
100
AcDbEntity
  8
0
100
AcDbLine
 10
1065.9559825100375
 20
1696.6624397862486
 30
0.0
 11
1063.8661250140797
 21
1697.1974871677403
 31
0.0
  0
LINE
  5
21C
330
17
100
AcDbEntity
  8
0
100
AcDbLine
 10
1063.8661250140797
 20
1697.1974871677403
 30
0.0
 11
1061.7668439737413
 21
1697.694276023823
 31
0.0
  0
LINE
  5
21D
330
17
100
AcDbEntity
  8
0
100
AcDbLine
 10
1061.7668439737413
 20
1697.694276023823
 30
0.0
 11
1059.658839716814
 21
1698.1526406239282
 31
0.0
  0
LINE
  5
21E
330
17
100
AcDbEntity
  8
0
100
AcDbLine
 10
1059.658839716814
 20
1698.1526406239282
 30
0.0
 11
1057.542815481186
 21
1698.572428055956
 31
0.0
  0
LINE
  5
21F
330
17
100
AcDbEntity
  8
0
100
AcDbLine
 10
1057.542815481186
 20
1698.572428055956
 30
0.0
 11
1055.4194771802404
 21
1698.9534982772932
 31
0.0
  0
LINE
  5
220
330
17
100
AcDbEntity
  8
0
100
AcDbLine
 10
1055.4194771802404
 20
1698.9534982772932
 30
0.0
 11
1053.2895331673583
 21
1699.2957241615277
 31
0.0
  0
LINE
  5
221
330
17
100
AcDbEntity
  8
0
100
AcDbLine
 10
1053.2895331673583
 20
1699.2957241615277
 30
0.0
 11
1051.1536939996106
 21
1699.5989915408595
 31
0.0
  0
LINE
  5
222
330
17
100
AcDbEntity
  8
0
100
AcDbLine
 10
1051.1536939996106
 20
1699.5989915408595
 30
0.0
 11
1049.0126722007126
 21
1699.8631992441874
 31
0.0
  0
LINE
  5
223
330
17
100
AcDbEntity
  8
0
100
AcDbLine
 10
1049.0126722007126
 20
1699.8631992441874
 30
0.0
 11
1046.867182023326
 21
1700.0882591308612
 31
0.0
  0
LINE
  5
224
330
17
100
AcDbEntity
  8
0
100
AcDbLine
 10
1046.867182023326
 20
1700.0882591308612
 30
0.0
 11
1044.7179392107778
 21
1700.2740961200834
 31
0.0
  0
LINE
  5
225
330
17
100
AcDbEntity
  8
0
100
AcDbLine
 10
1044.7179392107778
 20
1700.2740961200834
 30
0.0
 11
1042.5656607582891
 21
1700.4206482159575
 31
0.0
  0
LINE
  5
226
330
17
100
AcDbEntity
  8
0
100
AcDbLine
 10
1042.5656607582891
 20
1700.4206482159575
 30
0.0
 11
1040.4110646737806
 21
1700.5278665281737
 31
0.0
  0
LINE
  5
227
330
17
100
AcDbEntity
  8
0
100
AcDbLine
 10
1040.4110646737806
 20
1700.5278665281737
 30
0.0
 11
1038.2548697383447
 21
1700.5957152883102
 31
0.0
  0
LINE
  5
228
330
17
100
AcDbEntity
  8
0
100
AcDbLine
 10
1038.2548697383447
 20
1700.5957152883102
 30
0.0
 11
1036.0977952664546
 21
1700.6241718617757
 31
0.0
  0
LINE
  5
229
330
17
100
AcDbEntity
  8
0
100
AcDbLine
 10
1036.0977952664546
 20
1700.6241718617757
 30
0.0
 11
1033.9405608660018
 21
1700.6132267553535
 31
0.0
  0
LINE
  5
22A
330
17
100
AcDbEntity
  8
0
100
AcDbLine
 10
1033.9405608660018
 20
1700.6132267553535
 30
0.0
 11
1031.7838861982286
 21
1700.5628836203691
 31
0.0
  0
LINE
  5
22B
330
17
100
AcDbEntity
  8
0
100
AcDbLine
 10
1031.7838861982286
 20
1700.5628836203691
 30
0.0
 11
1029.6284907376507
 21
1700.4731592514777
 31
0.0
  0
LINE
  5
22C
330
17
100
AcDbEntity
  8
0
100
AcDbLine
 10
1029.6284907376507
 20
1700.4731592514777
 30
0.0
 11
1027.4750935320344
 21
1700.3440835810543
 31
0.0
  0
LINE
  5
22D
330
17
100
AcDbEntity
  8
0
100
AcDbLine
 10
1027.4750935320344
 20
1700.3440835810543
 30
0.0
 11
1025.3244129625202
 21
1700.175699669212
 31
0.0
  0
LINE
  5
22E
330
17
100
AcDbEntity
  8
0
100
AcDbLine
 10
1135.626120497603
 20
1397.6663474832926
 30
0.0
 11
1133.960967156566
 21
1399.037859205695
 31
0.0
  0
LINE
  5
22F
330
17
100
AcDbEntity
  8
0
100
AcDbLine
 10
1133.960967156566
 20
1399.037859205695
 30
0.0
 11
1132.27104219648
 21
1400.378729700236
 31
0.0
  0
LINE
  5
230
330
17
100
AcDbEntity
  8
0
100
AcDbLine
 10
1132.27104219648
 20
1400.378729700236
 30
0.0
 11
1130.5569093824593
 21
1401.688511647642
 31
0.0
  0
LINE
  5
231
330
17
100
AcDbEntity
  8
0
100
AcDbLine
 10
1130.5569093824593
 20
1401.688511647642
 30
0.0
 11
1128.8191405554455
 21
1402.9667680998887
 31
0.0
  0
LINE
  5
232
330
17
100
AcDbEntity
  8
0
100
AcDbLine
 10
1128.8191405554455
 20
1402.9667680998887
 30
0.0
 11
1127.0583154414412
 21
1404.2130726259752
 31
0.0
  0
LINE
  5
233
330
17
100
AcDbEntity
  8
0
100
AcDbLine
 10
1127.0583154414412
 20
1404.2130726259752
 30
0.0
 11
1125.2750214581097
 21
1405.4270094541787
 31
0.0
  0
LINE
  5
234
330
17
100
AcDbEntity
  8
0
100
AcDbLine
 10
1125.2750214581097
 20
1405.4270094541787
 30
0.0
 11
1123.469853518812
 21
1406.6081736107549
 31
0.0
  0
LINE
  5
235
330
17
100
AcDbEntity
  8
0
100
AcDbLine
 10
1123.469853518812
 20
1406.6081736107549
 30
0.0
 11
1121.6434138341374
 21
1407.7561710550472
 31
0.0
  0
LINE
  5
236
330
17
100
AcDbEntity
  8
0
100
AcDbLine
 10
1121.6434138341374
 20
1407.7561710550472
 30
0.0
 11
1119.7963117110105
 21
1408.8706188109295
 31
0.0
  0
LINE
  5
237
330
17
100
AcDbEntity
  8
0
100
AcDbLine
 10
1119.7963117110105
 20
1408.8706188109295
 30
0.0
 11
1117.929163349418
 21
1409.9511450945784
 31
0.0
  0
LINE
  5
238
330
17
100
AcDbEntity
  8
0
100
AcDbLine
 10
1117.929163349418
 20
1409.9511450945784
 30
0.0
 11
1116.042591636846
 21
1410.9973894384952
 31
0.0
  0
LINE
  5
239
330
17
100
AcDbEntity
  8
0
100
AcDbLine
 10
1116.042591636846
 20
1410.9973894384952
 30
0.0
 11
1114.1372259404802
 21
1412.009002811759
 31
0.0
  0
LINE
  5
23A
330
17
100
AcDbEntity
  8
0
100
AcDbLine
 10
1114.1372259404802
 20
1412.009002811759
 30
0.0
 11
1112.2137018972485
 21
1412.9856477364692
 31
0.0
  0
LINE
  5
23B
330
17
100
AcDbEntity
  8
0
100
AcDbLine
 10
1112.2137018972485
 20
1412.9856477364692
 30
0.0
 11
1110.2726612017689
 21
1413.926998400325
 31
0.0
  0
LINE
  5
23C
330
17
100
AcDbEntity
  8
0
100
AcDbLine
 10
1110.2726612017689
 20
1413.926998400325
 30
0.0
 11
1108.3147513922775
 21
1414.8327407653226
 31
0.0
  0
LINE
  5
23D
330
17
100
AcDbEntity
  8
0
100
AcDbLine
 10
1108.3147513922775
 20
1414.8327407653226
 30
0.0
 11
1106.3406256346104
 21
1415.7025726725149
 31
0.0
  0
LINE
  5
23E
330
17
100
AcDbEntity
  8
0
100
AcDbLine
 10
1106.3406256346104
 20
1415.7025726725149
 30
0.0
 11
1104.3509425043012
 21
1416.5362039428096
 31
0.0
  0
LINE
  5
23F
330
17
100
AcDbEntity
  8
0
100
AcDbLine
 10
1104.3509425043012
 20
1416.5362039428096
 30
0.0
 11
1102.34636576688
 21
1417.333356473787
 31
0.0
  0
LINE
  5
240
330
17
100
AcDbEntity
  8
0
100
AcDbLine
 10
1102.34636576688
 20
1417.333356473787
 30
0.0
 11
1100.3275641564385
 21
1418.0937643324592
 31
0.0
  0
LINE
  5
241
330
17
100
AcDbEntity
  8
0
100
AcDbLine
 10
1100.3275641564385
 20
1418.0937643324592
 30
0.0
 11
1098.2952111525378
 21
1418.8171738439999
 31
0.0
  0
LINE
  5
242
330
17
100
AcDbEntity
  8
0
100
AcDbLine
 10
1098.2952111525378
 20
1418.8171738439999
 30
0.0
 11
1096.2499847555332
 21
1419.503343676365
 31
0.0
  0
LINE
  5
243
330
17
100
AcDbEntity
  8
0
100
AcDbLine
 10
1096.2499847555332
 20
1419.503343676365
 30
0.0
 11
1094.1925672603904
 21
1420.152044920802
 31
0.0
  0
LINE
  5
244
330
17
100
AcDbEntity
  8
0
100
AcDbLine
 10
1094.1925672603904
 20
1420.152044920802
 30
0.0
 11
1092.1236450290703
 21
1420.7630611682157
 31
0.0
  0
LINE
  5
245
330
17
100
AcDbEntity
  8
0
100
AcDbLine
 10
1092.1236450290703
 20
1420.7630611682157
 30
0.0
 11
1090.0439082615558
 21
1421.3361885813638
 31
0.0
  0
LINE
  5
246
330
17
100
AcDbEntity
  8
0
100
AcDbLine
 10
1090.0439082615558
 20
1421.3361885813638
 30
0.0
 11
1087.954050765598
 21
1421.871235962855
 31
0.0
  0
LINE
  5
247
330
17
100
AcDbEntity
  8
0
100
AcDbLine
 10
1087.954050765598
 20
1421.871235962855
 30
0.0
 11
1085.8547697252595
 21
1422.368024818938
 31
0.0
  0
LINE
  5
248
330
17
100
AcDbEntity
  8
0
100
AcDbLine
 10
1085.8547697252595
 20
1422.368024818938
 30
0.0
 11
1083.7467654683323
 21
1422.8263894190427
 31
0.0
  0
LINE
  5
249
330
17
100
AcDbEntity
  8
0
100
AcDbLine
 10
1083.7467654683323
 20
1422.8263894190427
 30
0.0
 11
1081.6307412327042
 21
1423.246176851071
 31
0.0
  0
LINE
  5
24A
330
17
100
AcDbEntity
  8
0
100
AcDbLine
 10
1081.6307412327042
 20
1423.246176851071
 30
0.0
 11
1079.5074029317586
 21
1423.627247072408
 31
0.0
  0
LINE
  5
24B
330
17
100
AcDbEntity
  8
0
100
AcDbLine
 10
1079.5074029317586
 20
1423.627247072408
 30
0.0
 11
1077.3774589188765
 21
1423.9694729566431
 31
0.0
  0
LINE
  5
24C
330
17
100
AcDbEntity
  8
0
100
AcDbLine
 10
1077.3774589188765
 20
1423.9694729566431
 30
0.0
 11
1075.2416197511288
 21
1424.272740335974
 31
0.0
  0
LINE
  5
24D
330
17
100
AcDbEntity
  8
0
100
AcDbLine
 10
1075.2416197511288
 20
1424.272740335974
 30
0.0
 11
1073.1005979522308
 21
1424.5369480393022
 31
0.0
  0
LINE
  5
24E
330
17
100
AcDbEntity
  8
0
100
AcDbLine
 10
1073.1005979522308
 20
1424.5369480393022
 30
0.0
 11
1070.9551077748442
 21
1424.762007925976
 31
0.0
  0
LINE
  5
24F
330
17
100
AcDbEntity
  8
0
100
AcDbLine
 10
1070.9551077748442
 20
1424.762007925976
 30
0.0
 11
1068.805864962296
 21
1424.9478449151982
 31
0.0
  0
LINE
  5
250
330
17
100
AcDbEntity
  8
0
100
AcDbLine
 10
1068.805864962296
 20
1424.9478449151982
 30
0.0
 11
1066.6535865098074
 21
1425.0943970110723
 31
0.0
  0
LINE
  5
251
330
17
100
AcDbEntity
  8
0
100
AcDbLine
 10
1066.6535865098074
 20
1425.0943970110723
 30
0.0
 11
1064.498990425299
 21
1425.2016153232876
 31
0.0
  0
LINE
  5
252
330
17
100
AcDbEntity
  8
0
100
AcDbLine
 10
1064.498990425299
 20
1425.2016153232876
 30
0.0
 11
1062.342795489863
 21
1425.269464083425
 31
0.0
  0
LINE
  5
253
330
17
100
AcDbEntity
  8
0
100
AcDbLine
 10
1062.342795489863
 20
1425.269464083425
 30
0.0
 11
1060.1857210179728
 21
1425.2979206568891
 31
0.0
  0
LINE
  5
254
330
17
100
AcDbEntity
  8
0
100
AcDbLine
 10
1060.1857210179728
 20
1425.2979206568891
 30
0.0
 11
1058.02848661752
 21
1425.286975550468
 31
0.0
  0
LINE
  5
255
330
17
100
AcDbEntity
  8
0
100
AcDbLine
 10
1058.02848661752
 20
1425.286975550468
 30
0.0
 11
1055.8718119497469
 21
1425.236632415483
 31
0.0
  0
LINE
  5
256
330
17
100
AcDbEntity
  8
0
100
AcDbLine
 10
1055.8718119497469
 20
1425.236632415483
 30
0.0
 11
1053.716416489169
 21
1425.1469080465924
 31
0.0
  0
LINE
  5
257
330
17
100
AcDbEntity
  8
0
100
AcDbLine
 10
1053.716416489169
 20
1425.1469080465924
 30
0.0
 11
1051.5630192835526
 21
1425.017832376168
 31
0.0
  0
LINE
  5
258
330
17
100
AcDbEntity
  8
0
100
AcDbLine
 10
1051.5630192835526
 20
1425.017832376168
 30
0.0
 11
1049.4123387140385
 21
1424.8494484643265
 31
0.0
  0
LINE
  5
259
330
17
100
AcDbEntity
  8
0
100
AcDbLine
 10
1314.1491187187346
 20
1448.0109155330954
 30
0.0
 11
1312.1224178766686
 21
1447.8140248039767
 31
0.0
  0
LINE
  5
25A
330
17
100
AcDbEntity
  8
0
100
AcDbLine
 10
1312.1224178766686
 20
1447.8140248039767
 30
0.0
 11
1310.099860295114
 21
1447.5783489848072
 31
0.0
  0
LINE
  5
25B
330
17
100
AcDbEntity
  8
0
100
AcDbLine
 10
1310.099860295114
 20
1447.5783489848072
 30
0.0
 11
1308.0821881376935
 21
1447.3039745552128
 31
0.0
  0
LINE
  5
25C
330
17
100
AcDbEntity
  8
0
100
AcDbLine
 10
1308.0821881376935
 20
1447.3039745552128
 30
0.0
 11
1306.0701417753571
 21
1446.9910021950072
 31
0.0
  0
LINE
  5
25D
330
17
100
AcDbEntity
  8
0
100
AcDbLine
 10
1306.0701417753571
 20
1446.9910021950072
 30
0.0
 11
1304.0644595147078
 21
1446.6395467472487
 31
0.0
  0
LINE
  5
25E
330
17
100
AcDbEntity
  8
0
100
AcDbLine
 10
1304.0644595147078
 20
1446.6395467472487
 30
0.0
 11
1302.0658773270836
 21
1446.2497371761026
 31
0.0
  0
LINE
  5
25F
330
17
100
AcDbEntity
  8
0
100
AcDbLine
 10
1302.0658773270836
 20
1446.2497371761026
 30
0.0
 11
1300.0751285785018
 21
1445.8217165195172
 31
0.0
  0
LINE
  5
260
330
17
100
AcDbEntity
  8
0
100
AcDbLine
 10
1300.0751285785018
 20
1445.8217165195172
 30
0.0
 11
1298.0929437605525
 21
1445.3556418367295
 31
0.0
  0
LINE
  5
261
330
17
100
AcDbEntity
  8
0
100
AcDbLine
 10
1298.0929437605525
 20
1445.3556418367295
 30
0.0
 11
1296.1200502223487
 21
1444.8516841506487
 31
0.0
  0
LINE
  5
262
330
17
100
AcDbEntity
  8
0
100
AcDbLine
 10
1296.1200502223487
 20
1444.8516841506487
 30
0.0
 11
1294.1571719036338
 21
1444.3100283850915
 31
0.0
  0
LINE
  5
263
330
17
100
AcDbEntity
  8
0
100
AcDbLine
 10
1294.1571719036338
 20
1444.3100283850915
 30
0.0
 11
1292.2050290691338
 21
1443.73087329692
 31
0.0
  0
LINE
  5
264
330
17
100
AcDbEntity
  8
0
100
AcDbLine
 10
1292.2050290691338
 20
1443.73087329692
 30
0.0
 11
1290.264338044264
 21
1443.1144314031171
 31
0.0
  0
LINE
  5
265
330
17
100
AcDbEntity
  8
0
100
AcDbLine
 10
1290.264338044264
 20
1443.1144314031171
 30
0.0
 11
1288.335810952275
 21
1442.4609289028074
 31
0.0
  0
LINE
  5
266
330
17
100
AcDbEntity
  8
0
100
AcDbLine
 10
1288.335810952275
 20
1442.4609289028074
 30
0.0
 11
1286.4201554529477
 21
1441.770605594248
 31
0.0
  0
LINE
  5
267
330
17
100
AcDbEntity
  8
0
100
AcDbLine
 10
1286.4201554529477
 20
1441.770605594248
 30
0.0
 11
1284.518074482918
 21
1441.0437147868402
 31
0.0
  0
LINE
  5
268
330
17
100
AcDbEntity
  8
0
100
AcDbLine
 10
1284.518074482918
 20
1441.0437147868402
 30
0.0
 11
1282.630265997744
 21
1440.2805232081714
 31
0.0
  0
LINE
  5
269
330
17
100
AcDbEntity
  8
0
100
AcDbLine
 10
1282.630265997744
 20
1440.2805232081714
 30
0.0
 11
1280.757422715791
 21
1439.4813109061593
 31
0.0
  0
LINE
  5
26A
330
17
100
AcDbEntity
  8
0
100
AcDbLine
 10
1280.757422715791
 20
1439.4813109061593
 30
0.0
 11
1278.9002318640476
 21
1438.6463711462684
 31
0.0
  0
LINE
  5
26B
330
17
100
AcDbEntity
  8
0
100
AcDbLine
 10
1278.9002318640476
 20
1438.6463711462684
 30
0.0
 11
1277.05937492595
 21
1437.7760103039166
 31
0.0
  0
LINE
  5
26C
330
17
100
AcDbEntity
  8
0
100
AcDbLine
 10
1277.05937492595
 20
1437.7760103039166
 30
0.0
 11
1275.235527391316
 21
1436.8705477520366
 31
0.0
  0
LINE
  5
26D
330
17
100
AcDbEntity
  8
0
100
AcDbLine
 10
1275.235527391316
 20
1436.8705477520366
 30
0.0
 11
1273.429358508481
 21
1435.9303157439003
 31
0.0
  0
LINE
  5
26E
330
17
100
AcDbEntity
  8
0
100
AcDbLine
 10
1273.429358508481
 20
1435.9303157439003
 30
0.0
 11
1271.6415310387194
 21
1434.9556592911902
 31
0.0
  0
LINE
  5
26F
330
17
100
AcDbEntity
  8
0
100
AcDbLine
 10
1271.6415310387194
 20
1434.9556592911902
 30
0.0
 11
1269.8727010130506
 21
1433.9469360374003
 31
0.0
  0
LINE
  5
270
330
17
100
AcDbEntity
  8
0
100
AcDbLine
 10
1269.8727010130506
 20
1433.9469360374003
 30
0.0
 11
1268.1235174915116
 21
1432.904516126605
 31
0.0
  0
LINE
  5
271
330
17
100
AcDbEntity
  8
0
100
AcDbLine
 10
1268.1235174915116
 20
1432.904516126605
 30
0.0
 11
1266.3946223249905
 21
1431.828782067637
 31
0.0
  0
LINE
  5
272
330
17
100
AcDbEntity
  8
0
100
AcDbLine
 10
1266.3946223249905
 20
1431.828782067637
 30
0.0
 11
1264.6866499197015
 21
1430.7201285937253
 31
0.0
  0
LINE
  5
273
330
17
100
AcDbEntity
  8
0
100
AcDbLine
 10
1264.6866499197015
 20
1430.7201285937253
 30
0.0
 11
1263.0002270043965
 21
1429.5789625176535
 31
0.0
  0
LINE
  5
274
330
17
100
AcDbEntity
  8
0
100
AcDbLine
 10
1263.0002270043965
 20
1429.5789625176535
 30
0.0
 11
1261.3359724003894
 21
1428.4057025824782
 31
0.0
  0
LINE
  5
275
330
17
100
AcDbEntity
  8
0
100
AcDbLine
 10
1261.3359724003894
 20
1428.4057025824782
 30
0.0
 11
1259.694496794484
 21
1427.200779307883
 31
0.0
  0
LINE
  5
276
330
17
100
AcDbEntity
  8
0
100
AcDbLine
 10
1259.694496794484
 20
1427.200779307883
 30
0.0
 11
1258.0764025148874
 21
1425.9646348321926
 31
0.0
  0
LINE
  5
277
330
17
100
AcDbEntity
  8
0
100
AcDbLine
 10
1258.0764025148874
 20
1425.9646348321926
 30
0.0
 11
1256.4822833101903
 21
1424.6977227501368
 31
0.0
  0
LINE
  5
278
330
17
100
AcDbEntity
  8
0
100
AcDbLine
 10
1256.4822833101903
 20
1424.6977227501368
 30
0.0
 11
1254.9127241314923
 21
1423.4005079464089
 31
0.0
  0
LINE
  5
279
330
17
100
AcDbEntity
  8
0
100
AcDbLine
 10
1254.9127241314923
 20
1423.4005079464089
 30
0.0
 11
1253.368300917762
 21
1422.0734664250785
 31
0.0
  0
LINE
  5
27A
330
17
100
AcDbEntity
  8
0
100
AcDbLine
 10
1253.368300917762
 20
1422.0734664250785
 30
0.0
 11
1251.8495803844976
 21
1420.7170851349215
 31
0.0
  0
LINE
  5
27B
330
17
100
AcDbEntity
  8
0
100
AcDbLine
 10
1251.8495803844976
 20
1420.7170851349215
 30
0.0
 11
1250.3571198157745
 21
1419.3318617907457
 31
0.0
  0
LINE
  5
27C
330
17
100
AcDbEntity
  8
0
100
AcDbLine
 10
1250.3571198157745
 20
1419.3318617907457
 30
0.0
 11
1248.8914668597545
 21
1417.9183046907476
 31
0.0
  0
LINE
  5
27D
330
17
100
AcDbEntity
  8
0
100
AcDbLine
 10
1248.8914668597545
 20
1417.9183046907476
 30
0.0
 11
1247.4531593277309
 21
1416.476932530003
 31
0.0
  0
LINE
  5
27E
330
17
100
AcDbEntity
  8
0
100
AcDbLine
 10
1247.4531593277309
 20
1416.476932530003
 30
0.0
 11
1246.0427249967802
 21
1415.0082742101338
 31
0.0
  0
LINE
  5
27F
330
17
100
AcDbEntity
  8
0
100
AcDbLine
 10
1246.0427249967802
 20
1415.0082742101338
 30
0.0
 11
1244.6606814160994
 21
1413.5128686452315
 31
0.0
  0
LINE
  5
280
330
17
100
AcDbEntity
  8
0
100
AcDbLine
 10
1244.6606814160994
 20
1413.5128686452315
 30
0.0
 11
1243.3075357170953
 21
1411.991264564101
 31
0.0
  0
LINE
  5
281
330
17
100
AcDbEntity
  8
0
100
AcDbLine
 10
1243.3075357170953
 20
1411.991264564101
 30
0.0
 11
1241.9837844272936
 21
1410.4440203089196
 31
0.0
  0
LINE
  5
282
330
17
100
AcDbEntity
  8
0
100
AcDbLine
 10
1158.4850867923456
 20
1174.1528025654563
 30
0.0
 11
1159.6293420657787
 21
1175.5470816503077
 31
0.0
  0
LINE
  5
283
330
17
100
AcDbEntity
  8
0
100
AcDbLine
 10
1159.6293420657787
 20
1175.5470816503077
 30
0.0
 11
1160.7429089995007
 21
1176.9659907317339
 31
0.0
  0
LINE
  5
284
330
17
100
AcDbEntity
  8
0
100
AcDbLine
 10
1160.7429089995007
 20
1176.9659907317339
 30
0.0
 11
1161.8252575959623
 21
1178.4088544858591
 31
0.0
  0
LINE
  5
285
330
17
100
AcDbEntity
  8
0
100
AcDbLine
 10
1161.8252575959623
 20
1178.4088544858591
 30
0.0
 11
1162.8758727158506
 21
1179.8749861876827
 31
0.0
  0
LINE
  5
286
330
17
100
AcDbEntity
  8
0
100
AcDbLine
 10
1162.8758727158506
 20
1179.8749861876827
 30
0.0
 11
1163.8942543232704
 21
1181.3636880379192
 31
0.0
  0
LINE
  5
287
330
17
100
AcDbEntity
  8
0
100
AcDbLine
 10
1163.8942543232704
 20
1181.3636880379192
 30
0.0
 11
1164.879917723732
 21
1182.874251495118
 31
0.0
  0
LINE
  5
288
330
17
100
AcDbEntity
  8
0
100
AcDbLine
 10
1164.879917723732
 20
1182.874251495118
 30
0.0
 11
1165.8323937948392
 21
1184.405957612882
 31
0.0
  0
LINE
  5
289
330
17
100
AcDbEntity
  8
0
100
AcDbLine
 10
1165.8323937948392
 20
1184.405957612882
 30
0.0
 11
1166.751229209569
 21
1185.9580773820599
 31
0.0
  0
LINE
  5
28A
330
17
100
AcDbEntity
  8
0
100
AcDbLine
 10
1166.751229209569
 20
1185.9580773820599
 30
0.0
 11
1167.635986652027
 21
1187.5298720777012
 31
0.0
  0
LINE
  5
28B
330
17
100
AcDbEntity
  8
0
100
AcDbLine
 10
1167.635986652027
 20
1187.5298720777012
 30
0.0
 11
1168.4862450255905
 21
1189.1205936106599
 31
0.0
  0
LINE
  5
28C
330
17
100
AcDbEntity
  8
0
100
AcDbLine
 10
1168.4862450255905
 20
1189.1205936106599
 30
0.0
 11
1169.301599653322
 21
1190.7294848836389
 31
0.0
  0
LINE
  5
28D
330
17
100
AcDbEntity
  8
0
100
AcDbLine
 10
1169.301599653322
 20
1190.7294848836389
 30
0.0
 11
1170.0816624705783
 21
1192.3557801515306
 31
0.0
  0
LINE
  5
28E
330
17
100
AcDbEntity
  8
0
100
AcDbLine
 10
1170.0816624705783
 20
1192.3557801515306
 30
0.0
 11
1170.8260622097075
 21
1193.9987053858652
 31
0.0
  0
LINE
  5
28F
330
17
100
AcDbEntity
  8
0
100
AcDbLine
 10
1170.8260622097075
 20
1193.9987053858652
 30
0.0
 11
1171.5344445767491
 21
1195.6574786432143
 31
0.0
  0
LINE
  5
290
330
17
100
AcDbEntity
  8
0
100
AcDbLine
 10
1171.5344445767491
 20
1195.6574786432143
 30
0.0
 11
1172.2064724200636
 21
1197.3313104373456
 31
0.0
  0
LINE
  5
291
330
17
100
AcDbEntity
  8
0
100
AcDbLine
 10
1172.2064724200636
 20
1197.3313104373456
 30
0.0
 11
1172.841825890793
 21
1199.019404114977
 31
0.0
  0
LINE
  5
292
330
17
100
AcDbEntity
  8
0
100
AcDbLine
 10
1172.841825890793
 20
1199.019404114977
 30
0.0
 11
1173.4402025950967
 21
1200.7209562349485
 31
0.0
  0
LINE
  5
293
330
17
100
AcDbEntity
  8
0
100
AcDbLine
 10
1173.4402025950967
 20
1200.7209562349485
 30
0.0
 11
1174.0013177380713
 21
1202.4351569506043
 31
0.0
  0
LINE
  5
294
330
17
100
AcDbEntity
  8
0
100
AcDbLine
 10
1174.0013177380713
 20
1202.4351569506043
 30
0.0
 11
1174.5249042592986
 21
1204.1611903952455
 31
0.0
  0
LINE
  5
295
330
17
100
AcDbEntity
  8
0
100
AcDbLine
 10
1174.5249042592986
 20
1204.1611903952455
 30
0.0
 11
1175.010712959952
 21
1205.898235070435
 31
0.0
  0
LINE
  5
296
330
17
100
AcDbEntity
  8
0
100
AcDbLine
 10
1175.010712959952
 20
1205.898235070435
 30
0.0
 11
1175.4585126214006
 21
1207.6454642369838
 31
0.0
  0
LINE
  5
297
330
17
100
AcDbEntity
  8
0
100
AcDbLine
 10
1175.4585126214006
 20
1207.6454642369838
 30
0.0
 11
1175.8680901152595
 21
1209.402046308437
 31
0.0
  0
LINE
  5
298
330
17
100
AcDbEntity
  8
0
100
AcDbLine
 10
1175.8680901152595
 20
1209.402046308437
 30
0.0
 11
1176.239250504824
 21
1211.1671452468684
 31
0.0
  0
LINE
  5
299
330
17
100
AcDbEntity
  8
0
100
AcDbLine
 10
1176.239250504824
 20
1211.1671452468684
 30
0.0
 11
1176.5718171378494
 21
1212.9399209607789
 31
0.0
  0
LINE
  5
29A
330
17
100
AcDbEntity
  8
0
100
AcDbLine
 10
1176.5718171378494
 20
1212.9399209607789
 30
0.0
 11
1176.865631730631
 21
1214.7195297049407
 31
0.0
  0
LINE
  5
29B
330
17
100
AcDbEntity
  8
0
100
AcDbLine
 10
1176.865631730631
 20
1214.7195297049407
 30
0.0
 11
1177.120554443336
 21
1216.505124481977
 31
0.0
  0
LINE
  5
29C
330
17
100
AcDbEntity
  8
0
100
AcDbLine
 10
1177.120554443336
 20
1216.505124481977
 30
0.0
 11
1177.3364639465597
 21
1218.29585544548
 31
0.0
  0
LINE
  5
29D
330
17
100
AcDbEntity
  8
0
100
AcDbLine
 10
1177.3364639465597
 20
1218.29585544548
 30
0.0
 11
1177.513257479071
 21
1220.0908703044975
 31
0.0
  0
LINE
  5
29E
330
17
100
AcDbEntity
  8
0
100
AcDbLine
 10
1177.513257479071
 20
1220.0908703044975
 30
0.0
 11
1177.6508508967243
 21
1221.8893147291742
 31
0.0
  0
LINE
  5
29F
330
17
100
AcDbEntity
  8
0
100
AcDbLine
 10
1177.6508508967243
 20
1221.8893147291742
 30
0.0
 11
1177.7491787125052
 21
1223.6903327573673
 31
0.0
  0
LINE
  5
2A0
330
17
100
AcDbEntity
  8
0
100
AcDbLine
 10
1177.7491787125052
 20
1223.6903327573673
 30
0.0
 11
1177.8081941276987
 21
1225.4930672020373
 31
0.0
  0
LINE
  5
2A1
330
17
100
AcDbEntity
  8
0
100
AcDbLine
 10
1177.8081941276987
 20
1225.4930672020373
 30
0.0
 11
1177.827869054163
 21
1227.2966600592251
 31
0.0
  0
LINE
  5
2A2
330
17
100
AcDbEntity
  8
0
100
AcDbLine
 10
1177.827869054163
 20
1227.2966600592251
 30
0.0
 11
1177.8081941276987
 21
1229.1002529164134
 31
0.0
  0
LINE
  5
2A3
330
17
100
AcDbEntity
  8
0
100
AcDbLine
 10
1177.8081941276987
 20
1229.1002529164134
 30
0.0
 11
1177.7491787125055
 21
1230.9029873610832
 31
0.0
  0
LINE
  5
2A4
330
17
100
AcDbEntity
  8
0
100
AcDbLine
 10
1177.7491787125055
 20
1230.9029873610832
 30
0.0
 11
1177.6508508967247
 21
1232.7040053892763
 31
0.0
  0
LINE
  5
2A5
330
17
100
AcDbEntity
  8
0
100
AcDbLine
 10
1177.6508508967247
 20
1232.7040053892763
 30
0.0
 11
1177.513257479071
 21
1234.5024498139528
 31
0.0
  0
LINE
  5
2A6
330
17
100
AcDbEntity
  8
0
100
AcDbLine
 10
1177.5132574790691
 20
1234.5024498139526
 30
0.0
 11
1177.7208934588443
 21
1232.3552033554029
 31
0.0
  0
LINE
  5
2A7
330
17
100
AcDbEntity
  8
0
100
AcDbLine
 10
1177.7208934588443
 20
1232.3552033554029
 30
0.0
 11
1177.9677122384346
 21
1230.212107337046
 31
0.0
  0
LINE
  5
2A8
330
17
100
AcDbEntity
  8
0
100
AcDbLine
 10
1177.9677122384346
 20
1230.212107337046
 30
0.0
 11
1178.2536314781971
 21
1228.0738767035118
 31
0.0
  0
LINE
  5
2A9
330
17
100
AcDbEntity
  8
0
100
AcDbLine
 10
1178.2536314781971
 20
1228.0738767035118
 30
0.0
 11
1178.5785557944337
 21
1225.9412247763153
 31
0.0
  0
LINE
  5
2AA
330
17
100
AcDbEntity
  8
0
100
AcDbLine
 10
1178.5785557944337
 20
1225.9412247763153
 30
0.0
 11
1178.94237679121
 21
1223.8148630158994
 31
0.0
  0
LINE
  5
2AB
330
17
100
AcDbEntity
  8
0
100
AcDbLine
 10
1178.94237679121
 20
1223.8148630158994
 30
0.0
 11
1179.344973096518
 21
1221.6955007842832
 31
0.0
  0
LINE
  5
2AC
330
17
100
AcDbEntity
  8
0
100
AcDbLine
 10
1179.344973096518
 20
1221.6955007842832
 30
0.0
 11
1179.7862104027665
 21
1219.5838451084142
 31
0.0
  0
LINE
  5
2AD
330
17
100
AcDbEntity
  8
0
100
AcDbLine
 10
1179.7862104027665
 20
1219.5838451084142
 30
0.0
 11
1180.2659415115843
 21
1217.480600444309
 31
0.0
  0
LINE
  5
2AE
330
17
100
AcDbEntity
  8
0
100
AcDbLine
 10
1180.2659415115843
 20
1217.480600444309
 30
0.0
 11
1180.7840063829285
 21
1215.3864684420391
 31
0.0
  0
LINE
  5
2AF
330
17
100
AcDbEntity
  8
0
100
AcDbLine
 10
1180.7840063829285
 20
1215.3864684420391
 30
0.0
 11
1181.3402321884735
 21
1213.3021477116572
 31
0.0
  0
LINE
  5
2B0
330
17
100
AcDbEntity
  8
0
100
AcDbLine
 10
1181.3402321884735
 20
1213.3021477116572
 30
0.0
 11
1181.934433369267
 21
1211.2283335901427
 31
0.0
  0
LINE
  5
2B1
330
17
100
AcDbEntity
  8
0
100
AcDbLine
 10
1181.934433369267
 20
1211.2283335901427
 30
0.0
 11
1182.5664116976338
 21
1209.1657179094277
 31
0.0
  0
LINE
  5
2B2
330
17
100
AcDbEntity
  8
0
100
AcDbLine
 10
1182.5664116976338
 20
1209.1657179094277
 30
0.0
 11
1183.2359563433047
 21
1207.1149887656093
 31
0.0
  0
LINE
  5
2B3
330
17
100
AcDbEntity
  8
0
100
AcDbLine
 10
1183.2359563433047
 20
1207.1149887656093
 30
0.0
 11
1183.9428439437497
 21
1205.0768302893891
 31
0.0
  0
LINE
  5
2B4
330
17
100
AcDbEntity
  8
0
100
AcDbLine
 10
1183.9428439437497
 20
1205.0768302893891
 30
0.0
 11
1184.6868386786946
 21
1203.051922417848
 31
0.0
  0
LINE
  5
2B5
330
17
100
AcDbEntity
  8
0
100
AcDbLine
 10
1184.6868386786946
 20
1203.051922417848
 30
0.0
 11
1185.4676923487887
 21
1201.0409406676195
 31
0.0
  0
LINE
  5
2B6
330
17
100
AcDbEntity
  8
0
100
AcDbLine
 10
1185.4676923487887
 20
1201.0409406676195
 30
0.0
 11
1186.2851444584076
 21
1199.0445559095294
 31
0.0
  0
LINE
  5
2B7
330
17
100
AcDbEntity
  8
0
100
AcDbLine
 10
1186.2851444584076
 20
1199.0445559095294
 30
0.0
 11
1187.1389223025535
 21
1197.0634341447967
 31
0.0
  0
LINE
  5
2B8
330
17
100
AcDbEntity
  8
0
100
AcDbLine
 10
1187.1389223025535
 20
1197.0634341447967
 30
0.0
 11
1188.0287410578321
 21
1195.098236282848
 31
0.0
  0
LINE
  5
2B9
330
17
100
AcDbEntity
  8
0
100
AcDbLine
 10
1188.0287410578321
 20
1195.098236282848
 30
0.0
 11
1188.9543038774696
 21
1193.1496179208386
 31
0.0
  0
LINE
  5
2BA
330
17
100
AcDbEntity
  8
0
100
AcDbLine
 10
1188.9543038774696
 20
1193.1496179208386
 30
0.0
 11
1189.9153019903424
 21
1191.218229124944
 31
0.0
  0
LINE
  5
2BB
330
17
100
AcDbEntity
  8
0
100
AcDbLine
 10
1189.9153019903424
 20
1191.218229124944
 30
0.0
 11
1190.9114148039841
 21
1189.3047142134906
 31
0.0
  0
LINE
  5
2BC
330
17
100
AcDbEntity
  8
0
100
AcDbLine
 10
1190.9114148039841
 20
1189.3047142134906
 30
0.0
 11
1191.9423100115368
 21
1187.4097115420157
 31
0.0
  0
LINE
  5
2BD
330
17
100
AcDbEntity
  8
0
100
AcDbLine
 10
1191.9423100115368
 20
1187.4097115420157
 30
0.0
 11
1193.007643702609
 21
1185.533853290303
 31
0.0
  0
LINE
  5
2BE
330
17
100
AcDbEntity
  8
0
100
AcDbLine
 10
1193.007643702609
 20
1185.533853290303
 30
0.0
 11
1194.1070604780055
 21
1183.6777652514877
 31
0.0
  0
LINE
  5
2BF
330
17
100
AcDbEntity
  8
0
100
AcDbLine
 10
1194.1070604780055
 20
1183.6777652514877
 30
0.0
 11
1195.240193568291
 21
1181.8420666232953
 31
0.0
  0
LINE
  5
2C0
330
17
100
AcDbEntity
  8
0
100
AcDbLine
 10
1195.240193568291
 20
1181.8420666232953
 30
0.0
 11
1196.4066649561448
 21
1180.0273698014614
 31
0.0
  0
LINE
  5
2C1
330
17
100
AcDbEntity
  8
0
100
AcDbLine
 10
1196.4066649561448
 20
1180.0273698014614
 30
0.0
 11
1197.6060855024687
 21
1178.2342801754517
 31
0.0
  0
LINE
  5
2C2
330
17
100
AcDbEntity
  8
0
100
AcDbLine
 10
1197.6060855024687
 20
1178.2342801754517
 30
0.0
 11
1198.8380550762047
 21
1176.4633959264818
 31
0.0
  0
LINE
  5
2C3
330
17
100
AcDbEntity
  8
0
100
AcDbLine
 10
1198.8380550762047
 20
1176.4633959264818
 30
0.0
 11
1200.1021626878214
 21
1174.715307827986
 31
0.0
  0
LINE
  5
2C4
330
17
100
AcDbEntity
  8
0
100
AcDbLine
 10
1200.1021626878214
 20
1174.715307827986
 30
0.0
 11
1201.3979866264212
 21
1172.9905990485095
 31
0.0
  0
LINE
  5
2C5
330
17
100
AcDbEntity
  8
0
100
AcDbLine
 10
1201.3979866264212
 20
1172.9905990485095
 30
0.0
 11
1202.7250946004253
 21
1171.2898449571744
 31
0.0
  0
LINE
  5
2C6
330
17
100
AcDbEntity
  8
0
100
AcDbLine
 10
1202.7250946004253
 20
1171.2898449571744
 30
0.0
 11
1204.0830438817845
 21
1169.6136129317365
 31
0.0
  0
LINE
  5
2C7
330
17
100
AcDbEntity
  8
0
100
AcDbLine
 10
1204.0830438817845
 20
1169.6136129317365
 30
0.0
 11
1205.4713814536801
 21
1167.9624621692928
 31
0.0
  0
LINE
  5
2C8
330
17
100
AcDbEntity
  8
0
100
AcDbLine
 10
1205.4713814536801
 20
1167.9624621692928
 30
0.0
 11
1206.8896441616466
 21
1166.3369434997453
 31
0.0
  0
LINE
  5
2C9
330
17
100
AcDbEntity
  8
0
100
AcDbLine
 10
1206.8896441616466
 20
1166.3369434997453
 30
0.0
 11
1208.3373588680854
 21
1164.737599202038
 31
0.0
  0
LINE
  5
2CA
330
17
100
AcDbEntity
  8
0
100
AcDbLine
 10
1208.3373588680854
 20
1164.737599202038
 30
0.0
 11
1209.8140426101047
 21
1163.1649628232417
 31
0.0
  0
LINE
  5
2CB
330
17
100
AcDbEntity
  8
0
100
AcDbLine
 10
1209.8140426101047
 20
1163.1649628232417
 30
0.0
 11
1211.3192027606362
 21
1161.6195590005777
 31
0.0
  0
LINE
  5
2CC
330
17
100
AcDbEntity
  8
0
100
AcDbLine
 10
1211.3192027606362
 20
1161.6195590005777
 30
0.0
 11
1212.852337192778
 21
1160.1019032863805
 31
0.0
  0
LINE
  5
2CD
330
17
100
AcDbEntity
  8
0
100
AcDbLine
 10
1212.852337192778
 20
1160.1019032863805
 30
0.0
 11
1214.4129344473065
 21
1158.6125019761182
 31
0.0
  0
LINE
  5
2CE
330
17
100
AcDbEntity
  8
0
100
AcDbLine
 10
1214.4129344473065
 20
1158.6125019761182
 30
0.0
 11
1216.0004739033006
 21
1157.151851939486
 31
0.0
  0
LINE
  5
2CF
330
17
100
AcDbEntity
  8
0
100
AcDbLine
 10
1216.0004739033006
 20
1157.151851939486
 30
0.0
 11
1217.614425951823
 21
1155.7204404546494
 31
0.0
  0
LINE
  5
2D0
330
17
100
AcDbEntity
  8
0
100
AcDbLine
 10
1217.614425951823
 20
1155.7204404546494
 30
0.0
 11
1219.2542521725989
 21
1154.3187450456849
 31
0.0
  0
LINE
  5
2D1
330
17
100
AcDbEntity
  8
0
100
AcDbLine
 10
481.1813673705821
 20
715.175975654271
 30
0.0
 11
482.75368404915645
 21
713.8821045151226
 31
0.0
  0
LINE
  5
2D2
330
17
100
AcDbEntity
  8
0
100
AcDbLine
 10
482.75368404915645
 20
713.8821045151226
 30
0.0
 11
484.3504962003101
 21
712.6185883037608
 31
0.0
  0
LINE
  5
2D3
330
17
100
AcDbEntity
  8
0
100
AcDbLine
 10
484.3504962003101
 20
712.6185883037608
 30
0.0
 11
485.9712178847835
 21
711.385890658789
 31
0.0
  0
LINE
  5
2D4
330
17
100
AcDbEntity
  8
0
100
AcDbLine
 10
485.9712178847835
 20
711.385890658789
 30
0.0
 11
487.6152543898791
 21
710.1844639101446
 31
0.0
  0
LINE
  5
2D5
330
17
100
AcDbEntity
  8
0
100
AcDbLine
 10
487.6152543898791
 20
710.1844639101446
 30
0.0
 11
489.28200244768476
 21
709.0147489131274
 31
0.0
  0
LINE
  5
2D6
330
17
100
AcDbEntity
  8
0
100
AcDbLine
 10
489.28200244768476
 20
709.0147489131274
 30
0.0
 11
490.9708504564411
 21
707.87717488663
 31
0.0
  0
LINE
  5
2D7
330
17
100
AcDbEntity
  8
0
100
AcDbLine
 10
490.9708504564411
 20
707.87717488663
 30
0.0
 11
492.6811787049626
 21
706.7721592556295
 31
0.0
  0
LINE
  5
2D8
330
17
100
AcDbEntity
  8
0
100
AcDbLine
 10
492.6811787049626
 20
706.7721592556295
 30
0.0
 11
494.4123596000372
 21
705.7001074980303
 31
0.0
  0
LINE
  5
2D9
330
17
100
AcDbEntity
  8
0
100
AcDbLine
 10
494.4123596000372
 20
705.7001074980303
 30
0.0
 11
496.1637578967181
 21
704.6614129958655
 31
0.0
  0
LINE
  5
2DA
330
17
100
AcDbEntity
  8
0
100
AcDbLine
 10
496.1637578967181
 20
704.6614129958655
 30
0.0
 11
497.93473093142086
 21
703.6564568909535
 31
0.0
  0
LINE
  5
2DB
330
17
100
AcDbEntity
  8
0
100
AcDbLine
 10
497.93473093142086
 20
703.6564568909535
 30
0.0
 11
499.72462885774576
 21
702.6856079450395
 31
0.0
  0
LINE
  5
2DC
330
17
100
AcDbEntity
  8
0
100
AcDbLine
 10
499.72462885774576
 20
702.6856079450395
 30
0.0
 11
501.5327948849338
 21
701.7492224044815
 31
0.0
  0
LINE
  5
2DD
330
17
100
AcDbEntity
  8
0
100
AcDbLine
 10
501.5327948849338
 20
701.7492224044815
 30
0.0
 11
503.3585655188717
 21
700.8476438695257
 31
0.0
  0
LINE
  5
2DE
330
17
100
AcDbEntity
  8
0
100
AcDbLine
 10
503.3585655188717
 20
700.8476438695257
 30
0.0
 11
505.20127080555704
 21
699.9812031682262
 31
0.0
  0
LINE
  5
2DF
330
17
100
AcDbEntity
  8
0
100
AcDbLine
 10
505.20127080555704
 20
699.9812031682262
 30
0.0
 11
507.06023457693203
 21
699.1502182350544
 31
0.0
  0
LINE
  5
2E0
330
17
100
AcDbEntity
  8
0
100
AcDbLine
 10
507.06023457693203
 20
699.1502182350544
 30
0.0
 11
508.9347746990001
 21
698.3549939942261
 31
0.0
  0
LINE
  5
2E1
330
17
100
AcDbEntity
  8
0
100
AcDbLine
 10
508.9347746990001
 20
698.3549939942261
 30
0.0
 11
510.8242033221296
 21
697.5958222478189
 31
0.0
  0
LINE
  5
2E2
330
17
100
AcDbEntity
  8
0
100
AcDbLine
 10
510.8242033221296
 20
697.5958222478189
 30
0.0
 11
512.7278271334557
 21
696.8729815686936
 31
0.0
  0
LINE
  5
2E3
330
17
100
AcDbEntity
  8
0
100
AcDbLine
 10
512.7278271334557
 20
696.8729815686936
 30
0.0
 11
514.6449476112859
 21
696.1867371982776
 31
0.0
  0
LINE
  5
2E4
330
17
100
AcDbEntity
  8
0
100
AcDbLine
 10
514.6449476112859
 20
696.1867371982776
 30
0.0
 11
516.5748612814195
 21
695.5373409492317
 31
0.0
  0
LINE
  5
2E5
330
17
100
AcDbEntity
  8
0
100
AcDbLine
 10
516.5748612814195
 20
695.5373409492317
 30
0.0
 11
518.5168599752818
 21
694.9250311130522
 31
0.0
  0
LINE
  5
2E6
330
17
100
AcDbEntity
  8
0
100
AcDbLine
 10
518.5168599752818
 20
694.9250311130522
 30
0.0
 11
520.4702310897806
 21
694.3500323726316
 31
0.0
  0
LINE
  5
2E7
330
17
100
AcDbEntity
  8
0
100
AcDbLine
 10
520.4702310897806
 20
694.3500323726316
 30
0.0
 11
522.4342578487929
 21
693.812555719811
 31
0.0
  0
LINE
  5
2E8
330
17
100
AcDbEntity
  8
0
100
AcDbLine
 10
522.4342578487929
 20
693.812555719811
 30
0.0
 11
524.4082195661794
 21
693.3127983779577
 31
0.0
  0
LINE
  5
2E9
330
17
100
AcDbEntity
  8
0
100
AcDbLine
 10
524.4082195661794
 20
693.3127983779577
 30
0.0
 11
526.391391910237
 21
692.8509437295987
 31
0.0
  0
LINE
  5
2EA
330
17
100
AcDbEntity
  8
0
100
AcDbLine
 10
526.391391910237
 20
692.8509437295987
 30
0.0
 11
528.3830471694852
 21
692.4271612491293
 31
0.0
  0
LINE
  5
2EB
330
17
100
AcDbEntity
  8
0
100
AcDbLine
 10
528.3830471694852
 20
692.4271612491293
 30
0.0
 11
530.3824545196962
 21
692.0416064406186
 31
0.0
  0
LINE
  5
2EC
330
17
100
AcDbEntity
  8
0
100
AcDbLine
 10
530.3824545196962
 20
692.0416064406186
 30
0.0
 11
532.3888802920669
 21
691.6944207807617
 31
0.0
  0
LINE
  5
2ED
330
17
100
AcDbEntity
  8
0
100
AcDbLine
 10
532.3888802920669
 20
691.6944207807617
 30
0.0
 11
534.4015882424308
 21
691.3857316669491
 31
0.0
  0
LINE
  5
2EE
330
17
100
AcDbEntity
  8
0
100
AcDbLine
 10
534.4015882424308
 20
691.3857316669491
 30
0.0
 11
536.4198398214199
 21
691.1156523705349
 31
0.0
  0
LINE
  5
2EF
330
17
100
AcDbEntity
  8
0
100
AcDbLine
 10
536.4198398214199
 20
691.1156523705349
 30
0.0
 11
538.4428944454703
 21
690.8842819952621
 31
0.0
  0
LINE
  5
2F0
330
17
100
AcDbEntity
  8
0
100
AcDbLine
 10
538.4428944454703
 20
690.8842819952621
 30
0.0
 11
540.4700097685723
 21
690.6917054409032
 31
0.0
  0
LINE
  5
2F1
330
17
100
AcDbEntity
  8
0
100
AcDbLine
 10
540.4700097685723
 20
690.6917054409032
 30
0.0
 11
542.5004419546718
 21
690.537993372102
 31
0.0
  0
LINE
  5
2F2
330
17
100
AcDbEntity
  8
0
100
AcDbLine
 10
542.5004419546718
 20
690.537993372102
 30
0.0
 11
544.5334459506144
 21
690.4232021924461
 31
0.0
  0
LINE
  5
2F3
330
17
100
AcDbEntity
  8
0
100
AcDbLine
 10
544.5334459506144
 20
690.4232021924461
 30
0.0
 11
546.5682757595368
 21
690.3473740237739
 31
0.0
  0
LINE
  5
2F4
330
17
100
AcDbEntity
  8
0
100
AcDbLine
 10
546.5682757595368
 20
690.3473740237739
 30
0.0
 11
548.6041847146074
 21
690.3105366907095
 31
0.0
  0
LINE
  5
2F5
330
17
100
AcDbEntity
  8
0
100
AcDbLine
 10
548.6041847146074
 20
690.3105366907095
 30
0.0
 11
550.6404257530087
 21
690.3127037104605
 31
0.0
  0
LINE
  5
2F6
330
17
100
AcDbEntity
  8
0
100
AcDbLine
 10
550.6404257530087
 20
690.3127037104605
 30
0.0
 11
552.6762516900676
 21
690.3538742878507
 31
0.0
  0
LINE
  5
2F7
330
17
100
AcDbEntity
  8
0
100
AcDbLine
 10
552.6762516900676
 20
690.3538742878507
 30
0.0
 11
554.7109154934294
 21
690.4340333156238
 31
0.0
  0
LINE
  5
2F8
330
17
100
AcDbEntity
  8
0
100
AcDbLine
 10
554.7109154934294
 20
690.4340333156238
 30
0.0
 11
556.7436705571764
 21
690.5531513799726
 31
0.0
  0
LINE
  5
2F9
330
17
100
AcDbEntity
  8
0
100
AcDbLine
 10
556.7436705571764
 20
690.5531513799726
 30
0.0
 11
558.7737709757907
 21
690.71118477134
 31
0.0
  0
LINE
  5
2FA
330
17
100
AcDbEntity
  8
0
100
AcDbLine
 10
558.7737709757906
 20
690.7111847713411
 30
0.0
 11
557.4066605170075
 21
690.571515148517
 31
0.0
  0
LINE
  5
2FB
330
17
100
AcDbEntity
  8
0
100
AcDbLine
 10
557.4066605170075
 20
690.571515148517
 30
0.0
 11
556.0441906658888
 21
690.392142589729
 31
0.0
  0
LINE
  5
2FC
330
17
100
AcDbEntity
  8
0
100
AcDbLine
 10
556.0441906658888
 20
690.392142589729
 30
0.0
 11
554.6875142079509
 21
690.1732188620729
 31
0.0
  0
LINE
  5
2FD
330
17
100
AcDbEntity
  8
0
100
AcDbLine
 10
554.6875142079509
 20
690.1732188620729
 30
0.0
 11
553.3377790269219
 21
689.914929196877
 31
0.0
  0
LINE
  5
2FE
330
17
100
AcDbEntity
  8
0
100
AcDbLine
 10
553.3377790269219
 20
689.914929196877
 30
0.0
 11
551.9961271335172
 21
689.617492132984
 31
0.0
  0
LINE
  5
2FF
330
17
100
AcDbEntity
  8
0
100
AcDbLine
 10
551.9961271335172
 20
689.617492132984
 30
0.0
 11
550.6636936991824
 21
689.2811593318465
 31
0.0
  0
LINE
  5
300
330
17
100
AcDbEntity
  8
0
100
AcDbLine
 10
550.6636936991824
 20
689.2811593318465
 30
0.0
 11
549.3416060956283
 21
688.9062153645898
 31
0.0
  0
LINE
  5
301
330
17
100
AcDbEntity
  8
0
100
AcDbLine
 10
549.3416060956283
 20
688.9062153645898
 30
0.0
 11
548.030982940958
 21
688.4929774712457
 31
0.0
  0
LINE
  5
302
330
17
100
AcDbEntity
  8
0
100
AcDbLine
 10
548.030982940958
 20
688.4929774712457
 30
0.0
 11
546.7329331532072
 21
688.0417952923267
 31
0.0
  0
LINE
  5
303
330
17
100
AcDbEntity
  8
0
100
AcDbLine
 10
546.7329331532072
 20
688.0417952923267
 30
0.0
 11
545.4485550120884
 21
687.5530505730001
 31
0.0
  0
LINE
  5
304
330
17
100
AcDbEntity
  8
0
100
AcDbLine
 10
545.4485550120884
 20
687.5530505730001
 30
0.0
 11
544.1789352297353
 21
687.0271568400926
 31
0.0
  0
LINE
  5
305
330
17
100
AcDbEntity
  8
0
100
AcDbLine
 10
544.1789352297353
 20
687.0271568400926
 30
0.0
 11
542.9251480312373
 21
686.4645590522048
 31
0.0
  0
LINE
  5
306
330
17
100
AcDbEntity
  8
0
100
AcDbLine
 10
542.9251480312373
 20
686.4645590522048
 30
0.0
 11
541.6882542457366
 21
685.8657332232322
 31
0.0
  0
LINE
  5
307
330
17
100
AcDbEntity
  8
0
100
AcDbLine
 10
541.6882542457366
 20
685.8657332232322
 30
0.0
 11
540.4693004088621
 21
685.2311860196115
 31
0.0
  0
LINE
  5
308
330
17
100
AcDbEntity
  8
0
100
AcDbLine
 10
540.4693004088621
 20
685.2311860196115
 30
0.0
 11
539.2693178772546
 21
684.5614543316269
 31
0.0
  0
LINE
  5
309
330
17
100
AcDbEntity
  8
0
100
AcDbLine
 10
539.2693178772546
 20
684.5614543316269
 30
0.0
 11
538.0893219559368
 21
683.8571048191491
 31
0.0
  0
LINE
  5
30A
330
17
100
AcDbEntity
  8
0
100
AcDbLine
 10
538.0893219559368
 20
683.8571048191491
 30
0.0
 11
536.9303110392638
 21
683.1187334321855
 31
0.0
  0
LINE
  5
30B
330
17
100
AcDbEntity
  8
0
100
AcDbLine
 10
536.9303110392638
 20
683.1187334321855
 30
0.0
 11
535.7932657661815
 21
682.3469649066458
 31
0.0
  0
LINE
  5
30C
330
17
100
AcDbEntity
  8
0
100
AcDbLine
 10
535.7932657661815
 20
682.3469649066458
 30
0.0
 11
534.679148190509
 21
681.5424522357491
 31
0.0
  0
LINE
  5
30D
330
17
100
AcDbEntity
  8
0
100
AcDbLine
 10
534.679148190509
 20
681.5424522357491
 30
0.0
 11
533.5889009669429
 21
680.7058761175397
 31
0.0
  0
LINE
  5
30E
330
17
100
AcDbEntity
  8
0
100
AcDbLine
 10
533.5889009669429
 20
680.7058761175397
 30
0.0
 11
532.5234465534811
 21
679.8379443789274
 31
0.0
  0
LINE
  5
30F
330
17
100
AcDbEntity
  8
0
100
AcDbLine
 10
532.5234465534811
 20
679.8379443789274
 30
0.0
 11
531.4836864309268
 21
678.9393913768181
 31
0.0
  0
LINE
  5
310
330
17
100
AcDbEntity
  8
0
100
AcDbLine
 10
531.4836864309268
 20
678.9393913768181
 30
0.0
 11
530.470500340149
 21
678.0109773767581
 31
0.0
  0
LINE
  5
311
330
17
100
AcDbEntity
  8
0
100
AcDbLine
 10
530.470500340149
 20
678.0109773767581
 30
0.0
 11
529.4847455377326
 21
677.0534879096795
 31
0.0
  0
LINE
  5
312
330
17
100
AcDbEntity
  8
0
100
AcDbLine
 10
529.4847455377326
 20
677.0534879096795
 30
0.0
 11
528.527256070654
 21
676.0677331072619
 31
0.0
  0
LINE
  5
313
330
17
100
AcDbEntity
  8
0
100
AcDbLine
 10
528.527256070654
 20
676.0677331072619
 30
0.0
 11
527.5988420705932
 21
675.0545470164852
 31
0.0
  0
LINE
  5
314
330
17
100
AcDbEntity
  8
0
100
AcDbLine
 10
527.5988420705932
 20
675.0545470164852
 30
0.0
 11
526.7002890684839
 21
674.0147868939312
 31
0.0
  0
ENDSEC
  0
SECTION
  2
OBJECTS
  0
DICTIONARY
  5
A
330
0
100
AcDbDictionary
281
1
  3
ACAD_COLOR
350
B
  3
ACAD_GROUP
350
C
  3
ACAD_LAYOUT
350
D
  3
ACAD_MATERIAL
350
E
  3
ACAD_MLEADERSTYLE
350
F
  3
ACAD_MLINESTYLE
350
10
  3
ACAD_PLOTSETTINGS
350
11
  3
ACAD_PLOTSTYLENAME
350
12
  3
ACAD_SCALELIST
350
14
  3
ACAD_TABLESTYLE
350
15
  3
ACAD_VISUALSTYLE
350
16
  3
EZDXF_META
350
2D
  0
DICTIONARY
  5
B
330
A
100
AcDbDictionary
281
1
  0
DICTIONARY
  5
C
330
A
100
AcDbDictionary
281
1
  0
DICTIONARY
  5
D
330
A
100
AcDbDictionary
281
1
  3
Model
350
1A
  3
Layout1
350
1E
  0
DICTIONARY
  5
E
330
A
100
AcDbDictionary
281
1
  3
ByBlock
350
1F
  3
ByLayer
350
20
  3
Global
350
21
  0
DICTIONARY
  5
F
330
A
100
AcDbDictionary
281
1
  3
Standard
350
2C
  0
DICTIONARY
  5
10
330
A
100
AcDbDictionary
281
1
  3
Standard
350
22
  0
DICTIONARY
  5
11
330
A
100
AcDbDictionary
281
1
  0
ACDBDICTIONARYWDFLT
  5
12
330
A
100
AcDbDictionary
281
1
  3
Normal
350
13
100
AcDbDictionaryWithDefault
340
13
  0
ACDBPLACEHOLDER
  5
13
330
12
  0
DICTIONARY
  5
14
330
A
100
AcDbDictionary
281
1
  0
DICTIONARY
  5
15
330
A
100
AcDbDictionary
281
1
  0
DICTIONARY
  5
16
330
A
100
AcDbDictionary
281
1
  0
LAYOUT
  5
1A
330
D
100
AcDbPlotSettings
  1

  4
A3
  6

 40
7.5
 41
20.0
 42
7.5
 43
20.0
 44
420.0
 45
297.0
 46
0.0
 47
0.0
 48
0.0
 49
0.0
140
0.0
141
0.0
142
1.0
143
1.0
 70
1024
 72
1
 73
0
 74
5
  7

 75
16
 76
0
 77
2
 78
300
147
1.0
148
0.0
149
0.0
100
AcDbLayout
  1
Model
 70
1
 71
0
 10
0.0
 20
0.0
 11
420.0
 21
297.0
 12
0.0
 22
0.0
 32
0.0
 14
1e+20
 24
1e+20
 34
1e+20
 15
-1e+20
 25
-1e+20
 35
-1e+20
146
0.0
 13
0.0
 23
0.0
 33
0.0
 16
1.0
 26
0.0
 36
0.0
 17
0.0
 27
1.0
 37
0.0
 76
1
330
17
  0
LAYOUT
  5
1E
330
D
100
AcDbPlotSettings
  1

  4
A3
  6

 40
7.5
 41
20.0
 42
7.5
 43
20.0
 44
420.0
 45
297.0
 46
0.0
 47
0.0
 48
0.0
 49
0.0
140
0.0
141
0.0
142
1.0
143
1.0
 70
0
 72
1
 73
0
 74
5
  7

 75
16
 76
0
 77
2
 78
300
147
1.0
148
0.0
149
0.0
100
AcDbLayout
  1
Layout1
 70
1
 71
1
 10
0.0
 20
0.0
 11
420.0
 21
297.0
 12
0.0
 22
0.0
 32
0.0
 14
1e+20
 24
1e+20
 34
1e+20
 15
-1e+20
 25
-1e+20
 35
-1e+20
146
0.0
 13
0.0
 23
0.0
 33
0.0
 16
1.0
 26
0.0
 36
0.0
 17
0.0
 27
1.0
 37
0.0
 76
1
330
1B
  0
MATERIAL
  5
1F
102
{ACAD_REACTORS
330
E
102
}
330
E
100
AcDbMaterial
  1
ByBlock
  2

 70
0
 40
1.0
 71
1
 41
1.0
 91
-1023410177
 42
1.0
 72
1
  3

 73
1
 74
1
 75
1
 44
0.5
 73
0
 45
1.0
 46
1.0
 77
1
  4

 78
1
 79
1
170
1
 48
1.0
171
1
  6

172
1
173
1
174
1
140
1.0
141
1.0
175
1
  7

176
1
177
1
178
1
143
1.0
179
1
  8

270
1
271
1
272
1
145
1.0
146
1.0
273
1
  9

274
1
275
1
276
1
 42
1.0
 72
1
  3

 73
1
 74
1
 75
1
 94
63
  0
MATERIAL
  5
20
102
{ACAD_REACTORS
330
E
102
}
330
E
100
AcDbMaterial
  1
ByLayer
  2

 70
0
 40
1.0
 71
1
 41
1.0
 91
-1023410177
 42
1.0
 72
1
  3

 73
1
 74
1
 75
1
 44
0.5
 73
0
 45
1.0
 46
1.0
 77
1
  4

 78
1
 79
1
170
1
 48
1.0
171
1
  6

172
1
173
1
174
1
140
1.0
141
1.0
175
1
  7

176
1
177
1
178
1
143
1.0
179
1
  8

270
1
271
1
272
1
145
1.0
146
1.0
273
1
  9

274
1
275
1
276
1
 42
1.0
 72
1
  3

 73
1
 74
1
 75
1
 94
63
  0
MATERIAL
  5
21
102
{ACAD_REACTORS
330
E
102
}
330
E
100
AcDbMaterial
  1
Global
  2

 70
0
 40
1.0
 71
1
 41
1.0
 91
-1023410177
 42
1.0
 72
1
  3

 73
1
 74
1
 75
1
 44
0.5
 73
0
 45
1.0
 46
1.0
 77
1
  4

 78
1
 79
1
170
1
 48
1.0
171
1
  6

172
1
173
1
174
1
140
1.0
141
1.0
175
1
  7

176
1
177
1
178
1
143
1.0
179
1
  8

270
1
271
1
272
1
145
1.0
146
1.0
273
1
  9

274
1
275
1
276
1
 42
1.0
 72
1
  3

 73
1
 74
1
 75
1
 94
63
  0
MLINESTYLE
  5
22
102
{ACAD_REACTORS
330
10
102
}
330
10
100
AcDbMlineStyle
  2
Standard
 70
0
  3

 62
256
 51
90.0
 52
90.0
 71
2
 49
0.5
 62
256
  6
BYLAYER
 49
-0.5
 62
256
  6
BYLAYER
  0
MLEADERSTYLE
  5
2C
102
{ACAD_REACTORS
330
F
102
}
330
F
100
AcDbMLeaderStyle
179
2
170
2
171
1
172
0
 90
2
 40
0.0
 41
0.0
173
1
 91
-1056964608
 92
-2
290
1
 42
2.0
291
1
 43
8.0
  3
Standard
 44
4.0
300

342
29
174
1
175
1
176
0
178
1
 93
-1056964608
 45
4.0
292
0
297
0
 46
4.0
 94
-1056964608
 47
1.0
 49
1.0
140
1.0
294
1
141
0.0
177
0
142
1.0
295
0
296
0
143
3.75
271
0
272
9
273
9
  0
DICTIONARY
  5
2D
330
A
100
AcDbDictionary
280
1
281
1
  3
CREATED_BY_EZDXF
350
2E
  3
WRITTEN_BY_EZDXF
350
317
  0
DICTIONARYVAR
  5
2E
330
2D
100
DictionaryVariables
280
0
  1
1.4.3 @ 2026-04-16T08:38:01.761752+00:00
  0
DICTIONARYVAR
  5
317
330
2D
100
DictionaryVariables
280
0
  1
1.4.3 @ 2026-04-16T08:38:01.793896+00:00
  0
ENDSEC
  0
EOF
