  0
SECTION
  2
HEADER
  9
$ACADVER
  1
AC1032
  9
$ACADMAINTVER
 90
      378
  9
$DWGCODEPAGE
  3
ANSI_1251
  9
$AUTHOR
  1
Лена
  9
$LASTSAVEDBY
  1
Xhaver
  9
$REQUIREDVERSIONS
160
                 0
  9
$INSBASE
 10
0.0
 20
0.0
 30
0.0
  9
$EXTMIN
 10
1.998249981607841
 20
10.25021607924464
 30
-0.0000000116415251
  9
$EXTMAX
 10
27.24824942773603
 20
37.89021565754047
 30
-0.0000000116415251
  9
$LIMMIN
 10
-843.9793377148566
 20
-983.5319377148566
  9
$LIMMAX
 10
287.0243377148566
 20
147.4717377148565
  9
$ORTHOMODE
 70
     0
  9
$REGENMODE
 70
     1
  9
$FILLMODE
 70
     1
  9
$QTEXTMODE
 70
     0
  9
$MIRRTEXT
 70
     0
  9
$LTSCALE
 40
1.0
  9
$ATTMODE
 70
     1
  9
$TEXTSIZE
 40
0.28875
  9
$TRACEWID
 40
0.05
  9
$TEXTSTYLE
  7
Standard
  9
$CLAYER
  8
YOLO_TABLE
  9
$CELTYPE
  6
ByLayer
  9
$CECOLOR
 62
   256
  9
$CELTSCALE
 40
1.0
  9
$DISPSILH
 70
     0
  9
$DIMSCALE
 40
1.0
  9
$DIMASZ
 40
0.1
  9
$DIMEXO
 40
0.1
  9
$DIMDLI
 40
0.0
  9
$DIMRND
 40
0.0
  9
$DIMDLE
 40
0.0
  9
$DIMEXE
 40
0.1
  9
$DIMTP
 40
0.0
  9
$DIMTM
 40
0.0
  9
$DIMTXT
 40
0.2
  9
$DIMCEN
 40
0.09
  9
$DIMTSZ
 40
0.0
  9
$DIMTOL
 70
     0
  9
$DIMLIM
 70
     0
  9
$DIMTIH
 70
     0
  9
$DIMTOH
 70
     0
  9
$DIMSE1
 70
     0
  9
$DIMSE2
 70
     0
  9
$DIMTAD
 70
     1
  9
$DIMZIN
 70
    11
  9
$DIMBLK
  1
Oblique
  9
$DIMASO
 70
     1
  9
$DIMSHO
 70
     1
  9
$DIMPOST
  1

  9
$DIMAPOST
  1

  9
$DIMALT
 70
     0
  9
$DIMALTD
 70
     4
  9
$DIMALTF
 40
1.0
  9
$DIMLFAC
 40
1000.0
  9
$DIMTOFL
 70
     0
  9
$DIMTVP
 40
0.0
  9
$DIMTIX
 70
     0
  9
$DIMSOXD
 70
     0
  9
$DIMSAH
 70
     0
  9
$DIMBLK1
  1

  9
$DIMBLK2
  1

  9
$DIMSTYLE
  2
Standard
  9
$DIMCLRD
 70
     5
  9
$DIMCLRE
 70
     0
  9
$DIMCLRT
 70
     0
  9
$DIMTFAC
 40
1.0
  9
$DIMGAP
 40
0.1
  9
$DIMJUST
 70
     0
  9
$DIMSD1
 70
     0
  9
$DIMSD2
 70
     0
  9
$DIMTOLJ
 70
     0
  9
$DIMTZIN
 70
    11
  9
$DIMALTZ
 70
    15
  9
$DIMALTTZ
 70
    15
  9
$DIMUPT
 70
     0
  9
$DIMDEC
 70
     4
  9
$DIMTDEC
 70
     4
  9
$DIMALTU
 70
     2
  9
$DIMALTTD
 70
     4
  9
$DIMTXSTY
  7
Style-Arial
  9
$DIMAUNIT
 70
     0
  9
$DIMADEC
 70
     4
  9
$DIMALTRND
 40
0.0
  9
$DIMAZIN
 70
     3
  9
$DIMDSEP
 70
    46
  9
$DIMATFIT
 70
     3
  9
$DIMFRAC
 70
     0
  9
$DIMLDRBLK
  1
TerminatorOpen
  9
$DIMLUNIT
 70
     2
  9
$DIMLWD
 70
     0
  9
$DIMLWE
 70
    -2
  9
$DIMTMOVE
 70
     0
  9
$DIMFXL
 40
1.0
  9
$DIMFXLON
 70
     0
  9
$DIMJOGANG
 40
0.7853981633974483
  9
$DIMTFILL
 70
     0
  9
$DIMTFILLCLR
 70
     0
  9
$DIMARCSYM
 70
     0
  9
$DIMLTYPE
  6

  9
$DIMLTEX1
  6

  9
$DIMLTEX2
  6

  9
$DIMTXTDIRECTION
 70
     0
  9
$LUNITS
 70
     2
  9
$LUPREC
 70
     4
  9
$SKETCHINC
 40
0.1
  9
$FILLETRAD
 40
0.0
  9
$AUNITS
 70
     0
  9
$AUPREC
 70
     4
  9
$MENU
  1
.
  9
$ELEVATION
 40
0.0
  9
$PELEVATION
 40
0.0
  9
$THICKNESS
 40
0.0
  9
$LIMCHECK
 70
     0
  9
$CHAMFERA
 40
0.0
  9
$CHAMFERB
 40
0.0
  9
$CHAMFERC
 40
0.0
  9
$CHAMFERD
 40
0.0
  9
$SKPOLY
 70
     0
  9
$TDCREATE
 40
2454144.903020833
  9
$TDUCREATE
 40
2454144.778024017
  9
$TDUPDATE
 40
2461158.869571760
  9
$TDUUPDATE
 40
2461158.744571759
  9
$TDINDWG
 40
0.1644822685
  9
$TDUSRTIMER
 40
0.1644820833
  9
$USRTIMER
 70
     1
  9
$ANGBASE
 50
0.0
  9
$ANGDIR
 70
     0
  9
$PDMODE
 70
     0
  9
$PDSIZE
 40
0.0
  9
$PLINEWID
 40
0.0
  9
$SPLFRAME
 70
     0
  9
$SPLINETYPE
 70
     6
  9
$SPLINESEGS
 70
     8
  9
$HANDSEED
  5
3A5C0
  9
$SURFTAB1
 70
     6
  9
$SURFTAB2
 70
     6
  9
$SURFTYPE
 70
     6
  9
$SURFU
 70
     6
  9
$SURFV
 70
     6
  9
$UCSBASE
  2

  9
$UCSNAME
  2

  9
$UCSORG
 10
0.0
 20
0.0
 30
0.0
  9
$UCSXDIR
 10
1.0
 20
0.0
 30
0.0
  9
$UCSYDIR
 10
0.0
 20
1.0
 30
0.0
  9
$UCSORTHOREF
  2

  9
$UCSORTHOVIEW
 70
     0
  9
$UCSORGTOP
 10
0.0
 20
0.0
 30
0.0
  9
$UCSORGBOTTOM
 10
0.0
 20
0.0
 30
0.0
  9
$UCSORGLEFT
 10
0.0
 20
0.0
 30
0.0
  9
$UCSORGRIGHT
 10
0.0
 20
0.0
 30
0.0
  9
$UCSORGFRONT
 10
0.0
 20
0.0
 30
0.0
  9
$UCSORGBACK
 10
0.0
 20
0.0
 30
0.0
  9
$PUCSBASE
  2

  9
$PUCSNAME
  2

  9
$PUCSORG
 10
0.0
 20
0.0
 30
0.0
  9
$PUCSXDIR
 10
1.0
 20
0.0
 30
0.0
  9
$PUCSYDIR
 10
0.0
 20
1.0
 30
0.0
  9
$PUCSORTHOREF
  2

  9
$PUCSORTHOVIEW
 70
     0
  9
$PUCSORGTOP
 10
0.0
 20
0.0
 30
0.0
  9
$PUCSORGBOTTOM
 10
0.0
 20
0.0
 30
0.0
  9
$PUCSORGLEFT
 10
0.0
 20
0.0
 30
0.0
  9
$PUCSORGRIGHT
 10
0.0
 20
0.0
 30
0.0
  9
$PUCSORGFRONT
 10
0.0
 20
0.0
 30
0.0
  9
$PUCSORGBACK
 10
0.0
 20
0.0
 30
0.0
  9
$USERI1
 70
     0
  9
$USERI2
 70
     0
  9
$USERI3
 70
     0
  9
$USERI4
 70
     0
  9
$USERI5
 70
     0
  9
$USERR1
 40
0.0
  9
$USERR2
 40
0.0
  9
$USERR3
 40
0.0
  9
$USERR4
 40
0.0
  9
$USERR5
 40
0.0
  9
$WORLDVIEW
 70
     1
  9
$SHADEDGE
 70
     3
  9
$SHADEDIF
 70
    70
  9
$TILEMODE
 70
     1
  9
$MAXACTVP
 70
    64
  9
$PINSBASE
 10
0.0
 20
0.0
 30
0.0
  9
$PLIMCHECK
 70
     0
  9
$PEXTMIN
 10
1.049743681505489
 20
0.7996673802841308
 30
-0.0015258207003583
  9
$PEXTMAX
 10
9.450622583565561
 20
7.200576801086516
 30
0.0000000349246037
  9
$PLIMMIN
 10
-0.2500002402958907
 20
-0.2499999962453767
  9
$PLIMMAX
 10
10.74999951940821
 20
8.249999763458731
  9
$UNITMODE
 70
     0
  9
$VISRETAIN
 70
     1
  9
$PLINEGEN
 70
     0
  9
$PSLTSCALE
 70
     0
  9
$TREEDEPTH
 70
  3020
  9
$CMLSTYLE
  2
Standard
  9
$CMLJUST
 70
     0
  9
$CMLSCALE
 40
1.0
  9
$PROXYGRAPHICS
 70
     1
  9
$MEASUREMENT
 70
     0
  9
$CELWEIGHT
370
    -1
  9
$ENDCAPS
280
     0
  9
$JOINSTYLE
280
     0
  9
$LWDISPLAY
290
     1
  9
$INSUNITS
 70
     6
  9
$HYPERLINKBASE
  1

  9
$STYLESHEET
  1

  9
$XEDIT
290
     1
  9
$CEPSNTYPE
380
     0
  9
$PSTYLEMODE
290
     1
  9
$FINGERPRINTGUID
  2
{C5C3DE74-F598-4D35-B1B6-D4042CE56364}
  9
$VERSIONGUID
  2
{7B81150C-59D3-554D-8BB0-5E752AEB058C}
  9
$EXTNAMES
290
     1
  9
$PSVPSCALE
 40
0.0
  9
$OLESTARTUP
290
     0
  9
$SORTENTS
280
   127
  9
$INDEXCTL
280
     0
  9
$HIDETEXT
280
     1
  9
$XCLIPFRAME
280
     0
  9
$HALOGAP
280
     0
  9
$OBSCOLOR
 70
   257
  9
$OBSLTYPE
280
     0
  9
$INTERSECTIONDISPLAY
280
     0
  9
$INTERSECTIONCOLOR
 70
   257
  9
$DIMASSOC
280
     2
  9
$PROJECTNAME
  1

  9
$CAMERADISPLAY
290
     0
  9
$LENSLENGTH
 40
50.0
  9
$CAMERAHEIGHT
 40
0.0
  9
$STEPSPERSEC
 40
2.0
  9
$STEPSIZE
 40
6.0
  9
$3DDWFPREC
 40
2.0
  9
$PSOLWIDTH
 40
0.25
  9
$PSOLHEIGHT
 40
4.0
  9
$LOFTANG1
 40
1.570796326794896
  9
$LOFTANG2
 40
1.570796326794896
  9
$LOFTMAG1
 40
0.0
  9
$LOFTMAG2
 40
0.0
  9
$LOFTPARAM
 70
     7
  9
$LOFTNORMALS
280
     1
  9
$LATITUDE
 40
37.795
  9
$LONGITUDE
 40
-122.394
  9
$NORTHDIRECTION
 40
0.0
  9
$TIMEZONE
 70
 -8000
  9
$LIGHTGLYPHDISPLAY
280
     1
  9
$TILEMODELIGHTSYNCH
280
     1
  9
$CMATERIAL
347
39839
  9
$SOLIDHIST
280
     1
  9
$SHOWHIST
280
     1
  9
$DWFFRAME
280
     2
  9
$DGNFRAME
280
     0
  9
$REALWORLDSCALE
290
     1
  9
$INTERFERECOLOR
 62
     1
  9
$INTERFEREOBJVS
345
3984F
  9
$INTERFEREVPVS
346
39850
  9
$CSHADOW
280
     0
  9
$SHADOWPLANELOCATION
 40
0.0
  0
ENDSEC
  0
SECTION
  2
CLASSES
  0
CLASS
  1
ACDBDICTIONARYWDFLT
  2
AcDbDictionaryWithDefault
  3
ObjectDBX Classes
 90
        0
 91
        1
280
     0
281
     0
  0
CLASS
  1
DICTIONARYVAR
  2
AcDbDictionaryVar
  3
ObjectDBX Classes
 90
        0
 91
        9
280
     0
281
     0
  0
CLASS
  1
TABLESTYLE
  2
AcDbTableStyle
  3
ObjectDBX Classes
 90
     4095
 91
        1
280
     0
281
     0
  0
CLASS
  1
MATERIAL
  2
AcDbMaterial
  3
ObjectDBX Classes
 90
     1153
 91
        3
280
     0
281
     0
  0
CLASS
  1
VISUALSTYLE
  2
AcDbVisualStyle
  3
ObjectDBX Classes
 90
     4095
 91
       26
280
     0
281
     0
  0
CLASS
  1
SCALE
  2
AcDbScale
  3
ObjectDBX Classes
 90
     1153
 91
       33
280
     0
281
     0
  0
CLASS
  1
MLEADERSTYLE
  2
AcDbMLeaderStyle
  3
ACDB_MLEADERSTYLE_CLASS
 90
     4095
 91
        1
280
     0
281
     0
  0
CLASS
  1
SORTENTSTABLE
  2
AcDbSortentsTable
  3
ObjectDBX Classes
 90
        0
 91
        3
280
     0
281
     0
  0
CLASS
  1
DBCOLOR
  2
AcDbColor
  3
ObjectDBX Classes
 90
        0
 91
        1
280
     0
281
     0
  0
CLASS
  1
CELLSTYLEMAP
  2
AcDbCellStyleMap
  3
ObjectDBX Classes
 90
     1152
 91
        5
280
     0
281
     0
  0
CLASS
  1
ACDBSECTIONVIEWSTYLE
  2
AcDbSectionViewStyle
  3
ObjectDBX Classes
 90
     1025
 91
        1
280
     0
281
     0
  0
CLASS
  1
ACDBDETAILVIEWSTYLE
  2
AcDbDetailViewStyle
  3
ObjectDBX Classes
 90
     1025
 91
        1
280
     0
281
     0
  0
CLASS
  1
EXACXREFPANELOBJECT
  2
ExAcXREFPanelObject
  3
EXAC_ESW
 90
     1025
 91
        1
280
     0
281
     0
  0
CLASS
  1
NPOCOLLECTION
  2
AcDbImpNonPersistentObjectsCollection
  3
ObjectDBX Classes
 90
     1153
 91
        1
280
     0
281
     0
  0
ENDSEC
  0
SECTION
  2
TABLES
  0
TABLE
  2
VPORT
  5
3982D
330
0
100
AcDbSymbolTable
 70
     1
  0
VPORT
  5
4B
330
3982D
100
AcDbSymbolTableRecord
100
AcDbViewportTableRecord
  2
*ACTIVE
 70
     0
 10
0.0
 20
0.0
 11
1.0
 21
1.0
 12
14.62324970467193
 22
24.07021586839255
 13
0.0
 23
0.0
 14
0.1
 24
0.1
 15
0.1
 25
0.1
 16
0.0
 26
0.0
 36
1.0
 17
0.0
 27
0.0
 37
0.0
 40
27.78186441787648
 41
1.663527397260273
 42
50.0
 43
0.0
 44
0.0
 50
0.0
 51
0.0
 71
     0
 72
   100
 73
     1
 74
     0
 75
     0
 76
     1
 77
     0
 78
     1
281
     0
 65
     1
110
0.0
120
0.0
130
0.0
111
1.0
121
0.0
131
0.0
112
0.0
122
1.0
132
0.0
 79
     0
146
0.0
348
3982F
 60
     3
 61
    10
292
     1
282
     1
141
0.0
142
0.0
 63
   250
421
  3355443
1001
ACAD_NAV_VCDISPLAY
1070
     3
  0
ENDTAB
  0
TABLE
  2
LTYPE
  5
39828
330
0
100
AcDbSymbolTable
 70
     4
  0
LTYPE
  5
39829
330
39828
100
AcDbSymbolTableRecord
100
AcDbLinetypeTableRecord
  2
ByBlock
 70
     0
  3

 72
    65
 73
     0
 40
0.0
  0
LTYPE
  5
3982A
330
39828
100
AcDbSymbolTableRecord
100
AcDbLinetypeTableRecord
  2
ByLayer
 70
     0
  3

 72
    65
 73
     0
 40
0.0
  0
LTYPE
  5
39817
330
39828
100
AcDbSymbolTableRecord
100
AcDbLinetypeTableRecord
  2
Continuous
 70
     0
  3
Solid line
 72
    65
 73
     0
 40
0.0
  0
LTYPE
  5
398B0
330
39828
100
AcDbSymbolTableRecord
100
AcDbLinetypeTableRecord
  2
DGN Style 3
 70
     0
  3
Dgn Style 3
 72
    65
 73
     2
 40
2.640572271247373
 49
1.88612305089098
 74
     0
 49
-0.7544492203563924
 74
     0
  0
ENDTAB
  0
TABLE
  2
LAYER
  5
39822
102
{ACAD_XDICTIONARY
360
39823
102
}
330
0
100
AcDbSymbolTable
 70
    38
  0
LAYER
  5
3980A
102
{ACAD_XDICTIONARY
360
3A444
102
}
330
39822
100
AcDbSymbolTableRecord
100
AcDbLayerTableRecord
  2
0
 70
     0
 62
     7
  6
Continuous
370
    -3
390
3980B
347
3980E
348
0
  0
LAYER
  5
359D6
330
39822
100
AcDbSymbolTableRecord
100
AcDbLayerTableRecord
  2
DEFPOINTS
 70
     0
 62
     7
  6
Continuous
290
     0
370
     0
390
3980B
347
3980E
348
0
1001
AcAecLayerStandard
1000

1000
DEFPOINTS
  0
LAYER
  5
3A490
330
39822
100
AcDbSymbolTableRecord
100
AcDbLayerTableRecord
  2
YOLO_TABLE
 70
     0
 62
     1
  6
Continuous
370
    -3
390
3980B
347
3980E
348
0
1001
AcAecLayerStandard
1000

1000

1001
AcCmTransparency
1071
 33554687
  0
ENDTAB
  0
TABLE
  2
STYLE
  5
39825
330
0
100
AcDbSymbolTable
 70
     7
  0
STYLE
  5
39826
330
39825
100
AcDbSymbolTableRecord
100
AcDbTextStyleTableRecord
  2
Standard
 70
     0
 40
0.0
 41
1.0
 50
0.0
 71
     0
 42
0.28875
  3
txt.shx
  4

  0
STYLE
  5
7FC9
330
39825
100
AcDbSymbolTableRecord
100
AcDbTextStyleTableRecord
  2
Style-Arial
 70
     0
 40
0.0
 41
1.0
 50
0.0
 71
     0
 42
0.2
  3
arial.ttf
  4

1001
ACAD
1000
Arial
1071
    52263
  0
ENDTAB
  0
TABLE
  2
VIEW
  5
3982B
330
0
100
AcDbSymbolTable
 70
    13
  0
ENDTAB
  0
TABLE
  2
UCS
  5
3982C
330
0
100
AcDbSymbolTable
 70
     0
  0
ENDTAB
  0
TABLE
  2
APPID
  5
39831
330
0
100
AcDbSymbolTable
 70
    10
  0
APPID
  5
39832
330
39831
100
AcDbSymbolTableRecord
100
AcDbRegAppTableRecord
  2
ACAD
 70
     0
  0
APPID
  5
39821
330
39831
100
AcDbSymbolTableRecord
100
AcDbRegAppTableRecord
  2
ACAD_PSEXT
 70
     0
  0
APPID
  5
39874
330
39831
100
AcDbSymbolTableRecord
100
AcDbRegAppTableRecord
  2
AcAecLayerStandard
 70
     0
  0
APPID
  5
7C4
330
39831
100
AcDbSymbolTableRecord
100
AcDbRegAppTableRecord
  2
AcDbBlockRepETag
 70
     0
  0
APPID
  5
29269
330
39831
100
AcDbSymbolTableRecord
100
AcDbRegAppTableRecord
  2
GradientColor1ACI
 70
     0
  0
APPID
  5
2926A
330
39831
100
AcDbSymbolTableRecord
100
AcDbRegAppTableRecord
  2
GradientColor2ACI
 70
     0
  0
APPID
  5
39D3B
330
39831
100
AcDbSymbolTableRecord
100
AcDbRegAppTableRecord
  2
ACAD_MLEADERVER
 70
     0
  0
APPID
  5
3A488
330
39831
100
AcDbSymbolTableRecord
100
AcDbRegAppTableRecord
  2
ACAD_NAV_VCDISPLAY
 70
     0
  0
APPID
  5
3A493
330
39831
100
AcDbSymbolTableRecord
100
AcDbRegAppTableRecord
  2
AcCmTransparency
 70
     0
  0
APPID
  5
3A4A2
330
39831
100
AcDbSymbolTableRecord
100
AcDbRegAppTableRecord
  2
ACAD_EXEMPT_FROM_CAD_STANDARDS
 70
     0
  0
ENDTAB
  0
TABLE
  2
DIMSTYLE
  5
39833
330
0
100
AcDbSymbolTable
 70
     4
100
AcDbDimStyleTable
 71
     1
340
39834
  0
DIMSTYLE
105
39834
330
39833
100
AcDbSymbolTableRecord
100
AcDbDimStyleTableRecord
  2
Standard
 70
     0
 41
0.18
 42
0.0625
140
0.18
141
0.09
340
39826
  0
ENDTAB
  0
TABLE
  2
BLOCK_RECORD
  5
39807
330
0
100
AcDbSymbolTable
 70
    28
  0
BLOCK_RECORD
  5
39808
102
{ACAD_XDICTIONARY
360
39A90
102
}
330
39807
100
AcDbSymbolTableRecord
100
AcDbBlockTableRecord
  2
*Model_Space
340
39819
 70
     0
280
     1
281
     0
  0
BLOCK_RECORD
  5
3981B
330
39807
100
AcDbSymbolTableRecord
100
AcDbBlockTableRecord
  2
*Paper_Space
340
3981E
 70
     0
280
     1
281
     0
  0
BLOCK_RECORD
  5
39877
330
39807
100
AcDbSymbolTableRecord
100
AcDbBlockTableRecord
  2
_Oblique
340
0
 70
     0
280
     1
281
     0
  0
BLOCK_RECORD
  5
398A8
330
39807
100
AcDbSymbolTableRecord
100
AcDbBlockTableRecord
  2
TerminatorOpen
340
0
 70
     0
280
     1
281
     0
  0
ENDTAB
  0
ENDSEC
  0
SECTION
  2
BLOCKS
  0
BLOCK
  5
39809
330
39808
100
AcDbEntity
  8
0
100
AcDbBlockBegin
  2
*Model_Space
 70
     0
 10
0.0
 20
0.0
 30
0.0
  3
*Model_Space
  1

  0
ENDBLK
  5
39818
330
39808
100
AcDbEntity
  8
0
100
AcDbBlockEnd
  0
BLOCK
  5
3981C
330
3981B
100
AcDbEntity
 67
     1
  8
0
100
AcDbBlockBegin
  2
*Paper_Space
 70
     0
 10
0.0
 20
0.0
 30
0.0
  3
*Paper_Space
  1

  0
ENDBLK
  5
3981D
330
3981B
100
AcDbEntity
 67
     1
  8
0
100
AcDbBlockEnd
  0
BLOCK
  5
39879
330
39877
100
AcDbEntity
  8
0
100
AcDbBlockBegin
  2
_Oblique
 70
     0
 10
0.0
 20
0.0
 30
0.0
  3
_Oblique
  1

  0
LINE
  5
39878
330
39877
100
AcDbEntity
  8
0
  6
ByBlock
 62
     0
370
    -2
100
AcDbLine
 10
0.5
 20
0.5
 30
0.0
 11
-0.5
 21
-0.5
 31
0.0
  0
ENDBLK
  5
3987A
330
39877
100
AcDbEntity
  8
0
100
AcDbBlockEnd
  0
BLOCK
  5
398AC
330
398A8
100
AcDbEntity
  8
0
 62
     7
 48
0.8333333333333332
370
     0
100
AcDbBlockBegin
  2
TerminatorOpen
 70
     0
 10
0.0
 20
0.0
 30
0.0
  3
TerminatorOpen
  1

  0
LINE
  5
398A9
330
398A8
100
AcDbEntity
  8
0
  6
ByBlock
 62
     0
370
    -2
100
AcDbLine
 10
0.0
 20
0.0
 30
0.0
 11
-1.0
 21
0.0
 31
0.0
  0
LINE
  5
398AA
330
398A8
100
AcDbEntity
  8
0
  6
ByBlock
 62
     0
370
    -2
100
AcDbLine
 10
0.0
 20
0.0
 30
0.0
 11
-1.0
 21
0.5
 31
0.0
  0
LINE
  5
398AB
330
398A8
100
AcDbEntity
  8
0
  6
ByBlock
 62
     0
370
    -2
100
AcDbLine
 10
0.0
 20
0.0
 30
0.0
 11
-1.0
 21
-0.5
 31
0.0
  0
ENDBLK
  5
398AD
330
398A8
100
AcDbEntity
  8
0
 62
     7
 48
0.8333333333333332
370
     0
100
AcDbBlockEnd
  0
ENDSEC
  0
SECTION
  2
ENTITIES
  0
LINE
  5
3953F
330
39808
100
AcDbEntity
  8
0
  6
Continuous
 62
     7
370
    30
100
AcDbLine
 10
2.508250274041557
 20
35.58021681981035
 30
0.0
 11
3.373250274041623
 21
35.58021681981035
 31
0.0
  0
LINE
  5
39540
330
39808
100
AcDbEntity
  8
0
  6
Continuous
 62
     7
370
    30
100
AcDbLine
 10
1.998250274041623
 20
36.09021681981034
 30
0.0
 11
3.373250274041623
 21
36.09021681981034
 31
0.0
  0
LINE
  5
39541
330
39808
100
AcDbEntity
  8
0
  6
Continuous
 62
     7
370
    30
100
AcDbLine
 10
1.998250274041623
 20
36.09021681981034
 30
0.0
 11
1.998250274041623
 21
12.35021681981033
 31
0.0
  0
LINE
  5
39542
330
39808
100
AcDbEntity
  8
0
  6
Continuous
 62
     7
370
    30
100
AcDbLine
 10
2.508250274041557
 20
35.58021681981035
 30
0.0
 11
2.508250274041557
 21
29.48021681981032
 31
0.0
  0
LINE
  5
39543
330
39808
100
AcDbEntity
  8
0
  6
Continuous
 62
     7
370
    30
100
AcDbLine
 10
5.478250274041613
 20
35.58021681981035
 30
0.0
 11
5.478250274041613
 21
28.98021681981033
 31
0.0
  0
LINE
  5
39544
330
39808
100
AcDbEntity
  8
0
  6
Continuous
 62
     7
370
    30
100
AcDbLine
 10
2.508250274041557
 20
28.98021681981033
 30
0.0
 11
4.008250274041557
 21
28.98021681981033
 31
0.0
  0
LINE
  5
39545
330
39808
100
AcDbEntity
  8
0
  6
Continuous
 62
     7
370
    30
100
AcDbLine
 10
2.508250274041557
 20
29.48021681981032
 30
0.0
 11
4.008250274041557
 21
29.48021681981032
 31
0.0
  0
LINE
  5
39546
330
39808
100
AcDbEntity
  8
0
  6
Continuous
 62
     7
370
    30
100
AcDbLine
 10
4.008250274041557
 20
29.48021681981032
 30
0.0
 11
4.008250274041557
 21
28.98021681981033
 31
0.0
  0
LINE
  5
39547
330
39808
100
AcDbEntity
  8
0
  6
Continuous
 62
     7
370
    30
100
AcDbLine
 10
5.478250274041613
 20
28.98021681981033
 30
0.0
 11
6.018250274041577
 21
28.98021681981033
 31
0.0
  0
LINE
  5
39548
330
39808
100
AcDbEntity
  8
0
  6
Continuous
 62
     7
370
    30
100
AcDbLine
 10
7.018250274041577
 20
36.09021681981034
 30
0.0
 11
7.018250274041577
 21
35.58021681981035
 31
0.0
  0
LINE
  5
39549
330
39808
100
AcDbEntity
  8
0
  6
Continuous
 62
     7
370
    30
100
AcDbLine
 10
8.498250274041623
 20
36.09021681981034
 30
0.0
 11
8.498250274041623
 21
35.58021681981035
 31
0.0
  0
LINE
  5
3954A
330
39808
100
AcDbEntity
  8
0
  6
Continuous
 62
     7
370
    30
100
AcDbLine
 10
8.498250274041623
 20
36.09021681981034
 30
0.0
 11
18.00825027404156
 21
36.09021681981034
 31
0.0
  0
LINE
  5
3954B
330
39808
100
AcDbEntity
  8
0
  6
Continuous
 62
     7
370
    30
100
AcDbLine
 10
8.498250274041623
 20
35.58021681981035
 30
0.0
 11
15.21825027404162
 21
35.58021681981035
 31
0.0
  0
LINE
  5
3954C
330
39808
100
AcDbEntity
  8
0
  6
Continuous
 62
     7
370
    30
100
AcDbLine
 10
18.04147036383574
 20
29.86021681981043
 30
0.0
 11
26.73825027404161
 21
29.86021681981043
 31
0.0
  0
LINE
  5
3954D
330
39808
100
AcDbEntity
  8
0
  6
Continuous
 62
     7
370
    30
100
AcDbLine
 10
18.41243551921337
 20
30.37021681981031
 30
0.0
 11
27.24825027404162
 21
30.37021681981031
 31
0.0
  0
LINE
  5
3954E
330
39808
100
AcDbEntity
  8
0
  6
Continuous
 62
     7
370
    30
100
AcDbLine
 10
26.73825027404161
 20
29.86021681981043
 30
0.0
 11
26.73825027404161
 21
12.86021681981032
 31
0.0
  0
LINE
  5
3954F
330
39808
100
AcDbEntity
  8
0
  6
Continuous
 62
     7
370
    30
100
AcDbLine
 10
27.24825027404162
 20
30.37021681981031
 30
0.0
 11
27.24825027404162
 21
12.35021681981033
 31
0.0
  0
LINE
  5
39550
330
39808
100
AcDbEntity
  8
0
  6
Continuous
 62
     7
370
    30
100
AcDbLine
 10
2.508250274041557
 20
12.86021681981032
 30
0.0
 11
2.838250274041627
 21
12.86021681981032
 31
0.0
  0
LINE
  5
39551
330
39808
100
AcDbEntity
  8
0
  6
Continuous
 62
     7
370
    30
100
AcDbLine
 10
1.998250274041623
 20
12.35021681981033
 30
0.0
 11
2.838250274041627
 21
12.35021681981033
 31
0.0
  0
LINE
  5
39552
330
39808
100
AcDbEntity
  8
0
  6
Continuous
 62
     7
370
    30
100
AcDbLine
 10
15.21825027404162
 20
35.58021681981035
 30
0.0
 11
15.21825027404162
 21
34.96021681981034
 31
0.0
  0
LINE
  5
39553
330
39808
100
AcDbEntity
  8
0
  6
Continuous
 62
     7
370
    30
100
AcDbLine
 10
15.72825027404161
 20
35.71021681981034
 30
0.0
 11
15.72825027404161
 21
34.96021681981034
 31
0.0
  0
ARC
  5
39554
330
39808
100
AcDbEntity
  8
0
  6
Continuous
 62
     7
370
    30
100
AcDbCircle
 10
15.4937772482985
 20
29.22182223239355
 30
0.0
 40
2.626459186851971
100
AcDbArc
 50
14.06738150858824
 51
96.02165535563653
  0
ARC
  5
39555
330
39808
100
AcDbEntity
  8
0
  6
Continuous
 62
     7
370
    30
100
AcDbCircle
 10
15.4937772482985
 20
29.22182223239355
 30
0.0
 40
3.136459186851964
100
AcDbArc
 50
21.47798129887805
 51
85.71272609437668
  0
LINE
  5
39556
330
39808
100
AcDbEntity
  8
0
  6
Continuous
 62
     7
370
    30
100
AcDbLine
 10
15.72825027404161
 20
32.96021681981034
 30
0.0
 11
15.72825027404161
 21
32.34950486191122
 31
0.0
  0
LINE
  5
39557
330
39808
100
AcDbEntity
  8
0
  6
Continuous
 62
     7
370
    30
100
AcDbLine
 10
15.21825027404162
 20
32.96021681981034
 30
0.0
 11
15.21825027404162
 21
31.83378945015409
 31
0.0
  0
LINE
  5
39558
330
39808
100
AcDbEntity
  8
0
  6
Continuous
 62
     7
370
    30
100
AcDbLine
 10
15.72825027404161
 20
35.71021681981034
 30
0.0
 11
17.62825027404162
 21
35.71021681981034
 31
0.0
  0
LINE
  5
39559
330
39808
100
AcDbEntity
  8
0
  6
Continuous
 62
     7
370
    30
100
AcDbLine
 10
15.21825027404162
 20
34.96021681981034
 30
0.0
 11
15.72825027404161
 21
34.96021681981034
 31
0.0
  0
LINE
  5
3955A
330
39808
100
AcDbEntity
  8
0
  6
Continuous
 62
     7
370
    30
100
AcDbLine
 10
15.21825027404162
 20
32.96021681981034
 30
0.0
 11
15.72825027404161
 21
32.96021681981034
 31
0.0
  0
LINE
  5
3955B
330
39808
100
AcDbEntity
  8
0
  6
Continuous
 62
     7
370
    30
100
AcDbLine
 10
17.62825027404162
 20
35.71021681981034
 30
0.0
 11
17.62825027404162
 21
34.96021681981034
 31
0.0
  0
LINE
  5
3955C
330
39808
100
AcDbEntity
  8
0
  6
Continuous
 62
     7
370
    30
100
AcDbLine
 10
18.00825027404156
 20
36.09021681981034
 30
0.0
 11
18.00825027404156
 21
34.96021681981034
 31
0.0
  0
LINE
  5
3955D
330
39808
100
AcDbEntity
  8
0
  6
Continuous
 62
     7
370
    30
100
AcDbLine
 10
17.62825027404162
 20
34.96021681981034
 30
0.0
 11
18.00825027404156
 21
34.96021681981034
 31
0.0
  0
LINE
  5
3955E
330
39808
100
AcDbEntity
  8
0
  6
Continuous
 62
     7
370
    30
100
AcDbLine
 10
17.62825027404162
 20
32.96021681981034
 30
0.0
 11
18.00825027404156
 21
32.96021681981034
 31
0.0
  0
LINE
  5
3955F
330
39808
100
AcDbEntity
  8
0
  6
Continuous
 62
     7
370
    30
100
AcDbLine
 10
17.62825027404162
 20
32.96021681981034
 30
0.0
 11
17.62825027404162
 21
31.51995215325599
 31
0.0
  0
LINE
  5
39560
330
39808
100
AcDbEntity
  8
0
  6
Continuous
 62
     7
370
    30
100
AcDbLine
 10
18.00825027404156
 20
32.96021681981034
 30
0.0
 11
18.00825027404156
 21
31.09660265516266
 31
0.0
  0
LINE
  5
39564
330
39808
100
AcDbEntity
  8
0
  6
Continuous
 62
     7
370
    30
100
AcDbLine
 10
26.23825027404161
 20
12.86021681981032
 30
0.0
 11
26.23825027404161
 21
12.35021681981033
 31
0.0
  0
LINE
  5
39565
330
39808
100
AcDbEntity
  8
0
  6
Continuous
 62
     7
370
    30
100
AcDbLine
 10
24.7382502740416
 20
12.86021681981032
 30
0.0
 11
24.7382502740416
 21
12.35021681981033
 31
0.0
  0
LINE
  5
39566
330
39808
100
AcDbEntity
  8
0
  6
Continuous
 62
     7
370
    30
100
AcDbLine
 10
23.7382502740416
 20
12.86021681981032
 30
0.0
 11
23.7382502740416
 21
12.35021681981033
 31
0.0
  0
LINE
  5
39567
330
39808
100
AcDbEntity
  8
0
  6
Continuous
 62
     7
370
    30
100
AcDbLine
 10
22.2382502740416
 20
12.86021681981032
 30
0.0
 11
22.2382502740416
 21
12.35021681981033
 31
0.0
  0
LINE
  5
39568
330
39808
100
AcDbEntity
  8
0
  6
Continuous
 62
     7
370
    30
100
AcDbLine
 10
21.2382502740416
 20
12.86021681981032
 30
0.0
 11
21.2382502740416
 21
12.35021681981033
 31
0.0
  0
LINE
  5
39569
330
39808
100
AcDbEntity
  8
0
  6
Continuous
 62
     7
370
    30
100
AcDbLine
 10
19.7382502740416
 20
12.86021681981032
 30
0.0
 11
19.7382502740416
 21
12.35021681981033
 31
0.0
  0
LINE
  5
3956A
330
39808
100
AcDbEntity
  8
0
  6
Continuous
 62
     7
370
    30
100
AcDbLine
 10
18.7382502740416
 20
12.86021681981032
 30
0.0
 11
18.7382502740416
 21
12.35021681981033
 31
0.0
  0
LINE
  5
3956B
330
39808
100
AcDbEntity
  8
0
  6
Continuous
 62
     7
370
    30
100
AcDbLine
 10
17.2382502740416
 20
12.86021681981032
 30
0.0
 11
17.2382502740416
 21
12.35021681981033
 31
0.0
  0
LINE
  5
3956C
330
39808
100
AcDbEntity
  8
0
  6
Continuous
 62
     7
370
    30
100
AcDbLine
 10
16.2382502740416
 20
12.86021681981032
 30
0.0
 11
16.2382502740416
 21
12.35021681981033
 31
0.0
  0
LINE
  5
3956D
330
39808
100
AcDbEntity
  8
0
  6
Continuous
 62
     7
370
    30
100
AcDbLine
 10
14.7382502740416
 20
12.86021681981032
 30
0.0
 11
14.7382502740416
 21
12.35021681981033
 31
0.0
  0
LINE
  5
3956E
330
39808
100
AcDbEntity
  8
0
  6
Continuous
 62
     7
370
    30
100
AcDbLine
 10
13.7382502740416
 20
12.86021681981032
 30
0.0
 11
13.7382502740416
 21
12.35021681981033
 31
0.0
  0
LINE
  5
3956F
330
39808
100
AcDbEntity
  8
0
  6
Continuous
 62
     7
370
    30
100
AcDbLine
 10
12.2382502740416
 20
12.86021681981032
 30
0.0
 11
12.2382502740416
 21
12.35021681981033
 31
0.0
  0
LINE
  5
39570
330
39808
100
AcDbEntity
  8
0
  6
Continuous
 62
     7
370
    30
100
AcDbLine
 10
11.2382502740416
 20
12.86021681981032
 30
0.0
 11
11.2382502740416
 21
12.35021681981033
 31
0.0
  0
LINE
  5
39571
330
39808
100
AcDbEntity
  8
0
  6
Continuous
 62
     7
370
    30
100
AcDbLine
 10
9.738250274041604
 20
12.86021681981032
 30
0.0
 11
9.738250274041604
 21
12.35021681981033
 31
0.0
  0
LINE
  5
39572
330
39808
100
AcDbEntity
  8
0
  6
Continuous
 62
     7
370
    30
100
AcDbLine
 10
8.738250274041604
 20
12.86021681981032
 30
0.0
 11
8.738250274041604
 21
12.35021681981033
 31
0.0
  0
LINE
  5
39573
330
39808
100
AcDbEntity
  8
0
  6
Continuous
 62
     7
370
    30
100
AcDbLine
 10
5.338250274041627
 20
12.86021681981032
 30
0.0
 11
5.338250274041627
 21
12.35021681981033
 31
0.0
  0
LINE
  5
39574
330
39808
100
AcDbEntity
  8
0
  6
Continuous
 62
     7
370
    30
100
AcDbLine
 10
4.338250274041627
 20
12.86021681981032
 30
0.0
 11
4.338250274041627
 21
12.35021681981033
 31
0.0
  0
LINE
  5
39575
330
39808
100
AcDbEntity
  8
0
  6
Continuous
 62
     7
370
    30
100
AcDbLine
 10
2.838250274041627
 20
12.86021681981032
 30
0.0
 11
2.838250274041627
 21
12.35021681981033
 31
0.0
  0
LINE
  5
39576
330
39808
100
AcDbEntity
  8
0
  6
Continuous
 62
     7
370
    30
100
AcDbLine
 10
26.23825027404161
 20
12.86021681981032
 30
0.0
 11
26.73825027404161
 21
12.86021681981032
 31
0.0
  0
LINE
  5
39577
330
39808
100
AcDbEntity
  8
0
  6
Continuous
 62
     7
370
    30
100
AcDbLine
 10
26.23825027404161
 20
12.35021681981033
 30
0.0
 11
27.24825027404162
 21
12.35021681981033
 31
0.0
  0
LINE
  5
39578
330
39808
100
AcDbEntity
  8
0
  6
Continuous
 62
     7
370
    30
100
AcDbLine
 10
23.7382502740416
 20
12.86021681981032
 30
0.0
 11
24.7382502740416
 21
12.86021681981032
 31
0.0
  0
LINE
  5
39579
330
39808
100
AcDbEntity
  8
0
  6
Continuous
 62
     7
370
    30
100
AcDbLine
 10
23.7382502740416
 20
12.35021681981033
 30
0.0
 11
24.7382502740416
 21
12.35021681981033
 31
0.0
  0
LINE
  5
3957A
330
39808
100
AcDbEntity
  8
0
  6
Continuous
 62
     7
370
    30
100
AcDbLine
 10
21.2382502740416
 20
12.86021681981032
 30
0.0
 11
22.2382502740416
 21
12.86021681981032
 31
0.0
  0
LINE
  5
3957B
330
39808
100
AcDbEntity
  8
0
  6
Continuous
 62
     7
370
    30
100
AcDbLine
 10
21.2382502740416
 20
12.35021681981033
 30
0.0
 11
22.2382502740416
 21
12.35021681981033
 31
0.0
  0
LINE
  5
3957C
330
39808
100
AcDbEntity
  8
0
  6
Continuous
 62
     7
370
    30
100
AcDbLine
 10
18.7382502740416
 20
12.86021681981032
 30
0.0
 11
19.7382502740416
 21
12.86021681981032
 31
0.0
  0
LINE
  5
3957D
330
39808
100
AcDbEntity
  8
0
  6
Continuous
 62
     7
370
    30
100
AcDbLine
 10
18.7382502740416
 20
12.35021681981033
 30
0.0
 11
19.7382502740416
 21
12.35021681981033
 31
0.0
  0
LINE
  5
3957E
330
39808
100
AcDbEntity
  8
0
  6
Continuous
 62
     7
370
    30
100
AcDbLine
 10
16.2382502740416
 20
12.86021681981032
 30
0.0
 11
17.2382502740416
 21
12.86021681981032
 31
0.0
  0
LINE
  5
3957F
330
39808
100
AcDbEntity
  8
0
  6
Continuous
 62
     7
370
    30
100
AcDbLine
 10
16.2382502740416
 20
12.35021681981033
 30
0.0
 11
17.2382502740416
 21
12.35021681981033
 31
0.0
  0
LINE
  5
39580
330
39808
100
AcDbEntity
  8
0
  6
Continuous
 62
     7
370
    30
100
AcDbLine
 10
13.7382502740416
 20
12.86021681981032
 30
0.0
 11
14.7382502740416
 21
12.86021681981032
 31
0.0
  0
LINE
  5
39581
330
39808
100
AcDbEntity
  8
0
  6
Continuous
 62
     7
370
    30
100
AcDbLine
 10
13.7382502740416
 20
12.35021681981033
 30
0.0
 11
14.7382502740416
 21
12.35021681981033
 31
0.0
  0
LINE
  5
39582
330
39808
100
AcDbEntity
  8
0
  6
Continuous
 62
     7
370
    30
100
AcDbLine
 10
11.2382502740416
 20
12.86021681981032
 30
0.0
 11
12.2382502740416
 21
12.86021681981032
 31
0.0
  0
LINE
  5
39583
330
39808
100
AcDbEntity
  8
0
  6
Continuous
 62
     7
370
    30
100
AcDbLine
 10
11.2382502740416
 20
12.35021681981033
 30
0.0
 11
12.2382502740416
 21
12.35021681981033
 31
0.0
  0
LINE
  5
39584
330
39808
100
AcDbEntity
  8
0
  6
Continuous
 62
     7
370
    30
100
AcDbLine
 10
8.738250274041604
 20
12.86021681981032
 30
0.0
 11
9.738250274041604
 21
12.86021681981032
 31
0.0
  0
LINE
  5
39585
330
39808
100
AcDbEntity
  8
0
  6
Continuous
 62
     7
370
    30
100
AcDbLine
 10
8.738250274041604
 20
12.35021681981033
 30
0.0
 11
9.738250274041604
 21
12.35021681981033
 31
0.0
  0
LINE
  5
39586
330
39808
100
AcDbEntity
  8
0
  6
Continuous
 62
     7
370
    30
100
AcDbLine
 10
4.338250274041627
 20
12.86021681981032
 30
0.0
 11
5.338250274041627
 21
12.86021681981032
 31
0.0
  0
LINE
  5
39587
330
39808
100
AcDbEntity
  8
0
  6
Continuous
 62
     7
370
    30
100
AcDbLine
 10
4.338250274041627
 20
12.35021681981033
 30
0.0
 11
5.338250274041627
 21
12.35021681981033
 31
0.0
  0
LINE
  5
39588
330
39808
100
AcDbEntity
  8
0
  6
Continuous
 62
     7
370
    13
100
AcDbLine
 10
26.23825027404161
 20
12.86021681981032
 30
0.0
 11
24.7382502740416
 21
12.86021681981032
 31
0.0
  0
LINE
  5
39589
330
39808
100
AcDbEntity
  8
0
  6
Continuous
 62
     7
370
    13
100
AcDbLine
 10
24.7382502740416
 20
12.35021681981033
 30
0.0
 11
26.23825027404161
 21
12.35021681981033
 31
0.0
  0
LINE
  5
3958A
330
39808
100
AcDbEntity
  8
0
  6
Continuous
 62
     7
370
     0
100
AcDbLine
 10
24.7382502740416
 20
12.45021681981035
 30
0.0
 11
26.23825027404161
 21
12.45021681981035
 31
0.0
  0
LINE
  5
3958B
330
39808
100
AcDbEntity
  8
0
  6
Continuous
 62
     7
370
     0
100
AcDbLine
 10
24.7382502740416
 20
12.55021681981032
 30
0.0
 11
26.23825027404161
 21
12.55021681981032
 31
0.0
  0
LINE
  5
3958C
330
39808
100
AcDbEntity
  8
0
  6
Continuous
 62
     7
370
    13
100
AcDbLine
 10
23.7382502740416
 20
12.86021681981032
 30
0.0
 11
22.2382502740416
 21
12.86021681981032
 31
0.0
  0
LINE
  5
3958D
330
39808
100
AcDbEntity
  8
0
  6
Continuous
 62
     7
370
    13
100
AcDbLine
 10
22.2382502740416
 20
12.35021681981033
 30
0.0
 11
23.7382502740416
 21
12.35021681981033
 31
0.0
  0
LINE
  5
3958E
330
39808
100
AcDbEntity
  8
0
  6
Continuous
 62
     7
370
     0
100
AcDbLine
 10
22.2382502740416
 20
12.45021681981035
 30
0.0
 11
23.7382502740416
 21
12.45021681981035
 31
0.0
  0
LINE
  5
3958F
330
39808
100
AcDbEntity
  8
0
  6
Continuous
 62
     7
370
     0
100
AcDbLine
 10
22.2382502740416
 20
12.55021681981032
 30
0.0
 11
23.7382502740416
 21
12.55021681981032
 31
0.0
  0
LINE
  5
39590
330
39808
100
AcDbEntity
  8
0
  6
Continuous
 62
     7
370
    13
100
AcDbLine
 10
21.2382502740416
 20
12.86021681981032
 30
0.0
 11
19.7382502740416
 21
12.86021681981032
 31
0.0
  0
LINE
  5
39591
330
39808
100
AcDbEntity
  8
0
  6
Continuous
 62
     7
370
    13
100
AcDbLine
 10
19.7382502740416
 20
12.35021681981033
 30
0.0
 11
21.2382502740416
 21
12.35021681981033
 31
0.0
  0
LINE
  5
39592
330
39808
100
AcDbEntity
  8
0
  6
Continuous
 62
     7
370
     0
100
AcDbLine
 10
19.7382502740416
 20
12.45021681981035
 30
0.0
 11
21.2382502740416
 21
12.45021681981035
 31
0.0
  0
LINE
  5
39593
330
39808
100
AcDbEntity
  8
0
  6
Continuous
 62
     7
370
     0
100
AcDbLine
 10
19.7382502740416
 20
12.55021681981032
 30
0.0
 11
21.2382502740416
 21
12.55021681981032
 31
0.0
  0
LINE
  5
39594
330
39808
100
AcDbEntity
  8
0
  6
Continuous
 62
     7
370
    13
100
AcDbLine
 10
18.7382502740416
 20
12.86021681981032
 30
0.0
 11
17.2382502740416
 21
12.86021681981032
 31
0.0
  0
LINE
  5
39595
330
39808
100
AcDbEntity
  8
0
  6
Continuous
 62
     7
370
    13
100
AcDbLine
 10
17.2382502740416
 20
12.35021681981033
 30
0.0
 11
18.7382502740416
 21
12.35021681981033
 31
0.0
  0
LINE
  5
39596
330
39808
100
AcDbEntity
  8
0
  6
Continuous
 62
     7
370
     0
100
AcDbLine
 10
17.2382502740416
 20
12.45021681981035
 30
0.0
 11
18.7382502740416
 21
12.45021681981035
 31
0.0
  0
LINE
  5
39597
330
39808
100
AcDbEntity
  8
0
  6
Continuous
 62
     7
370
     0
100
AcDbLine
 10
17.2382502740416
 20
12.55021681981032
 30
0.0
 11
18.7382502740416
 21
12.55021681981032
 31
0.0
  0
LINE
  5
39598
330
39808
100
AcDbEntity
  8
0
  6
Continuous
 62
     7
370
    13
100
AcDbLine
 10
16.2382502740416
 20
12.86021681981032
 30
0.0
 11
14.7382502740416
 21
12.86021681981032
 31
0.0
  0
LINE
  5
39599
330
39808
100
AcDbEntity
  8
0
  6
Continuous
 62
     7
370
    13
100
AcDbLine
 10
14.7382502740416
 20
12.35021681981033
 30
0.0
 11
16.2382502740416
 21
12.35021681981033
 31
0.0
  0
LINE
  5
3959A
330
39808
100
AcDbEntity
  8
0
  6
Continuous
 62
     7
370
     0
100
AcDbLine
 10
14.7382502740416
 20
12.45021681981035
 30
0.0
 11
16.2382502740416
 21
12.45021681981035
 31
0.0
  0
LINE
  5
3959B
330
39808
100
AcDbEntity
  8
0
  6
Continuous
 62
     7
370
     0
100
AcDbLine
 10
14.7382502740416
 20
12.55021681981032
 30
0.0
 11
16.2382502740416
 21
12.55021681981032
 31
0.0
  0
LINE
  5
3959C
330
39808
100
AcDbEntity
  8
0
  6
Continuous
 62
     7
370
    13
100
AcDbLine
 10
13.7382502740416
 20
12.86021681981032
 30
0.0
 11
12.2382502740416
 21
12.86021681981032
 31
0.0
  0
LINE
  5
3959D
330
39808
100
AcDbEntity
  8
0
  6
Continuous
 62
     7
370
    13
100
AcDbLine
 10
12.2382502740416
 20
12.35021681981033
 30
0.0
 11
13.7382502740416
 21
12.35021681981033
 31
0.0
  0
LINE
  5
3959E
330
39808
100
AcDbEntity
  8
0
  6
Continuous
 62
     7
370
     0
100
AcDbLine
 10
12.2382502740416
 20
12.45021681981035
 30
0.0
 11
13.7382502740416
 21
12.45021681981035
 31
0.0
  0
LINE
  5
3959F
330
39808
100
AcDbEntity
  8
0
  6
Continuous
 62
     7
370
     0
100
AcDbLine
 10
12.2382502740416
 20
12.55021681981032
 30
0.0
 11
13.7382502740416
 21
12.55021681981032
 31
0.0
  0
LINE
  5
395A0
330
39808
100
AcDbEntity
  8
0
  6
Continuous
 62
     7
370
    13
100
AcDbLine
 10
11.2382502740416
 20
12.86021681981032
 30
0.0
 11
9.738250274041604
 21
12.86021681981032
 31
0.0
  0
LINE
  5
395A1
330
39808
100
AcDbEntity
  8
0
  6
Continuous
 62
     7
370
    13
100
AcDbLine
 10
9.738250274041604
 20
12.35021681981033
 30
0.0
 11
11.2382502740416
 21
12.35021681981033
 31
0.0
  0
LINE
  5
395A2
330
39808
100
AcDbEntity
  8
0
  6
Continuous
 62
     7
370
     0
100
AcDbLine
 10
9.738250274041604
 20
12.45021681981035
 30
0.0
 11
11.2382502740416
 21
12.45021681981035
 31
0.0
  0
LINE
  5
395A3
330
39808
100
AcDbEntity
  8
0
  6
Continuous
 62
     7
370
     0
100
AcDbLine
 10
9.738250274041604
 20
12.55021681981032
 30
0.0
 11
11.2382502740416
 21
12.55021681981032
 31
0.0
  0
LINE
  5
395A4
330
39808
100
AcDbEntity
  8
0
  6
Continuous
 62
     7
370
    13
100
AcDbLine
 10
4.338250274041627
 20
12.86021681981032
 30
0.0
 11
2.838250274041627
 21
12.86021681981032
 31
0.0
  0
LINE
  5
395A5
330
39808
100
AcDbEntity
  8
0
  6
Continuous
 62
     7
370
    13
100
AcDbLine
 10
2.838250274041627
 20
12.35021681981033
 30
0.0
 11
4.338250274041627
 21
12.35021681981033
 31
0.0
  0
LINE
  5
395A6
330
39808
100
AcDbEntity
  8
0
  6
Continuous
 62
     7
370
     0
100
AcDbLine
 10
2.838250274041627
 20
12.45021681981035
 30
0.0
 11
4.338250274041627
 21
12.45021681981035
 31
0.0
  0
LINE
  5
395A7
330
39808
100
AcDbEntity
  8
0
  6
Continuous
 62
     7
370
     0
100
AcDbLine
 10
2.838250274041627
 20
12.55021681981032
 30
0.0
 11
4.338250274041627
 21
12.55021681981032
 31
0.0
  0
CIRCLE
  5
395A8
330
39808
100
AcDbEntity
  8
0
  6
Continuous
 62
     7
370
    30
100
AcDbCircle
 10
5.668250274041611
 20
21.41021681981033
 30
0.0
 40
0.25
  0
CIRCLE
  5
395A9
330
39808
100
AcDbEntity
  8
0
  6
Continuous
 62
     7
370
    30
100
AcDbCircle
 10
10.46825027404162
 20
21.41021681981033
 30
0.0
 40
0.25
  0
CIRCLE
  5
395AA
330
39808
100
AcDbEntity
  8
0
  6
Continuous
 62
     7
370
    30
100
AcDbCircle
 10
15.7682502740416
 20
21.41021681981033
 30
0.0
 40
0.25
  0
CIRCLE
  5
395AB
330
39808
100
AcDbEntity
  8
0
  6
Continuous
 62
     7
370
    30
100
AcDbCircle
 10
21.06825027404162
 20
21.41021681981033
 30
0.0
 40
0.25
  0
CIRCLE
  5
395AC
330
39808
100
AcDbEntity
  8
0
  6
Continuous
 62
     7
370
    30
100
AcDbCircle
 10
10.46825027404162
 20
30.1302168198103
 30
0.0
 40
0.25
  0
LINE
  5
395AD
330
39808
100
AcDbEntity
  8
0
  6
Continuous
 62
     7
370
    13
100
AcDbLine
 10
2.508250274041557
 20
21.3802168198103
 30
0.0
 11
4.520056801121825
 21
21.3802168198103
 31
0.0
  0
LINE
  5
395AE
330
39808
100
AcDbEntity
  8
0
  6
Continuous
 62
     7
370
     0
100
AcDbLine
 10
2.508250274041557
 20
21.26021681981035
 30
0.0
 11
5.418250274041611
 21
21.26021681981035
 31
0.0
  0
LINE
  5
395AF
330
39808
100
AcDbEntity
  8
0
  6
Continuous
 62
     7
370
     0
100
AcDbLine
 10
2.508250274041557
 20
26.48021681981032
 30
0.0
 11
4.508250274041557
 21
26.48021681981032
 31
0.0
  0
LINE
  5
395B0
330
39808
100
AcDbEntity
  8
0
  6
Continuous
 62
     7
370
    13
100
AcDbLine
 10
4.508250274041557
 20
26.51837633677144
 30
0.0
 11
4.508250274041557
 21
21.3802168198103
 31
0.0
  0
LINE
  5
395B1
330
39808
100
AcDbEntity
  8
0
  6
Continuous
 62
     7
370
    13
100
AcDbLine
 10
4.520056801121825
 20
21.26021681981035
 30
0.0
 11
4.520056801121825
 21
21.3802168198103
 31
0.0
  0
LINE
  5
395B2
330
39808
100
AcDbEntity
  8
0
  6
Continuous
 62
     7
370
     0
100
AcDbLine
 10
2.508250274041557
 20
26.18021681981031
 30
0.0
 11
4.508250274041557
 21
26.18021681981031
 31
0.0
  0
LINE
  5
395B3
330
39808
100
AcDbEntity
  8
0
  6
Continuous
 62
     7
370
     0
100
AcDbLine
 10
2.508250274041557
 20
25.8802168198103
 30
0.0
 11
4.508250274041557
 21
25.8802168198103
 31
0.0
  0
LINE
  5
395B4
330
39808
100
AcDbEntity
  8
0
  6
Continuous
 62
     7
370
     0
100
AcDbLine
 10
2.508250274041557
 20
25.58021681981035
 30
0.0
 11
4.508250274041557
 21
25.58021681981035
 31
0.0
  0
LINE
  5
395B5
330
39808
100
AcDbEntity
  8
0
  6
Continuous
 62
     7
370
     0
100
AcDbLine
 10
2.508250274041557
 20
25.28021681981034
 30
0.0
 11
4.508250274041557
 21
25.28021681981034
 31
0.0
  0
LINE
  5
395B6
330
39808
100
AcDbEntity
  8
0
  6
Continuous
 62
     7
370
     0
100
AcDbLine
 10
2.508250274041557
 20
24.98021681981033
 30
0.0
 11
4.508250274041557
 21
24.98021681981033
 31
0.0
  0
LINE
  5
395B7
330
39808
100
AcDbEntity
  8
0
  6
Continuous
 62
     7
370
     0
100
AcDbLine
 10
2.508250274041557
 20
24.68021681981031
 30
0.0
 11
4.508250274041557
 21
24.68021681981031
 31
0.0
  0
LINE
  5
395B8
330
39808
100
AcDbEntity
  8
0
  6
Continuous
 62
     7
370
     0
100
AcDbLine
 10
2.508250274041557
 20
24.3802168198103
 30
0.0
 11
4.508250274041557
 21
24.3802168198103
 31
0.0
  0
LINE
  5
395B9
330
39808
100
AcDbEntity
  8
0
  6
Continuous
 62
     7
370
     0
100
AcDbLine
 10
2.508250274041557
 20
24.08021681981035
 30
0.0
 11
4.508250274041557
 21
24.08021681981035
 31
0.0
  0
LINE
  5
395BA
330
39808
100
AcDbEntity
  8
0
  6
Continuous
 62
     7
370
     0
100
AcDbLine
 10
2.508250274041557
 20
23.78021681981033
 30
0.0
 11
4.508250274041557
 21
23.78021681981033
 31
0.0
  0
LINE
  5
395BB
330
39808
100
AcDbEntity
  8
0
  6
Continuous
 62
     7
370
     0
100
AcDbLine
 10
2.508250274041557
 20
23.48021681981032
 30
0.0
 11
4.508250274041557
 21
23.48021681981032
 31
0.0
  0
LINE
  5
395BC
330
39808
100
AcDbEntity
  8
0
  6
Continuous
 62
     7
370
     0
100
AcDbLine
 10
2.508250274041557
 20
23.18021681981031
 30
0.0
 11
4.508250274041557
 21
23.18021681981031
 31
0.0
  0
LINE
  5
395BD
330
39808
100
AcDbEntity
  8
0
  6
Continuous
 62
     7
370
     0
100
AcDbLine
 10
2.508250274041557
 20
22.8802168198103
 30
0.0
 11
4.508250274041557
 21
22.8802168198103
 31
0.0
  0
LINE
  5
395BE
330
39808
100
AcDbEntity
  8
0
  6
Continuous
 62
     7
370
     0
100
AcDbLine
 10
2.508250274041557
 20
22.58021681981035
 30
0.0
 11
4.508250274041557
 21
22.58021681981035
 31
0.0
  0
LINE
  5
395BF
330
39808
100
AcDbEntity
  8
0
  6
Continuous
 62
     7
370
     0
100
AcDbLine
 10
2.508250274041557
 20
22.28021681981033
 30
0.0
 11
4.508250274041557
 21
22.28021681981033
 31
0.0
  0
LINE
  5
395C0
330
39808
100
AcDbEntity
  8
0
  6
Continuous
 62
     7
370
     0
100
AcDbLine
 10
2.508250274041557
 20
21.98021681981032
 30
0.0
 11
4.508250274041557
 21
21.98021681981032
 31
0.0
  0
LINE
  5
395C1
330
39808
100
AcDbEntity
  8
0
  6
Continuous
 62
     7
370
     0
100
AcDbLine
 10
2.508250274041557
 20
21.68021681981031
 30
0.0
 11
4.508250274041557
 21
21.68021681981031
 31
0.0
  0
LINE
  5
395C5
330
39808
100
AcDbEntity
  8
0
  6
Continuous
 62
     7
370
     0
100
AcDbLine
 10
4.520056801121825
 20
21.3802168198103
 30
0.0
 11
5.420056801121802
 21
21.3802168198103
 31
0.0
  0
LINE
  5
395C7
330
39808
100
AcDbEntity
  8
0
  6
Continuous
 62
     7
370
     0
100
AcDbLine
 10
4.970056801121813
 20
21.5150136379176
 30
0.0
 11
4.970056801121813
 21
21.07589591554967
 31
0.0
  0
CIRCLE
  5
395C8
330
39808
100
AcDbEntity
  8
0
  6
Continuous
 62
     7
370
    30
100
AcDbCircle
 10
15.24325027404163
 20
30.1302168198103
 30
0.0
 40
0.125
  0
LINE
  5
395C9
330
39808
100
AcDbEntity
  8
0
  6
Continuous
 62
     7
370
    13
100
AcDbLine
 10
5.338250274041627
 20
12.35021681981033
 30
0.0
 11
6.288250274041615
 21
12.35021681981033
 31
0.0
  0
LINE
  5
395CA
330
39808
100
AcDbEntity
  8
0
  6
Continuous
 62
     7
370
    13
100
AcDbLine
 10
8.838250274041598
 20
12.86021681981032
 30
0.0
 11
7.788250274041615
 21
12.86021681981032
 31
0.0
  0
LINE
  5
395CB
330
39808
100
AcDbEntity
  8
0
  6
Continuous
 62
     7
370
    13
100
AcDbLine
 10
6.288250274041615
 20
12.86021681981032
 30
0.0
 11
6.288250274041615
 21
12.35021681981033
 31
0.0
  0
LINE
  5
395CC
330
39808
100
AcDbEntity
  8
0
  6
Continuous
 62
     7
370
    13
100
AcDbLine
 10
7.788250274041615
 20
12.86021681981032
 30
0.0
 11
7.788250274041615
 21
12.35021681981033
 31
0.0
  0
LINE
  5
395CD
330
39808
100
AcDbEntity
  8
0
  6
Continuous
 62
     7
370
    13
100
AcDbLine
 10
6.288250274041615
 20
12.86021681981032
 30
0.0
 11
5.338250274041627
 21
12.86021681981032
 31
0.0
  0
LINE
  5
395CE
330
39808
100
AcDbEntity
  8
0
  6
Continuous
 62
     7
370
    13
100
AcDbLine
 10
7.788250274041615
 20
12.35021681981033
 30
0.0
 11
8.738250274041604
 21
12.35021681981033
 31
0.0
  0
LINE
  5
395CF
330
39808
100
AcDbEntity
  8
0
  6
Continuous
 62
     7
370
     0
100
AcDbLine
 10
5.338250274041627
 20
12.45021681981035
 30
0.0
 11
6.288250274041615
 21
12.45021681981035
 31
0.0
  0
LINE
  5
395D0
330
39808
100
AcDbEntity
  8
0
  6
Continuous
 62
     7
370
     0
100
AcDbLine
 10
5.338250274041627
 20
12.55021681981032
 30
0.0
 11
6.288250274041615
 21
12.55021681981032
 31
0.0
  0
LINE
  5
395D1
330
39808
100
AcDbEntity
  8
0
  6
Continuous
 62
     7
370
     0
100
AcDbLine
 10
7.788250274041615
 20
12.45021681981035
 30
0.0
 11
8.738250274041604
 21
12.45021681981035
 31
0.0
  0
LINE
  5
395D2
330
39808
100
AcDbEntity
  8
0
  6
Continuous
 62
     7
370
     0
100
AcDbLine
 10
7.788250274041615
 20
12.55021681981032
 30
0.0
 11
8.738250274041604
 21
12.55021681981032
 31
0.0
  0
LINE
  5
395D3
330
39808
100
AcDbEntity
  8
0
  6
Continuous
 62
     7
370
     0
100
AcDbLine
 10
6.288250274041615
 20
12.86021681981032
 30
0.0
 11
7.788250274041615
 21
12.86021681981032
 31
0.0
  0
LINE
  5
395D4
330
39808
100
AcDbEntity
  8
0
  6
Continuous
 62
     7
370
     0
100
AcDbLine
 10
7.788250274041615
 20
12.35021681981033
 30
0.0
 11
6.288250274041615
 21
12.35021681981033
 31
0.0
  0
LINE
  5
395D5
330
39808
100
AcDbEntity
  8
0
  6
Continuous
 62
     7
370
     0
100
AcDbLine
 10
5.038250274041615
 20
12.35021681981033
 30
0.0
 11
5.038250274041615
 21
10.7502168198103
 31
0.0
  0
LINE
  5
395D6
330
39808
100
AcDbEntity
  8
0
  6
Continuous
 62
     7
370
     0
100
AcDbLine
 10
9.038250274041615
 20
12.35021681981033
 30
0.0
 11
9.038250274041615
 21
10.7502168198103
 31
0.0
  0
ARC
  5
395D7
330
39808
100
AcDbEntity
  8
0
  6
Continuous
 62
     7
370
     0
100
AcDbCircle
 10
7.038250274041615
 20
14.5002168198107
 30
0.0
 40
4.250000000000329
100
AcDbArc
 50
241.9275130641484
 51
298.0724869358517
  0
LINE
  5
395D8
330
39808
100
AcDbEntity
  8
0
  6
Continuous
 62
     7
370
     0
100
AcDbLine
 10
4.738250274041604
 20
12.35021681981033
 30
0.0
 11
4.738250274041604
 21
10.7502168198103
 31
0.0
  0
LINE
  5
395D9
330
39808
100
AcDbEntity
  8
0
  6
Continuous
 62
     7
370
     0
100
AcDbLine
 10
4.438250274041621
 20
12.35021681981033
 30
0.0
 11
4.438250274041621
 21
10.7502168198103
 31
0.0
  0
LINE
  5
395DA
330
39808
100
AcDbEntity
  8
0
  6
Continuous
 62
     7
370
     0
100
AcDbLine
 10
4.138250274041666
 20
12.35021681981033
 30
0.0
 11
4.138250274041666
 21
10.7502168198103
 31
0.0
  0
LINE
  5
395DB
330
39808
100
AcDbEntity
  8
0
  6
Continuous
 62
     7
370
     0
100
AcDbLine
 10
3.838250274041627
 20
12.35021681981033
 30
0.0
 11
3.838250274041627
 21
10.7502168198103
 31
0.0
  0
LINE
  5
395DC
330
39808
100
AcDbEntity
  8
0
  6
Continuous
 62
     7
370
     0
100
AcDbLine
 10
3.538250274041615
 20
12.35021681981033
 30
0.0
 11
3.538250274041615
 21
10.7502168198103
 31
0.0
  0
LINE
  5
395DD
330
39808
100
AcDbEntity
  8
0
  6
Continuous
 62
     7
370
     0
100
AcDbLine
 10
3.238250274041604
 20
12.35021681981033
 30
0.0
 11
3.238250274041604
 21
10.7502168198103
 31
0.0
  0
LINE
  5
395DE
330
39808
100
AcDbEntity
  8
0
  6
Continuous
 62
     7
370
     0
100
AcDbLine
 10
2.938250274041621
 20
12.35021681981033
 30
0.0
 11
2.938250274041621
 21
10.7502168198103
 31
0.0
  0
LINE
  5
395DF
330
39808
100
AcDbEntity
  8
0
  6
Continuous
 62
     7
370
     0
100
AcDbLine
 10
2.638250274041581
 20
12.35021681981033
 30
0.0
 11
2.638250274041581
 21
10.7502168198103
 31
0.0
  0
LINE
  5
395E0
330
39808
100
AcDbEntity
  8
0
  6
Continuous
 62
     7
370
     0
100
AcDbLine
 10
2.638250274041581
 20
10.7502168198103
 30
0.0
 11
5.038250274041615
 21
10.7502168198103
 31
0.0
  0
LINE
  5
395E4
330
39808
100
AcDbEntity
  8
0
  6
Continuous
 62
     7
370
     0
100
AcDbLine
 10
9.338250274041513
 20
12.35021681981033
 30
0.0
 11
9.338250274041513
 21
10.7502168198103
 31
0.0
  0
LINE
  5
395E5
330
39808
100
AcDbEntity
  8
0
  6
Continuous
 62
     7
370
     0
100
AcDbLine
 10
9.638250274041524
 20
12.35021681981033
 30
0.0
 11
9.638250274041524
 21
10.7502168198103
 31
0.0
  0
LINE
  5
395E6
330
39808
100
AcDbEntity
  8
0
  6
Continuous
 62
     7
370
     0
100
AcDbLine
 10
9.938250274041479
 20
12.35021681981033
 30
0.0
 11
9.938250274041479
 21
10.7502168198103
 31
0.0
  0
LINE
  5
395E7
330
39808
100
AcDbEntity
  8
0
  6
Continuous
 62
     7
370
     0
100
AcDbLine
 10
10.23825027404152
 20
12.35021681981033
 30
0.0
 11
10.23825027404152
 21
10.7502168198103
 31
0.0
  0
LINE
  5
395E8
330
39808
100
AcDbEntity
  8
0
  6
Continuous
 62
     7
370
     0
100
AcDbLine
 10
10.53825027404153
 20
12.35021681981033
 30
0.0
 11
10.53825027404153
 21
10.7502168198103
 31
0.0
  0
LINE
  5
395E9
330
39808
100
AcDbEntity
  8
0
  6
Continuous
 62
     7
370
     0
100
AcDbLine
 10
10.83825027404151
 20
12.35021681981033
 30
0.0
 11
10.83825027404151
 21
10.7502168198103
 31
0.0
  0
LINE
  5
395EA
330
39808
100
AcDbEntity
  8
0
  6
Continuous
 62
     7
370
     0
100
AcDbLine
 10
11.13825027404152
 20
12.35021681981033
 30
0.0
 11
11.13825027404152
 21
10.7502168198103
 31
0.0
  0
LINE
  5
395EB
330
39808
100
AcDbEntity
  8
0
  6
Continuous
 62
     7
370
     0
100
AcDbLine
 10
11.43825027404156
 20
12.35021681981033
 30
0.0
 11
11.43825027404156
 21
10.7502168198103
 31
0.0
  0
LINE
  5
395EC
330
39808
100
AcDbEntity
  8
0
  6
Continuous
 62
     7
370
     0
100
AcDbLine
 10
11.43825027404156
 20
10.7502168198103
 30
0.0
 11
9.03825027404153
 21
10.7502168198103
 31
0.0
  0
ARC
  5
395F0
330
39808
100
AcDbEntity
  8
0
  6
Continuous
 62
     7
370
     0
100
AcDbCircle
 10
7.038250274041615
 20
14.5002168198107
 30
0.0
 40
4.200000000000345
100
AcDbArc
 50
241.7574628155686
 51
298.2425371844314
  0
ARC
  5
395F1
330
39808
100
AcDbEntity
  8
0
  6
Continuous
 62
     7
370
     0
100
AcDbCircle
 10
7.038250274041615
 20
14.5002168198107
 30
0.0
 40
4.150000000000364
100
AcDbArc
 50
241.5842833142469
 51
298.4157166857531
  0
LINE
  5
395F2
330
39808
100
AcDbEntity
  8
0
  6
Continuous
 62
     7
370
     0
100
AcDbLine
 10
2.58825027404157
 20
10.80021681981031
 30
0.0
 11
5.050789582606483
 21
10.80021681981031
 31
0.0
  0
LINE
  5
395F3
330
39808
100
AcDbEntity
  8
0
  6
Continuous
 62
     7
370
     0
100
AcDbLine
 10
2.58825027404157
 20
10.85021681981032
 30
0.0
 11
5.063408508228377
 21
10.85021681981032
 31
0.0
  0
LINE
  5
395F4
330
39808
100
AcDbEntity
  8
0
  6
Continuous
 62
     7
370
     0
100
AcDbLine
 10
11.4882502740416
 20
10.80021681981031
 30
0.0
 11
9.025710965476747
 21
10.80021681981031
 31
0.0
  0
LINE
  5
395F5
330
39808
100
AcDbEntity
  8
0
  6
Continuous
 62
     7
370
     0
100
AcDbLine
 10
11.4882502740416
 20
10.85021681981032
 30
0.0
 11
9.013092039854853
 21
10.85021681981032
 31
0.0
  0
LINE
  5
395F6
330
39808
100
AcDbEntity
  8
0
  6
Continuous
 62
     7
370
     0
100
AcDbLine
 10
2.58825027404157
 20
10.85021681981032
 30
0.0
 11
2.58825027404157
 21
10.80021681981031
 31
0.0
  0
LINE
  5
395F7
330
39808
100
AcDbEntity
  8
0
  6
Continuous
 62
     7
370
     0
100
AcDbLine
 10
11.4882502740416
 20
10.85021681981032
 30
0.0
 11
11.4882502740416
 21
10.80021681981031
 31
0.0
  0
LINE
  5
395F8
330
39808
100
AcDbEntity
  8
0
  6
Continuous
 62
     7
370
     0
100
AcDbLine
 10
2.508250274041557
 20
34.18021681981031
 30
0.0
 11
5.478250274041613
 21
34.18021681981031
 31
0.0
  0
LINE
  5
395F9
330
39808
100
AcDbEntity
  8
0
  6
Continuous
 62
     7
370
    30
100
AcDbLine
 10
6.018250274041577
 20
35.58021681981035
 30
0.0
 11
6.018250274041577
 21
28.98021681981033
 31
0.0
  0
LINE
  5
395FA
330
39808
100
AcDbEntity
  8
0
  6
Continuous
 62
     7
370
    30
100
AcDbLine
 10
6.018250274041577
 20
35.58021681981035
 30
0.0
 11
7.018250274041577
 21
35.58021681981035
 31
0.0
  0
LINE
  5
395FB
330
39808
100
AcDbEntity
  8
0
  6
Continuous
 62
     7
370
    30
100
AcDbLine
 10
2.508250274041557
 20
28.98021681981033
 30
0.0
 11
2.508250274041557
 21
12.86021681981032
 31
0.0
  0
LINE
  5
395FC
330
39808
100
AcDbEntity
  8
0
  6
Continuous
 62
     7
370
     0
100
AcDbLine
 10
2.508250274041557
 20
33.8802168198103
 30
0.0
 11
5.478250274041613
 21
33.8802168198103
 31
0.0
  0
LINE
  5
395FD
330
39808
100
AcDbEntity
  8
0
  6
Continuous
 62
     7
370
     0
100
AcDbLine
 10
2.508250274041557
 20
33.58021681981035
 30
0.0
 11
5.478250274041613
 21
33.58021681981035
 31
0.0
  0
LINE
  5
395FE
330
39808
100
AcDbEntity
  8
0
  6
Continuous
 62
     7
370
     0
100
AcDbLine
 10
2.508250274041557
 20
33.28021681981045
 30
0.0
 11
5.478250274041613
 21
33.28021681981045
 31
0.0
  0
LINE
  5
395FF
330
39808
100
AcDbEntity
  8
0
  6
Continuous
 62
     7
370
     0
100
AcDbLine
 10
2.508250274041557
 20
32.98021681981044
 30
0.0
 11
5.478250274041613
 21
32.98021681981044
 31
0.0
  0
LINE
  5
39600
330
39808
100
AcDbEntity
  8
0
  6
Continuous
 62
     7
370
     0
100
AcDbLine
 10
3.993250274041628
 20
30.8802168198103
 30
0.0
 11
3.993250274041628
 21
34.18021681981031
 31
0.0
  0
LINE
  5
39601
330
39808
100
AcDbEntity
  8
0
  6
Continuous
 62
     7
370
     0
100
AcDbLine
 10
4.046360773918593
 20
32.97555600641914
 30
0.0
 11
2.401764431305025
 21
31.62995243748748
 31
0.0
  0
LINE
  5
39602
330
39808
100
AcDbEntity
  8
0
  6
Continuous
 62
     7
370
     0
100
AcDbLine
 10
3.993250274041628
 20
31.78021681981045
 30
0.0
 11
5.478250274041613
 21
31.78021681981045
 31
0.0
  0
LINE
  5
39603
330
39808
100
AcDbEntity
  8
0
  6
Continuous
 62
     7
370
     0
100
AcDbLine
 10
3.993250274041628
 20
31.48021681981044
 30
0.0
 11
5.478250274041613
 21
31.48021681981044
 31
0.0
  0
LINE
  5
39604
330
39808
100
AcDbEntity
  8
0
  6
Continuous
 62
     7
370
     0
100
AcDbLine
 10
3.993250274041628
 20
31.18021681981031
 30
0.0
 11
5.478250274041613
 21
31.18021681981031
 31
0.0
  0
LINE
  5
39605
330
39808
100
AcDbEntity
  8
0
  6
Continuous
 62
     7
370
     0
100
AcDbLine
 10
3.993250274041628
 20
30.8802168198103
 30
0.0
 11
5.478250274041613
 21
30.8802168198103
 31
0.0
  0
LINE
  5
39606
330
39808
100
AcDbEntity
  8
0
  6
Continuous
 62
     7
370
     0
100
AcDbLine
 10
2.508250274041557
 20
32.68021681981031
 30
0.0
 11
3.685397294524108
 21
32.68021681981031
 31
0.0
  0
LINE
  5
39607
330
39808
100
AcDbEntity
  8
0
  6
Continuous
 62
     7
370
     0
100
AcDbLine
 10
2.508250274041557
 20
32.3802168198103
 30
0.0
 11
3.318737370178297
 21
32.3802168198103
 31
0.0
  0
LINE
  5
39608
330
39808
100
AcDbEntity
  8
0
  6
Continuous
 62
     7
370
     0
100
AcDbLine
 10
2.508250274041557
 20
32.08021681981035
 30
0.0
 11
2.952077445832344
 21
32.08021681981035
 31
0.0
  0
LINE
  5
39609
330
39808
100
AcDbEntity
  8
0
  6
Continuous
 62
     7
370
     0
100
AcDbLine
 10
3.993250274041571
 20
32.68021681981031
 30
0.0
 11
5.478250274041613
 21
32.68021681981031
 31
0.0
  0
LINE
  5
3960A
330
39808
100
AcDbEntity
  8
0
  6
Continuous
 62
     7
370
     0
100
AcDbLine
 10
3.993250274041628
 20
32.3802168198103
 30
0.0
 11
5.478250274041613
 21
32.3802168198103
 31
0.0
  0
LINE
  5
3960B
330
39808
100
AcDbEntity
  8
0
  6
Continuous
 62
     7
370
     0
100
AcDbLine
 10
3.993250274041628
 20
32.08021681981035
 30
0.0
 11
5.478250274041613
 21
32.08021681981035
 31
0.0
  0
LINE
  5
3960C
330
39808
100
AcDbEntity
  8
0
  6
Continuous
 62
     7
370
     0
100
AcDbLine
 10
3.94325027404156
 20
32.89119131884576
 30
0.0
 11
3.94325027404156
 21
34.23021681981044
 31
0.0
  0
LINE
  5
3960D
330
39808
100
AcDbEntity
  8
0
  6
Continuous
 62
     7
370
     0
100
AcDbLine
 10
3.893250274041577
 20
32.85028147568045
 30
0.0
 11
3.893250274041577
 21
34.28021681981045
 31
0.0
  0
LINE
  5
3960E
330
39808
100
AcDbEntity
  8
0
  6
Continuous
 62
     7
370
     0
100
AcDbLine
 10
3.94325027404156
 20
34.23021681981044
 30
0.0
 11
4.043250274041611
 21
34.23021681981044
 31
0.0
  0
LINE
  5
3960F
330
39808
100
AcDbEntity
  8
0
  6
Continuous
 62
     7
370
     0
100
AcDbLine
 10
3.893250274041577
 20
34.28021681981045
 30
0.0
 11
4.093250274041622
 21
34.28021681981045
 31
0.0
  0
LINE
  5
39610
330
39808
100
AcDbEntity
  8
0
  6
Continuous
 62
     7
370
     0
100
AcDbLine
 10
4.043250274041611
 20
30.8802168198103
 30
0.0
 11
4.043250274041611
 21
34.23021681981044
 31
0.0
  0
LINE
  5
39611
330
39808
100
AcDbEntity
  8
0
  6
Continuous
 62
     7
370
     0
100
AcDbLine
 10
4.093250274041622
 20
30.8802168198103
 30
0.0
 11
4.093250274041622
 21
34.28021681981045
 31
0.0
  0
LINE
  5
39617
330
39808
100
AcDbEntity
  8
0
  6
Continuous
 62
     7
370
    30
100
AcDbLine
 10
3.373250274041623
 20
35.58021681981035
 30
0.0
 11
3.373250274041623
 21
36.09021681981034
 31
0.0
  0
LINE
  5
39618
330
39808
100
AcDbEntity
  8
0
  6
Continuous
 62
     7
370
    30
100
AcDbLine
 10
4.613250274041604
 20
35.58021681981035
 30
0.0
 11
4.613250274041604
 21
36.09021681981034
 31
0.0
  0
LINE
  5
39619
330
39808
100
AcDbEntity
  8
0
  6
Continuous
 62
     7
370
    30
100
AcDbLine
 10
4.613250274041604
 20
36.09021681981034
 30
0.0
 11
7.018250274041577
 21
36.09021681981034
 31
0.0
  0
LINE
  5
3961A
330
39808
100
AcDbEntity
  8
0
  6
Continuous
 62
     7
370
    30
100
AcDbLine
 10
4.613250274041604
 20
35.58021681981035
 30
0.0
 11
5.478250274041613
 21
35.58021681981035
 31
0.0
  0
LINE
  5
3961B
330
39808
100
AcDbEntity
  8
0
  6
Continuous
 62
     7
370
    13
100
AcDbLine
 10
3.373250274041623
 20
36.09021681981034
 30
0.0
 11
4.613250274041604
 21
36.09021681981034
 31
0.0
  0
LINE
  5
3961C
330
39808
100
AcDbEntity
  8
0
  6
Continuous
 62
     7
370
    13
100
AcDbLine
 10
4.613250274041604
 20
35.58021681981035
 30
0.0
 11
3.373250274041623
 21
35.58021681981035
 31
0.0
  0
LINE
  5
3961D
330
39808
100
AcDbEntity
  8
0
  6
Continuous
 62
     7
370
     0
100
AcDbLine
 10
3.373250274041623
 20
35.99021681981032
 30
0.0
 11
4.613250274041604
 21
35.99021681981032
 31
0.0
  0
LINE
  5
3961E
330
39808
100
AcDbEntity
  8
0
  6
Continuous
 62
     7
370
     0
100
AcDbLine
 10
3.373250274041623
 20
35.89021681981035
 30
0.0
 11
4.613250274041604
 21
35.89021681981035
 31
0.0
  0
LINE
  5
3961F
330
39808
100
AcDbEntity
  8
0
  6
Continuous
 62
     7
370
     0
100
AcDbLine
 10
8.898250274041572
 20
36.09021681981034
 30
0.0
 11
8.898250274041572
 21
37.89021681981035
 31
0.0
  0
LINE
  5
39620
330
39808
100
AcDbEntity
  8
0
  6
Continuous
 62
     7
370
     0
100
AcDbLine
 10
6.398250274041572
 20
36.09021681981034
 30
0.0
 11
6.398250274041572
 21
37.89021681981035
 31
0.0
  0
LINE
  5
39621
330
39808
100
AcDbEntity
  8
0
  6
Continuous
 62
     7
370
     0
100
AcDbLine
 10
3.99825027404151
 20
37.89021681981035
 30
0.0
 11
12.89825027404157
 21
37.89021681981035
 31
0.0
  0
LINE
  5
39622
330
39808
100
AcDbEntity
  8
0
  6
Continuous
 62
     7
370
     0
100
AcDbLine
 10
6.098250274041561
 20
37.89021681981035
 30
0.0
 11
6.098250274041561
 21
36.09021681981034
 31
0.0
  0
LINE
  5
39623
330
39808
100
AcDbEntity
  8
0
  6
Continuous
 62
     7
370
     0
100
AcDbLine
 10
5.798250274041578
 20
37.89021681981035
 30
0.0
 11
5.798250274041578
 21
36.09021681981034
 31
0.0
  0
LINE
  5
39624
330
39808
100
AcDbEntity
  8
0
  6
Continuous
 62
     7
370
     0
100
AcDbLine
 10
5.498250274041623
 20
37.89021681981035
 30
0.0
 11
5.498250274041623
 21
36.09021681981034
 31
0.0
  0
LINE
  5
39625
330
39808
100
AcDbEntity
  8
0
  6
Continuous
 62
     7
370
     0
100
AcDbLine
 10
5.198250274041555
 20
37.89021681981035
 30
0.0
 11
5.198250274041555
 21
36.09021681981034
 31
0.0
  0
LINE
  5
39626
330
39808
100
AcDbEntity
  8
0
  6
Continuous
 62
     7
370
     0
100
AcDbLine
 10
4.898250274041572
 20
37.89021681981035
 30
0.0
 11
4.898250274041572
 21
36.09021681981034
 31
0.0
  0
LINE
  5
39627
330
39808
100
AcDbEntity
  8
0
  6
Continuous
 62
     7
370
     0
100
AcDbLine
 10
4.598250274041561
 20
37.89021681981035
 30
0.0
 11
4.598250274041561
 21
36.09021681981034
 31
0.0
  0
LINE
  5
39628
330
39808
100
AcDbEntity
  8
0
  6
Continuous
 62
     7
370
     0
100
AcDbLine
 10
4.298250274041578
 20
37.89021681981035
 30
0.0
 11
4.298250274041578
 21
36.09021681981034
 31
0.0
  0
LINE
  5
39629
330
39808
100
AcDbEntity
  8
0
  6
Continuous
 62
     7
370
     0
100
AcDbLine
 10
3.99825027404151
 20
37.89021681981035
 30
0.0
 11
3.99825027404151
 21
36.09021681981034
 31
0.0
  0
LINE
  5
3962D
330
39808
100
AcDbEntity
  8
0
  6
Continuous
 62
     7
370
     0
100
AcDbLine
 10
3.948250274041527
 20
37.84021681981034
 30
0.0
 11
8.848250274041561
 21
37.84021681981034
 31
0.0
  0
LINE
  5
3962E
330
39808
100
AcDbEntity
  8
0
  6
Continuous
 62
     7
370
     0
100
AcDbLine
 10
3.948250274041527
 20
37.79021681981033
 30
0.0
 11
8.798250274041578
 21
37.79021681981033
 31
0.0
  0
LINE
  5
3962F
330
39808
100
AcDbEntity
  8
0
  6
Continuous
 62
     7
370
     0
100
AcDbLine
 10
8.848250274041561
 20
36.09021681981034
 30
0.0
 11
8.848250274041561
 21
37.84021681981034
 31
0.0
  0
LINE
  5
39630
330
39808
100
AcDbEntity
  8
0
  6
Continuous
 62
     7
370
     0
100
AcDbLine
 10
8.798250274041578
 20
36.09021681981034
 30
0.0
 11
8.798250274041578
 21
37.79021681981033
 31
0.0
  0
LINE
  5
39631
330
39808
100
AcDbEntity
  8
0
  6
Continuous
 62
     7
370
     0
100
AcDbLine
 10
3.948250274041527
 20
37.84021681981034
 30
0.0
 11
3.948250274041527
 21
37.79021681981033
 31
0.0
  0
LINE
  5
39632
330
39808
100
AcDbEntity
  8
0
  6
Continuous
 62
     7
370
     0
100
AcDbLine
 10
12.89825027404157
 20
36.09021681981034
 30
0.0
 11
12.89825027404157
 21
37.89021681981035
 31
0.0
  0
LINE
  5
39634
330
39808
100
AcDbEntity
  8
0
  6
Continuous
 62
     7
370
     0
100
AcDbLine
 10
15.21825027404162
 20
34.96021681981034
 30
0.0
 11
15.21825027404162
 21
32.96021681981034
 31
0.0
  0
LINE
  5
39635
330
39808
100
AcDbEntity
  8
0
  6
Continuous
 62
     7
370
     0
100
AcDbLine
 10
15.72825027404161
 20
34.96021681981034
 30
0.0
 11
15.72825027404161
 21
32.96021681981034
 31
0.0
  0
LINE
  5
39636
330
39808
100
AcDbEntity
  8
0
  6
Continuous
 62
     7
370
     0
100
AcDbLine
 10
17.62825027404162
 20
34.96021681981034
 30
0.0
 11
17.62825027404162
 21
32.96021681981034
 31
0.0
  0
LINE
  5
39637
330
39808
100
AcDbEntity
  8
0
  6
Continuous
 62
     7
370
     0
100
AcDbLine
 10
18.00825027404156
 20
32.96021681981034
 30
0.0
 11
18.00825027404156
 21
34.96021681981034
 31
0.0
  0
LINE
  5
39638
330
39808
100
AcDbEntity
  8
0
  6
Continuous
 62
     7
370
     0
100
AcDbLine
 10
14.9670826328398
 20
33.96021681981034
 30
0.0
 11
15.9068519714761
 21
33.96021681981034
 31
0.0
  0
LINE
  5
39639
330
39808
100
AcDbEntity
  8
0
  6
Continuous
 62
     7
370
     0
100
AcDbLine
 10
17.41865482058668
 20
33.96021681981034
 30
0.0
 11
18.20315792066572
 21
33.96021681981034
 31
0.0
  0
LINE
  5
3963A
330
39808
100
AcDbEntity
  8
0
  6
Continuous
 62
     7
370
     0
100
AcDbLine
 10
18.00825027404156
 20
35.52521681981034
 30
0.0
 11
19.20825027404157
 21
35.52521681981034
 31
0.0
  0
LINE
  5
3963B
330
39808
100
AcDbEntity
  8
0
  6
Continuous
 62
     7
370
     0
100
AcDbLine
 10
19.20825027404157
 20
32.05498687982504
 30
0.0
 11
19.20825027404157
 21
35.52521681981034
 31
0.0
  0
LINE
  5
3963C
330
39808
100
AcDbEntity
  8
0
  6
Continuous
 62
     7
370
     0
100
AcDbLine
 10
18.00825027404156
 20
32.65498687982506
 30
0.0
 11
19.20825027404157
 21
32.65498687982506
 31
0.0
  0
LINE
  5
3963D
330
39808
100
AcDbEntity
  8
0
  6
Continuous
 62
     7
370
     0
100
AcDbLine
 10
18.00825027404156
 20
32.45498687982507
 30
0.0
 11
19.20825027404157
 21
32.45498687982507
 31
0.0
  0
LINE
  5
3963E
330
39808
100
AcDbEntity
  8
0
  6
Continuous
 62
     7
370
     0
100
AcDbLine
 10
18.00825027404156
 20
32.25498687982503
 30
0.0
 11
19.20825027404157
 21
32.25498687982503
 31
0.0
  0
LINE
  5
3963F
330
39808
100
AcDbEntity
  8
0
  6
Continuous
 62
     7
370
     0
100
AcDbLine
 10
18.00825027404156
 20
32.05498687982504
 30
0.0
 11
19.20825027404157
 21
32.05498687982504
 31
0.0
  0
LINE
  5
3968C
330
39808
100
AcDbEntity
  8
0
  6
Continuous
 62
     7
370
    13
100
AcDbLine
 10
5.845026969338249
 20
21.58699351510688
 30
0.0
 11
5.978250274041613
 21
21.58699351510688
 31
0.0
  0
LINE
  5
3968D
330
39808
100
AcDbEntity
  8
0
  6
Continuous
 62
     7
370
     0
100
AcDbLine
 10
5.918250274041611
 20
17.46021681981034
 30
0.0
 11
5.918250274041611
 21
16.26021681981035
 31
0.0
  0
LINE
  5
3968E
330
39808
100
AcDbEntity
  8
0
  6
Continuous
 62
     7
370
    13
100
AcDbLine
 10
5.858250274041608
 20
17.56021681981031
 30
0.0
 11
5.978250274041613
 21
17.56021681981031
 31
0.0
  0
LINE
  5
3968F
330
39808
100
AcDbEntity
  8
0
  6
Continuous
 62
     7
370
    13
100
AcDbLine
 10
5.978250274041613
 20
21.58699351510688
 30
0.0
 11
5.978250274041613
 21
17.56021681981031
 31
0.0
  0
LINE
  5
39690
330
39808
100
AcDbEntity
  8
0
  6
Continuous
 62
     7
370
    13
100
AcDbLine
 10
5.858250274041608
 20
21.2477360517176
 30
0.0
 11
5.858250274041608
 21
17.56021681981031
 31
0.0
  0
LINE
  5
39695
330
39808
100
AcDbEntity
  8
0
  6
Continuous
 62
     7
370
     0
100
AcDbLine
 10
5.918250274041611
 20
14.26021681981035
 30
0.0
 11
5.918250274041611
 21
13.06021681981031
 31
0.0
  0
LINE
  5
39696
330
39808
100
AcDbEntity
  8
0
  6
Continuous
 62
     7
370
     0
100
AcDbLine
 10
5.868250274041628
 20
14.26021681981035
 30
0.0
 11
5.868250274041628
 21
13.06021681981031
 31
0.0
  0
LINE
  5
39697
330
39808
100
AcDbEntity
  8
0
  6
Continuous
 62
     7
370
     0
100
AcDbLine
 10
5.968250274041622
 20
14.26021681981035
 30
0.0
 11
5.968250274041622
 21
13.06021681981031
 31
0.0
  0
LINE
  5
39698
330
39808
100
AcDbEntity
  8
0
  6
Continuous
 62
     7
370
     0
100
AcDbLine
 10
5.968250274041622
 20
17.46021681981034
 30
0.0
 11
5.968250274041622
 21
16.26021681981035
 31
0.0
  0
LINE
  5
39699
330
39808
100
AcDbEntity
  8
0
  6
Continuous
 62
     7
370
     0
100
AcDbLine
 10
5.868250274041628
 20
17.46021681981034
 30
0.0
 11
5.868250274041628
 21
16.26021681981035
 31
0.0
  0
LINE
  5
3969B
330
39808
100
AcDbEntity
  8
0
  6
Continuous
 62
     7
370
    13
100
AcDbLine
 10
12.71825027404162
 20
35.58021681981035
 30
0.0
 11
12.71825027404162
 21
33.48021681981033
 31
0.0
  0
LINE
  5
3969C
330
39808
100
AcDbEntity
  8
0
  6
Continuous
 62
     7
370
    13
100
AcDbLine
 10
12.56825027404161
 20
35.58021681981035
 30
0.0
 11
12.56825027404161
 21
33.48021681981033
 31
0.0
  0
LINE
  5
3969D
330
39808
100
AcDbEntity
  8
0
  6
Continuous
 62
     7
370
    13
100
AcDbLine
 10
8.768250274041605
 20
35.58021681981035
 30
0.0
 11
8.768250274041605
 21
33.48021681981033
 31
0.0
  0
LINE
  5
3969E
330
39808
100
AcDbEntity
  8
0
  6
Continuous
 62
     7
370
    13
100
AcDbLine
 10
8.618250274041599
 20
35.58021681981035
 30
0.0
 11
8.618250274041599
 21
33.48021681981033
 31
0.0
  0
LINE
  5
3969F
330
39808
100
AcDbEntity
  8
0
  6
Continuous
 62
     7
370
    13
100
AcDbLine
 10
8.768250274041605
 20
29.8802168198103
 30
0.0
 11
15.51825027404163
 21
29.8802168198103
 31
0.0
  0
LINE
  5
396A0
330
39808
100
AcDbEntity
  8
0
  6
Continuous
 62
     7
370
    13
100
AcDbLine
 10
8.618250274041599
 20
29.73021681981033
 30
0.0
 11
15.51825027404163
 21
29.73021681981033
 31
0.0
  0
LINE
  5
396A1
330
39808
100
AcDbEntity
  8
0
  6
Continuous
 62
     7
370
    13
100
AcDbLine
 10
8.768250274041605
 20
32.3802168198103
 30
0.0
 11
12.56825027404159
 21
32.3802168198103
 31
0.0
  0
LINE
  5
396A2
330
39808
100
AcDbEntity
  8
0
  6
Continuous
 62
     7
370
    13
100
AcDbLine
 10
8.768250274041605
 20
32.23021681981033
 30
0.0
 11
12.56825027404159
 21
32.23021681981033
 31
0.0
  0
LINE
  5
396A3
330
39808
100
AcDbEntity
  8
0
  6
Continuous
 62
     7
370
     0
100
AcDbLine
 10
8.738250274041604
 20
12.86021681981032
 30
0.0
 11
8.738250274041604
 21
13.86021681981032
 31
0.0
  0
LINE
  5
396A4
330
39808
100
AcDbEntity
  8
0
  6
Continuous
 62
     7
370
     0
100
AcDbLine
 10
5.968250274041622
 20
16.16021681981033
 30
0.0
 11
6.738250274041604
 21
16.16021681981033
 31
0.0
  0
LINE
  5
396A5
330
39808
100
AcDbEntity
  8
0
  6
Continuous
 62
     7
370
     0
100
AcDbLine
 10
5.968250274041622
 20
16.26021681981035
 30
0.0
 11
6.738250274041604
 21
16.26021681981035
 31
0.0
  0
LINE
  5
396A6
330
39808
100
AcDbEntity
  8
0
  6
Continuous
 62
     7
370
     0
100
AcDbLine
 10
8.838250274041598
 20
12.86021681981032
 30
0.0
 11
8.838250274041598
 21
13.86021681981032
 31
0.0
  0
LINE
  5
396A8
330
39808
100
AcDbEntity
  8
0
  6
Continuous
 62
     7
370
     0
100
AcDbLine
 10
7.938250274041593
 20
16.16021681981033
 30
0.0
 11
8.738250274041604
 21
16.16021681981033
 31
0.0
  0
LINE
  5
396A9
330
39808
100
AcDbEntity
  8
0
  6
Continuous
 62
     7
370
     0
100
AcDbLine
 10
7.938250274041593
 20
16.26021681981035
 30
0.0
 11
8.838250274041598
 21
16.26021681981035
 31
0.0
  0
LINE
  5
396AE
330
39808
100
AcDbEntity
  8
0
  6
Continuous
 62
     7
370
     0
100
AcDbLine
 10
5.968250274041622
 20
16.21021681981034
 30
0.0
 11
6.63825027404161
 21
16.21021681981034
 31
0.0
  0
LINE
  5
396AF
330
39808
100
AcDbEntity
  8
0
  6
Continuous
 62
     7
370
     0
100
AcDbLine
 10
8.038250274041587
 20
16.21021681981034
 30
0.0
 11
8.738250274041604
 21
16.21021681981034
 31
0.0
  0
LINE
  5
396B0
330
39808
100
AcDbEntity
  8
0
  6
Continuous
 62
     7
370
     0
100
AcDbLine
 10
8.788250274041587
 20
16.16021681981033
 30
0.0
 11
8.788250274041587
 21
15.26021681981035
 31
0.0
  0
LINE
  5
396B2
330
39808
100
AcDbEntity
  8
0
  6
Continuous
 62
     7
370
     0
100
AcDbLine
 10
8.738250274041604
 20
15.26021681981035
 30
0.0
 11
8.738250274041604
 21
16.16021681981033
 31
0.0
  0
LINE
  5
396B3
330
39808
100
AcDbEntity
  8
0
  6
Continuous
 62
     7
370
     0
100
AcDbLine
 10
8.838250274041598
 20
15.26021681981035
 30
0.0
 11
8.838250274041598
 21
16.26021681981035
 31
0.0
  0
LINE
  5
396B4
330
39808
100
AcDbEntity
  8
0
  6
Continuous
 62
     7
370
     0
100
AcDbLine
 10
8.788250274041587
 20
13.86021681981032
 30
0.0
 11
8.788250274041587
 21
12.96021681981034
 31
0.0
  0
LINE
  5
396BB
330
39808
100
AcDbEntity
  8
0
  6
Continuous
 62
     7
370
    13
100
AcDbLine
 10
7.938250274041593
 20
22.46021681981034
 30
0.0
 11
8.038250274041587
 21
22.46021681981034
 31
0.0
  0
LINE
  5
396BC
330
39808
100
AcDbEntity
  8
0
  6
Continuous
 62
     7
370
    13
100
AcDbLine
 10
15.51825027404163
 20
29.8802168198103
 30
0.0
 11
15.51825027404163
 21
29.73021681981033
 31
0.0
  0
LINE
  5
396BD
330
39808
100
AcDbEntity
  8
0
  6
Continuous
 62
     7
370
    13
100
AcDbLine
 10
17.21825027404162
 20
29.8802168198103
 30
0.0
 11
17.21825027404162
 21
29.73021681981033
 31
0.0
  0
LINE
  5
396BE
330
39808
100
AcDbEntity
  8
0
  6
Continuous
 62
     7
370
    13
100
AcDbLine
 10
17.21825027404162
 20
29.8802168198103
 30
0.0
 11
18.03637521641289
 21
29.8802168198103
 31
0.0
  0
LINE
  5
396BF
330
39808
100
AcDbEntity
  8
0
  6
Continuous
 62
     7
370
    13
100
AcDbLine
 10
17.21825027404162
 20
29.73021681981033
 30
0.0
 11
18.04147036383574
 21
29.73021681981033
 31
0.0
  0
LINE
  5
396C0
330
39808
100
AcDbEntity
  8
0
  6
Continuous
 62
     7
370
    13
100
AcDbLine
 10
8.618250274041599
 20
32.48021681981033
 30
0.0
 11
8.768250274041605
 21
32.48021681981033
 31
0.0
  0
LINE
  5
396C1
330
39808
100
AcDbEntity
  8
0
  6
Continuous
 62
     7
370
    13
100
AcDbLine
 10
8.618250274041599
 20
33.48021681981033
 30
0.0
 11
8.768250274041605
 21
33.48021681981033
 31
0.0
  0
LINE
  5
396C2
330
39808
100
AcDbEntity
  8
0
  6
Continuous
 62
     7
370
    13
100
AcDbLine
 10
12.56825027404161
 20
33.48021681981033
 30
0.0
 11
12.71825027404162
 21
33.48021681981033
 31
0.0
  0
LINE
  5
396C3
330
39808
100
AcDbEntity
  8
0
  6
Continuous
 62
     7
370
    13
100
AcDbLine
 10
12.56825027404161
 20
32.48021681981033
 30
0.0
 11
12.71825027404162
 21
32.48021681981033
 31
0.0
  0
LINE
  5
396C4
330
39808
100
AcDbEntity
  8
0
  6
Continuous
 62
     7
370
    13
100
AcDbLine
 10
8.768250274041605
 20
32.48021681981033
 30
0.0
 11
8.768250274041605
 21
31.48021681981032
 31
0.0
  0
LINE
  5
396C5
330
39808
100
AcDbEntity
  8
0
  6
Continuous
 62
     7
370
    13
100
AcDbLine
 10
8.618250274041599
 20
32.48021681981033
 30
0.0
 11
8.618250274041599
 21
31.48021681981032
 31
0.0
  0
LINE
  5
396C6
330
39808
100
AcDbEntity
  8
0
  6
Continuous
 62
     7
370
    13
100
AcDbLine
 10
12.56825027404161
 20
32.48021681981033
 30
0.0
 11
12.56825027404161
 21
31.8802168198103
 31
0.0
  0
LINE
  5
396C7
330
39808
100
AcDbEntity
  8
0
  6
Continuous
 62
     7
370
    13
100
AcDbLine
 10
12.71825027404162
 20
32.48021681981033
 30
0.0
 11
12.71825027404162
 21
31.8802168198103
 31
0.0
  0
LINE
  5
396C8
330
39808
100
AcDbEntity
  8
0
  6
Continuous
 62
     7
370
    13
100
AcDbLine
 10
12.56825027404161
 20
31.8802168198103
 30
0.0
 11
12.71825027404162
 21
31.8802168198103
 31
0.0
  0
LINE
  5
396C9
330
39808
100
AcDbEntity
  8
0
  6
Continuous
 62
     7
370
    13
100
AcDbLine
 10
12.56825027404161
 20
30.8802168198103
 30
0.0
 11
12.71825027404162
 21
30.8802168198103
 31
0.0
  0
LINE
  5
396CA
330
39808
100
AcDbEntity
  8
0
  6
Continuous
 62
     7
370
    13
100
AcDbLine
 10
12.56825027404161
 20
30.8802168198103
 30
0.0
 11
12.56825027404161
 21
29.8802168198103
 31
0.0
  0
LINE
  5
396CB
330
39808
100
AcDbEntity
  8
0
  6
Continuous
 62
     7
370
    13
100
AcDbLine
 10
12.71825027404162
 20
30.8802168198103
 30
0.0
 11
12.71825027404162
 21
29.8802168198103
 31
0.0
  0
LINE
  5
396CC
330
39808
100
AcDbEntity
  8
0
  6
Continuous
 62
     7
370
    13
100
AcDbLine
 10
8.618250274041599
 20
30.48021681981032
 30
0.0
 11
8.768250274041605
 21
30.48021681981032
 31
0.0
  0
LINE
  5
396CD
330
39808
100
AcDbEntity
  8
0
  6
Continuous
 62
     7
370
    13
100
AcDbLine
 10
8.618250274041599
 20
31.48021681981032
 30
0.0
 11
8.768250274041605
 21
31.48021681981032
 31
0.0
  0
LINE
  5
396CE
330
39808
100
AcDbEntity
  8
0
  6
Continuous
 62
     7
370
    13
100
AcDbLine
 10
8.618250274041599
 20
30.48021681981032
 30
0.0
 11
8.618250274041599
 21
29.73021681981033
 31
0.0
  0
LINE
  5
396CF
330
39808
100
AcDbEntity
  8
0
  6
Continuous
 62
     7
370
    13
100
AcDbLine
 10
8.768250274041605
 20
30.48021681981032
 30
0.0
 11
8.768250274041605
 21
29.8802168198103
 31
0.0
  0
LINE
  5
396D0
330
39808
100
AcDbEntity
  8
0
  6
Continuous
 62
     7
370
    13
100
AcDbLine
 10
14.77825027404162
 20
35.58021681981035
 30
0.0
 11
14.77825027404162
 21
35.18021681981031
 31
0.0
  0
LINE
  5
396D1
330
39808
100
AcDbEntity
  8
0
  6
Continuous
 62
     7
370
    13
100
AcDbLine
 10
14.77825027404162
 20
35.18021681981031
 30
0.0
 11
15.21825027404162
 21
35.18021681981031
 31
0.0
  0
LINE
  5
396D2
330
39808
100
AcDbEntity
  8
0
  6
Continuous
 62
     7
370
    13
100
AcDbLine
 10
14.85825027404161
 20
35.58021681981035
 30
0.0
 11
14.85825027404161
 21
35.26021681981035
 31
0.0
  0
LINE
  5
396D3
330
39808
100
AcDbEntity
  8
0
  6
Continuous
 62
     7
370
    13
100
AcDbLine
 10
14.85825027404161
 20
35.26021681981035
 30
0.0
 11
15.21825027404162
 21
35.26021681981035
 31
0.0
  0
LINE
  5
396D5
330
39808
100
AcDbEntity
  8
0
  6
Continuous
 62
     7
370
    13
100
AcDbLine
 10
18.04147036383574
 20
29.86021681981043
 30
0.0
 11
18.04147036383574
 21
29.73021681981033
 31
0.0
  0
LINE
  5
396E6
330
39808
100
AcDbEntity
  8
0
  6
Continuous
 62
     7
370
    13
100
AcDbLine
 10
4.658250274041563
 20
26.48021681981032
 30
0.0
 11
4.658250274041563
 21
21.3802168198103
 31
0.0
  0
LINE
  5
396E7
330
39808
100
AcDbEntity
  8
0
  6
Continuous
 62
     7
370
    13
100
AcDbLine
 10
6.018250274041577
 20
28.98021681981033
 30
0.0
 11
5.720543946204003
 21
28.43296254069713
 31
0.0
  0
LINE
  5
396E8
330
39808
100
AcDbEntity
  8
0
  6
Continuous
 62
     7
370
    13
100
AcDbLine
 10
5.84749149681474
 20
28.98021681981033
 30
0.0
 11
5.588779123537733
 21
28.50464260422757
 31
0.0
  0
LINE
  5
396E9
330
39808
100
AcDbEntity
  8
0
  6
Continuous
 62
     7
370
    13
100
AcDbLine
 10
5.588779123537733
 20
28.50464260422757
 30
0.0
 11
5.720543946204003
 21
28.43296254069713
 31
0.0
  0
LINE
  5
396EA
330
39808
100
AcDbEntity
  8
0
  6
Continuous
 62
     7
370
    13
100
AcDbLine
 10
4.824191779212952
 20
27.09915116245412
 30
0.0
 11
4.955956601879194
 21
27.02747109892368
 31
0.0
  0
LINE
  5
396EB
330
39808
100
AcDbEntity
  8
0
  6
Continuous
 62
     7
370
    13
100
AcDbLine
 10
4.824191779212952
 20
27.09915116245412
 30
0.0
 11
4.508250274041557
 21
26.51837633677144
 31
0.0
  0
LINE
  5
396EC
330
39808
100
AcDbEntity
  8
0
  6
Continuous
 62
     7
370
    13
100
AcDbLine
 10
4.955956601879194
 20
27.02747109892368
 30
0.0
 11
4.658250274041563
 21
26.48021681981032
 31
0.0
  0
LINE
  5
39772
330
39808
100
AcDbEntity
  8
0
  6
Continuous
 62
     7
370
     0
100
AcDbLine
 10
7.018250274041577
 20
35.83521681981034
 30
0.0
 11
8.498250274041623
 21
35.83521681981034
 31
0.0
  0
LINE
  5
39773
330
39808
100
AcDbEntity
  8
0
  6
Continuous
 62
     7
370
     0
100
AcDbLine
 10
7.018250274041577
 20
35.83521681981034
 30
0.0
 11
7.357661529011124
 21
36.17462807477995
 31
0.0
  0
LINE
  5
39774
330
39808
100
AcDbEntity
  8
0
  6
Continuous
 62
     7
370
     0
100
AcDbLine
 10
8.498250274041623
 20
35.83521681981034
 30
0.0
 11
7.791143492855042
 21
36.54232360099684
 31
0.0
  0
ARC
  5
39775
330
39808
100
AcDbEntity
  8
0
  6
Continuous
 62
     7
370
     0
100
AcDbCircle
 10
7.018250274041577
 20
35.83521681981034
 30
0.0
 40
0.4800000000000467
100
AcDbArc
 50
359.9999999999935
 51
45.0
  0
ARC
  5
39776
330
39808
100
AcDbEntity
  8
0
  6
Continuous
 62
     7
370
     0
100
AcDbCircle
 10
8.498250274041623
 20
35.83521681981034
 30
0.0
 40
1.0
100
AcDbArc
 50
135.0000000000034
 51
180.0000000000065
  0
LINE
  5
39777
330
39808
100
AcDbEntity
  8
0
  6
Continuous
 62
     7
370
     0
100
AcDbLine
 10
8.693250274041616
 20
33.48021681981033
 30
0.0
 11
8.693250274041616
 21
32.48021681981033
 31
0.0
  0
LINE
  5
39778
330
39808
100
AcDbEntity
  8
0
  6
Continuous
 62
     7
370
     0
100
AcDbLine
 10
8.693250274041616
 20
32.48021681981033
 30
0.0
 11
7.986143492855063
 21
33.18732360099688
 31
0.0
  0
ARC
  5
39779
330
39808
100
AcDbEntity
  8
0
  6
Continuous
 62
     7
370
     0
100
AcDbCircle
 10
8.693250274041616
 20
32.48021681981033
 30
0.0
 40
1.0
100
AcDbArc
 50
90.00000000000161
 51
135.0
  0
LINE
  5
3977A
330
39808
100
AcDbEntity
  8
0
  6
Continuous
 62
     7
370
     0
100
AcDbLine
 10
8.693250274041616
 20
31.48021681981032
 30
0.0
 11
8.693250274041616
 21
30.48021681981032
 31
0.0
  0
LINE
  5
3977B
330
39808
100
AcDbEntity
  8
0
  6
Continuous
 62
     7
370
     0
100
AcDbLine
 10
8.693250274041616
 20
30.48021681981032
 30
0.0
 11
7.986143492855063
 21
31.18732360099688
 31
0.0
  0
ARC
  5
3977C
330
39808
100
AcDbEntity
  8
0
  6
Continuous
 62
     7
370
     0
100
AcDbCircle
 10
8.693250274041616
 20
30.48021681981032
 30
0.0
 40
1.0
100
AcDbArc
 50
90.00000000000161
 51
135.0
  0
LINE
  5
3977D
330
39808
100
AcDbEntity
  8
0
  6
Continuous
 62
     7
370
     0
100
AcDbLine
 10
12.6432502740416
 20
33.48021681981033
 30
0.0
 11
12.6432502740416
 21
32.48021681981033
 31
0.0
  0
LINE
  5
3977E
330
39808
100
AcDbEntity
  8
0
  6
Continuous
 62
     7
370
     0
100
AcDbLine
 10
12.6432502740416
 20
32.48021681981033
 30
0.0
 11
11.93614349285505
 21
33.18732360099688
 31
0.0
  0
ARC
  5
3977F
330
39808
100
AcDbEntity
  8
0
  6
Continuous
 62
     7
370
     0
100
AcDbCircle
 10
12.6432502740416
 20
32.48021681981033
 30
0.0
 40
1.0
100
AcDbArc
 50
90.00000000000161
 51
135.0
  0
LINE
  5
39780
330
39808
100
AcDbEntity
  8
0
  6
Continuous
 62
     7
370
     0
100
AcDbLine
 10
12.6432502740416
 20
31.8802168198103
 30
0.0
 11
12.6432502740416
 21
30.8802168198103
 31
0.0
  0
LINE
  5
39781
330
39808
100
AcDbEntity
  8
0
  6
Continuous
 62
     7
370
     0
100
AcDbLine
 10
12.6432502740416
 20
31.8802168198103
 30
0.0
 11
11.93614349285511
 21
31.17311003862381
 31
0.0
  0
ARC
  5
39782
330
39808
100
AcDbEntity
  8
0
  6
Continuous
 62
     7
370
     0
100
AcDbCircle
 10
12.6432502740416
 20
31.8802168198103
 30
0.0
 40
1.0
100
AcDbArc
 50
225.0000000000011
 51
269.9999999999984
  0
LINE
  5
39783
330
39808
100
AcDbEntity
  8
0
  6
Continuous
 62
     7
370
     0
100
AcDbLine
 10
15.51825027404163
 20
29.80521681981031
 30
0.0
 11
17.21825027404162
 21
29.80521681981031
 31
0.0
  0
LINE
  5
39784
330
39808
100
AcDbEntity
  8
0
  6
Continuous
 62
     7
370
     0
100
AcDbLine
 10
15.51825027404163
 20
29.80521681981031
 30
0.0
 11
16.01322502087223
 21
29.31024207297975
 31
0.0
  0
LINE
  5
39785
330
39808
100
AcDbEntity
  8
0
  6
Continuous
 62
     7
370
     0
100
AcDbLine
 10
17.21825027404162
 20
29.80521681981031
 30
0.0
 11
16.51114349285504
 21
29.09811003862382
 31
0.0
  0
ARC
  5
39786
330
39808
100
AcDbEntity
  8
0
  6
Continuous
 62
     7
370
     0
100
AcDbCircle
 10
17.21825027404162
 20
29.80521681981031
 30
0.0
 40
1.0
100
AcDbArc
 50
180.0000000000032
 51
224.9999999999965
  0
ARC
  5
39787
330
39808
100
AcDbEntity
  8
0
  6
Continuous
 62
     7
370
     0
100
AcDbCircle
 10
15.51825027404163
 20
29.80521681981031
 30
0.0
 40
0.6999999999999768
100
AcDbArc
 50
315.0000000000034
 51
0.0
  0
LINE
  5
3978A
330
39808
100
AcDbEntity
  8
0
  6
Continuous
 62
     7
370
     0
100
AcDbLine
 10
5.654661534870882
 20
28.46880257246238
 30
0.0
 11
4.890074190546073
 21
27.06331113068893
 31
0.0
  0
LINE
  5
3978B
330
39808
100
AcDbEntity
  8
0
  6
Continuous
 62
     7
370
     0
100
AcDbLine
 10
5.654661534870882
 20
28.46880257246238
 30
0.0
 11
5.881255351568995
 21
27.70156385978277
 31
0.0
  0
LINE
  5
3978C
330
39808
100
AcDbEntity
  8
0
  6
Continuous
 62
     7
370
     0
100
AcDbLine
 10
5.657312903225687
 20
27.28990494738696
 30
0.0
 11
4.890074190546073
 21
27.06331113068893
 31
0.0
  0
ARC
  5
3978D
330
39808
100
AcDbEntity
  8
0
  6
Continuous
 62
     7
370
     0
100
AcDbCircle
 10
5.654661534870882
 20
28.46880257246238
 30
0.0
 40
0.8000000000000145
100
AcDbArc
 50
241.453809268954
 51
286.4538092689561
  0
ARC
  5
3978E
330
39808
100
AcDbEntity
  8
0
  6
Continuous
 62
     7
370
     0
100
AcDbCircle
 10
4.890074190546073
 20
27.06331113068893
 30
0.0
 40
0.8000000000000657
100
AcDbArc
 50
16.4538092689556
 51
61.45380926895843
  0
LINE
  5
3A271
330
39808
100
AcDbEntity
  8
0
  6
DGN Style 3
 62
   251
370
     0
100
AcDbLine
 10
6.018250274041577
 20
30.3802168198103
 30
0.0
 11
17.8509810663937
 21
30.3802168198103
 31
0.0
  0
LINE
  5
3A272
330
39808
100
AcDbEntity
  8
0
  6
DGN Style 3
 62
   251
370
     0
100
AcDbLine
 10
6.018250274041577
 20
29.8802168198103
 30
0.0
 11
18.03637521641292
 21
29.8802168198103
 31
0.0
  0
LINE
  5
3A274
330
39808
100
AcDbEntity
  8
0
  6
DGN Style 3
 62
   251
370
     0
100
AcDbLine
 10
2.508250274041557
 20
21.66021681981022
 30
0.0
 11
26.73825027404161
 21
21.66021681981022
 31
0.0
  0
LINE
  5
3A275
330
39808
100
AcDbEntity
  8
0
  6
DGN Style 3
 62
   251
370
     0
100
AcDbLine
 10
2.508250274041557
 20
21.16021681981022
 30
0.0
 11
26.73825027404161
 21
21.16021681981022
 31
0.0
  0
LINE
  5
3A552
330
39808
100
AcDbEntity
  8
0
  6
Continuous
 62
     7
370
    13
100
AcDbLine
 10
8.038250274041587
 20
16.26021681981035
 30
0.0
 11
7.938250274041593
 21
16.26021681981035
 31
0.0
  0
LINE
  5
3A553
330
39808
100
AcDbEntity
  8
0
  6
Continuous
 62
     7
370
    13
100
AcDbLine
 10
7.938250274041593
 20
22.46021681981034
 30
0.0
 11
7.938250274041593
 21
16.16021681981033
 31
0.0
  0
LINE
  5
3A554
330
39808
100
AcDbEntity
  8
0
  6
Continuous
 62
     7
370
    13
100
AcDbLine
 10
7.938250274041593
 20
16.16021681981033
 30
0.0
 11
8.038250274041587
 21
16.16021681981033
 31
0.0
  0
LINE
  5
3A555
330
39808
100
AcDbEntity
  8
0
  6
Continuous
 62
     7
370
    13
100
AcDbLine
 10
8.038250274041587
 20
16.16021681981033
 30
0.0
 11
8.038250274041587
 21
22.46021681981034
 31
0.0
  0
LINE
  5
3A556
330
39808
100
AcDbEntity
  8
0
  6
Continuous
 62
     7
370
     0
100
AcDbLine
 10
7.212343269770968
 20
12.95333683670202
 30
0.0
 11
7.910743850214828
 21
12.95333683670202
 31
0.0
  0
LINE
  5
3A557
330
39808
100
AcDbEntity
  8
0
  6
Continuous
 62
     7
370
     0
100
AcDbLine
 10
7.910743850214828
 20
12.95333683670202
 30
0.0
 11
7.910743850214828
 21
12.91128419444078
 31
0.0
  0
LINE
  5
3A558
330
39808
100
AcDbEntity
  8
0
  6
Continuous
 62
     7
370
     0
100
AcDbLine
 10
7.910743850214828
 20
12.91128419444078
 30
0.0
 11
7.212343269770968
 21
12.91128419444078
 31
0.0
  0
LINE
  5
3A559
330
39808
100
AcDbEntity
  8
0
  6
Continuous
 62
     7
370
     0
100
AcDbLine
 10
7.212343269770968
 20
12.91128419444078
 30
0.0
 11
7.212343269770968
 21
12.95333683670202
 31
0.0
  0
LINE
  5
3A55A
330
39808
100
AcDbEntity
  8
0
  6
Continuous
 62
     7
370
     0
100
AcDbLine
 10
7.212343269770968
 20
12.95333683670202
 30
0.0
 11
7.212343269770968
 21
12.95333683670202
 31
0.0
  0
LINE
  5
3A55B
330
39808
100
AcDbEntity
  8
0
  6
Continuous
 62
     7
370
     0
100
AcDbLine
 10
6.885871271058107
 20
12.95333683670202
 30
0.0
 11
6.187470690614247
 21
12.95333683670202
 31
0.0
  0
LINE
  5
3A55C
330
39808
100
AcDbEntity
  8
0
  6
Continuous
 62
     7
370
     0
100
AcDbLine
 10
6.187470690614247
 20
12.95333683670202
 30
0.0
 11
6.187470690614247
 21
12.91128419444078
 31
0.0
  0
LINE
  5
3A55D
330
39808
100
AcDbEntity
  8
0
  6
Continuous
 62
     7
370
     0
100
AcDbLine
 10
6.187470690614247
 20
12.91128419444078
 30
0.0
 11
6.885871271058107
 21
12.91128419444078
 31
0.0
  0
LINE
  5
3A55E
330
39808
100
AcDbEntity
  8
0
  6
Continuous
 62
     7
370
     0
100
AcDbLine
 10
6.885871271058107
 20
12.91128419444078
 30
0.0
 11
6.885871271058107
 21
12.95333683670202
 31
0.0
  0
LINE
  5
3A55F
330
39808
100
AcDbEntity
  8
0
  6
Continuous
 62
     7
370
     0
100
AcDbLine
 10
6.885871271058107
 20
12.95333683670202
 30
0.0
 11
6.885871271058107
 21
12.95333683670202
 31
0.0
  0
LINE
  5
3A560
330
39808
100
AcDbEntity
  8
0
  6
DGN Style 3
 62
     7
370
     0
100
AcDbLine
 10
5.654705163209541
 20
28.82494997084786
 30
0.0
 11
5.654705163209541
 21
28.94528209782368
 31
0.0
  0
LINE
  5
3A561
330
39808
100
AcDbEntity
  8
0
  6
DGN Style 3
 62
     7
370
     0
100
AcDbLine
 10
5.654705163209541
 20
28.94528209782368
 30
0.0
 11
3.754705163209507
 21
28.94528209782368
 31
0.0
  0
LINE
  5
3A562
330
39808
100
AcDbEntity
  8
0
  6
DGN Style 3
 62
     7
370
     0
100
AcDbLine
 10
3.754705163209507
 20
28.94528209782368
 30
0.0
 11
3.754705163209507
 21
28.82494997084786
 31
0.0
  0
LINE
  5
3A563
330
39808
100
AcDbEntity
  8
0
  6
DGN Style 3
 62
     7
370
     0
100
AcDbLine
 10
3.754705163209507
 20
28.82494997084786
 30
0.0
 11
5.654705163209541
 21
28.82494997084786
 31
0.0
  0
LINE
  5
3A564
330
39808
100
AcDbEntity
  8
0
  6
DGN Style 3
 62
     7
370
     0
100
AcDbLine
 10
5.654705163209541
 20
28.82494997084786
 30
0.0
 11
5.654705163209541
 21
28.82494997084786
 31
0.0
  0
LINE
  5
3A565
330
39808
100
AcDbEntity
  8
0
  6
Continuous
 62
     7
370
     0
100
AcDbLine
 10
8.878842307915078
 20
14.39282075679966
 30
0.0
 11
8.878842307915078
 21
13.69442017635572
 31
0.0
  0
LINE
  5
3A566
330
39808
100
AcDbEntity
  8
0
  6
Continuous
 62
     7
370
     0
100
AcDbLine
 10
8.878842307915078
 20
13.69442017635572
 30
0.0
 11
8.92089495017629
 21
13.69442017635572
 31
0.0
  0
LINE
  5
3A567
330
39808
100
AcDbEntity
  8
0
  6
Continuous
 62
     7
370
     0
100
AcDbLine
 10
8.92089495017629
 20
13.69442017635572
 30
0.0
 11
8.92089495017629
 21
14.39282075679966
 31
0.0
  0
LINE
  5
3A568
330
39808
100
AcDbEntity
  8
0
  6
Continuous
 62
     7
370
     0
100
AcDbLine
 10
8.92089495017629
 20
14.39282075679966
 30
0.0
 11
8.878842307915078
 21
14.39282075679966
 31
0.0
  0
LINE
  5
3A569
330
39808
100
AcDbEntity
  8
0
  6
Continuous
 62
     7
370
     0
100
AcDbLine
 10
8.878842307915078
 20
14.39282075679966
 30
0.0
 11
8.878842307915078
 21
14.39282075679966
 31
0.0
  0
LINE
  5
3A56A
330
39808
100
AcDbEntity
  8
0
  6
Continuous
 62
     7
370
     0
100
AcDbLine
 10
8.878842307915078
 20
14.71929275551253
 30
0.0
 11
8.878842307915078
 21
15.41769333595636
 31
0.0
  0
LINE
  5
3A56B
330
39808
100
AcDbEntity
  8
0
  6
Continuous
 62
     7
370
     0
100
AcDbLine
 10
8.878842307915078
 20
15.41769333595636
 30
0.0
 11
8.92089495017629
 21
15.41769333595636
 31
0.0
  0
LINE
  5
3A56C
330
39808
100
AcDbEntity
  8
0
  6
Continuous
 62
     7
370
     0
100
AcDbLine
 10
8.92089495017629
 20
15.41769333595636
 30
0.0
 11
8.92089495017629
 21
14.71929275551253
 31
0.0
  0
LINE
  5
3A56D
330
39808
100
AcDbEntity
  8
0
  6
Continuous
 62
     7
370
     0
100
AcDbLine
 10
8.92089495017629
 20
14.71929275551253
 30
0.0
 11
8.878842307915078
 21
14.71929275551253
 31
0.0
  0
LINE
  5
3A56E
330
39808
100
AcDbEntity
  8
0
  6
Continuous
 62
     7
370
     0
100
AcDbLine
 10
8.878842307915078
 20
14.71929275551253
 30
0.0
 11
8.878842307915078
 21
14.71929275551253
 31
0.0
  0
LINE
  5
3A56F
330
39808
100
AcDbEntity
  8
0
  6
Continuous
 62
     7
370
     0
100
AcDbLine
 10
7.501486273398029
 20
16.12663737781423
 30
0.0
 11
8.199886853841888
 21
16.12663737781423
 31
0.0
  0
LINE
  5
3A570
330
39808
100
AcDbEntity
  8
0
  6
Continuous
 62
     7
370
     0
100
AcDbLine
 10
8.199886853841888
 20
16.12663737781423
 30
0.0
 11
8.199886853841888
 21
16.08458473555305
 31
0.0
  0
LINE
  5
3A571
330
39808
100
AcDbEntity
  8
0
  6
Continuous
 62
     7
370
     0
100
AcDbLine
 10
8.199886853841888
 20
16.08458473555305
 30
0.0
 11
7.501486273398029
 21
16.08458473555305
 31
0.0
  0
LINE
  5
3A572
330
39808
100
AcDbEntity
  8
0
  6
Continuous
 62
     7
370
     0
100
AcDbLine
 10
7.501486273398029
 20
16.08458473555305
 30
0.0
 11
7.501486273398029
 21
16.12663737781423
 31
0.0
  0
LINE
  5
3A573
330
39808
100
AcDbEntity
  8
0
  6
Continuous
 62
     7
370
     0
100
AcDbLine
 10
7.501486273398029
 20
16.12663737781423
 30
0.0
 11
7.501486273398029
 21
16.12663737781423
 31
0.0
  0
LINE
  5
3A574
330
39808
100
AcDbEntity
  8
0
  6
Continuous
 62
     7
370
     0
100
AcDbLine
 10
7.175014274685196
 20
16.12663737781423
 30
0.0
 11
6.476613694241336
 21
16.12663737781423
 31
0.0
  0
LINE
  5
3A575
330
39808
100
AcDbEntity
  8
0
  6
Continuous
 62
     7
370
     0
100
AcDbLine
 10
6.476613694241336
 20
16.12663737781423
 30
0.0
 11
6.476613694241336
 21
16.08458473555305
 31
0.0
  0
LINE
  5
3A576
330
39808
100
AcDbEntity
  8
0
  6
Continuous
 62
     7
370
     0
100
AcDbLine
 10
6.476613694241336
 20
16.08458473555305
 30
0.0
 11
7.175014274685196
 21
16.08458473555305
 31
0.0
  0
LINE
  5
3A577
330
39808
100
AcDbEntity
  8
0
  6
Continuous
 62
     7
370
     0
100
AcDbLine
 10
7.175014274685196
 20
16.08458473555305
 30
0.0
 11
7.175014274685196
 21
16.12663737781423
 31
0.0
  0
LINE
  5
3A578
330
39808
100
AcDbEntity
  8
0
  6
Continuous
 62
     7
370
     0
100
AcDbLine
 10
7.175014274685196
 20
16.12663737781423
 30
0.0
 11
7.175014274685196
 21
16.12663737781423
 31
0.0
  0
LINE
  5
3A579
330
39808
100
AcDbEntity
  8
0
  6
Continuous
 62
     7
370
    13
100
AcDbLine
 10
8.838250274041598
 20
12.86021681981032
 30
0.0
 11
8.838250274041598
 21
12.96021681981034
 31
0.0
  0
LINE
  5
3A57A
330
39808
100
AcDbEntity
  8
0
  6
Continuous
 62
     7
370
    13
100
AcDbLine
 10
8.838250274041598
 20
12.96021681981034
 30
0.0
 11
8.838250274041598
 21
12.96021681981034
 31
0.0
  0
LINE
  5
3A57B
330
39808
100
AcDbEntity
  8
0
  6
Continuous
 62
     7
370
    13
100
AcDbLine
 10
8.838250274041598
 20
12.96021681981034
 30
0.0
 11
8.738250274041604
 21
12.96021681981034
 31
0.0
  0
LINE
  5
3A57C
330
39808
100
AcDbEntity
  8
0
  6
Continuous
 62
     7
370
    13
100
AcDbLine
 10
8.738250274041604
 20
12.96021681981034
 30
0.0
 11
8.738250274041604
 21
12.86021681981032
 31
0.0
  0
LINE
  5
3A57D
330
39808
100
AcDbEntity
  8
0
  6
Continuous
 62
     7
370
    13
100
AcDbLine
 10
8.838250274041598
 20
13.96021681981034
 30
0.0
 11
8.738250274041604
 21
13.96021681981034
 31
0.0
  0
LINE
  5
3A57E
330
39808
100
AcDbEntity
  8
0
  6
Continuous
 62
     7
370
    13
100
AcDbLine
 10
8.738250274041604
 20
13.96021681981034
 30
0.0
 11
8.738250274041604
 21
13.86021681981032
 31
0.0
  0
LINE
  5
3A57F
330
39808
100
AcDbEntity
  8
0
  6
Continuous
 62
     7
370
    13
100
AcDbLine
 10
8.738250274041604
 20
13.86021681981032
 30
0.0
 11
8.838250274041598
 21
13.86021681981032
 31
0.0
  0
LINE
  5
3A580
330
39808
100
AcDbEntity
  8
0
  6
Continuous
 62
     7
370
    13
100
AcDbLine
 10
8.838250274041598
 20
13.86021681981032
 30
0.0
 11
8.838250274041598
 21
13.96021681981034
 31
0.0
  0
LINE
  5
3A581
330
39808
100
AcDbEntity
  8
0
  6
Continuous
 62
     7
370
    13
100
AcDbLine
 10
8.838250274041598
 20
13.96021681981034
 30
0.0
 11
8.838250274041598
 21
13.96021681981034
 31
0.0
  0
LINE
  5
3A582
330
39808
100
AcDbEntity
  8
0
  6
Continuous
 62
     7
370
    13
100
AcDbLine
 10
8.838250274041598
 20
15.26021681981035
 30
0.0
 11
8.738250274041604
 21
15.26021681981035
 31
0.0
  0
LINE
  5
3A583
330
39808
100
AcDbEntity
  8
0
  6
Continuous
 62
     7
370
    13
100
AcDbLine
 10
8.738250274041604
 20
15.26021681981035
 30
0.0
 11
8.738250274041604
 21
15.16021681981033
 31
0.0
  0
LINE
  5
3A584
330
39808
100
AcDbEntity
  8
0
  6
Continuous
 62
     7
370
    13
100
AcDbLine
 10
8.738250274041604
 20
15.16021681981033
 30
0.0
 11
8.838250274041598
 21
15.16021681981033
 31
0.0
  0
LINE
  5
3A585
330
39808
100
AcDbEntity
  8
0
  6
Continuous
 62
     7
370
    13
100
AcDbLine
 10
8.838250274041598
 20
15.16021681981033
 30
0.0
 11
8.838250274041598
 21
15.26021681981035
 31
0.0
  0
LINE
  5
3A586
330
39808
100
AcDbEntity
  8
0
  6
Continuous
 62
     7
370
    13
100
AcDbLine
 10
8.838250274041598
 20
15.26021681981035
 30
0.0
 11
8.838250274041598
 21
15.26021681981035
 31
0.0
  0
LINE
  5
3A587
330
39808
100
AcDbEntity
  8
0
  6
Continuous
 62
     7
370
    13
100
AcDbLine
 10
6.738250274041604
 20
16.26021681981035
 30
0.0
 11
6.63825027404161
 21
16.26021681981035
 31
0.0
  0
LINE
  5
3A588
330
39808
100
AcDbEntity
  8
0
  6
Continuous
 62
     7
370
    13
100
AcDbLine
 10
6.63825027404161
 20
16.26021681981035
 30
0.0
 11
6.63825027404161
 21
16.16021681981033
 31
0.0
  0
LINE
  5
3A589
330
39808
100
AcDbEntity
  8
0
  6
Continuous
 62
     7
370
    13
100
AcDbLine
 10
6.63825027404161
 20
16.16021681981033
 30
0.0
 11
6.738250274041604
 21
16.16021681981033
 31
0.0
  0
LINE
  5
3A58A
330
39808
100
AcDbEntity
  8
0
  6
Continuous
 62
     7
370
    13
100
AcDbLine
 10
6.738250274041604
 20
16.16021681981033
 30
0.0
 11
6.738250274041604
 21
16.26021681981035
 31
0.0
  0
LINE
  5
3A58B
330
39808
100
AcDbEntity
  8
0
  6
Continuous
 62
     7
370
    13
100
AcDbLine
 10
6.738250274041604
 20
16.26021681981035
 30
0.0
 11
6.738250274041604
 21
16.26021681981035
 31
0.0
  0
LINE
  5
3A58C
330
39808
100
AcDbEntity
  8
0
  6
Continuous
 62
     7
370
    13
100
AcDbLine
 10
8.838250274041598
 20
16.26021681981035
 30
0.0
 11
8.738250274041604
 21
16.26021681981035
 31
0.0
  0
LINE
  5
3A58D
330
39808
100
AcDbEntity
  8
0
  6
Continuous
 62
     7
370
    13
100
AcDbLine
 10
8.738250274041604
 20
16.26021681981035
 30
0.0
 11
8.738250274041604
 21
16.16021681981033
 31
0.0
  0
LINE
  5
3A58E
330
39808
100
AcDbEntity
  8
0
  6
Continuous
 62
     7
370
    13
100
AcDbLine
 10
8.738250274041604
 20
16.16021681981033
 30
0.0
 11
8.838250274041598
 21
16.16021681981033
 31
0.0
  0
LINE
  5
3A58F
330
39808
100
AcDbEntity
  8
0
  6
Continuous
 62
     7
370
    13
100
AcDbLine
 10
8.838250274041598
 20
16.16021681981033
 30
0.0
 11
8.838250274041598
 21
16.26021681981035
 31
0.0
  0
LINE
  5
3A590
330
39808
100
AcDbEntity
  8
0
  6
Continuous
 62
     7
370
    13
100
AcDbLine
 10
8.838250274041598
 20
16.26021681981035
 30
0.0
 11
8.838250274041598
 21
16.26021681981035
 31
0.0
  0
LINE
  5
3A591
330
39808
100
AcDbEntity
  8
0
  6
DGN Style 3
 62
     7
370
     0
100
AcDbLine
 10
5.868250274041628
 20
16.21021681981034
 30
0.0
 11
5.747918147065803
 21
16.21021681981034
 31
0.0
  0
LINE
  5
3A592
330
39808
100
AcDbEntity
  8
0
  6
DGN Style 3
 62
     7
370
     0
100
AcDbLine
 10
5.747918147065803
 20
16.21021681981034
 30
0.0
 11
5.747918147065803
 21
14.31021681981031
 31
0.0
  0
LINE
  5
3A593
330
39808
100
AcDbEntity
  8
0
  6
DGN Style 3
 62
     7
370
     0
100
AcDbLine
 10
5.747918147065803
 20
14.31021681981031
 30
0.0
 11
5.868250274041628
 21
14.31021681981031
 31
0.0
  0
LINE
  5
3A594
330
39808
100
AcDbEntity
  8
0
  6
DGN Style 3
 62
     7
370
     0
100
AcDbLine
 10
5.868250274041628
 20
14.31021681981031
 30
0.0
 11
5.868250274041628
 21
16.21021681981034
 31
0.0
  0
LINE
  5
3A595
330
39808
100
AcDbEntity
  8
0
  6
DGN Style 3
 62
     7
370
     0
100
AcDbLine
 10
5.868250274041628
 20
16.21021681981034
 30
0.0
 11
5.868250274041628
 21
16.21021681981034
 31
0.0
  0
LINE
  5
3A596
330
39808
100
AcDbEntity
  8
0
  6
Continuous
 62
     7
370
    13
100
AcDbLine
 10
5.968250274041622
 20
13.06021681981031
 30
0.0
 11
5.868250274041628
 21
13.06021681981031
 31
0.0
  0
LINE
  5
3A597
330
39808
100
AcDbEntity
  8
0
  6
Continuous
 62
     7
370
    13
100
AcDbLine
 10
5.868250274041628
 20
13.06021681981031
 30
0.0
 11
5.868250274041628
 21
12.96021681981034
 31
0.0
  0
LINE
  5
3A598
330
39808
100
AcDbEntity
  8
0
  6
Continuous
 62
     7
370
    13
100
AcDbLine
 10
5.868250274041628
 20
12.96021681981034
 30
0.0
 11
5.968250274041622
 21
12.96021681981034
 31
0.0
  0
LINE
  5
3A599
330
39808
100
AcDbEntity
  8
0
  6
Continuous
 62
     7
370
    13
100
AcDbLine
 10
5.968250274041622
 20
12.96021681981034
 30
0.0
 11
5.968250274041622
 21
13.06021681981031
 31
0.0
  0
LINE
  5
3A59A
330
39808
100
AcDbEntity
  8
0
  6
Continuous
 62
     7
370
    13
100
AcDbLine
 10
5.968250274041622
 20
13.06021681981031
 30
0.0
 11
5.968250274041622
 21
13.06021681981031
 31
0.0
  0
LINE
  5
3A59B
330
39808
100
AcDbEntity
  8
0
  6
Continuous
 62
     7
370
    13
100
AcDbLine
 10
5.968250274041622
 20
14.36021681981032
 30
0.0
 11
5.868250274041628
 21
14.36021681981032
 31
0.0
  0
LINE
  5
3A59C
330
39808
100
AcDbEntity
  8
0
  6
Continuous
 62
     7
370
    13
100
AcDbLine
 10
5.868250274041628
 20
14.36021681981032
 30
0.0
 11
5.868250274041628
 21
14.26021681981035
 31
0.0
  0
LINE
  5
3A59D
330
39808
100
AcDbEntity
  8
0
  6
Continuous
 62
     7
370
    13
100
AcDbLine
 10
5.868250274041628
 20
14.26021681981035
 30
0.0
 11
5.968250274041622
 21
14.26021681981035
 31
0.0
  0
LINE
  5
3A59E
330
39808
100
AcDbEntity
  8
0
  6
Continuous
 62
     7
370
    13
100
AcDbLine
 10
5.968250274041622
 20
14.26021681981035
 30
0.0
 11
5.968250274041622
 21
14.36021681981032
 31
0.0
  0
LINE
  5
3A59F
330
39808
100
AcDbEntity
  8
0
  6
Continuous
 62
     7
370
    13
100
AcDbLine
 10
5.968250274041622
 20
14.36021681981032
 30
0.0
 11
5.968250274041622
 21
14.36021681981032
 31
0.0
  0
LINE
  5
3A5A0
330
39808
100
AcDbEntity
  8
0
  6
Continuous
 62
     7
370
    13
100
AcDbLine
 10
5.968250274041622
 20
16.26021681981035
 30
0.0
 11
5.868250274041628
 21
16.26021681981035
 31
0.0
  0
LINE
  5
3A5A1
330
39808
100
AcDbEntity
  8
0
  6
Continuous
 62
     7
370
    13
100
AcDbLine
 10
5.868250274041628
 20
16.26021681981035
 30
0.0
 11
5.868250274041628
 21
16.16021681981033
 31
0.0
  0
LINE
  5
3A5A2
330
39808
100
AcDbEntity
  8
0
  6
Continuous
 62
     7
370
    13
100
AcDbLine
 10
5.868250274041628
 20
16.16021681981033
 30
0.0
 11
5.968250274041622
 21
16.16021681981033
 31
0.0
  0
LINE
  5
3A5A3
330
39808
100
AcDbEntity
  8
0
  6
Continuous
 62
     7
370
    13
100
AcDbLine
 10
5.968250274041622
 20
16.16021681981033
 30
0.0
 11
5.968250274041622
 21
16.26021681981035
 31
0.0
  0
LINE
  5
3A5A4
330
39808
100
AcDbEntity
  8
0
  6
Continuous
 62
     7
370
    13
100
AcDbLine
 10
5.968250274041622
 20
16.26021681981035
 30
0.0
 11
5.968250274041622
 21
16.26021681981035
 31
0.0
  0
LINE
  5
3A5A5
330
39808
100
AcDbEntity
  8
0
  6
Continuous
 62
     7
370
    13
100
AcDbLine
 10
5.868250274041628
 20
17.56021681981031
 30
0.0
 11
5.868250274041628
 21
17.46021681981034
 31
0.0
  0
LINE
  5
3A5A6
330
39808
100
AcDbEntity
  8
0
  6
Continuous
 62
     7
370
    13
100
AcDbLine
 10
5.868250274041628
 20
17.46021681981034
 30
0.0
 11
5.968250274041622
 21
17.46021681981034
 31
0.0
  0
LINE
  5
3A5A7
330
39808
100
AcDbEntity
  8
0
  6
Continuous
 62
     7
370
    13
100
AcDbLine
 10
5.968250274041622
 20
17.46021681981034
 30
0.0
 11
5.968250274041622
 21
17.56021681981031
 31
0.0
  0
LINE
  5
3A5A8
330
39808
100
AcDbEntity
  8
0
  6
Continuous
 62
     7
370
    13
100
AcDbLine
 10
5.968250274041622
 20
17.56021681981031
 30
0.0
 11
5.968250274041622
 21
17.56021681981031
 31
0.0
  0
LINE
  5
3A5A9
330
39808
100
AcDbEntity
  8
0
  6
Continuous
 62
     7
370
     0
100
AcDbLine
 10
16.0870599416871
 20
35.29210846890066
 30
0.0
 11
17.28298477275413
 21
35.29210846890066
 31
0.0
  0
LINE
  5
3A5AA
330
39808
100
AcDbEntity
  8
0
  6
Continuous
 62
     7
370
     0
100
AcDbLine
 10
17.28298477275413
 20
35.29210846890066
 30
0.0
 11
17.28298477275413
 21
32.74826365040354
 31
0.0
  0
LINE
  5
3A5AB
330
39808
100
AcDbEntity
  8
0
  6
Continuous
 62
     7
370
     0
100
AcDbLine
 10
17.28298477275413
 20
32.74826365040354
 30
0.0
 11
16.0870599416871
 21
32.74826365040354
 31
0.0
  0
LINE
  5
3A5AC
330
39808
100
AcDbEntity
  8
0
  6
Continuous
 62
     7
370
     0
100
AcDbLine
 10
16.0870599416871
 20
32.74826365040354
 30
0.0
 11
16.0870599416871
 21
35.29210846890066
 31
0.0
  0
LINE
  5
3A5AD
330
39808
100
AcDbEntity
  8
0
  6
Continuous
 62
     7
370
     0
100
AcDbLine
 10
16.0870599416871
 20
35.29210846890066
 30
0.0
 11
16.0870599416871
 21
35.29210846890066
 31
0.0
  0
VIEWPORT
  5
39D55
330
3981B
100
AcDbEntity
 67
     1
  8
0
  6
Continuous
 62
     7
370
     0
100
AcDbViewport
 10
5.250183132535525
 20
4.000122090685323
 30
0.0
 40
8.400878902060071
 41
6.400909420802384
 68
     1
 69
     1
 12
5.250183132535525
 22
4.000122090685323
 13
0.0
 23
0.0
 14
0.0
 24
0.0
 15
0.1
 25
0.1
 16
0.0
 26
0.0
 36
1.0
 17
0.0
 27
0.0
 37
0.0
 42
50.0
 43
0.0
 44
0.0
 45
6.400909420802384
 50
0.0
 51
0.0
 72
   100
 90
    32768
  1

281
     0
 71
     1
 74
     1
110
0.0
120
0.0
130
0.0
111
1.0
121
0.0
131
0.0
112
0.0
122
1.0
132
0.0
 79
     0
146
0.0
170
     0
 61
    10
292
     1
282
     1
141
0.0
142
0.0
 63
   250
421
  3355443
  0
ENDSEC
  0
SECTION
  2
OBJECTS
  0
DICTIONARY
  5
3980D
330
0
100
AcDbDictionary
281
     1
  3
ACAD_CIP_PREVIOUS_PRODUCT_INFO
350
3A442
  3
ACAD_COLOR
350
39849
  3
ACAD_DETAILVIEWSTYLE
350
3A429
  3
ACAD_GROUP
350
39836
  3
ACAD_LAST_SAVED_VERSION_INFO
350
3A443
  3
ACAD_LAYOUT
350
3981A
  3
ACAD_MATERIAL
350
3980F
  3
ACAD_MLEADERSTYLE
350
3984C
  3
ACAD_MLINESTYLE
350
39837
  3
ACAD_PLOTSETTINGS
350
39838
  3
ACAD_PLOTSTYLENAME
350
3980C
  3
ACAD_SCALELIST
350
3984A
  3
ACAD_SECTIONVIEWSTYLE
350
3A427
  3
ACAD_TABLESTYLE
350
3984B
  3
ACAD_VISUALSTYLE
350
39830
  3
AcadDim
350
398AE
  3
ACDB_RECOMPOSE_DATA
350
3A5BF
  3
AcDbVariableDictionary
350
39AA2
  3
MicroStation
350
398AF
  0
DICTIONARY
  5
39823
330
39822
100
AcDbDictionary
280
     1
281
     1
  3
ACAD_LAYERFILTERS
360
39875
  3
ACAD_LAYERSTATES
360
39824
  0
DICTIONARY
  5
3A444
330
3980A
100
AcDbDictionary
280
     1
281
     1
  3
ADSK_XREC_LAYER_RECONCILED
360
3A445
  0
DICTIONARY
  5
39A90
330
39808
100
AcDbDictionary
280
     1
281
     1
  3
ACAD_SORTENTS
360
39A91
  0
XRECORD
  5
3A442
102
{ACAD_REACTORS
330
3980D
102
}
330
3980D
100
AcDbXrecord
280
     1
300
ACD
300
2026
300
88023ACD_2026_0F
  0
DICTIONARY
  5
39849
102
{ACAD_REACTORS
330
3980D
102
}
330
3980D
100
AcDbDictionary
281
     1
  3
Standard$black
350
39A8B
  0
DICTIONARY
  5
3A429
102
{ACAD_REACTORS
330
3980D
102
}
330
3980D
100
AcDbDictionary
281
     1
  3
Imperial24
350
3A42A
  0
DICTIONARY
  5
39836
102
{ACAD_REACTORS
330
3980D
102
}
330
3980D
100
AcDbDictionary
281
     1
  0
XRECORD
  5
3A443
102
{ACAD_REACTORS
330
3980D
102
}
330
3980D
100
AcDbXrecord
280
     1
300
{7B81150C-59D3-554D-8BB0-5E752AEB058C}
301
{D3CE042C-8847-F148-8D28-37B0223B6713}
302
{7B81150C-59D3-554D-8BB0-5E752AEB058C}
303
C:\YandexDisk\Studies\_03_Maga\0_Diplom\Diplom\Dataset\sources\7_geometry_only.dxf
  0
DICTIONARY
  5
3981A
102
{ACAD_REACTORS
330
3980D
102
}
330
3980D
100
AcDbDictionary
281
     1
  3
Layout1
350
3981E
  3
Model
350
39819
  0
DICTIONARY
  5
3980F
102
{ACAD_REACTORS
330
3980D
102
}
330
3980D
100
AcDbDictionary
281
     1
  3
ByBlock
350
39841
  3
ByLayer
350
39839
  3
Global
350
3980E
  0
DICTIONARY
  5
3984C
102
{ACAD_REACTORS
330
3980D
102
}
330
3980D
100
AcDbDictionary
281
     1
  3
Standard
350
39ABB
  0
DICTIONARY
  5
39837
102
{ACAD_REACTORS
330
3980D
102
}
330
3980D
100
AcDbDictionary
281
     1
  3
Standard
350
3984D
  0
DICTIONARY
  5
39838
102
{ACAD_REACTORS
330
3980D
102
}
330
3980D
100
AcDbDictionary
281
     1
  0
ACDBDICTIONARYWDFLT
  5
3980C
102
{ACAD_REACTORS
330
3980D
102
}
330
3980D
100
AcDbDictionary
281
     1
  3
Normal
350
3980B
100
AcDbDictionaryWithDefault
340
3980B
  0
DICTIONARY
  5
3984A
102
{ACAD_REACTORS
330
3980D
102
}
330
3980D
100
AcDbDictionary
281
     1
  3
A0
350
39851
  3
A1
350
39852
  3
A2
350
39853
  3
A3
350
39854
  3
A4
350
39855
  3
A5
350
39856
  3
A6
350
39857
  3
A7
350
39858
  3
A8
350
39859
  3
A9
350
3985A
  3
B0
350
3985B
  3
B1
350
3985C
  3
B2
350
3985D
  3
B3
350
3985E
  3
B4
350
3985F
  3
B5
350
39860
  3
B6
350
39861
  3
B7
350
39862
  3
B8
350
39863
  3
B9
350
39864
  3
C0
350
39865
  3
C1
350
39866
  3
C2
350
39867
  3
C3
350
39868
  3
C4
350
39869
  3
C5
350
3986A
  3
C6
350
3986B
  3
C7
350
3986C
  3
C8
350
3986D
  3
C9
350
3986E
  3
D0
350
3986F
  3
D1
350
39870
  3
D2
350
39871
  0
DICTIONARY
  5
3A427
102
{ACAD_REACTORS
330
3980D
102
}
330
3980D
100
AcDbDictionary
281
     1
  3
Imperial24
350
3A428
  0
DICTIONARY
  5
3984B
102
{ACAD_REACTORS
330
3980D
102
}
330
3980D
100
AcDbDictionary
281
     1
  3
Standard
350
3984E
  0
DICTIONARY
  5
39830
102
{ACAD_REACTORS
330
3980D
102
}
330
3980D
100
AcDbDictionary
281
     1
  3
2dWireframe
350
3982F
  3
3D Hidden
350
39AB0
  3
3dWireframe
350
39850
  3
Basic
350
39AAF
  3
Brighten
350
39AB3
  3
ColorChange
350
39AB7
  3
Conceptual
350
39AB1
  3
Dim
350
39AB2
  3
EdgeColorOff
350
39ABA
  3
Facepattern
350
39AB6
  3
Flat
350
39AAB
  3
FlatWithEdges
350
39AAC
  3
Gouraud
350
39AAD
  3
GouraudWithEdges
350
39AAE
  3
Hidden
350
3A421
  3
JitterOff
350
39AB8
  3
Linepattern
350
39AB5
  3
OverhangOff
350
39AB9
  3
Realistic
350
3984F
  3
Shaded
350
3A426
  3
Shaded with edges
350
3A425
  3
Shades of Gray
350
3A422
  3
Sketchy
350
3A423
  3
Thicken
350
39AB4
  3
Wireframe
350
3A420
  3
X-Ray
350
3A424
  0
XRECORD
  5
398AE
102
{ACAD_REACTORS
330
3980D
102
}
330
3980D
100
AcDbXrecord
280
     1
 90
   990106
  3
 
 60
     0
 61
     0
 62
     1
 63
     1
 64
     0
 65
     0
 66
     0
 67
     3
 68
     1
 69
     1
 70
     0
 71
     0
 72
     0
 40
0.0
170
     0
  0
XRECORD
  5
3A5BF
102
{ACAD_REACTORS
330
3980D
102
}
330
3980D
100
AcDbXrecord
280
     1
 90
        1
330
3984E
  0
DICTIONARY
  5
39AA2
102
{ACAD_REACTORS
330
3980D
102
}
330
3980D
100
AcDbDictionary
281
     1
  3
CANNOSCALE
350
39AA6
  3
CMLEADERSTYLE
350
39AA4
  3
CTABLESTYLE
350
39AA3
  3
CVIEWDETAILSTYLE
350
3A435
  3
CVIEWSECTIONSTYLE
350
3A436
  3
LAYEREVAL
350
39AA8
  3
LAYERNOTIFY
350
39AA9
  3
LIGHTINGUNITS
350
39AA7
  3
MSLTSCALE
350
39AA5
  0
DICTIONARY
  5
398AF
102
{ACAD_REACTORS
330
3980D
102
}
330
3980D
100
AcDbDictionary
281
     1
  0
DICTIONARY
  5
39875
102
{ACAD_REACTORS
330
39823
102
}
330
39823
100
AcDbDictionary
281
     1
  0
DICTIONARY
  5
39824
102
{ACAD_REACTORS
330
39823
102
}
330
39823
100
AcDbDictionary
281
     1
  0
XRECORD
  5
3A445
102
{ACAD_REACTORS
330
3A444
102
}
330
3A444
100
AcDbXrecord
280
     1
290
     1
  0
SORTENTSTABLE
  5
39A91
102
{ACAD_REACTORS
330
39A90
102
}
330
39A90
100
AcDbSortentsTable
330
39808
331
3953F
  5
39532
331
39540
  5
39533
331
39541
  5
39534
331
39542
  5
39535
331
39543
  5
39536
331
39544
  5
39537
331
39545
  5
39538
331
39546
  5
39539
331
39547
  5
3953A
331
39548
  5
3953B
331
39549
  5
3953C
331
3954A
  5
3953D
331
3954B
  5
3953E
331
3954C
  5
3953F
331
3954D
  5
39540
331
3954E
  5
39541
331
3954F
  5
39542
331
39550
  5
39543
331
39551
  5
39544
331
39552
  5
39545
331
39553
  5
39546
331
39554
  5
39547
331
39555
  5
39548
331
39556
  5
39549
331
39557
  5
3954A
331
39558
  5
3954B
331
39559
  5
3954C
331
3955A
  5
3954D
331
3955B
  5
3954E
331
3955C
  5
3954F
331
3955D
  5
39550
331
3955E
  5
39551
331
3955F
  5
39552
331
39560
  5
39553
331
39564
  5
3955C
331
39565
  5
3955D
331
39566
  5
3955E
331
39567
  5
3955F
331
39568
  5
39560
331
39569
  5
39561
331
3956A
  5
39562
331
3956B
  5
39563
331
3956C
  5
39564
331
3956D
  5
39565
331
3956E
  5
39566
331
3956F
  5
39567
331
39570
  5
39568
331
39571
  5
39569
331
39572
  5
3956A
331
39573
  5
3956B
331
39574
  5
3956C
331
39575
  5
3956D
331
39576
  5
3956E
331
39577
  5
3956F
331
39578
  5
39570
331
39579
  5
39571
331
3957A
  5
39572
331
3957B
  5
39573
331
3957C
  5
39574
331
3957D
  5
39575
331
3957E
  5
39576
331
3957F
  5
39577
331
39580
  5
39578
331
39581
  5
39579
331
39582
  5
3957A
331
39583
  5
3957B
331
39584
  5
3957C
331
39585
  5
3957D
331
39586
  5
3957E
331
39587
  5
3957F
331
39588
  5
39580
331
39589
  5
39581
331
3958A
  5
39582
331
3958B
  5
39583
331
3958C
  5
39584
331
3958D
  5
39585
331
3958E
  5
39586
331
3958F
  5
39587
331
39590
  5
39588
331
39591
  5
39589
331
39592
  5
3958A
331
39593
  5
3958B
331
39594
  5
3958C
331
39595
  5
3958D
331
39596
  5
3958E
331
39597
  5
3958F
331
39598
  5
39590
331
39599
  5
39591
331
3959A
  5
39592
331
3959B
  5
39593
331
3959C
  5
39594
331
3959D
  5
39595
331
3959E
  5
39596
331
3959F
  5
39597
331
395A0
  5
39598
331
395A1
  5
39599
331
395A2
  5
3959A
331
395A3
  5
3959B
331
395A4
  5
3959C
331
395A5
  5
3959D
331
395A6
  5
3959E
331
395A7
  5
3959F
331
395A8
  5
395A0
331
395A9
  5
395A1
331
395AA
  5
395A2
331
395AB
  5
395A3
331
395AC
  5
395A4
331
395AD
  5
395A5
331
395AE
  5
395A6
331
395AF
  5
395A7
331
395B0
  5
395A8
331
395B1
  5
395A9
331
395B2
  5
395AA
331
395B3
  5
395AB
331
395B4
  5
395AC
331
395B5
  5
395AD
331
395B6
  5
395AE
331
395B7
  5
395AF
331
395B8
  5
395B0
331
395B9
  5
395B1
331
395BA
  5
395B2
331
395BB
  5
395B3
331
395BC
  5
395B4
331
395BD
  5
395B8
331
395BE
  5
395BA
331
395BF
  5
395BB
331
395C0
  5
395BC
331
395C1
  5
395BD
331
395C5
  5
395BE
331
395C7
  5
395BF
331
395C8
  5
395C0
331
395C9
  5
395C1
331
395CA
  5
395C2
331
395CB
  5
395C3
331
395CC
  5
395C4
331
395CD
  5
395C5
331
395CE
  5
395C6
331
395CF
  5
395C7
331
395D0
  5
395C8
331
395D1
  5
395C9
331
395D2
  5
395CA
331
395D3
  5
395CB
331
395D4
  5
395CC
331
395D5
  5
395CD
331
395D6
  5
395CE
331
395D7
  5
395CF
331
395D8
  5
395D0
331
395D9
  5
395D1
331
395DA
  5
395D2
331
395DB
  5
395D3
331
395DC
  5
395D7
331
395DD
  5
395D8
331
395DE
  5
395D9
331
395DF
  5
395DA
331
395E0
  5
395DB
331
395E4
  5
395DC
331
395E5
  5
395DD
331
395E6
  5
395DE
331
395E7
  5
395DF
331
395E8
  5
395E3
331
395E9
  5
395E4
331
395EA
  5
395E5
331
395EB
  5
395E6
331
395EC
  5
395E7
331
395F0
  5
395E8
331
395F1
  5
395E9
331
395F2
  5
395EA
331
395F3
  5
395EB
331
395F4
  5
395EC
331
395F5
  5
395ED
331
395F6
  5
395EE
331
395F7
  5
395EF
331
395F8
  5
395F0
331
395F9
  5
395F1
331
395FA
  5
395F2
331
395FB
  5
395F3
331
395FC
  5
395F4
331
395FD
  5
395F5
331
395FE
  5
395F6
331
395FF
  5
395F7
331
39600
  5
395F8
331
39601
  5
395F9
331
39602
  5
395FA
331
39603
  5
395FB
331
39604
  5
395FC
331
39605
  5
395FD
331
39606
  5
395FE
331
39607
  5
395FF
331
39608
  5
39600
331
39609
  5
39601
331
3960A
  5
39602
331
3960B
  5
39603
331
3960C
  5
39604
331
3960D
  5
3960A
331
3960E
  5
3960B
331
3960F
  5
3960C
331
39610
  5
3960D
331
39611
  5
3960E
331
39617
  5
3960F
331
39618
  5
39610
331
39619
  5
39611
331
3961A
  5
39612
331
3961B
  5
39613
331
3961C
  5
39614
331
3961D
  5
39615
331
3961E
  5
39616
331
3961F
  5
39617
331
39620
  5
39618
331
39621
  5
39619
331
39622
  5
3961A
331
39623
  5
3961B
331
39624
  5
3961C
331
39625
  5
39620
331
39626
  5
39621
331
39627
  5
39622
331
39628
  5
39623
331
39629
  5
39624
331
3962D
  5
39625
331
3962E
  5
39627
331
3962F
  5
39628
331
39630
  5
39629
331
39631
  5
3962A
331
39632
  5
3962B
331
39634
  5
3962C
331
39635
  5
3962D
331
39636
  5
3962E
331
39637
  5
3962F
331
39638
  5
39630
331
39639
  5
39631
331
3963A
  5
39632
331
3963B
  5
396C7
331
3963C
  5
396C8
331
3963D
  5
396C9
331
3963E
  5
396CA
331
3963F
  5
396CC
331
3968C
  5
396D2
331
3968D
  5
396D3
331
3968E
  5
396E6
331
3968F
  5
396E7
331
39690
  5
396E8
331
39695
  5
39780
331
39696
  5
39787
331
39697
  5
39788
331
39698
  5
39789
331
39699
  5
3978A
331
3969B
  5
39790
331
3969C
  5
39793
331
3969D
  5
39796
331
3969E
  5
39797
331
3969F
  5
39798
331
396A0
  5
39799
331
396A1
  5
3979A
331
396A2
  5
3979B
331
396A3
  5
3979C
331
396A4
  5
3979D
331
396A5
  5
3979E
331
396A6
  5
3979F
331
396A8
  5
397A8
331
396A9
  5
397A9
331
396AE
  5
3A275
331
396AF
  5
3A276
331
396B0
  5
3A277
331
396B2
  5
3A4DA
331
396B3
  5
3A4DB
331
396B4
  5
3A4DC
331
396BB
  5
3A55B
331
396BC
  5
3A55C
331
396BD
  5
3A55D
331
396BE
  5
3A55E
331
396BF
  5
3A55F
331
396C0
  5
3A560
331
396C1
  5
3A561
331
396C2
  5
3A562
331
396C3
  5
3A563
331
396C4
  5
3A564
331
396C5
  5
3A565
331
396C6
  5
3A566
331
396C7
  5
3A567
331
396C8
  5
3A568
331
396C9
  5
3A569
331
396CA
  5
3A56A
331
396CB
  5
3A56B
331
396CC
  5
3A56C
331
396CD
  5
3A56D
331
396CE
  5
3A56E
331
396CF
  5
3A56F
331
396D0
  5
3A570
331
396D1
  5
3A571
331
396D2
  5
3A572
331
396D3
  5
3A573
331
396D5
  5
3A579
331
396E6
  5
3A57A
331
396E7
  5
3A57B
331
396E8
  5
3A57C
331
396E9
  5
3A57D
331
396EA
  5
3A57E
331
396EB
  5
3A57F
331
396EC
  5
3A580
331
39772
  5
3A581
331
39773
  5
3A582
331
39774
  5
3A583
331
39775
  5
3A584
331
39776
  5
3A585
331
39777
  5
3A586
331
39778
  5
3A587
331
39779
  5
3A588
331
3977A
  5
3A589
331
3977B
  5
3A58A
331
3977C
  5
3A58B
331
3977D
  5
3A58C
331
3977E
  5
3A58D
331
3977F
  5
3A58E
331
39780
  5
3A58F
331
39781
  5
3A590
331
39782
  5
3A591
331
39783
  5
3A592
331
39784
  5
3A593
331
39785
  5
3A594
331
39786
  5
3A595
331
39787
  5
3A596
331
3978A
  5
3A5A1
331
3978B
  5
3A5A2
331
3978C
  5
3A5A3
331
3978D
  5
3A5A4
331
3978E
  5
3A5A5
331
3A271
  5
3A5A6
331
3A272
  5
3A5A7
331
3A274
  5
3A5A8
331
3A275
  5
3A5A9
331
3A552
  5
3A5AD
331
3A553
  5
3A5AA
331
3A554
  5
3A5AB
331
3A555
  5
3A5AC
331
3A556
  5
3A59C
331
3A557
  5
3A59D
331
3A558
  5
3A59E
331
3A559
  5
3A59F
331
3A55A
  5
3A5A0
331
3A55B
  5
3A597
331
3A55C
  5
3A598
331
3A55D
  5
3A599
331
3A55E
  5
3A59A
331
3A55F
  5
3A59B
331
3A560
  5
3A574
331
3A561
  5
3A575
331
3A562
  5
3A576
331
3A563
  5
3A577
331
3A564
  5
3A578
331
3A565
  5
3A556
331
3A566
  5
3A557
331
3A567
  5
3A558
331
3A568
  5
3A559
331
3A569
  5
3A55A
331
3A56A
  5
3A522
331
3A56B
  5
3A552
331
3A56C
  5
3A553
331
3A56D
  5
3A554
331
3A56E
  5
3A555
331
3A56F
  5
3A4EB
331
3A570
  5
3A4EC
331
3A571
  5
3A51E
331
3A572
  5
3A51F
331
3A573
  5
3A521
331
3A574
  5
3A4DD
331
3A575
  5
3A4DE
331
3A576
  5
3A4E8
331
3A577
  5
3A4E9
331
3A578
  5
3A4EA
331
3A579
  5
3A4A9
331
3A57A
  5
3A4AA
331
3A57B
  5
3A4AB
331
3A57C
  5
3A4AC
331
3A57D
  5
397FE
331
3A57E
  5
3A271
331
3A57F
  5
3A272
331
3A580
  5
3A273
331
3A581
  5
3A274
331
3A582
  5
397C8
331
3A583
  5
397CC
331
3A584
  5
397CF
331
3A585
  5
397D0
331
3A586
  5
397FD
331
3A587
  5
397AA
331
3A588
  5
397AB
331
3A589
  5
397AF
331
3A58A
  5
397C2
331
3A58B
  5
397C6
331
3A58C
  5
397A0
331
3A58D
  5
397A1
331
3A58E
  5
397A2
331
3A58F
  5
397A3
331
3A590
  5
397A5
331
3A591
  5
3978B
331
3A592
  5
3978C
331
3A593
  5
3978D
331
3A594
  5
3978E
331
3A595
  5
3978F
331
3A596
  5
3977A
331
3A597
  5
3977B
331
3A598
  5
3977C
331
3A599
  5
3977E
331
3A59A
  5
3977F
331
3A59B
  5
39736
331
3A59C
  5
39771
331
3A59D
  5
39772
331
3A59E
  5
39774
331
3A59F
  5
39775
331
3A5A0
  5
396F7
331
3A5A1
  5
396F8
331
3A5A2
  5
39733
331
3A5A3
  5
39734
331
3A5A4
  5
39735
331
3A5A5
  5
396EA
331
3A5A6
  5
396EB
331
3A5A7
  5
396EC
331
3A5A8
  5
396ED
331
3A5A9
  5
39557
331
3A5AA
  5
39558
331
3A5AB
  5
39559
331
3A5AC
  5
3955A
331
3A5AD
  5
3955B
  0
DBCOLOR
  5
39A8B
102
{ACAD_REACTORS
330
39849
102
}
330
39849
100
AcDbColor
 62
    18
420
        0
430
Standard$black
1001
ACAD
1000
DBColXD
1070
    18
1071
-1040187392
1000
Standard$black
1000
DBColXD
1070
    18
1071
-1040187392
1000
Standard$black
1000
DBColXD
1070
    18
1071
-1040187392
1000
Standard$black
1000
DBColXD
1070
    18
1071
-1040187392
1000
Standard$black
1000
DBColXD
1070
    18
1071
-1040187392
1000
Standard$black
1000
DBColXD
1070
    18
1071
-1040187392
1000
Standard$black
1000
DBColXD
1070
    18
1071
-1040187392
1000
Standard$black
  0
ACDBDETAILVIEWSTYLE
  5
3A42A
102
{ACAD_REACTORS
330
3A429
102
}
330
3A429
100
AcDbModelDocViewStyle
 70
     0
  3
Imperial24
290
     0
300
Imperial24
 90
        0
100
AcDbDetailViewStyle
 70
     0
 71
     0
 90
        3
 71
     1
340
39826
 62
   256
 40
0.24
340
0
 62
   256
 40
0.24
300

 40
0.36
280
     3
 71
     2
340
39817
 90
       25
 62
   256
 71
     3
340
39826
 62
   256
 40
0.24
 90
        1
 40
0.75
 90
        1
300
%<\AcVar ViewType \f "%tc1">% %<\AcVar ViewDetailId>%\PSCALE %<\AcVar ViewScale \f "%sn">%
 71
     4
340
39817
 90
       25
 62
   256
340
39817
 90
       25
 62
   256
280
     0
  0
LAYOUT
  5
3981E
102
{ACAD_XDICTIONARY
360
3981F
102
}
102
{ACAD_REACTORS
330
3981A
102
}
330
3981A
100
AcDbPlotSettings
  1

  2
none_device
  4
Letter_(8.50_x_11.00_Inches)
  6

 40
6.349999904632568
 41
6.349999904632568
 42
6.350006103515625
 43
6.350006103515625
 44
215.8999938964844
 45
279.3999938964844
 46
0.0
 47
0.0
 48
0.0
 49
0.0
140
0.0
141
0.0
142
1.0
143
1.0
 70
   688
 72
     0
 73
     1
 74
     5
  7

 75
    16
147
1.0
 76
     0
 77
     2
 78
   300
148
0.0
149
0.0
100
AcDbLayout
  1
Layout1
 70
     0
 71
     1
 10
-0.2500002402958907
 20
-0.2499999962453767
 11
10.74999951940821
 21
8.249999763458731
 12
0.0
 22
0.0
 32
0.0
 14
1.049743681505489
 24
0.7996673802841308
 34
-0.0015258207003583
 15
9.450622583565561
 25
7.200576801086516
 35
0.0000000349246037
146
0.0
 13
0.0
 23
0.0
 33
0.0
 16
1.0
 26
0.0
 36
0.0
 17
0.0
 27
1.0
 37
0.0
 76
     0
330
3981B
331
39D55
1001
ACAD_PSEXT
1000
None
1000
None
1000
Not applicable
1000
The layout will not be plotted unless a new plotter configuration name is selected.
1070
     0
  0
LAYOUT
  5
39819
102
{ACAD_REACTORS
330
3981A
102
}
330
3981A
100
AcDbPlotSettings
  1

  2
none_device
  4
ANSI_A_(8.50_x_11.00_Inches)
  6

 40
6.349999904632568
 41
19.04999923706055
 42
6.350006103515625
 43
19.04998779296875
 44
215.8999938964844
 45
279.3999938964844
 46
0.0
 47
0.0
 48
0.0
 49
0.0
140
0.0
141
0.0
142
1.0
143
2.584895464708373
 70
 11952
 72
     0
 73
     1
 74
     0
  7

 75
     0
147
0.3868628397755418
 76
     0
 77
     2
 78
   300
148
0.0
149
0.0
100
AcDbLayout
  1
Model
 70
     1
 71
     0
 10
0.0
 20
0.0
 11
12.0
 21
9.0
 12
0.0
 22
0.0
 32
0.0
 14
0.0
 24
0.0
 34
0.0
 15
0.0
 25
0.0
 35
0.0
146
0.0
 13
0.0
 23
0.0
 33
0.0
 16
1.0
 26
0.0
 36
0.0
 17
0.0
 27
1.0
 37
0.0
 76
     0
330
39808
331
4B
  0
MATERIAL
  5
39841
102
{ACAD_XDICTIONARY
360
39842
102
}
102
{ACAD_REACTORS
330
3980F
102
}
330
3980F
100
AcDbMaterial
  1
ByBlock
 72
     0
 43
0.0208333333333333
 43
0.0
 43
0.0
 43
0.0
 43
0.0
 43
0.0208333333333333
 43
0.0
 43
0.0
 43
0.0
 43
0.0
 43
1.0
 43
0.0
 43
0.0
 43
0.0
 43
0.0
 43
1.0
 77
     0
 47
0.0208333333333333
 47
0.0
 47
0.0
 47
0.0
 47
0.0
 47
0.0208333333333333
 47
0.0
 47
0.0
 47
0.0
 47
0.0
 47
1.0
 47
0.0
 47
0.0
 47
0.0
 47
0.0
 47
1.0
171
     0
 49
0.0208333333333333
 49
0.0
 49
0.0
 49
0.0
 49
0.0
 49
0.0208333333333333
 49
0.0
 49
0.0
 49
0.0
 49
0.0
 49
1.0
 49
0.0
 49
0.0
 49
0.0
 49
0.0
 49
1.0
175
     0
142
0.0208333333333333
142
0.0
142
0.0
142
0.0
142
0.0
142
0.0208333333333333
142
0.0
142
0.0
142
0.0
142
0.0
142
1.0
142
0.0
142
0.0
142
0.0
142
0.0
142
1.0
179
     0
144
0.0208333333333333
144
0.0
144
0.0
144
0.0
144
0.0
144
0.0208333333333333
144
0.0
144
0.0
144
0.0
144
0.0
144
1.0
144
0.0
144
0.0
144
0.0
144
0.0
144
1.0
147
0.0208333333333333
147
0.0
147
0.0
147
0.0
147
0.0
147
0.0208333333333333
147
0.0
147
0.0
147
0.0
147
0.0
147
1.0
147
0.0
147
0.0
147
0.0
147
0.0
147
1.0
  0
MATERIAL
  5
39839
102
{ACAD_XDICTIONARY
360
3983A
102
}
102
{ACAD_REACTORS
330
3980F
102
}
330
3980F
100
AcDbMaterial
  1
ByLayer
 72
     0
 43
0.0208333333333333
 43
0.0
 43
0.0
 43
0.0
 43
0.0
 43
0.0208333333333333
 43
0.0
 43
0.0
 43
0.0
 43
0.0
 43
1.0
 43
0.0
 43
0.0
 43
0.0
 43
0.0
 43
1.0
 77
     0
 47
0.0208333333333333
 47
0.0
 47
0.0
 47
0.0
 47
0.0
 47
0.0208333333333333
 47
0.0
 47
0.0
 47
0.0
 47
0.0
 47
1.0
 47
0.0
 47
0.0
 47
0.0
 47
0.0
 47
1.0
171
     0
 49
0.0208333333333333
 49
0.0
 49
0.0
 49
0.0
 49
0.0
 49
0.0208333333333333
 49
0.0
 49
0.0
 49
0.0
 49
0.0
 49
1.0
 49
0.0
 49
0.0
 49
0.0
 49
0.0
 49
1.0
175
     0
142
0.0208333333333333
142
0.0
142
0.0
142
0.0
142
0.0
142
0.0208333333333333
142
0.0
142
0.0
142
0.0
142
0.0
142
1.0
142
0.0
142
0.0
142
0.0
142
0.0
142
1.0
179
     0
144
0.0208333333333333
144
0.0
144
0.0
144
0.0
144
0.0
144
0.0208333333333333
144
0.0
144
0.0
144
0.0
144
0.0
144
1.0
144
0.0
144
0.0
144
0.0
144
0.0
144
1.0
147
0.0208333333333333
147
0.0
147
0.0
147
0.0
147
0.0
147
0.0208333333333333
147
0.0
147
0.0
147
0.0
147
0.0
147
1.0
147
0.0
147
0.0
147
0.0
147
0.0
147
1.0
  0
MATERIAL
  5
3980E
102
{ACAD_XDICTIONARY
360
39810
102
}
102
{ACAD_REACTORS
330
3980F
102
}
330
3980F
100
AcDbMaterial
  1
Global
 72
     0
 43
0.0208333333333333
 43
0.0
 43
0.0
 43
0.0
 43
0.0
 43
0.0208333333333333
 43
0.0
 43
0.0
 43
0.0
 43
0.0
 43
1.0
 43
0.0
 43
0.0
 43
0.0
 43
0.0
 43
1.0
 77
     0
 47
0.0208333333333333
 47
0.0
 47
0.0
 47
0.0
 47
0.0
 47
0.0208333333333333
 47
0.0
 47
0.0
 47
0.0
 47
0.0
 47
1.0
 47
0.0
 47
0.0
 47
0.0
 47
0.0
 47
1.0
171
     0
 49
0.0208333333333333
 49
0.0
 49
0.0
 49
0.0
 49
0.0
 49
0.0208333333333333
 49
0.0
 49
0.0
 49
0.0
 49
0.0
 49
1.0
 49
0.0
 49
0.0
 49
0.0
 49
0.0
 49
1.0
175
     0
142
0.0208333333333333
142
0.0
142
0.0
142
0.0
142
0.0
142
0.0208333333333333
142
0.0
142
0.0
142
0.0
142
0.0
142
1.0
142
0.0
142
0.0
142
0.0
142
0.0
142
1.0
179
     0
144
0.0208333333333333
144
0.0
144
0.0
144
0.0
144
0.0
144
0.0208333333333333
144
0.0
144
0.0
144
0.0
144
0.0
144
1.0
144
0.0
144
0.0
144
0.0
144
0.0
144
1.0
147
0.0208333333333333
147
0.0
147
0.0
147
0.0
147
0.0
147
0.0208333333333333
147
0.0
147
0.0
147
0.0
147
0.0
147
1.0
147
0.0
147
0.0
147
0.0
147
0.0
147
1.0
  0
MLEADERSTYLE
  5
39ABB
102
{ACAD_REACTORS
330
3984C
102
}
330
3984C
100
AcDbMLeaderStyle
179
     2
170
     2
171
     1
172
     0
 90
        2
 40
0.0
 41
0.0
173
     1
 91
-1056964608
340
39829
 92
       -2
290
     1
 42
0.09
291
     1
 43
0.36
  3
Standard
 44
0.18
300

342
39826
174
     1
178
     6
175
     1
176
     0
 93
-1056964608
 45
0.18
292
     0
297
     0
 46
0.18
 94
-1056964608
 47
1.0
 49
1.0
140
1.0
293
     1
141
0.0
294
     1
177
     0
142
1.0
295
     0
296
     0
143
0.125
271
     0
272
     9
273
     9
298
     1
  0
MLINESTYLE
  5
3984D
102
{ACAD_REACTORS
330
39837
102
}
330
39837
100
AcDbMlineStyle
  2
STANDARD
 70
     0
  3

 62
   256
 51
90.0
 52
90.0
 71
     2
 49
0.5
 62
   256
  6
BYLAYER
 49
-0.5
 62
   256
  6
BYLAYER
  0
ACDBPLACEHOLDER
  5
3980B
102
{ACAD_REACTORS
330
3980C
102
}
330
3980C
  0
SCALE
  5
39851
102
{ACAD_REACTORS
330
3984A
102
}
330
3984A
100
AcDbScale
 70
     0
300
1:1
140
1.0
141
1.0
290
     1
  0
SCALE
  5
39852
102
{ACAD_REACTORS
330
3984A
102
}
330
3984A
100
AcDbScale
 70
     0
300
1:2
140
1.0
141
2.0
290
     0
  0
SCALE
  5
39853
102
{ACAD_REACTORS
330
3984A
102
}
330
3984A
100
AcDbScale
 70
     0
300
1:4
140
1.0
141
4.0
290
     0
  0
SCALE
  5
39854
102
{ACAD_REACTORS
330
3984A
102
}
330
3984A
100
AcDbScale
 70
     0
300
1:5
140
1.0
141
5.0
290
     0
  0
SCALE
  5
39855
102
{ACAD_REACTORS
330
3984A
102
}
330
3984A
100
AcDbScale
 70
     0
300
1:8
140
1.0
141
8.0
290
     0
  0
SCALE
  5
39856
102
{ACAD_REACTORS
330
3984A
102
}
330
3984A
100
AcDbScale
 70
     0
300
1:10
140
1.0
141
10.0
290
     0
  0
SCALE
  5
39857
102
{ACAD_REACTORS
330
3984A
102
}
330
3984A
100
AcDbScale
 70
     0
300
1:16
140
1.0
141
16.0
290
     0
  0
SCALE
  5
39858
102
{ACAD_REACTORS
330
3984A
102
}
330
3984A
100
AcDbScale
 70
     0
300
1:20
140
1.0
141
20.0
290
     0
  0
SCALE
  5
39859
102
{ACAD_REACTORS
330
3984A
102
}
330
3984A
100
AcDbScale
 70
     0
300
1:30
140
1.0
141
30.0
290
     0
  0
SCALE
  5
3985A
102
{ACAD_REACTORS
330
3984A
102
}
330
3984A
100
AcDbScale
 70
     0
300
1:40
140
1.0
141
40.0
290
     0
  0
SCALE
  5
3985B
102
{ACAD_REACTORS
330
3984A
102
}
330
3984A
100
AcDbScale
 70
     0
300
1:50
140
1.0
141
50.0
290
     0
  0
SCALE
  5
3985C
102
{ACAD_REACTORS
330
3984A
102
}
330
3984A
100
AcDbScale
 70
     0
300
1:100
140
1.0
141
100.0
290
     0
  0
SCALE
  5
3985D
102
{ACAD_REACTORS
330
3984A
102
}
330
3984A
100
AcDbScale
 70
     0
300
2:1
140
2.0
141
1.0
290
     0
  0
SCALE
  5
3985E
102
{ACAD_REACTORS
330
3984A
102
}
330
3984A
100
AcDbScale
 70
     0
300
4:1
140
4.0
141
1.0
290
     0
  0
SCALE
  5
3985F
102
{ACAD_REACTORS
330
3984A
102
}
330
3984A
100
AcDbScale
 70
     0
300
8:1
140
8.0
141
1.0
290
     0
  0
SCALE
  5
39860
102
{ACAD_REACTORS
330
3984A
102
}
330
3984A
100
AcDbScale
 70
     0
300
10:1
140
10.0
141
1.0
290
     0
  0
SCALE
  5
39861
102
{ACAD_REACTORS
330
3984A
102
}
330
3984A
100
AcDbScale
 70
     0
300
100:1
140
100.0
141
1.0
290
     0
  0
SCALE
  5
39862
102
{ACAD_REACTORS
330
3984A
102
}
330
3984A
100
AcDbScale
 70
     0
300
1/128" = 1'-0"
140
0.0078125
141
12.0
290
     0
  0
SCALE
  5
39863
102
{ACAD_REACTORS
330
3984A
102
}
330
3984A
100
AcDbScale
 70
     0
300
1/64" = 1'-0"
140
0.015625
141
12.0
290
     0
  0
SCALE
  5
39864
102
{ACAD_REACTORS
330
3984A
102
}
330
3984A
100
AcDbScale
 70
     0
300
1/32" = 1'-0"
140
0.03125
141
12.0
290
     0
  0
SCALE
  5
39865
102
{ACAD_REACTORS
330
3984A
102
}
330
3984A
100
AcDbScale
 70
     0
300
1/16" = 1'-0"
140
0.0625
141
12.0
290
     0
  0
SCALE
  5
39866
102
{ACAD_REACTORS
330
3984A
102
}
330
3984A
100
AcDbScale
 70
     0
300
3/32" = 1'-0"
140
0.09375
141
12.0
290
     0
  0
SCALE
  5
39867
102
{ACAD_REACTORS
330
3984A
102
}
330
3984A
100
AcDbScale
 70
     0
300
1/8" = 1'-0"
140
0.125
141
12.0
290
     0
  0
SCALE
  5
39868
102
{ACAD_REACTORS
330
3984A
102
}
330
3984A
100
AcDbScale
 70
     0
300
3/16" = 1'-0"
140
0.1875
141
12.0
290
     0
  0
SCALE
  5
39869
102
{ACAD_REACTORS
330
3984A
102
}
330
3984A
100
AcDbScale
 70
     0
300
1/4" = 1'-0"
140
0.25
141
12.0
290
     0
  0
SCALE
  5
3986A
102
{ACAD_REACTORS
330
3984A
102
}
330
3984A
100
AcDbScale
 70
     0
300
3/8" = 1'-0"
140
0.375
141
12.0
290
     0
  0
SCALE
  5
3986B
102
{ACAD_REACTORS
330
3984A
102
}
330
3984A
100
AcDbScale
 70
     0
300
1/2" = 1'-0"
140
0.5
141
12.0
290
     0
  0
SCALE
  5
3986C
102
{ACAD_REACTORS
330
3984A
102
}
330
3984A
100
AcDbScale
 70
     0
300
3/4" = 1'-0"
140
0.75
141
12.0
290
     0
  0
SCALE
  5
3986D
102
{ACAD_REACTORS
330
3984A
102
}
330
3984A
100
AcDbScale
 70
     0
300
1" = 1'-0"
140
1.0
141
12.0
290
     0
  0
SCALE
  5
3986E
102
{ACAD_REACTORS
330
3984A
102
}
330
3984A
100
AcDbScale
 70
     0
300
1-1/2" = 1'-0"
140
1.5
141
12.0
290
     0
  0
SCALE
  5
3986F
102
{ACAD_REACTORS
330
3984A
102
}
330
3984A
100
AcDbScale
 70
     0
300
3" = 1'-0"
140
3.0
141
12.0
290
     0
  0
SCALE
  5
39870
102
{ACAD_REACTORS
330
3984A
102
}
330
3984A
100
AcDbScale
 70
     0
300
6" = 1'-0"
140
6.0
141
12.0
290
     0
  0
SCALE
  5
39871
102
{ACAD_REACTORS
330
3984A
102
}
330
3984A
100
AcDbScale
 70
     0
300
1'-0" = 1'-0"
140
12.0
141
12.0
290
     0
  0
ACDBSECTIONVIEWSTYLE
  5
3A428
102
{ACAD_REACTORS
330
3A427
102
}
330
3A427
100
AcDbModelDocViewStyle
 70
     0
  3
Imperial24
290
     0
300
Imperial24
 90
        0
100
AcDbSectionViewStyle
 70
     0
 71
     0
 90
      102
 71
     1
340
39826
 62
   256
 40
5.0
340
0
340
0
 62
   256
 40
5.0
300
I, O, Q, S, X, Z
 40
10.0
 90
        0
 40
2.5
 90
        0
 71
     2
340
39817
 90
       25
 62
   256
340
39817
 90
       50
 62
   256
 40
5.0
 40
2.5
 40
5.0
 71
     3
340
39826
 62
   256
 40
5.0
 90
        0
 40
15.0
 90
        1
300
%<\AcVar ViewSectionStartId>%-%<\AcVar ViewSectionEndId>% (%<\AcVar ViewScale \f "%sn">%)
 71
     4
 62
   256
 62
   257
300
ANSI31
 40
1.0
 90
        0
290
     0
290
     0
 90
        6
 40
0.0
 40
1.570796326794896
 40
0.2617993877991494
 40
1.308996938995747
 40
-0.2617993877991494
 40
1.832595714594046
  0
TABLESTYLE
  5
3984E
102
{ACAD_XDICTIONARY
360
39A99
102
}
102
{ACAD_REACTORS
330
3984B
102
}
330
3984B
100
AcDbTableStyle
280
     0
  3
Standard
 70
     0
 71
     0
 40
0.06
 41
0.06
280
     0
281
     0
  7
Standard
140
0.18
170
     2
 62
     0
 63
     7
283
     0
 90
        4
 91
        0
  1

274
    -2
284
     1
 64
     0
275
    -2
285
     1
 65
     0
276
    -2
286
     1
 66
     0
277
    -2
287
     1
 67
     0
278
    -2
288
     1
 68
     0
279
    -2
289
     1
 69
     0
  7
Standard
140
0.25
170
     5
 62
     0
 63
     7
283
     0
 90
        4
 91
        0
  1

274
    -2
284
     1
 64
     0
275
    -2
285
     1
 65
     0
276
    -2
286
     1
 66
     0
277
    -2
287
     1
 67
     0
278
    -2
288
     1
 68
     0
279
    -2
289
     1
 69
     0
  7
Standard
140
0.18
170
     5
 62
     0
 63
     7
283
     0
 90
        4
 91
        0
  1

274
    -2
284
     1
 64
     0
275
    -2
285
     1
 65
     0
276
    -2
286
     1
 66
     0
277
    -2
287
     1
 67
     0
278
    -2
288
     1
 68
     0
279
    -2
289
     1
 69
     0
  0
VISUALSTYLE
  5
3982F
102
{ACAD_REACTORS
330
39830
102
}
330
39830
100
AcDbVisualStyle
  2
2dWireframe
 70
     4
177
     3
291
     0
 70
    58
 90
        0
176
     1
 90
        2
176
     1
 90
        0
176
     1
 90
        0
176
     1
 40
0.6
176
     1
 40
30.0
176
     1
 62
     7
420
 16777215
176
     1
 90
        1
176
     1
 90
        4
176
     1
 62
     7
176
     1
 62
   257
176
     1
 90
        1
176
     1
 90
        1
176
     1
 40
1.0
176
     1
 90
        0
176
     1
 62
   257
176
     1
 40
1.0
176
     1
 90
        1
176
     1
 90
        6
176
     1
 90
        2
176
     1
 62
     7
176
     1
 90
        5
176
     1
 90
        0
176
     1
 90
        0
176
     1
290
     0
176
     1
 90
        1
176
     1
 40
0.0
176
     1
 90
        0
176
     1
290
     1
176
     1
290
     1
176
     1
290
     0
176
     1
290
     0
176
     1
290
     0
176
     1
290
     0
176
     1
290
     0
176
     1
290
     0
176
     1
290
     0
176
     1
 90
       50
176
     1
 40
0.0
176
     1
 40
1.0
176
     1
 90
        0
176
     1
 62
    18
420
        0
176
     1
 90
       50
176
     1
 90
        3
176
     1
 62
     5
420
      255
176
     1
290
     0
176
     1
 90
       50
176
     1
 90
       50
176
     1
 90
       50
176
     1
290
     0
176
     1
 90
       50
176
     1
 62
   256
176
     0
 40
1.0
176
     0
 90
        2
176
     1
  1
strokes_ogs.tif
176
     1
290
     0
176
     1
 40
1.0
176
     1
 40
1.0
176
     1
  0
VISUALSTYLE
  5
39AB0
102
{ACAD_REACTORS
330
39830
102
}
330
39830
100
AcDbVisualStyle
  2
3D Hidden
 70
     6
177
     3
291
     0
 70
    58
 90
        1
176
     1
 90
        2
176
     1
 90
        2
176
     1
 90
        0
176
     1
 40
0.6
176
     1
 40
30.0
176
     1
 62
     7
420
 16777215
176
     1
 90
        2
176
     1
 90
        2
176
     1
 62
     7
176
     1
 62
   257
176
     1
 90
        2
176
     1
 90
        1
176
     1
 40
179.0
176
     1
 90
        0
176
     1
 62
   257
176
     1
 40
1.0
176
     1
 90
        1
176
     1
 90
        6
176
     1
 90
        2
176
     1
 62
     7
176
     1
 90
        3
176
     1
 90
        0
176
     1
 90
        0
176
     1
290
     0
176
     1
 90
        1
176
     1
 40
0.0
176
     1
 90
        0
176
     1
290
     0
176
     1
290
     1
176
     1
290
     1
176
     1
290
     0
176
     1
290
     0
176
     1
290
     0
176
     1
290
     0
176
     1
290
     0
176
     1
290
     0
176
     1
 90
       50
176
     1
 40
0.0
176
     1
 40
1.0
176
     1
 90
        0
176
     1
 62
    18
420
        0
176
     1
 90
       50
176
     1
 90
        3
176
     1
 62
     5
420
      255
176
     1
290
     0
176
     1
 90
       50
176
     1
 90
       50
176
     1
 90
       50
176
     1
290
     0
176
     1
 90
       50
176
     1
 62
   256
176
     0
 40
1.0
176
     0
 90
        2
176
     1
  1
strokes_ogs.tif
176
     1
290
     0
176
     1
 40
1.0
176
     1
 40
1.0
176
     1
  0
VISUALSTYLE
  5
39850
102
{ACAD_REACTORS
330
39830
102
}
330
39830
100
AcDbVisualStyle
  2
3dWireframe
 70
     5
177
     3
291
     0
 70
    58
 90
        0
176
     1
 90
        2
176
     1
 90
        0
176
     1
 90
        0
176
     1
 40
0.6
176
     1
 40
30.0
176
     1
 62
     7
420
 16777215
176
     1
 90
        1
176
     1
 90
        4
176
     1
 62
     7
176
     1
 62
   257
176
     1
 90
        1
176
     1
 90
        1
176
     1
 40
1.0
176
     1
 90
        0
176
     1
 62
   257
176
     1
 40
1.0
176
     1
 90
        1
176
     1
 90
        6
176
     1
 90
        2
176
     1
 62
     7
176
     1
 90
        5
176
     1
 90
        0
176
     1
 90
        0
176
     1
290
     0
176
     1
 90
        1
176
     1
 40
0.0
176
     1
 90
        0
176
     1
290
     0
176
     1
290
     1
176
     1
290
     1
176
     1
290
     0
176
     1
290
     0
176
     1
290
     0
176
     1
290
     0
176
     1
290
     0
176
     1
290
     0
176
     1
 90
       50
176
     1
 40
0.0
176
     1
 40
1.0
176
     1
 90
        0
176
     1
 62
    18
420
        0
176
     1
 90
       50
176
     1
 90
        3
176
     1
 62
     5
420
      255
176
     1
290
     0
176
     1
 90
       50
176
     1
 90
       50
176
     1
 90
       50
176
     1
290
     0
176
     1
 90
       50
176
     1
 62
   256
176
     0
 40
1.0
176
     0
 90
        2
176
     1
  1
strokes_ogs.tif
176
     1
290
     0
176
     1
 40
1.0
176
     1
 40
1.0
176
     1
  0
VISUALSTYLE
  5
39AAF
102
{ACAD_REACTORS
330
39830
102
}
330
39830
100
AcDbVisualStyle
  2
Basic
 70
     7
177
     3
291
     1
 70
    58
 90
        1
176
     1
 90
        0
176
     1
 90
        1
176
     1
 90
        0
176
     1
 40
0.6
176
     1
 40
30.0
176
     1
 62
     7
420
 16777215
176
     1
 90
        0
176
     1
 90
        4
176
     1
 62
     7
176
     1
 62
   257
176
     1
 90
        1
176
     1
 90
        1
176
     1
 40
1.0
176
     1
 90
        8
176
     1
 62
     7
176
     1
 40
1.0
176
     1
 90
        1
176
     1
 90
        6
176
     1
 90
        2
176
     1
 62
     7
176
     1
 90
        5
176
     1
 90
        0
176
     1
 90
        0
176
     1
290
     0
176
     1
 90
        1
176
     1
 40
0.0
176
     1
 90
        0
176
     1
290
     0
176
     1
290
     1
176
     1
290
     1
176
     1
290
     0
176
     1
290
     0
176
     1
290
     0
176
     1
290
     0
176
     1
290
     0
176
     1
290
     0
176
     1
 90
       50
176
     1
 40
0.0
176
     1
 40
1.0
176
     1
 90
        0
176
     1
 62
    18
420
        0
176
     1
 90
       50
176
     1
 90
        3
176
     1
 62
     5
420
      255
176
     1
290
     0
176
     1
 90
       50
176
     1
 90
       50
176
     1
 90
       50
176
     1
290
     0
176
     1
 90
       50
176
     1
 62
   256
176
     0
 40
1.0
176
     0
 90
        2
176
     1
  1
strokes_ogs.tif
176
     1
290
     0
176
     1
 40
1.0
176
     1
 40
1.0
176
     1
  0
VISUALSTYLE
  5
39AB3
102
{ACAD_REACTORS
330
39830
102
}
330
39830
100
AcDbVisualStyle
  2
Brighten
 70
    12
177
     3
291
     1
 70
    58
 90
        2
176
     1
 90
        2
176
     1
 90
        0
176
     1
 90
        0
176
     1
 40
0.6
176
     1
 40
30.0
176
     1
 62
     7
420
 16777215
176
     1
 90
        1
176
     1
 90
        4
176
     1
 62
     7
176
     1
 62
   257
176
     1
 90
        1
176
     1
 90
        1
176
     1
 40
1.0
176
     1
 90
        8
176
     1
 62
     7
176
     1
 40
1.0
176
     1
 90
        1
176
     1
 90
        6
176
     1
 90
        2
176
     1
 62
     7
176
     1
 90
        5
176
     1
 90
        0
176
     1
 90
        0
176
     1
290
     0
176
     1
 90
        1
176
     1
 40
50.0
176
     1
 90
        0
176
     1
290
     0
176
     1
290
     1
176
     1
290
     1
176
     1
290
     0
176
     1
290
     0
176
     1
290
     0
176
     1
290
     0
176
     1
290
     0
176
     1
290
     0
176
     1
 90
       50
176
     1
 40
0.0
176
     1
 40
1.0
176
     1
 90
        0
176
     1
 62
    18
420
        0
176
     1
 90
       50
176
     1
 90
        3
176
     1
 62
     5
420
      255
176
     1
290
     0
176
     1
 90
       50
176
     1
 90
       50
176
     1
 90
       50
176
     1
290
     0
176
     1
 90
       50
176
     1
 62
   256
176
     0
 40
1.0
176
     0
 90
        2
176
     1
  1
strokes_ogs.tif
176
     1
290
     0
176
     1
 40
1.0
176
     1
 40
1.0
176
     1
  0
VISUALSTYLE
  5
39AB7
102
{ACAD_REACTORS
330
39830
102
}
330
39830
100
AcDbVisualStyle
  2
ColorChange
 70
    16
177
     3
291
     1
 70
    58
 90
        2
176
     1
 90
        2
176
     1
 90
        3
176
     1
 90
        0
176
     1
 40
0.6
176
     1
 40
30.0
176
     1
 62
     8
420
  8421504
176
     1
 90
        1
176
     1
 90
        4
176
     1
 62
     7
176
     1
 62
   257
176
     1
 90
        1
176
     1
 90
        1
176
     1
 40
1.0
176
     1
 90
        8
176
     1
 62
     8
420
  8421504
176
     1
 40
1.0
176
     1
 90
        1
176
     1
 90
        6
176
     1
 90
        2
176
     1
 62
     7
176
     1
 90
        5
176
     1
 90
        0
176
     1
 90
        0
176
     1
290
     0
176
     1
 90
        1
176
     1
 40
0.0
176
     1
 90
        0
176
     1
290
     0
176
     1
290
     1
176
     1
290
     1
176
     1
290
     0
176
     1
290
     0
176
     1
290
     0
176
     1
290
     0
176
     1
290
     0
176
     1
290
     0
176
     1
 90
       50
176
     1
 40
0.0
176
     1
 40
1.0
176
     1
 90
        0
176
     1
 62
    18
420
        0
176
     1
 90
       50
176
     1
 90
        3
176
     1
 62
     5
420
      255
176
     1
290
     0
176
     1
 90
       50
176
     1
 90
       50
176
     1
 90
       50
176
     1
290
     0
176
     1
 90
       50
176
     1
 62
   256
176
     0
 40
1.0
176
     0
 90
        2
176
     1
  1
strokes_ogs.tif
176
     1
290
     0
176
     1
 40
1.0
176
     1
 40
1.0
176
     1
  0
VISUALSTYLE
  5
39AB1
102
{ACAD_REACTORS
330
39830
102
}
330
39830
100
AcDbVisualStyle
  2
Conceptual
 70
     9
177
     3
291
     0
 70
    58
 90
        3
176
     1
 90
        2
176
     1
 90
        0
176
     1
 90
        0
176
     1
 40
0.6
176
     1
 40
30.0
176
     1
 62
     7
420
 16777215
176
     1
 90
        2
176
     1
 90
        2
176
     1
 62
     7
176
     1
 62
   257
176
     1
 90
        1
176
     1
 90
        1
176
     1
 40
179.0
176
     1
 90
        8
176
     1
 62
     7
176
     1
 40
1.0
176
     1
 90
        1
176
     1
 90
        6
176
     1
 90
        2
176
     1
 62
     7
176
     1
 90
        3
176
     1
 90
        0
176
     1
 90
        0
176
     1
290
     0
176
     1
 90
        1
176
     1
 40
0.0
176
     1
 90
        0
176
     1
290
     0
176
     1
290
     1
176
     1
290
     1
176
     1
290
     0
176
     1
290
     0
176
     1
290
     0
176
     1
290
     0
176
     1
290
     0
176
     1
290
     0
176
     1
 90
       50
176
     1
 40
0.0
176
     1
 40
1.0
176
     1
 90
        0
176
     1
 62
    18
420
        0
176
     1
 90
       50
176
     1
 90
        3
176
     1
 62
     5
420
      255
176
     1
290
     0
176
     1
 90
       50
176
     1
 90
       50
176
     1
 90
       50
176
     1
290
     0
176
     1
 90
       50
176
     1
 62
   256
176
     0
 40
1.0
176
     0
 90
        2
176
     1
  1
strokes_ogs.tif
176
     1
290
     0
176
     1
 40
1.0
176
     1
 40
1.0
176
     1
  0
VISUALSTYLE
  5
39AB2
102
{ACAD_REACTORS
330
39830
102
}
330
39830
100
AcDbVisualStyle
  2
Dim
 70
    11
177
     3
291
     1
 70
    58
 90
        2
176
     1
 90
        2
176
     1
 90
        0
176
     1
 90
        0
176
     1
 40
0.6
176
     1
 40
30.0
176
     1
 62
     7
420
 16777215
176
     1
 90
        1
176
     1
 90
        4
176
     1
 62
     7
176
     1
 62
   257
176
     1
 90
        1
176
     1
 90
        1
176
     1
 40
1.0
176
     1
 90
        8
176
     1
 62
     7
176
     1
 40
1.0
176
     1
 90
        1
176
     1
 90
        6
176
     1
 90
        2
176
     1
 62
     7
176
     1
 90
        5
176
     1
 90
        0
176
     1
 90
        0
176
     1
290
     0
176
     1
 90
        1
176
     1
 40
-50.0
176
     1
 90
        0
176
     1
290
     0
176
     1
290
     1
176
     1
290
     1
176
     1
290
     0
176
     1
290
     0
176
     1
290
     0
176
     1
290
     0
176
     1
290
     0
176
     1
290
     0
176
     1
 90
       50
176
     1
 40
0.0
176
     1
 40
1.0
176
     1
 90
        0
176
     1
 62
    18
420
        0
176
     1
 90
       50
176
     1
 90
        3
176
     1
 62
     5
420
      255
176
     1
290
     0
176
     1
 90
       50
176
     1
 90
       50
176
     1
 90
       50
176
     1
290
     0
176
     1
 90
       50
176
     1
 62
   256
176
     0
 40
1.0
176
     0
 90
        2
176
     1
  1
strokes_ogs.tif
176
     1
290
     0
176
     1
 40
1.0
176
     1
 40
1.0
176
     1
  0
VISUALSTYLE
  5
39ABA
102
{ACAD_REACTORS
330
39830
102
}
330
39830
100
AcDbVisualStyle
  2
EdgeColorOff
 70
    22
177
     3
291
     1
 70
    58
 90
        2
176
     0
 90
        2
176
     0
 90
        0
176
     0
 90
        0
176
     0
 40
0.6
176
     0
 40
30.0
176
     0
 62
     7
420
 16777215
176
     0
 90
        1
176
     0
 90
        4
176
     0
 62
     7
176
     0
 62
   257
176
     0
 90
        1
176
     0
 90
        1
176
     0
 40
1.0
176
     0
 90
        8
176
     2
 62
     7
176
     0
 40
1.0
176
     0
 90
        1
176
     0
 90
        6
176
     0
 90
        2
176
     0
 62
     7
176
     0
 90
        5
176
     0
 90
        0
176
     0
 90
        0
176
     0
290
     0
176
     0
 90
        1
176
     0
 40
0.0
176
     0
 90
        0
176
     0
290
     0
176
     1
290
     1
176
     1
290
     1
176
     1
290
     0
176
     1
290
     0
176
     1
290
     0
176
     1
290
     0
176
     1
290
     0
176
     1
290
     0
176
     1
 90
       50
176
     1
 40
0.0
176
     1
 40
1.0
176
     1
 90
        0
176
     1
 62
    18
420
        0
176
     1
 90
       50
176
     1
 90
        3
176
     1
 62
     5
420
      255
176
     1
290
     0
176
     1
 90
       50
176
     1
 90
       50
176
     1
 90
       50
176
     1
290
     0
176
     1
 90
       50
176
     1
 62
   256
176
     0
 40
1.0
176
     0
 90
        2
176
     1
  1
strokes_ogs.tif
176
     1
290
     0
176
     1
 40
1.0
176
     1
 40
1.0
176
     1
  0
VISUALSTYLE
  5
39AB6
102
{ACAD_REACTORS
330
39830
102
}
330
39830
100
AcDbVisualStyle
  2
Facepattern
 70
    15
177
     3
291
     1
 70
    58
 90
        2
176
     1
 90
        2
176
     1
 90
        0
176
     1
 90
        0
176
     1
 40
0.6
176
     1
 40
30.0
176
     1
 62
     7
420
 16777215
176
     1
 90
        1
176
     1
 90
        4
176
     1
 62
     7
176
     1
 62
   257
176
     1
 90
        1
176
     1
 90
        1
176
     1
 40
1.0
176
     1
 90
        8
176
     1
 62
     7
176
     1
 40
1.0
176
     1
 90
        1
176
     1
 90
        6
176
     1
 90
        2
176
     1
 62
     7
176
     1
 90
        5
176
     1
 90
        0
176
     1
 90
        0
176
     1
290
     0
176
     1
 90
        1
176
     1
 40
0.0
176
     1
 90
        0
176
     1
290
     0
176
     1
290
     1
176
     1
290
     1
176
     1
290
     0
176
     1
290
     0
176
     1
290
     0
176
     1
290
     0
176
     1
290
     0
176
     1
290
     0
176
     1
 90
       50
176
     1
 40
0.0
176
     1
 40
1.0
176
     1
 90
        0
176
     1
 62
    18
420
        0
176
     1
 90
       50
176
     1
 90
        3
176
     1
 62
     5
420
      255
176
     1
290
     0
176
     1
 90
       50
176
     1
 90
       50
176
     1
 90
       50
176
     1
290
     0
176
     1
 90
       50
176
     1
 62
   256
176
     0
 40
1.0
176
     0
 90
        2
176
     1
  1
strokes_ogs.tif
176
     1
290
     0
176
     1
 40
1.0
176
     1
 40
1.0
176
     1
  0
VISUALSTYLE
  5
39AAB
102
{ACAD_REACTORS
330
39830
102
}
330
39830
100
AcDbVisualStyle
  2
Flat
 70
     0
177
     3
291
     1
 70
    58
 90
        2
176
     1
 90
        1
176
     1
 90
        1
176
     1
 90
        2
176
     1
 40
0.6
176
     1
 40
30.0
176
     1
 62
     7
420
 16777215
176
     1
 90
        0
176
     1
 90
        4
176
     1
 62
     7
176
     1
 62
   257
176
     1
 90
        1
176
     1
 90
        1
176
     1
 40
1.0
176
     1
 90
        8
176
     1
 62
     7
176
     1
 40
1.0
176
     1
 90
        1
176
     1
 90
        6
176
     1
 90
        2
176
     1
 62
     7
176
     1
 90
        5
176
     1
 90
        0
176
     1
 90
        0
176
     1
290
     0
176
     1
 90
       13
176
     1
 40
0.0
176
     1
 90
        0
176
     1
290
     0
176
     1
290
     1
176
     1
290
     1
176
     1
290
     0
176
     1
290
     0
176
     1
290
     0
176
     1
290
     0
176
     1
290
     0
176
     1
290
     0
176
     1
 90
       50
176
     1
 40
0.0
176
     1
 40
1.0
176
     1
 90
        0
176
     1
 62
    18
420
        0
176
     1
 90
       50
176
     1
 90
        3
176
     1
 62
     5
420
      255
176
     1
290
     0
176
     1
 90
       50
176
     1
 90
       50
176
     1
 90
       50
176
     1
290
     0
176
     1
 90
       50
176
     1
 62
   256
176
     0
 40
1.0
176
     0
 90
        2
176
     1
  1
strokes_ogs.tif
176
     1
290
     0
176
     1
 40
1.0
176
     1
 40
1.0
176
     1
  0
VISUALSTYLE
  5
39AAC
102
{ACAD_REACTORS
330
39830
102
}
330
39830
100
AcDbVisualStyle
  2
FlatWithEdges
 70
     1
177
     3
291
     1
 70
    58
 90
        2
176
     1
 90
        1
176
     1
 90
        1
176
     1
 90
        2
176
     1
 40
0.6
176
     1
 40
30.0
176
     1
 62
     7
420
 16777215
176
     1
 90
        1
176
     1
 90
        4
176
     1
 62
     7
176
     1
 62
   257
176
     1
 90
        1
176
     1
 90
        1
176
     1
 40
1.0
176
     1
 90
        0
176
     1
 62
   257
176
     1
 40
1.0
176
     1
 90
        1
176
     1
 90
        6
176
     1
 90
        2
176
     1
 62
     7
176
     1
 90
        5
176
     1
 90
        0
176
     1
 90
        0
176
     1
290
     0
176
     1
 90
       13
176
     1
 40
0.0
176
     1
 90
        0
176
     1
290
     0
176
     1
290
     1
176
     1
290
     1
176
     1
290
     0
176
     1
290
     0
176
     1
290
     0
176
     1
290
     0
176
     1
290
     0
176
     1
290
     0
176
     1
 90
       50
176
     1
 40
0.0
176
     1
 40
1.0
176
     1
 90
        0
176
     1
 62
    18
420
        0
176
     1
 90
       50
176
     1
 90
        3
176
     1
 62
     5
420
      255
176
     1
290
     0
176
     1
 90
       50
176
     1
 90
       50
176
     1
 90
       50
176
     1
290
     0
176
     1
 90
       50
176
     1
 62
   256
176
     0
 40
1.0
176
     0
 90
        2
176
     1
  1
strokes_ogs.tif
176
     1
290
     0
176
     1
 40
1.0
176
     1
 40
1.0
176
     1
  0
VISUALSTYLE
  5
39AAD
102
{ACAD_REACTORS
330
39830
102
}
330
39830
100
AcDbVisualStyle
  2
Gouraud
 70
     2
177
     3
291
     1
 70
    58
 90
        2
176
     1
 90
        2
176
     1
 90
        1
176
     1
 90
        2
176
     1
 40
0.6
176
     1
 40
30.0
176
     1
 62
     7
420
 16777215
176
     1
 90
        0
176
     1
 90
        4
176
     1
 62
     7
176
     1
 62
   257
176
     1
 90
        1
176
     1
 90
        1
176
     1
 40
1.0
176
     1
 90
        0
176
     1
 62
     7
176
     1
 40
1.0
176
     1
 90
        1
176
     1
 90
        6
176
     1
 90
        2
176
     1
 62
     7
176
     1
 90
        5
176
     1
 90
        0
176
     1
 90
        0
176
     1
290
     0
176
     1
 90
       13
176
     1
 40
0.0
176
     1
 90
        0
176
     1
290
     0
176
     1
290
     1
176
     1
290
     1
176
     1
290
     0
176
     1
290
     0
176
     1
290
     0
176
     1
290
     0
176
     1
290
     0
176
     1
290
     0
176
     1
 90
       50
176
     1
 40
0.0
176
     1
 40
1.0
176
     1
 90
        0
176
     1
 62
    18
420
        0
176
     1
 90
       50
176
     1
 90
        3
176
     1
 62
     5
420
      255
176
     1
290
     0
176
     1
 90
       50
176
     1
 90
       50
176
     1
 90
       50
176
     1
290
     0
176
     1
 90
       50
176
     1
 62
   256
176
     0
 40
1.0
176
     0
 90
        2
176
     1
  1
strokes_ogs.tif
176
     1
290
     0
176
     1
 40
1.0
176
     1
 40
1.0
176
     1
  0
VISUALSTYLE
  5
39AAE
102
{ACAD_REACTORS
330
39830
102
}
330
39830
100
AcDbVisualStyle
  2
GouraudWithEdges
 70
     3
177
     3
291
     1
 70
    58
 90
        2
176
     1
 90
        2
176
     1
 90
        1
176
     1
 90
        2
176
     1
 40
0.6
176
     1
 40
30.0
176
     1
 62
     7
420
 16777215
176
     1
 90
        1
176
     1
 90
        4
176
     1
 62
     7
176
     1
 62
   257
176
     1
 90
        1
176
     1
 90
        1
176
     1
 40
1.0
176
     1
 90
        0
176
     1
 62
   257
176
     1
 40
1.0
176
     1
 90
        1
176
     1
 90
        6
176
     1
 90
        2
176
     1
 62
     7
176
     1
 90
        5
176
     1
 90
        0
176
     1
 90
        0
176
     1
290
     0
176
     1
 90
       13
176
     1
 40
0.0
176
     1
 90
        0
176
     1
290
     0
176
     1
290
     1
176
     1
290
     1
176
     1
290
     0
176
     1
290
     0
176
     1
290
     0
176
     1
290
     0
176
     1
290
     0
176
     1
290
     0
176
     1
 90
       50
176
     1
 40
0.0
176
     1
 40
1.0
176
     1
 90
        0
176
     1
 62
    18
420
        0
176
     1
 90
       50
176
     1
 90
        3
176
     1
 62
     5
420
      255
176
     1
290
     0
176
     1
 90
       50
176
     1
 90
       50
176
     1
 90
       50
176
     1
290
     0
176
     1
 90
       50
176
     1
 62
   256
176
     0
 40
1.0
176
     0
 90
        2
176
     1
  1
strokes_ogs.tif
176
     1
290
     0
176
     1
 40
1.0
176
     1
 40
1.0
176
     1
  0
VISUALSTYLE
  5
3A421
102
{ACAD_REACTORS
330
39830
102
}
330
39830
100
AcDbVisualStyle
  2
Hidden
 70
     6
177
     3
291
     0
 70
    58
 90
        1
176
     1
 90
        2
176
     1
 90
        2
176
     1
 90
        0
176
     1
 40
0.6
176
     1
 40
30.0
176
     1
 62
     7
420
 16777215
176
     1
 90
        2
176
     1
 90
        2
176
     1
 62
     7
176
     1
 62
   257
176
     1
 90
        2
176
     1
 90
        1
176
     1
 40
40.0
176
     1
 90
        0
176
     1
 62
   257
176
     1
 40
1.0
176
     1
 90
        1
176
     1
 90
        6
176
     1
 90
        2
176
     1
 62
     7
176
     1
 90
        3
176
     1
 90
        0
176
     1
 90
        0
176
     1
290
     0
176
     1
 90
        1
176
     1
 40
0.0
176
     1
 90
        0
176
     1
290
     0
176
     1
290
     1
176
     1
290
     1
176
     1
290
     0
176
     1
290
     0
176
     1
290
     0
176
     1
290
     0
176
     1
290
     0
176
     1
290
     0
176
     1
 90
       50
176
     1
 40
0.0
176
     1
 40
1.0
176
     1
 90
        0
176
     1
 62
    18
420
        0
176
     1
 90
       50
176
     1
 90
        3
176
     1
 62
     5
420
      255
176
     1
290
     0
176
     1
 90
       50
176
     1
 90
       50
176
     1
 90
       50
176
     1
290
     0
176
     1
 90
       50
176
     1
 62
   256
176
     0
 40
1.0
176
     0
 90
        2
176
     1
  1
strokes_ogs.tif
176
     1
290
     0
176
     1
 40
1.0
176
     1
 40
1.0
176
     1
  0
VISUALSTYLE
  5
39AB8
102
{ACAD_REACTORS
330
39830
102
}
330
39830
100
AcDbVisualStyle
  2
JitterOff
 70
    20
177
     3
291
     1
 70
    58
 90
        2
176
     0
 90
        2
176
     0
 90
        0
176
     0
 90
        0
176
     0
 40
0.6
176
     0
 40
30.0
176
     0
 62
     7
420
 16777215
176
     0
 90
        1
176
     0
 90
        4
176
     0
 62
     7
176
     0
 62
   257
176
     0
 90
        1
176
     0
 90
        1
176
     0
 40
1.0
176
     0
 90
       10
176
     2
 62
     7
176
     0
 40
1.0
176
     0
 90
        1
176
     0
 90
        6
176
     0
 90
        2
176
     0
 62
     7
176
     0
 90
        5
176
     0
 90
        0
176
     0
 90
        0
176
     0
290
     0
176
     0
 90
        1
176
     0
 40
0.0
176
     0
 90
        0
176
     0
290
     0
176
     1
290
     1
176
     1
290
     1
176
     1
290
     0
176
     1
290
     0
176
     1
290
     0
176
     1
290
     0
176
     1
290
     0
176
     1
290
     0
176
     1
 90
       50
176
     1
 40
0.0
176
     1
 40
1.0
176
     1
 90
        0
176
     1
 62
    18
420
        0
176
     1
 90
       50
176
     1
 90
        3
176
     1
 62
     5
420
      255
176
     1
290
     0
176
     1
 90
       50
176
     1
 90
       50
176
     1
 90
       50
176
     1
290
     0
176
     1
 90
       50
176
     1
 62
   256
176
     0
 40
1.0
176
     0
 90
        2
176
     1
  1
strokes_ogs.tif
176
     1
290
     0
176
     1
 40
1.0
176
     1
 40
1.0
176
     1
  0
VISUALSTYLE
  5
39AB5
102
{ACAD_REACTORS
330
39830
102
}
330
39830
100
AcDbVisualStyle
  2
Linepattern
 70
    14
177
     3
291
     1
 70
    58
 90
        2
176
     1
 90
        2
176
     1
 90
        0
176
     1
 90
        0
176
     1
 40
0.6
176
     1
 40
30.0
176
     1
 62
     7
420
 16777215
176
     1
 90
        1
176
     1
 90
        4
176
     1
 62
     7
176
     1
 62
   257
176
     1
 90
        7
176
     1
 90
        7
176
     1
 40
1.0
176
     1
 90
        8
176
     1
 62
     7
176
     1
 40
1.0
176
     1
 90
        1
176
     1
 90
        6
176
     1
 90
        2
176
     1
 62
     7
176
     1
 90
        5
176
     1
 90
        0
176
     1
 90
        0
176
     1
290
     0
176
     1
 90
        1
176
     1
 40
0.0
176
     1
 90
        0
176
     1
290
     0
176
     1
290
     1
176
     1
290
     1
176
     1
290
     0
176
     1
290
     0
176
     1
290
     0
176
     1
290
     0
176
     1
290
     0
176
     1
290
     0
176
     1
 90
       50
176
     1
 40
0.0
176
     1
 40
1.0
176
     1
 90
        0
176
     1
 62
    18
420
        0
176
     1
 90
       50
176
     1
 90
        3
176
     1
 62
     5
420
      255
176
     1
290
     0
176
     1
 90
       50
176
     1
 90
       50
176
     1
 90
       50
176
     1
290
     0
176
     1
 90
       50
176
     1
 62
   256
176
     0
 40
1.0
176
     0
 90
        2
176
     1
  1
strokes_ogs.tif
176
     1
290
     0
176
     1
 40
1.0
176
     1
 40
1.0
176
     1
  0
VISUALSTYLE
  5
39AB9
102
{ACAD_REACTORS
330
39830
102
}
330
39830
100
AcDbVisualStyle
  2
OverhangOff
 70
    21
177
     3
291
     1
 70
    58
 90
        2
176
     0
 90
        2
176
     0
 90
        0
176
     0
 90
        0
176
     0
 40
0.6
176
     0
 40
30.0
176
     0
 62
     7
420
 16777215
176
     0
 90
        1
176
     0
 90
        4
176
     0
 62
     7
176
     0
 62
   257
176
     0
 90
        1
176
     0
 90
        1
176
     0
 40
1.0
176
     0
 90
        9
176
     2
 62
     7
176
     0
 40
1.0
176
     0
 90
        1
176
     0
 90
        6
176
     0
 90
        2
176
     0
 62
     7
176
     0
 90
        5
176
     0
 90
        0
176
     0
 90
        0
176
     0
290
     0
176
     0
 90
        1
176
     0
 40
0.0
176
     0
 90
        0
176
     0
290
     0
176
     1
290
     1
176
     1
290
     1
176
     1
290
     0
176
     1
290
     0
176
     1
290
     0
176
     1
290
     0
176
     1
290
     0
176
     1
290
     0
176
     1
 90
       50
176
     1
 40
0.0
176
     1
 40
1.0
176
     1
 90
        0
176
     1
 62
    18
420
        0
176
     1
 90
       50
176
     1
 90
        3
176
     1
 62
     5
420
      255
176
     1
290
     0
176
     1
 90
       50
176
     1
 90
       50
176
     1
 90
       50
176
     1
290
     0
176
     1
 90
       50
176
     1
 62
   256
176
     0
 40
1.0
176
     0
 90
        2
176
     1
  1
strokes_ogs.tif
176
     1
290
     0
176
     1
 40
1.0
176
     1
 40
1.0
176
     1
  0
VISUALSTYLE
  5
3984F
102
{ACAD_REACTORS
330
39830
102
}
330
39830
100
AcDbVisualStyle
  2
Realistic
 70
     8
177
     3
291
     0
 70
    58
 90
        2
176
     1
 90
        2
176
     1
 90
        0
176
     1
 90
        0
176
     1
 40
0.6
176
     1
 40
30.0
176
     1
 62
     7
420
 16777215
176
     1
 90
        1
176
     1
 90
        0
176
     1
 62
     7
176
     1
 62
   257
176
     1
 90
        1
176
     1
 90
        1
176
     1
 40
1.0
176
     1
 90
        8
176
     1
 62
     8
420
  7895160
176
     1
 40
1.0
176
     1
 90
        1
176
     1
 90
        6
176
     1
 90
        2
176
     1
 62
     7
176
     1
 90
        5
176
     1
 90
        0
176
     1
 90
        0
176
     1
290
     0
176
     1
 90
       13
176
     1
 40
0.0
176
     1
 90
        0
176
     1
290
     0
176
     1
290
     1
176
     1
290
     1
176
     1
290
     0
176
     1
290
     0
176
     1
290
     0
176
     1
290
     0
176
     1
290
     0
176
     1
290
     0
176
     1
 90
       50
176
     1
 40
0.0
176
     1
 40
1.0
176
     1
 90
        0
176
     1
 62
    18
420
        0
176
     1
 90
       50
176
     1
 90
        3
176
     1
 62
     5
420
      255
176
     1
290
     0
176
     1
 90
       50
176
     1
 90
       50
176
     1
 90
       50
176
     1
290
     0
176
     1
 90
       50
176
     1
 62
   256
176
     0
 40
1.0
176
     0
 90
        2
176
     1
  1
strokes_ogs.tif
176
     1
290
     0
176
     1
 40
1.0
176
     1
 40
1.0
176
     1
  0
VISUALSTYLE
  5
3A426
102
{ACAD_REACTORS
330
39830
102
}
330
39830
100
AcDbVisualStyle
  2
Shaded
 70
    27
177
     3
291
     0
 70
    58
 90
        2
176
     1
 90
        2
176
     1
 90
        1
176
     1
 90
        2
176
     1
 40
0.6
176
     1
 40
30.0
176
     1
 62
     7
420
 16777215
176
     1
 90
        0
176
     1
 90
        4
176
     1
 62
     7
176
     1
 62
   257
176
     1
 90
        1
176
     1
 90
        1
176
     1
 40
1.0
176
     1
 90
        8
176
     1
 62
   257
176
     1
 40
1.0
176
     1
 90
        1
176
     1
 90
        6
176
     1
 90
        2
176
     1
 62
     8
420
  7895160
176
     1
 90
        3
176
     1
 90
        0
176
     1
 90
        0
176
     1
290
     0
176
     1
 90
        5
176
     1
 40
0.0
176
     1
 90
        0
176
     1
290
     0
176
     1
290
     1
176
     1
290
     1
176
     1
290
     0
176
     1
290
     0
176
     1
290
     0
176
     1
290
     0
176
     1
290
     0
176
     1
290
     0
176
     1
 90
       50
176
     1
 40
0.0
176
     1
 40
1.0
176
     1
 90
        0
176
     1
 62
    18
420
        0
176
     1
 90
       50
176
     1
 90
        3
176
     1
 62
     5
420
      255
176
     1
290
     0
176
     1
 90
       50
176
     1
 90
       50
176
     1
 90
       50
176
     1
290
     0
176
     1
 90
       50
176
     1
 62
   256
176
     0
 40
1.0
176
     0
 90
        2
176
     1
  1
strokes_ogs.tif
176
     1
290
     0
176
     1
 40
1.0
176
     1
 40
1.0
176
     1
  0
VISUALSTYLE
  5
3A425
102
{ACAD_REACTORS
330
39830
102
}
330
39830
100
AcDbVisualStyle
  2
Shaded with edges
 70
    26
177
     3
291
     0
 70
    58
 90
        2
176
     1
 90
        2
176
     1
 90
        1
176
     1
 90
        2
176
     1
 40
0.6
176
     1
 40
30.0
176
     1
 62
     7
420
 16777215
176
     1
 90
        1
176
     1
 90
        2
176
     1
 62
     7
176
     1
 62
   257
176
     1
 90
        2
176
     1
 90
        1
176
     1
 40
1.0
176
     1
 90
        8
176
     1
 62
   257
176
     1
 40
1.0
176
     1
 90
        1
176
     1
 90
        6
176
     1
 90
        2
176
     1
 62
     7
176
     1
 90
        3
176
     1
 90
        0
176
     1
 90
        0
176
     1
290
     0
176
     1
 90
        5
176
     1
 40
0.0
176
     1
 90
        0
176
     1
290
     0
176
     1
290
     1
176
     1
290
     1
176
     1
290
     0
176
     1
290
     0
176
     1
290
     0
176
     1
290
     0
176
     1
290
     0
176
     1
290
     0
176
     1
 90
       50
176
     1
 40
0.0
176
     1
 40
1.0
176
     1
 90
        0
176
     1
 62
    18
420
        0
176
     1
 90
       50
176
     1
 90
        3
176
     1
 62
     5
420
      255
176
     1
290
     0
176
     1
 90
       50
176
     1
 90
       50
176
     1
 90
       50
176
     1
290
     0
176
     1
 90
       50
176
     1
 62
   256
176
     0
 40
1.0
176
     0
 90
        2
176
     1
  1
strokes_ogs.tif
176
     1
290
     0
176
     1
 40
1.0
176
     1
 40
1.0
176
     1
  0
VISUALSTYLE
  5
3A422
102
{ACAD_REACTORS
330
39830
102
}
330
39830
100
AcDbVisualStyle
  2
Shades of Gray
 70
    23
177
     3
291
     0
 70
    58
 90
        2
176
     1
 90
        2
176
     1
 90
        3
176
     1
 90
        0
176
     1
 40
0.6
176
     1
 40
30.0
176
     1
 62
     7
420
 16777215
176
     1
 90
        2
176
     1
 90
        2
176
     1
 62
     7
176
     1
 62
     7
176
     1
 90
        1
176
     1
 90
        1
176
     1
 40
40.0
176
     1
 90
        8
176
     1
 62
     7
176
     1
 40
1.0
176
     1
 90
        1
176
     1
 90
        6
176
     1
 90
        2
176
     1
 62
     7
176
     1
 90
        3
176
     1
 90
        0
176
     1
 90
        0
176
     1
290
     0
176
     1
 90
        1
176
     1
 40
0.0
176
     1
 90
        0
176
     1
290
     0
176
     1
290
     1
176
     1
290
     1
176
     1
290
     0
176
     1
290
     0
176
     1
290
     0
176
     1
290
     0
176
     1
290
     0
176
     1
290
     0
176
     1
 90
       50
176
     1
 40
0.0
176
     1
 40
1.0
176
     1
 90
        0
176
     1
 62
    18
420
        0
176
     1
 90
       50
176
     1
 90
        3
176
     1
 62
     5
420
      255
176
     1
290
     0
176
     1
 90
       50
176
     1
 90
       50
176
     1
 90
       50
176
     1
290
     0
176
     1
 90
       50
176
     1
 62
   256
176
     0
 40
1.0
176
     0
 90
        2
176
     1
  1
strokes_ogs.tif
176
     1
290
     0
176
     1
 40
1.0
176
     1
 40
1.0
176
     1
  0
VISUALSTYLE
  5
3A423
102
{ACAD_REACTORS
330
39830
102
}
330
39830
100
AcDbVisualStyle
  2
Sketchy
 70
    24
177
     3
291
     0
 70
    58
 90
        1
176
     1
 90
        2
176
     1
 90
        2
176
     1
 90
        0
176
     1
 40
0.6
176
     1
 40
30.0
176
     1
 62
     7
420
 16777215
176
     1
 90
        2
176
     1
 90
        2
176
     1
 62
     7
176
     1
 62
     7
176
     1
 90
        1
176
     1
 90
        1
176
     1
 40
40.0
176
     1
 90
       11
176
     1
 62
     7
176
     1
 40
1.0
176
     1
 90
        1
176
     1
 90
        6
176
     1
 90
        2
176
     1
 62
     7
176
     1
 90
        6
176
     1
 90
        0
176
     1
 90
        0
176
     1
290
     0
176
     1
 90
        1
176
     1
 40
0.0
176
     1
 90
        0
176
     1
290
     0
176
     1
290
     1
176
     1
290
     1
176
     1
290
     0
176
     1
290
     0
176
     1
290
     0
176
     1
290
     0
176
     1
290
     0
176
     1
290
     0
176
     1
 90
       50
176
     1
 40
0.0
176
     1
 40
1.0
176
     1
 90
        0
176
     1
 62
    18
420
        0
176
     1
 90
       50
176
     1
 90
        3
176
     1
 62
     5
420
      255
176
     1
290
     0
176
     1
 90
       50
176
     1
 90
       50
176
     1
 90
       50
176
     1
290
     0
176
     1
 90
       50
176
     1
 62
   256
176
     0
 40
1.0
176
     0
 90
        2
176
     1
  1
strokes_ogs.tif
176
     1
290
     0
176
     1
 40
1.0
176
     1
 40
1.0
176
     1
  0
VISUALSTYLE
  5
39AB4
102
{ACAD_REACTORS
330
39830
102
}
330
39830
100
AcDbVisualStyle
  2
Thicken
 70
    13
177
     3
291
     1
 70
    58
 90
        2
176
     1
 90
        2
176
     1
 90
        0
176
     1
 90
        0
176
     1
 40
0.6
176
     1
 40
30.0
176
     1
 62
     7
420
 16777215
176
     1
 90
        1
176
     1
 90
        4
176
     1
 62
     7
176
     1
 62
   257
176
     1
 90
        1
176
     1
 90
        1
176
     1
 40
1.0
176
     1
 90
       12
176
     1
 62
     7
176
     1
 40
1.0
176
     1
 90
        1
176
     1
 90
        6
176
     1
 90
        2
176
     1
 62
     7
176
     1
 90
        5
176
     1
 90
        0
176
     1
 90
        0
176
     1
290
     0
176
     1
 90
        1
176
     1
 40
0.0
176
     1
 90
        0
176
     1
290
     0
176
     1
290
     1
176
     1
290
     1
176
     1
290
     0
176
     1
290
     0
176
     1
290
     0
176
     1
290
     0
176
     1
290
     0
176
     1
290
     0
176
     1
 90
       50
176
     1
 40
0.0
176
     1
 40
1.0
176
     1
 90
        0
176
     1
 62
    18
420
        0
176
     1
 90
       50
176
     1
 90
        3
176
     1
 62
     5
420
      255
176
     1
290
     0
176
     1
 90
       50
176
     1
 90
       50
176
     1
 90
       50
176
     1
290
     0
176
     1
 90
       50
176
     1
 62
   256
176
     0
 40
1.0
176
     0
 90
        2
176
     1
  1
strokes_ogs.tif
176
     1
290
     0
176
     1
 40
1.0
176
     1
 40
1.0
176
     1
  0
VISUALSTYLE
  5
3A420
102
{ACAD_REACTORS
330
39830
102
}
330
39830
100
AcDbVisualStyle
  2
Wireframe
 70
     5
177
     3
291
     0
 70
    58
 90
        0
176
     1
 90
        2
176
     1
 90
        0
176
     1
 90
        0
176
     1
 40
0.6
176
     1
 40
30.0
176
     1
 62
     7
420
 16777215
176
     1
 90
        1
176
     1
 90
        4
176
     1
 62
     7
176
     1
 62
   257
176
     1
 90
        1
176
     1
 90
        1
176
     1
 40
1.0
176
     1
 90
        0
176
     1
 62
   257
176
     1
 40
1.0
176
     1
 90
        1
176
     1
 90
        6
176
     1
 90
        2
176
     1
 62
     7
176
     1
 90
        3
176
     1
 90
        0
176
     1
 90
        0
176
     1
290
     0
176
     1
 90
        1
176
     1
 40
0.0
176
     1
 90
        0
176
     1
290
     0
176
     1
290
     1
176
     1
290
     1
176
     1
290
     0
176
     1
290
     0
176
     1
290
     0
176
     1
290
     0
176
     1
290
     0
176
     1
290
     0
176
     1
 90
       50
176
     1
 40
0.0
176
     1
 40
1.0
176
     1
 90
        0
176
     1
 62
    18
420
        0
176
     1
 90
       50
176
     1
 90
        3
176
     1
 62
     5
420
      255
176
     1
290
     0
176
     1
 90
       50
176
     1
 90
       50
176
     1
 90
       50
176
     1
290
     0
176
     1
 90
       50
176
     1
 62
   256
176
     0
 40
1.0
176
     0
 90
        2
176
     1
  1
strokes_ogs.tif
176
     1
290
     0
176
     1
 40
1.0
176
     1
 40
1.0
176
     1
  0
VISUALSTYLE
  5
3A424
102
{ACAD_REACTORS
330
39830
102
}
330
39830
100
AcDbVisualStyle
  2
X-Ray
 70
    25
177
     3
291
     0
 70
    58
 90
        2
176
     1
 90
        2
176
     1
 90
        1
176
     1
 90
        1
176
     1
 40
0.5
176
     1
 40
30.0
176
     1
 62
     7
420
 16777215
176
     1
 90
        1
176
     1
 90
        0
176
     1
 62
     7
176
     1
 62
   257
176
     1
 90
        1
176
     1
 90
        1
176
     1
 40
1.0
176
     1
 90
        8
176
     1
 62
     7
176
     1
 40
1.0
176
     1
 90
        1
176
     1
 90
        6
176
     1
 90
        2
176
     1
 62
     7
176
     1
 90
        3
176
     1
 90
        0
176
     1
 90
        0
176
     1
290
     0
176
     1
 90
       13
176
     1
 40
0.0
176
     1
 90
        0
176
     1
290
     0
176
     1
290
     1
176
     1
290
     1
176
     1
290
     0
176
     1
290
     0
176
     1
290
     0
176
     1
290
     0
176
     1
290
     0
176
     1
290
     0
176
     1
 90
       50
176
     1
 40
0.0
176
     1
 40
1.0
176
     1
 90
        0
176
     1
 62
    18
420
        0
176
     1
 90
       50
176
     1
 90
        3
176
     1
 62
     5
420
      255
176
     1
290
     0
176
     1
 90
       50
176
     1
 90
       50
176
     1
 90
       50
176
     1
290
     0
176
     1
 90
       50
176
     1
 62
   256
176
     0
 40
1.0
176
     0
 90
        2
176
     1
  1
strokes_ogs.tif
176
     1
290
     0
176
     1
 40
1.0
176
     1
 40
1.0
176
     1
  0
DICTIONARYVAR
  5
39AA6
102
{ACAD_REACTORS
330
39AA2
102
}
330
39AA2
100
DictionaryVariables
280
     0
  1
1:1
  0
DICTIONARYVAR
  5
39AA4
102
{ACAD_REACTORS
330
39AA2
102
}
330
39AA2
100
DictionaryVariables
280
     0
  1
STANDARD
  0
DICTIONARYVAR
  5
39AA3
102
{ACAD_REACTORS
330
39AA2
102
}
330
39AA2
100
DictionaryVariables
280
     0
  1
STANDARD
  0
DICTIONARYVAR
  5
3A435
102
{ACAD_REACTORS
330
39AA2
102
}
330
39AA2
100
DictionaryVariables
280
     0
  1
Imperial24
  0
DICTIONARYVAR
  5
3A436
102
{ACAD_REACTORS
330
39AA2
102
}
330
39AA2
100
DictionaryVariables
280
     0
  1
Imperial24
  0
DICTIONARYVAR
  5
39AA8
102
{ACAD_REACTORS
330
39AA2
102
}
330
39AA2
100
DictionaryVariables
280
     0
  1
1
  0
DICTIONARYVAR
  5
39AA9
102
{ACAD_REACTORS
330
39AA2
102
}
330
39AA2
100
DictionaryVariables
280
     0
  1
15
  0
DICTIONARYVAR
  5
39AA7
102
{ACAD_REACTORS
330
39AA2
102
}
330
39AA2
100
DictionaryVariables
280
     0
  1
0
  0
DICTIONARYVAR
  5
39AA5
102
{ACAD_REACTORS
330
39AA2
102
}
330
39AA2
100
DictionaryVariables
280
     0
  1
0
  0
DICTIONARY
  5
3981F
330
3981E
100
AcDbDictionary
280
     1
281
     1
  0
DICTIONARY
  5
39842
330
39841
100
AcDbDictionary
280
     1
281
     1
  3
BUMPTILE
360
39843
  3
DIFFUSETILE
360
39844
  3
OPACITYTILE
360
39845
  3
REFLECTIONTILE
360
39846
  3
REFRACTIONTILE
360
39847
  3
SPECULARTILE
360
39848
  0
DICTIONARY
  5
3983A
330
39839
100
AcDbDictionary
280
     1
281
     1
  3
BUMPTILE
360
3983B
  3
DIFFUSETILE
360
3983C
  3
OPACITYTILE
360
3983D
  3
REFLECTIONTILE
360
3983E
  3
REFRACTIONTILE
360
3983F
  3
SPECULARTILE
360
39840
  0
DICTIONARY
  5
39810
330
3980E
100
AcDbDictionary
280
     1
281
     1
  3
BUMPTILE
360
39811
  3
DIFFUSETILE
360
39812
  3
OPACITYTILE
360
39813
  3
REFLECTIONTILE
360
39814
  3
REFRACTIONTILE
360
39815
  3
SPECULARTILE
360
39816
  0
DICTIONARY
  5
39A99
330
3984E
100
AcDbDictionary
280
     1
281
     1
  3
ACAD_ROUNDTRIP_2008_TABLESTYLE_CELLSTYLEMAP
360
3A5BE
  0
XRECORD
  5
39843
102
{ACAD_REACTORS
330
39842
102
}
330
39842
100
AcDbXrecord
280
     1
270
     1
271
     1
  0
XRECORD
  5
39844
102
{ACAD_REACTORS
330
39842
102
}
330
39842
100
AcDbXrecord
280
     1
270
     1
271
     1
  0
XRECORD
  5
39845
102
{ACAD_REACTORS
330
39842
102
}
330
39842
100
AcDbXrecord
280
     1
270
     1
271
     1
  0
XRECORD
  5
39846
102
{ACAD_REACTORS
330
39842
102
}
330
39842
100
AcDbXrecord
280
     1
270
     1
271
     1
  0
XRECORD
  5
39847
102
{ACAD_REACTORS
330
39842
102
}
330
39842
100
AcDbXrecord
280
     1
270
     1
271
     1
  0
XRECORD
  5
39848
102
{ACAD_REACTORS
330
39842
102
}
330
39842
100
AcDbXrecord
280
     1
270
     1
271
     1
  0
XRECORD
  5
3983B
102
{ACAD_REACTORS
330
3983A
102
}
330
3983A
100
AcDbXrecord
280
     1
270
     1
271
     1
  0
XRECORD
  5
3983C
102
{ACAD_REACTORS
330
3983A
102
}
330
3983A
100
AcDbXrecord
280
     1
270
     1
271
     1
  0
XRECORD
  5
3983D
102
{ACAD_REACTORS
330
3983A
102
}
330
3983A
100
AcDbXrecord
280
     1
270
     1
271
     1
  0
XRECORD
  5
3983E
102
{ACAD_REACTORS
330
3983A
102
}
330
3983A
100
AcDbXrecord
280
     1
270
     1
271
     1
  0
XRECORD
  5
3983F
102
{ACAD_REACTORS
330
3983A
102
}
330
3983A
100
AcDbXrecord
280
     1
270
     1
271
     1
  0
XRECORD
  5
39840
102
{ACAD_REACTORS
330
3983A
102
}
330
3983A
100
AcDbXrecord
280
     1
270
     1
271
     1
  0
XRECORD
  5
39811
102
{ACAD_REACTORS
330
39810
102
}
330
39810
100
AcDbXrecord
280
     1
270
     1
271
     1
  0
XRECORD
  5
39812
102
{ACAD_REACTORS
330
39810
102
}
330
39810
100
AcDbXrecord
280
     1
270
     1
271
     1
  0
XRECORD
  5
39813
102
{ACAD_REACTORS
330
39810
102
}
330
39810
100
AcDbXrecord
280
     1
270
     1
271
     1
  0
XRECORD
  5
39814
102
{ACAD_REACTORS
330
39810
102
}
330
39810
100
AcDbXrecord
280
     1
270
     1
271
     1
  0
XRECORD
  5
39815
102
{ACAD_REACTORS
330
39810
102
}
330
39810
100
AcDbXrecord
280
     1
270
     1
271
     1
  0
XRECORD
  5
39816
102
{ACAD_REACTORS
330
39810
102
}
330
39810
100
AcDbXrecord
280
     1
270
     1
271
     1
  0
CELLSTYLEMAP
  5
3A5BE
102
{ACAD_REACTORS
330
39A99
102
}
330
39A99
100
AcDbCellStyleMap
 90
        3
300
CELLSTYLE
  1
TABLEFORMAT_BEGIN
 90
        5
170
     1
 91
        0
 92
    32768
 62
   257
 93
        1
300
CONTENTFORMAT
  1
CONTENTFORMAT_BEGIN
 90
        0
 91
        0
 92
        4
 93
        0
300

 40
0.0
140
1.0
 94
        5
 62
     0
340
39826
144
0.25
309
CONTENTFORMAT_END
171
     0
 94
        6
 95
        1
302
GRIDFORMAT
  1
GRIDFORMAT_BEGIN
 90
        0
 91
        1
 62
     0
 92
       -2
340
0
 93
        0
 40
0.045
309
GRIDFORMAT_END
 95
        2
302
GRIDFORMAT
  1
GRIDFORMAT_BEGIN
 90
        0
 91
        1
 62
     0
 92
       -2
340
0
 93
        0
 40
0.045
309
GRIDFORMAT_END
 95
        4
302
GRIDFORMAT
  1
GRIDFORMAT_BEGIN
 90
        0
 91
        1
 62
     0
 92
       -2
340
0
 93
        0
 40
0.045
309
GRIDFORMAT_END
 95
        8
302
GRIDFORMAT
  1
GRIDFORMAT_BEGIN
 90
        0
 91
        1
 62
     0
 92
       -2
340
0
 93
        0
 40
0.045
309
GRIDFORMAT_END
 95
       16
302
GRIDFORMAT
  1
GRIDFORMAT_BEGIN
 90
        0
 91
        1
 62
     0
 92
       -2
340
0
 93
        0
 40
0.045
309
GRIDFORMAT_END
 95
       32
302
GRIDFORMAT
  1
GRIDFORMAT_BEGIN
 90
        0
 91
        1
 62
     0
 92
       -2
340
0
 93
        0
 40
0.045
309
GRIDFORMAT_END
309
TABLEFORMAT_END
  1
CELLSTYLE_BEGIN
 90
        1
 91
        1
300
_TITLE
309
CELLSTYLE_END
300
CELLSTYLE
  1
TABLEFORMAT_BEGIN
 90
        5
170
     1
 91
        0
 92
        0
 62
   257
 93
        1
300
CONTENTFORMAT
  1
CONTENTFORMAT_BEGIN
 90
        0
 91
        0
 92
        4
 93
        0
300

 40
0.0
140
1.0
 94
        5
 62
     0
340
39826
144
0.18
309
CONTENTFORMAT_END
171
     0
 94
        6
 95
        1
302
GRIDFORMAT
  1
GRIDFORMAT_BEGIN
 90
        0
 91
        1
 62
     0
 92
       -2
340
0
 93
        0
 40
0.045
309
GRIDFORMAT_END
 95
        2
302
GRIDFORMAT
  1
GRIDFORMAT_BEGIN
 90
        0
 91
        1
 62
     0
 92
       -2
340
0
 93
        0
 40
0.045
309
GRIDFORMAT_END
 95
        4
302
GRIDFORMAT
  1
GRIDFORMAT_BEGIN
 90
        0
 91
        1
 62
     0
 92
       -2
340
0
 93
        0
 40
0.045
309
GRIDFORMAT_END
 95
        8
302
GRIDFORMAT
  1
GRIDFORMAT_BEGIN
 90
        0
 91
        1
 62
     0
 92
       -2
340
0
 93
        0
 40
0.045
309
GRIDFORMAT_END
 95
       16
302
GRIDFORMAT
  1
GRIDFORMAT_BEGIN
 90
        0
 91
        1
 62
     0
 92
       -2
340
0
 93
        0
 40
0.045
309
GRIDFORMAT_END
 95
       32
302
GRIDFORMAT
  1
GRIDFORMAT_BEGIN
 90
        0
 91
        1
 62
     0
 92
       -2
340
0
 93
        0
 40
0.045
309
GRIDFORMAT_END
309
TABLEFORMAT_END
  1
CELLSTYLE_BEGIN
 90
        2
 91
        1
300
_HEADER
309
CELLSTYLE_END
300
CELLSTYLE
  1
TABLEFORMAT_BEGIN
 90
        5
170
     1
 91
        0
 92
        0
 62
   257
 93
        1
300
CONTENTFORMAT
  1
CONTENTFORMAT_BEGIN
 90
        0
 91
        0
 92
        4
 93
        0
300

 40
0.0
140
1.0
 94
        2
 62
     0
340
39826
144
0.18
309
CONTENTFORMAT_END
171
     0
 94
        6
 95
        1
302
GRIDFORMAT
  1
GRIDFORMAT_BEGIN
 90
        0
 91
        1
 62
     0
 92
       -2
340
0
 93
        0
 40
0.045
309
GRIDFORMAT_END
 95
        2
302
GRIDFORMAT
  1
GRIDFORMAT_BEGIN
 90
        0
 91
        1
 62
     0
 92
       -2
340
0
 93
        0
 40
0.045
309
GRIDFORMAT_END
 95
        4
302
GRIDFORMAT
  1
GRIDFORMAT_BEGIN
 90
        0
 91
        1
 62
     0
 92
       -2
340
0
 93
        0
 40
0.045
309
GRIDFORMAT_END
 95
        8
302
GRIDFORMAT
  1
GRIDFORMAT_BEGIN
 90
        0
 91
        1
 62
     0
 92
       -2
340
0
 93
        0
 40
0.045
309
GRIDFORMAT_END
 95
       16
302
GRIDFORMAT
  1
GRIDFORMAT_BEGIN
 90
        0
 91
        1
 62
     0
 92
       -2
340
0
 93
        0
 40
0.045
309
GRIDFORMAT_END
 95
       32
302
GRIDFORMAT
  1
GRIDFORMAT_BEGIN
 90
        0
 91
        1
 62
     0
 92
       -2
340
0
 93
        0
 40
0.045
309
GRIDFORMAT_END
309
TABLEFORMAT_END
  1
CELLSTYLE_BEGIN
 90
        3
 91
        2
300
_DATA
309
CELLSTYLE_END
  0
ENDSEC
  0
SECTION
  2
ACDSDATA
 70
     2
 71
     8
  0
ACDSSCHEMA
 90
        0
  1
AcDb_Thumbnail_Schema
  2
AcDbDs::ID
280
    10
 91
        8
  2
Thumbnail_Data
280
    15
 91
        0
101
ACDSRECORD
 95
        0
 90
        1
  2
AcDbDs::TreatedAsObjectData
280
     1
291
     1
101
ACDSRECORD
 95
        0
 90
        2
  2
AcDbDs::Legacy
280
     1
291
     1
101
ACDSRECORD
  1
AcDbDs::ID
 90
        3
  2
AcDs:Indexable
280
     1
291
     1
101
ACDSRECORD
  1
AcDbDs::ID
 90
        4
  2
AcDbDs::HandleAttribute
280
     7
282
     1
  0
ACDSSCHEMA
 90
        1
  1
AcDbDs::TreatedAsObjectDataSchema
  2
AcDbDs::TreatedAsObjectData
280
     1
 91
        0
  0
ACDSSCHEMA
 90
        2
  1
AcDbDs::LegacySchema
  2
AcDbDs::Legacy
280
     1
 91
        0
  0
ACDSSCHEMA
 90
        3
  1
AcDbDs::IndexedPropertySchema
  2
AcDs:Indexable
280
     1
 91
        0
  0
ACDSSCHEMA
 90
        4
  1
AcDbDs::HandleAttributeSchema
  2
AcDbDs::HandleAttribute
280
     7
 91
        1
284
     1
  0
ACDSRECORD
 90
        0
  2
AcDbDs::ID
280
    10
320
3981E
  2
Thumbnail_Data
280
    15
 94
     1048
310
89504E470D0A1A0A0000000D49484452000000B40000008B0803000000FF3F437800000300504C5445FFFFFF000000FFFFFF0000000000000000000000000000000000000000000000000000330000660000990000CC0000FF0033000033330033660033990033CC0033FF0066000066330066660066990066CC0066FF0099
310
000099330099660099990099CC0099FF00CC0000CC3300CC6600CC9900CCCC00CCFF00FF0000FF3300FF6600FF9900FFCC00FFFF3300003300333300663300993300CC3300FF3333003333333333663333993333CC3333FF3366003366333366663366993366CC3366FF3399003399333399663399993399CC3399FF33CC00
310
33CC3333CC6633CC9933CCCC33CCFF33FF0033FF3333FF6633FF9933FFCC33FFFF6600006600336600666600996600CC6600FF6633006633336633666633996633CC6633FF6666006666336666666666996666CC6666FF6699006699336699666699996699CC6699FF66CC0066CC3366CC6666CC9966CCCC66CCFF66FF0066
310
FF3366FF6666FF9966FFCC66FFFF9900009900339900669900999900CC9900FF9933009933339933669933999933CC9933FF9966009966339966669966999966CC9966FF9999009999339999669999999999CC9999FF99CC0099CC3399CC6699CC9999CCCC99CCFF99FF0099FF3399FF6699FF9999FFCC99FFFFCC0000CC00
310
33CC0066CC0099CC00CCCC00FFCC3300CC3333CC3366CC3399CC33CCCC33FFCC6600CC6633CC6666CC6699CC66CCCC66FFCC9900CC9933CC9966CC9999CC99CCCC99FFCCCC00CCCC33CCCC66CCCC99CCCCCCCCCCFFCCFF00CCFF33CCFF66CCFF99CCFFCCCCFFFFFF0000FF0033FF0066FF0099FF00CCFF00FFFF3300FF3333
310
FF3366FF3399FF33CCFF33FFFF6600FF6633FF6666FF6699FF66CCFF66FFFF9900FF9933FF9966FF9999FF99CCFF99FFFFCC00FFCC33FFCC66FFCC99FFCCCCFFCCFFFFFF00FFFF33FFFF66FFFF99FFFFCCFFFFFF0000000D0D0D1A1A1A2828283535354343435050505D5D5D6B6B6B787878868686939393A1A1A1AEAEAEBB
310
BBBBC9C9C9D6D6D6E4E4E4F1F1F1FFFFFF000000000000000000000000000000000000000000000000000000000000790CAC0F000000D34944415478DAEDDD310A80300C0550EF7FCC5CC0C95D10041DA4568B34F665CCE2434ABF59E214E96A9EA7255B417F868E0DBD1F9643FF5CA5FEF2B27FFF0107749EB70C0D0D0D3D
310
243A65224243D7A0BBF9DEAF4277745940433F40471A744043434343434343434343B7401BB7A0A1A1A1A19BA3C538343434343434343434F46068E316343434347473B418878686868686868686861E0C6DDC82868686866E8E16E3D0D0D0D0D0D0D0D0D0D083A18D5BD0FF4767DCC3D475414397D1D62942434343778ECE
310
B8E95B8C435FA123E12F1956FC241BF103F904980000000049454E44AE426082
  0
ACDSRECORD
 90
        0
  2
AcDbDs::ID
280
    10
320
39819
  2
Thumbnail_Data
280
    15
 94
     1766
310
89504E470D0A1A0A0000000D4948445200000100000000990803000000F7B2146B00000300504C5445FFFFFFFFFFFFFFFFFF0000000000000000000000000000000000000000000000000000330000660000990000CC0000FF0033000033330033660033990033CC0033FF0066000066330066660066990066CC0066FF0099
310
000099330099660099990099CC0099FF00CC0000CC3300CC6600CC9900CCCC00CCFF00FF0000FF3300FF6600FF9900FFCC00FFFF3300003300333300663300993300CC3300FF3333003333333333663333993333CC3333FF3366003366333366663366993366CC3366FF3399003399333399663399993399CC3399FF33CC00
310
33CC3333CC6633CC9933CCCC33CCFF33FF0033FF3333FF6633FF9933FFCC33FFFF6600006600336600666600996600CC6600FF6633006633336633666633996633CC6633FF6666006666336666666666996666CC6666FF6699006699336699666699996699CC6699FF66CC0066CC3366CC6666CC9966CCCC66CCFF66FF0066
310
FF3366FF6666FF9966FFCC66FFFF9900009900339900669900999900CC9900FF9933009933339933669933999933CC9933FF9966009966339966669966999966CC9966FF9999009999339999669999999999CC9999FF99CC0099CC3399CC6699CC9999CCCC99CCFF99FF0099FF3399FF6699FF9999FFCC99FFFFCC0000CC00
310
33CC0066CC0099CC00CCCC00FFCC3300CC3333CC3366CC3399CC33CCCC33FFCC6600CC6633CC6666CC6699CC66CCCC66FFCC9900CC9933CC9966CC9999CC99CCCC99FFCCCC00CCCC33CCCC66CCCC99CCCCCCCCCCFFCCFF00CCFF33CCFF66CCFF99CCFFCCCCFFFFFF0000FF0033FF0066FF0099FF00CCFF00FFFF3300FF3333
310
FF3366FF3399FF33CCFF33FFFF6600FF6633FF6666FF6699FF66CCFF66FFFF9900FF9933FF9966FF9999FF99CCFF99FFFFCC00FFCC33FFCC66FFCC99FFCCCCFFCCFFFFFF00FFFF33FFFF66FFFF99FFFFCCFFFFFF0000000D0D0D1A1A1A2828283535354343435050505D5D5D6B6B6B787878868686939393A1A1A1AEAEAEBB
310
BBBBC9C9C9D6D6D6E4E4E4F1F1F1FFFFFF000000000000000000000000000000000000000000000000000000000000AD4AB4E4000003064944415478DAED9D617284200C46F3BBF73F6166F61EDDE9560B1A50D10E843CA6D3298274797E819805157922E9E52473A5CB5D9D0EC01BC1CFCFE7578606000000000000302380
310
74A25331663F6DF10FFC3809D907367BA1EDC9BBEFB36A00004100C81DB94FAB00B98BC5BB02E4A609380260F268BC4DF607E0E8907D6EE92C000404207B00120B807C7CE9E5A662E9B927009B212F1680FA040E80A6411013C004265180EDD1EF8E7EA2076B68691E05A8D98DFDD1CCF0DD8D01351350B31BDBA3137882C5
310
4150CD6EE854008CF05F9B2BEC351E9048FA817B01F11810D95DC48B57B71459F1743314DB04E41913F01A14FD17054C0E404D47C837804BAEB0E91FCEA880822B6CFB8732A5028A5D3D9E59E718036C57B8B46840FC029013D3A0FDE7E93BACE1BE472B01782DE97DE095A4B718929CE4A559CE09818B0A781FFE4A32BB08
310
C16D0D38005032017D8440E7808861021B1BC88AB6D95D557700F44014FF9FBA87C46C00E71B5BDDA68B0DCC01605D63F8C858E411407B10701800F7CD711600FDA7E37EFFB8C707190A408F603E008602A0A20060100C0D40428F012A1A7910DCEF178A06A04F281300A300E815CB1EE866080098000A400128000098000A
310
400128000098000A400128000098000A4001280000A14D40A32B0000014D60F36D717E42B5B5F6C29E00EC85D0F2BBF459AD7D0352DE28601456EB668BAB075080CA7ECB505AFDABB651A4B170EC8592DB65E3D5B6DA0A073181829063998071B5B60BA8AA8D35168EB650528A00A69F060100000000000000000000000000
310
0000000000000000000000000000000000404000DB874D470320CBE3F29707250704503209000000000008074000101D40645738A60200107D16000000420248C200662DAD9D53AEA8A71BE9B8583ACF950068BD5FC537565772FBF6FB001824F555407E8DFE3C80D3176F2E0574D10826D011809463C076253D32220F2620
310
C9C4A76B20D8AC24098064FF43965B7BD7380D4A9FA4B202283E5358F34A7325000000005907EDD7E8CD0CE0603EF6F92AC57600E63B94A706708C24668ADC7777E91B0F57BA4C0D2FBE670000000049454E44AE42608253052C01B8A0001F4EF0A029B33DBB7CF6A74A01C65A83E37D80A5B6804601A77D4035BBC6020061
310
57F96FC3A025000AE3CC9F3BF3012A07EEB853F4CE0F2F3A04E604F0431B77D77FFEBE55BAB6D08E430000000049454E44AE42608244AE426082A5C2DD30880460C034F1E703DD61A42630E4C00D0F8A7EF3CDB301813501FCA1CDFBD6FF00094CAC6621FAA4220000000049454E44AE426082
  0
ENDSEC
  0
EOF
