  0
SECTION
  2
HEADER
  9
$ACADVER
  1
AC1024
  9
$ACADMAINTVER
 70
6
  9
$DWGCODEPAGE
  3
ANSI_1252
  9
$LASTSAVEDBY
  1
ezdxf
  9
$INSBASE
 10
0.0
 20
0.0
 30
0.0
  9
$EXTMIN
 10
1e+20
 20
1e+20
 30
1e+20
  9
$EXTMAX
 10
-1e+20
 20
-1e+20
 30
-1e+20
  9
$LIMMIN
 10
0.0
 20
0.0
  9
$LIMMAX
 10
420.0
 20
297.0
  9
$ORTHOMODE
 70
0
  9
$REGENMODE
 70
1
  9
$FILLMODE
 70
1
  9
$QTEXTMODE
 70
0
  9
$MIRRTEXT
 70
1
  9
$LTSCALE
 40
1.0
  9
$ATTMODE
 70
1
  9
$TEXTSIZE
 40
2.5
  9
$TRACEWID
 40
1.0
  9
$TEXTSTYLE
  7
Standard
  9
$CLAYER
  8
0
  9
$CELTYPE
  6
ByLayer
  9
$CECOLOR
 62
256
  9
$CELTSCALE
 40
1.0
  9
$DISPSILH
 70
0
  9
$DIMSCALE
 40
1.0
  9
$DIMASZ
 40
2.5
  9
$DIMEXO
 40
0.625
  9
$DIMDLI
 40
3.75
  9
$DIMRND
 40
0.0
  9
$DIMDLE
 40
0.0
  9
$DIMEXE
 40
1.25
  9
$DIMTP
 40
0.0
  9
$DIMTM
 40
0.0
  9
$DIMTXT
 40
2.5
  9
$DIMCEN
 40
2.5
  9
$DIMTSZ
 40
0.0
  9
$DIMTOL
 70
0
  9
$DIMLIM
 70
0
  9
$DIMTIH
 70
0
  9
$DIMTOH
 70
0
  9
$DIMSE1
 70
0
  9
$DIMSE2
 70
0
  9
$DIMTAD
 70
1
  9
$DIMZIN
 70
8
  9
$DIMBLK
  1

  9
$DIMASO
 70
1
  9
$DIMSHO
 70
1
  9
$DIMPOST
  1

  9
$DIMAPOST
  1

  9
$DIMALT
 70
0
  9
$DIMALTD
 70
3
  9
$DIMALTF
 40
0.03937007874
  9
$DIMLFAC
 40
1.0
  9
$DIMTOFL
 70
1
  9
$DIMTVP
 40
0.0
  9
$DIMTIX
 70
0
  9
$DIMSOXD
 70
0
  9
$DIMSAH
 70
0
  9
$DIMBLK1
  1

  9
$DIMBLK2
  1

  9
$DIMSTYLE
  2
ISO-25
  9
$DIMCLRD
 70
0
  9
$DIMCLRE
 70
0
  9
$DIMCLRT
 70
0
  9
$DIMTFAC
 40
1.0
  9
$DIMGAP
 40
0.625
  9
$DIMJUST
 70
0
  9
$DIMSD1
 70
0
  9
$DIMSD2
 70
0
  9
$DIMTOLJ
 70
0
  9
$DIMTZIN
 70
8
  9
$DIMALTZ
 70
0
  9
$DIMALTTZ
 70
0
  9
$DIMUPT
 70
0
  9
$DIMDEC
 70
2
  9
$DIMTDEC
 70
2
  9
$DIMALTU
 70
2
  9
$DIMALTTD
 70
3
  9
$DIMTXSTY
  7
Standard
  9
$DIMAUNIT
 70
0
  9
$DIMADEC
 70
0
  9
$DIMALTRND
 40
0.0
  9
$DIMAZIN
 70
0
  9
$DIMDSEP
 70
44
  9
$DIMATFIT
 70
3
  9
$DIMFRAC
 70
0
  9
$DIMLDRBLK
  1

  9
$DIMLUNIT
 70
2
  9
$DIMLWD
 70
-2
  9
$DIMLWE
 70
-2
  9
$DIMTMOVE
 70
0
  9
$DIMFXL
 40
1.0
  9
$DIMFXLON
 70
0
  9
$DIMJOGANG
 40
0.785398163397
  9
$DIMTFILL
 70
0
  9
$DIMTFILLCLR
 70
0
  9
$DIMARCSYM
 70
0
  9
$DIMLTYPE
  6

  9
$DIMLTEX1
  6

  9
$DIMLTEX2
  6

  9
$DIMTXTDIRECTION
 70
0
  9
$LUNITS
 70
2
  9
$LUPREC
 70
4
  9
$SKETCHINC
 40
1.0
  9
$FILLETRAD
 40
10.0
  9
$AUNITS
 70
0
  9
$AUPREC
 70
2
  9
$MENU
  1
.
  9
$ELEVATION
 40
0.0
  9
$PELEVATION
 40
0.0
  9
$THICKNESS
 40
0.0
  9
$LIMCHECK
 70
0
  9
$CHAMFERA
 40
0.0
  9
$CHAMFERB
 40
0.0
  9
$CHAMFERC
 40
0.0
  9
$CHAMFERD
 40
0.0
  9
$SKPOLY
 70
0
  9
$TDCREATE
 40
2461147.484675926
  9
$TDUCREATE
 40
2458532.153996898
  9
$TDUPDATE
 40
2461147.484675926
  9
$TDUUPDATE
 40
2458532.1544311
  9
$TDINDWG
 40
0.0
  9
$TDUSRTIMER
 40
0.0
  9
$USRTIMER
 70
1
  9
$ANGBASE
 50
0.0
  9
$ANGDIR
 70
0
  9
$PDMODE
 70
0
  9
$PDSIZE
 40
0.0
  9
$PLINEWID
 40
0.0
  9
$SPLFRAME
 70
0
  9
$SPLINETYPE
 70
6
  9
$SPLINESEGS
 70
8
  9
$HANDSEED
  5
33E
  9
$SURFTAB1
 70
6
  9
$SURFTAB2
 70
6
  9
$SURFTYPE
 70
6
  9
$SURFU
 70
6
  9
$SURFV
 70
6
  9
$UCSBASE
  2

  9
$UCSNAME
  2

  9
$UCSORG
 10
0.0
 20
0.0
 30
0.0
  9
$UCSXDIR
 10
1.0
 20
0.0
 30
0.0
  9
$UCSYDIR
 10
0.0
 20
1.0
 30
0.0
  9
$UCSORTHOREF
  2

  9
$UCSORTHOVIEW
 70
0
  9
$UCSORGTOP
 10
0.0
 20
0.0
 30
0.0
  9
$UCSORGBOTTOM
 10
0.0
 20
0.0
 30
0.0
  9
$UCSORGLEFT
 10
0.0
 20
0.0
 30
0.0
  9
$UCSORGRIGHT
 10
0.0
 20
0.0
 30
0.0
  9
$UCSORGFRONT
 10
0.0
 20
0.0
 30
0.0
  9
$UCSORGBACK
 10
0.0
 20
0.0
 30
0.0
  9
$PUCSBASE
  2

  9
$PUCSNAME
  2

  9
$PUCSORG
 10
0.0
 20
0.0
 30
0.0
  9
$PUCSXDIR
 10
1.0
 20
0.0
 30
0.0
  9
$PUCSYDIR
 10
0.0
 20
1.0
 30
0.0
  9
$PUCSORTHOREF
  2

  9
$PUCSORTHOVIEW
 70
0
  9
$PUCSORGTOP
 10
0.0
 20
0.0
 30
0.0
  9
$PUCSORGBOTTOM
 10
0.0
 20
0.0
 30
0.0
  9
$PUCSORGLEFT
 10
0.0
 20
0.0
 30
0.0
  9
$PUCSORGRIGHT
 10
0.0
 20
0.0
 30
0.0
  9
$PUCSORGFRONT
 10
0.0
 20
0.0
 30
0.0
  9
$PUCSORGBACK
 10
0.0
 20
0.0
 30
0.0
  9
$USERI1
 70
0
  9
$USERI2
 70
0
  9
$USERI3
 70
0
  9
$USERI4
 70
0
  9
$USERI5
 70
0
  9
$USERR1
 40
0.0
  9
$USERR2
 40
0.0
  9
$USERR3
 40
0.0
  9
$USERR4
 40
0.0
  9
$USERR5
 40
0.0
  9
$WORLDVIEW
 70
1
  9
$SHADEDGE
 70
3
  9
$SHADEDIF
 70
70
  9
$TILEMODE
 70
1
  9
$MAXACTVP
 70
64
  9
$PINSBASE
 10
0.0
 20
0.0
 30
0.0
  9
$PLIMCHECK
 70
0
  9
$PEXTMIN
 10
1e+20
 20
1e+20
 30
1e+20
  9
$PEXTMAX
 10
-1e+20
 20
-1e+20
 30
-1e+20
  9
$PLIMMIN
 10
0.0
 20
0.0
  9
$PLIMMAX
 10
420.0
 20
297.0
  9
$UNITMODE
 70
0
  9
$VISRETAIN
 70
1
  9
$PLINEGEN
 70
0
  9
$PSLTSCALE
 70
1
  9
$TREEDEPTH
 70
3020
  9
$CMLSTYLE
  2
Standard
  9
$CMLJUST
 70
0
  9
$CMLSCALE
 40
20.0
  9
$PROXYGRAPHICS
 70
1
  9
$MEASUREMENT
 70
1
  9
$CELWEIGHT
370
-1
  9
$ENDCAPS
280
0
  9
$JOINSTYLE
280
0
  9
$LWDISPLAY
290
0
  9
$INSUNITS
 70
0
  9
$HYPERLINKBASE
  1

  9
$STYLESHEET
  1

  9
$XEDIT
290
1
  9
$CEPSNTYPE
380
0
  9
$PSTYLEMODE
290
1
  9
$FINGERPRINTGUID
  2
{2FEF36E9-03A3-4433-A06B-E1C3A1230C86}
  9
$VERSIONGUID
  2
{997C6163-5406-4D9F-8159-1FDCD5ABF0CA}
  9
$EXTNAMES
290
1
  9
$PSVPSCALE
 40
0.0
  9
$OLESTARTUP
290
0
  9
$SORTENTS
280
127
  9
$INDEXCTL
280
0
  9
$HIDETEXT
280
1
  9
$XCLIPFRAME
280
1
  9
$HALOGAP
280
0
  9
$OBSCOLOR
 70
257
  9
$OBSLTYPE
280
0
  9
$INTERSECTIONDISPLAY
280
0
  9
$INTERSECTIONCOLOR
 70
257
  9
$DIMASSOC
280
2
  9
$PROJECTNAME
  1

  9
$CAMERADISPLAY
290
0
  9
$LENSLENGTH
 40
50.0
  9
$CAMERAHEIGHT
 40
0.0
  9
$STEPSPERSEC
 40
24.0
  9
$STEPSIZE
 40
100.0
  9
$3DDWFPREC
 40
2.0
  9
$PSOLWIDTH
 40
0.005
  9
$PSOLHEIGHT
 40
0.08
  9
$LOFTANG1
 40
1.570796326795
  9
$LOFTANG2
 40
1.570796326795
  9
$LOFTMAG1
 40
0.0
  9
$LOFTMAG2
 40
0.0
  9
$LOFTPARAM
 70
7
  9
$LOFTNORMALS
280
1
  9
$LATITUDE
 40
37.795
  9
$LONGITUDE
 40
-122.394
  9
$NORTHDIRECTION
 40
0.0
  9
$TIMEZONE
 70
-8000
  9
$LIGHTGLYPHDISPLAY
280
1
  9
$TILEMODELIGHTSYNCH
280
1
  9
$CMATERIAL
347
20
  9
$SOLIDHIST
280
0
  9
$SHOWHIST
280
1
  9
$DWFFRAME
280
2
  9
$DGNFRAME
280
2
  9
$REALWORLDSCALE
290
1
  9
$INTERFERECOLOR
 62
256
  9
$CSHADOW
280
0
  9
$SHADOWPLANELOCATION
 40
0.0
  0
ENDSEC
  0
SECTION
  2
CLASSES
  0
CLASS
  1
ACDBDICTIONARYWDFLT
  2
AcDbDictionaryWithDefault
  3
ObjectDBX Classes
 90
0
 91
0
280
0
281
0
  0
CLASS
  1
SUN
  2
AcDbSun
  3
SCENEOE
 90
1153
 91
0
280
0
281
0
  0
CLASS
  1
VISUALSTYLE
  2
AcDbVisualStyle
  3
ObjectDBX Classes
 90
4095
 91
0
280
0
281
0
  0
CLASS
  1
MATERIAL
  2
AcDbMaterial
  3
ObjectDBX Classes
 90
1153
 91
0
280
0
281
0
  0
CLASS
  1
SCALE
  2
AcDbScale
  3
ObjectDBX Classes
 90
1153
 91
0
280
0
281
0
  0
CLASS
  1
TABLESTYLE
  2
AcDbTableStyle
  3
ObjectDBX Classes
 90
4095
 91
0
280
0
281
0
  0
CLASS
  1
MLEADERSTYLE
  2
AcDbMLeaderStyle
  3
ACDB_MLEADERSTYLE_CLASS
 90
4095
 91
0
280
0
281
0
  0
CLASS
  1
DICTIONARYVAR
  2
AcDbDictionaryVar
  3
ObjectDBX Classes
 90
0
 91
0
280
0
281
0
  0
CLASS
  1
CELLSTYLEMAP
  2
AcDbCellStyleMap
  3
ObjectDBX Classes
 90
1152
 91
0
280
0
281
0
  0
CLASS
  1
MENTALRAYRENDERSETTINGS
  2
AcDbMentalRayRenderSettings
  3
SCENEOE
 90
1024
 91
0
280
0
281
0
  0
CLASS
  1
ACDBDETAILVIEWSTYLE
  2
AcDbDetailViewStyle
  3
ObjectDBX Classes
 90
1025
 91
0
280
0
281
0
  0
CLASS
  1
ACDBSECTIONVIEWSTYLE
  2
AcDbSectionViewStyle
  3
ObjectDBX Classes
 90
1025
 91
0
280
0
281
0
  0
CLASS
  1
RASTERVARIABLES
  2
AcDbRasterVariables
  3
ISM
 90
0
 91
0
280
0
281
0
  0
CLASS
  1
ACDBPLACEHOLDER
  2
AcDbPlaceHolder
  3
ObjectDBX Classes
 90
0
 91
0
280
0
281
0
  0
CLASS
  1
LAYOUT
  2
AcDbLayout
  3
ObjectDBX Classes
 90
0
 91
0
280
0
281
0
  0
ENDSEC
  0
SECTION
  2
TABLES
  0
TABLE
  2
VPORT
  5
8
330
0
100
AcDbSymbolTable
 70
1
  0
VPORT
  5
23
330
8
100
AcDbSymbolTableRecord
100
AcDbViewportTableRecord
  2
*Active
 70
0
 10
0.0
 20
0.0
 11
1.0
 21
1.0
 12
0.0
 22
0.0
 13
0.0
 23
0.0
 14
0.5
 24
0.5
 15
0.5
 25
0.5
 16
0.0
 26
0.0
 36
1.0
 17
0.0
 27
0.0
 37
0.0
 40
1000.0
 41
1.34
 42
50.0
 43
0.0
 44
0.0
 50
0.0
 51
0.0
 71
0
 72
1000
 73
1
 74
3
 75
0
 76
0
 77
0
 78
0
281
0
 65
0
146
0.0
  0
ENDTAB
  0
TABLE
  2
LTYPE
  5
2
330
0
100
AcDbSymbolTable
 70
3
  0
LTYPE
  5
24
330
2
100
AcDbSymbolTableRecord
100
AcDbLinetypeTableRecord
  2
ByBlock
 70
0
  3

 72
65
 73
0
 40
0.0
  0
LTYPE
  5
25
330
2
100
AcDbSymbolTableRecord
100
AcDbLinetypeTableRecord
  2
ByLayer
 70
0
  3

 72
65
 73
0
 40
0.0
  0
LTYPE
  5
26
330
2
100
AcDbSymbolTableRecord
100
AcDbLinetypeTableRecord
  2
Continuous
 70
0
  3

 72
65
 73
0
 40
0.0
  0
ENDTAB
  0
TABLE
  2
LAYER
  5
1
330
0
100
AcDbSymbolTable
 70
2
  0
LAYER
  5
27
330
1
100
AcDbSymbolTableRecord
100
AcDbLayerTableRecord
  2
0
 70
0
 62
7
  6
Continuous
370
-3
390
13
347
21
  0
LAYER
  5
28
330
1
100
AcDbSymbolTableRecord
100
AcDbLayerTableRecord
  2
Defpoints
 70
0
 62
7
  6
Continuous
290
0
370
-3
390
13
347
21
  0
ENDTAB
  0
TABLE
  2
STYLE
  5
5
330
0
100
AcDbSymbolTable
 70
1
  0
STYLE
  5
29
330
5
100
AcDbSymbolTableRecord
100
AcDbTextStyleTableRecord
  2
Standard
 70
0
 40
0.0
 41
1.0
 50
0.0
 71
0
 42
2.5
  3
txt
  4

  0
ENDTAB
  0
TABLE
  2
VIEW
  5
7
330
0
100
AcDbSymbolTable
 70
0
  0
ENDTAB
  0
TABLE
  2
UCS
  5
6
330
0
100
AcDbSymbolTable
 70
0
  0
ENDTAB
  0
TABLE
  2
APPID
  5
3
330
0
100
AcDbSymbolTable
 70
3
  0
APPID
  5
2A
330
3
100
AcDbSymbolTableRecord
100
AcDbRegAppTableRecord
  2
ACAD
 70
0
  0
APPID
  5
33B
330
3
100
AcDbSymbolTableRecord
100
AcDbRegAppTableRecord
  2
HATCHBACKGROUNDCOLOR
 70
0
  0
APPID
  5
33C
330
3
100
AcDbSymbolTableRecord
100
AcDbRegAppTableRecord
  2
EZDXF
 70
0
  0
ENDTAB
  0
TABLE
  2
DIMSTYLE
  5
4
330
0
100
AcDbSymbolTable
 70
1
100
AcDbDimStyleTable
  0
DIMSTYLE
105
2B
330
4
100
AcDbSymbolTableRecord
100
AcDbDimStyleTableRecord
  2
Standard
 70
0
 40
1.0
 41
2.5
 42
0.625
 43
3.75
 44
1.25
 45
0.0
 46
0.0
 47
0.0
 48
0.0
 49
2.5
140
2.5
141
2.5
142
0.0
143
0.03937007874
144
1.0
145
0.0
146
1.0
147
0.625
148
0.0
 69
0
 70
0
 71
0
 72
0
 73
0
 74
0
 75
0
 76
0
 77
1
 78
8
 79
3
170
0
171
3
172
1
173
0
174
0
175
0
176
0
177
0
178
0
179
2
271
2
272
2
273
2
274
3
275
0
276
0
277
2
278
44
279
0
280
0
281
0
282
0
283
0
284
8
285
0
286
0
288
0
289
3
290
0
371
-2
372
-2
  0
ENDTAB
  0
TABLE
  2
BLOCK_RECORD
  5
9
330
0
100
AcDbSymbolTable
 70
2
  0
BLOCK_RECORD
  5
17
330
9
100
AcDbSymbolTableRecord
100
AcDbBlockTableRecord
  2
*Model_Space
340
1A
 70
0
280
1
281
0
  0
BLOCK_RECORD
  5
1B
330
9
100
AcDbSymbolTableRecord
100
AcDbBlockTableRecord
  2
*Paper_Space
340
1E
 70
0
280
1
281
0
  0
ENDTAB
  0
ENDSEC
  0
SECTION
  2
BLOCKS
  0
BLOCK
  5
18
330
17
100
AcDbEntity
  8
0
100
AcDbBlockBegin
  2
*Model_Space
 70
0
 10
0.0
 20
0.0
 30
0.0
  3
*Model_Space
  1

  0
ENDBLK
  5
19
330
17
100
AcDbEntity
  8
0
100
AcDbBlockEnd
  0
BLOCK
  5
1C
330
1B
100
AcDbEntity
  8
0
100
AcDbBlockBegin
  2
*Paper_Space
 70
0
 10
0.0
 20
0.0
 30
0.0
  3
*Paper_Space
  1

  0
ENDBLK
  5
1D
330
1B
100
AcDbEntity
  8
0
100
AcDbBlockEnd
  0
ENDSEC
  0
SECTION
  2
ENTITIES
  0
LINE
  5
2F
330
17
100
AcDbEntity
  8
0
100
AcDbLine
 10
510.2235928588719
 20
2030.68270587792
 30
0.0
 11
581.6977621055938
 21
-16.06970785718829
 31
0.0
  0
LINE
  5
30
330
17
100
AcDbEntity
  8
0
100
AcDbLine
 10
1041.395882809966
 20
2049.2316509757056
 30
0.0
 11
1112.8700520566879
 21
2.4792372405976266
 31
0.0
  0
LINE
  5
31
330
17
100
AcDbEntity
  8
0
100
AcDbLine
 10
1572.5681727610606
 20
2067.780596073492
 30
0.0
 11
1644.0423420077825
 21
21.028182338383544
 31
0.0
  0
LINE
  5
32
330
17
100
AcDbEntity
  8
0
100
AcDbLine
 10
-23.796752257452408
 20
1687.5758384687051
 30
0.0
 11
2022.955661477656
 21
1759.050007715427
 31
0.0
  0
LINE
  5
33
330
17
100
AcDbEntity
  8
0
100
AcDbLine
 10
-1.1258193601584985
 20
1038.365261861813
 30
0.0
 11
2045.6265943749497
 21
1109.8394311085349
 31
0.0
  0
LINE
  5
34
330
17
100
AcDbEntity
  8
0
100
AcDbLine
 10
21.545113537135443
 20
389.1546852549201
 30
0.0
 11
2068.2975272722438
 21
460.62885450164197
 31
0.0
  0
LINE
  5
35
330
17
100
AcDbEntity
  8
0
100
AcDbLine
 10
566.8819978869224
 20
408.1982688886468
 30
0.0
 11
778.1705310008048
 21
415.5766270497662
 31
0.0
  0
LINE
  5
36
330
17
100
AcDbEntity
  8
0
100
AcDbLine
 10
553.2120420241703
 20
393.53903595400925
 30
0.0
 11
778.6651695367458
 21
401.41203265106947
 31
0.0
  0
LINE
  5
37
330
17
100
AcDbEntity
  8
0
100
AcDbLine
 10
883.3144175873242
 20
1330.433323013397
 30
0.0
 11
902.8938596349872
 21
769.7514613983537
 31
0.0
  0
LINE
  5
38
330
17
100
AcDbEntity
  8
0
100
AcDbLine
 10
554.680914000379
 20
757.5915973898051
 30
0.0
 11
730.5579611175201
 21
763.7333592110721
 31
0.0
  0
LINE
  5
39
330
17
100
AcDbEntity
  8
0
100
AcDbLine
 10
1107.9357758331278
 20
448.36508448642564
 30
0.0
 11
1105.1946539464545
 21
526.8605451125381
 31
0.0
  0
LINE
  5
3A
330
17
100
AcDbEntity
  8
0
100
AcDbLine
 10
1090.2300328347606
 20
447.7467863164994
 30
0.0
 11
1087.4889109480873
 21
526.2422469426119
 31
0.0
  0
LINE
  5
3B
330
17
100
AcDbEntity
  8
0
100
AcDbLine
 10
555.299212170305
 20
739.8858543914375
 30
0.0
 11
713.4705162890757
 21
745.4093180427783
 31
0.0
  0
LINE
  5
3C
330
17
100
AcDbEntity
  8
0
100
AcDbLine
 10
866.2269727588797
 20
1312.1092818451045
 30
0.0
 11
885.8064148065426
 21
751.42742023006
 31
0.0
  0
LINE
  5
3D
330
17
100
AcDbEntity
  8
0
100
AcDbLine
 10
535.101471952716
 20
1318.2734590048483
 30
0.0
 11
883.3144175873242
 21
1330.433323013397
 31
0.0
  0
LINE
  5
3E
330
17
100
AcDbEntity
  8
0
100
AcDbLine
 10
535.7197701226421
 20
1300.567716006482
 30
0.0
 11
866.2269727588797
 21
1312.1092818451045
 31
0.0
  0
LINE
  5
3F
330
17
100
AcDbEntity
  8
0
100
AcDbLine
 10
742.7590450040635
 20
414.3400307099138
 30
0.0
 11
740.9865902502753
 21
465.0964939719006
 31
0.0
  0
LINE
  5
40
330
17
100
AcDbEntity
  8
0
100
AcDbLine
 10
725.053302005693
 20
413.72173253998756
 30
0.0
 11
723.5693863978705
 21
456.2155157360663
 31
0.0
  0
LINE
  5
41
330
17
100
AcDbEntity
  8
0
100
AcDbLine
 10
1711.8533784481724
 20
448.1815505438743
 30
0.0
 11
1712.3480169841132
 21
434.0169561451776
 31
0.0
  0
LINE
  5
42
330
17
100
AcDbEntity
  8
0
100
AcDbLine
 10
1818.0878364383914
 20
451.89133956343164
 30
0.0
 11
1818.5824749743322
 21
437.7267451647349
 31
0.0
  0
LINE
  5
43
330
17
100
AcDbEntity
  8
0
100
AcDbLine
 10
1971.5376090909276
 20
457.249923702792
 30
0.0
 11
1972.0322476268684
 21
443.08532930409524
 31
0.0
  0
LINE
  5
44
330
17
100
AcDbEntity
  8
0
100
AcDbLine
 10
1818.0878364383914
 20
451.89133956343164
 30
0.0
 11
1971.5376090909276
 21
457.249923702792
 31
0.0
  0
LINE
  5
45
330
17
100
AcDbEntity
  8
0
100
AcDbLine
 10
1180.681088497078
 20
429.6326054460884
 30
0.0
 11
1181.1757270330188
 21
415.46801104739166
 31
0.0
  0
LINE
  5
46
330
17
100
AcDbEntity
  8
0
100
AcDbLine
 10
1286.9155464872977
 20
433.3423944656457
 30
0.0
 11
1287.4101850232385
 21
419.177800066949
 31
0.0
  0
LINE
  5
47
330
17
100
AcDbEntity
  8
0
100
AcDbLine
 10
1440.3653191398334
 20
438.70097860500607
 30
0.0
 11
1440.8599576757742
 21
424.5363842063093
 31
0.0
  0
LINE
  5
48
330
17
100
AcDbEntity
  8
0
100
AcDbLine
 10
1546.5997771300533
 20
442.41076762456316
 30
0.0
 11
1547.0944156659941
 21
428.2461732258664
 31
0.0
  0
LINE
  5
49
330
17
100
AcDbEntity
  8
0
100
AcDbLine
 10
1286.9155464872977
 20
433.3423944656457
 30
0.0
 11
1440.3653191398334
 21
438.70097860500607
 31
0.0
  0
LINE
  5
4A
330
17
100
AcDbEntity
  8
0
100
AcDbLine
 10
1546.5997771300533
 20
442.41076762456316
 30
0.0
 11
1711.8533784481724
 21
448.1815505438743
 31
0.0
  0
LINE
  5
4B
330
17
100
AcDbEntity
  8
0
100
AcDbLine
 10
1345.934689815197
 20
435.40338836539956
 30
0.0
 11
1343.873695915443
 21
494.42253169329865
 31
0.0
  0
LINE
  5
4C
330
17
100
AcDbEntity
  8
0
100
AcDbLine
 10
1343.873695915443
 20
494.42253169329865
 30
0.0
 11
1391.0890105777596
 21
496.0713268131019
 31
0.0
  0
LINE
  5
4D
330
17
100
AcDbEntity
  8
0
100
AcDbLine
 10
1393.1500044775137
 20
437.0521834852028
 30
0.0
 11
1391.0890105777596
 21
496.0713268131019
 31
0.0
  0
LINE
  5
4E
330
17
100
AcDbEntity
  8
0
100
AcDbLine
 10
885.8064148065426
 20
751.42742023006
 30
0.0
 11
1079.3892049220544
 21
758.187480221253
 31
0.0
  0
LINE
  5
4F
330
17
100
AcDbEntity
  8
0
100
AcDbLine
 10
902.8938596349872
 20
769.7514613983537
 30
0.0
 11
1096.4766497504954
 21
776.5115213895468
 31
0.0
  0
LINE
  5
50
330
17
100
AcDbEntity
  8
0
100
AcDbLine
 10
731.382308641111
 20
1112.39972350363
 30
0.0
 11
743.7482720396349
 21
758.284863536233
 31
0.0
  0
LINE
  5
51
330
17
100
AcDbEntity
  8
0
100
AcDbLine
 10
885.3942160265917
 20
763.2312488956426
 30
0.0
 11
743.7482720396349
 21
758.284863536233
 31
0.0
  0
LINE
  5
52
330
17
100
AcDbEntity
  8
0
100
AcDbLine
 10
884.1576196867395
 20
798.6427348923773
 30
0.0
 11
742.5116756997827
 21
793.6963495329678
 31
0.0
  0
LINE
  5
53
330
17
100
AcDbEntity
  8
0
100
AcDbLine
 10
882.921023346887
 20
834.0542208891217
 30
0.0
 11
741.2750793599301
 21
829.1078355297121
 31
0.0
  0
LINE
  5
54
330
17
100
AcDbEntity
  8
0
100
AcDbLine
 10
881.6844270070346
 20
869.4657068858587
 30
0.0
 11
740.0384830200778
 21
864.5193215264492
 31
0.0
  0
LINE
  5
55
330
17
100
AcDbEntity
  8
0
100
AcDbLine
 10
880.4478306671822
 20
904.8771928826002
 30
0.0
 11
738.8018866802254
 21
899.9308075231907
 31
0.0
  0
LINE
  5
56
330
17
100
AcDbEntity
  8
0
100
AcDbLine
 10
879.2112343273297
 20
940.2886788793404
 30
0.0
 11
737.5652903403729
 21
935.3422935199309
 31
0.0
  0
LINE
  5
57
330
17
100
AcDbEntity
  8
0
100
AcDbLine
 10
877.9746379874775
 20
975.7001648760752
 30
0.0
 11
736.3286940005207
 21
970.7537795166656
 31
0.0
  0
LINE
  5
58
330
17
100
AcDbEntity
  8
0
100
AcDbLine
 10
876.738041647625
 20
1011.1116508728189
 30
0.0
 11
735.0920976606682
 21
1006.1652655134094
 31
0.0
  0
LINE
  5
59
330
17
100
AcDbEntity
  8
0
100
AcDbLine
 10
875.5014453077727
 20
1046.5231368695574
 30
0.0
 11
733.8555013208158
 21
1041.576751510148
 31
0.0
  0
LINE
  5
5A
330
17
100
AcDbEntity
  8
0
100
AcDbLine
 10
874.2648489679202
 20
1081.934622866298
 30
0.0
 11
732.6189049809634
 21
1076.9882375068885
 31
0.0
  0
LINE
  5
5B
330
17
100
AcDbEntity
  8
0
100
AcDbLine
 10
873.0282526280678
 20
1117.3461088630395
 30
0.0
 11
542.5210499918302
 21
1105.8045430244172
 31
0.0
  0
LINE
  5
5C
330
17
100
AcDbEntity
  8
0
100
AcDbLine
 10
563.7679415898749
 20
1106.5465008283286
 30
0.0
 11
575.9278055984237
 21
758.3335551937166
 31
0.0
  0
LINE
  5
5D
330
17
100
AcDbEntity
  8
0
100
AcDbLine
 10
705.4138855768352
 20
1111.4928861877383
 30
0.0
 11
717.573749585384
 21
763.2799405531263
 31
0.0
  0
LINE
  5
5E
330
17
100
AcDbEntity
  8
0
100
AcDbLine
 10
706.6504819166877
 20
1076.0814001909966
 30
0.0
 11
565.0045379297273
 21
1071.1350148315871
 31
0.0
  0
LINE
  5
5F
330
17
100
AcDbEntity
  8
0
100
AcDbLine
 10
707.8870782565401
 20
1040.669914194256
 30
0.0
 11
566.2411342695798
 21
1035.7235288348465
 31
0.0
  0
LINE
  5
60
330
17
100
AcDbEntity
  8
0
100
AcDbLine
 10
709.1236745963924
 20
1005.2584281975177
 30
0.0
 11
567.4777306094321
 21
1000.312042838108
 31
0.0
  0
LINE
  5
61
330
17
100
AcDbEntity
  8
0
100
AcDbLine
 10
710.360270936245
 20
969.8469422007739
 30
0.0
 11
568.7143269492847
 21
964.9005568413643
 31
0.0
  0
LINE
  5
62
330
17
100
AcDbEntity
  8
0
100
AcDbLine
 10
711.5968672760972
 20
934.4354562040392
 30
0.0
 11
569.9509232891369
 21
929.4890708446295
 31
0.0
  0
LINE
  5
63
330
17
100
AcDbEntity
  8
0
100
AcDbLine
 10
535.7197701226421
 20
1300.567716006482
 30
0.0
 11
566.8819978869224
 21
408.1982688886468
 31
0.0
  0
LINE
  5
64
330
17
100
AcDbEntity
  8
0
100
AcDbLine
 10
496.05899846017877
 20
2030.1880673419791
 30
0.0
 11
553.2120420241703
 21
393.53903595400925
 31
0.0
  0
LINE
  5
65
330
17
100
AcDbEntity
  8
0
100
AcDbLine
 10
1073.2662476403018
 20
425.8815965485361
 30
0.0
 11
1073.7608861762426
 21
411.71700214983935
 31
0.0
  0
LINE
  5
66
330
17
100
AcDbEntity
  8
0
100
AcDbLine
 10
955.2279609845027
 20
421.7596087490282
 30
0.0
 11
955.7225995204437
 21
407.59501435033144
 31
0.0
  0
LINE
  5
67
330
17
100
AcDbEntity
  8
0
100
AcDbLine
 10
778.6651695367458
 20
401.41203265106947
 30
0.0
 11
778.1705310008048
 21
415.5766270497662
 31
0.0
  0
LINE
  5
68
330
17
100
AcDbEntity
  8
0
100
AcDbLine
 10
896.7034561925444
 20
405.5340204505775
 30
0.0
 11
896.2088176566034
 21
419.69861484927424
 31
0.0
  0
LINE
  5
69
330
17
100
AcDbEntity
  8
0
100
AcDbLine
 10
896.2088176566034
 20
419.69861484927424
 30
0.0
 11
955.2279609845027
 21
421.7596087490282
 31
0.0
  0
LINE
  5
6A
330
17
100
AcDbEntity
  8
0
100
AcDbLine
 10
896.7034561925444
 20
405.5340204505775
 30
0.0
 11
955.7225995204437
 21
407.59501435033144
 31
0.0
  0
LINE
  5
6B
330
17
100
AcDbEntity
  8
0
100
AcDbLine
 10
1073.2662476403018
 20
425.8815965485361
 30
0.0
 11
1180.681088497078
 21
429.6326054460884
 31
0.0
  0
LINE
  5
6C
330
17
100
AcDbEntity
  8
0
100
AcDbLine
 10
1073.7608861762426
 20
411.71700214983935
 30
0.0
 11
1189.4384070989277
 21
415.7565501933541
 31
0.0
  0
LINE
  5
6D
330
17
100
AcDbEntity
  8
0
100
AcDbLine
 10
211.46314545529845
 20
27.058212588089646
 30
0.0
 11
1489.8177899375967
 21
71.69934045676109
 31
0.0
  0
LINE
  5
6E
330
17
100
AcDbEntity
  8
0
100
AcDbLine
 10
571.4237062821904
 20
75.08298125131796
 30
0.0
 11
606.835192278928
 21
76.31957759117029
 31
0.0
  0
LINE
  5
6F
330
17
100
AcDbEntity
  8
0
100
AcDbLine
 10
570.1871099423378
 20
110.49446724806592
 30
0.0
 11
605.5985959390754
 21
111.73106358791824
 31
0.0
  0
LINE
  5
70
330
17
100
AcDbEntity
  8
0
100
AcDbLine
 10
570.1871099423378
 20
110.49446724806592
 30
0.0
 11
571.4237062821904
 21
75.08298125131796
 31
0.0
  0
LINE
  5
71
330
17
100
AcDbEntity
  8
0
100
AcDbLine
 10
605.5985959390754
 20
111.73106358791824
 30
0.0
 11
606.835192278928
 21
76.31957759117029
 31
0.0
  0
LINE
  5
72
330
17
100
AcDbEntity
  8
0
100
AcDbLine
 10
1091.9725504342625
 20
93.26094744714817
 30
0.0
 11
1127.384036431
 21
94.49754378700038
 31
0.0
  0
LINE
  5
73
330
17
100
AcDbEntity
  8
0
100
AcDbLine
 10
1090.7359540944096
 20
128.67243344389613
 30
0.0
 11
1126.147440091147
 21
129.90902978374834
 31
0.0
  0
LINE
  5
74
330
17
100
AcDbEntity
  8
0
100
AcDbLine
 10
1090.7359540944096
 20
128.67243344389613
 30
0.0
 11
1091.9725504342625
 21
93.26094744714817
 31
0.0
  0
LINE
  5
75
330
17
100
AcDbEntity
  8
0
100
AcDbLine
 10
1126.147440091147
 20
129.90902978374834
 30
0.0
 11
1127.384036431
 21
94.49754378700038
 31
0.0
  0
LINE
  5
76
330
17
100
AcDbEntity
  8
0
100
AcDbLine
 10
814.5712440331133
 20
760.7580562159378
 30
0.0
 11
802.2052806345894
 21
1114.8729161833348
 31
0.0
  0
LINE
  5
77
330
17
100
AcDbEntity
  8
0
100
AcDbLine
 10
826.1617843273589
 20
1092.5331150787117
 30
0.0
 11
802.2052806345894
 21
1114.8729161833348
 31
0.0
  0
LINE
  5
78
330
17
100
AcDbEntity
  8
0
100
AcDbLine
 10
779.8654795299697
 20
1090.9164124905624
 30
0.0
 11
802.2052806345894
 21
1114.8729161833348
 31
0.0
  0
LINE
  5
79
330
17
100
AcDbEntity
  8
0
100
AcDbLine
 10
714.9132120189036
 20
704.0959177132463
 30
0.0
 11
732.6189550172741
 21
704.7142158831725
 31
0.0
  0
LINE
  5
7A
330
17
100
AcDbEntity
  8
0
100
AcDbLine
 10
718.6230010384606
 20
597.8614597230298
 30
0.0
 11
736.3287440368313
 21
598.4797578929561
 31
0.0
  0
LINE
  5
7B
330
17
100
AcDbEntity
  8
0
100
AcDbLine
 10
719.8595973783132
 20
562.4499737262887
 30
0.0
 11
737.5653403766837
 21
563.0682718962149
 31
0.0
  0
LINE
  5
7C
330
17
100
AcDbEntity
  8
0
100
AcDbLine
 10
723.5693863978705
 20
456.2155157360663
 30
0.0
 11
741.275129396241
 21
456.83381390599254
 31
0.0
  0
LINE
  5
7D
330
17
100
AcDbEntity
  8
0
100
AcDbLine
 10
714.9132120189036
 20
704.0959177132463
 30
0.0
 11
713.4705162890757
 21
745.4093180427783
 31
0.0
  0
LINE
  5
7E
330
17
100
AcDbEntity
  8
0
100
AcDbLine
 10
732.6189550172741
 20
704.7142158831725
 30
0.0
 11
730.5579611175201
 21
763.7333592110721
 31
0.0
  0
LINE
  5
7F
330
17
100
AcDbEntity
  8
0
100
AcDbLine
 10
719.8595973783132
 20
562.4499737262887
 30
0.0
 11
718.6230010384606
 21
597.8614597230298
 31
0.0
  0
LINE
  5
80
330
17
100
AcDbEntity
  8
0
100
AcDbLine
 10
634.5909135833531
 20
1109.0196935080335
 30
0.0
 11
642.0104916224675
 21
896.550777527594
 31
0.0
  0
LINE
  5
81
330
17
100
AcDbEntity
  8
0
100
AcDbLine
 10
642.0104916224675
 20
896.550777527594
 30
0.0
 11
571.1875196289893
 21
894.0775848478893
 31
0.0
  0
LINE
  5
82
330
17
100
AcDbEntity
  8
0
100
AcDbLine
 10
618.0539879296985
 20
918.8905786322172
 30
0.0
 11
642.0104916224675
 21
896.550777527594
 31
0.0
  0
LINE
  5
83
330
17
100
AcDbEntity
  8
0
100
AcDbLine
 10
664.3502927270908
 20
920.5072812203666
 30
0.0
 11
642.0104916224675
 21
896.550777527594
 31
0.0
  0
LINE
  5
84
330
17
100
AcDbEntity
  8
0
100
AcDbLine
 10
572.4241159688418
 20
858.6660988511478
 30
0.0
 11
711.5968672760972
 21
934.4354562040392
 31
0.0
  0
LINE
  5
85
330
17
100
AcDbEntity
  8
0
100
AcDbLine
 10
510.2235928588719
 20
2030.68270587792
 30
0.0
 11
535.101471952716
 21
1318.2734590048483
 31
0.0
  0
LINE
  5
86
330
17
100
AcDbEntity
  8
0
100
AcDbLine
 10
268.43623844242995
 20
426.1400484312793
 30
0.0
 11
269.6728347822824
 21
390.72856243453816
 31
0.0
  0
LINE
  5
87
330
17
100
AcDbEntity
  8
0
100
AcDbLine
 10
233.02475244568916
 20
424.90345209142686
 30
0.0
 11
234.2613487855416
 21
389.4919660946857
 31
0.0
  0
LINE
  5
88
330
17
100
AcDbEntity
  8
0
100
AcDbLine
 10
156.51704808785692
 20
1600.5085737098875
 30
0.0
 11
211.46314545529845
 21
27.058212588089646
 31
0.0
  0
LINE
  5
89
330
17
100
AcDbEntity
  8
0
100
AcDbLine
 10
269.6728347822824
 20
390.72856243453816
 30
0.0
 11
234.2613487855416
 21
389.4919660946857
 31
0.0
  0
LINE
  5
8A
330
17
100
AcDbEntity
  8
0
100
AcDbLine
 10
268.43623844242995
 20
426.1400484312793
 30
0.0
 11
233.02475244568916
 21
424.90345209142686
 31
0.0
  0
LINE
  5
8B
330
17
100
AcDbEntity
  8
0
100
AcDbLine
 10
246.13628444709175
 20
1064.72717923915
 30
0.0
 11
247.3728807869442
 21
1029.315693242409
 31
0.0
  0
LINE
  5
8C
330
17
100
AcDbEntity
  8
0
100
AcDbLine
 10
210.72479845035096
 20
1063.4905828992976
 30
0.0
 11
211.9613947902034
 21
1028.0790969025566
 31
0.0
  0
LINE
  5
8D
330
17
100
AcDbEntity
  8
0
100
AcDbLine
 10
247.3728807869442
 20
1029.315693242409
 30
0.0
 11
211.9613947902034
 21
1028.0790969025566
 31
0.0
  0
LINE
  5
8E
330
17
100
AcDbEntity
  8
0
100
AcDbLine
 10
246.13628444709175
 20
1064.72717923915
 30
0.0
 11
210.72479845035096
 21
1063.4905828992976
 31
0.0
  0
LINE
  5
8F
330
17
100
AcDbEntity
  8
0
100
AcDbLine
 10
231.46200788084332
 20
1484.9434797337935
 30
0.0
 11
232.69860422069576
 21
1449.5319937370523
 31
0.0
  0
LINE
  5
90
330
17
100
AcDbEntity
  8
0
100
AcDbLine
 10
196.05052188410252
 20
1483.706883393941
 30
0.0
 11
197.28711822395496
 21
1448.2953973971998
 31
0.0
  0
LINE
  5
91
330
17
100
AcDbEntity
  8
0
100
AcDbLine
 10
232.69860422069576
 20
1449.5319937370523
 30
0.0
 11
197.28711822395496
 21
1448.2953973971998
 31
0.0
  0
LINE
  5
92
330
17
100
AcDbEntity
  8
0
100
AcDbLine
 10
231.46200788084332
 20
1484.9434797337935
 30
0.0
 11
196.05052188410252
 21
1483.706883393941
 31
0.0
  0
LINE
  5
93
330
17
100
AcDbEntity
  8
0
100
AcDbLine
 10
510.63190805525267
 20
1612.8745371084115
 30
0.0
 11
156.51704808785692
 21
1600.5085737098875
 31
0.0
  0
LINE
  5
94
330
17
100
AcDbEntity
  8
0
100
AcDbLine
 10
227.34002008133533
 20
1602.9817663895922
 30
0.0
 11
224.86682740163064
 21
1673.804738383068
 31
0.0
  0
LINE
  5
95
330
17
100
AcDbEntity
  8
0
100
AcDbLine
 10
509.3953117154002
 20
1648.2860231051523
 30
0.0
 11
226.10342374148289
 21
1638.3932523863332
 31
0.0
  0
LINE
  5
96
330
17
100
AcDbEntity
  8
0
100
AcDbLine
 10
508.158715375548
 20
1683.6975091018871
 30
0.0
 11
224.86682740163064
 21
1673.804738383068
 31
0.0
  0
LINE
  5
97
330
17
100
AcDbEntity
  8
0
100
AcDbLine
 10
160.6390358873649
 20
1482.4702870540887
 30
0.0
 11
89.81606389388932
 21
1479.9970943743913
 31
0.0
  0
LINE
  5
98
330
17
100
AcDbEntity
  8
0
100
AcDbLine
 10
135.12032060941942
 20
1197.941802740321
 30
0.0
 11
125.22754989062378
 21
1481.2336907142394
 31
0.0
  0
LINE
  5
99
330
17
100
AcDbEntity
  8
0
100
AcDbLine
 10
99.7088346126884
 20
1196.7052064004724
 30
0.0
 11
89.81606389388932
 21
1479.9970943743913
 31
0.0
  0
LINE
  5
9A
330
17
100
AcDbEntity
  8
0
100
AcDbLine
 10
99.7088346126884
 20
1196.7052064004724
 30
0.0
 11
170.53180660618386
 21
1199.178399080178
 31
0.0
  0
LINE
  5
9B
330
17
100
AcDbEntity
  8
0
100
AcDbLine
 10
366.51277138858745
 20
1678.7511237424774
 30
0.0
 11
368.9859640682921
 21
1607.9281517490017
 31
0.0
  0
LINE
  5
9C
330
17
100
AcDbEntity
  8
0
100
AcDbLine
 10
345.0294603755229
 20
1630.2679528536246
 30
0.0
 11
368.9859640682921
 21
1607.9281517490017
 31
0.0
  0
LINE
  5
9D
330
17
100
AcDbEntity
  8
0
100
AcDbLine
 10
391.3257651729156
 20
1631.8846554417742
 30
0.0
 11
368.9859640682921
 21
1607.9281517490017
 31
0.0
  0
LINE
  5
9E
330
17
100
AcDbEntity
  8
0
100
AcDbLine
 10
94.7624492532891
 20
1338.3511503874265
 30
0.0
 11
165.58542124676103
 21
1340.824343067131
 31
0.0
  0
LINE
  5
9F
330
17
100
AcDbEntity
  8
0
100
AcDbLine
 10
143.24562014214095
 20
1316.8678393743658
 30
0.0
 11
165.58542124676103
 21
1340.824343067131
 31
0.0
  0
LINE
  5
A0
330
17
100
AcDbEntity
  8
0
100
AcDbLine
 10
141.62891755399167
 20
1363.1641441717538
 30
0.0
 11
165.58542124676103
 21
1340.824343067131
 31
0.0
  0
LINE
  5
A1
330
17
100
AcDbEntity
  8
0
100
AcDbLine
 10
1086.1268495747665
 20
57.602142182443686
 30
0.0
 11
1088.0820118589731
 21
1.6136198027010096
 31
0.0
  0
LINE
  5
A2
330
17
100
AcDbEntity
  8
0
100
AcDbLine
 10
791.0311329352697
 20
47.29717268367381
 30
0.0
 11
792.9862952194762
 21
-8.691349696068869
 31
0.0
  0
LINE
  5
A3
330
17
100
AcDbEntity
  8
0
100
AcDbLine
 10
792.2677292751222
 20
11.88568668693324
 30
0.0
 11
1087.363445914619
 21
22.19065618570312
 31
0.0
  0
LINE
  5
A4
330
17
100
AcDbEntity
  8
0
100
AcDbLine
 10
940.5341535392245
 20
-3.5388649466839297
 30
0.0
 11
938.5789912550181
 21
52.44965743305556
 31
0.0
  0
LINE
  5
A5
330
17
100
AcDbEntity
  8
0
100
AcDbLine
 10
962.5354949477872
 20
30.10985632842892
 30
0.0
 11
938.5789912550181
 21
52.44965743305556
 31
0.0
  0
LINE
  5
A6
330
17
100
AcDbEntity
  8
0
100
AcDbLine
 10
916.2391901504017
 20
28.49315374027981
 30
0.0
 11
938.5789912550181
 21
52.44965743305556
 31
0.0
  0
LINE
  5
A7
330
17
100
AcDbEntity
  8
0
100
AcDbLine
 10
1522.7560832546528
 20
143.75890879009603
 30
0.0
 11
1512.8633125358137
 21
427.0507967640092
 31
0.0
  0
LINE
  5
A8
330
17
100
AcDbEntity
  8
0
100
AcDbLine
 10
1558.1675692513936
 20
144.99550512994847
 30
0.0
 11
1548.2747985325507
 21
428.2873931038614
 31
0.0
  0
LINE
  5
A9
330
17
100
AcDbEntity
  8
0
100
AcDbLine
 10
1558.1675692513936
 20
144.99550512994847
 30
0.0
 11
1487.3445972578918
 21
142.5223124502429
 31
0.0
  0
LINE
  5
AA
330
17
100
AcDbEntity
  8
0
100
AcDbLine
 10
1553.2211838919732
 20
286.6414491169079
 30
0.0
 11
1482.3982118984918
 21
284.168256437203
 31
0.0
  0
LINE
  5
AB
330
17
100
AcDbEntity
  8
0
100
AcDbLine
 10
1506.3547155912643
 20
261.82845533258046
 30
0.0
 11
1482.3982118984918
 21
284.168256437203
 31
0.0
  0
LINE
  5
AC
330
17
100
AcDbEntity
  8
0
100
AcDbLine
 10
1504.7380130031147
 20
308.12476012997286
 30
0.0
 11
1482.3982118984918
 21
284.168256437203
 31
0.0
  0
LINE
  5
AD
330
17
100
AcDbEntity
  8
0
100
AcDbLine
 10
1489.8177899375967
 20
71.69934045676109
 30
0.0
 11
1477.4518265390727
 21
425.81420042415675
 31
0.0
  0
LINE
  5
AE
330
17
100
AcDbEntity
  8
0
100
AcDbLine
 10
1786.8245645238605
 20
365.7083967093955
 30
0.0
 11
2071.2653584878894
 21
375.64128810946306
 31
0.0
  0
LINE
  5
AF
330
17
100
AcDbEntity
  8
0
100
AcDbLine
 10
425.23602646669684
 20
2027.7148746622743
 30
0.0
 11
437.3357433820661
 21
1681.2243164221823
 31
0.0
  0
LINE
  5
B0
330
17
100
AcDbEntity
  8
0
100
AcDbLine
 10
1798.672497526912
 20
26.427986355740245
 30
0.0
 11
1786.8245645238605
 21
365.7083967093955
 31
0.0
  0
LINE
  5
B1
330
17
100
AcDbEntity
  8
0
100
AcDbLine
 10
1082.130326808727
 20
679.6920195951518
 30
0.0
 11
1099.8360698070942
 21
680.310317765078
 31
0.0
  0
LINE
  5
B2
330
17
100
AcDbEntity
  8
0
100
AcDbLine
 10
1087.4889109480873
 20
526.2422469426119
 30
0.0
 11
1105.1946539464545
 21
526.8605451125381
 31
0.0
  0
LINE
  5
B3
330
17
100
AcDbEntity
  8
0
100
AcDbLine
 10
1099.8360698070942
 20
680.310317765078
 30
0.0
 11
1096.4766497504954
 21
776.5115213895468
 31
0.0
  0
LINE
  5
B4
330
17
100
AcDbEntity
  8
0
100
AcDbLine
 10
1082.130326808727
 20
679.6920195951518
 30
0.0
 11
1079.3892049220544
 21
758.187480221253
 31
0.0
  0
LINE
  5
B5
330
17
100
AcDbEntity
  8
0
100
AcDbLine
 10
704.9642778631026
 20
650.5664899381909
 30
0.0
 11
746.2776781926317
 21
652.0091856680187
 31
0.0
  0
LINE
  5
B6
330
17
100
AcDbEntity
  8
0
100
AcDbLine
 10
836.7774755487533
 20
429.44144961509915
 30
0.0
 11
838.0965116445959
 21
391.6691978852408
 31
0.0
  0
LINE
  5
B7
330
17
100
AcDbEntity
  8
0
100
AcDbLine
 10
1013.8349055324514
 20
435.62443131436123
 30
0.0
 11
1015.1539416282941
 21
397.8521795845029
 31
0.0
  0
LINE
  5
B8
330
17
100
AcDbEntity
  8
0
100
AcDbLine
 10
1082.1303268087272
 20
679.6920195951482
 30
0.0
 11
1009.6344381406678
 21
601.9496969820881
 31
0.0
  0
LINE
  5
B9
330
17
100
AcDbEntity
  8
0
100
AcDbLine
 10
1087.4889109480873
 20
526.2422469426119
 30
0.0
 11
1052.9367675645033
 21
558.4626419061926
 31
0.0
  0
LINE
  5
BA
330
17
100
AcDbEntity
  8
0
100
AcDbLine
 10
778.6651695367458
 20
401.41203265106947
 30
0.0
 11
896.7034561925444
 21
405.5340204505775
 31
0.0
  0
LINE
  5
BB
330
17
100
AcDbEntity
  8
0
100
AcDbLine
 10
896.7034561925444
 20
405.5340204505775
 30
0.0
 11
896.2088176566034
 21
419.69861484927424
 31
0.0
  0
LINE
  5
BC
330
17
100
AcDbEntity
  8
0
100
AcDbLine
 10
896.2088176566034
 20
419.69861484927424
 30
0.0
 11
778.1705310008048
 21
415.5766270497662
 31
0.0
  0
LINE
  5
BD
330
17
100
AcDbEntity
  8
0
100
AcDbLine
 10
778.1705310008048
 20
415.5766270497662
 30
0.0
 11
778.6651695367458
 21
401.41203265106947
 31
0.0
  0
LINE
  5
BE
330
17
100
AcDbEntity
  8
0
100
AcDbLine
 10
778.6651695367458
 20
401.41203265106947
 30
0.0
 11
778.6651695367458
 21
401.41203265106947
 31
0.0
  0
LINE
  5
BF
330
17
100
AcDbEntity
  8
0
100
AcDbLine
 10
955.7225995204437
 20
407.59501435033144
 30
0.0
 11
1073.7608861762426
 21
411.71700214983935
 31
0.0
  0
LINE
  5
C0
330
17
100
AcDbEntity
  8
0
100
AcDbLine
 10
1073.7608861762426
 20
411.71700214983935
 30
0.0
 11
1073.2662476403018
 21
425.8815965485361
 31
0.0
  0
LINE
  5
C1
330
17
100
AcDbEntity
  8
0
100
AcDbLine
 10
1073.2662476403018
 20
425.8815965485361
 30
0.0
 11
955.2279609845027
 21
421.7596087490282
 31
0.0
  0
LINE
  5
C2
330
17
100
AcDbEntity
  8
0
100
AcDbLine
 10
955.2279609845027
 20
421.7596087490282
 30
0.0
 11
955.7225995204437
 21
407.59501435033144
 31
0.0
  0
LINE
  5
C3
330
17
100
AcDbEntity
  8
0
100
AcDbLine
 10
955.7225995204437
 20
407.59501435033144
 30
0.0
 11
955.7225995204437
 21
407.59501435033144
 31
0.0
  0
LINE
  5
C4
330
17
100
AcDbEntity
  8
0
100
AcDbLine
 10
718.6230010384606
 20
597.8614597230298
 30
0.0
 11
714.9132120189036
 21
704.0959177132463
 31
0.0
  0
LINE
  5
C5
330
17
100
AcDbEntity
  8
0
100
AcDbLine
 10
714.9132120189036
 20
704.0959177132463
 30
0.0
 11
732.6189550172741
 21
704.7142158831725
 31
0.0
  0
LINE
  5
C6
330
17
100
AcDbEntity
  8
0
100
AcDbLine
 10
732.6189550172741
 20
704.7142158831725
 30
0.0
 11
736.3287440368313
 21
598.4797578929561
 31
0.0
  0
LINE
  5
C7
330
17
100
AcDbEntity
  8
0
100
AcDbLine
 10
736.3287440368313
 20
598.4797578929561
 30
0.0
 11
718.6230010384606
 21
597.8614597230298
 31
0.0
  0
LINE
  5
C8
330
17
100
AcDbEntity
  8
0
100
AcDbLine
 10
718.6230010384606
 20
597.8614597230298
 30
0.0
 11
718.6230010384606
 21
597.8614597230298
 31
0.0
  0
LINE
  5
C9
330
17
100
AcDbEntity
  8
0
100
AcDbLine
 10
257.2862614447608
 20
745.4336138352165
 30
0.0
 11
221.87477544802
 21
744.1970174953641
 31
0.0
  0
LINE
  5
CA
330
17
100
AcDbEntity
  8
0
100
AcDbLine
 10
221.87477544802
 20
744.1970174953641
 30
0.0
 11
223.11137178787254
 21
708.7855314986198
 31
0.0
  0
LINE
  5
CB
330
17
100
AcDbEntity
  8
0
100
AcDbLine
 10
223.11137178787254
 20
708.7855314986198
 30
0.0
 11
258.52285778461334
 21
710.0221278384722
 31
0.0
  0
LINE
  5
CC
330
17
100
AcDbEntity
  8
0
100
AcDbLine
 10
258.52285778461334
 20
710.0221278384722
 30
0.0
 11
257.2862614447608
 21
745.4336138352165
 31
0.0
  0
LINE
  5
CD
330
17
100
AcDbEntity
  8
0
100
AcDbLine
 10
257.2862614447608
 20
745.4336138352165
 30
0.0
 11
257.2862614447608
 21
745.4336138352165
 31
0.0
  0
LINE
  5
CE
330
17
100
AcDbEntity
  8
0
100
AcDbLine
 10
1451.9331112611535
 20
141.28571611039047
 30
0.0
 11
1416.5216252644127
 21
140.04911977053803
 31
0.0
  0
LINE
  5
CF
330
17
100
AcDbEntity
  8
0
100
AcDbLine
 10
1416.5216252644127
 20
140.04911977053803
 30
0.0
 11
1417.7582216042656
 21
104.63763377379007
 31
0.0
  0
LINE
  5
D0
330
17
100
AcDbEntity
  8
0
100
AcDbLine
 10
1417.7582216042656
 20
104.63763377379007
 30
0.0
 11
1453.1697076010064
 21
105.87423011364251
 31
0.0
  0
LINE
  5
D1
330
17
100
AcDbEntity
  8
0
100
AcDbLine
 10
1453.1697076010064
 20
105.87423011364251
 30
0.0
 11
1451.9331112611535
 21
141.28571611039047
 31
0.0
  0
LINE
  5
D2
330
17
100
AcDbEntity
  8
0
100
AcDbLine
 10
1451.9331112611535
 20
141.28571611039047
 30
0.0
 11
1451.9331112611535
 21
141.28571611039047
 31
0.0
  0
LINE
  5
D3
330
17
100
AcDbEntity
  8
0
100
AcDbLine
 10
244.40143877233118
 20
99.11778092142379
 30
0.0
 11
279.81292476907197
 21
100.35437726127623
 31
0.0
  0
LINE
  5
D4
330
17
100
AcDbEntity
  8
0
100
AcDbLine
 10
279.81292476907197
 20
100.35437726127623
 30
0.0
 11
281.04952110892464
 21
64.94289126452827
 31
0.0
  0
LINE
  5
D5
330
17
100
AcDbEntity
  8
0
100
AcDbLine
 10
281.04952110892464
 20
64.94289126452827
 30
0.0
 11
245.63803511218384
 21
63.70629492467583
 31
0.0
  0
LINE
  5
D6
330
17
100
AcDbEntity
  8
0
100
AcDbLine
 10
245.63803511218384
 20
63.70629492467583
 30
0.0
 11
244.40143877233118
 21
99.11778092142379
 31
0.0
  0
LINE
  5
D7
330
17
100
AcDbEntity
  8
0
100
AcDbLine
 10
244.40143877233118
 20
99.11778092142379
 30
0.0
 11
244.40143877233118
 21
99.11778092142379
 31
0.0
  0
LINE
  5
D8
330
17
100
AcDbEntity
  8
0
100
AcDbLine
 10
719.8595973783132
 20
562.4499737262887
 30
0.0
 11
723.5693863978705
 21
456.2155157360663
 31
0.0
  0
LINE
  5
D9
330
17
100
AcDbEntity
  8
0
100
AcDbLine
 10
723.5693863978705
 20
456.2155157360663
 30
0.0
 11
741.275129396241
 21
456.83381390599254
 31
0.0
  0
LINE
  5
DA
330
17
100
AcDbEntity
  8
0
100
AcDbLine
 10
741.275129396241
 20
456.83381390599254
 30
0.0
 11
737.5653403766837
 21
563.0682718962149
 31
0.0
  0
LINE
  5
DB
330
17
100
AcDbEntity
  8
0
100
AcDbLine
 10
737.5653403766837
 20
563.0682718962149
 30
0.0
 11
719.8595973783132
 21
562.4499737262887
 31
0.0
  0
LINE
  5
DC
330
17
100
AcDbEntity
  8
0
100
AcDbLine
 10
719.8595973783132
 20
562.4499737262887
 30
0.0
 11
719.8595973783132
 21
562.4499737262887
 31
0.0
  0
LINE
  5
DD
330
17
100
AcDbEntity
  8
0
100
AcDbLine
 10
1546.5997771300533
 20
442.41076762456316
 30
0.0
 11
1547.0944156659941
 21
428.2461732258664
 31
0.0
  0
LINE
  5
DE
330
17
100
AcDbEntity
  8
0
100
AcDbLine
 10
1547.0944156659941
 20
428.2461732258664
 30
0.0
 11
1440.8599576757742
 21
424.5363842063093
 31
0.0
  0
LINE
  5
DF
330
17
100
AcDbEntity
  8
0
100
AcDbLine
 10
1440.8599576757742
 20
424.5363842063093
 30
0.0
 11
1440.3653191398334
 21
438.70097860500607
 31
0.0
  0
LINE
  5
E0
330
17
100
AcDbEntity
  8
0
100
AcDbLine
 10
1440.3653191398334
 20
438.70097860500607
 30
0.0
 11
1546.5997771300533
 21
442.41076762456316
 31
0.0
  0
LINE
  5
E1
330
17
100
AcDbEntity
  8
0
100
AcDbLine
 10
1546.5997771300533
 20
442.41076762456316
 30
0.0
 11
1546.5997771300533
 21
442.41076762456316
 31
0.0
  0
LINE
  5
E2
330
17
100
AcDbEntity
  8
0
100
AcDbLine
 10
1286.9155464872977
 20
433.3423944656457
 30
0.0
 11
1287.4101850232385
 21
419.177800066949
 31
0.0
  0
LINE
  5
E3
330
17
100
AcDbEntity
  8
0
100
AcDbLine
 10
1287.4101850232385
 20
419.177800066949
 30
0.0
 11
1181.1757270330188
 21
415.46801104739166
 31
0.0
  0
LINE
  5
E4
330
17
100
AcDbEntity
  8
0
100
AcDbLine
 10
1181.1757270330188
 20
415.46801104739166
 30
0.0
 11
1180.681088497078
 21
429.6326054460884
 31
0.0
  0
LINE
  5
E5
330
17
100
AcDbEntity
  8
0
100
AcDbLine
 10
1180.681088497078
 20
429.6326054460884
 30
0.0
 11
1286.9155464872977
 21
433.3423944656457
 31
0.0
  0
LINE
  5
E6
330
17
100
AcDbEntity
  8
0
100
AcDbLine
 10
1286.9155464872977
 20
433.3423944656457
 30
0.0
 11
1286.9155464872977
 21
433.3423944656457
 31
0.0
  0
LINE
  5
E7
330
17
100
AcDbEntity
  8
0
100
AcDbLine
 10
2068.7921658081846
 20
446.4642601029452
 30
0.0
 11
1972.0322476268684
 21
443.08532930409524
 31
0.0
  0
LINE
  5
E8
330
17
100
AcDbEntity
  8
0
100
AcDbLine
 10
1972.0322476268684
 20
443.08532930409524
 30
0.0
 11
1971.5376090909276
 21
457.249923702792
 31
0.0
  0
LINE
  5
E9
330
17
100
AcDbEntity
  8
0
100
AcDbLine
 10
1971.5376090909276
 20
457.249923702792
 30
0.0
 11
2068.2975272722438
 21
460.62885450164197
 31
0.0
  0
LINE
  5
EA
330
17
100
AcDbEntity
  8
0
100
AcDbLine
 10
1818.0878364383914
 20
451.89133956343164
 30
0.0
 11
1818.5824749743322
 21
437.7267451647349
 31
0.0
  0
LINE
  5
EB
330
17
100
AcDbEntity
  8
0
100
AcDbLine
 10
1818.5824749743322
 20
437.7267451647349
 30
0.0
 11
1712.3480169841132
 21
434.0169561451776
 31
0.0
  0
LINE
  5
EC
330
17
100
AcDbEntity
  8
0
100
AcDbLine
 10
1712.3480169841132
 20
434.0169561451776
 30
0.0
 11
1711.8533784481724
 21
448.1815505438743
 31
0.0
  0
LINE
  5
ED
330
17
100
AcDbEntity
  8
0
100
AcDbLine
 10
1711.8533784481724
 20
448.1815505438743
 30
0.0
 11
1818.0878364383914
 21
451.89133956343164
 31
0.0
  0
LINE
  5
EE
330
17
100
AcDbEntity
  8
0
100
AcDbLine
 10
1818.0878364383914
 20
451.89133956343164
 30
0.0
 11
1818.0878364383914
 21
451.89133956343164
 31
0.0
  0
LINE
  5
EF
330
17
100
AcDbEntity
  8
0
100
AcDbLine
 10
1617.8611741861805
 20
466.17207178030014
 30
0.0
 11
1639.108065784222
 21
466.91402958421156
 31
0.0
  0
LINE
  5
F0
330
17
100
AcDbEntity
  8
0
100
AcDbLine
 10
1639.108065784222
 20
466.91402958421156
 30
0.0
 11
1639.8500235881331
 21
445.66713798617445
 31
0.0
  0
LINE
  5
F1
330
17
100
AcDbEntity
  8
0
100
AcDbLine
 10
1639.8500235881331
 20
445.66713798617445
 30
0.0
 11
1618.6031319900917
 21
444.92518018226303
 31
0.0
  0
LINE
  5
F2
330
17
100
AcDbEntity
  8
0
100
AcDbLine
 10
1618.6031319900917
 20
444.92518018226303
 30
0.0
 11
1617.8611741861805
 21
466.17207178030014
 31
0.0
  0
LINE
  5
F3
330
17
100
AcDbEntity
  8
0
100
AcDbLine
 10
1617.8611741861805
 20
466.17207178030014
 30
0.0
 11
1617.8611741861805
 21
466.17207178030014
 31
0.0
  0
LINE
  5
F4
330
17
100
AcDbEntity
  8
0
100
AcDbLine
 10
1086.6888842350866
 20
447.6231266825142
 30
0.0
 11
1107.9357758331278
 21
448.36508448642564
 31
0.0
  0
LINE
  5
F5
330
17
100
AcDbEntity
  8
0
100
AcDbLine
 10
1107.9357758331278
 20
448.36508448642564
 30
0.0
 11
1108.677733637039
 21
427.11819288838853
 31
0.0
  0
LINE
  5
F6
330
17
100
AcDbEntity
  8
0
100
AcDbLine
 10
1108.677733637039
 20
427.11819288838853
 30
0.0
 11
1087.4308420389978
 21
426.3762350844771
 31
0.0
  0
LINE
  5
F7
330
17
100
AcDbEntity
  8
0
100
AcDbLine
 10
1087.4308420389978
 20
426.3762350844771
 30
0.0
 11
1086.6888842350866
 21
447.6231266825142
 31
0.0
  0
LINE
  5
F8
330
17
100
AcDbEntity
  8
0
100
AcDbLine
 10
1086.6888842350866
 20
447.6231266825142
 30
0.0
 11
1086.6888842350866
 21
447.6231266825142
 31
0.0
  0
LINE
  5
F9
330
17
100
AcDbEntity
  8
0
100
AcDbLine
 10
566.1400400830112
 20
429.4451604866839
 30
0.0
 11
587.3869316810559
 21
430.18711829059544
 31
0.0
  0
LINE
  5
FA
330
17
100
AcDbEntity
  8
0
100
AcDbLine
 10
587.3869316810559
 20
430.18711829059544
 30
0.0
 11
588.1288894849671
 21
408.9402266925583
 31
0.0
  0
LINE
  5
FB
330
17
100
AcDbEntity
  8
0
100
AcDbLine
 10
588.1288894849671
 20
408.9402266925583
 30
0.0
 11
566.8819978869224
 21
408.1982688886468
 31
0.0
  0
LINE
  5
FC
330
17
100
AcDbEntity
  8
0
100
AcDbLine
 10
566.8819978869224
 20
408.1982688886468
 30
0.0
 11
566.1400400830112
 21
429.4451604866839
 31
0.0
  0
LINE
  5
FD
330
17
100
AcDbEntity
  8
0
100
AcDbLine
 10
566.1400400830112
 20
429.4451604866839
 30
0.0
 11
566.1400400830112
 21
429.4451604866839
 31
0.0
  0
LINE
  5
FE
330
17
100
AcDbEntity
  8
0
100
AcDbLine
 10
1595.561220190842
 20
1104.7592025881745
 30
0.0
 11
1616.8081117888835
 21
1105.501160392086
 31
0.0
  0
LINE
  5
FF
330
17
100
AcDbEntity
  8
0
100
AcDbLine
 10
1616.8081117888835
 20
1105.501160392086
 30
0.0
 11
1617.550069592795
 21
1084.2542687940447
 31
0.0
  0
LINE
  5
100
330
17
100
AcDbEntity
  8
0
100
AcDbLine
 10
1617.550069592795
 20
1084.2542687940447
 30
0.0
 11
1596.3031779947535
 21
1083.5123109901333
 31
0.0
  0
LINE
  5
101
330
17
100
AcDbEntity
  8
0
100
AcDbLine
 10
1596.3031779947535
 20
1083.5123109901333
 30
0.0
 11
1595.561220190842
 21
1104.7592025881745
 31
0.0
  0
LINE
  5
102
330
17
100
AcDbEntity
  8
0
100
AcDbLine
 10
1595.561220190842
 20
1104.7592025881745
 30
0.0
 11
1595.561220190842
 21
1104.7592025881745
 31
0.0
  0
LINE
  5
103
330
17
100
AcDbEntity
  8
0
100
AcDbLine
 10
1064.388930239748
 20
1086.2102574903886
 30
0.0
 11
1085.6358218377893
 21
1086.9522152943
 31
0.0
  0
LINE
  5
104
330
17
100
AcDbEntity
  8
0
100
AcDbLine
 10
1085.6358218377893
 20
1086.9522152943
 30
0.0
 11
1086.3777796417007
 21
1065.7053236962588
 31
0.0
  0
LINE
  5
105
330
17
100
AcDbEntity
  8
0
100
AcDbLine
 10
1086.3777796417007
 20
1065.7053236962588
 30
0.0
 11
1065.1308880436595
 21
1064.9633658923474
 31
0.0
  0
LINE
  5
106
330
17
100
AcDbEntity
  8
0
100
AcDbLine
 10
1065.1308880436595
 20
1064.9633658923474
 30
0.0
 11
1064.388930239748
 21
1086.2102574903886
 31
0.0
  0
LINE
  5
107
330
17
100
AcDbEntity
  8
0
100
AcDbLine
 10
1064.388930239748
 20
1086.2102574903886
 30
0.0
 11
1064.388930239748
 21
1086.2102574903886
 31
0.0
  0
LINE
  5
108
330
17
100
AcDbEntity
  8
0
100
AcDbLine
 10
543.8400860876728
 20
1068.0322912945583
 30
0.0
 11
565.0869776857176
 21
1068.77424909847
 31
0.0
  0
LINE
  5
109
330
17
100
AcDbEntity
  8
0
100
AcDbLine
 10
565.0869776857176
 20
1068.77424909847
 30
0.0
 11
565.8289354896289
 21
1047.5273575004287
 31
0.0
  0
LINE
  5
10A
330
17
100
AcDbEntity
  8
0
100
AcDbLine
 10
565.8289354896289
 20
1047.5273575004287
 30
0.0
 11
544.5820438915841
 21
1046.785399696517
 31
0.0
  0
LINE
  5
10B
330
17
100
AcDbEntity
  8
0
100
AcDbLine
 10
544.5820438915841
 20
1046.785399696517
 30
0.0
 11
543.8400860876728
 21
1068.0322912945583
 31
0.0
  0
LINE
  5
10C
330
17
100
AcDbEntity
  8
0
100
AcDbLine
 10
543.8400860876728
 20
1068.0322912945583
 30
0.0
 11
543.8400860876728
 21
1068.0322912945583
 31
0.0
  0
LINE
  5
10D
330
17
100
AcDbEntity
  8
0
100
AcDbLine
 10
1572.8902872935482
 20
1753.9697791950675
 30
0.0
 11
1594.1371788915897
 21
1754.711736998979
 31
0.0
  0
LINE
  5
10E
330
17
100
AcDbEntity
  8
0
100
AcDbLine
 10
1594.1371788915897
 20
1754.711736998979
 30
0.0
 11
1594.8791366955008
 21
1733.4648454009373
 31
0.0
  0
LINE
  5
10F
330
17
100
AcDbEntity
  8
0
100
AcDbLine
 10
1594.8791366955008
 20
1733.4648454009373
 30
0.0
 11
1573.6322450974594
 21
1732.7228875970259
 31
0.0
  0
LINE
  5
110
330
17
100
AcDbEntity
  8
0
100
AcDbLine
 10
1573.6322450974594
 20
1732.7228875970259
 30
0.0
 11
1572.8902872935482
 21
1753.9697791950675
 31
0.0
  0
LINE
  5
111
330
17
100
AcDbEntity
  8
0
100
AcDbLine
 10
1572.8902872935482
 20
1753.9697791950675
 30
0.0
 11
1572.8902872935482
 21
1753.9697791950675
 31
0.0
  0
LINE
  5
112
330
17
100
AcDbEntity
  8
0
100
AcDbLine
 10
1041.7179973424543
 20
1735.4208340972816
 30
0.0
 11
1062.9648889404955
 21
1736.162791901193
 31
0.0
  0
LINE
  5
113
330
17
100
AcDbEntity
  8
0
100
AcDbLine
 10
1062.9648889404955
 20
1736.162791901193
 30
0.0
 11
1063.7068467444067
 21
1714.9159003031514
 31
0.0
  0
LINE
  5
114
330
17
100
AcDbEntity
  8
0
100
AcDbLine
 10
1063.7068467444067
 20
1714.9159003031514
 30
0.0
 11
1042.4599551463655
 21
1714.17394249924
 31
0.0
  0
LINE
  5
115
330
17
100
AcDbEntity
  8
0
100
AcDbLine
 10
1042.4599551463655
 20
1714.17394249924
 30
0.0
 11
1041.7179973424543
 21
1735.4208340972816
 31
0.0
  0
LINE
  5
116
330
17
100
AcDbEntity
  8
0
100
AcDbLine
 10
1041.7179973424543
 20
1735.4208340972816
 30
0.0
 11
1041.7179973424543
 21
1735.4208340972816
 31
0.0
  0
LINE
  5
117
330
17
100
AcDbEntity
  8
0
100
AcDbLine
 10
521.1691531903789
 20
1717.2428679014513
 30
0.0
 11
542.4160447884236
 21
1717.9848257053627
 31
0.0
  0
LINE
  5
118
330
17
100
AcDbEntity
  8
0
100
AcDbLine
 10
542.4160447884236
 20
1717.9848257053627
 30
0.0
 11
543.158002592335
 21
1696.737934107321
 31
0.0
  0
LINE
  5
119
330
17
100
AcDbEntity
  8
0
100
AcDbLine
 10
543.158002592335
 20
1696.737934107321
 30
0.0
 11
521.9111109942903
 21
1695.9959763034096
 31
0.0
  0
LINE
  5
11A
330
17
100
AcDbEntity
  8
0
100
AcDbLine
 10
521.9111109942903
 20
1695.9959763034096
 30
0.0
 11
521.1691531903789
 21
1717.2428679014513
 31
0.0
  0
LINE
  5
11B
330
17
100
AcDbEntity
  8
0
100
AcDbLine
 10
521.1691531903789
 20
1717.2428679014513
 30
0.0
 11
521.1691531903789
 21
1717.2428679014513
 31
0.0
  0
LINE
  5
11C
330
17
100
AcDbEntity
  8
0
100
AcDbLine
 10
735.3732150634513
 20
456.6277145160203
 30
0.0
 11
735.0846759174857
 21
464.8903945819252
 31
0.0
  0
LINE
  5
11D
330
17
100
AcDbEntity
  8
0
100
AcDbLine
 10
735.0846759174857
 20
464.8903945819252
 30
0.0
 11
740.9865902502753
 21
465.0964939719006
 31
0.0
  0
LINE
  5
11E
330
17
100
AcDbEntity
  8
0
100
AcDbLine
 10
740.9865902502753
 20
465.0964939719006
 30
0.0
 11
740.9865902502753
 21
465.0964939719006
 31
0.0
  0
LINE
  5
11F
330
17
100
AcDbEntity
  8
0
100
AcDbLine
 10
738.0356330838807
 20
464.9934442769129
 30
0.0
 11
734.9029223562546
 21
554.7025421353228
 31
0.0
  0
LINE
  5
120
330
17
100
AcDbEntity
  8
0
100
AcDbLine
 10
734.9029223562546
 20
554.7025421353228
 30
0.0
 11
731.9519651898596
 21
554.5994924403351
 31
0.0
  0
LINE
  5
121
330
17
100
AcDbEntity
  8
0
100
AcDbLine
 10
731.9519651898596
 20
554.5994924403351
 30
0.0
 11
735.0846759174857
 21
464.8903945819252
 31
0.0
  0
LINE
  5
122
330
17
100
AcDbEntity
  8
0
100
AcDbLine
 10
735.0846759174857
 20
464.8903945819252
 30
0.0
 11
738.0356330838807
 21
464.9934442769129
 31
0.0
  0
LINE
  5
123
330
17
100
AcDbEntity
  8
0
100
AcDbLine
 10
738.0356330838807
 20
464.9934442769129
 30
0.0
 11
738.0356330838807
 21
464.9934442769129
 31
0.0
  0
LINE
  5
124
330
17
100
AcDbEntity
  8
0
100
AcDbLine
 10
736.3287440368313
 20
598.4797578929561
 30
0.0
 11
737.8538795226492
 21
554.8055918303105
 31
0.0
  0
LINE
  5
125
330
17
100
AcDbEntity
  8
0
100
AcDbLine
 10
737.8538795226492
 20
554.8055918303105
 30
0.0
 11
731.9519651898596
 21
554.5994924403351
 31
0.0
  0
LINE
  5
126
330
17
100
AcDbEntity
  8
0
100
AcDbLine
 10
731.9519651898596
 20
554.5994924403351
 30
0.0
 11
731.6634260438941
 21
562.8621725062395
 31
0.0
  0
LINE
  5
127
330
17
100
AcDbEntity
  8
0
100
AcDbLine
 10
737.5653403766837
 20
563.0682718962149
 30
0.0
 11
737.5653403766837
 21
563.0682718962149
 31
0.0
  0
LINE
  5
128
330
17
100
AcDbEntity
  8
0
100
AcDbLine
 10
1440.6538582858022
 20
430.4382985390952
 30
0.0
 11
1448.9165383517081
 21
430.7268376850608
 31
0.0
  0
LINE
  5
129
330
17
100
AcDbEntity
  8
0
100
AcDbLine
 10
1448.9165383517081
 20
430.7268376850608
 30
0.0
 11
1449.1226377416835
 21
424.82492335227175
 31
0.0
  0
LINE
  5
12A
330
17
100
AcDbEntity
  8
0
100
AcDbLine
 10
1449.1226377416835
 20
424.82492335227175
 30
0.0
 11
1449.1226377416835
 21
424.82492335227175
 31
0.0
  0
LINE
  5
12B
330
17
100
AcDbEntity
  8
0
100
AcDbLine
 10
1449.0195880466958
 20
427.7758805186663
 30
0.0
 11
1538.7286859051042
 21
430.9085912462924
 31
0.0
  0
LINE
  5
12C
330
17
100
AcDbEntity
  8
0
100
AcDbLine
 10
1538.7286859051042
 20
430.9085912462924
 30
0.0
 11
1538.6256362101165
 21
433.8595484126869
 31
0.0
  0
LINE
  5
12D
330
17
100
AcDbEntity
  8
0
100
AcDbLine
 10
1538.6256362101165
 20
433.8595484126869
 30
0.0
 11
1448.9165383517081
 21
430.7268376850608
 31
0.0
  0
LINE
  5
12E
330
17
100
AcDbEntity
  8
0
100
AcDbLine
 10
1448.9165383517081
 20
430.7268376850608
 30
0.0
 11
1449.0195880466958
 21
427.7758805186663
 31
0.0
  0
LINE
  5
12F
330
17
100
AcDbEntity
  8
0
100
AcDbLine
 10
1449.0195880466958
 20
427.7758805186663
 30
0.0
 11
1449.0195880466958
 21
427.7758805186663
 31
0.0
  0
LINE
  5
130
330
17
100
AcDbEntity
  8
0
100
AcDbLine
 10
1720.610697050022
 20
434.30549529114023
 30
0.0
 11
1538.8317356000919
 21
427.95763407989784
 31
0.0
  0
LINE
  5
131
330
17
100
AcDbEntity
  8
0
100
AcDbLine
 10
1538.8317356000919
 20
427.95763407989784
 30
0.0
 11
1538.6256362101165
 21
433.8595484126869
 31
0.0
  0
LINE
  5
132
330
17
100
AcDbEntity
  8
0
100
AcDbLine
 10
1538.6256362101165
 20
433.8595484126869
 30
0.0
 11
1546.8883162760224
 21
434.1480875586525
 31
0.0
  0
LINE
  5
133
330
17
100
AcDbEntity
  8
0
100
AcDbLine
 10
1547.0944156659978
 20
428.24617322586346
 30
0.0
 11
1547.0944156659978
 21
428.24617322586346
 31
0.0
  0
LINE
  5
134
330
17
100
AcDbEntity
  8
0
100
AcDbLine
 10
1180.9696276430468
 20
421.36992538017773
 30
0.0
 11
1189.2323077089522
 21
421.6584645261431
 31
0.0
  0
LINE
  5
135
330
17
100
AcDbEntity
  8
0
100
AcDbLine
 10
1189.2323077089522
 20
421.6584645261431
 30
0.0
 11
1189.4384070989277
 21
415.7565501933541
 31
0.0
  0
LINE
  5
136
330
17
100
AcDbEntity
  8
0
100
AcDbLine
 10
1189.4384070989277
 20
415.7565501933541
 30
0.0
 11
1189.4384070989277
 21
415.7565501933541
 31
0.0
  0
LINE
  5
137
330
17
100
AcDbEntity
  8
0
100
AcDbLine
 10
1189.33535740394
 20
418.70750735974866
 30
0.0
 11
1279.0444552623485
 21
421.840218087375
 31
0.0
  0
LINE
  5
138
330
17
100
AcDbEntity
  8
0
100
AcDbLine
 10
1279.0444552623485
 20
421.840218087375
 30
0.0
 11
1278.9414055673608
 21
424.79117525376944
 31
0.0
  0
LINE
  5
139
330
17
100
AcDbEntity
  8
0
100
AcDbLine
 10
1278.9414055673608
 20
424.79117525376944
 30
0.0
 11
1189.2323077089522
 21
421.6584645261431
 31
0.0
  0
LINE
  5
13A
330
17
100
AcDbEntity
  8
0
100
AcDbLine
 10
1189.2323077089522
 20
421.6584645261431
 30
0.0
 11
1189.33535740394
 21
418.70750735974866
 31
0.0
  0
LINE
  5
13B
330
17
100
AcDbEntity
  8
0
100
AcDbLine
 10
1189.33535740394
 20
418.70750735974866
 30
0.0
 11
1189.33535740394
 21
418.70750735974866
 31
0.0
  0
LINE
  5
13C
330
17
100
AcDbEntity
  8
0
100
AcDbLine
 10
1449.1226377416835
 20
424.82492335227175
 30
0.0
 11
1279.1475049573362
 21
418.8892609209804
 31
0.0
  0
LINE
  5
13D
330
17
100
AcDbEntity
  8
0
100
AcDbLine
 10
1279.1475049573362
 20
418.8892609209804
 30
0.0
 11
1278.9414055673608
 21
424.79117525376944
 31
0.0
  0
LINE
  5
13E
330
17
100
AcDbEntity
  8
0
100
AcDbLine
 10
1278.9414055673608
 20
424.79117525376944
 30
0.0
 11
1287.2040856332665
 21
425.0797143997348
 31
0.0
  0
LINE
  5
13F
330
17
100
AcDbEntity
  8
0
100
AcDbLine
 10
1287.4101850232419
 20
419.1778000669458
 30
0.0
 11
1287.4101850232419
 21
419.1778000669458
 31
0.0
  0
LINE
  5
140
330
17
100
AcDbEntity
  8
0
100
AcDbLine
 10
1971.8261482368969
 20
448.9872436368811
 30
0.0
 11
1980.0888283028025
 21
449.2757827828467
 31
0.0
  0
LINE
  5
141
330
17
100
AcDbEntity
  8
0
100
AcDbLine
 10
1980.0888283028025
 20
449.2757827828467
 30
0.0
 11
1980.294927692778
 21
443.37386845005767
 31
0.0
  0
LINE
  5
142
330
17
100
AcDbEntity
  8
0
100
AcDbLine
 10
1980.294927692778
 20
443.37386845005767
 30
0.0
 11
1980.294927692778
 21
443.37386845005767
 31
0.0
  0
LINE
  5
143
330
17
100
AcDbEntity
  8
0
100
AcDbLine
 10
1980.1918779977902
 20
446.32482561645224
 30
0.0
 11
2068.689116113197
 21
449.4152172693366
 31
0.0
  0
LINE
  5
144
330
17
100
AcDbEntity
  8
0
100
AcDbLine
 10
2068.5860664182096
 20
452.36617443573107
 30
0.0
 11
1980.0888283028025
 21
449.2757827828467
 31
0.0
  0
LINE
  5
145
330
17
100
AcDbEntity
  8
0
100
AcDbLine
 10
1980.0888283028025
 20
449.2757827828467
 30
0.0
 11
1980.1918779977902
 21
446.32482561645224
 31
0.0
  0
LINE
  5
146
330
17
100
AcDbEntity
  8
0
100
AcDbLine
 10
1980.1918779977902
 20
446.32482561645224
 30
0.0
 11
1980.1918779977902
 21
446.32482561645224
 31
0.0
  0
LINE
  5
147
330
17
100
AcDbEntity
  8
0
100
AcDbLine
 10
1712.1419175941408
 20
439.91887047796365
 30
0.0
 11
1720.4045976600466
 21
440.20740962392927
 31
0.0
  0
LINE
  5
148
330
17
100
AcDbEntity
  8
0
100
AcDbLine
 10
1720.4045976600466
 20
440.20740962392927
 30
0.0
 11
1720.610697050022
 21
434.30549529114023
 31
0.0
  0
LINE
  5
149
330
17
100
AcDbEntity
  8
0
100
AcDbLine
 10
1720.610697050022
 20
434.30549529114023
 30
0.0
 11
1720.610697050022
 21
434.30549529114023
 31
0.0
  0
LINE
  5
14A
330
17
100
AcDbEntity
  8
0
100
AcDbLine
 10
1720.5076473550344
 20
437.2564524575348
 30
0.0
 11
1810.2167452134436
 21
440.3891631851609
 31
0.0
  0
LINE
  5
14B
330
17
100
AcDbEntity
  8
0
100
AcDbLine
 10
1810.2167452134436
 20
440.3891631851609
 30
0.0
 11
1810.1136955184559
 21
443.34012035155536
 31
0.0
  0
LINE
  5
14C
330
17
100
AcDbEntity
  8
0
100
AcDbLine
 10
1810.1136955184559
 20
443.34012035155536
 30
0.0
 11
1720.4045976600466
 21
440.20740962392927
 31
0.0
  0
LINE
  5
14D
330
17
100
AcDbEntity
  8
0
100
AcDbLine
 10
1720.4045976600466
 20
440.20740962392927
 30
0.0
 11
1720.5076473550344
 21
437.2564524575348
 31
0.0
  0
LINE
  5
14E
330
17
100
AcDbEntity
  8
0
100
AcDbLine
 10
1720.5076473550344
 20
437.2564524575348
 30
0.0
 11
1720.5076473550344
 21
437.2564524575348
 31
0.0
  0
LINE
  5
14F
330
17
100
AcDbEntity
  8
0
100
AcDbLine
 10
1980.294927692778
 20
443.37386845005767
 30
0.0
 11
1810.3197949084313
 21
437.4382060187663
 31
0.0
  0
LINE
  5
150
330
17
100
AcDbEntity
  8
0
100
AcDbLine
 10
1810.3197949084313
 20
437.4382060187663
 30
0.0
 11
1810.1136955184559
 21
443.34012035155536
 31
0.0
  0
LINE
  5
151
330
17
100
AcDbEntity
  8
0
100
AcDbLine
 10
1810.1136955184559
 20
443.34012035155536
 30
0.0
 11
1818.3763755843606
 21
443.62865949752074
 31
0.0
  0
LINE
  5
152
330
17
100
AcDbEntity
  8
0
100
AcDbLine
 10
1818.582474974336
 20
437.7267451647317
 30
0.0
 11
1818.582474974336
 21
437.7267451647317
 31
0.0
  0
LINE
  5
153
330
17
100
AcDbEntity
  8
0
100
AcDbLine
 10
821.6176316027409
 20
761.0041214920063
 30
0.0
 11
821.5795399928473
 21
761.5300106461118
 31
0.0
  0
LINE
  5
154
330
17
100
AcDbEntity
  8
0
100
AcDbLine
 10
821.5795399928473
 20
761.5300106461118
 30
0.0
 11
821.5022551491182
 21
762.0515827179108
 31
0.0
  0
LINE
  5
155
330
17
100
AcDbEntity
  8
0
100
AcDbLine
 10
821.5022551491182
 20
762.0515827179108
 30
0.0
 11
821.3862092797494
 21
762.5659208648074
 31
0.0
  0
LINE
  5
156
330
17
100
AcDbEntity
  8
0
100
AcDbLine
 10
821.3862092797494
 20
762.5659208648074
 30
0.0
 11
821.232051360315
 21
763.0701486992494
 31
0.0
  0
LINE
  5
157
330
17
100
AcDbEntity
  8
0
100
AcDbLine
 10
821.232051360315
 20
763.0701486992494
 30
0.0
 11
821.0406435044325
 21
763.561446374653
 31
0.0
  0
LINE
  5
158
330
17
100
AcDbEntity
  8
0
100
AcDbLine
 10
821.0406435044325
 20
763.561446374653
 30
0.0
 11
820.8130561424749
 21
764.037066355129
 31
0.0
  0
LINE
  5
159
330
17
100
AcDbEntity
  8
0
100
AcDbLine
 10
820.8130561424749
 20
764.037066355129
 30
0.0
 11
820.5505620352875
 21
764.4943487808163
 31
0.0
  0
LINE
  5
15A
330
17
100
AcDbEntity
  8
0
100
AcDbLine
 10
820.5505620352875
 20
764.4943487808163
 30
0.0
 11
820.2546291563956
 21
764.9307363428996
 31
0.0
  0
LINE
  5
15B
330
17
100
AcDbEntity
  8
0
100
AcDbLine
 10
820.2546291563956
 20
764.9307363428996
 30
0.0
 11
819.9269124824993
 21
765.3437885851179
 31
0.0
  0
LINE
  5
15C
330
17
100
AcDbEntity
  8
0
100
AcDbLine
 10
819.9269124824993
 20
765.3437885851179
 30
0.0
 11
819.5692447381734
 21
765.7311955517807
 31
0.0
  0
LINE
  5
15D
330
17
100
AcDbEntity
  8
0
100
AcDbLine
 10
819.5692447381734
 20
765.7311955517807
 30
0.0
 11
819.1836261465276
 21
766.0907907059857
 31
0.0
  0
LINE
  5
15E
330
17
100
AcDbEntity
  8
0
100
AcDbLine
 10
819.1836261465276
 20
766.0907907059857
 30
0.0
 11
818.7722132431479
 21
766.4205630457645
 31
0.0
  0
LINE
  5
15F
330
17
100
AcDbEntity
  8
0
100
AcDbLine
 10
818.7722132431479
 20
766.4205630457645
 30
0.0
 11
818.3373068158742
 21
766.7186683504249
 31
0.0
  0
LINE
  5
160
330
17
100
AcDbEntity
  8
0
100
AcDbLine
 10
818.3373068158742
 20
766.7186683504249
 30
0.0
 11
817.8813390378625
 21
766.9834394941804
 31
0.0
  0
LINE
  5
161
330
17
100
AcDbEntity
  8
0
100
AcDbLine
 10
817.8813390378625
 20
766.9834394941804
 30
0.0
 11
817.4068598658854
 21
767.2133957693942
 31
0.0
  0
LINE
  5
162
330
17
100
AcDbEntity
  8
0
100
AcDbLine
 10
817.4068598658854
 20
767.2133957693942
 30
0.0
 11
816.9165227799388
 21
767.4072511672965
 31
0.0
  0
LINE
  5
163
330
17
100
AcDbEntity
  8
0
100
AcDbLine
 10
816.9165227799388
 20
767.4072511672965
 30
0.0
 11
816.4130699439065
 21
767.5639215698675
 31
0.0
  0
LINE
  5
164
330
17
100
AcDbEntity
  8
0
100
AcDbLine
 10
816.4130699439065
 20
767.5639215698675
 30
0.0
 11
815.8993168702674
 21
767.6825308126638
 31
0.0
  0
LINE
  5
165
330
17
100
AcDbEntity
  8
0
100
AcDbLine
 10
815.8993168702674
 20
767.6825308126638
 30
0.0
 11
815.3781366746063
 21
767.7624155846875
 31
0.0
  0
LINE
  5
166
330
17
100
AcDbEntity
  8
0
100
AcDbLine
 10
815.3781366746063
 20
767.7624155846875
 30
0.0
 11
814.8524440079879
 21
767.8031291378893
 31
0.0
  0
LINE
  5
167
330
17
100
AcDbEntity
  8
0
100
AcDbLine
 10
814.8524440079879
 20
767.8031291378893
 30
0.0
 11
814.3251787570449
 21
767.8044437855651
 31
0.0
  0
LINE
  5
168
330
17
100
AcDbEntity
  8
0
100
AcDbLine
 10
814.3251787570449
 20
767.8044437855651
 30
0.0
 11
813.7992896029391
 21
767.7663521756714
 31
0.0
  0
LINE
  5
169
330
17
100
AcDbEntity
  8
0
100
AcDbLine
 10
813.7992896029391
 20
767.7663521756714
 30
0.0
 11
813.2777175311402
 21
767.6890673319424
 31
0.0
  0
LINE
  5
16A
330
17
100
AcDbEntity
  8
0
100
AcDbLine
 10
813.2777175311402
 20
767.6890673319424
 30
0.0
 11
812.7633793842439
 21
767.5730214625738
 31
0.0
  0
LINE
  5
16B
330
17
100
AcDbEntity
  8
0
100
AcDbLine
 10
812.7633793842439
 20
767.5730214625738
 30
0.0
 11
812.2591515498016
 21
767.4188635431394
 31
0.0
  0
LINE
  5
16C
330
17
100
AcDbEntity
  8
0
100
AcDbLine
 10
812.2591515498016
 20
767.4188635431394
 30
0.0
 11
811.767853874398
 21
767.2274556872568
 31
0.0
  0
LINE
  5
16D
330
17
100
AcDbEntity
  8
0
100
AcDbLine
 10
811.767853874398
 20
767.2274556872568
 30
0.0
 11
811.2922338939226
 21
766.999868325299
 31
0.0
  0
LINE
  5
16E
330
17
100
AcDbEntity
  8
0
100
AcDbLine
 10
811.2922338939226
 20
766.999868325299
 30
0.0
 11
810.834951468235
 21
766.7373742181119
 31
0.0
  0
LINE
  5
16F
330
17
100
AcDbEntity
  8
0
100
AcDbLine
 10
810.834951468235
 20
766.7373742181119
 30
0.0
 11
810.3985639061514
 21
766.4414413392202
 31
0.0
  0
LINE
  5
170
330
17
100
AcDbEntity
  8
0
100
AcDbLine
 10
810.3985639061514
 20
766.4414413392202
 30
0.0
 11
809.985511663934
 21
766.1137246653241
 31
0.0
  0
LINE
  5
171
330
17
100
AcDbEntity
  8
0
100
AcDbLine
 10
809.985511663934
 20
766.1137246653241
 30
0.0
 11
809.5981046972706
 21
765.7560569209979
 31
0.0
  0
LINE
  5
172
330
17
100
AcDbEntity
  8
0
100
AcDbLine
 10
809.5981046972706
 20
765.7560569209979
 30
0.0
 11
809.2385095430657
 21
765.370438329352
 31
0.0
  0
LINE
  5
173
330
17
100
AcDbEntity
  8
0
100
AcDbLine
 10
809.2385095430657
 20
765.370438329352
 30
0.0
 11
808.908737203287
 21
764.9590254259729
 31
0.0
  0
LINE
  5
174
330
17
100
AcDbEntity
  8
0
100
AcDbLine
 10
808.908737203287
 20
764.9590254259729
 30
0.0
 11
808.6106318986266
 21
764.5241189986986
 31
0.0
  0
LINE
  5
175
330
17
100
AcDbEntity
  8
0
100
AcDbLine
 10
808.6106318986266
 20
764.5241189986986
 30
0.0
 11
808.3458607548706
 21
764.0681512206871
 31
0.0
  0
LINE
  5
176
330
17
100
AcDbEntity
  8
0
100
AcDbLine
 10
808.3458607548706
 20
764.0681512206871
 30
0.0
 11
808.1159044796567
 21
763.59367204871
 31
0.0
  0
LINE
  5
177
330
17
100
AcDbEntity
  8
0
100
AcDbLine
 10
808.1159044796567
 20
763.59367204871
 30
0.0
 11
807.9220490817544
 21
763.1033349627629
 31
0.0
  0
LINE
  5
178
330
17
100
AcDbEntity
  8
0
100
AcDbLine
 10
807.9220490817544
 20
763.1033349627629
 30
0.0
 11
807.7653786791836
 21
762.5998821267309
 31
0.0
  0
LINE
  5
179
330
17
100
AcDbEntity
  8
0
100
AcDbLine
 10
807.7653786791836
 20
762.5998821267309
 30
0.0
 11
807.6467694363876
 21
762.0861290530916
 31
0.0
  0
LINE
  5
17A
330
17
100
AcDbEntity
  8
0
100
AcDbLine
 10
807.6467694363876
 20
762.0861290530916
 30
0.0
 11
807.5668846643637
 21
761.5649488574306
 31
0.0
  0
LINE
  5
17B
330
17
100
AcDbEntity
  8
0
100
AcDbLine
 10
807.5668846643637
 20
761.5649488574306
 30
0.0
 11
807.5261711111617
 21
761.039256190812
 31
0.0
  0
LINE
  5
17C
330
17
100
AcDbEntity
  8
0
100
AcDbLine
 10
807.5261711111617
 20
761.039256190812
 30
0.0
 11
807.5248564634858
 21
760.5119909398694
 31
0.0
  0
LINE
  5
17D
330
17
100
AcDbEntity
  8
0
100
AcDbLine
 10
807.5248564634858
 20
760.5119909398694
 30
0.0
 11
807.5629480733796
 21
759.9861017857634
 31
0.0
  0
LINE
  5
17E
330
17
100
AcDbEntity
  8
0
100
AcDbLine
 10
807.5629480733796
 20
759.9861017857634
 30
0.0
 11
807.6402329171086
 21
759.4645297139649
 31
0.0
  0
LINE
  5
17F
330
17
100
AcDbEntity
  8
0
100
AcDbLine
 10
807.6402329171086
 20
759.4645297139649
 30
0.0
 11
807.7562787864775
 21
758.9501915670678
 31
0.0
  0
LINE
  5
180
330
17
100
AcDbEntity
  8
0
100
AcDbLine
 10
807.7562787864775
 20
758.9501915670678
 30
0.0
 11
807.9104367059117
 21
758.4459637326262
 31
0.0
  0
LINE
  5
181
330
17
100
AcDbEntity
  8
0
100
AcDbLine
 10
807.9104367059117
 20
758.4459637326262
 30
0.0
 11
808.1018445617941
 21
757.9546660572227
 31
0.0
  0
LINE
  5
182
330
17
100
AcDbEntity
  8
0
100
AcDbLine
 10
808.1018445617941
 20
757.9546660572227
 30
0.0
 11
808.3294319237518
 21
757.4790460767472
 31
0.0
  0
LINE
  5
183
330
17
100
AcDbEntity
  8
0
100
AcDbLine
 10
808.3294319237518
 20
757.4790460767472
 30
0.0
 11
808.5919260309391
 21
757.0217636510594
 31
0.0
  0
LINE
  5
184
330
17
100
AcDbEntity
  8
0
100
AcDbLine
 10
808.5919260309391
 20
757.0217636510594
 30
0.0
 11
808.8878589098313
 21
756.5853760889755
 31
0.0
  0
LINE
  5
185
330
17
100
AcDbEntity
  8
0
100
AcDbLine
 10
808.8878589098313
 20
756.5853760889755
 30
0.0
 11
809.2155755837276
 21
756.1723238467583
 31
0.0
  0
LINE
  5
186
330
17
100
AcDbEntity
  8
0
100
AcDbLine
 10
809.2155755837276
 20
756.1723238467583
 30
0.0
 11
809.5732433280533
 21
755.7849168800954
 31
0.0
  0
LINE
  5
187
330
17
100
AcDbEntity
  8
0
100
AcDbLine
 10
809.5732433280533
 20
755.7849168800954
 30
0.0
 11
809.9588619196993
 21
755.42532172589
 31
0.0
  0
LINE
  5
188
330
17
100
AcDbEntity
  8
0
100
AcDbLine
 10
809.9588619196993
 20
755.42532172589
 30
0.0
 11
810.3702748230791
 21
755.0955493861111
 31
0.0
  0
LINE
  5
189
330
17
100
AcDbEntity
  8
0
100
AcDbLine
 10
810.3702748230791
 20
755.0955493861111
 30
0.0
 11
810.8051812503525
 21
754.797444081451
 31
0.0
  0
LINE
  5
18A
330
17
100
AcDbEntity
  8
0
100
AcDbLine
 10
810.8051812503525
 20
754.797444081451
 30
0.0
 11
811.261149028364
 21
754.5326729376952
 31
0.0
  0
LINE
  5
18B
330
17
100
AcDbEntity
  8
0
100
AcDbLine
 10
811.261149028364
 20
754.5326729376952
 30
0.0
 11
811.7356282003416
 21
754.3027166624815
 31
0.0
  0
LINE
  5
18C
330
17
100
AcDbEntity
  8
0
100
AcDbLine
 10
811.7356282003416
 20
754.3027166624815
 30
0.0
 11
812.2259652862881
 21
754.1088612645786
 31
0.0
  0
LINE
  5
18D
330
17
100
AcDbEntity
  8
0
100
AcDbLine
 10
812.2259652862881
 20
754.1088612645786
 30
0.0
 11
812.7294181223202
 21
753.9521908620077
 31
0.0
  0
LINE
  5
18E
330
17
100
AcDbEntity
  8
0
100
AcDbLine
 10
812.7294181223202
 20
753.9521908620077
 30
0.0
 11
813.2431711959596
 21
753.8335816192119
 31
0.0
  0
LINE
  5
18F
330
17
100
AcDbEntity
  8
0
100
AcDbLine
 10
813.2431711959596
 20
753.8335816192119
 30
0.0
 11
813.7643513916204
 21
753.7536968471882
 31
0.0
  0
LINE
  5
190
330
17
100
AcDbEntity
  8
0
100
AcDbLine
 10
813.7643513916204
 20
753.7536968471882
 30
0.0
 11
814.290044058239
 21
753.7129832939861
 31
0.0
  0
LINE
  5
191
330
17
100
AcDbEntity
  8
0
100
AcDbLine
 10
814.290044058239
 20
753.7129832939861
 30
0.0
 11
814.8173093091818
 21
753.71166864631
 31
0.0
  0
LINE
  5
192
330
17
100
AcDbEntity
  8
0
100
AcDbLine
 10
814.8173093091818
 20
753.71166864631
 30
0.0
 11
815.3431984632878
 21
753.7497602562039
 31
0.0
  0
LINE
  5
193
330
17
100
AcDbEntity
  8
0
100
AcDbLine
 10
815.3431984632878
 20
753.7497602562039
 30
0.0
 11
815.8647705350864
 21
753.8270450999332
 31
0.0
  0
LINE
  5
194
330
17
100
AcDbEntity
  8
0
100
AcDbLine
 10
815.8647705350864
 20
753.8270450999332
 30
0.0
 11
816.3791086819831
 21
753.9430909693019
 31
0.0
  0
LINE
  5
195
330
17
100
AcDbEntity
  8
0
100
AcDbLine
 10
816.3791086819831
 20
753.9430909693019
 30
0.0
 11
816.8833365164252
 21
754.0972488887357
 31
0.0
  0
LINE
  5
196
330
17
100
AcDbEntity
  8
0
100
AcDbLine
 10
816.8833365164252
 20
754.0972488887357
 30
0.0
 11
817.3746341918288
 21
754.2886567446184
 31
0.0
  0
LINE
  5
197
330
17
100
AcDbEntity
  8
0
100
AcDbLine
 10
817.3746341918288
 20
754.2886567446184
 30
0.0
 11
817.8502541723044
 21
754.5162441065768
 31
0.0
  0
LINE
  5
198
330
17
100
AcDbEntity
  8
0
100
AcDbLine
 10
817.8502541723044
 20
754.5162441065768
 30
0.0
 11
818.3075365979915
 21
754.7787382137637
 31
0.0
  0
LINE
  5
199
330
17
100
AcDbEntity
  8
0
100
AcDbLine
 10
818.3075365979915
 20
754.7787382137637
 30
0.0
 11
818.7439241600753
 21
755.0746710926555
 31
0.0
  0
LINE
  5
19A
330
17
100
AcDbEntity
  8
0
100
AcDbLine
 10
818.7439241600753
 20
755.0746710926555
 30
0.0
 11
819.156976402293
 21
755.4023877665516
 31
0.0
  0
LINE
  5
19B
330
17
100
AcDbEntity
  8
0
100
AcDbLine
 10
819.156976402293
 20
755.4023877665516
 30
0.0
 11
819.5443833689562
 21
755.7600555108777
 31
0.0
  0
LINE
  5
19C
330
17
100
AcDbEntity
  8
0
100
AcDbLine
 10
819.5443833689562
 20
755.7600555108777
 30
0.0
 11
819.9039785231611
 21
756.145674102524
 31
0.0
  0
LINE
  5
19D
330
17
100
AcDbEntity
  8
0
100
AcDbLine
 10
819.9039785231611
 20
756.145674102524
 30
0.0
 11
820.2337508629399
 21
756.5570870059033
 31
0.0
  0
LINE
  5
19E
330
17
100
AcDbEntity
  8
0
100
AcDbLine
 10
820.2337508629399
 20
756.5570870059033
 30
0.0
 11
820.5318561676003
 21
756.9919934331766
 31
0.0
  0
LINE
  5
19F
330
17
100
AcDbEntity
  8
0
100
AcDbLine
 10
820.5318561676003
 20
756.9919934331766
 30
0.0
 11
820.796627311356
 21
757.4479612111885
 31
0.0
  0
LINE
  5
1A0
330
17
100
AcDbEntity
  8
0
100
AcDbLine
 10
820.796627311356
 20
757.4479612111885
 30
0.0
 11
821.02658358657
 21
757.9224403831663
 31
0.0
  0
LINE
  5
1A1
330
17
100
AcDbEntity
  8
0
100
AcDbLine
 10
821.02658358657
 20
757.9224403831663
 30
0.0
 11
821.2204389844723
 21
758.4127774691127
 31
0.0
  0
LINE
  5
1A2
330
17
100
AcDbEntity
  8
0
100
AcDbLine
 10
821.2204389844723
 20
758.4127774691127
 30
0.0
 11
821.3771093870431
 21
758.9162303051447
 31
0.0
  0
LINE
  5
1A3
330
17
100
AcDbEntity
  8
0
100
AcDbLine
 10
821.3771093870431
 20
758.9162303051447
 30
0.0
 11
821.4957186298394
 21
759.4299833787836
 31
0.0
  0
LINE
  5
1A4
330
17
100
AcDbEntity
  8
0
100
AcDbLine
 10
821.4957186298394
 20
759.4299833787836
 30
0.0
 11
821.5756034018632
 21
759.9511635744451
 31
0.0
  0
LINE
  5
1A5
330
17
100
AcDbEntity
  8
0
100
AcDbLine
 10
821.5756034018632
 20
759.9511635744451
 30
0.0
 11
821.6163169550653
 21
760.4768562410632
 31
0.0
  0
LINE
  5
1A6
330
17
100
AcDbEntity
  8
0
100
AcDbLine
 10
821.6163169550653
 20
760.4768562410632
 30
0.0
 11
821.6176316027409
 21
761.0041214920063
 31
0.0
  0
LINE
  5
1A7
330
17
100
AcDbEntity
  8
0
100
AcDbLine
 10
641.6373011529809
 20
1109.2657587841018
 30
0.0
 11
641.5992095430871
 21
1109.791647938207
 31
0.0
  0
LINE
  5
1A8
330
17
100
AcDbEntity
  8
0
100
AcDbLine
 10
641.5992095430871
 20
1109.791647938207
 30
0.0
 11
641.5219246993579
 21
1110.3132200100063
 31
0.0
  0
LINE
  5
1A9
330
17
100
AcDbEntity
  8
0
100
AcDbLine
 10
641.5219246993579
 20
1110.3132200100063
 30
0.0
 11
641.4058788299892
 21
1110.8275581569026
 31
0.0
  0
LINE
  5
1AA
330
17
100
AcDbEntity
  8
0
100
AcDbLine
 10
641.4058788299892
 20
1110.8275581569026
 30
0.0
 11
641.2517209105546
 21
1111.3317859913445
 31
0.0
  0
LINE
  5
1AB
330
17
100
AcDbEntity
  8
0
100
AcDbLine
 10
641.2517209105546
 20
1111.3317859913445
 30
0.0
 11
641.0603130546723
 21
1111.823083666748
 31
0.0
  0
LINE
  5
1AC
330
17
100
AcDbEntity
  8
0
100
AcDbLine
 10
641.0603130546723
 20
1111.823083666748
 30
0.0
 11
640.8327256927146
 21
1112.2987036472246
 31
0.0
  0
LINE
  5
1AD
330
17
100
AcDbEntity
  8
0
100
AcDbLine
 10
640.8327256927146
 20
1112.2987036472246
 30
0.0
 11
640.5702315855273
 21
1112.7559860729118
 31
0.0
  0
LINE
  5
1AE
330
17
100
AcDbEntity
  8
0
100
AcDbLine
 10
640.5702315855273
 20
1112.7559860729118
 30
0.0
 11
640.2742987066354
 21
1113.1923736349947
 31
0.0
  0
LINE
  5
1AF
330
17
100
AcDbEntity
  8
0
100
AcDbLine
 10
640.2742987066354
 20
1113.1923736349947
 30
0.0
 11
639.9465820327392
 21
1113.6054258772124
 31
0.0
  0
LINE
  5
1B0
330
17
100
AcDbEntity
  8
0
100
AcDbLine
 10
639.9465820327392
 20
1113.6054258772124
 30
0.0
 11
639.5889142884131
 21
1113.992832843876
 31
0.0
  0
LINE
  5
1B1
330
17
100
AcDbEntity
  8
0
100
AcDbLine
 10
639.5889142884131
 20
1113.992832843876
 30
0.0
 11
639.2032956967673
 21
1114.3524279980813
 31
0.0
  0
LINE
  5
1B2
330
17
100
AcDbEntity
  8
0
100
AcDbLine
 10
639.2032956967673
 20
1114.3524279980813
 30
0.0
 11
638.7918827933877
 21
1114.6822003378593
 31
0.0
  0
LINE
  5
1B3
330
17
100
AcDbEntity
  8
0
100
AcDbLine
 10
638.7918827933877
 20
1114.6822003378593
 30
0.0
 11
638.3569763661139
 21
1114.9803056425203
 31
0.0
  0
LINE
  5
1B4
330
17
100
AcDbEntity
  8
0
100
AcDbLine
 10
638.3569763661139
 20
1114.9803056425203
 30
0.0
 11
637.9010085881024
 21
1115.2450767862756
 31
0.0
  0
LINE
  5
1B5
330
17
100
AcDbEntity
  8
0
100
AcDbLine
 10
637.9010085881024
 20
1115.2450767862756
 30
0.0
 11
637.426529416125
 21
1115.4750330614897
 31
0.0
  0
LINE
  5
1B6
330
17
100
AcDbEntity
  8
0
100
AcDbLine
 10
637.426529416125
 20
1115.4750330614897
 30
0.0
 11
636.9361923301783
 21
1115.6688884593916
 31
0.0
  0
LINE
  5
1B7
330
17
100
AcDbEntity
  8
0
100
AcDbLine
 10
636.9361923301783
 20
1115.6688884593916
 30
0.0
 11
636.4327394941463
 21
1115.8255588619631
 31
0.0
  0
LINE
  5
1B8
330
17
100
AcDbEntity
  8
0
100
AcDbLine
 10
636.4327394941463
 20
1115.8255588619631
 30
0.0
 11
635.9189864205069
 21
1115.9441681047592
 31
0.0
  0
LINE
  5
1B9
330
17
100
AcDbEntity
  8
0
100
AcDbLine
 10
635.9189864205069
 20
1115.9441681047592
 30
0.0
 11
635.3978062248459
 21
1116.0240528767831
 31
0.0
  0
LINE
  5
1BA
330
17
100
AcDbEntity
  8
0
100
AcDbLine
 10
635.3978062248459
 20
1116.0240528767831
 30
0.0
 11
634.8721135582277
 21
1116.0647664299847
 31
0.0
  0
LINE
  5
1BB
330
17
100
AcDbEntity
  8
0
100
AcDbLine
 10
634.8721135582277
 20
1116.0647664299847
 30
0.0
 11
634.3448483072846
 21
1116.0660810776603
 31
0.0
  0
LINE
  5
1BC
330
17
100
AcDbEntity
  8
0
100
AcDbLine
 10
634.3448483072846
 20
1116.0660810776603
 30
0.0
 11
633.8189591531789
 21
1116.027989467767
 31
0.0
  0
LINE
  5
1BD
330
17
100
AcDbEntity
  8
0
100
AcDbLine
 10
633.8189591531789
 20
1116.027989467767
 30
0.0
 11
633.2973870813801
 21
1115.950704624038
 31
0.0
  0
LINE
  5
1BE
330
17
100
AcDbEntity
  8
0
100
AcDbLine
 10
633.2973870813801
 20
1115.950704624038
 30
0.0
 11
632.7830489344836
 21
1115.8346587546694
 31
0.0
  0
LINE
  5
1BF
330
17
100
AcDbEntity
  8
0
100
AcDbLine
 10
632.7830489344836
 20
1115.8346587546694
 30
0.0
 11
632.2788211000416
 21
1115.680500835235
 31
0.0
  0
LINE
  5
1C0
330
17
100
AcDbEntity
  8
0
100
AcDbLine
 10
632.2788211000416
 20
1115.680500835235
 30
0.0
 11
631.7875234246378
 21
1115.4890929793519
 31
0.0
  0
LINE
  5
1C1
330
17
100
AcDbEntity
  8
0
100
AcDbLine
 10
631.7875234246378
 20
1115.4890929793519
 30
0.0
 11
631.3119034441622
 21
1115.2615056173945
 31
0.0
  0
LINE
  5
1C2
330
17
100
AcDbEntity
  8
0
100
AcDbLine
 10
631.3119034441622
 20
1115.2615056173945
 30
0.0
 11
630.8546210184749
 21
1114.999011510207
 31
0.0
  0
LINE
  5
1C3
330
17
100
AcDbEntity
  8
0
100
AcDbLine
 10
630.8546210184749
 20
1114.999011510207
 30
0.0
 11
630.4182334563914
 21
1114.7030786313157
 31
0.0
  0
LINE
  5
1C4
330
17
100
AcDbEntity
  8
0
100
AcDbLine
 10
630.4182334563914
 20
1114.7030786313157
 30
0.0
 11
630.0051812141736
 21
1114.3753619574188
 31
0.0
  0
LINE
  5
1C5
330
17
100
AcDbEntity
  8
0
100
AcDbLine
 10
630.0051812141736
 20
1114.3753619574188
 30
0.0
 11
629.6177742475104
 21
1114.0176942130936
 31
0.0
  0
LINE
  5
1C6
330
17
100
AcDbEntity
  8
0
100
AcDbLine
 10
629.6177742475104
 20
1114.0176942130936
 30
0.0
 11
629.2581790933053
 21
1113.6320756214473
 31
0.0
  0
LINE
  5
1C7
330
17
100
AcDbEntity
  8
0
100
AcDbLine
 10
629.2581790933053
 20
1113.6320756214473
 30
0.0
 11
628.9284067535266
 21
1113.2206627180674
 31
0.0
  0
LINE
  5
1C8
330
17
100
AcDbEntity
  8
0
100
AcDbLine
 10
628.9284067535266
 20
1113.2206627180674
 30
0.0
 11
628.6303014488664
 21
1112.7857562907936
 31
0.0
  0
LINE
  5
1C9
330
17
100
AcDbEntity
  8
0
100
AcDbLine
 10
628.6303014488664
 20
1112.7857562907936
 30
0.0
 11
628.3655303051106
 21
1112.3297885127827
 31
0.0
  0
LINE
  5
1CA
330
17
100
AcDbEntity
  8
0
100
AcDbLine
 10
628.3655303051106
 20
1112.3297885127827
 30
0.0
 11
628.1355740298966
 21
1111.8553093408054
 31
0.0
  0
LINE
  5
1CB
330
17
100
AcDbEntity
  8
0
100
AcDbLine
 10
628.1355740298966
 20
1111.8553093408054
 30
0.0
 11
627.9417186319941
 21
1111.364972254858
 31
0.0
  0
LINE
  5
1CC
330
17
100
AcDbEntity
  8
0
100
AcDbLine
 10
627.9417186319941
 20
1111.364972254858
 30
0.0
 11
627.7850482294235
 21
1110.861519418826
 31
0.0
  0
LINE
  5
1CD
330
17
100
AcDbEntity
  8
0
100
AcDbLine
 10
627.7850482294235
 20
1110.861519418826
 30
0.0
 11
627.6664389866271
 21
1110.3477663451868
 31
0.0
  0
LINE
  5
1CE
330
17
100
AcDbEntity
  8
0
100
AcDbLine
 10
627.6664389866271
 20
1110.3477663451868
 30
0.0
 11
627.5865542146033
 21
1109.826586149526
 31
0.0
  0
LINE
  5
1CF
330
17
100
AcDbEntity
  8
0
100
AcDbLine
 10
627.5865542146033
 20
1109.826586149526
 30
0.0
 11
627.5458406614015
 21
1109.3008934829072
 31
0.0
  0
LINE
  5
1D0
330
17
100
AcDbEntity
  8
0
100
AcDbLine
 10
627.5458406614015
 20
1109.3008934829072
 30
0.0
 11
627.5445260137255
 21
1108.773628231965
 31
0.0
  0
LINE
  5
1D1
330
17
100
AcDbEntity
  8
0
100
AcDbLine
 10
627.5445260137255
 20
1108.773628231965
 30
0.0
 11
627.5826176236194
 21
1108.2477390778586
 31
0.0
  0
LINE
  5
1D2
330
17
100
AcDbEntity
  8
0
100
AcDbLine
 10
627.5826176236194
 20
1108.2477390778586
 30
0.0
 11
627.6599024673484
 21
1107.7261670060605
 31
0.0
  0
LINE
  5
1D3
330
17
100
AcDbEntity
  8
0
100
AcDbLine
 10
627.6599024673484
 20
1107.7261670060605
 30
0.0
 11
627.775948336717
 21
1107.2118288591635
 31
0.0
  0
LINE
  5
1D4
330
17
100
AcDbEntity
  8
0
100
AcDbLine
 10
627.775948336717
 20
1107.2118288591635
 30
0.0
 11
627.9301062561516
 21
1106.7076010247213
 31
0.0
  0
LINE
  5
1D5
330
17
100
AcDbEntity
  8
0
100
AcDbLine
 10
627.9301062561516
 20
1106.7076010247213
 30
0.0
 11
628.1215141120339
 21
1106.2163033493177
 31
0.0
  0
LINE
  5
1D6
330
17
100
AcDbEntity
  8
0
100
AcDbLine
 10
628.1215141120339
 20
1106.2163033493177
 30
0.0
 11
628.3491014739918
 21
1105.7406833688422
 31
0.0
  0
LINE
  5
1D7
330
17
100
AcDbEntity
  8
0
100
AcDbLine
 10
628.3491014739918
 20
1105.7406833688422
 30
0.0
 11
628.6115955811791
 21
1105.283400943155
 31
0.0
  0
LINE
  5
1D8
330
17
100
AcDbEntity
  8
0
100
AcDbLine
 10
628.6115955811791
 20
1105.283400943155
 30
0.0
 11
628.9075284600709
 21
1104.8470133810715
 31
0.0
  0
LINE
  5
1D9
330
17
100
AcDbEntity
  8
0
100
AcDbLine
 10
628.9075284600709
 20
1104.8470133810715
 30
0.0
 11
629.235245133967
 21
1104.4339611388539
 31
0.0
  0
LINE
  5
1DA
330
17
100
AcDbEntity
  8
0
100
AcDbLine
 10
629.235245133967
 20
1104.4339611388539
 30
0.0
 11
629.5929128782931
 21
1104.0465541721906
 31
0.0
  0
LINE
  5
1DB
330
17
100
AcDbEntity
  8
0
100
AcDbLine
 10
629.5929128782931
 20
1104.0465541721906
 30
0.0
 11
629.9785314699391
 21
1103.6869590179856
 31
0.0
  0
LINE
  5
1DC
330
17
100
AcDbEntity
  8
0
100
AcDbLine
 10
629.9785314699391
 20
1103.6869590179856
 30
0.0
 11
630.3899443733186
 21
1103.3571866782072
 31
0.0
  0
LINE
  5
1DD
330
17
100
AcDbEntity
  8
0
100
AcDbLine
 10
630.3899443733186
 20
1103.3571866782072
 30
0.0
 11
630.8248508005925
 21
1103.0590813735464
 31
0.0
  0
LINE
  5
1DE
330
17
100
AcDbEntity
  8
0
100
AcDbLine
 10
630.8248508005925
 20
1103.0590813735464
 30
0.0
 11
631.280818578604
 21
1102.7943102297904
 31
0.0
  0
LINE
  5
1DF
330
17
100
AcDbEntity
  8
0
100
AcDbLine
 10
631.280818578604
 20
1102.7943102297904
 30
0.0
 11
631.7552977505813
 21
1102.5643539545765
 31
0.0
  0
LINE
  5
1E0
330
17
100
AcDbEntity
  8
0
100
AcDbLine
 10
631.7552977505813
 20
1102.5643539545765
 30
0.0
 11
632.2456348365279
 21
1102.3704985566737
 31
0.0
  0
LINE
  5
1E1
330
17
100
AcDbEntity
  8
0
100
AcDbLine
 10
632.2456348365279
 20
1102.3704985566737
 30
0.0
 11
632.7490876725599
 21
1102.2138281541033
 31
0.0
  0
LINE
  5
1E2
330
17
100
AcDbEntity
  8
0
100
AcDbLine
 10
632.7490876725599
 20
1102.2138281541033
 30
0.0
 11
633.2628407461995
 21
1102.0952189113075
 31
0.0
  0
LINE
  5
1E3
330
17
100
AcDbEntity
  8
0
100
AcDbLine
 10
633.2628407461995
 20
1102.0952189113075
 30
0.0
 11
633.7840209418603
 21
1102.0153341392838
 31
0.0
  0
LINE
  5
1E4
330
17
100
AcDbEntity
  8
0
100
AcDbLine
 10
633.7840209418603
 20
1102.0153341392838
 30
0.0
 11
634.3097136084787
 21
1101.9746205860806
 31
0.0
  0
LINE
  5
1E5
330
17
100
AcDbEntity
  8
0
100
AcDbLine
 10
634.3097136084787
 20
1101.9746205860806
 30
0.0
 11
634.8369788594216
 21
1101.9733059384048
 31
0.0
  0
LINE
  5
1E6
330
17
100
AcDbEntity
  8
0
100
AcDbLine
 10
634.8369788594216
 20
1101.9733059384048
 30
0.0
 11
635.3628680135275
 21
1102.0113975482984
 31
0.0
  0
LINE
  5
1E7
330
17
100
AcDbEntity
  8
0
100
AcDbLine
 10
635.3628680135275
 20
1102.0113975482984
 30
0.0
 11
635.8844400853261
 21
1102.0886823920289
 31
0.0
  0
LINE
  5
1E8
330
17
100
AcDbEntity
  8
0
100
AcDbLine
 10
635.8844400853261
 20
1102.0886823920289
 30
0.0
 11
636.3987782322228
 21
1102.2047282613973
 31
0.0
  0
LINE
  5
1E9
330
17
100
AcDbEntity
  8
0
100
AcDbLine
 10
636.3987782322228
 20
1102.2047282613973
 30
0.0
 11
636.9030060666648
 21
1102.3588861808314
 31
0.0
  0
LINE
  5
1EA
330
17
100
AcDbEntity
  8
0
100
AcDbLine
 10
636.9030060666648
 20
1102.3588861808314
 30
0.0
 11
637.3943037420684
 21
1102.5502940367135
 31
0.0
  0
LINE
  5
1EB
330
17
100
AcDbEntity
  8
0
100
AcDbLine
 10
637.3943037420684
 20
1102.5502940367135
 30
0.0
 11
637.8699237225442
 21
1102.7778813986718
 31
0.0
  0
LINE
  5
1EC
330
17
100
AcDbEntity
  8
0
100
AcDbLine
 10
637.8699237225442
 20
1102.7778813986718
 30
0.0
 11
638.3272061482315
 21
1103.040375505859
 31
0.0
  0
LINE
  5
1ED
330
17
100
AcDbEntity
  8
0
100
AcDbLine
 10
638.3272061482315
 20
1103.040375505859
 30
0.0
 11
638.763593710315
 21
1103.3363083847512
 31
0.0
  0
LINE
  5
1EE
330
17
100
AcDbEntity
  8
0
100
AcDbLine
 10
638.763593710315
 20
1103.3363083847512
 30
0.0
 11
639.1766459525327
 21
1103.6640250586477
 31
0.0
  0
LINE
  5
1EF
330
17
100
AcDbEntity
  8
0
100
AcDbLine
 10
639.1766459525327
 20
1103.6640250586477
 30
0.0
 11
639.564052919196
 21
1104.0216928029733
 31
0.0
  0
LINE
  5
1F0
330
17
100
AcDbEntity
  8
0
100
AcDbLine
 10
639.564052919196
 20
1104.0216928029733
 30
0.0
 11
639.9236480734008
 21
1104.4073113946192
 31
0.0
  0
LINE
  5
1F1
330
17
100
AcDbEntity
  8
0
100
AcDbLine
 10
639.9236480734008
 20
1104.4073113946192
 30
0.0
 11
640.2534204131797
 21
1104.8187242979989
 31
0.0
  0
LINE
  5
1F2
330
17
100
AcDbEntity
  8
0
100
AcDbLine
 10
640.2534204131797
 20
1104.8187242979989
 30
0.0
 11
640.5515257178399
 21
1105.2536307252726
 31
0.0
  0
LINE
  5
1F3
330
17
100
AcDbEntity
  8
0
100
AcDbLine
 10
640.5515257178399
 20
1105.2536307252726
 30
0.0
 11
640.8162968615958
 21
1105.709598503284
 31
0.0
  0
LINE
  5
1F4
330
17
100
AcDbEntity
  8
0
100
AcDbLine
 10
640.8162968615958
 20
1105.709598503284
 30
0.0
 11
641.0462531368098
 21
1106.1840776752613
 31
0.0
  0
LINE
  5
1F5
330
17
100
AcDbEntity
  8
0
100
AcDbLine
 10
641.0462531368098
 20
1106.1840776752613
 30
0.0
 11
641.240108534712
 21
1106.6744147612078
 31
0.0
  0
LINE
  5
1F6
330
17
100
AcDbEntity
  8
0
100
AcDbLine
 10
641.240108534712
 20
1106.6744147612078
 30
0.0
 11
641.3967789372826
 21
1107.1778675972398
 31
0.0
  0
LINE
  5
1F7
330
17
100
AcDbEntity
  8
0
100
AcDbLine
 10
641.3967789372826
 20
1107.1778675972398
 30
0.0
 11
641.5153881800791
 21
1107.6916206708793
 31
0.0
  0
LINE
  5
1F8
330
17
100
AcDbEntity
  8
0
100
AcDbLine
 10
641.5153881800791
 20
1107.6916206708793
 30
0.0
 11
641.595272952103
 21
1108.2128008665406
 31
0.0
  0
LINE
  5
1F9
330
17
100
AcDbEntity
  8
0
100
AcDbLine
 10
641.595272952103
 20
1108.2128008665406
 30
0.0
 11
641.635986505305
 21
1108.7384935331584
 31
0.0
  0
LINE
  5
1FA
330
17
100
AcDbEntity
  8
0
100
AcDbLine
 10
641.635986505305
 20
1108.7384935331584
 30
0.0
 11
641.6373011529809
 21
1109.2657587841018
 31
0.0
  0
LINE
  5
1FB
330
17
100
AcDbEntity
  8
0
100
AcDbLine
 10
373.559158958215
 20
1678.997189018546
 30
0.0
 11
373.5210673483214
 21
1679.5230781726518
 31
0.0
  0
LINE
  5
1FC
330
17
100
AcDbEntity
  8
0
100
AcDbLine
 10
373.5210673483214
 20
1679.5230781726518
 30
0.0
 11
373.4437825045924
 21
1680.0446502444504
 31
0.0
  0
LINE
  5
1FD
330
17
100
AcDbEntity
  8
0
100
AcDbLine
 10
373.4437825045924
 20
1680.0446502444504
 30
0.0
 11
373.3277366352234
 21
1680.5589883913474
 31
0.0
  0
LINE
  5
1FE
330
17
100
AcDbEntity
  8
0
100
AcDbLine
 10
373.3277366352234
 20
1680.5589883913474
 30
0.0
 11
373.17357871578895
 21
1681.0632162257887
 31
0.0
  0
LINE
  5
1FF
330
17
100
AcDbEntity
  8
0
100
AcDbLine
 10
373.17357871578895
 20
1681.0632162257887
 30
0.0
 11
372.9821708599068
 21
1681.5545139011926
 31
0.0
  0
LINE
  5
200
330
17
100
AcDbEntity
  8
0
100
AcDbLine
 10
372.9821708599068
 20
1681.5545139011926
 30
0.0
 11
372.754583497949
 21
1682.0301338816676
 31
0.0
  0
LINE
  5
201
330
17
100
AcDbEntity
  8
0
100
AcDbLine
 10
372.754583497949
 20
1682.0301338816676
 30
0.0
 11
372.4920893907615
 21
1682.487416307356
 31
0.0
  0
LINE
  5
202
330
17
100
AcDbEntity
  8
0
100
AcDbLine
 10
372.4920893907615
 20
1682.487416307356
 30
0.0
 11
372.1961565118696
 21
1682.9238038694384
 31
0.0
  0
LINE
  5
203
330
17
100
AcDbEntity
  8
0
100
AcDbLine
 10
372.1961565118696
 20
1682.9238038694384
 30
0.0
 11
371.8684398379735
 21
1683.3368561116565
 31
0.0
  0
LINE
  5
204
330
17
100
AcDbEntity
  8
0
100
AcDbLine
 10
371.8684398379735
 20
1683.3368561116565
 30
0.0
 11
371.51077209364746
 21
1683.7242630783203
 31
0.0
  0
LINE
  5
205
330
17
100
AcDbEntity
  8
0
100
AcDbLine
 10
371.51077209364746
 20
1683.7242630783203
 30
0.0
 11
371.1251535020017
 21
1684.0838582325252
 31
0.0
  0
LINE
  5
206
330
17
100
AcDbEntity
  8
0
100
AcDbLine
 10
371.1251535020017
 20
1684.0838582325252
 30
0.0
 11
370.71374059862165
 21
1684.413630572304
 31
0.0
  0
LINE
  5
207
330
17
100
AcDbEntity
  8
0
100
AcDbLine
 10
370.71374059862165
 20
1684.413630572304
 30
0.0
 11
370.27883417134825
 21
1684.7117358769635
 31
0.0
  0
LINE
  5
208
330
17
100
AcDbEntity
  8
0
100
AcDbLine
 10
370.27883417134825
 20
1684.7117358769635
 30
0.0
 11
369.8228663933369
 21
1684.9765070207186
 31
0.0
  0
LINE
  5
209
330
17
100
AcDbEntity
  8
0
100
AcDbLine
 10
369.8228663933369
 20
1684.9765070207186
 30
0.0
 11
369.34838722135936
 21
1685.2064632959336
 31
0.0
  0
LINE
  5
20A
330
17
100
AcDbEntity
  8
0
100
AcDbLine
 10
369.34838722135936
 20
1685.2064632959336
 30
0.0
 11
368.8580501354128
 21
1685.4003186938362
 31
0.0
  0
LINE
  5
20B
330
17
100
AcDbEntity
  8
0
100
AcDbLine
 10
368.8580501354128
 20
1685.4003186938362
 30
0.0
 11
368.35459729938066
 21
1685.5569890964061
 31
0.0
  0
LINE
  5
20C
330
17
100
AcDbEntity
  8
0
100
AcDbLine
 10
368.35459729938066
 20
1685.5569890964061
 30
0.0
 11
367.84084422574136
 21
1685.6755983392025
 31
0.0
  0
LINE
  5
20D
330
17
100
AcDbEntity
  8
0
100
AcDbLine
 10
367.84084422574136
 20
1685.6755983392025
 30
0.0
 11
367.3196640300803
 21
1685.7554831112266
 31
0.0
  0
LINE
  5
20E
330
17
100
AcDbEntity
  8
0
100
AcDbLine
 10
367.3196640300803
 20
1685.7554831112266
 30
0.0
 11
366.7939713634621
 21
1685.7961966644289
 31
0.0
  0
LINE
  5
20F
330
17
100
AcDbEntity
  8
0
100
AcDbLine
 10
366.7939713634621
 20
1685.7961966644289
 30
0.0
 11
366.266706112519
 21
1685.7975113121042
 31
0.0
  0
LINE
  5
210
330
17
100
AcDbEntity
  8
0
100
AcDbLine
 10
366.266706112519
 20
1685.7975113121042
 30
0.0
 11
365.7408169584131
 21
1685.7594197022108
 31
0.0
  0
LINE
  5
211
330
17
100
AcDbEntity
  8
0
100
AcDbLine
 10
365.7408169584131
 20
1685.7594197022108
 30
0.0
 11
365.21924488661443
 21
1685.6821348584817
 31
0.0
  0
LINE
  5
212
330
17
100
AcDbEntity
  8
0
100
AcDbLine
 10
365.21924488661443
 20
1685.6821348584817
 30
0.0
 11
364.70490673971796
 21
1685.5660889891124
 31
0.0
  0
LINE
  5
213
330
17
100
AcDbEntity
  8
0
100
AcDbLine
 10
364.70490673971796
 20
1685.5660889891124
 30
0.0
 11
364.2006789052758
 21
1685.4119310696783
 31
0.0
  0
LINE
  5
214
330
17
100
AcDbEntity
  8
0
100
AcDbLine
 10
364.2006789052758
 20
1685.4119310696783
 30
0.0
 11
363.70938122987206
 21
1685.2205232137965
 31
0.0
  0
LINE
  5
215
330
17
100
AcDbEntity
  8
0
100
AcDbLine
 10
363.70938122987206
 20
1685.2205232137965
 30
0.0
 11
363.23376124939654
 21
1684.9929358518386
 31
0.0
  0
LINE
  5
216
330
17
100
AcDbEntity
  8
0
100
AcDbLine
 10
363.23376124939654
 20
1684.9929358518386
 30
0.0
 11
362.7764788237091
 21
1684.7304417446503
 31
0.0
  0
LINE
  5
217
330
17
100
AcDbEntity
  8
0
100
AcDbLine
 10
362.7764788237091
 20
1684.7304417446503
 30
0.0
 11
362.3400912616257
 21
1684.4345088657587
 31
0.0
  0
LINE
  5
218
330
17
100
AcDbEntity
  8
0
100
AcDbLine
 10
362.3400912616257
 20
1684.4345088657587
 30
0.0
 11
361.927039019408
 21
1684.1067921918636
 31
0.0
  0
LINE
  5
219
330
17
100
AcDbEntity
  8
0
100
AcDbLine
 10
361.927039019408
 20
1684.1067921918636
 30
0.0
 11
361.53963205274454
 21
1683.7491244475377
 31
0.0
  0
LINE
  5
21A
330
17
100
AcDbEntity
  8
0
100
AcDbLine
 10
361.53963205274454
 20
1683.7491244475377
 30
0.0
 11
361.1800368985397
 21
1683.3635058558916
 31
0.0
  0
LINE
  5
21B
330
17
100
AcDbEntity
  8
0
100
AcDbLine
 10
361.1800368985397
 20
1683.3635058558916
 30
0.0
 11
360.85026455876107
 21
1682.9520929525115
 31
0.0
  0
LINE
  5
21C
330
17
100
AcDbEntity
  8
0
100
AcDbLine
 10
360.85026455876107
 20
1682.9520929525115
 30
0.0
 11
360.55215925410073
 21
1682.5171865252373
 31
0.0
  0
LINE
  5
21D
330
17
100
AcDbEntity
  8
0
100
AcDbLine
 10
360.55215925410073
 20
1682.5171865252373
 30
0.0
 11
360.28738811034486
 21
1682.0612187472268
 31
0.0
  0
LINE
  5
21E
330
17
100
AcDbEntity
  8
0
100
AcDbLine
 10
360.28738811034486
 20
1682.0612187472268
 30
0.0
 11
360.0574318351309
 21
1681.5867395752487
 31
0.0
  0
LINE
  5
21F
330
17
100
AcDbEntity
  8
0
100
AcDbLine
 10
360.0574318351309
 20
1681.5867395752487
 30
0.0
 11
359.8635764372285
 21
1681.0964024893026
 31
0.0
  0
LINE
  5
220
330
17
100
AcDbEntity
  8
0
100
AcDbLine
 10
359.8635764372285
 20
1681.0964024893026
 30
0.0
 11
359.706906034658
 21
1680.59294965327
 31
0.0
  0
LINE
  5
221
330
17
100
AcDbEntity
  8
0
100
AcDbLine
 10
359.706906034658
 20
1680.59294965327
 30
0.0
 11
359.5882967918615
 21
1680.0791965796316
 31
0.0
  0
LINE
  5
222
330
17
100
AcDbEntity
  8
0
100
AcDbLine
 10
359.5882967918615
 20
1680.0791965796316
 30
0.0
 11
359.5084120198377
 21
1679.5580163839702
 31
0.0
  0
LINE
  5
223
330
17
100
AcDbEntity
  8
0
100
AcDbLine
 10
359.5084120198377
 20
1679.5580163839702
 30
0.0
 11
359.4676984666357
 21
1679.032323717352
 31
0.0
  0
LINE
  5
224
330
17
100
AcDbEntity
  8
0
100
AcDbLine
 10
359.4676984666357
 20
1679.032323717352
 30
0.0
 11
359.4663838189599
 21
1678.505058466409
 31
0.0
  0
LINE
  5
225
330
17
100
AcDbEntity
  8
0
100
AcDbLine
 10
359.4663838189599
 20
1678.505058466409
 30
0.0
 11
359.5044754288536
 21
1677.979169312303
 31
0.0
  0
LINE
  5
226
330
17
100
AcDbEntity
  8
0
100
AcDbLine
 10
359.5044754288536
 20
1677.979169312303
 30
0.0
 11
359.58176027258276
 21
1677.4575972405046
 31
0.0
  0
LINE
  5
227
330
17
100
AcDbEntity
  8
0
100
AcDbLine
 10
359.58176027258276
 20
1677.4575972405046
 30
0.0
 11
359.6978061419515
 21
1676.9432590936076
 31
0.0
  0
LINE
  5
228
330
17
100
AcDbEntity
  8
0
100
AcDbLine
 10
359.6978061419515
 20
1676.9432590936076
 30
0.0
 11
359.85196406138607
 21
1676.4390312591663
 31
0.0
  0
LINE
  5
229
330
17
100
AcDbEntity
  8
0
100
AcDbLine
 10
359.85196406138607
 20
1676.4390312591663
 30
0.0
 11
360.04337191726825
 21
1675.9477335837623
 31
0.0
  0
LINE
  5
22A
330
17
100
AcDbEntity
  8
0
100
AcDbLine
 10
360.04337191726825
 20
1675.9477335837623
 30
0.0
 11
360.2709592792261
 21
1675.4721136032854
 31
0.0
  0
LINE
  5
22B
330
17
100
AcDbEntity
  8
0
100
AcDbLine
 10
360.2709592792261
 20
1675.4721136032854
 30
0.0
 11
360.5334533864134
 21
1675.0148311775986
 31
0.0
  0
LINE
  5
22C
330
17
100
AcDbEntity
  8
0
100
AcDbLine
 10
360.5334533864134
 20
1675.0148311775986
 30
0.0
 11
360.82938626530535
 21
1674.5784436155152
 31
0.0
  0
LINE
  5
22D
330
17
100
AcDbEntity
  8
0
100
AcDbLine
 10
360.82938626530535
 20
1674.5784436155152
 30
0.0
 11
361.15710293920154
 21
1674.165391373298
 31
0.0
  0
LINE
  5
22E
330
17
100
AcDbEntity
  8
0
100
AcDbLine
 10
361.15710293920154
 20
1674.165391373298
 30
0.0
 11
361.5147706835275
 21
1673.777984406633
 31
0.0
  0
LINE
  5
22F
330
17
100
AcDbEntity
  8
0
100
AcDbLine
 10
361.5147706835275
 20
1673.777984406633
 30
0.0
 11
361.9003892751732
 21
1673.4183892524297
 31
0.0
  0
LINE
  5
230
330
17
100
AcDbEntity
  8
0
100
AcDbLine
 10
361.9003892751732
 20
1673.4183892524297
 30
0.0
 11
362.31180217855314
 21
1673.0886169126507
 31
0.0
  0
LINE
  5
231
330
17
100
AcDbEntity
  8
0
100
AcDbLine
 10
362.31180217855314
 20
1673.0886169126507
 30
0.0
 11
362.7467086058267
 21
1672.79051160799
 31
0.0
  0
LINE
  5
232
330
17
100
AcDbEntity
  8
0
100
AcDbLine
 10
362.7467086058267
 20
1672.79051160799
 30
0.0
 11
363.20267638383814
 21
1672.5257404642343
 31
0.0
  0
LINE
  5
233
330
17
100
AcDbEntity
  8
0
100
AcDbLine
 10
363.20267638383814
 20
1672.5257404642343
 30
0.0
 11
363.6771555558156
 21
1672.2957841890197
 31
0.0
  0
LINE
  5
234
330
17
100
AcDbEntity
  8
0
100
AcDbLine
 10
363.6771555558156
 20
1672.2957841890197
 30
0.0
 11
364.1674926417621
 21
1672.1019287911183
 31
0.0
  0
LINE
  5
235
330
17
100
AcDbEntity
  8
0
100
AcDbLine
 10
364.1674926417621
 20
1672.1019287911183
 30
0.0
 11
364.6709454777944
 21
1671.9452583885472
 31
0.0
  0
LINE
  5
236
330
17
100
AcDbEntity
  8
0
100
AcDbLine
 10
364.6709454777944
 20
1671.9452583885472
 30
0.0
 11
365.1846985514337
 21
1671.8266491457512
 31
0.0
  0
LINE
  5
237
330
17
100
AcDbEntity
  8
0
100
AcDbLine
 10
365.1846985514337
 20
1671.8266491457512
 30
0.0
 11
365.7058787470947
 21
1671.7467643737268
 31
0.0
  0
LINE
  5
238
330
17
100
AcDbEntity
  8
0
100
AcDbLine
 10
365.7058787470947
 20
1671.7467643737268
 30
0.0
 11
366.23157141371297
 21
1671.7060508205245
 31
0.0
  0
LINE
  5
239
330
17
100
AcDbEntity
  8
0
100
AcDbLine
 10
366.23157141371297
 20
1671.7060508205245
 30
0.0
 11
366.758836664656
 21
1671.7047361728492
 31
0.0
  0
LINE
  5
23A
330
17
100
AcDbEntity
  8
0
100
AcDbLine
 10
366.758836664656
 20
1671.7047361728492
 30
0.0
 11
367.28472581876196
 21
1671.7428277827426
 31
0.0
  0
LINE
  5
23B
330
17
100
AcDbEntity
  8
0
100
AcDbLine
 10
367.28472581876196
 20
1671.7428277827426
 30
0.0
 11
367.80629789056053
 21
1671.8201126264719
 31
0.0
  0
LINE
  5
23C
330
17
100
AcDbEntity
  8
0
100
AcDbLine
 10
367.80629789056053
 20
1671.8201126264719
 30
0.0
 11
368.3206360374571
 21
1671.936158495841
 31
0.0
  0
LINE
  5
23D
330
17
100
AcDbEntity
  8
0
100
AcDbLine
 10
368.3206360374571
 20
1671.936158495841
 30
0.0
 11
368.82486387189925
 21
1672.0903164152755
 31
0.0
  0
LINE
  5
23E
330
17
100
AcDbEntity
  8
0
100
AcDbLine
 10
368.82486387189925
 20
1672.0903164152755
 30
0.0
 11
369.31616154730284
 21
1672.281724271158
 31
0.0
  0
LINE
  5
23F
330
17
100
AcDbEntity
  8
0
100
AcDbLine
 10
369.31616154730284
 20
1672.281724271158
 30
0.0
 11
369.7917815277784
 21
1672.509311633115
 31
0.0
  0
LINE
  5
240
330
17
100
AcDbEntity
  8
0
100
AcDbLine
 10
369.7917815277784
 20
1672.509311633115
 30
0.0
 11
370.2490639534659
 21
1672.7718057403029
 31
0.0
  0
LINE
  5
241
330
17
100
AcDbEntity
  8
0
100
AcDbLine
 10
370.2490639534659
 20
1672.7718057403029
 30
0.0
 11
370.6854515155493
 21
1673.0677386191946
 31
0.0
  0
LINE
  5
242
330
17
100
AcDbEntity
  8
0
100
AcDbLine
 10
370.6854515155493
 20
1673.0677386191946
 30
0.0
 11
371.09850375776676
 21
1673.3954552930913
 31
0.0
  0
LINE
  5
243
330
17
100
AcDbEntity
  8
0
100
AcDbLine
 10
371.09850375776676
 20
1673.3954552930913
 30
0.0
 11
371.48591072443037
 21
1673.7531230374173
 31
0.0
  0
LINE
  5
244
330
17
100
AcDbEntity
  8
0
100
AcDbLine
 10
371.48591072443037
 20
1673.7531230374173
 30
0.0
 11
371.8455058786354
 21
1674.1387416290618
 31
0.0
  0
LINE
  5
245
330
17
100
AcDbEntity
  8
0
100
AcDbLine
 10
371.8455058786354
 20
1674.1387416290618
 30
0.0
 11
372.17527821841395
 21
1674.550154532443
 31
0.0
  0
LINE
  5
246
330
17
100
AcDbEntity
  8
0
100
AcDbLine
 10
372.17527821841395
 20
1674.550154532443
 30
0.0
 11
372.47338352307423
 21
1674.9850609597163
 31
0.0
  0
LINE
  5
247
330
17
100
AcDbEntity
  8
0
100
AcDbLine
 10
372.47338352307423
 20
1674.9850609597163
 30
0.0
 11
372.73815466683004
 21
1675.4410287377277
 31
0.0
  0
LINE
  5
248
330
17
100
AcDbEntity
  8
0
100
AcDbLine
 10
372.73815466683004
 20
1675.4410287377277
 30
0.0
 11
372.9681109420442
 21
1675.9155079097045
 31
0.0
  0
LINE
  5
249
330
17
100
AcDbEntity
  8
0
100
AcDbLine
 10
372.9681109420442
 20
1675.9155079097045
 30
0.0
 11
373.1619663399465
 21
1676.4058449956524
 31
0.0
  0
LINE
  5
24A
330
17
100
AcDbEntity
  8
0
100
AcDbLine
 10
373.1619663399465
 20
1676.4058449956524
 30
0.0
 11
373.318636742517
 21
1676.9092978316849
 31
0.0
  0
LINE
  5
24B
330
17
100
AcDbEntity
  8
0
100
AcDbLine
 10
373.318636742517
 20
1676.9092978316849
 30
0.0
 11
373.4372459853134
 21
1677.4230509053232
 31
0.0
  0
LINE
  5
24C
330
17
100
AcDbEntity
  8
0
100
AcDbLine
 10
373.4372459853134
 20
1677.4230509053232
 30
0.0
 11
373.51713075733744
 21
1677.9442311009848
 31
0.0
  0
LINE
  5
24D
330
17
100
AcDbEntity
  8
0
100
AcDbLine
 10
373.51713075733744
 20
1677.9442311009848
 30
0.0
 11
373.55784431053934
 21
1678.4699237676027
 31
0.0
  0
LINE
  5
24E
330
17
100
AcDbEntity
  8
0
100
AcDbLine
 10
373.55784431053934
 20
1678.4699237676027
 30
0.0
 11
373.559158958215
 21
1678.997189018546
 31
0.0
  0
LINE
  5
24F
330
17
100
AcDbEntity
  8
0
100
AcDbLine
 10
101.80883682291665
 20
1338.5972156634948
 30
0.0
 11
101.77074521302295
 21
1339.123104817601
 31
0.0
  0
LINE
  5
250
330
17
100
AcDbEntity
  8
0
100
AcDbLine
 10
101.77074521302295
 20
1339.123104817601
 30
0.0
 11
101.69346036929394
 21
1339.6446768893993
 31
0.0
  0
LINE
  5
251
330
17
100
AcDbEntity
  8
0
100
AcDbLine
 10
101.69346036929394
 20
1339.6446768893993
 30
0.0
 11
101.57741449992498
 21
1340.1590150362952
 31
0.0
  0
LINE
  5
252
330
17
100
AcDbEntity
  8
0
100
AcDbLine
 10
101.57741449992498
 20
1340.1590150362952
 30
0.0
 11
101.42325658049063
 21
1340.6632428707376
 31
0.0
  0
LINE
  5
253
330
17
100
AcDbEntity
  8
0
100
AcDbLine
 10
101.42325658049063
 20
1340.6632428707376
 30
0.0
 11
101.23184872460834
 21
1341.154540546141
 31
0.0
  0
LINE
  5
254
330
17
100
AcDbEntity
  8
0
100
AcDbLine
 10
101.23184872460834
 20
1341.154540546141
 30
0.0
 11
101.00426136265054
 21
1341.6301605266167
 31
0.0
  0
LINE
  5
255
330
17
100
AcDbEntity
  8
0
100
AcDbLine
 10
101.00426136265054
 20
1341.6301605266167
 30
0.0
 11
100.74176725546323
 21
1342.087442952304
 31
0.0
  0
LINE
  5
256
330
17
100
AcDbEntity
  8
0
100
AcDbLine
 10
100.74176725546323
 20
1342.087442952304
 30
0.0
 11
100.44583437657131
 21
1342.523830514389
 31
0.0
  0
LINE
  5
257
330
17
100
AcDbEntity
  8
0
100
AcDbLine
 10
100.44583437657131
 20
1342.523830514389
 30
0.0
 11
100.11811770267502
 21
1342.9368827566054
 31
0.0
  0
LINE
  5
258
330
17
100
AcDbEntity
  8
0
100
AcDbLine
 10
100.11811770267502
 20
1342.9368827566054
 30
0.0
 11
99.76044995834914
 21
1343.324289723269
 31
0.0
  0
LINE
  5
259
330
17
100
AcDbEntity
  8
0
100
AcDbLine
 10
99.76044995834914
 20
1343.324289723269
 30
0.0
 11
99.37483136670325
 21
1343.6838848774742
 31
0.0
  0
LINE
  5
25A
330
17
100
AcDbEntity
  8
0
100
AcDbLine
 10
99.37483136670325
 20
1343.6838848774742
 30
0.0
 11
98.9634184633235
 21
1344.0136572172514
 31
0.0
  0
LINE
  5
25B
330
17
100
AcDbEntity
  8
0
100
AcDbLine
 10
98.9634184633235
 20
1344.0136572172514
 30
0.0
 11
98.52851203604988
 21
1344.3117625219124
 31
0.0
  0
LINE
  5
25C
330
17
100
AcDbEntity
  8
0
100
AcDbLine
 10
98.52851203604988
 20
1344.3117625219124
 30
0.0
 11
98.07254425803835
 21
1344.576533665669
 31
0.0
  0
LINE
  5
25D
330
17
100
AcDbEntity
  8
0
100
AcDbLine
 10
98.07254425803835
 20
1344.576533665669
 30
0.0
 11
97.59806508606103
 21
1344.8064899408823
 31
0.0
  0
LINE
  5
25E
330
17
100
AcDbEntity
  8
0
100
AcDbLine
 10
97.59806508606103
 20
1344.8064899408823
 30
0.0
 11
97.10772800011432
 21
1345.000345338785
 31
0.0
  0
LINE
  5
25F
330
17
100
AcDbEntity
  8
0
100
AcDbLine
 10
97.10772800011432
 20
1345.000345338785
 30
0.0
 11
96.60427516408217
 21
1345.1570157413562
 31
0.0
  0
LINE
  5
260
330
17
100
AcDbEntity
  8
0
100
AcDbLine
 10
96.60427516408217
 20
1345.1570157413562
 30
0.0
 11
96.09052209044296
 21
1345.2756249841527
 31
0.0
  0
LINE
  5
261
330
17
100
AcDbEntity
  8
0
100
AcDbLine
 10
96.09052209044296
 20
1345.2756249841527
 30
0.0
 11
95.56934189478184
 21
1345.3555097561753
 31
0.0
  0
LINE
  5
262
330
17
100
AcDbEntity
  8
0
100
AcDbLine
 10
95.56934189478184
 20
1345.3555097561753
 30
0.0
 11
95.04364922816362
 21
1345.3962233093785
 31
0.0
  0
LINE
  5
263
330
17
100
AcDbEntity
  8
0
100
AcDbLine
 10
95.04364922816362
 20
1345.3962233093785
 30
0.0
 11
94.51638397722061
 21
1345.3975379570543
 31
0.0
  0
LINE
  5
264
330
17
100
AcDbEntity
  8
0
100
AcDbLine
 10
94.51638397722061
 20
1345.3975379570543
 30
0.0
 11
93.99049482311463
 21
1345.3594463471604
 31
0.0
  0
LINE
  5
265
330
17
100
AcDbEntity
  8
0
100
AcDbLine
 10
93.99049482311463
 20
1345.3594463471604
 30
0.0
 11
93.46892275131611
 21
1345.2821615034302
 31
0.0
  0
LINE
  5
266
330
17
100
AcDbEntity
  8
0
100
AcDbLine
 10
93.46892275131611
 20
1345.2821615034302
 30
0.0
 11
92.95458460441955
 21
1345.1661156340629
 31
0.0
  0
LINE
  5
267
330
17
100
AcDbEntity
  8
0
100
AcDbLine
 10
92.95458460441955
 20
1345.1661156340629
 30
0.0
 11
92.45035676997733
 21
1345.0119577146281
 31
0.0
  0
LINE
  5
268
330
17
100
AcDbEntity
  8
0
100
AcDbLine
 10
92.45035676997733
 20
1345.0119577146281
 30
0.0
 11
91.95905909457372
 21
1344.8205498587454
 31
0.0
  0
LINE
  5
269
330
17
100
AcDbEntity
  8
0
100
AcDbLine
 10
91.95905909457372
 20
1344.8205498587454
 30
0.0
 11
91.48343911409809
 21
1344.592962496787
 31
0.0
  0
LINE
  5
26A
330
17
100
AcDbEntity
  8
0
100
AcDbLine
 10
91.48343911409809
 20
1344.592962496787
 30
0.0
 11
91.02615668841081
 21
1344.3304683896006
 31
0.0
  0
LINE
  5
26B
330
17
100
AcDbEntity
  8
0
100
AcDbLine
 10
91.02615668841081
 20
1344.3304683896006
 30
0.0
 11
90.58976912632718
 21
1344.0345355107079
 31
0.0
  0
LINE
  5
26C
330
17
100
AcDbEntity
  8
0
100
AcDbLine
 10
90.58976912632718
 20
1344.0345355107079
 30
0.0
 11
90.17671688410965
 21
1343.7068188368107
 31
0.0
  0
LINE
  5
26D
330
17
100
AcDbEntity
  8
0
100
AcDbLine
 10
90.17671688410965
 20
1343.7068188368107
 30
0.0
 11
89.7893099174462
 21
1343.3491510924866
 31
0.0
  0
LINE
  5
26E
330
17
100
AcDbEntity
  8
0
100
AcDbLine
 10
89.7893099174462
 20
1343.3491510924866
 30
0.0
 11
89.42971476324138
 21
1342.9635325008403
 31
0.0
  0
LINE
  5
26F
330
17
100
AcDbEntity
  8
0
100
AcDbLine
 10
89.42971476324138
 20
1342.9635325008403
 30
0.0
 11
89.09994242346261
 21
1342.5521195974604
 31
0.0
  0
LINE
  5
270
330
17
100
AcDbEntity
  8
0
100
AcDbLine
 10
89.09994242346261
 20
1342.5521195974604
 30
0.0
 11
88.80183711880231
 21
1342.1172131701878
 31
0.0
  0
LINE
  5
271
330
17
100
AcDbEntity
  8
0
100
AcDbLine
 10
88.80183711880231
 20
1342.1172131701878
 30
0.0
 11
88.53706597504646
 21
1341.6612453921748
 31
0.0
  0
LINE
  5
272
330
17
100
AcDbEntity
  8
0
100
AcDbLine
 10
88.53706597504646
 20
1341.6612453921748
 30
0.0
 11
88.30710969983244
 21
1341.1867662201976
 31
0.0
  0
LINE
  5
273
330
17
100
AcDbEntity
  8
0
100
AcDbLine
 10
88.30710969983244
 20
1341.1867662201976
 30
0.0
 11
88.11325430193008
 21
1340.696429134251
 31
0.0
  0
LINE
  5
274
330
17
100
AcDbEntity
  8
0
100
AcDbLine
 10
88.11325430193008
 20
1340.696429134251
 30
0.0
 11
87.95658389935946
 21
1340.192976298219
 31
0.0
  0
LINE
  5
275
330
17
100
AcDbEntity
  8
0
100
AcDbLine
 10
87.95658389935946
 20
1340.192976298219
 30
0.0
 11
87.83797465656322
 21
1339.6792232245793
 31
0.0
  0
LINE
  5
276
330
17
100
AcDbEntity
  8
0
100
AcDbLine
 10
87.83797465656322
 20
1339.6792232245793
 30
0.0
 11
87.75808988453926
 21
1339.158043028919
 31
0.0
  0
LINE
  5
277
330
17
100
AcDbEntity
  8
0
100
AcDbLine
 10
87.75808988453926
 20
1339.158043028919
 30
0.0
 11
87.7173763313372
 21
1338.6323503623012
 31
0.0
  0
LINE
  5
278
330
17
100
AcDbEntity
  8
0
100
AcDbLine
 10
87.7173763313372
 20
1338.6323503623012
 30
0.0
 11
87.71606168366156
 21
1338.105085111358
 31
0.0
  0
LINE
  5
279
330
17
100
AcDbEntity
  8
0
100
AcDbLine
 10
87.71606168366156
 20
1338.105085111358
 30
0.0
 11
87.75415329355516
 21
1337.5791959572516
 31
0.0
  0
LINE
  5
27A
330
17
100
AcDbEntity
  8
0
100
AcDbLine
 10
87.75415329355516
 20
1337.5791959572516
 30
0.0
 11
87.83143813728428
 21
1337.0576238854535
 31
0.0
  0
LINE
  5
27B
330
17
100
AcDbEntity
  8
0
100
AcDbLine
 10
87.83143813728428
 20
1337.0576238854535
 30
0.0
 11
87.94748400665314
 21
1336.543285738557
 31
0.0
  0
LINE
  5
27C
330
17
100
AcDbEntity
  8
0
100
AcDbLine
 10
87.94748400665314
 20
1336.543285738557
 30
0.0
 11
88.10164192608748
 21
1336.0390579041152
 31
0.0
  0
LINE
  5
27D
330
17
100
AcDbEntity
  8
0
100
AcDbLine
 10
88.10164192608748
 20
1336.0390579041152
 30
0.0
 11
88.29304978196977
 21
1335.5477602287112
 31
0.0
  0
LINE
  5
27E
330
17
100
AcDbEntity
  8
0
100
AcDbLine
 10
88.29304978196977
 20
1335.5477602287112
 30
0.0
 11
88.52063714392762
 21
1335.072140248235
 31
0.0
  0
LINE
  5
27F
330
17
100
AcDbEntity
  8
0
100
AcDbLine
 10
88.52063714392762
 20
1335.072140248235
 30
0.0
 11
88.78313125111492
 21
1334.6148578225475
 31
0.0
  0
LINE
  5
280
330
17
100
AcDbEntity
  8
0
100
AcDbLine
 10
88.78313125111492
 20
1334.6148578225475
 30
0.0
 11
89.07906413000701
 21
1334.178470260464
 31
0.0
  0
LINE
  5
281
330
17
100
AcDbEntity
  8
0
100
AcDbLine
 10
89.07906413000701
 20
1334.178470260464
 30
0.0
 11
89.40678080390308
 21
1333.7654180182474
 31
0.0
  0
LINE
  5
282
330
17
100
AcDbEntity
  8
0
100
AcDbLine
 10
89.40678080390308
 20
1333.7654180182474
 30
0.0
 11
89.76444854822911
 21
1333.3780110515827
 31
0.0
  0
LINE
  5
283
330
17
100
AcDbEntity
  8
0
100
AcDbLine
 10
89.76444854822911
 20
1333.3780110515827
 30
0.0
 11
90.15006713987485
 21
1333.0184158973786
 31
0.0
  0
LINE
  5
284
330
17
100
AcDbEntity
  8
0
100
AcDbLine
 10
90.15006713987485
 20
1333.0184158973786
 30
0.0
 11
90.56148004325466
 21
1332.6886435575998
 31
0.0
  0
LINE
  5
285
330
17
100
AcDbEntity
  8
0
100
AcDbLine
 10
90.56148004325466
 20
1332.6886435575998
 30
0.0
 11
90.9963864705283
 21
1332.3905382529385
 31
0.0
  0
LINE
  5
286
330
17
100
AcDbEntity
  8
0
100
AcDbLine
 10
90.9963864705283
 20
1332.3905382529385
 30
0.0
 11
91.45235424853989
 21
1332.1257671091835
 31
0.0
  0
LINE
  5
287
330
17
100
AcDbEntity
  8
0
100
AcDbLine
 10
91.45235424853989
 20
1332.1257671091835
 30
0.0
 11
91.92683342051711
 21
1331.8958108339693
 31
0.0
  0
LINE
  5
288
330
17
100
AcDbEntity
  8
0
100
AcDbLine
 10
91.92683342051711
 20
1331.8958108339693
 30
0.0
 11
92.4171705064638
 21
1331.7019554360668
 31
0.0
  0
LINE
  5
289
330
17
100
AcDbEntity
  8
0
100
AcDbLine
 10
92.4171705064638
 20
1331.7019554360668
 30
0.0
 11
92.92062334249596
 21
1331.5452850334964
 31
0.0
  0
LINE
  5
28A
330
17
100
AcDbEntity
  8
0
100
AcDbLine
 10
92.92062334249596
 20
1331.5452850334964
 30
0.0
 11
93.43437641613538
 21
1331.4266757906996
 31
0.0
  0
LINE
  5
28B
330
17
100
AcDbEntity
  8
0
100
AcDbLine
 10
93.43437641613538
 20
1331.4266757906996
 30
0.0
 11
93.95555661179633
 21
1331.346791018676
 31
0.0
  0
LINE
  5
28C
330
17
100
AcDbEntity
  8
0
100
AcDbLine
 10
93.95555661179633
 20
1331.346791018676
 30
0.0
 11
94.48124927841451
 21
1331.3060774654737
 31
0.0
  0
LINE
  5
28D
330
17
100
AcDbEntity
  8
0
100
AcDbLine
 10
94.48124927841451
 20
1331.3060774654737
 30
0.0
 11
95.00851452935761
 21
1331.3047628177983
 31
0.0
  0
LINE
  5
28E
330
17
100
AcDbEntity
  8
0
100
AcDbLine
 10
95.00851452935761
 20
1331.3047628177983
 30
0.0
 11
95.5344036834635
 21
1331.3428544276917
 31
0.0
  0
LINE
  5
28F
330
17
100
AcDbEntity
  8
0
100
AcDbLine
 10
95.5344036834635
 20
1331.3428544276917
 30
0.0
 11
96.05597575526205
 21
1331.4201392714208
 31
0.0
  0
LINE
  5
290
330
17
100
AcDbEntity
  8
0
100
AcDbLine
 10
96.05597575526205
 20
1331.4201392714208
 30
0.0
 11
96.57031390215879
 21
1331.5361851407897
 31
0.0
  0
LINE
  5
291
330
17
100
AcDbEntity
  8
0
100
AcDbLine
 10
96.57031390215879
 20
1331.5361851407897
 30
0.0
 11
97.07454173660079
 21
1331.6903430602244
 31
0.0
  0
LINE
  5
292
330
17
100
AcDbEntity
  8
0
100
AcDbLine
 10
97.07454173660079
 20
1331.6903430602244
 30
0.0
 11
97.56583941200441
 21
1331.8817509161065
 31
0.0
  0
LINE
  5
293
330
17
100
AcDbEntity
  8
0
100
AcDbLine
 10
97.56583941200441
 20
1331.8817509161065
 30
0.0
 11
98.04145939248005
 21
1332.1093382780643
 31
0.0
  0
LINE
  5
294
330
17
100
AcDbEntity
  8
0
100
AcDbLine
 10
98.04145939248005
 20
1332.1093382780643
 30
0.0
 11
98.49874181816743
 21
1332.3718323852518
 31
0.0
  0
LINE
  5
295
330
17
100
AcDbEntity
  8
0
100
AcDbLine
 10
98.49874181816743
 20
1332.3718323852518
 30
0.0
 11
98.93512938025098
 21
1332.6677652641433
 31
0.0
  0
LINE
  5
296
330
17
100
AcDbEntity
  8
0
100
AcDbLine
 10
98.93512938025098
 20
1332.6677652641433
 30
0.0
 11
99.34818162246852
 21
1332.9954819380403
 31
0.0
  0
LINE
  5
297
330
17
100
AcDbEntity
  8
0
100
AcDbLine
 10
99.34818162246852
 20
1332.9954819380403
 30
0.0
 11
99.7355885891319
 21
1333.3531496823664
 31
0.0
  0
LINE
  5
298
330
17
100
AcDbEntity
  8
0
100
AcDbLine
 10
99.7355885891319
 20
1333.3531496823664
 30
0.0
 11
100.09518374333688
 21
1333.7387682740114
 31
0.0
  0
LINE
  5
299
330
17
100
AcDbEntity
  8
0
100
AcDbLine
 10
100.09518374333688
 20
1333.7387682740114
 30
0.0
 11
100.42495608311549
 21
1334.1501811773924
 31
0.0
  0
LINE
  5
29A
330
17
100
AcDbEntity
  8
0
100
AcDbLine
 10
100.42495608311549
 20
1334.1501811773924
 30
0.0
 11
100.72306138777601
 21
1334.5850876046652
 31
0.0
  0
LINE
  5
29B
330
17
100
AcDbEntity
  8
0
100
AcDbLine
 10
100.72306138777601
 20
1334.5850876046652
 30
0.0
 11
100.9878325315317
 21
1335.0410553826766
 31
0.0
  0
LINE
  5
29C
330
17
100
AcDbEntity
  8
0
100
AcDbLine
 10
100.9878325315317
 20
1335.0410553826766
 30
0.0
 11
101.21778880674572
 21
1335.5155345546539
 31
0.0
  0
LINE
  5
29D
330
17
100
AcDbEntity
  8
0
100
AcDbLine
 10
101.21778880674572
 20
1335.5155345546539
 30
0.0
 11
101.41164420464803
 21
1336.0058716406015
 31
0.0
  0
LINE
  5
29E
330
17
100
AcDbEntity
  8
0
100
AcDbLine
 10
101.41164420464803
 20
1336.0058716406015
 30
0.0
 11
101.56831460721865
 21
1336.509324476634
 31
0.0
  0
LINE
  5
29F
330
17
100
AcDbEntity
  8
0
100
AcDbLine
 10
101.56831460721865
 20
1336.509324476634
 30
0.0
 11
101.6869238500149
 21
1337.0230775502725
 31
0.0
  0
LINE
  5
2A0
330
17
100
AcDbEntity
  8
0
100
AcDbLine
 10
101.6869238500149
 20
1337.0230775502725
 30
0.0
 11
101.76680862203897
 21
1337.544257745934
 31
0.0
  0
LINE
  5
2A1
330
17
100
AcDbEntity
  8
0
100
AcDbLine
 10
101.76680862203897
 20
1337.544257745934
 30
0.0
 11
101.8075221752409
 21
1338.0699504125514
 31
0.0
  0
LINE
  5
2A2
330
17
100
AcDbEntity
  8
0
100
AcDbLine
 10
101.8075221752409
 20
1338.0699504125514
 30
0.0
 11
101.80883682291665
 21
1338.5972156634948
 31
0.0
  0
LINE
  5
2A3
330
17
100
AcDbEntity
  8
0
100
AcDbLine
 10
1560.2675714616003
 20
286.8875143929764
 30
0.0
 11
1560.2294798517069
 21
287.41340354708234
 31
0.0
  0
LINE
  5
2A4
330
17
100
AcDbEntity
  8
0
100
AcDbLine
 10
1560.2294798517069
 20
287.41340354708234
 30
0.0
 11
1560.1521950079778
 21
287.9349756188808
 31
0.0
  0
LINE
  5
2A5
330
17
100
AcDbEntity
  8
0
100
AcDbLine
 10
1560.1521950079778
 20
287.9349756188808
 30
0.0
 11
1560.0361491386086
 21
288.44931376577756
 31
0.0
  0
LINE
  5
2A6
330
17
100
AcDbEntity
  8
0
100
AcDbLine
 10
1560.0361491386086
 20
288.44931376577756
 30
0.0
 11
1559.881991219174
 21
288.95354160022
 31
0.0
  0
LINE
  5
2A7
330
17
100
AcDbEntity
  8
0
100
AcDbLine
 10
1559.881991219174
 20
288.95354160022
 30
0.0
 11
1559.690583363293
 21
289.44483927562305
 31
0.0
  0
LINE
  5
2A8
330
17
100
AcDbEntity
  8
0
100
AcDbLine
 10
1559.690583363293
 20
289.44483927562305
 30
0.0
 11
1559.4629960013342
 21
289.9204592560991
 31
0.0
  0
LINE
  5
2A9
330
17
100
AcDbEntity
  8
0
100
AcDbLine
 10
1559.4629960013342
 20
289.9204592560991
 30
0.0
 11
1559.2005018941466
 21
290.37774168178646
 31
0.0
  0
LINE
  5
2AA
330
17
100
AcDbEntity
  8
0
100
AcDbLine
 10
1559.2005018941466
 20
290.37774168178646
 30
0.0
 11
1558.904569015255
 21
290.81412924386973
 31
0.0
  0
LINE
  5
2AB
330
17
100
AcDbEntity
  8
0
100
AcDbLine
 10
1558.904569015255
 20
290.81412924386973
 30
0.0
 11
1558.5768523413594
 21
291.2271814860875
 31
0.0
  0
LINE
  5
2AC
330
17
100
AcDbEntity
  8
0
100
AcDbLine
 10
1558.5768523413594
 20
291.2271814860875
 30
0.0
 11
1558.2191845970335
 21
291.6145884527508
 31
0.0
  0
LINE
  5
2AD
330
17
100
AcDbEntity
  8
0
100
AcDbLine
 10
1558.2191845970335
 20
291.6145884527508
 30
0.0
 11
1557.8335660053872
 21
291.97418360695576
 31
0.0
  0
LINE
  5
2AE
330
17
100
AcDbEntity
  8
0
100
AcDbLine
 10
1557.8335660053872
 20
291.97418360695576
 30
0.0
 11
1557.4221531020073
 21
292.30395594673473
 31
0.0
  0
LINE
  5
2AF
330
17
100
AcDbEntity
  8
0
100
AcDbLine
 10
1557.4221531020073
 20
292.30395594673473
 30
0.0
 11
1556.9872466747333
 21
292.60206125139484
 31
0.0
  0
LINE
  5
2B0
330
17
100
AcDbEntity
  8
0
100
AcDbLine
 10
1556.9872466747333
 20
292.60206125139484
 30
0.0
 11
1556.5312788967217
 21
292.86683239515105
 31
0.0
  0
LINE
  5
2B1
330
17
100
AcDbEntity
  8
0
100
AcDbLine
 10
1556.5312788967217
 20
292.86683239515105
 30
0.0
 11
1556.0567997247445
 21
293.09678867036473
 31
0.0
  0
LINE
  5
2B2
330
17
100
AcDbEntity
  8
0
100
AcDbLine
 10
1556.0567997247445
 20
293.09678867036473
 30
0.0
 11
1555.5664626387982
 21
293.29064406826717
 31
0.0
  0
LINE
  5
2B3
330
17
100
AcDbEntity
  8
0
100
AcDbLine
 10
1555.5664626387982
 20
293.29064406826717
 30
0.0
 11
1555.063009802766
 21
293.4473144708377
 31
0.0
  0
LINE
  5
2B4
330
17
100
AcDbEntity
  8
0
100
AcDbLine
 10
1555.063009802766
 20
293.4473144708377
 30
0.0
 11
1554.5492567291267
 21
293.56592371363377
 31
0.0
  0
LINE
  5
2B5
330
17
100
AcDbEntity
  8
0
100
AcDbLine
 10
1554.5492567291267
 20
293.56592371363377
 30
0.0
 11
1554.028076533466
 21
293.64580848565765
 31
0.0
  0
LINE
  5
2B6
330
17
100
AcDbEntity
  8
0
100
AcDbLine
 10
1554.028076533466
 20
293.64580848565765
 30
0.0
 11
1553.502383866847
 21
293.68652203885983
 31
0.0
  0
LINE
  5
2B7
330
17
100
AcDbEntity
  8
0
100
AcDbLine
 10
1553.502383866847
 20
293.68652203885983
 30
0.0
 11
1552.9751186159046
 21
293.68783668653566
 31
0.0
  0
LINE
  5
2B8
330
17
100
AcDbEntity
  8
0
100
AcDbLine
 10
1552.9751186159046
 20
293.68783668653566
 30
0.0
 11
1552.449229461799
 21
293.64974507664203
 31
0.0
  0
LINE
  5
2B9
330
17
100
AcDbEntity
  8
0
100
AcDbLine
 10
1552.449229461799
 20
293.64974507664203
 30
0.0
 11
1551.9276573900006
 21
293.5724602329126
 31
0.0
  0
LINE
  5
2BA
330
17
100
AcDbEntity
  8
0
100
AcDbLine
 10
1551.9276573900006
 20
293.5724602329126
 30
0.0
 11
1551.4133192431034
 21
293.4564143635439
 31
0.0
  0
LINE
  5
2BB
330
17
100
AcDbEntity
  8
0
100
AcDbLine
 10
1551.4133192431034
 20
293.4564143635439
 30
0.0
 11
1550.909091408661
 21
293.3022564441096
 31
0.0
  0
LINE
  5
2BC
330
17
100
AcDbEntity
  8
0
100
AcDbLine
 10
1550.909091408661
 20
293.3022564441096
 30
0.0
 11
1550.4177937332581
 21
293.11084858822744
 31
0.0
  0
LINE
  5
2BD
330
17
100
AcDbEntity
  8
0
100
AcDbLine
 10
1550.4177937332581
 20
293.11084858822744
 30
0.0
 11
1549.9421737527819
 21
292.8832612262695
 31
0.0
  0
LINE
  5
2BE
330
17
100
AcDbEntity
  8
0
100
AcDbLine
 10
1549.9421737527819
 20
292.8832612262695
 30
0.0
 11
1549.4848913270948
 21
292.62076711908253
 31
0.0
  0
LINE
  5
2BF
330
17
100
AcDbEntity
  8
0
100
AcDbLine
 10
1549.4848913270948
 20
292.62076711908253
 30
0.0
 11
1549.048503765011
 21
292.3248342401903
 31
0.0
  0
LINE
  5
2C0
330
17
100
AcDbEntity
  8
0
100
AcDbLine
 10
1549.048503765011
 20
292.3248342401903
 30
0.0
 11
1548.6354515227931
 21
291.99711756629426
 31
0.0
  0
LINE
  5
2C1
330
17
100
AcDbEntity
  8
0
100
AcDbLine
 10
1548.6354515227931
 20
291.99711756629426
 30
0.0
 11
1548.2480445561298
 21
291.639449821968
 31
0.0
  0
LINE
  5
2C2
330
17
100
AcDbEntity
  8
0
100
AcDbLine
 10
1548.2480445561298
 20
291.639449821968
 30
0.0
 11
1547.8884494019253
 21
291.25383123032213
 31
0.0
  0
LINE
  5
2C3
330
17
100
AcDbEntity
  8
0
100
AcDbLine
 10
1547.8884494019253
 20
291.25383123032213
 30
0.0
 11
1547.5586770621467
 21
290.8424183269425
 31
0.0
  0
LINE
  5
2C4
330
17
100
AcDbEntity
  8
0
100
AcDbLine
 10
1547.5586770621467
 20
290.8424183269425
 30
0.0
 11
1547.2605717574859
 21
290.40751189966863
 31
0.0
  0
LINE
  5
2C5
330
17
100
AcDbEntity
  8
0
100
AcDbLine
 10
1547.2605717574859
 20
290.40751189966863
 30
0.0
 11
1546.9958006137306
 21
289.9515441216573
 31
0.0
  0
LINE
  5
2C6
330
17
100
AcDbEntity
  8
0
100
AcDbLine
 10
1546.9958006137306
 20
289.9515441216573
 30
0.0
 11
1546.765844338516
 21
289.47706494967997
 31
0.0
  0
LINE
  5
2C7
330
17
100
AcDbEntity
  8
0
100
AcDbLine
 10
1546.765844338516
 20
289.47706494967997
 30
0.0
 11
1546.5719889406143
 21
288.986727863733
 31
0.0
  0
LINE
  5
2C8
330
17
100
AcDbEntity
  8
0
100
AcDbLine
 10
1546.5719889406143
 20
288.986727863733
 30
0.0
 11
1546.415318538043
 21
288.48327502770144
 31
0.0
  0
LINE
  5
2C9
330
17
100
AcDbEntity
  8
0
100
AcDbLine
 10
1546.415318538043
 20
288.48327502770144
 30
0.0
 11
1546.296709295247
 21
287.96952195406175
 31
0.0
  0
LINE
  5
2CA
330
17
100
AcDbEntity
  8
0
100
AcDbLine
 10
1546.296709295247
 20
287.96952195406175
 30
0.0
 11
1546.216824523223
 21
287.4483417584006
 31
0.0
  0
LINE
  5
2CB
330
17
100
AcDbEntity
  8
0
100
AcDbLine
 10
1546.216824523223
 20
287.4483417584006
 30
0.0
 11
1546.1761109700208
 21
286.92264909178255
 31
0.0
  0
LINE
  5
2CC
330
17
100
AcDbEntity
  8
0
100
AcDbLine
 10
1546.1761109700208
 20
286.92264909178255
 30
0.0
 11
1546.1747963223454
 21
286.3953838408394
 31
0.0
  0
LINE
  5
2CD
330
17
100
AcDbEntity
  8
0
100
AcDbLine
 10
1546.1747963223454
 20
286.3953838408394
 30
0.0
 11
1546.2128879322388
 21
285.86949468673345
 31
0.0
  0
LINE
  5
2CE
330
17
100
AcDbEntity
  8
0
100
AcDbLine
 10
1546.2128879322388
 20
285.86949468673345
 30
0.0
 11
1546.290172775968
 21
285.347922614935
 31
0.0
  0
LINE
  5
2CF
330
17
100
AcDbEntity
  8
0
100
AcDbLine
 10
1546.290172775968
 20
285.347922614935
 30
0.0
 11
1546.4062186453368
 21
284.8335844680389
 31
0.0
  0
LINE
  5
2D0
330
17
100
AcDbEntity
  8
0
100
AcDbLine
 10
1546.4062186453368
 20
284.8335844680389
 30
0.0
 11
1546.560376564771
 21
284.32935663359626
 31
0.0
  0
LINE
  5
2D1
330
17
100
AcDbEntity
  8
0
100
AcDbLine
 10
1546.560376564771
 20
284.32935663359626
 30
0.0
 11
1546.7517844206538
 21
283.83805895819273
 31
0.0
  0
LINE
  5
2D2
330
17
100
AcDbEntity
  8
0
100
AcDbLine
 10
1546.7517844206538
 20
283.83805895819273
 30
0.0
 11
1546.9793717826112
 21
283.36243897771715
 31
0.0
  0
LINE
  5
2D3
330
17
100
AcDbEntity
  8
0
100
AcDbLine
 10
1546.9793717826112
 20
283.36243897771715
 30
0.0
 11
1547.2418658897989
 21
282.90515655202955
 31
0.0
  0
LINE
  5
2D4
330
17
100
AcDbEntity
  8
0
100
AcDbLine
 10
1547.2418658897989
 20
282.90515655202955
 30
0.0
 11
1547.5377987686904
 21
282.46876898994606
 31
0.0
  0
LINE
  5
2D5
330
17
100
AcDbEntity
  8
0
100
AcDbLine
 10
1547.5377987686904
 20
282.46876898994606
 30
0.0
 11
1547.8655154425874
 21
282.0557167477285
 31
0.0
  0
LINE
  5
2D6
330
17
100
AcDbEntity
  8
0
100
AcDbLine
 10
1547.8655154425874
 20
282.0557167477285
 30
0.0
 11
1548.223183186913
 21
281.66830978106543
 31
0.0
  0
LINE
  5
2D7
330
17
100
AcDbEntity
  8
0
100
AcDbLine
 10
1548.223183186913
 20
281.66830978106543
 30
0.0
 11
1548.6088017785585
 21
281.3087146268605
 31
0.0
  0
LINE
  5
2D8
330
17
100
AcDbEntity
  8
0
100
AcDbLine
 10
1548.6088017785585
 20
281.3087146268605
 30
0.0
 11
1549.0202146819383
 21
280.97894228708174
 31
0.0
  0
LINE
  5
2D9
330
17
100
AcDbEntity
  8
0
100
AcDbLine
 10
1549.0202146819383
 20
280.97894228708174
 30
0.0
 11
1549.455121109212
 21
280.68083698242094
 31
0.0
  0
LINE
  5
2DA
330
17
100
AcDbEntity
  8
0
100
AcDbLine
 10
1549.455121109212
 20
280.68083698242094
 30
0.0
 11
1549.9110888872237
 21
280.4160658386654
 31
0.0
  0
LINE
  5
2DB
330
17
100
AcDbEntity
  8
0
100
AcDbLine
 10
1549.9110888872237
 20
280.4160658386654
 30
0.0
 11
1550.385568059201
 21
280.1861095634515
 31
0.0
  0
LINE
  5
2DC
330
17
100
AcDbEntity
  8
0
100
AcDbLine
 10
1550.385568059201
 20
280.1861095634515
 30
0.0
 11
1550.8759051451482
 21
279.99225416554884
 31
0.0
  0
LINE
  5
2DD
330
17
100
AcDbEntity
  8
0
100
AcDbLine
 10
1550.8759051451482
 20
279.99225416554884
 30
0.0
 11
1551.3793579811795
 21
279.83558376297833
 31
0.0
  0
LINE
  5
2DE
330
17
100
AcDbEntity
  8
0
100
AcDbLine
 10
1551.3793579811795
 20
279.83558376297833
 30
0.0
 11
1551.893111054819
 21
279.716974520182
 31
0.0
  0
LINE
  5
2DF
330
17
100
AcDbEntity
  8
0
100
AcDbLine
 10
1551.893111054819
 20
279.716974520182
 30
0.0
 11
1552.4142912504808
 21
279.63708974815836
 31
0.0
  0
LINE
  5
2E0
330
17
100
AcDbEntity
  8
0
100
AcDbLine
 10
1552.4142912504808
 20
279.63708974815836
 30
0.0
 11
1552.9399839170987
 21
279.5963761949562
 31
0.0
  0
LINE
  5
2E1
330
17
100
AcDbEntity
  8
0
100
AcDbLine
 10
1552.9399839170987
 20
279.5963761949562
 30
0.0
 11
1553.4672491680417
 21
279.5950615472801
 31
0.0
  0
LINE
  5
2E2
330
17
100
AcDbEntity
  8
0
100
AcDbLine
 10
1553.4672491680417
 20
279.5950615472801
 30
0.0
 11
1553.9931383221467
 21
279.633153157174
 31
0.0
  0
LINE
  5
2E3
330
17
100
AcDbEntity
  8
0
100
AcDbLine
 10
1553.9931383221467
 20
279.633153157174
 30
0.0
 11
1554.5147103939462
 21
279.7104380009034
 31
0.0
  0
LINE
  5
2E4
330
17
100
AcDbEntity
  8
0
100
AcDbLine
 10
1554.5147103939462
 20
279.7104380009034
 30
0.0
 11
1555.0290485408423
 21
279.8264838702719
 31
0.0
  0
LINE
  5
2E5
330
17
100
AcDbEntity
  8
0
100
AcDbLine
 10
1555.0290485408423
 20
279.8264838702719
 30
0.0
 11
1555.5332763752845
 21
279.9806417897064
 31
0.0
  0
LINE
  5
2E6
330
17
100
AcDbEntity
  8
0
100
AcDbLine
 10
1555.5332763752845
 20
279.9806417897064
 30
0.0
 11
1556.0245740506882
 21
280.1720496455886
 31
0.0
  0
LINE
  5
2E7
330
17
100
AcDbEntity
  8
0
100
AcDbLine
 10
1556.0245740506882
 20
280.1720496455886
 30
0.0
 11
1556.5001940311636
 21
280.39963700754674
 31
0.0
  0
LINE
  5
2E8
330
17
100
AcDbEntity
  8
0
100
AcDbLine
 10
1556.5001940311636
 20
280.39963700754674
 30
0.0
 11
1556.9574764568506
 21
280.66213111473394
 31
0.0
  0
LINE
  5
2E9
330
17
100
AcDbEntity
  8
0
100
AcDbLine
 10
1556.9574764568506
 20
280.66213111473394
 30
0.0
 11
1557.3938640189344
 21
280.9580639936255
 31
0.0
  0
LINE
  5
2EA
330
17
100
AcDbEntity
  8
0
100
AcDbLine
 10
1557.3938640189344
 20
280.9580639936255
 30
0.0
 11
1557.8069162611525
 21
281.2857806675222
 31
0.0
  0
LINE
  5
2EB
330
17
100
AcDbEntity
  8
0
100
AcDbLine
 10
1557.8069162611525
 20
281.2857806675222
 30
0.0
 11
1558.1943232278159
 21
281.64344841184777
 31
0.0
  0
LINE
  5
2EC
330
17
100
AcDbEntity
  8
0
100
AcDbLine
 10
1558.1943232278159
 20
281.64344841184777
 30
0.0
 11
1558.5539183820213
 21
282.0290670034941
 31
0.0
  0
LINE
  5
2ED
330
17
100
AcDbEntity
  8
0
100
AcDbLine
 10
1558.5539183820213
 20
282.0290670034941
 30
0.0
 11
1558.8836907218001
 21
282.4404799068735
 31
0.0
  0
LINE
  5
2EE
330
17
100
AcDbEntity
  8
0
100
AcDbLine
 10
1558.8836907218001
 20
282.4404799068735
 30
0.0
 11
1559.1817960264596
 21
282.87538633414715
 31
0.0
  0
LINE
  5
2EF
330
17
100
AcDbEntity
  8
0
100
AcDbLine
 10
1559.1817960264596
 20
282.87538633414715
 30
0.0
 11
1559.4465671702148
 21
283.3313541121587
 31
0.0
  0
LINE
  5
2F0
330
17
100
AcDbEntity
  8
0
100
AcDbLine
 10
1559.4465671702148
 20
283.3313541121587
 30
0.0
 11
1559.6765234454294
 21
283.80583328413627
 31
0.0
  0
LINE
  5
2F1
330
17
100
AcDbEntity
  8
0
100
AcDbLine
 10
1559.6765234454294
 20
283.80583328413627
 30
0.0
 11
1559.8703788433324
 21
284.2961703700828
 31
0.0
  0
LINE
  5
2F2
330
17
100
AcDbEntity
  8
0
100
AcDbLine
 10
1559.8703788433324
 20
284.2961703700828
 30
0.0
 11
1560.0270492459022
 21
284.7996232061148
 31
0.0
  0
LINE
  5
2F3
330
17
100
AcDbEntity
  8
0
100
AcDbLine
 10
1560.0270492459022
 20
284.7996232061148
 30
0.0
 11
1560.1456584886985
 21
285.3133762797547
 31
0.0
  0
LINE
  5
2F4
330
17
100
AcDbEntity
  8
0
100
AcDbLine
 10
1560.1456584886985
 20
285.3133762797547
 30
0.0
 11
1560.2255432607226
 21
285.8345564754152
 31
0.0
  0
LINE
  5
2F5
330
17
100
AcDbEntity
  8
0
100
AcDbLine
 10
1560.2255432607226
 20
285.8345564754152
 30
0.0
 11
1560.2662568139249
 21
286.36024914203324
 31
0.0
  0
LINE
  5
2F6
330
17
100
AcDbEntity
  8
0
100
AcDbLine
 10
1560.2662568139249
 20
286.36024914203324
 30
0.0
 11
1560.2675714616003
 21
286.8875143929764
 31
0.0
  0
LINE
  5
2F7
330
17
100
AcDbEntity
  8
0
100
AcDbLine
 10
1009.634438140668
 20
601.9496969820854
 30
0.0
 11
1011.1368840305568
 21
600.5753103514755
 31
0.0
  0
LINE
  5
2F8
330
17
100
AcDbEntity
  8
0
100
AcDbLine
 10
1011.1368840305568
 20
600.5753103514755
 30
0.0
 11
1012.6653804770041
 21
599.229955054298
 31
0.0
  0
LINE
  5
2F9
330
17
100
AcDbEntity
  8
0
100
AcDbLine
 10
1012.6653804770041
 20
599.229955054298
 30
0.0
 11
1014.2193666087281
 21
597.914124759445
 31
0.0
  0
LINE
  5
2FA
330
17
100
AcDbEntity
  8
0
100
AcDbLine
 10
1014.2193666087281
 20
597.914124759445
 30
0.0
 11
1015.7982722011849
 21
596.6283023018118
 31
0.0
  0
LINE
  5
2FB
330
17
100
AcDbEntity
  8
0
100
AcDbLine
 10
1015.7982722011849
 20
596.6283023018118
 30
0.0
 11
1017.4015178858043
 21
595.3729595051251
 31
0.0
  0
LINE
  5
2FC
330
17
100
AcDbEntity
  8
0
100
AcDbLine
 10
1017.4015178858043
 20
595.3729595051251
 30
0.0
 11
1019.0285153625856
 21
594.1485570088068
 31
0.0
  0
LINE
  5
2FD
330
17
100
AcDbEntity
  8
0
100
AcDbLine
 10
1019.0285153625856
 20
594.1485570088068
 30
0.0
 11
1020.6786676159726
 21
592.9555440989493
 31
0.0
  0
LINE
  5
2FE
330
17
100
AcDbEntity
  8
0
100
AcDbLine
 10
1020.6786676159726
 20
592.9555440989493
 30
0.0
 11
1022.351369133921
 21
591.7943585434515
 31
0.0
  0
LINE
  5
2FF
330
17
100
AcDbEntity
  8
0
100
AcDbLine
 10
1022.351369133921
 20
591.7943585434515
 30
0.0
 11
1024.0460061300903
 21
590.6654264313836
 31
0.0
  0
LINE
  5
300
330
17
100
AcDbEntity
  8
0
100
AcDbLine
 10
1024.0460061300903
 20
590.6654264313836
 30
0.0
 11
1025.7619567690658
 21
589.5691620166347
 31
0.0
  0
LINE
  5
301
330
17
100
AcDbEntity
  8
0
100
AcDbLine
 10
1025.7619567690658
 20
589.5691620166347
 30
0.0
 11
1027.498591394538
 21
588.5059675659083
 31
0.0
  0
LINE
  5
302
330
17
100
AcDbEntity
  8
0
100
AcDbLine
 10
1027.498591394538
 20
588.5059675659083
 30
0.0
 11
1029.2552727603504
 21
587.4762332111106
 31
0.0
  0
LINE
  5
303
330
17
100
AcDbEntity
  8
0
100
AcDbLine
 10
1029.2552727603504
 20
587.4762332111106
 30
0.0
 11
1031.0313562643332
 21
586.4803368061956
 31
0.0
  0
LINE
  5
304
330
17
100
AcDbEntity
  8
0
100
AcDbLine
 10
1031.0313562643332
 20
586.4803368061956
 30
0.0
 11
1032.8261901848355
 21
585.5186437885125
 31
0.0
  0
LINE
  5
305
330
17
100
AcDbEntity
  8
0
100
AcDbLine
 10
1032.8261901848355
 20
585.5186437885125
 30
0.0
 11
1034.6391159198683
 21
584.5915070447147
 31
0.0
  0
LINE
  5
306
330
17
100
AcDbEntity
  8
0
100
AcDbLine
 10
1034.6391159198683
 20
584.5915070447147
 30
0.0
 11
1036.4694682287766
 21
583.6992667812667
 31
0.0
  0
LINE
  5
307
330
17
100
AcDbEntity
  8
0
100
AcDbLine
 10
1036.4694682287766
 20
583.6992667812667
 30
0.0
 11
1038.3165754763434
 21
582.8422503996087
 31
0.0
  0
LINE
  5
308
330
17
100
AcDbEntity
  8
0
100
AcDbLine
 10
1038.3165754763434
 20
582.8422503996087
 30
0.0
 11
1040.1797598792423
 21
582.0207723760204
 31
0.0
  0
LINE
  5
309
330
17
100
AcDbEntity
  8
0
100
AcDbLine
 10
1040.1797598792423
 20
582.0207723760204
 30
0.0
 11
1042.0583377547448
 21
581.2351341462236
 31
0.0
  0
LINE
  5
30A
330
17
100
AcDbEntity
  8
0
100
AcDbLine
 10
1042.0583377547448
 20
581.2351341462236
 30
0.0
 11
1043.951619771592
 21
580.4856239947743
 31
0.0
  0
LINE
  5
30B
330
17
100
AcDbEntity
  8
0
100
AcDbLine
 10
1043.951619771592
 20
580.4856239947743
 30
0.0
 11
1045.858911202944
 21
579.7725169492794
 31
0.0
  0
LINE
  5
30C
330
17
100
AcDbEntity
  8
0
100
AcDbLine
 10
1045.858911202944
 20
579.7725169492794
 30
0.0
 11
1047.7795121813008
 21
579.0960746794735
 31
0.0
  0
LINE
  5
30D
330
17
100
AcDbEntity
  8
0
100
AcDbLine
 10
1047.7795121813008
 20
579.0960746794735
 30
0.0
 11
1049.7127179553152
 21
578.4565454012054
 31
0.0
  0
LINE
  5
30E
330
17
100
AcDbEntity
  8
0
100
AcDbLine
 10
1049.7127179553152
 20
578.4565454012054
 30
0.0
 11
1051.657819148397
 21
577.8541637853546
 31
0.0
  0
LINE
  5
30F
330
17
100
AcDbEntity
  8
0
100
AcDbLine
 10
1051.657819148397
 20
577.8541637853546
 30
0.0
 11
1053.6141020190141
 21
577.2891508717196
 31
0.0
  0
LINE
  5
310
330
17
100
AcDbEntity
  8
0
100
AcDbLine
 10
1053.6141020190141
 20
577.2891508717196
 30
0.0
 11
1055.5808487225943
 21
576.7617139879114
 31
0.0
  0
LINE
  5
311
330
17
100
AcDbEntity
  8
0
100
AcDbLine
 10
1055.5808487225943
 20
576.7617139879114
 30
0.0
 11
1057.5573375749332
 21
576.2720466732746
 31
0.0
  0
LINE
  5
312
330
17
100
AcDbEntity
  8
0
100
AcDbLine
 10
1057.5573375749332
 20
576.2720466732746
 30
0.0
 11
1059.5428433170127
 21
575.8203286078697
 31
0.0
  0
LINE
  5
313
330
17
100
AcDbEntity
  8
0
100
AcDbLine
 10
1059.5428433170127
 20
575.8203286078697
 30
0.0
 11
1061.5366373811285
 21
575.4067255465393
 31
0.0
  0
LINE
  5
314
330
17
100
AcDbEntity
  8
0
100
AcDbLine
 10
1061.5366373811285
 20
575.4067255465393
 30
0.0
 11
1063.5379881582328
 21
575.0313892580893
 31
0.0
  0
LINE
  5
315
330
17
100
AcDbEntity
  8
0
100
AcDbLine
 10
1063.5379881582328
 20
575.0313892580893
 30
0.0
 11
1065.5461612663944
 21
574.6944574695935
 31
0.0
  0
LINE
  5
316
330
17
100
AcDbEntity
  8
0
100
AcDbLine
 10
1065.5461612663944
 20
574.6944574695935
 30
0.0
 11
1067.560419820276
 21
574.3960538158598
 31
0.0
  0
LINE
  5
317
330
17
100
AcDbEntity
  8
0
100
AcDbLine
 10
1067.560419820276
 20
574.3960538158598
 30
0.0
 11
1069.5800247015243
 21
574.1362877940606
 31
0.0
  0
LINE
  5
318
330
17
100
AcDbEntity
  8
0
100
AcDbLine
 10
1069.5800247015243
 20
574.1362877940606
 30
0.0
 11
1071.6042348299907
 21
573.915254723555
 31
0.0
  0
LINE
  5
319
330
17
100
AcDbEntity
  8
0
100
AcDbLine
 10
1071.6042348299907
 20
573.915254723555
 30
0.0
 11
1073.6323074356624
 21
573.7330357109101
 31
0.0
  0
LINE
  5
31A
330
17
100
AcDbEntity
  8
0
100
AcDbLine
 10
1073.6323074356624
 20
573.7330357109101
 30
0.0
 11
1075.6634983312158
 21
573.589697620143
 31
0.0
  0
LINE
  5
31B
330
17
100
AcDbEntity
  8
0
100
AcDbLine
 10
1075.6634983312158
 20
573.589697620143
 30
0.0
 11
1077.6970621850935
 21
573.4852930481819
 31
0.0
  0
LINE
  5
31C
330
17
100
AcDbEntity
  8
0
100
AcDbLine
 10
1077.6970621850935
 20
573.4852930481819
 30
0.0
 11
1079.7322527949966
 21
573.4198603055677
 31
0.0
  0
LINE
  5
31D
330
17
100
AcDbEntity
  8
0
100
AcDbLine
 10
1079.7322527949966
 20
573.4198603055677
 30
0.0
 11
1081.7683233617
 21
573.3934234023972
 31
0.0
  0
LINE
  5
31E
330
17
100
AcDbEntity
  8
0
100
AcDbLine
 10
1081.7683233617
 20
573.3934234023972
 30
0.0
 11
1083.8045267630832
 21
573.4059920395091
 31
0.0
  0
LINE
  5
31F
330
17
100
AcDbEntity
  8
0
100
AcDbLine
 10
1083.8045267630832
 20
573.4059920395091
 30
0.0
 11
1085.8401158282843
 21
573.457561604929
 31
0.0
  0
LINE
  5
320
330
17
100
AcDbEntity
  8
0
100
AcDbLine
 10
1085.8401158282843
 20
573.4575616049312
 30
0.0
 11
1084.467569203603
 21
573.3896324276199
 31
0.0
  0
LINE
  5
321
330
17
100
AcDbEntity
  8
0
100
AcDbLine
 10
1084.467569203603
 20
573.3896324276199
 30
0.0
 11
1083.0975789356753
 21
573.2818118552013
 31
0.0
  0
LINE
  5
322
330
17
100
AcDbEntity
  8
0
100
AcDbLine
 10
1083.0975789356753
 20
573.2818118552013
 30
0.0
 11
1081.7313041730413
 21
573.1341911146427
 31
0.0
  0
LINE
  5
323
330
17
100
AcDbEntity
  8
0
100
AcDbLine
 10
1081.7313041730413
 20
573.1341911146427
 30
0.0
 11
1080.3699009205532
 21
572.9468951078297
 31
0.0
  0
LINE
  5
324
330
17
100
AcDbEntity
  8
0
100
AcDbLine
 10
1080.3699009205532
 20
572.9468951078297
 30
0.0
 11
1079.0145210612786
 21
572.720082305882
 31
0.0
  0
LINE
  5
325
330
17
100
AcDbEntity
  8
0
100
AcDbLine
 10
1079.0145210612786
 20
572.720082305882
 30
0.0
 11
1077.6663113818943
 21
572.453944615075
 31
0.0
  0
LINE
  5
326
330
17
100
AcDbEntity
  8
0
100
AcDbLine
 10
1077.6663113818943
 20
572.453944615075
 30
0.0
 11
1076.326412602388
 21
572.1487072144647
 31
0.0
  0
LINE
  5
327
330
17
100
AcDbEntity
  8
0
100
AcDbLine
 10
1076.326412602388
 20
572.1487072144647
 30
0.0
 11
1074.9959584108967
 21
571.8046283653646
 31
0.0
  0
LINE
  5
328
330
17
100
AcDbEntity
  8
0
100
AcDbLine
 10
1074.9959584108967
 20
571.8046283653646
 30
0.0
 11
1073.6760745044937
 21
571.4219991928344
 31
0.0
  0
LINE
  5
329
330
17
100
AcDbEntity
  8
0
100
AcDbLine
 10
1073.6760745044937
 20
571.4219991928344
 30
0.0
 11
1072.3678776367344
 21
571.0011434393515
 31
0.0
  0
LINE
  5
32A
330
17
100
AcDbEntity
  8
0
100
AcDbLine
 10
1072.3678776367344
 20
571.0011434393515
 30
0.0
 11
1071.0724746727742
 21
570.5424171909019
 31
0.0
  0
LINE
  5
32B
330
17
100
AcDbEntity
  8
0
100
AcDbLine
 10
1071.0724746727742
 20
570.5424171909019
 30
0.0
 11
1069.7909616528475
 21
570.0462085756883
 31
0.0
  0
LINE
  5
32C
330
17
100
AcDbEntity
  8
0
100
AcDbLine
 10
1069.7909616528475
 20
570.0462085756883
 30
0.0
 11
1068.52442286491
 21
569.5129374357382
 31
0.0
  0
LINE
  5
32D
330
17
100
AcDbEntity
  8
0
100
AcDbLine
 10
1068.52442286491
 20
569.5129374357382
 30
0.0
 11
1067.273929927222
 21
568.943054971676
 31
0.0
  0
LINE
  5
32E
330
17
100
AcDbEntity
  8
0
100
AcDbLine
 10
1067.273929927222
 20
568.943054971676
 30
0.0
 11
1066.0405408816523
 21
568.3370433609603
 31
0.0
  0
LINE
  5
32F
330
17
100
AcDbEntity
  8
0
100
AcDbLine
 10
1066.0405408816523
 20
568.3370433609603
 30
0.0
 11
1064.8252992984694
 21
567.6954153499148
 31
0.0
  0
LINE
  5
330
330
17
100
AcDbEntity
  8
0
100
AcDbLine
 10
1064.8252992984694
 20
567.6954153499148
 30
0.0
 11
1063.6292333933777
 21
567.0187138198953
 31
0.0
  0
LINE
  5
331
330
17
100
AcDbEntity
  8
0
100
AcDbLine
 10
1063.6292333933777
 20
567.0187138198953
 30
0.0
 11
1062.4533551575423
 21
566.3075113279549
 31
0.0
  0
LINE
  5
332
330
17
100
AcDbEntity
  8
0
100
AcDbLine
 10
1062.4533551575423
 20
566.3075113279549
 30
0.0
 11
1061.2986595013458
 21
565.5624096224046
 31
0.0
  0
LINE
  5
333
330
17
100
AcDbEntity
  8
0
100
AcDbLine
 10
1061.2986595013458
 20
565.5624096224046
 30
0.0
 11
1060.1661234125922
 21
564.7840391336754
 31
0.0
  0
LINE
  5
334
330
17
100
AcDbEntity
  8
0
100
AcDbLine
 10
1060.1661234125922
 20
564.7840391336754
 30
0.0
 11
1059.0567051298808
 21
563.9730584409094
 31
0.0
  0
LINE
  5
335
330
17
100
AcDbEntity
  8
0
100
AcDbLine
 10
1059.0567051298808
 20
563.9730584409094
 30
0.0
 11
1057.9713433318375
 21
563.1301537147376
 31
0.0
  0
LINE
  5
336
330
17
100
AcDbEntity
  8
0
100
AcDbLine
 10
1057.9713433318375
 20
563.1301537147376
 30
0.0
 11
1056.9109563429017
 21
562.2560381367108
 31
0.0
  0
LINE
  5
337
330
17
100
AcDbEntity
  8
0
100
AcDbLine
 10
1056.9109563429017
 20
562.2560381367108
 30
0.0
 11
1055.8764413563308
 21
561.351451295875
 31
0.0
  0
LINE
  5
338
330
17
100
AcDbEntity
  8
0
100
AcDbLine
 10
1055.8764413563308
 20
561.351451295875
 30
0.0
 11
1054.8686736750833
 21
560.4171585630072
 31
0.0
  0
LINE
  5
339
330
17
100
AcDbEntity
  8
0
100
AcDbLine
 10
1054.8686736750833
 20
560.4171585630072
 30
0.0
 11
1053.8885059712306
 21
559.4539504430368
 31
0.0
  0
LINE
  5
33A
330
17
100
AcDbEntity
  8
0
100
AcDbLine
 10
1053.8885059712306
 20
559.4539504430368
 30
0.0
 11
1052.9367675645046
 21
558.462641906194
 31
0.0
  0
ENDSEC
  0
SECTION
  2
OBJECTS
  0
DICTIONARY
  5
A
330
0
100
AcDbDictionary
281
1
  3
ACAD_COLOR
350
B
  3
ACAD_GROUP
350
C
  3
ACAD_LAYOUT
350
D
  3
ACAD_MATERIAL
350
E
  3
ACAD_MLEADERSTYLE
350
F
  3
ACAD_MLINESTYLE
350
10
  3
ACAD_PLOTSETTINGS
350
11
  3
ACAD_PLOTSTYLENAME
350
12
  3
ACAD_SCALELIST
350
14
  3
ACAD_TABLESTYLE
350
15
  3
ACAD_VISUALSTYLE
350
16
  3
EZDXF_META
350
2D
  0
DICTIONARY
  5
B
330
A
100
AcDbDictionary
281
1
  0
DICTIONARY
  5
C
330
A
100
AcDbDictionary
281
1
  0
DICTIONARY
  5
D
330
A
100
AcDbDictionary
281
1
  3
Model
350
1A
  3
Layout1
350
1E
  0
DICTIONARY
  5
E
330
A
100
AcDbDictionary
281
1
  3
ByBlock
350
1F
  3
ByLayer
350
20
  3
Global
350
21
  0
DICTIONARY
  5
F
330
A
100
AcDbDictionary
281
1
  3
Standard
350
2C
  0
DICTIONARY
  5
10
330
A
100
AcDbDictionary
281
1
  3
Standard
350
22
  0
DICTIONARY
  5
11
330
A
100
AcDbDictionary
281
1
  0
ACDBDICTIONARYWDFLT
  5
12
330
A
100
AcDbDictionary
281
1
  3
Normal
350
13
100
AcDbDictionaryWithDefault
340
13
  0
ACDBPLACEHOLDER
  5
13
330
12
  0
DICTIONARY
  5
14
330
A
100
AcDbDictionary
281
1
  0
DICTIONARY
  5
15
330
A
100
AcDbDictionary
281
1
  0
DICTIONARY
  5
16
330
A
100
AcDbDictionary
281
1
  0
LAYOUT
  5
1A
330
D
100
AcDbPlotSettings
  1

  4
A3
  6

 40
7.5
 41
20.0
 42
7.5
 43
20.0
 44
420.0
 45
297.0
 46
0.0
 47
0.0
 48
0.0
 49
0.0
140
0.0
141
0.0
142
1.0
143
1.0
 70
1024
 72
1
 73
0
 74
5
  7

 75
16
 76
0
 77
2
 78
300
147
1.0
148
0.0
149
0.0
100
AcDbLayout
  1
Model
 70
1
 71
0
 10
0.0
 20
0.0
 11
420.0
 21
297.0
 12
0.0
 22
0.0
 32
0.0
 14
1e+20
 24
1e+20
 34
1e+20
 15
-1e+20
 25
-1e+20
 35
-1e+20
146
0.0
 13
0.0
 23
0.0
 33
0.0
 16
1.0
 26
0.0
 36
0.0
 17
0.0
 27
1.0
 37
0.0
 76
1
330
17
  0
LAYOUT
  5
1E
330
D
100
AcDbPlotSettings
  1

  4
A3
  6

 40
7.5
 41
20.0
 42
7.5
 43
20.0
 44
420.0
 45
297.0
 46
0.0
 47
0.0
 48
0.0
 49
0.0
140
0.0
141
0.0
142
1.0
143
1.0
 70
0
 72
1
 73
0
 74
5
  7

 75
16
 76
0
 77
2
 78
300
147
1.0
148
0.0
149
0.0
100
AcDbLayout
  1
Layout1
 70
1
 71
1
 10
0.0
 20
0.0
 11
420.0
 21
297.0
 12
0.0
 22
0.0
 32
0.0
 14
1e+20
 24
1e+20
 34
1e+20
 15
-1e+20
 25
-1e+20
 35
-1e+20
146
0.0
 13
0.0
 23
0.0
 33
0.0
 16
1.0
 26
0.0
 36
0.0
 17
0.0
 27
1.0
 37
0.0
 76
1
330
1B
  0
MATERIAL
  5
1F
102
{ACAD_REACTORS
330
E
102
}
330
E
100
AcDbMaterial
  1
ByBlock
  2

 70
0
 40
1.0
 71
1
 41
1.0
 91
-1023410177
 42
1.0
 72
1
  3

 73
1
 74
1
 75
1
 44
0.5
 73
0
 45
1.0
 46
1.0
 77
1
  4

 78
1
 79
1
170
1
 48
1.0
171
1
  6

172
1
173
1
174
1
140
1.0
141
1.0
175
1
  7

176
1
177
1
178
1
143
1.0
179
1
  8

270
1
271
1
272
1
145
1.0
146
1.0
273
1
  9

274
1
275
1
276
1
 42
1.0
 72
1
  3

 73
1
 74
1
 75
1
 94
63
  0
MATERIAL
  5
20
102
{ACAD_REACTORS
330
E
102
}
330
E
100
AcDbMaterial
  1
ByLayer
  2

 70
0
 40
1.0
 71
1
 41
1.0
 91
-1023410177
 42
1.0
 72
1
  3

 73
1
 74
1
 75
1
 44
0.5
 73
0
 45
1.0
 46
1.0
 77
1
  4

 78
1
 79
1
170
1
 48
1.0
171
1
  6

172
1
173
1
174
1
140
1.0
141
1.0
175
1
  7

176
1
177
1
178
1
143
1.0
179
1
  8

270
1
271
1
272
1
145
1.0
146
1.0
273
1
  9

274
1
275
1
276
1
 42
1.0
 72
1
  3

 73
1
 74
1
 75
1
 94
63
  0
MATERIAL
  5
21
102
{ACAD_REACTORS
330
E
102
}
330
E
100
AcDbMaterial
  1
Global
  2

 70
0
 40
1.0
 71
1
 41
1.0
 91
-1023410177
 42
1.0
 72
1
  3

 73
1
 74
1
 75
1
 44
0.5
 73
0
 45
1.0
 46
1.0
 77
1
  4

 78
1
 79
1
170
1
 48
1.0
171
1
  6

172
1
173
1
174
1
140
1.0
141
1.0
175
1
  7

176
1
177
1
178
1
143
1.0
179
1
  8

270
1
271
1
272
1
145
1.0
146
1.0
273
1
  9

274
1
275
1
276
1
 42
1.0
 72
1
  3

 73
1
 74
1
 75
1
 94
63
  0
MLINESTYLE
  5
22
102
{ACAD_REACTORS
330
10
102
}
330
10
100
AcDbMlineStyle
  2
Standard
 70
0
  3

 62
256
 51
90.0
 52
90.0
 71
2
 49
0.5
 62
256
  6
BYLAYER
 49
-0.5
 62
256
  6
BYLAYER
  0
MLEADERSTYLE
  5
2C
102
{ACAD_REACTORS
330
F
102
}
330
F
100
AcDbMLeaderStyle
179
2
170
2
171
1
172
0
 90
2
 40
0.0
 41
0.0
173
1
 91
-1056964608
 92
-2
290
1
 42
2.0
291
1
 43
8.0
  3
Standard
 44
4.0
300

342
29
174
1
175
1
176
0
178
1
 93
-1056964608
 45
4.0
292
0
297
0
 46
4.0
 94
-1056964608
 47
1.0
 49
1.0
140
1.0
294
1
141
0.0
177
0
142
1.0
295
0
296
0
143
3.75
271
0
272
9
273
9
  0
DICTIONARY
  5
2D
330
A
100
AcDbDictionary
280
1
281
1
  3
CREATED_BY_EZDXF
350
2E
  3
WRITTEN_BY_EZDXF
350
33D
  0
DICTIONARYVAR
  5
2E
330
2D
100
DictionaryVariables
280
0
  1
1.4.3 @ 2026-04-16T08:37:56.733167+00:00
  0
DICTIONARYVAR
  5
33D
330
2D
100
DictionaryVariables
280
0
  1
1.4.3 @ 2026-04-16T08:37:56.765952+00:00
  0
ENDSEC
  0
EOF
