  0
SECTION
  2
HEADER
  9
$ACADVER
  1
AC1024
  9
$ACADMAINTVER
 70
6
  9
$DWGCODEPAGE
  3
ANSI_1252
  9
$LASTSAVEDBY
  1
ezdxf
  9
$INSBASE
 10
0.0
 20
0.0
 30
0.0
  9
$EXTMIN
 10
1e+20
 20
1e+20
 30
1e+20
  9
$EXTMAX
 10
-1e+20
 20
-1e+20
 30
-1e+20
  9
$LIMMIN
 10
0.0
 20
0.0
  9
$LIMMAX
 10
420.0
 20
297.0
  9
$ORTHOMODE
 70
0
  9
$REGENMODE
 70
1
  9
$FILLMODE
 70
1
  9
$QTEXTMODE
 70
0
  9
$MIRRTEXT
 70
1
  9
$LTSCALE
 40
1.0
  9
$ATTMODE
 70
1
  9
$TEXTSIZE
 40
2.5
  9
$TRACEWID
 40
1.0
  9
$TEXTSTYLE
  7
Standard
  9
$CLAYER
  8
0
  9
$CELTYPE
  6
ByLayer
  9
$CECOLOR
 62
256
  9
$CELTSCALE
 40
1.0
  9
$DISPSILH
 70
0
  9
$DIMSCALE
 40
1.0
  9
$DIMASZ
 40
2.5
  9
$DIMEXO
 40
0.625
  9
$DIMDLI
 40
3.75
  9
$DIMRND
 40
0.0
  9
$DIMDLE
 40
0.0
  9
$DIMEXE
 40
1.25
  9
$DIMTP
 40
0.0
  9
$DIMTM
 40
0.0
  9
$DIMTXT
 40
2.5
  9
$DIMCEN
 40
2.5
  9
$DIMTSZ
 40
0.0
  9
$DIMTOL
 70
0
  9
$DIMLIM
 70
0
  9
$DIMTIH
 70
0
  9
$DIMTOH
 70
0
  9
$DIMSE1
 70
0
  9
$DIMSE2
 70
0
  9
$DIMTAD
 70
1
  9
$DIMZIN
 70
8
  9
$DIMBLK
  1

  9
$DIMASO
 70
1
  9
$DIMSHO
 70
1
  9
$DIMPOST
  1

  9
$DIMAPOST
  1

  9
$DIMALT
 70
0
  9
$DIMALTD
 70
3
  9
$DIMALTF
 40
0.03937007874
  9
$DIMLFAC
 40
1.0
  9
$DIMTOFL
 70
1
  9
$DIMTVP
 40
0.0
  9
$DIMTIX
 70
0
  9
$DIMSOXD
 70
0
  9
$DIMSAH
 70
0
  9
$DIMBLK1
  1

  9
$DIMBLK2
  1

  9
$DIMSTYLE
  2
ISO-25
  9
$DIMCLRD
 70
0
  9
$DIMCLRE
 70
0
  9
$DIMCLRT
 70
0
  9
$DIMTFAC
 40
1.0
  9
$DIMGAP
 40
0.625
  9
$DIMJUST
 70
0
  9
$DIMSD1
 70
0
  9
$DIMSD2
 70
0
  9
$DIMTOLJ
 70
0
  9
$DIMTZIN
 70
8
  9
$DIMALTZ
 70
0
  9
$DIMALTTZ
 70
0
  9
$DIMUPT
 70
0
  9
$DIMDEC
 70
2
  9
$DIMTDEC
 70
2
  9
$DIMALTU
 70
2
  9
$DIMALTTD
 70
3
  9
$DIMTXSTY
  7
Standard
  9
$DIMAUNIT
 70
0
  9
$DIMADEC
 70
0
  9
$DIMALTRND
 40
0.0
  9
$DIMAZIN
 70
0
  9
$DIMDSEP
 70
44
  9
$DIMATFIT
 70
3
  9
$DIMFRAC
 70
0
  9
$DIMLDRBLK
  1

  9
$DIMLUNIT
 70
2
  9
$DIMLWD
 70
-2
  9
$DIMLWE
 70
-2
  9
$DIMTMOVE
 70
0
  9
$DIMFXL
 40
1.0
  9
$DIMFXLON
 70
0
  9
$DIMJOGANG
 40
0.785398163397
  9
$DIMTFILL
 70
0
  9
$DIMTFILLCLR
 70
0
  9
$DIMARCSYM
 70
0
  9
$DIMLTYPE
  6

  9
$DIMLTEX1
  6

  9
$DIMLTEX2
  6

  9
$DIMTXTDIRECTION
 70
0
  9
$LUNITS
 70
2
  9
$LUPREC
 70
4
  9
$SKETCHINC
 40
1.0
  9
$FILLETRAD
 40
10.0
  9
$AUNITS
 70
0
  9
$AUPREC
 70
2
  9
$MENU
  1
.
  9
$ELEVATION
 40
0.0
  9
$PELEVATION
 40
0.0
  9
$THICKNESS
 40
0.0
  9
$LIMCHECK
 70
0
  9
$CHAMFERA
 40
0.0
  9
$CHAMFERB
 40
0.0
  9
$CHAMFERC
 40
0.0
  9
$CHAMFERD
 40
0.0
  9
$SKPOLY
 70
0
  9
$TDCREATE
 40
2461147.5789583335
  9
$TDUCREATE
 40
2458532.153996898
  9
$TDUPDATE
 40
2461147.5789583335
  9
$TDUUPDATE
 40
2458532.1544311
  9
$TDINDWG
 40
0.0
  9
$TDUSRTIMER
 40
0.0
  9
$USRTIMER
 70
1
  9
$ANGBASE
 50
0.0
  9
$ANGDIR
 70
0
  9
$PDMODE
 70
0
  9
$PDSIZE
 40
0.0
  9
$PLINEWID
 40
0.0
  9
$SPLFRAME
 70
0
  9
$SPLINETYPE
 70
6
  9
$SPLINESEGS
 70
8
  9
$HANDSEED
  5
342
  9
$SURFTAB1
 70
6
  9
$SURFTAB2
 70
6
  9
$SURFTYPE
 70
6
  9
$SURFU
 70
6
  9
$SURFV
 70
6
  9
$UCSBASE
  2

  9
$UCSNAME
  2

  9
$UCSORG
 10
0.0
 20
0.0
 30
0.0
  9
$UCSXDIR
 10
1.0
 20
0.0
 30
0.0
  9
$UCSYDIR
 10
0.0
 20
1.0
 30
0.0
  9
$UCSORTHOREF
  2

  9
$UCSORTHOVIEW
 70
0
  9
$UCSORGTOP
 10
0.0
 20
0.0
 30
0.0
  9
$UCSORGBOTTOM
 10
0.0
 20
0.0
 30
0.0
  9
$UCSORGLEFT
 10
0.0
 20
0.0
 30
0.0
  9
$UCSORGRIGHT
 10
0.0
 20
0.0
 30
0.0
  9
$UCSORGFRONT
 10
0.0
 20
0.0
 30
0.0
  9
$UCSORGBACK
 10
0.0
 20
0.0
 30
0.0
  9
$PUCSBASE
  2

  9
$PUCSNAME
  2

  9
$PUCSORG
 10
0.0
 20
0.0
 30
0.0
  9
$PUCSXDIR
 10
1.0
 20
0.0
 30
0.0
  9
$PUCSYDIR
 10
0.0
 20
1.0
 30
0.0
  9
$PUCSORTHOREF
  2

  9
$PUCSORTHOVIEW
 70
0
  9
$PUCSORGTOP
 10
0.0
 20
0.0
 30
0.0
  9
$PUCSORGBOTTOM
 10
0.0
 20
0.0
 30
0.0
  9
$PUCSORGLEFT
 10
0.0
 20
0.0
 30
0.0
  9
$PUCSORGRIGHT
 10
0.0
 20
0.0
 30
0.0
  9
$PUCSORGFRONT
 10
0.0
 20
0.0
 30
0.0
  9
$PUCSORGBACK
 10
0.0
 20
0.0
 30
0.0
  9
$USERI1
 70
0
  9
$USERI2
 70
0
  9
$USERI3
 70
0
  9
$USERI4
 70
0
  9
$USERI5
 70
0
  9
$USERR1
 40
0.0
  9
$USERR2
 40
0.0
  9
$USERR3
 40
0.0
  9
$USERR4
 40
0.0
  9
$USERR5
 40
0.0
  9
$WORLDVIEW
 70
1
  9
$SHADEDGE
 70
3
  9
$SHADEDIF
 70
70
  9
$TILEMODE
 70
1
  9
$MAXACTVP
 70
64
  9
$PINSBASE
 10
0.0
 20
0.0
 30
0.0
  9
$PLIMCHECK
 70
0
  9
$PEXTMIN
 10
1e+20
 20
1e+20
 30
1e+20
  9
$PEXTMAX
 10
-1e+20
 20
-1e+20
 30
-1e+20
  9
$PLIMMIN
 10
0.0
 20
0.0
  9
$PLIMMAX
 10
420.0
 20
297.0
  9
$UNITMODE
 70
0
  9
$VISRETAIN
 70
1
  9
$PLINEGEN
 70
0
  9
$PSLTSCALE
 70
1
  9
$TREEDEPTH
 70
3020
  9
$CMLSTYLE
  2
Standard
  9
$CMLJUST
 70
0
  9
$CMLSCALE
 40
20.0
  9
$PROXYGRAPHICS
 70
1
  9
$MEASUREMENT
 70
1
  9
$CELWEIGHT
370
-1
  9
$ENDCAPS
280
0
  9
$JOINSTYLE
280
0
  9
$LWDISPLAY
290
0
  9
$INSUNITS
 70
0
  9
$HYPERLINKBASE
  1

  9
$STYLESHEET
  1

  9
$XEDIT
290
1
  9
$CEPSNTYPE
380
0
  9
$PSTYLEMODE
290
1
  9
$FINGERPRINTGUID
  2
{995494D9-5E76-45BE-BEFE-82A88EE45BFA}
  9
$VERSIONGUID
  2
{62D64EF0-5316-4D04-B5CC-128A9261B416}
  9
$EXTNAMES
290
1
  9
$PSVPSCALE
 40
0.0
  9
$OLESTARTUP
290
0
  9
$SORTENTS
280
127
  9
$INDEXCTL
280
0
  9
$HIDETEXT
280
1
  9
$XCLIPFRAME
280
1
  9
$HALOGAP
280
0
  9
$OBSCOLOR
 70
257
  9
$OBSLTYPE
280
0
  9
$INTERSECTIONDISPLAY
280
0
  9
$INTERSECTIONCOLOR
 70
257
  9
$DIMASSOC
280
2
  9
$PROJECTNAME
  1

  9
$CAMERADISPLAY
290
0
  9
$LENSLENGTH
 40
50.0
  9
$CAMERAHEIGHT
 40
0.0
  9
$STEPSPERSEC
 40
24.0
  9
$STEPSIZE
 40
100.0
  9
$3DDWFPREC
 40
2.0
  9
$PSOLWIDTH
 40
0.005
  9
$PSOLHEIGHT
 40
0.08
  9
$LOFTANG1
 40
1.570796326795
  9
$LOFTANG2
 40
1.570796326795
  9
$LOFTMAG1
 40
0.0
  9
$LOFTMAG2
 40
0.0
  9
$LOFTPARAM
 70
7
  9
$LOFTNORMALS
280
1
  9
$LATITUDE
 40
37.795
  9
$LONGITUDE
 40
-122.394
  9
$NORTHDIRECTION
 40
0.0
  9
$TIMEZONE
 70
-8000
  9
$LIGHTGLYPHDISPLAY
280
1
  9
$TILEMODELIGHTSYNCH
280
1
  9
$CMATERIAL
347
20
  9
$SOLIDHIST
280
0
  9
$SHOWHIST
280
1
  9
$DWFFRAME
280
2
  9
$DGNFRAME
280
2
  9
$REALWORLDSCALE
290
1
  9
$INTERFERECOLOR
 62
256
  9
$CSHADOW
280
0
  9
$SHADOWPLANELOCATION
 40
0.0
  0
ENDSEC
  0
SECTION
  2
CLASSES
  0
CLASS
  1
ACDBDICTIONARYWDFLT
  2
AcDbDictionaryWithDefault
  3
ObjectDBX Classes
 90
0
 91
0
280
0
281
0
  0
CLASS
  1
SUN
  2
AcDbSun
  3
SCENEOE
 90
1153
 91
0
280
0
281
0
  0
CLASS
  1
VISUALSTYLE
  2
AcDbVisualStyle
  3
ObjectDBX Classes
 90
4095
 91
0
280
0
281
0
  0
CLASS
  1
MATERIAL
  2
AcDbMaterial
  3
ObjectDBX Classes
 90
1153
 91
0
280
0
281
0
  0
CLASS
  1
SCALE
  2
AcDbScale
  3
ObjectDBX Classes
 90
1153
 91
0
280
0
281
0
  0
CLASS
  1
TABLESTYLE
  2
AcDbTableStyle
  3
ObjectDBX Classes
 90
4095
 91
0
280
0
281
0
  0
CLASS
  1
MLEADERSTYLE
  2
AcDbMLeaderStyle
  3
ACDB_MLEADERSTYLE_CLASS
 90
4095
 91
0
280
0
281
0
  0
CLASS
  1
DICTIONARYVAR
  2
AcDbDictionaryVar
  3
ObjectDBX Classes
 90
0
 91
0
280
0
281
0
  0
CLASS
  1
CELLSTYLEMAP
  2
AcDbCellStyleMap
  3
ObjectDBX Classes
 90
1152
 91
0
280
0
281
0
  0
CLASS
  1
MENTALRAYRENDERSETTINGS
  2
AcDbMentalRayRenderSettings
  3
SCENEOE
 90
1024
 91
0
280
0
281
0
  0
CLASS
  1
ACDBDETAILVIEWSTYLE
  2
AcDbDetailViewStyle
  3
ObjectDBX Classes
 90
1025
 91
0
280
0
281
0
  0
CLASS
  1
ACDBSECTIONVIEWSTYLE
  2
AcDbSectionViewStyle
  3
ObjectDBX Classes
 90
1025
 91
0
280
0
281
0
  0
CLASS
  1
RASTERVARIABLES
  2
AcDbRasterVariables
  3
ISM
 90
0
 91
0
280
0
281
0
  0
CLASS
  1
LAYOUT
  2
AcDbLayout
  3
ObjectDBX Classes
 90
0
 91
0
280
0
281
0
  0
CLASS
  1
ACDBPLACEHOLDER
  2
AcDbPlaceHolder
  3
ObjectDBX Classes
 90
0
 91
0
280
0
281
0
  0
ENDSEC
  0
SECTION
  2
TABLES
  0
TABLE
  2
VPORT
  5
8
330
0
100
AcDbSymbolTable
 70
1
  0
VPORT
  5
23
330
8
100
AcDbSymbolTableRecord
100
AcDbViewportTableRecord
  2
*Active
 70
0
 10
0.0
 20
0.0
 11
1.0
 21
1.0
 12
0.0
 22
0.0
 13
0.0
 23
0.0
 14
0.5
 24
0.5
 15
0.5
 25
0.5
 16
0.0
 26
0.0
 36
1.0
 17
0.0
 27
0.0
 37
0.0
 40
1000.0
 41
1.34
 42
50.0
 43
0.0
 44
0.0
 50
0.0
 51
0.0
 71
0
 72
1000
 73
1
 74
3
 75
0
 76
0
 77
0
 78
0
281
0
 65
0
146
0.0
  0
ENDTAB
  0
TABLE
  2
LTYPE
  5
2
330
0
100
AcDbSymbolTable
 70
3
  0
LTYPE
  5
24
330
2
100
AcDbSymbolTableRecord
100
AcDbLinetypeTableRecord
  2
ByBlock
 70
0
  3

 72
65
 73
0
 40
0.0
  0
LTYPE
  5
25
330
2
100
AcDbSymbolTableRecord
100
AcDbLinetypeTableRecord
  2
ByLayer
 70
0
  3

 72
65
 73
0
 40
0.0
  0
LTYPE
  5
26
330
2
100
AcDbSymbolTableRecord
100
AcDbLinetypeTableRecord
  2
Continuous
 70
0
  3

 72
65
 73
0
 40
0.0
  0
ENDTAB
  0
TABLE
  2
LAYER
  5
1
330
0
100
AcDbSymbolTable
 70
2
  0
LAYER
  5
27
330
1
100
AcDbSymbolTableRecord
100
AcDbLayerTableRecord
  2
0
 70
0
 62
7
  6
Continuous
370
-3
390
13
347
21
  0
LAYER
  5
28
330
1
100
AcDbSymbolTableRecord
100
AcDbLayerTableRecord
  2
Defpoints
 70
0
 62
7
  6
Continuous
290
0
370
-3
390
13
347
21
  0
ENDTAB
  0
TABLE
  2
STYLE
  5
5
330
0
100
AcDbSymbolTable
 70
1
  0
STYLE
  5
29
330
5
100
AcDbSymbolTableRecord
100
AcDbTextStyleTableRecord
  2
Standard
 70
0
 40
0.0
 41
1.0
 50
0.0
 71
0
 42
2.5
  3
txt
  4

  0
ENDTAB
  0
TABLE
  2
VIEW
  5
7
330
0
100
AcDbSymbolTable
 70
0
  0
ENDTAB
  0
TABLE
  2
UCS
  5
6
330
0
100
AcDbSymbolTable
 70
0
  0
ENDTAB
  0
TABLE
  2
APPID
  5
3
330
0
100
AcDbSymbolTable
 70
3
  0
APPID
  5
2A
330
3
100
AcDbSymbolTableRecord
100
AcDbRegAppTableRecord
  2
ACAD
 70
0
  0
APPID
  5
33F
330
3
100
AcDbSymbolTableRecord
100
AcDbRegAppTableRecord
  2
HATCHBACKGROUNDCOLOR
 70
0
  0
APPID
  5
340
330
3
100
AcDbSymbolTableRecord
100
AcDbRegAppTableRecord
  2
EZDXF
 70
0
  0
ENDTAB
  0
TABLE
  2
DIMSTYLE
  5
4
330
0
100
AcDbSymbolTable
 70
1
100
AcDbDimStyleTable
  0
DIMSTYLE
105
2B
330
4
100
AcDbSymbolTableRecord
100
AcDbDimStyleTableRecord
  2
Standard
 70
0
 40
1.0
 41
2.5
 42
0.625
 43
3.75
 44
1.25
 45
0.0
 46
0.0
 47
0.0
 48
0.0
 49
2.5
140
2.5
141
2.5
142
0.0
143
0.03937007874
144
1.0
145
0.0
146
1.0
147
0.625
148
0.0
 69
0
 70
0
 71
0
 72
0
 73
0
 74
0
 75
0
 76
0
 77
1
 78
8
 79
3
170
0
171
3
172
1
173
0
174
0
175
0
176
0
177
0
178
0
179
2
271
2
272
2
273
2
274
3
275
0
276
0
277
2
278
44
279
0
280
0
281
0
282
0
283
0
284
8
285
0
286
0
288
0
289
3
290
0
371
-2
372
-2
  0
ENDTAB
  0
TABLE
  2
BLOCK_RECORD
  5
9
330
0
100
AcDbSymbolTable
 70
2
  0
BLOCK_RECORD
  5
17
330
9
100
AcDbSymbolTableRecord
100
AcDbBlockTableRecord
  2
*Model_Space
340
1A
 70
0
280
1
281
0
  0
BLOCK_RECORD
  5
1B
330
9
100
AcDbSymbolTableRecord
100
AcDbBlockTableRecord
  2
*Paper_Space
340
1E
 70
0
280
1
281
0
  0
ENDTAB
  0
ENDSEC
  0
SECTION
  2
BLOCKS
  0
BLOCK
  5
18
330
17
100
AcDbEntity
  8
0
100
AcDbBlockBegin
  2
*Model_Space
 70
0
 10
0.0
 20
0.0
 30
0.0
  3
*Model_Space
  1

  0
ENDBLK
  5
19
330
17
100
AcDbEntity
  8
0
100
AcDbBlockEnd
  0
BLOCK
  5
1C
330
1B
100
AcDbEntity
  8
0
100
AcDbBlockBegin
  2
*Paper_Space
 70
0
 10
0.0
 20
0.0
 30
0.0
  3
*Paper_Space
  1

  0
ENDBLK
  5
1D
330
1B
100
AcDbEntity
  8
0
100
AcDbBlockEnd
  0
ENDSEC
  0
SECTION
  2
ENTITIES
  0
LINE
  5
2F
330
17
100
AcDbEntity
  8
0
100
AcDbLine
 10
512.1537938654669
 20
2034.681487531958
 30
0.0
 11
583.7675610989988
 21
-16.068489511226517
 31
0.0
  0
LINE
  5
30
330
17
100
AcDbEntity
  8
0
100
AcDbLine
 10
1043.3260838165609
 20
2053.230432629744
 30
0.0
 11
1114.939851050093
 21
2.480455586559401
 31
0.0
  0
LINE
  5
31
330
17
100
AcDbEntity
  8
0
100
AcDbLine
 10
1574.4983737676555
 20
2071.77937772753
 30
0.0
 11
1646.1121410011876
 21
21.02940068434532
 31
0.0
  0
LINE
  5
32
330
17
100
AcDbEntity
  8
0
100
AcDbLine
 10
-21.796752257452408
 20
1689.5758384687051
 30
0.0
 11
2026.9544431316938
 21
1761.1198067088321
 31
0.0
  0
LINE
  5
33
330
17
100
AcDbEntity
  8
0
100
AcDbLine
 10
0.8741806398415015
 20
1040.365261861813
 30
0.0
 11
2049.625376028988
 21
1111.90923010194
 31
0.0
  0
LINE
  5
34
330
17
100
AcDbEntity
  8
0
100
AcDbLine
 10
23.545113537135443
 20
391.1546852549201
 30
0.0
 11
2072.2963089262817
 21
462.6986534950471
 31
0.0
  0
LINE
  5
35
330
17
100
AcDbEntity
  8
0
100
AcDbLine
 10
568.8819978869224
 20
410.1982688886468
 30
0.0
 11
780.1705310008048
 21
417.5766270497662
 31
0.0
  0
LINE
  5
36
330
17
100
AcDbEntity
  8
0
100
AcDbLine
 10
555.2120420241703
 20
395.53903595400925
 30
0.0
 11
780.6651695367458
 21
403.41203265106947
 31
0.0
  0
LINE
  5
37
330
17
100
AcDbEntity
  8
0
100
AcDbLine
 10
885.3144175873242
 20
1332.433323013397
 30
0.0
 11
904.8938596349872
 21
771.7514613983537
 31
0.0
  0
LINE
  5
38
330
17
100
AcDbEntity
  8
0
100
AcDbLine
 10
556.680914000379
 20
759.5915973898051
 30
0.0
 11
732.5579611175201
 21
765.7333592110721
 31
0.0
  0
LINE
  5
39
330
17
100
AcDbEntity
  8
0
100
AcDbLine
 10
1109.9357758331278
 20
450.36508448642564
 30
0.0
 11
1107.1946539464545
 21
528.8605451125381
 31
0.0
  0
LINE
  5
3A
330
17
100
AcDbEntity
  8
0
100
AcDbLine
 10
1092.2300328347606
 20
449.7467863164994
 30
0.0
 11
1089.4889109480873
 21
528.2422469426119
 31
0.0
  0
LINE
  5
3B
330
17
100
AcDbEntity
  8
0
100
AcDbLine
 10
557.299212170305
 20
741.8858543914375
 30
0.0
 11
715.4705162890757
 21
747.4093180427783
 31
0.0
  0
LINE
  5
3C
330
17
100
AcDbEntity
  8
0
100
AcDbLine
 10
868.2269727588797
 20
1314.1092818451045
 30
0.0
 11
887.8064148065426
 21
753.42742023006
 31
0.0
  0
LINE
  5
3D
330
17
100
AcDbEntity
  8
0
100
AcDbLine
 10
537.101471952716
 20
1320.2734590048483
 30
0.0
 11
885.3144175873242
 21
1332.433323013397
 31
0.0
  0
LINE
  5
3E
330
17
100
AcDbEntity
  8
0
100
AcDbLine
 10
537.7197701226421
 20
1302.567716006482
 30
0.0
 11
868.2269727588797
 21
1314.1092818451045
 31
0.0
  0
LINE
  5
3F
330
17
100
AcDbEntity
  8
0
100
AcDbLine
 10
744.7590450040635
 20
416.3400307099138
 30
0.0
 11
742.9865902502753
 21
467.0964939719006
 31
0.0
  0
LINE
  5
40
330
17
100
AcDbEntity
  8
0
100
AcDbLine
 10
727.053302005693
 20
415.72173253998756
 30
0.0
 11
725.5693863978705
 21
458.2155157360663
 31
0.0
  0
LINE
  5
41
330
17
100
AcDbEntity
  8
0
100
AcDbLine
 10
1713.8533784481724
 20
450.1815505438743
 30
0.0
 11
1714.3480169841132
 21
436.0169561451776
 31
0.0
  0
LINE
  5
42
330
17
100
AcDbEntity
  8
0
100
AcDbLine
 10
1820.0878364383914
 20
453.89133956343164
 30
0.0
 11
1820.5824749743322
 21
439.7267451647349
 31
0.0
  0
LINE
  5
43
330
17
100
AcDbEntity
  8
0
100
AcDbLine
 10
1973.5376090909276
 20
459.249923702792
 30
0.0
 11
1974.0322476268684
 21
445.08532930409524
 31
0.0
  0
LINE
  5
44
330
17
100
AcDbEntity
  8
0
100
AcDbLine
 10
1820.0878364383914
 20
453.89133956343164
 30
0.0
 11
1973.5376090909276
 21
459.249923702792
 31
0.0
  0
LINE
  5
45
330
17
100
AcDbEntity
  8
0
100
AcDbLine
 10
1182.681088497078
 20
431.6326054460884
 30
0.0
 11
1183.1757270330188
 21
417.46801104739166
 31
0.0
  0
LINE
  5
46
330
17
100
AcDbEntity
  8
0
100
AcDbLine
 10
1288.9155464872977
 20
435.3423944656457
 30
0.0
 11
1289.4101850232385
 21
421.177800066949
 31
0.0
  0
LINE
  5
47
330
17
100
AcDbEntity
  8
0
100
AcDbLine
 10
1442.3653191398334
 20
440.70097860500607
 30
0.0
 11
1442.8599576757742
 21
426.5363842063093
 31
0.0
  0
LINE
  5
48
330
17
100
AcDbEntity
  8
0
100
AcDbLine
 10
1548.5997771300533
 20
444.41076762456316
 30
0.0
 11
1549.0944156659941
 21
430.2461732258664
 31
0.0
  0
LINE
  5
49
330
17
100
AcDbEntity
  8
0
100
AcDbLine
 10
1288.9155464872977
 20
435.3423944656457
 30
0.0
 11
1442.3653191398334
 21
440.70097860500607
 31
0.0
  0
LINE
  5
4A
330
17
100
AcDbEntity
  8
0
100
AcDbLine
 10
1548.5997771300533
 20
444.41076762456316
 30
0.0
 11
1713.8533784481724
 21
450.1815505438743
 31
0.0
  0
LINE
  5
4B
330
17
100
AcDbEntity
  8
0
100
AcDbLine
 10
1347.934689815197
 20
437.40338836539956
 30
0.0
 11
1345.873695915443
 21
496.42253169329865
 31
0.0
  0
LINE
  5
4C
330
17
100
AcDbEntity
  8
0
100
AcDbLine
 10
1345.873695915443
 20
496.42253169329865
 30
0.0
 11
1393.0890105777596
 21
498.0713268131019
 31
0.0
  0
LINE
  5
4D
330
17
100
AcDbEntity
  8
0
100
AcDbLine
 10
1395.1500044775137
 20
439.0521834852028
 30
0.0
 11
1393.0890105777596
 21
498.0713268131019
 31
0.0
  0
LINE
  5
4E
330
17
100
AcDbEntity
  8
0
100
AcDbLine
 10
887.8064148065426
 20
753.42742023006
 30
0.0
 11
1081.3892049220544
 21
760.187480221253
 31
0.0
  0
LINE
  5
4F
330
17
100
AcDbEntity
  8
0
100
AcDbLine
 10
904.8938596349872
 20
771.7514613983537
 30
0.0
 11
1098.4766497504954
 21
778.5115213895468
 31
0.0
  0
LINE
  5
50
330
17
100
AcDbEntity
  8
0
100
AcDbLine
 10
733.382308641111
 20
1114.39972350363
 30
0.0
 11
745.7482720396349
 21
760.284863536233
 31
0.0
  0
LINE
  5
51
330
17
100
AcDbEntity
  8
0
100
AcDbLine
 10
887.3942160265917
 20
765.2312488956426
 30
0.0
 11
745.7482720396349
 21
760.284863536233
 31
0.0
  0
LINE
  5
52
330
17
100
AcDbEntity
  8
0
100
AcDbLine
 10
886.1576196867395
 20
800.6427348923773
 30
0.0
 11
744.5116756997827
 21
795.6963495329678
 31
0.0
  0
LINE
  5
53
330
17
100
AcDbEntity
  8
0
100
AcDbLine
 10
884.921023346887
 20
836.0542208891217
 30
0.0
 11
743.2750793599301
 21
831.1078355297121
 31
0.0
  0
LINE
  5
54
330
17
100
AcDbEntity
  8
0
100
AcDbLine
 10
883.6844270070346
 20
871.4657068858587
 30
0.0
 11
742.0384830200778
 21
866.5193215264492
 31
0.0
  0
LINE
  5
55
330
17
100
AcDbEntity
  8
0
100
AcDbLine
 10
882.4478306671822
 20
906.8771928826002
 30
0.0
 11
740.8018866802254
 21
901.9308075231907
 31
0.0
  0
LINE
  5
56
330
17
100
AcDbEntity
  8
0
100
AcDbLine
 10
881.2112343273297
 20
942.2886788793404
 30
0.0
 11
739.5652903403729
 21
937.3422935199309
 31
0.0
  0
LINE
  5
57
330
17
100
AcDbEntity
  8
0
100
AcDbLine
 10
879.9746379874775
 20
977.7001648760752
 30
0.0
 11
738.3286940005207
 21
972.7537795166656
 31
0.0
  0
LINE
  5
58
330
17
100
AcDbEntity
  8
0
100
AcDbLine
 10
878.738041647625
 20
1013.1116508728189
 30
0.0
 11
737.0920976606682
 21
1008.1652655134094
 31
0.0
  0
LINE
  5
59
330
17
100
AcDbEntity
  8
0
100
AcDbLine
 10
877.5014453077727
 20
1048.5231368695574
 30
0.0
 11
735.8555013208158
 21
1043.576751510148
 31
0.0
  0
LINE
  5
5A
330
17
100
AcDbEntity
  8
0
100
AcDbLine
 10
876.2648489679202
 20
1083.934622866298
 30
0.0
 11
734.6189049809634
 21
1078.9882375068885
 31
0.0
  0
LINE
  5
5B
330
17
100
AcDbEntity
  8
0
100
AcDbLine
 10
875.0282526280678
 20
1119.3461088630395
 30
0.0
 11
544.5210499918302
 21
1107.8045430244172
 31
0.0
  0
LINE
  5
5C
330
17
100
AcDbEntity
  8
0
100
AcDbLine
 10
565.7679415898749
 20
1108.5465008283286
 30
0.0
 11
577.9278055984237
 21
760.3335551937166
 31
0.0
  0
LINE
  5
5D
330
17
100
AcDbEntity
  8
0
100
AcDbLine
 10
707.4138855768352
 20
1113.4928861877383
 30
0.0
 11
719.573749585384
 21
765.2799405531263
 31
0.0
  0
LINE
  5
5E
330
17
100
AcDbEntity
  8
0
100
AcDbLine
 10
708.6504819166877
 20
1078.0814001909966
 30
0.0
 11
567.0045379297273
 21
1073.1350148315871
 31
0.0
  0
LINE
  5
5F
330
17
100
AcDbEntity
  8
0
100
AcDbLine
 10
709.8870782565401
 20
1042.669914194256
 30
0.0
 11
568.2411342695798
 21
1037.7235288348465
 31
0.0
  0
LINE
  5
60
330
17
100
AcDbEntity
  8
0
100
AcDbLine
 10
711.1236745963924
 20
1007.2584281975177
 30
0.0
 11
569.4777306094321
 21
1002.312042838108
 31
0.0
  0
LINE
  5
61
330
17
100
AcDbEntity
  8
0
100
AcDbLine
 10
712.360270936245
 20
971.8469422007739
 30
0.0
 11
570.7143269492847
 21
966.9005568413643
 31
0.0
  0
LINE
  5
62
330
17
100
AcDbEntity
  8
0
100
AcDbLine
 10
713.5968672760972
 20
936.4354562040392
 30
0.0
 11
571.9509232891369
 21
931.4890708446295
 31
0.0
  0
LINE
  5
63
330
17
100
AcDbEntity
  8
0
100
AcDbLine
 10
537.7197701226421
 20
1302.567716006482
 30
0.0
 11
568.8819978869224
 21
410.1982688886468
 31
0.0
  0
LINE
  5
64
330
17
100
AcDbEntity
  8
0
100
AcDbLine
 10
497.98919946677375
 20
2034.1868489960173
 30
0.0
 11
555.2120420241703
 21
395.53903595400925
 31
0.0
  0
LINE
  5
65
330
17
100
AcDbEntity
  8
0
100
AcDbLine
 10
1075.2662476403018
 20
427.8815965485361
 30
0.0
 11
1075.7608861762426
 21
413.71700214983935
 31
0.0
  0
LINE
  5
66
330
17
100
AcDbEntity
  8
0
100
AcDbLine
 10
957.2279609845027
 20
423.7596087490282
 30
0.0
 11
957.7225995204437
 21
409.59501435033144
 31
0.0
  0
LINE
  5
67
330
17
100
AcDbEntity
  8
0
100
AcDbLine
 10
780.6651695367458
 20
403.41203265106947
 30
0.0
 11
780.1705310008048
 21
417.5766270497662
 31
0.0
  0
LINE
  5
68
330
17
100
AcDbEntity
  8
0
100
AcDbLine
 10
898.7034561925444
 20
407.5340204505775
 30
0.0
 11
898.2088176566034
 21
421.69861484927424
 31
0.0
  0
LINE
  5
69
330
17
100
AcDbEntity
  8
0
100
AcDbLine
 10
898.2088176566034
 20
421.69861484927424
 30
0.0
 11
957.2279609845027
 21
423.7596087490282
 31
0.0
  0
LINE
  5
6A
330
17
100
AcDbEntity
  8
0
100
AcDbLine
 10
898.7034561925444
 20
407.5340204505775
 30
0.0
 11
957.7225995204437
 21
409.59501435033144
 31
0.0
  0
LINE
  5
6B
330
17
100
AcDbEntity
  8
0
100
AcDbLine
 10
1075.2662476403018
 20
427.8815965485361
 30
0.0
 11
1182.681088497078
 21
431.6326054460884
 31
0.0
  0
LINE
  5
6C
330
17
100
AcDbEntity
  8
0
100
AcDbLine
 10
1075.7608861762426
 20
413.71700214983935
 30
0.0
 11
1191.4384070989277
 21
417.7565501933541
 31
0.0
  0
LINE
  5
6D
330
17
100
AcDbEntity
  8
0
100
AcDbLine
 10
213.46314545529845
 20
29.058212588089646
 30
0.0
 11
1491.8177899375967
 21
73.69934045676109
 31
0.0
  0
LINE
  5
6E
330
17
100
AcDbEntity
  8
0
100
AcDbLine
 10
573.4237062821904
 20
77.08298125131796
 30
0.0
 11
608.835192278928
 21
78.31957759117029
 31
0.0
  0
LINE
  5
6F
330
17
100
AcDbEntity
  8
0
100
AcDbLine
 10
572.1871099423378
 20
112.49446724806592
 30
0.0
 11
607.5985959390754
 21
113.73106358791824
 31
0.0
  0
LINE
  5
70
330
17
100
AcDbEntity
  8
0
100
AcDbLine
 10
572.1871099423378
 20
112.49446724806592
 30
0.0
 11
573.4237062821904
 21
77.08298125131796
 31
0.0
  0
LINE
  5
71
330
17
100
AcDbEntity
  8
0
100
AcDbLine
 10
607.5985959390754
 20
113.73106358791824
 30
0.0
 11
608.835192278928
 21
78.31957759117029
 31
0.0
  0
LINE
  5
72
330
17
100
AcDbEntity
  8
0
100
AcDbLine
 10
1093.9725504342625
 20
95.26094744714817
 30
0.0
 11
1129.384036431
 21
96.49754378700038
 31
0.0
  0
LINE
  5
73
330
17
100
AcDbEntity
  8
0
100
AcDbLine
 10
1092.7359540944096
 20
130.67243344389613
 30
0.0
 11
1128.147440091147
 21
131.90902978374834
 31
0.0
  0
LINE
  5
74
330
17
100
AcDbEntity
  8
0
100
AcDbLine
 10
1092.7359540944096
 20
130.67243344389613
 30
0.0
 11
1093.9725504342625
 21
95.26094744714817
 31
0.0
  0
LINE
  5
75
330
17
100
AcDbEntity
  8
0
100
AcDbLine
 10
1128.147440091147
 20
131.90902978374834
 30
0.0
 11
1129.384036431
 21
96.49754378700038
 31
0.0
  0
LINE
  5
76
330
17
100
AcDbEntity
  8
0
100
AcDbLine
 10
816.5712440331133
 20
762.7580562159378
 30
0.0
 11
804.2052806345894
 21
1116.8729161833348
 31
0.0
  0
LINE
  5
77
330
17
100
AcDbEntity
  8
0
100
AcDbLine
 10
828.1617843273589
 20
1094.5331150787117
 30
0.0
 11
804.2052806345894
 21
1116.8729161833348
 31
0.0
  0
LINE
  5
78
330
17
100
AcDbEntity
  8
0
100
AcDbLine
 10
781.8654795299697
 20
1092.9164124905624
 30
0.0
 11
804.2052806345894
 21
1116.8729161833348
 31
0.0
  0
LINE
  5
79
330
17
100
AcDbEntity
  8
0
100
AcDbLine
 10
716.9132120189036
 20
706.0959177132463
 30
0.0
 11
734.6189550172741
 21
706.7142158831725
 31
0.0
  0
LINE
  5
7A
330
17
100
AcDbEntity
  8
0
100
AcDbLine
 10
720.6230010384606
 20
599.8614597230298
 30
0.0
 11
738.3287440368313
 21
600.4797578929561
 31
0.0
  0
LINE
  5
7B
330
17
100
AcDbEntity
  8
0
100
AcDbLine
 10
721.8595973783132
 20
564.4499737262887
 30
0.0
 11
739.5653403766837
 21
565.0682718962149
 31
0.0
  0
LINE
  5
7C
330
17
100
AcDbEntity
  8
0
100
AcDbLine
 10
725.5693863978705
 20
458.2155157360663
 30
0.0
 11
743.275129396241
 21
458.83381390599254
 31
0.0
  0
LINE
  5
7D
330
17
100
AcDbEntity
  8
0
100
AcDbLine
 10
716.9132120189036
 20
706.0959177132463
 30
0.0
 11
715.4705162890757
 21
747.4093180427783
 31
0.0
  0
LINE
  5
7E
330
17
100
AcDbEntity
  8
0
100
AcDbLine
 10
734.6189550172741
 20
706.7142158831725
 30
0.0
 11
732.5579611175201
 21
765.7333592110721
 31
0.0
  0
LINE
  5
7F
330
17
100
AcDbEntity
  8
0
100
AcDbLine
 10
721.8595973783132
 20
564.4499737262887
 30
0.0
 11
720.6230010384606
 21
599.8614597230298
 31
0.0
  0
LINE
  5
80
330
17
100
AcDbEntity
  8
0
100
AcDbLine
 10
636.5909135833531
 20
1111.0196935080335
 30
0.0
 11
644.0104916224675
 21
898.550777527594
 31
0.0
  0
LINE
  5
81
330
17
100
AcDbEntity
  8
0
100
AcDbLine
 10
644.0104916224675
 20
898.550777527594
 30
0.0
 11
573.1875196289893
 21
896.0775848478893
 31
0.0
  0
LINE
  5
82
330
17
100
AcDbEntity
  8
0
100
AcDbLine
 10
620.0539879296985
 20
920.8905786322172
 30
0.0
 11
644.0104916224675
 21
898.550777527594
 31
0.0
  0
LINE
  5
83
330
17
100
AcDbEntity
  8
0
100
AcDbLine
 10
666.3502927270908
 20
922.5072812203666
 30
0.0
 11
644.0104916224675
 21
898.550777527594
 31
0.0
  0
LINE
  5
84
330
17
100
AcDbEntity
  8
0
100
AcDbLine
 10
574.4241159688418
 20
860.6660988511478
 30
0.0
 11
713.5968672760972
 21
936.4354562040392
 31
0.0
  0
LINE
  5
85
330
17
100
AcDbEntity
  8
0
100
AcDbLine
 10
512.1537938654669
 20
2034.681487531958
 30
0.0
 11
537.101471952716
 21
1320.2734590048483
 31
0.0
  0
LINE
  5
86
330
17
100
AcDbEntity
  8
0
100
AcDbLine
 10
270.43623844242995
 20
428.1400484312793
 30
0.0
 11
271.6728347822824
 21
392.72856243453816
 31
0.0
  0
LINE
  5
87
330
17
100
AcDbEntity
  8
0
100
AcDbLine
 10
235.02475244568916
 20
426.90345209142686
 30
0.0
 11
236.2613487855416
 21
391.4919660946857
 31
0.0
  0
LINE
  5
88
330
17
100
AcDbEntity
  8
0
100
AcDbLine
 10
158.51704808785692
 20
1602.5085737098875
 30
0.0
 11
213.46314545529845
 21
29.058212588089646
 31
0.0
  0
LINE
  5
89
330
17
100
AcDbEntity
  8
0
100
AcDbLine
 10
271.6728347822824
 20
392.72856243453816
 30
0.0
 11
236.2613487855416
 21
391.4919660946857
 31
0.0
  0
LINE
  5
8A
330
17
100
AcDbEntity
  8
0
100
AcDbLine
 10
270.43623844242995
 20
428.1400484312793
 30
0.0
 11
235.02475244568916
 21
426.90345209142686
 31
0.0
  0
LINE
  5
8B
330
17
100
AcDbEntity
  8
0
100
AcDbLine
 10
248.13628444709175
 20
1066.72717923915
 30
0.0
 11
249.3728807869442
 21
1031.315693242409
 31
0.0
  0
LINE
  5
8C
330
17
100
AcDbEntity
  8
0
100
AcDbLine
 10
212.72479845035096
 20
1065.4905828992976
 30
0.0
 11
213.9613947902034
 21
1030.0790969025566
 31
0.0
  0
LINE
  5
8D
330
17
100
AcDbEntity
  8
0
100
AcDbLine
 10
249.3728807869442
 20
1031.315693242409
 30
0.0
 11
213.9613947902034
 21
1030.0790969025566
 31
0.0
  0
LINE
  5
8E
330
17
100
AcDbEntity
  8
0
100
AcDbLine
 10
248.13628444709175
 20
1066.72717923915
 30
0.0
 11
212.72479845035096
 21
1065.4905828992976
 31
0.0
  0
LINE
  5
8F
330
17
100
AcDbEntity
  8
0
100
AcDbLine
 10
233.46200788084332
 20
1486.9434797337935
 30
0.0
 11
234.69860422069576
 21
1451.5319937370523
 31
0.0
  0
LINE
  5
90
330
17
100
AcDbEntity
  8
0
100
AcDbLine
 10
198.05052188410252
 20
1485.706883393941
 30
0.0
 11
199.28711822395496
 21
1450.2953973971998
 31
0.0
  0
LINE
  5
91
330
17
100
AcDbEntity
  8
0
100
AcDbLine
 10
234.69860422069576
 20
1451.5319937370523
 30
0.0
 11
199.28711822395496
 21
1450.2953973971998
 31
0.0
  0
LINE
  5
92
330
17
100
AcDbEntity
  8
0
100
AcDbLine
 10
233.46200788084332
 20
1486.9434797337935
 30
0.0
 11
198.05052188410252
 21
1485.706883393941
 31
0.0
  0
LINE
  5
93
330
17
100
AcDbEntity
  8
0
100
AcDbLine
 10
512.6319080552527
 20
1614.8745371084115
 30
0.0
 11
158.51704808785692
 21
1602.5085737098875
 31
0.0
  0
LINE
  5
94
330
17
100
AcDbEntity
  8
0
100
AcDbLine
 10
229.34002008133533
 20
1604.9817663895922
 30
0.0
 11
226.86682740163064
 21
1675.804738383068
 31
0.0
  0
LINE
  5
95
330
17
100
AcDbEntity
  8
0
100
AcDbLine
 10
511.3953117154002
 20
1650.2860231051523
 30
0.0
 11
228.10342374148289
 21
1640.3932523863332
 31
0.0
  0
LINE
  5
96
330
17
100
AcDbEntity
  8
0
100
AcDbLine
 10
510.158715375548
 20
1685.6975091018871
 30
0.0
 11
226.86682740163064
 21
1675.804738383068
 31
0.0
  0
LINE
  5
97
330
17
100
AcDbEntity
  8
0
100
AcDbLine
 10
162.6390358873649
 20
1484.4702870540887
 30
0.0
 11
91.81606389388932
 21
1481.9970943743913
 31
0.0
  0
LINE
  5
98
330
17
100
AcDbEntity
  8
0
100
AcDbLine
 10
137.12032060941942
 20
1199.941802740321
 30
0.0
 11
127.22754989062378
 21
1483.2336907142394
 31
0.0
  0
LINE
  5
99
330
17
100
AcDbEntity
  8
0
100
AcDbLine
 10
101.7088346126884
 20
1198.7052064004724
 30
0.0
 11
91.81606389388932
 21
1481.9970943743913
 31
0.0
  0
LINE
  5
9A
330
17
100
AcDbEntity
  8
0
100
AcDbLine
 10
101.7088346126884
 20
1198.7052064004724
 30
0.0
 11
172.53180660618386
 21
1201.178399080178
 31
0.0
  0
LINE
  5
9B
330
17
100
AcDbEntity
  8
0
100
AcDbLine
 10
368.51277138858745
 20
1680.7511237424774
 30
0.0
 11
370.9859640682921
 21
1609.9281517490017
 31
0.0
  0
LINE
  5
9C
330
17
100
AcDbEntity
  8
0
100
AcDbLine
 10
347.0294603755229
 20
1632.2679528536246
 30
0.0
 11
370.9859640682921
 21
1609.9281517490017
 31
0.0
  0
LINE
  5
9D
330
17
100
AcDbEntity
  8
0
100
AcDbLine
 10
393.3257651729156
 20
1633.8846554417742
 30
0.0
 11
370.9859640682921
 21
1609.9281517490017
 31
0.0
  0
LINE
  5
9E
330
17
100
AcDbEntity
  8
0
100
AcDbLine
 10
96.7624492532891
 20
1340.3511503874265
 30
0.0
 11
167.58542124676103
 21
1342.824343067131
 31
0.0
  0
LINE
  5
9F
330
17
100
AcDbEntity
  8
0
100
AcDbLine
 10
145.24562014214095
 20
1318.8678393743658
 30
0.0
 11
167.58542124676103
 21
1342.824343067131
 31
0.0
  0
LINE
  5
A0
330
17
100
AcDbEntity
  8
0
100
AcDbLine
 10
143.62891755399167
 20
1365.1641441717538
 30
0.0
 11
167.58542124676103
 21
1342.824343067131
 31
0.0
  0
LINE
  5
A1
330
17
100
AcDbEntity
  8
0
100
AcDbLine
 10
1088.1268495747665
 20
59.602142182443686
 30
0.0
 11
1090.1518108523783
 21
1.614838148662784
 31
0.0
  0
LINE
  5
A2
330
17
100
AcDbEntity
  8
0
100
AcDbLine
 10
793.0311329352697
 20
49.29717268367381
 30
0.0
 11
795.0560942128812
 21
-8.690131350107094
 31
0.0
  0
LINE
  5
A3
330
17
100
AcDbEntity
  8
0
100
AcDbLine
 10
794.2677292751222
 20
13.88568668693324
 30
0.0
 11
1089.363445914619
 21
24.19065618570312
 31
0.0
  0
LINE
  5
A4
330
17
100
AcDbEntity
  8
0
100
AcDbLine
 10
942.6039525326295
 20
-3.537646600722155
 30
0.0
 11
940.5789912550181
 21
54.44965743305556
 31
0.0
  0
LINE
  5
A5
330
17
100
AcDbEntity
  8
0
100
AcDbLine
 10
964.5354949477872
 20
32.10985632842892
 30
0.0
 11
940.5789912550181
 21
54.44965743305556
 31
0.0
  0
LINE
  5
A6
330
17
100
AcDbEntity
  8
0
100
AcDbLine
 10
918.2391901504017
 20
30.49315374027981
 30
0.0
 11
940.5789912550181
 21
54.44965743305556
 31
0.0
  0
LINE
  5
A7
330
17
100
AcDbEntity
  8
0
100
AcDbLine
 10
1524.7560832546528
 20
145.75890879009603
 30
0.0
 11
1514.8633125358137
 21
429.0507967640092
 31
0.0
  0
LINE
  5
A8
330
17
100
AcDbEntity
  8
0
100
AcDbLine
 10
1560.1675692513936
 20
146.99550512994847
 30
0.0
 11
1550.2747985325507
 21
430.2873931038614
 31
0.0
  0
LINE
  5
A9
330
17
100
AcDbEntity
  8
0
100
AcDbLine
 10
1560.1675692513936
 20
146.99550512994847
 30
0.0
 11
1489.3445972578918
 21
144.5223124502429
 31
0.0
  0
LINE
  5
AA
330
17
100
AcDbEntity
  8
0
100
AcDbLine
 10
1555.2211838919732
 20
288.6414491169079
 30
0.0
 11
1484.3982118984918
 21
286.168256437203
 31
0.0
  0
LINE
  5
AB
330
17
100
AcDbEntity
  8
0
100
AcDbLine
 10
1508.3547155912643
 20
263.82845533258046
 30
0.0
 11
1484.3982118984918
 21
286.168256437203
 31
0.0
  0
LINE
  5
AC
330
17
100
AcDbEntity
  8
0
100
AcDbLine
 10
1506.7380130031147
 20
310.12476012997286
 30
0.0
 11
1484.3982118984918
 21
286.168256437203
 31
0.0
  0
LINE
  5
AD
330
17
100
AcDbEntity
  8
0
100
AcDbLine
 10
1491.8177899375967
 20
73.69934045676109
 30
0.0
 11
1479.4518265390727
 21
427.81420042415675
 31
0.0
  0
LINE
  5
AE
330
17
100
AcDbEntity
  8
0
100
AcDbLine
 10
1788.8245645238605
 20
367.7083967093955
 30
0.0
 11
2075.2641401419273
 21
377.7110871028682
 31
0.0
  0
LINE
  5
AF
330
17
100
AcDbEntity
  8
0
100
AcDbLine
 10
427.1662274732918
 20
2031.7136563163124
 30
0.0
 11
439.3357433820661
 21
1683.2243164221823
 31
0.0
  0
LINE
  5
B0
330
17
100
AcDbEntity
  8
0
100
AcDbLine
 10
1800.7422965203175
 20
26.42920470170202
 30
0.0
 11
1788.8245645238605
 21
367.7083967093955
 31
0.0
  0
LINE
  5
B1
330
17
100
AcDbEntity
  8
0
100
AcDbLine
 10
1084.130326808727
 20
681.6920195951518
 30
0.0
 11
1101.8360698070942
 21
682.310317765078
 31
0.0
  0
LINE
  5
B2
330
17
100
AcDbEntity
  8
0
100
AcDbLine
 10
1089.4889109480873
 20
528.2422469426119
 30
0.0
 11
1107.1946539464545
 21
528.8605451125381
 31
0.0
  0
LINE
  5
B3
330
17
100
AcDbEntity
  8
0
100
AcDbLine
 10
1101.8360698070942
 20
682.310317765078
 30
0.0
 11
1098.4766497504954
 21
778.5115213895468
 31
0.0
  0
LINE
  5
B4
330
17
100
AcDbEntity
  8
0
100
AcDbLine
 10
1084.130326808727
 20
681.6920195951518
 30
0.0
 11
1081.3892049220544
 21
760.187480221253
 31
0.0
  0
LINE
  5
B5
330
17
100
AcDbEntity
  8
0
100
AcDbLine
 10
706.9642778631026
 20
652.5664899381909
 30
0.0
 11
748.2776781926317
 21
654.0091856680187
 31
0.0
  0
LINE
  5
B6
330
17
100
AcDbEntity
  8
0
100
AcDbLine
 10
838.7774755487533
 20
431.44144961509915
 30
0.0
 11
840.0965116445959
 21
393.6691978852408
 31
0.0
  0
LINE
  5
B7
330
17
100
AcDbEntity
  8
0
100
AcDbLine
 10
1015.8349055324514
 20
437.62443131436123
 30
0.0
 11
1017.1539416282941
 21
399.8521795845029
 31
0.0
  0
LINE
  5
B8
330
17
100
AcDbEntity
  8
0
100
AcDbLine
 10
1084.1303268087272
 20
681.6920195951482
 30
0.0
 11
1011.6344381406678
 21
603.9496969820881
 31
0.0
  0
LINE
  5
B9
330
17
100
AcDbEntity
  8
0
100
AcDbLine
 10
1089.4889109480873
 20
528.2422469426119
 30
0.0
 11
1054.9367675645033
 21
560.4626419061926
 31
0.0
  0
LINE
  5
BA
330
17
100
AcDbEntity
  8
0
100
AcDbLine
 10
780.6651695367458
 20
403.41203265106947
 30
0.0
 11
898.7034561925444
 21
407.5340204505775
 31
0.0
  0
LINE
  5
BB
330
17
100
AcDbEntity
  8
0
100
AcDbLine
 10
898.7034561925444
 20
407.5340204505775
 30
0.0
 11
898.2088176566034
 21
421.69861484927424
 31
0.0
  0
LINE
  5
BC
330
17
100
AcDbEntity
  8
0
100
AcDbLine
 10
898.2088176566034
 20
421.69861484927424
 30
0.0
 11
780.1705310008048
 21
417.5766270497662
 31
0.0
  0
LINE
  5
BD
330
17
100
AcDbEntity
  8
0
100
AcDbLine
 10
780.1705310008048
 20
417.5766270497662
 30
0.0
 11
780.6651695367458
 21
403.41203265106947
 31
0.0
  0
LINE
  5
BE
330
17
100
AcDbEntity
  8
0
100
AcDbLine
 10
780.6651695367458
 20
403.41203265106947
 30
0.0
 11
780.6651695367458
 21
403.41203265106947
 31
0.0
  0
LINE
  5
BF
330
17
100
AcDbEntity
  8
0
100
AcDbLine
 10
957.7225995204437
 20
409.59501435033144
 30
0.0
 11
1075.7608861762426
 21
413.71700214983935
 31
0.0
  0
LINE
  5
C0
330
17
100
AcDbEntity
  8
0
100
AcDbLine
 10
1075.7608861762426
 20
413.71700214983935
 30
0.0
 11
1075.2662476403018
 21
427.8815965485361
 31
0.0
  0
LINE
  5
C1
330
17
100
AcDbEntity
  8
0
100
AcDbLine
 10
1075.2662476403018
 20
427.8815965485361
 30
0.0
 11
957.2279609845027
 21
423.7596087490282
 31
0.0
  0
LINE
  5
C2
330
17
100
AcDbEntity
  8
0
100
AcDbLine
 10
957.2279609845027
 20
423.7596087490282
 30
0.0
 11
957.7225995204437
 21
409.59501435033144
 31
0.0
  0
LINE
  5
C3
330
17
100
AcDbEntity
  8
0
100
AcDbLine
 10
957.7225995204437
 20
409.59501435033144
 30
0.0
 11
957.7225995204437
 21
409.59501435033144
 31
0.0
  0
LINE
  5
C4
330
17
100
AcDbEntity
  8
0
100
AcDbLine
 10
720.6230010384606
 20
599.8614597230298
 30
0.0
 11
716.9132120189036
 21
706.0959177132463
 31
0.0
  0
LINE
  5
C5
330
17
100
AcDbEntity
  8
0
100
AcDbLine
 10
716.9132120189036
 20
706.0959177132463
 30
0.0
 11
734.6189550172741
 21
706.7142158831725
 31
0.0
  0
LINE
  5
C6
330
17
100
AcDbEntity
  8
0
100
AcDbLine
 10
734.6189550172741
 20
706.7142158831725
 30
0.0
 11
738.3287440368313
 21
600.4797578929561
 31
0.0
  0
LINE
  5
C7
330
17
100
AcDbEntity
  8
0
100
AcDbLine
 10
738.3287440368313
 20
600.4797578929561
 30
0.0
 11
720.6230010384606
 21
599.8614597230298
 31
0.0
  0
LINE
  5
C8
330
17
100
AcDbEntity
  8
0
100
AcDbLine
 10
720.6230010384606
 20
599.8614597230298
 30
0.0
 11
720.6230010384606
 21
599.8614597230298
 31
0.0
  0
LINE
  5
C9
330
17
100
AcDbEntity
  8
0
100
AcDbLine
 10
259.2862614447608
 20
747.4336138352165
 30
0.0
 11
223.87477544802
 21
746.1970174953641
 31
0.0
  0
LINE
  5
CA
330
17
100
AcDbEntity
  8
0
100
AcDbLine
 10
223.87477544802
 20
746.1970174953641
 30
0.0
 11
225.11137178787254
 21
710.7855314986198
 31
0.0
  0
LINE
  5
CB
330
17
100
AcDbEntity
  8
0
100
AcDbLine
 10
225.11137178787254
 20
710.7855314986198
 30
0.0
 11
260.52285778461334
 21
712.0221278384722
 31
0.0
  0
LINE
  5
CC
330
17
100
AcDbEntity
  8
0
100
AcDbLine
 10
260.52285778461334
 20
712.0221278384722
 30
0.0
 11
259.2862614447608
 21
747.4336138352165
 31
0.0
  0
LINE
  5
CD
330
17
100
AcDbEntity
  8
0
100
AcDbLine
 10
259.2862614447608
 20
747.4336138352165
 30
0.0
 11
259.2862614447608
 21
747.4336138352165
 31
0.0
  0
LINE
  5
CE
330
17
100
AcDbEntity
  8
0
100
AcDbLine
 10
1453.9331112611535
 20
143.28571611039047
 30
0.0
 11
1418.5216252644127
 21
142.04911977053803
 31
0.0
  0
LINE
  5
CF
330
17
100
AcDbEntity
  8
0
100
AcDbLine
 10
1418.5216252644127
 20
142.04911977053803
 30
0.0
 11
1419.7582216042656
 21
106.63763377379007
 31
0.0
  0
LINE
  5
D0
330
17
100
AcDbEntity
  8
0
100
AcDbLine
 10
1419.7582216042656
 20
106.63763377379007
 30
0.0
 11
1455.1697076010064
 21
107.87423011364251
 31
0.0
  0
LINE
  5
D1
330
17
100
AcDbEntity
  8
0
100
AcDbLine
 10
1455.1697076010064
 20
107.87423011364251
 30
0.0
 11
1453.9331112611535
 21
143.28571611039047
 31
0.0
  0
LINE
  5
D2
330
17
100
AcDbEntity
  8
0
100
AcDbLine
 10
1453.9331112611535
 20
143.28571611039047
 30
0.0
 11
1453.9331112611535
 21
143.28571611039047
 31
0.0
  0
LINE
  5
D3
330
17
100
AcDbEntity
  8
0
100
AcDbLine
 10
246.40143877233118
 20
101.11778092142379
 30
0.0
 11
281.81292476907197
 21
102.35437726127623
 31
0.0
  0
LINE
  5
D4
330
17
100
AcDbEntity
  8
0
100
AcDbLine
 10
281.81292476907197
 20
102.35437726127623
 30
0.0
 11
283.04952110892464
 21
66.94289126452827
 31
0.0
  0
LINE
  5
D5
330
17
100
AcDbEntity
  8
0
100
AcDbLine
 10
283.04952110892464
 20
66.94289126452827
 30
0.0
 11
247.63803511218384
 21
65.70629492467583
 31
0.0
  0
LINE
  5
D6
330
17
100
AcDbEntity
  8
0
100
AcDbLine
 10
247.63803511218384
 20
65.70629492467583
 30
0.0
 11
246.40143877233118
 21
101.11778092142379
 31
0.0
  0
LINE
  5
D7
330
17
100
AcDbEntity
  8
0
100
AcDbLine
 10
246.40143877233118
 20
101.11778092142379
 30
0.0
 11
246.40143877233118
 21
101.11778092142379
 31
0.0
  0
LINE
  5
D8
330
17
100
AcDbEntity
  8
0
100
AcDbLine
 10
721.8595973783132
 20
564.4499737262887
 30
0.0
 11
725.5693863978705
 21
458.2155157360663
 31
0.0
  0
LINE
  5
D9
330
17
100
AcDbEntity
  8
0
100
AcDbLine
 10
725.5693863978705
 20
458.2155157360663
 30
0.0
 11
743.275129396241
 21
458.83381390599254
 31
0.0
  0
LINE
  5
DA
330
17
100
AcDbEntity
  8
0
100
AcDbLine
 10
743.275129396241
 20
458.83381390599254
 30
0.0
 11
739.5653403766837
 21
565.0682718962149
 31
0.0
  0
LINE
  5
DB
330
17
100
AcDbEntity
  8
0
100
AcDbLine
 10
739.5653403766837
 20
565.0682718962149
 30
0.0
 11
721.8595973783132
 21
564.4499737262887
 31
0.0
  0
LINE
  5
DC
330
17
100
AcDbEntity
  8
0
100
AcDbLine
 10
721.8595973783132
 20
564.4499737262887
 30
0.0
 11
721.8595973783132
 21
564.4499737262887
 31
0.0
  0
LINE
  5
DD
330
17
100
AcDbEntity
  8
0
100
AcDbLine
 10
1548.5997771300533
 20
444.41076762456316
 30
0.0
 11
1549.0944156659941
 21
430.2461732258664
 31
0.0
  0
LINE
  5
DE
330
17
100
AcDbEntity
  8
0
100
AcDbLine
 10
1549.0944156659941
 20
430.2461732258664
 30
0.0
 11
1442.8599576757742
 21
426.5363842063093
 31
0.0
  0
LINE
  5
DF
330
17
100
AcDbEntity
  8
0
100
AcDbLine
 10
1442.8599576757742
 20
426.5363842063093
 30
0.0
 11
1442.3653191398334
 21
440.70097860500607
 31
0.0
  0
LINE
  5
E0
330
17
100
AcDbEntity
  8
0
100
AcDbLine
 10
1442.3653191398334
 20
440.70097860500607
 30
0.0
 11
1548.5997771300533
 21
444.41076762456316
 31
0.0
  0
LINE
  5
E1
330
17
100
AcDbEntity
  8
0
100
AcDbLine
 10
1548.5997771300533
 20
444.41076762456316
 30
0.0
 11
1548.5997771300533
 21
444.41076762456316
 31
0.0
  0
LINE
  5
E2
330
17
100
AcDbEntity
  8
0
100
AcDbLine
 10
1288.9155464872977
 20
435.3423944656457
 30
0.0
 11
1289.4101850232385
 21
421.177800066949
 31
0.0
  0
LINE
  5
E3
330
17
100
AcDbEntity
  8
0
100
AcDbLine
 10
1289.4101850232385
 20
421.177800066949
 30
0.0
 11
1183.1757270330188
 21
417.46801104739166
 31
0.0
  0
LINE
  5
E4
330
17
100
AcDbEntity
  8
0
100
AcDbLine
 10
1183.1757270330188
 20
417.46801104739166
 30
0.0
 11
1182.681088497078
 21
431.6326054460884
 31
0.0
  0
LINE
  5
E5
330
17
100
AcDbEntity
  8
0
100
AcDbLine
 10
1182.681088497078
 20
431.6326054460884
 30
0.0
 11
1288.9155464872977
 21
435.3423944656457
 31
0.0
  0
LINE
  5
E6
330
17
100
AcDbEntity
  8
0
100
AcDbLine
 10
1288.9155464872977
 20
435.3423944656457
 30
0.0
 11
1288.9155464872977
 21
435.3423944656457
 31
0.0
  0
LINE
  5
E7
330
17
100
AcDbEntity
  8
0
100
AcDbLine
 10
2072.7909474622224
 20
448.53405909635035
 30
0.0
 11
1974.0322476268684
 21
445.08532930409524
 31
0.0
  0
LINE
  5
E8
330
17
100
AcDbEntity
  8
0
100
AcDbLine
 10
1974.0322476268684
 20
445.08532930409524
 30
0.0
 11
1973.5376090909276
 21
459.249923702792
 31
0.0
  0
LINE
  5
E9
330
17
100
AcDbEntity
  8
0
100
AcDbLine
 10
1973.5376090909276
 20
459.249923702792
 30
0.0
 11
2072.2963089262817
 21
462.6986534950471
 31
0.0
  0
LINE
  5
EA
330
17
100
AcDbEntity
  8
0
100
AcDbLine
 10
1820.0878364383914
 20
453.89133956343164
 30
0.0
 11
1820.5824749743322
 21
439.7267451647349
 31
0.0
  0
LINE
  5
EB
330
17
100
AcDbEntity
  8
0
100
AcDbLine
 10
1820.5824749743322
 20
439.7267451647349
 30
0.0
 11
1714.3480169841132
 21
436.0169561451776
 31
0.0
  0
LINE
  5
EC
330
17
100
AcDbEntity
  8
0
100
AcDbLine
 10
1714.3480169841132
 20
436.0169561451776
 30
0.0
 11
1713.8533784481724
 21
450.1815505438743
 31
0.0
  0
LINE
  5
ED
330
17
100
AcDbEntity
  8
0
100
AcDbLine
 10
1713.8533784481724
 20
450.1815505438743
 30
0.0
 11
1820.0878364383914
 21
453.89133956343164
 31
0.0
  0
LINE
  5
EE
330
17
100
AcDbEntity
  8
0
100
AcDbLine
 10
1820.0878364383914
 20
453.89133956343164
 30
0.0
 11
1820.0878364383914
 21
453.89133956343164
 31
0.0
  0
LINE
  5
EF
330
17
100
AcDbEntity
  8
0
100
AcDbLine
 10
1619.8611741861805
 20
468.17207178030014
 30
0.0
 11
1641.108065784222
 21
468.91402958421156
 31
0.0
  0
LINE
  5
F0
330
17
100
AcDbEntity
  8
0
100
AcDbLine
 10
1641.108065784222
 20
468.91402958421156
 30
0.0
 11
1641.8500235881331
 21
447.66713798617445
 31
0.0
  0
LINE
  5
F1
330
17
100
AcDbEntity
  8
0
100
AcDbLine
 10
1641.8500235881331
 20
447.66713798617445
 30
0.0
 11
1620.6031319900917
 21
446.92518018226303
 31
0.0
  0
LINE
  5
F2
330
17
100
AcDbEntity
  8
0
100
AcDbLine
 10
1620.6031319900917
 20
446.92518018226303
 30
0.0
 11
1619.8611741861805
 21
468.17207178030014
 31
0.0
  0
LINE
  5
F3
330
17
100
AcDbEntity
  8
0
100
AcDbLine
 10
1619.8611741861805
 20
468.17207178030014
 30
0.0
 11
1619.8611741861805
 21
468.17207178030014
 31
0.0
  0
LINE
  5
F4
330
17
100
AcDbEntity
  8
0
100
AcDbLine
 10
1088.6888842350866
 20
449.6231266825142
 30
0.0
 11
1109.9357758331278
 21
450.36508448642564
 31
0.0
  0
LINE
  5
F5
330
17
100
AcDbEntity
  8
0
100
AcDbLine
 10
1109.9357758331278
 20
450.36508448642564
 30
0.0
 11
1110.677733637039
 21
429.11819288838853
 31
0.0
  0
LINE
  5
F6
330
17
100
AcDbEntity
  8
0
100
AcDbLine
 10
1110.677733637039
 20
429.11819288838853
 30
0.0
 11
1089.4308420389978
 21
428.3762350844771
 31
0.0
  0
LINE
  5
F7
330
17
100
AcDbEntity
  8
0
100
AcDbLine
 10
1089.4308420389978
 20
428.3762350844771
 30
0.0
 11
1088.6888842350866
 21
449.6231266825142
 31
0.0
  0
LINE
  5
F8
330
17
100
AcDbEntity
  8
0
100
AcDbLine
 10
1088.6888842350866
 20
449.6231266825142
 30
0.0
 11
1088.6888842350866
 21
449.6231266825142
 31
0.0
  0
LINE
  5
F9
330
17
100
AcDbEntity
  8
0
100
AcDbLine
 10
568.1400400830112
 20
431.4451604866839
 30
0.0
 11
589.3869316810559
 21
432.18711829059544
 31
0.0
  0
LINE
  5
FA
330
17
100
AcDbEntity
  8
0
100
AcDbLine
 10
589.3869316810559
 20
432.18711829059544
 30
0.0
 11
590.1288894849671
 21
410.9402266925583
 31
0.0
  0
LINE
  5
FB
330
17
100
AcDbEntity
  8
0
100
AcDbLine
 10
590.1288894849671
 20
410.9402266925583
 30
0.0
 11
568.8819978869224
 21
410.1982688886468
 31
0.0
  0
LINE
  5
FC
330
17
100
AcDbEntity
  8
0
100
AcDbLine
 10
568.8819978869224
 20
410.1982688886468
 30
0.0
 11
568.1400400830112
 21
431.4451604866839
 31
0.0
  0
LINE
  5
FD
330
17
100
AcDbEntity
  8
0
100
AcDbLine
 10
568.1400400830112
 20
431.4451604866839
 30
0.0
 11
568.1400400830112
 21
431.4451604866839
 31
0.0
  0
LINE
  5
FE
330
17
100
AcDbEntity
  8
0
100
AcDbLine
 10
1597.561220190842
 20
1106.7592025881745
 30
0.0
 11
1618.8081117888835
 21
1107.501160392086
 31
0.0
  0
LINE
  5
FF
330
17
100
AcDbEntity
  8
0
100
AcDbLine
 10
1618.8081117888835
 20
1107.501160392086
 30
0.0
 11
1619.550069592795
 21
1086.2542687940447
 31
0.0
  0
LINE
  5
100
330
17
100
AcDbEntity
  8
0
100
AcDbLine
 10
1619.550069592795
 20
1086.2542687940447
 30
0.0
 11
1598.3031779947535
 21
1085.5123109901333
 31
0.0
  0
LINE
  5
101
330
17
100
AcDbEntity
  8
0
100
AcDbLine
 10
1598.3031779947535
 20
1085.5123109901333
 30
0.0
 11
1597.561220190842
 21
1106.7592025881745
 31
0.0
  0
LINE
  5
102
330
17
100
AcDbEntity
  8
0
100
AcDbLine
 10
1597.561220190842
 20
1106.7592025881745
 30
0.0
 11
1597.561220190842
 21
1106.7592025881745
 31
0.0
  0
LINE
  5
103
330
17
100
AcDbEntity
  8
0
100
AcDbLine
 10
1066.388930239748
 20
1088.2102574903886
 30
0.0
 11
1087.6358218377893
 21
1088.9522152943
 31
0.0
  0
LINE
  5
104
330
17
100
AcDbEntity
  8
0
100
AcDbLine
 10
1087.6358218377893
 20
1088.9522152943
 30
0.0
 11
1088.3777796417007
 21
1067.7053236962588
 31
0.0
  0
LINE
  5
105
330
17
100
AcDbEntity
  8
0
100
AcDbLine
 10
1088.3777796417007
 20
1067.7053236962588
 30
0.0
 11
1067.1308880436595
 21
1066.9633658923474
 31
0.0
  0
LINE
  5
106
330
17
100
AcDbEntity
  8
0
100
AcDbLine
 10
1067.1308880436595
 20
1066.9633658923474
 30
0.0
 11
1066.388930239748
 21
1088.2102574903886
 31
0.0
  0
LINE
  5
107
330
17
100
AcDbEntity
  8
0
100
AcDbLine
 10
1066.388930239748
 20
1088.2102574903886
 30
0.0
 11
1066.388930239748
 21
1088.2102574903886
 31
0.0
  0
LINE
  5
108
330
17
100
AcDbEntity
  8
0
100
AcDbLine
 10
545.8400860876728
 20
1070.0322912945583
 30
0.0
 11
567.0869776857176
 21
1070.77424909847
 31
0.0
  0
LINE
  5
109
330
17
100
AcDbEntity
  8
0
100
AcDbLine
 10
567.0869776857176
 20
1070.77424909847
 30
0.0
 11
567.8289354896289
 21
1049.5273575004287
 31
0.0
  0
LINE
  5
10A
330
17
100
AcDbEntity
  8
0
100
AcDbLine
 10
567.8289354896289
 20
1049.5273575004287
 30
0.0
 11
546.5820438915841
 21
1048.785399696517
 31
0.0
  0
LINE
  5
10B
330
17
100
AcDbEntity
  8
0
100
AcDbLine
 10
546.5820438915841
 20
1048.785399696517
 30
0.0
 11
545.8400860876728
 21
1070.0322912945583
 31
0.0
  0
LINE
  5
10C
330
17
100
AcDbEntity
  8
0
100
AcDbLine
 10
545.8400860876728
 20
1070.0322912945583
 30
0.0
 11
545.8400860876728
 21
1070.0322912945583
 31
0.0
  0
LINE
  5
10D
330
17
100
AcDbEntity
  8
0
100
AcDbLine
 10
1574.8902872935482
 20
1755.9697791950675
 30
0.0
 11
1596.1371788915897
 21
1756.711736998979
 31
0.0
  0
LINE
  5
10E
330
17
100
AcDbEntity
  8
0
100
AcDbLine
 10
1596.1371788915897
 20
1756.711736998979
 30
0.0
 11
1596.8791366955008
 21
1735.4648454009373
 31
0.0
  0
LINE
  5
10F
330
17
100
AcDbEntity
  8
0
100
AcDbLine
 10
1596.8791366955008
 20
1735.4648454009373
 30
0.0
 11
1575.6322450974594
 21
1734.7228875970259
 31
0.0
  0
LINE
  5
110
330
17
100
AcDbEntity
  8
0
100
AcDbLine
 10
1575.6322450974594
 20
1734.7228875970259
 30
0.0
 11
1574.8902872935482
 21
1755.9697791950675
 31
0.0
  0
LINE
  5
111
330
17
100
AcDbEntity
  8
0
100
AcDbLine
 10
1574.8902872935482
 20
1755.9697791950675
 30
0.0
 11
1574.8902872935482
 21
1755.9697791950675
 31
0.0
  0
LINE
  5
112
330
17
100
AcDbEntity
  8
0
100
AcDbLine
 10
1043.7179973424543
 20
1737.4208340972816
 30
0.0
 11
1064.9648889404955
 21
1738.162791901193
 31
0.0
  0
LINE
  5
113
330
17
100
AcDbEntity
  8
0
100
AcDbLine
 10
1064.9648889404955
 20
1738.162791901193
 30
0.0
 11
1065.7068467444067
 21
1716.9159003031514
 31
0.0
  0
LINE
  5
114
330
17
100
AcDbEntity
  8
0
100
AcDbLine
 10
1065.7068467444067
 20
1716.9159003031514
 30
0.0
 11
1044.4599551463655
 21
1716.17394249924
 31
0.0
  0
LINE
  5
115
330
17
100
AcDbEntity
  8
0
100
AcDbLine
 10
1044.4599551463655
 20
1716.17394249924
 30
0.0
 11
1043.7179973424543
 21
1737.4208340972816
 31
0.0
  0
LINE
  5
116
330
17
100
AcDbEntity
  8
0
100
AcDbLine
 10
1043.7179973424543
 20
1737.4208340972816
 30
0.0
 11
1043.7179973424543
 21
1737.4208340972816
 31
0.0
  0
LINE
  5
117
330
17
100
AcDbEntity
  8
0
100
AcDbLine
 10
523.1691531903789
 20
1719.2428679014513
 30
0.0
 11
544.4160447884236
 21
1719.9848257053627
 31
0.0
  0
LINE
  5
118
330
17
100
AcDbEntity
  8
0
100
AcDbLine
 10
544.4160447884236
 20
1719.9848257053627
 30
0.0
 11
545.158002592335
 21
1698.737934107321
 31
0.0
  0
LINE
  5
119
330
17
100
AcDbEntity
  8
0
100
AcDbLine
 10
545.158002592335
 20
1698.737934107321
 30
0.0
 11
523.9111109942903
 21
1697.9959763034096
 31
0.0
  0
LINE
  5
11A
330
17
100
AcDbEntity
  8
0
100
AcDbLine
 10
523.9111109942903
 20
1697.9959763034096
 30
0.0
 11
523.1691531903789
 21
1719.2428679014513
 31
0.0
  0
LINE
  5
11B
330
17
100
AcDbEntity
  8
0
100
AcDbLine
 10
523.1691531903789
 20
1719.2428679014513
 30
0.0
 11
523.1691531903789
 21
1719.2428679014513
 31
0.0
  0
LINE
  5
11C
330
17
100
AcDbEntity
  8
0
100
AcDbLine
 10
737.3732150634513
 20
458.6277145160203
 30
0.0
 11
737.0846759174857
 21
466.8903945819252
 31
0.0
  0
LINE
  5
11D
330
17
100
AcDbEntity
  8
0
100
AcDbLine
 10
737.0846759174857
 20
466.8903945819252
 30
0.0
 11
742.9865902502753
 21
467.0964939719006
 31
0.0
  0
LINE
  5
11E
330
17
100
AcDbEntity
  8
0
100
AcDbLine
 10
742.9865902502753
 20
467.0964939719006
 30
0.0
 11
742.9865902502753
 21
467.0964939719006
 31
0.0
  0
LINE
  5
11F
330
17
100
AcDbEntity
  8
0
100
AcDbLine
 10
740.0356330838807
 20
466.9934442769129
 30
0.0
 11
736.9029223562546
 21
556.7025421353228
 31
0.0
  0
LINE
  5
120
330
17
100
AcDbEntity
  8
0
100
AcDbLine
 10
736.9029223562546
 20
556.7025421353228
 30
0.0
 11
733.9519651898596
 21
556.5994924403351
 31
0.0
  0
LINE
  5
121
330
17
100
AcDbEntity
  8
0
100
AcDbLine
 10
733.9519651898596
 20
556.5994924403351
 30
0.0
 11
737.0846759174857
 21
466.8903945819252
 31
0.0
  0
LINE
  5
122
330
17
100
AcDbEntity
  8
0
100
AcDbLine
 10
737.0846759174857
 20
466.8903945819252
 30
0.0
 11
740.0356330838807
 21
466.9934442769129
 31
0.0
  0
LINE
  5
123
330
17
100
AcDbEntity
  8
0
100
AcDbLine
 10
740.0356330838807
 20
466.9934442769129
 30
0.0
 11
740.0356330838807
 21
466.9934442769129
 31
0.0
  0
LINE
  5
124
330
17
100
AcDbEntity
  8
0
100
AcDbLine
 10
738.3287440368313
 20
600.4797578929561
 30
0.0
 11
739.8538795226492
 21
556.8055918303105
 31
0.0
  0
LINE
  5
125
330
17
100
AcDbEntity
  8
0
100
AcDbLine
 10
739.8538795226492
 20
556.8055918303105
 30
0.0
 11
733.9519651898596
 21
556.5994924403351
 31
0.0
  0
LINE
  5
126
330
17
100
AcDbEntity
  8
0
100
AcDbLine
 10
733.9519651898596
 20
556.5994924403351
 30
0.0
 11
733.6634260438941
 21
564.8621725062395
 31
0.0
  0
LINE
  5
127
330
17
100
AcDbEntity
  8
0
100
AcDbLine
 10
739.5653403766837
 20
565.0682718962149
 30
0.0
 11
739.5653403766837
 21
565.0682718962149
 31
0.0
  0
LINE
  5
128
330
17
100
AcDbEntity
  8
0
100
AcDbLine
 10
1442.6538582858022
 20
432.4382985390952
 30
0.0
 11
1450.9165383517081
 21
432.7268376850608
 31
0.0
  0
LINE
  5
129
330
17
100
AcDbEntity
  8
0
100
AcDbLine
 10
1450.9165383517081
 20
432.7268376850608
 30
0.0
 11
1451.1226377416835
 21
426.82492335227175
 31
0.0
  0
LINE
  5
12A
330
17
100
AcDbEntity
  8
0
100
AcDbLine
 10
1451.1226377416835
 20
426.82492335227175
 30
0.0
 11
1451.1226377416835
 21
426.82492335227175
 31
0.0
  0
LINE
  5
12B
330
17
100
AcDbEntity
  8
0
100
AcDbLine
 10
1451.0195880466958
 20
429.7758805186663
 30
0.0
 11
1540.7286859051042
 21
432.9085912462924
 31
0.0
  0
LINE
  5
12C
330
17
100
AcDbEntity
  8
0
100
AcDbLine
 10
1540.7286859051042
 20
432.9085912462924
 30
0.0
 11
1540.6256362101165
 21
435.8595484126869
 31
0.0
  0
LINE
  5
12D
330
17
100
AcDbEntity
  8
0
100
AcDbLine
 10
1540.6256362101165
 20
435.8595484126869
 30
0.0
 11
1450.9165383517081
 21
432.7268376850608
 31
0.0
  0
LINE
  5
12E
330
17
100
AcDbEntity
  8
0
100
AcDbLine
 10
1450.9165383517081
 20
432.7268376850608
 30
0.0
 11
1451.0195880466958
 21
429.7758805186663
 31
0.0
  0
LINE
  5
12F
330
17
100
AcDbEntity
  8
0
100
AcDbLine
 10
1451.0195880466958
 20
429.7758805186663
 30
0.0
 11
1451.0195880466958
 21
429.7758805186663
 31
0.0
  0
LINE
  5
130
330
17
100
AcDbEntity
  8
0
100
AcDbLine
 10
1722.610697050022
 20
436.30549529114023
 30
0.0
 11
1540.8317356000919
 21
429.95763407989784
 31
0.0
  0
LINE
  5
131
330
17
100
AcDbEntity
  8
0
100
AcDbLine
 10
1540.8317356000919
 20
429.95763407989784
 30
0.0
 11
1540.6256362101165
 21
435.8595484126869
 31
0.0
  0
LINE
  5
132
330
17
100
AcDbEntity
  8
0
100
AcDbLine
 10
1540.6256362101165
 20
435.8595484126869
 30
0.0
 11
1548.8883162760224
 21
436.1480875586525
 31
0.0
  0
LINE
  5
133
330
17
100
AcDbEntity
  8
0
100
AcDbLine
 10
1549.0944156659978
 20
430.24617322586346
 30
0.0
 11
1549.0944156659978
 21
430.24617322586346
 31
0.0
  0
LINE
  5
134
330
17
100
AcDbEntity
  8
0
100
AcDbLine
 10
1182.9696276430468
 20
423.36992538017773
 30
0.0
 11
1191.2323077089522
 21
423.6584645261431
 31
0.0
  0
LINE
  5
135
330
17
100
AcDbEntity
  8
0
100
AcDbLine
 10
1191.2323077089522
 20
423.6584645261431
 30
0.0
 11
1191.4384070989277
 21
417.7565501933541
 31
0.0
  0
LINE
  5
136
330
17
100
AcDbEntity
  8
0
100
AcDbLine
 10
1191.4384070989277
 20
417.7565501933541
 30
0.0
 11
1191.4384070989277
 21
417.7565501933541
 31
0.0
  0
LINE
  5
137
330
17
100
AcDbEntity
  8
0
100
AcDbLine
 10
1191.33535740394
 20
420.70750735974866
 30
0.0
 11
1281.0444552623485
 21
423.840218087375
 31
0.0
  0
LINE
  5
138
330
17
100
AcDbEntity
  8
0
100
AcDbLine
 10
1281.0444552623485
 20
423.840218087375
 30
0.0
 11
1280.9414055673608
 21
426.79117525376944
 31
0.0
  0
LINE
  5
139
330
17
100
AcDbEntity
  8
0
100
AcDbLine
 10
1280.9414055673608
 20
426.79117525376944
 30
0.0
 11
1191.2323077089522
 21
423.6584645261431
 31
0.0
  0
LINE
  5
13A
330
17
100
AcDbEntity
  8
0
100
AcDbLine
 10
1191.2323077089522
 20
423.6584645261431
 30
0.0
 11
1191.33535740394
 21
420.70750735974866
 31
0.0
  0
LINE
  5
13B
330
17
100
AcDbEntity
  8
0
100
AcDbLine
 10
1191.33535740394
 20
420.70750735974866
 30
0.0
 11
1191.33535740394
 21
420.70750735974866
 31
0.0
  0
LINE
  5
13C
330
17
100
AcDbEntity
  8
0
100
AcDbLine
 10
1451.1226377416835
 20
426.82492335227175
 30
0.0
 11
1281.1475049573362
 21
420.8892609209804
 31
0.0
  0
LINE
  5
13D
330
17
100
AcDbEntity
  8
0
100
AcDbLine
 10
1281.1475049573362
 20
420.8892609209804
 30
0.0
 11
1280.9414055673608
 21
426.79117525376944
 31
0.0
  0
LINE
  5
13E
330
17
100
AcDbEntity
  8
0
100
AcDbLine
 10
1280.9414055673608
 20
426.79117525376944
 30
0.0
 11
1289.2040856332665
 21
427.0797143997348
 31
0.0
  0
LINE
  5
13F
330
17
100
AcDbEntity
  8
0
100
AcDbLine
 10
1289.4101850232419
 20
421.1778000669458
 30
0.0
 11
1289.4101850232419
 21
421.1778000669458
 31
0.0
  0
LINE
  5
140
330
17
100
AcDbEntity
  8
0
100
AcDbLine
 10
1973.8261482368969
 20
450.9872436368811
 30
0.0
 11
1982.0888283028025
 21
451.2757827828467
 31
0.0
  0
LINE
  5
141
330
17
100
AcDbEntity
  8
0
100
AcDbLine
 10
1982.0888283028025
 20
451.2757827828467
 30
0.0
 11
1982.294927692778
 21
445.37386845005767
 31
0.0
  0
LINE
  5
142
330
17
100
AcDbEntity
  8
0
100
AcDbLine
 10
1982.294927692778
 20
445.37386845005767
 30
0.0
 11
1982.294927692778
 21
445.37386845005767
 31
0.0
  0
LINE
  5
143
330
17
100
AcDbEntity
  8
0
100
AcDbLine
 10
1982.1918779977902
 20
448.32482561645224
 30
0.0
 11
2071.9009758561997
 21
451.45753634407833
 31
0.0
  0
LINE
  5
144
330
17
100
AcDbEntity
  8
0
100
AcDbLine
 10
2071.9009758561997
 20
451.45753634407833
 30
0.0
 11
2071.797926161212
 21
454.4084935104728
 31
0.0
  0
LINE
  5
145
330
17
100
AcDbEntity
  8
0
100
AcDbLine
 10
2071.797926161212
 20
454.4084935104728
 30
0.0
 11
1982.0888283028025
 21
451.2757827828467
 31
0.0
  0
LINE
  5
146
330
17
100
AcDbEntity
  8
0
100
AcDbLine
 10
1982.0888283028025
 20
451.2757827828467
 30
0.0
 11
1982.1918779977902
 21
448.32482561645224
 31
0.0
  0
LINE
  5
147
330
17
100
AcDbEntity
  8
0
100
AcDbLine
 10
1982.1918779977902
 20
448.32482561645224
 30
0.0
 11
1982.1918779977902
 21
448.32482561645224
 31
0.0
  0
LINE
  5
148
330
17
100
AcDbEntity
  8
0
100
AcDbLine
 10
2072.7909474622224
 20
448.53405909634716
 30
0.0
 11
2072.004025551187
 21
448.50657917768376
 31
0.0
  0
LINE
  5
149
330
17
100
AcDbEntity
  8
0
100
AcDbLine
 10
2072.004025551187
 20
448.50657917768376
 30
0.0
 11
2071.797926161212
 21
454.4084935104728
 31
0.0
  0
LINE
  5
14A
330
17
100
AcDbEntity
  8
0
100
AcDbLine
 10
2071.797926161212
 20
454.4084935104728
 30
0.0
 11
2072.5848480722475
 21
454.4359734291362
 31
0.0
  0
LINE
  5
14B
330
17
100
AcDbEntity
  8
0
100
AcDbLine
 10
1714.1419175941408
 20
441.91887047796365
 30
0.0
 11
1722.4045976600466
 21
442.20740962392927
 31
0.0
  0
LINE
  5
14C
330
17
100
AcDbEntity
  8
0
100
AcDbLine
 10
1722.4045976600466
 20
442.20740962392927
 30
0.0
 11
1722.610697050022
 21
436.30549529114023
 31
0.0
  0
LINE
  5
14D
330
17
100
AcDbEntity
  8
0
100
AcDbLine
 10
1722.610697050022
 20
436.30549529114023
 30
0.0
 11
1722.610697050022
 21
436.30549529114023
 31
0.0
  0
LINE
  5
14E
330
17
100
AcDbEntity
  8
0
100
AcDbLine
 10
1722.5076473550344
 20
439.2564524575348
 30
0.0
 11
1812.2167452134436
 21
442.3891631851609
 31
0.0
  0
LINE
  5
14F
330
17
100
AcDbEntity
  8
0
100
AcDbLine
 10
1812.2167452134436
 20
442.3891631851609
 30
0.0
 11
1812.1136955184559
 21
445.34012035155536
 31
0.0
  0
LINE
  5
150
330
17
100
AcDbEntity
  8
0
100
AcDbLine
 10
1812.1136955184559
 20
445.34012035155536
 30
0.0
 11
1722.4045976600466
 21
442.20740962392927
 31
0.0
  0
LINE
  5
151
330
17
100
AcDbEntity
  8
0
100
AcDbLine
 10
1722.4045976600466
 20
442.20740962392927
 30
0.0
 11
1722.5076473550344
 21
439.2564524575348
 31
0.0
  0
LINE
  5
152
330
17
100
AcDbEntity
  8
0
100
AcDbLine
 10
1722.5076473550344
 20
439.2564524575348
 30
0.0
 11
1722.5076473550344
 21
439.2564524575348
 31
0.0
  0
LINE
  5
153
330
17
100
AcDbEntity
  8
0
100
AcDbLine
 10
1982.294927692778
 20
445.37386845005767
 30
0.0
 11
1812.3197949084313
 21
439.4382060187663
 31
0.0
  0
LINE
  5
154
330
17
100
AcDbEntity
  8
0
100
AcDbLine
 10
1812.3197949084313
 20
439.4382060187663
 30
0.0
 11
1812.1136955184559
 21
445.34012035155536
 31
0.0
  0
LINE
  5
155
330
17
100
AcDbEntity
  8
0
100
AcDbLine
 10
1812.1136955184559
 20
445.34012035155536
 30
0.0
 11
1820.3763755843606
 21
445.62865949752074
 31
0.0
  0
LINE
  5
156
330
17
100
AcDbEntity
  8
0
100
AcDbLine
 10
1820.582474974336
 20
439.7267451647317
 30
0.0
 11
1820.582474974336
 21
439.7267451647317
 31
0.0
  0
LINE
  5
157
330
17
100
AcDbEntity
  8
0
100
AcDbLine
 10
823.6176316027409
 20
763.0041214920063
 30
0.0
 11
823.5795399928473
 21
763.5300106461118
 31
0.0
  0
LINE
  5
158
330
17
100
AcDbEntity
  8
0
100
AcDbLine
 10
823.5795399928473
 20
763.5300106461118
 30
0.0
 11
823.5022551491182
 21
764.0515827179108
 31
0.0
  0
LINE
  5
159
330
17
100
AcDbEntity
  8
0
100
AcDbLine
 10
823.5022551491182
 20
764.0515827179108
 30
0.0
 11
823.3862092797494
 21
764.5659208648074
 31
0.0
  0
LINE
  5
15A
330
17
100
AcDbEntity
  8
0
100
AcDbLine
 10
823.3862092797494
 20
764.5659208648074
 30
0.0
 11
823.232051360315
 21
765.0701486992494
 31
0.0
  0
LINE
  5
15B
330
17
100
AcDbEntity
  8
0
100
AcDbLine
 10
823.232051360315
 20
765.0701486992494
 30
0.0
 11
823.0406435044325
 21
765.561446374653
 31
0.0
  0
LINE
  5
15C
330
17
100
AcDbEntity
  8
0
100
AcDbLine
 10
823.0406435044325
 20
765.561446374653
 30
0.0
 11
822.8130561424749
 21
766.037066355129
 31
0.0
  0
LINE
  5
15D
330
17
100
AcDbEntity
  8
0
100
AcDbLine
 10
822.8130561424749
 20
766.037066355129
 30
0.0
 11
822.5505620352875
 21
766.4943487808163
 31
0.0
  0
LINE
  5
15E
330
17
100
AcDbEntity
  8
0
100
AcDbLine
 10
822.5505620352875
 20
766.4943487808163
 30
0.0
 11
822.2546291563956
 21
766.9307363428996
 31
0.0
  0
LINE
  5
15F
330
17
100
AcDbEntity
  8
0
100
AcDbLine
 10
822.2546291563956
 20
766.9307363428996
 30
0.0
 11
821.9269124824993
 21
767.3437885851179
 31
0.0
  0
LINE
  5
160
330
17
100
AcDbEntity
  8
0
100
AcDbLine
 10
821.9269124824993
 20
767.3437885851179
 30
0.0
 11
821.5692447381734
 21
767.7311955517807
 31
0.0
  0
LINE
  5
161
330
17
100
AcDbEntity
  8
0
100
AcDbLine
 10
821.5692447381734
 20
767.7311955517807
 30
0.0
 11
821.1836261465276
 21
768.0907907059857
 31
0.0
  0
LINE
  5
162
330
17
100
AcDbEntity
  8
0
100
AcDbLine
 10
821.1836261465276
 20
768.0907907059857
 30
0.0
 11
820.7722132431479
 21
768.4205630457645
 31
0.0
  0
LINE
  5
163
330
17
100
AcDbEntity
  8
0
100
AcDbLine
 10
820.7722132431479
 20
768.4205630457645
 30
0.0
 11
820.3373068158742
 21
768.7186683504249
 31
0.0
  0
LINE
  5
164
330
17
100
AcDbEntity
  8
0
100
AcDbLine
 10
820.3373068158742
 20
768.7186683504249
 30
0.0
 11
819.8813390378625
 21
768.9834394941804
 31
0.0
  0
LINE
  5
165
330
17
100
AcDbEntity
  8
0
100
AcDbLine
 10
819.8813390378625
 20
768.9834394941804
 30
0.0
 11
819.4068598658854
 21
769.2133957693942
 31
0.0
  0
LINE
  5
166
330
17
100
AcDbEntity
  8
0
100
AcDbLine
 10
819.4068598658854
 20
769.2133957693942
 30
0.0
 11
818.9165227799388
 21
769.4072511672965
 31
0.0
  0
LINE
  5
167
330
17
100
AcDbEntity
  8
0
100
AcDbLine
 10
818.9165227799388
 20
769.4072511672965
 30
0.0
 11
818.4130699439065
 21
769.5639215698675
 31
0.0
  0
LINE
  5
168
330
17
100
AcDbEntity
  8
0
100
AcDbLine
 10
818.4130699439065
 20
769.5639215698675
 30
0.0
 11
817.8993168702674
 21
769.6825308126638
 31
0.0
  0
LINE
  5
169
330
17
100
AcDbEntity
  8
0
100
AcDbLine
 10
817.8993168702674
 20
769.6825308126638
 30
0.0
 11
817.3781366746063
 21
769.7624155846875
 31
0.0
  0
LINE
  5
16A
330
17
100
AcDbEntity
  8
0
100
AcDbLine
 10
817.3781366746063
 20
769.7624155846875
 30
0.0
 11
816.8524440079879
 21
769.8031291378893
 31
0.0
  0
LINE
  5
16B
330
17
100
AcDbEntity
  8
0
100
AcDbLine
 10
816.8524440079879
 20
769.8031291378893
 30
0.0
 11
816.3251787570449
 21
769.8044437855651
 31
0.0
  0
LINE
  5
16C
330
17
100
AcDbEntity
  8
0
100
AcDbLine
 10
816.3251787570449
 20
769.8044437855651
 30
0.0
 11
815.7992896029391
 21
769.7663521756714
 31
0.0
  0
LINE
  5
16D
330
17
100
AcDbEntity
  8
0
100
AcDbLine
 10
815.7992896029391
 20
769.7663521756714
 30
0.0
 11
815.2777175311402
 21
769.6890673319424
 31
0.0
  0
LINE
  5
16E
330
17
100
AcDbEntity
  8
0
100
AcDbLine
 10
815.2777175311402
 20
769.6890673319424
 30
0.0
 11
814.7633793842439
 21
769.5730214625738
 31
0.0
  0
LINE
  5
16F
330
17
100
AcDbEntity
  8
0
100
AcDbLine
 10
814.7633793842439
 20
769.5730214625738
 30
0.0
 11
814.2591515498016
 21
769.4188635431394
 31
0.0
  0
LINE
  5
170
330
17
100
AcDbEntity
  8
0
100
AcDbLine
 10
814.2591515498016
 20
769.4188635431394
 30
0.0
 11
813.767853874398
 21
769.2274556872568
 31
0.0
  0
LINE
  5
171
330
17
100
AcDbEntity
  8
0
100
AcDbLine
 10
813.767853874398
 20
769.2274556872568
 30
0.0
 11
813.2922338939226
 21
768.999868325299
 31
0.0
  0
LINE
  5
172
330
17
100
AcDbEntity
  8
0
100
AcDbLine
 10
813.2922338939226
 20
768.999868325299
 30
0.0
 11
812.834951468235
 21
768.7373742181119
 31
0.0
  0
LINE
  5
173
330
17
100
AcDbEntity
  8
0
100
AcDbLine
 10
812.834951468235
 20
768.7373742181119
 30
0.0
 11
812.3985639061514
 21
768.4414413392202
 31
0.0
  0
LINE
  5
174
330
17
100
AcDbEntity
  8
0
100
AcDbLine
 10
812.3985639061514
 20
768.4414413392202
 30
0.0
 11
811.985511663934
 21
768.1137246653241
 31
0.0
  0
LINE
  5
175
330
17
100
AcDbEntity
  8
0
100
AcDbLine
 10
811.985511663934
 20
768.1137246653241
 30
0.0
 11
811.5981046972706
 21
767.7560569209979
 31
0.0
  0
LINE
  5
176
330
17
100
AcDbEntity
  8
0
100
AcDbLine
 10
811.5981046972706
 20
767.7560569209979
 30
0.0
 11
811.2385095430657
 21
767.370438329352
 31
0.0
  0
LINE
  5
177
330
17
100
AcDbEntity
  8
0
100
AcDbLine
 10
811.2385095430657
 20
767.370438329352
 30
0.0
 11
810.908737203287
 21
766.9590254259729
 31
0.0
  0
LINE
  5
178
330
17
100
AcDbEntity
  8
0
100
AcDbLine
 10
810.908737203287
 20
766.9590254259729
 30
0.0
 11
810.6106318986266
 21
766.5241189986986
 31
0.0
  0
LINE
  5
179
330
17
100
AcDbEntity
  8
0
100
AcDbLine
 10
810.6106318986266
 20
766.5241189986986
 30
0.0
 11
810.3458607548706
 21
766.0681512206871
 31
0.0
  0
LINE
  5
17A
330
17
100
AcDbEntity
  8
0
100
AcDbLine
 10
810.3458607548706
 20
766.0681512206871
 30
0.0
 11
810.1159044796567
 21
765.59367204871
 31
0.0
  0
LINE
  5
17B
330
17
100
AcDbEntity
  8
0
100
AcDbLine
 10
810.1159044796567
 20
765.59367204871
 30
0.0
 11
809.9220490817544
 21
765.1033349627629
 31
0.0
  0
LINE
  5
17C
330
17
100
AcDbEntity
  8
0
100
AcDbLine
 10
809.9220490817544
 20
765.1033349627629
 30
0.0
 11
809.7653786791836
 21
764.5998821267309
 31
0.0
  0
LINE
  5
17D
330
17
100
AcDbEntity
  8
0
100
AcDbLine
 10
809.7653786791836
 20
764.5998821267309
 30
0.0
 11
809.6467694363876
 21
764.0861290530916
 31
0.0
  0
LINE
  5
17E
330
17
100
AcDbEntity
  8
0
100
AcDbLine
 10
809.6467694363876
 20
764.0861290530916
 30
0.0
 11
809.5668846643637
 21
763.5649488574306
 31
0.0
  0
LINE
  5
17F
330
17
100
AcDbEntity
  8
0
100
AcDbLine
 10
809.5668846643637
 20
763.5649488574306
 30
0.0
 11
809.5261711111617
 21
763.039256190812
 31
0.0
  0
LINE
  5
180
330
17
100
AcDbEntity
  8
0
100
AcDbLine
 10
809.5261711111617
 20
763.039256190812
 30
0.0
 11
809.5248564634858
 21
762.5119909398694
 31
0.0
  0
LINE
  5
181
330
17
100
AcDbEntity
  8
0
100
AcDbLine
 10
809.5248564634858
 20
762.5119909398694
 30
0.0
 11
809.5629480733796
 21
761.9861017857634
 31
0.0
  0
LINE
  5
182
330
17
100
AcDbEntity
  8
0
100
AcDbLine
 10
809.5629480733796
 20
761.9861017857634
 30
0.0
 11
809.6402329171086
 21
761.4645297139649
 31
0.0
  0
LINE
  5
183
330
17
100
AcDbEntity
  8
0
100
AcDbLine
 10
809.6402329171086
 20
761.4645297139649
 30
0.0
 11
809.7562787864775
 21
760.9501915670678
 31
0.0
  0
LINE
  5
184
330
17
100
AcDbEntity
  8
0
100
AcDbLine
 10
809.7562787864775
 20
760.9501915670678
 30
0.0
 11
809.9104367059117
 21
760.4459637326262
 31
0.0
  0
LINE
  5
185
330
17
100
AcDbEntity
  8
0
100
AcDbLine
 10
809.9104367059117
 20
760.4459637326262
 30
0.0
 11
810.1018445617941
 21
759.9546660572227
 31
0.0
  0
LINE
  5
186
330
17
100
AcDbEntity
  8
0
100
AcDbLine
 10
810.1018445617941
 20
759.9546660572227
 30
0.0
 11
810.3294319237518
 21
759.4790460767472
 31
0.0
  0
LINE
  5
187
330
17
100
AcDbEntity
  8
0
100
AcDbLine
 10
810.3294319237518
 20
759.4790460767472
 30
0.0
 11
810.5919260309391
 21
759.0217636510594
 31
0.0
  0
LINE
  5
188
330
17
100
AcDbEntity
  8
0
100
AcDbLine
 10
810.5919260309391
 20
759.0217636510594
 30
0.0
 11
810.8878589098313
 21
758.5853760889755
 31
0.0
  0
LINE
  5
189
330
17
100
AcDbEntity
  8
0
100
AcDbLine
 10
810.8878589098313
 20
758.5853760889755
 30
0.0
 11
811.2155755837276
 21
758.1723238467583
 31
0.0
  0
LINE
  5
18A
330
17
100
AcDbEntity
  8
0
100
AcDbLine
 10
811.2155755837276
 20
758.1723238467583
 30
0.0
 11
811.5732433280533
 21
757.7849168800954
 31
0.0
  0
LINE
  5
18B
330
17
100
AcDbEntity
  8
0
100
AcDbLine
 10
811.5732433280533
 20
757.7849168800954
 30
0.0
 11
811.9588619196993
 21
757.42532172589
 31
0.0
  0
LINE
  5
18C
330
17
100
AcDbEntity
  8
0
100
AcDbLine
 10
811.9588619196993
 20
757.42532172589
 30
0.0
 11
812.3702748230791
 21
757.0955493861111
 31
0.0
  0
LINE
  5
18D
330
17
100
AcDbEntity
  8
0
100
AcDbLine
 10
812.3702748230791
 20
757.0955493861111
 30
0.0
 11
812.8051812503525
 21
756.797444081451
 31
0.0
  0
LINE
  5
18E
330
17
100
AcDbEntity
  8
0
100
AcDbLine
 10
812.8051812503525
 20
756.797444081451
 30
0.0
 11
813.261149028364
 21
756.5326729376952
 31
0.0
  0
LINE
  5
18F
330
17
100
AcDbEntity
  8
0
100
AcDbLine
 10
813.261149028364
 20
756.5326729376952
 30
0.0
 11
813.7356282003416
 21
756.3027166624815
 31
0.0
  0
LINE
  5
190
330
17
100
AcDbEntity
  8
0
100
AcDbLine
 10
813.7356282003416
 20
756.3027166624815
 30
0.0
 11
814.2259652862881
 21
756.1088612645786
 31
0.0
  0
LINE
  5
191
330
17
100
AcDbEntity
  8
0
100
AcDbLine
 10
814.2259652862881
 20
756.1088612645786
 30
0.0
 11
814.7294181223202
 21
755.9521908620077
 31
0.0
  0
LINE
  5
192
330
17
100
AcDbEntity
  8
0
100
AcDbLine
 10
814.7294181223202
 20
755.9521908620077
 30
0.0
 11
815.2431711959596
 21
755.8335816192119
 31
0.0
  0
LINE
  5
193
330
17
100
AcDbEntity
  8
0
100
AcDbLine
 10
815.2431711959596
 20
755.8335816192119
 30
0.0
 11
815.7643513916204
 21
755.7536968471882
 31
0.0
  0
LINE
  5
194
330
17
100
AcDbEntity
  8
0
100
AcDbLine
 10
815.7643513916204
 20
755.7536968471882
 30
0.0
 11
816.290044058239
 21
755.7129832939861
 31
0.0
  0
LINE
  5
195
330
17
100
AcDbEntity
  8
0
100
AcDbLine
 10
816.290044058239
 20
755.7129832939861
 30
0.0
 11
816.8173093091818
 21
755.71166864631
 31
0.0
  0
LINE
  5
196
330
17
100
AcDbEntity
  8
0
100
AcDbLine
 10
816.8173093091818
 20
755.71166864631
 30
0.0
 11
817.3431984632878
 21
755.7497602562039
 31
0.0
  0
LINE
  5
197
330
17
100
AcDbEntity
  8
0
100
AcDbLine
 10
817.3431984632878
 20
755.7497602562039
 30
0.0
 11
817.8647705350864
 21
755.8270450999332
 31
0.0
  0
LINE
  5
198
330
17
100
AcDbEntity
  8
0
100
AcDbLine
 10
817.8647705350864
 20
755.8270450999332
 30
0.0
 11
818.3791086819831
 21
755.9430909693019
 31
0.0
  0
LINE
  5
199
330
17
100
AcDbEntity
  8
0
100
AcDbLine
 10
818.3791086819831
 20
755.9430909693019
 30
0.0
 11
818.8833365164252
 21
756.0972488887357
 31
0.0
  0
LINE
  5
19A
330
17
100
AcDbEntity
  8
0
100
AcDbLine
 10
818.8833365164252
 20
756.0972488887357
 30
0.0
 11
819.3746341918288
 21
756.2886567446184
 31
0.0
  0
LINE
  5
19B
330
17
100
AcDbEntity
  8
0
100
AcDbLine
 10
819.3746341918288
 20
756.2886567446184
 30
0.0
 11
819.8502541723044
 21
756.5162441065768
 31
0.0
  0
LINE
  5
19C
330
17
100
AcDbEntity
  8
0
100
AcDbLine
 10
819.8502541723044
 20
756.5162441065768
 30
0.0
 11
820.3075365979915
 21
756.7787382137637
 31
0.0
  0
LINE
  5
19D
330
17
100
AcDbEntity
  8
0
100
AcDbLine
 10
820.3075365979915
 20
756.7787382137637
 30
0.0
 11
820.7439241600753
 21
757.0746710926555
 31
0.0
  0
LINE
  5
19E
330
17
100
AcDbEntity
  8
0
100
AcDbLine
 10
820.7439241600753
 20
757.0746710926555
 30
0.0
 11
821.156976402293
 21
757.4023877665516
 31
0.0
  0
LINE
  5
19F
330
17
100
AcDbEntity
  8
0
100
AcDbLine
 10
821.156976402293
 20
757.4023877665516
 30
0.0
 11
821.5443833689562
 21
757.7600555108777
 31
0.0
  0
LINE
  5
1A0
330
17
100
AcDbEntity
  8
0
100
AcDbLine
 10
821.5443833689562
 20
757.7600555108777
 30
0.0
 11
821.9039785231611
 21
758.145674102524
 31
0.0
  0
LINE
  5
1A1
330
17
100
AcDbEntity
  8
0
100
AcDbLine
 10
821.9039785231611
 20
758.145674102524
 30
0.0
 11
822.2337508629399
 21
758.5570870059033
 31
0.0
  0
LINE
  5
1A2
330
17
100
AcDbEntity
  8
0
100
AcDbLine
 10
822.2337508629399
 20
758.5570870059033
 30
0.0
 11
822.5318561676003
 21
758.9919934331766
 31
0.0
  0
LINE
  5
1A3
330
17
100
AcDbEntity
  8
0
100
AcDbLine
 10
822.5318561676003
 20
758.9919934331766
 30
0.0
 11
822.796627311356
 21
759.4479612111885
 31
0.0
  0
LINE
  5
1A4
330
17
100
AcDbEntity
  8
0
100
AcDbLine
 10
822.796627311356
 20
759.4479612111885
 30
0.0
 11
823.02658358657
 21
759.9224403831663
 31
0.0
  0
LINE
  5
1A5
330
17
100
AcDbEntity
  8
0
100
AcDbLine
 10
823.02658358657
 20
759.9224403831663
 30
0.0
 11
823.2204389844723
 21
760.4127774691127
 31
0.0
  0
LINE
  5
1A6
330
17
100
AcDbEntity
  8
0
100
AcDbLine
 10
823.2204389844723
 20
760.4127774691127
 30
0.0
 11
823.3771093870431
 21
760.9162303051447
 31
0.0
  0
LINE
  5
1A7
330
17
100
AcDbEntity
  8
0
100
AcDbLine
 10
823.3771093870431
 20
760.9162303051447
 30
0.0
 11
823.4957186298394
 21
761.4299833787836
 31
0.0
  0
LINE
  5
1A8
330
17
100
AcDbEntity
  8
0
100
AcDbLine
 10
823.4957186298394
 20
761.4299833787836
 30
0.0
 11
823.5756034018632
 21
761.9511635744451
 31
0.0
  0
LINE
  5
1A9
330
17
100
AcDbEntity
  8
0
100
AcDbLine
 10
823.5756034018632
 20
761.9511635744451
 30
0.0
 11
823.6163169550653
 21
762.4768562410632
 31
0.0
  0
LINE
  5
1AA
330
17
100
AcDbEntity
  8
0
100
AcDbLine
 10
823.6163169550653
 20
762.4768562410632
 30
0.0
 11
823.6176316027409
 21
763.0041214920063
 31
0.0
  0
LINE
  5
1AB
330
17
100
AcDbEntity
  8
0
100
AcDbLine
 10
643.6373011529809
 20
1111.2657587841018
 30
0.0
 11
643.5992095430871
 21
1111.791647938207
 31
0.0
  0
LINE
  5
1AC
330
17
100
AcDbEntity
  8
0
100
AcDbLine
 10
643.5992095430871
 20
1111.791647938207
 30
0.0
 11
643.5219246993579
 21
1112.3132200100063
 31
0.0
  0
LINE
  5
1AD
330
17
100
AcDbEntity
  8
0
100
AcDbLine
 10
643.5219246993579
 20
1112.3132200100063
 30
0.0
 11
643.4058788299892
 21
1112.8275581569026
 31
0.0
  0
LINE
  5
1AE
330
17
100
AcDbEntity
  8
0
100
AcDbLine
 10
643.4058788299892
 20
1112.8275581569026
 30
0.0
 11
643.2517209105546
 21
1113.3317859913445
 31
0.0
  0
LINE
  5
1AF
330
17
100
AcDbEntity
  8
0
100
AcDbLine
 10
643.2517209105546
 20
1113.3317859913445
 30
0.0
 11
643.0603130546723
 21
1113.823083666748
 31
0.0
  0
LINE
  5
1B0
330
17
100
AcDbEntity
  8
0
100
AcDbLine
 10
643.0603130546723
 20
1113.823083666748
 30
0.0
 11
642.8327256927146
 21
1114.2987036472246
 31
0.0
  0
LINE
  5
1B1
330
17
100
AcDbEntity
  8
0
100
AcDbLine
 10
642.8327256927146
 20
1114.2987036472246
 30
0.0
 11
642.5702315855273
 21
1114.7559860729118
 31
0.0
  0
LINE
  5
1B2
330
17
100
AcDbEntity
  8
0
100
AcDbLine
 10
642.5702315855273
 20
1114.7559860729118
 30
0.0
 11
642.2742987066354
 21
1115.1923736349947
 31
0.0
  0
LINE
  5
1B3
330
17
100
AcDbEntity
  8
0
100
AcDbLine
 10
642.2742987066354
 20
1115.1923736349947
 30
0.0
 11
641.9465820327392
 21
1115.6054258772124
 31
0.0
  0
LINE
  5
1B4
330
17
100
AcDbEntity
  8
0
100
AcDbLine
 10
641.9465820327392
 20
1115.6054258772124
 30
0.0
 11
641.5889142884131
 21
1115.992832843876
 31
0.0
  0
LINE
  5
1B5
330
17
100
AcDbEntity
  8
0
100
AcDbLine
 10
641.5889142884131
 20
1115.992832843876
 30
0.0
 11
641.2032956967673
 21
1116.3524279980813
 31
0.0
  0
LINE
  5
1B6
330
17
100
AcDbEntity
  8
0
100
AcDbLine
 10
641.2032956967673
 20
1116.3524279980813
 30
0.0
 11
640.7918827933877
 21
1116.6822003378593
 31
0.0
  0
LINE
  5
1B7
330
17
100
AcDbEntity
  8
0
100
AcDbLine
 10
640.7918827933877
 20
1116.6822003378593
 30
0.0
 11
640.3569763661139
 21
1116.9803056425203
 31
0.0
  0
LINE
  5
1B8
330
17
100
AcDbEntity
  8
0
100
AcDbLine
 10
640.3569763661139
 20
1116.9803056425203
 30
0.0
 11
639.9010085881024
 21
1117.2450767862756
 31
0.0
  0
LINE
  5
1B9
330
17
100
AcDbEntity
  8
0
100
AcDbLine
 10
639.9010085881024
 20
1117.2450767862756
 30
0.0
 11
639.426529416125
 21
1117.4750330614897
 31
0.0
  0
LINE
  5
1BA
330
17
100
AcDbEntity
  8
0
100
AcDbLine
 10
639.426529416125
 20
1117.4750330614897
 30
0.0
 11
638.9361923301783
 21
1117.6688884593916
 31
0.0
  0
LINE
  5
1BB
330
17
100
AcDbEntity
  8
0
100
AcDbLine
 10
638.9361923301783
 20
1117.6688884593916
 30
0.0
 11
638.4327394941463
 21
1117.8255588619631
 31
0.0
  0
LINE
  5
1BC
330
17
100
AcDbEntity
  8
0
100
AcDbLine
 10
638.4327394941463
 20
1117.8255588619631
 30
0.0
 11
637.9189864205069
 21
1117.9441681047592
 31
0.0
  0
LINE
  5
1BD
330
17
100
AcDbEntity
  8
0
100
AcDbLine
 10
637.9189864205069
 20
1117.9441681047592
 30
0.0
 11
637.3978062248459
 21
1118.0240528767831
 31
0.0
  0
LINE
  5
1BE
330
17
100
AcDbEntity
  8
0
100
AcDbLine
 10
637.3978062248459
 20
1118.0240528767831
 30
0.0
 11
636.8721135582277
 21
1118.0647664299847
 31
0.0
  0
LINE
  5
1BF
330
17
100
AcDbEntity
  8
0
100
AcDbLine
 10
636.8721135582277
 20
1118.0647664299847
 30
0.0
 11
636.3448483072846
 21
1118.0660810776603
 31
0.0
  0
LINE
  5
1C0
330
17
100
AcDbEntity
  8
0
100
AcDbLine
 10
636.3448483072846
 20
1118.0660810776603
 30
0.0
 11
635.8189591531789
 21
1118.027989467767
 31
0.0
  0
LINE
  5
1C1
330
17
100
AcDbEntity
  8
0
100
AcDbLine
 10
635.8189591531789
 20
1118.027989467767
 30
0.0
 11
635.2973870813801
 21
1117.950704624038
 31
0.0
  0
LINE
  5
1C2
330
17
100
AcDbEntity
  8
0
100
AcDbLine
 10
635.2973870813801
 20
1117.950704624038
 30
0.0
 11
634.7830489344836
 21
1117.8346587546694
 31
0.0
  0
LINE
  5
1C3
330
17
100
AcDbEntity
  8
0
100
AcDbLine
 10
634.7830489344836
 20
1117.8346587546694
 30
0.0
 11
634.2788211000416
 21
1117.680500835235
 31
0.0
  0
LINE
  5
1C4
330
17
100
AcDbEntity
  8
0
100
AcDbLine
 10
634.2788211000416
 20
1117.680500835235
 30
0.0
 11
633.7875234246378
 21
1117.4890929793519
 31
0.0
  0
LINE
  5
1C5
330
17
100
AcDbEntity
  8
0
100
AcDbLine
 10
633.7875234246378
 20
1117.4890929793519
 30
0.0
 11
633.3119034441622
 21
1117.2615056173945
 31
0.0
  0
LINE
  5
1C6
330
17
100
AcDbEntity
  8
0
100
AcDbLine
 10
633.3119034441622
 20
1117.2615056173945
 30
0.0
 11
632.8546210184749
 21
1116.999011510207
 31
0.0
  0
LINE
  5
1C7
330
17
100
AcDbEntity
  8
0
100
AcDbLine
 10
632.8546210184749
 20
1116.999011510207
 30
0.0
 11
632.4182334563914
 21
1116.7030786313157
 31
0.0
  0
LINE
  5
1C8
330
17
100
AcDbEntity
  8
0
100
AcDbLine
 10
632.4182334563914
 20
1116.7030786313157
 30
0.0
 11
632.0051812141736
 21
1116.3753619574188
 31
0.0
  0
LINE
  5
1C9
330
17
100
AcDbEntity
  8
0
100
AcDbLine
 10
632.0051812141736
 20
1116.3753619574188
 30
0.0
 11
631.6177742475104
 21
1116.0176942130936
 31
0.0
  0
LINE
  5
1CA
330
17
100
AcDbEntity
  8
0
100
AcDbLine
 10
631.6177742475104
 20
1116.0176942130936
 30
0.0
 11
631.2581790933053
 21
1115.6320756214473
 31
0.0
  0
LINE
  5
1CB
330
17
100
AcDbEntity
  8
0
100
AcDbLine
 10
631.2581790933053
 20
1115.6320756214473
 30
0.0
 11
630.9284067535266
 21
1115.2206627180674
 31
0.0
  0
LINE
  5
1CC
330
17
100
AcDbEntity
  8
0
100
AcDbLine
 10
630.9284067535266
 20
1115.2206627180674
 30
0.0
 11
630.6303014488664
 21
1114.7857562907936
 31
0.0
  0
LINE
  5
1CD
330
17
100
AcDbEntity
  8
0
100
AcDbLine
 10
630.6303014488664
 20
1114.7857562907936
 30
0.0
 11
630.3655303051106
 21
1114.3297885127827
 31
0.0
  0
LINE
  5
1CE
330
17
100
AcDbEntity
  8
0
100
AcDbLine
 10
630.3655303051106
 20
1114.3297885127827
 30
0.0
 11
630.1355740298966
 21
1113.8553093408054
 31
0.0
  0
LINE
  5
1CF
330
17
100
AcDbEntity
  8
0
100
AcDbLine
 10
630.1355740298966
 20
1113.8553093408054
 30
0.0
 11
629.9417186319941
 21
1113.364972254858
 31
0.0
  0
LINE
  5
1D0
330
17
100
AcDbEntity
  8
0
100
AcDbLine
 10
629.9417186319941
 20
1113.364972254858
 30
0.0
 11
629.7850482294235
 21
1112.861519418826
 31
0.0
  0
LINE
  5
1D1
330
17
100
AcDbEntity
  8
0
100
AcDbLine
 10
629.7850482294235
 20
1112.861519418826
 30
0.0
 11
629.6664389866271
 21
1112.3477663451868
 31
0.0
  0
LINE
  5
1D2
330
17
100
AcDbEntity
  8
0
100
AcDbLine
 10
629.6664389866271
 20
1112.3477663451868
 30
0.0
 11
629.5865542146033
 21
1111.826586149526
 31
0.0
  0
LINE
  5
1D3
330
17
100
AcDbEntity
  8
0
100
AcDbLine
 10
629.5865542146033
 20
1111.826586149526
 30
0.0
 11
629.5458406614015
 21
1111.3008934829072
 31
0.0
  0
LINE
  5
1D4
330
17
100
AcDbEntity
  8
0
100
AcDbLine
 10
629.5458406614015
 20
1111.3008934829072
 30
0.0
 11
629.5445260137255
 21
1110.773628231965
 31
0.0
  0
LINE
  5
1D5
330
17
100
AcDbEntity
  8
0
100
AcDbLine
 10
629.5445260137255
 20
1110.773628231965
 30
0.0
 11
629.5826176236194
 21
1110.2477390778586
 31
0.0
  0
LINE
  5
1D6
330
17
100
AcDbEntity
  8
0
100
AcDbLine
 10
629.5826176236194
 20
1110.2477390778586
 30
0.0
 11
629.6599024673484
 21
1109.7261670060605
 31
0.0
  0
LINE
  5
1D7
330
17
100
AcDbEntity
  8
0
100
AcDbLine
 10
629.6599024673484
 20
1109.7261670060605
 30
0.0
 11
629.775948336717
 21
1109.2118288591635
 31
0.0
  0
LINE
  5
1D8
330
17
100
AcDbEntity
  8
0
100
AcDbLine
 10
629.775948336717
 20
1109.2118288591635
 30
0.0
 11
629.9301062561516
 21
1108.7076010247213
 31
0.0
  0
LINE
  5
1D9
330
17
100
AcDbEntity
  8
0
100
AcDbLine
 10
629.9301062561516
 20
1108.7076010247213
 30
0.0
 11
630.1215141120339
 21
1108.2163033493177
 31
0.0
  0
LINE
  5
1DA
330
17
100
AcDbEntity
  8
0
100
AcDbLine
 10
630.1215141120339
 20
1108.2163033493177
 30
0.0
 11
630.3491014739918
 21
1107.7406833688422
 31
0.0
  0
LINE
  5
1DB
330
17
100
AcDbEntity
  8
0
100
AcDbLine
 10
630.3491014739918
 20
1107.7406833688422
 30
0.0
 11
630.6115955811791
 21
1107.283400943155
 31
0.0
  0
LINE
  5
1DC
330
17
100
AcDbEntity
  8
0
100
AcDbLine
 10
630.6115955811791
 20
1107.283400943155
 30
0.0
 11
630.9075284600709
 21
1106.8470133810715
 31
0.0
  0
LINE
  5
1DD
330
17
100
AcDbEntity
  8
0
100
AcDbLine
 10
630.9075284600709
 20
1106.8470133810715
 30
0.0
 11
631.235245133967
 21
1106.4339611388539
 31
0.0
  0
LINE
  5
1DE
330
17
100
AcDbEntity
  8
0
100
AcDbLine
 10
631.235245133967
 20
1106.4339611388539
 30
0.0
 11
631.5929128782931
 21
1106.0465541721906
 31
0.0
  0
LINE
  5
1DF
330
17
100
AcDbEntity
  8
0
100
AcDbLine
 10
631.5929128782931
 20
1106.0465541721906
 30
0.0
 11
631.9785314699391
 21
1105.6869590179856
 31
0.0
  0
LINE
  5
1E0
330
17
100
AcDbEntity
  8
0
100
AcDbLine
 10
631.9785314699391
 20
1105.6869590179856
 30
0.0
 11
632.3899443733186
 21
1105.3571866782072
 31
0.0
  0
LINE
  5
1E1
330
17
100
AcDbEntity
  8
0
100
AcDbLine
 10
632.3899443733186
 20
1105.3571866782072
 30
0.0
 11
632.8248508005925
 21
1105.0590813735464
 31
0.0
  0
LINE
  5
1E2
330
17
100
AcDbEntity
  8
0
100
AcDbLine
 10
632.8248508005925
 20
1105.0590813735464
 30
0.0
 11
633.280818578604
 21
1104.7943102297904
 31
0.0
  0
LINE
  5
1E3
330
17
100
AcDbEntity
  8
0
100
AcDbLine
 10
633.280818578604
 20
1104.7943102297904
 30
0.0
 11
633.7552977505813
 21
1104.5643539545765
 31
0.0
  0
LINE
  5
1E4
330
17
100
AcDbEntity
  8
0
100
AcDbLine
 10
633.7552977505813
 20
1104.5643539545765
 30
0.0
 11
634.2456348365279
 21
1104.3704985566737
 31
0.0
  0
LINE
  5
1E5
330
17
100
AcDbEntity
  8
0
100
AcDbLine
 10
634.2456348365279
 20
1104.3704985566737
 30
0.0
 11
634.7490876725599
 21
1104.2138281541033
 31
0.0
  0
LINE
  5
1E6
330
17
100
AcDbEntity
  8
0
100
AcDbLine
 10
634.7490876725599
 20
1104.2138281541033
 30
0.0
 11
635.2628407461995
 21
1104.0952189113075
 31
0.0
  0
LINE
  5
1E7
330
17
100
AcDbEntity
  8
0
100
AcDbLine
 10
635.2628407461995
 20
1104.0952189113075
 30
0.0
 11
635.7840209418603
 21
1104.0153341392838
 31
0.0
  0
LINE
  5
1E8
330
17
100
AcDbEntity
  8
0
100
AcDbLine
 10
635.7840209418603
 20
1104.0153341392838
 30
0.0
 11
636.3097136084787
 21
1103.9746205860806
 31
0.0
  0
LINE
  5
1E9
330
17
100
AcDbEntity
  8
0
100
AcDbLine
 10
636.3097136084787
 20
1103.9746205860806
 30
0.0
 11
636.8369788594216
 21
1103.9733059384048
 31
0.0
  0
LINE
  5
1EA
330
17
100
AcDbEntity
  8
0
100
AcDbLine
 10
636.8369788594216
 20
1103.9733059384048
 30
0.0
 11
637.3628680135275
 21
1104.0113975482984
 31
0.0
  0
LINE
  5
1EB
330
17
100
AcDbEntity
  8
0
100
AcDbLine
 10
637.3628680135275
 20
1104.0113975482984
 30
0.0
 11
637.8844400853261
 21
1104.0886823920289
 31
0.0
  0
LINE
  5
1EC
330
17
100
AcDbEntity
  8
0
100
AcDbLine
 10
637.8844400853261
 20
1104.0886823920289
 30
0.0
 11
638.3987782322228
 21
1104.2047282613973
 31
0.0
  0
LINE
  5
1ED
330
17
100
AcDbEntity
  8
0
100
AcDbLine
 10
638.3987782322228
 20
1104.2047282613973
 30
0.0
 11
638.9030060666648
 21
1104.3588861808314
 31
0.0
  0
LINE
  5
1EE
330
17
100
AcDbEntity
  8
0
100
AcDbLine
 10
638.9030060666648
 20
1104.3588861808314
 30
0.0
 11
639.3943037420684
 21
1104.5502940367135
 31
0.0
  0
LINE
  5
1EF
330
17
100
AcDbEntity
  8
0
100
AcDbLine
 10
639.3943037420684
 20
1104.5502940367135
 30
0.0
 11
639.8699237225442
 21
1104.7778813986718
 31
0.0
  0
LINE
  5
1F0
330
17
100
AcDbEntity
  8
0
100
AcDbLine
 10
639.8699237225442
 20
1104.7778813986718
 30
0.0
 11
640.3272061482315
 21
1105.040375505859
 31
0.0
  0
LINE
  5
1F1
330
17
100
AcDbEntity
  8
0
100
AcDbLine
 10
640.3272061482315
 20
1105.040375505859
 30
0.0
 11
640.763593710315
 21
1105.3363083847512
 31
0.0
  0
LINE
  5
1F2
330
17
100
AcDbEntity
  8
0
100
AcDbLine
 10
640.763593710315
 20
1105.3363083847512
 30
0.0
 11
641.1766459525327
 21
1105.6640250586477
 31
0.0
  0
LINE
  5
1F3
330
17
100
AcDbEntity
  8
0
100
AcDbLine
 10
641.1766459525327
 20
1105.6640250586477
 30
0.0
 11
641.564052919196
 21
1106.0216928029733
 31
0.0
  0
LINE
  5
1F4
330
17
100
AcDbEntity
  8
0
100
AcDbLine
 10
641.564052919196
 20
1106.0216928029733
 30
0.0
 11
641.9236480734008
 21
1106.4073113946192
 31
0.0
  0
LINE
  5
1F5
330
17
100
AcDbEntity
  8
0
100
AcDbLine
 10
641.9236480734008
 20
1106.4073113946192
 30
0.0
 11
642.2534204131797
 21
1106.8187242979989
 31
0.0
  0
LINE
  5
1F6
330
17
100
AcDbEntity
  8
0
100
AcDbLine
 10
642.2534204131797
 20
1106.8187242979989
 30
0.0
 11
642.5515257178399
 21
1107.2536307252726
 31
0.0
  0
LINE
  5
1F7
330
17
100
AcDbEntity
  8
0
100
AcDbLine
 10
642.5515257178399
 20
1107.2536307252726
 30
0.0
 11
642.8162968615958
 21
1107.709598503284
 31
0.0
  0
LINE
  5
1F8
330
17
100
AcDbEntity
  8
0
100
AcDbLine
 10
642.8162968615958
 20
1107.709598503284
 30
0.0
 11
643.0462531368098
 21
1108.1840776752613
 31
0.0
  0
LINE
  5
1F9
330
17
100
AcDbEntity
  8
0
100
AcDbLine
 10
643.0462531368098
 20
1108.1840776752613
 30
0.0
 11
643.240108534712
 21
1108.6744147612078
 31
0.0
  0
LINE
  5
1FA
330
17
100
AcDbEntity
  8
0
100
AcDbLine
 10
643.240108534712
 20
1108.6744147612078
 30
0.0
 11
643.3967789372826
 21
1109.1778675972398
 31
0.0
  0
LINE
  5
1FB
330
17
100
AcDbEntity
  8
0
100
AcDbLine
 10
643.3967789372826
 20
1109.1778675972398
 30
0.0
 11
643.5153881800791
 21
1109.6916206708793
 31
0.0
  0
LINE
  5
1FC
330
17
100
AcDbEntity
  8
0
100
AcDbLine
 10
643.5153881800791
 20
1109.6916206708793
 30
0.0
 11
643.595272952103
 21
1110.2128008665406
 31
0.0
  0
LINE
  5
1FD
330
17
100
AcDbEntity
  8
0
100
AcDbLine
 10
643.595272952103
 20
1110.2128008665406
 30
0.0
 11
643.635986505305
 21
1110.7384935331584
 31
0.0
  0
LINE
  5
1FE
330
17
100
AcDbEntity
  8
0
100
AcDbLine
 10
643.635986505305
 20
1110.7384935331584
 30
0.0
 11
643.6373011529809
 21
1111.2657587841018
 31
0.0
  0
LINE
  5
1FF
330
17
100
AcDbEntity
  8
0
100
AcDbLine
 10
375.559158958215
 20
1680.997189018546
 30
0.0
 11
375.5210673483214
 21
1681.5230781726518
 31
0.0
  0
LINE
  5
200
330
17
100
AcDbEntity
  8
0
100
AcDbLine
 10
375.5210673483214
 20
1681.5230781726518
 30
0.0
 11
375.4437825045924
 21
1682.0446502444504
 31
0.0
  0
LINE
  5
201
330
17
100
AcDbEntity
  8
0
100
AcDbLine
 10
375.4437825045924
 20
1682.0446502444504
 30
0.0
 11
375.3277366352234
 21
1682.5589883913474
 31
0.0
  0
LINE
  5
202
330
17
100
AcDbEntity
  8
0
100
AcDbLine
 10
375.3277366352234
 20
1682.5589883913474
 30
0.0
 11
375.17357871578895
 21
1683.0632162257887
 31
0.0
  0
LINE
  5
203
330
17
100
AcDbEntity
  8
0
100
AcDbLine
 10
375.17357871578895
 20
1683.0632162257887
 30
0.0
 11
374.9821708599068
 21
1683.5545139011926
 31
0.0
  0
LINE
  5
204
330
17
100
AcDbEntity
  8
0
100
AcDbLine
 10
374.9821708599068
 20
1683.5545139011926
 30
0.0
 11
374.754583497949
 21
1684.0301338816676
 31
0.0
  0
LINE
  5
205
330
17
100
AcDbEntity
  8
0
100
AcDbLine
 10
374.754583497949
 20
1684.0301338816676
 30
0.0
 11
374.4920893907615
 21
1684.487416307356
 31
0.0
  0
LINE
  5
206
330
17
100
AcDbEntity
  8
0
100
AcDbLine
 10
374.4920893907615
 20
1684.487416307356
 30
0.0
 11
374.1961565118696
 21
1684.9238038694384
 31
0.0
  0
LINE
  5
207
330
17
100
AcDbEntity
  8
0
100
AcDbLine
 10
374.1961565118696
 20
1684.9238038694384
 30
0.0
 11
373.8684398379735
 21
1685.3368561116565
 31
0.0
  0
LINE
  5
208
330
17
100
AcDbEntity
  8
0
100
AcDbLine
 10
373.8684398379735
 20
1685.3368561116565
 30
0.0
 11
373.51077209364746
 21
1685.7242630783203
 31
0.0
  0
LINE
  5
209
330
17
100
AcDbEntity
  8
0
100
AcDbLine
 10
373.51077209364746
 20
1685.7242630783203
 30
0.0
 11
373.1251535020017
 21
1686.0838582325252
 31
0.0
  0
LINE
  5
20A
330
17
100
AcDbEntity
  8
0
100
AcDbLine
 10
373.1251535020017
 20
1686.0838582325252
 30
0.0
 11
372.71374059862165
 21
1686.413630572304
 31
0.0
  0
LINE
  5
20B
330
17
100
AcDbEntity
  8
0
100
AcDbLine
 10
372.71374059862165
 20
1686.413630572304
 30
0.0
 11
372.27883417134825
 21
1686.7117358769635
 31
0.0
  0
LINE
  5
20C
330
17
100
AcDbEntity
  8
0
100
AcDbLine
 10
372.27883417134825
 20
1686.7117358769635
 30
0.0
 11
371.8228663933369
 21
1686.9765070207186
 31
0.0
  0
LINE
  5
20D
330
17
100
AcDbEntity
  8
0
100
AcDbLine
 10
371.8228663933369
 20
1686.9765070207186
 30
0.0
 11
371.34838722135936
 21
1687.2064632959336
 31
0.0
  0
LINE
  5
20E
330
17
100
AcDbEntity
  8
0
100
AcDbLine
 10
371.34838722135936
 20
1687.2064632959336
 30
0.0
 11
370.8580501354128
 21
1687.4003186938362
 31
0.0
  0
LINE
  5
20F
330
17
100
AcDbEntity
  8
0
100
AcDbLine
 10
370.8580501354128
 20
1687.4003186938362
 30
0.0
 11
370.35459729938066
 21
1687.5569890964061
 31
0.0
  0
LINE
  5
210
330
17
100
AcDbEntity
  8
0
100
AcDbLine
 10
370.35459729938066
 20
1687.5569890964061
 30
0.0
 11
369.84084422574136
 21
1687.6755983392025
 31
0.0
  0
LINE
  5
211
330
17
100
AcDbEntity
  8
0
100
AcDbLine
 10
369.84084422574136
 20
1687.6755983392025
 30
0.0
 11
369.3196640300803
 21
1687.7554831112266
 31
0.0
  0
LINE
  5
212
330
17
100
AcDbEntity
  8
0
100
AcDbLine
 10
369.3196640300803
 20
1687.7554831112266
 30
0.0
 11
368.7939713634621
 21
1687.7961966644289
 31
0.0
  0
LINE
  5
213
330
17
100
AcDbEntity
  8
0
100
AcDbLine
 10
368.7939713634621
 20
1687.7961966644289
 30
0.0
 11
368.266706112519
 21
1687.7975113121042
 31
0.0
  0
LINE
  5
214
330
17
100
AcDbEntity
  8
0
100
AcDbLine
 10
368.266706112519
 20
1687.7975113121042
 30
0.0
 11
367.7408169584131
 21
1687.7594197022108
 31
0.0
  0
LINE
  5
215
330
17
100
AcDbEntity
  8
0
100
AcDbLine
 10
367.7408169584131
 20
1687.7594197022108
 30
0.0
 11
367.21924488661443
 21
1687.6821348584817
 31
0.0
  0
LINE
  5
216
330
17
100
AcDbEntity
  8
0
100
AcDbLine
 10
367.21924488661443
 20
1687.6821348584817
 30
0.0
 11
366.70490673971796
 21
1687.5660889891124
 31
0.0
  0
LINE
  5
217
330
17
100
AcDbEntity
  8
0
100
AcDbLine
 10
366.70490673971796
 20
1687.5660889891124
 30
0.0
 11
366.2006789052758
 21
1687.4119310696783
 31
0.0
  0
LINE
  5
218
330
17
100
AcDbEntity
  8
0
100
AcDbLine
 10
366.2006789052758
 20
1687.4119310696783
 30
0.0
 11
365.70938122987206
 21
1687.2205232137965
 31
0.0
  0
LINE
  5
219
330
17
100
AcDbEntity
  8
0
100
AcDbLine
 10
365.70938122987206
 20
1687.2205232137965
 30
0.0
 11
365.23376124939654
 21
1686.9929358518386
 31
0.0
  0
LINE
  5
21A
330
17
100
AcDbEntity
  8
0
100
AcDbLine
 10
365.23376124939654
 20
1686.9929358518386
 30
0.0
 11
364.7764788237091
 21
1686.7304417446503
 31
0.0
  0
LINE
  5
21B
330
17
100
AcDbEntity
  8
0
100
AcDbLine
 10
364.7764788237091
 20
1686.7304417446503
 30
0.0
 11
364.3400912616257
 21
1686.4345088657587
 31
0.0
  0
LINE
  5
21C
330
17
100
AcDbEntity
  8
0
100
AcDbLine
 10
364.3400912616257
 20
1686.4345088657587
 30
0.0
 11
363.927039019408
 21
1686.1067921918636
 31
0.0
  0
LINE
  5
21D
330
17
100
AcDbEntity
  8
0
100
AcDbLine
 10
363.927039019408
 20
1686.1067921918636
 30
0.0
 11
363.53963205274454
 21
1685.7491244475377
 31
0.0
  0
LINE
  5
21E
330
17
100
AcDbEntity
  8
0
100
AcDbLine
 10
363.53963205274454
 20
1685.7491244475377
 30
0.0
 11
363.1800368985397
 21
1685.3635058558916
 31
0.0
  0
LINE
  5
21F
330
17
100
AcDbEntity
  8
0
100
AcDbLine
 10
363.1800368985397
 20
1685.3635058558916
 30
0.0
 11
362.85026455876107
 21
1684.9520929525115
 31
0.0
  0
LINE
  5
220
330
17
100
AcDbEntity
  8
0
100
AcDbLine
 10
362.85026455876107
 20
1684.9520929525115
 30
0.0
 11
362.55215925410073
 21
1684.5171865252373
 31
0.0
  0
LINE
  5
221
330
17
100
AcDbEntity
  8
0
100
AcDbLine
 10
362.55215925410073
 20
1684.5171865252373
 30
0.0
 11
362.28738811034486
 21
1684.0612187472268
 31
0.0
  0
LINE
  5
222
330
17
100
AcDbEntity
  8
0
100
AcDbLine
 10
362.28738811034486
 20
1684.0612187472268
 30
0.0
 11
362.0574318351309
 21
1683.5867395752487
 31
0.0
  0
LINE
  5
223
330
17
100
AcDbEntity
  8
0
100
AcDbLine
 10
362.0574318351309
 20
1683.5867395752487
 30
0.0
 11
361.8635764372285
 21
1683.0964024893026
 31
0.0
  0
LINE
  5
224
330
17
100
AcDbEntity
  8
0
100
AcDbLine
 10
361.8635764372285
 20
1683.0964024893026
 30
0.0
 11
361.706906034658
 21
1682.59294965327
 31
0.0
  0
LINE
  5
225
330
17
100
AcDbEntity
  8
0
100
AcDbLine
 10
361.706906034658
 20
1682.59294965327
 30
0.0
 11
361.5882967918615
 21
1682.0791965796316
 31
0.0
  0
LINE
  5
226
330
17
100
AcDbEntity
  8
0
100
AcDbLine
 10
361.5882967918615
 20
1682.0791965796316
 30
0.0
 11
361.5084120198377
 21
1681.5580163839702
 31
0.0
  0
LINE
  5
227
330
17
100
AcDbEntity
  8
0
100
AcDbLine
 10
361.5084120198377
 20
1681.5580163839702
 30
0.0
 11
361.4676984666357
 21
1681.032323717352
 31
0.0
  0
LINE
  5
228
330
17
100
AcDbEntity
  8
0
100
AcDbLine
 10
361.4676984666357
 20
1681.032323717352
 30
0.0
 11
361.4663838189599
 21
1680.505058466409
 31
0.0
  0
LINE
  5
229
330
17
100
AcDbEntity
  8
0
100
AcDbLine
 10
361.4663838189599
 20
1680.505058466409
 30
0.0
 11
361.5044754288536
 21
1679.979169312303
 31
0.0
  0
LINE
  5
22A
330
17
100
AcDbEntity
  8
0
100
AcDbLine
 10
361.5044754288536
 20
1679.979169312303
 30
0.0
 11
361.58176027258276
 21
1679.4575972405046
 31
0.0
  0
LINE
  5
22B
330
17
100
AcDbEntity
  8
0
100
AcDbLine
 10
361.58176027258276
 20
1679.4575972405046
 30
0.0
 11
361.6978061419515
 21
1678.9432590936076
 31
0.0
  0
LINE
  5
22C
330
17
100
AcDbEntity
  8
0
100
AcDbLine
 10
361.6978061419515
 20
1678.9432590936076
 30
0.0
 11
361.85196406138607
 21
1678.4390312591663
 31
0.0
  0
LINE
  5
22D
330
17
100
AcDbEntity
  8
0
100
AcDbLine
 10
361.85196406138607
 20
1678.4390312591663
 30
0.0
 11
362.04337191726825
 21
1677.9477335837623
 31
0.0
  0
LINE
  5
22E
330
17
100
AcDbEntity
  8
0
100
AcDbLine
 10
362.04337191726825
 20
1677.9477335837623
 30
0.0
 11
362.2709592792261
 21
1677.4721136032854
 31
0.0
  0
LINE
  5
22F
330
17
100
AcDbEntity
  8
0
100
AcDbLine
 10
362.2709592792261
 20
1677.4721136032854
 30
0.0
 11
362.5334533864134
 21
1677.0148311775986
 31
0.0
  0
LINE
  5
230
330
17
100
AcDbEntity
  8
0
100
AcDbLine
 10
362.5334533864134
 20
1677.0148311775986
 30
0.0
 11
362.82938626530535
 21
1676.5784436155152
 31
0.0
  0
LINE
  5
231
330
17
100
AcDbEntity
  8
0
100
AcDbLine
 10
362.82938626530535
 20
1676.5784436155152
 30
0.0
 11
363.15710293920154
 21
1676.165391373298
 31
0.0
  0
LINE
  5
232
330
17
100
AcDbEntity
  8
0
100
AcDbLine
 10
363.15710293920154
 20
1676.165391373298
 30
0.0
 11
363.5147706835275
 21
1675.777984406633
 31
0.0
  0
LINE
  5
233
330
17
100
AcDbEntity
  8
0
100
AcDbLine
 10
363.5147706835275
 20
1675.777984406633
 30
0.0
 11
363.9003892751732
 21
1675.4183892524297
 31
0.0
  0
LINE
  5
234
330
17
100
AcDbEntity
  8
0
100
AcDbLine
 10
363.9003892751732
 20
1675.4183892524297
 30
0.0
 11
364.31180217855314
 21
1675.0886169126507
 31
0.0
  0
LINE
  5
235
330
17
100
AcDbEntity
  8
0
100
AcDbLine
 10
364.31180217855314
 20
1675.0886169126507
 30
0.0
 11
364.7467086058267
 21
1674.79051160799
 31
0.0
  0
LINE
  5
236
330
17
100
AcDbEntity
  8
0
100
AcDbLine
 10
364.7467086058267
 20
1674.79051160799
 30
0.0
 11
365.20267638383814
 21
1674.5257404642343
 31
0.0
  0
LINE
  5
237
330
17
100
AcDbEntity
  8
0
100
AcDbLine
 10
365.20267638383814
 20
1674.5257404642343
 30
0.0
 11
365.6771555558156
 21
1674.2957841890197
 31
0.0
  0
LINE
  5
238
330
17
100
AcDbEntity
  8
0
100
AcDbLine
 10
365.6771555558156
 20
1674.2957841890197
 30
0.0
 11
366.1674926417621
 21
1674.1019287911183
 31
0.0
  0
LINE
  5
239
330
17
100
AcDbEntity
  8
0
100
AcDbLine
 10
366.1674926417621
 20
1674.1019287911183
 30
0.0
 11
366.6709454777944
 21
1673.9452583885472
 31
0.0
  0
LINE
  5
23A
330
17
100
AcDbEntity
  8
0
100
AcDbLine
 10
366.6709454777944
 20
1673.9452583885472
 30
0.0
 11
367.1846985514337
 21
1673.8266491457512
 31
0.0
  0
LINE
  5
23B
330
17
100
AcDbEntity
  8
0
100
AcDbLine
 10
367.1846985514337
 20
1673.8266491457512
 30
0.0
 11
367.7058787470947
 21
1673.7467643737268
 31
0.0
  0
LINE
  5
23C
330
17
100
AcDbEntity
  8
0
100
AcDbLine
 10
367.7058787470947
 20
1673.7467643737268
 30
0.0
 11
368.23157141371297
 21
1673.7060508205245
 31
0.0
  0
LINE
  5
23D
330
17
100
AcDbEntity
  8
0
100
AcDbLine
 10
368.23157141371297
 20
1673.7060508205245
 30
0.0
 11
368.758836664656
 21
1673.7047361728492
 31
0.0
  0
LINE
  5
23E
330
17
100
AcDbEntity
  8
0
100
AcDbLine
 10
368.758836664656
 20
1673.7047361728492
 30
0.0
 11
369.28472581876196
 21
1673.7428277827426
 31
0.0
  0
LINE
  5
23F
330
17
100
AcDbEntity
  8
0
100
AcDbLine
 10
369.28472581876196
 20
1673.7428277827426
 30
0.0
 11
369.80629789056053
 21
1673.8201126264719
 31
0.0
  0
LINE
  5
240
330
17
100
AcDbEntity
  8
0
100
AcDbLine
 10
369.80629789056053
 20
1673.8201126264719
 30
0.0
 11
370.3206360374571
 21
1673.936158495841
 31
0.0
  0
LINE
  5
241
330
17
100
AcDbEntity
  8
0
100
AcDbLine
 10
370.3206360374571
 20
1673.936158495841
 30
0.0
 11
370.82486387189925
 21
1674.0903164152755
 31
0.0
  0
LINE
  5
242
330
17
100
AcDbEntity
  8
0
100
AcDbLine
 10
370.82486387189925
 20
1674.0903164152755
 30
0.0
 11
371.31616154730284
 21
1674.281724271158
 31
0.0
  0
LINE
  5
243
330
17
100
AcDbEntity
  8
0
100
AcDbLine
 10
371.31616154730284
 20
1674.281724271158
 30
0.0
 11
371.7917815277784
 21
1674.509311633115
 31
0.0
  0
LINE
  5
244
330
17
100
AcDbEntity
  8
0
100
AcDbLine
 10
371.7917815277784
 20
1674.509311633115
 30
0.0
 11
372.2490639534659
 21
1674.7718057403029
 31
0.0
  0
LINE
  5
245
330
17
100
AcDbEntity
  8
0
100
AcDbLine
 10
372.2490639534659
 20
1674.7718057403029
 30
0.0
 11
372.6854515155493
 21
1675.0677386191946
 31
0.0
  0
LINE
  5
246
330
17
100
AcDbEntity
  8
0
100
AcDbLine
 10
372.6854515155493
 20
1675.0677386191946
 30
0.0
 11
373.09850375776676
 21
1675.3954552930913
 31
0.0
  0
LINE
  5
247
330
17
100
AcDbEntity
  8
0
100
AcDbLine
 10
373.09850375776676
 20
1675.3954552930913
 30
0.0
 11
373.48591072443037
 21
1675.7531230374173
 31
0.0
  0
LINE
  5
248
330
17
100
AcDbEntity
  8
0
100
AcDbLine
 10
373.48591072443037
 20
1675.7531230374173
 30
0.0
 11
373.8455058786354
 21
1676.1387416290618
 31
0.0
  0
LINE
  5
249
330
17
100
AcDbEntity
  8
0
100
AcDbLine
 10
373.8455058786354
 20
1676.1387416290618
 30
0.0
 11
374.17527821841395
 21
1676.550154532443
 31
0.0
  0
LINE
  5
24A
330
17
100
AcDbEntity
  8
0
100
AcDbLine
 10
374.17527821841395
 20
1676.550154532443
 30
0.0
 11
374.47338352307423
 21
1676.9850609597163
 31
0.0
  0
LINE
  5
24B
330
17
100
AcDbEntity
  8
0
100
AcDbLine
 10
374.47338352307423
 20
1676.9850609597163
 30
0.0
 11
374.73815466683004
 21
1677.4410287377277
 31
0.0
  0
LINE
  5
24C
330
17
100
AcDbEntity
  8
0
100
AcDbLine
 10
374.73815466683004
 20
1677.4410287377277
 30
0.0
 11
374.9681109420442
 21
1677.9155079097045
 31
0.0
  0
LINE
  5
24D
330
17
100
AcDbEntity
  8
0
100
AcDbLine
 10
374.9681109420442
 20
1677.9155079097045
 30
0.0
 11
375.1619663399465
 21
1678.4058449956524
 31
0.0
  0
LINE
  5
24E
330
17
100
AcDbEntity
  8
0
100
AcDbLine
 10
375.1619663399465
 20
1678.4058449956524
 30
0.0
 11
375.318636742517
 21
1678.9092978316849
 31
0.0
  0
LINE
  5
24F
330
17
100
AcDbEntity
  8
0
100
AcDbLine
 10
375.318636742517
 20
1678.9092978316849
 30
0.0
 11
375.4372459853134
 21
1679.4230509053232
 31
0.0
  0
LINE
  5
250
330
17
100
AcDbEntity
  8
0
100
AcDbLine
 10
375.4372459853134
 20
1679.4230509053232
 30
0.0
 11
375.51713075733744
 21
1679.9442311009848
 31
0.0
  0
LINE
  5
251
330
17
100
AcDbEntity
  8
0
100
AcDbLine
 10
375.51713075733744
 20
1679.9442311009848
 30
0.0
 11
375.55784431053934
 21
1680.4699237676027
 31
0.0
  0
LINE
  5
252
330
17
100
AcDbEntity
  8
0
100
AcDbLine
 10
375.55784431053934
 20
1680.4699237676027
 30
0.0
 11
375.559158958215
 21
1680.997189018546
 31
0.0
  0
LINE
  5
253
330
17
100
AcDbEntity
  8
0
100
AcDbLine
 10
103.80883682291665
 20
1340.5972156634948
 30
0.0
 11
103.77074521302295
 21
1341.123104817601
 31
0.0
  0
LINE
  5
254
330
17
100
AcDbEntity
  8
0
100
AcDbLine
 10
103.77074521302295
 20
1341.123104817601
 30
0.0
 11
103.69346036929394
 21
1341.6446768893993
 31
0.0
  0
LINE
  5
255
330
17
100
AcDbEntity
  8
0
100
AcDbLine
 10
103.69346036929394
 20
1341.6446768893993
 30
0.0
 11
103.57741449992498
 21
1342.1590150362952
 31
0.0
  0
LINE
  5
256
330
17
100
AcDbEntity
  8
0
100
AcDbLine
 10
103.57741449992498
 20
1342.1590150362952
 30
0.0
 11
103.42325658049063
 21
1342.6632428707376
 31
0.0
  0
LINE
  5
257
330
17
100
AcDbEntity
  8
0
100
AcDbLine
 10
103.42325658049063
 20
1342.6632428707376
 30
0.0
 11
103.23184872460834
 21
1343.154540546141
 31
0.0
  0
LINE
  5
258
330
17
100
AcDbEntity
  8
0
100
AcDbLine
 10
103.23184872460834
 20
1343.154540546141
 30
0.0
 11
103.00426136265054
 21
1343.6301605266167
 31
0.0
  0
LINE
  5
259
330
17
100
AcDbEntity
  8
0
100
AcDbLine
 10
103.00426136265054
 20
1343.6301605266167
 30
0.0
 11
102.74176725546323
 21
1344.087442952304
 31
0.0
  0
LINE
  5
25A
330
17
100
AcDbEntity
  8
0
100
AcDbLine
 10
102.74176725546323
 20
1344.087442952304
 30
0.0
 11
102.44583437657131
 21
1344.523830514389
 31
0.0
  0
LINE
  5
25B
330
17
100
AcDbEntity
  8
0
100
AcDbLine
 10
102.44583437657131
 20
1344.523830514389
 30
0.0
 11
102.11811770267502
 21
1344.9368827566054
 31
0.0
  0
LINE
  5
25C
330
17
100
AcDbEntity
  8
0
100
AcDbLine
 10
102.11811770267502
 20
1344.9368827566054
 30
0.0
 11
101.76044995834914
 21
1345.324289723269
 31
0.0
  0
LINE
  5
25D
330
17
100
AcDbEntity
  8
0
100
AcDbLine
 10
101.76044995834914
 20
1345.324289723269
 30
0.0
 11
101.37483136670325
 21
1345.6838848774742
 31
0.0
  0
LINE
  5
25E
330
17
100
AcDbEntity
  8
0
100
AcDbLine
 10
101.37483136670325
 20
1345.6838848774742
 30
0.0
 11
100.9634184633235
 21
1346.0136572172514
 31
0.0
  0
LINE
  5
25F
330
17
100
AcDbEntity
  8
0
100
AcDbLine
 10
100.9634184633235
 20
1346.0136572172514
 30
0.0
 11
100.52851203604988
 21
1346.3117625219124
 31
0.0
  0
LINE
  5
260
330
17
100
AcDbEntity
  8
0
100
AcDbLine
 10
100.52851203604988
 20
1346.3117625219124
 30
0.0
 11
100.07254425803835
 21
1346.576533665669
 31
0.0
  0
LINE
  5
261
330
17
100
AcDbEntity
  8
0
100
AcDbLine
 10
100.07254425803835
 20
1346.576533665669
 30
0.0
 11
99.59806508606103
 21
1346.8064899408823
 31
0.0
  0
LINE
  5
262
330
17
100
AcDbEntity
  8
0
100
AcDbLine
 10
99.59806508606103
 20
1346.8064899408823
 30
0.0
 11
99.10772800011432
 21
1347.000345338785
 31
0.0
  0
LINE
  5
263
330
17
100
AcDbEntity
  8
0
100
AcDbLine
 10
99.10772800011432
 20
1347.000345338785
 30
0.0
 11
98.60427516408217
 21
1347.1570157413562
 31
0.0
  0
LINE
  5
264
330
17
100
AcDbEntity
  8
0
100
AcDbLine
 10
98.60427516408217
 20
1347.1570157413562
 30
0.0
 11
98.09052209044296
 21
1347.2756249841527
 31
0.0
  0
LINE
  5
265
330
17
100
AcDbEntity
  8
0
100
AcDbLine
 10
98.09052209044296
 20
1347.2756249841527
 30
0.0
 11
97.56934189478184
 21
1347.3555097561753
 31
0.0
  0
LINE
  5
266
330
17
100
AcDbEntity
  8
0
100
AcDbLine
 10
97.56934189478184
 20
1347.3555097561753
 30
0.0
 11
97.04364922816362
 21
1347.3962233093785
 31
0.0
  0
LINE
  5
267
330
17
100
AcDbEntity
  8
0
100
AcDbLine
 10
97.04364922816362
 20
1347.3962233093785
 30
0.0
 11
96.51638397722061
 21
1347.3975379570543
 31
0.0
  0
LINE
  5
268
330
17
100
AcDbEntity
  8
0
100
AcDbLine
 10
96.51638397722061
 20
1347.3975379570543
 30
0.0
 11
95.99049482311463
 21
1347.3594463471604
 31
0.0
  0
LINE
  5
269
330
17
100
AcDbEntity
  8
0
100
AcDbLine
 10
95.99049482311463
 20
1347.3594463471604
 30
0.0
 11
95.46892275131611
 21
1347.2821615034302
 31
0.0
  0
LINE
  5
26A
330
17
100
AcDbEntity
  8
0
100
AcDbLine
 10
95.46892275131611
 20
1347.2821615034302
 30
0.0
 11
94.95458460441955
 21
1347.1661156340629
 31
0.0
  0
LINE
  5
26B
330
17
100
AcDbEntity
  8
0
100
AcDbLine
 10
94.95458460441955
 20
1347.1661156340629
 30
0.0
 11
94.45035676997733
 21
1347.0119577146281
 31
0.0
  0
LINE
  5
26C
330
17
100
AcDbEntity
  8
0
100
AcDbLine
 10
94.45035676997733
 20
1347.0119577146281
 30
0.0
 11
93.95905909457372
 21
1346.8205498587454
 31
0.0
  0
LINE
  5
26D
330
17
100
AcDbEntity
  8
0
100
AcDbLine
 10
93.95905909457372
 20
1346.8205498587454
 30
0.0
 11
93.48343911409809
 21
1346.592962496787
 31
0.0
  0
LINE
  5
26E
330
17
100
AcDbEntity
  8
0
100
AcDbLine
 10
93.48343911409809
 20
1346.592962496787
 30
0.0
 11
93.02615668841081
 21
1346.3304683896006
 31
0.0
  0
LINE
  5
26F
330
17
100
AcDbEntity
  8
0
100
AcDbLine
 10
93.02615668841081
 20
1346.3304683896006
 30
0.0
 11
92.58976912632718
 21
1346.0345355107079
 31
0.0
  0
LINE
  5
270
330
17
100
AcDbEntity
  8
0
100
AcDbLine
 10
92.58976912632718
 20
1346.0345355107079
 30
0.0
 11
92.17671688410965
 21
1345.7068188368107
 31
0.0
  0
LINE
  5
271
330
17
100
AcDbEntity
  8
0
100
AcDbLine
 10
92.17671688410965
 20
1345.7068188368107
 30
0.0
 11
91.7893099174462
 21
1345.3491510924866
 31
0.0
  0
LINE
  5
272
330
17
100
AcDbEntity
  8
0
100
AcDbLine
 10
91.7893099174462
 20
1345.3491510924866
 30
0.0
 11
91.42971476324138
 21
1344.9635325008403
 31
0.0
  0
LINE
  5
273
330
17
100
AcDbEntity
  8
0
100
AcDbLine
 10
91.42971476324138
 20
1344.9635325008403
 30
0.0
 11
91.09994242346261
 21
1344.5521195974604
 31
0.0
  0
LINE
  5
274
330
17
100
AcDbEntity
  8
0
100
AcDbLine
 10
91.09994242346261
 20
1344.5521195974604
 30
0.0
 11
90.80183711880231
 21
1344.1172131701878
 31
0.0
  0
LINE
  5
275
330
17
100
AcDbEntity
  8
0
100
AcDbLine
 10
90.80183711880231
 20
1344.1172131701878
 30
0.0
 11
90.53706597504646
 21
1343.6612453921748
 31
0.0
  0
LINE
  5
276
330
17
100
AcDbEntity
  8
0
100
AcDbLine
 10
90.53706597504646
 20
1343.6612453921748
 30
0.0
 11
90.30710969983244
 21
1343.1867662201976
 31
0.0
  0
LINE
  5
277
330
17
100
AcDbEntity
  8
0
100
AcDbLine
 10
90.30710969983244
 20
1343.1867662201976
 30
0.0
 11
90.11325430193008
 21
1342.696429134251
 31
0.0
  0
LINE
  5
278
330
17
100
AcDbEntity
  8
0
100
AcDbLine
 10
90.11325430193008
 20
1342.696429134251
 30
0.0
 11
89.95658389935946
 21
1342.192976298219
 31
0.0
  0
LINE
  5
279
330
17
100
AcDbEntity
  8
0
100
AcDbLine
 10
89.95658389935946
 20
1342.192976298219
 30
0.0
 11
89.83797465656322
 21
1341.6792232245793
 31
0.0
  0
LINE
  5
27A
330
17
100
AcDbEntity
  8
0
100
AcDbLine
 10
89.83797465656322
 20
1341.6792232245793
 30
0.0
 11
89.75808988453926
 21
1341.158043028919
 31
0.0
  0
LINE
  5
27B
330
17
100
AcDbEntity
  8
0
100
AcDbLine
 10
89.75808988453926
 20
1341.158043028919
 30
0.0
 11
89.7173763313372
 21
1340.6323503623012
 31
0.0
  0
LINE
  5
27C
330
17
100
AcDbEntity
  8
0
100
AcDbLine
 10
89.7173763313372
 20
1340.6323503623012
 30
0.0
 11
89.71606168366156
 21
1340.105085111358
 31
0.0
  0
LINE
  5
27D
330
17
100
AcDbEntity
  8
0
100
AcDbLine
 10
89.71606168366156
 20
1340.105085111358
 30
0.0
 11
89.75415329355516
 21
1339.5791959572516
 31
0.0
  0
LINE
  5
27E
330
17
100
AcDbEntity
  8
0
100
AcDbLine
 10
89.75415329355516
 20
1339.5791959572516
 30
0.0
 11
89.83143813728428
 21
1339.0576238854535
 31
0.0
  0
LINE
  5
27F
330
17
100
AcDbEntity
  8
0
100
AcDbLine
 10
89.83143813728428
 20
1339.0576238854535
 30
0.0
 11
89.94748400665314
 21
1338.543285738557
 31
0.0
  0
LINE
  5
280
330
17
100
AcDbEntity
  8
0
100
AcDbLine
 10
89.94748400665314
 20
1338.543285738557
 30
0.0
 11
90.10164192608748
 21
1338.0390579041152
 31
0.0
  0
LINE
  5
281
330
17
100
AcDbEntity
  8
0
100
AcDbLine
 10
90.10164192608748
 20
1338.0390579041152
 30
0.0
 11
90.29304978196977
 21
1337.5477602287112
 31
0.0
  0
LINE
  5
282
330
17
100
AcDbEntity
  8
0
100
AcDbLine
 10
90.29304978196977
 20
1337.5477602287112
 30
0.0
 11
90.52063714392762
 21
1337.072140248235
 31
0.0
  0
LINE
  5
283
330
17
100
AcDbEntity
  8
0
100
AcDbLine
 10
90.52063714392762
 20
1337.072140248235
 30
0.0
 11
90.78313125111492
 21
1336.6148578225475
 31
0.0
  0
LINE
  5
284
330
17
100
AcDbEntity
  8
0
100
AcDbLine
 10
90.78313125111492
 20
1336.6148578225475
 30
0.0
 11
91.07906413000701
 21
1336.178470260464
 31
0.0
  0
LINE
  5
285
330
17
100
AcDbEntity
  8
0
100
AcDbLine
 10
91.07906413000701
 20
1336.178470260464
 30
0.0
 11
91.40678080390308
 21
1335.7654180182474
 31
0.0
  0
LINE
  5
286
330
17
100
AcDbEntity
  8
0
100
AcDbLine
 10
91.40678080390308
 20
1335.7654180182474
 30
0.0
 11
91.76444854822911
 21
1335.3780110515827
 31
0.0
  0
LINE
  5
287
330
17
100
AcDbEntity
  8
0
100
AcDbLine
 10
91.76444854822911
 20
1335.3780110515827
 30
0.0
 11
92.15006713987485
 21
1335.0184158973786
 31
0.0
  0
LINE
  5
288
330
17
100
AcDbEntity
  8
0
100
AcDbLine
 10
92.15006713987485
 20
1335.0184158973786
 30
0.0
 11
92.56148004325466
 21
1334.6886435575998
 31
0.0
  0
LINE
  5
289
330
17
100
AcDbEntity
  8
0
100
AcDbLine
 10
92.56148004325466
 20
1334.6886435575998
 30
0.0
 11
92.9963864705283
 21
1334.3905382529385
 31
0.0
  0
LINE
  5
28A
330
17
100
AcDbEntity
  8
0
100
AcDbLine
 10
92.9963864705283
 20
1334.3905382529385
 30
0.0
 11
93.45235424853989
 21
1334.1257671091835
 31
0.0
  0
LINE
  5
28B
330
17
100
AcDbEntity
  8
0
100
AcDbLine
 10
93.45235424853989
 20
1334.1257671091835
 30
0.0
 11
93.92683342051711
 21
1333.8958108339693
 31
0.0
  0
LINE
  5
28C
330
17
100
AcDbEntity
  8
0
100
AcDbLine
 10
93.92683342051711
 20
1333.8958108339693
 30
0.0
 11
94.4171705064638
 21
1333.7019554360668
 31
0.0
  0
LINE
  5
28D
330
17
100
AcDbEntity
  8
0
100
AcDbLine
 10
94.4171705064638
 20
1333.7019554360668
 30
0.0
 11
94.92062334249596
 21
1333.5452850334964
 31
0.0
  0
LINE
  5
28E
330
17
100
AcDbEntity
  8
0
100
AcDbLine
 10
94.92062334249596
 20
1333.5452850334964
 30
0.0
 11
95.43437641613538
 21
1333.4266757906996
 31
0.0
  0
LINE
  5
28F
330
17
100
AcDbEntity
  8
0
100
AcDbLine
 10
95.43437641613538
 20
1333.4266757906996
 30
0.0
 11
95.95555661179633
 21
1333.346791018676
 31
0.0
  0
LINE
  5
290
330
17
100
AcDbEntity
  8
0
100
AcDbLine
 10
95.95555661179633
 20
1333.346791018676
 30
0.0
 11
96.48124927841451
 21
1333.3060774654737
 31
0.0
  0
LINE
  5
291
330
17
100
AcDbEntity
  8
0
100
AcDbLine
 10
96.48124927841451
 20
1333.3060774654737
 30
0.0
 11
97.00851452935761
 21
1333.3047628177983
 31
0.0
  0
LINE
  5
292
330
17
100
AcDbEntity
  8
0
100
AcDbLine
 10
97.00851452935761
 20
1333.3047628177983
 30
0.0
 11
97.5344036834635
 21
1333.3428544276917
 31
0.0
  0
LINE
  5
293
330
17
100
AcDbEntity
  8
0
100
AcDbLine
 10
97.5344036834635
 20
1333.3428544276917
 30
0.0
 11
98.05597575526205
 21
1333.4201392714208
 31
0.0
  0
LINE
  5
294
330
17
100
AcDbEntity
  8
0
100
AcDbLine
 10
98.05597575526205
 20
1333.4201392714208
 30
0.0
 11
98.57031390215879
 21
1333.5361851407897
 31
0.0
  0
LINE
  5
295
330
17
100
AcDbEntity
  8
0
100
AcDbLine
 10
98.57031390215879
 20
1333.5361851407897
 30
0.0
 11
99.07454173660079
 21
1333.6903430602244
 31
0.0
  0
LINE
  5
296
330
17
100
AcDbEntity
  8
0
100
AcDbLine
 10
99.07454173660079
 20
1333.6903430602244
 30
0.0
 11
99.56583941200441
 21
1333.8817509161065
 31
0.0
  0
LINE
  5
297
330
17
100
AcDbEntity
  8
0
100
AcDbLine
 10
99.56583941200441
 20
1333.8817509161065
 30
0.0
 11
100.04145939248005
 21
1334.1093382780643
 31
0.0
  0
LINE
  5
298
330
17
100
AcDbEntity
  8
0
100
AcDbLine
 10
100.04145939248005
 20
1334.1093382780643
 30
0.0
 11
100.49874181816743
 21
1334.3718323852518
 31
0.0
  0
LINE
  5
299
330
17
100
AcDbEntity
  8
0
100
AcDbLine
 10
100.49874181816743
 20
1334.3718323852518
 30
0.0
 11
100.93512938025098
 21
1334.6677652641433
 31
0.0
  0
LINE
  5
29A
330
17
100
AcDbEntity
  8
0
100
AcDbLine
 10
100.93512938025098
 20
1334.6677652641433
 30
0.0
 11
101.34818162246852
 21
1334.9954819380403
 31
0.0
  0
LINE
  5
29B
330
17
100
AcDbEntity
  8
0
100
AcDbLine
 10
101.34818162246852
 20
1334.9954819380403
 30
0.0
 11
101.7355885891319
 21
1335.3531496823664
 31
0.0
  0
LINE
  5
29C
330
17
100
AcDbEntity
  8
0
100
AcDbLine
 10
101.7355885891319
 20
1335.3531496823664
 30
0.0
 11
102.09518374333688
 21
1335.7387682740114
 31
0.0
  0
LINE
  5
29D
330
17
100
AcDbEntity
  8
0
100
AcDbLine
 10
102.09518374333688
 20
1335.7387682740114
 30
0.0
 11
102.42495608311549
 21
1336.1501811773924
 31
0.0
  0
LINE
  5
29E
330
17
100
AcDbEntity
  8
0
100
AcDbLine
 10
102.42495608311549
 20
1336.1501811773924
 30
0.0
 11
102.72306138777601
 21
1336.5850876046652
 31
0.0
  0
LINE
  5
29F
330
17
100
AcDbEntity
  8
0
100
AcDbLine
 10
102.72306138777601
 20
1336.5850876046652
 30
0.0
 11
102.9878325315317
 21
1337.0410553826766
 31
0.0
  0
LINE
  5
2A0
330
17
100
AcDbEntity
  8
0
100
AcDbLine
 10
102.9878325315317
 20
1337.0410553826766
 30
0.0
 11
103.21778880674572
 21
1337.5155345546539
 31
0.0
  0
LINE
  5
2A1
330
17
100
AcDbEntity
  8
0
100
AcDbLine
 10
103.21778880674572
 20
1337.5155345546539
 30
0.0
 11
103.41164420464803
 21
1338.0058716406015
 31
0.0
  0
LINE
  5
2A2
330
17
100
AcDbEntity
  8
0
100
AcDbLine
 10
103.41164420464803
 20
1338.0058716406015
 30
0.0
 11
103.56831460721865
 21
1338.509324476634
 31
0.0
  0
LINE
  5
2A3
330
17
100
AcDbEntity
  8
0
100
AcDbLine
 10
103.56831460721865
 20
1338.509324476634
 30
0.0
 11
103.6869238500149
 21
1339.0230775502725
 31
0.0
  0
LINE
  5
2A4
330
17
100
AcDbEntity
  8
0
100
AcDbLine
 10
103.6869238500149
 20
1339.0230775502725
 30
0.0
 11
103.76680862203897
 21
1339.544257745934
 31
0.0
  0
LINE
  5
2A5
330
17
100
AcDbEntity
  8
0
100
AcDbLine
 10
103.76680862203897
 20
1339.544257745934
 30
0.0
 11
103.8075221752409
 21
1340.0699504125514
 31
0.0
  0
LINE
  5
2A6
330
17
100
AcDbEntity
  8
0
100
AcDbLine
 10
103.8075221752409
 20
1340.0699504125514
 30
0.0
 11
103.80883682291665
 21
1340.5972156634948
 31
0.0
  0
LINE
  5
2A7
330
17
100
AcDbEntity
  8
0
100
AcDbLine
 10
1562.2675714616003
 20
288.8875143929764
 30
0.0
 11
1562.2294798517069
 21
289.41340354708234
 31
0.0
  0
LINE
  5
2A8
330
17
100
AcDbEntity
  8
0
100
AcDbLine
 10
1562.2294798517069
 20
289.41340354708234
 30
0.0
 11
1562.1521950079778
 21
289.9349756188808
 31
0.0
  0
LINE
  5
2A9
330
17
100
AcDbEntity
  8
0
100
AcDbLine
 10
1562.1521950079778
 20
289.9349756188808
 30
0.0
 11
1562.0361491386086
 21
290.44931376577756
 31
0.0
  0
LINE
  5
2AA
330
17
100
AcDbEntity
  8
0
100
AcDbLine
 10
1562.0361491386086
 20
290.44931376577756
 30
0.0
 11
1561.881991219174
 21
290.95354160022
 31
0.0
  0
LINE
  5
2AB
330
17
100
AcDbEntity
  8
0
100
AcDbLine
 10
1561.881991219174
 20
290.95354160022
 30
0.0
 11
1561.690583363293
 21
291.44483927562305
 31
0.0
  0
LINE
  5
2AC
330
17
100
AcDbEntity
  8
0
100
AcDbLine
 10
1561.690583363293
 20
291.44483927562305
 30
0.0
 11
1561.4629960013342
 21
291.9204592560991
 31
0.0
  0
LINE
  5
2AD
330
17
100
AcDbEntity
  8
0
100
AcDbLine
 10
1561.4629960013342
 20
291.9204592560991
 30
0.0
 11
1561.2005018941466
 21
292.37774168178646
 31
0.0
  0
LINE
  5
2AE
330
17
100
AcDbEntity
  8
0
100
AcDbLine
 10
1561.2005018941466
 20
292.37774168178646
 30
0.0
 11
1560.904569015255
 21
292.81412924386973
 31
0.0
  0
LINE
  5
2AF
330
17
100
AcDbEntity
  8
0
100
AcDbLine
 10
1560.904569015255
 20
292.81412924386973
 30
0.0
 11
1560.5768523413594
 21
293.2271814860875
 31
0.0
  0
LINE
  5
2B0
330
17
100
AcDbEntity
  8
0
100
AcDbLine
 10
1560.5768523413594
 20
293.2271814860875
 30
0.0
 11
1560.2191845970335
 21
293.6145884527508
 31
0.0
  0
LINE
  5
2B1
330
17
100
AcDbEntity
  8
0
100
AcDbLine
 10
1560.2191845970335
 20
293.6145884527508
 30
0.0
 11
1559.8335660053872
 21
293.97418360695576
 31
0.0
  0
LINE
  5
2B2
330
17
100
AcDbEntity
  8
0
100
AcDbLine
 10
1559.8335660053872
 20
293.97418360695576
 30
0.0
 11
1559.4221531020073
 21
294.30395594673473
 31
0.0
  0
LINE
  5
2B3
330
17
100
AcDbEntity
  8
0
100
AcDbLine
 10
1559.4221531020073
 20
294.30395594673473
 30
0.0
 11
1558.9872466747333
 21
294.60206125139484
 31
0.0
  0
LINE
  5
2B4
330
17
100
AcDbEntity
  8
0
100
AcDbLine
 10
1558.9872466747333
 20
294.60206125139484
 30
0.0
 11
1558.5312788967217
 21
294.86683239515105
 31
0.0
  0
LINE
  5
2B5
330
17
100
AcDbEntity
  8
0
100
AcDbLine
 10
1558.5312788967217
 20
294.86683239515105
 30
0.0
 11
1558.0567997247445
 21
295.09678867036473
 31
0.0
  0
LINE
  5
2B6
330
17
100
AcDbEntity
  8
0
100
AcDbLine
 10
1558.0567997247445
 20
295.09678867036473
 30
0.0
 11
1557.5664626387982
 21
295.29064406826717
 31
0.0
  0
LINE
  5
2B7
330
17
100
AcDbEntity
  8
0
100
AcDbLine
 10
1557.5664626387982
 20
295.29064406826717
 30
0.0
 11
1557.063009802766
 21
295.4473144708377
 31
0.0
  0
LINE
  5
2B8
330
17
100
AcDbEntity
  8
0
100
AcDbLine
 10
1557.063009802766
 20
295.4473144708377
 30
0.0
 11
1556.5492567291267
 21
295.56592371363377
 31
0.0
  0
LINE
  5
2B9
330
17
100
AcDbEntity
  8
0
100
AcDbLine
 10
1556.5492567291267
 20
295.56592371363377
 30
0.0
 11
1556.028076533466
 21
295.64580848565765
 31
0.0
  0
LINE
  5
2BA
330
17
100
AcDbEntity
  8
0
100
AcDbLine
 10
1556.028076533466
 20
295.64580848565765
 30
0.0
 11
1555.502383866847
 21
295.68652203885983
 31
0.0
  0
LINE
  5
2BB
330
17
100
AcDbEntity
  8
0
100
AcDbLine
 10
1555.502383866847
 20
295.68652203885983
 30
0.0
 11
1554.9751186159046
 21
295.68783668653566
 31
0.0
  0
LINE
  5
2BC
330
17
100
AcDbEntity
  8
0
100
AcDbLine
 10
1554.9751186159046
 20
295.68783668653566
 30
0.0
 11
1554.449229461799
 21
295.64974507664203
 31
0.0
  0
LINE
  5
2BD
330
17
100
AcDbEntity
  8
0
100
AcDbLine
 10
1554.449229461799
 20
295.64974507664203
 30
0.0
 11
1553.9276573900006
 21
295.5724602329126
 31
0.0
  0
LINE
  5
2BE
330
17
100
AcDbEntity
  8
0
100
AcDbLine
 10
1553.9276573900006
 20
295.5724602329126
 30
0.0
 11
1553.4133192431034
 21
295.4564143635439
 31
0.0
  0
LINE
  5
2BF
330
17
100
AcDbEntity
  8
0
100
AcDbLine
 10
1553.4133192431034
 20
295.4564143635439
 30
0.0
 11
1552.909091408661
 21
295.3022564441096
 31
0.0
  0
LINE
  5
2C0
330
17
100
AcDbEntity
  8
0
100
AcDbLine
 10
1552.909091408661
 20
295.3022564441096
 30
0.0
 11
1552.4177937332581
 21
295.11084858822744
 31
0.0
  0
LINE
  5
2C1
330
17
100
AcDbEntity
  8
0
100
AcDbLine
 10
1552.4177937332581
 20
295.11084858822744
 30
0.0
 11
1551.9421737527819
 21
294.8832612262695
 31
0.0
  0
LINE
  5
2C2
330
17
100
AcDbEntity
  8
0
100
AcDbLine
 10
1551.9421737527819
 20
294.8832612262695
 30
0.0
 11
1551.4848913270948
 21
294.62076711908253
 31
0.0
  0
LINE
  5
2C3
330
17
100
AcDbEntity
  8
0
100
AcDbLine
 10
1551.4848913270948
 20
294.62076711908253
 30
0.0
 11
1551.048503765011
 21
294.3248342401903
 31
0.0
  0
LINE
  5
2C4
330
17
100
AcDbEntity
  8
0
100
AcDbLine
 10
1551.048503765011
 20
294.3248342401903
 30
0.0
 11
1550.6354515227931
 21
293.99711756629426
 31
0.0
  0
LINE
  5
2C5
330
17
100
AcDbEntity
  8
0
100
AcDbLine
 10
1550.6354515227931
 20
293.99711756629426
 30
0.0
 11
1550.2480445561298
 21
293.639449821968
 31
0.0
  0
LINE
  5
2C6
330
17
100
AcDbEntity
  8
0
100
AcDbLine
 10
1550.2480445561298
 20
293.639449821968
 30
0.0
 11
1549.8884494019253
 21
293.25383123032213
 31
0.0
  0
LINE
  5
2C7
330
17
100
AcDbEntity
  8
0
100
AcDbLine
 10
1549.8884494019253
 20
293.25383123032213
 30
0.0
 11
1549.5586770621467
 21
292.8424183269425
 31
0.0
  0
LINE
  5
2C8
330
17
100
AcDbEntity
  8
0
100
AcDbLine
 10
1549.5586770621467
 20
292.8424183269425
 30
0.0
 11
1549.2605717574859
 21
292.40751189966863
 31
0.0
  0
LINE
  5
2C9
330
17
100
AcDbEntity
  8
0
100
AcDbLine
 10
1549.2605717574859
 20
292.40751189966863
 30
0.0
 11
1548.9958006137306
 21
291.9515441216573
 31
0.0
  0
LINE
  5
2CA
330
17
100
AcDbEntity
  8
0
100
AcDbLine
 10
1548.9958006137306
 20
291.9515441216573
 30
0.0
 11
1548.765844338516
 21
291.47706494967997
 31
0.0
  0
LINE
  5
2CB
330
17
100
AcDbEntity
  8
0
100
AcDbLine
 10
1548.765844338516
 20
291.47706494967997
 30
0.0
 11
1548.5719889406143
 21
290.986727863733
 31
0.0
  0
LINE
  5
2CC
330
17
100
AcDbEntity
  8
0
100
AcDbLine
 10
1548.5719889406143
 20
290.986727863733
 30
0.0
 11
1548.415318538043
 21
290.48327502770144
 31
0.0
  0
LINE
  5
2CD
330
17
100
AcDbEntity
  8
0
100
AcDbLine
 10
1548.415318538043
 20
290.48327502770144
 30
0.0
 11
1548.296709295247
 21
289.96952195406175
 31
0.0
  0
LINE
  5
2CE
330
17
100
AcDbEntity
  8
0
100
AcDbLine
 10
1548.296709295247
 20
289.96952195406175
 30
0.0
 11
1548.216824523223
 21
289.4483417584006
 31
0.0
  0
LINE
  5
2CF
330
17
100
AcDbEntity
  8
0
100
AcDbLine
 10
1548.216824523223
 20
289.4483417584006
 30
0.0
 11
1548.1761109700208
 21
288.92264909178255
 31
0.0
  0
LINE
  5
2D0
330
17
100
AcDbEntity
  8
0
100
AcDbLine
 10
1548.1761109700208
 20
288.92264909178255
 30
0.0
 11
1548.1747963223454
 21
288.3953838408394
 31
0.0
  0
LINE
  5
2D1
330
17
100
AcDbEntity
  8
0
100
AcDbLine
 10
1548.1747963223454
 20
288.3953838408394
 30
0.0
 11
1548.2128879322388
 21
287.86949468673345
 31
0.0
  0
LINE
  5
2D2
330
17
100
AcDbEntity
  8
0
100
AcDbLine
 10
1548.2128879322388
 20
287.86949468673345
 30
0.0
 11
1548.290172775968
 21
287.347922614935
 31
0.0
  0
LINE
  5
2D3
330
17
100
AcDbEntity
  8
0
100
AcDbLine
 10
1548.290172775968
 20
287.347922614935
 30
0.0
 11
1548.4062186453368
 21
286.8335844680389
 31
0.0
  0
LINE
  5
2D4
330
17
100
AcDbEntity
  8
0
100
AcDbLine
 10
1548.4062186453368
 20
286.8335844680389
 30
0.0
 11
1548.560376564771
 21
286.32935663359626
 31
0.0
  0
LINE
  5
2D5
330
17
100
AcDbEntity
  8
0
100
AcDbLine
 10
1548.560376564771
 20
286.32935663359626
 30
0.0
 11
1548.7517844206538
 21
285.83805895819273
 31
0.0
  0
LINE
  5
2D6
330
17
100
AcDbEntity
  8
0
100
AcDbLine
 10
1548.7517844206538
 20
285.83805895819273
 30
0.0
 11
1548.9793717826112
 21
285.36243897771715
 31
0.0
  0
LINE
  5
2D7
330
17
100
AcDbEntity
  8
0
100
AcDbLine
 10
1548.9793717826112
 20
285.36243897771715
 30
0.0
 11
1549.2418658897989
 21
284.90515655202955
 31
0.0
  0
LINE
  5
2D8
330
17
100
AcDbEntity
  8
0
100
AcDbLine
 10
1549.2418658897989
 20
284.90515655202955
 30
0.0
 11
1549.5377987686904
 21
284.46876898994606
 31
0.0
  0
LINE
  5
2D9
330
17
100
AcDbEntity
  8
0
100
AcDbLine
 10
1549.5377987686904
 20
284.46876898994606
 30
0.0
 11
1549.8655154425874
 21
284.0557167477285
 31
0.0
  0
LINE
  5
2DA
330
17
100
AcDbEntity
  8
0
100
AcDbLine
 10
1549.8655154425874
 20
284.0557167477285
 30
0.0
 11
1550.223183186913
 21
283.66830978106543
 31
0.0
  0
LINE
  5
2DB
330
17
100
AcDbEntity
  8
0
100
AcDbLine
 10
1550.223183186913
 20
283.66830978106543
 30
0.0
 11
1550.6088017785585
 21
283.3087146268605
 31
0.0
  0
LINE
  5
2DC
330
17
100
AcDbEntity
  8
0
100
AcDbLine
 10
1550.6088017785585
 20
283.3087146268605
 30
0.0
 11
1551.0202146819383
 21
282.97894228708174
 31
0.0
  0
LINE
  5
2DD
330
17
100
AcDbEntity
  8
0
100
AcDbLine
 10
1551.0202146819383
 20
282.97894228708174
 30
0.0
 11
1551.455121109212
 21
282.68083698242094
 31
0.0
  0
LINE
  5
2DE
330
17
100
AcDbEntity
  8
0
100
AcDbLine
 10
1551.455121109212
 20
282.68083698242094
 30
0.0
 11
1551.9110888872237
 21
282.4160658386654
 31
0.0
  0
LINE
  5
2DF
330
17
100
AcDbEntity
  8
0
100
AcDbLine
 10
1551.9110888872237
 20
282.4160658386654
 30
0.0
 11
1552.385568059201
 21
282.1861095634515
 31
0.0
  0
LINE
  5
2E0
330
17
100
AcDbEntity
  8
0
100
AcDbLine
 10
1552.385568059201
 20
282.1861095634515
 30
0.0
 11
1552.8759051451482
 21
281.99225416554884
 31
0.0
  0
LINE
  5
2E1
330
17
100
AcDbEntity
  8
0
100
AcDbLine
 10
1552.8759051451482
 20
281.99225416554884
 30
0.0
 11
1553.3793579811795
 21
281.83558376297833
 31
0.0
  0
LINE
  5
2E2
330
17
100
AcDbEntity
  8
0
100
AcDbLine
 10
1553.3793579811795
 20
281.83558376297833
 30
0.0
 11
1553.893111054819
 21
281.716974520182
 31
0.0
  0
LINE
  5
2E3
330
17
100
AcDbEntity
  8
0
100
AcDbLine
 10
1553.893111054819
 20
281.716974520182
 30
0.0
 11
1554.4142912504808
 21
281.63708974815836
 31
0.0
  0
LINE
  5
2E4
330
17
100
AcDbEntity
  8
0
100
AcDbLine
 10
1554.4142912504808
 20
281.63708974815836
 30
0.0
 11
1554.9399839170987
 21
281.5963761949562
 31
0.0
  0
LINE
  5
2E5
330
17
100
AcDbEntity
  8
0
100
AcDbLine
 10
1554.9399839170987
 20
281.5963761949562
 30
0.0
 11
1555.4672491680417
 21
281.5950615472801
 31
0.0
  0
LINE
  5
2E6
330
17
100
AcDbEntity
  8
0
100
AcDbLine
 10
1555.4672491680417
 20
281.5950615472801
 30
0.0
 11
1555.9931383221467
 21
281.633153157174
 31
0.0
  0
LINE
  5
2E7
330
17
100
AcDbEntity
  8
0
100
AcDbLine
 10
1555.9931383221467
 20
281.633153157174
 30
0.0
 11
1556.5147103939462
 21
281.7104380009034
 31
0.0
  0
LINE
  5
2E8
330
17
100
AcDbEntity
  8
0
100
AcDbLine
 10
1556.5147103939462
 20
281.7104380009034
 30
0.0
 11
1557.0290485408423
 21
281.8264838702719
 31
0.0
  0
LINE
  5
2E9
330
17
100
AcDbEntity
  8
0
100
AcDbLine
 10
1557.0290485408423
 20
281.8264838702719
 30
0.0
 11
1557.5332763752845
 21
281.9806417897064
 31
0.0
  0
LINE
  5
2EA
330
17
100
AcDbEntity
  8
0
100
AcDbLine
 10
1557.5332763752845
 20
281.9806417897064
 30
0.0
 11
1558.0245740506882
 21
282.1720496455886
 31
0.0
  0
LINE
  5
2EB
330
17
100
AcDbEntity
  8
0
100
AcDbLine
 10
1558.0245740506882
 20
282.1720496455886
 30
0.0
 11
1558.5001940311636
 21
282.39963700754674
 31
0.0
  0
LINE
  5
2EC
330
17
100
AcDbEntity
  8
0
100
AcDbLine
 10
1558.5001940311636
 20
282.39963700754674
 30
0.0
 11
1558.9574764568506
 21
282.66213111473394
 31
0.0
  0
LINE
  5
2ED
330
17
100
AcDbEntity
  8
0
100
AcDbLine
 10
1558.9574764568506
 20
282.66213111473394
 30
0.0
 11
1559.3938640189344
 21
282.9580639936255
 31
0.0
  0
LINE
  5
2EE
330
17
100
AcDbEntity
  8
0
100
AcDbLine
 10
1559.3938640189344
 20
282.9580639936255
 30
0.0
 11
1559.8069162611525
 21
283.2857806675222
 31
0.0
  0
LINE
  5
2EF
330
17
100
AcDbEntity
  8
0
100
AcDbLine
 10
1559.8069162611525
 20
283.2857806675222
 30
0.0
 11
1560.1943232278159
 21
283.64344841184777
 31
0.0
  0
LINE
  5
2F0
330
17
100
AcDbEntity
  8
0
100
AcDbLine
 10
1560.1943232278159
 20
283.64344841184777
 30
0.0
 11
1560.5539183820213
 21
284.0290670034941
 31
0.0
  0
LINE
  5
2F1
330
17
100
AcDbEntity
  8
0
100
AcDbLine
 10
1560.5539183820213
 20
284.0290670034941
 30
0.0
 11
1560.8836907218001
 21
284.4404799068735
 31
0.0
  0
LINE
  5
2F2
330
17
100
AcDbEntity
  8
0
100
AcDbLine
 10
1560.8836907218001
 20
284.4404799068735
 30
0.0
 11
1561.1817960264596
 21
284.87538633414715
 31
0.0
  0
LINE
  5
2F3
330
17
100
AcDbEntity
  8
0
100
AcDbLine
 10
1561.1817960264596
 20
284.87538633414715
 30
0.0
 11
1561.4465671702148
 21
285.3313541121587
 31
0.0
  0
LINE
  5
2F4
330
17
100
AcDbEntity
  8
0
100
AcDbLine
 10
1561.4465671702148
 20
285.3313541121587
 30
0.0
 11
1561.6765234454294
 21
285.80583328413627
 31
0.0
  0
LINE
  5
2F5
330
17
100
AcDbEntity
  8
0
100
AcDbLine
 10
1561.6765234454294
 20
285.80583328413627
 30
0.0
 11
1561.8703788433324
 21
286.2961703700828
 31
0.0
  0
LINE
  5
2F6
330
17
100
AcDbEntity
  8
0
100
AcDbLine
 10
1561.8703788433324
 20
286.2961703700828
 30
0.0
 11
1562.0270492459022
 21
286.7996232061148
 31
0.0
  0
LINE
  5
2F7
330
17
100
AcDbEntity
  8
0
100
AcDbLine
 10
1562.0270492459022
 20
286.7996232061148
 30
0.0
 11
1562.1456584886985
 21
287.3133762797547
 31
0.0
  0
LINE
  5
2F8
330
17
100
AcDbEntity
  8
0
100
AcDbLine
 10
1562.1456584886985
 20
287.3133762797547
 30
0.0
 11
1562.2255432607226
 21
287.8345564754152
 31
0.0
  0
LINE
  5
2F9
330
17
100
AcDbEntity
  8
0
100
AcDbLine
 10
1562.2255432607226
 20
287.8345564754152
 30
0.0
 11
1562.2662568139249
 21
288.36024914203324
 31
0.0
  0
LINE
  5
2FA
330
17
100
AcDbEntity
  8
0
100
AcDbLine
 10
1562.2662568139249
 20
288.36024914203324
 30
0.0
 11
1562.2675714616003
 21
288.8875143929764
 31
0.0
  0
LINE
  5
2FB
330
17
100
AcDbEntity
  8
0
100
AcDbLine
 10
1011.634438140668
 20
603.9496969820854
 30
0.0
 11
1013.1368840305568
 21
602.5753103514754
 31
0.0
  0
LINE
  5
2FC
330
17
100
AcDbEntity
  8
0
100
AcDbLine
 10
1013.1368840305568
 20
602.5753103514754
 30
0.0
 11
1014.6653804770041
 21
601.229955054298
 31
0.0
  0
LINE
  5
2FD
330
17
100
AcDbEntity
  8
0
100
AcDbLine
 10
1014.6653804770041
 20
601.229955054298
 30
0.0
 11
1016.2193666087281
 21
599.9141247594449
 31
0.0
  0
LINE
  5
2FE
330
17
100
AcDbEntity
  8
0
100
AcDbLine
 10
1016.2193666087281
 20
599.9141247594449
 30
0.0
 11
1017.7982722011849
 21
598.6283023018118
 31
0.0
  0
LINE
  5
2FF
330
17
100
AcDbEntity
  8
0
100
AcDbLine
 10
1017.7982722011849
 20
598.6283023018118
 30
0.0
 11
1019.4015178858043
 21
597.3729595051251
 31
0.0
  0
LINE
  5
300
330
17
100
AcDbEntity
  8
0
100
AcDbLine
 10
1019.4015178858043
 20
597.3729595051251
 30
0.0
 11
1021.0285153625856
 21
596.1485570088068
 31
0.0
  0
LINE
  5
301
330
17
100
AcDbEntity
  8
0
100
AcDbLine
 10
1021.0285153625856
 20
596.1485570088068
 30
0.0
 11
1022.6786676159726
 21
594.9555440989493
 31
0.0
  0
LINE
  5
302
330
17
100
AcDbEntity
  8
0
100
AcDbLine
 10
1022.6786676159726
 20
594.9555440989493
 30
0.0
 11
1024.351369133921
 21
593.7943585434516
 31
0.0
  0
LINE
  5
303
330
17
100
AcDbEntity
  8
0
100
AcDbLine
 10
1024.351369133921
 20
593.7943585434516
 30
0.0
 11
1026.0460061300903
 21
592.6654264313836
 31
0.0
  0
LINE
  5
304
330
17
100
AcDbEntity
  8
0
100
AcDbLine
 10
1026.0460061300903
 20
592.6654264313836
 30
0.0
 11
1027.7619567690658
 21
591.5691620166347
 31
0.0
  0
LINE
  5
305
330
17
100
AcDbEntity
  8
0
100
AcDbLine
 10
1027.7619567690658
 20
591.5691620166347
 30
0.0
 11
1029.498591394538
 21
590.5059675659081
 31
0.0
  0
LINE
  5
306
330
17
100
AcDbEntity
  8
0
100
AcDbLine
 10
1029.498591394538
 20
590.5059675659081
 30
0.0
 11
1031.2552727603504
 21
589.4762332111109
 31
0.0
  0
LINE
  5
307
330
17
100
AcDbEntity
  8
0
100
AcDbLine
 10
1031.2552727603504
 20
589.4762332111109
 30
0.0
 11
1033.0313562643332
 21
588.4803368061956
 31
0.0
  0
LINE
  5
308
330
17
100
AcDbEntity
  8
0
100
AcDbLine
 10
1033.0313562643332
 20
588.4803368061956
 30
0.0
 11
1034.8261901848355
 21
587.5186437885125
 31
0.0
  0
LINE
  5
309
330
17
100
AcDbEntity
  8
0
100
AcDbLine
 10
1034.8261901848355
 20
587.5186437885125
 30
0.0
 11
1036.6391159198683
 21
586.5915070447147
 31
0.0
  0
LINE
  5
30A
330
17
100
AcDbEntity
  8
0
100
AcDbLine
 10
1036.6391159198683
 20
586.5915070447147
 30
0.0
 11
1038.4694682287766
 21
585.6992667812668
 31
0.0
  0
LINE
  5
30B
330
17
100
AcDbEntity
  8
0
100
AcDbLine
 10
1038.4694682287766
 20
585.6992667812668
 30
0.0
 11
1040.3165754763436
 21
584.8422503996086
 31
0.0
  0
LINE
  5
30C
330
17
100
AcDbEntity
  8
0
100
AcDbLine
 10
1040.3165754763436
 20
584.8422503996086
 30
0.0
 11
1042.1797598792423
 21
584.0207723760204
 31
0.0
  0
LINE
  5
30D
330
17
100
AcDbEntity
  8
0
100
AcDbLine
 10
1042.1797598792423
 20
584.0207723760204
 30
0.0
 11
1044.0583377547448
 21
583.2351341462236
 31
0.0
  0
LINE
  5
30E
330
17
100
AcDbEntity
  8
0
100
AcDbLine
 10
1044.0583377547448
 20
583.2351341462236
 30
0.0
 11
1045.951619771592
 21
582.4856239947743
 31
0.0
  0
LINE
  5
30F
330
17
100
AcDbEntity
  8
0
100
AcDbLine
 10
1045.951619771592
 20
582.4856239947743
 30
0.0
 11
1047.858911202944
 21
581.7725169492794
 31
0.0
  0
LINE
  5
310
330
17
100
AcDbEntity
  8
0
100
AcDbLine
 10
1047.858911202944
 20
581.7725169492794
 30
0.0
 11
1049.7795121813008
 21
581.0960746794735
 31
0.0
  0
LINE
  5
311
330
17
100
AcDbEntity
  8
0
100
AcDbLine
 10
1049.7795121813008
 20
581.0960746794735
 30
0.0
 11
1051.7127179553152
 21
580.4565454012054
 31
0.0
  0
LINE
  5
312
330
17
100
AcDbEntity
  8
0
100
AcDbLine
 10
1051.7127179553152
 20
580.4565454012054
 30
0.0
 11
1053.657819148397
 21
579.8541637853546
 31
0.0
  0
LINE
  5
313
330
17
100
AcDbEntity
  8
0
100
AcDbLine
 10
1053.657819148397
 20
579.8541637853546
 30
0.0
 11
1055.6141020190141
 21
579.2891508717196
 31
0.0
  0
LINE
  5
314
330
17
100
AcDbEntity
  8
0
100
AcDbLine
 10
1055.6141020190141
 20
579.2891508717196
 30
0.0
 11
1057.5808487225943
 21
578.7617139879114
 31
0.0
  0
LINE
  5
315
330
17
100
AcDbEntity
  8
0
100
AcDbLine
 10
1057.5808487225943
 20
578.7617139879114
 30
0.0
 11
1059.5573375749332
 21
578.2720466732746
 31
0.0
  0
LINE
  5
316
330
17
100
AcDbEntity
  8
0
100
AcDbLine
 10
1059.5573375749332
 20
578.2720466732746
 30
0.0
 11
1061.5428433170127
 21
577.8203286078697
 31
0.0
  0
LINE
  5
317
330
17
100
AcDbEntity
  8
0
100
AcDbLine
 10
1061.5428433170127
 20
577.8203286078697
 30
0.0
 11
1063.5366373811285
 21
577.4067255465393
 31
0.0
  0
LINE
  5
318
330
17
100
AcDbEntity
  8
0
100
AcDbLine
 10
1063.5366373811285
 20
577.4067255465393
 30
0.0
 11
1065.5379881582328
 21
577.0313892580893
 31
0.0
  0
LINE
  5
319
330
17
100
AcDbEntity
  8
0
100
AcDbLine
 10
1065.5379881582328
 20
577.0313892580893
 30
0.0
 11
1067.5461612663944
 21
576.6944574695935
 31
0.0
  0
LINE
  5
31A
330
17
100
AcDbEntity
  8
0
100
AcDbLine
 10
1067.5461612663944
 20
576.6944574695935
 30
0.0
 11
1069.560419820276
 21
576.3960538158598
 31
0.0
  0
LINE
  5
31B
330
17
100
AcDbEntity
  8
0
100
AcDbLine
 10
1069.560419820276
 20
576.3960538158598
 30
0.0
 11
1071.5800247015243
 21
576.1362877940606
 31
0.0
  0
LINE
  5
31C
330
17
100
AcDbEntity
  8
0
100
AcDbLine
 10
1071.5800247015243
 20
576.1362877940606
 30
0.0
 11
1073.6042348299907
 21
575.915254723555
 31
0.0
  0
LINE
  5
31D
330
17
100
AcDbEntity
  8
0
100
AcDbLine
 10
1073.6042348299907
 20
575.915254723555
 30
0.0
 11
1075.6323074356624
 21
575.7330357109101
 31
0.0
  0
LINE
  5
31E
330
17
100
AcDbEntity
  8
0
100
AcDbLine
 10
1075.6323074356624
 20
575.7330357109101
 30
0.0
 11
1077.6634983312158
 21
575.589697620143
 31
0.0
  0
LINE
  5
31F
330
17
100
AcDbEntity
  8
0
100
AcDbLine
 10
1077.6634983312158
 20
575.589697620143
 30
0.0
 11
1079.6970621850935
 21
575.4852930481819
 31
0.0
  0
LINE
  5
320
330
17
100
AcDbEntity
  8
0
100
AcDbLine
 10
1079.6970621850935
 20
575.4852930481819
 30
0.0
 11
1081.7322527949966
 21
575.4198603055677
 31
0.0
  0
LINE
  5
321
330
17
100
AcDbEntity
  8
0
100
AcDbLine
 10
1081.7322527949966
 20
575.4198603055677
 30
0.0
 11
1083.7683233617
 21
575.3934234023972
 31
0.0
  0
LINE
  5
322
330
17
100
AcDbEntity
  8
0
100
AcDbLine
 10
1083.7683233617
 20
575.3934234023972
 30
0.0
 11
1085.8045267630832
 21
575.4059920395091
 31
0.0
  0
LINE
  5
323
330
17
100
AcDbEntity
  8
0
100
AcDbLine
 10
1085.8045267630832
 20
575.4059920395091
 30
0.0
 11
1087.8401158282843
 21
575.457561604929
 31
0.0
  0
LINE
  5
324
330
17
100
AcDbEntity
  8
0
100
AcDbLine
 10
1087.8401158282843
 20
575.4575616049312
 30
0.0
 11
1086.467569203603
 21
575.3896324276199
 31
0.0
  0
LINE
  5
325
330
17
100
AcDbEntity
  8
0
100
AcDbLine
 10
1086.467569203603
 20
575.3896324276199
 30
0.0
 11
1085.0975789356753
 21
575.2818118552013
 31
0.0
  0
LINE
  5
326
330
17
100
AcDbEntity
  8
0
100
AcDbLine
 10
1085.0975789356753
 20
575.2818118552013
 30
0.0
 11
1083.7313041730413
 21
575.1341911146427
 31
0.0
  0
LINE
  5
327
330
17
100
AcDbEntity
  8
0
100
AcDbLine
 10
1083.7313041730413
 20
575.1341911146427
 30
0.0
 11
1082.3699009205532
 21
574.9468951078297
 31
0.0
  0
LINE
  5
328
330
17
100
AcDbEntity
  8
0
100
AcDbLine
 10
1082.3699009205532
 20
574.9468951078297
 30
0.0
 11
1081.0145210612786
 21
574.720082305882
 31
0.0
  0
LINE
  5
329
330
17
100
AcDbEntity
  8
0
100
AcDbLine
 10
1081.0145210612786
 20
574.720082305882
 30
0.0
 11
1079.6663113818943
 21
574.453944615075
 31
0.0
  0
LINE
  5
32A
330
17
100
AcDbEntity
  8
0
100
AcDbLine
 10
1079.6663113818943
 20
574.453944615075
 30
0.0
 11
1078.326412602388
 21
574.1487072144647
 31
0.0
  0
LINE
  5
32B
330
17
100
AcDbEntity
  8
0
100
AcDbLine
 10
1078.326412602388
 20
574.1487072144647
 30
0.0
 11
1076.9959584108967
 21
573.8046283653646
 31
0.0
  0
LINE
  5
32C
330
17
100
AcDbEntity
  8
0
100
AcDbLine
 10
1076.9959584108967
 20
573.8046283653646
 30
0.0
 11
1075.6760745044937
 21
573.4219991928344
 31
0.0
  0
LINE
  5
32D
330
17
100
AcDbEntity
  8
0
100
AcDbLine
 10
1075.6760745044937
 20
573.4219991928344
 30
0.0
 11
1074.3678776367344
 21
573.0011434393515
 31
0.0
  0
LINE
  5
32E
330
17
100
AcDbEntity
  8
0
100
AcDbLine
 10
1074.3678776367344
 20
573.0011434393515
 30
0.0
 11
1073.0724746727742
 21
572.5424171909019
 31
0.0
  0
LINE
  5
32F
330
17
100
AcDbEntity
  8
0
100
AcDbLine
 10
1073.0724746727742
 20
572.5424171909019
 30
0.0
 11
1071.7909616528475
 21
572.0462085756883
 31
0.0
  0
LINE
  5
330
330
17
100
AcDbEntity
  8
0
100
AcDbLine
 10
1071.7909616528475
 20
572.0462085756883
 30
0.0
 11
1070.52442286491
 21
571.5129374357382
 31
0.0
  0
LINE
  5
331
330
17
100
AcDbEntity
  8
0
100
AcDbLine
 10
1070.52442286491
 20
571.5129374357382
 30
0.0
 11
1069.273929927222
 21
570.943054971676
 31
0.0
  0
LINE
  5
332
330
17
100
AcDbEntity
  8
0
100
AcDbLine
 10
1069.273929927222
 20
570.943054971676
 30
0.0
 11
1068.0405408816523
 21
570.3370433609603
 31
0.0
  0
LINE
  5
333
330
17
100
AcDbEntity
  8
0
100
AcDbLine
 10
1068.0405408816523
 20
570.3370433609603
 30
0.0
 11
1066.8252992984694
 21
569.6954153499148
 31
0.0
  0
LINE
  5
334
330
17
100
AcDbEntity
  8
0
100
AcDbLine
 10
1066.8252992984694
 20
569.6954153499148
 30
0.0
 11
1065.6292333933777
 21
569.0187138198953
 31
0.0
  0
LINE
  5
335
330
17
100
AcDbEntity
  8
0
100
AcDbLine
 10
1065.6292333933777
 20
569.0187138198953
 30
0.0
 11
1064.4533551575423
 21
568.3075113279549
 31
0.0
  0
LINE
  5
336
330
17
100
AcDbEntity
  8
0
100
AcDbLine
 10
1064.4533551575423
 20
568.3075113279549
 30
0.0
 11
1063.2986595013458
 21
567.5624096224046
 31
0.0
  0
LINE
  5
337
330
17
100
AcDbEntity
  8
0
100
AcDbLine
 10
1063.2986595013458
 20
567.5624096224046
 30
0.0
 11
1062.1661234125922
 21
566.7840391336754
 31
0.0
  0
LINE
  5
338
330
17
100
AcDbEntity
  8
0
100
AcDbLine
 10
1062.1661234125922
 20
566.7840391336754
 30
0.0
 11
1061.0567051298808
 21
565.9730584409094
 31
0.0
  0
LINE
  5
339
330
17
100
AcDbEntity
  8
0
100
AcDbLine
 10
1061.0567051298808
 20
565.9730584409094
 30
0.0
 11
1059.9713433318375
 21
565.1301537147376
 31
0.0
  0
LINE
  5
33A
330
17
100
AcDbEntity
  8
0
100
AcDbLine
 10
1059.9713433318375
 20
565.1301537147376
 30
0.0
 11
1058.9109563429017
 21
564.2560381367108
 31
0.0
  0
LINE
  5
33B
330
17
100
AcDbEntity
  8
0
100
AcDbLine
 10
1058.9109563429017
 20
564.2560381367108
 30
0.0
 11
1057.8764413563308
 21
563.351451295875
 31
0.0
  0
LINE
  5
33C
330
17
100
AcDbEntity
  8
0
100
AcDbLine
 10
1057.8764413563308
 20
563.351451295875
 30
0.0
 11
1056.8686736750833
 21
562.4171585630072
 31
0.0
  0
LINE
  5
33D
330
17
100
AcDbEntity
  8
0
100
AcDbLine
 10
1056.8686736750833
 20
562.4171585630072
 30
0.0
 11
1055.8885059712306
 21
561.4539504430368
 31
0.0
  0
LINE
  5
33E
330
17
100
AcDbEntity
  8
0
100
AcDbLine
 10
1055.8885059712306
 20
561.4539504430368
 30
0.0
 11
1054.9367675645046
 21
560.462641906194
 31
0.0
  0
ENDSEC
  0
SECTION
  2
OBJECTS
  0
DICTIONARY
  5
A
330
0
100
AcDbDictionary
281
1
  3
ACAD_COLOR
350
B
  3
ACAD_GROUP
350
C
  3
ACAD_LAYOUT
350
D
  3
ACAD_MATERIAL
350
E
  3
ACAD_MLEADERSTYLE
350
F
  3
ACAD_MLINESTYLE
350
10
  3
ACAD_PLOTSETTINGS
350
11
  3
ACAD_PLOTSTYLENAME
350
12
  3
ACAD_SCALELIST
350
14
  3
ACAD_TABLESTYLE
350
15
  3
ACAD_VISUALSTYLE
350
16
  3
EZDXF_META
350
2D
  0
DICTIONARY
  5
B
330
A
100
AcDbDictionary
281
1
  0
DICTIONARY
  5
C
330
A
100
AcDbDictionary
281
1
  0
DICTIONARY
  5
D
330
A
100
AcDbDictionary
281
1
  3
Model
350
1A
  3
Layout1
350
1E
  0
DICTIONARY
  5
E
330
A
100
AcDbDictionary
281
1
  3
ByBlock
350
1F
  3
ByLayer
350
20
  3
Global
350
21
  0
DICTIONARY
  5
F
330
A
100
AcDbDictionary
281
1
  3
Standard
350
2C
  0
DICTIONARY
  5
10
330
A
100
AcDbDictionary
281
1
  3
Standard
350
22
  0
DICTIONARY
  5
11
330
A
100
AcDbDictionary
281
1
  0
ACDBDICTIONARYWDFLT
  5
12
330
A
100
AcDbDictionary
281
1
  3
Normal
350
13
100
AcDbDictionaryWithDefault
340
13
  0
ACDBPLACEHOLDER
  5
13
330
12
  0
DICTIONARY
  5
14
330
A
100
AcDbDictionary
281
1
  0
DICTIONARY
  5
15
330
A
100
AcDbDictionary
281
1
  0
DICTIONARY
  5
16
330
A
100
AcDbDictionary
281
1
  0
LAYOUT
  5
1A
330
D
100
AcDbPlotSettings
  1

  4
A3
  6

 40
7.5
 41
20.0
 42
7.5
 43
20.0
 44
420.0
 45
297.0
 46
0.0
 47
0.0
 48
0.0
 49
0.0
140
0.0
141
0.0
142
1.0
143
1.0
 70
1024
 72
1
 73
0
 74
5
  7

 75
16
 76
0
 77
2
 78
300
147
1.0
148
0.0
149
0.0
100
AcDbLayout
  1
Model
 70
1
 71
0
 10
0.0
 20
0.0
 11
420.0
 21
297.0
 12
0.0
 22
0.0
 32
0.0
 14
1e+20
 24
1e+20
 34
1e+20
 15
-1e+20
 25
-1e+20
 35
-1e+20
146
0.0
 13
0.0
 23
0.0
 33
0.0
 16
1.0
 26
0.0
 36
0.0
 17
0.0
 27
1.0
 37
0.0
 76
1
330
17
  0
LAYOUT
  5
1E
330
D
100
AcDbPlotSettings
  1

  4
A3
  6

 40
7.5
 41
20.0
 42
7.5
 43
20.0
 44
420.0
 45
297.0
 46
0.0
 47
0.0
 48
0.0
 49
0.0
140
0.0
141
0.0
142
1.0
143
1.0
 70
0
 72
1
 73
0
 74
5
  7

 75
16
 76
0
 77
2
 78
300
147
1.0
148
0.0
149
0.0
100
AcDbLayout
  1
Layout1
 70
1
 71
1
 10
0.0
 20
0.0
 11
420.0
 21
297.0
 12
0.0
 22
0.0
 32
0.0
 14
1e+20
 24
1e+20
 34
1e+20
 15
-1e+20
 25
-1e+20
 35
-1e+20
146
0.0
 13
0.0
 23
0.0
 33
0.0
 16
1.0
 26
0.0
 36
0.0
 17
0.0
 27
1.0
 37
0.0
 76
1
330
1B
  0
MATERIAL
  5
1F
102
{ACAD_REACTORS
330
E
102
}
330
E
100
AcDbMaterial
  1
ByBlock
  2

 70
0
 40
1.0
 71
1
 41
1.0
 91
-1023410177
 42
1.0
 72
1
  3

 73
1
 74
1
 75
1
 44
0.5
 73
0
 45
1.0
 46
1.0
 77
1
  4

 78
1
 79
1
170
1
 48
1.0
171
1
  6

172
1
173
1
174
1
140
1.0
141
1.0
175
1
  7

176
1
177
1
178
1
143
1.0
179
1
  8

270
1
271
1
272
1
145
1.0
146
1.0
273
1
  9

274
1
275
1
276
1
 42
1.0
 72
1
  3

 73
1
 74
1
 75
1
 94
63
  0
MATERIAL
  5
20
102
{ACAD_REACTORS
330
E
102
}
330
E
100
AcDbMaterial
  1
ByLayer
  2

 70
0
 40
1.0
 71
1
 41
1.0
 91
-1023410177
 42
1.0
 72
1
  3

 73
1
 74
1
 75
1
 44
0.5
 73
0
 45
1.0
 46
1.0
 77
1
  4

 78
1
 79
1
170
1
 48
1.0
171
1
  6

172
1
173
1
174
1
140
1.0
141
1.0
175
1
  7

176
1
177
1
178
1
143
1.0
179
1
  8

270
1
271
1
272
1
145
1.0
146
1.0
273
1
  9

274
1
275
1
276
1
 42
1.0
 72
1
  3

 73
1
 74
1
 75
1
 94
63
  0
MATERIAL
  5
21
102
{ACAD_REACTORS
330
E
102
}
330
E
100
AcDbMaterial
  1
Global
  2

 70
0
 40
1.0
 71
1
 41
1.0
 91
-1023410177
 42
1.0
 72
1
  3

 73
1
 74
1
 75
1
 44
0.5
 73
0
 45
1.0
 46
1.0
 77
1
  4

 78
1
 79
1
170
1
 48
1.0
171
1
  6

172
1
173
1
174
1
140
1.0
141
1.0
175
1
  7

176
1
177
1
178
1
143
1.0
179
1
  8

270
1
271
1
272
1
145
1.0
146
1.0
273
1
  9

274
1
275
1
276
1
 42
1.0
 72
1
  3

 73
1
 74
1
 75
1
 94
63
  0
MLINESTYLE
  5
22
102
{ACAD_REACTORS
330
10
102
}
330
10
100
AcDbMlineStyle
  2
Standard
 70
0
  3

 62
256
 51
90.0
 52
90.0
 71
2
 49
0.5
 62
256
  6
BYLAYER
 49
-0.5
 62
256
  6
BYLAYER
  0
MLEADERSTYLE
  5
2C
102
{ACAD_REACTORS
330
F
102
}
330
F
100
AcDbMLeaderStyle
179
2
170
2
171
1
172
0
 90
2
 40
0.0
 41
0.0
173
1
 91
-1056964608
 92
-2
290
1
 42
2.0
291
1
 43
8.0
  3
Standard
 44
4.0
300

342
29
174
1
175
1
176
0
178
1
 93
-1056964608
 45
4.0
292
0
297
0
 46
4.0
 94
-1056964608
 47
1.0
 49
1.0
140
1.0
294
1
141
0.0
177
0
142
1.0
295
0
296
0
143
3.75
271
0
272
9
273
9
  0
DICTIONARY
  5
2D
330
A
100
AcDbDictionary
280
1
281
1
  3
CREATED_BY_EZDXF
350
2E
  3
WRITTEN_BY_EZDXF
350
341
  0
DICTIONARYVAR
  5
2E
330
2D
100
DictionaryVariables
280
0
  1
1.4.3 @ 2026-04-16T10:53:42.130884+00:00
  0
DICTIONARYVAR
  5
341
330
2D
100
DictionaryVariables
280
0
  1
1.4.3 @ 2026-04-16T10:53:42.142811+00:00
  0
ENDSEC
  0
EOF
