  0
SECTION
  2
HEADER
  9
$ACADVER
  1
AC1024
  9
$ACADMAINTVER
 70
6
  9
$DWGCODEPAGE
  3
ANSI_1252
  9
$LASTSAVEDBY
  1
ezdxf
  9
$INSBASE
 10
0.0
 20
0.0
 30
0.0
  9
$EXTMIN
 10
1e+20
 20
1e+20
 30
1e+20
  9
$EXTMAX
 10
-1e+20
 20
-1e+20
 30
-1e+20
  9
$LIMMIN
 10
0.0
 20
0.0
  9
$LIMMAX
 10
420.0
 20
297.0
  9
$ORTHOMODE
 70
0
  9
$REGENMODE
 70
1
  9
$FILLMODE
 70
1
  9
$QTEXTMODE
 70
0
  9
$MIRRTEXT
 70
1
  9
$LTSCALE
 40
1.0
  9
$ATTMODE
 70
1
  9
$TEXTSIZE
 40
2.5
  9
$TRACEWID
 40
1.0
  9
$TEXTSTYLE
  7
Standard
  9
$CLAYER
  8
0
  9
$CELTYPE
  6
ByLayer
  9
$CECOLOR
 62
256
  9
$CELTSCALE
 40
1.0
  9
$DISPSILH
 70
0
  9
$DIMSCALE
 40
1.0
  9
$DIMASZ
 40
2.5
  9
$DIMEXO
 40
0.625
  9
$DIMDLI
 40
3.75
  9
$DIMRND
 40
0.0
  9
$DIMDLE
 40
0.0
  9
$DIMEXE
 40
1.25
  9
$DIMTP
 40
0.0
  9
$DIMTM
 40
0.0
  9
$DIMTXT
 40
2.5
  9
$DIMCEN
 40
2.5
  9
$DIMTSZ
 40
0.0
  9
$DIMTOL
 70
0
  9
$DIMLIM
 70
0
  9
$DIMTIH
 70
0
  9
$DIMTOH
 70
0
  9
$DIMSE1
 70
0
  9
$DIMSE2
 70
0
  9
$DIMTAD
 70
1
  9
$DIMZIN
 70
8
  9
$DIMBLK
  1

  9
$DIMASO
 70
1
  9
$DIMSHO
 70
1
  9
$DIMPOST
  1

  9
$DIMAPOST
  1

  9
$DIMALT
 70
0
  9
$DIMALTD
 70
3
  9
$DIMALTF
 40
0.03937007874
  9
$DIMLFAC
 40
1.0
  9
$DIMTOFL
 70
1
  9
$DIMTVP
 40
0.0
  9
$DIMTIX
 70
0
  9
$DIMSOXD
 70
0
  9
$DIMSAH
 70
0
  9
$DIMBLK1
  1

  9
$DIMBLK2
  1

  9
$DIMSTYLE
  2
ISO-25
  9
$DIMCLRD
 70
0
  9
$DIMCLRE
 70
0
  9
$DIMCLRT
 70
0
  9
$DIMTFAC
 40
1.0
  9
$DIMGAP
 40
0.625
  9
$DIMJUST
 70
0
  9
$DIMSD1
 70
0
  9
$DIMSD2
 70
0
  9
$DIMTOLJ
 70
0
  9
$DIMTZIN
 70
8
  9
$DIMALTZ
 70
0
  9
$DIMALTTZ
 70
0
  9
$DIMUPT
 70
0
  9
$DIMDEC
 70
2
  9
$DIMTDEC
 70
2
  9
$DIMALTU
 70
2
  9
$DIMALTTD
 70
3
  9
$DIMTXSTY
  7
Standard
  9
$DIMAUNIT
 70
0
  9
$DIMADEC
 70
0
  9
$DIMALTRND
 40
0.0
  9
$DIMAZIN
 70
0
  9
$DIMDSEP
 70
44
  9
$DIMATFIT
 70
3
  9
$DIMFRAC
 70
0
  9
$DIMLDRBLK
  1

  9
$DIMLUNIT
 70
2
  9
$DIMLWD
 70
-2
  9
$DIMLWE
 70
-2
  9
$DIMTMOVE
 70
0
  9
$DIMFXL
 40
1.0
  9
$DIMFXLON
 70
0
  9
$DIMJOGANG
 40
0.785398163397
  9
$DIMTFILL
 70
0
  9
$DIMTFILLCLR
 70
0
  9
$DIMARCSYM
 70
0
  9
$DIMLTYPE
  6

  9
$DIMLTEX1
  6

  9
$DIMLTEX2
  6

  9
$DIMTXTDIRECTION
 70
0
  9
$LUNITS
 70
2
  9
$LUPREC
 70
4
  9
$SKETCHINC
 40
1.0
  9
$FILLETRAD
 40
10.0
  9
$AUNITS
 70
0
  9
$AUPREC
 70
2
  9
$MENU
  1
.
  9
$ELEVATION
 40
0.0
  9
$PELEVATION
 40
0.0
  9
$THICKNESS
 40
0.0
  9
$LIMCHECK
 70
0
  9
$CHAMFERA
 40
0.0
  9
$CHAMFERB
 40
0.0
  9
$CHAMFERC
 40
0.0
  9
$CHAMFERD
 40
0.0
  9
$SKPOLY
 70
0
  9
$TDCREATE
 40
2461147.5789467595
  9
$TDUCREATE
 40
2458532.153996898
  9
$TDUPDATE
 40
2461147.5789467595
  9
$TDUUPDATE
 40
2458532.1544311
  9
$TDINDWG
 40
0.0
  9
$TDUSRTIMER
 40
0.0
  9
$USRTIMER
 70
1
  9
$ANGBASE
 50
0.0
  9
$ANGDIR
 70
0
  9
$PDMODE
 70
0
  9
$PDSIZE
 40
0.0
  9
$PLINEWID
 40
0.0
  9
$SPLFRAME
 70
0
  9
$SPLINETYPE
 70
6
  9
$SPLINESEGS
 70
8
  9
$HANDSEED
  5
1F2
  9
$SURFTAB1
 70
6
  9
$SURFTAB2
 70
6
  9
$SURFTYPE
 70
6
  9
$SURFU
 70
6
  9
$SURFV
 70
6
  9
$UCSBASE
  2

  9
$UCSNAME
  2

  9
$UCSORG
 10
0.0
 20
0.0
 30
0.0
  9
$UCSXDIR
 10
1.0
 20
0.0
 30
0.0
  9
$UCSYDIR
 10
0.0
 20
1.0
 30
0.0
  9
$UCSORTHOREF
  2

  9
$UCSORTHOVIEW
 70
0
  9
$UCSORGTOP
 10
0.0
 20
0.0
 30
0.0
  9
$UCSORGBOTTOM
 10
0.0
 20
0.0
 30
0.0
  9
$UCSORGLEFT
 10
0.0
 20
0.0
 30
0.0
  9
$UCSORGRIGHT
 10
0.0
 20
0.0
 30
0.0
  9
$UCSORGFRONT
 10
0.0
 20
0.0
 30
0.0
  9
$UCSORGBACK
 10
0.0
 20
0.0
 30
0.0
  9
$PUCSBASE
  2

  9
$PUCSNAME
  2

  9
$PUCSORG
 10
0.0
 20
0.0
 30
0.0
  9
$PUCSXDIR
 10
1.0
 20
0.0
 30
0.0
  9
$PUCSYDIR
 10
0.0
 20
1.0
 30
0.0
  9
$PUCSORTHOREF
  2

  9
$PUCSORTHOVIEW
 70
0
  9
$PUCSORGTOP
 10
0.0
 20
0.0
 30
0.0
  9
$PUCSORGBOTTOM
 10
0.0
 20
0.0
 30
0.0
  9
$PUCSORGLEFT
 10
0.0
 20
0.0
 30
0.0
  9
$PUCSORGRIGHT
 10
0.0
 20
0.0
 30
0.0
  9
$PUCSORGFRONT
 10
0.0
 20
0.0
 30
0.0
  9
$PUCSORGBACK
 10
0.0
 20
0.0
 30
0.0
  9
$USERI1
 70
0
  9
$USERI2
 70
0
  9
$USERI3
 70
0
  9
$USERI4
 70
0
  9
$USERI5
 70
0
  9
$USERR1
 40
0.0
  9
$USERR2
 40
0.0
  9
$USERR3
 40
0.0
  9
$USERR4
 40
0.0
  9
$USERR5
 40
0.0
  9
$WORLDVIEW
 70
1
  9
$SHADEDGE
 70
3
  9
$SHADEDIF
 70
70
  9
$TILEMODE
 70
1
  9
$MAXACTVP
 70
64
  9
$PINSBASE
 10
0.0
 20
0.0
 30
0.0
  9
$PLIMCHECK
 70
0
  9
$PEXTMIN
 10
1e+20
 20
1e+20
 30
1e+20
  9
$PEXTMAX
 10
-1e+20
 20
-1e+20
 30
-1e+20
  9
$PLIMMIN
 10
0.0
 20
0.0
  9
$PLIMMAX
 10
420.0
 20
297.0
  9
$UNITMODE
 70
0
  9
$VISRETAIN
 70
1
  9
$PLINEGEN
 70
0
  9
$PSLTSCALE
 70
1
  9
$TREEDEPTH
 70
3020
  9
$CMLSTYLE
  2
Standard
  9
$CMLJUST
 70
0
  9
$CMLSCALE
 40
20.0
  9
$PROXYGRAPHICS
 70
1
  9
$MEASUREMENT
 70
1
  9
$CELWEIGHT
370
-1
  9
$ENDCAPS
280
0
  9
$JOINSTYLE
280
0
  9
$LWDISPLAY
290
0
  9
$INSUNITS
 70
0
  9
$HYPERLINKBASE
  1

  9
$STYLESHEET
  1

  9
$XEDIT
290
1
  9
$CEPSNTYPE
380
0
  9
$PSTYLEMODE
290
1
  9
$FINGERPRINTGUID
  2
{2DC43BD0-091A-4D09-8E40-01EC43DD4AFD}
  9
$VERSIONGUID
  2
{71192D61-2880-44B1-A016-60440D60AD9F}
  9
$EXTNAMES
290
1
  9
$PSVPSCALE
 40
0.0
  9
$OLESTARTUP
290
0
  9
$SORTENTS
280
127
  9
$INDEXCTL
280
0
  9
$HIDETEXT
280
1
  9
$XCLIPFRAME
280
1
  9
$HALOGAP
280
0
  9
$OBSCOLOR
 70
257
  9
$OBSLTYPE
280
0
  9
$INTERSECTIONDISPLAY
280
0
  9
$INTERSECTIONCOLOR
 70
257
  9
$DIMASSOC
280
2
  9
$PROJECTNAME
  1

  9
$CAMERADISPLAY
290
0
  9
$LENSLENGTH
 40
50.0
  9
$CAMERAHEIGHT
 40
0.0
  9
$STEPSPERSEC
 40
24.0
  9
$STEPSIZE
 40
100.0
  9
$3DDWFPREC
 40
2.0
  9
$PSOLWIDTH
 40
0.005
  9
$PSOLHEIGHT
 40
0.08
  9
$LOFTANG1
 40
1.570796326795
  9
$LOFTANG2
 40
1.570796326795
  9
$LOFTMAG1
 40
0.0
  9
$LOFTMAG2
 40
0.0
  9
$LOFTPARAM
 70
7
  9
$LOFTNORMALS
280
1
  9
$LATITUDE
 40
37.795
  9
$LONGITUDE
 40
-122.394
  9
$NORTHDIRECTION
 40
0.0
  9
$TIMEZONE
 70
-8000
  9
$LIGHTGLYPHDISPLAY
280
1
  9
$TILEMODELIGHTSYNCH
280
1
  9
$CMATERIAL
347
20
  9
$SOLIDHIST
280
0
  9
$SHOWHIST
280
1
  9
$DWFFRAME
280
2
  9
$DGNFRAME
280
2
  9
$REALWORLDSCALE
290
1
  9
$INTERFERECOLOR
 62
256
  9
$CSHADOW
280
0
  9
$SHADOWPLANELOCATION
 40
0.0
  0
ENDSEC
  0
SECTION
  2
CLASSES
  0
CLASS
  1
ACDBDICTIONARYWDFLT
  2
AcDbDictionaryWithDefault
  3
ObjectDBX Classes
 90
0
 91
0
280
0
281
0
  0
CLASS
  1
SUN
  2
AcDbSun
  3
SCENEOE
 90
1153
 91
0
280
0
281
0
  0
CLASS
  1
VISUALSTYLE
  2
AcDbVisualStyle
  3
ObjectDBX Classes
 90
4095
 91
0
280
0
281
0
  0
CLASS
  1
MATERIAL
  2
AcDbMaterial
  3
ObjectDBX Classes
 90
1153
 91
0
280
0
281
0
  0
CLASS
  1
SCALE
  2
AcDbScale
  3
ObjectDBX Classes
 90
1153
 91
0
280
0
281
0
  0
CLASS
  1
TABLESTYLE
  2
AcDbTableStyle
  3
ObjectDBX Classes
 90
4095
 91
0
280
0
281
0
  0
CLASS
  1
MLEADERSTYLE
  2
AcDbMLeaderStyle
  3
ACDB_MLEADERSTYLE_CLASS
 90
4095
 91
0
280
0
281
0
  0
CLASS
  1
DICTIONARYVAR
  2
AcDbDictionaryVar
  3
ObjectDBX Classes
 90
0
 91
0
280
0
281
0
  0
CLASS
  1
CELLSTYLEMAP
  2
AcDbCellStyleMap
  3
ObjectDBX Classes
 90
1152
 91
0
280
0
281
0
  0
CLASS
  1
MENTALRAYRENDERSETTINGS
  2
AcDbMentalRayRenderSettings
  3
SCENEOE
 90
1024
 91
0
280
0
281
0
  0
CLASS
  1
ACDBDETAILVIEWSTYLE
  2
AcDbDetailViewStyle
  3
ObjectDBX Classes
 90
1025
 91
0
280
0
281
0
  0
CLASS
  1
ACDBSECTIONVIEWSTYLE
  2
AcDbSectionViewStyle
  3
ObjectDBX Classes
 90
1025
 91
0
280
0
281
0
  0
CLASS
  1
RASTERVARIABLES
  2
AcDbRasterVariables
  3
ISM
 90
0
 91
0
280
0
281
0
  0
CLASS
  1
LAYOUT
  2
AcDbLayout
  3
ObjectDBX Classes
 90
0
 91
0
280
0
281
0
  0
CLASS
  1
ACDBPLACEHOLDER
  2
AcDbPlaceHolder
  3
ObjectDBX Classes
 90
0
 91
0
280
0
281
0
  0
ENDSEC
  0
SECTION
  2
TABLES
  0
TABLE
  2
VPORT
  5
8
330
0
100
AcDbSymbolTable
 70
1
  0
VPORT
  5
23
330
8
100
AcDbSymbolTableRecord
100
AcDbViewportTableRecord
  2
*Active
 70
0
 10
0.0
 20
0.0
 11
1.0
 21
1.0
 12
0.0
 22
0.0
 13
0.0
 23
0.0
 14
0.5
 24
0.5
 15
0.5
 25
0.5
 16
0.0
 26
0.0
 36
1.0
 17
0.0
 27
0.0
 37
0.0
 40
1000.0
 41
1.34
 42
50.0
 43
0.0
 44
0.0
 50
0.0
 51
0.0
 71
0
 72
1000
 73
1
 74
3
 75
0
 76
0
 77
0
 78
0
281
0
 65
0
146
0.0
  0
ENDTAB
  0
TABLE
  2
LTYPE
  5
2
330
0
100
AcDbSymbolTable
 70
3
  0
LTYPE
  5
24
330
2
100
AcDbSymbolTableRecord
100
AcDbLinetypeTableRecord
  2
ByBlock
 70
0
  3

 72
65
 73
0
 40
0.0
  0
LTYPE
  5
25
330
2
100
AcDbSymbolTableRecord
100
AcDbLinetypeTableRecord
  2
ByLayer
 70
0
  3

 72
65
 73
0
 40
0.0
  0
LTYPE
  5
26
330
2
100
AcDbSymbolTableRecord
100
AcDbLinetypeTableRecord
  2
Continuous
 70
0
  3

 72
65
 73
0
 40
0.0
  0
ENDTAB
  0
TABLE
  2
LAYER
  5
1
330
0
100
AcDbSymbolTable
 70
2
  0
LAYER
  5
27
330
1
100
AcDbSymbolTableRecord
100
AcDbLayerTableRecord
  2
0
 70
0
 62
7
  6
Continuous
370
-3
390
13
347
21
  0
LAYER
  5
28
330
1
100
AcDbSymbolTableRecord
100
AcDbLayerTableRecord
  2
Defpoints
 70
0
 62
7
  6
Continuous
290
0
370
-3
390
13
347
21
  0
ENDTAB
  0
TABLE
  2
STYLE
  5
5
330
0
100
AcDbSymbolTable
 70
1
  0
STYLE
  5
29
330
5
100
AcDbSymbolTableRecord
100
AcDbTextStyleTableRecord
  2
Standard
 70
0
 40
0.0
 41
1.0
 50
0.0
 71
0
 42
2.5
  3
txt
  4

  0
ENDTAB
  0
TABLE
  2
VIEW
  5
7
330
0
100
AcDbSymbolTable
 70
0
  0
ENDTAB
  0
TABLE
  2
UCS
  5
6
330
0
100
AcDbSymbolTable
 70
0
  0
ENDTAB
  0
TABLE
  2
APPID
  5
3
330
0
100
AcDbSymbolTable
 70
3
  0
APPID
  5
2A
330
3
100
AcDbSymbolTableRecord
100
AcDbRegAppTableRecord
  2
ACAD
 70
0
  0
APPID
  5
1EF
330
3
100
AcDbSymbolTableRecord
100
AcDbRegAppTableRecord
  2
HATCHBACKGROUNDCOLOR
 70
0
  0
APPID
  5
1F0
330
3
100
AcDbSymbolTableRecord
100
AcDbRegAppTableRecord
  2
EZDXF
 70
0
  0
ENDTAB
  0
TABLE
  2
DIMSTYLE
  5
4
330
0
100
AcDbSymbolTable
 70
1
100
AcDbDimStyleTable
  0
DIMSTYLE
105
2B
330
4
100
AcDbSymbolTableRecord
100
AcDbDimStyleTableRecord
  2
Standard
 70
0
 40
1.0
 41
2.5
 42
0.625
 43
3.75
 44
1.25
 45
0.0
 46
0.0
 47
0.0
 48
0.0
 49
2.5
140
2.5
141
2.5
142
0.0
143
0.03937007874
144
1.0
145
0.0
146
1.0
147
0.625
148
0.0
 69
0
 70
0
 71
0
 72
0
 73
0
 74
0
 75
0
 76
0
 77
1
 78
8
 79
3
170
0
171
3
172
1
173
0
174
0
175
0
176
0
177
0
178
0
179
2
271
2
272
2
273
2
274
3
275
0
276
0
277
2
278
44
279
0
280
0
281
0
282
0
283
0
284
8
285
0
286
0
288
0
289
3
290
0
371
-2
372
-2
  0
ENDTAB
  0
TABLE
  2
BLOCK_RECORD
  5
9
330
0
100
AcDbSymbolTable
 70
2
  0
BLOCK_RECORD
  5
17
330
9
100
AcDbSymbolTableRecord
100
AcDbBlockTableRecord
  2
*Model_Space
340
1A
 70
0
280
1
281
0
  0
BLOCK_RECORD
  5
1B
330
9
100
AcDbSymbolTableRecord
100
AcDbBlockTableRecord
  2
*Paper_Space
340
1E
 70
0
280
1
281
0
  0
ENDTAB
  0
ENDSEC
  0
SECTION
  2
BLOCKS
  0
BLOCK
  5
18
330
17
100
AcDbEntity
  8
0
100
AcDbBlockBegin
  2
*Model_Space
 70
0
 10
0.0
 20
0.0
 30
0.0
  3
*Model_Space
  1

  0
ENDBLK
  5
19
330
17
100
AcDbEntity
  8
0
100
AcDbBlockEnd
  0
BLOCK
  5
1C
330
1B
100
AcDbEntity
  8
0
100
AcDbBlockBegin
  2
*Paper_Space
 70
0
 10
0.0
 20
0.0
 30
0.0
  3
*Paper_Space
  1

  0
ENDBLK
  5
1D
330
1B
100
AcDbEntity
  8
0
100
AcDbBlockEnd
  0
ENDSEC
  0
SECTION
  2
ENTITIES
  0
LINE
  5
2F
330
17
100
AcDbEntity
  8
0
100
AcDbLine
 10
-29.268434512490668
 20
1846.2294072777581
 30
0.0
 11
851.8480292774954
 21
1876.9986722051522
 31
0.0
  0
LINE
  5
30
330
17
100
AcDbEntity
  8
0
100
AcDbLine
 10
-6.597501615196735
 20
1197.0188306708653
 30
0.0
 11
874.5189621747893
 21
1227.7880955982594
 31
0.0
  0
LINE
  5
31
330
17
100
AcDbEntity
  8
0
100
AcDbLine
 10
320.6757393264011
 20
1858.449727107366
 30
0.0
 11
386.3760689340655
 21
-22.961552308750242
 31
0.0
  0
LINE
  5
32
330
17
100
AcDbEntity
  8
0
100
AcDbLine
 10
851.4770503755396
 20
1887.6221180041741
 30
0.0
 11
917.5483588851597
 21
-4.412607210964325
 31
0.0
  0
LINE
  5
33
330
17
100
AcDbEntity
  8
0
100
AcDbLine
 10
16.073431282097157
 20
547.8082540639738
 30
0.0
 11
897.1898950720832
 21
578.5775189913677
 31
0.0
  0
LINE
  5
34
330
17
100
AcDbEntity
  8
0
100
AcDbLine
 10
887.9566424011855
 20
842.9832811003519
 30
0.0
 11
828.9374990732864
 21
840.9222872005979
 31
0.0
  0
LINE
  5
35
330
17
100
AcDbEntity
  8
0
100
AcDbLine
 10
828.9374990732864
 20
840.9222872005979
 30
0.0
 11
827.7009027334338
 21
876.3337731973422
 31
0.0
  0
LINE
  5
36
330
17
100
AcDbEntity
  8
0
100
AcDbLine
 10
885.6895491114559
 20
907.904338761046
 30
0.0
 11
373.40338502528823
 21
890.0149117111813
 31
0.0
  0
LINE
  5
37
330
17
100
AcDbEntity
  8
0
100
AcDbLine
 10
343.8938133613385
 20
888.9844147613043
 30
0.0
 11
155.03255471205853
 21
882.3892342820915
 31
0.0
  0
LINE
  5
38
330
17
100
AcDbEntity
  8
0
100
AcDbLine
 10
344.51211153126474
 20
871.2786717629332
 30
0.0
 11
5.191383491396113
 21
859.429330835281
 31
0.0
  0
LINE
  5
39
330
17
100
AcDbEntity
  8
0
100
AcDbLine
 10
827.7009027334338
 20
876.3337731973422
 30
0.0
 11
344.9243103112155
 21
859.4748430973544
 31
0.0
  0
LINE
  5
3A
330
17
100
AcDbEntity
  8
0
100
AcDbLine
 10
915.8212799258594
 20
45.04446330715609
 30
0.0
 11
929.9858743245557
 21
45.539101843097114
 31
0.0
  0
LINE
  5
3B
330
17
100
AcDbEntity
  8
0
100
AcDbLine
 10
900.8584642136453
 20
473.5234438677055
 30
0.0
 11
915.0230586123416
 21
474.01808240364653
 31
0.0
  0
LINE
  5
3C
330
17
100
AcDbEntity
  8
0
100
AcDbLine
 10
905.3926507931042
 20
343.68132854632665
 30
0.0
 11
919.5572451918005
 21
344.1759670822677
 31
0.0
  0
LINE
  5
3D
330
17
100
AcDbEntity
  8
0
100
AcDbLine
 10
911.2870933464008
 20
174.88657862852745
 30
0.0
 11
925.4516877450972
 21
175.38121716446847
 31
0.0
  0
LINE
  5
3E
330
17
100
AcDbEntity
  8
0
100
AcDbLine
 10
911.2870933464008
 20
174.88657862852745
 30
0.0
 11
905.3926507931042
 21
343.68132854632665
 31
0.0
  0
LINE
  5
3F
330
17
100
AcDbEntity
  8
0
100
AcDbLine
 10
900.8584642136453
 20
473.5234438677055
 30
0.0
 11
893.5625458085163
 21
682.4512112484665
 31
0.0
  0
LINE
  5
40
330
17
100
AcDbEntity
  8
0
100
AcDbLine
 10
917.5483588851597
 20
-4.412607210964325
 30
0.0
 11
915.8212799258594
 21
45.04446330715609
 31
0.0
  0
LINE
  5
41
330
17
100
AcDbEntity
  8
0
100
AcDbLine
 10
888.203961669156
 20
835.9009839010029
 30
0.0
 11
851.8480292774954
 21
1876.9986722051522
 31
0.0
  0
LINE
  5
42
330
17
100
AcDbEntity
  8
0
100
AcDbLine
 10
902.3685560678496
 20
836.3956224369438
 30
0.0
 11
865.517985140248
 21
1891.6579051397885
 31
0.0
  0
LINE
  5
43
330
17
100
AcDbEntity
  8
0
100
AcDbLine
 10
155.03255471205853
 20
882.3892342820915
 30
0.0
 11
147.2007778929933
 21
1106.66197892811
 31
0.0
  0
LINE
  5
44
330
17
100
AcDbEntity
  8
0
100
AcDbLine
 10
336.0620365422733
 20
1113.257159407323
 30
0.0
 11
147.2007778929933
 21
1106.66197892811
 31
0.0
  0
LINE
  5
45
330
17
100
AcDbEntity
  8
0
100
AcDbLine
 10
137.3268117136913
 20
881.7709361121654
 30
0.0
 11
129.4950348946261
 21
1106.0436807581839
 31
0.0
  0
LINE
  5
46
330
17
100
AcDbEntity
  8
0
100
AcDbLine
 10
137.3268117136913
 20
881.7709361121654
 30
0.0
 11
4.573085321469874
 21
877.1350738336521
 31
0.0
  0
LINE
  5
47
330
17
100
AcDbEntity
  8
0
100
AcDbLine
 10
335.44373837234724
 20
1130.962902405689
 30
0.0
 11
40.348021732850654
 21
1120.657932906919
 31
0.0
  0
LINE
  5
48
330
17
100
AcDbEntity
  8
0
100
AcDbLine
 10
129.4950348946261
 20
1106.0436807581839
 30
0.0
 11
-3.258691497595341
 21
1101.4078184796706
 31
0.0
  0
LINE
  5
49
330
17
100
AcDbEntity
  8
0
100
AcDbLine
 10
333.0942053266276
 20
1198.2447257994957
 30
0.0
 11
335.44373837234724
 21
1130.962902405689
 31
0.0
  0
LINE
  5
4A
330
17
100
AcDbEntity
  8
0
100
AcDbLine
 10
332.35224752271614
 20
1219.4916173975407
 30
0.0
 11
310.7942513312894
 21
1836.831856607368
 31
0.0
  0
LINE
  5
4B
330
17
100
AcDbEntity
  8
0
100
AcDbLine
 10
339.5618651913277
 20
1859.1092451552872
 30
0.0
 11
373.40338502528823
 21
890.0149117111813
 31
0.0
  0
LINE
  5
4C
330
17
100
AcDbEntity
  8
0
100
AcDbLine
 10
336.0620365422733
 20
1113.257159407323
 30
0.0
 11
343.8938133613385
 21
888.9844147613043
 31
0.0
  0
LINE
  5
4D
330
17
100
AcDbEntity
  8
0
100
AcDbLine
 10
344.51211153126474
 20
871.2786717629332
 30
0.0
 11
344.9243103112155
 21
859.4748430973544
 31
0.0
  0
LINE
  5
4E
330
17
100
AcDbEntity
  8
0
100
AcDbLine
 10
40.348021732850654
 20
1120.657932906919
 30
0.0
 11
39.111425392998214
 21
1156.06941890366
 31
0.0
  0
LINE
  5
4F
330
17
100
AcDbEntity
  8
0
100
AcDbLine
 10
22.642278734480826
 20
1120.0396347369929
 30
0.0
 11
21.405682394628386
 21
1155.451120733734
 31
0.0
  0
LINE
  5
50
330
17
100
AcDbEntity
  8
0
100
AcDbLine
 10
173.91486963277234
 20
1356.9593601116953
 30
0.0
 11
161.54890623424836
 21
1711.0742200790917
 31
0.0
  0
LINE
  5
51
330
17
100
AcDbEntity
  8
0
100
AcDbLine
 10
185.71869829835256
 20
1357.3715588916461
 30
0.0
 11
173.3527348998286
 21
1711.4864188590425
 31
0.0
  0
LINE
  5
52
330
17
100
AcDbEntity
  8
0
100
AcDbLine
 10
19.902962247290983
 20
1706.1278347196821
 30
0.0
 11
314.99867888678756
 21
1716.432804218452
 31
0.0
  0
LINE
  5
53
330
17
100
AcDbEntity
  8
0
100
AcDbLine
 10
21.139558587143384
 20
1670.7163487229425
 30
0.0
 11
162.78550257410075
 21
1675.662734082352
 31
0.0
  0
LINE
  5
54
330
17
100
AcDbEntity
  8
0
100
AcDbLine
 10
22.376154926995774
 20
1635.3048627262028
 30
0.0
 11
164.02209891395316
 21
1640.2512480856126
 31
0.0
  0
LINE
  5
55
330
17
100
AcDbEntity
  8
0
100
AcDbLine
 10
23.612751266848136
 20
1599.8933767294643
 30
0.0
 11
165.2586952538055
 21
1604.8397620888738
 31
0.0
  0
LINE
  5
56
330
17
100
AcDbEntity
  8
0
100
AcDbLine
 10
24.84934760670065
 20
1564.4818907327212
 30
0.0
 11
166.49529159365804
 21
1569.428276092131
 31
0.0
  0
LINE
  5
57
330
17
100
AcDbEntity
  8
0
100
AcDbLine
 10
26.085943946552963
 20
1529.070404735984
 30
0.0
 11
167.73188793351034
 21
1534.0167900953938
 31
0.0
  0
LINE
  5
58
330
17
100
AcDbEntity
  8
0
100
AcDbLine
 10
27.322540286405363
 20
1493.6589187392444
 30
0.0
 11
98.14551227988468
 21
1496.132111418949
 31
0.0
  0
LINE
  5
59
330
17
100
AcDbEntity
  8
0
100
AcDbLine
 10
32.26892564581495
 20
1352.012974752286
 30
0.0
 11
327.3646422853115
 21
1362.317944251056
 31
0.0
  0
LINE
  5
5A
330
17
100
AcDbEntity
  8
0
100
AcDbLine
 10
39.111425392998214
 20
1156.06941890366
 30
0.0
 11
21.405682394628386
 21
1155.451120733734
 31
0.0
  0
LINE
  5
5B
330
17
100
AcDbEntity
  8
0
100
AcDbLine
 10
34.165040033588575
 20
1297.7153628906199
 30
0.0
 11
16.459297035218746
 21
1297.0970647206937
 31
0.0
  0
LINE
  5
5C
330
17
100
AcDbEntity
  8
0
100
AcDbLine
 10
16.459297035218746
 20
1297.0970647206937
 30
0.0
 11
-2.749166110488428
 21
1847.155480536714
 31
0.0
  0
LINE
  5
5D
330
17
100
AcDbEntity
  8
0
100
AcDbLine
 10
34.165040033588575
 20
1297.7153628906199
 30
0.0
 11
14.9565768878814
 21
1847.7737787066403
 31
0.0
  0
LINE
  5
5E
330
17
100
AcDbEntity
  8
0
100
AcDbLine
 10
22.642278734480826
 20
1120.0396347369929
 30
0.0
 11
-3.876989667521415
 21
1119.113561478037
 31
0.0
  0
LINE
  5
5F
330
17
100
AcDbEntity
  8
0
100
AcDbLine
 10
174.58933123968097
 20
1676.0749328623028
 30
0.0
 11
316.23527522663994
 21
1681.0213182217124
 31
0.0
  0
LINE
  5
60
330
17
100
AcDbEntity
  8
0
100
AcDbLine
 10
175.82592757953338
 20
1640.6634468655634
 30
0.0
 11
317.4718715664923
 21
1645.6098322249727
 31
0.0
  0
LINE
  5
61
330
17
100
AcDbEntity
  8
0
100
AcDbLine
 10
177.06252391938574
 20
1605.2519608688247
 30
0.0
 11
318.7084679063447
 21
1610.1983462282342
 31
0.0
  0
LINE
  5
62
330
17
100
AcDbEntity
  8
0
100
AcDbLine
 10
178.29912025923826
 20
1569.8404748720818
 30
0.0
 11
319.9450642461972
 21
1574.7868602314911
 31
0.0
  0
LINE
  5
63
330
17
100
AcDbEntity
  8
0
100
AcDbLine
 10
179.53571659909056
 20
1534.4289888753447
 30
0.0
 11
321.18166058604953
 21
1539.375374234754
 31
0.0
  0
LINE
  5
64
330
17
100
AcDbEntity
  8
0
100
AcDbLine
 10
180.77231293894297
 20
1499.0175028786048
 30
0.0
 11
322.4182569259019
 21
1503.9638882380143
 31
0.0
  0
LINE
  5
65
330
17
100
AcDbEntity
  8
0
100
AcDbLine
 10
182.00890927879536
 20
1463.606016881865
 30
0.0
 11
323.65485326575435
 21
1468.5524022412746
 31
0.0
  0
LINE
  5
66
330
17
100
AcDbEntity
  8
0
100
AcDbLine
 10
183.2455056186477
 20
1428.1945308851266
 30
0.0
 11
324.8914496056067
 21
1433.1409162445361
 31
0.0
  0
LINE
  5
67
330
17
100
AcDbEntity
  8
0
100
AcDbLine
 10
184.48210195850024
 20
1392.7830448883838
 30
0.0
 11
326.1280459454592
 21
1397.7294302477933
 31
0.0
  0
LINE
  5
68
330
17
100
AcDbEntity
  8
0
100
AcDbLine
 10
256.54167029183014
 20
1359.844751571351
 30
0.0
 11
244.1757068933062
 21
1713.9596115387471
 31
0.0
  0
LINE
  5
69
330
17
100
AcDbEntity
  8
0
100
AcDbLine
 10
268.1322105860787
 20
1691.6198104341256
 30
0.0
 11
244.1757068933062
 21
1713.9596115387471
 31
0.0
  0
LINE
  5
6A
330
17
100
AcDbEntity
  8
0
100
AcDbLine
 10
221.83590578868723
 20
1690.003107845976
 30
0.0
 11
244.1757068933062
 21
1713.9596115387471
 31
0.0
  0
LINE
  5
6B
330
17
100
AcDbEntity
  8
0
100
AcDbLine
 10
90.7259342407703
 20
1708.601027399387
 30
0.0
 11
98.14551227988468
 21
1496.132111418949
 31
0.0
  0
LINE
  5
6C
330
17
100
AcDbEntity
  8
0
100
AcDbLine
 10
74.1890085871124
 20
1518.4719125235706
 30
0.0
 11
98.14551227988468
 21
1496.132111418949
 31
0.0
  0
LINE
  5
6D
330
17
100
AcDbEntity
  8
0
100
AcDbLine
 10
120.48531338450411
 20
1520.0886151117202
 30
0.0
 11
98.14551227988468
 21
1496.132111418949
 31
0.0
  0
LINE
  5
6E
330
17
100
AcDbEntity
  8
0
100
AcDbLine
 10
28.559136626257764
 20
1458.2474327425048
 30
0.0
 11
167.73188793351034
 21
1534.0167900953938
 31
0.0
  0
LINE
  5
6F
330
17
100
AcDbEntity
  8
0
100
AcDbLine
 10
-29.268434512490668
 20
1846.2294072777581
 30
0.0
 11
144.79869220926253
 21
1852.3079652860993
 31
0.0
  0
LINE
  5
70
330
17
100
AcDbEntity
  8
0
100
AcDbLine
 10
-29.763073048431615
 20
1860.3940016764536
 30
0.0
 11
152.56673373922385
 21
1866.7610988307604
 31
0.0
  0
LINE
  5
71
330
17
100
AcDbEntity
  8
0
100
AcDbLine
 10
354.90684245658167
 20
1859.6451035692235
 30
0.0
 11
354.4122039206407
 21
1873.809697967919
 31
0.0
  0
LINE
  5
72
330
17
100
AcDbEntity
  8
0
100
AcDbLine
 10
496.5527864435388
 20
1864.591488928633
 30
0.0
 11
496.05814790759786
 21
1878.7560833273287
 31
0.0
  0
LINE
  5
73
330
17
100
AcDbEntity
  8
0
100
AcDbLine
 10
496.05814790759786
 20
1878.7560833273287
 30
0.0
 11
865.517985140248
 21
1891.6579051397885
 31
0.0
  0
LINE
  5
74
330
17
100
AcDbEntity
  8
0
100
AcDbLine
 10
496.5527864435388
 20
1864.591488928633
 30
0.0
 11
851.8480292774954
 21
1876.9986722051522
 31
0.0
  0
LINE
  5
75
330
17
100
AcDbEntity
  8
0
100
AcDbLine
 10
251.03315019947877
 20
1856.0177543056564
 30
0.0
 11
250.53851166353783
 21
1870.182348704352
 31
0.0
  0
LINE
  5
76
330
17
100
AcDbEntity
  8
0
100
AcDbLine
 10
144.79869220926253
 20
1852.3079652860993
 30
0.0
 11
144.3040536733216
 21
1866.4725596847948
 31
0.0
  0
LINE
  5
77
330
17
100
AcDbEntity
  8
0
100
AcDbLine
 10
251.03315019947877
 20
1856.0177543056564
 30
0.0
 11
354.90684245658167
 21
1859.6451035692235
 31
0.0
  0
LINE
  5
78
330
17
100
AcDbEntity
  8
0
100
AcDbLine
 10
528.9964412246342
 20
1950.8156516606605
 30
0.0
 11
933.8677644540248
 21
1964.954069812973
 31
0.0
  0
LINE
  5
79
330
17
100
AcDbEntity
  8
0
100
AcDbLine
 10
1002.535925277335
 20
-1.4447759953185368
 30
0.0
 11
979.5806091505685
 21
655.9094708001627
 31
0.0
  0
LINE
  5
7A
330
17
100
AcDbEntity
  8
0
100
AcDbLine
 10
888.203961669156
 20
835.9009839010029
 30
0.0
 11
902.3685560678496
 21
836.3956224369438
 31
0.0
  0
LINE
  5
7B
330
17
100
AcDbEntity
  8
0
100
AcDbLine
 10
893.5625458085163
 20
682.4512112484665
 30
0.0
 11
907.7271402072099
 21
682.9458497844073
 31
0.0
  0
LINE
  5
7C
330
17
100
AcDbEntity
  8
0
100
AcDbLine
 10
902.3685560678496
 20
836.3956224369438
 30
0.0
 11
907.7271402072099
 21
682.9458497844073
 31
0.0
  0
LINE
  5
7D
330
17
100
AcDbEntity
  8
0
100
AcDbLine
 10
1152.9282501147059
 20
768.3269104896449
 30
0.0
 11
1082.1052781212268
 21
765.85371780994
 31
0.0
  0
LINE
  5
7E
330
17
100
AcDbEntity
  8
0
100
AcDbLine
 10
1106.0617818140004
 20
743.5139167053173
 30
0.0
 11
1082.1052781212268
 21
765.85371780994
 31
0.0
  0
LINE
  5
7F
330
17
100
AcDbEntity
  8
0
100
AcDbLine
 10
1104.4450792258513
 20
789.8102215027053
 30
0.0
 11
1082.1052781212268
 21
765.85371780994
 31
0.0
  0
LINE
  5
80
330
17
100
AcDbEntity
  8
0
100
AcDbLine
 10
1078.3954891016697
 20
872.088175800156
 30
0.0
 11
1085.815067140784
 21
659.6192598197197
 31
0.0
  0
LINE
  5
81
330
17
100
AcDbEntity
  8
0
100
AcDbLine
 10
1113.8069750984114
 20
873.3247721400087
 30
0.0
 11
1121.2265531375258
 21
660.8558561595723
 31
0.0
  0
LINE
  5
82
330
17
100
AcDbEntity
  8
0
100
AcDbLine
 10
1149.2184610951524
 20
874.5613684798611
 30
0.0
 11
1156.6380391342668
 21
662.0924524994248
 31
0.0
  0
LINE
  5
83
330
17
100
AcDbEntity
  8
0
100
AcDbLine
 10
972.1610311114542
 20
868.3783867805992
 30
0.0
 11
933.8677644540248
 21
1964.954069812973
 31
0.0
  0
LINE
  5
84
330
17
100
AcDbEntity
  8
0
100
AcDbLine
 10
7.128661049344011
 20
1225.86189394726
 30
0.0
 11
48.4420613788735
 21
1227.3045896770877
 31
0.0
  0
LINE
  5
85
330
17
100
AcDbEntity
  8
0
100
AcDbLine
 10
424.82297713416807
 20
1888.086719313204
 30
0.0
 11
426.1420132300106
 21
1850.3144675833496
 31
0.0
  0
LINE
  5
86
330
17
100
AcDbEntity
  8
0
100
AcDbLine
 10
931.7129532838533
 20
-3.917968675023417
 30
0.0
 11
929.6973351785877
 21
53.80178190899562
 31
0.0
  0
LINE
  5
87
330
17
100
AcDbEntity
  8
0
100
AcDbLine
 10
925.74022689106
 20
167.11853709856018
 30
0.0
 11
919.2687060458321
 21
352.43864714817346
 31
0.0
  0
LINE
  5
88
330
17
100
AcDbEntity
  8
0
100
AcDbLine
 10
919.5497734123057
 20
175.17511777449295
 30
0.0
 11
919.8383125582715
 21
166.91243770858478
 31
0.0
  0
LINE
  5
89
330
17
100
AcDbEntity
  8
0
100
AcDbLine
 10
919.8383125582715
 20
166.91243770858478
 30
0.0
 11
925.74022689106
 21
167.11853709856018
 31
0.0
  0
LINE
  5
8A
330
17
100
AcDbEntity
  8
0
100
AcDbLine
 10
925.74022689106
 20
167.11853709856018
 30
0.0
 11
925.74022689106
 21
167.11853709856018
 31
0.0
  0
LINE
  5
8B
330
17
100
AcDbEntity
  8
0
100
AcDbLine
 10
919.8383125582715
 20
166.91243770858478
 30
0.0
 11
923.7954208457991
 21
53.595682519020215
 31
0.0
  0
LINE
  5
8C
330
17
100
AcDbEntity
  8
0
100
AcDbLine
 10
923.7954208457991
 20
53.595682519020215
 30
0.0
 11
926.7463780121954
 21
53.69873221400803
 31
0.0
  0
LINE
  5
8D
330
17
100
AcDbEntity
  8
0
100
AcDbLine
 10
926.7463780121954
 20
53.69873221400803
 30
0.0
 11
922.7892697246677
 21
167.0154874035726
 31
0.0
  0
LINE
  5
8E
330
17
100
AcDbEntity
  8
0
100
AcDbLine
 10
922.7892697246677
 20
167.0154874035726
 30
0.0
 11
919.8383125582715
 21
166.91243770858478
 31
0.0
  0
LINE
  5
8F
330
17
100
AcDbEntity
  8
0
100
AcDbLine
 10
919.8383125582715
 20
166.91243770858478
 30
0.0
 11
919.8383125582715
 21
166.91243770858478
 31
0.0
  0
LINE
  5
90
330
17
100
AcDbEntity
  8
0
100
AcDbLine
 10
929.6973351785877
 20
53.80178190899562
 30
0.0
 11
923.7954208457991
 21
53.595682519020215
 31
0.0
  0
LINE
  5
91
330
17
100
AcDbEntity
  8
0
100
AcDbLine
 10
923.7954208457991
 20
53.595682519020215
 30
0.0
 11
924.0839599917647
 21
45.333002453112044
 31
0.0
  0
LINE
  5
92
330
17
100
AcDbEntity
  8
0
100
AcDbLine
 10
929.9858743245533
 20
45.53910184308745
 30
0.0
 11
929.9858743245533
 21
45.53910184308745
 31
0.0
  0
LINE
  5
93
330
17
100
AcDbEntity
  8
0
100
AcDbLine
 10
909.4096834255158
 20
465.54930294776625
 30
0.0
 11
913.3667917130435
 21
352.23254775819805
 31
0.0
  0
LINE
  5
94
330
17
100
AcDbEntity
  8
0
100
AcDbLine
 10
913.3667917130435
 20
352.23254775819805
 30
0.0
 11
916.3177488794398
 21
352.33559745318587
 31
0.0
  0
LINE
  5
95
330
17
100
AcDbEntity
  8
0
100
AcDbLine
 10
916.3177488794398
 20
352.33559745318587
 30
0.0
 11
912.3606405919121
 21
465.65235264275407
 31
0.0
  0
LINE
  5
96
330
17
100
AcDbEntity
  8
0
100
AcDbLine
 10
912.3606405919121
 20
465.65235264275407
 30
0.0
 11
909.4096834255158
 21
465.54930294776625
 31
0.0
  0
LINE
  5
97
330
17
100
AcDbEntity
  8
0
100
AcDbLine
 10
909.4096834255158
 20
465.54930294776625
 30
0.0
 11
909.4096834255158
 21
465.54930294776625
 31
0.0
  0
LINE
  5
98
330
17
100
AcDbEntity
  8
0
100
AcDbLine
 10
915.3115977583044
 20
465.75540233774166
 30
0.0
 11
907.7271402072099
 21
682.9458497844073
 31
0.0
  0
LINE
  5
99
330
17
100
AcDbEntity
  8
0
100
AcDbLine
 10
909.1211442795503
 20
473.811983013671
 30
0.0
 11
909.4096834255158
 21
465.54930294776625
 31
0.0
  0
LINE
  5
9A
330
17
100
AcDbEntity
  8
0
100
AcDbLine
 10
909.4096834255158
 20
465.54930294776625
 30
0.0
 11
915.3115977583044
 21
465.75540233774166
 31
0.0
  0
LINE
  5
9B
330
17
100
AcDbEntity
  8
0
100
AcDbLine
 10
915.3115977583044
 20
465.75540233774166
 30
0.0
 11
915.3115977583044
 21
465.75540233774166
 31
0.0
  0
LINE
  5
9C
330
17
100
AcDbEntity
  8
0
100
AcDbLine
 10
919.2687060458321
 20
352.43864714817346
 30
0.0
 11
913.3667917130435
 21
352.23254775819805
 31
0.0
  0
LINE
  5
9D
330
17
100
AcDbEntity
  8
0
100
AcDbLine
 10
913.3667917130435
 20
352.23254775819805
 30
0.0
 11
913.6553308590092
 21
343.96986769229215
 31
0.0
  0
LINE
  5
9E
330
17
100
AcDbEntity
  8
0
100
AcDbLine
 10
919.5572451917977
 20
344.17596708226756
 30
0.0
 11
919.5572451917977
 21
344.17596708226756
 31
0.0
  0
LINE
  5
9F
330
17
100
AcDbEntity
  8
0
100
AcDbLine
 10
902.3685560678496
 20
836.3956224369438
 30
0.0
 11
980.1108786809093
 21
763.8997337688843
 31
0.0
  0
LINE
  5
A0
330
17
100
AcDbEntity
  8
0
100
AcDbLine
 10
907.7271402072099
 20
682.9458497844073
 30
0.0
 11
939.9475351707941
 21
717.4979931679884
 31
0.0
  0
LINE
  5
A1
330
17
100
AcDbEntity
  8
0
100
AcDbLine
 10
354.4122039206407
 20
1873.809697967919
 30
0.0
 11
496.05814790759786
 21
1878.7560833273287
 31
0.0
  0
LINE
  5
A2
330
17
100
AcDbEntity
  8
0
100
AcDbLine
 10
496.05814790759786
 20
1878.7560833273287
 30
0.0
 11
496.5527864435388
 21
1864.591488928633
 31
0.0
  0
LINE
  5
A3
330
17
100
AcDbEntity
  8
0
100
AcDbLine
 10
496.5527864435388
 20
1864.591488928633
 30
0.0
 11
354.90684245658167
 21
1859.6451035692235
 31
0.0
  0
LINE
  5
A4
330
17
100
AcDbEntity
  8
0
100
AcDbLine
 10
354.90684245658167
 20
1859.6451035692235
 30
0.0
 11
354.4122039206407
 21
1873.809697967919
 31
0.0
  0
LINE
  5
A5
330
17
100
AcDbEntity
  8
0
100
AcDbLine
 10
354.4122039206407
 20
1873.809697967919
 30
0.0
 11
354.4122039206407
 21
1873.809697967919
 31
0.0
  0
LINE
  5
A6
330
17
100
AcDbEntity
  8
0
100
AcDbLine
 10
16.459297035218746
 20
1297.0970647206937
 30
0.0
 11
21.405682394628386
 21
1155.451120733734
 31
0.0
  0
LINE
  5
A7
330
17
100
AcDbEntity
  8
0
100
AcDbLine
 10
21.405682394628386
 20
1155.451120733734
 30
0.0
 11
39.111425392998214
 21
1156.06941890366
 31
0.0
  0
LINE
  5
A8
330
17
100
AcDbEntity
  8
0
100
AcDbLine
 10
39.111425392998214
 20
1156.06941890366
 30
0.0
 11
34.165040033588575
 21
1297.7153628906199
 31
0.0
  0
LINE
  5
A9
330
17
100
AcDbEntity
  8
0
100
AcDbLine
 10
34.165040033588575
 20
1297.7153628906199
 30
0.0
 11
16.459297035218746
 21
1297.0970647206937
 31
0.0
  0
LINE
  5
AA
330
17
100
AcDbEntity
  8
0
100
AcDbLine
 10
16.459297035218746
 20
1297.0970647206937
 30
0.0
 11
16.459297035218746
 21
1297.0970647206937
 31
0.0
  0
LINE
  5
AB
330
17
100
AcDbEntity
  8
0
100
AcDbLine
 10
911.2870933464008
 20
174.88657862852745
 30
0.0
 11
925.4516877450944
 21
175.38121716446835
 31
0.0
  0
LINE
  5
AC
330
17
100
AcDbEntity
  8
0
100
AcDbLine
 10
925.4516877450944
 20
175.38121716446835
 30
0.0
 11
929.9858743245533
 21
45.53910184308745
 31
0.0
  0
LINE
  5
AD
330
17
100
AcDbEntity
  8
0
100
AcDbLine
 10
929.9858743245533
 20
45.53910184308745
 30
0.0
 11
915.8212799258597
 21
45.04446330714654
 31
0.0
  0
LINE
  5
AE
330
17
100
AcDbEntity
  8
0
100
AcDbLine
 10
915.8212799258597
 20
45.04446330714654
 30
0.0
 11
911.2870933464008
 21
174.88657862852745
 31
0.0
  0
LINE
  5
AF
330
17
100
AcDbEntity
  8
0
100
AcDbLine
 10
911.2870933464008
 20
174.88657862852745
 30
0.0
 11
911.2870933464008
 21
174.88657862852745
 31
0.0
  0
LINE
  5
B0
330
17
100
AcDbEntity
  8
0
100
AcDbLine
 10
900.8584642136453
 20
473.5234438677055
 30
0.0
 11
915.0230586123389
 21
474.0180824036464
 31
0.0
  0
LINE
  5
B1
330
17
100
AcDbEntity
  8
0
100
AcDbLine
 10
915.0230586123389
 20
474.0180824036464
 30
0.0
 11
919.5572451917977
 21
344.17596708226756
 31
0.0
  0
LINE
  5
B2
330
17
100
AcDbEntity
  8
0
100
AcDbLine
 10
919.5572451917977
 20
344.17596708226756
 30
0.0
 11
905.3926507931042
 21
343.68132854632665
 31
0.0
  0
LINE
  5
B3
330
17
100
AcDbEntity
  8
0
100
AcDbLine
 10
905.3926507931042
 20
343.68132854632665
 30
0.0
 11
900.8584642136453
 21
473.5234438677055
 31
0.0
  0
LINE
  5
B4
330
17
100
AcDbEntity
  8
0
100
AcDbLine
 10
900.8584642136453
 20
473.5234438677055
 30
0.0
 11
900.8584642136453
 21
473.5234438677055
 31
0.0
  0
LINE
  5
B5
330
17
100
AcDbEntity
  8
0
100
AcDbLine
 10
908.7576371570868
 20
653.4362781204578
 30
0.0
 11
1156.6380391342668
 21
662.0924524994248
 31
0.0
  0
LINE
  5
B6
330
17
100
AcDbEntity
  8
0
100
AcDbLine
 10
1085.815067140784
 20
659.6192598197197
 30
0.0
 11
1078.3954891016697
 21
872.088175800156
 31
0.0
  0
LINE
  5
B7
330
17
100
AcDbEntity
  8
0
100
AcDbLine
 10
1149.2184610951524
 20
874.5613684798611
 30
0.0
 11
901.3380591179725
 21
865.9051941008943
 31
0.0
  0
LINE
  5
B8
330
17
100
AcDbEntity
  8
0
100
AcDbLine
 10
146.67417163987983
 20
1984.7375556695679
 30
0.0
 11
164.3799146382475
 21
1985.355853839494
 31
0.0
  0
LINE
  5
B9
330
17
100
AcDbEntity
  8
0
100
AcDbLine
 10
164.3799146382475
 20
1985.355853839494
 30
0.0
 11
164.99821280817375
 21
1967.650110841123
 31
0.0
  0
LINE
  5
BA
330
17
100
AcDbEntity
  8
0
100
AcDbLine
 10
164.99821280817375
 20
1967.650110841123
 30
0.0
 11
147.29246980980608
 21
1967.0318126711968
 31
0.0
  0
LINE
  5
BB
330
17
100
AcDbEntity
  8
0
100
AcDbLine
 10
147.29246980980608
 20
1967.0318126711968
 30
0.0
 11
146.67417163987983
 21
1984.7375556695679
 31
0.0
  0
LINE
  5
BC
330
17
100
AcDbEntity
  8
0
100
AcDbLine
 10
146.67417163987983
 20
1984.7375556695679
 30
0.0
 11
146.67417163987983
 21
1984.7375556695679
 31
0.0
  0
LINE
  5
BD
330
17
100
AcDbEntity
  8
0
100
AcDbLine
 10
503.7399887736688
 20
1997.2065687630793
 30
0.0
 11
486.0342457753026
 21
1996.5882705931533
 31
0.0
  0
LINE
  5
BE
330
17
100
AcDbEntity
  8
0
100
AcDbLine
 10
486.0342457753026
 20
1996.5882705931533
 30
0.0
 11
486.65254394522884
 21
1978.8825275947822
 31
0.0
  0
LINE
  5
BF
330
17
100
AcDbEntity
  8
0
100
AcDbLine
 10
486.65254394522884
 20
1978.8825275947822
 30
0.0
 11
504.35828694359503
 21
1979.5008257647082
 31
0.0
  0
LINE
  5
C0
330
17
100
AcDbEntity
  8
0
100
AcDbLine
 10
504.35828694359503
 20
1979.5008257647082
 30
0.0
 11
503.7399887736688
 21
1997.2065687630793
 31
0.0
  0
LINE
  5
C1
330
17
100
AcDbEntity
  8
0
100
AcDbLine
 10
503.7399887736688
 20
1997.2065687630793
 30
0.0
 11
503.7399887736688
 21
1997.2065687630793
 31
0.0
  0
LINE
  5
C2
330
17
100
AcDbEntity
  8
0
100
AcDbLine
 10
144.79869220926253
 20
1852.3079652860993
 30
0.0
 11
144.3040536733216
 21
1866.4725596847948
 31
0.0
  0
LINE
  5
C3
330
17
100
AcDbEntity
  8
0
100
AcDbLine
 10
144.3040536733216
 20
1866.4725596847948
 30
0.0
 11
250.53851166353783
 21
1870.182348704352
 31
0.0
  0
LINE
  5
C4
330
17
100
AcDbEntity
  8
0
100
AcDbLine
 10
250.53851166353783
 20
1870.182348704352
 30
0.0
 11
251.03315019947877
 21
1856.0177543056564
 31
0.0
  0
LINE
  5
C5
330
17
100
AcDbEntity
  8
0
100
AcDbLine
 10
251.03315019947877
 20
1856.0177543056564
 30
0.0
 11
144.79869220926253
 21
1852.3079652860993
 31
0.0
  0
LINE
  5
C6
330
17
100
AcDbEntity
  8
0
100
AcDbLine
 10
144.79869220926253
 20
1852.3079652860993
 30
0.0
 11
144.79869220926253
 21
1852.3079652860993
 31
0.0
  0
LINE
  5
C7
330
17
100
AcDbEntity
  8
0
100
AcDbLine
 10
-34.70945840784126
 20
2002.0399456634138
 30
0.0
 11
526.5232485449294
 21
2021.6386236541412
 31
0.0
  0
LINE
  5
C8
330
17
100
AcDbEntity
  8
0
100
AcDbLine
 10
526.5232485449294
 20
2021.6386236541412
 30
0.0
 11
531.469633904339
 21
1879.992679667179
 31
0.0
  0
LINE
  5
C9
330
17
100
AcDbEntity
  8
0
100
AcDbLine
 10
875.5720245720827
 20
588.4590069864755
 30
0.0
 11
896.8189161701275
 21
589.2009647903869
 31
0.0
  0
LINE
  5
CA
330
17
100
AcDbEntity
  8
0
100
AcDbLine
 10
896.8189161701275
 20
589.2009647903869
 30
0.0
 11
897.5608739740389
 21
567.9540731923457
 31
0.0
  0
LINE
  5
CB
330
17
100
AcDbEntity
  8
0
100
AcDbLine
 10
897.5608739740389
 20
567.9540731923457
 30
0.0
 11
876.3139823759941
 21
567.2121153884343
 31
0.0
  0
LINE
  5
CC
330
17
100
AcDbEntity
  8
0
100
AcDbLine
 10
876.3139823759941
 20
567.2121153884343
 30
0.0
 11
875.5720245720827
 21
588.4590069864755
 31
0.0
  0
LINE
  5
CD
330
17
100
AcDbEntity
  8
0
100
AcDbLine
 10
875.5720245720827
 20
588.4590069864755
 30
0.0
 11
875.5720245720827
 21
588.4590069864755
 31
0.0
  0
LINE
  5
CE
330
17
100
AcDbEntity
  8
0
100
AcDbLine
 10
355.0231804200102
 20
570.2810407906452
 30
0.0
 11
376.27007201805185
 21
571.0229985945566
 31
0.0
  0
LINE
  5
CF
330
17
100
AcDbEntity
  8
0
100
AcDbLine
 10
376.27007201805185
 20
571.0229985945566
 30
0.0
 11
377.01202982196315
 21
549.7761069965154
 31
0.0
  0
LINE
  5
D0
330
17
100
AcDbEntity
  8
0
100
AcDbLine
 10
377.01202982196315
 20
549.7761069965154
 30
0.0
 11
355.7651382239215
 21
549.034149192604
 31
0.0
  0
LINE
  5
D1
330
17
100
AcDbEntity
  8
0
100
AcDbLine
 10
355.7651382239215
 20
549.034149192604
 30
0.0
 11
355.0231804200102
 21
570.2810407906452
 31
0.0
  0
LINE
  5
D2
330
17
100
AcDbEntity
  8
0
100
AcDbLine
 10
355.0231804200102
 20
570.2810407906452
 30
0.0
 11
355.0231804200102
 21
570.2810407906452
 31
0.0
  0
LINE
  5
D3
330
17
100
AcDbEntity
  8
0
100
AcDbLine
 10
852.9010916747887
 20
1237.669583593371
 30
0.0
 11
874.1479832728336
 21
1238.4115413972825
 31
0.0
  0
LINE
  5
D4
330
17
100
AcDbEntity
  8
0
100
AcDbLine
 10
874.1479832728336
 20
1238.4115413972825
 30
0.0
 11
874.889941076745
 21
1217.1646497992374
 31
0.0
  0
LINE
  5
D5
330
17
100
AcDbEntity
  8
0
100
AcDbLine
 10
874.889941076745
 20
1217.1646497992374
 30
0.0
 11
853.6430494787002
 21
1216.422691995326
 31
0.0
  0
LINE
  5
D6
330
17
100
AcDbEntity
  8
0
100
AcDbLine
 10
853.6430494787002
 20
1216.422691995326
 30
0.0
 11
852.9010916747887
 21
1237.669583593371
 31
0.0
  0
LINE
  5
D7
330
17
100
AcDbEntity
  8
0
100
AcDbLine
 10
852.9010916747887
 20
1237.669583593371
 30
0.0
 11
852.9010916747887
 21
1237.669583593371
 31
0.0
  0
LINE
  5
D8
330
17
100
AcDbEntity
  8
0
100
AcDbLine
 10
830.6011376794505
 20
1876.2567144012405
 30
0.0
 11
851.8480292774954
 21
1876.9986722051522
 31
0.0
  0
LINE
  5
D9
330
17
100
AcDbEntity
  8
0
100
AcDbLine
 10
851.8480292774954
 20
1876.9986722051522
 30
0.0
 11
852.5899870814068
 21
1855.7517806071096
 31
0.0
  0
LINE
  5
DA
330
17
100
AcDbEntity
  8
0
100
AcDbLine
 10
852.5899870814068
 20
1855.7517806071096
 30
0.0
 11
831.3430954833619
 21
1855.0098228031984
 31
0.0
  0
LINE
  5
DB
330
17
100
AcDbEntity
  8
0
100
AcDbLine
 10
831.3430954833619
 20
1855.0098228031984
 30
0.0
 11
830.6011376794505
 21
1876.2567144012405
 31
0.0
  0
LINE
  5
DC
330
17
100
AcDbEntity
  8
0
100
AcDbLine
 10
830.6011376794505
 20
1876.2567144012405
 30
0.0
 11
830.6011376794505
 21
1876.2567144012405
 31
0.0
  0
LINE
  5
DD
330
17
100
AcDbEntity
  8
0
100
AcDbLine
 10
332.35224752271614
 20
1219.4916173975407
 30
0.0
 11
353.5991391207578
 21
1220.2335752014521
 31
0.0
  0
LINE
  5
DE
330
17
100
AcDbEntity
  8
0
100
AcDbLine
 10
353.5991391207578
 20
1220.2335752014521
 30
0.0
 11
354.3410969246693
 21
1198.986683603407
 31
0.0
  0
LINE
  5
DF
330
17
100
AcDbEntity
  8
0
100
AcDbLine
 10
354.3410969246693
 20
1198.986683603407
 30
0.0
 11
333.0942053266276
 21
1198.2447257994957
 31
0.0
  0
LINE
  5
E0
330
17
100
AcDbEntity
  8
0
100
AcDbLine
 10
333.0942053266276
 20
1198.2447257994957
 30
0.0
 11
332.35224752271614
 21
1219.4916173975407
 31
0.0
  0
LINE
  5
E1
330
17
100
AcDbEntity
  8
0
100
AcDbLine
 10
332.35224752271614
 20
1219.4916173975407
 30
0.0
 11
332.35224752271614
 21
1219.4916173975407
 31
0.0
  0
LINE
  5
E2
330
17
100
AcDbEntity
  8
0
100
AcDbLine
 10
310.05229352737797
 20
1858.0787482054102
 30
0.0
 11
331.2991851254196
 21
1858.8207060093218
 31
0.0
  0
LINE
  5
E3
330
17
100
AcDbEntity
  8
0
100
AcDbLine
 10
331.2991851254196
 20
1858.8207060093218
 30
0.0
 11
332.04114292933104
 21
1837.5738144112793
 31
0.0
  0
LINE
  5
E4
330
17
100
AcDbEntity
  8
0
100
AcDbLine
 10
332.04114292933104
 20
1837.5738144112793
 30
0.0
 11
310.7942513312894
 21
1836.831856607368
 31
0.0
  0
LINE
  5
E5
330
17
100
AcDbEntity
  8
0
100
AcDbLine
 10
310.7942513312894
 20
1836.831856607368
 30
0.0
 11
310.05229352737797
 21
1858.0787482054102
 31
0.0
  0
LINE
  5
E6
330
17
100
AcDbEntity
  8
0
100
AcDbLine
 10
310.05229352737797
 20
1858.0787482054102
 30
0.0
 11
310.05229352737797
 21
1858.0787482054102
 31
0.0
  0
LINE
  5
E7
330
17
100
AcDbEntity
  8
0
100
AcDbLine
 10
242.2758315976334
 20
1869.8938095583865
 30
0.0
 11
354.4122039206407
 21
1873.809697967919
 31
0.0
  0
LINE
  5
E8
330
17
100
AcDbEntity
  8
0
100
AcDbLine
 10
250.74461105351315
 20
1864.2804343715636
 30
0.0
 11
242.48193098760873
 21
1863.991895225598
 31
0.0
  0
LINE
  5
E9
330
17
100
AcDbEntity
  8
0
100
AcDbLine
 10
242.48193098760873
 20
1863.991895225598
 30
0.0
 11
242.2758315976334
 21
1869.8938095583865
 31
0.0
  0
LINE
  5
EA
330
17
100
AcDbEntity
  8
0
100
AcDbLine
 10
242.2758315976334
 20
1869.8938095583865
 30
0.0
 11
242.2758315976334
 21
1869.8938095583865
 31
0.0
  0
LINE
  5
EB
330
17
100
AcDbEntity
  8
0
100
AcDbLine
 10
242.37888129262106
 20
1866.9428523919933
 30
0.0
 11
152.6697834342115
 21
1863.8101416643672
 31
0.0
  0
LINE
  5
EC
330
17
100
AcDbEntity
  8
0
100
AcDbLine
 10
152.6697834342115
 20
1863.8101416643672
 30
0.0
 11
152.77283312919917
 21
1860.859184497972
 31
0.0
  0
LINE
  5
ED
330
17
100
AcDbEntity
  8
0
100
AcDbLine
 10
152.77283312919917
 20
1860.859184497972
 30
0.0
 11
242.48193098760873
 21
1863.991895225598
 31
0.0
  0
LINE
  5
EE
330
17
100
AcDbEntity
  8
0
100
AcDbLine
 10
242.48193098760873
 20
1863.991895225598
 30
0.0
 11
242.37888129262106
 21
1866.9428523919933
 31
0.0
  0
LINE
  5
EF
330
17
100
AcDbEntity
  8
0
100
AcDbLine
 10
242.37888129262106
 20
1866.9428523919933
 30
0.0
 11
242.37888129262106
 21
1866.9428523919933
 31
0.0
  0
LINE
  5
F0
330
17
100
AcDbEntity
  8
0
100
AcDbLine
 10
152.56673373922385
 20
1866.7610988307604
 30
0.0
 11
152.77283312919917
 21
1860.859184497972
 31
0.0
  0
LINE
  5
F1
330
17
100
AcDbEntity
  8
0
100
AcDbLine
 10
152.77283312919917
 20
1860.859184497972
 30
0.0
 11
144.5101530632944
 21
1860.5706453520065
 31
0.0
  0
LINE
  5
F2
330
17
100
AcDbEntity
  8
0
100
AcDbLine
 10
144.3040536733191
 20
1866.4725596847948
 30
0.0
 11
144.3040536733191
 21
1866.4725596847948
 31
0.0
  0
LINE
  5
F3
330
17
100
AcDbEntity
  8
0
100
AcDbLine
 10
263.58805786145746
 20
1360.0908168474193
 30
0.0
 11
263.54996625156406
 21
1360.6167060015268
 31
0.0
  0
LINE
  5
F4
330
17
100
AcDbEntity
  8
0
100
AcDbLine
 10
263.54996625156406
 20
1360.6167060015268
 30
0.0
 11
263.4726814078343
 21
1361.1382780733252
 31
0.0
  0
LINE
  5
F5
330
17
100
AcDbEntity
  8
0
100
AcDbLine
 10
263.4726814078343
 20
1361.1382780733252
 30
0.0
 11
263.35663553846564
 21
1361.6526162202208
 31
0.0
  0
LINE
  5
F6
330
17
100
AcDbEntity
  8
0
100
AcDbLine
 10
263.35663553846564
 20
1361.6526162202208
 30
0.0
 11
263.2024776190309
 21
1362.156844054662
 31
0.0
  0
LINE
  5
F7
330
17
100
AcDbEntity
  8
0
100
AcDbLine
 10
263.2024776190309
 20
1362.156844054662
 30
0.0
 11
263.01106976314964
 21
1362.648141730066
 31
0.0
  0
LINE
  5
F8
330
17
100
AcDbEntity
  8
0
100
AcDbLine
 10
263.01106976314964
 20
1362.648141730066
 30
0.0
 11
262.78348240119135
 21
1363.1237617105423
 31
0.0
  0
LINE
  5
F9
330
17
100
AcDbEntity
  8
0
100
AcDbLine
 10
262.78348240119135
 20
1363.1237617105423
 30
0.0
 11
262.5209882940038
 21
1363.5810441362294
 31
0.0
  0
LINE
  5
FA
330
17
100
AcDbEntity
  8
0
100
AcDbLine
 10
262.5209882940038
 20
1363.5810441362294
 30
0.0
 11
262.225055415112
 21
1364.0174316983132
 31
0.0
  0
LINE
  5
FB
330
17
100
AcDbEntity
  8
0
100
AcDbLine
 10
262.225055415112
 20
1364.0174316983132
 30
0.0
 11
261.89733874121504
 21
1364.4304839405308
 31
0.0
  0
LINE
  5
FC
330
17
100
AcDbEntity
  8
0
100
AcDbLine
 10
261.89733874121504
 20
1364.4304839405308
 30
0.0
 11
261.5396709968908
 21
1364.8178909071937
 31
0.0
  0
LINE
  5
FD
330
17
100
AcDbEntity
  8
0
100
AcDbLine
 10
261.5396709968908
 20
1364.8178909071937
 30
0.0
 11
261.1540524052444
 21
1365.177486061399
 31
0.0
  0
LINE
  5
FE
330
17
100
AcDbEntity
  8
0
100
AcDbLine
 10
261.1540524052444
 20
1365.177486061399
 30
0.0
 11
260.74263950186463
 21
1365.5072584011778
 31
0.0
  0
LINE
  5
FF
330
17
100
AcDbEntity
  8
0
100
AcDbLine
 10
260.74263950186463
 20
1365.5072584011778
 30
0.0
 11
260.30773307459043
 21
1365.8053637058383
 31
0.0
  0
LINE
  5
100
330
17
100
AcDbEntity
  8
0
100
AcDbLine
 10
260.30773307459043
 20
1365.8053637058383
 30
0.0
 11
259.85176529657997
 21
1366.070134849594
 31
0.0
  0
LINE
  5
101
330
17
100
AcDbEntity
  8
0
100
AcDbLine
 10
259.85176529657997
 20
1366.070134849594
 30
0.0
 11
259.37728612460137
 21
1366.3000911248073
 31
0.0
  0
LINE
  5
102
330
17
100
AcDbEntity
  8
0
100
AcDbLine
 10
259.37728612460137
 20
1366.3000911248073
 30
0.0
 11
258.88694903865525
 21
1366.4939465227103
 31
0.0
  0
LINE
  5
103
330
17
100
AcDbEntity
  8
0
100
AcDbLine
 10
258.88694903865525
 20
1366.4939465227103
 30
0.0
 11
258.38349620262323
 21
1366.6506169252812
 31
0.0
  0
LINE
  5
104
330
17
100
AcDbEntity
  8
0
100
AcDbLine
 10
258.38349620262323
 20
1366.6506169252812
 30
0.0
 11
257.869743128983
 21
1366.7692261680772
 31
0.0
  0
LINE
  5
105
330
17
100
AcDbEntity
  8
0
100
AcDbLine
 10
257.869743128983
 20
1366.7692261680772
 30
0.0
 11
257.34856293332285
 21
1366.8491109401011
 31
0.0
  0
LINE
  5
106
330
17
100
AcDbEntity
  8
0
100
AcDbLine
 10
257.34856293332285
 20
1366.8491109401011
 30
0.0
 11
256.8228702667048
 21
1366.8898244933025
 31
0.0
  0
LINE
  5
107
330
17
100
AcDbEntity
  8
0
100
AcDbLine
 10
256.8228702667048
 20
1366.8898244933025
 30
0.0
 11
256.2956050157616
 21
1366.8911391409804
 31
0.0
  0
LINE
  5
108
330
17
100
AcDbEntity
  8
0
100
AcDbLine
 10
256.2956050157616
 20
1366.8911391409804
 30
0.0
 11
255.7697158616557
 21
1366.8530475310845
 31
0.0
  0
LINE
  5
109
330
17
100
AcDbEntity
  8
0
100
AcDbLine
 10
255.7697158616557
 20
1366.8530475310845
 30
0.0
 11
255.24814378985633
 21
1366.7757626873563
 31
0.0
  0
LINE
  5
10A
330
17
100
AcDbEntity
  8
0
100
AcDbLine
 10
255.24814378985633
 20
1366.7757626873563
 30
0.0
 11
254.73380564296062
 21
1366.6597168179874
 31
0.0
  0
LINE
  5
10B
330
17
100
AcDbEntity
  8
0
100
AcDbLine
 10
254.73380564296062
 20
1366.6597168179874
 30
0.0
 11
254.22957780851758
 21
1366.5055588985529
 31
0.0
  0
LINE
  5
10C
330
17
100
AcDbEntity
  8
0
100
AcDbLine
 10
254.22957780851758
 20
1366.5055588985529
 30
0.0
 11
253.73828013311498
 21
1366.3141510426703
 31
0.0
  0
LINE
  5
10D
330
17
100
AcDbEntity
  8
0
100
AcDbLine
 10
253.73828013311498
 20
1366.3141510426703
 30
0.0
 11
253.26266015263903
 21
1366.086563680712
 31
0.0
  0
LINE
  5
10E
330
17
100
AcDbEntity
  8
0
100
AcDbLine
 10
253.26266015263903
 20
1366.086563680712
 30
0.0
 11
252.80537772695172
 21
1365.8240695735255
 31
0.0
  0
LINE
  5
10F
330
17
100
AcDbEntity
  8
0
100
AcDbLine
 10
252.80537772695172
 20
1365.8240695735255
 30
0.0
 11
252.36899016486922
 21
1365.5281366946338
 31
0.0
  0
LINE
  5
110
330
17
100
AcDbEntity
  8
0
100
AcDbLine
 10
252.36899016486922
 20
1365.5281366946338
 30
0.0
 11
251.95593792265018
 21
1365.200420020737
 31
0.0
  0
LINE
  5
111
330
17
100
AcDbEntity
  8
0
100
AcDbLine
 10
251.95593792265018
 20
1365.200420020737
 30
0.0
 11
251.5685309559868
 21
1364.8427522764114
 31
0.0
  0
LINE
  5
112
330
17
100
AcDbEntity
  8
0
100
AcDbLine
 10
251.5685309559868
 20
1364.8427522764114
 30
0.0
 11
251.20893580178245
 21
1364.457133684765
 31
0.0
  0
LINE
  5
113
330
17
100
AcDbEntity
  8
0
100
AcDbLine
 10
251.20893580178245
 20
1364.457133684765
 30
0.0
 11
250.87916346200385
 21
1364.0457207813859
 31
0.0
  0
LINE
  5
114
330
17
100
AcDbEntity
  8
0
100
AcDbLine
 10
250.87916346200385
 20
1364.0457207813859
 30
0.0
 11
250.58105815734405
 21
1363.6108143541123
 31
0.0
  0
LINE
  5
115
330
17
100
AcDbEntity
  8
0
100
AcDbLine
 10
250.58105815734405
 20
1363.6108143541123
 30
0.0
 11
250.31628701358713
 21
1363.1548465761002
 31
0.0
  0
LINE
  5
116
330
17
100
AcDbEntity
  8
0
100
AcDbLine
 10
250.31628701358713
 20
1363.1548465761002
 30
0.0
 11
250.08633073837288
 21
1362.6803674041234
 31
0.0
  0
LINE
  5
117
330
17
100
AcDbEntity
  8
0
100
AcDbLine
 10
250.08633073837288
 20
1362.6803674041234
 30
0.0
 11
249.892475340471
 21
1362.190030318176
 31
0.0
  0
LINE
  5
118
330
17
100
AcDbEntity
  8
0
100
AcDbLine
 10
249.892475340471
 20
1362.190030318176
 30
0.0
 11
249.7358049379005
 21
1361.6865774821435
 31
0.0
  0
LINE
  5
119
330
17
100
AcDbEntity
  8
0
100
AcDbLine
 10
249.7358049379005
 20
1361.6865774821435
 30
0.0
 11
249.6171956951038
 21
1361.1728244085052
 31
0.0
  0
LINE
  5
11A
330
17
100
AcDbEntity
  8
0
100
AcDbLine
 10
249.6171956951038
 20
1361.1728244085052
 30
0.0
 11
249.53731092308004
 21
1360.6516442128448
 31
0.0
  0
LINE
  5
11B
330
17
100
AcDbEntity
  8
0
100
AcDbLine
 10
249.53731092308004
 20
1360.6516442128448
 30
0.0
 11
249.49659736987732
 21
1360.125951546227
 31
0.0
  0
LINE
  5
11C
330
17
100
AcDbEntity
  8
0
100
AcDbLine
 10
249.49659736987732
 20
1360.125951546227
 30
0.0
 11
249.49528272220195
 21
1359.5986862952825
 31
0.0
  0
LINE
  5
11D
330
17
100
AcDbEntity
  8
0
100
AcDbLine
 10
249.49528272220195
 20
1359.5986862952825
 30
0.0
 11
249.53337433209526
 21
1359.072797141178
 31
0.0
  0
LINE
  5
11E
330
17
100
AcDbEntity
  8
0
100
AcDbLine
 10
249.53337433209526
 20
1359.072797141178
 30
0.0
 11
249.6106591758251
 21
1358.551225069378
 31
0.0
  0
LINE
  5
11F
330
17
100
AcDbEntity
  8
0
100
AcDbLine
 10
249.6106591758251
 20
1358.551225069378
 30
0.0
 11
249.7267050451937
 21
1358.0368869224824
 31
0.0
  0
LINE
  5
120
330
17
100
AcDbEntity
  8
0
100
AcDbLine
 10
249.7267050451937
 20
1358.0368869224824
 30
0.0
 11
249.88086296462853
 21
1357.5326590880395
 31
0.0
  0
LINE
  5
121
330
17
100
AcDbEntity
  8
0
100
AcDbLine
 10
249.88086296462853
 20
1357.5326590880395
 30
0.0
 11
250.07227082051068
 21
1357.0413614126371
 31
0.0
  0
LINE
  5
122
330
17
100
AcDbEntity
  8
0
100
AcDbLine
 10
250.07227082051068
 20
1357.0413614126371
 30
0.0
 11
250.29985818246809
 21
1356.5657414321595
 31
0.0
  0
LINE
  5
123
330
17
100
AcDbEntity
  8
0
100
AcDbLine
 10
250.29985818246809
 20
1356.5657414321595
 30
0.0
 11
250.56235228965562
 21
1356.1084590064725
 31
0.0
  0
LINE
  5
124
330
17
100
AcDbEntity
  8
0
100
AcDbLine
 10
250.56235228965562
 20
1356.1084590064725
 30
0.0
 11
250.85828516854875
 21
1355.6720714443886
 31
0.0
  0
LINE
  5
125
330
17
100
AcDbEntity
  8
0
100
AcDbLine
 10
250.85828516854875
 20
1355.6720714443886
 30
0.0
 11
251.18600184244437
 21
1355.259019202172
 31
0.0
  0
LINE
  5
126
330
17
100
AcDbEntity
  8
0
100
AcDbLine
 10
251.18600184244437
 20
1355.259019202172
 30
0.0
 11
251.54366958677014
 21
1354.8716122355086
 31
0.0
  0
LINE
  5
127
330
17
100
AcDbEntity
  8
0
100
AcDbLine
 10
251.54366958677014
 20
1354.8716122355086
 30
0.0
 11
251.92928817841545
 21
1354.5120170813032
 31
0.0
  0
LINE
  5
128
330
17
100
AcDbEntity
  8
0
100
AcDbLine
 10
251.92928817841545
 20
1354.5120170813032
 30
0.0
 11
252.34070108179526
 21
1354.1822447415243
 31
0.0
  0
LINE
  5
129
330
17
100
AcDbEntity
  8
0
100
AcDbLine
 10
252.34070108179526
 20
1354.1822447415243
 30
0.0
 11
252.77560750907028
 21
1353.8841394368658
 31
0.0
  0
LINE
  5
12A
330
17
100
AcDbEntity
  8
0
100
AcDbLine
 10
252.77560750907028
 20
1353.8841394368658
 30
0.0
 11
253.23157528708077
 21
1353.6193682931093
 31
0.0
  0
LINE
  5
12B
330
17
100
AcDbEntity
  8
0
100
AcDbLine
 10
253.23157528708077
 20
1353.6193682931093
 30
0.0
 11
253.70605445905804
 21
1353.3894120178948
 31
0.0
  0
LINE
  5
12C
330
17
100
AcDbEntity
  8
0
100
AcDbLine
 10
253.70605445905804
 20
1353.3894120178948
 30
0.0
 11
254.19639154500504
 21
1353.195556619993
 31
0.0
  0
LINE
  5
12D
330
17
100
AcDbEntity
  8
0
100
AcDbLine
 10
254.19639154500504
 20
1353.195556619993
 30
0.0
 11
254.69984438103617
 21
1353.0388862174223
 31
0.0
  0
LINE
  5
12E
330
17
100
AcDbEntity
  8
0
100
AcDbLine
 10
254.69984438103617
 20
1353.0388862174223
 30
0.0
 11
255.2135974546764
 21
1352.9202769746248
 31
0.0
  0
LINE
  5
12F
330
17
100
AcDbEntity
  8
0
100
AcDbLine
 10
255.2135974546764
 20
1352.9202769746248
 30
0.0
 11
255.73477765033653
 21
1352.8403922026018
 31
0.0
  0
LINE
  5
130
330
17
100
AcDbEntity
  8
0
100
AcDbLine
 10
255.73477765033653
 20
1352.8403922026018
 30
0.0
 11
256.26047031695555
 21
1352.7996786493995
 31
0.0
  0
LINE
  5
131
330
17
100
AcDbEntity
  8
0
100
AcDbLine
 10
256.26047031695555
 20
1352.7996786493995
 30
0.0
 11
256.7877355678986
 21
1352.7983640017242
 31
0.0
  0
LINE
  5
132
330
17
100
AcDbEntity
  8
0
100
AcDbLine
 10
256.7877355678986
 20
1352.7983640017242
 30
0.0
 11
257.31362472200465
 21
1352.8364556116176
 31
0.0
  0
LINE
  5
133
330
17
100
AcDbEntity
  8
0
100
AcDbLine
 10
257.31362472200465
 20
1352.8364556116176
 30
0.0
 11
257.83519679380305
 21
1352.9137404553467
 31
0.0
  0
LINE
  5
134
330
17
100
AcDbEntity
  8
0
100
AcDbLine
 10
257.83519679380305
 20
1352.9137404553467
 30
0.0
 11
258.3495349406988
 21
1353.0297863247147
 31
0.0
  0
LINE
  5
135
330
17
100
AcDbEntity
  8
0
100
AcDbLine
 10
258.3495349406988
 20
1353.0297863247147
 30
0.0
 11
258.8537627751418
 21
1353.1839442441503
 31
0.0
  0
LINE
  5
136
330
17
100
AcDbEntity
  8
0
100
AcDbLine
 10
258.8537627751418
 20
1353.1839442441503
 30
0.0
 11
259.3450604505453
 21
1353.375352100033
 31
0.0
  0
LINE
  5
137
330
17
100
AcDbEntity
  8
0
100
AcDbLine
 10
259.3450604505453
 20
1353.375352100033
 30
0.0
 11
259.8206804310204
 21
1353.6029394619898
 31
0.0
  0
LINE
  5
138
330
17
100
AcDbEntity
  8
0
100
AcDbLine
 10
259.8206804310204
 20
1353.6029394619898
 30
0.0
 11
260.277962856709
 21
1353.8654335691779
 31
0.0
  0
LINE
  5
139
330
17
100
AcDbEntity
  8
0
100
AcDbLine
 10
260.277962856709
 20
1353.8654335691779
 30
0.0
 11
260.71435041879147
 21
1354.1613664480706
 31
0.0
  0
LINE
  5
13A
330
17
100
AcDbEntity
  8
0
100
AcDbLine
 10
260.71435041879147
 20
1354.1613664480706
 30
0.0
 11
261.1274026610097
 21
1354.4890831219648
 31
0.0
  0
LINE
  5
13B
330
17
100
AcDbEntity
  8
0
100
AcDbLine
 10
261.1274026610097
 20
1354.4890831219648
 30
0.0
 11
261.51480962767306
 21
1354.846750866291
 31
0.0
  0
LINE
  5
13C
330
17
100
AcDbEntity
  8
0
100
AcDbLine
 10
261.51480962767306
 20
1354.846750866291
 30
0.0
 11
261.87440478187847
 21
1355.2323694579372
 31
0.0
  0
LINE
  5
13D
330
17
100
AcDbEntity
  8
0
100
AcDbLine
 10
261.87440478187847
 20
1355.2323694579372
 30
0.0
 11
262.2041771216555
 21
1355.6437823613173
 31
0.0
  0
LINE
  5
13E
330
17
100
AcDbEntity
  8
0
100
AcDbLine
 10
262.2041771216555
 20
1355.6437823613173
 30
0.0
 11
262.50228242631675
 21
1356.0786887885897
 31
0.0
  0
LINE
  5
13F
330
17
100
AcDbEntity
  8
0
100
AcDbLine
 10
262.50228242631675
 20
1356.0786887885897
 30
0.0
 11
262.7670535700723
 21
1356.5346565666016
 31
0.0
  0
LINE
  5
140
330
17
100
AcDbEntity
  8
0
100
AcDbLine
 10
262.7670535700723
 20
1356.5346565666016
 30
0.0
 11
262.9970098452865
 21
1357.0091357385784
 31
0.0
  0
LINE
  5
141
330
17
100
AcDbEntity
  8
0
100
AcDbLine
 10
262.9970098452865
 20
1357.0091357385784
 30
0.0
 11
263.19086524318925
 21
1357.4994728245274
 31
0.0
  0
LINE
  5
142
330
17
100
AcDbEntity
  8
0
100
AcDbLine
 10
263.19086524318925
 20
1357.4994728245274
 30
0.0
 11
263.3475356457589
 21
1358.002925660558
 31
0.0
  0
LINE
  5
143
330
17
100
AcDbEntity
  8
0
100
AcDbLine
 10
263.3475356457589
 20
1358.002925660558
 30
0.0
 11
263.4661448885556
 21
1358.516678734198
 31
0.0
  0
LINE
  5
144
330
17
100
AcDbEntity
  8
0
100
AcDbLine
 10
263.4661448885556
 20
1358.516678734198
 30
0.0
 11
263.54602966057934
 21
1359.0378589298584
 31
0.0
  0
LINE
  5
145
330
17
100
AcDbEntity
  8
0
100
AcDbLine
 10
263.54602966057934
 20
1359.0378589298584
 30
0.0
 11
263.58674321378203
 21
1359.5635515964777
 31
0.0
  0
LINE
  5
146
330
17
100
AcDbEntity
  8
0
100
AcDbLine
 10
263.58674321378203
 20
1359.5635515964777
 30
0.0
 11
263.58805786145746
 21
1360.0908168474193
 31
0.0
  0
LINE
  5
147
330
17
100
AcDbEntity
  8
0
100
AcDbLine
 10
97.77232181039739
 20
1708.8470926754553
 30
0.0
 11
97.73423020050403
 21
1709.3729818295612
 31
0.0
  0
LINE
  5
148
330
17
100
AcDbEntity
  8
0
100
AcDbLine
 10
97.73423020050403
 20
1709.3729818295612
 30
0.0
 11
97.65694535677464
 21
1709.8945539013607
 31
0.0
  0
LINE
  5
149
330
17
100
AcDbEntity
  8
0
100
AcDbLine
 10
97.65694535677464
 20
1709.8945539013607
 30
0.0
 11
97.5408994874058
 21
1710.4088920482568
 31
0.0
  0
LINE
  5
14A
330
17
100
AcDbEntity
  8
0
100
AcDbLine
 10
97.5408994874058
 20
1710.4088920482568
 30
0.0
 11
97.38674156797124
 21
1710.913119882698
 31
0.0
  0
LINE
  5
14B
330
17
100
AcDbEntity
  8
0
100
AcDbLine
 10
97.38674156797124
 20
1710.913119882698
 30
0.0
 11
97.19533371208998
 21
1711.404417558102
 31
0.0
  0
LINE
  5
14C
330
17
100
AcDbEntity
  8
0
100
AcDbLine
 10
97.19533371208998
 20
1711.404417558102
 30
0.0
 11
96.96774635013125
 21
1711.880037538578
 31
0.0
  0
LINE
  5
14D
330
17
100
AcDbEntity
  8
0
100
AcDbLine
 10
96.96774635013125
 20
1711.880037538578
 30
0.0
 11
96.70525224294461
 21
1712.3373199642654
 31
0.0
  0
LINE
  5
14E
330
17
100
AcDbEntity
  8
0
100
AcDbLine
 10
96.70525224294461
 20
1712.3373199642654
 30
0.0
 11
96.40931936405217
 21
1712.773707526349
 31
0.0
  0
LINE
  5
14F
330
17
100
AcDbEntity
  8
0
100
AcDbLine
 10
96.40931936405217
 20
1712.773707526349
 30
0.0
 11
96.08160269015538
 21
1713.1867597685668
 31
0.0
  0
LINE
  5
150
330
17
100
AcDbEntity
  8
0
100
AcDbLine
 10
96.08160269015538
 20
1713.1867597685668
 30
0.0
 11
95.72393494583034
 21
1713.5741667352297
 31
0.0
  0
LINE
  5
151
330
17
100
AcDbEntity
  8
0
100
AcDbLine
 10
95.72393494583034
 20
1713.5741667352297
 30
0.0
 11
95.33831635418409
 21
1713.9337618894347
 31
0.0
  0
LINE
  5
152
330
17
100
AcDbEntity
  8
0
100
AcDbLine
 10
95.33831635418409
 20
1713.9337618894347
 30
0.0
 11
94.9269034508043
 21
1714.2635342292133
 31
0.0
  0
LINE
  5
153
330
17
100
AcDbEntity
  8
0
100
AcDbLine
 10
94.9269034508043
 20
1714.2635342292133
 30
0.0
 11
94.49199702353035
 21
1714.561639533874
 31
0.0
  0
LINE
  5
154
330
17
100
AcDbEntity
  8
0
100
AcDbLine
 10
94.49199702353035
 20
1714.561639533874
 30
0.0
 11
94.03602924551873
 21
1714.8264106776296
 31
0.0
  0
LINE
  5
155
330
17
100
AcDbEntity
  8
0
100
AcDbLine
 10
94.03602924551873
 20
1714.8264106776296
 30
0.0
 11
93.56155007354153
 21
1715.0563669528428
 31
0.0
  0
LINE
  5
156
330
17
100
AcDbEntity
  8
0
100
AcDbLine
 10
93.56155007354153
 20
1715.0563669528428
 30
0.0
 11
93.07121298759562
 21
1715.2502223507458
 31
0.0
  0
LINE
  5
157
330
17
100
AcDbEntity
  8
0
100
AcDbLine
 10
93.07121298759562
 20
1715.2502223507458
 30
0.0
 11
92.56776015156335
 21
1715.4068927533167
 31
0.0
  0
LINE
  5
158
330
17
100
AcDbEntity
  8
0
100
AcDbLine
 10
92.56776015156335
 20
1715.4068927533167
 30
0.0
 11
92.05400707792336
 21
1715.5255019961132
 31
0.0
  0
LINE
  5
159
330
17
100
AcDbEntity
  8
0
100
AcDbLine
 10
92.05400707792336
 20
1715.5255019961132
 30
0.0
 11
91.53282688226298
 21
1715.6053867681374
 31
0.0
  0
LINE
  5
15A
330
17
100
AcDbEntity
  8
0
100
AcDbLine
 10
91.53282688226298
 20
1715.6053867681374
 30
0.0
 11
91.00713421564517
 21
1715.646100321338
 31
0.0
  0
LINE
  5
15B
330
17
100
AcDbEntity
  8
0
100
AcDbLine
 10
91.00713421564517
 20
1715.646100321338
 30
0.0
 11
90.47986896470181
 21
1715.647414969015
 31
0.0
  0
LINE
  5
15C
330
17
100
AcDbEntity
  8
0
100
AcDbLine
 10
90.47986896470181
 20
1715.647414969015
 30
0.0
 11
89.95397981059607
 21
1715.60932335912
 31
0.0
  0
LINE
  5
15D
330
17
100
AcDbEntity
  8
0
100
AcDbLine
 10
89.95397981059607
 20
1715.60932335912
 30
0.0
 11
89.43240773879646
 21
1715.5320385153923
 31
0.0
  0
LINE
  5
15E
330
17
100
AcDbEntity
  8
0
100
AcDbLine
 10
89.43240773879646
 20
1715.5320385153923
 30
0.0
 11
88.91806959190052
 21
1715.4159926460234
 31
0.0
  0
LINE
  5
15F
330
17
100
AcDbEntity
  8
0
100
AcDbLine
 10
88.91806959190052
 20
1715.4159926460234
 30
0.0
 11
88.41384175745794
 21
1715.2618347265889
 31
0.0
  0
LINE
  5
160
330
17
100
AcDbEntity
  8
0
100
AcDbLine
 10
88.41384175745794
 20
1715.2618347265889
 30
0.0
 11
87.92254408205422
 21
1715.0704268707061
 31
0.0
  0
LINE
  5
161
330
17
100
AcDbEntity
  8
0
100
AcDbLine
 10
87.92254408205422
 20
1715.0704268707061
 30
0.0
 11
87.44692410157916
 21
1714.8428395087478
 31
0.0
  0
LINE
  5
162
330
17
100
AcDbEntity
  8
0
100
AcDbLine
 10
87.44692410157916
 20
1714.8428395087478
 30
0.0
 11
86.98964167589187
 21
1714.5803454015613
 31
0.0
  0
LINE
  5
163
330
17
100
AcDbEntity
  8
0
100
AcDbLine
 10
86.98964167589187
 20
1714.5803454015613
 30
0.0
 11
86.55325411380822
 21
1714.2844125226693
 31
0.0
  0
LINE
  5
164
330
17
100
AcDbEntity
  8
0
100
AcDbLine
 10
86.55325411380822
 20
1714.2844125226693
 30
0.0
 11
86.14020187159124
 21
1713.956695848773
 31
0.0
  0
LINE
  5
165
330
17
100
AcDbEntity
  8
0
100
AcDbLine
 10
86.14020187159124
 20
1713.956695848773
 30
0.0
 11
85.75279490492647
 21
1713.599028104447
 31
0.0
  0
LINE
  5
166
330
17
100
AcDbEntity
  8
0
100
AcDbLine
 10
85.75279490492647
 20
1713.599028104447
 30
0.0
 11
85.39319975072246
 21
1713.213409512801
 31
0.0
  0
LINE
  5
167
330
17
100
AcDbEntity
  8
0
100
AcDbLine
 10
85.39319975072246
 20
1713.213409512801
 30
0.0
 11
85.06342741094376
 21
1712.801996609422
 31
0.0
  0
LINE
  5
168
330
17
100
AcDbEntity
  8
0
100
AcDbLine
 10
85.06342741094376
 20
1712.801996609422
 30
0.0
 11
84.76532210628419
 21
1712.3670901821479
 31
0.0
  0
LINE
  5
169
330
17
100
AcDbEntity
  8
0
100
AcDbLine
 10
84.76532210628419
 20
1712.3670901821479
 30
0.0
 11
84.5005509625275
 21
1711.9111224041362
 31
0.0
  0
LINE
  5
16A
330
17
100
AcDbEntity
  8
0
100
AcDbLine
 10
84.5005509625275
 20
1711.9111224041362
 30
0.0
 11
84.27059468731304
 21
1711.436643232159
 31
0.0
  0
LINE
  5
16B
330
17
100
AcDbEntity
  8
0
100
AcDbLine
 10
84.27059468731304
 20
1711.436643232159
 30
0.0
 11
84.07673928941138
 21
1710.946306146212
 31
0.0
  0
LINE
  5
16C
330
17
100
AcDbEntity
  8
0
100
AcDbLine
 10
84.07673928941138
 20
1710.946306146212
 30
0.0
 11
83.92006888684041
 21
1710.4428533101795
 31
0.0
  0
LINE
  5
16D
330
17
100
AcDbEntity
  8
0
100
AcDbLine
 10
83.92006888684041
 20
1710.4428533101795
 30
0.0
 11
83.80145964404528
 21
1709.929100236541
 31
0.0
  0
LINE
  5
16E
330
17
100
AcDbEntity
  8
0
100
AcDbLine
 10
83.80145964404528
 20
1709.929100236541
 30
0.0
 11
83.72157487202018
 21
1709.4079200408805
 31
0.0
  0
LINE
  5
16F
330
17
100
AcDbEntity
  8
0
100
AcDbLine
 10
83.72157487202018
 20
1709.4079200408805
 30
0.0
 11
83.68086131881772
 21
1708.8822273742614
 31
0.0
  0
LINE
  5
170
330
17
100
AcDbEntity
  8
0
100
AcDbLine
 10
83.68086131881772
 20
1708.8822273742614
 30
0.0
 11
83.6795466711423
 21
1708.3549621233183
 31
0.0
  0
LINE
  5
171
330
17
100
AcDbEntity
  8
0
100
AcDbLine
 10
83.6795466711423
 20
1708.3549621233183
 30
0.0
 11
83.71763828103566
 21
1707.8290729692121
 31
0.0
  0
LINE
  5
172
330
17
100
AcDbEntity
  8
0
100
AcDbLine
 10
83.71763828103566
 20
1707.8290729692121
 30
0.0
 11
83.79492312476525
 21
1707.3075008974138
 31
0.0
  0
LINE
  5
173
330
17
100
AcDbEntity
  8
0
100
AcDbLine
 10
83.79492312476525
 20
1707.3075008974138
 30
0.0
 11
83.91096899413522
 21
1706.7931627505181
 31
0.0
  0
LINE
  5
174
330
17
100
AcDbEntity
  8
0
100
AcDbLine
 10
83.91096899413522
 20
1706.7931627505181
 30
0.0
 11
84.06512691356845
 21
1706.2889349160755
 31
0.0
  0
LINE
  5
175
330
17
100
AcDbEntity
  8
0
100
AcDbLine
 10
84.06512691356845
 20
1706.2889349160755
 30
0.0
 11
84.25653476945104
 21
1705.7976372406729
 31
0.0
  0
LINE
  5
176
330
17
100
AcDbEntity
  8
0
100
AcDbLine
 10
84.25653476945104
 20
1705.7976372406729
 30
0.0
 11
84.48412213140823
 21
1705.3220172601955
 31
0.0
  0
LINE
  5
177
330
17
100
AcDbEntity
  8
0
100
AcDbLine
 10
84.48412213140823
 20
1705.3220172601955
 30
0.0
 11
84.74661623859599
 21
1704.8647348345082
 31
0.0
  0
LINE
  5
178
330
17
100
AcDbEntity
  8
0
100
AcDbLine
 10
84.74661623859599
 20
1704.8647348345082
 30
0.0
 11
85.04254911748889
 21
1704.4283472724244
 31
0.0
  0
LINE
  5
179
330
17
100
AcDbEntity
  8
0
100
AcDbLine
 10
85.04254911748889
 20
1704.4283472724244
 30
0.0
 11
85.37026579138427
 21
1704.0152950302079
 31
0.0
  0
LINE
  5
17A
330
17
100
AcDbEntity
  8
0
100
AcDbLine
 10
85.37026579138427
 20
1704.0152950302079
 30
0.0
 11
85.72793353571014
 21
1703.6278880635446
 31
0.0
  0
LINE
  5
17B
330
17
100
AcDbEntity
  8
0
100
AcDbLine
 10
85.72793353571014
 20
1703.6278880635446
 30
0.0
 11
86.11355212735513
 21
1703.2682929093392
 31
0.0
  0
LINE
  5
17C
330
17
100
AcDbEntity
  8
0
100
AcDbLine
 10
86.11355212735513
 20
1703.2682929093392
 30
0.0
 11
86.5249650307363
 21
1702.9385205695603
 31
0.0
  0
LINE
  5
17D
330
17
100
AcDbEntity
  8
0
100
AcDbLine
 10
86.5249650307363
 20
1702.9385205695603
 30
0.0
 11
86.95987145800927
 21
1702.6404152649018
 31
0.0
  0
LINE
  5
17E
330
17
100
AcDbEntity
  8
0
100
AcDbLine
 10
86.95987145800927
 20
1702.6404152649018
 30
0.0
 11
87.41583923602093
 21
1702.3756441211451
 31
0.0
  0
LINE
  5
17F
330
17
100
AcDbEntity
  8
0
100
AcDbLine
 10
87.41583923602093
 20
1702.3756441211451
 30
0.0
 11
87.89031840799817
 21
1702.1456878459303
 31
0.0
  0
LINE
  5
180
330
17
100
AcDbEntity
  8
0
100
AcDbLine
 10
87.89031840799817
 20
1702.1456878459303
 30
0.0
 11
88.38065549394426
 21
1701.9518324480289
 31
0.0
  0
LINE
  5
181
330
17
100
AcDbEntity
  8
0
100
AcDbLine
 10
88.38065549394426
 20
1701.9518324480289
 30
0.0
 11
88.88410832997653
 21
1701.795162045458
 31
0.0
  0
LINE
  5
182
330
17
100
AcDbEntity
  8
0
100
AcDbLine
 10
88.88410832997653
 20
1701.795162045458
 30
0.0
 11
89.39786140361632
 21
1701.6765528026608
 31
0.0
  0
LINE
  5
183
330
17
100
AcDbEntity
  8
0
100
AcDbLine
 10
89.39786140361632
 20
1701.6765528026608
 30
0.0
 11
89.91904159927668
 21
1701.5966680306374
 31
0.0
  0
LINE
  5
184
330
17
100
AcDbEntity
  8
0
100
AcDbLine
 10
89.91904159927668
 20
1701.5966680306374
 30
0.0
 11
90.44473426589585
 21
1701.5559544774367
 31
0.0
  0
LINE
  5
185
330
17
100
AcDbEntity
  8
0
100
AcDbLine
 10
90.44473426589585
 20
1701.5559544774367
 30
0.0
 11
90.97199951683876
 21
1701.5546398297597
 31
0.0
  0
LINE
  5
186
330
17
100
AcDbEntity
  8
0
100
AcDbLine
 10
90.97199951683876
 20
1701.5546398297597
 30
0.0
 11
91.49788867094495
 21
1701.5927314396547
 31
0.0
  0
LINE
  5
187
330
17
100
AcDbEntity
  8
0
100
AcDbLine
 10
91.49788867094495
 20
1701.5927314396547
 30
0.0
 11
92.0194607427432
 21
1701.6700162833827
 31
0.0
  0
LINE
  5
188
330
17
100
AcDbEntity
  8
0
100
AcDbLine
 10
92.0194607427432
 20
1701.6700162833827
 30
0.0
 11
92.53379888963916
 21
1701.7860621527507
 31
0.0
  0
LINE
  5
189
330
17
100
AcDbEntity
  8
0
100
AcDbLine
 10
92.53379888963916
 20
1701.7860621527507
 30
0.0
 11
93.03802672408193
 21
1701.940220072186
 31
0.0
  0
LINE
  5
18A
330
17
100
AcDbEntity
  8
0
100
AcDbLine
 10
93.03802672408193
 20
1701.940220072186
 30
0.0
 11
93.52932439948566
 21
1702.1316279280686
 31
0.0
  0
LINE
  5
18B
330
17
100
AcDbEntity
  8
0
100
AcDbLine
 10
93.52932439948566
 20
1702.1316279280686
 30
0.0
 11
94.00494437996053
 21
1702.3592152900255
 31
0.0
  0
LINE
  5
18C
330
17
100
AcDbEntity
  8
0
100
AcDbLine
 10
94.00494437996053
 20
1702.3592152900255
 30
0.0
 11
94.46222680564779
 21
1702.6217093972136
 31
0.0
  0
LINE
  5
18D
330
17
100
AcDbEntity
  8
0
100
AcDbLine
 10
94.46222680564779
 20
1702.6217093972136
 30
0.0
 11
94.8986143677314
 21
1702.9176422761066
 31
0.0
  0
LINE
  5
18E
330
17
100
AcDbEntity
  8
0
100
AcDbLine
 10
94.8986143677314
 20
1702.9176422761066
 30
0.0
 11
95.31166660994936
 21
1703.2453589500008
 31
0.0
  0
LINE
  5
18F
330
17
100
AcDbEntity
  8
0
100
AcDbLine
 10
95.31166660994936
 20
1703.2453589500008
 30
0.0
 11
95.69907357661275
 21
1703.603026694327
 31
0.0
  0
LINE
  5
190
330
17
100
AcDbEntity
  8
0
100
AcDbLine
 10
95.69907357661275
 20
1703.603026694327
 30
0.0
 11
96.05866873081801
 21
1703.9886452859732
 31
0.0
  0
LINE
  5
191
330
17
100
AcDbEntity
  8
0
100
AcDbLine
 10
96.05866873081801
 20
1703.9886452859732
 30
0.0
 11
96.38844107059589
 21
1704.4000581893529
 31
0.0
  0
LINE
  5
192
330
17
100
AcDbEntity
  8
0
100
AcDbLine
 10
96.38844107059589
 20
1704.4000581893529
 30
0.0
 11
96.68654637525687
 21
1704.8349646166255
 31
0.0
  0
LINE
  5
193
330
17
100
AcDbEntity
  8
0
100
AcDbLine
 10
96.68654637525687
 20
1704.8349646166255
 30
0.0
 11
96.9513175190131
 21
1705.2909323946374
 31
0.0
  0
LINE
  5
194
330
17
100
AcDbEntity
  8
0
100
AcDbLine
 10
96.9513175190131
 20
1705.2909323946374
 30
0.0
 11
97.18127379422644
 21
1705.7654115666144
 31
0.0
  0
LINE
  5
195
330
17
100
AcDbEntity
  8
0
100
AcDbLine
 10
97.18127379422644
 20
1705.7654115666144
 30
0.0
 11
97.37512919212963
 21
1706.255748652563
 31
0.0
  0
LINE
  5
196
330
17
100
AcDbEntity
  8
0
100
AcDbLine
 10
97.37512919212963
 20
1706.255748652563
 30
0.0
 11
97.53179959469928
 21
1706.759201488594
 31
0.0
  0
LINE
  5
197
330
17
100
AcDbEntity
  8
0
100
AcDbLine
 10
97.53179959469928
 20
1706.759201488594
 30
0.0
 11
97.65040883749573
 21
1707.2729545622337
 31
0.0
  0
LINE
  5
198
330
17
100
AcDbEntity
  8
0
100
AcDbLine
 10
97.65040883749573
 20
1707.2729545622337
 30
0.0
 11
97.7302936095197
 21
1707.794134757894
 31
0.0
  0
LINE
  5
199
330
17
100
AcDbEntity
  8
0
100
AcDbLine
 10
97.7302936095197
 20
1707.794134757894
 30
0.0
 11
97.77100716272197
 21
1708.319827424512
 31
0.0
  0
LINE
  5
19A
330
17
100
AcDbEntity
  8
0
100
AcDbLine
 10
97.77100716272197
 20
1708.319827424512
 30
0.0
 11
97.77232181039739
 21
1708.8470926754553
 31
0.0
  0
LINE
  5
19B
330
17
100
AcDbEntity
  8
0
100
AcDbLine
 10
1159.9746376843327
 20
768.5729757657134
 30
0.0
 11
1159.9365460744395
 21
769.0988649198191
 31
0.0
  0
LINE
  5
19C
330
17
100
AcDbEntity
  8
0
100
AcDbLine
 10
1159.9365460744395
 20
769.0988649198191
 30
0.0
 11
1159.8592612307102
 21
769.6204369916177
 31
0.0
  0
LINE
  5
19D
330
17
100
AcDbEntity
  8
0
100
AcDbLine
 10
1159.8592612307102
 20
769.6204369916177
 30
0.0
 11
1159.7432153613418
 21
770.1347751385147
 31
0.0
  0
LINE
  5
19E
330
17
100
AcDbEntity
  8
0
100
AcDbLine
 10
1159.7432153613418
 20
770.1347751385147
 30
0.0
 11
1159.589057441908
 21
770.6390029729573
 31
0.0
  0
LINE
  5
19F
330
17
100
AcDbEntity
  8
0
100
AcDbLine
 10
1159.589057441908
 20
770.6390029729573
 30
0.0
 11
1159.397649586025
 21
771.1303006483599
 31
0.0
  0
LINE
  5
1A0
330
17
100
AcDbEntity
  8
0
100
AcDbLine
 10
1159.397649586025
 20
771.1303006483599
 30
0.0
 11
1159.1700622240667
 21
771.6059206288361
 31
0.0
  0
LINE
  5
1A1
330
17
100
AcDbEntity
  8
0
100
AcDbLine
 10
1159.1700622240667
 20
771.6059206288361
 30
0.0
 11
1158.907568116879
 21
772.063203054523
 31
0.0
  0
LINE
  5
1A2
330
17
100
AcDbEntity
  8
0
100
AcDbLine
 10
1158.907568116879
 20
772.063203054523
 30
0.0
 11
1158.6116352379872
 21
772.4995906166071
 31
0.0
  0
LINE
  5
1A3
330
17
100
AcDbEntity
  8
0
100
AcDbLine
 10
1158.6116352379872
 20
772.4995906166071
 30
0.0
 11
1158.2839185640921
 21
772.912642858824
 31
0.0
  0
LINE
  5
1A4
330
17
100
AcDbEntity
  8
0
100
AcDbLine
 10
1158.2839185640921
 20
772.912642858824
 30
0.0
 11
1157.926250819766
 21
773.3000498254883
 31
0.0
  0
LINE
  5
1A5
330
17
100
AcDbEntity
  8
0
100
AcDbLine
 10
1157.926250819766
 20
773.3000498254883
 30
0.0
 11
1157.5406322281196
 21
773.6596449796928
 31
0.0
  0
LINE
  5
1A6
330
17
100
AcDbEntity
  8
0
100
AcDbLine
 10
1157.5406322281196
 20
773.6596449796928
 30
0.0
 11
1157.12921932474
 21
773.9894173194715
 31
0.0
  0
LINE
  5
1A7
330
17
100
AcDbEntity
  8
0
100
AcDbLine
 10
1157.12921932474
 20
773.9894173194715
 30
0.0
 11
1156.6943128974656
 21
774.2875226241321
 31
0.0
  0
LINE
  5
1A8
330
17
100
AcDbEntity
  8
0
100
AcDbLine
 10
1156.6943128974656
 20
774.2875226241321
 30
0.0
 11
1156.2383451194553
 21
774.5522937678865
 31
0.0
  0
LINE
  5
1A9
330
17
100
AcDbEntity
  8
0
100
AcDbLine
 10
1156.2383451194553
 20
774.5522937678865
 30
0.0
 11
1155.7638659474785
 21
774.782250043101
 31
0.0
  0
LINE
  5
1AA
330
17
100
AcDbEntity
  8
0
100
AcDbLine
 10
1155.7638659474785
 20
774.782250043101
 30
0.0
 11
1155.2735288615308
 21
774.9761054410037
 31
0.0
  0
LINE
  5
1AB
330
17
100
AcDbEntity
  8
0
100
AcDbLine
 10
1155.2735288615308
 20
774.9761054410037
 30
0.0
 11
1154.770076025498
 21
775.1327758435747
 31
0.0
  0
LINE
  5
1AC
330
17
100
AcDbEntity
  8
0
100
AcDbLine
 10
1154.770076025498
 20
775.1327758435747
 30
0.0
 11
1154.2563229518603
 21
775.2513850863713
 31
0.0
  0
LINE
  5
1AD
330
17
100
AcDbEntity
  8
0
100
AcDbLine
 10
1154.2563229518603
 20
775.2513850863713
 30
0.0
 11
1153.7351427561987
 21
775.331269858395
 31
0.0
  0
LINE
  5
1AE
330
17
100
AcDbEntity
  8
0
100
AcDbLine
 10
1153.7351427561987
 20
775.331269858395
 30
0.0
 11
1153.2094500895805
 21
775.3719834115975
 31
0.0
  0
LINE
  5
1AF
330
17
100
AcDbEntity
  8
0
100
AcDbLine
 10
1153.2094500895805
 20
775.3719834115975
 30
0.0
 11
1152.6821848386376
 21
775.3732980592729
 31
0.0
  0
LINE
  5
1B0
330
17
100
AcDbEntity
  8
0
100
AcDbLine
 10
1152.6821848386376
 20
775.3732980592729
 30
0.0
 11
1152.1562956845314
 21
775.3352064493795
 31
0.0
  0
LINE
  5
1B1
330
17
100
AcDbEntity
  8
0
100
AcDbLine
 10
1152.1562956845314
 20
775.3352064493795
 30
0.0
 11
1151.6347236127328
 21
775.2579216056502
 31
0.0
  0
LINE
  5
1B2
330
17
100
AcDbEntity
  8
0
100
AcDbLine
 10
1151.6347236127328
 20
775.2579216056502
 30
0.0
 11
1151.1203854658359
 21
775.1418757362815
 31
0.0
  0
LINE
  5
1B3
330
17
100
AcDbEntity
  8
0
100
AcDbLine
 10
1151.1203854658359
 20
775.1418757362815
 30
0.0
 11
1150.6161576313932
 21
774.9877178168466
 31
0.0
  0
LINE
  5
1B4
330
17
100
AcDbEntity
  8
0
100
AcDbLine
 10
1150.6161576313932
 20
774.9877178168466
 30
0.0
 11
1150.1248599559906
 21
774.7963099609642
 31
0.0
  0
LINE
  5
1B5
330
17
100
AcDbEntity
  8
0
100
AcDbLine
 10
1150.1248599559906
 20
774.7963099609642
 30
0.0
 11
1149.6492399755145
 21
774.5687225990058
 31
0.0
  0
LINE
  5
1B6
330
17
100
AcDbEntity
  8
0
100
AcDbLine
 10
1149.6492399755145
 20
774.5687225990058
 30
0.0
 11
1149.1919575498275
 21
774.3062284918182
 31
0.0
  0
LINE
  5
1B7
330
17
100
AcDbEntity
  8
0
100
AcDbLine
 10
1149.1919575498275
 20
774.3062284918182
 30
0.0
 11
1148.7555699877435
 21
774.0102956129275
 31
0.0
  0
LINE
  5
1B8
330
17
100
AcDbEntity
  8
0
100
AcDbLine
 10
1148.7555699877435
 20
774.0102956129275
 30
0.0
 11
1148.342517745527
 21
773.6825789390308
 31
0.0
  0
LINE
  5
1B9
330
17
100
AcDbEntity
  8
0
100
AcDbLine
 10
1148.342517745527
 20
773.6825789390308
 30
0.0
 11
1147.955110778863
 21
773.324911194705
 31
0.0
  0
LINE
  5
1BA
330
17
100
AcDbEntity
  8
0
100
AcDbLine
 10
1147.955110778863
 20
773.324911194705
 30
0.0
 11
1147.595515624658
 21
772.9392926030596
 31
0.0
  0
LINE
  5
1BB
330
17
100
AcDbEntity
  8
0
100
AcDbLine
 10
1147.595515624658
 20
772.9392926030596
 30
0.0
 11
1147.265743284879
 21
772.5278796996788
 31
0.0
  0
LINE
  5
1BC
330
17
100
AcDbEntity
  8
0
100
AcDbLine
 10
1147.265743284879
 20
772.5278796996788
 30
0.0
 11
1146.96763798022
 21
772.092973272406
 31
0.0
  0
LINE
  5
1BD
330
17
100
AcDbEntity
  8
0
100
AcDbLine
 10
1146.96763798022
 20
772.092973272406
 30
0.0
 11
1146.7028668364628
 21
771.6370054943941
 31
0.0
  0
LINE
  5
1BE
330
17
100
AcDbEntity
  8
0
100
AcDbLine
 10
1146.7028668364628
 20
771.6370054943941
 30
0.0
 11
1146.4729105612498
 21
771.162526322417
 31
0.0
  0
LINE
  5
1BF
330
17
100
AcDbEntity
  8
0
100
AcDbLine
 10
1146.4729105612498
 20
771.162526322417
 30
0.0
 11
1146.2790551633482
 21
770.6721892364699
 31
0.0
  0
LINE
  5
1C0
330
17
100
AcDbEntity
  8
0
100
AcDbLine
 10
1146.2790551633482
 20
770.6721892364699
 30
0.0
 11
1146.1223847607769
 21
770.1687364004388
 31
0.0
  0
LINE
  5
1C1
330
17
100
AcDbEntity
  8
0
100
AcDbLine
 10
1146.1223847607769
 20
770.1687364004388
 30
0.0
 11
1146.0037755179808
 21
769.6549833267991
 31
0.0
  0
LINE
  5
1C2
330
17
100
AcDbEntity
  8
0
100
AcDbLine
 10
1146.0037755179808
 20
769.6549833267991
 30
0.0
 11
1145.9238907459567
 21
769.1338031311375
 31
0.0
  0
LINE
  5
1C3
330
17
100
AcDbEntity
  8
0
100
AcDbLine
 10
1145.9238907459567
 20
769.1338031311375
 30
0.0
 11
1145.8831771927546
 21
768.6081104645193
 31
0.0
  0
LINE
  5
1C4
330
17
100
AcDbEntity
  8
0
100
AcDbLine
 10
1145.8831771927546
 20
768.6081104645193
 30
0.0
 11
1145.8818625450776
 21
768.0808452135764
 31
0.0
  0
LINE
  5
1C5
330
17
100
AcDbEntity
  8
0
100
AcDbLine
 10
1145.8818625450776
 20
768.0808452135764
 30
0.0
 11
1145.9199541549724
 21
767.5549560594716
 31
0.0
  0
LINE
  5
1C6
330
17
100
AcDbEntity
  8
0
100
AcDbLine
 10
1145.9199541549724
 20
767.5549560594716
 30
0.0
 11
1145.9972389987017
 21
767.0333839876718
 31
0.0
  0
LINE
  5
1C7
330
17
100
AcDbEntity
  8
0
100
AcDbLine
 10
1145.9972389987017
 20
767.0333839876718
 30
0.0
 11
1146.1132848680709
 21
766.5190458407748
 31
0.0
  0
LINE
  5
1C8
330
17
100
AcDbEntity
  8
0
100
AcDbLine
 10
1146.1132848680709
 20
766.5190458407748
 30
0.0
 11
1146.267442787505
 21
766.0148180063334
 31
0.0
  0
LINE
  5
1C9
330
17
100
AcDbEntity
  8
0
100
AcDbLine
 10
1146.267442787505
 20
766.0148180063334
 30
0.0
 11
1146.458850643388
 21
765.5235203309295
 31
0.0
  0
LINE
  5
1CA
330
17
100
AcDbEntity
  8
0
100
AcDbLine
 10
1146.458850643388
 20
765.5235203309295
 30
0.0
 11
1146.6864380053448
 21
765.0479003504545
 31
0.0
  0
LINE
  5
1CB
330
17
100
AcDbEntity
  8
0
100
AcDbLine
 10
1146.6864380053448
 20
765.0479003504545
 30
0.0
 11
1146.9489321125313
 21
764.5906179247663
 31
0.0
  0
LINE
  5
1CC
330
17
100
AcDbEntity
  8
0
100
AcDbLine
 10
1146.9489321125313
 20
764.5906179247663
 30
0.0
 11
1147.2448649914247
 21
764.1542303626837
 31
0.0
  0
LINE
  5
1CD
330
17
100
AcDbEntity
  8
0
100
AcDbLine
 10
1147.2448649914247
 20
764.1542303626837
 30
0.0
 11
1147.5725816653194
 21
763.7411781204657
 31
0.0
  0
LINE
  5
1CE
330
17
100
AcDbEntity
  8
0
100
AcDbLine
 10
1147.5725816653194
 20
763.7411781204657
 30
0.0
 11
1147.9302494096457
 21
763.3537711538024
 31
0.0
  0
LINE
  5
1CF
330
17
100
AcDbEntity
  8
0
100
AcDbLine
 10
1147.9302494096457
 20
763.3537711538024
 30
0.0
 11
1148.3158680012916
 21
762.994175999597
 31
0.0
  0
LINE
  5
1D0
330
17
100
AcDbEntity
  8
0
100
AcDbLine
 10
1148.3158680012916
 20
762.994175999597
 30
0.0
 11
1148.727280904672
 21
762.6644036598179
 31
0.0
  0
LINE
  5
1D1
330
17
100
AcDbEntity
  8
0
100
AcDbLine
 10
1148.727280904672
 20
762.6644036598179
 30
0.0
 11
1149.1621873319446
 21
762.3662983551585
 31
0.0
  0
LINE
  5
1D2
330
17
100
AcDbEntity
  8
0
100
AcDbLine
 10
1149.1621873319446
 20
762.3662983551585
 30
0.0
 11
1149.6181551099567
 21
762.101527211403
 31
0.0
  0
LINE
  5
1D3
330
17
100
AcDbEntity
  8
0
100
AcDbLine
 10
1149.6181551099567
 20
762.101527211403
 30
0.0
 11
1150.0926342819334
 21
761.8715709361884
 31
0.0
  0
LINE
  5
1D4
330
17
100
AcDbEntity
  8
0
100
AcDbLine
 10
1150.0926342819334
 20
761.8715709361884
 30
0.0
 11
1150.5829713678806
 21
761.6777155382867
 31
0.0
  0
LINE
  5
1D5
330
17
100
AcDbEntity
  8
0
100
AcDbLine
 10
1150.5829713678806
 20
761.6777155382867
 30
0.0
 11
1151.0864242039117
 21
761.5210451357159
 31
0.0
  0
LINE
  5
1D6
330
17
100
AcDbEntity
  8
0
100
AcDbLine
 10
1151.0864242039117
 20
761.5210451357159
 30
0.0
 11
1151.6001772775517
 21
761.4024358929186
 31
0.0
  0
LINE
  5
1D7
330
17
100
AcDbEntity
  8
0
100
AcDbLine
 10
1151.6001772775517
 20
761.4024358929186
 30
0.0
 11
1152.121357473213
 21
761.3225511208956
 31
0.0
  0
LINE
  5
1D8
330
17
100
AcDbEntity
  8
0
100
AcDbLine
 10
1152.121357473213
 20
761.3225511208956
 30
0.0
 11
1152.6470501398314
 21
761.2818375676918
 31
0.0
  0
LINE
  5
1D9
330
17
100
AcDbEntity
  8
0
100
AcDbLine
 10
1152.6470501398314
 20
761.2818375676918
 30
0.0
 11
1153.1743153907744
 21
761.2805229200178
 31
0.0
  0
LINE
  5
1DA
330
17
100
AcDbEntity
  8
0
100
AcDbLine
 10
1153.1743153907744
 20
761.2805229200178
 30
0.0
 11
1153.7002045448805
 21
761.3186145299098
 31
0.0
  0
LINE
  5
1DB
330
17
100
AcDbEntity
  8
0
100
AcDbLine
 10
1153.7002045448805
 20
761.3186145299098
 30
0.0
 11
1154.2217766166789
 21
761.3958993736404
 31
0.0
  0
LINE
  5
1DC
330
17
100
AcDbEntity
  8
0
100
AcDbLine
 10
1154.2217766166789
 20
761.3958993736404
 30
0.0
 11
1154.736114763576
 21
761.5119452430084
 31
0.0
  0
LINE
  5
1DD
330
17
100
AcDbEntity
  8
0
100
AcDbLine
 10
1154.736114763576
 20
761.5119452430084
 30
0.0
 11
1155.2403425980165
 21
761.666103162444
 31
0.0
  0
LINE
  5
1DE
330
17
100
AcDbEntity
  8
0
100
AcDbLine
 10
1155.2403425980165
 20
761.666103162444
 30
0.0
 11
1155.731640273421
 21
761.8575110183262
 31
0.0
  0
LINE
  5
1DF
330
17
100
AcDbEntity
  8
0
100
AcDbLine
 10
1155.731640273421
 20
761.8575110183262
 30
0.0
 11
1156.2072602538974
 21
762.0850983802836
 31
0.0
  0
LINE
  5
1E0
330
17
100
AcDbEntity
  8
0
100
AcDbLine
 10
1156.2072602538974
 20
762.0850983802836
 30
0.0
 11
1156.6645426795844
 21
762.3475924874713
 31
0.0
  0
LINE
  5
1E1
330
17
100
AcDbEntity
  8
0
100
AcDbLine
 10
1156.6645426795844
 20
762.3475924874713
 30
0.0
 11
1157.1009302416667
 21
762.6435253663631
 31
0.0
  0
LINE
  5
1E2
330
17
100
AcDbEntity
  8
0
100
AcDbLine
 10
1157.1009302416667
 20
762.6435253663631
 30
0.0
 11
1157.513982483885
 21
762.9712420402586
 31
0.0
  0
LINE
  5
1E3
330
17
100
AcDbEntity
  8
0
100
AcDbLine
 10
1157.513982483885
 20
762.9712420402586
 30
0.0
 11
1157.9013894505483
 21
763.3289097845848
 31
0.0
  0
LINE
  5
1E4
330
17
100
AcDbEntity
  8
0
100
AcDbLine
 10
1157.9013894505483
 20
763.3289097845848
 30
0.0
 11
1158.2609846047537
 21
763.7145283762311
 31
0.0
  0
LINE
  5
1E5
330
17
100
AcDbEntity
  8
0
100
AcDbLine
 10
1158.2609846047537
 20
763.7145283762311
 30
0.0
 11
1158.5907569445326
 21
764.125941279611
 31
0.0
  0
LINE
  5
1E6
330
17
100
AcDbEntity
  8
0
100
AcDbLine
 10
1158.5907569445326
 20
764.125941279611
 30
0.0
 11
1158.888862249192
 21
764.5608477068848
 31
0.0
  0
LINE
  5
1E7
330
17
100
AcDbEntity
  8
0
100
AcDbLine
 10
1158.888862249192
 20
764.5608477068848
 30
0.0
 11
1159.1536333929475
 21
765.0168154848952
 31
0.0
  0
LINE
  5
1E8
330
17
100
AcDbEntity
  8
0
100
AcDbLine
 10
1159.1536333929475
 20
765.0168154848952
 30
0.0
 11
1159.3835896681617
 21
765.4912946568736
 31
0.0
  0
LINE
  5
1E9
330
17
100
AcDbEntity
  8
0
100
AcDbLine
 10
1159.3835896681617
 20
765.4912946568736
 30
0.0
 11
1159.5774450660647
 21
765.9816317428196
 31
0.0
  0
LINE
  5
1EA
330
17
100
AcDbEntity
  8
0
100
AcDbLine
 10
1159.5774450660647
 20
765.9816317428196
 30
0.0
 11
1159.734115468636
 21
766.4850845788519
 31
0.0
  0
LINE
  5
1EB
330
17
100
AcDbEntity
  8
0
100
AcDbLine
 10
1159.734115468636
 20
766.4850845788519
 30
0.0
 11
1159.8527247114318
 21
766.9988376524904
 31
0.0
  0
LINE
  5
1EC
330
17
100
AcDbEntity
  8
0
100
AcDbLine
 10
1159.8527247114318
 20
766.9988376524904
 30
0.0
 11
1159.9326094834553
 21
767.520017848152
 31
0.0
  0
LINE
  5
1ED
330
17
100
AcDbEntity
  8
0
100
AcDbLine
 10
1159.9326094834553
 20
767.520017848152
 30
0.0
 11
1159.9733230366573
 21
768.0457105147714
 31
0.0
  0
LINE
  5
1EE
330
17
100
AcDbEntity
  8
0
100
AcDbLine
 10
1159.9733230366573
 20
768.0457105147714
 30
0.0
 11
1159.9746376843327
 21
768.5729757657134
 31
0.0
  0
ENDSEC
  0
SECTION
  2
OBJECTS
  0
DICTIONARY
  5
A
330
0
100
AcDbDictionary
281
1
  3
ACAD_COLOR
350
B
  3
ACAD_GROUP
350
C
  3
ACAD_LAYOUT
350
D
  3
ACAD_MATERIAL
350
E
  3
ACAD_MLEADERSTYLE
350
F
  3
ACAD_MLINESTYLE
350
10
  3
ACAD_PLOTSETTINGS
350
11
  3
ACAD_PLOTSTYLENAME
350
12
  3
ACAD_SCALELIST
350
14
  3
ACAD_TABLESTYLE
350
15
  3
ACAD_VISUALSTYLE
350
16
  3
EZDXF_META
350
2D
  0
DICTIONARY
  5
B
330
A
100
AcDbDictionary
281
1
  0
DICTIONARY
  5
C
330
A
100
AcDbDictionary
281
1
  0
DICTIONARY
  5
D
330
A
100
AcDbDictionary
281
1
  3
Model
350
1A
  3
Layout1
350
1E
  0
DICTIONARY
  5
E
330
A
100
AcDbDictionary
281
1
  3
ByBlock
350
1F
  3
ByLayer
350
20
  3
Global
350
21
  0
DICTIONARY
  5
F
330
A
100
AcDbDictionary
281
1
  3
Standard
350
2C
  0
DICTIONARY
  5
10
330
A
100
AcDbDictionary
281
1
  3
Standard
350
22
  0
DICTIONARY
  5
11
330
A
100
AcDbDictionary
281
1
  0
ACDBDICTIONARYWDFLT
  5
12
330
A
100
AcDbDictionary
281
1
  3
Normal
350
13
100
AcDbDictionaryWithDefault
340
13
  0
ACDBPLACEHOLDER
  5
13
330
12
  0
DICTIONARY
  5
14
330
A
100
AcDbDictionary
281
1
  0
DICTIONARY
  5
15
330
A
100
AcDbDictionary
281
1
  0
DICTIONARY
  5
16
330
A
100
AcDbDictionary
281
1
  0
LAYOUT
  5
1A
330
D
100
AcDbPlotSettings
  1

  4
A3
  6

 40
7.5
 41
20.0
 42
7.5
 43
20.0
 44
420.0
 45
297.0
 46
0.0
 47
0.0
 48
0.0
 49
0.0
140
0.0
141
0.0
142
1.0
143
1.0
 70
1024
 72
1
 73
0
 74
5
  7

 75
16
 76
0
 77
2
 78
300
147
1.0
148
0.0
149
0.0
100
AcDbLayout
  1
Model
 70
1
 71
0
 10
0.0
 20
0.0
 11
420.0
 21
297.0
 12
0.0
 22
0.0
 32
0.0
 14
1e+20
 24
1e+20
 34
1e+20
 15
-1e+20
 25
-1e+20
 35
-1e+20
146
0.0
 13
0.0
 23
0.0
 33
0.0
 16
1.0
 26
0.0
 36
0.0
 17
0.0
 27
1.0
 37
0.0
 76
1
330
17
  0
LAYOUT
  5
1E
330
D
100
AcDbPlotSettings
  1

  4
A3
  6

 40
7.5
 41
20.0
 42
7.5
 43
20.0
 44
420.0
 45
297.0
 46
0.0
 47
0.0
 48
0.0
 49
0.0
140
0.0
141
0.0
142
1.0
143
1.0
 70
0
 72
1
 73
0
 74
5
  7

 75
16
 76
0
 77
2
 78
300
147
1.0
148
0.0
149
0.0
100
AcDbLayout
  1
Layout1
 70
1
 71
1
 10
0.0
 20
0.0
 11
420.0
 21
297.0
 12
0.0
 22
0.0
 32
0.0
 14
1e+20
 24
1e+20
 34
1e+20
 15
-1e+20
 25
-1e+20
 35
-1e+20
146
0.0
 13
0.0
 23
0.0
 33
0.0
 16
1.0
 26
0.0
 36
0.0
 17
0.0
 27
1.0
 37
0.0
 76
1
330
1B
  0
MATERIAL
  5
1F
102
{ACAD_REACTORS
330
E
102
}
330
E
100
AcDbMaterial
  1
ByBlock
  2

 70
0
 40
1.0
 71
1
 41
1.0
 91
-1023410177
 42
1.0
 72
1
  3

 73
1
 74
1
 75
1
 44
0.5
 73
0
 45
1.0
 46
1.0
 77
1
  4

 78
1
 79
1
170
1
 48
1.0
171
1
  6

172
1
173
1
174
1
140
1.0
141
1.0
175
1
  7

176
1
177
1
178
1
143
1.0
179
1
  8

270
1
271
1
272
1
145
1.0
146
1.0
273
1
  9

274
1
275
1
276
1
 42
1.0
 72
1
  3

 73
1
 74
1
 75
1
 94
63
  0
MATERIAL
  5
20
102
{ACAD_REACTORS
330
E
102
}
330
E
100
AcDbMaterial
  1
ByLayer
  2

 70
0
 40
1.0
 71
1
 41
1.0
 91
-1023410177
 42
1.0
 72
1
  3

 73
1
 74
1
 75
1
 44
0.5
 73
0
 45
1.0
 46
1.0
 77
1
  4

 78
1
 79
1
170
1
 48
1.0
171
1
  6

172
1
173
1
174
1
140
1.0
141
1.0
175
1
  7

176
1
177
1
178
1
143
1.0
179
1
  8

270
1
271
1
272
1
145
1.0
146
1.0
273
1
  9

274
1
275
1
276
1
 42
1.0
 72
1
  3

 73
1
 74
1
 75
1
 94
63
  0
MATERIAL
  5
21
102
{ACAD_REACTORS
330
E
102
}
330
E
100
AcDbMaterial
  1
Global
  2

 70
0
 40
1.0
 71
1
 41
1.0
 91
-1023410177
 42
1.0
 72
1
  3

 73
1
 74
1
 75
1
 44
0.5
 73
0
 45
1.0
 46
1.0
 77
1
  4

 78
1
 79
1
170
1
 48
1.0
171
1
  6

172
1
173
1
174
1
140
1.0
141
1.0
175
1
  7

176
1
177
1
178
1
143
1.0
179
1
  8

270
1
271
1
272
1
145
1.0
146
1.0
273
1
  9

274
1
275
1
276
1
 42
1.0
 72
1
  3

 73
1
 74
1
 75
1
 94
63
  0
MLINESTYLE
  5
22
102
{ACAD_REACTORS
330
10
102
}
330
10
100
AcDbMlineStyle
  2
Standard
 70
0
  3

 62
256
 51
90.0
 52
90.0
 71
2
 49
0.5
 62
256
  6
BYLAYER
 49
-0.5
 62
256
  6
BYLAYER
  0
MLEADERSTYLE
  5
2C
102
{ACAD_REACTORS
330
F
102
}
330
F
100
AcDbMLeaderStyle
179
2
170
2
171
1
172
0
 90
2
 40
0.0
 41
0.0
173
1
 91
-1056964608
 92
-2
290
1
 42
2.0
291
1
 43
8.0
  3
Standard
 44
4.0
300

342
29
174
1
175
1
176
0
178
1
 93
-1056964608
 45
4.0
292
0
297
0
 46
4.0
 94
-1056964608
 47
1.0
 49
1.0
140
1.0
294
1
141
0.0
177
0
142
1.0
295
0
296
0
143
3.75
271
0
272
9
273
9
  0
DICTIONARY
  5
2D
330
A
100
AcDbDictionary
280
1
281
1
  3
CREATED_BY_EZDXF
350
2E
  3
WRITTEN_BY_EZDXF
350
1F1
  0
DICTIONARYVAR
  5
2E
330
2D
100
DictionaryVariables
280
0
  1
1.4.3 @ 2026-04-16T10:53:41.928204+00:00
  0
DICTIONARYVAR
  5
1F1
330
2D
100
DictionaryVariables
280
0
  1
1.4.3 @ 2026-04-16T10:53:41.935689+00:00
  0
ENDSEC
  0
EOF
