  0
SECTION
  2
HEADER
  9
$ACADVER
  1
AC1024
  9
$ACADMAINTVER
 70
6
  9
$DWGCODEPAGE
  3
ANSI_1252
  9
$LASTSAVEDBY
  1
ezdxf
  9
$INSBASE
 10
0.0
 20
0.0
 30
0.0
  9
$EXTMIN
 10
1e+20
 20
1e+20
 30
1e+20
  9
$EXTMAX
 10
-1e+20
 20
-1e+20
 30
-1e+20
  9
$LIMMIN
 10
0.0
 20
0.0
  9
$LIMMAX
 10
420.0
 20
297.0
  9
$ORTHOMODE
 70
0
  9
$REGENMODE
 70
1
  9
$FILLMODE
 70
1
  9
$QTEXTMODE
 70
0
  9
$MIRRTEXT
 70
1
  9
$LTSCALE
 40
1.0
  9
$ATTMODE
 70
1
  9
$TEXTSIZE
 40
2.5
  9
$TRACEWID
 40
1.0
  9
$TEXTSTYLE
  7
Standard
  9
$CLAYER
  8
0
  9
$CELTYPE
  6
ByLayer
  9
$CECOLOR
 62
256
  9
$CELTSCALE
 40
1.0
  9
$DISPSILH
 70
0
  9
$DIMSCALE
 40
1.0
  9
$DIMASZ
 40
2.5
  9
$DIMEXO
 40
0.625
  9
$DIMDLI
 40
3.75
  9
$DIMRND
 40
0.0
  9
$DIMDLE
 40
0.0
  9
$DIMEXE
 40
1.25
  9
$DIMTP
 40
0.0
  9
$DIMTM
 40
0.0
  9
$DIMTXT
 40
2.5
  9
$DIMCEN
 40
2.5
  9
$DIMTSZ
 40
0.0
  9
$DIMTOL
 70
0
  9
$DIMLIM
 70
0
  9
$DIMTIH
 70
0
  9
$DIMTOH
 70
0
  9
$DIMSE1
 70
0
  9
$DIMSE2
 70
0
  9
$DIMTAD
 70
1
  9
$DIMZIN
 70
8
  9
$DIMBLK
  1

  9
$DIMASO
 70
1
  9
$DIMSHO
 70
1
  9
$DIMPOST
  1

  9
$DIMAPOST
  1

  9
$DIMALT
 70
0
  9
$DIMALTD
 70
3
  9
$DIMALTF
 40
0.03937007874
  9
$DIMLFAC
 40
1.0
  9
$DIMTOFL
 70
1
  9
$DIMTVP
 40
0.0
  9
$DIMTIX
 70
0
  9
$DIMSOXD
 70
0
  9
$DIMSAH
 70
0
  9
$DIMBLK1
  1

  9
$DIMBLK2
  1

  9
$DIMSTYLE
  2
ISO-25
  9
$DIMCLRD
 70
0
  9
$DIMCLRE
 70
0
  9
$DIMCLRT
 70
0
  9
$DIMTFAC
 40
1.0
  9
$DIMGAP
 40
0.625
  9
$DIMJUST
 70
0
  9
$DIMSD1
 70
0
  9
$DIMSD2
 70
0
  9
$DIMTOLJ
 70
0
  9
$DIMTZIN
 70
8
  9
$DIMALTZ
 70
0
  9
$DIMALTTZ
 70
0
  9
$DIMUPT
 70
0
  9
$DIMDEC
 70
2
  9
$DIMTDEC
 70
2
  9
$DIMALTU
 70
2
  9
$DIMALTTD
 70
3
  9
$DIMTXSTY
  7
Standard
  9
$DIMAUNIT
 70
0
  9
$DIMADEC
 70
0
  9
$DIMALTRND
 40
0.0
  9
$DIMAZIN
 70
0
  9
$DIMDSEP
 70
44
  9
$DIMATFIT
 70
3
  9
$DIMFRAC
 70
0
  9
$DIMLDRBLK
  1

  9
$DIMLUNIT
 70
2
  9
$DIMLWD
 70
-2
  9
$DIMLWE
 70
-2
  9
$DIMTMOVE
 70
0
  9
$DIMFXL
 40
1.0
  9
$DIMFXLON
 70
0
  9
$DIMJOGANG
 40
0.785398163397
  9
$DIMTFILL
 70
0
  9
$DIMTFILLCLR
 70
0
  9
$DIMARCSYM
 70
0
  9
$DIMLTYPE
  6

  9
$DIMLTEX1
  6

  9
$DIMLTEX2
  6

  9
$DIMTXTDIRECTION
 70
0
  9
$LUNITS
 70
2
  9
$LUPREC
 70
4
  9
$SKETCHINC
 40
1.0
  9
$FILLETRAD
 40
10.0
  9
$AUNITS
 70
0
  9
$AUPREC
 70
2
  9
$MENU
  1
.
  9
$ELEVATION
 40
0.0
  9
$PELEVATION
 40
0.0
  9
$THICKNESS
 40
0.0
  9
$LIMCHECK
 70
0
  9
$CHAMFERA
 40
0.0
  9
$CHAMFERB
 40
0.0
  9
$CHAMFERC
 40
0.0
  9
$CHAMFERD
 40
0.0
  9
$SKPOLY
 70
0
  9
$TDCREATE
 40
2461147.4846643517
  9
$TDUCREATE
 40
2458532.153996898
  9
$TDUPDATE
 40
2461147.4846643517
  9
$TDUUPDATE
 40
2458532.1544311
  9
$TDINDWG
 40
0.0
  9
$TDUSRTIMER
 40
0.0
  9
$USRTIMER
 70
1
  9
$ANGBASE
 50
0.0
  9
$ANGDIR
 70
0
  9
$PDMODE
 70
0
  9
$PDSIZE
 40
0.0
  9
$PLINEWID
 40
0.0
  9
$SPLFRAME
 70
0
  9
$SPLINETYPE
 70
6
  9
$SPLINESEGS
 70
8
  9
$HANDSEED
  5
318
  9
$SURFTAB1
 70
6
  9
$SURFTAB2
 70
6
  9
$SURFTYPE
 70
6
  9
$SURFU
 70
6
  9
$SURFV
 70
6
  9
$UCSBASE
  2

  9
$UCSNAME
  2

  9
$UCSORG
 10
0.0
 20
0.0
 30
0.0
  9
$UCSXDIR
 10
1.0
 20
0.0
 30
0.0
  9
$UCSYDIR
 10
0.0
 20
1.0
 30
0.0
  9
$UCSORTHOREF
  2

  9
$UCSORTHOVIEW
 70
0
  9
$UCSORGTOP
 10
0.0
 20
0.0
 30
0.0
  9
$UCSORGBOTTOM
 10
0.0
 20
0.0
 30
0.0
  9
$UCSORGLEFT
 10
0.0
 20
0.0
 30
0.0
  9
$UCSORGRIGHT
 10
0.0
 20
0.0
 30
0.0
  9
$UCSORGFRONT
 10
0.0
 20
0.0
 30
0.0
  9
$UCSORGBACK
 10
0.0
 20
0.0
 30
0.0
  9
$PUCSBASE
  2

  9
$PUCSNAME
  2

  9
$PUCSORG
 10
0.0
 20
0.0
 30
0.0
  9
$PUCSXDIR
 10
1.0
 20
0.0
 30
0.0
  9
$PUCSYDIR
 10
0.0
 20
1.0
 30
0.0
  9
$PUCSORTHOREF
  2

  9
$PUCSORTHOVIEW
 70
0
  9
$PUCSORGTOP
 10
0.0
 20
0.0
 30
0.0
  9
$PUCSORGBOTTOM
 10
0.0
 20
0.0
 30
0.0
  9
$PUCSORGLEFT
 10
0.0
 20
0.0
 30
0.0
  9
$PUCSORGRIGHT
 10
0.0
 20
0.0
 30
0.0
  9
$PUCSORGFRONT
 10
0.0
 20
0.0
 30
0.0
  9
$PUCSORGBACK
 10
0.0
 20
0.0
 30
0.0
  9
$USERI1
 70
0
  9
$USERI2
 70
0
  9
$USERI3
 70
0
  9
$USERI4
 70
0
  9
$USERI5
 70
0
  9
$USERR1
 40
0.0
  9
$USERR2
 40
0.0
  9
$USERR3
 40
0.0
  9
$USERR4
 40
0.0
  9
$USERR5
 40
0.0
  9
$WORLDVIEW
 70
1
  9
$SHADEDGE
 70
3
  9
$SHADEDIF
 70
70
  9
$TILEMODE
 70
1
  9
$MAXACTVP
 70
64
  9
$PINSBASE
 10
0.0
 20
0.0
 30
0.0
  9
$PLIMCHECK
 70
0
  9
$PEXTMIN
 10
1e+20
 20
1e+20
 30
1e+20
  9
$PEXTMAX
 10
-1e+20
 20
-1e+20
 30
-1e+20
  9
$PLIMMIN
 10
0.0
 20
0.0
  9
$PLIMMAX
 10
420.0
 20
297.0
  9
$UNITMODE
 70
0
  9
$VISRETAIN
 70
1
  9
$PLINEGEN
 70
0
  9
$PSLTSCALE
 70
1
  9
$TREEDEPTH
 70
3020
  9
$CMLSTYLE
  2
Standard
  9
$CMLJUST
 70
0
  9
$CMLSCALE
 40
20.0
  9
$PROXYGRAPHICS
 70
1
  9
$MEASUREMENT
 70
1
  9
$CELWEIGHT
370
-1
  9
$ENDCAPS
280
0
  9
$JOINSTYLE
280
0
  9
$LWDISPLAY
290
0
  9
$INSUNITS
 70
0
  9
$HYPERLINKBASE
  1

  9
$STYLESHEET
  1

  9
$XEDIT
290
1
  9
$CEPSNTYPE
380
0
  9
$PSTYLEMODE
290
1
  9
$FINGERPRINTGUID
  2
{497A3F8D-A41F-46AA-9A11-859F2C9FE67F}
  9
$VERSIONGUID
  2
{2351E025-77FE-4DCD-B364-B3EC8BEE5671}
  9
$EXTNAMES
290
1
  9
$PSVPSCALE
 40
0.0
  9
$OLESTARTUP
290
0
  9
$SORTENTS
280
127
  9
$INDEXCTL
280
0
  9
$HIDETEXT
280
1
  9
$XCLIPFRAME
280
1
  9
$HALOGAP
280
0
  9
$OBSCOLOR
 70
257
  9
$OBSLTYPE
280
0
  9
$INTERSECTIONDISPLAY
280
0
  9
$INTERSECTIONCOLOR
 70
257
  9
$DIMASSOC
280
2
  9
$PROJECTNAME
  1

  9
$CAMERADISPLAY
290
0
  9
$LENSLENGTH
 40
50.0
  9
$CAMERAHEIGHT
 40
0.0
  9
$STEPSPERSEC
 40
24.0
  9
$STEPSIZE
 40
100.0
  9
$3DDWFPREC
 40
2.0
  9
$PSOLWIDTH
 40
0.005
  9
$PSOLHEIGHT
 40
0.08
  9
$LOFTANG1
 40
1.570796326795
  9
$LOFTANG2
 40
1.570796326795
  9
$LOFTMAG1
 40
0.0
  9
$LOFTMAG2
 40
0.0
  9
$LOFTPARAM
 70
7
  9
$LOFTNORMALS
280
1
  9
$LATITUDE
 40
37.795
  9
$LONGITUDE
 40
-122.394
  9
$NORTHDIRECTION
 40
0.0
  9
$TIMEZONE
 70
-8000
  9
$LIGHTGLYPHDISPLAY
280
1
  9
$TILEMODELIGHTSYNCH
280
1
  9
$CMATERIAL
347
20
  9
$SOLIDHIST
280
0
  9
$SHOWHIST
280
1
  9
$DWFFRAME
280
2
  9
$DGNFRAME
280
2
  9
$REALWORLDSCALE
290
1
  9
$INTERFERECOLOR
 62
256
  9
$CSHADOW
280
0
  9
$SHADOWPLANELOCATION
 40
0.0
  0
ENDSEC
  0
SECTION
  2
CLASSES
  0
CLASS
  1
ACDBDICTIONARYWDFLT
  2
AcDbDictionaryWithDefault
  3
ObjectDBX Classes
 90
0
 91
0
280
0
281
0
  0
CLASS
  1
SUN
  2
AcDbSun
  3
SCENEOE
 90
1153
 91
0
280
0
281
0
  0
CLASS
  1
VISUALSTYLE
  2
AcDbVisualStyle
  3
ObjectDBX Classes
 90
4095
 91
0
280
0
281
0
  0
CLASS
  1
MATERIAL
  2
AcDbMaterial
  3
ObjectDBX Classes
 90
1153
 91
0
280
0
281
0
  0
CLASS
  1
SCALE
  2
AcDbScale
  3
ObjectDBX Classes
 90
1153
 91
0
280
0
281
0
  0
CLASS
  1
TABLESTYLE
  2
AcDbTableStyle
  3
ObjectDBX Classes
 90
4095
 91
0
280
0
281
0
  0
CLASS
  1
MLEADERSTYLE
  2
AcDbMLeaderStyle
  3
ACDB_MLEADERSTYLE_CLASS
 90
4095
 91
0
280
0
281
0
  0
CLASS
  1
DICTIONARYVAR
  2
AcDbDictionaryVar
  3
ObjectDBX Classes
 90
0
 91
0
280
0
281
0
  0
CLASS
  1
CELLSTYLEMAP
  2
AcDbCellStyleMap
  3
ObjectDBX Classes
 90
1152
 91
0
280
0
281
0
  0
CLASS
  1
MENTALRAYRENDERSETTINGS
  2
AcDbMentalRayRenderSettings
  3
SCENEOE
 90
1024
 91
0
280
0
281
0
  0
CLASS
  1
ACDBDETAILVIEWSTYLE
  2
AcDbDetailViewStyle
  3
ObjectDBX Classes
 90
1025
 91
0
280
0
281
0
  0
CLASS
  1
ACDBSECTIONVIEWSTYLE
  2
AcDbSectionViewStyle
  3
ObjectDBX Classes
 90
1025
 91
0
280
0
281
0
  0
CLASS
  1
RASTERVARIABLES
  2
AcDbRasterVariables
  3
ISM
 90
0
 91
0
280
0
281
0
  0
CLASS
  1
ACDBPLACEHOLDER
  2
AcDbPlaceHolder
  3
ObjectDBX Classes
 90
0
 91
0
280
0
281
0
  0
CLASS
  1
LAYOUT
  2
AcDbLayout
  3
ObjectDBX Classes
 90
0
 91
0
280
0
281
0
  0
ENDSEC
  0
SECTION
  2
TABLES
  0
TABLE
  2
VPORT
  5
8
330
0
100
AcDbSymbolTable
 70
1
  0
VPORT
  5
23
330
8
100
AcDbSymbolTableRecord
100
AcDbViewportTableRecord
  2
*Active
 70
0
 10
0.0
 20
0.0
 11
1.0
 21
1.0
 12
0.0
 22
0.0
 13
0.0
 23
0.0
 14
0.5
 24
0.5
 15
0.5
 25
0.5
 16
0.0
 26
0.0
 36
1.0
 17
0.0
 27
0.0
 37
0.0
 40
1000.0
 41
1.34
 42
50.0
 43
0.0
 44
0.0
 50
0.0
 51
0.0
 71
0
 72
1000
 73
1
 74
3
 75
0
 76
0
 77
0
 78
0
281
0
 65
0
146
0.0
  0
ENDTAB
  0
TABLE
  2
LTYPE
  5
2
330
0
100
AcDbSymbolTable
 70
3
  0
LTYPE
  5
24
330
2
100
AcDbSymbolTableRecord
100
AcDbLinetypeTableRecord
  2
ByBlock
 70
0
  3

 72
65
 73
0
 40
0.0
  0
LTYPE
  5
25
330
2
100
AcDbSymbolTableRecord
100
AcDbLinetypeTableRecord
  2
ByLayer
 70
0
  3

 72
65
 73
0
 40
0.0
  0
LTYPE
  5
26
330
2
100
AcDbSymbolTableRecord
100
AcDbLinetypeTableRecord
  2
Continuous
 70
0
  3

 72
65
 73
0
 40
0.0
  0
ENDTAB
  0
TABLE
  2
LAYER
  5
1
330
0
100
AcDbSymbolTable
 70
2
  0
LAYER
  5
27
330
1
100
AcDbSymbolTableRecord
100
AcDbLayerTableRecord
  2
0
 70
0
 62
7
  6
Continuous
370
-3
390
13
347
21
  0
LAYER
  5
28
330
1
100
AcDbSymbolTableRecord
100
AcDbLayerTableRecord
  2
Defpoints
 70
0
 62
7
  6
Continuous
290
0
370
-3
390
13
347
21
  0
ENDTAB
  0
TABLE
  2
STYLE
  5
5
330
0
100
AcDbSymbolTable
 70
1
  0
STYLE
  5
29
330
5
100
AcDbSymbolTableRecord
100
AcDbTextStyleTableRecord
  2
Standard
 70
0
 40
0.0
 41
1.0
 50
0.0
 71
0
 42
2.5
  3
txt
  4

  0
ENDTAB
  0
TABLE
  2
VIEW
  5
7
330
0
100
AcDbSymbolTable
 70
0
  0
ENDTAB
  0
TABLE
  2
UCS
  5
6
330
0
100
AcDbSymbolTable
 70
0
  0
ENDTAB
  0
TABLE
  2
APPID
  5
3
330
0
100
AcDbSymbolTable
 70
3
  0
APPID
  5
2A
330
3
100
AcDbSymbolTableRecord
100
AcDbRegAppTableRecord
  2
ACAD
 70
0
  0
APPID
  5
315
330
3
100
AcDbSymbolTableRecord
100
AcDbRegAppTableRecord
  2
HATCHBACKGROUNDCOLOR
 70
0
  0
APPID
  5
316
330
3
100
AcDbSymbolTableRecord
100
AcDbRegAppTableRecord
  2
EZDXF
 70
0
  0
ENDTAB
  0
TABLE
  2
DIMSTYLE
  5
4
330
0
100
AcDbSymbolTable
 70
1
100
AcDbDimStyleTable
  0
DIMSTYLE
105
2B
330
4
100
AcDbSymbolTableRecord
100
AcDbDimStyleTableRecord
  2
Standard
 70
0
 40
1.0
 41
2.5
 42
0.625
 43
3.75
 44
1.25
 45
0.0
 46
0.0
 47
0.0
 48
0.0
 49
2.5
140
2.5
141
2.5
142
0.0
143
0.03937007874
144
1.0
145
0.0
146
1.0
147
0.625
148
0.0
 69
0
 70
0
 71
0
 72
0
 73
0
 74
0
 75
0
 76
0
 77
1
 78
8
 79
3
170
0
171
3
172
1
173
0
174
0
175
0
176
0
177
0
178
0
179
2
271
2
272
2
273
2
274
3
275
0
276
0
277
2
278
44
279
0
280
0
281
0
282
0
283
0
284
8
285
0
286
0
288
0
289
3
290
0
371
-2
372
-2
  0
ENDTAB
  0
TABLE
  2
BLOCK_RECORD
  5
9
330
0
100
AcDbSymbolTable
 70
2
  0
BLOCK_RECORD
  5
17
330
9
100
AcDbSymbolTableRecord
100
AcDbBlockTableRecord
  2
*Model_Space
340
1A
 70
0
280
1
281
0
  0
BLOCK_RECORD
  5
1B
330
9
100
AcDbSymbolTableRecord
100
AcDbBlockTableRecord
  2
*Paper_Space
340
1E
 70
0
280
1
281
0
  0
ENDTAB
  0
ENDSEC
  0
SECTION
  2
BLOCKS
  0
BLOCK
  5
18
330
17
100
AcDbEntity
  8
0
100
AcDbBlockBegin
  2
*Model_Space
 70
0
 10
0.0
 20
0.0
 30
0.0
  3
*Model_Space
  1

  0
ENDBLK
  5
19
330
17
100
AcDbEntity
  8
0
100
AcDbBlockEnd
  0
BLOCK
  5
1C
330
1B
100
AcDbEntity
  8
0
100
AcDbBlockBegin
  2
*Paper_Space
 70
0
 10
0.0
 20
0.0
 30
0.0
  3
*Paper_Space
  1

  0
ENDBLK
  5
1D
330
1B
100
AcDbEntity
  8
0
100
AcDbBlockEnd
  0
ENDSEC
  0
SECTION
  2
ENTITIES
  0
LINE
  5
2F
330
17
100
AcDbEntity
  8
0
100
AcDbLine
 10
-29.269652858452442
 20
1844.2992062711633
 30
0.0
 11
2017.482760876656
 21
1915.7733755178851
 31
0.0
  0
LINE
  5
30
330
17
100
AcDbEntity
  8
0
100
AcDbLine
 10
515.6962525893788
 20
1873.966235703912
 30
0.0
 11
581.6977621055938
 21
-16.06970785718829
 31
0.0
  0
LINE
  5
31
330
17
100
AcDbEntity
  8
0
100
AcDbLine
 10
-6.598719961158509
 20
1195.0886296642705
 30
0.0
 11
2040.1536937739497
 21
1266.5627989109923
 31
0.0
  0
LINE
  5
32
330
17
100
AcDbEntity
  8
0
100
AcDbLine
 10
516.0672314913345
 20
1863.3427899048897
 30
0.0
 11
634.1055181471332
 21
1867.4647777043979
 31
0.0
  0
LINE
  5
33
330
17
100
AcDbEntity
  8
0
100
AcDbLine
 10
1047.2395214424287
 20
1881.891735002676
 30
0.0
 11
1112.8700520566879
 21
2.4792372405976266
 31
0.0
  0
LINE
  5
34
330
17
100
AcDbEntity
  8
0
100
AcDbLine
 10
1578.4118113935233
 20
1900.4406801004616
 30
0.0
 11
1644.0423420077825
 21
21.028182338383544
 31
0.0
  0
LINE
  5
35
330
17
100
AcDbEntity
  8
0
100
AcDbLine
 10
16.072212936135383
 20
545.8780530573788
 30
0.0
 11
2062.8246266712435
 21
617.3522223041007
 31
0.0
  0
LINE
  5
36
330
17
100
AcDbEntity
  8
0
100
AcDbLine
 10
516.0672314913345
 20
1863.3427899048897
 30
0.0
 11
530.5766285456027
 21
1447.848020876476
 31
0.0
  0
LINE
  5
37
330
17
100
AcDbEntity
  8
0
100
AcDbLine
 10
501.4079985567004
 20
1877.0127457676447
 30
0.0
 11
641.873559677101
 21
1881.9179112490592
 31
0.0
  0
LINE
  5
38
330
17
100
AcDbEntity
  8
0
100
AcDbLine
 10
2051.324280710616
 20
946.679042073779
 30
0.0
 11
1943.9409167302779
 21
942.9291323729732
 31
0.0
  0
LINE
  5
39
330
17
100
AcDbEntity
  8
0
100
AcDbLine
 10
2051.9425788805424
 20
928.9732990754079
 30
0.0
 11
1602.2481835983906
 21
913.269624756029
 31
0.0
  0
LINE
  5
3A
330
17
100
AcDbEntity
  8
0
100
AcDbLine
 10
1943.9409167302779
 20
942.9291323729732
 30
0.0
 11
1936.1091399112129
 21
1167.2018770189918
 31
0.0
  0
LINE
  5
3B
330
17
100
AcDbEntity
  8
0
100
AcDbLine
 10
2043.4925038915512
 20
1170.9517867197976
 30
0.0
 11
1936.1091399112129
 21
1167.2018770189918
 31
0.0
  0
LINE
  5
3C
330
17
100
AcDbEntity
  8
0
100
AcDbLine
 10
1926.235173731911
 20
942.3108342030472
 30
0.0
 11
1918.403396912846
 21
1166.5835788490658
 31
0.0
  0
LINE
  5
3D
330
17
100
AcDbEntity
  8
0
100
AcDbLine
 10
1926.235173731911
 20
942.3108342030472
 30
0.0
 11
1619.3356284268316
 21
931.5936659243263
 31
0.0
  0
LINE
  5
3E
330
17
100
AcDbEntity
  8
0
100
AcDbLine
 10
554.746520682334
 20
349.59731644160513
 30
0.0
 11
567.5331677069007
 21
-16.564346393129085
 31
0.0
  0
LINE
  5
3F
330
17
100
AcDbEntity
  8
0
100
AcDbLine
 10
2042.874205721625
 20
1188.6575297181637
 30
0.0
 11
1829.2563837510702
 21
1181.1978309978008
 31
0.0
  0
LINE
  5
40
330
17
100
AcDbEntity
  8
0
100
AcDbLine
 10
1918.403396912846
 20
1166.5835788490658
 30
0.0
 11
1611.5038516077666
 21
1155.866410570345
 31
0.0
  0
LINE
  5
41
330
17
100
AcDbEntity
  8
0
100
AcDbLine
 10
1610.8855534378404
 20
1173.572153568711
 30
0.0
 11
1608.536020392121
 21
1240.8539769625177
 31
0.0
  0
LINE
  5
42
330
17
100
AcDbEntity
  8
0
100
AcDbLine
 10
1619.3356284268316
 20
931.5936659243263
 30
0.0
 11
1611.5038516077666
 21
1155.866410570345
 31
0.0
  0
LINE
  5
43
330
17
100
AcDbEntity
  8
0
100
AcDbLine
 10
1602.2481835983906
 20
913.269624756029
 30
0.0
 11
1590.8302773937535
 21
1240.2356787925914
 31
0.0
  0
LINE
  5
44
330
17
100
AcDbEntity
  8
0
100
AcDbLine
 10
1349.8297340612244
 20
1880.6401951038379
 30
0.0
 11
1566.2895064276913
 21
1604.5617857790585
 31
0.0
  0
LINE
  5
45
330
17
100
AcDbEntity
  8
0
100
AcDbLine
 10
1359.7225047800437
 20
1597.3483071299197
 30
0.0
 11
1556.396735708872
 21
1887.8536737529766
 31
0.0
  0
LINE
  5
46
330
17
100
AcDbEntity
  8
0
100
AcDbLine
 10
1829.2563837510702
 20
1181.1978309978008
 30
0.0
 11
1828.0197874112177
 21
1216.6093169945418
 31
0.0
  0
LINE
  5
47
330
17
100
AcDbEntity
  8
0
100
AcDbLine
 10
1811.5506407527005
 20
1180.5795328278746
 30
0.0
 11
1810.314044412848
 21
1215.9910188246156
 31
0.0
  0
LINE
  5
48
330
17
100
AcDbEntity
  8
0
100
AcDbLine
 10
1962.823231650992
 20
1417.499258202577
 30
0.0
 11
1950.457268252468
 21
1771.6141181699734
 31
0.0
  0
LINE
  5
49
330
17
100
AcDbEntity
  8
0
100
AcDbLine
 10
1974.6270603165722
 20
1417.9114569825279
 30
0.0
 11
1962.2610969180482
 21
1772.0263169499242
 31
0.0
  0
LINE
  5
4A
330
17
100
AcDbEntity
  8
0
100
AcDbLine
 10
1808.8113242655106
 20
1766.6677328105638
 30
0.0
 11
2022.4291462360654
 21
1774.1274315309267
 31
0.0
  0
LINE
  5
4B
330
17
100
AcDbEntity
  8
0
100
AcDbLine
 10
1810.047920605363
 20
1731.2562468138242
 30
0.0
 11
1951.6938645923206
 21
1736.2026321732337
 31
0.0
  0
LINE
  5
4C
330
17
100
AcDbEntity
  8
0
100
AcDbLine
 10
1811.2845169452153
 20
1695.8447608170845
 30
0.0
 11
1952.9304609321728
 21
1700.7911461764943
 31
0.0
  0
LINE
  5
4D
330
17
100
AcDbEntity
  8
0
100
AcDbLine
 10
1812.5211132850677
 20
1660.433274820346
 30
0.0
 11
1954.1670572720252
 21
1665.3796601797555
 31
0.0
  0
LINE
  5
4E
330
17
100
AcDbEntity
  8
0
100
AcDbLine
 10
1813.7577096249202
 20
1625.021788823603
 30
0.0
 11
1955.4036536118776
 21
1629.9681741830127
 31
0.0
  0
LINE
  5
4F
330
17
100
AcDbEntity
  8
0
100
AcDbLine
 10
1814.9943059647726
 20
1589.6103028268658
 30
0.0
 11
1956.64024995173
 21
1594.5566881862756
 31
0.0
  0
LINE
  5
50
330
17
100
AcDbEntity
  8
0
100
AcDbLine
 10
1816.230902304625
 20
1554.1988168301261
 30
0.0
 11
1887.0538742981043
 21
1556.672009509831
 31
0.0
  0
LINE
  5
51
330
17
100
AcDbEntity
  8
0
100
AcDbLine
 10
1821.1772876640346
 20
1412.5528728431677
 30
0.0
 11
2034.7951096345894
 21
1420.0125715635304
 31
0.0
  0
LINE
  5
52
330
17
100
AcDbEntity
  8
0
100
AcDbLine
 10
1828.0197874112177
 20
1216.6093169945418
 30
0.0
 11
1810.314044412848
 21
1215.9910188246156
 31
0.0
  0
LINE
  5
53
330
17
100
AcDbEntity
  8
0
100
AcDbLine
 10
1823.0734020518082
 20
1358.2552609815016
 30
0.0
 11
1805.3676590534385
 21
1357.6369628115754
 31
0.0
  0
LINE
  5
54
330
17
100
AcDbEntity
  8
0
100
AcDbLine
 10
1805.3676590534385
 20
1357.6369628115754
 30
0.0
 11
1786.1591959077314
 21
1907.6953786275958
 31
0.0
  0
LINE
  5
55
330
17
100
AcDbEntity
  8
0
100
AcDbLine
 10
1823.0734020518082
 20
1358.2552609815016
 30
0.0
 11
1803.864938906101
 21
1908.313676797522
 31
0.0
  0
LINE
  5
56
330
17
100
AcDbEntity
  8
0
100
AcDbLine
 10
1811.5506407527005
 20
1180.5795328278746
 30
0.0
 11
1610.8855534378404
 21
1173.572153568711
 31
0.0
  0
LINE
  5
57
330
17
100
AcDbEntity
  8
0
100
AcDbLine
 10
1963.4976932579007
 20
1736.6148309531845
 30
0.0
 11
2023.6657425759179
 21
1738.715945534187
 31
0.0
  0
LINE
  5
58
330
17
100
AcDbEntity
  8
0
100
AcDbLine
 10
1964.7342895977529
 20
1701.203344956445
 30
0.0
 11
2024.90233891577
 21
1703.3044595374477
 31
0.0
  0
LINE
  5
59
330
17
100
AcDbEntity
  8
0
100
AcDbLine
 10
1965.9708859376053
 20
1665.7918589597064
 30
0.0
 11
2026.1389352556225
 21
1667.892973540709
 31
0.0
  0
LINE
  5
5A
330
17
100
AcDbEntity
  8
0
100
AcDbLine
 10
1967.2074822774578
 20
1630.3803729629635
 30
0.0
 11
2027.375531595475
 21
1632.481487543966
 31
0.0
  0
LINE
  5
5B
330
17
100
AcDbEntity
  8
0
100
AcDbLine
 10
1968.4440786173102
 20
1594.9688869662264
 30
0.0
 11
2028.6121279353274
 21
1597.070001547229
 31
0.0
  0
LINE
  5
5C
330
17
100
AcDbEntity
  8
0
100
AcDbLine
 10
1969.6806749571626
 20
1559.5574009694865
 30
0.0
 11
2029.8487242751798
 21
1561.658515550489
 31
0.0
  0
LINE
  5
5D
330
17
100
AcDbEntity
  8
0
100
AcDbLine
 10
1970.9172712970148
 20
1524.1459149727466
 30
0.0
 11
2031.085320615032
 21
1526.2470295537491
 31
0.0
  0
LINE
  5
5E
330
17
100
AcDbEntity
  8
0
100
AcDbLine
 10
1972.1538676368673
 20
1488.7344289760083
 30
0.0
 11
2032.3219169548845
 21
1490.8355435570109
 31
0.0
  0
LINE
  5
5F
330
17
100
AcDbEntity
  8
0
100
AcDbLine
 10
1973.3904639767197
 20
1453.3229429792655
 30
0.0
 11
2033.558513294737
 21
1455.424057560268
 31
0.0
  0
LINE
  5
60
330
17
100
AcDbEntity
  8
0
100
AcDbLine
 10
2010.744267806907
 20
1750.5430059368578
 30
0.0
 11
2022.8012243347675
 21
1763.4725088554649
 31
0.0
  0
LINE
  5
61
330
17
100
AcDbEntity
  8
0
100
AcDbLine
 10
1879.63429625899
 20
1769.1409254902687
 30
0.0
 11
1887.0538742981043
 21
1556.672009509831
 31
0.0
  0
LINE
  5
62
330
17
100
AcDbEntity
  8
0
100
AcDbLine
 10
1863.097370605332
 20
1579.0118106144523
 30
0.0
 11
1887.0538742981043
 21
1556.672009509831
 31
0.0
  0
LINE
  5
63
330
17
100
AcDbEntity
  8
0
100
AcDbLine
 10
1909.3936754027236
 20
1580.6285132026019
 30
0.0
 11
1887.0538742981043
 21
1556.672009509831
 31
0.0
  0
LINE
  5
64
330
17
100
AcDbEntity
  8
0
100
AcDbLine
 10
1817.4674986444772
 20
1518.7873308333865
 30
0.0
 11
1956.64024995173
 21
1594.5566881862756
 31
0.0
  0
LINE
  5
65
330
17
100
AcDbEntity
  8
0
100
AcDbLine
 10
1282.8214562180856
 20
1904.3003050003874
 30
0.0
 11
1612.148275987766
 21
1915.8006509610148
 31
0.0
  0
LINE
  5
66
330
17
100
AcDbEntity
  8
0
100
AcDbLine
 10
1283.3160947540266
 20
1890.1357106016917
 30
0.0
 11
1612.642914523707
 21
1901.636056562319
 31
0.0
  0
LINE
  5
67
330
17
100
AcDbEntity
  8
0
100
AcDbLine
 10
542.8189323101413
 20
1097.2743095087574
 30
0.0
 11
528.6543379114482
 21
1096.7796709728166
 31
0.0
  0
LINE
  5
68
330
17
100
AcDbEntity
  8
0
100
AcDbLine
 10
546.5287213296986
 20
991.0398515185374
 30
0.0
 11
532.3641269310054
 21
990.5452129825966
 31
0.0
  0
LINE
  5
69
330
17
100
AcDbEntity
  8
0
100
AcDbLine
 10
552.4231638829951
 20
822.2451016007407
 30
0.0
 11
546.5287213296986
 21
991.0398515185374
 31
0.0
  0
LINE
  5
6A
330
17
100
AcDbEntity
  8
0
100
AcDbLine
 10
538.258569484302
 20
821.7504630647999
 30
0.0
 11
532.0755877850399
 21
998.8078930484988
 31
0.0
  0
LINE
  5
6B
330
17
100
AcDbEntity
  8
0
100
AcDbLine
 10
569.1996542269925
 20
341.8292749116446
 30
0.0
 11
581.6977621055938
 21
-16.06970785718829
 31
0.0
  0
LINE
  5
6C
330
17
100
AcDbEntity
  8
0
100
AcDbLine
 10
557.7817480223555
 20
668.7953289482043
 30
0.0
 11
565.4898652074353
 21
448.0637329018632
 31
0.0
  0
LINE
  5
6D
330
17
100
AcDbEntity
  8
0
100
AcDbLine
 10
565.4898652074353
 20
448.0637329018632
 30
0.0
 11
551.3252708087422
 21
447.5690943659224
 31
0.0
  0
LINE
  5
6E
330
17
100
AcDbEntity
  8
0
100
AcDbLine
 10
569.1996542269925
 20
341.8292749116446
 30
0.0
 11
555.0350598282994
 21
341.3346363757038
 31
0.0
  0
LINE
  5
6F
330
17
100
AcDbEntity
  8
0
100
AcDbLine
 10
534.2864175651598
 20
1341.6135628862596
 30
0.0
 11
520.1218231664667
 21
1341.1189243503188
 31
0.0
  0
LINE
  5
70
330
17
100
AcDbEntity
  8
0
100
AcDbLine
 10
530.5766285456027
 20
1447.848020876476
 30
0.0
 11
516.4120341469096
 21
1447.3533823405353
 31
0.0
  0
LINE
  5
71
330
17
100
AcDbEntity
  8
0
100
AcDbLine
 10
534.2864175651598
 20
1341.6135628862596
 30
0.0
 11
542.8189323101413
 21
1097.2743095087574
 31
0.0
  0
LINE
  5
72
330
17
100
AcDbEntity
  8
0
100
AcDbLine
 10
1612.642914523707
 20
1901.636056562319
 30
0.0
 11
1612.148275987766
 21
1915.8006509610148
 31
0.0
  0
LINE
  5
73
330
17
100
AcDbEntity
  8
0
100
AcDbLine
 10
1754.2888585106643
 20
1906.5824419217288
 30
0.0
 11
1753.7942199747233
 21
1920.7470363204243
 31
0.0
  0
LINE
  5
74
330
17
100
AcDbEntity
  8
0
100
AcDbLine
 10
1754.2888585106643
 20
1906.5824419217288
 30
0.0
 11
1933.7070542274823
 21
1912.847863376981
 31
0.0
  0
LINE
  5
75
330
17
100
AcDbEntity
  8
0
100
AcDbLine
 10
1753.7942199747233
 20
1920.7470363204243
 30
0.0
 11
1941.4750957574436
 21
1927.300996921642
 31
0.0
  0
LINE
  5
76
330
17
100
AcDbEntity
  8
0
100
AcDbLine
 10
1933.7070542274823
 20
1912.847863376981
 30
0.0
 11
1933.2124156915413
 21
1927.0124577756767
 31
0.0
  0
LINE
  5
77
330
17
100
AcDbEntity
  8
0
100
AcDbLine
 10
428.1118338835137
 20
1945.3625250814193
 30
0.0
 11
1002.958289897254
 21
1965.4366056650233
 31
0.0
  0
LINE
  5
78
330
17
100
AcDbEntity
  8
0
100
AcDbLine
 10
428.1118338835137
 20
1945.3625250814193
 30
0.0
 11
466.40510054094307
 21
848.7868420490454
 31
0.0
  0
LINE
  5
79
330
17
100
AcDbEntity
  8
0
100
AcDbLine
 10
473.82467858005737
 20
636.317926068609
 30
0.0
 11
496.71019571341884
 21
-19.037539072833965
 31
0.0
  0
LINE
  5
7A
330
17
100
AcDbEntity
  8
0
100
AcDbLine
 10
1082.6510074391736
 20
1883.1283313425283
 30
0.0
 11
1082.1563689032325
 21
1897.292925741224
 31
0.0
  0
LINE
  5
7B
330
17
100
AcDbEntity
  8
0
100
AcDbLine
 10
1283.3160947540266
 20
1890.1357106016917
 30
0.0
 11
1282.8214562180856
 21
1904.3003050003874
 31
0.0
  0
LINE
  5
7C
330
17
100
AcDbEntity
  8
0
100
AcDbLine
 10
552.4231638829951
 20
822.2451016007407
 30
0.0
 11
538.258569484302
 21
821.7504630647999
 31
0.0
  0
LINE
  5
7D
330
17
100
AcDbEntity
  8
0
100
AcDbLine
 10
557.7817480223555
 20
668.7953289482043
 30
0.0
 11
543.6171536236624
 21
668.3006904122635
 31
0.0
  0
LINE
  5
7E
330
17
100
AcDbEntity
  8
0
100
AcDbLine
 10
633.6108796111923
 20
1881.6293721030934
 30
0.0
 11
634.1055181471332
 21
1867.4647777043979
 31
0.0
  0
LINE
  5
7F
330
17
100
AcDbEntity
  8
0
100
AcDbLine
 10
822.4721382604732
 20
1888.2245525823064
 30
0.0
 11
822.9667767964141
 21
1874.059958183611
 31
0.0
  0
LINE
  5
80
330
17
100
AcDbEntity
  8
0
100
AcDbLine
 10
822.9667767964141
 20
1874.059958183611
 30
0.0
 11
1082.6510074391736
 21
1883.1283313425283
 31
0.0
  0
LINE
  5
81
330
17
100
AcDbEntity
  8
0
100
AcDbLine
 10
633.6108796111923
 20
1881.6293721030934
 30
0.0
 11
822.4721382604732
 21
1888.2245525823064
 31
0.0
  0
LINE
  5
82
330
17
100
AcDbEntity
  8
0
100
AcDbLine
 10
634.1055181471332
 20
1867.4647777043979
 30
0.0
 11
822.9667767964141
 21
1874.059958183611
 31
0.0
  0
LINE
  5
83
330
17
100
AcDbEntity
  8
0
100
AcDbLine
 10
538.258569484302
 20
821.7504630647999
 30
0.0
 11
543.6171536236624
 21
668.3006904122635
 31
0.0
  0
LINE
  5
84
330
17
100
AcDbEntity
  8
0
100
AcDbLine
 10
1082.1563689032325
 20
1897.292925741224
 30
0.0
 11
1282.8214562180856
 21
1904.3003050003874
 31
0.0
  0
LINE
  5
85
330
17
100
AcDbEntity
  8
0
100
AcDbLine
 10
293.05745957680574
 20
736.3694023595676
 30
0.0
 11
363.8804315702844
 21
738.8425950392723
 31
0.0
  0
LINE
  5
86
330
17
100
AcDbEntity
  8
0
100
AcDbLine
 10
341.54063046566137
 20
714.8860913464998
 30
0.0
 11
363.8804315702844
 21
738.8425950392723
 31
0.0
  0
LINE
  5
87
330
17
100
AcDbEntity
  8
0
100
AcDbLine
 10
339.9239278775121
 20
761.1823961438878
 30
0.0
 11
363.8804315702844
 21
738.8425950392723
 31
0.0
  0
LINE
  5
88
330
17
100
AcDbEntity
  8
0
100
AcDbLine
 10
360.1706425507273
 20
845.0770530294883
 30
0.0
 11
367.5902205898416
 21
632.608137049052
 31
0.0
  0
LINE
  5
89
330
17
100
AcDbEntity
  8
0
100
AcDbLine
 10
324.75915655398614
 20
843.8404566896359
 30
0.0
 11
332.17873459310044
 21
631.3715407091995
 31
0.0
  0
LINE
  5
8A
330
17
100
AcDbEntity
  8
0
100
AcDbLine
 10
289.34767055724524
 20
842.6038603497834
 30
0.0
 11
296.76724859635954
 21
630.1349443693471
 31
0.0
  0
LINE
  5
8B
330
17
100
AcDbEntity
  8
0
100
AcDbLine
 10
289.34767055724524
 20
842.6038603497834
 30
0.0
 11
537.228072534425
 21
851.2600347287503
 31
0.0
  0
LINE
  5
8C
330
17
100
AcDbEntity
  8
0
100
AcDbLine
 10
296.76724859635954
 20
630.1349443693471
 30
0.0
 11
544.6476505735393
 21
638.7911187483139
 31
0.0
  0
LINE
  5
8D
330
17
100
AcDbEntity
  8
0
100
AcDbLine
 10
1342.3315772466478
 20
1249.285247411994
 30
0.0
 11
1339.6522851769676
 21
1326.0101337382625
 31
0.0
  0
LINE
  5
8E
330
17
100
AcDbEntity
  8
0
100
AcDbLine
 10
1360.0373202450187
 20
1249.9035455819203
 30
0.0
 11
1357.3580281753384
 21
1326.6284319081888
 31
0.0
  0
LINE
  5
8F
330
17
100
AcDbEntity
  8
0
100
AcDbLine
 10
1353.2360403758305
 20
1444.6667185639894
 30
0.0
 11
1583.410699354639
 21
1452.70459477303
 31
0.0
  0
LINE
  5
90
330
17
100
AcDbEntity
  8
0
100
AcDbLine
 10
1352.6177422059043
 20
1462.3724615623582
 30
0.0
 11
1600.4981441830803
 21
1471.028635941325
 31
0.0
  0
LINE
  5
91
330
17
100
AcDbEntity
  8
0
100
AcDbLine
 10
1352.6177422059043
 20
1462.3724615623582
 30
0.0
 11
1337.6137066156953
 21
1892.0318249894653
 31
0.0
  0
LINE
  5
92
330
17
100
AcDbEntity
  8
0
100
AcDbLine
 10
1607.7940625882093
 20
1262.1008685605627
 30
0.0
 11
1600.4981441830803
 21
1471.028635941325
 31
0.0
  0
LINE
  5
93
330
17
100
AcDbEntity
  8
0
100
AcDbLine
 10
1590.0883195898418
 20
1261.4825703906365
 30
0.0
 11
1583.410699354639
 21
1452.70459477303
 31
0.0
  0
LINE
  5
94
330
17
100
AcDbEntity
  8
0
100
AcDbLine
 10
1360.0373202450187
 20
1249.9035455819203
 30
0.0
 11
1590.2119792238273
 21
1257.9414217909612
 31
0.0
  0
LINE
  5
95
330
17
100
AcDbEntity
  8
0
100
AcDbLine
 10
1080.9048790407007
 20
1222.428691498717
 30
0.0
 11
1105.6929192384232
 21
1223.2943089366138
 31
0.0
  0
LINE
  5
96
330
17
100
AcDbEntity
  8
0
100
AcDbLine
 10
1080.2865808707745
 20
1240.1344344970867
 30
0.0
 11
1105.074621068497
 21
1241.0000519349833
 31
0.0
  0
LINE
  5
97
330
17
100
AcDbEntity
  8
0
100
AcDbLine
 10
559.7377367187026
 20
1221.9564683012563
 30
0.0
 11
1059.0396892727333
 21
1239.392476693175
 31
0.0
  0
LINE
  5
98
330
17
100
AcDbEntity
  8
0
100
AcDbLine
 10
560.3560348886289
 20
1204.2507253028866
 30
0.0
 11
1059.6579874426595
 21
1221.6867336948055
 31
0.0
  0
LINE
  5
99
330
17
100
AcDbEntity
  8
0
100
AcDbLine
 10
529.0514930597848
 20
1491.5221869391216
 30
0.0
 11
1049.60033721186
 21
1509.700153134952
 31
0.0
  0
LINE
  5
9A
330
17
100
AcDbEntity
  8
0
100
AcDbLine
 10
529.6697912297109
 20
1473.8164439407542
 30
0.0
 11
1050.218635381786
 21
1491.9944101365845
 31
0.0
  0
LINE
  5
9B
330
17
100
AcDbEntity
  8
0
100
AcDbLine
 10
1049.60033721186
 20
1509.700153134952
 30
0.0
 11
1047.1271445321552
 21
1580.5231251284347
 31
0.0
  0
LINE
  5
9C
330
17
100
AcDbEntity
  8
0
100
AcDbLine
 10
1047.1271445321552
 20
1580.5231251284347
 30
0.0
 11
1064.8328875305224
 21
1581.141423298361
 31
0.0
  0
LINE
  5
9D
330
17
100
AcDbEntity
  8
0
100
AcDbLine
 10
1052.650608183496
 20
1422.3518210096631
 30
0.0
 11
1070.3563511818631
 21
1422.9701191795893
 31
0.0
  0
LINE
  5
9E
330
17
100
AcDbEntity
  8
0
100
AcDbLine
 10
1052.650608183496
 20
1422.3518210096631
 30
0.0
 11
1050.218635381786
 21
1491.9944101365845
 31
0.0
  0
LINE
  5
9F
330
17
100
AcDbEntity
  8
0
100
AcDbLine
 10
1070.3563511818631
 20
1422.9701191795893
 30
0.0
 11
1064.8328875305224
 21
1581.141423298361
 31
0.0
  0
LINE
  5
A0
330
17
100
AcDbEntity
  8
0
100
AcDbLine
 10
1043.005156732647
 20
1698.5614117842333
 30
0.0
 11
1037.358033447321
 21
1860.273864502678
 31
0.0
  0
LINE
  5
A1
330
17
100
AcDbEntity
  8
0
100
AcDbLine
 10
1060.7108997310143
 20
1699.1797099541595
 30
0.0
 11
1055.0637764456883
 21
1860.8921626726042
 31
0.0
  0
LINE
  5
A2
330
17
100
AcDbEntity
  8
0
100
AcDbLine
 10
1043.005156732647
 20
1698.5614117842333
 30
0.0
 11
1060.7108997310143
 21
1699.1797099541595
 31
0.0
  0
LINE
  5
A3
330
17
100
AcDbEntity
  8
0
100
AcDbLine
 10
1056.7725959830038
 20
1304.3135343538645
 30
0.0
 11
1074.478338981371
 21
1304.9318325237907
 31
0.0
  0
LINE
  5
A4
330
17
100
AcDbEntity
  8
0
100
AcDbLine
 10
1076.621772637115
 20
1243.5519234627768
 30
0.0
 11
1074.478338981371
 21
1304.9318325237907
 31
0.0
  0
LINE
  5
A5
330
17
100
AcDbEntity
  8
0
100
AcDbLine
 10
1058.916029638748
 20
1242.9336252928506
 30
0.0
 11
1056.7725959830038
 21
1304.3135343538645
 31
0.0
  0
LINE
  5
A6
330
17
100
AcDbEntity
  8
0
100
AcDbLine
 10
1105.074621068497
 20
1241.0000519349833
 30
0.0
 11
1105.6929192384232
 21
1223.2943089366138
 31
0.0
  0
LINE
  5
A7
330
17
100
AcDbEntity
  8
0
100
AcDbLine
 10
1305.73970838335
 20
1248.0074311941466
 30
0.0
 11
1306.3580065532763
 21
1230.3016881957772
 31
0.0
  0
LINE
  5
A8
330
17
100
AcDbEntity
  8
0
100
AcDbLine
 10
1305.73970838335
 20
1248.0074311941466
 30
0.0
 11
1342.3315772466478
 21
1249.285247411994
 31
0.0
  0
LINE
  5
A9
330
17
100
AcDbEntity
  8
0
100
AcDbLine
 10
1306.3580065532763
 20
1230.3016881957772
 30
0.0
 11
1590.8302773937535
 21
1240.2356787925914
 31
0.0
  0
LINE
  5
AA
330
17
100
AcDbEntity
  8
0
100
AcDbLine
 10
1335.9424961574105
 20
1432.2445917284822
 30
0.0
 11
1353.6482391557813
 21
1432.8628898984084
 31
0.0
  0
LINE
  5
AB
330
17
100
AcDbEntity
  8
0
100
AcDbLine
 10
1339.6522851769676
 20
1326.0101337382625
 30
0.0
 11
1357.3580281753384
 21
1326.6284319081888
 31
0.0
  0
LINE
  5
AC
330
17
100
AcDbEntity
  8
0
100
AcDbLine
 10
1353.6482391557813
 20
1432.8628898984084
 30
0.0
 11
1353.2360403758305
 21
1444.6667185639894
 31
0.0
  0
LINE
  5
AD
330
17
100
AcDbEntity
  8
0
100
AcDbLine
 10
1335.9424961574105
 20
1432.2445917284822
 30
0.0
 11
1319.9079636173244
 21
1891.4135268195391
 31
0.0
  0
LINE
  5
AE
330
17
100
AcDbEntity
  8
0
100
AcDbLine
 10
1005.4314825769588
 20
1894.6136336715438
 30
0.0
 11
1002.3517922449727
 21
1982.8044260512452
 31
0.0
  0
LINE
  5
AF
330
17
100
AcDbEntity
  8
0
100
AcDbLine
 10
1359.5463425443547
 20
1906.9795970700677
 30
0.0
 11
1356.4666522123684
 21
1995.1703894497691
 31
0.0
  0
LINE
  5
B0
330
17
100
AcDbEntity
  8
0
100
AcDbLine
 10
1000.0824824804372
 20
2047.7889552458782
 30
0.0
 11
1354.197342447833
 21
2060.154918644402
 31
0.0
  0
LINE
  5
B1
330
17
100
AcDbEntity
  8
0
100
AcDbLine
 10
1357.0731498646498
 20
1977.8025690635473
 30
0.0
 11
1574.2635973113204
 21
1985.3870266146419
 31
0.0
  0
LINE
  5
B2
330
17
100
AcDbEntity
  8
0
100
AcDbLine
 10
1355.7333477279305
 20
2016.1694823996322
 30
0.0
 11
1354.197342447833
 21
2060.154918644402
 31
0.0
  0
LINE
  5
B3
330
17
100
AcDbEntity
  8
0
100
AcDbLine
 10
1001.6184877605347
 20
2003.8035190011083
 30
0.0
 11
1000.0824824804372
 21
2047.7889552458782
 31
0.0
  0
LINE
  5
B4
330
17
100
AcDbEntity
  8
0
100
AcDbLine
 10
1796.0370230675637
 20
1286.4017920381416
 30
0.0
 11
1837.3504233970932
 21
1287.8444877679694
 31
0.0
  0
LINE
  5
B5
330
17
100
AcDbEntity
  8
0
100
AcDbLine
 10
1682.5590492012936
 20
1930.0776723062997
 30
0.0
 11
1683.878085297136
 21
1892.3054205764456
 31
0.0
  0
LINE
  5
B6
330
17
100
AcDbEntity
  8
0
100
AcDbLine
 10
1064.8328875305224
 20
1581.141423298361
 30
0.0
 11
1145.3838749394793
 21
1667.5217817573184
 31
0.0
  0
LINE
  5
B7
330
17
100
AcDbEntity
  8
0
100
AcDbLine
 10
1074.478338981371
 20
1304.9318325237907
 30
0.0
 11
1155.029326390328
 21
1391.3121909827507
 31
0.0
  0
LINE
  5
B8
330
17
100
AcDbEntity
  8
0
100
AcDbLine
 10
1339.6522851769676
 20
1326.0101337382625
 30
0.0
 11
1261.9099625639076
 21
1398.506022406324
 31
0.0
  0
LINE
  5
B9
330
17
100
AcDbEntity
  8
0
100
AcDbLine
 10
642.0796590670695
 20
1876.0159969162705
 30
0.0
 11
814.4155575845366
 21
1882.0340991035523
 31
0.0
  0
LINE
  5
BA
330
17
100
AcDbEntity
  8
0
100
AcDbLine
 10
814.4155575845366
 20
1882.0340991035523
 30
0.0
 11
814.312507889549
 21
1884.985056269946
 31
0.0
  0
LINE
  5
BB
330
17
100
AcDbEntity
  8
0
100
AcDbLine
 10
814.312507889549
 20
1884.985056269946
 30
0.0
 11
641.976609372082
 21
1878.9669540826642
 31
0.0
  0
LINE
  5
BC
330
17
100
AcDbEntity
  8
0
100
AcDbLine
 10
641.976609372082
 20
1878.9669540826642
 30
0.0
 11
642.0796590670695
 21
1876.0159969162705
 31
0.0
  0
LINE
  5
BD
330
17
100
AcDbEntity
  8
0
100
AcDbLine
 10
642.0796590670695
 20
1876.0159969162705
 30
0.0
 11
642.0796590670695
 21
1876.0159969162705
 31
0.0
  0
LINE
  5
BE
330
17
100
AcDbEntity
  8
0
100
AcDbLine
 10
1082.1563689032325
 20
1897.292925741224
 30
0.0
 11
814.2094581945643
 21
1887.9360134363405
 31
0.0
  0
LINE
  5
BF
330
17
100
AcDbEntity
  8
0
100
AcDbLine
 10
814.2094581945643
 20
1887.9360134363405
 30
0.0
 11
814.4155575845396
 21
1882.0340991035523
 31
0.0
  0
LINE
  5
C0
330
17
100
AcDbEntity
  8
0
100
AcDbLine
 10
814.4155575845396
 20
1882.0340991035523
 30
0.0
 11
822.6782376504485
 21
1882.3226382495181
 31
0.0
  0
LINE
  5
C1
330
17
100
AcDbEntity
  8
0
100
AcDbLine
 10
822.4721382604732
 20
1888.2245525823064
 30
0.0
 11
822.4721382604732
 21
1888.2245525823064
 31
0.0
  0
LINE
  5
C2
330
17
100
AcDbEntity
  8
0
100
AcDbLine
 10
633.8169790011676
 20
1875.7274577703051
 30
0.0
 11
642.0796590670762
 21
1876.0159969162708
 31
0.0
  0
LINE
  5
C3
330
17
100
AcDbEntity
  8
0
100
AcDbLine
 10
642.0796590670762
 20
1876.0159969162708
 30
0.0
 11
641.873559677101
 21
1881.9179112490592
 31
0.0
  0
LINE
  5
C4
330
17
100
AcDbEntity
  8
0
100
AcDbLine
 10
641.873559677101
 20
1881.9179112490592
 30
0.0
 11
641.873559677101
 21
1881.9179112490592
 31
0.0
  0
LINE
  5
C5
330
17
100
AcDbEntity
  8
0
100
AcDbLine
 10
1082.1563689032325
 20
1897.292925741224
 30
0.0
 11
1138.5420600894963
 21
1957.759176662494
 31
0.0
  0
LINE
  5
C6
330
17
100
AcDbEntity
  8
0
100
AcDbLine
 10
1282.8214562180856
 20
1904.3003050003874
 30
0.0
 11
1196.4410977591308
 21
1984.851292409347
 31
0.0
  0
LINE
  5
C7
330
17
100
AcDbEntity
  8
0
100
AcDbLine
 10
1105.6929192384232
 20
1223.2943089366138
 30
0.0
 11
1166.1591701596874
 21
1166.908617750344
 31
0.0
  0
LINE
  5
C8
330
17
100
AcDbEntity
  8
0
100
AcDbLine
 10
1306.3580065532763
 20
1230.3016881957772
 30
0.0
 11
1225.8070191443223
 21
1143.9213297368174
 31
0.0
  0
LINE
  5
C9
330
17
100
AcDbEntity
  8
0
100
AcDbLine
 10
538.258569484302
 20
821.7504630647999
 30
0.0
 11
465.76268081624227
 21
744.0081404517399
 31
0.0
  0
LINE
  5
CA
330
17
100
AcDbEntity
  8
0
100
AcDbLine
 10
543.6171536236624
 20
668.3006904122635
 30
0.0
 11
509.0650102400782
 21
700.521085375844
 31
0.0
  0
LINE
  5
CB
330
17
100
AcDbEntity
  8
0
100
AcDbLine
 10
1612.148275987766
 20
1915.8006509610148
 30
0.0
 11
1753.7942199747233
 21
1920.7470363204243
 31
0.0
  0
LINE
  5
CC
330
17
100
AcDbEntity
  8
0
100
AcDbLine
 10
1753.7942199747233
 20
1920.7470363204243
 30
0.0
 11
1754.2888585106643
 21
1906.5824419217288
 31
0.0
  0
LINE
  5
CD
330
17
100
AcDbEntity
  8
0
100
AcDbLine
 10
1754.2888585106643
 20
1906.5824419217288
 30
0.0
 11
1612.642914523707
 21
1901.636056562319
 31
0.0
  0
LINE
  5
CE
330
17
100
AcDbEntity
  8
0
100
AcDbLine
 10
1612.642914523707
 20
1901.636056562319
 30
0.0
 11
1612.148275987766
 21
1915.8006509610148
 31
0.0
  0
LINE
  5
CF
330
17
100
AcDbEntity
  8
0
100
AcDbLine
 10
1612.148275987766
 20
1915.8006509610148
 30
0.0
 11
1612.148275987766
 21
1915.8006509610148
 31
0.0
  0
LINE
  5
D0
330
17
100
AcDbEntity
  8
0
100
AcDbLine
 10
1805.3676590534385
 20
1357.6369628115754
 30
0.0
 11
1810.314044412848
 21
1215.9910188246156
 31
0.0
  0
LINE
  5
D1
330
17
100
AcDbEntity
  8
0
100
AcDbLine
 10
1810.314044412848
 20
1215.9910188246156
 30
0.0
 11
1828.0197874112177
 21
1216.6093169945418
 31
0.0
  0
LINE
  5
D2
330
17
100
AcDbEntity
  8
0
100
AcDbLine
 10
1828.0197874112177
 20
1216.6093169945418
 30
0.0
 11
1823.0734020518082
 21
1358.2552609815016
 31
0.0
  0
LINE
  5
D3
330
17
100
AcDbEntity
  8
0
100
AcDbLine
 10
1823.0734020518082
 20
1358.2552609815016
 30
0.0
 11
1805.3676590534385
 21
1357.6369628115754
 31
0.0
  0
LINE
  5
D4
330
17
100
AcDbEntity
  8
0
100
AcDbLine
 10
1805.3676590534385
 20
1357.6369628115754
 30
0.0
 11
1805.3676590534385
 21
1357.6369628115754
 31
0.0
  0
LINE
  5
D5
330
17
100
AcDbEntity
  8
0
100
AcDbLine
 10
1374.1103233955228
 20
1995.786520024144
 30
0.0
 11
1196.7763980634184
 21
1989.5938828945527
 31
0.0
  0
LINE
  5
D6
330
17
100
AcDbEntity
  8
0
100
AcDbLine
 10
1196.7763980634184
 20
1989.5938828945527
 30
0.0
 11
1192.2715648698377
 21
1965.0981499778627
 31
0.0
  0
LINE
  5
D7
330
17
100
AcDbEntity
  8
0
100
AcDbLine
 10
1192.2715648698377
 20
1965.0981499778627
 30
0.0
 11
1179.8663736770918
 21
2013.3417925059966
 31
0.0
  0
LINE
  5
D8
330
17
100
AcDbEntity
  8
0
100
AcDbLine
 10
1179.8663736770918
 20
2013.3417925059966
 30
0.0
 11
1175.3615404835114
 21
1988.8460595893062
 31
0.0
  0
LINE
  5
D9
330
17
100
AcDbEntity
  8
0
100
AcDbLine
 10
1175.3615404835114
 20
1988.8460595893062
 30
0.0
 11
986.1704394740882
 21
1982.2393607610684
 31
0.0
  0
LINE
  5
DA
330
17
100
AcDbEntity
  8
0
100
AcDbLine
 10
1373.3770189110846
 20
2016.7856129740076
 30
0.0
 11
1196.0430935789802
 21
2010.592975844418
 31
0.0
  0
LINE
  5
DB
330
17
100
AcDbEntity
  8
0
100
AcDbLine
 10
1196.0430935789802
 20
2010.592975844418
 30
0.0
 11
1191.5382603853998
 21
1986.097242927728
 31
0.0
  0
LINE
  5
DC
330
17
100
AcDbEntity
  8
0
100
AcDbLine
 10
1191.5382603853998
 20
1986.097242927728
 30
0.0
 11
1179.133069192654
 21
2034.340885455863
 31
0.0
  0
LINE
  5
DD
330
17
100
AcDbEntity
  8
0
100
AcDbLine
 10
1179.133069192654
 20
2034.340885455863
 30
0.0
 11
1174.6282359990732
 21
2009.8451525391715
 31
0.0
  0
LINE
  5
DE
330
17
100
AcDbEntity
  8
0
100
AcDbLine
 10
1174.6282359990732
 20
2009.8451525391715
 30
0.0
 11
985.4371349896502
 21
2003.2384537109315
 31
0.0
  0
LINE
  5
DF
330
17
100
AcDbEntity
  8
0
100
AcDbLine
 10
367.5902205898416
 20
632.608137049052
 30
0.0
 11
360.1706425507273
 21
845.0770530294883
 31
0.0
  0
LINE
  5
E0
330
17
100
AcDbEntity
  8
0
100
AcDbLine
 10
1596.2224595226794
 20
2033.426738836864
 30
0.0
 11
1613.9282025210457
 21
2034.0450370067902
 31
0.0
  0
LINE
  5
E1
330
17
100
AcDbEntity
  8
0
100
AcDbLine
 10
1613.9282025210457
 20
2034.0450370067902
 30
0.0
 11
1614.546500690972
 21
2016.339294008419
 31
0.0
  0
LINE
  5
E2
330
17
100
AcDbEntity
  8
0
100
AcDbLine
 10
1614.546500690972
 20
2016.339294008419
 30
0.0
 11
1596.8407576926056
 21
2015.7209958384929
 31
0.0
  0
LINE
  5
E3
330
17
100
AcDbEntity
  8
0
100
AcDbLine
 10
1596.8407576926056
 20
2015.7209958384929
 30
0.0
 11
1596.2224595226794
 21
2033.426738836864
 31
0.0
  0
LINE
  5
E4
330
17
100
AcDbEntity
  8
0
100
AcDbLine
 10
1596.2224595226794
 20
2033.426738836864
 30
0.0
 11
1596.2224595226794
 21
2033.426738836864
 31
0.0
  0
LINE
  5
E5
330
17
100
AcDbEntity
  8
0
100
AcDbLine
 10
1935.5825336580995
 20
2045.2774537604496
 30
0.0
 11
1953.288276656467
 21
2045.8957519303758
 31
0.0
  0
LINE
  5
E6
330
17
100
AcDbEntity
  8
0
100
AcDbLine
 10
1953.288276656467
 20
2045.8957519303758
 30
0.0
 11
1953.9065748263931
 21
2028.1900089320047
 31
0.0
  0
LINE
  5
E7
330
17
100
AcDbEntity
  8
0
100
AcDbLine
 10
1953.9065748263931
 20
2028.1900089320047
 30
0.0
 11
1936.2008318280257
 21
2027.5717107620785
 31
0.0
  0
LINE
  5
E8
330
17
100
AcDbEntity
  8
0
100
AcDbLine
 10
1936.2008318280257
 20
2027.5717107620785
 30
0.0
 11
1935.5825336580995
 21
2045.2774537604496
 31
0.0
  0
LINE
  5
E9
330
17
100
AcDbEntity
  8
0
100
AcDbLine
 10
1935.5825336580995
 20
2045.2774537604496
 30
0.0
 11
1935.5825336580995
 21
2045.2774537604496
 31
0.0
  0
LINE
  5
EA
330
17
100
AcDbEntity
  8
0
100
AcDbLine
 10
1933.7070542274823
 20
1912.847863376981
 30
0.0
 11
1933.2124156915413
 21
1927.0124577756767
 31
0.0
  0
LINE
  5
EB
330
17
100
AcDbEntity
  8
0
100
AcDbLine
 10
1933.2124156915413
 20
1927.0124577756767
 30
0.0
 11
2016.9881223407149
 21
1929.9379699165806
 31
0.0
  0
LINE
  5
EC
330
17
100
AcDbEntity
  8
0
100
AcDbLine
 10
2017.482760876656
 20
1915.7733755178851
 30
0.0
 11
1933.7070542274823
 21
1912.847863376981
 31
0.0
  0
LINE
  5
ED
330
17
100
AcDbEntity
  8
0
100
AcDbLine
 10
1933.7070542274823
 20
1912.847863376981
 30
0.0
 11
1933.7070542274823
 21
1912.847863376981
 31
0.0
  0
LINE
  5
EE
330
17
100
AcDbEntity
  8
0
100
AcDbLine
 10
1576.7367899910253
 20
1914.5640546211623
 30
0.0
 11
1571.7904046316155
 21
2056.2099986081225
 31
0.0
  0
LINE
  5
EF
330
17
100
AcDbEntity
  8
0
100
AcDbLine
 10
1571.7904046316155
 20
2056.2099986081225
 30
0.0
 11
2012.0417369813051
 21
2071.5839139035406
 31
0.0
  0
LINE
  5
F0
330
17
100
AcDbEntity
  8
0
100
AcDbLine
 10
530.5766285456027
 20
1447.848020876476
 30
0.0
 11
516.4120341469096
 21
1447.3533823405353
 31
0.0
  0
LINE
  5
F1
330
17
100
AcDbEntity
  8
0
100
AcDbLine
 10
516.4120341469096
 20
1447.3533823405353
 30
0.0
 11
520.1218231664667
 21
1341.1189243503188
 31
0.0
  0
LINE
  5
F2
330
17
100
AcDbEntity
  8
0
100
AcDbLine
 10
520.1218231664667
 20
1341.1189243503188
 30
0.0
 11
534.2864175651598
 21
1341.6135628862596
 31
0.0
  0
LINE
  5
F3
330
17
100
AcDbEntity
  8
0
100
AcDbLine
 10
534.2864175651598
 20
1341.6135628862596
 30
0.0
 11
530.5766285456027
 21
1447.848020876476
 31
0.0
  0
LINE
  5
F4
330
17
100
AcDbEntity
  8
0
100
AcDbLine
 10
530.5766285456027
 20
1447.848020876476
 30
0.0
 11
530.5766285456027
 21
1447.848020876476
 31
0.0
  0
LINE
  5
F5
330
17
100
AcDbEntity
  8
0
100
AcDbLine
 10
565.4898652074353
 20
448.0637329018632
 30
0.0
 11
551.3252708087422
 21
447.5690943659224
 31
0.0
  0
LINE
  5
F6
330
17
100
AcDbEntity
  8
0
100
AcDbLine
 10
551.3252708087422
 20
447.5690943659224
 30
0.0
 11
555.0350598282994
 21
341.3346363757038
 31
0.0
  0
LINE
  5
F7
330
17
100
AcDbEntity
  8
0
100
AcDbLine
 10
555.0350598282994
 20
341.3346363757038
 30
0.0
 11
569.1996542269925
 21
341.8292749116446
 31
0.0
  0
LINE
  5
F8
330
17
100
AcDbEntity
  8
0
100
AcDbLine
 10
569.1996542269925
 20
341.8292749116446
 30
0.0
 11
565.4898652074353
 21
448.0637329018632
 31
0.0
  0
LINE
  5
F9
330
17
100
AcDbEntity
  8
0
100
AcDbLine
 10
565.4898652074353
 20
448.0637329018632
 30
0.0
 11
565.4898652074353
 21
448.0637329018632
 31
0.0
  0
LINE
  5
FA
330
17
100
AcDbEntity
  8
0
100
AcDbLine
 10
542.8189323101413
 20
1097.2743095087574
 30
0.0
 11
528.6543379114482
 21
1096.7796709728166
 31
0.0
  0
LINE
  5
FB
330
17
100
AcDbEntity
  8
0
100
AcDbLine
 10
528.6543379114482
 20
1096.7796709728166
 30
0.0
 11
532.3641269310054
 21
990.5452129825966
 31
0.0
  0
LINE
  5
FC
330
17
100
AcDbEntity
  8
0
100
AcDbLine
 10
532.3641269310054
 20
990.5452129825966
 30
0.0
 11
546.5287213296986
 21
991.0398515185374
 31
0.0
  0
LINE
  5
FD
330
17
100
AcDbEntity
  8
0
100
AcDbLine
 10
546.5287213296986
 20
991.0398515185374
 30
0.0
 11
542.8189323101413
 21
1097.2743095087574
 31
0.0
  0
LINE
  5
FE
330
17
100
AcDbEntity
  8
0
100
AcDbLine
 10
542.8189323101413
 20
1097.2743095087574
 30
0.0
 11
542.8189323101413
 21
1097.2743095087574
 31
0.0
  0
LINE
  5
FF
330
17
100
AcDbEntity
  8
0
100
AcDbLine
 10
1349.8297340612244
 20
1880.6401951038379
 30
0.0
 11
1359.7225047800437
 21
1597.3483071299197
 31
0.0
  0
LINE
  5
100
330
17
100
AcDbEntity
  8
0
100
AcDbLine
 10
1359.7225047800437
 20
1597.3483071299197
 30
0.0
 11
1566.2895064276913
 21
1604.5617857790585
 31
0.0
  0
LINE
  5
101
330
17
100
AcDbEntity
  8
0
100
AcDbLine
 10
1566.2895064276913
 20
1604.5617857790585
 30
0.0
 11
1556.396735708872
 21
1887.8536737529766
 31
0.0
  0
LINE
  5
102
330
17
100
AcDbEntity
  8
0
100
AcDbLine
 10
1556.396735708872
 20
1887.8536737529766
 30
0.0
 11
1349.8297340612244
 21
1880.6401951038379
 31
0.0
  0
LINE
  5
103
330
17
100
AcDbEntity
  8
0
100
AcDbLine
 10
1349.8297340612244
 20
1880.6401951038379
 30
0.0
 11
1349.8297340612244
 21
1880.6401951038379
 31
0.0
  0
LINE
  5
104
330
17
100
AcDbEntity
  8
0
100
AcDbLine
 10
1612.7592524871359
 20
612.271993783741
 30
0.0
 11
1634.0061440851773
 21
613.0139515876524
 31
0.0
  0
LINE
  5
105
330
17
100
AcDbEntity
  8
0
100
AcDbLine
 10
1634.0061440851773
 20
613.0139515876524
 30
0.0
 11
1634.7481018890887
 21
591.7670599896112
 31
0.0
  0
LINE
  5
106
330
17
100
AcDbEntity
  8
0
100
AcDbLine
 10
1634.7481018890887
 20
591.7670599896112
 30
0.0
 11
1613.5012102910473
 21
591.0251021856998
 31
0.0
  0
LINE
  5
107
330
17
100
AcDbEntity
  8
0
100
AcDbLine
 10
1613.5012102910473
 20
591.0251021856998
 30
0.0
 11
1612.7592524871359
 21
612.271993783741
 31
0.0
  0
LINE
  5
108
330
17
100
AcDbEntity
  8
0
100
AcDbLine
 10
1612.7592524871359
 20
612.271993783741
 30
0.0
 11
1612.7592524871359
 21
612.271993783741
 31
0.0
  0
LINE
  5
109
330
17
100
AcDbEntity
  8
0
100
AcDbLine
 10
1081.586962536042
 20
593.7230486859551
 30
0.0
 11
1102.8338541340831
 21
594.4650064898665
 31
0.0
  0
LINE
  5
10A
330
17
100
AcDbEntity
  8
0
100
AcDbLine
 10
1102.8338541340831
 20
594.4650064898665
 30
0.0
 11
1103.5758119379946
 21
573.2181148918253
 31
0.0
  0
LINE
  5
10B
330
17
100
AcDbEntity
  8
0
100
AcDbLine
 10
1103.5758119379946
 20
573.2181148918253
 30
0.0
 11
1082.3289203399534
 21
572.4761570879139
 31
0.0
  0
LINE
  5
10C
330
17
100
AcDbEntity
  8
0
100
AcDbLine
 10
1082.3289203399534
 20
572.4761570879139
 30
0.0
 11
1081.586962536042
 21
593.7230486859551
 31
0.0
  0
LINE
  5
10D
330
17
100
AcDbEntity
  8
0
100
AcDbLine
 10
1081.586962536042
 20
593.7230486859551
 30
0.0
 11
1081.586962536042
 21
593.7230486859551
 31
0.0
  0
LINE
  5
10E
330
17
100
AcDbEntity
  8
0
100
AcDbLine
 10
561.0381183839667
 20
575.5450824901247
 30
0.0
 11
582.2850099820114
 21
576.2870402940363
 31
0.0
  0
LINE
  5
10F
330
17
100
AcDbEntity
  8
0
100
AcDbLine
 10
582.2850099820114
 20
576.2870402940363
 30
0.0
 11
583.0269677859228
 21
555.0401486959951
 31
0.0
  0
LINE
  5
110
330
17
100
AcDbEntity
  8
0
100
AcDbLine
 10
583.0269677859228
 20
555.0401486959951
 30
0.0
 11
561.7800761878781
 21
554.2981908920835
 31
0.0
  0
LINE
  5
111
330
17
100
AcDbEntity
  8
0
100
AcDbLine
 10
561.7800761878781
 20
554.2981908920835
 30
0.0
 11
561.0381183839667
 21
575.5450824901247
 31
0.0
  0
LINE
  5
112
330
17
100
AcDbEntity
  8
0
100
AcDbLine
 10
561.0381183839667
 20
575.5450824901247
 30
0.0
 11
561.0381183839667
 21
575.5450824901247
 31
0.0
  0
LINE
  5
113
330
17
100
AcDbEntity
  8
0
100
AcDbLine
 10
1590.0883195898418
 20
1261.4825703906365
 30
0.0
 11
1611.3352111878833
 21
1262.224528194548
 31
0.0
  0
LINE
  5
114
330
17
100
AcDbEntity
  8
0
100
AcDbLine
 10
1611.3352111878833
 20
1262.224528194548
 30
0.0
 11
1612.077168991795
 21
1240.9776365965029
 31
0.0
  0
LINE
  5
115
330
17
100
AcDbEntity
  8
0
100
AcDbLine
 10
1612.077168991795
 20
1240.9776365965029
 30
0.0
 11
1590.8302773937535
 21
1240.2356787925914
 31
0.0
  0
LINE
  5
116
330
17
100
AcDbEntity
  8
0
100
AcDbLine
 10
1590.8302773937535
 20
1240.2356787925914
 30
0.0
 11
1590.0883195898418
 21
1261.4825703906365
 31
0.0
  0
LINE
  5
117
330
17
100
AcDbEntity
  8
0
100
AcDbLine
 10
1590.0883195898418
 20
1261.4825703906365
 30
0.0
 11
1590.0883195898418
 21
1261.4825703906365
 31
0.0
  0
LINE
  5
118
330
17
100
AcDbEntity
  8
0
100
AcDbLine
 10
1567.7883655945038
 20
1900.0697011985062
 30
0.0
 11
1589.0352571925453
 21
1900.8116590024174
 31
0.0
  0
LINE
  5
119
330
17
100
AcDbEntity
  8
0
100
AcDbLine
 10
1589.0352571925453
 20
1900.8116590024174
 30
0.0
 11
1589.7772149964565
 21
1879.5647674043753
 31
0.0
  0
LINE
  5
11A
330
17
100
AcDbEntity
  8
0
100
AcDbLine
 10
1589.7772149964565
 20
1879.5647674043753
 30
0.0
 11
1568.530323398415
 21
1878.8228096004636
 31
0.0
  0
LINE
  5
11B
330
17
100
AcDbEntity
  8
0
100
AcDbLine
 10
1568.530323398415
 20
1878.8228096004636
 30
0.0
 11
1567.7883655945038
 21
1900.0697011985062
 31
0.0
  0
LINE
  5
11C
330
17
100
AcDbEntity
  8
0
100
AcDbLine
 10
1567.7883655945038
 20
1900.0697011985062
 30
0.0
 11
1567.7883655945038
 21
1900.0697011985062
 31
0.0
  0
LINE
  5
11D
330
17
100
AcDbEntity
  8
0
100
AcDbLine
 10
1058.916029638748
 20
1242.9336252928506
 30
0.0
 11
1080.162921236789
 21
1243.675583096762
 31
0.0
  0
LINE
  5
11E
330
17
100
AcDbEntity
  8
0
100
AcDbLine
 10
1080.162921236789
 20
1243.675583096762
 30
0.0
 11
1080.9048790407007
 21
1222.428691498717
 31
0.0
  0
LINE
  5
11F
330
17
100
AcDbEntity
  8
0
100
AcDbLine
 10
1080.9048790407007
 20
1222.428691498717
 30
0.0
 11
1059.6579874426595
 21
1221.6867336948055
 31
0.0
  0
LINE
  5
120
330
17
100
AcDbEntity
  8
0
100
AcDbLine
 10
1059.6579874426595
 20
1221.6867336948055
 30
0.0
 11
1058.916029638748
 21
1242.9336252928506
 31
0.0
  0
LINE
  5
121
330
17
100
AcDbEntity
  8
0
100
AcDbLine
 10
1058.916029638748
 20
1242.9336252928506
 30
0.0
 11
1058.916029638748
 21
1242.9336252928506
 31
0.0
  0
LINE
  5
122
330
17
100
AcDbEntity
  8
0
100
AcDbLine
 10
538.3671854866727
 20
1224.7556590970203
 30
0.0
 11
559.6140770847175
 21
1225.4976169009317
 31
0.0
  0
LINE
  5
123
330
17
100
AcDbEntity
  8
0
100
AcDbLine
 10
559.6140770847175
 20
1225.4976169009317
 30
0.0
 11
560.3560348886289
 21
1204.2507253028866
 31
0.0
  0
LINE
  5
124
330
17
100
AcDbEntity
  8
0
100
AcDbLine
 10
560.3560348886289
 20
1204.2507253028866
 30
0.0
 11
539.1091432905841
 21
1203.5087674989752
 31
0.0
  0
LINE
  5
125
330
17
100
AcDbEntity
  8
0
100
AcDbLine
 10
539.1091432905841
 20
1203.5087674989752
 30
0.0
 11
538.3671854866727
 21
1224.7556590970203
 31
0.0
  0
LINE
  5
126
330
17
100
AcDbEntity
  8
0
100
AcDbLine
 10
538.3671854866727
 20
1224.7556590970203
 30
0.0
 11
538.3671854866727
 21
1224.7556590970203
 31
0.0
  0
LINE
  5
127
330
17
100
AcDbEntity
  8
0
100
AcDbLine
 10
1036.6160756434099
 20
1881.52075610072
 30
0.0
 11
1057.862967241451
 21
1882.2627139046317
 31
0.0
  0
LINE
  5
128
330
17
100
AcDbEntity
  8
0
100
AcDbLine
 10
1057.862967241451
 20
1882.2627139046317
 30
0.0
 11
1058.6049250453623
 21
1861.0158223065891
 31
0.0
  0
LINE
  5
129
330
17
100
AcDbEntity
  8
0
100
AcDbLine
 10
1058.6049250453623
 20
1861.0158223065891
 30
0.0
 11
1037.358033447321
 21
1860.273864502678
 31
0.0
  0
LINE
  5
12A
330
17
100
AcDbEntity
  8
0
100
AcDbLine
 10
1037.358033447321
 20
1860.273864502678
 30
0.0
 11
1036.6160756434099
 21
1881.52075610072
 31
0.0
  0
LINE
  5
12B
330
17
100
AcDbEntity
  8
0
100
AcDbLine
 10
1036.6160756434099
 20
1881.52075610072
 30
0.0
 11
1036.6160756434099
 21
1881.52075610072
 31
0.0
  0
LINE
  5
12C
330
17
100
AcDbEntity
  8
0
100
AcDbLine
 10
516.0672314913345
 20
1863.3427899048897
 30
0.0
 11
537.3141230893792
 21
1864.0847477088014
 31
0.0
  0
LINE
  5
12D
330
17
100
AcDbEntity
  8
0
100
AcDbLine
 10
537.3141230893792
 20
1864.0847477088014
 30
0.0
 11
538.0560808932906
 21
1842.837856110759
 31
0.0
  0
LINE
  5
12E
330
17
100
AcDbEntity
  8
0
100
AcDbLine
 10
538.0560808932906
 20
1842.837856110759
 30
0.0
 11
516.8091892952459
 21
1842.0958983068476
 31
0.0
  0
LINE
  5
12F
330
17
100
AcDbEntity
  8
0
100
AcDbLine
 10
516.8091892952459
 20
1842.0958983068476
 30
0.0
 11
516.0672314913345
 21
1863.3427899048897
 31
0.0
  0
LINE
  5
130
330
17
100
AcDbEntity
  8
0
100
AcDbLine
 10
516.0672314913345
 20
1863.3427899048897
 30
0.0
 11
516.0672314913345
 21
1863.3427899048897
 31
0.0
  0
LINE
  5
131
330
17
100
AcDbEntity
  8
0
100
AcDbLine
 10
2017.0911720357026
 20
1926.9870127501872
 30
0.0
 11
1941.5781454524313
 21
1924.3500397552489
 31
0.0
  0
LINE
  5
132
330
17
100
AcDbEntity
  8
0
100
AcDbLine
 10
1941.5781454524313
 20
1924.3500397552489
 30
0.0
 11
1941.681195147419
 21
1921.3990825888536
 31
0.0
  0
LINE
  5
133
330
17
100
AcDbEntity
  8
0
100
AcDbLine
 10
1941.681195147419
 20
1921.3990825888536
 30
0.0
 11
2017.1942217306903
 21
1924.0360555837924
 31
0.0
  0
LINE
  5
134
330
17
100
AcDbEntity
  8
0
100
AcDbLine
 10
1941.4750957574436
 20
1927.300996921642
 30
0.0
 11
1941.681195147419
 21
1921.3990825888536
 31
0.0
  0
LINE
  5
135
330
17
100
AcDbEntity
  8
0
100
AcDbLine
 10
1941.681195147419
 20
1921.3990825888536
 30
0.0
 11
1933.418515081514
 21
1921.1105434428882
 31
0.0
  0
LINE
  5
136
330
17
100
AcDbEntity
  8
0
100
AcDbLine
 10
1933.2124156915386
 20
1927.0124577756765
 30
0.0
 11
1933.2124156915386
 21
1927.0124577756765
 31
0.0
  0
LINE
  5
137
330
17
100
AcDbEntity
  8
0
100
AcDbLine
 10
526.0237374992564
 20
1341.3250237402965
 30
0.0
 11
525.7351983532909
 21
1349.5877038062015
 31
0.0
  0
LINE
  5
138
330
17
100
AcDbEntity
  8
0
100
AcDbLine
 10
525.7351983532909
 20
1349.5877038062015
 30
0.0
 11
519.8332840205011
 21
1349.381604416226
 31
0.0
  0
LINE
  5
139
330
17
100
AcDbEntity
  8
0
100
AcDbLine
 10
519.8332840205011
 20
1349.381604416226
 30
0.0
 11
519.8332840205011
 21
1349.381604416226
 31
0.0
  0
LINE
  5
13A
330
17
100
AcDbEntity
  8
0
100
AcDbLine
 10
522.7842411868961
 20
1349.4846541112138
 30
0.0
 11
519.65153045927
 21
1439.193751969623
 31
0.0
  0
LINE
  5
13B
330
17
100
AcDbEntity
  8
0
100
AcDbLine
 10
519.65153045927
 20
1439.193751969623
 30
0.0
 11
522.6024876256648
 21
1439.2968016646107
 31
0.0
  0
LINE
  5
13C
330
17
100
AcDbEntity
  8
0
100
AcDbLine
 10
522.6024876256648
 20
1439.2968016646107
 30
0.0
 11
525.7351983532909
 21
1349.5877038062015
 31
0.0
  0
LINE
  5
13D
330
17
100
AcDbEntity
  8
0
100
AcDbLine
 10
525.7351983532909
 20
1349.5877038062015
 30
0.0
 11
522.7842411868961
 21
1349.4846541112138
 31
0.0
  0
LINE
  5
13E
330
17
100
AcDbEntity
  8
0
100
AcDbLine
 10
522.7842411868961
 20
1349.4846541112138
 30
0.0
 11
522.7842411868961
 21
1349.4846541112138
 31
0.0
  0
LINE
  5
13F
330
17
100
AcDbEntity
  8
0
100
AcDbLine
 10
501.4079985567004
 20
1877.0127457676447
 30
0.0
 11
516.700573292875
 21
1439.0907022746353
 31
0.0
  0
LINE
  5
140
330
17
100
AcDbEntity
  8
0
100
AcDbLine
 10
516.700573292875
 20
1439.0907022746353
 30
0.0
 11
522.6024876256648
 21
1439.2968016646107
 31
0.0
  0
LINE
  5
141
330
17
100
AcDbEntity
  8
0
100
AcDbLine
 10
522.6024876256648
 20
1439.2968016646107
 30
0.0
 11
522.3139484796992
 21
1447.5594817305152
 31
0.0
  0
LINE
  5
142
330
17
100
AcDbEntity
  8
0
100
AcDbLine
 10
516.4120341469094
 20
1447.3533823405398
 30
0.0
 11
516.4120341469094
 21
1447.3533823405398
 31
0.0
  0
LINE
  5
143
330
17
100
AcDbEntity
  8
0
100
AcDbLine
 10
560.9369741610893
 20
341.5407357656753
 30
0.0
 11
560.6484350151238
 21
349.80341583158054
 31
0.0
  0
LINE
  5
144
330
17
100
AcDbEntity
  8
0
100
AcDbLine
 10
560.6484350151238
 20
349.80341583158054
 30
0.0
 11
554.746520682334
 21
349.59731644160513
 31
0.0
  0
LINE
  5
145
330
17
100
AcDbEntity
  8
0
100
AcDbLine
 10
554.746520682334
 20
349.59731644160513
 30
0.0
 11
554.746520682334
 21
349.59731644160513
 31
0.0
  0
LINE
  5
146
330
17
100
AcDbEntity
  8
0
100
AcDbLine
 10
557.697477848729
 20
349.70036613659283
 30
0.0
 11
554.5647671211028
 21
439.40946399500194
 31
0.0
  0
LINE
  5
147
330
17
100
AcDbEntity
  8
0
100
AcDbLine
 10
554.5647671211028
 20
439.40946399500194
 30
0.0
 11
557.5157242874976
 21
439.51251368998965
 31
0.0
  0
LINE
  5
148
330
17
100
AcDbEntity
  8
0
100
AcDbLine
 10
557.5157242874976
 20
439.51251368998965
 30
0.0
 11
560.6484350151238
 21
349.80341583158054
 31
0.0
  0
LINE
  5
149
330
17
100
AcDbEntity
  8
0
100
AcDbLine
 10
560.6484350151238
 20
349.80341583158054
 30
0.0
 11
557.697477848729
 21
349.70036613659283
 31
0.0
  0
LINE
  5
14A
330
17
100
AcDbEntity
  8
0
100
AcDbLine
 10
557.697477848729
 20
349.70036613659283
 30
0.0
 11
557.697477848729
 21
349.70036613659283
 31
0.0
  0
LINE
  5
14B
330
17
100
AcDbEntity
  8
0
100
AcDbLine
 10
543.6171536236624
 20
668.3006904122635
 30
0.0
 11
551.6138099547078
 21
439.30641430001424
 31
0.0
  0
LINE
  5
14C
330
17
100
AcDbEntity
  8
0
100
AcDbLine
 10
551.6138099547078
 20
439.30641430001424
 30
0.0
 11
557.5157242874976
 21
439.51251368998965
 31
0.0
  0
LINE
  5
14D
330
17
100
AcDbEntity
  8
0
100
AcDbLine
 10
557.5157242874976
 20
439.51251368998965
 30
0.0
 11
557.2271851415321
 21
447.77519375589577
 31
0.0
  0
LINE
  5
14E
330
17
100
AcDbEntity
  8
0
100
AcDbLine
 10
551.3252708087423
 20
447.56909436592036
 30
0.0
 11
551.3252708087423
 21
447.56909436592036
 31
0.0
  0
LINE
  5
14F
330
17
100
AcDbEntity
  8
0
100
AcDbLine
 10
538.2660412637954
 20
990.7513123725683
 30
0.0
 11
537.9775021178298
 21
999.0139924384742
 31
0.0
  0
LINE
  5
150
330
17
100
AcDbEntity
  8
0
100
AcDbLine
 10
537.9775021178298
 20
999.0139924384742
 30
0.0
 11
532.0755877850399
 21
998.8078930484988
 31
0.0
  0
LINE
  5
151
330
17
100
AcDbEntity
  8
0
100
AcDbLine
 10
532.0755877850399
 20
998.8078930484988
 30
0.0
 11
532.0755877850399
 21
998.8078930484988
 31
0.0
  0
LINE
  5
152
330
17
100
AcDbEntity
  8
0
100
AcDbLine
 10
535.026544951435
 20
998.9109427434865
 30
0.0
 11
531.8938342238089
 21
1088.620040601896
 31
0.0
  0
LINE
  5
153
330
17
100
AcDbEntity
  8
0
100
AcDbLine
 10
531.8938342238089
 20
1088.620040601896
 30
0.0
 11
534.8447913902037
 21
1088.7230902968838
 31
0.0
  0
LINE
  5
154
330
17
100
AcDbEntity
  8
0
100
AcDbLine
 10
534.8447913902037
 20
1088.7230902968838
 30
0.0
 11
537.9775021178298
 21
999.0139924384742
 31
0.0
  0
LINE
  5
155
330
17
100
AcDbEntity
  8
0
100
AcDbLine
 10
537.9775021178298
 20
999.0139924384742
 30
0.0
 11
535.026544951435
 21
998.9109427434865
 31
0.0
  0
LINE
  5
156
330
17
100
AcDbEntity
  8
0
100
AcDbLine
 10
535.026544951435
 20
998.9109427434865
 30
0.0
 11
535.026544951435
 21
998.9109427434865
 31
0.0
  0
LINE
  5
157
330
17
100
AcDbEntity
  8
0
100
AcDbLine
 10
519.8332840205011
 20
1349.381604416226
 30
0.0
 11
528.9428770574139
 21
1088.5169909069084
 31
0.0
  0
LINE
  5
158
330
17
100
AcDbEntity
  8
0
100
AcDbLine
 10
528.9428770574139
 20
1088.5169909069084
 30
0.0
 11
534.8447913902037
 21
1088.7230902968838
 31
0.0
  0
LINE
  5
159
330
17
100
AcDbEntity
  8
0
100
AcDbLine
 10
534.8447913902037
 20
1088.7230902968838
 30
0.0
 11
534.5562522442382
 21
1096.9857703627888
 31
0.0
  0
LINE
  5
15A
330
17
100
AcDbEntity
  8
0
100
AcDbLine
 10
528.6543379114484
 20
1096.7796709728134
 30
0.0
 11
528.6543379114484
 21
1096.7796709728134
 31
0.0
  0
LINE
  5
15B
330
17
100
AcDbEntity
  8
0
100
AcDbLine
 10
1886.680683828617
 20
1769.386990766337
 30
0.0
 11
1886.6425922187236
 21
1769.9128799204432
 31
0.0
  0
LINE
  5
15C
330
17
100
AcDbEntity
  8
0
100
AcDbLine
 10
1886.6425922187236
 20
1769.9128799204432
 30
0.0
 11
1886.565307374994
 21
1770.4344519922427
 31
0.0
  0
LINE
  5
15D
330
17
100
AcDbEntity
  8
0
100
AcDbLine
 10
1886.565307374994
 20
1770.4344519922427
 30
0.0
 11
1886.4492615056251
 21
1770.9487901391385
 31
0.0
  0
LINE
  5
15E
330
17
100
AcDbEntity
  8
0
100
AcDbLine
 10
1886.4492615056251
 20
1770.9487901391385
 30
0.0
 11
1886.2951035861909
 21
1771.4530179735798
 31
0.0
  0
LINE
  5
15F
330
17
100
AcDbEntity
  8
0
100
AcDbLine
 10
1886.2951035861909
 20
1771.4530179735798
 30
0.0
 11
1886.1036957303095
 21
1771.9443156489838
 31
0.0
  0
LINE
  5
160
330
17
100
AcDbEntity
  8
0
100
AcDbLine
 10
1886.1036957303095
 20
1771.9443156489838
 30
0.0
 11
1885.876108368351
 21
1772.4199356294598
 31
0.0
  0
LINE
  5
161
330
17
100
AcDbEntity
  8
0
100
AcDbLine
 10
1885.876108368351
 20
1772.4199356294598
 30
0.0
 11
1885.613614261164
 21
1772.877218055147
 31
0.0
  0
LINE
  5
162
330
17
100
AcDbEntity
  8
0
100
AcDbLine
 10
1885.613614261164
 20
1772.877218055147
 30
0.0
 11
1885.3176813822715
 21
1773.313605617231
 31
0.0
  0
LINE
  5
163
330
17
100
AcDbEntity
  8
0
100
AcDbLine
 10
1885.3176813822715
 20
1773.313605617231
 30
0.0
 11
1884.9899647083748
 21
1773.7266578594486
 31
0.0
  0
LINE
  5
164
330
17
100
AcDbEntity
  8
0
100
AcDbLine
 10
1884.9899647083748
 20
1773.7266578594486
 30
0.0
 11
1884.63229696405
 21
1774.1140648261116
 31
0.0
  0
LINE
  5
165
330
17
100
AcDbEntity
  8
0
100
AcDbLine
 10
1884.63229696405
 20
1774.1140648261116
 30
0.0
 11
1884.2466783724037
 21
1774.4736599803164
 31
0.0
  0
LINE
  5
166
330
17
100
AcDbEntity
  8
0
100
AcDbLine
 10
1884.2466783724037
 20
1774.4736599803164
 30
0.0
 11
1883.8352654690239
 21
1774.803432320095
 31
0.0
  0
LINE
  5
167
330
17
100
AcDbEntity
  8
0
100
AcDbLine
 10
1883.8352654690239
 20
1774.803432320095
 30
0.0
 11
1883.40035904175
 21
1775.101537624756
 31
0.0
  0
LINE
  5
168
330
17
100
AcDbEntity
  8
0
100
AcDbLine
 10
1883.40035904175
 20
1775.101537624756
 30
0.0
 11
1882.9443912637382
 21
1775.3663087685113
 31
0.0
  0
LINE
  5
169
330
17
100
AcDbEntity
  8
0
100
AcDbLine
 10
1882.9443912637382
 20
1775.3663087685113
 30
0.0
 11
1882.4699120917612
 21
1775.5962650437245
 31
0.0
  0
LINE
  5
16A
330
17
100
AcDbEntity
  8
0
100
AcDbLine
 10
1882.4699120917612
 20
1775.5962650437245
 30
0.0
 11
1881.9795750058154
 21
1775.7901204416276
 31
0.0
  0
LINE
  5
16B
330
17
100
AcDbEntity
  8
0
100
AcDbLine
 10
1881.9795750058154
 20
1775.7901204416276
 30
0.0
 11
1881.4761221697831
 21
1775.9467908441984
 31
0.0
  0
LINE
  5
16C
330
17
100
AcDbEntity
  8
0
100
AcDbLine
 10
1881.4761221697831
 20
1775.9467908441984
 30
0.0
 11
1880.962369096143
 21
1776.0654000869952
 31
0.0
  0
LINE
  5
16D
330
17
100
AcDbEntity
  8
0
100
AcDbLine
 10
1880.962369096143
 20
1776.0654000869952
 30
0.0
 11
1880.4411889004828
 21
1776.145284859019
 31
0.0
  0
LINE
  5
16E
330
17
100
AcDbEntity
  8
0
100
AcDbLine
 10
1880.4411889004828
 20
1776.145284859019
 30
0.0
 11
1879.9154962338648
 21
1776.1859984122198
 31
0.0
  0
LINE
  5
16F
330
17
100
AcDbEntity
  8
0
100
AcDbLine
 10
1879.9154962338648
 20
1776.1859984122198
 30
0.0
 11
1879.3882309829214
 21
1776.187313059897
 31
0.0
  0
LINE
  5
170
330
17
100
AcDbEntity
  8
0
100
AcDbLine
 10
1879.3882309829214
 20
1776.187313059897
 30
0.0
 11
1878.8623418288157
 21
1776.149221450002
 31
0.0
  0
LINE
  5
171
330
17
100
AcDbEntity
  8
0
100
AcDbLine
 10
1878.8623418288157
 20
1776.149221450002
 30
0.0
 11
1878.340769757016
 21
1776.071936606274
 31
0.0
  0
LINE
  5
172
330
17
100
AcDbEntity
  8
0
100
AcDbLine
 10
1878.340769757016
 20
1776.071936606274
 30
0.0
 11
1877.82643161012
 21
1775.955890736905
 31
0.0
  0
LINE
  5
173
330
17
100
AcDbEntity
  8
0
100
AcDbLine
 10
1877.82643161012
 20
1775.955890736905
 30
0.0
 11
1877.3222037756777
 21
1775.8017328174706
 31
0.0
  0
LINE
  5
174
330
17
100
AcDbEntity
  8
0
100
AcDbLine
 10
1877.3222037756777
 20
1775.8017328174706
 30
0.0
 11
1876.830906100274
 21
1775.6103249615878
 31
0.0
  0
LINE
  5
175
330
17
100
AcDbEntity
  8
0
100
AcDbLine
 10
1876.830906100274
 20
1775.6103249615878
 30
0.0
 11
1876.3552861197986
 21
1775.3827375996298
 31
0.0
  0
LINE
  5
176
330
17
100
AcDbEntity
  8
0
100
AcDbLine
 10
1876.3552861197986
 20
1775.3827375996298
 30
0.0
 11
1875.8980036941114
 21
1775.120243492443
 31
0.0
  0
LINE
  5
177
330
17
100
AcDbEntity
  8
0
100
AcDbLine
 10
1875.8980036941114
 20
1775.120243492443
 30
0.0
 11
1875.4616161320278
 21
1774.824310613551
 31
0.0
  0
LINE
  5
178
330
17
100
AcDbEntity
  8
0
100
AcDbLine
 10
1875.4616161320278
 20
1774.824310613551
 30
0.0
 11
1875.0485638898108
 21
1774.4965939396548
 31
0.0
  0
LINE
  5
179
330
17
100
AcDbEntity
  8
0
100
AcDbLine
 10
1875.0485638898108
 20
1774.4965939396548
 30
0.0
 11
1874.661156923146
 21
1774.1389261953288
 31
0.0
  0
LINE
  5
17A
330
17
100
AcDbEntity
  8
0
100
AcDbLine
 10
1874.661156923146
 20
1774.1389261953288
 30
0.0
 11
1874.301561768942
 21
1773.753307603683
 31
0.0
  0
LINE
  5
17B
330
17
100
AcDbEntity
  8
0
100
AcDbLine
 10
1874.301561768942
 20
1773.753307603683
 30
0.0
 11
1873.9717894291634
 21
1773.3418947003038
 31
0.0
  0
LINE
  5
17C
330
17
100
AcDbEntity
  8
0
100
AcDbLine
 10
1873.9717894291634
 20
1773.3418947003038
 30
0.0
 11
1873.6736841245038
 21
1772.9069882730298
 31
0.0
  0
LINE
  5
17D
330
17
100
AcDbEntity
  8
0
100
AcDbLine
 10
1873.6736841245038
 20
1772.9069882730298
 30
0.0
 11
1873.4089129807471
 21
1772.451020495018
 31
0.0
  0
LINE
  5
17E
330
17
100
AcDbEntity
  8
0
100
AcDbLine
 10
1873.4089129807471
 20
1772.451020495018
 30
0.0
 11
1873.1789567055328
 21
1771.9765413230407
 31
0.0
  0
LINE
  5
17F
330
17
100
AcDbEntity
  8
0
100
AcDbLine
 10
1873.1789567055328
 20
1771.9765413230407
 30
0.0
 11
1872.9851013076309
 21
1771.4862042370937
 31
0.0
  0
LINE
  5
180
330
17
100
AcDbEntity
  8
0
100
AcDbLine
 10
1872.9851013076309
 20
1771.4862042370937
 30
0.0
 11
1872.8284309050598
 21
1770.9827514010613
 31
0.0
  0
LINE
  5
181
330
17
100
AcDbEntity
  8
0
100
AcDbLine
 10
1872.8284309050598
 20
1770.9827514010613
 30
0.0
 11
1872.7098216622649
 21
1770.4689983274227
 31
0.0
  0
LINE
  5
182
330
17
100
AcDbEntity
  8
0
100
AcDbLine
 10
1872.7098216622649
 20
1770.4689983274227
 30
0.0
 11
1872.6299368902396
 21
1769.9478181317625
 31
0.0
  0
LINE
  5
183
330
17
100
AcDbEntity
  8
0
100
AcDbLine
 10
1872.6299368902396
 20
1769.9478181317625
 30
0.0
 11
1872.5892233370373
 21
1769.422125465143
 31
0.0
  0
LINE
  5
184
330
17
100
AcDbEntity
  8
0
100
AcDbLine
 10
1872.5892233370373
 20
1769.422125465143
 30
0.0
 11
1872.587908689362
 21
1768.8948602142002
 31
0.0
  0
LINE
  5
185
330
17
100
AcDbEntity
  8
0
100
AcDbLine
 10
1872.587908689362
 20
1768.8948602142002
 30
0.0
 11
1872.6260002992553
 21
1768.3689710600938
 31
0.0
  0
LINE
  5
186
330
17
100
AcDbEntity
  8
0
100
AcDbLine
 10
1872.6260002992553
 20
1768.3689710600938
 30
0.0
 11
1872.7032851429847
 21
1767.8473989882955
 31
0.0
  0
LINE
  5
187
330
17
100
AcDbEntity
  8
0
100
AcDbLine
 10
1872.7032851429847
 20
1767.8473989882955
 30
0.0
 11
1872.819331012355
 21
1767.3330608413999
 31
0.0
  0
LINE
  5
188
330
17
100
AcDbEntity
  8
0
100
AcDbLine
 10
1872.819331012355
 20
1767.3330608413999
 30
0.0
 11
1872.9734889317879
 21
1766.8288330069572
 31
0.0
  0
LINE
  5
189
330
17
100
AcDbEntity
  8
0
100
AcDbLine
 10
1872.9734889317879
 20
1766.8288330069572
 30
0.0
 11
1873.1648967876706
 21
1766.3375353315546
 31
0.0
  0
LINE
  5
18A
330
17
100
AcDbEntity
  8
0
100
AcDbLine
 10
1873.1648967876706
 20
1766.3375353315546
 30
0.0
 11
1873.392484149628
 21
1765.8619153510772
 31
0.0
  0
LINE
  5
18B
330
17
100
AcDbEntity
  8
0
100
AcDbLine
 10
1873.392484149628
 20
1765.8619153510772
 30
0.0
 11
1873.6549782568156
 21
1765.40463292539
 31
0.0
  0
LINE
  5
18C
330
17
100
AcDbEntity
  8
0
100
AcDbLine
 10
1873.6549782568156
 20
1765.40463292539
 30
0.0
 11
1873.9509111357086
 21
1764.9682453633063
 31
0.0
  0
LINE
  5
18D
330
17
100
AcDbEntity
  8
0
100
AcDbLine
 10
1873.9509111357086
 20
1764.9682453633063
 30
0.0
 11
1874.278627809604
 21
1764.5551931210896
 31
0.0
  0
LINE
  5
18E
330
17
100
AcDbEntity
  8
0
100
AcDbLine
 10
1874.278627809604
 20
1764.5551931210896
 30
0.0
 11
1874.6362955539298
 21
1764.1677861544263
 31
0.0
  0
LINE
  5
18F
330
17
100
AcDbEntity
  8
0
100
AcDbLine
 10
1874.6362955539298
 20
1764.1677861544263
 30
0.0
 11
1875.0219141455748
 21
1763.808191000221
 31
0.0
  0
LINE
  5
190
330
17
100
AcDbEntity
  8
0
100
AcDbLine
 10
1875.0219141455748
 20
1763.808191000221
 30
0.0
 11
1875.4333270489558
 21
1763.478418660442
 31
0.0
  0
LINE
  5
191
330
17
100
AcDbEntity
  8
0
100
AcDbLine
 10
1875.4333270489558
 20
1763.478418660442
 30
0.0
 11
1875.8682334762286
 21
1763.1803133557835
 31
0.0
  0
LINE
  5
192
330
17
100
AcDbEntity
  8
0
100
AcDbLine
 10
1875.8682334762286
 20
1763.1803133557835
 30
0.0
 11
1876.3242012542405
 21
1762.9155422120268
 31
0.0
  0
LINE
  5
193
330
17
100
AcDbEntity
  8
0
100
AcDbLine
 10
1876.3242012542405
 20
1762.9155422120268
 30
0.0
 11
1876.7986804262177
 21
1762.6855859368122
 31
0.0
  0
LINE
  5
194
330
17
100
AcDbEntity
  8
0
100
AcDbLine
 10
1876.7986804262177
 20
1762.6855859368122
 30
0.0
 11
1877.289017512164
 21
1762.4917305389106
 31
0.0
  0
LINE
  5
195
330
17
100
AcDbEntity
  8
0
100
AcDbLine
 10
1877.289017512164
 20
1762.4917305389106
 30
0.0
 11
1877.7924703481963
 21
1762.3350601363397
 31
0.0
  0
LINE
  5
196
330
17
100
AcDbEntity
  8
0
100
AcDbLine
 10
1877.7924703481963
 20
1762.3350601363397
 30
0.0
 11
1878.3062234218357
 21
1762.2164508935425
 31
0.0
  0
LINE
  5
197
330
17
100
AcDbEntity
  8
0
100
AcDbLine
 10
1878.3062234218357
 20
1762.2164508935425
 30
0.0
 11
1878.8274036174962
 21
1762.136566121519
 31
0.0
  0
LINE
  5
198
330
17
100
AcDbEntity
  8
0
100
AcDbLine
 10
1878.8274036174962
 20
1762.136566121519
 30
0.0
 11
1879.3530962841155
 21
1762.0958525683186
 31
0.0
  0
LINE
  5
199
330
17
100
AcDbEntity
  8
0
100
AcDbLine
 10
1879.3530962841155
 20
1762.0958525683186
 30
0.0
 11
1879.8803615350582
 21
1762.0945379206416
 31
0.0
  0
LINE
  5
19A
330
17
100
AcDbEntity
  8
0
100
AcDbLine
 10
1879.8803615350582
 20
1762.0945379206416
 30
0.0
 11
1880.4062506891646
 21
1762.1326295305362
 31
0.0
  0
LINE
  5
19B
330
17
100
AcDbEntity
  8
0
100
AcDbLine
 10
1880.4062506891646
 20
1762.1326295305362
 30
0.0
 11
1880.927822760963
 21
1762.2099143742644
 31
0.0
  0
LINE
  5
19C
330
17
100
AcDbEntity
  8
0
100
AcDbLine
 10
1880.927822760963
 20
1762.2099143742644
 30
0.0
 11
1881.4421609078588
 21
1762.3259602436324
 31
0.0
  0
LINE
  5
19D
330
17
100
AcDbEntity
  8
0
100
AcDbLine
 10
1881.4421609078588
 20
1762.3259602436324
 30
0.0
 11
1881.9463887423017
 21
1762.4801181630678
 31
0.0
  0
LINE
  5
19E
330
17
100
AcDbEntity
  8
0
100
AcDbLine
 10
1881.9463887423017
 20
1762.4801181630678
 30
0.0
 11
1882.4376864177054
 21
1762.6715260189503
 31
0.0
  0
LINE
  5
19F
330
17
100
AcDbEntity
  8
0
100
AcDbLine
 10
1882.4376864177054
 20
1762.6715260189503
 30
0.0
 11
1882.9133063981803
 21
1762.8991133809072
 31
0.0
  0
LINE
  5
1A0
330
17
100
AcDbEntity
  8
0
100
AcDbLine
 10
1882.9133063981803
 20
1762.8991133809072
 30
0.0
 11
1883.3705888238674
 21
1763.1616074880953
 31
0.0
  0
LINE
  5
1A1
330
17
100
AcDbEntity
  8
0
100
AcDbLine
 10
1883.3705888238674
 20
1763.1616074880953
 30
0.0
 11
1883.806976385951
 21
1763.4575403669883
 31
0.0
  0
LINE
  5
1A2
330
17
100
AcDbEntity
  8
0
100
AcDbLine
 10
1883.806976385951
 20
1763.4575403669883
 30
0.0
 11
1884.2200286281688
 21
1763.7852570408825
 31
0.0
  0
LINE
  5
1A3
330
17
100
AcDbEntity
  8
0
100
AcDbLine
 10
1884.2200286281688
 20
1763.7852570408825
 30
0.0
 11
1884.6074355948324
 21
1764.1429247852084
 31
0.0
  0
LINE
  5
1A4
330
17
100
AcDbEntity
  8
0
100
AcDbLine
 10
1884.6074355948324
 20
1764.1429247852084
 30
0.0
 11
1884.9670307490378
 21
1764.528543376855
 31
0.0
  0
LINE
  5
1A5
330
17
100
AcDbEntity
  8
0
100
AcDbLine
 10
1884.9670307490378
 20
1764.528543376855
 30
0.0
 11
1885.2968030888153
 21
1764.9399562802346
 31
0.0
  0
LINE
  5
1A6
330
17
100
AcDbEntity
  8
0
100
AcDbLine
 10
1885.2968030888153
 20
1764.9399562802346
 30
0.0
 11
1885.5949083934763
 21
1765.3748627075074
 31
0.0
  0
LINE
  5
1A7
330
17
100
AcDbEntity
  8
0
100
AcDbLine
 10
1885.5949083934763
 20
1765.3748627075074
 30
0.0
 11
1885.8596795372325
 21
1765.830830485519
 31
0.0
  0
LINE
  5
1A8
330
17
100
AcDbEntity
  8
0
100
AcDbLine
 10
1885.8596795372325
 20
1765.830830485519
 30
0.0
 11
1886.0896358124462
 21
1766.305309657496
 31
0.0
  0
LINE
  5
1A9
330
17
100
AcDbEntity
  8
0
100
AcDbLine
 10
1886.0896358124462
 20
1766.305309657496
 30
0.0
 11
1886.2834912103492
 21
1766.7956467434446
 31
0.0
  0
LINE
  5
1AA
330
17
100
AcDbEntity
  8
0
100
AcDbLine
 10
1886.2834912103492
 20
1766.7956467434446
 30
0.0
 11
1886.440161612919
 21
1767.2990995794758
 31
0.0
  0
LINE
  5
1AB
330
17
100
AcDbEntity
  8
0
100
AcDbLine
 10
1886.440161612919
 20
1767.2990995794758
 30
0.0
 11
1886.5587708557152
 21
1767.8128526531154
 31
0.0
  0
LINE
  5
1AC
330
17
100
AcDbEntity
  8
0
100
AcDbLine
 10
1886.5587708557152
 20
1767.8128526531154
 30
0.0
 11
1886.6386556277391
 21
1768.3340328487757
 31
0.0
  0
LINE
  5
1AD
330
17
100
AcDbEntity
  8
0
100
AcDbLine
 10
1886.6386556277391
 20
1768.3340328487757
 30
0.0
 11
1886.6793691809416
 21
1768.8597255153938
 31
0.0
  0
LINE
  5
1AE
330
17
100
AcDbEntity
  8
0
100
AcDbLine
 10
1886.6793691809416
 20
1768.8597255153938
 30
0.0
 11
1886.680683828617
 21
1769.386990766337
 31
0.0
  0
LINE
  5
1AF
330
17
100
AcDbEntity
  8
0
100
AcDbLine
 10
300.1038471464333
 20
736.6154676356359
 30
0.0
 11
300.0657555365397
 21
737.1413567897418
 31
0.0
  0
LINE
  5
1B0
330
17
100
AcDbEntity
  8
0
100
AcDbLine
 10
300.0657555365397
 20
737.1413567897418
 30
0.0
 11
299.98847069281055
 21
737.6629288615402
 31
0.0
  0
LINE
  5
1B1
330
17
100
AcDbEntity
  8
0
100
AcDbLine
 10
299.98847069281055
 20
737.6629288615402
 30
0.0
 11
299.8724248234417
 21
738.1772670084374
 31
0.0
  0
LINE
  5
1B2
330
17
100
AcDbEntity
  8
0
100
AcDbLine
 10
299.8724248234417
 20
738.1772670084374
 30
0.0
 11
299.7182669040073
 21
738.6814948428798
 31
0.0
  0
LINE
  5
1B3
330
17
100
AcDbEntity
  8
0
100
AcDbLine
 10
299.7182669040073
 20
738.6814948428798
 30
0.0
 11
299.52685904812495
 21
739.1727925182824
 31
0.0
  0
LINE
  5
1B4
330
17
100
AcDbEntity
  8
0
100
AcDbLine
 10
299.52685904812495
 20
739.1727925182824
 30
0.0
 11
299.2992716861671
 21
739.6484124987586
 31
0.0
  0
LINE
  5
1B5
330
17
100
AcDbEntity
  8
0
100
AcDbLine
 10
299.2992716861671
 20
739.6484124987586
 30
0.0
 11
299.0367775789798
 21
740.1056949244457
 31
0.0
  0
LINE
  5
1B6
330
17
100
AcDbEntity
  8
0
100
AcDbLine
 10
299.0367775789798
 20
740.1056949244457
 30
0.0
 11
298.74084470008796
 21
740.5420824865296
 31
0.0
  0
LINE
  5
1B7
330
17
100
AcDbEntity
  8
0
100
AcDbLine
 10
298.74084470008796
 20
740.5420824865296
 30
0.0
 11
298.41312802619177
 21
740.9551347287465
 31
0.0
  0
LINE
  5
1B8
330
17
100
AcDbEntity
  8
0
100
AcDbLine
 10
298.41312802619177
 20
740.9551347287465
 30
0.0
 11
298.05546028186586
 21
741.342541695411
 31
0.0
  0
LINE
  5
1B9
330
17
100
AcDbEntity
  8
0
100
AcDbLine
 10
298.05546028186586
 20
741.342541695411
 30
0.0
 11
297.66984169022
 21
741.7021368496154
 31
0.0
  0
LINE
  5
1BA
330
17
100
AcDbEntity
  8
0
100
AcDbLine
 10
297.66984169022
 20
741.7021368496154
 30
0.0
 11
297.25842878684017
 21
742.031909189394
 31
0.0
  0
LINE
  5
1BB
330
17
100
AcDbEntity
  8
0
100
AcDbLine
 10
297.25842878684017
 20
742.031909189394
 30
0.0
 11
296.8235223595666
 21
742.3300144940547
 31
0.0
  0
LINE
  5
1BC
330
17
100
AcDbEntity
  8
0
100
AcDbLine
 10
296.8235223595666
 20
742.3300144940547
 30
0.0
 11
296.367554581555
 21
742.5947856378092
 31
0.0
  0
LINE
  5
1BD
330
17
100
AcDbEntity
  8
0
100
AcDbLine
 10
296.367554581555
 20
742.5947856378092
 30
0.0
 11
295.89307540957776
 21
742.8247419130236
 31
0.0
  0
LINE
  5
1BE
330
17
100
AcDbEntity
  8
0
100
AcDbLine
 10
295.89307540957776
 20
742.8247419130236
 30
0.0
 11
295.40273832363107
 21
743.0185973109265
 31
0.0
  0
LINE
  5
1BF
330
17
100
AcDbEntity
  8
0
100
AcDbLine
 10
295.40273832363107
 20
743.0185973109265
 30
0.0
 11
294.8992854875988
 21
743.1752677134974
 31
0.0
  0
LINE
  5
1C0
330
17
100
AcDbEntity
  8
0
100
AcDbLine
 10
294.8992854875988
 20
743.1752677134974
 30
0.0
 11
294.3855324139595
 21
743.2938769562938
 31
0.0
  0
LINE
  5
1C1
330
17
100
AcDbEntity
  8
0
100
AcDbLine
 10
294.3855324139595
 20
743.2938769562938
 30
0.0
 11
293.8643522182985
 21
743.3737617283177
 31
0.0
  0
LINE
  5
1C2
330
17
100
AcDbEntity
  8
0
100
AcDbLine
 10
293.8643522182985
 20
743.3737617283177
 30
0.0
 11
293.33865955168034
 21
743.41447528152
 31
0.0
  0
LINE
  5
1C3
330
17
100
AcDbEntity
  8
0
100
AcDbLine
 10
293.33865955168034
 20
743.41447528152
 30
0.0
 11
292.8113943007372
 21
743.4157899291955
 31
0.0
  0
LINE
  5
1C4
330
17
100
AcDbEntity
  8
0
100
AcDbLine
 10
292.8113943007372
 20
743.4157899291955
 30
0.0
 11
292.28550514663135
 21
743.3776983193021
 31
0.0
  0
LINE
  5
1C5
330
17
100
AcDbEntity
  8
0
100
AcDbLine
 10
292.28550514663135
 20
743.3776983193021
 30
0.0
 11
291.7639330748328
 21
743.3004134755727
 31
0.0
  0
LINE
  5
1C6
330
17
100
AcDbEntity
  8
0
100
AcDbLine
 10
291.7639330748328
 20
743.3004134755727
 30
0.0
 11
291.2495949279362
 21
743.184367606204
 31
0.0
  0
LINE
  5
1C7
330
17
100
AcDbEntity
  8
0
100
AcDbLine
 10
291.2495949279362
 20
743.184367606204
 30
0.0
 11
290.74536709349405
 21
743.0302096867694
 31
0.0
  0
LINE
  5
1C8
330
17
100
AcDbEntity
  8
0
100
AcDbLine
 10
290.74536709349405
 20
743.0302096867694
 30
0.0
 11
290.25406941809035
 21
742.8388018308867
 31
0.0
  0
LINE
  5
1C9
330
17
100
AcDbEntity
  8
0
100
AcDbLine
 10
290.25406941809035
 20
742.8388018308867
 30
0.0
 11
289.7784494376148
 21
742.6112144689284
 31
0.0
  0
LINE
  5
1CA
330
17
100
AcDbEntity
  8
0
100
AcDbLine
 10
289.7784494376148
 20
742.6112144689284
 30
0.0
 11
289.32116701192757
 21
742.3487203617407
 31
0.0
  0
LINE
  5
1CB
330
17
100
AcDbEntity
  8
0
100
AcDbLine
 10
289.32116701192757
 20
742.3487203617407
 30
0.0
 11
288.8847794498439
 21
742.05278748285
 31
0.0
  0
LINE
  5
1CC
330
17
100
AcDbEntity
  8
0
100
AcDbLine
 10
288.8847794498439
 20
742.05278748285
 30
0.0
 11
288.4717272076263
 21
741.7250708089535
 31
0.0
  0
LINE
  5
1CD
330
17
100
AcDbEntity
  8
0
100
AcDbLine
 10
288.4717272076263
 20
741.7250708089535
 30
0.0
 11
288.0843202409628
 21
741.3674030646276
 31
0.0
  0
LINE
  5
1CE
330
17
100
AcDbEntity
  8
0
100
AcDbLine
 10
288.0843202409628
 20
741.3674030646276
 30
0.0
 11
287.72472508675787
 21
740.9817844729823
 31
0.0
  0
LINE
  5
1CF
330
17
100
AcDbEntity
  8
0
100
AcDbLine
 10
287.72472508675787
 20
740.9817844729823
 30
0.0
 11
287.39495274697924
 21
740.5703715696015
 31
0.0
  0
LINE
  5
1D0
330
17
100
AcDbEntity
  8
0
100
AcDbLine
 10
287.39495274697924
 20
740.5703715696015
 30
0.0
 11
287.09684744231885
 21
740.1354651423285
 31
0.0
  0
LINE
  5
1D1
330
17
100
AcDbEntity
  8
0
100
AcDbLine
 10
287.09684744231885
 20
740.1354651423285
 30
0.0
 11
286.83207629856315
 21
739.6794973643166
 31
0.0
  0
LINE
  5
1D2
330
17
100
AcDbEntity
  8
0
100
AcDbLine
 10
286.83207629856315
 20
739.6794973643166
 30
0.0
 11
286.60212002334913
 21
739.2050181923396
 31
0.0
  0
LINE
  5
1D3
330
17
100
AcDbEntity
  8
0
100
AcDbLine
 10
286.60212002334913
 20
739.2050181923396
 30
0.0
 11
286.4082646254468
 21
738.7146811063924
 31
0.0
  0
LINE
  5
1D4
330
17
100
AcDbEntity
  8
0
100
AcDbLine
 10
286.4082646254468
 20
738.7146811063924
 30
0.0
 11
286.251594222876
 21
738.2112282703613
 31
0.0
  0
LINE
  5
1D5
330
17
100
AcDbEntity
  8
0
100
AcDbLine
 10
286.251594222876
 20
738.2112282703613
 30
0.0
 11
286.1329849800798
 21
737.6974751967216
 31
0.0
  0
LINE
  5
1D6
330
17
100
AcDbEntity
  8
0
100
AcDbLine
 10
286.1329849800798
 20
737.6974751967216
 30
0.0
 11
286.053100208056
 21
737.17629500106
 31
0.0
  0
LINE
  5
1D7
330
17
100
AcDbEntity
  8
0
100
AcDbLine
 10
286.053100208056
 20
737.17629500106
 30
0.0
 11
286.01238665485386
 21
736.6506023344418
 31
0.0
  0
LINE
  5
1D8
330
17
100
AcDbEntity
  8
0
100
AcDbLine
 10
286.01238665485386
 20
736.6506023344418
 30
0.0
 11
286.0110720071782
 21
736.1233370834991
 31
0.0
  0
LINE
  5
1D9
330
17
100
AcDbEntity
  8
0
100
AcDbLine
 10
286.0110720071782
 20
736.1233370834991
 30
0.0
 11
286.0491636170717
 21
735.5974479293941
 31
0.0
  0
LINE
  5
1DA
330
17
100
AcDbEntity
  8
0
100
AcDbLine
 10
286.0491636170717
 20
735.5974479293941
 30
0.0
 11
286.12644846080104
 21
735.0758758575944
 31
0.0
  0
LINE
  5
1DB
330
17
100
AcDbEntity
  8
0
100
AcDbLine
 10
286.12644846080104
 20
735.0758758575944
 30
0.0
 11
286.2424943301698
 21
734.5615377106973
 31
0.0
  0
LINE
  5
1DC
330
17
100
AcDbEntity
  8
0
100
AcDbLine
 10
286.2424943301698
 20
734.5615377106973
 30
0.0
 11
286.39665224960413
 21
734.0573098762559
 31
0.0
  0
LINE
  5
1DD
330
17
100
AcDbEntity
  8
0
100
AcDbLine
 10
286.39665224960413
 20
734.0573098762559
 30
0.0
 11
286.58806010548653
 21
733.5660122008521
 31
0.0
  0
LINE
  5
1DE
330
17
100
AcDbEntity
  8
0
100
AcDbLine
 10
286.58806010548653
 20
733.5660122008521
 30
0.0
 11
286.8156474674443
 21
733.090392220377
 31
0.0
  0
LINE
  5
1DF
330
17
100
AcDbEntity
  8
0
100
AcDbLine
 10
286.8156474674443
 20
733.090392220377
 30
0.0
 11
287.0781415746317
 21
732.6331097946888
 31
0.0
  0
LINE
  5
1E0
330
17
100
AcDbEntity
  8
0
100
AcDbLine
 10
287.0781415746317
 20
732.6331097946888
 30
0.0
 11
287.37407445352346
 21
732.1967222326064
 31
0.0
  0
LINE
  5
1E1
330
17
100
AcDbEntity
  8
0
100
AcDbLine
 10
287.37407445352346
 20
732.1967222326064
 30
0.0
 11
287.7017911274197
 21
731.7836699903884
 31
0.0
  0
LINE
  5
1E2
330
17
100
AcDbEntity
  8
0
100
AcDbLine
 10
287.7017911274197
 20
731.7836699903884
 30
0.0
 11
288.05945887174556
 21
731.3962630237252
 31
0.0
  0
LINE
  5
1E3
330
17
100
AcDbEntity
  8
0
100
AcDbLine
 10
288.05945887174556
 20
731.3962630237252
 30
0.0
 11
288.4450774633915
 21
731.0366678695198
 31
0.0
  0
LINE
  5
1E4
330
17
100
AcDbEntity
  8
0
100
AcDbLine
 10
288.4450774633915
 20
731.0366678695198
 30
0.0
 11
288.8564903667714
 21
730.7068955297407
 31
0.0
  0
LINE
  5
1E5
330
17
100
AcDbEntity
  8
0
100
AcDbLine
 10
288.8564903667714
 20
730.7068955297407
 30
0.0
 11
289.291396794045
 21
730.408790225081
 31
0.0
  0
LINE
  5
1E6
330
17
100
AcDbEntity
  8
0
100
AcDbLine
 10
289.291396794045
 20
730.408790225081
 30
0.0
 11
289.7473645720565
 21
730.1440190813255
 31
0.0
  0
LINE
  5
1E7
330
17
100
AcDbEntity
  8
0
100
AcDbLine
 10
289.7473645720565
 20
730.1440190813255
 30
0.0
 11
290.22184374403383
 21
729.9140628061109
 31
0.0
  0
LINE
  5
1E8
330
17
100
AcDbEntity
  8
0
100
AcDbLine
 10
290.22184374403383
 20
729.9140628061109
 30
0.0
 11
290.71218082998035
 21
729.7202074082093
 31
0.0
  0
LINE
  5
1E9
330
17
100
AcDbEntity
  8
0
100
AcDbLine
 10
290.71218082998035
 20
729.7202074082093
 30
0.0
 11
291.21563366601265
 21
729.5635370056386
 31
0.0
  0
LINE
  5
1EA
330
17
100
AcDbEntity
  8
0
100
AcDbLine
 10
291.21563366601265
 20
729.5635370056386
 30
0.0
 11
291.729386739652
 21
729.4449277628411
 31
0.0
  0
LINE
  5
1EB
330
17
100
AcDbEntity
  8
0
100
AcDbLine
 10
291.729386739652
 20
729.4449277628411
 30
0.0
 11
292.25056693531303
 21
729.3650429908181
 31
0.0
  0
LINE
  5
1EC
330
17
100
AcDbEntity
  8
0
100
AcDbLine
 10
292.25056693531303
 20
729.3650429908181
 30
0.0
 11
292.77625960193126
 21
729.3243294376146
 31
0.0
  0
LINE
  5
1ED
330
17
100
AcDbEntity
  8
0
100
AcDbLine
 10
292.77625960193126
 20
729.3243294376146
 30
0.0
 11
293.3035248528742
 21
729.3230147899405
 31
0.0
  0
LINE
  5
1EE
330
17
100
AcDbEntity
  8
0
100
AcDbLine
 10
293.3035248528742
 20
729.3230147899405
 30
0.0
 11
293.82941400698024
 21
729.3611063998324
 31
0.0
  0
LINE
  5
1EF
330
17
100
AcDbEntity
  8
0
100
AcDbLine
 10
293.82941400698024
 20
729.3611063998324
 30
0.0
 11
294.35098607877876
 21
729.4383912435632
 31
0.0
  0
LINE
  5
1F0
330
17
100
AcDbEntity
  8
0
100
AcDbLine
 10
294.35098607877876
 20
729.4383912435632
 30
0.0
 11
294.8653242256753
 21
729.554437112931
 31
0.0
  0
LINE
  5
1F1
330
17
100
AcDbEntity
  8
0
100
AcDbLine
 10
294.8653242256753
 20
729.554437112931
 30
0.0
 11
295.36955206011737
 21
729.7085950323667
 31
0.0
  0
LINE
  5
1F2
330
17
100
AcDbEntity
  8
0
100
AcDbLine
 10
295.36955206011737
 20
729.7085950323667
 30
0.0
 11
295.8608497355211
 21
729.900002888249
 31
0.0
  0
LINE
  5
1F3
330
17
100
AcDbEntity
  8
0
100
AcDbLine
 10
295.8608497355211
 20
729.900002888249
 30
0.0
 11
296.33646971599677
 21
730.1275902502061
 31
0.0
  0
LINE
  5
1F4
330
17
100
AcDbEntity
  8
0
100
AcDbLine
 10
296.33646971599677
 20
730.1275902502061
 30
0.0
 11
296.793752141684
 21
730.390084357394
 31
0.0
  0
LINE
  5
1F5
330
17
100
AcDbEntity
  8
0
100
AcDbLine
 10
296.793752141684
 20
730.390084357394
 30
0.0
 11
297.2301397037677
 21
730.6860172362856
 31
0.0
  0
LINE
  5
1F6
330
17
100
AcDbEntity
  8
0
100
AcDbLine
 10
297.2301397037677
 20
730.6860172362856
 30
0.0
 11
297.6431919459853
 21
731.0137339101811
 31
0.0
  0
LINE
  5
1F7
330
17
100
AcDbEntity
  8
0
100
AcDbLine
 10
297.6431919459853
 20
731.0137339101811
 30
0.0
 11
298.03059891264866
 21
731.3714016545075
 31
0.0
  0
LINE
  5
1F8
330
17
100
AcDbEntity
  8
0
100
AcDbLine
 10
298.03059891264866
 20
731.3714016545075
 30
0.0
 11
298.39019406685355
 21
731.7570202461538
 31
0.0
  0
LINE
  5
1F9
330
17
100
AcDbEntity
  8
0
100
AcDbLine
 10
298.39019406685355
 20
731.7570202461538
 30
0.0
 11
298.71996640663224
 21
732.1684331495335
 31
0.0
  0
LINE
  5
1FA
330
17
100
AcDbEntity
  8
0
100
AcDbLine
 10
298.71996640663224
 20
732.1684331495335
 30
0.0
 11
299.0180717112926
 21
732.6033395768075
 31
0.0
  0
LINE
  5
1FB
330
17
100
AcDbEntity
  8
0
100
AcDbLine
 10
299.0180717112926
 20
732.6033395768075
 30
0.0
 11
299.28284285504833
 21
733.059307354818
 31
0.0
  0
LINE
  5
1FC
330
17
100
AcDbEntity
  8
0
100
AcDbLine
 10
299.28284285504833
 20
733.059307354818
 30
0.0
 11
299.5127991302623
 21
733.5337865267961
 31
0.0
  0
LINE
  5
1FD
330
17
100
AcDbEntity
  8
0
100
AcDbLine
 10
299.5127991302623
 20
733.5337865267961
 30
0.0
 11
299.7066545281647
 21
734.0241236127422
 31
0.0
  0
LINE
  5
1FE
330
17
100
AcDbEntity
  8
0
100
AcDbLine
 10
299.7066545281647
 20
734.0241236127422
 30
0.0
 11
299.8633249307354
 21
734.5275764487744
 31
0.0
  0
LINE
  5
1FF
330
17
100
AcDbEntity
  8
0
100
AcDbLine
 10
299.8633249307354
 20
734.5275764487744
 30
0.0
 11
299.98193417353167
 21
735.0413295224131
 31
0.0
  0
LINE
  5
200
330
17
100
AcDbEntity
  8
0
100
AcDbLine
 10
299.98193417353167
 20
735.0413295224131
 30
0.0
 11
300.0618189455556
 21
735.5625097180746
 31
0.0
  0
LINE
  5
201
330
17
100
AcDbEntity
  8
0
100
AcDbLine
 10
300.0618189455556
 20
735.5625097180746
 30
0.0
 11
300.10253249875757
 21
736.088202384694
 31
0.0
  0
LINE
  5
202
330
17
100
AcDbEntity
  8
0
100
AcDbLine
 10
300.10253249875757
 20
736.088202384694
 30
0.0
 11
300.1038471464333
 21
736.6154676356359
 31
0.0
  0
LINE
  5
203
330
17
100
AcDbEntity
  8
0
100
AcDbLine
 10
1145.3838749394768
 20
1667.5217817573193
 30
0.0
 11
1143.7927830107126
 21
1668.9785612629669
 31
0.0
  0
LINE
  5
204
330
17
100
AcDbEntity
  8
0
100
AcDbLine
 10
1143.7927830107126
 20
1668.9785612629669
 30
0.0
 11
1142.1753497735813
 21
1670.4060379798614
 31
0.0
  0
LINE
  5
205
330
17
100
AcDbEntity
  8
0
100
AcDbLine
 10
1142.1753497735813
 20
1670.4060379798614
 30
0.0
 11
1140.5321148096955
 21
1671.8037356965785
 31
0.0
  0
LINE
  5
206
330
17
100
AcDbEntity
  8
0
100
AcDbLine
 10
1140.5321148096955
 20
1671.8037356965785
 30
0.0
 11
1138.8636263082155
 21
1673.1711881360739
 31
0.0
  0
LINE
  5
207
330
17
100
AcDbEntity
  8
0
100
AcDbLine
 10
1138.8636263082155
 20
1673.1711881360739
 30
0.0
 11
1137.1704408829762
 21
1674.5079391112408
 31
0.0
  0
LINE
  5
208
330
17
100
AcDbEntity
  8
0
100
AcDbLine
 10
1137.1704408829762
 20
1674.5079391112408
 30
0.0
 11
1135.4531233867938
 21
1675.81354267709
 31
0.0
  0
LINE
  5
209
330
17
100
AcDbEntity
  8
0
100
AcDbLine
 10
1135.4531233867938
 20
1675.81354267709
 30
0.0
 11
1133.712246723033
 21
1677.0875632795246
 31
0.0
  0
LINE
  5
20A
330
17
100
AcDbEntity
  8
0
100
AcDbLine
 10
1133.712246723033
 20
1677.0875632795246
 30
0.0
 11
1131.9483916544807
 21
1678.3295759006346
 31
0.0
  0
LINE
  5
20B
330
17
100
AcDbEntity
  8
0
100
AcDbLine
 10
1131.9483916544807
 20
1678.3295759006346
 30
0.0
 11
1130.1621466096055
 21
1679.539166200491
 31
0.0
  0
LINE
  5
20C
330
17
100
AcDbEntity
  8
0
100
AcDbLine
 10
1130.1621466096055
 20
1679.539166200491
 30
0.0
 11
1128.354107486251
 21
1680.7159306553742
 31
0.0
  0
LINE
  5
20D
330
17
100
AcDbEntity
  8
0
100
AcDbLine
 10
1128.354107486251
 20
1680.7159306553742
 30
0.0
 11
1126.5248774528468
 21
1681.8594766923761
 31
0.0
  0
LINE
  5
20E
330
17
100
AcDbEntity
  8
0
100
AcDbLine
 10
1126.5248774528468
 20
1681.8594766923761
 30
0.0
 11
1124.6750667471854
 21
1682.9694228203816
 31
0.0
  0
LINE
  5
20F
330
17
100
AcDbEntity
  8
0
100
AcDbLine
 10
1124.6750667471854
 20
1682.9694228203816
 30
0.0
 11
1122.8052924728484
 21
1684.045398757323
 31
0.0
  0
LINE
  5
210
330
17
100
AcDbEntity
  8
0
100
AcDbLine
 10
1122.8052924728484
 20
1684.045398757323
 30
0.0
 11
1120.9161783933343
 21
1685.0870455537172
 31
0.0
  0
LINE
  5
211
330
17
100
AcDbEntity
  8
0
100
AcDbLine
 10
1120.9161783933343
 20
1685.0870455537172
 30
0.0
 11
1119.0083547239724
 21
1686.0940157123994
 31
0.0
  0
LINE
  5
212
330
17
100
AcDbEntity
  8
0
100
AcDbLine
 10
1119.0083547239724
 20
1686.0940157123994
 30
0.0
 11
1117.08245792168
 21
1687.0659733044627
 31
0.0
  0
LINE
  5
213
330
17
100
AcDbEntity
  8
0
100
AcDbLine
 10
1117.08245792168
 20
1687.0659733044627
 30
0.0
 11
1115.1391304726353
 21
1688.0025940813202
 31
0.0
  0
LINE
  5
214
330
17
100
AcDbEntity
  8
0
100
AcDbLine
 10
1115.1391304726353
 20
1688.0025940813202
 30
0.0
 11
1113.1790206779447
 21
1688.9035655828739
 31
0.0
  0
LINE
  5
215
330
17
100
AcDbEntity
  8
0
100
AcDbLine
 10
1113.1790206779447
 20
1688.9035655828739
 30
0.0
 11
1111.2027824373658
 21
1689.7685872417505
 31
0.0
  0
LINE
  5
216
330
17
100
AcDbEntity
  8
0
100
AcDbLine
 10
1111.2027824373658
 20
1689.7685872417505
 30
0.0
 11
1109.2110750311654
 21
1690.597370483581
 31
0.0
  0
LINE
  5
217
330
17
100
AcDbEntity
  8
0
100
AcDbLine
 10
1109.2110750311654
 20
1690.597370483581
 30
0.0
 11
1107.2045629001784
 21
1691.3896388232579
 31
0.0
  0
LINE
  5
218
330
17
100
AcDbEntity
  8
0
100
AcDbLine
 10
1107.2045629001784
 20
1691.3896388232579
 30
0.0
 11
1105.183915424152
 21
1692.1451279571838
 31
0.0
  0
LINE
  5
219
330
17
100
AcDbEntity
  8
0
100
AcDbLine
 10
1105.183915424152
 20
1692.1451279571838
 30
0.0
 11
1103.1498066984336
 21
1692.863585851435
 31
0.0
  0
LINE
  5
21A
330
17
100
AcDbEntity
  8
0
100
AcDbLine
 10
1103.1498066984336
 20
1692.863585851435
 30
0.0
 11
1101.1029153090947
 21
1693.5447728258432
 31
0.0
  0
LINE
  5
21B
330
17
100
AcDbEntity
  8
0
100
AcDbLine
 10
1101.1029153090947
 20
1693.5447728258432
 30
0.0
 11
1099.0439241065487
 21
1694.1884616339562
 31
0.0
  0
LINE
  5
21C
330
17
100
AcDbEntity
  8
0
100
AcDbLine
 10
1099.0439241065487
 20
1694.1884616339562
 30
0.0
 11
1096.9735199777504
 21
1694.7944375388463
 31
0.0
  0
LINE
  5
21D
330
17
100
AcDbEntity
  8
0
100
AcDbLine
 10
1096.9735199777504
 20
1694.7944375388463
 30
0.0
 11
1094.8923936170488
 21
1695.3624983847474
 31
0.0
  0
LINE
  5
21E
330
17
100
AcDbEntity
  8
0
100
AcDbLine
 10
1094.8923936170488
 20
1695.3624983847474
 30
0.0
 11
1092.8012392957683
 21
1695.892454664494
 31
0.0
  0
LINE
  5
21F
330
17
100
AcDbEntity
  8
0
100
AcDbLine
 10
1092.8012392957683
 20
1695.892454664494
 30
0.0
 11
1090.7007546305979
 21
1696.3841295827442
 31
0.0
  0
LINE
  5
220
330
17
100
AcDbEntity
  8
0
100
AcDbLine
 10
1090.7007546305979
 20
1696.3841295827442
 30
0.0
 11
1088.5916403508627
 21
1696.8373591149566
 31
0.0
  0
LINE
  5
221
330
17
100
AcDbEntity
  8
0
100
AcDbLine
 10
1088.5916403508627
 20
1696.8373591149566
 30
0.0
 11
1086.4746000647585
 21
1697.2519920621098
 31
0.0
  0
LINE
  5
222
330
17
100
AcDbEntity
  8
0
100
AcDbLine
 10
1086.4746000647585
 20
1697.2519920621098
 30
0.0
 11
1084.350340024626
 21
1697.627890101145
 31
0.0
  0
LINE
  5
223
330
17
100
AcDbEntity
  8
0
100
AcDbLine
 10
1084.350340024626
 20
1697.627890101145
 30
0.0
 11
1082.219568891343
 21
1697.9649278311094
 31
0.0
  0
LINE
  5
224
330
17
100
AcDbEntity
  8
0
100
AcDbLine
 10
1082.219568891343
 20
1697.9649278311094
 30
0.0
 11
1080.0829974979094
 21
1698.2629928149897
 31
0.0
  0
LINE
  5
225
330
17
100
AcDbEntity
  8
0
100
AcDbLine
 10
1080.0829974979094
 20
1698.2629928149897
 30
0.0
 11
1077.9413386123156
 21
1698.5219856172216
 31
0.0
  0
LINE
  5
226
330
17
100
AcDbEntity
  8
0
100
AcDbLine
 10
1077.9413386123156
 20
1698.5219856172216
 30
0.0
 11
1075.7953066997554
 21
1698.7418198368673
 31
0.0
  0
LINE
  5
227
330
17
100
AcDbEntity
  8
0
100
AcDbLine
 10
1075.7953066997554
 20
1698.7418198368673
 30
0.0
 11
1073.6456176842823
 21
1698.9224221364286
 31
0.0
  0
LINE
  5
228
330
17
100
AcDbEntity
  8
0
100
AcDbLine
 10
1073.6456176842823
 20
1698.9224221364286
 30
0.0
 11
1071.4929887099718
 21
1699.0637322663229
 31
0.0
  0
LINE
  5
229
330
17
100
AcDbEntity
  8
0
100
AcDbLine
 10
1071.4929887099718
 20
1699.0637322663229
 30
0.0
 11
1069.33813790168
 21
1699.165703084976
 31
0.0
  0
LINE
  5
22A
330
17
100
AcDbEntity
  8
0
100
AcDbLine
 10
1069.33813790168
 20
1699.165703084976
 30
0.0
 11
1067.1817841254751
 21
1699.2283005745517
 31
0.0
  0
LINE
  5
22B
330
17
100
AcDbEntity
  8
0
100
AcDbLine
 10
1067.1817841254751
 20
1699.2283005745517
 30
0.0
 11
1065.0246467488219
 21
1699.2515038523002
 31
0.0
  0
LINE
  5
22C
330
17
100
AcDbEntity
  8
0
100
AcDbLine
 10
1065.0246467488219
 20
1699.2515038523002
 30
0.0
 11
1062.8674454005961
 21
1699.2353051775242
 31
0.0
  0
LINE
  5
22D
330
17
100
AcDbEntity
  8
0
100
AcDbLine
 10
1062.8674454005961
 20
1699.2353051775242
 30
0.0
 11
1060.7108997310143
 21
1699.1797099541595
 31
0.0
  0
LINE
  5
22E
330
17
100
AcDbEntity
  8
0
100
AcDbLine
 10
1155.0293263903254
 20
1391.3121909827491
 30
0.0
 11
1153.4382344615615
 21
1392.7689704883965
 31
0.0
  0
LINE
  5
22F
330
17
100
AcDbEntity
  8
0
100
AcDbLine
 10
1153.4382344615615
 20
1392.7689704883965
 30
0.0
 11
1151.8208012244302
 21
1394.1964472052912
 31
0.0
  0
LINE
  5
230
330
17
100
AcDbEntity
  8
0
100
AcDbLine
 10
1151.8208012244302
 20
1394.1964472052912
 30
0.0
 11
1150.1775662605442
 21
1395.5941449220084
 31
0.0
  0
LINE
  5
231
330
17
100
AcDbEntity
  8
0
100
AcDbLine
 10
1150.1775662605442
 20
1395.5941449220084
 30
0.0
 11
1148.5090777590644
 21
1396.9615973615037
 31
0.0
  0
LINE
  5
232
330
17
100
AcDbEntity
  8
0
100
AcDbLine
 10
1148.5090777590644
 20
1396.9615973615037
 30
0.0
 11
1146.8158923338249
 21
1398.29834833667
 31
0.0
  0
LINE
  5
233
330
17
100
AcDbEntity
  8
0
100
AcDbLine
 10
1146.8158923338249
 20
1398.29834833667
 30
0.0
 11
1145.0985748376424
 21
1399.6039519025203
 31
0.0
  0
LINE
  5
234
330
17
100
AcDbEntity
  8
0
100
AcDbLine
 10
1145.0985748376424
 20
1399.6039519025203
 30
0.0
 11
1143.357698173882
 21
1400.877972504953
 31
0.0
  0
LINE
  5
235
330
17
100
AcDbEntity
  8
0
100
AcDbLine
 10
1143.357698173882
 20
1400.877972504953
 30
0.0
 11
1141.5938431053296
 21
1402.1199851260633
 31
0.0
  0
LINE
  5
236
330
17
100
AcDbEntity
  8
0
100
AcDbLine
 10
1141.5938431053296
 20
1402.1199851260633
 30
0.0
 11
1139.8075980604542
 21
1403.329575425921
 31
0.0
  0
LINE
  5
237
330
17
100
AcDbEntity
  8
0
100
AcDbLine
 10
1139.8075980604542
 20
1403.329575425921
 30
0.0
 11
1137.9995589371
 21
1404.5063398808027
 31
0.0
  0
LINE
  5
238
330
17
100
AcDbEntity
  8
0
100
AcDbLine
 10
1137.9995589371
 20
1404.5063398808027
 30
0.0
 11
1136.1703289036955
 21
1405.6498859178062
 31
0.0
  0
LINE
  5
239
330
17
100
AcDbEntity
  8
0
100
AcDbLine
 10
1136.1703289036955
 20
1405.6498859178062
 30
0.0
 11
1134.320518198034
 21
1406.759832045812
 31
0.0
  0
LINE
  5
23A
330
17
100
AcDbEntity
  8
0
100
AcDbLine
 10
1134.320518198034
 20
1406.759832045812
 30
0.0
 11
1132.450743923697
 21
1407.835807982754
 31
0.0
  0
LINE
  5
23B
330
17
100
AcDbEntity
  8
0
100
AcDbLine
 10
1132.450743923697
 20
1407.835807982754
 30
0.0
 11
1130.561629844183
 21
1408.8774547791459
 31
0.0
  0
LINE
  5
23C
330
17
100
AcDbEntity
  8
0
100
AcDbLine
 10
1130.561629844183
 20
1408.8774547791459
 30
0.0
 11
1128.6538061748213
 21
1409.884424937828
 31
0.0
  0
LINE
  5
23D
330
17
100
AcDbEntity
  8
0
100
AcDbLine
 10
1128.6538061748213
 20
1409.884424937828
 30
0.0
 11
1126.7279093725288
 21
1410.8563825298936
 31
0.0
  0
LINE
  5
23E
330
17
100
AcDbEntity
  8
0
100
AcDbLine
 10
1126.7279093725288
 20
1410.8563825298936
 30
0.0
 11
1124.784581923484
 21
1411.79300330675
 31
0.0
  0
LINE
  5
23F
330
17
100
AcDbEntity
  8
0
100
AcDbLine
 10
1124.784581923484
 20
1411.79300330675
 30
0.0
 11
1122.8244721287933
 21
1412.6939748083037
 31
0.0
  0
LINE
  5
240
330
17
100
AcDbEntity
  8
0
100
AcDbLine
 10
1122.8244721287933
 20
1412.6939748083037
 30
0.0
 11
1120.8482338882147
 21
1413.5589964671804
 31
0.0
  0
LINE
  5
241
330
17
100
AcDbEntity
  8
0
100
AcDbLine
 10
1120.8482338882147
 20
1413.5589964671804
 30
0.0
 11
1118.856526482014
 21
1414.3877797090097
 31
0.0
  0
LINE
  5
242
330
17
100
AcDbEntity
  8
0
100
AcDbLine
 10
1118.856526482014
 20
1414.3877797090097
 30
0.0
 11
1116.8500143510273
 21
1415.1800480486877
 31
0.0
  0
LINE
  5
243
330
17
100
AcDbEntity
  8
0
100
AcDbLine
 10
1116.8500143510273
 20
1415.1800480486877
 30
0.0
 11
1114.8293668750007
 21
1415.9355371826136
 31
0.0
  0
LINE
  5
244
330
17
100
AcDbEntity
  8
0
100
AcDbLine
 10
1114.8293668750007
 20
1415.9355371826136
 30
0.0
 11
1112.7952581492825
 21
1416.6539950768647
 31
0.0
  0
LINE
  5
245
330
17
100
AcDbEntity
  8
0
100
AcDbLine
 10
1112.7952581492825
 20
1416.6539950768647
 30
0.0
 11
1110.7483667599436
 21
1417.3351820512733
 31
0.0
  0
LINE
  5
246
330
17
100
AcDbEntity
  8
0
100
AcDbLine
 10
1110.7483667599436
 20
1417.3351820512733
 30
0.0
 11
1108.6893755573974
 21
1417.9788708593858
 31
0.0
  0
LINE
  5
247
330
17
100
AcDbEntity
  8
0
100
AcDbLine
 10
1108.6893755573974
 20
1417.9788708593858
 30
0.0
 11
1106.618971428599
 21
1418.5848467642759
 31
0.0
  0
LINE
  5
248
330
17
100
AcDbEntity
  8
0
100
AcDbLine
 10
1106.618971428599
 20
1418.5848467642759
 30
0.0
 11
1104.5378450678975
 21
1419.152907610177
 31
0.0
  0
LINE
  5
249
330
17
100
AcDbEntity
  8
0
100
AcDbLine
 10
1104.5378450678975
 20
1419.152907610177
 30
0.0
 11
1102.446690746617
 21
1419.682863889924
 31
0.0
  0
LINE
  5
24A
330
17
100
AcDbEntity
  8
0
100
AcDbLine
 10
1102.446690746617
 20
1419.682863889924
 30
0.0
 11
1100.3462060814466
 21
1420.1745388081738
 31
0.0
  0
LINE
  5
24B
330
17
100
AcDbEntity
  8
0
100
AcDbLine
 10
1100.3462060814466
 20
1420.1745388081738
 30
0.0
 11
1098.2370918017114
 21
1420.6277683403866
 31
0.0
  0
LINE
  5
24C
330
17
100
AcDbEntity
  8
0
100
AcDbLine
 10
1098.2370918017114
 20
1420.6277683403866
 30
0.0
 11
1096.1200515156074
 21
1421.0424012875396
 31
0.0
  0
LINE
  5
24D
330
17
100
AcDbEntity
  8
0
100
AcDbLine
 10
1096.1200515156074
 20
1421.0424012875396
 30
0.0
 11
1093.9957914754748
 21
1421.418299326575
 31
0.0
  0
LINE
  5
24E
330
17
100
AcDbEntity
  8
0
100
AcDbLine
 10
1093.9957914754748
 20
1421.418299326575
 30
0.0
 11
1091.8650203421919
 21
1421.7553370565392
 31
0.0
  0
LINE
  5
24F
330
17
100
AcDbEntity
  8
0
100
AcDbLine
 10
1091.8650203421919
 20
1421.7553370565392
 30
0.0
 11
1089.7284489487581
 21
1422.0534020404195
 31
0.0
  0
LINE
  5
250
330
17
100
AcDbEntity
  8
0
100
AcDbLine
 10
1089.7284489487581
 20
1422.0534020404195
 30
0.0
 11
1087.5867900631645
 21
1422.3123948426514
 31
0.0
  0
LINE
  5
251
330
17
100
AcDbEntity
  8
0
100
AcDbLine
 10
1087.5867900631645
 20
1422.3123948426514
 30
0.0
 11
1085.440758150604
 21
1422.5322290622962
 31
0.0
  0
LINE
  5
252
330
17
100
AcDbEntity
  8
0
100
AcDbLine
 10
1085.440758150604
 20
1422.5322290622962
 30
0.0
 11
1083.2910691351312
 21
1422.7128313618584
 31
0.0
  0
LINE
  5
253
330
17
100
AcDbEntity
  8
0
100
AcDbLine
 10
1083.2910691351312
 20
1422.7128313618584
 30
0.0
 11
1081.1384401608204
 21
1422.854141491751
 31
0.0
  0
LINE
  5
254
330
17
100
AcDbEntity
  8
0
100
AcDbLine
 10
1081.1384401608204
 20
1422.854141491751
 30
0.0
 11
1078.9835893525287
 21
1422.9561123104058
 31
0.0
  0
LINE
  5
255
330
17
100
AcDbEntity
  8
0
100
AcDbLine
 10
1078.9835893525287
 20
1422.9561123104058
 30
0.0
 11
1076.827235576324
 21
1423.0187097999806
 31
0.0
  0
LINE
  5
256
330
17
100
AcDbEntity
  8
0
100
AcDbLine
 10
1076.827235576324
 20
1423.0187097999806
 30
0.0
 11
1074.6700981996705
 21
1423.04191307773
 31
0.0
  0
LINE
  5
257
330
17
100
AcDbEntity
  8
0
100
AcDbLine
 10
1074.6700981996705
 20
1423.04191307773
 30
0.0
 11
1072.512896851445
 21
1423.0257144029529
 31
0.0
  0
LINE
  5
258
330
17
100
AcDbEntity
  8
0
100
AcDbLine
 10
1072.512896851445
 20
1423.0257144029529
 30
0.0
 11
1070.3563511818631
 21
1422.9701191795893
 31
0.0
  0
LINE
  5
259
330
17
100
AcDbEntity
  8
0
100
AcDbLine
 10
1335.9424961574102
 20
1432.2445917284836
 30
0.0
 11
1333.9082683738275
 21
1432.154040157854
 31
0.0
  0
LINE
  5
25A
330
17
100
AcDbEntity
  8
0
100
AcDbLine
 10
1333.9082683738275
 20
1432.154040157854
 30
0.0
 11
1331.8761483177855
 21
1432.0245398092911
 31
0.0
  0
LINE
  5
25B
330
17
100
AcDbEntity
  8
0
100
AcDbLine
 10
1331.8761483177855
 20
1432.0245398092911
 30
0.0
 11
1329.8468816617922
 21
1431.8561382020603
 31
0.0
  0
LINE
  5
25C
330
17
100
AcDbEntity
  8
0
100
AcDbLine
 10
1329.8468816617922
 20
1431.8561382020603
 30
0.0
 11
1327.8212130313184
 21
1431.648897129975
 31
0.0
  0
LINE
  5
25D
330
17
100
AcDbEntity
  8
0
100
AcDbLine
 10
1327.8212130313184
 20
1431.648897129975
 30
0.0
 11
1325.7998857315654
 21
1431.4028926387236
 31
0.0
  0
LINE
  5
25E
330
17
100
AcDbEntity
  8
0
100
AcDbLine
 10
1325.7998857315654
 20
1431.4028926387236
 30
0.0
 11
1323.783641474711
 21
1431.1182149979666
 31
0.0
  0
LINE
  5
25F
330
17
100
AcDbEntity
  8
0
100
AcDbLine
 10
1323.783641474711
 20
1431.1182149979666
 30
0.0
 11
1321.7732201077476
 21
1430.7949686682118
 31
0.0
  0
LINE
  5
260
330
17
100
AcDbEntity
  8
0
100
AcDbLine
 10
1321.7732201077476
 20
1430.7949686682118
 30
0.0
 11
1319.7693593409967
 21
1430.433272262476
 31
0.0
  0
LINE
  5
261
330
17
100
AcDbEntity
  8
0
100
AcDbLine
 10
1319.7693593409967
 20
1430.433272262476
 30
0.0
 11
1317.772794477413
 21
1430.0332585027768
 31
0.0
  0
LINE
  5
262
330
17
100
AcDbEntity
  8
0
100
AcDbLine
 10
1317.772794477413
 20
1430.0332585027768
 30
0.0
 11
1315.7842581427697
 21
1429.5950741714198
 31
0.0
  0
LINE
  5
263
330
17
100
AcDbEntity
  8
0
100
AcDbLine
 10
1315.7842581427697
 20
1429.5950741714198
 30
0.0
 11
1313.8044800168263
 21
1429.1188800571344
 31
0.0
  0
LINE
  5
264
330
17
100
AcDbEntity
  8
0
100
AcDbLine
 10
1313.8044800168263
 20
1429.1188800571344
 30
0.0
 11
1311.834186565578
 21
1428.6048508960816
 31
0.0
  0
LINE
  5
265
330
17
100
AcDbEntity
  8
0
100
AcDbLine
 10
1311.834186565578
 20
1428.6048508960816
 30
0.0
 11
1309.8741007746826
 21
1428.053175307736
 31
0.0
  0
LINE
  5
266
330
17
100
AcDbEntity
  8
0
100
AcDbLine
 10
1309.8741007746826
 20
1428.053175307736
 30
0.0
 11
1307.9249418841691
 21
1427.4640557256685
 31
0.0
  0
LINE
  5
267
330
17
100
AcDbEntity
  8
0
100
AcDbLine
 10
1307.9249418841691
 20
1427.4640557256685
 30
0.0
 11
1305.9874251245128
 21
1426.8377083232676
 31
0.0
  0
LINE
  5
268
330
17
100
AcDbEntity
  8
0
100
AcDbLine
 10
1305.9874251245128
 20
1426.8377083232676
 30
0.0
 11
1304.0622614541912
 21
1426.1743629344082
 31
0.0
  0
LINE
  5
269
330
17
100
AcDbEntity
  8
0
100
AcDbLine
 10
1304.0622614541912
 20
1426.1743629344082
 30
0.0
 11
1302.1501572987995
 21
1425.4742629691336
 31
0.0
  0
LINE
  5
26A
330
17
100
AcDbEntity
  8
0
100
AcDbLine
 10
1302.1501572987995
 20
1425.4742629691336
 30
0.0
 11
1300.2518142918334
 21
1424.7376653243175
 31
0.0
  0
LINE
  5
26B
330
17
100
AcDbEntity
  8
0
100
AcDbLine
 10
1300.2518142918334
 20
1424.7376653243175
 30
0.0
 11
1298.3679290172304
 21
1423.9648402894127
 31
0.0
  0
LINE
  5
26C
330
17
100
AcDbEntity
  8
0
100
AcDbLine
 10
1298.3679290172304
 20
1423.9648402894127
 30
0.0
 11
1296.4991927537608
 21
1423.1560714472578
 31
0.0
  0
LINE
  5
26D
330
17
100
AcDbEntity
  8
0
100
AcDbLine
 10
1296.4991927537608
 20
1423.1560714472578
 30
0.0
 11
1294.646291221371
 21
1422.3116555700308
 31
0.0
  0
LINE
  5
26E
330
17
100
AcDbEntity
  8
0
100
AcDbLine
 10
1294.646291221371
 20
1422.3116555700308
 30
0.0
 11
1292.8099043295608
 21
1421.4319025103423
 31
0.0
  0
LINE
  5
26F
330
17
100
AcDbEntity
  8
0
100
AcDbLine
 10
1292.8099043295608
 20
1421.4319025103423
 30
0.0
 11
1290.9907059278953
 21
1420.5171350875387
 31
0.0
  0
LINE
  5
270
330
17
100
AcDbEntity
  8
0
100
AcDbLine
 10
1290.9907059278953
 20
1420.5171350875387
 30
0.0
 11
1289.1893635587423
 21
1419.5676889692463
 31
0.0
  0
LINE
  5
271
330
17
100
AcDbEntity
  8
0
100
AcDbLine
 10
1289.1893635587423
 20
1419.5676889692463
 30
0.0
 11
1287.4065382123208
 21
1418.5839125482032
 31
0.0
  0
LINE
  5
272
330
17
100
AcDbEntity
  8
0
100
AcDbLine
 10
1287.4065382123208
 20
1418.5839125482032
 30
0.0
 11
1285.6428840841543
 21
1417.5661668144141
 31
0.0
  0
LINE
  5
273
330
17
100
AcDbEntity
  8
0
100
AcDbLine
 10
1285.6428840841543
 20
1417.5661668144141
 30
0.0
 11
1283.8990483350206
 21
1416.5148252226913
 31
0.0
  0
LINE
  5
274
330
17
100
AcDbEntity
  8
0
100
AcDbLine
 10
1283.8990483350206
 20
1416.5148252226913
 30
0.0
 11
1282.1756708534788
 21
1415.4302735556134
 31
0.0
  0
LINE
  5
275
330
17
100
AcDbEntity
  8
0
100
AcDbLine
 10
1282.1756708534788
 20
1415.4302735556134
 30
0.0
 11
1280.473384021067
 21
1414.3129097819742
 31
0.0
  0
LINE
  5
276
330
17
100
AcDbEntity
  8
0
100
AcDbLine
 10
1280.473384021067
 20
1414.3129097819742
 30
0.0
 11
1278.792812480255
 21
1413.1631439107398
 31
0.0
  0
LINE
  5
277
330
17
100
AcDbEntity
  8
0
100
AcDbLine
 10
1278.792812480255
 20
1413.1631439107398
 30
0.0
 11
1277.1345729052346
 21
1411.9813978406044
 31
0.0
  0
LINE
  5
278
330
17
100
AcDbEntity
  8
0
100
AcDbLine
 10
1277.1345729052346
 20
1411.9813978406044
 30
0.0
 11
1275.4992737756359
 21
1410.768105205178
 31
0.0
  0
LINE
  5
279
330
17
100
AcDbEntity
  8
0
100
AcDbLine
 10
1275.4992737756359
 20
1410.768105205178
 30
0.0
 11
1273.887515153252
 21
1409.5237112138661
 31
0.0
  0
LINE
  5
27A
330
17
100
AcDbEntity
  8
0
100
AcDbLine
 10
1273.887515153252
 20
1409.5237112138661
 30
0.0
 11
1272.299888461845
 21
1408.2486724885011
 31
0.0
  0
LINE
  5
27B
330
17
100
AcDbEntity
  8
0
100
AcDbLine
 10
1272.299888461845
 20
1408.2486724885011
 30
0.0
 11
1270.7369762701344
 21
1406.9434568957947
 31
0.0
  0
LINE
  5
27C
330
17
100
AcDbEntity
  8
0
100
AcDbLine
 10
1270.7369762701344
 20
1406.9434568957947
 30
0.0
 11
1269.1993520780197
 21
1405.6085433756482
 31
0.0
  0
LINE
  5
27D
330
17
100
AcDbEntity
  8
0
100
AcDbLine
 10
1269.1993520780197
 20
1405.6085433756482
 30
0.0
 11
1267.6875801061467
 21
1404.2444217654156
 31
0.0
  0
LINE
  5
27E
330
17
100
AcDbEntity
  8
0
100
AcDbLine
 10
1267.6875801061467
 20
1404.2444217654156
 30
0.0
 11
1266.2022150888627
 21
1402.8515926201594
 31
0.0
  0
LINE
  5
27F
330
17
100
AcDbEntity
  8
0
100
AcDbLine
 10
1266.2022150888627
 20
1402.8515926201594
 30
0.0
 11
1264.743802070667
 21
1401.430567028976
 31
0.0
  0
LINE
  5
280
330
17
100
AcDbEntity
  8
0
100
AcDbLine
 10
1264.743802070667
 20
1401.430567028976
 30
0.0
 11
1263.312876206206
 21
1399.981866427449
 31
0.0
  0
LINE
  5
281
330
17
100
AcDbEntity
  8
0
100
AcDbLine
 10
1263.312876206206
 20
1399.981866427449
 30
0.0
 11
1261.9099625639044
 21
1398.5060224063254
 31
0.0
  0
LINE
  5
282
330
17
100
AcDbEntity
  8
0
100
AcDbLine
 10
1166.1591701596897
 20
1166.908617750344
 30
0.0
 11
1167.3748282002139
 21
1168.2411003302464
 31
0.0
  0
LINE
  5
283
330
17
100
AcDbEntity
  8
0
100
AcDbLine
 10
1167.3748282002139
 20
1168.2411003302464
 30
0.0
 11
1168.5611289927529
 21
1169.5997852557732
 31
0.0
  0
LINE
  5
284
330
17
100
AcDbEntity
  8
0
100
AcDbLine
 10
1168.5611289927529
 20
1169.5997852557732
 30
0.0
 11
1169.71750792238
 21
1170.9840258664856
 31
0.0
  0
LINE
  5
285
330
17
100
AcDbEntity
  8
0
100
AcDbLine
 10
1169.71750792238
 20
1170.9840258664856
 30
0.0
 11
1170.8434146153534
 21
1172.3931633388236
 31
0.0
  0
LINE
  5
286
330
17
100
AcDbEntity
  8
0
100
AcDbLine
 10
1170.8434146153534
 20
1172.3931633388236
 30
0.0
 11
1171.9383132010664
 21
1173.8265269996693
 31
0.0
  0
LINE
  5
287
330
17
100
AcDbEntity
  8
0
100
AcDbLine
 10
1171.9383132010664
 20
1173.8265269996693
 30
0.0
 11
1173.0016825670918
 21
1175.2834346455522
 31
0.0
  0
LINE
  5
288
330
17
100
AcDbEntity
  8
0
100
AcDbLine
 10
1173.0016825670918
 20
1175.2834346455522
 30
0.0
 11
1174.033016607203
 21
1176.7631928673356
 31
0.0
  0
LINE
  5
289
330
17
100
AcDbEntity
  8
0
100
AcDbLine
 10
1174.033016607203
 20
1176.7631928673356
 30
0.0
 11
1175.031824462254
 21
1178.265097380253
 31
0.0
  0
LINE
  5
28A
330
17
100
AcDbEntity
  8
0
100
AcDbLine
 10
1175.031824462254
 20
1178.265097380253
 30
0.0
 11
1175.9976307538006
 21
1179.788433359097
 31
0.0
  0
LINE
  5
28B
330
17
100
AcDbEntity
  8
0
100
AcDbLine
 10
1175.9976307538006
 20
1179.788433359097
 30
0.0
 11
1176.929975810357
 21
1181.332475778446
 31
0.0
  0
LINE
  5
28C
330
17
100
AcDbEntity
  8
0
100
AcDbLine
 10
1176.929975810357
 20
1181.332475778446
 30
0.0
 11
1177.828415886171
 21
1182.8964897577318
 31
0.0
  0
LINE
  5
28D
330
17
100
AcDbEntity
  8
0
100
AcDbLine
 10
1177.828415886171
 20
1182.8964897577318
 30
0.0
 11
1178.6925233724253
 21
1184.4797309110097
 31
0.0
  0
LINE
  5
28E
330
17
100
AcDbEntity
  8
0
100
AcDbLine
 10
1178.6925233724253
 20
1184.4797309110097
 30
0.0
 11
1179.521887000758
 21
1186.0814457012352
 31
0.0
  0
LINE
  5
28F
330
17
100
AcDbEntity
  8
0
100
AcDbLine
 10
1179.521887000758
 20
1186.0814457012352
 30
0.0
 11
1180.3161120389989
 21
1187.7008717989204
 31
0.0
  0
LINE
  5
290
330
17
100
AcDbEntity
  8
0
100
AcDbLine
 10
1180.3161120389989
 20
1187.7008717989204
 30
0.0
 11
1181.0748204790455
 21
1189.3372384449494
 31
0.0
  0
LINE
  5
291
330
17
100
AcDbEntity
  8
0
100
AcDbLine
 10
1181.0748204790455
 20
1189.3372384449494
 30
0.0
 11
1181.7976512167716
 21
1190.9897668174217
 31
0.0
  0
LINE
  5
292
330
17
100
AcDbEntity
  8
0
100
AcDbLine
 10
1181.7976512167716
 20
1190.9897668174217
 30
0.0
 11
1182.4842602238941
 21
1192.6576704023364
 31
0.0
  0
LINE
  5
293
330
17
100
AcDbEntity
  8
0
100
AcDbLine
 10
1182.4842602238941
 20
1192.6576704023364
 30
0.0
 11
1183.1343207117127
 21
1194.3401553679178
 31
0.0
  0
LINE
  5
294
330
17
100
AcDbEntity
  8
0
100
AcDbLine
 10
1183.1343207117127
 20
1194.3401553679178
 30
0.0
 11
1183.7475232866425
 21
1196.0364209424463
 31
0.0
  0
LINE
  5
295
330
17
100
AcDbEntity
  8
0
100
AcDbLine
 10
1183.7475232866425
 20
1196.0364209424463
 30
0.0
 11
1184.3235760974683
 21
1197.745659795379
 31
0.0
  0
LINE
  5
296
330
17
100
AcDbEntity
  8
0
100
AcDbLine
 10
1184.3235760974683
 20
1197.745659795379
 30
0.0
 11
1184.8622049742512
 21
1199.467058421592
 31
0.0
  0
LINE
  5
297
330
17
100
AcDbEntity
  8
0
100
AcDbLine
 10
1184.8622049742512
 20
1199.467058421592
 30
0.0
 11
1185.363153558818
 21
1201.1997975285688
 31
0.0
  0
LINE
  5
298
330
17
100
AcDbEntity
  8
0
100
AcDbLine
 10
1185.363153558818
 20
1201.1997975285688
 30
0.0
 11
1185.8261834267742
 21
1202.9430524263428
 31
0.0
  0
LINE
  5
299
330
17
100
AcDbEntity
  8
0
100
AcDbLine
 10
1185.8261834267742
 20
1202.9430524263428
 30
0.0
 11
1186.251074200979
 21
1204.6959934199958
 31
0.0
  0
LINE
  5
29A
330
17
100
AcDbEntity
  8
0
100
AcDbLine
 10
1186.251074200979
 20
1204.6959934199958
 30
0.0
 11
1186.637623656437
 21
1206.4577862045517
 31
0.0
  0
LINE
  5
29B
330
17
100
AcDbEntity
  8
0
100
AcDbLine
 10
1186.637623656437
 20
1206.4577862045517
 30
0.0
 11
1186.9856478165423
 21
1208.227592262066
 31
0.0
  0
LINE
  5
29C
330
17
100
AcDbEntity
  8
0
100
AcDbLine
 10
1186.9856478165423
 20
1208.227592262066
 30
0.0
 11
1187.2949810406442
 21
1210.0045692607066
 31
0.0
  0
LINE
  5
29D
330
17
100
AcDbEntity
  8
0
100
AcDbLine
 10
1187.2949810406442
 20
1210.0045692607066
 30
0.0
 11
1187.5654761028807
 21
1211.7878714556632
 31
0.0
  0
LINE
  5
29E
330
17
100
AcDbEntity
  8
0
100
AcDbLine
 10
1187.5654761028807
 20
1211.7878714556632
 30
0.0
 11
1187.7970042622524
 21
1213.5766500916745
 31
0.0
  0
LINE
  5
29F
330
17
100
AcDbEntity
  8
0
100
AcDbLine
 10
1187.7970042622524
 20
1213.5766500916745
 30
0.0
 11
1187.9894553238955
 21
1215.3700538069897
 31
0.0
  0
LINE
  5
2A0
330
17
100
AcDbEntity
  8
0
100
AcDbLine
 10
1187.9894553238955
 20
1215.3700538069897
 30
0.0
 11
1188.1427376915274
 21
1217.1672290385695
 31
0.0
  0
LINE
  5
2A1
330
17
100
AcDbEntity
  8
0
100
AcDbLine
 10
1188.1427376915274
 20
1217.1672290385695
 30
0.0
 11
1188.2567784110424
 21
1218.9673204283386
 31
0.0
  0
LINE
  5
2A2
330
17
100
AcDbEntity
  8
0
100
AcDbLine
 10
1188.2567784110424
 20
1218.9673204283386
 30
0.0
 11
1188.3315232052353
 21
1220.7694712302898
 31
0.0
  0
LINE
  5
2A3
330
17
100
AcDbEntity
  8
0
100
AcDbLine
 10
1188.3315232052353
 20
1220.7694712302898
 30
0.0
 11
1188.3669364996313
 21
1222.5728237182436
 31
0.0
  0
LINE
  5
2A4
330
17
100
AcDbEntity
  8
0
100
AcDbLine
 10
1188.3669364996313
 20
1222.5728237182436
 30
0.0
 11
1188.363001439421
 21
1224.376519594087
 31
0.0
  0
LINE
  5
2A5
330
17
100
AcDbEntity
  8
0
100
AcDbLine
 10
1188.363001439421
 20
1224.376519594087
 30
0.0
 11
1188.3197198974792
 21
1226.1797003962693
 31
0.0
  0
LINE
  5
2A6
330
17
100
AcDbEntity
  8
0
100
AcDbLine
 10
1188.3197198974774
 20
1226.1797003962693
 30
0.0
 11
1188.4146931226612
 21
1224.0245298368125
 31
0.0
  0
LINE
  5
2A7
330
17
100
AcDbEntity
  8
0
100
AcDbLine
 10
1188.4146931226612
 20
1224.0245298368125
 30
0.0
 11
1188.549012666251
 21
1221.8714533602179
 31
0.0
  0
LINE
  5
2A8
330
17
100
AcDbEntity
  8
0
100
AcDbLine
 10
1188.549012666251
 20
1221.8714533602179
 30
0.0
 11
1188.7226337187585
 21
1219.7211892406324
 31
0.0
  0
LINE
  5
2A9
330
17
100
AcDbEntity
  8
0
100
AcDbLine
 10
1188.7226337187585
 20
1219.7211892406324
 30
0.0
 11
1188.935498359569
 21
1217.5744548139858
 31
0.0
  0
LINE
  5
2AA
330
17
100
AcDbEntity
  8
0
100
AcDbLine
 10
1188.935498359569
 20
1217.5744548139858
 30
0.0
 11
1189.1875355762638
 21
1215.431966238694
 31
0.0
  0
LINE
  5
2AB
330
17
100
AcDbEntity
  8
0
100
AcDbLine
 10
1189.1875355762638
 20
1215.431966238694
 30
0.0
 11
1189.478661288311
 21
1213.294438256741
 31
0.0
  0
LINE
  5
2AC
330
17
100
AcDbEntity
  8
0
100
AcDbLine
 10
1189.478661288311
 20
1213.294438256741
 30
0.0
 11
1189.8087783751137
 21
1211.1625839552328
 31
0.0
  0
LINE
  5
2AD
330
17
100
AcDbEntity
  8
0
100
AcDbLine
 10
1189.8087783751137
 20
1211.1625839552328
 30
0.0
 11
1190.1777767084106
 21
1209.037114528523
 31
0.0
  0
LINE
  5
2AE
330
17
100
AcDbEntity
  8
0
100
AcDbLine
 10
1190.1777767084106
 20
1209.037114528523
 30
0.0
 11
1190.5855331890164
 21
1206.9187390409443
 31
0.0
  0
LINE
  5
2AF
330
17
100
AcDbEntity
  8
0
100
AcDbLine
 10
1190.5855331890164
 20
1206.9187390409443
 30
0.0
 11
1191.0319117878844
 21
1204.8081641902634
 31
0.0
  0
LINE
  5
2B0
330
17
100
AcDbEntity
  8
0
100
AcDbLine
 10
1191.0319117878844
 20
1204.8081641902634
 30
0.0
 11
1191.5167635914913
 21
1202.7060940719302
 31
0.0
  0
LINE
  5
2B1
330
17
100
AcDbEntity
  8
0
100
AcDbLine
 10
1191.5167635914913
 20
1202.7060940719302
 30
0.0
 11
1192.0399268515114
 21
1200.6132299441806
 31
0.0
  0
LINE
  5
2B2
330
17
100
AcDbEntity
  8
0
100
AcDbLine
 10
1192.0399268515114
 20
1200.6132299441806
 30
0.0
 11
1192.601227038778
 21
1198.5302699941028
 31
0.0
  0
LINE
  5
2B3
330
17
100
AcDbEntity
  8
0
100
AcDbLine
 10
1192.601227038778
 20
1198.5302699941028
 30
0.0
 11
1193.2004769015066
 21
1196.4579091047135
 31
0.0
  0
LINE
  5
2B4
330
17
100
AcDbEntity
  8
0
100
AcDbLine
 10
1193.2004769015066
 20
1196.4579091047135
 30
0.0
 11
1193.8374765277633
 21
1194.3968386231425
 31
0.0
  0
LINE
  5
2B5
330
17
100
AcDbEntity
  8
0
100
AcDbLine
 10
1193.8374765277633
 20
1194.3968386231425
 30
0.0
 11
1194.5120134121555
 21
1192.3477461300013
 31
0.0
  0
LINE
  5
2B6
330
17
100
AcDbEntity
  8
0
100
AcDbLine
 10
1194.5120134121555
 20
1192.3477461300013
 30
0.0
 11
1195.223862526725
 21
1190.311315209999
 31
0.0
  0
LINE
  5
2B7
330
17
100
AcDbEntity
  8
0
100
AcDbLine
 10
1195.223862526725
 20
1190.311315209999
 30
0.0
 11
1195.9727863960172
 21
1188.2882252238996
 31
0.0
  0
LINE
  5
2B8
330
17
100
AcDbEntity
  8
0
100
AcDbLine
 10
1195.9727863960172
 20
1188.2882252238996
 30
0.0
 11
1196.7585351763055
 21
1186.2791510818806
 31
0.0
  0
LINE
  5
2B9
330
17
100
AcDbEntity
  8
0
100
AcDbLine
 10
1196.7585351763055
 20
1186.2791510818806
 30
0.0
 11
1197.5808467389377
 21
1184.2847630183846
 31
0.0
  0
LINE
  5
2BA
330
17
100
AcDbEntity
  8
0
100
AcDbLine
 10
1197.5808467389377
 20
1184.2847630183846
 30
0.0
 11
1198.4394467577858
 21
1182.305726368525
 31
0.0
  0
LINE
  5
2BB
330
17
100
AcDbEntity
  8
0
100
AcDbLine
 10
1198.4394467577858
 20
1182.305726368525
 30
0.0
 11
1199.33404880076
 21
1180.342701346127
 31
0.0
  0
LINE
  5
2BC
330
17
100
AcDbEntity
  8
0
100
AcDbLine
 10
1199.33404880076
 20
1180.342701346127
 30
0.0
 11
1200.2643544253644
 21
1178.3963428234795
 31
0.0
  0
LINE
  5
2BD
330
17
100
AcDbEntity
  8
0
100
AcDbLine
 10
1200.2643544253644
 20
1178.3963428234795
 30
0.0
 11
1201.2300532782583
 21
1176.4673001128663
 31
0.0
  0
LINE
  5
2BE
330
17
100
AcDbEntity
  8
0
100
AcDbLine
 10
1201.2300532782583
 20
1176.4673001128663
 30
0.0
 11
1202.2308231987918
 21
1174.5562167499504
 31
0.0
  0
LINE
  5
2BF
330
17
100
AcDbEntity
  8
0
100
AcDbLine
 10
1202.2308231987918
 20
1174.5562167499504
 30
0.0
 11
1203.2663303264783
 21
1172.6637302790984
 31
0.0
  0
LINE
  5
2C0
330
17
100
AcDbEntity
  8
0
100
AcDbLine
 10
1203.2663303264783
 20
1172.6637302790984
 30
0.0
 11
1204.3362292123734
 21
1170.7904720406768
 31
0.0
  0
LINE
  5
2C1
330
17
100
AcDbEntity
  8
0
100
AcDbLine
 10
1204.3362292123734
 20
1170.7904720406768
 30
0.0
 11
1205.4401629343172
 21
1168.9370669604518
 31
0.0
  0
LINE
  5
2C2
330
17
100
AcDbEntity
  8
0
100
AcDbLine
 10
1205.4401629343172
 20
1168.9370669604518
 30
0.0
 11
1206.5777632160039
 21
1167.1041333410953
 31
0.0
  0
LINE
  5
2C3
330
17
100
AcDbEntity
  8
0
100
AcDbLine
 10
1206.5777632160039
 20
1167.1041333410953
 30
0.0
 11
1207.7486505498405
 21
1165.2922826559363
 31
0.0
  0
LINE
  5
2C4
330
17
100
AcDbEntity
  8
0
100
AcDbLine
 10
1207.7486505498405
 20
1165.2922826559363
 30
0.0
 11
1208.9524343235541
 21
1163.5021193449518
 31
0.0
  0
LINE
  5
2C5
330
17
100
AcDbEntity
  8
0
100
AcDbLine
 10
1208.9524343235541
 20
1163.5021193449518
 30
0.0
 11
1210.1887129504985
 21
1161.7342406131327
 31
0.0
  0
LINE
  5
2C6
330
17
100
AcDbEntity
  8
0
100
AcDbLine
 10
1210.1887129504985
 20
1161.7342406131327
 30
0.0
 11
1211.4570740036263
 21
1159.9892362312594
 31
0.0
  0
LINE
  5
2C7
330
17
100
AcDbEntity
  8
0
100
AcDbLine
 10
1211.4570740036263
 20
1159.9892362312594
 30
0.0
 11
1212.757094353077
 21
1158.2676883391373
 31
0.0
  0
LINE
  5
2C8
330
17
100
AcDbEntity
  8
0
100
AcDbLine
 10
1212.757094353077
 20
1158.2676883391373
 30
0.0
 11
1214.0883403073317
 21
1156.570171251407
 31
0.0
  0
LINE
  5
2C9
330
17
100
AcDbEntity
  8
0
100
AcDbLine
 10
1214.0883403073317
 20
1156.570171251407
 30
0.0
 11
1215.450367757898
 21
1154.8972512659468
 31
0.0
  0
LINE
  5
2CA
330
17
100
AcDbEntity
  8
0
100
AcDbLine
 10
1215.450367757898
 20
1154.8972512659468
 30
0.0
 11
1216.8427223274637
 21
1153.2494864749444
 31
0.0
  0
LINE
  5
2CB
330
17
100
AcDbEntity
  8
0
100
AcDbLine
 10
1216.8427223274637
 20
1153.2494864749444
 30
0.0
 11
1218.2649395214794
 21
1151.6274265787329
 31
0.0
  0
LINE
  5
2CC
330
17
100
AcDbEntity
  8
0
100
AcDbLine
 10
1218.2649395214794
 20
1151.6274265787329
 30
0.0
 11
1219.716544883115
 21
1150.0316127023914
 31
0.0
  0
LINE
  5
2CD
330
17
100
AcDbEntity
  8
0
100
AcDbLine
 10
1219.716544883115
 20
1150.0316127023914
 30
0.0
 11
1221.197054151542
 21
1148.4625772152356
 31
0.0
  0
LINE
  5
2CE
330
17
100
AcDbEntity
  8
0
100
AcDbLine
 10
1221.197054151542
 20
1148.4625772152356
 30
0.0
 11
1222.7059734234826
 21
1146.9208435532112
 31
0.0
  0
LINE
  5
2CF
330
17
100
AcDbEntity
  8
0
100
AcDbLine
 10
1222.7059734234826
 20
1146.9208435532112
 30
0.0
 11
1224.2427993179788
 21
1145.4069260442766
 31
0.0
  0
LINE
  5
2D0
330
17
100
AcDbEntity
  8
0
100
AcDbLine
 10
1224.2427993179788
 20
1145.4069260442766
 30
0.0
 11
1225.807019144321
 21
1143.9213297368183
 31
0.0
  0
LINE
  5
2D1
330
17
100
AcDbEntity
  8
0
100
AcDbLine
 10
465.7626808162426
 20
744.0081404517374
 30
0.0
 11
467.2651267061316
 21
742.6337538211271
 31
0.0
  0
LINE
  5
2D2
330
17
100
AcDbEntity
  8
0
100
AcDbLine
 10
467.2651267061316
 20
742.6337538211271
 30
0.0
 11
468.79362315257856
 21
741.2883985239491
 31
0.0
  0
LINE
  5
2D3
330
17
100
AcDbEntity
  8
0
100
AcDbLine
 10
468.79362315257856
 20
741.2883985239491
 30
0.0
 11
470.3476092843029
 21
739.9725682290973
 31
0.0
  0
LINE
  5
2D4
330
17
100
AcDbEntity
  8
0
100
AcDbLine
 10
470.3476092843029
 20
739.9725682290973
 30
0.0
 11
471.92651487675977
 21
738.6867457714643
 31
0.0
  0
LINE
  5
2D5
330
17
100
AcDbEntity
  8
0
100
AcDbLine
 10
471.92651487675977
 20
738.6867457714643
 30
0.0
 11
473.52976056137874
 21
737.4314029747762
 31
0.0
  0
LINE
  5
2D6
330
17
100
AcDbEntity
  8
0
100
AcDbLine
 10
473.52976056137874
 20
737.4314029747762
 30
0.0
 11
475.15675803816043
 21
736.2070004784591
 31
0.0
  0
LINE
  5
2D7
330
17
100
AcDbEntity
  8
0
100
AcDbLine
 10
475.15675803816043
 20
736.2070004784591
 30
0.0
 11
476.8069102915472
 21
735.0139875686009
 31
0.0
  0
LINE
  5
2D8
330
17
100
AcDbEntity
  8
0
100
AcDbLine
 10
476.8069102915472
 20
735.0139875686009
 30
0.0
 11
478.4796118094958
 21
733.8528020131035
 31
0.0
  0
LINE
  5
2D9
330
17
100
AcDbEntity
  8
0
100
AcDbLine
 10
478.4796118094958
 20
733.8528020131035
 30
0.0
 11
480.1742488056651
 21
732.7238699010354
 31
0.0
  0
LINE
  5
2DA
330
17
100
AcDbEntity
  8
0
100
AcDbLine
 10
480.1742488056651
 20
732.7238699010354
 30
0.0
 11
481.89019944464053
 21
731.6276054862867
 31
0.0
  0
LINE
  5
2DB
330
17
100
AcDbEntity
  8
0
100
AcDbLine
 10
481.89019944464053
 20
731.6276054862867
 30
0.0
 11
483.6268340701126
 21
730.5644110355604
 31
0.0
  0
LINE
  5
2DC
330
17
100
AcDbEntity
  8
0
100
AcDbLine
 10
483.6268340701126
 20
730.5644110355604
 30
0.0
 11
485.3835154359252
 21
729.5346766807629
 31
0.0
  0
LINE
  5
2DD
330
17
100
AcDbEntity
  8
0
100
AcDbLine
 10
485.3835154359252
 20
729.5346766807629
 30
0.0
 11
487.1595989399082
 21
728.5387802758479
 31
0.0
  0
LINE
  5
2DE
330
17
100
AcDbEntity
  8
0
100
AcDbLine
 10
487.1595989399082
 20
728.5387802758479
 30
0.0
 11
488.95443286041035
 21
727.577087258164
 31
0.0
  0
LINE
  5
2DF
330
17
100
AcDbEntity
  8
0
100
AcDbLine
 10
488.95443286041035
 20
727.577087258164
 30
0.0
 11
490.767358595443
 21
726.6499505143668
 31
0.0
  0
LINE
  5
2E0
330
17
100
AcDbEntity
  8
0
100
AcDbLine
 10
490.767358595443
 20
726.6499505143668
 30
0.0
 11
492.59771090435135
 21
725.7577102509188
 31
0.0
  0
LINE
  5
2E1
330
17
100
AcDbEntity
  8
0
100
AcDbLine
 10
492.59771090435135
 20
725.7577102509188
 30
0.0
 11
494.4448181519183
 21
724.900693869261
 31
0.0
  0
LINE
  5
2E2
330
17
100
AcDbEntity
  8
0
100
AcDbLine
 10
494.4448181519183
 20
724.900693869261
 30
0.0
 11
496.30800255481716
 21
724.0792158456718
 31
0.0
  0
LINE
  5
2E3
330
17
100
AcDbEntity
  8
0
100
AcDbLine
 10
496.30800255481716
 20
724.0792158456718
 30
0.0
 11
498.1865804303193
 21
723.2935776158752
 31
0.0
  0
LINE
  5
2E4
330
17
100
AcDbEntity
  8
0
100
AcDbLine
 10
498.1865804303193
 20
723.2935776158752
 30
0.0
 11
500.0798624471669
 21
722.5440674644265
 31
0.0
  0
LINE
  5
2E5
330
17
100
AcDbEntity
  8
0
100
AcDbLine
 10
500.0798624471669
 20
722.5440674644265
 30
0.0
 11
501.9871538785191
 21
721.830960418931
 31
0.0
  0
LINE
  5
2E6
330
17
100
AcDbEntity
  8
0
100
AcDbLine
 10
501.9871538785191
 20
721.830960418931
 30
0.0
 11
503.9077548568756
 21
721.1545181491257
 31
0.0
  0
LINE
  5
2E7
330
17
100
AcDbEntity
  8
0
100
AcDbLine
 10
503.9077548568756
 20
721.1545181491257
 30
0.0
 11
505.84096063089004
 21
720.5149888708584
 31
0.0
  0
LINE
  5
2E8
330
17
100
AcDbEntity
  8
0
100
AcDbLine
 10
505.84096063089004
 20
720.5149888708584
 30
0.0
 11
507.7860618239717
 21
719.9126072550068
 31
0.0
  0
LINE
  5
2E9
330
17
100
AcDbEntity
  8
0
100
AcDbLine
 10
507.7860618239717
 20
719.9126072550068
 30
0.0
 11
509.74234469458895
 21
719.347594341371
 31
0.0
  0
LINE
  5
2EA
330
17
100
AcDbEntity
  8
0
100
AcDbLine
 10
509.74234469458895
 20
719.347594341371
 30
0.0
 11
511.7090913981691
 21
718.8201574575637
 31
0.0
  0
LINE
  5
2EB
330
17
100
AcDbEntity
  8
0
100
AcDbLine
 10
511.7090913981691
 20
718.8201574575637
 30
0.0
 11
513.685580250508
 21
718.3304901429258
 31
0.0
  0
LINE
  5
2EC
330
17
100
AcDbEntity
  8
0
100
AcDbLine
 10
513.685580250508
 20
718.3304901429258
 30
0.0
 11
515.6710859925876
 21
717.8787720775218
 31
0.0
  0
LINE
  5
2ED
330
17
100
AcDbEntity
  8
0
100
AcDbLine
 10
515.6710859925876
 20
717.8787720775218
 30
0.0
 11
517.6648800567029
 21
717.4651690161913
 31
0.0
  0
LINE
  5
2EE
330
17
100
AcDbEntity
  8
0
100
AcDbLine
 10
517.6648800567029
 20
717.4651690161913
 30
0.0
 11
519.6662308338074
 21
717.0898327277412
 31
0.0
  0
LINE
  5
2EF
330
17
100
AcDbEntity
  8
0
100
AcDbLine
 10
519.6662308338074
 20
717.0898327277412
 30
0.0
 11
521.6744039419696
 21
716.7529009392451
 31
0.0
  0
LINE
  5
2F0
330
17
100
AcDbEntity
  8
0
100
AcDbLine
 10
521.6744039419696
 20
716.7529009392451
 30
0.0
 11
523.6886624958505
 21
716.4544972855118
 31
0.0
  0
LINE
  5
2F1
330
17
100
AcDbEntity
  8
0
100
AcDbLine
 10
523.6886624958505
 20
716.4544972855118
 30
0.0
 11
525.708267377099
 21
716.1947312637128
 31
0.0
  0
LINE
  5
2F2
330
17
100
AcDbEntity
  8
0
100
AcDbLine
 10
525.708267377099
 20
716.1947312637128
 30
0.0
 11
527.7324775055657
 21
715.9736981932057
 31
0.0
  0
LINE
  5
2F3
330
17
100
AcDbEntity
  8
0
100
AcDbLine
 10
527.7324775055657
 20
715.9736981932057
 30
0.0
 11
529.7605501112372
 21
715.7914791805616
 31
0.0
  0
LINE
  5
2F4
330
17
100
AcDbEntity
  8
0
100
AcDbLine
 10
529.7605501112372
 20
715.7914791805616
 30
0.0
 11
531.7917410067906
 21
715.6481410897946
 31
0.0
  0
LINE
  5
2F5
330
17
100
AcDbEntity
  8
0
100
AcDbLine
 10
531.7917410067906
 20
715.6481410897946
 30
0.0
 11
533.8253048606682
 21
715.5437365178344
 31
0.0
  0
LINE
  5
2F6
330
17
100
AcDbEntity
  8
0
100
AcDbLine
 10
533.8253048606682
 20
715.5437365178344
 30
0.0
 11
535.8604954705714
 21
715.4783037752193
 31
0.0
  0
LINE
  5
2F7
330
17
100
AcDbEntity
  8
0
100
AcDbLine
 10
535.8604954705714
 20
715.4783037752193
 30
0.0
 11
537.8965660372749
 21
715.4518668720488
 31
0.0
  0
LINE
  5
2F8
330
17
100
AcDbEntity
  8
0
100
AcDbLine
 10
537.8965660372749
 20
715.4518668720488
 30
0.0
 11
539.9327694386579
 21
715.4644355091616
 31
0.0
  0
LINE
  5
2F9
330
17
100
AcDbEntity
  8
0
100
AcDbLine
 10
539.9327694386579
 20
715.4644355091616
 30
0.0
 11
541.9683585038592
 21
715.5160050745808
 31
0.0
  0
LINE
  5
2FA
330
17
100
AcDbEntity
  8
0
100
AcDbLine
 10
541.9683585038591
 20
715.5160050745819
 30
0.0
 11
540.595811879178
 21
715.4480758972719
 31
0.0
  0
LINE
  5
2FB
330
17
100
AcDbEntity
  8
0
100
AcDbLine
 10
540.595811879178
 20
715.4480758972719
 30
0.0
 11
539.2258216112502
 21
715.3402553248523
 31
0.0
  0
LINE
  5
2FC
330
17
100
AcDbEntity
  8
0
100
AcDbLine
 10
539.2258216112502
 20
715.3402553248523
 30
0.0
 11
537.8595468486161
 21
715.1926345842949
 31
0.0
  0
LINE
  5
2FD
330
17
100
AcDbEntity
  8
0
100
AcDbLine
 10
537.8595468486161
 20
715.1926345842949
 30
0.0
 11
536.4981435961275
 21
715.0053385774822
 31
0.0
  0
LINE
  5
2FE
330
17
100
AcDbEntity
  8
0
100
AcDbLine
 10
536.4981435961275
 20
715.0053385774822
 30
0.0
 11
535.1427637368532
 21
714.7785257755345
 31
0.0
  0
LINE
  5
2FF
330
17
100
AcDbEntity
  8
0
100
AcDbLine
 10
535.1427637368532
 20
714.7785257755345
 30
0.0
 11
533.7945540574689
 21
714.5123880847276
 31
0.0
  0
LINE
  5
300
330
17
100
AcDbEntity
  8
0
100
AcDbLine
 10
533.7945540574689
 20
714.5123880847276
 30
0.0
 11
532.4546552779627
 21
714.2071506841162
 31
0.0
  0
LINE
  5
301
330
17
100
AcDbEntity
  8
0
100
AcDbLine
 10
532.4546552779627
 20
714.2071506841162
 30
0.0
 11
531.1242010864717
 21
713.8630718350167
 31
0.0
  0
LINE
  5
302
330
17
100
AcDbEntity
  8
0
100
AcDbLine
 10
531.1242010864717
 20
713.8630718350167
 30
0.0
 11
529.8043171800683
 21
713.4804426624862
 31
0.0
  0
LINE
  5
303
330
17
100
AcDbEntity
  8
0
100
AcDbLine
 10
529.8043171800683
 20
713.4804426624862
 30
0.0
 11
528.4961203123092
 21
713.0595869090043
 31
0.0
  0
LINE
  5
304
330
17
100
AcDbEntity
  8
0
100
AcDbLine
 10
528.4961203123092
 20
713.0595869090043
 30
0.0
 11
527.2007173483491
 21
712.6008606605549
 31
0.0
  0
LINE
  5
305
330
17
100
AcDbEntity
  8
0
100
AcDbLine
 10
527.2007173483491
 20
712.6008606605549
 30
0.0
 11
525.9192043284224
 21
712.1046520453413
 31
0.0
  0
LINE
  5
306
330
17
100
AcDbEntity
  8
0
100
AcDbLine
 10
525.9192043284224
 20
712.1046520453413
 30
0.0
 11
524.6526655404849
 21
711.5713809053904
 31
0.0
  0
LINE
  5
307
330
17
100
AcDbEntity
  8
0
100
AcDbLine
 10
524.6526655404849
 20
711.5713809053904
 30
0.0
 11
523.4021726027968
 21
711.0014984413276
 31
0.0
  0
LINE
  5
308
330
17
100
AcDbEntity
  8
0
100
AcDbLine
 10
523.4021726027968
 20
711.0014984413276
 30
0.0
 11
522.168783557227
 21
710.3954868306116
 31
0.0
  0
LINE
  5
309
330
17
100
AcDbEntity
  8
0
100
AcDbLine
 10
522.168783557227
 20
710.3954868306116
 30
0.0
 11
520.9535419740445
 21
709.7538588195664
 31
0.0
  0
LINE
  5
30A
330
17
100
AcDbEntity
  8
0
100
AcDbLine
 10
520.9535419740445
 20
709.7538588195664
 30
0.0
 11
519.7574760689525
 21
709.0771572895469
 31
0.0
  0
LINE
  5
30B
330
17
100
AcDbEntity
  8
0
100
AcDbLine
 10
519.7574760689525
 20
709.0771572895469
 30
0.0
 11
518.5815978331173
 21
708.3659547976072
 31
0.0
  0
LINE
  5
30C
330
17
100
AcDbEntity
  8
0
100
AcDbLine
 10
518.5815978331173
 20
708.3659547976072
 30
0.0
 11
517.4269021769204
 21
707.6208530920553
 31
0.0
  0
LINE
  5
30D
330
17
100
AcDbEntity
  8
0
100
AcDbLine
 10
517.4269021769204
 20
707.6208530920553
 30
0.0
 11
516.2943660881667
 21
706.8424826033277
 31
0.0
  0
LINE
  5
30E
330
17
100
AcDbEntity
  8
0
100
AcDbLine
 10
516.2943660881667
 20
706.8424826033277
 30
0.0
 11
515.1849478054553
 21
706.0315019105603
 31
0.0
  0
LINE
  5
30F
330
17
100
AcDbEntity
  8
0
100
AcDbLine
 10
515.1849478054553
 20
706.0315019105603
 30
0.0
 11
514.0995860074121
 21
705.1885971843889
 31
0.0
  0
LINE
  5
310
330
17
100
AcDbEntity
  8
0
100
AcDbLine
 10
514.0995860074121
 20
705.1885971843889
 30
0.0
 11
513.0391990184766
 21
704.3144816063622
 31
0.0
  0
LINE
  5
311
330
17
100
AcDbEntity
  8
0
100
AcDbLine
 10
513.0391990184766
 20
704.3144816063622
 30
0.0
 11
512.0046840319053
 21
703.4098947655264
 31
0.0
  0
LINE
  5
312
330
17
100
AcDbEntity
  8
0
100
AcDbLine
 10
512.0046840319053
 20
703.4098947655264
 30
0.0
 11
510.99691635065835
 21
702.4756020326583
 31
0.0
  0
LINE
  5
313
330
17
100
AcDbEntity
  8
0
100
AcDbLine
 10
510.99691635065835
 20
702.4756020326583
 30
0.0
 11
510.01674864680524
 21
701.5123939126888
 31
0.0
  0
LINE
  5
314
330
17
100
AcDbEntity
  8
0
100
AcDbLine
 10
510.01674864680524
 20
701.5123939126888
 30
0.0
 11
509.06501024007946
 21
700.5210853758465
 31
0.0
  0
ENDSEC
  0
SECTION
  2
OBJECTS
  0
DICTIONARY
  5
A
330
0
100
AcDbDictionary
281
1
  3
ACAD_COLOR
350
B
  3
ACAD_GROUP
350
C
  3
ACAD_LAYOUT
350
D
  3
ACAD_MATERIAL
350
E
  3
ACAD_MLEADERSTYLE
350
F
  3
ACAD_MLINESTYLE
350
10
  3
ACAD_PLOTSETTINGS
350
11
  3
ACAD_PLOTSTYLENAME
350
12
  3
ACAD_SCALELIST
350
14
  3
ACAD_TABLESTYLE
350
15
  3
ACAD_VISUALSTYLE
350
16
  3
EZDXF_META
350
2D
  0
DICTIONARY
  5
B
330
A
100
AcDbDictionary
281
1
  0
DICTIONARY
  5
C
330
A
100
AcDbDictionary
281
1
  0
DICTIONARY
  5
D
330
A
100
AcDbDictionary
281
1
  3
Model
350
1A
  3
Layout1
350
1E
  0
DICTIONARY
  5
E
330
A
100
AcDbDictionary
281
1
  3
ByBlock
350
1F
  3
ByLayer
350
20
  3
Global
350
21
  0
DICTIONARY
  5
F
330
A
100
AcDbDictionary
281
1
  3
Standard
350
2C
  0
DICTIONARY
  5
10
330
A
100
AcDbDictionary
281
1
  3
Standard
350
22
  0
DICTIONARY
  5
11
330
A
100
AcDbDictionary
281
1
  0
ACDBDICTIONARYWDFLT
  5
12
330
A
100
AcDbDictionary
281
1
  3
Normal
350
13
100
AcDbDictionaryWithDefault
340
13
  0
ACDBPLACEHOLDER
  5
13
330
12
  0
DICTIONARY
  5
14
330
A
100
AcDbDictionary
281
1
  0
DICTIONARY
  5
15
330
A
100
AcDbDictionary
281
1
  0
DICTIONARY
  5
16
330
A
100
AcDbDictionary
281
1
  0
LAYOUT
  5
1A
330
D
100
AcDbPlotSettings
  1

  4
A3
  6

 40
7.5
 41
20.0
 42
7.5
 43
20.0
 44
420.0
 45
297.0
 46
0.0
 47
0.0
 48
0.0
 49
0.0
140
0.0
141
0.0
142
1.0
143
1.0
 70
1024
 72
1
 73
0
 74
5
  7

 75
16
 76
0
 77
2
 78
300
147
1.0
148
0.0
149
0.0
100
AcDbLayout
  1
Model
 70
1
 71
0
 10
0.0
 20
0.0
 11
420.0
 21
297.0
 12
0.0
 22
0.0
 32
0.0
 14
1e+20
 24
1e+20
 34
1e+20
 15
-1e+20
 25
-1e+20
 35
-1e+20
146
0.0
 13
0.0
 23
0.0
 33
0.0
 16
1.0
 26
0.0
 36
0.0
 17
0.0
 27
1.0
 37
0.0
 76
1
330
17
  0
LAYOUT
  5
1E
330
D
100
AcDbPlotSettings
  1

  4
A3
  6

 40
7.5
 41
20.0
 42
7.5
 43
20.0
 44
420.0
 45
297.0
 46
0.0
 47
0.0
 48
0.0
 49
0.0
140
0.0
141
0.0
142
1.0
143
1.0
 70
0
 72
1
 73
0
 74
5
  7

 75
16
 76
0
 77
2
 78
300
147
1.0
148
0.0
149
0.0
100
AcDbLayout
  1
Layout1
 70
1
 71
1
 10
0.0
 20
0.0
 11
420.0
 21
297.0
 12
0.0
 22
0.0
 32
0.0
 14
1e+20
 24
1e+20
 34
1e+20
 15
-1e+20
 25
-1e+20
 35
-1e+20
146
0.0
 13
0.0
 23
0.0
 33
0.0
 16
1.0
 26
0.0
 36
0.0
 17
0.0
 27
1.0
 37
0.0
 76
1
330
1B
  0
MATERIAL
  5
1F
102
{ACAD_REACTORS
330
E
102
}
330
E
100
AcDbMaterial
  1
ByBlock
  2

 70
0
 40
1.0
 71
1
 41
1.0
 91
-1023410177
 42
1.0
 72
1
  3

 73
1
 74
1
 75
1
 44
0.5
 73
0
 45
1.0
 46
1.0
 77
1
  4

 78
1
 79
1
170
1
 48
1.0
171
1
  6

172
1
173
1
174
1
140
1.0
141
1.0
175
1
  7

176
1
177
1
178
1
143
1.0
179
1
  8

270
1
271
1
272
1
145
1.0
146
1.0
273
1
  9

274
1
275
1
276
1
 42
1.0
 72
1
  3

 73
1
 74
1
 75
1
 94
63
  0
MATERIAL
  5
20
102
{ACAD_REACTORS
330
E
102
}
330
E
100
AcDbMaterial
  1
ByLayer
  2

 70
0
 40
1.0
 71
1
 41
1.0
 91
-1023410177
 42
1.0
 72
1
  3

 73
1
 74
1
 75
1
 44
0.5
 73
0
 45
1.0
 46
1.0
 77
1
  4

 78
1
 79
1
170
1
 48
1.0
171
1
  6

172
1
173
1
174
1
140
1.0
141
1.0
175
1
  7

176
1
177
1
178
1
143
1.0
179
1
  8

270
1
271
1
272
1
145
1.0
146
1.0
273
1
  9

274
1
275
1
276
1
 42
1.0
 72
1
  3

 73
1
 74
1
 75
1
 94
63
  0
MATERIAL
  5
21
102
{ACAD_REACTORS
330
E
102
}
330
E
100
AcDbMaterial
  1
Global
  2

 70
0
 40
1.0
 71
1
 41
1.0
 91
-1023410177
 42
1.0
 72
1
  3

 73
1
 74
1
 75
1
 44
0.5
 73
0
 45
1.0
 46
1.0
 77
1
  4

 78
1
 79
1
170
1
 48
1.0
171
1
  6

172
1
173
1
174
1
140
1.0
141
1.0
175
1
  7

176
1
177
1
178
1
143
1.0
179
1
  8

270
1
271
1
272
1
145
1.0
146
1.0
273
1
  9

274
1
275
1
276
1
 42
1.0
 72
1
  3

 73
1
 74
1
 75
1
 94
63
  0
MLINESTYLE
  5
22
102
{ACAD_REACTORS
330
10
102
}
330
10
100
AcDbMlineStyle
  2
Standard
 70
0
  3

 62
256
 51
90.0
 52
90.0
 71
2
 49
0.5
 62
256
  6
BYLAYER
 49
-0.5
 62
256
  6
BYLAYER
  0
MLEADERSTYLE
  5
2C
102
{ACAD_REACTORS
330
F
102
}
330
F
100
AcDbMLeaderStyle
179
2
170
2
171
1
172
0
 90
2
 40
0.0
 41
0.0
173
1
 91
-1056964608
 92
-2
290
1
 42
2.0
291
1
 43
8.0
  3
Standard
 44
4.0
300

342
29
174
1
175
1
176
0
178
1
 93
-1056964608
 45
4.0
292
0
297
0
 46
4.0
 94
-1056964608
 47
1.0
 49
1.0
140
1.0
294
1
141
0.0
177
0
142
1.0
295
0
296
0
143
3.75
271
0
272
9
273
9
  0
DICTIONARY
  5
2D
330
A
100
AcDbDictionary
280
1
281
1
  3
CREATED_BY_EZDXF
350
2E
  3
WRITTEN_BY_EZDXF
350
317
  0
DICTIONARYVAR
  5
2E
330
2D
100
DictionaryVariables
280
0
  1
1.4.3 @ 2026-04-16T08:37:55.524759+00:00
  0
DICTIONARYVAR
  5
317
330
2D
100
DictionaryVariables
280
0
  1
1.4.3 @ 2026-04-16T08:37:55.554495+00:00
  0
ENDSEC
  0
EOF
