  0
SECTION
  2
HEADER
  9
$ACADVER
  1
AC1024
  9
$ACADMAINTVER
 70
6
  9
$DWGCODEPAGE
  3
ANSI_1252
  9
$LASTSAVEDBY
  1
ezdxf
  9
$INSBASE
 10
0.0
 20
0.0
 30
0.0
  9
$EXTMIN
 10
1e+20
 20
1e+20
 30
1e+20
  9
$EXTMAX
 10
-1e+20
 20
-1e+20
 30
-1e+20
  9
$LIMMIN
 10
0.0
 20
0.0
  9
$LIMMAX
 10
420.0
 20
297.0
  9
$ORTHOMODE
 70
0
  9
$REGENMODE
 70
1
  9
$FILLMODE
 70
1
  9
$QTEXTMODE
 70
0
  9
$MIRRTEXT
 70
1
  9
$LTSCALE
 40
1.0
  9
$ATTMODE
 70
1
  9
$TEXTSIZE
 40
2.5
  9
$TRACEWID
 40
1.0
  9
$TEXTSTYLE
  7
Standard
  9
$CLAYER
  8
0
  9
$CELTYPE
  6
ByLayer
  9
$CECOLOR
 62
256
  9
$CELTSCALE
 40
1.0
  9
$DISPSILH
 70
0
  9
$DIMSCALE
 40
1.0
  9
$DIMASZ
 40
2.5
  9
$DIMEXO
 40
0.625
  9
$DIMDLI
 40
3.75
  9
$DIMRND
 40
0.0
  9
$DIMDLE
 40
0.0
  9
$DIMEXE
 40
1.25
  9
$DIMTP
 40
0.0
  9
$DIMTM
 40
0.0
  9
$DIMTXT
 40
2.5
  9
$DIMCEN
 40
2.5
  9
$DIMTSZ
 40
0.0
  9
$DIMTOL
 70
0
  9
$DIMLIM
 70
0
  9
$DIMTIH
 70
0
  9
$DIMTOH
 70
0
  9
$DIMSE1
 70
0
  9
$DIMSE2
 70
0
  9
$DIMTAD
 70
1
  9
$DIMZIN
 70
8
  9
$DIMBLK
  1

  9
$DIMASO
 70
1
  9
$DIMSHO
 70
1
  9
$DIMPOST
  1

  9
$DIMAPOST
  1

  9
$DIMALT
 70
0
  9
$DIMALTD
 70
3
  9
$DIMALTF
 40
0.03937007874
  9
$DIMLFAC
 40
1.0
  9
$DIMTOFL
 70
1
  9
$DIMTVP
 40
0.0
  9
$DIMTIX
 70
0
  9
$DIMSOXD
 70
0
  9
$DIMSAH
 70
0
  9
$DIMBLK1
  1

  9
$DIMBLK2
  1

  9
$DIMSTYLE
  2
ISO-25
  9
$DIMCLRD
 70
0
  9
$DIMCLRE
 70
0
  9
$DIMCLRT
 70
0
  9
$DIMTFAC
 40
1.0
  9
$DIMGAP
 40
0.625
  9
$DIMJUST
 70
0
  9
$DIMSD1
 70
0
  9
$DIMSD2
 70
0
  9
$DIMTOLJ
 70
0
  9
$DIMTZIN
 70
8
  9
$DIMALTZ
 70
0
  9
$DIMALTTZ
 70
0
  9
$DIMUPT
 70
0
  9
$DIMDEC
 70
2
  9
$DIMTDEC
 70
2
  9
$DIMALTU
 70
2
  9
$DIMALTTD
 70
3
  9
$DIMTXSTY
  7
Standard
  9
$DIMAUNIT
 70
0
  9
$DIMADEC
 70
0
  9
$DIMALTRND
 40
0.0
  9
$DIMAZIN
 70
0
  9
$DIMDSEP
 70
44
  9
$DIMATFIT
 70
3
  9
$DIMFRAC
 70
0
  9
$DIMLDRBLK
  1

  9
$DIMLUNIT
 70
2
  9
$DIMLWD
 70
-2
  9
$DIMLWE
 70
-2
  9
$DIMTMOVE
 70
0
  9
$DIMFXL
 40
1.0
  9
$DIMFXLON
 70
0
  9
$DIMJOGANG
 40
0.785398163397
  9
$DIMTFILL
 70
0
  9
$DIMTFILLCLR
 70
0
  9
$DIMARCSYM
 70
0
  9
$DIMLTYPE
  6

  9
$DIMLTEX1
  6

  9
$DIMLTEX2
  6

  9
$DIMTXTDIRECTION
 70
0
  9
$LUNITS
 70
2
  9
$LUPREC
 70
4
  9
$SKETCHINC
 40
1.0
  9
$FILLETRAD
 40
10.0
  9
$AUNITS
 70
0
  9
$AUPREC
 70
2
  9
$MENU
  1
.
  9
$ELEVATION
 40
0.0
  9
$PELEVATION
 40
0.0
  9
$THICKNESS
 40
0.0
  9
$LIMCHECK
 70
0
  9
$CHAMFERA
 40
0.0
  9
$CHAMFERB
 40
0.0
  9
$CHAMFERC
 40
0.0
  9
$CHAMFERD
 40
0.0
  9
$SKPOLY
 70
0
  9
$TDCREATE
 40
2461147.484375
  9
$TDUCREATE
 40
2458532.153996898
  9
$TDUPDATE
 40
2461147.484375
  9
$TDUUPDATE
 40
2458532.1544311
  9
$TDINDWG
 40
0.0
  9
$TDUSRTIMER
 40
0.0
  9
$USRTIMER
 70
1
  9
$ANGBASE
 50
0.0
  9
$ANGDIR
 70
0
  9
$PDMODE
 70
0
  9
$PDSIZE
 40
0.0
  9
$PLINEWID
 40
0.0
  9
$SPLFRAME
 70
0
  9
$SPLINETYPE
 70
6
  9
$SPLINESEGS
 70
8
  9
$HANDSEED
  5
1F2
  9
$SURFTAB1
 70
6
  9
$SURFTAB2
 70
6
  9
$SURFTYPE
 70
6
  9
$SURFU
 70
6
  9
$SURFV
 70
6
  9
$UCSBASE
  2

  9
$UCSNAME
  2

  9
$UCSORG
 10
0.0
 20
0.0
 30
0.0
  9
$UCSXDIR
 10
1.0
 20
0.0
 30
0.0
  9
$UCSYDIR
 10
0.0
 20
1.0
 30
0.0
  9
$UCSORTHOREF
  2

  9
$UCSORTHOVIEW
 70
0
  9
$UCSORGTOP
 10
0.0
 20
0.0
 30
0.0
  9
$UCSORGBOTTOM
 10
0.0
 20
0.0
 30
0.0
  9
$UCSORGLEFT
 10
0.0
 20
0.0
 30
0.0
  9
$UCSORGRIGHT
 10
0.0
 20
0.0
 30
0.0
  9
$UCSORGFRONT
 10
0.0
 20
0.0
 30
0.0
  9
$UCSORGBACK
 10
0.0
 20
0.0
 30
0.0
  9
$PUCSBASE
  2

  9
$PUCSNAME
  2

  9
$PUCSORG
 10
0.0
 20
0.0
 30
0.0
  9
$PUCSXDIR
 10
1.0
 20
0.0
 30
0.0
  9
$PUCSYDIR
 10
0.0
 20
1.0
 30
0.0
  9
$PUCSORTHOREF
  2

  9
$PUCSORTHOVIEW
 70
0
  9
$PUCSORGTOP
 10
0.0
 20
0.0
 30
0.0
  9
$PUCSORGBOTTOM
 10
0.0
 20
0.0
 30
0.0
  9
$PUCSORGLEFT
 10
0.0
 20
0.0
 30
0.0
  9
$PUCSORGRIGHT
 10
0.0
 20
0.0
 30
0.0
  9
$PUCSORGFRONT
 10
0.0
 20
0.0
 30
0.0
  9
$PUCSORGBACK
 10
0.0
 20
0.0
 30
0.0
  9
$USERI1
 70
0
  9
$USERI2
 70
0
  9
$USERI3
 70
0
  9
$USERI4
 70
0
  9
$USERI5
 70
0
  9
$USERR1
 40
0.0
  9
$USERR2
 40
0.0
  9
$USERR3
 40
0.0
  9
$USERR4
 40
0.0
  9
$USERR5
 40
0.0
  9
$WORLDVIEW
 70
1
  9
$SHADEDGE
 70
3
  9
$SHADEDIF
 70
70
  9
$TILEMODE
 70
1
  9
$MAXACTVP
 70
64
  9
$PINSBASE
 10
0.0
 20
0.0
 30
0.0
  9
$PLIMCHECK
 70
0
  9
$PEXTMIN
 10
1e+20
 20
1e+20
 30
1e+20
  9
$PEXTMAX
 10
-1e+20
 20
-1e+20
 30
-1e+20
  9
$PLIMMIN
 10
0.0
 20
0.0
  9
$PLIMMAX
 10
420.0
 20
297.0
  9
$UNITMODE
 70
0
  9
$VISRETAIN
 70
1
  9
$PLINEGEN
 70
0
  9
$PSLTSCALE
 70
1
  9
$TREEDEPTH
 70
3020
  9
$CMLSTYLE
  2
Standard
  9
$CMLJUST
 70
0
  9
$CMLSCALE
 40
20.0
  9
$PROXYGRAPHICS
 70
1
  9
$MEASUREMENT
 70
1
  9
$CELWEIGHT
370
-1
  9
$ENDCAPS
280
0
  9
$JOINSTYLE
280
0
  9
$LWDISPLAY
290
0
  9
$INSUNITS
 70
0
  9
$HYPERLINKBASE
  1

  9
$STYLESHEET
  1

  9
$XEDIT
290
1
  9
$CEPSNTYPE
380
0
  9
$PSTYLEMODE
290
1
  9
$FINGERPRINTGUID
  2
{253E101F-F63F-4343-97B0-F0B55B593833}
  9
$VERSIONGUID
  2
{699532B6-0FE9-4BDA-8E3A-23E3ECEB6978}
  9
$EXTNAMES
290
1
  9
$PSVPSCALE
 40
0.0
  9
$OLESTARTUP
290
0
  9
$SORTENTS
280
127
  9
$INDEXCTL
280
0
  9
$HIDETEXT
280
1
  9
$XCLIPFRAME
280
1
  9
$HALOGAP
280
0
  9
$OBSCOLOR
 70
257
  9
$OBSLTYPE
280
0
  9
$INTERSECTIONDISPLAY
280
0
  9
$INTERSECTIONCOLOR
 70
257
  9
$DIMASSOC
280
2
  9
$PROJECTNAME
  1

  9
$CAMERADISPLAY
290
0
  9
$LENSLENGTH
 40
50.0
  9
$CAMERAHEIGHT
 40
0.0
  9
$STEPSPERSEC
 40
24.0
  9
$STEPSIZE
 40
100.0
  9
$3DDWFPREC
 40
2.0
  9
$PSOLWIDTH
 40
0.005
  9
$PSOLHEIGHT
 40
0.08
  9
$LOFTANG1
 40
1.570796326795
  9
$LOFTANG2
 40
1.570796326795
  9
$LOFTMAG1
 40
0.0
  9
$LOFTMAG2
 40
0.0
  9
$LOFTPARAM
 70
7
  9
$LOFTNORMALS
280
1
  9
$LATITUDE
 40
37.795
  9
$LONGITUDE
 40
-122.394
  9
$NORTHDIRECTION
 40
0.0
  9
$TIMEZONE
 70
-8000
  9
$LIGHTGLYPHDISPLAY
280
1
  9
$TILEMODELIGHTSYNCH
280
1
  9
$CMATERIAL
347
20
  9
$SOLIDHIST
280
0
  9
$SHOWHIST
280
1
  9
$DWFFRAME
280
2
  9
$DGNFRAME
280
2
  9
$REALWORLDSCALE
290
1
  9
$INTERFERECOLOR
 62
256
  9
$CSHADOW
280
0
  9
$SHADOWPLANELOCATION
 40
0.0
  0
ENDSEC
  0
SECTION
  2
CLASSES
  0
CLASS
  1
ACDBDICTIONARYWDFLT
  2
AcDbDictionaryWithDefault
  3
ObjectDBX Classes
 90
0
 91
0
280
0
281
0
  0
CLASS
  1
SUN
  2
AcDbSun
  3
SCENEOE
 90
1153
 91
0
280
0
281
0
  0
CLASS
  1
VISUALSTYLE
  2
AcDbVisualStyle
  3
ObjectDBX Classes
 90
4095
 91
0
280
0
281
0
  0
CLASS
  1
MATERIAL
  2
AcDbMaterial
  3
ObjectDBX Classes
 90
1153
 91
0
280
0
281
0
  0
CLASS
  1
SCALE
  2
AcDbScale
  3
ObjectDBX Classes
 90
1153
 91
0
280
0
281
0
  0
CLASS
  1
TABLESTYLE
  2
AcDbTableStyle
  3
ObjectDBX Classes
 90
4095
 91
0
280
0
281
0
  0
CLASS
  1
MLEADERSTYLE
  2
AcDbMLeaderStyle
  3
ACDB_MLEADERSTYLE_CLASS
 90
4095
 91
0
280
0
281
0
  0
CLASS
  1
DICTIONARYVAR
  2
AcDbDictionaryVar
  3
ObjectDBX Classes
 90
0
 91
0
280
0
281
0
  0
CLASS
  1
CELLSTYLEMAP
  2
AcDbCellStyleMap
  3
ObjectDBX Classes
 90
1152
 91
0
280
0
281
0
  0
CLASS
  1
MENTALRAYRENDERSETTINGS
  2
AcDbMentalRayRenderSettings
  3
SCENEOE
 90
1024
 91
0
280
0
281
0
  0
CLASS
  1
ACDBDETAILVIEWSTYLE
  2
AcDbDetailViewStyle
  3
ObjectDBX Classes
 90
1025
 91
0
280
0
281
0
  0
CLASS
  1
ACDBSECTIONVIEWSTYLE
  2
AcDbSectionViewStyle
  3
ObjectDBX Classes
 90
1025
 91
0
280
0
281
0
  0
CLASS
  1
RASTERVARIABLES
  2
AcDbRasterVariables
  3
ISM
 90
0
 91
0
280
0
281
0
  0
CLASS
  1
ACDBPLACEHOLDER
  2
AcDbPlaceHolder
  3
ObjectDBX Classes
 90
0
 91
0
280
0
281
0
  0
CLASS
  1
LAYOUT
  2
AcDbLayout
  3
ObjectDBX Classes
 90
0
 91
0
280
0
281
0
  0
ENDSEC
  0
SECTION
  2
TABLES
  0
TABLE
  2
VPORT
  5
8
330
0
100
AcDbSymbolTable
 70
1
  0
VPORT
  5
23
330
8
100
AcDbSymbolTableRecord
100
AcDbViewportTableRecord
  2
*Active
 70
0
 10
0.0
 20
0.0
 11
1.0
 21
1.0
 12
0.0
 22
0.0
 13
0.0
 23
0.0
 14
0.5
 24
0.5
 15
0.5
 25
0.5
 16
0.0
 26
0.0
 36
1.0
 17
0.0
 27
0.0
 37
0.0
 40
1000.0
 41
1.34
 42
50.0
 43
0.0
 44
0.0
 50
0.0
 51
0.0
 71
0
 72
1000
 73
1
 74
3
 75
0
 76
0
 77
0
 78
0
281
0
 65
0
146
0.0
  0
ENDTAB
  0
TABLE
  2
LTYPE
  5
2
330
0
100
AcDbSymbolTable
 70
3
  0
LTYPE
  5
24
330
2
100
AcDbSymbolTableRecord
100
AcDbLinetypeTableRecord
  2
ByBlock
 70
0
  3

 72
65
 73
0
 40
0.0
  0
LTYPE
  5
25
330
2
100
AcDbSymbolTableRecord
100
AcDbLinetypeTableRecord
  2
ByLayer
 70
0
  3

 72
65
 73
0
 40
0.0
  0
LTYPE
  5
26
330
2
100
AcDbSymbolTableRecord
100
AcDbLinetypeTableRecord
  2
Continuous
 70
0
  3

 72
65
 73
0
 40
0.0
  0
ENDTAB
  0
TABLE
  2
LAYER
  5
1
330
0
100
AcDbSymbolTable
 70
2
  0
LAYER
  5
27
330
1
100
AcDbSymbolTableRecord
100
AcDbLayerTableRecord
  2
0
 70
0
 62
7
  6
Continuous
370
-3
390
13
347
21
  0
LAYER
  5
28
330
1
100
AcDbSymbolTableRecord
100
AcDbLayerTableRecord
  2
Defpoints
 70
0
 62
7
  6
Continuous
290
0
370
-3
390
13
347
21
  0
ENDTAB
  0
TABLE
  2
STYLE
  5
5
330
0
100
AcDbSymbolTable
 70
1
  0
STYLE
  5
29
330
5
100
AcDbSymbolTableRecord
100
AcDbTextStyleTableRecord
  2
Standard
 70
0
 40
0.0
 41
1.0
 50
0.0
 71
0
 42
2.5
  3
txt
  4

  0
ENDTAB
  0
TABLE
  2
VIEW
  5
7
330
0
100
AcDbSymbolTable
 70
0
  0
ENDTAB
  0
TABLE
  2
UCS
  5
6
330
0
100
AcDbSymbolTable
 70
0
  0
ENDTAB
  0
TABLE
  2
APPID
  5
3
330
0
100
AcDbSymbolTable
 70
3
  0
APPID
  5
2A
330
3
100
AcDbSymbolTableRecord
100
AcDbRegAppTableRecord
  2
ACAD
 70
0
  0
APPID
  5
1EF
330
3
100
AcDbSymbolTableRecord
100
AcDbRegAppTableRecord
  2
HATCHBACKGROUNDCOLOR
 70
0
  0
APPID
  5
1F0
330
3
100
AcDbSymbolTableRecord
100
AcDbRegAppTableRecord
  2
EZDXF
 70
0
  0
ENDTAB
  0
TABLE
  2
DIMSTYLE
  5
4
330
0
100
AcDbSymbolTable
 70
1
100
AcDbDimStyleTable
  0
DIMSTYLE
105
2B
330
4
100
AcDbSymbolTableRecord
100
AcDbDimStyleTableRecord
  2
Standard
 70
0
 40
1.0
 41
2.5
 42
0.625
 43
3.75
 44
1.25
 45
0.0
 46
0.0
 47
0.0
 48
0.0
 49
2.5
140
2.5
141
2.5
142
0.0
143
0.03937007874
144
1.0
145
0.0
146
1.0
147
0.625
148
0.0
 69
0
 70
0
 71
0
 72
0
 73
0
 74
0
 75
0
 76
0
 77
1
 78
8
 79
3
170
0
171
3
172
1
173
0
174
0
175
0
176
0
177
0
178
0
179
2
271
2
272
2
273
2
274
3
275
0
276
0
277
2
278
44
279
0
280
0
281
0
282
0
283
0
284
8
285
0
286
0
288
0
289
3
290
0
371
-2
372
-2
  0
ENDTAB
  0
TABLE
  2
BLOCK_RECORD
  5
9
330
0
100
AcDbSymbolTable
 70
2
  0
BLOCK_RECORD
  5
17
330
9
100
AcDbSymbolTableRecord
100
AcDbBlockTableRecord
  2
*Model_Space
340
1A
 70
0
280
1
281
0
  0
BLOCK_RECORD
  5
1B
330
9
100
AcDbSymbolTableRecord
100
AcDbBlockTableRecord
  2
*Paper_Space
340
1E
 70
0
280
1
281
0
  0
ENDTAB
  0
ENDSEC
  0
SECTION
  2
BLOCKS
  0
BLOCK
  5
18
330
17
100
AcDbEntity
  8
0
100
AcDbBlockBegin
  2
*Model_Space
 70
0
 10
0.0
 20
0.0
 30
0.0
  3
*Model_Space
  1

  0
ENDBLK
  5
19
330
17
100
AcDbEntity
  8
0
100
AcDbBlockEnd
  0
BLOCK
  5
1C
330
1B
100
AcDbEntity
  8
0
100
AcDbBlockBegin
  2
*Paper_Space
 70
0
 10
0.0
 20
0.0
 30
0.0
  3
*Paper_Space
  1

  0
ENDBLK
  5
1D
330
1B
100
AcDbEntity
  8
0
100
AcDbBlockEnd
  0
ENDSEC
  0
SECTION
  2
ENTITIES
  0
LINE
  5
2F
330
17
100
AcDbEntity
  8
0
100
AcDbLine
 10
0.0
 20
1880.5580829352234
 30
0.0
 11
879.6535433070871
 21
1880.5580829352234
 31
0.0
  0
LINE
  5
30
330
17
100
AcDbEntity
  8
0
100
AcDbLine
 10
0.0
 20
1230.9517837226251
 30
0.0
 11
879.6535433070871
 21
1230.9517837226251
 31
0.0
  0
LINE
  5
31
330
17
100
AcDbEntity
  8
0
100
AcDbLine
 10
348.15748031496105
 20
1880.5580829352234
 30
0.0
 11
348.15748031496105
 21
0.0
 31
0.0
  0
LINE
  5
32
330
17
100
AcDbEntity
  8
0
100
AcDbLine
 10
879.6535433070871
 20
1891.188004195066
 30
0.0
 11
879.6535433070871
 21
0.0
 31
0.0
  0
LINE
  5
33
330
17
100
AcDbEntity
  8
0
100
AcDbLine
 10
0.0
 20
581.345484510028
 30
0.0
 11
879.6535433070871
 21
581.345484510028
 31
0.0
  0
LINE
  5
34
330
17
100
AcDbEntity
  8
0
100
AcDbLine
 10
879.6535433070871
 20
845.9124136438813
 30
0.0
 11
820.5984251968512
 21
845.9124136438813
 31
0.0
  0
LINE
  5
35
330
17
100
AcDbEntity
  8
0
100
AcDbLine
 10
820.5984251968512
 20
845.9124136438813
 30
0.0
 11
820.5984251968512
 21
881.3454845100277
 31
0.0
  0
LINE
  5
36
330
17
100
AcDbEntity
  8
0
100
AcDbLine
 10
879.6535433070871
 20
910.873043565146
 30
0.0
 11
367.0551181102355
 21
910.873043565146
 31
0.0
  0
LINE
  5
37
330
17
100
AcDbEntity
  8
0
100
AcDbLine
 10
337.5275590551173
 20
910.873043565146
 30
0.0
 11
148.55118110235935
 21
910.873043565146
 31
0.0
  0
LINE
  5
38
330
17
100
AcDbEntity
  8
0
100
AcDbLine
 10
337.5275590551173
 20
893.1565081320739
 30
0.0
 11
0.0
 21
893.1565081320739
 31
0.0
  0
LINE
  5
39
330
17
100
AcDbEntity
  8
0
100
AcDbLine
 10
820.5984251968512
 20
881.3454845100277
 30
0.0
 11
337.5275590551173
 21
881.3454845100277
 31
0.0
  0
LINE
  5
3A
330
17
100
AcDbEntity
  8
0
100
AcDbLine
 10
879.6535433070871
 20
47.48721679349114
 30
0.0
 11
893.8267716535443
 21
47.48721679349114
 31
0.0
  0
LINE
  5
3B
330
17
100
AcDbEntity
  8
0
100
AcDbLine
 10
879.6535433070871
 20
476.22737427380616
 30
0.0
 11
893.8267716535443
 21
476.22737427380616
 31
0.0
  0
LINE
  5
3C
330
17
100
AcDbEntity
  8
0
100
AcDbLine
 10
879.6535433070871
 20
346.30611443128623
 30
0.0
 11
893.8267716535443
 21
346.30611443128623
 31
0.0
  0
LINE
  5
3D
330
17
100
AcDbEntity
  8
0
100
AcDbLine
 10
879.6535433070871
 20
177.40847663600357
 30
0.0
 11
893.8267716535443
 21
177.40847663600357
 31
0.0
  0
LINE
  5
3E
330
17
100
AcDbEntity
  8
0
100
AcDbLine
 10
879.6535433070871
 20
177.40847663600357
 30
0.0
 11
879.6535433070871
 21
346.30611443128623
 31
0.0
  0
LINE
  5
3F
330
17
100
AcDbEntity
  8
0
100
AcDbLine
 10
879.6535433070871
 20
476.22737427380616
 30
0.0
 11
879.6535433070871
 21
685.2824923840396
 31
0.0
  0
LINE
  5
40
330
17
100
AcDbEntity
  8
0
100
AcDbLine
 10
879.6535433070871
 20
0.0
 30
0.0
 11
879.6535433070871
 21
47.48721679349114
 31
0.0
  0
LINE
  5
41
330
17
100
AcDbEntity
  8
0
100
AcDbLine
 10
879.6535433070871
 20
838.8257994706519
 30
0.0
 11
879.6535433070871
 21
1880.5580829352234
 31
0.0
  0
LINE
  5
42
330
17
100
AcDbEntity
  8
0
100
AcDbLine
 10
893.8267716535415
 20
838.8257994706519
 30
0.0
 11
893.8267716535415
 21
1894.7313112816798
 31
0.0
  0
LINE
  5
43
330
17
100
AcDbEntity
  8
0
100
AcDbLine
 10
148.55118110235935
 20
910.873043565146
 30
0.0
 11
148.55118110235935
 21
1135.2824923840446
 31
0.0
  0
LINE
  5
44
330
17
100
AcDbEntity
  8
0
100
AcDbLine
 10
337.5275590551173
 20
1135.2824923840446
 30
0.0
 11
148.55118110235935
 21
1135.2824923840446
 31
0.0
  0
LINE
  5
45
330
17
100
AcDbEntity
  8
0
100
AcDbLine
 10
130.83464566929115
 20
910.873043565146
 30
0.0
 11
130.83464566929115
 21
1135.2824923840446
 31
0.0
  0
LINE
  5
46
330
17
100
AcDbEntity
  8
0
100
AcDbLine
 10
130.83464566929115
 20
910.873043565146
 30
0.0
 11
0.0
 21
910.873043565146
 31
0.0
  0
LINE
  5
47
330
17
100
AcDbEntity
  8
0
100
AcDbLine
 10
337.5275590551173
 20
1152.999027817112
 30
0.0
 11
42.251968503936496
 21
1152.999027817112
 31
0.0
  0
LINE
  5
48
330
17
100
AcDbEntity
  8
0
100
AcDbLine
 10
130.83464566929115
 20
1135.2824923840446
 30
0.0
 11
0.0
 21
1135.2824923840446
 31
0.0
  0
LINE
  5
49
330
17
100
AcDbEntity
  8
0
100
AcDbLine
 10
337.5275590551173
 20
1220.3218624627825
 30
0.0
 11
337.5275590551173
 21
1152.999027817112
 31
0.0
  0
LINE
  5
4A
330
17
100
AcDbEntity
  8
0
100
AcDbLine
 10
337.5275590551173
 20
1241.5817049824689
 30
0.0
 11
337.5275590551173
 21
1859.2982404155398
 31
0.0
  0
LINE
  5
4B
330
17
100
AcDbEntity
  8
0
100
AcDbLine
 10
367.0551181102355
 20
1880.5580829352234
 30
0.0
 11
367.0551181102355
 21
910.873043565146
 31
0.0
  0
LINE
  5
4C
330
17
100
AcDbEntity
  8
0
100
AcDbLine
 10
337.5275590551173
 20
1135.2824923840446
 30
0.0
 11
337.5275590551173
 21
910.873043565146
 31
0.0
  0
LINE
  5
4D
330
17
100
AcDbEntity
  8
0
100
AcDbLine
 10
337.5275590551173
 20
893.1565081320739
 30
0.0
 11
337.5275590551173
 21
881.3454845100277
 31
0.0
  0
LINE
  5
4E
330
17
100
AcDbEntity
  8
0
100
AcDbLine
 10
42.251968503936496
 20
1152.999027817112
 30
0.0
 11
42.251968503936496
 21
1188.432098683255
 31
0.0
  0
LINE
  5
4F
330
17
100
AcDbEntity
  8
0
100
AcDbLine
 10
24.535433070865565
 20
1152.999027817112
 30
0.0
 11
24.535433070865565
 21
1188.432098683255
 31
0.0
  0
LINE
  5
50
330
17
100
AcDbEntity
  8
0
100
AcDbLine
 10
183.98425196850235
 20
1384.4950908092392
 30
0.0
 11
183.98425196850235
 21
1738.8257994706566
 31
0.0
  0
LINE
  5
51
330
17
100
AcDbEntity
  8
0
100
AcDbLine
 10
195.79527559054986
 20
1384.4950908092392
 30
0.0
 11
195.79527559054986
 21
1738.8257994706566
 31
0.0
  0
LINE
  5
52
330
17
100
AcDbEntity
  8
0
100
AcDbLine
 10
42.251968503936496
 20
1738.8257994706566
 30
0.0
 11
337.5275590551173
 21
1738.8257994706566
 31
0.0
  0
LINE
  5
53
330
17
100
AcDbEntity
  8
0
100
AcDbLine
 10
42.251968503936496
 20
1703.3927286045148
 30
0.0
 11
183.98425196850235
 21
1703.3927286045148
 31
0.0
  0
LINE
  5
54
330
17
100
AcDbEntity
  8
0
100
AcDbLine
 10
42.251968503936496
 20
1667.9596577383732
 30
0.0
 11
183.98425196850235
 21
1667.9596577383732
 31
0.0
  0
LINE
  5
55
330
17
100
AcDbEntity
  8
0
100
AcDbLine
 10
42.251968503936496
 20
1632.5265868722324
 30
0.0
 11
183.98425196850235
 21
1632.5265868722324
 31
0.0
  0
LINE
  5
56
330
17
100
AcDbEntity
  8
0
100
AcDbLine
 10
42.251968503936496
 20
1597.0935160060874
 30
0.0
 11
183.98425196850235
 21
1597.0935160060874
 31
0.0
  0
LINE
  5
57
330
17
100
AcDbEntity
  8
0
100
AcDbLine
 10
42.251968503936496
 20
1561.660445139948
 30
0.0
 11
183.98425196850235
 21
1561.660445139948
 31
0.0
  0
LINE
  5
58
330
17
100
AcDbEntity
  8
0
100
AcDbLine
 10
42.251968503936496
 20
1526.2273742738062
 30
0.0
 11
113.11811023621999
 21
1526.2273742738062
 31
0.0
  0
LINE
  5
59
330
17
100
AcDbEntity
  8
0
100
AcDbLine
 10
42.251968503936496
 20
1384.4950908092392
 30
0.0
 11
337.5275590551173
 21
1384.4950908092392
 31
0.0
  0
LINE
  5
5A
330
17
100
AcDbEntity
  8
0
100
AcDbLine
 10
42.251968503936496
 20
1188.432098683255
 30
0.0
 11
24.535433070865565
 21
1188.432098683255
 31
0.0
  0
LINE
  5
5B
330
17
100
AcDbEntity
  8
0
100
AcDbLine
 10
42.251968503936496
 20
1330.1643821478233
 30
0.0
 11
24.535433070865565
 21
1330.1643821478233
 31
0.0
  0
LINE
  5
5C
330
17
100
AcDbEntity
  8
0
100
AcDbLine
 10
24.535433070865565
 20
1330.1643821478233
 30
0.0
 11
24.535433070865565
 21
1880.5580829352234
 31
0.0
  0
LINE
  5
5D
330
17
100
AcDbEntity
  8
0
100
AcDbLine
 10
42.251968503936496
 20
1330.1643821478233
 30
0.0
 11
42.251968503936496
 21
1880.5580829352234
 31
0.0
  0
LINE
  5
5E
330
17
100
AcDbEntity
  8
0
100
AcDbLine
 10
24.535433070865565
 20
1152.999027817112
 30
0.0
 11
0.0
 21
1152.999027817112
 31
0.0
  0
LINE
  5
5F
330
17
100
AcDbEntity
  8
0
100
AcDbLine
 10
195.79527559054986
 20
1703.3927286045148
 30
0.0
 11
337.5275590551173
 21
1703.3927286045148
 31
0.0
  0
LINE
  5
60
330
17
100
AcDbEntity
  8
0
100
AcDbLine
 10
195.79527559054986
 20
1667.9596577383732
 30
0.0
 11
337.5275590551173
 21
1667.9596577383732
 31
0.0
  0
LINE
  5
61
330
17
100
AcDbEntity
  8
0
100
AcDbLine
 10
195.79527559054986
 20
1632.5265868722324
 30
0.0
 11
337.5275590551173
 21
1632.5265868722324
 31
0.0
  0
LINE
  5
62
330
17
100
AcDbEntity
  8
0
100
AcDbLine
 10
195.79527559054986
 20
1597.0935160060874
 30
0.0
 11
337.5275590551173
 21
1597.0935160060874
 31
0.0
  0
LINE
  5
63
330
17
100
AcDbEntity
  8
0
100
AcDbLine
 10
195.79527559054986
 20
1561.660445139948
 30
0.0
 11
337.5275590551173
 21
1561.660445139948
 31
0.0
  0
LINE
  5
64
330
17
100
AcDbEntity
  8
0
100
AcDbLine
 10
195.79527559054986
 20
1526.2273742738062
 30
0.0
 11
337.5275590551173
 21
1526.2273742738062
 31
0.0
  0
LINE
  5
65
330
17
100
AcDbEntity
  8
0
100
AcDbLine
 10
195.79527559054986
 20
1490.7943034076643
 30
0.0
 11
337.5275590551173
 21
1490.7943034076643
 31
0.0
  0
LINE
  5
66
330
17
100
AcDbEntity
  8
0
100
AcDbLine
 10
195.79527559054986
 20
1455.3612325415238
 30
0.0
 11
337.5275590551173
 21
1455.3612325415238
 31
0.0
  0
LINE
  5
67
330
17
100
AcDbEntity
  8
0
100
AcDbLine
 10
195.79527559054986
 20
1419.9281616753788
 30
0.0
 11
337.5275590551173
 21
1419.9281616753788
 31
0.0
  0
LINE
  5
68
330
17
100
AcDbEntity
  8
0
100
AcDbLine
 10
266.66141732283177
 20
1384.4950908092392
 30
0.0
 11
266.66141732283177
 21
1738.8257994706566
 31
0.0
  0
LINE
  5
69
330
17
100
AcDbEntity
  8
0
100
AcDbLine
 10
289.8236795458524
 20
1715.6635372476371
 30
0.0
 11
266.66141732283177
 21
1738.8257994706566
 31
0.0
  0
LINE
  5
6A
330
17
100
AcDbEntity
  8
0
100
AcDbLine
 10
243.4991550998152
 20
1715.6635372476371
 30
0.0
 11
266.66141732283177
 21
1738.8257994706566
 31
0.0
  0
LINE
  5
6B
330
17
100
AcDbEntity
  8
0
100
AcDbLine
 10
113.11811023621999
 20
1738.8257994706566
 30
0.0
 11
113.11811023621999
 21
1526.2273742738062
 31
0.0
  0
LINE
  5
6C
330
17
100
AcDbEntity
  8
0
100
AcDbLine
 10
89.95584801319956
 20
1549.3896364968252
 30
0.0
 11
113.11811023621999
 21
1526.2273742738062
 31
0.0
  0
LINE
  5
6D
330
17
100
AcDbEntity
  8
0
100
AcDbLine
 10
136.28037245923701
 20
1549.3896364968252
 30
0.0
 11
113.11811023621999
 21
1526.2273742738062
 31
0.0
  0
LINE
  5
6E
330
17
100
AcDbEntity
  8
0
100
AcDbLine
 10
42.251968503936496
 20
1490.7943034076643
 30
0.0
 11
183.98425196850235
 21
1561.660445139948
 31
0.0
  0
LINE
  5
6F
330
17
100
AcDbEntity
  8
0
100
AcDbLine
 10
0.0
 20
1880.5580829352234
 30
0.0
 11
172.1732283464587
 21
1880.5580829352234
 31
0.0
  0
LINE
  5
70
330
17
100
AcDbEntity
  8
0
100
AcDbLine
 10
0.0
 20
1894.7313112816798
 30
0.0
 11
180.44094488188807
 21
1894.7313112816798
 31
0.0
  0
LINE
  5
71
330
17
100
AcDbEntity
  8
0
100
AcDbLine
 10
382.4094488188971
 20
1880.5580829352234
 30
0.0
 11
382.4094488188971
 21
1894.7313112816798
 31
0.0
  0
LINE
  5
72
330
17
100
AcDbEntity
  8
0
100
AcDbLine
 10
524.1417322834627
 20
1880.5580829352234
 30
0.0
 11
524.1417322834627
 21
1894.7313112816798
 31
0.0
  0
LINE
  5
73
330
17
100
AcDbEntity
  8
0
100
AcDbLine
 10
524.1417322834627
 20
1894.7313112816798
 30
0.0
 11
893.8267716535415
 21
1894.7313112816798
 31
0.0
  0
LINE
  5
74
330
17
100
AcDbEntity
  8
0
100
AcDbLine
 10
524.1417322834627
 20
1880.5580829352234
 30
0.0
 11
879.6535433070871
 21
1880.5580829352234
 31
0.0
  0
LINE
  5
75
330
17
100
AcDbEntity
  8
0
100
AcDbLine
 10
278.4724409448813
 20
1880.5580829352234
 30
0.0
 11
278.4724409448813
 21
1894.7313112816798
 31
0.0
  0
LINE
  5
76
330
17
100
AcDbEntity
  8
0
100
AcDbLine
 10
172.1732283464587
 20
1880.5580829352234
 30
0.0
 11
172.1732283464587
 21
1894.7313112816798
 31
0.0
  0
LINE
  5
77
330
17
100
AcDbEntity
  8
0
100
AcDbLine
 10
278.4724409448813
 20
1880.5580829352234
 30
0.0
 11
382.4094488188971
 21
1880.5580829352234
 31
0.0
  0
LINE
  5
78
330
17
100
AcDbEntity
  8
0
100
AcDbLine
 10
559.5748031496059
 20
1965.5974530139636
 30
0.0
 11
964.6929133858275
 21
1965.5974530139636
 31
0.0
  0
LINE
  5
79
330
17
100
AcDbEntity
  8
0
100
AcDbLine
 10
964.6929133858275
 20
0.0
 30
0.0
 11
964.6929133858275
 21
655.7549333289217
 31
0.0
  0
LINE
  5
7A
330
17
100
AcDbEntity
  8
0
100
AcDbLine
 10
879.6535433070871
 20
838.8257994706519
 30
0.0
 11
893.8267716535415
 21
838.8257994706519
 31
0.0
  0
LINE
  5
7B
330
17
100
AcDbEntity
  8
0
100
AcDbLine
 10
879.6535433070871
 20
685.2824923840396
 30
0.0
 11
893.8267716535415
 21
685.2824923840396
 31
0.0
  0
LINE
  5
7C
330
17
100
AcDbEntity
  8
0
100
AcDbLine
 10
893.8267716535415
 20
838.8257994706519
 30
0.0
 11
893.8267716535415
 21
685.2824923840396
 31
0.0
  0
LINE
  5
7D
330
17
100
AcDbEntity
  8
0
100
AcDbLine
 10
1141.8582677165327
 20
762.0541459273484
 30
0.0
 11
1070.9921259842495
 21
762.0541459273484
 31
0.0
  0
LINE
  5
7E
330
17
100
AcDbEntity
  8
0
100
AcDbLine
 10
1094.154388207271
 20
738.8918837043277
 30
0.0
 11
1070.9921259842495
 21
762.0541459273484
 31
0.0
  0
LINE
  5
7F
330
17
100
AcDbEntity
  8
0
100
AcDbLine
 10
1094.154388207271
 20
785.2164081503615
 30
0.0
 11
1070.9921259842495
 21
762.0541459273484
 31
0.0
  0
LINE
  5
80
330
17
100
AcDbEntity
  8
0
100
AcDbLine
 10
1070.9921259842495
 20
868.3533585257708
 30
0.0
 11
1070.9921259842495
 21
655.7549333289217
 31
0.0
  0
LINE
  5
81
330
17
100
AcDbEntity
  8
0
100
AcDbLine
 10
1106.4251968503931
 20
868.3533585257708
 30
0.0
 11
1106.4251968503931
 21
655.7549333289217
 31
0.0
  0
LINE
  5
82
330
17
100
AcDbEntity
  8
0
100
AcDbLine
 10
1141.8582677165364
 20
868.3533585257708
 30
0.0
 11
1141.8582677165364
 21
655.7549333289217
 31
0.0
  0
LINE
  5
83
330
17
100
AcDbEntity
  8
0
100
AcDbLine
 10
964.6929133858275
 20
868.3533585257708
 30
0.0
 11
964.6929133858275
 21
1965.5974530139636
 31
0.0
  0
LINE
  5
84
330
17
100
AcDbEntity
  8
0
100
AcDbLine
 10
12.724409448818506
 20
1259.2982404155362
 30
0.0
 11
54.06299212598378
 21
1259.2982404155362
 31
0.0
  0
LINE
  5
85
330
17
100
AcDbEntity
  8
0
100
AcDbLine
 10
453.27559055117945
 20
1906.5423349037274
 30
0.0
 11
453.27559055117945
 21
1868.7470593131775
 31
0.0
  0
LINE
  5
86
330
17
100
AcDbEntity
  8
0
100
AcDbLine
 10
893.8267716535415
 20
0.0
 30
0.0
 11
893.8267716535415
 21
55.75493332891688
 31
0.0
  0
LINE
  5
87
330
17
100
AcDbEntity
  8
0
100
AcDbLine
 10
893.8267716535415
 20
169.1407601005683
 30
0.0
 11
893.8267716535415
 21
354.57383096671924
 31
0.0
  0
LINE
  5
88
330
17
100
AcDbEntity
  8
0
100
AcDbLine
 10
887.9212598425192
 20
177.40847663600357
 30
0.0
 11
887.9212598425192
 21
169.1407601005683
 31
0.0
  0
LINE
  5
89
330
17
100
AcDbEntity
  8
0
100
AcDbLine
 10
887.9212598425192
 20
169.1407601005683
 30
0.0
 11
893.8267716535415
 21
169.1407601005683
 31
0.0
  0
LINE
  5
8A
330
17
100
AcDbEntity
  8
0
100
AcDbLine
 10
893.8267716535415
 20
169.1407601005683
 30
0.0
 11
893.8267716535415
 21
169.1407601005683
 31
0.0
  0
LINE
  5
8B
330
17
100
AcDbEntity
  8
0
100
AcDbLine
 10
887.9212598425192
 20
169.1407601005683
 30
0.0
 11
887.9212598425192
 21
55.75493332891688
 31
0.0
  0
LINE
  5
8C
330
17
100
AcDbEntity
  8
0
100
AcDbLine
 10
887.9212598425192
 20
55.75493332891688
 30
0.0
 11
890.8740157480324
 21
55.75493332891688
 31
0.0
  0
LINE
  5
8D
330
17
100
AcDbEntity
  8
0
100
AcDbLine
 10
890.8740157480324
 20
55.75493332891688
 30
0.0
 11
890.8740157480324
 21
169.1407601005683
 31
0.0
  0
LINE
  5
8E
330
17
100
AcDbEntity
  8
0
100
AcDbLine
 10
890.8740157480324
 20
169.1407601005683
 30
0.0
 11
887.9212598425192
 21
169.1407601005683
 31
0.0
  0
LINE
  5
8F
330
17
100
AcDbEntity
  8
0
100
AcDbLine
 10
887.9212598425192
 20
169.1407601005683
 30
0.0
 11
887.9212598425192
 21
169.1407601005683
 31
0.0
  0
LINE
  5
90
330
17
100
AcDbEntity
  8
0
100
AcDbLine
 10
893.8267716535415
 20
55.75493332891688
 30
0.0
 11
887.9212598425192
 21
55.75493332891688
 31
0.0
  0
LINE
  5
91
330
17
100
AcDbEntity
  8
0
100
AcDbLine
 10
887.9212598425192
 20
55.75493332891688
 30
0.0
 11
887.9212598425192
 21
47.48721679348159
 31
0.0
  0
LINE
  5
92
330
17
100
AcDbEntity
  8
0
100
AcDbLine
 10
893.8267716535415
 20
47.48721679348159
 30
0.0
 11
893.8267716535415
 21
47.48721679348159
 31
0.0
  0
LINE
  5
93
330
17
100
AcDbEntity
  8
0
100
AcDbLine
 10
887.9212598425192
 20
467.9596577383743
 30
0.0
 11
887.9212598425192
 21
354.57383096671924
 31
0.0
  0
LINE
  5
94
330
17
100
AcDbEntity
  8
0
100
AcDbLine
 10
887.9212598425192
 20
354.57383096671924
 30
0.0
 11
890.8740157480324
 21
354.57383096671924
 31
0.0
  0
LINE
  5
95
330
17
100
AcDbEntity
  8
0
100
AcDbLine
 10
890.8740157480324
 20
354.57383096671924
 30
0.0
 11
890.8740157480324
 21
467.9596577383743
 31
0.0
  0
LINE
  5
96
330
17
100
AcDbEntity
  8
0
100
AcDbLine
 10
890.8740157480324
 20
467.9596577383743
 30
0.0
 11
887.9212598425192
 21
467.9596577383743
 31
0.0
  0
LINE
  5
97
330
17
100
AcDbEntity
  8
0
100
AcDbLine
 10
887.9212598425192
 20
467.9596577383743
 30
0.0
 11
887.9212598425192
 21
467.9596577383743
 31
0.0
  0
LINE
  5
98
330
17
100
AcDbEntity
  8
0
100
AcDbLine
 10
893.8267716535415
 20
467.9596577383743
 30
0.0
 11
893.8267716535415
 21
685.2824923840396
 31
0.0
  0
LINE
  5
99
330
17
100
AcDbEntity
  8
0
100
AcDbLine
 10
887.9212598425192
 20
476.22737427380616
 30
0.0
 11
887.9212598425192
 21
467.9596577383743
 31
0.0
  0
LINE
  5
9A
330
17
100
AcDbEntity
  8
0
100
AcDbLine
 10
887.9212598425192
 20
467.9596577383743
 30
0.0
 11
893.8267716535415
 21
467.9596577383743
 31
0.0
  0
LINE
  5
9B
330
17
100
AcDbEntity
  8
0
100
AcDbLine
 10
893.8267716535415
 20
467.9596577383743
 30
0.0
 11
893.8267716535415
 21
467.9596577383743
 31
0.0
  0
LINE
  5
9C
330
17
100
AcDbEntity
  8
0
100
AcDbLine
 10
893.8267716535415
 20
354.57383096671924
 30
0.0
 11
887.9212598425192
 21
354.57383096671924
 31
0.0
  0
LINE
  5
9D
330
17
100
AcDbEntity
  8
0
100
AcDbLine
 10
887.9212598425192
 20
354.57383096671924
 30
0.0
 11
887.9212598425192
 21
346.30611443128623
 31
0.0
  0
LINE
  5
9E
330
17
100
AcDbEntity
  8
0
100
AcDbLine
 10
893.8267716535415
 20
346.30611443128623
 30
0.0
 11
893.8267716535415
 21
346.30611443128623
 31
0.0
  0
LINE
  5
9F
330
17
100
AcDbEntity
  8
0
100
AcDbLine
 10
893.8267716535415
 20
838.8257994706519
 30
0.0
 11
968.9916657166768
 21
763.6609054075163
 31
0.0
  0
LINE
  5
A0
330
17
100
AcDbEntity
  8
0
100
AcDbLine
 10
893.8267716535415
 20
685.2824923840396
 30
0.0
 11
927.2333912371596
 21
718.6891119676541
 31
0.0
  0
LINE
  5
A1
330
17
100
AcDbEntity
  8
0
100
AcDbLine
 10
382.4094488188971
 20
1894.7313112816798
 30
0.0
 11
524.1417322834627
 21
1894.7313112816798
 31
0.0
  0
LINE
  5
A2
330
17
100
AcDbEntity
  8
0
100
AcDbLine
 10
524.1417322834627
 20
1894.7313112816798
 30
0.0
 11
524.1417322834627
 21
1880.5580829352234
 31
0.0
  0
LINE
  5
A3
330
17
100
AcDbEntity
  8
0
100
AcDbLine
 10
524.1417322834627
 20
1880.5580829352234
 30
0.0
 11
382.4094488188971
 21
1880.5580829352234
 31
0.0
  0
LINE
  5
A4
330
17
100
AcDbEntity
  8
0
100
AcDbLine
 10
382.4094488188971
 20
1880.5580829352234
 30
0.0
 11
382.4094488188971
 21
1894.7313112816798
 31
0.0
  0
LINE
  5
A5
330
17
100
AcDbEntity
  8
0
100
AcDbLine
 10
382.4094488188971
 20
1894.7313112816798
 30
0.0
 11
382.4094488188971
 21
1894.7313112816798
 31
0.0
  0
LINE
  5
A6
330
17
100
AcDbEntity
  8
0
100
AcDbLine
 10
24.535433070865565
 20
1330.1643821478233
 30
0.0
 11
24.535433070865565
 21
1188.432098683255
 31
0.0
  0
LINE
  5
A7
330
17
100
AcDbEntity
  8
0
100
AcDbLine
 10
24.535433070865565
 20
1188.432098683255
 30
0.0
 11
42.251968503936496
 21
1188.432098683255
 31
0.0
  0
LINE
  5
A8
330
17
100
AcDbEntity
  8
0
100
AcDbLine
 10
42.251968503936496
 20
1188.432098683255
 30
0.0
 11
42.251968503936496
 21
1330.1643821478233
 31
0.0
  0
LINE
  5
A9
330
17
100
AcDbEntity
  8
0
100
AcDbLine
 10
42.251968503936496
 20
1330.1643821478233
 30
0.0
 11
24.535433070865565
 21
1330.1643821478233
 31
0.0
  0
LINE
  5
AA
330
17
100
AcDbEntity
  8
0
100
AcDbLine
 10
24.535433070865565
 20
1330.1643821478233
 30
0.0
 11
24.535433070865565
 21
1330.1643821478233
 31
0.0
  0
LINE
  5
AB
330
17
100
AcDbEntity
  8
0
100
AcDbLine
 10
879.6535433070871
 20
177.40847663600357
 30
0.0
 11
893.8267716535415
 21
177.40847663600357
 31
0.0
  0
LINE
  5
AC
330
17
100
AcDbEntity
  8
0
100
AcDbLine
 10
893.8267716535415
 20
177.40847663600357
 30
0.0
 11
893.8267716535415
 21
47.48721679348159
 31
0.0
  0
LINE
  5
AD
330
17
100
AcDbEntity
  8
0
100
AcDbLine
 10
893.8267716535415
 20
47.48721679348159
 30
0.0
 11
879.6535433070871
 21
47.48721679348159
 31
0.0
  0
LINE
  5
AE
330
17
100
AcDbEntity
  8
0
100
AcDbLine
 10
879.6535433070871
 20
47.48721679348159
 30
0.0
 11
879.6535433070871
 21
177.40847663600357
 31
0.0
  0
LINE
  5
AF
330
17
100
AcDbEntity
  8
0
100
AcDbLine
 10
879.6535433070871
 20
177.40847663600357
 30
0.0
 11
879.6535433070871
 21
177.40847663600357
 31
0.0
  0
LINE
  5
B0
330
17
100
AcDbEntity
  8
0
100
AcDbLine
 10
879.6535433070871
 20
476.22737427380616
 30
0.0
 11
893.8267716535415
 21
476.22737427380616
 31
0.0
  0
LINE
  5
B1
330
17
100
AcDbEntity
  8
0
100
AcDbLine
 10
893.8267716535415
 20
476.22737427380616
 30
0.0
 11
893.8267716535415
 21
346.30611443128623
 31
0.0
  0
LINE
  5
B2
330
17
100
AcDbEntity
  8
0
100
AcDbLine
 10
893.8267716535415
 20
346.30611443128623
 30
0.0
 11
879.6535433070871
 21
346.30611443128623
 31
0.0
  0
LINE
  5
B3
330
17
100
AcDbEntity
  8
0
100
AcDbLine
 10
879.6535433070871
 20
346.30611443128623
 30
0.0
 11
879.6535433070871
 21
476.22737427380616
 31
0.0
  0
LINE
  5
B4
330
17
100
AcDbEntity
  8
0
100
AcDbLine
 10
879.6535433070871
 20
476.22737427380616
 30
0.0
 11
879.6535433070871
 21
476.22737427380616
 31
0.0
  0
LINE
  5
B5
330
17
100
AcDbEntity
  8
0
100
AcDbLine
 10
893.8267716535415
 20
655.7549333289217
 30
0.0
 11
1141.8582677165364
 21
655.7549333289217
 31
0.0
  0
LINE
  5
B6
330
17
100
AcDbEntity
  8
0
100
AcDbLine
 10
1070.9921259842495
 20
655.7549333289217
 30
0.0
 11
1070.9921259842495
 21
868.3533585257708
 31
0.0
  0
LINE
  5
B7
330
17
100
AcDbEntity
  8
0
100
AcDbLine
 10
1141.8582677165364
 20
868.3533585257708
 30
0.0
 11
893.8267716535415
 21
868.3533585257708
 31
0.0
  0
LINE
  5
B8
330
17
100
AcDbEntity
  8
0
100
AcDbLine
 10
178.66929133858207
 20
2012.8415475021536
 30
0.0
 11
196.38582677165073
 21
2012.8415475021536
 31
0.0
  0
LINE
  5
B9
330
17
100
AcDbEntity
  8
0
100
AcDbLine
 10
196.38582677165073
 20
2012.8415475021536
 30
0.0
 11
196.38582677165073
 21
1995.1250120690815
 31
0.0
  0
LINE
  5
BA
330
17
100
AcDbEntity
  8
0
100
AcDbLine
 10
196.38582677165073
 20
1995.1250120690815
 30
0.0
 11
178.66929133858207
 21
1995.1250120690815
 31
0.0
  0
LINE
  5
BB
330
17
100
AcDbEntity
  8
0
100
AcDbLine
 10
178.66929133858207
 20
1995.1250120690815
 30
0.0
 11
178.66929133858207
 21
2012.8415475021536
 31
0.0
  0
LINE
  5
BC
330
17
100
AcDbEntity
  8
0
100
AcDbLine
 10
178.66929133858207
 20
2012.8415475021536
 30
0.0
 11
178.66929133858207
 21
2012.8415475021536
 31
0.0
  0
LINE
  5
BD
330
17
100
AcDbEntity
  8
0
100
AcDbLine
 10
535.9527559055091
 20
2012.8415475021536
 30
0.0
 11
518.2362204724418
 21
2012.8415475021536
 31
0.0
  0
LINE
  5
BE
330
17
100
AcDbEntity
  8
0
100
AcDbLine
 10
518.2362204724418
 20
2012.8415475021536
 30
0.0
 11
518.2362204724418
 21
1995.1250120690815
 31
0.0
  0
LINE
  5
BF
330
17
100
AcDbEntity
  8
0
100
AcDbLine
 10
518.2362204724418
 20
1995.1250120690815
 30
0.0
 11
535.9527559055091
 21
1995.1250120690815
 31
0.0
  0
LINE
  5
C0
330
17
100
AcDbEntity
  8
0
100
AcDbLine
 10
535.9527559055091
 20
1995.1250120690815
 30
0.0
 11
535.9527559055091
 21
2012.8415475021536
 31
0.0
  0
LINE
  5
C1
330
17
100
AcDbEntity
  8
0
100
AcDbLine
 10
535.9527559055091
 20
2012.8415475021536
 30
0.0
 11
535.9527559055091
 21
2012.8415475021536
 31
0.0
  0
LINE
  5
C2
330
17
100
AcDbEntity
  8
0
100
AcDbLine
 10
172.1732283464587
 20
1880.5580829352234
 30
0.0
 11
172.1732283464587
 21
1894.7313112816798
 31
0.0
  0
LINE
  5
C3
330
17
100
AcDbEntity
  8
0
100
AcDbLine
 10
172.1732283464587
 20
1894.7313112816798
 30
0.0
 11
278.4724409448813
 21
1894.7313112816798
 31
0.0
  0
LINE
  5
C4
330
17
100
AcDbEntity
  8
0
100
AcDbLine
 10
278.4724409448813
 20
1894.7313112816798
 30
0.0
 11
278.4724409448813
 21
1880.5580829352234
 31
0.0
  0
LINE
  5
C5
330
17
100
AcDbEntity
  8
0
100
AcDbLine
 10
278.4724409448813
 20
1880.5580829352234
 30
0.0
 11
172.1732283464587
 21
1880.5580829352234
 31
0.0
  0
LINE
  5
C6
330
17
100
AcDbEntity
  8
0
100
AcDbLine
 10
172.1732283464587
 20
1880.5580829352234
 30
0.0
 11
172.1732283464587
 21
1880.5580829352234
 31
0.0
  0
LINE
  5
C7
330
17
100
AcDbEntity
  8
0
100
AcDbLine
 10
0.0
 20
2036.4635947462484
 30
0.0
 11
559.5748031496059
 21
2036.4635947462484
 31
0.0
  0
LINE
  5
C8
330
17
100
AcDbEntity
  8
0
100
AcDbLine
 10
559.5748031496059
 20
2036.4635947462484
 30
0.0
 11
559.5748031496059
 21
1894.7313112816778
 31
0.0
  0
LINE
  5
C9
330
17
100
AcDbEntity
  8
0
100
AcDbLine
 10
858.393700787401
 20
591.9754057698678
 30
0.0
 11
879.6535433070871
 21
591.9754057698678
 31
0.0
  0
LINE
  5
CA
330
17
100
AcDbEntity
  8
0
100
AcDbLine
 10
879.6535433070871
 20
591.9754057698678
 30
0.0
 11
879.6535433070871
 21
570.7155632501854
 31
0.0
  0
LINE
  5
CB
330
17
100
AcDbEntity
  8
0
100
AcDbLine
 10
879.6535433070871
 20
570.7155632501854
 30
0.0
 11
858.393700787401
 21
570.7155632501854
 31
0.0
  0
LINE
  5
CC
330
17
100
AcDbEntity
  8
0
100
AcDbLine
 10
858.393700787401
 20
570.7155632501854
 30
0.0
 11
858.393700787401
 21
591.9754057698678
 31
0.0
  0
LINE
  5
CD
330
17
100
AcDbEntity
  8
0
100
AcDbLine
 10
858.393700787401
 20
591.9754057698678
 30
0.0
 11
858.393700787401
 21
591.9754057698678
 31
0.0
  0
LINE
  5
CE
330
17
100
AcDbEntity
  8
0
100
AcDbLine
 10
337.5275590551173
 20
591.9754057698678
 30
0.0
 11
358.78740157480024
 21
591.9754057698678
 31
0.0
  0
LINE
  5
CF
330
17
100
AcDbEntity
  8
0
100
AcDbLine
 10
358.78740157480024
 20
591.9754057698678
 30
0.0
 11
358.78740157480024
 21
570.7155632501854
 31
0.0
  0
LINE
  5
D0
330
17
100
AcDbEntity
  8
0
100
AcDbLine
 10
358.78740157480024
 20
570.7155632501854
 30
0.0
 11
337.5275590551173
 21
570.7155632501854
 31
0.0
  0
LINE
  5
D1
330
17
100
AcDbEntity
  8
0
100
AcDbLine
 10
337.5275590551173
 20
570.7155632501854
 30
0.0
 11
337.5275590551173
 21
591.9754057698678
 31
0.0
  0
LINE
  5
D2
330
17
100
AcDbEntity
  8
0
100
AcDbLine
 10
337.5275590551173
 20
591.9754057698678
 30
0.0
 11
337.5275590551173
 21
591.9754057698678
 31
0.0
  0
LINE
  5
D3
330
17
100
AcDbEntity
  8
0
100
AcDbLine
 10
858.393700787401
 20
1241.5817049824689
 30
0.0
 11
879.6535433070871
 21
1241.5817049824689
 31
0.0
  0
LINE
  5
D4
330
17
100
AcDbEntity
  8
0
100
AcDbLine
 10
879.6535433070871
 20
1241.5817049824689
 30
0.0
 11
879.6535433070871
 21
1220.3218624627825
 31
0.0
  0
LINE
  5
D5
330
17
100
AcDbEntity
  8
0
100
AcDbLine
 10
879.6535433070871
 20
1220.3218624627825
 30
0.0
 11
858.393700787401
 21
1220.3218624627825
 31
0.0
  0
LINE
  5
D6
330
17
100
AcDbEntity
  8
0
100
AcDbLine
 10
858.393700787401
 20
1220.3218624627825
 30
0.0
 11
858.393700787401
 21
1241.5817049824689
 31
0.0
  0
LINE
  5
D7
330
17
100
AcDbEntity
  8
0
100
AcDbLine
 10
858.393700787401
 20
1241.5817049824689
 30
0.0
 11
858.393700787401
 21
1241.5817049824689
 31
0.0
  0
LINE
  5
D8
330
17
100
AcDbEntity
  8
0
100
AcDbLine
 10
858.393700787401
 20
1880.5580829352234
 30
0.0
 11
879.6535433070871
 21
1880.5580829352234
 31
0.0
  0
LINE
  5
D9
330
17
100
AcDbEntity
  8
0
100
AcDbLine
 10
879.6535433070871
 20
1880.5580829352234
 30
0.0
 11
879.6535433070871
 21
1859.2982404155398
 31
0.0
  0
LINE
  5
DA
330
17
100
AcDbEntity
  8
0
100
AcDbLine
 10
879.6535433070871
 20
1859.2982404155398
 30
0.0
 11
858.393700787401
 21
1859.2982404155398
 31
0.0
  0
LINE
  5
DB
330
17
100
AcDbEntity
  8
0
100
AcDbLine
 10
858.393700787401
 20
1859.2982404155398
 30
0.0
 11
858.393700787401
 21
1880.5580829352234
 31
0.0
  0
LINE
  5
DC
330
17
100
AcDbEntity
  8
0
100
AcDbLine
 10
858.393700787401
 20
1880.5580829352234
 30
0.0
 11
858.393700787401
 21
1880.5580829352234
 31
0.0
  0
LINE
  5
DD
330
17
100
AcDbEntity
  8
0
100
AcDbLine
 10
337.5275590551173
 20
1241.5817049824689
 30
0.0
 11
358.78740157480024
 21
1241.5817049824689
 31
0.0
  0
LINE
  5
DE
330
17
100
AcDbEntity
  8
0
100
AcDbLine
 10
358.78740157480024
 20
1241.5817049824689
 30
0.0
 11
358.78740157480024
 21
1220.3218624627825
 31
0.0
  0
LINE
  5
DF
330
17
100
AcDbEntity
  8
0
100
AcDbLine
 10
358.78740157480024
 20
1220.3218624627825
 30
0.0
 11
337.5275590551173
 21
1220.3218624627825
 31
0.0
  0
LINE
  5
E0
330
17
100
AcDbEntity
  8
0
100
AcDbLine
 10
337.5275590551173
 20
1220.3218624627825
 30
0.0
 11
337.5275590551173
 21
1241.5817049824689
 31
0.0
  0
LINE
  5
E1
330
17
100
AcDbEntity
  8
0
100
AcDbLine
 10
337.5275590551173
 20
1241.5817049824689
 30
0.0
 11
337.5275590551173
 21
1241.5817049824689
 31
0.0
  0
LINE
  5
E2
330
17
100
AcDbEntity
  8
0
100
AcDbLine
 10
337.5275590551173
 20
1880.5580829352234
 30
0.0
 11
358.78740157480024
 21
1880.5580829352234
 31
0.0
  0
LINE
  5
E3
330
17
100
AcDbEntity
  8
0
100
AcDbLine
 10
358.78740157480024
 20
1880.5580829352234
 30
0.0
 11
358.78740157480024
 21
1859.2982404155398
 31
0.0
  0
LINE
  5
E4
330
17
100
AcDbEntity
  8
0
100
AcDbLine
 10
358.78740157480024
 20
1859.2982404155398
 30
0.0
 11
337.5275590551173
 21
1859.2982404155398
 31
0.0
  0
LINE
  5
E5
330
17
100
AcDbEntity
  8
0
100
AcDbLine
 10
337.5275590551173
 20
1859.2982404155398
 30
0.0
 11
337.5275590551173
 21
1880.5580829352234
 31
0.0
  0
LINE
  5
E6
330
17
100
AcDbEntity
  8
0
100
AcDbLine
 10
337.5275590551173
 20
1880.5580829352234
 30
0.0
 11
337.5275590551173
 21
1880.5580829352234
 31
0.0
  0
LINE
  5
E7
330
17
100
AcDbEntity
  8
0
100
AcDbLine
 10
270.2047244094497
 20
1894.7313112816798
 30
0.0
 11
382.4094488188971
 21
1894.7313112816798
 31
0.0
  0
LINE
  5
E8
330
17
100
AcDbEntity
  8
0
100
AcDbLine
 10
278.4724409448813
 20
1888.8257994706578
 30
0.0
 11
270.2047244094497
 21
1888.8257994706578
 31
0.0
  0
LINE
  5
E9
330
17
100
AcDbEntity
  8
0
100
AcDbLine
 10
270.2047244094497
 20
1888.8257994706578
 30
0.0
 11
270.2047244094497
 21
1894.7313112816798
 31
0.0
  0
LINE
  5
EA
330
17
100
AcDbEntity
  8
0
100
AcDbLine
 10
270.2047244094497
 20
1894.7313112816798
 30
0.0
 11
270.2047244094497
 21
1894.7313112816798
 31
0.0
  0
LINE
  5
EB
330
17
100
AcDbEntity
  8
0
100
AcDbLine
 10
270.2047244094497
 20
1891.7785553761696
 30
0.0
 11
180.44094488188807
 21
1891.7785553761696
 31
0.0
  0
LINE
  5
EC
330
17
100
AcDbEntity
  8
0
100
AcDbLine
 10
180.44094488188807
 20
1891.7785553761696
 30
0.0
 11
180.44094488188807
 21
1888.8257994706578
 31
0.0
  0
LINE
  5
ED
330
17
100
AcDbEntity
  8
0
100
AcDbLine
 10
180.44094488188807
 20
1888.8257994706578
 30
0.0
 11
270.2047244094497
 21
1888.8257994706578
 31
0.0
  0
LINE
  5
EE
330
17
100
AcDbEntity
  8
0
100
AcDbLine
 10
270.2047244094497
 20
1888.8257994706578
 30
0.0
 11
270.2047244094497
 21
1891.7785553761696
 31
0.0
  0
LINE
  5
EF
330
17
100
AcDbEntity
  8
0
100
AcDbLine
 10
270.2047244094497
 20
1891.7785553761696
 30
0.0
 11
270.2047244094497
 21
1891.7785553761696
 31
0.0
  0
LINE
  5
F0
330
17
100
AcDbEntity
  8
0
100
AcDbLine
 10
180.44094488188807
 20
1894.7313112816798
 30
0.0
 11
180.44094488188807
 21
1888.8257994706578
 31
0.0
  0
LINE
  5
F1
330
17
100
AcDbEntity
  8
0
100
AcDbLine
 10
180.44094488188807
 20
1888.8257994706578
 30
0.0
 11
172.1732283464562
 21
1888.8257994706578
 31
0.0
  0
LINE
  5
F2
330
17
100
AcDbEntity
  8
0
100
AcDbLine
 10
172.1732283464562
 20
1894.7313112816798
 30
0.0
 11
172.1732283464562
 21
1894.7313112816798
 31
0.0
  0
LINE
  5
F3
330
17
100
AcDbEntity
  8
0
100
AcDbLine
 10
273.71209997782944
 20
1384.4950908092392
 30
0.0
 11
273.6923848391152
 21
1385.0219889838968
 31
0.0
  0
LINE
  5
F4
330
17
100
AcDbEntity
  8
0
100
AcDbLine
 10
273.6923848391152
 20
1385.0219889838968
 30
0.0
 11
273.63334967802393
 21
1385.5459405302302
 31
0.0
  0
LINE
  5
F5
330
17
100
AcDbEntity
  8
0
100
AcDbLine
 10
273.63334967802393
 20
1385.5459405302302
 30
0.0
 11
273.535324643125
 21
1386.0640152986593
 31
0.0
  0
LINE
  5
F6
330
17
100
AcDbEntity
  8
0
100
AcDbLine
 10
273.535324643125
 20
1386.0640152986593
 30
0.0
 11
273.3988579301749
 21
1386.5733160049285
 31
0.0
  0
LINE
  5
F7
330
17
100
AcDbEntity
  8
0
100
AcDbLine
 10
273.3988579301749
 20
1386.5733160049285
 30
0.0
 11
273.2247127163905
 21
1387.0709944328983
 31
0.0
  0
LINE
  5
F8
330
17
100
AcDbEntity
  8
0
100
AcDbLine
 10
273.2247127163905
 20
1387.0709944328983
 30
0.0
 11
273.0138628924442
 21
1387.5542673629213
 31
0.0
  0
LINE
  5
F9
330
17
100
AcDbEntity
  8
0
100
AcDbLine
 10
273.0138628924442
 20
1387.5542673629213
 30
0.0
 11
272.7674876160818
 21
1388.0204321367382
 31
0.0
  0
LINE
  5
FA
330
17
100
AcDbEntity
  8
0
100
AcDbLine
 10
272.7674876160818
 20
1388.0204321367382
 30
0.0
 11
272.48696471778794
 21
1388.4668817718411
 31
0.0
  0
LINE
  5
FB
330
17
100
AcDbEntity
  8
0
100
AcDbLine
 10
272.48696471778794
 20
1388.4668817718411
 30
0.0
 11
272.1738629953993
 21
1388.8911195407732
 31
0.0
  0
LINE
  5
FC
330
17
100
AcDbEntity
  8
0
100
AcDbLine
 10
272.1738629953993
 20
1388.8911195407732
 30
0.0
 11
271.8299334407566
 21
1389.2907729338428
 31
0.0
  0
LINE
  5
FD
330
17
100
AcDbEntity
  8
0
100
AcDbLine
 10
271.8299334407566
 20
1389.2907729338428
 30
0.0
 11
271.45709944743567
 21
1389.6636069271638
 31
0.0
  0
LINE
  5
FE
330
17
100
AcDbEntity
  8
0
100
AcDbLine
 10
271.45709944743567
 20
1389.6636069271638
 30
0.0
 11
271.0574460543653
 21
1390.007536481808
 31
0.0
  0
LINE
  5
FF
330
17
100
AcDbEntity
  8
0
100
AcDbLine
 10
271.0574460543653
 20
1390.007536481808
 30
0.0
 11
270.63320828543283
 21
1390.3206382041963
 31
0.0
  0
LINE
  5
100
330
17
100
AcDbEntity
  8
0
100
AcDbLine
 10
270.63320828543283
 20
1390.3206382041963
 30
0.0
 11
270.1867586503313
 21
1390.60116110249
 31
0.0
  0
LINE
  5
101
330
17
100
AcDbEntity
  8
0
100
AcDbLine
 10
270.1867586503313
 20
1390.60116110249
 30
0.0
 11
269.7205938765128
 21
1390.8475363788516
 31
0.0
  0
LINE
  5
102
330
17
100
AcDbEntity
  8
0
100
AcDbLine
 10
269.7205938765128
 20
1390.8475363788516
 30
0.0
 11
269.23732094649085
 21
1391.058386202798
 31
0.0
  0
LINE
  5
103
330
17
100
AcDbEntity
  8
0
100
AcDbLine
 10
269.23732094649085
 20
1391.058386202798
 30
0.0
 11
268.7396425185216
 21
1391.2325314165837
 31
0.0
  0
LINE
  5
104
330
17
100
AcDbEntity
  8
0
100
AcDbLine
 10
268.7396425185216
 20
1391.2325314165837
 30
0.0
 11
268.2303418122506
 21
1391.3689981295333
 31
0.0
  0
LINE
  5
105
330
17
100
AcDbEntity
  8
0
100
AcDbLine
 10
268.2303418122506
 20
1391.3689981295333
 30
0.0
 11
267.7122670438216
 21
1391.4670231644325
 31
0.0
  0
LINE
  5
106
330
17
100
AcDbEntity
  8
0
100
AcDbLine
 10
267.7122670438216
 20
1391.4670231644325
 30
0.0
 11
267.188315497488
 21
1391.5260583255222
 31
0.0
  0
LINE
  5
107
330
17
100
AcDbEntity
  8
0
100
AcDbLine
 10
267.188315497488
 20
1391.5260583255222
 30
0.0
 11
266.66141732283177
 21
1391.545773464239
 31
0.0
  0
LINE
  5
108
330
17
100
AcDbEntity
  8
0
100
AcDbLine
 10
266.66141732283177
 20
1391.545773464239
 30
0.0
 11
266.1345191481755
 21
1391.5260583255222
 31
0.0
  0
LINE
  5
109
330
17
100
AcDbEntity
  8
0
100
AcDbLine
 10
266.1345191481755
 20
1391.5260583255222
 30
0.0
 11
265.610567601841
 21
1391.4670231644325
 31
0.0
  0
LINE
  5
10A
330
17
100
AcDbEntity
  8
0
100
AcDbLine
 10
265.610567601841
 20
1391.4670231644325
 30
0.0
 11
265.09249283341205
 21
1391.3689981295333
 31
0.0
  0
LINE
  5
10B
330
17
100
AcDbEntity
  8
0
100
AcDbLine
 10
265.09249283341205
 20
1391.3689981295333
 30
0.0
 11
264.58319212714105
 21
1391.2325314165837
 31
0.0
  0
LINE
  5
10C
330
17
100
AcDbEntity
  8
0
100
AcDbLine
 10
264.58319212714105
 20
1391.2325314165837
 30
0.0
 11
264.0855136991727
 21
1391.058386202798
 31
0.0
  0
LINE
  5
10D
330
17
100
AcDbEntity
  8
0
100
AcDbLine
 10
264.0855136991727
 20
1391.058386202798
 30
0.0
 11
263.60224076914983
 21
1390.8475363788516
 31
0.0
  0
LINE
  5
10E
330
17
100
AcDbEntity
  8
0
100
AcDbLine
 10
263.60224076914983
 20
1390.8475363788516
 30
0.0
 11
263.1360759953327
 21
1390.60116110249
 31
0.0
  0
LINE
  5
10F
330
17
100
AcDbEntity
  8
0
100
AcDbLine
 10
263.1360759953327
 20
1390.60116110249
 30
0.0
 11
262.68962636023116
 21
1390.3206382041963
 31
0.0
  0
LINE
  5
110
330
17
100
AcDbEntity
  8
0
100
AcDbLine
 10
262.68962636023116
 20
1390.3206382041963
 30
0.0
 11
262.2653885912978
 21
1390.007536481808
 31
0.0
  0
LINE
  5
111
330
17
100
AcDbEntity
  8
0
100
AcDbLine
 10
262.2653885912978
 20
1390.007536481808
 30
0.0
 11
261.8657351982274
 21
1389.6636069271638
 31
0.0
  0
LINE
  5
112
330
17
100
AcDbEntity
  8
0
100
AcDbLine
 10
261.8657351982274
 20
1389.6636069271638
 30
0.0
 11
261.4929012049074
 21
1389.2907729338428
 31
0.0
  0
LINE
  5
113
330
17
100
AcDbEntity
  8
0
100
AcDbLine
 10
261.4929012049074
 20
1389.2907729338428
 30
0.0
 11
261.1489716502633
 21
1388.8911195407732
 31
0.0
  0
LINE
  5
114
330
17
100
AcDbEntity
  8
0
100
AcDbLine
 10
261.1489716502633
 20
1388.8911195407732
 30
0.0
 11
260.83586992787605
 21
1388.4668817718411
 31
0.0
  0
LINE
  5
115
330
17
100
AcDbEntity
  8
0
100
AcDbLine
 10
260.83586992787605
 20
1388.4668817718411
 30
0.0
 11
260.55534702958084
 21
1388.0204321367382
 31
0.0
  0
LINE
  5
116
330
17
100
AcDbEntity
  8
0
100
AcDbLine
 10
260.55534702958084
 20
1388.0204321367382
 30
0.0
 11
260.30897175321843
 21
1387.5542673629213
 31
0.0
  0
LINE
  5
117
330
17
100
AcDbEntity
  8
0
100
AcDbLine
 10
260.30897175321843
 20
1387.5542673629213
 30
0.0
 11
260.098121929273
 21
1387.0709944328983
 31
0.0
  0
LINE
  5
118
330
17
100
AcDbEntity
  8
0
100
AcDbLine
 10
260.098121929273
 20
1387.0709944328983
 30
0.0
 11
259.9239767154877
 21
1386.5733160049285
 31
0.0
  0
LINE
  5
119
330
17
100
AcDbEntity
  8
0
100
AcDbLine
 10
259.9239767154877
 20
1386.5733160049285
 30
0.0
 11
259.7875100025376
 21
1386.0640152986593
 31
0.0
  0
LINE
  5
11A
330
17
100
AcDbEntity
  8
0
100
AcDbLine
 10
259.7875100025376
 20
1386.0640152986593
 30
0.0
 11
259.6894849676387
 21
1385.5459405302302
 31
0.0
  0
LINE
  5
11B
330
17
100
AcDbEntity
  8
0
100
AcDbLine
 10
259.6894849676387
 20
1385.5459405302302
 30
0.0
 11
259.6304498065474
 21
1385.0219889838968
 31
0.0
  0
LINE
  5
11C
330
17
100
AcDbEntity
  8
0
100
AcDbLine
 10
259.6304498065474
 20
1385.0219889838968
 30
0.0
 11
259.6107346678332
 21
1384.4950908092392
 31
0.0
  0
LINE
  5
11D
330
17
100
AcDbEntity
  8
0
100
AcDbLine
 10
259.6107346678332
 20
1384.4950908092392
 30
0.0
 11
259.6304498065474
 21
1383.9681926345843
 31
0.0
  0
LINE
  5
11E
330
17
100
AcDbEntity
  8
0
100
AcDbLine
 10
259.6304498065474
 20
1383.9681926345843
 30
0.0
 11
259.6894849676387
 21
1383.4442410882493
 31
0.0
  0
LINE
  5
11F
330
17
100
AcDbEntity
  8
0
100
AcDbLine
 10
259.6894849676387
 20
1383.4442410882493
 30
0.0
 11
259.7875100025376
 21
1382.9261663198204
 31
0.0
  0
LINE
  5
120
330
17
100
AcDbEntity
  8
0
100
AcDbLine
 10
259.7875100025376
 20
1382.9261663198204
 30
0.0
 11
259.9239767154877
 21
1382.4168656135496
 31
0.0
  0
LINE
  5
121
330
17
100
AcDbEntity
  8
0
100
AcDbLine
 10
259.9239767154877
 20
1382.4168656135496
 30
0.0
 11
260.098121929273
 21
1381.9191871855814
 31
0.0
  0
LINE
  5
122
330
17
100
AcDbEntity
  8
0
100
AcDbLine
 10
260.098121929273
 20
1381.9191871855814
 30
0.0
 11
260.30897175321843
 21
1381.4359142555568
 31
0.0
  0
LINE
  5
123
330
17
100
AcDbEntity
  8
0
100
AcDbLine
 10
260.30897175321843
 20
1381.4359142555568
 30
0.0
 11
260.55534702958084
 21
1380.96974948174
 31
0.0
  0
LINE
  5
124
330
17
100
AcDbEntity
  8
0
100
AcDbLine
 10
260.55534702958084
 20
1380.96974948174
 30
0.0
 11
260.83586992787605
 21
1380.5232998466372
 31
0.0
  0
LINE
  5
125
330
17
100
AcDbEntity
  8
0
100
AcDbLine
 10
260.83586992787605
 20
1380.5232998466372
 30
0.0
 11
261.1489716502633
 21
1380.0990620777063
 31
0.0
  0
LINE
  5
126
330
17
100
AcDbEntity
  8
0
100
AcDbLine
 10
261.1489716502633
 20
1380.0990620777063
 30
0.0
 11
261.4929012049074
 21
1379.6994086846357
 31
0.0
  0
LINE
  5
127
330
17
100
AcDbEntity
  8
0
100
AcDbLine
 10
261.4929012049074
 20
1379.6994086846357
 30
0.0
 11
261.8657351982274
 21
1379.3265746913148
 31
0.0
  0
LINE
  5
128
330
17
100
AcDbEntity
  8
0
100
AcDbLine
 10
261.8657351982274
 20
1379.3265746913148
 30
0.0
 11
262.2653885912978
 21
1378.9826451366703
 31
0.0
  0
LINE
  5
129
330
17
100
AcDbEntity
  8
0
100
AcDbLine
 10
262.2653885912978
 20
1378.9826451366703
 30
0.0
 11
262.68962636023116
 21
1378.6695434142844
 31
0.0
  0
LINE
  5
12A
330
17
100
AcDbEntity
  8
0
100
AcDbLine
 10
262.68962636023116
 20
1378.6695434142844
 30
0.0
 11
263.1360759953327
 21
1378.3890205159896
 31
0.0
  0
LINE
  5
12B
330
17
100
AcDbEntity
  8
0
100
AcDbLine
 10
263.1360759953327
 20
1378.3890205159896
 30
0.0
 11
263.60224076914983
 21
1378.1426452396267
 31
0.0
  0
LINE
  5
12C
330
17
100
AcDbEntity
  8
0
100
AcDbLine
 10
263.60224076914983
 20
1378.1426452396267
 30
0.0
 11
264.0855136991727
 21
1377.9317954156818
 31
0.0
  0
LINE
  5
12D
330
17
100
AcDbEntity
  8
0
100
AcDbLine
 10
264.0855136991727
 20
1377.9317954156818
 30
0.0
 11
264.58319212714105
 21
1377.757650201896
 31
0.0
  0
LINE
  5
12E
330
17
100
AcDbEntity
  8
0
100
AcDbLine
 10
264.58319212714105
 20
1377.757650201896
 30
0.0
 11
265.09249283341205
 21
1377.6211834889452
 31
0.0
  0
LINE
  5
12F
330
17
100
AcDbEntity
  8
0
100
AcDbLine
 10
265.09249283341205
 20
1377.6211834889452
 30
0.0
 11
265.610567601841
 21
1377.523158454047
 31
0.0
  0
LINE
  5
130
330
17
100
AcDbEntity
  8
0
100
AcDbLine
 10
265.610567601841
 20
1377.523158454047
 30
0.0
 11
266.1345191481755
 21
1377.4641232929562
 31
0.0
  0
LINE
  5
131
330
17
100
AcDbEntity
  8
0
100
AcDbLine
 10
266.1345191481755
 20
1377.4641232929562
 30
0.0
 11
266.66141732283177
 21
1377.444408154242
 31
0.0
  0
LINE
  5
132
330
17
100
AcDbEntity
  8
0
100
AcDbLine
 10
266.66141732283177
 20
1377.444408154242
 30
0.0
 11
267.188315497488
 21
1377.4641232929562
 31
0.0
  0
LINE
  5
133
330
17
100
AcDbEntity
  8
0
100
AcDbLine
 10
267.188315497488
 20
1377.4641232929562
 30
0.0
 11
267.7122670438216
 21
1377.523158454047
 31
0.0
  0
LINE
  5
134
330
17
100
AcDbEntity
  8
0
100
AcDbLine
 10
267.7122670438216
 20
1377.523158454047
 30
0.0
 11
268.2303418122506
 21
1377.6211834889452
 31
0.0
  0
LINE
  5
135
330
17
100
AcDbEntity
  8
0
100
AcDbLine
 10
268.2303418122506
 20
1377.6211834889452
 30
0.0
 11
268.7396425185216
 21
1377.757650201896
 31
0.0
  0
LINE
  5
136
330
17
100
AcDbEntity
  8
0
100
AcDbLine
 10
268.7396425185216
 20
1377.757650201896
 30
0.0
 11
269.23732094649085
 21
1377.9317954156818
 31
0.0
  0
LINE
  5
137
330
17
100
AcDbEntity
  8
0
100
AcDbLine
 10
269.23732094649085
 20
1377.9317954156818
 30
0.0
 11
269.7205938765128
 21
1378.1426452396267
 31
0.0
  0
LINE
  5
138
330
17
100
AcDbEntity
  8
0
100
AcDbLine
 10
269.7205938765128
 20
1378.1426452396267
 30
0.0
 11
270.1867586503313
 21
1378.3890205159896
 31
0.0
  0
LINE
  5
139
330
17
100
AcDbEntity
  8
0
100
AcDbLine
 10
270.1867586503313
 20
1378.3890205159896
 30
0.0
 11
270.63320828543283
 21
1378.6695434142844
 31
0.0
  0
LINE
  5
13A
330
17
100
AcDbEntity
  8
0
100
AcDbLine
 10
270.63320828543283
 20
1378.6695434142844
 30
0.0
 11
271.0574460543653
 21
1378.9826451366703
 31
0.0
  0
LINE
  5
13B
330
17
100
AcDbEntity
  8
0
100
AcDbLine
 10
271.0574460543653
 20
1378.9826451366703
 30
0.0
 11
271.45709944743567
 21
1379.3265746913148
 31
0.0
  0
LINE
  5
13C
330
17
100
AcDbEntity
  8
0
100
AcDbLine
 10
271.45709944743567
 20
1379.3265746913148
 30
0.0
 11
271.8299334407566
 21
1379.6994086846357
 31
0.0
  0
LINE
  5
13D
330
17
100
AcDbEntity
  8
0
100
AcDbLine
 10
271.8299334407566
 20
1379.6994086846357
 30
0.0
 11
272.1738629953993
 21
1380.0990620777063
 31
0.0
  0
LINE
  5
13E
330
17
100
AcDbEntity
  8
0
100
AcDbLine
 10
272.1738629953993
 20
1380.0990620777063
 30
0.0
 11
272.48696471778794
 21
1380.5232998466372
 31
0.0
  0
LINE
  5
13F
330
17
100
AcDbEntity
  8
0
100
AcDbLine
 10
272.48696471778794
 20
1380.5232998466372
 30
0.0
 11
272.7674876160818
 21
1380.96974948174
 31
0.0
  0
LINE
  5
140
330
17
100
AcDbEntity
  8
0
100
AcDbLine
 10
272.7674876160818
 20
1380.96974948174
 30
0.0
 11
273.0138628924442
 21
1381.4359142555568
 31
0.0
  0
LINE
  5
141
330
17
100
AcDbEntity
  8
0
100
AcDbLine
 10
273.0138628924442
 20
1381.4359142555568
 30
0.0
 11
273.2247127163905
 21
1381.9191871855814
 31
0.0
  0
LINE
  5
142
330
17
100
AcDbEntity
  8
0
100
AcDbLine
 10
273.2247127163905
 20
1381.9191871855814
 30
0.0
 11
273.3988579301749
 21
1382.4168656135496
 31
0.0
  0
LINE
  5
143
330
17
100
AcDbEntity
  8
0
100
AcDbLine
 10
273.3988579301749
 20
1382.4168656135496
 30
0.0
 11
273.535324643125
 21
1382.9261663198204
 31
0.0
  0
LINE
  5
144
330
17
100
AcDbEntity
  8
0
100
AcDbLine
 10
273.535324643125
 20
1382.9261663198204
 30
0.0
 11
273.63334967802393
 21
1383.4442410882493
 31
0.0
  0
LINE
  5
145
330
17
100
AcDbEntity
  8
0
100
AcDbLine
 10
273.63334967802393
 20
1383.4442410882493
 30
0.0
 11
273.6923848391152
 21
1383.9681926345843
 31
0.0
  0
LINE
  5
146
330
17
100
AcDbEntity
  8
0
100
AcDbLine
 10
273.6923848391152
 20
1383.9681926345843
 30
0.0
 11
273.71209997782944
 21
1384.4950908092392
 31
0.0
  0
LINE
  5
147
330
17
100
AcDbEntity
  8
0
100
AcDbLine
 10
120.16879289121744
 20
1738.8257994706566
 30
0.0
 11
120.14907775250322
 21
1739.3526976453127
 31
0.0
  0
LINE
  5
148
330
17
100
AcDbEntity
  8
0
100
AcDbLine
 10
120.14907775250322
 20
1739.3526976453127
 30
0.0
 11
120.09004259141238
 21
1739.8766491916474
 31
0.0
  0
LINE
  5
149
330
17
100
AcDbEntity
  8
0
100
AcDbLine
 10
120.09004259141238
 20
1739.8766491916474
 30
0.0
 11
119.99201755651325
 21
1740.3947239600766
 31
0.0
  0
LINE
  5
14A
330
17
100
AcDbEntity
  8
0
100
AcDbLine
 10
119.99201755651325
 20
1740.3947239600766
 30
0.0
 11
119.85555084356338
 21
1740.904024666346
 31
0.0
  0
LINE
  5
14B
330
17
100
AcDbEntity
  8
0
100
AcDbLine
 10
119.85555084356338
 20
1740.904024666346
 30
0.0
 11
119.68140562977896
 21
1741.4017030943155
 31
0.0
  0
LINE
  5
14C
330
17
100
AcDbEntity
  8
0
100
AcDbLine
 10
119.68140562977896
 20
1741.4017030943155
 30
0.0
 11
119.47055580583219
 21
1741.8849760243386
 31
0.0
  0
LINE
  5
14D
330
17
100
AcDbEntity
  8
0
100
AcDbLine
 10
119.47055580583219
 20
1741.8849760243386
 30
0.0
 11
119.22418052947069
 21
1742.3511407981557
 31
0.0
  0
LINE
  5
14E
330
17
100
AcDbEntity
  8
0
100
AcDbLine
 10
119.22418052947069
 20
1742.3511407981557
 30
0.0
 11
118.94365763117617
 21
1742.7975904332584
 31
0.0
  0
LINE
  5
14F
330
17
100
AcDbEntity
  8
0
100
AcDbLine
 10
118.94365763117617
 20
1742.7975904332584
 30
0.0
 11
118.63055590878776
 21
1743.2218282021906
 31
0.0
  0
LINE
  5
150
330
17
100
AcDbEntity
  8
0
100
AcDbLine
 10
118.63055590878776
 20
1743.2218282021906
 30
0.0
 11
118.28662635414435
 21
1743.6214815952603
 31
0.0
  0
LINE
  5
151
330
17
100
AcDbEntity
  8
0
100
AcDbLine
 10
118.28662635414435
 20
1743.6214815952603
 30
0.0
 11
117.91379236082344
 21
1743.994315588581
 31
0.0
  0
LINE
  5
152
330
17
100
AcDbEntity
  8
0
100
AcDbLine
 10
117.91379236082344
 20
1743.994315588581
 30
0.0
 11
117.51413896775307
 21
1744.3382451432253
 31
0.0
  0
LINE
  5
153
330
17
100
AcDbEntity
  8
0
100
AcDbLine
 10
117.51413896775307
 20
1744.3382451432253
 30
0.0
 11
117.08990119882083
 21
1744.6513468656135
 31
0.0
  0
LINE
  5
154
330
17
100
AcDbEntity
  8
0
100
AcDbLine
 10
117.08990119882083
 20
1744.6513468656135
 30
0.0
 11
116.64345156371814
 21
1744.9318697639073
 31
0.0
  0
LINE
  5
155
330
17
100
AcDbEntity
  8
0
100
AcDbLine
 10
116.64345156371814
 20
1744.9318697639073
 30
0.0
 11
116.17728678990102
 21
1745.1782450402688
 31
0.0
  0
LINE
  5
156
330
17
100
AcDbEntity
  8
0
100
AcDbLine
 10
116.17728678990102
 20
1745.1782450402688
 30
0.0
 11
115.6940138598793
 21
1745.3890948642152
 31
0.0
  0
LINE
  5
157
330
17
100
AcDbEntity
  8
0
100
AcDbLine
 10
115.6940138598793
 20
1745.3890948642152
 30
0.0
 11
115.1963354319098
 21
1745.563240078001
 31
0.0
  0
LINE
  5
158
330
17
100
AcDbEntity
  8
0
100
AcDbLine
 10
115.1963354319098
 20
1745.563240078001
 30
0.0
 11
114.68703472563902
 21
1745.6997067909508
 31
0.0
  0
LINE
  5
159
330
17
100
AcDbEntity
  8
0
100
AcDbLine
 10
114.68703472563902
 20
1745.6997067909508
 30
0.0
 11
114.16895995720984
 21
1745.79773182585
 31
0.0
  0
LINE
  5
15A
330
17
100
AcDbEntity
  8
0
100
AcDbLine
 10
114.16895995720984
 20
1745.79773182585
 30
0.0
 11
113.64500841087647
 21
1745.8567669869394
 31
0.0
  0
LINE
  5
15B
330
17
100
AcDbEntity
  8
0
100
AcDbLine
 10
113.64500841087647
 20
1745.8567669869394
 30
0.0
 11
113.11811023621999
 21
1745.876482125655
 31
0.0
  0
LINE
  5
15C
330
17
100
AcDbEntity
  8
0
100
AcDbLine
 10
113.11811023621999
 20
1745.876482125655
 30
0.0
 11
112.59121206156397
 21
1745.8567669869394
 31
0.0
  0
LINE
  5
15D
330
17
100
AcDbEntity
  8
0
100
AcDbLine
 10
112.59121206156397
 20
1745.8567669869394
 30
0.0
 11
112.06726051522924
 21
1745.79773182585
 31
0.0
  0
LINE
  5
15E
330
17
100
AcDbEntity
  8
0
100
AcDbLine
 10
112.06726051522924
 20
1745.79773182585
 30
0.0
 11
111.54918574680005
 21
1745.6997067909508
 31
0.0
  0
LINE
  5
15F
330
17
100
AcDbEntity
  8
0
100
AcDbLine
 10
111.54918574680005
 20
1745.6997067909508
 30
0.0
 11
111.0398850405295
 21
1745.563240078001
 31
0.0
  0
LINE
  5
160
330
17
100
AcDbEntity
  8
0
100
AcDbLine
 10
111.0398850405295
 20
1745.563240078001
 30
0.0
 11
110.54220661256
 21
1745.3890948642152
 31
0.0
  0
LINE
  5
161
330
17
100
AcDbEntity
  8
0
100
AcDbLine
 10
110.54220661256
 20
1745.3890948642152
 30
0.0
 11
110.05893368253805
 21
1745.1782450402688
 31
0.0
  0
LINE
  5
162
330
17
100
AcDbEntity
  8
0
100
AcDbLine
 10
110.05893368253805
 20
1745.1782450402688
 30
0.0
 11
109.59276890872093
 21
1744.9318697639073
 31
0.0
  0
LINE
  5
163
330
17
100
AcDbEntity
  8
0
100
AcDbLine
 10
109.59276890872093
 20
1744.9318697639073
 30
0.0
 11
109.14631927361825
 21
1744.6513468656135
 31
0.0
  0
LINE
  5
164
330
17
100
AcDbEntity
  8
0
100
AcDbLine
 10
109.14631927361825
 20
1744.6513468656135
 30
0.0
 11
108.72208150468691
 21
1744.3382451432253
 31
0.0
  0
LINE
  5
165
330
17
100
AcDbEntity
  8
0
100
AcDbLine
 10
108.72208150468691
 20
1744.3382451432253
 30
0.0
 11
108.32242811161518
 21
1743.994315588581
 31
0.0
  0
LINE
  5
166
330
17
100
AcDbEntity
  8
0
100
AcDbLine
 10
108.32242811161518
 20
1743.994315588581
 30
0.0
 11
107.94959411829564
 21
1743.6214815952603
 31
0.0
  0
LINE
  5
167
330
17
100
AcDbEntity
  8
0
100
AcDbLine
 10
107.94959411829564
 20
1743.6214815952603
 30
0.0
 11
107.60566456365132
 21
1743.2218282021906
 31
0.0
  0
LINE
  5
168
330
17
100
AcDbEntity
  8
0
100
AcDbLine
 10
107.60566456365132
 20
1743.2218282021906
 30
0.0
 11
107.29256284126427
 21
1742.7975904332584
 31
0.0
  0
LINE
  5
169
330
17
100
AcDbEntity
  8
0
100
AcDbLine
 10
107.29256284126427
 20
1742.7975904332584
 30
0.0
 11
107.0120399429693
 21
1742.3511407981557
 31
0.0
  0
LINE
  5
16A
330
17
100
AcDbEntity
  8
0
100
AcDbLine
 10
107.0120399429693
 20
1742.3511407981557
 30
0.0
 11
106.76566466660665
 21
1741.8849760243386
 31
0.0
  0
LINE
  5
16B
330
17
100
AcDbEntity
  8
0
100
AcDbLine
 10
106.76566466660665
 20
1741.8849760243386
 30
0.0
 11
106.55481484266147
 21
1741.4017030943155
 31
0.0
  0
LINE
  5
16C
330
17
100
AcDbEntity
  8
0
100
AcDbLine
 10
106.55481484266147
 20
1741.4017030943155
 30
0.0
 11
106.3806696288757
 21
1740.904024666346
 31
0.0
  0
LINE
  5
16D
330
17
100
AcDbEntity
  8
0
100
AcDbLine
 10
106.3806696288757
 20
1740.904024666346
 30
0.0
 11
106.24420291592719
 21
1740.3947239600766
 31
0.0
  0
LINE
  5
16E
330
17
100
AcDbEntity
  8
0
100
AcDbLine
 10
106.24420291592719
 20
1740.3947239600766
 30
0.0
 11
106.14617788102692
 21
1739.8766491916474
 31
0.0
  0
LINE
  5
16F
330
17
100
AcDbEntity
  8
0
100
AcDbLine
 10
106.14617788102692
 20
1739.8766491916474
 30
0.0
 11
106.08714271993585
 21
1739.3526976453127
 31
0.0
  0
LINE
  5
170
330
17
100
AcDbEntity
  8
0
100
AcDbLine
 10
106.08714271993585
 20
1739.3526976453127
 30
0.0
 11
106.06742758122164
 21
1738.8257994706566
 31
0.0
  0
LINE
  5
171
330
17
100
AcDbEntity
  8
0
100
AcDbLine
 10
106.06742758122164
 20
1738.8257994706566
 30
0.0
 11
106.08714271993585
 21
1738.2989012960002
 31
0.0
  0
LINE
  5
172
330
17
100
AcDbEntity
  8
0
100
AcDbLine
 10
106.08714271993585
 20
1738.2989012960002
 30
0.0
 11
106.14617788102692
 21
1737.7749497496666
 31
0.0
  0
LINE
  5
173
330
17
100
AcDbEntity
  8
0
100
AcDbLine
 10
106.14617788102692
 20
1737.7749497496666
 30
0.0
 11
106.24420291592719
 21
1737.2568749812376
 31
0.0
  0
LINE
  5
174
330
17
100
AcDbEntity
  8
0
100
AcDbLine
 10
106.24420291592719
 20
1737.2568749812376
 30
0.0
 11
106.3806696288757
 21
1736.747574274967
 31
0.0
  0
LINE
  5
175
330
17
100
AcDbEntity
  8
0
100
AcDbLine
 10
106.3806696288757
 20
1736.747574274967
 30
0.0
 11
106.55481484266147
 21
1736.2498958469987
 31
0.0
  0
LINE
  5
176
330
17
100
AcDbEntity
  8
0
100
AcDbLine
 10
106.55481484266147
 20
1736.2498958469987
 30
0.0
 11
106.76566466660665
 21
1735.7666229169743
 31
0.0
  0
LINE
  5
177
330
17
100
AcDbEntity
  8
0
100
AcDbLine
 10
106.76566466660665
 20
1735.7666229169743
 30
0.0
 11
107.0120399429693
 21
1735.3004581431574
 31
0.0
  0
LINE
  5
178
330
17
100
AcDbEntity
  8
0
100
AcDbLine
 10
107.0120399429693
 20
1735.3004581431574
 30
0.0
 11
107.29256284126427
 21
1734.8540085080544
 31
0.0
  0
LINE
  5
179
330
17
100
AcDbEntity
  8
0
100
AcDbLine
 10
107.29256284126427
 20
1734.8540085080544
 30
0.0
 11
107.60566456365132
 21
1734.4297707391236
 31
0.0
  0
LINE
  5
17A
330
17
100
AcDbEntity
  8
0
100
AcDbLine
 10
107.60566456365132
 20
1734.4297707391236
 30
0.0
 11
107.94959411829564
 21
1734.0301173460532
 31
0.0
  0
LINE
  5
17B
330
17
100
AcDbEntity
  8
0
100
AcDbLine
 10
107.94959411829564
 20
1734.0301173460532
 30
0.0
 11
108.32242811161518
 21
1733.6572833527323
 31
0.0
  0
LINE
  5
17C
330
17
100
AcDbEntity
  8
0
100
AcDbLine
 10
108.32242811161518
 20
1733.6572833527323
 30
0.0
 11
108.72208150468691
 21
1733.3133537980877
 31
0.0
  0
LINE
  5
17D
330
17
100
AcDbEntity
  8
0
100
AcDbLine
 10
108.72208150468691
 20
1733.3133537980877
 30
0.0
 11
109.14631927361825
 21
1733.0002520757018
 31
0.0
  0
LINE
  5
17E
330
17
100
AcDbEntity
  8
0
100
AcDbLine
 10
109.14631927361825
 20
1733.0002520757018
 30
0.0
 11
109.59276890872093
 21
1732.7197291774069
 31
0.0
  0
LINE
  5
17F
330
17
100
AcDbEntity
  8
0
100
AcDbLine
 10
109.59276890872093
 20
1732.7197291774069
 30
0.0
 11
110.05893368253805
 21
1732.473353901044
 31
0.0
  0
LINE
  5
180
330
17
100
AcDbEntity
  8
0
100
AcDbLine
 10
110.05893368253805
 20
1732.473353901044
 30
0.0
 11
110.54220661256
 21
1732.262504077099
 31
0.0
  0
LINE
  5
181
330
17
100
AcDbEntity
  8
0
100
AcDbLine
 10
110.54220661256
 20
1732.262504077099
 30
0.0
 11
111.0398850405295
 21
1732.0883588633133
 31
0.0
  0
LINE
  5
182
330
17
100
AcDbEntity
  8
0
100
AcDbLine
 10
111.0398850405295
 20
1732.0883588633133
 30
0.0
 11
111.54918574680005
 21
1731.9518921503627
 31
0.0
  0
LINE
  5
183
330
17
100
AcDbEntity
  8
0
100
AcDbLine
 10
111.54918574680005
 20
1731.9518921503627
 30
0.0
 11
112.06726051522924
 21
1731.8538671154643
 31
0.0
  0
LINE
  5
184
330
17
100
AcDbEntity
  8
0
100
AcDbLine
 10
112.06726051522924
 20
1731.8538671154643
 30
0.0
 11
112.59121206156397
 21
1731.7948319543748
 31
0.0
  0
LINE
  5
185
330
17
100
AcDbEntity
  8
0
100
AcDbLine
 10
112.59121206156397
 20
1731.7948319543748
 30
0.0
 11
113.11811023621999
 21
1731.7751168156592
 31
0.0
  0
LINE
  5
186
330
17
100
AcDbEntity
  8
0
100
AcDbLine
 10
113.11811023621999
 20
1731.7751168156592
 30
0.0
 11
113.64500841087647
 21
1731.7948319543748
 31
0.0
  0
LINE
  5
187
330
17
100
AcDbEntity
  8
0
100
AcDbLine
 10
113.64500841087647
 20
1731.7948319543748
 30
0.0
 11
114.16895995720984
 21
1731.8538671154643
 31
0.0
  0
LINE
  5
188
330
17
100
AcDbEntity
  8
0
100
AcDbLine
 10
114.16895995720984
 20
1731.8538671154643
 30
0.0
 11
114.68703472563902
 21
1731.9518921503627
 31
0.0
  0
LINE
  5
189
330
17
100
AcDbEntity
  8
0
100
AcDbLine
 10
114.68703472563902
 20
1731.9518921503627
 30
0.0
 11
115.1963354319098
 21
1732.0883588633133
 31
0.0
  0
LINE
  5
18A
330
17
100
AcDbEntity
  8
0
100
AcDbLine
 10
115.1963354319098
 20
1732.0883588633133
 30
0.0
 11
115.6940138598793
 21
1732.262504077099
 31
0.0
  0
LINE
  5
18B
330
17
100
AcDbEntity
  8
0
100
AcDbLine
 10
115.6940138598793
 20
1732.262504077099
 30
0.0
 11
116.17728678990102
 21
1732.473353901044
 31
0.0
  0
LINE
  5
18C
330
17
100
AcDbEntity
  8
0
100
AcDbLine
 10
116.17728678990102
 20
1732.473353901044
 30
0.0
 11
116.64345156371814
 21
1732.7197291774069
 31
0.0
  0
LINE
  5
18D
330
17
100
AcDbEntity
  8
0
100
AcDbLine
 10
116.64345156371814
 20
1732.7197291774069
 30
0.0
 11
117.08990119882083
 21
1733.0002520757018
 31
0.0
  0
LINE
  5
18E
330
17
100
AcDbEntity
  8
0
100
AcDbLine
 10
117.08990119882083
 20
1733.0002520757018
 30
0.0
 11
117.51413896775307
 21
1733.3133537980877
 31
0.0
  0
LINE
  5
18F
330
17
100
AcDbEntity
  8
0
100
AcDbLine
 10
117.51413896775307
 20
1733.3133537980877
 30
0.0
 11
117.91379236082344
 21
1733.6572833527323
 31
0.0
  0
LINE
  5
190
330
17
100
AcDbEntity
  8
0
100
AcDbLine
 10
117.91379236082344
 20
1733.6572833527323
 30
0.0
 11
118.28662635414435
 21
1734.0301173460532
 31
0.0
  0
LINE
  5
191
330
17
100
AcDbEntity
  8
0
100
AcDbLine
 10
118.28662635414435
 20
1734.0301173460532
 30
0.0
 11
118.63055590878776
 21
1734.4297707391236
 31
0.0
  0
LINE
  5
192
330
17
100
AcDbEntity
  8
0
100
AcDbLine
 10
118.63055590878776
 20
1734.4297707391236
 30
0.0
 11
118.94365763117617
 21
1734.8540085080544
 31
0.0
  0
LINE
  5
193
330
17
100
AcDbEntity
  8
0
100
AcDbLine
 10
118.94365763117617
 20
1734.8540085080544
 30
0.0
 11
119.22418052947069
 21
1735.3004581431574
 31
0.0
  0
LINE
  5
194
330
17
100
AcDbEntity
  8
0
100
AcDbLine
 10
119.22418052947069
 20
1735.3004581431574
 30
0.0
 11
119.47055580583219
 21
1735.7666229169743
 31
0.0
  0
LINE
  5
195
330
17
100
AcDbEntity
  8
0
100
AcDbLine
 10
119.47055580583219
 20
1735.7666229169743
 30
0.0
 11
119.68140562977896
 21
1736.2498958469987
 31
0.0
  0
LINE
  5
196
330
17
100
AcDbEntity
  8
0
100
AcDbLine
 10
119.68140562977896
 20
1736.2498958469987
 30
0.0
 11
119.85555084356338
 21
1736.747574274967
 31
0.0
  0
LINE
  5
197
330
17
100
AcDbEntity
  8
0
100
AcDbLine
 10
119.85555084356338
 20
1736.747574274967
 30
0.0
 11
119.99201755651325
 21
1737.2568749812376
 31
0.0
  0
LINE
  5
198
330
17
100
AcDbEntity
  8
0
100
AcDbLine
 10
119.99201755651325
 20
1737.2568749812376
 30
0.0
 11
120.09004259141238
 21
1737.7749497496666
 31
0.0
  0
LINE
  5
199
330
17
100
AcDbEntity
  8
0
100
AcDbLine
 10
120.09004259141238
 20
1737.7749497496666
 30
0.0
 11
120.14907775250322
 21
1738.2989012960002
 31
0.0
  0
LINE
  5
19A
330
17
100
AcDbEntity
  8
0
100
AcDbLine
 10
120.14907775250322
 20
1738.2989012960002
 30
0.0
 11
120.16879289121744
 21
1738.8257994706566
 31
0.0
  0
LINE
  5
19B
330
17
100
AcDbEntity
  8
0
100
AcDbLine
 10
1148.90895037153
 20
762.0541459273484
 30
0.0
 11
1148.8892352328157
 21
762.5810441020044
 31
0.0
  0
LINE
  5
19C
330
17
100
AcDbEntity
  8
0
100
AcDbLine
 10
1148.8892352328157
 20
762.5810441020044
 30
0.0
 11
1148.830200071725
 21
763.104995648338
 31
0.0
  0
LINE
  5
19D
330
17
100
AcDbEntity
  8
0
100
AcDbLine
 10
1148.830200071725
 20
763.104995648338
 30
0.0
 11
1148.7321750368264
 21
763.6230704167683
 31
0.0
  0
LINE
  5
19E
330
17
100
AcDbEntity
  8
0
100
AcDbLine
 10
1148.7321750368264
 20
763.6230704167683
 30
0.0
 11
1148.5957083238773
 21
764.1323711230389
 31
0.0
  0
LINE
  5
19F
330
17
100
AcDbEntity
  8
0
100
AcDbLine
 10
1148.5957083238773
 20
764.1323711230389
 30
0.0
 11
1148.421563110091
 21
764.6300495510072
 31
0.0
  0
LINE
  5
1A0
330
17
100
AcDbEntity
  8
0
100
AcDbLine
 10
1148.421563110091
 20
764.6300495510072
 30
0.0
 11
1148.2107132861447
 21
765.1133224810303
 31
0.0
  0
LINE
  5
1A1
330
17
100
AcDbEntity
  8
0
100
AcDbLine
 10
1148.2107132861447
 20
765.1133224810303
 30
0.0
 11
1147.9643380097823
 21
765.5794872548472
 31
0.0
  0
LINE
  5
1A2
330
17
100
AcDbEntity
  8
0
100
AcDbLine
 10
1147.9643380097823
 20
765.5794872548472
 30
0.0
 11
1147.6838151114885
 21
766.0259368899501
 31
0.0
  0
LINE
  5
1A3
330
17
100
AcDbEntity
  8
0
100
AcDbLine
 10
1147.6838151114885
 20
766.0259368899501
 30
0.0
 11
1147.3707133891016
 21
766.4501746588815
 31
0.0
  0
LINE
  5
1A4
330
17
100
AcDbEntity
  8
0
100
AcDbLine
 10
1147.3707133891016
 20
766.4501746588815
 30
0.0
 11
1147.026783834457
 21
766.8498280519527
 31
0.0
  0
LINE
  5
1A5
330
17
100
AcDbEntity
  8
0
100
AcDbLine
 10
1147.026783834457
 20
766.8498280519527
 30
0.0
 11
1146.6539498411362
 21
767.2226620452727
 31
0.0
  0
LINE
  5
1A6
330
17
100
AcDbEntity
  8
0
100
AcDbLine
 10
1146.6539498411362
 20
767.2226620452727
 30
0.0
 11
1146.2542964480658
 21
767.566591599917
 31
0.0
  0
LINE
  5
1A7
330
17
100
AcDbEntity
  8
0
100
AcDbLine
 10
1146.2542964480658
 20
767.566591599917
 30
0.0
 11
1145.8300586791333
 21
767.8796933223052
 31
0.0
  0
LINE
  5
1A8
330
17
100
AcDbEntity
  8
0
100
AcDbLine
 10
1145.8300586791333
 20
767.8796933223052
 30
0.0
 11
1145.3836090440318
 21
768.1602162205979
 31
0.0
  0
LINE
  5
1A9
330
17
100
AcDbEntity
  8
0
100
AcDbLine
 10
1145.3836090440318
 20
768.1602162205979
 30
0.0
 11
1144.9174442702151
 21
768.4065914969606
 31
0.0
  0
LINE
  5
1AA
330
17
100
AcDbEntity
  8
0
100
AcDbLine
 10
1144.9174442702151
 20
768.4065914969606
 30
0.0
 11
1144.4341713401918
 21
768.6174413209069
 31
0.0
  0
LINE
  5
1AB
330
17
100
AcDbEntity
  8
0
100
AcDbLine
 10
1144.4341713401918
 20
768.6174413209069
 30
0.0
 11
1143.9364929122216
 21
768.7915865346927
 31
0.0
  0
LINE
  5
1AC
330
17
100
AcDbEntity
  8
0
100
AcDbLine
 10
1143.9364929122216
 20
768.7915865346927
 30
0.0
 11
1143.427192205953
 21
768.9280532476425
 31
0.0
  0
LINE
  5
1AD
330
17
100
AcDbEntity
  8
0
100
AcDbLine
 10
1143.427192205953
 20
768.9280532476425
 30
0.0
 11
1142.9091174375226
 21
769.0260782825414
 31
0.0
  0
LINE
  5
1AE
330
17
100
AcDbEntity
  8
0
100
AcDbLine
 10
1142.9091174375226
 20
769.0260782825414
 30
0.0
 11
1142.385165891189
 21
769.0851134436325
 31
0.0
  0
LINE
  5
1AF
330
17
100
AcDbEntity
  8
0
100
AcDbLine
 10
1142.385165891189
 20
769.0851134436325
 30
0.0
 11
1141.8582677165327
 21
769.1048285823467
 31
0.0
  0
LINE
  5
1B0
330
17
100
AcDbEntity
  8
0
100
AcDbLine
 10
1141.8582677165327
 20
769.1048285823467
 30
0.0
 11
1141.3313695418765
 21
769.0851134436325
 31
0.0
  0
LINE
  5
1B1
330
17
100
AcDbEntity
  8
0
100
AcDbLine
 10
1141.3313695418765
 20
769.0851134436325
 30
0.0
 11
1140.807417995543
 21
769.0260782825414
 31
0.0
  0
LINE
  5
1B2
330
17
100
AcDbEntity
  8
0
100
AcDbLine
 10
1140.807417995543
 20
769.0260782825414
 30
0.0
 11
1140.2893432271126
 21
768.9280532476425
 31
0.0
  0
LINE
  5
1B3
330
17
100
AcDbEntity
  8
0
100
AcDbLine
 10
1140.2893432271126
 20
768.9280532476425
 30
0.0
 11
1139.780042520842
 21
768.7915865346927
 31
0.0
  0
LINE
  5
1B4
330
17
100
AcDbEntity
  8
0
100
AcDbLine
 10
1139.780042520842
 20
768.7915865346927
 30
0.0
 11
1139.2823640928736
 21
768.6174413209069
 31
0.0
  0
LINE
  5
1B5
330
17
100
AcDbEntity
  8
0
100
AcDbLine
 10
1139.2823640928736
 20
768.6174413209069
 30
0.0
 11
1138.7990911628503
 21
768.4065914969606
 31
0.0
  0
LINE
  5
1B6
330
17
100
AcDbEntity
  8
0
100
AcDbLine
 10
1138.7990911628503
 20
768.4065914969606
 30
0.0
 11
1138.3329263890337
 21
768.1602162205979
 31
0.0
  0
LINE
  5
1B7
330
17
100
AcDbEntity
  8
0
100
AcDbLine
 10
1138.3329263890337
 20
768.1602162205979
 30
0.0
 11
1137.8864767539308
 21
767.8796933223052
 31
0.0
  0
LINE
  5
1B8
330
17
100
AcDbEntity
  8
0
100
AcDbLine
 10
1137.8864767539308
 20
767.8796933223052
 30
0.0
 11
1137.4622389849997
 21
767.566591599917
 31
0.0
  0
LINE
  5
1B9
330
17
100
AcDbEntity
  8
0
100
AcDbLine
 10
1137.4622389849997
 20
767.566591599917
 30
0.0
 11
1137.0625855919288
 21
767.2226620452727
 31
0.0
  0
LINE
  5
1BA
330
17
100
AcDbEntity
  8
0
100
AcDbLine
 10
1137.0625855919288
 20
767.2226620452727
 30
0.0
 11
1136.6897515986084
 21
766.8498280519527
 31
0.0
  0
LINE
  5
1BB
330
17
100
AcDbEntity
  8
0
100
AcDbLine
 10
1136.6897515986084
 20
766.8498280519527
 30
0.0
 11
1136.3458220439634
 21
766.4501746588815
 31
0.0
  0
LINE
  5
1BC
330
17
100
AcDbEntity
  8
0
100
AcDbLine
 10
1136.3458220439634
 20
766.4501746588815
 30
0.0
 11
1136.032720321577
 21
766.0259368899501
 31
0.0
  0
LINE
  5
1BD
330
17
100
AcDbEntity
  8
0
100
AcDbLine
 10
1136.032720321577
 20
766.0259368899501
 30
0.0
 11
1135.7521974232818
 21
765.5794872548472
 31
0.0
  0
LINE
  5
1BE
330
17
100
AcDbEntity
  8
0
100
AcDbLine
 10
1135.7521974232818
 20
765.5794872548472
 30
0.0
 11
1135.5058221469203
 21
765.1133224810303
 31
0.0
  0
LINE
  5
1BF
330
17
100
AcDbEntity
  8
0
100
AcDbLine
 10
1135.5058221469203
 20
765.1133224810303
 30
0.0
 11
1135.2949723229754
 21
764.6300495510072
 31
0.0
  0
LINE
  5
1C0
330
17
100
AcDbEntity
  8
0
100
AcDbLine
 10
1135.2949723229754
 20
764.6300495510072
 30
0.0
 11
1135.1208271091891
 21
764.1323711230389
 31
0.0
  0
LINE
  5
1C1
330
17
100
AcDbEntity
  8
0
100
AcDbLine
 10
1135.1208271091891
 20
764.1323711230389
 30
0.0
 11
1134.98436039624
 21
763.6230704167683
 31
0.0
  0
LINE
  5
1C2
330
17
100
AcDbEntity
  8
0
100
AcDbLine
 10
1134.98436039624
 20
763.6230704167683
 30
0.0
 11
1134.8863353613406
 21
763.104995648338
 31
0.0
  0
LINE
  5
1C3
330
17
100
AcDbEntity
  8
0
100
AcDbLine
 10
1134.8863353613406
 20
763.104995648338
 30
0.0
 11
1134.8273002002497
 21
762.5810441020044
 31
0.0
  0
LINE
  5
1C4
330
17
100
AcDbEntity
  8
0
100
AcDbLine
 10
1134.8273002002497
 20
762.5810441020044
 30
0.0
 11
1134.8075850615342
 21
762.0541459273484
 31
0.0
  0
LINE
  5
1C5
330
17
100
AcDbEntity
  8
0
100
AcDbLine
 10
1134.8075850615342
 20
762.0541459273484
 30
0.0
 11
1134.8273002002497
 21
761.5272477526933
 31
0.0
  0
LINE
  5
1C6
330
17
100
AcDbEntity
  8
0
100
AcDbLine
 10
1134.8273002002497
 20
761.5272477526933
 30
0.0
 11
1134.8863353613406
 21
761.0032962063583
 31
0.0
  0
LINE
  5
1C7
330
17
100
AcDbEntity
  8
0
100
AcDbLine
 10
1134.8863353613406
 20
761.0032962063583
 30
0.0
 11
1134.98436039624
 21
760.485221437928
 31
0.0
  0
LINE
  5
1C8
330
17
100
AcDbEntity
  8
0
100
AcDbLine
 10
1134.98436039624
 20
760.485221437928
 30
0.0
 11
1135.1208271091891
 21
759.9759207316586
 31
0.0
  0
LINE
  5
1C9
330
17
100
AcDbEntity
  8
0
100
AcDbLine
 10
1135.1208271091891
 20
759.9759207316586
 30
0.0
 11
1135.2949723229754
 21
759.4782423036891
 31
0.0
  0
LINE
  5
1CA
330
17
100
AcDbEntity
  8
0
100
AcDbLine
 10
1135.2949723229754
 20
759.4782423036891
 30
0.0
 11
1135.5058221469203
 21
758.9949693736671
 31
0.0
  0
LINE
  5
1CB
330
17
100
AcDbEntity
  8
0
100
AcDbLine
 10
1135.5058221469203
 20
758.9949693736671
 30
0.0
 11
1135.7521974232818
 21
758.5288045998491
 31
0.0
  0
LINE
  5
1CC
330
17
100
AcDbEntity
  8
0
100
AcDbLine
 10
1135.7521974232818
 20
758.5288045998491
 30
0.0
 11
1136.032720321577
 21
758.0823549647475
 31
0.0
  0
LINE
  5
1CD
330
17
100
AcDbEntity
  8
0
100
AcDbLine
 10
1136.032720321577
 20
758.0823549647475
 30
0.0
 11
1136.3458220439634
 21
757.6581171958153
 31
0.0
  0
LINE
  5
1CE
330
17
100
AcDbEntity
  8
0
100
AcDbLine
 10
1136.3458220439634
 20
757.6581171958153
 30
0.0
 11
1136.6897515986084
 21
757.2584638027449
 31
0.0
  0
LINE
  5
1CF
330
17
100
AcDbEntity
  8
0
100
AcDbLine
 10
1136.6897515986084
 20
757.2584638027449
 30
0.0
 11
1137.0625855919288
 21
756.885629809424
 31
0.0
  0
LINE
  5
1D0
330
17
100
AcDbEntity
  8
0
100
AcDbLine
 10
1137.0625855919288
 20
756.885629809424
 30
0.0
 11
1137.4622389849997
 21
756.5417002547792
 31
0.0
  0
LINE
  5
1D1
330
17
100
AcDbEntity
  8
0
100
AcDbLine
 10
1137.4622389849997
 20
756.5417002547792
 30
0.0
 11
1137.8864767539308
 21
756.2285985323922
 31
0.0
  0
LINE
  5
1D2
330
17
100
AcDbEntity
  8
0
100
AcDbLine
 10
1137.8864767539308
 20
756.2285985323922
 30
0.0
 11
1138.3329263890337
 21
755.9480756340984
 31
0.0
  0
LINE
  5
1D3
330
17
100
AcDbEntity
  8
0
100
AcDbLine
 10
1138.3329263890337
 20
755.9480756340984
 30
0.0
 11
1138.7990911628503
 21
755.7017003577357
 31
0.0
  0
LINE
  5
1D4
330
17
100
AcDbEntity
  8
0
100
AcDbLine
 10
1138.7990911628503
 20
755.7017003577357
 30
0.0
 11
1139.2823640928736
 21
755.4908505337905
 31
0.0
  0
LINE
  5
1D5
330
17
100
AcDbEntity
  8
0
100
AcDbLine
 10
1139.2823640928736
 20
755.4908505337905
 30
0.0
 11
1139.780042520842
 21
755.316705320005
 31
0.0
  0
LINE
  5
1D6
330
17
100
AcDbEntity
  8
0
100
AcDbLine
 10
1139.780042520842
 20
755.316705320005
 30
0.0
 11
1140.2893432271126
 21
755.1802386070542
 31
0.0
  0
LINE
  5
1D7
330
17
100
AcDbEntity
  8
0
100
AcDbLine
 10
1140.2893432271126
 20
755.1802386070542
 30
0.0
 11
1140.807417995543
 21
755.082213572156
 31
0.0
  0
LINE
  5
1D8
330
17
100
AcDbEntity
  8
0
100
AcDbLine
 10
1140.807417995543
 20
755.082213572156
 30
0.0
 11
1141.3313695418765
 21
755.0231784110638
 31
0.0
  0
LINE
  5
1D9
330
17
100
AcDbEntity
  8
0
100
AcDbLine
 10
1141.3313695418765
 20
755.0231784110638
 30
0.0
 11
1141.8582677165327
 21
755.0034632723509
 31
0.0
  0
LINE
  5
1DA
330
17
100
AcDbEntity
  8
0
100
AcDbLine
 10
1141.8582677165327
 20
755.0034632723509
 30
0.0
 11
1142.385165891189
 21
755.0231784110638
 31
0.0
  0
LINE
  5
1DB
330
17
100
AcDbEntity
  8
0
100
AcDbLine
 10
1142.385165891189
 20
755.0231784110638
 30
0.0
 11
1142.9091174375226
 21
755.082213572156
 31
0.0
  0
LINE
  5
1DC
330
17
100
AcDbEntity
  8
0
100
AcDbLine
 10
1142.9091174375226
 20
755.082213572156
 30
0.0
 11
1143.427192205953
 21
755.1802386070542
 31
0.0
  0
LINE
  5
1DD
330
17
100
AcDbEntity
  8
0
100
AcDbLine
 10
1143.427192205953
 20
755.1802386070542
 30
0.0
 11
1143.9364929122216
 21
755.316705320005
 31
0.0
  0
LINE
  5
1DE
330
17
100
AcDbEntity
  8
0
100
AcDbLine
 10
1143.9364929122216
 20
755.316705320005
 30
0.0
 11
1144.4341713401918
 21
755.4908505337905
 31
0.0
  0
LINE
  5
1DF
330
17
100
AcDbEntity
  8
0
100
AcDbLine
 10
1144.4341713401918
 20
755.4908505337905
 30
0.0
 11
1144.9174442702151
 21
755.7017003577357
 31
0.0
  0
LINE
  5
1E0
330
17
100
AcDbEntity
  8
0
100
AcDbLine
 10
1144.9174442702151
 20
755.7017003577357
 30
0.0
 11
1145.3836090440318
 21
755.9480756340984
 31
0.0
  0
LINE
  5
1E1
330
17
100
AcDbEntity
  8
0
100
AcDbLine
 10
1145.3836090440318
 20
755.9480756340984
 30
0.0
 11
1145.8300586791333
 21
756.2285985323922
 31
0.0
  0
LINE
  5
1E2
330
17
100
AcDbEntity
  8
0
100
AcDbLine
 10
1145.8300586791333
 20
756.2285985323922
 30
0.0
 11
1146.2542964480658
 21
756.5417002547792
 31
0.0
  0
LINE
  5
1E3
330
17
100
AcDbEntity
  8
0
100
AcDbLine
 10
1146.2542964480658
 20
756.5417002547792
 30
0.0
 11
1146.6539498411362
 21
756.885629809424
 31
0.0
  0
LINE
  5
1E4
330
17
100
AcDbEntity
  8
0
100
AcDbLine
 10
1146.6539498411362
 20
756.885629809424
 30
0.0
 11
1147.026783834457
 21
757.2584638027449
 31
0.0
  0
LINE
  5
1E5
330
17
100
AcDbEntity
  8
0
100
AcDbLine
 10
1147.026783834457
 20
757.2584638027449
 30
0.0
 11
1147.3707133891016
 21
757.6581171958153
 31
0.0
  0
LINE
  5
1E6
330
17
100
AcDbEntity
  8
0
100
AcDbLine
 10
1147.3707133891016
 20
757.6581171958153
 30
0.0
 11
1147.6838151114885
 21
758.0823549647475
 31
0.0
  0
LINE
  5
1E7
330
17
100
AcDbEntity
  8
0
100
AcDbLine
 10
1147.6838151114885
 20
758.0823549647475
 30
0.0
 11
1147.9643380097823
 21
758.5288045998491
 31
0.0
  0
LINE
  5
1E8
330
17
100
AcDbEntity
  8
0
100
AcDbLine
 10
1147.9643380097823
 20
758.5288045998491
 30
0.0
 11
1148.2107132861447
 21
758.9949693736671
 31
0.0
  0
LINE
  5
1E9
330
17
100
AcDbEntity
  8
0
100
AcDbLine
 10
1148.2107132861447
 20
758.9949693736671
 30
0.0
 11
1148.421563110091
 21
759.4782423036891
 31
0.0
  0
LINE
  5
1EA
330
17
100
AcDbEntity
  8
0
100
AcDbLine
 10
1148.421563110091
 20
759.4782423036891
 30
0.0
 11
1148.5957083238773
 21
759.9759207316586
 31
0.0
  0
LINE
  5
1EB
330
17
100
AcDbEntity
  8
0
100
AcDbLine
 10
1148.5957083238773
 20
759.9759207316586
 30
0.0
 11
1148.7321750368264
 21
760.485221437928
 31
0.0
  0
LINE
  5
1EC
330
17
100
AcDbEntity
  8
0
100
AcDbLine
 10
1148.7321750368264
 20
760.485221437928
 30
0.0
 11
1148.830200071725
 21
761.0032962063583
 31
0.0
  0
LINE
  5
1ED
330
17
100
AcDbEntity
  8
0
100
AcDbLine
 10
1148.830200071725
 20
761.0032962063583
 30
0.0
 11
1148.8892352328157
 21
761.5272477526933
 31
0.0
  0
LINE
  5
1EE
330
17
100
AcDbEntity
  8
0
100
AcDbLine
 10
1148.8892352328157
 20
761.5272477526933
 30
0.0
 11
1148.90895037153
 21
762.0541459273484
 31
0.0
  0
ENDSEC
  0
SECTION
  2
OBJECTS
  0
DICTIONARY
  5
A
330
0
100
AcDbDictionary
281
1
  3
ACAD_COLOR
350
B
  3
ACAD_GROUP
350
C
  3
ACAD_LAYOUT
350
D
  3
ACAD_MATERIAL
350
E
  3
ACAD_MLEADERSTYLE
350
F
  3
ACAD_MLINESTYLE
350
10
  3
ACAD_PLOTSETTINGS
350
11
  3
ACAD_PLOTSTYLENAME
350
12
  3
ACAD_SCALELIST
350
14
  3
ACAD_TABLESTYLE
350
15
  3
ACAD_VISUALSTYLE
350
16
  3
EZDXF_META
350
2D
  0
DICTIONARY
  5
B
330
A
100
AcDbDictionary
281
1
  0
DICTIONARY
  5
C
330
A
100
AcDbDictionary
281
1
  0
DICTIONARY
  5
D
330
A
100
AcDbDictionary
281
1
  3
Model
350
1A
  3
Layout1
350
1E
  0
DICTIONARY
  5
E
330
A
100
AcDbDictionary
281
1
  3
ByBlock
350
1F
  3
ByLayer
350
20
  3
Global
350
21
  0
DICTIONARY
  5
F
330
A
100
AcDbDictionary
281
1
  3
Standard
350
2C
  0
DICTIONARY
  5
10
330
A
100
AcDbDictionary
281
1
  3
Standard
350
22
  0
DICTIONARY
  5
11
330
A
100
AcDbDictionary
281
1
  0
ACDBDICTIONARYWDFLT
  5
12
330
A
100
AcDbDictionary
281
1
  3
Normal
350
13
100
AcDbDictionaryWithDefault
340
13
  0
ACDBPLACEHOLDER
  5
13
330
12
  0
DICTIONARY
  5
14
330
A
100
AcDbDictionary
281
1
  0
DICTIONARY
  5
15
330
A
100
AcDbDictionary
281
1
  0
DICTIONARY
  5
16
330
A
100
AcDbDictionary
281
1
  0
LAYOUT
  5
1A
330
D
100
AcDbPlotSettings
  1

  4
A3
  6

 40
7.5
 41
20.0
 42
7.5
 43
20.0
 44
420.0
 45
297.0
 46
0.0
 47
0.0
 48
0.0
 49
0.0
140
0.0
141
0.0
142
1.0
143
1.0
 70
1024
 72
1
 73
0
 74
5
  7

 75
16
 76
0
 77
2
 78
300
147
1.0
148
0.0
149
0.0
100
AcDbLayout
  1
Model
 70
1
 71
0
 10
0.0
 20
0.0
 11
420.0
 21
297.0
 12
0.0
 22
0.0
 32
0.0
 14
1e+20
 24
1e+20
 34
1e+20
 15
-1e+20
 25
-1e+20
 35
-1e+20
146
0.0
 13
0.0
 23
0.0
 33
0.0
 16
1.0
 26
0.0
 36
0.0
 17
0.0
 27
1.0
 37
0.0
 76
1
330
17
  0
LAYOUT
  5
1E
330
D
100
AcDbPlotSettings
  1

  4
A3
  6

 40
7.5
 41
20.0
 42
7.5
 43
20.0
 44
420.0
 45
297.0
 46
0.0
 47
0.0
 48
0.0
 49
0.0
140
0.0
141
0.0
142
1.0
143
1.0
 70
0
 72
1
 73
0
 74
5
  7

 75
16
 76
0
 77
2
 78
300
147
1.0
148
0.0
149
0.0
100
AcDbLayout
  1
Layout1
 70
1
 71
1
 10
0.0
 20
0.0
 11
420.0
 21
297.0
 12
0.0
 22
0.0
 32
0.0
 14
1e+20
 24
1e+20
 34
1e+20
 15
-1e+20
 25
-1e+20
 35
-1e+20
146
0.0
 13
0.0
 23
0.0
 33
0.0
 16
1.0
 26
0.0
 36
0.0
 17
0.0
 27
1.0
 37
0.0
 76
1
330
1B
  0
MATERIAL
  5
1F
102
{ACAD_REACTORS
330
E
102
}
330
E
100
AcDbMaterial
  1
ByBlock
  2

 70
0
 40
1.0
 71
1
 41
1.0
 91
-1023410177
 42
1.0
 72
1
  3

 73
1
 74
1
 75
1
 44
0.5
 73
0
 45
1.0
 46
1.0
 77
1
  4

 78
1
 79
1
170
1
 48
1.0
171
1
  6

172
1
173
1
174
1
140
1.0
141
1.0
175
1
  7

176
1
177
1
178
1
143
1.0
179
1
  8

270
1
271
1
272
1
145
1.0
146
1.0
273
1
  9

274
1
275
1
276
1
 42
1.0
 72
1
  3

 73
1
 74
1
 75
1
 94
63
  0
MATERIAL
  5
20
102
{ACAD_REACTORS
330
E
102
}
330
E
100
AcDbMaterial
  1
ByLayer
  2

 70
0
 40
1.0
 71
1
 41
1.0
 91
-1023410177
 42
1.0
 72
1
  3

 73
1
 74
1
 75
1
 44
0.5
 73
0
 45
1.0
 46
1.0
 77
1
  4

 78
1
 79
1
170
1
 48
1.0
171
1
  6

172
1
173
1
174
1
140
1.0
141
1.0
175
1
  7

176
1
177
1
178
1
143
1.0
179
1
  8

270
1
271
1
272
1
145
1.0
146
1.0
273
1
  9

274
1
275
1
276
1
 42
1.0
 72
1
  3

 73
1
 74
1
 75
1
 94
63
  0
MATERIAL
  5
21
102
{ACAD_REACTORS
330
E
102
}
330
E
100
AcDbMaterial
  1
Global
  2

 70
0
 40
1.0
 71
1
 41
1.0
 91
-1023410177
 42
1.0
 72
1
  3

 73
1
 74
1
 75
1
 44
0.5
 73
0
 45
1.0
 46
1.0
 77
1
  4

 78
1
 79
1
170
1
 48
1.0
171
1
  6

172
1
173
1
174
1
140
1.0
141
1.0
175
1
  7

176
1
177
1
178
1
143
1.0
179
1
  8

270
1
271
1
272
1
145
1.0
146
1.0
273
1
  9

274
1
275
1
276
1
 42
1.0
 72
1
  3

 73
1
 74
1
 75
1
 94
63
  0
MLINESTYLE
  5
22
102
{ACAD_REACTORS
330
10
102
}
330
10
100
AcDbMlineStyle
  2
Standard
 70
0
  3

 62
256
 51
90.0
 52
90.0
 71
2
 49
0.5
 62
256
  6
BYLAYER
 49
-0.5
 62
256
  6
BYLAYER
  0
MLEADERSTYLE
  5
2C
102
{ACAD_REACTORS
330
F
102
}
330
F
100
AcDbMLeaderStyle
179
2
170
2
171
1
172
0
 90
2
 40
0.0
 41
0.0
173
1
 91
-1056964608
 92
-2
290
1
 42
2.0
291
1
 43
8.0
  3
Standard
 44
4.0
300

342
29
174
1
175
1
176
0
178
1
 93
-1056964608
 45
4.0
292
0
297
0
 46
4.0
 94
-1056964608
 47
1.0
 49
1.0
140
1.0
294
1
141
0.0
177
0
142
1.0
295
0
296
0
143
3.75
271
0
272
9
273
9
  0
DICTIONARY
  5
2D
330
A
100
AcDbDictionary
280
1
281
1
  3
CREATED_BY_EZDXF
350
2E
  3
WRITTEN_BY_EZDXF
350
1F1
  0
DICTIONARYVAR
  5
2E
330
2D
100
DictionaryVariables
280
0
  1
1.4.3 @ 2026-04-16T08:37:30.697697+00:00
  0
DICTIONARYVAR
  5
1F1
330
2D
100
DictionaryVariables
280
0
  1
1.4.3 @ 2026-04-16T08:37:30.710562+00:00
  0
ENDSEC
  0
EOF
