  0
SECTION
  2
HEADER
  9
$ACADVER
  1
AC1024
  9
$ACADMAINTVER
 70
6
  9
$DWGCODEPAGE
  3
ANSI_1252
  9
$LASTSAVEDBY
  1
ezdxf
  9
$INSBASE
 10
0.0
 20
0.0
 30
0.0
  9
$EXTMIN
 10
1e+20
 20
1e+20
 30
1e+20
  9
$EXTMAX
 10
-1e+20
 20
-1e+20
 30
-1e+20
  9
$LIMMIN
 10
0.0
 20
0.0
  9
$LIMMAX
 10
420.0
 20
297.0
  9
$ORTHOMODE
 70
0
  9
$REGENMODE
 70
1
  9
$FILLMODE
 70
1
  9
$QTEXTMODE
 70
0
  9
$MIRRTEXT
 70
1
  9
$LTSCALE
 40
1.0
  9
$ATTMODE
 70
1
  9
$TEXTSIZE
 40
2.5
  9
$TRACEWID
 40
1.0
  9
$TEXTSTYLE
  7
Standard
  9
$CLAYER
  8
0
  9
$CELTYPE
  6
ByLayer
  9
$CECOLOR
 62
256
  9
$CELTSCALE
 40
1.0
  9
$DISPSILH
 70
0
  9
$DIMSCALE
 40
1.0
  9
$DIMASZ
 40
2.5
  9
$DIMEXO
 40
0.625
  9
$DIMDLI
 40
3.75
  9
$DIMRND
 40
0.0
  9
$DIMDLE
 40
0.0
  9
$DIMEXE
 40
1.25
  9
$DIMTP
 40
0.0
  9
$DIMTM
 40
0.0
  9
$DIMTXT
 40
2.5
  9
$DIMCEN
 40
2.5
  9
$DIMTSZ
 40
0.0
  9
$DIMTOL
 70
0
  9
$DIMLIM
 70
0
  9
$DIMTIH
 70
0
  9
$DIMTOH
 70
0
  9
$DIMSE1
 70
0
  9
$DIMSE2
 70
0
  9
$DIMTAD
 70
1
  9
$DIMZIN
 70
8
  9
$DIMBLK
  1

  9
$DIMASO
 70
1
  9
$DIMSHO
 70
1
  9
$DIMPOST
  1

  9
$DIMAPOST
  1

  9
$DIMALT
 70
0
  9
$DIMALTD
 70
3
  9
$DIMALTF
 40
0.03937007874
  9
$DIMLFAC
 40
1.0
  9
$DIMTOFL
 70
1
  9
$DIMTVP
 40
0.0
  9
$DIMTIX
 70
0
  9
$DIMSOXD
 70
0
  9
$DIMSAH
 70
0
  9
$DIMBLK1
  1

  9
$DIMBLK2
  1

  9
$DIMSTYLE
  2
ISO-25
  9
$DIMCLRD
 70
0
  9
$DIMCLRE
 70
0
  9
$DIMCLRT
 70
0
  9
$DIMTFAC
 40
1.0
  9
$DIMGAP
 40
0.625
  9
$DIMJUST
 70
0
  9
$DIMSD1
 70
0
  9
$DIMSD2
 70
0
  9
$DIMTOLJ
 70
0
  9
$DIMTZIN
 70
8
  9
$DIMALTZ
 70
0
  9
$DIMALTTZ
 70
0
  9
$DIMUPT
 70
0
  9
$DIMDEC
 70
2
  9
$DIMTDEC
 70
2
  9
$DIMALTU
 70
2
  9
$DIMALTTD
 70
3
  9
$DIMTXSTY
  7
Standard
  9
$DIMAUNIT
 70
0
  9
$DIMADEC
 70
0
  9
$DIMALTRND
 40
0.0
  9
$DIMAZIN
 70
0
  9
$DIMDSEP
 70
44
  9
$DIMATFIT
 70
3
  9
$DIMFRAC
 70
0
  9
$DIMLDRBLK
  1

  9
$DIMLUNIT
 70
2
  9
$DIMLWD
 70
-2
  9
$DIMLWE
 70
-2
  9
$DIMTMOVE
 70
0
  9
$DIMFXL
 40
1.0
  9
$DIMFXLON
 70
0
  9
$DIMJOGANG
 40
0.785398163397
  9
$DIMTFILL
 70
0
  9
$DIMTFILLCLR
 70
0
  9
$DIMARCSYM
 70
0
  9
$DIMLTYPE
  6

  9
$DIMLTEX1
  6

  9
$DIMLTEX2
  6

  9
$DIMTXTDIRECTION
 70
0
  9
$LUNITS
 70
2
  9
$LUPREC
 70
4
  9
$SKETCHINC
 40
1.0
  9
$FILLETRAD
 40
10.0
  9
$AUNITS
 70
0
  9
$AUPREC
 70
2
  9
$MENU
  1
.
  9
$ELEVATION
 40
0.0
  9
$PELEVATION
 40
0.0
  9
$THICKNESS
 40
0.0
  9
$LIMCHECK
 70
0
  9
$CHAMFERA
 40
0.0
  9
$CHAMFERB
 40
0.0
  9
$CHAMFERC
 40
0.0
  9
$CHAMFERD
 40
0.0
  9
$SKPOLY
 70
0
  9
$TDCREATE
 40
2461147.5788194444
  9
$TDUCREATE
 40
2458532.153996898
  9
$TDUPDATE
 40
2461147.5788194444
  9
$TDUUPDATE
 40
2458532.1544311
  9
$TDINDWG
 40
0.0
  9
$TDUSRTIMER
 40
0.0
  9
$USRTIMER
 70
1
  9
$ANGBASE
 50
0.0
  9
$ANGDIR
 70
0
  9
$PDMODE
 70
0
  9
$PDSIZE
 40
0.0
  9
$PLINEWID
 40
0.0
  9
$SPLFRAME
 70
0
  9
$SPLINETYPE
 70
6
  9
$SPLINESEGS
 70
8
  9
$HANDSEED
  5
342
  9
$SURFTAB1
 70
6
  9
$SURFTAB2
 70
6
  9
$SURFTYPE
 70
6
  9
$SURFU
 70
6
  9
$SURFV
 70
6
  9
$UCSBASE
  2

  9
$UCSNAME
  2

  9
$UCSORG
 10
0.0
 20
0.0
 30
0.0
  9
$UCSXDIR
 10
1.0
 20
0.0
 30
0.0
  9
$UCSYDIR
 10
0.0
 20
1.0
 30
0.0
  9
$UCSORTHOREF
  2

  9
$UCSORTHOVIEW
 70
0
  9
$UCSORGTOP
 10
0.0
 20
0.0
 30
0.0
  9
$UCSORGBOTTOM
 10
0.0
 20
0.0
 30
0.0
  9
$UCSORGLEFT
 10
0.0
 20
0.0
 30
0.0
  9
$UCSORGRIGHT
 10
0.0
 20
0.0
 30
0.0
  9
$UCSORGFRONT
 10
0.0
 20
0.0
 30
0.0
  9
$UCSORGBACK
 10
0.0
 20
0.0
 30
0.0
  9
$PUCSBASE
  2

  9
$PUCSNAME
  2

  9
$PUCSORG
 10
0.0
 20
0.0
 30
0.0
  9
$PUCSXDIR
 10
1.0
 20
0.0
 30
0.0
  9
$PUCSYDIR
 10
0.0
 20
1.0
 30
0.0
  9
$PUCSORTHOREF
  2

  9
$PUCSORTHOVIEW
 70
0
  9
$PUCSORGTOP
 10
0.0
 20
0.0
 30
0.0
  9
$PUCSORGBOTTOM
 10
0.0
 20
0.0
 30
0.0
  9
$PUCSORGLEFT
 10
0.0
 20
0.0
 30
0.0
  9
$PUCSORGRIGHT
 10
0.0
 20
0.0
 30
0.0
  9
$PUCSORGFRONT
 10
0.0
 20
0.0
 30
0.0
  9
$PUCSORGBACK
 10
0.0
 20
0.0
 30
0.0
  9
$USERI1
 70
0
  9
$USERI2
 70
0
  9
$USERI3
 70
0
  9
$USERI4
 70
0
  9
$USERI5
 70
0
  9
$USERR1
 40
0.0
  9
$USERR2
 40
0.0
  9
$USERR3
 40
0.0
  9
$USERR4
 40
0.0
  9
$USERR5
 40
0.0
  9
$WORLDVIEW
 70
1
  9
$SHADEDGE
 70
3
  9
$SHADEDIF
 70
70
  9
$TILEMODE
 70
1
  9
$MAXACTVP
 70
64
  9
$PINSBASE
 10
0.0
 20
0.0
 30
0.0
  9
$PLIMCHECK
 70
0
  9
$PEXTMIN
 10
1e+20
 20
1e+20
 30
1e+20
  9
$PEXTMAX
 10
-1e+20
 20
-1e+20
 30
-1e+20
  9
$PLIMMIN
 10
0.0
 20
0.0
  9
$PLIMMAX
 10
420.0
 20
297.0
  9
$UNITMODE
 70
0
  9
$VISRETAIN
 70
1
  9
$PLINEGEN
 70
0
  9
$PSLTSCALE
 70
1
  9
$TREEDEPTH
 70
3020
  9
$CMLSTYLE
  2
Standard
  9
$CMLJUST
 70
0
  9
$CMLSCALE
 40
20.0
  9
$PROXYGRAPHICS
 70
1
  9
$MEASUREMENT
 70
1
  9
$CELWEIGHT
370
-1
  9
$ENDCAPS
280
0
  9
$JOINSTYLE
280
0
  9
$LWDISPLAY
290
0
  9
$INSUNITS
 70
0
  9
$HYPERLINKBASE
  1

  9
$STYLESHEET
  1

  9
$XEDIT
290
1
  9
$CEPSNTYPE
380
0
  9
$PSTYLEMODE
290
1
  9
$FINGERPRINTGUID
  2
{8C23181A-7611-47B8-BA73-992573B4FBDC}
  9
$VERSIONGUID
  2
{E15A2310-0659-4862-A9F8-0C00F1C8D598}
  9
$EXTNAMES
290
1
  9
$PSVPSCALE
 40
0.0
  9
$OLESTARTUP
290
0
  9
$SORTENTS
280
127
  9
$INDEXCTL
280
0
  9
$HIDETEXT
280
1
  9
$XCLIPFRAME
280
1
  9
$HALOGAP
280
0
  9
$OBSCOLOR
 70
257
  9
$OBSLTYPE
280
0
  9
$INTERSECTIONDISPLAY
280
0
  9
$INTERSECTIONCOLOR
 70
257
  9
$DIMASSOC
280
2
  9
$PROJECTNAME
  1

  9
$CAMERADISPLAY
290
0
  9
$LENSLENGTH
 40
50.0
  9
$CAMERAHEIGHT
 40
0.0
  9
$STEPSPERSEC
 40
24.0
  9
$STEPSIZE
 40
100.0
  9
$3DDWFPREC
 40
2.0
  9
$PSOLWIDTH
 40
0.005
  9
$PSOLHEIGHT
 40
0.08
  9
$LOFTANG1
 40
1.570796326795
  9
$LOFTANG2
 40
1.570796326795
  9
$LOFTMAG1
 40
0.0
  9
$LOFTMAG2
 40
0.0
  9
$LOFTPARAM
 70
7
  9
$LOFTNORMALS
280
1
  9
$LATITUDE
 40
37.795
  9
$LONGITUDE
 40
-122.394
  9
$NORTHDIRECTION
 40
0.0
  9
$TIMEZONE
 70
-8000
  9
$LIGHTGLYPHDISPLAY
280
1
  9
$TILEMODELIGHTSYNCH
280
1
  9
$CMATERIAL
347
20
  9
$SOLIDHIST
280
0
  9
$SHOWHIST
280
1
  9
$DWFFRAME
280
2
  9
$DGNFRAME
280
2
  9
$REALWORLDSCALE
290
1
  9
$INTERFERECOLOR
 62
256
  9
$CSHADOW
280
0
  9
$SHADOWPLANELOCATION
 40
0.0
  0
ENDSEC
  0
SECTION
  2
CLASSES
  0
CLASS
  1
ACDBDICTIONARYWDFLT
  2
AcDbDictionaryWithDefault
  3
ObjectDBX Classes
 90
0
 91
0
280
0
281
0
  0
CLASS
  1
SUN
  2
AcDbSun
  3
SCENEOE
 90
1153
 91
0
280
0
281
0
  0
CLASS
  1
VISUALSTYLE
  2
AcDbVisualStyle
  3
ObjectDBX Classes
 90
4095
 91
0
280
0
281
0
  0
CLASS
  1
MATERIAL
  2
AcDbMaterial
  3
ObjectDBX Classes
 90
1153
 91
0
280
0
281
0
  0
CLASS
  1
SCALE
  2
AcDbScale
  3
ObjectDBX Classes
 90
1153
 91
0
280
0
281
0
  0
CLASS
  1
TABLESTYLE
  2
AcDbTableStyle
  3
ObjectDBX Classes
 90
4095
 91
0
280
0
281
0
  0
CLASS
  1
MLEADERSTYLE
  2
AcDbMLeaderStyle
  3
ACDB_MLEADERSTYLE_CLASS
 90
4095
 91
0
280
0
281
0
  0
CLASS
  1
DICTIONARYVAR
  2
AcDbDictionaryVar
  3
ObjectDBX Classes
 90
0
 91
0
280
0
281
0
  0
CLASS
  1
CELLSTYLEMAP
  2
AcDbCellStyleMap
  3
ObjectDBX Classes
 90
1152
 91
0
280
0
281
0
  0
CLASS
  1
MENTALRAYRENDERSETTINGS
  2
AcDbMentalRayRenderSettings
  3
SCENEOE
 90
1024
 91
0
280
0
281
0
  0
CLASS
  1
ACDBDETAILVIEWSTYLE
  2
AcDbDetailViewStyle
  3
ObjectDBX Classes
 90
1025
 91
0
280
0
281
0
  0
CLASS
  1
ACDBSECTIONVIEWSTYLE
  2
AcDbSectionViewStyle
  3
ObjectDBX Classes
 90
1025
 91
0
280
0
281
0
  0
CLASS
  1
RASTERVARIABLES
  2
AcDbRasterVariables
  3
ISM
 90
0
 91
0
280
0
281
0
  0
CLASS
  1
ACDBPLACEHOLDER
  2
AcDbPlaceHolder
  3
ObjectDBX Classes
 90
0
 91
0
280
0
281
0
  0
CLASS
  1
LAYOUT
  2
AcDbLayout
  3
ObjectDBX Classes
 90
0
 91
0
280
0
281
0
  0
ENDSEC
  0
SECTION
  2
TABLES
  0
TABLE
  2
VPORT
  5
8
330
0
100
AcDbSymbolTable
 70
1
  0
VPORT
  5
23
330
8
100
AcDbSymbolTableRecord
100
AcDbViewportTableRecord
  2
*Active
 70
0
 10
0.0
 20
0.0
 11
1.0
 21
1.0
 12
0.0
 22
0.0
 13
0.0
 23
0.0
 14
0.5
 24
0.5
 15
0.5
 25
0.5
 16
0.0
 26
0.0
 36
1.0
 17
0.0
 27
0.0
 37
0.0
 40
1000.0
 41
1.34
 42
50.0
 43
0.0
 44
0.0
 50
0.0
 51
0.0
 71
0
 72
1000
 73
1
 74
3
 75
0
 76
0
 77
0
 78
0
281
0
 65
0
146
0.0
  0
ENDTAB
  0
TABLE
  2
LTYPE
  5
2
330
0
100
AcDbSymbolTable
 70
3
  0
LTYPE
  5
24
330
2
100
AcDbSymbolTableRecord
100
AcDbLinetypeTableRecord
  2
ByBlock
 70
0
  3

 72
65
 73
0
 40
0.0
  0
LTYPE
  5
25
330
2
100
AcDbSymbolTableRecord
100
AcDbLinetypeTableRecord
  2
ByLayer
 70
0
  3

 72
65
 73
0
 40
0.0
  0
LTYPE
  5
26
330
2
100
AcDbSymbolTableRecord
100
AcDbLinetypeTableRecord
  2
Continuous
 70
0
  3

 72
65
 73
0
 40
0.0
  0
ENDTAB
  0
TABLE
  2
LAYER
  5
1
330
0
100
AcDbSymbolTable
 70
2
  0
LAYER
  5
27
330
1
100
AcDbSymbolTableRecord
100
AcDbLayerTableRecord
  2
0
 70
0
 62
7
  6
Continuous
370
-3
390
13
347
21
  0
LAYER
  5
28
330
1
100
AcDbSymbolTableRecord
100
AcDbLayerTableRecord
  2
Defpoints
 70
0
 62
7
  6
Continuous
290
0
370
-3
390
13
347
21
  0
ENDTAB
  0
TABLE
  2
STYLE
  5
5
330
0
100
AcDbSymbolTable
 70
1
  0
STYLE
  5
29
330
5
100
AcDbSymbolTableRecord
100
AcDbTextStyleTableRecord
  2
Standard
 70
0
 40
0.0
 41
1.0
 50
0.0
 71
0
 42
2.5
  3
txt
  4

  0
ENDTAB
  0
TABLE
  2
VIEW
  5
7
330
0
100
AcDbSymbolTable
 70
0
  0
ENDTAB
  0
TABLE
  2
UCS
  5
6
330
0
100
AcDbSymbolTable
 70
0
  0
ENDTAB
  0
TABLE
  2
APPID
  5
3
330
0
100
AcDbSymbolTable
 70
3
  0
APPID
  5
2A
330
3
100
AcDbSymbolTableRecord
100
AcDbRegAppTableRecord
  2
ACAD
 70
0
  0
APPID
  5
33F
330
3
100
AcDbSymbolTableRecord
100
AcDbRegAppTableRecord
  2
HATCHBACKGROUNDCOLOR
 70
0
  0
APPID
  5
340
330
3
100
AcDbSymbolTableRecord
100
AcDbRegAppTableRecord
  2
EZDXF
 70
0
  0
ENDTAB
  0
TABLE
  2
DIMSTYLE
  5
4
330
0
100
AcDbSymbolTable
 70
1
100
AcDbDimStyleTable
  0
DIMSTYLE
105
2B
330
4
100
AcDbSymbolTableRecord
100
AcDbDimStyleTableRecord
  2
Standard
 70
0
 40
1.0
 41
2.5
 42
0.625
 43
3.75
 44
1.25
 45
0.0
 46
0.0
 47
0.0
 48
0.0
 49
2.5
140
2.5
141
2.5
142
0.0
143
0.03937007874
144
1.0
145
0.0
146
1.0
147
0.625
148
0.0
 69
0
 70
0
 71
0
 72
0
 73
0
 74
0
 75
0
 76
0
 77
1
 78
8
 79
3
170
0
171
3
172
1
173
0
174
0
175
0
176
0
177
0
178
0
179
2
271
2
272
2
273
2
274
3
275
0
276
0
277
2
278
44
279
0
280
0
281
0
282
0
283
0
284
8
285
0
286
0
288
0
289
3
290
0
371
-2
372
-2
  0
ENDTAB
  0
TABLE
  2
BLOCK_RECORD
  5
9
330
0
100
AcDbSymbolTable
 70
2
  0
BLOCK_RECORD
  5
17
330
9
100
AcDbSymbolTableRecord
100
AcDbBlockTableRecord
  2
*Model_Space
340
1A
 70
0
280
1
281
0
  0
BLOCK_RECORD
  5
1B
330
9
100
AcDbSymbolTableRecord
100
AcDbBlockTableRecord
  2
*Paper_Space
340
1E
 70
0
280
1
281
0
  0
ENDTAB
  0
ENDSEC
  0
SECTION
  2
BLOCKS
  0
BLOCK
  5
18
330
17
100
AcDbEntity
  8
0
100
AcDbBlockBegin
  2
*Model_Space
 70
0
 10
0.0
 20
0.0
 30
0.0
  3
*Model_Space
  1

  0
ENDBLK
  5
19
330
17
100
AcDbEntity
  8
0
100
AcDbBlockEnd
  0
BLOCK
  5
1C
330
1B
100
AcDbEntity
  8
0
100
AcDbBlockBegin
  2
*Paper_Space
 70
0
 10
0.0
 20
0.0
 30
0.0
  3
*Paper_Space
  1

  0
ENDBLK
  5
1D
330
1B
100
AcDbEntity
  8
0
100
AcDbBlockEnd
  0
ENDSEC
  0
SECTION
  2
ENTITIES
  0
LINE
  5
2F
330
17
100
AcDbEntity
  8
0
100
AcDbLine
 10
547.6692913385796
 20
2052.0
 30
0.0
 11
547.6692913385796
 21
0.0
 31
0.0
  0
LINE
  5
30
330
17
100
AcDbEntity
  8
0
100
AcDbLine
 10
1079.1653543307054
 20
2052.0
 30
0.0
 11
1079.1653543307054
 21
0.0
 31
0.0
  0
LINE
  5
31
330
17
100
AcDbEntity
  8
0
100
AcDbLine
 10
1610.6614173228318
 20
2052.0
 30
0.0
 11
1610.6614173228318
 21
0.0
 31
0.0
  0
LINE
  5
32
330
17
100
AcDbEntity
  8
0
100
AcDbLine
 10
2.0
 20
1725.7391852974292
 30
0.0
 11
2052.0
 21
1725.7391852974292
 31
0.0
  0
LINE
  5
33
330
17
100
AcDbEntity
  8
0
100
AcDbLine
 10
2.0
 20
1076.1328860848316
 30
0.0
 11
2052.0
 21
1076.1328860848316
 31
0.0
  0
LINE
  5
34
330
17
100
AcDbEntity
  8
0
100
AcDbLine
 10
2.0
 20
426.5265868722331
 30
0.0
 11
2052.0
 21
426.5265868722331
 31
0.0
  0
LINE
  5
35
330
17
100
AcDbEntity
  8
0
100
AcDbLine
 10
547.6692913385796
 20
426.5265868722331
 30
0.0
 11
759.0866141732279
 21
426.5265868722331
 31
0.0
  0
LINE
  5
36
330
17
100
AcDbEntity
  8
0
100
AcDbLine
 10
533.4960629921256
 20
412.35335852577555
 30
0.0
 11
759.0866141732279
 21
412.35335852577555
 31
0.0
  0
LINE
  5
37
330
17
100
AcDbEntity
  8
0
100
AcDbLine
 10
896.0944881889753
 20
1337.1565081320691
 30
0.0
 11
896.0944881889753
 21
776.1328860848257
 31
0.0
  0
LINE
  5
38
330
17
100
AcDbEntity
  8
0
100
AcDbLine
 10
547.6692913385796
 20
776.1328860848257
 30
0.0
 11
723.6535433070846
 21
776.1328860848257
 31
0.0
  0
LINE
  5
39
330
17
100
AcDbEntity
  8
0
100
AcDbLine
 10
1089.7952755905485
 20
447.7864293919115
 30
0.0
 11
1089.7952755905485
 21
526.3297364785321
 31
0.0
  0
LINE
  5
3A
330
17
100
AcDbEntity
  8
0
100
AcDbLine
 10
1072.0787401574803
 20
447.7864293919115
 30
0.0
 11
1072.0787401574803
 21
526.3297364785321
 31
0.0
  0
LINE
  5
3B
330
17
100
AcDbEntity
  8
0
100
AcDbLine
 10
547.6692913385796
 20
758.416350651757
 30
0.0
 11
705.937007874013
 21
758.416350651757
 31
0.0
  0
LINE
  5
3C
330
17
100
AcDbEntity
  8
0
100
AcDbLine
 10
878.3779527559036
 20
1319.4399726990018
 30
0.0
 11
878.3779527559036
 21
758.416350651757
 31
0.0
  0
LINE
  5
3D
330
17
100
AcDbEntity
  8
0
100
AcDbLine
 10
547.6692913385796
 20
1337.1565081320691
 30
0.0
 11
896.0944881889753
 21
1337.1565081320691
 31
0.0
  0
LINE
  5
3E
330
17
100
AcDbEntity
  8
0
100
AcDbLine
 10
547.6692913385796
 20
1319.4399726990018
 30
0.0
 11
878.3779527559036
 21
1319.4399726990018
 31
0.0
  0
LINE
  5
3F
330
17
100
AcDbEntity
  8
0
100
AcDbLine
 10
723.6535433070846
 20
426.5265868722331
 30
0.0
 11
723.6535433070846
 21
477.3139884470297
 31
0.0
  0
LINE
  5
40
330
17
100
AcDbEntity
  8
0
100
AcDbLine
 10
705.937007874013
 20
426.5265868722331
 30
0.0
 11
705.937007874013
 21
469.04627191159443
 31
0.0
  0
LINE
  5
41
330
17
100
AcDbEntity
  8
0
100
AcDbLine
 10
1693.3385826771648
 20
426.5265868722331
 30
0.0
 11
1693.3385826771648
 21
412.35335852577555
 31
0.0
  0
LINE
  5
42
330
17
100
AcDbEntity
  8
0
100
AcDbLine
 10
1799.63779527559
 20
426.5265868722331
 30
0.0
 11
1799.63779527559
 21
412.35335852577555
 31
0.0
  0
LINE
  5
43
330
17
100
AcDbEntity
  8
0
100
AcDbLine
 10
1953.1811023622022
 20
426.5265868722331
 30
0.0
 11
1953.1811023622022
 21
412.35335852577555
 31
0.0
  0
LINE
  5
44
330
17
100
AcDbEntity
  8
0
100
AcDbLine
 10
1799.63779527559
 20
426.5265868722331
 30
0.0
 11
1953.1811023622022
 21
426.5265868722331
 31
0.0
  0
LINE
  5
45
330
17
100
AcDbEntity
  8
0
100
AcDbLine
 10
1161.8425196850385
 20
426.5265868722331
 30
0.0
 11
1161.8425196850385
 21
412.35335852577555
 31
0.0
  0
LINE
  5
46
330
17
100
AcDbEntity
  8
0
100
AcDbLine
 10
1268.1417322834645
 20
426.5265868722331
 30
0.0
 11
1268.1417322834645
 21
412.35335852577555
 31
0.0
  0
LINE
  5
47
330
17
100
AcDbEntity
  8
0
100
AcDbLine
 10
1421.685039370076
 20
426.5265868722331
 30
0.0
 11
1421.685039370076
 21
412.35335852577555
 31
0.0
  0
LINE
  5
48
330
17
100
AcDbEntity
  8
0
100
AcDbLine
 10
1527.9842519685023
 20
426.5265868722331
 30
0.0
 11
1527.9842519685023
 21
412.35335852577555
 31
0.0
  0
LINE
  5
49
330
17
100
AcDbEntity
  8
0
100
AcDbLine
 10
1268.1417322834645
 20
426.5265868722331
 30
0.0
 11
1421.685039370076
 21
426.5265868722331
 31
0.0
  0
LINE
  5
4A
330
17
100
AcDbEntity
  8
0
100
AcDbLine
 10
1527.9842519685023
 20
426.5265868722331
 30
0.0
 11
1693.3385826771648
 21
426.5265868722331
 31
0.0
  0
LINE
  5
4B
330
17
100
AcDbEntity
  8
0
100
AcDbLine
 10
1327.1968503937007
 20
426.5265868722331
 30
0.0
 11
1327.1968503937007
 21
485.5817049824691
 31
0.0
  0
LINE
  5
4C
330
17
100
AcDbEntity
  8
0
100
AcDbLine
 10
1327.1968503937007
 20
485.5817049824691
 30
0.0
 11
1374.440944881887
 21
485.5817049824691
 31
0.0
  0
LINE
  5
4D
330
17
100
AcDbEntity
  8
0
100
AcDbLine
 10
1374.440944881887
 20
426.5265868722331
 30
0.0
 11
1374.440944881887
 21
485.5817049824691
 31
0.0
  0
LINE
  5
4E
330
17
100
AcDbEntity
  8
0
100
AcDbLine
 10
878.3779527559036
 20
758.416350651757
 30
0.0
 11
1072.0787401574803
 21
758.416350651757
 31
0.0
  0
LINE
  5
4F
330
17
100
AcDbEntity
  8
0
100
AcDbLine
 10
896.0944881889753
 20
776.1328860848257
 30
0.0
 11
1089.7952755905485
 21
776.1328860848257
 31
0.0
  0
LINE
  5
50
330
17
100
AcDbEntity
  8
0
100
AcDbLine
 10
736.6456692913383
 20
1124.5580829352252
 30
0.0
 11
736.6456692913383
 21
770.2273742738071
 31
0.0
  0
LINE
  5
51
330
17
100
AcDbEntity
  8
0
100
AcDbLine
 10
878.3779527559036
 20
770.2273742738071
 30
0.0
 11
736.6456692913383
 21
770.2273742738071
 31
0.0
  0
LINE
  5
52
330
17
100
AcDbEntity
  8
0
100
AcDbLine
 10
878.3779527559036
 20
805.6604451399439
 30
0.0
 11
736.6456692913383
 21
805.6604451399439
 31
0.0
  0
LINE
  5
53
330
17
100
AcDbEntity
  8
0
100
AcDbLine
 10
878.3779527559036
 20
841.0935160060903
 30
0.0
 11
736.6456692913383
 21
841.0935160060903
 31
0.0
  0
LINE
  5
54
330
17
100
AcDbEntity
  8
0
100
AcDbLine
 10
878.3779527559036
 20
876.5265868722295
 30
0.0
 11
736.6456692913383
 21
876.5265868722295
 31
0.0
  0
LINE
  5
55
330
17
100
AcDbEntity
  8
0
100
AcDbLine
 10
878.3779527559036
 20
911.9596577383732
 30
0.0
 11
736.6456692913383
 21
911.9596577383732
 31
0.0
  0
LINE
  5
56
330
17
100
AcDbEntity
  8
0
100
AcDbLine
 10
878.3779527559036
 20
947.3927286045155
 30
0.0
 11
736.6456692913383
 21
947.3927286045155
 31
0.0
  0
LINE
  5
57
330
17
100
AcDbEntity
  8
0
100
AcDbLine
 10
878.3779527559036
 20
982.8257994706523
 30
0.0
 11
736.6456692913383
 21
982.8257994706523
 31
0.0
  0
LINE
  5
58
330
17
100
AcDbEntity
  8
0
100
AcDbLine
 10
878.3779527559036
 20
1018.2588703367983
 30
0.0
 11
736.6456692913383
 21
1018.2588703367983
 31
0.0
  0
LINE
  5
59
330
17
100
AcDbEntity
  8
0
100
AcDbLine
 10
878.3779527559036
 20
1053.6919412029388
 30
0.0
 11
736.6456692913383
 21
1053.6919412029388
 31
0.0
  0
LINE
  5
5A
330
17
100
AcDbEntity
  8
0
100
AcDbLine
 10
878.3779527559036
 20
1089.1250120690815
 30
0.0
 11
736.6456692913383
 21
1089.1250120690815
 31
0.0
  0
LINE
  5
5B
330
17
100
AcDbEntity
  8
0
100
AcDbLine
 10
878.3779527559036
 20
1124.5580829352252
 30
0.0
 11
547.6692913385796
 21
1124.5580829352252
 31
0.0
  0
LINE
  5
5C
330
17
100
AcDbEntity
  8
0
100
AcDbLine
 10
568.9291338582656
 20
1124.5580829352252
 30
0.0
 11
568.9291338582656
 21
776.1328860848257
 31
0.0
  0
LINE
  5
5D
330
17
100
AcDbEntity
  8
0
100
AcDbLine
 10
710.6614173228344
 20
1124.5580829352252
 30
0.0
 11
710.6614173228344
 21
776.1328860848257
 31
0.0
  0
LINE
  5
5E
330
17
100
AcDbEntity
  8
0
100
AcDbLine
 10
710.6614173228344
 20
1089.1250120690815
 30
0.0
 11
568.9291338582656
 21
1089.1250120690815
 31
0.0
  0
LINE
  5
5F
330
17
100
AcDbEntity
  8
0
100
AcDbLine
 10
710.6614173228344
 20
1053.6919412029388
 30
0.0
 11
568.9291338582656
 21
1053.6919412029388
 31
0.0
  0
LINE
  5
60
330
17
100
AcDbEntity
  8
0
100
AcDbLine
 10
710.6614173228344
 20
1018.2588703367983
 30
0.0
 11
568.9291338582656
 21
1018.2588703367983
 31
0.0
  0
LINE
  5
61
330
17
100
AcDbEntity
  8
0
100
AcDbLine
 10
710.6614173228344
 20
982.8257994706523
 30
0.0
 11
568.9291338582656
 21
982.8257994706523
 31
0.0
  0
LINE
  5
62
330
17
100
AcDbEntity
  8
0
100
AcDbLine
 10
710.6614173228344
 20
947.3927286045155
 30
0.0
 11
568.9291338582656
 21
947.3927286045155
 31
0.0
  0
LINE
  5
63
330
17
100
AcDbEntity
  8
0
100
AcDbLine
 10
547.6692913385796
 20
1319.4399726990018
 30
0.0
 11
547.6692913385796
 21
426.5265868722331
 31
0.0
  0
LINE
  5
64
330
17
100
AcDbEntity
  8
0
100
AcDbLine
 10
533.4960629921256
 20
2052.0
 30
0.0
 11
533.4960629921256
 21
412.35335852577555
 31
0.0
  0
LINE
  5
65
330
17
100
AcDbEntity
  8
0
100
AcDbLine
 10
1054.3622047244091
 20
426.5265868722331
 30
0.0
 11
1054.3622047244091
 21
412.35335852577555
 31
0.0
  0
LINE
  5
66
330
17
100
AcDbEntity
  8
0
100
AcDbLine
 10
936.2519685039365
 20
426.5265868722331
 30
0.0
 11
936.2519685039365
 21
412.35335852577555
 31
0.0
  0
LINE
  5
67
330
17
100
AcDbEntity
  8
0
100
AcDbLine
 10
759.0866141732279
 20
412.35335852577555
 30
0.0
 11
759.0866141732279
 21
426.5265868722331
 31
0.0
  0
LINE
  5
68
330
17
100
AcDbEntity
  8
0
100
AcDbLine
 10
877.1968503937003
 20
412.35335852577555
 30
0.0
 11
877.1968503937003
 21
426.5265868722331
 31
0.0
  0
LINE
  5
69
330
17
100
AcDbEntity
  8
0
100
AcDbLine
 10
877.1968503937003
 20
426.5265868722331
 30
0.0
 11
936.2519685039365
 21
426.5265868722331
 31
0.0
  0
LINE
  5
6A
330
17
100
AcDbEntity
  8
0
100
AcDbLine
 10
877.1968503937003
 20
412.35335852577555
 30
0.0
 11
936.2519685039365
 21
412.35335852577555
 31
0.0
  0
LINE
  5
6B
330
17
100
AcDbEntity
  8
0
100
AcDbLine
 10
1054.3622047244091
 20
426.5265868722331
 30
0.0
 11
1161.8425196850385
 21
426.5265868722331
 31
0.0
  0
LINE
  5
6C
330
17
100
AcDbEntity
  8
0
100
AcDbLine
 10
1054.3622047244091
 20
412.35335852577555
 30
0.0
 11
1170.1102362204742
 21
412.35335852577236
 31
0.0
  0
LINE
  5
6D
330
17
100
AcDbEntity
  8
0
100
AcDbLine
 10
179.1653543307086
 20
58.022649864358755
 30
0.0
 11
1458.2992125984235
 21
58.022649864358755
 31
0.0
  0
LINE
  5
6E
330
17
100
AcDbEntity
  8
0
100
AcDbLine
 10
540.5826771653544
 20
93.4557207304947
 30
0.0
 11
576.0157480314942
 21
93.4557207304947
 31
0.0
  0
LINE
  5
6F
330
17
100
AcDbEntity
  8
0
100
AcDbLine
 10
540.5826771653544
 20
128.88879159664475
 30
0.0
 11
576.0157480314942
 21
128.88879159664475
 31
0.0
  0
LINE
  5
70
330
17
100
AcDbEntity
  8
0
100
AcDbLine
 10
540.5826771653544
 20
128.88879159664475
 30
0.0
 11
540.5826771653544
 21
93.4557207304947
 31
0.0
  0
LINE
  5
71
330
17
100
AcDbEntity
  8
0
100
AcDbLine
 10
576.0157480314942
 20
128.88879159664475
 30
0.0
 11
576.0157480314942
 21
93.4557207304947
 31
0.0
  0
LINE
  5
72
330
17
100
AcDbEntity
  8
0
100
AcDbLine
 10
1061.4488188976377
 20
93.4557207304947
 30
0.0
 11
1096.881889763777
 21
93.4557207304947
 31
0.0
  0
LINE
  5
73
330
17
100
AcDbEntity
  8
0
100
AcDbLine
 10
1061.4488188976377
 20
128.88879159664475
 30
0.0
 11
1096.881889763777
 21
128.88879159664475
 31
0.0
  0
LINE
  5
74
330
17
100
AcDbEntity
  8
0
100
AcDbLine
 10
1061.4488188976377
 20
128.88879159664475
 30
0.0
 11
1061.4488188976377
 21
93.4557207304947
 31
0.0
  0
LINE
  5
75
330
17
100
AcDbEntity
  8
0
100
AcDbLine
 10
1096.881889763777
 20
128.88879159664475
 30
0.0
 11
1096.881889763777
 21
93.4557207304947
 31
0.0
  0
LINE
  5
76
330
17
100
AcDbEntity
  8
0
100
AcDbLine
 10
807.511811023621
 20
770.2273742738071
 30
0.0
 11
807.511811023621
 21
1124.5580829352252
 31
0.0
  0
LINE
  5
77
330
17
100
AcDbEntity
  8
0
100
AcDbLine
 10
830.6740732466385
 20
1101.3958207122046
 30
0.0
 11
807.511811023621
 21
1124.5580829352252
 31
0.0
  0
LINE
  5
78
330
17
100
AcDbEntity
  8
0
100
AcDbLine
 10
784.3495488006037
 20
1101.3958207122046
 30
0.0
 11
807.511811023621
 21
1124.5580829352252
 31
0.0
  0
LINE
  5
79
330
17
100
AcDbEntity
  8
0
100
AcDbLine
 10
705.937007874013
 20
717.0777679745893
 30
0.0
 11
723.6535433070846
 21
717.0777679745893
 31
0.0
  0
LINE
  5
7A
330
17
100
AcDbEntity
  8
0
100
AcDbLine
 10
705.937007874013
 20
610.7785553761664
 30
0.0
 11
723.6535433070846
 21
610.7785553761664
 31
0.0
  0
LINE
  5
7B
330
17
100
AcDbEntity
  8
0
100
AcDbLine
 10
705.937007874013
 20
575.3454845100232
 30
0.0
 11
723.6535433070846
 21
575.3454845100232
 31
0.0
  0
LINE
  5
7C
330
17
100
AcDbEntity
  8
0
100
AcDbLine
 10
705.937007874013
 20
469.04627191159443
 30
0.0
 11
723.6535433070846
 21
469.04627191159443
 31
0.0
  0
LINE
  5
7D
330
17
100
AcDbEntity
  8
0
100
AcDbLine
 10
705.937007874013
 20
717.0777679745893
 30
0.0
 11
705.937007874013
 21
758.416350651757
 31
0.0
  0
LINE
  5
7E
330
17
100
AcDbEntity
  8
0
100
AcDbLine
 10
723.6535433070846
 20
717.0777679745893
 30
0.0
 11
723.6535433070846
 21
776.1328860848257
 31
0.0
  0
LINE
  5
7F
330
17
100
AcDbEntity
  8
0
100
AcDbLine
 10
705.937007874013
 20
575.3454845100232
 30
0.0
 11
705.937007874013
 21
610.7785553761664
 31
0.0
  0
LINE
  5
80
330
17
100
AcDbEntity
  8
0
100
AcDbLine
 10
639.795275590548
 20
1124.5580829352252
 30
0.0
 11
639.795275590548
 21
911.9596577383732
 31
0.0
  0
LINE
  5
81
330
17
100
AcDbEntity
  8
0
100
AcDbLine
 10
639.795275590548
 20
911.9596577383732
 30
0.0
 11
568.9291338582656
 21
911.9596577383732
 31
0.0
  0
LINE
  5
82
330
17
100
AcDbEntity
  8
0
100
AcDbLine
 10
616.6330133675309
 20
935.1219199613938
 30
0.0
 11
639.795275590548
 21
911.9596577383732
 31
0.0
  0
LINE
  5
83
330
17
100
AcDbEntity
  8
0
100
AcDbLine
 10
662.9575378135689
 20
935.1219199613938
 30
0.0
 11
639.795275590548
 21
911.9596577383732
 31
0.0
  0
LINE
  5
84
330
17
100
AcDbEntity
  8
0
100
AcDbLine
 10
568.9291338582656
 20
876.5265868722295
 30
0.0
 11
710.6614173228344
 21
947.3927286045155
 31
0.0
  0
LINE
  5
85
330
17
100
AcDbEntity
  8
0
100
AcDbLine
 10
547.6692913385796
 20
2052.0
 30
0.0
 11
547.6692913385796
 21
1337.1565081320691
 31
0.0
  0
LINE
  5
86
330
17
100
AcDbEntity
  8
0
100
AcDbLine
 10
250.03149606299135
 20
454.8730435651473
 30
0.0
 11
250.03149606299135
 21
419.4399726990041
 31
0.0
  0
LINE
  5
87
330
17
100
AcDbEntity
  8
0
100
AcDbLine
 10
214.5984251968483
 20
454.8730435651473
 30
0.0
 11
214.5984251968483
 21
419.4399726990041
 31
0.0
  0
LINE
  5
88
330
17
100
AcDbEntity
  8
0
100
AcDbLine
 10
179.1653543307086
 20
1632.4320986832572
 30
0.0
 11
179.1653543307086
 21
58.022649864358755
 31
0.0
  0
LINE
  5
89
330
17
100
AcDbEntity
  8
0
100
AcDbLine
 10
250.03149606299135
 20
419.4399726990041
 30
0.0
 11
214.5984251968483
 21
419.4399726990041
 31
0.0
  0
LINE
  5
8A
330
17
100
AcDbEntity
  8
0
100
AcDbLine
 10
250.03149606299135
 20
454.8730435651473
 30
0.0
 11
214.5984251968483
 21
454.8730435651473
 31
0.0
  0
LINE
  5
8B
330
17
100
AcDbEntity
  8
0
100
AcDbLine
 10
250.03149606299135
 20
1093.849421517903
 30
0.0
 11
250.03149606299135
 21
1058.4163506517598
 31
0.0
  0
LINE
  5
8C
330
17
100
AcDbEntity
  8
0
100
AcDbLine
 10
214.5984251968483
 20
1093.849421517903
 30
0.0
 11
214.5984251968483
 21
1058.4163506517598
 31
0.0
  0
LINE
  5
8D
330
17
100
AcDbEntity
  8
0
100
AcDbLine
 10
250.03149606299135
 20
1058.4163506517598
 30
0.0
 11
214.5984251968483
 21
1058.4163506517598
 31
0.0
  0
LINE
  5
8E
330
17
100
AcDbEntity
  8
0
100
AcDbLine
 10
250.03149606299135
 20
1093.849421517903
 30
0.0
 11
214.5984251968483
 21
1093.849421517903
 31
0.0
  0
LINE
  5
8F
330
17
100
AcDbEntity
  8
0
100
AcDbLine
 10
250.03149606299135
 20
1514.3218624627848
 30
0.0
 11
250.03149606299135
 21
1478.8887915966416
 31
0.0
  0
LINE
  5
90
330
17
100
AcDbEntity
  8
0
100
AcDbLine
 10
214.5984251968483
 20
1514.3218624627848
 30
0.0
 11
214.5984251968483
 21
1478.8887915966416
 31
0.0
  0
LINE
  5
91
330
17
100
AcDbEntity
  8
0
100
AcDbLine
 10
250.03149606299135
 20
1478.8887915966416
 30
0.0
 11
214.5984251968483
 21
1478.8887915966416
 31
0.0
  0
LINE
  5
92
330
17
100
AcDbEntity
  8
0
100
AcDbLine
 10
250.03149606299135
 20
1514.3218624627848
 30
0.0
 11
214.5984251968483
 21
1514.3218624627848
 31
0.0
  0
LINE
  5
93
330
17
100
AcDbEntity
  8
0
100
AcDbLine
 10
533.4960629921256
 20
1632.4320986832572
 30
0.0
 11
179.16535433070862
 21
1632.4320986832572
 31
0.0
  0
LINE
  5
94
330
17
100
AcDbEntity
  8
0
100
AcDbLine
 10
250.03149606299135
 20
1632.4320986832572
 30
0.0
 11
250.03149606299135
 21
1703.2982404155373
 31
0.0
  0
LINE
  5
95
330
17
100
AcDbEntity
  8
0
100
AcDbLine
 10
533.4960629921256
 20
1667.8651695494004
 30
0.0
 11
250.03149606299132
 21
1667.8651695494004
 31
0.0
  0
LINE
  5
96
330
17
100
AcDbEntity
  8
0
100
AcDbLine
 10
533.4960629921256
 20
1703.2982404155373
 30
0.0
 11
250.03149606299132
 21
1703.2982404155373
 31
0.0
  0
LINE
  5
97
330
17
100
AcDbEntity
  8
0
100
AcDbLine
 10
179.1653543307086
 20
1514.3218624627848
 30
0.0
 11
108.29921259842915
 21
1514.321862462792
 31
0.0
  0
LINE
  5
98
330
17
100
AcDbEntity
  8
0
100
AcDbLine
 10
143.732283464542
 20
1230.8572955336535
 30
0.0
 11
143.7322834645655
 21
1514.321862462788
 31
0.0
  0
LINE
  5
99
330
17
100
AcDbEntity
  8
0
100
AcDbLine
 10
108.29921259840901
 20
1230.8572955336572
 30
0.0
 11
108.29921259842915
 21
1514.321862462792
 31
0.0
  0
LINE
  5
9A
330
17
100
AcDbEntity
  8
0
100
AcDbLine
 10
108.29921259840901
 20
1230.8572955336572
 30
0.0
 11
179.1653543307086
 21
1230.8572955336572
 31
0.0
  0
LINE
  5
9B
330
17
100
AcDbEntity
  8
0
100
AcDbLine
 10
391.7637795275566
 20
1703.2982404155373
 30
0.0
 11
391.7637795275566
 21
1632.4320986832572
 31
0.0
  0
LINE
  5
9C
330
17
100
AcDbEntity
  8
0
100
AcDbLine
 10
368.60151730453924
 20
1655.5943609062779
 30
0.0
 11
391.7637795275566
 21
1632.4320986832572
 31
0.0
  0
LINE
  5
9D
330
17
100
AcDbEntity
  8
0
100
AcDbLine
 10
414.92604175057767
 20
1655.5943609062779
 30
0.0
 11
391.7637795275566
 21
1632.4320986832572
 31
0.0
  0
LINE
  5
9E
330
17
100
AcDbEntity
  8
0
100
AcDbLine
 10
108.29921259841906
 20
1372.5895789982192
 30
0.0
 11
179.16535433069515
 21
1372.5895789982192
 31
0.0
  0
LINE
  5
9F
330
17
100
AcDbEntity
  8
0
100
AcDbLine
 10
156.0030921076778
 20
1349.4273167752058
 30
0.0
 11
179.16535433069515
 21
1372.5895789982192
 31
0.0
  0
LINE
  5
A0
330
17
100
AcDbEntity
  8
0
100
AcDbLine
 10
156.0030921076778
 20
1395.7518412212394
 30
0.0
 11
179.16535433069515
 21
1372.5895789982192
 31
0.0
  0
LINE
  5
A1
330
17
100
AcDbEntity
  8
0
100
AcDbLine
 10
1054.3622047244091
 20
58.022649864358755
 30
0.0
 11
1054.3622047244091
 21
0.0
 31
0.0
  0
LINE
  5
A2
330
17
100
AcDbEntity
  8
0
100
AcDbLine
 10
759.0866141732279
 20
58.022649864358755
 30
0.0
 11
759.0866141732279
 21
0.0
 31
0.0
  0
LINE
  5
A3
330
17
100
AcDbEntity
  8
0
100
AcDbLine
 10
759.0866141732279
 20
22.589578998215984
 30
0.0
 11
1054.3622047244091
 21
22.589578998215984
 31
0.0
  0
LINE
  5
A4
330
17
100
AcDbEntity
  8
0
100
AcDbLine
 10
906.7244094488184
 20
0.0
 30
0.0
 11
906.7244094488184
 21
58.02264986435557
 31
0.0
  0
LINE
  5
A5
330
17
100
AcDbEntity
  8
0
100
AcDbLine
 10
929.8866716718355
 20
34.86038764133127
 30
0.0
 11
906.7244094488184
 21
58.02264986435557
 31
0.0
  0
LINE
  5
A6
330
17
100
AcDbEntity
  8
0
100
AcDbLine
 10
883.5621472258042
 20
34.86038764133127
 30
0.0
 11
906.7244094488184
 21
58.02264986435557
 31
0.0
  0
LINE
  5
A7
330
17
100
AcDbEntity
  8
0
100
AcDbLine
 10
1493.7322834645865
 20
128.88879159664475
 30
0.0
 11
1493.7322834645665
 21
412.35335852577555
 31
0.0
  0
LINE
  5
A8
330
17
100
AcDbEntity
  8
0
100
AcDbLine
 10
1529.1653543307295
 20
128.88879159664475
 30
0.0
 11
1529.1653543307057
 21
412.35335852577555
 31
0.0
  0
LINE
  5
A9
330
17
100
AcDbEntity
  8
0
100
AcDbLine
 10
1529.1653543307295
 20
128.88879159664475
 30
0.0
 11
1458.2992125984235
 21
128.88879159664475
 31
0.0
  0
LINE
  5
AA
330
17
100
AcDbEntity
  8
0
100
AcDbLine
 10
1529.1653543307186
 20
270.6210750612131
 30
0.0
 11
1458.299212598433
 21
270.6210750612131
 31
0.0
  0
LINE
  5
AB
330
17
100
AcDbEntity
  8
0
100
AcDbLine
 10
1481.4614748214535
 20
247.4588128381929
 30
0.0
 11
1458.299212598433
 21
270.6210750612131
 31
0.0
  0
LINE
  5
AC
330
17
100
AcDbEntity
  8
0
100
AcDbLine
 10
1481.4614748214535
 20
293.78333728423104
 30
0.0
 11
1458.299212598433
 21
270.6210750612131
 31
0.0
  0
LINE
  5
AD
330
17
100
AcDbEntity
  8
0
100
AcDbLine
 10
1458.2992125984235
 20
58.022649864358755
 30
0.0
 11
1458.2992125984235
 21
412.35335852577555
 31
0.0
  0
LINE
  5
AE
330
17
100
AcDbEntity
  8
0
100
AcDbLine
 10
1765.3858267716578
 20
341.4872167934891
 30
0.0
 11
2052.0
 21
341.4872167934891
 31
0.0
  0
LINE
  5
AF
330
17
100
AcDbEntity
  8
0
100
AcDbLine
 10
462.6299212598394
 20
2052.0
 30
0.0
 11
462.6299212598394
 21
1703.2982404155373
 31
0.0
  0
LINE
  5
B0
330
17
100
AcDbEntity
  8
0
100
AcDbLine
 10
1765.3858267716842
 20
0.0
 30
0.0
 11
1765.3858267716578
 21
341.4872167934891
 31
0.0
  0
LINE
  5
B1
330
17
100
AcDbEntity
  8
0
100
AcDbLine
 10
1072.0787401574803
 20
679.8730435651478
 30
0.0
 11
1089.7952755905485
 21
679.8730435651478
 31
0.0
  0
LINE
  5
B2
330
17
100
AcDbEntity
  8
0
100
AcDbLine
 10
1072.0787401574803
 20
526.3297364785321
 30
0.0
 11
1089.7952755905485
 21
526.3297364785321
 31
0.0
  0
LINE
  5
B3
330
17
100
AcDbEntity
  8
0
100
AcDbLine
 10
1089.7952755905485
 20
679.8730435651478
 30
0.0
 11
1089.7952755905485
 21
776.1328860848257
 31
0.0
  0
LINE
  5
B4
330
17
100
AcDbEntity
  8
0
100
AcDbLine
 10
1072.0787401574803
 20
679.8730435651478
 30
0.0
 11
1072.0787401574803
 21
758.416350651757
 31
0.0
  0
LINE
  5
B5
330
17
100
AcDbEntity
  8
0
100
AcDbLine
 10
694.1259842519662
 20
663.9281616753815
 30
0.0
 11
735.4645669291311
 21
663.9281616753815
 31
0.0
  0
LINE
  5
B6
330
17
100
AcDbEntity
  8
0
100
AcDbLine
 10
818.1417322834641
 20
438.3376104942795
 30
0.0
 11
818.1417322834641
 21
400.54233490372553
 31
0.0
  0
LINE
  5
B7
330
17
100
AcDbEntity
  8
0
100
AcDbLine
 10
995.3070866141728
 20
438.3376104942795
 30
0.0
 11
995.3070866141728
 21
400.54233490372553
 31
0.0
  0
LINE
  5
B8
330
17
100
AcDbEntity
  8
0
100
AcDbLine
 10
1072.0787401574803
 20
679.8730435651441
 30
0.0
 11
996.9138460943449
 21
604.7081495020084
 31
0.0
  0
LINE
  5
B9
330
17
100
AcDbEntity
  8
0
100
AcDbLine
 10
1072.0787401574803
 20
526.3297364785321
 30
0.0
 11
1038.6721205738625
 21
559.7363560621466
 31
0.0
  0
LINE
  5
BA
330
17
100
AcDbEntity
  8
0
100
AcDbLine
 10
759.0866141732279
 20
412.35335852577555
 30
0.0
 11
877.1968503937003
 21
412.35335852577555
 31
0.0
  0
LINE
  5
BB
330
17
100
AcDbEntity
  8
0
100
AcDbLine
 10
877.1968503937003
 20
412.35335852577555
 30
0.0
 11
877.1968503937003
 21
426.5265868722331
 31
0.0
  0
LINE
  5
BC
330
17
100
AcDbEntity
  8
0
100
AcDbLine
 10
877.1968503937003
 20
426.5265868722331
 30
0.0
 11
759.0866141732279
 21
426.5265868722331
 31
0.0
  0
LINE
  5
BD
330
17
100
AcDbEntity
  8
0
100
AcDbLine
 10
759.0866141732279
 20
426.5265868722331
 30
0.0
 11
759.0866141732279
 21
412.35335852577555
 31
0.0
  0
LINE
  5
BE
330
17
100
AcDbEntity
  8
0
100
AcDbLine
 10
759.0866141732279
 20
412.35335852577555
 30
0.0
 11
759.0866141732279
 21
412.35335852577555
 31
0.0
  0
LINE
  5
BF
330
17
100
AcDbEntity
  8
0
100
AcDbLine
 10
936.2519685039365
 20
412.35335852577555
 30
0.0
 11
1054.3622047244091
 21
412.35335852577555
 31
0.0
  0
LINE
  5
C0
330
17
100
AcDbEntity
  8
0
100
AcDbLine
 10
1054.3622047244091
 20
412.35335852577555
 30
0.0
 11
1054.3622047244091
 21
426.5265868722331
 31
0.0
  0
LINE
  5
C1
330
17
100
AcDbEntity
  8
0
100
AcDbLine
 10
1054.3622047244091
 20
426.5265868722331
 30
0.0
 11
936.2519685039365
 21
426.5265868722331
 31
0.0
  0
LINE
  5
C2
330
17
100
AcDbEntity
  8
0
100
AcDbLine
 10
936.2519685039365
 20
426.5265868722331
 30
0.0
 11
936.2519685039365
 21
412.35335852577555
 31
0.0
  0
LINE
  5
C3
330
17
100
AcDbEntity
  8
0
100
AcDbLine
 10
936.2519685039365
 20
412.35335852577555
 30
0.0
 11
936.2519685039365
 21
412.35335852577555
 31
0.0
  0
LINE
  5
C4
330
17
100
AcDbEntity
  8
0
100
AcDbLine
 10
705.937007874013
 20
610.7785553761664
 30
0.0
 11
705.937007874013
 21
717.0777679745893
 31
0.0
  0
LINE
  5
C5
330
17
100
AcDbEntity
  8
0
100
AcDbLine
 10
705.937007874013
 20
717.0777679745893
 30
0.0
 11
723.6535433070846
 21
717.0777679745893
 31
0.0
  0
LINE
  5
C6
330
17
100
AcDbEntity
  8
0
100
AcDbLine
 10
723.6535433070846
 20
717.0777679745893
 30
0.0
 11
723.6535433070846
 21
610.7785553761664
 31
0.0
  0
LINE
  5
C7
330
17
100
AcDbEntity
  8
0
100
AcDbLine
 10
723.6535433070846
 20
610.7785553761664
 30
0.0
 11
705.937007874013
 21
610.7785553761664
 31
0.0
  0
LINE
  5
C8
330
17
100
AcDbEntity
  8
0
100
AcDbLine
 10
705.937007874013
 20
610.7785553761664
 30
0.0
 11
705.937007874013
 21
610.7785553761664
 31
0.0
  0
LINE
  5
C9
330
17
100
AcDbEntity
  8
0
100
AcDbLine
 10
250.03149606299135
 20
774.361232541527
 30
0.0
 11
214.5984251968483
 21
774.361232541527
 31
0.0
  0
LINE
  5
CA
330
17
100
AcDbEntity
  8
0
100
AcDbLine
 10
214.5984251968483
 20
774.361232541527
 30
0.0
 11
214.5984251968483
 21
738.9281616753806
 31
0.0
  0
LINE
  5
CB
330
17
100
AcDbEntity
  8
0
100
AcDbLine
 10
214.5984251968483
 20
738.9281616753806
 30
0.0
 11
250.03149606299135
 21
738.9281616753806
 31
0.0
  0
LINE
  5
CC
330
17
100
AcDbEntity
  8
0
100
AcDbLine
 10
250.03149606299135
 20
738.9281616753806
 30
0.0
 11
250.03149606299135
 21
774.361232541527
 31
0.0
  0
LINE
  5
CD
330
17
100
AcDbEntity
  8
0
100
AcDbLine
 10
250.03149606299135
 20
774.361232541527
 30
0.0
 11
250.03149606299135
 21
774.361232541527
 31
0.0
  0
LINE
  5
CE
330
17
100
AcDbEntity
  8
0
100
AcDbLine
 10
1422.866141732283
 20
128.88879159664475
 30
0.0
 11
1387.43307086614
 21
128.88879159664475
 31
0.0
  0
LINE
  5
CF
330
17
100
AcDbEntity
  8
0
100
AcDbLine
 10
1387.43307086614
 20
128.88879159664475
 30
0.0
 11
1387.43307086614
 21
93.4557207304947
 31
0.0
  0
LINE
  5
D0
330
17
100
AcDbEntity
  8
0
100
AcDbLine
 10
1387.43307086614
 20
93.4557207304947
 30
0.0
 11
1422.866141732283
 21
93.4557207304947
 31
0.0
  0
LINE
  5
D1
330
17
100
AcDbEntity
  8
0
100
AcDbLine
 10
1422.866141732283
 20
93.4557207304947
 30
0.0
 11
1422.866141732283
 21
128.88879159664475
 31
0.0
  0
LINE
  5
D2
330
17
100
AcDbEntity
  8
0
100
AcDbLine
 10
1422.866141732283
 20
128.88879159664475
 30
0.0
 11
1422.866141732283
 21
128.88879159664475
 31
0.0
  0
LINE
  5
D3
330
17
100
AcDbEntity
  8
0
100
AcDbLine
 10
214.5984251968483
 20
128.88879159664475
 30
0.0
 11
250.03149606299135
 21
128.88879159664475
 31
0.0
  0
LINE
  5
D4
330
17
100
AcDbEntity
  8
0
100
AcDbLine
 10
250.03149606299135
 20
128.88879159664475
 30
0.0
 11
250.03149606299135
 21
93.4557207304947
 31
0.0
  0
LINE
  5
D5
330
17
100
AcDbEntity
  8
0
100
AcDbLine
 10
250.03149606299135
 20
93.4557207304947
 30
0.0
 11
214.5984251968483
 21
93.4557207304947
 31
0.0
  0
LINE
  5
D6
330
17
100
AcDbEntity
  8
0
100
AcDbLine
 10
214.5984251968483
 20
93.4557207304947
 30
0.0
 11
214.5984251968483
 21
128.88879159664475
 31
0.0
  0
LINE
  5
D7
330
17
100
AcDbEntity
  8
0
100
AcDbLine
 10
214.5984251968483
 20
128.88879159664475
 30
0.0
 11
214.5984251968483
 21
128.88879159664475
 31
0.0
  0
LINE
  5
D8
330
17
100
AcDbEntity
  8
0
100
AcDbLine
 10
705.937007874013
 20
575.3454845100232
 30
0.0
 11
705.937007874013
 21
469.04627191159443
 31
0.0
  0
LINE
  5
D9
330
17
100
AcDbEntity
  8
0
100
AcDbLine
 10
705.937007874013
 20
469.04627191159443
 30
0.0
 11
723.6535433070846
 21
469.04627191159443
 31
0.0
  0
LINE
  5
DA
330
17
100
AcDbEntity
  8
0
100
AcDbLine
 10
723.6535433070846
 20
469.04627191159443
 30
0.0
 11
723.6535433070846
 21
575.3454845100232
 31
0.0
  0
LINE
  5
DB
330
17
100
AcDbEntity
  8
0
100
AcDbLine
 10
723.6535433070846
 20
575.3454845100232
 30
0.0
 11
705.937007874013
 21
575.3454845100232
 31
0.0
  0
LINE
  5
DC
330
17
100
AcDbEntity
  8
0
100
AcDbLine
 10
705.937007874013
 20
575.3454845100232
 30
0.0
 11
705.937007874013
 21
575.3454845100232
 31
0.0
  0
LINE
  5
DD
330
17
100
AcDbEntity
  8
0
100
AcDbLine
 10
1527.9842519685023
 20
426.5265868722331
 30
0.0
 11
1527.9842519685023
 21
412.35335852577555
 31
0.0
  0
LINE
  5
DE
330
17
100
AcDbEntity
  8
0
100
AcDbLine
 10
1527.9842519685023
 20
412.35335852577555
 30
0.0
 11
1421.685039370076
 21
412.35335852577555
 31
0.0
  0
LINE
  5
DF
330
17
100
AcDbEntity
  8
0
100
AcDbLine
 10
1421.685039370076
 20
412.35335852577555
 30
0.0
 11
1421.685039370076
 21
426.5265868722331
 31
0.0
  0
LINE
  5
E0
330
17
100
AcDbEntity
  8
0
100
AcDbLine
 10
1421.685039370076
 20
426.5265868722331
 30
0.0
 11
1527.9842519685023
 21
426.5265868722331
 31
0.0
  0
LINE
  5
E1
330
17
100
AcDbEntity
  8
0
100
AcDbLine
 10
1527.9842519685023
 20
426.5265868722331
 30
0.0
 11
1527.9842519685023
 21
426.5265868722331
 31
0.0
  0
LINE
  5
E2
330
17
100
AcDbEntity
  8
0
100
AcDbLine
 10
1268.1417322834645
 20
426.5265868722331
 30
0.0
 11
1268.1417322834645
 21
412.35335852577555
 31
0.0
  0
LINE
  5
E3
330
17
100
AcDbEntity
  8
0
100
AcDbLine
 10
1268.1417322834645
 20
412.35335852577555
 30
0.0
 11
1161.8425196850385
 21
412.35335852577555
 31
0.0
  0
LINE
  5
E4
330
17
100
AcDbEntity
  8
0
100
AcDbLine
 10
1161.8425196850385
 20
412.35335852577555
 30
0.0
 11
1161.8425196850385
 21
426.5265868722331
 31
0.0
  0
LINE
  5
E5
330
17
100
AcDbEntity
  8
0
100
AcDbLine
 10
1161.8425196850385
 20
426.5265868722331
 30
0.0
 11
1268.1417322834645
 21
426.5265868722331
 31
0.0
  0
LINE
  5
E6
330
17
100
AcDbEntity
  8
0
100
AcDbLine
 10
1268.1417322834645
 20
426.5265868722331
 30
0.0
 11
1268.1417322834645
 21
426.5265868722331
 31
0.0
  0
LINE
  5
E7
330
17
100
AcDbEntity
  8
0
100
AcDbLine
 10
2052.0
 20
412.35335852577555
 30
0.0
 11
1953.1811023622022
 21
412.35335852577555
 31
0.0
  0
LINE
  5
E8
330
17
100
AcDbEntity
  8
0
100
AcDbLine
 10
1953.1811023622022
 20
412.35335852577555
 30
0.0
 11
1953.1811023622022
 21
426.5265868722331
 31
0.0
  0
LINE
  5
E9
330
17
100
AcDbEntity
  8
0
100
AcDbLine
 10
1953.1811023622022
 20
426.5265868722331
 30
0.0
 11
2052.0
 21
426.5265868722331
 31
0.0
  0
LINE
  5
EA
330
17
100
AcDbEntity
  8
0
100
AcDbLine
 10
1799.63779527559
 20
426.5265868722331
 30
0.0
 11
1799.63779527559
 21
412.35335852577555
 31
0.0
  0
LINE
  5
EB
330
17
100
AcDbEntity
  8
0
100
AcDbLine
 10
1799.63779527559
 20
412.35335852577555
 30
0.0
 11
1693.3385826771648
 21
412.35335852577555
 31
0.0
  0
LINE
  5
EC
330
17
100
AcDbEntity
  8
0
100
AcDbLine
 10
1693.3385826771648
 20
412.35335852577555
 30
0.0
 11
1693.3385826771648
 21
426.5265868722331
 31
0.0
  0
LINE
  5
ED
330
17
100
AcDbEntity
  8
0
100
AcDbLine
 10
1693.3385826771648
 20
426.5265868722331
 30
0.0
 11
1799.63779527559
 21
426.5265868722331
 31
0.0
  0
LINE
  5
EE
330
17
100
AcDbEntity
  8
0
100
AcDbLine
 10
1799.63779527559
 20
426.5265868722331
 30
0.0
 11
1799.63779527559
 21
426.5265868722331
 31
0.0
  0
LINE
  5
EF
330
17
100
AcDbEntity
  8
0
100
AcDbLine
 10
1600.0314960629917
 20
447.7864293919115
 30
0.0
 11
1621.2913385826744
 21
447.7864293919115
 31
0.0
  0
LINE
  5
F0
330
17
100
AcDbEntity
  8
0
100
AcDbLine
 10
1621.2913385826744
 20
447.7864293919115
 30
0.0
 11
1621.2913385826744
 21
426.5265868722331
 31
0.0
  0
LINE
  5
F1
330
17
100
AcDbEntity
  8
0
100
AcDbLine
 10
1621.2913385826744
 20
426.5265868722331
 30
0.0
 11
1600.0314960629917
 21
426.5265868722331
 31
0.0
  0
LINE
  5
F2
330
17
100
AcDbEntity
  8
0
100
AcDbLine
 10
1600.0314960629917
 20
426.5265868722331
 30
0.0
 11
1600.0314960629917
 21
447.7864293919115
 31
0.0
  0
LINE
  5
F3
330
17
100
AcDbEntity
  8
0
100
AcDbLine
 10
1600.0314960629917
 20
447.7864293919115
 30
0.0
 11
1600.0314960629917
 21
447.7864293919115
 31
0.0
  0
LINE
  5
F4
330
17
100
AcDbEntity
  8
0
100
AcDbLine
 10
1068.535433070866
 20
447.7864293919115
 30
0.0
 11
1089.7952755905485
 21
447.7864293919115
 31
0.0
  0
LINE
  5
F5
330
17
100
AcDbEntity
  8
0
100
AcDbLine
 10
1089.7952755905485
 20
447.7864293919115
 30
0.0
 11
1089.7952755905485
 21
426.5265868722331
 31
0.0
  0
LINE
  5
F6
330
17
100
AcDbEntity
  8
0
100
AcDbLine
 10
1089.7952755905485
 20
426.5265868722331
 30
0.0
 11
1068.535433070866
 21
426.5265868722331
 31
0.0
  0
LINE
  5
F7
330
17
100
AcDbEntity
  8
0
100
AcDbLine
 10
1068.535433070866
 20
426.5265868722331
 30
0.0
 11
1068.535433070866
 21
447.7864293919115
 31
0.0
  0
LINE
  5
F8
330
17
100
AcDbEntity
  8
0
100
AcDbLine
 10
1068.535433070866
 20
447.7864293919115
 30
0.0
 11
1068.535433070866
 21
447.7864293919115
 31
0.0
  0
LINE
  5
F9
330
17
100
AcDbEntity
  8
0
100
AcDbLine
 10
547.6692913385796
 20
447.7864293919115
 30
0.0
 11
568.9291338582656
 21
447.7864293919115
 31
0.0
  0
LINE
  5
FA
330
17
100
AcDbEntity
  8
0
100
AcDbLine
 10
568.9291338582656
 20
447.7864293919115
 30
0.0
 11
568.9291338582656
 21
426.5265868722331
 31
0.0
  0
LINE
  5
FB
330
17
100
AcDbEntity
  8
0
100
AcDbLine
 10
568.9291338582656
 20
426.5265868722331
 30
0.0
 11
547.6692913385796
 21
426.5265868722331
 31
0.0
  0
LINE
  5
FC
330
17
100
AcDbEntity
  8
0
100
AcDbLine
 10
547.6692913385796
 20
426.5265868722331
 30
0.0
 11
547.6692913385796
 21
447.7864293919115
 31
0.0
  0
LINE
  5
FD
330
17
100
AcDbEntity
  8
0
100
AcDbLine
 10
547.6692913385796
 20
447.7864293919115
 30
0.0
 11
547.6692913385796
 21
447.7864293919115
 31
0.0
  0
LINE
  5
FE
330
17
100
AcDbEntity
  8
0
100
AcDbLine
 10
1600.0314960629917
 20
1086.7628073446708
 30
0.0
 11
1621.2913385826744
 21
1086.7628073446708
 31
0.0
  0
LINE
  5
FF
330
17
100
AcDbEntity
  8
0
100
AcDbLine
 10
1621.2913385826744
 20
1086.7628073446708
 30
0.0
 11
1621.2913385826744
 21
1065.5029648249883
 31
0.0
  0
LINE
  5
100
330
17
100
AcDbEntity
  8
0
100
AcDbLine
 10
1621.2913385826744
 20
1065.5029648249883
 30
0.0
 11
1600.0314960629917
 21
1065.5029648249883
 31
0.0
  0
LINE
  5
101
330
17
100
AcDbEntity
  8
0
100
AcDbLine
 10
1600.0314960629917
 20
1065.5029648249883
 30
0.0
 11
1600.0314960629917
 21
1086.7628073446708
 31
0.0
  0
LINE
  5
102
330
17
100
AcDbEntity
  8
0
100
AcDbLine
 10
1600.0314960629917
 20
1086.7628073446708
 30
0.0
 11
1600.0314960629917
 21
1086.7628073446708
 31
0.0
  0
LINE
  5
103
330
17
100
AcDbEntity
  8
0
100
AcDbLine
 10
1068.535433070866
 20
1086.7628073446708
 30
0.0
 11
1089.7952755905485
 21
1086.7628073446708
 31
0.0
  0
LINE
  5
104
330
17
100
AcDbEntity
  8
0
100
AcDbLine
 10
1089.7952755905485
 20
1086.7628073446708
 30
0.0
 11
1089.7952755905485
 21
1065.5029648249883
 31
0.0
  0
LINE
  5
105
330
17
100
AcDbEntity
  8
0
100
AcDbLine
 10
1089.7952755905485
 20
1065.5029648249883
 30
0.0
 11
1068.535433070866
 21
1065.5029648249883
 31
0.0
  0
LINE
  5
106
330
17
100
AcDbEntity
  8
0
100
AcDbLine
 10
1068.535433070866
 20
1065.5029648249883
 30
0.0
 11
1068.535433070866
 21
1086.7628073446708
 31
0.0
  0
LINE
  5
107
330
17
100
AcDbEntity
  8
0
100
AcDbLine
 10
1068.535433070866
 20
1086.7628073446708
 30
0.0
 11
1068.535433070866
 21
1086.7628073446708
 31
0.0
  0
LINE
  5
108
330
17
100
AcDbEntity
  8
0
100
AcDbLine
 10
547.6692913385796
 20
1086.7628073446708
 30
0.0
 11
568.9291338582656
 21
1086.7628073446708
 31
0.0
  0
LINE
  5
109
330
17
100
AcDbEntity
  8
0
100
AcDbLine
 10
568.9291338582656
 20
1086.7628073446708
 30
0.0
 11
568.9291338582656
 21
1065.5029648249883
 31
0.0
  0
LINE
  5
10A
330
17
100
AcDbEntity
  8
0
100
AcDbLine
 10
568.9291338582656
 20
1065.5029648249883
 30
0.0
 11
547.6692913385796
 21
1065.5029648249883
 31
0.0
  0
LINE
  5
10B
330
17
100
AcDbEntity
  8
0
100
AcDbLine
 10
547.6692913385796
 20
1065.5029648249883
 30
0.0
 11
547.6692913385796
 21
1086.7628073446708
 31
0.0
  0
LINE
  5
10C
330
17
100
AcDbEntity
  8
0
100
AcDbLine
 10
547.6692913385796
 20
1086.7628073446708
 30
0.0
 11
547.6692913385796
 21
1086.7628073446708
 31
0.0
  0
LINE
  5
10D
330
17
100
AcDbEntity
  8
0
100
AcDbLine
 10
1600.0314960629917
 20
1736.3691065572693
 30
0.0
 11
1621.2913385826744
 21
1736.3691065572693
 31
0.0
  0
LINE
  5
10E
330
17
100
AcDbEntity
  8
0
100
AcDbLine
 10
1621.2913385826744
 20
1736.3691065572693
 30
0.0
 11
1621.2913385826744
 21
1715.1092640375864
 31
0.0
  0
LINE
  5
10F
330
17
100
AcDbEntity
  8
0
100
AcDbLine
 10
1621.2913385826744
 20
1715.1092640375864
 30
0.0
 11
1600.0314960629917
 21
1715.1092640375864
 31
0.0
  0
LINE
  5
110
330
17
100
AcDbEntity
  8
0
100
AcDbLine
 10
1600.0314960629917
 20
1715.1092640375864
 30
0.0
 11
1600.0314960629917
 21
1736.3691065572693
 31
0.0
  0
LINE
  5
111
330
17
100
AcDbEntity
  8
0
100
AcDbLine
 10
1600.0314960629917
 20
1736.3691065572693
 30
0.0
 11
1600.0314960629917
 21
1736.3691065572693
 31
0.0
  0
LINE
  5
112
330
17
100
AcDbEntity
  8
0
100
AcDbLine
 10
1068.535433070866
 20
1736.3691065572693
 30
0.0
 11
1089.7952755905485
 21
1736.3691065572693
 31
0.0
  0
LINE
  5
113
330
17
100
AcDbEntity
  8
0
100
AcDbLine
 10
1089.7952755905485
 20
1736.3691065572693
 30
0.0
 11
1089.7952755905485
 21
1715.1092640375864
 31
0.0
  0
LINE
  5
114
330
17
100
AcDbEntity
  8
0
100
AcDbLine
 10
1089.7952755905485
 20
1715.1092640375864
 30
0.0
 11
1068.535433070866
 21
1715.1092640375864
 31
0.0
  0
LINE
  5
115
330
17
100
AcDbEntity
  8
0
100
AcDbLine
 10
1068.535433070866
 20
1715.1092640375864
 30
0.0
 11
1068.535433070866
 21
1736.3691065572693
 31
0.0
  0
LINE
  5
116
330
17
100
AcDbEntity
  8
0
100
AcDbLine
 10
1068.535433070866
 20
1736.3691065572693
 30
0.0
 11
1068.535433070866
 21
1736.3691065572693
 31
0.0
  0
LINE
  5
117
330
17
100
AcDbEntity
  8
0
100
AcDbLine
 10
547.6692913385796
 20
1736.3691065572693
 30
0.0
 11
568.9291338582656
 21
1736.3691065572693
 31
0.0
  0
LINE
  5
118
330
17
100
AcDbEntity
  8
0
100
AcDbLine
 10
568.9291338582656
 20
1736.3691065572693
 30
0.0
 11
568.9291338582656
 21
1715.1092640375864
 31
0.0
  0
LINE
  5
119
330
17
100
AcDbEntity
  8
0
100
AcDbLine
 10
568.9291338582656
 20
1715.1092640375864
 30
0.0
 11
547.6692913385796
 21
1715.1092640375864
 31
0.0
  0
LINE
  5
11A
330
17
100
AcDbEntity
  8
0
100
AcDbLine
 10
547.6692913385796
 20
1715.1092640375864
 30
0.0
 11
547.6692913385796
 21
1736.3691065572693
 31
0.0
  0
LINE
  5
11B
330
17
100
AcDbEntity
  8
0
100
AcDbLine
 10
547.6692913385796
 20
1736.3691065572693
 30
0.0
 11
547.6692913385796
 21
1736.3691065572693
 31
0.0
  0
LINE
  5
11C
330
17
100
AcDbEntity
  8
0
100
AcDbLine
 10
717.7480314960613
 20
469.0462719115976
 30
0.0
 11
717.7480314960613
 21
477.3139884470297
 31
0.0
  0
LINE
  5
11D
330
17
100
AcDbEntity
  8
0
100
AcDbLine
 10
717.7480314960613
 20
477.3139884470297
 30
0.0
 11
723.6535433070846
 21
477.3139884470297
 31
0.0
  0
LINE
  5
11E
330
17
100
AcDbEntity
  8
0
100
AcDbLine
 10
723.6535433070846
 20
477.3139884470297
 30
0.0
 11
723.6535433070846
 21
477.3139884470297
 31
0.0
  0
LINE
  5
11F
330
17
100
AcDbEntity
  8
0
100
AcDbLine
 10
720.7007874015732
 20
477.3139884470297
 30
0.0
 11
720.7007874015732
 21
567.0777679745916
 31
0.0
  0
LINE
  5
120
330
17
100
AcDbEntity
  8
0
100
AcDbLine
 10
720.7007874015732
 20
567.0777679745916
 30
0.0
 11
717.7480314960613
 21
567.0777679745916
 31
0.0
  0
LINE
  5
121
330
17
100
AcDbEntity
  8
0
100
AcDbLine
 10
717.7480314960613
 20
567.0777679745916
 30
0.0
 11
717.7480314960613
 21
477.3139884470297
 31
0.0
  0
LINE
  5
122
330
17
100
AcDbEntity
  8
0
100
AcDbLine
 10
717.7480314960613
 20
477.3139884470297
 30
0.0
 11
720.7007874015732
 21
477.3139884470297
 31
0.0
  0
LINE
  5
123
330
17
100
AcDbEntity
  8
0
100
AcDbLine
 10
720.7007874015732
 20
477.3139884470297
 30
0.0
 11
720.7007874015732
 21
477.3139884470297
 31
0.0
  0
LINE
  5
124
330
17
100
AcDbEntity
  8
0
100
AcDbLine
 10
723.6535433070846
 20
610.7785553761664
 30
0.0
 11
723.6535433070846
 21
567.0777679745916
 31
0.0
  0
LINE
  5
125
330
17
100
AcDbEntity
  8
0
100
AcDbLine
 10
723.6535433070846
 20
567.0777679745916
 30
0.0
 11
717.7480314960613
 21
567.0777679745916
 31
0.0
  0
LINE
  5
126
330
17
100
AcDbEntity
  8
0
100
AcDbLine
 10
717.7480314960613
 20
567.0777679745916
 30
0.0
 11
717.7480314960613
 21
575.3454845100232
 31
0.0
  0
LINE
  5
127
330
17
100
AcDbEntity
  8
0
100
AcDbLine
 10
723.6535433070846
 20
575.3454845100232
 30
0.0
 11
723.6535433070846
 21
575.3454845100232
 31
0.0
  0
LINE
  5
128
330
17
100
AcDbEntity
  8
0
100
AcDbLine
 10
1421.6850393700793
 20
418.2588703367951
 30
0.0
 11
1429.9527559055125
 21
418.2588703367951
 31
0.0
  0
LINE
  5
129
330
17
100
AcDbEntity
  8
0
100
AcDbLine
 10
1429.9527559055125
 20
418.2588703367951
 30
0.0
 11
1429.9527559055125
 21
412.35335852577236
 31
0.0
  0
LINE
  5
12A
330
17
100
AcDbEntity
  8
0
100
AcDbLine
 10
1429.9527559055125
 20
412.35335852577236
 30
0.0
 11
1429.9527559055125
 21
412.35335852577236
 31
0.0
  0
LINE
  5
12B
330
17
100
AcDbEntity
  8
0
100
AcDbLine
 10
1429.9527559055125
 20
415.30611443128373
 30
0.0
 11
1519.7165354330727
 21
415.30611443128373
 31
0.0
  0
LINE
  5
12C
330
17
100
AcDbEntity
  8
0
100
AcDbLine
 10
1519.7165354330727
 20
415.30611443128373
 30
0.0
 11
1519.7165354330727
 21
418.2588703367951
 31
0.0
  0
LINE
  5
12D
330
17
100
AcDbEntity
  8
0
100
AcDbLine
 10
1519.7165354330727
 20
418.2588703367951
 30
0.0
 11
1429.9527559055125
 21
418.2588703367951
 31
0.0
  0
LINE
  5
12E
330
17
100
AcDbEntity
  8
0
100
AcDbLine
 10
1429.9527559055125
 20
418.2588703367951
 30
0.0
 11
1429.9527559055125
 21
415.30611443128373
 31
0.0
  0
LINE
  5
12F
330
17
100
AcDbEntity
  8
0
100
AcDbLine
 10
1429.9527559055125
 20
415.30611443128373
 30
0.0
 11
1429.9527559055125
 21
415.30611443128373
 31
0.0
  0
LINE
  5
130
330
17
100
AcDbEntity
  8
0
100
AcDbLine
 10
1701.6062992126003
 20
412.35335852577236
 30
0.0
 11
1519.7165354330727
 21
412.35335852577236
 31
0.0
  0
LINE
  5
131
330
17
100
AcDbEntity
  8
0
100
AcDbLine
 10
1519.7165354330727
 20
412.35335852577236
 30
0.0
 11
1519.7165354330727
 21
418.2588703367951
 31
0.0
  0
LINE
  5
132
330
17
100
AcDbEntity
  8
0
100
AcDbLine
 10
1519.7165354330727
 20
418.2588703367951
 30
0.0
 11
1527.9842519685058
 21
418.2588703367951
 31
0.0
  0
LINE
  5
133
330
17
100
AcDbEntity
  8
0
100
AcDbLine
 10
1527.9842519685058
 20
412.35335852577236
 30
0.0
 11
1527.9842519685058
 21
412.35335852577236
 31
0.0
  0
LINE
  5
134
330
17
100
AcDbEntity
  8
0
100
AcDbLine
 10
1161.8425196850417
 20
418.2588703367951
 30
0.0
 11
1170.1102362204742
 21
418.2588703367951
 31
0.0
  0
LINE
  5
135
330
17
100
AcDbEntity
  8
0
100
AcDbLine
 10
1170.1102362204742
 20
418.2588703367951
 30
0.0
 11
1170.1102362204742
 21
412.35335852577236
 31
0.0
  0
LINE
  5
136
330
17
100
AcDbEntity
  8
0
100
AcDbLine
 10
1170.1102362204742
 20
412.35335852577236
 30
0.0
 11
1170.1102362204742
 21
412.35335852577236
 31
0.0
  0
LINE
  5
137
330
17
100
AcDbEntity
  8
0
100
AcDbLine
 10
1170.1102362204742
 20
415.30611443128373
 30
0.0
 11
1259.874015748035
 21
415.30611443128373
 31
0.0
  0
LINE
  5
138
330
17
100
AcDbEntity
  8
0
100
AcDbLine
 10
1259.874015748035
 20
415.30611443128373
 30
0.0
 11
1259.874015748035
 21
418.2588703367951
 31
0.0
  0
LINE
  5
139
330
17
100
AcDbEntity
  8
0
100
AcDbLine
 10
1259.874015748035
 20
418.2588703367951
 30
0.0
 11
1170.1102362204742
 21
418.2588703367951
 31
0.0
  0
LINE
  5
13A
330
17
100
AcDbEntity
  8
0
100
AcDbLine
 10
1170.1102362204742
 20
418.2588703367951
 30
0.0
 11
1170.1102362204742
 21
415.30611443128373
 31
0.0
  0
LINE
  5
13B
330
17
100
AcDbEntity
  8
0
100
AcDbLine
 10
1170.1102362204742
 20
415.30611443128373
 30
0.0
 11
1170.1102362204742
 21
415.30611443128373
 31
0.0
  0
LINE
  5
13C
330
17
100
AcDbEntity
  8
0
100
AcDbLine
 10
1429.9527559055125
 20
412.35335852577236
 30
0.0
 11
1259.874015748035
 21
412.35335852577236
 31
0.0
  0
LINE
  5
13D
330
17
100
AcDbEntity
  8
0
100
AcDbLine
 10
1259.874015748035
 20
412.35335852577236
 30
0.0
 11
1259.874015748035
 21
418.2588703367951
 31
0.0
  0
LINE
  5
13E
330
17
100
AcDbEntity
  8
0
100
AcDbLine
 10
1259.874015748035
 20
418.2588703367951
 30
0.0
 11
1268.1417322834677
 21
418.2588703367951
 31
0.0
  0
LINE
  5
13F
330
17
100
AcDbEntity
  8
0
100
AcDbLine
 10
1268.1417322834677
 20
412.35335852577236
 30
0.0
 11
1268.1417322834677
 21
412.35335852577236
 31
0.0
  0
LINE
  5
140
330
17
100
AcDbEntity
  8
0
100
AcDbLine
 10
1953.1811023622056
 20
418.2588703367951
 30
0.0
 11
1961.4488188976386
 21
418.2588703367951
 31
0.0
  0
LINE
  5
141
330
17
100
AcDbEntity
  8
0
100
AcDbLine
 10
1961.4488188976386
 20
418.2588703367951
 30
0.0
 11
1961.4488188976386
 21
412.35335852577236
 31
0.0
  0
LINE
  5
142
330
17
100
AcDbEntity
  8
0
100
AcDbLine
 10
1961.4488188976386
 20
412.35335852577236
 30
0.0
 11
1961.4488188976386
 21
412.35335852577236
 31
0.0
  0
LINE
  5
143
330
17
100
AcDbEntity
  8
0
100
AcDbLine
 10
1961.4488188976386
 20
415.30611443128373
 30
0.0
 11
2051.2125984252
 21
415.30611443128373
 31
0.0
  0
LINE
  5
144
330
17
100
AcDbEntity
  8
0
100
AcDbLine
 10
2051.2125984252
 20
415.30611443128373
 30
0.0
 11
2051.2125984252
 21
418.2588703367951
 31
0.0
  0
LINE
  5
145
330
17
100
AcDbEntity
  8
0
100
AcDbLine
 10
2051.2125984252
 20
418.2588703367951
 30
0.0
 11
1961.4488188976386
 21
418.2588703367951
 31
0.0
  0
LINE
  5
146
330
17
100
AcDbEntity
  8
0
100
AcDbLine
 10
1961.4488188976386
 20
418.2588703367951
 30
0.0
 11
1961.4488188976386
 21
415.30611443128373
 31
0.0
  0
LINE
  5
147
330
17
100
AcDbEntity
  8
0
100
AcDbLine
 10
1961.4488188976386
 20
415.30611443128373
 30
0.0
 11
1961.4488188976386
 21
415.30611443128373
 31
0.0
  0
LINE
  5
148
330
17
100
AcDbEntity
  8
0
100
AcDbLine
 10
2052.0
 20
412.35335852577236
 30
0.0
 11
2051.2125984252
 21
412.35335852577236
 31
0.0
  0
LINE
  5
149
330
17
100
AcDbEntity
  8
0
100
AcDbLine
 10
2051.2125984252
 20
412.35335852577236
 30
0.0
 11
2051.2125984252
 21
418.2588703367951
 31
0.0
  0
LINE
  5
14A
330
17
100
AcDbEntity
  8
0
100
AcDbLine
 10
2051.2125984252
 20
418.2588703367951
 30
0.0
 11
2052.0
 21
418.2588703367951
 31
0.0
  0
LINE
  5
14B
330
17
100
AcDbEntity
  8
0
100
AcDbLine
 10
1693.3385826771673
 20
418.2588703367951
 30
0.0
 11
1701.6062992126003
 21
418.2588703367951
 31
0.0
  0
LINE
  5
14C
330
17
100
AcDbEntity
  8
0
100
AcDbLine
 10
1701.6062992126003
 20
418.2588703367951
 30
0.0
 11
1701.6062992126003
 21
412.35335852577236
 31
0.0
  0
LINE
  5
14D
330
17
100
AcDbEntity
  8
0
100
AcDbLine
 10
1701.6062992126003
 20
412.35335852577236
 30
0.0
 11
1701.6062992126003
 21
412.35335852577236
 31
0.0
  0
LINE
  5
14E
330
17
100
AcDbEntity
  8
0
100
AcDbLine
 10
1701.6062992126003
 20
415.30611443128373
 30
0.0
 11
1791.3700787401617
 21
415.30611443128373
 31
0.0
  0
LINE
  5
14F
330
17
100
AcDbEntity
  8
0
100
AcDbLine
 10
1791.3700787401617
 20
415.30611443128373
 30
0.0
 11
1791.3700787401617
 21
418.2588703367951
 31
0.0
  0
LINE
  5
150
330
17
100
AcDbEntity
  8
0
100
AcDbLine
 10
1791.3700787401617
 20
418.2588703367951
 30
0.0
 11
1701.6062992126003
 21
418.2588703367951
 31
0.0
  0
LINE
  5
151
330
17
100
AcDbEntity
  8
0
100
AcDbLine
 10
1701.6062992126003
 20
418.2588703367951
 30
0.0
 11
1701.6062992126003
 21
415.30611443128373
 31
0.0
  0
LINE
  5
152
330
17
100
AcDbEntity
  8
0
100
AcDbLine
 10
1701.6062992126003
 20
415.30611443128373
 30
0.0
 11
1701.6062992126003
 21
415.30611443128373
 31
0.0
  0
LINE
  5
153
330
17
100
AcDbEntity
  8
0
100
AcDbLine
 10
1961.4488188976386
 20
412.35335852577236
 30
0.0
 11
1791.3700787401617
 21
412.35335852577236
 31
0.0
  0
LINE
  5
154
330
17
100
AcDbEntity
  8
0
100
AcDbLine
 10
1791.3700787401617
 20
412.35335852577236
 30
0.0
 11
1791.3700787401617
 21
418.2588703367951
 31
0.0
  0
LINE
  5
155
330
17
100
AcDbEntity
  8
0
100
AcDbLine
 10
1791.3700787401617
 20
418.2588703367951
 30
0.0
 11
1799.6377952755936
 21
418.2588703367951
 31
0.0
  0
LINE
  5
156
330
17
100
AcDbEntity
  8
0
100
AcDbLine
 10
1799.6377952755936
 20
412.35335852577236
 30
0.0
 11
1799.6377952755936
 21
412.35335852577236
 31
0.0
  0
LINE
  5
157
330
17
100
AcDbEntity
  8
0
100
AcDbLine
 10
814.5624936786188
 20
770.2273742738071
 30
0.0
 11
814.5427785399045
 21
770.7542724484629
 31
0.0
  0
LINE
  5
158
330
17
100
AcDbEntity
  8
0
100
AcDbLine
 10
814.5427785399045
 20
770.7542724484629
 30
0.0
 11
814.4837433788138
 21
771.2782239947969
 31
0.0
  0
LINE
  5
159
330
17
100
AcDbEntity
  8
0
100
AcDbLine
 10
814.4837433788138
 20
771.2782239947969
 30
0.0
 11
814.3857183439147
 21
771.7962987632268
 31
0.0
  0
LINE
  5
15A
330
17
100
AcDbEntity
  8
0
100
AcDbLine
 10
814.3857183439147
 20
771.7962987632268
 30
0.0
 11
814.2492516309651
 21
772.3055994694969
 31
0.0
  0
LINE
  5
15B
330
17
100
AcDbEntity
  8
0
100
AcDbLine
 10
814.2492516309651
 20
772.3055994694969
 30
0.0
 11
814.0751064171795
 21
772.8032778974662
 31
0.0
  0
LINE
  5
15C
330
17
100
AcDbEntity
  8
0
100
AcDbLine
 10
814.0751064171795
 20
772.8032778974662
 30
0.0
 11
813.8642565932338
 21
773.286550827489
 31
0.0
  0
LINE
  5
15D
330
17
100
AcDbEntity
  8
0
100
AcDbLine
 10
813.8642565932338
 20
773.286550827489
 30
0.0
 11
813.6178813168715
 21
773.7527156013061
 31
0.0
  0
LINE
  5
15E
330
17
100
AcDbEntity
  8
0
100
AcDbLine
 10
813.6178813168715
 20
773.7527156013061
 30
0.0
 11
813.3373584185775
 21
774.1991652364086
 31
0.0
  0
LINE
  5
15F
330
17
100
AcDbEntity
  8
0
100
AcDbLine
 10
813.3373584185775
 20
774.1991652364086
 30
0.0
 11
813.0242566961897
 21
774.6234030053411
 31
0.0
  0
LINE
  5
160
330
17
100
AcDbEntity
  8
0
100
AcDbLine
 10
813.0242566961897
 20
774.6234030053411
 30
0.0
 11
812.6803271415453
 21
775.023056398411
 31
0.0
  0
LINE
  5
161
330
17
100
AcDbEntity
  8
0
100
AcDbLine
 10
812.6803271415453
 20
775.023056398411
 30
0.0
 11
812.3074931482248
 21
775.3958903917314
 31
0.0
  0
LINE
  5
162
330
17
100
AcDbEntity
  8
0
100
AcDbLine
 10
812.3074931482248
 20
775.3958903917314
 30
0.0
 11
811.9078397551546
 21
775.739819946376
 31
0.0
  0
LINE
  5
163
330
17
100
AcDbEntity
  8
0
100
AcDbLine
 10
811.9078397551546
 20
775.739819946376
 30
0.0
 11
811.4836019862225
 21
776.0529216687637
 31
0.0
  0
LINE
  5
164
330
17
100
AcDbEntity
  8
0
100
AcDbLine
 10
811.4836019862225
 20
776.0529216687637
 30
0.0
 11
811.0371523511199
 21
776.3334445670575
 31
0.0
  0
LINE
  5
165
330
17
100
AcDbEntity
  8
0
100
AcDbLine
 10
811.0371523511199
 20
776.3334445670575
 30
0.0
 11
810.5709875773028
 21
776.5798198434195
 31
0.0
  0
LINE
  5
166
330
17
100
AcDbEntity
  8
0
100
AcDbLine
 10
810.5709875773028
 20
776.5798198434195
 30
0.0
 11
810.0877146472804
 21
776.7906696673654
 31
0.0
  0
LINE
  5
167
330
17
100
AcDbEntity
  8
0
100
AcDbLine
 10
810.0877146472804
 20
776.7906696673654
 30
0.0
 11
809.590036219311
 21
776.9648148811511
 31
0.0
  0
LINE
  5
168
330
17
100
AcDbEntity
  8
0
100
AcDbLine
 10
809.590036219311
 20
776.9648148811511
 30
0.0
 11
809.0807355130408
 21
777.1012815941008
 31
0.0
  0
LINE
  5
169
330
17
100
AcDbEntity
  8
0
100
AcDbLine
 10
809.0807355130408
 20
777.1012815941008
 30
0.0
 11
808.562660744611
 21
777.1993066289997
 31
0.0
  0
LINE
  5
16A
330
17
100
AcDbEntity
  8
0
100
AcDbLine
 10
808.562660744611
 20
777.1993066289997
 30
0.0
 11
808.038709198277
 21
777.2583417900901
 31
0.0
  0
LINE
  5
16B
330
17
100
AcDbEntity
  8
0
100
AcDbLine
 10
808.038709198277
 20
777.2583417900901
 30
0.0
 11
807.511811023621
 21
777.2780569288047
 31
0.0
  0
LINE
  5
16C
330
17
100
AcDbEntity
  8
0
100
AcDbLine
 10
807.511811023621
 20
777.2780569288047
 30
0.0
 11
806.9849128489649
 21
777.2583417900901
 31
0.0
  0
LINE
  5
16D
330
17
100
AcDbEntity
  8
0
100
AcDbLine
 10
806.9849128489649
 20
777.2583417900901
 30
0.0
 11
806.460961302631
 21
777.1993066289997
 31
0.0
  0
LINE
  5
16E
330
17
100
AcDbEntity
  8
0
100
AcDbLine
 10
806.460961302631
 20
777.1993066289997
 30
0.0
 11
805.9428865342013
 21
777.1012815941008
 31
0.0
  0
LINE
  5
16F
330
17
100
AcDbEntity
  8
0
100
AcDbLine
 10
805.9428865342013
 20
777.1012815941008
 30
0.0
 11
805.4335858279311
 21
776.9648148811511
 31
0.0
  0
LINE
  5
170
330
17
100
AcDbEntity
  8
0
100
AcDbLine
 10
805.4335858279311
 20
776.9648148811511
 30
0.0
 11
804.9359073999617
 21
776.7906696673654
 31
0.0
  0
LINE
  5
171
330
17
100
AcDbEntity
  8
0
100
AcDbLine
 10
804.9359073999617
 20
776.7906696673654
 30
0.0
 11
804.4526344699393
 21
776.5798198434195
 31
0.0
  0
LINE
  5
172
330
17
100
AcDbEntity
  8
0
100
AcDbLine
 10
804.4526344699393
 20
776.5798198434195
 30
0.0
 11
803.986469696122
 21
776.3334445670575
 31
0.0
  0
LINE
  5
173
330
17
100
AcDbEntity
  8
0
100
AcDbLine
 10
803.986469696122
 20
776.3334445670575
 30
0.0
 11
803.5400200610193
 21
776.0529216687637
 31
0.0
  0
LINE
  5
174
330
17
100
AcDbEntity
  8
0
100
AcDbLine
 10
803.5400200610193
 20
776.0529216687637
 30
0.0
 11
803.1157822920876
 21
775.739819946376
 31
0.0
  0
LINE
  5
175
330
17
100
AcDbEntity
  8
0
100
AcDbLine
 10
803.1157822920876
 20
775.739819946376
 30
0.0
 11
802.7161288990172
 21
775.3958903917314
 31
0.0
  0
LINE
  5
176
330
17
100
AcDbEntity
  8
0
100
AcDbLine
 10
802.7161288990172
 20
775.3958903917314
 30
0.0
 11
802.3432949056967
 21
775.023056398411
 31
0.0
  0
LINE
  5
177
330
17
100
AcDbEntity
  8
0
100
AcDbLine
 10
802.3432949056967
 20
775.023056398411
 30
0.0
 11
801.9993653510525
 21
774.6234030053411
 31
0.0
  0
LINE
  5
178
330
17
100
AcDbEntity
  8
0
100
AcDbLine
 10
801.9993653510525
 20
774.6234030053411
 30
0.0
 11
801.6862636286645
 21
774.1991652364086
 31
0.0
  0
LINE
  5
179
330
17
100
AcDbEntity
  8
0
100
AcDbLine
 10
801.6862636286645
 20
774.1991652364086
 30
0.0
 11
801.4057407303704
 21
773.7527156013061
 31
0.0
  0
LINE
  5
17A
330
17
100
AcDbEntity
  8
0
100
AcDbLine
 10
801.4057407303704
 20
773.7527156013061
 30
0.0
 11
801.1593654540083
 21
773.286550827489
 31
0.0
  0
LINE
  5
17B
330
17
100
AcDbEntity
  8
0
100
AcDbLine
 10
801.1593654540083
 20
773.286550827489
 30
0.0
 11
800.9485156300624
 21
772.8032778974662
 31
0.0
  0
LINE
  5
17C
330
17
100
AcDbEntity
  8
0
100
AcDbLine
 10
800.9485156300624
 20
772.8032778974662
 30
0.0
 11
800.7743704162768
 21
772.3055994694969
 31
0.0
  0
LINE
  5
17D
330
17
100
AcDbEntity
  8
0
100
AcDbLine
 10
800.7743704162768
 20
772.3055994694969
 30
0.0
 11
800.6379037033274
 21
771.7962987632268
 31
0.0
  0
LINE
  5
17E
330
17
100
AcDbEntity
  8
0
100
AcDbLine
 10
800.6379037033274
 20
771.7962987632268
 30
0.0
 11
800.5398786684283
 21
771.2782239947969
 31
0.0
  0
LINE
  5
17F
330
17
100
AcDbEntity
  8
0
100
AcDbLine
 10
800.5398786684283
 20
771.2782239947969
 30
0.0
 11
800.4808435073377
 21
770.7542724484629
 31
0.0
  0
LINE
  5
180
330
17
100
AcDbEntity
  8
0
100
AcDbLine
 10
800.4808435073377
 20
770.7542724484629
 30
0.0
 11
800.4611283686231
 21
770.2273742738071
 31
0.0
  0
LINE
  5
181
330
17
100
AcDbEntity
  8
0
100
AcDbLine
 10
800.4611283686231
 20
770.2273742738071
 30
0.0
 11
800.4808435073377
 21
769.7004760991508
 31
0.0
  0
LINE
  5
182
330
17
100
AcDbEntity
  8
0
100
AcDbLine
 10
800.4808435073377
 20
769.7004760991508
 30
0.0
 11
800.5398786684283
 21
769.1765245528172
 31
0.0
  0
LINE
  5
183
330
17
100
AcDbEntity
  8
0
100
AcDbLine
 10
800.5398786684283
 20
769.1765245528172
 30
0.0
 11
800.6379037033274
 21
768.6584497843869
 31
0.0
  0
LINE
  5
184
330
17
100
AcDbEntity
  8
0
100
AcDbLine
 10
800.6379037033274
 20
768.6584497843869
 30
0.0
 11
800.7743704162768
 21
768.1491490781173
 31
0.0
  0
LINE
  5
185
330
17
100
AcDbEntity
  8
0
100
AcDbLine
 10
800.7743704162768
 20
768.1491490781173
 30
0.0
 11
800.9485156300624
 21
767.651470650148
 31
0.0
  0
LINE
  5
186
330
17
100
AcDbEntity
  8
0
100
AcDbLine
 10
800.9485156300624
 20
767.651470650148
 30
0.0
 11
801.1593654540083
 21
767.1681977201256
 31
0.0
  0
LINE
  5
187
330
17
100
AcDbEntity
  8
0
100
AcDbLine
 10
801.1593654540083
 20
767.1681977201256
 30
0.0
 11
801.4057407303704
 21
766.702032946308
 31
0.0
  0
LINE
  5
188
330
17
100
AcDbEntity
  8
0
100
AcDbLine
 10
801.4057407303704
 20
766.702032946308
 30
0.0
 11
801.6862636286645
 21
766.2555833112051
 31
0.0
  0
LINE
  5
189
330
17
100
AcDbEntity
  8
0
100
AcDbLine
 10
801.6862636286645
 20
766.2555833112051
 30
0.0
 11
801.9993653510525
 21
765.8313455422735
 31
0.0
  0
LINE
  5
18A
330
17
100
AcDbEntity
  8
0
100
AcDbLine
 10
801.9993653510525
 20
765.8313455422735
 30
0.0
 11
802.3432949056967
 21
765.4316921492036
 31
0.0
  0
LINE
  5
18B
330
17
100
AcDbEntity
  8
0
100
AcDbLine
 10
802.3432949056967
 20
765.4316921492036
 30
0.0
 11
802.7161288990172
 21
765.0588581558827
 31
0.0
  0
LINE
  5
18C
330
17
100
AcDbEntity
  8
0
100
AcDbLine
 10
802.7161288990172
 20
765.0588581558827
 30
0.0
 11
803.1157822920876
 21
764.7149286012382
 31
0.0
  0
LINE
  5
18D
330
17
100
AcDbEntity
  8
0
100
AcDbLine
 10
803.1157822920876
 20
764.7149286012382
 30
0.0
 11
803.5400200610193
 21
764.4018268788504
 31
0.0
  0
LINE
  5
18E
330
17
100
AcDbEntity
  8
0
100
AcDbLine
 10
803.5400200610193
 20
764.4018268788504
 30
0.0
 11
803.986469696122
 21
764.1213039805566
 31
0.0
  0
LINE
  5
18F
330
17
100
AcDbEntity
  8
0
100
AcDbLine
 10
803.986469696122
 20
764.1213039805566
 30
0.0
 11
804.4526344699393
 21
763.8749287041946
 31
0.0
  0
LINE
  5
190
330
17
100
AcDbEntity
  8
0
100
AcDbLine
 10
804.4526344699393
 20
763.8749287041946
 30
0.0
 11
804.9359073999617
 21
763.6640788802483
 31
0.0
  0
LINE
  5
191
330
17
100
AcDbEntity
  8
0
100
AcDbLine
 10
804.9359073999617
 20
763.6640788802483
 30
0.0
 11
805.4335858279311
 21
763.4899336664625
 31
0.0
  0
LINE
  5
192
330
17
100
AcDbEntity
  8
0
100
AcDbLine
 10
805.4335858279311
 20
763.4899336664625
 30
0.0
 11
805.9428865342013
 21
763.3534669535134
 31
0.0
  0
LINE
  5
193
330
17
100
AcDbEntity
  8
0
100
AcDbLine
 10
805.9428865342013
 20
763.3534669535134
 30
0.0
 11
806.460961302631
 21
763.2554419186145
 31
0.0
  0
LINE
  5
194
330
17
100
AcDbEntity
  8
0
100
AcDbLine
 10
806.460961302631
 20
763.2554419186145
 30
0.0
 11
806.9849128489649
 21
763.1964067575236
 31
0.0
  0
LINE
  5
195
330
17
100
AcDbEntity
  8
0
100
AcDbLine
 10
806.9849128489649
 20
763.1964067575236
 30
0.0
 11
807.511811023621
 21
763.176691618809
 31
0.0
  0
LINE
  5
196
330
17
100
AcDbEntity
  8
0
100
AcDbLine
 10
807.511811023621
 20
763.176691618809
 30
0.0
 11
808.038709198277
 21
763.1964067575236
 31
0.0
  0
LINE
  5
197
330
17
100
AcDbEntity
  8
0
100
AcDbLine
 10
808.038709198277
 20
763.1964067575236
 30
0.0
 11
808.562660744611
 21
763.2554419186145
 31
0.0
  0
LINE
  5
198
330
17
100
AcDbEntity
  8
0
100
AcDbLine
 10
808.562660744611
 20
763.2554419186145
 30
0.0
 11
809.0807355130408
 21
763.3534669535134
 31
0.0
  0
LINE
  5
199
330
17
100
AcDbEntity
  8
0
100
AcDbLine
 10
809.0807355130408
 20
763.3534669535134
 30
0.0
 11
809.590036219311
 21
763.4899336664625
 31
0.0
  0
LINE
  5
19A
330
17
100
AcDbEntity
  8
0
100
AcDbLine
 10
809.590036219311
 20
763.4899336664625
 30
0.0
 11
810.0877146472804
 21
763.6640788802483
 31
0.0
  0
LINE
  5
19B
330
17
100
AcDbEntity
  8
0
100
AcDbLine
 10
810.0877146472804
 20
763.6640788802483
 30
0.0
 11
810.5709875773028
 21
763.8749287041946
 31
0.0
  0
LINE
  5
19C
330
17
100
AcDbEntity
  8
0
100
AcDbLine
 10
810.5709875773028
 20
763.8749287041946
 30
0.0
 11
811.0371523511199
 21
764.1213039805566
 31
0.0
  0
LINE
  5
19D
330
17
100
AcDbEntity
  8
0
100
AcDbLine
 10
811.0371523511199
 20
764.1213039805566
 30
0.0
 11
811.4836019862225
 21
764.4018268788504
 31
0.0
  0
LINE
  5
19E
330
17
100
AcDbEntity
  8
0
100
AcDbLine
 10
811.4836019862225
 20
764.4018268788504
 30
0.0
 11
811.9078397551546
 21
764.7149286012382
 31
0.0
  0
LINE
  5
19F
330
17
100
AcDbEntity
  8
0
100
AcDbLine
 10
811.9078397551546
 20
764.7149286012382
 30
0.0
 11
812.3074931482248
 21
765.0588581558827
 31
0.0
  0
LINE
  5
1A0
330
17
100
AcDbEntity
  8
0
100
AcDbLine
 10
812.3074931482248
 20
765.0588581558827
 30
0.0
 11
812.6803271415453
 21
765.4316921492036
 31
0.0
  0
LINE
  5
1A1
330
17
100
AcDbEntity
  8
0
100
AcDbLine
 10
812.6803271415453
 20
765.4316921492036
 30
0.0
 11
813.0242566961897
 21
765.8313455422735
 31
0.0
  0
LINE
  5
1A2
330
17
100
AcDbEntity
  8
0
100
AcDbLine
 10
813.0242566961897
 20
765.8313455422735
 30
0.0
 11
813.3373584185775
 21
766.2555833112051
 31
0.0
  0
LINE
  5
1A3
330
17
100
AcDbEntity
  8
0
100
AcDbLine
 10
813.3373584185775
 20
766.2555833112051
 30
0.0
 11
813.6178813168715
 21
766.702032946308
 31
0.0
  0
LINE
  5
1A4
330
17
100
AcDbEntity
  8
0
100
AcDbLine
 10
813.6178813168715
 20
766.702032946308
 30
0.0
 11
813.8642565932338
 21
767.1681977201256
 31
0.0
  0
LINE
  5
1A5
330
17
100
AcDbEntity
  8
0
100
AcDbLine
 10
813.8642565932338
 20
767.1681977201256
 30
0.0
 11
814.0751064171795
 21
767.651470650148
 31
0.0
  0
LINE
  5
1A6
330
17
100
AcDbEntity
  8
0
100
AcDbLine
 10
814.0751064171795
 20
767.651470650148
 30
0.0
 11
814.2492516309651
 21
768.1491490781173
 31
0.0
  0
LINE
  5
1A7
330
17
100
AcDbEntity
  8
0
100
AcDbLine
 10
814.2492516309651
 20
768.1491490781173
 30
0.0
 11
814.3857183439147
 21
768.6584497843869
 31
0.0
  0
LINE
  5
1A8
330
17
100
AcDbEntity
  8
0
100
AcDbLine
 10
814.3857183439147
 20
768.6584497843869
 30
0.0
 11
814.4837433788138
 21
769.1765245528172
 31
0.0
  0
LINE
  5
1A9
330
17
100
AcDbEntity
  8
0
100
AcDbLine
 10
814.4837433788138
 20
769.1765245528172
 30
0.0
 11
814.5427785399045
 21
769.7004760991508
 31
0.0
  0
LINE
  5
1AA
330
17
100
AcDbEntity
  8
0
100
AcDbLine
 10
814.5427785399045
 20
769.7004760991508
 30
0.0
 11
814.5624936786188
 21
770.2273742738071
 31
0.0
  0
LINE
  5
1AB
330
17
100
AcDbEntity
  8
0
100
AcDbLine
 10
646.8459582455461
 20
1124.5580829352252
 30
0.0
 11
646.8262431068315
 21
1125.0849811098806
 31
0.0
  0
LINE
  5
1AC
330
17
100
AcDbEntity
  8
0
100
AcDbLine
 10
646.8262431068315
 20
1125.0849811098806
 30
0.0
 11
646.7672079457408
 21
1125.608932656215
 31
0.0
  0
LINE
  5
1AD
330
17
100
AcDbEntity
  8
0
100
AcDbLine
 10
646.7672079457408
 20
1125.608932656215
 30
0.0
 11
646.6691829108419
 21
1126.1270074246445
 31
0.0
  0
LINE
  5
1AE
330
17
100
AcDbEntity
  8
0
100
AcDbLine
 10
646.6691829108419
 20
1126.1270074246445
 30
0.0
 11
646.532716197892
 21
1126.6363081309146
 31
0.0
  0
LINE
  5
1AF
330
17
100
AcDbEntity
  8
0
100
AcDbLine
 10
646.532716197892
 20
1126.6363081309146
 30
0.0
 11
646.3585709841066
 21
1127.1339865588839
 31
0.0
  0
LINE
  5
1B0
330
17
100
AcDbEntity
  8
0
100
AcDbLine
 10
646.3585709841066
 20
1127.1339865588839
 30
0.0
 11
646.1477211601607
 21
1127.6172594889072
 31
0.0
  0
LINE
  5
1B1
330
17
100
AcDbEntity
  8
0
100
AcDbLine
 10
646.1477211601607
 20
1127.6172594889072
 30
0.0
 11
645.9013458837985
 21
1128.0834242627243
 31
0.0
  0
LINE
  5
1B2
330
17
100
AcDbEntity
  8
0
100
AcDbLine
 10
645.9013458837985
 20
1128.0834242627243
 30
0.0
 11
645.6208229855046
 21
1128.5298738978263
 31
0.0
  0
LINE
  5
1B3
330
17
100
AcDbEntity
  8
0
100
AcDbLine
 10
645.6208229855046
 20
1128.5298738978263
 30
0.0
 11
645.3077212631168
 21
1128.9541116667583
 31
0.0
  0
LINE
  5
1B4
330
17
100
AcDbEntity
  8
0
100
AcDbLine
 10
645.3077212631168
 20
1128.9541116667583
 30
0.0
 11
644.9637917084723
 21
1129.3537650598287
 31
0.0
  0
LINE
  5
1B5
330
17
100
AcDbEntity
  8
0
100
AcDbLine
 10
644.9637917084723
 20
1129.3537650598287
 30
0.0
 11
644.590957715152
 21
1129.7265990531496
 31
0.0
  0
LINE
  5
1B6
330
17
100
AcDbEntity
  8
0
100
AcDbLine
 10
644.590957715152
 20
1129.7265990531496
 30
0.0
 11
644.1913043220816
 21
1130.0705286077932
 31
0.0
  0
LINE
  5
1B7
330
17
100
AcDbEntity
  8
0
100
AcDbLine
 10
644.1913043220816
 20
1130.0705286077932
 30
0.0
 11
643.7670665531497
 21
1130.3836303301819
 31
0.0
  0
LINE
  5
1B8
330
17
100
AcDbEntity
  8
0
100
AcDbLine
 10
643.7670665531497
 20
1130.3836303301819
 30
0.0
 11
643.320616918047
 21
1130.6641532284752
 31
0.0
  0
LINE
  5
1B9
330
17
100
AcDbEntity
  8
0
100
AcDbLine
 10
643.320616918047
 20
1130.6641532284752
 30
0.0
 11
642.8544521442299
 21
1130.9105285048377
 31
0.0
  0
LINE
  5
1BA
330
17
100
AcDbEntity
  8
0
100
AcDbLine
 10
642.8544521442299
 20
1130.9105285048377
 30
0.0
 11
642.3711792142072
 21
1131.121378328783
 31
0.0
  0
LINE
  5
1BB
330
17
100
AcDbEntity
  8
0
100
AcDbLine
 10
642.3711792142072
 20
1131.121378328783
 30
0.0
 11
641.8735007862379
 21
1131.2955235425693
 31
0.0
  0
LINE
  5
1BC
330
17
100
AcDbEntity
  8
0
100
AcDbLine
 10
641.8735007862379
 20
1131.2955235425693
 30
0.0
 11
641.3642000799678
 21
1131.431990255519
 31
0.0
  0
LINE
  5
1BD
330
17
100
AcDbEntity
  8
0
100
AcDbLine
 10
641.3642000799678
 20
1131.431990255519
 30
0.0
 11
640.846125311538
 21
1131.5300152904179
 31
0.0
  0
LINE
  5
1BE
330
17
100
AcDbEntity
  8
0
100
AcDbLine
 10
640.846125311538
 20
1131.5300152904179
 30
0.0
 11
640.3221737652042
 21
1131.5890504515082
 31
0.0
  0
LINE
  5
1BF
330
17
100
AcDbEntity
  8
0
100
AcDbLine
 10
640.3221737652042
 20
1131.5890504515082
 30
0.0
 11
639.795275590548
 21
1131.6087655902224
 31
0.0
  0
LINE
  5
1C0
330
17
100
AcDbEntity
  8
0
100
AcDbLine
 10
639.795275590548
 20
1131.6087655902224
 30
0.0
 11
639.2683774158919
 21
1131.5890504515082
 31
0.0
  0
LINE
  5
1C1
330
17
100
AcDbEntity
  8
0
100
AcDbLine
 10
639.2683774158919
 20
1131.5890504515082
 30
0.0
 11
638.7444258695581
 21
1131.5300152904179
 31
0.0
  0
LINE
  5
1C2
330
17
100
AcDbEntity
  8
0
100
AcDbLine
 10
638.7444258695581
 20
1131.5300152904179
 30
0.0
 11
638.2263511011284
 21
1131.431990255519
 31
0.0
  0
LINE
  5
1C3
330
17
100
AcDbEntity
  8
0
100
AcDbLine
 10
638.2263511011284
 20
1131.431990255519
 30
0.0
 11
637.7170503948582
 21
1131.2955235425693
 31
0.0
  0
LINE
  5
1C4
330
17
100
AcDbEntity
  8
0
100
AcDbLine
 10
637.7170503948582
 20
1131.2955235425693
 30
0.0
 11
637.2193719668888
 21
1131.121378328783
 31
0.0
  0
LINE
  5
1C5
330
17
100
AcDbEntity
  8
0
100
AcDbLine
 10
637.2193719668888
 20
1131.121378328783
 30
0.0
 11
636.7360990368663
 21
1130.9105285048377
 31
0.0
  0
LINE
  5
1C6
330
17
100
AcDbEntity
  8
0
100
AcDbLine
 10
636.7360990368663
 20
1130.9105285048377
 30
0.0
 11
636.2699342630491
 21
1130.6641532284752
 31
0.0
  0
LINE
  5
1C7
330
17
100
AcDbEntity
  8
0
100
AcDbLine
 10
636.2699342630491
 20
1130.6641532284752
 30
0.0
 11
635.8234846279465
 21
1130.3836303301819
 31
0.0
  0
LINE
  5
1C8
330
17
100
AcDbEntity
  8
0
100
AcDbLine
 10
635.8234846279465
 20
1130.3836303301819
 30
0.0
 11
635.3992468590145
 21
1130.0705286077932
 31
0.0
  0
LINE
  5
1C9
330
17
100
AcDbEntity
  8
0
100
AcDbLine
 10
635.3992468590145
 20
1130.0705286077932
 30
0.0
 11
634.9995934659444
 21
1129.7265990531496
 31
0.0
  0
LINE
  5
1CA
330
17
100
AcDbEntity
  8
0
100
AcDbLine
 10
634.9995934659444
 20
1129.7265990531496
 30
0.0
 11
634.6267594726237
 21
1129.3537650598287
 31
0.0
  0
LINE
  5
1CB
330
17
100
AcDbEntity
  8
0
100
AcDbLine
 10
634.6267594726237
 20
1129.3537650598287
 30
0.0
 11
634.2828299179793
 21
1128.9541116667583
 31
0.0
  0
LINE
  5
1CC
330
17
100
AcDbEntity
  8
0
100
AcDbLine
 10
634.2828299179793
 20
1128.9541116667583
 30
0.0
 11
633.9697281955915
 21
1128.5298738978263
 31
0.0
  0
LINE
  5
1CD
330
17
100
AcDbEntity
  8
0
100
AcDbLine
 10
633.9697281955915
 20
1128.5298738978263
 30
0.0
 11
633.6892052972976
 21
1128.0834242627243
 31
0.0
  0
LINE
  5
1CE
330
17
100
AcDbEntity
  8
0
100
AcDbLine
 10
633.6892052972976
 20
1128.0834242627243
 30
0.0
 11
633.4428300209354
 21
1127.6172594889072
 31
0.0
  0
LINE
  5
1CF
330
17
100
AcDbEntity
  8
0
100
AcDbLine
 10
633.4428300209354
 20
1127.6172594889072
 30
0.0
 11
633.2319801969895
 21
1127.1339865588839
 31
0.0
  0
LINE
  5
1D0
330
17
100
AcDbEntity
  8
0
100
AcDbLine
 10
633.2319801969895
 20
1127.1339865588839
 30
0.0
 11
633.057834983204
 21
1126.6363081309146
 31
0.0
  0
LINE
  5
1D1
330
17
100
AcDbEntity
  8
0
100
AcDbLine
 10
633.057834983204
 20
1126.6363081309146
 30
0.0
 11
632.9213682702542
 21
1126.1270074246445
 31
0.0
  0
LINE
  5
1D2
330
17
100
AcDbEntity
  8
0
100
AcDbLine
 10
632.9213682702542
 20
1126.1270074246445
 30
0.0
 11
632.8233432353553
 21
1125.608932656215
 31
0.0
  0
LINE
  5
1D3
330
17
100
AcDbEntity
  8
0
100
AcDbLine
 10
632.8233432353553
 20
1125.608932656215
 30
0.0
 11
632.7643080742647
 21
1125.0849811098806
 31
0.0
  0
LINE
  5
1D4
330
17
100
AcDbEntity
  8
0
100
AcDbLine
 10
632.7643080742647
 20
1125.0849811098806
 30
0.0
 11
632.7445929355501
 21
1124.5580829352252
 31
0.0
  0
LINE
  5
1D5
330
17
100
AcDbEntity
  8
0
100
AcDbLine
 10
632.7445929355501
 20
1124.5580829352252
 30
0.0
 11
632.7643080742647
 21
1124.0311847605685
 31
0.0
  0
LINE
  5
1D6
330
17
100
AcDbEntity
  8
0
100
AcDbLine
 10
632.7643080742647
 20
1124.0311847605685
 30
0.0
 11
632.8233432353553
 21
1123.5072332142354
 31
0.0
  0
LINE
  5
1D7
330
17
100
AcDbEntity
  8
0
100
AcDbLine
 10
632.8233432353553
 20
1123.5072332142354
 30
0.0
 11
632.9213682702542
 21
1122.989158445805
 31
0.0
  0
LINE
  5
1D8
330
17
100
AcDbEntity
  8
0
100
AcDbLine
 10
632.9213682702542
 20
1122.989158445805
 30
0.0
 11
633.057834983204
 21
1122.479857739535
 31
0.0
  0
LINE
  5
1D9
330
17
100
AcDbEntity
  8
0
100
AcDbLine
 10
633.057834983204
 20
1122.479857739535
 30
0.0
 11
633.2319801969895
 21
1121.9821793115657
 31
0.0
  0
LINE
  5
1DA
330
17
100
AcDbEntity
  8
0
100
AcDbLine
 10
633.2319801969895
 20
1121.9821793115657
 30
0.0
 11
633.4428300209354
 21
1121.4989063815433
 31
0.0
  0
LINE
  5
1DB
330
17
100
AcDbEntity
  8
0
100
AcDbLine
 10
633.4428300209354
 20
1121.4989063815433
 30
0.0
 11
633.6892052972976
 21
1121.0327416077262
 31
0.0
  0
LINE
  5
1DC
330
17
100
AcDbEntity
  8
0
100
AcDbLine
 10
633.6892052972976
 20
1121.0327416077262
 30
0.0
 11
633.9697281955915
 21
1120.5862919726237
 31
0.0
  0
LINE
  5
1DD
330
17
100
AcDbEntity
  8
0
100
AcDbLine
 10
633.9697281955915
 20
1120.5862919726237
 30
0.0
 11
634.2828299179793
 21
1120.1620542036917
 31
0.0
  0
LINE
  5
1DE
330
17
100
AcDbEntity
  8
0
100
AcDbLine
 10
634.2828299179793
 20
1120.1620542036917
 30
0.0
 11
634.6267594726237
 21
1119.7624008106213
 31
0.0
  0
LINE
  5
1DF
330
17
100
AcDbEntity
  8
0
100
AcDbLine
 10
634.6267594726237
 20
1119.7624008106213
 30
0.0
 11
634.9995934659444
 21
1119.3895668173009
 31
0.0
  0
LINE
  5
1E0
330
17
100
AcDbEntity
  8
0
100
AcDbLine
 10
634.9995934659444
 20
1119.3895668173009
 30
0.0
 11
635.3992468590145
 21
1119.0456372626568
 31
0.0
  0
LINE
  5
1E1
330
17
100
AcDbEntity
  8
0
100
AcDbLine
 10
635.3992468590145
 20
1119.0456372626568
 30
0.0
 11
635.8234846279465
 21
1118.7325355402686
 31
0.0
  0
LINE
  5
1E2
330
17
100
AcDbEntity
  8
0
100
AcDbLine
 10
635.8234846279465
 20
1118.7325355402686
 30
0.0
 11
636.2699342630491
 21
1118.4520126419743
 31
0.0
  0
LINE
  5
1E3
330
17
100
AcDbEntity
  8
0
100
AcDbLine
 10
636.2699342630491
 20
1118.4520126419743
 30
0.0
 11
636.7360990368663
 21
1118.2056373656123
 31
0.0
  0
LINE
  5
1E4
330
17
100
AcDbEntity
  8
0
100
AcDbLine
 10
636.7360990368663
 20
1118.2056373656123
 30
0.0
 11
637.2193719668888
 21
1117.994787541666
 31
0.0
  0
LINE
  5
1E5
330
17
100
AcDbEntity
  8
0
100
AcDbLine
 10
637.2193719668888
 20
1117.994787541666
 30
0.0
 11
637.7170503948581
 21
1117.8206423278807
 31
0.0
  0
LINE
  5
1E6
330
17
100
AcDbEntity
  8
0
100
AcDbLine
 10
637.7170503948581
 20
1117.8206423278807
 30
0.0
 11
638.2263511011284
 21
1117.6841756149315
 31
0.0
  0
LINE
  5
1E7
330
17
100
AcDbEntity
  8
0
100
AcDbLine
 10
638.2263511011284
 20
1117.6841756149315
 30
0.0
 11
638.7444258695581
 21
1117.5861505800326
 31
0.0
  0
LINE
  5
1E8
330
17
100
AcDbEntity
  8
0
100
AcDbLine
 10
638.7444258695581
 20
1117.5861505800326
 30
0.0
 11
639.2683774158919
 21
1117.5271154189409
 31
0.0
  0
LINE
  5
1E9
330
17
100
AcDbEntity
  8
0
100
AcDbLine
 10
639.2683774158919
 20
1117.5271154189409
 30
0.0
 11
639.795275590548
 21
1117.5074002802262
 31
0.0
  0
LINE
  5
1EA
330
17
100
AcDbEntity
  8
0
100
AcDbLine
 10
639.795275590548
 20
1117.5074002802262
 30
0.0
 11
640.3221737652042
 21
1117.5271154189409
 31
0.0
  0
LINE
  5
1EB
330
17
100
AcDbEntity
  8
0
100
AcDbLine
 10
640.3221737652042
 20
1117.5271154189409
 30
0.0
 11
640.8461253115379
 21
1117.5861505800326
 31
0.0
  0
LINE
  5
1EC
330
17
100
AcDbEntity
  8
0
100
AcDbLine
 10
640.8461253115379
 20
1117.5861505800326
 30
0.0
 11
641.3642000799678
 21
1117.6841756149315
 31
0.0
  0
LINE
  5
1ED
330
17
100
AcDbEntity
  8
0
100
AcDbLine
 10
641.3642000799678
 20
1117.6841756149315
 30
0.0
 11
641.8735007862379
 21
1117.8206423278807
 31
0.0
  0
LINE
  5
1EE
330
17
100
AcDbEntity
  8
0
100
AcDbLine
 10
641.8735007862379
 20
1117.8206423278807
 30
0.0
 11
642.3711792142072
 21
1117.994787541666
 31
0.0
  0
LINE
  5
1EF
330
17
100
AcDbEntity
  8
0
100
AcDbLine
 10
642.3711792142072
 20
1117.994787541666
 30
0.0
 11
642.8544521442299
 21
1118.2056373656123
 31
0.0
  0
LINE
  5
1F0
330
17
100
AcDbEntity
  8
0
100
AcDbLine
 10
642.8544521442299
 20
1118.2056373656123
 30
0.0
 11
643.320616918047
 21
1118.4520126419743
 31
0.0
  0
LINE
  5
1F1
330
17
100
AcDbEntity
  8
0
100
AcDbLine
 10
643.320616918047
 20
1118.4520126419743
 30
0.0
 11
643.7670665531497
 21
1118.7325355402686
 31
0.0
  0
LINE
  5
1F2
330
17
100
AcDbEntity
  8
0
100
AcDbLine
 10
643.7670665531497
 20
1118.7325355402686
 30
0.0
 11
644.1913043220816
 21
1119.0456372626568
 31
0.0
  0
LINE
  5
1F3
330
17
100
AcDbEntity
  8
0
100
AcDbLine
 10
644.1913043220816
 20
1119.0456372626568
 30
0.0
 11
644.590957715152
 21
1119.3895668173009
 31
0.0
  0
LINE
  5
1F4
330
17
100
AcDbEntity
  8
0
100
AcDbLine
 10
644.590957715152
 20
1119.3895668173009
 30
0.0
 11
644.9637917084723
 21
1119.7624008106213
 31
0.0
  0
LINE
  5
1F5
330
17
100
AcDbEntity
  8
0
100
AcDbLine
 10
644.9637917084723
 20
1119.7624008106213
 30
0.0
 11
645.3077212631168
 21
1120.1620542036917
 31
0.0
  0
LINE
  5
1F6
330
17
100
AcDbEntity
  8
0
100
AcDbLine
 10
645.3077212631168
 20
1120.1620542036917
 30
0.0
 11
645.6208229855046
 21
1120.5862919726237
 31
0.0
  0
LINE
  5
1F7
330
17
100
AcDbEntity
  8
0
100
AcDbLine
 10
645.6208229855046
 20
1120.5862919726237
 30
0.0
 11
645.9013458837985
 21
1121.0327416077262
 31
0.0
  0
LINE
  5
1F8
330
17
100
AcDbEntity
  8
0
100
AcDbLine
 10
645.9013458837985
 20
1121.0327416077262
 30
0.0
 11
646.1477211601607
 21
1121.4989063815433
 31
0.0
  0
LINE
  5
1F9
330
17
100
AcDbEntity
  8
0
100
AcDbLine
 10
646.1477211601607
 20
1121.4989063815433
 30
0.0
 11
646.3585709841066
 21
1121.9821793115657
 31
0.0
  0
LINE
  5
1FA
330
17
100
AcDbEntity
  8
0
100
AcDbLine
 10
646.3585709841066
 20
1121.9821793115657
 30
0.0
 11
646.532716197892
 21
1122.479857739535
 31
0.0
  0
LINE
  5
1FB
330
17
100
AcDbEntity
  8
0
100
AcDbLine
 10
646.532716197892
 20
1122.479857739535
 30
0.0
 11
646.6691829108419
 21
1122.989158445805
 31
0.0
  0
LINE
  5
1FC
330
17
100
AcDbEntity
  8
0
100
AcDbLine
 10
646.6691829108419
 20
1122.989158445805
 30
0.0
 11
646.7672079457408
 21
1123.5072332142354
 31
0.0
  0
LINE
  5
1FD
330
17
100
AcDbEntity
  8
0
100
AcDbLine
 10
646.7672079457408
 20
1123.5072332142354
 30
0.0
 11
646.8262431068315
 21
1124.0311847605685
 31
0.0
  0
LINE
  5
1FE
330
17
100
AcDbEntity
  8
0
100
AcDbLine
 10
646.8262431068315
 20
1124.0311847605685
 30
0.0
 11
646.8459582455461
 21
1124.5580829352252
 31
0.0
  0
LINE
  5
1FF
330
17
100
AcDbEntity
  8
0
100
AcDbLine
 10
398.81446218255456
 20
1703.2982404155373
 30
0.0
 11
398.79474704384
 21
1703.8251385901935
 31
0.0
  0
LINE
  5
200
330
17
100
AcDbEntity
  8
0
100
AcDbLine
 10
398.79474704384
 20
1703.8251385901935
 30
0.0
 11
398.7357118827494
 21
1704.3490901365271
 31
0.0
  0
LINE
  5
201
330
17
100
AcDbEntity
  8
0
100
AcDbLine
 10
398.7357118827494
 20
1704.3490901365271
 30
0.0
 11
398.6376868478503
 21
1704.8671649049575
 31
0.0
  0
LINE
  5
202
330
17
100
AcDbEntity
  8
0
100
AcDbLine
 10
398.6376868478503
 20
1704.8671649049575
 30
0.0
 11
398.50122013490056
 21
1705.3764656112266
 31
0.0
  0
LINE
  5
203
330
17
100
AcDbEntity
  8
0
100
AcDbLine
 10
398.50122013490056
 20
1705.3764656112266
 30
0.0
 11
398.32707492111524
 21
1705.8741440391964
 31
0.0
  0
LINE
  5
204
330
17
100
AcDbEntity
  8
0
100
AcDbLine
 10
398.32707492111524
 20
1705.8741440391964
 30
0.0
 11
398.1162250971694
 21
1706.3574169692183
 31
0.0
  0
LINE
  5
205
330
17
100
AcDbEntity
  8
0
100
AcDbLine
 10
398.1162250971694
 20
1706.3574169692183
 30
0.0
 11
397.86984982080713
 21
1706.8235817430364
 31
0.0
  0
LINE
  5
206
330
17
100
AcDbEntity
  8
0
100
AcDbLine
 10
397.86984982080713
 20
1706.8235817430364
 30
0.0
 11
397.589326922513
 21
1707.270031378138
 31
0.0
  0
LINE
  5
207
330
17
100
AcDbEntity
  8
0
100
AcDbLine
 10
397.589326922513
 20
1707.270031378138
 30
0.0
 11
397.2762252001252
 21
1707.6942691470704
 31
0.0
  0
LINE
  5
208
330
17
100
AcDbEntity
  8
0
100
AcDbLine
 10
397.2762252001252
 20
1707.6942691470704
 30
0.0
 11
396.93229564548085
 21
1708.0939225401412
 31
0.0
  0
LINE
  5
209
330
17
100
AcDbEntity
  8
0
100
AcDbLine
 10
396.93229564548085
 20
1708.0939225401412
 30
0.0
 11
396.55946165216045
 21
1708.4667565334616
 31
0.0
  0
LINE
  5
20A
330
17
100
AcDbEntity
  8
0
100
AcDbLine
 10
396.55946165216045
 20
1708.4667565334616
 30
0.0
 11
396.15980825908997
 21
1708.8106860881062
 31
0.0
  0
LINE
  5
20B
330
17
100
AcDbEntity
  8
0
100
AcDbLine
 10
396.15980825908997
 20
1708.8106860881062
 30
0.0
 11
395.7355704901582
 21
1709.123787810493
 31
0.0
  0
LINE
  5
20C
330
17
100
AcDbEntity
  8
0
100
AcDbLine
 10
395.7355704901582
 20
1709.123787810493
 30
0.0
 11
395.2891208550556
 21
1709.4043107087864
 31
0.0
  0
LINE
  5
20D
330
17
100
AcDbEntity
  8
0
100
AcDbLine
 10
395.2891208550556
 20
1709.4043107087864
 30
0.0
 11
394.8229560812384
 21
1709.6506859851497
 31
0.0
  0
LINE
  5
20E
330
17
100
AcDbEntity
  8
0
100
AcDbLine
 10
394.8229560812384
 20
1709.6506859851497
 30
0.0
 11
394.3396831512159
 21
1709.8615358090956
 31
0.0
  0
LINE
  5
20F
330
17
100
AcDbEntity
  8
0
100
AcDbLine
 10
394.3396831512159
 20
1709.8615358090956
 30
0.0
 11
393.84200472324653
 21
1710.0356810228805
 31
0.0
  0
LINE
  5
210
330
17
100
AcDbEntity
  8
0
100
AcDbLine
 10
393.84200472324653
 20
1710.0356810228805
 30
0.0
 11
393.3327040169763
 21
1710.17214773583
 31
0.0
  0
LINE
  5
211
330
17
100
AcDbEntity
  8
0
100
AcDbLine
 10
393.3327040169763
 20
1710.17214773583
 30
0.0
 11
392.81462924854657
 21
1710.2701727707295
 31
0.0
  0
LINE
  5
212
330
17
100
AcDbEntity
  8
0
100
AcDbLine
 10
392.81462924854657
 20
1710.2701727707295
 30
0.0
 11
392.2906777022128
 21
1710.3292079318203
 31
0.0
  0
LINE
  5
213
330
17
100
AcDbEntity
  8
0
100
AcDbLine
 10
392.2906777022128
 20
1710.3292079318203
 30
0.0
 11
391.7637795275566
 21
1710.3489230705345
 31
0.0
  0
LINE
  5
214
330
17
100
AcDbEntity
  8
0
100
AcDbLine
 10
391.7637795275566
 20
1710.3489230705345
 30
0.0
 11
391.23688135290047
 21
1710.3292079318203
 31
0.0
  0
LINE
  5
215
330
17
100
AcDbEntity
  8
0
100
AcDbLine
 10
391.23688135290047
 20
1710.3292079318203
 30
0.0
 11
390.71292980656665
 21
1710.2701727707295
 31
0.0
  0
LINE
  5
216
330
17
100
AcDbEntity
  8
0
100
AcDbLine
 10
390.71292980656665
 20
1710.2701727707295
 30
0.0
 11
390.1948550381369
 21
1710.17214773583
 31
0.0
  0
LINE
  5
217
330
17
100
AcDbEntity
  8
0
100
AcDbLine
 10
390.1948550381369
 20
1710.17214773583
 30
0.0
 11
389.68555433186674
 21
1710.0356810228805
 31
0.0
  0
LINE
  5
218
330
17
100
AcDbEntity
  8
0
100
AcDbLine
 10
389.68555433186674
 20
1710.0356810228805
 30
0.0
 11
389.18787590389724
 21
1709.8615358090956
 31
0.0
  0
LINE
  5
219
330
17
100
AcDbEntity
  8
0
100
AcDbLine
 10
389.18787590389724
 20
1709.8615358090956
 30
0.0
 11
388.7046029738749
 21
1709.6506859851497
 31
0.0
  0
LINE
  5
21A
330
17
100
AcDbEntity
  8
0
100
AcDbLine
 10
388.7046029738749
 20
1709.6506859851497
 30
0.0
 11
388.23843820005754
 21
1709.4043107087864
 31
0.0
  0
LINE
  5
21B
330
17
100
AcDbEntity
  8
0
100
AcDbLine
 10
388.23843820005754
 20
1709.4043107087864
 30
0.0
 11
387.7919885649551
 21
1709.123787810493
 31
0.0
  0
LINE
  5
21C
330
17
100
AcDbEntity
  8
0
100
AcDbLine
 10
387.7919885649551
 20
1709.123787810493
 30
0.0
 11
387.3677507960232
 21
1708.8106860881062
 31
0.0
  0
LINE
  5
21D
330
17
100
AcDbEntity
  8
0
100
AcDbLine
 10
387.3677507960232
 20
1708.8106860881062
 30
0.0
 11
386.96809740295276
 21
1708.4667565334616
 31
0.0
  0
LINE
  5
21E
330
17
100
AcDbEntity
  8
0
100
AcDbLine
 10
386.96809740295276
 20
1708.4667565334616
 30
0.0
 11
386.59526340963225
 21
1708.0939225401412
 31
0.0
  0
LINE
  5
21F
330
17
100
AcDbEntity
  8
0
100
AcDbLine
 10
386.59526340963225
 20
1708.0939225401412
 30
0.0
 11
386.25133385498805
 21
1707.6942691470704
 31
0.0
  0
LINE
  5
220
330
17
100
AcDbEntity
  8
0
100
AcDbLine
 10
386.25133385498805
 20
1707.6942691470704
 30
0.0
 11
385.9382321326001
 21
1707.270031378138
 31
0.0
  0
LINE
  5
221
330
17
100
AcDbEntity
  8
0
100
AcDbLine
 10
385.9382321326001
 20
1707.270031378138
 30
0.0
 11
385.65770923430614
 21
1706.8235817430364
 31
0.0
  0
LINE
  5
222
330
17
100
AcDbEntity
  8
0
100
AcDbLine
 10
385.65770923430614
 20
1706.8235817430364
 30
0.0
 11
385.4113339579439
 21
1706.3574169692183
 31
0.0
  0
LINE
  5
223
330
17
100
AcDbEntity
  8
0
100
AcDbLine
 10
385.4113339579439
 20
1706.3574169692183
 30
0.0
 11
385.20048413399803
 21
1705.8741440391964
 31
0.0
  0
LINE
  5
224
330
17
100
AcDbEntity
  8
0
100
AcDbLine
 10
385.20048413399803
 20
1705.8741440391964
 30
0.0
 11
385.0263389202127
 21
1705.3764656112266
 31
0.0
  0
LINE
  5
225
330
17
100
AcDbEntity
  8
0
100
AcDbLine
 10
385.0263389202127
 20
1705.3764656112266
 30
0.0
 11
384.88987220726295
 21
1704.8671649049575
 31
0.0
  0
LINE
  5
226
330
17
100
AcDbEntity
  8
0
100
AcDbLine
 10
384.88987220726295
 20
1704.8671649049575
 30
0.0
 11
384.7918471723639
 21
1704.3490901365271
 31
0.0
  0
LINE
  5
227
330
17
100
AcDbEntity
  8
0
100
AcDbLine
 10
384.7918471723639
 20
1704.3490901365271
 30
0.0
 11
384.73281201127327
 21
1703.8251385901935
 31
0.0
  0
LINE
  5
228
330
17
100
AcDbEntity
  8
0
100
AcDbLine
 10
384.73281201127327
 20
1703.8251385901935
 30
0.0
 11
384.7130968725587
 21
1703.2982404155373
 31
0.0
  0
LINE
  5
229
330
17
100
AcDbEntity
  8
0
100
AcDbLine
 10
384.7130968725587
 20
1703.2982404155373
 30
0.0
 11
384.73281201127327
 21
1702.771342240881
 31
0.0
  0
LINE
  5
22A
330
17
100
AcDbEntity
  8
0
100
AcDbLine
 10
384.73281201127327
 20
1702.771342240881
 30
0.0
 11
384.7918471723639
 21
1702.2473906945474
 31
0.0
  0
LINE
  5
22B
330
17
100
AcDbEntity
  8
0
100
AcDbLine
 10
384.7918471723639
 20
1702.2473906945474
 30
0.0
 11
384.88987220726295
 21
1701.7293159261171
 31
0.0
  0
LINE
  5
22C
330
17
100
AcDbEntity
  8
0
100
AcDbLine
 10
384.88987220726295
 20
1701.7293159261171
 30
0.0
 11
385.0263389202127
 21
1701.220015219848
 31
0.0
  0
LINE
  5
22D
330
17
100
AcDbEntity
  8
0
100
AcDbLine
 10
385.0263389202127
 20
1701.220015219848
 30
0.0
 11
385.20048413399803
 21
1700.7223367918782
 31
0.0
  0
LINE
  5
22E
330
17
100
AcDbEntity
  8
0
100
AcDbLine
 10
385.20048413399803
 20
1700.7223367918782
 30
0.0
 11
385.4113339579439
 21
1700.2390638618544
 31
0.0
  0
LINE
  5
22F
330
17
100
AcDbEntity
  8
0
100
AcDbLine
 10
385.4113339579439
 20
1700.2390638618544
 30
0.0
 11
385.65770923430614
 21
1699.7728990880378
 31
0.0
  0
LINE
  5
230
330
17
100
AcDbEntity
  8
0
100
AcDbLine
 10
385.65770923430614
 20
1699.7728990880378
 30
0.0
 11
385.9382321326001
 21
1699.3264494529353
 31
0.0
  0
LINE
  5
231
330
17
100
AcDbEntity
  8
0
100
AcDbLine
 10
385.9382321326001
 20
1699.3264494529353
 30
0.0
 11
386.25133385498805
 21
1698.9022116840038
 31
0.0
  0
LINE
  5
232
330
17
100
AcDbEntity
  8
0
100
AcDbLine
 10
386.25133385498805
 20
1698.9022116840038
 30
0.0
 11
386.59526340963225
 21
1698.502558290932
 31
0.0
  0
LINE
  5
233
330
17
100
AcDbEntity
  8
0
100
AcDbLine
 10
386.59526340963225
 20
1698.502558290932
 30
0.0
 11
386.96809740295276
 21
1698.129724297613
 31
0.0
  0
LINE
  5
234
330
17
100
AcDbEntity
  8
0
100
AcDbLine
 10
386.96809740295276
 20
1698.129724297613
 30
0.0
 11
387.3677507960232
 21
1697.7857947429684
 31
0.0
  0
LINE
  5
235
330
17
100
AcDbEntity
  8
0
100
AcDbLine
 10
387.3677507960232
 20
1697.7857947429684
 30
0.0
 11
387.7919885649551
 21
1697.4726930205802
 31
0.0
  0
LINE
  5
236
330
17
100
AcDbEntity
  8
0
100
AcDbLine
 10
387.7919885649551
 20
1697.4726930205802
 30
0.0
 11
388.23843820005754
 21
1697.1921701222864
 31
0.0
  0
LINE
  5
237
330
17
100
AcDbEntity
  8
0
100
AcDbLine
 10
388.23843820005754
 20
1697.1921701222864
 30
0.0
 11
388.7046029738749
 21
1696.9457948459235
 31
0.0
  0
LINE
  5
238
330
17
100
AcDbEntity
  8
0
100
AcDbLine
 10
388.7046029738749
 20
1696.9457948459235
 30
0.0
 11
389.18787590389724
 21
1696.7349450219785
 31
0.0
  0
LINE
  5
239
330
17
100
AcDbEntity
  8
0
100
AcDbLine
 10
389.18787590389724
 20
1696.7349450219785
 30
0.0
 11
389.68555433186674
 21
1696.5607998081928
 31
0.0
  0
LINE
  5
23A
330
17
100
AcDbEntity
  8
0
100
AcDbLine
 10
389.68555433186674
 20
1696.5607998081928
 30
0.0
 11
390.1948550381369
 21
1696.4243330952431
 31
0.0
  0
LINE
  5
23B
330
17
100
AcDbEntity
  8
0
100
AcDbLine
 10
390.1948550381369
 20
1696.4243330952431
 30
0.0
 11
390.71292980656665
 21
1696.3263080603438
 31
0.0
  0
LINE
  5
23C
330
17
100
AcDbEntity
  8
0
100
AcDbLine
 10
390.71292980656665
 20
1696.3263080603438
 30
0.0
 11
391.23688135290047
 21
1696.267272899253
 31
0.0
  0
LINE
  5
23D
330
17
100
AcDbEntity
  8
0
100
AcDbLine
 10
391.23688135290047
 20
1696.267272899253
 30
0.0
 11
391.7637795275566
 21
1696.2475577605387
 31
0.0
  0
LINE
  5
23E
330
17
100
AcDbEntity
  8
0
100
AcDbLine
 10
391.7637795275566
 20
1696.2475577605387
 30
0.0
 11
392.2906777022128
 21
1696.267272899253
 31
0.0
  0
LINE
  5
23F
330
17
100
AcDbEntity
  8
0
100
AcDbLine
 10
392.2906777022128
 20
1696.267272899253
 30
0.0
 11
392.81462924854657
 21
1696.3263080603438
 31
0.0
  0
LINE
  5
240
330
17
100
AcDbEntity
  8
0
100
AcDbLine
 10
392.81462924854657
 20
1696.3263080603438
 30
0.0
 11
393.3327040169763
 21
1696.4243330952431
 31
0.0
  0
LINE
  5
241
330
17
100
AcDbEntity
  8
0
100
AcDbLine
 10
393.3327040169763
 20
1696.4243330952431
 30
0.0
 11
393.84200472324653
 21
1696.5607998081928
 31
0.0
  0
LINE
  5
242
330
17
100
AcDbEntity
  8
0
100
AcDbLine
 10
393.84200472324653
 20
1696.5607998081928
 30
0.0
 11
394.3396831512159
 21
1696.7349450219785
 31
0.0
  0
LINE
  5
243
330
17
100
AcDbEntity
  8
0
100
AcDbLine
 10
394.3396831512159
 20
1696.7349450219785
 30
0.0
 11
394.8229560812384
 21
1696.9457948459235
 31
0.0
  0
LINE
  5
244
330
17
100
AcDbEntity
  8
0
100
AcDbLine
 10
394.8229560812384
 20
1696.9457948459235
 30
0.0
 11
395.2891208550556
 21
1697.1921701222864
 31
0.0
  0
LINE
  5
245
330
17
100
AcDbEntity
  8
0
100
AcDbLine
 10
395.2891208550556
 20
1697.1921701222864
 30
0.0
 11
395.7355704901582
 21
1697.4726930205802
 31
0.0
  0
LINE
  5
246
330
17
100
AcDbEntity
  8
0
100
AcDbLine
 10
395.7355704901582
 20
1697.4726930205802
 30
0.0
 11
396.15980825908997
 21
1697.7857947429684
 31
0.0
  0
LINE
  5
247
330
17
100
AcDbEntity
  8
0
100
AcDbLine
 10
396.15980825908997
 20
1697.7857947429684
 30
0.0
 11
396.55946165216045
 21
1698.129724297613
 31
0.0
  0
LINE
  5
248
330
17
100
AcDbEntity
  8
0
100
AcDbLine
 10
396.55946165216045
 20
1698.129724297613
 30
0.0
 11
396.932295645481
 21
1698.502558290932
 31
0.0
  0
LINE
  5
249
330
17
100
AcDbEntity
  8
0
100
AcDbLine
 10
396.932295645481
 20
1698.502558290932
 30
0.0
 11
397.2762252001252
 21
1698.9022116840038
 31
0.0
  0
LINE
  5
24A
330
17
100
AcDbEntity
  8
0
100
AcDbLine
 10
397.2762252001252
 20
1698.9022116840038
 30
0.0
 11
397.589326922513
 21
1699.3264494529353
 31
0.0
  0
LINE
  5
24B
330
17
100
AcDbEntity
  8
0
100
AcDbLine
 10
397.589326922513
 20
1699.3264494529353
 30
0.0
 11
397.86984982080713
 21
1699.7728990880378
 31
0.0
  0
LINE
  5
24C
330
17
100
AcDbEntity
  8
0
100
AcDbLine
 10
397.86984982080713
 20
1699.7728990880378
 30
0.0
 11
398.1162250971694
 21
1700.2390638618544
 31
0.0
  0
LINE
  5
24D
330
17
100
AcDbEntity
  8
0
100
AcDbLine
 10
398.1162250971694
 20
1700.2390638618544
 30
0.0
 11
398.32707492111524
 21
1700.7223367918782
 31
0.0
  0
LINE
  5
24E
330
17
100
AcDbEntity
  8
0
100
AcDbLine
 10
398.32707492111524
 20
1700.7223367918782
 30
0.0
 11
398.50122013490056
 21
1701.220015219848
 31
0.0
  0
LINE
  5
24F
330
17
100
AcDbEntity
  8
0
100
AcDbLine
 10
398.50122013490056
 20
1701.220015219848
 30
0.0
 11
398.6376868478503
 21
1701.7293159261171
 31
0.0
  0
LINE
  5
250
330
17
100
AcDbEntity
  8
0
100
AcDbLine
 10
398.6376868478503
 20
1701.7293159261171
 30
0.0
 11
398.7357118827494
 21
1702.2473906945474
 31
0.0
  0
LINE
  5
251
330
17
100
AcDbEntity
  8
0
100
AcDbLine
 10
398.7357118827494
 20
1702.2473906945474
 30
0.0
 11
398.79474704384
 21
1702.771342240881
 31
0.0
  0
LINE
  5
252
330
17
100
AcDbEntity
  8
0
100
AcDbLine
 10
398.79474704384
 20
1702.771342240881
 30
0.0
 11
398.81446218255456
 21
1703.2982404155373
 31
0.0
  0
LINE
  5
253
330
17
100
AcDbEntity
  8
0
100
AcDbLine
 10
115.34989525341696
 20
1372.5895789982192
 30
0.0
 11
115.33018011470244
 21
1373.1164771728754
 31
0.0
  0
LINE
  5
254
330
17
100
AcDbEntity
  8
0
100
AcDbLine
 10
115.33018011470244
 20
1373.1164771728754
 30
0.0
 11
115.27114495361181
 21
1373.640428719209
 31
0.0
  0
LINE
  5
255
330
17
100
AcDbEntity
  8
0
100
AcDbLine
 10
115.27114495361181
 20
1373.640428719209
 30
0.0
 11
115.17311991871276
 21
1374.158503487638
 31
0.0
  0
LINE
  5
256
330
17
100
AcDbEntity
  8
0
100
AcDbLine
 10
115.17311991871276
 20
1374.158503487638
 30
0.0
 11
115.03665320576307
 21
1374.6678041939085
 31
0.0
  0
LINE
  5
257
330
17
100
AcDbEntity
  8
0
100
AcDbLine
 10
115.03665320576307
 20
1374.6678041939085
 30
0.0
 11
114.86250799197762
 21
1375.1654826218778
 31
0.0
  0
LINE
  5
258
330
17
100
AcDbEntity
  8
0
100
AcDbLine
 10
114.86250799197762
 20
1375.1654826218778
 30
0.0
 11
114.65165816803173
 21
1375.6487555519002
 31
0.0
  0
LINE
  5
259
330
17
100
AcDbEntity
  8
0
100
AcDbLine
 10
114.65165816803173
 20
1375.6487555519002
 30
0.0
 11
114.40528289166954
 21
1376.1149203257173
 31
0.0
  0
LINE
  5
25A
330
17
100
AcDbEntity
  8
0
100
AcDbLine
 10
114.40528289166954
 20
1376.1149203257173
 30
0.0
 11
114.12475999337558
 21
1376.5613699608211
 31
0.0
  0
LINE
  5
25B
330
17
100
AcDbEntity
  8
0
100
AcDbLine
 10
114.12475999337558
 20
1376.5613699608211
 30
0.0
 11
113.81165827098768
 21
1376.9856077297522
 31
0.0
  0
LINE
  5
25C
330
17
100
AcDbEntity
  8
0
100
AcDbLine
 10
113.81165827098768
 20
1376.9856077297522
 30
0.0
 11
113.46772871634336
 21
1377.3852611228226
 31
0.0
  0
LINE
  5
25D
330
17
100
AcDbEntity
  8
0
100
AcDbLine
 10
113.46772871634336
 20
1377.3852611228226
 30
0.0
 11
113.09489472302292
 21
1377.7580951161435
 31
0.0
  0
LINE
  5
25E
330
17
100
AcDbEntity
  8
0
100
AcDbLine
 10
113.09489472302292
 20
1377.7580951161435
 30
0.0
 11
112.69524132995251
 21
1378.1020246707862
 31
0.0
  0
LINE
  5
25F
330
17
100
AcDbEntity
  8
0
100
AcDbLine
 10
112.69524132995251
 20
1378.1020246707862
 30
0.0
 11
112.27100356102065
 21
1378.415126393175
 31
0.0
  0
LINE
  5
260
330
17
100
AcDbEntity
  8
0
100
AcDbLine
 10
112.27100356102065
 20
1378.415126393175
 30
0.0
 11
111.82455392591801
 21
1378.6956492914696
 31
0.0
  0
LINE
  5
261
330
17
100
AcDbEntity
  8
0
100
AcDbLine
 10
111.82455392591801
 20
1378.6956492914696
 30
0.0
 11
111.35838915210086
 21
1378.9420245678311
 31
0.0
  0
LINE
  5
262
330
17
100
AcDbEntity
  8
0
100
AcDbLine
 10
111.35838915210086
 20
1378.9420245678311
 30
0.0
 11
110.87511622207836
 21
1379.1528743917775
 31
0.0
  0
LINE
  5
263
330
17
100
AcDbEntity
  8
0
100
AcDbLine
 10
110.87511622207836
 20
1379.1528743917775
 30
0.0
 11
110.3774377941089
 21
1379.3270196055632
 31
0.0
  0
LINE
  5
264
330
17
100
AcDbEntity
  8
0
100
AcDbLine
 10
110.3774377941089
 20
1379.3270196055632
 30
0.0
 11
109.86813708783878
 21
1379.4634863185133
 31
0.0
  0
LINE
  5
265
330
17
100
AcDbEntity
  8
0
100
AcDbLine
 10
109.86813708783878
 20
1379.4634863185133
 30
0.0
 11
109.35006231940898
 21
1379.5615113534109
 31
0.0
  0
LINE
  5
266
330
17
100
AcDbEntity
  8
0
100
AcDbLine
 10
109.35006231940898
 20
1379.5615113534109
 30
0.0
 11
108.82611077307523
 21
1379.6205465145026
 31
0.0
  0
LINE
  5
267
330
17
100
AcDbEntity
  8
0
100
AcDbLine
 10
108.82611077307523
 20
1379.6205465145026
 30
0.0
 11
108.29921259841906
 21
1379.6402616532173
 31
0.0
  0
LINE
  5
268
330
17
100
AcDbEntity
  8
0
100
AcDbLine
 10
108.29921259841906
 20
1379.6402616532173
 30
0.0
 11
107.7723144237629
 21
1379.6205465145026
 31
0.0
  0
LINE
  5
269
330
17
100
AcDbEntity
  8
0
100
AcDbLine
 10
107.7723144237629
 20
1379.6205465145026
 30
0.0
 11
107.24836287742912
 21
1379.5615113534109
 31
0.0
  0
LINE
  5
26A
330
17
100
AcDbEntity
  8
0
100
AcDbLine
 10
107.24836287742912
 20
1379.5615113534109
 30
0.0
 11
106.73028810899935
 21
1379.4634863185133
 31
0.0
  0
LINE
  5
26B
330
17
100
AcDbEntity
  8
0
100
AcDbLine
 10
106.73028810899935
 20
1379.4634863185133
 30
0.0
 11
106.22098740272921
 21
1379.3270196055632
 31
0.0
  0
LINE
  5
26C
330
17
100
AcDbEntity
  8
0
100
AcDbLine
 10
106.22098740272921
 20
1379.3270196055632
 30
0.0
 11
105.72330897475975
 21
1379.1528743917775
 31
0.0
  0
LINE
  5
26D
330
17
100
AcDbEntity
  8
0
100
AcDbLine
 10
105.72330897475975
 20
1379.1528743917775
 30
0.0
 11
105.24003604473725
 21
1378.9420245678311
 31
0.0
  0
LINE
  5
26E
330
17
100
AcDbEntity
  8
0
100
AcDbLine
 10
105.24003604473725
 20
1378.9420245678311
 30
0.0
 11
104.77387127092013
 21
1378.6956492914696
 31
0.0
  0
LINE
  5
26F
330
17
100
AcDbEntity
  8
0
100
AcDbLine
 10
104.77387127092013
 20
1378.6956492914696
 30
0.0
 11
104.32742163581746
 21
1378.415126393175
 31
0.0
  0
LINE
  5
270
330
17
100
AcDbEntity
  8
0
100
AcDbLine
 10
104.32742163581746
 20
1378.415126393175
 30
0.0
 11
103.9031838668856
 21
1378.1020246707862
 31
0.0
  0
LINE
  5
271
330
17
100
AcDbEntity
  8
0
100
AcDbLine
 10
103.9031838668856
 20
1378.1020246707862
 30
0.0
 11
103.50353047381522
 21
1377.7580951161435
 31
0.0
  0
LINE
  5
272
330
17
100
AcDbEntity
  8
0
100
AcDbLine
 10
103.50353047381522
 20
1377.7580951161435
 30
0.0
 11
103.13069648049476
 21
1377.3852611228226
 31
0.0
  0
LINE
  5
273
330
17
100
AcDbEntity
  8
0
100
AcDbLine
 10
103.13069648049476
 20
1377.3852611228226
 30
0.0
 11
102.78676692585044
 21
1376.9856077297522
 31
0.0
  0
LINE
  5
274
330
17
100
AcDbEntity
  8
0
100
AcDbLine
 10
102.78676692585044
 20
1376.9856077297522
 30
0.0
 11
102.47366520346256
 21
1376.5613699608211
 31
0.0
  0
LINE
  5
275
330
17
100
AcDbEntity
  8
0
100
AcDbLine
 10
102.47366520346256
 20
1376.5613699608211
 30
0.0
 11
102.19314230516856
 21
1376.1149203257173
 31
0.0
  0
LINE
  5
276
330
17
100
AcDbEntity
  8
0
100
AcDbLine
 10
102.19314230516856
 20
1376.1149203257173
 30
0.0
 11
101.94676702880638
 21
1375.6487555519002
 31
0.0
  0
LINE
  5
277
330
17
100
AcDbEntity
  8
0
100
AcDbLine
 10
101.94676702880638
 20
1375.6487555519002
 30
0.0
 11
101.7359172048605
 21
1375.1654826218778
 31
0.0
  0
LINE
  5
278
330
17
100
AcDbEntity
  8
0
100
AcDbLine
 10
101.7359172048605
 20
1375.1654826218778
 30
0.0
 11
101.56177199107505
 21
1374.6678041939085
 31
0.0
  0
LINE
  5
279
330
17
100
AcDbEntity
  8
0
100
AcDbLine
 10
101.56177199107505
 20
1374.6678041939085
 30
0.0
 11
101.42530527812538
 21
1374.158503487638
 31
0.0
  0
LINE
  5
27A
330
17
100
AcDbEntity
  8
0
100
AcDbLine
 10
101.42530527812538
 20
1374.158503487638
 30
0.0
 11
101.3272802432263
 21
1373.640428719209
 31
0.0
  0
LINE
  5
27B
330
17
100
AcDbEntity
  8
0
100
AcDbLine
 10
101.3272802432263
 20
1373.640428719209
 30
0.0
 11
101.26824508213568
 21
1373.1164771728754
 31
0.0
  0
LINE
  5
27C
330
17
100
AcDbEntity
  8
0
100
AcDbLine
 10
101.26824508213568
 20
1373.1164771728754
 30
0.0
 11
101.24852994342116
 21
1372.5895789982192
 31
0.0
  0
LINE
  5
27D
330
17
100
AcDbEntity
  8
0
100
AcDbLine
 10
101.24852994342116
 20
1372.5895789982192
 30
0.0
 11
101.26824508213568
 21
1372.0626808235625
 31
0.0
  0
LINE
  5
27E
330
17
100
AcDbEntity
  8
0
100
AcDbLine
 10
101.26824508213568
 20
1372.0626808235625
 30
0.0
 11
101.3272802432263
 21
1371.5387292772293
 31
0.0
  0
LINE
  5
27F
330
17
100
AcDbEntity
  8
0
100
AcDbLine
 10
101.3272802432263
 20
1371.5387292772293
 30
0.0
 11
101.42530527812538
 21
1371.0206545087995
 31
0.0
  0
LINE
  5
280
330
17
100
AcDbEntity
  8
0
100
AcDbLine
 10
101.42530527812538
 20
1371.0206545087995
 30
0.0
 11
101.56177199107505
 21
1370.5113538025298
 31
0.0
  0
LINE
  5
281
330
17
100
AcDbEntity
  8
0
100
AcDbLine
 10
101.56177199107505
 20
1370.5113538025298
 30
0.0
 11
101.7359172048605
 21
1370.01367537456
 31
0.0
  0
LINE
  5
282
330
17
100
AcDbEntity
  8
0
100
AcDbLine
 10
101.7359172048605
 20
1370.01367537456
 30
0.0
 11
101.94676702880638
 21
1369.5304024445368
 31
0.0
  0
LINE
  5
283
330
17
100
AcDbEntity
  8
0
100
AcDbLine
 10
101.94676702880638
 20
1369.5304024445368
 30
0.0
 11
102.19314230516856
 21
1369.0642376707196
 31
0.0
  0
LINE
  5
284
330
17
100
AcDbEntity
  8
0
100
AcDbLine
 10
102.19314230516856
 20
1369.0642376707196
 30
0.0
 11
102.47366520346256
 21
1368.6177880356172
 31
0.0
  0
LINE
  5
285
330
17
100
AcDbEntity
  8
0
100
AcDbLine
 10
102.47366520346256
 20
1368.6177880356172
 30
0.0
 11
102.78676692585044
 21
1368.193550266686
 31
0.0
  0
LINE
  5
286
330
17
100
AcDbEntity
  8
0
100
AcDbLine
 10
102.78676692585044
 20
1368.193550266686
 30
0.0
 11
103.13069648049476
 21
1367.7938968736144
 31
0.0
  0
LINE
  5
287
330
17
100
AcDbEntity
  8
0
100
AcDbLine
 10
103.13069648049476
 20
1367.7938968736144
 30
0.0
 11
103.50353047381522
 21
1367.4210628802948
 31
0.0
  0
LINE
  5
288
330
17
100
AcDbEntity
  8
0
100
AcDbLine
 10
103.50353047381522
 20
1367.4210628802948
 30
0.0
 11
103.9031838668856
 21
1367.0771333256503
 31
0.0
  0
LINE
  5
289
330
17
100
AcDbEntity
  8
0
100
AcDbLine
 10
103.9031838668856
 20
1367.0771333256503
 30
0.0
 11
104.32742163581746
 21
1366.7640316032616
 31
0.0
  0
LINE
  5
28A
330
17
100
AcDbEntity
  8
0
100
AcDbLine
 10
104.32742163581746
 20
1366.7640316032616
 30
0.0
 11
104.77387127092013
 21
1366.4835087049682
 31
0.0
  0
LINE
  5
28B
330
17
100
AcDbEntity
  8
0
100
AcDbLine
 10
104.77387127092013
 20
1366.4835087049682
 30
0.0
 11
105.24003604473725
 21
1366.2371334286058
 31
0.0
  0
LINE
  5
28C
330
17
100
AcDbEntity
  8
0
100
AcDbLine
 10
105.24003604473725
 20
1366.2371334286058
 30
0.0
 11
105.72330897475975
 21
1366.02628360466
 31
0.0
  0
LINE
  5
28D
330
17
100
AcDbEntity
  8
0
100
AcDbLine
 10
105.72330897475975
 20
1366.02628360466
 30
0.0
 11
106.22098740272921
 21
1365.8521383908746
 31
0.0
  0
LINE
  5
28E
330
17
100
AcDbEntity
  8
0
100
AcDbLine
 10
106.22098740272921
 20
1365.8521383908746
 30
0.0
 11
106.73028810899935
 21
1365.7156716779245
 31
0.0
  0
LINE
  5
28F
330
17
100
AcDbEntity
  8
0
100
AcDbLine
 10
106.73028810899935
 20
1365.7156716779245
 30
0.0
 11
107.24836287742912
 21
1365.6176466430256
 31
0.0
  0
LINE
  5
290
330
17
100
AcDbEntity
  8
0
100
AcDbLine
 10
107.24836287742912
 20
1365.6176466430256
 30
0.0
 11
107.7723144237629
 21
1365.5586114819348
 31
0.0
  0
LINE
  5
291
330
17
100
AcDbEntity
  8
0
100
AcDbLine
 10
107.7723144237629
 20
1365.5586114819348
 30
0.0
 11
108.29921259841906
 21
1365.5388963432206
 31
0.0
  0
LINE
  5
292
330
17
100
AcDbEntity
  8
0
100
AcDbLine
 10
108.29921259841906
 20
1365.5388963432206
 30
0.0
 11
108.82611077307523
 21
1365.5586114819348
 31
0.0
  0
LINE
  5
293
330
17
100
AcDbEntity
  8
0
100
AcDbLine
 10
108.82611077307523
 20
1365.5586114819348
 30
0.0
 11
109.35006231940898
 21
1365.6176466430256
 31
0.0
  0
LINE
  5
294
330
17
100
AcDbEntity
  8
0
100
AcDbLine
 10
109.35006231940898
 20
1365.6176466430256
 30
0.0
 11
109.86813708783878
 21
1365.7156716779245
 31
0.0
  0
LINE
  5
295
330
17
100
AcDbEntity
  8
0
100
AcDbLine
 10
109.86813708783878
 20
1365.7156716779245
 30
0.0
 11
110.3774377941089
 21
1365.8521383908746
 31
0.0
  0
LINE
  5
296
330
17
100
AcDbEntity
  8
0
100
AcDbLine
 10
110.3774377941089
 20
1365.8521383908746
 30
0.0
 11
110.87511622207836
 21
1366.02628360466
 31
0.0
  0
LINE
  5
297
330
17
100
AcDbEntity
  8
0
100
AcDbLine
 10
110.87511622207836
 20
1366.02628360466
 30
0.0
 11
111.35838915210086
 21
1366.2371334286058
 31
0.0
  0
LINE
  5
298
330
17
100
AcDbEntity
  8
0
100
AcDbLine
 10
111.35838915210086
 20
1366.2371334286058
 30
0.0
 11
111.82455392591801
 21
1366.4835087049682
 31
0.0
  0
LINE
  5
299
330
17
100
AcDbEntity
  8
0
100
AcDbLine
 10
111.82455392591801
 20
1366.4835087049682
 30
0.0
 11
112.27100356102065
 21
1366.7640316032616
 31
0.0
  0
LINE
  5
29A
330
17
100
AcDbEntity
  8
0
100
AcDbLine
 10
112.27100356102065
 20
1366.7640316032616
 30
0.0
 11
112.69524132995251
 21
1367.0771333256503
 31
0.0
  0
LINE
  5
29B
330
17
100
AcDbEntity
  8
0
100
AcDbLine
 10
112.69524132995251
 20
1367.0771333256503
 30
0.0
 11
113.09489472302292
 21
1367.4210628802948
 31
0.0
  0
LINE
  5
29C
330
17
100
AcDbEntity
  8
0
100
AcDbLine
 10
113.09489472302292
 20
1367.4210628802948
 30
0.0
 11
113.46772871634336
 21
1367.7938968736144
 31
0.0
  0
LINE
  5
29D
330
17
100
AcDbEntity
  8
0
100
AcDbLine
 10
113.46772871634336
 20
1367.7938968736144
 30
0.0
 11
113.81165827098768
 21
1368.193550266686
 31
0.0
  0
LINE
  5
29E
330
17
100
AcDbEntity
  8
0
100
AcDbLine
 10
113.81165827098768
 20
1368.193550266686
 30
0.0
 11
114.12475999337558
 21
1368.6177880356172
 31
0.0
  0
LINE
  5
29F
330
17
100
AcDbEntity
  8
0
100
AcDbLine
 10
114.12475999337558
 20
1368.6177880356172
 30
0.0
 11
114.40528289166953
 21
1369.0642376707196
 31
0.0
  0
LINE
  5
2A0
330
17
100
AcDbEntity
  8
0
100
AcDbLine
 10
114.40528289166953
 20
1369.0642376707196
 30
0.0
 11
114.65165816803173
 21
1369.5304024445368
 31
0.0
  0
LINE
  5
2A1
330
17
100
AcDbEntity
  8
0
100
AcDbLine
 10
114.65165816803173
 20
1369.5304024445368
 30
0.0
 11
114.86250799197762
 21
1370.01367537456
 31
0.0
  0
LINE
  5
2A2
330
17
100
AcDbEntity
  8
0
100
AcDbLine
 10
114.86250799197762
 20
1370.01367537456
 30
0.0
 11
115.03665320576307
 21
1370.5113538025298
 31
0.0
  0
LINE
  5
2A3
330
17
100
AcDbEntity
  8
0
100
AcDbLine
 10
115.03665320576307
 20
1370.5113538025298
 30
0.0
 11
115.17311991871276
 21
1371.0206545087995
 31
0.0
  0
LINE
  5
2A4
330
17
100
AcDbEntity
  8
0
100
AcDbLine
 10
115.17311991871276
 20
1371.0206545087995
 30
0.0
 11
115.27114495361181
 21
1371.5387292772293
 31
0.0
  0
LINE
  5
2A5
330
17
100
AcDbEntity
  8
0
100
AcDbLine
 10
115.27114495361181
 20
1371.5387292772293
 30
0.0
 11
115.33018011470244
 21
1372.0626808235625
 31
0.0
  0
LINE
  5
2A6
330
17
100
AcDbEntity
  8
0
100
AcDbLine
 10
115.33018011470244
 20
1372.0626808235625
 30
0.0
 11
115.34989525341696
 21
1372.5895789982192
 31
0.0
  0
LINE
  5
2A7
330
17
100
AcDbEntity
  8
0
100
AcDbLine
 10
1536.216036985716
 20
270.6210750612131
 30
0.0
 11
1536.1963218470019
 21
271.14797323586936
 31
0.0
  0
LINE
  5
2A8
330
17
100
AcDbEntity
  8
0
100
AcDbLine
 10
1536.1963218470019
 20
271.14797323586936
 30
0.0
 11
1536.137286685911
 21
271.67192478220295
 31
0.0
  0
LINE
  5
2A9
330
17
100
AcDbEntity
  8
0
100
AcDbLine
 10
1536.137286685911
 20
271.67192478220295
 30
0.0
 11
1536.0392616510119
 21
272.1899995506328
 31
0.0
  0
LINE
  5
2AA
330
17
100
AcDbEntity
  8
0
100
AcDbLine
 10
1536.0392616510119
 20
272.1899995506328
 30
0.0
 11
1535.9027949380622
 21
272.69930025690337
 31
0.0
  0
LINE
  5
2AB
330
17
100
AcDbEntity
  8
0
100
AcDbLine
 10
1535.9027949380622
 20
272.69930025690337
 30
0.0
 11
1535.7286497242776
 21
273.1969786848722
 31
0.0
  0
LINE
  5
2AC
330
17
100
AcDbEntity
  8
0
100
AcDbLine
 10
1535.7286497242776
 20
273.1969786848722
 30
0.0
 11
1535.517799900331
 21
273.68025161489504
 31
0.0
  0
LINE
  5
2AD
330
17
100
AcDbEntity
  8
0
100
AcDbLine
 10
1535.517799900331
 20
273.68025161489504
 30
0.0
 11
1535.2714246239684
 21
274.14641638871217
 31
0.0
  0
LINE
  5
2AE
330
17
100
AcDbEntity
  8
0
100
AcDbLine
 10
1535.2714246239684
 20
274.14641638871217
 30
0.0
 11
1534.9909017256748
 21
274.5928660238146
 31
0.0
  0
LINE
  5
2AF
330
17
100
AcDbEntity
  8
0
100
AcDbLine
 10
1534.9909017256748
 20
274.5928660238146
 30
0.0
 11
1534.6778000032878
 21
275.01710379274664
 31
0.0
  0
LINE
  5
2B0
330
17
100
AcDbEntity
  8
0
100
AcDbLine
 10
1534.6778000032878
 20
275.01710379274664
 30
0.0
 11
1534.3338704486432
 21
275.416757185817
 31
0.0
  0
LINE
  5
2B1
330
17
100
AcDbEntity
  8
0
100
AcDbLine
 10
1534.3338704486432
 20
275.416757185817
 30
0.0
 11
1533.9610364553223
 21
275.78959117913746
 31
0.0
  0
LINE
  5
2B2
330
17
100
AcDbEntity
  8
0
100
AcDbLine
 10
1533.9610364553223
 20
275.78959117913746
 30
0.0
 11
1533.561383062252
 21
276.133520733782
 31
0.0
  0
LINE
  5
2B3
330
17
100
AcDbEntity
  8
0
100
AcDbLine
 10
1533.561383062252
 20
276.133520733782
 30
0.0
 11
1533.1371452933197
 21
276.44662245616973
 31
0.0
  0
LINE
  5
2B4
330
17
100
AcDbEntity
  8
0
100
AcDbLine
 10
1533.1371452933197
 20
276.44662245616973
 30
0.0
 11
1532.6906956582168
 21
276.727145354464
 31
0.0
  0
LINE
  5
2B5
330
17
100
AcDbEntity
  8
0
100
AcDbLine
 10
1532.6906956582168
 20
276.727145354464
 30
0.0
 11
1532.2245308843999
 21
276.973520630826
 31
0.0
  0
LINE
  5
2B6
330
17
100
AcDbEntity
  8
0
100
AcDbLine
 10
1532.2245308843999
 20
276.973520630826
 30
0.0
 11
1531.7412579543777
 21
277.18437045477185
 31
0.0
  0
LINE
  5
2B7
330
17
100
AcDbEntity
  8
0
100
AcDbLine
 10
1531.7412579543777
 20
277.18437045477185
 30
0.0
 11
1531.2435795264082
 21
277.3585156685572
 31
0.0
  0
LINE
  5
2B8
330
17
100
AcDbEntity
  8
0
100
AcDbLine
 10
1531.2435795264082
 20
277.3585156685572
 30
0.0
 11
1530.734278820138
 21
277.4949823815068
 31
0.0
  0
LINE
  5
2B9
330
17
100
AcDbEntity
  8
0
100
AcDbLine
 10
1530.734278820138
 20
277.4949823815068
 30
0.0
 11
1530.2162040517085
 21
277.5930074164057
 31
0.0
  0
LINE
  5
2BA
330
17
100
AcDbEntity
  8
0
100
AcDbLine
 10
1530.2162040517085
 20
277.5930074164057
 30
0.0
 11
1529.692252505374
 21
277.65204257749656
 31
0.0
  0
LINE
  5
2BB
330
17
100
AcDbEntity
  8
0
100
AcDbLine
 10
1529.692252505374
 20
277.65204257749656
 30
0.0
 11
1529.1653543307186
 21
277.67175771621123
 31
0.0
  0
LINE
  5
2BC
330
17
100
AcDbEntity
  8
0
100
AcDbLine
 10
1529.1653543307186
 20
277.67175771621123
 30
0.0
 11
1528.6384561560626
 21
277.65204257749656
 31
0.0
  0
LINE
  5
2BD
330
17
100
AcDbEntity
  8
0
100
AcDbLine
 10
1528.6384561560626
 20
277.65204257749656
 30
0.0
 11
1528.114504609729
 21
277.5930074164057
 31
0.0
  0
LINE
  5
2BE
330
17
100
AcDbEntity
  8
0
100
AcDbLine
 10
1528.114504609729
 20
277.5930074164057
 30
0.0
 11
1527.5964298412987
 21
277.4949823815068
 31
0.0
  0
LINE
  5
2BF
330
17
100
AcDbEntity
  8
0
100
AcDbLine
 10
1527.5964298412987
 20
277.4949823815068
 30
0.0
 11
1527.0871291350281
 21
277.3585156685572
 31
0.0
  0
LINE
  5
2C0
330
17
100
AcDbEntity
  8
0
100
AcDbLine
 10
1527.0871291350281
 20
277.3585156685572
 30
0.0
 11
1526.5894507070598
 21
277.18437045477185
 31
0.0
  0
LINE
  5
2C1
330
17
100
AcDbEntity
  8
0
100
AcDbLine
 10
1526.5894507070598
 20
277.18437045477185
 30
0.0
 11
1526.1061777770365
 21
276.973520630826
 31
0.0
  0
LINE
  5
2C2
330
17
100
AcDbEntity
  8
0
100
AcDbLine
 10
1526.1061777770365
 20
276.973520630826
 30
0.0
 11
1525.6400130032196
 21
276.727145354464
 31
0.0
  0
LINE
  5
2C3
330
17
100
AcDbEntity
  8
0
100
AcDbLine
 10
1525.6400130032196
 20
276.727145354464
 30
0.0
 11
1525.1935633681169
 21
276.44662245616973
 31
0.0
  0
LINE
  5
2C4
330
17
100
AcDbEntity
  8
0
100
AcDbLine
 10
1525.1935633681169
 20
276.44662245616973
 30
0.0
 11
1524.7693255991846
 21
276.133520733782
 31
0.0
  0
LINE
  5
2C5
330
17
100
AcDbEntity
  8
0
100
AcDbLine
 10
1524.7693255991846
 20
276.133520733782
 30
0.0
 11
1524.3696722061143
 21
275.78959117913746
 31
0.0
  0
LINE
  5
2C6
330
17
100
AcDbEntity
  8
0
100
AcDbLine
 10
1524.3696722061143
 20
275.78959117913746
 30
0.0
 11
1523.9968382127943
 21
275.416757185817
 31
0.0
  0
LINE
  5
2C7
330
17
100
AcDbEntity
  8
0
100
AcDbLine
 10
1523.9968382127943
 20
275.416757185817
 30
0.0
 11
1523.65290865815
 21
275.01710379274664
 31
0.0
  0
LINE
  5
2C8
330
17
100
AcDbEntity
  8
0
100
AcDbLine
 10
1523.65290865815
 20
275.01710379274664
 30
0.0
 11
1523.3398069357618
 21
274.5928660238146
 31
0.0
  0
LINE
  5
2C9
330
17
100
AcDbEntity
  8
0
100
AcDbLine
 10
1523.3398069357618
 20
274.5928660238146
 30
0.0
 11
1523.059284037468
 21
274.14641638871217
 31
0.0
  0
LINE
  5
2CA
330
17
100
AcDbEntity
  8
0
100
AcDbLine
 10
1523.059284037468
 20
274.14641638871217
 30
0.0
 11
1522.8129087611053
 21
273.68025161489504
 31
0.0
  0
LINE
  5
2CB
330
17
100
AcDbEntity
  8
0
100
AcDbLine
 10
1522.8129087611053
 20
273.68025161489504
 30
0.0
 11
1522.60205893716
 21
273.1969786848722
 31
0.0
  0
LINE
  5
2CC
330
17
100
AcDbEntity
  8
0
100
AcDbLine
 10
1522.60205893716
 20
273.1969786848722
 30
0.0
 11
1522.4279137233743
 21
272.69930025690337
 31
0.0
  0
LINE
  5
2CD
330
17
100
AcDbEntity
  8
0
100
AcDbLine
 10
1522.4279137233743
 20
272.69930025690337
 30
0.0
 11
1522.2914470104247
 21
272.1899995506328
 31
0.0
  0
LINE
  5
2CE
330
17
100
AcDbEntity
  8
0
100
AcDbLine
 10
1522.2914470104247
 20
272.1899995506328
 30
0.0
 11
1522.1934219755256
 21
271.67192478220295
 31
0.0
  0
LINE
  5
2CF
330
17
100
AcDbEntity
  8
0
100
AcDbLine
 10
1522.1934219755256
 20
271.67192478220295
 30
0.0
 11
1522.1343868144347
 21
271.14797323586936
 31
0.0
  0
LINE
  5
2D0
330
17
100
AcDbEntity
  8
0
100
AcDbLine
 10
1522.1343868144347
 20
271.14797323586936
 30
0.0
 11
1522.1146716757205
 21
270.6210750612131
 31
0.0
  0
LINE
  5
2D1
330
17
100
AcDbEntity
  8
0
100
AcDbLine
 10
1522.1146716757205
 20
270.6210750612131
 30
0.0
 11
1522.1343868144347
 21
270.09417688655685
 31
0.0
  0
LINE
  5
2D2
330
17
100
AcDbEntity
  8
0
100
AcDbLine
 10
1522.1343868144347
 20
270.09417688655685
 30
0.0
 11
1522.1934219755256
 21
269.57022534022326
 31
0.0
  0
LINE
  5
2D3
330
17
100
AcDbEntity
  8
0
100
AcDbLine
 10
1522.1934219755256
 20
269.57022534022326
 30
0.0
 11
1522.2914470104247
 21
269.05215057179385
 31
0.0
  0
LINE
  5
2D4
330
17
100
AcDbEntity
  8
0
100
AcDbLine
 10
1522.2914470104247
 20
269.05215057179385
 30
0.0
 11
1522.4279137233743
 21
268.5428498655233
 31
0.0
  0
LINE
  5
2D5
330
17
100
AcDbEntity
  8
0
100
AcDbLine
 10
1522.4279137233743
 20
268.5428498655233
 30
0.0
 11
1522.60205893716
 21
268.045171437554
 31
0.0
  0
LINE
  5
2D6
330
17
100
AcDbEntity
  8
0
100
AcDbLine
 10
1522.60205893716
 20
268.045171437554
 30
0.0
 11
1522.8129087611053
 21
267.5618985075316
 31
0.0
  0
LINE
  5
2D7
330
17
100
AcDbEntity
  8
0
100
AcDbLine
 10
1522.8129087611053
 20
267.5618985075316
 30
0.0
 11
1523.059284037468
 21
267.09573373371404
 31
0.0
  0
LINE
  5
2D8
330
17
100
AcDbEntity
  8
0
100
AcDbLine
 10
1523.059284037468
 20
267.09573373371404
 30
0.0
 11
1523.3398069357618
 21
266.6492840986116
 31
0.0
  0
LINE
  5
2D9
330
17
100
AcDbEntity
  8
0
100
AcDbLine
 10
1523.3398069357618
 20
266.6492840986116
 30
0.0
 11
1523.65290865815
 21
266.22504632967957
 31
0.0
  0
LINE
  5
2DA
330
17
100
AcDbEntity
  8
0
100
AcDbLine
 10
1523.65290865815
 20
266.22504632967957
 30
0.0
 11
1523.9968382127943
 21
265.82539293660966
 31
0.0
  0
LINE
  5
2DB
330
17
100
AcDbEntity
  8
0
100
AcDbLine
 10
1523.9968382127943
 20
265.82539293660966
 30
0.0
 11
1524.3696722061143
 21
265.4525589432892
 31
0.0
  0
LINE
  5
2DC
330
17
100
AcDbEntity
  8
0
100
AcDbLine
 10
1524.3696722061143
 20
265.4525589432892
 30
0.0
 11
1524.7693255991846
 21
265.10862938864466
 31
0.0
  0
LINE
  5
2DD
330
17
100
AcDbEntity
  8
0
100
AcDbLine
 10
1524.7693255991846
 20
265.10862938864466
 30
0.0
 11
1525.1935633681169
 21
264.7955276662565
 31
0.0
  0
LINE
  5
2DE
330
17
100
AcDbEntity
  8
0
100
AcDbLine
 10
1525.1935633681169
 20
264.7955276662565
 30
0.0
 11
1525.6400130032196
 21
264.51500476796264
 31
0.0
  0
LINE
  5
2DF
330
17
100
AcDbEntity
  8
0
100
AcDbLine
 10
1525.6400130032196
 20
264.51500476796264
 30
0.0
 11
1526.1061777770365
 21
264.2686294916007
 31
0.0
  0
LINE
  5
2E0
330
17
100
AcDbEntity
  8
0
100
AcDbLine
 10
1526.1061777770365
 20
264.2686294916007
 30
0.0
 11
1526.5894507070598
 21
264.05777966765436
 31
0.0
  0
LINE
  5
2E1
330
17
100
AcDbEntity
  8
0
100
AcDbLine
 10
1526.5894507070598
 20
264.05777966765436
 30
0.0
 11
1527.0871291350281
 21
263.88363445386904
 31
0.0
  0
LINE
  5
2E2
330
17
100
AcDbEntity
  8
0
100
AcDbLine
 10
1527.0871291350281
 20
263.88363445386904
 30
0.0
 11
1527.5964298412987
 21
263.7471677409194
 31
0.0
  0
LINE
  5
2E3
330
17
100
AcDbEntity
  8
0
100
AcDbLine
 10
1527.5964298412987
 20
263.7471677409194
 30
0.0
 11
1528.114504609729
 21
263.6491427060205
 31
0.0
  0
LINE
  5
2E4
330
17
100
AcDbEntity
  8
0
100
AcDbLine
 10
1528.114504609729
 20
263.6491427060205
 30
0.0
 11
1528.6384561560626
 21
263.59010754492965
 31
0.0
  0
LINE
  5
2E5
330
17
100
AcDbEntity
  8
0
100
AcDbLine
 10
1528.6384561560626
 20
263.59010754492965
 30
0.0
 11
1529.1653543307186
 21
263.570392406215
 31
0.0
  0
LINE
  5
2E6
330
17
100
AcDbEntity
  8
0
100
AcDbLine
 10
1529.1653543307186
 20
263.570392406215
 30
0.0
 11
1529.692252505374
 21
263.59010754492965
 31
0.0
  0
LINE
  5
2E7
330
17
100
AcDbEntity
  8
0
100
AcDbLine
 10
1529.692252505374
 20
263.59010754492965
 30
0.0
 11
1530.2162040517085
 21
263.6491427060205
 31
0.0
  0
LINE
  5
2E8
330
17
100
AcDbEntity
  8
0
100
AcDbLine
 10
1530.2162040517085
 20
263.6491427060205
 30
0.0
 11
1530.734278820138
 21
263.7471677409194
 31
0.0
  0
LINE
  5
2E9
330
17
100
AcDbEntity
  8
0
100
AcDbLine
 10
1530.734278820138
 20
263.7471677409194
 30
0.0
 11
1531.2435795264082
 21
263.88363445386904
 31
0.0
  0
LINE
  5
2EA
330
17
100
AcDbEntity
  8
0
100
AcDbLine
 10
1531.2435795264082
 20
263.88363445386904
 30
0.0
 11
1531.7412579543777
 21
264.05777966765436
 31
0.0
  0
LINE
  5
2EB
330
17
100
AcDbEntity
  8
0
100
AcDbLine
 10
1531.7412579543777
 20
264.05777966765436
 30
0.0
 11
1532.2245308843999
 21
264.2686294916007
 31
0.0
  0
LINE
  5
2EC
330
17
100
AcDbEntity
  8
0
100
AcDbLine
 10
1532.2245308843999
 20
264.2686294916007
 30
0.0
 11
1532.6906956582168
 21
264.51500476796264
 31
0.0
  0
LINE
  5
2ED
330
17
100
AcDbEntity
  8
0
100
AcDbLine
 10
1532.6906956582168
 20
264.51500476796264
 30
0.0
 11
1533.1371452933197
 21
264.7955276662565
 31
0.0
  0
LINE
  5
2EE
330
17
100
AcDbEntity
  8
0
100
AcDbLine
 10
1533.1371452933197
 20
264.7955276662565
 30
0.0
 11
1533.561383062252
 21
265.10862938864466
 31
0.0
  0
LINE
  5
2EF
330
17
100
AcDbEntity
  8
0
100
AcDbLine
 10
1533.561383062252
 20
265.10862938864466
 30
0.0
 11
1533.9610364553223
 21
265.45255894328875
 31
0.0
  0
LINE
  5
2F0
330
17
100
AcDbEntity
  8
0
100
AcDbLine
 10
1533.9610364553223
 20
265.45255894328875
 30
0.0
 11
1534.3338704486432
 21
265.82539293660966
 31
0.0
  0
LINE
  5
2F1
330
17
100
AcDbEntity
  8
0
100
AcDbLine
 10
1534.3338704486432
 20
265.82539293660966
 30
0.0
 11
1534.6778000032878
 21
266.22504632967957
 31
0.0
  0
LINE
  5
2F2
330
17
100
AcDbEntity
  8
0
100
AcDbLine
 10
1534.6778000032878
 20
266.22504632967957
 30
0.0
 11
1534.9909017256748
 21
266.6492840986116
 31
0.0
  0
LINE
  5
2F3
330
17
100
AcDbEntity
  8
0
100
AcDbLine
 10
1534.9909017256748
 20
266.6492840986116
 30
0.0
 11
1535.2714246239684
 21
267.09573373371404
 31
0.0
  0
LINE
  5
2F4
330
17
100
AcDbEntity
  8
0
100
AcDbLine
 10
1535.2714246239684
 20
267.09573373371404
 30
0.0
 11
1535.517799900331
 21
267.5618985075316
 31
0.0
  0
LINE
  5
2F5
330
17
100
AcDbEntity
  8
0
100
AcDbLine
 10
1535.517799900331
 20
267.5618985075316
 30
0.0
 11
1535.7286497242776
 21
268.045171437554
 31
0.0
  0
LINE
  5
2F6
330
17
100
AcDbEntity
  8
0
100
AcDbLine
 10
1535.7286497242776
 20
268.045171437554
 30
0.0
 11
1535.9027949380622
 21
268.5428498655233
 31
0.0
  0
LINE
  5
2F7
330
17
100
AcDbEntity
  8
0
100
AcDbLine
 10
1535.9027949380622
 20
268.5428498655233
 30
0.0
 11
1536.0392616510119
 21
269.05215057179385
 31
0.0
  0
LINE
  5
2F8
330
17
100
AcDbEntity
  8
0
100
AcDbLine
 10
1536.0392616510119
 20
269.05215057179385
 30
0.0
 11
1536.137286685911
 21
269.57022534022326
 31
0.0
  0
LINE
  5
2F9
330
17
100
AcDbEntity
  8
0
100
AcDbLine
 10
1536.137286685911
 20
269.57022534022326
 30
0.0
 11
1536.1963218470019
 21
270.09417688655685
 31
0.0
  0
LINE
  5
2FA
330
17
100
AcDbEntity
  8
0
100
AcDbLine
 10
1536.1963218470019
 20
270.09417688655685
 30
0.0
 11
1536.216036985716
 21
270.6210750612131
 31
0.0
  0
LINE
  5
2FB
330
17
100
AcDbEntity
  8
0
100
AcDbLine
 10
996.9138460943449
 20
604.7081495020057
 30
0.0
 11
998.3674113331094
 21
603.2821655052167
 31
0.0
  0
LINE
  5
2FC
330
17
100
AcDbEntity
  8
0
100
AcDbLine
 10
998.3674113331094
 20
603.2821655052167
 30
0.0
 11
999.8480244380626
 21
601.8842860054433
 31
0.0
  0
LINE
  5
2FD
330
17
100
AcDbEntity
  8
0
100
AcDbLine
 10
999.8480244380626
 20
601.8842860054433
 30
0.0
 11
1001.3551421083862
 21
600.5150239449736
 31
0.0
  0
LINE
  5
2FE
330
17
100
AcDbEntity
  8
0
100
AcDbLine
 10
1001.3551421083862
 20
600.5150239449736
 30
0.0
 11
1002.8882113175965
 21
599.1748817651223
 31
0.0
  0
LINE
  5
2FF
330
17
100
AcDbEntity
  8
0
100
AcDbLine
 10
1002.8882113175965
 20
599.1748817651223
 30
0.0
 11
1004.4466695164696
 21
597.8643512218655
 31
0.0
  0
LINE
  5
300
330
17
100
AcDbEntity
  8
0
100
AcDbLine
 10
1004.4466695164696
 20
597.8643512218655
 30
0.0
 11
1006.0299448394652
 21
596.5839132053898
 31
0.0
  0
LINE
  5
301
330
17
100
AcDbEntity
  8
0
100
AcDbLine
 10
1006.0299448394652
 20
596.5839132053898
 30
0.0
 11
1007.6374563145715
 21
595.3340375636371
 31
0.0
  0
LINE
  5
302
330
17
100
AcDbEntity
  8
0
100
AcDbLine
 10
1007.6374563145715
 20
595.3340375636371
 30
0.0
 11
1009.2686140764849
 21
594.1151829298956
 31
0.0
  0
LINE
  5
303
330
17
100
AcDbEntity
  8
0
100
AcDbLine
 10
1009.2686140764849
 20
594.1151829298956
 30
0.0
 11
1010.9228195830613
 21
592.927796554508
 31
0.0
  0
LINE
  5
304
330
17
100
AcDbEntity
  8
0
100
AcDbLine
 10
1010.9228195830613
 20
592.927796554508
 30
0.0
 11
1012.5994658349433
 21
591.7723141407537
 31
0.0
  0
LINE
  5
305
330
17
100
AcDbEntity
  8
0
100
AcDbLine
 10
1012.5994658349433
 20
591.7723141407537
 30
0.0
 11
1014.2979375982967
 21
590.6491596849751
 31
0.0
  0
LINE
  5
306
330
17
100
AcDbEntity
  8
0
100
AcDbLine
 10
1014.2979375982967
 20
590.6491596849751
 30
0.0
 11
1016.0176116305653
 21
589.5587453209905
 31
0.0
  0
LINE
  5
307
330
17
100
AcDbEntity
  8
0
100
AcDbLine
 10
1016.0176116305653
 20
589.5587453209905
 30
0.0
 11
1017.7578569091663
 21
588.5014711688664
 31
0.0
  0
LINE
  5
308
330
17
100
AcDbEntity
  8
0
100
AcDbLine
 10
1017.7578569091663
 20
588.5014711688664
 30
0.0
 11
1019.5180348630396
 21
587.4777251880955
 31
0.0
  0
LINE
  5
309
330
17
100
AcDbEntity
  8
0
100
AcDbLine
 10
1019.5180348630396
 20
587.4777251880955
 30
0.0
 11
1021.2974996069654
 21
586.48788303524
 31
0.0
  0
LINE
  5
30A
330
17
100
AcDbEntity
  8
0
100
AcDbLine
 10
1021.2974996069654
 20
586.48788303524
 30
0.0
 11
1023.0955981785695
 21
585.5323079260838
 31
0.0
  0
LINE
  5
30B
330
17
100
AcDbEntity
  8
0
100
AcDbLine
 10
1023.0955981785695
 20
585.5323079260838
 30
0.0
 11
1024.9116707779226
 21
584.6113505023541
 31
0.0
  0
LINE
  5
30C
330
17
100
AcDbEntity
  8
0
100
AcDbLine
 10
1024.9116707779226
 20
584.6113505023541
 30
0.0
 11
1026.7450510096494
 21
583.7253487030571
 31
0.0
  0
LINE
  5
30D
330
17
100
AcDbEntity
  8
0
100
AcDbLine
 10
1026.7450510096494
 20
583.7253487030571
 30
0.0
 11
1028.5950661274574
 21
582.8746276404709
 31
0.0
  0
LINE
  5
30E
330
17
100
AcDbEntity
  8
0
100
AcDbLine
 10
1028.5950661274574
 20
582.8746276404709
 30
0.0
 11
1030.4610372809957
 21
582.0594994808512
 31
0.0
  0
LINE
  5
30F
330
17
100
AcDbEntity
  8
0
100
AcDbLine
 10
1030.4610372809957
 20
582.0594994808512
 30
0.0
 11
1032.3422797649582
 21
581.2802633298816
 31
0.0
  0
LINE
  5
310
330
17
100
AcDbEntity
  8
0
100
AcDbLine
 10
1032.3422797649582
 20
581.2802633298816
 30
0.0
 11
1034.2381032703274
 21
580.5372051229187
 31
0.0
  0
LINE
  5
311
330
17
100
AcDbEntity
  8
0
100
AcDbLine
 10
1034.2381032703274
 20
580.5372051229187
 30
0.0
 11
1036.1478121376797
 21
579.8305975200719
 31
0.0
  0
LINE
  5
312
330
17
100
AcDbEntity
  8
0
100
AcDbLine
 10
1036.1478121376797
 20
579.8305975200719
 30
0.0
 11
1038.0707056124536
 21
579.1606998061516
 31
0.0
  0
LINE
  5
313
330
17
100
AcDbEntity
  8
0
100
AcDbLine
 10
1038.0707056124536
 20
579.1606998061516
 30
0.0
 11
1040.0060781020866
 21
578.5277577955253
 31
0.0
  0
LINE
  5
314
330
17
100
AcDbEntity
  8
0
100
AcDbLine
 10
1040.0060781020866
 20
578.5277577955253
 30
0.0
 11
1041.9532194349274
 21
577.9320037419197
 31
0.0
  0
LINE
  5
315
330
17
100
AcDbEntity
  8
0
100
AcDbLine
 10
1041.9532194349274
 20
577.9320037419197
 30
0.0
 11
1043.9114151208278
 21
577.3736562531958
 31
0.0
  0
LINE
  5
316
330
17
100
AcDbEntity
  8
0
100
AcDbLine
 10
1043.9114151208278
 20
577.3736562531958
 30
0.0
 11
1045.8799466133219
 21
576.8529202111326
 31
0.0
  0
LINE
  5
317
330
17
100
AcDbEntity
  8
0
100
AcDbLine
 10
1045.8799466133219
 20
576.8529202111326
 30
0.0
 11
1047.8580915732891
 21
576.3699866962461
 31
0.0
  0
LINE
  5
318
330
17
100
AcDbEntity
  8
0
100
AcDbLine
 10
1047.8580915732891
 20
576.3699866962461
 30
0.0
 11
1049.8451241340138
 21
575.9250329176757
 31
0.0
  0
LINE
  5
319
330
17
100
AcDbEntity
  8
0
100
AcDbLine
 10
1049.8451241340138
 20
575.9250329176757
 30
0.0
 11
1051.8403151675354
 21
575.5182221481555
 31
0.0
  0
LINE
  5
31A
330
17
100
AcDbEntity
  8
0
100
AcDbLine
 10
1051.8403151675354
 20
575.5182221481555
 30
0.0
 11
1053.8429325521997
 21
575.1497036641058
 31
0.0
  0
LINE
  5
31B
330
17
100
AcDbEntity
  8
0
100
AcDbLine
 10
1053.8429325521997
 20
575.1497036641058
 30
0.0
 11
1055.8522414413012
 21
574.8196126908551
 31
0.0
  0
LINE
  5
31C
330
17
100
AcDbEntity
  8
0
100
AcDbLine
 10
1055.8522414413012
 20
574.8196126908551
 30
0.0
 11
1057.8675045327343
 21
574.5280703530202
 31
0.0
  0
LINE
  5
31D
330
17
100
AcDbEntity
  8
0
100
AcDbLine
 10
1057.8675045327343
 20
574.5280703530202
 30
0.0
 11
1059.8879823395405
 21
574.2751836300604
 31
0.0
  0
LINE
  5
31E
330
17
100
AcDbEntity
  8
0
100
AcDbLine
 10
1059.8879823395405
 20
574.2751836300604
 30
0.0
 11
1061.912933461255
 21
574.0610453170239
 31
0.0
  0
LINE
  5
31F
330
17
100
AcDbEntity
  8
0
100
AcDbLine
 10
1061.912933461255
 20
574.0610453170239
 30
0.0
 11
1063.9416148559633
 21
573.8857339904944
 31
0.0
  0
LINE
  5
320
330
17
100
AcDbEntity
  8
0
100
AcDbLine
 10
1063.9416148559633
 20
573.8857339904944
 30
0.0
 11
1065.9732821129508
 21
573.7493139797598
 31
0.0
  0
LINE
  5
321
330
17
100
AcDbEntity
  8
0
100
AcDbLine
 10
1065.9732821129508
 20
573.7493139797598
 30
0.0
 11
1068.0071897258624
 21
573.6518353432075
 31
0.0
  0
LINE
  5
322
330
17
100
AcDbEntity
  8
0
100
AcDbLine
 10
1068.0071897258624
 20
573.6518353432075
 30
0.0
 11
1070.0425913662596
 21
573.5933338499531
 31
0.0
  0
LINE
  5
323
330
17
100
AcDbEntity
  8
0
100
AcDbLine
 10
1070.0425913662596
 20
573.5933338499531
 30
0.0
 11
1072.0787401574803
 21
573.5738309667186
 31
0.0
  0
LINE
  5
324
330
17
100
AcDbEntity
  8
0
100
AcDbLine
 10
1072.0787401574803
 20
573.5738309667208
 30
0.0
 11
1070.7046589570184
 21
573.553844356431
 31
0.0
  0
LINE
  5
325
330
17
100
AcDbEntity
  8
0
100
AcDbLine
 10
1070.7046589570184
 20
573.553844356431
 30
0.0
 11
1069.3317403664344
 21
573.4939014362299
 31
0.0
  0
LINE
  5
326
330
17
100
AcDbEntity
  8
0
100
AcDbLine
 10
1069.3317403664344
 20
573.4939014362299
 30
0.0
 11
1067.9611460119218
 21
573.3940529238112
 31
0.0
  0
LINE
  5
327
330
17
100
AcDbEntity
  8
0
100
AcDbLine
 10
1067.9611460119218
 20
573.3940529238112
 30
0.0
 11
1066.5940355531388
 21
573.2543833009859
 31
0.0
  0
LINE
  5
328
330
17
100
AcDbEntity
  8
0
100
AcDbLine
 10
1066.5940355531388
 20
573.2543833009859
 30
0.0
 11
1065.23156570202
 21
573.0750107421982
 31
0.0
  0
LINE
  5
329
330
17
100
AcDbEntity
  8
0
100
AcDbLine
 10
1065.23156570202
 20
573.0750107421982
 30
0.0
 11
1063.874889244082
 21
572.8560870145416
 31
0.0
  0
LINE
  5
32A
330
17
100
AcDbEntity
  8
0
100
AcDbLine
 10
1063.874889244082
 20
572.8560870145416
 30
0.0
 11
1062.5251540630534
 21
572.5977973493455
 31
0.0
  0
LINE
  5
32B
330
17
100
AcDbEntity
  8
0
100
AcDbLine
 10
1062.5251540630534
 20
572.5977973493455
 30
0.0
 11
1061.1835021696484
 21
572.3003602854524
 31
0.0
  0
LINE
  5
32C
330
17
100
AcDbEntity
  8
0
100
AcDbLine
 10
1061.1835021696484
 20
572.3003602854524
 30
0.0
 11
1059.851068735314
 21
571.964027484315
 31
0.0
  0
LINE
  5
32D
330
17
100
AcDbEntity
  8
0
100
AcDbLine
 10
1059.851068735314
 20
571.964027484315
 30
0.0
 11
1058.5289811317593
 21
571.5890835170585
 31
0.0
  0
LINE
  5
32E
330
17
100
AcDbEntity
  8
0
100
AcDbLine
 10
1058.5289811317593
 20
571.5890835170585
 30
0.0
 11
1057.218357977089
 21
571.1758456237144
 31
0.0
  0
LINE
  5
32F
330
17
100
AcDbEntity
  8
0
100
AcDbLine
 10
1057.218357977089
 20
571.1758456237144
 30
0.0
 11
1055.9203081893384
 21
570.7246634447952
 31
0.0
  0
LINE
  5
330
330
17
100
AcDbEntity
  8
0
100
AcDbLine
 10
1055.9203081893384
 20
570.7246634447952
 30
0.0
 11
1054.6359300482197
 21
570.2359187254683
 31
0.0
  0
LINE
  5
331
330
17
100
AcDbEntity
  8
0
100
AcDbLine
 10
1054.6359300482197
 20
570.2359187254683
 30
0.0
 11
1053.3663102658668
 21
569.7100249925606
 31
0.0
  0
LINE
  5
332
330
17
100
AcDbEntity
  8
0
100
AcDbLine
 10
1053.3663102658668
 20
569.7100249925606
 30
0.0
 11
1052.1125230673686
 21
569.147427204673
 31
0.0
  0
LINE
  5
333
330
17
100
AcDbEntity
  8
0
100
AcDbLine
 10
1052.1125230673686
 20
569.147427204673
 30
0.0
 11
1050.8756292818678
 21
568.5486013757009
 31
0.0
  0
LINE
  5
334
330
17
100
AcDbEntity
  8
0
100
AcDbLine
 10
1050.8756292818678
 20
568.5486013757009
 30
0.0
 11
1049.6566754449934
 21
567.9140541720803
 31
0.0
  0
LINE
  5
335
330
17
100
AcDbEntity
  8
0
100
AcDbLine
 10
1049.6566754449934
 20
567.9140541720803
 30
0.0
 11
1048.4566929133857
 21
567.2443224840958
 31
0.0
  0
LINE
  5
336
330
17
100
AcDbEntity
  8
0
100
AcDbLine
 10
1048.4566929133857
 20
567.2443224840958
 30
0.0
 11
1047.276696992068
 21
566.5399729716187
 31
0.0
  0
LINE
  5
337
330
17
100
AcDbEntity
  8
0
100
AcDbLine
 10
1047.276696992068
 20
566.5399729716187
 30
0.0
 11
1046.117686075395
 21
565.8016015846551
 31
0.0
  0
LINE
  5
338
330
17
100
AcDbEntity
  8
0
100
AcDbLine
 10
1046.117686075395
 20
565.8016015846551
 30
0.0
 11
1044.980640802313
 21
565.0298330591145
 31
0.0
  0
LINE
  5
339
330
17
100
AcDbEntity
  8
0
100
AcDbLine
 10
1044.980640802313
 20
565.0298330591145
 30
0.0
 11
1043.86652322664
 21
564.2253203882192
 31
0.0
  0
LINE
  5
33A
330
17
100
AcDbEntity
  8
0
100
AcDbLine
 10
1043.86652322664
 20
564.2253203882192
 30
0.0
 11
1042.7762760030744
 21
563.3887442700084
 31
0.0
  0
LINE
  5
33B
330
17
100
AcDbEntity
  8
0
100
AcDbLine
 10
1042.7762760030744
 20
563.3887442700084
 30
0.0
 11
1041.7108215896126
 21
562.5208125313975
 31
0.0
  0
LINE
  5
33C
330
17
100
AcDbEntity
  8
0
100
AcDbLine
 10
1041.7108215896126
 20
562.5208125313975
 30
0.0
 11
1040.6710614670578
 21
561.6222595292875
 31
0.0
  0
LINE
  5
33D
330
17
100
AcDbEntity
  8
0
100
AcDbLine
 10
1040.6710614670578
 20
561.6222595292875
 30
0.0
 11
1039.6578753762803
 21
560.693845529227
 31
0.0
  0
LINE
  5
33E
330
17
100
AcDbEntity
  8
0
100
AcDbLine
 10
1039.6578753762803
 20
560.693845529227
 30
0.0
 11
1038.6721205738638
 21
559.7363560621479
 31
0.0
  0
ENDSEC
  0
SECTION
  2
OBJECTS
  0
DICTIONARY
  5
A
330
0
100
AcDbDictionary
281
1
  3
ACAD_COLOR
350
B
  3
ACAD_GROUP
350
C
  3
ACAD_LAYOUT
350
D
  3
ACAD_MATERIAL
350
E
  3
ACAD_MLEADERSTYLE
350
F
  3
ACAD_MLINESTYLE
350
10
  3
ACAD_PLOTSETTINGS
350
11
  3
ACAD_PLOTSTYLENAME
350
12
  3
ACAD_SCALELIST
350
14
  3
ACAD_TABLESTYLE
350
15
  3
ACAD_VISUALSTYLE
350
16
  3
EZDXF_META
350
2D
  0
DICTIONARY
  5
B
330
A
100
AcDbDictionary
281
1
  0
DICTIONARY
  5
C
330
A
100
AcDbDictionary
281
1
  0
DICTIONARY
  5
D
330
A
100
AcDbDictionary
281
1
  3
Model
350
1A
  3
Layout1
350
1E
  0
DICTIONARY
  5
E
330
A
100
AcDbDictionary
281
1
  3
ByBlock
350
1F
  3
ByLayer
350
20
  3
Global
350
21
  0
DICTIONARY
  5
F
330
A
100
AcDbDictionary
281
1
  3
Standard
350
2C
  0
DICTIONARY
  5
10
330
A
100
AcDbDictionary
281
1
  3
Standard
350
22
  0
DICTIONARY
  5
11
330
A
100
AcDbDictionary
281
1
  0
ACDBDICTIONARYWDFLT
  5
12
330
A
100
AcDbDictionary
281
1
  3
Normal
350
13
100
AcDbDictionaryWithDefault
340
13
  0
ACDBPLACEHOLDER
  5
13
330
12
  0
DICTIONARY
  5
14
330
A
100
AcDbDictionary
281
1
  0
DICTIONARY
  5
15
330
A
100
AcDbDictionary
281
1
  0
DICTIONARY
  5
16
330
A
100
AcDbDictionary
281
1
  0
LAYOUT
  5
1A
330
D
100
AcDbPlotSettings
  1

  4
A3
  6

 40
7.5
 41
20.0
 42
7.5
 43
20.0
 44
420.0
 45
297.0
 46
0.0
 47
0.0
 48
0.0
 49
0.0
140
0.0
141
0.0
142
1.0
143
1.0
 70
1024
 72
1
 73
0
 74
5
  7

 75
16
 76
0
 77
2
 78
300
147
1.0
148
0.0
149
0.0
100
AcDbLayout
  1
Model
 70
1
 71
0
 10
0.0
 20
0.0
 11
420.0
 21
297.0
 12
0.0
 22
0.0
 32
0.0
 14
1e+20
 24
1e+20
 34
1e+20
 15
-1e+20
 25
-1e+20
 35
-1e+20
146
0.0
 13
0.0
 23
0.0
 33
0.0
 16
1.0
 26
0.0
 36
0.0
 17
0.0
 27
1.0
 37
0.0
 76
1
330
17
  0
LAYOUT
  5
1E
330
D
100
AcDbPlotSettings
  1

  4
A3
  6

 40
7.5
 41
20.0
 42
7.5
 43
20.0
 44
420.0
 45
297.0
 46
0.0
 47
0.0
 48
0.0
 49
0.0
140
0.0
141
0.0
142
1.0
143
1.0
 70
0
 72
1
 73
0
 74
5
  7

 75
16
 76
0
 77
2
 78
300
147
1.0
148
0.0
149
0.0
100
AcDbLayout
  1
Layout1
 70
1
 71
1
 10
0.0
 20
0.0
 11
420.0
 21
297.0
 12
0.0
 22
0.0
 32
0.0
 14
1e+20
 24
1e+20
 34
1e+20
 15
-1e+20
 25
-1e+20
 35
-1e+20
146
0.0
 13
0.0
 23
0.0
 33
0.0
 16
1.0
 26
0.0
 36
0.0
 17
0.0
 27
1.0
 37
0.0
 76
1
330
1B
  0
MATERIAL
  5
1F
102
{ACAD_REACTORS
330
E
102
}
330
E
100
AcDbMaterial
  1
ByBlock
  2

 70
0
 40
1.0
 71
1
 41
1.0
 91
-1023410177
 42
1.0
 72
1
  3

 73
1
 74
1
 75
1
 44
0.5
 73
0
 45
1.0
 46
1.0
 77
1
  4

 78
1
 79
1
170
1
 48
1.0
171
1
  6

172
1
173
1
174
1
140
1.0
141
1.0
175
1
  7

176
1
177
1
178
1
143
1.0
179
1
  8

270
1
271
1
272
1
145
1.0
146
1.0
273
1
  9

274
1
275
1
276
1
 42
1.0
 72
1
  3

 73
1
 74
1
 75
1
 94
63
  0
MATERIAL
  5
20
102
{ACAD_REACTORS
330
E
102
}
330
E
100
AcDbMaterial
  1
ByLayer
  2

 70
0
 40
1.0
 71
1
 41
1.0
 91
-1023410177
 42
1.0
 72
1
  3

 73
1
 74
1
 75
1
 44
0.5
 73
0
 45
1.0
 46
1.0
 77
1
  4

 78
1
 79
1
170
1
 48
1.0
171
1
  6

172
1
173
1
174
1
140
1.0
141
1.0
175
1
  7

176
1
177
1
178
1
143
1.0
179
1
  8

270
1
271
1
272
1
145
1.0
146
1.0
273
1
  9

274
1
275
1
276
1
 42
1.0
 72
1
  3

 73
1
 74
1
 75
1
 94
63
  0
MATERIAL
  5
21
102
{ACAD_REACTORS
330
E
102
}
330
E
100
AcDbMaterial
  1
Global
  2

 70
0
 40
1.0
 71
1
 41
1.0
 91
-1023410177
 42
1.0
 72
1
  3

 73
1
 74
1
 75
1
 44
0.5
 73
0
 45
1.0
 46
1.0
 77
1
  4

 78
1
 79
1
170
1
 48
1.0
171
1
  6

172
1
173
1
174
1
140
1.0
141
1.0
175
1
  7

176
1
177
1
178
1
143
1.0
179
1
  8

270
1
271
1
272
1
145
1.0
146
1.0
273
1
  9

274
1
275
1
276
1
 42
1.0
 72
1
  3

 73
1
 74
1
 75
1
 94
63
  0
MLINESTYLE
  5
22
102
{ACAD_REACTORS
330
10
102
}
330
10
100
AcDbMlineStyle
  2
Standard
 70
0
  3

 62
256
 51
90.0
 52
90.0
 71
2
 49
0.5
 62
256
  6
BYLAYER
 49
-0.5
 62
256
  6
BYLAYER
  0
MLEADERSTYLE
  5
2C
102
{ACAD_REACTORS
330
F
102
}
330
F
100
AcDbMLeaderStyle
179
2
170
2
171
1
172
0
 90
2
 40
0.0
 41
0.0
173
1
 91
-1056964608
 92
-2
290
1
 42
2.0
291
1
 43
8.0
  3
Standard
 44
4.0
300

342
29
174
1
175
1
176
0
178
1
 93
-1056964608
 45
4.0
292
0
297
0
 46
4.0
 94
-1056964608
 47
1.0
 49
1.0
140
1.0
294
1
141
0.0
177
0
142
1.0
295
0
296
0
143
3.75
271
0
272
9
273
9
  0
DICTIONARY
  5
2D
330
A
100
AcDbDictionary
280
1
281
1
  3
CREATED_BY_EZDXF
350
2E
  3
WRITTEN_BY_EZDXF
350
341
  0
DICTIONARYVAR
  5
2E
330
2D
100
DictionaryVariables
280
0
  1
1.4.3 @ 2026-04-16T10:53:30.771225+00:00
  0
DICTIONARYVAR
  5
341
330
2D
100
DictionaryVariables
280
0
  1
1.4.3 @ 2026-04-16T10:53:30.793210+00:00
  0
ENDSEC
  0
EOF
