  0
SECTION
  2
HEADER
  9
$ACADVER
  1
AC1024
  9
$ACADMAINTVER
 70
6
  9
$DWGCODEPAGE
  3
ANSI_1252
  9
$LASTSAVEDBY
  1
ezdxf
  9
$INSBASE
 10
0.0
 20
0.0
 30
0.0
  9
$EXTMIN
 10
1e+20
 20
1e+20
 30
1e+20
  9
$EXTMAX
 10
-1e+20
 20
-1e+20
 30
-1e+20
  9
$LIMMIN
 10
0.0
 20
0.0
  9
$LIMMAX
 10
420.0
 20
297.0
  9
$ORTHOMODE
 70
0
  9
$REGENMODE
 70
1
  9
$FILLMODE
 70
1
  9
$QTEXTMODE
 70
0
  9
$MIRRTEXT
 70
1
  9
$LTSCALE
 40
1.0
  9
$ATTMODE
 70
1
  9
$TEXTSIZE
 40
2.5
  9
$TRACEWID
 40
1.0
  9
$TEXTSTYLE
  7
Standard
  9
$CLAYER
  8
0
  9
$CELTYPE
  6
ByLayer
  9
$CECOLOR
 62
256
  9
$CELTSCALE
 40
1.0
  9
$DISPSILH
 70
0
  9
$DIMSCALE
 40
1.0
  9
$DIMASZ
 40
2.5
  9
$DIMEXO
 40
0.625
  9
$DIMDLI
 40
3.75
  9
$DIMRND
 40
0.0
  9
$DIMDLE
 40
0.0
  9
$DIMEXE
 40
1.25
  9
$DIMTP
 40
0.0
  9
$DIMTM
 40
0.0
  9
$DIMTXT
 40
2.5
  9
$DIMCEN
 40
2.5
  9
$DIMTSZ
 40
0.0
  9
$DIMTOL
 70
0
  9
$DIMLIM
 70
0
  9
$DIMTIH
 70
0
  9
$DIMTOH
 70
0
  9
$DIMSE1
 70
0
  9
$DIMSE2
 70
0
  9
$DIMTAD
 70
1
  9
$DIMZIN
 70
8
  9
$DIMBLK
  1

  9
$DIMASO
 70
1
  9
$DIMSHO
 70
1
  9
$DIMPOST
  1

  9
$DIMAPOST
  1

  9
$DIMALT
 70
0
  9
$DIMALTD
 70
3
  9
$DIMALTF
 40
0.03937007874
  9
$DIMLFAC
 40
1.0
  9
$DIMTOFL
 70
1
  9
$DIMTVP
 40
0.0
  9
$DIMTIX
 70
0
  9
$DIMSOXD
 70
0
  9
$DIMSAH
 70
0
  9
$DIMBLK1
  1

  9
$DIMBLK2
  1

  9
$DIMSTYLE
  2
ISO-25
  9
$DIMCLRD
 70
0
  9
$DIMCLRE
 70
0
  9
$DIMCLRT
 70
0
  9
$DIMTFAC
 40
1.0
  9
$DIMGAP
 40
0.625
  9
$DIMJUST
 70
0
  9
$DIMSD1
 70
0
  9
$DIMSD2
 70
0
  9
$DIMTOLJ
 70
0
  9
$DIMTZIN
 70
8
  9
$DIMALTZ
 70
0
  9
$DIMALTTZ
 70
0
  9
$DIMUPT
 70
0
  9
$DIMDEC
 70
2
  9
$DIMTDEC
 70
2
  9
$DIMALTU
 70
2
  9
$DIMALTTD
 70
3
  9
$DIMTXSTY
  7
Standard
  9
$DIMAUNIT
 70
0
  9
$DIMADEC
 70
0
  9
$DIMALTRND
 40
0.0
  9
$DIMAZIN
 70
0
  9
$DIMDSEP
 70
44
  9
$DIMATFIT
 70
3
  9
$DIMFRAC
 70
0
  9
$DIMLDRBLK
  1

  9
$DIMLUNIT
 70
2
  9
$DIMLWD
 70
-2
  9
$DIMLWE
 70
-2
  9
$DIMTMOVE
 70
0
  9
$DIMFXL
 40
1.0
  9
$DIMFXLON
 70
0
  9
$DIMJOGANG
 40
0.785398163397
  9
$DIMTFILL
 70
0
  9
$DIMTFILLCLR
 70
0
  9
$DIMARCSYM
 70
0
  9
$DIMLTYPE
  6

  9
$DIMLTEX1
  6

  9
$DIMLTEX2
  6

  9
$DIMTXTDIRECTION
 70
0
  9
$LUNITS
 70
2
  9
$LUPREC
 70
4
  9
$SKETCHINC
 40
1.0
  9
$FILLETRAD
 40
10.0
  9
$AUNITS
 70
0
  9
$AUPREC
 70
2
  9
$MENU
  1
.
  9
$ELEVATION
 40
0.0
  9
$PELEVATION
 40
0.0
  9
$THICKNESS
 40
0.0
  9
$LIMCHECK
 70
0
  9
$CHAMFERA
 40
0.0
  9
$CHAMFERB
 40
0.0
  9
$CHAMFERC
 40
0.0
  9
$CHAMFERD
 40
0.0
  9
$SKPOLY
 70
0
  9
$TDCREATE
 40
2461147.4846412037
  9
$TDUCREATE
 40
2458532.153996898
  9
$TDUPDATE
 40
2461147.4846527777
  9
$TDUUPDATE
 40
2458532.1544311
  9
$TDINDWG
 40
0.0
  9
$TDUSRTIMER
 40
0.0
  9
$USRTIMER
 70
1
  9
$ANGBASE
 50
0.0
  9
$ANGDIR
 70
0
  9
$PDMODE
 70
0
  9
$PDSIZE
 40
0.0
  9
$PLINEWID
 40
0.0
  9
$SPLFRAME
 70
0
  9
$SPLINETYPE
 70
6
  9
$SPLINESEGS
 70
8
  9
$HANDSEED
  5
EE
  9
$SURFTAB1
 70
6
  9
$SURFTAB2
 70
6
  9
$SURFTYPE
 70
6
  9
$SURFU
 70
6
  9
$SURFV
 70
6
  9
$UCSBASE
  2

  9
$UCSNAME
  2

  9
$UCSORG
 10
0.0
 20
0.0
 30
0.0
  9
$UCSXDIR
 10
1.0
 20
0.0
 30
0.0
  9
$UCSYDIR
 10
0.0
 20
1.0
 30
0.0
  9
$UCSORTHOREF
  2

  9
$UCSORTHOVIEW
 70
0
  9
$UCSORGTOP
 10
0.0
 20
0.0
 30
0.0
  9
$UCSORGBOTTOM
 10
0.0
 20
0.0
 30
0.0
  9
$UCSORGLEFT
 10
0.0
 20
0.0
 30
0.0
  9
$UCSORGRIGHT
 10
0.0
 20
0.0
 30
0.0
  9
$UCSORGFRONT
 10
0.0
 20
0.0
 30
0.0
  9
$UCSORGBACK
 10
0.0
 20
0.0
 30
0.0
  9
$PUCSBASE
  2

  9
$PUCSNAME
  2

  9
$PUCSORG
 10
0.0
 20
0.0
 30
0.0
  9
$PUCSXDIR
 10
1.0
 20
0.0
 30
0.0
  9
$PUCSYDIR
 10
0.0
 20
1.0
 30
0.0
  9
$PUCSORTHOREF
  2

  9
$PUCSORTHOVIEW
 70
0
  9
$PUCSORGTOP
 10
0.0
 20
0.0
 30
0.0
  9
$PUCSORGBOTTOM
 10
0.0
 20
0.0
 30
0.0
  9
$PUCSORGLEFT
 10
0.0
 20
0.0
 30
0.0
  9
$PUCSORGRIGHT
 10
0.0
 20
0.0
 30
0.0
  9
$PUCSORGFRONT
 10
0.0
 20
0.0
 30
0.0
  9
$PUCSORGBACK
 10
0.0
 20
0.0
 30
0.0
  9
$USERI1
 70
0
  9
$USERI2
 70
0
  9
$USERI3
 70
0
  9
$USERI4
 70
0
  9
$USERI5
 70
0
  9
$USERR1
 40
0.0
  9
$USERR2
 40
0.0
  9
$USERR3
 40
0.0
  9
$USERR4
 40
0.0
  9
$USERR5
 40
0.0
  9
$WORLDVIEW
 70
1
  9
$SHADEDGE
 70
3
  9
$SHADEDIF
 70
70
  9
$TILEMODE
 70
1
  9
$MAXACTVP
 70
64
  9
$PINSBASE
 10
0.0
 20
0.0
 30
0.0
  9
$PLIMCHECK
 70
0
  9
$PEXTMIN
 10
1e+20
 20
1e+20
 30
1e+20
  9
$PEXTMAX
 10
-1e+20
 20
-1e+20
 30
-1e+20
  9
$PLIMMIN
 10
0.0
 20
0.0
  9
$PLIMMAX
 10
420.0
 20
297.0
  9
$UNITMODE
 70
0
  9
$VISRETAIN
 70
1
  9
$PLINEGEN
 70
0
  9
$PSLTSCALE
 70
1
  9
$TREEDEPTH
 70
3020
  9
$CMLSTYLE
  2
Standard
  9
$CMLJUST
 70
0
  9
$CMLSCALE
 40
20.0
  9
$PROXYGRAPHICS
 70
1
  9
$MEASUREMENT
 70
1
  9
$CELWEIGHT
370
-1
  9
$ENDCAPS
280
0
  9
$JOINSTYLE
280
0
  9
$LWDISPLAY
290
0
  9
$INSUNITS
 70
0
  9
$HYPERLINKBASE
  1

  9
$STYLESHEET
  1

  9
$XEDIT
290
1
  9
$CEPSNTYPE
380
0
  9
$PSTYLEMODE
290
1
  9
$FINGERPRINTGUID
  2
{C2BEF95F-44D6-4717-BC4B-4068CCCBB4C1}
  9
$VERSIONGUID
  2
{1E52E6F9-F4C5-4393-9192-00AB9E042E68}
  9
$EXTNAMES
290
1
  9
$PSVPSCALE
 40
0.0
  9
$OLESTARTUP
290
0
  9
$SORTENTS
280
127
  9
$INDEXCTL
280
0
  9
$HIDETEXT
280
1
  9
$XCLIPFRAME
280
1
  9
$HALOGAP
280
0
  9
$OBSCOLOR
 70
257
  9
$OBSLTYPE
280
0
  9
$INTERSECTIONDISPLAY
280
0
  9
$INTERSECTIONCOLOR
 70
257
  9
$DIMASSOC
280
2
  9
$PROJECTNAME
  1

  9
$CAMERADISPLAY
290
0
  9
$LENSLENGTH
 40
50.0
  9
$CAMERAHEIGHT
 40
0.0
  9
$STEPSPERSEC
 40
24.0
  9
$STEPSIZE
 40
100.0
  9
$3DDWFPREC
 40
2.0
  9
$PSOLWIDTH
 40
0.005
  9
$PSOLHEIGHT
 40
0.08
  9
$LOFTANG1
 40
1.570796326795
  9
$LOFTANG2
 40
1.570796326795
  9
$LOFTMAG1
 40
0.0
  9
$LOFTMAG2
 40
0.0
  9
$LOFTPARAM
 70
7
  9
$LOFTNORMALS
280
1
  9
$LATITUDE
 40
37.795
  9
$LONGITUDE
 40
-122.394
  9
$NORTHDIRECTION
 40
0.0
  9
$TIMEZONE
 70
-8000
  9
$LIGHTGLYPHDISPLAY
280
1
  9
$TILEMODELIGHTSYNCH
280
1
  9
$CMATERIAL
347
20
  9
$SOLIDHIST
280
0
  9
$SHOWHIST
280
1
  9
$DWFFRAME
280
2
  9
$DGNFRAME
280
2
  9
$REALWORLDSCALE
290
1
  9
$INTERFERECOLOR
 62
256
  9
$CSHADOW
280
0
  9
$SHADOWPLANELOCATION
 40
0.0
  0
ENDSEC
  0
SECTION
  2
CLASSES
  0
CLASS
  1
ACDBDICTIONARYWDFLT
  2
AcDbDictionaryWithDefault
  3
ObjectDBX Classes
 90
0
 91
0
280
0
281
0
  0
CLASS
  1
SUN
  2
AcDbSun
  3
SCENEOE
 90
1153
 91
0
280
0
281
0
  0
CLASS
  1
VISUALSTYLE
  2
AcDbVisualStyle
  3
ObjectDBX Classes
 90
4095
 91
0
280
0
281
0
  0
CLASS
  1
MATERIAL
  2
AcDbMaterial
  3
ObjectDBX Classes
 90
1153
 91
0
280
0
281
0
  0
CLASS
  1
SCALE
  2
AcDbScale
  3
ObjectDBX Classes
 90
1153
 91
0
280
0
281
0
  0
CLASS
  1
TABLESTYLE
  2
AcDbTableStyle
  3
ObjectDBX Classes
 90
4095
 91
0
280
0
281
0
  0
CLASS
  1
MLEADERSTYLE
  2
AcDbMLeaderStyle
  3
ACDB_MLEADERSTYLE_CLASS
 90
4095
 91
0
280
0
281
0
  0
CLASS
  1
DICTIONARYVAR
  2
AcDbDictionaryVar
  3
ObjectDBX Classes
 90
0
 91
0
280
0
281
0
  0
CLASS
  1
CELLSTYLEMAP
  2
AcDbCellStyleMap
  3
ObjectDBX Classes
 90
1152
 91
0
280
0
281
0
  0
CLASS
  1
MENTALRAYRENDERSETTINGS
  2
AcDbMentalRayRenderSettings
  3
SCENEOE
 90
1024
 91
0
280
0
281
0
  0
CLASS
  1
ACDBDETAILVIEWSTYLE
  2
AcDbDetailViewStyle
  3
ObjectDBX Classes
 90
1025
 91
0
280
0
281
0
  0
CLASS
  1
ACDBSECTIONVIEWSTYLE
  2
AcDbSectionViewStyle
  3
ObjectDBX Classes
 90
1025
 91
0
280
0
281
0
  0
CLASS
  1
RASTERVARIABLES
  2
AcDbRasterVariables
  3
ISM
 90
0
 91
0
280
0
281
0
  0
CLASS
  1
ACDBPLACEHOLDER
  2
AcDbPlaceHolder
  3
ObjectDBX Classes
 90
0
 91
0
280
0
281
0
  0
CLASS
  1
LAYOUT
  2
AcDbLayout
  3
ObjectDBX Classes
 90
0
 91
0
280
0
281
0
  0
ENDSEC
  0
SECTION
  2
TABLES
  0
TABLE
  2
VPORT
  5
8
330
0
100
AcDbSymbolTable
 70
1
  0
VPORT
  5
23
330
8
100
AcDbSymbolTableRecord
100
AcDbViewportTableRecord
  2
*Active
 70
0
 10
0.0
 20
0.0
 11
1.0
 21
1.0
 12
0.0
 22
0.0
 13
0.0
 23
0.0
 14
0.5
 24
0.5
 15
0.5
 25
0.5
 16
0.0
 26
0.0
 36
1.0
 17
0.0
 27
0.0
 37
0.0
 40
1000.0
 41
1.34
 42
50.0
 43
0.0
 44
0.0
 50
0.0
 51
0.0
 71
0
 72
1000
 73
1
 74
3
 75
0
 76
0
 77
0
 78
0
281
0
 65
0
146
0.0
  0
ENDTAB
  0
TABLE
  2
LTYPE
  5
2
330
0
100
AcDbSymbolTable
 70
3
  0
LTYPE
  5
24
330
2
100
AcDbSymbolTableRecord
100
AcDbLinetypeTableRecord
  2
ByBlock
 70
0
  3

 72
65
 73
0
 40
0.0
  0
LTYPE
  5
25
330
2
100
AcDbSymbolTableRecord
100
AcDbLinetypeTableRecord
  2
ByLayer
 70
0
  3

 72
65
 73
0
 40
0.0
  0
LTYPE
  5
26
330
2
100
AcDbSymbolTableRecord
100
AcDbLinetypeTableRecord
  2
Continuous
 70
0
  3

 72
65
 73
0
 40
0.0
  0
ENDTAB
  0
TABLE
  2
LAYER
  5
1
330
0
100
AcDbSymbolTable
 70
2
  0
LAYER
  5
27
330
1
100
AcDbSymbolTableRecord
100
AcDbLayerTableRecord
  2
0
 70
0
 62
7
  6
Continuous
370
-3
390
13
347
21
  0
LAYER
  5
28
330
1
100
AcDbSymbolTableRecord
100
AcDbLayerTableRecord
  2
Defpoints
 70
0
 62
7
  6
Continuous
290
0
370
-3
390
13
347
21
  0
ENDTAB
  0
TABLE
  2
STYLE
  5
5
330
0
100
AcDbSymbolTable
 70
1
  0
STYLE
  5
29
330
5
100
AcDbSymbolTableRecord
100
AcDbTextStyleTableRecord
  2
Standard
 70
0
 40
0.0
 41
1.0
 50
0.0
 71
0
 42
2.5
  3
txt
  4

  0
ENDTAB
  0
TABLE
  2
VIEW
  5
7
330
0
100
AcDbSymbolTable
 70
0
  0
ENDTAB
  0
TABLE
  2
UCS
  5
6
330
0
100
AcDbSymbolTable
 70
0
  0
ENDTAB
  0
TABLE
  2
APPID
  5
3
330
0
100
AcDbSymbolTable
 70
3
  0
APPID
  5
2A
330
3
100
AcDbSymbolTableRecord
100
AcDbRegAppTableRecord
  2
ACAD
 70
0
  0
APPID
  5
EB
330
3
100
AcDbSymbolTableRecord
100
AcDbRegAppTableRecord
  2
HATCHBACKGROUNDCOLOR
 70
0
  0
APPID
  5
EC
330
3
100
AcDbSymbolTableRecord
100
AcDbRegAppTableRecord
  2
EZDXF
 70
0
  0
ENDTAB
  0
TABLE
  2
DIMSTYLE
  5
4
330
0
100
AcDbSymbolTable
 70
1
100
AcDbDimStyleTable
  0
DIMSTYLE
105
2B
330
4
100
AcDbSymbolTableRecord
100
AcDbDimStyleTableRecord
  2
Standard
 70
0
 40
1.0
 41
2.5
 42
0.625
 43
3.75
 44
1.25
 45
0.0
 46
0.0
 47
0.0
 48
0.0
 49
2.5
140
2.5
141
2.5
142
0.0
143
0.03937007874
144
1.0
145
0.0
146
1.0
147
0.625
148
0.0
 69
0
 70
0
 71
0
 72
0
 73
0
 74
0
 75
0
 76
0
 77
1
 78
8
 79
3
170
0
171
3
172
1
173
0
174
0
175
0
176
0
177
0
178
0
179
2
271
2
272
2
273
2
274
3
275
0
276
0
277
2
278
44
279
0
280
0
281
0
282
0
283
0
284
8
285
0
286
0
288
0
289
3
290
0
371
-2
372
-2
  0
ENDTAB
  0
TABLE
  2
BLOCK_RECORD
  5
9
330
0
100
AcDbSymbolTable
 70
2
  0
BLOCK_RECORD
  5
17
330
9
100
AcDbSymbolTableRecord
100
AcDbBlockTableRecord
  2
*Model_Space
340
1A
 70
0
280
1
281
0
  0
BLOCK_RECORD
  5
1B
330
9
100
AcDbSymbolTableRecord
100
AcDbBlockTableRecord
  2
*Paper_Space
340
1E
 70
0
280
1
281
0
  0
ENDTAB
  0
ENDSEC
  0
SECTION
  2
BLOCKS
  0
BLOCK
  5
18
330
17
100
AcDbEntity
  8
0
100
AcDbBlockBegin
  2
*Model_Space
 70
0
 10
0.0
 20
0.0
 30
0.0
  3
*Model_Space
  1

  0
ENDBLK
  5
19
330
17
100
AcDbEntity
  8
0
100
AcDbBlockEnd
  0
BLOCK
  5
1C
330
1B
100
AcDbEntity
  8
0
100
AcDbBlockBegin
  2
*Paper_Space
 70
0
 10
0.0
 20
0.0
 30
0.0
  3
*Paper_Space
  1

  0
ENDBLK
  5
1D
330
1B
100
AcDbEntity
  8
0
100
AcDbBlockEnd
  0
ENDSEC
  0
SECTION
  2
ENTITIES
  0
LINE
  5
2F
330
17
100
AcDbEntity
  8
0
100
AcDbLine
 10
330.3891502124475
 20
2036.0489614990036
 30
0.0
 11
366.1316785960041
 21
-11.639118181285767
 31
0.0
  0
LINE
  5
30
330
17
100
AcDbEntity
  8
0
100
AcDbLine
 10
861.8042637798209
 20
2045.3248468101583
 30
0.0
 11
897.5467921633775
 21
-2.363232870131128
 31
0.0
  0
LINE
  5
31
330
17
100
AcDbEntity
  8
0
100
AcDbLine
 10
-12.056172502049034
 20
1705.7613474384673
 30
0.0
 11
867.4633953096949
 21
1721.1134186002591
 31
0.0
  0
LINE
  5
32
330
17
100
AcDbEntity
  8
0
100
AcDbLine
 10
-0.7189793439711765
 20
1056.2539864116784
 30
0.0
 11
878.8005884677726
 21
1071.6060575734703
 31
0.0
  0
LINE
  5
33
330
17
100
AcDbEntity
  8
0
100
AcDbLine
 10
10.618213814106698
 20
406.74662538488883
 30
0.0
 11
890.1377816258506
 21
422.0986965466807
 31
0.0
  0
LINE
  5
34
330
17
100
AcDbEntity
  8
0
100
AcDbLine
 10
890.1377816258506
 20
422.0986965466807
 30
0.0
 11
888.1176999358657
 21
537.8290990569069
 31
0.0
  0
LINE
  5
35
330
17
100
AcDbEntity
  8
0
100
AcDbLine
 10
904.5562082626091
 20
408.17498379318056
 30
0.0
 11
902.1444780817089
 21
546.3429133206898
 31
0.0
  0
LINE
  5
36
330
17
100
AcDbEntity
  8
0
100
AcDbLine
 10
888.1176999358657
 20
537.8290990569069
 30
0.0
 11
902.2887696309962
 21
538.0764559985375
 31
0.0
  0
LINE
  5
37
330
17
100
AcDbEntity
  8
0
100
AcDbLine
 10
880.6351524515344
 20
966.5039573345879
 30
0.0
 11
894.8062221466648
 21
966.7513142762186
 31
0.0
  0
LINE
  5
38
330
17
100
AcDbEntity
  8
0
100
AcDbLine
 10
882.90259108315
 20
836.6024851292308
 30
0.0
 11
897.0736607782804
 21
836.8498420708615
 31
0.0
  0
LINE
  5
39
330
17
100
AcDbEntity
  8
0
100
AcDbLine
 10
885.8502613042504
 20
667.730571262258
 30
0.0
 11
900.0213309993808
 21
667.9779282038887
 31
0.0
  0
LINE
  5
3A
330
17
100
AcDbEntity
  8
0
100
AcDbLine
 10
880.6351524515344
 20
966.5039573345879
 30
0.0
 11
876.7805067777879
 21
1187.3364600836965
 31
0.0
  0
LINE
  5
3B
330
17
100
AcDbEntity
  8
0
100
AcDbLine
 10
885.8502613042504
 20
667.730571262258
 30
0.0
 11
882.90259108315
 21
836.6024851292308
 31
0.0
  0
LINE
  5
3C
330
17
100
AcDbEntity
  8
0
100
AcDbLine
 10
876.7805067777879
 20
1187.3364600836965
 30
0.0
 11
890.9515764729183
 21
1187.5838170253273
 31
0.0
  0
LINE
  5
3D
330
17
100
AcDbEntity
  8
0
100
AcDbLine
 10
869.2979592934565
 20
1616.0113183613776
 30
0.0
 11
883.469028988587
 21
1616.2586753030082
 31
0.0
  0
LINE
  5
3E
330
17
100
AcDbEntity
  8
0
100
AcDbLine
 10
871.5653979250721
 20
1486.10984615602
 30
0.0
 11
885.7364676202026
 21
1486.3572030976509
 31
0.0
  0
LINE
  5
3F
330
17
100
AcDbEntity
  8
0
100
AcDbLine
 10
874.5130681461725
 20
1317.2379322890472
 30
0.0
 11
888.6841378413029
 21
1317.485289230678
 31
0.0
  0
LINE
  5
40
330
17
100
AcDbEntity
  8
0
100
AcDbLine
 10
874.5130681461725
 20
1317.2379322890472
 30
0.0
 11
871.5653979250721
 21
1486.10984615602
 31
0.0
  0
LINE
  5
41
330
17
100
AcDbEntity
  8
0
100
AcDbLine
 10
865.44331361971
 20
1836.843821110486
 30
0.0
 11
879.6143833148404
 21
1837.091178052117
 31
0.0
  0
LINE
  5
42
330
17
100
AcDbEntity
  8
0
100
AcDbLine
 10
863.1758749880946
 20
1966.7452933158365
 30
0.0
 11
877.346944683225
 21
1966.9926502574674
 31
0.0
  0
LINE
  5
43
330
17
100
AcDbEntity
  8
0
100
AcDbLine
 10
863.1758749880946
 20
1966.7452933158365
 30
0.0
 11
861.8042637798209
 21
2045.3248468101583
 31
0.0
  0
LINE
  5
44
330
17
100
AcDbEntity
  8
0
100
AcDbLine
 10
869.2979592934565
 20
1616.0113183613776
 30
0.0
 11
865.44331361971
 21
1836.843821110486
 31
0.0
  0
LINE
  5
45
330
17
100
AcDbEntity
  8
0
100
AcDbLine
 10
16.255150426168882
 20
406.84501847944864
 30
0.0
 11
16.502507367799687
 21
392.67394878431776
 31
0.0
  0
LINE
  5
46
330
17
100
AcDbEntity
  8
0
100
AcDbLine
 10
169.77507212340817
 20
409.5247186804488
 30
0.0
 11
170.02242906503898
 21
395.35364898531793
 31
0.0
  0
LINE
  5
47
330
17
100
AcDbEntity
  8
0
100
AcDbLine
 10
276.0580948368841
 20
411.37989574267976
 30
0.0
 11
276.3054517785149
 21
397.2088260475489
 31
0.0
  0
LINE
  5
48
330
17
100
AcDbEntity
  8
0
100
AcDbLine
 10
16.255150426168882
 20
406.84501847944864
 30
0.0
 11
169.77507212340817
 21
409.5247186804488
 31
0.0
  0
LINE
  5
49
330
17
100
AcDbEntity
  8
0
100
AcDbLine
 10
276.0580948368841
 20
411.37989574267976
 30
0.0
 11
441.38724128006794
 21
414.26572672837233
 31
0.0
  0
LINE
  5
4A
330
17
100
AcDbEntity
  8
0
100
AcDbLine
 10
441.38724128006794
 20
414.26572672837233
 30
0.0
 11
441.63459822169875
 21
400.09465703324145
 31
0.0
  0
LINE
  5
4B
330
17
100
AcDbEntity
  8
0
100
AcDbLine
 10
547.6702639935421
 20
416.1209037906033
 30
0.0
 11
547.9176209351729
 21
401.9498340954724
 31
0.0
  0
LINE
  5
4C
330
17
100
AcDbEntity
  8
0
100
AcDbLine
 10
547.6702639935421
 20
416.1209037906033
 30
0.0
 11
890.1377816258506
 21
422.0986965466807
 31
0.0
  0
LINE
  5
4D
330
17
100
AcDbEntity
  8
0
100
AcDbLine
 10
976.6483414464153
 20
338.55642002568186
 30
0.0
 11
946.8306819506008
 21
2046.808988459943
 31
0.0
  0
LINE
  5
4E
330
17
100
AcDbEntity
  8
0
100
AcDbLine
 10
12.102355463891504
 20
321.72020721410524
 30
0.0
 11
976.6483414464153
 21
338.55642002568186
 31
0.0
  0
LINE
  5
4F
330
17
100
AcDbEntity
  8
0
100
AcDbLine
 10
900.1656225486627
 20
659.7114708817269
 30
0.0
 11
896.9293692289931
 21
845.1162993930197
 31
0.0
  0
LINE
  5
50
330
17
100
AcDbEntity
  8
0
100
AcDbLine
 10
894.1167186264086
 20
667.8748628115426
 30
0.0
 11
894.2610101756932
 21
659.6084054893809
 31
0.0
  0
LINE
  5
51
330
17
100
AcDbEntity
  8
0
100
AcDbLine
 10
894.2610101756932
 20
659.6084054893809
 30
0.0
 11
900.1656225486627
 21
659.7114708817269
 31
0.0
  0
LINE
  5
52
330
17
100
AcDbEntity
  8
0
100
AcDbLine
 10
900.1656225486627
 20
659.7114708817269
 30
0.0
 11
900.1656225486627
 21
659.7114708817269
 31
0.0
  0
LINE
  5
53
330
17
100
AcDbEntity
  8
0
100
AcDbLine
 10
894.2610101756932
 20
659.6084054893809
 30
0.0
 11
896.2398657087394
 21
546.2398479283438
 31
0.0
  0
LINE
  5
54
330
17
100
AcDbEntity
  8
0
100
AcDbLine
 10
896.2398657087394
 20
546.2398479283438
 30
0.0
 11
899.1921718952262
 21
546.2913806245169
 31
0.0
  0
LINE
  5
55
330
17
100
AcDbEntity
  8
0
100
AcDbLine
 10
899.1921718952262
 20
546.2913806245169
 30
0.0
 11
897.21331636218
 21
659.659938185554
 31
0.0
  0
LINE
  5
56
330
17
100
AcDbEntity
  8
0
100
AcDbLine
 10
897.21331636218
 20
659.659938185554
 30
0.0
 11
894.2610101756932
 21
659.6084054893809
 31
0.0
  0
LINE
  5
57
330
17
100
AcDbEntity
  8
0
100
AcDbLine
 10
894.2610101756932
 20
659.6084054893809
 30
0.0
 11
894.2610101756932
 21
659.6084054893809
 31
0.0
  0
LINE
  5
58
330
17
100
AcDbEntity
  8
0
100
AcDbLine
 10
902.1444780817089
 20
546.3429133206898
 30
0.0
 11
896.2398657087394
 21
546.2398479283438
 31
0.0
  0
LINE
  5
59
330
17
100
AcDbEntity
  8
0
100
AcDbLine
 10
896.2398657087394
 20
546.2398479283438
 30
0.0
 11
896.3841572580242
 21
537.9733906061815
 31
0.0
  0
LINE
  5
5A
330
17
100
AcDbEntity
  8
0
100
AcDbLine
 10
902.2887696309937
 20
538.0764559985275
 30
0.0
 11
902.2887696309937
 21
538.0764559985275
 31
0.0
  0
LINE
  5
5B
330
17
100
AcDbEntity
  8
0
100
AcDbLine
 10
894.9505136959467
 20
958.4848569540604
 30
0.0
 11
890.8072849236311
 21
1195.8502743474792
 31
0.0
  0
LINE
  5
5C
330
17
100
AcDbEntity
  8
0
100
AcDbLine
 10
888.9016097736926
 20
966.6482488838725
 30
0.0
 11
889.0459013229772
 21
958.3817915617143
 31
0.0
  0
LINE
  5
5D
330
17
100
AcDbEntity
  8
0
100
AcDbLine
 10
889.0459013229772
 20
958.3817915617143
 30
0.0
 11
894.9505136959467
 21
958.4848569540604
 31
0.0
  0
LINE
  5
5E
330
17
100
AcDbEntity
  8
0
100
AcDbLine
 10
894.9505136959467
 20
958.4848569540604
 30
0.0
 11
894.9505136959467
 21
958.4848569540604
 31
0.0
  0
LINE
  5
5F
330
17
100
AcDbEntity
  8
0
100
AcDbLine
 10
889.0459013229772
 20
958.3817915617143
 30
0.0
 11
891.0247568560236
 21
845.0132340006736
 31
0.0
  0
LINE
  5
60
330
17
100
AcDbEntity
  8
0
100
AcDbLine
 10
891.0247568560236
 20
845.0132340006736
 30
0.0
 11
893.9770630425104
 21
845.0647666968467
 31
0.0
  0
LINE
  5
61
330
17
100
AcDbEntity
  8
0
100
AcDbLine
 10
893.9770630425104
 20
845.0647666968467
 30
0.0
 11
891.998207509464
 21
958.4333242578874
 31
0.0
  0
LINE
  5
62
330
17
100
AcDbEntity
  8
0
100
AcDbLine
 10
891.998207509464
 20
958.4333242578874
 30
0.0
 11
889.0459013229772
 21
958.3817915617143
 31
0.0
  0
LINE
  5
63
330
17
100
AcDbEntity
  8
0
100
AcDbLine
 10
889.0459013229772
 20
958.3817915617143
 30
0.0
 11
889.0459013229772
 21
958.3817915617143
 31
0.0
  0
LINE
  5
64
330
17
100
AcDbEntity
  8
0
100
AcDbLine
 10
896.9293692289931
 20
845.1162993930197
 30
0.0
 11
891.0247568560236
 21
845.0132340006736
 31
0.0
  0
LINE
  5
65
330
17
100
AcDbEntity
  8
0
100
AcDbLine
 10
891.0247568560236
 20
845.0132340006736
 30
0.0
 11
891.1690484053082
 21
836.7467766785154
 31
0.0
  0
LINE
  5
66
330
17
100
AcDbEntity
  8
0
100
AcDbLine
 10
897.0736607782777
 20
836.8498420708615
 30
0.0
 11
897.0736607782777
 21
836.8498420708615
 31
0.0
  0
LINE
  5
67
330
17
100
AcDbEntity
  8
0
100
AcDbLine
 10
888.8284293905848
 20
1309.2188319085167
 30
0.0
 11
885.5921760709151
 21
1494.6236604198098
 31
0.0
  0
LINE
  5
68
330
17
100
AcDbEntity
  8
0
100
AcDbLine
 10
882.7795254683307
 20
1317.3822238383318
 30
0.0
 11
882.9238170176153
 21
1309.1157665161704
 31
0.0
  0
LINE
  5
69
330
17
100
AcDbEntity
  8
0
100
AcDbLine
 10
882.9238170176153
 20
1309.1157665161704
 30
0.0
 11
888.8284293905848
 21
1309.2188319085167
 31
0.0
  0
LINE
  5
6A
330
17
100
AcDbEntity
  8
0
100
AcDbLine
 10
888.8284293905848
 20
1309.2188319085167
 30
0.0
 11
888.8284293905848
 21
1309.2188319085167
 31
0.0
  0
LINE
  5
6B
330
17
100
AcDbEntity
  8
0
100
AcDbLine
 10
882.9238170176153
 20
1309.1157665161704
 30
0.0
 11
884.9026725506616
 21
1195.747208955133
 31
0.0
  0
LINE
  5
6C
330
17
100
AcDbEntity
  8
0
100
AcDbLine
 10
884.9026725506616
 20
1195.747208955133
 30
0.0
 11
887.8549787371484
 21
1195.798741651306
 31
0.0
  0
LINE
  5
6D
330
17
100
AcDbEntity
  8
0
100
AcDbLine
 10
887.8549787371484
 20
1195.798741651306
 30
0.0
 11
885.8761232041021
 21
1309.1672992123436
 31
0.0
  0
LINE
  5
6E
330
17
100
AcDbEntity
  8
0
100
AcDbLine
 10
885.8761232041021
 20
1309.1672992123436
 30
0.0
 11
882.9238170176153
 21
1309.1157665161704
 31
0.0
  0
LINE
  5
6F
330
17
100
AcDbEntity
  8
0
100
AcDbLine
 10
882.9238170176153
 20
1309.1157665161704
 30
0.0
 11
882.9238170176153
 21
1309.1157665161704
 31
0.0
  0
LINE
  5
70
330
17
100
AcDbEntity
  8
0
100
AcDbLine
 10
890.8072849236311
 20
1195.8502743474792
 30
0.0
 11
884.9026725506616
 21
1195.747208955133
 31
0.0
  0
LINE
  5
71
330
17
100
AcDbEntity
  8
0
100
AcDbLine
 10
884.9026725506616
 20
1195.747208955133
 30
0.0
 11
885.0469640999463
 21
1187.4807516329715
 31
0.0
  0
LINE
  5
72
330
17
100
AcDbEntity
  8
0
100
AcDbLine
 10
890.9515764729158
 20
1187.5838170253178
 30
0.0
 11
890.9515764729158
 21
1187.5838170253178
 31
0.0
  0
LINE
  5
73
330
17
100
AcDbEntity
  8
0
100
AcDbLine
 10
883.6133205378688
 20
1607.992217980849
 30
0.0
 11
879.4700917655532
 21
1845.3576353742687
 31
0.0
  0
LINE
  5
74
330
17
100
AcDbEntity
  8
0
100
AcDbLine
 10
877.5644166156147
 20
1616.1556099106622
 30
0.0
 11
877.7087081648993
 21
1607.889152588503
 31
0.0
  0
LINE
  5
75
330
17
100
AcDbEntity
  8
0
100
AcDbLine
 10
877.7087081648993
 20
1607.889152588503
 30
0.0
 11
883.6133205378688
 21
1607.992217980849
 31
0.0
  0
LINE
  5
76
330
17
100
AcDbEntity
  8
0
100
AcDbLine
 10
883.6133205378688
 20
1607.992217980849
 30
0.0
 11
883.6133205378688
 21
1607.992217980849
 31
0.0
  0
LINE
  5
77
330
17
100
AcDbEntity
  8
0
100
AcDbLine
 10
877.7087081648993
 20
1607.889152588503
 30
0.0
 11
879.6875636979456
 21
1494.5205950274637
 31
0.0
  0
LINE
  5
78
330
17
100
AcDbEntity
  8
0
100
AcDbLine
 10
879.6875636979456
 20
1494.5205950274637
 30
0.0
 11
882.6398698844324
 21
1494.5721277236369
 31
0.0
  0
LINE
  5
79
330
17
100
AcDbEntity
  8
0
100
AcDbLine
 10
882.6398698844324
 20
1494.5721277236369
 30
0.0
 11
880.6610143513861
 21
1607.9406852846762
 31
0.0
  0
LINE
  5
7A
330
17
100
AcDbEntity
  8
0
100
AcDbLine
 10
880.6610143513861
 20
1607.9406852846762
 30
0.0
 11
877.7087081648993
 21
1607.889152588503
 31
0.0
  0
LINE
  5
7B
330
17
100
AcDbEntity
  8
0
100
AcDbLine
 10
877.7087081648993
 20
1607.889152588503
 30
0.0
 11
877.7087081648993
 21
1607.889152588503
 31
0.0
  0
LINE
  5
7C
330
17
100
AcDbEntity
  8
0
100
AcDbLine
 10
885.5921760709151
 20
1494.6236604198098
 30
0.0
 11
879.6875636979456
 21
1494.5205950274637
 31
0.0
  0
LINE
  5
7D
330
17
100
AcDbEntity
  8
0
100
AcDbLine
 10
879.6875636979456
 20
1494.5205950274637
 30
0.0
 11
879.8318552472304
 21
1486.2541377053046
 31
0.0
  0
LINE
  5
7E
330
17
100
AcDbEntity
  8
0
100
AcDbLine
 10
885.7364676201998
 20
1486.3572030976509
 30
0.0
 11
885.7364676201998
 21
1486.3572030976509
 31
0.0
  0
LINE
  5
7F
330
17
100
AcDbEntity
  8
0
100
AcDbLine
 10
877.4912362325069
 20
1958.7261929353062
 30
0.0
 11
875.9753334749486
 21
2045.572203751789
 31
0.0
  0
LINE
  5
80
330
17
100
AcDbEntity
  8
0
100
AcDbLine
 10
871.4423323102528
 20
1966.8895848651214
 30
0.0
 11
871.5866238595374
 21
1958.62312754296
 31
0.0
  0
LINE
  5
81
330
17
100
AcDbEntity
  8
0
100
AcDbLine
 10
871.5866238595374
 20
1958.62312754296
 30
0.0
 11
877.4912362325069
 21
1958.7261929353062
 31
0.0
  0
LINE
  5
82
330
17
100
AcDbEntity
  8
0
100
AcDbLine
 10
877.4912362325069
 20
1958.7261929353062
 30
0.0
 11
877.4912362325069
 21
1958.7261929353062
 31
0.0
  0
LINE
  5
83
330
17
100
AcDbEntity
  8
0
100
AcDbLine
 10
871.5866238595374
 20
1958.62312754296
 30
0.0
 11
873.5654793925837
 21
1845.2545699819225
 31
0.0
  0
LINE
  5
84
330
17
100
AcDbEntity
  8
0
100
AcDbLine
 10
873.5654793925837
 20
1845.2545699819225
 30
0.0
 11
876.5177855790705
 21
1845.3061026780956
 31
0.0
  0
LINE
  5
85
330
17
100
AcDbEntity
  8
0
100
AcDbLine
 10
876.5177855790705
 20
1845.3061026780956
 30
0.0
 11
874.5389300460242
 21
1958.6746602391331
 31
0.0
  0
LINE
  5
86
330
17
100
AcDbEntity
  8
0
100
AcDbLine
 10
874.5389300460242
 20
1958.6746602391331
 30
0.0
 11
871.5866238595374
 21
1958.62312754296
 31
0.0
  0
LINE
  5
87
330
17
100
AcDbEntity
  8
0
100
AcDbLine
 10
871.5866238595374
 20
1958.62312754296
 30
0.0
 11
871.5866238595374
 21
1958.62312754296
 31
0.0
  0
LINE
  5
88
330
17
100
AcDbEntity
  8
0
100
AcDbLine
 10
879.4700917655532
 20
1845.3576353742687
 30
0.0
 11
873.5654793925837
 21
1845.2545699819225
 31
0.0
  0
LINE
  5
89
330
17
100
AcDbEntity
  8
0
100
AcDbLine
 10
873.5654793925837
 20
1845.2545699819225
 30
0.0
 11
873.7097709418684
 21
1836.988112659761
 31
0.0
  0
LINE
  5
8A
330
17
100
AcDbEntity
  8
0
100
AcDbLine
 10
879.6143833148379
 20
1837.0911780521074
 30
0.0
 11
879.6143833148379
 21
1837.0911780521074
 31
0.0
  0
LINE
  5
8B
330
17
100
AcDbEntity
  8
0
100
AcDbLine
 10
885.8502613042504
 20
667.730571262258
 30
0.0
 11
900.021330999378
 21
667.9779282038887
 31
0.0
  0
LINE
  5
8C
330
17
100
AcDbEntity
  8
0
100
AcDbLine
 10
900.021330999378
 20
667.9779282038887
 30
0.0
 11
902.2887696309937
 21
538.0764559985275
 31
0.0
  0
LINE
  5
8D
330
17
100
AcDbEntity
  8
0
100
AcDbLine
 10
902.2887696309937
 20
538.0764559985275
 30
0.0
 11
888.117699935866
 21
537.8290990568969
 31
0.0
  0
LINE
  5
8E
330
17
100
AcDbEntity
  8
0
100
AcDbLine
 10
888.117699935866
 20
537.8290990568969
 30
0.0
 11
885.8502613042504
 21
667.730571262258
 31
0.0
  0
LINE
  5
8F
330
17
100
AcDbEntity
  8
0
100
AcDbLine
 10
885.8502613042504
 20
667.730571262258
 30
0.0
 11
885.8502613042504
 21
667.730571262258
 31
0.0
  0
LINE
  5
90
330
17
100
AcDbEntity
  8
0
100
AcDbLine
 10
880.6351524515344
 20
966.5039573345879
 30
0.0
 11
894.8062221466621
 21
966.7513142762186
 31
0.0
  0
LINE
  5
91
330
17
100
AcDbEntity
  8
0
100
AcDbLine
 10
894.8062221466621
 20
966.7513142762186
 30
0.0
 11
897.0736607782777
 21
836.8498420708615
 31
0.0
  0
LINE
  5
92
330
17
100
AcDbEntity
  8
0
100
AcDbLine
 10
897.0736607782777
 20
836.8498420708615
 30
0.0
 11
882.90259108315
 21
836.6024851292308
 31
0.0
  0
LINE
  5
93
330
17
100
AcDbEntity
  8
0
100
AcDbLine
 10
882.90259108315
 20
836.6024851292308
 30
0.0
 11
880.6351524515344
 21
966.5039573345879
 31
0.0
  0
LINE
  5
94
330
17
100
AcDbEntity
  8
0
100
AcDbLine
 10
880.6351524515344
 20
966.5039573345879
 30
0.0
 11
880.6351524515344
 21
966.5039573345879
 31
0.0
  0
LINE
  5
95
330
17
100
AcDbEntity
  8
0
100
AcDbLine
 10
874.5130681461725
 20
1317.2379322890472
 30
0.0
 11
888.6841378413002
 21
1317.485289230678
 31
0.0
  0
LINE
  5
96
330
17
100
AcDbEntity
  8
0
100
AcDbLine
 10
888.6841378413002
 20
1317.485289230678
 30
0.0
 11
890.9515764729158
 21
1187.5838170253178
 31
0.0
  0
LINE
  5
97
330
17
100
AcDbEntity
  8
0
100
AcDbLine
 10
890.9515764729158
 20
1187.5838170253178
 30
0.0
 11
876.7805067777881
 21
1187.336460083687
 31
0.0
  0
LINE
  5
98
330
17
100
AcDbEntity
  8
0
100
AcDbLine
 10
876.7805067777881
 20
1187.336460083687
 30
0.0
 11
874.5130681461725
 21
1317.2379322890472
 31
0.0
  0
LINE
  5
99
330
17
100
AcDbEntity
  8
0
100
AcDbLine
 10
874.5130681461725
 20
1317.2379322890472
 30
0.0
 11
874.5130681461725
 21
1317.2379322890472
 31
0.0
  0
LINE
  5
9A
330
17
100
AcDbEntity
  8
0
100
AcDbLine
 10
869.2979592934565
 20
1616.0113183613776
 30
0.0
 11
883.4690289885842
 21
1616.2586753030082
 31
0.0
  0
LINE
  5
9B
330
17
100
AcDbEntity
  8
0
100
AcDbLine
 10
883.4690289885842
 20
1616.2586753030082
 30
0.0
 11
885.7364676201998
 21
1486.3572030976509
 31
0.0
  0
LINE
  5
9C
330
17
100
AcDbEntity
  8
0
100
AcDbLine
 10
885.7364676201998
 20
1486.3572030976509
 30
0.0
 11
871.5653979250721
 21
1486.10984615602
 31
0.0
  0
LINE
  5
9D
330
17
100
AcDbEntity
  8
0
100
AcDbLine
 10
871.5653979250721
 20
1486.10984615602
 30
0.0
 11
869.2979592934565
 21
1616.0113183613776
 31
0.0
  0
LINE
  5
9E
330
17
100
AcDbEntity
  8
0
100
AcDbLine
 10
869.2979592934565
 20
1616.0113183613776
 30
0.0
 11
869.2979592934565
 21
1616.0113183613776
 31
0.0
  0
LINE
  5
9F
330
17
100
AcDbEntity
  8
0
100
AcDbLine
 10
863.1758749880946
 20
1966.7452933158365
 30
0.0
 11
877.3469446832223
 21
1966.9926502574674
 31
0.0
  0
LINE
  5
A0
330
17
100
AcDbEntity
  8
0
100
AcDbLine
 10
877.3469446832223
 20
1966.9926502574674
 30
0.0
 11
879.6143833148379
 21
1837.0911780521074
 31
0.0
  0
LINE
  5
A1
330
17
100
AcDbEntity
  8
0
100
AcDbLine
 10
879.6143833148379
 20
1837.0911780521074
 30
0.0
 11
865.4433136197102
 21
1836.8438211104765
 31
0.0
  0
LINE
  5
A2
330
17
100
AcDbEntity
  8
0
100
AcDbLine
 10
865.4433136197102
 20
1836.8438211104765
 30
0.0
 11
863.1758749880946
 21
1966.7452933158365
 31
0.0
  0
LINE
  5
A3
330
17
100
AcDbEntity
  8
0
100
AcDbLine
 10
863.1758749880946
 20
1966.7452933158365
 30
0.0
 11
863.1758749880946
 21
1966.7452933158365
 31
0.0
  0
LINE
  5
A4
330
17
100
AcDbEntity
  8
0
100
AcDbLine
 10
547.6702639935421
 20
416.1209037906033
 30
0.0
 11
547.9176209351729
 21
401.9498340954724
 31
0.0
  0
LINE
  5
A5
330
17
100
AcDbEntity
  8
0
100
AcDbLine
 10
547.9176209351729
 20
401.9498340954724
 30
0.0
 11
441.63459822169875
 21
400.09465703324145
 31
0.0
  0
LINE
  5
A6
330
17
100
AcDbEntity
  8
0
100
AcDbLine
 10
441.63459822169875
 20
400.09465703324145
 30
0.0
 11
441.38724128006794
 21
414.26572672837233
 31
0.0
  0
LINE
  5
A7
330
17
100
AcDbEntity
  8
0
100
AcDbLine
 10
441.38724128006794
 20
414.26572672837233
 30
0.0
 11
547.6702639935421
 21
416.1209037906033
 31
0.0
  0
LINE
  5
A8
330
17
100
AcDbEntity
  8
0
100
AcDbLine
 10
547.6702639935421
 20
416.1209037906033
 30
0.0
 11
547.6702639935421
 21
416.1209037906033
 31
0.0
  0
LINE
  5
A9
330
17
100
AcDbEntity
  8
0
100
AcDbLine
 10
276.0580948368841
 20
411.37989574267976
 30
0.0
 11
276.3054517785149
 21
397.2088260475489
 31
0.0
  0
LINE
  5
AA
330
17
100
AcDbEntity
  8
0
100
AcDbLine
 10
276.3054517785149
 20
397.2088260475489
 30
0.0
 11
170.02242906503898
 21
395.35364898531793
 31
0.0
  0
LINE
  5
AB
330
17
100
AcDbEntity
  8
0
100
AcDbLine
 10
170.02242906503898
 20
395.35364898531793
 30
0.0
 11
169.77507212340817
 21
409.5247186804488
 31
0.0
  0
LINE
  5
AC
330
17
100
AcDbEntity
  8
0
100
AcDbLine
 10
169.77507212340817
 20
409.5247186804488
 30
0.0
 11
276.0580948368841
 21
411.37989574267976
 31
0.0
  0
LINE
  5
AD
330
17
100
AcDbEntity
  8
0
100
AcDbLine
 10
276.0580948368841
 20
411.37989574267976
 30
0.0
 11
276.0580948368841
 21
411.37989574267976
 31
0.0
  0
LINE
  5
AE
330
17
100
AcDbEntity
  8
0
100
AcDbLine
 10
16.255150426168882
 20
406.84501847944864
 30
0.0
 11
16.502507367799687
 21
392.67394878431776
 31
0.0
  0
LINE
  5
AF
330
17
100
AcDbEntity
  8
0
100
AcDbLine
 10
16.502507367799687
 20
392.67394878431776
 30
0.0
 11
10.865570755737503
 21
392.57555568975795
 31
0.0
  0
LINE
  5
B0
330
17
100
AcDbEntity
  8
0
100
AcDbLine
 10
10.618213814106698
 20
406.74662538488883
 30
0.0
 11
16.255150426168882
 21
406.84501847944864
 31
0.0
  0
LINE
  5
B1
330
17
100
AcDbEntity
  8
0
100
AcDbLine
 10
16.255150426168882
 20
406.84501847944864
 30
0.0
 11
16.255150426168882
 21
406.84501847944864
 31
0.0
  0
LINE
  5
B2
330
17
100
AcDbEntity
  8
0
100
AcDbLine
 10
868.5101416707085
 20
442.98426567692275
 30
0.0
 11
889.7667462134045
 21
443.35530108936894
 31
0.0
  0
LINE
  5
B3
330
17
100
AcDbEntity
  8
0
100
AcDbLine
 10
889.7667462134045
 20
443.35530108936894
 30
0.0
 11
890.1377816258506
 21
422.0986965466807
 31
0.0
  0
LINE
  5
B4
330
17
100
AcDbEntity
  8
0
100
AcDbLine
 10
890.1377816258506
 20
422.0986965466807
 30
0.0
 11
868.8811770831546
 21
421.7276611342345
 31
0.0
  0
LINE
  5
B5
330
17
100
AcDbEntity
  8
0
100
AcDbLine
 10
868.8811770831546
 20
421.7276611342345
 30
0.0
 11
868.5101416707085
 21
442.98426567692275
 31
0.0
  0
LINE
  5
B6
330
17
100
AcDbEntity
  8
0
100
AcDbLine
 10
868.5101416707085
 20
442.98426567692275
 30
0.0
 11
868.5101416707085
 21
442.98426567692275
 31
0.0
  0
LINE
  5
B7
330
17
100
AcDbEntity
  8
0
100
AcDbLine
 10
347.72333037468235
 20
433.8938980719912
 30
0.0
 11
368.97993491737526
 21
434.2649334844374
 31
0.0
  0
LINE
  5
B8
330
17
100
AcDbEntity
  8
0
100
AcDbLine
 10
368.97993491737526
 20
434.2649334844374
 30
0.0
 11
369.35097032982134
 21
413.00832894174914
 31
0.0
  0
LINE
  5
B9
330
17
100
AcDbEntity
  8
0
100
AcDbLine
 10
369.35097032982134
 20
413.00832894174914
 30
0.0
 11
348.0943657871284
 21
412.63729352930295
 31
0.0
  0
LINE
  5
BA
330
17
100
AcDbEntity
  8
0
100
AcDbLine
 10
348.0943657871284
 20
412.63729352930295
 30
0.0
 11
347.72333037468235
 21
433.8938980719912
 31
0.0
  0
LINE
  5
BB
330
17
100
AcDbEntity
  8
0
100
AcDbLine
 10
347.72333037468235
 20
433.8938980719912
 30
0.0
 11
347.72333037468235
 21
433.8938980719912
 31
0.0
  0
LINE
  5
BC
330
17
100
AcDbEntity
  8
0
100
AcDbLine
 10
857.3584662188537
 20
1081.8633244323682
 30
0.0
 11
878.6150707615496
 21
1082.2343598448144
 31
0.0
  0
LINE
  5
BD
330
17
100
AcDbEntity
  8
0
100
AcDbLine
 10
878.6150707615496
 20
1082.2343598448144
 30
0.0
 11
878.9861061739958
 21
1060.9777553021222
 31
0.0
  0
LINE
  5
BE
330
17
100
AcDbEntity
  8
0
100
AcDbLine
 10
878.9861061739958
 20
1060.9777553021222
 30
0.0
 11
857.7295016312999
 21
1060.606719889676
 31
0.0
  0
LINE
  5
BF
330
17
100
AcDbEntity
  8
0
100
AcDbLine
 10
857.7295016312999
 20
1060.606719889676
 30
0.0
 11
857.3584662188537
 21
1081.8633244323682
 31
0.0
  0
LINE
  5
C0
330
17
100
AcDbEntity
  8
0
100
AcDbLine
 10
857.3584662188537
 20
1081.8633244323682
 30
0.0
 11
857.3584662188537
 21
1081.8633244323682
 31
0.0
  0
LINE
  5
C1
330
17
100
AcDbEntity
  8
0
100
AcDbLine
 10
336.5716549228275
 20
1072.7729568274367
 30
0.0
 11
357.82825946552043
 21
1073.143992239883
 31
0.0
  0
LINE
  5
C2
330
17
100
AcDbEntity
  8
0
100
AcDbLine
 10
357.82825946552043
 20
1073.143992239883
 30
0.0
 11
358.19929487796657
 21
1051.8873876971907
 31
0.0
  0
LINE
  5
C3
330
17
100
AcDbEntity
  8
0
100
AcDbLine
 10
358.19929487796657
 20
1051.8873876971907
 30
0.0
 11
336.94269033527365
 21
1051.5163522847445
 31
0.0
  0
LINE
  5
C4
330
17
100
AcDbEntity
  8
0
100
AcDbLine
 10
336.94269033527365
 20
1051.5163522847445
 30
0.0
 11
336.5716549228275
 21
1072.7729568274367
 31
0.0
  0
LINE
  5
C5
330
17
100
AcDbEntity
  8
0
100
AcDbLine
 10
336.5716549228275
 20
1072.7729568274367
 30
0.0
 11
336.5716549228275
 21
1072.7729568274367
 31
0.0
  0
LINE
  5
C6
330
17
100
AcDbEntity
  8
0
100
AcDbLine
 10
846.0212730607758
 20
1731.370685459158
 30
0.0
 11
867.2778776034718
 21
1731.7417208716042
 31
0.0
  0
LINE
  5
C7
330
17
100
AcDbEntity
  8
0
100
AcDbLine
 10
867.2778776034718
 20
1731.7417208716042
 30
0.0
 11
867.648913015918
 21
1710.4851163289113
 31
0.0
  0
LINE
  5
C8
330
17
100
AcDbEntity
  8
0
100
AcDbLine
 10
867.648913015918
 20
1710.4851163289113
 30
0.0
 11
846.392308473222
 21
1710.1140809164651
 31
0.0
  0
LINE
  5
C9
330
17
100
AcDbEntity
  8
0
100
AcDbLine
 10
846.392308473222
 20
1710.1140809164651
 30
0.0
 11
846.0212730607758
 21
1731.370685459158
 31
0.0
  0
LINE
  5
CA
330
17
100
AcDbEntity
  8
0
100
AcDbLine
 10
846.0212730607758
 20
1731.370685459158
 30
0.0
 11
846.0212730607758
 21
1731.370685459158
 31
0.0
  0
LINE
  5
CB
330
17
100
AcDbEntity
  8
0
100
AcDbLine
 10
325.23446176474965
 20
1722.2803178542265
 30
0.0
 11
346.49106630744257
 21
1722.6513532666727
 31
0.0
  0
LINE
  5
CC
330
17
100
AcDbEntity
  8
0
100
AcDbLine
 10
346.49106630744257
 20
1722.6513532666727
 30
0.0
 11
346.8621017198887
 21
1701.3947487239798
 31
0.0
  0
LINE
  5
CD
330
17
100
AcDbEntity
  8
0
100
AcDbLine
 10
346.8621017198887
 20
1701.3947487239798
 30
0.0
 11
325.6054971771958
 21
1701.0237133115336
 31
0.0
  0
LINE
  5
CE
330
17
100
AcDbEntity
  8
0
100
AcDbLine
 10
325.6054971771958
 20
1701.0237133115336
 30
0.0
 11
325.23446176474965
 21
1722.2803178542265
 31
0.0
  0
LINE
  5
CF
330
17
100
AcDbEntity
  8
0
100
AcDbLine
 10
325.23446176474965
 20
1722.2803178542265
 30
0.0
 11
325.23446176474965
 21
1722.2803178542265
 31
0.0
  0
LINE
  5
D0
330
17
100
AcDbEntity
  8
0
100
AcDbLine
 10
441.5315328293545
 20
405.9992694062082
 30
0.0
 11
449.79799015151406
 21
406.14356095549283
 31
0.0
  0
LINE
  5
D1
330
17
100
AcDbEntity
  8
0
100
AcDbLine
 10
449.79799015151406
 20
406.14356095549283
 30
0.0
 11
449.9010555438602
 21
400.2389485825229
 31
0.0
  0
LINE
  5
D2
330
17
100
AcDbEntity
  8
0
100
AcDbLine
 10
449.9010555438602
 20
400.2389485825229
 30
0.0
 11
449.9010555438602
 21
400.2389485825229
 31
0.0
  0
LINE
  5
D3
330
17
100
AcDbEntity
  8
0
100
AcDbLine
 10
449.8495228476871
 20
403.19125476900786
 30
0.0
 11
539.5996309168453
 21
404.7578487326696
 31
0.0
  0
LINE
  5
D4
330
17
100
AcDbEntity
  8
0
100
AcDbLine
 10
539.5996309168453
 20
404.7578487326696
 30
0.0
 11
539.5480982206722
 21
407.71015491915455
 31
0.0
  0
LINE
  5
D5
330
17
100
AcDbEntity
  8
0
100
AcDbLine
 10
539.5480982206722
 20
407.71015491915455
 30
0.0
 11
449.79799015151406
 21
406.14356095549283
 31
0.0
  0
LINE
  5
D6
330
17
100
AcDbEntity
  8
0
100
AcDbLine
 10
449.79799015151406
 20
406.14356095549283
 30
0.0
 11
449.8495228476871
 21
403.19125476900786
 31
0.0
  0
LINE
  5
D7
330
17
100
AcDbEntity
  8
0
100
AcDbLine
 10
449.8495228476871
 20
403.19125476900786
 30
0.0
 11
449.8495228476871
 21
403.19125476900786
 31
0.0
  0
LINE
  5
D8
330
17
100
AcDbEntity
  8
0
100
AcDbLine
 10
904.5562082626091
 20
408.17498379318056
 30
0.0
 11
539.6511636130183
 21
401.8055425461846
 31
0.0
  0
LINE
  5
D9
330
17
100
AcDbEntity
  8
0
100
AcDbLine
 10
539.6511636130183
 20
401.8055425461846
 30
0.0
 11
539.5480982206722
 21
407.71015491915455
 31
0.0
  0
LINE
  5
DA
330
17
100
AcDbEntity
  8
0
100
AcDbLine
 10
539.5480982206722
 20
407.71015491915455
 30
0.0
 11
547.8145555428308
 21
407.85444646843916
 31
0.0
  0
LINE
  5
DB
330
17
100
AcDbEntity
  8
0
100
AcDbLine
 10
547.917620935177
 20
401.9498340954692
 30
0.0
 11
547.917620935177
 21
401.9498340954692
 31
0.0
  0
LINE
  5
DC
330
17
100
AcDbEntity
  8
0
100
AcDbLine
 10
169.91936367269628
 20
401.2582613582848
 30
0.0
 11
178.18582099485528
 21
401.40255290756943
 31
0.0
  0
LINE
  5
DD
330
17
100
AcDbEntity
  8
0
100
AcDbLine
 10
178.18582099485528
 20
401.40255290756943
 30
0.0
 11
178.28888638720144
 21
395.4979405345995
 31
0.0
  0
LINE
  5
DE
330
17
100
AcDbEntity
  8
0
100
AcDbLine
 10
178.28888638720144
 20
395.4979405345995
 30
0.0
 11
178.28888638720144
 21
395.4979405345995
 31
0.0
  0
LINE
  5
DF
330
17
100
AcDbEntity
  8
0
100
AcDbLine
 10
178.23735369102837
 20
398.45024672108445
 30
0.0
 11
267.98746176018733
 21
400.01684068474617
 31
0.0
  0
LINE
  5
E0
330
17
100
AcDbEntity
  8
0
100
AcDbLine
 10
267.98746176018733
 20
400.01684068474617
 30
0.0
 11
267.93592906401426
 21
402.96914687123115
 31
0.0
  0
LINE
  5
E1
330
17
100
AcDbEntity
  8
0
100
AcDbLine
 10
267.93592906401426
 20
402.96914687123115
 30
0.0
 11
178.18582099485528
 21
401.40255290756943
 31
0.0
  0
LINE
  5
E2
330
17
100
AcDbEntity
  8
0
100
AcDbLine
 10
178.18582099485528
 20
401.40255290756943
 30
0.0
 11
178.23735369102837
 21
398.45024672108445
 31
0.0
  0
LINE
  5
E3
330
17
100
AcDbEntity
  8
0
100
AcDbLine
 10
178.23735369102837
 20
398.45024672108445
 30
0.0
 11
178.23735369102837
 21
398.45024672108445
 31
0.0
  0
LINE
  5
E4
330
17
100
AcDbEntity
  8
0
100
AcDbLine
 10
449.9010555438602
 20
400.2389485825229
 30
0.0
 11
268.0389944563604
 21
397.0645344982612
 31
0.0
  0
LINE
  5
E5
330
17
100
AcDbEntity
  8
0
100
AcDbLine
 10
268.0389944563604
 20
397.0645344982612
 30
0.0
 11
267.93592906401426
 21
402.96914687123115
 31
0.0
  0
LINE
  5
E6
330
17
100
AcDbEntity
  8
0
100
AcDbLine
 10
267.93592906401426
 20
402.96914687123115
 30
0.0
 11
276.202386386172
 21
403.11343842051576
 31
0.0
  0
LINE
  5
E7
330
17
100
AcDbEntity
  8
0
100
AcDbLine
 10
276.30545177851815
 20
397.2088260475458
 30
0.0
 11
276.30545177851815
 21
397.2088260475458
 31
0.0
  0
LINE
  5
E8
330
17
100
AcDbEntity
  8
0
100
AcDbLine
 10
178.28888638720144
 20
395.4979405345995
 30
0.0
 11
10.865570755737558
 21
392.57555568975476
 31
0.0
  0
LINE
  5
E9
330
17
100
AcDbEntity
  8
0
100
AcDbLine
 10
10.76250536339141
 20
398.4801680627247
 30
0.0
 11
16.399441975457236
 21
398.5785611572845
 31
0.0
  0
LINE
  5
EA
330
17
100
AcDbEntity
  8
0
100
AcDbLine
 10
16.502507367803382
 20
392.6739487843146
 30
0.0
 11
16.502507367803382
 21
392.6739487843146
 31
0.0
  0
ENDSEC
  0
SECTION
  2
OBJECTS
  0
DICTIONARY
  5
A
330
0
100
AcDbDictionary
281
1
  3
ACAD_COLOR
350
B
  3
ACAD_GROUP
350
C
  3
ACAD_LAYOUT
350
D
  3
ACAD_MATERIAL
350
E
  3
ACAD_MLEADERSTYLE
350
F
  3
ACAD_MLINESTYLE
350
10
  3
ACAD_PLOTSETTINGS
350
11
  3
ACAD_PLOTSTYLENAME
350
12
  3
ACAD_SCALELIST
350
14
  3
ACAD_TABLESTYLE
350
15
  3
ACAD_VISUALSTYLE
350
16
  3
EZDXF_META
350
2D
  0
DICTIONARY
  5
B
330
A
100
AcDbDictionary
281
1
  0
DICTIONARY
  5
C
330
A
100
AcDbDictionary
281
1
  0
DICTIONARY
  5
D
330
A
100
AcDbDictionary
281
1
  3
Model
350
1A
  3
Layout1
350
1E
  0
DICTIONARY
  5
E
330
A
100
AcDbDictionary
281
1
  3
ByBlock
350
1F
  3
ByLayer
350
20
  3
Global
350
21
  0
DICTIONARY
  5
F
330
A
100
AcDbDictionary
281
1
  3
Standard
350
2C
  0
DICTIONARY
  5
10
330
A
100
AcDbDictionary
281
1
  3
Standard
350
22
  0
DICTIONARY
  5
11
330
A
100
AcDbDictionary
281
1
  0
ACDBDICTIONARYWDFLT
  5
12
330
A
100
AcDbDictionary
281
1
  3
Normal
350
13
100
AcDbDictionaryWithDefault
340
13
  0
ACDBPLACEHOLDER
  5
13
330
12
  0
DICTIONARY
  5
14
330
A
100
AcDbDictionary
281
1
  0
DICTIONARY
  5
15
330
A
100
AcDbDictionary
281
1
  0
DICTIONARY
  5
16
330
A
100
AcDbDictionary
281
1
  0
LAYOUT
  5
1A
330
D
100
AcDbPlotSettings
  1

  4
A3
  6

 40
7.5
 41
20.0
 42
7.5
 43
20.0
 44
420.0
 45
297.0
 46
0.0
 47
0.0
 48
0.0
 49
0.0
140
0.0
141
0.0
142
1.0
143
1.0
 70
1024
 72
1
 73
0
 74
5
  7

 75
16
 76
0
 77
2
 78
300
147
1.0
148
0.0
149
0.0
100
AcDbLayout
  1
Model
 70
1
 71
0
 10
0.0
 20
0.0
 11
420.0
 21
297.0
 12
0.0
 22
0.0
 32
0.0
 14
1e+20
 24
1e+20
 34
1e+20
 15
-1e+20
 25
-1e+20
 35
-1e+20
146
0.0
 13
0.0
 23
0.0
 33
0.0
 16
1.0
 26
0.0
 36
0.0
 17
0.0
 27
1.0
 37
0.0
 76
1
330
17
  0
LAYOUT
  5
1E
330
D
100
AcDbPlotSettings
  1

  4
A3
  6

 40
7.5
 41
20.0
 42
7.5
 43
20.0
 44
420.0
 45
297.0
 46
0.0
 47
0.0
 48
0.0
 49
0.0
140
0.0
141
0.0
142
1.0
143
1.0
 70
0
 72
1
 73
0
 74
5
  7

 75
16
 76
0
 77
2
 78
300
147
1.0
148
0.0
149
0.0
100
AcDbLayout
  1
Layout1
 70
1
 71
1
 10
0.0
 20
0.0
 11
420.0
 21
297.0
 12
0.0
 22
0.0
 32
0.0
 14
1e+20
 24
1e+20
 34
1e+20
 15
-1e+20
 25
-1e+20
 35
-1e+20
146
0.0
 13
0.0
 23
0.0
 33
0.0
 16
1.0
 26
0.0
 36
0.0
 17
0.0
 27
1.0
 37
0.0
 76
1
330
1B
  0
MATERIAL
  5
1F
102
{ACAD_REACTORS
330
E
102
}
330
E
100
AcDbMaterial
  1
ByBlock
  2

 70
0
 40
1.0
 71
1
 41
1.0
 91
-1023410177
 42
1.0
 72
1
  3

 73
1
 74
1
 75
1
 44
0.5
 73
0
 45
1.0
 46
1.0
 77
1
  4

 78
1
 79
1
170
1
 48
1.0
171
1
  6

172
1
173
1
174
1
140
1.0
141
1.0
175
1
  7

176
1
177
1
178
1
143
1.0
179
1
  8

270
1
271
1
272
1
145
1.0
146
1.0
273
1
  9

274
1
275
1
276
1
 42
1.0
 72
1
  3

 73
1
 74
1
 75
1
 94
63
  0
MATERIAL
  5
20
102
{ACAD_REACTORS
330
E
102
}
330
E
100
AcDbMaterial
  1
ByLayer
  2

 70
0
 40
1.0
 71
1
 41
1.0
 91
-1023410177
 42
1.0
 72
1
  3

 73
1
 74
1
 75
1
 44
0.5
 73
0
 45
1.0
 46
1.0
 77
1
  4

 78
1
 79
1
170
1
 48
1.0
171
1
  6

172
1
173
1
174
1
140
1.0
141
1.0
175
1
  7

176
1
177
1
178
1
143
1.0
179
1
  8

270
1
271
1
272
1
145
1.0
146
1.0
273
1
  9

274
1
275
1
276
1
 42
1.0
 72
1
  3

 73
1
 74
1
 75
1
 94
63
  0
MATERIAL
  5
21
102
{ACAD_REACTORS
330
E
102
}
330
E
100
AcDbMaterial
  1
Global
  2

 70
0
 40
1.0
 71
1
 41
1.0
 91
-1023410177
 42
1.0
 72
1
  3

 73
1
 74
1
 75
1
 44
0.5
 73
0
 45
1.0
 46
1.0
 77
1
  4

 78
1
 79
1
170
1
 48
1.0
171
1
  6

172
1
173
1
174
1
140
1.0
141
1.0
175
1
  7

176
1
177
1
178
1
143
1.0
179
1
  8

270
1
271
1
272
1
145
1.0
146
1.0
273
1
  9

274
1
275
1
276
1
 42
1.0
 72
1
  3

 73
1
 74
1
 75
1
 94
63
  0
MLINESTYLE
  5
22
102
{ACAD_REACTORS
330
10
102
}
330
10
100
AcDbMlineStyle
  2
Standard
 70
0
  3

 62
256
 51
90.0
 52
90.0
 71
2
 49
0.5
 62
256
  6
BYLAYER
 49
-0.5
 62
256
  6
BYLAYER
  0
MLEADERSTYLE
  5
2C
102
{ACAD_REACTORS
330
F
102
}
330
F
100
AcDbMLeaderStyle
179
2
170
2
171
1
172
0
 90
2
 40
0.0
 41
0.0
173
1
 91
-1056964608
 92
-2
290
1
 42
2.0
291
1
 43
8.0
  3
Standard
 44
4.0
300

342
29
174
1
175
1
176
0
178
1
 93
-1056964608
 45
4.0
292
0
297
0
 46
4.0
 94
-1056964608
 47
1.0
 49
1.0
140
1.0
294
1
141
0.0
177
0
142
1.0
295
0
296
0
143
3.75
271
0
272
9
273
9
  0
DICTIONARY
  5
2D
330
A
100
AcDbDictionary
280
1
281
1
  3
CREATED_BY_EZDXF
350
2E
  3
WRITTEN_BY_EZDXF
350
ED
  0
DICTIONARYVAR
  5
2E
330
2D
100
DictionaryVariables
280
0
  1
1.4.3 @ 2026-04-16T08:37:53.994166+00:00
  0
DICTIONARYVAR
  5
ED
330
2D
100
DictionaryVariables
280
0
  1
1.4.3 @ 2026-04-16T08:37:54.024015+00:00
  0
ENDSEC
  0
EOF
