  0
SECTION
  2
HEADER
  9
$ACADVER
  1
AC1024
  9
$ACADMAINTVER
 70
6
  9
$DWGCODEPAGE
  3
ANSI_1252
  9
$LASTSAVEDBY
  1
ezdxf
  9
$INSBASE
 10
0.0
 20
0.0
 30
0.0
  9
$EXTMIN
 10
1e+20
 20
1e+20
 30
1e+20
  9
$EXTMAX
 10
-1e+20
 20
-1e+20
 30
-1e+20
  9
$LIMMIN
 10
0.0
 20
0.0
  9
$LIMMAX
 10
420.0
 20
297.0
  9
$ORTHOMODE
 70
0
  9
$REGENMODE
 70
1
  9
$FILLMODE
 70
1
  9
$QTEXTMODE
 70
0
  9
$MIRRTEXT
 70
1
  9
$LTSCALE
 40
1.0
  9
$ATTMODE
 70
1
  9
$TEXTSIZE
 40
2.5
  9
$TRACEWID
 40
1.0
  9
$TEXTSTYLE
  7
Standard
  9
$CLAYER
  8
0
  9
$CELTYPE
  6
ByLayer
  9
$CECOLOR
 62
256
  9
$CELTSCALE
 40
1.0
  9
$DISPSILH
 70
0
  9
$DIMSCALE
 40
1.0
  9
$DIMASZ
 40
2.5
  9
$DIMEXO
 40
0.625
  9
$DIMDLI
 40
3.75
  9
$DIMRND
 40
0.0
  9
$DIMDLE
 40
0.0
  9
$DIMEXE
 40
1.25
  9
$DIMTP
 40
0.0
  9
$DIMTM
 40
0.0
  9
$DIMTXT
 40
2.5
  9
$DIMCEN
 40
2.5
  9
$DIMTSZ
 40
0.0
  9
$DIMTOL
 70
0
  9
$DIMLIM
 70
0
  9
$DIMTIH
 70
0
  9
$DIMTOH
 70
0
  9
$DIMSE1
 70
0
  9
$DIMSE2
 70
0
  9
$DIMTAD
 70
1
  9
$DIMZIN
 70
8
  9
$DIMBLK
  1

  9
$DIMASO
 70
1
  9
$DIMSHO
 70
1
  9
$DIMPOST
  1

  9
$DIMAPOST
  1

  9
$DIMALT
 70
0
  9
$DIMALTD
 70
3
  9
$DIMALTF
 40
0.03937007874
  9
$DIMLFAC
 40
1.0
  9
$DIMTOFL
 70
1
  9
$DIMTVP
 40
0.0
  9
$DIMTIX
 70
0
  9
$DIMSOXD
 70
0
  9
$DIMSAH
 70
0
  9
$DIMBLK1
  1

  9
$DIMBLK2
  1

  9
$DIMSTYLE
  2
ISO-25
  9
$DIMCLRD
 70
0
  9
$DIMCLRE
 70
0
  9
$DIMCLRT
 70
0
  9
$DIMTFAC
 40
1.0
  9
$DIMGAP
 40
0.625
  9
$DIMJUST
 70
0
  9
$DIMSD1
 70
0
  9
$DIMSD2
 70
0
  9
$DIMTOLJ
 70
0
  9
$DIMTZIN
 70
8
  9
$DIMALTZ
 70
0
  9
$DIMALTTZ
 70
0
  9
$DIMUPT
 70
0
  9
$DIMDEC
 70
2
  9
$DIMTDEC
 70
2
  9
$DIMALTU
 70
2
  9
$DIMALTTD
 70
3
  9
$DIMTXSTY
  7
Standard
  9
$DIMAUNIT
 70
0
  9
$DIMADEC
 70
0
  9
$DIMALTRND
 40
0.0
  9
$DIMAZIN
 70
0
  9
$DIMDSEP
 70
44
  9
$DIMATFIT
 70
3
  9
$DIMFRAC
 70
0
  9
$DIMLDRBLK
  1

  9
$DIMLUNIT
 70
2
  9
$DIMLWD
 70
-2
  9
$DIMLWE
 70
-2
  9
$DIMTMOVE
 70
0
  9
$DIMFXL
 40
1.0
  9
$DIMFXLON
 70
0
  9
$DIMJOGANG
 40
0.785398163397
  9
$DIMTFILL
 70
0
  9
$DIMTFILLCLR
 70
0
  9
$DIMARCSYM
 70
0
  9
$DIMLTYPE
  6

  9
$DIMLTEX1
  6

  9
$DIMLTEX2
  6

  9
$DIMTXTDIRECTION
 70
0
  9
$LUNITS
 70
2
  9
$LUPREC
 70
4
  9
$SKETCHINC
 40
1.0
  9
$FILLETRAD
 40
10.0
  9
$AUNITS
 70
0
  9
$AUPREC
 70
2
  9
$MENU
  1
.
  9
$ELEVATION
 40
0.0
  9
$PELEVATION
 40
0.0
  9
$THICKNESS
 40
0.0
  9
$LIMCHECK
 70
0
  9
$CHAMFERA
 40
0.0
  9
$CHAMFERB
 40
0.0
  9
$CHAMFERC
 40
0.0
  9
$CHAMFERD
 40
0.0
  9
$SKPOLY
 70
0
  9
$TDCREATE
 40
2461147.5789467595
  9
$TDUCREATE
 40
2458532.153996898
  9
$TDUPDATE
 40
2461147.5789467595
  9
$TDUUPDATE
 40
2458532.1544311
  9
$TDINDWG
 40
0.0
  9
$TDUSRTIMER
 40
0.0
  9
$USRTIMER
 70
1
  9
$ANGBASE
 50
0.0
  9
$ANGDIR
 70
0
  9
$PDMODE
 70
0
  9
$PDSIZE
 40
0.0
  9
$PLINEWID
 40
0.0
  9
$SPLFRAME
 70
0
  9
$SPLINETYPE
 70
6
  9
$SPLINESEGS
 70
8
  9
$HANDSEED
  5
342
  9
$SURFTAB1
 70
6
  9
$SURFTAB2
 70
6
  9
$SURFTYPE
 70
6
  9
$SURFU
 70
6
  9
$SURFV
 70
6
  9
$UCSBASE
  2

  9
$UCSNAME
  2

  9
$UCSORG
 10
0.0
 20
0.0
 30
0.0
  9
$UCSXDIR
 10
1.0
 20
0.0
 30
0.0
  9
$UCSYDIR
 10
0.0
 20
1.0
 30
0.0
  9
$UCSORTHOREF
  2

  9
$UCSORTHOVIEW
 70
0
  9
$UCSORGTOP
 10
0.0
 20
0.0
 30
0.0
  9
$UCSORGBOTTOM
 10
0.0
 20
0.0
 30
0.0
  9
$UCSORGLEFT
 10
0.0
 20
0.0
 30
0.0
  9
$UCSORGRIGHT
 10
0.0
 20
0.0
 30
0.0
  9
$UCSORGFRONT
 10
0.0
 20
0.0
 30
0.0
  9
$UCSORGBACK
 10
0.0
 20
0.0
 30
0.0
  9
$PUCSBASE
  2

  9
$PUCSNAME
  2

  9
$PUCSORG
 10
0.0
 20
0.0
 30
0.0
  9
$PUCSXDIR
 10
1.0
 20
0.0
 30
0.0
  9
$PUCSYDIR
 10
0.0
 20
1.0
 30
0.0
  9
$PUCSORTHOREF
  2

  9
$PUCSORTHOVIEW
 70
0
  9
$PUCSORGTOP
 10
0.0
 20
0.0
 30
0.0
  9
$PUCSORGBOTTOM
 10
0.0
 20
0.0
 30
0.0
  9
$PUCSORGLEFT
 10
0.0
 20
0.0
 30
0.0
  9
$PUCSORGRIGHT
 10
0.0
 20
0.0
 30
0.0
  9
$PUCSORGFRONT
 10
0.0
 20
0.0
 30
0.0
  9
$PUCSORGBACK
 10
0.0
 20
0.0
 30
0.0
  9
$USERI1
 70
0
  9
$USERI2
 70
0
  9
$USERI3
 70
0
  9
$USERI4
 70
0
  9
$USERI5
 70
0
  9
$USERR1
 40
0.0
  9
$USERR2
 40
0.0
  9
$USERR3
 40
0.0
  9
$USERR4
 40
0.0
  9
$USERR5
 40
0.0
  9
$WORLDVIEW
 70
1
  9
$SHADEDGE
 70
3
  9
$SHADEDIF
 70
70
  9
$TILEMODE
 70
1
  9
$MAXACTVP
 70
64
  9
$PINSBASE
 10
0.0
 20
0.0
 30
0.0
  9
$PLIMCHECK
 70
0
  9
$PEXTMIN
 10
1e+20
 20
1e+20
 30
1e+20
  9
$PEXTMAX
 10
-1e+20
 20
-1e+20
 30
-1e+20
  9
$PLIMMIN
 10
0.0
 20
0.0
  9
$PLIMMAX
 10
420.0
 20
297.0
  9
$UNITMODE
 70
0
  9
$VISRETAIN
 70
1
  9
$PLINEGEN
 70
0
  9
$PSLTSCALE
 70
1
  9
$TREEDEPTH
 70
3020
  9
$CMLSTYLE
  2
Standard
  9
$CMLJUST
 70
0
  9
$CMLSCALE
 40
20.0
  9
$PROXYGRAPHICS
 70
1
  9
$MEASUREMENT
 70
1
  9
$CELWEIGHT
370
-1
  9
$ENDCAPS
280
0
  9
$JOINSTYLE
280
0
  9
$LWDISPLAY
290
0
  9
$INSUNITS
 70
0
  9
$HYPERLINKBASE
  1

  9
$STYLESHEET
  1

  9
$XEDIT
290
1
  9
$CEPSNTYPE
380
0
  9
$PSTYLEMODE
290
1
  9
$FINGERPRINTGUID
  2
{05D3A086-32ED-4A00-B163-6ECAB25DD358}
  9
$VERSIONGUID
  2
{F2FFBF9A-7213-41EB-A1B0-7C93B95C3C79}
  9
$EXTNAMES
290
1
  9
$PSVPSCALE
 40
0.0
  9
$OLESTARTUP
290
0
  9
$SORTENTS
280
127
  9
$INDEXCTL
280
0
  9
$HIDETEXT
280
1
  9
$XCLIPFRAME
280
1
  9
$HALOGAP
280
0
  9
$OBSCOLOR
 70
257
  9
$OBSLTYPE
280
0
  9
$INTERSECTIONDISPLAY
280
0
  9
$INTERSECTIONCOLOR
 70
257
  9
$DIMASSOC
280
2
  9
$PROJECTNAME
  1

  9
$CAMERADISPLAY
290
0
  9
$LENSLENGTH
 40
50.0
  9
$CAMERAHEIGHT
 40
0.0
  9
$STEPSPERSEC
 40
24.0
  9
$STEPSIZE
 40
100.0
  9
$3DDWFPREC
 40
2.0
  9
$PSOLWIDTH
 40
0.005
  9
$PSOLHEIGHT
 40
0.08
  9
$LOFTANG1
 40
1.570796326795
  9
$LOFTANG2
 40
1.570796326795
  9
$LOFTMAG1
 40
0.0
  9
$LOFTMAG2
 40
0.0
  9
$LOFTPARAM
 70
7
  9
$LOFTNORMALS
280
1
  9
$LATITUDE
 40
37.795
  9
$LONGITUDE
 40
-122.394
  9
$NORTHDIRECTION
 40
0.0
  9
$TIMEZONE
 70
-8000
  9
$LIGHTGLYPHDISPLAY
280
1
  9
$TILEMODELIGHTSYNCH
280
1
  9
$CMATERIAL
347
20
  9
$SOLIDHIST
280
0
  9
$SHOWHIST
280
1
  9
$DWFFRAME
280
2
  9
$DGNFRAME
280
2
  9
$REALWORLDSCALE
290
1
  9
$INTERFERECOLOR
 62
256
  9
$CSHADOW
280
0
  9
$SHADOWPLANELOCATION
 40
0.0
  0
ENDSEC
  0
SECTION
  2
CLASSES
  0
CLASS
  1
ACDBDICTIONARYWDFLT
  2
AcDbDictionaryWithDefault
  3
ObjectDBX Classes
 90
0
 91
0
280
0
281
0
  0
CLASS
  1
SUN
  2
AcDbSun
  3
SCENEOE
 90
1153
 91
0
280
0
281
0
  0
CLASS
  1
VISUALSTYLE
  2
AcDbVisualStyle
  3
ObjectDBX Classes
 90
4095
 91
0
280
0
281
0
  0
CLASS
  1
MATERIAL
  2
AcDbMaterial
  3
ObjectDBX Classes
 90
1153
 91
0
280
0
281
0
  0
CLASS
  1
SCALE
  2
AcDbScale
  3
ObjectDBX Classes
 90
1153
 91
0
280
0
281
0
  0
CLASS
  1
TABLESTYLE
  2
AcDbTableStyle
  3
ObjectDBX Classes
 90
4095
 91
0
280
0
281
0
  0
CLASS
  1
MLEADERSTYLE
  2
AcDbMLeaderStyle
  3
ACDB_MLEADERSTYLE_CLASS
 90
4095
 91
0
280
0
281
0
  0
CLASS
  1
DICTIONARYVAR
  2
AcDbDictionaryVar
  3
ObjectDBX Classes
 90
0
 91
0
280
0
281
0
  0
CLASS
  1
CELLSTYLEMAP
  2
AcDbCellStyleMap
  3
ObjectDBX Classes
 90
1152
 91
0
280
0
281
0
  0
CLASS
  1
MENTALRAYRENDERSETTINGS
  2
AcDbMentalRayRenderSettings
  3
SCENEOE
 90
1024
 91
0
280
0
281
0
  0
CLASS
  1
ACDBDETAILVIEWSTYLE
  2
AcDbDetailViewStyle
  3
ObjectDBX Classes
 90
1025
 91
0
280
0
281
0
  0
CLASS
  1
ACDBSECTIONVIEWSTYLE
  2
AcDbSectionViewStyle
  3
ObjectDBX Classes
 90
1025
 91
0
280
0
281
0
  0
CLASS
  1
RASTERVARIABLES
  2
AcDbRasterVariables
  3
ISM
 90
0
 91
0
280
0
281
0
  0
CLASS
  1
LAYOUT
  2
AcDbLayout
  3
ObjectDBX Classes
 90
0
 91
0
280
0
281
0
  0
CLASS
  1
ACDBPLACEHOLDER
  2
AcDbPlaceHolder
  3
ObjectDBX Classes
 90
0
 91
0
280
0
281
0
  0
ENDSEC
  0
SECTION
  2
TABLES
  0
TABLE
  2
VPORT
  5
8
330
0
100
AcDbSymbolTable
 70
1
  0
VPORT
  5
23
330
8
100
AcDbSymbolTableRecord
100
AcDbViewportTableRecord
  2
*Active
 70
0
 10
0.0
 20
0.0
 11
1.0
 21
1.0
 12
0.0
 22
0.0
 13
0.0
 23
0.0
 14
0.5
 24
0.5
 15
0.5
 25
0.5
 16
0.0
 26
0.0
 36
1.0
 17
0.0
 27
0.0
 37
0.0
 40
1000.0
 41
1.34
 42
50.0
 43
0.0
 44
0.0
 50
0.0
 51
0.0
 71
0
 72
1000
 73
1
 74
3
 75
0
 76
0
 77
0
 78
0
281
0
 65
0
146
0.0
  0
ENDTAB
  0
TABLE
  2
LTYPE
  5
2
330
0
100
AcDbSymbolTable
 70
3
  0
LTYPE
  5
24
330
2
100
AcDbSymbolTableRecord
100
AcDbLinetypeTableRecord
  2
ByBlock
 70
0
  3

 72
65
 73
0
 40
0.0
  0
LTYPE
  5
25
330
2
100
AcDbSymbolTableRecord
100
AcDbLinetypeTableRecord
  2
ByLayer
 70
0
  3

 72
65
 73
0
 40
0.0
  0
LTYPE
  5
26
330
2
100
AcDbSymbolTableRecord
100
AcDbLinetypeTableRecord
  2
Continuous
 70
0
  3

 72
65
 73
0
 40
0.0
  0
ENDTAB
  0
TABLE
  2
LAYER
  5
1
330
0
100
AcDbSymbolTable
 70
2
  0
LAYER
  5
27
330
1
100
AcDbSymbolTableRecord
100
AcDbLayerTableRecord
  2
0
 70
0
 62
7
  6
Continuous
370
-3
390
13
347
21
  0
LAYER
  5
28
330
1
100
AcDbSymbolTableRecord
100
AcDbLayerTableRecord
  2
Defpoints
 70
0
 62
7
  6
Continuous
290
0
370
-3
390
13
347
21
  0
ENDTAB
  0
TABLE
  2
STYLE
  5
5
330
0
100
AcDbSymbolTable
 70
1
  0
STYLE
  5
29
330
5
100
AcDbSymbolTableRecord
100
AcDbTextStyleTableRecord
  2
Standard
 70
0
 40
0.0
 41
1.0
 50
0.0
 71
0
 42
2.5
  3
txt
  4

  0
ENDTAB
  0
TABLE
  2
VIEW
  5
7
330
0
100
AcDbSymbolTable
 70
0
  0
ENDTAB
  0
TABLE
  2
UCS
  5
6
330
0
100
AcDbSymbolTable
 70
0
  0
ENDTAB
  0
TABLE
  2
APPID
  5
3
330
0
100
AcDbSymbolTable
 70
3
  0
APPID
  5
2A
330
3
100
AcDbSymbolTableRecord
100
AcDbRegAppTableRecord
  2
ACAD
 70
0
  0
APPID
  5
33F
330
3
100
AcDbSymbolTableRecord
100
AcDbRegAppTableRecord
  2
HATCHBACKGROUNDCOLOR
 70
0
  0
APPID
  5
340
330
3
100
AcDbSymbolTableRecord
100
AcDbRegAppTableRecord
  2
EZDXF
 70
0
  0
ENDTAB
  0
TABLE
  2
DIMSTYLE
  5
4
330
0
100
AcDbSymbolTable
 70
1
100
AcDbDimStyleTable
  0
DIMSTYLE
105
2B
330
4
100
AcDbSymbolTableRecord
100
AcDbDimStyleTableRecord
  2
Standard
 70
0
 40
1.0
 41
2.5
 42
0.625
 43
3.75
 44
1.25
 45
0.0
 46
0.0
 47
0.0
 48
0.0
 49
2.5
140
2.5
141
2.5
142
0.0
143
0.03937007874
144
1.0
145
0.0
146
1.0
147
0.625
148
0.0
 69
0
 70
0
 71
0
 72
0
 73
0
 74
0
 75
0
 76
0
 77
1
 78
8
 79
3
170
0
171
3
172
1
173
0
174
0
175
0
176
0
177
0
178
0
179
2
271
2
272
2
273
2
274
3
275
0
276
0
277
2
278
44
279
0
280
0
281
0
282
0
283
0
284
8
285
0
286
0
288
0
289
3
290
0
371
-2
372
-2
  0
ENDTAB
  0
TABLE
  2
BLOCK_RECORD
  5
9
330
0
100
AcDbSymbolTable
 70
2
  0
BLOCK_RECORD
  5
17
330
9
100
AcDbSymbolTableRecord
100
AcDbBlockTableRecord
  2
*Model_Space
340
1A
 70
0
280
1
281
0
  0
BLOCK_RECORD
  5
1B
330
9
100
AcDbSymbolTableRecord
100
AcDbBlockTableRecord
  2
*Paper_Space
340
1E
 70
0
280
1
281
0
  0
ENDTAB
  0
ENDSEC
  0
SECTION
  2
BLOCKS
  0
BLOCK
  5
18
330
17
100
AcDbEntity
  8
0
100
AcDbBlockBegin
  2
*Model_Space
 70
0
 10
0.0
 20
0.0
 30
0.0
  3
*Model_Space
  1

  0
ENDBLK
  5
19
330
17
100
AcDbEntity
  8
0
100
AcDbBlockEnd
  0
BLOCK
  5
1C
330
1B
100
AcDbEntity
  8
0
100
AcDbBlockBegin
  2
*Paper_Space
 70
0
 10
0.0
 20
0.0
 30
0.0
  3
*Paper_Space
  1

  0
ENDBLK
  5
1D
330
1B
100
AcDbEntity
  8
0
100
AcDbBlockEnd
  0
ENDSEC
  0
SECTION
  2
ENTITIES
  0
LINE
  5
2F
330
17
100
AcDbEntity
  8
0
100
AcDbLine
 10
529.8359744177027
 20
2043.4957132914647
 30
0.0
 11
565.6483124270084
 21
-8.191757169450398
 31
0.0
  0
LINE
  5
30
330
17
100
AcDbEntity
  8
0
100
AcDbLine
 10
1061.2510879850759
 20
2052.771598602619
 30
0.0
 11
1097.0634259943815
 21
1.084128141704241
 31
0.0
  0
LINE
  5
31
330
17
100
AcDbEntity
  8
0
100
AcDbLine
 10
1592.6662015524494
 20
2062.0474839137737
 30
0.0
 11
1628.478539561755
 21
10.360013452858766
 31
0.0
  0
LINE
  5
32
330
17
100
AcDbEntity
  8
0
100
AcDbLine
 10
-10.056172502049034
 20
1707.7613474384673
 30
0.0
 11
2039.6316025685528
 21
1743.5387806348986
 31
0.0
  0
LINE
  5
33
330
17
100
AcDbEntity
  8
0
100
AcDbLine
 10
1.2810206560288235
 20
1058.2539864116784
 30
0.0
 11
2050.9687957266306
 21
1094.0314196081097
 31
0.0
  0
LINE
  5
34
330
17
100
AcDbEntity
  8
0
100
AcDbLine
 10
12.618213814106698
 20
408.74662538488883
 30
0.0
 11
2062.3059888847088
 21
444.52405858132
 31
0.0
  0
LINE
  5
35
330
17
100
AcDbEntity
  8
0
100
AcDbLine
 10
558.2043970766069
 20
418.2698676376742
 30
0.0
 11
769.5895200289648
 21
421.95960868366683
 31
0.0
  0
LINE
  5
36
330
17
100
AcDbEntity
  8
0
100
AcDbLine
 10
544.2806843231106
 20
403.8514410009126
 30
0.0
 11
769.8368769705955
 21
407.78853898853595
 31
0.0
  0
LINE
  5
37
330
17
100
AcDbEntity
  8
0
100
AcDbLine
 10
890.6838435821089
 20
1334.8419536981908
 30
0.0
 11
900.4750558549944
 21
773.9037782659641
 31
0.0
  0
LINE
  5
38
330
17
100
AcDbEntity
  8
0
100
AcDbLine
 10
552.1029258497142
 20
767.8229201175407
 30
0.0
 11
728.0603745642455
 21
770.8942688094562
 31
0.0
  0
LINE
  5
39
330
17
100
AcDbEntity
  8
0
100
AcDbLine
 10
1099.876777502882
 20
448.9878751977401
 30
0.0
 11
1098.5060077846779
 21
527.5192197582585
 31
0.0
  0
LINE
  5
3A
330
17
100
AcDbEntity
  8
0
100
AcDbLine
 10
1082.1629403839722
 20
448.6786790207018
 30
0.0
 11
1080.792170665768
 21
527.2100235812202
 31
0.0
  0
LINE
  5
3B
330
17
100
AcDbEntity
  8
0
100
AcDbLine
 10
552.4121220267526
 20
750.1090829986304
 30
0.0
 11
710.6557336223708
 21
752.8712355135075
 31
0.0
  0
LINE
  5
3C
330
17
100
AcDbEntity
  8
0
100
AcDbLine
 10
873.279202640234
 20
1316.8189204022435
 30
0.0
 11
883.0704149131194
 21
755.8807449700155
 31
0.0
  0
LINE
  5
3D
330
17
100
AcDbEntity
  8
0
100
AcDbLine
 10
542.3117135768288
 20
1328.7610955497673
 30
0.0
 11
890.6838435821089
 21
1334.8419536981908
 31
0.0
  0
LINE
  5
3E
330
17
100
AcDbEntity
  8
0
100
AcDbLine
 10
542.6209097538672
 20
1311.0472584308584
 30
0.0
 11
873.279202640234
 21
1316.8189204022435
 31
0.0
  0
LINE
  5
3F
330
17
100
AcDbEntity
  8
0
100
AcDbLine
 10
734.1618457911383
 20
421.3412163295899
 30
0.0
 11
733.2754834169614
 21
472.1208827371323
 31
0.0
  0
LINE
  5
40
330
17
100
AcDbEntity
  8
0
100
AcDbLine
 10
716.4480086722251
 20
421.03202015255135
 30
0.0
 11
715.7059378473328
 21
463.5452292379324
 31
0.0
  0
LINE
  5
41
330
17
100
AcDbEntity
  8
0
100
AcDbLine
 10
1703.6991974329474
 20
438.2645537528298
 30
0.0
 11
1703.9465543745782
 21
424.0934840576989
 31
0.0
  0
LINE
  5
42
330
17
100
AcDbEntity
  8
0
100
AcDbLine
 10
1809.982220146422
 20
440.11973081506073
 30
0.0
 11
1810.2295770880528
 21
425.94866111992985
 31
0.0
  0
LINE
  5
43
330
17
100
AcDbEntity
  8
0
100
AcDbLine
 10
1963.502141843661
 20
442.7994310160608
 30
0.0
 11
1963.749498785292
 21
428.6283613209299
 31
0.0
  0
LINE
  5
44
330
17
100
AcDbEntity
  8
0
100
AcDbLine
 10
1809.982220146422
 20
440.11973081506073
 30
0.0
 11
1963.502141843661
 21
442.7994310160608
 31
0.0
  0
LINE
  5
45
330
17
100
AcDbEntity
  8
0
100
AcDbLine
 10
1172.2840838655738
 20
428.98866844167503
 30
0.0
 11
1172.5314408072047
 21
414.81759874654415
 31
0.0
  0
LINE
  5
46
330
17
100
AcDbEntity
  8
0
100
AcDbLine
 10
1278.5671065790493
 20
430.843845503906
 30
0.0
 11
1278.8144635206802
 21
416.6727758087751
 31
0.0
  0
LINE
  5
47
330
17
100
AcDbEntity
  8
0
100
AcDbLine
 10
1432.0870282762878
 20
433.52354570490627
 30
0.0
 11
1432.3343852179187
 21
419.3524760097754
 31
0.0
  0
LINE
  5
48
330
17
100
AcDbEntity
  8
0
100
AcDbLine
 10
1538.3700509897635
 20
435.3787227671372
 30
0.0
 11
1538.6174079313944
 21
421.20765307200634
 31
0.0
  0
LINE
  5
49
330
17
100
AcDbEntity
  8
0
100
AcDbLine
 10
1278.5671065790493
 20
430.843845503906
 30
0.0
 11
1432.0870282762878
 21
433.52354570490627
 31
0.0
  0
LINE
  5
4A
330
17
100
AcDbEntity
  8
0
100
AcDbLine
 10
1538.3700509897635
 20
435.3787227671372
 30
0.0
 11
1703.6991974329474
 21
438.2645537528298
 31
0.0
  0
LINE
  5
4B
330
17
100
AcDbEntity
  8
0
100
AcDbLine
 10
1337.6132303087575
 20
431.8744994273676
 30
0.0
 11
1336.5825763852959
 21
490.9206231570755
 31
0.0
  0
LINE
  5
4C
330
17
100
AcDbEntity
  8
0
100
AcDbLine
 10
1336.5825763852959
 20
490.9206231570755
 30
0.0
 11
1383.8194753690595
 21
491.74514629584485
 31
0.0
  0
LINE
  5
4D
330
17
100
AcDbEntity
  8
0
100
AcDbLine
 10
1384.8501292925212
 20
432.69902256613693
 30
0.0
 11
1383.8194753690595
 21
491.74514629584485
 31
0.0
  0
LINE
  5
4E
330
17
100
AcDbEntity
  8
0
100
AcDbLine
 10
883.0704149131194
 20
755.8807449700155
 30
0.0
 11
1076.741700746564
 21
759.2612898389697
 31
0.0
  0
LINE
  5
4F
330
17
100
AcDbEntity
  8
0
100
AcDbLine
 10
900.4750558549944
 20
773.9037782659641
 30
0.0
 11
1094.1463416884353
 21
777.2843231349182
 31
0.0
  0
LINE
  5
50
330
17
100
AcDbEntity
  8
0
100
AcDbLine
 10
734.9696636363593
 20
1119.4931426779017
 30
0.0
 11
741.1535871771291
 21
765.216400299652
 31
0.0
  0
LINE
  5
51
330
17
100
AcDbEntity
  8
0
100
AcDbLine
 10
882.864284128427
 20
767.6899697159599
 30
0.0
 11
741.1535871771291
 21
765.216400299652
 31
0.0
  0
LINE
  5
52
330
17
100
AcDbEntity
  8
0
100
AcDbLine
 10
882.2458917743502
 20
803.1176439537799
 30
0.0
 11
740.5351948230523
 21
800.6440745374721
 31
0.0
  0
LINE
  5
53
330
17
100
AcDbEntity
  8
0
100
AcDbLine
 10
881.6274994202731
 20
838.5453181916095
 30
0.0
 11
739.9168024689752
 21
836.0717487753016
 31
0.0
  0
LINE
  5
54
330
17
100
AcDbEntity
  8
0
100
AcDbLine
 10
881.0091070661962
 20
873.9729924294318
 30
0.0
 11
739.2984101148983
 21
871.4994230131239
 31
0.0
  0
LINE
  5
55
330
17
100
AcDbEntity
  8
0
100
AcDbLine
 10
880.3907147121191
 20
909.4006666672586
 30
0.0
 11
738.6800177608212
 21
906.9270972509507
 31
0.0
  0
LINE
  5
56
330
17
100
AcDbEntity
  8
0
100
AcDbLine
 10
879.7723223580422
 20
944.828340905084
 30
0.0
 11
738.0616254067443
 21
942.3547714887761
 31
0.0
  0
LINE
  5
57
330
17
100
AcDbEntity
  8
0
100
AcDbLine
 10
879.1539300039652
 20
980.2560151429041
 30
0.0
 11
737.4432330526673
 21
977.7824457265962
 31
0.0
  0
LINE
  5
58
330
17
100
AcDbEntity
  8
0
100
AcDbLine
 10
878.5355376498882
 20
1015.6836893807332
 30
0.0
 11
736.8248406985903
 21
1013.2101199644253
 31
0.0
  0
LINE
  5
59
330
17
100
AcDbEntity
  8
0
100
AcDbLine
 10
877.9171452958112
 20
1051.1113636185569
 30
0.0
 11
736.2064483445133
 21
1048.6377942022489
 31
0.0
  0
LINE
  5
5A
330
17
100
AcDbEntity
  8
0
100
AcDbLine
 10
877.2987529417343
 20
1086.5390378563827
 30
0.0
 11
735.5880559904364
 21
1084.065468440075
 31
0.0
  0
LINE
  5
5B
330
17
100
AcDbEntity
  8
0
100
AcDbLine
 10
876.6803605876572
 20
1121.9667120942097
 30
0.0
 11
546.0220677012904
 21
1116.1950501228246
 31
0.0
  0
LINE
  5
5C
330
17
100
AcDbEntity
  8
0
100
AcDbLine
 10
567.2786722439863
 20
1116.5660855352708
 30
0.0
 11
573.3595303924101
 21
768.1939555299869
 31
0.0
  0
LINE
  5
5D
330
17
100
AcDbEntity
  8
0
100
AcDbLine
 10
708.9893691952877
 20
1119.0396549515785
 30
0.0
 11
715.0702273437115
 21
770.6675249462946
 31
0.0
  0
LINE
  5
5E
330
17
100
AcDbEntity
  8
0
100
AcDbLine
 10
709.6077615493648
 20
1083.6119807137518
 30
0.0
 11
567.8970645980634
 21
1081.1384112974438
 31
0.0
  0
LINE
  5
5F
330
17
100
AcDbEntity
  8
0
100
AcDbLine
 10
710.2261539034417
 20
1048.1843064759257
 30
0.0
 11
568.5154569521403
 21
1045.710737059618
 31
0.0
  0
LINE
  5
60
330
17
100
AcDbEntity
  8
0
100
AcDbLine
 10
710.8445462575187
 20
1012.7566322381022
 30
0.0
 11
569.1338493062173
 21
1010.2830628217943
 31
0.0
  0
LINE
  5
61
330
17
100
AcDbEntity
  8
0
100
AcDbLine
 10
711.4629386115957
 20
977.328958000273
 30
0.0
 11
569.7522416602943
 21
974.8553885839651
 31
0.0
  0
LINE
  5
62
330
17
100
AcDbEntity
  8
0
100
AcDbLine
 10
712.0813309656727
 20
941.901283762453
 30
0.0
 11
570.3706340143713
 21
939.4277143461451
 31
0.0
  0
LINE
  5
63
330
17
100
AcDbEntity
  8
0
100
AcDbLine
 10
542.6209097538672
 20
1311.0472584308584
 30
0.0
 11
558.2043970766069
 21
418.2698676376742
 31
0.0
  0
LINE
  5
64
330
17
100
AcDbEntity
  8
0
100
AcDbLine
 10
515.6649047225756
 20
2043.2483563498338
 30
0.0
 11
544.2806843231106
 21
403.8514410009126
 31
0.0
  0
LINE
  5
65
330
17
100
AcDbEntity
  8
0
100
AcDbLine
 10
1064.8201386775054
 20
427.112878300975
 30
0.0
 11
1065.0674956191363
 21
412.94180860584413
 31
0.0
  0
LINE
  5
66
330
17
100
AcDbEntity
  8
0
100
AcDbLine
 10
946.7278912180891
 20
425.0515704540518
 30
0.0
 11
946.9752481597199
 21
410.8805007589209
 31
0.0
  0
LINE
  5
67
330
17
100
AcDbEntity
  8
0
100
AcDbLine
 10
769.8368769705955
 20
407.78853898853595
 30
0.0
 11
769.5895200289648
 21
421.95960868366683
 31
0.0
  0
LINE
  5
68
330
17
100
AcDbEntity
  8
0
100
AcDbLine
 10
887.9291244300117
 20
409.8498468354592
 30
0.0
 11
887.681767488381
 21
424.02091653059006
 31
0.0
  0
LINE
  5
69
330
17
100
AcDbEntity
  8
0
100
AcDbLine
 10
887.681767488381
 20
424.02091653059006
 30
0.0
 11
946.7278912180891
 21
425.0515704540518
 31
0.0
  0
LINE
  5
6A
330
17
100
AcDbEntity
  8
0
100
AcDbLine
 10
887.9291244300117
 20
409.8498468354592
 30
0.0
 11
946.9752481597199
 21
410.8805007589209
 31
0.0
  0
LINE
  5
6B
330
17
100
AcDbEntity
  8
0
100
AcDbLine
 10
1064.8201386775054
 20
427.112878300975
 30
0.0
 11
1172.2840838655738
 21
428.98866844167503
 31
0.0
  0
LINE
  5
6C
330
17
100
AcDbEntity
  8
0
100
AcDbLine
 10
1065.0674956191363
 20
412.94180860584413
 30
0.0
 11
1180.7978981293663
 21
414.9618902958258
 31
0.0
  0
LINE
  5
6D
330
17
100
AcDbEntity
  8
0
100
AcDbLine
 10
196.18786548563168
 20
43.3907750818945
 30
0.0
 11
1475.1269054711083
 21
65.71473906407323
 31
0.0
  0
LINE
  5
6E
330
17
100
AcDbEntity
  8
0
100
AcDbLine
 10
556.9317503573687
 20
85.12605133129887
 30
0.0
 11
592.3594245951917
 21
85.74444368537581
 31
0.0
  0
LINE
  5
6F
330
17
100
AcDbEntity
  8
0
100
AcDbLine
 10
556.3133580032917
 20
120.55372556913198
 30
0.0
 11
591.7410322411147
 21
121.17211792320893
 31
0.0
  0
LINE
  5
70
330
17
100
AcDbEntity
  8
0
100
AcDbLine
 10
556.3133580032917
 20
120.55372556913198
 30
0.0
 11
556.9317503573687
 21
85.12605133129887
 31
0.0
  0
LINE
  5
71
330
17
100
AcDbEntity
  8
0
100
AcDbLine
 10
591.7410322411147
 20
121.17211792320893
 30
0.0
 11
592.3594245951917
 21
85.74444368537581
 31
0.0
  0
LINE
  5
72
330
17
100
AcDbEntity
  8
0
100
AcDbLine
 10
1077.7185616533943
 20
94.2164189362303
 30
0.0
 11
1113.146235891217
 21
94.83481129030736
 31
0.0
  0
LINE
  5
73
330
17
100
AcDbEntity
  8
0
100
AcDbLine
 10
1077.1001692993173
 20
129.6440931740634
 30
0.0
 11
1112.52784353714
 21
130.26248552814047
 31
0.0
  0
LINE
  5
74
330
17
100
AcDbEntity
  8
0
100
AcDbLine
 10
1077.1001692993173
 20
129.6440931740634
 30
0.0
 11
1077.7185616533943
 21
94.2164189362303
 31
0.0
  0
LINE
  5
75
330
17
100
AcDbEntity
  8
0
100
AcDbLine
 10
1112.52784353714
 20
130.26248552814047
 30
0.0
 11
1113.146235891217
 21
94.83481129030736
 31
0.0
  0
LINE
  5
76
330
17
100
AcDbEntity
  8
0
100
AcDbLine
 10
812.0089356527782
 20
766.4531850078059
 30
0.0
 11
805.8250121120084
 21
1120.7299273860556
 31
0.0
  0
LINE
  5
77
330
17
100
AcDbEntity
  8
0
100
AcDbLine
 10
829.3879838246235
 20
1097.9754301020835
 30
0.0
 11
805.8250121120084
 21
1120.7299273860556
 31
0.0
  0
LINE
  5
78
330
17
100
AcDbEntity
  8
0
100
AcDbLine
 10
783.0705148280397
 20
1097.1669556734375
 30
0.0
 11
805.8250121120084
 21
1120.7299273860556
 31
0.0
  0
LINE
  5
79
330
17
100
AcDbEntity
  8
0
100
AcDbLine
 10
711.377191368794
 20
711.5389489027093
 30
0.0
 11
729.0910284877071
 21
711.8481450797478
 31
0.0
  0
LINE
  5
7A
330
17
100
AcDbEntity
  8
0
100
AcDbLine
 10
713.2323684310248
 20
605.255926189237
 30
0.0
 11
730.946205549938
 21
605.5651223662755
 31
0.0
  0
LINE
  5
7B
330
17
100
AcDbEntity
  8
0
100
AcDbLine
 10
713.8507607851019
 20
569.8282519514107
 30
0.0
 11
731.564597904015
 21
570.1374481284493
 31
0.0
  0
LINE
  5
7C
330
17
100
AcDbEntity
  8
0
100
AcDbLine
 10
715.7059378473328
 20
463.5452292379324
 30
0.0
 11
733.419774966246
 21
463.85442541497093
 31
0.0
  0
LINE
  5
7D
330
17
100
AcDbEntity
  8
0
100
AcDbLine
 10
711.377191368794
 20
711.5389489027093
 30
0.0
 11
710.6557336223708
 21
752.8712355135075
 31
0.0
  0
LINE
  5
7E
330
17
100
AcDbEntity
  8
0
100
AcDbLine
 10
729.0910284877071
 20
711.8481450797478
 30
0.0
 11
728.0603745642455
 21
770.8942688094562
 31
0.0
  0
LINE
  5
7F
330
17
100
AcDbEntity
  8
0
100
AcDbLine
 10
713.8507607851019
 20
569.8282519514107
 30
0.0
 11
713.2323684310248
 21
605.255926189237
 31
0.0
  0
LINE
  5
80
330
17
100
AcDbEntity
  8
0
100
AcDbLine
 10
638.1340207196351
 20
1117.8028702434246
 30
0.0
 11
641.844374844097
 21
905.2368248164736
 31
0.0
  0
LINE
  5
81
330
17
100
AcDbEntity
  8
0
100
AcDbLine
 10
641.844374844097
 20
905.2368248164736
 30
0.0
 11
570.9890263684482
 21
904.0000401083197
 31
0.0
  0
LINE
  5
82
330
17
100
AcDbEntity
  8
0
100
AcDbLine
 10
618.2814031314823
 20
927.9913221004457
 30
0.0
 11
641.844374844097
 21
905.2368248164736
 31
0.0
  0
LINE
  5
83
330
17
100
AcDbEntity
  8
0
100
AcDbLine
 10
664.5988721280694
 20
928.7997965290917
 30
0.0
 11
641.844374844097
 21
905.2368248164736
 31
0.0
  0
LINE
  5
84
330
17
100
AcDbEntity
  8
0
100
AcDbLine
 10
571.6074187225253
 20
868.5723658704928
 30
0.0
 11
712.0813309656727
 21
941.901283762453
 31
0.0
  0
LINE
  5
85
330
17
100
AcDbEntity
  8
0
100
AcDbLine
 10
529.8359744177027
 20
2043.4957132914647
 30
0.0
 11
542.3117135768288
 21
1328.7610955497673
 31
0.0
  0
LINE
  5
86
330
17
100
AcDbEntity
  8
0
100
AcDbLine
 10
260.1172195956185
 20
441.4175112536884
 30
0.0
 11
260.7356119496955
 21
405.989837015862
 31
0.0
  0
LINE
  5
87
330
17
100
AcDbEntity
  8
0
100
AcDbLine
 10
224.6895453577924
 20
440.79911889961136
 30
0.0
 11
225.3079377118694
 21
405.37144466178495
 31
0.0
  0
LINE
  5
88
330
17
100
AcDbEntity
  8
0
100
AcDbLine
 10
168.71063188614474
 20
1617.5604337159143
 30
0.0
 11
196.18786548563168
 21
43.3907750818945
 31
0.0
  0
LINE
  5
89
330
17
100
AcDbEntity
  8
0
100
AcDbLine
 10
260.7356119496955
 20
405.989837015862
 30
0.0
 11
225.3079377118694
 21
405.37144466178495
 31
0.0
  0
LINE
  5
8A
330
17
100
AcDbEntity
  8
0
100
AcDbLine
 10
260.1172195956185
 20
441.4175112536884
 30
0.0
 11
224.6895453577924
 21
440.79911889961136
 31
0.0
  0
LINE
  5
8B
330
17
100
AcDbEntity
  8
0
100
AcDbLine
 10
248.9655441437637
 20
1080.2965700091304
 30
0.0
 11
249.5839364978407
 21
1044.8688957713039
 31
0.0
  0
LINE
  5
8C
330
17
100
AcDbEntity
  8
0
100
AcDbLine
 10
213.53786990593764
 20
1079.6781776550533
 30
0.0
 11
214.15626226001464
 21
1044.2505034172268
 31
0.0
  0
LINE
  5
8D
330
17
100
AcDbEntity
  8
0
100
AcDbLine
 10
249.5839364978407
 20
1044.8688957713039
 30
0.0
 11
214.15626226001464
 21
1044.2505034172268
 31
0.0
  0
LINE
  5
8E
330
17
100
AcDbEntity
  8
0
100
AcDbLine
 10
248.9655441437637
 20
1080.2965700091304
 30
0.0
 11
213.53786990593764
 21
1079.6781776550533
 31
0.0
  0
LINE
  5
8F
330
17
100
AcDbEntity
  8
0
100
AcDbLine
 10
241.62728820871695
 20
1500.7049709646521
 30
0.0
 11
242.24568056279395
 21
1465.2772967268259
 31
0.0
  0
LINE
  5
90
330
17
100
AcDbEntity
  8
0
100
AcDbLine
 10
206.19961397089088
 20
1500.086578610575
 30
0.0
 11
206.81800632496788
 21
1464.6589043727488
 31
0.0
  0
LINE
  5
91
330
17
100
AcDbEntity
  8
0
100
AcDbLine
 10
242.24568056279395
 20
1465.2772967268259
 30
0.0
 11
206.81800632496788
 21
1464.6589043727488
 31
0.0
  0
LINE
  5
92
330
17
100
AcDbEntity
  8
0
100
AcDbLine
 10
241.62728820871695
 20
1500.7049709646521
 30
0.0
 11
206.19961397089088
 21
1500.086578610575
 31
0.0
  0
LINE
  5
93
330
17
100
AcDbEntity
  8
0
100
AcDbLine
 10
522.9873742643933
 20
1623.7443572566842
 30
0.0
 11
168.71063188614474
 21
1617.5604337159143
 31
0.0
  0
LINE
  5
94
330
17
100
AcDbEntity
  8
0
100
AcDbLine
 10
239.5659803617937
 20
1618.7972184240684
 30
0.0
 11
238.3291956536398
 21
1689.6525668997149
 31
0.0
  0
LINE
  5
95
330
17
100
AcDbEntity
  8
0
100
AcDbLine
 10
522.3689819103164
 20
1659.1720314945105
 30
0.0
 11
238.9475880077167
 21
1654.224892661895
 31
0.0
  0
LINE
  5
96
330
17
100
AcDbEntity
  8
0
100
AcDbLine
 10
521.7505895562394
 20
1694.5997057323307
 30
0.0
 11
238.3291956536398
 21
1689.6525668997149
 31
0.0
  0
LINE
  5
97
330
17
100
AcDbEntity
  8
0
100
AcDbLine
 10
170.771939733068
 20
1499.4681862564983
 30
0.0
 11
99.91659125742198
 21
1498.2314015483516
 31
0.0
  0
LINE
  5
98
330
17
100
AcDbEntity
  8
0
100
AcDbLine
 10
140.2914043278339
 20
1215.4283999998243
 30
0.0
 11
135.34426549524164
 21
1498.8497939024244
 31
0.0
  0
LINE
  5
99
330
17
100
AcDbEntity
  8
0
100
AcDbLine
 10
104.86373009001767
 20
1214.810007645751
 30
0.0
 11
99.91659125742198
 21
1498.2314015483516
 31
0.0
  0
LINE
  5
9A
330
17
100
AcDbEntity
  8
0
100
AcDbLine
 10
104.86373009001767
 20
1214.810007645751
 30
0.0
 11
175.71907856568367
 21
1216.0467923539054
 31
0.0
  0
LINE
  5
9B
330
17
100
AcDbEntity
  8
0
100
AcDbLine
 10
380.03989260493773
 20
1692.126136316023
 30
0.0
 11
381.27667731309157
 21
1621.2707878403762
 31
0.0
  0
LINE
  5
9C
330
17
100
AcDbEntity
  8
0
100
AcDbLine
 10
357.7137056004767
 20
1644.0252851243486
 30
0.0
 11
381.27667731309157
 21
1621.2707878403762
 31
0.0
  0
LINE
  5
9D
330
17
100
AcDbEntity
  8
0
100
AcDbLine
 10
404.03117459706414
 20
1644.8337595529947
 30
0.0
 11
381.27667731309157
 21
1621.2707878403762
 31
0.0
  0
LINE
  5
9E
330
17
100
AcDbEntity
  8
0
100
AcDbLine
 10
102.39016067371998
 20
1356.520704597046
 30
0.0
 11
173.24550914936245
 21
1357.7574893051997
 31
0.0
  0
LINE
  5
9F
330
17
100
AcDbEntity
  8
0
100
AcDbLine
 10
150.4910118653934
 20
1334.194517592589
 30
0.0
 11
173.24550914936245
 21
1357.7574893051997
 31
0.0
  0
LINE
  5
A0
330
17
100
AcDbEntity
  8
0
100
AcDbLine
 10
149.68253743674737
 20
1380.5119865891716
 30
0.0
 11
173.24550914936245
 21
1357.7574893051997
 31
0.0
  0
LINE
  5
A1
330
17
100
AcDbEntity
  8
0
100
AcDbLine
 10
1071.251419159906
 20
58.665066227595844
 30
0.0
 11
1072.264054027907
 21
0.6512534938503904
 31
0.0
  0
LINE
  5
A2
330
17
100
AcDbEntity
  8
0
100
AcDbLine
 10
776.0208005113652
 20
53.51179661028766
 30
0.0
 11
777.0334353793662
 21
-4.502016123457793
 31
0.0
  0
LINE
  5
A3
330
17
100
AcDbEntity
  8
0
100
AcDbLine
 10
776.6391928654423
 20
18.084122372461707
 30
0.0
 11
1071.869811513983
 21
23.23739198976989
 31
0.0
  0
LINE
  5
A4
330
17
100
AcDbEntity
  8
0
100
AcDbLine
 10
924.6487447036365
 20
-1.925381314803758
 30
0.0
 11
923.6361098356356
 21
56.08843141893851
 31
0.0
  0
LINE
  5
A5
330
17
100
AcDbEntity
  8
0
100
AcDbLine
 10
947.1990815482504
 20
33.333934134962874
 30
0.0
 11
923.6361098356356
 21
56.08843141893851
 31
0.0
  0
LINE
  5
A6
330
17
100
AcDbEntity
  8
0
100
AcDbLine
 10
900.8816125516701
 20
32.525459706316724
 30
0.0
 11
923.6361098356356
 21
56.08843141893851
 31
0.0
  0
LINE
  5
A7
330
17
100
AcDbEntity
  8
0
100
AcDbLine
 10
1509.3177950008007
 20
137.188479893803
 30
0.0
 11
1504.370656168165
 21
420.6098737963986
 31
0.0
  0
LINE
  5
A8
330
17
100
AcDbEntity
  8
0
100
AcDbLine
 10
1544.7454692386268
 20
137.80687224787982
 30
0.0
 11
1539.7983304059871
 21
421.2282661504754
 31
0.0
  0
LINE
  5
A9
330
17
100
AcDbEntity
  8
0
100
AcDbLine
 10
1544.7454692386268
 20
137.80687224787982
 30
0.0
 11
1473.8901207629544
 21
136.57008753972548
 31
0.0
  0
LINE
  5
AA
330
17
100
AcDbEntity
  8
0
100
AcDbLine
 10
1542.271899822308
 20
279.51756919918057
 30
0.0
 11
1471.416551346656
 21
278.2807844910267
 31
0.0
  0
LINE
  5
AB
330
17
100
AcDbEntity
  8
0
100
AcDbLine
 10
1494.979523059274
 20
255.52628720705513
 30
0.0
 11
1471.416551346656
 21
278.2807844910267
 31
0.0
  0
LINE
  5
AC
330
17
100
AcDbEntity
  8
0
100
AcDbLine
 10
1494.1710486306279
 20
301.8437562036422
 30
0.0
 11
1471.416551346656
 21
278.2807844910267
 31
0.0
  0
LINE
  5
AD
330
17
100
AcDbEntity
  8
0
100
AcDbLine
 10
1475.1269054711083
 20
65.71473906407323
 30
0.0
 11
1468.9429819303386
 21
419.9914814423215
 31
0.0
  0
LINE
  5
AE
330
17
100
AcDbEntity
  8
0
100
AcDbLine
 10
1777.2196100329809
 20
354.4955333686694
 30
0.0
 11
2063.7901305344935
 21
359.4976404105364
 31
0.0
  0
LINE
  5
AF
330
17
100
AcDbEntity
  8
0
100
AcDbLine
 10
444.8095562469229
 20
2042.01157164168
 30
0.0
 11
450.8952410805869
 21
1693.3629210241766
 31
0.0
  0
LINE
  5
B0
330
17
100
AcDbEntity
  8
0
100
AcDbLine
 10
1783.179383733624
 20
13.060326732328804
 30
0.0
 11
1777.2196100329809
 21
354.4955333686694
 31
0.0
  0
LINE
  5
B1
330
17
100
AcDbEntity
  8
0
100
AcDbLine
 10
1078.112470464768
 20
680.7299452784628
 30
0.0
 11
1095.8263075836778
 21
681.0391414555011
 31
0.0
  0
LINE
  5
B2
330
17
100
AcDbEntity
  8
0
100
AcDbLine
 10
1080.792170665768
 20
527.2100235812202
 30
0.0
 11
1098.5060077846779
 21
527.5192197582585
 31
0.0
  0
LINE
  5
B3
330
17
100
AcDbEntity
  8
0
100
AcDbLine
 10
1095.8263075836778
 20
681.0391414555011
 30
0.0
 11
1094.1463416884353
 21
777.2843231349182
 31
0.0
  0
LINE
  5
B4
330
17
100
AcDbEntity
  8
0
100
AcDbLine
 10
1078.112470464768
 20
680.7299452784628
 30
0.0
 11
1076.741700746564
 21
759.2612898389697
 31
0.0
  0
LINE
  5
B5
330
17
100
AcDbEntity
  8
0
100
AcDbLine
 10
700.4955551539682
 20
658.1913067612845
 30
0.0
 11
741.8278417647634
 21
658.9127645077076
 31
0.0
  0
LINE
  5
B6
330
17
100
AcDbEntity
  8
0
100
AcDbLine
 10
828.4295129739804
 20
434.79948735306914
 30
0.0
 11
829.089131484996
 21
397.0099681660532
 31
0.0
  0
LINE
  5
B7
330
17
100
AcDbEntity
  8
0
100
AcDbLine
 10
1005.567884163105
 20
437.8914491234541
 30
0.0
 11
1006.2275026741205
 21
400.1019299364382
 31
0.0
  0
LINE
  5
B8
330
17
100
AcDbEntity
  8
0
100
AcDbLine
 10
1078.112470464768
 20
680.7299452784591
 30
0.0
 11
1004.2708326600729
 21
604.2646909117532
 31
0.0
  0
LINE
  5
B9
330
17
100
AcDbEntity
  8
0
100
AcDbLine
 10
1080.792170665768
 20
527.2100235812202
 30
0.0
 11
1046.8076131694525
 21
560.0285292721942
 31
0.0
  0
LINE
  5
BA
330
17
100
AcDbEntity
  8
0
100
AcDbLine
 10
769.8368769705955
 20
407.78853898853595
 30
0.0
 11
887.9291244300117
 21
409.8498468354592
 31
0.0
  0
LINE
  5
BB
330
17
100
AcDbEntity
  8
0
100
AcDbLine
 10
887.9291244300117
 20
409.8498468354592
 30
0.0
 11
887.681767488381
 21
424.02091653059006
 31
0.0
  0
LINE
  5
BC
330
17
100
AcDbEntity
  8
0
100
AcDbLine
 10
887.681767488381
 20
424.02091653059006
 30
0.0
 11
769.5895200289648
 21
421.95960868366683
 31
0.0
  0
LINE
  5
BD
330
17
100
AcDbEntity
  8
0
100
AcDbLine
 10
769.5895200289648
 20
421.95960868366683
 30
0.0
 11
769.8368769705955
 21
407.78853898853595
 31
0.0
  0
LINE
  5
BE
330
17
100
AcDbEntity
  8
0
100
AcDbLine
 10
769.8368769705955
 20
407.78853898853595
 30
0.0
 11
769.8368769705955
 21
407.78853898853595
 31
0.0
  0
LINE
  5
BF
330
17
100
AcDbEntity
  8
0
100
AcDbLine
 10
946.9752481597199
 20
410.8805007589209
 30
0.0
 11
1065.0674956191363
 21
412.94180860584413
 31
0.0
  0
LINE
  5
C0
330
17
100
AcDbEntity
  8
0
100
AcDbLine
 10
1065.0674956191363
 20
412.94180860584413
 30
0.0
 11
1064.8201386775054
 21
427.112878300975
 31
0.0
  0
LINE
  5
C1
330
17
100
AcDbEntity
  8
0
100
AcDbLine
 10
1064.8201386775054
 20
427.112878300975
 30
0.0
 11
946.7278912180891
 21
425.0515704540518
 31
0.0
  0
LINE
  5
C2
330
17
100
AcDbEntity
  8
0
100
AcDbLine
 10
946.7278912180891
 20
425.0515704540518
 30
0.0
 11
946.9752481597199
 21
410.8805007589209
 31
0.0
  0
LINE
  5
C3
330
17
100
AcDbEntity
  8
0
100
AcDbLine
 10
946.9752481597199
 20
410.8805007589209
 30
0.0
 11
946.9752481597199
 21
410.8805007589209
 31
0.0
  0
LINE
  5
C4
330
17
100
AcDbEntity
  8
0
100
AcDbLine
 10
713.2323684310248
 20
605.255926189237
 30
0.0
 11
711.377191368794
 21
711.5389489027093
 31
0.0
  0
LINE
  5
C5
330
17
100
AcDbEntity
  8
0
100
AcDbLine
 10
711.377191368794
 20
711.5389489027093
 30
0.0
 11
729.0910284877071
 21
711.8481450797478
 31
0.0
  0
LINE
  5
C6
330
17
100
AcDbEntity
  8
0
100
AcDbLine
 10
729.0910284877071
 20
711.8481450797478
 30
0.0
 11
730.946205549938
 21
605.5651223662755
 31
0.0
  0
LINE
  5
C7
330
17
100
AcDbEntity
  8
0
100
AcDbLine
 10
730.946205549938
 20
605.5651223662755
 30
0.0
 11
713.2323684310248
 21
605.255926189237
 31
0.0
  0
LINE
  5
C8
330
17
100
AcDbEntity
  8
0
100
AcDbLine
 10
713.2323684310248
 20
605.255926189237
 30
0.0
 11
713.2323684310248
 21
605.255926189237
 31
0.0
  0
LINE
  5
C9
330
17
100
AcDbEntity
  8
0
100
AcDbLine
 10
254.54138186969107
 20
760.8570406314111
 30
0.0
 11
219.113707631865
 21
760.238648277334
 31
0.0
  0
LINE
  5
CA
330
17
100
AcDbEntity
  8
0
100
AcDbLine
 10
219.113707631865
 20
760.238648277334
 30
0.0
 11
219.73209998594206
 21
724.8109740395046
 31
0.0
  0
LINE
  5
CB
330
17
100
AcDbEntity
  8
0
100
AcDbLine
 10
219.73209998594206
 20
724.8109740395046
 30
0.0
 11
255.15977422376812
 21
725.4293663935816
 31
0.0
  0
LINE
  5
CC
330
17
100
AcDbEntity
  8
0
100
AcDbLine
 10
255.15977422376812
 20
725.4293663935816
 30
0.0
 11
254.54138186969107
 21
760.8570406314111
 31
0.0
  0
LINE
  5
CD
330
17
100
AcDbEntity
  8
0
100
AcDbLine
 10
254.54138186969107
 20
760.8570406314111
 30
0.0
 11
254.54138186969107
 21
760.8570406314111
 31
0.0
  0
LINE
  5
CE
330
17
100
AcDbEntity
  8
0
100
AcDbLine
 10
1438.4624465251309
 20
135.95169518564865
 30
0.0
 11
1403.0347722873046
 21
135.3333028315716
 31
0.0
  0
LINE
  5
CF
330
17
100
AcDbEntity
  8
0
100
AcDbLine
 10
1403.0347722873046
 20
135.3333028315716
 30
0.0
 11
1403.6531646413816
 21
99.90562859373847
 31
0.0
  0
LINE
  5
D0
330
17
100
AcDbEntity
  8
0
100
AcDbLine
 10
1403.6531646413816
 20
99.90562859373847
 30
0.0
 11
1439.080838879208
 21
100.52402094781553
 31
0.0
  0
LINE
  5
D1
330
17
100
AcDbEntity
  8
0
100
AcDbLine
 10
1439.080838879208
 20
100.52402094781553
 30
0.0
 11
1438.4624465251309
 21
135.95169518564865
 31
0.0
  0
LINE
  5
D2
330
17
100
AcDbEntity
  8
0
100
AcDbLine
 10
1438.4624465251309
 20
135.95169518564865
 30
0.0
 11
1438.4624465251309
 21
135.95169518564865
 31
0.0
  0
LINE
  5
D3
330
17
100
AcDbEntity
  8
0
100
AcDbLine
 10
230.37875501530056
 20
114.8645159116237
 30
0.0
 11
265.8064292531266
 21
115.48290826570076
 31
0.0
  0
LINE
  5
D4
330
17
100
AcDbEntity
  8
0
100
AcDbLine
 10
265.8064292531266
 20
115.48290826570076
 30
0.0
 11
266.42482160720374
 21
80.05523402786764
 31
0.0
  0
LINE
  5
D5
330
17
100
AcDbEntity
  8
0
100
AcDbLine
 10
266.42482160720374
 20
80.05523402786764
 30
0.0
 11
230.99714736937767
 21
79.43684167379058
 31
0.0
  0
LINE
  5
D6
330
17
100
AcDbEntity
  8
0
100
AcDbLine
 10
230.99714736937767
 20
79.43684167379058
 30
0.0
 11
230.37875501530056
 21
114.8645159116237
 31
0.0
  0
LINE
  5
D7
330
17
100
AcDbEntity
  8
0
100
AcDbLine
 10
230.37875501530056
 20
114.8645159116237
 30
0.0
 11
230.37875501530056
 21
114.8645159116237
 31
0.0
  0
LINE
  5
D8
330
17
100
AcDbEntity
  8
0
100
AcDbLine
 10
713.8507607851019
 20
569.8282519514107
 30
0.0
 11
715.7059378473328
 21
463.5452292379324
 31
0.0
  0
LINE
  5
D9
330
17
100
AcDbEntity
  8
0
100
AcDbLine
 10
715.7059378473328
 20
463.5452292379324
 30
0.0
 11
733.419774966246
 21
463.85442541497093
 31
0.0
  0
LINE
  5
DA
330
17
100
AcDbEntity
  8
0
100
AcDbLine
 10
733.419774966246
 20
463.85442541497093
 30
0.0
 11
731.564597904015
 21
570.1374481284493
 31
0.0
  0
LINE
  5
DB
330
17
100
AcDbEntity
  8
0
100
AcDbLine
 10
731.564597904015
 20
570.1374481284493
 30
0.0
 11
713.8507607851019
 21
569.8282519514107
 31
0.0
  0
LINE
  5
DC
330
17
100
AcDbEntity
  8
0
100
AcDbLine
 10
713.8507607851019
 20
569.8282519514107
 30
0.0
 11
713.8507607851019
 21
569.8282519514107
 31
0.0
  0
LINE
  5
DD
330
17
100
AcDbEntity
  8
0
100
AcDbLine
 10
1538.3700509897635
 20
435.3787227671372
 30
0.0
 11
1538.6174079313944
 21
421.20765307200634
 31
0.0
  0
LINE
  5
DE
330
17
100
AcDbEntity
  8
0
100
AcDbLine
 10
1538.6174079313944
 20
421.20765307200634
 30
0.0
 11
1432.3343852179187
 21
419.3524760097754
 31
0.0
  0
LINE
  5
DF
330
17
100
AcDbEntity
  8
0
100
AcDbLine
 10
1432.3343852179187
 20
419.3524760097754
 30
0.0
 11
1432.0870282762878
 21
433.52354570490627
 31
0.0
  0
LINE
  5
E0
330
17
100
AcDbEntity
  8
0
100
AcDbLine
 10
1432.0870282762878
 20
433.52354570490627
 30
0.0
 11
1538.3700509897635
 21
435.3787227671372
 31
0.0
  0
LINE
  5
E1
330
17
100
AcDbEntity
  8
0
100
AcDbLine
 10
1538.3700509897635
 20
435.3787227671372
 30
0.0
 11
1538.3700509897635
 21
435.3787227671372
 31
0.0
  0
LINE
  5
E2
330
17
100
AcDbEntity
  8
0
100
AcDbLine
 10
1278.5671065790493
 20
430.843845503906
 30
0.0
 11
1278.8144635206802
 21
416.6727758087751
 31
0.0
  0
LINE
  5
E3
330
17
100
AcDbEntity
  8
0
100
AcDbLine
 10
1278.8144635206802
 20
416.6727758087751
 30
0.0
 11
1172.5314408072047
 21
414.81759874654415
 31
0.0
  0
LINE
  5
E4
330
17
100
AcDbEntity
  8
0
100
AcDbLine
 10
1172.5314408072047
 20
414.81759874654415
 30
0.0
 11
1172.2840838655738
 21
428.98866844167503
 31
0.0
  0
LINE
  5
E5
330
17
100
AcDbEntity
  8
0
100
AcDbLine
 10
1172.2840838655738
 20
428.98866844167503
 30
0.0
 11
1278.5671065790493
 21
430.843845503906
 31
0.0
  0
LINE
  5
E6
330
17
100
AcDbEntity
  8
0
100
AcDbLine
 10
1278.5671065790493
 20
430.843845503906
 30
0.0
 11
1278.5671065790493
 21
430.843845503906
 31
0.0
  0
LINE
  5
E7
330
17
100
AcDbEntity
  8
0
100
AcDbLine
 10
2062.5533458263394
 20
430.3529888861891
 30
0.0
 11
1963.749498785292
 21
428.6283613209299
 31
0.0
  0
LINE
  5
E8
330
17
100
AcDbEntity
  8
0
100
AcDbLine
 10
1963.749498785292
 20
428.6283613209299
 30
0.0
 11
1963.502141843661
 21
442.7994310160608
 31
0.0
  0
LINE
  5
E9
330
17
100
AcDbEntity
  8
0
100
AcDbLine
 10
1963.502141843661
 20
442.7994310160608
 30
0.0
 11
2062.3059888847088
 21
444.52405858132
 31
0.0
  0
LINE
  5
EA
330
17
100
AcDbEntity
  8
0
100
AcDbLine
 10
1809.982220146422
 20
440.11973081506073
 30
0.0
 11
1810.2295770880528
 21
425.94866111992985
 31
0.0
  0
LINE
  5
EB
330
17
100
AcDbEntity
  8
0
100
AcDbLine
 10
1810.2295770880528
 20
425.94866111992985
 30
0.0
 11
1703.9465543745782
 21
424.0934840576989
 31
0.0
  0
LINE
  5
EC
330
17
100
AcDbEntity
  8
0
100
AcDbLine
 10
1703.9465543745782
 20
424.0934840576989
 30
0.0
 11
1703.6991974329474
 21
438.2645537528298
 31
0.0
  0
LINE
  5
ED
330
17
100
AcDbEntity
  8
0
100
AcDbLine
 10
1703.6991974329474
 20
438.2645537528298
 30
0.0
 11
1809.982220146422
 21
440.11973081506073
 31
0.0
  0
LINE
  5
EE
330
17
100
AcDbEntity
  8
0
100
AcDbLine
 10
1809.982220146422
 20
440.11973081506073
 30
0.0
 11
1809.982220146422
 21
440.11973081506073
 31
0.0
  0
LINE
  5
EF
330
17
100
AcDbEntity
  8
0
100
AcDbLine
 10
1610.0352865275627
 20
457.89272509644866
 30
0.0
 11
1631.2918910702554
 21
458.26376050889485
 31
0.0
  0
LINE
  5
F0
330
17
100
AcDbEntity
  8
0
100
AcDbLine
 10
1631.2918910702554
 20
458.26376050889485
 30
0.0
 11
1631.6629264827013
 21
437.0071559662066
 31
0.0
  0
LINE
  5
F1
330
17
100
AcDbEntity
  8
0
100
AcDbLine
 10
1631.6629264827013
 20
437.0071559662066
 30
0.0
 11
1610.4063219400086
 21
436.6361205537604
 31
0.0
  0
LINE
  5
F2
330
17
100
AcDbEntity
  8
0
100
AcDbLine
 10
1610.4063219400086
 20
436.6361205537604
 30
0.0
 11
1610.0352865275627
 21
457.89272509644866
 31
0.0
  0
LINE
  5
F3
330
17
100
AcDbEntity
  8
0
100
AcDbLine
 10
1610.0352865275627
 20
457.89272509644866
 30
0.0
 11
1610.0352865275627
 21
457.89272509644866
 31
0.0
  0
LINE
  5
F4
330
17
100
AcDbEntity
  8
0
100
AcDbLine
 10
1078.6201729601896
 20
448.61683978529413
 30
0.0
 11
1099.876777502882
 21
448.9878751977401
 31
0.0
  0
LINE
  5
F5
330
17
100
AcDbEntity
  8
0
100
AcDbLine
 10
1099.876777502882
 20
448.9878751977401
 30
0.0
 11
1100.247812915328
 21
427.73127065505184
 31
0.0
  0
LINE
  5
F6
330
17
100
AcDbEntity
  8
0
100
AcDbLine
 10
1100.247812915328
 20
427.73127065505184
 30
0.0
 11
1078.9912083726356
 21
427.3602352426059
 31
0.0
  0
LINE
  5
F7
330
17
100
AcDbEntity
  8
0
100
AcDbLine
 10
1078.9912083726356
 20
427.3602352426059
 30
0.0
 11
1078.6201729601896
 21
448.61683978529413
 31
0.0
  0
LINE
  5
F8
330
17
100
AcDbEntity
  8
0
100
AcDbLine
 10
1078.6201729601896
 20
448.61683978529413
 30
0.0
 11
1078.6201729601896
 21
448.61683978529413
 31
0.0
  0
LINE
  5
F9
330
17
100
AcDbEntity
  8
0
100
AcDbLine
 10
557.8333616641609
 20
439.5264721803625
 30
0.0
 11
579.0899662068567
 21
439.89750759280867
 31
0.0
  0
LINE
  5
FA
330
17
100
AcDbEntity
  8
0
100
AcDbLine
 10
579.0899662068567
 20
439.89750759280867
 30
0.0
 11
579.4610016193028
 21
418.6409030501204
 31
0.0
  0
LINE
  5
FB
330
17
100
AcDbEntity
  8
0
100
AcDbLine
 10
579.4610016193028
 20
418.6409030501204
 30
0.0
 11
558.2043970766069
 21
418.2698676376742
 31
0.0
  0
LINE
  5
FC
330
17
100
AcDbEntity
  8
0
100
AcDbLine
 10
558.2043970766069
 20
418.2698676376742
 30
0.0
 11
557.8333616641609
 21
439.5264721803625
 31
0.0
  0
LINE
  5
FD
330
17
100
AcDbEntity
  8
0
100
AcDbLine
 10
557.8333616641609
 20
439.5264721803625
 30
0.0
 11
557.8333616641609
 21
439.5264721803625
 31
0.0
  0
LINE
  5
FE
330
17
100
AcDbEntity
  8
0
100
AcDbLine
 10
1598.8836110757077
 20
1096.7717838518943
 30
0.0
 11
1620.1402156184004
 21
1097.1428192643405
 31
0.0
  0
LINE
  5
FF
330
17
100
AcDbEntity
  8
0
100
AcDbLine
 10
1620.1402156184004
 20
1097.1428192643405
 30
0.0
 11
1620.5112510308466
 21
1075.886214721648
 31
0.0
  0
LINE
  5
100
330
17
100
AcDbEntity
  8
0
100
AcDbLine
 10
1620.5112510308466
 20
1075.886214721648
 30
0.0
 11
1599.2546464881539
 21
1075.5151793092018
 31
0.0
  0
LINE
  5
101
330
17
100
AcDbEntity
  8
0
100
AcDbLine
 10
1599.2546464881539
 20
1075.5151793092018
 30
0.0
 11
1598.8836110757077
 21
1096.7717838518943
 31
0.0
  0
LINE
  5
102
330
17
100
AcDbEntity
  8
0
100
AcDbLine
 10
1598.8836110757077
 20
1096.7717838518943
 30
0.0
 11
1598.8836110757077
 21
1096.7717838518943
 31
0.0
  0
LINE
  5
103
330
17
100
AcDbEntity
  8
0
100
AcDbLine
 10
1067.4684975083346
 20
1087.4958985407397
 30
0.0
 11
1088.725102051027
 21
1087.8669339531857
 31
0.0
  0
LINE
  5
104
330
17
100
AcDbEntity
  8
0
100
AcDbLine
 10
1088.725102051027
 20
1087.8669339531857
 30
0.0
 11
1089.0961374634733
 21
1066.6103294104933
 31
0.0
  0
LINE
  5
105
330
17
100
AcDbEntity
  8
0
100
AcDbLine
 10
1089.0961374634733
 20
1066.6103294104933
 30
0.0
 11
1067.8395329207808
 21
1066.2392939980473
 31
0.0
  0
LINE
  5
106
330
17
100
AcDbEntity
  8
0
100
AcDbLine
 10
1067.8395329207808
 20
1066.2392939980473
 30
0.0
 11
1067.4684975083346
 21
1087.4958985407397
 31
0.0
  0
LINE
  5
107
330
17
100
AcDbEntity
  8
0
100
AcDbLine
 10
1067.4684975083346
 20
1087.4958985407397
 30
0.0
 11
1067.4684975083346
 21
1087.4958985407397
 31
0.0
  0
LINE
  5
108
330
17
100
AcDbEntity
  8
0
100
AcDbLine
 10
546.681686212306
 20
1078.405530935808
 30
0.0
 11
567.9382907550018
 21
1078.7765663482542
 31
0.0
  0
LINE
  5
109
330
17
100
AcDbEntity
  8
0
100
AcDbLine
 10
567.9382907550018
 20
1078.7765663482542
 30
0.0
 11
568.309326167448
 21
1057.519961805562
 31
0.0
  0
LINE
  5
10A
330
17
100
AcDbEntity
  8
0
100
AcDbLine
 10
568.309326167448
 20
1057.519961805562
 30
0.0
 11
547.0527216247522
 21
1057.1489263931157
 31
0.0
  0
LINE
  5
10B
330
17
100
AcDbEntity
  8
0
100
AcDbLine
 10
547.0527216247522
 20
1057.1489263931157
 30
0.0
 11
546.681686212306
 21
1078.405530935808
 31
0.0
  0
LINE
  5
10C
330
17
100
AcDbEntity
  8
0
100
AcDbLine
 10
546.681686212306
 20
1078.405530935808
 30
0.0
 11
546.681686212306
 21
1078.405530935808
 31
0.0
  0
LINE
  5
10D
330
17
100
AcDbEntity
  8
0
100
AcDbLine
 10
1587.54641791763
 20
1746.2791448786838
 30
0.0
 11
1608.8030224603226
 21
1746.6501802911303
 31
0.0
  0
LINE
  5
10E
330
17
100
AcDbEntity
  8
0
100
AcDbLine
 10
1608.8030224603226
 20
1746.6501802911303
 30
0.0
 11
1609.1740578727688
 21
1725.3935757484373
 31
0.0
  0
LINE
  5
10F
330
17
100
AcDbEntity
  8
0
100
AcDbLine
 10
1609.1740578727688
 20
1725.3935757484373
 30
0.0
 11
1587.9174533300761
 21
1725.022540335991
 31
0.0
  0
LINE
  5
110
330
17
100
AcDbEntity
  8
0
100
AcDbLine
 10
1587.9174533300761
 20
1725.022540335991
 30
0.0
 11
1587.54641791763
 21
1746.2791448786838
 31
0.0
  0
LINE
  5
111
330
17
100
AcDbEntity
  8
0
100
AcDbLine
 10
1587.54641791763
 20
1746.2791448786838
 30
0.0
 11
1587.54641791763
 21
1746.2791448786838
 31
0.0
  0
LINE
  5
112
330
17
100
AcDbEntity
  8
0
100
AcDbLine
 10
1056.1313043502569
 20
1737.0032595675293
 30
0.0
 11
1077.3879088929493
 21
1737.3742949799753
 31
0.0
  0
LINE
  5
113
330
17
100
AcDbEntity
  8
0
100
AcDbLine
 10
1077.3879088929493
 20
1737.3742949799753
 30
0.0
 11
1077.7589443053955
 21
1716.1176904372824
 31
0.0
  0
LINE
  5
114
330
17
100
AcDbEntity
  8
0
100
AcDbLine
 10
1077.7589443053955
 20
1716.1176904372824
 30
0.0
 11
1056.502339762703
 21
1715.7466550248364
 31
0.0
  0
LINE
  5
115
330
17
100
AcDbEntity
  8
0
100
AcDbLine
 10
1056.502339762703
 20
1715.7466550248364
 30
0.0
 11
1056.1313043502569
 21
1737.0032595675293
 31
0.0
  0
LINE
  5
116
330
17
100
AcDbEntity
  8
0
100
AcDbLine
 10
1056.1313043502569
 20
1737.0032595675293
 30
0.0
 11
1056.1313043502569
 21
1737.0032595675293
 31
0.0
  0
LINE
  5
117
330
17
100
AcDbEntity
  8
0
100
AcDbLine
 10
535.3444930542281
 20
1727.9128919625978
 30
0.0
 11
556.601097596924
 21
1728.283927375044
 31
0.0
  0
LINE
  5
118
330
17
100
AcDbEntity
  8
0
100
AcDbLine
 10
556.601097596924
 20
1728.283927375044
 30
0.0
 11
556.9721330093702
 21
1707.027322832351
 31
0.0
  0
LINE
  5
119
330
17
100
AcDbEntity
  8
0
100
AcDbLine
 10
556.9721330093702
 20
1707.027322832351
 30
0.0
 11
535.7155284666743
 21
1706.6562874199049
 31
0.0
  0
LINE
  5
11A
330
17
100
AcDbEntity
  8
0
100
AcDbLine
 10
535.7155284666743
 20
1706.6562874199049
 30
0.0
 11
535.3444930542281
 21
1727.9128919625978
 31
0.0
  0
LINE
  5
11B
330
17
100
AcDbEntity
  8
0
100
AcDbLine
 10
535.3444930542281
 20
1727.9128919625978
 30
0.0
 11
535.3444930542281
 21
1727.9128919625978
 31
0.0
  0
LINE
  5
11C
330
17
100
AcDbEntity
  8
0
100
AcDbLine
 10
727.5151625932755
 20
463.751360022628
 30
0.0
 11
727.370871043991
 21
472.0178173447862
 31
0.0
  0
LINE
  5
11D
330
17
100
AcDbEntity
  8
0
100
AcDbLine
 10
727.370871043991
 20
472.0178173447862
 30
0.0
 11
733.2754834169614
 21
472.1208827371323
 31
0.0
  0
LINE
  5
11E
330
17
100
AcDbEntity
  8
0
100
AcDbLine
 10
733.2754834169614
 20
472.1208827371323
 30
0.0
 11
733.2754834169614
 21
472.1208827371323
 31
0.0
  0
LINE
  5
11F
330
17
100
AcDbEntity
  8
0
100
AcDbLine
 10
730.3231772304764
 20
472.0693500409592
 30
0.0
 11
728.7565832668147
 21
561.8194581101184
 31
0.0
  0
LINE
  5
120
330
17
100
AcDbEntity
  8
0
100
AcDbLine
 10
728.7565832668147
 20
561.8194581101184
 30
0.0
 11
725.8042770803293
 21
561.7679254139454
 31
0.0
  0
LINE
  5
121
330
17
100
AcDbEntity
  8
0
100
AcDbLine
 10
725.8042770803293
 20
561.7679254139454
 30
0.0
 11
727.370871043991
 21
472.0178173447862
 31
0.0
  0
LINE
  5
122
330
17
100
AcDbEntity
  8
0
100
AcDbLine
 10
727.370871043991
 20
472.0178173447862
 30
0.0
 11
730.3231772304764
 21
472.0693500409592
 31
0.0
  0
LINE
  5
123
330
17
100
AcDbEntity
  8
0
100
AcDbLine
 10
730.3231772304764
 20
472.0693500409592
 30
0.0
 11
730.3231772304764
 21
472.0693500409592
 31
0.0
  0
LINE
  5
124
330
17
100
AcDbEntity
  8
0
100
AcDbLine
 10
730.946205549938
 20
605.5651223662755
 30
0.0
 11
731.7088894532997
 21
561.8709908062915
 31
0.0
  0
LINE
  5
125
330
17
100
AcDbEntity
  8
0
100
AcDbLine
 10
731.7088894532997
 20
561.8709908062915
 30
0.0
 11
725.8042770803293
 21
561.7679254139454
 31
0.0
  0
LINE
  5
126
330
17
100
AcDbEntity
  8
0
100
AcDbLine
 10
725.8042770803293
 20
561.7679254139454
 30
0.0
 11
725.6599855310446
 21
570.034382736103
 31
0.0
  0
LINE
  5
127
330
17
100
AcDbEntity
  8
0
100
AcDbLine
 10
731.564597904015
 20
570.1374481284493
 30
0.0
 11
731.564597904015
 21
570.1374481284493
 31
0.0
  0
LINE
  5
128
330
17
100
AcDbEntity
  8
0
100
AcDbLine
 10
1432.2313198255758
 20
425.25708838274215
 30
0.0
 11
1440.4977771477352
 21
425.40137993202677
 31
0.0
  0
LINE
  5
129
330
17
100
AcDbEntity
  8
0
100
AcDbLine
 10
1440.4977771477352
 20
425.40137993202677
 30
0.0
 11
1440.6008425400812
 21
419.4967675590568
 31
0.0
  0
LINE
  5
12A
330
17
100
AcDbEntity
  8
0
100
AcDbLine
 10
1440.6008425400812
 20
419.4967675590568
 30
0.0
 11
1440.6008425400812
 21
419.4967675590568
 31
0.0
  0
LINE
  5
12B
330
17
100
AcDbEntity
  8
0
100
AcDbLine
 10
1440.549309843908
 20
422.4490737455418
 30
0.0
 11
1530.2994179130656
 21
424.0156677092035
 31
0.0
  0
LINE
  5
12C
330
17
100
AcDbEntity
  8
0
100
AcDbLine
 10
1530.2994179130656
 20
424.0156677092035
 30
0.0
 11
1530.2478852168927
 21
426.9679738956885
 31
0.0
  0
LINE
  5
12D
330
17
100
AcDbEntity
  8
0
100
AcDbLine
 10
1530.2478852168927
 20
426.9679738956885
 30
0.0
 11
1440.4977771477352
 21
425.40137993202677
 31
0.0
  0
LINE
  5
12E
330
17
100
AcDbEntity
  8
0
100
AcDbLine
 10
1440.4977771477352
 20
425.40137993202677
 30
0.0
 11
1440.549309843908
 21
422.4490737455418
 31
0.0
  0
LINE
  5
12F
330
17
100
AcDbEntity
  8
0
100
AcDbLine
 10
1440.549309843908
 20
422.4490737455418
 30
0.0
 11
1440.549309843908
 21
422.4490737455418
 31
0.0
  0
LINE
  5
130
330
17
100
AcDbEntity
  8
0
100
AcDbLine
 10
1712.2130116967398
 20
424.23777560698034
 30
0.0
 11
1530.3509506092387
 21
421.06336152271854
 31
0.0
  0
LINE
  5
131
330
17
100
AcDbEntity
  8
0
100
AcDbLine
 10
1530.3509506092387
 20
421.06336152271854
 30
0.0
 11
1530.2478852168927
 21
426.9679738956885
 31
0.0
  0
LINE
  5
132
330
17
100
AcDbEntity
  8
0
100
AcDbLine
 10
1530.2478852168927
 20
426.9679738956885
 30
0.0
 11
1538.5143425390518
 21
427.1122654449731
 31
0.0
  0
LINE
  5
133
330
17
100
AcDbEntity
  8
0
100
AcDbLine
 10
1538.6174079313978
 20
421.20765307200315
 30
0.0
 11
1538.6174079313978
 21
421.20765307200315
 31
0.0
  0
LINE
  5
134
330
17
100
AcDbEntity
  8
0
100
AcDbLine
 10
1172.4283754148619
 20
420.72221111951114
 30
0.0
 11
1180.6948327370203
 21
420.86650266879576
 31
0.0
  0
LINE
  5
135
330
17
100
AcDbEntity
  8
0
100
AcDbLine
 10
1180.6948327370203
 20
420.86650266879576
 30
0.0
 11
1180.7978981293663
 21
414.9618902958258
 31
0.0
  0
LINE
  5
136
330
17
100
AcDbEntity
  8
0
100
AcDbLine
 10
1180.7978981293663
 20
414.9618902958258
 30
0.0
 11
1180.7978981293663
 21
414.9618902958258
 31
0.0
  0
LINE
  5
137
330
17
100
AcDbEntity
  8
0
100
AcDbLine
 10
1180.7463654331932
 20
417.9141964823108
 30
0.0
 11
1270.4964735023514
 21
419.4807904459725
 31
0.0
  0
LINE
  5
138
330
17
100
AcDbEntity
  8
0
100
AcDbLine
 10
1270.4964735023514
 20
419.4807904459725
 30
0.0
 11
1270.4449408061785
 21
422.4330966324575
 31
0.0
  0
LINE
  5
139
330
17
100
AcDbEntity
  8
0
100
AcDbLine
 10
1270.4449408061785
 20
422.4330966324575
 30
0.0
 11
1180.6948327370203
 21
420.86650266879576
 31
0.0
  0
LINE
  5
13A
330
17
100
AcDbEntity
  8
0
100
AcDbLine
 10
1180.6948327370203
 20
420.86650266879576
 30
0.0
 11
1180.7463654331932
 21
417.9141964823108
 31
0.0
  0
LINE
  5
13B
330
17
100
AcDbEntity
  8
0
100
AcDbLine
 10
1180.7463654331932
 20
417.9141964823108
 30
0.0
 11
1180.7463654331932
 21
417.9141964823108
 31
0.0
  0
LINE
  5
13C
330
17
100
AcDbEntity
  8
0
100
AcDbLine
 10
1440.6008425400812
 20
419.4967675590568
 30
0.0
 11
1270.5480061985245
 21
416.5284842594875
 31
0.0
  0
LINE
  5
13D
330
17
100
AcDbEntity
  8
0
100
AcDbLine
 10
1270.5480061985245
 20
416.5284842594875
 30
0.0
 11
1270.4449408061785
 21
422.4330966324575
 31
0.0
  0
LINE
  5
13E
330
17
100
AcDbEntity
  8
0
100
AcDbLine
 10
1270.4449408061785
 20
422.4330966324575
 30
0.0
 11
1278.7113981283374
 21
422.5773881817421
 31
0.0
  0
LINE
  5
13F
330
17
100
AcDbEntity
  8
0
100
AcDbLine
 10
1278.8144635206834
 20
416.67277580877214
 30
0.0
 11
1278.8144635206834
 21
416.67277580877214
 31
0.0
  0
LINE
  5
140
330
17
100
AcDbEntity
  8
0
100
AcDbLine
 10
1963.6464333929496
 20
434.5329736938969
 30
0.0
 11
1971.9128907151087
 21
434.6772652431815
 31
0.0
  0
LINE
  5
141
330
17
100
AcDbEntity
  8
0
100
AcDbLine
 10
1971.9128907151087
 20
434.6772652431815
 30
0.0
 11
1972.0159561074547
 21
428.7726528702116
 31
0.0
  0
LINE
  5
142
330
17
100
AcDbEntity
  8
0
100
AcDbLine
 10
1972.0159561074547
 20
428.7726528702116
 30
0.0
 11
1972.0159561074547
 21
428.7726528702116
 31
0.0
  0
LINE
  5
143
330
17
100
AcDbEntity
  8
0
100
AcDbLine
 10
1971.9644234112816
 20
431.72495905669655
 30
0.0
 11
2061.7145314804407
 21
433.29155302035826
 31
0.0
  0
LINE
  5
144
330
17
100
AcDbEntity
  8
0
100
AcDbLine
 10
2061.7145314804407
 20
433.29155302035826
 30
0.0
 11
2061.6629987842675
 21
436.24385920684324
 31
0.0
  0
LINE
  5
145
330
17
100
AcDbEntity
  8
0
100
AcDbLine
 10
2061.6629987842675
 20
436.24385920684324
 30
0.0
 11
1971.9128907151087
 21
434.6772652431815
 31
0.0
  0
LINE
  5
146
330
17
100
AcDbEntity
  8
0
100
AcDbLine
 10
1971.9128907151087
 20
434.6772652431815
 30
0.0
 11
1971.9644234112816
 21
431.72495905669655
 31
0.0
  0
LINE
  5
147
330
17
100
AcDbEntity
  8
0
100
AcDbLine
 10
1971.9644234112816
 20
431.72495905669655
 30
0.0
 11
1971.9644234112816
 21
431.72495905669655
 31
0.0
  0
LINE
  5
148
330
17
100
AcDbEntity
  8
0
100
AcDbLine
 10
2062.5533458263394
 20
430.3529888861859
 30
0.0
 11
2061.766064176614
 21
430.3392468338733
 31
0.0
  0
LINE
  5
149
330
17
100
AcDbEntity
  8
0
100
AcDbLine
 10
2061.766064176614
 20
430.3392468338733
 30
0.0
 11
2061.6629987842675
 21
436.24385920684324
 31
0.0
  0
LINE
  5
14A
330
17
100
AcDbEntity
  8
0
100
AcDbLine
 10
2061.6629987842675
 20
436.24385920684324
 30
0.0
 11
2062.450280433993
 21
436.2576012591559
 31
0.0
  0
LINE
  5
14B
330
17
100
AcDbEntity
  8
0
100
AcDbLine
 10
1703.8434889822347
 20
429.99809643066567
 30
0.0
 11
1712.1099463043938
 21
430.1423879799503
 31
0.0
  0
LINE
  5
14C
330
17
100
AcDbEntity
  8
0
100
AcDbLine
 10
1712.1099463043938
 20
430.1423879799503
 30
0.0
 11
1712.2130116967398
 21
424.23777560698034
 31
0.0
  0
LINE
  5
14D
330
17
100
AcDbEntity
  8
0
100
AcDbLine
 10
1712.2130116967398
 20
424.23777560698034
 30
0.0
 11
1712.2130116967398
 21
424.23777560698034
 31
0.0
  0
LINE
  5
14E
330
17
100
AcDbEntity
  8
0
100
AcDbLine
 10
1712.1614790005667
 20
427.1900817934653
 30
0.0
 11
1801.9115870697256
 21
428.756675757127
 31
0.0
  0
LINE
  5
14F
330
17
100
AcDbEntity
  8
0
100
AcDbLine
 10
1801.9115870697256
 20
428.756675757127
 30
0.0
 11
1801.8600543735527
 21
431.708981943612
 31
0.0
  0
LINE
  5
150
330
17
100
AcDbEntity
  8
0
100
AcDbLine
 10
1801.8600543735527
 20
431.708981943612
 30
0.0
 11
1712.1099463043938
 21
430.1423879799503
 31
0.0
  0
LINE
  5
151
330
17
100
AcDbEntity
  8
0
100
AcDbLine
 10
1712.1099463043938
 20
430.1423879799503
 30
0.0
 11
1712.1614790005667
 21
427.1900817934653
 31
0.0
  0
LINE
  5
152
330
17
100
AcDbEntity
  8
0
100
AcDbLine
 10
1712.1614790005667
 20
427.1900817934653
 30
0.0
 11
1712.1614790005667
 21
427.1900817934653
 31
0.0
  0
LINE
  5
153
330
17
100
AcDbEntity
  8
0
100
AcDbLine
 10
1972.0159561074547
 20
428.7726528702116
 30
0.0
 11
1801.9631197658987
 21
425.80436957064205
 31
0.0
  0
LINE
  5
154
330
17
100
AcDbEntity
  8
0
100
AcDbLine
 10
1801.9631197658987
 20
425.80436957064205
 30
0.0
 11
1801.8600543735527
 21
431.708981943612
 31
0.0
  0
LINE
  5
155
330
17
100
AcDbEntity
  8
0
100
AcDbLine
 10
1801.8600543735527
 20
431.708981943612
 30
0.0
 11
1810.1265116957104
 21
431.8532734928966
 31
0.0
  0
LINE
  5
156
330
17
100
AcDbEntity
  8
0
100
AcDbLine
 10
1810.2295770880564
 20
425.94866111992667
 30
0.0
 11
1810.2295770880564
 21
425.94866111992667
 31
0.0
  0
LINE
  5
157
330
17
100
AcDbEntity
  8
0
100
AcDbLine
 10
819.0585444546568
 20
766.5762363871613
 30
0.0
 11
819.0296366775584
 21
767.1027102360591
 31
0.0
  0
LINE
  5
158
330
17
100
AcDbEntity
  8
0
100
AcDbLine
 10
819.0296366775584
 20
767.1027102360591
 30
0.0
 11
818.9614662924687
 21
767.6255516764094
 31
0.0
  0
LINE
  5
159
330
17
100
AcDbEntity
  8
0
100
AcDbLine
 10
818.9614662924687
 20
767.6255516764094
 30
0.0
 11
818.8544145358337
 21
768.1418367667927
 31
0.0
  0
LINE
  5
15A
330
17
100
AcDbEntity
  8
0
100
AcDbLine
 10
818.8544145358337
 20
768.1418367667927
 30
0.0
 11
818.7090800845008
 21
768.6486782315587
 31
0.0
  0
LINE
  5
15B
330
17
100
AcDbEntity
  8
0
100
AcDbLine
 10
818.7090800845008
 20
768.6486782315587
 30
0.0
 11
818.5262757076748
 21
769.1432416076428
 31
0.0
  0
LINE
  5
15C
330
17
100
AcDbEntity
  8
0
100
AcDbLine
 10
818.5262757076748
 20
769.1432416076428
 30
0.0
 11
818.3070237215836
 21
769.622761096033
 31
0.0
  0
LINE
  5
15D
330
17
100
AcDbEntity
  8
0
100
AcDbLine
 10
818.3070237215836
 20
769.622761096033
 30
0.0
 11
818.0525502722699
 21
770.0845550292379
 31
0.0
  0
LINE
  5
15E
330
17
100
AcDbEntity
  8
0
100
AcDbLine
 10
818.0525502722699
 20
770.0845550292379
 30
0.0
 11
817.7642784784865
 21
770.5260408682625
 31
0.0
  0
LINE
  5
15F
330
17
100
AcDbEntity
  8
0
100
AcDbLine
 10
817.7642784784865
 20
770.5260408682625
 30
0.0
 11
817.443820473038
 21
770.9447496452125
 31
0.0
  0
LINE
  5
160
330
17
100
AcDbEntity
  8
0
100
AcDbLine
 10
817.443820473038
 20
770.9447496452125
 30
0.0
 11
817.0929683870808
 21
771.3383397707614
 31
0.0
  0
LINE
  5
161
330
17
100
AcDbEntity
  8
0
100
AcDbLine
 10
817.0929683870808
 20
771.3383397707614
 30
0.0
 11
816.7136843277982
 21
771.7046101292739
 31
0.0
  0
LINE
  5
162
330
17
100
AcDbEntity
  8
0
100
AcDbLine
 10
816.7136843277982
 20
771.7046101292739
 30
0.0
 11
816.3080894055021
 21
772.0415123883314
 31
0.0
  0
LINE
  5
163
330
17
100
AcDbEntity
  8
0
100
AcDbLine
 10
816.3080894055021
 20
772.0415123883314
 30
0.0
 11
815.8784518715219
 21
772.3471624538408
 31
0.0
  0
LINE
  5
164
330
17
100
AcDbEntity
  8
0
100
AcDbLine
 10
815.8784518715219
 20
772.3471624538408
 30
0.0
 11
815.427174433225
 21
772.619851006653
 31
0.0
  0
LINE
  5
165
330
17
100
AcDbEntity
  8
0
100
AcDbLine
 10
815.427174433225
 20
772.619851006653
 30
0.0
 11
814.9567808171018
 21
772.8580530617676
 31
0.0
  0
LINE
  5
166
330
17
100
AcDbEntity
  8
0
100
AcDbLine
 10
814.9567808171018
 20
772.8580530617676
 30
0.0
 11
814.4699016550627
 21
773.0604364966691
 31
0.0
  0
LINE
  5
167
330
17
100
AcDbEntity
  8
0
100
AcDbLine
 10
814.4699016550627
 20
773.0604364966691
 30
0.0
 11
813.9692597728782
 21
773.2258695010953
 31
0.0
  0
LINE
  5
168
330
17
100
AcDbEntity
  8
0
100
AcDbLine
 10
813.9692597728782
 20
773.2258695010953
 30
0.0
 11
813.457654963033
 21
773.353426906579
 31
0.0
  0
LINE
  5
169
330
17
100
AcDbEntity
  8
0
100
AcDbLine
 10
813.457654963033
 20
773.353426906579
 30
0.0
 11
812.9379483271496
 21
773.4423953603667
 31
0.0
  0
LINE
  5
16A
330
17
100
AcDbEntity
  8
0
100
AcDbLine
 10
812.9379483271496
 20
773.4423953603667
 30
0.0
 11
812.4130462755485
 21
773.4922773147761
 31
0.0
  0
LINE
  5
16B
330
17
100
AcDbEntity
  8
0
100
AcDbLine
 10
812.4130462755485
 20
773.4922773147761
 30
0.0
 11
811.8858842734229
 21
773.5027938096845
 31
0.0
  0
LINE
  5
16C
330
17
100
AcDbEntity
  8
0
100
AcDbLine
 10
811.8858842734229
 20
773.5027938096845
 30
0.0
 11
811.3594104245245
 21
773.4738860325857
 31
0.0
  0
LINE
  5
16D
330
17
100
AcDbEntity
  8
0
100
AcDbLine
 10
811.3594104245245
 20
773.4738860325857
 30
0.0
 11
810.8365689841744
 21
773.4057156474963
 31
0.0
  0
LINE
  5
16E
330
17
100
AcDbEntity
  8
0
100
AcDbLine
 10
810.8365689841744
 20
773.4057156474963
 30
0.0
 11
810.3202838937915
 21
773.2986638908615
 31
0.0
  0
LINE
  5
16F
330
17
100
AcDbEntity
  8
0
100
AcDbLine
 10
810.3202838937915
 20
773.2986638908615
 30
0.0
 11
809.8134424290251
 21
773.1533294395285
 31
0.0
  0
LINE
  5
170
330
17
100
AcDbEntity
  8
0
100
AcDbLine
 10
809.8134424290251
 20
773.1533294395285
 30
0.0
 11
809.318879052941
 21
772.9705250627023
 31
0.0
  0
LINE
  5
171
330
17
100
AcDbEntity
  8
0
100
AcDbLine
 10
809.318879052941
 20
772.9705250627023
 30
0.0
 11
808.8393595645515
 21
772.7512730766111
 31
0.0
  0
LINE
  5
172
330
17
100
AcDbEntity
  8
0
100
AcDbLine
 10
808.8393595645515
 20
772.7512730766111
 30
0.0
 11
808.3775656313462
 21
772.4967996272976
 31
0.0
  0
LINE
  5
173
330
17
100
AcDbEntity
  8
0
100
AcDbLine
 10
808.3775656313462
 20
772.4967996272976
 30
0.0
 11
807.9360797923214
 21
772.2085278335144
 31
0.0
  0
LINE
  5
174
330
17
100
AcDbEntity
  8
0
100
AcDbLine
 10
807.9360797923214
 20
772.2085278335144
 30
0.0
 11
807.5173710153721
 21
771.888069828066
 31
0.0
  0
LINE
  5
175
330
17
100
AcDbEntity
  8
0
100
AcDbLine
 10
807.5173710153721
 20
771.888069828066
 30
0.0
 11
807.1237808898227
 21
771.5372177421086
 31
0.0
  0
LINE
  5
176
330
17
100
AcDbEntity
  8
0
100
AcDbLine
 10
807.1237808898227
 20
771.5372177421086
 30
0.0
 11
806.7575105313102
 21
771.1579336828261
 31
0.0
  0
LINE
  5
177
330
17
100
AcDbEntity
  8
0
100
AcDbLine
 10
806.7575105313102
 20
771.1579336828261
 30
0.0
 11
806.4206082722529
 21
770.7523387605303
 31
0.0
  0
LINE
  5
178
330
17
100
AcDbEntity
  8
0
100
AcDbLine
 10
806.4206082722529
 20
770.7523387605303
 30
0.0
 11
806.1149582067433
 21
770.3227012265496
 31
0.0
  0
LINE
  5
179
330
17
100
AcDbEntity
  8
0
100
AcDbLine
 10
806.1149582067433
 20
770.3227012265496
 30
0.0
 11
805.842269653931
 21
769.8714237882531
 31
0.0
  0
LINE
  5
17A
330
17
100
AcDbEntity
  8
0
100
AcDbLine
 10
805.842269653931
 20
769.8714237882531
 30
0.0
 11
805.6040675988162
 21
769.4010301721297
 31
0.0
  0
LINE
  5
17B
330
17
100
AcDbEntity
  8
0
100
AcDbLine
 10
805.6040675988162
 20
769.4010301721297
 30
0.0
 11
805.4016841639146
 21
768.9141510100901
 31
0.0
  0
LINE
  5
17C
330
17
100
AcDbEntity
  8
0
100
AcDbLine
 10
805.4016841639146
 20
768.9141510100901
 30
0.0
 11
805.2362511594886
 21
768.4135091279059
 31
0.0
  0
LINE
  5
17D
330
17
100
AcDbEntity
  8
0
100
AcDbLine
 10
805.2362511594886
 20
768.4135091279059
 30
0.0
 11
805.1086937540052
 21
767.9019043180606
 31
0.0
  0
LINE
  5
17E
330
17
100
AcDbEntity
  8
0
100
AcDbLine
 10
805.1086937540052
 20
767.9019043180606
 30
0.0
 11
805.0197253002171
 21
767.3821976821772
 31
0.0
  0
LINE
  5
17F
330
17
100
AcDbEntity
  8
0
100
AcDbLine
 10
805.0197253002171
 20
767.3821976821772
 30
0.0
 11
804.9698433458076
 21
766.8572956305761
 31
0.0
  0
LINE
  5
180
330
17
100
AcDbEntity
  8
0
100
AcDbLine
 10
804.9698433458076
 20
766.8572956305761
 30
0.0
 11
804.9593268508994
 21
766.3301336284507
 31
0.0
  0
LINE
  5
181
330
17
100
AcDbEntity
  8
0
100
AcDbLine
 10
804.9593268508994
 20
766.3301336284507
 30
0.0
 11
804.9882346279979
 21
765.8036597795523
 31
0.0
  0
LINE
  5
182
330
17
100
AcDbEntity
  8
0
100
AcDbLine
 10
804.9882346279979
 20
765.8036597795523
 30
0.0
 11
805.0564050130876
 21
765.2808183392024
 31
0.0
  0
LINE
  5
183
330
17
100
AcDbEntity
  8
0
100
AcDbLine
 10
805.0564050130876
 20
765.2808183392024
 30
0.0
 11
805.1634567697228
 21
764.7645332488187
 31
0.0
  0
LINE
  5
184
330
17
100
AcDbEntity
  8
0
100
AcDbLine
 10
805.1634567697228
 20
764.7645332488187
 30
0.0
 11
805.3087912210553
 21
764.2576917840531
 31
0.0
  0
LINE
  5
185
330
17
100
AcDbEntity
  8
0
100
AcDbLine
 10
805.3087912210553
 20
764.2576917840531
 30
0.0
 11
805.4915955978814
 21
763.763128407969
 31
0.0
  0
LINE
  5
186
330
17
100
AcDbEntity
  8
0
100
AcDbLine
 10
805.4915955978814
 20
763.763128407969
 30
0.0
 11
805.7108475839726
 21
763.2836089195794
 31
0.0
  0
LINE
  5
187
330
17
100
AcDbEntity
  8
0
100
AcDbLine
 10
805.7108475839726
 20
763.2836089195794
 30
0.0
 11
805.9653210332863
 21
762.821814986374
 31
0.0
  0
LINE
  5
188
330
17
100
AcDbEntity
  8
0
100
AcDbLine
 10
805.9653210332863
 20
762.821814986374
 30
0.0
 11
806.2535928270697
 21
762.3803291473489
 31
0.0
  0
LINE
  5
189
330
17
100
AcDbEntity
  8
0
100
AcDbLine
 10
806.2535928270697
 20
762.3803291473489
 30
0.0
 11
806.5740508325183
 21
761.9616203703997
 31
0.0
  0
LINE
  5
18A
330
17
100
AcDbEntity
  8
0
100
AcDbLine
 10
806.5740508325183
 20
761.9616203703997
 30
0.0
 11
806.9249029184754
 21
761.5680302448508
 31
0.0
  0
LINE
  5
18B
330
17
100
AcDbEntity
  8
0
100
AcDbLine
 10
806.9249029184754
 20
761.5680302448508
 30
0.0
 11
807.304186977758
 21
761.201759886338
 31
0.0
  0
LINE
  5
18C
330
17
100
AcDbEntity
  8
0
100
AcDbLine
 10
807.304186977758
 20
761.201759886338
 30
0.0
 11
807.7097819000543
 21
760.8648576272803
 31
0.0
  0
LINE
  5
18D
330
17
100
AcDbEntity
  8
0
100
AcDbLine
 10
807.7097819000543
 20
760.8648576272803
 30
0.0
 11
808.1394194340343
 21
760.559207561771
 31
0.0
  0
LINE
  5
18E
330
17
100
AcDbEntity
  8
0
100
AcDbLine
 10
808.1394194340343
 20
760.559207561771
 30
0.0
 11
808.5906968723311
 21
760.2865190089589
 31
0.0
  0
LINE
  5
18F
330
17
100
AcDbEntity
  8
0
100
AcDbLine
 10
808.5906968723311
 20
760.2865190089589
 30
0.0
 11
809.0610904884546
 21
760.0483169538443
 31
0.0
  0
LINE
  5
190
330
17
100
AcDbEntity
  8
0
100
AcDbLine
 10
809.0610904884546
 20
760.0483169538443
 30
0.0
 11
809.5479696504937
 21
759.8459335189423
 31
0.0
  0
LINE
  5
191
330
17
100
AcDbEntity
  8
0
100
AcDbLine
 10
809.5479696504937
 20
759.8459335189423
 30
0.0
 11
810.048611532678
 21
759.680500514516
 31
0.0
  0
LINE
  5
192
330
17
100
AcDbEntity
  8
0
100
AcDbLine
 10
810.048611532678
 20
759.680500514516
 30
0.0
 11
810.5602163425234
 21
759.5529431090329
 31
0.0
  0
LINE
  5
193
330
17
100
AcDbEntity
  8
0
100
AcDbLine
 10
810.5602163425234
 20
759.5529431090329
 30
0.0
 11
811.0799229784066
 21
759.463974655245
 31
0.0
  0
LINE
  5
194
330
17
100
AcDbEntity
  8
0
100
AcDbLine
 10
811.0799229784066
 20
759.463974655245
 30
0.0
 11
811.6048250300076
 21
759.4140927008352
 31
0.0
  0
LINE
  5
195
330
17
100
AcDbEntity
  8
0
100
AcDbLine
 10
811.6048250300076
 20
759.4140927008352
 30
0.0
 11
812.1319870321336
 21
759.4035762059268
 31
0.0
  0
LINE
  5
196
330
17
100
AcDbEntity
  8
0
100
AcDbLine
 10
812.1319870321336
 20
759.4035762059268
 30
0.0
 11
812.6584608810316
 21
759.4324839830256
 31
0.0
  0
LINE
  5
197
330
17
100
AcDbEntity
  8
0
100
AcDbLine
 10
812.6584608810316
 20
759.4324839830256
 30
0.0
 11
813.1813023213817
 21
759.5006543681154
 31
0.0
  0
LINE
  5
198
330
17
100
AcDbEntity
  8
0
100
AcDbLine
 10
813.1813023213817
 20
759.5006543681154
 30
0.0
 11
813.6975874117649
 21
759.6077061247504
 31
0.0
  0
LINE
  5
199
330
17
100
AcDbEntity
  8
0
100
AcDbLine
 10
813.6975874117649
 20
759.6077061247504
 30
0.0
 11
814.2044288765311
 21
759.7530405760828
 31
0.0
  0
LINE
  5
19A
330
17
100
AcDbEntity
  8
0
100
AcDbLine
 10
814.2044288765311
 20
759.7530405760828
 30
0.0
 11
814.6989922526153
 21
759.9358449529091
 31
0.0
  0
LINE
  5
19B
330
17
100
AcDbEntity
  8
0
100
AcDbLine
 10
814.6989922526153
 20
759.9358449529091
 30
0.0
 11
815.178511741005
 21
760.1550969390008
 31
0.0
  0
LINE
  5
19C
330
17
100
AcDbEntity
  8
0
100
AcDbLine
 10
815.178511741005
 20
760.1550969390008
 30
0.0
 11
815.6403056742099
 21
760.4095703883143
 31
0.0
  0
LINE
  5
19D
330
17
100
AcDbEntity
  8
0
100
AcDbLine
 10
815.6403056742099
 20
760.4095703883143
 30
0.0
 11
816.0817915132347
 21
760.6978421820975
 31
0.0
  0
LINE
  5
19E
330
17
100
AcDbEntity
  8
0
100
AcDbLine
 10
816.0817915132347
 20
760.6978421820975
 30
0.0
 11
816.5005002901843
 21
761.0183001875457
 31
0.0
  0
LINE
  5
19F
330
17
100
AcDbEntity
  8
0
100
AcDbLine
 10
816.5005002901843
 20
761.0183001875457
 30
0.0
 11
816.8940904157336
 21
761.3691522735032
 31
0.0
  0
LINE
  5
1A0
330
17
100
AcDbEntity
  8
0
100
AcDbLine
 10
816.8940904157336
 20
761.3691522735032
 30
0.0
 11
817.2603607742459
 21
761.7484363327861
 31
0.0
  0
LINE
  5
1A1
330
17
100
AcDbEntity
  8
0
100
AcDbLine
 10
817.2603607742459
 20
761.7484363327861
 30
0.0
 11
817.5972630333034
 21
762.1540312550819
 31
0.0
  0
LINE
  5
1A2
330
17
100
AcDbEntity
  8
0
100
AcDbLine
 10
817.5972630333034
 20
762.1540312550819
 30
0.0
 11
817.902913098813
 21
762.5836687890619
 31
0.0
  0
LINE
  5
1A3
330
17
100
AcDbEntity
  8
0
100
AcDbLine
 10
817.902913098813
 20
762.5836687890619
 30
0.0
 11
818.1756016516251
 21
763.0349462273589
 31
0.0
  0
LINE
  5
1A4
330
17
100
AcDbEntity
  8
0
100
AcDbLine
 10
818.1756016516251
 20
763.0349462273589
 30
0.0
 11
818.41380370674
 21
763.5053398434827
 31
0.0
  0
LINE
  5
1A5
330
17
100
AcDbEntity
  8
0
100
AcDbLine
 10
818.41380370674
 20
763.5053398434827
 30
0.0
 11
818.6161871416416
 21
763.9922190055217
 31
0.0
  0
LINE
  5
1A6
330
17
100
AcDbEntity
  8
0
100
AcDbLine
 10
818.6161871416416
 20
763.9922190055217
 30
0.0
 11
818.7816201460676
 21
764.492860887706
 31
0.0
  0
LINE
  5
1A7
330
17
100
AcDbEntity
  8
0
100
AcDbLine
 10
818.7816201460676
 20
764.492860887706
 30
0.0
 11
818.9091775515512
 21
765.0044656975508
 31
0.0
  0
LINE
  5
1A8
330
17
100
AcDbEntity
  8
0
100
AcDbLine
 10
818.9091775515512
 20
765.0044656975508
 30
0.0
 11
818.9981460053391
 21
765.5241723334345
 31
0.0
  0
LINE
  5
1A9
330
17
100
AcDbEntity
  8
0
100
AcDbLine
 10
818.9981460053391
 20
765.5241723334345
 30
0.0
 11
819.0480279597488
 21
766.0490743850353
 31
0.0
  0
LINE
  5
1AA
330
17
100
AcDbEntity
  8
0
100
AcDbLine
 10
819.0480279597488
 20
766.0490743850353
 30
0.0
 11
819.0585444546568
 21
766.5762363871613
 31
0.0
  0
LINE
  5
1AB
330
17
100
AcDbEntity
  8
0
100
AcDbLine
 10
645.1836295215139
 20
1117.92592162278
 30
0.0
 11
645.1547217444155
 21
1118.4523954716774
 31
0.0
  0
LINE
  5
1AC
330
17
100
AcDbEntity
  8
0
100
AcDbLine
 10
645.1547217444155
 20
1118.4523954716774
 30
0.0
 11
645.0865513593255
 21
1118.975236912028
 31
0.0
  0
LINE
  5
1AD
330
17
100
AcDbEntity
  8
0
100
AcDbLine
 10
645.0865513593255
 20
1118.975236912028
 30
0.0
 11
644.9794996026908
 21
1119.4915220024109
 31
0.0
  0
LINE
  5
1AE
330
17
100
AcDbEntity
  8
0
100
AcDbLine
 10
644.9794996026908
 20
1119.4915220024109
 30
0.0
 11
644.8341651513576
 21
1119.998363467177
 31
0.0
  0
LINE
  5
1AF
330
17
100
AcDbEntity
  8
0
100
AcDbLine
 10
644.8341651513576
 20
1119.998363467177
 30
0.0
 11
644.6513607745318
 21
1120.4929268432609
 31
0.0
  0
LINE
  5
1B0
330
17
100
AcDbEntity
  8
0
100
AcDbLine
 10
644.6513607745318
 20
1120.4929268432609
 30
0.0
 11
644.4321087884406
 21
1120.9724463316516
 31
0.0
  0
LINE
  5
1B1
330
17
100
AcDbEntity
  8
0
100
AcDbLine
 10
644.4321087884406
 20
1120.9724463316516
 30
0.0
 11
644.1776353391268
 21
1121.4342402648565
 31
0.0
  0
LINE
  5
1B2
330
17
100
AcDbEntity
  8
0
100
AcDbLine
 10
644.1776353391268
 20
1121.4342402648565
 30
0.0
 11
643.8893635453434
 21
1121.8757261038807
 31
0.0
  0
LINE
  5
1B3
330
17
100
AcDbEntity
  8
0
100
AcDbLine
 10
643.8893635453434
 20
1121.8757261038807
 30
0.0
 11
643.5689055398951
 21
1122.2944348808303
 31
0.0
  0
LINE
  5
1B4
330
17
100
AcDbEntity
  8
0
100
AcDbLine
 10
643.5689055398951
 20
1122.2944348808303
 30
0.0
 11
643.2180534539377
 21
1122.6880250063796
 31
0.0
  0
LINE
  5
1B5
330
17
100
AcDbEntity
  8
0
100
AcDbLine
 10
643.2180534539377
 20
1122.6880250063796
 30
0.0
 11
642.8387693946554
 21
1123.0542953648926
 31
0.0
  0
LINE
  5
1B6
330
17
100
AcDbEntity
  8
0
100
AcDbLine
 10
642.8387693946554
 20
1123.0542953648926
 30
0.0
 11
642.433174472359
 21
1123.3911976239492
 31
0.0
  0
LINE
  5
1B7
330
17
100
AcDbEntity
  8
0
100
AcDbLine
 10
642.433174472359
 20
1123.3911976239492
 30
0.0
 11
642.0035369383789
 21
1123.6968476894594
 31
0.0
  0
LINE
  5
1B8
330
17
100
AcDbEntity
  8
0
100
AcDbLine
 10
642.0035369383789
 20
1123.6968476894594
 30
0.0
 11
641.5522595000821
 21
1123.969536242271
 31
0.0
  0
LINE
  5
1B9
330
17
100
AcDbEntity
  8
0
100
AcDbLine
 10
641.5522595000821
 20
1123.969536242271
 30
0.0
 11
641.0818658839587
 21
1124.2077382973862
 31
0.0
  0
LINE
  5
1BA
330
17
100
AcDbEntity
  8
0
100
AcDbLine
 10
641.0818658839587
 20
1124.2077382973862
 30
0.0
 11
640.5949867219194
 21
1124.4101217322873
 31
0.0
  0
LINE
  5
1BB
330
17
100
AcDbEntity
  8
0
100
AcDbLine
 10
640.5949867219194
 20
1124.4101217322873
 30
0.0
 11
640.0943448397351
 21
1124.575554736714
 31
0.0
  0
LINE
  5
1BC
330
17
100
AcDbEntity
  8
0
100
AcDbLine
 10
640.0943448397351
 20
1124.575554736714
 30
0.0
 11
639.5827400298899
 21
1124.7031121421976
 31
0.0
  0
LINE
  5
1BD
330
17
100
AcDbEntity
  8
0
100
AcDbLine
 10
639.5827400298899
 20
1124.7031121421976
 30
0.0
 11
639.0630333940065
 21
1124.7920805959855
 31
0.0
  0
LINE
  5
1BE
330
17
100
AcDbEntity
  8
0
100
AcDbLine
 10
639.0630333940065
 20
1124.7920805959855
 30
0.0
 11
638.5381313424057
 21
1124.8419625503948
 31
0.0
  0
LINE
  5
1BF
330
17
100
AcDbEntity
  8
0
100
AcDbLine
 10
638.5381313424057
 20
1124.8419625503948
 30
0.0
 11
638.0109693402799
 21
1124.8524790453027
 31
0.0
  0
LINE
  5
1C0
330
17
100
AcDbEntity
  8
0
100
AcDbLine
 10
638.0109693402799
 20
1124.8524790453027
 30
0.0
 11
637.4844954913816
 21
1124.8235712682044
 31
0.0
  0
LINE
  5
1C1
330
17
100
AcDbEntity
  8
0
100
AcDbLine
 10
637.4844954913816
 20
1124.8235712682044
 30
0.0
 11
636.9616540510315
 21
1124.755400883115
 31
0.0
  0
LINE
  5
1C2
330
17
100
AcDbEntity
  8
0
100
AcDbLine
 10
636.9616540510315
 20
1124.755400883115
 30
0.0
 11
636.4453689606485
 21
1124.64834912648
 31
0.0
  0
LINE
  5
1C3
330
17
100
AcDbEntity
  8
0
100
AcDbLine
 10
636.4453689606485
 20
1124.64834912648
 30
0.0
 11
635.9385274958822
 21
1124.5030146751471
 31
0.0
  0
LINE
  5
1C4
330
17
100
AcDbEntity
  8
0
100
AcDbLine
 10
635.9385274958822
 20
1124.5030146751471
 30
0.0
 11
635.4439641197981
 21
1124.3202102983205
 31
0.0
  0
LINE
  5
1C5
330
17
100
AcDbEntity
  8
0
100
AcDbLine
 10
635.4439641197981
 20
1124.3202102983205
 30
0.0
 11
634.9644446314085
 21
1124.1009583122297
 31
0.0
  0
LINE
  5
1C6
330
17
100
AcDbEntity
  8
0
100
AcDbLine
 10
634.9644446314085
 20
1124.1009583122297
 30
0.0
 11
634.5026506982033
 21
1123.8464848629158
 31
0.0
  0
LINE
  5
1C7
330
17
100
AcDbEntity
  8
0
100
AcDbLine
 10
634.5026506982033
 20
1123.8464848629158
 30
0.0
 11
634.0611648591786
 21
1123.558213069133
 31
0.0
  0
LINE
  5
1C8
330
17
100
AcDbEntity
  8
0
100
AcDbLine
 10
634.0611648591786
 20
1123.558213069133
 30
0.0
 11
633.6424560822289
 21
1123.2377550636838
 31
0.0
  0
LINE
  5
1C9
330
17
100
AcDbEntity
  8
0
100
AcDbLine
 10
633.6424560822289
 20
1123.2377550636838
 30
0.0
 11
633.2488659566798
 21
1122.8869029777272
 31
0.0
  0
LINE
  5
1CA
330
17
100
AcDbEntity
  8
0
100
AcDbLine
 10
633.2488659566798
 20
1122.8869029777272
 30
0.0
 11
632.8825955981672
 21
1122.5076189184442
 31
0.0
  0
LINE
  5
1CB
330
17
100
AcDbEntity
  8
0
100
AcDbLine
 10
632.8825955981672
 20
1122.5076189184442
 30
0.0
 11
632.5456933391097
 21
1122.102023996148
 31
0.0
  0
LINE
  5
1CC
330
17
100
AcDbEntity
  8
0
100
AcDbLine
 10
632.5456933391097
 20
1122.102023996148
 30
0.0
 11
632.2400432736002
 21
1121.6723864621679
 31
0.0
  0
LINE
  5
1CD
330
17
100
AcDbEntity
  8
0
100
AcDbLine
 10
632.2400432736002
 20
1121.6723864621679
 30
0.0
 11
631.9673547207881
 21
1121.2211090238716
 31
0.0
  0
LINE
  5
1CE
330
17
100
AcDbEntity
  8
0
100
AcDbLine
 10
631.9673547207881
 20
1121.2211090238716
 30
0.0
 11
631.7291526656733
 21
1120.7507154077484
 31
0.0
  0
LINE
  5
1CF
330
17
100
AcDbEntity
  8
0
100
AcDbLine
 10
631.7291526656733
 20
1120.7507154077484
 30
0.0
 11
631.5267692307717
 21
1120.2638362457083
 31
0.0
  0
LINE
  5
1D0
330
17
100
AcDbEntity
  8
0
100
AcDbLine
 10
631.5267692307717
 20
1120.2638362457083
 30
0.0
 11
631.3613362263457
 21
1119.763194363524
 31
0.0
  0
LINE
  5
1D1
330
17
100
AcDbEntity
  8
0
100
AcDbLine
 10
631.3613362263457
 20
1119.763194363524
 30
0.0
 11
631.233778820862
 21
1119.251589553679
 31
0.0
  0
LINE
  5
1D2
330
17
100
AcDbEntity
  8
0
100
AcDbLine
 10
631.233778820862
 20
1119.251589553679
 30
0.0
 11
631.1448103670741
 21
1118.731882917796
 31
0.0
  0
LINE
  5
1D3
330
17
100
AcDbEntity
  8
0
100
AcDbLine
 10
631.1448103670741
 20
1118.731882917796
 30
0.0
 11
631.0949284126647
 21
1118.2069808661943
 31
0.0
  0
LINE
  5
1D4
330
17
100
AcDbEntity
  8
0
100
AcDbLine
 10
631.0949284126647
 20
1118.2069808661943
 30
0.0
 11
631.0844119177564
 21
1117.6798188640694
 31
0.0
  0
LINE
  5
1D5
330
17
100
AcDbEntity
  8
0
100
AcDbLine
 10
631.0844119177564
 20
1117.6798188640694
 30
0.0
 11
631.1133196948549
 21
1117.1533450151705
 31
0.0
  0
LINE
  5
1D6
330
17
100
AcDbEntity
  8
0
100
AcDbLine
 10
631.1133196948549
 20
1117.1533450151705
 30
0.0
 11
631.1814900799445
 21
1116.630503574821
 31
0.0
  0
LINE
  5
1D7
330
17
100
AcDbEntity
  8
0
100
AcDbLine
 10
631.1814900799445
 20
1116.630503574821
 30
0.0
 11
631.2885418365795
 21
1116.1142184844375
 31
0.0
  0
LINE
  5
1D8
330
17
100
AcDbEntity
  8
0
100
AcDbLine
 10
631.2885418365795
 20
1116.1142184844375
 30
0.0
 11
631.4338762879124
 21
1115.6073770196713
 31
0.0
  0
LINE
  5
1D9
330
17
100
AcDbEntity
  8
0
100
AcDbLine
 10
631.4338762879124
 20
1115.6073770196713
 30
0.0
 11
631.6166806647384
 21
1115.1128136435873
 31
0.0
  0
LINE
  5
1DA
330
17
100
AcDbEntity
  8
0
100
AcDbLine
 10
631.6166806647384
 20
1115.1128136435873
 30
0.0
 11
631.8359326508298
 21
1114.6332941551977
 31
0.0
  0
LINE
  5
1DB
330
17
100
AcDbEntity
  8
0
100
AcDbLine
 10
631.8359326508298
 20
1114.6332941551977
 30
0.0
 11
632.0904061001435
 21
1114.1715002219926
 31
0.0
  0
LINE
  5
1DC
330
17
100
AcDbEntity
  8
0
100
AcDbLine
 10
632.0904061001435
 20
1114.1715002219926
 30
0.0
 11
632.3786778939268
 21
1113.730014382968
 31
0.0
  0
LINE
  5
1DD
330
17
100
AcDbEntity
  8
0
100
AcDbLine
 10
632.3786778939268
 20
1113.730014382968
 30
0.0
 11
632.699135899375
 21
1113.3113056060183
 31
0.0
  0
LINE
  5
1DE
330
17
100
AcDbEntity
  8
0
100
AcDbLine
 10
632.699135899375
 20
1113.3113056060183
 30
0.0
 11
633.0499879853325
 21
1112.917715480469
 31
0.0
  0
LINE
  5
1DF
330
17
100
AcDbEntity
  8
0
100
AcDbLine
 10
633.0499879853325
 20
1112.917715480469
 30
0.0
 11
633.4292720446151
 21
1112.5514451219567
 31
0.0
  0
LINE
  5
1E0
330
17
100
AcDbEntity
  8
0
100
AcDbLine
 10
633.4292720446151
 20
1112.5514451219567
 30
0.0
 11
633.8348669669111
 21
1112.2145428628994
 31
0.0
  0
LINE
  5
1E1
330
17
100
AcDbEntity
  8
0
100
AcDbLine
 10
633.8348669669111
 20
1112.2145428628994
 30
0.0
 11
634.2645045008915
 21
1111.9088927973896
 31
0.0
  0
LINE
  5
1E2
330
17
100
AcDbEntity
  8
0
100
AcDbLine
 10
634.2645045008915
 20
1111.9088927973896
 30
0.0
 11
634.7157819391881
 21
1111.6362042445771
 31
0.0
  0
LINE
  5
1E3
330
17
100
AcDbEntity
  8
0
100
AcDbLine
 10
634.7157819391881
 20
1111.6362042445771
 30
0.0
 11
635.1861755553117
 21
1111.3980021894624
 31
0.0
  0
LINE
  5
1E4
330
17
100
AcDbEntity
  8
0
100
AcDbLine
 10
635.1861755553117
 20
1111.3980021894624
 30
0.0
 11
635.6730547173509
 21
1111.1956187545604
 31
0.0
  0
LINE
  5
1E5
330
17
100
AcDbEntity
  8
0
100
AcDbLine
 10
635.6730547173509
 20
1111.1956187545604
 30
0.0
 11
636.1736965995351
 21
1111.0301857501347
 31
0.0
  0
LINE
  5
1E6
330
17
100
AcDbEntity
  8
0
100
AcDbLine
 10
636.1736965995351
 20
1111.0301857501347
 30
0.0
 11
636.6853014093805
 21
1110.9026283446515
 31
0.0
  0
LINE
  5
1E7
330
17
100
AcDbEntity
  8
0
100
AcDbLine
 10
636.6853014093805
 20
1110.9026283446515
 30
0.0
 11
637.2050080452636
 21
1110.8136598908636
 31
0.0
  0
LINE
  5
1E8
330
17
100
AcDbEntity
  8
0
100
AcDbLine
 10
637.2050080452636
 20
1110.8136598908636
 30
0.0
 11
637.7299100968646
 21
1110.763777936453
 31
0.0
  0
LINE
  5
1E9
330
17
100
AcDbEntity
  8
0
100
AcDbLine
 10
637.7299100968646
 20
1110.763777936453
 30
0.0
 11
638.2570720989905
 21
1110.7532614415445
 31
0.0
  0
LINE
  5
1EA
330
17
100
AcDbEntity
  8
0
100
AcDbLine
 10
638.2570720989905
 20
1110.7532614415445
 30
0.0
 11
638.7835459478887
 21
1110.7821692186433
 31
0.0
  0
LINE
  5
1EB
330
17
100
AcDbEntity
  8
0
100
AcDbLine
 10
638.7835459478887
 20
1110.7821692186433
 30
0.0
 11
639.3063873882386
 21
1110.850339603734
 31
0.0
  0
LINE
  5
1EC
330
17
100
AcDbEntity
  8
0
100
AcDbLine
 10
639.3063873882386
 20
1110.850339603734
 30
0.0
 11
639.8226724786219
 21
1110.957391360369
 31
0.0
  0
LINE
  5
1ED
330
17
100
AcDbEntity
  8
0
100
AcDbLine
 10
639.8226724786219
 20
1110.957391360369
 30
0.0
 11
640.329513943388
 21
1111.1027258117015
 31
0.0
  0
LINE
  5
1EE
330
17
100
AcDbEntity
  8
0
100
AcDbLine
 10
640.329513943388
 20
1111.1027258117015
 30
0.0
 11
640.8240773194722
 21
1111.2855301885272
 31
0.0
  0
LINE
  5
1EF
330
17
100
AcDbEntity
  8
0
100
AcDbLine
 10
640.8240773194722
 20
1111.2855301885272
 30
0.0
 11
641.3035968078619
 21
1111.504782174619
 31
0.0
  0
LINE
  5
1F0
330
17
100
AcDbEntity
  8
0
100
AcDbLine
 10
641.3035968078619
 20
1111.504782174619
 30
0.0
 11
641.7653907410669
 21
1111.7592556239324
 31
0.0
  0
LINE
  5
1F1
330
17
100
AcDbEntity
  8
0
100
AcDbLine
 10
641.7653907410669
 20
1111.7592556239324
 30
0.0
 11
642.2068765800918
 21
1112.047527417716
 31
0.0
  0
LINE
  5
1F2
330
17
100
AcDbEntity
  8
0
100
AcDbLine
 10
642.2068765800918
 20
1112.047527417716
 30
0.0
 11
642.6255853570412
 21
1112.3679854231648
 31
0.0
  0
LINE
  5
1F3
330
17
100
AcDbEntity
  8
0
100
AcDbLine
 10
642.6255853570412
 20
1112.3679854231648
 30
0.0
 11
643.0191754825908
 21
1112.7188375091218
 31
0.0
  0
LINE
  5
1F4
330
17
100
AcDbEntity
  8
0
100
AcDbLine
 10
643.0191754825908
 20
1112.7188375091218
 30
0.0
 11
643.385445841103
 21
1113.0981215684044
 31
0.0
  0
LINE
  5
1F5
330
17
100
AcDbEntity
  8
0
100
AcDbLine
 10
643.385445841103
 20
1113.0981215684044
 30
0.0
 11
643.7223481001605
 21
1113.5037164907005
 31
0.0
  0
LINE
  5
1F6
330
17
100
AcDbEntity
  8
0
100
AcDbLine
 10
643.7223481001605
 20
1113.5037164907005
 30
0.0
 11
644.0279981656699
 21
1113.933354024681
 31
0.0
  0
LINE
  5
1F7
330
17
100
AcDbEntity
  8
0
100
AcDbLine
 10
644.0279981656699
 20
1113.933354024681
 30
0.0
 11
644.3006867184822
 21
1114.3846314629775
 31
0.0
  0
LINE
  5
1F8
330
17
100
AcDbEntity
  8
0
100
AcDbLine
 10
644.3006867184822
 20
1114.3846314629775
 30
0.0
 11
644.5388887735971
 21
1114.8550250791009
 31
0.0
  0
LINE
  5
1F9
330
17
100
AcDbEntity
  8
0
100
AcDbLine
 10
644.5388887735971
 20
1114.8550250791009
 30
0.0
 11
644.7412722084985
 21
1115.34190424114
 31
0.0
  0
LINE
  5
1FA
330
17
100
AcDbEntity
  8
0
100
AcDbLine
 10
644.7412722084985
 20
1115.34190424114
 30
0.0
 11
644.9067052129244
 21
1115.8425461233242
 31
0.0
  0
LINE
  5
1FB
330
17
100
AcDbEntity
  8
0
100
AcDbLine
 10
644.9067052129244
 20
1115.8425461233242
 30
0.0
 11
645.0342626184083
 21
1116.3541509331694
 31
0.0
  0
LINE
  5
1FC
330
17
100
AcDbEntity
  8
0
100
AcDbLine
 10
645.0342626184083
 20
1116.3541509331694
 30
0.0
 11
645.123231072196
 21
1116.8738575690531
 31
0.0
  0
LINE
  5
1FD
330
17
100
AcDbEntity
  8
0
100
AcDbLine
 10
645.123231072196
 20
1116.8738575690531
 30
0.0
 11
645.1731130266057
 21
1117.3987596206534
 31
0.0
  0
LINE
  5
1FE
330
17
100
AcDbEntity
  8
0
100
AcDbLine
 10
645.1731130266057
 20
1117.3987596206534
 30
0.0
 11
645.1836295215139
 21
1117.92592162278
 31
0.0
  0
LINE
  5
1FF
330
17
100
AcDbEntity
  8
0
100
AcDbLine
 10
387.0895014068165
 20
1692.2491876953782
 30
0.0
 11
387.0605936297181
 21
1692.7756615442763
 31
0.0
  0
LINE
  5
200
330
17
100
AcDbEntity
  8
0
100
AcDbLine
 10
387.0605936297181
 20
1692.7756615442763
 30
0.0
 11
386.9924232446283
 21
1693.298502984626
 31
0.0
  0
LINE
  5
201
330
17
100
AcDbEntity
  8
0
100
AcDbLine
 10
386.9924232446283
 20
1693.298502984626
 30
0.0
 11
386.8853714879932
 21
1693.8147880750098
 31
0.0
  0
LINE
  5
202
330
17
100
AcDbEntity
  8
0
100
AcDbLine
 10
386.8853714879932
 20
1693.8147880750098
 30
0.0
 11
386.74003703666034
 21
1694.3216295397751
 31
0.0
  0
LINE
  5
203
330
17
100
AcDbEntity
  8
0
100
AcDbLine
 10
386.74003703666034
 20
1694.3216295397751
 30
0.0
 11
386.5572326598345
 21
1694.8161929158596
 31
0.0
  0
LINE
  5
204
330
17
100
AcDbEntity
  8
0
100
AcDbLine
 10
386.5572326598345
 20
1694.8161929158596
 30
0.0
 11
386.33798067374323
 21
1695.2957124042487
 31
0.0
  0
LINE
  5
205
330
17
100
AcDbEntity
  8
0
100
AcDbLine
 10
386.33798067374323
 20
1695.2957124042487
 30
0.0
 11
386.08350722442947
 21
1695.7575063374547
 31
0.0
  0
LINE
  5
206
330
17
100
AcDbEntity
  8
0
100
AcDbLine
 10
386.08350722442947
 20
1695.7575063374547
 30
0.0
 11
385.7952354306459
 21
1696.1989921764784
 31
0.0
  0
LINE
  5
207
330
17
100
AcDbEntity
  8
0
100
AcDbLine
 10
385.7952354306459
 20
1696.1989921764784
 30
0.0
 11
385.47477742519766
 21
1696.6177009534285
 31
0.0
  0
LINE
  5
208
330
17
100
AcDbEntity
  8
0
100
AcDbLine
 10
385.47477742519766
 20
1696.6177009534285
 30
0.0
 11
385.1239253392404
 21
1697.0112910789783
 31
0.0
  0
LINE
  5
209
330
17
100
AcDbEntity
  8
0
100
AcDbLine
 10
385.1239253392404
 20
1697.0112910789783
 30
0.0
 11
384.744641279958
 21
1697.3775614374906
 31
0.0
  0
LINE
  5
20A
330
17
100
AcDbEntity
  8
0
100
AcDbLine
 10
384.744641279958
 20
1697.3775614374906
 30
0.0
 11
384.33904635766146
 21
1697.7144636965481
 31
0.0
  0
LINE
  5
20B
330
17
100
AcDbEntity
  8
0
100
AcDbLine
 10
384.33904635766146
 20
1697.7144636965481
 30
0.0
 11
383.9094088236815
 21
1698.0201137620568
 31
0.0
  0
LINE
  5
20C
330
17
100
AcDbEntity
  8
0
100
AcDbLine
 10
383.9094088236815
 20
1698.0201137620568
 30
0.0
 11
383.4581313853848
 21
1698.2928023148684
 31
0.0
  0
LINE
  5
20D
330
17
100
AcDbEntity
  8
0
100
AcDbLine
 10
383.4581313853848
 20
1698.2928023148684
 30
0.0
 11
382.98773776926123
 21
1698.5310043699844
 31
0.0
  0
LINE
  5
20E
330
17
100
AcDbEntity
  8
0
100
AcDbLine
 10
382.98773776926123
 20
1698.5310043699844
 30
0.0
 11
382.5008586072222
 21
1698.7333878048858
 31
0.0
  0
LINE
  5
20F
330
17
100
AcDbEntity
  8
0
100
AcDbLine
 10
382.5008586072222
 20
1698.7333878048858
 30
0.0
 11
382.0002167250379
 21
1698.8988208093112
 31
0.0
  0
LINE
  5
210
330
17
100
AcDbEntity
  8
0
100
AcDbLine
 10
382.0002167250379
 20
1698.8988208093112
 30
0.0
 11
381.48861191519245
 21
1699.026378214795
 31
0.0
  0
LINE
  5
211
330
17
100
AcDbEntity
  8
0
100
AcDbLine
 10
381.48861191519245
 20
1699.026378214795
 30
0.0
 11
380.96890527930924
 21
1699.1153466685832
 31
0.0
  0
LINE
  5
212
330
17
100
AcDbEntity
  8
0
100
AcDbLine
 10
380.96890527930924
 20
1699.1153466685832
 30
0.0
 11
380.4440032277084
 21
1699.1652286229928
 31
0.0
  0
LINE
  5
213
330
17
100
AcDbEntity
  8
0
100
AcDbLine
 10
380.4440032277084
 20
1699.1652286229928
 30
0.0
 11
379.9168412255824
 21
1699.175745117901
 31
0.0
  0
LINE
  5
214
330
17
100
AcDbEntity
  8
0
100
AcDbLine
 10
379.9168412255824
 20
1699.175745117901
 30
0.0
 11
379.3903673766842
 21
1699.1468373408024
 31
0.0
  0
LINE
  5
215
330
17
100
AcDbEntity
  8
0
100
AcDbLine
 10
379.3903673766842
 20
1699.1468373408024
 30
0.0
 11
378.8675259363342
 21
1699.0786669557126
 31
0.0
  0
LINE
  5
216
330
17
100
AcDbEntity
  8
0
100
AcDbLine
 10
378.8675259363342
 20
1699.0786669557126
 30
0.0
 11
378.351240845951
 21
1698.9716151990774
 31
0.0
  0
LINE
  5
217
330
17
100
AcDbEntity
  8
0
100
AcDbLine
 10
378.351240845951
 20
1698.9716151990774
 30
0.0
 11
377.8443993811849
 21
1698.8262807477445
 31
0.0
  0
LINE
  5
218
330
17
100
AcDbEntity
  8
0
100
AcDbLine
 10
377.8443993811849
 20
1698.8262807477445
 30
0.0
 11
377.34983600510066
 21
1698.6434763709192
 31
0.0
  0
LINE
  5
219
330
17
100
AcDbEntity
  8
0
100
AcDbLine
 10
377.34983600510066
 20
1698.6434763709192
 30
0.0
 11
376.870316516711
 21
1698.424224384828
 31
0.0
  0
LINE
  5
21A
330
17
100
AcDbEntity
  8
0
100
AcDbLine
 10
376.870316516711
 20
1698.424224384828
 30
0.0
 11
376.40852258350577
 21
1698.169750935513
 31
0.0
  0
LINE
  5
21B
330
17
100
AcDbEntity
  8
0
100
AcDbLine
 10
376.40852258350577
 20
1698.169750935513
 30
0.0
 11
375.9670367444812
 21
1697.8814791417303
 31
0.0
  0
LINE
  5
21C
330
17
100
AcDbEntity
  8
0
100
AcDbLine
 10
375.9670367444812
 20
1697.8814791417303
 30
0.0
 11
375.5483279675317
 21
1697.5610211362828
 31
0.0
  0
LINE
  5
21D
330
17
100
AcDbEntity
  8
0
100
AcDbLine
 10
375.5483279675317
 20
1697.5610211362828
 30
0.0
 11
375.1547378419821
 21
1697.2101690503255
 31
0.0
  0
LINE
  5
21E
330
17
100
AcDbEntity
  8
0
100
AcDbLine
 10
375.1547378419821
 20
1697.2101690503255
 30
0.0
 11
374.78846748346984
 21
1696.8308849910431
 31
0.0
  0
LINE
  5
21F
330
17
100
AcDbEntity
  8
0
100
AcDbLine
 10
374.78846748346984
 20
1696.8308849910431
 30
0.0
 11
374.45156522441255
 21
1696.425290068746
 31
0.0
  0
LINE
  5
220
330
17
100
AcDbEntity
  8
0
100
AcDbLine
 10
374.45156522441255
 20
1696.425290068746
 30
0.0
 11
374.1459151589029
 21
1695.9956525347654
 31
0.0
  0
LINE
  5
221
330
17
100
AcDbEntity
  8
0
100
AcDbLine
 10
374.1459151589029
 20
1695.9956525347654
 30
0.0
 11
373.8732266060907
 21
1695.5443750964698
 31
0.0
  0
LINE
  5
222
330
17
100
AcDbEntity
  8
0
100
AcDbLine
 10
373.8732266060907
 20
1695.5443750964698
 30
0.0
 11
373.6350245509758
 21
1695.0739814803455
 31
0.0
  0
LINE
  5
223
330
17
100
AcDbEntity
  8
0
100
AcDbLine
 10
373.6350245509758
 20
1695.0739814803455
 30
0.0
 11
373.4326411160743
 21
1694.5871023183067
 31
0.0
  0
LINE
  5
224
330
17
100
AcDbEntity
  8
0
100
AcDbLine
 10
373.4326411160743
 20
1694.5871023183067
 30
0.0
 11
373.2672081116486
 21
1694.0864604361223
 31
0.0
  0
LINE
  5
225
330
17
100
AcDbEntity
  8
0
100
AcDbLine
 10
373.2672081116486
 20
1694.0864604361223
 30
0.0
 11
373.1396507061646
 21
1693.574855626278
 31
0.0
  0
LINE
  5
226
330
17
100
AcDbEntity
  8
0
100
AcDbLine
 10
373.1396507061646
 20
1693.574855626278
 30
0.0
 11
373.05068225237676
 21
1693.0551489903942
 31
0.0
  0
LINE
  5
227
330
17
100
AcDbEntity
  8
0
100
AcDbLine
 10
373.05068225237676
 20
1693.0551489903942
 30
0.0
 11
373.00080029796726
 21
1692.5302469387934
 31
0.0
  0
LINE
  5
228
330
17
100
AcDbEntity
  8
0
100
AcDbLine
 10
373.00080029796726
 20
1692.5302469387934
 30
0.0
 11
372.99028380305896
 21
1692.0030849366674
 31
0.0
  0
LINE
  5
229
330
17
100
AcDbEntity
  8
0
100
AcDbLine
 10
372.99028380305896
 20
1692.0030849366674
 30
0.0
 11
373.01919158015755
 21
1691.476611087769
 31
0.0
  0
LINE
  5
22A
330
17
100
AcDbEntity
  8
0
100
AcDbLine
 10
373.01919158015755
 20
1691.476611087769
 30
0.0
 11
373.0873619652472
 21
1690.9537696474192
 31
0.0
  0
LINE
  5
22B
330
17
100
AcDbEntity
  8
0
100
AcDbLine
 10
373.0873619652472
 20
1690.9537696474192
 30
0.0
 11
373.1944137218822
 21
1690.4374845570355
 31
0.0
  0
LINE
  5
22C
330
17
100
AcDbEntity
  8
0
100
AcDbLine
 10
373.1944137218822
 20
1690.4374845570355
 30
0.0
 11
373.3397481732153
 21
1689.9306430922704
 31
0.0
  0
LINE
  5
22D
330
17
100
AcDbEntity
  8
0
100
AcDbLine
 10
373.3397481732153
 20
1689.9306430922704
 30
0.0
 11
373.52255255004104
 21
1689.4360797161858
 31
0.0
  0
LINE
  5
22E
330
17
100
AcDbEntity
  8
0
100
AcDbLine
 10
373.52255255004104
 20
1689.4360797161858
 30
0.0
 11
373.74180453613235
 21
1688.9565602277949
 31
0.0
  0
LINE
  5
22F
330
17
100
AcDbEntity
  8
0
100
AcDbLine
 10
373.74180453613235
 20
1688.9565602277949
 30
0.0
 11
373.99627798544606
 21
1688.4947662945904
 31
0.0
  0
LINE
  5
230
330
17
100
AcDbEntity
  8
0
100
AcDbLine
 10
373.99627798544606
 20
1688.4947662945904
 30
0.0
 11
374.2845497792294
 21
1688.0532804555655
 31
0.0
  0
LINE
  5
231
330
17
100
AcDbEntity
  8
0
100
AcDbLine
 10
374.2845497792294
 20
1688.0532804555655
 30
0.0
 11
374.605007784678
 21
1687.6345716786163
 31
0.0
  0
LINE
  5
232
330
17
100
AcDbEntity
  8
0
100
AcDbLine
 10
374.605007784678
 20
1687.6345716786163
 30
0.0
 11
374.9558598706351
 21
1687.240981553066
 31
0.0
  0
LINE
  5
233
330
17
100
AcDbEntity
  8
0
100
AcDbLine
 10
374.9558598706351
 20
1687.240981553066
 30
0.0
 11
375.3351439299174
 21
1686.8747111945547
 31
0.0
  0
LINE
  5
234
330
17
100
AcDbEntity
  8
0
100
AcDbLine
 10
375.3351439299174
 20
1686.8747111945547
 30
0.0
 11
375.74073885221395
 21
1686.5378089354972
 31
0.0
  0
LINE
  5
235
330
17
100
AcDbEntity
  8
0
100
AcDbLine
 10
375.74073885221395
 20
1686.5378089354972
 30
0.0
 11
376.1703763861941
 21
1686.2321588699874
 31
0.0
  0
LINE
  5
236
330
17
100
AcDbEntity
  8
0
100
AcDbLine
 10
376.1703763861941
 20
1686.2321588699874
 30
0.0
 11
376.62165382449064
 21
1685.9594703171751
 31
0.0
  0
LINE
  5
237
330
17
100
AcDbEntity
  8
0
100
AcDbLine
 10
376.62165382449064
 20
1685.9594703171751
 30
0.0
 11
377.09204744061424
 21
1685.7212682620598
 31
0.0
  0
LINE
  5
238
330
17
100
AcDbEntity
  8
0
100
AcDbLine
 10
377.09204744061424
 20
1685.7212682620598
 30
0.0
 11
377.5789266026533
 21
1685.5188848271591
 31
0.0
  0
LINE
  5
239
330
17
100
AcDbEntity
  8
0
100
AcDbLine
 10
377.5789266026533
 20
1685.5188848271591
 30
0.0
 11
378.07956848483775
 21
1685.353451822733
 31
0.0
  0
LINE
  5
23A
330
17
100
AcDbEntity
  8
0
100
AcDbLine
 10
378.07956848483775
 20
1685.353451822733
 30
0.0
 11
378.59117329468296
 21
1685.2258944172493
 31
0.0
  0
LINE
  5
23B
330
17
100
AcDbEntity
  8
0
100
AcDbLine
 10
378.59117329468296
 20
1685.2258944172493
 30
0.0
 11
379.11087993056634
 21
1685.136925963461
 31
0.0
  0
LINE
  5
23C
330
17
100
AcDbEntity
  8
0
100
AcDbLine
 10
379.11087993056634
 20
1685.136925963461
 30
0.0
 11
379.63578198216726
 21
1685.0870440090512
 31
0.0
  0
LINE
  5
23D
330
17
100
AcDbEntity
  8
0
100
AcDbLine
 10
379.63578198216726
 20
1685.0870440090512
 30
0.0
 11
380.16294398429307
 21
1685.0765275141434
 31
0.0
  0
LINE
  5
23E
330
17
100
AcDbEntity
  8
0
100
AcDbLine
 10
380.16294398429307
 20
1685.0765275141434
 30
0.0
 11
380.68941783319144
 21
1685.1054352912415
 31
0.0
  0
LINE
  5
23F
330
17
100
AcDbEntity
  8
0
100
AcDbLine
 10
380.68941783319144
 20
1685.1054352912415
 30
0.0
 11
381.2122592735414
 21
1685.1736056763316
 31
0.0
  0
LINE
  5
240
330
17
100
AcDbEntity
  8
0
100
AcDbLine
 10
381.2122592735414
 20
1685.1736056763316
 30
0.0
 11
381.7285443639244
 21
1685.2806574329666
 31
0.0
  0
LINE
  5
241
330
17
100
AcDbEntity
  8
0
100
AcDbLine
 10
381.7285443639244
 20
1685.2806574329666
 30
0.0
 11
382.2353858286907
 21
1685.4259918842995
 31
0.0
  0
LINE
  5
242
330
17
100
AcDbEntity
  8
0
100
AcDbLine
 10
382.2353858286907
 20
1685.4259918842995
 30
0.0
 11
382.72994920477487
 21
1685.608796261126
 31
0.0
  0
LINE
  5
243
330
17
100
AcDbEntity
  8
0
100
AcDbLine
 10
382.72994920477487
 20
1685.608796261126
 30
0.0
 11
383.20946869316447
 21
1685.8280482472162
 31
0.0
  0
LINE
  5
244
330
17
100
AcDbEntity
  8
0
100
AcDbLine
 10
383.20946869316447
 20
1685.8280482472162
 30
0.0
 11
383.67126262636964
 21
1686.0825216965304
 31
0.0
  0
LINE
  5
245
330
17
100
AcDbEntity
  8
0
100
AcDbLine
 10
383.67126262636964
 20
1686.0825216965304
 30
0.0
 11
384.11274846539436
 21
1686.3707934903139
 31
0.0
  0
LINE
  5
246
330
17
100
AcDbEntity
  8
0
100
AcDbLine
 10
384.11274846539436
 20
1686.3707934903139
 30
0.0
 11
384.5314572423437
 21
1686.6912514957626
 31
0.0
  0
LINE
  5
247
330
17
100
AcDbEntity
  8
0
100
AcDbLine
 10
384.5314572423437
 20
1686.6912514957626
 30
0.0
 11
384.9250473678933
 21
1687.0421035817199
 31
0.0
  0
LINE
  5
248
330
17
100
AcDbEntity
  8
0
100
AcDbLine
 10
384.9250473678933
 20
1687.0421035817199
 30
0.0
 11
385.29131772640574
 21
1687.421387641001
 31
0.0
  0
LINE
  5
249
330
17
100
AcDbEntity
  8
0
100
AcDbLine
 10
385.29131772640574
 20
1687.421387641001
 30
0.0
 11
385.6282199854631
 21
1687.8269825632988
 31
0.0
  0
LINE
  5
24A
330
17
100
AcDbEntity
  8
0
100
AcDbLine
 10
385.6282199854631
 20
1687.8269825632988
 30
0.0
 11
385.9338700509724
 21
1688.2566200972785
 31
0.0
  0
LINE
  5
24B
330
17
100
AcDbEntity
  8
0
100
AcDbLine
 10
385.9338700509724
 20
1688.2566200972785
 30
0.0
 11
386.2065586037848
 21
1688.7078975355753
 31
0.0
  0
LINE
  5
24C
330
17
100
AcDbEntity
  8
0
100
AcDbLine
 10
386.2065586037848
 20
1688.7078975355753
 30
0.0
 11
386.4447606588998
 21
1689.178291151698
 31
0.0
  0
LINE
  5
24D
330
17
100
AcDbEntity
  8
0
100
AcDbLine
 10
386.4447606588998
 20
1689.178291151698
 30
0.0
 11
386.6471440938012
 21
1689.6651703137386
 31
0.0
  0
LINE
  5
24E
330
17
100
AcDbEntity
  8
0
100
AcDbLine
 10
386.6471440938012
 20
1689.6651703137386
 30
0.0
 11
386.81257709822705
 21
1690.165812195923
 31
0.0
  0
LINE
  5
24F
330
17
100
AcDbEntity
  8
0
100
AcDbLine
 10
386.81257709822705
 20
1690.165812195923
 30
0.0
 11
386.9401345037108
 21
1690.6774170057674
 31
0.0
  0
LINE
  5
250
330
17
100
AcDbEntity
  8
0
100
AcDbLine
 10
386.9401345037108
 20
1690.6774170057674
 30
0.0
 11
387.02910295749876
 21
1691.1971236416512
 31
0.0
  0
LINE
  5
251
330
17
100
AcDbEntity
  8
0
100
AcDbLine
 10
387.02910295749876
 20
1691.1971236416512
 30
0.0
 11
387.0789849119084
 21
1691.722025693252
 31
0.0
  0
LINE
  5
252
330
17
100
AcDbEntity
  8
0
100
AcDbLine
 10
387.0789849119084
 20
1691.722025693252
 30
0.0
 11
387.0895014068165
 21
1692.2491876953782
 31
0.0
  0
LINE
  5
253
330
17
100
AcDbEntity
  8
0
100
AcDbLine
 10
109.43976947559875
 20
1356.6437559764013
 30
0.0
 11
109.41086169850023
 21
1357.1702298252994
 31
0.0
  0
LINE
  5
254
330
17
100
AcDbEntity
  8
0
100
AcDbLine
 10
109.41086169850023
 20
1357.1702298252994
 30
0.0
 11
109.34269131341047
 21
1357.6930712656495
 31
0.0
  0
LINE
  5
255
330
17
100
AcDbEntity
  8
0
100
AcDbLine
 10
109.34269131341047
 20
1357.6930712656495
 30
0.0
 11
109.23563955677541
 21
1358.2093563560318
 31
0.0
  0
LINE
  5
256
330
17
100
AcDbEntity
  8
0
100
AcDbLine
 10
109.23563955677541
 20
1358.2093563560318
 30
0.0
 11
109.0903051054426
 21
1358.7161978207982
 31
0.0
  0
LINE
  5
257
330
17
100
AcDbEntity
  8
0
100
AcDbLine
 10
109.0903051054426
 20
1358.7161978207982
 30
0.0
 11
108.90750072861664
 21
1359.2107611968822
 31
0.0
  0
LINE
  5
258
330
17
100
AcDbEntity
  8
0
100
AcDbLine
 10
108.90750072861664
 20
1359.2107611968822
 30
0.0
 11
108.68824874252539
 21
1359.690280685272
 31
0.0
  0
LINE
  5
259
330
17
100
AcDbEntity
  8
0
100
AcDbLine
 10
108.68824874252539
 20
1359.690280685272
 30
0.0
 11
108.43377529321175
 21
1360.152074618477
 31
0.0
  0
LINE
  5
25A
330
17
100
AcDbEntity
  8
0
100
AcDbLine
 10
108.43377529321175
 20
1360.152074618477
 30
0.0
 11
108.14550349942829
 21
1360.593560457503
 31
0.0
  0
LINE
  5
25B
330
17
100
AcDbEntity
  8
0
100
AcDbLine
 10
108.14550349942829
 20
1360.593560457503
 30
0.0
 11
107.82504549397984
 21
1361.0122692344517
 31
0.0
  0
LINE
  5
25C
330
17
100
AcDbEntity
  8
0
100
AcDbLine
 10
107.82504549397984
 20
1361.0122692344517
 30
0.0
 11
107.47419340802264
 21
1361.4058593600012
 31
0.0
  0
LINE
  5
25D
330
17
100
AcDbEntity
  8
0
100
AcDbLine
 10
107.47419340802264
 20
1361.4058593600012
 30
0.0
 11
107.09490934874013
 21
1361.772129718514
 31
0.0
  0
LINE
  5
25E
330
17
100
AcDbEntity
  8
0
100
AcDbLine
 10
107.09490934874013
 20
1361.772129718514
 30
0.0
 11
106.68931442644389
 21
1362.1090319775697
 31
0.0
  0
LINE
  5
25F
330
17
100
AcDbEntity
  8
0
100
AcDbLine
 10
106.68931442644389
 20
1362.1090319775697
 30
0.0
 11
106.25967689246373
 21
1362.41468204308
 31
0.0
  0
LINE
  5
260
330
17
100
AcDbEntity
  8
0
100
AcDbLine
 10
106.25967689246373
 20
1362.41468204308
 30
0.0
 11
105.80839945416693
 21
1362.6873705958928
 31
0.0
  0
LINE
  5
261
330
17
100
AcDbEntity
  8
0
100
AcDbLine
 10
105.80839945416693
 20
1362.6873705958928
 30
0.0
 11
105.3380058380435
 21
1362.925572651007
 31
0.0
  0
LINE
  5
262
330
17
100
AcDbEntity
  8
0
100
AcDbLine
 10
105.3380058380435
 20
1362.925572651007
 30
0.0
 11
104.85112667600436
 21
1363.127956085909
 31
0.0
  0
LINE
  5
263
330
17
100
AcDbEntity
  8
0
100
AcDbLine
 10
104.85112667600436
 20
1363.127956085909
 30
0.0
 11
104.35048479382003
 21
1363.2933890903355
 31
0.0
  0
LINE
  5
264
330
17
100
AcDbEntity
  8
0
100
AcDbLine
 10
104.35048479382003
 20
1363.2933890903355
 30
0.0
 11
103.8388799839747
 21
1363.4209464958194
 31
0.0
  0
LINE
  5
265
330
17
100
AcDbEntity
  8
0
100
AcDbLine
 10
103.8388799839747
 20
1363.4209464958194
 30
0.0
 11
103.3191733480914
 21
1363.509914949606
 31
0.0
  0
LINE
  5
266
330
17
100
AcDbEntity
  8
0
100
AcDbLine
 10
103.3191733480914
 20
1363.509914949606
 30
0.0
 11
102.79427129649055
 21
1363.5597969040166
 31
0.0
  0
LINE
  5
267
330
17
100
AcDbEntity
  8
0
100
AcDbLine
 10
102.79427129649055
 20
1363.5597969040166
 30
0.0
 11
102.26710929436464
 21
1363.570313398925
 31
0.0
  0
LINE
  5
268
330
17
100
AcDbEntity
  8
0
100
AcDbLine
 10
102.26710929436464
 20
1363.570313398925
 30
0.0
 11
101.74063544546637
 21
1363.5414056218262
 31
0.0
  0
LINE
  5
269
330
17
100
AcDbEntity
  8
0
100
AcDbLine
 10
101.74063544546637
 20
1363.5414056218262
 30
0.0
 11
101.21779400511645
 21
1363.4732352367355
 31
0.0
  0
LINE
  5
26A
330
17
100
AcDbEntity
  8
0
100
AcDbLine
 10
101.21779400511645
 20
1363.4732352367355
 30
0.0
 11
100.70150891473325
 21
1363.3661834801019
 31
0.0
  0
LINE
  5
26B
330
17
100
AcDbEntity
  8
0
100
AcDbLine
 10
100.70150891473325
 20
1363.3661834801019
 30
0.0
 11
100.19466744996707
 21
1363.2208490287685
 31
0.0
  0
LINE
  5
26C
330
17
100
AcDbEntity
  8
0
100
AcDbLine
 10
100.19466744996707
 20
1363.2208490287685
 30
0.0
 11
99.70010407388293
 21
1363.0380446519423
 31
0.0
  0
LINE
  5
26D
330
17
100
AcDbEntity
  8
0
100
AcDbLine
 10
99.70010407388293
 20
1363.0380446519423
 30
0.0
 11
99.22058458549316
 21
1362.8187926658507
 31
0.0
  0
LINE
  5
26E
330
17
100
AcDbEntity
  8
0
100
AcDbLine
 10
99.22058458549316
 20
1362.8187926658507
 30
0.0
 11
98.75879065228816
 21
1362.5643192165376
 31
0.0
  0
LINE
  5
26F
330
17
100
AcDbEntity
  8
0
100
AcDbLine
 10
98.75879065228816
 20
1362.5643192165376
 30
0.0
 11
98.31730481326336
 21
1362.2760474227534
 31
0.0
  0
LINE
  5
270
330
17
100
AcDbEntity
  8
0
100
AcDbLine
 10
98.31730481326336
 20
1362.2760474227534
 30
0.0
 11
97.89859603631389
 21
1361.9555894173043
 31
0.0
  0
LINE
  5
271
330
17
100
AcDbEntity
  8
0
100
AcDbLine
 10
97.89859603631389
 20
1361.9555894173043
 30
0.0
 11
97.50500591076438
 21
1361.6047373313486
 31
0.0
  0
LINE
  5
272
330
17
100
AcDbEntity
  8
0
100
AcDbLine
 10
97.50500591076438
 20
1361.6047373313486
 30
0.0
 11
97.13873555225211
 21
1361.2254532720658
 31
0.0
  0
LINE
  5
273
330
17
100
AcDbEntity
  8
0
100
AcDbLine
 10
97.13873555225211
 20
1361.2254532720658
 30
0.0
 11
96.80183329319473
 21
1360.8198583497694
 31
0.0
  0
LINE
  5
274
330
17
100
AcDbEntity
  8
0
100
AcDbLine
 10
96.80183329319473
 20
1360.8198583497694
 30
0.0
 11
96.49618322768515
 21
1360.3902208157901
 31
0.0
  0
LINE
  5
275
330
17
100
AcDbEntity
  8
0
100
AcDbLine
 10
96.49618322768515
 20
1360.3902208157901
 30
0.0
 11
96.2234946748729
 21
1359.938943377492
 31
0.0
  0
LINE
  5
276
330
17
100
AcDbEntity
  8
0
100
AcDbLine
 10
96.2234946748729
 20
1359.938943377492
 30
0.0
 11
95.98529261975796
 21
1359.4685497613689
 31
0.0
  0
LINE
  5
277
330
17
100
AcDbEntity
  8
0
100
AcDbLine
 10
95.98529261975796
 20
1359.4685497613689
 30
0.0
 11
95.78290918485646
 21
1358.9816705993298
 31
0.0
  0
LINE
  5
278
330
17
100
AcDbEntity
  8
0
100
AcDbLine
 10
95.78290918485646
 20
1358.9816705993298
 30
0.0
 11
95.61747618043061
 21
1358.4810287171454
 31
0.0
  0
LINE
  5
279
330
17
100
AcDbEntity
  8
0
100
AcDbLine
 10
95.61747618043061
 20
1358.4810287171454
 30
0.0
 11
95.48991877494693
 21
1357.9694239072999
 31
0.0
  0
LINE
  5
27A
330
17
100
AcDbEntity
  8
0
100
AcDbLine
 10
95.48991877494693
 20
1357.9694239072999
 30
0.0
 11
95.40095032115893
 21
1357.4497172714173
 31
0.0
  0
LINE
  5
27B
330
17
100
AcDbEntity
  8
0
100
AcDbLine
 10
95.40095032115893
 20
1357.4497172714173
 30
0.0
 11
95.3510683667494
 21
1356.9248152198165
 31
0.0
  0
LINE
  5
27C
330
17
100
AcDbEntity
  8
0
100
AcDbLine
 10
95.3510683667494
 20
1356.9248152198165
 30
0.0
 11
95.3405518718412
 21
1356.3976532176905
 31
0.0
  0
LINE
  5
27D
330
17
100
AcDbEntity
  8
0
100
AcDbLine
 10
95.3405518718412
 20
1356.3976532176905
 30
0.0
 11
95.36945964893974
 21
1355.8711793687917
 31
0.0
  0
LINE
  5
27E
330
17
100
AcDbEntity
  8
0
100
AcDbLine
 10
95.36945964893974
 20
1355.8711793687917
 30
0.0
 11
95.43763003402937
 21
1355.3483379284426
 31
0.0
  0
LINE
  5
27F
330
17
100
AcDbEntity
  8
0
100
AcDbLine
 10
95.43763003402937
 20
1355.3483379284426
 30
0.0
 11
95.54468179066444
 21
1354.8320528380593
 31
0.0
  0
LINE
  5
280
330
17
100
AcDbEntity
  8
0
100
AcDbLine
 10
95.54468179066444
 20
1354.8320528380593
 30
0.0
 11
95.69001624199736
 21
1354.3252113732935
 31
0.0
  0
LINE
  5
281
330
17
100
AcDbEntity
  8
0
100
AcDbLine
 10
95.69001624199736
 20
1354.3252113732935
 30
0.0
 11
95.8728206188232
 21
1353.830647997209
 31
0.0
  0
LINE
  5
282
330
17
100
AcDbEntity
  8
0
100
AcDbLine
 10
95.8728206188232
 20
1353.830647997209
 30
0.0
 11
96.09207260491448
 21
1353.3511285088186
 31
0.0
  0
LINE
  5
283
330
17
100
AcDbEntity
  8
0
100
AcDbLine
 10
96.09207260491448
 20
1353.3511285088186
 30
0.0
 11
96.34654605422823
 21
1352.8893345756135
 31
0.0
  0
LINE
  5
284
330
17
100
AcDbEntity
  8
0
100
AcDbLine
 10
96.34654605422823
 20
1352.8893345756135
 30
0.0
 11
96.63481784801166
 21
1352.4478487365889
 31
0.0
  0
LINE
  5
285
330
17
100
AcDbEntity
  8
0
100
AcDbLine
 10
96.63481784801166
 20
1352.4478487365889
 30
0.0
 11
96.95527585346011
 21
1352.0291399596401
 31
0.0
  0
LINE
  5
286
330
17
100
AcDbEntity
  8
0
100
AcDbLine
 10
96.95527585346011
 20
1352.0291399596401
 30
0.0
 11
97.30612793941734
 21
1351.6355498340895
 31
0.0
  0
LINE
  5
287
330
17
100
AcDbEntity
  8
0
100
AcDbLine
 10
97.30612793941734
 20
1351.6355498340895
 30
0.0
 11
97.6854119986997
 21
1351.269279475578
 31
0.0
  0
LINE
  5
288
330
17
100
AcDbEntity
  8
0
100
AcDbLine
 10
97.6854119986997
 20
1351.269279475578
 30
0.0
 11
98.0910069209961
 21
1350.9323772165203
 31
0.0
  0
LINE
  5
289
330
17
100
AcDbEntity
  8
0
100
AcDbLine
 10
98.0910069209961
 20
1350.9323772165203
 30
0.0
 11
98.52064445497625
 21
1350.62672715101
 31
0.0
  0
LINE
  5
28A
330
17
100
AcDbEntity
  8
0
100
AcDbLine
 10
98.52064445497625
 20
1350.62672715101
 30
0.0
 11
98.97192189327303
 21
1350.3540385981985
 31
0.0
  0
LINE
  5
28B
330
17
100
AcDbEntity
  8
0
100
AcDbLine
 10
98.97192189327303
 20
1350.3540385981985
 30
0.0
 11
99.44231550939637
 21
1350.1158365430833
 31
0.0
  0
LINE
  5
28C
330
17
100
AcDbEntity
  8
0
100
AcDbLine
 10
99.44231550939637
 20
1350.1158365430833
 30
0.0
 11
99.92919467143561
 21
1349.9134531081818
 31
0.0
  0
LINE
  5
28D
330
17
100
AcDbEntity
  8
0
100
AcDbLine
 10
99.92919467143561
 20
1349.9134531081818
 30
0.0
 11
100.42983655361994
 21
1349.748020103756
 31
0.0
  0
LINE
  5
28E
330
17
100
AcDbEntity
  8
0
100
AcDbLine
 10
100.42983655361994
 20
1349.748020103756
 30
0.0
 11
100.94144136346524
 21
1349.620462698272
 31
0.0
  0
LINE
  5
28F
330
17
100
AcDbEntity
  8
0
100
AcDbLine
 10
100.94144136346524
 20
1349.620462698272
 30
0.0
 11
101.46114799934858
 21
1349.5314942444843
 31
0.0
  0
LINE
  5
290
330
17
100
AcDbEntity
  8
0
100
AcDbLine
 10
101.46114799934858
 20
1349.5314942444843
 30
0.0
 11
101.98605005094942
 21
1349.4816122900743
 31
0.0
  0
LINE
  5
291
330
17
100
AcDbEntity
  8
0
100
AcDbLine
 10
101.98605005094942
 20
1349.4816122900743
 30
0.0
 11
102.51321205307532
 21
1349.4710957951665
 31
0.0
  0
LINE
  5
292
330
17
100
AcDbEntity
  8
0
100
AcDbLine
 10
102.51321205307532
 20
1349.4710957951665
 30
0.0
 11
103.0396859019736
 21
1349.5000035722646
 31
0.0
  0
LINE
  5
293
330
17
100
AcDbEntity
  8
0
100
AcDbLine
 10
103.0396859019736
 20
1349.5000035722646
 30
0.0
 11
103.56252734232353
 21
1349.5681739573547
 31
0.0
  0
LINE
  5
294
330
17
100
AcDbEntity
  8
0
100
AcDbLine
 10
103.56252734232353
 20
1349.5681739573547
 30
0.0
 11
104.0788124327067
 21
1349.6752257139894
 31
0.0
  0
LINE
  5
295
330
17
100
AcDbEntity
  8
0
100
AcDbLine
 10
104.0788124327067
 20
1349.6752257139894
 30
0.0
 11
104.5856538974729
 21
1349.8205601653228
 31
0.0
  0
LINE
  5
296
330
17
100
AcDbEntity
  8
0
100
AcDbLine
 10
104.5856538974729
 20
1349.8205601653228
 30
0.0
 11
105.08021727355704
 21
1350.0033645421486
 31
0.0
  0
LINE
  5
297
330
17
100
AcDbEntity
  8
0
100
AcDbLine
 10
105.08021727355704
 20
1350.0033645421486
 30
0.0
 11
105.55973676194671
 21
1350.2226165282398
 31
0.0
  0
LINE
  5
298
330
17
100
AcDbEntity
  8
0
100
AcDbLine
 10
105.55973676194671
 20
1350.2226165282398
 30
0.0
 11
106.02153069515181
 21
1350.4770899775538
 31
0.0
  0
LINE
  5
299
330
17
100
AcDbEntity
  8
0
100
AcDbLine
 10
106.02153069515181
 20
1350.4770899775538
 30
0.0
 11
106.46301653417662
 21
1350.7653617713365
 31
0.0
  0
LINE
  5
29A
330
17
100
AcDbEntity
  8
0
100
AcDbLine
 10
106.46301653417662
 20
1350.7653617713365
 30
0.0
 11
106.88172531112609
 21
1351.0858197767857
 31
0.0
  0
LINE
  5
29B
330
17
100
AcDbEntity
  8
0
100
AcDbLine
 10
106.88172531112609
 20
1351.0858197767857
 30
0.0
 11
107.27531543667546
 21
1351.4366718627432
 31
0.0
  0
LINE
  5
29C
330
17
100
AcDbEntity
  8
0
100
AcDbLine
 10
107.27531543667546
 20
1351.4366718627432
 30
0.0
 11
107.64158579518786
 21
1351.8159559220248
 31
0.0
  0
LINE
  5
29D
330
17
100
AcDbEntity
  8
0
100
AcDbLine
 10
107.64158579518786
 20
1351.8159559220248
 30
0.0
 11
107.97848805424522
 21
1352.2215508443223
 31
0.0
  0
LINE
  5
29E
330
17
100
AcDbEntity
  8
0
100
AcDbLine
 10
107.97848805424522
 20
1352.2215508443223
 30
0.0
 11
108.2841381197548
 21
1352.6511883783019
 31
0.0
  0
LINE
  5
29F
330
17
100
AcDbEntity
  8
0
100
AcDbLine
 10
108.2841381197548
 20
1352.6511883783019
 30
0.0
 11
108.55682667256708
 21
1353.1024658165984
 31
0.0
  0
LINE
  5
2A0
330
17
100
AcDbEntity
  8
0
100
AcDbLine
 10
108.55682667256708
 20
1353.1024658165984
 30
0.0
 11
108.79502872768191
 21
1353.5728594327218
 31
0.0
  0
LINE
  5
2A1
330
17
100
AcDbEntity
  8
0
100
AcDbLine
 10
108.79502872768191
 20
1353.5728594327218
 30
0.0
 11
108.99741216258337
 21
1354.0597385947617
 31
0.0
  0
LINE
  5
2A2
330
17
100
AcDbEntity
  8
0
100
AcDbLine
 10
108.99741216258337
 20
1354.0597385947617
 30
0.0
 11
109.16284516700934
 21
1354.5603804769464
 31
0.0
  0
LINE
  5
2A3
330
17
100
AcDbEntity
  8
0
100
AcDbLine
 10
109.16284516700934
 20
1354.5603804769464
 30
0.0
 11
109.29040257249292
 21
1355.0719852867912
 31
0.0
  0
LINE
  5
2A4
330
17
100
AcDbEntity
  8
0
100
AcDbLine
 10
109.29040257249292
 20
1355.0719852867912
 30
0.0
 11
109.37937102628091
 21
1355.5916919226747
 31
0.0
  0
LINE
  5
2A5
330
17
100
AcDbEntity
  8
0
100
AcDbLine
 10
109.37937102628091
 20
1355.5916919226747
 30
0.0
 11
109.42925298069056
 21
1356.1165939742748
 31
0.0
  0
LINE
  5
2A6
330
17
100
AcDbEntity
  8
0
100
AcDbLine
 10
109.42925298069056
 20
1356.1165939742748
 30
0.0
 11
109.43976947559875
 21
1356.6437559764013
 31
0.0
  0
LINE
  5
2A7
330
17
100
AcDbEntity
  8
0
100
AcDbLine
 10
1549.3215086241862
 20
279.6406205785361
 30
0.0
 11
1549.292600847088
 21
280.16709442743445
 31
0.0
  0
LINE
  5
2A8
330
17
100
AcDbEntity
  8
0
100
AcDbLine
 10
1549.292600847088
 20
280.16709442743445
 30
0.0
 11
1549.224430461998
 21
280.68993586778413
 31
0.0
  0
LINE
  5
2A9
330
17
100
AcDbEntity
  8
0
100
AcDbLine
 10
1549.224430461998
 20
280.68993586778413
 30
0.0
 11
1549.117378705363
 21
281.2062209581675
 31
0.0
  0
LINE
  5
2AA
330
17
100
AcDbEntity
  8
0
100
AcDbLine
 10
1549.117378705363
 20
281.2062209581675
 30
0.0
 11
1548.9720442540302
 21
281.71306242293394
 31
0.0
  0
LINE
  5
2AB
330
17
100
AcDbEntity
  8
0
100
AcDbLine
 10
1548.9720442540302
 20
281.71306242293394
 30
0.0
 11
1548.789239877205
 21
282.2076257990176
 31
0.0
  0
LINE
  5
2AC
330
17
100
AcDbEntity
  8
0
100
AcDbLine
 10
1548.789239877205
 20
282.2076257990176
 30
0.0
 11
1548.569987891113
 21
282.6871452874077
 31
0.0
  0
LINE
  5
2AD
330
17
100
AcDbEntity
  8
0
100
AcDbLine
 10
1548.569987891113
 20
282.6871452874077
 30
0.0
 11
1548.315514441799
 21
283.14893922061265
 31
0.0
  0
LINE
  5
2AE
330
17
100
AcDbEntity
  8
0
100
AcDbLine
 10
1548.315514441799
 20
283.14893922061265
 30
0.0
 11
1548.027242648016
 21
283.59042505963737
 31
0.0
  0
LINE
  5
2AF
330
17
100
AcDbEntity
  8
0
100
AcDbLine
 10
1548.027242648016
 20
283.59042505963737
 30
0.0
 11
1547.7067846425682
 21
284.0091338365869
 31
0.0
  0
LINE
  5
2B0
330
17
100
AcDbEntity
  8
0
100
AcDbLine
 10
1547.7067846425682
 20
284.0091338365869
 30
0.0
 11
1547.3559325566107
 21
284.4027239621362
 31
0.0
  0
LINE
  5
2B1
330
17
100
AcDbEntity
  8
0
100
AcDbLine
 10
1547.3559325566107
 20
284.4027239621362
 30
0.0
 11
1546.976648497328
 21
284.76899432064863
 31
0.0
  0
LINE
  5
2B2
330
17
100
AcDbEntity
  8
0
100
AcDbLine
 10
1546.976648497328
 20
284.76899432064863
 30
0.0
 11
1546.5710535750318
 21
285.1058965797064
 31
0.0
  0
LINE
  5
2B3
330
17
100
AcDbEntity
  8
0
100
AcDbLine
 10
1546.5710535750318
 20
285.1058965797064
 30
0.0
 11
1546.1414160410511
 21
285.4115466452156
 31
0.0
  0
LINE
  5
2B4
330
17
100
AcDbEntity
  8
0
100
AcDbLine
 10
1546.1414160410511
 20
285.4115466452156
 30
0.0
 11
1545.6901386027541
 21
285.6842351980283
 31
0.0
  0
LINE
  5
2B5
330
17
100
AcDbEntity
  8
0
100
AcDbLine
 10
1545.6901386027541
 20
285.6842351980283
 30
0.0
 11
1545.219744986631
 21
285.9224372531428
 31
0.0
  0
LINE
  5
2B6
330
17
100
AcDbEntity
  8
0
100
AcDbLine
 10
1545.219744986631
 20
285.9224372531428
 30
0.0
 11
1544.7328658245922
 21
286.1248206880442
 31
0.0
  0
LINE
  5
2B7
330
17
100
AcDbEntity
  8
0
100
AcDbLine
 10
1544.7328658245922
 20
286.1248206880442
 30
0.0
 11
1544.2322239424077
 21
286.2902536924702
 31
0.0
  0
LINE
  5
2B8
330
17
100
AcDbEntity
  8
0
100
AcDbLine
 10
1544.2322239424077
 20
286.2902536924702
 30
0.0
 11
1543.7206191325622
 21
286.41781109795363
 31
0.0
  0
LINE
  5
2B9
330
17
100
AcDbEntity
  8
0
100
AcDbLine
 10
1543.7206191325622
 20
286.41781109795363
 30
0.0
 11
1543.2009124966794
 21
286.5067795517416
 31
0.0
  0
LINE
  5
2BA
330
17
100
AcDbEntity
  8
0
100
AcDbLine
 10
1543.2009124966794
 20
286.5067795517416
 30
0.0
 11
1542.6760104450777
 21
286.5566615061513
 31
0.0
  0
LINE
  5
2BB
330
17
100
AcDbEntity
  8
0
100
AcDbLine
 10
1542.6760104450777
 20
286.5566615061513
 30
0.0
 11
1542.1488484429526
 21
286.5671780010596
 31
0.0
  0
LINE
  5
2BC
330
17
100
AcDbEntity
  8
0
100
AcDbLine
 10
1542.1488484429526
 20
286.5671780010596
 30
0.0
 11
1541.6223745940545
 21
286.53827022396115
 31
0.0
  0
LINE
  5
2BD
330
17
100
AcDbEntity
  8
0
100
AcDbLine
 10
1541.6223745940545
 20
286.53827022396115
 30
0.0
 11
1541.0995331537047
 21
286.47009983887096
 31
0.0
  0
LINE
  5
2BE
330
17
100
AcDbEntity
  8
0
100
AcDbLine
 10
1541.0995331537047
 20
286.47009983887096
 30
0.0
 11
1540.583248063321
 21
286.3630480822361
 31
0.0
  0
LINE
  5
2BF
330
17
100
AcDbEntity
  8
0
100
AcDbLine
 10
1540.583248063321
 20
286.3630480822361
 30
0.0
 11
1540.0764065985545
 21
286.2177136309034
 31
0.0
  0
LINE
  5
2C0
330
17
100
AcDbEntity
  8
0
100
AcDbLine
 10
1540.0764065985545
 20
286.2177136309034
 30
0.0
 11
1539.5818432224714
 21
286.03490925407766
 31
0.0
  0
LINE
  5
2C1
330
17
100
AcDbEntity
  8
0
100
AcDbLine
 10
1539.5818432224714
 20
286.03490925407766
 30
0.0
 11
1539.1023237340808
 21
285.81565726798635
 31
0.0
  0
LINE
  5
2C2
330
17
100
AcDbEntity
  8
0
100
AcDbLine
 10
1539.1023237340808
 20
285.81565726798635
 30
0.0
 11
1538.640529800876
 21
285.5611838186728
 31
0.0
  0
LINE
  5
2C3
330
17
100
AcDbEntity
  8
0
100
AcDbLine
 10
1538.640529800876
 20
285.5611838186728
 30
0.0
 11
1538.1990439618512
 21
285.27291202488914
 31
0.0
  0
LINE
  5
2C4
330
17
100
AcDbEntity
  8
0
100
AcDbLine
 10
1538.1990439618512
 20
285.27291202488914
 30
0.0
 11
1537.7803351849013
 21
284.9524540194408
 31
0.0
  0
LINE
  5
2C5
330
17
100
AcDbEntity
  8
0
100
AcDbLine
 10
1537.7803351849013
 20
284.9524540194408
 30
0.0
 11
1537.3867450593518
 21
284.6016019334835
 31
0.0
  0
LINE
  5
2C6
330
17
100
AcDbEntity
  8
0
100
AcDbLine
 10
1537.3867450593518
 20
284.6016019334835
 30
0.0
 11
1537.02047470084
 21
284.22231787420105
 31
0.0
  0
LINE
  5
2C7
330
17
100
AcDbEntity
  8
0
100
AcDbLine
 10
1537.02047470084
 20
284.22231787420105
 30
0.0
 11
1536.6835724417826
 21
283.8167229519047
 31
0.0
  0
LINE
  5
2C8
330
17
100
AcDbEntity
  8
0
100
AcDbLine
 10
1536.6835724417826
 20
283.8167229519047
 30
0.0
 11
1536.3779223762729
 21
283.38708541792437
 31
0.0
  0
LINE
  5
2C9
330
17
100
AcDbEntity
  8
0
100
AcDbLine
 10
1536.3779223762729
 20
283.38708541792437
 30
0.0
 11
1536.1052338234606
 21
282.9358079796277
 31
0.0
  0
LINE
  5
2CA
330
17
100
AcDbEntity
  8
0
100
AcDbLine
 10
1536.1052338234606
 20
282.9358079796277
 30
0.0
 11
1535.8670317683452
 21
282.46541436350435
 31
0.0
  0
LINE
  5
2CB
330
17
100
AcDbEntity
  8
0
100
AcDbLine
 10
1535.8670317683452
 20
282.46541436350435
 30
0.0
 11
1535.6646483334446
 21
281.978535201465
 31
0.0
  0
LINE
  5
2CC
330
17
100
AcDbEntity
  8
0
100
AcDbLine
 10
1535.6646483334446
 20
281.978535201465
 30
0.0
 11
1535.4992153290184
 21
281.4778933192813
 31
0.0
  0
LINE
  5
2CD
330
17
100
AcDbEntity
  8
0
100
AcDbLine
 10
1535.4992153290184
 20
281.4778933192813
 30
0.0
 11
1535.3716579235345
 21
280.96628850943534
 31
0.0
  0
LINE
  5
2CE
330
17
100
AcDbEntity
  8
0
100
AcDbLine
 10
1535.3716579235345
 20
280.96628850943534
 30
0.0
 11
1535.2826894697466
 21
280.4465818735522
 31
0.0
  0
LINE
  5
2CF
330
17
100
AcDbEntity
  8
0
100
AcDbLine
 10
1535.2826894697466
 20
280.4465818735522
 30
0.0
 11
1535.2328075153368
 21
279.92167982195133
 31
0.0
  0
LINE
  5
2D0
330
17
100
AcDbEntity
  8
0
100
AcDbLine
 10
1535.2328075153368
 20
279.92167982195133
 30
0.0
 11
1535.2222910204289
 21
279.3945178198253
 31
0.0
  0
LINE
  5
2D1
330
17
100
AcDbEntity
  8
0
100
AcDbLine
 10
1535.2222910204289
 20
279.3945178198253
 30
0.0
 11
1535.2511987975272
 21
278.86804397092703
 31
0.0
  0
LINE
  5
2D2
330
17
100
AcDbEntity
  8
0
100
AcDbLine
 10
1535.2511987975272
 20
278.86804397092703
 30
0.0
 11
1535.319369182617
 21
278.34520253057735
 31
0.0
  0
LINE
  5
2D3
330
17
100
AcDbEntity
  8
0
100
AcDbLine
 10
1535.319369182617
 20
278.34520253057735
 30
0.0
 11
1535.426420939252
 21
277.82891744019435
 31
0.0
  0
LINE
  5
2D4
330
17
100
AcDbEntity
  8
0
100
AcDbLine
 10
1535.426420939252
 20
277.82891744019435
 30
0.0
 11
1535.5717553905852
 21
277.322075975428
 31
0.0
  0
LINE
  5
2D5
330
17
100
AcDbEntity
  8
0
100
AcDbLine
 10
1535.5717553905852
 20
277.322075975428
 30
0.0
 11
1535.7545597674114
 21
276.8275125993439
 31
0.0
  0
LINE
  5
2D6
330
17
100
AcDbEntity
  8
0
100
AcDbLine
 10
1535.7545597674114
 20
276.8275125993439
 30
0.0
 11
1535.9738117535019
 21
276.3479931109541
 31
0.0
  0
LINE
  5
2D7
330
17
100
AcDbEntity
  8
0
100
AcDbLine
 10
1535.9738117535019
 20
276.3479931109541
 30
0.0
 11
1536.2282852028159
 21
275.8861991777487
 31
0.0
  0
LINE
  5
2D8
330
17
100
AcDbEntity
  8
0
100
AcDbLine
 10
1536.2282852028159
 20
275.8861991777487
 30
0.0
 11
1536.5165569965993
 21
275.4447133387241
 31
0.0
  0
LINE
  5
2D9
330
17
100
AcDbEntity
  8
0
100
AcDbLine
 10
1536.5165569965993
 20
275.4447133387241
 30
0.0
 11
1536.837015002048
 21
275.0260045617746
 31
0.0
  0
LINE
  5
2DA
330
17
100
AcDbEntity
  8
0
100
AcDbLine
 10
1536.837015002048
 20
275.0260045617746
 30
0.0
 11
1537.1878670880053
 21
274.63241443622564
 31
0.0
  0
LINE
  5
2DB
330
17
100
AcDbEntity
  8
0
100
AcDbLine
 10
1537.1878670880053
 20
274.63241443622564
 30
0.0
 11
1537.5671511472872
 21
274.2661440777133
 31
0.0
  0
LINE
  5
2DC
330
17
100
AcDbEntity
  8
0
100
AcDbLine
 10
1537.5671511472872
 20
274.2661440777133
 30
0.0
 11
1537.9727460695835
 21
273.92924181865556
 31
0.0
  0
LINE
  5
2DD
330
17
100
AcDbEntity
  8
0
100
AcDbLine
 10
1537.9727460695835
 20
273.92924181865556
 30
0.0
 11
1538.402383603564
 21
273.6235917531458
 31
0.0
  0
LINE
  5
2DE
330
17
100
AcDbEntity
  8
0
100
AcDbLine
 10
1538.402383603564
 20
273.6235917531458
 30
0.0
 11
1538.853661041861
 21
273.3509032003336
 31
0.0
  0
LINE
  5
2DF
330
17
100
AcDbEntity
  8
0
100
AcDbLine
 10
1538.853661041861
 20
273.3509032003336
 30
0.0
 11
1539.3240546579839
 21
273.11270114521903
 31
0.0
  0
LINE
  5
2E0
330
17
100
AcDbEntity
  8
0
100
AcDbLine
 10
1539.3240546579839
 20
273.11270114521903
 30
0.0
 11
1539.810933820024
 21
272.91031771031714
 31
0.0
  0
LINE
  5
2E1
330
17
100
AcDbEntity
  8
0
100
AcDbLine
 10
1539.810933820024
 20
272.91031771031714
 30
0.0
 11
1540.3115757022074
 21
272.7448847058913
 31
0.0
  0
LINE
  5
2E2
330
17
100
AcDbEntity
  8
0
100
AcDbLine
 10
1540.3115757022074
 20
272.7448847058913
 30
0.0
 11
1540.8231805120529
 21
272.6173273004075
 31
0.0
  0
LINE
  5
2E3
330
17
100
AcDbEntity
  8
0
100
AcDbLine
 10
1540.8231805120529
 20
272.6173273004075
 30
0.0
 11
1541.3428871479368
 21
272.52835884661977
 31
0.0
  0
LINE
  5
2E4
330
17
100
AcDbEntity
  8
0
100
AcDbLine
 10
1541.3428871479368
 20
272.52835884661977
 30
0.0
 11
1541.8677891995374
 21
272.4784768922102
 31
0.0
  0
LINE
  5
2E5
330
17
100
AcDbEntity
  8
0
100
AcDbLine
 10
1541.8677891995374
 20
272.4784768922102
 30
0.0
 11
1542.3949512016632
 21
272.46796039730157
 31
0.0
  0
LINE
  5
2E6
330
17
100
AcDbEntity
  8
0
100
AcDbLine
 10
1542.3949512016632
 20
272.46796039730157
 30
0.0
 11
1542.9214250505606
 21
272.49686817440033
 31
0.0
  0
LINE
  5
2E7
330
17
100
AcDbEntity
  8
0
100
AcDbLine
 10
1542.9214250505606
 20
272.49686817440033
 30
0.0
 11
1543.4442664909116
 21
272.5650385594904
 31
0.0
  0
LINE
  5
2E8
330
17
100
AcDbEntity
  8
0
100
AcDbLine
 10
1543.4442664909116
 20
272.5650385594904
 30
0.0
 11
1543.960551581294
 21
272.67209031612504
 31
0.0
  0
LINE
  5
2E9
330
17
100
AcDbEntity
  8
0
100
AcDbLine
 10
1543.960551581294
 20
272.67209031612504
 30
0.0
 11
1544.4673930460606
 21
272.8174247674581
 31
0.0
  0
LINE
  5
2EA
330
17
100
AcDbEntity
  8
0
100
AcDbLine
 10
1544.4673930460606
 20
272.8174247674581
 30
0.0
 11
1544.9619564221448
 21
273.0002291442837
 31
0.0
  0
LINE
  5
2EB
330
17
100
AcDbEntity
  8
0
100
AcDbLine
 10
1544.9619564221448
 20
273.0002291442837
 30
0.0
 11
1545.441475910534
 21
273.21948113037547
 31
0.0
  0
LINE
  5
2EC
330
17
100
AcDbEntity
  8
0
100
AcDbLine
 10
1545.441475910534
 20
273.21948113037547
 30
0.0
 11
1545.903269843739
 21
273.4739545796891
 31
0.0
  0
LINE
  5
2ED
330
17
100
AcDbEntity
  8
0
100
AcDbLine
 10
1545.903269843739
 20
273.4739545796891
 30
0.0
 11
1546.344755682764
 21
273.76222637347223
 31
0.0
  0
LINE
  5
2EE
330
17
100
AcDbEntity
  8
0
100
AcDbLine
 10
1546.344755682764
 20
273.76222637347223
 30
0.0
 11
1546.763464459714
 21
274.08268437892116
 31
0.0
  0
LINE
  5
2EF
330
17
100
AcDbEntity
  8
0
100
AcDbLine
 10
1546.763464459714
 20
274.08268437892116
 30
0.0
 11
1547.1570545852633
 21
274.433536464878
 31
0.0
  0
LINE
  5
2F0
330
17
100
AcDbEntity
  8
0
100
AcDbLine
 10
1547.1570545852633
 20
274.433536464878
 30
0.0
 11
1547.523324943776
 21
274.81282052416077
 31
0.0
  0
LINE
  5
2F1
330
17
100
AcDbEntity
  8
0
100
AcDbLine
 10
1547.523324943776
 20
274.81282052416077
 30
0.0
 11
1547.8602272028336
 21
275.2184154464568
 31
0.0
  0
LINE
  5
2F2
330
17
100
AcDbEntity
  8
0
100
AcDbLine
 10
1547.8602272028336
 20
275.2184154464568
 30
0.0
 11
1548.1658772683425
 21
275.6480529804371
 31
0.0
  0
LINE
  5
2F3
330
17
100
AcDbEntity
  8
0
100
AcDbLine
 10
1548.1658772683425
 20
275.6480529804371
 30
0.0
 11
1548.4385658211543
 21
276.09933041873364
 31
0.0
  0
LINE
  5
2F4
330
17
100
AcDbEntity
  8
0
100
AcDbLine
 10
1548.4385658211543
 20
276.09933041873364
 30
0.0
 11
1548.6767678762697
 21
276.5697240348575
 31
0.0
  0
LINE
  5
2F5
330
17
100
AcDbEntity
  8
0
100
AcDbLine
 10
1548.6767678762697
 20
276.5697240348575
 30
0.0
 11
1548.8791513111719
 21
277.0566031968965
 31
0.0
  0
LINE
  5
2F6
330
17
100
AcDbEntity
  8
0
100
AcDbLine
 10
1548.8791513111719
 20
277.0566031968965
 30
0.0
 11
1549.044584315597
 21
277.55724507908064
 31
0.0
  0
LINE
  5
2F7
330
17
100
AcDbEntity
  8
0
100
AcDbLine
 10
1549.044584315597
 20
277.55724507908064
 30
0.0
 11
1549.1721417210806
 21
278.0688498889265
 31
0.0
  0
LINE
  5
2F8
330
17
100
AcDbEntity
  8
0
100
AcDbLine
 10
1549.1721417210806
 20
278.0688498889265
 30
0.0
 11
1549.2611101748685
 21
278.5885565248093
 31
0.0
  0
LINE
  5
2F9
330
17
100
AcDbEntity
  8
0
100
AcDbLine
 10
1549.2611101748685
 20
278.5885565248093
 30
0.0
 11
1549.3109921292782
 21
279.11345857641015
 31
0.0
  0
LINE
  5
2FA
330
17
100
AcDbEntity
  8
0
100
AcDbLine
 10
1549.3109921292782
 20
279.11345857641015
 30
0.0
 11
1549.3215086241862
 21
279.6406205785361
 31
0.0
  0
LINE
  5
2FB
330
17
100
AcDbEntity
  8
0
100
AcDbLine
 10
1004.270832660073
 20
604.2646909117504
 30
0.0
 11
1005.7490633660962
 21
602.864292310561
 31
0.0
  0
LINE
  5
2FC
330
17
100
AcDbEntity
  8
0
100
AcDbLine
 10
1005.7490633660962
 20
602.864292310561
 30
0.0
 11
1007.2538473276824
 21
601.4924659762905
 31
0.0
  0
LINE
  5
2FD
330
17
100
AcDbEntity
  8
0
100
AcDbLine
 10
1007.2538473276824
 20
601.4924659762905
 30
0.0
 11
1008.7846323746833
 21
600.1497152911959
 31
0.0
  0
LINE
  5
2FE
330
17
100
AcDbEntity
  8
0
100
AcDbLine
 10
1008.7846323746833
 20
600.1497152911959
 30
0.0
 11
1010.340856796034
 21
598.8365329684254
 31
0.0
  0
LINE
  5
2FF
330
17
100
AcDbEntity
  8
0
100
AcDbLine
 10
1010.340856796034
 20
598.8365329684254
 30
0.0
 11
1011.9219495458641
 21
597.5534008712204
 31
0.0
  0
LINE
  5
300
330
17
100
AcDbEntity
  8
0
100
AcDbLine
 10
1011.9219495458641
 20
597.5534008712204
 30
0.0
 11
1013.5273304530406
 21
596.3007898360955
 31
0.0
  0
LINE
  5
301
330
17
100
AcDbEntity
  8
0
100
AcDbLine
 10
1013.5273304530406
 20
596.3007898360955
 30
0.0
 11
1015.1564104340591
 21
595.0791595000732
 31
0.0
  0
LINE
  5
302
330
17
100
AcDbEntity
  8
0
100
AcDbLine
 10
1015.1564104340591
 20
595.0791595000732
 30
0.0
 11
1016.8085917092006
 21
593.8889581320202
 31
0.0
  0
LINE
  5
303
330
17
100
AcDbEntity
  8
0
100
AcDbLine
 10
1016.8085917092006
 20
593.8889581320202
 30
0.0
 11
1018.4832680218874
 21
592.7306224681604
 31
0.0
  0
LINE
  5
304
330
17
100
AcDbEntity
  8
0
100
AcDbLine
 10
1018.4832680218874
 20
592.7306224681604
 30
0.0
 11
1020.1798248611402
 21
591.6045775518137
 31
0.0
  0
LINE
  5
305
330
17
100
AcDbEntity
  8
0
100
AcDbLine
 10
1020.1798248611402
 20
591.6045775518137
 30
0.0
 11
1021.8976396870714
 21
590.5112365774353
 31
0.0
  0
LINE
  5
306
330
17
100
AcDbEntity
  8
0
100
AcDbLine
 10
1021.8976396870714
 20
590.5112365774353
 30
0.0
 11
1023.6360821593208
 21
589.4510007389906
 31
0.0
  0
LINE
  5
307
330
17
100
AcDbEntity
  8
0
100
AcDbLine
 10
1023.6360821593208
 20
589.4510007389906
 30
0.0
 11
1025.3945143683552
 21
588.4242590827437
 31
0.0
  0
LINE
  5
308
330
17
100
AcDbEntity
  8
0
100
AcDbLine
 10
1025.3945143683552
 20
588.4242590827437
 30
0.0
 11
1027.1722910695455
 21
587.4313883644971
 31
0.0
  0
LINE
  5
309
330
17
100
AcDbEntity
  8
0
100
AcDbLine
 10
1027.1722910695455
 20
587.4313883644971
 30
0.0
 11
1028.9687599199322
 21
586.4727529113477
 31
0.0
  0
LINE
  5
30A
330
17
100
AcDbEntity
  8
0
100
AcDbLine
 10
1028.9687599199322
 20
586.4727529113477
 30
0.0
 11
1030.783261717601
 21
585.5487044879951
 31
0.0
  0
LINE
  5
30B
330
17
100
AcDbEntity
  8
0
100
AcDbLine
 10
1030.783261717601
 20
585.5487044879951
 30
0.0
 11
1032.6151306435713
 21
584.6595821676651
 31
0.0
  0
LINE
  5
30C
330
17
100
AcDbEntity
  8
0
100
AcDbLine
 10
1032.6151306435713
 20
584.6595821676651
 30
0.0
 11
1034.463694506114
 21
583.8057122076918
 31
0.0
  0
LINE
  5
30D
330
17
100
AcDbEntity
  8
0
100
AcDbLine
 10
1034.463694506114
 20
583.8057122076918
 30
0.0
 11
1036.3282749874077
 21
582.9874079297953
 31
0.0
  0
LINE
  5
30E
330
17
100
AcDbEntity
  8
0
100
AcDbLine
 10
1036.3282749874077
 20
582.9874079297953
 30
0.0
 11
1038.2081878924416
 21
582.2049696051142
 31
0.0
  0
LINE
  5
30F
330
17
100
AcDbEntity
  8
0
100
AcDbLine
 10
1038.2081878924416
 20
582.2049696051142
 30
0.0
 11
1040.1027434000791
 21
581.458684344022
 31
0.0
  0
LINE
  5
310
330
17
100
AcDbEntity
  8
0
100
AcDbLine
 10
1040.1027434000791
 20
581.458684344022
 30
0.0
 11
1042.0112463161802
 21
580.748825990772
 31
0.0
  0
LINE
  5
311
330
17
100
AcDbEntity
  8
0
100
AcDbLine
 10
1042.0112463161802
 20
580.748825990772
 30
0.0
 11
1043.9329963286987
 21
580.0756550230155
 31
0.0
  0
LINE
  5
312
330
17
100
AcDbEntity
  8
0
100
AcDbLine
 10
1043.9329963286987
 20
580.0756550230155
 30
0.0
 11
1045.8672882646574
 21
579.4394184562191
 31
0.0
  0
LINE
  5
313
330
17
100
AcDbEntity
  8
0
100
AcDbLine
 10
1045.8672882646574
 20
579.4394184562191
 30
0.0
 11
1047.8134123489067
 21
578.8403497530235
 31
0.0
  0
LINE
  5
314
330
17
100
AcDbEntity
  8
0
100
AcDbLine
 10
1047.8134123489067
 20
578.8403497530235
 30
0.0
 11
1049.7706544645716
 21
578.2786687375774
 31
0.0
  0
LINE
  5
315
330
17
100
AcDbEntity
  8
0
100
AcDbLine
 10
1049.7706544645716
 20
578.2786687375774
 30
0.0
 11
1051.7382964150906
 21
577.7545815148745
 31
0.0
  0
LINE
  5
316
330
17
100
AcDbEntity
  8
0
100
AcDbLine
 10
1051.7382964150906
 20
577.7545815148745
 30
0.0
 11
1053.7156161877563
 21
577.2682803951244
 31
0.0
  0
LINE
  5
317
330
17
100
AcDbEntity
  8
0
100
AcDbLine
 10
1053.7156161877563
 20
577.2682803951244
 30
0.0
 11
1055.701888218649
 21
576.8199438231844
 31
0.0
  0
LINE
  5
318
330
17
100
AcDbEntity
  8
0
100
AcDbLine
 10
1055.701888218649
 20
576.8199438231844
 30
0.0
 11
1057.6963836588793
 21
576.4097363130836
 31
0.0
  0
LINE
  5
319
330
17
100
AcDbEntity
  8
0
100
AcDbLine
 10
1057.6963836588793
 20
576.4097363130836
 30
0.0
 11
1059.6983706420353
 21
576.037808387651
 31
0.0
  0
LINE
  5
31A
330
17
100
AcDbEntity
  8
0
100
AcDbLine
 10
1059.6983706420353
 20
576.037808387651
 30
0.0
 11
1061.7071145527354
 21
575.704296523287
 31
0.0
  0
LINE
  5
31B
330
17
100
AcDbEntity
  8
0
100
AcDbLine
 10
1061.7071145527354
 20
575.704296523287
 30
0.0
 11
1063.7218782961875
 21
575.409323099881
 31
0.0
  0
LINE
  5
31C
330
17
100
AcDbEntity
  8
0
100
AcDbLine
 10
1063.7218782961875
 20
575.409323099881
 30
0.0
 11
1065.741922568664
 21
575.1529963559061
 31
0.0
  0
LINE
  5
31D
330
17
100
AcDbEntity
  8
0
100
AcDbLine
 10
1065.741922568664
 20
575.1529963559061
 30
0.0
 11
1067.7665061287855
 21
574.9354103487009
 31
0.0
  0
LINE
  5
31E
330
17
100
AcDbEntity
  8
0
100
AcDbLine
 10
1067.7665061287855
 20
574.9354103487009
 30
0.0
 11
1069.7948860695092
 21
574.7566449199585
 31
0.0
  0
LINE
  5
31F
330
17
100
AcDbEntity
  8
0
100
AcDbLine
 10
1069.7948860695092
 20
574.7566449199585
 30
0.0
 11
1071.8263180907384
 21
574.6167656664253
 31
0.0
  0
LINE
  5
320
330
17
100
AcDbEntity
  8
0
100
AcDbLine
 10
1071.8263180907384
 20
574.6167656664253
 30
0.0
 11
1073.8600567724354
 21
574.5158239158334
 31
0.0
  0
LINE
  5
321
330
17
100
AcDbEntity
  8
0
100
AcDbLine
 10
1073.8600567724354
 20
574.5158239158334
 30
0.0
 11
1075.8953558481503
 21
574.453856708066
 31
0.0
  0
LINE
  5
322
330
17
100
AcDbEntity
  8
0
100
AcDbLine
 10
1075.8953558481503
 20
574.453856708066
 30
0.0
 11
1077.9314684788565
 21
574.4308867815639
 31
0.0
  0
LINE
  5
323
330
17
100
AcDbEntity
  8
0
100
AcDbLine
 10
1077.9314684788565
 20
574.4308867815639
 30
0.0
 11
1079.967647526999
 21
574.4469225649841
 31
0.0
  0
LINE
  5
324
330
17
100
AcDbEntity
  8
0
100
AcDbLine
 10
1079.967647526999
 20
574.4469225649864
 30
0.0
 11
1078.5941244202054
 21
574.4029579751658
 31
0.0
  0
LINE
  5
325
330
17
100
AcDbEntity
  8
0
100
AcDbLine
 10
1078.5941244202054
 20
574.4029579751658
 30
0.0
 11
1077.2224610799788
 21
574.3190634513135
 31
0.0
  0
LINE
  5
326
330
17
100
AcDbEntity
  8
0
100
AcDbLine
 10
1077.2224610799788
 20
574.3190634513135
 30
0.0
 11
1075.853818070446
 21
574.1953099765713
 31
0.0
  0
LINE
  5
327
330
17
100
AcDbEntity
  8
0
100
AcDbLine
 10
1075.853818070446
 20
574.1953099765713
 30
0.0
 11
1074.4893534002324
 21
574.0318022587348
 31
0.0
  0
LINE
  5
328
330
17
100
AcDbEntity
  8
0
100
AcDbLine
 10
1074.4893534002324
 20
574.0318022587348
 30
0.0
 11
1073.1302215426706
 21
573.8286786416562
 31
0.0
  0
LINE
  5
329
330
17
100
AcDbEntity
  8
0
100
AcDbLine
 10
1073.1302215426706
 20
573.8286786416562
 30
0.0
 11
1071.7775724590022
 21
573.5861109881957
 31
0.0
  0
LINE
  5
32A
330
17
100
AcDbEntity
  8
0
100
AcDbLine
 10
1071.7775724590022
 20
573.5861109881957
 30
0.0
 11
1070.432550625395
 21
573.3043045348048
 31
0.0
  0
LINE
  5
32B
330
17
100
AcDbEntity
  8
0
100
AcDbLine
 10
1070.432550625395
 20
573.3043045348048
 30
0.0
 11
1069.0962940646002
 21
572.9834977178762
 31
0.0
  0
LINE
  5
32C
330
17
100
AcDbEntity
  8
0
100
AcDbLine
 10
1069.0962940646002
 20
572.9834977178762
 30
0.0
 11
1067.769933383075
 21
572.6239619720068
 31
0.0
  0
LINE
  5
32D
330
17
100
AcDbEntity
  8
0
100
AcDbLine
 10
1067.769933383075
 20
572.6239619720068
 30
0.0
 11
1066.4545908143741
 21
572.2260015003299
 31
0.0
  0
LINE
  5
32E
330
17
100
AcDbEntity
  8
0
100
AcDbLine
 10
1066.4545908143741
 20
572.2260015003299
 30
0.0
 11
1065.1513792696283
 21
571.7899530171369
 31
0.0
  0
LINE
  5
32F
330
17
100
AcDbEntity
  8
0
100
AcDbLine
 10
1065.1513792696283
 20
571.7899530171369
 30
0.0
 11
1063.8614013959111
 21
571.3161854629773
 31
0.0
  0
LINE
  5
330
330
17
100
AcDbEntity
  8
0
100
AcDbLine
 10
1063.8614013959111
 20
571.3161854629773
 30
0.0
 11
1062.5857486432903
 21
570.8050996925006
 31
0.0
  0
LINE
  5
331
330
17
100
AcDbEntity
  8
0
100
AcDbLine
 10
1062.5857486432903
 20
570.8050996925006
 30
0.0
 11
1061.3255003413494
 21
570.257128135293
 31
0.0
  0
LINE
  5
332
330
17
100
AcDbEntity
  8
0
100
AcDbLine
 10
1061.3255003413494
 20
570.257128135293
 30
0.0
 11
1060.0817227859693
 21
569.6727344299997
 31
0.0
  0
LINE
  5
333
330
17
100
AcDbEntity
  8
0
100
AcDbLine
 10
1060.0817227859693
 20
569.6727344299997
 30
0.0
 11
1058.8554683371353
 21
569.0524130320373
 31
0.0
  0
LINE
  5
334
330
17
100
AcDbEntity
  8
0
100
AcDbLine
 10
1058.8554683371353
 20
569.0524130320373
 30
0.0
 11
1057.6477745285356
 21
568.3966887952399
 31
0.0
  0
LINE
  5
335
330
17
100
AcDbEntity
  8
0
100
AcDbLine
 10
1057.6477745285356
 20
568.3966887952399
 30
0.0
 11
1056.4596631897025
 21
567.7061165277762
 31
0.0
  0
LINE
  5
336
330
17
100
AcDbEntity
  8
0
100
AcDbLine
 10
1056.4596631897025
 20
567.7061165277762
 30
0.0
 11
1055.2921395814449
 21
566.9812805227282
 31
0.0
  0
LINE
  5
337
330
17
100
AcDbEntity
  8
0
100
AcDbLine
 10
1055.2921395814449
 20
566.9812805227282
 30
0.0
 11
1054.1461915452953
 21
566.2227940637201
 31
0.0
  0
LINE
  5
338
330
17
100
AcDbEntity
  8
0
100
AcDbLine
 10
1054.1461915452953
 20
566.2227940637201
 30
0.0
 11
1053.0227886676987
 21
565.4312989060206
 31
0.0
  0
LINE
  5
339
330
17
100
AcDbEntity
  8
0
100
AcDbLine
 10
1053.0227886676987
 20
565.4312989060206
 30
0.0
 11
1051.9228814596454
 21
564.6074647335524
 31
0.0
  0
LINE
  5
33A
330
17
100
AcDbEntity
  8
0
100
AcDbLine
 10
1051.9228814596454
 20
564.6074647335524
 30
0.0
 11
1050.8474005524433
 21
563.7519885922736
 31
0.0
  0
LINE
  5
33B
330
17
100
AcDbEntity
  8
0
100
AcDbLine
 10
1050.8474005524433
 20
563.7519885922736
 30
0.0
 11
1049.7972559103114
 21
562.8655943004064
 31
0.0
  0
LINE
  5
33C
330
17
100
AcDbEntity
  8
0
100
AcDbLine
 10
1049.7972559103114
 20
562.8655943004064
 30
0.0
 11
1048.7733360604577
 21
561.9490318360147
 31
0.0
  0
LINE
  5
33D
330
17
100
AcDbEntity
  8
0
100
AcDbLine
 10
1048.7733360604577
 20
561.9490318360147
 30
0.0
 11
1047.7765073413004
 21
561.0030767024504
 31
0.0
  0
LINE
  5
33E
330
17
100
AcDbEntity
  8
0
100
AcDbLine
 10
1047.7765073413004
 20
561.0030767024504
 30
0.0
 11
1046.8076131694538
 21
560.0285292721956
 31
0.0
  0
ENDSEC
  0
SECTION
  2
OBJECTS
  0
DICTIONARY
  5
A
330
0
100
AcDbDictionary
281
1
  3
ACAD_COLOR
350
B
  3
ACAD_GROUP
350
C
  3
ACAD_LAYOUT
350
D
  3
ACAD_MATERIAL
350
E
  3
ACAD_MLEADERSTYLE
350
F
  3
ACAD_MLINESTYLE
350
10
  3
ACAD_PLOTSETTINGS
350
11
  3
ACAD_PLOTSTYLENAME
350
12
  3
ACAD_SCALELIST
350
14
  3
ACAD_TABLESTYLE
350
15
  3
ACAD_VISUALSTYLE
350
16
  3
EZDXF_META
350
2D
  0
DICTIONARY
  5
B
330
A
100
AcDbDictionary
281
1
  0
DICTIONARY
  5
C
330
A
100
AcDbDictionary
281
1
  0
DICTIONARY
  5
D
330
A
100
AcDbDictionary
281
1
  3
Model
350
1A
  3
Layout1
350
1E
  0
DICTIONARY
  5
E
330
A
100
AcDbDictionary
281
1
  3
ByBlock
350
1F
  3
ByLayer
350
20
  3
Global
350
21
  0
DICTIONARY
  5
F
330
A
100
AcDbDictionary
281
1
  3
Standard
350
2C
  0
DICTIONARY
  5
10
330
A
100
AcDbDictionary
281
1
  3
Standard
350
22
  0
DICTIONARY
  5
11
330
A
100
AcDbDictionary
281
1
  0
ACDBDICTIONARYWDFLT
  5
12
330
A
100
AcDbDictionary
281
1
  3
Normal
350
13
100
AcDbDictionaryWithDefault
340
13
  0
ACDBPLACEHOLDER
  5
13
330
12
  0
DICTIONARY
  5
14
330
A
100
AcDbDictionary
281
1
  0
DICTIONARY
  5
15
330
A
100
AcDbDictionary
281
1
  0
DICTIONARY
  5
16
330
A
100
AcDbDictionary
281
1
  0
LAYOUT
  5
1A
330
D
100
AcDbPlotSettings
  1

  4
A3
  6

 40
7.5
 41
20.0
 42
7.5
 43
20.0
 44
420.0
 45
297.0
 46
0.0
 47
0.0
 48
0.0
 49
0.0
140
0.0
141
0.0
142
1.0
143
1.0
 70
1024
 72
1
 73
0
 74
5
  7

 75
16
 76
0
 77
2
 78
300
147
1.0
148
0.0
149
0.0
100
AcDbLayout
  1
Model
 70
1
 71
0
 10
0.0
 20
0.0
 11
420.0
 21
297.0
 12
0.0
 22
0.0
 32
0.0
 14
1e+20
 24
1e+20
 34
1e+20
 15
-1e+20
 25
-1e+20
 35
-1e+20
146
0.0
 13
0.0
 23
0.0
 33
0.0
 16
1.0
 26
0.0
 36
0.0
 17
0.0
 27
1.0
 37
0.0
 76
1
330
17
  0
LAYOUT
  5
1E
330
D
100
AcDbPlotSettings
  1

  4
A3
  6

 40
7.5
 41
20.0
 42
7.5
 43
20.0
 44
420.0
 45
297.0
 46
0.0
 47
0.0
 48
0.0
 49
0.0
140
0.0
141
0.0
142
1.0
143
1.0
 70
0
 72
1
 73
0
 74
5
  7

 75
16
 76
0
 77
2
 78
300
147
1.0
148
0.0
149
0.0
100
AcDbLayout
  1
Layout1
 70
1
 71
1
 10
0.0
 20
0.0
 11
420.0
 21
297.0
 12
0.0
 22
0.0
 32
0.0
 14
1e+20
 24
1e+20
 34
1e+20
 15
-1e+20
 25
-1e+20
 35
-1e+20
146
0.0
 13
0.0
 23
0.0
 33
0.0
 16
1.0
 26
0.0
 36
0.0
 17
0.0
 27
1.0
 37
0.0
 76
1
330
1B
  0
MATERIAL
  5
1F
102
{ACAD_REACTORS
330
E
102
}
330
E
100
AcDbMaterial
  1
ByBlock
  2

 70
0
 40
1.0
 71
1
 41
1.0
 91
-1023410177
 42
1.0
 72
1
  3

 73
1
 74
1
 75
1
 44
0.5
 73
0
 45
1.0
 46
1.0
 77
1
  4

 78
1
 79
1
170
1
 48
1.0
171
1
  6

172
1
173
1
174
1
140
1.0
141
1.0
175
1
  7

176
1
177
1
178
1
143
1.0
179
1
  8

270
1
271
1
272
1
145
1.0
146
1.0
273
1
  9

274
1
275
1
276
1
 42
1.0
 72
1
  3

 73
1
 74
1
 75
1
 94
63
  0
MATERIAL
  5
20
102
{ACAD_REACTORS
330
E
102
}
330
E
100
AcDbMaterial
  1
ByLayer
  2

 70
0
 40
1.0
 71
1
 41
1.0
 91
-1023410177
 42
1.0
 72
1
  3

 73
1
 74
1
 75
1
 44
0.5
 73
0
 45
1.0
 46
1.0
 77
1
  4

 78
1
 79
1
170
1
 48
1.0
171
1
  6

172
1
173
1
174
1
140
1.0
141
1.0
175
1
  7

176
1
177
1
178
1
143
1.0
179
1
  8

270
1
271
1
272
1
145
1.0
146
1.0
273
1
  9

274
1
275
1
276
1
 42
1.0
 72
1
  3

 73
1
 74
1
 75
1
 94
63
  0
MATERIAL
  5
21
102
{ACAD_REACTORS
330
E
102
}
330
E
100
AcDbMaterial
  1
Global
  2

 70
0
 40
1.0
 71
1
 41
1.0
 91
-1023410177
 42
1.0
 72
1
  3

 73
1
 74
1
 75
1
 44
0.5
 73
0
 45
1.0
 46
1.0
 77
1
  4

 78
1
 79
1
170
1
 48
1.0
171
1
  6

172
1
173
1
174
1
140
1.0
141
1.0
175
1
  7

176
1
177
1
178
1
143
1.0
179
1
  8

270
1
271
1
272
1
145
1.0
146
1.0
273
1
  9

274
1
275
1
276
1
 42
1.0
 72
1
  3

 73
1
 74
1
 75
1
 94
63
  0
MLINESTYLE
  5
22
102
{ACAD_REACTORS
330
10
102
}
330
10
100
AcDbMlineStyle
  2
Standard
 70
0
  3

 62
256
 51
90.0
 52
90.0
 71
2
 49
0.5
 62
256
  6
BYLAYER
 49
-0.5
 62
256
  6
BYLAYER
  0
MLEADERSTYLE
  5
2C
102
{ACAD_REACTORS
330
F
102
}
330
F
100
AcDbMLeaderStyle
179
2
170
2
171
1
172
0
 90
2
 40
0.0
 41
0.0
173
1
 91
-1056964608
 92
-2
290
1
 42
2.0
291
1
 43
8.0
  3
Standard
 44
4.0
300

342
29
174
1
175
1
176
0
178
1
 93
-1056964608
 45
4.0
292
0
297
0
 46
4.0
 94
-1056964608
 47
1.0
 49
1.0
140
1.0
294
1
141
0.0
177
0
142
1.0
295
0
296
0
143
3.75
271
0
272
9
273
9
  0
DICTIONARY
  5
2D
330
A
100
AcDbDictionary
280
1
281
1
  3
CREATED_BY_EZDXF
350
2E
  3
WRITTEN_BY_EZDXF
350
341
  0
DICTIONARYVAR
  5
2E
330
2D
100
DictionaryVariables
280
0
  1
1.4.3 @ 2026-04-16T10:53:41.148172+00:00
  0
DICTIONARYVAR
  5
341
330
2D
100
DictionaryVariables
280
0
  1
1.4.3 @ 2026-04-16T10:53:41.160308+00:00
  0
ENDSEC
  0
EOF
