  0
SECTION
  2
HEADER
  9
$ACADVER
  1
AC1024
  9
$ACADMAINTVER
 70
6
  9
$DWGCODEPAGE
  3
ANSI_1252
  9
$LASTSAVEDBY
  1
ezdxf
  9
$INSBASE
 10
0.0
 20
0.0
 30
0.0
  9
$EXTMIN
 10
1e+20
 20
1e+20
 30
1e+20
  9
$EXTMAX
 10
-1e+20
 20
-1e+20
 30
-1e+20
  9
$LIMMIN
 10
0.0
 20
0.0
  9
$LIMMAX
 10
420.0
 20
297.0
  9
$ORTHOMODE
 70
0
  9
$REGENMODE
 70
1
  9
$FILLMODE
 70
1
  9
$QTEXTMODE
 70
0
  9
$MIRRTEXT
 70
1
  9
$LTSCALE
 40
1.0
  9
$ATTMODE
 70
1
  9
$TEXTSIZE
 40
2.5
  9
$TRACEWID
 40
1.0
  9
$TEXTSTYLE
  7
Standard
  9
$CLAYER
  8
0
  9
$CELTYPE
  6
ByLayer
  9
$CECOLOR
 62
256
  9
$CELTSCALE
 40
1.0
  9
$DISPSILH
 70
0
  9
$DIMSCALE
 40
1.0
  9
$DIMASZ
 40
2.5
  9
$DIMEXO
 40
0.625
  9
$DIMDLI
 40
3.75
  9
$DIMRND
 40
0.0
  9
$DIMDLE
 40
0.0
  9
$DIMEXE
 40
1.25
  9
$DIMTP
 40
0.0
  9
$DIMTM
 40
0.0
  9
$DIMTXT
 40
2.5
  9
$DIMCEN
 40
2.5
  9
$DIMTSZ
 40
0.0
  9
$DIMTOL
 70
0
  9
$DIMLIM
 70
0
  9
$DIMTIH
 70
0
  9
$DIMTOH
 70
0
  9
$DIMSE1
 70
0
  9
$DIMSE2
 70
0
  9
$DIMTAD
 70
1
  9
$DIMZIN
 70
8
  9
$DIMBLK
  1

  9
$DIMASO
 70
1
  9
$DIMSHO
 70
1
  9
$DIMPOST
  1

  9
$DIMAPOST
  1

  9
$DIMALT
 70
0
  9
$DIMALTD
 70
3
  9
$DIMALTF
 40
0.03937007874
  9
$DIMLFAC
 40
1.0
  9
$DIMTOFL
 70
1
  9
$DIMTVP
 40
0.0
  9
$DIMTIX
 70
0
  9
$DIMSOXD
 70
0
  9
$DIMSAH
 70
0
  9
$DIMBLK1
  1

  9
$DIMBLK2
  1

  9
$DIMSTYLE
  2
ISO-25
  9
$DIMCLRD
 70
0
  9
$DIMCLRE
 70
0
  9
$DIMCLRT
 70
0
  9
$DIMTFAC
 40
1.0
  9
$DIMGAP
 40
0.625
  9
$DIMJUST
 70
0
  9
$DIMSD1
 70
0
  9
$DIMSD2
 70
0
  9
$DIMTOLJ
 70
0
  9
$DIMTZIN
 70
8
  9
$DIMALTZ
 70
0
  9
$DIMALTTZ
 70
0
  9
$DIMUPT
 70
0
  9
$DIMDEC
 70
2
  9
$DIMTDEC
 70
2
  9
$DIMALTU
 70
2
  9
$DIMALTTD
 70
3
  9
$DIMTXSTY
  7
Standard
  9
$DIMAUNIT
 70
0
  9
$DIMADEC
 70
0
  9
$DIMALTRND
 40
0.0
  9
$DIMAZIN
 70
0
  9
$DIMDSEP
 70
44
  9
$DIMATFIT
 70
3
  9
$DIMFRAC
 70
0
  9
$DIMLDRBLK
  1

  9
$DIMLUNIT
 70
2
  9
$DIMLWD
 70
-2
  9
$DIMLWE
 70
-2
  9
$DIMTMOVE
 70
0
  9
$DIMFXL
 40
1.0
  9
$DIMFXLON
 70
0
  9
$DIMJOGANG
 40
0.785398163397
  9
$DIMTFILL
 70
0
  9
$DIMTFILLCLR
 70
0
  9
$DIMARCSYM
 70
0
  9
$DIMLTYPE
  6

  9
$DIMLTEX1
  6

  9
$DIMLTEX2
  6

  9
$DIMTXTDIRECTION
 70
0
  9
$LUNITS
 70
2
  9
$LUPREC
 70
4
  9
$SKETCHINC
 40
1.0
  9
$FILLETRAD
 40
10.0
  9
$AUNITS
 70
0
  9
$AUPREC
 70
2
  9
$MENU
  1
.
  9
$ELEVATION
 40
0.0
  9
$PELEVATION
 40
0.0
  9
$THICKNESS
 40
0.0
  9
$LIMCHECK
 70
0
  9
$CHAMFERA
 40
0.0
  9
$CHAMFERB
 40
0.0
  9
$CHAMFERC
 40
0.0
  9
$CHAMFERD
 40
0.0
  9
$SKPOLY
 70
0
  9
$TDCREATE
 40
2461147.4846412037
  9
$TDUCREATE
 40
2458532.153996898
  9
$TDUPDATE
 40
2461147.4846412037
  9
$TDUUPDATE
 40
2458532.1544311
  9
$TDINDWG
 40
0.0
  9
$TDUSRTIMER
 40
0.0
  9
$USRTIMER
 70
1
  9
$ANGBASE
 50
0.0
  9
$ANGDIR
 70
0
  9
$PDMODE
 70
0
  9
$PDSIZE
 40
0.0
  9
$PLINEWID
 40
0.0
  9
$SPLFRAME
 70
0
  9
$SPLINETYPE
 70
6
  9
$SPLINESEGS
 70
8
  9
$HANDSEED
  5
33E
  9
$SURFTAB1
 70
6
  9
$SURFTAB2
 70
6
  9
$SURFTYPE
 70
6
  9
$SURFU
 70
6
  9
$SURFV
 70
6
  9
$UCSBASE
  2

  9
$UCSNAME
  2

  9
$UCSORG
 10
0.0
 20
0.0
 30
0.0
  9
$UCSXDIR
 10
1.0
 20
0.0
 30
0.0
  9
$UCSYDIR
 10
0.0
 20
1.0
 30
0.0
  9
$UCSORTHOREF
  2

  9
$UCSORTHOVIEW
 70
0
  9
$UCSORGTOP
 10
0.0
 20
0.0
 30
0.0
  9
$UCSORGBOTTOM
 10
0.0
 20
0.0
 30
0.0
  9
$UCSORGLEFT
 10
0.0
 20
0.0
 30
0.0
  9
$UCSORGRIGHT
 10
0.0
 20
0.0
 30
0.0
  9
$UCSORGFRONT
 10
0.0
 20
0.0
 30
0.0
  9
$UCSORGBACK
 10
0.0
 20
0.0
 30
0.0
  9
$PUCSBASE
  2

  9
$PUCSNAME
  2

  9
$PUCSORG
 10
0.0
 20
0.0
 30
0.0
  9
$PUCSXDIR
 10
1.0
 20
0.0
 30
0.0
  9
$PUCSYDIR
 10
0.0
 20
1.0
 30
0.0
  9
$PUCSORTHOREF
  2

  9
$PUCSORTHOVIEW
 70
0
  9
$PUCSORGTOP
 10
0.0
 20
0.0
 30
0.0
  9
$PUCSORGBOTTOM
 10
0.0
 20
0.0
 30
0.0
  9
$PUCSORGLEFT
 10
0.0
 20
0.0
 30
0.0
  9
$PUCSORGRIGHT
 10
0.0
 20
0.0
 30
0.0
  9
$PUCSORGFRONT
 10
0.0
 20
0.0
 30
0.0
  9
$PUCSORGBACK
 10
0.0
 20
0.0
 30
0.0
  9
$USERI1
 70
0
  9
$USERI2
 70
0
  9
$USERI3
 70
0
  9
$USERI4
 70
0
  9
$USERI5
 70
0
  9
$USERR1
 40
0.0
  9
$USERR2
 40
0.0
  9
$USERR3
 40
0.0
  9
$USERR4
 40
0.0
  9
$USERR5
 40
0.0
  9
$WORLDVIEW
 70
1
  9
$SHADEDGE
 70
3
  9
$SHADEDIF
 70
70
  9
$TILEMODE
 70
1
  9
$MAXACTVP
 70
64
  9
$PINSBASE
 10
0.0
 20
0.0
 30
0.0
  9
$PLIMCHECK
 70
0
  9
$PEXTMIN
 10
1e+20
 20
1e+20
 30
1e+20
  9
$PEXTMAX
 10
-1e+20
 20
-1e+20
 30
-1e+20
  9
$PLIMMIN
 10
0.0
 20
0.0
  9
$PLIMMAX
 10
420.0
 20
297.0
  9
$UNITMODE
 70
0
  9
$VISRETAIN
 70
1
  9
$PLINEGEN
 70
0
  9
$PSLTSCALE
 70
1
  9
$TREEDEPTH
 70
3020
  9
$CMLSTYLE
  2
Standard
  9
$CMLJUST
 70
0
  9
$CMLSCALE
 40
20.0
  9
$PROXYGRAPHICS
 70
1
  9
$MEASUREMENT
 70
1
  9
$CELWEIGHT
370
-1
  9
$ENDCAPS
280
0
  9
$JOINSTYLE
280
0
  9
$LWDISPLAY
290
0
  9
$INSUNITS
 70
0
  9
$HYPERLINKBASE
  1

  9
$STYLESHEET
  1

  9
$XEDIT
290
1
  9
$CEPSNTYPE
380
0
  9
$PSTYLEMODE
290
1
  9
$FINGERPRINTGUID
  2
{F325C718-FA87-40F4-B728-E8FCF2F92E6D}
  9
$VERSIONGUID
  2
{4CDDAF48-F809-4F26-BDFD-E6C9152F1116}
  9
$EXTNAMES
290
1
  9
$PSVPSCALE
 40
0.0
  9
$OLESTARTUP
290
0
  9
$SORTENTS
280
127
  9
$INDEXCTL
280
0
  9
$HIDETEXT
280
1
  9
$XCLIPFRAME
280
1
  9
$HALOGAP
280
0
  9
$OBSCOLOR
 70
257
  9
$OBSLTYPE
280
0
  9
$INTERSECTIONDISPLAY
280
0
  9
$INTERSECTIONCOLOR
 70
257
  9
$DIMASSOC
280
2
  9
$PROJECTNAME
  1

  9
$CAMERADISPLAY
290
0
  9
$LENSLENGTH
 40
50.0
  9
$CAMERAHEIGHT
 40
0.0
  9
$STEPSPERSEC
 40
24.0
  9
$STEPSIZE
 40
100.0
  9
$3DDWFPREC
 40
2.0
  9
$PSOLWIDTH
 40
0.005
  9
$PSOLHEIGHT
 40
0.08
  9
$LOFTANG1
 40
1.570796326795
  9
$LOFTANG2
 40
1.570796326795
  9
$LOFTMAG1
 40
0.0
  9
$LOFTMAG2
 40
0.0
  9
$LOFTPARAM
 70
7
  9
$LOFTNORMALS
280
1
  9
$LATITUDE
 40
37.795
  9
$LONGITUDE
 40
-122.394
  9
$NORTHDIRECTION
 40
0.0
  9
$TIMEZONE
 70
-8000
  9
$LIGHTGLYPHDISPLAY
280
1
  9
$TILEMODELIGHTSYNCH
280
1
  9
$CMATERIAL
347
20
  9
$SOLIDHIST
280
0
  9
$SHOWHIST
280
1
  9
$DWFFRAME
280
2
  9
$DGNFRAME
280
2
  9
$REALWORLDSCALE
290
1
  9
$INTERFERECOLOR
 62
256
  9
$CSHADOW
280
0
  9
$SHADOWPLANELOCATION
 40
0.0
  0
ENDSEC
  0
SECTION
  2
CLASSES
  0
CLASS
  1
ACDBDICTIONARYWDFLT
  2
AcDbDictionaryWithDefault
  3
ObjectDBX Classes
 90
0
 91
0
280
0
281
0
  0
CLASS
  1
SUN
  2
AcDbSun
  3
SCENEOE
 90
1153
 91
0
280
0
281
0
  0
CLASS
  1
VISUALSTYLE
  2
AcDbVisualStyle
  3
ObjectDBX Classes
 90
4095
 91
0
280
0
281
0
  0
CLASS
  1
MATERIAL
  2
AcDbMaterial
  3
ObjectDBX Classes
 90
1153
 91
0
280
0
281
0
  0
CLASS
  1
SCALE
  2
AcDbScale
  3
ObjectDBX Classes
 90
1153
 91
0
280
0
281
0
  0
CLASS
  1
TABLESTYLE
  2
AcDbTableStyle
  3
ObjectDBX Classes
 90
4095
 91
0
280
0
281
0
  0
CLASS
  1
MLEADERSTYLE
  2
AcDbMLeaderStyle
  3
ACDB_MLEADERSTYLE_CLASS
 90
4095
 91
0
280
0
281
0
  0
CLASS
  1
DICTIONARYVAR
  2
AcDbDictionaryVar
  3
ObjectDBX Classes
 90
0
 91
0
280
0
281
0
  0
CLASS
  1
CELLSTYLEMAP
  2
AcDbCellStyleMap
  3
ObjectDBX Classes
 90
1152
 91
0
280
0
281
0
  0
CLASS
  1
MENTALRAYRENDERSETTINGS
  2
AcDbMentalRayRenderSettings
  3
SCENEOE
 90
1024
 91
0
280
0
281
0
  0
CLASS
  1
ACDBDETAILVIEWSTYLE
  2
AcDbDetailViewStyle
  3
ObjectDBX Classes
 90
1025
 91
0
280
0
281
0
  0
CLASS
  1
ACDBSECTIONVIEWSTYLE
  2
AcDbSectionViewStyle
  3
ObjectDBX Classes
 90
1025
 91
0
280
0
281
0
  0
CLASS
  1
RASTERVARIABLES
  2
AcDbRasterVariables
  3
ISM
 90
0
 91
0
280
0
281
0
  0
CLASS
  1
ACDBPLACEHOLDER
  2
AcDbPlaceHolder
  3
ObjectDBX Classes
 90
0
 91
0
280
0
281
0
  0
CLASS
  1
LAYOUT
  2
AcDbLayout
  3
ObjectDBX Classes
 90
0
 91
0
280
0
281
0
  0
ENDSEC
  0
SECTION
  2
TABLES
  0
TABLE
  2
VPORT
  5
8
330
0
100
AcDbSymbolTable
 70
1
  0
VPORT
  5
23
330
8
100
AcDbSymbolTableRecord
100
AcDbViewportTableRecord
  2
*Active
 70
0
 10
0.0
 20
0.0
 11
1.0
 21
1.0
 12
0.0
 22
0.0
 13
0.0
 23
0.0
 14
0.5
 24
0.5
 15
0.5
 25
0.5
 16
0.0
 26
0.0
 36
1.0
 17
0.0
 27
0.0
 37
0.0
 40
1000.0
 41
1.34
 42
50.0
 43
0.0
 44
0.0
 50
0.0
 51
0.0
 71
0
 72
1000
 73
1
 74
3
 75
0
 76
0
 77
0
 78
0
281
0
 65
0
146
0.0
  0
ENDTAB
  0
TABLE
  2
LTYPE
  5
2
330
0
100
AcDbSymbolTable
 70
3
  0
LTYPE
  5
24
330
2
100
AcDbSymbolTableRecord
100
AcDbLinetypeTableRecord
  2
ByBlock
 70
0
  3

 72
65
 73
0
 40
0.0
  0
LTYPE
  5
25
330
2
100
AcDbSymbolTableRecord
100
AcDbLinetypeTableRecord
  2
ByLayer
 70
0
  3

 72
65
 73
0
 40
0.0
  0
LTYPE
  5
26
330
2
100
AcDbSymbolTableRecord
100
AcDbLinetypeTableRecord
  2
Continuous
 70
0
  3

 72
65
 73
0
 40
0.0
  0
ENDTAB
  0
TABLE
  2
LAYER
  5
1
330
0
100
AcDbSymbolTable
 70
2
  0
LAYER
  5
27
330
1
100
AcDbSymbolTableRecord
100
AcDbLayerTableRecord
  2
0
 70
0
 62
7
  6
Continuous
370
-3
390
13
347
21
  0
LAYER
  5
28
330
1
100
AcDbSymbolTableRecord
100
AcDbLayerTableRecord
  2
Defpoints
 70
0
 62
7
  6
Continuous
290
0
370
-3
390
13
347
21
  0
ENDTAB
  0
TABLE
  2
STYLE
  5
5
330
0
100
AcDbSymbolTable
 70
1
  0
STYLE
  5
29
330
5
100
AcDbSymbolTableRecord
100
AcDbTextStyleTableRecord
  2
Standard
 70
0
 40
0.0
 41
1.0
 50
0.0
 71
0
 42
2.5
  3
txt
  4

  0
ENDTAB
  0
TABLE
  2
VIEW
  5
7
330
0
100
AcDbSymbolTable
 70
0
  0
ENDTAB
  0
TABLE
  2
UCS
  5
6
330
0
100
AcDbSymbolTable
 70
0
  0
ENDTAB
  0
TABLE
  2
APPID
  5
3
330
0
100
AcDbSymbolTable
 70
3
  0
APPID
  5
2A
330
3
100
AcDbSymbolTableRecord
100
AcDbRegAppTableRecord
  2
ACAD
 70
0
  0
APPID
  5
33B
330
3
100
AcDbSymbolTableRecord
100
AcDbRegAppTableRecord
  2
HATCHBACKGROUNDCOLOR
 70
0
  0
APPID
  5
33C
330
3
100
AcDbSymbolTableRecord
100
AcDbRegAppTableRecord
  2
EZDXF
 70
0
  0
ENDTAB
  0
TABLE
  2
DIMSTYLE
  5
4
330
0
100
AcDbSymbolTable
 70
1
100
AcDbDimStyleTable
  0
DIMSTYLE
105
2B
330
4
100
AcDbSymbolTableRecord
100
AcDbDimStyleTableRecord
  2
Standard
 70
0
 40
1.0
 41
2.5
 42
0.625
 43
3.75
 44
1.25
 45
0.0
 46
0.0
 47
0.0
 48
0.0
 49
2.5
140
2.5
141
2.5
142
0.0
143
0.03937007874
144
1.0
145
0.0
146
1.0
147
0.625
148
0.0
 69
0
 70
0
 71
0
 72
0
 73
0
 74
0
 75
0
 76
0
 77
1
 78
8
 79
3
170
0
171
3
172
1
173
0
174
0
175
0
176
0
177
0
178
0
179
2
271
2
272
2
273
2
274
3
275
0
276
0
277
2
278
44
279
0
280
0
281
0
282
0
283
0
284
8
285
0
286
0
288
0
289
3
290
0
371
-2
372
-2
  0
ENDTAB
  0
TABLE
  2
BLOCK_RECORD
  5
9
330
0
100
AcDbSymbolTable
 70
2
  0
BLOCK_RECORD
  5
17
330
9
100
AcDbSymbolTableRecord
100
AcDbBlockTableRecord
  2
*Model_Space
340
1A
 70
0
280
1
281
0
  0
BLOCK_RECORD
  5
1B
330
9
100
AcDbSymbolTableRecord
100
AcDbBlockTableRecord
  2
*Paper_Space
340
1E
 70
0
280
1
281
0
  0
ENDTAB
  0
ENDSEC
  0
SECTION
  2
BLOCKS
  0
BLOCK
  5
18
330
17
100
AcDbEntity
  8
0
100
AcDbBlockBegin
  2
*Model_Space
 70
0
 10
0.0
 20
0.0
 30
0.0
  3
*Model_Space
  1

  0
ENDBLK
  5
19
330
17
100
AcDbEntity
  8
0
100
AcDbBlockEnd
  0
BLOCK
  5
1C
330
1B
100
AcDbEntity
  8
0
100
AcDbBlockBegin
  2
*Paper_Space
 70
0
 10
0.0
 20
0.0
 30
0.0
  3
*Paper_Space
  1

  0
ENDBLK
  5
1D
330
1B
100
AcDbEntity
  8
0
100
AcDbBlockEnd
  0
ENDSEC
  0
SECTION
  2
ENTITIES
  0
LINE
  5
2F
330
17
100
AcDbEntity
  8
0
100
AcDbLine
 10
527.8708792305772
 20
2039.4960179011518
 30
0.0
 11
563.6134076141338
 21
-8.192061779137589
 31
0.0
  0
LINE
  5
30
330
17
100
AcDbEntity
  8
0
100
AcDbLine
 10
1059.2859927979505
 20
2048.7719032123064
 30
0.0
 11
1095.028521181507
 21
1.0838235320170497
 31
0.0
  0
LINE
  5
31
330
17
100
AcDbEntity
  8
0
100
AcDbLine
 10
1590.701106365324
 20
2058.047788523461
 30
0.0
 11
1626.4436347488804
 21
10.359708843171575
 31
0.0
  0
LINE
  5
32
330
17
100
AcDbEntity
  8
0
100
AcDbLine
 10
-12.056172502049034
 20
1705.7613474384673
 30
0.0
 11
2035.6319071782402
 21
1741.503875822024
 31
0.0
  0
LINE
  5
33
330
17
100
AcDbEntity
  8
0
100
AcDbLine
 10
-0.7189793439711765
 20
1056.2539864116784
 30
0.0
 11
2046.9691003363182
 21
1091.996514795235
 31
0.0
  0
LINE
  5
34
330
17
100
AcDbEntity
  8
0
100
AcDbLine
 10
10.618213814106698
 20
406.74662538488883
 30
0.0
 11
2058.306293494396
 21
442.48915376844536
 31
0.0
  0
LINE
  5
35
330
17
100
AcDbEntity
  8
0
100
AcDbLine
 10
556.2043970766069
 20
416.2698676376742
 30
0.0
 11
767.5895200289648
 21
419.95960868366683
 31
0.0
  0
LINE
  5
36
330
17
100
AcDbEntity
  8
0
100
AcDbLine
 10
542.2806843231106
 20
401.8514410009126
 30
0.0
 11
767.8368769705955
 21
405.78853898853595
 31
0.0
  0
LINE
  5
37
330
17
100
AcDbEntity
  8
0
100
AcDbLine
 10
888.6838435821089
 20
1332.8419536981908
 30
0.0
 11
898.4750558549944
 21
771.9037782659641
 31
0.0
  0
LINE
  5
38
330
17
100
AcDbEntity
  8
0
100
AcDbLine
 10
550.1029258497142
 20
765.8229201175407
 30
0.0
 11
726.0603745642455
 21
768.8942688094562
 31
0.0
  0
LINE
  5
39
330
17
100
AcDbEntity
  8
0
100
AcDbLine
 10
1097.876777502882
 20
446.9878751977401
 30
0.0
 11
1096.5060077846779
 21
525.5192197582585
 31
0.0
  0
LINE
  5
3A
330
17
100
AcDbEntity
  8
0
100
AcDbLine
 10
1080.1629403839722
 20
446.6786790207018
 30
0.0
 11
1078.792170665768
 21
525.2100235812202
 31
0.0
  0
LINE
  5
3B
330
17
100
AcDbEntity
  8
0
100
AcDbLine
 10
550.4121220267526
 20
748.1090829986304
 30
0.0
 11
708.6557336223708
 21
750.8712355135075
 31
0.0
  0
LINE
  5
3C
330
17
100
AcDbEntity
  8
0
100
AcDbLine
 10
871.279202640234
 20
1314.8189204022435
 30
0.0
 11
881.0704149131194
 21
753.8807449700155
 31
0.0
  0
LINE
  5
3D
330
17
100
AcDbEntity
  8
0
100
AcDbLine
 10
540.3117135768288
 20
1326.7610955497673
 30
0.0
 11
888.6838435821089
 21
1332.8419536981908
 31
0.0
  0
LINE
  5
3E
330
17
100
AcDbEntity
  8
0
100
AcDbLine
 10
540.6209097538672
 20
1309.0472584308584
 30
0.0
 11
871.279202640234
 21
1314.8189204022435
 31
0.0
  0
LINE
  5
3F
330
17
100
AcDbEntity
  8
0
100
AcDbLine
 10
732.1618457911383
 20
419.3412163295899
 30
0.0
 11
731.2754834169614
 21
470.1208827371323
 31
0.0
  0
LINE
  5
40
330
17
100
AcDbEntity
  8
0
100
AcDbLine
 10
714.4480086722251
 20
419.03202015255135
 30
0.0
 11
713.7059378473328
 21
461.5452292379324
 31
0.0
  0
LINE
  5
41
330
17
100
AcDbEntity
  8
0
100
AcDbLine
 10
1701.6991974329474
 20
436.2645537528298
 30
0.0
 11
1701.9465543745782
 21
422.0934840576989
 31
0.0
  0
LINE
  5
42
330
17
100
AcDbEntity
  8
0
100
AcDbLine
 10
1807.982220146422
 20
438.11973081506073
 30
0.0
 11
1808.2295770880528
 21
423.94866111992985
 31
0.0
  0
LINE
  5
43
330
17
100
AcDbEntity
  8
0
100
AcDbLine
 10
1961.502141843661
 20
440.7994310160608
 30
0.0
 11
1961.749498785292
 21
426.6283613209299
 31
0.0
  0
LINE
  5
44
330
17
100
AcDbEntity
  8
0
100
AcDbLine
 10
1807.982220146422
 20
438.11973081506073
 30
0.0
 11
1961.502141843661
 21
440.7994310160608
 31
0.0
  0
LINE
  5
45
330
17
100
AcDbEntity
  8
0
100
AcDbLine
 10
1170.2840838655738
 20
426.98866844167503
 30
0.0
 11
1170.5314408072047
 21
412.81759874654415
 31
0.0
  0
LINE
  5
46
330
17
100
AcDbEntity
  8
0
100
AcDbLine
 10
1276.5671065790493
 20
428.843845503906
 30
0.0
 11
1276.8144635206802
 21
414.6727758087751
 31
0.0
  0
LINE
  5
47
330
17
100
AcDbEntity
  8
0
100
AcDbLine
 10
1430.0870282762878
 20
431.52354570490627
 30
0.0
 11
1430.3343852179187
 21
417.3524760097754
 31
0.0
  0
LINE
  5
48
330
17
100
AcDbEntity
  8
0
100
AcDbLine
 10
1536.3700509897635
 20
433.3787227671372
 30
0.0
 11
1536.6174079313944
 21
419.20765307200634
 31
0.0
  0
LINE
  5
49
330
17
100
AcDbEntity
  8
0
100
AcDbLine
 10
1276.5671065790493
 20
428.843845503906
 30
0.0
 11
1430.0870282762878
 21
431.52354570490627
 31
0.0
  0
LINE
  5
4A
330
17
100
AcDbEntity
  8
0
100
AcDbLine
 10
1536.3700509897635
 20
433.3787227671372
 30
0.0
 11
1701.6991974329474
 21
436.2645537528298
 31
0.0
  0
LINE
  5
4B
330
17
100
AcDbEntity
  8
0
100
AcDbLine
 10
1335.6132303087575
 20
429.8744994273676
 30
0.0
 11
1334.5825763852959
 21
488.9206231570755
 31
0.0
  0
LINE
  5
4C
330
17
100
AcDbEntity
  8
0
100
AcDbLine
 10
1334.5825763852959
 20
488.9206231570755
 30
0.0
 11
1381.8194753690595
 21
489.74514629584485
 31
0.0
  0
LINE
  5
4D
330
17
100
AcDbEntity
  8
0
100
AcDbLine
 10
1382.8501292925212
 20
430.69902256613693
 30
0.0
 11
1381.8194753690595
 21
489.74514629584485
 31
0.0
  0
LINE
  5
4E
330
17
100
AcDbEntity
  8
0
100
AcDbLine
 10
881.0704149131194
 20
753.8807449700155
 30
0.0
 11
1074.741700746564
 21
757.2612898389697
 31
0.0
  0
LINE
  5
4F
330
17
100
AcDbEntity
  8
0
100
AcDbLine
 10
898.4750558549944
 20
771.9037782659641
 30
0.0
 11
1092.1463416884353
 21
775.2843231349182
 31
0.0
  0
LINE
  5
50
330
17
100
AcDbEntity
  8
0
100
AcDbLine
 10
732.9696636363593
 20
1117.4931426779017
 30
0.0
 11
739.1535871771291
 21
763.216400299652
 31
0.0
  0
LINE
  5
51
330
17
100
AcDbEntity
  8
0
100
AcDbLine
 10
880.864284128427
 20
765.6899697159599
 30
0.0
 11
739.1535871771291
 21
763.216400299652
 31
0.0
  0
LINE
  5
52
330
17
100
AcDbEntity
  8
0
100
AcDbLine
 10
880.2458917743502
 20
801.1176439537799
 30
0.0
 11
738.5351948230523
 21
798.6440745374721
 31
0.0
  0
LINE
  5
53
330
17
100
AcDbEntity
  8
0
100
AcDbLine
 10
879.6274994202731
 20
836.5453181916095
 30
0.0
 11
737.9168024689752
 21
834.0717487753016
 31
0.0
  0
LINE
  5
54
330
17
100
AcDbEntity
  8
0
100
AcDbLine
 10
879.0091070661962
 20
871.9729924294318
 30
0.0
 11
737.2984101148983
 21
869.4994230131239
 31
0.0
  0
LINE
  5
55
330
17
100
AcDbEntity
  8
0
100
AcDbLine
 10
878.3907147121191
 20
907.4006666672586
 30
0.0
 11
736.6800177608212
 21
904.9270972509507
 31
0.0
  0
LINE
  5
56
330
17
100
AcDbEntity
  8
0
100
AcDbLine
 10
877.7723223580422
 20
942.828340905084
 30
0.0
 11
736.0616254067443
 21
940.3547714887761
 31
0.0
  0
LINE
  5
57
330
17
100
AcDbEntity
  8
0
100
AcDbLine
 10
877.1539300039652
 20
978.2560151429041
 30
0.0
 11
735.4432330526673
 21
975.7824457265962
 31
0.0
  0
LINE
  5
58
330
17
100
AcDbEntity
  8
0
100
AcDbLine
 10
876.5355376498882
 20
1013.6836893807332
 30
0.0
 11
734.8248406985903
 21
1011.2101199644253
 31
0.0
  0
LINE
  5
59
330
17
100
AcDbEntity
  8
0
100
AcDbLine
 10
875.9171452958112
 20
1049.1113636185569
 30
0.0
 11
734.2064483445133
 21
1046.6377942022489
 31
0.0
  0
LINE
  5
5A
330
17
100
AcDbEntity
  8
0
100
AcDbLine
 10
875.2987529417343
 20
1084.5390378563827
 30
0.0
 11
733.5880559904364
 21
1082.065468440075
 31
0.0
  0
LINE
  5
5B
330
17
100
AcDbEntity
  8
0
100
AcDbLine
 10
874.6803605876572
 20
1119.9667120942097
 30
0.0
 11
544.0220677012904
 21
1114.1950501228246
 31
0.0
  0
LINE
  5
5C
330
17
100
AcDbEntity
  8
0
100
AcDbLine
 10
565.2786722439863
 20
1114.5660855352708
 30
0.0
 11
571.3595303924101
 21
766.1939555299869
 31
0.0
  0
LINE
  5
5D
330
17
100
AcDbEntity
  8
0
100
AcDbLine
 10
706.9893691952877
 20
1117.0396549515785
 30
0.0
 11
713.0702273437115
 21
768.6675249462946
 31
0.0
  0
LINE
  5
5E
330
17
100
AcDbEntity
  8
0
100
AcDbLine
 10
707.6077615493648
 20
1081.6119807137518
 30
0.0
 11
565.8970645980634
 21
1079.1384112974438
 31
0.0
  0
LINE
  5
5F
330
17
100
AcDbEntity
  8
0
100
AcDbLine
 10
708.2261539034417
 20
1046.1843064759257
 30
0.0
 11
566.5154569521403
 21
1043.710737059618
 31
0.0
  0
LINE
  5
60
330
17
100
AcDbEntity
  8
0
100
AcDbLine
 10
708.8445462575187
 20
1010.7566322381022
 30
0.0
 11
567.1338493062173
 21
1008.2830628217943
 31
0.0
  0
LINE
  5
61
330
17
100
AcDbEntity
  8
0
100
AcDbLine
 10
709.4629386115957
 20
975.328958000273
 30
0.0
 11
567.7522416602943
 21
972.8553885839651
 31
0.0
  0
LINE
  5
62
330
17
100
AcDbEntity
  8
0
100
AcDbLine
 10
710.0813309656727
 20
939.901283762453
 30
0.0
 11
568.3706340143713
 21
937.4277143461451
 31
0.0
  0
LINE
  5
63
330
17
100
AcDbEntity
  8
0
100
AcDbLine
 10
540.6209097538672
 20
1309.0472584308584
 30
0.0
 11
556.2043970766069
 21
416.2698676376742
 31
0.0
  0
LINE
  5
64
330
17
100
AcDbEntity
  8
0
100
AcDbLine
 10
513.6998095354501
 20
2039.248660959521
 30
0.0
 11
542.2806843231106
 21
401.8514410009126
 31
0.0
  0
LINE
  5
65
330
17
100
AcDbEntity
  8
0
100
AcDbLine
 10
1062.8201386775054
 20
425.112878300975
 30
0.0
 11
1063.0674956191363
 21
410.94180860584413
 31
0.0
  0
LINE
  5
66
330
17
100
AcDbEntity
  8
0
100
AcDbLine
 10
944.7278912180891
 20
423.0515704540518
 30
0.0
 11
944.9752481597199
 21
408.8805007589209
 31
0.0
  0
LINE
  5
67
330
17
100
AcDbEntity
  8
0
100
AcDbLine
 10
767.8368769705955
 20
405.78853898853595
 30
0.0
 11
767.5895200289648
 21
419.95960868366683
 31
0.0
  0
LINE
  5
68
330
17
100
AcDbEntity
  8
0
100
AcDbLine
 10
885.9291244300117
 20
407.8498468354592
 30
0.0
 11
885.681767488381
 21
422.02091653059006
 31
0.0
  0
LINE
  5
69
330
17
100
AcDbEntity
  8
0
100
AcDbLine
 10
885.681767488381
 20
422.02091653059006
 30
0.0
 11
944.7278912180891
 21
423.0515704540518
 31
0.0
  0
LINE
  5
6A
330
17
100
AcDbEntity
  8
0
100
AcDbLine
 10
885.9291244300117
 20
407.8498468354592
 30
0.0
 11
944.9752481597199
 21
408.8805007589209
 31
0.0
  0
LINE
  5
6B
330
17
100
AcDbEntity
  8
0
100
AcDbLine
 10
1062.8201386775054
 20
425.112878300975
 30
0.0
 11
1170.2840838655738
 21
426.98866844167503
 31
0.0
  0
LINE
  5
6C
330
17
100
AcDbEntity
  8
0
100
AcDbLine
 10
1063.0674956191363
 20
410.94180860584413
 30
0.0
 11
1178.7978981293663
 21
412.9618902958258
 31
0.0
  0
LINE
  5
6D
330
17
100
AcDbEntity
  8
0
100
AcDbLine
 10
194.18786548563168
 20
41.3907750818945
 30
0.0
 11
1473.1269054711083
 21
63.71473906407323
 31
0.0
  0
LINE
  5
6E
330
17
100
AcDbEntity
  8
0
100
AcDbLine
 10
554.9317503573687
 20
83.12605133129887
 30
0.0
 11
590.3594245951917
 21
83.74444368537581
 31
0.0
  0
LINE
  5
6F
330
17
100
AcDbEntity
  8
0
100
AcDbLine
 10
554.3133580032917
 20
118.55372556913198
 30
0.0
 11
589.7410322411147
 21
119.17211792320893
 31
0.0
  0
LINE
  5
70
330
17
100
AcDbEntity
  8
0
100
AcDbLine
 10
554.3133580032917
 20
118.55372556913198
 30
0.0
 11
554.9317503573687
 21
83.12605133129887
 31
0.0
  0
LINE
  5
71
330
17
100
AcDbEntity
  8
0
100
AcDbLine
 10
589.7410322411147
 20
119.17211792320893
 30
0.0
 11
590.3594245951917
 21
83.74444368537581
 31
0.0
  0
LINE
  5
72
330
17
100
AcDbEntity
  8
0
100
AcDbLine
 10
1075.7185616533943
 20
92.2164189362303
 30
0.0
 11
1111.146235891217
 21
92.83481129030736
 31
0.0
  0
LINE
  5
73
330
17
100
AcDbEntity
  8
0
100
AcDbLine
 10
1075.1001692993173
 20
127.64409317406341
 30
0.0
 11
1110.52784353714
 21
128.26248552814047
 31
0.0
  0
LINE
  5
74
330
17
100
AcDbEntity
  8
0
100
AcDbLine
 10
1075.1001692993173
 20
127.64409317406341
 30
0.0
 11
1075.7185616533943
 21
92.2164189362303
 31
0.0
  0
LINE
  5
75
330
17
100
AcDbEntity
  8
0
100
AcDbLine
 10
1110.52784353714
 20
128.26248552814047
 30
0.0
 11
1111.146235891217
 21
92.83481129030736
 31
0.0
  0
LINE
  5
76
330
17
100
AcDbEntity
  8
0
100
AcDbLine
 10
810.0089356527782
 20
764.4531850078059
 30
0.0
 11
803.8250121120084
 21
1118.7299273860556
 31
0.0
  0
LINE
  5
77
330
17
100
AcDbEntity
  8
0
100
AcDbLine
 10
827.3879838246235
 20
1095.9754301020835
 30
0.0
 11
803.8250121120084
 21
1118.7299273860556
 31
0.0
  0
LINE
  5
78
330
17
100
AcDbEntity
  8
0
100
AcDbLine
 10
781.0705148280397
 20
1095.1669556734375
 30
0.0
 11
803.8250121120084
 21
1118.7299273860556
 31
0.0
  0
LINE
  5
79
330
17
100
AcDbEntity
  8
0
100
AcDbLine
 10
709.377191368794
 20
709.5389489027093
 30
0.0
 11
727.0910284877071
 21
709.8481450797478
 31
0.0
  0
LINE
  5
7A
330
17
100
AcDbEntity
  8
0
100
AcDbLine
 10
711.2323684310248
 20
603.255926189237
 30
0.0
 11
728.946205549938
 21
603.5651223662755
 31
0.0
  0
LINE
  5
7B
330
17
100
AcDbEntity
  8
0
100
AcDbLine
 10
711.8507607851019
 20
567.8282519514107
 30
0.0
 11
729.564597904015
 21
568.1374481284493
 31
0.0
  0
LINE
  5
7C
330
17
100
AcDbEntity
  8
0
100
AcDbLine
 10
713.7059378473328
 20
461.5452292379324
 30
0.0
 11
731.419774966246
 21
461.85442541497093
 31
0.0
  0
LINE
  5
7D
330
17
100
AcDbEntity
  8
0
100
AcDbLine
 10
709.377191368794
 20
709.5389489027093
 30
0.0
 11
708.6557336223708
 21
750.8712355135075
 31
0.0
  0
LINE
  5
7E
330
17
100
AcDbEntity
  8
0
100
AcDbLine
 10
727.0910284877071
 20
709.8481450797478
 30
0.0
 11
726.0603745642455
 21
768.8942688094562
 31
0.0
  0
LINE
  5
7F
330
17
100
AcDbEntity
  8
0
100
AcDbLine
 10
711.8507607851019
 20
567.8282519514107
 30
0.0
 11
711.2323684310248
 21
603.255926189237
 31
0.0
  0
LINE
  5
80
330
17
100
AcDbEntity
  8
0
100
AcDbLine
 10
636.1340207196351
 20
1115.8028702434246
 30
0.0
 11
639.844374844097
 21
903.2368248164736
 31
0.0
  0
LINE
  5
81
330
17
100
AcDbEntity
  8
0
100
AcDbLine
 10
639.844374844097
 20
903.2368248164736
 30
0.0
 11
568.9890263684482
 21
902.0000401083197
 31
0.0
  0
LINE
  5
82
330
17
100
AcDbEntity
  8
0
100
AcDbLine
 10
616.2814031314823
 20
925.9913221004457
 30
0.0
 11
639.844374844097
 21
903.2368248164736
 31
0.0
  0
LINE
  5
83
330
17
100
AcDbEntity
  8
0
100
AcDbLine
 10
662.5988721280694
 20
926.7997965290917
 30
0.0
 11
639.844374844097
 21
903.2368248164736
 31
0.0
  0
LINE
  5
84
330
17
100
AcDbEntity
  8
0
100
AcDbLine
 10
569.6074187225253
 20
866.5723658704928
 30
0.0
 11
710.0813309656727
 21
939.901283762453
 31
0.0
  0
LINE
  5
85
330
17
100
AcDbEntity
  8
0
100
AcDbLine
 10
527.8708792305772
 20
2039.4960179011518
 30
0.0
 11
540.3117135768288
 21
1326.7610955497673
 31
0.0
  0
LINE
  5
86
330
17
100
AcDbEntity
  8
0
100
AcDbLine
 10
258.1172195956185
 20
439.4175112536884
 30
0.0
 11
258.7356119496955
 21
403.989837015862
 31
0.0
  0
LINE
  5
87
330
17
100
AcDbEntity
  8
0
100
AcDbLine
 10
222.6895453577924
 20
438.79911889961136
 30
0.0
 11
223.3079377118694
 21
403.37144466178495
 31
0.0
  0
LINE
  5
88
330
17
100
AcDbEntity
  8
0
100
AcDbLine
 10
166.71063188614474
 20
1615.5604337159143
 30
0.0
 11
194.18786548563168
 21
41.3907750818945
 31
0.0
  0
LINE
  5
89
330
17
100
AcDbEntity
  8
0
100
AcDbLine
 10
258.7356119496955
 20
403.989837015862
 30
0.0
 11
223.3079377118694
 21
403.37144466178495
 31
0.0
  0
LINE
  5
8A
330
17
100
AcDbEntity
  8
0
100
AcDbLine
 10
258.1172195956185
 20
439.4175112536884
 30
0.0
 11
222.6895453577924
 21
438.79911889961136
 31
0.0
  0
LINE
  5
8B
330
17
100
AcDbEntity
  8
0
100
AcDbLine
 10
246.9655441437637
 20
1078.2965700091304
 30
0.0
 11
247.5839364978407
 21
1042.8688957713039
 31
0.0
  0
LINE
  5
8C
330
17
100
AcDbEntity
  8
0
100
AcDbLine
 10
211.53786990593764
 20
1077.6781776550533
 30
0.0
 11
212.15626226001464
 21
1042.2505034172268
 31
0.0
  0
LINE
  5
8D
330
17
100
AcDbEntity
  8
0
100
AcDbLine
 10
247.5839364978407
 20
1042.8688957713039
 30
0.0
 11
212.15626226001464
 21
1042.2505034172268
 31
0.0
  0
LINE
  5
8E
330
17
100
AcDbEntity
  8
0
100
AcDbLine
 10
246.9655441437637
 20
1078.2965700091304
 30
0.0
 11
211.53786990593764
 21
1077.6781776550533
 31
0.0
  0
LINE
  5
8F
330
17
100
AcDbEntity
  8
0
100
AcDbLine
 10
239.62728820871695
 20
1498.7049709646521
 30
0.0
 11
240.24568056279395
 21
1463.2772967268259
 31
0.0
  0
LINE
  5
90
330
17
100
AcDbEntity
  8
0
100
AcDbLine
 10
204.19961397089088
 20
1498.086578610575
 30
0.0
 11
204.81800632496788
 21
1462.6589043727488
 31
0.0
  0
LINE
  5
91
330
17
100
AcDbEntity
  8
0
100
AcDbLine
 10
240.24568056279395
 20
1463.2772967268259
 30
0.0
 11
204.81800632496788
 21
1462.6589043727488
 31
0.0
  0
LINE
  5
92
330
17
100
AcDbEntity
  8
0
100
AcDbLine
 10
239.62728820871695
 20
1498.7049709646521
 30
0.0
 11
204.19961397089088
 21
1498.086578610575
 31
0.0
  0
LINE
  5
93
330
17
100
AcDbEntity
  8
0
100
AcDbLine
 10
520.9873742643933
 20
1621.7443572566842
 30
0.0
 11
166.71063188614474
 21
1615.5604337159143
 31
0.0
  0
LINE
  5
94
330
17
100
AcDbEntity
  8
0
100
AcDbLine
 10
237.5659803617937
 20
1616.7972184240684
 30
0.0
 11
236.3291956536398
 21
1687.6525668997149
 31
0.0
  0
LINE
  5
95
330
17
100
AcDbEntity
  8
0
100
AcDbLine
 10
520.3689819103164
 20
1657.1720314945105
 30
0.0
 11
236.9475880077167
 21
1652.224892661895
 31
0.0
  0
LINE
  5
96
330
17
100
AcDbEntity
  8
0
100
AcDbLine
 10
519.7505895562394
 20
1692.5997057323307
 30
0.0
 11
236.3291956536398
 21
1687.6525668997149
 31
0.0
  0
LINE
  5
97
330
17
100
AcDbEntity
  8
0
100
AcDbLine
 10
168.771939733068
 20
1497.4681862564983
 30
0.0
 11
97.91659125742198
 21
1496.2314015483516
 31
0.0
  0
LINE
  5
98
330
17
100
AcDbEntity
  8
0
100
AcDbLine
 10
138.2914043278339
 20
1213.4283999998243
 30
0.0
 11
133.34426549524164
 21
1496.8497939024244
 31
0.0
  0
LINE
  5
99
330
17
100
AcDbEntity
  8
0
100
AcDbLine
 10
102.86373009001767
 20
1212.810007645751
 30
0.0
 11
97.91659125742198
 21
1496.2314015483516
 31
0.0
  0
LINE
  5
9A
330
17
100
AcDbEntity
  8
0
100
AcDbLine
 10
102.86373009001767
 20
1212.810007645751
 30
0.0
 11
173.71907856568367
 21
1214.0467923539054
 31
0.0
  0
LINE
  5
9B
330
17
100
AcDbEntity
  8
0
100
AcDbLine
 10
378.03989260493773
 20
1690.126136316023
 30
0.0
 11
379.27667731309157
 21
1619.2707878403762
 31
0.0
  0
LINE
  5
9C
330
17
100
AcDbEntity
  8
0
100
AcDbLine
 10
355.7137056004767
 20
1642.0252851243486
 30
0.0
 11
379.27667731309157
 21
1619.2707878403762
 31
0.0
  0
LINE
  5
9D
330
17
100
AcDbEntity
  8
0
100
AcDbLine
 10
402.03117459706414
 20
1642.8337595529947
 30
0.0
 11
379.27667731309157
 21
1619.2707878403762
 31
0.0
  0
LINE
  5
9E
330
17
100
AcDbEntity
  8
0
100
AcDbLine
 10
100.39016067371998
 20
1354.520704597046
 30
0.0
 11
171.24550914936245
 21
1355.7574893051997
 31
0.0
  0
LINE
  5
9F
330
17
100
AcDbEntity
  8
0
100
AcDbLine
 10
148.4910118653934
 20
1332.194517592589
 30
0.0
 11
171.24550914936245
 21
1355.7574893051997
 31
0.0
  0
LINE
  5
A0
330
17
100
AcDbEntity
  8
0
100
AcDbLine
 10
147.68253743674737
 20
1378.5119865891716
 30
0.0
 11
171.24550914936245
 21
1355.7574893051997
 31
0.0
  0
LINE
  5
A1
330
17
100
AcDbEntity
  8
0
100
AcDbLine
 10
1069.251419159906
 20
56.665066227595844
 30
0.0
 11
1070.2291492150323
 21
0.6509488841631992
 31
0.0
  0
LINE
  5
A2
330
17
100
AcDbEntity
  8
0
100
AcDbLine
 10
774.0208005113652
 20
51.51179661028766
 30
0.0
 11
774.9985305664917
 21
-4.502320733144984
 31
0.0
  0
LINE
  5
A3
330
17
100
AcDbEntity
  8
0
100
AcDbLine
 10
774.6391928654423
 20
16.084122372461707
 30
0.0
 11
1069.869811513983
 21
21.23739198976989
 31
0.0
  0
LINE
  5
A4
330
17
100
AcDbEntity
  8
0
100
AcDbLine
 10
922.6138398907619
 20
-1.9256859244909492
 30
0.0
 11
921.6361098356356
 21
54.08843141893851
 31
0.0
  0
LINE
  5
A5
330
17
100
AcDbEntity
  8
0
100
AcDbLine
 10
945.1990815482504
 20
31.33393413496276
 30
0.0
 11
921.6361098356356
 21
54.08843141893851
 31
0.0
  0
LINE
  5
A6
330
17
100
AcDbEntity
  8
0
100
AcDbLine
 10
898.8816125516701
 20
30.525459706316724
 30
0.0
 11
921.6361098356356
 21
54.08843141893851
 31
0.0
  0
LINE
  5
A7
330
17
100
AcDbEntity
  8
0
100
AcDbLine
 10
1507.3177950008007
 20
135.188479893803
 30
0.0
 11
1502.370656168165
 21
418.6098737963986
 31
0.0
  0
LINE
  5
A8
330
17
100
AcDbEntity
  8
0
100
AcDbLine
 10
1542.7454692386268
 20
135.80687224787982
 30
0.0
 11
1537.7983304059871
 21
419.2282661504754
 31
0.0
  0
LINE
  5
A9
330
17
100
AcDbEntity
  8
0
100
AcDbLine
 10
1542.7454692386268
 20
135.80687224787982
 30
0.0
 11
1471.8901207629544
 21
134.57008753972548
 31
0.0
  0
LINE
  5
AA
330
17
100
AcDbEntity
  8
0
100
AcDbLine
 10
1540.271899822308
 20
277.51756919918057
 30
0.0
 11
1469.416551346656
 21
276.2807844910267
 31
0.0
  0
LINE
  5
AB
330
17
100
AcDbEntity
  8
0
100
AcDbLine
 10
1492.979523059274
 20
253.52628720705513
 30
0.0
 11
1469.416551346656
 21
276.2807844910267
 31
0.0
  0
LINE
  5
AC
330
17
100
AcDbEntity
  8
0
100
AcDbLine
 10
1492.1710486306279
 20
299.8437562036422
 30
0.0
 11
1469.416551346656
 21
276.2807844910267
 31
0.0
  0
LINE
  5
AD
330
17
100
AcDbEntity
  8
0
100
AcDbLine
 10
1473.1269054711083
 20
63.71473906407323
 30
0.0
 11
1466.9429819303386
 21
417.9914814423215
 31
0.0
  0
LINE
  5
AE
330
17
100
AcDbEntity
  8
0
100
AcDbLine
 10
1775.2196100329809
 20
352.4955333686694
 30
0.0
 11
2059.7904351441807
 21
357.4627355976618
 31
0.0
  0
LINE
  5
AF
330
17
100
AcDbEntity
  8
0
100
AcDbLine
 10
442.8444610597975
 20
2038.011876251367
 30
0.0
 11
448.8952410805869
 21
1691.3629210241766
 31
0.0
  0
LINE
  5
B0
330
17
100
AcDbEntity
  8
0
100
AcDbLine
 10
1781.1444789207492
 20
13.060022122641612
 30
0.0
 11
1775.2196100329809
 21
352.4955333686694
 31
0.0
  0
LINE
  5
B1
330
17
100
AcDbEntity
  8
0
100
AcDbLine
 10
1076.112470464768
 20
678.7299452784628
 30
0.0
 11
1093.8263075836778
 21
679.0391414555011
 31
0.0
  0
LINE
  5
B2
330
17
100
AcDbEntity
  8
0
100
AcDbLine
 10
1078.792170665768
 20
525.2100235812202
 30
0.0
 11
1096.5060077846779
 21
525.5192197582585
 31
0.0
  0
LINE
  5
B3
330
17
100
AcDbEntity
  8
0
100
AcDbLine
 10
1093.8263075836778
 20
679.0391414555011
 30
0.0
 11
1092.1463416884353
 21
775.2843231349182
 31
0.0
  0
LINE
  5
B4
330
17
100
AcDbEntity
  8
0
100
AcDbLine
 10
1076.112470464768
 20
678.7299452784628
 30
0.0
 11
1074.741700746564
 21
757.2612898389697
 31
0.0
  0
LINE
  5
B5
330
17
100
AcDbEntity
  8
0
100
AcDbLine
 10
698.4955551539682
 20
656.1913067612845
 30
0.0
 11
739.8278417647634
 21
656.9127645077076
 31
0.0
  0
LINE
  5
B6
330
17
100
AcDbEntity
  8
0
100
AcDbLine
 10
826.4295129739804
 20
432.79948735306914
 30
0.0
 11
827.089131484996
 21
395.0099681660532
 31
0.0
  0
LINE
  5
B7
330
17
100
AcDbEntity
  8
0
100
AcDbLine
 10
1003.567884163105
 20
435.8914491234541
 30
0.0
 11
1004.2275026741205
 21
398.1019299364382
 31
0.0
  0
LINE
  5
B8
330
17
100
AcDbEntity
  8
0
100
AcDbLine
 10
1076.112470464768
 20
678.7299452784591
 30
0.0
 11
1002.2708326600729
 21
602.2646909117532
 31
0.0
  0
LINE
  5
B9
330
17
100
AcDbEntity
  8
0
100
AcDbLine
 10
1078.792170665768
 20
525.2100235812202
 30
0.0
 11
1044.8076131694525
 21
558.0285292721942
 31
0.0
  0
LINE
  5
BA
330
17
100
AcDbEntity
  8
0
100
AcDbLine
 10
767.8368769705955
 20
405.78853898853595
 30
0.0
 11
885.9291244300117
 21
407.8498468354592
 31
0.0
  0
LINE
  5
BB
330
17
100
AcDbEntity
  8
0
100
AcDbLine
 10
885.9291244300117
 20
407.8498468354592
 30
0.0
 11
885.681767488381
 21
422.02091653059006
 31
0.0
  0
LINE
  5
BC
330
17
100
AcDbEntity
  8
0
100
AcDbLine
 10
885.681767488381
 20
422.02091653059006
 30
0.0
 11
767.5895200289648
 21
419.95960868366683
 31
0.0
  0
LINE
  5
BD
330
17
100
AcDbEntity
  8
0
100
AcDbLine
 10
767.5895200289648
 20
419.95960868366683
 30
0.0
 11
767.8368769705955
 21
405.78853898853595
 31
0.0
  0
LINE
  5
BE
330
17
100
AcDbEntity
  8
0
100
AcDbLine
 10
767.8368769705955
 20
405.78853898853595
 30
0.0
 11
767.8368769705955
 21
405.78853898853595
 31
0.0
  0
LINE
  5
BF
330
17
100
AcDbEntity
  8
0
100
AcDbLine
 10
944.9752481597199
 20
408.8805007589209
 30
0.0
 11
1063.0674956191363
 21
410.94180860584413
 31
0.0
  0
LINE
  5
C0
330
17
100
AcDbEntity
  8
0
100
AcDbLine
 10
1063.0674956191363
 20
410.94180860584413
 30
0.0
 11
1062.8201386775054
 21
425.112878300975
 31
0.0
  0
LINE
  5
C1
330
17
100
AcDbEntity
  8
0
100
AcDbLine
 10
1062.8201386775054
 20
425.112878300975
 30
0.0
 11
944.7278912180891
 21
423.0515704540518
 31
0.0
  0
LINE
  5
C2
330
17
100
AcDbEntity
  8
0
100
AcDbLine
 10
944.7278912180891
 20
423.0515704540518
 30
0.0
 11
944.9752481597199
 21
408.8805007589209
 31
0.0
  0
LINE
  5
C3
330
17
100
AcDbEntity
  8
0
100
AcDbLine
 10
944.9752481597199
 20
408.8805007589209
 30
0.0
 11
944.9752481597199
 21
408.8805007589209
 31
0.0
  0
LINE
  5
C4
330
17
100
AcDbEntity
  8
0
100
AcDbLine
 10
711.2323684310248
 20
603.255926189237
 30
0.0
 11
709.377191368794
 21
709.5389489027093
 31
0.0
  0
LINE
  5
C5
330
17
100
AcDbEntity
  8
0
100
AcDbLine
 10
709.377191368794
 20
709.5389489027093
 30
0.0
 11
727.0910284877071
 21
709.8481450797478
 31
0.0
  0
LINE
  5
C6
330
17
100
AcDbEntity
  8
0
100
AcDbLine
 10
727.0910284877071
 20
709.8481450797478
 30
0.0
 11
728.946205549938
 21
603.5651223662755
 31
0.0
  0
LINE
  5
C7
330
17
100
AcDbEntity
  8
0
100
AcDbLine
 10
728.946205549938
 20
603.5651223662755
 30
0.0
 11
711.2323684310248
 21
603.255926189237
 31
0.0
  0
LINE
  5
C8
330
17
100
AcDbEntity
  8
0
100
AcDbLine
 10
711.2323684310248
 20
603.255926189237
 30
0.0
 11
711.2323684310248
 21
603.255926189237
 31
0.0
  0
LINE
  5
C9
330
17
100
AcDbEntity
  8
0
100
AcDbLine
 10
252.54138186969107
 20
758.8570406314111
 30
0.0
 11
217.113707631865
 21
758.238648277334
 31
0.0
  0
LINE
  5
CA
330
17
100
AcDbEntity
  8
0
100
AcDbLine
 10
217.113707631865
 20
758.238648277334
 30
0.0
 11
217.73209998594206
 21
722.8109740395046
 31
0.0
  0
LINE
  5
CB
330
17
100
AcDbEntity
  8
0
100
AcDbLine
 10
217.73209998594206
 20
722.8109740395046
 30
0.0
 11
253.15977422376812
 21
723.4293663935816
 31
0.0
  0
LINE
  5
CC
330
17
100
AcDbEntity
  8
0
100
AcDbLine
 10
253.15977422376812
 20
723.4293663935816
 30
0.0
 11
252.54138186969107
 21
758.8570406314111
 31
0.0
  0
LINE
  5
CD
330
17
100
AcDbEntity
  8
0
100
AcDbLine
 10
252.54138186969107
 20
758.8570406314111
 30
0.0
 11
252.54138186969107
 21
758.8570406314111
 31
0.0
  0
LINE
  5
CE
330
17
100
AcDbEntity
  8
0
100
AcDbLine
 10
1436.4624465251309
 20
133.95169518564865
 30
0.0
 11
1401.0347722873046
 21
133.3333028315716
 31
0.0
  0
LINE
  5
CF
330
17
100
AcDbEntity
  8
0
100
AcDbLine
 10
1401.0347722873046
 20
133.3333028315716
 30
0.0
 11
1401.6531646413816
 21
97.90562859373847
 31
0.0
  0
LINE
  5
D0
330
17
100
AcDbEntity
  8
0
100
AcDbLine
 10
1401.6531646413816
 20
97.90562859373847
 30
0.0
 11
1437.080838879208
 21
98.52402094781553
 31
0.0
  0
LINE
  5
D1
330
17
100
AcDbEntity
  8
0
100
AcDbLine
 10
1437.080838879208
 20
98.52402094781553
 30
0.0
 11
1436.4624465251309
 21
133.95169518564865
 31
0.0
  0
LINE
  5
D2
330
17
100
AcDbEntity
  8
0
100
AcDbLine
 10
1436.4624465251309
 20
133.95169518564865
 30
0.0
 11
1436.4624465251309
 21
133.95169518564865
 31
0.0
  0
LINE
  5
D3
330
17
100
AcDbEntity
  8
0
100
AcDbLine
 10
228.37875501530056
 20
112.8645159116237
 30
0.0
 11
263.8064292531266
 21
113.48290826570076
 31
0.0
  0
LINE
  5
D4
330
17
100
AcDbEntity
  8
0
100
AcDbLine
 10
263.8064292531266
 20
113.48290826570076
 30
0.0
 11
264.42482160720374
 21
78.05523402786764
 31
0.0
  0
LINE
  5
D5
330
17
100
AcDbEntity
  8
0
100
AcDbLine
 10
264.42482160720374
 20
78.05523402786764
 30
0.0
 11
228.99714736937767
 21
77.43684167379058
 31
0.0
  0
LINE
  5
D6
330
17
100
AcDbEntity
  8
0
100
AcDbLine
 10
228.99714736937767
 20
77.43684167379058
 30
0.0
 11
228.37875501530056
 21
112.8645159116237
 31
0.0
  0
LINE
  5
D7
330
17
100
AcDbEntity
  8
0
100
AcDbLine
 10
228.37875501530056
 20
112.8645159116237
 30
0.0
 11
228.37875501530056
 21
112.8645159116237
 31
0.0
  0
LINE
  5
D8
330
17
100
AcDbEntity
  8
0
100
AcDbLine
 10
711.8507607851019
 20
567.8282519514107
 30
0.0
 11
713.7059378473328
 21
461.5452292379324
 31
0.0
  0
LINE
  5
D9
330
17
100
AcDbEntity
  8
0
100
AcDbLine
 10
713.7059378473328
 20
461.5452292379324
 30
0.0
 11
731.419774966246
 21
461.85442541497093
 31
0.0
  0
LINE
  5
DA
330
17
100
AcDbEntity
  8
0
100
AcDbLine
 10
731.419774966246
 20
461.85442541497093
 30
0.0
 11
729.564597904015
 21
568.1374481284493
 31
0.0
  0
LINE
  5
DB
330
17
100
AcDbEntity
  8
0
100
AcDbLine
 10
729.564597904015
 20
568.1374481284493
 30
0.0
 11
711.8507607851019
 21
567.8282519514107
 31
0.0
  0
LINE
  5
DC
330
17
100
AcDbEntity
  8
0
100
AcDbLine
 10
711.8507607851019
 20
567.8282519514107
 30
0.0
 11
711.8507607851019
 21
567.8282519514107
 31
0.0
  0
LINE
  5
DD
330
17
100
AcDbEntity
  8
0
100
AcDbLine
 10
1536.3700509897635
 20
433.3787227671372
 30
0.0
 11
1536.6174079313944
 21
419.20765307200634
 31
0.0
  0
LINE
  5
DE
330
17
100
AcDbEntity
  8
0
100
AcDbLine
 10
1536.6174079313944
 20
419.20765307200634
 30
0.0
 11
1430.3343852179187
 21
417.3524760097754
 31
0.0
  0
LINE
  5
DF
330
17
100
AcDbEntity
  8
0
100
AcDbLine
 10
1430.3343852179187
 20
417.3524760097754
 30
0.0
 11
1430.0870282762878
 21
431.52354570490627
 31
0.0
  0
LINE
  5
E0
330
17
100
AcDbEntity
  8
0
100
AcDbLine
 10
1430.0870282762878
 20
431.52354570490627
 30
0.0
 11
1536.3700509897635
 21
433.3787227671372
 31
0.0
  0
LINE
  5
E1
330
17
100
AcDbEntity
  8
0
100
AcDbLine
 10
1536.3700509897635
 20
433.3787227671372
 30
0.0
 11
1536.3700509897635
 21
433.3787227671372
 31
0.0
  0
LINE
  5
E2
330
17
100
AcDbEntity
  8
0
100
AcDbLine
 10
1276.5671065790493
 20
428.843845503906
 30
0.0
 11
1276.8144635206802
 21
414.6727758087751
 31
0.0
  0
LINE
  5
E3
330
17
100
AcDbEntity
  8
0
100
AcDbLine
 10
1276.8144635206802
 20
414.6727758087751
 30
0.0
 11
1170.5314408072047
 21
412.81759874654415
 31
0.0
  0
LINE
  5
E4
330
17
100
AcDbEntity
  8
0
100
AcDbLine
 10
1170.5314408072047
 20
412.81759874654415
 30
0.0
 11
1170.2840838655738
 21
426.98866844167503
 31
0.0
  0
LINE
  5
E5
330
17
100
AcDbEntity
  8
0
100
AcDbLine
 10
1170.2840838655738
 20
426.98866844167503
 30
0.0
 11
1276.5671065790493
 21
428.843845503906
 31
0.0
  0
LINE
  5
E6
330
17
100
AcDbEntity
  8
0
100
AcDbLine
 10
1276.5671065790493
 20
428.843845503906
 30
0.0
 11
1276.5671065790493
 21
428.843845503906
 31
0.0
  0
LINE
  5
E7
330
17
100
AcDbEntity
  8
0
100
AcDbLine
 10
2058.5536504360266
 20
428.3180840733145
 30
0.0
 11
1961.749498785292
 21
426.6283613209299
 31
0.0
  0
LINE
  5
E8
330
17
100
AcDbEntity
  8
0
100
AcDbLine
 10
1961.749498785292
 20
426.6283613209299
 30
0.0
 11
1961.502141843661
 21
440.7994310160608
 31
0.0
  0
LINE
  5
E9
330
17
100
AcDbEntity
  8
0
100
AcDbLine
 10
1961.502141843661
 20
440.7994310160608
 30
0.0
 11
2058.306293494396
 21
442.48915376844536
 31
0.0
  0
LINE
  5
EA
330
17
100
AcDbEntity
  8
0
100
AcDbLine
 10
1807.982220146422
 20
438.11973081506073
 30
0.0
 11
1808.2295770880528
 21
423.94866111992985
 31
0.0
  0
LINE
  5
EB
330
17
100
AcDbEntity
  8
0
100
AcDbLine
 10
1808.2295770880528
 20
423.94866111992985
 30
0.0
 11
1701.9465543745782
 21
422.0934840576989
 31
0.0
  0
LINE
  5
EC
330
17
100
AcDbEntity
  8
0
100
AcDbLine
 10
1701.9465543745782
 20
422.0934840576989
 30
0.0
 11
1701.6991974329474
 21
436.2645537528298
 31
0.0
  0
LINE
  5
ED
330
17
100
AcDbEntity
  8
0
100
AcDbLine
 10
1701.6991974329474
 20
436.2645537528298
 30
0.0
 11
1807.982220146422
 21
438.11973081506073
 31
0.0
  0
LINE
  5
EE
330
17
100
AcDbEntity
  8
0
100
AcDbLine
 10
1807.982220146422
 20
438.11973081506073
 30
0.0
 11
1807.982220146422
 21
438.11973081506073
 31
0.0
  0
LINE
  5
EF
330
17
100
AcDbEntity
  8
0
100
AcDbLine
 10
1608.0352865275627
 20
455.89272509644866
 30
0.0
 11
1629.2918910702554
 21
456.26376050889485
 31
0.0
  0
LINE
  5
F0
330
17
100
AcDbEntity
  8
0
100
AcDbLine
 10
1629.2918910702554
 20
456.26376050889485
 30
0.0
 11
1629.6629264827013
 21
435.0071559662066
 31
0.0
  0
LINE
  5
F1
330
17
100
AcDbEntity
  8
0
100
AcDbLine
 10
1629.6629264827013
 20
435.0071559662066
 30
0.0
 11
1608.4063219400086
 21
434.6361205537604
 31
0.0
  0
LINE
  5
F2
330
17
100
AcDbEntity
  8
0
100
AcDbLine
 10
1608.4063219400086
 20
434.6361205537604
 30
0.0
 11
1608.0352865275627
 21
455.89272509644866
 31
0.0
  0
LINE
  5
F3
330
17
100
AcDbEntity
  8
0
100
AcDbLine
 10
1608.0352865275627
 20
455.89272509644866
 30
0.0
 11
1608.0352865275627
 21
455.89272509644866
 31
0.0
  0
LINE
  5
F4
330
17
100
AcDbEntity
  8
0
100
AcDbLine
 10
1076.6201729601896
 20
446.61683978529413
 30
0.0
 11
1097.876777502882
 21
446.9878751977401
 31
0.0
  0
LINE
  5
F5
330
17
100
AcDbEntity
  8
0
100
AcDbLine
 10
1097.876777502882
 20
446.9878751977401
 30
0.0
 11
1098.247812915328
 21
425.73127065505184
 31
0.0
  0
LINE
  5
F6
330
17
100
AcDbEntity
  8
0
100
AcDbLine
 10
1098.247812915328
 20
425.73127065505184
 30
0.0
 11
1076.9912083726356
 21
425.3602352426059
 31
0.0
  0
LINE
  5
F7
330
17
100
AcDbEntity
  8
0
100
AcDbLine
 10
1076.9912083726356
 20
425.3602352426059
 30
0.0
 11
1076.6201729601896
 21
446.61683978529413
 31
0.0
  0
LINE
  5
F8
330
17
100
AcDbEntity
  8
0
100
AcDbLine
 10
1076.6201729601896
 20
446.61683978529413
 30
0.0
 11
1076.6201729601896
 21
446.61683978529413
 31
0.0
  0
LINE
  5
F9
330
17
100
AcDbEntity
  8
0
100
AcDbLine
 10
555.8333616641609
 20
437.5264721803625
 30
0.0
 11
577.0899662068567
 21
437.89750759280867
 31
0.0
  0
LINE
  5
FA
330
17
100
AcDbEntity
  8
0
100
AcDbLine
 10
577.0899662068567
 20
437.89750759280867
 30
0.0
 11
577.4610016193028
 21
416.6409030501204
 31
0.0
  0
LINE
  5
FB
330
17
100
AcDbEntity
  8
0
100
AcDbLine
 10
577.4610016193028
 20
416.6409030501204
 30
0.0
 11
556.2043970766069
 21
416.2698676376742
 31
0.0
  0
LINE
  5
FC
330
17
100
AcDbEntity
  8
0
100
AcDbLine
 10
556.2043970766069
 20
416.2698676376742
 30
0.0
 11
555.8333616641609
 21
437.5264721803625
 31
0.0
  0
LINE
  5
FD
330
17
100
AcDbEntity
  8
0
100
AcDbLine
 10
555.8333616641609
 20
437.5264721803625
 30
0.0
 11
555.8333616641609
 21
437.5264721803625
 31
0.0
  0
LINE
  5
FE
330
17
100
AcDbEntity
  8
0
100
AcDbLine
 10
1596.8836110757077
 20
1094.7717838518943
 30
0.0
 11
1618.1402156184004
 21
1095.1428192643405
 31
0.0
  0
LINE
  5
FF
330
17
100
AcDbEntity
  8
0
100
AcDbLine
 10
1618.1402156184004
 20
1095.1428192643405
 30
0.0
 11
1618.5112510308466
 21
1073.886214721648
 31
0.0
  0
LINE
  5
100
330
17
100
AcDbEntity
  8
0
100
AcDbLine
 10
1618.5112510308466
 20
1073.886214721648
 30
0.0
 11
1597.2546464881539
 21
1073.5151793092018
 31
0.0
  0
LINE
  5
101
330
17
100
AcDbEntity
  8
0
100
AcDbLine
 10
1597.2546464881539
 20
1073.5151793092018
 30
0.0
 11
1596.8836110757077
 21
1094.7717838518943
 31
0.0
  0
LINE
  5
102
330
17
100
AcDbEntity
  8
0
100
AcDbLine
 10
1596.8836110757077
 20
1094.7717838518943
 30
0.0
 11
1596.8836110757077
 21
1094.7717838518943
 31
0.0
  0
LINE
  5
103
330
17
100
AcDbEntity
  8
0
100
AcDbLine
 10
1065.4684975083346
 20
1085.4958985407397
 30
0.0
 11
1086.725102051027
 21
1085.8669339531857
 31
0.0
  0
LINE
  5
104
330
17
100
AcDbEntity
  8
0
100
AcDbLine
 10
1086.725102051027
 20
1085.8669339531857
 30
0.0
 11
1087.0961374634733
 21
1064.6103294104933
 31
0.0
  0
LINE
  5
105
330
17
100
AcDbEntity
  8
0
100
AcDbLine
 10
1087.0961374634733
 20
1064.6103294104933
 30
0.0
 11
1065.8395329207808
 21
1064.2392939980473
 31
0.0
  0
LINE
  5
106
330
17
100
AcDbEntity
  8
0
100
AcDbLine
 10
1065.8395329207808
 20
1064.2392939980473
 30
0.0
 11
1065.4684975083346
 21
1085.4958985407397
 31
0.0
  0
LINE
  5
107
330
17
100
AcDbEntity
  8
0
100
AcDbLine
 10
1065.4684975083346
 20
1085.4958985407397
 30
0.0
 11
1065.4684975083346
 21
1085.4958985407397
 31
0.0
  0
LINE
  5
108
330
17
100
AcDbEntity
  8
0
100
AcDbLine
 10
544.681686212306
 20
1076.405530935808
 30
0.0
 11
565.9382907550018
 21
1076.7765663482542
 31
0.0
  0
LINE
  5
109
330
17
100
AcDbEntity
  8
0
100
AcDbLine
 10
565.9382907550018
 20
1076.7765663482542
 30
0.0
 11
566.309326167448
 21
1055.519961805562
 31
0.0
  0
LINE
  5
10A
330
17
100
AcDbEntity
  8
0
100
AcDbLine
 10
566.309326167448
 20
1055.519961805562
 30
0.0
 11
545.0527216247522
 21
1055.1489263931157
 31
0.0
  0
LINE
  5
10B
330
17
100
AcDbEntity
  8
0
100
AcDbLine
 10
545.0527216247522
 20
1055.1489263931157
 30
0.0
 11
544.681686212306
 21
1076.405530935808
 31
0.0
  0
LINE
  5
10C
330
17
100
AcDbEntity
  8
0
100
AcDbLine
 10
544.681686212306
 20
1076.405530935808
 30
0.0
 11
544.681686212306
 21
1076.405530935808
 31
0.0
  0
LINE
  5
10D
330
17
100
AcDbEntity
  8
0
100
AcDbLine
 10
1585.54641791763
 20
1744.2791448786838
 30
0.0
 11
1606.8030224603226
 21
1744.6501802911303
 31
0.0
  0
LINE
  5
10E
330
17
100
AcDbEntity
  8
0
100
AcDbLine
 10
1606.8030224603226
 20
1744.6501802911303
 30
0.0
 11
1607.1740578727688
 21
1723.3935757484373
 31
0.0
  0
LINE
  5
10F
330
17
100
AcDbEntity
  8
0
100
AcDbLine
 10
1607.1740578727688
 20
1723.3935757484373
 30
0.0
 11
1585.9174533300761
 21
1723.022540335991
 31
0.0
  0
LINE
  5
110
330
17
100
AcDbEntity
  8
0
100
AcDbLine
 10
1585.9174533300761
 20
1723.022540335991
 30
0.0
 11
1585.54641791763
 21
1744.2791448786838
 31
0.0
  0
LINE
  5
111
330
17
100
AcDbEntity
  8
0
100
AcDbLine
 10
1585.54641791763
 20
1744.2791448786838
 30
0.0
 11
1585.54641791763
 21
1744.2791448786838
 31
0.0
  0
LINE
  5
112
330
17
100
AcDbEntity
  8
0
100
AcDbLine
 10
1054.1313043502569
 20
1735.0032595675293
 30
0.0
 11
1075.3879088929493
 21
1735.3742949799753
 31
0.0
  0
LINE
  5
113
330
17
100
AcDbEntity
  8
0
100
AcDbLine
 10
1075.3879088929493
 20
1735.3742949799753
 30
0.0
 11
1075.7589443053955
 21
1714.1176904372824
 31
0.0
  0
LINE
  5
114
330
17
100
AcDbEntity
  8
0
100
AcDbLine
 10
1075.7589443053955
 20
1714.1176904372824
 30
0.0
 11
1054.502339762703
 21
1713.7466550248364
 31
0.0
  0
LINE
  5
115
330
17
100
AcDbEntity
  8
0
100
AcDbLine
 10
1054.502339762703
 20
1713.7466550248364
 30
0.0
 11
1054.1313043502569
 21
1735.0032595675293
 31
0.0
  0
LINE
  5
116
330
17
100
AcDbEntity
  8
0
100
AcDbLine
 10
1054.1313043502569
 20
1735.0032595675293
 30
0.0
 11
1054.1313043502569
 21
1735.0032595675293
 31
0.0
  0
LINE
  5
117
330
17
100
AcDbEntity
  8
0
100
AcDbLine
 10
533.3444930542281
 20
1725.9128919625978
 30
0.0
 11
554.601097596924
 21
1726.283927375044
 31
0.0
  0
LINE
  5
118
330
17
100
AcDbEntity
  8
0
100
AcDbLine
 10
554.601097596924
 20
1726.283927375044
 30
0.0
 11
554.9721330093702
 21
1705.027322832351
 31
0.0
  0
LINE
  5
119
330
17
100
AcDbEntity
  8
0
100
AcDbLine
 10
554.9721330093702
 20
1705.027322832351
 30
0.0
 11
533.7155284666743
 21
1704.6562874199049
 31
0.0
  0
LINE
  5
11A
330
17
100
AcDbEntity
  8
0
100
AcDbLine
 10
533.7155284666743
 20
1704.6562874199049
 30
0.0
 11
533.3444930542281
 21
1725.9128919625978
 31
0.0
  0
LINE
  5
11B
330
17
100
AcDbEntity
  8
0
100
AcDbLine
 10
533.3444930542281
 20
1725.9128919625978
 30
0.0
 11
533.3444930542281
 21
1725.9128919625978
 31
0.0
  0
LINE
  5
11C
330
17
100
AcDbEntity
  8
0
100
AcDbLine
 10
725.5151625932755
 20
461.751360022628
 30
0.0
 11
725.370871043991
 21
470.0178173447862
 31
0.0
  0
LINE
  5
11D
330
17
100
AcDbEntity
  8
0
100
AcDbLine
 10
725.370871043991
 20
470.0178173447862
 30
0.0
 11
731.2754834169614
 21
470.1208827371323
 31
0.0
  0
LINE
  5
11E
330
17
100
AcDbEntity
  8
0
100
AcDbLine
 10
731.2754834169614
 20
470.1208827371323
 30
0.0
 11
731.2754834169614
 21
470.1208827371323
 31
0.0
  0
LINE
  5
11F
330
17
100
AcDbEntity
  8
0
100
AcDbLine
 10
728.3231772304764
 20
470.0693500409592
 30
0.0
 11
726.7565832668147
 21
559.8194581101184
 31
0.0
  0
LINE
  5
120
330
17
100
AcDbEntity
  8
0
100
AcDbLine
 10
726.7565832668147
 20
559.8194581101184
 30
0.0
 11
723.8042770803293
 21
559.7679254139454
 31
0.0
  0
LINE
  5
121
330
17
100
AcDbEntity
  8
0
100
AcDbLine
 10
723.8042770803293
 20
559.7679254139454
 30
0.0
 11
725.370871043991
 21
470.0178173447862
 31
0.0
  0
LINE
  5
122
330
17
100
AcDbEntity
  8
0
100
AcDbLine
 10
725.370871043991
 20
470.0178173447862
 30
0.0
 11
728.3231772304764
 21
470.0693500409592
 31
0.0
  0
LINE
  5
123
330
17
100
AcDbEntity
  8
0
100
AcDbLine
 10
728.3231772304764
 20
470.0693500409592
 30
0.0
 11
728.3231772304764
 21
470.0693500409592
 31
0.0
  0
LINE
  5
124
330
17
100
AcDbEntity
  8
0
100
AcDbLine
 10
728.946205549938
 20
603.5651223662755
 30
0.0
 11
729.7088894532997
 21
559.8709908062915
 31
0.0
  0
LINE
  5
125
330
17
100
AcDbEntity
  8
0
100
AcDbLine
 10
729.7088894532997
 20
559.8709908062915
 30
0.0
 11
723.8042770803293
 21
559.7679254139454
 31
0.0
  0
LINE
  5
126
330
17
100
AcDbEntity
  8
0
100
AcDbLine
 10
723.8042770803293
 20
559.7679254139454
 30
0.0
 11
723.6599855310446
 21
568.034382736103
 31
0.0
  0
LINE
  5
127
330
17
100
AcDbEntity
  8
0
100
AcDbLine
 10
729.564597904015
 20
568.1374481284493
 30
0.0
 11
729.564597904015
 21
568.1374481284493
 31
0.0
  0
LINE
  5
128
330
17
100
AcDbEntity
  8
0
100
AcDbLine
 10
1430.2313198255758
 20
423.25708838274215
 30
0.0
 11
1438.4977771477352
 21
423.40137993202677
 31
0.0
  0
LINE
  5
129
330
17
100
AcDbEntity
  8
0
100
AcDbLine
 10
1438.4977771477352
 20
423.40137993202677
 30
0.0
 11
1438.6008425400812
 21
417.4967675590568
 31
0.0
  0
LINE
  5
12A
330
17
100
AcDbEntity
  8
0
100
AcDbLine
 10
1438.6008425400812
 20
417.4967675590568
 30
0.0
 11
1438.6008425400812
 21
417.4967675590568
 31
0.0
  0
LINE
  5
12B
330
17
100
AcDbEntity
  8
0
100
AcDbLine
 10
1438.549309843908
 20
420.4490737455418
 30
0.0
 11
1528.2994179130656
 21
422.0156677092035
 31
0.0
  0
LINE
  5
12C
330
17
100
AcDbEntity
  8
0
100
AcDbLine
 10
1528.2994179130656
 20
422.0156677092035
 30
0.0
 11
1528.2478852168927
 21
424.9679738956885
 31
0.0
  0
LINE
  5
12D
330
17
100
AcDbEntity
  8
0
100
AcDbLine
 10
1528.2478852168927
 20
424.9679738956885
 30
0.0
 11
1438.4977771477352
 21
423.40137993202677
 31
0.0
  0
LINE
  5
12E
330
17
100
AcDbEntity
  8
0
100
AcDbLine
 10
1438.4977771477352
 20
423.40137993202677
 30
0.0
 11
1438.549309843908
 21
420.4490737455418
 31
0.0
  0
LINE
  5
12F
330
17
100
AcDbEntity
  8
0
100
AcDbLine
 10
1438.549309843908
 20
420.4490737455418
 30
0.0
 11
1438.549309843908
 21
420.4490737455418
 31
0.0
  0
LINE
  5
130
330
17
100
AcDbEntity
  8
0
100
AcDbLine
 10
1710.2130116967398
 20
422.23777560698034
 30
0.0
 11
1528.3509506092387
 21
419.06336152271854
 31
0.0
  0
LINE
  5
131
330
17
100
AcDbEntity
  8
0
100
AcDbLine
 10
1528.3509506092387
 20
419.06336152271854
 30
0.0
 11
1528.2478852168927
 21
424.9679738956885
 31
0.0
  0
LINE
  5
132
330
17
100
AcDbEntity
  8
0
100
AcDbLine
 10
1528.2478852168927
 20
424.9679738956885
 30
0.0
 11
1536.5143425390518
 21
425.1122654449731
 31
0.0
  0
LINE
  5
133
330
17
100
AcDbEntity
  8
0
100
AcDbLine
 10
1536.6174079313978
 20
419.20765307200315
 30
0.0
 11
1536.6174079313978
 21
419.20765307200315
 31
0.0
  0
LINE
  5
134
330
17
100
AcDbEntity
  8
0
100
AcDbLine
 10
1170.4283754148619
 20
418.72221111951114
 30
0.0
 11
1178.6948327370203
 21
418.86650266879576
 31
0.0
  0
LINE
  5
135
330
17
100
AcDbEntity
  8
0
100
AcDbLine
 10
1178.6948327370203
 20
418.86650266879576
 30
0.0
 11
1178.7978981293663
 21
412.9618902958258
 31
0.0
  0
LINE
  5
136
330
17
100
AcDbEntity
  8
0
100
AcDbLine
 10
1178.7978981293663
 20
412.9618902958258
 30
0.0
 11
1178.7978981293663
 21
412.9618902958258
 31
0.0
  0
LINE
  5
137
330
17
100
AcDbEntity
  8
0
100
AcDbLine
 10
1178.7463654331932
 20
415.9141964823108
 30
0.0
 11
1268.4964735023514
 21
417.4807904459725
 31
0.0
  0
LINE
  5
138
330
17
100
AcDbEntity
  8
0
100
AcDbLine
 10
1268.4964735023514
 20
417.4807904459725
 30
0.0
 11
1268.4449408061785
 21
420.4330966324575
 31
0.0
  0
LINE
  5
139
330
17
100
AcDbEntity
  8
0
100
AcDbLine
 10
1268.4449408061785
 20
420.4330966324575
 30
0.0
 11
1178.6948327370203
 21
418.86650266879576
 31
0.0
  0
LINE
  5
13A
330
17
100
AcDbEntity
  8
0
100
AcDbLine
 10
1178.6948327370203
 20
418.86650266879576
 30
0.0
 11
1178.7463654331932
 21
415.9141964823108
 31
0.0
  0
LINE
  5
13B
330
17
100
AcDbEntity
  8
0
100
AcDbLine
 10
1178.7463654331932
 20
415.9141964823108
 30
0.0
 11
1178.7463654331932
 21
415.9141964823108
 31
0.0
  0
LINE
  5
13C
330
17
100
AcDbEntity
  8
0
100
AcDbLine
 10
1438.6008425400812
 20
417.4967675590568
 30
0.0
 11
1268.5480061985245
 21
414.5284842594875
 31
0.0
  0
LINE
  5
13D
330
17
100
AcDbEntity
  8
0
100
AcDbLine
 10
1268.5480061985245
 20
414.5284842594875
 30
0.0
 11
1268.4449408061785
 21
420.4330966324575
 31
0.0
  0
LINE
  5
13E
330
17
100
AcDbEntity
  8
0
100
AcDbLine
 10
1268.4449408061785
 20
420.4330966324575
 30
0.0
 11
1276.7113981283374
 21
420.5773881817421
 31
0.0
  0
LINE
  5
13F
330
17
100
AcDbEntity
  8
0
100
AcDbLine
 10
1276.8144635206834
 20
414.67277580877214
 30
0.0
 11
1276.8144635206834
 21
414.67277580877214
 31
0.0
  0
LINE
  5
140
330
17
100
AcDbEntity
  8
0
100
AcDbLine
 10
1961.6464333929496
 20
432.5329736938969
 30
0.0
 11
1969.9128907151087
 21
432.6772652431815
 31
0.0
  0
LINE
  5
141
330
17
100
AcDbEntity
  8
0
100
AcDbLine
 10
1969.9128907151087
 20
432.6772652431815
 30
0.0
 11
1970.0159561074547
 21
426.7726528702116
 31
0.0
  0
LINE
  5
142
330
17
100
AcDbEntity
  8
0
100
AcDbLine
 10
1970.0159561074547
 20
426.7726528702116
 30
0.0
 11
1970.0159561074547
 21
426.7726528702116
 31
0.0
  0
LINE
  5
143
330
17
100
AcDbEntity
  8
0
100
AcDbLine
 10
1969.9644234112816
 20
429.72495905669655
 30
0.0
 11
2058.502117739854
 21
431.2703902597963
 31
0.0
  0
LINE
  5
144
330
17
100
AcDbEntity
  8
0
100
AcDbLine
 10
2058.450585043681
 20
434.22269644628125
 30
0.0
 11
1969.9128907151087
 21
432.6772652431815
 31
0.0
  0
LINE
  5
145
330
17
100
AcDbEntity
  8
0
100
AcDbLine
 10
1969.9128907151087
 20
432.6772652431815
 30
0.0
 11
1969.9644234112816
 21
429.72495905669655
 31
0.0
  0
LINE
  5
146
330
17
100
AcDbEntity
  8
0
100
AcDbLine
 10
1969.9644234112816
 20
429.72495905669655
 30
0.0
 11
1969.9644234112816
 21
429.72495905669655
 31
0.0
  0
LINE
  5
147
330
17
100
AcDbEntity
  8
0
100
AcDbLine
 10
1701.8434889822347
 20
427.99809643066567
 30
0.0
 11
1710.1099463043938
 21
428.1423879799503
 31
0.0
  0
LINE
  5
148
330
17
100
AcDbEntity
  8
0
100
AcDbLine
 10
1710.1099463043938
 20
428.1423879799503
 30
0.0
 11
1710.2130116967398
 21
422.23777560698034
 31
0.0
  0
LINE
  5
149
330
17
100
AcDbEntity
  8
0
100
AcDbLine
 10
1710.2130116967398
 20
422.23777560698034
 30
0.0
 11
1710.2130116967398
 21
422.23777560698034
 31
0.0
  0
LINE
  5
14A
330
17
100
AcDbEntity
  8
0
100
AcDbLine
 10
1710.1614790005667
 20
425.1900817934653
 30
0.0
 11
1799.9115870697256
 21
426.756675757127
 31
0.0
  0
LINE
  5
14B
330
17
100
AcDbEntity
  8
0
100
AcDbLine
 10
1799.9115870697256
 20
426.756675757127
 30
0.0
 11
1799.8600543735527
 21
429.708981943612
 31
0.0
  0
LINE
  5
14C
330
17
100
AcDbEntity
  8
0
100
AcDbLine
 10
1799.8600543735527
 20
429.708981943612
 30
0.0
 11
1710.1099463043938
 21
428.1423879799503
 31
0.0
  0
LINE
  5
14D
330
17
100
AcDbEntity
  8
0
100
AcDbLine
 10
1710.1099463043938
 20
428.1423879799503
 30
0.0
 11
1710.1614790005667
 21
425.1900817934653
 31
0.0
  0
LINE
  5
14E
330
17
100
AcDbEntity
  8
0
100
AcDbLine
 10
1710.1614790005667
 20
425.1900817934653
 30
0.0
 11
1710.1614790005667
 21
425.1900817934653
 31
0.0
  0
LINE
  5
14F
330
17
100
AcDbEntity
  8
0
100
AcDbLine
 10
1970.0159561074547
 20
426.7726528702116
 30
0.0
 11
1799.9631197658987
 21
423.80436957064205
 31
0.0
  0
LINE
  5
150
330
17
100
AcDbEntity
  8
0
100
AcDbLine
 10
1799.9631197658987
 20
423.80436957064205
 30
0.0
 11
1799.8600543735527
 21
429.708981943612
 31
0.0
  0
LINE
  5
151
330
17
100
AcDbEntity
  8
0
100
AcDbLine
 10
1799.8600543735527
 20
429.708981943612
 30
0.0
 11
1808.1265116957104
 21
429.8532734928966
 31
0.0
  0
LINE
  5
152
330
17
100
AcDbEntity
  8
0
100
AcDbLine
 10
1808.2295770880564
 20
423.94866111992667
 30
0.0
 11
1808.2295770880564
 21
423.94866111992667
 31
0.0
  0
LINE
  5
153
330
17
100
AcDbEntity
  8
0
100
AcDbLine
 10
817.0585444546568
 20
764.5762363871613
 30
0.0
 11
817.0296366775584
 21
765.1027102360591
 31
0.0
  0
LINE
  5
154
330
17
100
AcDbEntity
  8
0
100
AcDbLine
 10
817.0296366775584
 20
765.1027102360591
 30
0.0
 11
816.9614662924687
 21
765.6255516764094
 31
0.0
  0
LINE
  5
155
330
17
100
AcDbEntity
  8
0
100
AcDbLine
 10
816.9614662924687
 20
765.6255516764094
 30
0.0
 11
816.8544145358337
 21
766.1418367667927
 31
0.0
  0
LINE
  5
156
330
17
100
AcDbEntity
  8
0
100
AcDbLine
 10
816.8544145358337
 20
766.1418367667927
 30
0.0
 11
816.7090800845008
 21
766.6486782315587
 31
0.0
  0
LINE
  5
157
330
17
100
AcDbEntity
  8
0
100
AcDbLine
 10
816.7090800845008
 20
766.6486782315587
 30
0.0
 11
816.5262757076748
 21
767.1432416076428
 31
0.0
  0
LINE
  5
158
330
17
100
AcDbEntity
  8
0
100
AcDbLine
 10
816.5262757076748
 20
767.1432416076428
 30
0.0
 11
816.3070237215836
 21
767.622761096033
 31
0.0
  0
LINE
  5
159
330
17
100
AcDbEntity
  8
0
100
AcDbLine
 10
816.3070237215836
 20
767.622761096033
 30
0.0
 11
816.0525502722699
 21
768.0845550292379
 31
0.0
  0
LINE
  5
15A
330
17
100
AcDbEntity
  8
0
100
AcDbLine
 10
816.0525502722699
 20
768.0845550292379
 30
0.0
 11
815.7642784784865
 21
768.5260408682625
 31
0.0
  0
LINE
  5
15B
330
17
100
AcDbEntity
  8
0
100
AcDbLine
 10
815.7642784784865
 20
768.5260408682625
 30
0.0
 11
815.443820473038
 21
768.9447496452125
 31
0.0
  0
LINE
  5
15C
330
17
100
AcDbEntity
  8
0
100
AcDbLine
 10
815.443820473038
 20
768.9447496452125
 30
0.0
 11
815.0929683870808
 21
769.3383397707614
 31
0.0
  0
LINE
  5
15D
330
17
100
AcDbEntity
  8
0
100
AcDbLine
 10
815.0929683870808
 20
769.3383397707614
 30
0.0
 11
814.7136843277982
 21
769.7046101292739
 31
0.0
  0
LINE
  5
15E
330
17
100
AcDbEntity
  8
0
100
AcDbLine
 10
814.7136843277982
 20
769.7046101292739
 30
0.0
 11
814.3080894055021
 21
770.0415123883314
 31
0.0
  0
LINE
  5
15F
330
17
100
AcDbEntity
  8
0
100
AcDbLine
 10
814.3080894055021
 20
770.0415123883314
 30
0.0
 11
813.8784518715219
 21
770.3471624538408
 31
0.0
  0
LINE
  5
160
330
17
100
AcDbEntity
  8
0
100
AcDbLine
 10
813.8784518715219
 20
770.3471624538408
 30
0.0
 11
813.427174433225
 21
770.619851006653
 31
0.0
  0
LINE
  5
161
330
17
100
AcDbEntity
  8
0
100
AcDbLine
 10
813.427174433225
 20
770.619851006653
 30
0.0
 11
812.9567808171018
 21
770.8580530617676
 31
0.0
  0
LINE
  5
162
330
17
100
AcDbEntity
  8
0
100
AcDbLine
 10
812.9567808171018
 20
770.8580530617676
 30
0.0
 11
812.4699016550627
 21
771.0604364966691
 31
0.0
  0
LINE
  5
163
330
17
100
AcDbEntity
  8
0
100
AcDbLine
 10
812.4699016550627
 20
771.0604364966691
 30
0.0
 11
811.9692597728782
 21
771.2258695010953
 31
0.0
  0
LINE
  5
164
330
17
100
AcDbEntity
  8
0
100
AcDbLine
 10
811.9692597728782
 20
771.2258695010953
 30
0.0
 11
811.457654963033
 21
771.353426906579
 31
0.0
  0
LINE
  5
165
330
17
100
AcDbEntity
  8
0
100
AcDbLine
 10
811.457654963033
 20
771.353426906579
 30
0.0
 11
810.9379483271496
 21
771.4423953603667
 31
0.0
  0
LINE
  5
166
330
17
100
AcDbEntity
  8
0
100
AcDbLine
 10
810.9379483271496
 20
771.4423953603667
 30
0.0
 11
810.4130462755485
 21
771.4922773147761
 31
0.0
  0
LINE
  5
167
330
17
100
AcDbEntity
  8
0
100
AcDbLine
 10
810.4130462755485
 20
771.4922773147761
 30
0.0
 11
809.8858842734229
 21
771.5027938096845
 31
0.0
  0
LINE
  5
168
330
17
100
AcDbEntity
  8
0
100
AcDbLine
 10
809.8858842734229
 20
771.5027938096845
 30
0.0
 11
809.3594104245245
 21
771.4738860325857
 31
0.0
  0
LINE
  5
169
330
17
100
AcDbEntity
  8
0
100
AcDbLine
 10
809.3594104245245
 20
771.4738860325857
 30
0.0
 11
808.8365689841744
 21
771.4057156474963
 31
0.0
  0
LINE
  5
16A
330
17
100
AcDbEntity
  8
0
100
AcDbLine
 10
808.8365689841744
 20
771.4057156474963
 30
0.0
 11
808.3202838937915
 21
771.2986638908615
 31
0.0
  0
LINE
  5
16B
330
17
100
AcDbEntity
  8
0
100
AcDbLine
 10
808.3202838937915
 20
771.2986638908615
 30
0.0
 11
807.8134424290251
 21
771.1533294395285
 31
0.0
  0
LINE
  5
16C
330
17
100
AcDbEntity
  8
0
100
AcDbLine
 10
807.8134424290251
 20
771.1533294395285
 30
0.0
 11
807.318879052941
 21
770.9705250627023
 31
0.0
  0
LINE
  5
16D
330
17
100
AcDbEntity
  8
0
100
AcDbLine
 10
807.318879052941
 20
770.9705250627023
 30
0.0
 11
806.8393595645515
 21
770.7512730766111
 31
0.0
  0
LINE
  5
16E
330
17
100
AcDbEntity
  8
0
100
AcDbLine
 10
806.8393595645515
 20
770.7512730766111
 30
0.0
 11
806.3775656313462
 21
770.4967996272976
 31
0.0
  0
LINE
  5
16F
330
17
100
AcDbEntity
  8
0
100
AcDbLine
 10
806.3775656313462
 20
770.4967996272976
 30
0.0
 11
805.9360797923214
 21
770.2085278335144
 31
0.0
  0
LINE
  5
170
330
17
100
AcDbEntity
  8
0
100
AcDbLine
 10
805.9360797923214
 20
770.2085278335144
 30
0.0
 11
805.5173710153721
 21
769.888069828066
 31
0.0
  0
LINE
  5
171
330
17
100
AcDbEntity
  8
0
100
AcDbLine
 10
805.5173710153721
 20
769.888069828066
 30
0.0
 11
805.1237808898227
 21
769.5372177421086
 31
0.0
  0
LINE
  5
172
330
17
100
AcDbEntity
  8
0
100
AcDbLine
 10
805.1237808898227
 20
769.5372177421086
 30
0.0
 11
804.7575105313102
 21
769.1579336828261
 31
0.0
  0
LINE
  5
173
330
17
100
AcDbEntity
  8
0
100
AcDbLine
 10
804.7575105313102
 20
769.1579336828261
 30
0.0
 11
804.4206082722529
 21
768.7523387605303
 31
0.0
  0
LINE
  5
174
330
17
100
AcDbEntity
  8
0
100
AcDbLine
 10
804.4206082722529
 20
768.7523387605303
 30
0.0
 11
804.1149582067433
 21
768.3227012265496
 31
0.0
  0
LINE
  5
175
330
17
100
AcDbEntity
  8
0
100
AcDbLine
 10
804.1149582067433
 20
768.3227012265496
 30
0.0
 11
803.842269653931
 21
767.8714237882531
 31
0.0
  0
LINE
  5
176
330
17
100
AcDbEntity
  8
0
100
AcDbLine
 10
803.842269653931
 20
767.8714237882531
 30
0.0
 11
803.6040675988162
 21
767.4010301721297
 31
0.0
  0
LINE
  5
177
330
17
100
AcDbEntity
  8
0
100
AcDbLine
 10
803.6040675988162
 20
767.4010301721297
 30
0.0
 11
803.4016841639146
 21
766.9141510100901
 31
0.0
  0
LINE
  5
178
330
17
100
AcDbEntity
  8
0
100
AcDbLine
 10
803.4016841639146
 20
766.9141510100901
 30
0.0
 11
803.2362511594886
 21
766.4135091279059
 31
0.0
  0
LINE
  5
179
330
17
100
AcDbEntity
  8
0
100
AcDbLine
 10
803.2362511594886
 20
766.4135091279059
 30
0.0
 11
803.1086937540052
 21
765.9019043180606
 31
0.0
  0
LINE
  5
17A
330
17
100
AcDbEntity
  8
0
100
AcDbLine
 10
803.1086937540052
 20
765.9019043180606
 30
0.0
 11
803.0197253002171
 21
765.3821976821772
 31
0.0
  0
LINE
  5
17B
330
17
100
AcDbEntity
  8
0
100
AcDbLine
 10
803.0197253002171
 20
765.3821976821772
 30
0.0
 11
802.9698433458076
 21
764.8572956305761
 31
0.0
  0
LINE
  5
17C
330
17
100
AcDbEntity
  8
0
100
AcDbLine
 10
802.9698433458076
 20
764.8572956305761
 30
0.0
 11
802.9593268508994
 21
764.3301336284507
 31
0.0
  0
LINE
  5
17D
330
17
100
AcDbEntity
  8
0
100
AcDbLine
 10
802.9593268508994
 20
764.3301336284507
 30
0.0
 11
802.9882346279979
 21
763.8036597795523
 31
0.0
  0
LINE
  5
17E
330
17
100
AcDbEntity
  8
0
100
AcDbLine
 10
802.9882346279979
 20
763.8036597795523
 30
0.0
 11
803.0564050130876
 21
763.2808183392024
 31
0.0
  0
LINE
  5
17F
330
17
100
AcDbEntity
  8
0
100
AcDbLine
 10
803.0564050130876
 20
763.2808183392024
 30
0.0
 11
803.1634567697228
 21
762.7645332488187
 31
0.0
  0
LINE
  5
180
330
17
100
AcDbEntity
  8
0
100
AcDbLine
 10
803.1634567697228
 20
762.7645332488187
 30
0.0
 11
803.3087912210553
 21
762.2576917840531
 31
0.0
  0
LINE
  5
181
330
17
100
AcDbEntity
  8
0
100
AcDbLine
 10
803.3087912210553
 20
762.2576917840531
 30
0.0
 11
803.4915955978814
 21
761.763128407969
 31
0.0
  0
LINE
  5
182
330
17
100
AcDbEntity
  8
0
100
AcDbLine
 10
803.4915955978814
 20
761.763128407969
 30
0.0
 11
803.7108475839726
 21
761.2836089195794
 31
0.0
  0
LINE
  5
183
330
17
100
AcDbEntity
  8
0
100
AcDbLine
 10
803.7108475839726
 20
761.2836089195794
 30
0.0
 11
803.9653210332863
 21
760.821814986374
 31
0.0
  0
LINE
  5
184
330
17
100
AcDbEntity
  8
0
100
AcDbLine
 10
803.9653210332863
 20
760.821814986374
 30
0.0
 11
804.2535928270697
 21
760.3803291473489
 31
0.0
  0
LINE
  5
185
330
17
100
AcDbEntity
  8
0
100
AcDbLine
 10
804.2535928270697
 20
760.3803291473489
 30
0.0
 11
804.5740508325183
 21
759.9616203703997
 31
0.0
  0
LINE
  5
186
330
17
100
AcDbEntity
  8
0
100
AcDbLine
 10
804.5740508325183
 20
759.9616203703997
 30
0.0
 11
804.9249029184754
 21
759.5680302448508
 31
0.0
  0
LINE
  5
187
330
17
100
AcDbEntity
  8
0
100
AcDbLine
 10
804.9249029184754
 20
759.5680302448508
 30
0.0
 11
805.304186977758
 21
759.201759886338
 31
0.0
  0
LINE
  5
188
330
17
100
AcDbEntity
  8
0
100
AcDbLine
 10
805.304186977758
 20
759.201759886338
 30
0.0
 11
805.7097819000543
 21
758.8648576272803
 31
0.0
  0
LINE
  5
189
330
17
100
AcDbEntity
  8
0
100
AcDbLine
 10
805.7097819000543
 20
758.8648576272803
 30
0.0
 11
806.1394194340343
 21
758.559207561771
 31
0.0
  0
LINE
  5
18A
330
17
100
AcDbEntity
  8
0
100
AcDbLine
 10
806.1394194340343
 20
758.559207561771
 30
0.0
 11
806.5906968723311
 21
758.2865190089589
 31
0.0
  0
LINE
  5
18B
330
17
100
AcDbEntity
  8
0
100
AcDbLine
 10
806.5906968723311
 20
758.2865190089589
 30
0.0
 11
807.0610904884546
 21
758.0483169538443
 31
0.0
  0
LINE
  5
18C
330
17
100
AcDbEntity
  8
0
100
AcDbLine
 10
807.0610904884546
 20
758.0483169538443
 30
0.0
 11
807.5479696504937
 21
757.8459335189423
 31
0.0
  0
LINE
  5
18D
330
17
100
AcDbEntity
  8
0
100
AcDbLine
 10
807.5479696504937
 20
757.8459335189423
 30
0.0
 11
808.048611532678
 21
757.680500514516
 31
0.0
  0
LINE
  5
18E
330
17
100
AcDbEntity
  8
0
100
AcDbLine
 10
808.048611532678
 20
757.680500514516
 30
0.0
 11
808.5602163425234
 21
757.5529431090329
 31
0.0
  0
LINE
  5
18F
330
17
100
AcDbEntity
  8
0
100
AcDbLine
 10
808.5602163425234
 20
757.5529431090329
 30
0.0
 11
809.0799229784066
 21
757.463974655245
 31
0.0
  0
LINE
  5
190
330
17
100
AcDbEntity
  8
0
100
AcDbLine
 10
809.0799229784066
 20
757.463974655245
 30
0.0
 11
809.6048250300076
 21
757.4140927008352
 31
0.0
  0
LINE
  5
191
330
17
100
AcDbEntity
  8
0
100
AcDbLine
 10
809.6048250300076
 20
757.4140927008352
 30
0.0
 11
810.1319870321336
 21
757.4035762059268
 31
0.0
  0
LINE
  5
192
330
17
100
AcDbEntity
  8
0
100
AcDbLine
 10
810.1319870321336
 20
757.4035762059268
 30
0.0
 11
810.6584608810316
 21
757.4324839830256
 31
0.0
  0
LINE
  5
193
330
17
100
AcDbEntity
  8
0
100
AcDbLine
 10
810.6584608810316
 20
757.4324839830256
 30
0.0
 11
811.1813023213817
 21
757.5006543681154
 31
0.0
  0
LINE
  5
194
330
17
100
AcDbEntity
  8
0
100
AcDbLine
 10
811.1813023213817
 20
757.5006543681154
 30
0.0
 11
811.6975874117649
 21
757.6077061247504
 31
0.0
  0
LINE
  5
195
330
17
100
AcDbEntity
  8
0
100
AcDbLine
 10
811.6975874117649
 20
757.6077061247504
 30
0.0
 11
812.2044288765311
 21
757.7530405760828
 31
0.0
  0
LINE
  5
196
330
17
100
AcDbEntity
  8
0
100
AcDbLine
 10
812.2044288765311
 20
757.7530405760828
 30
0.0
 11
812.6989922526153
 21
757.9358449529091
 31
0.0
  0
LINE
  5
197
330
17
100
AcDbEntity
  8
0
100
AcDbLine
 10
812.6989922526153
 20
757.9358449529091
 30
0.0
 11
813.178511741005
 21
758.1550969390008
 31
0.0
  0
LINE
  5
198
330
17
100
AcDbEntity
  8
0
100
AcDbLine
 10
813.178511741005
 20
758.1550969390008
 30
0.0
 11
813.6403056742099
 21
758.4095703883143
 31
0.0
  0
LINE
  5
199
330
17
100
AcDbEntity
  8
0
100
AcDbLine
 10
813.6403056742099
 20
758.4095703883143
 30
0.0
 11
814.0817915132347
 21
758.6978421820975
 31
0.0
  0
LINE
  5
19A
330
17
100
AcDbEntity
  8
0
100
AcDbLine
 10
814.0817915132347
 20
758.6978421820975
 30
0.0
 11
814.5005002901843
 21
759.0183001875457
 31
0.0
  0
LINE
  5
19B
330
17
100
AcDbEntity
  8
0
100
AcDbLine
 10
814.5005002901843
 20
759.0183001875457
 30
0.0
 11
814.8940904157336
 21
759.3691522735032
 31
0.0
  0
LINE
  5
19C
330
17
100
AcDbEntity
  8
0
100
AcDbLine
 10
814.8940904157336
 20
759.3691522735032
 30
0.0
 11
815.2603607742459
 21
759.7484363327861
 31
0.0
  0
LINE
  5
19D
330
17
100
AcDbEntity
  8
0
100
AcDbLine
 10
815.2603607742459
 20
759.7484363327861
 30
0.0
 11
815.5972630333034
 21
760.1540312550819
 31
0.0
  0
LINE
  5
19E
330
17
100
AcDbEntity
  8
0
100
AcDbLine
 10
815.5972630333034
 20
760.1540312550819
 30
0.0
 11
815.902913098813
 21
760.5836687890619
 31
0.0
  0
LINE
  5
19F
330
17
100
AcDbEntity
  8
0
100
AcDbLine
 10
815.902913098813
 20
760.5836687890619
 30
0.0
 11
816.1756016516251
 21
761.0349462273589
 31
0.0
  0
LINE
  5
1A0
330
17
100
AcDbEntity
  8
0
100
AcDbLine
 10
816.1756016516251
 20
761.0349462273589
 30
0.0
 11
816.41380370674
 21
761.5053398434827
 31
0.0
  0
LINE
  5
1A1
330
17
100
AcDbEntity
  8
0
100
AcDbLine
 10
816.41380370674
 20
761.5053398434827
 30
0.0
 11
816.6161871416416
 21
761.9922190055217
 31
0.0
  0
LINE
  5
1A2
330
17
100
AcDbEntity
  8
0
100
AcDbLine
 10
816.6161871416416
 20
761.9922190055217
 30
0.0
 11
816.7816201460676
 21
762.492860887706
 31
0.0
  0
LINE
  5
1A3
330
17
100
AcDbEntity
  8
0
100
AcDbLine
 10
816.7816201460676
 20
762.492860887706
 30
0.0
 11
816.9091775515512
 21
763.0044656975508
 31
0.0
  0
LINE
  5
1A4
330
17
100
AcDbEntity
  8
0
100
AcDbLine
 10
816.9091775515512
 20
763.0044656975508
 30
0.0
 11
816.9981460053391
 21
763.5241723334345
 31
0.0
  0
LINE
  5
1A5
330
17
100
AcDbEntity
  8
0
100
AcDbLine
 10
816.9981460053391
 20
763.5241723334345
 30
0.0
 11
817.0480279597488
 21
764.0490743850353
 31
0.0
  0
LINE
  5
1A6
330
17
100
AcDbEntity
  8
0
100
AcDbLine
 10
817.0480279597488
 20
764.0490743850353
 30
0.0
 11
817.0585444546568
 21
764.5762363871613
 31
0.0
  0
LINE
  5
1A7
330
17
100
AcDbEntity
  8
0
100
AcDbLine
 10
643.1836295215139
 20
1115.92592162278
 30
0.0
 11
643.1547217444155
 21
1116.4523954716774
 31
0.0
  0
LINE
  5
1A8
330
17
100
AcDbEntity
  8
0
100
AcDbLine
 10
643.1547217444155
 20
1116.4523954716774
 30
0.0
 11
643.0865513593255
 21
1116.975236912028
 31
0.0
  0
LINE
  5
1A9
330
17
100
AcDbEntity
  8
0
100
AcDbLine
 10
643.0865513593255
 20
1116.975236912028
 30
0.0
 11
642.9794996026908
 21
1117.4915220024109
 31
0.0
  0
LINE
  5
1AA
330
17
100
AcDbEntity
  8
0
100
AcDbLine
 10
642.9794996026908
 20
1117.4915220024109
 30
0.0
 11
642.8341651513576
 21
1117.998363467177
 31
0.0
  0
LINE
  5
1AB
330
17
100
AcDbEntity
  8
0
100
AcDbLine
 10
642.8341651513576
 20
1117.998363467177
 30
0.0
 11
642.6513607745318
 21
1118.4929268432609
 31
0.0
  0
LINE
  5
1AC
330
17
100
AcDbEntity
  8
0
100
AcDbLine
 10
642.6513607745318
 20
1118.4929268432609
 30
0.0
 11
642.4321087884406
 21
1118.9724463316516
 31
0.0
  0
LINE
  5
1AD
330
17
100
AcDbEntity
  8
0
100
AcDbLine
 10
642.4321087884406
 20
1118.9724463316516
 30
0.0
 11
642.1776353391268
 21
1119.4342402648565
 31
0.0
  0
LINE
  5
1AE
330
17
100
AcDbEntity
  8
0
100
AcDbLine
 10
642.1776353391268
 20
1119.4342402648565
 30
0.0
 11
641.8893635453434
 21
1119.8757261038807
 31
0.0
  0
LINE
  5
1AF
330
17
100
AcDbEntity
  8
0
100
AcDbLine
 10
641.8893635453434
 20
1119.8757261038807
 30
0.0
 11
641.5689055398951
 21
1120.2944348808303
 31
0.0
  0
LINE
  5
1B0
330
17
100
AcDbEntity
  8
0
100
AcDbLine
 10
641.5689055398951
 20
1120.2944348808303
 30
0.0
 11
641.2180534539377
 21
1120.6880250063796
 31
0.0
  0
LINE
  5
1B1
330
17
100
AcDbEntity
  8
0
100
AcDbLine
 10
641.2180534539377
 20
1120.6880250063796
 30
0.0
 11
640.8387693946554
 21
1121.0542953648926
 31
0.0
  0
LINE
  5
1B2
330
17
100
AcDbEntity
  8
0
100
AcDbLine
 10
640.8387693946554
 20
1121.0542953648926
 30
0.0
 11
640.433174472359
 21
1121.3911976239492
 31
0.0
  0
LINE
  5
1B3
330
17
100
AcDbEntity
  8
0
100
AcDbLine
 10
640.433174472359
 20
1121.3911976239492
 30
0.0
 11
640.0035369383789
 21
1121.6968476894594
 31
0.0
  0
LINE
  5
1B4
330
17
100
AcDbEntity
  8
0
100
AcDbLine
 10
640.0035369383789
 20
1121.6968476894594
 30
0.0
 11
639.5522595000821
 21
1121.969536242271
 31
0.0
  0
LINE
  5
1B5
330
17
100
AcDbEntity
  8
0
100
AcDbLine
 10
639.5522595000821
 20
1121.969536242271
 30
0.0
 11
639.0818658839587
 21
1122.2077382973862
 31
0.0
  0
LINE
  5
1B6
330
17
100
AcDbEntity
  8
0
100
AcDbLine
 10
639.0818658839587
 20
1122.2077382973862
 30
0.0
 11
638.5949867219194
 21
1122.4101217322873
 31
0.0
  0
LINE
  5
1B7
330
17
100
AcDbEntity
  8
0
100
AcDbLine
 10
638.5949867219194
 20
1122.4101217322873
 30
0.0
 11
638.0943448397351
 21
1122.575554736714
 31
0.0
  0
LINE
  5
1B8
330
17
100
AcDbEntity
  8
0
100
AcDbLine
 10
638.0943448397351
 20
1122.575554736714
 30
0.0
 11
637.5827400298899
 21
1122.7031121421976
 31
0.0
  0
LINE
  5
1B9
330
17
100
AcDbEntity
  8
0
100
AcDbLine
 10
637.5827400298899
 20
1122.7031121421976
 30
0.0
 11
637.0630333940065
 21
1122.7920805959855
 31
0.0
  0
LINE
  5
1BA
330
17
100
AcDbEntity
  8
0
100
AcDbLine
 10
637.0630333940065
 20
1122.7920805959855
 30
0.0
 11
636.5381313424057
 21
1122.8419625503948
 31
0.0
  0
LINE
  5
1BB
330
17
100
AcDbEntity
  8
0
100
AcDbLine
 10
636.5381313424057
 20
1122.8419625503948
 30
0.0
 11
636.0109693402799
 21
1122.8524790453027
 31
0.0
  0
LINE
  5
1BC
330
17
100
AcDbEntity
  8
0
100
AcDbLine
 10
636.0109693402799
 20
1122.8524790453027
 30
0.0
 11
635.4844954913816
 21
1122.8235712682044
 31
0.0
  0
LINE
  5
1BD
330
17
100
AcDbEntity
  8
0
100
AcDbLine
 10
635.4844954913816
 20
1122.8235712682044
 30
0.0
 11
634.9616540510315
 21
1122.755400883115
 31
0.0
  0
LINE
  5
1BE
330
17
100
AcDbEntity
  8
0
100
AcDbLine
 10
634.9616540510315
 20
1122.755400883115
 30
0.0
 11
634.4453689606485
 21
1122.64834912648
 31
0.0
  0
LINE
  5
1BF
330
17
100
AcDbEntity
  8
0
100
AcDbLine
 10
634.4453689606485
 20
1122.64834912648
 30
0.0
 11
633.9385274958822
 21
1122.5030146751471
 31
0.0
  0
LINE
  5
1C0
330
17
100
AcDbEntity
  8
0
100
AcDbLine
 10
633.9385274958822
 20
1122.5030146751471
 30
0.0
 11
633.4439641197981
 21
1122.3202102983205
 31
0.0
  0
LINE
  5
1C1
330
17
100
AcDbEntity
  8
0
100
AcDbLine
 10
633.4439641197981
 20
1122.3202102983205
 30
0.0
 11
632.9644446314085
 21
1122.1009583122297
 31
0.0
  0
LINE
  5
1C2
330
17
100
AcDbEntity
  8
0
100
AcDbLine
 10
632.9644446314085
 20
1122.1009583122297
 30
0.0
 11
632.5026506982033
 21
1121.8464848629158
 31
0.0
  0
LINE
  5
1C3
330
17
100
AcDbEntity
  8
0
100
AcDbLine
 10
632.5026506982033
 20
1121.8464848629158
 30
0.0
 11
632.0611648591786
 21
1121.558213069133
 31
0.0
  0
LINE
  5
1C4
330
17
100
AcDbEntity
  8
0
100
AcDbLine
 10
632.0611648591786
 20
1121.558213069133
 30
0.0
 11
631.6424560822289
 21
1121.2377550636838
 31
0.0
  0
LINE
  5
1C5
330
17
100
AcDbEntity
  8
0
100
AcDbLine
 10
631.6424560822289
 20
1121.2377550636838
 30
0.0
 11
631.2488659566798
 21
1120.8869029777272
 31
0.0
  0
LINE
  5
1C6
330
17
100
AcDbEntity
  8
0
100
AcDbLine
 10
631.2488659566798
 20
1120.8869029777272
 30
0.0
 11
630.8825955981672
 21
1120.5076189184442
 31
0.0
  0
LINE
  5
1C7
330
17
100
AcDbEntity
  8
0
100
AcDbLine
 10
630.8825955981672
 20
1120.5076189184442
 30
0.0
 11
630.5456933391097
 21
1120.102023996148
 31
0.0
  0
LINE
  5
1C8
330
17
100
AcDbEntity
  8
0
100
AcDbLine
 10
630.5456933391097
 20
1120.102023996148
 30
0.0
 11
630.2400432736002
 21
1119.6723864621679
 31
0.0
  0
LINE
  5
1C9
330
17
100
AcDbEntity
  8
0
100
AcDbLine
 10
630.2400432736002
 20
1119.6723864621679
 30
0.0
 11
629.9673547207881
 21
1119.2211090238716
 31
0.0
  0
LINE
  5
1CA
330
17
100
AcDbEntity
  8
0
100
AcDbLine
 10
629.9673547207881
 20
1119.2211090238716
 30
0.0
 11
629.7291526656733
 21
1118.7507154077484
 31
0.0
  0
LINE
  5
1CB
330
17
100
AcDbEntity
  8
0
100
AcDbLine
 10
629.7291526656733
 20
1118.7507154077484
 30
0.0
 11
629.5267692307717
 21
1118.2638362457083
 31
0.0
  0
LINE
  5
1CC
330
17
100
AcDbEntity
  8
0
100
AcDbLine
 10
629.5267692307717
 20
1118.2638362457083
 30
0.0
 11
629.3613362263457
 21
1117.763194363524
 31
0.0
  0
LINE
  5
1CD
330
17
100
AcDbEntity
  8
0
100
AcDbLine
 10
629.3613362263457
 20
1117.763194363524
 30
0.0
 11
629.233778820862
 21
1117.251589553679
 31
0.0
  0
LINE
  5
1CE
330
17
100
AcDbEntity
  8
0
100
AcDbLine
 10
629.233778820862
 20
1117.251589553679
 30
0.0
 11
629.1448103670741
 21
1116.731882917796
 31
0.0
  0
LINE
  5
1CF
330
17
100
AcDbEntity
  8
0
100
AcDbLine
 10
629.1448103670741
 20
1116.731882917796
 30
0.0
 11
629.0949284126647
 21
1116.2069808661943
 31
0.0
  0
LINE
  5
1D0
330
17
100
AcDbEntity
  8
0
100
AcDbLine
 10
629.0949284126647
 20
1116.2069808661943
 30
0.0
 11
629.0844119177564
 21
1115.6798188640694
 31
0.0
  0
LINE
  5
1D1
330
17
100
AcDbEntity
  8
0
100
AcDbLine
 10
629.0844119177564
 20
1115.6798188640694
 30
0.0
 11
629.1133196948549
 21
1115.1533450151705
 31
0.0
  0
LINE
  5
1D2
330
17
100
AcDbEntity
  8
0
100
AcDbLine
 10
629.1133196948549
 20
1115.1533450151705
 30
0.0
 11
629.1814900799445
 21
1114.630503574821
 31
0.0
  0
LINE
  5
1D3
330
17
100
AcDbEntity
  8
0
100
AcDbLine
 10
629.1814900799445
 20
1114.630503574821
 30
0.0
 11
629.2885418365795
 21
1114.1142184844375
 31
0.0
  0
LINE
  5
1D4
330
17
100
AcDbEntity
  8
0
100
AcDbLine
 10
629.2885418365795
 20
1114.1142184844375
 30
0.0
 11
629.4338762879124
 21
1113.6073770196713
 31
0.0
  0
LINE
  5
1D5
330
17
100
AcDbEntity
  8
0
100
AcDbLine
 10
629.4338762879124
 20
1113.6073770196713
 30
0.0
 11
629.6166806647384
 21
1113.1128136435873
 31
0.0
  0
LINE
  5
1D6
330
17
100
AcDbEntity
  8
0
100
AcDbLine
 10
629.6166806647384
 20
1113.1128136435873
 30
0.0
 11
629.8359326508298
 21
1112.6332941551977
 31
0.0
  0
LINE
  5
1D7
330
17
100
AcDbEntity
  8
0
100
AcDbLine
 10
629.8359326508298
 20
1112.6332941551977
 30
0.0
 11
630.0904061001435
 21
1112.1715002219926
 31
0.0
  0
LINE
  5
1D8
330
17
100
AcDbEntity
  8
0
100
AcDbLine
 10
630.0904061001435
 20
1112.1715002219926
 30
0.0
 11
630.3786778939268
 21
1111.730014382968
 31
0.0
  0
LINE
  5
1D9
330
17
100
AcDbEntity
  8
0
100
AcDbLine
 10
630.3786778939268
 20
1111.730014382968
 30
0.0
 11
630.699135899375
 21
1111.3113056060183
 31
0.0
  0
LINE
  5
1DA
330
17
100
AcDbEntity
  8
0
100
AcDbLine
 10
630.699135899375
 20
1111.3113056060183
 30
0.0
 11
631.0499879853325
 21
1110.917715480469
 31
0.0
  0
LINE
  5
1DB
330
17
100
AcDbEntity
  8
0
100
AcDbLine
 10
631.0499879853325
 20
1110.917715480469
 30
0.0
 11
631.4292720446151
 21
1110.5514451219567
 31
0.0
  0
LINE
  5
1DC
330
17
100
AcDbEntity
  8
0
100
AcDbLine
 10
631.4292720446151
 20
1110.5514451219567
 30
0.0
 11
631.8348669669111
 21
1110.2145428628994
 31
0.0
  0
LINE
  5
1DD
330
17
100
AcDbEntity
  8
0
100
AcDbLine
 10
631.8348669669111
 20
1110.2145428628994
 30
0.0
 11
632.2645045008915
 21
1109.9088927973896
 31
0.0
  0
LINE
  5
1DE
330
17
100
AcDbEntity
  8
0
100
AcDbLine
 10
632.2645045008915
 20
1109.9088927973896
 30
0.0
 11
632.7157819391881
 21
1109.6362042445771
 31
0.0
  0
LINE
  5
1DF
330
17
100
AcDbEntity
  8
0
100
AcDbLine
 10
632.7157819391881
 20
1109.6362042445771
 30
0.0
 11
633.1861755553117
 21
1109.3980021894624
 31
0.0
  0
LINE
  5
1E0
330
17
100
AcDbEntity
  8
0
100
AcDbLine
 10
633.1861755553117
 20
1109.3980021894624
 30
0.0
 11
633.6730547173509
 21
1109.1956187545604
 31
0.0
  0
LINE
  5
1E1
330
17
100
AcDbEntity
  8
0
100
AcDbLine
 10
633.6730547173509
 20
1109.1956187545604
 30
0.0
 11
634.1736965995351
 21
1109.0301857501347
 31
0.0
  0
LINE
  5
1E2
330
17
100
AcDbEntity
  8
0
100
AcDbLine
 10
634.1736965995351
 20
1109.0301857501347
 30
0.0
 11
634.6853014093805
 21
1108.9026283446515
 31
0.0
  0
LINE
  5
1E3
330
17
100
AcDbEntity
  8
0
100
AcDbLine
 10
634.6853014093805
 20
1108.9026283446515
 30
0.0
 11
635.2050080452636
 21
1108.8136598908636
 31
0.0
  0
LINE
  5
1E4
330
17
100
AcDbEntity
  8
0
100
AcDbLine
 10
635.2050080452636
 20
1108.8136598908636
 30
0.0
 11
635.7299100968646
 21
1108.763777936453
 31
0.0
  0
LINE
  5
1E5
330
17
100
AcDbEntity
  8
0
100
AcDbLine
 10
635.7299100968646
 20
1108.763777936453
 30
0.0
 11
636.2570720989905
 21
1108.7532614415445
 31
0.0
  0
LINE
  5
1E6
330
17
100
AcDbEntity
  8
0
100
AcDbLine
 10
636.2570720989905
 20
1108.7532614415445
 30
0.0
 11
636.7835459478887
 21
1108.7821692186433
 31
0.0
  0
LINE
  5
1E7
330
17
100
AcDbEntity
  8
0
100
AcDbLine
 10
636.7835459478887
 20
1108.7821692186433
 30
0.0
 11
637.3063873882386
 21
1108.850339603734
 31
0.0
  0
LINE
  5
1E8
330
17
100
AcDbEntity
  8
0
100
AcDbLine
 10
637.3063873882386
 20
1108.850339603734
 30
0.0
 11
637.8226724786219
 21
1108.957391360369
 31
0.0
  0
LINE
  5
1E9
330
17
100
AcDbEntity
  8
0
100
AcDbLine
 10
637.8226724786219
 20
1108.957391360369
 30
0.0
 11
638.329513943388
 21
1109.1027258117015
 31
0.0
  0
LINE
  5
1EA
330
17
100
AcDbEntity
  8
0
100
AcDbLine
 10
638.329513943388
 20
1109.1027258117015
 30
0.0
 11
638.8240773194722
 21
1109.2855301885272
 31
0.0
  0
LINE
  5
1EB
330
17
100
AcDbEntity
  8
0
100
AcDbLine
 10
638.8240773194722
 20
1109.2855301885272
 30
0.0
 11
639.3035968078619
 21
1109.504782174619
 31
0.0
  0
LINE
  5
1EC
330
17
100
AcDbEntity
  8
0
100
AcDbLine
 10
639.3035968078619
 20
1109.504782174619
 30
0.0
 11
639.7653907410669
 21
1109.7592556239324
 31
0.0
  0
LINE
  5
1ED
330
17
100
AcDbEntity
  8
0
100
AcDbLine
 10
639.7653907410669
 20
1109.7592556239324
 30
0.0
 11
640.2068765800918
 21
1110.047527417716
 31
0.0
  0
LINE
  5
1EE
330
17
100
AcDbEntity
  8
0
100
AcDbLine
 10
640.2068765800918
 20
1110.047527417716
 30
0.0
 11
640.6255853570412
 21
1110.3679854231648
 31
0.0
  0
LINE
  5
1EF
330
17
100
AcDbEntity
  8
0
100
AcDbLine
 10
640.6255853570412
 20
1110.3679854231648
 30
0.0
 11
641.0191754825908
 21
1110.7188375091218
 31
0.0
  0
LINE
  5
1F0
330
17
100
AcDbEntity
  8
0
100
AcDbLine
 10
641.0191754825908
 20
1110.7188375091218
 30
0.0
 11
641.385445841103
 21
1111.0981215684044
 31
0.0
  0
LINE
  5
1F1
330
17
100
AcDbEntity
  8
0
100
AcDbLine
 10
641.385445841103
 20
1111.0981215684044
 30
0.0
 11
641.7223481001605
 21
1111.5037164907005
 31
0.0
  0
LINE
  5
1F2
330
17
100
AcDbEntity
  8
0
100
AcDbLine
 10
641.7223481001605
 20
1111.5037164907005
 30
0.0
 11
642.0279981656699
 21
1111.933354024681
 31
0.0
  0
LINE
  5
1F3
330
17
100
AcDbEntity
  8
0
100
AcDbLine
 10
642.0279981656699
 20
1111.933354024681
 30
0.0
 11
642.3006867184822
 21
1112.3846314629775
 31
0.0
  0
LINE
  5
1F4
330
17
100
AcDbEntity
  8
0
100
AcDbLine
 10
642.3006867184822
 20
1112.3846314629775
 30
0.0
 11
642.5388887735971
 21
1112.8550250791009
 31
0.0
  0
LINE
  5
1F5
330
17
100
AcDbEntity
  8
0
100
AcDbLine
 10
642.5388887735971
 20
1112.8550250791009
 30
0.0
 11
642.7412722084985
 21
1113.34190424114
 31
0.0
  0
LINE
  5
1F6
330
17
100
AcDbEntity
  8
0
100
AcDbLine
 10
642.7412722084985
 20
1113.34190424114
 30
0.0
 11
642.9067052129244
 21
1113.8425461233242
 31
0.0
  0
LINE
  5
1F7
330
17
100
AcDbEntity
  8
0
100
AcDbLine
 10
642.9067052129244
 20
1113.8425461233242
 30
0.0
 11
643.0342626184083
 21
1114.3541509331694
 31
0.0
  0
LINE
  5
1F8
330
17
100
AcDbEntity
  8
0
100
AcDbLine
 10
643.0342626184083
 20
1114.3541509331694
 30
0.0
 11
643.123231072196
 21
1114.8738575690531
 31
0.0
  0
LINE
  5
1F9
330
17
100
AcDbEntity
  8
0
100
AcDbLine
 10
643.123231072196
 20
1114.8738575690531
 30
0.0
 11
643.1731130266057
 21
1115.3987596206534
 31
0.0
  0
LINE
  5
1FA
330
17
100
AcDbEntity
  8
0
100
AcDbLine
 10
643.1731130266057
 20
1115.3987596206534
 30
0.0
 11
643.1836295215139
 21
1115.92592162278
 31
0.0
  0
LINE
  5
1FB
330
17
100
AcDbEntity
  8
0
100
AcDbLine
 10
385.0895014068165
 20
1690.2491876953782
 30
0.0
 11
385.0605936297181
 21
1690.7756615442763
 31
0.0
  0
LINE
  5
1FC
330
17
100
AcDbEntity
  8
0
100
AcDbLine
 10
385.0605936297181
 20
1690.7756615442763
 30
0.0
 11
384.9924232446283
 21
1691.298502984626
 31
0.0
  0
LINE
  5
1FD
330
17
100
AcDbEntity
  8
0
100
AcDbLine
 10
384.9924232446283
 20
1691.298502984626
 30
0.0
 11
384.8853714879932
 21
1691.8147880750098
 31
0.0
  0
LINE
  5
1FE
330
17
100
AcDbEntity
  8
0
100
AcDbLine
 10
384.8853714879932
 20
1691.8147880750098
 30
0.0
 11
384.74003703666034
 21
1692.3216295397751
 31
0.0
  0
LINE
  5
1FF
330
17
100
AcDbEntity
  8
0
100
AcDbLine
 10
384.74003703666034
 20
1692.3216295397751
 30
0.0
 11
384.5572326598345
 21
1692.8161929158596
 31
0.0
  0
LINE
  5
200
330
17
100
AcDbEntity
  8
0
100
AcDbLine
 10
384.5572326598345
 20
1692.8161929158596
 30
0.0
 11
384.33798067374323
 21
1693.2957124042487
 31
0.0
  0
LINE
  5
201
330
17
100
AcDbEntity
  8
0
100
AcDbLine
 10
384.33798067374323
 20
1693.2957124042487
 30
0.0
 11
384.08350722442947
 21
1693.7575063374547
 31
0.0
  0
LINE
  5
202
330
17
100
AcDbEntity
  8
0
100
AcDbLine
 10
384.08350722442947
 20
1693.7575063374547
 30
0.0
 11
383.7952354306459
 21
1694.1989921764784
 31
0.0
  0
LINE
  5
203
330
17
100
AcDbEntity
  8
0
100
AcDbLine
 10
383.7952354306459
 20
1694.1989921764784
 30
0.0
 11
383.47477742519766
 21
1694.6177009534285
 31
0.0
  0
LINE
  5
204
330
17
100
AcDbEntity
  8
0
100
AcDbLine
 10
383.47477742519766
 20
1694.6177009534285
 30
0.0
 11
383.1239253392404
 21
1695.0112910789783
 31
0.0
  0
LINE
  5
205
330
17
100
AcDbEntity
  8
0
100
AcDbLine
 10
383.1239253392404
 20
1695.0112910789783
 30
0.0
 11
382.744641279958
 21
1695.3775614374906
 31
0.0
  0
LINE
  5
206
330
17
100
AcDbEntity
  8
0
100
AcDbLine
 10
382.744641279958
 20
1695.3775614374906
 30
0.0
 11
382.33904635766146
 21
1695.7144636965481
 31
0.0
  0
LINE
  5
207
330
17
100
AcDbEntity
  8
0
100
AcDbLine
 10
382.33904635766146
 20
1695.7144636965481
 30
0.0
 11
381.9094088236815
 21
1696.0201137620568
 31
0.0
  0
LINE
  5
208
330
17
100
AcDbEntity
  8
0
100
AcDbLine
 10
381.9094088236815
 20
1696.0201137620568
 30
0.0
 11
381.4581313853848
 21
1696.2928023148684
 31
0.0
  0
LINE
  5
209
330
17
100
AcDbEntity
  8
0
100
AcDbLine
 10
381.4581313853848
 20
1696.2928023148684
 30
0.0
 11
380.98773776926123
 21
1696.5310043699844
 31
0.0
  0
LINE
  5
20A
330
17
100
AcDbEntity
  8
0
100
AcDbLine
 10
380.98773776926123
 20
1696.5310043699844
 30
0.0
 11
380.5008586072222
 21
1696.7333878048858
 31
0.0
  0
LINE
  5
20B
330
17
100
AcDbEntity
  8
0
100
AcDbLine
 10
380.5008586072222
 20
1696.7333878048858
 30
0.0
 11
380.0002167250379
 21
1696.8988208093112
 31
0.0
  0
LINE
  5
20C
330
17
100
AcDbEntity
  8
0
100
AcDbLine
 10
380.0002167250379
 20
1696.8988208093112
 30
0.0
 11
379.48861191519245
 21
1697.026378214795
 31
0.0
  0
LINE
  5
20D
330
17
100
AcDbEntity
  8
0
100
AcDbLine
 10
379.48861191519245
 20
1697.026378214795
 30
0.0
 11
378.96890527930924
 21
1697.1153466685832
 31
0.0
  0
LINE
  5
20E
330
17
100
AcDbEntity
  8
0
100
AcDbLine
 10
378.96890527930924
 20
1697.1153466685832
 30
0.0
 11
378.4440032277084
 21
1697.1652286229928
 31
0.0
  0
LINE
  5
20F
330
17
100
AcDbEntity
  8
0
100
AcDbLine
 10
378.4440032277084
 20
1697.1652286229928
 30
0.0
 11
377.9168412255824
 21
1697.175745117901
 31
0.0
  0
LINE
  5
210
330
17
100
AcDbEntity
  8
0
100
AcDbLine
 10
377.9168412255824
 20
1697.175745117901
 30
0.0
 11
377.3903673766842
 21
1697.1468373408024
 31
0.0
  0
LINE
  5
211
330
17
100
AcDbEntity
  8
0
100
AcDbLine
 10
377.3903673766842
 20
1697.1468373408024
 30
0.0
 11
376.8675259363342
 21
1697.0786669557126
 31
0.0
  0
LINE
  5
212
330
17
100
AcDbEntity
  8
0
100
AcDbLine
 10
376.8675259363342
 20
1697.0786669557126
 30
0.0
 11
376.351240845951
 21
1696.9716151990774
 31
0.0
  0
LINE
  5
213
330
17
100
AcDbEntity
  8
0
100
AcDbLine
 10
376.351240845951
 20
1696.9716151990774
 30
0.0
 11
375.8443993811849
 21
1696.8262807477445
 31
0.0
  0
LINE
  5
214
330
17
100
AcDbEntity
  8
0
100
AcDbLine
 10
375.8443993811849
 20
1696.8262807477445
 30
0.0
 11
375.34983600510066
 21
1696.6434763709192
 31
0.0
  0
LINE
  5
215
330
17
100
AcDbEntity
  8
0
100
AcDbLine
 10
375.34983600510066
 20
1696.6434763709192
 30
0.0
 11
374.870316516711
 21
1696.424224384828
 31
0.0
  0
LINE
  5
216
330
17
100
AcDbEntity
  8
0
100
AcDbLine
 10
374.870316516711
 20
1696.424224384828
 30
0.0
 11
374.40852258350577
 21
1696.169750935513
 31
0.0
  0
LINE
  5
217
330
17
100
AcDbEntity
  8
0
100
AcDbLine
 10
374.40852258350577
 20
1696.169750935513
 30
0.0
 11
373.9670367444812
 21
1695.8814791417303
 31
0.0
  0
LINE
  5
218
330
17
100
AcDbEntity
  8
0
100
AcDbLine
 10
373.9670367444812
 20
1695.8814791417303
 30
0.0
 11
373.5483279675317
 21
1695.5610211362828
 31
0.0
  0
LINE
  5
219
330
17
100
AcDbEntity
  8
0
100
AcDbLine
 10
373.5483279675317
 20
1695.5610211362828
 30
0.0
 11
373.1547378419821
 21
1695.2101690503255
 31
0.0
  0
LINE
  5
21A
330
17
100
AcDbEntity
  8
0
100
AcDbLine
 10
373.1547378419821
 20
1695.2101690503255
 30
0.0
 11
372.78846748346984
 21
1694.8308849910431
 31
0.0
  0
LINE
  5
21B
330
17
100
AcDbEntity
  8
0
100
AcDbLine
 10
372.78846748346984
 20
1694.8308849910431
 30
0.0
 11
372.45156522441255
 21
1694.425290068746
 31
0.0
  0
LINE
  5
21C
330
17
100
AcDbEntity
  8
0
100
AcDbLine
 10
372.45156522441255
 20
1694.425290068746
 30
0.0
 11
372.1459151589029
 21
1693.9956525347654
 31
0.0
  0
LINE
  5
21D
330
17
100
AcDbEntity
  8
0
100
AcDbLine
 10
372.1459151589029
 20
1693.9956525347654
 30
0.0
 11
371.8732266060907
 21
1693.5443750964698
 31
0.0
  0
LINE
  5
21E
330
17
100
AcDbEntity
  8
0
100
AcDbLine
 10
371.8732266060907
 20
1693.5443750964698
 30
0.0
 11
371.6350245509758
 21
1693.0739814803455
 31
0.0
  0
LINE
  5
21F
330
17
100
AcDbEntity
  8
0
100
AcDbLine
 10
371.6350245509758
 20
1693.0739814803455
 30
0.0
 11
371.4326411160743
 21
1692.5871023183067
 31
0.0
  0
LINE
  5
220
330
17
100
AcDbEntity
  8
0
100
AcDbLine
 10
371.4326411160743
 20
1692.5871023183067
 30
0.0
 11
371.2672081116486
 21
1692.0864604361223
 31
0.0
  0
LINE
  5
221
330
17
100
AcDbEntity
  8
0
100
AcDbLine
 10
371.2672081116486
 20
1692.0864604361223
 30
0.0
 11
371.1396507061646
 21
1691.574855626278
 31
0.0
  0
LINE
  5
222
330
17
100
AcDbEntity
  8
0
100
AcDbLine
 10
371.1396507061646
 20
1691.574855626278
 30
0.0
 11
371.05068225237676
 21
1691.0551489903942
 31
0.0
  0
LINE
  5
223
330
17
100
AcDbEntity
  8
0
100
AcDbLine
 10
371.05068225237676
 20
1691.0551489903942
 30
0.0
 11
371.00080029796726
 21
1690.5302469387934
 31
0.0
  0
LINE
  5
224
330
17
100
AcDbEntity
  8
0
100
AcDbLine
 10
371.00080029796726
 20
1690.5302469387934
 30
0.0
 11
370.99028380305896
 21
1690.0030849366674
 31
0.0
  0
LINE
  5
225
330
17
100
AcDbEntity
  8
0
100
AcDbLine
 10
370.99028380305896
 20
1690.0030849366674
 30
0.0
 11
371.01919158015755
 21
1689.476611087769
 31
0.0
  0
LINE
  5
226
330
17
100
AcDbEntity
  8
0
100
AcDbLine
 10
371.01919158015755
 20
1689.476611087769
 30
0.0
 11
371.0873619652472
 21
1688.9537696474192
 31
0.0
  0
LINE
  5
227
330
17
100
AcDbEntity
  8
0
100
AcDbLine
 10
371.0873619652472
 20
1688.9537696474192
 30
0.0
 11
371.1944137218822
 21
1688.4374845570355
 31
0.0
  0
LINE
  5
228
330
17
100
AcDbEntity
  8
0
100
AcDbLine
 10
371.1944137218822
 20
1688.4374845570355
 30
0.0
 11
371.3397481732153
 21
1687.9306430922704
 31
0.0
  0
LINE
  5
229
330
17
100
AcDbEntity
  8
0
100
AcDbLine
 10
371.3397481732153
 20
1687.9306430922704
 30
0.0
 11
371.52255255004104
 21
1687.4360797161858
 31
0.0
  0
LINE
  5
22A
330
17
100
AcDbEntity
  8
0
100
AcDbLine
 10
371.52255255004104
 20
1687.4360797161858
 30
0.0
 11
371.74180453613235
 21
1686.9565602277949
 31
0.0
  0
LINE
  5
22B
330
17
100
AcDbEntity
  8
0
100
AcDbLine
 10
371.74180453613235
 20
1686.9565602277949
 30
0.0
 11
371.99627798544606
 21
1686.4947662945904
 31
0.0
  0
LINE
  5
22C
330
17
100
AcDbEntity
  8
0
100
AcDbLine
 10
371.99627798544606
 20
1686.4947662945904
 30
0.0
 11
372.2845497792294
 21
1686.0532804555655
 31
0.0
  0
LINE
  5
22D
330
17
100
AcDbEntity
  8
0
100
AcDbLine
 10
372.2845497792294
 20
1686.0532804555655
 30
0.0
 11
372.605007784678
 21
1685.6345716786163
 31
0.0
  0
LINE
  5
22E
330
17
100
AcDbEntity
  8
0
100
AcDbLine
 10
372.605007784678
 20
1685.6345716786163
 30
0.0
 11
372.9558598706351
 21
1685.240981553066
 31
0.0
  0
LINE
  5
22F
330
17
100
AcDbEntity
  8
0
100
AcDbLine
 10
372.9558598706351
 20
1685.240981553066
 30
0.0
 11
373.3351439299174
 21
1684.8747111945547
 31
0.0
  0
LINE
  5
230
330
17
100
AcDbEntity
  8
0
100
AcDbLine
 10
373.3351439299174
 20
1684.8747111945547
 30
0.0
 11
373.74073885221395
 21
1684.5378089354972
 31
0.0
  0
LINE
  5
231
330
17
100
AcDbEntity
  8
0
100
AcDbLine
 10
373.74073885221395
 20
1684.5378089354972
 30
0.0
 11
374.1703763861941
 21
1684.2321588699874
 31
0.0
  0
LINE
  5
232
330
17
100
AcDbEntity
  8
0
100
AcDbLine
 10
374.1703763861941
 20
1684.2321588699874
 30
0.0
 11
374.62165382449064
 21
1683.9594703171751
 31
0.0
  0
LINE
  5
233
330
17
100
AcDbEntity
  8
0
100
AcDbLine
 10
374.62165382449064
 20
1683.9594703171751
 30
0.0
 11
375.09204744061424
 21
1683.7212682620598
 31
0.0
  0
LINE
  5
234
330
17
100
AcDbEntity
  8
0
100
AcDbLine
 10
375.09204744061424
 20
1683.7212682620598
 30
0.0
 11
375.5789266026533
 21
1683.5188848271591
 31
0.0
  0
LINE
  5
235
330
17
100
AcDbEntity
  8
0
100
AcDbLine
 10
375.5789266026533
 20
1683.5188848271591
 30
0.0
 11
376.07956848483775
 21
1683.353451822733
 31
0.0
  0
LINE
  5
236
330
17
100
AcDbEntity
  8
0
100
AcDbLine
 10
376.07956848483775
 20
1683.353451822733
 30
0.0
 11
376.59117329468296
 21
1683.2258944172493
 31
0.0
  0
LINE
  5
237
330
17
100
AcDbEntity
  8
0
100
AcDbLine
 10
376.59117329468296
 20
1683.2258944172493
 30
0.0
 11
377.11087993056634
 21
1683.136925963461
 31
0.0
  0
LINE
  5
238
330
17
100
AcDbEntity
  8
0
100
AcDbLine
 10
377.11087993056634
 20
1683.136925963461
 30
0.0
 11
377.63578198216726
 21
1683.0870440090512
 31
0.0
  0
LINE
  5
239
330
17
100
AcDbEntity
  8
0
100
AcDbLine
 10
377.63578198216726
 20
1683.0870440090512
 30
0.0
 11
378.16294398429307
 21
1683.0765275141434
 31
0.0
  0
LINE
  5
23A
330
17
100
AcDbEntity
  8
0
100
AcDbLine
 10
378.16294398429307
 20
1683.0765275141434
 30
0.0
 11
378.68941783319144
 21
1683.1054352912415
 31
0.0
  0
LINE
  5
23B
330
17
100
AcDbEntity
  8
0
100
AcDbLine
 10
378.68941783319144
 20
1683.1054352912415
 30
0.0
 11
379.2122592735414
 21
1683.1736056763316
 31
0.0
  0
LINE
  5
23C
330
17
100
AcDbEntity
  8
0
100
AcDbLine
 10
379.2122592735414
 20
1683.1736056763316
 30
0.0
 11
379.7285443639244
 21
1683.2806574329666
 31
0.0
  0
LINE
  5
23D
330
17
100
AcDbEntity
  8
0
100
AcDbLine
 10
379.7285443639244
 20
1683.2806574329666
 30
0.0
 11
380.2353858286907
 21
1683.4259918842995
 31
0.0
  0
LINE
  5
23E
330
17
100
AcDbEntity
  8
0
100
AcDbLine
 10
380.2353858286907
 20
1683.4259918842995
 30
0.0
 11
380.72994920477487
 21
1683.608796261126
 31
0.0
  0
LINE
  5
23F
330
17
100
AcDbEntity
  8
0
100
AcDbLine
 10
380.72994920477487
 20
1683.608796261126
 30
0.0
 11
381.20946869316447
 21
1683.8280482472162
 31
0.0
  0
LINE
  5
240
330
17
100
AcDbEntity
  8
0
100
AcDbLine
 10
381.20946869316447
 20
1683.8280482472162
 30
0.0
 11
381.67126262636964
 21
1684.0825216965304
 31
0.0
  0
LINE
  5
241
330
17
100
AcDbEntity
  8
0
100
AcDbLine
 10
381.67126262636964
 20
1684.0825216965304
 30
0.0
 11
382.11274846539436
 21
1684.3707934903139
 31
0.0
  0
LINE
  5
242
330
17
100
AcDbEntity
  8
0
100
AcDbLine
 10
382.11274846539436
 20
1684.3707934903139
 30
0.0
 11
382.5314572423437
 21
1684.6912514957626
 31
0.0
  0
LINE
  5
243
330
17
100
AcDbEntity
  8
0
100
AcDbLine
 10
382.5314572423437
 20
1684.6912514957626
 30
0.0
 11
382.9250473678933
 21
1685.0421035817199
 31
0.0
  0
LINE
  5
244
330
17
100
AcDbEntity
  8
0
100
AcDbLine
 10
382.9250473678933
 20
1685.0421035817199
 30
0.0
 11
383.29131772640574
 21
1685.421387641001
 31
0.0
  0
LINE
  5
245
330
17
100
AcDbEntity
  8
0
100
AcDbLine
 10
383.29131772640574
 20
1685.421387641001
 30
0.0
 11
383.6282199854631
 21
1685.8269825632988
 31
0.0
  0
LINE
  5
246
330
17
100
AcDbEntity
  8
0
100
AcDbLine
 10
383.6282199854631
 20
1685.8269825632988
 30
0.0
 11
383.9338700509724
 21
1686.2566200972785
 31
0.0
  0
LINE
  5
247
330
17
100
AcDbEntity
  8
0
100
AcDbLine
 10
383.9338700509724
 20
1686.2566200972785
 30
0.0
 11
384.2065586037848
 21
1686.7078975355753
 31
0.0
  0
LINE
  5
248
330
17
100
AcDbEntity
  8
0
100
AcDbLine
 10
384.2065586037848
 20
1686.7078975355753
 30
0.0
 11
384.4447606588998
 21
1687.178291151698
 31
0.0
  0
LINE
  5
249
330
17
100
AcDbEntity
  8
0
100
AcDbLine
 10
384.4447606588998
 20
1687.178291151698
 30
0.0
 11
384.6471440938012
 21
1687.6651703137386
 31
0.0
  0
LINE
  5
24A
330
17
100
AcDbEntity
  8
0
100
AcDbLine
 10
384.6471440938012
 20
1687.6651703137386
 30
0.0
 11
384.81257709822705
 21
1688.165812195923
 31
0.0
  0
LINE
  5
24B
330
17
100
AcDbEntity
  8
0
100
AcDbLine
 10
384.81257709822705
 20
1688.165812195923
 30
0.0
 11
384.9401345037108
 21
1688.6774170057674
 31
0.0
  0
LINE
  5
24C
330
17
100
AcDbEntity
  8
0
100
AcDbLine
 10
384.9401345037108
 20
1688.6774170057674
 30
0.0
 11
385.02910295749876
 21
1689.1971236416512
 31
0.0
  0
LINE
  5
24D
330
17
100
AcDbEntity
  8
0
100
AcDbLine
 10
385.02910295749876
 20
1689.1971236416512
 30
0.0
 11
385.0789849119084
 21
1689.722025693252
 31
0.0
  0
LINE
  5
24E
330
17
100
AcDbEntity
  8
0
100
AcDbLine
 10
385.0789849119084
 20
1689.722025693252
 30
0.0
 11
385.0895014068165
 21
1690.2491876953782
 31
0.0
  0
LINE
  5
24F
330
17
100
AcDbEntity
  8
0
100
AcDbLine
 10
107.43976947559875
 20
1354.6437559764013
 30
0.0
 11
107.41086169850023
 21
1355.1702298252994
 31
0.0
  0
LINE
  5
250
330
17
100
AcDbEntity
  8
0
100
AcDbLine
 10
107.41086169850023
 20
1355.1702298252994
 30
0.0
 11
107.34269131341047
 21
1355.6930712656495
 31
0.0
  0
LINE
  5
251
330
17
100
AcDbEntity
  8
0
100
AcDbLine
 10
107.34269131341047
 20
1355.6930712656495
 30
0.0
 11
107.23563955677541
 21
1356.2093563560318
 31
0.0
  0
LINE
  5
252
330
17
100
AcDbEntity
  8
0
100
AcDbLine
 10
107.23563955677541
 20
1356.2093563560318
 30
0.0
 11
107.0903051054426
 21
1356.7161978207982
 31
0.0
  0
LINE
  5
253
330
17
100
AcDbEntity
  8
0
100
AcDbLine
 10
107.0903051054426
 20
1356.7161978207982
 30
0.0
 11
106.90750072861664
 21
1357.2107611968822
 31
0.0
  0
LINE
  5
254
330
17
100
AcDbEntity
  8
0
100
AcDbLine
 10
106.90750072861664
 20
1357.2107611968822
 30
0.0
 11
106.68824874252539
 21
1357.690280685272
 31
0.0
  0
LINE
  5
255
330
17
100
AcDbEntity
  8
0
100
AcDbLine
 10
106.68824874252539
 20
1357.690280685272
 30
0.0
 11
106.43377529321175
 21
1358.152074618477
 31
0.0
  0
LINE
  5
256
330
17
100
AcDbEntity
  8
0
100
AcDbLine
 10
106.43377529321175
 20
1358.152074618477
 30
0.0
 11
106.14550349942829
 21
1358.593560457503
 31
0.0
  0
LINE
  5
257
330
17
100
AcDbEntity
  8
0
100
AcDbLine
 10
106.14550349942829
 20
1358.593560457503
 30
0.0
 11
105.82504549397984
 21
1359.0122692344517
 31
0.0
  0
LINE
  5
258
330
17
100
AcDbEntity
  8
0
100
AcDbLine
 10
105.82504549397984
 20
1359.0122692344517
 30
0.0
 11
105.47419340802264
 21
1359.4058593600012
 31
0.0
  0
LINE
  5
259
330
17
100
AcDbEntity
  8
0
100
AcDbLine
 10
105.47419340802264
 20
1359.4058593600012
 30
0.0
 11
105.09490934874013
 21
1359.772129718514
 31
0.0
  0
LINE
  5
25A
330
17
100
AcDbEntity
  8
0
100
AcDbLine
 10
105.09490934874013
 20
1359.772129718514
 30
0.0
 11
104.68931442644389
 21
1360.1090319775697
 31
0.0
  0
LINE
  5
25B
330
17
100
AcDbEntity
  8
0
100
AcDbLine
 10
104.68931442644389
 20
1360.1090319775697
 30
0.0
 11
104.25967689246373
 21
1360.41468204308
 31
0.0
  0
LINE
  5
25C
330
17
100
AcDbEntity
  8
0
100
AcDbLine
 10
104.25967689246373
 20
1360.41468204308
 30
0.0
 11
103.80839945416693
 21
1360.6873705958928
 31
0.0
  0
LINE
  5
25D
330
17
100
AcDbEntity
  8
0
100
AcDbLine
 10
103.80839945416693
 20
1360.6873705958928
 30
0.0
 11
103.3380058380435
 21
1360.925572651007
 31
0.0
  0
LINE
  5
25E
330
17
100
AcDbEntity
  8
0
100
AcDbLine
 10
103.3380058380435
 20
1360.925572651007
 30
0.0
 11
102.85112667600436
 21
1361.127956085909
 31
0.0
  0
LINE
  5
25F
330
17
100
AcDbEntity
  8
0
100
AcDbLine
 10
102.85112667600436
 20
1361.127956085909
 30
0.0
 11
102.35048479382003
 21
1361.2933890903355
 31
0.0
  0
LINE
  5
260
330
17
100
AcDbEntity
  8
0
100
AcDbLine
 10
102.35048479382003
 20
1361.2933890903355
 30
0.0
 11
101.8388799839747
 21
1361.4209464958194
 31
0.0
  0
LINE
  5
261
330
17
100
AcDbEntity
  8
0
100
AcDbLine
 10
101.8388799839747
 20
1361.4209464958194
 30
0.0
 11
101.3191733480914
 21
1361.509914949606
 31
0.0
  0
LINE
  5
262
330
17
100
AcDbEntity
  8
0
100
AcDbLine
 10
101.3191733480914
 20
1361.509914949606
 30
0.0
 11
100.79427129649055
 21
1361.5597969040166
 31
0.0
  0
LINE
  5
263
330
17
100
AcDbEntity
  8
0
100
AcDbLine
 10
100.79427129649055
 20
1361.5597969040166
 30
0.0
 11
100.26710929436464
 21
1361.570313398925
 31
0.0
  0
LINE
  5
264
330
17
100
AcDbEntity
  8
0
100
AcDbLine
 10
100.26710929436464
 20
1361.570313398925
 30
0.0
 11
99.74063544546637
 21
1361.5414056218262
 31
0.0
  0
LINE
  5
265
330
17
100
AcDbEntity
  8
0
100
AcDbLine
 10
99.74063544546637
 20
1361.5414056218262
 30
0.0
 11
99.21779400511645
 21
1361.4732352367355
 31
0.0
  0
LINE
  5
266
330
17
100
AcDbEntity
  8
0
100
AcDbLine
 10
99.21779400511645
 20
1361.4732352367355
 30
0.0
 11
98.70150891473325
 21
1361.3661834801019
 31
0.0
  0
LINE
  5
267
330
17
100
AcDbEntity
  8
0
100
AcDbLine
 10
98.70150891473325
 20
1361.3661834801019
 30
0.0
 11
98.19466744996707
 21
1361.2208490287685
 31
0.0
  0
LINE
  5
268
330
17
100
AcDbEntity
  8
0
100
AcDbLine
 10
98.19466744996707
 20
1361.2208490287685
 30
0.0
 11
97.70010407388293
 21
1361.0380446519423
 31
0.0
  0
LINE
  5
269
330
17
100
AcDbEntity
  8
0
100
AcDbLine
 10
97.70010407388293
 20
1361.0380446519423
 30
0.0
 11
97.22058458549316
 21
1360.8187926658507
 31
0.0
  0
LINE
  5
26A
330
17
100
AcDbEntity
  8
0
100
AcDbLine
 10
97.22058458549316
 20
1360.8187926658507
 30
0.0
 11
96.75879065228816
 21
1360.5643192165376
 31
0.0
  0
LINE
  5
26B
330
17
100
AcDbEntity
  8
0
100
AcDbLine
 10
96.75879065228816
 20
1360.5643192165376
 30
0.0
 11
96.31730481326336
 21
1360.2760474227534
 31
0.0
  0
LINE
  5
26C
330
17
100
AcDbEntity
  8
0
100
AcDbLine
 10
96.31730481326336
 20
1360.2760474227534
 30
0.0
 11
95.89859603631389
 21
1359.9555894173043
 31
0.0
  0
LINE
  5
26D
330
17
100
AcDbEntity
  8
0
100
AcDbLine
 10
95.89859603631389
 20
1359.9555894173043
 30
0.0
 11
95.50500591076438
 21
1359.6047373313486
 31
0.0
  0
LINE
  5
26E
330
17
100
AcDbEntity
  8
0
100
AcDbLine
 10
95.50500591076438
 20
1359.6047373313486
 30
0.0
 11
95.13873555225211
 21
1359.2254532720658
 31
0.0
  0
LINE
  5
26F
330
17
100
AcDbEntity
  8
0
100
AcDbLine
 10
95.13873555225211
 20
1359.2254532720658
 30
0.0
 11
94.80183329319473
 21
1358.8198583497694
 31
0.0
  0
LINE
  5
270
330
17
100
AcDbEntity
  8
0
100
AcDbLine
 10
94.80183329319473
 20
1358.8198583497694
 30
0.0
 11
94.49618322768515
 21
1358.3902208157901
 31
0.0
  0
LINE
  5
271
330
17
100
AcDbEntity
  8
0
100
AcDbLine
 10
94.49618322768515
 20
1358.3902208157901
 30
0.0
 11
94.2234946748729
 21
1357.938943377492
 31
0.0
  0
LINE
  5
272
330
17
100
AcDbEntity
  8
0
100
AcDbLine
 10
94.2234946748729
 20
1357.938943377492
 30
0.0
 11
93.98529261975796
 21
1357.4685497613689
 31
0.0
  0
LINE
  5
273
330
17
100
AcDbEntity
  8
0
100
AcDbLine
 10
93.98529261975796
 20
1357.4685497613689
 30
0.0
 11
93.78290918485646
 21
1356.9816705993298
 31
0.0
  0
LINE
  5
274
330
17
100
AcDbEntity
  8
0
100
AcDbLine
 10
93.78290918485646
 20
1356.9816705993298
 30
0.0
 11
93.61747618043061
 21
1356.4810287171454
 31
0.0
  0
LINE
  5
275
330
17
100
AcDbEntity
  8
0
100
AcDbLine
 10
93.61747618043061
 20
1356.4810287171454
 30
0.0
 11
93.48991877494693
 21
1355.9694239072999
 31
0.0
  0
LINE
  5
276
330
17
100
AcDbEntity
  8
0
100
AcDbLine
 10
93.48991877494693
 20
1355.9694239072999
 30
0.0
 11
93.40095032115893
 21
1355.4497172714173
 31
0.0
  0
LINE
  5
277
330
17
100
AcDbEntity
  8
0
100
AcDbLine
 10
93.40095032115893
 20
1355.4497172714173
 30
0.0
 11
93.3510683667494
 21
1354.9248152198165
 31
0.0
  0
LINE
  5
278
330
17
100
AcDbEntity
  8
0
100
AcDbLine
 10
93.3510683667494
 20
1354.9248152198165
 30
0.0
 11
93.3405518718412
 21
1354.3976532176905
 31
0.0
  0
LINE
  5
279
330
17
100
AcDbEntity
  8
0
100
AcDbLine
 10
93.3405518718412
 20
1354.3976532176905
 30
0.0
 11
93.36945964893974
 21
1353.8711793687917
 31
0.0
  0
LINE
  5
27A
330
17
100
AcDbEntity
  8
0
100
AcDbLine
 10
93.36945964893974
 20
1353.8711793687917
 30
0.0
 11
93.43763003402937
 21
1353.3483379284426
 31
0.0
  0
LINE
  5
27B
330
17
100
AcDbEntity
  8
0
100
AcDbLine
 10
93.43763003402937
 20
1353.3483379284426
 30
0.0
 11
93.54468179066444
 21
1352.8320528380593
 31
0.0
  0
LINE
  5
27C
330
17
100
AcDbEntity
  8
0
100
AcDbLine
 10
93.54468179066444
 20
1352.8320528380593
 30
0.0
 11
93.69001624199736
 21
1352.3252113732935
 31
0.0
  0
LINE
  5
27D
330
17
100
AcDbEntity
  8
0
100
AcDbLine
 10
93.69001624199736
 20
1352.3252113732935
 30
0.0
 11
93.8728206188232
 21
1351.830647997209
 31
0.0
  0
LINE
  5
27E
330
17
100
AcDbEntity
  8
0
100
AcDbLine
 10
93.8728206188232
 20
1351.830647997209
 30
0.0
 11
94.09207260491448
 21
1351.3511285088186
 31
0.0
  0
LINE
  5
27F
330
17
100
AcDbEntity
  8
0
100
AcDbLine
 10
94.09207260491448
 20
1351.3511285088186
 30
0.0
 11
94.34654605422823
 21
1350.8893345756135
 31
0.0
  0
LINE
  5
280
330
17
100
AcDbEntity
  8
0
100
AcDbLine
 10
94.34654605422823
 20
1350.8893345756135
 30
0.0
 11
94.63481784801166
 21
1350.4478487365889
 31
0.0
  0
LINE
  5
281
330
17
100
AcDbEntity
  8
0
100
AcDbLine
 10
94.63481784801166
 20
1350.4478487365889
 30
0.0
 11
94.95527585346011
 21
1350.0291399596401
 31
0.0
  0
LINE
  5
282
330
17
100
AcDbEntity
  8
0
100
AcDbLine
 10
94.95527585346011
 20
1350.0291399596401
 30
0.0
 11
95.30612793941734
 21
1349.6355498340895
 31
0.0
  0
LINE
  5
283
330
17
100
AcDbEntity
  8
0
100
AcDbLine
 10
95.30612793941734
 20
1349.6355498340895
 30
0.0
 11
95.6854119986997
 21
1349.269279475578
 31
0.0
  0
LINE
  5
284
330
17
100
AcDbEntity
  8
0
100
AcDbLine
 10
95.6854119986997
 20
1349.269279475578
 30
0.0
 11
96.0910069209961
 21
1348.9323772165203
 31
0.0
  0
LINE
  5
285
330
17
100
AcDbEntity
  8
0
100
AcDbLine
 10
96.0910069209961
 20
1348.9323772165203
 30
0.0
 11
96.52064445497625
 21
1348.62672715101
 31
0.0
  0
LINE
  5
286
330
17
100
AcDbEntity
  8
0
100
AcDbLine
 10
96.52064445497625
 20
1348.62672715101
 30
0.0
 11
96.97192189327303
 21
1348.3540385981985
 31
0.0
  0
LINE
  5
287
330
17
100
AcDbEntity
  8
0
100
AcDbLine
 10
96.97192189327303
 20
1348.3540385981985
 30
0.0
 11
97.44231550939637
 21
1348.1158365430833
 31
0.0
  0
LINE
  5
288
330
17
100
AcDbEntity
  8
0
100
AcDbLine
 10
97.44231550939637
 20
1348.1158365430833
 30
0.0
 11
97.92919467143561
 21
1347.9134531081818
 31
0.0
  0
LINE
  5
289
330
17
100
AcDbEntity
  8
0
100
AcDbLine
 10
97.92919467143561
 20
1347.9134531081818
 30
0.0
 11
98.42983655361994
 21
1347.748020103756
 31
0.0
  0
LINE
  5
28A
330
17
100
AcDbEntity
  8
0
100
AcDbLine
 10
98.42983655361994
 20
1347.748020103756
 30
0.0
 11
98.94144136346524
 21
1347.620462698272
 31
0.0
  0
LINE
  5
28B
330
17
100
AcDbEntity
  8
0
100
AcDbLine
 10
98.94144136346524
 20
1347.620462698272
 30
0.0
 11
99.46114799934858
 21
1347.5314942444843
 31
0.0
  0
LINE
  5
28C
330
17
100
AcDbEntity
  8
0
100
AcDbLine
 10
99.46114799934858
 20
1347.5314942444843
 30
0.0
 11
99.98605005094942
 21
1347.4816122900743
 31
0.0
  0
LINE
  5
28D
330
17
100
AcDbEntity
  8
0
100
AcDbLine
 10
99.98605005094942
 20
1347.4816122900743
 30
0.0
 11
100.51321205307532
 21
1347.4710957951665
 31
0.0
  0
LINE
  5
28E
330
17
100
AcDbEntity
  8
0
100
AcDbLine
 10
100.51321205307532
 20
1347.4710957951665
 30
0.0
 11
101.0396859019736
 21
1347.5000035722646
 31
0.0
  0
LINE
  5
28F
330
17
100
AcDbEntity
  8
0
100
AcDbLine
 10
101.0396859019736
 20
1347.5000035722646
 30
0.0
 11
101.56252734232353
 21
1347.5681739573547
 31
0.0
  0
LINE
  5
290
330
17
100
AcDbEntity
  8
0
100
AcDbLine
 10
101.56252734232353
 20
1347.5681739573547
 30
0.0
 11
102.0788124327067
 21
1347.6752257139894
 31
0.0
  0
LINE
  5
291
330
17
100
AcDbEntity
  8
0
100
AcDbLine
 10
102.0788124327067
 20
1347.6752257139894
 30
0.0
 11
102.5856538974729
 21
1347.8205601653228
 31
0.0
  0
LINE
  5
292
330
17
100
AcDbEntity
  8
0
100
AcDbLine
 10
102.5856538974729
 20
1347.8205601653228
 30
0.0
 11
103.08021727355704
 21
1348.0033645421486
 31
0.0
  0
LINE
  5
293
330
17
100
AcDbEntity
  8
0
100
AcDbLine
 10
103.08021727355704
 20
1348.0033645421486
 30
0.0
 11
103.55973676194671
 21
1348.2226165282398
 31
0.0
  0
LINE
  5
294
330
17
100
AcDbEntity
  8
0
100
AcDbLine
 10
103.55973676194671
 20
1348.2226165282398
 30
0.0
 11
104.02153069515181
 21
1348.4770899775538
 31
0.0
  0
LINE
  5
295
330
17
100
AcDbEntity
  8
0
100
AcDbLine
 10
104.02153069515181
 20
1348.4770899775538
 30
0.0
 11
104.46301653417662
 21
1348.7653617713365
 31
0.0
  0
LINE
  5
296
330
17
100
AcDbEntity
  8
0
100
AcDbLine
 10
104.46301653417662
 20
1348.7653617713365
 30
0.0
 11
104.88172531112609
 21
1349.0858197767857
 31
0.0
  0
LINE
  5
297
330
17
100
AcDbEntity
  8
0
100
AcDbLine
 10
104.88172531112609
 20
1349.0858197767857
 30
0.0
 11
105.27531543667546
 21
1349.4366718627432
 31
0.0
  0
LINE
  5
298
330
17
100
AcDbEntity
  8
0
100
AcDbLine
 10
105.27531543667546
 20
1349.4366718627432
 30
0.0
 11
105.64158579518786
 21
1349.8159559220248
 31
0.0
  0
LINE
  5
299
330
17
100
AcDbEntity
  8
0
100
AcDbLine
 10
105.64158579518786
 20
1349.8159559220248
 30
0.0
 11
105.97848805424522
 21
1350.2215508443223
 31
0.0
  0
LINE
  5
29A
330
17
100
AcDbEntity
  8
0
100
AcDbLine
 10
105.97848805424522
 20
1350.2215508443223
 30
0.0
 11
106.2841381197548
 21
1350.6511883783019
 31
0.0
  0
LINE
  5
29B
330
17
100
AcDbEntity
  8
0
100
AcDbLine
 10
106.2841381197548
 20
1350.6511883783019
 30
0.0
 11
106.55682667256708
 21
1351.1024658165984
 31
0.0
  0
LINE
  5
29C
330
17
100
AcDbEntity
  8
0
100
AcDbLine
 10
106.55682667256708
 20
1351.1024658165984
 30
0.0
 11
106.79502872768191
 21
1351.5728594327218
 31
0.0
  0
LINE
  5
29D
330
17
100
AcDbEntity
  8
0
100
AcDbLine
 10
106.79502872768191
 20
1351.5728594327218
 30
0.0
 11
106.99741216258337
 21
1352.0597385947617
 31
0.0
  0
LINE
  5
29E
330
17
100
AcDbEntity
  8
0
100
AcDbLine
 10
106.99741216258337
 20
1352.0597385947617
 30
0.0
 11
107.16284516700934
 21
1352.5603804769464
 31
0.0
  0
LINE
  5
29F
330
17
100
AcDbEntity
  8
0
100
AcDbLine
 10
107.16284516700934
 20
1352.5603804769464
 30
0.0
 11
107.29040257249292
 21
1353.0719852867912
 31
0.0
  0
LINE
  5
2A0
330
17
100
AcDbEntity
  8
0
100
AcDbLine
 10
107.29040257249292
 20
1353.0719852867912
 30
0.0
 11
107.37937102628091
 21
1353.5916919226747
 31
0.0
  0
LINE
  5
2A1
330
17
100
AcDbEntity
  8
0
100
AcDbLine
 10
107.37937102628091
 20
1353.5916919226747
 30
0.0
 11
107.42925298069056
 21
1354.1165939742748
 31
0.0
  0
LINE
  5
2A2
330
17
100
AcDbEntity
  8
0
100
AcDbLine
 10
107.42925298069056
 20
1354.1165939742748
 30
0.0
 11
107.43976947559875
 21
1354.6437559764013
 31
0.0
  0
LINE
  5
2A3
330
17
100
AcDbEntity
  8
0
100
AcDbLine
 10
1547.3215086241862
 20
277.6406205785361
 30
0.0
 11
1547.292600847088
 21
278.16709442743445
 31
0.0
  0
LINE
  5
2A4
330
17
100
AcDbEntity
  8
0
100
AcDbLine
 10
1547.292600847088
 20
278.16709442743445
 30
0.0
 11
1547.224430461998
 21
278.68993586778413
 31
0.0
  0
LINE
  5
2A5
330
17
100
AcDbEntity
  8
0
100
AcDbLine
 10
1547.224430461998
 20
278.68993586778413
 30
0.0
 11
1547.117378705363
 21
279.2062209581675
 31
0.0
  0
LINE
  5
2A6
330
17
100
AcDbEntity
  8
0
100
AcDbLine
 10
1547.117378705363
 20
279.2062209581675
 30
0.0
 11
1546.9720442540302
 21
279.71306242293394
 31
0.0
  0
LINE
  5
2A7
330
17
100
AcDbEntity
  8
0
100
AcDbLine
 10
1546.9720442540302
 20
279.71306242293394
 30
0.0
 11
1546.789239877205
 21
280.2076257990176
 31
0.0
  0
LINE
  5
2A8
330
17
100
AcDbEntity
  8
0
100
AcDbLine
 10
1546.789239877205
 20
280.2076257990176
 30
0.0
 11
1546.569987891113
 21
280.6871452874077
 31
0.0
  0
LINE
  5
2A9
330
17
100
AcDbEntity
  8
0
100
AcDbLine
 10
1546.569987891113
 20
280.6871452874077
 30
0.0
 11
1546.315514441799
 21
281.14893922061265
 31
0.0
  0
LINE
  5
2AA
330
17
100
AcDbEntity
  8
0
100
AcDbLine
 10
1546.315514441799
 20
281.14893922061265
 30
0.0
 11
1546.027242648016
 21
281.59042505963737
 31
0.0
  0
LINE
  5
2AB
330
17
100
AcDbEntity
  8
0
100
AcDbLine
 10
1546.027242648016
 20
281.59042505963737
 30
0.0
 11
1545.7067846425682
 21
282.0091338365869
 31
0.0
  0
LINE
  5
2AC
330
17
100
AcDbEntity
  8
0
100
AcDbLine
 10
1545.7067846425682
 20
282.0091338365869
 30
0.0
 11
1545.3559325566107
 21
282.4027239621362
 31
0.0
  0
LINE
  5
2AD
330
17
100
AcDbEntity
  8
0
100
AcDbLine
 10
1545.3559325566107
 20
282.4027239621362
 30
0.0
 11
1544.976648497328
 21
282.76899432064863
 31
0.0
  0
LINE
  5
2AE
330
17
100
AcDbEntity
  8
0
100
AcDbLine
 10
1544.976648497328
 20
282.76899432064863
 30
0.0
 11
1544.5710535750318
 21
283.1058965797064
 31
0.0
  0
LINE
  5
2AF
330
17
100
AcDbEntity
  8
0
100
AcDbLine
 10
1544.5710535750318
 20
283.1058965797064
 30
0.0
 11
1544.1414160410511
 21
283.4115466452156
 31
0.0
  0
LINE
  5
2B0
330
17
100
AcDbEntity
  8
0
100
AcDbLine
 10
1544.1414160410511
 20
283.4115466452156
 30
0.0
 11
1543.6901386027541
 21
283.6842351980283
 31
0.0
  0
LINE
  5
2B1
330
17
100
AcDbEntity
  8
0
100
AcDbLine
 10
1543.6901386027541
 20
283.6842351980283
 30
0.0
 11
1543.219744986631
 21
283.9224372531428
 31
0.0
  0
LINE
  5
2B2
330
17
100
AcDbEntity
  8
0
100
AcDbLine
 10
1543.219744986631
 20
283.9224372531428
 30
0.0
 11
1542.7328658245922
 21
284.1248206880442
 31
0.0
  0
LINE
  5
2B3
330
17
100
AcDbEntity
  8
0
100
AcDbLine
 10
1542.7328658245922
 20
284.1248206880442
 30
0.0
 11
1542.2322239424077
 21
284.2902536924702
 31
0.0
  0
LINE
  5
2B4
330
17
100
AcDbEntity
  8
0
100
AcDbLine
 10
1542.2322239424077
 20
284.2902536924702
 30
0.0
 11
1541.7206191325622
 21
284.41781109795363
 31
0.0
  0
LINE
  5
2B5
330
17
100
AcDbEntity
  8
0
100
AcDbLine
 10
1541.7206191325622
 20
284.41781109795363
 30
0.0
 11
1541.2009124966794
 21
284.5067795517416
 31
0.0
  0
LINE
  5
2B6
330
17
100
AcDbEntity
  8
0
100
AcDbLine
 10
1541.2009124966794
 20
284.5067795517416
 30
0.0
 11
1540.6760104450777
 21
284.5566615061513
 31
0.0
  0
LINE
  5
2B7
330
17
100
AcDbEntity
  8
0
100
AcDbLine
 10
1540.6760104450777
 20
284.5566615061513
 30
0.0
 11
1540.1488484429526
 21
284.5671780010596
 31
0.0
  0
LINE
  5
2B8
330
17
100
AcDbEntity
  8
0
100
AcDbLine
 10
1540.1488484429526
 20
284.5671780010596
 30
0.0
 11
1539.6223745940545
 21
284.53827022396115
 31
0.0
  0
LINE
  5
2B9
330
17
100
AcDbEntity
  8
0
100
AcDbLine
 10
1539.6223745940545
 20
284.53827022396115
 30
0.0
 11
1539.0995331537047
 21
284.47009983887096
 31
0.0
  0
LINE
  5
2BA
330
17
100
AcDbEntity
  8
0
100
AcDbLine
 10
1539.0995331537047
 20
284.47009983887096
 30
0.0
 11
1538.583248063321
 21
284.3630480822361
 31
0.0
  0
LINE
  5
2BB
330
17
100
AcDbEntity
  8
0
100
AcDbLine
 10
1538.583248063321
 20
284.3630480822361
 30
0.0
 11
1538.0764065985545
 21
284.2177136309034
 31
0.0
  0
LINE
  5
2BC
330
17
100
AcDbEntity
  8
0
100
AcDbLine
 10
1538.0764065985545
 20
284.2177136309034
 30
0.0
 11
1537.5818432224714
 21
284.03490925407766
 31
0.0
  0
LINE
  5
2BD
330
17
100
AcDbEntity
  8
0
100
AcDbLine
 10
1537.5818432224714
 20
284.03490925407766
 30
0.0
 11
1537.1023237340808
 21
283.81565726798635
 31
0.0
  0
LINE
  5
2BE
330
17
100
AcDbEntity
  8
0
100
AcDbLine
 10
1537.1023237340808
 20
283.81565726798635
 30
0.0
 11
1536.640529800876
 21
283.5611838186728
 31
0.0
  0
LINE
  5
2BF
330
17
100
AcDbEntity
  8
0
100
AcDbLine
 10
1536.640529800876
 20
283.5611838186728
 30
0.0
 11
1536.1990439618512
 21
283.27291202488914
 31
0.0
  0
LINE
  5
2C0
330
17
100
AcDbEntity
  8
0
100
AcDbLine
 10
1536.1990439618512
 20
283.27291202488914
 30
0.0
 11
1535.7803351849013
 21
282.9524540194408
 31
0.0
  0
LINE
  5
2C1
330
17
100
AcDbEntity
  8
0
100
AcDbLine
 10
1535.7803351849013
 20
282.9524540194408
 30
0.0
 11
1535.3867450593518
 21
282.6016019334835
 31
0.0
  0
LINE
  5
2C2
330
17
100
AcDbEntity
  8
0
100
AcDbLine
 10
1535.3867450593518
 20
282.6016019334835
 30
0.0
 11
1535.02047470084
 21
282.22231787420105
 31
0.0
  0
LINE
  5
2C3
330
17
100
AcDbEntity
  8
0
100
AcDbLine
 10
1535.02047470084
 20
282.22231787420105
 30
0.0
 11
1534.6835724417826
 21
281.8167229519047
 31
0.0
  0
LINE
  5
2C4
330
17
100
AcDbEntity
  8
0
100
AcDbLine
 10
1534.6835724417826
 20
281.8167229519047
 30
0.0
 11
1534.3779223762729
 21
281.38708541792437
 31
0.0
  0
LINE
  5
2C5
330
17
100
AcDbEntity
  8
0
100
AcDbLine
 10
1534.3779223762729
 20
281.38708541792437
 30
0.0
 11
1534.1052338234606
 21
280.9358079796277
 31
0.0
  0
LINE
  5
2C6
330
17
100
AcDbEntity
  8
0
100
AcDbLine
 10
1534.1052338234606
 20
280.9358079796277
 30
0.0
 11
1533.8670317683452
 21
280.46541436350435
 31
0.0
  0
LINE
  5
2C7
330
17
100
AcDbEntity
  8
0
100
AcDbLine
 10
1533.8670317683452
 20
280.46541436350435
 30
0.0
 11
1533.6646483334446
 21
279.978535201465
 31
0.0
  0
LINE
  5
2C8
330
17
100
AcDbEntity
  8
0
100
AcDbLine
 10
1533.6646483334446
 20
279.978535201465
 30
0.0
 11
1533.4992153290184
 21
279.4778933192813
 31
0.0
  0
LINE
  5
2C9
330
17
100
AcDbEntity
  8
0
100
AcDbLine
 10
1533.4992153290184
 20
279.4778933192813
 30
0.0
 11
1533.3716579235345
 21
278.96628850943534
 31
0.0
  0
LINE
  5
2CA
330
17
100
AcDbEntity
  8
0
100
AcDbLine
 10
1533.3716579235345
 20
278.96628850943534
 30
0.0
 11
1533.2826894697466
 21
278.4465818735522
 31
0.0
  0
LINE
  5
2CB
330
17
100
AcDbEntity
  8
0
100
AcDbLine
 10
1533.2826894697466
 20
278.4465818735522
 30
0.0
 11
1533.2328075153368
 21
277.92167982195133
 31
0.0
  0
LINE
  5
2CC
330
17
100
AcDbEntity
  8
0
100
AcDbLine
 10
1533.2328075153368
 20
277.92167982195133
 30
0.0
 11
1533.2222910204289
 21
277.3945178198253
 31
0.0
  0
LINE
  5
2CD
330
17
100
AcDbEntity
  8
0
100
AcDbLine
 10
1533.2222910204289
 20
277.3945178198253
 30
0.0
 11
1533.2511987975272
 21
276.86804397092703
 31
0.0
  0
LINE
  5
2CE
330
17
100
AcDbEntity
  8
0
100
AcDbLine
 10
1533.2511987975272
 20
276.86804397092703
 30
0.0
 11
1533.319369182617
 21
276.34520253057735
 31
0.0
  0
LINE
  5
2CF
330
17
100
AcDbEntity
  8
0
100
AcDbLine
 10
1533.319369182617
 20
276.34520253057735
 30
0.0
 11
1533.426420939252
 21
275.82891744019435
 31
0.0
  0
LINE
  5
2D0
330
17
100
AcDbEntity
  8
0
100
AcDbLine
 10
1533.426420939252
 20
275.82891744019435
 30
0.0
 11
1533.5717553905852
 21
275.322075975428
 31
0.0
  0
LINE
  5
2D1
330
17
100
AcDbEntity
  8
0
100
AcDbLine
 10
1533.5717553905852
 20
275.322075975428
 30
0.0
 11
1533.7545597674114
 21
274.8275125993439
 31
0.0
  0
LINE
  5
2D2
330
17
100
AcDbEntity
  8
0
100
AcDbLine
 10
1533.7545597674114
 20
274.8275125993439
 30
0.0
 11
1533.9738117535019
 21
274.3479931109541
 31
0.0
  0
LINE
  5
2D3
330
17
100
AcDbEntity
  8
0
100
AcDbLine
 10
1533.9738117535019
 20
274.3479931109541
 30
0.0
 11
1534.2282852028159
 21
273.8861991777487
 31
0.0
  0
LINE
  5
2D4
330
17
100
AcDbEntity
  8
0
100
AcDbLine
 10
1534.2282852028159
 20
273.8861991777487
 30
0.0
 11
1534.5165569965993
 21
273.4447133387241
 31
0.0
  0
LINE
  5
2D5
330
17
100
AcDbEntity
  8
0
100
AcDbLine
 10
1534.5165569965993
 20
273.4447133387241
 30
0.0
 11
1534.837015002048
 21
273.0260045617746
 31
0.0
  0
LINE
  5
2D6
330
17
100
AcDbEntity
  8
0
100
AcDbLine
 10
1534.837015002048
 20
273.0260045617746
 30
0.0
 11
1535.1878670880053
 21
272.63241443622564
 31
0.0
  0
LINE
  5
2D7
330
17
100
AcDbEntity
  8
0
100
AcDbLine
 10
1535.1878670880053
 20
272.63241443622564
 30
0.0
 11
1535.5671511472872
 21
272.2661440777133
 31
0.0
  0
LINE
  5
2D8
330
17
100
AcDbEntity
  8
0
100
AcDbLine
 10
1535.5671511472872
 20
272.2661440777133
 30
0.0
 11
1535.9727460695835
 21
271.92924181865556
 31
0.0
  0
LINE
  5
2D9
330
17
100
AcDbEntity
  8
0
100
AcDbLine
 10
1535.9727460695835
 20
271.92924181865556
 30
0.0
 11
1536.402383603564
 21
271.6235917531458
 31
0.0
  0
LINE
  5
2DA
330
17
100
AcDbEntity
  8
0
100
AcDbLine
 10
1536.402383603564
 20
271.6235917531458
 30
0.0
 11
1536.853661041861
 21
271.3509032003336
 31
0.0
  0
LINE
  5
2DB
330
17
100
AcDbEntity
  8
0
100
AcDbLine
 10
1536.853661041861
 20
271.3509032003336
 30
0.0
 11
1537.3240546579839
 21
271.11270114521903
 31
0.0
  0
LINE
  5
2DC
330
17
100
AcDbEntity
  8
0
100
AcDbLine
 10
1537.3240546579839
 20
271.11270114521903
 30
0.0
 11
1537.810933820024
 21
270.91031771031714
 31
0.0
  0
LINE
  5
2DD
330
17
100
AcDbEntity
  8
0
100
AcDbLine
 10
1537.810933820024
 20
270.91031771031714
 30
0.0
 11
1538.3115757022074
 21
270.7448847058913
 31
0.0
  0
LINE
  5
2DE
330
17
100
AcDbEntity
  8
0
100
AcDbLine
 10
1538.3115757022074
 20
270.7448847058913
 30
0.0
 11
1538.8231805120529
 21
270.6173273004075
 31
0.0
  0
LINE
  5
2DF
330
17
100
AcDbEntity
  8
0
100
AcDbLine
 10
1538.8231805120529
 20
270.6173273004075
 30
0.0
 11
1539.3428871479368
 21
270.52835884661977
 31
0.0
  0
LINE
  5
2E0
330
17
100
AcDbEntity
  8
0
100
AcDbLine
 10
1539.3428871479368
 20
270.52835884661977
 30
0.0
 11
1539.8677891995374
 21
270.4784768922102
 31
0.0
  0
LINE
  5
2E1
330
17
100
AcDbEntity
  8
0
100
AcDbLine
 10
1539.8677891995374
 20
270.4784768922102
 30
0.0
 11
1540.3949512016632
 21
270.46796039730157
 31
0.0
  0
LINE
  5
2E2
330
17
100
AcDbEntity
  8
0
100
AcDbLine
 10
1540.3949512016632
 20
270.46796039730157
 30
0.0
 11
1540.9214250505606
 21
270.49686817440033
 31
0.0
  0
LINE
  5
2E3
330
17
100
AcDbEntity
  8
0
100
AcDbLine
 10
1540.9214250505606
 20
270.49686817440033
 30
0.0
 11
1541.4442664909116
 21
270.5650385594904
 31
0.0
  0
LINE
  5
2E4
330
17
100
AcDbEntity
  8
0
100
AcDbLine
 10
1541.4442664909116
 20
270.5650385594904
 30
0.0
 11
1541.960551581294
 21
270.67209031612504
 31
0.0
  0
LINE
  5
2E5
330
17
100
AcDbEntity
  8
0
100
AcDbLine
 10
1541.960551581294
 20
270.67209031612504
 30
0.0
 11
1542.4673930460606
 21
270.8174247674581
 31
0.0
  0
LINE
  5
2E6
330
17
100
AcDbEntity
  8
0
100
AcDbLine
 10
1542.4673930460606
 20
270.8174247674581
 30
0.0
 11
1542.9619564221448
 21
271.0002291442837
 31
0.0
  0
LINE
  5
2E7
330
17
100
AcDbEntity
  8
0
100
AcDbLine
 10
1542.9619564221448
 20
271.0002291442837
 30
0.0
 11
1543.441475910534
 21
271.21948113037547
 31
0.0
  0
LINE
  5
2E8
330
17
100
AcDbEntity
  8
0
100
AcDbLine
 10
1543.441475910534
 20
271.21948113037547
 30
0.0
 11
1543.903269843739
 21
271.4739545796891
 31
0.0
  0
LINE
  5
2E9
330
17
100
AcDbEntity
  8
0
100
AcDbLine
 10
1543.903269843739
 20
271.4739545796891
 30
0.0
 11
1544.344755682764
 21
271.76222637347223
 31
0.0
  0
LINE
  5
2EA
330
17
100
AcDbEntity
  8
0
100
AcDbLine
 10
1544.344755682764
 20
271.76222637347223
 30
0.0
 11
1544.763464459714
 21
272.08268437892116
 31
0.0
  0
LINE
  5
2EB
330
17
100
AcDbEntity
  8
0
100
AcDbLine
 10
1544.763464459714
 20
272.08268437892116
 30
0.0
 11
1545.1570545852633
 21
272.433536464878
 31
0.0
  0
LINE
  5
2EC
330
17
100
AcDbEntity
  8
0
100
AcDbLine
 10
1545.1570545852633
 20
272.433536464878
 30
0.0
 11
1545.523324943776
 21
272.81282052416077
 31
0.0
  0
LINE
  5
2ED
330
17
100
AcDbEntity
  8
0
100
AcDbLine
 10
1545.523324943776
 20
272.81282052416077
 30
0.0
 11
1545.8602272028336
 21
273.2184154464568
 31
0.0
  0
LINE
  5
2EE
330
17
100
AcDbEntity
  8
0
100
AcDbLine
 10
1545.8602272028336
 20
273.2184154464568
 30
0.0
 11
1546.1658772683425
 21
273.6480529804371
 31
0.0
  0
LINE
  5
2EF
330
17
100
AcDbEntity
  8
0
100
AcDbLine
 10
1546.1658772683425
 20
273.6480529804371
 30
0.0
 11
1546.4385658211543
 21
274.09933041873364
 31
0.0
  0
LINE
  5
2F0
330
17
100
AcDbEntity
  8
0
100
AcDbLine
 10
1546.4385658211543
 20
274.09933041873364
 30
0.0
 11
1546.6767678762697
 21
274.5697240348575
 31
0.0
  0
LINE
  5
2F1
330
17
100
AcDbEntity
  8
0
100
AcDbLine
 10
1546.6767678762697
 20
274.5697240348575
 30
0.0
 11
1546.8791513111719
 21
275.0566031968965
 31
0.0
  0
LINE
  5
2F2
330
17
100
AcDbEntity
  8
0
100
AcDbLine
 10
1546.8791513111719
 20
275.0566031968965
 30
0.0
 11
1547.044584315597
 21
275.55724507908064
 31
0.0
  0
LINE
  5
2F3
330
17
100
AcDbEntity
  8
0
100
AcDbLine
 10
1547.044584315597
 20
275.55724507908064
 30
0.0
 11
1547.1721417210806
 21
276.0688498889265
 31
0.0
  0
LINE
  5
2F4
330
17
100
AcDbEntity
  8
0
100
AcDbLine
 10
1547.1721417210806
 20
276.0688498889265
 30
0.0
 11
1547.2611101748685
 21
276.5885565248093
 31
0.0
  0
LINE
  5
2F5
330
17
100
AcDbEntity
  8
0
100
AcDbLine
 10
1547.2611101748685
 20
276.5885565248093
 30
0.0
 11
1547.3109921292782
 21
277.11345857641015
 31
0.0
  0
LINE
  5
2F6
330
17
100
AcDbEntity
  8
0
100
AcDbLine
 10
1547.3109921292782
 20
277.11345857641015
 30
0.0
 11
1547.3215086241862
 21
277.6406205785361
 31
0.0
  0
LINE
  5
2F7
330
17
100
AcDbEntity
  8
0
100
AcDbLine
 10
1002.270832660073
 20
602.2646909117504
 30
0.0
 11
1003.7490633660962
 21
600.8642923105612
 31
0.0
  0
LINE
  5
2F8
330
17
100
AcDbEntity
  8
0
100
AcDbLine
 10
1003.7490633660962
 20
600.8642923105612
 30
0.0
 11
1005.2538473276824
 21
599.4924659762905
 31
0.0
  0
LINE
  5
2F9
330
17
100
AcDbEntity
  8
0
100
AcDbLine
 10
1005.2538473276824
 20
599.4924659762905
 30
0.0
 11
1006.7846323746833
 21
598.1497152911959
 31
0.0
  0
LINE
  5
2FA
330
17
100
AcDbEntity
  8
0
100
AcDbLine
 10
1006.7846323746833
 20
598.1497152911959
 30
0.0
 11
1008.340856796034
 21
596.8365329684254
 31
0.0
  0
LINE
  5
2FB
330
17
100
AcDbEntity
  8
0
100
AcDbLine
 10
1008.340856796034
 20
596.8365329684254
 30
0.0
 11
1009.9219495458641
 21
595.5534008712202
 31
0.0
  0
LINE
  5
2FC
330
17
100
AcDbEntity
  8
0
100
AcDbLine
 10
1009.9219495458641
 20
595.5534008712202
 30
0.0
 11
1011.5273304530406
 21
594.3007898360954
 31
0.0
  0
LINE
  5
2FD
330
17
100
AcDbEntity
  8
0
100
AcDbLine
 10
1011.5273304530406
 20
594.3007898360954
 30
0.0
 11
1013.1564104340591
 21
593.0791595000732
 31
0.0
  0
LINE
  5
2FE
330
17
100
AcDbEntity
  8
0
100
AcDbLine
 10
1013.1564104340591
 20
593.0791595000732
 30
0.0
 11
1014.8085917092006
 21
591.8889581320202
 31
0.0
  0
LINE
  5
2FF
330
17
100
AcDbEntity
  8
0
100
AcDbLine
 10
1014.8085917092006
 20
591.8889581320202
 30
0.0
 11
1016.4832680218874
 21
590.7306224681604
 31
0.0
  0
LINE
  5
300
330
17
100
AcDbEntity
  8
0
100
AcDbLine
 10
1016.4832680218874
 20
590.7306224681604
 30
0.0
 11
1018.1798248611402
 21
589.6045775518138
 31
0.0
  0
LINE
  5
301
330
17
100
AcDbEntity
  8
0
100
AcDbLine
 10
1018.1798248611402
 20
589.6045775518138
 30
0.0
 11
1019.8976396870714
 21
588.5112365774352
 31
0.0
  0
LINE
  5
302
330
17
100
AcDbEntity
  8
0
100
AcDbLine
 10
1019.8976396870714
 20
588.5112365774352
 30
0.0
 11
1021.6360821593208
 21
587.4510007389906
 31
0.0
  0
LINE
  5
303
330
17
100
AcDbEntity
  8
0
100
AcDbLine
 10
1021.6360821593208
 20
587.4510007389906
 30
0.0
 11
1023.3945143683553
 21
586.4242590827436
 31
0.0
  0
LINE
  5
304
330
17
100
AcDbEntity
  8
0
100
AcDbLine
 10
1023.3945143683553
 20
586.4242590827436
 30
0.0
 11
1025.1722910695455
 21
585.4313883644971
 31
0.0
  0
LINE
  5
305
330
17
100
AcDbEntity
  8
0
100
AcDbLine
 10
1025.1722910695455
 20
585.4313883644971
 30
0.0
 11
1026.9687599199322
 21
584.4727529113477
 31
0.0
  0
LINE
  5
306
330
17
100
AcDbEntity
  8
0
100
AcDbLine
 10
1026.9687599199322
 20
584.4727529113477
 30
0.0
 11
1028.783261717601
 21
583.5487044879951
 31
0.0
  0
LINE
  5
307
330
17
100
AcDbEntity
  8
0
100
AcDbLine
 10
1028.783261717601
 20
583.5487044879951
 30
0.0
 11
1030.615130643571
 21
582.6595821676651
 31
0.0
  0
LINE
  5
308
330
17
100
AcDbEntity
  8
0
100
AcDbLine
 10
1030.615130643571
 20
582.6595821676651
 30
0.0
 11
1032.463694506114
 21
581.8057122076918
 31
0.0
  0
LINE
  5
309
330
17
100
AcDbEntity
  8
0
100
AcDbLine
 10
1032.463694506114
 20
581.8057122076918
 30
0.0
 11
1034.3282749874077
 21
580.9874079297953
 31
0.0
  0
LINE
  5
30A
330
17
100
AcDbEntity
  8
0
100
AcDbLine
 10
1034.3282749874077
 20
580.9874079297953
 30
0.0
 11
1036.2081878924416
 21
580.2049696051142
 31
0.0
  0
LINE
  5
30B
330
17
100
AcDbEntity
  8
0
100
AcDbLine
 10
1036.2081878924416
 20
580.2049696051142
 30
0.0
 11
1038.1027434000791
 21
579.458684344022
 31
0.0
  0
LINE
  5
30C
330
17
100
AcDbEntity
  8
0
100
AcDbLine
 10
1038.1027434000791
 20
579.458684344022
 30
0.0
 11
1040.0112463161802
 21
578.748825990772
 31
0.0
  0
LINE
  5
30D
330
17
100
AcDbEntity
  8
0
100
AcDbLine
 10
1040.0112463161802
 20
578.748825990772
 30
0.0
 11
1041.9329963286987
 21
578.0756550230155
 31
0.0
  0
LINE
  5
30E
330
17
100
AcDbEntity
  8
0
100
AcDbLine
 10
1041.9329963286987
 20
578.0756550230155
 30
0.0
 11
1043.8672882646574
 21
577.4394184562191
 31
0.0
  0
LINE
  5
30F
330
17
100
AcDbEntity
  8
0
100
AcDbLine
 10
1043.8672882646574
 20
577.4394184562191
 30
0.0
 11
1045.8134123489067
 21
576.8403497530235
 31
0.0
  0
LINE
  5
310
330
17
100
AcDbEntity
  8
0
100
AcDbLine
 10
1045.8134123489067
 20
576.8403497530235
 30
0.0
 11
1047.7706544645716
 21
576.2786687375774
 31
0.0
  0
LINE
  5
311
330
17
100
AcDbEntity
  8
0
100
AcDbLine
 10
1047.7706544645716
 20
576.2786687375774
 30
0.0
 11
1049.7382964150906
 21
575.7545815148745
 31
0.0
  0
LINE
  5
312
330
17
100
AcDbEntity
  8
0
100
AcDbLine
 10
1049.7382964150906
 20
575.7545815148745
 30
0.0
 11
1051.7156161877563
 21
575.2682803951244
 31
0.0
  0
LINE
  5
313
330
17
100
AcDbEntity
  8
0
100
AcDbLine
 10
1051.7156161877563
 20
575.2682803951244
 30
0.0
 11
1053.701888218649
 21
574.8199438231844
 31
0.0
  0
LINE
  5
314
330
17
100
AcDbEntity
  8
0
100
AcDbLine
 10
1053.701888218649
 20
574.8199438231844
 30
0.0
 11
1055.6963836588793
 21
574.4097363130836
 31
0.0
  0
LINE
  5
315
330
17
100
AcDbEntity
  8
0
100
AcDbLine
 10
1055.6963836588793
 20
574.4097363130836
 30
0.0
 11
1057.6983706420353
 21
574.037808387651
 31
0.0
  0
LINE
  5
316
330
17
100
AcDbEntity
  8
0
100
AcDbLine
 10
1057.6983706420353
 20
574.037808387651
 30
0.0
 11
1059.7071145527354
 21
573.704296523287
 31
0.0
  0
LINE
  5
317
330
17
100
AcDbEntity
  8
0
100
AcDbLine
 10
1059.7071145527354
 20
573.704296523287
 30
0.0
 11
1061.7218782961875
 21
573.409323099881
 31
0.0
  0
LINE
  5
318
330
17
100
AcDbEntity
  8
0
100
AcDbLine
 10
1061.7218782961875
 20
573.409323099881
 30
0.0
 11
1063.741922568664
 21
573.1529963559061
 31
0.0
  0
LINE
  5
319
330
17
100
AcDbEntity
  8
0
100
AcDbLine
 10
1063.741922568664
 20
573.1529963559061
 30
0.0
 11
1065.7665061287855
 21
572.9354103487009
 31
0.0
  0
LINE
  5
31A
330
17
100
AcDbEntity
  8
0
100
AcDbLine
 10
1065.7665061287855
 20
572.9354103487009
 30
0.0
 11
1067.7948860695092
 21
572.7566449199585
 31
0.0
  0
LINE
  5
31B
330
17
100
AcDbEntity
  8
0
100
AcDbLine
 10
1067.7948860695092
 20
572.7566449199585
 30
0.0
 11
1069.8263180907384
 21
572.6167656664253
 31
0.0
  0
LINE
  5
31C
330
17
100
AcDbEntity
  8
0
100
AcDbLine
 10
1069.8263180907384
 20
572.6167656664253
 30
0.0
 11
1071.8600567724354
 21
572.5158239158334
 31
0.0
  0
LINE
  5
31D
330
17
100
AcDbEntity
  8
0
100
AcDbLine
 10
1071.8600567724354
 20
572.5158239158334
 30
0.0
 11
1073.8953558481503
 21
572.453856708066
 31
0.0
  0
LINE
  5
31E
330
17
100
AcDbEntity
  8
0
100
AcDbLine
 10
1073.8953558481503
 20
572.453856708066
 30
0.0
 11
1075.9314684788565
 21
572.4308867815639
 31
0.0
  0
LINE
  5
31F
330
17
100
AcDbEntity
  8
0
100
AcDbLine
 10
1075.9314684788565
 20
572.4308867815639
 30
0.0
 11
1077.967647526999
 21
572.4469225649841
 31
0.0
  0
LINE
  5
320
330
17
100
AcDbEntity
  8
0
100
AcDbLine
 10
1077.967647526999
 20
572.4469225649864
 30
0.0
 11
1076.5941244202054
 21
572.4029579751658
 31
0.0
  0
LINE
  5
321
330
17
100
AcDbEntity
  8
0
100
AcDbLine
 10
1076.5941244202054
 20
572.4029579751658
 30
0.0
 11
1075.2224610799788
 21
572.3190634513135
 31
0.0
  0
LINE
  5
322
330
17
100
AcDbEntity
  8
0
100
AcDbLine
 10
1075.2224610799788
 20
572.3190634513135
 30
0.0
 11
1073.853818070446
 21
572.1953099765713
 31
0.0
  0
LINE
  5
323
330
17
100
AcDbEntity
  8
0
100
AcDbLine
 10
1073.853818070446
 20
572.1953099765713
 30
0.0
 11
1072.4893534002324
 21
572.0318022587348
 31
0.0
  0
LINE
  5
324
330
17
100
AcDbEntity
  8
0
100
AcDbLine
 10
1072.4893534002324
 20
572.0318022587348
 30
0.0
 11
1071.1302215426706
 21
571.8286786416562
 31
0.0
  0
LINE
  5
325
330
17
100
AcDbEntity
  8
0
100
AcDbLine
 10
1071.1302215426706
 20
571.8286786416562
 30
0.0
 11
1069.7775724590022
 21
571.5861109881957
 31
0.0
  0
LINE
  5
326
330
17
100
AcDbEntity
  8
0
100
AcDbLine
 10
1069.7775724590022
 20
571.5861109881957
 30
0.0
 11
1068.432550625395
 21
571.3043045348048
 31
0.0
  0
LINE
  5
327
330
17
100
AcDbEntity
  8
0
100
AcDbLine
 10
1068.432550625395
 20
571.3043045348048
 30
0.0
 11
1067.0962940646002
 21
570.9834977178762
 31
0.0
  0
LINE
  5
328
330
17
100
AcDbEntity
  8
0
100
AcDbLine
 10
1067.0962940646002
 20
570.9834977178762
 30
0.0
 11
1065.769933383075
 21
570.6239619720068
 31
0.0
  0
LINE
  5
329
330
17
100
AcDbEntity
  8
0
100
AcDbLine
 10
1065.769933383075
 20
570.6239619720068
 30
0.0
 11
1064.4545908143741
 21
570.2260015003299
 31
0.0
  0
LINE
  5
32A
330
17
100
AcDbEntity
  8
0
100
AcDbLine
 10
1064.4545908143741
 20
570.2260015003299
 30
0.0
 11
1063.1513792696283
 21
569.7899530171369
 31
0.0
  0
LINE
  5
32B
330
17
100
AcDbEntity
  8
0
100
AcDbLine
 10
1063.1513792696283
 20
569.7899530171369
 30
0.0
 11
1061.8614013959111
 21
569.3161854629773
 31
0.0
  0
LINE
  5
32C
330
17
100
AcDbEntity
  8
0
100
AcDbLine
 10
1061.8614013959111
 20
569.3161854629773
 30
0.0
 11
1060.5857486432903
 21
568.8050996925006
 31
0.0
  0
LINE
  5
32D
330
17
100
AcDbEntity
  8
0
100
AcDbLine
 10
1060.5857486432903
 20
568.8050996925006
 30
0.0
 11
1059.3255003413494
 21
568.257128135293
 31
0.0
  0
LINE
  5
32E
330
17
100
AcDbEntity
  8
0
100
AcDbLine
 10
1059.3255003413494
 20
568.257128135293
 30
0.0
 11
1058.0817227859693
 21
567.6727344299997
 31
0.0
  0
LINE
  5
32F
330
17
100
AcDbEntity
  8
0
100
AcDbLine
 10
1058.0817227859693
 20
567.6727344299997
 30
0.0
 11
1056.8554683371353
 21
567.0524130320373
 31
0.0
  0
LINE
  5
330
330
17
100
AcDbEntity
  8
0
100
AcDbLine
 10
1056.8554683371353
 20
567.0524130320373
 30
0.0
 11
1055.6477745285356
 21
566.3966887952399
 31
0.0
  0
LINE
  5
331
330
17
100
AcDbEntity
  8
0
100
AcDbLine
 10
1055.6477745285356
 20
566.3966887952399
 30
0.0
 11
1054.4596631897025
 21
565.7061165277762
 31
0.0
  0
LINE
  5
332
330
17
100
AcDbEntity
  8
0
100
AcDbLine
 10
1054.4596631897025
 20
565.7061165277762
 30
0.0
 11
1053.2921395814449
 21
564.9812805227282
 31
0.0
  0
LINE
  5
333
330
17
100
AcDbEntity
  8
0
100
AcDbLine
 10
1053.2921395814449
 20
564.9812805227282
 30
0.0
 11
1052.1461915452953
 21
564.2227940637201
 31
0.0
  0
LINE
  5
334
330
17
100
AcDbEntity
  8
0
100
AcDbLine
 10
1052.1461915452953
 20
564.2227940637201
 30
0.0
 11
1051.0227886676987
 21
563.4312989060206
 31
0.0
  0
LINE
  5
335
330
17
100
AcDbEntity
  8
0
100
AcDbLine
 10
1051.0227886676987
 20
563.4312989060206
 30
0.0
 11
1049.9228814596454
 21
562.6074647335524
 31
0.0
  0
LINE
  5
336
330
17
100
AcDbEntity
  8
0
100
AcDbLine
 10
1049.9228814596454
 20
562.6074647335524
 30
0.0
 11
1048.8474005524433
 21
561.7519885922736
 31
0.0
  0
LINE
  5
337
330
17
100
AcDbEntity
  8
0
100
AcDbLine
 10
1048.8474005524433
 20
561.7519885922736
 30
0.0
 11
1047.7972559103114
 21
560.8655943004064
 31
0.0
  0
LINE
  5
338
330
17
100
AcDbEntity
  8
0
100
AcDbLine
 10
1047.7972559103114
 20
560.8655943004064
 30
0.0
 11
1046.7733360604577
 21
559.9490318360147
 31
0.0
  0
LINE
  5
339
330
17
100
AcDbEntity
  8
0
100
AcDbLine
 10
1046.7733360604577
 20
559.9490318360147
 30
0.0
 11
1045.7765073413004
 21
559.0030767024504
 31
0.0
  0
LINE
  5
33A
330
17
100
AcDbEntity
  8
0
100
AcDbLine
 10
1045.7765073413004
 20
559.0030767024504
 30
0.0
 11
1044.8076131694538
 21
558.0285292721956
 31
0.0
  0
ENDSEC
  0
SECTION
  2
OBJECTS
  0
DICTIONARY
  5
A
330
0
100
AcDbDictionary
281
1
  3
ACAD_COLOR
350
B
  3
ACAD_GROUP
350
C
  3
ACAD_LAYOUT
350
D
  3
ACAD_MATERIAL
350
E
  3
ACAD_MLEADERSTYLE
350
F
  3
ACAD_MLINESTYLE
350
10
  3
ACAD_PLOTSETTINGS
350
11
  3
ACAD_PLOTSTYLENAME
350
12
  3
ACAD_SCALELIST
350
14
  3
ACAD_TABLESTYLE
350
15
  3
ACAD_VISUALSTYLE
350
16
  3
EZDXF_META
350
2D
  0
DICTIONARY
  5
B
330
A
100
AcDbDictionary
281
1
  0
DICTIONARY
  5
C
330
A
100
AcDbDictionary
281
1
  0
DICTIONARY
  5
D
330
A
100
AcDbDictionary
281
1
  3
Model
350
1A
  3
Layout1
350
1E
  0
DICTIONARY
  5
E
330
A
100
AcDbDictionary
281
1
  3
ByBlock
350
1F
  3
ByLayer
350
20
  3
Global
350
21
  0
DICTIONARY
  5
F
330
A
100
AcDbDictionary
281
1
  3
Standard
350
2C
  0
DICTIONARY
  5
10
330
A
100
AcDbDictionary
281
1
  3
Standard
350
22
  0
DICTIONARY
  5
11
330
A
100
AcDbDictionary
281
1
  0
ACDBDICTIONARYWDFLT
  5
12
330
A
100
AcDbDictionary
281
1
  3
Normal
350
13
100
AcDbDictionaryWithDefault
340
13
  0
ACDBPLACEHOLDER
  5
13
330
12
  0
DICTIONARY
  5
14
330
A
100
AcDbDictionary
281
1
  0
DICTIONARY
  5
15
330
A
100
AcDbDictionary
281
1
  0
DICTIONARY
  5
16
330
A
100
AcDbDictionary
281
1
  0
LAYOUT
  5
1A
330
D
100
AcDbPlotSettings
  1

  4
A3
  6

 40
7.5
 41
20.0
 42
7.5
 43
20.0
 44
420.0
 45
297.0
 46
0.0
 47
0.0
 48
0.0
 49
0.0
140
0.0
141
0.0
142
1.0
143
1.0
 70
1024
 72
1
 73
0
 74
5
  7

 75
16
 76
0
 77
2
 78
300
147
1.0
148
0.0
149
0.0
100
AcDbLayout
  1
Model
 70
1
 71
0
 10
0.0
 20
0.0
 11
420.0
 21
297.0
 12
0.0
 22
0.0
 32
0.0
 14
1e+20
 24
1e+20
 34
1e+20
 15
-1e+20
 25
-1e+20
 35
-1e+20
146
0.0
 13
0.0
 23
0.0
 33
0.0
 16
1.0
 26
0.0
 36
0.0
 17
0.0
 27
1.0
 37
0.0
 76
1
330
17
  0
LAYOUT
  5
1E
330
D
100
AcDbPlotSettings
  1

  4
A3
  6

 40
7.5
 41
20.0
 42
7.5
 43
20.0
 44
420.0
 45
297.0
 46
0.0
 47
0.0
 48
0.0
 49
0.0
140
0.0
141
0.0
142
1.0
143
1.0
 70
0
 72
1
 73
0
 74
5
  7

 75
16
 76
0
 77
2
 78
300
147
1.0
148
0.0
149
0.0
100
AcDbLayout
  1
Layout1
 70
1
 71
1
 10
0.0
 20
0.0
 11
420.0
 21
297.0
 12
0.0
 22
0.0
 32
0.0
 14
1e+20
 24
1e+20
 34
1e+20
 15
-1e+20
 25
-1e+20
 35
-1e+20
146
0.0
 13
0.0
 23
0.0
 33
0.0
 16
1.0
 26
0.0
 36
0.0
 17
0.0
 27
1.0
 37
0.0
 76
1
330
1B
  0
MATERIAL
  5
1F
102
{ACAD_REACTORS
330
E
102
}
330
E
100
AcDbMaterial
  1
ByBlock
  2

 70
0
 40
1.0
 71
1
 41
1.0
 91
-1023410177
 42
1.0
 72
1
  3

 73
1
 74
1
 75
1
 44
0.5
 73
0
 45
1.0
 46
1.0
 77
1
  4

 78
1
 79
1
170
1
 48
1.0
171
1
  6

172
1
173
1
174
1
140
1.0
141
1.0
175
1
  7

176
1
177
1
178
1
143
1.0
179
1
  8

270
1
271
1
272
1
145
1.0
146
1.0
273
1
  9

274
1
275
1
276
1
 42
1.0
 72
1
  3

 73
1
 74
1
 75
1
 94
63
  0
MATERIAL
  5
20
102
{ACAD_REACTORS
330
E
102
}
330
E
100
AcDbMaterial
  1
ByLayer
  2

 70
0
 40
1.0
 71
1
 41
1.0
 91
-1023410177
 42
1.0
 72
1
  3

 73
1
 74
1
 75
1
 44
0.5
 73
0
 45
1.0
 46
1.0
 77
1
  4

 78
1
 79
1
170
1
 48
1.0
171
1
  6

172
1
173
1
174
1
140
1.0
141
1.0
175
1
  7

176
1
177
1
178
1
143
1.0
179
1
  8

270
1
271
1
272
1
145
1.0
146
1.0
273
1
  9

274
1
275
1
276
1
 42
1.0
 72
1
  3

 73
1
 74
1
 75
1
 94
63
  0
MATERIAL
  5
21
102
{ACAD_REACTORS
330
E
102
}
330
E
100
AcDbMaterial
  1
Global
  2

 70
0
 40
1.0
 71
1
 41
1.0
 91
-1023410177
 42
1.0
 72
1
  3

 73
1
 74
1
 75
1
 44
0.5
 73
0
 45
1.0
 46
1.0
 77
1
  4

 78
1
 79
1
170
1
 48
1.0
171
1
  6

172
1
173
1
174
1
140
1.0
141
1.0
175
1
  7

176
1
177
1
178
1
143
1.0
179
1
  8

270
1
271
1
272
1
145
1.0
146
1.0
273
1
  9

274
1
275
1
276
1
 42
1.0
 72
1
  3

 73
1
 74
1
 75
1
 94
63
  0
MLINESTYLE
  5
22
102
{ACAD_REACTORS
330
10
102
}
330
10
100
AcDbMlineStyle
  2
Standard
 70
0
  3

 62
256
 51
90.0
 52
90.0
 71
2
 49
0.5
 62
256
  6
BYLAYER
 49
-0.5
 62
256
  6
BYLAYER
  0
MLEADERSTYLE
  5
2C
102
{ACAD_REACTORS
330
F
102
}
330
F
100
AcDbMLeaderStyle
179
2
170
2
171
1
172
0
 90
2
 40
0.0
 41
0.0
173
1
 91
-1056964608
 92
-2
290
1
 42
2.0
291
1
 43
8.0
  3
Standard
 44
4.0
300

342
29
174
1
175
1
176
0
178
1
 93
-1056964608
 45
4.0
292
0
297
0
 46
4.0
 94
-1056964608
 47
1.0
 49
1.0
140
1.0
294
1
141
0.0
177
0
142
1.0
295
0
296
0
143
3.75
271
0
272
9
273
9
  0
DICTIONARY
  5
2D
330
A
100
AcDbDictionary
280
1
281
1
  3
CREATED_BY_EZDXF
350
2E
  3
WRITTEN_BY_EZDXF
350
33D
  0
DICTIONARYVAR
  5
2E
330
2D
100
DictionaryVariables
280
0
  1
1.4.3 @ 2026-04-16T08:37:53.417509+00:00
  0
DICTIONARYVAR
  5
33D
330
2D
100
DictionaryVariables
280
0
  1
1.4.3 @ 2026-04-16T08:37:53.450701+00:00
  0
ENDSEC
  0
EOF
