  0
SECTION
  2
HEADER
  9
$ACADVER
  1
AC1024
  9
$ACADMAINTVER
 70
6
  9
$DWGCODEPAGE
  3
ANSI_1252
  9
$LASTSAVEDBY
  1
ezdxf
  9
$INSBASE
 10
0.0
 20
0.0
 30
0.0
  9
$EXTMIN
 10
1e+20
 20
1e+20
 30
1e+20
  9
$EXTMAX
 10
-1e+20
 20
-1e+20
 30
-1e+20
  9
$LIMMIN
 10
0.0
 20
0.0
  9
$LIMMAX
 10
420.0
 20
297.0
  9
$ORTHOMODE
 70
0
  9
$REGENMODE
 70
1
  9
$FILLMODE
 70
1
  9
$QTEXTMODE
 70
0
  9
$MIRRTEXT
 70
1
  9
$LTSCALE
 40
1.0
  9
$ATTMODE
 70
1
  9
$TEXTSIZE
 40
2.5
  9
$TRACEWID
 40
1.0
  9
$TEXTSTYLE
  7
Standard
  9
$CLAYER
  8
0
  9
$CELTYPE
  6
ByLayer
  9
$CECOLOR
 62
256
  9
$CELTSCALE
 40
1.0
  9
$DISPSILH
 70
0
  9
$DIMSCALE
 40
1.0
  9
$DIMASZ
 40
2.5
  9
$DIMEXO
 40
0.625
  9
$DIMDLI
 40
3.75
  9
$DIMRND
 40
0.0
  9
$DIMDLE
 40
0.0
  9
$DIMEXE
 40
1.25
  9
$DIMTP
 40
0.0
  9
$DIMTM
 40
0.0
  9
$DIMTXT
 40
2.5
  9
$DIMCEN
 40
2.5
  9
$DIMTSZ
 40
0.0
  9
$DIMTOL
 70
0
  9
$DIMLIM
 70
0
  9
$DIMTIH
 70
0
  9
$DIMTOH
 70
0
  9
$DIMSE1
 70
0
  9
$DIMSE2
 70
0
  9
$DIMTAD
 70
1
  9
$DIMZIN
 70
8
  9
$DIMBLK
  1

  9
$DIMASO
 70
1
  9
$DIMSHO
 70
1
  9
$DIMPOST
  1

  9
$DIMAPOST
  1

  9
$DIMALT
 70
0
  9
$DIMALTD
 70
3
  9
$DIMALTF
 40
0.03937007874
  9
$DIMLFAC
 40
1.0
  9
$DIMTOFL
 70
1
  9
$DIMTVP
 40
0.0
  9
$DIMTIX
 70
0
  9
$DIMSOXD
 70
0
  9
$DIMSAH
 70
0
  9
$DIMBLK1
  1

  9
$DIMBLK2
  1

  9
$DIMSTYLE
  2
ISO-25
  9
$DIMCLRD
 70
0
  9
$DIMCLRE
 70
0
  9
$DIMCLRT
 70
0
  9
$DIMTFAC
 40
1.0
  9
$DIMGAP
 40
0.625
  9
$DIMJUST
 70
0
  9
$DIMSD1
 70
0
  9
$DIMSD2
 70
0
  9
$DIMTOLJ
 70
0
  9
$DIMTZIN
 70
8
  9
$DIMALTZ
 70
0
  9
$DIMALTTZ
 70
0
  9
$DIMUPT
 70
0
  9
$DIMDEC
 70
2
  9
$DIMTDEC
 70
2
  9
$DIMALTU
 70
2
  9
$DIMALTTD
 70
3
  9
$DIMTXSTY
  7
Standard
  9
$DIMAUNIT
 70
0
  9
$DIMADEC
 70
0
  9
$DIMALTRND
 40
0.0
  9
$DIMAZIN
 70
0
  9
$DIMDSEP
 70
44
  9
$DIMATFIT
 70
3
  9
$DIMFRAC
 70
0
  9
$DIMLDRBLK
  1

  9
$DIMLUNIT
 70
2
  9
$DIMLWD
 70
-2
  9
$DIMLWE
 70
-2
  9
$DIMTMOVE
 70
0
  9
$DIMFXL
 40
1.0
  9
$DIMFXLON
 70
0
  9
$DIMJOGANG
 40
0.785398163397
  9
$DIMTFILL
 70
0
  9
$DIMTFILLCLR
 70
0
  9
$DIMARCSYM
 70
0
  9
$DIMLTYPE
  6

  9
$DIMLTEX1
  6

  9
$DIMLTEX2
  6

  9
$DIMTXTDIRECTION
 70
0
  9
$LUNITS
 70
2
  9
$LUPREC
 70
4
  9
$SKETCHINC
 40
1.0
  9
$FILLETRAD
 40
10.0
  9
$AUNITS
 70
0
  9
$AUPREC
 70
2
  9
$MENU
  1
.
  9
$ELEVATION
 40
0.0
  9
$PELEVATION
 40
0.0
  9
$THICKNESS
 40
0.0
  9
$LIMCHECK
 70
0
  9
$CHAMFERA
 40
0.0
  9
$CHAMFERB
 40
0.0
  9
$CHAMFERC
 40
0.0
  9
$CHAMFERD
 40
0.0
  9
$SKPOLY
 70
0
  9
$TDCREATE
 40
2461147.4846296296
  9
$TDUCREATE
 40
2458532.153996898
  9
$TDUPDATE
 40
2461147.4846296296
  9
$TDUUPDATE
 40
2458532.1544311
  9
$TDINDWG
 40
0.0
  9
$TDUSRTIMER
 40
0.0
  9
$USRTIMER
 70
1
  9
$ANGBASE
 50
0.0
  9
$ANGDIR
 70
0
  9
$PDMODE
 70
0
  9
$PDSIZE
 40
0.0
  9
$PLINEWID
 40
0.0
  9
$SPLFRAME
 70
0
  9
$SPLINETYPE
 70
6
  9
$SPLINESEGS
 70
8
  9
$HANDSEED
  5
1F2
  9
$SURFTAB1
 70
6
  9
$SURFTAB2
 70
6
  9
$SURFTYPE
 70
6
  9
$SURFU
 70
6
  9
$SURFV
 70
6
  9
$UCSBASE
  2

  9
$UCSNAME
  2

  9
$UCSORG
 10
0.0
 20
0.0
 30
0.0
  9
$UCSXDIR
 10
1.0
 20
0.0
 30
0.0
  9
$UCSYDIR
 10
0.0
 20
1.0
 30
0.0
  9
$UCSORTHOREF
  2

  9
$UCSORTHOVIEW
 70
0
  9
$UCSORGTOP
 10
0.0
 20
0.0
 30
0.0
  9
$UCSORGBOTTOM
 10
0.0
 20
0.0
 30
0.0
  9
$UCSORGLEFT
 10
0.0
 20
0.0
 30
0.0
  9
$UCSORGRIGHT
 10
0.0
 20
0.0
 30
0.0
  9
$UCSORGFRONT
 10
0.0
 20
0.0
 30
0.0
  9
$UCSORGBACK
 10
0.0
 20
0.0
 30
0.0
  9
$PUCSBASE
  2

  9
$PUCSNAME
  2

  9
$PUCSORG
 10
0.0
 20
0.0
 30
0.0
  9
$PUCSXDIR
 10
1.0
 20
0.0
 30
0.0
  9
$PUCSYDIR
 10
0.0
 20
1.0
 30
0.0
  9
$PUCSORTHOREF
  2

  9
$PUCSORTHOVIEW
 70
0
  9
$PUCSORGTOP
 10
0.0
 20
0.0
 30
0.0
  9
$PUCSORGBOTTOM
 10
0.0
 20
0.0
 30
0.0
  9
$PUCSORGLEFT
 10
0.0
 20
0.0
 30
0.0
  9
$PUCSORGRIGHT
 10
0.0
 20
0.0
 30
0.0
  9
$PUCSORGFRONT
 10
0.0
 20
0.0
 30
0.0
  9
$PUCSORGBACK
 10
0.0
 20
0.0
 30
0.0
  9
$USERI1
 70
0
  9
$USERI2
 70
0
  9
$USERI3
 70
0
  9
$USERI4
 70
0
  9
$USERI5
 70
0
  9
$USERR1
 40
0.0
  9
$USERR2
 40
0.0
  9
$USERR3
 40
0.0
  9
$USERR4
 40
0.0
  9
$USERR5
 40
0.0
  9
$WORLDVIEW
 70
1
  9
$SHADEDGE
 70
3
  9
$SHADEDIF
 70
70
  9
$TILEMODE
 70
1
  9
$MAXACTVP
 70
64
  9
$PINSBASE
 10
0.0
 20
0.0
 30
0.0
  9
$PLIMCHECK
 70
0
  9
$PEXTMIN
 10
1e+20
 20
1e+20
 30
1e+20
  9
$PEXTMAX
 10
-1e+20
 20
-1e+20
 30
-1e+20
  9
$PLIMMIN
 10
0.0
 20
0.0
  9
$PLIMMAX
 10
420.0
 20
297.0
  9
$UNITMODE
 70
0
  9
$VISRETAIN
 70
1
  9
$PLINEGEN
 70
0
  9
$PSLTSCALE
 70
1
  9
$TREEDEPTH
 70
3020
  9
$CMLSTYLE
  2
Standard
  9
$CMLJUST
 70
0
  9
$CMLSCALE
 40
20.0
  9
$PROXYGRAPHICS
 70
1
  9
$MEASUREMENT
 70
1
  9
$CELWEIGHT
370
-1
  9
$ENDCAPS
280
0
  9
$JOINSTYLE
280
0
  9
$LWDISPLAY
290
0
  9
$INSUNITS
 70
0
  9
$HYPERLINKBASE
  1

  9
$STYLESHEET
  1

  9
$XEDIT
290
1
  9
$CEPSNTYPE
380
0
  9
$PSTYLEMODE
290
1
  9
$FINGERPRINTGUID
  2
{4C774F60-EFC1-4986-8668-2E40E7BAFC3F}
  9
$VERSIONGUID
  2
{9035CCEA-6866-40A0-B510-D50ECEC1DD8B}
  9
$EXTNAMES
290
1
  9
$PSVPSCALE
 40
0.0
  9
$OLESTARTUP
290
0
  9
$SORTENTS
280
127
  9
$INDEXCTL
280
0
  9
$HIDETEXT
280
1
  9
$XCLIPFRAME
280
1
  9
$HALOGAP
280
0
  9
$OBSCOLOR
 70
257
  9
$OBSLTYPE
280
0
  9
$INTERSECTIONDISPLAY
280
0
  9
$INTERSECTIONCOLOR
 70
257
  9
$DIMASSOC
280
2
  9
$PROJECTNAME
  1

  9
$CAMERADISPLAY
290
0
  9
$LENSLENGTH
 40
50.0
  9
$CAMERAHEIGHT
 40
0.0
  9
$STEPSPERSEC
 40
24.0
  9
$STEPSIZE
 40
100.0
  9
$3DDWFPREC
 40
2.0
  9
$PSOLWIDTH
 40
0.005
  9
$PSOLHEIGHT
 40
0.08
  9
$LOFTANG1
 40
1.570796326795
  9
$LOFTANG2
 40
1.570796326795
  9
$LOFTMAG1
 40
0.0
  9
$LOFTMAG2
 40
0.0
  9
$LOFTPARAM
 70
7
  9
$LOFTNORMALS
280
1
  9
$LATITUDE
 40
37.795
  9
$LONGITUDE
 40
-122.394
  9
$NORTHDIRECTION
 40
0.0
  9
$TIMEZONE
 70
-8000
  9
$LIGHTGLYPHDISPLAY
280
1
  9
$TILEMODELIGHTSYNCH
280
1
  9
$CMATERIAL
347
20
  9
$SOLIDHIST
280
0
  9
$SHOWHIST
280
1
  9
$DWFFRAME
280
2
  9
$DGNFRAME
280
2
  9
$REALWORLDSCALE
290
1
  9
$INTERFERECOLOR
 62
256
  9
$CSHADOW
280
0
  9
$SHADOWPLANELOCATION
 40
0.0
  0
ENDSEC
  0
SECTION
  2
CLASSES
  0
CLASS
  1
ACDBDICTIONARYWDFLT
  2
AcDbDictionaryWithDefault
  3
ObjectDBX Classes
 90
0
 91
0
280
0
281
0
  0
CLASS
  1
SUN
  2
AcDbSun
  3
SCENEOE
 90
1153
 91
0
280
0
281
0
  0
CLASS
  1
VISUALSTYLE
  2
AcDbVisualStyle
  3
ObjectDBX Classes
 90
4095
 91
0
280
0
281
0
  0
CLASS
  1
MATERIAL
  2
AcDbMaterial
  3
ObjectDBX Classes
 90
1153
 91
0
280
0
281
0
  0
CLASS
  1
SCALE
  2
AcDbScale
  3
ObjectDBX Classes
 90
1153
 91
0
280
0
281
0
  0
CLASS
  1
TABLESTYLE
  2
AcDbTableStyle
  3
ObjectDBX Classes
 90
4095
 91
0
280
0
281
0
  0
CLASS
  1
MLEADERSTYLE
  2
AcDbMLeaderStyle
  3
ACDB_MLEADERSTYLE_CLASS
 90
4095
 91
0
280
0
281
0
  0
CLASS
  1
DICTIONARYVAR
  2
AcDbDictionaryVar
  3
ObjectDBX Classes
 90
0
 91
0
280
0
281
0
  0
CLASS
  1
CELLSTYLEMAP
  2
AcDbCellStyleMap
  3
ObjectDBX Classes
 90
1152
 91
0
280
0
281
0
  0
CLASS
  1
MENTALRAYRENDERSETTINGS
  2
AcDbMentalRayRenderSettings
  3
SCENEOE
 90
1024
 91
0
280
0
281
0
  0
CLASS
  1
ACDBDETAILVIEWSTYLE
  2
AcDbDetailViewStyle
  3
ObjectDBX Classes
 90
1025
 91
0
280
0
281
0
  0
CLASS
  1
ACDBSECTIONVIEWSTYLE
  2
AcDbSectionViewStyle
  3
ObjectDBX Classes
 90
1025
 91
0
280
0
281
0
  0
CLASS
  1
RASTERVARIABLES
  2
AcDbRasterVariables
  3
ISM
 90
0
 91
0
280
0
281
0
  0
CLASS
  1
ACDBPLACEHOLDER
  2
AcDbPlaceHolder
  3
ObjectDBX Classes
 90
0
 91
0
280
0
281
0
  0
CLASS
  1
LAYOUT
  2
AcDbLayout
  3
ObjectDBX Classes
 90
0
 91
0
280
0
281
0
  0
ENDSEC
  0
SECTION
  2
TABLES
  0
TABLE
  2
VPORT
  5
8
330
0
100
AcDbSymbolTable
 70
1
  0
VPORT
  5
23
330
8
100
AcDbSymbolTableRecord
100
AcDbViewportTableRecord
  2
*Active
 70
0
 10
0.0
 20
0.0
 11
1.0
 21
1.0
 12
0.0
 22
0.0
 13
0.0
 23
0.0
 14
0.5
 24
0.5
 15
0.5
 25
0.5
 16
0.0
 26
0.0
 36
1.0
 17
0.0
 27
0.0
 37
0.0
 40
1000.0
 41
1.34
 42
50.0
 43
0.0
 44
0.0
 50
0.0
 51
0.0
 71
0
 72
1000
 73
1
 74
3
 75
0
 76
0
 77
0
 78
0
281
0
 65
0
146
0.0
  0
ENDTAB
  0
TABLE
  2
LTYPE
  5
2
330
0
100
AcDbSymbolTable
 70
3
  0
LTYPE
  5
24
330
2
100
AcDbSymbolTableRecord
100
AcDbLinetypeTableRecord
  2
ByBlock
 70
0
  3

 72
65
 73
0
 40
0.0
  0
LTYPE
  5
25
330
2
100
AcDbSymbolTableRecord
100
AcDbLinetypeTableRecord
  2
ByLayer
 70
0
  3

 72
65
 73
0
 40
0.0
  0
LTYPE
  5
26
330
2
100
AcDbSymbolTableRecord
100
AcDbLinetypeTableRecord
  2
Continuous
 70
0
  3

 72
65
 73
0
 40
0.0
  0
ENDTAB
  0
TABLE
  2
LAYER
  5
1
330
0
100
AcDbSymbolTable
 70
2
  0
LAYER
  5
27
330
1
100
AcDbSymbolTableRecord
100
AcDbLayerTableRecord
  2
0
 70
0
 62
7
  6
Continuous
370
-3
390
13
347
21
  0
LAYER
  5
28
330
1
100
AcDbSymbolTableRecord
100
AcDbLayerTableRecord
  2
Defpoints
 70
0
 62
7
  6
Continuous
290
0
370
-3
390
13
347
21
  0
ENDTAB
  0
TABLE
  2
STYLE
  5
5
330
0
100
AcDbSymbolTable
 70
1
  0
STYLE
  5
29
330
5
100
AcDbSymbolTableRecord
100
AcDbTextStyleTableRecord
  2
Standard
 70
0
 40
0.0
 41
1.0
 50
0.0
 71
0
 42
2.5
  3
txt
  4

  0
ENDTAB
  0
TABLE
  2
VIEW
  5
7
330
0
100
AcDbSymbolTable
 70
0
  0
ENDTAB
  0
TABLE
  2
UCS
  5
6
330
0
100
AcDbSymbolTable
 70
0
  0
ENDTAB
  0
TABLE
  2
APPID
  5
3
330
0
100
AcDbSymbolTable
 70
3
  0
APPID
  5
2A
330
3
100
AcDbSymbolTableRecord
100
AcDbRegAppTableRecord
  2
ACAD
 70
0
  0
APPID
  5
1EF
330
3
100
AcDbSymbolTableRecord
100
AcDbRegAppTableRecord
  2
HATCHBACKGROUNDCOLOR
 70
0
  0
APPID
  5
1F0
330
3
100
AcDbSymbolTableRecord
100
AcDbRegAppTableRecord
  2
EZDXF
 70
0
  0
ENDTAB
  0
TABLE
  2
DIMSTYLE
  5
4
330
0
100
AcDbSymbolTable
 70
1
100
AcDbDimStyleTable
  0
DIMSTYLE
105
2B
330
4
100
AcDbSymbolTableRecord
100
AcDbDimStyleTableRecord
  2
Standard
 70
0
 40
1.0
 41
2.5
 42
0.625
 43
3.75
 44
1.25
 45
0.0
 46
0.0
 47
0.0
 48
0.0
 49
2.5
140
2.5
141
2.5
142
0.0
143
0.03937007874
144
1.0
145
0.0
146
1.0
147
0.625
148
0.0
 69
0
 70
0
 71
0
 72
0
 73
0
 74
0
 75
0
 76
0
 77
1
 78
8
 79
3
170
0
171
3
172
1
173
0
174
0
175
0
176
0
177
0
178
0
179
2
271
2
272
2
273
2
274
3
275
0
276
0
277
2
278
44
279
0
280
0
281
0
282
0
283
0
284
8
285
0
286
0
288
0
289
3
290
0
371
-2
372
-2
  0
ENDTAB
  0
TABLE
  2
BLOCK_RECORD
  5
9
330
0
100
AcDbSymbolTable
 70
2
  0
BLOCK_RECORD
  5
17
330
9
100
AcDbSymbolTableRecord
100
AcDbBlockTableRecord
  2
*Model_Space
340
1A
 70
0
280
1
281
0
  0
BLOCK_RECORD
  5
1B
330
9
100
AcDbSymbolTableRecord
100
AcDbBlockTableRecord
  2
*Paper_Space
340
1E
 70
0
280
1
281
0
  0
ENDTAB
  0
ENDSEC
  0
SECTION
  2
BLOCKS
  0
BLOCK
  5
18
330
17
100
AcDbEntity
  8
0
100
AcDbBlockBegin
  2
*Model_Space
 70
0
 10
0.0
 20
0.0
 30
0.0
  3
*Model_Space
  1

  0
ENDBLK
  5
19
330
17
100
AcDbEntity
  8
0
100
AcDbBlockEnd
  0
BLOCK
  5
1C
330
1B
100
AcDbEntity
  8
0
100
AcDbBlockBegin
  2
*Paper_Space
 70
0
 10
0.0
 20
0.0
 30
0.0
  3
*Paper_Space
  1

  0
ENDBLK
  5
1D
330
1B
100
AcDbEntity
  8
0
100
AcDbBlockEnd
  0
ENDSEC
  0
SECTION
  2
ENTITIES
  0
LINE
  5
2F
330
17
100
AcDbEntity
  8
0
100
AcDbLine
 10
-14.793039640670576
 20
1862.5563607985819
 30
0.0
 11
864.7265281710733
 21
1877.9084319603737
 31
0.0
  0
LINE
  5
30
330
17
100
AcDbEntity
  8
0
100
AcDbLine
 10
-3.4558464825927078
 20
1213.0489997717923
 30
0.0
 11
876.0637213291511
 21
1228.4010709335842
 31
0.0
  0
LINE
  5
31
330
17
100
AcDbEntity
  8
0
100
AcDbLine
 10
333.31141460369986
 20
1868.632546649219
 30
0.0
 11
366.1316785960041
 21
-11.639118181285767
 31
0.0
  0
LINE
  5
32
330
17
100
AcDbEntity
  8
0
100
AcDbLine
 10
864.5410104648502
 20
1888.5367342317213
 30
0.0
 11
897.5467921633775
 21
-2.363232870131128
 31
0.0
  0
LINE
  5
33
330
17
100
AcDbEntity
  8
0
100
AcDbLine
 10
7.881346675485141
 20
563.5416387450041
 30
0.0
 11
887.400914487229
 21
578.893709906796
 31
0.0
  0
LINE
  5
34
330
17
100
AcDbEntity
  8
0
100
AcDbLine
 10
882.783584910121
 20
843.4203442158835
 30
0.0
 11
823.7374611804131
 21
842.3896902924218
 31
0.0
  0
LINE
  5
35
330
17
100
AcDbEntity
  8
0
100
AcDbLine
 10
823.7374611804131
 20
842.3896902924218
 30
0.0
 11
823.119068826336
 21
877.8173645302514
 31
0.0
  0
LINE
  5
36
330
17
100
AcDbEntity
  8
0
100
AcDbLine
 10
881.6498655943132
 20
908.3710803185672
 30
0.0
 11
369.1295116204452
 21
899.4250042629203
 31
0.0
  0
LINE
  5
37
330
17
100
AcDbEntity
  8
0
100
AcDbLine
 10
339.60644975559103
 20
898.9096773011895
 30
0.0
 11
150.65885382052292
 21
895.6115847461123
 31
0.0
  0
LINE
  5
38
330
17
100
AcDbEntity
  8
0
100
AcDbLine
 10
339.9156459326295
 20
881.1958401822758
 30
0.0
 11
2.4394939596077863
 21
875.3051720378617
 31
0.0
  0
LINE
  5
39
330
17
100
AcDbEntity
  8
0
100
AcDbLine
 10
823.119068826336
 20
877.8173645302514
 30
0.0
 11
340.12177671732184
 21
869.3866154363353
 31
0.0
  0
LINE
  5
3A
330
17
100
AcDbEntity
  8
0
100
AcDbLine
 10
896.7180259553221
 20
45.11675139023282
 30
0.0
 11
910.8890956504525
 21
45.36410833186358
 31
0.0
  0
LINE
  5
3B
330
17
100
AcDbEntity
  8
0
100
AcDbLine
 10
889.2354784709908
 20
473.79160966791403
 30
0.0
 11
903.4065481661212
 21
474.0389666095448
 31
0.0
  0
LINE
  5
3C
330
17
100
AcDbEntity
  8
0
100
AcDbLine
 10
891.5029171026063
 20
343.8901374625559
 30
0.0
 11
905.6739867977367
 21
344.13749440418667
 31
0.0
  0
LINE
  5
3D
330
17
100
AcDbEntity
  8
0
100
AcDbLine
 10
894.4505873237067
 20
175.01822359558355
 30
0.0
 11
908.6216570188371
 21
175.2655805372143
 31
0.0
  0
LINE
  5
3E
330
17
100
AcDbEntity
  8
0
100
AcDbLine
 10
894.4505873237067
 20
175.01822359558355
 30
0.0
 11
891.5029171026063
 21
343.8901374625559
 31
0.0
  0
LINE
  5
3F
330
17
100
AcDbEntity
  8
0
100
AcDbLine
 10
889.2354784709908
 20
473.79160966791403
 30
0.0
 11
885.5869635819366
 21
682.8148876710782
 31
0.0
  0
LINE
  5
40
330
17
100
AcDbEntity
  8
0
100
AcDbLine
 10
897.5467921633775
 20
-2.363232870131128
 30
0.0
 11
896.7180259553221
 21
45.11675139023282
 31
0.0
  0
LINE
  5
41
330
17
100
AcDbEntity
  8
0
100
AcDbLine
 10
882.9072633809365
 20
836.3348093683173
 30
0.0
 11
864.7265281710733
 21
1877.9084319603737
 31
0.0
  0
LINE
  5
42
330
17
100
AcDbEntity
  8
0
100
AcDbLine
 10
897.0783330760642
 20
836.5821663099482
 30
0.0
 11
878.6502409245702
 21
1892.326858597134
 31
0.0
  0
LINE
  5
43
330
17
100
AcDbEntity
  8
0
100
AcDbLine
 10
150.65885382052292
 20
895.6115847461123
 30
0.0
 11
146.74236891136874
 21
1119.9868549190044
 31
0.0
  0
LINE
  5
44
330
17
100
AcDbEntity
  8
0
100
AcDbLine
 10
335.6899648464368
 20
1123.2849474740815
 30
0.0
 11
146.74236891136874
 21
1119.9868549190044
 31
0.0
  0
LINE
  5
45
330
17
100
AcDbEntity
  8
0
100
AcDbLine
 10
132.94501670161318
 20
895.3023885690739
 30
0.0
 11
129.028531792459
 21
1119.6776587419658
 31
0.0
  0
LINE
  5
46
330
17
100
AcDbEntity
  8
0
100
AcDbLine
 10
132.94501670161318
 20
895.3023885690739
 30
0.0
 11
2.130297782569278
 21
893.0190091567754
 31
0.0
  0
LINE
  5
47
330
17
100
AcDbEntity
  8
0
100
AcDbLine
 10
335.3807686693984
 20
1140.9987845929904
 30
0.0
 11
40.15015002085802
 21
1135.8455149756824
 31
0.0
  0
LINE
  5
48
330
17
100
AcDbEntity
  8
0
100
AcDbLine
 10
129.028531792459
 20
1119.6776587419658
 30
0.0
 11
-1.786187126584914
 21
1117.3942793296674
 31
0.0
  0
LINE
  5
49
330
17
100
AcDbEntity
  8
0
100
AcDbLine
 10
334.2058231966521
 20
1208.311365644859
 30
0.0
 11
335.3807686693984
 21
1140.9987845929904
 31
0.0
  0
LINE
  5
4A
330
17
100
AcDbEntity
  8
0
100
AcDbLine
 10
333.8347877842059
 20
1229.5679701875551
 30
0.0
 11
323.0541477447973
 21
1847.1904244003026
 31
0.0
  0
LINE
  5
4B
330
17
100
AcDbEntity
  8
0
100
AcDbLine
 10
352.2061741972053
 20
1868.9623559047268
 30
0.0
 11
369.1295116204452
 21
899.4250042629203
 31
0.0
  0
LINE
  5
4C
330
17
100
AcDbEntity
  8
0
100
AcDbLine
 10
335.6899648464368
 20
1123.2849474740815
 30
0.0
 11
339.60644975559103
 21
898.9096773011895
 31
0.0
  0
LINE
  5
4D
330
17
100
AcDbEntity
  8
0
100
AcDbLine
 10
339.9156459326295
 20
881.1958401822758
 30
0.0
 11
340.12177671732184
 21
869.3866154363353
 31
0.0
  0
LINE
  5
4E
330
17
100
AcDbEntity
  8
0
100
AcDbLine
 10
40.15015002085802
 20
1135.8455149756824
 30
0.0
 11
39.53175766678102
 21
1171.2731892135084
 31
0.0
  0
LINE
  5
4F
330
17
100
AcDbEntity
  8
0
100
AcDbLine
 10
22.43631290194544
 20
1135.5363187986438
 30
0.0
 11
21.817920547868443
 21
1170.96399303647
 31
0.0
  0
LINE
  5
50
330
17
100
AcDbEntity
  8
0
100
AcDbLine
 10
177.8206835921869
 20
1369.7798894124473
 30
0.0
 11
171.63676005141716
 21
1724.0566317906964
 31
0.0
  0
LINE
  5
51
330
17
100
AcDbEntity
  8
0
100
AcDbLine
 10
189.62990833812873
 20
1369.9860201971396
 30
0.0
 11
183.445984797359
 21
1724.2627625753887
 31
0.0
  0
LINE
  5
52
330
17
100
AcDbEntity
  8
0
100
AcDbLine
 10
29.926063100118675
 20
1721.5830623743886
 30
0.0
 11
325.156681748659
 21
1726.7363319916967
 31
0.0
  0
LINE
  5
53
330
17
100
AcDbEntity
  8
0
100
AcDbLine
 10
30.544455454195653
 20
1686.1553881365635
 30
0.0
 11
172.25515240549413
 21
1688.6289575528713
 31
0.0
  0
LINE
  5
54
330
17
100
AcDbEntity
  8
0
100
AcDbLine
 10
31.162847808272627
 20
1650.7277138987388
 30
0.0
 11
172.8735447595711
 21
1653.2012833150466
 31
0.0
  0
LINE
  5
55
330
17
100
AcDbEntity
  8
0
100
AcDbLine
 10
31.781240162349583
 20
1615.300039660915
 30
0.0
 11
173.49193711364805
 21
1617.7736090772228
 31
0.0
  0
LINE
  5
56
330
17
100
AcDbEntity
  8
0
100
AcDbLine
 10
32.39963251642662
 20
1579.8723654230866
 30
0.0
 11
174.11032946772508
 21
1582.3459348393944
 31
0.0
  0
LINE
  5
57
330
17
100
AcDbEntity
  8
0
100
AcDbLine
 10
33.01802487050355
 20
1544.4446911852642
 30
0.0
 11
174.72872182180203
 21
1546.918260601572
 31
0.0
  0
LINE
  5
58
330
17
100
AcDbEntity
  8
0
100
AcDbLine
 10
33.636417224580526
 20
1509.017016947439
 30
0.0
 11
104.49176570023027
 21
1510.253801655593
 31
0.0
  0
LINE
  5
59
330
17
100
AcDbEntity
  8
0
100
AcDbLine
 10
36.10998664088843
 20
1367.3063199961396
 30
0.0
 11
331.3406052894288
 21
1372.4595896134476
 31
0.0
  0
LINE
  5
5A
330
17
100
AcDbEntity
  8
0
100
AcDbLine
 10
39.53175766678102
 20
1171.2731892135084
 30
0.0
 11
21.817920547868443
 21
1170.96399303647
 31
0.0
  0
LINE
  5
5B
330
17
100
AcDbEntity
  8
0
100
AcDbLine
 10
37.058188250473094
 20
1312.9838861648095
 30
0.0
 11
19.34435113156052
 21
1312.6746899877708
 31
0.0
  0
LINE
  5
5C
330
17
100
AcDbEntity
  8
0
100
AcDbLine
 10
19.34435113156052
 20
1312.6746899877708
 30
0.0
 11
9.738656564898202
 21
1862.9845631486494
 31
0.0
  0
LINE
  5
5D
330
17
100
AcDbEntity
  8
0
100
AcDbLine
 10
37.058188250473094
 20
1312.9838861648095
 30
0.0
 11
27.45249368381078
 21
1863.293759325688
 31
0.0
  0
LINE
  5
5E
330
17
100
AcDbEntity
  8
0
100
AcDbLine
 10
22.43631290194544
 20
1135.5363187986438
 30
0.0
 11
-2.0953833036233394
 21
1135.1081164485763
 31
0.0
  0
LINE
  5
5F
330
17
100
AcDbEntity
  8
0
100
AcDbLine
 10
184.06437715143596
 20
1688.8350883375638
 30
0.0
 11
325.775074102736
 21
1691.3086577538716
 31
0.0
  0
LINE
  5
60
330
17
100
AcDbEntity
  8
0
100
AcDbLine
 10
184.68276950551294
 20
1653.4074140997388
 30
0.0
 11
326.393466456813
 21
1655.8809835160469
 31
0.0
  0
LINE
  5
61
330
17
100
AcDbEntity
  8
0
100
AcDbLine
 10
185.30116185958988
 20
1617.979739861915
 30
0.0
 11
327.01185881089
 21
1620.453309278223
 31
0.0
  0
LINE
  5
62
330
17
100
AcDbEntity
  8
0
100
AcDbLine
 10
185.9195542136669
 20
1582.552065624087
 30
0.0
 11
327.630251164967
 21
1585.0256350403947
 31
0.0
  0
LINE
  5
63
330
17
100
AcDbEntity
  8
0
100
AcDbLine
 10
186.53794656774386
 20
1547.1243913862643
 30
0.0
 11
328.2486435190439
 21
1549.5979608025723
 31
0.0
  0
LINE
  5
64
330
17
100
AcDbEntity
  8
0
100
AcDbLine
 10
187.15633892182083
 20
1511.6967171484393
 30
0.0
 11
328.8670358731209
 21
1514.1702865647471
 31
0.0
  0
LINE
  5
65
330
17
100
AcDbEntity
  8
0
100
AcDbLine
 10
187.7747312758978
 20
1476.2690429106142
 30
0.0
 11
329.4854282271979
 21
1478.7426123269222
 31
0.0
  0
LINE
  5
66
330
17
100
AcDbEntity
  8
0
100
AcDbLine
 10
188.39312362997475
 20
1440.8413686727906
 30
0.0
 11
330.1038205812748
 21
1443.3149380890986
 31
0.0
  0
LINE
  5
67
330
17
100
AcDbEntity
  8
0
100
AcDbLine
 10
189.01151598405178
 20
1405.4136944349625
 30
0.0
 11
330.7222129353519
 21
1407.8872638512703
 31
0.0
  0
LINE
  5
68
330
17
100
AcDbEntity
  8
0
100
AcDbLine
 10
260.485256813777
 20
1371.2228049052935
 30
0.0
 11
254.30133327300726
 21
1725.4995472835426
 31
0.0
  0
LINE
  5
69
330
17
100
AcDbEntity
  8
0
100
AcDbLine
 10
277.8643049856255
 20
1702.7450499995716
 30
0.0
 11
254.30133327300726
 21
1725.4995472835426
 31
0.0
  0
LINE
  5
6A
330
17
100
AcDbEntity
  8
0
100
AcDbLine
 10
231.54683598903924
 20
1701.9365755709255
 30
0.0
 11
254.30133327300726
 21
1725.4995472835426
 31
0.0
  0
LINE
  5
6B
330
17
100
AcDbEntity
  8
0
100
AcDbLine
 10
100.78141157576843
 20
1722.8198470825423
 30
0.0
 11
104.49176570023027
 21
1510.253801655593
 31
0.0
  0
LINE
  5
6C
330
17
100
AcDbEntity
  8
0
100
AcDbLine
 10
80.92879398761237
 20
1533.0082989395635
 30
0.0
 11
104.49176570023027
 21
1510.253801655593
 31
0.0
  0
LINE
  5
6D
330
17
100
AcDbEntity
  8
0
100
AcDbLine
 10
127.24626298419876
 20
1533.8167733682096
 30
0.0
 11
104.49176570023027
 21
1510.253801655593
 31
0.0
  0
LINE
  5
6E
330
17
100
AcDbEntity
  8
0
100
AcDbLine
 10
34.2548095786575
 20
1473.5893427096141
 30
0.0
 11
174.72872182180203
 21
1546.918260601572
 31
0.0
  0
LINE
  5
6F
330
17
100
AcDbEntity
  8
0
100
AcDbLine
 10
-14.793039640670576
 20
1862.5563607985819
 30
0.0
 11
157.35396588917118
 21
1865.5611979573036
 31
0.0
  0
LINE
  5
70
330
17
100
AcDbEntity
  8
0
100
AcDbLine
 10
-15.040396582301362
 20
1876.7274304937114
 30
0.0
 11
165.37306626969587
 21
1879.8765592017176
 31
0.0
  0
LINE
  5
71
330
17
100
AcDbEntity
  8
0
100
AcDbLine
 10
367.55816636692964
 20
1869.230325924827
 30
0.0
 11
367.3108094252989
 21
1883.4013956199565
 31
0.0
  0
LINE
  5
72
330
17
100
AcDbEntity
  8
0
100
AcDbLine
 10
509.2688633182279
 20
1871.7038953411347
 30
0.0
 11
509.02150637659713
 21
1885.8749650362643
 31
0.0
  0
LINE
  5
73
330
17
100
AcDbEntity
  8
0
100
AcDbLine
 10
509.02150637659713
 20
1885.8749650362643
 30
0.0
 11
878.6502409245702
 21
1892.326858597134
 31
0.0
  0
LINE
  5
74
330
17
100
AcDbEntity
  8
0
100
AcDbLine
 10
509.2688633182279
 20
1871.7038953411347
 30
0.0
 11
864.7265281710733
 21
1877.9084319603737
 31
0.0
  0
LINE
  5
75
330
17
100
AcDbEntity
  8
0
100
AcDbLine
 10
263.6369886026433
 20
1867.4163750195344
 30
0.0
 11
263.3896316610126
 21
1881.587444714664
 31
0.0
  0
LINE
  5
76
330
17
100
AcDbEntity
  8
0
100
AcDbLine
 10
157.35396588917118
 20
1865.5611979573036
 30
0.0
 11
157.1066089475404
 21
1879.7322676524332
 31
0.0
  0
LINE
  5
77
330
17
100
AcDbEntity
  8
0
100
AcDbLine
 10
263.6369886026433
 20
1867.4163750195344
 30
0.0
 11
367.55816636692964
 21
1869.230325924827
 31
0.0
  0
LINE
  5
78
330
17
100
AcDbEntity
  8
0
100
AcDbLine
 10
543.2123959062695
 20
1957.3487058659914
 30
0.0
 11
948.2688046920684
 21
1964.418991780938
 31
0.0
  0
LINE
  5
79
330
17
100
AcDbEntity
  8
0
100
AcDbLine
 10
982.5732103341575
 20
-0.8790912203463677
 30
0.0
 11
971.1287087144474
 21
654.775967456009
 31
0.0
  0
LINE
  5
7A
330
17
100
AcDbEntity
  8
0
100
AcDbLine
 10
882.9072633809365
 20
836.3348093683173
 30
0.0
 11
897.0783330760642
 21
836.5821663099482
 31
0.0
  0
LINE
  5
7B
330
17
100
AcDbEntity
  8
0
100
AcDbLine
 10
885.5869635819366
 20
682.8148876710782
 30
0.0
 11
899.7580332770643
 21
683.0622446127089
 31
0.0
  0
LINE
  5
7C
330
17
100
AcDbEntity
  8
0
100
AcDbLine
 10
897.0783330760642
 20
836.5821663099482
 30
0.0
 11
899.7580332770643
 21
683.0622446127089
 31
0.0
  0
LINE
  5
7D
330
17
100
AcDbEntity
  8
0
100
AcDbLine
 10
1146.4119028413375
 20
764.1509519398699
 30
0.0
 11
1075.5565543656878
 21
762.914167231716
 31
0.0
  0
LINE
  5
7E
330
17
100
AcDbEntity
  8
0
100
AcDbLine
 10
1099.1195260783072
 20
740.1596699477439
 30
0.0
 11
1075.5565543656878
 21
762.914167231716
 31
0.0
  0
LINE
  5
7F
330
17
100
AcDbEntity
  8
0
100
AcDbLine
 10
1098.311051649661
 20
786.4771389443267
 30
0.0
 11
1075.5565543656878
 21
762.914167231716
 31
0.0
  0
LINE
  5
80
330
17
100
AcDbEntity
  8
0
100
AcDbLine
 10
1073.701377303457
 20
869.1971899451878
 30
0.0
 11
1077.4117314279188
 21
656.6311445182398
 31
0.0
  0
LINE
  5
81
330
17
100
AcDbEntity
  8
0
100
AcDbLine
 10
1109.1290515412838
 20
869.8155822992649
 30
0.0
 11
1112.8394056657455
 21
657.2495368723169
 31
0.0
  0
LINE
  5
82
330
17
100
AcDbEntity
  8
0
100
AcDbLine
 10
1144.5567257791104
 20
870.4339746533419
 30
0.0
 11
1148.267079903572
 21
657.8679292263939
 31
0.0
  0
LINE
  5
83
330
17
100
AcDbEntity
  8
0
100
AcDbLine
 10
967.4183545899855
 20
867.3420128829571
 30
0.0
 11
948.2688046920684
 21
1964.418991780938
 31
0.0
  0
LINE
  5
84
330
17
100
AcDbEntity
  8
0
100
AcDbLine
 10
8.771911093773152
 20
1241.6132107274252
 30
0.0
 11
50.10419770456872
 21
1242.3346684738483
 31
0.0
  0
LINE
  5
85
330
17
100
AcDbEntity
  8
0
100
AcDbLine
 10
437.96002711625516
 20
1896.4474050740523
 30
0.0
 11
438.6196456272706
 21
1858.6578858870403
 31
0.0
  0
LINE
  5
86
330
17
100
AcDbEntity
  8
0
100
AcDbLine
 10
911.7178618585052
 20
-2.1158759285003725
 30
0.0
 11
910.7448041011653
 21
53.63056565401541
 31
0.0
  0
LINE
  5
87
330
17
100
AcDbEntity
  8
0
100
AcDbLine
 10
908.765948568119
 20
166.99912321505292
 30
0.0
 11
905.5296952484493
 21
352.4039517263458
 31
0.0
  0
LINE
  5
88
330
17
100
AcDbEntity
  8
0
100
AcDbLine
 10
902.7170446458649
 20
175.16251514486817
 30
0.0
 11
902.8613361951495
 21
166.89605782270678
 31
0.0
  0
LINE
  5
89
330
17
100
AcDbEntity
  8
0
100
AcDbLine
 10
902.8613361951495
 20
166.89605782270678
 30
0.0
 11
908.765948568119
 21
166.99912321505292
 31
0.0
  0
LINE
  5
8A
330
17
100
AcDbEntity
  8
0
100
AcDbLine
 10
908.765948568119
 20
166.99912321505292
 30
0.0
 11
908.765948568119
 21
166.99912321505292
 31
0.0
  0
LINE
  5
8B
330
17
100
AcDbEntity
  8
0
100
AcDbLine
 10
902.8613361951495
 20
166.89605782270678
 30
0.0
 11
904.8401917281958
 21
53.527500261669275
 31
0.0
  0
LINE
  5
8C
330
17
100
AcDbEntity
  8
0
100
AcDbLine
 10
904.8401917281958
 20
53.527500261669275
 30
0.0
 11
907.7924979146826
 21
53.5790329578424
 31
0.0
  0
LINE
  5
8D
330
17
100
AcDbEntity
  8
0
100
AcDbLine
 10
907.7924979146826
 20
53.5790329578424
 30
0.0
 11
905.8136423816363
 21
166.9475905188799
 31
0.0
  0
LINE
  5
8E
330
17
100
AcDbEntity
  8
0
100
AcDbLine
 10
905.8136423816363
 20
166.9475905188799
 30
0.0
 11
902.8613361951495
 21
166.89605782270678
 31
0.0
  0
LINE
  5
8F
330
17
100
AcDbEntity
  8
0
100
AcDbLine
 10
902.8613361951495
 20
166.89605782270678
 30
0.0
 11
902.8613361951495
 21
166.89605782270678
 31
0.0
  0
LINE
  5
90
330
17
100
AcDbEntity
  8
0
100
AcDbLine
 10
910.7448041011653
 20
53.63056565401541
 30
0.0
 11
904.8401917281958
 21
53.527500261669275
 31
0.0
  0
LINE
  5
91
330
17
100
AcDbEntity
  8
0
100
AcDbLine
 10
904.8401917281958
 20
53.527500261669275
 30
0.0
 11
904.9844832774804
 21
45.26104293950789
 31
0.0
  0
LINE
  5
92
330
17
100
AcDbEntity
  8
0
100
AcDbLine
 10
910.8890956504499
 20
45.36410833185403
 30
0.0
 11
910.8890956504499
 21
45.36410833185403
 31
0.0
  0
LINE
  5
93
330
17
100
AcDbEntity
  8
0
100
AcDbLine
 10
897.6462273424336
 20
465.6694438950408
 30
0.0
 11
899.6250828754798
 21
352.30088633399964
 31
0.0
  0
LINE
  5
94
330
17
100
AcDbEntity
  8
0
100
AcDbLine
 10
899.6250828754798
 20
352.30088633399964
 30
0.0
 11
902.5773890619666
 21
352.35241903017277
 31
0.0
  0
LINE
  5
95
330
17
100
AcDbEntity
  8
0
100
AcDbLine
 10
902.5773890619666
 20
352.35241903017277
 30
0.0
 11
900.5985335289204
 21
465.7209765912139
 31
0.0
  0
LINE
  5
96
330
17
100
AcDbEntity
  8
0
100
AcDbLine
 10
900.5985335289204
 20
465.7209765912139
 30
0.0
 11
897.6462273424336
 21
465.6694438950408
 31
0.0
  0
LINE
  5
97
330
17
100
AcDbEntity
  8
0
100
AcDbLine
 10
897.6462273424336
 20
465.6694438950408
 30
0.0
 11
897.6462273424336
 21
465.6694438950408
 31
0.0
  0
LINE
  5
98
330
17
100
AcDbEntity
  8
0
100
AcDbLine
 10
903.5508397154031
 20
465.7725092873869
 30
0.0
 11
899.7580332770643
 21
683.0622446127089
 31
0.0
  0
LINE
  5
99
330
17
100
AcDbEntity
  8
0
100
AcDbLine
 10
897.501935793149
 20
473.93590121719865
 30
0.0
 11
897.6462273424336
 21
465.6694438950408
 31
0.0
  0
LINE
  5
9A
330
17
100
AcDbEntity
  8
0
100
AcDbLine
 10
897.6462273424336
 20
465.6694438950408
 30
0.0
 11
903.5508397154031
 21
465.7725092873869
 31
0.0
  0
LINE
  5
9B
330
17
100
AcDbEntity
  8
0
100
AcDbLine
 10
903.5508397154031
 20
465.7725092873869
 30
0.0
 11
903.5508397154031
 21
465.7725092873869
 31
0.0
  0
LINE
  5
9C
330
17
100
AcDbEntity
  8
0
100
AcDbLine
 10
905.5296952484493
 20
352.4039517263458
 30
0.0
 11
899.6250828754798
 21
352.30088633399964
 31
0.0
  0
LINE
  5
9D
330
17
100
AcDbEntity
  8
0
100
AcDbLine
 10
899.6250828754798
 20
352.30088633399964
 30
0.0
 11
899.7693744247645
 21
344.03442901184053
 31
0.0
  0
LINE
  5
9E
330
17
100
AcDbEntity
  8
0
100
AcDbLine
 10
905.673986797734
 20
344.13749440418667
 30
0.0
 11
905.673986797734
 21
344.13749440418667
 31
0.0
  0
LINE
  5
9F
330
17
100
AcDbEntity
  8
0
100
AcDbLine
 10
897.0783330760642
 20
836.5821663099482
 30
0.0
 11
973.5435874427694
 21
762.740528505253
 31
0.0
  0
LINE
  5
A0
330
17
100
AcDbEntity
  8
0
100
AcDbLine
 10
899.7580332770643
 20
683.0622446127089
 30
0.0
 11
932.5765389680422
 21
717.0468021090212
 31
0.0
  0
LINE
  5
A1
330
17
100
AcDbEntity
  8
0
100
AcDbLine
 10
367.3108094252989
 20
1883.4013956199565
 30
0.0
 11
509.02150637659713
 21
1885.8749650362643
 31
0.0
  0
LINE
  5
A2
330
17
100
AcDbEntity
  8
0
100
AcDbLine
 10
509.02150637659713
 20
1885.8749650362643
 30
0.0
 11
509.2688633182279
 21
1871.7038953411347
 31
0.0
  0
LINE
  5
A3
330
17
100
AcDbEntity
  8
0
100
AcDbLine
 10
509.2688633182279
 20
1871.7038953411347
 30
0.0
 11
367.55816636692964
 21
1869.230325924827
 31
0.0
  0
LINE
  5
A4
330
17
100
AcDbEntity
  8
0
100
AcDbLine
 10
367.55816636692964
 20
1869.230325924827
 30
0.0
 11
367.3108094252989
 21
1883.4013956199565
 31
0.0
  0
LINE
  5
A5
330
17
100
AcDbEntity
  8
0
100
AcDbLine
 10
367.3108094252989
 20
1883.4013956199565
 30
0.0
 11
367.3108094252989
 21
1883.4013956199565
 31
0.0
  0
LINE
  5
A6
330
17
100
AcDbEntity
  8
0
100
AcDbLine
 10
19.34435113156052
 20
1312.6746899877708
 30
0.0
 11
21.817920547868443
 21
1170.96399303647
 31
0.0
  0
LINE
  5
A7
330
17
100
AcDbEntity
  8
0
100
AcDbLine
 10
21.817920547868443
 20
1170.96399303647
 30
0.0
 11
39.53175766678102
 21
1171.2731892135084
 31
0.0
  0
LINE
  5
A8
330
17
100
AcDbEntity
  8
0
100
AcDbLine
 10
39.53175766678102
 20
1171.2731892135084
 30
0.0
 11
37.058188250473094
 21
1312.9838861648095
 31
0.0
  0
LINE
  5
A9
330
17
100
AcDbEntity
  8
0
100
AcDbLine
 10
37.058188250473094
 20
1312.9838861648095
 30
0.0
 11
19.34435113156052
 21
1312.6746899877708
 31
0.0
  0
LINE
  5
AA
330
17
100
AcDbEntity
  8
0
100
AcDbLine
 10
19.34435113156052
 20
1312.6746899877708
 30
0.0
 11
19.34435113156052
 21
1312.6746899877708
 31
0.0
  0
LINE
  5
AB
330
17
100
AcDbEntity
  8
0
100
AcDbLine
 10
894.4505873237067
 20
175.01822359558355
 30
0.0
 11
908.6216570188344
 21
175.2655805372143
 31
0.0
  0
LINE
  5
AC
330
17
100
AcDbEntity
  8
0
100
AcDbLine
 10
908.6216570188344
 20
175.2655805372143
 30
0.0
 11
910.8890956504499
 21
45.36410833185403
 31
0.0
  0
LINE
  5
AD
330
17
100
AcDbEntity
  8
0
100
AcDbLine
 10
910.8890956504499
 20
45.36410833185403
 30
0.0
 11
896.7180259553222
 21
45.11675139022327
 31
0.0
  0
LINE
  5
AE
330
17
100
AcDbEntity
  8
0
100
AcDbLine
 10
896.7180259553222
 20
45.11675139022327
 30
0.0
 11
894.4505873237067
 21
175.01822359558355
 31
0.0
  0
LINE
  5
AF
330
17
100
AcDbEntity
  8
0
100
AcDbLine
 10
894.4505873237067
 20
175.01822359558355
 30
0.0
 11
894.4505873237067
 21
175.01822359558355
 31
0.0
  0
LINE
  5
B0
330
17
100
AcDbEntity
  8
0
100
AcDbLine
 10
889.2354784709908
 20
473.79160966791403
 30
0.0
 11
903.4065481661185
 21
474.0389666095448
 31
0.0
  0
LINE
  5
B1
330
17
100
AcDbEntity
  8
0
100
AcDbLine
 10
903.4065481661185
 20
474.0389666095448
 30
0.0
 11
905.673986797734
 21
344.13749440418667
 31
0.0
  0
LINE
  5
B2
330
17
100
AcDbEntity
  8
0
100
AcDbLine
 10
905.673986797734
 20
344.13749440418667
 30
0.0
 11
891.5029171026063
 21
343.8901374625559
 31
0.0
  0
LINE
  5
B3
330
17
100
AcDbEntity
  8
0
100
AcDbLine
 10
891.5029171026063
 20
343.8901374625559
 30
0.0
 11
889.2354784709908
 21
473.79160966791403
 31
0.0
  0
LINE
  5
B4
330
17
100
AcDbEntity
  8
0
100
AcDbLine
 10
889.2354784709908
 20
473.79160966791403
 30
0.0
 11
889.2354784709908
 21
473.79160966791403
 31
0.0
  0
LINE
  5
B5
330
17
100
AcDbEntity
  8
0
100
AcDbLine
 10
900.2733602387951
 20
653.539182747855
 30
0.0
 11
1148.267079903572
 21
657.8679292263939
 31
0.0
  0
LINE
  5
B6
330
17
100
AcDbEntity
  8
0
100
AcDbLine
 10
1077.4117314279188
 20
656.6311445182398
 30
0.0
 11
1073.701377303457
 21
869.1971899451878
 31
0.0
  0
LINE
  5
B7
330
17
100
AcDbEntity
  8
0
100
AcDbLine
 10
1144.5567257791104
 20
870.4339746533419
 30
0.0
 11
896.5630061143332
 21
866.105228174803
 31
0.0
  0
LINE
  5
B8
330
17
100
AcDbEntity
  8
0
100
AcDbLine
 10
161.54037471088242
 20
1997.9378870434316
 30
0.0
 11
179.2542118297926
 21
1998.24708322047
 31
0.0
  0
LINE
  5
B9
330
17
100
AcDbEntity
  8
0
100
AcDbLine
 10
179.2542118297926
 20
1998.24708322047
 30
0.0
 11
179.5634080068311
 21
1980.5332461015564
 31
0.0
  0
LINE
  5
BA
330
17
100
AcDbEntity
  8
0
100
AcDbLine
 10
179.5634080068311
 20
1980.5332461015564
 30
0.0
 11
161.84957088792092
 21
1980.2240499245179
 31
0.0
  0
LINE
  5
BB
330
17
100
AcDbEntity
  8
0
100
AcDbLine
 10
161.84957088792092
 20
1980.2240499245179
 30
0.0
 11
161.54037471088242
 21
1997.9378870434316
 31
0.0
  0
LINE
  5
BC
330
17
100
AcDbEntity
  8
0
100
AcDbLine
 10
161.54037471088242
 20
1997.9378870434316
 30
0.0
 11
161.54037471088242
 21
1997.9378870434316
 31
0.0
  0
LINE
  5
BD
330
17
100
AcDbEntity
  8
0
100
AcDbLine
 10
518.7694232756146
 20
2004.1733432803744
 30
0.0
 11
501.0555861567057
 21
2003.8641471033359
 31
0.0
  0
LINE
  5
BE
330
17
100
AcDbEntity
  8
0
100
AcDbLine
 10
501.0555861567057
 20
2003.8641471033359
 30
0.0
 11
501.36478233374424
 21
1986.1503099844222
 31
0.0
  0
LINE
  5
BF
330
17
100
AcDbEntity
  8
0
100
AcDbLine
 10
501.36478233374424
 20
1986.1503099844222
 30
0.0
 11
519.078619452653
 21
1986.4595061614607
 31
0.0
  0
LINE
  5
C0
330
17
100
AcDbEntity
  8
0
100
AcDbLine
 10
519.078619452653
 20
1986.4595061614607
 30
0.0
 11
518.7694232756146
 21
2004.1733432803744
 31
0.0
  0
LINE
  5
C1
330
17
100
AcDbEntity
  8
0
100
AcDbLine
 10
518.7694232756146
 20
2004.1733432803744
 30
0.0
 11
518.7694232756146
 21
2004.1733432803744
 31
0.0
  0
LINE
  5
C2
330
17
100
AcDbEntity
  8
0
100
AcDbLine
 10
157.35396588917118
 20
1865.5611979573036
 30
0.0
 11
157.1066089475404
 21
1879.7322676524332
 31
0.0
  0
LINE
  5
C3
330
17
100
AcDbEntity
  8
0
100
AcDbLine
 10
157.1066089475404
 20
1879.7322676524332
 30
0.0
 11
263.3896316610126
 21
1881.587444714664
 31
0.0
  0
LINE
  5
C4
330
17
100
AcDbEntity
  8
0
100
AcDbLine
 10
263.3896316610126
 20
1881.587444714664
 30
0.0
 11
263.6369886026433
 21
1867.4163750195344
 31
0.0
  0
LINE
  5
C5
330
17
100
AcDbEntity
  8
0
100
AcDbLine
 10
263.6369886026433
 20
1867.4163750195344
 30
0.0
 11
157.35396588917118
 21
1865.5611979573036
 31
0.0
  0
LINE
  5
C6
330
17
100
AcDbEntity
  8
0
100
AcDbLine
 10
157.35396588917118
 20
1865.5611979573036
 30
0.0
 11
157.35396588917118
 21
1865.5611979573036
 31
0.0
  0
LINE
  5
C7
330
17
100
AcDbEntity
  8
0
100
AcDbLine
 10
-17.51396599860929
 20
2018.4381274450127
 30
0.0
 11
541.9756111981156
 21
2028.2040543416424
 31
0.0
  0
LINE
  5
C8
330
17
100
AcDbEntity
  8
0
100
AcDbLine
 10
541.9756111981156
 20
2028.2040543416424
 30
0.0
 11
544.4491806144235
 21
1886.4933573903393
 31
0.0
  0
LINE
  5
C9
330
17
100
AcDbEntity
  8
0
100
AcDbLine
 10
865.95879223831
 20
589.1509767656945
 30
0.0
 11
887.2153967810059
 21
589.5220121781407
 31
0.0
  0
LINE
  5
CA
330
17
100
AcDbEntity
  8
0
100
AcDbLine
 10
887.2153967810059
 20
589.5220121781407
 30
0.0
 11
887.5864321934521
 21
568.2654076354484
 31
0.0
  0
LINE
  5
CB
330
17
100
AcDbEntity
  8
0
100
AcDbLine
 10
887.5864321934521
 20
568.2654076354484
 30
0.0
 11
866.3298276507561
 21
567.8943722230022
 31
0.0
  0
LINE
  5
CC
330
17
100
AcDbEntity
  8
0
100
AcDbLine
 10
866.3298276507561
 20
567.8943722230022
 30
0.0
 11
865.95879223831
 21
589.1509767656945
 31
0.0
  0
LINE
  5
CD
330
17
100
AcDbEntity
  8
0
100
AcDbLine
 10
865.95879223831
 20
589.1509767656945
 30
0.0
 11
865.95879223831
 21
589.1509767656945
 31
0.0
  0
LINE
  5
CE
330
17
100
AcDbEntity
  8
0
100
AcDbLine
 10
345.1719809422838
 20
580.060609160763
 30
0.0
 11
366.42858548497674
 21
580.4316445732092
 31
0.0
  0
LINE
  5
CF
330
17
100
AcDbEntity
  8
0
100
AcDbLine
 10
366.42858548497674
 20
580.4316445732092
 30
0.0
 11
366.79962089742287
 21
559.1750400305168
 31
0.0
  0
LINE
  5
D0
330
17
100
AcDbEntity
  8
0
100
AcDbLine
 10
366.79962089742287
 20
559.1750400305168
 30
0.0
 11
345.54301635472996
 21
558.8040046180706
 31
0.0
  0
LINE
  5
D1
330
17
100
AcDbEntity
  8
0
100
AcDbLine
 10
345.54301635472996
 20
558.8040046180706
 30
0.0
 11
345.1719809422838
 21
580.060609160763
 31
0.0
  0
LINE
  5
D2
330
17
100
AcDbEntity
  8
0
100
AcDbLine
 10
345.1719809422838
 20
580.060609160763
 30
0.0
 11
345.1719809422838
 21
580.060609160763
 31
0.0
  0
LINE
  5
D3
330
17
100
AcDbEntity
  8
0
100
AcDbLine
 10
854.621599080232
 20
1238.6583377924867
 30
0.0
 11
875.878203622928
 21
1239.0293732049329
 31
0.0
  0
LINE
  5
D4
330
17
100
AcDbEntity
  8
0
100
AcDbLine
 10
875.878203622928
 20
1239.0293732049329
 30
0.0
 11
876.2492390353742
 21
1217.7727686622366
 31
0.0
  0
LINE
  5
D5
330
17
100
AcDbEntity
  8
0
100
AcDbLine
 10
876.2492390353742
 20
1217.7727686622366
 30
0.0
 11
854.9926344926782
 21
1217.4017332497906
 31
0.0
  0
LINE
  5
D6
330
17
100
AcDbEntity
  8
0
100
AcDbLine
 10
854.9926344926782
 20
1217.4017332497906
 30
0.0
 11
854.621599080232
 21
1238.6583377924867
 31
0.0
  0
LINE
  5
D7
330
17
100
AcDbEntity
  8
0
100
AcDbLine
 10
854.621599080232
 20
1238.6583377924867
 30
0.0
 11
854.621599080232
 21
1238.6583377924867
 31
0.0
  0
LINE
  5
D8
330
17
100
AcDbEntity
  8
0
100
AcDbLine
 10
843.4699236283773
 20
1877.5373965479275
 30
0.0
 11
864.7265281710733
 21
1877.9084319603737
 31
0.0
  0
LINE
  5
D9
330
17
100
AcDbEntity
  8
0
100
AcDbLine
 10
864.7265281710733
 20
1877.9084319603737
 30
0.0
 11
865.0975635835194
 21
1856.6518274176801
 31
0.0
  0
LINE
  5
DA
330
17
100
AcDbEntity
  8
0
100
AcDbLine
 10
865.0975635835194
 20
1856.6518274176801
 30
0.0
 11
843.8409590408235
 21
1856.2807920052342
 31
0.0
  0
LINE
  5
DB
330
17
100
AcDbEntity
  8
0
100
AcDbLine
 10
843.8409590408235
 20
1856.2807920052342
 30
0.0
 11
843.4699236283773
 21
1877.5373965479275
 31
0.0
  0
LINE
  5
DC
330
17
100
AcDbEntity
  8
0
100
AcDbLine
 10
843.4699236283773
 20
1877.5373965479275
 30
0.0
 11
843.4699236283773
 21
1877.5373965479275
 31
0.0
  0
LINE
  5
DD
330
17
100
AcDbEntity
  8
0
100
AcDbLine
 10
333.8347877842059
 20
1229.5679701875551
 30
0.0
 11
355.0913923268988
 21
1229.9390056000013
 31
0.0
  0
LINE
  5
DE
330
17
100
AcDbEntity
  8
0
100
AcDbLine
 10
355.0913923268988
 20
1229.9390056000013
 30
0.0
 11
355.462427739345
 21
1208.682401057305
 31
0.0
  0
LINE
  5
DF
330
17
100
AcDbEntity
  8
0
100
AcDbLine
 10
355.462427739345
 20
1208.682401057305
 30
0.0
 11
334.2058231966521
 21
1208.311365644859
 31
0.0
  0
LINE
  5
E0
330
17
100
AcDbEntity
  8
0
100
AcDbLine
 10
334.2058231966521
 20
1208.311365644859
 30
0.0
 11
333.8347877842059
 21
1229.5679701875551
 31
0.0
  0
LINE
  5
E1
330
17
100
AcDbEntity
  8
0
100
AcDbLine
 10
333.8347877842059
 20
1229.5679701875551
 30
0.0
 11
333.8347877842059
 21
1229.5679701875551
 31
0.0
  0
LINE
  5
E2
330
17
100
AcDbEntity
  8
0
100
AcDbLine
 10
322.68311233235113
 20
1868.447028942996
 30
0.0
 11
343.93971687504404
 21
1868.8180643554422
 31
0.0
  0
LINE
  5
E3
330
17
100
AcDbEntity
  8
0
100
AcDbLine
 10
343.93971687504404
 20
1868.8180643554422
 30
0.0
 11
344.31075228749023
 21
1847.5614598127486
 31
0.0
  0
LINE
  5
E4
330
17
100
AcDbEntity
  8
0
100
AcDbLine
 10
344.31075228749023
 20
1847.5614598127486
 30
0.0
 11
323.0541477447973
 21
1847.1904244003026
 31
0.0
  0
LINE
  5
E5
330
17
100
AcDbEntity
  8
0
100
AcDbLine
 10
323.0541477447973
 20
1847.1904244003026
 30
0.0
 11
322.68311233235113
 21
1868.447028942996
 31
0.0
  0
LINE
  5
E6
330
17
100
AcDbEntity
  8
0
100
AcDbLine
 10
322.68311233235113
 20
1868.447028942996
 30
0.0
 11
322.68311233235113
 21
1868.447028942996
 31
0.0
  0
LINE
  5
E7
330
17
100
AcDbEntity
  8
0
100
AcDbLine
 10
255.12317433885482
 20
1881.4431531653795
 30
0.0
 11
367.3108094252989
 21
1883.4013956199565
 31
0.0
  0
LINE
  5
E8
330
17
100
AcDbEntity
  8
0
100
AcDbLine
 10
263.4926970533587
 20
1875.6828323416948
 30
0.0
 11
255.22623973120096
 21
1875.5385407924102
 31
0.0
  0
LINE
  5
E9
330
17
100
AcDbEntity
  8
0
100
AcDbLine
 10
255.22623973120096
 20
1875.5385407924102
 30
0.0
 11
255.12317433885482
 21
1881.4431531653795
 31
0.0
  0
LINE
  5
EA
330
17
100
AcDbEntity
  8
0
100
AcDbLine
 10
255.12317433885482
 20
1881.4431531653795
 30
0.0
 11
255.12317433885482
 21
1881.4431531653795
 31
0.0
  0
LINE
  5
EB
330
17
100
AcDbEntity
  8
0
100
AcDbLine
 10
255.17470703502786
 20
1878.4908469788957
 30
0.0
 11
165.4245989658689
 21
1876.9242530152337
 31
0.0
  0
LINE
  5
EC
330
17
100
AcDbEntity
  8
0
100
AcDbLine
 10
165.4245989658689
 20
1876.9242530152337
 30
0.0
 11
165.476131662042
 21
1873.9719468287485
 31
0.0
  0
LINE
  5
ED
330
17
100
AcDbEntity
  8
0
100
AcDbLine
 10
165.476131662042
 20
1873.9719468287485
 30
0.0
 11
255.22623973120096
 21
1875.5385407924102
 31
0.0
  0
LINE
  5
EE
330
17
100
AcDbEntity
  8
0
100
AcDbLine
 10
255.22623973120096
 20
1875.5385407924102
 30
0.0
 11
255.17470703502786
 21
1878.4908469788957
 31
0.0
  0
LINE
  5
EF
330
17
100
AcDbEntity
  8
0
100
AcDbLine
 10
255.17470703502786
 20
1878.4908469788957
 30
0.0
 11
255.17470703502786
 21
1878.4908469788957
 31
0.0
  0
LINE
  5
F0
330
17
100
AcDbEntity
  8
0
100
AcDbLine
 10
165.37306626969587
 20
1879.8765592017176
 30
0.0
 11
165.476131662042
 21
1873.9719468287485
 31
0.0
  0
LINE
  5
F1
330
17
100
AcDbEntity
  8
0
100
AcDbLine
 10
165.476131662042
 20
1873.9719468287485
 30
0.0
 11
157.20967433988403
 21
1873.827655279464
 31
0.0
  0
LINE
  5
F2
330
17
100
AcDbEntity
  8
0
100
AcDbLine
 10
157.1066089475379
 20
1879.7322676524332
 30
0.0
 11
157.1066089475379
 21
1879.7322676524332
 31
0.0
  0
LINE
  5
F3
330
17
100
AcDbEntity
  8
0
100
AcDbLine
 10
267.5348656156556
 20
1371.345856284649
 30
0.0
 11
267.5059578385572
 21
1371.8723301335485
 31
0.0
  0
LINE
  5
F4
330
17
100
AcDbEntity
  8
0
100
AcDbLine
 10
267.5059578385572
 20
1371.8723301335485
 30
0.0
 11
267.4377874534669
 21
1372.395171573898
 31
0.0
  0
LINE
  5
F5
330
17
100
AcDbEntity
  8
0
100
AcDbLine
 10
267.4377874534669
 20
1372.395171573898
 30
0.0
 11
267.3307356968321
 21
1372.9114566642806
 31
0.0
  0
LINE
  5
F6
330
17
100
AcDbEntity
  8
0
100
AcDbLine
 10
267.3307356968321
 20
1372.9114566642806
 30
0.0
 11
267.1854012454987
 21
1373.418298129046
 31
0.0
  0
LINE
  5
F7
330
17
100
AcDbEntity
  8
0
100
AcDbLine
 10
267.1854012454987
 20
1373.418298129046
 30
0.0
 11
267.0025968686739
 21
1373.9128615051304
 31
0.0
  0
LINE
  5
F8
330
17
100
AcDbEntity
  8
0
100
AcDbLine
 10
267.0025968686739
 20
1373.9128615051304
 30
0.0
 11
266.7833448825822
 21
1374.3923809935209
 31
0.0
  0
LINE
  5
F9
330
17
100
AcDbEntity
  8
0
100
AcDbLine
 10
266.7833448825822
 20
1374.3923809935209
 30
0.0
 11
266.5288714332683
 21
1374.8541749267256
 31
0.0
  0
LINE
  5
FA
330
17
100
AcDbEntity
  8
0
100
AcDbLine
 10
266.5288714332683
 20
1374.8541749267256
 30
0.0
 11
266.24059963948497
 21
1375.2956607657507
 31
0.0
  0
LINE
  5
FB
330
17
100
AcDbEntity
  8
0
100
AcDbLine
 10
266.24059963948497
 20
1375.2956607657507
 30
0.0
 11
265.9201416340357
 21
1375.7143695427003
 31
0.0
  0
LINE
  5
FC
330
17
100
AcDbEntity
  8
0
100
AcDbLine
 10
265.9201416340357
 20
1375.7143695427003
 30
0.0
 11
265.56928954808023
 21
1376.107959668249
 31
0.0
  0
LINE
  5
FD
330
17
100
AcDbEntity
  8
0
100
AcDbLine
 10
265.56928954808023
 20
1376.107959668249
 30
0.0
 11
265.1900054887973
 21
1376.4742300267617
 31
0.0
  0
LINE
  5
FE
330
17
100
AcDbEntity
  8
0
100
AcDbLine
 10
265.1900054887973
 20
1376.4742300267617
 30
0.0
 11
264.784410566501
 21
1376.811132285819
 31
0.0
  0
LINE
  5
FF
330
17
100
AcDbEntity
  8
0
100
AcDbLine
 10
264.784410566501
 20
1376.811132285819
 30
0.0
 11
264.35477303252014
 21
1377.116782351329
 31
0.0
  0
LINE
  5
100
330
17
100
AcDbEntity
  8
0
100
AcDbLine
 10
264.35477303252014
 20
1377.116782351329
 30
0.0
 11
263.9034955942245
 21
1377.389470904141
 31
0.0
  0
LINE
  5
101
330
17
100
AcDbEntity
  8
0
100
AcDbLine
 10
263.9034955942245
 20
1377.389470904141
 30
0.0
 11
263.43310197809984
 21
1377.6276729592553
 31
0.0
  0
LINE
  5
102
330
17
100
AcDbEntity
  8
0
100
AcDbLine
 10
263.43310197809984
 20
1377.6276729592553
 30
0.0
 11
262.94622281606115
 21
1377.8300563941573
 31
0.0
  0
LINE
  5
103
330
17
100
AcDbEntity
  8
0
100
AcDbLine
 10
262.94622281606115
 20
1377.8300563941573
 30
0.0
 11
262.44558093387695
 21
1377.9954893985835
 31
0.0
  0
LINE
  5
104
330
17
100
AcDbEntity
  8
0
100
AcDbLine
 10
262.44558093387695
 20
1377.9954893985835
 30
0.0
 11
261.93397612403083
 21
1378.1230468040671
 31
0.0
  0
LINE
  5
105
330
17
100
AcDbEntity
  8
0
100
AcDbLine
 10
261.93397612403083
 20
1378.1230468040671
 30
0.0
 11
261.4142694881484
 21
1378.212015257855
 31
0.0
  0
LINE
  5
106
330
17
100
AcDbEntity
  8
0
100
AcDbLine
 10
261.4142694881484
 20
1378.212015257855
 30
0.0
 11
260.8893674365477
 21
1378.2618972122636
 31
0.0
  0
LINE
  5
107
330
17
100
AcDbEntity
  8
0
100
AcDbLine
 10
260.8893674365477
 20
1378.2618972122636
 30
0.0
 11
260.36220543442164
 21
1378.272413707174
 31
0.0
  0
LINE
  5
108
330
17
100
AcDbEntity
  8
0
100
AcDbLine
 10
260.36220543442164
 20
1378.272413707174
 30
0.0
 11
259.83573158552326
 21
1378.2435059300733
 31
0.0
  0
LINE
  5
109
330
17
100
AcDbEntity
  8
0
100
AcDbLine
 10
259.83573158552326
 20
1378.2435059300733
 30
0.0
 11
259.31289014517256
 21
1378.1753355449846
 31
0.0
  0
LINE
  5
10A
330
17
100
AcDbEntity
  8
0
100
AcDbLine
 10
259.31289014517256
 20
1378.1753355449846
 30
0.0
 11
258.7966050547903
 21
1378.0682837883496
 31
0.0
  0
LINE
  5
10B
330
17
100
AcDbEntity
  8
0
100
AcDbLine
 10
258.7966050547903
 20
1378.0682837883496
 30
0.0
 11
258.2897635900233
 21
1377.9229493370167
 31
0.0
  0
LINE
  5
10C
330
17
100
AcDbEntity
  8
0
100
AcDbLine
 10
258.2897635900233
 20
1377.9229493370167
 30
0.0
 11
257.7952002139402
 21
1377.7401449601905
 31
0.0
  0
LINE
  5
10D
330
17
100
AcDbEntity
  8
0
100
AcDbLine
 10
257.7952002139402
 20
1377.7401449601905
 30
0.0
 11
257.31568072555007
 21
1377.5208929740988
 31
0.0
  0
LINE
  5
10E
330
17
100
AcDbEntity
  8
0
100
AcDbLine
 10
257.31568072555007
 20
1377.5208929740988
 30
0.0
 11
256.85388679234507
 21
1377.2664195247858
 31
0.0
  0
LINE
  5
10F
330
17
100
AcDbEntity
  8
0
100
AcDbLine
 10
256.85388679234507
 20
1377.2664195247858
 30
0.0
 11
256.41240095332137
 21
1376.9781477310025
 31
0.0
  0
LINE
  5
110
330
17
100
AcDbEntity
  8
0
100
AcDbLine
 10
256.41240095332137
 20
1376.9781477310025
 30
0.0
 11
255.99369217637033
 21
1376.6576897255536
 31
0.0
  0
LINE
  5
111
330
17
100
AcDbEntity
  8
0
100
AcDbLine
 10
255.99369217637033
 20
1376.6576897255536
 30
0.0
 11
255.60010205082094
 21
1376.3068376395966
 31
0.0
  0
LINE
  5
112
330
17
100
AcDbEntity
  8
0
100
AcDbLine
 10
255.60010205082094
 20
1376.3068376395966
 30
0.0
 11
255.23383169230902
 21
1375.9275535803135
 31
0.0
  0
LINE
  5
113
330
17
100
AcDbEntity
  8
0
100
AcDbLine
 10
255.23383169230902
 20
1375.9275535803135
 30
0.0
 11
254.89692943325184
 21
1375.5219586580179
 31
0.0
  0
LINE
  5
114
330
17
100
AcDbEntity
  8
0
100
AcDbLine
 10
254.89692943325184
 20
1375.5219586580179
 30
0.0
 11
254.59127936774297
 21
1375.0923211240377
 31
0.0
  0
LINE
  5
115
330
17
100
AcDbEntity
  8
0
100
AcDbLine
 10
254.59127936774297
 20
1375.0923211240377
 30
0.0
 11
254.31859081492945
 21
1374.6410436857407
 31
0.0
  0
LINE
  5
116
330
17
100
AcDbEntity
  8
0
100
AcDbLine
 10
254.31859081492945
 20
1374.6410436857407
 30
0.0
 11
254.08038875981438
 21
1374.1706500696175
 31
0.0
  0
LINE
  5
117
330
17
100
AcDbEntity
  8
0
100
AcDbLine
 10
254.08038875981438
 20
1374.1706500696175
 30
0.0
 11
253.87800532491337
 21
1373.6837709075778
 31
0.0
  0
LINE
  5
118
330
17
100
AcDbEntity
  8
0
100
AcDbLine
 10
253.87800532491337
 20
1373.6837709075778
 30
0.0
 11
253.71257232048754
 21
1373.183129025393
 31
0.0
  0
LINE
  5
119
330
17
100
AcDbEntity
  8
0
100
AcDbLine
 10
253.71257232048754
 20
1373.183129025393
 30
0.0
 11
253.58501491500348
 21
1372.6715242155487
 31
0.0
  0
LINE
  5
11A
330
17
100
AcDbEntity
  8
0
100
AcDbLine
 10
253.58501491500348
 20
1372.6715242155487
 30
0.0
 11
253.4960464612157
 21
1372.151817579666
 31
0.0
  0
LINE
  5
11B
330
17
100
AcDbEntity
  8
0
100
AcDbLine
 10
253.4960464612157
 20
1372.151817579666
 30
0.0
 11
253.4461645068054
 21
1371.6269155280656
 31
0.0
  0
LINE
  5
11C
330
17
100
AcDbEntity
  8
0
100
AcDbLine
 10
253.4461645068054
 20
1371.6269155280656
 30
0.0
 11
253.43564801189754
 21
1371.0997535259382
 31
0.0
  0
LINE
  5
11D
330
17
100
AcDbEntity
  8
0
100
AcDbLine
 10
253.43564801189754
 20
1371.0997535259382
 30
0.0
 11
253.4645557889957
 21
1370.5732796770412
 31
0.0
  0
LINE
  5
11E
330
17
100
AcDbEntity
  8
0
100
AcDbLine
 10
253.4645557889957
 20
1370.5732796770412
 30
0.0
 11
253.53272617408618
 21
1370.05043823669
 31
0.0
  0
LINE
  5
11F
330
17
100
AcDbEntity
  8
0
100
AcDbLine
 10
253.53272617408618
 20
1370.05043823669
 30
0.0
 11
253.639777930721
 21
1369.5341531463077
 31
0.0
  0
LINE
  5
120
330
17
100
AcDbEntity
  8
0
100
AcDbLine
 10
253.639777930721
 20
1369.5341531463077
 30
0.0
 11
253.78511238205428
 21
1369.027311681541
 31
0.0
  0
LINE
  5
121
330
17
100
AcDbEntity
  8
0
100
AcDbLine
 10
253.78511238205428
 20
1369.027311681541
 30
0.0
 11
253.96791675888008
 21
1368.532748305458
 31
0.0
  0
LINE
  5
122
330
17
100
AcDbEntity
  8
0
100
AcDbLine
 10
253.96791675888008
 20
1368.532748305458
 30
0.0
 11
254.18716874497093
 21
1368.0532288170662
 31
0.0
  0
LINE
  5
123
330
17
100
AcDbEntity
  8
0
100
AcDbLine
 10
254.18716874497093
 20
1368.0532288170662
 30
0.0
 11
254.44164219428478
 21
1367.5914348838614
 31
0.0
  0
LINE
  5
124
330
17
100
AcDbEntity
  8
0
100
AcDbLine
 10
254.44164219428478
 20
1367.5914348838614
 30
0.0
 11
254.72991398806948
 21
1367.1499490448366
 31
0.0
  0
LINE
  5
125
330
17
100
AcDbEntity
  8
0
100
AcDbLine
 10
254.72991398806948
 20
1367.1499490448366
 30
0.0
 11
255.05037199351725
 21
1366.731240267888
 31
0.0
  0
LINE
  5
126
330
17
100
AcDbEntity
  8
0
100
AcDbLine
 10
255.05037199351725
 20
1366.731240267888
 30
0.0
 11
255.40122407947422
 21
1366.3376501423384
 31
0.0
  0
LINE
  5
127
330
17
100
AcDbEntity
  8
0
100
AcDbLine
 10
255.40122407947422
 20
1366.3376501423384
 30
0.0
 11
255.7805081387563
 21
1365.9713797838258
 31
0.0
  0
LINE
  5
128
330
17
100
AcDbEntity
  8
0
100
AcDbLine
 10
255.7805081387563
 20
1365.9713797838258
 30
0.0
 11
256.18610306105256
 21
1365.634477524768
 31
0.0
  0
LINE
  5
129
330
17
100
AcDbEntity
  8
0
100
AcDbLine
 10
256.18610306105256
 20
1365.634477524768
 30
0.0
 11
256.61574059503425
 21
1365.3288274592605
 31
0.0
  0
LINE
  5
12A
330
17
100
AcDbEntity
  8
0
100
AcDbLine
 10
256.61574059503425
 20
1365.3288274592605
 30
0.0
 11
257.06701803332993
 21
1365.0561389064474
 31
0.0
  0
LINE
  5
12B
330
17
100
AcDbEntity
  8
0
100
AcDbLine
 10
257.06701803332993
 20
1365.0561389064474
 30
0.0
 11
257.53741164945325
 21
1364.817936851332
 31
0.0
  0
LINE
  5
12C
330
17
100
AcDbEntity
  8
0
100
AcDbLine
 10
257.53741164945325
 20
1364.817936851332
 30
0.0
 11
258.02429081149285
 21
1364.6155534164313
 31
0.0
  0
LINE
  5
12D
330
17
100
AcDbEntity
  8
0
100
AcDbLine
 10
258.02429081149285
 20
1364.6155534164313
 30
0.0
 11
258.52493269367613
 21
1364.4501204120052
 31
0.0
  0
LINE
  5
12E
330
17
100
AcDbEntity
  8
0
100
AcDbLine
 10
258.52493269367613
 20
1364.4501204120052
 30
0.0
 11
259.03653750352225
 21
1364.3225630065203
 31
0.0
  0
LINE
  5
12F
330
17
100
AcDbEntity
  8
0
100
AcDbLine
 10
259.03653750352225
 20
1364.3225630065203
 30
0.0
 11
259.55624413940467
 21
1364.2335945527332
 31
0.0
  0
LINE
  5
130
330
17
100
AcDbEntity
  8
0
100
AcDbLine
 10
259.55624413940467
 20
1364.2335945527332
 30
0.0
 11
260.0811461910063
 21
1364.1837125983234
 31
0.0
  0
LINE
  5
131
330
17
100
AcDbEntity
  8
0
100
AcDbLine
 10
260.0811461910063
 20
1364.1837125983234
 30
0.0
 11
260.6083081931323
 21
1364.1731961034154
 31
0.0
  0
LINE
  5
132
330
17
100
AcDbEntity
  8
0
100
AcDbLine
 10
260.6083081931323
 20
1364.1731961034154
 30
0.0
 11
261.13478204203074
 21
1364.2021038805137
 31
0.0
  0
LINE
  5
133
330
17
100
AcDbEntity
  8
0
100
AcDbLine
 10
261.13478204203074
 20
1364.2021038805137
 30
0.0
 11
261.65762348238053
 21
1364.2702742656036
 31
0.0
  0
LINE
  5
134
330
17
100
AcDbEntity
  8
0
100
AcDbLine
 10
261.65762348238053
 20
1364.2702742656036
 30
0.0
 11
262.1739085727628
 21
1364.3773260222379
 31
0.0
  0
LINE
  5
135
330
17
100
AcDbEntity
  8
0
100
AcDbLine
 10
262.1739085727628
 20
1364.3773260222379
 30
0.0
 11
262.6807500375298
 21
1364.5226604735717
 31
0.0
  0
LINE
  5
136
330
17
100
AcDbEntity
  8
0
100
AcDbLine
 10
262.6807500375298
 20
1364.5226604735717
 30
0.0
 11
263.1753134136138
 21
1364.7054648503981
 31
0.0
  0
LINE
  5
137
330
17
100
AcDbEntity
  8
0
100
AcDbLine
 10
263.1753134136138
 20
1364.7054648503981
 30
0.0
 11
263.654832902003
 21
1364.9247168364884
 31
0.0
  0
LINE
  5
138
330
17
100
AcDbEntity
  8
0
100
AcDbLine
 10
263.654832902003
 20
1364.9247168364884
 30
0.0
 11
264.1166268352094
 21
1365.1791902858029
 31
0.0
  0
LINE
  5
139
330
17
100
AcDbEntity
  8
0
100
AcDbLine
 10
264.1166268352094
 20
1365.1791902858029
 30
0.0
 11
264.55811267423303
 21
1365.4674620795868
 31
0.0
  0
LINE
  5
13A
330
17
100
AcDbEntity
  8
0
100
AcDbLine
 10
264.55811267423303
 20
1365.4674620795868
 30
0.0
 11
264.97682145118324
 21
1365.7879200850334
 31
0.0
  0
LINE
  5
13B
330
17
100
AcDbEntity
  8
0
100
AcDbLine
 10
264.97682145118324
 20
1365.7879200850334
 30
0.0
 11
265.3704115767326
 21
1366.138772170991
 31
0.0
  0
LINE
  5
13C
330
17
100
AcDbEntity
  8
0
100
AcDbLine
 10
265.3704115767326
 20
1366.138772170991
 30
0.0
 11
265.73668193524543
 21
1366.5180562302737
 31
0.0
  0
LINE
  5
13D
330
17
100
AcDbEntity
  8
0
100
AcDbLine
 10
265.73668193524543
 20
1366.5180562302737
 30
0.0
 11
266.07358419430113
 21
1366.9236511525703
 31
0.0
  0
LINE
  5
13E
330
17
100
AcDbEntity
  8
0
100
AcDbLine
 10
266.07358419430113
 20
1366.9236511525703
 30
0.0
 11
266.3792342598115
 21
1367.3532886865496
 31
0.0
  0
LINE
  5
13F
330
17
100
AcDbEntity
  8
0
100
AcDbLine
 10
266.3792342598115
 20
1367.3532886865496
 30
0.0
 11
266.65192281262364
 21
1367.8045661248466
 31
0.0
  0
LINE
  5
140
330
17
100
AcDbEntity
  8
0
100
AcDbLine
 10
266.65192281262364
 20
1367.8045661248466
 30
0.0
 11
266.89012486773873
 21
1368.2749597409693
 31
0.0
  0
LINE
  5
141
330
17
100
AcDbEntity
  8
0
100
AcDbLine
 10
266.89012486773873
 20
1368.2749597409693
 30
0.0
 11
267.0925083026406
 21
1368.7618389030108
 31
0.0
  0
LINE
  5
142
330
17
100
AcDbEntity
  8
0
100
AcDbLine
 10
267.0925083026406
 20
1368.7618389030108
 30
0.0
 11
267.25794130706544
 21
1369.262480785194
 31
0.0
  0
LINE
  5
143
330
17
100
AcDbEntity
  8
0
100
AcDbLine
 10
267.25794130706544
 20
1369.262480785194
 30
0.0
 11
267.3854987125496
 21
1369.7740855950397
 31
0.0
  0
LINE
  5
144
330
17
100
AcDbEntity
  8
0
100
AcDbLine
 10
267.3854987125496
 20
1369.7740855950397
 30
0.0
 11
267.4744671663374
 21
1370.2937922309222
 31
0.0
  0
LINE
  5
145
330
17
100
AcDbEntity
  8
0
100
AcDbLine
 10
267.4744671663374
 20
1370.2937922309222
 30
0.0
 11
267.52434912074756
 21
1370.8186942825243
 31
0.0
  0
LINE
  5
146
330
17
100
AcDbEntity
  8
0
100
AcDbLine
 10
267.52434912074756
 20
1370.8186942825243
 30
0.0
 11
267.5348656156556
 21
1371.345856284649
 31
0.0
  0
LINE
  5
147
330
17
100
AcDbEntity
  8
0
100
AcDbLine
 10
107.83102037764687
 20
1722.9428984618978
 30
0.0
 11
107.80211260054857
 21
1723.4693723107957
 31
0.0
  0
LINE
  5
148
330
17
100
AcDbEntity
  8
0
100
AcDbLine
 10
107.80211260054857
 20
1723.4693723107957
 30
0.0
 11
107.73394221545855
 21
1723.9922137511467
 31
0.0
  0
LINE
  5
149
330
17
100
AcDbEntity
  8
0
100
AcDbLine
 10
107.73394221545855
 20
1723.9922137511467
 30
0.0
 11
107.62689045882362
 21
1724.5084988415292
 31
0.0
  0
LINE
  5
14A
330
17
100
AcDbEntity
  8
0
100
AcDbLine
 10
107.62689045882362
 20
1724.5084988415292
 30
0.0
 11
107.48155600749047
 21
1725.0153403062948
 31
0.0
  0
LINE
  5
14B
330
17
100
AcDbEntity
  8
0
100
AcDbLine
 10
107.48155600749047
 20
1725.0153403062948
 30
0.0
 11
107.29875163066566
 21
1725.509903682379
 31
0.0
  0
LINE
  5
14C
330
17
100
AcDbEntity
  8
0
100
AcDbLine
 10
107.29875163066566
 20
1725.509903682379
 30
0.0
 11
107.07949964457336
 21
1725.9894231707694
 31
0.0
  0
LINE
  5
14D
330
17
100
AcDbEntity
  8
0
100
AcDbLine
 10
107.07949964457336
 20
1725.9894231707694
 30
0.0
 11
106.82502619526042
 21
1726.4512171039744
 31
0.0
  0
LINE
  5
14E
330
17
100
AcDbEntity
  8
0
100
AcDbLine
 10
106.82502619526042
 20
1726.4512171039744
 30
0.0
 11
106.53675440147651
 21
1726.8927029429992
 31
0.0
  0
LINE
  5
14F
330
17
100
AcDbEntity
  8
0
100
AcDbLine
 10
106.53675440147651
 20
1726.8927029429992
 30
0.0
 11
106.21629639602747
 21
1727.311411719949
 31
0.0
  0
LINE
  5
150
330
17
100
AcDbEntity
  8
0
100
AcDbLine
 10
106.21629639602747
 20
1727.311411719949
 30
0.0
 11
105.86544431007121
 21
1727.705001845498
 31
0.0
  0
LINE
  5
151
330
17
100
AcDbEntity
  8
0
100
AcDbLine
 10
105.86544431007121
 20
1727.705001845498
 30
0.0
 11
105.48616025078823
 21
1728.0712722040103
 31
0.0
  0
LINE
  5
152
330
17
100
AcDbEntity
  8
0
100
AcDbLine
 10
105.48616025078823
 20
1728.0712722040103
 30
0.0
 11
105.08056532849197
 21
1728.4081744630676
 31
0.0
  0
LINE
  5
153
330
17
100
AcDbEntity
  8
0
100
AcDbLine
 10
105.08056532849197
 20
1728.4081744630676
 30
0.0
 11
104.65092779451149
 21
1728.7138245285776
 31
0.0
  0
LINE
  5
154
330
17
100
AcDbEntity
  8
0
100
AcDbLine
 10
104.65092779451149
 20
1728.7138245285776
 30
0.0
 11
104.19965035621459
 21
1728.9865130813896
 31
0.0
  0
LINE
  5
155
330
17
100
AcDbEntity
  8
0
100
AcDbLine
 10
104.19965035621459
 20
1728.9865130813896
 30
0.0
 11
103.72925674009137
 21
1729.2247151365038
 31
0.0
  0
LINE
  5
156
330
17
100
AcDbEntity
  8
0
100
AcDbLine
 10
103.72925674009137
 20
1729.2247151365038
 30
0.0
 11
103.24237757805292
 21
1729.4270985714058
 31
0.0
  0
LINE
  5
157
330
17
100
AcDbEntity
  8
0
100
AcDbLine
 10
103.24237757805292
 20
1729.4270985714058
 30
0.0
 11
102.74173569586847
 21
1729.592531575832
 31
0.0
  0
LINE
  5
158
330
17
100
AcDbEntity
  8
0
100
AcDbLine
 10
102.74173569586847
 20
1729.592531575832
 30
0.0
 11
102.23013088602248
 21
1729.720088981316
 31
0.0
  0
LINE
  5
159
330
17
100
AcDbEntity
  8
0
100
AcDbLine
 10
102.23013088602248
 20
1729.720088981316
 30
0.0
 11
101.71042425013982
 21
1729.809057435104
 31
0.0
  0
LINE
  5
15A
330
17
100
AcDbEntity
  8
0
100
AcDbLine
 10
101.71042425013982
 20
1729.809057435104
 30
0.0
 11
101.18552219853936
 21
1729.8589393895122
 31
0.0
  0
LINE
  5
15B
330
17
100
AcDbEntity
  8
0
100
AcDbLine
 10
101.18552219853936
 20
1729.8589393895122
 30
0.0
 11
100.65836019641308
 21
1729.8694558844218
 31
0.0
  0
LINE
  5
15C
330
17
100
AcDbEntity
  8
0
100
AcDbLine
 10
100.65836019641308
 20
1729.8694558844218
 30
0.0
 11
100.13188634751506
 21
1729.8405481073219
 31
0.0
  0
LINE
  5
15D
330
17
100
AcDbEntity
  8
0
100
AcDbLine
 10
100.13188634751506
 20
1729.8405481073219
 30
0.0
 11
99.60904490716408
 21
1729.7723777222336
 31
0.0
  0
LINE
  5
15E
330
17
100
AcDbEntity
  8
0
100
AcDbLine
 10
99.60904490716408
 20
1729.7723777222336
 30
0.0
 11
99.09275981678148
 21
1729.6653259655984
 31
0.0
  0
LINE
  5
15F
330
17
100
AcDbEntity
  8
0
100
AcDbLine
 10
99.09275981678148
 20
1729.6653259655984
 30
0.0
 11
98.58591835201494
 21
1729.5199915142653
 31
0.0
  0
LINE
  5
160
330
17
100
AcDbEntity
  8
0
100
AcDbLine
 10
98.58591835201494
 20
1729.5199915142653
 30
0.0
 11
98.0913549759307
 21
1729.337187137439
 31
0.0
  0
LINE
  5
161
330
17
100
AcDbEntity
  8
0
100
AcDbLine
 10
98.0913549759307
 20
1729.337187137439
 30
0.0
 11
97.61183548754148
 21
1729.1179351513474
 31
0.0
  0
LINE
  5
162
330
17
100
AcDbEntity
  8
0
100
AcDbLine
 10
97.61183548754148
 20
1729.1179351513474
 30
0.0
 11
97.1500415543365
 21
1728.8634617020343
 31
0.0
  0
LINE
  5
163
330
17
100
AcDbEntity
  8
0
100
AcDbLine
 10
97.1500415543365
 20
1728.8634617020343
 30
0.0
 11
96.70855571531169
 21
1728.575189908251
 31
0.0
  0
LINE
  5
164
330
17
100
AcDbEntity
  8
0
100
AcDbLine
 10
96.70855571531169
 20
1728.575189908251
 30
0.0
 11
96.28984693836277
 21
1728.2547319028022
 31
0.0
  0
LINE
  5
165
330
17
100
AcDbEntity
  8
0
100
AcDbLine
 10
96.28984693836277
 20
1728.2547319028022
 30
0.0
 11
95.89625681281203
 21
1727.9038798168451
 31
0.0
  0
LINE
  5
166
330
17
100
AcDbEntity
  8
0
100
AcDbLine
 10
95.89625681281203
 20
1727.9038798168451
 30
0.0
 11
95.52998645430057
 21
1727.5245957575626
 31
0.0
  0
LINE
  5
167
330
17
100
AcDbEntity
  8
0
100
AcDbLine
 10
95.52998645430057
 20
1727.5245957575626
 30
0.0
 11
95.19308419524316
 21
1727.119000835267
 31
0.0
  0
LINE
  5
168
330
17
100
AcDbEntity
  8
0
100
AcDbLine
 10
95.19308419524316
 20
1727.119000835267
 30
0.0
 11
94.8874341297344
 21
1726.6893633012864
 31
0.0
  0
LINE
  5
169
330
17
100
AcDbEntity
  8
0
100
AcDbLine
 10
94.8874341297344
 20
1726.6893633012864
 30
0.0
 11
94.61474557692122
 21
1726.2380858629895
 31
0.0
  0
LINE
  5
16A
330
17
100
AcDbEntity
  8
0
100
AcDbLine
 10
94.61474557692122
 20
1726.2380858629895
 30
0.0
 11
94.37654352180593
 21
1725.7676922468663
 31
0.0
  0
LINE
  5
16B
330
17
100
AcDbEntity
  8
0
100
AcDbLine
 10
94.37654352180593
 20
1725.7676922468663
 30
0.0
 11
94.17416008690503
 21
1725.2808130848264
 31
0.0
  0
LINE
  5
16C
330
17
100
AcDbEntity
  8
0
100
AcDbLine
 10
94.17416008690503
 20
1725.2808130848264
 30
0.0
 11
94.00872708247883
 21
1724.780171202642
 31
0.0
  0
LINE
  5
16D
330
17
100
AcDbEntity
  8
0
100
AcDbLine
 10
94.00872708247883
 20
1724.780171202642
 30
0.0
 11
93.88116967699628
 21
1724.2685663927973
 31
0.0
  0
LINE
  5
16E
330
17
100
AcDbEntity
  8
0
100
AcDbLine
 10
93.88116967699628
 20
1724.2685663927973
 30
0.0
 11
93.79220122320713
 21
1723.7488597569145
 31
0.0
  0
LINE
  5
16F
330
17
100
AcDbEntity
  8
0
100
AcDbLine
 10
93.79220122320713
 20
1723.7488597569145
 30
0.0
 11
93.74231926879717
 21
1723.2239577053128
 31
0.0
  0
LINE
  5
170
330
17
100
AcDbEntity
  8
0
100
AcDbLine
 10
93.74231926879717
 20
1723.2239577053128
 30
0.0
 11
93.7318027738892
 21
1722.696795703187
 31
0.0
  0
LINE
  5
171
330
17
100
AcDbEntity
  8
0
100
AcDbLine
 10
93.7318027738892
 20
1722.696795703187
 30
0.0
 11
93.7607105509875
 21
1722.1703218542884
 31
0.0
  0
LINE
  5
172
330
17
100
AcDbEntity
  8
0
100
AcDbLine
 10
93.7607105509875
 20
1722.1703218542884
 30
0.0
 11
93.8288809360776
 21
1721.6474804139386
 31
0.0
  0
LINE
  5
173
330
17
100
AcDbEntity
  8
0
100
AcDbLine
 10
93.8288809360776
 20
1721.6474804139386
 30
0.0
 11
93.93593269271379
 21
1721.1311953235563
 31
0.0
  0
LINE
  5
174
330
17
100
AcDbEntity
  8
0
100
AcDbLine
 10
93.93593269271379
 20
1721.1311953235563
 30
0.0
 11
94.08126714404558
 21
1720.6243538587898
 31
0.0
  0
LINE
  5
175
330
17
100
AcDbEntity
  8
0
100
AcDbLine
 10
94.08126714404558
 20
1720.6243538587898
 30
0.0
 11
94.26407152087174
 21
1720.1297904827065
 31
0.0
  0
LINE
  5
176
330
17
100
AcDbEntity
  8
0
100
AcDbLine
 10
94.26407152087174
 20
1720.1297904827065
 30
0.0
 11
94.48332350696248
 21
1719.6502709943152
 31
0.0
  0
LINE
  5
177
330
17
100
AcDbEntity
  8
0
100
AcDbLine
 10
94.48332350696248
 20
1719.6502709943152
 30
0.0
 11
94.73779695627655
 21
1719.1884770611102
 31
0.0
  0
LINE
  5
178
330
17
100
AcDbEntity
  8
0
100
AcDbLine
 10
94.73779695627655
 20
1719.1884770611102
 30
0.0
 11
95.02606875006092
 21
1718.7469912220852
 31
0.0
  0
LINE
  5
179
330
17
100
AcDbEntity
  8
0
100
AcDbLine
 10
95.02606875006092
 20
1718.7469912220852
 30
0.0
 11
95.34652675550856
 21
1718.3282824451367
 31
0.0
  0
LINE
  5
17A
330
17
100
AcDbEntity
  8
0
100
AcDbLine
 10
95.34652675550856
 20
1718.3282824451367
 30
0.0
 11
95.69737884146576
 21
1717.9346923195872
 31
0.0
  0
LINE
  5
17B
330
17
100
AcDbEntity
  8
0
100
AcDbLine
 10
95.69737884146576
 20
1717.9346923195872
 30
0.0
 11
96.07666290074737
 21
1717.5684219610744
 31
0.0
  0
LINE
  5
17C
330
17
100
AcDbEntity
  8
0
100
AcDbLine
 10
96.07666290074737
 20
1717.5684219610744
 30
0.0
 11
96.482257823045
 21
1717.2315197020168
 31
0.0
  0
LINE
  5
17D
330
17
100
AcDbEntity
  8
0
100
AcDbLine
 10
96.482257823045
 20
1717.2315197020168
 30
0.0
 11
96.91189535702453
 21
1716.9258696365093
 31
0.0
  0
LINE
  5
17E
330
17
100
AcDbEntity
  8
0
100
AcDbLine
 10
96.91189535702453
 20
1716.9258696365093
 30
0.0
 11
97.36317279532135
 21
1716.653181083696
 31
0.0
  0
LINE
  5
17F
330
17
100
AcDbEntity
  8
0
100
AcDbLine
 10
97.36317279532135
 20
1716.653181083696
 30
0.0
 11
97.83356641144468
 21
1716.4149790285805
 31
0.0
  0
LINE
  5
180
330
17
100
AcDbEntity
  8
0
100
AcDbLine
 10
97.83356641144468
 20
1716.4149790285805
 30
0.0
 11
98.32044557348334
 21
1716.21259559368
 31
0.0
  0
LINE
  5
181
330
17
100
AcDbEntity
  8
0
100
AcDbLine
 10
98.32044557348334
 20
1716.21259559368
 30
0.0
 11
98.8210874556678
 21
1716.0471625892537
 31
0.0
  0
LINE
  5
182
330
17
100
AcDbEntity
  8
0
100
AcDbLine
 10
98.8210874556678
 20
1716.0471625892537
 30
0.0
 11
99.33269226551346
 21
1715.9196051837691
 31
0.0
  0
LINE
  5
183
330
17
100
AcDbEntity
  8
0
100
AcDbLine
 10
99.33269226551346
 20
1715.9196051837691
 30
0.0
 11
99.85239890139621
 21
1715.830636729982
 31
0.0
  0
LINE
  5
184
330
17
100
AcDbEntity
  8
0
100
AcDbLine
 10
99.85239890139621
 20
1715.830636729982
 30
0.0
 11
100.37730095299806
 21
1715.7807547755733
 31
0.0
  0
LINE
  5
185
330
17
100
AcDbEntity
  8
0
100
AcDbLine
 10
100.37730095299806
 20
1715.7807547755733
 30
0.0
 11
100.90446295512375
 21
1715.7702382806642
 31
0.0
  0
LINE
  5
186
330
17
100
AcDbEntity
  8
0
100
AcDbLine
 10
100.90446295512375
 20
1715.7702382806642
 30
0.0
 11
101.43093680402235
 21
1715.7991460577637
 31
0.0
  0
LINE
  5
187
330
17
100
AcDbEntity
  8
0
100
AcDbLine
 10
101.43093680402235
 20
1715.7991460577637
 30
0.0
 11
101.95377824437196
 21
1715.8673164428524
 31
0.0
  0
LINE
  5
188
330
17
100
AcDbEntity
  8
0
100
AcDbLine
 10
101.95377824437196
 20
1715.8673164428524
 30
0.0
 11
102.47006333475446
 21
1715.9743681994867
 31
0.0
  0
LINE
  5
189
330
17
100
AcDbEntity
  8
0
100
AcDbLine
 10
102.47006333475446
 20
1715.9743681994867
 30
0.0
 11
102.97690479952132
 21
1716.1197026508203
 31
0.0
  0
LINE
  5
18A
330
17
100
AcDbEntity
  8
0
100
AcDbLine
 10
102.97690479952132
 20
1716.1197026508203
 30
0.0
 11
103.47146817560557
 21
1716.3025070276467
 31
0.0
  0
LINE
  5
18B
330
17
100
AcDbEntity
  8
0
100
AcDbLine
 10
103.47146817560557
 20
1716.3025070276467
 30
0.0
 11
103.95098766399457
 21
1716.521759013737
 31
0.0
  0
LINE
  5
18C
330
17
100
AcDbEntity
  8
0
100
AcDbLine
 10
103.95098766399457
 20
1716.521759013737
 30
0.0
 11
104.41278159719944
 21
1716.7762324630512
 31
0.0
  0
LINE
  5
18D
330
17
100
AcDbEntity
  8
0
100
AcDbLine
 10
104.41278159719944
 20
1716.7762324630512
 30
0.0
 11
104.85426743622433
 21
1717.0645042568358
 31
0.0
  0
LINE
  5
18E
330
17
100
AcDbEntity
  8
0
100
AcDbLine
 10
104.85426743622433
 20
1717.0645042568358
 30
0.0
 11
105.2729762131742
 21
1717.3849622622822
 31
0.0
  0
LINE
  5
18F
330
17
100
AcDbEntity
  8
0
100
AcDbLine
 10
105.2729762131742
 20
1717.3849622622822
 30
0.0
 11
105.66656633872357
 21
1717.7358143482397
 31
0.0
  0
LINE
  5
190
330
17
100
AcDbEntity
  8
0
100
AcDbLine
 10
105.66656633872357
 20
1717.7358143482397
 30
0.0
 11
106.0328366972364
 21
1718.1150984075225
 31
0.0
  0
LINE
  5
191
330
17
100
AcDbEntity
  8
0
100
AcDbLine
 10
106.0328366972364
 20
1718.1150984075225
 30
0.0
 11
106.36973895629288
 21
1718.5206933298189
 31
0.0
  0
LINE
  5
192
330
17
100
AcDbEntity
  8
0
100
AcDbLine
 10
106.36973895629288
 20
1718.5206933298189
 30
0.0
 11
106.67538902180303
 21
1718.9503308637982
 31
0.0
  0
LINE
  5
193
330
17
100
AcDbEntity
  8
0
100
AcDbLine
 10
106.67538902180303
 20
1718.9503308637982
 30
0.0
 11
106.94807757461575
 21
1719.4016083020952
 31
0.0
  0
LINE
  5
194
330
17
100
AcDbEntity
  8
0
100
AcDbLine
 10
106.94807757461575
 20
1719.4016083020952
 30
0.0
 11
107.18627962972991
 21
1719.8720019182183
 31
0.0
  0
LINE
  5
195
330
17
100
AcDbEntity
  8
0
100
AcDbLine
 10
107.18627962972991
 20
1719.8720019182183
 30
0.0
 11
107.38866306463237
 21
1720.3588810802594
 31
0.0
  0
LINE
  5
196
330
17
100
AcDbEntity
  8
0
100
AcDbLine
 10
107.38866306463237
 20
1720.3588810802594
 30
0.0
 11
107.55409606905722
 21
1720.8595229624427
 31
0.0
  0
LINE
  5
197
330
17
100
AcDbEntity
  8
0
100
AcDbLine
 10
107.55409606905722
 20
1720.8595229624427
 30
0.0
 11
107.68165347454114
 21
1721.3711277722882
 31
0.0
  0
LINE
  5
198
330
17
100
AcDbEntity
  8
0
100
AcDbLine
 10
107.68165347454114
 20
1721.3711277722882
 30
0.0
 11
107.77062192832902
 21
1721.8908344081708
 31
0.0
  0
LINE
  5
199
330
17
100
AcDbEntity
  8
0
100
AcDbLine
 10
107.77062192832902
 20
1721.8908344081708
 30
0.0
 11
107.82050388273889
 21
1722.4157364597716
 31
0.0
  0
LINE
  5
19A
330
17
100
AcDbEntity
  8
0
100
AcDbLine
 10
107.82050388273889
 20
1722.4157364597716
 30
0.0
 11
107.83102037764687
 21
1722.9428984618978
 31
0.0
  0
LINE
  5
19B
330
17
100
AcDbEntity
  8
0
100
AcDbLine
 10
1153.4615116432155
 20
764.2740033192254
 30
0.0
 11
1153.4326038661172
 21
764.8004771681235
 31
0.0
  0
LINE
  5
19C
330
17
100
AcDbEntity
  8
0
100
AcDbLine
 10
1153.4326038661172
 20
764.8004771681235
 30
0.0
 11
1153.3644334810274
 21
765.3233186084732
 31
0.0
  0
LINE
  5
19D
330
17
100
AcDbEntity
  8
0
100
AcDbLine
 10
1153.3644334810274
 20
765.3233186084732
 30
0.0
 11
1153.2573817243929
 21
765.8396036988568
 31
0.0
  0
LINE
  5
19E
330
17
100
AcDbEntity
  8
0
100
AcDbLine
 10
1153.2573817243929
 20
765.8396036988568
 30
0.0
 11
1153.1120472730606
 21
766.3464451636235
 31
0.0
  0
LINE
  5
19F
330
17
100
AcDbEntity
  8
0
100
AcDbLine
 10
1153.1120472730606
 20
766.3464451636235
 30
0.0
 11
1152.929242896234
 21
766.8410085397065
 31
0.0
  0
LINE
  5
1A0
330
17
100
AcDbEntity
  8
0
100
AcDbLine
 10
1152.929242896234
 20
766.8410085397065
 30
0.0
 11
1152.7099909101423
 21
767.3205280280968
 31
0.0
  0
LINE
  5
1A1
330
17
100
AcDbEntity
  8
0
100
AcDbLine
 10
1152.7099909101423
 20
767.3205280280968
 30
0.0
 11
1152.455517460828
 21
767.7823219613017
 31
0.0
  0
LINE
  5
1A2
330
17
100
AcDbEntity
  8
0
100
AcDbLine
 10
1152.455517460828
 20
767.7823219613017
 30
0.0
 11
1152.167245667045
 21
768.2238078003268
 31
0.0
  0
LINE
  5
1A3
330
17
100
AcDbEntity
  8
0
100
AcDbLine
 10
1152.167245667045
 20
768.2238078003268
 30
0.0
 11
1151.8467876615975
 21
768.6425165772757
 31
0.0
  0
LINE
  5
1A4
330
17
100
AcDbEntity
  8
0
100
AcDbLine
 10
1151.8467876615975
 20
768.6425165772757
 30
0.0
 11
1151.4959355756403
 21
769.0361067028259
 31
0.0
  0
LINE
  5
1A5
330
17
100
AcDbEntity
  8
0
100
AcDbLine
 10
1151.4959355756403
 20
769.0361067028259
 30
0.0
 11
1151.1166515163573
 21
769.4023770613379
 31
0.0
  0
LINE
  5
1A6
330
17
100
AcDbEntity
  8
0
100
AcDbLine
 10
1151.1166515163573
 20
769.4023770613379
 30
0.0
 11
1150.711056594061
 21
769.7392793203951
 31
0.0
  0
LINE
  5
1A7
330
17
100
AcDbEntity
  8
0
100
AcDbLine
 10
1150.711056594061
 20
769.7392793203951
 30
0.0
 11
1150.2814190600802
 21
770.0449293859051
 31
0.0
  0
LINE
  5
1A8
330
17
100
AcDbEntity
  8
0
100
AcDbLine
 10
1150.2814190600802
 20
770.0449293859051
 30
0.0
 11
1149.8301416217846
 21
770.317617938716
 31
0.0
  0
LINE
  5
1A9
330
17
100
AcDbEntity
  8
0
100
AcDbLine
 10
1149.8301416217846
 20
770.317617938716
 30
0.0
 11
1149.3597480056617
 21
770.5558199938314
 31
0.0
  0
LINE
  5
1AA
330
17
100
AcDbEntity
  8
0
100
AcDbLine
 10
1149.3597480056617
 20
770.5558199938314
 30
0.0
 11
1148.8728688436217
 21
770.7582034287333
 31
0.0
  0
LINE
  5
1AB
330
17
100
AcDbEntity
  8
0
100
AcDbLine
 10
1148.8728688436217
 20
770.7582034287333
 30
0.0
 11
1148.3722269614364
 21
770.9236364331597
 31
0.0
  0
LINE
  5
1AC
330
17
100
AcDbEntity
  8
0
100
AcDbLine
 10
1148.3722269614364
 20
770.9236364331597
 30
0.0
 11
1147.8606221515927
 21
771.0511938386434
 31
0.0
  0
LINE
  5
1AD
330
17
100
AcDbEntity
  8
0
100
AcDbLine
 10
1147.8606221515927
 20
771.0511938386434
 30
0.0
 11
1147.3409155157087
 21
771.1401622924311
 31
0.0
  0
LINE
  5
1AE
330
17
100
AcDbEntity
  8
0
100
AcDbLine
 10
1147.3409155157087
 20
771.1401622924311
 30
0.0
 11
1146.816013464108
 21
771.1900442468412
 31
0.0
  0
LINE
  5
1AF
330
17
100
AcDbEntity
  8
0
100
AcDbLine
 10
1146.816013464108
 20
771.1900442468412
 30
0.0
 11
1146.2888514619822
 21
771.2005607417491
 31
0.0
  0
LINE
  5
1B0
330
17
100
AcDbEntity
  8
0
100
AcDbLine
 10
1146.2888514619822
 20
771.2005607417491
 30
0.0
 11
1145.7623776130838
 21
771.1716529646509
 31
0.0
  0
LINE
  5
1B1
330
17
100
AcDbEntity
  8
0
100
AcDbLine
 10
1145.7623776130838
 20
771.1716529646509
 30
0.0
 11
1145.2395361727338
 21
771.1034825795607
 31
0.0
  0
LINE
  5
1B2
330
17
100
AcDbEntity
  8
0
100
AcDbLine
 10
1145.2395361727338
 20
771.1034825795607
 30
0.0
 11
1144.7232510823503
 21
770.9964308229258
 31
0.0
  0
LINE
  5
1B3
330
17
100
AcDbEntity
  8
0
100
AcDbLine
 10
1144.7232510823503
 20
770.9964308229258
 30
0.0
 11
1144.2164096175836
 21
770.8510963715929
 31
0.0
  0
LINE
  5
1B4
330
17
100
AcDbEntity
  8
0
100
AcDbLine
 10
1144.2164096175836
 20
770.8510963715929
 30
0.0
 11
1143.7218462415005
 21
770.6682919947665
 31
0.0
  0
LINE
  5
1B5
330
17
100
AcDbEntity
  8
0
100
AcDbLine
 10
1143.7218462415005
 20
770.6682919947665
 30
0.0
 11
1143.24232675311
 21
770.449040008675
 31
0.0
  0
LINE
  5
1B6
330
17
100
AcDbEntity
  8
0
100
AcDbLine
 10
1143.24232675311
 20
770.449040008675
 30
0.0
 11
1142.7805328199054
 21
770.1945665593607
 31
0.0
  0
LINE
  5
1B7
330
17
100
AcDbEntity
  8
0
100
AcDbLine
 10
1142.7805328199054
 20
770.1945665593607
 30
0.0
 11
1142.3390469808803
 21
769.9062947655787
 31
0.0
  0
LINE
  5
1B8
330
17
100
AcDbEntity
  8
0
100
AcDbLine
 10
1142.3390469808803
 20
769.9062947655787
 30
0.0
 11
1141.9203382039318
 21
769.5858367601297
 31
0.0
  0
LINE
  5
1B9
330
17
100
AcDbEntity
  8
0
100
AcDbLine
 10
1141.9203382039318
 20
769.5858367601297
 30
0.0
 11
1141.5267480783818
 21
769.2349846741728
 31
0.0
  0
LINE
  5
1BA
330
17
100
AcDbEntity
  8
0
100
AcDbLine
 10
1141.5267480783818
 20
769.2349846741728
 30
0.0
 11
1141.1604777198695
 21
768.8557006148906
 31
0.0
  0
LINE
  5
1BB
330
17
100
AcDbEntity
  8
0
100
AcDbLine
 10
1141.1604777198695
 20
768.8557006148906
 30
0.0
 11
1140.8235754608113
 21
768.4501056925935
 31
0.0
  0
LINE
  5
1BC
330
17
100
AcDbEntity
  8
0
100
AcDbLine
 10
1140.8235754608113
 20
768.4501056925935
 30
0.0
 11
1140.5179253953033
 21
768.0204681586138
 31
0.0
  0
LINE
  5
1BD
330
17
100
AcDbEntity
  8
0
100
AcDbLine
 10
1140.5179253953033
 20
768.0204681586138
 30
0.0
 11
1140.24523684249
 21
767.5691907203168
 31
0.0
  0
LINE
  5
1BE
330
17
100
AcDbEntity
  8
0
100
AcDbLine
 10
1140.24523684249
 20
767.5691907203168
 30
0.0
 11
1140.007034787376
 21
767.0987971041936
 31
0.0
  0
LINE
  5
1BF
330
17
100
AcDbEntity
  8
0
100
AcDbLine
 10
1140.007034787376
 20
767.0987971041936
 30
0.0
 11
1139.8046513524753
 21
766.6119179421539
 31
0.0
  0
LINE
  5
1C0
330
17
100
AcDbEntity
  8
0
100
AcDbLine
 10
1139.8046513524753
 20
766.6119179421539
 30
0.0
 11
1139.6392183480484
 21
766.1112760599706
 31
0.0
  0
LINE
  5
1C1
330
17
100
AcDbEntity
  8
0
100
AcDbLine
 10
1139.6392183480484
 20
766.1112760599706
 30
0.0
 11
1139.5116609425652
 21
765.5996712501249
 31
0.0
  0
LINE
  5
1C2
330
17
100
AcDbEntity
  8
0
100
AcDbLine
 10
1139.5116609425652
 20
765.5996712501249
 30
0.0
 11
1139.422692488777
 21
765.079964614241
 31
0.0
  0
LINE
  5
1C3
330
17
100
AcDbEntity
  8
0
100
AcDbLine
 10
1139.422692488777
 20
765.079964614241
 30
0.0
 11
1139.372810534367
 21
764.5550625626404
 31
0.0
  0
LINE
  5
1C4
330
17
100
AcDbEntity
  8
0
100
AcDbLine
 10
1139.372810534367
 20
764.5550625626404
 30
0.0
 11
1139.3622940394578
 21
764.0279005605146
 31
0.0
  0
LINE
  5
1C5
330
17
100
AcDbEntity
  8
0
100
AcDbLine
 10
1139.3622940394578
 20
764.0279005605146
 30
0.0
 11
1139.3912018165574
 21
763.5014267116173
 31
0.0
  0
LINE
  5
1C6
330
17
100
AcDbEntity
  8
0
100
AcDbLine
 10
1139.3912018165574
 20
763.5014267116173
 30
0.0
 11
1139.4593722016477
 21
762.9785852712662
 31
0.0
  0
LINE
  5
1C7
330
17
100
AcDbEntity
  8
0
100
AcDbLine
 10
1139.4593722016477
 20
762.9785852712662
 30
0.0
 11
1139.5664239582827
 21
762.4623001808825
 31
0.0
  0
LINE
  5
1C8
330
17
100
AcDbEntity
  8
0
100
AcDbLine
 10
1139.5664239582827
 20
762.4623001808825
 30
0.0
 11
1139.7117584096152
 21
761.955458716117
 31
0.0
  0
LINE
  5
1C9
330
17
100
AcDbEntity
  8
0
100
AcDbLine
 10
1139.7117584096152
 20
761.955458716117
 30
0.0
 11
1139.8945627864418
 21
761.460895340033
 31
0.0
  0
LINE
  5
1CA
330
17
100
AcDbEntity
  8
0
100
AcDbLine
 10
1139.8945627864418
 20
761.460895340033
 30
0.0
 11
1140.1138147725324
 21
760.9813758516436
 31
0.0
  0
LINE
  5
1CB
330
17
100
AcDbEntity
  8
0
100
AcDbLine
 10
1140.1138147725324
 20
760.9813758516436
 30
0.0
 11
1140.3682882218454
 21
760.5195819184378
 31
0.0
  0
LINE
  5
1CC
330
17
100
AcDbEntity
  8
0
100
AcDbLine
 10
1140.3682882218454
 20
760.5195819184378
 30
0.0
 11
1140.6565600156298
 21
760.0780960794141
 31
0.0
  0
LINE
  5
1CD
330
17
100
AcDbEntity
  8
0
100
AcDbLine
 10
1140.6565600156298
 20
760.0780960794141
 30
0.0
 11
1140.9770180210767
 21
759.6593873024642
 31
0.0
  0
LINE
  5
1CE
330
17
100
AcDbEntity
  8
0
100
AcDbLine
 10
1140.9770180210767
 20
759.6593873024642
 30
0.0
 11
1141.3278701070346
 21
759.2657971769147
 31
0.0
  0
LINE
  5
1CF
330
17
100
AcDbEntity
  8
0
100
AcDbLine
 10
1141.3278701070346
 20
759.2657971769147
 30
0.0
 11
1141.7071541663172
 21
758.8995268184021
 31
0.0
  0
LINE
  5
1D0
330
17
100
AcDbEntity
  8
0
100
AcDbLine
 10
1141.7071541663172
 20
758.8995268184021
 30
0.0
 11
1142.112749088614
 21
758.5626245593442
 31
0.0
  0
LINE
  5
1D1
330
17
100
AcDbEntity
  8
0
100
AcDbLine
 10
1142.112749088614
 20
758.5626245593442
 30
0.0
 11
1142.5423866225933
 21
758.2569744938355
 31
0.0
  0
LINE
  5
1D2
330
17
100
AcDbEntity
  8
0
100
AcDbLine
 10
1142.5423866225933
 20
758.2569744938355
 30
0.0
 11
1142.9936640608903
 21
757.9842859410232
 31
0.0
  0
LINE
  5
1D3
330
17
100
AcDbEntity
  8
0
100
AcDbLine
 10
1142.9936640608903
 20
757.9842859410232
 30
0.0
 11
1143.4640576770134
 21
757.7460838859081
 31
0.0
  0
LINE
  5
1D4
330
17
100
AcDbEntity
  8
0
100
AcDbLine
 10
1143.4640576770134
 20
757.7460838859081
 30
0.0
 11
1143.9509368390532
 21
757.5437004510071
 31
0.0
  0
LINE
  5
1D5
330
17
100
AcDbEntity
  8
0
100
AcDbLine
 10
1143.9509368390532
 20
757.5437004510071
 30
0.0
 11
1144.4515787212365
 21
757.3782674465813
 31
0.0
  0
LINE
  5
1D6
330
17
100
AcDbEntity
  8
0
100
AcDbLine
 10
1144.4515787212365
 20
757.3782674465813
 30
0.0
 11
1144.9631835310824
 21
757.2507100410963
 31
0.0
  0
LINE
  5
1D7
330
17
100
AcDbEntity
  8
0
100
AcDbLine
 10
1144.9631835310824
 20
757.2507100410963
 30
0.0
 11
1145.482890166966
 21
757.1617415873093
 31
0.0
  0
LINE
  5
1D8
330
17
100
AcDbEntity
  8
0
100
AcDbLine
 10
1145.482890166966
 20
757.1617415873093
 30
0.0
 11
1146.007792218567
 21
757.1118596328981
 31
0.0
  0
LINE
  5
1D9
330
17
100
AcDbEntity
  8
0
100
AcDbLine
 10
1146.007792218567
 20
757.1118596328981
 30
0.0
 11
1146.534954220693
 21
757.1013431379915
 31
0.0
  0
LINE
  5
1DA
330
17
100
AcDbEntity
  8
0
100
AcDbLine
 10
1146.534954220693
 20
757.1013431379915
 30
0.0
 11
1147.061428069591
 21
757.1302509150885
 31
0.0
  0
LINE
  5
1DB
330
17
100
AcDbEntity
  8
0
100
AcDbLine
 10
1147.061428069591
 20
757.1302509150885
 30
0.0
 11
1147.584269509941
 21
757.1984213001797
 31
0.0
  0
LINE
  5
1DC
330
17
100
AcDbEntity
  8
0
100
AcDbLine
 10
1147.584269509941
 20
757.1984213001797
 30
0.0
 11
1148.1005546003248
 21
757.3054730568139
 31
0.0
  0
LINE
  5
1DD
330
17
100
AcDbEntity
  8
0
100
AcDbLine
 10
1148.1005546003248
 20
757.3054730568139
 30
0.0
 11
1148.6073960650892
 21
757.450807508148
 31
0.0
  0
LINE
  5
1DE
330
17
100
AcDbEntity
  8
0
100
AcDbLine
 10
1148.6073960650892
 20
757.450807508148
 30
0.0
 11
1149.1019594411744
 21
757.6336118849739
 31
0.0
  0
LINE
  5
1DF
330
17
100
AcDbEntity
  8
0
100
AcDbLine
 10
1149.1019594411744
 20
757.6336118849739
 30
0.0
 11
1149.581478929565
 21
757.8528638710645
 31
0.0
  0
LINE
  5
1E0
330
17
100
AcDbEntity
  8
0
100
AcDbLine
 10
1149.581478929565
 20
757.8528638710645
 30
0.0
 11
1150.0432728627695
 21
758.1073373203785
 31
0.0
  0
LINE
  5
1E1
330
17
100
AcDbEntity
  8
0
100
AcDbLine
 10
1150.0432728627695
 20
758.1073373203785
 30
0.0
 11
1150.4847587017932
 21
758.395609114162
 31
0.0
  0
LINE
  5
1E2
330
17
100
AcDbEntity
  8
0
100
AcDbLine
 10
1150.4847587017932
 20
758.395609114162
 30
0.0
 11
1150.903467478743
 21
758.7160671196095
 31
0.0
  0
LINE
  5
1E3
330
17
100
AcDbEntity
  8
0
100
AcDbLine
 10
1150.903467478743
 20
758.7160671196095
 30
0.0
 11
1151.2970576042926
 21
759.0669192055673
 31
0.0
  0
LINE
  5
1E4
330
17
100
AcDbEntity
  8
0
100
AcDbLine
 10
1151.2970576042926
 20
759.0669192055673
 30
0.0
 11
1151.6633279628054
 21
759.44620326485
 31
0.0
  0
LINE
  5
1E5
330
17
100
AcDbEntity
  8
0
100
AcDbLine
 10
1151.6633279628054
 20
759.44620326485
 30
0.0
 11
1152.000230221863
 21
759.8517981871464
 31
0.0
  0
LINE
  5
1E6
330
17
100
AcDbEntity
  8
0
100
AcDbLine
 10
1152.000230221863
 20
759.8517981871464
 30
0.0
 11
1152.3058802873716
 21
760.2814357211271
 31
0.0
  0
LINE
  5
1E7
330
17
100
AcDbEntity
  8
0
100
AcDbLine
 10
1152.3058802873716
 20
760.2814357211271
 30
0.0
 11
1152.5785688401836
 21
760.7327131594227
 31
0.0
  0
LINE
  5
1E8
330
17
100
AcDbEntity
  8
0
100
AcDbLine
 10
1152.5785688401836
 20
760.7327131594227
 30
0.0
 11
1152.8167708952988
 21
761.2031067755468
 31
0.0
  0
LINE
  5
1E9
330
17
100
AcDbEntity
  8
0
100
AcDbLine
 10
1152.8167708952988
 20
761.2031067755468
 30
0.0
 11
1153.0191543302005
 21
761.6899859375856
 31
0.0
  0
LINE
  5
1EA
330
17
100
AcDbEntity
  8
0
100
AcDbLine
 10
1153.0191543302005
 20
761.6899859375856
 30
0.0
 11
1153.1845873346274
 21
762.1906278197699
 31
0.0
  0
LINE
  5
1EB
330
17
100
AcDbEntity
  8
0
100
AcDbLine
 10
1153.1845873346274
 20
762.1906278197699
 30
0.0
 11
1153.3121447401104
 21
762.7022326296144
 31
0.0
  0
LINE
  5
1EC
330
17
100
AcDbEntity
  8
0
100
AcDbLine
 10
1153.3121447401104
 20
762.7022326296144
 30
0.0
 11
1153.401113193898
 21
763.2219392654983
 31
0.0
  0
LINE
  5
1ED
330
17
100
AcDbEntity
  8
0
100
AcDbLine
 10
1153.401113193898
 20
763.2219392654983
 30
0.0
 11
1153.4509951483076
 21
763.7468413171005
 31
0.0
  0
LINE
  5
1EE
330
17
100
AcDbEntity
  8
0
100
AcDbLine
 10
1153.4509951483076
 20
763.7468413171005
 30
0.0
 11
1153.4615116432155
 21
764.2740033192254
 31
0.0
  0
ENDSEC
  0
SECTION
  2
OBJECTS
  0
DICTIONARY
  5
A
330
0
100
AcDbDictionary
281
1
  3
ACAD_COLOR
350
B
  3
ACAD_GROUP
350
C
  3
ACAD_LAYOUT
350
D
  3
ACAD_MATERIAL
350
E
  3
ACAD_MLEADERSTYLE
350
F
  3
ACAD_MLINESTYLE
350
10
  3
ACAD_PLOTSETTINGS
350
11
  3
ACAD_PLOTSTYLENAME
350
12
  3
ACAD_SCALELIST
350
14
  3
ACAD_TABLESTYLE
350
15
  3
ACAD_VISUALSTYLE
350
16
  3
EZDXF_META
350
2D
  0
DICTIONARY
  5
B
330
A
100
AcDbDictionary
281
1
  0
DICTIONARY
  5
C
330
A
100
AcDbDictionary
281
1
  0
DICTIONARY
  5
D
330
A
100
AcDbDictionary
281
1
  3
Model
350
1A
  3
Layout1
350
1E
  0
DICTIONARY
  5
E
330
A
100
AcDbDictionary
281
1
  3
ByBlock
350
1F
  3
ByLayer
350
20
  3
Global
350
21
  0
DICTIONARY
  5
F
330
A
100
AcDbDictionary
281
1
  3
Standard
350
2C
  0
DICTIONARY
  5
10
330
A
100
AcDbDictionary
281
1
  3
Standard
350
22
  0
DICTIONARY
  5
11
330
A
100
AcDbDictionary
281
1
  0
ACDBDICTIONARYWDFLT
  5
12
330
A
100
AcDbDictionary
281
1
  3
Normal
350
13
100
AcDbDictionaryWithDefault
340
13
  0
ACDBPLACEHOLDER
  5
13
330
12
  0
DICTIONARY
  5
14
330
A
100
AcDbDictionary
281
1
  0
DICTIONARY
  5
15
330
A
100
AcDbDictionary
281
1
  0
DICTIONARY
  5
16
330
A
100
AcDbDictionary
281
1
  0
LAYOUT
  5
1A
330
D
100
AcDbPlotSettings
  1

  4
A3
  6

 40
7.5
 41
20.0
 42
7.5
 43
20.0
 44
420.0
 45
297.0
 46
0.0
 47
0.0
 48
0.0
 49
0.0
140
0.0
141
0.0
142
1.0
143
1.0
 70
1024
 72
1
 73
0
 74
5
  7

 75
16
 76
0
 77
2
 78
300
147
1.0
148
0.0
149
0.0
100
AcDbLayout
  1
Model
 70
1
 71
0
 10
0.0
 20
0.0
 11
420.0
 21
297.0
 12
0.0
 22
0.0
 32
0.0
 14
1e+20
 24
1e+20
 34
1e+20
 15
-1e+20
 25
-1e+20
 35
-1e+20
146
0.0
 13
0.0
 23
0.0
 33
0.0
 16
1.0
 26
0.0
 36
0.0
 17
0.0
 27
1.0
 37
0.0
 76
1
330
17
  0
LAYOUT
  5
1E
330
D
100
AcDbPlotSettings
  1

  4
A3
  6

 40
7.5
 41
20.0
 42
7.5
 43
20.0
 44
420.0
 45
297.0
 46
0.0
 47
0.0
 48
0.0
 49
0.0
140
0.0
141
0.0
142
1.0
143
1.0
 70
0
 72
1
 73
0
 74
5
  7

 75
16
 76
0
 77
2
 78
300
147
1.0
148
0.0
149
0.0
100
AcDbLayout
  1
Layout1
 70
1
 71
1
 10
0.0
 20
0.0
 11
420.0
 21
297.0
 12
0.0
 22
0.0
 32
0.0
 14
1e+20
 24
1e+20
 34
1e+20
 15
-1e+20
 25
-1e+20
 35
-1e+20
146
0.0
 13
0.0
 23
0.0
 33
0.0
 16
1.0
 26
0.0
 36
0.0
 17
0.0
 27
1.0
 37
0.0
 76
1
330
1B
  0
MATERIAL
  5
1F
102
{ACAD_REACTORS
330
E
102
}
330
E
100
AcDbMaterial
  1
ByBlock
  2

 70
0
 40
1.0
 71
1
 41
1.0
 91
-1023410177
 42
1.0
 72
1
  3

 73
1
 74
1
 75
1
 44
0.5
 73
0
 45
1.0
 46
1.0
 77
1
  4

 78
1
 79
1
170
1
 48
1.0
171
1
  6

172
1
173
1
174
1
140
1.0
141
1.0
175
1
  7

176
1
177
1
178
1
143
1.0
179
1
  8

270
1
271
1
272
1
145
1.0
146
1.0
273
1
  9

274
1
275
1
276
1
 42
1.0
 72
1
  3

 73
1
 74
1
 75
1
 94
63
  0
MATERIAL
  5
20
102
{ACAD_REACTORS
330
E
102
}
330
E
100
AcDbMaterial
  1
ByLayer
  2

 70
0
 40
1.0
 71
1
 41
1.0
 91
-1023410177
 42
1.0
 72
1
  3

 73
1
 74
1
 75
1
 44
0.5
 73
0
 45
1.0
 46
1.0
 77
1
  4

 78
1
 79
1
170
1
 48
1.0
171
1
  6

172
1
173
1
174
1
140
1.0
141
1.0
175
1
  7

176
1
177
1
178
1
143
1.0
179
1
  8

270
1
271
1
272
1
145
1.0
146
1.0
273
1
  9

274
1
275
1
276
1
 42
1.0
 72
1
  3

 73
1
 74
1
 75
1
 94
63
  0
MATERIAL
  5
21
102
{ACAD_REACTORS
330
E
102
}
330
E
100
AcDbMaterial
  1
Global
  2

 70
0
 40
1.0
 71
1
 41
1.0
 91
-1023410177
 42
1.0
 72
1
  3

 73
1
 74
1
 75
1
 44
0.5
 73
0
 45
1.0
 46
1.0
 77
1
  4

 78
1
 79
1
170
1
 48
1.0
171
1
  6

172
1
173
1
174
1
140
1.0
141
1.0
175
1
  7

176
1
177
1
178
1
143
1.0
179
1
  8

270
1
271
1
272
1
145
1.0
146
1.0
273
1
  9

274
1
275
1
276
1
 42
1.0
 72
1
  3

 73
1
 74
1
 75
1
 94
63
  0
MLINESTYLE
  5
22
102
{ACAD_REACTORS
330
10
102
}
330
10
100
AcDbMlineStyle
  2
Standard
 70
0
  3

 62
256
 51
90.0
 52
90.0
 71
2
 49
0.5
 62
256
  6
BYLAYER
 49
-0.5
 62
256
  6
BYLAYER
  0
MLEADERSTYLE
  5
2C
102
{ACAD_REACTORS
330
F
102
}
330
F
100
AcDbMLeaderStyle
179
2
170
2
171
1
172
0
 90
2
 40
0.0
 41
0.0
173
1
 91
-1056964608
 92
-2
290
1
 42
2.0
291
1
 43
8.0
  3
Standard
 44
4.0
300

342
29
174
1
175
1
176
0
178
1
 93
-1056964608
 45
4.0
292
0
297
0
 46
4.0
 94
-1056964608
 47
1.0
 49
1.0
140
1.0
294
1
141
0.0
177
0
142
1.0
295
0
296
0
143
3.75
271
0
272
9
273
9
  0
DICTIONARY
  5
2D
330
A
100
AcDbDictionary
280
1
281
1
  3
CREATED_BY_EZDXF
350
2E
  3
WRITTEN_BY_EZDXF
350
1F1
  0
DICTIONARYVAR
  5
2E
330
2D
100
DictionaryVariables
280
0
  1
1.4.3 @ 2026-04-16T08:37:52.856627+00:00
  0
DICTIONARYVAR
  5
1F1
330
2D
100
DictionaryVariables
280
0
  1
1.4.3 @ 2026-04-16T08:37:52.875375+00:00
  0
ENDSEC
  0
EOF
