  0
SECTION
  2
HEADER
  9
$ACADVER
  1
AC1024
  9
$ACADMAINTVER
 70
6
  9
$DWGCODEPAGE
  3
ANSI_1252
  9
$LASTSAVEDBY
  1
ezdxf
  9
$INSBASE
 10
0.0
 20
0.0
 30
0.0
  9
$EXTMIN
 10
1e+20
 20
1e+20
 30
1e+20
  9
$EXTMAX
 10
-1e+20
 20
-1e+20
 30
-1e+20
  9
$LIMMIN
 10
0.0
 20
0.0
  9
$LIMMAX
 10
420.0
 20
297.0
  9
$ORTHOMODE
 70
0
  9
$REGENMODE
 70
1
  9
$FILLMODE
 70
1
  9
$QTEXTMODE
 70
0
  9
$MIRRTEXT
 70
1
  9
$LTSCALE
 40
1.0
  9
$ATTMODE
 70
1
  9
$TEXTSIZE
 40
2.5
  9
$TRACEWID
 40
1.0
  9
$TEXTSTYLE
  7
Standard
  9
$CLAYER
  8
0
  9
$CELTYPE
  6
ByLayer
  9
$CECOLOR
 62
256
  9
$CELTSCALE
 40
1.0
  9
$DISPSILH
 70
0
  9
$DIMSCALE
 40
1.0
  9
$DIMASZ
 40
2.5
  9
$DIMEXO
 40
0.625
  9
$DIMDLI
 40
3.75
  9
$DIMRND
 40
0.0
  9
$DIMDLE
 40
0.0
  9
$DIMEXE
 40
1.25
  9
$DIMTP
 40
0.0
  9
$DIMTM
 40
0.0
  9
$DIMTXT
 40
2.5
  9
$DIMCEN
 40
2.5
  9
$DIMTSZ
 40
0.0
  9
$DIMTOL
 70
0
  9
$DIMLIM
 70
0
  9
$DIMTIH
 70
0
  9
$DIMTOH
 70
0
  9
$DIMSE1
 70
0
  9
$DIMSE2
 70
0
  9
$DIMTAD
 70
1
  9
$DIMZIN
 70
8
  9
$DIMBLK
  1

  9
$DIMASO
 70
1
  9
$DIMSHO
 70
1
  9
$DIMPOST
  1

  9
$DIMAPOST
  1

  9
$DIMALT
 70
0
  9
$DIMALTD
 70
3
  9
$DIMALTF
 40
0.03937007874
  9
$DIMLFAC
 40
1.0
  9
$DIMTOFL
 70
1
  9
$DIMTVP
 40
0.0
  9
$DIMTIX
 70
0
  9
$DIMSOXD
 70
0
  9
$DIMSAH
 70
0
  9
$DIMBLK1
  1

  9
$DIMBLK2
  1

  9
$DIMSTYLE
  2
ISO-25
  9
$DIMCLRD
 70
0
  9
$DIMCLRE
 70
0
  9
$DIMCLRT
 70
0
  9
$DIMTFAC
 40
1.0
  9
$DIMGAP
 40
0.625
  9
$DIMJUST
 70
0
  9
$DIMSD1
 70
0
  9
$DIMSD2
 70
0
  9
$DIMTOLJ
 70
0
  9
$DIMTZIN
 70
8
  9
$DIMALTZ
 70
0
  9
$DIMALTTZ
 70
0
  9
$DIMUPT
 70
0
  9
$DIMDEC
 70
2
  9
$DIMTDEC
 70
2
  9
$DIMALTU
 70
2
  9
$DIMALTTD
 70
3
  9
$DIMTXSTY
  7
Standard
  9
$DIMAUNIT
 70
0
  9
$DIMADEC
 70
0
  9
$DIMALTRND
 40
0.0
  9
$DIMAZIN
 70
0
  9
$DIMDSEP
 70
44
  9
$DIMATFIT
 70
3
  9
$DIMFRAC
 70
0
  9
$DIMLDRBLK
  1

  9
$DIMLUNIT
 70
2
  9
$DIMLWD
 70
-2
  9
$DIMLWE
 70
-2
  9
$DIMTMOVE
 70
0
  9
$DIMFXL
 40
1.0
  9
$DIMFXLON
 70
0
  9
$DIMJOGANG
 40
0.785398163397
  9
$DIMTFILL
 70
0
  9
$DIMTFILLCLR
 70
0
  9
$DIMARCSYM
 70
0
  9
$DIMLTYPE
  6

  9
$DIMLTEX1
  6

  9
$DIMLTEX2
  6

  9
$DIMTXTDIRECTION
 70
0
  9
$LUNITS
 70
2
  9
$LUPREC
 70
4
  9
$SKETCHINC
 40
1.0
  9
$FILLETRAD
 40
10.0
  9
$AUNITS
 70
0
  9
$AUPREC
 70
2
  9
$MENU
  1
.
  9
$ELEVATION
 40
0.0
  9
$PELEVATION
 40
0.0
  9
$THICKNESS
 40
0.0
  9
$LIMCHECK
 70
0
  9
$CHAMFERA
 40
0.0
  9
$CHAMFERB
 40
0.0
  9
$CHAMFERC
 40
0.0
  9
$CHAMFERD
 40
0.0
  9
$SKPOLY
 70
0
  9
$TDCREATE
 40
2461147.578935185
  9
$TDUCREATE
 40
2458532.153996898
  9
$TDUPDATE
 40
2461147.578935185
  9
$TDUUPDATE
 40
2458532.1544311
  9
$TDINDWG
 40
0.0
  9
$TDUSRTIMER
 40
0.0
  9
$USRTIMER
 70
1
  9
$ANGBASE
 50
0.0
  9
$ANGDIR
 70
0
  9
$PDMODE
 70
0
  9
$PDSIZE
 40
0.0
  9
$PLINEWID
 40
0.0
  9
$SPLFRAME
 70
0
  9
$SPLINETYPE
 70
6
  9
$SPLINESEGS
 70
8
  9
$HANDSEED
  5
318
  9
$SURFTAB1
 70
6
  9
$SURFTAB2
 70
6
  9
$SURFTYPE
 70
6
  9
$SURFU
 70
6
  9
$SURFV
 70
6
  9
$UCSBASE
  2

  9
$UCSNAME
  2

  9
$UCSORG
 10
0.0
 20
0.0
 30
0.0
  9
$UCSXDIR
 10
1.0
 20
0.0
 30
0.0
  9
$UCSYDIR
 10
0.0
 20
1.0
 30
0.0
  9
$UCSORTHOREF
  2

  9
$UCSORTHOVIEW
 70
0
  9
$UCSORGTOP
 10
0.0
 20
0.0
 30
0.0
  9
$UCSORGBOTTOM
 10
0.0
 20
0.0
 30
0.0
  9
$UCSORGLEFT
 10
0.0
 20
0.0
 30
0.0
  9
$UCSORGRIGHT
 10
0.0
 20
0.0
 30
0.0
  9
$UCSORGFRONT
 10
0.0
 20
0.0
 30
0.0
  9
$UCSORGBACK
 10
0.0
 20
0.0
 30
0.0
  9
$PUCSBASE
  2

  9
$PUCSNAME
  2

  9
$PUCSORG
 10
0.0
 20
0.0
 30
0.0
  9
$PUCSXDIR
 10
1.0
 20
0.0
 30
0.0
  9
$PUCSYDIR
 10
0.0
 20
1.0
 30
0.0
  9
$PUCSORTHOREF
  2

  9
$PUCSORTHOVIEW
 70
0
  9
$PUCSORGTOP
 10
0.0
 20
0.0
 30
0.0
  9
$PUCSORGBOTTOM
 10
0.0
 20
0.0
 30
0.0
  9
$PUCSORGLEFT
 10
0.0
 20
0.0
 30
0.0
  9
$PUCSORGRIGHT
 10
0.0
 20
0.0
 30
0.0
  9
$PUCSORGFRONT
 10
0.0
 20
0.0
 30
0.0
  9
$PUCSORGBACK
 10
0.0
 20
0.0
 30
0.0
  9
$USERI1
 70
0
  9
$USERI2
 70
0
  9
$USERI3
 70
0
  9
$USERI4
 70
0
  9
$USERI5
 70
0
  9
$USERR1
 40
0.0
  9
$USERR2
 40
0.0
  9
$USERR3
 40
0.0
  9
$USERR4
 40
0.0
  9
$USERR5
 40
0.0
  9
$WORLDVIEW
 70
1
  9
$SHADEDGE
 70
3
  9
$SHADEDIF
 70
70
  9
$TILEMODE
 70
1
  9
$MAXACTVP
 70
64
  9
$PINSBASE
 10
0.0
 20
0.0
 30
0.0
  9
$PLIMCHECK
 70
0
  9
$PEXTMIN
 10
1e+20
 20
1e+20
 30
1e+20
  9
$PEXTMAX
 10
-1e+20
 20
-1e+20
 30
-1e+20
  9
$PLIMMIN
 10
0.0
 20
0.0
  9
$PLIMMAX
 10
420.0
 20
297.0
  9
$UNITMODE
 70
0
  9
$VISRETAIN
 70
1
  9
$PLINEGEN
 70
0
  9
$PSLTSCALE
 70
1
  9
$TREEDEPTH
 70
3020
  9
$CMLSTYLE
  2
Standard
  9
$CMLJUST
 70
0
  9
$CMLSCALE
 40
20.0
  9
$PROXYGRAPHICS
 70
1
  9
$MEASUREMENT
 70
1
  9
$CELWEIGHT
370
-1
  9
$ENDCAPS
280
0
  9
$JOINSTYLE
280
0
  9
$LWDISPLAY
290
0
  9
$INSUNITS
 70
0
  9
$HYPERLINKBASE
  1

  9
$STYLESHEET
  1

  9
$XEDIT
290
1
  9
$CEPSNTYPE
380
0
  9
$PSTYLEMODE
290
1
  9
$FINGERPRINTGUID
  2
{F9C23379-26FF-4BF5-B23D-5D61BB33A9B7}
  9
$VERSIONGUID
  2
{C2CCE579-2FA8-4E76-87F4-C47458ACF3BB}
  9
$EXTNAMES
290
1
  9
$PSVPSCALE
 40
0.0
  9
$OLESTARTUP
290
0
  9
$SORTENTS
280
127
  9
$INDEXCTL
280
0
  9
$HIDETEXT
280
1
  9
$XCLIPFRAME
280
1
  9
$HALOGAP
280
0
  9
$OBSCOLOR
 70
257
  9
$OBSLTYPE
280
0
  9
$INTERSECTIONDISPLAY
280
0
  9
$INTERSECTIONCOLOR
 70
257
  9
$DIMASSOC
280
2
  9
$PROJECTNAME
  1

  9
$CAMERADISPLAY
290
0
  9
$LENSLENGTH
 40
50.0
  9
$CAMERAHEIGHT
 40
0.0
  9
$STEPSPERSEC
 40
24.0
  9
$STEPSIZE
 40
100.0
  9
$3DDWFPREC
 40
2.0
  9
$PSOLWIDTH
 40
0.005
  9
$PSOLHEIGHT
 40
0.08
  9
$LOFTANG1
 40
1.570796326795
  9
$LOFTANG2
 40
1.570796326795
  9
$LOFTMAG1
 40
0.0
  9
$LOFTMAG2
 40
0.0
  9
$LOFTPARAM
 70
7
  9
$LOFTNORMALS
280
1
  9
$LATITUDE
 40
37.795
  9
$LONGITUDE
 40
-122.394
  9
$NORTHDIRECTION
 40
0.0
  9
$TIMEZONE
 70
-8000
  9
$LIGHTGLYPHDISPLAY
280
1
  9
$TILEMODELIGHTSYNCH
280
1
  9
$CMATERIAL
347
20
  9
$SOLIDHIST
280
0
  9
$SHOWHIST
280
1
  9
$DWFFRAME
280
2
  9
$DGNFRAME
280
2
  9
$REALWORLDSCALE
290
1
  9
$INTERFERECOLOR
 62
256
  9
$CSHADOW
280
0
  9
$SHADOWPLANELOCATION
 40
0.0
  0
ENDSEC
  0
SECTION
  2
CLASSES
  0
CLASS
  1
ACDBDICTIONARYWDFLT
  2
AcDbDictionaryWithDefault
  3
ObjectDBX Classes
 90
0
 91
0
280
0
281
0
  0
CLASS
  1
SUN
  2
AcDbSun
  3
SCENEOE
 90
1153
 91
0
280
0
281
0
  0
CLASS
  1
VISUALSTYLE
  2
AcDbVisualStyle
  3
ObjectDBX Classes
 90
4095
 91
0
280
0
281
0
  0
CLASS
  1
MATERIAL
  2
AcDbMaterial
  3
ObjectDBX Classes
 90
1153
 91
0
280
0
281
0
  0
CLASS
  1
SCALE
  2
AcDbScale
  3
ObjectDBX Classes
 90
1153
 91
0
280
0
281
0
  0
CLASS
  1
TABLESTYLE
  2
AcDbTableStyle
  3
ObjectDBX Classes
 90
4095
 91
0
280
0
281
0
  0
CLASS
  1
MLEADERSTYLE
  2
AcDbMLeaderStyle
  3
ACDB_MLEADERSTYLE_CLASS
 90
4095
 91
0
280
0
281
0
  0
CLASS
  1
DICTIONARYVAR
  2
AcDbDictionaryVar
  3
ObjectDBX Classes
 90
0
 91
0
280
0
281
0
  0
CLASS
  1
CELLSTYLEMAP
  2
AcDbCellStyleMap
  3
ObjectDBX Classes
 90
1152
 91
0
280
0
281
0
  0
CLASS
  1
MENTALRAYRENDERSETTINGS
  2
AcDbMentalRayRenderSettings
  3
SCENEOE
 90
1024
 91
0
280
0
281
0
  0
CLASS
  1
ACDBDETAILVIEWSTYLE
  2
AcDbDetailViewStyle
  3
ObjectDBX Classes
 90
1025
 91
0
280
0
281
0
  0
CLASS
  1
ACDBSECTIONVIEWSTYLE
  2
AcDbSectionViewStyle
  3
ObjectDBX Classes
 90
1025
 91
0
280
0
281
0
  0
CLASS
  1
RASTERVARIABLES
  2
AcDbRasterVariables
  3
ISM
 90
0
 91
0
280
0
281
0
  0
CLASS
  1
LAYOUT
  2
AcDbLayout
  3
ObjectDBX Classes
 90
0
 91
0
280
0
281
0
  0
CLASS
  1
ACDBPLACEHOLDER
  2
AcDbPlaceHolder
  3
ObjectDBX Classes
 90
0
 91
0
280
0
281
0
  0
ENDSEC
  0
SECTION
  2
TABLES
  0
TABLE
  2
VPORT
  5
8
330
0
100
AcDbSymbolTable
 70
1
  0
VPORT
  5
23
330
8
100
AcDbSymbolTableRecord
100
AcDbViewportTableRecord
  2
*Active
 70
0
 10
0.0
 20
0.0
 11
1.0
 21
1.0
 12
0.0
 22
0.0
 13
0.0
 23
0.0
 14
0.5
 24
0.5
 15
0.5
 25
0.5
 16
0.0
 26
0.0
 36
1.0
 17
0.0
 27
0.0
 37
0.0
 40
1000.0
 41
1.34
 42
50.0
 43
0.0
 44
0.0
 50
0.0
 51
0.0
 71
0
 72
1000
 73
1
 74
3
 75
0
 76
0
 77
0
 78
0
281
0
 65
0
146
0.0
  0
ENDTAB
  0
TABLE
  2
LTYPE
  5
2
330
0
100
AcDbSymbolTable
 70
3
  0
LTYPE
  5
24
330
2
100
AcDbSymbolTableRecord
100
AcDbLinetypeTableRecord
  2
ByBlock
 70
0
  3

 72
65
 73
0
 40
0.0
  0
LTYPE
  5
25
330
2
100
AcDbSymbolTableRecord
100
AcDbLinetypeTableRecord
  2
ByLayer
 70
0
  3

 72
65
 73
0
 40
0.0
  0
LTYPE
  5
26
330
2
100
AcDbSymbolTableRecord
100
AcDbLinetypeTableRecord
  2
Continuous
 70
0
  3

 72
65
 73
0
 40
0.0
  0
ENDTAB
  0
TABLE
  2
LAYER
  5
1
330
0
100
AcDbSymbolTable
 70
2
  0
LAYER
  5
27
330
1
100
AcDbSymbolTableRecord
100
AcDbLayerTableRecord
  2
0
 70
0
 62
7
  6
Continuous
370
-3
390
13
347
21
  0
LAYER
  5
28
330
1
100
AcDbSymbolTableRecord
100
AcDbLayerTableRecord
  2
Defpoints
 70
0
 62
7
  6
Continuous
290
0
370
-3
390
13
347
21
  0
ENDTAB
  0
TABLE
  2
STYLE
  5
5
330
0
100
AcDbSymbolTable
 70
1
  0
STYLE
  5
29
330
5
100
AcDbSymbolTableRecord
100
AcDbTextStyleTableRecord
  2
Standard
 70
0
 40
0.0
 41
1.0
 50
0.0
 71
0
 42
2.5
  3
txt
  4

  0
ENDTAB
  0
TABLE
  2
VIEW
  5
7
330
0
100
AcDbSymbolTable
 70
0
  0
ENDTAB
  0
TABLE
  2
UCS
  5
6
330
0
100
AcDbSymbolTable
 70
0
  0
ENDTAB
  0
TABLE
  2
APPID
  5
3
330
0
100
AcDbSymbolTable
 70
3
  0
APPID
  5
2A
330
3
100
AcDbSymbolTableRecord
100
AcDbRegAppTableRecord
  2
ACAD
 70
0
  0
APPID
  5
315
330
3
100
AcDbSymbolTableRecord
100
AcDbRegAppTableRecord
  2
HATCHBACKGROUNDCOLOR
 70
0
  0
APPID
  5
316
330
3
100
AcDbSymbolTableRecord
100
AcDbRegAppTableRecord
  2
EZDXF
 70
0
  0
ENDTAB
  0
TABLE
  2
DIMSTYLE
  5
4
330
0
100
AcDbSymbolTable
 70
1
100
AcDbDimStyleTable
  0
DIMSTYLE
105
2B
330
4
100
AcDbSymbolTableRecord
100
AcDbDimStyleTableRecord
  2
Standard
 70
0
 40
1.0
 41
2.5
 42
0.625
 43
3.75
 44
1.25
 45
0.0
 46
0.0
 47
0.0
 48
0.0
 49
2.5
140
2.5
141
2.5
142
0.0
143
0.03937007874
144
1.0
145
0.0
146
1.0
147
0.625
148
0.0
 69
0
 70
0
 71
0
 72
0
 73
0
 74
0
 75
0
 76
0
 77
1
 78
8
 79
3
170
0
171
3
172
1
173
0
174
0
175
0
176
0
177
0
178
0
179
2
271
2
272
2
273
2
274
3
275
0
276
0
277
2
278
44
279
0
280
0
281
0
282
0
283
0
284
8
285
0
286
0
288
0
289
3
290
0
371
-2
372
-2
  0
ENDTAB
  0
TABLE
  2
BLOCK_RECORD
  5
9
330
0
100
AcDbSymbolTable
 70
2
  0
BLOCK_RECORD
  5
17
330
9
100
AcDbSymbolTableRecord
100
AcDbBlockTableRecord
  2
*Model_Space
340
1A
 70
0
280
1
281
0
  0
BLOCK_RECORD
  5
1B
330
9
100
AcDbSymbolTableRecord
100
AcDbBlockTableRecord
  2
*Paper_Space
340
1E
 70
0
280
1
281
0
  0
ENDTAB
  0
ENDSEC
  0
SECTION
  2
BLOCKS
  0
BLOCK
  5
18
330
17
100
AcDbEntity
  8
0
100
AcDbBlockBegin
  2
*Model_Space
 70
0
 10
0.0
 20
0.0
 30
0.0
  3
*Model_Space
  1

  0
ENDBLK
  5
19
330
17
100
AcDbEntity
  8
0
100
AcDbBlockEnd
  0
BLOCK
  5
1C
330
1B
100
AcDbEntity
  8
0
100
AcDbBlockBegin
  2
*Paper_Space
 70
0
 10
0.0
 20
0.0
 30
0.0
  3
*Paper_Space
  1

  0
ENDBLK
  5
1D
330
1B
100
AcDbEntity
  8
0
100
AcDbBlockEnd
  0
ENDSEC
  0
SECTION
  2
ENTITIES
  0
LINE
  5
2F
330
17
100
AcDbEntity
  8
0
100
AcDbLine
 10
-12.793039640670576
 20
1864.5563607985819
 30
0.0
 11
2036.8947354299314
 21
1900.333793995013
 31
0.0
  0
LINE
  5
30
330
17
100
AcDbEntity
  8
0
100
AcDbLine
 10
532.6076259156065
 20
1884.7079053227149
 30
0.0
 11
565.6483124270084
 21
-8.191757169450398
 31
0.0
  0
LINE
  5
31
330
17
100
AcDbEntity
  8
0
100
AcDbLine
 10
-1.4558464825927078
 20
1215.0489997717923
 30
0.0
 11
2048.2319285880094
 21
1250.8264329682236
 31
0.0
  0
LINE
  5
32
330
17
100
AcDbEntity
  8
0
100
AcDbLine
 10
532.7931436218296
 20
1874.0796030513673
 30
0.0
 11
650.8853910812458
 21
1876.1409108982905
 31
0.0
  0
LINE
  5
33
330
17
100
AcDbEntity
  8
0
100
AcDbLine
 10
1064.2082571892029
 20
1883.355488362522
 30
0.0
 11
1097.0634259943815
 21
1.084128141704241
 31
0.0
  0
LINE
  5
34
330
17
100
AcDbEntity
  8
0
100
AcDbLine
 10
1595.6233707565764
 20
1892.6313736736765
 30
0.0
 11
1628.478539561755
 21
10.360013452858766
 31
0.0
  0
LINE
  5
35
330
17
100
AcDbEntity
  8
0
100
AcDbLine
 10
9.88134667548514
 20
565.5416387450041
 30
0.0
 11
2059.569121746087
 21
601.3190719414351
 31
0.0
  0
LINE
  5
36
330
17
100
AcDbEntity
  8
0
100
AcDbLine
 10
532.7931436218296
 20
1874.0796030513673
 30
0.0
 11
540.0489472429995
 21
1458.3948919942195
 31
0.0
  0
LINE
  5
37
330
17
100
AcDbEntity
  8
0
100
AcDbLine
 10
518.3747169850717
 20
1888.0033158048661
 30
0.0
 11
658.9044914617771
 21
1890.4562721427046
 31
0.0
  0
LINE
  5
38
330
17
100
AcDbEntity
  8
0
100
AcDbLine
 10
2053.818072853171
 20
930.7964423532065
 30
0.0
 11
1944.385923540776
 21
928.8862970817244
 31
0.0
  0
LINE
  5
39
330
17
100
AcDbEntity
  8
0
100
AcDbLine
 10
2054.12726903021
 20
913.0826052342929
 30
0.0
 11
1602.2276020855097
 21
905.1946672067334
 31
0.0
  0
LINE
  5
3A
330
17
100
AcDbEntity
  8
0
100
AcDbLine
 10
1944.385923540776
 20
928.8862970817244
 30
0.0
 11
1940.4694386316219
 21
1153.2615672546165
 31
0.0
  0
LINE
  5
3B
330
17
100
AcDbEntity
  8
0
100
AcDbLine
 10
2049.901587944017
 20
1155.1717125260986
 30
0.0
 11
1940.4694386316219
 21
1153.2615672546165
 31
0.0
  0
LINE
  5
3C
330
17
100
AcDbEntity
  8
0
100
AcDbLine
 10
1926.6720864218662
 20
928.5771009046858
 30
0.0
 11
1922.755601512712
 21
1152.952371077578
 31
0.0
  0
LINE
  5
3D
330
17
100
AcDbEntity
  8
0
100
AcDbLine
 10
1926.6720864218662
 20
928.5771009046858
 30
0.0
 11
1619.6322430273813
 21
923.2177005026855
 31
0.0
  0
LINE
  5
3E
330
17
100
AcDbEntity
  8
0
100
AcDbLine
 10
545.0480405242586
 20
359.8896336800151
 30
0.0
 11
551.4772427318812
 21
-8.439114111081153
 31
0.0
  0
LINE
  5
3F
330
17
100
AcDbEntity
  8
0
100
AcDbLine
 10
2049.5923917669784
 20
1172.8855496450074
 30
0.0
 11
1833.877219741111
 21
1169.1202273112942
 31
0.0
  0
LINE
  5
40
330
17
100
AcDbEntity
  8
0
100
AcDbLine
 10
1922.755601512712
 20
1152.952371077578
 30
0.0
 11
1615.715758118227
 21
1147.5929706755776
 31
0.0
  0
LINE
  5
41
330
17
100
AcDbEntity
  8
0
100
AcDbLine
 10
1615.4065619411888
 20
1165.3068077944863
 30
0.0
 11
1614.2316164684426
 21
1232.619388846355
 31
0.0
  0
LINE
  5
42
330
17
100
AcDbEntity
  8
0
100
AcDbLine
 10
1619.6322430273813
 20
923.2177005026855
 30
0.0
 11
1615.715758118227
 21
1147.5929706755776
 31
0.0
  0
LINE
  5
43
330
17
100
AcDbEntity
  8
0
100
AcDbLine
 10
1602.2276020855097
 20
905.1946672067334
 30
0.0
 11
1596.5177793495325
 21
1232.3101926693164
 31
0.0
  0
LINE
  5
44
330
17
100
AcDbEntity
  8
0
100
AcDbLine
 10
1366.7305414700013
 20
1876.823211704705
 30
0.0
 11
1578.3391133565954
 21
1597.0091065342203
 31
0.0
  0
LINE
  5
45
330
17
100
AcDbEntity
  8
0
100
AcDbLine
 10
1371.677680302617
 20
1593.4018178021047
 30
0.0
 11
1573.3919745239796
 21
1880.4305004368207
 31
0.0
  0
LINE
  5
46
330
17
100
AcDbEntity
  8
0
100
AcDbLine
 10
1833.877219741111
 20
1169.1202273112942
 30
0.0
 11
1833.258827387034
 21
1204.5479015491205
 31
0.0
  0
LINE
  5
47
330
17
100
AcDbEntity
  8
0
100
AcDbLine
 10
1816.1633826221987
 20
1168.8110311342557
 30
0.0
 11
1815.5449902681216
 21
1204.238705372082
 31
0.0
  0
LINE
  5
48
330
17
100
AcDbEntity
  8
0
100
AcDbLine
 10
1971.54775331244
 20
1403.0546017480594
 30
0.0
 11
1965.3638297716702
 21
1757.3313441263085
 31
0.0
  0
LINE
  5
49
330
17
100
AcDbEntity
  8
0
100
AcDbLine
 10
1983.3569780583819
 20
1403.2607325327517
 30
0.0
 11
1977.1730545176122
 21
1757.5374749110008
 31
0.0
  0
LINE
  5
4A
330
17
100
AcDbEntity
  8
0
100
AcDbLine
 10
1823.6531328203716
 20
1754.8577747100005
 30
0.0
 11
2039.3683048462392
 21
1758.6230970437136
 31
0.0
  0
LINE
  5
4B
330
17
100
AcDbEntity
  8
0
100
AcDbLine
 10
1824.2715251744487
 20
1719.4301004721756
 30
0.0
 11
1965.9822221257473
 21
1721.9036698884834
 31
0.0
  0
LINE
  5
4C
330
17
100
AcDbEntity
  8
0
100
AcDbLine
 10
1824.8899175285255
 20
1684.0024262343507
 30
0.0
 11
1966.6006144798241
 21
1686.4759956506587
 31
0.0
  0
LINE
  5
4D
330
17
100
AcDbEntity
  8
0
100
AcDbLine
 10
1825.5083098826026
 20
1648.5747519965269
 30
0.0
 11
1967.2190068339012
 21
1651.0483214128349
 31
0.0
  0
LINE
  5
4E
330
17
100
AcDbEntity
  8
0
100
AcDbLine
 10
1826.1267022366796
 20
1613.1470777586987
 30
0.0
 11
1967.8373991879782
 21
1615.6206471750065
 31
0.0
  0
LINE
  5
4F
330
17
100
AcDbEntity
  8
0
100
AcDbLine
 10
1826.7450945907565
 20
1577.719403520876
 30
0.0
 11
1968.455791542055
 21
1580.192972937184
 31
0.0
  0
LINE
  5
50
330
17
100
AcDbEntity
  8
0
100
AcDbLine
 10
1827.3634869448335
 20
1542.2917292830512
 30
0.0
 11
1898.2188354204834
 21
1543.528513991205
 31
0.0
  0
LINE
  5
51
330
17
100
AcDbEntity
  8
0
100
AcDbLine
 10
1829.8370563611413
 20
1400.5810323317514
 30
0.0
 11
2045.5522283870089
 21
1404.3463546654646
 31
0.0
  0
LINE
  5
52
330
17
100
AcDbEntity
  8
0
100
AcDbLine
 10
1833.258827387034
 20
1204.5479015491205
 30
0.0
 11
1815.5449902681216
 21
1204.238705372082
 31
0.0
  0
LINE
  5
53
330
17
100
AcDbEntity
  8
0
100
AcDbLine
 10
1830.785257970726
 20
1346.2585985004214
 30
0.0
 11
1813.0714208518136
 21
1345.9494023233829
 31
0.0
  0
LINE
  5
54
330
17
100
AcDbEntity
  8
0
100
AcDbLine
 10
1813.0714208518136
 20
1345.9494023233829
 30
0.0
 11
1803.4657262851515
 21
1896.2592754842613
 31
0.0
  0
LINE
  5
55
330
17
100
AcDbEntity
  8
0
100
AcDbLine
 10
1830.785257970726
 20
1346.2585985004214
 30
0.0
 11
1821.1795634040639
 21
1896.5684716613
 31
0.0
  0
LINE
  5
56
330
17
100
AcDbEntity
  8
0
100
AcDbLine
 10
1816.1633826221987
 20
1168.8110311342557
 30
0.0
 11
1615.4065619411888
 21
1165.3068077944863
 31
0.0
  0
LINE
  5
57
330
17
100
AcDbEntity
  8
0
100
AcDbLine
 10
1977.7914468716892
 20
1722.1098006731759
 30
0.0
 11
2039.9866972003163
 21
1723.1954228058885
 31
0.0
  0
LINE
  5
58
330
17
100
AcDbEntity
  8
0
100
AcDbLine
 10
1978.409839225766
 20
1686.682126435351
 30
0.0
 11
2040.605089554393
 21
1687.7677485680638
 31
0.0
  0
LINE
  5
59
330
17
100
AcDbEntity
  8
0
100
AcDbLine
 10
1979.0282315798431
 20
1651.2544521975271
 30
0.0
 11
2041.2234819084701
 21
1652.34007433024
 31
0.0
  0
LINE
  5
5A
330
17
100
AcDbEntity
  8
0
100
AcDbLine
 10
1979.6466239339202
 20
1615.826777959699
 30
0.0
 11
2041.8418742625472
 21
1616.9124000924116
 31
0.0
  0
LINE
  5
5B
330
17
100
AcDbEntity
  8
0
100
AcDbLine
 10
1980.265016287997
 20
1580.3991037218764
 30
0.0
 11
2042.460266616624
 21
1581.4847258545892
 31
0.0
  0
LINE
  5
5C
330
17
100
AcDbEntity
  8
0
100
AcDbLine
 10
1980.883408642074
 20
1544.9714294840514
 30
0.0
 11
2043.078658970701
 21
1546.0570516167643
 31
0.0
  0
LINE
  5
5D
330
17
100
AcDbEntity
  8
0
100
AcDbLine
 10
1981.5018009961511
 20
1509.5437552462263
 30
0.0
 11
2043.6970513247782
 21
1510.6293773789391
 31
0.0
  0
LINE
  5
5E
330
17
100
AcDbEntity
  8
0
100
AcDbLine
 10
1982.120193350228
 20
1474.1160810084027
 30
0.0
 11
2044.315443678855
 21
1475.2017031411156
 31
0.0
  0
LINE
  5
5F
330
17
100
AcDbEntity
  8
0
100
AcDbLine
 10
1982.738585704305
 20
1438.6884067705746
 30
0.0
 11
2044.933836032932
 21
1439.7740289032872
 31
0.0
  0
LINE
  5
60
330
17
100
AcDbEntity
  8
0
100
AcDbLine
 10
2025.2739057092924
 20
1735.2112879065376
 30
0.0
 11
2039.5194674216802
 21
1749.9629988966915
 31
0.0
  0
LINE
  5
61
330
17
100
AcDbEntity
  8
0
100
AcDbLine
 10
1894.5084812960215
 20
1756.0945594181544
 30
0.0
 11
1898.2188354204834
 21
1543.528513991205
 31
0.0
  0
LINE
  5
62
330
17
100
AcDbEntity
  8
0
100
AcDbLine
 10
1874.6558637078654
 20
1566.2830112751753
 30
0.0
 11
1898.2188354204834
 21
1543.528513991205
 31
0.0
  0
LINE
  5
63
330
17
100
AcDbEntity
  8
0
100
AcDbLine
 10
1920.973332704452
 20
1567.0914857038215
 30
0.0
 11
1898.2188354204834
 21
1543.528513991205
 31
0.0
  0
LINE
  5
64
330
17
100
AcDbEntity
  8
0
100
AcDbLine
 10
1827.9818792989106
 20
1506.864055045226
 30
0.0
 11
1968.455791542055
 21
1580.192972937184
 31
0.0
  0
LINE
  5
65
330
17
100
AcDbEntity
  8
0
100
AcDbLine
 10
1300.145395166405
 20
1901.649173751498
 30
0.0
 11
1629.6227655781786
 21
1907.4002226444138
 31
0.0
  0
LINE
  5
66
330
17
100
AcDbEntity
  8
0
100
AcDbLine
 10
1300.392752108036
 20
1887.4781040563685
 30
0.0
 11
1629.8701225198095
 21
1893.229152949284
 31
0.0
  0
LINE
  5
67
330
17
100
AcDbEntity
  8
0
100
AcDbLine
 10
546.1710315483615
 20
1107.6609170397564
 30
0.0
 11
531.9999618532344
 21
1107.4135600981258
 31
0.0
  0
LINE
  5
68
330
17
100
AcDbEntity
  8
0
100
AcDbLine
 10
548.0262086105924
 20
1001.3778943262809
 30
0.0
 11
533.8551389154653
 21
1001.1305373846501
 31
0.0
  0
LINE
  5
69
330
17
100
AcDbEntity
  8
0
100
AcDbLine
 10
550.9738788316928
 20
832.5059804593109
 30
0.0
 11
548.0262086105924
 21
1001.3778943262809
 31
0.0
  0
LINE
  5
6A
330
17
100
AcDbEntity
  8
0
100
AcDbLine
 10
536.8028091365657
 20
832.2586235176802
 30
0.0
 11
533.7108473661807
 21
1009.3969947068055
 31
0.0
  0
LINE
  5
6B
330
17
100
AcDbEntity
  8
0
100
AcDbLine
 10
559.3634017686703
 20
351.8705332994913
 30
0.0
 11
565.6483124270084
 21
-8.191757169450398
 31
0.0
  0
LINE
  5
6C
330
17
100
AcDbEntity
  8
0
100
AcDbLine
 10
553.653579032693
 20
678.9860587620717
 30
0.0
 11
557.5082247064394
 21
458.15355601296574
 31
0.0
  0
LINE
  5
6D
330
17
100
AcDbEntity
  8
0
100
AcDbLine
 10
557.5082247064394
 20
458.15355601296574
 30
0.0
 11
543.3371550113122
 21
457.906199071335
 31
0.0
  0
LINE
  5
6E
330
17
100
AcDbEntity
  8
0
100
AcDbLine
 10
559.3634017686703
 20
351.8705332994913
 30
0.0
 11
545.1923320735432
 21
351.62317635786053
 31
0.0
  0
LINE
  5
6F
330
17
100
AcDbEntity
  8
0
100
AcDbLine
 10
541.9041243052304
 20
1352.1118692807472
 30
0.0
 11
527.7330546101033
 21
1351.8645123391166
 31
0.0
  0
LINE
  5
70
330
17
100
AcDbEntity
  8
0
100
AcDbLine
 10
540.0489472429995
 20
1458.3948919942195
 30
0.0
 11
525.8778775478723
 21
1458.1475350525889
 31
0.0
  0
LINE
  5
71
330
17
100
AcDbEntity
  8
0
100
AcDbLine
 10
541.9041243052304
 20
1352.1118692807472
 30
0.0
 11
546.1710315483615
 21
1107.6609170397564
 31
0.0
  0
LINE
  5
72
330
17
100
AcDbEntity
  8
0
100
AcDbLine
 10
1629.8701225198095
 20
1893.229152949284
 30
0.0
 11
1629.6227655781786
 21
1907.4002226444138
 31
0.0
  0
LINE
  5
73
330
17
100
AcDbEntity
  8
0
100
AcDbLine
 10
1771.5808194711078
 20
1895.7027223655923
 30
0.0
 11
1771.333462529477
 21
1909.8737920607218
 31
0.0
  0
LINE
  5
74
330
17
100
AcDbEntity
  8
0
100
AcDbLine
 10
1771.5808194711078
 20
1895.7027223655923
 30
0.0
 11
1951.0810356094246
 21
1898.8359102929157
 31
0.0
  0
LINE
  5
75
330
17
100
AcDbEntity
  8
0
100
AcDbLine
 10
1771.333462529477
 20
1909.8737920607218
 30
0.0
 11
1959.1001359899492
 21
1913.1512715373296
 31
0.0
  0
LINE
  5
76
330
17
100
AcDbEntity
  8
0
100
AcDbLine
 10
1951.0810356094246
 20
1898.8359102929157
 30
0.0
 11
1950.8336786677937
 21
1913.0069799880453
 31
0.0
  0
LINE
  5
77
330
17
100
AcDbEntity
  8
0
100
AcDbLine
 10
446.28258380126516
 20
1957.621879572362
 30
0.0
 11
1021.3918289286231
 21
1967.6604487868785
 31
0.0
  0
LINE
  5
78
330
17
100
AcDbEntity
  8
0
100
AcDbLine
 10
446.28258380126516
 20
1957.621879572362
 30
0.0
 11
465.4321336991822
 21
860.5449006743811
 31
0.0
  0
LINE
  5
79
330
17
100
AcDbEntity
  8
0
100
AcDbLine
 10
469.14248782364405
 20
647.978855247433
 30
0.0
 11
480.6218942562287
 21
-9.675898819235158
 31
0.0
  0
LINE
  5
7A
330
17
100
AcDbEntity
  8
0
100
AcDbLine
 10
1099.6359314270328
 20
1883.973880716599
 30
0.0
 11
1099.388574485402
 21
1898.1449504117286
 31
0.0
  0
LINE
  5
7B
330
17
100
AcDbEntity
  8
0
100
AcDbLine
 10
1300.392752108036
 20
1887.4781040563685
 30
0.0
 11
1300.145395166405
 21
1901.649173751498
 31
0.0
  0
LINE
  5
7C
330
17
100
AcDbEntity
  8
0
100
AcDbLine
 10
550.9738788316928
 20
832.5059804593109
 30
0.0
 11
536.8028091365657
 21
832.2586235176802
 31
0.0
  0
LINE
  5
7D
330
17
100
AcDbEntity
  8
0
100
AcDbLine
 10
553.653579032693
 20
678.9860587620717
 30
0.0
 11
539.4825093375658
 21
678.738701820441
 31
0.0
  0
LINE
  5
7E
330
17
100
AcDbEntity
  8
0
100
AcDbLine
 10
650.638034139615
 20
1890.3119805934202
 30
0.0
 11
650.8853910812458
 21
1876.1409108982905
 31
0.0
  0
LINE
  5
7F
330
17
100
AcDbEntity
  8
0
100
AcDbLine
 10
839.5856300746841
 20
1893.6100731484973
 30
0.0
 11
839.8329870163149
 21
1879.4390034533676
 31
0.0
  0
LINE
  5
80
330
17
100
AcDbEntity
  8
0
100
AcDbLine
 10
839.8329870163149
 20
1879.4390034533676
 30
0.0
 11
1099.6359314270328
 21
1883.973880716599
 31
0.0
  0
LINE
  5
81
330
17
100
AcDbEntity
  8
0
100
AcDbLine
 10
650.638034139615
 20
1890.3119805934202
 30
0.0
 11
839.5856300746841
 21
1893.6100731484973
 31
0.0
  0
LINE
  5
82
330
17
100
AcDbEntity
  8
0
100
AcDbLine
 10
650.8853910812458
 20
1876.1409108982905
 30
0.0
 11
839.8329870163149
 21
1879.4390034533676
 31
0.0
  0
LINE
  5
83
330
17
100
AcDbEntity
  8
0
100
AcDbLine
 10
536.8028091365657
 20
832.2586235176802
 30
0.0
 11
539.4825093375658
 21
678.738701820441
 31
0.0
  0
LINE
  5
84
330
17
100
AcDbEntity
  8
0
100
AcDbLine
 10
1099.388574485402
 20
1898.1449504117286
 30
0.0
 11
1300.145395166405
 21
1901.649173751498
 31
0.0
  0
LINE
  5
85
330
17
100
AcDbEntity
  8
0
100
AcDbLine
 10
290.1489395722923
 20
751.1699161905243
 30
0.0
 11
361.0042880479415
 21
752.4067008986783
 31
0.0
  0
LINE
  5
86
330
17
100
AcDbEntity
  8
0
100
AcDbLine
 10
338.2497907639694
 20
728.84372918606
 30
0.0
 11
361.0042880479415
 21
752.4067008986783
 31
0.0
  0
LINE
  5
87
330
17
100
AcDbEntity
  8
0
100
AcDbLine
 10
337.44131633532334
 20
775.1611981826428
 30
0.0
 11
361.0042880479415
 21
752.4067008986783
 31
0.0
  0
LINE
  5
88
330
17
100
AcDbEntity
  8
0
100
AcDbLine
 10
359.1491109857106
 20
858.6897236121501
 30
0.0
 11
362.85946511017244
 21
646.1236781852022
 31
0.0
  0
LINE
  5
89
330
17
100
AcDbEntity
  8
0
100
AcDbLine
 10
323.7214367478842
 20
858.0713312580731
 30
0.0
 11
327.431790872346
 21
645.5052858311251
 31
0.0
  0
LINE
  5
8A
330
17
100
AcDbEntity
  8
0
100
AcDbLine
 10
288.293762510058
 20
857.4529389039963
 30
0.0
 11
292.00411663451985
 21
644.8868934770481
 31
0.0
  0
LINE
  5
8B
330
17
100
AcDbEntity
  8
0
100
AcDbLine
 10
288.293762510058
 20
857.4529389039963
 30
0.0
 11
536.2874821748347
 21
861.781685382535
 31
0.0
  0
LINE
  5
8C
330
17
100
AcDbEntity
  8
0
100
AcDbLine
 10
292.00411663451985
 20
644.8868934770481
 30
0.0
 11
539.9978362992966
 21
649.215639955587
 31
0.0
  0
LINE
  5
8D
330
17
100
AcDbEntity
  8
0
100
AcDbLine
 10
1348.2148635077176
 20
1245.6952833096898
 30
0.0
 11
1346.8750134072175
 21
1322.4552441583096
 31
0.0
  0
LINE
  5
8E
330
17
100
AcDbEntity
  8
0
100
AcDbLine
 10
1365.928700626631
 20
1246.0044794867283
 30
0.0
 11
1364.588850526131
 21
1322.764440335348
 31
0.0
  0
LINE
  5
8F
330
17
100
AcDbEntity
  8
0
100
AcDbLine
 10
1362.5275426792077
 20
1440.8566877947662
 30
0.0
 11
1592.8074252250706
 21
1444.8762380962667
 31
0.0
  0
LINE
  5
90
330
17
100
AcDbEntity
  8
0
100
AcDbLine
 10
1362.2183465021692
 20
1458.5705249136777
 30
0.0
 11
1610.2120661669421
 21
1462.8992713922166
 31
0.0
  0
LINE
  5
91
330
17
100
AcDbEntity
  8
0
100
AcDbLine
 10
1362.2183465021692
 20
1458.5705249136777
 30
0.0
 11
1354.7151859393687
 21
1888.426305665953
 31
0.0
  0
LINE
  5
92
330
17
100
AcDbEntity
  8
0
100
AcDbLine
 10
1613.8605810559964
 20
1253.8759933890512
 30
0.0
 11
1610.2120661669421
 21
1462.8992713922166
 31
0.0
  0
LINE
  5
93
330
17
100
AcDbEntity
  8
0
100
AcDbLine
 10
1596.1467439370863
 20
1253.5667972120127
 30
0.0
 11
1592.8074252250706
 21
1444.8762380962667
 31
0.0
  0
LINE
  5
94
330
17
100
AcDbEntity
  8
0
100
AcDbLine
 10
1365.928700626631
 20
1246.0044794867283
 30
0.0
 11
1596.208583172494
 21
1250.0240297882287
 31
0.0
  0
LINE
  5
95
330
17
100
AcDbEntity
  8
0
100
AcDbLine
 10
1086.3592703248519
 20
1223.4053427706078
 30
0.0
 11
1111.1586422913338
 21
1223.838217418462
 31
0.0
  0
LINE
  5
96
330
17
100
AcDbEntity
  8
0
100
AcDbLine
 10
1086.0500741478133
 20
1241.1191798895202
 30
0.0
 11
1110.8494461142952
 21
1241.5520545373743
 31
0.0
  0
LINE
  5
97
330
17
100
AcDbEntity
  8
0
100
AcDbLine
 10
565.263262851788
 20
1232.0288122845886
 30
0.0
 11
1064.793469605121
 21
1240.7481444770742
 31
0.0
  0
LINE
  5
98
330
17
100
AcDbEntity
  8
0
100
AcDbLine
 10
565.5724590288264
 20
1214.3149751656765
 30
0.0
 11
1065.1026657821594
 21
1223.0343073581619
 31
0.0
  0
LINE
  5
99
330
17
100
AcDbEntity
  8
0
100
AcDbLine
 10
539.2862633396379
 20
1502.0890235542038
 30
0.0
 11
1060.0730746356667
 21
1511.1793911591353
 31
0.0
  0
LINE
  5
9A
330
17
100
AcDbEntity
  8
0
100
AcDbLine
 10
539.5954595166763
 20
1484.3751864352935
 30
0.0
 11
1060.3822708127052
 21
1493.465554040225
 31
0.0
  0
LINE
  5
9B
330
17
100
AcDbEntity
  8
0
100
AcDbLine
 10
1060.0730746356667
 20
1511.1793911591353
 30
0.0
 11
1058.8362899275126
 21
1582.0347396347884
 31
0.0
  0
LINE
  5
9C
330
17
100
AcDbEntity
  8
0
100
AcDbLine
 10
1058.8362899275126
 20
1582.0347396347884
 30
0.0
 11
1076.5501270464224
 21
1582.3439358118267
 31
0.0
  0
LINE
  5
9D
330
17
100
AcDbEntity
  8
0
100
AcDbLine
 10
1061.5984424423898
 20
1423.7911280391695
 30
0.0
 11
1079.3122795612996
 21
1424.1003242162078
 31
0.0
  0
LINE
  5
9E
330
17
100
AcDbEntity
  8
0
100
AcDbLine
 10
1061.5984424423898
 20
1423.7911280391695
 30
0.0
 11
1060.3822708127052
 21
1493.465554040225
 31
0.0
  0
LINE
  5
9F
330
17
100
AcDbEntity
  8
0
100
AcDbLine
 10
1079.3122795612996
 20
1424.1003242162078
 30
0.0
 11
1076.5501270464224
 21
1582.3439358118267
 31
0.0
  0
LINE
  5
A0
330
17
100
AcDbEntity
  8
0
100
AcDbLine
 10
1056.7749820805893
 20
1700.1269870942047
 30
0.0
 11
1053.9509903303044
 21
1861.9133661136054
 31
0.0
  0
LINE
  5
A1
330
17
100
AcDbEntity
  8
0
100
AcDbLine
 10
1074.4888191994992
 20
1700.436183271243
 30
0.0
 11
1071.6648274492143
 21
1862.2225622906437
 31
0.0
  0
LINE
  5
A2
330
17
100
AcDbEntity
  8
0
100
AcDbLine
 10
1056.7749820805893
 20
1700.1269870942047
 30
0.0
 11
1074.4888191994992
 21
1700.436183271243
 31
0.0
  0
LINE
  5
A3
330
17
100
AcDbEntity
  8
0
100
AcDbLine
 10
1063.659750289313
 20
1305.6988805797532
 30
0.0
 11
1081.3735874082229
 21
1306.0080767567915
 31
0.0
  0
LINE
  5
A4
330
17
100
AcDbEntity
  8
0
100
AcDbLine
 10
1082.445467488623
 20
1244.6001080778965
 30
0.0
 11
1081.3735874082229
 21
1306.0080767567915
 31
0.0
  0
LINE
  5
A5
330
17
100
AcDbEntity
  8
0
100
AcDbLine
 10
1064.7316303697132
 20
1244.2909119008582
 30
0.0
 11
1063.659750289313
 21
1305.6988805797532
 31
0.0
  0
LINE
  5
A6
330
17
100
AcDbEntity
  8
0
100
AcDbLine
 10
1110.8494461142952
 20
1241.5520545373743
 30
0.0
 11
1111.1586422913338
 21
1223.838217418462
 31
0.0
  0
LINE
  5
A7
330
17
100
AcDbEntity
  8
0
100
AcDbLine
 10
1311.6062667952983
 20
1245.0562778771437
 30
0.0
 11
1311.9154629723369
 21
1227.3424407582313
 31
0.0
  0
LINE
  5
A8
330
17
100
AcDbEntity
  8
0
100
AcDbLine
 10
1311.6062667952983
 20
1245.0562778771437
 30
0.0
 11
1348.2148635077176
 21
1245.6952833096898
 31
0.0
  0
LINE
  5
A9
330
17
100
AcDbEntity
  8
0
100
AcDbLine
 10
1311.9154629723369
 20
1227.3424407582313
 30
0.0
 11
1596.5177793495325
 21
1232.3101926693164
 31
0.0
  0
LINE
  5
AA
330
17
100
AcDbEntity
  8
0
100
AcDbLine
 10
1345.0198363449865
 20
1428.738266871785
 30
0.0
 11
1362.7336734639
 21
1429.0474630488234
 31
0.0
  0
LINE
  5
AB
330
17
100
AcDbEntity
  8
0
100
AcDbLine
 10
1346.8750134072175
 20
1322.4552441583096
 30
0.0
 11
1364.588850526131
 21
1322.764440335348
 31
0.0
  0
LINE
  5
AC
330
17
100
AcDbEntity
  8
0
100
AcDbLine
 10
1362.7336734639
 20
1429.0474630488234
 30
0.0
 11
1362.5275426792077
 21
1440.8566877947662
 31
0.0
  0
LINE
  5
AD
330
17
100
AcDbEntity
  8
0
100
AcDbLine
 10
1345.0198363449865
 20
1428.738266871785
 30
0.0
 11
1337.0013488204552
 21
1888.1171094889146
 31
0.0
  0
LINE
  5
AE
330
17
100
AcDbEntity
  8
0
100
AcDbLine
 10
1022.6286136367771
 20
1896.8051003112284
 30
0.0
 11
1021.0885339091819
 21
1985.0362088134634
 31
0.0
  0
LINE
  5
AF
330
17
100
AcDbEntity
  8
0
100
AcDbLine
 10
1376.9053560150255
 20
1902.9890238519981
 30
0.0
 11
1375.3652762874303
 21
1991.220132354233
 31
0.0
  0
LINE
  5
B0
330
17
100
AcDbEntity
  8
0
100
AcDbLine
 10
1019.9537061871555
 20
2050.050445465883
 30
0.0
 11
1374.230448565404
 21
2056.2343690066527
 31
0.0
  0
LINE
  5
B1
330
17
100
AcDbEntity
  8
0
100
AcDbLine
 10
1375.6685713068716
 20
1973.8443723276482
 30
0.0
 11
1592.9583066321986
 21
1977.637178765987
 31
0.0
  0
LINE
  5
B2
330
17
100
AcDbEntity
  8
0
100
AcDbLine
 10
1374.9985681937926
 20
2012.2288249684334
 30
0.0
 11
1374.230448565404
 21
2056.2343690066527
 31
0.0
  0
LINE
  5
B3
330
17
100
AcDbEntity
  8
0
100
AcDbLine
 10
1020.7218258155442
 20
2006.0449014276637
 30
0.0
 11
1019.9537061871555
 21
2050.050445465883
 31
0.0
  0
LINE
  5
B4
330
17
100
AcDbEntity
  8
0
100
AcDbLine
 10
1802.4989808140263
 20
1274.887923063037
 30
0.0
 11
1843.8312674248218
 21
1275.6093808094602
 31
0.0
  0
LINE
  5
B5
330
17
100
AcDbEntity
  8
0
100
AcDbLine
 10
1700.2719832691353
 20
1920.4462320985099
 30
0.0
 11
1700.9316017801507
 21
1882.6567129114978
 31
0.0
  0
LINE
  5
B6
330
17
100
AcDbEntity
  8
0
100
AcDbLine
 10
1076.5501270464224
 20
1582.3439358118267
 30
0.0
 11
1158.5963912738637
 21
1667.3053295526129
 31
0.0
  0
LINE
  5
B7
330
17
100
AcDbEntity
  8
0
100
AcDbLine
 10
1081.3735874082229
 20
1306.0080767567915
 30
0.0
 11
1163.419851635664
 21
1390.96947049758
 31
0.0
  0
LINE
  5
B8
330
17
100
AcDbEntity
  8
0
100
AcDbLine
 10
1346.8750134072175
 20
1322.4552441583096
 30
0.0
 11
1270.409759040512
 21
1396.2968819630069
 31
0.0
  0
LINE
  5
B9
330
17
100
AcDbEntity
  8
0
100
AcDbLine
 10
659.0075568541164
 20
1884.5516597697356
 30
0.0
 11
831.4222381448651
 21
1887.5611692262435
 31
0.0
  0
LINE
  5
BA
330
17
100
AcDbEntity
  8
0
100
AcDbLine
 10
831.4222381448651
 20
1887.5611692262435
 30
0.0
 11
831.370705448692
 21
1890.5134754127275
 31
0.0
  0
LINE
  5
BB
330
17
100
AcDbEntity
  8
0
100
AcDbLine
 10
831.370705448692
 20
1890.5134754127275
 30
0.0
 11
658.9560241579434
 21
1887.5039659562194
 31
0.0
  0
LINE
  5
BC
330
17
100
AcDbEntity
  8
0
100
AcDbLine
 10
658.9560241579434
 20
1887.5039659562194
 30
0.0
 11
659.0075568541164
 21
1884.5516597697356
 31
0.0
  0
LINE
  5
BD
330
17
100
AcDbEntity
  8
0
100
AcDbLine
 10
659.0075568541164
 20
1884.5516597697356
 30
0.0
 11
659.0075568541164
 21
1884.5516597697356
 31
0.0
  0
LINE
  5
BE
330
17
100
AcDbEntity
  8
0
100
AcDbLine
 10
1099.388574485402
 20
1898.1449504117286
 30
0.0
 11
831.3191727525219
 21
1893.4657815992127
 31
0.0
  0
LINE
  5
BF
330
17
100
AcDbEntity
  8
0
100
AcDbLine
 10
831.3191727525219
 20
1893.4657815992127
 30
0.0
 11
831.4222381448681
 21
1887.5611692262437
 31
0.0
  0
LINE
  5
C0
330
17
100
AcDbEntity
  8
0
100
AcDbLine
 10
831.4222381448681
 20
1887.5611692262437
 30
0.0
 11
839.6886954670302
 21
1887.705460775528
 31
0.0
  0
LINE
  5
C1
330
17
100
AcDbEntity
  8
0
100
AcDbLine
 10
839.5856300746841
 20
1893.6100731484973
 30
0.0
 11
839.5856300746841
 21
1893.6100731484973
 31
0.0
  0
LINE
  5
C2
330
17
100
AcDbEntity
  8
0
100
AcDbLine
 10
650.7410995319611
 20
1884.407368220451
 30
0.0
 11
659.0075568541232
 21
1884.5516597697356
 31
0.0
  0
LINE
  5
C3
330
17
100
AcDbEntity
  8
0
100
AcDbLine
 10
659.0075568541232
 20
1884.5516597697356
 30
0.0
 11
658.9044914617771
 21
1890.4562721427046
 31
0.0
  0
LINE
  5
C4
330
17
100
AcDbEntity
  8
0
100
AcDbLine
 10
658.9044914617771
 20
1890.4562721427046
 30
0.0
 11
658.9044914617771
 21
1890.4562721427046
 31
0.0
  0
LINE
  5
C5
330
17
100
AcDbEntity
  8
0
100
AcDbLine
 10
1099.388574485402
 20
1898.1449504117286
 30
0.0
 11
1156.8209594446048
 21
1957.6179260302783
 31
0.0
  0
LINE
  5
C6
330
17
100
AcDbEntity
  8
0
100
AcDbLine
 10
1300.145395166405
 20
1901.649173751498
 30
0.0
 11
1215.184001425622
 21
1983.6954379789415
 31
0.0
  0
LINE
  5
C7
330
17
100
AcDbEntity
  8
0
100
AcDbLine
 10
1111.1586422913338
 20
1223.838217418462
 30
0.0
 11
1170.631617909878
 21
1166.4058324592534
 31
0.0
  0
LINE
  5
C8
330
17
100
AcDbEntity
  8
0
100
AcDbLine
 10
1311.9154629723369
 20
1227.3424407582313
 30
0.0
 11
1229.8691987448988
 21
1142.381047017443
 31
0.0
  0
LINE
  5
C9
330
17
100
AcDbEntity
  8
0
100
AcDbLine
 10
536.8028091365657
 20
832.2586235176802
 30
0.0
 11
462.9611713318701
 21
755.7933691509745
 31
0.0
  0
LINE
  5
CA
330
17
100
AcDbEntity
  8
0
100
AcDbLine
 10
539.4825093375658
 20
678.738701820441
 30
0.0
 11
505.49795184125014
 21
711.5572075114151
 31
0.0
  0
LINE
  5
CB
330
17
100
AcDbEntity
  8
0
100
AcDbLine
 10
1629.6227655781786
 20
1907.4002226444138
 30
0.0
 11
1771.333462529477
 21
1909.8737920607218
 31
0.0
  0
LINE
  5
CC
330
17
100
AcDbEntity
  8
0
100
AcDbLine
 10
1771.333462529477
 20
1909.8737920607218
 30
0.0
 11
1771.5808194711078
 21
1895.7027223655923
 31
0.0
  0
LINE
  5
CD
330
17
100
AcDbEntity
  8
0
100
AcDbLine
 10
1771.5808194711078
 20
1895.7027223655923
 30
0.0
 11
1629.8701225198095
 21
1893.229152949284
 31
0.0
  0
LINE
  5
CE
330
17
100
AcDbEntity
  8
0
100
AcDbLine
 10
1629.8701225198095
 20
1893.229152949284
 30
0.0
 11
1629.6227655781786
 21
1907.4002226444138
 31
0.0
  0
LINE
  5
CF
330
17
100
AcDbEntity
  8
0
100
AcDbLine
 10
1629.6227655781786
 20
1907.4002226444138
 30
0.0
 11
1629.6227655781786
 21
1907.4002226444138
 31
0.0
  0
LINE
  5
D0
330
17
100
AcDbEntity
  8
0
100
AcDbLine
 10
1813.0714208518136
 20
1345.9494023233829
 30
0.0
 11
1815.5449902681216
 21
1204.238705372082
 31
0.0
  0
LINE
  5
D1
330
17
100
AcDbEntity
  8
0
100
AcDbLine
 10
1815.5449902681216
 20
1204.238705372082
 30
0.0
 11
1833.258827387034
 21
1204.5479015491205
 31
0.0
  0
LINE
  5
D2
330
17
100
AcDbEntity
  8
0
100
AcDbLine
 10
1833.258827387034
 20
1204.5479015491205
 30
0.0
 11
1830.785257970726
 21
1346.2585985004214
 31
0.0
  0
LINE
  5
D3
330
17
100
AcDbEntity
  8
0
100
AcDbLine
 10
1830.785257970726
 20
1346.2585985004214
 30
0.0
 11
1813.0714208518136
 21
1345.9494023233829
 31
0.0
  0
LINE
  5
D4
330
17
100
AcDbEntity
  8
0
100
AcDbLine
 10
1813.0714208518136
 20
1345.9494023233829
 30
0.0
 11
1813.0714208518136
 21
1345.9494023233829
 31
0.0
  0
LINE
  5
D5
330
17
100
AcDbEntity
  8
0
100
AcDbLine
 10
1393.0170132152068
 20
1991.5282445684031
 30
0.0
 11
1215.6020202787624
 21
1988.4314543474563
 31
0.0
  0
LINE
  5
D6
330
17
100
AcDbEntity
  8
0
100
AcDbLine
 10
1215.6020202787624
 20
1988.4314543474563
 30
0.0
 11
1210.6703637062556
 21
1964.0180724293637
 31
0.0
  0
LINE
  5
D7
330
17
100
AcDbEntity
  8
0
100
AcDbLine
 10
1210.6703637062556
 20
1964.0180724293637
 30
0.0
 11
1199.1090295416304
 21
2012.4708676556952
 31
0.0
  0
LINE
  5
D8
330
17
100
AcDbEntity
  8
0
100
AcDbLine
 10
1199.1090295416304
 20
2012.4708676556952
 30
0.0
 11
1194.1773729691236
 21
1988.0574857376023
 31
0.0
  0
LINE
  5
D9
330
17
100
AcDbEntity
  8
0
100
AcDbLine
 10
1194.1773729691236
 20
1988.0574857376023
 30
0.0
 11
1004.8997838875928
 21
1984.75363313073
 31
0.0
  0
LINE
  5
DA
330
17
100
AcDbEntity
  8
0
100
AcDbLine
 10
1392.650305121569
 20
2012.5369371826037
 30
0.0
 11
1215.2353121851247
 21
2009.4401469616587
 31
0.0
  0
LINE
  5
DB
330
17
100
AcDbEntity
  8
0
100
AcDbLine
 10
1215.2353121851247
 20
2009.4401469616587
 30
0.0
 11
1210.3036556126176
 21
1985.0267650435658
 31
0.0
  0
LINE
  5
DC
330
17
100
AcDbEntity
  8
0
100
AcDbLine
 10
1210.3036556126176
 20
1985.0267650435658
 30
0.0
 11
1198.7423214479925
 21
2033.4795602698987
 31
0.0
  0
LINE
  5
DD
330
17
100
AcDbEntity
  8
0
100
AcDbLine
 10
1198.7423214479925
 20
2033.4795602698987
 30
0.0
 11
1193.8106648754858
 21
2009.0661783518049
 31
0.0
  0
LINE
  5
DE
330
17
100
AcDbEntity
  8
0
100
AcDbLine
 10
1193.8106648754858
 20
2009.0661783518049
 30
0.0
 11
1004.533075793955
 21
2005.7623257449304
 31
0.0
  0
LINE
  5
DF
330
17
100
AcDbEntity
  8
0
100
AcDbLine
 10
362.85946511017244
 20
646.1236781852022
 30
0.0
 11
359.1491109857106
 21
858.6897236121501
 31
0.0
  0
LINE
  5
E0
330
17
100
AcDbEntity
  8
0
100
AcDbLine
 10
1615.752232985315
 20
2025.2863393191392
 30
0.0
 11
1633.4660701042242
 21
2025.5955354961777
 31
0.0
  0
LINE
  5
E1
330
17
100
AcDbEntity
  8
0
100
AcDbLine
 10
1633.4660701042242
 20
2025.5955354961777
 30
0.0
 11
1633.7752662812627
 21
2007.881698377264
 31
0.0
  0
LINE
  5
E2
330
17
100
AcDbEntity
  8
0
100
AcDbLine
 10
1633.7752662812627
 20
2007.881698377264
 30
0.0
 11
1616.0614291623535
 21
2007.5725022002257
 31
0.0
  0
LINE
  5
E3
330
17
100
AcDbEntity
  8
0
100
AcDbLine
 10
1616.0614291623535
 20
2007.5725022002257
 30
0.0
 11
1615.752232985315
 21
2025.2863393191392
 31
0.0
  0
LINE
  5
E4
330
17
100
AcDbEntity
  8
0
100
AcDbLine
 10
1615.752232985315
 20
2025.2863393191392
 30
0.0
 11
1615.752232985315
 21
2025.2863393191392
 31
0.0
  0
LINE
  5
E5
330
17
100
AcDbEntity
  8
0
100
AcDbLine
 10
1955.2674444311356
 20
2031.2125993790435
 30
0.0
 11
1972.9812815500459
 21
2031.521795556082
 31
0.0
  0
LINE
  5
E6
330
17
100
AcDbEntity
  8
0
100
AcDbLine
 10
1972.9812815500459
 20
2031.521795556082
 30
0.0
 11
1973.2904777270844
 21
2013.8079584371685
 31
0.0
  0
LINE
  5
E7
330
17
100
AcDbEntity
  8
0
100
AcDbLine
 10
1973.2904777270844
 20
2013.8079584371685
 30
0.0
 11
1955.576640608174
 21
2013.4987622601298
 31
0.0
  0
LINE
  5
E8
330
17
100
AcDbEntity
  8
0
100
AcDbLine
 10
1955.576640608174
 20
2013.4987622601298
 30
0.0
 11
1955.2674444311356
 21
2031.2125993790435
 31
0.0
  0
LINE
  5
E9
330
17
100
AcDbEntity
  8
0
100
AcDbLine
 10
1955.2674444311356
 20
2031.2125993790435
 30
0.0
 11
1955.2674444311356
 21
2031.2125993790435
 31
0.0
  0
LINE
  5
EA
330
17
100
AcDbEntity
  8
0
100
AcDbLine
 10
1951.0810356094246
 20
1898.8359102929157
 30
0.0
 11
1950.8336786677937
 21
1913.0069799880453
 31
0.0
  0
LINE
  5
EB
330
17
100
AcDbEntity
  8
0
100
AcDbLine
 10
1950.8336786677937
 20
1913.0069799880453
 30
0.0
 11
2036.6473784883005
 21
1914.5048636901427
 31
0.0
  0
LINE
  5
EC
330
17
100
AcDbEntity
  8
0
100
AcDbLine
 10
2036.8947354299314
 20
1900.333793995013
 30
0.0
 11
1951.0810356094246
 21
1898.8359102929157
 31
0.0
  0
LINE
  5
ED
330
17
100
AcDbEntity
  8
0
100
AcDbLine
 10
1951.0810356094246
 20
1898.8359102929157
 30
0.0
 11
1951.0810356094246
 21
1898.8359102929157
 31
0.0
  0
LINE
  5
EE
330
17
100
AcDbEntity
  8
0
100
AcDbLine
 10
1594.1950913403525
 20
1906.781830290337
 30
0.0
 11
1591.7215219240445
 21
2048.492527241638
 31
0.0
  0
LINE
  5
EF
330
17
100
AcDbEntity
  8
0
100
AcDbLine
 10
1591.7215219240445
 20
2048.492527241638
 30
0.0
 11
2034.1738090719925
 21
2056.215560641444
 31
0.0
  0
LINE
  5
F0
330
17
100
AcDbEntity
  8
0
100
AcDbLine
 10
540.0489472429995
 20
1458.3948919942195
 30
0.0
 11
525.8778775478723
 21
1458.1475350525889
 31
0.0
  0
LINE
  5
F1
330
17
100
AcDbEntity
  8
0
100
AcDbLine
 10
525.8778775478723
 20
1458.1475350525889
 30
0.0
 11
527.7330546101033
 21
1351.8645123391166
 31
0.0
  0
LINE
  5
F2
330
17
100
AcDbEntity
  8
0
100
AcDbLine
 10
527.7330546101033
 20
1351.8645123391166
 30
0.0
 11
541.9041243052304
 21
1352.1118692807472
 31
0.0
  0
LINE
  5
F3
330
17
100
AcDbEntity
  8
0
100
AcDbLine
 10
541.9041243052304
 20
1352.1118692807472
 30
0.0
 11
540.0489472429995
 21
1458.3948919942195
 31
0.0
  0
LINE
  5
F4
330
17
100
AcDbEntity
  8
0
100
AcDbLine
 10
540.0489472429995
 20
1458.3948919942195
 30
0.0
 11
540.0489472429995
 21
1458.3948919942195
 31
0.0
  0
LINE
  5
F5
330
17
100
AcDbEntity
  8
0
100
AcDbLine
 10
557.5082247064394
 20
458.15355601296574
 30
0.0
 11
543.3371550113122
 21
457.906199071335
 31
0.0
  0
LINE
  5
F6
330
17
100
AcDbEntity
  8
0
100
AcDbLine
 10
543.3371550113122
 20
457.906199071335
 30
0.0
 11
545.1923320735432
 21
351.62317635786053
 31
0.0
  0
LINE
  5
F7
330
17
100
AcDbEntity
  8
0
100
AcDbLine
 10
545.1923320735432
 20
351.62317635786053
 30
0.0
 11
559.3634017686703
 21
351.8705332994913
 31
0.0
  0
LINE
  5
F8
330
17
100
AcDbEntity
  8
0
100
AcDbLine
 10
559.3634017686703
 20
351.8705332994913
 30
0.0
 11
557.5082247064394
 21
458.15355601296574
 31
0.0
  0
LINE
  5
F9
330
17
100
AcDbEntity
  8
0
100
AcDbLine
 10
557.5082247064394
 20
458.15355601296574
 30
0.0
 11
557.5082247064394
 21
458.15355601296574
 31
0.0
  0
LINE
  5
FA
330
17
100
AcDbEntity
  8
0
100
AcDbLine
 10
546.1710315483615
 20
1107.6609170397564
 30
0.0
 11
531.9999618532344
 21
1107.4135600981258
 31
0.0
  0
LINE
  5
FB
330
17
100
AcDbEntity
  8
0
100
AcDbLine
 10
531.9999618532344
 20
1107.4135600981258
 30
0.0
 11
533.8551389154653
 21
1001.1305373846501
 31
0.0
  0
LINE
  5
FC
330
17
100
AcDbEntity
  8
0
100
AcDbLine
 10
533.8551389154653
 20
1001.1305373846501
 30
0.0
 11
548.0262086105924
 21
1001.3778943262809
 31
0.0
  0
LINE
  5
FD
330
17
100
AcDbEntity
  8
0
100
AcDbLine
 10
548.0262086105924
 20
1001.3778943262809
 30
0.0
 11
546.1710315483615
 21
1107.6609170397564
 31
0.0
  0
LINE
  5
FE
330
17
100
AcDbEntity
  8
0
100
AcDbLine
 10
546.1710315483615
 20
1107.6609170397564
 30
0.0
 11
546.1710315483615
 21
1107.6609170397564
 31
0.0
  0
LINE
  5
FF
330
17
100
AcDbEntity
  8
0
100
AcDbLine
 10
1366.7305414700013
 20
1876.823211704705
 30
0.0
 11
1371.677680302617
 21
1593.4018178021047
 31
0.0
  0
LINE
  5
100
330
17
100
AcDbEntity
  8
0
100
AcDbLine
 10
1371.677680302617
 20
1593.4018178021047
 30
0.0
 11
1578.3391133565954
 21
1597.0091065342203
 31
0.0
  0
LINE
  5
101
330
17
100
AcDbEntity
  8
0
100
AcDbLine
 10
1578.3391133565954
 20
1597.0091065342203
 30
0.0
 11
1573.3919745239796
 21
1880.4305004368207
 31
0.0
  0
LINE
  5
102
330
17
100
AcDbEntity
  8
0
100
AcDbLine
 10
1573.3919745239796
 20
1880.4305004368207
 30
0.0
 11
1366.7305414700013
 21
1876.823211704705
 31
0.0
  0
LINE
  5
103
330
17
100
AcDbEntity
  8
0
100
AcDbLine
 10
1366.7305414700013
 20
1876.823211704705
 30
0.0
 11
1366.7305414700013
 21
1876.823211704705
 31
0.0
  0
LINE
  5
104
330
17
100
AcDbEntity
  8
0
100
AcDbLine
 10
1607.483937095164
 20
604.0594361852204
 30
0.0
 11
1628.7405416378567
 21
604.4304715976666
 31
0.0
  0
LINE
  5
105
330
17
100
AcDbEntity
  8
0
100
AcDbLine
 10
1628.7405416378567
 20
604.4304715976666
 30
0.0
 11
1629.111577050303
 21
583.1738670549743
 31
0.0
  0
LINE
  5
106
330
17
100
AcDbEntity
  8
0
100
AcDbLine
 10
1629.111577050303
 20
583.1738670549743
 30
0.0
 11
1607.8549725076102
 21
582.8028316425281
 31
0.0
  0
LINE
  5
107
330
17
100
AcDbEntity
  8
0
100
AcDbLine
 10
1607.8549725076102
 20
582.8028316425281
 30
0.0
 11
1607.483937095164
 21
604.0594361852204
 31
0.0
  0
LINE
  5
108
330
17
100
AcDbEntity
  8
0
100
AcDbLine
 10
1607.483937095164
 20
604.0594361852204
 30
0.0
 11
1607.483937095164
 21
604.0594361852204
 31
0.0
  0
LINE
  5
109
330
17
100
AcDbEntity
  8
0
100
AcDbLine
 10
1076.068823527791
 20
594.7835508740659
 30
0.0
 11
1097.3254280704834
 21
595.1545862865119
 31
0.0
  0
LINE
  5
10A
330
17
100
AcDbEntity
  8
0
100
AcDbLine
 10
1097.3254280704834
 20
595.1545862865119
 30
0.0
 11
1097.6964634829296
 21
573.8979817438195
 31
0.0
  0
LINE
  5
10B
330
17
100
AcDbEntity
  8
0
100
AcDbLine
 10
1097.6964634829296
 20
573.8979817438195
 30
0.0
 11
1076.4398589402372
 21
573.5269463313736
 31
0.0
  0
LINE
  5
10C
330
17
100
AcDbEntity
  8
0
100
AcDbLine
 10
1076.4398589402372
 20
573.5269463313736
 30
0.0
 11
1076.068823527791
 21
594.7835508740659
 31
0.0
  0
LINE
  5
10D
330
17
100
AcDbEntity
  8
0
100
AcDbLine
 10
1076.068823527791
 20
594.7835508740659
 30
0.0
 11
1076.068823527791
 21
594.7835508740659
 31
0.0
  0
LINE
  5
10E
330
17
100
AcDbEntity
  8
0
100
AcDbLine
 10
555.2820122317623
 20
585.6931832691342
 30
0.0
 11
576.5386167744582
 21
586.0642186815804
 31
0.0
  0
LINE
  5
10F
330
17
100
AcDbEntity
  8
0
100
AcDbLine
 10
576.5386167744582
 20
586.0642186815804
 30
0.0
 11
576.9096521869043
 21
564.8076141388881
 31
0.0
  0
LINE
  5
110
330
17
100
AcDbEntity
  8
0
100
AcDbLine
 10
576.9096521869043
 20
564.8076141388881
 30
0.0
 11
555.6530476442084
 21
564.4365787264419
 31
0.0
  0
LINE
  5
111
330
17
100
AcDbEntity
  8
0
100
AcDbLine
 10
555.6530476442084
 20
564.4365787264419
 30
0.0
 11
555.2820122317623
 21
585.6931832691342
 31
0.0
  0
LINE
  5
112
330
17
100
AcDbEntity
  8
0
100
AcDbLine
 10
555.2820122317623
 20
585.6931832691342
 30
0.0
 11
555.2820122317623
 21
585.6931832691342
 31
0.0
  0
LINE
  5
113
330
17
100
AcDbEntity
  8
0
100
AcDbLine
 10
1596.1467439370863
 20
1253.5667972120127
 30
0.0
 11
1617.403348479779
 21
1253.937832624459
 31
0.0
  0
LINE
  5
114
330
17
100
AcDbEntity
  8
0
100
AcDbLine
 10
1617.403348479779
 20
1253.937832624459
 30
0.0
 11
1617.7743838922252
 21
1232.6812280817626
 31
0.0
  0
LINE
  5
115
330
17
100
AcDbEntity
  8
0
100
AcDbLine
 10
1617.7743838922252
 20
1232.6812280817626
 30
0.0
 11
1596.5177793495325
 21
1232.3101926693164
 31
0.0
  0
LINE
  5
116
330
17
100
AcDbEntity
  8
0
100
AcDbLine
 10
1596.5177793495325
 20
1232.3101926693164
 30
0.0
 11
1596.1467439370863
 21
1253.5667972120127
 31
0.0
  0
LINE
  5
117
330
17
100
AcDbEntity
  8
0
100
AcDbLine
 10
1596.1467439370863
 20
1253.5667972120127
 30
0.0
 11
1596.1467439370863
 21
1253.5667972120127
 31
0.0
  0
LINE
  5
118
330
17
100
AcDbEntity
  8
0
100
AcDbLine
 10
1584.9950684852315
 20
1892.4458559674536
 30
0.0
 11
1606.2516730279242
 21
1892.8168913798995
 31
0.0
  0
LINE
  5
119
330
17
100
AcDbEntity
  8
0
100
AcDbLine
 10
1606.2516730279242
 20
1892.8168913798995
 30
0.0
 11
1606.6227084403702
 21
1871.5602868372061
 31
0.0
  0
LINE
  5
11A
330
17
100
AcDbEntity
  8
0
100
AcDbLine
 10
1606.6227084403702
 20
1871.5602868372061
 30
0.0
 11
1585.3661038976775
 21
1871.18925142476
 31
0.0
  0
LINE
  5
11B
330
17
100
AcDbEntity
  8
0
100
AcDbLine
 10
1585.3661038976775
 20
1871.18925142476
 30
0.0
 11
1584.9950684852315
 21
1892.4458559674536
 31
0.0
  0
LINE
  5
11C
330
17
100
AcDbEntity
  8
0
100
AcDbLine
 10
1584.9950684852315
 20
1892.4458559674536
 30
0.0
 11
1584.9950684852315
 21
1892.4458559674536
 31
0.0
  0
LINE
  5
11D
330
17
100
AcDbEntity
  8
0
100
AcDbLine
 10
1064.7316303697132
 20
1244.2909119008582
 30
0.0
 11
1085.9882349124057
 21
1244.6619473133042
 31
0.0
  0
LINE
  5
11E
330
17
100
AcDbEntity
  8
0
100
AcDbLine
 10
1085.9882349124057
 20
1244.6619473133042
 30
0.0
 11
1086.3592703248519
 21
1223.4053427706078
 31
0.0
  0
LINE
  5
11F
330
17
100
AcDbEntity
  8
0
100
AcDbLine
 10
1086.3592703248519
 20
1223.4053427706078
 30
0.0
 11
1065.1026657821594
 21
1223.0343073581619
 31
0.0
  0
LINE
  5
120
330
17
100
AcDbEntity
  8
0
100
AcDbLine
 10
1065.1026657821594
 20
1223.0343073581619
 30
0.0
 11
1064.7316303697132
 21
1244.2909119008582
 31
0.0
  0
LINE
  5
121
330
17
100
AcDbEntity
  8
0
100
AcDbLine
 10
1064.7316303697132
 20
1244.2909119008582
 30
0.0
 11
1064.7316303697132
 21
1244.2909119008582
 31
0.0
  0
LINE
  5
122
330
17
100
AcDbEntity
  8
0
100
AcDbLine
 10
543.9448190736844
 20
1235.2005442959264
 30
0.0
 11
565.2014236163802
 21
1235.5715797083726
 31
0.0
  0
LINE
  5
123
330
17
100
AcDbEntity
  8
0
100
AcDbLine
 10
565.2014236163802
 20
1235.5715797083726
 30
0.0
 11
565.5724590288264
 21
1214.3149751656765
 31
0.0
  0
LINE
  5
124
330
17
100
AcDbEntity
  8
0
100
AcDbLine
 10
565.5724590288264
 20
1214.3149751656765
 30
0.0
 11
544.3158544861305
 21
1213.94393975323
 31
0.0
  0
LINE
  5
125
330
17
100
AcDbEntity
  8
0
100
AcDbLine
 10
544.3158544861305
 20
1213.94393975323
 30
0.0
 11
543.9448190736844
 21
1235.2005442959264
 31
0.0
  0
LINE
  5
126
330
17
100
AcDbEntity
  8
0
100
AcDbLine
 10
543.9448190736844
 20
1235.2005442959264
 30
0.0
 11
543.9448190736844
 21
1235.2005442959264
 31
0.0
  0
LINE
  5
127
330
17
100
AcDbEntity
  8
0
100
AcDbLine
 10
1053.5799549178585
 20
1883.169970656299
 30
0.0
 11
1074.836559460551
 21
1883.541006068745
 31
0.0
  0
LINE
  5
128
330
17
100
AcDbEntity
  8
0
100
AcDbLine
 10
1074.836559460551
 20
1883.541006068745
 30
0.0
 11
1075.2075948729969
 21
1862.2844015260514
 31
0.0
  0
LINE
  5
129
330
17
100
AcDbEntity
  8
0
100
AcDbLine
 10
1075.2075948729969
 20
1862.2844015260514
 30
0.0
 11
1053.9509903303044
 21
1861.9133661136054
 31
0.0
  0
LINE
  5
12A
330
17
100
AcDbEntity
  8
0
100
AcDbLine
 10
1053.9509903303044
 20
1861.9133661136054
 30
0.0
 11
1053.5799549178585
 21
1883.169970656299
 31
0.0
  0
LINE
  5
12B
330
17
100
AcDbEntity
  8
0
100
AcDbLine
 10
1053.5799549178585
 20
1883.169970656299
 30
0.0
 11
1053.5799549178585
 21
1883.169970656299
 31
0.0
  0
LINE
  5
12C
330
17
100
AcDbEntity
  8
0
100
AcDbLine
 10
532.7931436218296
 20
1874.0796030513673
 30
0.0
 11
554.0497481645255
 21
1874.4506384638134
 31
0.0
  0
LINE
  5
12D
330
17
100
AcDbEntity
  8
0
100
AcDbLine
 10
554.0497481645255
 20
1874.4506384638134
 30
0.0
 11
554.4207835769716
 21
1853.19403392112
 31
0.0
  0
LINE
  5
12E
330
17
100
AcDbEntity
  8
0
100
AcDbLine
 10
554.4207835769716
 20
1853.19403392112
 30
0.0
 11
533.1641790342758
 21
1852.8229985086737
 31
0.0
  0
LINE
  5
12F
330
17
100
AcDbEntity
  8
0
100
AcDbLine
 10
533.1641790342758
 20
1852.8229985086737
 30
0.0
 11
532.7931436218296
 21
1874.0796030513673
 31
0.0
  0
LINE
  5
130
330
17
100
AcDbEntity
  8
0
100
AcDbLine
 10
532.7931436218296
 20
1874.0796030513673
 30
0.0
 11
532.7931436218296
 21
1874.0796030513673
 31
0.0
  0
LINE
  5
131
330
17
100
AcDbEntity
  8
0
100
AcDbLine
 10
2036.6989111844737
 20
1911.5525575036588
 30
0.0
 11
1959.1516686861223
 21
1910.1989653508458
 31
0.0
  0
LINE
  5
132
330
17
100
AcDbEntity
  8
0
100
AcDbLine
 10
1959.1516686861223
 20
1910.1989653508458
 30
0.0
 11
1959.2032013822952
 21
1907.2466591643606
 31
0.0
  0
LINE
  5
133
330
17
100
AcDbEntity
  8
0
100
AcDbLine
 10
1959.2032013822952
 20
1907.2466591643606
 30
0.0
 11
2036.7504438806466
 21
1908.6002513171734
 31
0.0
  0
LINE
  5
134
330
17
100
AcDbEntity
  8
0
100
AcDbLine
 10
1959.1001359899492
 20
1913.1512715373296
 30
0.0
 11
1959.2032013822952
 21
1907.2466591643606
 31
0.0
  0
LINE
  5
135
330
17
100
AcDbEntity
  8
0
100
AcDbLine
 10
1959.2032013822952
 20
1907.2466591643606
 30
0.0
 11
1950.936744060137
 21
1907.1023676150758
 31
0.0
  0
LINE
  5
136
330
17
100
AcDbEntity
  8
0
100
AcDbLine
 10
1950.833678667791
 20
1913.006979988045
 30
0.0
 11
1950.833678667791
 21
1913.006979988045
 31
0.0
  0
LINE
  5
137
330
17
100
AcDbEntity
  8
0
100
AcDbLine
 10
533.6376669830738
 20
1351.9675777314649
 30
0.0
 11
533.4933754337892
 21
1360.234035053623
 31
0.0
  0
LINE
  5
138
330
17
100
AcDbEntity
  8
0
100
AcDbLine
 10
533.4933754337892
 20
1360.234035053623
 30
0.0
 11
527.5887630608186
 21
1360.130969661277
 31
0.0
  0
LINE
  5
139
330
17
100
AcDbEntity
  8
0
100
AcDbLine
 10
527.5887630608186
 20
1360.130969661277
 30
0.0
 11
527.5887630608186
 21
1360.130969661277
 31
0.0
  0
LINE
  5
13A
330
17
100
AcDbEntity
  8
0
100
AcDbLine
 10
530.5410692473039
 20
1360.18250235745
 30
0.0
 11
528.9744752836422
 21
1449.9326104266088
 31
0.0
  0
LINE
  5
13B
330
17
100
AcDbEntity
  8
0
100
AcDbLine
 10
528.9744752836422
 20
1449.9326104266088
 30
0.0
 11
531.9267814701275
 21
1449.984143122782
 31
0.0
  0
LINE
  5
13C
330
17
100
AcDbEntity
  8
0
100
AcDbLine
 10
531.9267814701275
 20
1449.984143122782
 30
0.0
 11
533.4933754337892
 21
1360.234035053623
 31
0.0
  0
LINE
  5
13D
330
17
100
AcDbEntity
  8
0
100
AcDbLine
 10
533.4933754337892
 20
1360.234035053623
 30
0.0
 11
530.5410692473039
 21
1360.18250235745
 31
0.0
  0
LINE
  5
13E
330
17
100
AcDbEntity
  8
0
100
AcDbLine
 10
530.5410692473039
 20
1360.18250235745
 30
0.0
 11
530.5410692473039
 21
1360.18250235745
 31
0.0
  0
LINE
  5
13F
330
17
100
AcDbEntity
  8
0
100
AcDbLine
 10
518.3747169850717
 20
1888.0033158048661
 30
0.0
 11
526.0221690971568
 21
1449.8810777304357
 31
0.0
  0
LINE
  5
140
330
17
100
AcDbEntity
  8
0
100
AcDbLine
 10
526.0221690971568
 20
1449.8810777304357
 30
0.0
 11
531.9267814701275
 21
1449.984143122782
 31
0.0
  0
LINE
  5
141
330
17
100
AcDbEntity
  8
0
100
AcDbLine
 10
531.9267814701275
 20
1449.984143122782
 30
0.0
 11
531.7824899208429
 21
1458.2506004449394
 31
0.0
  0
LINE
  5
142
330
17
100
AcDbEntity
  8
0
100
AcDbLine
 10
525.8778775478722
 20
1458.1475350525934
 30
0.0
 11
525.8778775478722
 21
1458.1475350525934
 31
0.0
  0
LINE
  5
143
330
17
100
AcDbEntity
  8
0
100
AcDbLine
 10
551.0969444465138
 20
351.7262417502028
 30
0.0
 11
550.9526528972292
 21
359.99269907236123
 31
0.0
  0
LINE
  5
144
330
17
100
AcDbEntity
  8
0
100
AcDbLine
 10
550.9526528972292
 20
359.99269907236123
 30
0.0
 11
545.0480405242586
 21
359.8896336800151
 31
0.0
  0
LINE
  5
145
330
17
100
AcDbEntity
  8
0
100
AcDbLine
 10
545.0480405242586
 20
359.8896336800151
 30
0.0
 11
545.0480405242586
 21
359.8896336800151
 31
0.0
  0
LINE
  5
146
330
17
100
AcDbEntity
  8
0
100
AcDbLine
 10
548.0003467107439
 20
359.9411663761881
 30
0.0
 11
546.4337527470823
 21
449.6912744453466
 31
0.0
  0
LINE
  5
147
330
17
100
AcDbEntity
  8
0
100
AcDbLine
 10
546.4337527470823
 20
449.6912744453466
 30
0.0
 11
549.3860589335675
 21
449.74280714151973
 31
0.0
  0
LINE
  5
148
330
17
100
AcDbEntity
  8
0
100
AcDbLine
 10
549.3860589335675
 20
449.74280714151973
 30
0.0
 11
550.9526528972292
 21
359.99269907236123
 31
0.0
  0
LINE
  5
149
330
17
100
AcDbEntity
  8
0
100
AcDbLine
 10
550.9526528972292
 20
359.99269907236123
 30
0.0
 11
548.0003467107439
 21
359.9411663761881
 31
0.0
  0
LINE
  5
14A
330
17
100
AcDbEntity
  8
0
100
AcDbLine
 10
548.0003467107439
 20
359.9411663761881
 30
0.0
 11
548.0003467107439
 21
359.9411663761881
 31
0.0
  0
LINE
  5
14B
330
17
100
AcDbEntity
  8
0
100
AcDbLine
 10
539.4825093375658
 20
678.738701820441
 30
0.0
 11
543.4814465605969
 21
449.6397417491736
 31
0.0
  0
LINE
  5
14C
330
17
100
AcDbEntity
  8
0
100
AcDbLine
 10
543.4814465605969
 20
449.6397417491736
 30
0.0
 11
549.3860589335675
 21
449.74280714151973
 31
0.0
  0
LINE
  5
14D
330
17
100
AcDbEntity
  8
0
100
AcDbLine
 10
549.3860589335675
 20
449.74280714151973
 30
0.0
 11
549.2417673842829
 21
458.0092644636791
 31
0.0
  0
LINE
  5
14E
330
17
100
AcDbEntity
  8
0
100
AcDbLine
 10
543.3371550113122
 20
457.90619907133294
 30
0.0
 11
543.3371550113122
 21
457.90619907133294
 31
0.0
  0
LINE
  5
14F
330
17
100
AcDbEntity
  8
0
100
AcDbLine
 10
539.759751288436
 20
1001.2336027769926
 30
0.0
 11
539.6154597391513
 21
1009.5000600991516
 31
0.0
  0
LINE
  5
150
330
17
100
AcDbEntity
  8
0
100
AcDbLine
 10
539.6154597391513
 20
1009.5000600991516
 30
0.0
 11
533.7108473661807
 21
1009.3969947068055
 31
0.0
  0
LINE
  5
151
330
17
100
AcDbEntity
  8
0
100
AcDbLine
 10
533.7108473661807
 20
1009.3969947068055
 30
0.0
 11
533.7108473661807
 21
1009.3969947068055
 31
0.0
  0
LINE
  5
152
330
17
100
AcDbEntity
  8
0
100
AcDbLine
 10
536.663153552666
 20
1009.4485274029785
 30
0.0
 11
535.0965595890043
 21
1099.1986354721375
 31
0.0
  0
LINE
  5
153
330
17
100
AcDbEntity
  8
0
100
AcDbLine
 10
535.0965595890043
 20
1099.1986354721375
 30
0.0
 11
538.0488657754896
 21
1099.2501681683107
 31
0.0
  0
LINE
  5
154
330
17
100
AcDbEntity
  8
0
100
AcDbLine
 10
538.0488657754896
 20
1099.2501681683107
 30
0.0
 11
539.6154597391513
 21
1009.5000600991516
 31
0.0
  0
LINE
  5
155
330
17
100
AcDbEntity
  8
0
100
AcDbLine
 10
539.6154597391513
 20
1009.5000600991516
 30
0.0
 11
536.663153552666
 21
1009.4485274029785
 31
0.0
  0
LINE
  5
156
330
17
100
AcDbEntity
  8
0
100
AcDbLine
 10
536.663153552666
 20
1009.4485274029785
 30
0.0
 11
536.663153552666
 21
1009.4485274029785
 31
0.0
  0
LINE
  5
157
330
17
100
AcDbEntity
  8
0
100
AcDbLine
 10
527.5887630608186
 20
1360.130969661277
 30
0.0
 11
532.144253402519
 21
1099.1471027759644
 31
0.0
  0
LINE
  5
158
330
17
100
AcDbEntity
  8
0
100
AcDbLine
 10
532.144253402519
 20
1099.1471027759644
 30
0.0
 11
538.0488657754896
 21
1099.2501681683107
 31
0.0
  0
LINE
  5
159
330
17
100
AcDbEntity
  8
0
100
AcDbLine
 10
538.0488657754896
 20
1099.2501681683107
 30
0.0
 11
537.904574226205
 21
1107.5166254904686
 31
0.0
  0
LINE
  5
15A
330
17
100
AcDbEntity
  8
0
100
AcDbLine
 10
531.9999618532344
 20
1107.4135600981226
 30
0.0
 11
531.9999618532344
 21
1107.4135600981226
 31
0.0
  0
LINE
  5
15B
330
17
100
AcDbEntity
  8
0
100
AcDbLine
 10
1901.5580900979
 20
1756.21761079751
 30
0.0
 11
1901.5291823208015
 21
1756.7440846464078
 31
0.0
  0
LINE
  5
15C
330
17
100
AcDbEntity
  8
0
100
AcDbLine
 10
1901.5291823208015
 20
1756.7440846464078
 30
0.0
 11
1901.4610119357117
 21
1757.2669260867588
 31
0.0
  0
LINE
  5
15D
330
17
100
AcDbEntity
  8
0
100
AcDbLine
 10
1901.4610119357117
 20
1757.2669260867588
 30
0.0
 11
1901.3539601790767
 21
1757.7832111771413
 31
0.0
  0
LINE
  5
15E
330
17
100
AcDbEntity
  8
0
100
AcDbLine
 10
1901.3539601790767
 20
1757.7832111771413
 30
0.0
 11
1901.2086257277435
 21
1758.2900526419066
 31
0.0
  0
LINE
  5
15F
330
17
100
AcDbEntity
  8
0
100
AcDbLine
 10
1901.2086257277435
 20
1758.2900526419066
 30
0.0
 11
1901.0258213509187
 21
1758.784616017991
 31
0.0
  0
LINE
  5
160
330
17
100
AcDbEntity
  8
0
100
AcDbLine
 10
1901.0258213509187
 20
1758.784616017991
 30
0.0
 11
1900.8065693648264
 21
1759.2641355063815
 31
0.0
  0
LINE
  5
161
330
17
100
AcDbEntity
  8
0
100
AcDbLine
 10
1900.8065693648264
 20
1759.2641355063815
 30
0.0
 11
1900.5520959155135
 21
1759.7259294395865
 31
0.0
  0
LINE
  5
162
330
17
100
AcDbEntity
  8
0
100
AcDbLine
 10
1900.5520959155135
 20
1759.7259294395865
 30
0.0
 11
1900.2638241217296
 21
1760.1674152786113
 31
0.0
  0
LINE
  5
163
330
17
100
AcDbEntity
  8
0
100
AcDbLine
 10
1900.2638241217296
 20
1760.1674152786113
 30
0.0
 11
1899.9433661162807
 21
1760.5861240555612
 31
0.0
  0
LINE
  5
164
330
17
100
AcDbEntity
  8
0
100
AcDbLine
 10
1899.9433661162807
 20
1760.5861240555612
 30
0.0
 11
1899.5925140303243
 21
1760.9797141811098
 31
0.0
  0
LINE
  5
165
330
17
100
AcDbEntity
  8
0
100
AcDbLine
 10
1899.5925140303243
 20
1760.9797141811098
 30
0.0
 11
1899.2132299710415
 21
1761.3459845396223
 31
0.0
  0
LINE
  5
166
330
17
100
AcDbEntity
  8
0
100
AcDbLine
 10
1899.2132299710415
 20
1761.3459845396223
 30
0.0
 11
1898.8076350487454
 21
1761.6828867986796
 31
0.0
  0
LINE
  5
167
330
17
100
AcDbEntity
  8
0
100
AcDbLine
 10
1898.8076350487454
 20
1761.6828867986796
 30
0.0
 11
1898.3779975147647
 21
1761.9885368641897
 31
0.0
  0
LINE
  5
168
330
17
100
AcDbEntity
  8
0
100
AcDbLine
 10
1898.3779975147647
 20
1761.9885368641897
 30
0.0
 11
1897.9267200764677
 21
1762.2612254170017
 31
0.0
  0
LINE
  5
169
330
17
100
AcDbEntity
  8
0
100
AcDbLine
 10
1897.9267200764677
 20
1762.2612254170017
 30
0.0
 11
1897.4563264603446
 21
1762.499427472116
 31
0.0
  0
LINE
  5
16A
330
17
100
AcDbEntity
  8
0
100
AcDbLine
 10
1897.4563264603446
 20
1762.499427472116
 30
0.0
 11
1896.969447298306
 21
1762.7018109070177
 31
0.0
  0
LINE
  5
16B
330
17
100
AcDbEntity
  8
0
100
AcDbLine
 10
1896.969447298306
 20
1762.7018109070177
 30
0.0
 11
1896.4688054161215
 21
1762.8672439114441
 31
0.0
  0
LINE
  5
16C
330
17
100
AcDbEntity
  8
0
100
AcDbLine
 10
1896.4688054161215
 20
1762.8672439114441
 30
0.0
 11
1895.9572006062758
 21
1762.9948013169278
 31
0.0
  0
LINE
  5
16D
330
17
100
AcDbEntity
  8
0
100
AcDbLine
 10
1895.9572006062758
 20
1762.9948013169278
 30
0.0
 11
1895.437493970393
 21
1763.083769770716
 31
0.0
  0
LINE
  5
16E
330
17
100
AcDbEntity
  8
0
100
AcDbLine
 10
1895.437493970393
 20
1763.083769770716
 30
0.0
 11
1894.9125919187927
 21
1763.1336517251243
 31
0.0
  0
LINE
  5
16F
330
17
100
AcDbEntity
  8
0
100
AcDbLine
 10
1894.9125919187927
 20
1763.1336517251243
 30
0.0
 11
1894.3854299166662
 21
1763.1441682200336
 31
0.0
  0
LINE
  5
170
330
17
100
AcDbEntity
  8
0
100
AcDbLine
 10
1894.3854299166662
 20
1763.1441682200336
 30
0.0
 11
1893.8589560677683
 21
1763.115260442934
 31
0.0
  0
LINE
  5
171
330
17
100
AcDbEntity
  8
0
100
AcDbLine
 10
1893.8589560677683
 20
1763.115260442934
 30
0.0
 11
1893.3361146274171
 21
1763.0470900578455
 31
0.0
  0
LINE
  5
172
330
17
100
AcDbEntity
  8
0
100
AcDbLine
 10
1893.3361146274171
 20
1763.0470900578455
 30
0.0
 11
1892.8198295370348
 21
1762.9400383012103
 31
0.0
  0
LINE
  5
173
330
17
100
AcDbEntity
  8
0
100
AcDbLine
 10
1892.8198295370348
 20
1762.9400383012103
 30
0.0
 11
1892.3129880722681
 21
1762.7947038498774
 31
0.0
  0
LINE
  5
174
330
17
100
AcDbEntity
  8
0
100
AcDbLine
 10
1892.3129880722681
 20
1762.7947038498774
 30
0.0
 11
1891.8184246961837
 21
1762.611899473051
 31
0.0
  0
LINE
  5
175
330
17
100
AcDbEntity
  8
0
100
AcDbLine
 10
1891.8184246961837
 20
1762.611899473051
 30
0.0
 11
1891.3389052077948
 21
1762.3926474869595
 31
0.0
  0
LINE
  5
176
330
17
100
AcDbEntity
  8
0
100
AcDbLine
 10
1891.3389052077948
 20
1762.3926474869595
 30
0.0
 11
1890.8771112745897
 21
1762.1381740376464
 31
0.0
  0
LINE
  5
177
330
17
100
AcDbEntity
  8
0
100
AcDbLine
 10
1890.8771112745897
 20
1762.1381740376464
 30
0.0
 11
1890.435625435565
 21
1761.8499022438632
 31
0.0
  0
LINE
  5
178
330
17
100
AcDbEntity
  8
0
100
AcDbLine
 10
1890.435625435565
 20
1761.8499022438632
 30
0.0
 11
1890.016916658616
 21
1761.5294442384143
 31
0.0
  0
LINE
  5
179
330
17
100
AcDbEntity
  8
0
100
AcDbLine
 10
1890.016916658616
 20
1761.5294442384143
 30
0.0
 11
1889.6233265330652
 21
1761.1785921524572
 31
0.0
  0
LINE
  5
17A
330
17
100
AcDbEntity
  8
0
100
AcDbLine
 10
1889.6233265330652
 20
1761.1785921524572
 30
0.0
 11
1889.2570561745536
 21
1760.7993080931744
 31
0.0
  0
LINE
  5
17B
330
17
100
AcDbEntity
  8
0
100
AcDbLine
 10
1889.2570561745536
 20
1760.7993080931744
 30
0.0
 11
1888.9201539154963
 21
1760.393713170879
 31
0.0
  0
LINE
  5
17C
330
17
100
AcDbEntity
  8
0
100
AcDbLine
 10
1888.9201539154963
 20
1760.393713170879
 30
0.0
 11
1888.6145038499876
 21
1759.9640756368983
 31
0.0
  0
LINE
  5
17D
330
17
100
AcDbEntity
  8
0
100
AcDbLine
 10
1888.6145038499876
 20
1759.9640756368983
 30
0.0
 11
1888.3418152971742
 21
1759.5127981986016
 31
0.0
  0
LINE
  5
17E
330
17
100
AcDbEntity
  8
0
100
AcDbLine
 10
1888.3418152971742
 20
1759.5127981986016
 30
0.0
 11
1888.103613242059
 21
1759.0424045824782
 31
0.0
  0
LINE
  5
17F
330
17
100
AcDbEntity
  8
0
100
AcDbLine
 10
1888.103613242059
 20
1759.0424045824782
 30
0.0
 11
1887.9012298071582
 21
1758.5555254204385
 31
0.0
  0
LINE
  5
180
330
17
100
AcDbEntity
  8
0
100
AcDbLine
 10
1887.9012298071582
 20
1758.5555254204385
 30
0.0
 11
1887.735796802732
 21
1758.0548835382538
 31
0.0
  0
LINE
  5
181
330
17
100
AcDbEntity
  8
0
100
AcDbLine
 10
1887.735796802732
 20
1758.0548835382538
 30
0.0
 11
1887.6082393972495
 21
1757.5432787284094
 31
0.0
  0
LINE
  5
182
330
17
100
AcDbEntity
  8
0
100
AcDbLine
 10
1887.6082393972495
 20
1757.5432787284094
 30
0.0
 11
1887.5192709434605
 21
1757.0235720925266
 31
0.0
  0
LINE
  5
183
330
17
100
AcDbEntity
  8
0
100
AcDbLine
 10
1887.5192709434605
 20
1757.0235720925266
 30
0.0
 11
1887.4693889890502
 21
1756.498670040925
 31
0.0
  0
LINE
  5
184
330
17
100
AcDbEntity
  8
0
100
AcDbLine
 10
1887.4693889890502
 20
1756.498670040925
 30
0.0
 11
1887.4588724941425
 21
1755.9715080387991
 31
0.0
  0
LINE
  5
185
330
17
100
AcDbEntity
  8
0
100
AcDbLine
 10
1887.4588724941425
 20
1755.9715080387991
 30
0.0
 11
1887.4877802712406
 21
1755.4450341899005
 31
0.0
  0
LINE
  5
186
330
17
100
AcDbEntity
  8
0
100
AcDbLine
 10
1887.4877802712406
 20
1755.4450341899005
 30
0.0
 11
1887.5559506563309
 21
1754.9221927495505
 31
0.0
  0
LINE
  5
187
330
17
100
AcDbEntity
  8
0
100
AcDbLine
 10
1887.5559506563309
 20
1754.9221927495505
 30
0.0
 11
1887.663002412967
 21
1754.4059076591684
 31
0.0
  0
LINE
  5
188
330
17
100
AcDbEntity
  8
0
100
AcDbLine
 10
1887.663002412967
 20
1754.4059076591684
 30
0.0
 11
1887.8083368642988
 21
1753.8990661944017
 31
0.0
  0
LINE
  5
189
330
17
100
AcDbEntity
  8
0
100
AcDbLine
 10
1887.8083368642988
 20
1753.8990661944017
 30
0.0
 11
1887.991141241125
 21
1753.4045028183186
 31
0.0
  0
LINE
  5
18A
330
17
100
AcDbEntity
  8
0
100
AcDbLine
 10
1887.991141241125
 20
1753.4045028183186
 30
0.0
 11
1888.2103932272157
 21
1752.924983329927
 31
0.0
  0
LINE
  5
18B
330
17
100
AcDbEntity
  8
0
100
AcDbLine
 10
1888.2103932272157
 20
1752.924983329927
 30
0.0
 11
1888.4648666765295
 21
1752.4631893967223
 31
0.0
  0
LINE
  5
18C
330
17
100
AcDbEntity
  8
0
100
AcDbLine
 10
1888.4648666765295
 20
1752.4631893967223
 30
0.0
 11
1888.7531384703143
 21
1752.021703557697
 31
0.0
  0
LINE
  5
18D
330
17
100
AcDbEntity
  8
0
100
AcDbLine
 10
1888.7531384703143
 20
1752.021703557697
 30
0.0
 11
1889.0735964757616
 21
1751.6029947807488
 31
0.0
  0
LINE
  5
18E
330
17
100
AcDbEntity
  8
0
100
AcDbLine
 10
1889.0735964757616
 20
1751.6029947807488
 30
0.0
 11
1889.424448561719
 21
1751.2094046551993
 31
0.0
  0
LINE
  5
18F
330
17
100
AcDbEntity
  8
0
100
AcDbLine
 10
1889.424448561719
 20
1751.2094046551993
 30
0.0
 11
1889.8037326210006
 21
1750.8431342966865
 31
0.0
  0
LINE
  5
190
330
17
100
AcDbEntity
  8
0
100
AcDbLine
 10
1889.8037326210006
 20
1750.8431342966865
 30
0.0
 11
1890.2093275432983
 21
1750.5062320376287
 31
0.0
  0
LINE
  5
191
330
17
100
AcDbEntity
  8
0
100
AcDbLine
 10
1890.2093275432983
 20
1750.5062320376287
 30
0.0
 11
1890.6389650772778
 21
1750.2005819721214
 31
0.0
  0
LINE
  5
192
330
17
100
AcDbEntity
  8
0
100
AcDbLine
 10
1890.6389650772778
 20
1750.2005819721214
 30
0.0
 11
1891.0902425155743
 21
1749.927893419308
 31
0.0
  0
LINE
  5
193
330
17
100
AcDbEntity
  8
0
100
AcDbLine
 10
1891.0902425155743
 20
1749.927893419308
 30
0.0
 11
1891.560636131698
 21
1749.6896913641926
 31
0.0
  0
LINE
  5
194
330
17
100
AcDbEntity
  8
0
100
AcDbLine
 10
1891.560636131698
 20
1749.6896913641926
 30
0.0
 11
1892.0475152937365
 21
1749.487307929292
 31
0.0
  0
LINE
  5
195
330
17
100
AcDbEntity
  8
0
100
AcDbLine
 10
1892.0475152937365
 20
1749.487307929292
 30
0.0
 11
1892.548157175921
 21
1749.3218749248658
 31
0.0
  0
LINE
  5
196
330
17
100
AcDbEntity
  8
0
100
AcDbLine
 10
1892.548157175921
 20
1749.3218749248658
 30
0.0
 11
1893.0597619857667
 21
1749.194317519381
 31
0.0
  0
LINE
  5
197
330
17
100
AcDbEntity
  8
0
100
AcDbLine
 10
1893.0597619857667
 20
1749.194317519381
 30
0.0
 11
1893.5794686216493
 21
1749.1053490655938
 31
0.0
  0
LINE
  5
198
330
17
100
AcDbEntity
  8
0
100
AcDbLine
 10
1893.5794686216493
 20
1749.1053490655938
 30
0.0
 11
1894.1043706732512
 21
1749.0554671111854
 31
0.0
  0
LINE
  5
199
330
17
100
AcDbEntity
  8
0
100
AcDbLine
 10
1894.1043706732512
 20
1749.0554671111854
 30
0.0
 11
1894.6315326753768
 21
1749.044950616276
 31
0.0
  0
LINE
  5
19A
330
17
100
AcDbEntity
  8
0
100
AcDbLine
 10
1894.6315326753768
 20
1749.044950616276
 30
0.0
 11
1895.1580065242756
 21
1749.0738583933758
 31
0.0
  0
LINE
  5
19B
330
17
100
AcDbEntity
  8
0
100
AcDbLine
 10
1895.1580065242756
 20
1749.0738583933758
 30
0.0
 11
1895.6808479646252
 21
1749.1420287784642
 31
0.0
  0
LINE
  5
19C
330
17
100
AcDbEntity
  8
0
100
AcDbLine
 10
1895.6808479646252
 20
1749.1420287784642
 30
0.0
 11
1896.1971330550077
 21
1749.2490805350985
 31
0.0
  0
LINE
  5
19D
330
17
100
AcDbEntity
  8
0
100
AcDbLine
 10
1896.1971330550077
 20
1749.2490805350985
 30
0.0
 11
1896.7039745197744
 21
1749.3944149864324
 31
0.0
  0
LINE
  5
19E
330
17
100
AcDbEntity
  8
0
100
AcDbLine
 10
1896.7039745197744
 20
1749.3944149864324
 30
0.0
 11
1897.1985378958589
 21
1749.5772193632588
 31
0.0
  0
LINE
  5
19F
330
17
100
AcDbEntity
  8
0
100
AcDbLine
 10
1897.1985378958589
 20
1749.5772193632588
 30
0.0
 11
1897.6780573842477
 21
1749.796471349349
 31
0.0
  0
LINE
  5
1A0
330
17
100
AcDbEntity
  8
0
100
AcDbLine
 10
1897.6780573842477
 20
1749.796471349349
 30
0.0
 11
1898.1398513174524
 21
1750.0509447986633
 31
0.0
  0
LINE
  5
1A1
330
17
100
AcDbEntity
  8
0
100
AcDbLine
 10
1898.1398513174524
 20
1750.0509447986633
 30
0.0
 11
1898.5813371564775
 21
1750.3392165924479
 31
0.0
  0
LINE
  5
1A2
330
17
100
AcDbEntity
  8
0
100
AcDbLine
 10
1898.5813371564775
 20
1750.3392165924479
 30
0.0
 11
1899.0000459334276
 21
1750.659674597894
 31
0.0
  0
LINE
  5
1A3
330
17
100
AcDbEntity
  8
0
100
AcDbLine
 10
1899.0000459334276
 20
1750.659674597894
 30
0.0
 11
1899.3936360589769
 21
1751.0105266838518
 31
0.0
  0
LINE
  5
1A4
330
17
100
AcDbEntity
  8
0
100
AcDbLine
 10
1899.3936360589769
 20
1751.0105266838518
 30
0.0
 11
1899.7599064174897
 21
1751.3898107431346
 31
0.0
  0
LINE
  5
1A5
330
17
100
AcDbEntity
  8
0
100
AcDbLine
 10
1899.7599064174897
 20
1751.3898107431346
 30
0.0
 11
1900.096808676546
 21
1751.795405665431
 31
0.0
  0
LINE
  5
1A6
330
17
100
AcDbEntity
  8
0
100
AcDbLine
 10
1900.096808676546
 20
1751.795405665431
 30
0.0
 11
1900.4024587420563
 21
1752.2250431994103
 31
0.0
  0
LINE
  5
1A7
330
17
100
AcDbEntity
  8
0
100
AcDbLine
 10
1900.4024587420563
 20
1752.2250431994103
 30
0.0
 11
1900.6751472948688
 21
1752.6763206377072
 31
0.0
  0
LINE
  5
1A8
330
17
100
AcDbEntity
  8
0
100
AcDbLine
 10
1900.6751472948688
 20
1752.6763206377072
 30
0.0
 11
1900.913349349983
 21
1753.1467142538304
 31
0.0
  0
LINE
  5
1A9
330
17
100
AcDbEntity
  8
0
100
AcDbLine
 10
1900.913349349983
 20
1753.1467142538304
 30
0.0
 11
1901.1157327848855
 21
1753.6335934158715
 31
0.0
  0
LINE
  5
1AA
330
17
100
AcDbEntity
  8
0
100
AcDbLine
 10
1901.1157327848855
 20
1753.6335934158715
 30
0.0
 11
1901.2811657893103
 21
1754.1342352980546
 31
0.0
  0
LINE
  5
1AB
330
17
100
AcDbEntity
  8
0
100
AcDbLine
 10
1901.2811657893103
 20
1754.1342352980546
 30
0.0
 11
1901.4087231947942
 21
1754.6458401079003
 31
0.0
  0
LINE
  5
1AC
330
17
100
AcDbEntity
  8
0
100
AcDbLine
 10
1901.4087231947942
 20
1754.6458401079003
 30
0.0
 11
1901.497691648582
 21
1755.1655467437827
 31
0.0
  0
LINE
  5
1AD
330
17
100
AcDbEntity
  8
0
100
AcDbLine
 10
1901.497691648582
 20
1755.1655467437827
 30
0.0
 11
1901.5475736029919
 21
1755.6904487953836
 31
0.0
  0
LINE
  5
1AE
330
17
100
AcDbEntity
  8
0
100
AcDbLine
 10
1901.5475736029919
 20
1755.6904487953836
 30
0.0
 11
1901.5580900979
 21
1756.21761079751
 31
0.0
  0
LINE
  5
1AF
330
17
100
AcDbEntity
  8
0
100
AcDbLine
 10
297.1985483741711
 20
751.2929675698797
 30
0.0
 11
297.16964059707266
 21
751.8194414187778
 31
0.0
  0
LINE
  5
1B0
330
17
100
AcDbEntity
  8
0
100
AcDbLine
 10
297.16964059707266
 20
751.8194414187778
 30
0.0
 11
297.10147021198287
 21
752.3422828591276
 31
0.0
  0
LINE
  5
1B1
330
17
100
AcDbEntity
  8
0
100
AcDbLine
 10
297.10147021198287
 20
752.3422828591276
 30
0.0
 11
296.99441845534784
 21
752.8585679495112
 31
0.0
  0
LINE
  5
1B2
330
17
100
AcDbEntity
  8
0
100
AcDbLine
 10
296.99441845534784
 20
752.8585679495112
 30
0.0
 11
296.8490840040149
 21
753.3654094142778
 31
0.0
  0
LINE
  5
1B3
330
17
100
AcDbEntity
  8
0
100
AcDbLine
 10
296.8490840040149
 20
753.3654094142778
 30
0.0
 11
296.66627962718894
 21
753.8599727903609
 31
0.0
  0
LINE
  5
1B4
330
17
100
AcDbEntity
  8
0
100
AcDbLine
 10
296.66627962718894
 20
753.8599727903609
 30
0.0
 11
296.4470276410977
 21
754.3394922787513
 31
0.0
  0
LINE
  5
1B5
330
17
100
AcDbEntity
  8
0
100
AcDbLine
 10
296.4470276410977
 20
754.3394922787513
 30
0.0
 11
296.19255419178404
 21
754.801286211956
 31
0.0
  0
LINE
  5
1B6
330
17
100
AcDbEntity
  8
0
100
AcDbLine
 10
296.19255419178404
 20
754.801286211956
 30
0.0
 11
295.9042823980006
 21
755.2427720509811
 31
0.0
  0
LINE
  5
1B7
330
17
100
AcDbEntity
  8
0
100
AcDbLine
 10
295.9042823980006
 20
755.2427720509811
 30
0.0
 11
295.5838243925523
 21
755.6614808279301
 31
0.0
  0
LINE
  5
1B8
330
17
100
AcDbEntity
  8
0
100
AcDbLine
 10
295.5838243925523
 20
755.6614808279301
 30
0.0
 11
295.23297230659506
 21
756.0550709534804
 31
0.0
  0
LINE
  5
1B9
330
17
100
AcDbEntity
  8
0
100
AcDbLine
 10
295.23297230659506
 20
756.0550709534804
 30
0.0
 11
294.85368824731256
 21
756.4213413119924
 31
0.0
  0
LINE
  5
1BA
330
17
100
AcDbEntity
  8
0
100
AcDbLine
 10
294.85368824731256
 20
756.4213413119924
 30
0.0
 11
294.44809332501626
 21
756.7582435710497
 31
0.0
  0
LINE
  5
1BB
330
17
100
AcDbEntity
  8
0
100
AcDbLine
 10
294.44809332501626
 20
756.7582435710497
 30
0.0
 11
294.01845579103605
 21
757.0638936365594
 31
0.0
  0
LINE
  5
1BC
330
17
100
AcDbEntity
  8
0
100
AcDbLine
 10
294.01845579103605
 20
757.0638936365594
 30
0.0
 11
293.56717835273923
 21
757.3365821893705
 31
0.0
  0
LINE
  5
1BD
330
17
100
AcDbEntity
  8
0
100
AcDbLine
 10
293.56717835273923
 20
757.3365821893705
 30
0.0
 11
293.0967847366159
 21
757.5747842444858
 31
0.0
  0
LINE
  5
1BE
330
17
100
AcDbEntity
  8
0
100
AcDbLine
 10
293.0967847366159
 20
757.5747842444858
 30
0.0
 11
292.60990557457666
 21
757.7771676793877
 31
0.0
  0
LINE
  5
1BF
330
17
100
AcDbEntity
  8
0
100
AcDbLine
 10
292.60990557457666
 20
757.7771676793877
 30
0.0
 11
292.10926369239223
 21
757.942600683814
 31
0.0
  0
LINE
  5
1C0
330
17
100
AcDbEntity
  8
0
100
AcDbLine
 10
292.10926369239223
 20
757.942600683814
 30
0.0
 11
291.597658882547
 21
758.0701580892978
 31
0.0
  0
LINE
  5
1C1
330
17
100
AcDbEntity
  8
0
100
AcDbLine
 10
291.597658882547
 20
758.0701580892978
 30
0.0
 11
291.0779522466638
 21
758.1591265430856
 31
0.0
  0
LINE
  5
1C2
330
17
100
AcDbEntity
  8
0
100
AcDbLine
 10
291.0779522466638
 20
758.1591265430856
 30
0.0
 11
290.55305019506295
 21
758.2090084974957
 31
0.0
  0
LINE
  5
1C3
330
17
100
AcDbEntity
  8
0
100
AcDbLine
 10
290.55305019506295
 20
758.2090084974957
 30
0.0
 11
290.025888192937
 21
758.2195249924036
 31
0.0
  0
LINE
  5
1C4
330
17
100
AcDbEntity
  8
0
100
AcDbLine
 10
290.025888192937
 20
758.2195249924036
 30
0.0
 11
289.49941434403866
 21
758.1906172153053
 31
0.0
  0
LINE
  5
1C5
330
17
100
AcDbEntity
  8
0
100
AcDbLine
 10
289.49941434403866
 20
758.1906172153053
 30
0.0
 11
288.97657290368875
 21
758.1224468302152
 31
0.0
  0
LINE
  5
1C6
330
17
100
AcDbEntity
  8
0
100
AcDbLine
 10
288.97657290368875
 20
758.1224468302152
 30
0.0
 11
288.46028781330557
 21
758.0153950735803
 31
0.0
  0
LINE
  5
1C7
330
17
100
AcDbEntity
  8
0
100
AcDbLine
 10
288.46028781330557
 20
758.0153950735803
 30
0.0
 11
287.9534463485395
 21
757.8700606222473
 31
0.0
  0
LINE
  5
1C8
330
17
100
AcDbEntity
  8
0
100
AcDbLine
 10
287.9534463485395
 20
757.8700606222473
 30
0.0
 11
287.4588829724552
 21
757.6872562454209
 31
0.0
  0
LINE
  5
1C9
330
17
100
AcDbEntity
  8
0
100
AcDbLine
 10
287.4588829724552
 20
757.6872562454209
 30
0.0
 11
286.9793634840656
 21
757.4680042593293
 31
0.0
  0
LINE
  5
1CA
330
17
100
AcDbEntity
  8
0
100
AcDbLine
 10
286.9793634840656
 20
757.4680042593293
 30
0.0
 11
286.51756955086057
 21
757.2135308100152
 31
0.0
  0
LINE
  5
1CB
330
17
100
AcDbEntity
  8
0
100
AcDbLine
 10
286.51756955086057
 20
757.2135308100152
 30
0.0
 11
286.0760837118358
 21
756.925259016233
 31
0.0
  0
LINE
  5
1CC
330
17
100
AcDbEntity
  8
0
100
AcDbLine
 10
286.0760837118358
 20
756.925259016233
 30
0.0
 11
285.65737493488615
 21
756.6048010107843
 31
0.0
  0
LINE
  5
1CD
330
17
100
AcDbEntity
  8
0
100
AcDbLine
 10
285.65737493488615
 20
756.6048010107843
 30
0.0
 11
285.2637848093367
 21
756.2539489248271
 31
0.0
  0
LINE
  5
1CE
330
17
100
AcDbEntity
  8
0
100
AcDbLine
 10
285.2637848093367
 20
756.2539489248271
 30
0.0
 11
284.8975144508243
 21
755.874664865545
 31
0.0
  0
LINE
  5
1CF
330
17
100
AcDbEntity
  8
0
100
AcDbLine
 10
284.8975144508243
 20
755.874664865545
 30
0.0
 11
284.56061219176706
 21
755.4690699432479
 31
0.0
  0
LINE
  5
1D0
330
17
100
AcDbEntity
  8
0
100
AcDbLine
 10
284.56061219176706
 20
755.4690699432479
 30
0.0
 11
284.25496212625745
 21
755.0394324092683
 31
0.0
  0
LINE
  5
1D1
330
17
100
AcDbEntity
  8
0
100
AcDbLine
 10
284.25496212625745
 20
755.0394324092683
 30
0.0
 11
283.9822735734452
 21
754.5881549709711
 31
0.0
  0
LINE
  5
1D2
330
17
100
AcDbEntity
  8
0
100
AcDbLine
 10
283.9822735734452
 20
754.5881549709711
 30
0.0
 11
283.7440715183304
 21
754.1177613548482
 31
0.0
  0
LINE
  5
1D3
330
17
100
AcDbEntity
  8
0
100
AcDbLine
 10
283.7440715183304
 20
754.1177613548482
 30
0.0
 11
283.5416880834289
 21
753.6308821928083
 31
0.0
  0
LINE
  5
1D4
330
17
100
AcDbEntity
  8
0
100
AcDbLine
 10
283.5416880834289
 20
753.6308821928083
 30
0.0
 11
283.37625507900293
 21
753.1302403106249
 31
0.0
  0
LINE
  5
1D5
330
17
100
AcDbEntity
  8
0
100
AcDbLine
 10
283.37625507900293
 20
753.1302403106249
 30
0.0
 11
283.24869767351925
 21
752.6186355007793
 31
0.0
  0
LINE
  5
1D6
330
17
100
AcDbEntity
  8
0
100
AcDbLine
 10
283.24869767351925
 20
752.6186355007793
 30
0.0
 11
283.15972921973133
 21
752.0989288648955
 31
0.0
  0
LINE
  5
1D7
330
17
100
AcDbEntity
  8
0
100
AcDbLine
 10
283.15972921973133
 20
752.0989288648955
 30
0.0
 11
283.1098472653217
 21
751.5740268132948
 31
0.0
  0
LINE
  5
1D8
330
17
100
AcDbEntity
  8
0
100
AcDbLine
 10
283.1098472653217
 20
751.5740268132948
 30
0.0
 11
283.09933077041353
 21
751.046864811169
 31
0.0
  0
LINE
  5
1D9
330
17
100
AcDbEntity
  8
0
100
AcDbLine
 10
283.09933077041353
 20
751.046864811169
 30
0.0
 11
283.128238547512
 21
750.5203909622719
 31
0.0
  0
LINE
  5
1DA
330
17
100
AcDbEntity
  8
0
100
AcDbLine
 10
283.128238547512
 20
750.5203909622719
 30
0.0
 11
283.1964089326018
 21
749.9975495219205
 31
0.0
  0
LINE
  5
1DB
330
17
100
AcDbEntity
  8
0
100
AcDbLine
 10
283.1964089326018
 20
749.9975495219205
 30
0.0
 11
283.3034606892368
 21
749.481264431537
 31
0.0
  0
LINE
  5
1DC
330
17
100
AcDbEntity
  8
0
100
AcDbLine
 10
283.3034606892368
 20
749.481264431537
 30
0.0
 11
283.4487951405697
 21
748.9744229667715
 31
0.0
  0
LINE
  5
1DD
330
17
100
AcDbEntity
  8
0
100
AcDbLine
 10
283.4487951405697
 20
748.9744229667715
 30
0.0
 11
283.6315995173956
 21
748.4798595906873
 31
0.0
  0
LINE
  5
1DE
330
17
100
AcDbEntity
  8
0
100
AcDbLine
 10
283.6315995173956
 20
748.4798595906873
 30
0.0
 11
283.85085150348687
 21
748.0003401022981
 31
0.0
  0
LINE
  5
1DF
330
17
100
AcDbEntity
  8
0
100
AcDbLine
 10
283.85085150348687
 20
748.0003401022981
 30
0.0
 11
284.1053249528005
 21
747.5385461690921
 31
0.0
  0
LINE
  5
1E0
330
17
100
AcDbEntity
  8
0
100
AcDbLine
 10
284.1053249528005
 20
747.5385461690921
 30
0.0
 11
284.39359674658397
 21
747.0970603300685
 31
0.0
  0
LINE
  5
1E1
330
17
100
AcDbEntity
  8
0
100
AcDbLine
 10
284.39359674658397
 20
747.0970603300685
 30
0.0
 11
284.71405475203244
 21
746.6783515531185
 31
0.0
  0
LINE
  5
1E2
330
17
100
AcDbEntity
  8
0
100
AcDbLine
 10
284.71405475203244
 20
746.6783515531185
 30
0.0
 11
285.0649068379895
 21
746.2847614275693
 31
0.0
  0
LINE
  5
1E3
330
17
100
AcDbEntity
  8
0
100
AcDbLine
 10
285.0649068379895
 20
746.2847614275693
 30
0.0
 11
285.44419089727205
 21
745.9184910690565
 31
0.0
  0
LINE
  5
1E4
330
17
100
AcDbEntity
  8
0
100
AcDbLine
 10
285.44419089727205
 20
745.9184910690565
 30
0.0
 11
285.8497858195684
 21
745.5815888099985
 31
0.0
  0
LINE
  5
1E5
330
17
100
AcDbEntity
  8
0
100
AcDbLine
 10
285.8497858195684
 20
745.5815888099985
 30
0.0
 11
286.2794233535486
 21
745.2759387444898
 31
0.0
  0
LINE
  5
1E6
330
17
100
AcDbEntity
  8
0
100
AcDbLine
 10
286.2794233535486
 20
745.2759387444898
 30
0.0
 11
286.7307007918453
 21
745.0032501916778
 31
0.0
  0
LINE
  5
1E7
330
17
100
AcDbEntity
  8
0
100
AcDbLine
 10
286.7307007918453
 20
745.0032501916778
 30
0.0
 11
287.20109440796875
 21
744.7650481365624
 31
0.0
  0
LINE
  5
1E8
330
17
100
AcDbEntity
  8
0
100
AcDbLine
 10
287.20109440796875
 20
744.7650481365624
 30
0.0
 11
287.6879735700079
 21
744.5626647016616
 31
0.0
  0
LINE
  5
1E9
330
17
100
AcDbEntity
  8
0
100
AcDbLine
 10
287.6879735700079
 20
744.5626647016616
 30
0.0
 11
288.1886154521923
 21
744.3972316972356
 31
0.0
  0
LINE
  5
1EA
330
17
100
AcDbEntity
  8
0
100
AcDbLine
 10
288.1886154521923
 20
744.3972316972356
 30
0.0
 11
288.70022026203753
 21
744.2696742917508
 31
0.0
  0
LINE
  5
1EB
330
17
100
AcDbEntity
  8
0
100
AcDbLine
 10
288.70022026203753
 20
744.2696742917508
 30
0.0
 11
289.21992689792086
 21
744.1807058379637
 31
0.0
  0
LINE
  5
1EC
330
17
100
AcDbEntity
  8
0
100
AcDbLine
 10
289.21992689792086
 20
744.1807058379637
 30
0.0
 11
289.7448289495217
 21
744.1308238835526
 31
0.0
  0
LINE
  5
1ED
330
17
100
AcDbEntity
  8
0
100
AcDbLine
 10
289.7448289495217
 20
744.1308238835526
 30
0.0
 11
290.2719909516476
 21
744.120307388646
 31
0.0
  0
LINE
  5
1EE
330
17
100
AcDbEntity
  8
0
100
AcDbLine
 10
290.2719909516476
 20
744.120307388646
 30
0.0
 11
290.798464800546
 21
744.1492151657429
 31
0.0
  0
LINE
  5
1EF
330
17
100
AcDbEntity
  8
0
100
AcDbLine
 10
290.798464800546
 20
744.1492151657429
 30
0.0
 11
291.3213062408959
 21
744.2173855508341
 31
0.0
  0
LINE
  5
1F0
330
17
100
AcDbEntity
  8
0
100
AcDbLine
 10
291.3213062408959
 20
744.2173855508341
 30
0.0
 11
291.837591331279
 21
744.3244373074683
 31
0.0
  0
LINE
  5
1F1
330
17
100
AcDbEntity
  8
0
100
AcDbLine
 10
291.837591331279
 20
744.3244373074683
 30
0.0
 11
292.34443279604506
 21
744.4697717588024
 31
0.0
  0
LINE
  5
1F2
330
17
100
AcDbEntity
  8
0
100
AcDbLine
 10
292.34443279604506
 20
744.4697717588024
 30
0.0
 11
292.8389961721293
 21
744.6525761356284
 31
0.0
  0
LINE
  5
1F3
330
17
100
AcDbEntity
  8
0
100
AcDbLine
 10
292.8389961721293
 20
744.6525761356284
 30
0.0
 11
293.3185156605191
 21
744.8718281217191
 31
0.0
  0
LINE
  5
1F4
330
17
100
AcDbEntity
  8
0
100
AcDbLine
 10
293.3185156605191
 20
744.8718281217191
 30
0.0
 11
293.7803095937241
 21
745.1263015710331
 31
0.0
  0
LINE
  5
1F5
330
17
100
AcDbEntity
  8
0
100
AcDbLine
 10
293.7803095937241
 20
745.1263015710331
 30
0.0
 11
294.2217954327489
 21
745.4145733648163
 31
0.0
  0
LINE
  5
1F6
330
17
100
AcDbEntity
  8
0
100
AcDbLine
 10
294.2217954327489
 20
745.4145733648163
 30
0.0
 11
294.6405042096985
 21
745.7350313702639
 31
0.0
  0
LINE
  5
1F7
330
17
100
AcDbEntity
  8
0
100
AcDbLine
 10
294.6405042096985
 20
745.7350313702639
 30
0.0
 11
295.0340943352479
 21
746.0858834562216
 31
0.0
  0
LINE
  5
1F8
330
17
100
AcDbEntity
  8
0
100
AcDbLine
 10
295.0340943352479
 20
746.0858834562216
 30
0.0
 11
295.40036469376025
 21
746.4651675155046
 31
0.0
  0
LINE
  5
1F9
330
17
100
AcDbEntity
  8
0
100
AcDbLine
 10
295.40036469376025
 20
746.4651675155046
 30
0.0
 11
295.73726695281766
 21
746.8707624378007
 31
0.0
  0
LINE
  5
1FA
330
17
100
AcDbEntity
  8
0
100
AcDbLine
 10
295.73726695281766
 20
746.8707624378007
 30
0.0
 11
296.0429170183271
 21
747.3003999717814
 31
0.0
  0
LINE
  5
1FB
330
17
100
AcDbEntity
  8
0
100
AcDbLine
 10
296.0429170183271
 20
747.3003999717814
 30
0.0
 11
296.3156055711394
 21
747.751677410077
 31
0.0
  0
LINE
  5
1FC
330
17
100
AcDbEntity
  8
0
100
AcDbLine
 10
296.3156055711394
 20
747.751677410077
 30
0.0
 11
296.5538076262542
 21
748.2220710262013
 31
0.0
  0
LINE
  5
1FD
330
17
100
AcDbEntity
  8
0
100
AcDbLine
 10
296.5538076262542
 20
748.2220710262013
 30
0.0
 11
296.7561910611557
 21
748.7089501882399
 31
0.0
  0
LINE
  5
1FE
330
17
100
AcDbEntity
  8
0
100
AcDbLine
 10
296.7561910611557
 20
748.7089501882399
 30
0.0
 11
296.9216240655817
 21
749.2095920704244
 31
0.0
  0
LINE
  5
1FF
330
17
100
AcDbEntity
  8
0
100
AcDbLine
 10
296.9216240655817
 20
749.2095920704244
 30
0.0
 11
297.04918147106537
 21
749.721196880269
 31
0.0
  0
LINE
  5
200
330
17
100
AcDbEntity
  8
0
100
AcDbLine
 10
297.04918147106537
 20
749.721196880269
 30
0.0
 11
297.13814992485334
 21
750.2409035161527
 31
0.0
  0
LINE
  5
201
330
17
100
AcDbEntity
  8
0
100
AcDbLine
 10
297.13814992485334
 20
750.2409035161527
 30
0.0
 11
297.18803187926295
 21
750.7658055677548
 31
0.0
  0
LINE
  5
202
330
17
100
AcDbEntity
  8
0
100
AcDbLine
 10
297.18803187926295
 20
750.7658055677548
 30
0.0
 11
297.1985483741711
 21
751.2929675698797
 31
0.0
  0
LINE
  5
203
330
17
100
AcDbEntity
  8
0
100
AcDbLine
 10
1158.5963912738612
 20
1667.3053295526142
 30
0.0
 11
1157.0309659841262
 21
1668.7896555667064
 31
0.0
  0
LINE
  5
204
330
17
100
AcDbEntity
  8
0
100
AcDbLine
 10
1157.0309659841262
 20
1668.7896555667064
 30
0.0
 11
1155.4386919937544
 21
1670.2451429742223
 31
0.0
  0
LINE
  5
205
330
17
100
AcDbEntity
  8
0
100
AcDbLine
 10
1155.4386919937544
 20
1670.2451429742223
 30
0.0
 11
1153.8201004911411
 21
1671.671306219269
 31
0.0
  0
LINE
  5
206
330
17
100
AcDbEntity
  8
0
100
AcDbLine
 10
1153.8201004911411
 20
1671.671306219269
 30
0.0
 11
1152.1757314442996
 21
1673.0676695285983
 31
0.0
  0
LINE
  5
207
330
17
100
AcDbEntity
  8
0
100
AcDbLine
 10
1152.1757314442996
 20
1673.0676695285983
 30
0.0
 11
1150.5061334207253
 21
1674.4337670703321
 31
0.0
  0
LINE
  5
208
330
17
100
AcDbEntity
  8
0
100
AcDbLine
 10
1150.5061334207253
 20
1674.4337670703321
 30
0.0
 11
1148.8118634043926
 21
1675.7691431093594
 31
0.0
  0
LINE
  5
209
330
17
100
AcDbEntity
  8
0
100
AcDbLine
 10
1148.8118634043926
 20
1675.7691431093594
 30
0.0
 11
1147.0934866099435
 21
1677.0733521593784
 31
0.0
  0
LINE
  5
20A
330
17
100
AcDbEntity
  8
0
100
AcDbLine
 10
1147.0934866099435
 20
1677.0733521593784
 30
0.0
 11
1145.3515762941254
 21
1678.3459591315036
 31
0.0
  0
LINE
  5
20B
330
17
100
AcDbEntity
  8
0
100
AcDbLine
 10
1145.3515762941254
 20
1678.3459591315036
 30
0.0
 11
1143.5867135645578
 21
1679.5865394794182
 31
0.0
  0
LINE
  5
20C
330
17
100
AcDbEntity
  8
0
100
AcDbLine
 10
1143.5867135645578
 20
1679.5865394794182
 30
0.0
 11
1141.7994871858668
 21
1680.7946793410104
 31
0.0
  0
LINE
  5
20D
330
17
100
AcDbEntity
  8
0
100
AcDbLine
 10
1141.7994871858668
 20
1680.7946793410104
 30
0.0
 11
1139.9904933832743
 21
1681.969975676422
 31
0.0
  0
LINE
  5
20E
330
17
100
AcDbEntity
  8
0
100
AcDbLine
 10
1139.9904933832743
 20
1681.969975676422
 30
0.0
 11
1138.1603356436924
 21
1683.1120364025235
 31
0.0
  0
LINE
  5
20F
330
17
100
AcDbEntity
  8
0
100
AcDbLine
 10
1138.1603356436924
 20
1683.1120364025235
 30
0.0
 11
1136.3096245144022
 21
1684.2204805236997
 31
0.0
  0
LINE
  5
210
330
17
100
AcDbEntity
  8
0
100
AcDbLine
 10
1136.3096245144022
 20
1684.2204805236997
 30
0.0
 11
1134.4389773993676
 21
1685.2949382589636
 31
0.0
  0
LINE
  5
211
330
17
100
AcDbEntity
  8
0
100
AcDbLine
 10
1134.4389773993676
 20
1685.2949382589636
 30
0.0
 11
1132.5490183532706
 21
1686.3350511653018
 31
0.0
  0
LINE
  5
212
330
17
100
AcDbEntity
  8
0
100
AcDbLine
 10
1132.5490183532706
 20
1686.3350511653018
 30
0.0
 11
1130.640377873326
 21
1687.340472257266
 31
0.0
  0
LINE
  5
213
330
17
100
AcDbEntity
  8
0
100
AcDbLine
 10
1130.640377873326
 20
1687.340472257266
 30
0.0
 11
1128.7136926889398
 21
1688.3108661227238
 31
0.0
  0
LINE
  5
214
330
17
100
AcDbEntity
  8
0
100
AcDbLine
 10
1128.7136926889398
 20
1688.3108661227238
 30
0.0
 11
1126.7696055492984
 21
1689.2459090347525
 31
0.0
  0
LINE
  5
215
330
17
100
AcDbEntity
  8
0
100
AcDbLine
 10
1126.7696055492984
 20
1689.2459090347525
 30
0.0
 11
1124.8087650089435
 21
1690.1452890596324
 31
0.0
  0
LINE
  5
216
330
17
100
AcDbEntity
  8
0
100
AcDbLine
 10
1124.8087650089435
 20
1690.1452890596324
 30
0.0
 11
1122.8318252114127
 21
1691.0087061609174
 31
0.0
  0
LINE
  5
217
330
17
100
AcDbEntity
  8
0
100
AcDbLine
 10
1122.8318252114127
 20
1691.0087061609174
 30
0.0
 11
1120.839445671014
 21
1691.8358722995204
 31
0.0
  0
LINE
  5
218
330
17
100
AcDbEntity
  8
0
100
AcDbLine
 10
1120.839445671014
 20
1691.8358722995204
 30
0.0
 11
1118.8322910528093
 21
1692.6265115298102
 31
0.0
  0
LINE
  5
219
330
17
100
AcDbEntity
  8
0
100
AcDbLine
 10
1118.8322910528093
 20
1692.6265115298102
 30
0.0
 11
1116.8110309508809
 21
1693.3803600916626
 31
0.0
  0
LINE
  5
21A
330
17
100
AcDbEntity
  8
0
100
AcDbLine
 10
1116.8110309508809
 20
1693.3803600916626
 30
0.0
 11
1114.776339664952
 21
1694.097166498455
 31
0.0
  0
LINE
  5
21B
330
17
100
AcDbEntity
  8
0
100
AcDbLine
 10
1114.776339664952
 20
1694.097166498455
 30
0.0
 11
1112.7288959754374
 21
1694.7766916209623
 31
0.0
  0
LINE
  5
21C
330
17
100
AcDbEntity
  8
0
100
AcDbLine
 10
1112.7288959754374
 20
1694.7766916209623
 30
0.0
 11
1110.6693829169994
 21
1695.418708767132
 31
0.0
  0
LINE
  5
21D
330
17
100
AcDbEntity
  8
0
100
AcDbLine
 10
1110.6693829169994
 20
1695.418708767132
 30
0.0
 11
1108.5984875506867
 21
1696.0230037577094
 31
0.0
  0
LINE
  5
21E
330
17
100
AcDbEntity
  8
0
100
AcDbLine
 10
1108.5984875506867
 20
1696.0230037577094
 30
0.0
 11
1106.5169007347258
 21
1696.5893749976858
 31
0.0
  0
LINE
  5
21F
330
17
100
AcDbEntity
  8
0
100
AcDbLine
 10
1106.5169007347258
 20
1696.5893749976858
 30
0.0
 11
1104.4253168940522
 21
1697.1176335435564
 31
0.0
  0
LINE
  5
220
330
17
100
AcDbEntity
  8
0
100
AcDbLine
 10
1104.4253168940522
 20
1697.1176335435564
 30
0.0
 11
1102.3244337886433
 21
1697.6076031663483
 31
0.0
  0
LINE
  5
221
330
17
100
AcDbEntity
  8
0
100
AcDbLine
 10
1102.3244337886433
 20
1697.6076031663483
 30
0.0
 11
1100.214952280745
 21
1698.0591204104126
 31
0.0
  0
LINE
  5
222
330
17
100
AcDbEntity
  8
0
100
AcDbLine
 10
1100.214952280745
 20
1698.0591204104126
 30
0.0
 11
1098.0975761010618
 21
1698.4720346479548
 31
0.0
  0
LINE
  5
223
330
17
100
AcDbEntity
  8
0
100
AcDbLine
 10
1098.0975761010618
 20
1698.4720346479548
 30
0.0
 11
1095.973011613991
 21
1698.8462081292832
 31
0.0
  0
LINE
  5
224
330
17
100
AcDbEntity
  8
0
100
AcDbLine
 10
1095.973011613991
 20
1698.8462081292832
 30
0.0
 11
1093.841967581973
 21
1699.181516028763
 31
0.0
  0
LINE
  5
225
330
17
100
AcDbEntity
  8
0
100
AcDbLine
 10
1093.841967581973
 20
1699.181516028763
 30
0.0
 11
1091.7051549290495
 21
1699.4778464864582
 31
0.0
  0
LINE
  5
226
330
17
100
AcDbEntity
  8
0
100
AcDbLine
 10
1091.7051549290495
 20
1699.4778464864582
 30
0.0
 11
1089.5632865036944
 21
1699.735100645453
 31
0.0
  0
LINE
  5
227
330
17
100
AcDbEntity
  8
0
100
AcDbLine
 10
1089.5632865036944
 20
1699.735100645453
 30
0.0
 11
1087.4170768410058
 21
1699.953192684821
 31
0.0
  0
LINE
  5
228
330
17
100
AcDbEntity
  8
0
100
AcDbLine
 10
1087.4170768410058
 20
1699.953192684821
 30
0.0
 11
1085.2672419243352
 21
1700.132049848266
 31
0.0
  0
LINE
  5
229
330
17
100
AcDbEntity
  8
0
100
AcDbLine
 10
1085.2672419243352
 20
1700.132049848266
 30
0.0
 11
1083.1144989464308
 21
1700.271612468388
 31
0.0
  0
LINE
  5
22A
330
17
100
AcDbEntity
  8
0
100
AcDbLine
 10
1083.1144989464308
 20
1700.271612468388
 30
0.0
 11
1080.9595660701805
 21
1700.3718339865875
 31
0.0
  0
LINE
  5
22B
330
17
100
AcDbEntity
  8
0
100
AcDbLine
 10
1080.9595660701805
 20
1700.3718339865875
 30
0.0
 11
1078.803162189032
 21
1700.432680968603
 31
0.0
  0
LINE
  5
22C
330
17
100
AcDbEntity
  8
0
100
AcDbLine
 10
1078.803162189032
 20
1700.432680968603
 30
0.0
 11
1076.6460066871643
 21
1700.4541331156602
 31
0.0
  0
LINE
  5
22D
330
17
100
AcDbEntity
  8
0
100
AcDbLine
 10
1076.6460066871643
 20
1700.4541331156602
 30
0.0
 11
1074.4888191994992
 21
1700.436183271243
 31
0.0
  0
LINE
  5
22E
330
17
100
AcDbEntity
  8
0
100
AcDbLine
 10
1163.4198516356616
 20
1390.9694704975786
 30
0.0
 11
1161.8544263459266
 21
1392.453796511671
 31
0.0
  0
LINE
  5
22F
330
17
100
AcDbEntity
  8
0
100
AcDbLine
 10
1161.8544263459266
 20
1392.453796511671
 30
0.0
 11
1160.2621523555547
 21
1393.9092839191871
 31
0.0
  0
LINE
  5
230
330
17
100
AcDbEntity
  8
0
100
AcDbLine
 10
1160.2621523555547
 20
1393.9092839191871
 30
0.0
 11
1158.6435608529416
 21
1395.3354471642335
 31
0.0
  0
LINE
  5
231
330
17
100
AcDbEntity
  8
0
100
AcDbLine
 10
1158.6435608529416
 20
1395.3354471642335
 30
0.0
 11
1156.9991918061
 21
1396.731810473563
 31
0.0
  0
LINE
  5
232
330
17
100
AcDbEntity
  8
0
100
AcDbLine
 10
1156.9991918061
 20
1396.731810473563
 30
0.0
 11
1155.3295937825258
 21
1398.097908015296
 31
0.0
  0
LINE
  5
233
330
17
100
AcDbEntity
  8
0
100
AcDbLine
 10
1155.3295937825258
 20
1398.097908015296
 30
0.0
 11
1153.635323766193
 21
1399.4332840543243
 31
0.0
  0
LINE
  5
234
330
17
100
AcDbEntity
  8
0
100
AcDbLine
 10
1153.635323766193
 20
1399.4332840543243
 30
0.0
 11
1151.916946971744
 21
1400.7374931043419
 31
0.0
  0
LINE
  5
235
330
17
100
AcDbEntity
  8
0
100
AcDbLine
 10
1151.916946971744
 20
1400.7374931043419
 30
0.0
 11
1150.1750366559259
 21
1402.010100076467
 31
0.0
  0
LINE
  5
236
330
17
100
AcDbEntity
  8
0
100
AcDbLine
 10
1150.1750366559259
 20
1402.010100076467
 30
0.0
 11
1148.4101739263583
 21
1403.2506804243828
 31
0.0
  0
LINE
  5
237
330
17
100
AcDbEntity
  8
0
100
AcDbLine
 10
1148.4101739263583
 20
1403.2506804243828
 30
0.0
 11
1146.6229475476673
 21
1404.4588202859736
 31
0.0
  0
LINE
  5
238
330
17
100
AcDbEntity
  8
0
100
AcDbLine
 10
1146.6229475476673
 20
1404.4588202859736
 30
0.0
 11
1144.8139537450747
 21
1405.634116621387
 31
0.0
  0
LINE
  5
239
330
17
100
AcDbEntity
  8
0
100
AcDbLine
 10
1144.8139537450747
 20
1405.634116621387
 30
0.0
 11
1142.9837960054929
 21
1406.7761773474886
 31
0.0
  0
LINE
  5
23A
330
17
100
AcDbEntity
  8
0
100
AcDbLine
 10
1142.9837960054929
 20
1406.7761773474886
 30
0.0
 11
1141.1330848762027
 21
1407.8846214686657
 31
0.0
  0
LINE
  5
23B
330
17
100
AcDbEntity
  8
0
100
AcDbLine
 10
1141.1330848762027
 20
1407.8846214686657
 30
0.0
 11
1139.262437761168
 21
1408.959079203927
 31
0.0
  0
LINE
  5
23C
330
17
100
AcDbEntity
  8
0
100
AcDbLine
 10
1139.262437761168
 20
1408.959079203927
 30
0.0
 11
1137.372478715071
 21
1409.9991921102653
 31
0.0
  0
LINE
  5
23D
330
17
100
AcDbEntity
  8
0
100
AcDbLine
 10
1137.372478715071
 20
1409.9991921102653
 30
0.0
 11
1135.4638382351266
 21
1411.0046132022317
 31
0.0
  0
LINE
  5
23E
330
17
100
AcDbEntity
  8
0
100
AcDbLine
 10
1135.4638382351266
 20
1411.0046132022317
 30
0.0
 11
1133.5371530507402
 21
1411.9750070676882
 31
0.0
  0
LINE
  5
23F
330
17
100
AcDbEntity
  8
0
100
AcDbLine
 10
1133.5371530507402
 20
1411.9750070676882
 30
0.0
 11
1131.5930659110988
 21
1412.910049979717
 31
0.0
  0
LINE
  5
240
330
17
100
AcDbEntity
  8
0
100
AcDbLine
 10
1131.5930659110988
 20
1412.910049979717
 30
0.0
 11
1129.632225370744
 21
1413.809430004597
 31
0.0
  0
LINE
  5
241
330
17
100
AcDbEntity
  8
0
100
AcDbLine
 10
1129.632225370744
 20
1413.809430004597
 30
0.0
 11
1127.6552855732132
 21
1414.6728471058814
 31
0.0
  0
LINE
  5
242
330
17
100
AcDbEntity
  8
0
100
AcDbLine
 10
1127.6552855732132
 20
1414.6728471058814
 30
0.0
 11
1125.6629060328141
 21
1415.5000132444852
 31
0.0
  0
LINE
  5
243
330
17
100
AcDbEntity
  8
0
100
AcDbLine
 10
1125.6629060328141
 20
1415.5000132444852
 30
0.0
 11
1123.6557514146098
 21
1416.2906524747748
 31
0.0
  0
LINE
  5
244
330
17
100
AcDbEntity
  8
0
100
AcDbLine
 10
1123.6557514146098
 20
1416.2906524747748
 30
0.0
 11
1121.6344913126813
 21
1417.0445010366275
 31
0.0
  0
LINE
  5
245
330
17
100
AcDbEntity
  8
0
100
AcDbLine
 10
1121.6344913126813
 20
1417.0445010366275
 30
0.0
 11
1119.5998000267525
 21
1417.7613074434198
 31
0.0
  0
LINE
  5
246
330
17
100
AcDbEntity
  8
0
100
AcDbLine
 10
1119.5998000267525
 20
1417.7613074434198
 30
0.0
 11
1117.5523563372378
 21
1418.440832565927
 31
0.0
  0
LINE
  5
247
330
17
100
AcDbEntity
  8
0
100
AcDbLine
 10
1117.5523563372378
 20
1418.440832565927
 30
0.0
 11
1115.4928432788
 21
1419.082849712097
 31
0.0
  0
LINE
  5
248
330
17
100
AcDbEntity
  8
0
100
AcDbLine
 10
1115.4928432788
 20
1419.082849712097
 30
0.0
 11
1113.421947912487
 21
1419.687144702674
 31
0.0
  0
LINE
  5
249
330
17
100
AcDbEntity
  8
0
100
AcDbLine
 10
1113.421947912487
 20
1419.687144702674
 30
0.0
 11
1111.3403610965263
 21
1420.2535159426507
 31
0.0
  0
LINE
  5
24A
330
17
100
AcDbEntity
  8
0
100
AcDbLine
 10
1111.3403610965263
 20
1420.2535159426507
 30
0.0
 11
1109.2487772558527
 21
1420.781774488521
 31
0.0
  0
LINE
  5
24B
330
17
100
AcDbEntity
  8
0
100
AcDbLine
 10
1109.2487772558527
 20
1420.781774488521
 30
0.0
 11
1107.1478941504438
 21
1421.2717441113134
 31
0.0
  0
LINE
  5
24C
330
17
100
AcDbEntity
  8
0
100
AcDbLine
 10
1107.1478941504438
 20
1421.2717441113134
 30
0.0
 11
1105.0384126425452
 21
1421.7232613553772
 31
0.0
  0
LINE
  5
24D
330
17
100
AcDbEntity
  8
0
100
AcDbLine
 10
1105.0384126425452
 20
1421.7232613553772
 30
0.0
 11
1102.9210364628623
 21
1422.1361755929195
 31
0.0
  0
LINE
  5
24E
330
17
100
AcDbEntity
  8
0
100
AcDbLine
 10
1102.9210364628623
 20
1422.1361755929195
 30
0.0
 11
1100.7964719757915
 21
1422.5103490742479
 31
0.0
  0
LINE
  5
24F
330
17
100
AcDbEntity
  8
0
100
AcDbLine
 10
1100.7964719757915
 20
1422.5103490742479
 30
0.0
 11
1098.6654279437735
 21
1422.8456569737277
 31
0.0
  0
LINE
  5
250
330
17
100
AcDbEntity
  8
0
100
AcDbLine
 10
1098.6654279437735
 20
1422.8456569737277
 30
0.0
 11
1096.5286152908498
 21
1423.141987431423
 31
0.0
  0
LINE
  5
251
330
17
100
AcDbEntity
  8
0
100
AcDbLine
 10
1096.5286152908498
 20
1423.141987431423
 30
0.0
 11
1094.3867468654948
 21
1423.3992415904168
 31
0.0
  0
LINE
  5
252
330
17
100
AcDbEntity
  8
0
100
AcDbLine
 10
1094.3867468654948
 20
1423.3992415904168
 30
0.0
 11
1092.2405372028063
 21
1423.6173336297857
 31
0.0
  0
LINE
  5
253
330
17
100
AcDbEntity
  8
0
100
AcDbLine
 10
1092.2405372028063
 20
1423.6173336297857
 30
0.0
 11
1090.0907022861356
 21
1423.7961907932292
 31
0.0
  0
LINE
  5
254
330
17
100
AcDbEntity
  8
0
100
AcDbLine
 10
1090.0907022861356
 20
1423.7961907932292
 30
0.0
 11
1087.937959308231
 21
1423.9357534133526
 31
0.0
  0
LINE
  5
255
330
17
100
AcDbEntity
  8
0
100
AcDbLine
 10
1087.937959308231
 20
1423.9357534133526
 30
0.0
 11
1085.783026431981
 21
1424.0359749315512
 31
0.0
  0
LINE
  5
256
330
17
100
AcDbEntity
  8
0
100
AcDbLine
 10
1085.783026431981
 20
1424.0359749315512
 30
0.0
 11
1083.6266225508323
 21
1424.0968219135677
 31
0.0
  0
LINE
  5
257
330
17
100
AcDbEntity
  8
0
100
AcDbLine
 10
1083.6266225508323
 20
1424.0968219135677
 30
0.0
 11
1081.4694670489648
 21
1424.1182740606237
 31
0.0
  0
LINE
  5
258
330
17
100
AcDbEntity
  8
0
100
AcDbLine
 10
1081.4694670489648
 20
1424.1182740606237
 30
0.0
 11
1079.3122795612996
 21
1424.1003242162078
 31
0.0
  0
LINE
  5
259
330
17
100
AcDbEntity
  8
0
100
AcDbLine
 10
1345.0198363449865
 20
1428.7382668717864
 30
0.0
 11
1342.9843380413338
 21
1428.6832312626648
 31
0.0
  0
LINE
  5
25A
330
17
100
AcDbEntity
  8
0
100
AcDbLine
 10
1342.9843380413338
 20
1428.6832312626648
 30
0.0
 11
1340.9502673943025
 21
1428.5892160227795
 31
0.0
  0
LINE
  5
25B
330
17
100
AcDbEntity
  8
0
100
AcDbLine
 10
1340.9502673943025
 20
1428.5892160227795
 30
0.0
 11
1338.9183707921557
 21
1428.456255650379
 31
0.0
  0
LINE
  5
25C
330
17
100
AcDbEntity
  8
0
100
AcDbLine
 10
1338.9183707921557
 20
1428.456255650379
 30
0.0
 11
1336.8893938254053
 21
1428.2843989343594
 31
0.0
  0
LINE
  5
25D
330
17
100
AcDbEntity
  8
0
100
AcDbLine
 10
1336.8893938254053
 20
1428.2843989343594
 30
0.0
 11
1334.8640810132238
 21
1428.0737089363615
 31
0.0
  0
LINE
  5
25E
330
17
100
AcDbEntity
  8
0
100
AcDbLine
 10
1334.8640810132238
 20
1428.0737089363615
 30
0.0
 11
1332.8431755302456
 21
1427.8242629676354
 31
0.0
  0
LINE
  5
25F
330
17
100
AcDbEntity
  8
0
100
AcDbLine
 10
1332.8431755302456
 20
1427.8242629676354
 30
0.0
 11
1330.8274189338679
 21
1427.5361525606688
 31
0.0
  0
LINE
  5
260
330
17
100
AcDbEntity
  8
0
100
AcDbLine
 10
1330.8274189338679
 20
1427.5361525606688
 30
0.0
 11
1328.817550892138
 21
1427.2094834355928
 31
0.0
  0
LINE
  5
261
330
17
100
AcDbEntity
  8
0
100
AcDbLine
 10
1328.817550892138
 20
1427.2094834355928
 30
0.0
 11
1326.8143089123387
 21
1426.844375461404
 31
0.0
  0
LINE
  5
262
330
17
100
AcDbEntity
  8
0
100
AcDbLine
 10
1326.8143089123387
 20
1426.844375461404
 30
0.0
 11
1324.8184280703654
 21
1426.4409626119707
 31
0.0
  0
LINE
  5
263
330
17
100
AcDbEntity
  8
0
100
AcDbLine
 10
1324.8184280703654
 20
1426.4409626119707
 30
0.0
 11
1322.8306407409943
 21
1425.9993929168652
 31
0.0
  0
LINE
  5
264
330
17
100
AcDbEntity
  8
0
100
AcDbLine
 10
1322.8306407409943
 20
1425.9993929168652
 30
0.0
 11
1320.8516763291427
 21
1425.5198284070552
 31
0.0
  0
LINE
  5
265
330
17
100
AcDbEntity
  8
0
100
AcDbLine
 10
1320.8516763291427
 20
1425.5198284070552
 30
0.0
 11
1318.8822610022178
 21
1425.0024450554486
 31
0.0
  0
LINE
  5
266
330
17
100
AcDbEntity
  8
0
100
AcDbLine
 10
1318.8822610022178
 20
1425.0024450554486
 30
0.0
 11
1316.923117423658
 21
1424.4474327123148
 31
0.0
  0
LINE
  5
267
330
17
100
AcDbEntity
  8
0
100
AcDbLine
 10
1316.923117423658
 20
1424.4474327123148
 30
0.0
 11
1314.974964487751
 21
1423.8549950356255
 31
0.0
  0
LINE
  5
268
330
17
100
AcDbEntity
  8
0
100
AcDbLine
 10
1314.974964487751
 20
1423.8549950356255
 30
0.0
 11
1313.0385170558466
 21
1423.2253494163147
 31
0.0
  0
LINE
  5
269
330
17
100
AcDbEntity
  8
0
100
AcDbLine
 10
1313.0385170558466
 20
1423.2253494163147
 30
0.0
 11
1311.1144856940386
 21
1422.5587268985262
 31
0.0
  0
LINE
  5
26A
330
17
100
AcDbEntity
  8
0
100
AcDbLine
 10
1311.1144856940386
 20
1422.5587268985262
 30
0.0
 11
1309.2035764124291
 21
1421.8553720948141
 31
0.0
  0
LINE
  5
26B
330
17
100
AcDbEntity
  8
0
100
AcDbLine
 10
1309.2035764124291
 20
1421.8553720948141
 30
0.0
 11
1307.306490406064
 21
1421.1155430963988
 31
0.0
  0
LINE
  5
26C
330
17
100
AcDbEntity
  8
0
100
AcDbLine
 10
1307.306490406064
 20
1421.1155430963988
 30
0.0
 11
1305.423923797632
 21
1420.3395113784502
 31
0.0
  0
LINE
  5
26D
330
17
100
AcDbEntity
  8
0
100
AcDbLine
 10
1305.423923797632
 20
1420.3395113784502
 30
0.0
 11
1303.5565673820288
 21
1419.5275617004827
 31
0.0
  0
LINE
  5
26E
330
17
100
AcDbEntity
  8
0
100
AcDbLine
 10
1303.5565673820288
 20
1419.5275617004827
 30
0.0
 11
1301.7051063728745
 21
1418.6799920018586
 31
0.0
  0
LINE
  5
26F
330
17
100
AcDbEntity
  8
0
100
AcDbLine
 10
1301.7051063728745
 20
1418.6799920018586
 30
0.0
 11
1299.870220151079
 21
1417.7971132924602
 31
0.0
  0
LINE
  5
270
330
17
100
AcDbEntity
  8
0
100
AcDbLine
 10
1299.870220151079
 20
1417.7971132924602
 30
0.0
 11
1298.0525820155472
 21
1416.8792495385696
 31
0.0
  0
LINE
  5
271
330
17
100
AcDbEntity
  8
0
100
AcDbLine
 10
1298.0525820155472
 20
1416.8792495385696
 30
0.0
 11
1296.2528589361175
 21
1415.9267375439927
 31
0.0
  0
LINE
  5
272
330
17
100
AcDbEntity
  8
0
100
AcDbLine
 10
1296.2528589361175
 20
1415.9267375439927
 30
0.0
 11
1294.4717113088213
 21
1414.9399268264683
 31
0.0
  0
LINE
  5
273
330
17
100
AcDbEntity
  8
0
100
AcDbLine
 10
1294.4717113088213
 20
1414.9399268264683
 30
0.0
 11
1292.7097927135553
 21
1413.9191794894157
 31
0.0
  0
LINE
  5
274
330
17
100
AcDbEntity
  8
0
100
AcDbLine
 10
1292.7097927135553
 20
1413.9191794894157
 30
0.0
 11
1290.9677496742554
 21
1412.8648700890626
 31
0.0
  0
LINE
  5
275
330
17
100
AcDbEntity
  8
0
100
AcDbLine
 10
1290.9677496742554
 20
1412.8648700890626
 30
0.0
 11
1289.2462214216575
 21
1411.7773854970105
 31
0.0
  0
LINE
  5
276
330
17
100
AcDbEntity
  8
0
100
AcDbLine
 10
1289.2462214216575
 20
1411.7773854970105
 30
0.0
 11
1287.5458396587387
 21
1410.657124758264
 31
0.0
  0
LINE
  5
277
330
17
100
AcDbEntity
  8
0
100
AcDbLine
 10
1287.5458396587387
 20
1410.657124758264
 30
0.0
 11
1285.867228328916
 21
1409.504498944813
 31
0.0
  0
LINE
  5
278
330
17
100
AcDbEntity
  8
0
100
AcDbLine
 10
1285.867228328916
 20
1409.504498944813
 30
0.0
 11
1284.2110033870947
 21
1408.319931004788
 31
0.0
  0
LINE
  5
279
330
17
100
AcDbEntity
  8
0
100
AcDbLine
 10
1284.2110033870947
 20
1408.319931004788
 30
0.0
 11
1282.577772573651
 21
1407.1038556072647
 31
0.0
  0
LINE
  5
27A
330
17
100
AcDbEntity
  8
0
100
AcDbLine
 10
1282.577772573651
 20
1407.1038556072647
 30
0.0
 11
1280.9681351914207
 21
1405.8567189827625
 31
0.0
  0
LINE
  5
27B
330
17
100
AcDbEntity
  8
0
100
AcDbLine
 10
1280.9681351914207
 20
1405.8567189827625
 30
0.0
 11
1279.3826818857947
 21
1404.5789787595086
 31
0.0
  0
LINE
  5
27C
330
17
100
AcDbEntity
  8
0
100
AcDbLine
 10
1279.3826818857947
 20
1404.5789787595086
 30
0.0
 11
1277.8219944279801
 21
1403.2711037955055
 31
0.0
  0
LINE
  5
27D
330
17
100
AcDbEntity
  8
0
100
AcDbLine
 10
1277.8219944279801
 20
1403.2711037955055
 30
0.0
 11
1276.286645501529
 21
1401.9335740064948
 31
0.0
  0
LINE
  5
27E
330
17
100
AcDbEntity
  8
0
100
AcDbLine
 10
1276.286645501529
 20
1401.9335740064948
 30
0.0
 11
1274.7771984921912
 21
1400.566880189853
 31
0.0
  0
LINE
  5
27F
330
17
100
AcDbEntity
  8
0
100
AcDbLine
 10
1274.7771984921912
 20
1400.566880189853
 30
0.0
 11
1273.2942072811868
 21
1399.1715238444972
 31
0.0
  0
LINE
  5
280
330
17
100
AcDbEntity
  8
0
100
AcDbLine
 10
1273.2942072811868
 20
1399.1715238444972
 30
0.0
 11
1271.8382160419621
 21
1397.748016986857
 31
0.0
  0
LINE
  5
281
330
17
100
AcDbEntity
  8
0
100
AcDbLine
 10
1271.8382160419621
 20
1397.748016986857
 30
0.0
 11
1270.4097590405086
 21
1396.2968819630082
 31
0.0
  0
LINE
  5
282
330
17
100
AcDbEntity
  8
0
100
AcDbLine
 10
1170.6316179098803
 20
1166.4058324592536
 30
0.0
 11
1171.870345827352
 21
1167.7168959373928
 31
0.0
  0
LINE
  5
283
330
17
100
AcDbEntity
  8
0
100
AcDbLine
 10
1171.870345827352
 20
1167.7168959373928
 30
0.0
 11
1173.0801782620747
 21
1169.0546701250362
 31
0.0
  0
LINE
  5
284
330
17
100
AcDbEntity
  8
0
100
AcDbLine
 10
1173.0801782620747
 20
1169.0546701250362
 30
0.0
 11
1174.260539399335
 21
1170.4185183141235
 31
0.0
  0
LINE
  5
285
330
17
100
AcDbEntity
  8
0
100
AcDbLine
 10
1174.260539399335
 20
1170.4185183141235
 30
0.0
 11
1175.4108674511588
 21
1171.8077913867828
 31
0.0
  0
LINE
  5
286
330
17
100
AcDbEntity
  8
0
100
AcDbLine
 10
1175.4108674511588
 20
1171.8077913867828
 30
0.0
 11
1176.5306149236953
 21
1173.221828124275
 31
0.0
  0
LINE
  5
287
330
17
100
AcDbEntity
  8
0
100
AcDbLine
 10
1176.5306149236953
 20
1173.221828124275
 30
0.0
 11
1177.6192488777936
 21
1174.6599555216978
 31
0.0
  0
LINE
  5
288
330
17
100
AcDbEntity
  8
0
100
AcDbLine
 10
1177.6192488777936
 20
1174.6599555216978
 30
0.0
 11
1178.6762511826505
 21
1176.1214891082961
 31
0.0
  0
LINE
  5
289
330
17
100
AcDbEntity
  8
0
100
AcDbLine
 10
1178.6762511826505
 20
1176.1214891082961
 30
0.0
 11
1179.7011187624166
 21
1177.6057332732425
 31
0.0
  0
LINE
  5
28A
330
17
100
AcDbEntity
  8
0
100
AcDbLine
 10
1179.7011187624166
 20
1177.6057332732425
 30
0.0
 11
1180.6933638356306
 21
1179.1119815966988
 31
0.0
  0
LINE
  5
28B
330
17
100
AcDbEntity
  8
0
100
AcDbLine
 10
1180.6933638356306
 20
1179.1119815966988
 30
0.0
 11
1181.6525141473778
 21
1180.6395171860415
 31
0.0
  0
LINE
  5
28C
330
17
100
AcDbEntity
  8
0
100
AcDbLine
 10
1181.6525141473778
 20
1180.6395171860415
 30
0.0
 11
1182.5781131940562
 21
1182.1876130170604
 31
0.0
  0
LINE
  5
28D
330
17
100
AcDbEntity
  8
0
100
AcDbLine
 10
1182.5781131940562
 20
1182.1876130170604
 30
0.0
 11
1183.4697204406505
 21
1183.7555322799865
 31
0.0
  0
LINE
  5
28E
330
17
100
AcDbEntity
  8
0
100
AcDbLine
 10
1183.4697204406505
 20
1183.7555322799865
 30
0.0
 11
1184.326911530401
 21
1185.3425287301654
 31
0.0
  0
LINE
  5
28F
330
17
100
AcDbEntity
  8
0
100
AcDbLine
 10
1184.326911530401
 20
1185.3425287301654
 30
0.0
 11
1185.1492784867735
 21
1186.947847043242
 31
0.0
  0
LINE
  5
290
330
17
100
AcDbEntity
  8
0
100
AcDbLine
 10
1185.1492784867735
 20
1186.947847043242
 30
0.0
 11
1185.936429907637
 21
1188.570723174642
 31
0.0
  0
LINE
  5
291
330
17
100
AcDbEntity
  8
0
100
AcDbLine
 10
1185.936429907637
 20
1188.570723174642
 30
0.0
 11
1186.687991151546
 21
1190.2103847232188
 31
0.0
  0
LINE
  5
292
330
17
100
AcDbEntity
  8
0
100
AcDbLine
 10
1186.687991151546
 20
1190.2103847232188
 30
0.0
 11
1187.4036045160533
 21
1191.8660512988827
 31
0.0
  0
LINE
  5
293
330
17
100
AcDbEntity
  8
0
100
AcDbLine
 10
1187.4036045160533
 20
1191.8660512988827
 30
0.0
 11
1188.082929407955
 21
1193.5369348940121
 31
0.0
  0
LINE
  5
294
330
17
100
AcDbEntity
  8
0
100
AcDbLine
 10
1188.082929407955
 20
1193.5369348940121
 30
0.0
 11
1188.7256425053945
 21
1195.2222402585116
 31
0.0
  0
LINE
  5
295
330
17
100
AcDbEntity
  8
0
100
AcDbLine
 10
1188.7256425053945
 20
1195.2222402585116
 30
0.0
 11
1189.331437911747
 21
1196.9211652783042
 31
0.0
  0
LINE
  5
296
330
17
100
AcDbEntity
  8
0
100
AcDbLine
 10
1189.331437911747
 20
1196.9211652783042
 30
0.0
 11
1189.9000273012082
 21
1198.6329013570924
 31
0.0
  0
LINE
  5
297
330
17
100
AcDbEntity
  8
0
100
AcDbLine
 10
1189.9000273012082
 20
1198.6329013570924
 30
0.0
 11
1190.4311400560239
 21
1200.3566338012083
 31
0.0
  0
LINE
  5
298
330
17
100
AcDbEntity
  8
0
100
AcDbLine
 10
1190.4311400560239
 20
1200.3566338012083
 30
0.0
 11
1190.9245233952881
 21
1202.0915422073697
 31
0.0
  0
LINE
  5
299
330
17
100
AcDbEntity
  8
0
100
AcDbLine
 10
1190.9245233952881
 20
1202.0915422073697
 30
0.0
 11
1191.379942495252
 21
1203.8368008531356
 31
0.0
  0
LINE
  5
29A
330
17
100
AcDbEntity
  8
0
100
AcDbLine
 10
1191.379942495252
 20
1203.8368008531356
 30
0.0
 11
1191.7971806010898
 21
1205.5915790899123
 31
0.0
  0
LINE
  5
29B
330
17
100
AcDbEntity
  8
0
100
AcDbLine
 10
1191.7971806010898
 20
1205.5915790899123
 30
0.0
 11
1192.1760391300609
 21
1207.3550417383
 31
0.0
  0
LINE
  5
29C
330
17
100
AcDbEntity
  8
0
100
AcDbLine
 10
1192.1760391300609
 20
1207.3550417383
 30
0.0
 11
1192.5163377660244
 21
1209.126349485585
 31
0.0
  0
LINE
  5
29D
330
17
100
AcDbEntity
  8
0
100
AcDbLine
 10
1192.5163377660244
 20
1209.126349485585
 30
0.0
 11
1192.8179145452596
 21
1210.9046592852144
 31
0.0
  0
LINE
  5
29E
330
17
100
AcDbEntity
  8
0
100
AcDbLine
 10
1192.8179145452596
 20
1210.9046592852144
 30
0.0
 11
1193.0806259335534
 21
1212.689124758036
 31
0.0
  0
LINE
  5
29F
330
17
100
AcDbEntity
  8
0
100
AcDbLine
 10
1193.0806259335534
 20
1212.689124758036
 30
0.0
 11
1193.3043468945134
 21
1214.478896595132
 31
0.0
  0
LINE
  5
2A0
330
17
100
AcDbEntity
  8
0
100
AcDbLine
 10
1193.3043468945134
 20
1214.478896595132
 30
0.0
 11
1193.4889709490785
 21
1216.2731229620392
 31
0.0
  0
LINE
  5
2A1
330
17
100
AcDbEntity
  8
0
100
AcDbLine
 10
1193.4889709490785
 20
1216.2731229620392
 30
0.0
 11
1193.6344102261983
 21
1218.0709499041836
 31
0.0
  0
LINE
  5
2A2
330
17
100
AcDbEntity
  8
0
100
AcDbLine
 10
1193.6344102261983
 20
1218.0709499041836
 30
0.0
 11
1193.7405955046538
 21
1219.8715217533113
 31
0.0
  0
LINE
  5
2A3
330
17
100
AcDbEntity
  8
0
100
AcDbLine
 10
1193.7405955046538
 20
1219.8715217533113
 30
0.0
 11
1193.8074762460028
 21
1221.6739815347396
 31
0.0
  0
LINE
  5
2A4
330
17
100
AcDbEntity
  8
0
100
AcDbLine
 10
1193.8074762460028
 20
1221.6739815347396
 30
0.0
 11
1193.835020618636
 21
1223.477471375235
 31
0.0
  0
LINE
  5
2A5
330
17
100
AcDbEntity
  8
0
100
AcDbLine
 10
1193.835020618636
 20
1223.477471375235
 30
0.0
 11
1193.8232155129224
 21
1225.281132911308
 31
0.0
  0
LINE
  5
2A6
330
17
100
AcDbEntity
  8
0
100
AcDbLine
 10
1193.8232155129206
 20
1225.281132911308
 30
0.0
 11
1193.8805613606767
 21
1223.1246330834397
 31
0.0
  0
LINE
  5
2A7
330
17
100
AcDbEntity
  8
0
100
AcDbLine
 10
1193.8805613606767
 20
1223.1246330834397
 30
0.0
 11
1193.9772840809896
 21
1220.9695403315538
 31
0.0
  0
LINE
  5
2A8
330
17
100
AcDbEntity
  8
0
100
AcDbLine
 10
1193.9772840809896
 20
1220.9695403315538
 30
0.0
 11
1194.1133514068072
 21
1218.8165736024346
 31
0.0
  0
LINE
  5
2A9
330
17
100
AcDbEntity
  8
0
100
AcDbLine
 10
1194.1133514068072
 20
1218.8165736024346
 30
0.0
 11
1194.288717945575
 21
1216.6664511336114
 31
0.0
  0
LINE
  5
2AA
330
17
100
AcDbEntity
  8
0
100
AcDbLine
 10
1194.288717945575
 20
1216.6664511336114
 30
0.0
 11
1194.5033251943778
 21
1214.519890213764
 31
0.0
  0
LINE
  5
2AB
330
17
100
AcDbEntity
  8
0
100
AcDbLine
 10
1194.5033251943778
 20
1214.519890213764
 30
0.0
 11
1194.7571015594567
 21
1212.377606943425
 31
0.0
  0
LINE
  5
2AC
330
17
100
AcDbEntity
  8
0
100
AcDbLine
 10
1194.7571015594567
 20
1212.377606943425
 30
0.0
 11
1195.0499623800931
 21
1210.2403159960822
 31
0.0
  0
LINE
  5
2AD
330
17
100
AcDbEntity
  8
0
100
AcDbLine
 10
1195.0499623800931
 20
1210.2403159960822
 30
0.0
 11
1195.3818099568516
 21
1208.1087303797735
 31
0.0
  0
LINE
  5
2AE
330
17
100
AcDbEntity
  8
0
100
AcDbLine
 10
1195.3818099568516
 20
1208.1087303797735
 30
0.0
 11
1195.7525335841744
 21
1205.983561199215
 31
0.0
  0
LINE
  5
2AF
330
17
100
AcDbEntity
  8
0
100
AcDbLine
 10
1195.7525335841744
 20
1205.983561199215
 30
0.0
 11
1196.1620095873095
 21
1203.8655174185744
 31
0.0
  0
LINE
  5
2B0
330
17
100
AcDbEntity
  8
0
100
AcDbLine
 10
1196.1620095873095
 20
1203.8655174185744
 30
0.0
 11
1196.6101013635734
 21
1201.7553056249635
 31
0.0
  0
LINE
  5
2B1
330
17
100
AcDbEntity
  8
0
100
AcDbLine
 10
1196.6101013635734
 20
1201.7553056249635
 30
0.0
 11
1197.0966594279193
 21
1199.6536297927107
 31
0.0
  0
LINE
  5
2B2
330
17
100
AcDbEntity
  8
0
100
AcDbLine
 10
1197.0966594279193
 20
1199.6536297927107
 30
0.0
 11
1197.6215214628076
 21
1197.5611910485209
 31
0.0
  0
LINE
  5
2B3
330
17
100
AcDbEntity
  8
0
100
AcDbLine
 10
1197.6215214628076
 20
1197.5611910485209
 30
0.0
 11
1198.184512372353
 21
1195.4786874375711
 31
0.0
  0
LINE
  5
2B4
330
17
100
AcDbEntity
  8
0
100
AcDbLine
 10
1198.184512372353
 20
1195.4786874375711
 30
0.0
 11
1198.7854443407414
 21
1193.4068136906394
 31
0.0
  0
LINE
  5
2B5
330
17
100
AcDbEntity
  8
0
100
AcDbLine
 10
1198.7854443407414
 20
1193.4068136906394
 30
0.0
 11
1199.4241168948806
 21
1191.3462609923467
 31
0.0
  0
LINE
  5
2B6
330
17
100
AcDbEntity
  8
0
100
AcDbLine
 10
1199.4241168948806
 20
1191.3462609923467
 30
0.0
 11
1200.1003169712849
 21
1189.2977167505678
 31
0.0
  0
LINE
  5
2B7
330
17
100
AcDbEntity
  8
0
100
AcDbLine
 10
1200.1003169712849
 20
1189.2977167505678
 30
0.0
 11
1200.8138189871477
 21
1187.2618643671149
 31
0.0
  0
LINE
  5
2B8
330
17
100
AcDbEntity
  8
0
100
AcDbLine
 10
1200.8138189871477
 20
1187.2618643671149
 30
0.0
 11
1201.5643849156017
 21
1185.2393830097476
 31
0.0
  0
LINE
  5
2B9
330
17
100
AcDbEntity
  8
0
100
AcDbLine
 10
1201.5643849156017
 20
1185.2393830097476
 30
0.0
 11
1202.351764365122
 21
1183.2309473856044
 31
0.0
  0
LINE
  5
2BA
330
17
100
AcDbEntity
  8
0
100
AcDbLine
 10
1202.351764365122
 20
1183.2309473856044
 30
0.0
 11
1203.175694663061
 21
1181.2372275161165
 31
0.0
  0
LINE
  5
2BB
330
17
100
AcDbEntity
  8
0
100
AcDbLine
 10
1203.175694663061
 20
1181.2372275161165
 30
0.0
 11
1204.0359009432736
 21
1179.2588885134835
 31
0.0
  0
LINE
  5
2BC
330
17
100
AcDbEntity
  8
0
100
AcDbLine
 10
1204.0359009432736
 20
1179.2588885134835
 30
0.0
 11
1204.9320962378154
 21
1177.2965903587954
 31
0.0
  0
LINE
  5
2BD
330
17
100
AcDbEntity
  8
0
100
AcDbLine
 10
1204.9320962378154
 20
1177.2965903587954
 30
0.0
 11
1205.863981572676
 21
1175.3509876818534
 31
0.0
  0
LINE
  5
2BE
330
17
100
AcDbEntity
  8
0
100
AcDbLine
 10
1205.863981572676
 20
1175.3509876818534
 30
0.0
 11
1206.8312460675181
 21
1173.4227295427872
 31
0.0
  0
LINE
  5
2BF
330
17
100
AcDbEntity
  8
0
100
AcDbLine
 10
1206.8312460675181
 20
1173.4227295427872
 30
0.0
 11
1207.833567039387
 21
1171.5124592155303
 31
0.0
  0
LINE
  5
2C0
330
17
100
AcDbEntity
  8
0
100
AcDbLine
 10
1207.833567039387
 20
1171.5124592155303
 30
0.0
 11
1208.870610110361
 21
1169.6208139732078
 31
0.0
  0
LINE
  5
2C1
330
17
100
AcDbEntity
  8
0
100
AcDbLine
 10
1208.870610110361
 20
1169.6208139732078
 30
0.0
 11
1209.9420293190988
 21
1167.7484248755586
 31
0.0
  0
LINE
  5
2C2
330
17
100
AcDbEntity
  8
0
100
AcDbLine
 10
1209.9420293190988
 20
1167.7484248755586
 30
0.0
 11
1211.0474672362548
 21
1165.895916558391
 31
0.0
  0
LINE
  5
2C3
330
17
100
AcDbEntity
  8
0
100
AcDbLine
 10
1211.0474672362548
 20
1165.895916558391
 30
0.0
 11
1212.186555083718
 21
1164.063907025225
 31
0.0
  0
LINE
  5
2C4
330
17
100
AcDbEntity
  8
0
100
AcDbLine
 10
1212.186555083718
 20
1164.063907025225
 30
0.0
 11
1213.35891285764
 21
1162.253007441102
 31
0.0
  0
LINE
  5
2C5
330
17
100
AcDbEntity
  8
0
100
AcDbLine
 10
1213.35891285764
 20
1162.253007441102
 30
0.0
 11
1214.564149455202
 21
1160.4638219287096
 31
0.0
  0
LINE
  5
2C6
330
17
100
AcDbEntity
  8
0
100
AcDbLine
 10
1214.564149455202
 20
1160.4638219287096
 30
0.0
 11
1215.8018628050904
 21
1158.6969473668476
 31
0.0
  0
LINE
  5
2C7
330
17
100
AcDbEntity
  8
0
100
AcDbLine
 10
1215.8018628050904
 20
1158.6969473668476
 30
0.0
 11
1217.0716400016304
 21
1156.9529731912928
 31
0.0
  0
LINE
  5
2C8
330
17
100
AcDbEntity
  8
0
100
AcDbLine
 10
1217.0716400016304
 20
1156.9529731912928
 30
0.0
 11
1218.3730574425292
 21
1155.2324811981753
 31
0.0
  0
LINE
  5
2C9
330
17
100
AcDbEntity
  8
0
100
AcDbLine
 10
1218.3730574425292
 20
1155.2324811981753
 30
0.0
 11
1219.7056809701944
 21
1153.5360453498859
 31
0.0
  0
LINE
  5
2CA
330
17
100
AcDbEntity
  8
0
100
AcDbLine
 10
1219.7056809701944
 20
1153.5360453498859
 30
0.0
 11
1221.0690660165694
 21
1151.8642315835893
 31
0.0
  0
LINE
  5
2CB
330
17
100
AcDbEntity
  8
0
100
AcDbLine
 10
1221.0690660165694
 20
1151.8642315835893
 30
0.0
 11
1222.4627577514432
 21
1150.2175976224446
 31
0.0
  0
LINE
  5
2CC
330
17
100
AcDbEntity
  8
0
100
AcDbLine
 10
1222.4627577514432
 20
1150.2175976224446
 30
0.0
 11
1223.8862912341833
 21
1148.596692789528
 31
0.0
  0
LINE
  5
2CD
330
17
100
AcDbEntity
  8
0
100
AcDbLine
 10
1223.8862912341833
 20
1148.596692789528
 30
0.0
 11
1225.3391915688414
 21
1147.0020578245899
 31
0.0
  0
LINE
  5
2CE
330
17
100
AcDbEntity
  8
0
100
AcDbLine
 10
1225.3391915688414
 20
1147.0020578245899
 30
0.0
 11
1226.8209740625805
 21
1145.4342247036548
 31
0.0
  0
LINE
  5
2CF
330
17
100
AcDbEntity
  8
0
100
AcDbLine
 10
1226.8209740625805
 20
1145.4342247036548
 30
0.0
 11
1228.3311443873706
 21
1143.8937164615556
 31
0.0
  0
LINE
  5
2D0
330
17
100
AcDbEntity
  8
0
100
AcDbLine
 10
1228.3311443873706
 20
1143.8937164615556
 30
0.0
 11
1229.8691987448974
 21
1142.3810470174442
 31
0.0
  0
LINE
  5
2D1
330
17
100
AcDbEntity
  8
0
100
AcDbLine
 10
462.9611713318704
 20
755.793369150972
 30
0.0
 11
464.4394020378937
 21
754.3929705497823
 31
0.0
  0
LINE
  5
2D2
330
17
100
AcDbEntity
  8
0
100
AcDbLine
 10
464.4394020378937
 20
754.3929705497823
 30
0.0
 11
465.9441859994796
 21
753.0211442155111
 31
0.0
  0
LINE
  5
2D3
330
17
100
AcDbEntity
  8
0
100
AcDbLine
 10
465.9441859994796
 20
753.0211442155111
 30
0.0
 11
467.4749710464809
 21
751.6783935304177
 31
0.0
  0
LINE
  5
2D4
330
17
100
AcDbEntity
  8
0
100
AcDbLine
 10
467.4749710464809
 20
751.6783935304177
 30
0.0
 11
469.03119546783165
 21
750.3652112076475
 31
0.0
  0
LINE
  5
2D5
330
17
100
AcDbEntity
  8
0
100
AcDbLine
 10
469.03119546783165
 20
750.3652112076475
 30
0.0
 11
470.6122882176614
 21
749.0820791104411
 31
0.0
  0
LINE
  5
2D6
330
17
100
AcDbEntity
  8
0
100
AcDbLine
 10
470.6122882176614
 20
749.0820791104411
 30
0.0
 11
472.2176691248383
 21
747.8294680753173
 31
0.0
  0
LINE
  5
2D7
330
17
100
AcDbEntity
  8
0
100
AcDbLine
 10
472.2176691248383
 20
747.8294680753173
 30
0.0
 11
473.8467491058565
 21
746.6078377392942
 31
0.0
  0
LINE
  5
2D8
330
17
100
AcDbEntity
  8
0
100
AcDbLine
 10
473.8467491058565
 20
746.6078377392942
 30
0.0
 11
475.4989303809983
 21
745.4176363712418
 31
0.0
  0
LINE
  5
2D9
330
17
100
AcDbEntity
  8
0
100
AcDbLine
 10
475.4989303809983
 20
745.4176363712418
 30
0.0
 11
477.173606693685
 21
744.2593007073816
 31
0.0
  0
LINE
  5
2DA
330
17
100
AcDbEntity
  8
0
100
AcDbLine
 10
477.173606693685
 20
744.2593007073816
 30
0.0
 11
478.87016353293774
 21
743.1332557910353
 31
0.0
  0
LINE
  5
2DB
330
17
100
AcDbEntity
  8
0
100
AcDbLine
 10
478.87016353293774
 20
743.1332557910353
 30
0.0
 11
480.5879783588689
 21
742.0399148166568
 31
0.0
  0
LINE
  5
2DC
330
17
100
AcDbEntity
  8
0
100
AcDbLine
 10
480.5879783588689
 20
742.0399148166568
 30
0.0
 11
482.3264208311185
 21
740.9796789782124
 31
0.0
  0
LINE
  5
2DD
330
17
100
AcDbEntity
  8
0
100
AcDbLine
 10
482.3264208311185
 20
740.9796789782124
 30
0.0
 11
484.08485304015306
 21
739.9529373219655
 31
0.0
  0
LINE
  5
2DE
330
17
100
AcDbEntity
  8
0
100
AcDbLine
 10
484.08485304015306
 20
739.9529373219655
 30
0.0
 11
485.86262974134314
 21
738.9600666037182
 31
0.0
  0
LINE
  5
2DF
330
17
100
AcDbEntity
  8
0
100
AcDbLine
 10
485.86262974134314
 20
738.9600666037182
 30
0.0
 11
487.6590985917295
 21
738.0014311505693
 31
0.0
  0
LINE
  5
2E0
330
17
100
AcDbEntity
  8
0
100
AcDbLine
 10
487.6590985917295
 20
738.0014311505693
 30
0.0
 11
489.4736003893984
 21
737.0773827272167
 31
0.0
  0
LINE
  5
2E1
330
17
100
AcDbEntity
  8
0
100
AcDbLine
 10
489.4736003893984
 20
737.0773827272167
 30
0.0
 11
491.3054693153687
 21
736.1882604068871
 31
0.0
  0
LINE
  5
2E2
330
17
100
AcDbEntity
  8
0
100
AcDbLine
 10
491.3054693153687
 20
736.1882604068871
 30
0.0
 11
493.1540331779116
 21
735.3343904469128
 31
0.0
  0
LINE
  5
2E3
330
17
100
AcDbEntity
  8
0
100
AcDbLine
 10
493.1540331779116
 20
735.3343904469128
 30
0.0
 11
495.01861365920496
 21
734.5160861690165
 31
0.0
  0
LINE
  5
2E4
330
17
100
AcDbEntity
  8
0
100
AcDbLine
 10
495.01861365920496
 20
734.5160861690165
 30
0.0
 11
496.89852656423926
 21
733.7336478443358
 31
0.0
  0
LINE
  5
2E5
330
17
100
AcDbEntity
  8
0
100
AcDbLine
 10
496.89852656423926
 20
733.7336478443358
 30
0.0
 11
498.79308207187705
 21
732.987362583243
 31
0.0
  0
LINE
  5
2E6
330
17
100
AcDbEntity
  8
0
100
AcDbLine
 10
498.79308207187705
 20
732.987362583243
 30
0.0
 11
500.70158498797787
 21
732.2775042299936
 31
0.0
  0
LINE
  5
2E7
330
17
100
AcDbEntity
  8
0
100
AcDbLine
 10
500.70158498797787
 20
732.2775042299936
 30
0.0
 11
502.6233350004963
 21
731.6043332622381
 31
0.0
  0
LINE
  5
2E8
330
17
100
AcDbEntity
  8
0
100
AcDbLine
 10
502.6233350004963
 20
731.6043332622381
 30
0.0
 11
504.5576269364547
 21
730.968096695441
 31
0.0
  0
LINE
  5
2E9
330
17
100
AcDbEntity
  8
0
100
AcDbLine
 10
504.5576269364547
 20
730.968096695441
 30
0.0
 11
506.5037510207044
 21
730.3690279922444
 31
0.0
  0
LINE
  5
2EA
330
17
100
AcDbEntity
  8
0
100
AcDbLine
 10
506.5037510207044
 20
730.3690279922444
 30
0.0
 11
508.46099313636915
 21
729.807346976799
 31
0.0
  0
LINE
  5
2EB
330
17
100
AcDbEntity
  8
0
100
AcDbLine
 10
508.46099313636915
 20
729.807346976799
 30
0.0
 11
510.42863508688833
 21
729.2832597540952
 31
0.0
  0
LINE
  5
2EC
330
17
100
AcDbEntity
  8
0
100
AcDbLine
 10
510.42863508688833
 20
729.2832597540952
 30
0.0
 11
512.4059548595538
 21
728.7969586343461
 31
0.0
  0
LINE
  5
2ED
330
17
100
AcDbEntity
  8
0
100
AcDbLine
 10
512.4059548595538
 20
728.7969586343461
 30
0.0
 11
514.3922268904461
 21
728.3486220624061
 31
0.0
  0
LINE
  5
2EE
330
17
100
AcDbEntity
  8
0
100
AcDbLine
 10
514.3922268904461
 20
728.3486220624061
 30
0.0
 11
516.3867223306768
 21
727.9384145523051
 31
0.0
  0
LINE
  5
2EF
330
17
100
AcDbEntity
  8
0
100
AcDbLine
 10
516.3867223306768
 20
727.9384145523051
 30
0.0
 11
518.3887093138333
 21
727.5664866268722
 31
0.0
  0
LINE
  5
2F0
330
17
100
AcDbEntity
  8
0
100
AcDbLine
 10
518.3887093138333
 20
727.5664866268722
 30
0.0
 11
520.3974532245329
 21
727.2329747625085
 31
0.0
  0
LINE
  5
2F1
330
17
100
AcDbEntity
  8
0
100
AcDbLine
 10
520.3974532245329
 20
727.2329747625085
 30
0.0
 11
522.4122169679848
 21
726.9380013391027
 31
0.0
  0
LINE
  5
2F2
330
17
100
AcDbEntity
  8
0
100
AcDbLine
 10
522.4122169679848
 20
726.9380013391027
 30
0.0
 11
524.4322612404618
 21
726.6816745951262
 31
0.0
  0
LINE
  5
2F3
330
17
100
AcDbEntity
  8
0
100
AcDbLine
 10
524.4322612404618
 20
726.6816745951262
 30
0.0
 11
526.456844800583
 21
726.4640885879221
 31
0.0
  0
LINE
  5
2F4
330
17
100
AcDbEntity
  8
0
100
AcDbLine
 10
526.456844800583
 20
726.4640885879221
 30
0.0
 11
528.4852247413069
 21
726.2853231591796
 31
0.0
  0
LINE
  5
2F5
330
17
100
AcDbEntity
  8
0
100
AcDbLine
 10
528.4852247413069
 20
726.2853231591796
 30
0.0
 11
530.516656762536
 21
726.1454439056474
 31
0.0
  0
LINE
  5
2F6
330
17
100
AcDbEntity
  8
0
100
AcDbLine
 10
530.516656762536
 20
726.1454439056474
 30
0.0
 11
532.5503954442331
 21
726.0445021550543
 31
0.0
  0
LINE
  5
2F7
330
17
100
AcDbEntity
  8
0
100
AcDbLine
 10
532.5503954442331
 20
726.0445021550543
 30
0.0
 11
534.5856945199481
 21
725.9825349472871
 31
0.0
  0
LINE
  5
2F8
330
17
100
AcDbEntity
  8
0
100
AcDbLine
 10
534.5856945199481
 20
725.9825349472871
 30
0.0
 11
536.6218071506539
 21
725.9595650207858
 31
0.0
  0
LINE
  5
2F9
330
17
100
AcDbEntity
  8
0
100
AcDbLine
 10
536.6218071506539
 20
725.9595650207858
 30
0.0
 11
538.6579861987965
 21
725.9756008042054
 31
0.0
  0
LINE
  5
2FA
330
17
100
AcDbEntity
  8
0
100
AcDbLine
 10
538.6579861987965
 20
725.9756008042066
 30
0.0
 11
537.2844630920029
 21
725.9316362143873
 31
0.0
  0
LINE
  5
2FB
330
17
100
AcDbEntity
  8
0
100
AcDbLine
 10
537.2844630920029
 20
725.9316362143873
 30
0.0
 11
535.9127997517764
 21
725.8477416905339
 31
0.0
  0
LINE
  5
2FC
330
17
100
AcDbEntity
  8
0
100
AcDbLine
 10
535.9127997517764
 20
725.8477416905339
 30
0.0
 11
534.5441567422436
 21
725.7239882157928
 31
0.0
  0
LINE
  5
2FD
330
17
100
AcDbEntity
  8
0
100
AcDbLine
 10
534.5441567422436
 20
725.7239882157928
 30
0.0
 11
533.1796920720295
 21
725.5604804979567
 31
0.0
  0
LINE
  5
2FE
330
17
100
AcDbEntity
  8
0
100
AcDbLine
 10
533.1796920720295
 20
725.5604804979567
 30
0.0
 11
531.820560214468
 21
725.3573568808782
 31
0.0
  0
LINE
  5
2FF
330
17
100
AcDbEntity
  8
0
100
AcDbLine
 10
531.820560214468
 20
725.3573568808782
 30
0.0
 11
530.4679111307996
 21
725.1147892274181
 31
0.0
  0
LINE
  5
300
330
17
100
AcDbEntity
  8
0
100
AcDbLine
 10
530.4679111307996
 20
725.1147892274181
 30
0.0
 11
529.1228892971923
 21
724.832982774026
 31
0.0
  0
LINE
  5
301
330
17
100
AcDbEntity
  8
0
100
AcDbLine
 10
529.1228892971923
 20
724.832982774026
 30
0.0
 11
527.7866327363979
 21
724.512175957098
 31
0.0
  0
LINE
  5
302
330
17
100
AcDbEntity
  8
0
100
AcDbLine
 10
527.7866327363979
 20
724.512175957098
 30
0.0
 11
526.4602720548728
 21
724.1526402112282
 31
0.0
  0
LINE
  5
303
330
17
100
AcDbEntity
  8
0
100
AcDbLine
 10
526.4602720548728
 20
724.1526402112282
 30
0.0
 11
525.1449294861718
 21
723.7546797395523
 31
0.0
  0
LINE
  5
304
330
17
100
AcDbEntity
  8
0
100
AcDbLine
 10
525.1449294861718
 20
723.7546797395523
 30
0.0
 11
523.8417179414259
 21
723.3186312563594
 31
0.0
  0
LINE
  5
305
330
17
100
AcDbEntity
  8
0
100
AcDbLine
 10
523.8417179414259
 20
723.3186312563594
 30
0.0
 11
522.5517400677091
 21
722.8448637021997
 31
0.0
  0
LINE
  5
306
330
17
100
AcDbEntity
  8
0
100
AcDbLine
 10
522.5517400677091
 20
722.8448637021997
 30
0.0
 11
521.2760873150878
 21
722.3337779317219
 31
0.0
  0
LINE
  5
307
330
17
100
AcDbEntity
  8
0
100
AcDbLine
 10
521.2760873150878
 20
722.3337779317219
 30
0.0
 11
520.0158390131467
 21
721.7858063745144
 31
0.0
  0
LINE
  5
308
330
17
100
AcDbEntity
  8
0
100
AcDbLine
 10
520.0158390131467
 20
721.7858063745144
 30
0.0
 11
518.7720614577668
 21
721.2014126692206
 31
0.0
  0
LINE
  5
309
330
17
100
AcDbEntity
  8
0
100
AcDbLine
 10
518.7720614577668
 20
721.2014126692206
 30
0.0
 11
517.5458070089333
 21
720.5810912712584
 31
0.0
  0
LINE
  5
30A
330
17
100
AcDbEntity
  8
0
100
AcDbLine
 10
517.5458070089333
 20
720.5810912712584
 30
0.0
 11
516.3381132003333
 21
719.925367034461
 31
0.0
  0
LINE
  5
30B
330
17
100
AcDbEntity
  8
0
100
AcDbLine
 10
516.3381132003333
 20
719.925367034461
 30
0.0
 11
515.1500018615002
 21
719.2347947669982
 31
0.0
  0
LINE
  5
30C
330
17
100
AcDbEntity
  8
0
100
AcDbLine
 10
515.1500018615002
 20
719.2347947669982
 30
0.0
 11
513.9824782532422
 21
718.5099587619484
 31
0.0
  0
LINE
  5
30D
330
17
100
AcDbEntity
  8
0
100
AcDbLine
 10
513.9824782532422
 20
718.5099587619484
 30
0.0
 11
512.8365302170924
 21
717.751472302942
 31
0.0
  0
LINE
  5
30E
330
17
100
AcDbEntity
  8
0
100
AcDbLine
 10
512.8365302170924
 20
717.751472302942
 30
0.0
 11
511.713127339496
 21
716.9599771452413
 31
0.0
  0
LINE
  5
30F
330
17
100
AcDbEntity
  8
0
100
AcDbLine
 10
511.713127339496
 20
716.9599771452413
 30
0.0
 11
510.61322013144274
 21
716.1361429727731
 31
0.0
  0
LINE
  5
310
330
17
100
AcDbEntity
  8
0
100
AcDbLine
 10
510.61322013144274
 20
716.1361429727731
 30
0.0
 11
509.53773922424074
 21
715.2806668314946
 31
0.0
  0
LINE
  5
311
330
17
100
AcDbEntity
  8
0
100
AcDbLine
 10
509.53773922424074
 20
715.2806668314946
 30
0.0
 11
508.48759458210867
 21
714.3942725396273
 31
0.0
  0
LINE
  5
312
330
17
100
AcDbEntity
  8
0
100
AcDbLine
 10
508.48759458210867
 20
714.3942725396273
 30
0.0
 11
507.46367473225547
 21
713.4777100752351
 31
0.0
  0
LINE
  5
313
330
17
100
AcDbEntity
  8
0
100
AcDbLine
 10
507.46367473225547
 20
713.4777100752351
 30
0.0
 11
506.46684601309784
 21
712.531754941672
 31
0.0
  0
LINE
  5
314
330
17
100
AcDbEntity
  8
0
100
AcDbLine
 10
506.46684601309784
 20
712.531754941672
 30
0.0
 11
505.49795184125145
 21
711.5572075114178
 31
0.0
  0
ENDSEC
  0
SECTION
  2
OBJECTS
  0
DICTIONARY
  5
A
330
0
100
AcDbDictionary
281
1
  3
ACAD_COLOR
350
B
  3
ACAD_GROUP
350
C
  3
ACAD_LAYOUT
350
D
  3
ACAD_MATERIAL
350
E
  3
ACAD_MLEADERSTYLE
350
F
  3
ACAD_MLINESTYLE
350
10
  3
ACAD_PLOTSETTINGS
350
11
  3
ACAD_PLOTSTYLENAME
350
12
  3
ACAD_SCALELIST
350
14
  3
ACAD_TABLESTYLE
350
15
  3
ACAD_VISUALSTYLE
350
16
  3
EZDXF_META
350
2D
  0
DICTIONARY
  5
B
330
A
100
AcDbDictionary
281
1
  0
DICTIONARY
  5
C
330
A
100
AcDbDictionary
281
1
  0
DICTIONARY
  5
D
330
A
100
AcDbDictionary
281
1
  3
Model
350
1A
  3
Layout1
350
1E
  0
DICTIONARY
  5
E
330
A
100
AcDbDictionary
281
1
  3
ByBlock
350
1F
  3
ByLayer
350
20
  3
Global
350
21
  0
DICTIONARY
  5
F
330
A
100
AcDbDictionary
281
1
  3
Standard
350
2C
  0
DICTIONARY
  5
10
330
A
100
AcDbDictionary
281
1
  3
Standard
350
22
  0
DICTIONARY
  5
11
330
A
100
AcDbDictionary
281
1
  0
ACDBDICTIONARYWDFLT
  5
12
330
A
100
AcDbDictionary
281
1
  3
Normal
350
13
100
AcDbDictionaryWithDefault
340
13
  0
ACDBPLACEHOLDER
  5
13
330
12
  0
DICTIONARY
  5
14
330
A
100
AcDbDictionary
281
1
  0
DICTIONARY
  5
15
330
A
100
AcDbDictionary
281
1
  0
DICTIONARY
  5
16
330
A
100
AcDbDictionary
281
1
  0
LAYOUT
  5
1A
330
D
100
AcDbPlotSettings
  1

  4
A3
  6

 40
7.5
 41
20.0
 42
7.5
 43
20.0
 44
420.0
 45
297.0
 46
0.0
 47
0.0
 48
0.0
 49
0.0
140
0.0
141
0.0
142
1.0
143
1.0
 70
1024
 72
1
 73
0
 74
5
  7

 75
16
 76
0
 77
2
 78
300
147
1.0
148
0.0
149
0.0
100
AcDbLayout
  1
Model
 70
1
 71
0
 10
0.0
 20
0.0
 11
420.0
 21
297.0
 12
0.0
 22
0.0
 32
0.0
 14
1e+20
 24
1e+20
 34
1e+20
 15
-1e+20
 25
-1e+20
 35
-1e+20
146
0.0
 13
0.0
 23
0.0
 33
0.0
 16
1.0
 26
0.0
 36
0.0
 17
0.0
 27
1.0
 37
0.0
 76
1
330
17
  0
LAYOUT
  5
1E
330
D
100
AcDbPlotSettings
  1

  4
A3
  6

 40
7.5
 41
20.0
 42
7.5
 43
20.0
 44
420.0
 45
297.0
 46
0.0
 47
0.0
 48
0.0
 49
0.0
140
0.0
141
0.0
142
1.0
143
1.0
 70
0
 72
1
 73
0
 74
5
  7

 75
16
 76
0
 77
2
 78
300
147
1.0
148
0.0
149
0.0
100
AcDbLayout
  1
Layout1
 70
1
 71
1
 10
0.0
 20
0.0
 11
420.0
 21
297.0
 12
0.0
 22
0.0
 32
0.0
 14
1e+20
 24
1e+20
 34
1e+20
 15
-1e+20
 25
-1e+20
 35
-1e+20
146
0.0
 13
0.0
 23
0.0
 33
0.0
 16
1.0
 26
0.0
 36
0.0
 17
0.0
 27
1.0
 37
0.0
 76
1
330
1B
  0
MATERIAL
  5
1F
102
{ACAD_REACTORS
330
E
102
}
330
E
100
AcDbMaterial
  1
ByBlock
  2

 70
0
 40
1.0
 71
1
 41
1.0
 91
-1023410177
 42
1.0
 72
1
  3

 73
1
 74
1
 75
1
 44
0.5
 73
0
 45
1.0
 46
1.0
 77
1
  4

 78
1
 79
1
170
1
 48
1.0
171
1
  6

172
1
173
1
174
1
140
1.0
141
1.0
175
1
  7

176
1
177
1
178
1
143
1.0
179
1
  8

270
1
271
1
272
1
145
1.0
146
1.0
273
1
  9

274
1
275
1
276
1
 42
1.0
 72
1
  3

 73
1
 74
1
 75
1
 94
63
  0
MATERIAL
  5
20
102
{ACAD_REACTORS
330
E
102
}
330
E
100
AcDbMaterial
  1
ByLayer
  2

 70
0
 40
1.0
 71
1
 41
1.0
 91
-1023410177
 42
1.0
 72
1
  3

 73
1
 74
1
 75
1
 44
0.5
 73
0
 45
1.0
 46
1.0
 77
1
  4

 78
1
 79
1
170
1
 48
1.0
171
1
  6

172
1
173
1
174
1
140
1.0
141
1.0
175
1
  7

176
1
177
1
178
1
143
1.0
179
1
  8

270
1
271
1
272
1
145
1.0
146
1.0
273
1
  9

274
1
275
1
276
1
 42
1.0
 72
1
  3

 73
1
 74
1
 75
1
 94
63
  0
MATERIAL
  5
21
102
{ACAD_REACTORS
330
E
102
}
330
E
100
AcDbMaterial
  1
Global
  2

 70
0
 40
1.0
 71
1
 41
1.0
 91
-1023410177
 42
1.0
 72
1
  3

 73
1
 74
1
 75
1
 44
0.5
 73
0
 45
1.0
 46
1.0
 77
1
  4

 78
1
 79
1
170
1
 48
1.0
171
1
  6

172
1
173
1
174
1
140
1.0
141
1.0
175
1
  7

176
1
177
1
178
1
143
1.0
179
1
  8

270
1
271
1
272
1
145
1.0
146
1.0
273
1
  9

274
1
275
1
276
1
 42
1.0
 72
1
  3

 73
1
 74
1
 75
1
 94
63
  0
MLINESTYLE
  5
22
102
{ACAD_REACTORS
330
10
102
}
330
10
100
AcDbMlineStyle
  2
Standard
 70
0
  3

 62
256
 51
90.0
 52
90.0
 71
2
 49
0.5
 62
256
  6
BYLAYER
 49
-0.5
 62
256
  6
BYLAYER
  0
MLEADERSTYLE
  5
2C
102
{ACAD_REACTORS
330
F
102
}
330
F
100
AcDbMLeaderStyle
179
2
170
2
171
1
172
0
 90
2
 40
0.0
 41
0.0
173
1
 91
-1056964608
 92
-2
290
1
 42
2.0
291
1
 43
8.0
  3
Standard
 44
4.0
300

342
29
174
1
175
1
176
0
178
1
 93
-1056964608
 45
4.0
292
0
297
0
 46
4.0
 94
-1056964608
 47
1.0
 49
1.0
140
1.0
294
1
141
0.0
177
0
142
1.0
295
0
296
0
143
3.75
271
0
272
9
273
9
  0
DICTIONARY
  5
2D
330
A
100
AcDbDictionary
280
1
281
1
  3
CREATED_BY_EZDXF
350
2E
  3
WRITTEN_BY_EZDXF
350
317
  0
DICTIONARYVAR
  5
2E
330
2D
100
DictionaryVariables
280
0
  1
1.4.3 @ 2026-04-16T10:53:40.732032+00:00
  0
DICTIONARYVAR
  5
317
330
2D
100
DictionaryVariables
280
0
  1
1.4.3 @ 2026-04-16T10:53:40.750886+00:00
  0
ENDSEC
  0
EOF
