  0
SECTION
  2
HEADER
  9
$ACADVER
  1
AC1032
  9
$ACADMAINTVER
 90
4
  9
$DWGCODEPAGE
  3
ANSI_1251
  9
$LASTSAVEDBY
  1
Xhaver
  9
$REQUIREDVERSIONS
160
0
  9
$INSBASE
 10
0.0
 20
0.0
 30
0.0
  9
$EXTMIN
 10
1.35307009259e-05
 20
2.4010641937e-06
 30
0.0
  9
$EXTMAX
 10
29.00001353070094
 20
41.00000240106122
 30
0.0
  9
$LIMMIN
 10
0.0
 20
0.0
  9
$LIMMAX
 10
12.0
 20
9.0
  9
$ORTHOMODE
 70
0
  9
$REGENMODE
 70
1
  9
$FILLMODE
 70
1
  9
$QTEXTMODE
 70
0
  9
$MIRRTEXT
 70
0
  9
$LTSCALE
 40
1.0
  9
$ATTMODE
 70
1
  9
$TEXTSIZE
 40
0.25
  9
$TRACEWID
 40
0.05
  9
$TEXTSTYLE
  7
STANDARD
  9
$CLAYER
  8
YOLO_STAMP
  9
$CELTYPE
  6
ByLayer
  9
$CECOLOR
 62
256
  9
$CELTSCALE
 40
1.0
  9
$DISPSILH
 70
0
  9
$DIMSCALE
 40
1.0
  9
$DIMASZ
 40
0.125
  9
$DIMEXO
 40
0.125
  9
$DIMDLI
 40
0.0
  9
$DIMRND
 40
0.0
  9
$DIMDLE
 40
0.0
  9
$DIMEXE
 40
0.125
  9
$DIMTP
 40
0.0
  9
$DIMTM
 40
0.0
  9
$DIMTXT
 40
0.25
  9
$DIMCEN
 40
0.09
  9
$DIMTSZ
 40
0.0
  9
$DIMTOL
 70
0
  9
$DIMLIM
 70
0
  9
$DIMTIH
 70
0
  9
$DIMTOH
 70
0
  9
$DIMSE1
 70
0
  9
$DIMSE2
 70
0
  9
$DIMTAD
 70
1
  9
$DIMZIN
 70
11
  9
$DIMBLK
  1
Oblique
  9
$DIMASO
 70
1
  9
$DIMSHO
 70
1
  9
$DIMPOST
  1

  9
$DIMAPOST
  1

  9
$DIMALT
 70
0
  9
$DIMALTD
 70
4
  9
$DIMALTF
 40
1.0
  9
$DIMLFAC
 40
1000.0
  9
$DIMTOFL
 70
0
  9
$DIMTVP
 40
0.0
  9
$DIMTIX
 70
0
  9
$DIMSOXD
 70
0
  9
$DIMSAH
 70
0
  9
$DIMBLK1
  1

  9
$DIMBLK2
  1

  9
$DIMSTYLE
  2
Standard
  9
$DIMCLRD
 70
0
  9
$DIMCLRE
 70
0
  9
$DIMCLRT
 70
0
  9
$DIMTFAC
 40
1.0
  9
$DIMGAP
 40
0.125
  9
$DIMJUST
 70
0
  9
$DIMSD1
 70
0
  9
$DIMSD2
 70
0
  9
$DIMTOLJ
 70
0
  9
$DIMTZIN
 70
11
  9
$DIMALTZ
 70
15
  9
$DIMALTTZ
 70
15
  9
$DIMUPT
 70
0
  9
$DIMDEC
 70
4
  9
$DIMTDEC
 70
4
  9
$DIMALTU
 70
2
  9
$DIMALTTD
 70
4
  9
$DIMTXSTY
  7
Style-Arial
  9
$DIMAUNIT
 70
0
  9
$DIMADEC
 70
4
  9
$DIMALTRND
 40
0.0
  9
$DIMAZIN
 70
3
  9
$DIMDSEP
 70
46
  9
$DIMATFIT
 70
3
  9
$DIMFRAC
 70
2
  9
$DIMLDRBLK
  1
TerminatorOpen
  9
$DIMLUNIT
 70
2
  9
$DIMLWD
 70
-2
  9
$DIMLWE
 70
-2
  9
$DIMTMOVE
 70
0
  9
$DIMFXL
 40
1.0
  9
$DIMFXLON
 70
0
  9
$DIMJOGANG
 40
0.7853981633974483
  9
$DIMTFILL
 70
0
  9
$DIMTFILLCLR
 70
0
  9
$DIMARCSYM
 70
0
  9
$DIMLTYPE
  6

  9
$DIMLTEX1
  6

  9
$DIMLTEX2
  6

  9
$DIMTXTDIRECTION
 70
0
  9
$LUNITS
 70
2
  9
$LUPREC
 70
4
  9
$SKETCHINC
 40
0.1
  9
$FILLETRAD
 40
0.0
  9
$AUNITS
 70
0
  9
$AUPREC
 70
4
  9
$MENU
  1
.
  9
$ELEVATION
 40
0.0
  9
$PELEVATION
 40
0.0
  9
$THICKNESS
 40
0.0
  9
$LIMCHECK
 70
0
  9
$CHAMFERA
 40
0.0
  9
$CHAMFERB
 40
0.0
  9
$CHAMFERC
 40
0.0
  9
$CHAMFERD
 40
0.0
  9
$SKPOLY
 70
0
  9
$TDCREATE
 40
2461170.947002315
  9
$TDUCREATE
 40
2454144.778024017
  9
$TDUPDATE
 40
2461170.947002315
  9
$TDUUPDATE
 40
2461158.844756945
  9
$TDINDWG
 40
0.2199019213
  9
$TDUSRTIMER
 40
0.2199017361
  9
$USRTIMER
 70
1
  9
$ANGBASE
 50
0.0
  9
$ANGDIR
 70
0
  9
$PDMODE
 70
0
  9
$PDSIZE
 40
0.0
  9
$PLINEWID
 40
0.0
  9
$SPLFRAME
 70
0
  9
$SPLINETYPE
 70
6
  9
$SPLINESEGS
 70
8
  9
$HANDSEED
  5
B924
  9
$SURFTAB1
 70
6
  9
$SURFTAB2
 70
6
  9
$SURFTYPE
 70
6
  9
$SURFU
 70
6
  9
$SURFV
 70
6
  9
$UCSBASE
  2

  9
$UCSNAME
  2

  9
$UCSORG
 10
0.0
 20
0.0
 30
0.0
  9
$UCSXDIR
 10
1.0
 20
0.0
 30
0.0
  9
$UCSYDIR
 10
0.0
 20
1.0
 30
0.0
  9
$UCSORTHOREF
  2

  9
$UCSORTHOVIEW
 70
0
  9
$UCSORGTOP
 10
0.0
 20
0.0
 30
0.0
  9
$UCSORGBOTTOM
 10
0.0
 20
0.0
 30
0.0
  9
$UCSORGLEFT
 10
0.0
 20
0.0
 30
0.0
  9
$UCSORGRIGHT
 10
0.0
 20
0.0
 30
0.0
  9
$UCSORGFRONT
 10
0.0
 20
0.0
 30
0.0
  9
$UCSORGBACK
 10
0.0
 20
0.0
 30
0.0
  9
$PUCSBASE
  2

  9
$PUCSNAME
  2

  9
$PUCSORG
 10
0.0
 20
0.0
 30
0.0
  9
$PUCSXDIR
 10
1.0
 20
0.0
 30
0.0
  9
$PUCSYDIR
 10
0.0
 20
1.0
 30
0.0
  9
$PUCSORTHOREF
  2

  9
$PUCSORTHOVIEW
 70
0
  9
$PUCSORGTOP
 10
0.0
 20
0.0
 30
0.0
  9
$PUCSORGBOTTOM
 10
0.0
 20
0.0
 30
0.0
  9
$PUCSORGLEFT
 10
0.0
 20
0.0
 30
0.0
  9
$PUCSORGRIGHT
 10
0.0
 20
0.0
 30
0.0
  9
$PUCSORGFRONT
 10
0.0
 20
0.0
 30
0.0
  9
$PUCSORGBACK
 10
0.0
 20
0.0
 30
0.0
  9
$USERI1
 70
0
  9
$USERI2
 70
0
  9
$USERI3
 70
0
  9
$USERI4
 70
0
  9
$USERI5
 70
0
  9
$USERR1
 40
0.0
  9
$USERR2
 40
0.0
  9
$USERR3
 40
0.0
  9
$USERR4
 40
0.0
  9
$USERR5
 40
0.0
  9
$WORLDVIEW
 70
1
  9
$SHADEDGE
 70
3
  9
$SHADEDIF
 70
70
  9
$TILEMODE
 70
1
  9
$MAXACTVP
 70
64
  9
$PINSBASE
 10
0.0
 20
0.0
 30
0.0
  9
$PLIMCHECK
 70
0
  9
$PEXTMIN
 10
1.049743681505489
 20
0.7996673802841308
 30
-0.0015258207003583
  9
$PEXTMAX
 10
9.450622583565561
 20
7.200576801086516
 30
3.49246037e-08
  9
$PLIMMIN
 10
-0.2500002402958907
 20
-0.2499999962453767
  9
$PLIMMAX
 10
10.74999951940821
 20
8.249999763458732
  9
$UNITMODE
 70
0
  9
$VISRETAIN
 70
1
  9
$PLINEGEN
 70
0
  9
$PSLTSCALE
 70
0
  9
$TREEDEPTH
 70
3020
  9
$CMLSTYLE
  2
Standard
  9
$CMLJUST
 70
0
  9
$CMLSCALE
 40
1.0
  9
$PROXYGRAPHICS
 70
1
  9
$MEASUREMENT
 70
0
  9
$CELWEIGHT
370
-1
  9
$ENDCAPS
280
0
  9
$JOINSTYLE
280
0
  9
$LWDISPLAY
290
1
  9
$INSUNITS
 70
6
  9
$HYPERLINKBASE
  1

  9
$STYLESHEET
  1

  9
$XEDIT
290
1
  9
$CEPSNTYPE
380
0
  9
$PSTYLEMODE
290
1
  9
$FINGERPRINTGUID
  2
{B075BA1B-D0BC-4D18-B49C-6C46C82AB2E2}
  9
$VERSIONGUID
  2
{69191C6D-0E91-4DA1-A224-3F57734AFF3C}
  9
$EXTNAMES
290
1
  9
$PSVPSCALE
 40
0.0
  9
$OLESTARTUP
290
0
  9
$SORTENTS
280
127
  9
$INDEXCTL
280
0
  9
$HIDETEXT
280
1
  9
$XCLIPFRAME
280
0
  9
$HALOGAP
280
0
  9
$OBSCOLOR
 70
257
  9
$OBSLTYPE
280
0
  9
$INTERSECTIONDISPLAY
280
0
  9
$INTERSECTIONCOLOR
 70
257
  9
$DIMASSOC
280
2
  9
$PROJECTNAME
  1

  9
$CAMERADISPLAY
290
0
  9
$LENSLENGTH
 40
50.0
  9
$CAMERAHEIGHT
 40
0.0
  9
$STEPSPERSEC
 40
2.0
  9
$STEPSIZE
 40
6.0
  9
$3DDWFPREC
 40
2.0
  9
$PSOLWIDTH
 40
0.25
  9
$PSOLHEIGHT
 40
4.0
  9
$LOFTANG1
 40
1.570796326794896
  9
$LOFTANG2
 40
1.570796326794896
  9
$LOFTMAG1
 40
0.0
  9
$LOFTMAG2
 40
0.0
  9
$LOFTPARAM
 70
7
  9
$LOFTNORMALS
280
1
  9
$LATITUDE
 40
37.795
  9
$LONGITUDE
 40
-122.394
  9
$NORTHDIRECTION
 40
0.0
  9
$TIMEZONE
 70
-8000
  9
$LIGHTGLYPHDISPLAY
280
1
  9
$TILEMODELIGHTSYNCH
280
1
  9
$CMATERIAL
347
9AE0
  9
$SOLIDHIST
280
1
  9
$SHOWHIST
280
1
  9
$DWFFRAME
280
2
  9
$DGNFRAME
280
0
  9
$REALWORLDSCALE
290
1
  9
$INTERFERECOLOR
 62
1
  9
$INTERFEREOBJVS
345
9AF6
  9
$INTERFEREVPVS
346
9AF7
  9
$CSHADOW
280
0
  9
$SHADOWPLANELOCATION
 40
0.0
  0
ENDSEC
  0
SECTION
  2
CLASSES
  0
CLASS
  1
ACDBDICTIONARYWDFLT
  2
AcDbDictionaryWithDefault
  3
ObjectDBX Classes
 90
0
 91
1
280
0
281
0
  0
CLASS
  1
DICTIONARYVAR
  2
AcDbDictionaryVar
  3
ObjectDBX Classes
 90
0
 91
9
280
0
281
0
  0
CLASS
  1
TABLESTYLE
  2
AcDbTableStyle
  3
ObjectDBX Classes
 90
4095
 91
1
280
0
281
0
  0
CLASS
  1
MATERIAL
  2
AcDbMaterial
  3
ObjectDBX Classes
 90
1153
 91
3
280
0
281
0
  0
CLASS
  1
VISUALSTYLE
  2
AcDbVisualStyle
  3
ObjectDBX Classes
 90
4095
 91
26
280
0
281
0
  0
CLASS
  1
SCALE
  2
AcDbScale
  3
ObjectDBX Classes
 90
1153
 91
33
280
0
281
0
  0
CLASS
  1
MLEADERSTYLE
  2
AcDbMLeaderStyle
  3
ACDB_MLEADERSTYLE_CLASS
 90
4095
 91
1
280
0
281
0
  0
CLASS
  1
SORTENTSTABLE
  2
AcDbSortentsTable
  3
ObjectDBX Classes
 90
0
 91
1
280
0
281
0
  0
CLASS
  1
DBCOLOR
  2
AcDbColor
  3
ObjectDBX Classes
 90
0
 91
1
280
0
281
0
  0
CLASS
  1
DIMASSOC
  2
AcDbDimAssoc
  3
"AcDbDimAssoc|Product Desc:     AcDim ARX App For Dimension|Company:          Autodesk, Inc.|WEB Address:      www.autodesk.com"
 90
0
 91
0
280
0
281
0
  0
CLASS
  1
CELLSTYLEMAP
  2
AcDbCellStyleMap
  3
ObjectDBX Classes
 90
1152
 91
3
280
0
281
0
  0
CLASS
  1
ACDBSECTIONVIEWSTYLE
  2
AcDbSectionViewStyle
  3
ObjectDBX Classes
 90
1025
 91
1
280
0
281
0
  0
CLASS
  1
ACDBDETAILVIEWSTYLE
  2
AcDbDetailViewStyle
  3
ObjectDBX Classes
 90
1025
 91
1
280
0
281
0
  0
CLASS
  1
EXACXREFPANELOBJECT
  2
ExAcXREFPanelObject
  3
EXAC_ESW
 90
1025
 91
0
280
0
281
0
  0
CLASS
  1
NPOCOLLECTION
  2
AcDbImpNonPersistentObjectsCollection
  3
ObjectDBX Classes
 90
1153
 91
0
280
0
281
0
  0
CLASS
  1
SUN
  2
AcDbSun
  3
SCENEOE
 90
1153
 91
0
280
0
281
0
  0
CLASS
  1
MENTALRAYRENDERSETTINGS
  2
AcDbMentalRayRenderSettings
  3
SCENEOE
 90
1024
 91
0
280
0
281
0
  0
CLASS
  1
RASTERVARIABLES
  2
AcDbRasterVariables
  3
ISM
 90
0
 91
0
280
0
281
0
  0
CLASS
  1
ACDBPLACEHOLDER
  2
AcDbPlaceHolder
  3
ObjectDBX Classes
 90
0
 91
0
280
0
281
0
  0
CLASS
  1
LAYOUT
  2
AcDbLayout
  3
ObjectDBX Classes
 90
0
 91
0
280
0
281
0
  0
ENDSEC
  0
SECTION
  2
TABLES
  0
TABLE
  2
VPORT
  5
9AD4
330
0
100
AcDbSymbolTable
 70
1
  0
VPORT
  5
4B
330
9AD4
100
AcDbSymbolTableRecord
100
AcDbViewportTableRecord
  2
*ACTIVE
 70
0
 10
0.0
 20
0.0
 11
1.0
 21
1.0
 12
14.66697002199963
 22
17.68374479427728
 13
0.0
 23
0.0
 14
0.1
 24
0.1
 15
0.1
 25
0.1
 16
0.0
 26
0.0
 36
1.0
 17
0.0
 27
0.0
 37
0.0
 40
66.72272451220368
 41
1.385273972602739
 42
50.0
 43
0.0
 44
0.0
 50
0.0
 51
0.0
 71
0
 72
100
 73
1
 74
0
 75
0
 76
1
 77
0
 78
1
281
0
 65
1
110
0.0
120
0.0
130
0.0
111
1.0
121
0.0
131
0.0
112
0.0
122
1.0
132
0.0
 79
0
146
0.0
 60
3
 61
10
348
9AD6
292
1
282
1
141
0.0
142
0.0
 63
250
421
3355443
1001
ACAD_NAV_VCDISPLAY
1070
3
  0
ENDTAB
  0
TABLE
  2
LTYPE
  5
9ACF
330
0
100
AcDbSymbolTable
 70
5
  0
LTYPE
  5
9AD0
330
9ACF
100
AcDbSymbolTableRecord
100
AcDbLinetypeTableRecord
  2
ByBlock
 70
0
  3

 72
65
 73
0
 40
0.0
  0
LTYPE
  5
9AD1
330
9ACF
100
AcDbSymbolTableRecord
100
AcDbLinetypeTableRecord
  2
ByLayer
 70
0
  3

 72
65
 73
0
 40
0.0
  0
LTYPE
  5
9ABE
330
9ACF
100
AcDbSymbolTableRecord
100
AcDbLinetypeTableRecord
  2
Continuous
 70
0
  3
Solid line
 72
65
 73
0
 40
0.0
  0
LTYPE
  5
9B22
330
9ACF
100
AcDbSymbolTableRecord
100
AcDbLinetypeTableRecord
  2
DGN Style 3
 70
0
  3
Dgn Style 3
 72
65
 73
2
 40
2.577697938124739
 49
1.84121281294624
 74
0
 49
-0.7364851251784972
 74
0
  0
LTYPE
  5
9B2F
330
9ACF
100
AcDbSymbolTableRecord
100
AcDbLinetypeTableRecord
  2
( Dashdot )
 70
0
  3
Dash/dot stroke pattern
 72
65
 73
4
 40
1.000999999999999
 49
0.5
 74
0
 49
-0.25
 74
0
 49
0.001
 74
0
 49
-0.25
 74
0
  0
ENDTAB
  0
TABLE
  2
LAYER
  5
9AC9
102
{ACAD_XDICTIONARY
360
9ACA
102
}
330
0
100
AcDbSymbolTable
 70
8
  0
LAYER
  5
9AB1
102
{ACAD_XDICTIONARY
360
B539
102
}
330
9AC9
100
AcDbSymbolTableRecord
100
AcDbLayerTableRecord
  2
0
 70
0
 62
7
  6
Continuous
370
-3
390
9AB2
347
9AB5
348
0
  0
LAYER
  5
447C
102
{ACAD_XDICTIONARY
360
B53F
102
}
330
9AC9
100
AcDbSymbolTableRecord
100
AcDbLayerTableRecord
  2
Level 63
 70
0
 62
7
  6
Continuous
370
0
390
9AB2
347
9AB5
348
0
  0
LAYER
  5
447D
102
{ACAD_XDICTIONARY
360
B541
102
}
330
9AC9
100
AcDbSymbolTableRecord
100
AcDbLayerTableRecord
  2
Level 50
 70
0
 62
7
  6
Continuous
370
0
390
9AB2
347
9AB5
348
0
  0
LAYER
  5
9B4B
330
9AC9
100
AcDbSymbolTableRecord
100
AcDbLayerTableRecord
  2
Defpoints
 70
0
 62
7
  6
Continuous
290
0
370
-3
390
9AB2
347
9AB5
348
0
  0
LAYER
  5
B00E
102
{ACAD_XDICTIONARY
360
B54B
102
}
330
9AC9
100
AcDbSymbolTableRecord
100
AcDbLayerTableRecord
  2
1. стены  выступы  колонны  лифты
 70
0
 62
7
  6
Continuous
370
30
390
9AB2
347
9AB5
348
0
  0
LAYER
  5
B55B
330
9AC9
100
AcDbSymbolTableRecord
100
AcDbLayerTableRecord
  2
YOLO_TABLE
 70
0
 62
1
  6
Continuous
370
-3
390
9AB2
347
9AB5
348
0
1001
AcAecLayerStandard
1000

1000

1001
AcCmTransparency
1071
33554687
  0
LAYER
  5
B55C
330
9AC9
100
AcDbSymbolTableRecord
100
AcDbLayerTableRecord
  2
YOLO_FRAME
 70
0
 62
1
  6
Continuous
370
-3
390
9AB2
347
9AB5
348
0
1001
AcAecLayerStandard
1000

1000

1001
AcCmTransparency
1071
33554687
  0
LAYER
  5
B55D
330
9AC9
100
AcDbSymbolTableRecord
100
AcDbLayerTableRecord
  2
YOLO_STAMP
 70
0
 62
1
  6
Continuous
370
-3
390
9AB2
347
9AB5
348
0
1001
AcAecLayerStandard
1000

1000

1001
AcCmTransparency
1071
33554687
  0
ENDTAB
  0
TABLE
  2
STYLE
  5
9ACC
330
0
100
AcDbSymbolTable
 70
3
  0
STYLE
  5
9ACD
330
9ACC
100
AcDbSymbolTableRecord
100
AcDbTextStyleTableRecord
  2
STANDARD
 70
0
 40
0.0
 41
1.0
 50
0.0
 71
0
 42
0.25
  3
cs_gost2304.shx
  4

  0
STYLE
  5
7A9
330
9ACC
100
AcDbSymbolTableRecord
100
AcDbTextStyleTableRecord
  2
GOST 2.304
 70
0
 40
0.0
 41
1.0
 50
0.0
 71
0
 42
0.2
  3
cs_gost2304.shx
  4

  0
STYLE
  5
12A1
330
9ACC
100
AcDbSymbolTableRecord
100
AcDbTextStyleTableRecord
  2
Style-Arial
 70
0
 40
0.0
 41
1.0
 50
0.0
 71
0
 42
0.2
  3
arial.ttf
  4

1001
ACAD
1000
Arial
1071
52263
  0
ENDTAB
  0
TABLE
  2
VIEW
  5
9AD2
330
0
100
AcDbSymbolTable
 70
0
  0
ENDTAB
  0
TABLE
  2
UCS
  5
9AD3
330
0
100
AcDbSymbolTable
 70
0
  0
ENDTAB
  0
TABLE
  2
APPID
  5
9AD8
330
0
100
AcDbSymbolTable
 70
11
  0
APPID
  5
9AD9
330
9AD8
100
AcDbSymbolTableRecord
100
AcDbRegAppTableRecord
  2
ACAD
 70
0
  0
APPID
  5
9AC8
330
9AD8
100
AcDbSymbolTableRecord
100
AcDbRegAppTableRecord
  2
ACAD_PSEXT
 70
0
  0
APPID
  5
132D
330
9AD8
100
AcDbSymbolTableRecord
100
AcDbRegAppTableRecord
  2
GradientColor1ACI
 70
0
  0
APPID
  5
132E
330
9AD8
100
AcDbSymbolTableRecord
100
AcDbRegAppTableRecord
  2
GradientColor2ACI
 70
0
  0
APPID
  5
A3F1
330
9AD8
100
AcDbSymbolTableRecord
100
AcDbRegAppTableRecord
  2
ACAD_MLEADERVER
 70
0
  0
APPID
  5
B553
330
9AD8
100
AcDbSymbolTableRecord
100
AcDbRegAppTableRecord
  2
ACAD_NAV_VCDISPLAY
 70
0
  0
APPID
  5
B55E
330
9AD8
100
AcDbSymbolTableRecord
100
AcDbRegAppTableRecord
  2
AcAecLayerStandard
 70
0
  0
APPID
  5
B55F
330
9AD8
100
AcDbSymbolTableRecord
100
AcDbRegAppTableRecord
  2
AcCmTransparency
 70
0
  0
APPID
  5
B897
330
9AD8
100
AcDbSymbolTableRecord
100
AcDbRegAppTableRecord
  2
ACAD_EXEMPT_FROM_CAD_STANDARDS
 70
0
  0
APPID
  5
B920
330
9AD8
100
AcDbSymbolTableRecord
100
AcDbRegAppTableRecord
  2
HATCHBACKGROUNDCOLOR
 70
0
  0
APPID
  5
B921
330
9AD8
100
AcDbSymbolTableRecord
100
AcDbRegAppTableRecord
  2
EZDXF
 70
0
  0
ENDTAB
  0
TABLE
  2
DIMSTYLE
  5
9ADA
330
0
100
AcDbSymbolTable
 70
1
100
AcDbDimStyleTable
  0
DIMSTYLE
105
9ADB
102
{ACAD_REACTORS
330
AD27
330
AD28
330
AD29
330
AD2A
330
AD2B
330
AD2C
102
}
330
9ADA
100
AcDbSymbolTableRecord
100
AcDbDimStyleTableRecord
  2
Standard
 70
0
 40
1.0
 41
2.5
 42
0.625
 43
3.75
 44
1.25
 45
0.0
 46
0.0
 47
0.0
 48
0.0
 49
2.5
140
2.5
141
2.5
142
0.0
143
0.03937007874
144
1.0
145
0.0
146
1.0
147
0.625
148
0.0
 69
0
 70
0
 71
0
 72
0
 73
0
 74
0
 75
0
 76
0
 77
1
 78
8
 79
3
170
0
171
3
172
1
173
0
174
0
175
0
176
0
177
0
178
0
179
2
271
2
272
2
273
2
274
3
275
0
276
0
277
2
278
44
279
0
280
0
281
0
282
0
283
0
284
8
285
0
286
0
288
0
289
3
290
0
340
9ACD
371
-2
372
-2
  0
ENDTAB
  0
TABLE
  2
BLOCK_RECORD
  5
9AAE
330
0
100
AcDbSymbolTable
 70
12
  0
BLOCK_RECORD
  5
9AAF
102
{ACAD_XDICTIONARY
360
9DF2
102
}
330
9AAE
100
AcDbSymbolTableRecord
100
AcDbBlockTableRecord
  2
*Model_Space
340
9AC0
 70
0
280
1
281
0
  0
BLOCK_RECORD
  5
9AC2
330
9AAE
100
AcDbSymbolTableRecord
100
AcDbBlockTableRecord
  2
*Paper_Space
340
9AC5
 70
0
280
1
281
0
  0
BLOCK_RECORD
  5
9B23
330
9AAE
100
AcDbSymbolTableRecord
100
AcDbBlockTableRecord
  2
_Oblique
340
0
 70
0
280
1
281
0
  0
BLOCK_RECORD
  5
9B27
330
9AAE
100
AcDbSymbolTableRecord
100
AcDbBlockTableRecord
  2
TerminatorOpen
340
0
 70
0
280
1
281
0
  0
BLOCK_RECORD
  5
B09C
330
9AAE
100
AcDbSymbolTableRecord
100
AcDbBlockTableRecord
  2
*U2
340
0
 70
0
280
1
281
0
  0
BLOCK_RECORD
  5
B0B5
330
9AAE
100
AcDbSymbolTableRecord
100
AcDbBlockTableRecord
  2
*D3
340
0
 70
0
280
1
281
0
  0
BLOCK_RECORD
  5
B0D0
330
9AAE
100
AcDbSymbolTableRecord
100
AcDbBlockTableRecord
  2
*D4
340
0
 70
0
280
1
281
0
  0
BLOCK_RECORD
  5
B0EB
330
9AAE
100
AcDbSymbolTableRecord
100
AcDbBlockTableRecord
  2
*D5
340
0
 70
0
280
1
281
0
  0
BLOCK_RECORD
  5
B106
330
9AAE
100
AcDbSymbolTableRecord
100
AcDbBlockTableRecord
  2
*D6
340
0
 70
0
280
1
281
0
  0
BLOCK_RECORD
  5
B121
330
9AAE
100
AcDbSymbolTableRecord
100
AcDbBlockTableRecord
  2
*D7
340
0
 70
0
280
1
281
0
  0
BLOCK_RECORD
  5
B13C
330
9AAE
100
AcDbSymbolTableRecord
100
AcDbBlockTableRecord
  2
*D8
340
0
 70
0
280
1
281
0
  0
BLOCK_RECORD
  5
B14B
330
9AAE
100
AcDbSymbolTableRecord
100
AcDbBlockTableRecord
  2
*U9
340
0
 70
0
280
1
281
0
  0
ENDTAB
  0
ENDSEC
  0
SECTION
  2
BLOCKS
  0
BLOCK
  5
9AB0
330
9AAF
100
AcDbEntity
  8
0
100
AcDbBlockBegin
  2
*Model_Space
 70
0
 10
0.0
 20
0.0
 30
0.0
  3
*Model_Space
  1

  0
ENDBLK
  5
9ABF
330
9AAF
100
AcDbEntity
  8
0
100
AcDbBlockEnd
  0
BLOCK
  5
9AC3
330
9AC2
100
AcDbEntity
 67
1
  8
0
100
AcDbBlockBegin
  2
*Paper_Space
 70
0
 10
0.0
 20
0.0
 30
0.0
  3
*Paper_Space
  1

  0
ENDBLK
  5
9AC4
330
9AC2
100
AcDbEntity
 67
1
  8
0
100
AcDbBlockEnd
  0
BLOCK
  5
9B25
330
9B23
100
AcDbEntity
  8
0
100
AcDbBlockBegin
  2
_Oblique
 70
0
 10
0.0
 20
0.0
 30
0.0
  3
_Oblique
  1

  0
LINE
  5
9B24
330
9B23
100
AcDbEntity
  8
0
  6
ByBlock
 62
0
370
-2
100
AcDbLine
 10
0.5
 20
0.5
 30
0.0
 11
-0.5
 21
-0.5
 31
0.0
  0
ENDBLK
  5
9B26
330
9B23
100
AcDbEntity
  8
0
100
AcDbBlockEnd
  0
BLOCK
  5
9B2B
330
9B27
100
AcDbEntity
  8
0
100
AcDbBlockBegin
  2
TerminatorOpen
 70
0
 10
0.0
 20
0.0
 30
0.0
  3
TerminatorOpen
  1

  0
LINE
  5
9B28
330
9B27
100
AcDbEntity
  8
0
  6
ByBlock
 62
0
370
-2
100
AcDbLine
 10
0.0
 20
0.0
 30
0.0
 11
-1.0
 21
0.0
 31
0.0
  0
LINE
  5
9B29
330
9B27
100
AcDbEntity
  8
0
  6
ByBlock
 62
0
370
-2
100
AcDbLine
 10
0.0
 20
0.0
 30
0.0
 11
-1.0
 21
0.5
 31
0.0
  0
LINE
  5
9B2A
330
9B27
100
AcDbEntity
  8
0
  6
ByBlock
 62
0
370
-2
100
AcDbLine
 10
0.0
 20
0.0
 30
0.0
 11
-1.0
 21
-0.5
 31
0.0
  0
ENDBLK
  5
9B2C
330
9B27
100
AcDbEntity
  8
0
100
AcDbBlockEnd
  0
BLOCK
  5
B09D
330
B09C
100
AcDbEntity
  8
0
100
AcDbBlockBegin
  2
*U2
 70
1
 10
0.0
 20
0.0
 30
0.0
  3
*U2
  1

  0
3DFACE
  5
ACA4
330
B09C
100
AcDbEntity
  8
0
  6
Continuous
 62
7
370
13
100
AcDbFace
 10
0.3078075068793282
 20
-0.679984895323301
 30
0.0
 11
0.2578075068793311
 21
-0.679984895323301
 31
0.0
 12
0.2578075068793311
 22
-0.7499848953232942
 32
0.0
 13
0.3078075068793282
 23
-0.7499848953232942
 33
0.0
  0
LINE
  5
ACA5
330
B09C
100
AcDbEntity
  8
0
  6
Continuous
 62
7
370
13
100
AcDbLine
 10
0.2578075068793311
 20
0.6800151046766985
 30
0.0
 11
-0.1381722905851461
 21
0.2840353072122355
 31
0.0
  0
LINE
  5
ACA6
330
B09C
100
AcDbEntity
  8
0
  6
Continuous
 62
7
370
13
100
AcDbLine
 10
0.2578075068793311
 20
-0.679984895323301
 30
0.0
 11
-0.3078779180699058
 21
-0.1142994703740641
 31
0.0
  0
ARC
  5
ACA7
330
B09C
100
AcDbEntity
  8
0
  6
Continuous
 62
7
370
0
100
AcDbCircle
 10
0.2578075068793311
 20
0.6800151046766985
 30
0.0
 40
0.56
100
AcDbArc
 50
225.0
 51
270.0
  0
ARC
  5
ACA8
330
B09C
100
AcDbEntity
  8
0
  6
Continuous
 62
7
370
0
100
AcDbCircle
 10
0.2578075068793311
 20
-0.679984895323301
 30
0.0
 40
0.8
100
AcDbArc
 50
90.0
 51
134.9999999999994
  0
3DFACE
  5
ACA9
330
B09C
100
AcDbEntity
  8
0
  6
Continuous
 62
7
370
13
100
AcDbFace
 10
0.3078075068793282
 20
0.7500151046767058
 30
0.0
 11
0.2578075068793311
 21
0.7500151046767058
 31
0.0
 12
0.2578075068793311
 22
0.6800151046766985
 32
0.0
 13
0.3078075068793282
 23
0.6800151046766985
 33
0.0
  0
ENDBLK
  5
B09E
330
B09C
100
AcDbEntity
  8
0
100
AcDbBlockEnd
  0
BLOCK
  5
B0B6
330
B0B5
100
AcDbEntity
  8
0
100
AcDbBlockBegin
  2
*D3
 70
1
 10
0.0
 20
0.0
 30
0.0
  3
*D3
  1

  0
LINE
  5
B812
330
B0B5
100
AcDbEntity
  8
0
  6
Continuous
 62
0
370
-2
440
16777216
100
AcDbLine
 10
1.478937475284481
 20
36.04765029621987
 30
0.0
 11
2.038269838286919
 21
36.04765029621987
 31
0.0
  0
LINE
  5
B813
330
B0B5
100
AcDbEntity
  8
0
  6
Continuous
 62
0
370
-2
440
16777216
100
AcDbLine
 10
1.478937475284481
 20
30.04765029621987
 30
0.0
 11
2.038269838286923
 21
30.04765029621987
 31
0.0
  0
LINE
  5
B814
330
B0B5
100
AcDbEntity
  8
0
  6
Continuous
 62
0
370
-2
440
16777216
100
AcDbLine
 10
1.91326983828692
 20
36.04765029621987
 30
0.0
 11
1.913269838286923
 21
30.04765029621987
 31
0.0
  0
INSERT
  5
B815
330
B0B5
100
AcDbEntity
  8
0
  6
Continuous
 62
0
370
-2
440
16777216
100
AcDbBlockReference
  2
_Oblique
 10
1.91326983828692
 20
36.04765029621987
 30
0.0
 41
0.125
 42
0.125
 43
0.125
 50
90.0
  0
INSERT
  5
B816
330
B0B5
100
AcDbEntity
  8
0
  6
Continuous
 62
0
370
-2
440
16777216
100
AcDbBlockReference
  2
_Oblique
 10
1.913269838286923
 20
30.04765029621987
 30
0.0
 41
0.125
 42
0.125
 43
0.125
 50
270.0
  0
MTEXT
  5
B817
330
B0B5
100
AcDbEntity
  8
0
  6
Continuous
 62
0
370
0
440
16777216
100
AcDbMText
 10
1.660626591356508
 20
33.04765029621986
 30
0.0
 40
0.25
 41
0.0
 46
0.0
 71
5
  1
6000
  7
Style-Arial
 11
1e-16
 21
1.0
 31
0.0
  0
POINT
  5
B818
330
B0B5
100
AcDbEntity
  8
Defpoints
  6
Continuous
 62
0
370
0
440
16777216
100
AcDbPoint
 10
1.353937475284481
 20
36.04765029621987
 30
0.0
  0
POINT
  5
B819
330
B0B5
100
AcDbEntity
  8
Defpoints
  6
Continuous
 62
0
370
0
440
16777216
100
AcDbPoint
 10
1.353937475284481
 20
30.04765029621987
 30
0.0
  0
POINT
  5
B81A
330
B0B5
100
AcDbEntity
  8
Defpoints
  6
Continuous
 62
0
370
0
440
16777216
100
AcDbPoint
 10
1.913269838286923
 20
30.04765029621987
 30
0.0
  0
ENDBLK
  5
B0B7
330
B0B5
100
AcDbEntity
  8
0
100
AcDbBlockEnd
  0
BLOCK
  5
B0D1
330
B0D0
100
AcDbEntity
  8
0
100
AcDbBlockBegin
  2
*D4
 70
1
 10
0.0
 20
0.0
 30
0.0
  3
*D4
  1

  0
LINE
  5
B81B
330
B0D0
100
AcDbEntity
  8
0
  6
Continuous
 62
0
370
-2
440
16777216
100
AcDbLine
 10
1.478937475284481
 20
30.04765029621987
 30
0.0
 11
2.038269838286919
 21
30.04765029621987
 31
0.0
  0
LINE
  5
B81C
330
B0D0
100
AcDbEntity
  8
0
  6
Continuous
 62
0
370
-2
440
16777216
100
AcDbLine
 10
1.478937475284481
 20
24.04765029621988
 30
0.0
 11
2.038269838286923
 21
24.04765029621988
 31
0.0
  0
LINE
  5
B81D
330
B0D0
100
AcDbEntity
  8
0
  6
Continuous
 62
0
370
-2
440
16777216
100
AcDbLine
 10
1.91326983828692
 20
30.04765029621987
 30
0.0
 11
1.913269838286923
 21
24.04765029621988
 31
0.0
  0
INSERT
  5
B81E
330
B0D0
100
AcDbEntity
  8
0
  6
Continuous
 62
0
370
-2
440
16777216
100
AcDbBlockReference
  2
_Oblique
 10
1.91326983828692
 20
30.04765029621987
 30
0.0
 41
0.125
 42
0.125
 43
0.125
 50
90.0
  0
INSERT
  5
B81F
330
B0D0
100
AcDbEntity
  8
0
  6
Continuous
 62
0
370
-2
440
16777216
100
AcDbBlockReference
  2
_Oblique
 10
1.913269838286923
 20
24.04765029621988
 30
0.0
 41
0.125
 42
0.125
 43
0.125
 50
270.0
  0
MTEXT
  5
B820
330
B0D0
100
AcDbEntity
  8
0
  6
Continuous
 62
0
370
0
440
16777216
100
AcDbMText
 10
1.660626591356504
 20
27.04765029621988
 30
0.0
 40
0.25
 41
0.0
 46
0.0
 71
5
  1
6000
  7
Style-Arial
 11
1e-16
 21
1.0
 31
0.0
  0
POINT
  5
B821
330
B0D0
100
AcDbEntity
  8
Defpoints
  6
Continuous
 62
0
370
0
440
16777216
100
AcDbPoint
 10
1.353937475284481
 20
30.04765029621987
 30
0.0
  0
POINT
  5
B822
330
B0D0
100
AcDbEntity
  8
Defpoints
  6
Continuous
 62
0
370
0
440
16777216
100
AcDbPoint
 10
1.353937475284481
 20
24.04765029621988
 30
0.0
  0
POINT
  5
B823
330
B0D0
100
AcDbEntity
  8
Defpoints
  6
Continuous
 62
0
370
0
440
16777216
100
AcDbPoint
 10
1.913269838286923
 20
24.04765029621988
 30
0.0
  0
ENDBLK
  5
B0D2
330
B0D0
100
AcDbEntity
  8
0
100
AcDbBlockEnd
  0
BLOCK
  5
B0EC
330
B0EB
100
AcDbEntity
  8
0
100
AcDbBlockBegin
  2
*D5
 70
1
 10
0.0
 20
0.0
 30
0.0
  3
*D5
  1

  0
LINE
  5
B824
330
B0EB
100
AcDbEntity
  8
0
  6
Continuous
 62
0
370
-2
440
16777216
100
AcDbLine
 10
1.478937475284481
 20
24.04765029621988
 30
0.0
 11
2.038269838286919
 21
24.04765029621988
 31
0.0
  0
LINE
  5
B825
330
B0EB
100
AcDbEntity
  8
0
  6
Continuous
 62
0
370
-2
440
16777216
100
AcDbLine
 10
1.478937475284481
 20
18.04765029621986
 30
0.0
 11
2.038269838286923
 21
18.04765029621986
 31
0.0
  0
LINE
  5
B826
330
B0EB
100
AcDbEntity
  8
0
  6
Continuous
 62
0
370
-2
440
16777216
100
AcDbLine
 10
1.91326983828692
 20
24.04765029621988
 30
0.0
 11
1.913269838286923
 21
18.04765029621986
 31
0.0
  0
INSERT
  5
B827
330
B0EB
100
AcDbEntity
  8
0
  6
Continuous
 62
0
370
-2
440
16777216
100
AcDbBlockReference
  2
_Oblique
 10
1.91326983828692
 20
24.04765029621988
 30
0.0
 41
0.125
 42
0.125
 43
0.125
 50
90.0
  0
INSERT
  5
B828
330
B0EB
100
AcDbEntity
  8
0
  6
Continuous
 62
0
370
-2
440
16777216
100
AcDbBlockReference
  2
_Oblique
 10
1.913269838286923
 20
18.04765029621986
 30
0.0
 41
0.125
 42
0.125
 43
0.125
 50
270.0
  0
MTEXT
  5
B829
330
B0EB
100
AcDbEntity
  8
0
  6
Continuous
 62
0
370
0
440
16777216
100
AcDbMText
 10
1.660626591356504
 20
21.04765029621987
 30
0.0
 40
0.25
 41
0.0
 46
0.0
 71
5
  1
6000
  7
Style-Arial
 11
1e-16
 21
1.0
 31
0.0
  0
POINT
  5
B82A
330
B0EB
100
AcDbEntity
  8
Defpoints
  6
Continuous
 62
0
370
0
440
16777216
100
AcDbPoint
 10
1.353937475284481
 20
24.04765029621988
 30
0.0
  0
POINT
  5
B82B
330
B0EB
100
AcDbEntity
  8
Defpoints
  6
Continuous
 62
0
370
0
440
16777216
100
AcDbPoint
 10
1.353937475284481
 20
18.04765029621986
 30
0.0
  0
POINT
  5
B82C
330
B0EB
100
AcDbEntity
  8
Defpoints
  6
Continuous
 62
0
370
0
440
16777216
100
AcDbPoint
 10
1.913269838286923
 20
18.04765029621986
 30
0.0
  0
ENDBLK
  5
B0ED
330
B0EB
100
AcDbEntity
  8
0
100
AcDbBlockEnd
  0
BLOCK
  5
B107
330
B106
100
AcDbEntity
  8
0
100
AcDbBlockBegin
  2
*D6
 70
1
 10
0.0
 20
0.0
 30
0.0
  3
*D6
  1

  0
LINE
  5
B82D
330
B106
100
AcDbEntity
  8
0
  6
Continuous
 62
0
370
-2
440
16777216
100
AcDbLine
 10
4.395420303787117
 20
14.27097700003577
 30
0.0
 11
4.395420303787117
 21
14.59267424686557
 31
0.0
  0
LINE
  5
B82E
330
B106
100
AcDbEntity
  8
0
  6
Continuous
 62
0
370
-2
440
16777216
100
AcDbLine
 10
10.39542030378712
 20
14.27097700003577
 30
0.0
 11
10.39542030378712
 21
14.59267424686557
 31
0.0
  0
LINE
  5
B82F
330
B106
100
AcDbEntity
  8
0
  6
Continuous
 62
0
370
-2
440
16777216
100
AcDbLine
 10
4.395420303787117
 20
14.46767424686557
 30
0.0
 11
10.39542030378712
 21
14.46767424686557
 31
0.0
  0
INSERT
  5
B830
330
B106
100
AcDbEntity
  8
0
  6
Continuous
 62
0
370
-2
440
16777216
100
AcDbBlockReference
  2
_Oblique
 10
4.395420303787117
 20
14.46767424686557
 30
0.0
 41
0.125
 42
0.125
 43
0.125
 50
180.0
  0
INSERT
  5
B831
330
B106
100
AcDbEntity
  8
0
  6
Continuous
 62
0
370
-2
440
16777216
100
AcDbBlockReference
  2
_Oblique
 10
10.39542030378712
 20
14.46767424686557
 30
0.0
 41
0.125
 42
0.125
 43
0.125
  0
MTEXT
  5
B832
330
B106
100
AcDbEntity
  8
0
  6
Continuous
 62
0
370
0
440
16777216
100
AcDbMText
 10
7.395420303787119
 20
14.72031749379599
 30
0.0
 40
0.25
 41
0.0
 46
0.0
 71
5
  1
6000
  7
Style-Arial
  0
POINT
  5
B833
330
B106
100
AcDbEntity
  8
Defpoints
  6
Continuous
 62
0
370
0
440
16777216
100
AcDbPoint
 10
4.395420303787117
 20
14.14597700003577
 30
0.0
  0
POINT
  5
B834
330
B106
100
AcDbEntity
  8
Defpoints
  6
Continuous
 62
0
370
0
440
16777216
100
AcDbPoint
 10
10.39542030378712
 20
14.14597700003577
 30
0.0
  0
POINT
  5
B835
330
B106
100
AcDbEntity
  8
Defpoints
  6
Continuous
 62
0
370
0
440
16777216
100
AcDbPoint
 10
10.39542030378712
 20
14.46767424686557
 30
0.0
  0
ENDBLK
  5
B108
330
B106
100
AcDbEntity
  8
0
100
AcDbBlockEnd
  0
BLOCK
  5
B122
330
B121
100
AcDbEntity
  8
0
100
AcDbBlockBegin
  2
*D7
 70
1
 10
0.0
 20
0.0
 30
0.0
  3
*D7
  1

  0
LINE
  5
B836
330
B121
100
AcDbEntity
  8
0
  6
Continuous
 62
0
370
-2
440
16777216
100
AcDbLine
 10
10.39542030378712
 20
14.27097700003577
 30
0.0
 11
10.39542030378712
 21
14.59267424686557
 31
0.0
  0
LINE
  5
B837
330
B121
100
AcDbEntity
  8
0
  6
Continuous
 62
0
370
-2
440
16777216
100
AcDbLine
 10
16.39542030378712
 20
14.27097700003577
 30
0.0
 11
16.39542030378712
 21
14.59267424686557
 31
0.0
  0
LINE
  5
B838
330
B121
100
AcDbEntity
  8
0
  6
Continuous
 62
0
370
-2
440
16777216
100
AcDbLine
 10
10.39542030378712
 20
14.46767424686557
 30
0.0
 11
16.39542030378712
 21
14.46767424686557
 31
0.0
  0
INSERT
  5
B839
330
B121
100
AcDbEntity
  8
0
  6
Continuous
 62
0
370
-2
440
16777216
100
AcDbBlockReference
  2
_Oblique
 10
10.39542030378712
 20
14.46767424686557
 30
0.0
 41
0.125
 42
0.125
 43
0.125
 50
180.0
  0
INSERT
  5
B83A
330
B121
100
AcDbEntity
  8
0
  6
Continuous
 62
0
370
-2
440
16777216
100
AcDbBlockReference
  2
_Oblique
 10
16.39542030378712
 20
14.46767424686557
 30
0.0
 41
0.125
 42
0.125
 43
0.125
  0
MTEXT
  5
B83B
330
B121
100
AcDbEntity
  8
0
  6
Continuous
 62
0
370
0
440
16777216
100
AcDbMText
 10
13.39542030378712
 20
14.72031749379599
 30
0.0
 40
0.25
 41
0.0
 46
0.0
 71
5
  1
6000
  7
Style-Arial
  0
POINT
  5
B83C
330
B121
100
AcDbEntity
  8
Defpoints
  6
Continuous
 62
0
370
0
440
16777216
100
AcDbPoint
 10
10.39542030378712
 20
14.14597700003577
 30
0.0
  0
POINT
  5
B83D
330
B121
100
AcDbEntity
  8
Defpoints
  6
Continuous
 62
0
370
0
440
16777216
100
AcDbPoint
 10
16.39542030378712
 20
14.14597700003577
 30
0.0
  0
POINT
  5
B83E
330
B121
100
AcDbEntity
  8
Defpoints
  6
Continuous
 62
0
370
0
440
16777216
100
AcDbPoint
 10
16.39542030378712
 20
14.46767424686557
 30
0.0
  0
ENDBLK
  5
B123
330
B121
100
AcDbEntity
  8
0
100
AcDbBlockEnd
  0
BLOCK
  5
B13D
330
B13C
100
AcDbEntity
  8
0
100
AcDbBlockBegin
  2
*D8
 70
1
 10
0.0
 20
0.0
 30
0.0
  3
*D8
  1

  0
LINE
  5
B83F
330
B13C
100
AcDbEntity
  8
0
  6
Continuous
 62
0
370
-2
440
16777216
100
AcDbLine
 10
16.39542030378712
 20
14.27097700003577
 30
0.0
 11
16.39542030378712
 21
14.59267424686557
 31
0.0
  0
LINE
  5
B840
330
B13C
100
AcDbEntity
  8
0
  6
Continuous
 62
0
370
-2
440
16777216
100
AcDbLine
 10
22.39542030378713
 20
14.27097700003577
 30
0.0
 11
22.39542030378713
 21
14.59267424686557
 31
0.0
  0
LINE
  5
B841
330
B13C
100
AcDbEntity
  8
0
  6
Continuous
 62
0
370
-2
440
16777216
100
AcDbLine
 10
16.39542030378712
 20
14.46767424686557
 30
0.0
 11
22.39542030378713
 21
14.46767424686557
 31
0.0
  0
INSERT
  5
B842
330
B13C
100
AcDbEntity
  8
0
  6
Continuous
 62
0
370
-2
440
16777216
100
AcDbBlockReference
  2
_Oblique
 10
16.39542030378712
 20
14.46767424686557
 30
0.0
 41
0.125
 42
0.125
 43
0.125
 50
180.0
  0
INSERT
  5
B843
330
B13C
100
AcDbEntity
  8
0
  6
Continuous
 62
0
370
-2
440
16777216
100
AcDbBlockReference
  2
_Oblique
 10
22.39542030378713
 20
14.46767424686557
 30
0.0
 41
0.125
 42
0.125
 43
0.125
  0
MTEXT
  5
B844
330
B13C
100
AcDbEntity
  8
0
  6
Continuous
 62
0
370
0
440
16777216
100
AcDbMText
 10
19.39542030378712
 20
14.72031749379599
 30
0.0
 40
0.25
 41
0.0
 46
0.0
 71
5
  1
6000
  7
Style-Arial
  0
POINT
  5
B845
330
B13C
100
AcDbEntity
  8
Defpoints
  6
Continuous
 62
0
370
0
440
16777216
100
AcDbPoint
 10
16.39542030378712
 20
14.14597700003577
 30
0.0
  0
POINT
  5
B846
330
B13C
100
AcDbEntity
  8
Defpoints
  6
Continuous
 62
0
370
0
440
16777216
100
AcDbPoint
 10
22.39542030378713
 20
14.14597700003577
 30
0.0
  0
POINT
  5
B847
330
B13C
100
AcDbEntity
  8
Defpoints
  6
Continuous
 62
0
370
0
440
16777216
100
AcDbPoint
 10
22.39542030378713
 20
14.46767424686557
 30
0.0
  0
ENDBLK
  5
B13E
330
B13C
100
AcDbEntity
  8
0
100
AcDbBlockEnd
  0
BLOCK
  5
B14C
330
B14B
100
AcDbEntity
  8
0
100
AcDbBlockBegin
  2
*U9
 70
1
 10
0.0
 20
0.0
 30
0.0
  3
*U9
  1

  0
LINE
  5
AF2F
330
B14B
100
AcDbEntity
  8
1. стены  выступы  колонны  лифты
  6
Continuous
370
13
100
AcDbLine
 10
-0.149968841375383
 20
0.2999922831276223
 30
0.0
 11
-0.149968841375383
 21
-0.3000077168723578
 31
0.0
  0
LINE
  5
AF30
330
B14B
100
AcDbEntity
  8
1. стены  выступы  колонны  лифты
  6
Continuous
370
13
100
AcDbLine
 10
0.1500311586246568
 20
0.2999922831276223
 30
0.0
 11
-0.149968841375383
 21
0.2999922831276223
 31
0.0
  0
LINE
  5
AF31
330
B14B
100
AcDbEntity
  8
1. стены  выступы  колонны  лифты
  6
Continuous
370
13
100
AcDbLine
 10
0.1500311586246568
 20
-0.3000077168723578
 30
0.0
 11
-0.149968841375383
 21
-0.3000077168723578
 31
0.0
  0
LINE
  5
AF32
330
B14B
100
AcDbEntity
  8
1. стены  выступы  колонны  лифты
  6
Continuous
370
13
100
AcDbLine
 10
0.1500311586246568
 20
0.2999922831276223
 30
0.0
 11
0.1500311586246568
 21
-0.3000077168723578
 31
0.0
  0
ENDBLK
  5
B14D
330
B14B
100
AcDbEntity
  8
0
100
AcDbBlockEnd
  0
ENDSEC
  0
SECTION
  2
ENTITIES
  0
LINE
  5
AC38
330
9AAF
100
AcDbEntity
  8
0
  6
( Dashdot )
 62
1
370
0
100
AcDbLine
 10
22.39542030378713
 20
36.04765029621986
 30
0.0
 11
22.39542030378713
 21
14.14597700003577
 31
0.0
  0
LINE
  5
AC39
330
9AAF
100
AcDbEntity
  8
0
  6
( Dashdot )
 62
1
370
0
100
AcDbLine
 10
16.39542030378712
 20
36.04765029621986
 30
0.0
 11
16.39542030378712
 21
14.14597700003577
 31
0.0
  0
LINE
  5
AC3A
330
9AAF
100
AcDbEntity
  8
0
  6
( Dashdot )
 62
1
370
0
100
AcDbLine
 10
10.39542030378712
 20
36.04765029621986
 30
0.0
 11
10.39542030378712
 21
14.14597700003577
 31
0.0
  0
LINE
  5
AC3B
330
9AAF
100
AcDbEntity
  8
0
  6
( Dashdot )
 62
1
370
0
100
AcDbLine
 10
4.395420303787117
 20
36.04765029621986
 30
0.0
 11
4.395420303787117
 21
14.14597700003577
 31
0.0
  0
3DFACE
  5
AC3C
330
9AAF
100
AcDbEntity
  8
0
  6
Continuous
 62
7
370
30
100
AcDbFace
 10
16.29542030378711
 20
30.14765029621987
 30
0.0
 11
16.49542030378711
 21
30.14765029621987
 31
0.0
 12
16.49542030378711
 22
29.94765029621986
 32
0.0
 13
16.29542030378711
 23
29.94765029621986
 33
0.0
  0
3DFACE
  5
AC3D
330
9AAF
100
AcDbEntity
  8
0
  6
Continuous
 62
7
370
30
100
AcDbFace
 10
10.29542030378711
 20
30.14765029621987
 30
0.0
 11
10.49542030378711
 21
30.14765029621987
 31
0.0
 12
10.49542030378711
 22
29.94765029621986
 32
0.0
 13
10.29542030378711
 23
29.94765029621986
 33
0.0
  0
3DFACE
  5
AC3E
330
9AAF
100
AcDbEntity
  8
0
  6
Continuous
 62
7
370
30
100
AcDbFace
 10
4.295420303787111
 20
30.14765029621987
 30
0.0
 11
4.495420303787112
 21
30.14765029621987
 31
0.0
 12
4.495420303787112
 22
29.94765029621986
 32
0.0
 13
4.295420303787111
 23
29.94765029621986
 33
0.0
  0
3DFACE
  5
AC3F
330
9AAF
100
AcDbEntity
  8
0
  6
Continuous
 62
7
370
30
100
AcDbFace
 10
22.29542030378711
 20
30.14765029621987
 30
0.0
 11
22.49542030378711
 21
30.14765029621987
 31
0.0
 12
22.49542030378711
 22
29.94765029621986
 32
0.0
 13
22.29542030378711
 23
29.94765029621986
 33
0.0
  0
3DFACE
  5
AC40
330
9AAF
100
AcDbEntity
  8
0
  6
Continuous
 62
7
370
30
100
AcDbFace
 10
16.29542030378711
 20
24.14765029621988
 30
0.0
 11
16.49542030378711
 21
24.14765029621988
 31
0.0
 12
16.49542030378711
 22
23.94765029621986
 32
0.0
 13
16.29542030378711
 23
23.94765029621986
 33
0.0
  0
3DFACE
  5
AC41
330
9AAF
100
AcDbEntity
  8
0
  6
Continuous
 62
7
370
30
100
AcDbFace
 10
10.29542030378711
 20
24.14765029621988
 30
0.0
 11
10.49542030378711
 21
24.14765029621988
 31
0.0
 12
10.49542030378711
 22
23.94765029621986
 32
0.0
 13
10.29542030378711
 23
23.94765029621986
 33
0.0
  0
3DFACE
  5
AC42
330
9AAF
100
AcDbEntity
  8
0
  6
Continuous
 62
7
370
30
100
AcDbFace
 10
4.295420303787111
 20
24.14765029621988
 30
0.0
 11
4.495420303787112
 21
24.14765029621988
 31
0.0
 12
4.495420303787112
 22
23.94765029621986
 32
0.0
 13
4.295420303787111
 23
23.94765029621986
 33
0.0
  0
3DFACE
  5
AC43
330
9AAF
100
AcDbEntity
  8
0
  6
Continuous
 62
7
370
30
100
AcDbFace
 10
22.29542030378711
 20
24.14765029621988
 30
0.0
 11
22.49542030378711
 21
24.14765029621988
 31
0.0
 12
22.49542030378711
 22
23.94765029621986
 32
0.0
 13
22.29542030378711
 23
23.94765029621986
 33
0.0
  0
3DFACE
  5
AC44
330
9AAF
100
AcDbEntity
  8
0
  6
Continuous
 62
7
370
30
100
AcDbFace
 10
16.29542030378711
 20
18.14765029621986
 30
0.0
 11
16.49542030378711
 21
18.14765029621986
 31
0.0
 12
16.49542030378711
 22
17.94765029621986
 32
0.0
 13
16.29542030378711
 23
17.94765029621986
 33
0.0
  0
3DFACE
  5
AC45
330
9AAF
100
AcDbEntity
  8
0
  6
Continuous
 62
7
370
30
100
AcDbFace
 10
10.29542030378711
 20
18.14765029621986
 30
0.0
 11
10.49542030378711
 21
18.14765029621986
 31
0.0
 12
10.49542030378711
 22
17.94765029621986
 32
0.0
 13
10.29542030378711
 23
17.94765029621986
 33
0.0
  0
3DFACE
  5
AC46
330
9AAF
100
AcDbEntity
  8
0
  6
Continuous
 62
7
370
30
100
AcDbFace
 10
4.295420303787111
 20
18.14765029621986
 30
0.0
 11
4.495420303787112
 21
18.14765029621986
 31
0.0
 12
4.495420303787112
 22
17.94765029621986
 32
0.0
 13
4.295420303787111
 23
17.94765029621986
 33
0.0
  0
3DFACE
  5
AC47
330
9AAF
100
AcDbEntity
  8
0
  6
Continuous
 62
7
370
30
100
AcDbFace
 10
22.29542030378711
 20
18.14765029621986
 30
0.0
 11
22.49542030378711
 21
18.14765029621986
 31
0.0
 12
22.49542030378711
 22
17.94765029621986
 32
0.0
 13
22.29542030378711
 23
17.94765029621986
 33
0.0
  0
3DFACE
  5
AC48
330
9AAF
100
AcDbEntity
  8
0
  6
Continuous
 62
7
370
30
100
AcDbFace
 10
16.29542030378711
 20
36.14765029621989
 30
0.0
 11
16.49542030378711
 21
36.14765029621989
 31
0.0
 12
16.49542030378711
 22
35.94765029621989
 32
0.0
 13
16.29542030378711
 23
35.94765029621989
 33
0.0
  0
3DFACE
  5
AC49
330
9AAF
100
AcDbEntity
  8
0
  6
Continuous
 62
7
370
30
100
AcDbFace
 10
10.29542030378711
 20
36.14765029621989
 30
0.0
 11
10.49542030378711
 21
36.14765029621989
 31
0.0
 12
10.49542030378711
 22
35.94765029621989
 32
0.0
 13
10.29542030378711
 23
35.94765029621989
 33
0.0
  0
3DFACE
  5
AC4A
330
9AAF
100
AcDbEntity
  8
0
  6
Continuous
 62
7
370
30
100
AcDbFace
 10
4.295420303787111
 20
36.14765029621989
 30
0.0
 11
4.495420303787112
 21
36.14765029621989
 31
0.0
 12
4.495420303787112
 22
35.94765029621989
 32
0.0
 13
4.295420303787111
 23
35.94765029621989
 33
0.0
  0
3DFACE
  5
AC4B
330
9AAF
100
AcDbEntity
  8
0
  6
Continuous
 62
7
370
30
100
AcDbFace
 10
22.29542030378711
 20
36.14765029621989
 30
0.0
 11
22.49542030378711
 21
36.14765029621989
 31
0.0
 12
22.49542030378711
 22
35.94765029621989
 32
0.0
 13
22.29542030378711
 23
35.94765029621989
 33
0.0
  0
LINE
  5
AC4C
330
9AAF
100
AcDbEntity
  8
0
  6
Continuous
 62
7
370
30
100
AcDbLine
 10
4.295420303787111
 20
36.14765029621989
 30
0.0
 11
10.49542030378711
 21
36.14765029621989
 31
0.0
  0
LINE
  5
AC4D
330
9AAF
100
AcDbEntity
  8
0
  6
Continuous
 62
7
370
30
100
AcDbLine
 10
4.295420303787111
 20
36.14765029621989
 30
0.0
 11
4.295420303787111
 21
35.4176502962199
 31
0.0
  0
LINE
  5
AC4E
330
9AAF
100
AcDbEntity
  8
0
  6
Continuous
 62
7
370
30
100
AcDbLine
 10
4.295420303787111
 20
17.94765029621986
 30
0.0
 11
10.49542030378711
 21
17.94765029621986
 31
0.0
  0
LINE
  5
AC4F
330
9AAF
100
AcDbEntity
  8
0
  6
Continuous
 62
7
370
30
100
AcDbLine
 10
4.175420303787118
 20
36.26765029621989
 30
0.0
 11
10.49542030378711
 21
36.26765029621989
 31
0.0
  0
LINE
  5
AC50
330
9AAF
100
AcDbEntity
  8
0
  6
Continuous
 62
7
370
30
100
AcDbLine
 10
4.175420303787118
 20
36.26765029621989
 30
0.0
 11
4.175420303787118
 21
35.4176502962199
 31
0.0
  0
LINE
  5
AC51
330
9AAF
100
AcDbEntity
  8
0
  6
Continuous
 62
7
370
30
100
AcDbLine
 10
4.175420303787118
 20
17.82765029621986
 30
0.0
 11
10.49542030378711
 21
17.82765029621986
 31
0.0
  0
LINE
  5
AC52
330
9AAF
100
AcDbEntity
  8
0
  6
Continuous
 62
7
370
30
100
AcDbLine
 10
4.175420303787118
 20
35.4176502962199
 30
0.0
 11
4.295420303787111
 21
35.4176502962199
 31
0.0
  0
LINE
  5
AC53
330
9AAF
100
AcDbEntity
  8
0
  6
Continuous
 62
7
370
30
100
AcDbLine
 10
4.175420303787118
 20
33.91765029621991
 30
0.0
 11
4.295420303787111
 21
33.91765029621991
 31
0.0
  0
LINE
  5
AC54
330
9AAF
100
AcDbEntity
  8
0
  6
Continuous
 62
7
370
30
100
AcDbLine
 10
4.295420303787111
 20
33.91765029621991
 30
0.0
 11
4.295420303787111
 21
17.94765029621986
 31
0.0
  0
LINE
  5
AC55
330
9AAF
100
AcDbEntity
  8
0
  6
Continuous
 62
7
370
30
100
AcDbLine
 10
4.175420303787118
 20
33.91765029621991
 30
0.0
 11
4.175420303787118
 21
17.82765029621986
 31
0.0
  0
LINE
  5
AC56
330
9AAF
100
AcDbEntity
  8
0
  6
Continuous
 62
7
370
30
100
AcDbLine
 10
10.49542030378711
 20
36.14765029621989
 30
0.0
 11
10.49542030378711
 21
36.26765029621989
 31
0.0
  0
LINE
  5
AC57
330
9AAF
100
AcDbEntity
  8
0
  6
Continuous
 62
7
370
30
100
AcDbLine
 10
22.29542030378711
 20
36.14765029621989
 30
0.0
 11
22.29542030378711
 21
36.26765029621989
 31
0.0
  0
LINE
  5
AC58
330
9AAF
100
AcDbEntity
  8
0
  6
Continuous
 62
7
370
30
100
AcDbLine
 10
22.29542030378711
 20
17.94765029621986
 30
0.0
 11
23.36542030378712
 21
17.94765029621986
 31
0.0
  0
LINE
  5
AC59
330
9AAF
100
AcDbEntity
  8
0
  6
Continuous
 62
7
370
30
100
AcDbLine
 10
22.29542030378711
 20
17.82765029621986
 30
0.0
 11
23.36542030378712
 21
17.82765029621986
 31
0.0
  0
LINE
  5
AC5A
330
9AAF
100
AcDbEntity
  8
0
  6
Continuous
 62
7
370
30
100
AcDbLine
 10
10.49542030378711
 20
17.94765029621986
 30
0.0
 11
10.49542030378711
 21
17.82765029621986
 31
0.0
  0
LINE
  5
AC5B
330
9AAF
100
AcDbEntity
  8
0
  6
Continuous
 62
7
370
30
100
AcDbLine
 10
22.29542030378711
 20
17.94765029621986
 30
0.0
 11
22.29542030378711
 21
17.82765029621986
 31
0.0
  0
3DFACE
  5
AC5C
330
9AAF
100
AcDbEntity
  8
0
  6
Continuous
 62
7
370
0
100
AcDbFace
 10
10.49542030378711
 20
36.26765029621989
 30
0.0
 11
16.29542030378711
 21
36.26765029621989
 31
0.0
 12
16.29542030378711
 22
36.14765029621989
 32
0.0
 13
10.49542030378711
 23
36.14765029621989
 33
0.0
  0
3DFACE
  5
AC5D
330
9AAF
100
AcDbEntity
  8
0
  6
Continuous
 62
7
370
0
100
AcDbFace
 10
16.49542030378711
 20
36.14765029621989
 30
0.0
 11
22.29542030378711
 21
36.14765029621989
 31
0.0
 12
22.29542030378711
 22
36.26765029621989
 32
0.0
 13
16.49542030378711
 23
36.26765029621989
 33
0.0
  0
3DFACE
  5
AC5E
330
9AAF
100
AcDbEntity
  8
0
  6
Continuous
 62
7
370
0
100
AcDbFace
 10
10.49542030378711
 20
17.82765029621986
 30
0.0
 11
16.29542030378711
 21
17.82765029621986
 31
0.0
 12
16.29542030378711
 22
17.94765029621986
 32
0.0
 13
10.49542030378711
 23
17.94765029621986
 33
0.0
  0
3DFACE
  5
AC5F
330
9AAF
100
AcDbEntity
  8
0
  6
Continuous
 62
7
370
0
100
AcDbFace
 10
16.49542030378711
 20
17.94765029621986
 30
0.0
 11
22.29542030378711
 21
17.94765029621986
 31
0.0
 12
22.29542030378711
 22
17.82765029621986
 32
0.0
 13
16.49542030378711
 23
17.82765029621986
 33
0.0
  0
3DFACE
  5
AC60
330
9AAF
100
AcDbEntity
  8
0
  6
Continuous
 62
7
370
30
100
AcDbFace
 10
16.29542030378711
 20
17.94765029621986
 30
0.0
 11
16.49542030378711
 21
17.94765029621986
 31
0.0
 12
16.49542030378711
 22
17.82765029621986
 32
0.0
 13
16.29542030378711
 23
17.82765029621986
 33
0.0
  0
3DFACE
  5
AC61
330
9AAF
100
AcDbEntity
  8
0
  6
Continuous
 62
7
370
30
100
AcDbFace
 10
16.29542030378711
 20
36.26765029621989
 30
0.0
 11
16.49542030378711
 21
36.26765029621989
 31
0.0
 12
16.49542030378711
 22
36.14765029621989
 32
0.0
 13
16.29542030378711
 23
36.14765029621989
 33
0.0
  0
3DFACE
  5
AC62
330
9AAF
100
AcDbEntity
  8
0
  6
Continuous
 62
7
370
13
100
AcDbFace
 10
10.49542030378711
 20
36.26765029621989
 30
0.0
 11
10.49542030378711
 21
36.2176502962199
 31
0.0
 12
10.56542030378712
 22
36.2176502962199
 32
0.0
 13
10.56542030378712
 23
36.26765029621989
 33
0.0
  0
3DFACE
  5
AC63
330
9AAF
100
AcDbEntity
  8
0
  6
Continuous
 62
7
370
13
100
AcDbFace
 10
16.22542030378712
 20
36.26765029621989
 30
0.0
 11
16.22542030378712
 21
36.2176502962199
 31
0.0
 12
16.29542030378711
 22
36.2176502962199
 32
0.0
 13
16.29542030378711
 23
36.26765029621989
 33
0.0
  0
3DFACE
  5
AC64
330
9AAF
100
AcDbEntity
  8
0
  6
Continuous
 62
7
370
13
100
AcDbFace
 10
11.94542030378711
 20
36.26765029621989
 30
0.0
 11
11.94542030378711
 21
36.2176502962199
 31
0.0
 12
12.01542030378712
 22
36.2176502962199
 32
0.0
 13
12.01542030378712
 23
36.26765029621989
 33
0.0
  0
3DFACE
  5
AC65
330
9AAF
100
AcDbEntity
  8
0
  6
Continuous
 62
7
370
13
100
AcDbFace
 10
13.36042030378712
 20
36.26765029621989
 30
0.0
 11
13.36042030378712
 21
36.2176502962199
 31
0.0
 12
13.43042030378711
 22
36.2176502962199
 32
0.0
 13
13.43042030378711
 23
36.26765029621989
 33
0.0
  0
3DFACE
  5
AC66
330
9AAF
100
AcDbEntity
  8
0
  6
Continuous
 62
7
370
13
100
AcDbFace
 10
14.84542030378712
 20
36.26765029621989
 30
0.0
 11
14.84542030378712
 21
36.2176502962199
 31
0.0
 12
14.77542030378711
 22
36.2176502962199
 32
0.0
 13
14.77542030378711
 23
36.26765029621989
 33
0.0
  0
LINE
  5
AC67
330
9AAF
100
AcDbEntity
  8
0
  6
Continuous
 62
7
370
0
100
AcDbLine
 10
10.56542030378712
 20
36.2176502962199
 30
0.0
 11
16.22542030378712
 21
36.2176502962199
 31
0.0
  0
LINE
  5
AC68
330
9AAF
100
AcDbEntity
  8
0
  6
Continuous
 62
7
370
0
100
AcDbLine
 10
16.22542030378712
 20
36.2426502962199
 30
0.0
 11
14.84542030378712
 21
36.2426502962199
 31
0.0
  0
LINE
  5
AC69
330
9AAF
100
AcDbEntity
  8
0
  6
Continuous
 62
7
370
0
100
AcDbLine
 10
14.77542030378711
 20
36.2426502962199
 30
0.0
 11
13.43042030378711
 21
36.2426502962199
 31
0.0
  0
LINE
  5
AC6A
330
9AAF
100
AcDbEntity
  8
0
  6
Continuous
 62
7
370
0
100
AcDbLine
 10
13.36042030378712
 20
36.2426502962199
 30
0.0
 11
12.01542030378712
 21
36.2426502962199
 31
0.0
  0
LINE
  5
AC6B
330
9AAF
100
AcDbEntity
  8
0
  6
Continuous
 62
7
370
0
100
AcDbLine
 10
11.94542030378711
 20
36.2426502962199
 30
0.0
 11
10.56542030378712
 21
36.2426502962199
 31
0.0
  0
3DFACE
  5
AC6C
330
9AAF
100
AcDbEntity
  8
0
  6
Continuous
 62
7
370
13
100
AcDbFace
 10
22.29542030378711
 20
36.26765029621989
 30
0.0
 11
22.29542030378711
 21
36.2176502962199
 31
0.0
 12
22.22542030378712
 22
36.2176502962199
 32
0.0
 13
22.22542030378712
 23
36.26765029621989
 33
0.0
  0
3DFACE
  5
AC6D
330
9AAF
100
AcDbEntity
  8
0
  6
Continuous
 62
7
370
13
100
AcDbFace
 10
16.56542030378712
 20
36.26765029621989
 30
0.0
 11
16.56542030378712
 21
36.2176502962199
 31
0.0
 12
16.49542030378711
 22
36.2176502962199
 32
0.0
 13
16.49542030378711
 23
36.26765029621989
 33
0.0
  0
3DFACE
  5
AC6E
330
9AAF
100
AcDbEntity
  8
0
  6
Continuous
 62
7
370
13
100
AcDbFace
 10
20.84542030378712
 20
36.26765029621989
 30
0.0
 11
20.84542030378712
 21
36.2176502962199
 31
0.0
 12
20.77542030378712
 22
36.2176502962199
 32
0.0
 13
20.77542030378712
 23
36.26765029621989
 33
0.0
  0
3DFACE
  5
AC6F
330
9AAF
100
AcDbEntity
  8
0
  6
Continuous
 62
7
370
13
100
AcDbFace
 10
19.43042030378711
 20
36.26765029621989
 30
0.0
 11
19.43042030378711
 21
36.2176502962199
 31
0.0
 12
19.36042030378712
 22
36.2176502962199
 32
0.0
 13
19.36042030378712
 23
36.26765029621989
 33
0.0
  0
3DFACE
  5
AC70
330
9AAF
100
AcDbEntity
  8
0
  6
Continuous
 62
7
370
13
100
AcDbFace
 10
17.94542030378712
 20
36.26765029621989
 30
0.0
 11
17.94542030378712
 21
36.2176502962199
 31
0.0
 12
18.01542030378712
 22
36.2176502962199
 32
0.0
 13
18.01542030378712
 23
36.26765029621989
 33
0.0
  0
LINE
  5
AC71
330
9AAF
100
AcDbEntity
  8
0
  6
Continuous
 62
7
370
0
100
AcDbLine
 10
22.22542030378712
 20
36.2176502962199
 30
0.0
 11
16.56542030378712
 21
36.2176502962199
 31
0.0
  0
LINE
  5
AC72
330
9AAF
100
AcDbEntity
  8
0
  6
Continuous
 62
7
370
0
100
AcDbLine
 10
16.56542030378712
 20
36.2426502962199
 30
0.0
 11
17.94542030378712
 21
36.2426502962199
 31
0.0
  0
LINE
  5
AC73
330
9AAF
100
AcDbEntity
  8
0
  6
Continuous
 62
7
370
0
100
AcDbLine
 10
18.01542030378712
 20
36.2426502962199
 30
0.0
 11
19.36042030378712
 21
36.2426502962199
 31
0.0
  0
LINE
  5
AC74
330
9AAF
100
AcDbEntity
  8
0
  6
Continuous
 62
7
370
0
100
AcDbLine
 10
19.43042030378711
 20
36.2426502962199
 30
0.0
 11
20.77542030378712
 21
36.2426502962199
 31
0.0
  0
LINE
  5
AC75
330
9AAF
100
AcDbEntity
  8
0
  6
Continuous
 62
7
370
0
100
AcDbLine
 10
20.84542030378712
 20
36.2426502962199
 30
0.0
 11
22.22542030378712
 21
36.2426502962199
 31
0.0
  0
LINE
  5
AC76
330
9AAF
100
AcDbEntity
  8
0
  6
Continuous
 62
7
370
0
100
AcDbLine
 10
16.22542030378712
 20
17.85265029621983
 30
0.0
 11
14.84542030378712
 21
17.85265029621983
 31
0.0
  0
LINE
  5
AC77
330
9AAF
100
AcDbEntity
  8
0
  6
Continuous
 62
7
370
0
100
AcDbLine
 10
10.56542030378712
 20
17.87765029621984
 30
0.0
 11
16.22542030378712
 21
17.87765029621984
 31
0.0
  0
3DFACE
  5
AC78
330
9AAF
100
AcDbEntity
  8
0
  6
Continuous
 62
7
370
13
100
AcDbFace
 10
16.22542030378712
 20
17.82765029621984
 30
0.0
 11
16.22542030378712
 21
17.87765029621984
 31
0.0
 12
16.29542030378711
 22
17.87765029621984
 32
0.0
 13
16.29542030378711
 23
17.82765029621984
 33
0.0
  0
3DFACE
  5
AC79
330
9AAF
100
AcDbEntity
  8
0
  6
Continuous
 62
7
370
13
100
AcDbFace
 10
10.49542030378711
 20
17.82765029621984
 30
0.0
 11
10.49542030378711
 21
17.87765029621984
 31
0.0
 12
10.56542030378712
 22
17.87765029621984
 32
0.0
 13
10.56542030378712
 23
17.82765029621984
 33
0.0
  0
3DFACE
  5
AC7A
330
9AAF
100
AcDbEntity
  8
0
  6
Continuous
 62
7
370
13
100
AcDbFace
 10
11.94542030378711
 20
17.82765029621984
 30
0.0
 11
11.94542030378711
 21
17.87765029621984
 31
0.0
 12
12.01542030378712
 22
17.87765029621984
 32
0.0
 13
12.01542030378712
 23
17.82765029621984
 33
0.0
  0
3DFACE
  5
AC7B
330
9AAF
100
AcDbEntity
  8
0
  6
Continuous
 62
7
370
13
100
AcDbFace
 10
13.36042030378712
 20
17.82765029621984
 30
0.0
 11
13.36042030378712
 21
17.87765029621984
 31
0.0
 12
13.43042030378711
 22
17.87765029621984
 32
0.0
 13
13.43042030378711
 23
17.82765029621984
 33
0.0
  0
3DFACE
  5
AC7C
330
9AAF
100
AcDbEntity
  8
0
  6
Continuous
 62
7
370
13
100
AcDbFace
 10
14.84542030378712
 20
17.82765029621984
 30
0.0
 11
14.84542030378712
 21
17.87765029621984
 31
0.0
 12
14.77542030378711
 22
17.87765029621984
 32
0.0
 13
14.77542030378711
 23
17.82765029621984
 33
0.0
  0
LINE
  5
AC7D
330
9AAF
100
AcDbEntity
  8
0
  6
Continuous
 62
7
370
0
100
AcDbLine
 10
14.77542030378711
 20
17.85265029621983
 30
0.0
 11
13.43042030378711
 21
17.85265029621983
 31
0.0
  0
LINE
  5
AC7E
330
9AAF
100
AcDbEntity
  8
0
  6
Continuous
 62
7
370
0
100
AcDbLine
 10
13.36042030378712
 20
17.85265029621983
 30
0.0
 11
12.01542030378712
 21
17.85265029621983
 31
0.0
  0
LINE
  5
AC7F
330
9AAF
100
AcDbEntity
  8
0
  6
Continuous
 62
7
370
0
100
AcDbLine
 10
11.94542030378711
 20
17.85265029621983
 30
0.0
 11
10.56542030378712
 21
17.85265029621983
 31
0.0
  0
3DFACE
  5
AC80
330
9AAF
100
AcDbEntity
  8
0
  6
Continuous
 62
7
370
13
100
AcDbFace
 10
16.56542030378712
 20
17.82765029621984
 30
0.0
 11
16.56542030378712
 21
17.87765029621984
 31
0.0
 12
16.49542030378711
 22
17.87765029621984
 32
0.0
 13
16.49542030378711
 23
17.82765029621984
 33
0.0
  0
LINE
  5
AC81
330
9AAF
100
AcDbEntity
  8
0
  6
Continuous
 62
7
370
0
100
AcDbLine
 10
22.22542030378712
 20
17.87765029621984
 30
0.0
 11
16.56542030378712
 21
17.87765029621984
 31
0.0
  0
LINE
  5
AC82
330
9AAF
100
AcDbEntity
  8
0
  6
Continuous
 62
7
370
0
100
AcDbLine
 10
16.56542030378712
 20
17.85265029621983
 30
0.0
 11
17.94542030378712
 21
17.85265029621983
 31
0.0
  0
3DFACE
  5
AC83
330
9AAF
100
AcDbEntity
  8
0
  6
Continuous
 62
7
370
13
100
AcDbFace
 10
19.43042030378711
 20
17.82765029621984
 30
0.0
 11
19.43042030378711
 21
17.87765029621984
 31
0.0
 12
19.36042030378712
 22
17.87765029621984
 32
0.0
 13
19.36042030378712
 23
17.82765029621984
 33
0.0
  0
3DFACE
  5
AC84
330
9AAF
100
AcDbEntity
  8
0
  6
Continuous
 62
7
370
13
100
AcDbFace
 10
17.94542030378712
 20
17.82765029621984
 30
0.0
 11
17.94542030378712
 21
17.87765029621984
 31
0.0
 12
18.01542030378712
 22
17.87765029621984
 32
0.0
 13
18.01542030378712
 23
17.82765029621984
 33
0.0
  0
LINE
  5
AC85
330
9AAF
100
AcDbEntity
  8
0
  6
Continuous
 62
7
370
0
100
AcDbLine
 10
18.01542030378712
 20
17.85265029621983
 30
0.0
 11
19.36042030378712
 21
17.85265029621983
 31
0.0
  0
LINE
  5
AC86
330
9AAF
100
AcDbEntity
  8
0
  6
Continuous
 62
7
370
0
100
AcDbLine
 10
19.43042030378711
 20
17.85265029621983
 30
0.0
 11
20.77542030378712
 21
17.85265029621983
 31
0.0
  0
3DFACE
  5
AC87
330
9AAF
100
AcDbEntity
  8
0
  6
Continuous
 62
7
370
13
100
AcDbFace
 10
22.29542030378711
 20
17.82765029621984
 30
0.0
 11
22.29542030378711
 21
17.87765029621984
 31
0.0
 12
22.22542030378712
 22
17.87765029621984
 32
0.0
 13
22.22542030378712
 23
17.82765029621984
 33
0.0
  0
LINE
  5
AC88
330
9AAF
100
AcDbEntity
  8
0
  6
Continuous
 62
7
370
0
100
AcDbLine
 10
20.84542030378712
 20
17.85265029621983
 30
0.0
 11
22.22542030378712
 21
17.85265029621983
 31
0.0
  0
3DFACE
  5
AC89
330
9AAF
100
AcDbEntity
  8
0
  6
Continuous
 62
7
370
13
100
AcDbFace
 10
20.84542030378712
 20
17.82765029621984
 30
0.0
 11
20.84542030378712
 21
17.87765029621984
 31
0.0
 12
20.77542030378712
 22
17.87765029621984
 32
0.0
 13
20.77542030378712
 23
17.82765029621984
 33
0.0
  0
3DFACE
  5
AC8A
330
9AAF
100
AcDbEntity
  8
0
  6
Continuous
 62
7
370
30
100
AcDbFace
 10
24.86542030378712
 20
18.04765029621986
 30
0.0
 11
24.96542030378711
 21
18.04765029621986
 31
0.0
 12
24.96542030378711
 22
17.94765029621986
 32
0.0
 13
24.86542030378712
 23
17.94765029621986
 33
0.0
  0
3DFACE
  5
AC8B
330
9AAF
100
AcDbEntity
  8
0
  6
Continuous
 62
7
370
30
100
AcDbFace
 10
23.26542030378712
 20
18.04765029621986
 30
0.0
 11
23.36542030378712
 21
18.04765029621986
 31
0.0
 12
23.36542030378712
 22
17.94765029621986
 32
0.0
 13
23.26542030378712
 23
17.94765029621986
 33
0.0
  0
3DFACE
  5
AC8C
330
9AAF
100
AcDbEntity
  8
0
  6
Continuous
 62
7
370
30
100
AcDbFace
 10
4.295420303787111
 20
35.5176502962199
 30
0.0
 11
4.395420303787117
 21
35.5176502962199
 31
0.0
 12
4.395420303787117
 22
35.4176502962199
 32
0.0
 13
4.295420303787111
 23
35.4176502962199
 33
0.0
  0
3DFACE
  5
AC8D
330
9AAF
100
AcDbEntity
  8
0
  6
Continuous
 62
7
370
30
100
AcDbFace
 10
4.295420303787111
 20
33.91765029621991
 30
0.0
 11
4.395420303787117
 21
33.91765029621991
 31
0.0
 12
4.395420303787117
 22
33.8176502962199
 32
0.0
 13
4.295420303787111
 23
33.8176502962199
 33
0.0
  0
LINE
  5
AC8E
330
9AAF
100
AcDbEntity
  8
0
  6
Continuous
 62
7
370
30
100
AcDbLine
 10
23.36542030378712
 20
17.94765029621986
 30
0.0
 11
23.36542030378712
 21
17.82765029621986
 31
0.0
  0
LINE
  5
AC8F
330
9AAF
100
AcDbEntity
  8
0
  6
Continuous
 62
7
370
30
100
AcDbLine
 10
24.86542030378712
 20
17.94765029621986
 30
0.0
 11
24.86542030378712
 21
17.82765029621986
 31
0.0
  0
LINE
  5
AC90
330
9AAF
100
AcDbEntity
  8
0
  6
Continuous
 62
7
370
13
100
AcDbLine
 10
26.49542030378711
 20
36.14765029621989
 30
0.0
 11
26.49542030378711
 21
30.24765029621986
 31
0.0
  0
LINE
  5
AC91
330
9AAF
100
AcDbEntity
  8
0
  6
Continuous
 62
7
370
0
100
AcDbLine
 10
26.26542030378713
 20
17.82765029621986
 30
0.0
 11
26.26542030378713
 21
15.02765029621986
 31
0.0
  0
LINE
  5
AC92
330
9AAF
100
AcDbEntity
  8
0
  6
Continuous
 62
7
370
0
100
AcDbLine
 10
21.76542030378712
 20
17.82765029621986
 30
0.0
 11
21.76542030378712
 21
15.02765029621986
 31
0.0
  0
LINE
  5
AC93
330
9AAF
100
AcDbEntity
  8
0
  6
Continuous
 62
7
370
0
100
AcDbLine
 10
21.76542030378712
 20
15.32765029621986
 30
0.0
 11
26.26542030378713
 21
15.32765029621986
 31
0.0
  0
LINE
  5
AC94
330
9AAF
100
AcDbEntity
  8
0
  6
Continuous
 62
7
370
0
100
AcDbLine
 10
21.76542030378712
 20
15.02765029621986
 30
0.0
 11
26.26542030378713
 21
15.02765029621986
 31
0.0
  0
LINE
  5
AC95
330
9AAF
100
AcDbEntity
  8
0
  6
Continuous
 62
7
370
0
100
AcDbLine
 10
3.375420303787123
 20
17.02765029621986
 30
0.0
 11
21.76542030378712
 21
17.02765029621986
 31
0.0
  0
LINE
  5
AC96
330
9AAF
100
AcDbEntity
  8
0
  6
Continuous
 62
7
370
0
100
AcDbLine
 10
3.375420303787123
 20
32.26765029621989
 30
0.0
 11
3.375420303787123
 21
17.02765029621986
 31
0.0
  0
LINE
  5
AC98
330
9AAF
100
AcDbEntity
  8
0
  6
Continuous
 62
7
370
0
100
AcDbLine
 10
2.57542030378711
 20
36.26765029621989
 30
0.0
 11
2.57542030378711
 21
37.06765029621988
 31
0.0
  0
3DFACE
  5
AC99
330
9AAF
100
AcDbEntity
  8
0
  6
Continuous
 62
7
370
13
100
AcDbFace
 10
23.43542030378711
 20
17.82765029621986
 30
0.0
 11
23.43542030378711
 21
17.87765029621985
 31
0.0
 12
23.36542030378712
 22
17.87765029621985
 32
0.0
 13
23.36542030378712
 23
17.82765029621986
 33
0.0
  0
3DFACE
  5
AC9A
330
9AAF
100
AcDbEntity
  8
0
  6
Continuous
 62
7
370
13
100
AcDbFace
 10
24.86542030378712
 20
17.82765029621986
 30
0.0
 11
24.86542030378712
 21
17.87765029621985
 31
0.0
 12
24.79542030378711
 22
17.87765029621985
 32
0.0
 13
24.79542030378711
 23
17.82765029621986
 33
0.0
  0
LINE
  5
AC9B
330
9AAF
100
AcDbEntity
  8
0
  6
Continuous
 62
7
370
13
100
AcDbLine
 10
23.43542030378711
 20
17.82765029621986
 30
0.0
 11
24.07282717923351
 21
17.19024342077351
 31
0.0
  0
LINE
  5
AC9C
330
9AAF
100
AcDbEntity
  8
0
  6
Continuous
 62
7
370
13
100
AcDbLine
 10
24.79542030378711
 20
17.82765029621986
 30
0.0
 11
24.47116195681977
 21
17.50339194925256
 31
0.0
  0
ARC
  5
AC9D
330
9AAF
100
AcDbEntity
  8
0
  6
Continuous
 62
7
370
0
100
AcDbCircle
 10
23.43542030378711
 20
17.82765029621986
 30
0.0
 40
0.9014294480061154
100
AcDbArc
 50
315.0000000000017
 51
0.0
  0
ARC
  5
AC9E
330
9AAF
100
AcDbEntity
  8
0
  6
Continuous
 62
7
370
0
100
AcDbCircle
 10
24.79542030378711
 20
17.82765029621986
 30
0.0
 40
0.4585705519938843
100
AcDbArc
 50
180.0
 51
224.9999999999983
  0
LINE
  5
AC9F
330
9AAF
100
AcDbEntity
  8
0
  6
Continuous
 62
7
370
0
100
AcDbLine
 10
23.43542030378711
 20
17.82765029621986
 30
0.0
 11
24.79542030378711
 21
17.82765029621986
 31
0.0
  0
LINE
  5
ACA0
330
9AAF
100
AcDbEntity
  8
0
  6
Continuous
 62
7
370
13
100
AcDbLine
 10
26.64542030378712
 20
36.14765029621989
 30
0.0
 11
26.64542030378712
 21
30.24765029621986
 31
0.0
  0
LWPOLYLINE
  5
ACA1
330
9AAF
100
AcDbEntity
  8
0
  6
Continuous
 62
7
370
0
100
AcDbPolyline
 90
4
 70
128
 10
4.175420303787118
 20
36.26765029621989
 10
2.57542030378711
 20
36.26765029621989
 10
2.57542030378711
 20
32.26765029621989
 10
4.175420303787118
 20
32.26765029621989
  0
LINE
  5
ACA2
330
9AAF
100
AcDbEntity
  8
0
  6
Continuous
 62
7
370
0
100
AcDbLine
 10
4.175420303787118
 20
35.3476502962199
 30
0.0
 11
4.175420303787118
 21
33.9876502962199
 31
0.0
  0
INSERT
  5
ACA3
330
9AAF
100
AcDbEntity
  8
0
  6
Continuous
 62
7
370
13
100
AcDbBlockReference
  2
*U2
 10
3.917612796907787
 20
34.6676351915432
 30
0.0
  0
LINE
  5
ACB2
330
9AAF
100
AcDbEntity
  8
0
  6
Continuous
 62
7
370
13
100
AcDbLine
 10
26.49542030378711
 20
30.24765029621986
 30
0.0
 11
26.49542030378711
 21
17.94765029621986
 31
0.0
  0
LINE
  5
ACB3
330
9AAF
100
AcDbEntity
  8
0
  6
Continuous
 62
7
370
13
100
AcDbLine
 10
26.64542030378712
 20
30.24765029621986
 30
0.0
 11
26.64542030378712
 21
17.9476502962199
 31
0.0
  0
CIRCLE
  5
ACB4
330
9AAF
100
AcDbEntity
  8
0
  6
Continuous
 62
7
370
13
100
AcDbCircle
 10
1.090582030652979
 20
18.04765029621986
 30
0.0
 40
0.2633554446314986
  0
CIRCLE
  5
ACB6
330
9AAF
100
AcDbEntity
  8
0
  6
Continuous
 62
7
370
13
100
AcDbCircle
 10
1.090582030652979
 20
24.04765029621986
 30
0.0
 40
0.2633554446314986
  0
CIRCLE
  5
ACB8
330
9AAF
100
AcDbEntity
  8
0
  6
Continuous
 62
7
370
13
100
AcDbCircle
 10
1.090582030652979
 20
30.04765029621986
 30
0.0
 40
0.2633554446314986
  0
CIRCLE
  5
ACBA
330
9AAF
100
AcDbEntity
  8
0
  6
Continuous
 62
7
370
13
100
AcDbCircle
 10
1.090582030652979
 20
36.04765029621986
 30
0.0
 40
0.2633554446314986
  0
CIRCLE
  5
ACBC
330
9AAF
100
AcDbEntity
  8
0
  6
Continuous
 62
7
370
13
100
AcDbCircle
 10
4.395420303787117
 20
13.88262155540427
 30
0.0
 40
0.2633554446314986
  0
CIRCLE
  5
ACBD
330
9AAF
100
AcDbEntity
  8
0
  6
Continuous
 62
7
370
13
100
AcDbCircle
 10
10.39542030378712
 20
13.88262155540427
 30
0.0
 40
0.2633554446314986
  0
CIRCLE
  5
ACBE
330
9AAF
100
AcDbEntity
  8
0
  6
Continuous
 62
7
370
13
100
AcDbCircle
 10
16.39542030378712
 20
13.88262155540427
 30
0.0
 40
0.2633554446314986
  0
CIRCLE
  5
ACBF
330
9AAF
100
AcDbEntity
  8
0
  6
Continuous
 62
7
370
13
100
AcDbCircle
 10
22.39542030378713
 20
13.88262155540427
 30
0.0
 40
0.2633554446314986
  0
LINE
  5
ACC4
330
9AAF
100
AcDbEntity
  8
0
  6
Continuous
 62
7
370
0
100
AcDbLine
 10
27.46991386138976
 20
37.4702525904849
 30
0.0
 11
27.46991386138976
 21
27.03486300169811
 31
0.0
  0
LWPOLYLINE
  5
ACC5
330
9AAF
100
AcDbEntity
  8
0
  6
Continuous
 62
7
370
0
100
AcDbPolyline
 90
4
 70
128
 10
27.46991386138976
 20
27.03486300169811
 10
27.79266844095805
 20
26.949101192119
 10
27.14184621413401
 20
26.59776226359497
 10
27.46991386138977
 20
26.51895117777272
  0
LINE
  5
ACC6
330
9AAF
100
AcDbEntity
  8
0
  6
Continuous
 62
7
370
0
100
AcDbLine
 10
27.46991386138976
 20
26.51895117777272
 30
0.0
 11
27.46991386138976
 21
15.96758668106739
 31
0.0
  0
LINE
  5
ACC7
330
9AAF
100
AcDbEntity
  8
0
  6
( Dashdot )
 62
1
370
0
100
AcDbLine
 10
27.46991386138976
 20
36.04765029621986
 30
0.0
 11
1.353937475284481
 21
36.04765029621986
 31
0.0
  0
LINE
  5
ACC8
330
9AAF
100
AcDbEntity
  8
0
  6
Continuous
 62
7
370
30
100
AcDbLine
 10
22.29542030378711
 20
36.26765029621989
 30
0.0
 11
23.36542030378712
 21
36.26765029621989
 31
0.0
  0
LINE
  5
ACC9
330
9AAF
100
AcDbEntity
  8
0
  6
Continuous
 62
7
370
30
100
AcDbLine
 10
22.29542030378711
 20
36.14765029621989
 30
0.0
 11
23.36542030378712
 21
36.14765029621989
 31
0.0
  0
LINE
  5
ACCA
330
9AAF
100
AcDbEntity
  8
0
  6
Continuous
 62
7
370
0
100
AcDbLine
 10
2.57542030378711
 20
37.06765029621988
 30
0.0
 11
27.46991386138976
 21
37.06765029621988
 31
0.0
  0
LINE
  5
ACCB
330
9AAF
100
AcDbEntity
  8
0
  6
( Dashdot )
 62
1
370
0
100
AcDbLine
 10
27.46991386138976
 20
24.04765029621986
 30
0.0
 11
1.353937475284481
 21
24.04765029621986
 31
0.0
  0
LINE
  5
ACCC
330
9AAF
100
AcDbEntity
  8
0
  6
( Dashdot )
 62
1
370
0
100
AcDbLine
 10
27.46991386138976
 20
18.04765029621986
 30
0.0
 11
1.353937475284481
 21
18.04765029621986
 31
0.0
  0
LINE
  5
ACCD
330
9AAF
100
AcDbEntity
  8
0
  6
Continuous
 62
7
370
30
100
AcDbLine
 10
24.86542030378712
 20
17.94765029621986
 30
0.0
 11
27.46991386138976
 21
17.94765029621986
 31
0.0
  0
LINE
  5
ACCE
330
9AAF
100
AcDbEntity
  8
0
  6
Continuous
 62
7
370
30
100
AcDbLine
 10
24.86542030378712
 20
17.82765029621986
 30
0.0
 11
27.46991386138976
 21
17.82765029621986
 31
0.0
  0
LINE
  5
ACCF
330
9AAF
100
AcDbEntity
  8
0
  6
Continuous
 62
7
370
0
100
AcDbLine
 10
26.26542030378713
 20
17.02765029621986
 30
0.0
 11
27.46991386138976
 21
17.02765029621986
 31
0.0
  0
LINE
  5
ACD0
330
9AAF
100
AcDbEntity
  8
0
  6
( Dashdot )
 62
1
370
0
100
AcDbLine
 10
27.46991386138976
 20
30.04765029621986
 30
0.0
 11
1.353937475284481
 21
30.04765029621986
 31
0.0
  0
3DFACE
  5
AD1A
330
9AAF
100
AcDbEntity
  8
0
  6
Continuous
 62
7
370
30
100
AcDbFace
 10
24.86542030378712
 20
36.04765029621987
 30
0.0
 11
24.96542030378711
 21
36.04765029621987
 31
0.0
 12
24.96542030378711
 22
36.14765029621989
 32
0.0
 13
24.86542030378712
 23
36.14765029621989
 33
0.0
  0
3DFACE
  5
AD1B
330
9AAF
100
AcDbEntity
  8
0
  6
Continuous
 62
7
370
30
100
AcDbFace
 10
23.26542030378712
 20
36.04765029621987
 30
0.0
 11
23.36542030378712
 21
36.04765029621987
 31
0.0
 12
23.36542030378712
 22
36.14765029621989
 32
0.0
 13
23.26542030378712
 23
36.14765029621989
 33
0.0
  0
LINE
  5
AD1C
330
9AAF
100
AcDbEntity
  8
0
  6
Continuous
 62
7
370
30
100
AcDbLine
 10
23.36542030378712
 20
36.14765029621989
 30
0.0
 11
23.36542030378712
 21
36.26765029621987
 31
0.0
  0
LINE
  5
AD1D
330
9AAF
100
AcDbEntity
  8
0
  6
Continuous
 62
7
370
30
100
AcDbLine
 10
24.86542030378712
 20
36.14765029621989
 30
0.0
 11
24.86542030378712
 21
36.26765029621987
 31
0.0
  0
3DFACE
  5
AD1E
330
9AAF
100
AcDbEntity
  8
0
  6
Continuous
 62
7
370
13
100
AcDbFace
 10
23.43542030378711
 20
36.26765029621987
 30
0.0
 11
23.43542030378711
 21
36.21765029621986
 31
0.0
 12
23.36542030378712
 22
36.21765029621986
 32
0.0
 13
23.36542030378712
 23
36.26765029621987
 33
0.0
  0
3DFACE
  5
AD1F
330
9AAF
100
AcDbEntity
  8
0
  6
Continuous
 62
7
370
13
100
AcDbFace
 10
24.86542030378712
 20
36.26765029621987
 30
0.0
 11
24.86542030378712
 21
36.21765029621986
 31
0.0
 12
24.79542030378711
 22
36.21765029621986
 32
0.0
 13
24.79542030378711
 23
36.26765029621987
 33
0.0
  0
LINE
  5
AD20
330
9AAF
100
AcDbEntity
  8
0
  6
Continuous
 62
7
370
13
100
AcDbLine
 10
23.43542030378711
 20
36.26765029621987
 30
0.0
 11
24.07282717923351
 21
36.90505717166622
 31
0.0
  0
LINE
  5
AD21
330
9AAF
100
AcDbEntity
  8
0
  6
Continuous
 62
7
370
13
100
AcDbLine
 10
24.79542030378711
 20
36.26765029621987
 30
0.0
 11
24.47116195681977
 21
36.59190864318718
 31
0.0
  0
ARC
  5
AD22
330
9AAF
100
AcDbEntity
  8
0
  6
Continuous
 62
7
370
0
100
AcDbCircle
 10
-23.43542030378711
 20
36.26765029621987
 30
0.0
 40
0.9014294480061154
210
0.0
220
0.0
230
-1.0
100
AcDbArc
 50
135.0000000000017
 51
180.0
  0
ARC
  5
AD23
330
9AAF
100
AcDbEntity
  8
0
  6
Continuous
 62
7
370
0
100
AcDbCircle
 10
-24.79542030378711
 20
36.26765029621987
 30
0.0
 40
0.4585705519938843
210
0.0
220
0.0
230
-1.0
100
AcDbArc
 50
0.0
 51
44.99999999999827
  0
LINE
  5
AD24
330
9AAF
100
AcDbEntity
  8
0
  6
Continuous
 62
7
370
0
100
AcDbLine
 10
23.43542030378711
 20
36.26765029621987
 30
0.0
 11
24.79542030378711
 21
36.26765029621987
 31
0.0
  0
LINE
  5
AD25
330
9AAF
100
AcDbEntity
  8
0
  6
Continuous
 62
7
370
30
100
AcDbLine
 10
24.86542030378712
 20
36.26765029621989
 30
0.0
 11
27.46991386138976
 21
36.26765029621989
 31
0.0
  0
LINE
  5
AD26
330
9AAF
100
AcDbEntity
  8
0
  6
Continuous
 62
7
370
30
100
AcDbLine
 10
24.86542030378712
 20
36.14765029621989
 30
0.0
 11
27.46991386138976
 21
36.14765029621989
 31
0.0
  0
LINE
  5
AD2D
330
9AAF
100
AcDbEntity
  8
0
  6
Continuous
 62
7
370
13
100
AcDbLine
 10
10.29542030378711
 20
35.94765029621989
 30
0.0
 11
10.29542030378711
 21
35.4176502962199
 31
0.0
  0
LINE
  5
AD2E
330
9AAF
100
AcDbEntity
  8
0
  6
Continuous
 62
7
370
13
100
AcDbLine
 10
4.295420303787111
 20
32.04765029621986
 30
0.0
 11
8.39542030378713
 21
32.04765029621986
 31
0.0
  0
LINE
  5
AD2F
330
9AAF
100
AcDbEntity
  8
0
  6
Continuous
 62
7
370
13
100
AcDbLine
 10
10.29542030378711
 20
31.84765029621991
 30
0.0
 11
10.29542030378711
 21
24.94765029621991
 31
0.0
  0
LINE
  5
AD30
330
9AAF
100
AcDbEntity
  8
0
  6
Continuous
 62
7
370
13
100
AcDbLine
 10
8.295420303787097
 20
31.84765029621991
 30
0.0
 11
8.39542030378713
 21
31.84765029621991
 31
0.0
  0
LINE
  5
AD31
330
9AAF
100
AcDbEntity
  8
0
  6
Continuous
 62
7
370
13
100
AcDbLine
 10
4.295420303787111
 20
31.84765029621991
 30
0.0
 11
8.095420303787122
 21
31.84765029621991
 31
0.0
  0
LINE
  5
AD32
330
9AAF
100
AcDbEntity
  8
0
  6
Continuous
 62
7
370
13
100
AcDbLine
 10
8.095420303787122
 20
31.84765029621991
 30
0.0
 11
8.095420303787122
 21
31.34765029621991
 31
0.0
  0
LINE
  5
AD33
330
9AAF
100
AcDbEntity
  8
0
  6
Continuous
 62
7
370
13
100
AcDbLine
 10
8.295420303787097
 20
31.84765029621991
 30
0.0
 11
8.295420303787097
 21
31.34765029621991
 31
0.0
  0
LINE
  5
AD34
330
9AAF
100
AcDbEntity
  8
0
  6
Continuous
 62
7
370
13
100
AcDbLine
 10
10.4954203037871
 20
35.94765029621989
 30
0.0
 11
10.4954203037871
 21
35.4176502962199
 31
0.0
  0
LINE
  5
AD35
330
9AAF
100
AcDbEntity
  8
0
  6
Continuous
 62
7
370
13
100
AcDbLine
 10
4.295420303787111
 20
24.7476502962199
 30
0.0
 11
8.795420303787111
 21
24.7476502962199
 31
0.0
  0
LINE
  5
AD36
330
9AAF
100
AcDbEntity
  8
0
  6
Continuous
 62
7
370
13
100
AcDbLine
 10
8.295420303787097
 20
24.94765029621991
 30
0.0
 11
8.795420303787111
 21
24.94765029621991
 31
0.0
  0
LINE
  5
AD37
330
9AAF
100
AcDbEntity
  8
0
  6
Continuous
 62
7
370
13
100
AcDbLine
 10
8.095420303787122
 20
25.94765029621991
 30
0.0
 11
8.095420303787122
 21
24.94765029621991
 31
0.0
  0
LINE
  5
AD38
330
9AAF
100
AcDbEntity
  8
0
  6
Continuous
 62
7
370
13
100
AcDbLine
 10
4.295420303787111
 20
27.04765029621986
 30
0.0
 11
8.095420303787122
 21
27.04765029621986
 31
0.0
  0
LINE
  5
AD39
330
9AAF
100
AcDbEntity
  8
0
  6
Continuous
 62
7
370
13
100
AcDbLine
 10
4.295420303787111
 20
26.84765029621991
 30
0.0
 11
8.295420303787097
 21
26.84765029621991
 31
0.0
  0
LINE
  5
AD3A
330
9AAF
100
AcDbEntity
  8
0
  6
Continuous
 62
7
370
13
100
AcDbLine
 10
5.695420303787115
 20
26.04765029621991
 30
0.0
 11
5.695420303787115
 21
24.94765029621991
 31
0.0
  0
LINE
  5
AD3B
330
9AAF
100
AcDbEntity
  8
0
  6
Continuous
 62
7
370
13
100
AcDbLine
 10
5.895420303787091
 20
26.04765029621991
 30
0.0
 11
5.895420303787091
 21
24.94765029621991
 31
0.0
  0
LINE
  5
AD3C
330
9AAF
100
AcDbEntity
  8
0
  6
Continuous
 62
7
370
13
100
AcDbLine
 10
5.895420303787091
 20
24.94765029621991
 30
0.0
 11
8.095420303787122
 21
24.94765029621991
 31
0.0
  0
LINE
  5
AD3D
330
9AAF
100
AcDbEntity
  8
0
  6
Continuous
 62
7
370
13
100
AcDbLine
 10
4.295420303787111
 20
24.94765029621991
 30
0.0
 11
5.695420303787115
 21
24.94765029621991
 31
0.0
  0
LINE
  5
AD3E
330
9AAF
100
AcDbEntity
  8
0
  6
Continuous
 62
7
370
13
100
AcDbLine
 10
4.295420303787111
 20
21.9476502962199
 30
0.0
 11
10.29542030378711
 21
21.9476502962199
 31
0.0
  0
LINE
  5
AD3F
330
9AAF
100
AcDbEntity
  8
0
  6
Continuous
 62
7
370
13
100
AcDbLine
 10
4.295420303787111
 20
21.7476502962199
 30
0.0
 11
10.4954203037871
 21
21.7476502962199
 31
0.0
  0
LINE
  5
AD40
330
9AAF
100
AcDbEntity
  8
0
  6
Continuous
 62
7
370
13
100
AcDbLine
 10
10.29542030378711
 20
24.7476502962199
 30
0.0
 11
10.29542030378711
 21
21.9476502962199
 31
0.0
  0
LINE
  5
AD41
330
9AAF
100
AcDbEntity
  8
0
  6
Continuous
 62
7
370
13
100
AcDbLine
 10
9.795420303787113
 20
24.94765029621991
 30
0.0
 11
9.795420303787113
 21
24.7476502962199
 31
0.0
  0
LINE
  5
AD42
330
9AAF
100
AcDbEntity
  8
0
  6
Continuous
 62
7
370
13
100
AcDbLine
 10
8.795420303787111
 20
24.94765029621991
 30
0.0
 11
8.795420303787111
 21
24.7476502962199
 31
0.0
  0
LINE
  5
AD43
330
9AAF
100
AcDbEntity
  8
0
  6
Continuous
 62
7
370
13
100
AcDbLine
 10
9.795420303787113
 20
24.94765029621991
 30
0.0
 11
10.29542030378711
 21
24.94765029621991
 31
0.0
  0
LINE
  5
AD44
330
9AAF
100
AcDbEntity
  8
0
  6
Continuous
 62
7
370
13
100
AcDbLine
 10
9.795420303787113
 20
24.7476502962199
 30
0.0
 11
10.29542030378711
 21
24.7476502962199
 31
0.0
  0
LINE
  5
AD45
330
9AAF
100
AcDbEntity
  8
0
  6
Continuous
 62
7
370
13
100
AcDbLine
 10
8.095420303787122
 20
31.34765029621991
 30
0.0
 11
8.295420303787097
 21
31.34765029621991
 31
0.0
  0
LINE
  5
AD46
330
9AAF
100
AcDbEntity
  8
0
  6
Continuous
 62
7
370
13
100
AcDbLine
 10
8.095420303787122
 20
30.34765029621991
 30
0.0
 11
8.295420303787097
 21
30.34765029621991
 31
0.0
  0
LINE
  5
AD47
330
9AAF
100
AcDbEntity
  8
0
  6
Continuous
 62
7
370
13
100
AcDbLine
 10
8.095420303787122
 20
30.34765029621991
 30
0.0
 11
8.095420303787122
 21
27.04765029621986
 31
0.0
  0
LINE
  5
AD48
330
9AAF
100
AcDbEntity
  8
0
  6
Continuous
 62
7
370
13
100
AcDbLine
 10
8.295420303787097
 20
30.34765029621991
 30
0.0
 11
8.295420303787097
 21
26.84765029621991
 31
0.0
  0
LINE
  5
AD49
330
9AAF
100
AcDbEntity
  8
0
  6
Continuous
 62
7
370
13
100
AcDbLine
 10
10.29542030378711
 20
35.4176502962199
 30
0.0
 11
10.4954203037871
 21
35.4176502962199
 31
0.0
  0
LINE
  5
AD4A
330
9AAF
100
AcDbEntity
  8
0
  6
Continuous
 62
7
370
13
100
AcDbLine
 10
22.49542030378711
 20
19.84765029621987
 30
0.0
 11
23.62542030378712
 21
19.84765029621987
 31
0.0
  0
LINE
  5
AD4B
330
9AAF
100
AcDbEntity
  8
0
  6
Continuous
 62
7
370
0
100
AcDbLine
 10
22.34542030378712
 20
19.99765029621986
 30
0.0
 11
23.62542030378712
 21
19.99765029621986
 31
0.0
  0
LINE
  5
AD4C
330
9AAF
100
AcDbEntity
  8
0
  6
Continuous
 62
7
370
0
100
AcDbLine
 10
22.34542030378712
 20
19.76765029621985
 30
0.0
 11
22.34542030378712
 21
19.99765029621986
 31
0.0
  0
LINE
  5
AD4D
330
9AAF
100
AcDbEntity
  8
0
  6
Continuous
 62
7
370
13
100
AcDbLine
 10
23.70542030378712
 20
19.84765029621987
 30
0.0
 11
23.70542030378712
 21
19.99765029621986
 31
0.0
  0
LINE
  5
AD4E
330
9AAF
100
AcDbEntity
  8
0
  6
Continuous
 62
7
370
13
100
AcDbLine
 10
25.20542030378712
 20
19.84765029621987
 30
0.0
 11
25.20542030378712
 21
19.99765029621986
 31
0.0
  0
LINE
  5
AD4F
330
9AAF
100
AcDbEntity
  8
0
  6
Continuous
 62
7
370
0
100
AcDbLine
 10
25.28542030378712
 20
19.99765029621986
 30
0.0
 11
26.49542030378711
 21
19.99765029621986
 31
0.0
  0
LINE
  5
AD50
330
9AAF
100
AcDbEntity
  8
0
  6
Continuous
 62
7
370
13
100
AcDbLine
 10
25.28542030378712
 20
19.84765029621987
 30
0.0
 11
26.49542030378711
 21
19.84765029621987
 31
0.0
  0
3DFACE
  5
AD51
330
9AAF
100
AcDbEntity
  8
0
  6
Continuous
 62
7
370
13
100
AcDbFace
 10
25.20542030378712
 20
19.84765029621987
 30
0.0
 11
25.20542030378712
 21
19.99765029621986
 31
0.0
 12
25.28542030378712
 22
19.99765029621986
 32
0.0
 13
25.28542030378712
 23
19.84765029621987
 33
0.0
  0
3DFACE
  5
AD52
330
9AAF
100
AcDbEntity
  8
0
  6
Continuous
 62
7
370
13
100
AcDbFace
 10
23.62542030378712
 20
19.84765029621987
 30
0.0
 11
23.62542030378712
 21
19.99765029621986
 31
0.0
 12
23.70542030378712
 22
19.99765029621986
 32
0.0
 13
23.70542030378712
 23
19.84765029621987
 33
0.0
  0
3DFACE
  5
AD53
330
9AAF
100
AcDbEntity
  8
0
  6
Continuous
 62
7
370
13
100
AcDbFace
 10
26.41542030378712
 20
19.84765029621987
 30
0.0
 11
26.41542030378712
 21
19.99765029621986
 31
0.0
 12
26.49542030378711
 22
19.99765029621986
 32
0.0
 13
26.49542030378711
 23
19.84765029621987
 33
0.0
  0
3DFACE
  5
AD54
330
9AAF
100
AcDbEntity
  8
0
  6
Continuous
 62
7
370
13
100
AcDbFace
 10
22.41542030378711
 20
19.84765029621987
 30
0.0
 11
22.41542030378711
 21
19.99765029621986
 31
0.0
 12
22.49542030378711
 22
19.99765029621986
 32
0.0
 13
22.49542030378711
 23
19.84765029621987
 33
0.0
  0
3DFACE
  5
AD55
330
9AAF
100
AcDbEntity
  8
0
  6
Continuous
 62
7
370
13
100
AcDbFace
 10
22.34542030378712
 20
19.82765029621986
 30
0.0
 11
22.49542030378711
 21
19.82765029621986
 31
0.0
 12
22.49542030378711
 22
19.74765029621986
 32
0.0
 13
22.34542030378712
 23
19.74765029621986
 33
0.0
  0
LINE
  5
AD56
330
9AAF
100
AcDbEntity
  8
0
  6
Continuous
 62
7
370
0
100
AcDbLine
 10
22.49542030378711
 20
19.92265029621986
 30
0.0
 11
23.62542030378712
 21
19.92265029621986
 31
0.0
  0
LINE
  5
AD57
330
9AAF
100
AcDbEntity
  8
0
  6
Continuous
 62
7
370
0
100
AcDbLine
 10
25.28542030378712
 20
19.92265029621986
 30
0.0
 11
26.41542030378712
 21
19.92265029621986
 31
0.0
  0
3DFACE
  5
AD58
330
9AAF
100
AcDbEntity
  8
0
  6
Continuous
 62
7
370
13
100
AcDbFace
 10
22.34542030378712
 20
18.24765029621986
 30
0.0
 11
22.49542030378711
 21
18.24765029621986
 31
0.0
 12
22.49542030378711
 22
18.16765029621986
 32
0.0
 13
22.34542030378712
 23
18.16765029621986
 33
0.0
  0
LINE
  5
AD59
330
9AAF
100
AcDbEntity
  8
0
  6
Continuous
 62
7
370
13
100
AcDbLine
 10
22.49542030378711
 20
19.67765029621986
 30
0.0
 11
23.13282717923346
 21
19.04024342077346
 31
0.0
  0
LINE
  5
AD5A
330
9AAF
100
AcDbEntity
  8
0
  6
Continuous
 62
7
370
13
100
AcDbLine
 10
22.49542030378711
 20
18.31765029621987
 30
0.0
 11
22.81967865075443
 21
18.64190864318721
 31
0.0
  0
ARC
  5
AD5B
330
9AAF
100
AcDbEntity
  8
0
  6
Continuous
 62
7
370
0
100
AcDbCircle
 10
-22.49542030378711
 20
19.67765029621986
 30
0.0
 40
0.9014294480061154
210
0.0
220
0.0
230
-1.0
100
AcDbArc
 50
225.0000000000011
 51
270.0
  0
ARC
  5
AD5C
330
9AAF
100
AcDbEntity
  8
0
  6
Continuous
 62
7
370
0
100
AcDbCircle
 10
-22.49542030378711
 20
18.31765029621987
 30
0.0
 40
0.4585705519938843
210
0.0
220
0.0
230
-1.0
100
AcDbArc
 50
90.0
 51
134.9999999999977
  0
3DFACE
  5
AD5D
330
9AAF
100
AcDbEntity
  8
0
  6
Continuous
 62
7
370
13
100
AcDbFace
 10
22.49542030378711
 20
19.67765029621986
 30
0.0
 11
22.44542030378712
 21
19.67765029621986
 31
0.0
 12
22.44542030378712
 22
19.74765029621986
 32
0.0
 13
22.49542030378711
 23
19.74765029621986
 33
0.0
  0
3DFACE
  5
AD5E
330
9AAF
100
AcDbEntity
  8
0
  6
Continuous
 62
7
370
13
100
AcDbFace
 10
22.49542030378711
 20
18.24765029621986
 30
0.0
 11
22.44542030378712
 21
18.24765029621986
 31
0.0
 12
22.44542030378712
 22
18.31765029621987
 32
0.0
 13
22.49542030378711
 23
18.31765029621987
 33
0.0
  0
LINE
  5
AD5F
330
9AAF
100
AcDbEntity
  8
0
  6
Continuous
 62
7
370
0
100
AcDbLine
 10
22.49542030378711
 20
19.67765029621986
 30
0.0
 11
22.49542030378711
 21
18.31765029621987
 31
0.0
  0
3DFACE
  5
AD60
330
9AAF
100
AcDbEntity
  8
0
  6
Continuous
 62
7
370
13
100
AcDbFace
 10
24.13926727365406
 20
20.08943529665371
 30
0.0
 11
23.48926727365405
 21
20.08943529665371
 31
0.0
 12
23.48926727365405
 22
20.05412226285463
 32
0.0
 13
24.13926727365406
 23
20.05412226285463
 33
0.0
  0
3DFACE
  5
AD61
330
9AAF
100
AcDbEntity
  8
0
  6
Continuous
 62
7
370
13
100
AcDbFace
 10
24.78926727365406
 20
20.08943529665371
 30
0.0
 11
25.43926727365406
 21
20.08943529665371
 31
0.0
 12
25.43926727365406
 22
20.05412226285463
 32
0.0
 13
24.78926727365406
 23
20.05412226285463
 33
0.0
  0
LINE
  5
AD62
330
9AAF
100
AcDbEntity
  8
0
  6
Continuous
 62
7
370
13
100
AcDbLine
 10
5.695420303787115
 20
26.04765029621991
 30
0.0
 11
5.895420303787091
 21
26.04765029621991
 31
0.0
  0
LINE
  5
AD63
330
9AAF
100
AcDbEntity
  8
0
  6
Continuous
 62
7
370
13
100
AcDbLine
 10
8.095420303787122
 20
25.94765029621991
 30
0.0
 11
8.295420303787097
 21
25.94765029621991
 31
0.0
  0
LINE
  5
AD64
330
9AAF
100
AcDbEntity
  8
0
  6
Continuous
 62
7
370
13
100
AcDbLine
 10
8.295420303787097
 20
25.94765029621991
 30
0.0
 11
8.295420303787097
 21
24.94765029621991
 31
0.0
  0
LINE
  5
AD65
330
9AAF
100
AcDbEntity
  8
0
  6
Continuous
 62
7
370
13
100
AcDbLine
 10
10.29542030378711
 20
33.7176502962199
 30
0.0
 11
10.4954203037871
 21
33.7176502962199
 31
0.0
  0
LINE
  5
AD66
330
9AAF
100
AcDbEntity
  8
0
  6
Continuous
 62
7
370
13
100
AcDbLine
 10
10.29542030378711
 20
33.7176502962199
 30
0.0
 11
10.29542030378711
 21
32.04765029621986
 31
0.0
  0
LINE
  5
AD67
330
9AAF
100
AcDbEntity
  8
0
  6
Continuous
 62
7
370
13
100
AcDbLine
 10
10.4954203037871
 20
33.7176502962199
 30
0.0
 11
10.4954203037871
 21
21.7476502962199
 31
0.0
  0
LINE
  5
AD68
330
9AAF
100
AcDbEntity
  8
0
  6
Continuous
 62
7
370
13
100
AcDbLine
 10
10.09542030378712
 20
32.04765029621986
 30
0.0
 11
10.09542030378712
 21
31.84765029621991
 31
0.0
  0
LINE
  5
AD69
330
9AAF
100
AcDbEntity
  8
0
  6
Continuous
 62
7
370
13
100
AcDbLine
 10
8.39542030378713
 20
32.04765029621986
 30
0.0
 11
8.39542030378713
 21
31.84765029621991
 31
0.0
  0
LINE
  5
AD6A
330
9AAF
100
AcDbEntity
  8
0
  6
Continuous
 62
7
370
13
100
AcDbLine
 10
10.09542030378712
 20
32.04765029621986
 30
0.0
 11
10.29542030378711
 21
32.04765029621986
 31
0.0
  0
LINE
  5
AD6B
330
9AAF
100
AcDbEntity
  8
0
  6
Continuous
 62
7
370
13
100
AcDbLine
 10
10.09542030378712
 20
31.84765029621991
 30
0.0
 11
10.29542030378711
 21
31.84765029621991
 31
0.0
  0
LINE
  5
AF2C
330
9AAF
100
AcDbEntity
  8
0
  6
Continuous
 62
7
370
0
100
AcDbLine
 10
17.46542030378711
 20
17.02765029621986
 30
0.0
 11
17.46542030378711
 21
15.82765029621986
 31
0.0
  0
LINE
  5
AF2D
330
9AAF
100
AcDbEntity
  8
0
  6
Continuous
 62
7
370
0
100
AcDbLine
 10
17.46542030378711
 20
15.82765029621986
 30
0.0
 11
21.76542030378712
 21
15.82765029621986
 31
0.0
  0
INSERT
  5
AF2E
330
9AAF
100
AcDbEntity
  8
1. стены  выступы  колонны  лифты
  6
Continuous
370
13
100
AcDbBlockReference
  2
*U9
 10
22.76538914516246
 20
15.62765801309221
 30
0.0
  0
INSERT
  5
AF33
330
9AAF
100
AcDbEntity
  8
1. стены  выступы  колонны  лифты
  6
Continuous
370
13
100
AcDbBlockReference
  2
*U9
 10
25.26538914516249
 20
15.62765801309221
 30
0.0
  0
LINE
  5
AF38
330
9AAF
100
AcDbEntity
  8
0
  6
DGN Style 3
 62
7
370
13
100
AcDbLine
 10
22.91542030378712
 20
15.92765029621984
 30
0.0
 11
22.91542030378712
 21
17.82765029621986
 31
0.0
  0
LINE
  5
AF39
330
9AAF
100
AcDbEntity
  8
0
  6
DGN Style 3
 62
7
370
13
100
AcDbLine
 10
25.11542030378709
 20
15.92765029621984
 30
0.0
 11
25.11542030378709
 21
17.82765029621986
 31
0.0
  0
LINE
  5
AF3A
330
9AAF
100
AcDbEntity
  8
0
  6
Continuous
 62
7
370
0
100
AcDbLine
 10
17.41542030378711
 20
15.87765029621984
 30
0.0
 11
21.81542030378709
 21
15.87765029621984
 31
0.0
  0
LINE
  5
AF3B
330
9AAF
100
AcDbEntity
  8
0
  6
Continuous
 62
7
370
0
100
AcDbLine
 10
17.41542030378711
 20
15.92765029621984
 30
0.0
 11
21.81542030378709
 21
15.92765029621984
 31
0.0
  0
LINE
  5
AF3C
330
9AAF
100
AcDbEntity
  8
0
  6
Continuous
 62
7
370
0
100
AcDbLine
 10
17.41542030378711
 20
16.97765029621986
 30
0.0
 11
21.81542030378709
 21
16.97765029621986
 31
0.0
  0
LINE
  5
AF3D
330
9AAF
100
AcDbEntity
  8
0
  6
Continuous
 62
7
370
0
100
AcDbLine
 10
17.41542030378711
 20
16.92765029621986
 30
0.0
 11
21.81542030378709
 21
16.92765029621986
 31
0.0
  0
LINE
  5
AF3E
330
9AAF
100
AcDbEntity
  8
0
  6
Continuous
 62
7
370
0
100
AcDbLine
 10
21.81542030378709
 20
16.97765029621986
 30
0.0
 11
21.81542030378709
 21
16.92765029621986
 31
0.0
  0
LINE
  5
AF3F
330
9AAF
100
AcDbEntity
  8
0
  6
Continuous
 62
7
370
0
100
AcDbLine
 10
17.41542030378711
 20
16.97765029621986
 30
0.0
 11
17.41542030378711
 21
16.92765029621986
 31
0.0
  0
LINE
  5
AF40
330
9AAF
100
AcDbEntity
  8
0
  6
Continuous
 62
7
370
0
100
AcDbLine
 10
17.41542030378711
 20
15.92765029621984
 30
0.0
 11
17.41542030378711
 21
15.87765029621984
 31
0.0
  0
LINE
  5
AF41
330
9AAF
100
AcDbEntity
  8
0
  6
Continuous
 62
7
370
0
100
AcDbLine
 10
21.81542030378709
 20
15.92765029621984
 30
0.0
 11
21.81542030378709
 21
15.87765029621984
 31
0.0
  0
LINE
  5
AF4D
330
9AAF
100
AcDbEntity
  8
0
  6
Continuous
 62
7
370
13
100
AcDbLine
 10
20.4532205207322
 20
11.49182835377319
 30
0.0
 11
20.4532205207322
 21
10.78735592495559
 31
0.0
  0
CIRCLE
  5
AF67
330
9AAF
100
AcDbEntity
  8
0
  6
Continuous
 62
7
370
13
100
AcDbCircle
 10
25.55157740595487
 20
19.13173612925816
 30
0.0
 40
0.2300433460574132
  0
CIRCLE
  5
AF68
330
9AAF
100
AcDbEntity
  8
0
  6
Continuous
 62
7
370
13
100
AcDbCircle
 10
18.42211554100478
 20
27.95815666186447
 30
0.0
 40
0.2300433460574132
  0
CIRCLE
  5
AF69
330
9AAF
100
AcDbEntity
  8
0
  6
Continuous
 62
7
370
13
100
AcDbCircle
 10
7.257458724947523
 20
22.9633405105929
 30
0.0
 40
0.2300433460574132
  0
CIRCLE
  5
AF6A
330
9AAF
100
AcDbEntity
  8
0
  6
Continuous
 62
7
370
13
100
AcDbCircle
 10
5.001649341242568
 20
26.41577363804996
 30
0.0
 40
0.2300433460574132
  0
CIRCLE
  5
AF6B
330
9AAF
100
AcDbEntity
  8
0
  6
Continuous
 62
7
370
13
100
AcDbCircle
 10
6.986361785901124
 20
26.37504379269451
 30
0.0
 40
0.2300433460574132
  0
CIRCLE
  5
AF6C
330
9AAF
100
AcDbEntity
  8
0
  6
Continuous
 62
7
370
13
100
AcDbCircle
 10
6.177379803675776
 20
29.1867155685965
 30
0.0
 40
0.2300433460574132
  0
CIRCLE
  5
AF6D
330
9AAF
100
AcDbEntity
  8
0
  6
Continuous
 62
7
370
13
100
AcDbCircle
 10
7.553978502547991
 20
34.25551156865697
 30
0.0
 40
0.2300433460574132
  0
CIRCLE
  5
AF6E
330
9AAF
100
AcDbEntity
  8
0
  6
Continuous
 62
7
370
13
100
AcDbCircle
 10
9.24319124857446
 20
29.17024655632192
 30
0.0
 40
0.2300433460574132
  0
LINE
  5
AF9B
330
9AAF
100
AcDbEntity
  8
0
  6
Continuous
 62
7
370
13
100
AcDbLine
 10
18.9532205207322
 20
11.49182835377319
 30
0.0
 11
28.24392384935375
 21
11.49182835377319
 31
0.0
  0
LINE
  5
AF9C
330
9AAF
100
AcDbEntity
  8
0
  6
Continuous
 62
7
370
13
100
AcDbLine
 10
18.9532205207322
 20
10.78735592495559
 30
0.0
 11
28.24392384935375
 21
10.78735592495559
 31
0.0
  0
LINE
  5
AF9D
330
9AAF
100
AcDbEntity
  8
0
  6
Continuous
 62
7
370
0
100
AcDbLine
 10
18.9532205207322
 20
10.78735592495559
 30
0.0
 11
28.24392384935375
 21
10.78735592495559
 31
0.0
  0
LINE
  5
AF9E
330
9AAF
100
AcDbEntity
  8
0
  6
Continuous
 62
7
370
0
100
AcDbLine
 10
18.9532205207322
 20
10.28735592495559
 30
0.0
 11
28.24392384935375
 21
10.28735592495559
 31
0.0
  0
LINE
  5
AF9F
330
9AAF
100
AcDbEntity
  8
0
  6
Continuous
 62
7
370
0
100
AcDbLine
 10
18.9532205207322
 20
9.787355924955593
 30
0.0
 11
28.24392384935375
 21
9.787355924955593
 31
0.0
  0
LINE
  5
AFA0
330
9AAF
100
AcDbEntity
  8
0
  6
Continuous
 62
7
370
0
100
AcDbLine
 10
18.9532205207322
 20
9.287355924955563
 30
0.0
 11
28.24392384935375
 21
9.287355924955563
 31
0.0
  0
LINE
  5
AFA1
330
9AAF
100
AcDbEntity
  8
0
  6
Continuous
 62
7
370
0
100
AcDbLine
 10
18.9532205207322
 20
8.787355924955563
 30
0.0
 11
28.24392384935375
 21
8.787355924955563
 31
0.0
  0
LINE
  5
AFA2
330
9AAF
100
AcDbEntity
  8
0
  6
Continuous
 62
7
370
0
100
AcDbLine
 10
18.9532205207322
 20
8.287355924955563
 30
0.0
 11
28.24392384935375
 21
8.287355924955563
 31
0.0
  0
LINE
  5
AFA3
330
9AAF
100
AcDbEntity
  8
0
  6
Continuous
 62
7
370
0
100
AcDbLine
 10
18.9532205207322
 20
7.787355924955562
 30
0.0
 11
28.24392384935375
 21
7.787355924955562
 31
0.0
  0
LINE
  5
AFA4
330
9AAF
100
AcDbEntity
  8
0
  6
Continuous
 62
7
370
0
100
AcDbLine
 10
18.9532205207322
 20
7.287355924955562
 30
0.0
 11
28.24392384935375
 21
7.287355924955562
 31
0.0
  0
LINE
  5
AFA5
330
9AAF
100
AcDbEntity
  8
0
  6
Continuous
 62
7
370
0
100
AcDbLine
 10
18.9532205207322
 20
6.787355924955562
 30
0.0
 11
28.24392384935375
 21
6.787355924955562
 31
0.0
  0
LINE
  5
AFA6
330
9AAF
100
AcDbEntity
  8
0
  6
Continuous
 62
7
370
13
100
AcDbLine
 10
18.9532205207322
 20
6.287355924955562
 30
0.0
 11
28.24392384935375
 21
6.287355924955562
 31
0.0
  0
LINE
  5
AFA7
330
9AAF
100
AcDbEntity
  8
0
  6
Continuous
 62
7
370
13
100
AcDbLine
 10
26.24392384935375
 20
11.49182835377319
 30
0.0
 11
26.24392384935375
 21
6.287355924955562
 31
0.0
  0
LINE
  5
AFA8
330
9AAF
100
AcDbEntity
  8
0
  6
Continuous
 62
7
370
13
100
AcDbLine
 10
20.4532205207322
 20
10.78735592495559
 30
0.0
 11
20.4532205207322
 21
6.287355924955562
 31
0.0
  0
LINE
  5
AFA9
330
9AAF
100
AcDbEntity
  8
0
  6
Continuous
 62
7
370
13
100
AcDbLine
 10
18.9532205207322
 20
11.49182835377319
 30
0.0
 11
18.9532205207322
 21
6.287355924955562
 31
0.0
  0
LINE
  5
AFAA
330
9AAF
100
AcDbEntity
  8
0
  6
Continuous
 62
7
370
13
100
AcDbLine
 10
28.24392384935375
 20
11.49182835377319
 30
0.0
 11
28.24392384935375
 21
6.287355924955562
 31
0.0
  0
LINE
  5
AFAB
330
9AAF
100
AcDbEntity
  8
0
  6
Continuous
 62
7
370
0
100
AcDbLine
 10
8.195420303787103
 20
31.34765029621991
 30
0.0
 11
8.195420303787103
 21
30.34765029621991
 31
0.0
  0
LINE
  5
AFAC
330
9AAF
100
AcDbEntity
  8
0
  6
Continuous
 62
7
370
0
100
AcDbLine
 10
8.195420303787103
 20
30.34765029621991
 30
0.0
 11
8.902527084973652
 21
31.05475707740647
 31
0.0
  0
ARC
  5
AFAD
330
9AAF
100
AcDbEntity
  8
0
  6
Continuous
 62
7
370
0
100
AcDbCircle
 10
8.195420303787103
 20
30.34765029621991
 30
0.0
 40
1.0
100
AcDbArc
 50
45.00000000000057
 51
90.0
  0
LINE
  5
AFAE
330
9AAF
100
AcDbEntity
  8
0
  6
Continuous
 62
7
370
0
100
AcDbLine
 10
9.795420303787113
 20
24.84765029621991
 30
0.0
 11
8.795420303787111
 21
24.84765029621991
 31
0.0
  0
LINE
  5
AFAF
330
9AAF
100
AcDbEntity
  8
0
  6
Continuous
 62
7
370
0
100
AcDbLine
 10
9.795420303787113
 20
24.84765029621991
 30
0.0
 11
9.088313522600572
 21
25.55475707740645
 31
0.0
  0
ARC
  5
AFB0
330
9AAF
100
AcDbEntity
  8
0
  6
Continuous
 62
7
370
0
100
AcDbCircle
 10
9.795420303787113
 20
24.84765029621991
 30
0.0
 40
1.0
100
AcDbArc
 50
135.0
 51
180.0
  0
LINE
  5
AFB1
330
9AAF
100
AcDbEntity
  8
0
  6
Continuous
 62
7
370
0
100
AcDbLine
 10
5.795420303787111
 20
26.04765029621991
 30
0.0
 11
5.795420303787111
 21
26.84765029621991
 31
0.0
  0
LINE
  5
AFB2
330
9AAF
100
AcDbEntity
  8
0
  6
Continuous
 62
7
370
0
100
AcDbLine
 10
5.795420303787111
 20
26.84765029621991
 30
0.0
 11
6.361105728736362
 21
26.28196487127067
 31
0.0
  0
ARC
  5
AFB3
330
9AAF
100
AcDbEntity
  8
0
  6
Continuous
 62
7
370
0
100
AcDbCircle
 10
5.795420303787111
 20
26.84765029621991
 30
0.0
 40
0.8
100
AcDbArc
 50
270.0
 51
315.0000000000017
  0
LINE
  5
AFB4
330
9AAF
100
AcDbEntity
  8
0
  6
Continuous
 62
7
370
0
100
AcDbLine
 10
8.39542030378713
 20
31.9476502962199
 30
0.0
 11
10.09542030378712
 21
31.9476502962199
 31
0.0
  0
LINE
  5
AFB5
330
9AAF
100
AcDbEntity
  8
0
  6
Continuous
 62
7
370
0
100
AcDbLine
 10
8.39542030378713
 20
31.9476502962199
 30
0.0
 11
8.890395050617695
 21
32.44262504305047
 31
0.0
  0
LINE
  5
AFB6
330
9AAF
100
AcDbEntity
  8
0
  6
Continuous
 62
7
370
0
100
AcDbLine
 10
10.09542030378712
 20
31.9476502962199
 30
0.0
 11
9.388313522600583
 21
32.65475707740647
 31
0.0
  0
ARC
  5
AFB7
330
9AAF
100
AcDbEntity
  8
0
  6
Continuous
 62
7
370
0
100
AcDbCircle
 10
10.09542030378712
 20
31.9476502962199
 30
0.0
 40
1.0
100
AcDbArc
 50
134.9999999999994
 51
180.0000000000016
  0
ARC
  5
AFB8
330
9AAF
100
AcDbEntity
  8
0
  6
Continuous
 62
7
370
0
100
AcDbCircle
 10
8.39542030378713
 20
31.9476502962199
 30
0.0
 40
0.6999999999999768
100
AcDbArc
 50
0.0
 51
45.00000000000114
  0
LINE
  5
AFB9
330
9AAF
100
AcDbEntity
  8
0
  6
Continuous
 62
7
370
0
100
AcDbLine
 10
10.39542030378713
 20
33.71765029621992
 30
0.0
 11
10.3954203037871
 21
35.4176502962199
 31
0.0
  0
LINE
  5
AFBA
330
9AAF
100
AcDbEntity
  8
0
  6
Continuous
 62
7
370
0
100
AcDbLine
 10
10.39542030378713
 20
33.71765029621992
 30
0.0
 11
10.8903950506177
 21
34.2126250430505
 31
0.0
  0
LINE
  5
AFBB
330
9AAF
100
AcDbEntity
  8
0
  6
Continuous
 62
7
370
0
100
AcDbLine
 10
10.3954203037871
 20
35.4176502962199
 30
0.0
 11
11.1025270849737
 21
34.71054351503337
 31
0.0
  0
ARC
  5
AFBC
330
9AAF
100
AcDbEntity
  8
0
  6
Continuous
 62
7
370
0
100
AcDbCircle
 10
-10.39542030378715
 20
35.4176502962199
 30
0.0
 40
1.0
210
0.0
220
0.0
230
-1.0
100
AcDbArc
 50
224.9999999999983
 51
270.0000000000008
  0
ARC
  5
AFBD
330
9AAF
100
AcDbEntity
  8
0
  6
Continuous
 62
7
370
0
100
AcDbCircle
 10
-10.39542030378713
 20
33.71765029621992
 30
0.0
 40
0.6999999999999769
210
0.0
220
0.0
230
-1.0
100
AcDbArc
 50
90.0
 51
135.0000000000017
  0
LINE
  5
B850
330
9AAF
100
AcDbEntity
  8
Level 63
  6
Continuous
 62
7
370
13
100
AcDbLine
 10
21.50002450525118
 20
0.5000024010641937
 30
0.0
 11
27.80001353070093
 21
0.5000024010641937
 31
0.0
  0
LINE
  5
B859
330
9AAF
100
AcDbEntity
  8
Level 63
  6
Continuous
 62
7
370
13
100
AcDbLine
 10
9.000013530700924
 20
41.00000240106122
 30
0.0
 11
9.000013530700924
 21
39.00000240106125
 31
0.0
  0
LINE
  5
B85A
330
9AAF
100
AcDbEntity
  8
Level 63
  6
Continuous
 62
7
370
13
100
AcDbLine
 10
11.000013530689
 20
40.50000240106125
 30
0.0
 11
11.000013530689
 21
39.00000240106125
 31
0.0
  0
LINE
  5
B85B
330
9AAF
100
AcDbEntity
  8
Level 63
  6
Continuous
 62
7
370
13
100
AcDbLine
 10
13.00001353070688
 20
40.50000240106125
 30
0.0
 11
13.00001353070688
 21
39.00000240106125
 31
0.0
  0
LINE
  5
B85C
330
9AAF
100
AcDbEntity
  8
Level 63
  6
Continuous
 62
7
370
13
100
AcDbLine
 10
14.50001353069495
 20
40.50000240106125
 30
0.0
 11
14.50001353069495
 21
39.00000240106125
 31
0.0
  0
LINE
  5
B85D
330
9AAF
100
AcDbEntity
  8
Level 63
  6
Continuous
 62
7
370
13
100
AcDbLine
 10
15.50001353070092
 20
41.00000240106122
 30
0.0
 11
15.50001353070092
 21
39.00000240106125
 31
0.0
  0
LINE
  5
B85E
330
9AAF
100
AcDbEntity
  8
Level 63
  6
Continuous
 62
7
370
13
100
AcDbLine
 10
15.50001353070092
 20
40.00000240106124
 30
0.0
 11
9.000013530700924
 21
40.00000240106124
 31
0.0
  0
LINE
  5
B85F
330
9AAF
100
AcDbEntity
  8
Level 63
  6
Continuous
 62
7
370
13
100
AcDbLine
 10
15.50001353070092
 20
39.50000240106124
 30
0.0
 11
9.000013530700924
 21
39.50000240106124
 31
0.0
  0
LINE
  5
B860
330
9AAF
100
AcDbEntity
  8
Level 63
  6
Continuous
 62
7
370
13
100
AcDbLine
 10
15.50001353070092
 20
40.50000240106125
 30
0.0
 11
9.000013530700924
 21
40.50000240106125
 31
0.0
  0
LINE
  5
B861
330
9AAF
100
AcDbEntity
  8
Level 63
  6
Continuous
 62
7
370
13
100
AcDbLine
 10
15.50001353070092
 20
41.00000240106122
 30
0.0
 11
9.000013530700924
 21
41.00000240106122
 31
0.0
  0
LWPOLYLINE
  5
B862
330
9AAF
100
AcDbEntity
  8
Level 63
  6
Continuous
 62
7
370
13
100
AcDbPolyline
 90
3
 70
128
 10
0.500013530700926
 20
39.00000240106125
 10
0.500013530700926
 20
40.20000240106123
 10
9.000013530700924
 20
40.20000240106123
  0
LINE
  5
B863
330
9AAF
100
AcDbEntity
  8
Level 63
  6
Continuous
 62
7
370
13
100
AcDbLine
 10
0.500013530700926
 20
39.70000240106123
 30
0.0
 11
9.000013530700924
 21
39.70000240106123
 31
0.0
  0
LINE
  5
B864
330
9AAF
100
AcDbEntity
  8
Level 63
  6
Continuous
 62
7
370
13
100
AcDbLine
 10
3.000013530700925
 20
40.20000240106123
 30
0.0
 11
3.000013530700925
 21
39.00000240106125
 31
0.0
  0
LINE
  5
B865
330
9AAF
100
AcDbEntity
  8
Level 63
  6
Continuous
 62
7
370
13
100
AcDbLine
 10
6.500013530700924
 20
40.20000240106123
 30
0.0
 11
6.500013530700924
 21
39.00000240106125
 31
0.0
  0
LINE
  5
B866
330
9AAF
100
AcDbEntity
  8
Level 63
  6
Continuous
 62
7
370
13
100
AcDbLine
 10
9.000013530700924
 20
40.20000240106123
 30
0.0
 11
9.000013530700924
 21
39.00000240106125
 31
0.0
  0
LINE
  5
B86D
330
9AAF
100
AcDbEntity
  8
Level 63
  6
Continuous
 62
7
370
13
100
AcDbLine
 10
10.00001353070092
 20
6.000002401062713
 30
0.0
 11
28.50001353070093
 21
6.000002401062713
 31
0.0
  0
LINE
  5
B86E
330
9AAF
100
AcDbEntity
  8
Level 63
  6
Continuous
 62
7
370
13
100
AcDbLine
 10
16.50001353069794
 20
5.000002401056747
 30
0.0
 11
28.50001353070093
 21
5.000002401056747
 31
0.0
  0
LINE
  5
B86F
330
9AAF
100
AcDbEntity
  8
Level 63
  6
Continuous
 62
7
370
0
100
AcDbLine
 10
10.00001353070092
 20
5.500002401059731
 30
0.0
 11
16.50001353069794
 21
5.500002401059731
 31
0.0
  0
LINE
  5
B870
330
9AAF
100
AcDbEntity
  8
Level 63
  6
Continuous
 62
7
370
0
100
AcDbLine
 10
10.00001353070092
 20
5.000002401056747
 30
0.0
 11
16.50001353069794
 21
5.000002401056747
 31
0.0
  0
LINE
  5
B871
330
9AAF
100
AcDbEntity
  8
Level 63
  6
Continuous
 62
7
370
0
100
AcDbLine
 10
10.00001353070092
 20
4.500002401050777
 30
0.0
 11
16.50001353069794
 21
4.500002401050777
 31
0.0
  0
LINE
  5
B872
330
9AAF
100
AcDbEntity
  8
Level 63
  6
Continuous
 62
7
370
13
100
AcDbLine
 10
10.00001353070092
 20
4.000002401044836
 30
0.0
 11
16.50001353069794
 21
4.000002401044836
 31
0.0
  0
LINE
  5
B873
330
9AAF
100
AcDbEntity
  8
Level 63
  6
Continuous
 62
7
370
13
100
AcDbLine
 10
14.00001353070092
 20
6.000002401062713
 30
0.0
 11
14.00001353070092
 21
0.5000024010627158
 31
0.0
  0
LINE
  5
B874
330
9AAF
100
AcDbEntity
  8
Level 63
  6
Continuous
 62
7
370
13
100
AcDbLine
 10
10.00001353070092
 20
6.000002401062713
 30
0.0
 11
10.00001353070092
 21
0.5000024010627158
 31
0.0
  0
LINE
  5
B875
330
9AAF
100
AcDbEntity
  8
Level 63
  6
Continuous
 62
7
370
13
100
AcDbLine
 10
11.00001353070092
 20
6.000002401062713
 30
0.0
 11
11.00001353070092
 21
3.500002401068654
 31
0.0
  0
LINE
  5
B876
330
9AAF
100
AcDbEntity
  8
Level 63
  6
Continuous
 62
7
370
13
100
AcDbLine
 10
12.00001353070092
 20
6.000002401062713
 30
0.0
 11
12.00001353070092
 21
0.5000024010627158
 31
0.0
  0
LINE
  5
B877
330
9AAF
100
AcDbEntity
  8
Level 63
  6
Continuous
 62
7
370
13
100
AcDbLine
 10
13.00001353070092
 20
6.000002401062713
 30
0.0
 11
13.00001353070092
 21
3.500002401068654
 31
0.0
  0
LINE
  5
B878
330
9AAF
100
AcDbEntity
  8
Level 63
  6
Continuous
 62
7
370
13
100
AcDbLine
 10
15.50001353069794
 20
6.000002401062713
 30
0.0
 11
15.50001353069794
 21
0.5000024010627158
 31
0.0
  0
LINE
  5
B879
330
9AAF
100
AcDbEntity
  8
Level 63
  6
Continuous
 62
7
370
13
100
AcDbLine
 10
16.50001353069794
 20
6.000002401062713
 30
0.0
 11
16.50001353069794
 21
0.5000024010627158
 31
0.0
  0
LINE
  5
B880
330
9AAF
100
AcDbEntity
  8
Level 63
  6
Continuous
 62
7
370
13
100
AcDbLine
 10
10.00001353070092
 20
3.500002401068654
 30
0.0
 11
16.50001353069794
 21
3.500002401068654
 31
0.0
  0
LINE
  5
B881
330
9AAF
100
AcDbEntity
  8
Level 63
  6
Continuous
 62
7
370
0
100
AcDbLine
 10
10.00001353070092
 20
3.000002401062713
 30
0.0
 11
16.50001353069794
 21
3.000002401062713
 31
0.0
  0
LINE
  5
B882
330
9AAF
100
AcDbEntity
  8
Level 63
  6
Continuous
 62
7
370
0
100
AcDbLine
 10
10.00001353070092
 20
2.500002401056747
 30
0.0
 11
16.50001353069794
 21
2.500002401056747
 31
0.0
  0
LINE
  5
B883
330
9AAF
100
AcDbEntity
  8
Level 63
  6
Continuous
 62
7
370
0
100
AcDbLine
 10
10.00001353070092
 20
2.000002401053762
 30
0.0
 11
16.50001353069794
 21
2.000002401053762
 31
0.0
  0
LINE
  5
B884
330
9AAF
100
AcDbEntity
  8
Level 63
  6
Continuous
 62
7
370
0
100
AcDbLine
 10
10.00001353070092
 20
1.500002401050776
 30
0.0
 11
16.50001353069794
 21
1.500002401050776
 31
0.0
  0
LINE
  5
B885
330
9AAF
100
AcDbEntity
  8
Level 63
  6
Continuous
 62
7
370
0
100
AcDbLine
 10
10.00001353070092
 20
1.000002401044838
 30
0.0
 11
16.50001353069794
 21
1.000002401044838
 31
0.0
  0
LINE
  5
B88C
330
9AAF
100
AcDbEntity
  8
Level 63
  6
Continuous
 62
7
370
13
100
AcDbLine
 10
16.50001353069794
 20
2.000002401053762
 30
0.0
 11
28.50001353070093
 21
2.000002401053762
 31
0.0
  0
LINE
  5
B88D
330
9AAF
100
AcDbEntity
  8
Level 63
  6
Continuous
 62
7
370
13
100
AcDbLine
 10
16.50001353069794
 20
3.500002401068654
 30
0.0
 11
28.50001353070093
 21
3.500002401068654
 31
0.0
  0
LWPOLYLINE
  5
B88E
330
9AAF
100
AcDbEntity
  8
Level 63
  6
Continuous
 62
7
370
13
100
AcDbPolyline
 90
2
 70
128
 10
25.00001353070093
 20
3.500002401068654
 10
25.00001353070093
 20
2.000002401053762
  0
LWPOLYLINE
  5
B88F
330
9AAF
100
AcDbEntity
  8
Level 63
  6
Continuous
 62
7
370
13
100
AcDbPolyline
 90
2
 70
128
 10
26.50001353069794
 20
3.500002401068654
 10
26.50001353069794
 20
2.000002401053762
  0
LINE
  5
B893
330
9AAF
100
AcDbEntity
  8
Level 63
  6
Continuous
 62
7
370
13
100
AcDbLine
 10
23.50001353069794
 20
3.000002401062713
 30
0.0
 11
28.50001353070093
 21
3.000002401062713
 31
0.0
  0
LWPOLYLINE
  5
B894
330
9AAF
100
AcDbEntity
  8
Level 63
  6
Continuous
 62
7
370
13
100
AcDbPolyline
 90
2
 70
128
 10
23.50001353069794
 20
3.500002401068654
 10
23.50001353069794
 20
0.5000024010627158
  0
LWPOLYLINE
  5
B8FE
330
9AAF
100
AcDbEntity
  8
0
100
AcDbPolyline
 90
2
 70
0
 10
0.500013530700926
 20
39.00000240106125
 10
15.50001353070092
 20
39.00000240106125
  0
VIEWPORT
  5
A9B4
330
9AC2
100
AcDbEntity
 67
1
  8
0
  6
DGN Style 3
 62
5
370
0
100
AcDbViewport
 10
5.250183132535525
 20
4.000122090685323
 30
0.0
 40
8.400878902060072
 41
6.400909420802381
 68
1
 69
1
 12
5.250183132535525
 22
4.000122090685323
 13
0.0
 23
0.0
 14
0.0
 24
0.0
 15
0.1
 25
0.1
 16
0.0
 26
0.0
 36
1.0
 17
0.0
 27
0.0
 37
0.0
 42
50.0
 43
0.0
 44
0.0
 45
6.400909420802381
 50
0.0
 51
0.0
 72
100
 90
32768
  1

281
0
 71
1
 74
1
110
0.0
120
0.0
130
0.0
111
1.0
121
0.0
131
0.0
112
0.0
122
1.0
132
0.0
 79
0
146
0.0
170
0
 61
10
282
1
141
0.0
142
0.0
 63
250
421
3355443
  0
ENDSEC
  0
SECTION
  2
OBJECTS
  0
DICTIONARY
  5
9AB4
330
0
100
AcDbDictionary
281
1
  3
ACAD_CIP_PREVIOUS_PRODUCT_INFO
350
B537
  3
ACAD_COLOR
350
9AF0
  3
ACAD_DETAILVIEWSTYLE
350
B52C
  3
ACAD_GROUP
350
9ADD
  3
ACAD_LAST_SAVED_VERSION_INFO
350
B538
  3
ACAD_LAYOUT
350
9AC1
  3
ACAD_MATERIAL
350
9AB6
  3
ACAD_MLEADERSTYLE
350
9AF3
  3
ACAD_MLINESTYLE
350
9ADE
  3
ACAD_PLOTSETTINGS
350
9ADF
  3
ACAD_PLOTSTYLENAME
350
9AB3
  3
ACAD_SCALELIST
350
9AF1
  3
ACAD_SECTIONVIEWSTYLE
350
B52A
  3
ACAD_TABLESTYLE
350
9AF2
  3
ACAD_VISUALSTYLE
350
9AD7
  3
AcadDim
350
9B2D
  3
ACDB_RECOMPOSE_DATA
350
B910
  3
AcDbVariableDictionary
350
9E2B
  3
MicroStation
350
9B2E
  3
EZDXF_META
350
B922
  0
DICTIONARY
  5
9ACA
330
9AC9
100
AcDbDictionary
280
1
281
1
  3
ACAD_LAYERFILTERS
360
9B1B
  3
ACAD_LAYERSTATES
360
9ACB
  0
DICTIONARY
  5
B539
330
9AB1
100
AcDbDictionary
280
1
281
1
  3
ADSK_XREC_LAYER_RECONCILED
360
B53A
  0
DICTIONARY
  5
B53F
330
447C
100
AcDbDictionary
280
1
281
1
  3
ADSK_XREC_LAYER_RECONCILED
360
B540
  0
DICTIONARY
  5
B541
330
447D
100
AcDbDictionary
280
1
281
1
  3
ADSK_XREC_LAYER_RECONCILED
360
B542
  0
DICTIONARY
  5
B54B
330
B00E
100
AcDbDictionary
280
1
281
1
  3
ADSK_XREC_LAYER_RECONCILED
360
B54C
  0
DICTIONARY
  5
9DF2
330
9AAF
100
AcDbDictionary
280
1
281
1
  3
ACAD_SORTENTS
360
9DF3
  0
XRECORD
  5
B537
102
{ACAD_REACTORS
330
9AB4
102
}
330
9AB4
100
AcDbXrecord
280
1
300
ACD
300
2026
300
88023ACD_2026_0F
  0
DICTIONARY
  5
9AF0
102
{ACAD_REACTORS
330
9AB4
102
}
330
9AB4
100
AcDbDictionary
281
1
  3
Standard$black
350
9C6C
  0
DICTIONARY
  5
B52C
102
{ACAD_REACTORS
330
9AB4
102
}
330
9AB4
100
AcDbDictionary
281
1
  3
Imperial24
350
B52D
  0
DICTIONARY
  5
9ADD
102
{ACAD_REACTORS
330
9AB4
102
}
330
9AB4
100
AcDbDictionary
281
1
  0
XRECORD
  5
B538
102
{ACAD_REACTORS
330
9AB4
102
}
330
9AB4
100
AcDbXrecord
280
1
300
{36BDADE7-1663-404D-A3ED-C52A79652536}
301
{D3CE042C-8847-F148-8D28-37B0223B6713}
302
{36BDADE7-1663-404D-A3ED-C52A79652536}
303
C:\YandexDisk\Studies\_03_Maga\0_Diplom\Diplom\Dataset\sources\13_full_annotated.dxf
  0
DICTIONARY
  5
9AC1
102
{ACAD_REACTORS
330
9AB4
102
}
330
9AB4
100
AcDbDictionary
281
1
  3
Layout1
350
9AC5
  3
Model
350
9AC0
  0
DICTIONARY
  5
9AB6
102
{ACAD_REACTORS
330
9AB4
102
}
330
9AB4
100
AcDbDictionary
281
1
  3
ByBlock
350
9AE8
  3
ByLayer
350
9AE0
  3
Global
350
9AB5
  0
DICTIONARY
  5
9AF3
102
{ACAD_REACTORS
330
9AB4
102
}
330
9AB4
100
AcDbDictionary
281
1
  3
Standard
350
9E44
  0
DICTIONARY
  5
9ADE
102
{ACAD_REACTORS
330
9AB4
102
}
330
9AB4
100
AcDbDictionary
281
1
  3
Standard
350
9AF4
  0
DICTIONARY
  5
9ADF
102
{ACAD_REACTORS
330
9AB4
102
}
330
9AB4
100
AcDbDictionary
281
1
  0
ACDBDICTIONARYWDFLT
  5
9AB3
102
{ACAD_REACTORS
330
9AB4
102
}
330
9AB4
100
AcDbDictionary
281
1
  3
Normal
350
9AB2
100
AcDbDictionaryWithDefault
340
9AB2
  0
DICTIONARY
  5
9AF1
102
{ACAD_REACTORS
330
9AB4
102
}
330
9AB4
100
AcDbDictionary
281
1
  3
A0
350
9AF8
  3
A1
350
9AF9
  3
A2
350
9AFA
  3
A3
350
9AFB
  3
A4
350
9AFC
  3
A5
350
9AFD
  3
A6
350
9AFE
  3
A7
350
9AFF
  3
A8
350
9B00
  3
A9
350
9B01
  3
B0
350
9B02
  3
B1
350
9B03
  3
B2
350
9B04
  3
B3
350
9B05
  3
B4
350
9B06
  3
B5
350
9B07
  3
B6
350
9B08
  3
B7
350
9B09
  3
B8
350
9B0A
  3
B9
350
9B0B
  3
C0
350
9B0C
  3
C1
350
9B0D
  3
C2
350
9B0E
  3
C3
350
9B0F
  3
C4
350
9B10
  3
C5
350
9B11
  3
C6
350
9B12
  3
C7
350
9B13
  3
C8
350
9B14
  3
C9
350
9B15
  3
D0
350
9B16
  3
D1
350
9B17
  3
D2
350
9B18
  0
DICTIONARY
  5
B52A
102
{ACAD_REACTORS
330
9AB4
102
}
330
9AB4
100
AcDbDictionary
281
1
  3
Imperial24
350
B52B
  0
DICTIONARY
  5
9AF2
102
{ACAD_REACTORS
330
9AB4
102
}
330
9AB4
100
AcDbDictionary
281
1
  3
Standard
350
9AF5
  0
DICTIONARY
  5
9AD7
102
{ACAD_REACTORS
330
9AB4
102
}
330
9AB4
100
AcDbDictionary
281
1
  3
2dWireframe
350
9AD6
  3
3D Hidden
350
9E39
  3
3dWireframe
350
9AF7
  3
Basic
350
9E38
  3
Brighten
350
9E3C
  3
ColorChange
350
9E40
  3
Conceptual
350
9E3A
  3
Dim
350
9E3B
  3
EdgeColorOff
350
9E43
  3
Facepattern
350
9E3F
  3
Flat
350
9E34
  3
FlatWithEdges
350
9E35
  3
Gouraud
350
9E36
  3
GouraudWithEdges
350
9E37
  3
Hidden
350
B524
  3
JitterOff
350
9E41
  3
Linepattern
350
9E3E
  3
OverhangOff
350
9E42
  3
Realistic
350
9AF6
  3
Shaded
350
B529
  3
Shaded with edges
350
B528
  3
Shades of Gray
350
B525
  3
Sketchy
350
B526
  3
Thicken
350
9E3D
  3
Wireframe
350
B523
  3
X-Ray
350
B527
  0
XRECORD
  5
9B2D
102
{ACAD_REACTORS
330
9AB4
102
}
330
9AB4
100
AcDbXrecord
280
1
 90
990106
  3
 
 60
0
 61
0
 62
1
 63
1
 64
0
 65
0
 66
0
 67
3
 68
1
 69
1
 70
0
 71
0
 72
0
 40
0.0
170
0
  0
XRECORD
  5
B910
102
{ACAD_REACTORS
330
9AB4
102
}
330
9AB4
100
AcDbXrecord
280
1
 90
1
330
9AF5
  0
DICTIONARY
  5
9E2B
102
{ACAD_REACTORS
330
9AB4
102
}
330
9AB4
100
AcDbDictionary
281
1
  3
CANNOSCALE
350
9E2F
  3
CMLEADERSTYLE
350
9E2D
  3
CTABLESTYLE
350
9E2C
  3
CVIEWDETAILSTYLE
350
B808
  3
CVIEWSECTIONSTYLE
350
B809
  3
LAYEREVAL
350
9E31
  3
LAYERNOTIFY
350
9E32
  3
LIGHTINGUNITS
350
9E30
  3
MSLTSCALE
350
9E2E
  0
DICTIONARY
  5
9B2E
102
{ACAD_REACTORS
330
9AB4
102
}
330
9AB4
100
AcDbDictionary
281
1
  0
DICTIONARY
  5
9B1B
102
{ACAD_REACTORS
330
9ACA
102
}
330
9ACA
100
AcDbDictionary
281
1
  0
DICTIONARY
  5
9ACB
102
{ACAD_REACTORS
330
9ACA
102
}
330
9ACA
100
AcDbDictionary
281
1
  0
XRECORD
  5
B53A
102
{ACAD_REACTORS
330
B539
102
}
330
B539
100
AcDbXrecord
280
1
290
1
  0
XRECORD
  5
B540
102
{ACAD_REACTORS
330
B53F
102
}
330
B53F
100
AcDbXrecord
280
1
290
1
  0
XRECORD
  5
B542
102
{ACAD_REACTORS
330
B541
102
}
330
B541
100
AcDbXrecord
280
1
290
1
  0
XRECORD
  5
B54C
102
{ACAD_REACTORS
330
B54B
102
}
330
B54B
100
AcDbXrecord
280
1
290
1
  0
SORTENTSTABLE
  5
9DF3
102
{ACAD_REACTORS
330
9DF2
102
}
330
9DF2
100
AcDbSortentsTable
330
9AAF
331
AD1A
  5
AD62
331
AD1B
  5
AD63
331
AD1C
  5
AD64
331
AD1D
  5
AD65
331
AD1E
  5
AD66
331
AD1F
  5
AD67
331
AD20
  5
AD68
331
AD21
  5
AD69
331
AD22
  5
AD6A
331
AD23
  5
AD6B
331
AD24
  5
AD6C
331
AD25
  5
AD71
331
AD26
  5
AF24
331
AD27
  5
AF25
331
AD28
  5
AF26
331
AD29
  5
AF27
331
AD2A
  5
AF2B
331
AD2B
  5
AF2C
331
AD2C
  5
AF2D
331
AD2D
  5
AF2E
331
AD2E
  5
AF33
331
AD2F
  5
AF38
331
AD30
  5
AF39
331
AD31
  5
AF3A
331
AD32
  5
AF3B
331
AD33
  5
AF3C
331
AD34
  5
AF3D
331
AD35
  5
AF3E
331
AD36
  5
AF3F
331
AD37
  5
AF40
331
AD38
  5
AF41
331
AD39
  5
AF48
331
AD3A
  5
AF4B
331
AD3B
  5
AF4C
331
AD3C
  5
AF4D
331
AD3D
  5
AF4E
331
AD3E
  5
AF51
331
AD3F
  5
AF54
331
AD40
  5
AF55
331
AD41
  5
AF56
331
AD42
  5
AF57
331
AD43
  5
AF58
331
AD44
  5
AF59
331
AD45
  5
AF5A
331
AD46
  5
AF5B
331
AD47
  5
AF5C
331
AD48
  5
AF5D
331
AD49
  5
AF5E
331
AD4A
  5
AF5F
331
AD4B
  5
AF60
331
AD4C
  5
AF61
331
AD4D
  5
AF62
331
AD4E
  5
AF63
331
AD4F
  5
AF64
331
AD50
  5
AF65
331
AD51
  5
AF66
331
AD52
  5
AF67
331
AD53
  5
AF68
331
AD54
  5
AF69
331
AD55
  5
AF6A
331
AD56
  5
AF6B
331
AD57
  5
AF6C
331
AD58
  5
AF6D
331
AD59
  5
AF6E
331
AD5A
  5
AF6F
331
AD5B
  5
AF71
331
AD5C
  5
AF73
331
AD5D
  5
AF74
331
AD5E
  5
AF76
331
AD5F
  5
AF78
331
AD60
  5
AF7A
331
AD61
  5
AF7C
331
AD62
  5
AF7E
331
AD63
  5
AF80
331
AD64
  5
AF82
331
AD65
  5
AF84
331
AD66
  5
AF86
331
AD67
  5
AF88
331
AD68
  5
AF8A
331
AD69
  5
AF8C
331
AD6A
  5
AF8E
331
AD6B
  5
AF90
331
AD6C
  5
AF92
331
AD71
  5
AF94
331
AF24
  5
AF96
331
AF25
  5
AF98
331
AF26
  5
AF9A
331
AF27
  5
AF9B
331
AF2B
  5
AF9C
331
AF2C
  5
AF9D
331
AF2D
  5
AF9E
331
AF2E
  5
AF9F
331
AF33
  5
AFA0
331
AF38
  5
AFA1
331
AF39
  5
AFA2
331
AF3A
  5
AFA3
331
AF3B
  5
AFA4
331
AF3C
  5
AFA5
331
AF3D
  5
AFA6
331
AF3E
  5
AFA7
331
AF3F
  5
AFA8
331
AF40
  5
AFA9
331
AF41
  5
AFAA
331
AF48
  5
AFAB
331
AF4B
  5
AFAC
331
AF4C
  5
AFAD
331
AF4D
  5
AFAE
331
AF4E
  5
AFAF
331
AF51
  5
AFB0
331
AF54
  5
AFB1
331
AF55
  5
AFB2
331
AF56
  5
AFB3
331
AF57
  5
AFB4
331
AF58
  5
AFB5
331
AF59
  5
AFB6
331
AF5A
  5
AFB7
331
AF5B
  5
AFB8
331
AF5C
  5
AFB9
331
AF5D
  5
AFBA
331
AF5E
  5
AFBB
331
AF5F
  5
AFBC
331
AF60
  5
AFBD
331
AF61
  5
AFBE
331
AF62
  5
AFF2
331
AF63
  5
AFFC
331
AF64
  5
B811
331
AF65
  5
B84F
331
AF66
  5
B850
331
AF67
  5
B851
331
AF68
  5
B852
331
AF69
  5
B853
331
AF6A
  5
B854
331
AF6B
  5
B855
331
AF6C
  5
B856
331
AF6D
  5
B857
331
AF6E
  5
B858
331
AF6F
  5
B859
331
AF71
  5
B85A
331
AF73
  5
B85B
331
AF74
  5
B85C
331
AF76
  5
B85D
331
AF78
  5
B85E
331
AF7A
  5
B85F
331
AF7C
  5
B860
331
AF7E
  5
B861
331
AF80
  5
B862
331
AF82
  5
B863
331
AF84
  5
B864
331
AF86
  5
B865
331
AF88
  5
B866
331
AF8A
  5
B867
331
AF8C
  5
B868
331
AF8E
  5
B869
331
AF90
  5
B86A
331
AF92
  5
B86B
331
AF94
  5
B86C
331
AF96
  5
B86D
331
AF98
  5
B86E
331
AF9A
  5
B86F
331
AF9B
  5
B870
331
AF9C
  5
B871
331
AF9D
  5
B872
331
AF9E
  5
B873
331
AF9F
  5
B874
331
AFA0
  5
B875
331
AFA1
  5
B876
331
AFA2
  5
B877
331
AFA3
  5
B878
331
AFA4
  5
B879
331
AFA5
  5
B87A
331
AFA6
  5
B87B
331
AFA7
  5
B87C
331
AFA8
  5
B87D
331
AFA9
  5
B87E
331
AFAA
  5
B87F
331
AFAB
  5
B880
331
AFAC
  5
B881
331
AFAD
  5
B882
331
AFAE
  5
B883
331
AFAF
  5
B884
331
AFB0
  5
B885
331
AFB1
  5
B886
331
AFB2
  5
B887
331
AFB3
  5
B888
331
AFB4
  5
B889
331
AFB5
  5
B88A
331
AFB6
  5
B88B
331
AFB7
  5
B88C
331
AFB8
  5
B88D
331
AFB9
  5
B88E
331
AFBA
  5
B88F
331
AFBB
  5
B890
331
AFBC
  5
B891
331
AFBD
  5
B892
331
B850
  5
AD1B
331
B859
  5
AD24
331
B85A
  5
AD25
331
B85B
  5
AD26
331
B85C
  5
AD27
331
B85D
  5
AD28
331
B85E
  5
AD29
331
B85F
  5
AD2A
331
B860
  5
AD2B
331
B861
  5
AD2C
331
B862
  5
AD2D
331
B863
  5
AD2E
331
B864
  5
AD2F
331
B865
  5
AD30
331
B866
  5
AD31
331
B867
  5
AD32
331
B868
  5
AD33
331
B869
  5
AD34
331
B86A
  5
AD35
331
B86D
  5
AD38
331
B86E
  5
AD39
331
B86F
  5
AD3A
331
B870
  5
AD3B
331
B871
  5
AD3C
331
B872
  5
AD3D
331
B873
  5
AD3E
331
B874
  5
AD3F
331
B875
  5
AD40
331
B876
  5
AD41
331
B877
  5
AD42
331
B878
  5
AD43
331
B879
  5
AD44
331
B87A
  5
AD45
331
B87B
  5
AD46
331
B87C
  5
AD47
331
B87D
  5
AD48
331
B87E
  5
AD49
331
B87F
  5
AD4A
331
B880
  5
AD4B
331
B881
  5
AD4C
331
B882
  5
AD4D
331
B883
  5
AD4E
331
B884
  5
AD4F
331
B885
  5
AD50
331
B886
  5
AD51
331
B887
  5
AD52
331
B888
  5
AD53
331
B889
  5
AD54
331
B88A
  5
AD55
331
B88B
  5
AD56
331
B88C
  5
AD57
331
B88D
  5
AD58
331
B88E
  5
AD59
331
B88F
  5
AD5A
331
B890
  5
AD5B
331
B891
  5
AD5C
331
B892
  5
AD5D
331
B893
  5
AD5E
331
B894
  5
AD5F
331
B895
  5
AD60
331
B896
  5
AD61
  0
DBCOLOR
  5
9C6C
102
{ACAD_REACTORS
330
9AF0
102
}
330
9AF0
100
AcDbColor
 62
18
1001
ACAD
1000
DBColXD
1070
18
1071
-1040187392
1000
Standard$black
1000
DBColXD
1070
18
1071
-1040187392
1000
Standard$black
1000
DBColXD
1070
18
1071
-1040187392
1000
Standard$black
1000
DBColXD
1070
18
1071
-1040187392
1000
Standard$black
1000
DBColXD
1070
18
1071
-1040187392
1000
Standard$black
  0
ACDBDETAILVIEWSTYLE
  5
B52D
102
{ACAD_REACTORS
330
B52C
102
}
330
B52C
100
AcDbModelDocViewStyle
 70
0
  3
Imperial24
290
0
300
Imperial24
 90
0
100
AcDbDetailViewStyle
 70
0
 71
0
 90
3
 71
1
340
9ACD
 62
256
 40
0.24
340
0
 62
256
 40
0.24
300

 40
0.36
280
3
 71
2
340
9ABE
 90
25
 62
256
 71
3
340
9ACD
 62
256
 40
0.24
 90
1
 40
0.75
 90
1
300
%<\AcVar ViewType \f "%tc1">% %<\AcVar ViewDetailId>%\PМАСШТАБ %<\AcVar ViewScale \f "%sn">%
 71
4
340
9ABE
 90
25
 62
256
340
9ABE
 90
25
 62
256
280
0
  0
LAYOUT
  5
9AC5
102
{ACAD_XDICTIONARY
360
9AC6
102
}
102
{ACAD_REACTORS
330
9AC1
102
}
330
9AC1
100
AcDbPlotSettings
  1

  2
none_device
  4
Letter_(8.50_x_11.00_Inches)
  6

 40
6.349999904632567
 41
6.349999904632567
 42
6.350006103515625
 43
6.350006103515625
 44
215.8999938964844
 45
279.3999938964844
 46
0.0
 47
0.0
 48
0.0
 49
0.0
140
0.0
141
0.0
142
1.0
143
1.0
 70
688
 72
0
 73
1
 74
5
  7

 75
16
 76
0
 77
2
 78
300
147
1.0
148
0.0
149
0.0
100
AcDbLayout
  1
Layout1
 70
0
 71
1
 10
-0.2500002402958907
 20
-0.2499999962453767
 11
10.74999951940821
 21
8.249999763458732
 12
0.0
 22
0.0
 32
0.0
 14
1.049743681505489
 24
0.7996673802841308
 34
-0.0015258207003583
 15
9.450622583565561
 25
7.200576801086516
 35
3.49246037e-08
146
0.0
 13
0.0
 23
0.0
 33
0.0
 16
1.0
 26
0.0
 36
0.0
 17
0.0
 27
1.0
 37
0.0
 76
0
330
9AC2
331
A9B4
1001
ACAD_PSEXT
1000
None
1000
None
1000
Not applicable
1000
The layout will not be plotted unless a new plotter configuration name is selected.
1070
0
  0
LAYOUT
  5
9AC0
102
{ACAD_REACTORS
330
9AC1
102
}
330
9AC1
100
AcDbPlotSettings
  1

  2
none_device
  4
ANSI_A_(8.50_x_11.00_Inches)
  6

 40
6.349999904632567
 41
19.04999923706055
 42
6.350006103515625
 43
19.04998779296875
 44
215.8999938964844
 45
279.3999938964844
 46
0.0
 47
0.0
 48
0.0
 49
0.0
140
0.0
141
0.0
142
1.0
143
2.584895464708373
 70
11952
 72
0
 73
1
 74
0
  7

 75
0
 76
0
 77
2
 78
300
147
0.3868628397755418
148
0.0
149
0.0
100
AcDbLayout
  1
Model
 70
1
 71
0
 10
0.0
 20
0.0
 11
12.0
 21
9.0
 12
0.0
 22
0.0
 32
0.0
 14
0.0
 24
0.0
 34
0.0
 15
0.0
 25
0.0
 35
0.0
146
0.0
 13
0.0
 23
0.0
 33
0.0
 16
1.0
 26
0.0
 36
0.0
 17
0.0
 27
1.0
 37
0.0
 76
0
330
9AAF
331
4B
  0
MATERIAL
  5
9AE8
102
{ACAD_XDICTIONARY
360
9AE9
102
}
102
{ACAD_REACTORS
330
9AB6
102
}
330
9AB6
100
AcDbMaterial
  1
ByBlock
  2

 70
0
 40
1.0
 71
0
 41
1.0
 91
-1023410177
 42
1.0
 72
0
  3

 73
1
 74
1
 75
1
 43
0.0208333333333333
 43
0.0
 43
0.0
 43
0.0
 43
0.0
 43
0.0208333333333333
 43
0.0
 43
0.0
 43
0.0
 43
0.0
 43
1.0
 43
0.0
 43
0.0
 43
0.0
 43
0.0
 43
1.0
 44
0.5
 73
0
 45
1.0
 46
1.0
 77
0
  4

 78
1
 79
1
170
1
 47
0.0208333333333333
 47
0.0
 47
0.0
 47
0.0
 47
0.0
 47
0.0208333333333333
 47
0.0
 47
0.0
 47
0.0
 47
0.0
 47
1.0
 47
0.0
 47
0.0
 47
0.0
 47
0.0
 47
1.0
 48
1.0
171
0
  6

172
1
173
1
174
1
 49
0.0208333333333333
 49
0.0
 49
0.0
 49
0.0
 49
0.0
 49
0.0208333333333333
 49
0.0
 49
0.0
 49
0.0
 49
0.0
 49
1.0
 49
0.0
 49
0.0
 49
0.0
 49
0.0
 49
1.0
140
1.0
141
1.0
175
0
  7

176
1
177
1
178
1
142
0.0208333333333333
142
0.0
142
0.0
142
0.0
142
0.0
142
0.0208333333333333
142
0.0
142
0.0
142
0.0
142
0.0
142
1.0
142
0.0
142
0.0
142
0.0
142
0.0
142
1.0
143
1.0
179
0
  8

270
1
271
1
272
1
144
0.0208333333333333
144
0.0
144
0.0
144
0.0
144
0.0
144
0.0208333333333333
144
0.0
144
0.0
144
0.0
144
0.0
144
1.0
144
0.0
144
0.0
144
0.0
144
0.0
144
1.0
145
1.0
146
1.0
273
1
  9

274
1
275
1
276
1
147
0.0208333333333333
147
0.0
147
0.0
147
0.0
147
0.0
147
0.0208333333333333
147
0.0
147
0.0
147
0.0
147
0.0
147
1.0
147
0.0
147
0.0
147
0.0
147
0.0
147
1.0
 42
1.0
 72
1
  3

 73
1
 74
1
 75
1
 94
63
  0
MATERIAL
  5
9AE0
102
{ACAD_XDICTIONARY
360
9AE1
102
}
102
{ACAD_REACTORS
330
9AB6
102
}
330
9AB6
100
AcDbMaterial
  1
ByLayer
  2

 70
0
 40
1.0
 71
0
 41
1.0
 91
-1023410177
 42
1.0
 72
0
  3

 73
1
 74
1
 75
1
 43
0.0208333333333333
 43
0.0
 43
0.0
 43
0.0
 43
0.0
 43
0.0208333333333333
 43
0.0
 43
0.0
 43
0.0
 43
0.0
 43
1.0
 43
0.0
 43
0.0
 43
0.0
 43
0.0
 43
1.0
 44
0.5
 73
0
 45
1.0
 46
1.0
 77
0
  4

 78
1
 79
1
170
1
 47
0.0208333333333333
 47
0.0
 47
0.0
 47
0.0
 47
0.0
 47
0.0208333333333333
 47
0.0
 47
0.0
 47
0.0
 47
0.0
 47
1.0
 47
0.0
 47
0.0
 47
0.0
 47
0.0
 47
1.0
 48
1.0
171
0
  6

172
1
173
1
174
1
 49
0.0208333333333333
 49
0.0
 49
0.0
 49
0.0
 49
0.0
 49
0.0208333333333333
 49
0.0
 49
0.0
 49
0.0
 49
0.0
 49
1.0
 49
0.0
 49
0.0
 49
0.0
 49
0.0
 49
1.0
140
1.0
141
1.0
175
0
  7

176
1
177
1
178
1
142
0.0208333333333333
142
0.0
142
0.0
142
0.0
142
0.0
142
0.0208333333333333
142
0.0
142
0.0
142
0.0
142
0.0
142
1.0
142
0.0
142
0.0
142
0.0
142
0.0
142
1.0
143
1.0
179
0
  8

270
1
271
1
272
1
144
0.0208333333333333
144
0.0
144
0.0
144
0.0
144
0.0
144
0.0208333333333333
144
0.0
144
0.0
144
0.0
144
0.0
144
1.0
144
0.0
144
0.0
144
0.0
144
0.0
144
1.0
145
1.0
146
1.0
273
1
  9

274
1
275
1
276
1
147
0.0208333333333333
147
0.0
147
0.0
147
0.0
147
0.0
147
0.0208333333333333
147
0.0
147
0.0
147
0.0
147
0.0
147
1.0
147
0.0
147
0.0
147
0.0
147
0.0
147
1.0
 42
1.0
 72
1
  3

 73
1
 74
1
 75
1
 94
63
  0
MATERIAL
  5
9AB5
102
{ACAD_XDICTIONARY
360
9AB7
102
}
102
{ACAD_REACTORS
330
9AB6
102
}
330
9AB6
100
AcDbMaterial
  1
Global
  2

 70
0
 40
1.0
 71
0
 41
1.0
 91
-1023410177
 42
1.0
 72
0
  3

 73
1
 74
1
 75
1
 43
0.0208333333333333
 43
0.0
 43
0.0
 43
0.0
 43
0.0
 43
0.0208333333333333
 43
0.0
 43
0.0
 43
0.0
 43
0.0
 43
1.0
 43
0.0
 43
0.0
 43
0.0
 43
0.0
 43
1.0
 44
0.5
 73
0
 45
1.0
 46
1.0
 77
0
  4

 78
1
 79
1
170
1
 47
0.0208333333333333
 47
0.0
 47
0.0
 47
0.0
 47
0.0
 47
0.0208333333333333
 47
0.0
 47
0.0
 47
0.0
 47
0.0
 47
1.0
 47
0.0
 47
0.0
 47
0.0
 47
0.0
 47
1.0
 48
1.0
171
0
  6

172
1
173
1
174
1
 49
0.0208333333333333
 49
0.0
 49
0.0
 49
0.0
 49
0.0
 49
0.0208333333333333
 49
0.0
 49
0.0
 49
0.0
 49
0.0
 49
1.0
 49
0.0
 49
0.0
 49
0.0
 49
0.0
 49
1.0
140
1.0
141
1.0
175
0
  7

176
1
177
1
178
1
142
0.0208333333333333
142
0.0
142
0.0
142
0.0
142
0.0
142
0.0208333333333333
142
0.0
142
0.0
142
0.0
142
0.0
142
1.0
142
0.0
142
0.0
142
0.0
142
0.0
142
1.0
143
1.0
179
0
  8

270
1
271
1
272
1
144
0.0208333333333333
144
0.0
144
0.0
144
0.0
144
0.0
144
0.0208333333333333
144
0.0
144
0.0
144
0.0
144
0.0
144
1.0
144
0.0
144
0.0
144
0.0
144
0.0
144
1.0
145
1.0
146
1.0
273
1
  9

274
1
275
1
276
1
147
0.0208333333333333
147
0.0
147
0.0
147
0.0
147
0.0
147
0.0208333333333333
147
0.0
147
0.0
147
0.0
147
0.0
147
1.0
147
0.0
147
0.0
147
0.0
147
0.0
147
1.0
 42
1.0
 72
1
  3

 73
1
 74
1
 75
1
 94
63
  0
MLEADERSTYLE
  5
9E44
102
{ACAD_REACTORS
330
9AF3
102
}
330
9AF3
100
AcDbMLeaderStyle
179
2
170
2
171
1
172
0
 90
2
 40
0.0
 41
0.0
173
1
 91
-1056964608
340
9AD0
 92
-2
290
1
 42
0.09
291
1
 43
0.36
  3
Standard
 44
0.18
300

342
9ACD
174
1
175
1
176
0
178
6
 93
-1056964608
 45
0.18
292
0
297
0
 46
0.18
293
1
 94
-1056964608
 47
1.0
 49
1.0
140
1.0
294
1
141
0.0
177
0
142
1.0
295
0
296
0
143
0.125
271
0
272
9
273
9
298
0
  0
MLINESTYLE
  5
9AF4
102
{ACAD_REACTORS
330
9ADE
102
}
330
9ADE
100
AcDbMlineStyle
  2
STANDARD
 70
0
  3

 62
256
 51
90.0
 52
90.0
 71
2
 49
0.5
 62
256
  6
BYLAYER
 49
-0.5
 62
256
  6
BYLAYER
  0
ACDBPLACEHOLDER
  5
9AB2
102
{ACAD_REACTORS
330
9AB3
102
}
330
9AB3
  0
SCALE
  5
9AF8
102
{ACAD_REACTORS
330
9AF1
102
}
330
9AF1
100
AcDbScale
 70
0
300
1:1
140
1.0
141
1.0
290
1
  0
SCALE
  5
9AF9
102
{ACAD_REACTORS
330
9AF1
102
}
330
9AF1
100
AcDbScale
 70
0
300
1:2
140
1.0
141
2.0
290
0
  0
SCALE
  5
9AFA
102
{ACAD_REACTORS
330
9AF1
102
}
330
9AF1
100
AcDbScale
 70
0
300
1:4
140
1.0
141
4.0
290
0
  0
SCALE
  5
9AFB
102
{ACAD_REACTORS
330
9AF1
102
}
330
9AF1
100
AcDbScale
 70
0
300
1:5
140
1.0
141
5.0
290
0
  0
SCALE
  5
9AFC
102
{ACAD_REACTORS
330
9AF1
102
}
330
9AF1
100
AcDbScale
 70
0
300
1:8
140
1.0
141
8.0
290
0
  0
SCALE
  5
9AFD
102
{ACAD_REACTORS
330
9AF1
102
}
330
9AF1
100
AcDbScale
 70
0
300
1:10
140
1.0
141
10.0
290
0
  0
SCALE
  5
9AFE
102
{ACAD_REACTORS
330
9AF1
102
}
330
9AF1
100
AcDbScale
 70
0
300
1:16
140
1.0
141
16.0
290
0
  0
SCALE
  5
9AFF
102
{ACAD_REACTORS
330
9AF1
102
}
330
9AF1
100
AcDbScale
 70
0
300
1:20
140
1.0
141
20.0
290
0
  0
SCALE
  5
9B00
102
{ACAD_REACTORS
330
9AF1
102
}
330
9AF1
100
AcDbScale
 70
0
300
1:30
140
1.0
141
30.0
290
0
  0
SCALE
  5
9B01
102
{ACAD_REACTORS
330
9AF1
102
}
330
9AF1
100
AcDbScale
 70
0
300
1:40
140
1.0
141
40.0
290
0
  0
SCALE
  5
9B02
102
{ACAD_REACTORS
330
9AF1
102
}
330
9AF1
100
AcDbScale
 70
0
300
1:50
140
1.0
141
50.0
290
0
  0
SCALE
  5
9B03
102
{ACAD_REACTORS
330
9AF1
102
}
330
9AF1
100
AcDbScale
 70
0
300
1:100
140
1.0
141
100.0
290
0
  0
SCALE
  5
9B04
102
{ACAD_REACTORS
330
9AF1
102
}
330
9AF1
100
AcDbScale
 70
0
300
2:1
140
2.0
141
1.0
290
0
  0
SCALE
  5
9B05
102
{ACAD_REACTORS
330
9AF1
102
}
330
9AF1
100
AcDbScale
 70
0
300
4:1
140
4.0
141
1.0
290
0
  0
SCALE
  5
9B06
102
{ACAD_REACTORS
330
9AF1
102
}
330
9AF1
100
AcDbScale
 70
0
300
8:1
140
8.0
141
1.0
290
0
  0
SCALE
  5
9B07
102
{ACAD_REACTORS
330
9AF1
102
}
330
9AF1
100
AcDbScale
 70
0
300
10:1
140
10.0
141
1.0
290
0
  0
SCALE
  5
9B08
102
{ACAD_REACTORS
330
9AF1
102
}
330
9AF1
100
AcDbScale
 70
0
300
100:1
140
100.0
141
1.0
290
0
  0
SCALE
  5
9B09
102
{ACAD_REACTORS
330
9AF1
102
}
330
9AF1
100
AcDbScale
 70
0
300
1/128" = 1'-0"
140
0.0078125
141
12.0
290
0
  0
SCALE
  5
9B0A
102
{ACAD_REACTORS
330
9AF1
102
}
330
9AF1
100
AcDbScale
 70
0
300
1/64" = 1'-0"
140
0.015625
141
12.0
290
0
  0
SCALE
  5
9B0B
102
{ACAD_REACTORS
330
9AF1
102
}
330
9AF1
100
AcDbScale
 70
0
300
1/32" = 1'-0"
140
0.03125
141
12.0
290
0
  0
SCALE
  5
9B0C
102
{ACAD_REACTORS
330
9AF1
102
}
330
9AF1
100
AcDbScale
 70
0
300
1/16" = 1'-0"
140
0.0625
141
12.0
290
0
  0
SCALE
  5
9B0D
102
{ACAD_REACTORS
330
9AF1
102
}
330
9AF1
100
AcDbScale
 70
0
300
3/32" = 1'-0"
140
0.09375
141
12.0
290
0
  0
SCALE
  5
9B0E
102
{ACAD_REACTORS
330
9AF1
102
}
330
9AF1
100
AcDbScale
 70
0
300
1/8" = 1'-0"
140
0.125
141
12.0
290
0
  0
SCALE
  5
9B0F
102
{ACAD_REACTORS
330
9AF1
102
}
330
9AF1
100
AcDbScale
 70
0
300
3/16" = 1'-0"
140
0.1875
141
12.0
290
0
  0
SCALE
  5
9B10
102
{ACAD_REACTORS
330
9AF1
102
}
330
9AF1
100
AcDbScale
 70
0
300
1/4" = 1'-0"
140
0.25
141
12.0
290
0
  0
SCALE
  5
9B11
102
{ACAD_REACTORS
330
9AF1
102
}
330
9AF1
100
AcDbScale
 70
0
300
3/8" = 1'-0"
140
0.375
141
12.0
290
0
  0
SCALE
  5
9B12
102
{ACAD_REACTORS
330
9AF1
102
}
330
9AF1
100
AcDbScale
 70
0
300
1/2" = 1'-0"
140
0.5
141
12.0
290
0
  0
SCALE
  5
9B13
102
{ACAD_REACTORS
330
9AF1
102
}
330
9AF1
100
AcDbScale
 70
0
300
3/4" = 1'-0"
140
0.75
141
12.0
290
0
  0
SCALE
  5
9B14
102
{ACAD_REACTORS
330
9AF1
102
}
330
9AF1
100
AcDbScale
 70
0
300
1" = 1'-0"
140
1.0
141
12.0
290
0
  0
SCALE
  5
9B15
102
{ACAD_REACTORS
330
9AF1
102
}
330
9AF1
100
AcDbScale
 70
0
300
1-1/2" = 1'-0"
140
1.5
141
12.0
290
0
  0
SCALE
  5
9B16
102
{ACAD_REACTORS
330
9AF1
102
}
330
9AF1
100
AcDbScale
 70
0
300
3" = 1'-0"
140
3.0
141
12.0
290
0
  0
SCALE
  5
9B17
102
{ACAD_REACTORS
330
9AF1
102
}
330
9AF1
100
AcDbScale
 70
0
300
6" = 1'-0"
140
6.0
141
12.0
290
0
  0
SCALE
  5
9B18
102
{ACAD_REACTORS
330
9AF1
102
}
330
9AF1
100
AcDbScale
 70
0
300
1'-0" = 1'-0"
140
12.0
141
12.0
290
0
  0
ACDBSECTIONVIEWSTYLE
  5
B52B
102
{ACAD_REACTORS
330
B52A
102
}
330
B52A
100
AcDbModelDocViewStyle
 70
0
  3
Imperial24
290
0
300
Imperial24
 90
0
100
AcDbSectionViewStyle
 70
0
 71
0
 90
78
 71
1
340
9ACD
 62
256
 40
0.24
340
0
340
0
 62
256
 40
0.24
300
I, O, Q, S, X, Z
 40
0.48
 90
3
 40
0.18
 90
1
 71
2
340
9ABE
 90
25
 62
256
340
9ABE
 90
50
 62
256
 40
0.24
 40
0.0
 40
0.24
 71
3
340
9ACD
 62
256
 40
0.24
 90
1
 40
0.75
 90
1
300
%<\AcVar ViewType \f "%tc1">% %<\AcVar ViewSectionStartId>%-%<\AcVar ViewSectionEndId>%\PМАСШТАБ %<\AcVar ViewScale \f "%sn">%
 71
4
 62
256
 62
257
300
ANSI31
 40
1.0
 90
0
290
0
290
0
 90
6
 40
0.0
 40
1.570796326794896
 40
0.2617993877991494
 40
1.308996938995747
 40
-0.2617993877991494
 40
1.832595714594044
  0
TABLESTYLE
  5
9AF5
102
{ACAD_XDICTIONARY
360
9E22
102
}
102
{ACAD_REACTORS
330
9AF2
102
}
330
9AF2
100
AcDbTableStyle
280
0
  3
Standard
 70
0
 71
0
 40
0.06
 41
0.06
280
0
281
0
  7
STANDARD
140
0.18
170
2
 62
0
 63
7
283
0
 90
4
 91
0
  1

274
-2
284
1
 64
0
275
-2
285
1
 65
0
276
-2
286
1
 66
0
277
-2
287
1
 67
0
278
-2
288
1
 68
0
279
-2
289
1
 69
0
  7
STANDARD
140
0.25
170
5
 62
0
 63
7
283
0
 90
4
 91
0
  1

274
-2
284
1
 64
0
275
-2
285
1
 65
0
276
-2
286
1
 66
0
277
-2
287
1
 67
0
278
-2
288
1
 68
0
279
-2
289
1
 69
0
  7
STANDARD
140
0.18
170
5
 62
0
 63
7
283
0
 90
4
 91
0
  1

274
-2
284
1
 64
0
275
-2
285
1
 65
0
276
-2
286
1
 66
0
277
-2
287
1
 67
0
278
-2
288
1
 68
0
279
-2
289
1
 69
0
  0
VISUALSTYLE
  5
9AD6
102
{ACAD_REACTORS
330
9AD7
102
}
330
9AD7
100
AcDbVisualStyle
  2
2dWireframe
 70
4
177
3
291
0
 70
58
 90
0
176
1
 90
2
176
1
 90
0
176
1
 90
0
176
1
 40
0.6
176
1
 40
30.0
176
1
 62
7
420
16777215
176
1
 90
1
176
1
 90
4
176
1
 62
7
176
1
 62
257
176
1
 90
1
176
1
 90
1
176
1
 40
1.0
176
1
 90
0
176
1
 62
257
176
1
 40
1.0
176
1
 90
1
176
1
 90
6
176
1
 90
2
176
1
 62
7
176
1
 90
5
176
1
 90
0
176
1
 90
0
176
1
290
0
176
1
 90
1
176
1
 40
0.0
176
1
 90
0
176
1
290
1
176
1
290
1
176
1
290
0
176
1
290
0
176
1
290
0
176
1
290
0
176
1
290
0
176
1
290
0
176
1
290
0
176
1
 90
50
176
1
 40
0.0
176
1
 40
1.0
176
1
 90
0
176
1
 62
18
176
1
 90
50
176
1
 90
3
176
1
 62
5
420
255
176
1
290
0
176
1
 90
50
176
1
 90
50
176
1
 90
50
176
1
290
0
176
1
 90
50
176
1
 62
256
176
0
 40
1.0
176
0
 90
2
176
1
  1
strokes_ogs.tif
176
1
290
0
176
1
 40
1.0
176
1
 40
1.0
176
1
  0
VISUALSTYLE
  5
9E39
102
{ACAD_REACTORS
330
9AD7
102
}
330
9AD7
100
AcDbVisualStyle
  2
3D Hidden
 70
6
177
3
291
0
 70
58
 90
1
176
1
 90
2
176
1
 90
2
176
1
 90
0
176
1
 40
0.6
176
1
 40
30.0
176
1
 62
7
420
16777215
176
1
 90
2
176
1
 90
2
176
1
 62
7
176
1
 62
257
176
1
 90
2
176
1
 90
1
176
1
 40
179.0
176
1
 90
0
176
1
 62
257
176
1
 40
1.0
176
1
 90
1
176
1
 90
6
176
1
 90
2
176
1
 62
7
176
1
 90
3
176
1
 90
0
176
1
 90
0
176
1
290
0
176
1
 90
1
176
1
 40
0.0
176
1
 90
0
176
1
290
0
176
1
290
1
176
1
290
1
176
1
290
0
176
1
290
0
176
1
290
0
176
1
290
0
176
1
290
0
176
1
290
0
176
1
 90
50
176
1
 40
0.0
176
1
 40
1.0
176
1
 90
0
176
1
 62
18
176
1
 90
50
176
1
 90
3
176
1
 62
5
420
255
176
1
290
0
176
1
 90
50
176
1
 90
50
176
1
 90
50
176
1
290
0
176
1
 90
50
176
1
 62
256
176
0
 40
1.0
176
0
 90
2
176
1
  1
strokes_ogs.tif
176
1
290
0
176
1
 40
1.0
176
1
 40
1.0
176
1
  0
VISUALSTYLE
  5
9AF7
102
{ACAD_REACTORS
330
9AD7
102
}
330
9AD7
100
AcDbVisualStyle
  2
3dWireframe
 70
5
177
3
291
0
 70
58
 90
0
176
1
 90
2
176
1
 90
0
176
1
 90
0
176
1
 40
0.6
176
1
 40
30.0
176
1
 62
7
420
16777215
176
1
 90
1
176
1
 90
4
176
1
 62
7
176
1
 62
257
176
1
 90
1
176
1
 90
1
176
1
 40
1.0
176
1
 90
0
176
1
 62
257
176
1
 40
1.0
176
1
 90
1
176
1
 90
6
176
1
 90
2
176
1
 62
7
176
1
 90
5
176
1
 90
0
176
1
 90
0
176
1
290
0
176
1
 90
1
176
1
 40
0.0
176
1
 90
0
176
1
290
0
176
1
290
1
176
1
290
1
176
1
290
0
176
1
290
0
176
1
290
0
176
1
290
0
176
1
290
0
176
1
290
0
176
1
 90
50
176
1
 40
0.0
176
1
 40
1.0
176
1
 90
0
176
1
 62
18
176
1
 90
50
176
1
 90
3
176
1
 62
5
420
255
176
1
290
0
176
1
 90
50
176
1
 90
50
176
1
 90
50
176
1
290
0
176
1
 90
50
176
1
 62
256
176
0
 40
1.0
176
0
 90
2
176
1
  1
strokes_ogs.tif
176
1
290
0
176
1
 40
1.0
176
1
 40
1.0
176
1
  0
VISUALSTYLE
  5
9E38
102
{ACAD_REACTORS
330
9AD7
102
}
330
9AD7
100
AcDbVisualStyle
  2
Basic
 70
7
177
3
291
1
 70
58
 90
1
176
1
 90
0
176
1
 90
1
176
1
 90
0
176
1
 40
0.6
176
1
 40
30.0
176
1
 62
7
420
16777215
176
1
 90
0
176
1
 90
4
176
1
 62
7
176
1
 62
257
176
1
 90
1
176
1
 90
1
176
1
 40
1.0
176
1
 90
8
176
1
 62
7
176
1
 40
1.0
176
1
 90
1
176
1
 90
6
176
1
 90
2
176
1
 62
7
176
1
 90
5
176
1
 90
0
176
1
 90
0
176
1
290
0
176
1
 90
1
176
1
 40
0.0
176
1
 90
0
176
1
290
0
176
1
290
1
176
1
290
1
176
1
290
0
176
1
290
0
176
1
290
0
176
1
290
0
176
1
290
0
176
1
290
0
176
1
 90
50
176
1
 40
0.0
176
1
 40
1.0
176
1
 90
0
176
1
 62
18
176
1
 90
50
176
1
 90
3
176
1
 62
5
420
255
176
1
290
0
176
1
 90
50
176
1
 90
50
176
1
 90
50
176
1
290
0
176
1
 90
50
176
1
 62
256
176
0
 40
1.0
176
0
 90
2
176
1
  1
strokes_ogs.tif
176
1
290
0
176
1
 40
1.0
176
1
 40
1.0
176
1
  0
VISUALSTYLE
  5
9E3C
102
{ACAD_REACTORS
330
9AD7
102
}
330
9AD7
100
AcDbVisualStyle
  2
Brighten
 70
12
177
3
291
1
 70
58
 90
2
176
1
 90
2
176
1
 90
0
176
1
 90
0
176
1
 40
0.6
176
1
 40
30.0
176
1
 62
7
420
16777215
176
1
 90
1
176
1
 90
4
176
1
 62
7
176
1
 62
257
176
1
 90
1
176
1
 90
1
176
1
 40
1.0
176
1
 90
8
176
1
 62
7
176
1
 40
1.0
176
1
 90
1
176
1
 90
6
176
1
 90
2
176
1
 62
7
176
1
 90
5
176
1
 90
0
176
1
 90
0
176
1
290
0
176
1
 90
1
176
1
 40
50.0
176
1
 90
0
176
1
290
0
176
1
290
1
176
1
290
1
176
1
290
0
176
1
290
0
176
1
290
0
176
1
290
0
176
1
290
0
176
1
290
0
176
1
 90
50
176
1
 40
0.0
176
1
 40
1.0
176
1
 90
0
176
1
 62
18
176
1
 90
50
176
1
 90
3
176
1
 62
5
420
255
176
1
290
0
176
1
 90
50
176
1
 90
50
176
1
 90
50
176
1
290
0
176
1
 90
50
176
1
 62
256
176
0
 40
1.0
176
0
 90
2
176
1
  1
strokes_ogs.tif
176
1
290
0
176
1
 40
1.0
176
1
 40
1.0
176
1
  0
VISUALSTYLE
  5
9E40
102
{ACAD_REACTORS
330
9AD7
102
}
330
9AD7
100
AcDbVisualStyle
  2
ColorChange
 70
16
177
3
291
1
 70
58
 90
2
176
1
 90
2
176
1
 90
3
176
1
 90
0
176
1
 40
0.6
176
1
 40
30.0
176
1
 62
8
420
8421504
176
1
 90
1
176
1
 90
4
176
1
 62
7
176
1
 62
257
176
1
 90
1
176
1
 90
1
176
1
 40
1.0
176
1
 90
8
176
1
 62
8
420
8421504
176
1
 40
1.0
176
1
 90
1
176
1
 90
6
176
1
 90
2
176
1
 62
7
176
1
 90
5
176
1
 90
0
176
1
 90
0
176
1
290
0
176
1
 90
1
176
1
 40
0.0
176
1
 90
0
176
1
290
0
176
1
290
1
176
1
290
1
176
1
290
0
176
1
290
0
176
1
290
0
176
1
290
0
176
1
290
0
176
1
290
0
176
1
 90
50
176
1
 40
0.0
176
1
 40
1.0
176
1
 90
0
176
1
 62
18
176
1
 90
50
176
1
 90
3
176
1
 62
5
420
255
176
1
290
0
176
1
 90
50
176
1
 90
50
176
1
 90
50
176
1
290
0
176
1
 90
50
176
1
 62
256
176
0
 40
1.0
176
0
 90
2
176
1
  1
strokes_ogs.tif
176
1
290
0
176
1
 40
1.0
176
1
 40
1.0
176
1
  0
VISUALSTYLE
  5
9E3A
102
{ACAD_REACTORS
330
9AD7
102
}
330
9AD7
100
AcDbVisualStyle
  2
Conceptual
 70
9
177
3
291
0
 70
58
 90
3
176
1
 90
2
176
1
 90
0
176
1
 90
0
176
1
 40
0.6
176
1
 40
30.0
176
1
 62
7
420
16777215
176
1
 90
2
176
1
 90
2
176
1
 62
7
176
1
 62
257
176
1
 90
1
176
1
 90
1
176
1
 40
179.0
176
1
 90
8
176
1
 62
7
176
1
 40
1.0
176
1
 90
1
176
1
 90
6
176
1
 90
2
176
1
 62
7
176
1
 90
3
176
1
 90
0
176
1
 90
0
176
1
290
0
176
1
 90
1
176
1
 40
0.0
176
1
 90
0
176
1
290
0
176
1
290
1
176
1
290
1
176
1
290
0
176
1
290
0
176
1
290
0
176
1
290
0
176
1
290
0
176
1
290
0
176
1
 90
50
176
1
 40
0.0
176
1
 40
1.0
176
1
 90
0
176
1
 62
18
176
1
 90
50
176
1
 90
3
176
1
 62
5
420
255
176
1
290
0
176
1
 90
50
176
1
 90
50
176
1
 90
50
176
1
290
0
176
1
 90
50
176
1
 62
256
176
0
 40
1.0
176
0
 90
2
176
1
  1
strokes_ogs.tif
176
1
290
0
176
1
 40
1.0
176
1
 40
1.0
176
1
  0
VISUALSTYLE
  5
9E3B
102
{ACAD_REACTORS
330
9AD7
102
}
330
9AD7
100
AcDbVisualStyle
  2
Dim
 70
11
177
3
291
1
 70
58
 90
2
176
1
 90
2
176
1
 90
0
176
1
 90
0
176
1
 40
0.6
176
1
 40
30.0
176
1
 62
7
420
16777215
176
1
 90
1
176
1
 90
4
176
1
 62
7
176
1
 62
257
176
1
 90
1
176
1
 90
1
176
1
 40
1.0
176
1
 90
8
176
1
 62
7
176
1
 40
1.0
176
1
 90
1
176
1
 90
6
176
1
 90
2
176
1
 62
7
176
1
 90
5
176
1
 90
0
176
1
 90
0
176
1
290
0
176
1
 90
1
176
1
 40
-50.0
176
1
 90
0
176
1
290
0
176
1
290
1
176
1
290
1
176
1
290
0
176
1
290
0
176
1
290
0
176
1
290
0
176
1
290
0
176
1
290
0
176
1
 90
50
176
1
 40
0.0
176
1
 40
1.0
176
1
 90
0
176
1
 62
18
176
1
 90
50
176
1
 90
3
176
1
 62
5
420
255
176
1
290
0
176
1
 90
50
176
1
 90
50
176
1
 90
50
176
1
290
0
176
1
 90
50
176
1
 62
256
176
0
 40
1.0
176
0
 90
2
176
1
  1
strokes_ogs.tif
176
1
290
0
176
1
 40
1.0
176
1
 40
1.0
176
1
  0
VISUALSTYLE
  5
9E43
102
{ACAD_REACTORS
330
9AD7
102
}
330
9AD7
100
AcDbVisualStyle
  2
EdgeColorOff
 70
22
177
3
291
1
 70
58
 90
2
176
0
 90
2
176
0
 90
0
176
0
 90
0
176
0
 40
0.6
176
0
 40
30.0
176
0
 62
7
420
16777215
176
0
 90
1
176
0
 90
4
176
0
 62
7
176
0
 62
257
176
0
 90
1
176
0
 90
1
176
0
 40
1.0
176
0
 90
8
176
2
 62
7
176
0
 40
1.0
176
0
 90
1
176
0
 90
6
176
0
 90
2
176
0
 62
7
176
0
 90
5
176
0
 90
0
176
0
 90
0
176
0
290
0
176
0
 90
1
176
0
 40
0.0
176
0
 90
0
176
0
290
0
176
1
290
1
176
1
290
1
176
1
290
0
176
1
290
0
176
1
290
0
176
1
290
0
176
1
290
0
176
1
290
0
176
1
 90
50
176
1
 40
0.0
176
1
 40
1.0
176
1
 90
0
176
1
 62
18
176
1
 90
50
176
1
 90
3
176
1
 62
5
420
255
176
1
290
0
176
1
 90
50
176
1
 90
50
176
1
 90
50
176
1
290
0
176
1
 90
50
176
1
 62
256
176
0
 40
1.0
176
0
 90
2
176
1
  1
strokes_ogs.tif
176
1
290
0
176
1
 40
1.0
176
1
 40
1.0
176
1
  0
VISUALSTYLE
  5
9E3F
102
{ACAD_REACTORS
330
9AD7
102
}
330
9AD7
100
AcDbVisualStyle
  2
Facepattern
 70
15
177
3
291
1
 70
58
 90
2
176
1
 90
2
176
1
 90
0
176
1
 90
0
176
1
 40
0.6
176
1
 40
30.0
176
1
 62
7
420
16777215
176
1
 90
1
176
1
 90
4
176
1
 62
7
176
1
 62
257
176
1
 90
1
176
1
 90
1
176
1
 40
1.0
176
1
 90
8
176
1
 62
7
176
1
 40
1.0
176
1
 90
1
176
1
 90
6
176
1
 90
2
176
1
 62
7
176
1
 90
5
176
1
 90
0
176
1
 90
0
176
1
290
0
176
1
 90
1
176
1
 40
0.0
176
1
 90
0
176
1
290
0
176
1
290
1
176
1
290
1
176
1
290
0
176
1
290
0
176
1
290
0
176
1
290
0
176
1
290
0
176
1
290
0
176
1
 90
50
176
1
 40
0.0
176
1
 40
1.0
176
1
 90
0
176
1
 62
18
176
1
 90
50
176
1
 90
3
176
1
 62
5
420
255
176
1
290
0
176
1
 90
50
176
1
 90
50
176
1
 90
50
176
1
290
0
176
1
 90
50
176
1
 62
256
176
0
 40
1.0
176
0
 90
2
176
1
  1
strokes_ogs.tif
176
1
290
0
176
1
 40
1.0
176
1
 40
1.0
176
1
  0
VISUALSTYLE
  5
9E34
102
{ACAD_REACTORS
330
9AD7
102
}
330
9AD7
100
AcDbVisualStyle
  2
Flat
 70
0
177
3
291
1
 70
58
 90
2
176
1
 90
1
176
1
 90
1
176
1
 90
2
176
1
 40
0.6
176
1
 40
30.0
176
1
 62
7
420
16777215
176
1
 90
0
176
1
 90
4
176
1
 62
7
176
1
 62
257
176
1
 90
1
176
1
 90
1
176
1
 40
1.0
176
1
 90
8
176
1
 62
7
176
1
 40
1.0
176
1
 90
1
176
1
 90
6
176
1
 90
2
176
1
 62
7
176
1
 90
5
176
1
 90
0
176
1
 90
0
176
1
290
0
176
1
 90
13
176
1
 40
0.0
176
1
 90
0
176
1
290
0
176
1
290
1
176
1
290
1
176
1
290
0
176
1
290
0
176
1
290
0
176
1
290
0
176
1
290
0
176
1
290
0
176
1
 90
50
176
1
 40
0.0
176
1
 40
1.0
176
1
 90
0
176
1
 62
18
176
1
 90
50
176
1
 90
3
176
1
 62
5
420
255
176
1
290
0
176
1
 90
50
176
1
 90
50
176
1
 90
50
176
1
290
0
176
1
 90
50
176
1
 62
256
176
0
 40
1.0
176
0
 90
2
176
1
  1
strokes_ogs.tif
176
1
290
0
176
1
 40
1.0
176
1
 40
1.0
176
1
  0
VISUALSTYLE
  5
9E35
102
{ACAD_REACTORS
330
9AD7
102
}
330
9AD7
100
AcDbVisualStyle
  2
FlatWithEdges
 70
1
177
3
291
1
 70
58
 90
2
176
1
 90
1
176
1
 90
1
176
1
 90
2
176
1
 40
0.6
176
1
 40
30.0
176
1
 62
7
420
16777215
176
1
 90
1
176
1
 90
4
176
1
 62
7
176
1
 62
257
176
1
 90
1
176
1
 90
1
176
1
 40
1.0
176
1
 90
0
176
1
 62
257
176
1
 40
1.0
176
1
 90
1
176
1
 90
6
176
1
 90
2
176
1
 62
7
176
1
 90
5
176
1
 90
0
176
1
 90
0
176
1
290
0
176
1
 90
13
176
1
 40
0.0
176
1
 90
0
176
1
290
0
176
1
290
1
176
1
290
1
176
1
290
0
176
1
290
0
176
1
290
0
176
1
290
0
176
1
290
0
176
1
290
0
176
1
 90
50
176
1
 40
0.0
176
1
 40
1.0
176
1
 90
0
176
1
 62
18
176
1
 90
50
176
1
 90
3
176
1
 62
5
420
255
176
1
290
0
176
1
 90
50
176
1
 90
50
176
1
 90
50
176
1
290
0
176
1
 90
50
176
1
 62
256
176
0
 40
1.0
176
0
 90
2
176
1
  1
strokes_ogs.tif
176
1
290
0
176
1
 40
1.0
176
1
 40
1.0
176
1
  0
VISUALSTYLE
  5
9E36
102
{ACAD_REACTORS
330
9AD7
102
}
330
9AD7
100
AcDbVisualStyle
  2
Gouraud
 70
2
177
3
291
1
 70
58
 90
2
176
1
 90
2
176
1
 90
1
176
1
 90
2
176
1
 40
0.6
176
1
 40
30.0
176
1
 62
7
420
16777215
176
1
 90
0
176
1
 90
4
176
1
 62
7
176
1
 62
257
176
1
 90
1
176
1
 90
1
176
1
 40
1.0
176
1
 90
0
176
1
 62
7
176
1
 40
1.0
176
1
 90
1
176
1
 90
6
176
1
 90
2
176
1
 62
7
176
1
 90
5
176
1
 90
0
176
1
 90
0
176
1
290
0
176
1
 90
13
176
1
 40
0.0
176
1
 90
0
176
1
290
0
176
1
290
1
176
1
290
1
176
1
290
0
176
1
290
0
176
1
290
0
176
1
290
0
176
1
290
0
176
1
290
0
176
1
 90
50
176
1
 40
0.0
176
1
 40
1.0
176
1
 90
0
176
1
 62
18
176
1
 90
50
176
1
 90
3
176
1
 62
5
420
255
176
1
290
0
176
1
 90
50
176
1
 90
50
176
1
 90
50
176
1
290
0
176
1
 90
50
176
1
 62
256
176
0
 40
1.0
176
0
 90
2
176
1
  1
strokes_ogs.tif
176
1
290
0
176
1
 40
1.0
176
1
 40
1.0
176
1
  0
VISUALSTYLE
  5
9E37
102
{ACAD_REACTORS
330
9AD7
102
}
330
9AD7
100
AcDbVisualStyle
  2
GouraudWithEdges
 70
3
177
3
291
1
 70
58
 90
2
176
1
 90
2
176
1
 90
1
176
1
 90
2
176
1
 40
0.6
176
1
 40
30.0
176
1
 62
7
420
16777215
176
1
 90
1
176
1
 90
4
176
1
 62
7
176
1
 62
257
176
1
 90
1
176
1
 90
1
176
1
 40
1.0
176
1
 90
0
176
1
 62
257
176
1
 40
1.0
176
1
 90
1
176
1
 90
6
176
1
 90
2
176
1
 62
7
176
1
 90
5
176
1
 90
0
176
1
 90
0
176
1
290
0
176
1
 90
13
176
1
 40
0.0
176
1
 90
0
176
1
290
0
176
1
290
1
176
1
290
1
176
1
290
0
176
1
290
0
176
1
290
0
176
1
290
0
176
1
290
0
176
1
290
0
176
1
 90
50
176
1
 40
0.0
176
1
 40
1.0
176
1
 90
0
176
1
 62
18
176
1
 90
50
176
1
 90
3
176
1
 62
5
420
255
176
1
290
0
176
1
 90
50
176
1
 90
50
176
1
 90
50
176
1
290
0
176
1
 90
50
176
1
 62
256
176
0
 40
1.0
176
0
 90
2
176
1
  1
strokes_ogs.tif
176
1
290
0
176
1
 40
1.0
176
1
 40
1.0
176
1
  0
VISUALSTYLE
  5
B524
102
{ACAD_REACTORS
330
9AD7
102
}
330
9AD7
100
AcDbVisualStyle
  2
Hidden
 70
6
177
3
291
0
 70
58
 90
1
176
1
 90
2
176
1
 90
2
176
1
 90
0
176
1
 40
0.6
176
1
 40
30.0
176
1
 62
7
420
16777215
176
1
 90
2
176
1
 90
2
176
1
 62
7
176
1
 62
257
176
1
 90
2
176
1
 90
1
176
1
 40
40.0
176
1
 90
0
176
1
 62
257
176
1
 40
1.0
176
1
 90
1
176
1
 90
6
176
1
 90
2
176
1
 62
7
176
1
 90
3
176
1
 90
0
176
1
 90
0
176
1
290
0
176
1
 90
1
176
1
 40
0.0
176
1
 90
0
176
1
290
0
176
1
290
1
176
1
290
1
176
1
290
0
176
1
290
0
176
1
290
0
176
1
290
0
176
1
290
0
176
1
290
0
176
1
 90
50
176
1
 40
0.0
176
1
 40
1.0
176
1
 90
0
176
1
 62
18
176
1
 90
50
176
1
 90
3
176
1
 62
5
420
255
176
1
290
0
176
1
 90
50
176
1
 90
50
176
1
 90
50
176
1
290
0
176
1
 90
50
176
1
 62
256
176
0
 40
1.0
176
0
 90
2
176
1
  1
strokes_ogs.tif
176
1
290
0
176
1
 40
1.0
176
1
 40
1.0
176
1
  0
VISUALSTYLE
  5
9E41
102
{ACAD_REACTORS
330
9AD7
102
}
330
9AD7
100
AcDbVisualStyle
  2
JitterOff
 70
20
177
3
291
1
 70
58
 90
2
176
0
 90
2
176
0
 90
0
176
0
 90
0
176
0
 40
0.6
176
0
 40
30.0
176
0
 62
7
420
16777215
176
0
 90
1
176
0
 90
4
176
0
 62
7
176
0
 62
257
176
0
 90
1
176
0
 90
1
176
0
 40
1.0
176
0
 90
10
176
2
 62
7
176
0
 40
1.0
176
0
 90
1
176
0
 90
6
176
0
 90
2
176
0
 62
7
176
0
 90
5
176
0
 90
0
176
0
 90
0
176
0
290
0
176
0
 90
1
176
0
 40
0.0
176
0
 90
0
176
0
290
0
176
1
290
1
176
1
290
1
176
1
290
0
176
1
290
0
176
1
290
0
176
1
290
0
176
1
290
0
176
1
290
0
176
1
 90
50
176
1
 40
0.0
176
1
 40
1.0
176
1
 90
0
176
1
 62
18
176
1
 90
50
176
1
 90
3
176
1
 62
5
420
255
176
1
290
0
176
1
 90
50
176
1
 90
50
176
1
 90
50
176
1
290
0
176
1
 90
50
176
1
 62
256
176
0
 40
1.0
176
0
 90
2
176
1
  1
strokes_ogs.tif
176
1
290
0
176
1
 40
1.0
176
1
 40
1.0
176
1
  0
VISUALSTYLE
  5
9E3E
102
{ACAD_REACTORS
330
9AD7
102
}
330
9AD7
100
AcDbVisualStyle
  2
Linepattern
 70
14
177
3
291
1
 70
58
 90
2
176
1
 90
2
176
1
 90
0
176
1
 90
0
176
1
 40
0.6
176
1
 40
30.0
176
1
 62
7
420
16777215
176
1
 90
1
176
1
 90
4
176
1
 62
7
176
1
 62
257
176
1
 90
7
176
1
 90
7
176
1
 40
1.0
176
1
 90
8
176
1
 62
7
176
1
 40
1.0
176
1
 90
1
176
1
 90
6
176
1
 90
2
176
1
 62
7
176
1
 90
5
176
1
 90
0
176
1
 90
0
176
1
290
0
176
1
 90
1
176
1
 40
0.0
176
1
 90
0
176
1
290
0
176
1
290
1
176
1
290
1
176
1
290
0
176
1
290
0
176
1
290
0
176
1
290
0
176
1
290
0
176
1
290
0
176
1
 90
50
176
1
 40
0.0
176
1
 40
1.0
176
1
 90
0
176
1
 62
18
176
1
 90
50
176
1
 90
3
176
1
 62
5
420
255
176
1
290
0
176
1
 90
50
176
1
 90
50
176
1
 90
50
176
1
290
0
176
1
 90
50
176
1
 62
256
176
0
 40
1.0
176
0
 90
2
176
1
  1
strokes_ogs.tif
176
1
290
0
176
1
 40
1.0
176
1
 40
1.0
176
1
  0
VISUALSTYLE
  5
9E42
102
{ACAD_REACTORS
330
9AD7
102
}
330
9AD7
100
AcDbVisualStyle
  2
OverhangOff
 70
21
177
3
291
1
 70
58
 90
2
176
0
 90
2
176
0
 90
0
176
0
 90
0
176
0
 40
0.6
176
0
 40
30.0
176
0
 62
7
420
16777215
176
0
 90
1
176
0
 90
4
176
0
 62
7
176
0
 62
257
176
0
 90
1
176
0
 90
1
176
0
 40
1.0
176
0
 90
9
176
2
 62
7
176
0
 40
1.0
176
0
 90
1
176
0
 90
6
176
0
 90
2
176
0
 62
7
176
0
 90
5
176
0
 90
0
176
0
 90
0
176
0
290
0
176
0
 90
1
176
0
 40
0.0
176
0
 90
0
176
0
290
0
176
1
290
1
176
1
290
1
176
1
290
0
176
1
290
0
176
1
290
0
176
1
290
0
176
1
290
0
176
1
290
0
176
1
 90
50
176
1
 40
0.0
176
1
 40
1.0
176
1
 90
0
176
1
 62
18
176
1
 90
50
176
1
 90
3
176
1
 62
5
420
255
176
1
290
0
176
1
 90
50
176
1
 90
50
176
1
 90
50
176
1
290
0
176
1
 90
50
176
1
 62
256
176
0
 40
1.0
176
0
 90
2
176
1
  1
strokes_ogs.tif
176
1
290
0
176
1
 40
1.0
176
1
 40
1.0
176
1
  0
VISUALSTYLE
  5
9AF6
102
{ACAD_REACTORS
330
9AD7
102
}
330
9AD7
100
AcDbVisualStyle
  2
Realistic
 70
8
177
3
291
0
 70
58
 90
2
176
1
 90
2
176
1
 90
0
176
1
 90
0
176
1
 40
0.6
176
1
 40
30.0
176
1
 62
7
420
16777215
176
1
 90
1
176
1
 90
0
176
1
 62
7
176
1
 62
257
176
1
 90
1
176
1
 90
1
176
1
 40
1.0
176
1
 90
8
176
1
 62
8
420
7895160
176
1
 40
1.0
176
1
 90
1
176
1
 90
6
176
1
 90
2
176
1
 62
7
176
1
 90
5
176
1
 90
0
176
1
 90
0
176
1
290
0
176
1
 90
13
176
1
 40
0.0
176
1
 90
0
176
1
290
0
176
1
290
1
176
1
290
1
176
1
290
0
176
1
290
0
176
1
290
0
176
1
290
0
176
1
290
0
176
1
290
0
176
1
 90
50
176
1
 40
0.0
176
1
 40
1.0
176
1
 90
0
176
1
 62
18
176
1
 90
50
176
1
 90
3
176
1
 62
5
420
255
176
1
290
0
176
1
 90
50
176
1
 90
50
176
1
 90
50
176
1
290
0
176
1
 90
50
176
1
 62
256
176
0
 40
1.0
176
0
 90
2
176
1
  1
strokes_ogs.tif
176
1
290
0
176
1
 40
1.0
176
1
 40
1.0
176
1
  0
VISUALSTYLE
  5
B529
102
{ACAD_REACTORS
330
9AD7
102
}
330
9AD7
100
AcDbVisualStyle
  2
Shaded
 70
27
177
3
291
0
 70
58
 90
2
176
1
 90
2
176
1
 90
1
176
1
 90
2
176
1
 40
0.6
176
1
 40
30.0
176
1
 62
7
420
16777215
176
1
 90
0
176
1
 90
4
176
1
 62
7
176
1
 62
257
176
1
 90
1
176
1
 90
1
176
1
 40
1.0
176
1
 90
8
176
1
 62
257
176
1
 40
1.0
176
1
 90
1
176
1
 90
6
176
1
 90
2
176
1
 62
8
420
7895160
176
1
 90
3
176
1
 90
0
176
1
 90
0
176
1
290
0
176
1
 90
5
176
1
 40
0.0
176
1
 90
0
176
1
290
0
176
1
290
1
176
1
290
1
176
1
290
0
176
1
290
0
176
1
290
0
176
1
290
0
176
1
290
0
176
1
290
0
176
1
 90
50
176
1
 40
0.0
176
1
 40
1.0
176
1
 90
0
176
1
 62
18
176
1
 90
50
176
1
 90
3
176
1
 62
5
420
255
176
1
290
0
176
1
 90
50
176
1
 90
50
176
1
 90
50
176
1
290
0
176
1
 90
50
176
1
 62
256
176
0
 40
1.0
176
0
 90
2
176
1
  1
strokes_ogs.tif
176
1
290
0
176
1
 40
1.0
176
1
 40
1.0
176
1
  0
VISUALSTYLE
  5
B528
102
{ACAD_REACTORS
330
9AD7
102
}
330
9AD7
100
AcDbVisualStyle
  2
Shaded with edges
 70
26
177
3
291
0
 70
58
 90
2
176
1
 90
2
176
1
 90
1
176
1
 90
2
176
1
 40
0.6
176
1
 40
30.0
176
1
 62
7
420
16777215
176
1
 90
1
176
1
 90
2
176
1
 62
7
176
1
 62
257
176
1
 90
2
176
1
 90
1
176
1
 40
1.0
176
1
 90
8
176
1
 62
257
176
1
 40
1.0
176
1
 90
1
176
1
 90
6
176
1
 90
2
176
1
 62
7
176
1
 90
3
176
1
 90
0
176
1
 90
0
176
1
290
0
176
1
 90
5
176
1
 40
0.0
176
1
 90
0
176
1
290
0
176
1
290
1
176
1
290
1
176
1
290
0
176
1
290
0
176
1
290
0
176
1
290
0
176
1
290
0
176
1
290
0
176
1
 90
50
176
1
 40
0.0
176
1
 40
1.0
176
1
 90
0
176
1
 62
18
176
1
 90
50
176
1
 90
3
176
1
 62
5
420
255
176
1
290
0
176
1
 90
50
176
1
 90
50
176
1
 90
50
176
1
290
0
176
1
 90
50
176
1
 62
256
176
0
 40
1.0
176
0
 90
2
176
1
  1
strokes_ogs.tif
176
1
290
0
176
1
 40
1.0
176
1
 40
1.0
176
1
  0
VISUALSTYLE
  5
B525
102
{ACAD_REACTORS
330
9AD7
102
}
330
9AD7
100
AcDbVisualStyle
  2
Shades of Gray
 70
23
177
3
291
0
 70
58
 90
2
176
1
 90
2
176
1
 90
3
176
1
 90
0
176
1
 40
0.6
176
1
 40
30.0
176
1
 62
7
420
16777215
176
1
 90
2
176
1
 90
2
176
1
 62
7
176
1
 62
7
176
1
 90
1
176
1
 90
1
176
1
 40
40.0
176
1
 90
8
176
1
 62
7
176
1
 40
1.0
176
1
 90
1
176
1
 90
6
176
1
 90
2
176
1
 62
7
176
1
 90
3
176
1
 90
0
176
1
 90
0
176
1
290
0
176
1
 90
1
176
1
 40
0.0
176
1
 90
0
176
1
290
0
176
1
290
1
176
1
290
1
176
1
290
0
176
1
290
0
176
1
290
0
176
1
290
0
176
1
290
0
176
1
290
0
176
1
 90
50
176
1
 40
0.0
176
1
 40
1.0
176
1
 90
0
176
1
 62
18
176
1
 90
50
176
1
 90
3
176
1
 62
5
420
255
176
1
290
0
176
1
 90
50
176
1
 90
50
176
1
 90
50
176
1
290
0
176
1
 90
50
176
1
 62
256
176
0
 40
1.0
176
0
 90
2
176
1
  1
strokes_ogs.tif
176
1
290
0
176
1
 40
1.0
176
1
 40
1.0
176
1
  0
VISUALSTYLE
  5
B526
102
{ACAD_REACTORS
330
9AD7
102
}
330
9AD7
100
AcDbVisualStyle
  2
Sketchy
 70
24
177
3
291
0
 70
58
 90
1
176
1
 90
2
176
1
 90
2
176
1
 90
0
176
1
 40
0.6
176
1
 40
30.0
176
1
 62
7
420
16777215
176
1
 90
2
176
1
 90
2
176
1
 62
7
176
1
 62
7
176
1
 90
1
176
1
 90
1
176
1
 40
40.0
176
1
 90
11
176
1
 62
7
176
1
 40
1.0
176
1
 90
1
176
1
 90
6
176
1
 90
2
176
1
 62
7
176
1
 90
6
176
1
 90
0
176
1
 90
0
176
1
290
0
176
1
 90
1
176
1
 40
0.0
176
1
 90
0
176
1
290
0
176
1
290
1
176
1
290
1
176
1
290
0
176
1
290
0
176
1
290
0
176
1
290
0
176
1
290
0
176
1
290
0
176
1
 90
50
176
1
 40
0.0
176
1
 40
1.0
176
1
 90
0
176
1
 62
18
176
1
 90
50
176
1
 90
3
176
1
 62
5
420
255
176
1
290
0
176
1
 90
50
176
1
 90
50
176
1
 90
50
176
1
290
0
176
1
 90
50
176
1
 62
256
176
0
 40
1.0
176
0
 90
2
176
1
  1
strokes_ogs.tif
176
1
290
0
176
1
 40
1.0
176
1
 40
1.0
176
1
  0
VISUALSTYLE
  5
9E3D
102
{ACAD_REACTORS
330
9AD7
102
}
330
9AD7
100
AcDbVisualStyle
  2
Thicken
 70
13
177
3
291
1
 70
58
 90
2
176
1
 90
2
176
1
 90
0
176
1
 90
0
176
1
 40
0.6
176
1
 40
30.0
176
1
 62
7
420
16777215
176
1
 90
1
176
1
 90
4
176
1
 62
7
176
1
 62
257
176
1
 90
1
176
1
 90
1
176
1
 40
1.0
176
1
 90
12
176
1
 62
7
176
1
 40
1.0
176
1
 90
1
176
1
 90
6
176
1
 90
2
176
1
 62
7
176
1
 90
5
176
1
 90
0
176
1
 90
0
176
1
290
0
176
1
 90
1
176
1
 40
0.0
176
1
 90
0
176
1
290
0
176
1
290
1
176
1
290
1
176
1
290
0
176
1
290
0
176
1
290
0
176
1
290
0
176
1
290
0
176
1
290
0
176
1
 90
50
176
1
 40
0.0
176
1
 40
1.0
176
1
 90
0
176
1
 62
18
176
1
 90
50
176
1
 90
3
176
1
 62
5
420
255
176
1
290
0
176
1
 90
50
176
1
 90
50
176
1
 90
50
176
1
290
0
176
1
 90
50
176
1
 62
256
176
0
 40
1.0
176
0
 90
2
176
1
  1
strokes_ogs.tif
176
1
290
0
176
1
 40
1.0
176
1
 40
1.0
176
1
  0
VISUALSTYLE
  5
B523
102
{ACAD_REACTORS
330
9AD7
102
}
330
9AD7
100
AcDbVisualStyle
  2
Wireframe
 70
5
177
3
291
0
 70
58
 90
0
176
1
 90
2
176
1
 90
0
176
1
 90
0
176
1
 40
0.6
176
1
 40
30.0
176
1
 62
7
420
16777215
176
1
 90
1
176
1
 90
4
176
1
 62
7
176
1
 62
257
176
1
 90
1
176
1
 90
1
176
1
 40
1.0
176
1
 90
0
176
1
 62
257
176
1
 40
1.0
176
1
 90
1
176
1
 90
6
176
1
 90
2
176
1
 62
7
176
1
 90
3
176
1
 90
0
176
1
 90
0
176
1
290
0
176
1
 90
1
176
1
 40
0.0
176
1
 90
0
176
1
290
0
176
1
290
1
176
1
290
1
176
1
290
0
176
1
290
0
176
1
290
0
176
1
290
0
176
1
290
0
176
1
290
0
176
1
 90
50
176
1
 40
0.0
176
1
 40
1.0
176
1
 90
0
176
1
 62
18
176
1
 90
50
176
1
 90
3
176
1
 62
5
420
255
176
1
290
0
176
1
 90
50
176
1
 90
50
176
1
 90
50
176
1
290
0
176
1
 90
50
176
1
 62
256
176
0
 40
1.0
176
0
 90
2
176
1
  1
strokes_ogs.tif
176
1
290
0
176
1
 40
1.0
176
1
 40
1.0
176
1
  0
VISUALSTYLE
  5
B527
102
{ACAD_REACTORS
330
9AD7
102
}
330
9AD7
100
AcDbVisualStyle
  2
X-Ray
 70
25
177
3
291
0
 70
58
 90
2
176
1
 90
2
176
1
 90
1
176
1
 90
1
176
1
 40
0.5
176
1
 40
30.0
176
1
 62
7
420
16777215
176
1
 90
1
176
1
 90
0
176
1
 62
7
176
1
 62
257
176
1
 90
1
176
1
 90
1
176
1
 40
1.0
176
1
 90
8
176
1
 62
7
176
1
 40
1.0
176
1
 90
1
176
1
 90
6
176
1
 90
2
176
1
 62
7
176
1
 90
3
176
1
 90
0
176
1
 90
0
176
1
290
0
176
1
 90
13
176
1
 40
0.0
176
1
 90
0
176
1
290
0
176
1
290
1
176
1
290
1
176
1
290
0
176
1
290
0
176
1
290
0
176
1
290
0
176
1
290
0
176
1
290
0
176
1
 90
50
176
1
 40
0.0
176
1
 40
1.0
176
1
 90
0
176
1
 62
18
176
1
 90
50
176
1
 90
3
176
1
 62
5
420
255
176
1
290
0
176
1
 90
50
176
1
 90
50
176
1
 90
50
176
1
290
0
176
1
 90
50
176
1
 62
256
176
0
 40
1.0
176
0
 90
2
176
1
  1
strokes_ogs.tif
176
1
290
0
176
1
 40
1.0
176
1
 40
1.0
176
1
  0
DICTIONARYVAR
  5
9E2F
102
{ACAD_REACTORS
330
9E2B
102
}
330
9E2B
100
DictionaryVariables
280
0
  1
1:1
  0
DICTIONARYVAR
  5
9E2D
102
{ACAD_REACTORS
330
9E2B
102
}
330
9E2B
100
DictionaryVariables
280
0
  1
STANDARD
  0
DICTIONARYVAR
  5
9E2C
102
{ACAD_REACTORS
330
9E2B
102
}
330
9E2B
100
DictionaryVariables
280
0
  1
STANDARD
  0
DICTIONARYVAR
  5
B808
102
{ACAD_REACTORS
330
9E2B
102
}
330
9E2B
100
DictionaryVariables
280
0
  1
Imperial24
  0
DICTIONARYVAR
  5
B809
102
{ACAD_REACTORS
330
9E2B
102
}
330
9E2B
100
DictionaryVariables
280
0
  1
Imperial24
  0
DICTIONARYVAR
  5
9E31
102
{ACAD_REACTORS
330
9E2B
102
}
330
9E2B
100
DictionaryVariables
280
0
  1
1
  0
DICTIONARYVAR
  5
9E32
102
{ACAD_REACTORS
330
9E2B
102
}
330
9E2B
100
DictionaryVariables
280
0
  1
15
  0
DICTIONARYVAR
  5
9E30
102
{ACAD_REACTORS
330
9E2B
102
}
330
9E2B
100
DictionaryVariables
280
0
  1
0
  0
DICTIONARYVAR
  5
9E2E
102
{ACAD_REACTORS
330
9E2B
102
}
330
9E2B
100
DictionaryVariables
280
0
  1
0
  0
DICTIONARY
  5
9AC6
330
9AC5
100
AcDbDictionary
280
1
281
1
  0
DICTIONARY
  5
9AE9
330
9AE8
100
AcDbDictionary
280
1
281
1
  3
BUMPTILE
360
9AEA
  3
DIFFUSETILE
360
9AEB
  3
OPACITYTILE
360
9AEC
  3
REFLECTIONTILE
360
9AED
  3
REFRACTIONTILE
360
9AEE
  3
SPECULARTILE
360
9AEF
  0
DICTIONARY
  5
9AE1
330
9AE0
100
AcDbDictionary
280
1
281
1
  3
BUMPTILE
360
9AE2
  3
DIFFUSETILE
360
9AE3
  3
OPACITYTILE
360
9AE4
  3
REFLECTIONTILE
360
9AE5
  3
REFRACTIONTILE
360
9AE6
  3
SPECULARTILE
360
9AE7
  0
DICTIONARY
  5
9AB7
330
9AB5
100
AcDbDictionary
280
1
281
1
  3
BUMPTILE
360
9AB8
  3
DIFFUSETILE
360
9AB9
  3
OPACITYTILE
360
9ABA
  3
REFLECTIONTILE
360
9ABB
  3
REFRACTIONTILE
360
9ABC
  3
SPECULARTILE
360
9ABD
  0
DICTIONARY
  5
9E22
330
9AF5
100
AcDbDictionary
280
1
281
1
  3
ACAD_ROUNDTRIP_2008_TABLESTYLE_CELLSTYLEMAP
360
B90F
  0
XRECORD
  5
9AEA
102
{ACAD_REACTORS
330
9AE9
102
}
330
9AE9
100
AcDbXrecord
280
1
270
1
271
1
  0
XRECORD
  5
9AEB
102
{ACAD_REACTORS
330
9AE9
102
}
330
9AE9
100
AcDbXrecord
280
1
270
1
271
1
  0
XRECORD
  5
9AEC
102
{ACAD_REACTORS
330
9AE9
102
}
330
9AE9
100
AcDbXrecord
280
1
270
1
271
1
  0
XRECORD
  5
9AED
102
{ACAD_REACTORS
330
9AE9
102
}
330
9AE9
100
AcDbXrecord
280
1
270
1
271
1
  0
XRECORD
  5
9AEE
102
{ACAD_REACTORS
330
9AE9
102
}
330
9AE9
100
AcDbXrecord
280
1
270
1
271
1
  0
XRECORD
  5
9AEF
102
{ACAD_REACTORS
330
9AE9
102
}
330
9AE9
100
AcDbXrecord
280
1
270
1
271
1
  0
XRECORD
  5
9AE2
102
{ACAD_REACTORS
330
9AE1
102
}
330
9AE1
100
AcDbXrecord
280
1
270
1
271
1
  0
XRECORD
  5
9AE3
102
{ACAD_REACTORS
330
9AE1
102
}
330
9AE1
100
AcDbXrecord
280
1
270
1
271
1
  0
XRECORD
  5
9AE4
102
{ACAD_REACTORS
330
9AE1
102
}
330
9AE1
100
AcDbXrecord
280
1
270
1
271
1
  0
XRECORD
  5
9AE5
102
{ACAD_REACTORS
330
9AE1
102
}
330
9AE1
100
AcDbXrecord
280
1
270
1
271
1
  0
XRECORD
  5
9AE6
102
{ACAD_REACTORS
330
9AE1
102
}
330
9AE1
100
AcDbXrecord
280
1
270
1
271
1
  0
XRECORD
  5
9AE7
102
{ACAD_REACTORS
330
9AE1
102
}
330
9AE1
100
AcDbXrecord
280
1
270
1
271
1
  0
XRECORD
  5
9AB8
102
{ACAD_REACTORS
330
9AB7
102
}
330
9AB7
100
AcDbXrecord
280
1
270
1
271
1
  0
XRECORD
  5
9AB9
102
{ACAD_REACTORS
330
9AB7
102
}
330
9AB7
100
AcDbXrecord
280
1
270
1
271
1
  0
XRECORD
  5
9ABA
102
{ACAD_REACTORS
330
9AB7
102
}
330
9AB7
100
AcDbXrecord
280
1
270
1
271
1
  0
XRECORD
  5
9ABB
102
{ACAD_REACTORS
330
9AB7
102
}
330
9AB7
100
AcDbXrecord
280
1
270
1
271
1
  0
XRECORD
  5
9ABC
102
{ACAD_REACTORS
330
9AB7
102
}
330
9AB7
100
AcDbXrecord
280
1
270
1
271
1
  0
XRECORD
  5
9ABD
102
{ACAD_REACTORS
330
9AB7
102
}
330
9AB7
100
AcDbXrecord
280
1
270
1
271
1
  0
CELLSTYLEMAP
  5
B90F
102
{ACAD_REACTORS
330
9E22
102
}
330
9E22
100
AcDbCellStyleMap
 90
3
300
CELLSTYLE
  1
TABLEFORMAT_BEGIN
 90
5
170
1
 91
0
 92
32768
 62
257
 93
1
300
CONTENTFORMAT
  1
CONTENTFORMAT_BEGIN
 90
0
 91
0
 92
4
 93
0
300

 40
0.0
140
1.0
 94
5
 62
0
340
9ACD
144
0.25
309
CONTENTFORMAT_END
171
1
301
MARGIN
  1
CELLMARGIN_BEGIN
 40
0.06
 40
0.06
 40
0.06
 40
0.06
 40
0.18
 40
0.18
309
CELLMARGIN_END
 94
6
 95
1
302
GRIDFORMAT
  1
GRIDFORMAT_BEGIN
 90
0
 91
1
 62
0
 92
-2
340
0
 93
0
 40
0.045
309
GRIDFORMAT_END
 95
2
302
GRIDFORMAT
  1
GRIDFORMAT_BEGIN
 90
0
 91
1
 62
0
 92
-2
340
0
 93
0
 40
0.045
309
GRIDFORMAT_END
 95
4
302
GRIDFORMAT
  1
GRIDFORMAT_BEGIN
 90
0
 91
1
 62
0
 92
-2
340
0
 93
0
 40
0.045
309
GRIDFORMAT_END
 95
8
302
GRIDFORMAT
  1
GRIDFORMAT_BEGIN
 90
0
 91
1
 62
0
 92
-2
340
0
 93
0
 40
0.045
309
GRIDFORMAT_END
 95
16
302
GRIDFORMAT
  1
GRIDFORMAT_BEGIN
 90
0
 91
1
 62
0
 92
-2
340
0
 93
0
 40
0.045
309
GRIDFORMAT_END
 95
32
302
GRIDFORMAT
  1
GRIDFORMAT_BEGIN
 90
0
 91
1
 62
0
 92
-2
340
0
 93
0
 40
0.045
309
GRIDFORMAT_END
309
TABLEFORMAT_END
  1
CELLSTYLE_BEGIN
 90
1
 91
1
300
_TITLE
309
CELLSTYLE_END
300
CELLSTYLE
  1
TABLEFORMAT_BEGIN
 90
5
170
1
 91
0
 92
0
 62
257
 93
1
300
CONTENTFORMAT
  1
CONTENTFORMAT_BEGIN
 90
0
 91
0
 92
4
 93
0
300

 40
0.0
140
1.0
 94
5
 62
0
340
9ACD
144
0.18
309
CONTENTFORMAT_END
171
1
301
MARGIN
  1
CELLMARGIN_BEGIN
 40
0.06
 40
0.06
 40
0.06
 40
0.06
 40
0.18
 40
0.18
309
CELLMARGIN_END
 94
6
 95
1
302
GRIDFORMAT
  1
GRIDFORMAT_BEGIN
 90
0
 91
1
 62
0
 92
-2
340
0
 93
0
 40
0.045
309
GRIDFORMAT_END
 95
2
302
GRIDFORMAT
  1
GRIDFORMAT_BEGIN
 90
0
 91
1
 62
0
 92
-2
340
0
 93
0
 40
0.045
309
GRIDFORMAT_END
 95
4
302
GRIDFORMAT
  1
GRIDFORMAT_BEGIN
 90
0
 91
1
 62
0
 92
-2
340
0
 93
0
 40
0.045
309
GRIDFORMAT_END
 95
8
302
GRIDFORMAT
  1
GRIDFORMAT_BEGIN
 90
0
 91
1
 62
0
 92
-2
340
0
 93
0
 40
0.045
309
GRIDFORMAT_END
 95
16
302
GRIDFORMAT
  1
GRIDFORMAT_BEGIN
 90
0
 91
1
 62
0
 92
-2
340
0
 93
0
 40
0.045
309
GRIDFORMAT_END
 95
32
302
GRIDFORMAT
  1
GRIDFORMAT_BEGIN
 90
0
 91
1
 62
0
 92
-2
340
0
 93
0
 40
0.045
309
GRIDFORMAT_END
309
TABLEFORMAT_END
  1
CELLSTYLE_BEGIN
 90
2
 91
1
300
_HEADER
309
CELLSTYLE_END
300
CELLSTYLE
  1
TABLEFORMAT_BEGIN
 90
5
170
1
 91
0
 92
0
 62
257
 93
1
300
CONTENTFORMAT
  1
CONTENTFORMAT_BEGIN
 90
0
 91
0
 92
4
 93
0
300

 40
0.0
140
1.0
 94
2
 62
0
340
9ACD
144
0.18
309
CONTENTFORMAT_END
171
1
301
MARGIN
  1
CELLMARGIN_BEGIN
 40
0.06
 40
0.06
 40
0.06
 40
0.06
 40
0.18
 40
0.18
309
CELLMARGIN_END
 94
6
 95
1
302
GRIDFORMAT
  1
GRIDFORMAT_BEGIN
 90
0
 91
1
 62
0
 92
-2
340
0
 93
0
 40
0.045
309
GRIDFORMAT_END
 95
2
302
GRIDFORMAT
  1
GRIDFORMAT_BEGIN
 90
0
 91
1
 62
0
 92
-2
340
0
 93
0
 40
0.045
309
GRIDFORMAT_END
 95
4
302
GRIDFORMAT
  1
GRIDFORMAT_BEGIN
 90
0
 91
1
 62
0
 92
-2
340
0
 93
0
 40
0.045
309
GRIDFORMAT_END
 95
8
302
GRIDFORMAT
  1
GRIDFORMAT_BEGIN
 90
0
 91
1
 62
0
 92
-2
340
0
 93
0
 40
0.045
309
GRIDFORMAT_END
 95
16
302
GRIDFORMAT
  1
GRIDFORMAT_BEGIN
 90
0
 91
1
 62
0
 92
-2
340
0
 93
0
 40
0.045
309
GRIDFORMAT_END
 95
32
302
GRIDFORMAT
  1
GRIDFORMAT_BEGIN
 90
0
 91
1
 62
0
 92
-2
340
0
 93
0
 40
0.045
309
GRIDFORMAT_END
309
TABLEFORMAT_END
  1
CELLSTYLE_BEGIN
 90
3
 91
2
300
_DATA
309
CELLSTYLE_END
  0
DICTIONARY
  5
B922
330
9AB4
100
AcDbDictionary
280
1
281
1
  3
WRITTEN_BY_EZDXF
350
B923
  0
DICTIONARYVAR
  5
B923
330
B922
100
DictionaryVariables
280
0
  1
1.4.3 @ 2026-05-09T19:43:41.617419+00:00
  0
ENDSEC
  0
SECTION
  2
ACDSDATA
 70
2
 71
8
  0
ACDSSCHEMA
 90
0
  1
AcDb_Thumbnail_Schema
  2
AcDbDs::ID
280
10
 91
8
  2
Thumbnail_Data
280
15
 91
0
101
ACDSRECORD
 95
0
 90
1
  2
AcDbDs::TreatedAsObjectData
280
1
291
1
101
ACDSRECORD
 95
0
 90
2
  2
AcDbDs::Legacy
280
1
291
1
101
ACDSRECORD
  1
AcDbDs::ID
 90
3
  2
AcDs:Indexable
280
1
291
1
101
ACDSRECORD
  1
AcDbDs::ID
 90
4
  2
AcDbDs::HandleAttribute
280
7
282
1
  0
ACDSSCHEMA
 90
1
  1
AcDbDs::TreatedAsObjectDataSchema
  2
AcDbDs::TreatedAsObjectData
280
1
 91
0
  0
ACDSSCHEMA
 90
2
  1
AcDbDs::LegacySchema
  2
AcDbDs::Legacy
280
1
 91
0
  0
ACDSSCHEMA
 90
3
  1
AcDbDs::IndexedPropertySchema
  2
AcDs:Indexable
280
1
 91
0
  0
ACDSSCHEMA
 90
4
  1
AcDbDs::HandleAttributeSchema
  2
AcDbDs::HandleAttribute
280
7
 91
1
284
1
  0
ACDSRECORD
 90
0
  2
AcDbDs::ID
280
10
320
9AC5
  2
Thumbnail_Data
280
15
 94
1048
310
89504E470D0A1A0A0000000D49484452000000B40000008B0803000000FF3F437800000300504C5445FFFFFF000000FFFFFF0000000000000000000000000000000000000000000000000000330000660000990000CC0000FF0033000033330033660033990033CC0033FF0066000066330066660066990066CC0066FF0099
310
000099330099660099990099CC0099FF00CC0000CC3300CC6600CC9900CCCC00CCFF00FF0000FF3300FF6600FF9900FFCC00FFFF3300003300333300663300993300CC3300FF3333003333333333663333993333CC3333FF3366003366333366663366993366CC3366FF3399003399333399663399993399CC3399FF33CC00
310
33CC3333CC6633CC9933CCCC33CCFF33FF0033FF3333FF6633FF9933FFCC33FFFF6600006600336600666600996600CC6600FF6633006633336633666633996633CC6633FF6666006666336666666666996666CC6666FF6699006699336699666699996699CC6699FF66CC0066CC3366CC6666CC9966CCCC66CCFF66FF0066
310
FF3366FF6666FF9966FFCC66FFFF9900009900339900669900999900CC9900FF9933009933339933669933999933CC9933FF9966009966339966669966999966CC9966FF9999009999339999669999999999CC9999FF99CC0099CC3399CC6699CC9999CCCC99CCFF99FF0099FF3399FF6699FF9999FFCC99FFFFCC0000CC00
310
33CC0066CC0099CC00CCCC00FFCC3300CC3333CC3366CC3399CC33CCCC33FFCC6600CC6633CC6666CC6699CC66CCCC66FFCC9900CC9933CC9966CC9999CC99CCCC99FFCCCC00CCCC33CCCC66CCCC99CCCCCCCCCCFFCCFF00CCFF33CCFF66CCFF99CCFFCCCCFFFFFF0000FF0033FF0066FF0099FF00CCFF00FFFF3300FF3333
310
FF3366FF3399FF33CCFF33FFFF6600FF6633FF6666FF6699FF66CCFF66FFFF9900FF9933FF9966FF9999FF99CCFF99FFFFCC00FFCC33FFCC66FFCC99FFCCCCFFCCFFFFFF00FFFF33FFFF66FFFF99FFFFCCFFFFFF0000000D0D0D1A1A1A2828283535354343435050505D5D5D6B6B6B787878868686939393A1A1A1AEAEAEBB
310
BBBBC9C9C9D6D6D6E4E4E4F1F1F1FFFFFF000000000000000000000000000000000000000000000000000000000000790CAC0F000000D34944415478DAEDDD310A80300C0550EF7FCC5CC0C95D10041DA4568B34F665CCE2434ABF59E214E96A9EA7255B417F868E0DBD1F9643FF5CA5FEF2B27FFF0107749EB70C0D0D0D3D
310
243A65224243D7A0BBF9DEAF4277745940433F40471A744043434343434343434343B7401BB7A0A1A1A1A19BA3C538343434343434343434F46068E316343434347473B418878686868686868686861E0C6DDC82868686866E8E16E3D0D0D0D0D0D0D0D0D0D083A18D5BD0FF4767DCC3D475414397D1D62942434343778ECE
310
B8E95B8C435FA123E12F1956FC241BF103F904980000000049454E44AE426082
  0
ACDSRECORD
 90
0
  2
AcDbDs::ID
280
10
320
9AC0
  2
Thumbnail_Data
280
15
 94
1960
310
89504E470D0A1A0A0000000D4948445200000100000000B808030000003B42C2F800000300504C5445FFFFFFFFFFFFFFFFFF0000000000000000000000000000000000000000000000000000330000660000990000CC0000FF0033000033330033660033990033CC0033FF0066000066330066660066990066CC0066FF0099
310
000099330099660099990099CC0099FF00CC0000CC3300CC6600CC9900CCCC00CCFF00FF0000FF3300FF6600FF9900FFCC00FFFF3300003300333300663300993300CC3300FF3333003333333333663333993333CC3333FF3366003366333366663366993366CC3366FF3399003399333399663399993399CC3399FF33CC00
310
33CC3333CC6633CC9933CCCC33CCFF33FF0033FF3333FF6633FF9933FFCC33FFFF6600006600336600666600996600CC6600FF6633006633336633666633996633CC6633FF6666006666336666666666996666CC6666FF6699006699336699666699996699CC6699FF66CC0066CC3366CC6666CC9966CCCC66CCFF66FF0066
310
FF3366FF6666FF9966FFCC66FFFF9900009900339900669900999900CC9900FF9933009933339933669933999933CC9933FF9966009966339966669966999966CC9966FF9999009999339999669999999999CC9999FF99CC0099CC3399CC6699CC9999CCCC99CCFF99FF0099FF3399FF6699FF9999FFCC99FFFFCC0000CC00
310
33CC0066CC0099CC00CCCC00FFCC3300CC3333CC3366CC3399CC33CCCC33FFCC6600CC6633CC6666CC6699CC66CCCC66FFCC9900CC9933CC9966CC9999CC99CCCC99FFCCCC00CCCC33CCCC66CCCC99CCCCCCCCCCFFCCFF00CCFF33CCFF66CCFF99CCFFCCCCFFFFFF0000FF0033FF0066FF0099FF00CCFF00FFFF3300FF3333
310
FF3366FF3399FF33CCFF33FFFF6600FF6633FF6666FF6699FF66CCFF66FFFF9900FF9933FF9966FF9999FF99CCFF99FFFFCC00FFCC33FFCC66FFCC99FFCCCCFFCCFFFFFF00FFFF33FFFF66FFFF99FFFFCCFFFFFF0000000D0D0D1A1A1A2828283535354343435050505D5D5D6B6B6B787878868686939393A1A1A1AEAEAEBB
310
BBBBC9C9C9D6D6D6E4E4E4F1F1F1FFFFFF000000000000000000000000000000000000000000000000000000000000AD4AB4E4000002D94944415478DAED9D4D72AC300C06B5CE86FB5F86C3E8246F820730601B0F997A55D6D7BDC80F49AA424712920D133300000000000000000000000000803F30F7135440E5B85F882A
310
C07B5113B08481AD6FBD1E2B3152C0F7D8574B01F5220800DFC247FEDDBFC2E87FBCDB332A1CF0DF1F1D5BC0727DAB08F0EBF93603675401D354BCEEBF7A9F363192E05740EA769FA5808D9E022F7601EDF39D1BA364AA06230B28FC05CF4754046C6DFFD9496C01FBE9CEDB882815017B0DC8224053805C119C10701490DE
310
BBDA65F01801C5CE26B280AEF12EB08014F1E73561410187F2272C20D5C18E6128B080CAF85F3532AE80651C2EA5C0A50CBAFF9C0EFC1C940D2C602A2E85DC2E8804D939F13C05D2692C1F68D68034092E0224FB807604D0079CE35E52C02B37820BB86985F3624F2B1C663DE03BC3908F2E2055FE2DC63F14E0E3A740DAEC
310
7A2A20460D7033571E87B729C84457842C1360D24B627DBBC3210494D603AAEB1F1E54C0C31B2462AC07B42240703DC01A7BA32AE37075775C46C0BA18A4BC2F201B01F27B83ED1316580F4080A40043C05301C78A2924205F40DE446846C03A4F683442B5BBC5DF1B89011BA18E0726F25210601C6E1AA81E88FAC448077E
310
7A70644803DB13D29FAE09BA6DCBC7C33F35F6ECC1399BDFDB0866E30BB869F4D6CFAF026C75601A020E29A028E0D8FC7A3E07C80B300501F5510801E3337D8E45E2B2B775D9EBBA7EC31C5CC0A9F3D313A015010000BDD552FBD5B6E642EFFF1E8F650468BDE4606944B8AC8F96A7092200013153205F0B5E53C09D142005
310
102056030E97416A00298000A956F83C0C49B5C22AE3F0933B26A2E77AED5BD7AF8617A0F53F0866DB6F00B1FD5DEB65B73452A07137998080F60B6B5303C2353CC77F33E2C5FABFDD2DA752030A17C0A011D025C0F25BC4E209B84F81E002B48B606F0A9CEAA64E1F9004E49F4613D073198C1C01EAE3703F51EE94040000
310
000000000000000000000000000000000000F8FFFC0344F0BB6BFE4690360000000049454E44AE426082D571AF8C114CE71DEB05506806B300080540D59F045140D96D36054807B0F898512E8BC6B3DAB77F1EC0727B9A0D40F9DBA7B26603E0D2A5625116DD9A251340797B7557DE78DDD1992C5380BD6BCC001800036000
310
0C80013000BA9E6020AAA613C0C02242A500689F079748223E27CD00B806609B4FA1154077DC50AD02C82FB72F983E53008E02B2DB0A6F13494D01280A4854C0DBE44953008202105B01780056054C01A6808602D814608E903942680A4807444C01AA15F0FE9D8B37F5A86000C4AFAFD43E1EA07558DC7D20CD0560133647
310
07D1E1706D990AC03DFBCD9656D3C028606200F7AFA8321BA00F40EF5A3ACD46706001BA3A058CACA754A900FD0028781F7D691508F7D7016B06A704909FF2D2E7FE50D01D64285758910202A767C011E2F402B4CE50B081C4BC000E435A430A5000601FD2B22A00DB0C464D1A8D34831023425C0D86A80150B6010D00C7CF
310
153683E575E23A005C6806C556817E93AD332E00FE00DFBE7FD6363C0AE0F174B100BF88235D71C7D3227D0000000049454E44AE426082
  0
ENDSEC
  0
EOF
