  0
SECTION
  2
HEADER
  9
$ACADVER
  1
AC1024
  9
$ACADMAINTVER
 70
6
  9
$DWGCODEPAGE
  3
ANSI_1252
  9
$LASTSAVEDBY
  1
ezdxf
  9
$INSBASE
 10
0.0
 20
0.0
 30
0.0
  9
$EXTMIN
 10
1e+20
 20
1e+20
 30
1e+20
  9
$EXTMAX
 10
-1e+20
 20
-1e+20
 30
-1e+20
  9
$LIMMIN
 10
0.0
 20
0.0
  9
$LIMMAX
 10
420.0
 20
297.0
  9
$ORTHOMODE
 70
0
  9
$REGENMODE
 70
1
  9
$FILLMODE
 70
1
  9
$QTEXTMODE
 70
0
  9
$MIRRTEXT
 70
1
  9
$LTSCALE
 40
1.0
  9
$ATTMODE
 70
1
  9
$TEXTSIZE
 40
2.5
  9
$TRACEWID
 40
1.0
  9
$TEXTSTYLE
  7
Standard
  9
$CLAYER
  8
0
  9
$CELTYPE
  6
ByLayer
  9
$CECOLOR
 62
256
  9
$CELTSCALE
 40
1.0
  9
$DISPSILH
 70
0
  9
$DIMSCALE
 40
1.0
  9
$DIMASZ
 40
2.5
  9
$DIMEXO
 40
0.625
  9
$DIMDLI
 40
3.75
  9
$DIMRND
 40
0.0
  9
$DIMDLE
 40
0.0
  9
$DIMEXE
 40
1.25
  9
$DIMTP
 40
0.0
  9
$DIMTM
 40
0.0
  9
$DIMTXT
 40
2.5
  9
$DIMCEN
 40
2.5
  9
$DIMTSZ
 40
0.0
  9
$DIMTOL
 70
0
  9
$DIMLIM
 70
0
  9
$DIMTIH
 70
0
  9
$DIMTOH
 70
0
  9
$DIMSE1
 70
0
  9
$DIMSE2
 70
0
  9
$DIMTAD
 70
1
  9
$DIMZIN
 70
8
  9
$DIMBLK
  1

  9
$DIMASO
 70
1
  9
$DIMSHO
 70
1
  9
$DIMPOST
  1

  9
$DIMAPOST
  1

  9
$DIMALT
 70
0
  9
$DIMALTD
 70
3
  9
$DIMALTF
 40
0.03937007874
  9
$DIMLFAC
 40
1.0
  9
$DIMTOFL
 70
1
  9
$DIMTVP
 40
0.0
  9
$DIMTIX
 70
0
  9
$DIMSOXD
 70
0
  9
$DIMSAH
 70
0
  9
$DIMBLK1
  1

  9
$DIMBLK2
  1

  9
$DIMSTYLE
  2
ISO-25
  9
$DIMCLRD
 70
0
  9
$DIMCLRE
 70
0
  9
$DIMCLRT
 70
0
  9
$DIMTFAC
 40
1.0
  9
$DIMGAP
 40
0.625
  9
$DIMJUST
 70
0
  9
$DIMSD1
 70
0
  9
$DIMSD2
 70
0
  9
$DIMTOLJ
 70
0
  9
$DIMTZIN
 70
8
  9
$DIMALTZ
 70
0
  9
$DIMALTTZ
 70
0
  9
$DIMUPT
 70
0
  9
$DIMDEC
 70
2
  9
$DIMTDEC
 70
2
  9
$DIMALTU
 70
2
  9
$DIMALTTD
 70
3
  9
$DIMTXSTY
  7
Standard
  9
$DIMAUNIT
 70
0
  9
$DIMADEC
 70
0
  9
$DIMALTRND
 40
0.0
  9
$DIMAZIN
 70
0
  9
$DIMDSEP
 70
44
  9
$DIMATFIT
 70
3
  9
$DIMFRAC
 70
0
  9
$DIMLDRBLK
  1

  9
$DIMLUNIT
 70
2
  9
$DIMLWD
 70
-2
  9
$DIMLWE
 70
-2
  9
$DIMTMOVE
 70
0
  9
$DIMFXL
 40
1.0
  9
$DIMFXLON
 70
0
  9
$DIMJOGANG
 40
0.785398163397
  9
$DIMTFILL
 70
0
  9
$DIMTFILLCLR
 70
0
  9
$DIMARCSYM
 70
0
  9
$DIMLTYPE
  6

  9
$DIMLTEX1
  6

  9
$DIMLTEX2
  6

  9
$DIMTXTDIRECTION
 70
0
  9
$LUNITS
 70
2
  9
$LUPREC
 70
4
  9
$SKETCHINC
 40
1.0
  9
$FILLETRAD
 40
10.0
  9
$AUNITS
 70
0
  9
$AUPREC
 70
2
  9
$MENU
  1
.
  9
$ELEVATION
 40
0.0
  9
$PELEVATION
 40
0.0
  9
$THICKNESS
 40
0.0
  9
$LIMCHECK
 70
0
  9
$CHAMFERA
 40
0.0
  9
$CHAMFERB
 40
0.0
  9
$CHAMFERC
 40
0.0
  9
$CHAMFERD
 40
0.0
  9
$SKPOLY
 70
0
  9
$TDCREATE
 40
2461147.5789583335
  9
$TDUCREATE
 40
2458532.153996898
  9
$TDUPDATE
 40
2461147.5789583335
  9
$TDUUPDATE
 40
2458532.1544311
  9
$TDINDWG
 40
0.0
  9
$TDUSRTIMER
 40
0.0
  9
$USRTIMER
 70
1
  9
$ANGBASE
 50
0.0
  9
$ANGDIR
 70
0
  9
$PDMODE
 70
0
  9
$PDSIZE
 40
0.0
  9
$PLINEWID
 40
0.0
  9
$SPLFRAME
 70
0
  9
$SPLINETYPE
 70
6
  9
$SPLINESEGS
 70
8
  9
$HANDSEED
  5
318
  9
$SURFTAB1
 70
6
  9
$SURFTAB2
 70
6
  9
$SURFTYPE
 70
6
  9
$SURFU
 70
6
  9
$SURFV
 70
6
  9
$UCSBASE
  2

  9
$UCSNAME
  2

  9
$UCSORG
 10
0.0
 20
0.0
 30
0.0
  9
$UCSXDIR
 10
1.0
 20
0.0
 30
0.0
  9
$UCSYDIR
 10
0.0
 20
1.0
 30
0.0
  9
$UCSORTHOREF
  2

  9
$UCSORTHOVIEW
 70
0
  9
$UCSORGTOP
 10
0.0
 20
0.0
 30
0.0
  9
$UCSORGBOTTOM
 10
0.0
 20
0.0
 30
0.0
  9
$UCSORGLEFT
 10
0.0
 20
0.0
 30
0.0
  9
$UCSORGRIGHT
 10
0.0
 20
0.0
 30
0.0
  9
$UCSORGFRONT
 10
0.0
 20
0.0
 30
0.0
  9
$UCSORGBACK
 10
0.0
 20
0.0
 30
0.0
  9
$PUCSBASE
  2

  9
$PUCSNAME
  2

  9
$PUCSORG
 10
0.0
 20
0.0
 30
0.0
  9
$PUCSXDIR
 10
1.0
 20
0.0
 30
0.0
  9
$PUCSYDIR
 10
0.0
 20
1.0
 30
0.0
  9
$PUCSORTHOREF
  2

  9
$PUCSORTHOVIEW
 70
0
  9
$PUCSORGTOP
 10
0.0
 20
0.0
 30
0.0
  9
$PUCSORGBOTTOM
 10
0.0
 20
0.0
 30
0.0
  9
$PUCSORGLEFT
 10
0.0
 20
0.0
 30
0.0
  9
$PUCSORGRIGHT
 10
0.0
 20
0.0
 30
0.0
  9
$PUCSORGFRONT
 10
0.0
 20
0.0
 30
0.0
  9
$PUCSORGBACK
 10
0.0
 20
0.0
 30
0.0
  9
$USERI1
 70
0
  9
$USERI2
 70
0
  9
$USERI3
 70
0
  9
$USERI4
 70
0
  9
$USERI5
 70
0
  9
$USERR1
 40
0.0
  9
$USERR2
 40
0.0
  9
$USERR3
 40
0.0
  9
$USERR4
 40
0.0
  9
$USERR5
 40
0.0
  9
$WORLDVIEW
 70
1
  9
$SHADEDGE
 70
3
  9
$SHADEDIF
 70
70
  9
$TILEMODE
 70
1
  9
$MAXACTVP
 70
64
  9
$PINSBASE
 10
0.0
 20
0.0
 30
0.0
  9
$PLIMCHECK
 70
0
  9
$PEXTMIN
 10
1e+20
 20
1e+20
 30
1e+20
  9
$PEXTMAX
 10
-1e+20
 20
-1e+20
 30
-1e+20
  9
$PLIMMIN
 10
0.0
 20
0.0
  9
$PLIMMAX
 10
420.0
 20
297.0
  9
$UNITMODE
 70
0
  9
$VISRETAIN
 70
1
  9
$PLINEGEN
 70
0
  9
$PSLTSCALE
 70
1
  9
$TREEDEPTH
 70
3020
  9
$CMLSTYLE
  2
Standard
  9
$CMLJUST
 70
0
  9
$CMLSCALE
 40
20.0
  9
$PROXYGRAPHICS
 70
1
  9
$MEASUREMENT
 70
1
  9
$CELWEIGHT
370
-1
  9
$ENDCAPS
280
0
  9
$JOINSTYLE
280
0
  9
$LWDISPLAY
290
0
  9
$INSUNITS
 70
0
  9
$HYPERLINKBASE
  1

  9
$STYLESHEET
  1

  9
$XEDIT
290
1
  9
$CEPSNTYPE
380
0
  9
$PSTYLEMODE
290
1
  9
$FINGERPRINTGUID
  2
{F376F11A-3DCA-4637-8F83-6F0E699767A1}
  9
$VERSIONGUID
  2
{CEDE7AE3-7A1F-4A92-BC70-C53C658C24EC}
  9
$EXTNAMES
290
1
  9
$PSVPSCALE
 40
0.0
  9
$OLESTARTUP
290
0
  9
$SORTENTS
280
127
  9
$INDEXCTL
280
0
  9
$HIDETEXT
280
1
  9
$XCLIPFRAME
280
1
  9
$HALOGAP
280
0
  9
$OBSCOLOR
 70
257
  9
$OBSLTYPE
280
0
  9
$INTERSECTIONDISPLAY
280
0
  9
$INTERSECTIONCOLOR
 70
257
  9
$DIMASSOC
280
2
  9
$PROJECTNAME
  1

  9
$CAMERADISPLAY
290
0
  9
$LENSLENGTH
 40
50.0
  9
$CAMERAHEIGHT
 40
0.0
  9
$STEPSPERSEC
 40
24.0
  9
$STEPSIZE
 40
100.0
  9
$3DDWFPREC
 40
2.0
  9
$PSOLWIDTH
 40
0.005
  9
$PSOLHEIGHT
 40
0.08
  9
$LOFTANG1
 40
1.570796326795
  9
$LOFTANG2
 40
1.570796326795
  9
$LOFTMAG1
 40
0.0
  9
$LOFTMAG2
 40
0.0
  9
$LOFTPARAM
 70
7
  9
$LOFTNORMALS
280
1
  9
$LATITUDE
 40
37.795
  9
$LONGITUDE
 40
-122.394
  9
$NORTHDIRECTION
 40
0.0
  9
$TIMEZONE
 70
-8000
  9
$LIGHTGLYPHDISPLAY
280
1
  9
$TILEMODELIGHTSYNCH
280
1
  9
$CMATERIAL
347
20
  9
$SOLIDHIST
280
0
  9
$SHOWHIST
280
1
  9
$DWFFRAME
280
2
  9
$DGNFRAME
280
2
  9
$REALWORLDSCALE
290
1
  9
$INTERFERECOLOR
 62
256
  9
$CSHADOW
280
0
  9
$SHADOWPLANELOCATION
 40
0.0
  0
ENDSEC
  0
SECTION
  2
CLASSES
  0
CLASS
  1
ACDBDICTIONARYWDFLT
  2
AcDbDictionaryWithDefault
  3
ObjectDBX Classes
 90
0
 91
0
280
0
281
0
  0
CLASS
  1
SUN
  2
AcDbSun
  3
SCENEOE
 90
1153
 91
0
280
0
281
0
  0
CLASS
  1
VISUALSTYLE
  2
AcDbVisualStyle
  3
ObjectDBX Classes
 90
4095
 91
0
280
0
281
0
  0
CLASS
  1
MATERIAL
  2
AcDbMaterial
  3
ObjectDBX Classes
 90
1153
 91
0
280
0
281
0
  0
CLASS
  1
SCALE
  2
AcDbScale
  3
ObjectDBX Classes
 90
1153
 91
0
280
0
281
0
  0
CLASS
  1
TABLESTYLE
  2
AcDbTableStyle
  3
ObjectDBX Classes
 90
4095
 91
0
280
0
281
0
  0
CLASS
  1
MLEADERSTYLE
  2
AcDbMLeaderStyle
  3
ACDB_MLEADERSTYLE_CLASS
 90
4095
 91
0
280
0
281
0
  0
CLASS
  1
DICTIONARYVAR
  2
AcDbDictionaryVar
  3
ObjectDBX Classes
 90
0
 91
0
280
0
281
0
  0
CLASS
  1
CELLSTYLEMAP
  2
AcDbCellStyleMap
  3
ObjectDBX Classes
 90
1152
 91
0
280
0
281
0
  0
CLASS
  1
MENTALRAYRENDERSETTINGS
  2
AcDbMentalRayRenderSettings
  3
SCENEOE
 90
1024
 91
0
280
0
281
0
  0
CLASS
  1
ACDBDETAILVIEWSTYLE
  2
AcDbDetailViewStyle
  3
ObjectDBX Classes
 90
1025
 91
0
280
0
281
0
  0
CLASS
  1
ACDBSECTIONVIEWSTYLE
  2
AcDbSectionViewStyle
  3
ObjectDBX Classes
 90
1025
 91
0
280
0
281
0
  0
CLASS
  1
RASTERVARIABLES
  2
AcDbRasterVariables
  3
ISM
 90
0
 91
0
280
0
281
0
  0
CLASS
  1
LAYOUT
  2
AcDbLayout
  3
ObjectDBX Classes
 90
0
 91
0
280
0
281
0
  0
CLASS
  1
ACDBPLACEHOLDER
  2
AcDbPlaceHolder
  3
ObjectDBX Classes
 90
0
 91
0
280
0
281
0
  0
ENDSEC
  0
SECTION
  2
TABLES
  0
TABLE
  2
VPORT
  5
8
330
0
100
AcDbSymbolTable
 70
1
  0
VPORT
  5
23
330
8
100
AcDbSymbolTableRecord
100
AcDbViewportTableRecord
  2
*Active
 70
0
 10
0.0
 20
0.0
 11
1.0
 21
1.0
 12
0.0
 22
0.0
 13
0.0
 23
0.0
 14
0.5
 24
0.5
 15
0.5
 25
0.5
 16
0.0
 26
0.0
 36
1.0
 17
0.0
 27
0.0
 37
0.0
 40
1000.0
 41
1.34
 42
50.0
 43
0.0
 44
0.0
 50
0.0
 51
0.0
 71
0
 72
1000
 73
1
 74
3
 75
0
 76
0
 77
0
 78
0
281
0
 65
0
146
0.0
  0
ENDTAB
  0
TABLE
  2
LTYPE
  5
2
330
0
100
AcDbSymbolTable
 70
3
  0
LTYPE
  5
24
330
2
100
AcDbSymbolTableRecord
100
AcDbLinetypeTableRecord
  2
ByBlock
 70
0
  3

 72
65
 73
0
 40
0.0
  0
LTYPE
  5
25
330
2
100
AcDbSymbolTableRecord
100
AcDbLinetypeTableRecord
  2
ByLayer
 70
0
  3

 72
65
 73
0
 40
0.0
  0
LTYPE
  5
26
330
2
100
AcDbSymbolTableRecord
100
AcDbLinetypeTableRecord
  2
Continuous
 70
0
  3

 72
65
 73
0
 40
0.0
  0
ENDTAB
  0
TABLE
  2
LAYER
  5
1
330
0
100
AcDbSymbolTable
 70
2
  0
LAYER
  5
27
330
1
100
AcDbSymbolTableRecord
100
AcDbLayerTableRecord
  2
0
 70
0
 62
7
  6
Continuous
370
-3
390
13
347
21
  0
LAYER
  5
28
330
1
100
AcDbSymbolTableRecord
100
AcDbLayerTableRecord
  2
Defpoints
 70
0
 62
7
  6
Continuous
290
0
370
-3
390
13
347
21
  0
ENDTAB
  0
TABLE
  2
STYLE
  5
5
330
0
100
AcDbSymbolTable
 70
1
  0
STYLE
  5
29
330
5
100
AcDbSymbolTableRecord
100
AcDbTextStyleTableRecord
  2
Standard
 70
0
 40
0.0
 41
1.0
 50
0.0
 71
0
 42
2.5
  3
txt
  4

  0
ENDTAB
  0
TABLE
  2
VIEW
  5
7
330
0
100
AcDbSymbolTable
 70
0
  0
ENDTAB
  0
TABLE
  2
UCS
  5
6
330
0
100
AcDbSymbolTable
 70
0
  0
ENDTAB
  0
TABLE
  2
APPID
  5
3
330
0
100
AcDbSymbolTable
 70
3
  0
APPID
  5
2A
330
3
100
AcDbSymbolTableRecord
100
AcDbRegAppTableRecord
  2
ACAD
 70
0
  0
APPID
  5
315
330
3
100
AcDbSymbolTableRecord
100
AcDbRegAppTableRecord
  2
HATCHBACKGROUNDCOLOR
 70
0
  0
APPID
  5
316
330
3
100
AcDbSymbolTableRecord
100
AcDbRegAppTableRecord
  2
EZDXF
 70
0
  0
ENDTAB
  0
TABLE
  2
DIMSTYLE
  5
4
330
0
100
AcDbSymbolTable
 70
1
100
AcDbDimStyleTable
  0
DIMSTYLE
105
2B
330
4
100
AcDbSymbolTableRecord
100
AcDbDimStyleTableRecord
  2
Standard
 70
0
 40
1.0
 41
2.5
 42
0.625
 43
3.75
 44
1.25
 45
0.0
 46
0.0
 47
0.0
 48
0.0
 49
2.5
140
2.5
141
2.5
142
0.0
143
0.03937007874
144
1.0
145
0.0
146
1.0
147
0.625
148
0.0
 69
0
 70
0
 71
0
 72
0
 73
0
 74
0
 75
0
 76
0
 77
1
 78
8
 79
3
170
0
171
3
172
1
173
0
174
0
175
0
176
0
177
0
178
0
179
2
271
2
272
2
273
2
274
3
275
0
276
0
277
2
278
44
279
0
280
0
281
0
282
0
283
0
284
8
285
0
286
0
288
0
289
3
290
0
371
-2
372
-2
  0
ENDTAB
  0
TABLE
  2
BLOCK_RECORD
  5
9
330
0
100
AcDbSymbolTable
 70
2
  0
BLOCK_RECORD
  5
17
330
9
100
AcDbSymbolTableRecord
100
AcDbBlockTableRecord
  2
*Model_Space
340
1A
 70
0
280
1
281
0
  0
BLOCK_RECORD
  5
1B
330
9
100
AcDbSymbolTableRecord
100
AcDbBlockTableRecord
  2
*Paper_Space
340
1E
 70
0
280
1
281
0
  0
ENDTAB
  0
ENDSEC
  0
SECTION
  2
BLOCKS
  0
BLOCK
  5
18
330
17
100
AcDbEntity
  8
0
100
AcDbBlockBegin
  2
*Model_Space
 70
0
 10
0.0
 20
0.0
 30
0.0
  3
*Model_Space
  1

  0
ENDBLK
  5
19
330
17
100
AcDbEntity
  8
0
100
AcDbBlockEnd
  0
BLOCK
  5
1C
330
1B
100
AcDbEntity
  8
0
100
AcDbBlockBegin
  2
*Paper_Space
 70
0
 10
0.0
 20
0.0
 30
0.0
  3
*Paper_Space
  1

  0
ENDBLK
  5
1D
330
1B
100
AcDbEntity
  8
0
100
AcDbBlockEnd
  0
ENDSEC
  0
SECTION
  2
ENTITIES
  0
LINE
  5
2F
330
17
100
AcDbEntity
  8
0
100
AcDbLine
 10
-41.425429936721315
 20
1827.7921806590973
 30
0.0
 11
2005.765116310155
 21
1935.0808909571324
 31
0.0
  0
LINE
  5
30
330
17
100
AcDbEntity
  8
0
100
AcDbLine
 10
502.93971350866127
 20
1866.9656581359059
 30
0.0
 11
602.0215180558804
 21
-23.627797696353127
 31
0.0
  0
LINE
  5
31
330
17
100
AcDbEntity
  8
0
100
AcDbLine
 10
-7.4276630859900905
 20
1179.0761443027798
 30
0.0
 11
2039.7628831608863
 21
1286.3648546008149
 31
0.0
  0
LINE
  5
32
330
17
100
AcDbEntity
  8
0
100
AcDbLine
 10
503.4960406025823
 20
1856.3503048137113
 30
0.0
 11
621.4444108491855
 21
1862.53171696839
 31
0.0
  0
LINE
  5
33
330
17
100
AcDbEntity
  8
0
100
AcDbLine
 10
1034.2637067122967
 20
1884.166659509764
 30
0.0
 11
1132.7891841655949
 21
4.1885569996995855
 31
0.0
  0
LINE
  5
34
330
17
100
AcDbEntity
  8
0
100
AcDbLine
 10
1565.0313728220115
 20
1911.9830142058172
 30
0.0
 11
1663.5568502753097
 21
32.004911695752526
 31
0.0
  0
LINE
  5
35
330
17
100
AcDbEntity
  8
0
100
AcDbLine
 10
26.570103764741074
 20
530.3601079464634
 30
0.0
 11
2073.7606500116176
 21
637.6488182444984
 31
0.0
  0
LINE
  5
36
330
17
100
AcDbEntity
  8
0
100
AcDbLine
 10
503.4960406025823
 20
1856.3503048137113
 30
0.0
 11
525.2546113870504
 21
1441.1720415456657
 31
0.0
  0
LINE
  5
37
330
17
100
AcDbEntity
  8
0
100
AcDbLine
 10
488.6004667144313
 20
1869.7623397847424
 30
0.0
 11
628.9590273078892
 21
1877.1182202488094
 31
0.0
  0
LINE
  5
38
330
17
100
AcDbEntity
  8
0
100
AcDbLine
 10
2056.514510100065
 20
966.7247712325212
 30
0.0
 11
1947.2156870048761
 21
960.9966626358524
 31
0.0
  0
LINE
  5
39
330
17
100
AcDbEntity
  8
0
100
AcDbLine
 10
2057.4417219232664
 20
949.0325156955296
 30
0.0
 11
1606.092625112931
 21
925.3783118502934
 31
0.0
  0
LINE
  5
3A
330
17
100
AcDbEntity
  8
0
100
AcDbLine
 10
1947.2156870048761
 20
960.9966626358524
 30
0.0
 11
1935.471003910987
 21
1185.0985661043997
 31
0.0
  0
LINE
  5
3B
330
17
100
AcDbEntity
  8
0
100
AcDbLine
 10
2044.7698270061755
 20
1190.8266747010684
 30
0.0
 11
1935.471003910987
 21
1185.0985661043997
 31
0.0
  0
LINE
  5
3C
330
17
100
AcDbEntity
  8
0
100
AcDbLine
 10
1929.5234314678885
 20
960.0694508126506
 30
0.0
 11
1917.7787483739994
 21
1184.1713542811979
 31
0.0
  0
LINE
  5
3D
330
17
100
AcDbEntity
  8
0
100
AcDbLine
 10
1929.5234314678885
 20
960.0694508126506
 30
0.0
 11
1622.8576688267174
 21
943.9977792104868
 31
0.0
  0
LINE
  5
3E
330
17
100
AcDbEntity
  8
0
100
AcDbLine
 10
568.5879399959701
 20
343.51042879369254
 30
0.0
 11
587.8677136262908
 21
-24.36956715491442
 31
0.0
  0
LINE
  5
3F
330
17
100
AcDbEntity
  8
0
100
AcDbLine
 10
2043.842615182974
 20
1208.5189302380554
 30
0.0
 11
1828.390258865845
 21
1197.227550702176
 31
0.0
  0
LINE
  5
40
330
17
100
AcDbEntity
  8
0
100
AcDbLine
 10
1917.7787483739994
 20
1184.1713542811979
 30
0.0
 11
1611.1129857328283
 21
1168.099682679034
 31
0.0
  0
LINE
  5
41
330
17
100
AcDbEntity
  8
0
100
AcDbLine
 10
1610.1857739096267
 20
1185.7919382160208
 30
0.0
 11
1606.66236898146
 21
1253.022509256586
 31
0.0
  0
LINE
  5
42
330
17
100
AcDbEntity
  8
0
100
AcDbLine
 10
1622.8576688267174
 20
943.9977792104868
 30
0.0
 11
1611.1129857328283
 21
1168.099682679034
 31
0.0
  0
LINE
  5
43
330
17
100
AcDbEntity
  8
0
100
AcDbLine
 10
1606.092625112931
 20
925.3783118502934
 30
0.0
 11
1588.970113444472
 21
1252.095297433384
 31
0.0
  0
LINE
  5
44
330
17
100
AcDbEntity
  8
0
100
AcDbLine
 10
1336.8296757590692
 20
1888.196237601082
 30
0.0
 11
1558.0747128618527
 21
1615.9376202799203
 31
0.0
  0
LINE
  5
45
330
17
100
AcDbEntity
  8
0
100
AcDbLine
 10
1351.6650649302974
 20
1605.120149009233
 30
0.0
 11
1543.2393236906246
 21
1899.0137088717693
 31
0.0
  0
LINE
  5
46
330
17
100
AcDbEntity
  8
0
100
AcDbLine
 10
1828.390258865845
 20
1197.227550702176
 30
0.0
 11
1826.5358352194414
 21
1232.6120617761583
 31
0.0
  0
LINE
  5
47
330
17
100
AcDbEntity
  8
0
100
AcDbLine
 10
1810.6980033288544
 20
1196.3003388789743
 30
0.0
 11
1808.8435796824508
 21
1231.6848499529565
 31
0.0
  0
LINE
  5
48
330
17
100
AcDbEntity
  8
0
100
AcDbLine
 10
1957.8127353385983
 20
1435.8240509711336
 30
0.0
 11
1939.268498874563
 21
1789.6691617109434
 31
0.0
  0
LINE
  5
49
330
17
100
AcDbEntity
  8
0
100
AcDbLine
 10
1969.6075723632587
 20
1436.4421921866015
 30
0.0
 11
1951.0633358992234
 21
1790.2873029264113
 31
0.0
  0
LINE
  5
4A
330
17
100
AcDbEntity
  8
0
100
AcDbLine
 10
1797.73045457864
 20
1782.2514671253293
 30
0.0
 11
2013.182810895769
 21
1793.5428466612086
 31
0.0
  0
LINE
  5
4B
330
17
100
AcDbEntity
  8
0
100
AcDbLine
 10
1799.5848782250437
 20
1746.866956051348
 30
0.0
 11
1941.1229225209665
 21
1754.2846506369624
 31
0.0
  0
LINE
  5
4C
330
17
100
AcDbEntity
  8
0
100
AcDbLine
 10
1801.4393018714472
 20
1711.4824449773673
 30
0.0
 11
1942.9773461673701
 21
1718.9001395629814
 31
0.0
  0
LINE
  5
4D
330
17
100
AcDbEntity
  8
0
100
AcDbLine
 10
1803.2937255178506
 20
1676.0979339033875
 30
0.0
 11
1944.8317698137735
 21
1683.5156284890015
 31
0.0
  0
LINE
  5
4E
330
17
100
AcDbEntity
  8
0
100
AcDbLine
 10
1805.1481491642544
 20
1640.713422829403
 30
0.0
 11
1946.6861934601773
 21
1648.1311174150173
 31
0.0
  0
LINE
  5
4F
330
17
100
AcDbEntity
  8
0
100
AcDbLine
 10
1807.0025728106577
 20
1605.3289117554245
 30
0.0
 11
1948.5406171065806
 21
1612.7466063410386
 31
0.0
  0
LINE
  5
50
330
17
100
AcDbEntity
  8
0
100
AcDbLine
 10
1808.8569964570613
 20
1569.9444006814435
 30
0.0
 11
1879.626018605023
 21
1573.6532479742505
 31
0.0
  0
LINE
  5
51
330
17
100
AcDbEntity
  8
0
100
AcDbLine
 10
1816.2746910426754
 20
1428.4063563855195
 30
0.0
 11
2031.7270473598044
 21
1439.6977359213988
 31
0.0
  0
LINE
  5
52
330
17
100
AcDbEntity
  8
0
100
AcDbLine
 10
1826.5358352194414
 20
1232.6120617761583
 30
0.0
 11
1808.8435796824508
 21
1231.6848499529565
 31
0.0
  0
LINE
  5
53
330
17
100
AcDbEntity
  8
0
100
AcDbLine
 10
1819.1181406338274
 20
1374.1501060720834
 30
0.0
 11
1801.4258850968367
 21
1373.2228942488819
 31
0.0
  0
LINE
  5
54
330
17
100
AcDbEntity
  8
0
100
AcDbLine
 10
1801.4258850968367
 20
1373.2228942488819
 30
0.0
 11
1772.6205044560354
 21
1922.8622995980513
 31
0.0
  0
LINE
  5
55
330
17
100
AcDbEntity
  8
0
100
AcDbLine
 10
1819.1181406338274
 20
1374.1501060720834
 30
0.0
 11
1790.312759993026
 21
1923.7895114212529
 31
0.0
  0
LINE
  5
56
330
17
100
AcDbEntity
  8
0
100
AcDbLine
 10
1810.6980033288544
 20
1196.3003388789743
 30
0.0
 11
1610.1857739096267
 21
1185.7919382160208
 31
0.0
  0
LINE
  5
57
330
17
100
AcDbEntity
  8
0
100
AcDbLine
 10
1952.917759545627
 20
1754.9027918524303
 30
0.0
 11
2015.0372345421727
 21
1758.1583355872276
 31
0.0
  0
LINE
  5
58
330
17
100
AcDbEntity
  8
0
100
AcDbLine
 10
1954.7721831920305
 20
1719.5182807784493
 30
0.0
 11
2016.8916581885762
 21
1722.7738245132466
 31
0.0
  0
LINE
  5
59
330
17
100
AcDbEntity
  8
0
100
AcDbLine
 10
1956.6266068384339
 20
1684.1337697044694
 30
0.0
 11
2018.7460818349796
 21
1687.3893134392667
 31
0.0
  0
LINE
  5
5A
330
17
100
AcDbEntity
  8
0
100
AcDbLine
 10
1958.4810304848377
 20
1648.7492586304852
 30
0.0
 11
2020.6005054813834
 21
1652.0048023652826
 31
0.0
  0
LINE
  5
5B
330
17
100
AcDbEntity
  8
0
100
AcDbLine
 10
1960.335454131241
 20
1613.3647475565065
 30
0.0
 11
2022.4549291277867
 21
1616.6202912913038
 31
0.0
  0
LINE
  5
5C
330
17
100
AcDbEntity
  8
0
100
AcDbLine
 10
1962.1898777776446
 20
1577.9802364825255
 30
0.0
 11
2024.3093527741903
 21
1581.2357802173228
 31
0.0
  0
LINE
  5
5D
330
17
100
AcDbEntity
  8
0
100
AcDbLine
 10
1964.0443014240482
 20
1542.5957254085442
 30
0.0
 11
2026.1637764205939
 21
1545.8512691433416
 31
0.0
  0
LINE
  5
5E
330
17
100
AcDbEntity
  8
0
100
AcDbLine
 10
1965.8987250704515
 20
1507.2112143345646
 30
0.0
 11
2028.0182000669972
 21
1510.466758069362
 31
0.0
  0
LINE
  5
5F
330
17
100
AcDbEntity
  8
0
100
AcDbLine
 10
1967.7531487168553
 20
1471.8267032605804
 30
0.0
 11
2029.872623713401
 21
1475.0822469953778
 31
0.0
  0
LINE
  5
60
330
17
100
AcDbEntity
  8
0
100
AcDbLine
 10
1999.9140580417409
 20
1769.6534119293892
 30
0.0
 11
2013.6361144537789
 21
1784.8932995097928
 31
0.0
  0
LINE
  5
61
330
17
100
AcDbEntity
  8
0
100
AcDbLine
 10
1868.4994767266019
 20
1785.9603144181362
 30
0.0
 11
1879.626018605023
 21
1573.6532479742505
 31
0.0
  0
LINE
  5
62
330
17
100
AcDbEntity
  8
0
100
AcDbLine
 10
1855.2832803151935
 20
1595.5715479796959
 30
0.0
 11
1879.626018605023
 21
1573.6532479742505
 31
0.0
  0
LINE
  5
63
330
17
100
AcDbEntity
  8
0
100
AcDbLine
 10
1901.5443186104665
 20
1597.995986264079
 30
0.0
 11
1879.626018605023
 21
1573.6532479742505
 31
0.0
  0
LINE
  5
64
330
17
100
AcDbEntity
  8
0
100
AcDbLine
 10
1810.711420103465
 20
1534.5598896074623
 30
0.0
 11
1948.5406171065806
 21
1612.7466063410386
 31
0.0
  0
LINE
  5
65
330
17
100
AcDbEntity
  8
0
100
AcDbLine
 10
1269.4186777469422
 20
1910.6832882487133
 30
0.0
 11
1598.4946307349674
 21
1927.929428160266
 31
0.0
  0
LINE
  5
66
330
17
100
AcDbEntity
  8
0
100
AcDbLine
 10
1270.1604472055035
 20
1896.5294838191212
 30
0.0
 11
1599.2364001935287
 21
1913.775623730674
 31
0.0
  0
LINE
  5
67
330
17
100
AcDbEntity
  8
0
100
AcDbLine
 10
543.6134054864451
 20
1090.8653819132576
 30
0.0
 11
529.4596010568555
 21
1090.1236124546963
 31
0.0
  0
LINE
  5
68
330
17
100
AcDbEntity
  8
0
100
AcDbLine
 10
549.1766764256557
 20
984.7118486913137
 30
0.0
 11
535.0228719960661
 21
983.9700792327524
 31
0.0
  0
LINE
  5
69
330
17
100
AcDbEntity
  8
0
100
AcDbLine
 10
558.0160958068461
 20
816.0456792386665
 30
0.0
 11
549.1766764256557
 21
984.7118486913137
 31
0.0
  0
LINE
  5
6A
330
17
100
AcDbEntity
  8
0
100
AcDbLine
 10
543.8622913772565
 20
815.3039097801052
 30
0.0
 11
534.5901731452389
 21
992.2264651500109
 31
0.0
  0
LINE
  5
6B
330
17
100
AcDbEntity
  8
0
100
AcDbLine
 10
583.174443276387
 20
335.99581233499623
 30
0.0
 11
602.0215180558804
 21
-23.627797696353127
 31
0.0
  0
LINE
  5
6C
330
17
100
AcDbEntity
  8
0
100
AcDbLine
 10
566.0519316079279
 20
662.7127979180843
 30
0.0
 11
577.6111723371764
 21
442.1493455569388
 31
0.0
  0
LINE
  5
6D
330
17
100
AcDbEntity
  8
0
100
AcDbLine
 10
577.6111723371764
 20
442.1493455569388
 30
0.0
 11
563.4573679075868
 21
441.4075760983775
 31
0.0
  0
LINE
  5
6E
330
17
100
AcDbEntity
  8
0
100
AcDbLine
 10
583.174443276387
 20
335.99581233499623
 30
0.0
 11
569.0206388467974
 21
335.25404287643494
 31
0.0
  0
LINE
  5
6F
330
17
100
AcDbEntity
  8
0
100
AcDbLine
 10
530.8178823262609
 20
1335.0185083237252
 30
0.0
 11
516.6640778966713
 21
1334.276738865164
 31
0.0
  0
LINE
  5
70
330
17
100
AcDbEntity
  8
0
100
AcDbLine
 10
525.2546113870504
 20
1441.1720415456657
 30
0.0
 11
511.1008069574608
 21
1440.4302720871046
 31
0.0
  0
LINE
  5
71
330
17
100
AcDbEntity
  8
0
100
AcDbLine
 10
530.8178823262609
 20
1335.0185083237252
 30
0.0
 11
543.6134054864451
 21
1090.8653819132576
 31
0.0
  0
LINE
  5
72
330
17
100
AcDbEntity
  8
0
100
AcDbLine
 10
1599.2364001935287
 20
1913.775623730674
 30
0.0
 11
1598.4946307349674
 21
1927.929428160266
 31
0.0
  0
LINE
  5
73
330
17
100
AcDbEntity
  8
0
100
AcDbLine
 10
1740.7744444894515
 20
1921.1933183162878
 30
0.0
 11
1740.0326750308902
 21
1935.34712274588
 31
0.0
  0
LINE
  5
74
330
17
100
AcDbEntity
  8
0
100
AcDbLine
 10
1740.7744444894515
 20
1921.1933183162878
 30
0.0
 11
1920.0559672642921
 21
1930.5890647913993
 31
0.0
  0
LINE
  5
75
330
17
100
AcDbEntity
  8
0
100
AcDbLine
 10
1740.0326750308902
 20
1935.34712274588
 30
0.0
 11
1927.570583722989
 21
1945.1755680718188
 31
0.0
  0
LINE
  5
76
330
17
100
AcDbEntity
  8
0
100
AcDbLine
 10
1920.0559672642921
 20
1930.5890647913993
 30
0.0
 11
1919.3141978057308
 21
1944.7428692209915
 31
0.0
  0
LINE
  5
77
330
17
100
AcDbEntity
  8
0
100
AcDbLine
 10
414.1225972736596
 20
1936.8225146398972
 30
0.0
 11
988.5311603746179
 21
1966.9259918331813
 31
0.0
  0
LINE
  5
78
330
17
100
AcDbEntity
  8
0
100
AcDbLine
 10
414.1225972736596
 20
1936.8225146398972
 30
0.0
 11
471.54791619062223
 21
841.0821550489497
 31
0.0
  0
LINE
  5
79
330
17
100
AcDbEntity
  8
0
100
AcDbLine
 10
482.6744580690433
 20
628.7750886050652
 30
0.0
 11
517.0986914783261
 21
-28.07841444772157
 31
0.0
  0
LINE
  5
7A
330
17
100
AcDbEntity
  8
0
100
AcDbLine
 10
1069.6482177862829
 20
1886.021083156168
 30
0.0
 11
1068.9064483277216
 21
1900.1748875857602
 31
0.0
  0
LINE
  5
7B
330
17
100
AcDbEntity
  8
0
100
AcDbLine
 10
1270.1604472055035
 20
1896.5294838191212
 30
0.0
 11
1269.4186777469422
 21
1910.6832882487133
 31
0.0
  0
LINE
  5
7C
330
17
100
AcDbEntity
  8
0
100
AcDbLine
 10
558.0160958068461
 20
816.0456792386665
 30
0.0
 11
543.8622913772565
 21
815.3039097801052
 31
0.0
  0
LINE
  5
7D
330
17
100
AcDbEntity
  8
0
100
AcDbLine
 10
566.0519316079279
 20
662.7127979180843
 30
0.0
 11
551.8981271783383
 21
661.971028459523
 31
0.0
  0
LINE
  5
7E
330
17
100
AcDbEntity
  8
0
100
AcDbLine
 10
620.7026413906241
 20
1876.685521397982
 30
0.0
 11
621.4444108491855
 21
1862.53171696839
 31
0.0
  0
LINE
  5
7F
330
17
100
AcDbEntity
  8
0
100
AcDbLine
 10
809.4200337851922
 20
1886.5757808454675
 30
0.0
 11
810.1618032437536
 21
1872.4219764158754
 31
0.0
  0
LINE
  5
80
330
17
100
AcDbEntity
  8
0
100
AcDbLine
 10
810.1618032437536
 20
1872.4219764158754
 30
0.0
 11
1069.6482177862829
 21
1886.021083156168
 31
0.0
  0
LINE
  5
81
330
17
100
AcDbEntity
  8
0
100
AcDbLine
 10
620.7026413906241
 20
1876.685521397982
 30
0.0
 11
809.4200337851922
 21
1886.5757808454675
 31
0.0
  0
LINE
  5
82
330
17
100
AcDbEntity
  8
0
100
AcDbLine
 10
621.4444108491855
 20
1862.53171696839
 30
0.0
 11
810.1618032437536
 21
1872.4219764158754
 31
0.0
  0
LINE
  5
83
330
17
100
AcDbEntity
  8
0
100
AcDbLine
 10
543.8622913772565
 20
815.3039097801052
 30
0.0
 11
551.8981271783383
 21
661.971028459523
 31
0.0
  0
LINE
  5
84
330
17
100
AcDbEntity
  8
0
100
AcDbLine
 10
1068.9064483277216
 20
1900.1748875857602
 30
0.0
 11
1269.4186777469422
 21
1910.6832882487133
 31
0.0
  0
LINE
  5
85
330
17
100
AcDbEntity
  8
0
100
AcDbLine
 10
300.18863175993147
 20
725.6565035949922
 30
0.0
 11
370.9576539078928
 21
729.3653508877991
 31
0.0
  0
LINE
  5
86
330
17
100
AcDbEntity
  8
0
100
AcDbLine
 10
349.03935390244584
 20
705.022612597969
 30
0.0
 11
370.9576539078928
 21
729.3653508877991
 31
0.0
  0
LINE
  5
87
330
17
100
AcDbEntity
  8
0
100
AcDbLine
 10
346.61491561806304
 20
751.2836508932386
 30
0.0
 11
370.9576539078928
 21
729.3653508877991
 31
0.0
  0
LINE
  5
88
330
17
100
AcDbEntity
  8
0
100
AcDbLine
 10
365.3943829686824
 20
835.5188841097392
 30
0.0
 11
376.52092484710346
 21
623.2118176658547
 31
0.0
  0
LINE
  5
89
330
17
100
AcDbEntity
  8
0
100
AcDbLine
 10
330.0098718946999
 20
833.6644604633357
 30
0.0
 11
341.136413773121
 21
621.3573940194511
 31
0.0
  0
LINE
  5
8A
330
17
100
AcDbEntity
  8
0
100
AcDbLine
 10
294.6253608207177
 20
831.8100368169321
 30
0.0
 11
305.7519026991387
 21
619.5029703730476
 31
0.0
  0
LINE
  5
8B
330
17
100
AcDbEntity
  8
0
100
AcDbLine
 10
294.6253608207177
 20
831.8100368169321
 30
0.0
 11
542.3169383385869
 21
844.7910023417569
 31
0.0
  0
LINE
  5
8C
330
17
100
AcDbEntity
  8
0
100
AcDbLine
 10
305.7519026991387
 20
619.5029703730476
 30
0.0
 11
553.4434802170078
 21
632.4839358978724
 31
0.0
  0
LINE
  5
8D
330
17
100
AcDbEntity
  8
0
100
AcDbLine
 10
1340.3513241034013
 20
1256.8065874455497
 30
0.0
 11
1336.3334062028605
 21
1333.473028105841
 31
0.0
  0
LINE
  5
8E
330
17
100
AcDbEntity
  8
0
100
AcDbLine
 10
1358.0435796403929
 20
1257.7337992687517
 30
0.0
 11
1354.025661739852
 21
1334.400239929043
 31
0.0
  0
LINE
  5
8F
330
17
100
AcDbEntity
  8
0
100
AcDbLine
 10
1347.8442495851734
 20
1452.3486101756482
 30
0.0
 11
1577.8435715660507
 21
1464.402363877271
 31
0.0
  0
LINE
  5
90
330
17
100
AcDbEntity
  8
0
100
AcDbLine
 10
1346.9170377619716
 20
1470.0408657126377
 30
0.0
 11
1594.608615279837
 21
1483.0218312374623
 31
0.0
  0
LINE
  5
91
330
17
100
AcDbEntity
  8
0
100
AcDbLine
 10
1346.9170377619716
 20
1470.0408657126377
 30
0.0
 11
1324.4166975189423
 21
1899.3729334102732
 31
0.0
  0
LINE
  5
92
330
17
100
AcDbEntity
  8
0
100
AcDbLine
 10
1605.5497147936178
 20
1274.2532159009759
 30
0.0
 11
1594.608615279837
 21
1483.0218312374623
 31
0.0
  0
LINE
  5
93
330
17
100
AcDbEntity
  8
0
100
AcDbLine
 10
1587.8574592566297
 20
1273.326004077774
 30
0.0
 11
1577.8435715660507
 21
1464.402363877271
 31
0.0
  0
LINE
  5
94
330
17
100
AcDbEntity
  8
0
100
AcDbLine
 10
1358.0435796403929
 20
1257.7337992687517
 30
0.0
 11
1588.0429016212702
 21
1269.7875529703745
 31
0.0
  0
LINE
  5
95
330
17
100
AcDbEntity
  8
0
100
AcDbLine
 10
1079.4331539791438
 20
1225.3915969251734
 30
0.0
 11
1104.2023117309352
 21
1226.689693477656
 31
0.0
  0
LINE
  5
96
330
17
100
AcDbEntity
  8
0
100
AcDbLine
 10
1078.505942155942
 20
1243.0838524621638
 30
0.0
 11
1103.2750999077334
 21
1244.3819490146464
 31
0.0
  0
LINE
  5
97
330
17
100
AcDbEntity
  8
0
100
AcDbLine
 10
558.3536293684224
 20
1215.8238248600321
 30
0.0
 11
1057.275235511556
 21
1241.9711982743218
 31
0.0
  0
LINE
  5
98
330
17
100
AcDbEntity
  8
0
100
AcDbLine
 10
559.2808411916242
 20
1198.1315693230417
 30
0.0
 11
1058.2024473347578
 21
1224.2789427373314
 31
0.0
  0
LINE
  5
99
330
17
100
AcDbEntity
  8
0
100
AcDbLine
 10
522.9674888898194
 20
1484.812938536909
 30
0.0
 11
1043.1198016773426
 21
1512.072966139041
 31
0.0
  0
LINE
  5
9A
330
17
100
AcDbEntity
  8
0
100
AcDbLine
 10
523.894700713021
 20
1467.1206829999207
 30
0.0
 11
1044.0470135005444
 21
1494.3807106020527
 31
0.0
  0
LINE
  5
9B
330
17
100
AcDbEntity
  8
0
100
AcDbLine
 10
1043.1198016773426
 20
1512.072966139041
 30
0.0
 11
1039.4109543845354
 21
1582.8419882870062
 31
0.0
  0
LINE
  5
9C
330
17
100
AcDbEntity
  8
0
100
AcDbLine
 10
1039.4109543845354
 20
1582.8419882870062
 30
0.0
 11
1057.1032099215233
 21
1583.7692001102077
 31
0.0
  0
LINE
  5
9D
330
17
100
AcDbEntity
  8
0
100
AcDbLine
 10
1047.6940466718045
 20
1424.7911721565567
 30
0.0
 11
1065.3863022087924
 21
1425.7183839797583
 31
0.0
  0
LINE
  5
9E
330
17
100
AcDbEntity
  8
0
100
AcDbLine
 10
1047.6940466718045
 20
1424.7911721565567
 30
0.0
 11
1044.0470135005444
 21
1494.3807106020527
 31
0.0
  0
LINE
  5
9F
330
17
100
AcDbEntity
  8
0
100
AcDbLine
 10
1065.3863022087924
 20
1425.7183839797583
 30
0.0
 11
1057.1032099215233
 21
1583.7692001102077
 31
0.0
  0
LINE
  5
A0
330
17
100
AcDbEntity
  8
0
100
AcDbLine
 10
1033.229542229857
 20
1700.7903585336094
 30
0.0
 11
1024.7610075779476
 21
1862.3796257714562
 31
0.0
  0
LINE
  5
A1
330
17
100
AcDbEntity
  8
0
100
AcDbLine
 10
1050.921797766845
 20
1701.717570356811
 30
0.0
 11
1042.4532631149355
 21
1863.3068375946577
 31
0.0
  0
LINE
  5
A2
330
17
100
AcDbEntity
  8
0
100
AcDbLine
 10
1033.229542229857
 20
1700.7903585336094
 30
0.0
 11
1050.921797766845
 21
1701.717570356811
 31
0.0
  0
LINE
  5
A3
330
17
100
AcDbEntity
  8
0
100
AcDbLine
 10
1053.875458826483
 20
1306.8428019099536
 30
0.0
 11
1071.567714363471
 21
1307.770013733155
 31
0.0
  0
LINE
  5
A4
330
17
100
AcDbEntity
  8
0
100
AcDbLine
 10
1074.7820486839034
 20
1246.436861204923
 30
0.0
 11
1071.567714363471
 21
1307.770013733155
 31
0.0
  0
LINE
  5
A5
330
17
100
AcDbEntity
  8
0
100
AcDbLine
 10
1057.0897931469156
 20
1245.5096493817214
 30
0.0
 11
1053.875458826483
 21
1306.8428019099536
 31
0.0
  0
LINE
  5
A6
330
17
100
AcDbEntity
  8
0
100
AcDbLine
 10
1103.2750999077334
 20
1244.3819490146464
 30
0.0
 11
1104.2023117309352
 21
1226.689693477656
 31
0.0
  0
LINE
  5
A7
330
17
100
AcDbEntity
  8
0
100
AcDbLine
 10
1303.787329326954
 20
1254.8903496775995
 30
0.0
 11
1304.7145411501558
 21
1237.198094140609
 31
0.0
  0
LINE
  5
A8
330
17
100
AcDbEntity
  8
0
100
AcDbLine
 10
1303.787329326954
 20
1254.8903496775995
 30
0.0
 11
1340.3513241034013
 21
1256.8065874455497
 31
0.0
  0
LINE
  5
A9
330
17
100
AcDbEntity
  8
0
100
AcDbLine
 10
1304.7145411501558
 20
1237.198094140609
 30
0.0
 11
1588.970113444472
 21
1252.095297433384
 31
0.0
  0
LINE
  5
AA
330
17
100
AcDbEntity
  8
0
100
AcDbLine
 10
1330.7701352636498
 20
1439.6265613277847
 30
0.0
 11
1348.4623908006413
 21
1440.5537731509867
 31
0.0
  0
LINE
  5
AB
330
17
100
AcDbEntity
  8
0
100
AcDbLine
 10
1336.3334062028605
 20
1333.473028105841
 30
0.0
 11
1354.025661739852
 21
1334.400239929043
 31
0.0
  0
LINE
  5
AC
330
17
100
AcDbEntity
  8
0
100
AcDbLine
 10
1348.4623908006413
 20
1440.5537731509867
 30
0.0
 11
1347.8442495851734
 21
1452.3486101756482
 31
0.0
  0
LINE
  5
AD
330
17
100
AcDbEntity
  8
0
100
AcDbLine
 10
1330.7701352636498
 20
1439.6265613277847
 30
0.0
 11
1306.7244419819508
 21
1898.4457215870711
 31
0.0
  0
LINE
  5
AE
330
17
100
AcDbEntity
  8
0
100
AcDbLine
 10
992.240007667425
 20
1896.1569696852189
 30
0.0
 11
987.6216448345566
 21
1984.2805821727043
 31
0.0
  0
LINE
  5
AF
330
17
100
AcDbEntity
  8
0
100
AcDbLine
 10
1346.0851184072344
 20
1914.7012061492542
 30
0.0
 11
1341.4667555743658
 21
2002.8248186367396
 31
0.0
  0
LINE
  5
B0
330
17
100
AcDbEntity
  8
0
100
AcDbLine
 10
984.2185442812496
 20
2049.215608992439
 30
0.0
 11
1338.063655021059
 21
2067.7598454564736
 31
0.0
  0
LINE
  5
B1
330
17
100
AcDbEntity
  8
0
100
AcDbLine
 10
1342.3762711144273
 20
1985.4702282972162
 30
0.0
 11
1559.4012723681783
 21
1996.8440266618245
 31
0.0
  0
LINE
  5
B2
330
17
100
AcDbEntity
  8
0
100
AcDbLine
 10
1340.3670780707776
 20
2023.8079153951303
 30
0.0
 11
1338.063655021059
 21
2067.7598454564736
 31
0.0
  0
LINE
  5
B3
330
17
100
AcDbEntity
  8
0
100
AcDbLine
 10
986.5219673309682
 20
2005.2636789310955
 30
0.0
 11
984.2185442812496
 21
2049.215608992439
 31
0.0
  0
LINE
  5
B4
330
17
100
AcDbEntity
  8
0
100
AcDbLine
 10
1793.3398953649837
 20
1301.8357308854484
 30
0.0
 11
1834.6218249512947
 21
1303.9992251395859
 31
0.0
  0
LINE
  5
B5
330
17
100
AcDbEntity
  8
0
100
AcDbLine
 10
1668.6455116674604
 20
1943.4331124777336
 30
0.0
 11
1670.6235635569574
 21
1905.689633998822
 31
0.0
  0
LINE
  5
B6
330
17
100
AcDbEntity
  8
0
100
AcDbLine
 10
1057.1032099215233
 20
1583.7692001102077
 30
0.0
 11
1136.1343839009164
 21
1671.542210993365
 31
0.0
  0
LINE
  5
B7
330
17
100
AcDbEntity
  8
0
100
AcDbLine
 10
1071.567714363471
 20
1307.770013733155
 30
0.0
 11
1150.5988883428638
 21
1395.543024616315
 31
0.0
  0
LINE
  5
B8
330
17
100
AcDbEntity
  8
0
100
AcDbLine
 10
1336.3334062028605
 20
1333.473028105841
 30
0.0
 11
1257.3376964080207
 21
1404.6010846872953
 31
0.0
  0
LINE
  5
B9
330
17
100
AcDbEntity
  8
0
100
AcDbLine
 10
629.2680979156164
 20
1871.2208017364806
 30
0.0
 11
801.472718475658
 21
1880.245663482311
 31
0.0
  0
LINE
  5
BA
330
17
100
AcDbEntity
  8
0
100
AcDbLine
 10
801.472718475658
 20
1880.245663482311
 30
0.0
 11
801.318183171791
 21
1883.1943727384748
 31
0.0
  0
LINE
  5
BB
330
17
100
AcDbEntity
  8
0
100
AcDbLine
 10
801.318183171791
 20
1883.1943727384748
 30
0.0
 11
629.1135626117494
 21
1874.1695109926443
 31
0.0
  0
LINE
  5
BC
330
17
100
AcDbEntity
  8
0
100
AcDbLine
 10
629.1135626117494
 20
1874.1695109926443
 30
0.0
 11
629.2680979156164
 21
1871.2208017364806
 31
0.0
  0
LINE
  5
BD
330
17
100
AcDbEntity
  8
0
100
AcDbLine
 10
629.2680979156164
 20
1871.2208017364806
 30
0.0
 11
629.2680979156164
 21
1871.2208017364806
 31
0.0
  0
LINE
  5
BE
330
17
100
AcDbEntity
  8
0
100
AcDbLine
 10
1068.9064483277216
 20
1900.1748875857602
 30
0.0
 11
801.163647867927
 21
1886.14308199464
 31
0.0
  0
LINE
  5
BF
330
17
100
AcDbEntity
  8
0
100
AcDbLine
 10
801.163647867927
 20
1886.14308199464
 30
0.0
 11
801.4727184756609
 21
1880.2456634823113
 31
0.0
  0
LINE
  5
C0
330
17
100
AcDbEntity
  8
0
100
AcDbLine
 10
801.4727184756609
 20
1880.2456634823113
 30
0.0
 11
809.7291043929262
 21
1880.678362333139
 31
0.0
  0
LINE
  5
C1
330
17
100
AcDbEntity
  8
0
100
AcDbLine
 10
809.4200337851922
 20
1886.5757808454675
 30
0.0
 11
809.4200337851922
 21
1886.5757808454675
 31
0.0
  0
LINE
  5
C2
330
17
100
AcDbEntity
  8
0
100
AcDbLine
 10
621.011711998358
 20
1870.7881028856532
 30
0.0
 11
629.2680979156231
 21
1871.220801736481
 31
0.0
  0
LINE
  5
C3
330
17
100
AcDbEntity
  8
0
100
AcDbLine
 10
629.2680979156231
 20
1871.220801736481
 30
0.0
 11
628.9590273078892
 21
1877.1182202488094
 31
0.0
  0
LINE
  5
C4
330
17
100
AcDbEntity
  8
0
100
AcDbLine
 10
628.9590273078892
 20
1877.1182202488094
 30
0.0
 11
628.9590273078892
 21
1877.1182202488094
 31
0.0
  0
LINE
  5
C5
330
17
100
AcDbEntity
  8
0
100
AcDbLine
 10
1068.9064483277216
 20
1900.1748875857602
 30
0.0
 11
1124.2282701132908
 21
1961.6159952039698
 31
0.0
  0
LINE
  5
C6
330
17
100
AcDbEntity
  8
0
100
AcDbLine
 10
1269.4186777469422
 20
1910.6832882487133
 30
0.0
 11
1181.645666863788
 21
1989.714462228109
 31
0.0
  0
LINE
  5
C7
330
17
100
AcDbEntity
  8
0
100
AcDbLine
 10
1104.2023117309352
 20
1226.689693477656
 30
0.0
 11
1165.6434193491393
 21
1171.367871692081
 31
0.0
  0
LINE
  5
C8
330
17
100
AcDbEntity
  8
0
100
AcDbLine
 10
1304.7145411501558
 20
1237.198094140609
 30
0.0
 11
1225.6833671707661
 21
1149.4250832574498
 31
0.0
  0
LINE
  5
C9
330
17
100
AcDbEntity
  8
0
100
AcDbLine
 10
543.8622913772565
 20
815.3039097801052
 30
0.0
 11
472.73423479580424
 21
736.3081999852657
 31
0.0
  0
LINE
  5
CA
330
17
100
AcDbEntity
  8
0
100
AcDbLine
 10
551.8981271783383
 20
661.971028459523
 30
0.0
 11
516.7889228250743
 21
693.583498051278
 31
0.0
  0
LINE
  5
CB
330
17
100
AcDbEntity
  8
0
100
AcDbLine
 10
1598.4946307349674
 20
1927.929428160266
 30
0.0
 11
1740.0326750308902
 21
1935.34712274588
 31
0.0
  0
LINE
  5
CC
330
17
100
AcDbEntity
  8
0
100
AcDbLine
 10
1740.0326750308902
 20
1935.34712274588
 30
0.0
 11
1740.7744444894515
 21
1921.1933183162878
 31
0.0
  0
LINE
  5
CD
330
17
100
AcDbEntity
  8
0
100
AcDbLine
 10
1740.7744444894515
 20
1921.1933183162878
 30
0.0
 11
1599.2364001935287
 21
1913.775623730674
 31
0.0
  0
LINE
  5
CE
330
17
100
AcDbEntity
  8
0
100
AcDbLine
 10
1599.2364001935287
 20
1913.775623730674
 30
0.0
 11
1598.4946307349674
 21
1927.929428160266
 31
0.0
  0
LINE
  5
CF
330
17
100
AcDbEntity
  8
0
100
AcDbLine
 10
1598.4946307349674
 20
1927.929428160266
 30
0.0
 11
1598.4946307349674
 21
1927.929428160266
 31
0.0
  0
LINE
  5
D0
330
17
100
AcDbEntity
  8
0
100
AcDbLine
 10
1801.4258850968367
 20
1373.2228942488819
 30
0.0
 11
1808.8435796824508
 21
1231.6848499529565
 31
0.0
  0
LINE
  5
D1
330
17
100
AcDbEntity
  8
0
100
AcDbLine
 10
1808.8435796824508
 20
1231.6848499529565
 30
0.0
 11
1826.5358352194414
 21
1232.6120617761583
 31
0.0
  0
LINE
  5
D2
330
17
100
AcDbEntity
  8
0
100
AcDbLine
 10
1826.5358352194414
 20
1232.6120617761583
 30
0.0
 11
1819.1181406338274
 21
1374.1501060720834
 31
0.0
  0
LINE
  5
D3
330
17
100
AcDbEntity
  8
0
100
AcDbLine
 10
1819.1181406338274
 20
1374.1501060720834
 30
0.0
 11
1801.4258850968367
 21
1373.2228942488819
 31
0.0
  0
LINE
  5
D4
330
17
100
AcDbEntity
  8
0
100
AcDbLine
 10
1801.4258850968367
 20
1373.2228942488819
 30
0.0
 11
1801.4258850968367
 21
1373.2228942488819
 31
0.0
  0
LINE
  5
D5
330
17
100
AcDbEntity
  8
0
100
AcDbLine
 10
1359.0969865797374
 20
2003.7487798919778
 30
0.0
 11
1181.8981464835015
 21
1994.4621821910014
 31
0.0
  0
LINE
  5
D6
330
17
100
AcDbEntity
  8
0
100
AcDbLine
 10
1181.8981464835015
 20
1994.4621821910014
 30
0.0
 11
1177.821508884677
 21
1969.8915599132556
 31
0.0
  0
LINE
  5
D7
330
17
100
AcDbEntity
  8
0
100
AcDbLine
 10
1177.821508884677
 20
1969.8915599132556
 30
0.0
 11
1164.57623940522
 21
2017.9113542623313
 31
0.0
  0
LINE
  5
D8
330
17
100
AcDbEntity
  8
0
100
AcDbLine
 10
1164.57623940522
 20
2017.9113542623313
 30
0.0
 11
1160.4996018063955
 21
1993.3407319845855
 31
0.0
  0
LINE
  5
D9
330
17
100
AcDbEntity
  8
0
100
AcDbLine
 10
1160.4996018063955
 20
1993.3407319845855
 30
0.0
 11
971.452618311183
 21
1983.4331993994456
 31
0.0
  0
LINE
  5
DA
330
17
100
AcDbEntity
  8
0
100
AcDbLine
 10
1357.997309076149
 20
2024.731876650369
 30
0.0
 11
1180.798468979913
 21
2015.4452789493944
 31
0.0
  0
LINE
  5
DB
330
17
100
AcDbEntity
  8
0
100
AcDbLine
 10
1180.798468979913
 20
2015.4452789493944
 30
0.0
 11
1176.7218313810884
 21
1990.8746566716486
 31
0.0
  0
LINE
  5
DC
330
17
100
AcDbEntity
  8
0
100
AcDbLine
 10
1176.7218313810884
 20
1990.8746566716486
 30
0.0
 11
1163.4765619016314
 21
2038.8944510207252
 31
0.0
  0
LINE
  5
DD
330
17
100
AcDbEntity
  8
0
100
AcDbLine
 10
1163.4765619016314
 20
2038.8944510207252
 30
0.0
 11
1159.399924302807
 21
2014.3238287429785
 31
0.0
  0
LINE
  5
DE
330
17
100
AcDbEntity
  8
0
100
AcDbLine
 10
1159.399924302807
 20
2014.3238287429785
 30
0.0
 11
970.3529408075945
 21
2004.4162961578368
 31
0.0
  0
LINE
  5
DF
330
17
100
AcDbEntity
  8
0
100
AcDbLine
 10
376.52092484710346
 20
623.2118176658547
 30
0.0
 11
365.3943829686824
 21
835.5188841097392
 31
0.0
  0
LINE
  5
E0
330
17
100
AcDbEntity
  8
0
100
AcDbLine
 10
1580.5183815556297
 20
2045.2596571914028
 30
0.0
 11
1598.210637092617
 21
2046.1868690146043
 31
0.0
  0
LINE
  5
E1
330
17
100
AcDbEntity
  8
0
100
AcDbLine
 10
1598.210637092617
 20
2046.1868690146043
 30
0.0
 11
1599.1378489158187
 21
2028.4946134776128
 31
0.0
  0
LINE
  5
E2
330
17
100
AcDbEntity
  8
0
100
AcDbLine
 10
1599.1378489158187
 20
2028.4946134776128
 30
0.0
 11
1581.4455933788315
 21
2027.5674016544112
 31
0.0
  0
LINE
  5
E3
330
17
100
AcDbEntity
  8
0
100
AcDbLine
 10
1581.4455933788315
 20
2027.5674016544112
 30
0.0
 11
1580.5183815556297
 21
2045.2596571914028
 31
0.0
  0
LINE
  5
E4
330
17
100
AcDbEntity
  8
0
100
AcDbLine
 10
1580.5183815556297
 20
2045.2596571914028
 30
0.0
 11
1580.5183815556297
 21
2045.2596571914028
 31
0.0
  0
LINE
  5
E5
330
17
100
AcDbEntity
  8
0
100
AcDbLine
 10
1919.6199460146129
 20
2063.0312171361034
 30
0.0
 11
1937.312201551601
 21
2063.958428959305
 31
0.0
  0
LINE
  5
E6
330
17
100
AcDbEntity
  8
0
100
AcDbLine
 10
1937.312201551601
 20
2063.958428959305
 30
0.0
 11
1938.2394133748028
 21
2046.2661734223132
 31
0.0
  0
LINE
  5
E7
330
17
100
AcDbEntity
  8
0
100
AcDbLine
 10
1938.2394133748028
 20
2046.2661734223132
 30
0.0
 11
1920.5471578378147
 21
2045.3389615991116
 31
0.0
  0
LINE
  5
E8
330
17
100
AcDbEntity
  8
0
100
AcDbLine
 10
1920.5471578378147
 20
2045.3389615991116
 30
0.0
 11
1919.6199460146129
 21
2063.0312171361034
 31
0.0
  0
LINE
  5
E9
330
17
100
AcDbEntity
  8
0
100
AcDbLine
 10
1919.6199460146129
 20
2063.0312171361034
 30
0.0
 11
1919.6199460146129
 21
2063.0312171361034
 31
0.0
  0
LINE
  5
EA
330
17
100
AcDbEntity
  8
0
100
AcDbLine
 10
1920.0559672642921
 20
1930.5890647913993
 30
0.0
 11
1919.3141978057308
 21
1944.7428692209915
 31
0.0
  0
LINE
  5
EB
330
17
100
AcDbEntity
  8
0
100
AcDbLine
 10
1919.3141978057308
 20
1944.7428692209915
 30
0.0
 11
2005.0233468515937
 21
1949.2346953867245
 31
0.0
  0
LINE
  5
EC
330
17
100
AcDbEntity
  8
0
100
AcDbLine
 10
2005.765116310155
 20
1935.0808909571324
 30
0.0
 11
1920.0559672642921
 21
1930.5890647913993
 31
0.0
  0
LINE
  5
ED
330
17
100
AcDbEntity
  8
0
100
AcDbLine
 10
1920.0559672642921
 20
1930.5890647913993
 30
0.0
 11
1920.0559672642921
 21
1930.5890647913993
 31
0.0
  0
LINE
  5
EE
330
17
100
AcDbEntity
  8
0
100
AcDbLine
 10
1563.1101196609854
 20
1926.0750045138625
 30
0.0
 11
1555.6924250753711
 21
2067.613048809788
 31
0.0
  0
LINE
  5
EF
330
17
100
AcDbEntity
  8
0
100
AcDbLine
 10
1555.6924250753711
 20
2067.613048809788
 30
0.0
 11
1997.6056522659794
 21
2090.77273968265
 31
0.0
  0
LINE
  5
F0
330
17
100
AcDbEntity
  8
0
100
AcDbLine
 10
525.2546113870504
 20
1441.1720415456657
 30
0.0
 11
511.1008069574608
 21
1440.4302720871046
 31
0.0
  0
LINE
  5
F1
330
17
100
AcDbEntity
  8
0
100
AcDbLine
 10
511.1008069574608
 20
1440.4302720871046
 30
0.0
 11
516.6640778966713
 21
1334.276738865164
 31
0.0
  0
LINE
  5
F2
330
17
100
AcDbEntity
  8
0
100
AcDbLine
 10
516.6640778966713
 20
1334.276738865164
 30
0.0
 11
530.8178823262609
 21
1335.0185083237252
 31
0.0
  0
LINE
  5
F3
330
17
100
AcDbEntity
  8
0
100
AcDbLine
 10
530.8178823262609
 20
1335.0185083237252
 30
0.0
 11
525.2546113870504
 21
1441.1720415456657
 31
0.0
  0
LINE
  5
F4
330
17
100
AcDbEntity
  8
0
100
AcDbLine
 10
525.2546113870504
 20
1441.1720415456657
 30
0.0
 11
525.2546113870504
 21
1441.1720415456657
 31
0.0
  0
LINE
  5
F5
330
17
100
AcDbEntity
  8
0
100
AcDbLine
 10
577.6111723371764
 20
442.1493455569388
 30
0.0
 11
563.4573679075868
 21
441.4075760983775
 31
0.0
  0
LINE
  5
F6
330
17
100
AcDbEntity
  8
0
100
AcDbLine
 10
563.4573679075868
 20
441.4075760983775
 30
0.0
 11
569.0206388467974
 21
335.25404287643494
 31
0.0
  0
LINE
  5
F7
330
17
100
AcDbEntity
  8
0
100
AcDbLine
 10
569.0206388467974
 20
335.25404287643494
 30
0.0
 11
583.174443276387
 21
335.99581233499623
 31
0.0
  0
LINE
  5
F8
330
17
100
AcDbEntity
  8
0
100
AcDbLine
 10
583.174443276387
 20
335.99581233499623
 30
0.0
 11
577.6111723371764
 21
442.1493455569388
 31
0.0
  0
LINE
  5
F9
330
17
100
AcDbEntity
  8
0
100
AcDbLine
 10
577.6111723371764
 20
442.1493455569388
 30
0.0
 11
577.6111723371764
 21
442.1493455569388
 31
0.0
  0
LINE
  5
FA
330
17
100
AcDbEntity
  8
0
100
AcDbLine
 10
543.6134054864451
 20
1090.8653819132576
 30
0.0
 11
529.4596010568555
 21
1090.1236124546963
 31
0.0
  0
LINE
  5
FB
330
17
100
AcDbEntity
  8
0
100
AcDbLine
 10
529.4596010568555
 20
1090.1236124546963
 30
0.0
 11
535.0228719960661
 21
983.9700792327524
 31
0.0
  0
LINE
  5
FC
330
17
100
AcDbEntity
  8
0
100
AcDbLine
 10
535.0228719960661
 20
983.9700792327524
 30
0.0
 11
549.1766764256557
 21
984.7118486913137
 31
0.0
  0
LINE
  5
FD
330
17
100
AcDbEntity
  8
0
100
AcDbLine
 10
549.1766764256557
 20
984.7118486913137
 30
0.0
 11
543.6134054864451
 21
1090.8653819132576
 31
0.0
  0
LINE
  5
FE
330
17
100
AcDbEntity
  8
0
100
AcDbLine
 10
543.6134054864451
 20
1090.8653819132576
 30
0.0
 11
543.6134054864451
 21
1090.8653819132576
 31
0.0
  0
LINE
  5
FF
330
17
100
AcDbEntity
  8
0
100
AcDbLine
 10
1336.8296757590692
 20
1888.196237601082
 30
0.0
 11
1351.6650649302974
 21
1605.120149009233
 31
0.0
  0
LINE
  5
100
330
17
100
AcDbEntity
  8
0
100
AcDbLine
 10
1351.6650649302974
 20
1605.120149009233
 30
0.0
 11
1558.0747128618527
 21
1615.9376202799203
 31
0.0
  0
LINE
  5
101
330
17
100
AcDbEntity
  8
0
100
AcDbLine
 10
1558.0747128618527
 20
1615.9376202799203
 30
0.0
 11
1543.2393236906246
 21
1899.0137088717693
 31
0.0
  0
LINE
  5
102
330
17
100
AcDbEntity
  8
0
100
AcDbLine
 10
1543.2393236906246
 20
1899.0137088717693
 30
0.0
 11
1336.8296757590692
 21
1888.196237601082
 31
0.0
  0
LINE
  5
103
330
17
100
AcDbEntity
  8
0
100
AcDbLine
 10
1336.8296757590692
 20
1888.196237601082
 30
0.0
 11
1336.8296757590692
 21
1888.196237601082
 31
0.0
  0
LINE
  5
104
330
17
100
AcDbEntity
  8
0
100
AcDbLine
 10
1621.8552261073612
 20
624.6099677214538
 30
0.0
 11
1643.0859327517474
 21
625.7226219092959
 31
0.0
  0
LINE
  5
105
330
17
100
AcDbEntity
  8
0
100
AcDbLine
 10
1643.0859327517474
 20
625.7226219092959
 30
0.0
 11
1644.1985869395892
 21
604.49191526491
 31
0.0
  0
LINE
  5
106
330
17
100
AcDbEntity
  8
0
100
AcDbLine
 10
1644.1985869395892
 20
604.49191526491
 30
0.0
 11
1622.967880295203
 21
603.3792610770679
 31
0.0
  0
LINE
  5
107
330
17
100
AcDbEntity
  8
0
100
AcDbLine
 10
1622.967880295203
 20
603.3792610770679
 30
0.0
 11
1621.8552261073612
 21
624.6099677214538
 31
0.0
  0
LINE
  5
108
330
17
100
AcDbEntity
  8
0
100
AcDbLine
 10
1621.8552261073612
 20
624.6099677214538
 30
0.0
 11
1621.8552261073612
 21
624.6099677214538
 31
0.0
  0
LINE
  5
109
330
17
100
AcDbEntity
  8
0
100
AcDbLine
 10
1091.087559997647
 20
596.7936130254011
 30
0.0
 11
1112.318266642033
 21
597.9062672132432
 31
0.0
  0
LINE
  5
10A
330
17
100
AcDbEntity
  8
0
100
AcDbLine
 10
1112.318266642033
 20
597.9062672132432
 30
0.0
 11
1113.4309208298748
 21
576.6755605688572
 31
0.0
  0
LINE
  5
10B
330
17
100
AcDbEntity
  8
0
100
AcDbLine
 10
1113.4309208298748
 20
576.6755605688572
 30
0.0
 11
1092.200214185489
 21
575.5629063810152
 31
0.0
  0
LINE
  5
10C
330
17
100
AcDbEntity
  8
0
100
AcDbLine
 10
1092.200214185489
 20
575.5629063810152
 30
0.0
 11
1091.087559997647
 21
596.7936130254011
 31
0.0
  0
LINE
  5
10D
330
17
100
AcDbEntity
  8
0
100
AcDbLine
 10
1091.087559997647
 20
596.7936130254011
 30
0.0
 11
1091.087559997647
 21
596.7936130254011
 31
0.0
  0
LINE
  5
10E
330
17
100
AcDbEntity
  8
0
100
AcDbLine
 10
570.9352472101237
 20
569.5335854232692
 30
0.0
 11
592.1659538545133
 21
570.6462396111114
 31
0.0
  0
LINE
  5
10F
330
17
100
AcDbEntity
  8
0
100
AcDbLine
 10
592.1659538545133
 20
570.6462396111114
 30
0.0
 11
593.2786080423554
 21
549.4155329667253
 31
0.0
  0
LINE
  5
110
330
17
100
AcDbEntity
  8
0
100
AcDbLine
 10
593.2786080423554
 20
549.4155329667253
 30
0.0
 11
572.0479013979658
 21
548.3028787788833
 31
0.0
  0
LINE
  5
111
330
17
100
AcDbEntity
  8
0
100
AcDbLine
 10
572.0479013979658
 20
548.3028787788833
 30
0.0
 11
570.9352472101237
 21
569.5335854232692
 31
0.0
  0
LINE
  5
112
330
17
100
AcDbEntity
  8
0
100
AcDbLine
 10
570.9352472101237
 20
569.5335854232692
 30
0.0
 11
570.9352472101237
 21
569.5335854232692
 31
0.0
  0
LINE
  5
113
330
17
100
AcDbEntity
  8
0
100
AcDbLine
 10
1587.8574592566297
 20
1273.326004077774
 30
0.0
 11
1609.0881659010158
 21
1274.4386582656161
 31
0.0
  0
LINE
  5
114
330
17
100
AcDbEntity
  8
0
100
AcDbLine
 10
1609.0881659010158
 20
1274.4386582656161
 30
0.0
 11
1610.200820088858
 21
1253.2079516212261
 31
0.0
  0
LINE
  5
115
330
17
100
AcDbEntity
  8
0
100
AcDbLine
 10
1610.200820088858
 20
1253.2079516212261
 30
0.0
 11
1588.970113444472
 21
1252.095297433384
 31
0.0
  0
LINE
  5
116
330
17
100
AcDbEntity
  8
0
100
AcDbLine
 10
1588.970113444472
 20
1252.095297433384
 30
0.0
 11
1587.8574592566297
 21
1273.326004077774
 31
0.0
  0
LINE
  5
117
330
17
100
AcDbEntity
  8
0
100
AcDbLine
 10
1587.8574592566297
 20
1273.326004077774
 30
0.0
 11
1587.8574592566297
 21
1273.326004077774
 31
0.0
  0
LINE
  5
118
330
17
100
AcDbEntity
  8
0
100
AcDbLine
 10
1554.4160194998196
 20
1911.4266871118962
 30
0.0
 11
1575.6467261442058
 21
1912.5393412997382
 31
0.0
  0
LINE
  5
119
330
17
100
AcDbEntity
  8
0
100
AcDbLine
 10
1575.6467261442058
 20
1912.5393412997382
 30
0.0
 11
1576.7593803320478
 21
1891.308634655351
 31
0.0
  0
LINE
  5
11A
330
17
100
AcDbEntity
  8
0
100
AcDbLine
 10
1576.7593803320478
 20
1891.308634655351
 30
0.0
 11
1555.5286736876617
 21
1890.195980467509
 31
0.0
  0
LINE
  5
11B
330
17
100
AcDbEntity
  8
0
100
AcDbLine
 10
1555.5286736876617
 20
1890.195980467509
 30
0.0
 11
1554.4160194998196
 21
1911.4266871118962
 31
0.0
  0
LINE
  5
11C
330
17
100
AcDbEntity
  8
0
100
AcDbLine
 10
1554.4160194998196
 20
1911.4266871118962
 30
0.0
 11
1554.4160194998196
 21
1911.4266871118962
 31
0.0
  0
LINE
  5
11D
330
17
100
AcDbEntity
  8
0
100
AcDbLine
 10
1057.0897931469156
 20
1245.5096493817214
 30
0.0
 11
1078.3204997913015
 21
1246.6223035695634
 31
0.0
  0
LINE
  5
11E
330
17
100
AcDbEntity
  8
0
100
AcDbLine
 10
1078.3204997913015
 20
1246.6223035695634
 30
0.0
 11
1079.4331539791438
 21
1225.3915969251734
 31
0.0
  0
LINE
  5
11F
330
17
100
AcDbEntity
  8
0
100
AcDbLine
 10
1079.4331539791438
 20
1225.3915969251734
 30
0.0
 11
1058.2024473347578
 21
1224.2789427373314
 31
0.0
  0
LINE
  5
120
330
17
100
AcDbEntity
  8
0
100
AcDbLine
 10
1058.2024473347578
 20
1224.2789427373314
 30
0.0
 11
1057.0897931469156
 21
1245.5096493817214
 31
0.0
  0
LINE
  5
121
330
17
100
AcDbEntity
  8
0
100
AcDbLine
 10
1057.0897931469156
 20
1245.5096493817214
 30
0.0
 11
1057.0897931469156
 21
1245.5096493817214
 31
0.0
  0
LINE
  5
122
330
17
100
AcDbEntity
  8
0
100
AcDbLine
 10
536.9374803593925
 20
1218.2496217795895
 30
0.0
 11
558.168187003782
 21
1219.3622759674315
 31
0.0
  0
LINE
  5
123
330
17
100
AcDbEntity
  8
0
100
AcDbLine
 10
558.168187003782
 20
1219.3622759674315
 30
0.0
 11
559.2808411916242
 21
1198.1315693230417
 31
0.0
  0
LINE
  5
124
330
17
100
AcDbEntity
  8
0
100
AcDbLine
 10
559.2808411916242
 20
1198.1315693230417
 30
0.0
 11
538.0501345472346
 21
1197.0189151351997
 31
0.0
  0
LINE
  5
125
330
17
100
AcDbEntity
  8
0
100
AcDbLine
 10
538.0501345472346
 20
1197.0189151351997
 30
0.0
 11
536.9374803593925
 21
1218.2496217795895
 31
0.0
  0
LINE
  5
126
330
17
100
AcDbEntity
  8
0
100
AcDbLine
 10
536.9374803593925
 20
1218.2496217795895
 30
0.0
 11
536.9374803593925
 21
1218.2496217795895
 31
0.0
  0
LINE
  5
127
330
17
100
AcDbEntity
  8
0
100
AcDbLine
 10
1023.6483533901055
 20
1883.6103324158435
 30
0.0
 11
1044.8790600344914
 21
1884.7229866036855
 31
0.0
  0
LINE
  5
128
330
17
100
AcDbEntity
  8
0
100
AcDbLine
 10
1044.8790600344914
 20
1884.7229866036855
 30
0.0
 11
1045.9917142223335
 21
1863.4922799592982
 31
0.0
  0
LINE
  5
129
330
17
100
AcDbEntity
  8
0
100
AcDbLine
 10
1045.9917142223335
 20
1863.4922799592982
 30
0.0
 11
1024.7610075779476
 21
1862.3796257714562
 31
0.0
  0
LINE
  5
12A
330
17
100
AcDbEntity
  8
0
100
AcDbLine
 10
1024.7610075779476
 20
1862.3796257714562
 30
0.0
 11
1023.6483533901055
 21
1883.6103324158435
 31
0.0
  0
LINE
  5
12B
330
17
100
AcDbEntity
  8
0
100
AcDbLine
 10
1023.6483533901055
 20
1883.6103324158435
 30
0.0
 11
1023.6483533901055
 21
1883.6103324158435
 31
0.0
  0
LINE
  5
12C
330
17
100
AcDbEntity
  8
0
100
AcDbLine
 10
503.4960406025823
 20
1856.3503048137113
 30
0.0
 11
524.7267472469719
 21
1857.4629590015536
 31
0.0
  0
LINE
  5
12D
330
17
100
AcDbEntity
  8
0
100
AcDbLine
 10
524.7267472469719
 20
1857.4629590015536
 30
0.0
 11
525.8394014348139
 21
1836.2322523571665
 31
0.0
  0
LINE
  5
12E
330
17
100
AcDbEntity
  8
0
100
AcDbLine
 10
525.8394014348139
 20
1836.2322523571665
 30
0.0
 11
504.60869479042435
 21
1835.1195981693243
 31
0.0
  0
LINE
  5
12F
330
17
100
AcDbEntity
  8
0
100
AcDbLine
 10
504.60869479042435
 20
1835.1195981693243
 30
0.0
 11
503.4960406025823
 21
1856.3503048137113
 31
0.0
  0
LINE
  5
130
330
17
100
AcDbEntity
  8
0
100
AcDbLine
 10
503.4960406025823
 20
1856.3503048137113
 30
0.0
 11
503.4960406025823
 21
1856.3503048137113
 31
0.0
  0
LINE
  5
131
330
17
100
AcDbEntity
  8
0
100
AcDbLine
 10
2005.1778821554606
 20
1946.285986130561
 30
0.0
 11
1927.725119026856
 21
1942.2268588156553
 31
0.0
  0
LINE
  5
132
330
17
100
AcDbEntity
  8
0
100
AcDbLine
 10
1927.725119026856
 20
1942.2268588156553
 30
0.0
 11
1927.8796543307228
 21
1939.27814955949
 31
0.0
  0
LINE
  5
133
330
17
100
AcDbEntity
  8
0
100
AcDbLine
 10
1927.8796543307228
 20
1939.27814955949
 30
0.0
 11
2005.3324174593274
 21
1943.3372768743957
 31
0.0
  0
LINE
  5
134
330
17
100
AcDbEntity
  8
0
100
AcDbLine
 10
1927.570583722989
 20
1945.1755680718188
 30
0.0
 11
1927.8796543307228
 21
1939.27814955949
 31
0.0
  0
LINE
  5
135
330
17
100
AcDbEntity
  8
0
100
AcDbLine
 10
1927.8796543307228
 20
1939.27814955949
 30
0.0
 11
1919.6232684134618
 21
1938.8454507086626
 31
0.0
  0
LINE
  5
136
330
17
100
AcDbEntity
  8
0
100
AcDbLine
 10
1919.314197805728
 20
1944.7428692209915
 30
0.0
 11
1919.314197805728
 21
1944.7428692209915
 31
0.0
  0
LINE
  5
137
330
17
100
AcDbEntity
  8
0
100
AcDbLine
 10
522.5614964090014
 20
1334.5858094729
 30
0.0
 11
522.1287975581739
 21
1342.8421953901614
 31
0.0
  0
LINE
  5
138
330
17
100
AcDbEntity
  8
0
100
AcDbLine
 10
522.1287975581739
 20
1342.8421953901614
 30
0.0
 11
516.2313790458437
 21
1342.5331247824274
 31
0.0
  0
LINE
  5
139
330
17
100
AcDbEntity
  8
0
100
AcDbLine
 10
516.2313790458437
 20
1342.5331247824274
 30
0.0
 11
516.2313790458437
 21
1342.5331247824274
 31
0.0
  0
LINE
  5
13A
330
17
100
AcDbEntity
  8
0
100
AcDbLine
 10
519.1800883020088
 20
1342.6876600862945
 30
0.0
 11
514.482215064453
 21
1432.3284214737153
 31
0.0
  0
LINE
  5
13B
330
17
100
AcDbEntity
  8
0
100
AcDbLine
 10
514.482215064453
 20
1432.3284214737153
 30
0.0
 11
517.4309243206181
 21
1432.4829567775823
 31
0.0
  0
LINE
  5
13C
330
17
100
AcDbEntity
  8
0
100
AcDbLine
 10
517.4309243206181
 20
1432.4829567775823
 30
0.0
 11
522.1287975581739
 21
1342.8421953901614
 31
0.0
  0
LINE
  5
13D
330
17
100
AcDbEntity
  8
0
100
AcDbLine
 10
522.1287975581739
 20
1342.8421953901614
 30
0.0
 11
519.1800883020088
 21
1342.6876600862945
 31
0.0
  0
LINE
  5
13E
330
17
100
AcDbEntity
  8
0
100
AcDbLine
 10
519.1800883020088
 20
1342.6876600862945
 30
0.0
 11
519.1800883020088
 21
1342.6876600862945
 31
0.0
  0
LINE
  5
13F
330
17
100
AcDbEntity
  8
0
100
AcDbLine
 10
488.6004667144313
 20
1869.7623397847424
 30
0.0
 11
511.533505808288
 21
1432.1738861698482
 31
0.0
  0
LINE
  5
140
330
17
100
AcDbEntity
  8
0
100
AcDbLine
 10
511.533505808288
 20
1432.1738861698482
 30
0.0
 11
517.4309243206181
 21
1432.4829567775823
 31
0.0
  0
LINE
  5
141
330
17
100
AcDbEntity
  8
0
100
AcDbLine
 10
517.4309243206181
 20
1432.4829567775823
 30
0.0
 11
516.9982254697908
 21
1440.739342694843
 31
0.0
  0
LINE
  5
142
330
17
100
AcDbEntity
  8
0
100
AcDbLine
 10
511.1008069574606
 20
1440.4302720871092
 30
0.0
 11
511.1008069574606
 21
1440.4302720871092
 31
0.0
  0
LINE
  5
143
330
17
100
AcDbEntity
  8
0
100
AcDbLine
 10
574.9180573591277
 20
335.563113484165
 30
0.0
 11
574.4853585083004
 21
343.81949940142647
 31
0.0
  0
LINE
  5
144
330
17
100
AcDbEntity
  8
0
100
AcDbLine
 10
574.4853585083004
 20
343.81949940142647
 30
0.0
 11
568.5879399959701
 21
343.51042879369254
 31
0.0
  0
LINE
  5
145
330
17
100
AcDbEntity
  8
0
100
AcDbLine
 10
568.5879399959701
 20
343.51042879369254
 30
0.0
 11
568.5879399959701
 21
343.51042879369254
 31
0.0
  0
LINE
  5
146
330
17
100
AcDbEntity
  8
0
100
AcDbLine
 10
571.5366492521352
 20
343.6649640975595
 30
0.0
 11
566.8387760145795
 21
433.30572548498003
 31
0.0
  0
LINE
  5
147
330
17
100
AcDbEntity
  8
0
100
AcDbLine
 10
566.8387760145795
 20
433.30572548498003
 30
0.0
 11
569.7874852707446
 21
433.460260788847
 31
0.0
  0
LINE
  5
148
330
17
100
AcDbEntity
  8
0
100
AcDbLine
 10
569.7874852707446
 20
433.460260788847
 30
0.0
 11
574.4853585083004
 21
343.81949940142647
 31
0.0
  0
LINE
  5
149
330
17
100
AcDbEntity
  8
0
100
AcDbLine
 10
574.4853585083004
 20
343.81949940142647
 30
0.0
 11
571.5366492521352
 21
343.6649640975595
 31
0.0
  0
LINE
  5
14A
330
17
100
AcDbEntity
  8
0
100
AcDbLine
 10
571.5366492521352
 20
343.6649640975595
 30
0.0
 11
571.5366492521352
 21
343.6649640975595
 31
0.0
  0
LINE
  5
14B
330
17
100
AcDbEntity
  8
0
100
AcDbLine
 10
551.8981271783383
 20
661.971028459523
 30
0.0
 11
563.8900667584144
 21
433.15119018111307
 31
0.0
  0
LINE
  5
14C
330
17
100
AcDbEntity
  8
0
100
AcDbLine
 10
563.8900667584144
 20
433.15119018111307
 30
0.0
 11
569.7874852707446
 21
433.460260788847
 31
0.0
  0
LINE
  5
14D
330
17
100
AcDbEntity
  8
0
100
AcDbLine
 10
569.7874852707446
 20
433.460260788847
 30
0.0
 11
569.3547864199171
 21
441.7166467061094
 31
0.0
  0
LINE
  5
14E
330
17
100
AcDbEntity
  8
0
100
AcDbLine
 10
563.4573679075869
 20
441.40757609837544
 30
0.0
 11
563.4573679075869
 21
441.40757609837544
 31
0.0
  0
LINE
  5
14F
330
17
100
AcDbEntity
  8
0
100
AcDbLine
 10
540.9202905083965
 20
984.2791498404827
 30
0.0
 11
540.487591657569
 21
992.5355357577448
 31
0.0
  0
LINE
  5
150
330
17
100
AcDbEntity
  8
0
100
AcDbLine
 10
540.487591657569
 20
992.5355357577448
 30
0.0
 11
534.5901731452389
 21
992.2264651500109
 31
0.0
  0
LINE
  5
151
330
17
100
AcDbEntity
  8
0
100
AcDbLine
 10
534.5901731452389
 20
992.2264651500109
 30
0.0
 11
534.5901731452389
 21
992.2264651500109
 31
0.0
  0
LINE
  5
152
330
17
100
AcDbEntity
  8
0
100
AcDbLine
 10
537.538882401404
 20
992.3810004538778
 30
0.0
 11
532.8410091638482
 21
1082.021761841299
 31
0.0
  0
LINE
  5
153
330
17
100
AcDbEntity
  8
0
100
AcDbLine
 10
532.8410091638482
 20
1082.021761841299
 30
0.0
 11
535.7897184200133
 21
1082.1762971451658
 31
0.0
  0
LINE
  5
154
330
17
100
AcDbEntity
  8
0
100
AcDbLine
 10
535.7897184200133
 20
1082.1762971451658
 30
0.0
 11
540.487591657569
 21
992.5355357577448
 31
0.0
  0
LINE
  5
155
330
17
100
AcDbEntity
  8
0
100
AcDbLine
 10
540.487591657569
 20
992.5355357577448
 30
0.0
 11
537.538882401404
 21
992.3810004538778
 31
0.0
  0
LINE
  5
156
330
17
100
AcDbEntity
  8
0
100
AcDbLine
 10
537.538882401404
 20
992.3810004538778
 30
0.0
 11
537.538882401404
 21
992.3810004538778
 31
0.0
  0
LINE
  5
157
330
17
100
AcDbEntity
  8
0
100
AcDbLine
 10
516.2313790458437
 20
1342.5331247824274
 30
0.0
 11
529.8922999076831
 21
1081.8672265374319
 31
0.0
  0
LINE
  5
158
330
17
100
AcDbEntity
  8
0
100
AcDbLine
 10
529.8922999076831
 20
1081.8672265374319
 30
0.0
 11
535.7897184200133
 21
1082.1762971451658
 31
0.0
  0
LINE
  5
159
330
17
100
AcDbEntity
  8
0
100
AcDbLine
 10
535.7897184200133
 20
1082.1762971451658
 30
0.0
 11
535.3570195691859
 21
1090.432683062427
 31
0.0
  0
LINE
  5
15A
330
17
100
AcDbEntity
  8
0
100
AcDbLine
 10
529.4596010568557
 20
1090.123612454693
 30
0.0
 11
529.4596010568557
 21
1090.123612454693
 31
0.0
  0
LINE
  5
15B
330
17
100
AcDbEntity
  8
0
100
AcDbLine
 10
1875.5404966660642
 20
1786.329318637051
 30
0.0
 11
1875.4932328264492
 21
1786.854462905434
 31
0.0
  0
LINE
  5
15C
330
17
100
AcDbEntity
  8
0
100
AcDbLine
 10
1875.4932328264492
 20
1786.854462905434
 30
0.0
 11
1875.4068570657926
 21
1787.3746067327766
 31
0.0
  0
LINE
  5
15D
330
17
100
AcDbEntity
  8
0
100
AcDbLine
 10
1875.4068570657926
 20
1787.3746067327766
 30
0.0
 11
1875.2818524323857
 21
1787.8868412638037
 31
0.0
  0
LINE
  5
15E
330
17
100
AcDbEntity
  8
0
100
AcDbLine
 10
1875.2818524323857
 20
1787.8868412638037
 30
0.0
 11
1875.1189180028455
 21
1788.388301875238
 31
0.0
  0
LINE
  5
15F
330
17
100
AcDbEntity
  8
0
100
AcDbLine
 10
1875.1189180028455
 20
1788.388301875238
 30
0.0
 11
1874.9189649725947
 21
1788.8761841959301
 31
0.0
  0
LINE
  5
160
330
17
100
AcDbEntity
  8
0
100
AcDbLine
 10
1874.9189649725947
 20
1788.8761841959301
 30
0.0
 11
1874.6831115600849
 21
1789.3477597900387
 31
0.0
  0
LINE
  5
161
330
17
100
AcDbEntity
  8
0
100
AcDbLine
 10
1874.6831115600849
 20
1789.3477597900387
 30
0.0
 11
1874.4126767532723
 21
1789.8003914155515
 31
0.0
  0
LINE
  5
162
330
17
100
AcDbEntity
  8
0
100
AcDbLine
 10
1874.4126767532723
 20
1789.8003914155515
 30
0.0
 11
1874.109172933293
 21
1790.2315477728152
 31
0.0
  0
LINE
  5
163
330
17
100
AcDbEntity
  8
0
100
AcDbLine
 10
1874.109172933293
 20
1790.2315477728152
 30
0.0
 11
1873.774297416622
 21
1790.638817660587
 31
0.0
  0
LINE
  5
164
330
17
100
AcDbEntity
  8
0
100
AcDbLine
 10
1873.774297416622
 20
1790.638817660587
 30
0.0
 11
1873.409922962988
 21
1791.0199234604488
 31
0.0
  0
LINE
  5
165
330
17
100
AcDbEntity
  8
0
100
AcDbLine
 10
1873.409922962988
 20
1791.0199234604488
 30
0.0
 11
1873.018087302137
 21
1791.3727338741792
 31
0.0
  0
LINE
  5
166
330
17
100
AcDbEntity
  8
0
100
AcDbLine
 10
1873.018087302137
 20
1791.3727338741792
 30
0.0
 11
1872.6009817380295
 21
1791.6952758428297
 31
0.0
  0
LINE
  5
167
330
17
100
AcDbEntity
  8
0
100
AcDbLine
 10
1872.6009817380295
 20
1791.6952758428297
 30
0.0
 11
1872.1609388941731
 21
1791.9857455808774
 31
0.0
  0
LINE
  5
168
330
17
100
AcDbEntity
  8
0
100
AcDbLine
 10
1872.1609388941731
 20
1791.9857455808774
 30
0.0
 11
1871.7004196686487
 21
1792.2425186637215
 31
0.0
  0
LINE
  5
169
330
17
100
AcDbEntity
  8
0
100
AcDbLine
 10
1871.7004196686487
 20
1792.2425186637215
 30
0.0
 11
1871.2219994717698
 21
1792.464159112125
 31
0.0
  0
LINE
  5
16A
330
17
100
AcDbEntity
  8
0
100
AcDbLine
 10
1871.2219994717698
 20
1792.464159112125
 30
0.0
 11
1870.7283538233428
 21
1792.6494274227962
 31
0.0
  0
LINE
  5
16B
330
17
100
AcDbEntity
  8
0
100
AcDbLine
 10
1870.7283538233428
 20
1792.6494274227962
 30
0.0
 11
1870.2222433900736
 21
1792.7972875001897
 31
0.0
  0
LINE
  5
16C
330
17
100
AcDbEntity
  8
0
100
AcDbLine
 10
1870.2222433900736
 20
1792.7972875001897
 30
0.0
 11
1869.7064985468025
 21
1792.9069124507746
 31
0.0
  0
LINE
  5
16D
330
17
100
AcDbEntity
  8
0
100
AcDbLine
 10
1869.7064985468025
 20
1792.9069124507746
 30
0.0
 11
1869.1840035479008
 21
1792.9776892073592
 31
0.0
  0
LINE
  5
16E
330
17
100
AcDbEntity
  8
0
100
AcDbLine
 10
1869.1840035479008
 20
1792.9776892073592
 30
0.0
 11
1868.6576803973446
 21
1793.0092219576095
 31
0.0
  0
LINE
  5
16F
330
17
100
AcDbEntity
  8
0
100
AcDbLine
 10
1868.6576803973446
 20
1793.0092219576095
 30
0.0
 11
1868.130472507687
 21
1793.0013343575993
 31
0.0
  0
LINE
  5
170
330
17
100
AcDbEntity
  8
0
100
AcDbLine
 10
1868.130472507687
 20
1793.0013343575993
 30
0.0
 11
1867.6053282393048
 21
1792.954070517983
 31
0.0
  0
LINE
  5
171
330
17
100
AcDbEntity
  8
0
100
AcDbLine
 10
1867.6053282393048
 20
1792.954070517983
 30
0.0
 11
1867.0851844119618
 21
1792.8676947573276
 31
0.0
  0
LINE
  5
172
330
17
100
AcDbEntity
  8
0
100
AcDbLine
 10
1867.0851844119618
 20
1792.8676947573276
 30
0.0
 11
1866.5729498809344
 21
1792.742690123921
 31
0.0
  0
LINE
  5
173
330
17
100
AcDbEntity
  8
0
100
AcDbLine
 10
1866.5729498809344
 20
1792.742690123921
 30
0.0
 11
1866.0714892694991
 21
1792.5797556943803
 31
0.0
  0
LINE
  5
174
330
17
100
AcDbEntity
  8
0
100
AcDbLine
 10
1866.0714892694991
 20
1792.5797556943803
 30
0.0
 11
1865.5836069488068
 21
1792.3798026641284
 31
0.0
  0
LINE
  5
175
330
17
100
AcDbEntity
  8
0
100
AcDbLine
 10
1865.5836069488068
 20
1792.3798026641284
 30
0.0
 11
1865.1120313546996
 21
1792.143949251619
 31
0.0
  0
LINE
  5
176
330
17
100
AcDbEntity
  8
0
100
AcDbLine
 10
1865.1120313546996
 20
1792.143949251619
 30
0.0
 11
1864.6593997291866
 21
1791.8735144448065
 31
0.0
  0
LINE
  5
177
330
17
100
AcDbEntity
  8
0
100
AcDbLine
 10
1864.6593997291866
 20
1791.8735144448065
 30
0.0
 11
1864.228243371923
 21
1791.5700106248278
 31
0.0
  0
LINE
  5
178
330
17
100
AcDbEntity
  8
0
100
AcDbLine
 10
1864.228243371923
 20
1791.5700106248278
 30
0.0
 11
1863.8209734841523
 21
1791.2351351081572
 31
0.0
  0
LINE
  5
179
330
17
100
AcDbEntity
  8
0
100
AcDbLine
 10
1863.8209734841523
 20
1791.2351351081572
 30
0.0
 11
1863.4398676842884
 21
1790.8707606545222
 31
0.0
  0
LINE
  5
17A
330
17
100
AcDbEntity
  8
0
100
AcDbLine
 10
1863.4398676842884
 20
1790.8707606545222
 30
0.0
 11
1863.0870572705594
 21
1790.4789249936714
 31
0.0
  0
LINE
  5
17B
330
17
100
AcDbEntity
  8
0
100
AcDbLine
 10
1863.0870572705594
 20
1790.4789249936714
 30
0.0
 11
1862.7645153019087
 21
1790.0618194295648
 31
0.0
  0
LINE
  5
17C
330
17
100
AcDbEntity
  8
0
100
AcDbLine
 10
1862.7645153019087
 20
1790.0618194295648
 30
0.0
 11
1862.4740455638619
 21
1789.6217765857082
 31
0.0
  0
LINE
  5
17D
330
17
100
AcDbEntity
  8
0
100
AcDbLine
 10
1862.4740455638619
 20
1789.6217765857082
 30
0.0
 11
1862.217272481017
 21
1789.1612573601838
 31
0.0
  0
LINE
  5
17E
330
17
100
AcDbEntity
  8
0
100
AcDbLine
 10
1862.217272481017
 20
1789.1612573601838
 30
0.0
 11
1861.9956320326123
 21
1788.682837163305
 31
0.0
  0
LINE
  5
17F
330
17
100
AcDbEntity
  8
0
100
AcDbLine
 10
1861.9956320326123
 20
1788.682837163305
 30
0.0
 11
1861.810363721942
 21
1788.1891915148765
 31
0.0
  0
LINE
  5
180
330
17
100
AcDbEntity
  8
0
100
AcDbLine
 10
1861.810363721942
 20
1788.1891915148765
 30
0.0
 11
1861.6625036445487
 21
1787.6830810816073
 31
0.0
  0
LINE
  5
181
330
17
100
AcDbEntity
  8
0
100
AcDbLine
 10
1861.6625036445487
 20
1787.6830810816073
 30
0.0
 11
1861.552878693965
 21
1787.1673362383378
 31
0.0
  0
LINE
  5
182
330
17
100
AcDbEntity
  8
0
100
AcDbLine
 10
1861.552878693965
 20
1787.1673362383378
 30
0.0
 11
1861.4821019373796
 21
1786.6448412394361
 31
0.0
  0
LINE
  5
183
330
17
100
AcDbEntity
  8
0
100
AcDbLine
 10
1861.4821019373796
 20
1786.6448412394361
 30
0.0
 11
1861.4505691871275
 21
1786.1185180888783
 31
0.0
  0
LINE
  5
184
330
17
100
AcDbEntity
  8
0
100
AcDbLine
 10
1861.4505691871275
 20
1786.1185180888783
 30
0.0
 11
1861.4584567871389
 21
1785.5913101992214
 31
0.0
  0
LINE
  5
185
330
17
100
AcDbEntity
  8
0
100
AcDbLine
 10
1861.4584567871389
 20
1785.5913101992214
 30
0.0
 11
1861.505720626754
 21
1785.0661659308385
 31
0.0
  0
LINE
  5
186
330
17
100
AcDbEntity
  8
0
100
AcDbLine
 10
1861.505720626754
 20
1785.0661659308385
 30
0.0
 11
1861.592096387411
 21
1784.5460221034969
 31
0.0
  0
LINE
  5
187
330
17
100
AcDbEntity
  8
0
100
AcDbLine
 10
1861.592096387411
 20
1784.5460221034969
 30
0.0
 11
1861.7171010208187
 21
1784.0337875724697
 31
0.0
  0
LINE
  5
188
330
17
100
AcDbEntity
  8
0
100
AcDbLine
 10
1861.7171010208187
 20
1784.0337875724697
 30
0.0
 11
1861.8800354503578
 21
1783.532326961034
 31
0.0
  0
LINE
  5
189
330
17
100
AcDbEntity
  8
0
100
AcDbLine
 10
1861.8800354503578
 20
1783.532326961034
 30
0.0
 11
1862.0799884806097
 21
1783.0444446403433
 31
0.0
  0
LINE
  5
18A
330
17
100
AcDbEntity
  8
0
100
AcDbLine
 10
1862.0799884806097
 20
1783.0444446403433
 30
0.0
 11
1862.3158418931182
 21
1782.5728690462333
 31
0.0
  0
LINE
  5
18B
330
17
100
AcDbEntity
  8
0
100
AcDbLine
 10
1862.3158418931182
 20
1782.5728690462333
 30
0.0
 11
1862.586276699932
 21
1782.1202374207205
 31
0.0
  0
LINE
  5
18C
330
17
100
AcDbEntity
  8
0
100
AcDbLine
 10
1862.586276699932
 20
1782.1202374207205
 30
0.0
 11
1862.8897805199115
 21
1781.6890810634568
 31
0.0
  0
LINE
  5
18D
330
17
100
AcDbEntity
  8
0
100
AcDbLine
 10
1862.8897805199115
 20
1781.6890810634568
 30
0.0
 11
1863.2246560365813
 21
1781.2818111756865
 31
0.0
  0
LINE
  5
18E
330
17
100
AcDbEntity
  8
0
100
AcDbLine
 10
1863.2246560365813
 20
1781.2818111756865
 30
0.0
 11
1863.589030490216
 21
1780.9007053758241
 31
0.0
  0
LINE
  5
18F
330
17
100
AcDbEntity
  8
0
100
AcDbLine
 10
1863.589030490216
 20
1780.9007053758241
 30
0.0
 11
1863.9808661510656
 21
1780.5478949620938
 31
0.0
  0
LINE
  5
190
330
17
100
AcDbEntity
  8
0
100
AcDbLine
 10
1863.9808661510656
 20
1780.5478949620938
 30
0.0
 11
1864.3979717151747
 21
1780.2253529934428
 31
0.0
  0
LINE
  5
191
330
17
100
AcDbEntity
  8
0
100
AcDbLine
 10
1864.3979717151747
 20
1780.2253529934428
 30
0.0
 11
1864.8380145590302
 21
1779.934883255397
 31
0.0
  0
LINE
  5
192
330
17
100
AcDbEntity
  8
0
100
AcDbLine
 10
1864.8380145590302
 20
1779.934883255397
 30
0.0
 11
1865.2985337845544
 21
1779.6781101725524
 31
0.0
  0
LINE
  5
193
330
17
100
AcDbEntity
  8
0
100
AcDbLine
 10
1865.2985337845544
 20
1779.6781101725524
 30
0.0
 11
1865.7769539814335
 21
1779.4564697241474
 31
0.0
  0
LINE
  5
194
330
17
100
AcDbEntity
  8
0
100
AcDbLine
 10
1865.7769539814335
 20
1779.4564697241474
 30
0.0
 11
1866.2705996298605
 21
1779.2712014134772
 31
0.0
  0
LINE
  5
195
330
17
100
AcDbEntity
  8
0
100
AcDbLine
 10
1866.2705996298605
 20
1779.2712014134772
 30
0.0
 11
1866.77671006313
 21
1779.1233413360837
 31
0.0
  0
LINE
  5
196
330
17
100
AcDbEntity
  8
0
100
AcDbLine
 10
1866.77671006313
 20
1779.1233413360837
 30
0.0
 11
1867.2924549064003
 21
1779.0137163854984
 31
0.0
  0
LINE
  5
197
330
17
100
AcDbEntity
  8
0
100
AcDbLine
 10
1867.2924549064003
 20
1779.0137163854984
 30
0.0
 11
1867.8149499053022
 21
1778.9429396289147
 31
0.0
  0
LINE
  5
198
330
17
100
AcDbEntity
  8
0
100
AcDbLine
 10
1867.8149499053022
 20
1778.9429396289147
 30
0.0
 11
1868.34127305586
 21
1778.911406878664
 31
0.0
  0
LINE
  5
199
330
17
100
AcDbEntity
  8
0
100
AcDbLine
 10
1868.34127305586
 20
1778.911406878664
 30
0.0
 11
1868.8684809455167
 21
1778.9192944786741
 31
0.0
  0
LINE
  5
19A
330
17
100
AcDbEntity
  8
0
100
AcDbLine
 10
1868.8684809455167
 20
1778.9192944786741
 30
0.0
 11
1869.3936252139
 21
1778.9665583182905
 31
0.0
  0
LINE
  5
19B
330
17
100
AcDbEntity
  8
0
100
AcDbLine
 10
1869.3936252139
 20
1778.9665583182905
 30
0.0
 11
1869.9137690412413
 21
1779.0529340789458
 31
0.0
  0
LINE
  5
19C
330
17
100
AcDbEntity
  8
0
100
AcDbLine
 10
1869.9137690412413
 20
1779.0529340789458
 30
0.0
 11
1870.4260035722684
 21
1779.177938712352
 31
0.0
  0
LINE
  5
19D
330
17
100
AcDbEntity
  8
0
100
AcDbLine
 10
1870.4260035722684
 20
1779.177938712352
 30
0.0
 11
1870.9274641837044
 21
1779.340873141893
 31
0.0
  0
LINE
  5
19E
330
17
100
AcDbEntity
  8
0
100
AcDbLine
 10
1870.9274641837044
 20
1779.340873141893
 30
0.0
 11
1871.4153465043964
 21
1779.540826172145
 31
0.0
  0
LINE
  5
19F
330
17
100
AcDbEntity
  8
0
100
AcDbLine
 10
1871.4153465043964
 20
1779.540826172145
 30
0.0
 11
1871.8869220985036
 21
1779.7766795846533
 31
0.0
  0
LINE
  5
1A0
330
17
100
AcDbEntity
  8
0
100
AcDbLine
 10
1871.8869220985036
 20
1779.7766795846533
 30
0.0
 11
1872.3395537240165
 21
1780.047114391467
 31
0.0
  0
LINE
  5
1A1
330
17
100
AcDbEntity
  8
0
100
AcDbLine
 10
1872.3395537240165
 20
1780.047114391467
 30
0.0
 11
1872.7707100812802
 21
1780.3506182114465
 31
0.0
  0
LINE
  5
1A2
330
17
100
AcDbEntity
  8
0
100
AcDbLine
 10
1872.7707100812802
 20
1780.3506182114465
 30
0.0
 11
1873.1779799690519
 21
1780.6854937281153
 31
0.0
  0
LINE
  5
1A3
330
17
100
AcDbEntity
  8
0
100
AcDbLine
 10
1873.1779799690519
 20
1780.6854937281153
 30
0.0
 11
1873.5590857689142
 21
1781.0498681817503
 31
0.0
  0
LINE
  5
1A4
330
17
100
AcDbEntity
  8
0
100
AcDbLine
 10
1873.5590857689142
 20
1781.0498681817503
 30
0.0
 11
1873.9118961826446
 21
1781.4417038426013
 31
0.0
  0
LINE
  5
1A5
330
17
100
AcDbEntity
  8
0
100
AcDbLine
 10
1873.9118961826446
 20
1781.4417038426013
 30
0.0
 11
1874.2344381512946
 21
1781.858809406709
 31
0.0
  0
LINE
  5
1A6
330
17
100
AcDbEntity
  8
0
100
AcDbLine
 10
1874.2344381512946
 20
1781.858809406709
 30
0.0
 11
1874.5249078893426
 21
1782.298852250564
 31
0.0
  0
LINE
  5
1A7
330
17
100
AcDbEntity
  8
0
100
AcDbLine
 10
1874.5249078893426
 20
1782.298852250564
 30
0.0
 11
1874.7816809721871
 21
1782.7593714760883
 31
0.0
  0
LINE
  5
1A8
330
17
100
AcDbEntity
  8
0
100
AcDbLine
 10
1874.7816809721871
 20
1782.7593714760883
 30
0.0
 11
1875.0033214205907
 21
1783.2377916729674
 31
0.0
  0
LINE
  5
1A9
330
17
100
AcDbEntity
  8
0
100
AcDbLine
 10
1875.0033214205907
 20
1783.2377916729674
 30
0.0
 11
1875.1885897312625
 21
1783.731437321397
 31
0.0
  0
LINE
  5
1AA
330
17
100
AcDbEntity
  8
0
100
AcDbLine
 10
1875.1885897312625
 20
1783.731437321397
 30
0.0
 11
1875.3364498086546
 21
1784.2375477546648
 31
0.0
  0
LINE
  5
1AB
330
17
100
AcDbEntity
  8
0
100
AcDbLine
 10
1875.3364498086546
 20
1784.2375477546648
 30
0.0
 11
1875.4460747592393
 21
1784.7532925979356
 31
0.0
  0
LINE
  5
1AC
330
17
100
AcDbEntity
  8
0
100
AcDbLine
 10
1875.4460747592393
 20
1784.7532925979356
 30
0.0
 11
1875.5168515158239
 21
1785.2757875968373
 31
0.0
  0
LINE
  5
1AD
330
17
100
AcDbEntity
  8
0
100
AcDbLine
 10
1875.5168515158239
 20
1785.2757875968373
 30
0.0
 11
1875.5483842660758
 21
1785.8021107473937
 31
0.0
  0
LINE
  5
1AE
330
17
100
AcDbEntity
  8
0
100
AcDbLine
 10
1875.5483842660758
 20
1785.8021107473937
 30
0.0
 11
1875.5404966660642
 21
1786.329318637051
 31
0.0
  0
LINE
  5
1AF
330
17
100
AcDbEntity
  8
0
100
AcDbLine
 10
307.22965169939414
 20
726.025507813907
 30
0.0
 11
307.1823878597788
 21
726.5506520822897
 31
0.0
  0
LINE
  5
1B0
330
17
100
AcDbEntity
  8
0
100
AcDbLine
 10
307.1823878597788
 20
726.5506520822897
 30
0.0
 11
307.09601209912245
 21
727.0707959096311
 31
0.0
  0
LINE
  5
1B1
330
17
100
AcDbEntity
  8
0
100
AcDbLine
 10
307.09601209912245
 20
727.0707959096311
 30
0.0
 11
306.9710074657157
 21
727.5830304406596
 31
0.0
  0
LINE
  5
1B2
330
17
100
AcDbEntity
  8
0
100
AcDbLine
 10
306.9710074657157
 20
727.5830304406596
 30
0.0
 11
306.8080730361755
 21
728.0844910520952
 31
0.0
  0
LINE
  5
1B3
330
17
100
AcDbEntity
  8
0
100
AcDbLine
 10
306.8080730361755
 20
728.0844910520952
 30
0.0
 11
306.6081200059238
 21
728.5723733727859
 31
0.0
  0
LINE
  5
1B4
330
17
100
AcDbEntity
  8
0
100
AcDbLine
 10
306.6081200059238
 20
728.5723733727859
 30
0.0
 11
306.37226659341457
 21
729.0439489668946
 31
0.0
  0
LINE
  5
1B5
330
17
100
AcDbEntity
  8
0
100
AcDbLine
 10
306.37226659341457
 20
729.0439489668946
 30
0.0
 11
306.10183178660156
 21
729.4965805924073
 31
0.0
  0
LINE
  5
1B6
330
17
100
AcDbEntity
  8
0
100
AcDbLine
 10
306.10183178660156
 20
729.4965805924073
 30
0.0
 11
305.7983279666229
 21
729.9277369496713
 31
0.0
  0
LINE
  5
1B7
330
17
100
AcDbEntity
  8
0
100
AcDbLine
 10
305.7983279666229
 20
729.9277369496713
 30
0.0
 11
305.46345244995234
 21
730.3350068374419
 31
0.0
  0
LINE
  5
1B8
330
17
100
AcDbEntity
  8
0
100
AcDbLine
 10
305.46345244995234
 20
730.3350068374419
 30
0.0
 11
305.0990779963175
 21
730.7161126373053
 31
0.0
  0
LINE
  5
1B9
330
17
100
AcDbEntity
  8
0
100
AcDbLine
 10
305.0990779963175
 20
730.7161126373053
 30
0.0
 11
304.70724233546696
 21
731.0689230510347
 31
0.0
  0
LINE
  5
1BA
330
17
100
AcDbEntity
  8
0
100
AcDbLine
 10
304.70724233546696
 20
731.0689230510347
 30
0.0
 11
304.2901367713594
 21
731.3914650196855
 31
0.0
  0
LINE
  5
1BB
330
17
100
AcDbEntity
  8
0
100
AcDbLine
 10
304.2901367713594
 20
731.3914650196855
 30
0.0
 11
303.85009392750317
 21
731.6819347577334
 31
0.0
  0
LINE
  5
1BC
330
17
100
AcDbEntity
  8
0
100
AcDbLine
 10
303.85009392750317
 20
731.6819347577334
 30
0.0
 11
303.38957470197903
 21
731.9387078405762
 31
0.0
  0
LINE
  5
1BD
330
17
100
AcDbEntity
  8
0
100
AcDbLine
 10
303.38957470197903
 20
731.9387078405762
 30
0.0
 11
302.9111545051
 21
732.1603482889807
 31
0.0
  0
LINE
  5
1BE
330
17
100
AcDbEntity
  8
0
100
AcDbLine
 10
302.9111545051
 20
732.1603482889807
 30
0.0
 11
302.4175088566722
 21
732.3456165996522
 31
0.0
  0
LINE
  5
1BF
330
17
100
AcDbEntity
  8
0
100
AcDbLine
 10
302.4175088566722
 20
732.3456165996522
 30
0.0
 11
301.91139842340306
 21
732.4934766770456
 31
0.0
  0
LINE
  5
1C0
330
17
100
AcDbEntity
  8
0
100
AcDbLine
 10
301.91139842340306
 20
732.4934766770456
 30
0.0
 11
301.39565358013283
 21
732.6031016276303
 31
0.0
  0
LINE
  5
1C1
330
17
100
AcDbEntity
  8
0
100
AcDbLine
 10
301.39565358013283
 20
732.6031016276303
 30
0.0
 11
300.87315858123054
 21
732.6738783842145
 31
0.0
  0
LINE
  5
1C2
330
17
100
AcDbEntity
  8
0
100
AcDbLine
 10
300.87315858123054
 20
732.6738783842145
 30
0.0
 11
300.3468354306737
 21
732.7054111344668
 31
0.0
  0
LINE
  5
1C3
330
17
100
AcDbEntity
  8
0
100
AcDbLine
 10
300.3468354306737
 20
732.7054111344668
 30
0.0
 11
299.8196275410166
 21
732.6975235344553
 31
0.0
  0
LINE
  5
1C4
330
17
100
AcDbEntity
  8
0
100
AcDbLine
 10
299.8196275410166
 20
732.6975235344553
 30
0.0
 11
299.29448327263384
 21
732.6502596948402
 31
0.0
  0
LINE
  5
1C5
330
17
100
AcDbEntity
  8
0
100
AcDbLine
 10
299.29448327263384
 20
732.6502596948402
 30
0.0
 11
298.7743394452923
 21
732.5638839341833
 31
0.0
  0
LINE
  5
1C6
330
17
100
AcDbEntity
  8
0
100
AcDbLine
 10
298.7743394452923
 20
732.5638839341833
 30
0.0
 11
298.26210491426434
 21
732.4388793007768
 31
0.0
  0
LINE
  5
1C7
330
17
100
AcDbEntity
  8
0
100
AcDbLine
 10
298.26210491426434
 20
732.4388793007768
 30
0.0
 11
297.7606443028292
 21
732.2759448712363
 31
0.0
  0
LINE
  5
1C8
330
17
100
AcDbEntity
  8
0
100
AcDbLine
 10
297.7606443028292
 20
732.2759448712363
 30
0.0
 11
297.2727619821372
 21
732.0759918409844
 31
0.0
  0
LINE
  5
1C9
330
17
100
AcDbEntity
  8
0
100
AcDbLine
 10
297.2727619821372
 20
732.0759918409844
 30
0.0
 11
296.8011863880294
 21
731.8401384284748
 31
0.0
  0
LINE
  5
1CA
330
17
100
AcDbEntity
  8
0
100
AcDbLine
 10
296.8011863880294
 20
731.8401384284748
 30
0.0
 11
296.34855476251647
 21
731.5697036216613
 31
0.0
  0
LINE
  5
1CB
330
17
100
AcDbEntity
  8
0
100
AcDbLine
 10
296.34855476251647
 20
731.5697036216613
 30
0.0
 11
295.9173984052527
 21
731.2661998016838
 31
0.0
  0
LINE
  5
1CC
330
17
100
AcDbEntity
  8
0
100
AcDbLine
 10
295.9173984052527
 20
731.2661998016838
 30
0.0
 11
295.5101285174814
 21
730.931324285013
 31
0.0
  0
LINE
  5
1CD
330
17
100
AcDbEntity
  8
0
100
AcDbLine
 10
295.5101285174814
 20
730.931324285013
 30
0.0
 11
295.1290227176189
 21
730.5669498313781
 31
0.0
  0
LINE
  5
1CE
330
17
100
AcDbEntity
  8
0
100
AcDbLine
 10
295.1290227176189
 20
730.5669498313781
 30
0.0
 11
294.7762123038888
 21
730.1751141705279
 31
0.0
  0
LINE
  5
1CF
330
17
100
AcDbEntity
  8
0
100
AcDbLine
 10
294.7762123038888
 20
730.1751141705279
 30
0.0
 11
294.45367033523814
 21
729.7580086064196
 31
0.0
  0
LINE
  5
1D0
330
17
100
AcDbEntity
  8
0
100
AcDbLine
 10
294.45367033523814
 20
729.7580086064196
 30
0.0
 11
294.16320059719055
 21
729.317965762564
 31
0.0
  0
LINE
  5
1D1
330
17
100
AcDbEntity
  8
0
100
AcDbLine
 10
294.16320059719055
 20
729.317965762564
 30
0.0
 11
293.90642751434666
 21
728.8574465370396
 31
0.0
  0
LINE
  5
1D2
330
17
100
AcDbEntity
  8
0
100
AcDbLine
 10
293.90642751434666
 20
728.8574465370396
 30
0.0
 11
293.6847870659425
 21
728.3790263401607
 31
0.0
  0
LINE
  5
1D3
330
17
100
AcDbEntity
  8
0
100
AcDbLine
 10
293.6847870659425
 20
728.3790263401607
 30
0.0
 11
293.4995187552715
 21
727.8853806917324
 31
0.0
  0
LINE
  5
1D4
330
17
100
AcDbEntity
  8
0
100
AcDbLine
 10
293.4995187552715
 20
727.8853806917324
 30
0.0
 11
293.35165867787833
 21
727.3792702584644
 31
0.0
  0
LINE
  5
1D5
330
17
100
AcDbEntity
  8
0
100
AcDbLine
 10
293.35165867787833
 20
727.3792702584644
 30
0.0
 11
293.24203372729374
 21
726.8635254151937
 31
0.0
  0
LINE
  5
1D6
330
17
100
AcDbEntity
  8
0
100
AcDbLine
 10
293.24203372729374
 20
726.8635254151937
 30
0.0
 11
293.1712569707094
 21
726.3410304162908
 31
0.0
  0
LINE
  5
1D7
330
17
100
AcDbEntity
  8
0
100
AcDbLine
 10
293.1712569707094
 20
726.3410304162908
 30
0.0
 11
293.13972422045754
 21
725.8147072657341
 31
0.0
  0
LINE
  5
1D8
330
17
100
AcDbEntity
  8
0
100
AcDbLine
 10
293.13972422045754
 20
725.8147072657341
 30
0.0
 11
293.1476118204688
 21
725.2874993760772
 31
0.0
  0
LINE
  5
1D9
330
17
100
AcDbEntity
  8
0
100
AcDbLine
 10
293.1476118204688
 20
725.2874993760772
 30
0.0
 11
293.1948756600841
 21
724.7623551076954
 31
0.0
  0
LINE
  5
1DA
330
17
100
AcDbEntity
  8
0
100
AcDbLine
 10
293.1948756600841
 20
724.7623551076954
 30
0.0
 11
293.28125142074066
 21
724.2422112803526
 31
0.0
  0
LINE
  5
1DB
330
17
100
AcDbEntity
  8
0
100
AcDbLine
 10
293.28125142074066
 20
724.2422112803526
 30
0.0
 11
293.4062560541473
 21
723.7299767493244
 31
0.0
  0
LINE
  5
1DC
330
17
100
AcDbEntity
  8
0
100
AcDbLine
 10
293.4062560541473
 20
723.7299767493244
 30
0.0
 11
293.5691904836876
 21
723.2285161378898
 31
0.0
  0
LINE
  5
1DD
330
17
100
AcDbEntity
  8
0
100
AcDbLine
 10
293.5691904836876
 20
723.2285161378898
 30
0.0
 11
293.7691435139392
 21
722.7406338171978
 31
0.0
  0
LINE
  5
1DE
330
17
100
AcDbEntity
  8
0
100
AcDbLine
 10
293.7691435139392
 20
722.7406338171978
 30
0.0
 11
294.00499692644837
 21
722.2690582230905
 31
0.0
  0
LINE
  5
1DF
330
17
100
AcDbEntity
  8
0
100
AcDbLine
 10
294.00499692644837
 20
722.2690582230905
 30
0.0
 11
294.27543173326154
 21
721.8164265975765
 31
0.0
  0
LINE
  5
1E0
330
17
100
AcDbEntity
  8
0
100
AcDbLine
 10
294.27543173326154
 20
721.8164265975765
 30
0.0
 11
294.57893555324017
 21
721.385270240314
 31
0.0
  0
LINE
  5
1E1
330
17
100
AcDbEntity
  8
0
100
AcDbLine
 10
294.57893555324017
 20
721.385270240314
 30
0.0
 11
294.91381106991065
 21
720.9780003525424
 31
0.0
  0
LINE
  5
1E2
330
17
100
AcDbEntity
  8
0
100
AcDbLine
 10
294.91381106991065
 20
720.9780003525424
 30
0.0
 11
295.27818552354546
 21
720.5968945526799
 31
0.0
  0
LINE
  5
1E3
330
17
100
AcDbEntity
  8
0
100
AcDbLine
 10
295.27818552354546
 20
720.5968945526799
 30
0.0
 11
295.67002118439615
 21
720.2440841389495
 31
0.0
  0
LINE
  5
1E4
330
17
100
AcDbEntity
  8
0
100
AcDbLine
 10
295.67002118439615
 20
720.2440841389495
 30
0.0
 11
296.08712674850375
 21
719.9215421702983
 31
0.0
  0
LINE
  5
1E5
330
17
100
AcDbEntity
  8
0
100
AcDbLine
 10
296.08712674850375
 20
719.9215421702983
 30
0.0
 11
296.52716959236
 21
719.6310724322515
 31
0.0
  0
LINE
  5
1E6
330
17
100
AcDbEntity
  8
0
100
AcDbLine
 10
296.52716959236
 20
719.6310724322515
 30
0.0
 11
296.9876888178841
 21
719.3742993494077
 31
0.0
  0
LINE
  5
1E7
330
17
100
AcDbEntity
  8
0
100
AcDbLine
 10
296.9876888178841
 20
719.3742993494077
 30
0.0
 11
297.4661090147632
 21
719.1526589010032
 31
0.0
  0
LINE
  5
1E8
330
17
100
AcDbEntity
  8
0
100
AcDbLine
 10
297.4661090147632
 20
719.1526589010032
 30
0.0
 11
297.9597546631907
 21
718.9673905903328
 31
0.0
  0
LINE
  5
1E9
330
17
100
AcDbEntity
  8
0
100
AcDbLine
 10
297.9597546631907
 20
718.9673905903328
 30
0.0
 11
298.46586509645994
 21
718.8195305129395
 31
0.0
  0
LINE
  5
1EA
330
17
100
AcDbEntity
  8
0
100
AcDbLine
 10
298.46586509645994
 20
718.8195305129395
 30
0.0
 11
298.9816099397303
 21
718.7099055623539
 31
0.0
  0
LINE
  5
1EB
330
17
100
AcDbEntity
  8
0
100
AcDbLine
 10
298.9816099397303
 20
718.7099055623539
 30
0.0
 11
299.5041049386325
 21
718.6391288057704
 31
0.0
  0
LINE
  5
1EC
330
17
100
AcDbEntity
  8
0
100
AcDbLine
 10
299.5041049386325
 20
718.6391288057704
 30
0.0
 11
300.0304280891895
 21
718.6075960555171
 31
0.0
  0
LINE
  5
1ED
330
17
100
AcDbEntity
  8
0
100
AcDbLine
 10
300.0304280891895
 20
718.6075960555171
 30
0.0
 11
300.5576359788463
 21
718.6154836555299
 31
0.0
  0
LINE
  5
1EE
330
17
100
AcDbEntity
  8
0
100
AcDbLine
 10
300.5576359788463
 20
718.6154836555299
 30
0.0
 11
301.0827802472294
 21
718.6627474951437
 31
0.0
  0
LINE
  5
1EF
330
17
100
AcDbEntity
  8
0
100
AcDbLine
 10
301.0827802472294
 20
718.6627474951437
 30
0.0
 11
301.60292407457075
 21
718.7491232558016
 31
0.0
  0
LINE
  5
1F0
330
17
100
AcDbEntity
  8
0
100
AcDbLine
 10
301.60292407457075
 20
718.7491232558016
 30
0.0
 11
302.11515860559877
 21
718.8741278892074
 31
0.0
  0
LINE
  5
1F1
330
17
100
AcDbEntity
  8
0
100
AcDbLine
 10
302.11515860559877
 20
718.8741278892074
 30
0.0
 11
302.6166192170338
 21
719.0370623187489
 31
0.0
  0
LINE
  5
1F2
330
17
100
AcDbEntity
  8
0
100
AcDbLine
 10
302.6166192170338
 20
719.0370623187489
 30
0.0
 11
303.10450153772575
 21
719.2370153490006
 31
0.0
  0
LINE
  5
1F3
330
17
100
AcDbEntity
  8
0
100
AcDbLine
 10
303.10450153772575
 20
719.2370153490006
 30
0.0
 11
303.5760771318338
 21
719.4728687615091
 31
0.0
  0
LINE
  5
1F4
330
17
100
AcDbEntity
  8
0
100
AcDbLine
 10
303.5760771318338
 20
719.4728687615091
 30
0.0
 11
304.02870875734675
 21
719.7433035683225
 31
0.0
  0
LINE
  5
1F5
330
17
100
AcDbEntity
  8
0
100
AcDbLine
 10
304.02870875734675
 20
719.7433035683225
 30
0.0
 11
304.45986511461047
 21
720.0468073883012
 31
0.0
  0
LINE
  5
1F6
330
17
100
AcDbEntity
  8
0
100
AcDbLine
 10
304.45986511461047
 20
720.0468073883012
 30
0.0
 11
304.86713500238176
 21
720.3816829049708
 31
0.0
  0
LINE
  5
1F7
330
17
100
AcDbEntity
  8
0
100
AcDbLine
 10
304.86713500238176
 20
720.3816829049708
 30
0.0
 11
305.2482408022442
 21
720.7460573586061
 31
0.0
  0
LINE
  5
1F8
330
17
100
AcDbEntity
  8
0
100
AcDbLine
 10
305.2482408022442
 20
720.7460573586061
 30
0.0
 11
305.6010512159741
 21
721.1378930194571
 31
0.0
  0
LINE
  5
1F9
330
17
100
AcDbEntity
  8
0
100
AcDbLine
 10
305.6010512159741
 20
721.1378930194571
 30
0.0
 11
305.92359318462485
 21
721.5549985835647
 31
0.0
  0
LINE
  5
1FA
330
17
100
AcDbEntity
  8
0
100
AcDbLine
 10
305.92359318462485
 20
721.5549985835647
 30
0.0
 11
306.2140629226725
 21
721.9950414274213
 31
0.0
  0
LINE
  5
1FB
330
17
100
AcDbEntity
  8
0
100
AcDbLine
 10
306.2140629226725
 20
721.9950414274213
 30
0.0
 11
306.47083600551645
 21
722.4555606529443
 31
0.0
  0
LINE
  5
1FC
330
17
100
AcDbEntity
  8
0
100
AcDbLine
 10
306.47083600551645
 20
722.4555606529443
 30
0.0
 11
306.69247645392045
 21
722.9339808498244
 31
0.0
  0
LINE
  5
1FD
330
17
100
AcDbEntity
  8
0
100
AcDbLine
 10
306.69247645392045
 20
722.9339808498244
 30
0.0
 11
306.8777447645915
 21
723.4276264982514
 31
0.0
  0
LINE
  5
1FE
330
17
100
AcDbEntity
  8
0
100
AcDbLine
 10
306.8777447645915
 20
723.4276264982514
 30
0.0
 11
307.0256048419847
 21
723.9337369315206
 31
0.0
  0
LINE
  5
1FF
330
17
100
AcDbEntity
  8
0
100
AcDbLine
 10
307.0256048419847
 20
723.9337369315206
 30
0.0
 11
307.13522979256925
 21
724.4494817747902
 31
0.0
  0
LINE
  5
200
330
17
100
AcDbEntity
  8
0
100
AcDbLine
 10
307.13522979256925
 20
724.4494817747902
 30
0.0
 11
307.2060065491537
 21
724.971976773693
 31
0.0
  0
LINE
  5
201
330
17
100
AcDbEntity
  8
0
100
AcDbLine
 10
307.2060065491537
 20
724.971976773693
 30
0.0
 11
307.2375392994054
 21
725.4982999242511
 31
0.0
  0
LINE
  5
202
330
17
100
AcDbEntity
  8
0
100
AcDbLine
 10
307.2375392994054
 20
725.4982999242511
 30
0.0
 11
307.22965169939414
 21
726.025507813907
 31
0.0
  0
LINE
  5
203
330
17
100
AcDbEntity
  8
0
100
AcDbLine
 10
1136.134383900914
 20
1671.5422109933663
 30
0.0
 11
1134.518109995135
 21
1672.971000241419
 31
0.0
  0
LINE
  5
204
330
17
100
AcDbEntity
  8
0
100
AcDbLine
 10
1134.518109995135
 20
1672.971000241419
 30
0.0
 11
1132.876010197077
 21
1674.370031444456
 31
0.0
  0
LINE
  5
205
330
17
100
AcDbEntity
  8
0
100
AcDbLine
 10
1132.876010197077
 20
1674.370031444456
 30
0.0
 11
1131.2086323172066
 21
1675.738837880579
 31
0.0
  0
LINE
  5
206
330
17
100
AcDbEntity
  8
0
100
AcDbLine
 10
1131.2086323172066
 20
1675.738837880579
 30
0.0
 11
1129.5165325988496
 21
1677.0769629109807
 31
0.0
  0
LINE
  5
207
330
17
100
AcDbEntity
  8
0
100
AcDbLine
 10
1129.5165325988496
 20
1677.0769629109807
 30
0.0
 11
1127.8002755326272
 21
1678.3839601322848
 31
0.0
  0
LINE
  5
208
330
17
100
AcDbEntity
  8
0
100
AcDbLine
 10
1127.8002755326272
 20
1678.3839601322848
 30
0.0
 11
1126.0604336681401
 21
1679.6593935254614
 31
0.0
  0
LINE
  5
209
330
17
100
AcDbEntity
  8
0
100
AcDbLine
 10
1126.0604336681401
 20
1679.6593935254614
 30
0.0
 11
1124.2975874229646
 21
1680.9028376012943
 31
0.0
  0
LINE
  5
20A
330
17
100
AcDbEntity
  8
0
100
AcDbLine
 10
1124.2975874229646
 20
1680.9028376012943
 30
0.0
 11
1122.5123248890188
 21
1682.1138775423137
 31
0.0
  0
LINE
  5
20B
330
17
100
AcDbEntity
  8
0
100
AcDbLine
 10
1122.5123248890188
 20
1682.1138775423137
 30
0.0
 11
1120.70524163638
 21
1683.2921093411887
 31
0.0
  0
LINE
  5
20C
330
17
100
AcDbEntity
  8
0
100
AcDbLine
 10
1120.70524163638
 20
1683.2921093411887
 30
0.0
 11
1118.8769405145938
 21
1684.4371399355102
 31
0.0
  0
LINE
  5
20D
330
17
100
AcDbEntity
  8
0
100
AcDbLine
 10
1118.8769405145938
 20
1684.4371399355102
 30
0.0
 11
1117.0280314515662
 21
1685.5485873389016
 31
0.0
  0
LINE
  5
20E
330
17
100
AcDbEntity
  8
0
100
AcDbLine
 10
1117.0280314515662
 20
1685.5485873389016
 30
0.0
 11
1115.1591312500857
 21
1686.6260807684685
 31
0.0
  0
LINE
  5
20F
330
17
100
AcDbEntity
  8
0
100
AcDbLine
 10
1115.1591312500857
 20
1686.6260807684685
 30
0.0
 11
1113.270863382059
 21
1687.6692607684813
 31
0.0
  0
LINE
  5
210
330
17
100
AcDbEntity
  8
0
100
AcDbLine
 10
1113.270863382059
 20
1687.6692607684813
 30
0.0
 11
1111.3638577805145
 21
1688.677779330301
 31
0.0
  0
LINE
  5
211
330
17
100
AcDbEntity
  8
0
100
AcDbLine
 10
1111.3638577805145
 20
1688.677779330301
 30
0.0
 11
1109.4387506294588
 21
1689.6513000084624
 31
0.0
  0
LINE
  5
212
330
17
100
AcDbEntity
  8
0
100
AcDbLine
 10
1109.4387506294588
 20
1689.6513000084624
 30
0.0
 11
1107.496184151641
 21
1690.5894980329267
 31
0.0
  0
LINE
  5
213
330
17
100
AcDbEntity
  8
0
100
AcDbLine
 10
1107.496184151641
 20
1690.5894980329267
 30
0.0
 11
1105.5368063943042
 21
1691.4920604174217
 31
0.0
  0
LINE
  5
214
330
17
100
AcDbEntity
  8
0
100
AcDbLine
 10
1105.5368063943042
 20
1691.4920604174217
 30
0.0
 11
1103.5612710129958
 21
1692.3586860638534
 31
0.0
  0
LINE
  5
215
330
17
100
AcDbEntity
  8
0
100
AcDbLine
 10
1103.5612710129958
 20
1692.3586860638534
 30
0.0
 11
1101.5702370535055
 21
1693.18908586275
 31
0.0
  0
LINE
  5
216
330
17
100
AcDbEntity
  8
0
100
AcDbLine
 10
1101.5702370535055
 20
1693.18908586275
 30
0.0
 11
1099.5643687320048
 21
1693.982982789721
 31
0.0
  0
LINE
  5
217
330
17
100
AcDbEntity
  8
0
100
AcDbLine
 10
1099.5643687320048
 20
1693.982982789721
 30
0.0
 11
1097.544335213463
 21
1694.7401119978613
 31
0.0
  0
LINE
  5
218
330
17
100
AcDbEntity
  8
0
100
AcDbLine
 10
1097.544335213463
 20
1694.7401119978613
 30
0.0
 11
1095.5108103884102
 21
1695.4602209061147
 31
0.0
  0
LINE
  5
219
330
17
100
AcDbEntity
  8
0
100
AcDbLine
 10
1095.5108103884102
 20
1695.4602209061147
 30
0.0
 11
1093.4644726481247
 21
1696.1430692835297
 31
0.0
  0
LINE
  5
21A
330
17
100
AcDbEntity
  8
0
100
AcDbLine
 10
1093.4644726481247
 20
1696.1430692835297
 30
0.0
 11
1091.4060046583215
 21
1696.7884293294023
 31
0.0
  0
LINE
  5
21B
330
17
100
AcDbEntity
  8
0
100
AcDbLine
 10
1091.4060046583215
 20
1696.7884293294023
 30
0.0
 11
1089.3360931314103
 21
1697.3960857492746
 31
0.0
  0
LINE
  5
21C
330
17
100
AcDbEntity
  8
0
100
AcDbLine
 10
1089.3360931314103
 20
1697.3960857492746
 30
0.0
 11
1087.2554285974056
 21
1697.9658358267538
 31
0.0
  0
LINE
  5
21D
330
17
100
AcDbEntity
  8
0
100
AcDbLine
 10
1087.2554285974056
 20
1697.9658358267538
 30
0.0
 11
1085.1647051735652
 21
1698.4974894911427
 31
0.0
  0
LINE
  5
21E
330
17
100
AcDbEntity
  8
0
100
AcDbLine
 10
1085.1647051735652
 20
1698.4974894911427
 30
0.0
 11
1083.0646203328283
 21
1698.990869380843
 31
0.0
  0
LINE
  5
21F
330
17
100
AcDbEntity
  8
0
100
AcDbLine
 10
1083.0646203328283
 20
1698.990869380843
 30
0.0
 11
1080.955874671138
 21
1699.44581090253
 31
0.0
  0
LINE
  5
220
330
17
100
AcDbEntity
  8
0
100
AcDbLine
 10
1080.955874671138
 20
1699.44581090253
 30
0.0
 11
1078.8391716737178
 21
1699.8621622860564
 31
0.0
  0
LINE
  5
221
330
17
100
AcDbEntity
  8
0
100
AcDbLine
 10
1078.8391716737178
 20
1699.8621622860564
 30
0.0
 11
1076.7152174803875
 21
1700.2397846350864
 31
0.0
  0
LINE
  5
222
330
17
100
AcDbEntity
  8
0
100
AcDbLine
 10
1076.7152174803875
 20
1700.2397846350864
 30
0.0
 11
1074.584720649992
 21
1700.5785519734309
 31
0.0
  0
LINE
  5
223
330
17
100
AcDbEntity
  8
0
100
AcDbLine
 10
1074.584720649992
 20
1700.5785519734309
 30
0.0
 11
1072.448391924025
 21
1700.8783512870737
 31
0.0
  0
LINE
  5
224
330
17
100
AcDbEntity
  8
0
100
AcDbLine
 10
1072.448391924025
 20
1700.8783512870737
 30
0.0
 11
1070.30694398952
 21
1701.1390825618726
 31
0.0
  0
LINE
  5
225
330
17
100
AcDbEntity
  8
0
100
AcDbLine
 10
1070.30694398952
 20
1701.1390825618726
 30
0.0
 11
1068.161091241299
 21
1701.3606588169248
 31
0.0
  0
LINE
  5
226
330
17
100
AcDbEntity
  8
0
100
AcDbLine
 10
1068.161091241299
 20
1701.3606588169248
 30
0.0
 11
1066.0115495436435
 21
1701.5430061335887
 31
0.0
  0
LINE
  5
227
330
17
100
AcDbEntity
  8
0
100
AcDbLine
 10
1066.0115495436435
 20
1701.5430061335887
 30
0.0
 11
1063.8590359914842
 21
1701.686063680133
 31
0.0
  0
LINE
  5
228
330
17
100
AcDbEntity
  8
0
100
AcDbLine
 10
1063.8590359914842
 20
1701.686063680133
 30
0.0
 11
1061.7042686711723
 21
1701.7897837320415
 31
0.0
  0
LINE
  5
229
330
17
100
AcDbEntity
  8
0
100
AcDbLine
 10
1061.7042686711723
 20
1701.7897837320415
 30
0.0
 11
1059.547966420924
 21
1701.8541316879275
 31
0.0
  0
LINE
  5
22A
330
17
100
AcDbEntity
  8
0
100
AcDbLine
 10
1059.547966420924
 20
1701.8541316879275
 30
0.0
 11
1057.390848591014
 21
1701.8790860810773
 31
0.0
  0
LINE
  5
22B
330
17
100
AcDbEntity
  8
0
100
AcDbLine
 10
1057.390848591014
 20
1701.8790860810773
 30
0.0
 11
1055.2336348037973
 21
1701.864638586616
 31
0.0
  0
LINE
  5
22C
330
17
100
AcDbEntity
  8
0
100
AcDbLine
 10
1055.2336348037973
 20
1701.864638586616
 30
0.0
 11
1053.0770447136417
 21
1701.8107940242803
 31
0.0
  0
LINE
  5
22D
330
17
100
AcDbEntity
  8
0
100
AcDbLine
 10
1053.0770447136417
 20
1701.8107940242803
 30
0.0
 11
1050.921797766845
 21
1701.717570356811
 31
0.0
  0
LINE
  5
22E
330
17
100
AcDbEntity
  8
0
100
AcDbLine
 10
1150.5988883428613
 20
1395.5430246163137
 30
0.0
 11
1148.9826144370825
 21
1396.9718138643661
 31
0.0
  0
LINE
  5
22F
330
17
100
AcDbEntity
  8
0
100
AcDbLine
 10
1148.9826144370825
 20
1396.9718138643661
 30
0.0
 11
1147.3405146390246
 21
1398.370845067403
 31
0.0
  0
LINE
  5
230
330
17
100
AcDbEntity
  8
0
100
AcDbLine
 10
1147.3405146390246
 20
1398.370845067403
 30
0.0
 11
1145.673136759154
 21
1399.7396515035261
 31
0.0
  0
LINE
  5
231
330
17
100
AcDbEntity
  8
0
100
AcDbLine
 10
1145.673136759154
 20
1399.7396515035261
 30
0.0
 11
1143.981037040797
 21
1401.0777765339278
 31
0.0
  0
LINE
  5
232
330
17
100
AcDbEntity
  8
0
100
AcDbLine
 10
1143.981037040797
 20
1401.0777765339278
 30
0.0
 11
1142.2647799745748
 21
1402.3847737552312
 31
0.0
  0
LINE
  5
233
330
17
100
AcDbEntity
  8
0
100
AcDbLine
 10
1142.2647799745748
 20
1402.3847737552312
 30
0.0
 11
1140.5249381100878
 21
1403.660207148409
 31
0.0
  0
LINE
  5
234
330
17
100
AcDbEntity
  8
0
100
AcDbLine
 10
1140.5249381100878
 20
1403.660207148409
 30
0.0
 11
1138.7620918649122
 21
1404.90365122424
 31
0.0
  0
LINE
  5
235
330
17
100
AcDbEntity
  8
0
100
AcDbLine
 10
1138.7620918649122
 20
1404.90365122424
 30
0.0
 11
1136.9768293309664
 21
1406.1146911652597
 31
0.0
  0
LINE
  5
236
330
17
100
AcDbEntity
  8
0
100
AcDbLine
 10
1136.9768293309664
 20
1406.1146911652597
 30
0.0
 11
1135.1697460783275
 21
1407.2929229641359
 31
0.0
  0
LINE
  5
237
330
17
100
AcDbEntity
  8
0
100
AcDbLine
 10
1135.1697460783275
 20
1407.2929229641359
 30
0.0
 11
1133.3414449565414
 21
1408.4379535584562
 31
0.0
  0
LINE
  5
238
330
17
100
AcDbEntity
  8
0
100
AcDbLine
 10
1133.3414449565414
 20
1408.4379535584562
 30
0.0
 11
1131.4925358935136
 21
1409.5494009618492
 31
0.0
  0
LINE
  5
239
330
17
100
AcDbEntity
  8
0
100
AcDbLine
 10
1131.4925358935136
 20
1409.5494009618492
 30
0.0
 11
1129.623635692033
 21
1410.6268943914163
 31
0.0
  0
LINE
  5
23A
330
17
100
AcDbEntity
  8
0
100
AcDbLine
 10
1129.623635692033
 20
1410.6268943914163
 30
0.0
 11
1127.7353678240063
 21
1411.67007439143
 31
0.0
  0
LINE
  5
23B
330
17
100
AcDbEntity
  8
0
100
AcDbLine
 10
1127.7353678240063
 20
1411.67007439143
 30
0.0
 11
1125.8283622224621
 21
1412.678592953247
 31
0.0
  0
LINE
  5
23C
330
17
100
AcDbEntity
  8
0
100
AcDbLine
 10
1125.8283622224621
 20
1412.678592953247
 30
0.0
 11
1123.9032550714064
 21
1413.6521136314084
 31
0.0
  0
LINE
  5
23D
330
17
100
AcDbEntity
  8
0
100
AcDbLine
 10
1123.9032550714064
 20
1413.6521136314084
 30
0.0
 11
1121.9606885935887
 21
1414.5903116558752
 31
0.0
  0
LINE
  5
23E
330
17
100
AcDbEntity
  8
0
100
AcDbLine
 10
1121.9606885935887
 20
1414.5903116558752
 30
0.0
 11
1120.0013108362518
 21
1415.492874040369
 31
0.0
  0
LINE
  5
23F
330
17
100
AcDbEntity
  8
0
100
AcDbLine
 10
1120.0013108362518
 20
1415.492874040369
 30
0.0
 11
1118.0257754549434
 21
1416.3594996868005
 31
0.0
  0
LINE
  5
240
330
17
100
AcDbEntity
  8
0
100
AcDbLine
 10
1118.0257754549434
 20
1416.3594996868005
 30
0.0
 11
1116.034741495453
 21
1417.1898994856974
 31
0.0
  0
LINE
  5
241
330
17
100
AcDbEntity
  8
0
100
AcDbLine
 10
1116.034741495453
 20
1417.1898994856974
 30
0.0
 11
1114.0288731739524
 21
1417.9837964126675
 31
0.0
  0
LINE
  5
242
330
17
100
AcDbEntity
  8
0
100
AcDbLine
 10
1114.0288731739524
 20
1417.9837964126675
 30
0.0
 11
1112.0088396554106
 21
1418.7409256208084
 31
0.0
  0
LINE
  5
243
330
17
100
AcDbEntity
  8
0
100
AcDbLine
 10
1112.0088396554106
 20
1418.7409256208084
 30
0.0
 11
1109.9753148303578
 21
1419.4610345290619
 31
0.0
  0
LINE
  5
244
330
17
100
AcDbEntity
  8
0
100
AcDbLine
 10
1109.9753148303578
 20
1419.4610345290619
 30
0.0
 11
1107.9289770900723
 21
1420.1438829064768
 31
0.0
  0
LINE
  5
245
330
17
100
AcDbEntity
  8
0
100
AcDbLine
 10
1107.9289770900723
 20
1420.1438829064768
 30
0.0
 11
1105.8705091002691
 21
1420.7892429523502
 31
0.0
  0
LINE
  5
246
330
17
100
AcDbEntity
  8
0
100
AcDbLine
 10
1105.8705091002691
 20
1420.7892429523502
 30
0.0
 11
1103.8005975733577
 21
1421.396899372222
 31
0.0
  0
LINE
  5
247
330
17
100
AcDbEntity
  8
0
100
AcDbLine
 10
1103.8005975733577
 20
1421.396899372222
 30
0.0
 11
1101.7199330393532
 21
1421.9666494497012
 31
0.0
  0
LINE
  5
248
330
17
100
AcDbEntity
  8
0
100
AcDbLine
 10
1101.7199330393532
 20
1421.9666494497012
 30
0.0
 11
1099.6292096155128
 21
1422.49830311409
 31
0.0
  0
LINE
  5
249
330
17
100
AcDbEntity
  8
0
100
AcDbLine
 10
1099.6292096155128
 20
1422.49830311409
 30
0.0
 11
1097.529124774776
 21
1422.9916830037903
 31
0.0
  0
LINE
  5
24A
330
17
100
AcDbEntity
  8
0
100
AcDbLine
 10
1097.529124774776
 20
1422.9916830037903
 30
0.0
 11
1095.4203791130853
 21
1423.446624525477
 31
0.0
  0
LINE
  5
24B
330
17
100
AcDbEntity
  8
0
100
AcDbLine
 10
1095.4203791130853
 20
1423.446624525477
 30
0.0
 11
1093.3036761156652
 21
1423.8629759090043
 31
0.0
  0
LINE
  5
24C
330
17
100
AcDbEntity
  8
0
100
AcDbLine
 10
1093.3036761156652
 20
1423.8629759090043
 30
0.0
 11
1091.179721922335
 21
1424.2405982580335
 31
0.0
  0
LINE
  5
24D
330
17
100
AcDbEntity
  8
0
100
AcDbLine
 10
1091.179721922335
 20
1424.2405982580335
 30
0.0
 11
1089.0492250919394
 21
1424.579365596378
 31
0.0
  0
LINE
  5
24E
330
17
100
AcDbEntity
  8
0
100
AcDbLine
 10
1089.0492250919394
 20
1424.579365596378
 30
0.0
 11
1086.9128963659725
 21
1424.8791649100208
 31
0.0
  0
LINE
  5
24F
330
17
100
AcDbEntity
  8
0
100
AcDbLine
 10
1086.9128963659725
 20
1424.8791649100208
 30
0.0
 11
1084.7714484314677
 21
1425.1398961848197
 31
0.0
  0
LINE
  5
250
330
17
100
AcDbEntity
  8
0
100
AcDbLine
 10
1084.7714484314677
 20
1425.1398961848197
 30
0.0
 11
1082.6255956832465
 21
1425.3614724398722
 31
0.0
  0
LINE
  5
251
330
17
100
AcDbEntity
  8
0
100
AcDbLine
 10
1082.6255956832465
 20
1425.3614724398722
 30
0.0
 11
1080.476053985591
 21
1425.543819756535
 31
0.0
  0
LINE
  5
252
330
17
100
AcDbEntity
  8
0
100
AcDbLine
 10
1080.476053985591
 20
1425.543819756535
 30
0.0
 11
1078.3235404334318
 21
1425.68687730308
 31
0.0
  0
LINE
  5
253
330
17
100
AcDbEntity
  8
0
100
AcDbLine
 10
1078.3235404334318
 20
1425.68687730308
 30
0.0
 11
1076.1687731131199
 21
1425.7905973549875
 31
0.0
  0
LINE
  5
254
330
17
100
AcDbEntity
  8
0
100
AcDbLine
 10
1076.1687731131199
 20
1425.7905973549875
 30
0.0
 11
1074.0124708628716
 21
1425.8549453108749
 31
0.0
  0
LINE
  5
255
330
17
100
AcDbEntity
  8
0
100
AcDbLine
 10
1074.0124708628716
 20
1425.8549453108749
 30
0.0
 11
1071.8553530329616
 21
1425.8798997040235
 31
0.0
  0
LINE
  5
256
330
17
100
AcDbEntity
  8
0
100
AcDbLine
 10
1071.8553530329616
 20
1425.8798997040235
 30
0.0
 11
1069.6981392457449
 21
1425.865452209563
 31
0.0
  0
LINE
  5
257
330
17
100
AcDbEntity
  8
0
100
AcDbLine
 10
1069.6981392457449
 20
1425.865452209563
 30
0.0
 11
1067.5415491555893
 21
1425.8116076472263
 31
0.0
  0
LINE
  5
258
330
17
100
AcDbEntity
  8
0
100
AcDbLine
 10
1067.5415491555893
 20
1425.8116076472263
 30
0.0
 11
1065.3863022087924
 21
1425.7183839797583
 31
0.0
  0
LINE
  5
259
330
17
100
AcDbEntity
  8
0
100
AcDbLine
 10
1330.7701352636498
 20
1439.626561327786
 30
0.0
 11
1328.7377976456257
 21
1439.5005213785341
 31
0.0
  0
LINE
  5
25A
330
17
100
AcDbEntity
  8
0
100
AcDbLine
 10
1328.7377976456257
 20
1439.5005213785341
 30
0.0
 11
1326.7082471840276
 21
1439.3355753683543
 31
0.0
  0
LINE
  5
25B
330
17
100
AcDbEntity
  8
0
100
AcDbLine
 10
1326.7082471840276
 20
1439.3355753683543
 30
0.0
 11
1324.6822286084691
 21
1439.1317838230536
 31
0.0
  0
LINE
  5
25C
330
17
100
AcDbEntity
  8
0
100
AcDbLine
 10
1324.6822286084691
 20
1439.1317838230536
 30
0.0
 11
1322.6604853525598
 21
1438.8892215225414
 31
0.0
  0
LINE
  5
25D
330
17
100
AcDbEntity
  8
0
100
AcDbLine
 10
1322.6604853525598
 20
1438.8892215225414
 30
0.0
 11
1320.6437592811117
 21
1438.6079774733873
 31
0.0
  0
LINE
  5
25E
330
17
100
AcDbEntity
  8
0
100
AcDbLine
 10
1320.6437592811117
 20
1438.6079774733873
 30
0.0
 11
1318.6327904179136
 21
1438.2881548761663
 31
0.0
  0
LINE
  5
25F
330
17
100
AcDbEntity
  8
0
100
AcDbLine
 10
1318.6327904179136
 20
1438.2881548761663
 30
0.0
 11
1316.6283166741885
 21
1437.929871087587
 31
0.0
  0
LINE
  5
260
330
17
100
AcDbEntity
  8
0
100
AcDbLine
 10
1316.6283166741885
 20
1437.929871087587
 30
0.0
 11
1314.6310735778181
 21
1437.5332575774207
 31
0.0
  0
LINE
  5
261
330
17
100
AcDbEntity
  8
0
100
AcDbLine
 10
1314.6310735778181
 20
1437.5332575774207
 30
0.0
 11
1312.6417940034485
 21
1437.098459880277
 31
0.0
  0
LINE
  5
262
330
17
100
AcDbEntity
  8
0
100
AcDbLine
 10
1312.6417940034485
 20
1437.098459880277
 30
0.0
 11
1310.6612079035658
 21
1436.6256375421883
 31
0.0
  0
LINE
  5
263
330
17
100
AcDbEntity
  8
0
100
AcDbLine
 10
1310.6612079035658
 20
1436.6256375421883
 30
0.0
 11
1308.690042040646
 21
1436.1149640620638
 31
0.0
  0
LINE
  5
264
330
17
100
AcDbEntity
  8
0
100
AcDbLine
 10
1308.690042040646
 20
1436.1149640620638
 30
0.0
 11
1306.729019720473
 21
1435.5666268280297
 31
0.0
  0
LINE
  5
265
330
17
100
AcDbEntity
  8
0
100
AcDbLine
 10
1306.729019720473
 20
1435.5666268280297
 30
0.0
 11
1304.7788605267267
 21
1434.9808270486737
 31
0.0
  0
LINE
  5
266
330
17
100
AcDbEntity
  8
0
100
AcDbLine
 10
1304.7788605267267
 20
1434.9808270486737
 30
0.0
 11
1302.8402800569397
 21
1434.3577796792042
 31
0.0
  0
LINE
  5
267
330
17
100
AcDbEntity
  8
0
100
AcDbLine
 10
1302.8402800569397
 20
1434.3577796792042
 30
0.0
 11
1300.9139896599079
 21
1433.6977133425776
 31
0.0
  0
LINE
  5
268
330
17
100
AcDbEntity
  8
0
100
AcDbLine
 10
1300.9139896599079
 20
1433.6977133425776
 30
0.0
 11
1299.0006961746728
 21
1433.0008702456012
 31
0.0
  0
LINE
  5
269
330
17
100
AcDbEntity
  8
0
100
AcDbLine
 10
1299.0006961746728
 20
1433.0008702456012
 30
0.0
 11
1297.1011016711464
 21
1432.2675060900722
 31
0.0
  0
LINE
  5
26A
330
17
100
AcDbEntity
  8
0
100
AcDbLine
 10
1297.1011016711464
 20
1432.2675060900722
 30
0.0
 11
1295.215903192493
 21
1431.49788997893
 31
0.0
  0
LINE
  5
26B
330
17
100
AcDbEntity
  8
0
100
AcDbLine
 10
1295.215903192493
 20
1431.49788997893
 30
0.0
 11
1293.345792499356
 21
1430.692304317528
 31
0.0
  0
LINE
  5
26C
330
17
100
AcDbEntity
  8
0
100
AcDbLine
 10
1293.345792499356
 20
1430.692304317528
 30
0.0
 11
1291.491455816018
 21
1429.8510447099907
 31
0.0
  0
LINE
  5
26D
330
17
100
AcDbEntity
  8
0
100
AcDbLine
 10
1291.491455816018
 20
1429.8510447099907
 30
0.0
 11
1289.6535735785978
 21
1428.9744198507603
 31
0.0
  0
LINE
  5
26E
330
17
100
AcDbEntity
  8
0
100
AcDbLine
 10
1289.6535735785978
 20
1428.9744198507603
 30
0.0
 11
1287.832820185368
 21
1428.062751411312
 31
0.0
  0
LINE
  5
26F
330
17
100
AcDbEntity
  8
0
100
AcDbLine
 10
1287.832820185368
 20
1428.062751411312
 30
0.0
 11
1286.0298637492888
 21
1427.116373922122
 31
0.0
  0
LINE
  5
270
330
17
100
AcDbEntity
  8
0
100
AcDbLine
 10
1286.0298637492888
 20
1427.116373922122
 30
0.0
 11
1284.2453658528505
 21
1426.1356346499128
 31
0.0
  0
LINE
  5
271
330
17
100
AcDbEntity
  8
0
100
AcDbLine
 10
1284.2453658528505
 20
1426.1356346499128
 30
0.0
 11
1282.479981305308
 21
1425.1208934702313
 31
0.0
  0
LINE
  5
272
330
17
100
AcDbEntity
  8
0
100
AcDbLine
 10
1282.479981305308
 20
1425.1208934702313
 30
0.0
 11
1280.7343579024036
 21
1424.0725227353876
 31
0.0
  0
LINE
  5
273
330
17
100
AcDbEntity
  8
0
100
AcDbLine
 10
1280.7343579024036
 20
1424.0725227353876
 30
0.0
 11
1279.0091361886641
 21
1422.9909071378277
 31
0.0
  0
LINE
  5
274
330
17
100
AcDbEntity
  8
0
100
AcDbLine
 10
1279.0091361886641
 20
1422.9909071378277
 30
0.0
 11
1277.304949222356
 21
1421.8764435689693
 31
0.0
  0
LINE
  5
275
330
17
100
AcDbEntity
  8
0
100
AcDbLine
 10
1277.304949222356
 20
1421.8764435689693
 30
0.0
 11
1275.62242234319
 21
1420.7295409735725
 31
0.0
  0
LINE
  5
276
330
17
100
AcDbEntity
  8
0
100
AcDbLine
 10
1275.62242234319
 20
1420.7295409735725
 30
0.0
 11
1273.9621729428561
 21
1419.5506201996718
 31
0.0
  0
LINE
  5
277
330
17
100
AcDbEntity
  8
0
100
AcDbLine
 10
1273.9621729428561
 20
1419.5506201996718
 30
0.0
 11
1272.3248102384766
 21
1418.3401138441534
 31
0.0
  0
LINE
  5
278
330
17
100
AcDbEntity
  8
0
100
AcDbLine
 10
1272.3248102384766
 20
1418.3401138441534
 30
0.0
 11
1270.710935049057
 21
1417.0984660940162
 31
0.0
  0
LINE
  5
279
330
17
100
AcDbEntity
  8
0
100
AcDbLine
 10
1270.710935049057
 20
1417.0984660940162
 30
0.0
 11
1269.1211395750224
 21
1415.8261325633796
 31
0.0
  0
LINE
  5
27A
330
17
100
AcDbEntity
  8
0
100
AcDbLine
 10
1269.1211395750224
 20
1415.8261325633796
 30
0.0
 11
1267.556007180909
 21
1414.5235801262988
 31
0.0
  0
LINE
  5
27B
330
17
100
AcDbEntity
  8
0
100
AcDbLine
 10
1267.556007180909
 20
1414.5235801262988
 30
0.0
 11
1266.016112181307
 21
1413.191286745454
 31
0.0
  0
LINE
  5
27C
330
17
100
AcDbEntity
  8
0
100
AcDbLine
 10
1266.016112181307
 20
1413.191286745454
 30
0.0
 11
1264.502019630117
 21
1411.8297412967536
 31
0.0
  0
LINE
  5
27D
330
17
100
AcDbEntity
  8
0
100
AcDbLine
 10
1264.502019630117
 20
1411.8297412967536
 30
0.0
 11
1263.014285113209
 21
1410.4394433899558
 31
0.0
  0
LINE
  5
27E
330
17
100
AcDbEntity
  8
0
100
AcDbLine
 10
1263.014285113209
 20
1410.4394433899558
 30
0.0
 11
1261.5534545445528
 21
1409.0209031853353
 31
0.0
  0
LINE
  5
27F
330
17
100
AcDbEntity
  8
0
100
AcDbLine
 10
1261.5534545445528
 20
1409.0209031853353
 30
0.0
 11
1260.1200639658987
 21
1407.5746412064855
 31
0.0
  0
LINE
  5
280
330
17
100
AcDbEntity
  8
0
100
AcDbLine
 10
1260.1200639658987
 20
1407.5746412064855
 30
0.0
 11
1258.7146393500816
 21
1406.101188149309
 31
0.0
  0
LINE
  5
281
330
17
100
AcDbEntity
  8
0
100
AcDbLine
 10
1258.7146393500816
 20
1406.101188149309
 30
0.0
 11
1257.3376964080173
 21
1404.6010846872964
 31
0.0
  0
LINE
  5
282
330
17
100
AcDbEntity
  8
0
100
AcDbLine
 10
1165.6434193491416
 20
1171.367871692081
 30
0.0
 11
1166.835637211503
 21
1172.7213674866443
 31
0.0
  0
LINE
  5
283
330
17
100
AcDbEntity
  8
0
100
AcDbLine
 10
1166.835637211503
 20
1172.7213674866443
 30
0.0
 11
1167.9980450031449
 21
1174.1005492814643
 31
0.0
  0
LINE
  5
284
330
17
100
AcDbEntity
  8
0
100
AcDbLine
 10
1167.9980450031449
 20
1174.1005492814643
 30
0.0
 11
1169.1300894809149
 21
1175.5047606607022
 31
0.0
  0
LINE
  5
285
330
17
100
AcDbEntity
  8
0
100
AcDbLine
 10
1169.1300894809149
 20
1175.5047606607022
 30
0.0
 11
1170.2312318529523
 21
1176.9333332957945
 31
0.0
  0
LINE
  5
286
330
17
100
AcDbEntity
  8
0
100
AcDbLine
 10
1170.2312318529523
 20
1176.9333332957945
 30
0.0
 11
1171.3009480351259
 21
1178.3855872635372
 31
0.0
  0
LINE
  5
287
330
17
100
AcDbEntity
  8
0
100
AcDbLine
 10
1171.3009480351259
 20
1178.3855872635372
 30
0.0
 11
1172.3387289004688
 21
1179.860831369698
 31
0.0
  0
LINE
  5
288
330
17
100
AcDbEntity
  8
0
100
AcDbLine
 10
1172.3387289004688
 20
1179.860831369698
 30
0.0
 11
1173.3440805214948
 21
1181.3583634779775
 31
0.0
  0
LINE
  5
289
330
17
100
AcDbEntity
  8
0
100
AcDbLine
 10
1173.3440805214948
 20
1181.3583634779775
 30
0.0
 11
1174.3165244052823
 21
1182.8774708442022
 31
0.0
  0
LINE
  5
28A
330
17
100
AcDbEntity
  8
0
100
AcDbLine
 10
1174.3165244052823
 20
1182.8774708442022
 30
0.0
 11
1175.2555977212091
 21
1184.417430455538
 31
0.0
  0
LINE
  5
28B
330
17
100
AcDbEntity
  8
0
100
AcDbLine
 10
1175.2555977212091
 20
1184.417430455538
 30
0.0
 11
1176.1608535212386
 21
1185.977509374614
 31
0.0
  0
LINE
  5
28C
330
17
100
AcDbEntity
  8
0
100
AcDbLine
 10
1176.1608535212386
 20
1185.977509374614
 30
0.0
 11
1177.031860952637
 21
1187.556965088358
 31
0.0
  0
LINE
  5
28D
330
17
100
AcDbEntity
  8
0
100
AcDbLine
 10
1177.031860952637
 20
1187.556965088358
 30
0.0
 11
1177.8682054630408
 21
1189.1550458613954
 31
0.0
  0
LINE
  5
28E
330
17
100
AcDbEntity
  8
0
100
AcDbLine
 10
1177.8682054630408
 20
1189.1550458613954
 30
0.0
 11
1178.66948899776
 21
1190.7709910938265
 31
0.0
  0
LINE
  5
28F
330
17
100
AcDbEntity
  8
0
100
AcDbLine
 10
1178.66948899776
 20
1190.7709910938265
 30
0.0
 11
1179.4353301892286
 21
1192.404031683243
 31
0.0
  0
LINE
  5
290
330
17
100
AcDbEntity
  8
0
100
AcDbLine
 10
1179.4353301892286
 20
1192.404031683243
 30
0.0
 11
1180.1653645385181
 21
1194.053390390769
 31
0.0
  0
LINE
  5
291
330
17
100
AcDbEntity
  8
0
100
AcDbLine
 10
1180.1653645385181
 20
1194.053390390769
 30
0.0
 11
1180.859244588816
 21
1195.7182822109862
 31
0.0
  0
LINE
  5
292
330
17
100
AcDbEntity
  8
0
100
AcDbLine
 10
1180.859244588816
 20
1195.7182822109862
 30
0.0
 11
1181.5166400907995
 21
1197.3979147455618
 31
0.0
  0
LINE
  5
293
330
17
100
AcDbEntity
  8
0
100
AcDbLine
 10
1181.5166400907995
 20
1197.3979147455618
 30
0.0
 11
1182.137238159813
 21
1199.091488580376
 31
0.0
  0
LINE
  5
294
330
17
100
AcDbEntity
  8
0
100
AcDbLine
 10
1182.137238159813
 20
1199.091488580376
 30
0.0
 11
1182.7207434247882
 21
1200.7981976660076
 31
0.0
  0
LINE
  5
295
330
17
100
AcDbEntity
  8
0
100
AcDbLine
 10
1182.7207434247882
 20
1200.7981976660076
 30
0.0
 11
1183.266878168821
 21
1202.5172297013678
 31
0.0
  0
LINE
  5
296
330
17
100
AcDbEntity
  8
0
100
AcDbLine
 10
1183.266878168821
 20
1202.5172297013678
 30
0.0
 11
1183.7753824613517
 21
1204.2477665203087
 31
0.0
  0
LINE
  5
297
330
17
100
AcDbEntity
  8
0
100
AcDbLine
 10
1183.7753824613517
 20
1204.2477665203087
 30
0.0
 11
1184.246014281878
 21
1205.9889844810289
 31
0.0
  0
LINE
  5
298
330
17
100
AcDbEntity
  8
0
100
AcDbLine
 10
1184.246014281878
 20
1205.9889844810289
 30
0.0
 11
1184.678549635143
 21
1207.7400548580868
 31
0.0
  0
LINE
  5
299
330
17
100
AcDbEntity
  8
0
100
AcDbLine
 10
1184.678549635143
 20
1207.7400548580868
 30
0.0
 11
1185.072782657743
 21
1209.5001442368184
 31
0.0
  0
LINE
  5
29A
330
17
100
AcDbEntity
  8
0
100
AcDbLine
 10
1185.072782657743
 20
1209.5001442368184
 30
0.0
 11
1185.4285257161123
 21
1211.2684149100046
 31
0.0
  0
LINE
  5
29B
330
17
100
AcDbEntity
  8
0
100
AcDbLine
 10
1185.4285257161123
 20
1211.2684149100046
 30
0.0
 11
1185.7456094958216
 21
1213.0440252765766
 31
0.0
  0
LINE
  5
29C
330
17
100
AcDbEntity
  8
0
100
AcDbLine
 10
1185.7456094958216
 20
1213.0440252765766
 30
0.0
 11
1186.023883082165
 21
1214.8261302421647
 31
0.0
  0
LINE
  5
29D
330
17
100
AcDbEntity
  8
0
100
AcDbLine
 10
1186.023883082165
 20
1214.8261302421647
 30
0.0
 11
1186.2632140319863
 21
1216.613881621325
 31
0.0
  0
LINE
  5
29E
330
17
100
AcDbEntity
  8
0
100
AcDbLine
 10
1186.2632140319863
 20
1216.613881621325
 30
0.0
 11
1186.463488436716
 21
1218.4064285412246
 31
0.0
  0
LINE
  5
29F
330
17
100
AcDbEntity
  8
0
100
AcDbLine
 10
1186.463488436716
 20
1218.4064285412246
 30
0.0
 11
1186.6246109765846
 21
1220.2029178466146
 31
0.0
  0
LINE
  5
2A0
330
17
100
AcDbEntity
  8
0
100
AcDbLine
 10
1186.6246109765846
 20
1220.2029178466146
 30
0.0
 11
1186.7465049659886
 21
1222.0024945058813
 31
0.0
  0
LINE
  5
2A1
330
17
100
AcDbEntity
  8
0
100
AcDbLine
 10
1186.7465049659886
 20
1222.0024945058813
 30
0.0
 11
1186.8291123899915
 21
1223.8043020180005
 31
0.0
  0
LINE
  5
2A2
330
17
100
AcDbEntity
  8
0
100
AcDbLine
 10
1186.8291123899915
 20
1223.8043020180005
 30
0.0
 11
1186.8723939319327
 21
1225.6074828201827
 31
0.0
  0
LINE
  5
2A3
330
17
100
AcDbEntity
  8
0
100
AcDbLine
 10
1186.8723939319327
 20
1225.6074828201827
 30
0.0
 11
1186.8763289921433
 21
1227.411178696025
 31
0.0
  0
LINE
  5
2A4
330
17
100
AcDbEntity
  8
0
100
AcDbLine
 10
1186.8763289921433
 20
1227.411178696025
 30
0.0
 11
1186.8409156977475
 21
1229.21453118398
 31
0.0
  0
LINE
  5
2A5
330
17
100
AcDbEntity
  8
0
100
AcDbLine
 10
1186.8409156977475
 20
1229.21453118398
 30
0.0
 11
1186.7661709035544
 21
1231.016681985931
 31
0.0
  0
LINE
  5
2A6
330
17
100
AcDbEntity
  8
0
100
AcDbLine
 10
1186.7661709035526
 20
1231.016681985931
 30
0.0
 11
1186.8987425763996
 21
1228.8634971807155
 31
0.0
  0
LINE
  5
2A7
330
17
100
AcDbEntity
  8
0
100
AcDbLine
 10
1186.8987425763996
 20
1228.8634971807155
 30
0.0
 11
1187.0706180282323
 21
1226.713092827364
 31
0.0
  0
LINE
  5
2A8
330
17
100
AcDbEntity
  8
0
100
AcDbLine
 10
1187.0706180282323
 20
1226.713092827364
 30
0.0
 11
1187.281739920775
 21
1224.5661863085936
 31
0.0
  0
LINE
  5
2A9
330
17
100
AcDbEntity
  8
0
100
AcDbLine
 10
1187.281739920775
 20
1224.5661863085936
 30
0.0
 11
1187.5320378229965
 21
1222.4234938402258
 31
0.0
  0
LINE
  5
2AA
330
17
100
AcDbEntity
  8
0
100
AcDbLine
 10
1187.5320378229965
 20
1222.4234938402258
 30
0.0
 11
1187.8214282346057
 21
1220.2857302322645
 31
0.0
  0
LINE
  5
2AB
330
17
100
AcDbEntity
  8
0
100
AcDbLine
 10
1187.8214282346057
 20
1220.2857302322645
 30
0.0
 11
1188.1498146139088
 21
1218.1536086504273
 31
0.0
  0
LINE
  5
2AC
330
17
100
AcDbEntity
  8
0
100
AcDbLine
 10
1188.1498146139088
 20
1218.1536086504273
 30
0.0
 11
1188.5170874100152
 21
1216.027840378226
 31
0.0
  0
LINE
  5
2AD
330
17
100
AcDbEntity
  8
0
100
AcDbLine
 10
1188.5170874100152
 20
1216.027840378226
 30
0.0
 11
1188.923124099384
 21
1213.9091345796921
 31
0.0
  0
LINE
  5
2AE
330
17
100
AcDbEntity
  8
0
100
AcDbLine
 10
1188.923124099384
 20
1213.9091345796921
 30
0.0
 11
1189.3677892266985
 21
1211.7981980627878
 31
0.0
  0
LINE
  5
2AF
330
17
100
AcDbEntity
  8
0
100
AcDbLine
 10
1189.3677892266985
 20
1211.7981980627878
 30
0.0
 11
1189.8509344500544
 21
1209.6957350436119
 31
0.0
  0
LINE
  5
2B0
330
17
100
AcDbEntity
  8
0
100
AcDbLine
 10
1189.8509344500544
 20
1209.6957350436119
 30
0.0
 11
1190.372398590448
 21
1207.6024469114777
 31
0.0
  0
LINE
  5
2B1
330
17
100
AcDbEntity
  8
0
100
AcDbLine
 10
1190.372398590448
 20
1207.6024469114777
 30
0.0
 11
1190.932007685545
 21
1205.5190319949186
 31
0.0
  0
LINE
  5
2B2
330
17
100
AcDbEntity
  8
0
100
AcDbLine
 10
1190.932007685545
 20
1205.5190319949186
 30
0.0
 11
1191.5295750477158
 21
1203.4461853287319
 31
0.0
  0
LINE
  5
2B3
330
17
100
AcDbEntity
  8
0
100
AcDbLine
 10
1191.5295750477158
 20
1203.4461853287319
 30
0.0
 11
1192.1649013263143
 21
1201.3845984221057
 31
0.0
  0
LINE
  5
2B4
330
17
100
AcDbEntity
  8
0
100
AcDbLine
 10
1192.1649013263143
 20
1201.3845984221057
 30
0.0
 11
1192.8377745741827
 21
1199.3349590279295
 31
0.0
  0
LINE
  5
2B5
330
17
100
AcDbEntity
  8
0
100
AcDbLine
 10
1192.8377745741827
 20
1199.3349590279295
 30
0.0
 11
1193.547970318358
 21
1197.2979509133636
 31
0.0
  0
LINE
  5
2B6
330
17
100
AcDbEntity
  8
0
100
AcDbLine
 10
1193.547970318358
 20
1197.2979509133636
 30
0.0
 11
1194.2952516349567
 21
1195.2742536317237
 31
0.0
  0
LINE
  5
2B7
330
17
100
AcDbEntity
  8
0
100
AcDbLine
 10
1194.2952516349567
 20
1195.2742536317237
 30
0.0
 11
1195.0793692282127
 21
1193.2645422957858
 31
0.0
  0
LINE
  5
2B8
330
17
100
AcDbEntity
  8
0
100
AcDbLine
 10
1195.0793692282127
 20
1193.2645422957858
 30
0.0
 11
1195.900061513645
 21
1191.2694873525606
 31
0.0
  0
LINE
  5
2B9
330
17
100
AcDbEntity
  8
0
100
AcDbLine
 10
1195.900061513645
 20
1191.2694873525606
 30
0.0
 11
1196.757054705321
 21
1189.289754359636
 31
0.0
  0
LINE
  5
2BA
330
17
100
AcDbEntity
  8
0
100
AcDbLine
 10
1196.757054705321
 20
1189.289754359636
 30
0.0
 11
1197.6500629071954
 21
1187.3260037631399
 31
0.0
  0
LINE
  5
2BB
330
17
100
AcDbEntity
  8
0
100
AcDbLine
 10
1197.6500629071954
 20
1187.3260037631399
 30
0.0
 11
1198.5787882084826
 21
1185.3788906774143
 31
0.0
  0
LINE
  5
2BC
330
17
100
AcDbEntity
  8
0
100
AcDbLine
 10
1198.5787882084826
 20
1185.3788906774143
 30
0.0
 11
1199.5429207830443
 21
1183.4490646664688
 31
0.0
  0
LINE
  5
2BD
330
17
100
AcDbEntity
  8
0
100
AcDbLine
 10
1199.5429207830443
 20
1183.4490646664688
 30
0.0
 11
1200.542138992746
 21
1181.5371695272806
 31
0.0
  0
LINE
  5
2BE
330
17
100
AcDbEntity
  8
0
100
AcDbLine
 10
1200.542138992746
 20
1181.5371695272806
 30
0.0
 11
1201.5761094947584
 21
1179.6438430750209
 31
0.0
  0
LINE
  5
2BF
330
17
100
AcDbEntity
  8
0
100
AcDbLine
 10
1201.5761094947584
 20
1179.6438430750209
 30
0.0
 11
1202.6444873527598
 21
1177.769716930286
 31
0.0
  0
LINE
  5
2C0
330
17
100
AcDbEntity
  8
0
100
AcDbLine
 10
1202.6444873527598
 20
1177.769716930286
 30
0.0
 11
1203.7469161520116
 21
1175.9154163083708
 31
0.0
  0
LINE
  5
2C1
330
17
100
AcDbEntity
  8
0
100
AcDbLine
 10
1203.7469161520116
 20
1175.9154163083708
 30
0.0
 11
1204.8830281182554
 21
1174.081559810712
 31
0.0
  0
LINE
  5
2C2
330
17
100
AcDbEntity
  8
0
100
AcDbLine
 10
1204.8830281182554
 20
1174.081559810712
 30
0.0
 11
1206.0524442404067
 21
1172.2687592185027
 31
0.0
  0
LINE
  5
2C3
330
17
100
AcDbEntity
  8
0
100
AcDbLine
 10
1206.0524442404067
 20
1172.2687592185027
 30
0.0
 11
1207.2547743969922
 21
1170.4776192886213
 31
0.0
  0
LINE
  5
2C4
330
17
100
AcDbEntity
  8
0
100
AcDbLine
 10
1207.2547743969922
 20
1170.4776192886213
 30
0.0
 11
1208.4896174862988
 21
1168.7087375518613
 31
0.0
  0
LINE
  5
2C5
330
17
100
AcDbEntity
  8
0
100
AcDbLine
 10
1208.4896174862988
 20
1168.7087375518613
 30
0.0
 11
1209.7565615601798
 21
1166.9627041136032
 31
0.0
  0
LINE
  5
2C6
330
17
100
AcDbEntity
  8
0
100
AcDbLine
 10
1209.7565615601798
 20
1166.9627041136032
 30
0.0
 11
1211.055183961483
 21
1165.240101456958
 31
0.0
  0
LINE
  5
2C7
330
17
100
AcDbEntity
  8
0
100
AcDbLine
 10
1211.055183961483
 20
1165.240101456958
 30
0.0
 11
1212.3850514650521
 21
1163.5415042484337
 31
0.0
  0
LINE
  5
2C8
330
17
100
AcDbEntity
  8
0
100
AcDbLine
 10
1212.3850514650521
 20
1163.5415042484337
 30
0.0
 11
1213.7457204222494
 21
1161.8674791462397
 31
0.0
  0
LINE
  5
2C9
330
17
100
AcDbEntity
  8
0
100
AcDbLine
 10
1213.7457204222494
 20
1161.8674791462397
 30
0.0
 11
1215.1367369089612
 21
1160.2185846112422
 31
0.0
  0
LINE
  5
2CA
330
17
100
AcDbEntity
  8
0
100
AcDbLine
 10
1215.1367369089612
 20
1160.2185846112422
 30
0.0
 11
1216.5576368770276
 21
1158.5953707206515
 31
0.0
  0
LINE
  5
2CB
330
17
100
AcDbEntity
  8
0
100
AcDbLine
 10
1216.5576368770276
 20
1158.5953707206515
 30
0.0
 11
1218.00794630905
 21
1156.9983789845307
 31
0.0
  0
LINE
  5
2CC
330
17
100
AcDbEntity
  8
0
100
AcDbLine
 10
1218.00794630905
 20
1156.9983789845307
 30
0.0
 11
1219.4871813765267
 21
1155.4281421651299
 31
0.0
  0
LINE
  5
2CD
330
17
100
AcDbEntity
  8
0
100
AcDbLine
 10
1219.4871813765267
 20
1155.4281421651299
 30
0.0
 11
1220.9948486012574
 21
1153.8851840991654
 31
0.0
  0
LINE
  5
2CE
330
17
100
AcDbEntity
  8
0
100
AcDbLine
 10
1220.9948486012574
 20
1153.8851840991654
 30
0.0
 11
1222.530445019972
 21
1152.3700195230601
 31
0.0
  0
LINE
  5
2CF
330
17
100
AcDbEntity
  8
0
100
AcDbLine
 10
1222.530445019972
 20
1152.3700195230601
 30
0.0
 11
1224.093458352119
 21
1150.883153901229
 31
0.0
  0
LINE
  5
2D0
330
17
100
AcDbEntity
  8
0
100
AcDbLine
 10
1224.093458352119
 20
1150.883153901229
 30
0.0
 11
1225.6833671707645
 21
1149.4250832574508
 31
0.0
  0
LINE
  5
2D1
330
17
100
AcDbEntity
  8
0
100
AcDbLine
 10
472.7342347958046
 20
736.3081999852632
 30
0.0
 11
474.2604382099867
 21
734.9602439767141
 31
0.0
  0
LINE
  5
2D2
330
17
100
AcDbEntity
  8
0
100
AcDbLine
 10
474.2604382099867
 20
734.9602439767141
 30
0.0
 11
475.8121815464703
 21
733.6417695248855
 31
0.0
  0
LINE
  5
2D3
330
17
100
AcDbEntity
  8
0
100
AcDbLine
 10
475.8121815464703
 20
733.6417695248855
 30
0.0
 11
477.38889540368814
 21
732.3532604349297
 31
0.0
  0
LINE
  5
2D4
330
17
100
AcDbEntity
  8
0
100
AcDbLine
 10
477.38889540368814
 20
732.3532604349297
 30
0.0
 11
478.9900012173125
 21
731.0951895164108
 31
0.0
  0
LINE
  5
2D5
330
17
100
AcDbEntity
  8
0
100
AcDbLine
 10
478.9900012173125
 20
731.0951895164108
 30
0.0
 11
480.6149114725541
 21
729.8680184098178
 31
0.0
  0
LINE
  5
2D6
330
17
100
AcDbEntity
  8
0
100
AcDbLine
 10
480.6149114725541
 20
729.8680184098178
 30
0.0
 11
482.2630299197481
 21
728.6721974171685
 31
0.0
  0
LINE
  5
2D7
330
17
100
AcDbEntity
  8
0
100
AcDbLine
 10
482.2630299197481
 20
728.6721974171685
 30
0.0
 11
483.9337517931417
 21
727.5081653367645
 31
0.0
  0
LINE
  5
2D8
330
17
100
AcDbEntity
  8
0
100
AcDbLine
 10
483.9337517931417
 20
727.5081653367645
 30
0.0
 11
485.6264640328108
 21
726.3763493021911
 31
0.0
  0
LINE
  5
2D9
330
17
100
AcDbEntity
  8
0
100
AcDbLine
 10
485.6264640328108
 20
726.3763493021911
 30
0.0
 11
487.3405455096174
 21
725.2771646255726
 31
0.0
  0
LINE
  5
2DA
330
17
100
AcDbEntity
  8
0
100
AcDbLine
 10
487.3405455096174
 20
725.2771646255726
 30
0.0
 11
489.075367253128
 21
724.2110146451816
 31
0.0
  0
LINE
  5
2DB
330
17
100
AcDbEntity
  8
0
100
AcDbLine
 10
489.075367253128
 20
724.2110146451816
 30
0.0
 11
490.830292682411
 21
723.1782905774367
 31
0.0
  0
LINE
  5
2DC
330
17
100
AcDbEntity
  8
0
100
AcDbLine
 10
490.830292682411
 20
723.1782905774367
 30
0.0
 11
492.6046778396253
 21
722.1793713733464
 31
0.0
  0
LINE
  5
2DD
330
17
100
AcDbEntity
  8
0
100
AcDbLine
 10
492.6046778396253
 20
722.1793713733464
 30
0.0
 11
494.397871626316
 21
721.2146235794554
 31
0.0
  0
LINE
  5
2DE
330
17
100
AcDbEntity
  8
0
100
AcDbLine
 10
494.397871626316
 20
721.2146235794554
 30
0.0
 11
496.20921604233104
 21
720.2844012033443
 31
0.0
  0
LINE
  5
2DF
330
17
100
AcDbEntity
  8
0
100
AcDbLine
 10
496.20921604233104
 20
720.2844012033443
 30
0.0
 11
498.03804642726885
 21
719.3890455837321
 31
0.0
  0
LINE
  5
2E0
330
17
100
AcDbEntity
  8
0
100
AcDbLine
 10
498.03804642726885
 20
719.3890455837321
 30
0.0
 11
499.88369170437244
 21
718.5288852652166
 31
0.0
  0
LINE
  5
2E1
330
17
100
AcDbEntity
  8
0
100
AcDbLine
 10
499.88369170437244
 20
718.5288852652166
 30
0.0
 11
501.74547462677504
 21
717.7042358777225
 31
0.0
  0
LINE
  5
2E2
330
17
100
AcDbEntity
  8
0
100
AcDbLine
 10
501.74547462677504
 20
717.7042358777225
 30
0.0
 11
503.6227120260118
 21
716.9154000206822
 31
0.0
  0
LINE
  5
2E3
330
17
100
AcDbEntity
  8
0
100
AcDbLine
 10
503.6227120260118
 20
716.9154000206822
 30
0.0
 11
505.5147150627035
 21
716.1626671520007
 31
0.0
  0
LINE
  5
2E4
330
17
100
AcDbEntity
  8
0
100
AcDbLine
 10
505.5147150627035
 20
716.1626671520007
 30
0.0
 11
507.42078947932157
 21
715.4463134818367
 31
0.0
  0
LINE
  5
2E5
330
17
100
AcDbEntity
  8
0
100
AcDbLine
 10
507.42078947932157
 20
715.4463134818367
 30
0.0
 11
509.3402358549419
 21
714.7666018712525
 31
0.0
  0
LINE
  5
2E6
330
17
100
AcDbEntity
  8
0
100
AcDbLine
 10
509.3402358549419
 20
714.7666018712525
 30
0.0
 11
511.2723498618907
 21
714.1237817357595
 31
0.0
  0
LINE
  5
2E7
330
17
100
AcDbEntity
  8
0
100
AcDbLine
 10
511.2723498618907
 20
714.1237817357595
 30
0.0
 11
513.2164225241949
 21
713.518088953794
 31
0.0
  0
LINE
  5
2E8
330
17
100
AcDbEntity
  8
0
100
AcDbLine
 10
513.2164225241949
 20
713.518088953794
 30
0.0
 11
515.1717404777337
 21
712.9497457801634
 31
0.0
  0
LINE
  5
2E9
330
17
100
AcDbEntity
  8
0
100
AcDbLine
 10
515.1717404777337
 20
712.9497457801634
 30
0.0
 11
517.1375862320056
 21
712.4189607644955
 31
0.0
  0
LINE
  5
2EA
330
17
100
AcDbEntity
  8
0
100
AcDbLine
 10
517.1375862320056
 20
712.4189607644955
 30
0.0
 11
519.1132384334028
 21
711.9259286747102
 31
0.0
  0
LINE
  5
2EB
330
17
100
AcDbEntity
  8
0
100
AcDbLine
 10
519.1132384334028
 20
711.9259286747102
 30
0.0
 11
521.0979721299101
 21
711.470830425546
 31
0.0
  0
LINE
  5
2EC
330
17
100
AcDbEntity
  8
0
100
AcDbLine
 10
521.0979721299101
 20
711.470830425546
 30
0.0
 11
523.0910590371207
 21
711.0538330121856
 31
0.0
  0
LINE
  5
2ED
330
17
100
AcDbEntity
  8
0
100
AcDbLine
 10
523.0910590371207
 20
711.0538330121856
 30
0.0
 11
525.0917678054731
 21
710.675089448964
 31
0.0
  0
LINE
  5
2EE
330
17
100
AcDbEntity
  8
0
100
AcDbLine
 10
525.0917678054731
 20
710.675089448964
 30
0.0
 11
527.099364288617
 21
710.334738713234
 31
0.0
  0
LINE
  5
2EF
330
17
100
AcDbEntity
  8
0
100
AcDbLine
 10
527.099364288617
 20
710.334738713234
 30
0.0
 11
529.1131118128026
 21
710.0329056943613
 31
0.0
  0
LINE
  5
2F0
330
17
100
AcDbEntity
  8
0
100
AcDbLine
 10
529.1131118128026
 20
710.0329056943613
 30
0.0
 11
531.1322714471968
 21
709.769701147902
 31
0.0
  0
LINE
  5
2F1
330
17
100
AcDbEntity
  8
0
100
AcDbLine
 10
531.1322714471968
 20
709.769701147902
 30
0.0
 11
533.1561022750308
 21
709.5452216549565
 31
0.0
  0
LINE
  5
2F2
330
17
100
AcDbEntity
  8
0
100
AcDbLine
 10
533.1561022750308
 20
709.5452216549565
 30
0.0
 11
535.1838616654729
 21
709.3595495867331
 31
0.0
  0
LINE
  5
2F3
330
17
100
AcDbEntity
  8
0
100
AcDbLine
 10
535.1838616654729
 20
709.3595495867331
 30
0.0
 11
537.2148055461325
 21
709.2127530743259
 31
0.0
  0
LINE
  5
2F4
330
17
100
AcDbEntity
  8
0
100
AcDbLine
 10
537.2148055461325
 20
709.2127530743259
 30
0.0
 11
539.2481886760925
 21
709.1048859837052
 31
0.0
  0
LINE
  5
2F5
330
17
100
AcDbEntity
  8
0
100
AcDbLine
 10
539.2481886760925
 20
709.1048859837052
 30
0.0
 11
541.283264919369
 21
709.0359878959611
 31
0.0
  0
LINE
  5
2F6
330
17
100
AcDbEntity
  8
0
100
AcDbLine
 10
541.283264919369
 20
709.0359878959611
 30
0.0
 11
543.3192875187032
 21
709.0060840927708
 31
0.0
  0
LINE
  5
2F7
330
17
100
AcDbEntity
  8
0
100
AcDbLine
 10
543.3192875187032
 20
709.0060840927708
 30
0.0
 11
545.3555093695762
 21
709.0151855471338
 31
0.0
  0
LINE
  5
2F8
330
17
100
AcDbEntity
  8
0
100
AcDbLine
 10
545.3555093695762
 20
709.0151855471338
 30
0.0
 11
547.3911832943555
 21
709.0632889193323
 31
0.0
  0
LINE
  5
2F9
330
17
100
AcDbEntity
  8
0
100
AcDbLine
 10
547.3911832943555
 20
709.0632889193323
 30
0.0
 11
549.4255623164671
 21
709.1503765581622
 31
0.0
  0
LINE
  5
2FA
330
17
100
AcDbEntity
  8
0
100
AcDbLine
 10
549.425562316467
 20
709.1503765581633
 30
0.0
 11
548.0544102648963
 21
709.0585034852479
 31
0.0
  0
LINE
  5
2FB
330
17
100
AcDbEntity
  8
0
100
AcDbLine
 10
548.0544102648963
 20
709.0585034852479
 30
0.0
 11
546.6865103815742
 21
708.9267897074526
 31
0.0
  0
LINE
  5
2FC
330
17
100
AcDbEntity
  8
0
100
AcDbLine
 10
546.6865103815742
 20
708.9267897074526
 30
0.0
 11
545.323020046367
 21
708.7553466677865
 31
0.0
  0
LINE
  5
2FD
330
17
100
AcDbEntity
  8
0
100
AcDbLine
 10
545.323020046367
 20
708.7553466677865
 30
0.0
 11
543.9650929082228
 21
708.5443194241755
 31
0.0
  0
LINE
  5
2FE
330
17
100
AcDbEntity
  8
0
100
AcDbLine
 10
543.9650929082228
 20
708.5443194241755
 30
0.0
 11
542.6138779090709
 21
708.2938865267352
 31
0.0
  0
LINE
  5
2FF
330
17
100
AcDbEntity
  8
0
100
AcDbLine
 10
542.6138779090709
 20
708.2938865267352
 30
0.0
 11
541.2705183116989
 21
708.0042598667004
 31
0.0
  0
LINE
  5
300
330
17
100
AcDbEntity
  8
0
100
AcDbLine
 10
541.2705183116989
 20
708.0042598667004
 30
0.0
 11
539.9361507324422
 21
707.6756844971387
 31
0.0
  0
LINE
  5
301
330
17
100
AcDbEntity
  8
0
100
AcDbLine
 10
539.9361507324422
 20
707.6756844971387
 30
0.0
 11
538.6119041794897
 21
707.3084384256185
 31
0.0
  0
LINE
  5
302
330
17
100
AcDbEntity
  8
0
100
AcDbLine
 10
538.6119041794897
 20
707.3084384256185
 30
0.0
 11
537.2988990976321
 21
706.9028323789796
 31
0.0
  0
LINE
  5
303
330
17
100
AcDbEntity
  8
0
100
AcDbLine
 10
537.2988990976321
 20
706.9028323789796
 30
0.0
 11
535.9982464202536
 21
706.4592095404314
 31
0.0
  0
LINE
  5
304
330
17
100
AcDbEntity
  8
0
100
AcDbLine
 10
535.9982464202536
 20
706.4592095404314
 30
0.0
 11
534.7110466293705
 21
705.9779452591845
 31
0.0
  0
LINE
  5
305
330
17
100
AcDbEntity
  8
0
100
AcDbLine
 10
534.7110466293705
 20
705.9779452591845
 30
0.0
 11
533.4383888245145
 21
705.459446732868
 31
0.0
  0
LINE
  5
306
330
17
100
AcDbEntity
  8
0
100
AcDbLine
 10
533.4383888245145
 20
705.459446732868
 30
0.0
 11
532.1813498012446
 21
704.9041526629989
 31
0.0
  0
LINE
  5
307
330
17
100
AcDbEntity
  8
0
100
AcDbLine
 10
532.1813498012446
 20
704.9041526629989
 30
0.0
 11
530.9409931400721
 21
704.3125328838003
 31
0.0
  0
LINE
  5
308
330
17
100
AcDbEntity
  8
0
100
AcDbLine
 10
530.9409931400721
 20
704.3125328838003
 30
0.0
 11
529.718368306564
 21
703.6850879646694
 31
0.0
  0
LINE
  5
309
330
17
100
AcDbEntity
  8
0
100
AcDbLine
 10
529.718368306564
 20
703.6850879646694
 30
0.0
 11
528.5145097633911
 21
703.0223487866486
 31
0.0
  0
LINE
  5
30A
330
17
100
AcDbEntity
  8
0
100
AcDbLine
 10
528.5145097633911
 20
703.0223487866486
 30
0.0
 11
527.3304360950684
 21
702.3248760932486
 31
0.0
  0
LINE
  5
30B
330
17
100
AcDbEntity
  8
0
100
AcDbLine
 10
527.3304360950684
 20
702.3248760932486
 30
0.0
 11
526.1671491461324
 21
701.5932600160005
 31
0.0
  0
LINE
  5
30C
330
17
100
AcDbEntity
  8
0
100
AcDbLine
 10
526.1671491461324
 20
701.5932600160005
 30
0.0
 11
525.0256331734792
 21
700.8281195751441
 31
0.0
  0
LINE
  5
30D
330
17
100
AcDbEntity
  8
0
100
AcDbLine
 10
525.0256331734792
 20
700.8281195751441
 30
0.0
 11
523.9068540135856
 21
700.0301021558862
 31
0.0
  0
LINE
  5
30E
330
17
100
AcDbEntity
  8
0
100
AcDbLine
 10
523.9068540135856
 20
700.0301021558862
 30
0.0
 11
522.8117582653151
 21
699.1998829606275
 31
0.0
  0
LINE
  5
30F
330
17
100
AcDbEntity
  8
0
100
AcDbLine
 10
522.8117582653151
 20
699.1998829606275
 30
0.0
 11
521.7412724889999
 21
698.3381644376975
 31
0.0
  0
LINE
  5
310
330
17
100
AcDbEntity
  8
0
100
AcDbLine
 10
521.7412724889999
 20
698.3381644376975
 30
0.0
 11
520.6963024224797
 21
697.4456756869956
 31
0.0
  0
LINE
  5
311
330
17
100
AcDbEntity
  8
0
100
AcDbLine
 10
520.6963024224797
 20
697.4456756869956
 30
0.0
 11
519.6777322147558
 21
696.5231718431062
 31
0.0
  0
LINE
  5
312
330
17
100
AcDbEntity
  8
0
100
AcDbLine
 10
519.6777322147558
 20
696.5231718431062
 30
0.0
 11
518.6864236779134
 21
695.571433436379
 31
0.0
  0
LINE
  5
313
330
17
100
AcDbEntity
  8
0
100
AcDbLine
 10
518.6864236779134
 20
695.571433436379
 30
0.0
 11
517.7232155579426
 21
694.5912657325273
 31
0.0
  0
LINE
  5
314
330
17
100
AcDbEntity
  8
0
100
AcDbLine
 10
517.7232155579426
 20
694.5912657325273
 30
0.0
 11
516.7889228250756
 21
693.5834980512806
 31
0.0
  0
ENDSEC
  0
SECTION
  2
OBJECTS
  0
DICTIONARY
  5
A
330
0
100
AcDbDictionary
281
1
  3
ACAD_COLOR
350
B
  3
ACAD_GROUP
350
C
  3
ACAD_LAYOUT
350
D
  3
ACAD_MATERIAL
350
E
  3
ACAD_MLEADERSTYLE
350
F
  3
ACAD_MLINESTYLE
350
10
  3
ACAD_PLOTSETTINGS
350
11
  3
ACAD_PLOTSTYLENAME
350
12
  3
ACAD_SCALELIST
350
14
  3
ACAD_TABLESTYLE
350
15
  3
ACAD_VISUALSTYLE
350
16
  3
EZDXF_META
350
2D
  0
DICTIONARY
  5
B
330
A
100
AcDbDictionary
281
1
  0
DICTIONARY
  5
C
330
A
100
AcDbDictionary
281
1
  0
DICTIONARY
  5
D
330
A
100
AcDbDictionary
281
1
  3
Model
350
1A
  3
Layout1
350
1E
  0
DICTIONARY
  5
E
330
A
100
AcDbDictionary
281
1
  3
ByBlock
350
1F
  3
ByLayer
350
20
  3
Global
350
21
  0
DICTIONARY
  5
F
330
A
100
AcDbDictionary
281
1
  3
Standard
350
2C
  0
DICTIONARY
  5
10
330
A
100
AcDbDictionary
281
1
  3
Standard
350
22
  0
DICTIONARY
  5
11
330
A
100
AcDbDictionary
281
1
  0
ACDBDICTIONARYWDFLT
  5
12
330
A
100
AcDbDictionary
281
1
  3
Normal
350
13
100
AcDbDictionaryWithDefault
340
13
  0
ACDBPLACEHOLDER
  5
13
330
12
  0
DICTIONARY
  5
14
330
A
100
AcDbDictionary
281
1
  0
DICTIONARY
  5
15
330
A
100
AcDbDictionary
281
1
  0
DICTIONARY
  5
16
330
A
100
AcDbDictionary
281
1
  0
LAYOUT
  5
1A
330
D
100
AcDbPlotSettings
  1

  4
A3
  6

 40
7.5
 41
20.0
 42
7.5
 43
20.0
 44
420.0
 45
297.0
 46
0.0
 47
0.0
 48
0.0
 49
0.0
140
0.0
141
0.0
142
1.0
143
1.0
 70
1024
 72
1
 73
0
 74
5
  7

 75
16
 76
0
 77
2
 78
300
147
1.0
148
0.0
149
0.0
100
AcDbLayout
  1
Model
 70
1
 71
0
 10
0.0
 20
0.0
 11
420.0
 21
297.0
 12
0.0
 22
0.0
 32
0.0
 14
1e+20
 24
1e+20
 34
1e+20
 15
-1e+20
 25
-1e+20
 35
-1e+20
146
0.0
 13
0.0
 23
0.0
 33
0.0
 16
1.0
 26
0.0
 36
0.0
 17
0.0
 27
1.0
 37
0.0
 76
1
330
17
  0
LAYOUT
  5
1E
330
D
100
AcDbPlotSettings
  1

  4
A3
  6

 40
7.5
 41
20.0
 42
7.5
 43
20.0
 44
420.0
 45
297.0
 46
0.0
 47
0.0
 48
0.0
 49
0.0
140
0.0
141
0.0
142
1.0
143
1.0
 70
0
 72
1
 73
0
 74
5
  7

 75
16
 76
0
 77
2
 78
300
147
1.0
148
0.0
149
0.0
100
AcDbLayout
  1
Layout1
 70
1
 71
1
 10
0.0
 20
0.0
 11
420.0
 21
297.0
 12
0.0
 22
0.0
 32
0.0
 14
1e+20
 24
1e+20
 34
1e+20
 15
-1e+20
 25
-1e+20
 35
-1e+20
146
0.0
 13
0.0
 23
0.0
 33
0.0
 16
1.0
 26
0.0
 36
0.0
 17
0.0
 27
1.0
 37
0.0
 76
1
330
1B
  0
MATERIAL
  5
1F
102
{ACAD_REACTORS
330
E
102
}
330
E
100
AcDbMaterial
  1
ByBlock
  2

 70
0
 40
1.0
 71
1
 41
1.0
 91
-1023410177
 42
1.0
 72
1
  3

 73
1
 74
1
 75
1
 44
0.5
 73
0
 45
1.0
 46
1.0
 77
1
  4

 78
1
 79
1
170
1
 48
1.0
171
1
  6

172
1
173
1
174
1
140
1.0
141
1.0
175
1
  7

176
1
177
1
178
1
143
1.0
179
1
  8

270
1
271
1
272
1
145
1.0
146
1.0
273
1
  9

274
1
275
1
276
1
 42
1.0
 72
1
  3

 73
1
 74
1
 75
1
 94
63
  0
MATERIAL
  5
20
102
{ACAD_REACTORS
330
E
102
}
330
E
100
AcDbMaterial
  1
ByLayer
  2

 70
0
 40
1.0
 71
1
 41
1.0
 91
-1023410177
 42
1.0
 72
1
  3

 73
1
 74
1
 75
1
 44
0.5
 73
0
 45
1.0
 46
1.0
 77
1
  4

 78
1
 79
1
170
1
 48
1.0
171
1
  6

172
1
173
1
174
1
140
1.0
141
1.0
175
1
  7

176
1
177
1
178
1
143
1.0
179
1
  8

270
1
271
1
272
1
145
1.0
146
1.0
273
1
  9

274
1
275
1
276
1
 42
1.0
 72
1
  3

 73
1
 74
1
 75
1
 94
63
  0
MATERIAL
  5
21
102
{ACAD_REACTORS
330
E
102
}
330
E
100
AcDbMaterial
  1
Global
  2

 70
0
 40
1.0
 71
1
 41
1.0
 91
-1023410177
 42
1.0
 72
1
  3

 73
1
 74
1
 75
1
 44
0.5
 73
0
 45
1.0
 46
1.0
 77
1
  4

 78
1
 79
1
170
1
 48
1.0
171
1
  6

172
1
173
1
174
1
140
1.0
141
1.0
175
1
  7

176
1
177
1
178
1
143
1.0
179
1
  8

270
1
271
1
272
1
145
1.0
146
1.0
273
1
  9

274
1
275
1
276
1
 42
1.0
 72
1
  3

 73
1
 74
1
 75
1
 94
63
  0
MLINESTYLE
  5
22
102
{ACAD_REACTORS
330
10
102
}
330
10
100
AcDbMlineStyle
  2
Standard
 70
0
  3

 62
256
 51
90.0
 52
90.0
 71
2
 49
0.5
 62
256
  6
BYLAYER
 49
-0.5
 62
256
  6
BYLAYER
  0
MLEADERSTYLE
  5
2C
102
{ACAD_REACTORS
330
F
102
}
330
F
100
AcDbMLeaderStyle
179
2
170
2
171
1
172
0
 90
2
 40
0.0
 41
0.0
173
1
 91
-1056964608
 92
-2
290
1
 42
2.0
291
1
 43
8.0
  3
Standard
 44
4.0
300

342
29
174
1
175
1
176
0
178
1
 93
-1056964608
 45
4.0
292
0
297
0
 46
4.0
 94
-1056964608
 47
1.0
 49
1.0
140
1.0
294
1
141
0.0
177
0
142
1.0
295
0
296
0
143
3.75
271
0
272
9
273
9
  0
DICTIONARY
  5
2D
330
A
100
AcDbDictionary
280
1
281
1
  3
CREATED_BY_EZDXF
350
2E
  3
WRITTEN_BY_EZDXF
350
317
  0
DICTIONARYVAR
  5
2E
330
2D
100
DictionaryVariables
280
0
  1
1.4.3 @ 2026-04-16T10:53:42.699280+00:00
  0
DICTIONARYVAR
  5
317
330
2D
100
DictionaryVariables
280
0
  1
1.4.3 @ 2026-04-16T10:53:42.710684+00:00
  0
ENDSEC
  0
EOF
