  0
SECTION
  2
HEADER
  9
$ACADVER
  1
AC1024
  9
$ACADMAINTVER
 70
6
  9
$DWGCODEPAGE
  3
ANSI_1252
  9
$LASTSAVEDBY
  1
ezdxf
  9
$INSBASE
 10
0.0
 20
0.0
 30
0.0
  9
$EXTMIN
 10
1e+20
 20
1e+20
 30
1e+20
  9
$EXTMAX
 10
-1e+20
 20
-1e+20
 30
-1e+20
  9
$LIMMIN
 10
0.0
 20
0.0
  9
$LIMMAX
 10
420.0
 20
297.0
  9
$ORTHOMODE
 70
0
  9
$REGENMODE
 70
1
  9
$FILLMODE
 70
1
  9
$QTEXTMODE
 70
0
  9
$MIRRTEXT
 70
1
  9
$LTSCALE
 40
1.0
  9
$ATTMODE
 70
1
  9
$TEXTSIZE
 40
2.5
  9
$TRACEWID
 40
1.0
  9
$TEXTSTYLE
  7
Standard
  9
$CLAYER
  8
0
  9
$CELTYPE
  6
ByLayer
  9
$CECOLOR
 62
256
  9
$CELTSCALE
 40
1.0
  9
$DISPSILH
 70
0
  9
$DIMSCALE
 40
1.0
  9
$DIMASZ
 40
2.5
  9
$DIMEXO
 40
0.625
  9
$DIMDLI
 40
3.75
  9
$DIMRND
 40
0.0
  9
$DIMDLE
 40
0.0
  9
$DIMEXE
 40
1.25
  9
$DIMTP
 40
0.0
  9
$DIMTM
 40
0.0
  9
$DIMTXT
 40
2.5
  9
$DIMCEN
 40
2.5
  9
$DIMTSZ
 40
0.0
  9
$DIMTOL
 70
0
  9
$DIMLIM
 70
0
  9
$DIMTIH
 70
0
  9
$DIMTOH
 70
0
  9
$DIMSE1
 70
0
  9
$DIMSE2
 70
0
  9
$DIMTAD
 70
1
  9
$DIMZIN
 70
8
  9
$DIMBLK
  1

  9
$DIMASO
 70
1
  9
$DIMSHO
 70
1
  9
$DIMPOST
  1

  9
$DIMAPOST
  1

  9
$DIMALT
 70
0
  9
$DIMALTD
 70
3
  9
$DIMALTF
 40
0.03937007874
  9
$DIMLFAC
 40
1.0
  9
$DIMTOFL
 70
1
  9
$DIMTVP
 40
0.0
  9
$DIMTIX
 70
0
  9
$DIMSOXD
 70
0
  9
$DIMSAH
 70
0
  9
$DIMBLK1
  1

  9
$DIMBLK2
  1

  9
$DIMSTYLE
  2
ISO-25
  9
$DIMCLRD
 70
0
  9
$DIMCLRE
 70
0
  9
$DIMCLRT
 70
0
  9
$DIMTFAC
 40
1.0
  9
$DIMGAP
 40
0.625
  9
$DIMJUST
 70
0
  9
$DIMSD1
 70
0
  9
$DIMSD2
 70
0
  9
$DIMTOLJ
 70
0
  9
$DIMTZIN
 70
8
  9
$DIMALTZ
 70
0
  9
$DIMALTTZ
 70
0
  9
$DIMUPT
 70
0
  9
$DIMDEC
 70
2
  9
$DIMTDEC
 70
2
  9
$DIMALTU
 70
2
  9
$DIMALTTD
 70
3
  9
$DIMTXSTY
  7
Standard
  9
$DIMAUNIT
 70
0
  9
$DIMADEC
 70
0
  9
$DIMALTRND
 40
0.0
  9
$DIMAZIN
 70
0
  9
$DIMDSEP
 70
44
  9
$DIMATFIT
 70
3
  9
$DIMFRAC
 70
0
  9
$DIMLDRBLK
  1

  9
$DIMLUNIT
 70
2
  9
$DIMLWD
 70
-2
  9
$DIMLWE
 70
-2
  9
$DIMTMOVE
 70
0
  9
$DIMFXL
 40
1.0
  9
$DIMFXLON
 70
0
  9
$DIMJOGANG
 40
0.785398163397
  9
$DIMTFILL
 70
0
  9
$DIMTFILLCLR
 70
0
  9
$DIMARCSYM
 70
0
  9
$DIMLTYPE
  6

  9
$DIMLTEX1
  6

  9
$DIMLTEX2
  6

  9
$DIMTXTDIRECTION
 70
0
  9
$LUNITS
 70
2
  9
$LUPREC
 70
4
  9
$SKETCHINC
 40
1.0
  9
$FILLETRAD
 40
10.0
  9
$AUNITS
 70
0
  9
$AUPREC
 70
2
  9
$MENU
  1
.
  9
$ELEVATION
 40
0.0
  9
$PELEVATION
 40
0.0
  9
$THICKNESS
 40
0.0
  9
$LIMCHECK
 70
0
  9
$CHAMFERA
 40
0.0
  9
$CHAMFERB
 40
0.0
  9
$CHAMFERC
 40
0.0
  9
$CHAMFERD
 40
0.0
  9
$SKPOLY
 70
0
  9
$TDCREATE
 40
2461147.484710648
  9
$TDUCREATE
 40
2458532.153996898
  9
$TDUPDATE
 40
2461147.484710648
  9
$TDUUPDATE
 40
2458532.1544311
  9
$TDINDWG
 40
0.0
  9
$TDUSRTIMER
 40
0.0
  9
$USRTIMER
 70
1
  9
$ANGBASE
 50
0.0
  9
$ANGDIR
 70
0
  9
$PDMODE
 70
0
  9
$PDSIZE
 40
0.0
  9
$PLINEWID
 40
0.0
  9
$SPLFRAME
 70
0
  9
$SPLINETYPE
 70
6
  9
$SPLINESEGS
 70
8
  9
$HANDSEED
  5
1F2
  9
$SURFTAB1
 70
6
  9
$SURFTAB2
 70
6
  9
$SURFTYPE
 70
6
  9
$SURFU
 70
6
  9
$SURFV
 70
6
  9
$UCSBASE
  2

  9
$UCSNAME
  2

  9
$UCSORG
 10
0.0
 20
0.0
 30
0.0
  9
$UCSXDIR
 10
1.0
 20
0.0
 30
0.0
  9
$UCSYDIR
 10
0.0
 20
1.0
 30
0.0
  9
$UCSORTHOREF
  2

  9
$UCSORTHOVIEW
 70
0
  9
$UCSORGTOP
 10
0.0
 20
0.0
 30
0.0
  9
$UCSORGBOTTOM
 10
0.0
 20
0.0
 30
0.0
  9
$UCSORGLEFT
 10
0.0
 20
0.0
 30
0.0
  9
$UCSORGRIGHT
 10
0.0
 20
0.0
 30
0.0
  9
$UCSORGFRONT
 10
0.0
 20
0.0
 30
0.0
  9
$UCSORGBACK
 10
0.0
 20
0.0
 30
0.0
  9
$PUCSBASE
  2

  9
$PUCSNAME
  2

  9
$PUCSORG
 10
0.0
 20
0.0
 30
0.0
  9
$PUCSXDIR
 10
1.0
 20
0.0
 30
0.0
  9
$PUCSYDIR
 10
0.0
 20
1.0
 30
0.0
  9
$PUCSORTHOREF
  2

  9
$PUCSORTHOVIEW
 70
0
  9
$PUCSORGTOP
 10
0.0
 20
0.0
 30
0.0
  9
$PUCSORGBOTTOM
 10
0.0
 20
0.0
 30
0.0
  9
$PUCSORGLEFT
 10
0.0
 20
0.0
 30
0.0
  9
$PUCSORGRIGHT
 10
0.0
 20
0.0
 30
0.0
  9
$PUCSORGFRONT
 10
0.0
 20
0.0
 30
0.0
  9
$PUCSORGBACK
 10
0.0
 20
0.0
 30
0.0
  9
$USERI1
 70
0
  9
$USERI2
 70
0
  9
$USERI3
 70
0
  9
$USERI4
 70
0
  9
$USERI5
 70
0
  9
$USERR1
 40
0.0
  9
$USERR2
 40
0.0
  9
$USERR3
 40
0.0
  9
$USERR4
 40
0.0
  9
$USERR5
 40
0.0
  9
$WORLDVIEW
 70
1
  9
$SHADEDGE
 70
3
  9
$SHADEDIF
 70
70
  9
$TILEMODE
 70
1
  9
$MAXACTVP
 70
64
  9
$PINSBASE
 10
0.0
 20
0.0
 30
0.0
  9
$PLIMCHECK
 70
0
  9
$PEXTMIN
 10
1e+20
 20
1e+20
 30
1e+20
  9
$PEXTMAX
 10
-1e+20
 20
-1e+20
 30
-1e+20
  9
$PLIMMIN
 10
0.0
 20
0.0
  9
$PLIMMAX
 10
420.0
 20
297.0
  9
$UNITMODE
 70
0
  9
$VISRETAIN
 70
1
  9
$PLINEGEN
 70
0
  9
$PSLTSCALE
 70
1
  9
$TREEDEPTH
 70
3020
  9
$CMLSTYLE
  2
Standard
  9
$CMLJUST
 70
0
  9
$CMLSCALE
 40
20.0
  9
$PROXYGRAPHICS
 70
1
  9
$MEASUREMENT
 70
1
  9
$CELWEIGHT
370
-1
  9
$ENDCAPS
280
0
  9
$JOINSTYLE
280
0
  9
$LWDISPLAY
290
0
  9
$INSUNITS
 70
0
  9
$HYPERLINKBASE
  1

  9
$STYLESHEET
  1

  9
$XEDIT
290
1
  9
$CEPSNTYPE
380
0
  9
$PSTYLEMODE
290
1
  9
$FINGERPRINTGUID
  2
{DAA6B28A-4AA8-4A1C-BD22-5F03AF723427}
  9
$VERSIONGUID
  2
{B2353B89-92CF-463F-A420-D82CB22000F8}
  9
$EXTNAMES
290
1
  9
$PSVPSCALE
 40
0.0
  9
$OLESTARTUP
290
0
  9
$SORTENTS
280
127
  9
$INDEXCTL
280
0
  9
$HIDETEXT
280
1
  9
$XCLIPFRAME
280
1
  9
$HALOGAP
280
0
  9
$OBSCOLOR
 70
257
  9
$OBSLTYPE
280
0
  9
$INTERSECTIONDISPLAY
280
0
  9
$INTERSECTIONCOLOR
 70
257
  9
$DIMASSOC
280
2
  9
$PROJECTNAME
  1

  9
$CAMERADISPLAY
290
0
  9
$LENSLENGTH
 40
50.0
  9
$CAMERAHEIGHT
 40
0.0
  9
$STEPSPERSEC
 40
24.0
  9
$STEPSIZE
 40
100.0
  9
$3DDWFPREC
 40
2.0
  9
$PSOLWIDTH
 40
0.005
  9
$PSOLHEIGHT
 40
0.08
  9
$LOFTANG1
 40
1.570796326795
  9
$LOFTANG2
 40
1.570796326795
  9
$LOFTMAG1
 40
0.0
  9
$LOFTMAG2
 40
0.0
  9
$LOFTPARAM
 70
7
  9
$LOFTNORMALS
280
1
  9
$LATITUDE
 40
37.795
  9
$LONGITUDE
 40
-122.394
  9
$NORTHDIRECTION
 40
0.0
  9
$TIMEZONE
 70
-8000
  9
$LIGHTGLYPHDISPLAY
280
1
  9
$TILEMODELIGHTSYNCH
280
1
  9
$CMATERIAL
347
20
  9
$SOLIDHIST
280
0
  9
$SHOWHIST
280
1
  9
$DWFFRAME
280
2
  9
$DGNFRAME
280
2
  9
$REALWORLDSCALE
290
1
  9
$INTERFERECOLOR
 62
256
  9
$CSHADOW
280
0
  9
$SHADOWPLANELOCATION
 40
0.0
  0
ENDSEC
  0
SECTION
  2
CLASSES
  0
CLASS
  1
ACDBDICTIONARYWDFLT
  2
AcDbDictionaryWithDefault
  3
ObjectDBX Classes
 90
0
 91
0
280
0
281
0
  0
CLASS
  1
SUN
  2
AcDbSun
  3
SCENEOE
 90
1153
 91
0
280
0
281
0
  0
CLASS
  1
VISUALSTYLE
  2
AcDbVisualStyle
  3
ObjectDBX Classes
 90
4095
 91
0
280
0
281
0
  0
CLASS
  1
MATERIAL
  2
AcDbMaterial
  3
ObjectDBX Classes
 90
1153
 91
0
280
0
281
0
  0
CLASS
  1
SCALE
  2
AcDbScale
  3
ObjectDBX Classes
 90
1153
 91
0
280
0
281
0
  0
CLASS
  1
TABLESTYLE
  2
AcDbTableStyle
  3
ObjectDBX Classes
 90
4095
 91
0
280
0
281
0
  0
CLASS
  1
MLEADERSTYLE
  2
AcDbMLeaderStyle
  3
ACDB_MLEADERSTYLE_CLASS
 90
4095
 91
0
280
0
281
0
  0
CLASS
  1
DICTIONARYVAR
  2
AcDbDictionaryVar
  3
ObjectDBX Classes
 90
0
 91
0
280
0
281
0
  0
CLASS
  1
CELLSTYLEMAP
  2
AcDbCellStyleMap
  3
ObjectDBX Classes
 90
1152
 91
0
280
0
281
0
  0
CLASS
  1
MENTALRAYRENDERSETTINGS
  2
AcDbMentalRayRenderSettings
  3
SCENEOE
 90
1024
 91
0
280
0
281
0
  0
CLASS
  1
ACDBDETAILVIEWSTYLE
  2
AcDbDetailViewStyle
  3
ObjectDBX Classes
 90
1025
 91
0
280
0
281
0
  0
CLASS
  1
ACDBSECTIONVIEWSTYLE
  2
AcDbSectionViewStyle
  3
ObjectDBX Classes
 90
1025
 91
0
280
0
281
0
  0
CLASS
  1
RASTERVARIABLES
  2
AcDbRasterVariables
  3
ISM
 90
0
 91
0
280
0
281
0
  0
CLASS
  1
ACDBPLACEHOLDER
  2
AcDbPlaceHolder
  3
ObjectDBX Classes
 90
0
 91
0
280
0
281
0
  0
CLASS
  1
LAYOUT
  2
AcDbLayout
  3
ObjectDBX Classes
 90
0
 91
0
280
0
281
0
  0
ENDSEC
  0
SECTION
  2
TABLES
  0
TABLE
  2
VPORT
  5
8
330
0
100
AcDbSymbolTable
 70
1
  0
VPORT
  5
23
330
8
100
AcDbSymbolTableRecord
100
AcDbViewportTableRecord
  2
*Active
 70
0
 10
0.0
 20
0.0
 11
1.0
 21
1.0
 12
0.0
 22
0.0
 13
0.0
 23
0.0
 14
0.5
 24
0.5
 15
0.5
 25
0.5
 16
0.0
 26
0.0
 36
1.0
 17
0.0
 27
0.0
 37
0.0
 40
1000.0
 41
1.34
 42
50.0
 43
0.0
 44
0.0
 50
0.0
 51
0.0
 71
0
 72
1000
 73
1
 74
3
 75
0
 76
0
 77
0
 78
0
281
0
 65
0
146
0.0
  0
ENDTAB
  0
TABLE
  2
LTYPE
  5
2
330
0
100
AcDbSymbolTable
 70
3
  0
LTYPE
  5
24
330
2
100
AcDbSymbolTableRecord
100
AcDbLinetypeTableRecord
  2
ByBlock
 70
0
  3

 72
65
 73
0
 40
0.0
  0
LTYPE
  5
25
330
2
100
AcDbSymbolTableRecord
100
AcDbLinetypeTableRecord
  2
ByLayer
 70
0
  3

 72
65
 73
0
 40
0.0
  0
LTYPE
  5
26
330
2
100
AcDbSymbolTableRecord
100
AcDbLinetypeTableRecord
  2
Continuous
 70
0
  3

 72
65
 73
0
 40
0.0
  0
ENDTAB
  0
TABLE
  2
LAYER
  5
1
330
0
100
AcDbSymbolTable
 70
2
  0
LAYER
  5
27
330
1
100
AcDbSymbolTableRecord
100
AcDbLayerTableRecord
  2
0
 70
0
 62
7
  6
Continuous
370
-3
390
13
347
21
  0
LAYER
  5
28
330
1
100
AcDbSymbolTableRecord
100
AcDbLayerTableRecord
  2
Defpoints
 70
0
 62
7
  6
Continuous
290
0
370
-3
390
13
347
21
  0
ENDTAB
  0
TABLE
  2
STYLE
  5
5
330
0
100
AcDbSymbolTable
 70
1
  0
STYLE
  5
29
330
5
100
AcDbSymbolTableRecord
100
AcDbTextStyleTableRecord
  2
Standard
 70
0
 40
0.0
 41
1.0
 50
0.0
 71
0
 42
2.5
  3
txt
  4

  0
ENDTAB
  0
TABLE
  2
VIEW
  5
7
330
0
100
AcDbSymbolTable
 70
0
  0
ENDTAB
  0
TABLE
  2
UCS
  5
6
330
0
100
AcDbSymbolTable
 70
0
  0
ENDTAB
  0
TABLE
  2
APPID
  5
3
330
0
100
AcDbSymbolTable
 70
3
  0
APPID
  5
2A
330
3
100
AcDbSymbolTableRecord
100
AcDbRegAppTableRecord
  2
ACAD
 70
0
  0
APPID
  5
1EF
330
3
100
AcDbSymbolTableRecord
100
AcDbRegAppTableRecord
  2
HATCHBACKGROUNDCOLOR
 70
0
  0
APPID
  5
1F0
330
3
100
AcDbSymbolTableRecord
100
AcDbRegAppTableRecord
  2
EZDXF
 70
0
  0
ENDTAB
  0
TABLE
  2
DIMSTYLE
  5
4
330
0
100
AcDbSymbolTable
 70
1
100
AcDbDimStyleTable
  0
DIMSTYLE
105
2B
330
4
100
AcDbSymbolTableRecord
100
AcDbDimStyleTableRecord
  2
Standard
 70
0
 40
1.0
 41
2.5
 42
0.625
 43
3.75
 44
1.25
 45
0.0
 46
0.0
 47
0.0
 48
0.0
 49
2.5
140
2.5
141
2.5
142
0.0
143
0.03937007874
144
1.0
145
0.0
146
1.0
147
0.625
148
0.0
 69
0
 70
0
 71
0
 72
0
 73
0
 74
0
 75
0
 76
0
 77
1
 78
8
 79
3
170
0
171
3
172
1
173
0
174
0
175
0
176
0
177
0
178
0
179
2
271
2
272
2
273
2
274
3
275
0
276
0
277
2
278
44
279
0
280
0
281
0
282
0
283
0
284
8
285
0
286
0
288
0
289
3
290
0
371
-2
372
-2
  0
ENDTAB
  0
TABLE
  2
BLOCK_RECORD
  5
9
330
0
100
AcDbSymbolTable
 70
2
  0
BLOCK_RECORD
  5
17
330
9
100
AcDbSymbolTableRecord
100
AcDbBlockTableRecord
  2
*Model_Space
340
1A
 70
0
280
1
281
0
  0
BLOCK_RECORD
  5
1B
330
9
100
AcDbSymbolTableRecord
100
AcDbBlockTableRecord
  2
*Paper_Space
340
1E
 70
0
280
1
281
0
  0
ENDTAB
  0
ENDSEC
  0
SECTION
  2
BLOCKS
  0
BLOCK
  5
18
330
17
100
AcDbEntity
  8
0
100
AcDbBlockBegin
  2
*Model_Space
 70
0
 10
0.0
 20
0.0
 30
0.0
  3
*Model_Space
  1

  0
ENDBLK
  5
19
330
17
100
AcDbEntity
  8
0
100
AcDbBlockEnd
  0
BLOCK
  5
1C
330
1B
100
AcDbEntity
  8
0
100
AcDbBlockBegin
  2
*Paper_Space
 70
0
 10
0.0
 20
0.0
 30
0.0
  3
*Paper_Space
  1

  0
ENDBLK
  5
1D
330
1B
100
AcDbEntity
  8
0
100
AcDbBlockEnd
  0
ENDSEC
  0
SECTION
  2
ENTITIES
  0
LINE
  5
2F
330
17
100
AcDbEntity
  8
0
100
AcDbLine
 10
-43.425429936721315
 20
1825.7921806590973
 30
0.0
 11
835.0225787612475
 21
1871.8296900105674
 31
0.0
  0
LINE
  5
30
330
17
100
AcDbEntity
  8
0
100
AcDbLine
 10
-9.42766308599009
 20
1177.0761443027798
 30
0.0
 11
869.0203456119788
 21
1223.1136536542501
 31
0.0
  0
LINE
  5
31
330
17
100
AcDbEntity
  8
0
100
AcDbLine
 10
304.2549126515329
 20
1844.0133353145147
 30
0.0
 11
402.67571819234513
 21
-33.967508126040684
 31
0.0
  0
LINE
  5
32
330
17
100
AcDbEntity
  8
0
100
AcDbLine
 10
834.4662516673264
 20
1882.445043332762
 30
0.0
 11
933.4433843020597
 21
-6.151153429987858
 31
0.0
  0
LINE
  5
33
330
17
100
AcDbEntity
  8
0
100
AcDbLine
 10
24.570103764741074
 20
528.3601079464634
 30
0.0
 11
903.0181124627098
 21
574.3976172979337
 31
0.0
  0
LINE
  5
34
330
17
100
AcDbEntity
  8
0
100
AcDbLine
 10
889.1717492362305
 20
838.60196665032
 30
0.0
 11
830.1975641129292
 21
835.5112605729807
 31
0.0
  0
LINE
  5
35
330
17
100
AcDbEntity
  8
0
100
AcDbLine
 10
830.1975641129292
 20
835.5112605729807
 30
0.0
 11
828.3431404665254
 21
870.8957716469664
 31
0.0
  0
LINE
  5
36
330
17
100
AcDbEntity
  8
0
100
AcDbLine
 10
885.7719725511571
 20
903.4735702859565
 30
0.0
 11
373.876045680898
 21
876.6462415346522
 31
0.0
  0
LINE
  5
37
330
17
100
AcDbEntity
  8
0
100
AcDbLine
 10
344.3889531192471
 20
875.1008884959825
 30
0.0
 11
155.67156072467986
 21
865.210629048497
 31
0.0
  0
LINE
  5
38
330
17
100
AcDbEntity
  8
0
100
AcDbLine
 10
345.31616494244895
 20
857.4086329589909
 30
0.0
 11
8.251175676390153
 21
839.7438053974946
 31
0.0
  0
LINE
  5
39
330
17
100
AcDbEntity
  8
0
100
AcDbLine
 10
828.3431404665254
 20
870.8957716469664
 30
0.0
 11
345.9343061579167
 21
845.6137959343316
 31
0.0
  0
LINE
  5
3A
330
17
100
AcDbEntity
  8
0
100
AcDbLine
 10
930.9580954018563
 20
41.27098378328583
 30
0.0
 11
945.1118998314491
 21
42.012753241847236
 31
0.0
  0
LINE
  5
3B
330
17
100
AcDbEntity
  8
0
100
AcDbLine
 10
908.5195692803737
 20
469.42356777845555
 30
0.0
 11
922.6733737099665
 21
470.16533723701696
 31
0.0
  0
LINE
  5
3C
330
17
100
AcDbEntity
  8
0
100
AcDbLine
 10
915.3191226505201
 20
339.6803605071917
 30
0.0
 11
929.4729270801129
 21
340.42212996575313
 31
0.0
  0
LINE
  5
3D
330
17
100
AcDbEntity
  8
0
100
AcDbLine
 10
924.1585420317105
 20
171.01419105454204
 30
0.0
 11
938.3123464613033
 21
171.75596051310345
 31
0.0
  0
LINE
  5
3E
330
17
100
AcDbEntity
  8
0
100
AcDbLine
 10
924.1585420317105
 20
171.01419105454204
 30
0.0
 11
915.3191226505201
 21
339.6803605071917
 31
0.0
  0
LINE
  5
3F
330
17
100
AcDbEntity
  8
0
100
AcDbLine
 10
908.5195692803737
 20
469.42356777845555
 30
0.0
 11
897.5784697665931
 21
678.1921831149405
 31
0.0
  0
LINE
  5
40
330
17
100
AcDbEntity
  8
0
100
AcDbLine
 10
933.4433843020597
 20
-6.151153429987858
 30
0.0
 11
930.9580954018563
 21
41.27098378328583
 31
0.0
  0
LINE
  5
41
330
17
100
AcDbEntity
  8
0
100
AcDbLine
 10
889.5426339655113
 20
831.5250644355226
 30
0.0
 11
835.0225787612475
 21
1871.8296900105674
 31
0.0
  0
LINE
  5
42
330
17
100
AcDbEntity
  8
0
100
AcDbLine
 10
903.6964383951014
 20
832.2668338940839
 30
0.0
 11
848.4346137322761
 21
1886.725263898721
 31
0.0
  0
LINE
  5
43
330
17
100
AcDbEntity
  8
0
100
AcDbLine
 10
155.67156072467986
 20
865.210629048497
 30
0.0
 11
143.92687763079084
 21
1089.3125325170442
 31
0.0
  0
LINE
  5
44
330
17
100
AcDbEntity
  8
0
100
AcDbLine
 10
332.6442700253581
 20
1099.2027919645298
 30
0.0
 11
143.92687763079084
 21
1089.3125325170442
 31
0.0
  0
LINE
  5
45
330
17
100
AcDbEntity
  8
0
100
AcDbLine
 10
137.9793051876921
 20
864.2834172252954
 30
0.0
 11
126.23462209380307
 21
1088.3853206938425
 31
0.0
  0
LINE
  5
46
330
17
100
AcDbEntity
  8
0
100
AcDbLine
 10
137.9793051876921
 20
864.2834172252954
 30
0.0
 11
7.323963853188329
 21
857.4360609344862
 31
0.0
  0
LINE
  5
47
330
17
100
AcDbEntity
  8
0
100
AcDbLine
 10
331.7170582021565
 20
1116.8950475015167
 30
0.0
 11
36.84613258564875
 21
1101.4415171148207
 31
0.0
  0
LINE
  5
48
330
17
100
AcDbEntity
  8
0
100
AcDbLine
 10
126.23462209380307
 20
1088.3853206938425
 30
0.0
 11
-4.420719240700696
 21
1081.5379644030334
 31
0.0
  0
LINE
  5
49
330
17
100
AcDbEntity
  8
0
100
AcDbLine
 10
328.19365327398975
 20
1184.1256185420816
 30
0.0
 11
331.7170582021565
 21
1116.8950475015167
 31
0.0
  0
LINE
  5
4A
330
17
100
AcDbEntity
  8
0
100
AcDbLine
 10
327.0809990861476
 20
1205.3563251864716
 30
0.0
 11
294.7522135171795
 21
1822.2263015762064
 31
0.0
  0
LINE
  5
4B
330
17
100
AcDbEntity
  8
0
100
AcDbLine
 10
323.12665189098834
 20
1845.0023612592631
 30
0.0
 11
373.876045680898
 21
876.6462415346522
 31
0.0
  0
LINE
  5
4C
330
17
100
AcDbEntity
  8
0
100
AcDbLine
 10
332.6442700253581
 20
1099.2027919645298
 30
0.0
 11
344.3889531192471
 21
875.1008884959825
 31
0.0
  0
LINE
  5
4D
330
17
100
AcDbEntity
  8
0
100
AcDbLine
 10
345.31616494244895
 20
857.4086329589909
 30
0.0
 11
345.9343061579167
 21
845.6137959343316
 31
0.0
  0
LINE
  5
4E
330
17
100
AcDbEntity
  8
0
100
AcDbLine
 10
36.84613258564875
 20
1101.4415171148207
 30
0.0
 11
34.99170893924517
 21
1136.8260281888029
 31
0.0
  0
LINE
  5
4F
330
17
100
AcDbEntity
  8
0
100
AcDbLine
 10
19.153877048658142
 20
1100.5143052916187
 30
0.0
 11
17.299453402254553
 21
1135.898816365601
 31
0.0
  0
LINE
  5
50
330
17
100
AcDbEntity
  8
0
100
AcDbLine
 10
166.26860905840178
 20
1340.0380173837782
 30
0.0
 11
147.72437259436654
 21
1693.883128123588
 31
0.0
  0
LINE
  5
51
330
17
100
AcDbEntity
  8
0
100
AcDbLine
 10
178.06344608306242
 20
1340.656158599246
 30
0.0
 11
159.51920961902718
 21
1694.5012693390559
 31
0.0
  0
LINE
  5
52
330
17
100
AcDbEntity
  8
0
100
AcDbLine
 10
6.18632829844379
 20
1686.465433537974
 30
0.0
 11
301.05725391495156
 21
1701.91896392467
 31
0.0
  0
LINE
  5
53
330
17
100
AcDbEntity
  8
0
100
AcDbLine
 10
8.040751944847322
 20
1651.080922463993
 30
0.0
 11
149.5787962407701
 21
1658.4986170496068
 31
0.0
  0
LINE
  5
54
330
17
100
AcDbEntity
  8
0
100
AcDbLine
 10
9.895175591250833
 20
1615.696411390012
 30
0.0
 11
151.4332198871736
 21
1623.114105975626
 31
0.0
  0
LINE
  5
55
330
17
100
AcDbEntity
  8
0
100
AcDbLine
 10
11.749599237654305
 20
1580.311900316032
 30
0.0
 11
153.28764353357707
 21
1587.7295949016461
 31
0.0
  0
LINE
  5
56
330
17
100
AcDbEntity
  8
0
100
AcDbLine
 10
13.604022884058
 20
1544.9273892420479
 30
0.0
 11
155.14206717998076
 21
1552.3450838276617
 31
0.0
  0
LINE
  5
57
330
17
100
AcDbEntity
  8
0
100
AcDbLine
 10
15.458446530461398
 20
1509.5428781680691
 30
0.0
 11
156.99649082638416
 21
1516.9605727536832
 31
0.0
  0
LINE
  5
58
330
17
100
AcDbEntity
  8
0
100
AcDbLine
 10
17.312870176864926
 20
1474.1583670940881
 30
0.0
 11
88.08189232482681
 21
1477.867214386895
 31
0.0
  0
LINE
  5
59
330
17
100
AcDbEntity
  8
0
100
AcDbLine
 10
24.730564762479016
 20
1332.6203227981641
 30
0.0
 11
319.60149037898674
 21
1348.0738531848601
 31
0.0
  0
LINE
  5
5A
330
17
100
AcDbEntity
  8
0
100
AcDbLine
 10
34.99170893924517
 20
1136.8260281888029
 30
0.0
 11
17.299453402254553
 21
1135.898816365601
 31
0.0
  0
LINE
  5
5B
330
17
100
AcDbEntity
  8
0
100
AcDbLine
 10
27.574014353631007
 20
1278.3640724847282
 30
0.0
 11
9.881758816640392
 21
1277.4368606615262
 31
0.0
  0
LINE
  5
5C
330
17
100
AcDbEntity
  8
0
100
AcDbLine
 10
9.881758816640392
 20
1277.4368606615262
 30
0.0
 11
-18.923621824160904
 21
1827.0762660106957
 31
0.0
  0
LINE
  5
5D
330
17
100
AcDbEntity
  8
0
100
AcDbLine
 10
27.574014353631007
 20
1278.3640724847282
 30
0.0
 11
-1.2313662871702888
 21
1828.0034778338977
 31
0.0
  0
LINE
  5
5E
330
17
100
AcDbEntity
  8
0
100
AcDbLine
 10
19.153877048658142
 20
1100.5143052916187
 30
0.0
 11
-5.34793106390227
 21
1099.2302199400203
 31
0.0
  0
LINE
  5
5F
330
17
100
AcDbEntity
  8
0
100
AcDbLine
 10
161.37363326543073
 20
1659.1167582650746
 30
0.0
 11
302.9116775613551
 21
1666.534452850689
 31
0.0
  0
LINE
  5
60
330
17
100
AcDbEntity
  8
0
100
AcDbLine
 10
163.22805691183424
 20
1623.7322471910938
 30
0.0
 11
304.7661012077586
 21
1631.149941776708
 31
0.0
  0
LINE
  5
61
330
17
100
AcDbEntity
  8
0
100
AcDbLine
 10
165.0824805582377
 20
1588.347736117114
 30
0.0
 11
306.62052485416206
 21
1595.765430702728
 31
0.0
  0
LINE
  5
62
330
17
100
AcDbEntity
  8
0
100
AcDbLine
 10
166.9369042046414
 20
1552.9632250431296
 30
0.0
 11
308.47494850056574
 21
1560.3809196287439
 31
0.0
  0
LINE
  5
63
330
17
100
AcDbEntity
  8
0
100
AcDbLine
 10
168.7913278510448
 20
1517.578713969151
 30
0.0
 11
310.32937214696915
 21
1524.9964085547651
 31
0.0
  0
LINE
  5
64
330
17
100
AcDbEntity
  8
0
100
AcDbLine
 10
170.64575149744832
 20
1482.19420289517
 30
0.0
 11
312.18379579337267
 21
1489.6118974807841
 31
0.0
  0
LINE
  5
65
330
17
100
AcDbEntity
  8
0
100
AcDbLine
 10
172.50017514385186
 20
1446.8096918211888
 30
0.0
 11
314.0382194397762
 21
1454.227386406803
 31
0.0
  0
LINE
  5
66
330
17
100
AcDbEntity
  8
0
100
AcDbLine
 10
174.3545987902553
 20
1411.4251807472092
 30
0.0
 11
315.89264308617965
 21
1418.8428753328233
 31
0.0
  0
LINE
  5
67
330
17
100
AcDbEntity
  8
0
100
AcDbLine
 10
176.209022436659
 20
1376.0406696732248
 30
0.0
 11
317.74706673258333
 21
1383.458364258839
 31
0.0
  0
LINE
  5
68
330
17
100
AcDbEntity
  8
0
100
AcDbLine
 10
248.83246823102272
 20
1344.365005892053
 30
0.0
 11
230.28823176698748
 21
1698.2101166318628
 31
0.0
  0
LINE
  5
69
330
17
100
AcDbEntity
  8
0
100
AcDbLine
 10
254.63097005681757
 20
1676.291816626417
 30
0.0
 11
230.28823176698748
 21
1698.2101166318628
 31
0.0
  0
LINE
  5
6A
330
17
100
AcDbEntity
  8
0
100
AcDbLine
 10
208.36993176154456
 20
1673.867378342034
 30
0.0
 11
230.28823176698748
 21
1698.2101166318628
 31
0.0
  0
LINE
  5
6B
330
17
100
AcDbEntity
  8
0
100
AcDbLine
 10
76.95535044640567
 20
1690.1742808307808
 30
0.0
 11
88.08189232482681
 21
1477.867214386895
 31
0.0
  0
LINE
  5
6C
330
17
100
AcDbEntity
  8
0
100
AcDbLine
 10
63.73915403499697
 20
1499.7855143923405
 30
0.0
 11
88.08189232482681
 21
1477.867214386895
 31
0.0
  0
LINE
  5
6D
330
17
100
AcDbEntity
  8
0
100
AcDbLine
 10
110.00019233027032
 20
1502.2099526767233
 30
0.0
 11
88.08189232482681
 21
1477.867214386895
 31
0.0
  0
LINE
  5
6E
330
17
100
AcDbEntity
  8
0
100
AcDbLine
 10
19.167293823268455
 20
1438.773856020107
 30
0.0
 11
156.99649082638416
 21
1516.9605727536832
 31
0.0
  0
LINE
  5
6F
330
17
100
AcDbEntity
  8
0
100
AcDbLine
 10
-43.425429936721315
 20
1825.7921806590973
 30
0.0
 11
128.5118409840957
 21
1834.803031204044
 31
0.0
  0
LINE
  5
70
330
17
100
AcDbEntity
  8
0
100
AcDbLine
 10
-44.16719939528271
 20
1839.9459850886894
 30
0.0
 11
136.02645744279295
 21
1849.3895344844634
 31
0.0
  0
LINE
  5
71
330
17
100
AcDbEntity
  8
0
100
AcDbLine
 10
338.4599400230469
 20
1845.8059448393715
 30
0.0
 11
337.71817056448555
 21
1859.9597492689636
 31
0.0
  0
LINE
  5
72
330
17
100
AcDbEntity
  8
0
100
AcDbLine
 10
479.99798431896943
 20
1853.2236394249853
 30
0.0
 11
479.2562148604081
 21
1867.3774438545775
 31
0.0
  0
LINE
  5
73
330
17
100
AcDbEntity
  8
0
100
AcDbLine
 10
479.2562148604081
 20
1867.3774438545775
 30
0.0
 11
848.4346137322761
 21
1886.725263898721
 31
0.0
  0
LINE
  5
74
330
17
100
AcDbEntity
  8
0
100
AcDbLine
 10
479.99798431896943
 20
1853.2236394249853
 30
0.0
 11
835.0225787612475
 21
1871.8296900105674
 31
0.0
  0
LINE
  5
75
330
17
100
AcDbEntity
  8
0
100
AcDbLine
 10
234.6653742060361
 20
1840.3663021432544
 30
0.0
 11
233.9236047474747
 21
1854.5201065728465
 31
0.0
  0
LINE
  5
76
330
17
100
AcDbEntity
  8
0
100
AcDbLine
 10
128.5118409840957
 20
1834.803031204044
 30
0.0
 11
127.7700715255343
 21
1848.956835633636
 31
0.0
  0
LINE
  5
77
330
17
100
AcDbEntity
  8
0
100
AcDbLine
 10
234.6653742060361
 20
1840.3663021432544
 30
0.0
 11
338.4599400230469
 21
1845.8059448393715
 31
0.0
  0
LINE
  5
78
330
17
100
AcDbEntity
  8
0
100
AcDbLine
 10
510.93187864158335
 20
1940.0008896489435
 30
0.0
 11
915.4947885874335
 21
1961.2031333394903
 31
0.0
  0
LINE
  5
79
330
17
100
AcDbEntity
  8
0
100
AcDbLine
 10
1018.3662108796142
 20
-1.7005366786194145
 30
0.0
 11
984.0466493828171
 21
653.1557073046582
 31
0.0
  0
LINE
  5
7A
330
17
100
AcDbEntity
  8
0
100
AcDbLine
 10
889.5426339655113
 20
831.5250644355226
 30
0.0
 11
903.6964383951014
 21
832.2668338940839
 31
0.0
  0
LINE
  5
7B
330
17
100
AcDbEntity
  8
0
100
AcDbLine
 10
897.5784697665931
 20
678.1921831149405
 30
0.0
 11
911.7322741961832
 21
678.9339525735018
 31
0.0
  0
LINE
  5
7C
330
17
100
AcDbEntity
  8
0
100
AcDbLine
 10
903.6964383951014
 20
832.2668338940839
 30
0.0
 11
911.7322741961832
 21
678.9339525735018
 31
0.0
  0
LINE
  5
7D
330
17
100
AcDbEntity
  8
0
100
AcDbLine
 10
1155.405933813508
 20
768.58135875862
 30
0.0
 11
1084.6369116655462
 21
764.8725114658131
 31
0.0
  0
LINE
  5
7E
330
17
100
AcDbEntity
  8
0
100
AcDbLine
 10
1108.9796499553772
 20
742.9542114603661
 30
0.0
 11
1084.6369116655462
 21
764.8725114658131
 31
0.0
  0
LINE
  5
7F
330
17
100
AcDbEntity
  8
0
100
AcDbLine
 10
1106.5552116709944
 20
789.2152497556357
 30
0.0
 11
1084.6369116655462
 21
764.8725114658131
 31
0.0
  0
LINE
  5
80
330
17
100
AcDbEntity
  8
0
100
AcDbLine
 10
1079.0736407263357
 20
871.0260446877533
 30
0.0
 11
1090.2001826047567
 21
658.7189782438687
 31
0.0
  0
LINE
  5
81
330
17
100
AcDbEntity
  8
0
100
AcDbLine
 10
1114.4581518003188
 20
872.8804683341568
 30
0.0
 11
1125.5846936787398
 21
660.5734018902723
 31
0.0
  0
LINE
  5
82
330
17
100
AcDbEntity
  8
0
100
AcDbLine
 10
1149.8426628743011
 20
874.7348919805604
 30
0.0
 11
1160.9692047527221
 21
662.4278255366759
 31
0.0
  0
LINE
  5
83
330
17
100
AcDbEntity
  8
0
100
AcDbLine
 10
972.9201075043961
 20
865.4627737485428
 30
0.0
 11
915.4947885874335
 21
1961.2031333394903
 31
0.0
  0
LINE
  5
84
330
17
100
AcDbEntity
  8
0
100
AcDbLine
 10
1.7957690847875583
 20
1206.049697298093
 30
0.0
 11
43.07769867109854
 21
1208.2131915522305
 31
0.0
  0
LINE
  5
85
330
17
100
AcDbEntity
  8
0
100
AcDbLine
 10
407.86905149697844
 20
1875.4634335864312
 30
0.0
 11
409.84710338647545
 21
1837.7199551075194
 31
0.0
  0
LINE
  5
86
330
17
100
AcDbEntity
  8
0
100
AcDbLine
 10
947.5971887316498
 20
-5.409383971426564
 30
0.0
 11
944.6792009806194
 21
50.269139159102
 31
0.0
  0
LINE
  5
87
330
17
100
AcDbEntity
  8
0
100
AcDbLine
 10
938.7450453121281
 20
163.4995745958389
 30
0.0
 11
929.0402282292825
 21
348.67851588301517
 31
0.0
  0
LINE
  5
88
330
17
100
AcDbEntity
  8
0
100
AcDbLine
 10
932.4149279489717
 20
171.4468899053694
 30
0.0
 11
932.8476267997993
 21
163.19050398810498
 31
0.0
  0
LINE
  5
89
330
17
100
AcDbEntity
  8
0
100
AcDbLine
 10
932.8476267997993
 20
163.19050398810498
 30
0.0
 11
938.7450453121281
 21
163.4995745958389
 31
0.0
  0
LINE
  5
8A
330
17
100
AcDbEntity
  8
0
100
AcDbLine
 10
938.7450453121281
 20
163.4995745958389
 30
0.0
 11
938.7450453121281
 21
163.4995745958389
 31
0.0
  0
LINE
  5
8B
330
17
100
AcDbEntity
  8
0
100
AcDbLine
 10
932.8476267997993
 20
163.19050398810498
 30
0.0
 11
938.7817824682905
 21
49.96006855136807
 31
0.0
  0
LINE
  5
8C
330
17
100
AcDbEntity
  8
0
100
AcDbLine
 10
938.7817824682905
 20
49.96006855136807
 30
0.0
 11
941.730491724457
 21
50.114603855235146
 31
0.0
  0
LINE
  5
8D
330
17
100
AcDbEntity
  8
0
100
AcDbLine
 10
941.730491724457
 20
50.114603855235146
 30
0.0
 11
935.7963360559658
 21
163.34503929197206
 31
0.0
  0
LINE
  5
8E
330
17
100
AcDbEntity
  8
0
100
AcDbLine
 10
935.7963360559658
 20
163.34503929197206
 30
0.0
 11
932.8476267997993
 21
163.19050398810498
 31
0.0
  0
LINE
  5
8F
330
17
100
AcDbEntity
  8
0
100
AcDbLine
 10
932.8476267997993
 20
163.19050398810498
 30
0.0
 11
932.8476267997993
 21
163.19050398810498
 31
0.0
  0
LINE
  5
90
330
17
100
AcDbEntity
  8
0
100
AcDbLine
 10
944.6792009806194
 20
50.269139159102
 30
0.0
 11
938.7817824682905
 21
49.96006855136807
 31
0.0
  0
LINE
  5
91
330
17
100
AcDbEntity
  8
0
100
AcDbLine
 10
938.7817824682905
 20
49.96006855136807
 30
0.0
 11
939.2144813191181
 21
41.70368263410364
 31
0.0
  0
LINE
  5
92
330
17
100
AcDbEntity
  8
0
100
AcDbLine
 10
945.111899831447
 20
42.01275324183757
 30
0.0
 11
945.111899831447
 21
42.01275324183757
 31
0.0
  0
LINE
  5
93
330
17
100
AcDbEntity
  8
0
100
AcDbLine
 10
917.2086540484624
 20
461.5998807120218
 30
0.0
 11
923.1428097169537
 21
348.36944527528124
 31
0.0
  0
LINE
  5
94
330
17
100
AcDbEntity
  8
0
100
AcDbLine
 10
923.1428097169537
 20
348.36944527528124
 30
0.0
 11
926.0915189731202
 21
348.5239805791483
 31
0.0
  0
LINE
  5
95
330
17
100
AcDbEntity
  8
0
100
AcDbLine
 10
926.0915189731202
 20
348.5239805791483
 30
0.0
 11
920.1573633046289
 21
461.75441601588886
 31
0.0
  0
LINE
  5
96
330
17
100
AcDbEntity
  8
0
100
AcDbLine
 10
920.1573633046289
 20
461.75441601588886
 30
0.0
 11
917.2086540484624
 21
461.5998807120218
 31
0.0
  0
LINE
  5
97
330
17
100
AcDbEntity
  8
0
100
AcDbLine
 10
917.2086540484624
 20
461.5998807120218
 30
0.0
 11
917.2086540484624
 21
461.5998807120218
 31
0.0
  0
LINE
  5
98
330
17
100
AcDbEntity
  8
0
100
AcDbLine
 10
923.1060725607913
 20
461.9089513197557
 30
0.0
 11
911.7322741961832
 21
678.9339525735018
 31
0.0
  0
LINE
  5
99
330
17
100
AcDbEntity
  8
0
100
AcDbLine
 10
916.775955197635
 20
469.8562666292829
 30
0.0
 11
917.2086540484624
 21
461.5998807120218
 31
0.0
  0
LINE
  5
9A
330
17
100
AcDbEntity
  8
0
100
AcDbLine
 10
917.2086540484624
 20
461.5998807120218
 30
0.0
 11
923.1060725607913
 21
461.9089513197557
 31
0.0
  0
LINE
  5
9B
330
17
100
AcDbEntity
  8
0
100
AcDbLine
 10
923.1060725607913
 20
461.9089513197557
 30
0.0
 11
923.1060725607913
 21
461.9089513197557
 31
0.0
  0
LINE
  5
9C
330
17
100
AcDbEntity
  8
0
100
AcDbLine
 10
929.0402282292825
 20
348.67851588301517
 30
0.0
 11
923.1428097169537
 21
348.36944527528124
 31
0.0
  0
LINE
  5
9D
330
17
100
AcDbEntity
  8
0
100
AcDbLine
 10
923.1428097169537
 20
348.36944527528124
 30
0.0
 11
923.5755085677813
 21
340.1130593580191
 31
0.0
  0
LINE
  5
9E
330
17
100
AcDbEntity
  8
0
100
AcDbLine
 10
929.4729270801101
 20
340.422129965753
 30
0.0
 11
929.4729270801101
 21
340.422129965753
 31
0.0
  0
LINE
  5
9F
330
17
100
AcDbEntity
  8
0
100
AcDbLine
 10
903.6964383951014
 20
832.2668338940839
 30
0.0
 11
982.6921481899408
 21
761.1387773126319
 31
0.0
  0
LINE
  5
A0
330
17
100
AcDbEntity
  8
0
100
AcDbLine
 10
911.7322741961832
 20
678.9339525735018
 30
0.0
 11
943.344743787942
 21
714.0431569267625
 31
0.0
  0
LINE
  5
A1
330
17
100
AcDbEntity
  8
0
100
AcDbLine
 10
337.71817056448555
 20
1859.9597492689636
 30
0.0
 11
479.2562148604081
 21
1867.3774438545775
 31
0.0
  0
LINE
  5
A2
330
17
100
AcDbEntity
  8
0
100
AcDbLine
 10
479.2562148604081
 20
1867.3774438545775
 30
0.0
 11
479.99798431896943
 21
1853.2236394249853
 31
0.0
  0
LINE
  5
A3
330
17
100
AcDbEntity
  8
0
100
AcDbLine
 10
479.99798431896943
 20
1853.2236394249853
 30
0.0
 11
338.4599400230469
 21
1845.8059448393715
 31
0.0
  0
LINE
  5
A4
330
17
100
AcDbEntity
  8
0
100
AcDbLine
 10
338.4599400230469
 20
1845.8059448393715
 30
0.0
 11
337.71817056448555
 21
1859.9597492689636
 31
0.0
  0
LINE
  5
A5
330
17
100
AcDbEntity
  8
0
100
AcDbLine
 10
337.71817056448555
 20
1859.9597492689636
 30
0.0
 11
337.71817056448555
 21
1859.9597492689636
 31
0.0
  0
LINE
  5
A6
330
17
100
AcDbEntity
  8
0
100
AcDbLine
 10
9.881758816640392
 20
1277.4368606615262
 30
0.0
 11
17.299453402254553
 21
1135.898816365601
 31
0.0
  0
LINE
  5
A7
330
17
100
AcDbEntity
  8
0
100
AcDbLine
 10
17.299453402254553
 20
1135.898816365601
 30
0.0
 11
34.99170893924517
 21
1136.8260281888029
 31
0.0
  0
LINE
  5
A8
330
17
100
AcDbEntity
  8
0
100
AcDbLine
 10
34.99170893924517
 20
1136.8260281888029
 30
0.0
 11
27.574014353631007
 21
1278.3640724847282
 31
0.0
  0
LINE
  5
A9
330
17
100
AcDbEntity
  8
0
100
AcDbLine
 10
27.574014353631007
 20
1278.3640724847282
 30
0.0
 11
9.881758816640392
 21
1277.4368606615262
 31
0.0
  0
LINE
  5
AA
330
17
100
AcDbEntity
  8
0
100
AcDbLine
 10
9.881758816640392
 20
1277.4368606615262
 30
0.0
 11
9.881758816640392
 21
1277.4368606615262
 31
0.0
  0
LINE
  5
AB
330
17
100
AcDbEntity
  8
0
100
AcDbLine
 10
924.1585420317105
 20
171.01419105454204
 30
0.0
 11
938.3123464613005
 21
171.75596051310333
 31
0.0
  0
LINE
  5
AC
330
17
100
AcDbEntity
  8
0
100
AcDbLine
 10
938.3123464613005
 20
171.75596051310333
 30
0.0
 11
945.111899831447
 21
42.01275324183757
 31
0.0
  0
LINE
  5
AD
330
17
100
AcDbEntity
  8
0
100
AcDbLine
 10
945.111899831447
 20
42.01275324183757
 30
0.0
 11
930.9580954018569
 21
41.27098378327628
 31
0.0
  0
LINE
  5
AE
330
17
100
AcDbEntity
  8
0
100
AcDbLine
 10
930.9580954018569
 20
41.27098378327628
 30
0.0
 11
924.1585420317105
 21
171.01419105454204
 31
0.0
  0
LINE
  5
AF
330
17
100
AcDbEntity
  8
0
100
AcDbLine
 10
924.1585420317105
 20
171.01419105454204
 30
0.0
 11
924.1585420317105
 21
171.01419105454204
 31
0.0
  0
LINE
  5
B0
330
17
100
AcDbEntity
  8
0
100
AcDbLine
 10
908.5195692803737
 20
469.42356777845555
 30
0.0
 11
922.6733737099638
 21
470.16533723701684
 31
0.0
  0
LINE
  5
B1
330
17
100
AcDbEntity
  8
0
100
AcDbLine
 10
922.6733737099638
 20
470.16533723701684
 30
0.0
 11
929.4729270801101
 21
340.422129965753
 31
0.0
  0
LINE
  5
B2
330
17
100
AcDbEntity
  8
0
100
AcDbLine
 10
929.4729270801101
 20
340.422129965753
 30
0.0
 11
915.3191226505201
 21
339.6803605071917
 31
0.0
  0
LINE
  5
B3
330
17
100
AcDbEntity
  8
0
100
AcDbLine
 10
915.3191226505201
 20
339.6803605071917
 30
0.0
 11
908.5195692803737
 21
469.42356777845555
 31
0.0
  0
LINE
  5
B4
330
17
100
AcDbEntity
  8
0
100
AcDbLine
 10
908.5195692803737
 20
469.42356777845555
 30
0.0
 11
908.5195692803737
 21
469.42356777845555
 31
0.0
  0
LINE
  5
B5
330
17
100
AcDbEntity
  8
0
100
AcDbLine
 10
913.2776272348527
 20
649.4468600118511
 30
0.0
 11
1160.9692047527221
 21
662.4278255366759
 31
0.0
  0
LINE
  5
B6
330
17
100
AcDbEntity
  8
0
100
AcDbLine
 10
1090.2001826047567
 20
658.7189782438687
 30
0.0
 11
1079.0736407263357
 21
871.0260446877533
 31
0.0
  0
LINE
  5
B7
330
17
100
AcDbEntity
  8
0
100
AcDbLine
 10
1149.8426628743011
 20
874.7348919805604
 30
0.0
 11
902.1510853564317
 21
861.7539264557356
 31
0.0
  0
LINE
  5
B8
330
17
100
AcDbEntity
  8
0
100
AcDbLine
 10
128.07581973441646
 20
1967.2451835487477
 30
0.0
 11
145.76807527140468
 21
1968.1723953719495
 31
0.0
  0
LINE
  5
B9
330
17
100
AcDbEntity
  8
0
100
AcDbLine
 10
145.76807527140468
 20
1968.1723953719495
 30
0.0
 11
146.6952870946065
 21
1950.4801398349578
 31
0.0
  0
LINE
  5
BA
330
17
100
AcDbEntity
  8
0
100
AcDbLine
 10
146.6952870946065
 20
1950.4801398349578
 30
0.0
 11
129.00303155761827
 21
1949.5529280117562
 31
0.0
  0
LINE
  5
BB
330
17
100
AcDbEntity
  8
0
100
AcDbLine
 10
129.00303155761827
 20
1949.5529280117562
 30
0.0
 11
128.07581973441646
 21
1967.2451835487477
 31
0.0
  0
LINE
  5
BC
330
17
100
AcDbEntity
  8
0
100
AcDbLine
 10
128.07581973441646
 20
1967.2451835487477
 30
0.0
 11
128.07581973441646
 21
1967.2451835487477
 31
0.0
  0
LINE
  5
BD
330
17
100
AcDbEntity
  8
0
100
AcDbLine
 10
484.8696397303891
 20
1985.9439553166499
 30
0.0
 11
467.17738419340213
 21
1985.0167434934483
 31
0.0
  0
LINE
  5
BE
330
17
100
AcDbEntity
  8
0
100
AcDbLine
 10
467.17738419340213
 20
1985.0167434934483
 30
0.0
 11
468.1045960166039
 21
1967.3244879564568
 31
0.0
  0
LINE
  5
BF
330
17
100
AcDbEntity
  8
0
100
AcDbLine
 10
468.1045960166039
 20
1967.3244879564568
 30
0.0
 11
485.7968515535909
 21
1968.2516997796583
 31
0.0
  0
LINE
  5
C0
330
17
100
AcDbEntity
  8
0
100
AcDbLine
 10
485.7968515535909
 20
1968.2516997796583
 30
0.0
 11
484.8696397303891
 21
1985.9439553166499
 31
0.0
  0
LINE
  5
C1
330
17
100
AcDbEntity
  8
0
100
AcDbLine
 10
484.8696397303891
 20
1985.9439553166499
 30
0.0
 11
484.8696397303891
 21
1985.9439553166499
 31
0.0
  0
LINE
  5
C2
330
17
100
AcDbEntity
  8
0
100
AcDbLine
 10
128.5118409840957
 20
1834.803031204044
 30
0.0
 11
127.7700715255343
 21
1848.956835633636
 31
0.0
  0
LINE
  5
C3
330
17
100
AcDbEntity
  8
0
100
AcDbLine
 10
127.7700715255343
 20
1848.956835633636
 30
0.0
 11
233.9236047474747
 21
1854.5201065728465
 31
0.0
  0
LINE
  5
C4
330
17
100
AcDbEntity
  8
0
100
AcDbLine
 10
233.9236047474747
 20
1854.5201065728465
 30
0.0
 11
234.6653742060361
 21
1840.3663021432544
 31
0.0
  0
LINE
  5
C5
330
17
100
AcDbEntity
  8
0
100
AcDbLine
 10
234.6653742060361
 20
1840.3663021432544
 30
0.0
 11
128.5118409840957
 21
1834.803031204044
 31
0.0
  0
LINE
  5
C6
330
17
100
AcDbEntity
  8
0
100
AcDbLine
 10
128.5118409840957
 20
1834.803031204044
 30
0.0
 11
128.5118409840957
 21
1834.803031204044
 31
0.0
  0
LINE
  5
C7
330
17
100
AcDbEntity
  8
0
100
AcDbLine
 10
-51.58489398089688
 20
1981.484029384615
 30
0.0
 11
507.22303134877626
 21
2010.7699117969066
 31
0.0
  0
LINE
  5
C8
330
17
100
AcDbEntity
  8
0
100
AcDbLine
 10
507.22303134877626
 20
2010.7699117969066
 30
0.0
 11
514.6407259343905
 21
1869.2318675009792
 31
0.0
  0
LINE
  5
C9
330
17
100
AcDbEntity
  8
0
100
AcDbLine
 10
881.2310787243993
 20
583.9003164322831
 30
0.0
 11
902.4617853687889
 21
585.0129706201253
 31
0.0
  0
LINE
  5
CA
330
17
100
AcDbEntity
  8
0
100
AcDbLine
 10
902.4617853687889
 20
585.0129706201253
 30
0.0
 11
903.574439556631
 21
563.7822639757394
 31
0.0
  0
LINE
  5
CB
330
17
100
AcDbEntity
  8
0
100
AcDbLine
 10
903.574439556631
 20
563.7822639757394
 30
0.0
 11
882.3437329122413
 21
562.6696097878971
 31
0.0
  0
LINE
  5
CC
330
17
100
AcDbEntity
  8
0
100
AcDbLine
 10
882.3437329122413
 20
562.6696097878971
 30
0.0
 11
881.2310787243993
 21
583.9003164322831
 31
0.0
  0
LINE
  5
CD
330
17
100
AcDbEntity
  8
0
100
AcDbLine
 10
881.2310787243993
 20
583.9003164322831
 30
0.0
 11
881.2310787243993
 21
583.9003164322831
 31
0.0
  0
LINE
  5
CE
330
17
100
AcDbEntity
  8
0
100
AcDbLine
 10
361.07876593687894
 20
556.6402888301513
 30
0.0
 11
382.3094725812654
 21
557.7529430179934
 31
0.0
  0
LINE
  5
CF
330
17
100
AcDbEntity
  8
0
100
AcDbLine
 10
382.3094725812654
 20
557.7529430179934
 30
0.0
 11
383.4221267691074
 21
536.5222363736075
 31
0.0
  0
LINE
  5
D0
330
17
100
AcDbEntity
  8
0
100
AcDbLine
 10
383.4221267691074
 20
536.5222363736075
 30
0.0
 11
362.19142012472093
 21
535.4095821857654
 31
0.0
  0
LINE
  5
D1
330
17
100
AcDbEntity
  8
0
100
AcDbLine
 10
362.19142012472093
 20
535.4095821857654
 30
0.0
 11
361.07876593687894
 21
556.6402888301513
 31
0.0
  0
LINE
  5
D2
330
17
100
AcDbEntity
  8
0
100
AcDbLine
 10
361.07876593687894
 20
556.6402888301513
 30
0.0
 11
361.07876593687894
 21
556.6402888301513
 31
0.0
  0
LINE
  5
D3
330
17
100
AcDbEntity
  8
0
100
AcDbLine
 10
847.233311873668
 20
1232.6163527886033
 30
0.0
 11
868.4640185180576
 21
1233.7290069764456
 31
0.0
  0
LINE
  5
D4
330
17
100
AcDbEntity
  8
0
100
AcDbLine
 10
868.4640185180576
 20
1233.7290069764456
 30
0.0
 11
869.5766727058998
 21
1212.4983003320558
 31
0.0
  0
LINE
  5
D5
330
17
100
AcDbEntity
  8
0
100
AcDbLine
 10
869.5766727058998
 20
1212.4983003320558
 30
0.0
 11
848.3459660615101
 21
1211.3856461442135
 31
0.0
  0
LINE
  5
D6
330
17
100
AcDbEntity
  8
0
100
AcDbLine
 10
848.3459660615101
 20
1211.3856461442135
 30
0.0
 11
847.233311873668
 21
1232.6163527886033
 31
0.0
  0
LINE
  5
D7
330
17
100
AcDbEntity
  8
0
100
AcDbLine
 10
847.233311873668
 20
1232.6163527886033
 30
0.0
 11
847.233311873668
 21
1232.6163527886033
 31
0.0
  0
LINE
  5
D8
330
17
100
AcDbEntity
  8
0
100
AcDbLine
 10
813.7918721168578
 20
1870.7170358227254
 30
0.0
 11
835.0225787612475
 21
1871.8296900105674
 31
0.0
  0
LINE
  5
D9
330
17
100
AcDbEntity
  8
0
100
AcDbLine
 10
835.0225787612475
 20
1871.8296900105674
 30
0.0
 11
836.1352329490895
 21
1850.5989833661804
 31
0.0
  0
LINE
  5
DA
330
17
100
AcDbEntity
  8
0
100
AcDbLine
 10
836.1352329490895
 20
1850.5989833661804
 30
0.0
 11
814.9045263046999
 21
1849.486329178338
 31
0.0
  0
LINE
  5
DB
330
17
100
AcDbEntity
  8
0
100
AcDbLine
 10
814.9045263046999
 20
1849.486329178338
 30
0.0
 11
813.7918721168578
 21
1870.7170358227254
 31
0.0
  0
LINE
  5
DC
330
17
100
AcDbEntity
  8
0
100
AcDbLine
 10
813.7918721168578
 20
1870.7170358227254
 30
0.0
 11
813.7918721168578
 21
1870.7170358227254
 31
0.0
  0
LINE
  5
DD
330
17
100
AcDbEntity
  8
0
100
AcDbLine
 10
327.0809990861476
 20
1205.3563251864716
 30
0.0
 11
348.3117057305341
 21
1206.4689793743137
 31
0.0
  0
LINE
  5
DE
330
17
100
AcDbEntity
  8
0
100
AcDbLine
 10
348.3117057305341
 20
1206.4689793743137
 30
0.0
 11
349.42435991837624
 21
1185.2382727299237
 31
0.0
  0
LINE
  5
DF
330
17
100
AcDbEntity
  8
0
100
AcDbLine
 10
349.42435991837624
 20
1185.2382727299237
 30
0.0
 11
328.19365327398975
 21
1184.1256185420816
 31
0.0
  0
LINE
  5
E0
330
17
100
AcDbEntity
  8
0
100
AcDbLine
 10
328.19365327398975
 20
1184.1256185420816
 30
0.0
 11
327.0809990861476
 21
1205.3563251864716
 31
0.0
  0
LINE
  5
E1
330
17
100
AcDbEntity
  8
0
100
AcDbLine
 10
327.0809990861476
 20
1205.3563251864716
 30
0.0
 11
327.0809990861476
 21
1205.3563251864716
 31
0.0
  0
LINE
  5
E2
330
17
100
AcDbEntity
  8
0
100
AcDbLine
 10
293.63955932933743
 20
1843.4570082205937
 30
0.0
 11
314.8702659737239
 21
1844.5696624084358
 31
0.0
  0
LINE
  5
E3
330
17
100
AcDbEntity
  8
0
100
AcDbLine
 10
314.8702659737239
 20
1844.5696624084358
 30
0.0
 11
315.98292016156597
 21
1823.3389557640485
 31
0.0
  0
LINE
  5
E4
330
17
100
AcDbEntity
  8
0
100
AcDbLine
 10
315.98292016156597
 20
1823.3389557640485
 30
0.0
 11
294.7522135171795
 21
1822.2263015762064
 31
0.0
  0
LINE
  5
E5
330
17
100
AcDbEntity
  8
0
100
AcDbLine
 10
294.7522135171795
 20
1822.2263015762064
 30
0.0
 11
293.63955932933743
 21
1843.4570082205937
 31
0.0
  0
LINE
  5
E6
330
17
100
AcDbEntity
  8
0
100
AcDbLine
 10
293.63955932933743
 20
1843.4570082205937
 30
0.0
 11
293.63955932933743
 21
1843.4570082205937
 31
0.0
  0
LINE
  5
E7
330
17
100
AcDbEntity
  8
0
100
AcDbLine
 10
225.66721883021393
 20
1854.0874077220192
 30
0.0
 11
337.71817056448555
 21
1859.9597492689636
 31
0.0
  0
LINE
  5
E8
330
17
100
AcDbEntity
  8
0
100
AcDbLine
 10
234.23267535520853
 20
1848.622688060518
 30
0.0
 11
225.97628943794774
 21
1848.1899892096903
 31
0.0
  0
LINE
  5
E9
330
17
100
AcDbEntity
  8
0
100
AcDbLine
 10
225.97628943794774
 20
1848.1899892096903
 30
0.0
 11
225.66721883021393
 21
1854.0874077220192
 31
0.0
  0
LINE
  5
EA
330
17
100
AcDbEntity
  8
0
100
AcDbLine
 10
225.66721883021393
 20
1854.0874077220192
 30
0.0
 11
225.66721883021393
 21
1854.0874077220192
 31
0.0
  0
LINE
  5
EB
330
17
100
AcDbEntity
  8
0
100
AcDbLine
 10
225.82175413408078
 20
1851.1386984658557
 30
0.0
 11
136.1809927466598
 21
1846.4408252283
 31
0.0
  0
LINE
  5
EC
330
17
100
AcDbEntity
  8
0
100
AcDbLine
 10
136.1809927466598
 20
1846.4408252283
 30
0.0
 11
136.33552805052676
 21
1843.4921159721348
 31
0.0
  0
LINE
  5
ED
330
17
100
AcDbEntity
  8
0
100
AcDbLine
 10
136.33552805052676
 20
1843.4921159721348
 30
0.0
 11
225.97628943794774
 21
1848.1899892096903
 31
0.0
  0
LINE
  5
EE
330
17
100
AcDbEntity
  8
0
100
AcDbLine
 10
225.97628943794774
 20
1848.1899892096903
 30
0.0
 11
225.82175413408078
 21
1851.1386984658557
 31
0.0
  0
LINE
  5
EF
330
17
100
AcDbEntity
  8
0
100
AcDbLine
 10
225.82175413408078
 20
1851.1386984658557
 30
0.0
 11
225.82175413408078
 21
1851.1386984658557
 31
0.0
  0
LINE
  5
F0
330
17
100
AcDbEntity
  8
0
100
AcDbLine
 10
136.02645744279295
 20
1849.3895344844634
 30
0.0
 11
136.33552805052676
 21
1843.4921159721348
 31
0.0
  0
LINE
  5
F1
330
17
100
AcDbEntity
  8
0
100
AcDbLine
 10
136.33552805052676
 20
1843.4921159721348
 30
0.0
 11
128.07914213326563
 21
1843.0594171213074
 31
0.0
  0
LINE
  5
F2
330
17
100
AcDbEntity
  8
0
100
AcDbLine
 10
127.7700715255318
 20
1848.9568356336358
 30
0.0
 11
127.7700715255318
 21
1848.9568356336358
 31
0.0
  0
LINE
  5
F3
330
17
100
AcDbEntity
  8
0
100
AcDbLine
 10
255.87348817048516
 20
1344.7340101109678
 30
0.0
 11
255.82622433087
 21
1345.2591543793521
 31
0.0
  0
LINE
  5
F4
330
17
100
AcDbEntity
  8
0
100
AcDbLine
 10
255.82622433087
 20
1345.2591543793521
 30
0.0
 11
255.73984857021293
 21
1345.7792982066933
 31
0.0
  0
LINE
  5
F5
330
17
100
AcDbEntity
  8
0
100
AcDbLine
 10
255.73984857021293
 20
1345.7792982066933
 30
0.0
 11
255.61484393680644
 21
1346.2915327377207
 31
0.0
  0
LINE
  5
F6
330
17
100
AcDbEntity
  8
0
100
AcDbLine
 10
255.61484393680644
 20
1346.2915327377207
 30
0.0
 11
255.45190950726584
 21
1346.7929933491548
 31
0.0
  0
LINE
  5
F7
330
17
100
AcDbEntity
  8
0
100
AcDbLine
 10
255.45190950726584
 20
1346.7929933491548
 30
0.0
 11
255.25195647701526
 21
1347.280875669847
 31
0.0
  0
LINE
  5
F8
330
17
100
AcDbEntity
  8
0
100
AcDbLine
 10
255.25195647701526
 20
1347.280875669847
 30
0.0
 11
255.0161030645056
 21
1347.7524512639557
 31
0.0
  0
LINE
  5
F9
330
17
100
AcDbEntity
  8
0
100
AcDbLine
 10
255.0161030645056
 20
1347.7524512639557
 30
0.0
 11
254.74566825769233
 21
1348.2050828894683
 31
0.0
  0
LINE
  5
FA
330
17
100
AcDbEntity
  8
0
100
AcDbLine
 10
254.74566825769233
 20
1348.2050828894683
 30
0.0
 11
254.44216443771373
 21
1348.6362392467322
 31
0.0
  0
LINE
  5
FB
330
17
100
AcDbEntity
  8
0
100
AcDbLine
 10
254.44216443771373
 20
1348.6362392467322
 30
0.0
 11
254.1072889210424
 21
1349.0435091345034
 31
0.0
  0
LINE
  5
FC
330
17
100
AcDbEntity
  8
0
100
AcDbLine
 10
254.1072889210424
 20
1349.0435091345034
 30
0.0
 11
253.74291446740915
 21
1349.4246149343655
 31
0.0
  0
LINE
  5
FD
330
17
100
AcDbEntity
  8
0
100
AcDbLine
 10
253.74291446740915
 20
1349.4246149343655
 30
0.0
 11
253.35107880655815
 21
1349.777425348096
 31
0.0
  0
LINE
  5
FE
330
17
100
AcDbEntity
  8
0
100
AcDbLine
 10
253.35107880655815
 20
1349.777425348096
 30
0.0
 11
252.9339732424506
 21
1350.0999673167466
 31
0.0
  0
LINE
  5
FF
330
17
100
AcDbEntity
  8
0
100
AcDbLine
 10
252.9339732424506
 20
1350.0999673167466
 30
0.0
 11
252.49393039859382
 21
1350.3904370547946
 31
0.0
  0
LINE
  5
100
330
17
100
AcDbEntity
  8
0
100
AcDbLine
 10
252.49393039859382
 20
1350.3904370547946
 30
0.0
 11
252.03341117307076
 21
1350.6472101376382
 31
0.0
  0
LINE
  5
101
330
17
100
AcDbEntity
  8
0
100
AcDbLine
 10
252.03341117307076
 20
1350.6472101376382
 30
0.0
 11
251.5549909761904
 21
1350.8688505860416
 31
0.0
  0
LINE
  5
102
330
17
100
AcDbEntity
  8
0
100
AcDbLine
 10
251.5549909761904
 20
1350.8688505860416
 30
0.0
 11
251.0613453277632
 21
1351.0541188967134
 31
0.0
  0
LINE
  5
103
330
17
100
AcDbEntity
  8
0
100
AcDbLine
 10
251.0613453277632
 20
1351.0541188967134
 30
0.0
 11
250.55523489449428
 21
1351.2019789741066
 31
0.0
  0
LINE
  5
104
330
17
100
AcDbEntity
  8
0
100
AcDbLine
 10
250.55523489449428
 20
1351.2019789741066
 30
0.0
 11
250.03949005122314
 21
1351.311603924691
 31
0.0
  0
LINE
  5
105
330
17
100
AcDbEntity
  8
0
100
AcDbLine
 10
250.03949005122314
 20
1351.311603924691
 30
0.0
 11
249.51699505232162
 21
1351.3823806812757
 31
0.0
  0
LINE
  5
106
330
17
100
AcDbEntity
  8
0
100
AcDbLine
 10
249.51699505232162
 20
1351.3823806812757
 30
0.0
 11
248.990671901765
 21
1351.4139134315265
 31
0.0
  0
LINE
  5
107
330
17
100
AcDbEntity
  8
0
100
AcDbLine
 10
248.990671901765
 20
1351.4139134315265
 30
0.0
 11
248.46346401210775
 21
1351.4060258315176
 31
0.0
  0
LINE
  5
108
330
17
100
AcDbEntity
  8
0
100
AcDbLine
 10
248.46346401210775
 20
1351.4060258315176
 30
0.0
 11
247.93831974372503
 21
1351.3587619918999
 31
0.0
  0
LINE
  5
109
330
17
100
AcDbEntity
  8
0
100
AcDbLine
 10
247.93831974372503
 20
1351.3587619918999
 30
0.0
 11
247.41817591638258
 21
1351.2723862312444
 31
0.0
  0
LINE
  5
10A
330
17
100
AcDbEntity
  8
0
100
AcDbLine
 10
247.41817591638258
 20
1351.2723862312444
 30
0.0
 11
246.90594138535545
 21
1351.1473815978375
 31
0.0
  0
LINE
  5
10B
330
17
100
AcDbEntity
  8
0
100
AcDbLine
 10
246.90594138535545
 20
1351.1473815978375
 30
0.0
 11
246.4044807739195
 21
1350.9844471682973
 31
0.0
  0
LINE
  5
10C
330
17
100
AcDbEntity
  8
0
100
AcDbLine
 10
246.4044807739195
 20
1350.9844471682973
 30
0.0
 11
245.91659845322863
 21
1350.7844941380456
 31
0.0
  0
LINE
  5
10D
330
17
100
AcDbEntity
  8
0
100
AcDbLine
 10
245.91659845322863
 20
1350.7844941380456
 30
0.0
 11
245.44502285912026
 21
1350.5486407255357
 31
0.0
  0
LINE
  5
10E
330
17
100
AcDbEntity
  8
0
100
AcDbLine
 10
245.44502285912026
 20
1350.5486407255357
 30
0.0
 11
244.9923912336074
 21
1350.2782059187234
 31
0.0
  0
LINE
  5
10F
330
17
100
AcDbEntity
  8
0
100
AcDbLine
 10
244.9923912336074
 20
1350.2782059187234
 30
0.0
 11
244.56123487634483
 21
1349.974702098745
 31
0.0
  0
LINE
  5
110
330
17
100
AcDbEntity
  8
0
100
AcDbLine
 10
244.56123487634483
 20
1349.974702098745
 30
0.0
 11
244.15396498857203
 21
1349.639826582074
 31
0.0
  0
LINE
  5
111
330
17
100
AcDbEntity
  8
0
100
AcDbLine
 10
244.15396498857203
 20
1349.639826582074
 30
0.0
 11
243.77285918870965
 21
1349.2754521284392
 31
0.0
  0
LINE
  5
112
330
17
100
AcDbEntity
  8
0
100
AcDbLine
 10
243.77285918870965
 20
1349.2754521284392
 30
0.0
 11
243.42004877498005
 21
1348.8836164675881
 31
0.0
  0
LINE
  5
113
330
17
100
AcDbEntity
  8
0
100
AcDbLine
 10
243.42004877498005
 20
1348.8836164675881
 30
0.0
 11
243.09750680632956
 21
1348.4665109034813
 31
0.0
  0
LINE
  5
114
330
17
100
AcDbEntity
  8
0
100
AcDbLine
 10
243.09750680632956
 20
1348.4665109034813
 30
0.0
 11
242.80703706828254
 21
1348.026468059625
 31
0.0
  0
LINE
  5
115
330
17
100
AcDbEntity
  8
0
100
AcDbLine
 10
242.80703706828254
 20
1348.026468059625
 30
0.0
 11
242.55026398543743
 21
1347.5659488341005
 31
0.0
  0
LINE
  5
116
330
17
100
AcDbEntity
  8
0
100
AcDbLine
 10
242.55026398543743
 20
1347.5659488341005
 30
0.0
 11
242.32862353703305
 21
1347.0875286372218
 31
0.0
  0
LINE
  5
117
330
17
100
AcDbEntity
  8
0
100
AcDbLine
 10
242.32862353703305
 20
1347.0875286372218
 30
0.0
 11
242.14335522636247
 21
1346.5938829887934
 31
0.0
  0
LINE
  5
118
330
17
100
AcDbEntity
  8
0
100
AcDbLine
 10
242.14335522636247
 20
1346.5938829887934
 30
0.0
 11
241.9954951489696
 21
1346.087772555524
 31
0.0
  0
LINE
  5
119
330
17
100
AcDbEntity
  8
0
100
AcDbLine
 10
241.9954951489696
 20
1346.087772555524
 30
0.0
 11
241.8858701983845
 21
1345.5720277122548
 31
0.0
  0
LINE
  5
11A
330
17
100
AcDbEntity
  8
0
100
AcDbLine
 10
241.8858701983845
 20
1345.5720277122548
 30
0.0
 11
241.81509344180023
 21
1345.049532713353
 31
0.0
  0
LINE
  5
11B
330
17
100
AcDbEntity
  8
0
100
AcDbLine
 10
241.81509344180023
 20
1345.049532713353
 30
0.0
 11
241.7835606915478
 21
1344.5232095627966
 31
0.0
  0
LINE
  5
11C
330
17
100
AcDbEntity
  8
0
100
AcDbLine
 10
241.7835606915478
 20
1344.5232095627966
 30
0.0
 11
241.79144829155936
 21
1343.996001673138
 31
0.0
  0
LINE
  5
11D
330
17
100
AcDbEntity
  8
0
100
AcDbLine
 10
241.79144829155936
 20
1343.996001673138
 30
0.0
 11
241.8387121311744
 21
1343.4708574047565
 31
0.0
  0
LINE
  5
11E
330
17
100
AcDbEntity
  8
0
100
AcDbLine
 10
241.8387121311744
 20
1343.4708574047565
 30
0.0
 11
241.92508789183154
 21
1342.9507135774138
 31
0.0
  0
LINE
  5
11F
330
17
100
AcDbEntity
  8
0
100
AcDbLine
 10
241.92508789183154
 20
1342.9507135774138
 30
0.0
 11
242.050092525238
 21
1342.4384790463866
 31
0.0
  0
LINE
  5
120
330
17
100
AcDbEntity
  8
0
100
AcDbLine
 10
242.050092525238
 20
1342.4384790463866
 30
0.0
 11
242.2130269547788
 21
1341.937018434951
 31
0.0
  0
LINE
  5
121
330
17
100
AcDbEntity
  8
0
100
AcDbLine
 10
242.2130269547788
 20
1341.937018434951
 30
0.0
 11
242.41297998503012
 21
1341.4491361142602
 31
0.0
  0
LINE
  5
122
330
17
100
AcDbEntity
  8
0
100
AcDbLine
 10
242.41297998503012
 20
1341.4491361142602
 30
0.0
 11
242.64883339753897
 21
1340.97756052015
 31
0.0
  0
LINE
  5
123
330
17
100
AcDbEntity
  8
0
100
AcDbLine
 10
242.64883339753897
 20
1340.97756052015
 30
0.0
 11
242.9192682043523
 21
1340.5249288946377
 31
0.0
  0
LINE
  5
124
330
17
100
AcDbEntity
  8
0
100
AcDbLine
 10
242.9192682043523
 20
1340.5249288946377
 30
0.0
 11
243.22277202433224
 21
1340.0937725373738
 31
0.0
  0
LINE
  5
125
330
17
100
AcDbEntity
  8
0
100
AcDbLine
 10
243.22277202433224
 20
1340.0937725373738
 30
0.0
 11
243.55764754100207
 21
1339.6865026496034
 31
0.0
  0
LINE
  5
126
330
17
100
AcDbEntity
  8
0
100
AcDbLine
 10
243.55764754100207
 20
1339.6865026496034
 30
0.0
 11
243.9220219946367
 21
1339.3053968497409
 31
0.0
  0
LINE
  5
127
330
17
100
AcDbEntity
  8
0
100
AcDbLine
 10
243.9220219946367
 20
1339.3053968497409
 30
0.0
 11
244.3138576554869
 21
1338.9525864360103
 31
0.0
  0
LINE
  5
128
330
17
100
AcDbEntity
  8
0
100
AcDbLine
 10
244.3138576554869
 20
1338.9525864360103
 30
0.0
 11
244.73096321959437
 21
1338.6300444673593
 31
0.0
  0
LINE
  5
129
330
17
100
AcDbEntity
  8
0
100
AcDbLine
 10
244.73096321959437
 20
1338.6300444673593
 30
0.0
 11
245.17100606345204
 21
1338.3395747293139
 31
0.0
  0
LINE
  5
12A
330
17
100
AcDbEntity
  8
0
100
AcDbLine
 10
245.17100606345204
 20
1338.3395747293139
 30
0.0
 11
245.63152528897518
 21
1338.082801646469
 31
0.0
  0
LINE
  5
12B
330
17
100
AcDbEntity
  8
0
100
AcDbLine
 10
245.63152528897518
 20
1338.082801646469
 30
0.0
 11
246.1099454858541
 21
1337.861161198064
 31
0.0
  0
LINE
  5
12C
330
17
100
AcDbEntity
  8
0
100
AcDbLine
 10
246.1099454858541
 20
1337.861161198064
 30
0.0
 11
246.60359113428217
 21
1337.6758928873942
 31
0.0
  0
LINE
  5
12D
330
17
100
AcDbEntity
  8
0
100
AcDbLine
 10
246.60359113428217
 20
1337.6758928873942
 30
0.0
 11
247.10970156755027
 21
1337.5280328100007
 31
0.0
  0
LINE
  5
12E
330
17
100
AcDbEntity
  8
0
100
AcDbLine
 10
247.10970156755027
 20
1337.5280328100007
 30
0.0
 11
247.62544641082135
 21
1337.4184078594149
 31
0.0
  0
LINE
  5
12F
330
17
100
AcDbEntity
  8
0
100
AcDbLine
 10
247.62544641082135
 20
1337.4184078594149
 30
0.0
 11
248.14794140972285
 21
1337.3476311028314
 31
0.0
  0
LINE
  5
130
330
17
100
AcDbEntity
  8
0
100
AcDbLine
 10
248.14794140972285
 20
1337.3476311028314
 30
0.0
 11
248.67426456028053
 21
1337.3160983525795
 31
0.0
  0
LINE
  5
131
330
17
100
AcDbEntity
  8
0
100
AcDbLine
 10
248.67426456028053
 20
1337.3160983525795
 30
0.0
 11
249.20147244993754
 21
1337.323985952591
 31
0.0
  0
LINE
  5
132
330
17
100
AcDbEntity
  8
0
100
AcDbLine
 10
249.20147244993754
 20
1337.323985952591
 30
0.0
 11
249.7266167183205
 21
1337.371249792206
 31
0.0
  0
LINE
  5
133
330
17
100
AcDbEntity
  8
0
100
AcDbLine
 10
249.7266167183205
 20
1337.371249792206
 30
0.0
 11
250.24676054566189
 21
1337.4576255528627
 31
0.0
  0
LINE
  5
134
330
17
100
AcDbEntity
  8
0
100
AcDbLine
 10
250.24676054566189
 20
1337.4576255528627
 30
0.0
 11
250.75899507668905
 21
1337.5826301862685
 31
0.0
  0
LINE
  5
135
330
17
100
AcDbEntity
  8
0
100
AcDbLine
 10
250.75899507668905
 20
1337.5826301862685
 30
0.0
 11
251.26045568812506
 21
1337.7455646158098
 31
0.0
  0
LINE
  5
136
330
17
100
AcDbEntity
  8
0
100
AcDbLine
 10
251.26045568812506
 20
1337.7455646158098
 30
0.0
 11
251.74833800881675
 21
1337.945517646062
 31
0.0
  0
LINE
  5
137
330
17
100
AcDbEntity
  8
0
100
AcDbLine
 10
251.74833800881675
 20
1337.945517646062
 30
0.0
 11
252.21991360292424
 21
1338.18137105857
 31
0.0
  0
LINE
  5
138
330
17
100
AcDbEntity
  8
0
100
AcDbLine
 10
252.21991360292424
 20
1338.18137105857
 30
0.0
 11
252.67254522843854
 21
1338.451805865384
 31
0.0
  0
LINE
  5
139
330
17
100
AcDbEntity
  8
0
100
AcDbLine
 10
252.67254522843854
 20
1338.451805865384
 30
0.0
 11
253.10370158570103
 21
1338.7553096853635
 31
0.0
  0
LINE
  5
13A
330
17
100
AcDbEntity
  8
0
100
AcDbLine
 10
253.10370158570103
 20
1338.7553096853635
 30
0.0
 11
253.51097147347295
 21
1339.090185202032
 31
0.0
  0
LINE
  5
13B
330
17
100
AcDbEntity
  8
0
100
AcDbLine
 10
253.51097147347295
 20
1339.090185202032
 30
0.0
 11
253.89207727333542
 21
1339.454559655667
 31
0.0
  0
LINE
  5
13C
330
17
100
AcDbEntity
  8
0
100
AcDbLine
 10
253.89207727333542
 20
1339.454559655667
 30
0.0
 11
254.2448876870658
 21
1339.846395316518
 31
0.0
  0
LINE
  5
13D
330
17
100
AcDbEntity
  8
0
100
AcDbLine
 10
254.2448876870658
 20
1339.846395316518
 30
0.0
 11
254.5674296557149
 21
1340.2635008806255
 31
0.0
  0
LINE
  5
13E
330
17
100
AcDbEntity
  8
0
100
AcDbLine
 10
254.5674296557149
 20
1340.2635008806255
 30
0.0
 11
254.85789939376343
 21
1340.703543724481
 31
0.0
  0
LINE
  5
13F
330
17
100
AcDbEntity
  8
0
100
AcDbLine
 10
254.85789939376343
 20
1340.703543724481
 30
0.0
 11
255.1146724766072
 21
1341.1640629500055
 31
0.0
  0
LINE
  5
140
330
17
100
AcDbEntity
  8
0
100
AcDbLine
 10
255.1146724766072
 20
1341.1640629500055
 30
0.0
 11
255.3363129250115
 21
1341.642483146884
 31
0.0
  0
LINE
  5
141
330
17
100
AcDbEntity
  8
0
100
AcDbLine
 10
255.3363129250115
 20
1341.642483146884
 30
0.0
 11
255.5215812356829
 21
1342.1361287953139
 31
0.0
  0
LINE
  5
142
330
17
100
AcDbEntity
  8
0
100
AcDbLine
 10
255.5215812356829
 20
1342.1361287953139
 30
0.0
 11
255.66944131307503
 21
1342.6422392285815
 31
0.0
  0
LINE
  5
143
330
17
100
AcDbEntity
  8
0
100
AcDbLine
 10
255.66944131307503
 20
1342.6422392285815
 30
0.0
 11
255.77906626365993
 21
1343.1579840718525
 31
0.0
  0
LINE
  5
144
330
17
100
AcDbEntity
  8
0
100
AcDbLine
 10
255.77906626365993
 20
1343.1579840718525
 30
0.0
 11
255.84984302024424
 21
1343.680479070754
 31
0.0
  0
LINE
  5
145
330
17
100
AcDbEntity
  8
0
100
AcDbLine
 10
255.84984302024424
 20
1343.680479070754
 30
0.0
 11
255.8813757704966
 21
1344.206802221312
 31
0.0
  0
LINE
  5
146
330
17
100
AcDbEntity
  8
0
100
AcDbLine
 10
255.8813757704966
 20
1344.206802221312
 30
0.0
 11
255.87348817048516
 21
1344.7340101109678
 31
0.0
  0
LINE
  5
147
330
17
100
AcDbEntity
  8
0
100
AcDbLine
 10
83.996370385868
 20
1690.543285049696
 30
0.0
 11
83.94910654625292
 21
1691.0684293180784
 31
0.0
  0
LINE
  5
148
330
17
100
AcDbEntity
  8
0
100
AcDbLine
 10
83.94910654625292
 20
1691.0684293180784
 30
0.0
 11
83.86273078559623
 21
1691.588573145421
 31
0.0
  0
LINE
  5
149
330
17
100
AcDbEntity
  8
0
100
AcDbLine
 10
83.86273078559623
 20
1691.588573145421
 30
0.0
 11
83.73772615218942
 21
1692.1008076764483
 31
0.0
  0
LINE
  5
14A
330
17
100
AcDbEntity
  8
0
100
AcDbLine
 10
83.73772615218942
 20
1692.1008076764483
 30
0.0
 11
83.57479172264905
 21
1692.602268287883
 31
0.0
  0
LINE
  5
14B
330
17
100
AcDbEntity
  8
0
100
AcDbLine
 10
83.57479172264905
 20
1692.602268287883
 30
0.0
 11
83.37483869239855
 21
1693.0901506085747
 31
0.0
  0
LINE
  5
14C
330
17
100
AcDbEntity
  8
0
100
AcDbLine
 10
83.37483869239855
 20
1693.0901506085747
 30
0.0
 11
83.13898527988833
 21
1693.5617262026835
 31
0.0
  0
LINE
  5
14D
330
17
100
AcDbEntity
  8
0
100
AcDbLine
 10
83.13898527988833
 20
1693.5617262026835
 30
0.0
 11
82.86855047307598
 21
1694.0143578281964
 31
0.0
  0
LINE
  5
14E
330
17
100
AcDbEntity
  8
0
100
AcDbLine
 10
82.86855047307598
 20
1694.0143578281964
 30
0.0
 11
82.56504665309672
 21
1694.44551418546
 31
0.0
  0
LINE
  5
14F
330
17
100
AcDbEntity
  8
0
100
AcDbLine
 10
82.56504665309672
 20
1694.44551418546
 30
0.0
 11
82.2301711364257
 21
1694.8527840732318
 31
0.0
  0
LINE
  5
150
330
17
100
AcDbEntity
  8
0
100
AcDbLine
 10
82.2301711364257
 20
1694.8527840732318
 30
0.0
 11
81.86579668279168
 21
1695.2338898730934
 31
0.0
  0
LINE
  5
151
330
17
100
AcDbEntity
  8
0
100
AcDbLine
 10
81.86579668279168
 20
1695.2338898730934
 30
0.0
 11
81.47396102194067
 21
1695.5867002868235
 31
0.0
  0
LINE
  5
152
330
17
100
AcDbEntity
  8
0
100
AcDbLine
 10
81.47396102194067
 20
1695.5867002868235
 30
0.0
 11
81.05685545783325
 21
1695.9092422554743
 31
0.0
  0
LINE
  5
153
330
17
100
AcDbEntity
  8
0
100
AcDbLine
 10
81.05685545783325
 20
1695.9092422554743
 30
0.0
 11
80.61681261397658
 21
1696.1997119935222
 31
0.0
  0
LINE
  5
154
330
17
100
AcDbEntity
  8
0
100
AcDbLine
 10
80.61681261397658
 20
1696.1997119935222
 30
0.0
 11
80.15629338845237
 21
1696.4564850763659
 31
0.0
  0
LINE
  5
155
330
17
100
AcDbEntity
  8
0
100
AcDbLine
 10
80.15629338845237
 20
1696.4564850763659
 30
0.0
 11
79.67787319157338
 21
1696.6781255247695
 31
0.0
  0
LINE
  5
156
330
17
100
AcDbEntity
  8
0
100
AcDbLine
 10
79.67787319157338
 20
1696.6781255247695
 30
0.0
 11
79.1842275431464
 21
1696.863393835441
 31
0.0
  0
LINE
  5
157
330
17
100
AcDbEntity
  8
0
100
AcDbLine
 10
79.1842275431464
 20
1696.863393835441
 30
0.0
 11
78.67811710987728
 21
1697.0112539128345
 31
0.0
  0
LINE
  5
158
330
17
100
AcDbEntity
  8
0
100
AcDbLine
 10
78.67811710987728
 20
1697.0112539128345
 30
0.0
 11
78.16237226660633
 21
1697.120878863419
 31
0.0
  0
LINE
  5
159
330
17
100
AcDbEntity
  8
0
100
AcDbLine
 10
78.16237226660633
 20
1697.120878863419
 30
0.0
 11
77.63987726770458
 21
1697.1916556200035
 31
0.0
  0
LINE
  5
15A
330
17
100
AcDbEntity
  8
0
100
AcDbLine
 10
77.63987726770458
 20
1697.1916556200035
 30
0.0
 11
77.11355411714823
 21
1697.2231883702543
 31
0.0
  0
LINE
  5
15B
330
17
100
AcDbEntity
  8
0
100
AcDbLine
 10
77.11355411714823
 20
1697.2231883702543
 30
0.0
 11
76.58634622749081
 21
1697.215300770244
 31
0.0
  0
LINE
  5
15C
330
17
100
AcDbEntity
  8
0
100
AcDbLine
 10
76.58634622749081
 20
1697.215300770244
 30
0.0
 11
76.06120195910825
 21
1697.1680369306277
 31
0.0
  0
LINE
  5
15D
330
17
100
AcDbEntity
  8
0
100
AcDbLine
 10
76.06120195910825
 20
1697.1680369306277
 30
0.0
 11
75.54105813176554
 21
1697.0816611699724
 31
0.0
  0
LINE
  5
15E
330
17
100
AcDbEntity
  8
0
100
AcDbLine
 10
75.54105813176554
 20
1697.0816611699724
 30
0.0
 11
75.02882360073829
 21
1696.9566565365658
 31
0.0
  0
LINE
  5
15F
330
17
100
AcDbEntity
  8
0
100
AcDbLine
 10
75.02882360073829
 20
1696.9566565365658
 30
0.0
 11
74.52736298930272
 21
1696.7937221070251
 31
0.0
  0
LINE
  5
160
330
17
100
AcDbEntity
  8
0
100
AcDbLine
 10
74.52736298930272
 20
1696.7937221070251
 30
0.0
 11
74.0394806686107
 21
1696.5937690767732
 31
0.0
  0
LINE
  5
161
330
17
100
AcDbEntity
  8
0
100
AcDbLine
 10
74.0394806686107
 20
1696.5937690767732
 30
0.0
 11
73.56790507450336
 21
1696.3579156642636
 31
0.0
  0
LINE
  5
162
330
17
100
AcDbEntity
  8
0
100
AcDbLine
 10
73.56790507450336
 20
1696.3579156642636
 30
0.0
 11
73.11527344899038
 21
1696.0874808574513
 31
0.0
  0
LINE
  5
163
330
17
100
AcDbEntity
  8
0
100
AcDbLine
 10
73.11527344899038
 20
1696.0874808574513
 30
0.0
 11
72.68411709172668
 21
1695.7839770374726
 31
0.0
  0
LINE
  5
164
330
17
100
AcDbEntity
  8
0
100
AcDbLine
 10
72.68411709172668
 20
1695.7839770374726
 30
0.0
 11
72.27684720395592
 21
1695.4491015208018
 31
0.0
  0
LINE
  5
165
330
17
100
AcDbEntity
  8
0
100
AcDbLine
 10
72.27684720395592
 20
1695.4491015208018
 30
0.0
 11
71.89574140409216
 21
1695.084727067167
 31
0.0
  0
LINE
  5
166
330
17
100
AcDbEntity
  8
0
100
AcDbLine
 10
71.89574140409216
 20
1695.084727067167
 30
0.0
 11
71.54293099036315
 21
1694.692891406316
 31
0.0
  0
LINE
  5
167
330
17
100
AcDbEntity
  8
0
100
AcDbLine
 10
71.54293099036315
 20
1694.692891406316
 30
0.0
 11
71.2203890217123
 21
1694.2757858422092
 31
0.0
  0
LINE
  5
168
330
17
100
AcDbEntity
  8
0
100
AcDbLine
 10
71.2203890217123
 20
1694.2757858422092
 30
0.0
 11
70.92991928366553
 21
1693.8357429983525
 31
0.0
  0
LINE
  5
169
330
17
100
AcDbEntity
  8
0
100
AcDbLine
 10
70.92991928366553
 20
1693.8357429983525
 30
0.0
 11
70.67314620082063
 21
1693.3752237728286
 31
0.0
  0
LINE
  5
16A
330
17
100
AcDbEntity
  8
0
100
AcDbLine
 10
70.67314620082063
 20
1693.3752237728286
 30
0.0
 11
70.45150575241603
 21
1692.8968035759494
 31
0.0
  0
LINE
  5
16B
330
17
100
AcDbEntity
  8
0
100
AcDbLine
 10
70.45150575241603
 20
1692.8968035759494
 30
0.0
 11
70.26623744174566
 21
1692.403157927521
 31
0.0
  0
LINE
  5
16C
330
17
100
AcDbEntity
  8
0
100
AcDbLine
 10
70.26623744174566
 20
1692.403157927521
 30
0.0
 11
70.11837736435237
 21
1691.897047494252
 31
0.0
  0
LINE
  5
16D
330
17
100
AcDbEntity
  8
0
100
AcDbLine
 10
70.11837736435237
 20
1691.897047494252
 30
0.0
 11
70.00875241376886
 21
1691.3813026509824
 31
0.0
  0
LINE
  5
16E
330
17
100
AcDbEntity
  8
0
100
AcDbLine
 10
70.00875241376886
 20
1691.3813026509824
 30
0.0
 11
69.93797565718319
 21
1690.858807652081
 31
0.0
  0
LINE
  5
16F
330
17
100
AcDbEntity
  8
0
100
AcDbLine
 10
69.93797565718319
 20
1690.858807652081
 30
0.0
 11
69.90644290693106
 21
1690.3324845015231
 31
0.0
  0
LINE
  5
170
330
17
100
AcDbEntity
  8
0
100
AcDbLine
 10
69.90644290693106
 20
1690.3324845015231
 30
0.0
 11
69.91433050694255
 21
1689.8052766118662
 31
0.0
  0
LINE
  5
171
330
17
100
AcDbEntity
  8
0
100
AcDbLine
 10
69.91433050694255
 20
1689.8052766118662
 30
0.0
 11
69.96159434655766
 21
1689.2801323434828
 31
0.0
  0
LINE
  5
172
330
17
100
AcDbEntity
  8
0
100
AcDbLine
 10
69.96159434655766
 20
1689.2801323434828
 30
0.0
 11
70.04797010721452
 21
1688.7599885161417
 31
0.0
  0
LINE
  5
173
330
17
100
AcDbEntity
  8
0
100
AcDbLine
 10
70.04797010721452
 20
1688.7599885161417
 30
0.0
 11
70.17297474062235
 21
1688.2477539851143
 31
0.0
  0
LINE
  5
174
330
17
100
AcDbEntity
  8
0
100
AcDbLine
 10
70.17297474062235
 20
1688.2477539851143
 30
0.0
 11
70.33590917016153
 21
1687.7462933736788
 31
0.0
  0
LINE
  5
175
330
17
100
AcDbEntity
  8
0
100
AcDbLine
 10
70.33590917016153
 20
1687.7462933736788
 30
0.0
 11
70.53586220041332
 21
1687.2584110529879
 31
0.0
  0
LINE
  5
176
330
17
100
AcDbEntity
  8
0
100
AcDbLine
 10
70.53586220041332
 20
1687.2584110529879
 30
0.0
 11
70.77171561292192
 21
1686.7868354588782
 31
0.0
  0
LINE
  5
177
330
17
100
AcDbEntity
  8
0
100
AcDbLine
 10
70.77171561292192
 20
1686.7868354588782
 30
0.0
 11
71.0421504197355
 21
1686.3342038333653
 31
0.0
  0
LINE
  5
178
330
17
100
AcDbEntity
  8
0
100
AcDbLine
 10
71.0421504197355
 20
1686.3342038333653
 30
0.0
 11
71.34565423971523
 21
1685.9030474761014
 31
0.0
  0
LINE
  5
179
330
17
100
AcDbEntity
  8
0
100
AcDbLine
 10
71.34565423971523
 20
1685.9030474761014
 30
0.0
 11
71.68052975638483
 21
1685.4957775883313
 31
0.0
  0
LINE
  5
17A
330
17
100
AcDbEntity
  8
0
100
AcDbLine
 10
71.68052975638483
 20
1685.4957775883313
 30
0.0
 11
72.04490421001978
 21
1685.1146717884687
 31
0.0
  0
LINE
  5
17B
330
17
100
AcDbEntity
  8
0
100
AcDbLine
 10
72.04490421001978
 20
1685.1146717884687
 30
0.0
 11
72.43673987086945
 21
1684.7618613747381
 31
0.0
  0
LINE
  5
17C
330
17
100
AcDbEntity
  8
0
100
AcDbLine
 10
72.43673987086945
 20
1684.7618613747381
 30
0.0
 11
72.85384543497824
 21
1684.4393194060874
 31
0.0
  0
LINE
  5
17D
330
17
100
AcDbEntity
  8
0
100
AcDbLine
 10
72.85384543497824
 20
1684.4393194060874
 30
0.0
 11
73.29388827883389
 21
1684.1488496680417
 31
0.0
  0
LINE
  5
17E
330
17
100
AcDbEntity
  8
0
100
AcDbLine
 10
73.29388827883389
 20
1684.1488496680417
 30
0.0
 11
73.75440750435814
 21
1683.8920765851967
 31
0.0
  0
LINE
  5
17F
330
17
100
AcDbEntity
  8
0
100
AcDbLine
 10
73.75440750435814
 20
1683.8920765851967
 30
0.0
 11
74.2328277012372
 21
1683.670436136792
 31
0.0
  0
LINE
  5
180
330
17
100
AcDbEntity
  8
0
100
AcDbLine
 10
74.2328277012372
 20
1683.670436136792
 30
0.0
 11
74.72647334966423
 21
1683.4851678261218
 31
0.0
  0
LINE
  5
181
330
17
100
AcDbEntity
  8
0
100
AcDbLine
 10
74.72647334966423
 20
1683.4851678261218
 30
0.0
 11
75.23258378293347
 21
1683.3373077487283
 31
0.0
  0
LINE
  5
182
330
17
100
AcDbEntity
  8
0
100
AcDbLine
 10
75.23258378293347
 20
1683.3373077487283
 30
0.0
 11
75.74832862620423
 21
1683.2276827981432
 31
0.0
  0
LINE
  5
183
330
17
100
AcDbEntity
  8
0
100
AcDbLine
 10
75.74832862620423
 20
1683.2276827981432
 30
0.0
 11
76.27082362510582
 21
1683.156906041559
 31
0.0
  0
LINE
  5
184
330
17
100
AcDbEntity
  8
0
100
AcDbLine
 10
76.27082362510582
 20
1683.156906041559
 30
0.0
 11
76.79714677566366
 21
1683.1253732913087
 31
0.0
  0
LINE
  5
185
330
17
100
AcDbEntity
  8
0
100
AcDbLine
 10
76.79714677566366
 20
1683.1253732913087
 30
0.0
 11
77.32435466532051
 21
1683.1332608913187
 31
0.0
  0
LINE
  5
186
330
17
100
AcDbEntity
  8
0
100
AcDbLine
 10
77.32435466532051
 20
1683.1332608913187
 30
0.0
 11
77.84949893370364
 21
1683.1805247309353
 31
0.0
  0
LINE
  5
187
330
17
100
AcDbEntity
  8
0
100
AcDbLine
 10
77.84949893370364
 20
1683.1805247309353
 30
0.0
 11
78.36964276104486
 21
1683.2669004915906
 31
0.0
  0
LINE
  5
188
330
17
100
AcDbEntity
  8
0
100
AcDbLine
 10
78.36964276104486
 20
1683.2669004915906
 30
0.0
 11
78.88187729207226
 21
1683.3919051249964
 31
0.0
  0
LINE
  5
189
330
17
100
AcDbEntity
  8
0
100
AcDbLine
 10
78.88187729207226
 20
1683.3919051249964
 30
0.0
 11
79.38333790350804
 21
1683.5548395545375
 31
0.0
  0
LINE
  5
18A
330
17
100
AcDbEntity
  8
0
100
AcDbLine
 10
79.38333790350804
 20
1683.5548395545375
 30
0.0
 11
79.87122022419994
 21
1683.7547925847896
 31
0.0
  0
LINE
  5
18B
330
17
100
AcDbEntity
  8
0
100
AcDbLine
 10
79.87122022419994
 20
1683.7547925847896
 30
0.0
 11
80.34279581830722
 21
1683.9906459972979
 31
0.0
  0
LINE
  5
18C
330
17
100
AcDbEntity
  8
0
100
AcDbLine
 10
80.34279581830722
 20
1683.9906459972979
 30
0.0
 11
80.79542744382013
 21
1684.2610808041118
 31
0.0
  0
LINE
  5
18D
330
17
100
AcDbEntity
  8
0
100
AcDbLine
 10
80.79542744382013
 20
1684.2610808041118
 30
0.0
 11
81.22658380108379
 21
1684.5645846240914
 31
0.0
  0
LINE
  5
18E
330
17
100
AcDbEntity
  8
0
100
AcDbLine
 10
81.22658380108379
 20
1684.5645846240914
 30
0.0
 11
81.63385368885557
 21
1684.8994601407599
 31
0.0
  0
LINE
  5
18F
330
17
100
AcDbEntity
  8
0
100
AcDbLine
 10
81.63385368885557
 20
1684.8994601407599
 30
0.0
 11
82.01495948871795
 21
1685.2638345943951
 31
0.0
  0
LINE
  5
190
330
17
100
AcDbEntity
  8
0
100
AcDbLine
 10
82.01495948871795
 20
1685.2638345943951
 30
0.0
 11
82.36776990244832
 21
1685.6556702552462
 31
0.0
  0
LINE
  5
191
330
17
100
AcDbEntity
  8
0
100
AcDbLine
 10
82.36776990244832
 20
1685.6556702552462
 30
0.0
 11
82.69031187109823
 21
1686.0727758193534
 31
0.0
  0
LINE
  5
192
330
17
100
AcDbEntity
  8
0
100
AcDbLine
 10
82.69031187109823
 20
1686.0727758193534
 30
0.0
 11
82.98078160914642
 21
1686.5128186632087
 31
0.0
  0
LINE
  5
193
330
17
100
AcDbEntity
  8
0
100
AcDbLine
 10
82.98078160914642
 20
1686.5128186632087
 30
0.0
 11
83.23755469199087
 21
1686.973337888733
 31
0.0
  0
LINE
  5
194
330
17
100
AcDbEntity
  8
0
100
AcDbLine
 10
83.23755469199087
 20
1686.973337888733
 30
0.0
 11
83.45919514039423
 21
1687.4517580856118
 31
0.0
  0
LINE
  5
195
330
17
100
AcDbEntity
  8
0
100
AcDbLine
 10
83.45919514039423
 20
1687.4517580856118
 30
0.0
 11
83.64446345106622
 21
1687.9454037340415
 31
0.0
  0
LINE
  5
196
330
17
100
AcDbEntity
  8
0
100
AcDbLine
 10
83.64446345106622
 20
1687.9454037340415
 30
0.0
 11
83.79232352845821
 21
1688.4515141673096
 31
0.0
  0
LINE
  5
197
330
17
100
AcDbEntity
  8
0
100
AcDbLine
 10
83.79232352845821
 20
1688.4515141673096
 30
0.0
 11
83.90194847904291
 21
1688.9672590105802
 31
0.0
  0
LINE
  5
198
330
17
100
AcDbEntity
  8
0
100
AcDbLine
 10
83.90194847904291
 20
1688.9672590105802
 30
0.0
 11
83.97272523562756
 21
1689.4897540094817
 31
0.0
  0
LINE
  5
199
330
17
100
AcDbEntity
  8
0
100
AcDbLine
 10
83.97272523562756
 20
1689.4897540094817
 30
0.0
 11
84.00425798587952
 21
1690.0160771600385
 31
0.0
  0
LINE
  5
19A
330
17
100
AcDbEntity
  8
0
100
AcDbLine
 10
84.00425798587952
 20
1690.0160771600385
 30
0.0
 11
83.996370385868
 21
1690.543285049696
 31
0.0
  0
LINE
  5
19B
330
17
100
AcDbEntity
  8
0
100
AcDbLine
 10
1162.44695375297
 20
768.9503629775348
 30
0.0
 11
1162.399689913355
 21
769.4755072459177
 31
0.0
  0
LINE
  5
19C
330
17
100
AcDbEntity
  8
0
100
AcDbLine
 10
1162.399689913355
 20
769.4755072459177
 30
0.0
 11
1162.3133141526982
 21
769.9956510732591
 31
0.0
  0
LINE
  5
19D
330
17
100
AcDbEntity
  8
0
100
AcDbLine
 10
1162.3133141526982
 20
769.9956510732591
 30
0.0
 11
1162.1883095192923
 21
770.5078856042875
 31
0.0
  0
LINE
  5
19E
330
17
100
AcDbEntity
  8
0
100
AcDbLine
 10
1162.1883095192923
 20
770.5078856042875
 30
0.0
 11
1162.0253750897523
 21
771.0093462157231
 31
0.0
  0
LINE
  5
19F
330
17
100
AcDbEntity
  8
0
100
AcDbLine
 10
1162.0253750897523
 20
771.0093462157231
 30
0.0
 11
1161.8254220595002
 21
771.4972285364139
 31
0.0
  0
LINE
  5
1A0
330
17
100
AcDbEntity
  8
0
100
AcDbLine
 10
1161.8254220595002
 20
771.4972285364139
 30
0.0
 11
1161.5895686469903
 21
771.9688041305224
 31
0.0
  0
LINE
  5
1A1
330
17
100
AcDbEntity
  8
0
100
AcDbLine
 10
1161.5895686469903
 20
771.9688041305224
 30
0.0
 11
1161.319133840177
 21
772.4214357560352
 31
0.0
  0
LINE
  5
1A2
330
17
100
AcDbEntity
  8
0
100
AcDbLine
 10
1161.319133840177
 20
772.4214357560352
 30
0.0
 11
1161.0156300201984
 21
772.8525921132989
 31
0.0
  0
LINE
  5
1A3
330
17
100
AcDbEntity
  8
0
100
AcDbLine
 10
1161.0156300201984
 20
772.8525921132989
 30
0.0
 11
1160.680754503529
 21
773.2598620010699
 31
0.0
  0
LINE
  5
1A4
330
17
100
AcDbEntity
  8
0
100
AcDbLine
 10
1160.680754503529
 20
773.2598620010699
 30
0.0
 11
1160.316380049894
 21
773.6409678009331
 31
0.0
  0
LINE
  5
1A5
330
17
100
AcDbEntity
  8
0
100
AcDbLine
 10
1160.316380049894
 20
773.6409678009331
 30
0.0
 11
1159.9245443890427
 21
773.9937782146626
 31
0.0
  0
LINE
  5
1A6
330
17
100
AcDbEntity
  8
0
100
AcDbLine
 10
1159.9245443890427
 20
773.9937782146626
 30
0.0
 11
1159.5074388249354
 21
774.3163201833136
 31
0.0
  0
LINE
  5
1A7
330
17
100
AcDbEntity
  8
0
100
AcDbLine
 10
1159.5074388249354
 20
774.3163201833136
 30
0.0
 11
1159.0673959810786
 21
774.6067899213613
 31
0.0
  0
LINE
  5
1A8
330
17
100
AcDbEntity
  8
0
100
AcDbLine
 10
1159.0673959810786
 20
774.6067899213613
 30
0.0
 11
1158.6068767555555
 21
774.863563004204
 31
0.0
  0
LINE
  5
1A9
330
17
100
AcDbEntity
  8
0
100
AcDbLine
 10
1158.6068767555555
 20
774.863563004204
 30
0.0
 11
1158.1284565586768
 21
775.0852034526087
 31
0.0
  0
LINE
  5
1AA
330
17
100
AcDbEntity
  8
0
100
AcDbLine
 10
1158.1284565586768
 20
775.0852034526087
 30
0.0
 11
1157.6348109102485
 21
775.27047176328
 31
0.0
  0
LINE
  5
1AB
330
17
100
AcDbEntity
  8
0
100
AcDbLine
 10
1157.6348109102485
 20
775.27047176328
 30
0.0
 11
1157.1287004769786
 21
775.4183318406733
 31
0.0
  0
LINE
  5
1AC
330
17
100
AcDbEntity
  8
0
100
AcDbLine
 10
1157.1287004769786
 20
775.4183318406733
 30
0.0
 11
1156.6129556337096
 21
775.5279567912582
 31
0.0
  0
LINE
  5
1AD
330
17
100
AcDbEntity
  8
0
100
AcDbLine
 10
1156.6129556337096
 20
775.5279567912582
 30
0.0
 11
1156.090460634807
 21
775.5987335478424
 31
0.0
  0
LINE
  5
1AE
330
17
100
AcDbEntity
  8
0
100
AcDbLine
 10
1156.090460634807
 20
775.5987335478424
 30
0.0
 11
1155.56413748425
 21
775.6302662980946
 31
0.0
  0
LINE
  5
1AF
330
17
100
AcDbEntity
  8
0
100
AcDbLine
 10
1155.56413748425
 20
775.6302662980946
 30
0.0
 11
1155.036929594593
 21
775.6223786980831
 31
0.0
  0
LINE
  5
1B0
330
17
100
AcDbEntity
  8
0
100
AcDbLine
 10
1155.036929594593
 20
775.6223786980831
 30
0.0
 11
1154.5117853262102
 21
775.575114858468
 31
0.0
  0
LINE
  5
1B1
330
17
100
AcDbEntity
  8
0
100
AcDbLine
 10
1154.5117853262102
 20
775.575114858468
 30
0.0
 11
1153.9916414988688
 21
775.4887390978113
 31
0.0
  0
LINE
  5
1B2
330
17
100
AcDbEntity
  8
0
100
AcDbLine
 10
1153.9916414988688
 20
775.4887390978113
 30
0.0
 11
1153.47940696784
 21
775.3637344644046
 31
0.0
  0
LINE
  5
1B3
330
17
100
AcDbEntity
  8
0
100
AcDbLine
 10
1153.47940696784
 20
775.3637344644046
 30
0.0
 11
1152.9779463564048
 21
775.2008000348642
 31
0.0
  0
LINE
  5
1B4
330
17
100
AcDbEntity
  8
0
100
AcDbLine
 10
1152.9779463564048
 20
775.2008000348642
 30
0.0
 11
1152.4900640357139
 21
775.0008470046123
 31
0.0
  0
LINE
  5
1B5
330
17
100
AcDbEntity
  8
0
100
AcDbLine
 10
1152.4900640357139
 20
775.0008470046123
 30
0.0
 11
1152.018488441605
 21
774.7649935921025
 31
0.0
  0
LINE
  5
1B6
330
17
100
AcDbEntity
  8
0
100
AcDbLine
 10
1152.018488441605
 20
774.7649935921025
 30
0.0
 11
1151.5658568160927
 21
774.494558785289
 31
0.0
  0
LINE
  5
1B7
330
17
100
AcDbEntity
  8
0
100
AcDbLine
 10
1151.5658568160927
 20
774.494558785289
 30
0.0
 11
1151.1347004588285
 21
774.1910549653117
 31
0.0
  0
LINE
  5
1B8
330
17
100
AcDbEntity
  8
0
100
AcDbLine
 10
1151.1347004588285
 20
774.1910549653117
 30
0.0
 11
1150.7274305710582
 21
773.8561794486409
 31
0.0
  0
LINE
  5
1B9
330
17
100
AcDbEntity
  8
0
100
AcDbLine
 10
1150.7274305710582
 20
773.8561794486409
 30
0.0
 11
1150.3463247711952
 21
773.4918049950061
 31
0.0
  0
LINE
  5
1BA
330
17
100
AcDbEntity
  8
0
100
AcDbLine
 10
1150.3463247711952
 20
773.4918049950061
 30
0.0
 11
1149.9935143574653
 21
773.099969334156
 31
0.0
  0
LINE
  5
1BB
330
17
100
AcDbEntity
  8
0
100
AcDbLine
 10
1149.9935143574653
 20
773.099969334156
 30
0.0
 11
1149.6709723888139
 21
772.6828637700473
 31
0.0
  0
LINE
  5
1BC
330
17
100
AcDbEntity
  8
0
100
AcDbLine
 10
1149.6709723888139
 20
772.6828637700473
 30
0.0
 11
1149.3805026507675
 21
772.2428209261918
 31
0.0
  0
LINE
  5
1BD
330
17
100
AcDbEntity
  8
0
100
AcDbLine
 10
1149.3805026507675
 20
772.2428209261918
 30
0.0
 11
1149.1237295679225
 21
771.7823017006674
 31
0.0
  0
LINE
  5
1BE
330
17
100
AcDbEntity
  8
0
100
AcDbLine
 10
1149.1237295679225
 20
771.7823017006674
 30
0.0
 11
1148.9020891195191
 21
771.3038815037887
 31
0.0
  0
LINE
  5
1BF
330
17
100
AcDbEntity
  8
0
100
AcDbLine
 10
1148.9020891195191
 20
771.3038815037887
 30
0.0
 11
1148.7168208088492
 21
770.8102358553602
 31
0.0
  0
LINE
  5
1C0
330
17
100
AcDbEntity
  8
0
100
AcDbLine
 10
1148.7168208088492
 20
770.8102358553602
 30
0.0
 11
1148.5689607314553
 21
770.3041254220923
 31
0.0
  0
LINE
  5
1C1
330
17
100
AcDbEntity
  8
0
100
AcDbLine
 10
1148.5689607314553
 20
770.3041254220923
 30
0.0
 11
1148.4593357808712
 21
769.7883805788216
 31
0.0
  0
LINE
  5
1C2
330
17
100
AcDbEntity
  8
0
100
AcDbLine
 10
1148.4593357808712
 20
769.7883805788216
 30
0.0
 11
1148.3885590242865
 21
769.2658855799189
 31
0.0
  0
LINE
  5
1C3
330
17
100
AcDbEntity
  8
0
100
AcDbLine
 10
1148.3885590242865
 20
769.2658855799189
 30
0.0
 11
1148.3570262740345
 21
768.7395624293622
 31
0.0
  0
LINE
  5
1C4
330
17
100
AcDbEntity
  8
0
100
AcDbLine
 10
1148.3570262740345
 20
768.7395624293622
 30
0.0
 11
1148.3649138740448
 21
768.2123545397052
 31
0.0
  0
LINE
  5
1C5
330
17
100
AcDbEntity
  8
0
100
AcDbLine
 10
1148.3649138740448
 20
768.2123545397052
 30
0.0
 11
1148.4121777136609
 21
767.6872102713235
 31
0.0
  0
LINE
  5
1C6
330
17
100
AcDbEntity
  8
0
100
AcDbLine
 10
1148.4121777136609
 20
767.6872102713235
 30
0.0
 11
1148.4985534743178
 21
767.1670664439807
 31
0.0
  0
LINE
  5
1C7
330
17
100
AcDbEntity
  8
0
100
AcDbLine
 10
1148.4985534743178
 20
767.1670664439807
 30
0.0
 11
1148.6235581077246
 21
766.6548319129522
 31
0.0
  0
LINE
  5
1C8
330
17
100
AcDbEntity
  8
0
100
AcDbLine
 10
1148.6235581077246
 20
766.6548319129522
 30
0.0
 11
1148.7864925372644
 21
766.1533713015176
 31
0.0
  0
LINE
  5
1C9
330
17
100
AcDbEntity
  8
0
100
AcDbLine
 10
1148.7864925372644
 20
766.1533713015176
 30
0.0
 11
1148.986445567517
 21
765.6654889808257
 31
0.0
  0
LINE
  5
1CA
330
17
100
AcDbEntity
  8
0
100
AcDbLine
 10
1148.986445567517
 20
765.6654889808257
 30
0.0
 11
1149.222298980025
 21
765.1939133867184
 31
0.0
  0
LINE
  5
1CB
330
17
100
AcDbEntity
  8
0
100
AcDbLine
 10
1149.222298980025
 20
765.1939133867184
 30
0.0
 11
1149.4927337868373
 21
764.7412817612044
 31
0.0
  0
LINE
  5
1CC
330
17
100
AcDbEntity
  8
0
100
AcDbLine
 10
1149.4927337868373
 20
764.7412817612044
 30
0.0
 11
1149.7962376068174
 21
764.310125403942
 31
0.0
  0
LINE
  5
1CD
330
17
100
AcDbEntity
  8
0
100
AcDbLine
 10
1149.7962376068174
 20
764.310125403942
 30
0.0
 11
1150.1311131234863
 21
763.9028555161701
 31
0.0
  0
LINE
  5
1CE
330
17
100
AcDbEntity
  8
0
100
AcDbLine
 10
1150.1311131234863
 20
763.9028555161701
 30
0.0
 11
1150.495487577122
 21
763.5217497163078
 31
0.0
  0
LINE
  5
1CF
330
17
100
AcDbEntity
  8
0
100
AcDbLine
 10
1150.495487577122
 20
763.5217497163078
 30
0.0
 11
1150.8873232379726
 21
763.1689393025774
 31
0.0
  0
LINE
  5
1D0
330
17
100
AcDbEntity
  8
0
100
AcDbLine
 10
1150.8873232379726
 20
763.1689393025774
 30
0.0
 11
1151.3044288020806
 21
762.8463973339261
 31
0.0
  0
LINE
  5
1D1
330
17
100
AcDbEntity
  8
0
100
AcDbLine
 10
1151.3044288020806
 20
762.8463973339261
 30
0.0
 11
1151.7444716459358
 21
762.5559275958794
 31
0.0
  0
LINE
  5
1D2
330
17
100
AcDbEntity
  8
0
100
AcDbLine
 10
1151.7444716459358
 20
762.5559275958794
 30
0.0
 11
1152.2049908714605
 21
762.2991545130355
 31
0.0
  0
LINE
  5
1D3
330
17
100
AcDbEntity
  8
0
100
AcDbLine
 10
1152.2049908714605
 20
762.2991545130355
 30
0.0
 11
1152.683411068339
 21
762.0775140646309
 31
0.0
  0
LINE
  5
1D4
330
17
100
AcDbEntity
  8
0
100
AcDbLine
 10
1152.683411068339
 20
762.0775140646309
 30
0.0
 11
1153.1770567167673
 21
761.8922457539607
 31
0.0
  0
LINE
  5
1D5
330
17
100
AcDbEntity
  8
0
100
AcDbLine
 10
1153.1770567167673
 20
761.8922457539607
 30
0.0
 11
1153.6831671500354
 21
761.7443856765674
 31
0.0
  0
LINE
  5
1D6
330
17
100
AcDbEntity
  8
0
100
AcDbLine
 10
1153.6831671500354
 20
761.7443856765674
 30
0.0
 11
1154.1989119933062
 21
761.6347607259818
 31
0.0
  0
LINE
  5
1D7
330
17
100
AcDbEntity
  8
0
100
AcDbLine
 10
1154.1989119933062
 20
761.6347607259818
 30
0.0
 11
1154.721406992209
 21
761.5639839693984
 31
0.0
  0
LINE
  5
1D8
330
17
100
AcDbEntity
  8
0
100
AcDbLine
 10
1154.721406992209
 20
761.5639839693984
 30
0.0
 11
1155.2477301427657
 21
761.532451219145
 31
0.0
  0
LINE
  5
1D9
330
17
100
AcDbEntity
  8
0
100
AcDbLine
 10
1155.2477301427657
 20
761.532451219145
 30
0.0
 11
1155.7749380324228
 21
761.5403388191578
 31
0.0
  0
LINE
  5
1DA
330
17
100
AcDbEntity
  8
0
100
AcDbLine
 10
1155.7749380324228
 20
761.5403388191578
 30
0.0
 11
1156.3000823008056
 21
761.5876026587715
 31
0.0
  0
LINE
  5
1DB
330
17
100
AcDbEntity
  8
0
100
AcDbLine
 10
1156.3000823008056
 20
761.5876026587715
 30
0.0
 11
1156.8202261281472
 21
761.6739784194294
 31
0.0
  0
LINE
  5
1DC
330
17
100
AcDbEntity
  8
0
100
AcDbLine
 10
1156.8202261281472
 20
761.6739784194294
 30
0.0
 11
1157.3324606591757
 21
761.7989830528354
 31
0.0
  0
LINE
  5
1DD
330
17
100
AcDbEntity
  8
0
100
AcDbLine
 10
1157.3324606591757
 20
761.7989830528354
 30
0.0
 11
1157.8339212706092
 21
761.9619174823765
 31
0.0
  0
LINE
  5
1DE
330
17
100
AcDbEntity
  8
0
100
AcDbLine
 10
1157.8339212706092
 20
761.9619174823765
 30
0.0
 11
1158.321803591302
 21
762.1618705126284
 31
0.0
  0
LINE
  5
1DF
330
17
100
AcDbEntity
  8
0
100
AcDbLine
 10
1158.321803591302
 20
762.1618705126284
 30
0.0
 11
1158.7933791854107
 21
762.397723925137
 31
0.0
  0
LINE
  5
1E0
330
17
100
AcDbEntity
  8
0
100
AcDbLine
 10
1158.7933791854107
 20
762.397723925137
 30
0.0
 11
1159.2460108109233
 21
762.6681587319506
 31
0.0
  0
LINE
  5
1E1
330
17
100
AcDbEntity
  8
0
100
AcDbLine
 10
1159.2460108109233
 20
762.6681587319506
 30
0.0
 11
1159.6771671681859
 21
762.9716625519291
 31
0.0
  0
LINE
  5
1E2
330
17
100
AcDbEntity
  8
0
100
AcDbLine
 10
1159.6771671681859
 20
762.9716625519291
 30
0.0
 11
1160.0844370559578
 21
763.3065380685988
 31
0.0
  0
LINE
  5
1E3
330
17
100
AcDbEntity
  8
0
100
AcDbLine
 10
1160.0844370559578
 20
763.3065380685988
 30
0.0
 11
1160.46554285582
 21
763.670912522234
 31
0.0
  0
LINE
  5
1E4
330
17
100
AcDbEntity
  8
0
100
AcDbLine
 10
1160.46554285582
 20
763.670912522234
 30
0.0
 11
1160.8183532695507
 21
764.062748183085
 31
0.0
  0
LINE
  5
1E5
330
17
100
AcDbEntity
  8
0
100
AcDbLine
 10
1160.8183532695507
 20
764.062748183085
 30
0.0
 11
1161.1408952382014
 21
764.4798537471927
 31
0.0
  0
LINE
  5
1E6
330
17
100
AcDbEntity
  8
0
100
AcDbLine
 10
1161.1408952382014
 20
764.4798537471927
 30
0.0
 11
1161.4313649762482
 21
764.9198965910491
 31
0.0
  0
LINE
  5
1E7
330
17
100
AcDbEntity
  8
0
100
AcDbLine
 10
1161.4313649762482
 20
764.9198965910491
 30
0.0
 11
1161.688138059092
 21
765.3804158165722
 31
0.0
  0
LINE
  5
1E8
330
17
100
AcDbEntity
  8
0
100
AcDbLine
 10
1161.688138059092
 20
765.3804158165722
 30
0.0
 11
1161.9097785074962
 21
765.858836013452
 31
0.0
  0
LINE
  5
1E9
330
17
100
AcDbEntity
  8
0
100
AcDbLine
 10
1161.9097785074962
 20
765.858836013452
 30
0.0
 11
1162.095046818168
 21
766.3524816618793
 31
0.0
  0
LINE
  5
1EA
330
17
100
AcDbEntity
  8
0
100
AcDbLine
 10
1162.095046818168
 20
766.3524816618793
 30
0.0
 11
1162.2429068955614
 21
766.8585920951484
 31
0.0
  0
LINE
  5
1EB
330
17
100
AcDbEntity
  8
0
100
AcDbLine
 10
1162.2429068955614
 20
766.8585920951484
 30
0.0
 11
1162.3525318461457
 21
767.3743369384181
 31
0.0
  0
LINE
  5
1EC
330
17
100
AcDbEntity
  8
0
100
AcDbLine
 10
1162.3525318461457
 20
767.3743369384181
 30
0.0
 11
1162.4233086027295
 21
767.8968319373209
 31
0.0
  0
LINE
  5
1ED
330
17
100
AcDbEntity
  8
0
100
AcDbLine
 10
1162.4233086027295
 20
767.8968319373209
 30
0.0
 11
1162.4548413529812
 21
768.423155087879
 31
0.0
  0
LINE
  5
1EE
330
17
100
AcDbEntity
  8
0
100
AcDbLine
 10
1162.4548413529812
 20
768.423155087879
 30
0.0
 11
1162.44695375297
 21
768.9503629775348
 31
0.0
  0
ENDSEC
  0
SECTION
  2
OBJECTS
  0
DICTIONARY
  5
A
330
0
100
AcDbDictionary
281
1
  3
ACAD_COLOR
350
B
  3
ACAD_GROUP
350
C
  3
ACAD_LAYOUT
350
D
  3
ACAD_MATERIAL
350
E
  3
ACAD_MLEADERSTYLE
350
F
  3
ACAD_MLINESTYLE
350
10
  3
ACAD_PLOTSETTINGS
350
11
  3
ACAD_PLOTSTYLENAME
350
12
  3
ACAD_SCALELIST
350
14
  3
ACAD_TABLESTYLE
350
15
  3
ACAD_VISUALSTYLE
350
16
  3
EZDXF_META
350
2D
  0
DICTIONARY
  5
B
330
A
100
AcDbDictionary
281
1
  0
DICTIONARY
  5
C
330
A
100
AcDbDictionary
281
1
  0
DICTIONARY
  5
D
330
A
100
AcDbDictionary
281
1
  3
Model
350
1A
  3
Layout1
350
1E
  0
DICTIONARY
  5
E
330
A
100
AcDbDictionary
281
1
  3
ByBlock
350
1F
  3
ByLayer
350
20
  3
Global
350
21
  0
DICTIONARY
  5
F
330
A
100
AcDbDictionary
281
1
  3
Standard
350
2C
  0
DICTIONARY
  5
10
330
A
100
AcDbDictionary
281
1
  3
Standard
350
22
  0
DICTIONARY
  5
11
330
A
100
AcDbDictionary
281
1
  0
ACDBDICTIONARYWDFLT
  5
12
330
A
100
AcDbDictionary
281
1
  3
Normal
350
13
100
AcDbDictionaryWithDefault
340
13
  0
ACDBPLACEHOLDER
  5
13
330
12
  0
DICTIONARY
  5
14
330
A
100
AcDbDictionary
281
1
  0
DICTIONARY
  5
15
330
A
100
AcDbDictionary
281
1
  0
DICTIONARY
  5
16
330
A
100
AcDbDictionary
281
1
  0
LAYOUT
  5
1A
330
D
100
AcDbPlotSettings
  1

  4
A3
  6

 40
7.5
 41
20.0
 42
7.5
 43
20.0
 44
420.0
 45
297.0
 46
0.0
 47
0.0
 48
0.0
 49
0.0
140
0.0
141
0.0
142
1.0
143
1.0
 70
1024
 72
1
 73
0
 74
5
  7

 75
16
 76
0
 77
2
 78
300
147
1.0
148
0.0
149
0.0
100
AcDbLayout
  1
Model
 70
1
 71
0
 10
0.0
 20
0.0
 11
420.0
 21
297.0
 12
0.0
 22
0.0
 32
0.0
 14
1e+20
 24
1e+20
 34
1e+20
 15
-1e+20
 25
-1e+20
 35
-1e+20
146
0.0
 13
0.0
 23
0.0
 33
0.0
 16
1.0
 26
0.0
 36
0.0
 17
0.0
 27
1.0
 37
0.0
 76
1
330
17
  0
LAYOUT
  5
1E
330
D
100
AcDbPlotSettings
  1

  4
A3
  6

 40
7.5
 41
20.0
 42
7.5
 43
20.0
 44
420.0
 45
297.0
 46
0.0
 47
0.0
 48
0.0
 49
0.0
140
0.0
141
0.0
142
1.0
143
1.0
 70
0
 72
1
 73
0
 74
5
  7

 75
16
 76
0
 77
2
 78
300
147
1.0
148
0.0
149
0.0
100
AcDbLayout
  1
Layout1
 70
1
 71
1
 10
0.0
 20
0.0
 11
420.0
 21
297.0
 12
0.0
 22
0.0
 32
0.0
 14
1e+20
 24
1e+20
 34
1e+20
 15
-1e+20
 25
-1e+20
 35
-1e+20
146
0.0
 13
0.0
 23
0.0
 33
0.0
 16
1.0
 26
0.0
 36
0.0
 17
0.0
 27
1.0
 37
0.0
 76
1
330
1B
  0
MATERIAL
  5
1F
102
{ACAD_REACTORS
330
E
102
}
330
E
100
AcDbMaterial
  1
ByBlock
  2

 70
0
 40
1.0
 71
1
 41
1.0
 91
-1023410177
 42
1.0
 72
1
  3

 73
1
 74
1
 75
1
 44
0.5
 73
0
 45
1.0
 46
1.0
 77
1
  4

 78
1
 79
1
170
1
 48
1.0
171
1
  6

172
1
173
1
174
1
140
1.0
141
1.0
175
1
  7

176
1
177
1
178
1
143
1.0
179
1
  8

270
1
271
1
272
1
145
1.0
146
1.0
273
1
  9

274
1
275
1
276
1
 42
1.0
 72
1
  3

 73
1
 74
1
 75
1
 94
63
  0
MATERIAL
  5
20
102
{ACAD_REACTORS
330
E
102
}
330
E
100
AcDbMaterial
  1
ByLayer
  2

 70
0
 40
1.0
 71
1
 41
1.0
 91
-1023410177
 42
1.0
 72
1
  3

 73
1
 74
1
 75
1
 44
0.5
 73
0
 45
1.0
 46
1.0
 77
1
  4

 78
1
 79
1
170
1
 48
1.0
171
1
  6

172
1
173
1
174
1
140
1.0
141
1.0
175
1
  7

176
1
177
1
178
1
143
1.0
179
1
  8

270
1
271
1
272
1
145
1.0
146
1.0
273
1
  9

274
1
275
1
276
1
 42
1.0
 72
1
  3

 73
1
 74
1
 75
1
 94
63
  0
MATERIAL
  5
21
102
{ACAD_REACTORS
330
E
102
}
330
E
100
AcDbMaterial
  1
Global
  2

 70
0
 40
1.0
 71
1
 41
1.0
 91
-1023410177
 42
1.0
 72
1
  3

 73
1
 74
1
 75
1
 44
0.5
 73
0
 45
1.0
 46
1.0
 77
1
  4

 78
1
 79
1
170
1
 48
1.0
171
1
  6

172
1
173
1
174
1
140
1.0
141
1.0
175
1
  7

176
1
177
1
178
1
143
1.0
179
1
  8

270
1
271
1
272
1
145
1.0
146
1.0
273
1
  9

274
1
275
1
276
1
 42
1.0
 72
1
  3

 73
1
 74
1
 75
1
 94
63
  0
MLINESTYLE
  5
22
102
{ACAD_REACTORS
330
10
102
}
330
10
100
AcDbMlineStyle
  2
Standard
 70
0
  3

 62
256
 51
90.0
 52
90.0
 71
2
 49
0.5
 62
256
  6
BYLAYER
 49
-0.5
 62
256
  6
BYLAYER
  0
MLEADERSTYLE
  5
2C
102
{ACAD_REACTORS
330
F
102
}
330
F
100
AcDbMLeaderStyle
179
2
170
2
171
1
172
0
 90
2
 40
0.0
 41
0.0
173
1
 91
-1056964608
 92
-2
290
1
 42
2.0
291
1
 43
8.0
  3
Standard
 44
4.0
300

342
29
174
1
175
1
176
0
178
1
 93
-1056964608
 45
4.0
292
0
297
0
 46
4.0
 94
-1056964608
 47
1.0
 49
1.0
140
1.0
294
1
141
0.0
177
0
142
1.0
295
0
296
0
143
3.75
271
0
272
9
273
9
  0
DICTIONARY
  5
2D
330
A
100
AcDbDictionary
280
1
281
1
  3
CREATED_BY_EZDXF
350
2E
  3
WRITTEN_BY_EZDXF
350
1F1
  0
DICTIONARYVAR
  5
2E
330
2D
100
DictionaryVariables
280
0
  1
1.4.3 @ 2026-04-16T08:37:59.239159+00:00
  0
DICTIONARYVAR
  5
1F1
330
2D
100
DictionaryVariables
280
0
  1
1.4.3 @ 2026-04-16T08:37:59.274956+00:00
  0
ENDSEC
  0
EOF
