  0
SECTION
  2
HEADER
  9
$ACADVER
  1
AC1024
  9
$ACADMAINTVER
 70
6
  9
$DWGCODEPAGE
  3
ANSI_1252
  9
$LASTSAVEDBY
  1
ezdxf
  9
$INSBASE
 10
0.0
 20
0.0
 30
0.0
  9
$EXTMIN
 10
1e+20
 20
1e+20
 30
1e+20
  9
$EXTMAX
 10
-1e+20
 20
-1e+20
 30
-1e+20
  9
$LIMMIN
 10
0.0
 20
0.0
  9
$LIMMAX
 10
420.0
 20
297.0
  9
$ORTHOMODE
 70
0
  9
$REGENMODE
 70
1
  9
$FILLMODE
 70
1
  9
$QTEXTMODE
 70
0
  9
$MIRRTEXT
 70
1
  9
$LTSCALE
 40
1.0
  9
$ATTMODE
 70
1
  9
$TEXTSIZE
 40
2.5
  9
$TRACEWID
 40
1.0
  9
$TEXTSTYLE
  7
Standard
  9
$CLAYER
  8
0
  9
$CELTYPE
  6
ByLayer
  9
$CECOLOR
 62
256
  9
$CELTSCALE
 40
1.0
  9
$DISPSILH
 70
0
  9
$DIMSCALE
 40
1.0
  9
$DIMASZ
 40
2.5
  9
$DIMEXO
 40
0.625
  9
$DIMDLI
 40
3.75
  9
$DIMRND
 40
0.0
  9
$DIMDLE
 40
0.0
  9
$DIMEXE
 40
1.25
  9
$DIMTP
 40
0.0
  9
$DIMTM
 40
0.0
  9
$DIMTXT
 40
2.5
  9
$DIMCEN
 40
2.5
  9
$DIMTSZ
 40
0.0
  9
$DIMTOL
 70
0
  9
$DIMLIM
 70
0
  9
$DIMTIH
 70
0
  9
$DIMTOH
 70
0
  9
$DIMSE1
 70
0
  9
$DIMSE2
 70
0
  9
$DIMTAD
 70
1
  9
$DIMZIN
 70
8
  9
$DIMBLK
  1

  9
$DIMASO
 70
1
  9
$DIMSHO
 70
1
  9
$DIMPOST
  1

  9
$DIMAPOST
  1

  9
$DIMALT
 70
0
  9
$DIMALTD
 70
3
  9
$DIMALTF
 40
0.03937007874
  9
$DIMLFAC
 40
1.0
  9
$DIMTOFL
 70
1
  9
$DIMTVP
 40
0.0
  9
$DIMTIX
 70
0
  9
$DIMSOXD
 70
0
  9
$DIMSAH
 70
0
  9
$DIMBLK1
  1

  9
$DIMBLK2
  1

  9
$DIMSTYLE
  2
ISO-25
  9
$DIMCLRD
 70
0
  9
$DIMCLRE
 70
0
  9
$DIMCLRT
 70
0
  9
$DIMTFAC
 40
1.0
  9
$DIMGAP
 40
0.625
  9
$DIMJUST
 70
0
  9
$DIMSD1
 70
0
  9
$DIMSD2
 70
0
  9
$DIMTOLJ
 70
0
  9
$DIMTZIN
 70
8
  9
$DIMALTZ
 70
0
  9
$DIMALTTZ
 70
0
  9
$DIMUPT
 70
0
  9
$DIMDEC
 70
2
  9
$DIMTDEC
 70
2
  9
$DIMALTU
 70
2
  9
$DIMALTTD
 70
3
  9
$DIMTXSTY
  7
Standard
  9
$DIMAUNIT
 70
0
  9
$DIMADEC
 70
0
  9
$DIMALTRND
 40
0.0
  9
$DIMAZIN
 70
0
  9
$DIMDSEP
 70
44
  9
$DIMATFIT
 70
3
  9
$DIMFRAC
 70
0
  9
$DIMLDRBLK
  1

  9
$DIMLUNIT
 70
2
  9
$DIMLWD
 70
-2
  9
$DIMLWE
 70
-2
  9
$DIMTMOVE
 70
0
  9
$DIMFXL
 40
1.0
  9
$DIMFXLON
 70
0
  9
$DIMJOGANG
 40
0.785398163397
  9
$DIMTFILL
 70
0
  9
$DIMTFILLCLR
 70
0
  9
$DIMARCSYM
 70
0
  9
$DIMLTYPE
  6

  9
$DIMLTEX1
  6

  9
$DIMLTEX2
  6

  9
$DIMTXTDIRECTION
 70
0
  9
$LUNITS
 70
2
  9
$LUPREC
 70
4
  9
$SKETCHINC
 40
1.0
  9
$FILLETRAD
 40
10.0
  9
$AUNITS
 70
0
  9
$AUPREC
 70
2
  9
$MENU
  1
.
  9
$ELEVATION
 40
0.0
  9
$PELEVATION
 40
0.0
  9
$THICKNESS
 40
0.0
  9
$LIMCHECK
 70
0
  9
$CHAMFERA
 40
0.0
  9
$CHAMFERB
 40
0.0
  9
$CHAMFERC
 40
0.0
  9
$CHAMFERD
 40
0.0
  9
$SKPOLY
 70
0
  9
$TDCREATE
 40
2461147.484710648
  9
$TDUCREATE
 40
2458532.153996898
  9
$TDUPDATE
 40
2461147.484710648
  9
$TDUUPDATE
 40
2458532.1544311
  9
$TDINDWG
 40
0.0
  9
$TDUSRTIMER
 40
0.0
  9
$USRTIMER
 70
1
  9
$ANGBASE
 50
0.0
  9
$ANGDIR
 70
0
  9
$PDMODE
 70
0
  9
$PDSIZE
 40
0.0
  9
$PLINEWID
 40
0.0
  9
$SPLFRAME
 70
0
  9
$SPLINETYPE
 70
6
  9
$SPLINESEGS
 70
8
  9
$HANDSEED
  5
33E
  9
$SURFTAB1
 70
6
  9
$SURFTAB2
 70
6
  9
$SURFTYPE
 70
6
  9
$SURFU
 70
6
  9
$SURFV
 70
6
  9
$UCSBASE
  2

  9
$UCSNAME
  2

  9
$UCSORG
 10
0.0
 20
0.0
 30
0.0
  9
$UCSXDIR
 10
1.0
 20
0.0
 30
0.0
  9
$UCSYDIR
 10
0.0
 20
1.0
 30
0.0
  9
$UCSORTHOREF
  2

  9
$UCSORTHOVIEW
 70
0
  9
$UCSORGTOP
 10
0.0
 20
0.0
 30
0.0
  9
$UCSORGBOTTOM
 10
0.0
 20
0.0
 30
0.0
  9
$UCSORGLEFT
 10
0.0
 20
0.0
 30
0.0
  9
$UCSORGRIGHT
 10
0.0
 20
0.0
 30
0.0
  9
$UCSORGFRONT
 10
0.0
 20
0.0
 30
0.0
  9
$UCSORGBACK
 10
0.0
 20
0.0
 30
0.0
  9
$PUCSBASE
  2

  9
$PUCSNAME
  2

  9
$PUCSORG
 10
0.0
 20
0.0
 30
0.0
  9
$PUCSXDIR
 10
1.0
 20
0.0
 30
0.0
  9
$PUCSYDIR
 10
0.0
 20
1.0
 30
0.0
  9
$PUCSORTHOREF
  2

  9
$PUCSORTHOVIEW
 70
0
  9
$PUCSORGTOP
 10
0.0
 20
0.0
 30
0.0
  9
$PUCSORGBOTTOM
 10
0.0
 20
0.0
 30
0.0
  9
$PUCSORGLEFT
 10
0.0
 20
0.0
 30
0.0
  9
$PUCSORGRIGHT
 10
0.0
 20
0.0
 30
0.0
  9
$PUCSORGFRONT
 10
0.0
 20
0.0
 30
0.0
  9
$PUCSORGBACK
 10
0.0
 20
0.0
 30
0.0
  9
$USERI1
 70
0
  9
$USERI2
 70
0
  9
$USERI3
 70
0
  9
$USERI4
 70
0
  9
$USERI5
 70
0
  9
$USERR1
 40
0.0
  9
$USERR2
 40
0.0
  9
$USERR3
 40
0.0
  9
$USERR4
 40
0.0
  9
$USERR5
 40
0.0
  9
$WORLDVIEW
 70
1
  9
$SHADEDGE
 70
3
  9
$SHADEDIF
 70
70
  9
$TILEMODE
 70
1
  9
$MAXACTVP
 70
64
  9
$PINSBASE
 10
0.0
 20
0.0
 30
0.0
  9
$PLIMCHECK
 70
0
  9
$PEXTMIN
 10
1e+20
 20
1e+20
 30
1e+20
  9
$PEXTMAX
 10
-1e+20
 20
-1e+20
 30
-1e+20
  9
$PLIMMIN
 10
0.0
 20
0.0
  9
$PLIMMAX
 10
420.0
 20
297.0
  9
$UNITMODE
 70
0
  9
$VISRETAIN
 70
1
  9
$PLINEGEN
 70
0
  9
$PSLTSCALE
 70
1
  9
$TREEDEPTH
 70
3020
  9
$CMLSTYLE
  2
Standard
  9
$CMLJUST
 70
0
  9
$CMLSCALE
 40
20.0
  9
$PROXYGRAPHICS
 70
1
  9
$MEASUREMENT
 70
1
  9
$CELWEIGHT
370
-1
  9
$ENDCAPS
280
0
  9
$JOINSTYLE
280
0
  9
$LWDISPLAY
290
0
  9
$INSUNITS
 70
0
  9
$HYPERLINKBASE
  1

  9
$STYLESHEET
  1

  9
$XEDIT
290
1
  9
$CEPSNTYPE
380
0
  9
$PSTYLEMODE
290
1
  9
$FINGERPRINTGUID
  2
{EFAE5EA4-66C4-491C-90CF-1B131109F72F}
  9
$VERSIONGUID
  2
{75808E97-59FF-47D0-AD6A-205C3395B01E}
  9
$EXTNAMES
290
1
  9
$PSVPSCALE
 40
0.0
  9
$OLESTARTUP
290
0
  9
$SORTENTS
280
127
  9
$INDEXCTL
280
0
  9
$HIDETEXT
280
1
  9
$XCLIPFRAME
280
1
  9
$HALOGAP
280
0
  9
$OBSCOLOR
 70
257
  9
$OBSLTYPE
280
0
  9
$INTERSECTIONDISPLAY
280
0
  9
$INTERSECTIONCOLOR
 70
257
  9
$DIMASSOC
280
2
  9
$PROJECTNAME
  1

  9
$CAMERADISPLAY
290
0
  9
$LENSLENGTH
 40
50.0
  9
$CAMERAHEIGHT
 40
0.0
  9
$STEPSPERSEC
 40
24.0
  9
$STEPSIZE
 40
100.0
  9
$3DDWFPREC
 40
2.0
  9
$PSOLWIDTH
 40
0.005
  9
$PSOLHEIGHT
 40
0.08
  9
$LOFTANG1
 40
1.570796326795
  9
$LOFTANG2
 40
1.570796326795
  9
$LOFTMAG1
 40
0.0
  9
$LOFTMAG2
 40
0.0
  9
$LOFTPARAM
 70
7
  9
$LOFTNORMALS
280
1
  9
$LATITUDE
 40
37.795
  9
$LONGITUDE
 40
-122.394
  9
$NORTHDIRECTION
 40
0.0
  9
$TIMEZONE
 70
-8000
  9
$LIGHTGLYPHDISPLAY
280
1
  9
$TILEMODELIGHTSYNCH
280
1
  9
$CMATERIAL
347
20
  9
$SOLIDHIST
280
0
  9
$SHOWHIST
280
1
  9
$DWFFRAME
280
2
  9
$DGNFRAME
280
2
  9
$REALWORLDSCALE
290
1
  9
$INTERFERECOLOR
 62
256
  9
$CSHADOW
280
0
  9
$SHADOWPLANELOCATION
 40
0.0
  0
ENDSEC
  0
SECTION
  2
CLASSES
  0
CLASS
  1
ACDBDICTIONARYWDFLT
  2
AcDbDictionaryWithDefault
  3
ObjectDBX Classes
 90
0
 91
0
280
0
281
0
  0
CLASS
  1
SUN
  2
AcDbSun
  3
SCENEOE
 90
1153
 91
0
280
0
281
0
  0
CLASS
  1
VISUALSTYLE
  2
AcDbVisualStyle
  3
ObjectDBX Classes
 90
4095
 91
0
280
0
281
0
  0
CLASS
  1
MATERIAL
  2
AcDbMaterial
  3
ObjectDBX Classes
 90
1153
 91
0
280
0
281
0
  0
CLASS
  1
SCALE
  2
AcDbScale
  3
ObjectDBX Classes
 90
1153
 91
0
280
0
281
0
  0
CLASS
  1
TABLESTYLE
  2
AcDbTableStyle
  3
ObjectDBX Classes
 90
4095
 91
0
280
0
281
0
  0
CLASS
  1
MLEADERSTYLE
  2
AcDbMLeaderStyle
  3
ACDB_MLEADERSTYLE_CLASS
 90
4095
 91
0
280
0
281
0
  0
CLASS
  1
DICTIONARYVAR
  2
AcDbDictionaryVar
  3
ObjectDBX Classes
 90
0
 91
0
280
0
281
0
  0
CLASS
  1
CELLSTYLEMAP
  2
AcDbCellStyleMap
  3
ObjectDBX Classes
 90
1152
 91
0
280
0
281
0
  0
CLASS
  1
MENTALRAYRENDERSETTINGS
  2
AcDbMentalRayRenderSettings
  3
SCENEOE
 90
1024
 91
0
280
0
281
0
  0
CLASS
  1
ACDBDETAILVIEWSTYLE
  2
AcDbDetailViewStyle
  3
ObjectDBX Classes
 90
1025
 91
0
280
0
281
0
  0
CLASS
  1
ACDBSECTIONVIEWSTYLE
  2
AcDbSectionViewStyle
  3
ObjectDBX Classes
 90
1025
 91
0
280
0
281
0
  0
CLASS
  1
RASTERVARIABLES
  2
AcDbRasterVariables
  3
ISM
 90
0
 91
0
280
0
281
0
  0
CLASS
  1
ACDBPLACEHOLDER
  2
AcDbPlaceHolder
  3
ObjectDBX Classes
 90
0
 91
0
280
0
281
0
  0
CLASS
  1
LAYOUT
  2
AcDbLayout
  3
ObjectDBX Classes
 90
0
 91
0
280
0
281
0
  0
ENDSEC
  0
SECTION
  2
TABLES
  0
TABLE
  2
VPORT
  5
8
330
0
100
AcDbSymbolTable
 70
1
  0
VPORT
  5
23
330
8
100
AcDbSymbolTableRecord
100
AcDbViewportTableRecord
  2
*Active
 70
0
 10
0.0
 20
0.0
 11
1.0
 21
1.0
 12
0.0
 22
0.0
 13
0.0
 23
0.0
 14
0.5
 24
0.5
 15
0.5
 25
0.5
 16
0.0
 26
0.0
 36
1.0
 17
0.0
 27
0.0
 37
0.0
 40
1000.0
 41
1.34
 42
50.0
 43
0.0
 44
0.0
 50
0.0
 51
0.0
 71
0
 72
1000
 73
1
 74
3
 75
0
 76
0
 77
0
 78
0
281
0
 65
0
146
0.0
  0
ENDTAB
  0
TABLE
  2
LTYPE
  5
2
330
0
100
AcDbSymbolTable
 70
3
  0
LTYPE
  5
24
330
2
100
AcDbSymbolTableRecord
100
AcDbLinetypeTableRecord
  2
ByBlock
 70
0
  3

 72
65
 73
0
 40
0.0
  0
LTYPE
  5
25
330
2
100
AcDbSymbolTableRecord
100
AcDbLinetypeTableRecord
  2
ByLayer
 70
0
  3

 72
65
 73
0
 40
0.0
  0
LTYPE
  5
26
330
2
100
AcDbSymbolTableRecord
100
AcDbLinetypeTableRecord
  2
Continuous
 70
0
  3

 72
65
 73
0
 40
0.0
  0
ENDTAB
  0
TABLE
  2
LAYER
  5
1
330
0
100
AcDbSymbolTable
 70
2
  0
LAYER
  5
27
330
1
100
AcDbSymbolTableRecord
100
AcDbLayerTableRecord
  2
0
 70
0
 62
7
  6
Continuous
370
-3
390
13
347
21
  0
LAYER
  5
28
330
1
100
AcDbSymbolTableRecord
100
AcDbLayerTableRecord
  2
Defpoints
 70
0
 62
7
  6
Continuous
290
0
370
-3
390
13
347
21
  0
ENDTAB
  0
TABLE
  2
STYLE
  5
5
330
0
100
AcDbSymbolTable
 70
1
  0
STYLE
  5
29
330
5
100
AcDbSymbolTableRecord
100
AcDbTextStyleTableRecord
  2
Standard
 70
0
 40
0.0
 41
1.0
 50
0.0
 71
0
 42
2.5
  3
txt
  4

  0
ENDTAB
  0
TABLE
  2
VIEW
  5
7
330
0
100
AcDbSymbolTable
 70
0
  0
ENDTAB
  0
TABLE
  2
UCS
  5
6
330
0
100
AcDbSymbolTable
 70
0
  0
ENDTAB
  0
TABLE
  2
APPID
  5
3
330
0
100
AcDbSymbolTable
 70
3
  0
APPID
  5
2A
330
3
100
AcDbSymbolTableRecord
100
AcDbRegAppTableRecord
  2
ACAD
 70
0
  0
APPID
  5
33B
330
3
100
AcDbSymbolTableRecord
100
AcDbRegAppTableRecord
  2
HATCHBACKGROUNDCOLOR
 70
0
  0
APPID
  5
33C
330
3
100
AcDbSymbolTableRecord
100
AcDbRegAppTableRecord
  2
EZDXF
 70
0
  0
ENDTAB
  0
TABLE
  2
DIMSTYLE
  5
4
330
0
100
AcDbSymbolTable
 70
1
100
AcDbDimStyleTable
  0
DIMSTYLE
105
2B
330
4
100
AcDbSymbolTableRecord
100
AcDbDimStyleTableRecord
  2
Standard
 70
0
 40
1.0
 41
2.5
 42
0.625
 43
3.75
 44
1.25
 45
0.0
 46
0.0
 47
0.0
 48
0.0
 49
2.5
140
2.5
141
2.5
142
0.0
143
0.03937007874
144
1.0
145
0.0
146
1.0
147
0.625
148
0.0
 69
0
 70
0
 71
0
 72
0
 73
0
 74
0
 75
0
 76
0
 77
1
 78
8
 79
3
170
0
171
3
172
1
173
0
174
0
175
0
176
0
177
0
178
0
179
2
271
2
272
2
273
2
274
3
275
0
276
0
277
2
278
44
279
0
280
0
281
0
282
0
283
0
284
8
285
0
286
0
288
0
289
3
290
0
371
-2
372
-2
  0
ENDTAB
  0
TABLE
  2
BLOCK_RECORD
  5
9
330
0
100
AcDbSymbolTable
 70
2
  0
BLOCK_RECORD
  5
17
330
9
100
AcDbSymbolTableRecord
100
AcDbBlockTableRecord
  2
*Model_Space
340
1A
 70
0
280
1
281
0
  0
BLOCK_RECORD
  5
1B
330
9
100
AcDbSymbolTableRecord
100
AcDbBlockTableRecord
  2
*Paper_Space
340
1E
 70
0
280
1
281
0
  0
ENDTAB
  0
ENDSEC
  0
SECTION
  2
BLOCKS
  0
BLOCK
  5
18
330
17
100
AcDbEntity
  8
0
100
AcDbBlockBegin
  2
*Model_Space
 70
0
 10
0.0
 20
0.0
 30
0.0
  3
*Model_Space
  1

  0
ENDBLK
  5
19
330
17
100
AcDbEntity
  8
0
100
AcDbBlockEnd
  0
BLOCK
  5
1C
330
1B
100
AcDbEntity
  8
0
100
AcDbBlockBegin
  2
*Paper_Space
 70
0
 10
0.0
 20
0.0
 30
0.0
  3
*Paper_Space
  1

  0
ENDBLK
  5
1D
330
1B
100
AcDbEntity
  8
0
100
AcDbBlockEnd
  0
ENDSEC
  0
SECTION
  2
ENTITIES
  0
LINE
  5
2F
330
17
100
AcDbEntity
  8
0
100
AcDbLine
 10
492.73280775784553
 20
2021.5627485505233
 30
0.0
 11
599.9168461433945
 21
-23.630538626843986
 31
0.0
  0
LINE
  5
30
330
17
100
AcDbEntity
  8
0
100
AcDbLine
 10
1023.5004738675599
 20
2049.379103246576
 30
0.0
 11
1130.6845122531088
 21
4.185816069208727
 31
0.0
  0
LINE
  5
31
330
17
100
AcDbEntity
  8
0
100
AcDbLine
 10
1554.2681399772748
 20
2077.1954579426288
 30
0.0
 11
1661.4521783628236
 21
32.00217076526167
 31
0.0
  0
LINE
  5
32
330
17
100
AcDbEntity
  8
0
100
AcDbLine
 10
-35.21816297188303
 20
1669.1881978703418
 30
0.0
 11
2009.975124205484
 21
1776.3722362558906
 31
0.0
  0
LINE
  5
33
330
17
100
AcDbEntity
  8
0
100
AcDbLine
 10
-1.220396121151841
 20
1020.472161514025
 30
0.0
 11
2043.9728910562153
 21
1127.656199899574
 31
0.0
  0
LINE
  5
34
330
17
100
AcDbEntity
  8
0
100
AcDbLine
 10
32.777370729579395
 20
371.7561251577072
 30
0.0
 11
2077.9706579069466
 21
478.94016354325606
 31
0.0
  0
LINE
  5
35
330
17
100
AcDbEntity
  8
0
100
AcDbLine
 10
577.698841268883
 20
400.3142493123213
 30
0.0
 11
788.8264240103055
 21
411.3789770691958
 31
0.0
  0
LINE
  5
36
330
17
100
AcDbEntity
  8
0
100
AcDbLine
 10
564.2868062978548
 20
385.41867542416674
 30
0.0
 11
789.5681934688669
 21
397.22517263960253
 31
0.0
  0
LINE
  5
37
330
17
100
AcDbEntity
  8
0
100
AcDbLine
 10
877.9878457837945
 20
1327.931349769927
 30
0.0
 11
907.3495535185169
 21
767.6765910985624
 31
0.0
  0
LINE
  5
38
330
17
100
AcDbEntity
  8
0
100
AcDbLine
 10
559.4018612910353
 20
749.4414252422611
 30
0.0
 11
735.1449329584754
 21
758.6517293527319
 31
0.0
  0
LINE
  5
39
330
17
100
AcDbEntity
  8
0
100
AcDbLine
 10
1117.9692065129504
 20
449.9176377466772
 30
0.0
 11
1113.858567430089
 21
528.3533039606748
 31
0.0
  0
LINE
  5
3A
330
17
100
AcDbEntity
  8
0
100
AcDbLine
 10
1100.2769509759628
 20
448.9904259234754
 30
0.0
 11
1096.1663118931012
 21
527.426092137473
 31
0.0
  0
LINE
  5
3B
330
17
100
AcDbEntity
  8
0
100
AcDbLine
 10
560.329073114237
 20
731.7491697052727
 30
0.0
 11
718.3798892446857
 21
740.0322619925417
 31
0.0
  0
LINE
  5
3C
330
17
100
AcDbEntity
  8
0
100
AcDbLine
 10
861.2228020700047
 20
1309.3118824097382
 30
0.0
 11
890.5845098047271
 21
749.0571237383723
 31
0.0
  0
LINE
  5
3D
330
17
100
AcDbEntity
  8
0
100
AcDbLine
 10
530.0401535563128
 20
1309.6961839136256
 30
0.0
 11
877.9878457837945
 21
1327.931349769927
 31
0.0
  0
LINE
  5
3E
330
17
100
AcDbEntity
  8
0
100
AcDbLine
 10
530.9673653795145
 20
1292.0039283766387
 30
0.0
 11
861.2228020700047
 21
1309.3118824097382
 31
0.0
  0
LINE
  5
3F
330
17
100
AcDbEntity
  8
0
100
AcDbLine
 10
753.4419129363231
 20
409.5245534227921
 30
0.0
 11
750.7839057098117
 21
460.24235262882496
 31
0.0
  0
LINE
  5
40
330
17
100
AcDbEntity
  8
0
100
AcDbLine
 10
735.7496573993318
 20
408.5973415995903
 30
0.0
 11
733.524349023648
 21
451.05875488835875
 31
0.0
  0
LINE
  5
41
330
17
100
AcDbEntity
  8
0
100
AcDbLine
 10
1721.7980326609368
 20
460.27394721270196
 30
0.0
 11
1722.539802119498
 21
446.1201427831087
 31
0.0
  0
LINE
  5
42
330
17
100
AcDbEntity
  8
0
100
AcDbLine
 10
1827.9515658828798
 20
465.83721815191245
 30
0.0
 11
1828.693335341441
 21
451.6834137223192
 31
0.0
  0
LINE
  5
43
330
17
100
AcDbEntity
  8
0
100
AcDbLine
 10
1981.284447203462
 20
473.8730539529944
 30
0.0
 11
1982.0262166620232
 21
459.7192495234011
 31
0.0
  0
LINE
  5
44
330
17
100
AcDbEntity
  8
0
100
AcDbLine
 10
1827.9515658828798
 20
465.83721815191245
 30
0.0
 11
1981.284447203462
 21
473.8730539529944
 31
0.0
  0
LINE
  5
45
330
17
100
AcDbEntity
  8
0
100
AcDbLine
 10
1191.0303665512222
 20
432.457592516649
 30
0.0
 11
1191.7721360097835
 21
418.30378808705575
 31
0.0
  0
LINE
  5
46
330
17
100
AcDbEntity
  8
0
100
AcDbLine
 10
1297.1838997731659
 20
438.02086345585974
 30
0.0
 11
1297.9256692317272
 21
423.8670590262665
 31
0.0
  0
LINE
  5
47
330
17
100
AcDbEntity
  8
0
100
AcDbLine
 10
1450.5167810937473
 20
446.05669925694144
 30
0.0
 11
1451.2585505523086
 21
431.9028948273482
 31
0.0
  0
LINE
  5
48
330
17
100
AcDbEntity
  8
0
100
AcDbLine
 10
1556.6703143156915
 20
451.61997019615217
 30
0.0
 11
1557.4120837742528
 21
437.4661657665589
 31
0.0
  0
LINE
  5
49
330
17
100
AcDbEntity
  8
0
100
AcDbLine
 10
1297.1838997731659
 20
438.02086345585974
 30
0.0
 11
1450.5167810937473
 21
446.05669925694144
 31
0.0
  0
LINE
  5
4A
330
17
100
AcDbEntity
  8
0
100
AcDbLine
 10
1556.6703143156915
 20
451.61997019615217
 30
0.0
 11
1721.7980326609368
 21
460.27394721270196
 31
0.0
  0
LINE
  5
4B
330
17
100
AcDbEntity
  8
0
100
AcDbLine
 10
1356.1580848964675
 20
441.1115695331988
 30
0.0
 11
1353.0673788191282
 21
500.08575465650017
 31
0.0
  0
LINE
  5
4C
330
17
100
AcDbEntity
  8
0
100
AcDbLine
 10
1353.0673788191282
 20
500.08575465650017
 30
0.0
 11
1400.2467269177666
 21
502.5583195183714
 31
0.0
  0
LINE
  5
4D
330
17
100
AcDbEntity
  8
0
100
AcDbLine
 10
1403.337432995106
 20
443.58413439507
 30
0.0
 11
1400.2467269177666
 21
502.5583195183714
 31
0.0
  0
LINE
  5
4E
330
17
100
AcDbEntity
  8
0
100
AcDbLine
 10
890.5845098047271
 20
749.0571237383723
 30
0.0
 11
1084.0198370091584
 21
759.1946396720449
 31
0.0
  0
LINE
  5
4F
330
17
100
AcDbEntity
  8
0
100
AcDbLine
 10
907.3495535185169
 20
767.6765910985624
 30
0.0
 11
1100.7848807229443
 21
777.814107032235
 31
0.0
  0
LINE
  5
50
330
17
100
AcDbEntity
  8
0
100
AcDbLine
 10
729.8840878293017
 20
1107.279376917232
 30
0.0
 11
748.4283242933369
 21
753.4342661774215
 31
0.0
  0
LINE
  5
51
330
17
100
AcDbEntity
  8
0
100
AcDbLine
 10
889.9663685892591
 20
760.8519607630354
 30
0.0
 11
748.4283242933369
 21
753.4342661774215
 31
0.0
  0
LINE
  5
52
330
17
100
AcDbEntity
  8
0
100
AcDbLine
 10
888.1119449428559
 20
796.2364718370115
 30
0.0
 11
746.5739006469337
 21
788.8187772513975
 31
0.0
  0
LINE
  5
53
330
17
100
AcDbEntity
  8
0
100
AcDbLine
 10
886.2575212964521
 20
831.6209829109971
 30
0.0
 11
744.7194770005299
 21
824.2032883253831
 31
0.0
  0
LINE
  5
54
330
17
100
AcDbEntity
  8
0
100
AcDbLine
 10
884.4030976500487
 20
867.0054939849755
 30
0.0
 11
742.8650533541265
 21
859.5877993993615
 31
0.0
  0
LINE
  5
55
330
17
100
AcDbEntity
  8
0
100
AcDbLine
 10
882.5486740036451
 20
902.3900050589584
 30
0.0
 11
741.010629707723
 21
894.9723104733445
 31
0.0
  0
LINE
  5
56
330
17
100
AcDbEntity
  8
0
100
AcDbLine
 10
880.6942503572416
 20
937.77451613294
 30
0.0
 11
739.1562060613194
 21
930.356821547326
 31
0.0
  0
LINE
  5
57
330
17
100
AcDbEntity
  8
0
100
AcDbLine
 10
878.8398267108383
 20
973.1590272069161
 30
0.0
 11
737.3017824149161
 21
965.7413326213021
 31
0.0
  0
LINE
  5
58
330
17
100
AcDbEntity
  8
0
100
AcDbLine
 10
876.9854030644345
 20
1008.5435382809012
 30
0.0
 11
735.4473587685123
 21
1001.1258436952872
 31
0.0
  0
LINE
  5
59
330
17
100
AcDbEntity
  8
0
100
AcDbLine
 10
875.1309794180311
 20
1043.928049354881
 30
0.0
 11
733.5929351221089
 21
1036.510354769267
 31
0.0
  0
LINE
  5
5A
330
17
100
AcDbEntity
  8
0
100
AcDbLine
 10
873.2765557716275
 20
1079.312560428863
 30
0.0
 11
731.7385114757053
 21
1071.894865843249
 31
0.0
  0
LINE
  5
5B
330
17
100
AcDbEntity
  8
0
100
AcDbLine
 10
871.4221321252239
 20
1114.6970715028458
 30
0.0
 11
541.1666954347337
 21
1097.3891174697462
 31
0.0
  0
LINE
  5
5C
330
17
100
AcDbEntity
  8
0
100
AcDbLine
 10
562.3974020791233
 20
1098.5017716575885
 30
0.0
 11
580.6325679354248
 21
750.5540794301032
 31
0.0
  0
LINE
  5
5D
330
17
100
AcDbEntity
  8
0
100
AcDbLine
 10
703.9354463750491
 20
1105.9194662432026
 30
0.0
 11
722.1706122313507
 21
757.9717740157174
 31
0.0
  0
LINE
  5
5E
330
17
100
AcDbEntity
  8
0
100
AcDbLine
 10
705.7898700214527
 20
1070.5349551692198
 30
0.0
 11
564.2518257255268
 21
1063.1172605836055
 31
0.0
  0
LINE
  5
5F
330
17
100
AcDbEntity
  8
0
100
AcDbLine
 10
707.6442936678562
 20
1035.1504440952378
 30
0.0
 11
566.1062493719304
 21
1027.7327495096235
 31
0.0
  0
LINE
  5
60
330
17
100
AcDbEntity
  8
0
100
AcDbLine
 10
709.4987173142597
 20
999.765933021258
 30
0.0
 11
567.9606730183339
 21
992.3482384356438
 31
0.0
  0
LINE
  5
61
330
17
100
AcDbEntity
  8
0
100
AcDbLine
 10
711.3531409606635
 20
964.3814219472729
 30
0.0
 11
569.8150966647377
 21
956.9637273616587
 31
0.0
  0
LINE
  5
62
330
17
100
AcDbEntity
  8
0
100
AcDbLine
 10
713.2075646070667
 20
928.9969108732968
 30
0.0
 11
571.6695203111409
 21
921.5792162876826
 31
0.0
  0
LINE
  5
63
330
17
100
AcDbEntity
  8
0
100
AcDbLine
 10
530.9673653795145
 20
1292.0039283766387
 30
0.0
 11
577.698841268883
 21
400.3142493123213
 31
0.0
  0
LINE
  5
64
330
17
100
AcDbEntity
  8
0
100
AcDbLine
 10
478.5790033282559
 20
2020.8209790919618
 30
0.0
 11
564.2868062978548
 21
385.41867542416674
 31
0.0
  0
LINE
  5
65
330
17
100
AcDbEntity
  8
0
100
AcDbLine
 10
1083.6973496268138
 20
426.8325074558917
 30
0.0
 11
1084.439119085375
 21
412.6787030262984
 31
0.0
  0
LINE
  5
66
330
17
100
AcDbEntity
  8
0
100
AcDbLine
 10
965.7489793802102
 20
420.65109530121333
 30
0.0
 11
966.4907488387717
 21
406.49729087162007
 31
0.0
  0
LINE
  5
67
330
17
100
AcDbEntity
  8
0
100
AcDbLine
 10
789.5681934688669
 20
397.22517263960253
 30
0.0
 11
788.8264240103055
 21
411.3789770691958
 31
0.0
  0
LINE
  5
68
330
17
100
AcDbEntity
  8
0
100
AcDbLine
 10
907.51656371547
 20
403.4065847942809
 30
0.0
 11
906.7747942569086
 21
417.56038922387415
 31
0.0
  0
LINE
  5
69
330
17
100
AcDbEntity
  8
0
100
AcDbLine
 10
906.7747942569086
 20
417.56038922387415
 30
0.0
 11
965.7489793802102
 21
420.65109530121333
 31
0.0
  0
LINE
  5
6A
330
17
100
AcDbEntity
  8
0
100
AcDbLine
 10
907.51656371547
 20
403.4065847942809
 30
0.0
 11
966.4907488387717
 21
406.49729087162007
 31
0.0
  0
LINE
  5
6B
330
17
100
AcDbEntity
  8
0
100
AcDbLine
 10
1083.6973496268138
 20
426.8325074558917
 30
0.0
 11
1191.0303665512222
 21
432.457592516649
 31
0.0
  0
LINE
  5
6C
330
17
100
AcDbEntity
  8
0
100
AcDbLine
 10
1084.439119085375
 20
412.6787030262984
 30
0.0
 11
1200.0285219270486
 21
418.7364869378803
 31
0.0
  0
LINE
  5
6D
330
17
100
AcDbEntity
  8
0
100
AcDbLine
 10
228.98593202208082
 20
13.029328220322554
 30
0.0
 11
1506.366781792792
 21
79.97402185548958
 31
0.0
  0
LINE
  5
6E
330
17
100
AcDbEntity
  8
0
100
AcDbLine
 10
588.0535213302836
 20
67.32896048761359
 30
0.0
 11
623.4380324042626
 21
69.18338413401693
 31
0.0
  0
LINE
  5
6F
330
17
100
AcDbEntity
  8
0
100
AcDbLine
 10
586.1990976838796
 20
102.71347156160289
 30
0.0
 11
621.5836087578585
 21
104.56789520800623
 31
0.0
  0
LINE
  5
70
330
17
100
AcDbEntity
  8
0
100
AcDbLine
 10
586.1990976838796
 20
102.71347156160289
 30
0.0
 11
588.0535213302836
 21
67.32896048761359
 31
0.0
  0
LINE
  5
71
330
17
100
AcDbEntity
  8
0
100
AcDbLine
 10
621.5836087578585
 20
104.56789520800623
 30
0.0
 11
623.4380324042626
 21
69.18338413401693
 31
0.0
  0
LINE
  5
72
330
17
100
AcDbEntity
  8
0
100
AcDbLine
 10
1108.2058341178035
 20
94.58898808974527
 30
0.0
 11
1143.590345191782
 21
96.44341173614862
 31
0.0
  0
LINE
  5
73
330
17
100
AcDbEntity
  8
0
100
AcDbLine
 10
1106.3514104713997
 20
129.97349916373457
 30
0.0
 11
1141.7359215453782
 21
131.82792281013792
 31
0.0
  0
LINE
  5
74
330
17
100
AcDbEntity
  8
0
100
AcDbLine
 10
1106.3514104713997
 20
129.97349916373457
 30
0.0
 11
1108.2058341178035
 21
94.58898808974527
 31
0.0
  0
LINE
  5
75
330
17
100
AcDbEntity
  8
0
100
AcDbLine
 10
1141.7359215453782
 20
131.82792281013792
 30
0.0
 11
1143.590345191782
 21
96.44341173614862
 31
0.0
  0
LINE
  5
76
330
17
100
AcDbEntity
  8
0
100
AcDbLine
 10
819.1973464412981
 20
757.1431134702284
 30
0.0
 11
800.653109977263
 21
1110.9882242100389
 31
0.0
  0
LINE
  5
77
330
17
100
AcDbEntity
  8
0
100
AcDbLine
 10
824.9958482670899
 20
1089.0699242045916
 30
0.0
 11
800.653109977263
 21
1110.9882242100389
 31
0.0
  0
LINE
  5
78
330
17
100
AcDbEntity
  8
0
100
AcDbLine
 10
778.7348099718191
 20
1086.6454859202088
 30
0.0
 11
800.653109977263
 21
1110.9882242100389
 31
0.0
  0
LINE
  5
79
330
17
100
AcDbEntity
  8
0
100
AcDbLine
 10
720.5433834988232
 20
698.7503324062282
 30
0.0
 11
738.2356390358145
 21
699.6775442294299
 31
0.0
  0
LINE
  5
7A
330
17
100
AcDbEntity
  8
0
100
AcDbLine
 10
726.1066544380337
 20
592.5967991842876
 30
0.0
 11
743.798909975025
 21
593.5240110074894
 31
0.0
  0
LINE
  5
7B
330
17
100
AcDbEntity
  8
0
100
AcDbLine
 10
727.9610780844373
 20
557.2122881103053
 30
0.0
 11
745.6533336214286
 21
558.1394999335071
 31
0.0
  0
LINE
  5
7C
330
17
100
AcDbEntity
  8
0
100
AcDbLine
 10
733.524349023648
 20
451.05875488835875
 30
0.0
 11
751.2166045606393
 21
451.98596671156054
 31
0.0
  0
LINE
  5
7D
330
17
100
AcDbEntity
  8
0
100
AcDbLine
 10
720.5433834988232
 20
698.7503324062282
 30
0.0
 11
718.3798892446857
 21
740.0322619925417
 31
0.0
  0
LINE
  5
7E
330
17
100
AcDbEntity
  8
0
100
AcDbLine
 10
738.2356390358145
 20
699.6775442294299
 30
0.0
 11
735.1449329584754
 21
758.6517293527319
 31
0.0
  0
LINE
  5
7F
330
17
100
AcDbEntity
  8
0
100
AcDbLine
 10
727.9610780844373
 20
557.2122881103053
 30
0.0
 11
726.1066544380337
 21
592.5967991842876
 31
0.0
  0
LINE
  5
80
330
17
100
AcDbEntity
  8
0
100
AcDbLine
 10
633.1664242270842
 20
1102.2106189503954
 30
0.0
 11
644.2929661055055
 21
889.9035525065079
 31
0.0
  0
LINE
  5
81
330
17
100
AcDbEntity
  8
0
100
AcDbLine
 10
644.2929661055055
 20
889.9035525065079
 30
0.0
 11
573.5239439575445
 21
886.194705213701
 31
0.0
  0
LINE
  5
82
330
17
100
AcDbEntity
  8
0
100
AcDbLine
 10
619.9502278156788
 20
911.8218525119551
 30
0.0
 11
644.2929661055055
 21
889.9035525065079
 31
0.0
  0
LINE
  5
83
330
17
100
AcDbEntity
  8
0
100
AcDbLine
 10
666.2112661109526
 20
914.2462907963381
 30
0.0
 11
644.2929661055055
 21
889.9035525065079
 31
0.0
  0
LINE
  5
84
330
17
100
AcDbEntity
  8
0
100
AcDbLine
 10
575.378367603948
 20
850.8101941397181
 30
0.0
 11
713.2075646070667
 21
928.9969108732968
 31
0.0
  0
LINE
  5
85
330
17
100
AcDbEntity
  8
0
100
AcDbLine
 10
492.73280775784553
 20
2021.5627485505233
 30
0.0
 11
530.0401535563128
 21
1309.6961839136256
 31
0.0
  0
LINE
  5
86
330
17
100
AcDbEntity
  8
0
100
AcDbLine
 10
278.9854093303224
 20
413.0446995417175
 30
0.0
 11
280.83983297672603
 21
377.660188467735
 31
0.0
  0
LINE
  5
87
330
17
100
AcDbEntity
  8
0
100
AcDbLine
 10
243.6008982563403
 20
411.1902758953138
 30
0.0
 11
245.4553219027439
 21
375.8057648213313
 31
0.0
  0
LINE
  5
88
330
17
100
AcDbEntity
  8
0
100
AcDbLine
 10
146.58770800021762
 20
1585.281103607544
 30
0.0
 11
228.98593202208082
 21
13.029328220322554
 31
0.0
  0
LINE
  5
89
330
17
100
AcDbEntity
  8
0
100
AcDbLine
 10
280.83983297672603
 20
377.660188467735
 30
0.0
 11
245.4553219027439
 21
375.8057648213313
 31
0.0
  0
LINE
  5
8A
330
17
100
AcDbEntity
  8
0
100
AcDbLine
 10
278.9854093303224
 20
413.0446995417175
 30
0.0
 11
243.6008982563403
 21
411.1902758953138
 31
0.0
  0
LINE
  5
8B
330
17
100
AcDbEntity
  8
0
100
AcDbLine
 10
245.54396957351224
 20
1051.1453825758406
 30
0.0
 11
247.39839321991585
 21
1015.7608715018582
 31
0.0
  0
LINE
  5
8C
330
17
100
AcDbEntity
  8
0
100
AcDbLine
 10
210.1594584995301
 20
1049.290958929437
 30
0.0
 11
212.0138821459337
 21
1013.9064478554545
 31
0.0
  0
LINE
  5
8D
330
17
100
AcDbEntity
  8
0
100
AcDbLine
 10
247.39839321991585
 20
1015.7608715018582
 30
0.0
 11
212.0138821459337
 21
1013.9064478554545
 31
0.0
  0
LINE
  5
8E
330
17
100
AcDbEntity
  8
0
100
AcDbLine
 10
245.54396957351224
 20
1051.1453825758406
 30
0.0
 11
210.1594584995301
 21
1049.290958929437
 31
0.0
  0
LINE
  5
8F
330
17
100
AcDbEntity
  8
0
100
AcDbLine
 10
223.53814230285712
 20
1471.041580653748
 30
0.0
 11
225.39256594926073
 21
1435.6570695797654
 31
0.0
  0
LINE
  5
90
330
17
100
AcDbEntity
  8
0
100
AcDbLine
 10
188.15363122887499
 20
1469.1871570073442
 30
0.0
 11
190.0080548752786
 21
1433.8026459333619
 31
0.0
  0
LINE
  5
91
330
17
100
AcDbEntity
  8
0
100
AcDbLine
 10
225.39256594926073
 20
1435.6570695797654
 30
0.0
 11
190.0080548752786
 21
1433.8026459333619
 31
0.0
  0
LINE
  5
92
330
17
100
AcDbEntity
  8
0
100
AcDbLine
 10
223.53814230285712
 20
1471.041580653748
 30
0.0
 11
188.15363122887499
 21
1469.1871570073442
 31
0.0
  0
LINE
  5
93
330
17
100
AcDbEntity
  8
0
100
AcDbLine
 10
500.43281874002685
 20
1603.8253400715794
 30
0.0
 11
146.58770800021762
 21
1585.281103607544
 31
0.0
  0
LINE
  5
94
330
17
100
AcDbEntity
  8
0
100
AcDbLine
 10
217.3567301481787
 20
1588.9899509003512
 30
0.0
 11
213.64788285537185
 21
1659.7589730483096
 31
0.0
  0
LINE
  5
95
330
17
100
AcDbEntity
  8
0
100
AcDbLine
 10
498.57839509362327
 20
1639.2098511455617
 30
0.0
 11
215.50230650177514
 21
1624.3744619743336
 31
0.0
  0
LINE
  5
96
330
17
100
AcDbEntity
  8
0
100
AcDbLine
 10
496.72397144722
 20
1674.5943622195377
 30
0.0
 11
213.64788285537185
 21
1659.7589730483096
 31
0.0
  0
LINE
  5
97
330
17
100
AcDbEntity
  8
0
100
AcDbLine
 10
152.76912015489603
 20
1467.332733360941
 30
0.0
 11
82.00009800693763
 21
1463.6238860681415
 31
0.0
  0
LINE
  5
98
330
17
100
AcDbEntity
  8
0
100
AcDbLine
 10
132.2199982521182
 20
1182.4022211226911
 30
0.0
 11
117.3846090809135
 21
1465.4783097145405
 31
0.0
  0
LINE
  5
99
330
17
100
AcDbEntity
  8
0
100
AcDbLine
 10
96.83548717814585
 20
1180.5477974762914
 30
0.0
 11
82.00009800693763
 21
1463.6238860681415
 31
0.0
  0
LINE
  5
9A
330
17
100
AcDbEntity
  8
0
100
AcDbLine
 10
96.83548717814585
 20
1180.5477974762914
 30
0.0
 11
167.6045093261239
 21
1184.2566447690995
 31
0.0
  0
LINE
  5
9B
330
17
100
AcDbEntity
  8
0
100
AcDbLine
 10
355.18592715129415
 20
1667.1766676339237
 30
0.0
 11
358.894774444101
 21
1596.407645485965
 31
0.0
  0
LINE
  5
9C
330
17
100
AcDbEntity
  8
0
100
AcDbLine
 10
334.55203615427405
 20
1618.3259454914123
 30
0.0
 11
358.894774444101
 21
1596.407645485965
 31
0.0
  0
LINE
  5
9D
330
17
100
AcDbEntity
  8
0
100
AcDbLine
 10
380.8130744495484
 20
1620.7503837757954
 30
0.0
 11
358.894774444101
 21
1596.407645485965
 31
0.0
  0
LINE
  5
9E
330
17
100
AcDbEntity
  8
0
100
AcDbLine
 10
89.41779259254203
 20
1322.085841772211
 30
0.0
 11
160.18681474049663
 21
1325.7946890650178
 31
0.0
  0
LINE
  5
9F
330
17
100
AcDbEntity
  8
0
100
AcDbLine
 10
138.2685147350525
 20
1301.451950775195
 30
0.0
 11
160.18681474049663
 21
1325.7946890650178
 31
0.0
  0
LINE
  5
A0
330
17
100
AcDbEntity
  8
0
100
AcDbLine
 10
135.8440764506697
 20
1347.7129890704643
 30
0.0
 11
160.18681474049663
 21
1325.7946890650178
 31
0.0
  0
LINE
  5
A1
330
17
100
AcDbEntity
  8
0
100
AcDbLine
 10
1102.9833555494104
 20
58.83359228648942
 30
0.0
 11
1105.915354501325
 21
2.8877195167264063
 31
0.0
  0
LINE
  5
A2
330
17
100
AcDbEntity
  8
0
100
AcDbLine
 10
808.1124299329022
 20
43.38006189979353
 30
0.0
 11
811.044428884817
 21
-12.565810869969482
 31
0.0
  0
LINE
  5
A3
330
17
100
AcDbEntity
  8
0
100
AcDbLine
 10
809.9668535793057
 20
7.995550825811506
 30
0.0
 11
1104.837779195814
 21
23.449081212507394
 31
0.0
  0
LINE
  5
A4
330
17
100
AcDbEntity
  8
0
100
AcDbLine
 10
958.479891693071
 20
-4.839045676621481
 30
0.0
 11
955.5478927411563
 21
51.10682709313835
 31
0.0
  0
LINE
  5
A5
330
17
100
AcDbEntity
  8
0
100
AcDbLine
 10
979.8906310309831
 20
29.188527087687476
 30
0.0
 11
955.5478927411563
 21
51.10682709313835
 31
0.0
  0
LINE
  5
A6
330
17
100
AcDbEntity
  8
0
100
AcDbLine
 10
933.629592735716
 20
26.764088803304844
 30
0.0
 11
955.5478927411563
 21
51.10682709313835
 31
0.0
  0
LINE
  5
A7
330
17
100
AcDbEntity
  8
0
100
AcDbLine
 10
1538.042445573987
 20
152.5974676498587
 30
0.0
 11
1523.207056402739
 21
435.67355624170216
 31
0.0
  0
LINE
  5
A8
330
17
100
AcDbEntity
  8
0
100
AcDbLine
 10
1573.4269566479693
 20
154.45189129626226
 30
0.0
 11
1558.5915674767173
 21
437.5279798881055
 31
0.0
  0
LINE
  5
A9
330
17
100
AcDbEntity
  8
0
100
AcDbLine
 10
1573.4269566479693
 20
154.45189129626226
 30
0.0
 11
1502.6579344999848
 21
150.74304400345397
 31
0.0
  0
LINE
  5
AA
330
17
100
AcDbEntity
  8
0
100
AcDbLine
 10
1566.009262062344
 20
295.98993559218684
 30
0.0
 11
1495.24023991438
 21
292.2810882993797
 31
0.0
  0
LINE
  5
AB
330
17
100
AcDbEntity
  8
0
100
AcDbLine
 10
1519.58297820421
 20
270.36278829393314
 30
0.0
 11
1495.24023991438
 21
292.2810882993797
 31
0.0
  0
LINE
  5
AC
330
17
100
AcDbEntity
  8
0
100
AcDbLine
 10
1517.158539919827
 20
316.62382658920706
 30
0.0
 11
1495.24023991438
 21
292.2810882993797
 31
0.0
  0
LINE
  5
AD
330
17
100
AcDbEntity
  8
0
100
AcDbLine
 10
1506.366781792792
 20
79.97402185548958
 30
0.0
 11
1487.8225453287566
 21
433.8191325952986
 31
0.0
  0
LINE
  5
AE
330
17
100
AcDbEntity
  8
0
100
AcDbLine
 10
1798.197155262738
 20
379.1217820494978
 30
0.0
 11
2082.4212746583153
 21
394.01733696569795
 31
0.0
  0
LINE
  5
AF
330
17
100
AcDbEntity
  8
0
100
AcDbLine
 10
407.8099811802913
 20
2017.1121317991547
 30
0.0
 11
425.95494929925536
 21
1670.8855149267306
 31
0.0
  0
LINE
  5
B0
330
17
100
AcDbEntity
  8
0
100
AcDbLine
 10
1815.964543385907
 20
40.09982068789202
 30
0.0
 11
1798.197155262738
 21
379.1217820494978
 31
0.0
  0
LINE
  5
B1
330
17
100
AcDbEntity
  8
0
100
AcDbLine
 10
1088.1304760920193
 20
680.7589734580587
 30
0.0
 11
1105.822731629007
 21
681.6861852812605
 31
0.0
  0
LINE
  5
B2
330
17
100
AcDbEntity
  8
0
100
AcDbLine
 10
1096.1663118931012
 20
527.426092137473
 30
0.0
 11
1113.858567430089
 21
528.3533039606748
 31
0.0
  0
LINE
  5
B3
330
17
100
AcDbEntity
  8
0
100
AcDbLine
 10
1105.822731629007
 20
681.6861852812605
 30
0.0
 11
1100.7848807229443
 21
777.814107032235
 31
0.0
  0
LINE
  5
B4
330
17
100
AcDbEntity
  8
0
100
AcDbLine
 10
1088.1304760920193
 20
680.7589734580587
 30
0.0
 11
1084.0198370091584
 21
759.1946396720449
 31
0.0
  0
LINE
  5
B5
330
17
100
AcDbEntity
  8
0
100
AcDbLine
 10
711.5301819437683
 20
645.0554245797939
 30
0.0
 11
752.812111530079
 21
647.2189188339312
 31
0.0
  0
LINE
  5
B6
330
17
100
AcDbEntity
  8
0
100
AcDbLine
 10
847.1824679181393
 20
426.2645201711945
 30
0.0
 11
849.1605198076365
 21
388.5210416922787
 31
0.0
  0
LINE
  5
B7
330
17
100
AcDbEntity
  8
0
100
AcDbLine
 10
1024.105023288044
 20
435.536638403212
 30
0.0
 11
1026.0830751775413
 21
397.7931599242962
 31
0.0
  0
LINE
  5
B8
330
17
100
AcDbEntity
  8
0
100
AcDbLine
 10
1088.1304760920195
 20
680.758973458055
 30
0.0
 11
1017.0024195105675
 21
601.7632636632152
 31
0.0
  0
LINE
  5
B9
330
17
100
AcDbEntity
  8
0
100
AcDbLine
 10
1096.1663118931012
 20
527.426092137473
 30
0.0
 11
1061.0571075398373
 21
559.0385617292281
 31
0.0
  0
LINE
  5
BA
330
17
100
AcDbEntity
  8
0
100
AcDbLine
 10
789.5681934688669
 20
397.22517263960253
 30
0.0
 11
907.51656371547
 21
403.4065847942809
 31
0.0
  0
LINE
  5
BB
330
17
100
AcDbEntity
  8
0
100
AcDbLine
 10
907.51656371547
 20
403.4065847942809
 30
0.0
 11
906.7747942569086
 21
417.56038922387415
 31
0.0
  0
LINE
  5
BC
330
17
100
AcDbEntity
  8
0
100
AcDbLine
 10
906.7747942569086
 20
417.56038922387415
 30
0.0
 11
788.8264240103055
 21
411.3789770691958
 31
0.0
  0
LINE
  5
BD
330
17
100
AcDbEntity
  8
0
100
AcDbLine
 10
788.8264240103055
 20
411.3789770691958
 30
0.0
 11
789.5681934688669
 21
397.22517263960253
 31
0.0
  0
LINE
  5
BE
330
17
100
AcDbEntity
  8
0
100
AcDbLine
 10
789.5681934688669
 20
397.22517263960253
 30
0.0
 11
789.5681934688669
 21
397.22517263960253
 31
0.0
  0
LINE
  5
BF
330
17
100
AcDbEntity
  8
0
100
AcDbLine
 10
966.4907488387717
 20
406.49729087162007
 30
0.0
 11
1084.439119085375
 21
412.6787030262984
 31
0.0
  0
LINE
  5
C0
330
17
100
AcDbEntity
  8
0
100
AcDbLine
 10
1084.439119085375
 20
412.6787030262984
 30
0.0
 11
1083.6973496268138
 21
426.8325074558917
 31
0.0
  0
LINE
  5
C1
330
17
100
AcDbEntity
  8
0
100
AcDbLine
 10
1083.6973496268138
 20
426.8325074558917
 30
0.0
 11
965.7489793802102
 21
420.65109530121333
 31
0.0
  0
LINE
  5
C2
330
17
100
AcDbEntity
  8
0
100
AcDbLine
 10
965.7489793802102
 20
420.65109530121333
 30
0.0
 11
966.4907488387717
 21
406.49729087162007
 31
0.0
  0
LINE
  5
C3
330
17
100
AcDbEntity
  8
0
100
AcDbLine
 10
966.4907488387717
 20
406.49729087162007
 30
0.0
 11
966.4907488387717
 21
406.49729087162007
 31
0.0
  0
LINE
  5
C4
330
17
100
AcDbEntity
  8
0
100
AcDbLine
 10
726.1066544380337
 20
592.5967991842876
 30
0.0
 11
720.5433834988232
 21
698.7503324062282
 31
0.0
  0
LINE
  5
C5
330
17
100
AcDbEntity
  8
0
100
AcDbLine
 10
720.5433834988232
 20
698.7503324062282
 30
0.0
 11
738.2356390358145
 21
699.6775442294299
 31
0.0
  0
LINE
  5
C6
330
17
100
AcDbEntity
  8
0
100
AcDbLine
 10
738.2356390358145
 20
699.6775442294299
 30
0.0
 11
743.798909975025
 21
593.5240110074894
 31
0.0
  0
LINE
  5
C7
330
17
100
AcDbEntity
  8
0
100
AcDbLine
 10
743.798909975025
 20
593.5240110074894
 30
0.0
 11
726.1066544380337
 21
592.5967991842876
 31
0.0
  0
LINE
  5
C8
330
17
100
AcDbEntity
  8
0
100
AcDbLine
 10
726.1066544380337
 20
592.5967991842876
 30
0.0
 11
726.1066544380337
 21
592.5967991842876
 31
0.0
  0
LINE
  5
C9
330
17
100
AcDbEntity
  8
0
100
AcDbLine
 10
262.26468945191726
 20
732.0950410587809
 30
0.0
 11
226.8801783779351
 21
730.2406174123772
 31
0.0
  0
LINE
  5
CA
330
17
100
AcDbEntity
  8
0
100
AcDbLine
 10
226.8801783779351
 20
730.2406174123772
 30
0.0
 11
228.73460202433887
 21
694.8561063383916
 31
0.0
  0
LINE
  5
CB
330
17
100
AcDbEntity
  8
0
100
AcDbLine
 10
228.73460202433887
 20
694.8561063383916
 30
0.0
 11
264.119113098321
 21
696.7105299847952
 31
0.0
  0
LINE
  5
CC
330
17
100
AcDbEntity
  8
0
100
AcDbLine
 10
264.119113098321
 20
696.7105299847952
 30
0.0
 11
262.26468945191726
 21
732.0950410587809
 31
0.0
  0
LINE
  5
CD
330
17
100
AcDbEntity
  8
0
100
AcDbLine
 10
262.26468945191726
 20
732.0950410587809
 30
0.0
 11
262.26468945191726
 21
732.0950410587809
 31
0.0
  0
LINE
  5
CE
330
17
100
AcDbEntity
  8
0
100
AcDbLine
 10
1467.2734234260051
 20
148.88862035705063
 30
0.0
 11
1431.8889123520228
 21
147.03419671064682
 31
0.0
  0
LINE
  5
CF
330
17
100
AcDbEntity
  8
0
100
AcDbLine
 10
1431.8889123520228
 20
147.03419671064682
 30
0.0
 11
1433.7433359984266
 21
111.64968563665752
 31
0.0
  0
LINE
  5
D0
330
17
100
AcDbEntity
  8
0
100
AcDbLine
 10
1433.7433359984266
 20
111.64968563665752
 30
0.0
 11
1469.127847072409
 21
113.50410928306133
 31
0.0
  0
LINE
  5
D1
330
17
100
AcDbEntity
  8
0
100
AcDbLine
 10
1469.127847072409
 20
113.50410928306133
 30
0.0
 11
1467.2734234260051
 21
148.88862035705063
 31
0.0
  0
LINE
  5
D2
330
17
100
AcDbEntity
  8
0
100
AcDbLine
 10
1467.2734234260051
 20
148.88862035705063
 30
0.0
 11
1467.2734234260051
 21
148.88862035705063
 31
0.0
  0
LINE
  5
D3
330
17
100
AcDbEntity
  8
0
100
AcDbLine
 10
260.6615958032526
 20
85.6527740146903
 30
0.0
 11
296.04610687723476
 21
87.50719766109398
 31
0.0
  0
LINE
  5
D4
330
17
100
AcDbEntity
  8
0
100
AcDbLine
 10
296.04610687723476
 20
87.50719766109398
 30
0.0
 11
297.9005305236387
 21
52.12268658710468
 31
0.0
  0
LINE
  5
D5
330
17
100
AcDbEntity
  8
0
100
AcDbLine
 10
297.9005305236387
 20
52.12268658710468
 30
0.0
 11
262.51601944965654
 21
50.26826294070099
 31
0.0
  0
LINE
  5
D6
330
17
100
AcDbEntity
  8
0
100
AcDbLine
 10
262.51601944965654
 20
50.26826294070099
 30
0.0
 11
260.6615958032526
 21
85.6527740146903
 31
0.0
  0
LINE
  5
D7
330
17
100
AcDbEntity
  8
0
100
AcDbLine
 10
260.6615958032526
 20
85.6527740146903
 30
0.0
 11
260.6615958032526
 21
85.6527740146903
 31
0.0
  0
LINE
  5
D8
330
17
100
AcDbEntity
  8
0
100
AcDbLine
 10
727.9610780844373
 20
557.2122881103053
 30
0.0
 11
733.524349023648
 21
451.05875488835875
 31
0.0
  0
LINE
  5
D9
330
17
100
AcDbEntity
  8
0
100
AcDbLine
 10
733.524349023648
 20
451.05875488835875
 30
0.0
 11
751.2166045606393
 21
451.98596671156054
 31
0.0
  0
LINE
  5
DA
330
17
100
AcDbEntity
  8
0
100
AcDbLine
 10
751.2166045606393
 20
451.98596671156054
 30
0.0
 11
745.6533336214286
 21
558.1394999335071
 31
0.0
  0
LINE
  5
DB
330
17
100
AcDbEntity
  8
0
100
AcDbLine
 10
745.6533336214286
 20
558.1394999335071
 30
0.0
 11
727.9610780844373
 21
557.2122881103053
 31
0.0
  0
LINE
  5
DC
330
17
100
AcDbEntity
  8
0
100
AcDbLine
 10
727.9610780844373
 20
557.2122881103053
 30
0.0
 11
727.9610780844373
 21
557.2122881103053
 31
0.0
  0
LINE
  5
DD
330
17
100
AcDbEntity
  8
0
100
AcDbLine
 10
1556.6703143156915
 20
451.61997019615217
 30
0.0
 11
1557.4120837742528
 21
437.4661657665589
 31
0.0
  0
LINE
  5
DE
330
17
100
AcDbEntity
  8
0
100
AcDbLine
 10
1557.4120837742528
 20
437.4661657665589
 30
0.0
 11
1451.2585505523086
 21
431.9028948273482
 31
0.0
  0
LINE
  5
DF
330
17
100
AcDbEntity
  8
0
100
AcDbLine
 10
1451.2585505523086
 20
431.9028948273482
 30
0.0
 11
1450.5167810937473
 21
446.05669925694144
 31
0.0
  0
LINE
  5
E0
330
17
100
AcDbEntity
  8
0
100
AcDbLine
 10
1450.5167810937473
 20
446.05669925694144
 30
0.0
 11
1556.6703143156915
 21
451.61997019615217
 31
0.0
  0
LINE
  5
E1
330
17
100
AcDbEntity
  8
0
100
AcDbLine
 10
1556.6703143156915
 20
451.61997019615217
 30
0.0
 11
1556.6703143156915
 21
451.61997019615217
 31
0.0
  0
LINE
  5
E2
330
17
100
AcDbEntity
  8
0
100
AcDbLine
 10
1297.1838997731659
 20
438.02086345585974
 30
0.0
 11
1297.9256692317272
 21
423.8670590262665
 31
0.0
  0
LINE
  5
E3
330
17
100
AcDbEntity
  8
0
100
AcDbLine
 10
1297.9256692317272
 20
423.8670590262665
 30
0.0
 11
1191.7721360097835
 21
418.30378808705575
 31
0.0
  0
LINE
  5
E4
330
17
100
AcDbEntity
  8
0
100
AcDbLine
 10
1191.7721360097835
 20
418.30378808705575
 30
0.0
 11
1191.0303665512222
 21
432.457592516649
 31
0.0
  0
LINE
  5
E5
330
17
100
AcDbEntity
  8
0
100
AcDbLine
 10
1191.0303665512222
 20
432.457592516649
 30
0.0
 11
1297.1838997731659
 21
438.02086345585974
 31
0.0
  0
LINE
  5
E6
330
17
100
AcDbEntity
  8
0
100
AcDbLine
 10
1297.1838997731659
 20
438.02086345585974
 30
0.0
 11
1297.1838997731659
 21
438.02086345585974
 31
0.0
  0
LINE
  5
E7
330
17
100
AcDbEntity
  8
0
100
AcDbLine
 10
2078.712427365508
 20
464.7863591136628
 30
0.0
 11
1982.0262166620232
 21
459.7192495234011
 31
0.0
  0
LINE
  5
E8
330
17
100
AcDbEntity
  8
0
100
AcDbLine
 10
1982.0262166620232
 20
459.7192495234011
 30
0.0
 11
1981.284447203462
 21
473.8730539529944
 31
0.0
  0
LINE
  5
E9
330
17
100
AcDbEntity
  8
0
100
AcDbLine
 10
1981.284447203462
 20
473.8730539529944
 30
0.0
 11
2077.9706579069466
 21
478.94016354325606
 31
0.0
  0
LINE
  5
EA
330
17
100
AcDbEntity
  8
0
100
AcDbLine
 10
1827.9515658828798
 20
465.83721815191245
 30
0.0
 11
1828.693335341441
 21
451.6834137223192
 31
0.0
  0
LINE
  5
EB
330
17
100
AcDbEntity
  8
0
100
AcDbLine
 10
1828.693335341441
 20
451.6834137223192
 30
0.0
 11
1722.539802119498
 21
446.1201427831087
 31
0.0
  0
LINE
  5
EC
330
17
100
AcDbEntity
  8
0
100
AcDbLine
 10
1722.539802119498
 20
446.1201427831087
 30
0.0
 11
1721.7980326609368
 21
460.27394721270196
 31
0.0
  0
LINE
  5
ED
330
17
100
AcDbEntity
  8
0
100
AcDbLine
 10
1721.7980326609368
 20
460.27394721270196
 30
0.0
 11
1827.9515658828798
 21
465.83721815191245
 31
0.0
  0
LINE
  5
EE
330
17
100
AcDbEntity
  8
0
100
AcDbLine
 10
1827.9515658828798
 20
465.83721815191245
 30
0.0
 11
1827.9515658828798
 21
465.83721815191245
 31
0.0
  0
LINE
  5
EF
330
17
100
AcDbEntity
  8
0
100
AcDbLine
 10
1627.5061659782787
 20
476.62133825488786
 30
0.0
 11
1648.7368726226648
 21
477.7339924427299
 31
0.0
  0
LINE
  5
F0
330
17
100
AcDbEntity
  8
0
100
AcDbLine
 10
1648.7368726226648
 20
477.7339924427299
 30
0.0
 11
1649.8495268105066
 21
456.503285798348
 31
0.0
  0
LINE
  5
F1
330
17
100
AcDbEntity
  8
0
100
AcDbLine
 10
1649.8495268105066
 20
456.503285798348
 30
0.0
 11
1628.6188201661205
 21
455.3906316105059
 31
0.0
  0
LINE
  5
F2
330
17
100
AcDbEntity
  8
0
100
AcDbLine
 10
1628.6188201661205
 20
455.3906316105059
 30
0.0
 11
1627.5061659782787
 21
476.62133825488786
 31
0.0
  0
LINE
  5
F3
330
17
100
AcDbEntity
  8
0
100
AcDbLine
 10
1627.5061659782787
 20
476.62133825488786
 30
0.0
 11
1627.5061659782787
 21
476.62133825488786
 31
0.0
  0
LINE
  5
F4
330
17
100
AcDbEntity
  8
0
100
AcDbLine
 10
1096.7384998685645
 20
448.80498355883515
 30
0.0
 11
1117.9692065129504
 21
449.9176377466772
 31
0.0
  0
LINE
  5
F5
330
17
100
AcDbEntity
  8
0
100
AcDbLine
 10
1117.9692065129504
 20
449.9176377466772
 30
0.0
 11
1119.0818607007923
 21
428.68693110229526
 31
0.0
  0
LINE
  5
F6
330
17
100
AcDbEntity
  8
0
100
AcDbLine
 10
1119.0818607007923
 20
428.68693110229526
 30
0.0
 11
1097.8511540564064
 21
427.5742769144532
 31
0.0
  0
LINE
  5
F7
330
17
100
AcDbEntity
  8
0
100
AcDbLine
 10
1097.8511540564064
 20
427.5742769144532
 30
0.0
 11
1096.7384998685645
 21
448.80498355883515
 31
0.0
  0
LINE
  5
F8
330
17
100
AcDbEntity
  8
0
100
AcDbLine
 10
1096.7384998685645
 20
448.80498355883515
 30
0.0
 11
1096.7384998685645
 21
448.80498355883515
 31
0.0
  0
LINE
  5
F9
330
17
100
AcDbEntity
  8
0
100
AcDbLine
 10
576.5861870810413
 20
421.54495595670323
 30
0.0
 11
597.8168937254309
 21
422.6576101445454
 31
0.0
  0
LINE
  5
FA
330
17
100
AcDbEntity
  8
0
100
AcDbLine
 10
597.8168937254309
 20
422.6576101445454
 30
0.0
 11
598.9295479132726
 21
401.42690350016346
 31
0.0
  0
LINE
  5
FB
330
17
100
AcDbEntity
  8
0
100
AcDbLine
 10
598.9295479132726
 20
401.42690350016346
 30
0.0
 11
577.698841268883
 21
400.3142493123213
 31
0.0
  0
LINE
  5
FC
330
17
100
AcDbEntity
  8
0
100
AcDbLine
 10
577.698841268883
 20
400.3142493123213
 30
0.0
 11
576.5861870810413
 21
421.54495595670323
 31
0.0
  0
LINE
  5
FD
330
17
100
AcDbEntity
  8
0
100
AcDbLine
 10
576.5861870810413
 20
421.54495595670323
 30
0.0
 11
576.5861870810413
 21
421.54495595670323
 31
0.0
  0
LINE
  5
FE
330
17
100
AcDbEntity
  8
0
100
AcDbLine
 10
1594.0647262214682
 20
1114.7220212890147
 30
0.0
 11
1615.2954328658543
 21
1115.8346754768568
 31
0.0
  0
LINE
  5
FF
330
17
100
AcDbEntity
  8
0
100
AcDbLine
 10
1615.2954328658543
 20
1115.8346754768568
 30
0.0
 11
1616.4080870536964
 21
1094.6039688324706
 31
0.0
  0
LINE
  5
100
330
17
100
AcDbEntity
  8
0
100
AcDbLine
 10
1616.4080870536964
 20
1094.6039688324706
 30
0.0
 11
1595.1773804093102
 21
1093.4913146446286
 31
0.0
  0
LINE
  5
101
330
17
100
AcDbEntity
  8
0
100
AcDbLine
 10
1595.1773804093102
 20
1093.4913146446286
 30
0.0
 11
1594.0647262214682
 21
1114.7220212890147
 31
0.0
  0
LINE
  5
102
330
17
100
AcDbEntity
  8
0
100
AcDbLine
 10
1594.0647262214682
 20
1114.7220212890147
 30
0.0
 11
1594.0647262214682
 21
1114.7220212890147
 31
0.0
  0
LINE
  5
103
330
17
100
AcDbEntity
  8
0
100
AcDbLine
 10
1063.297060111754
 20
1086.905666592962
 30
0.0
 11
1084.52776675614
 21
1088.018320780804
 31
0.0
  0
LINE
  5
104
330
17
100
AcDbEntity
  8
0
100
AcDbLine
 10
1084.52776675614
 20
1088.018320780804
 30
0.0
 11
1085.640420943982
 21
1066.787614136418
 31
0.0
  0
LINE
  5
105
330
17
100
AcDbEntity
  8
0
100
AcDbLine
 10
1085.640420943982
 20
1066.787614136418
 30
0.0
 11
1064.409714299596
 21
1065.6749599485759
 31
0.0
  0
LINE
  5
106
330
17
100
AcDbEntity
  8
0
100
AcDbLine
 10
1064.409714299596
 20
1065.6749599485759
 30
0.0
 11
1063.297060111754
 21
1086.905666592962
 31
0.0
  0
LINE
  5
107
330
17
100
AcDbEntity
  8
0
100
AcDbLine
 10
1063.297060111754
 20
1086.905666592962
 30
0.0
 11
1063.297060111754
 21
1086.905666592962
 31
0.0
  0
LINE
  5
108
330
17
100
AcDbEntity
  8
0
100
AcDbLine
 10
543.1447473242309
 20
1059.64563899083
 30
0.0
 11
564.3754539686205
 21
1060.7582931786721
 31
0.0
  0
LINE
  5
109
330
17
100
AcDbEntity
  8
0
100
AcDbLine
 10
564.3754539686205
 20
1060.7582931786721
 30
0.0
 11
565.4881081564624
 21
1039.5275865342862
 31
0.0
  0
LINE
  5
10A
330
17
100
AcDbEntity
  8
0
100
AcDbLine
 10
565.4881081564624
 20
1039.5275865342862
 30
0.0
 11
544.2574015120729
 21
1038.414932346444
 31
0.0
  0
LINE
  5
10B
330
17
100
AcDbEntity
  8
0
100
AcDbLine
 10
544.2574015120729
 20
1038.414932346444
 30
0.0
 11
543.1447473242309
 21
1059.64563899083
 31
0.0
  0
LINE
  5
10C
330
17
100
AcDbEntity
  8
0
100
AcDbLine
 10
543.1447473242309
 20
1059.64563899083
 30
0.0
 11
543.1447473242309
 21
1059.64563899083
 31
0.0
  0
LINE
  5
10D
330
17
100
AcDbEntity
  8
0
100
AcDbLine
 10
1560.066959370737
 20
1763.4380576453323
 30
0.0
 11
1581.2976660151232
 21
1764.5507118331743
 31
0.0
  0
LINE
  5
10E
330
17
100
AcDbEntity
  8
0
100
AcDbLine
 10
1581.2976660151232
 20
1764.5507118331743
 30
0.0
 11
1582.410320202965
 21
1743.320005188788
 31
0.0
  0
LINE
  5
10F
330
17
100
AcDbEntity
  8
0
100
AcDbLine
 10
1582.410320202965
 20
1743.320005188788
 30
0.0
 11
1561.179613558579
 21
1742.207351000946
 31
0.0
  0
LINE
  5
110
330
17
100
AcDbEntity
  8
0
100
AcDbLine
 10
1561.179613558579
 20
1742.207351000946
 30
0.0
 11
1560.066959370737
 21
1763.4380576453323
 31
0.0
  0
LINE
  5
111
330
17
100
AcDbEntity
  8
0
100
AcDbLine
 10
1560.066959370737
 20
1763.4380576453323
 30
0.0
 11
1560.066959370737
 21
1763.4380576453323
 31
0.0
  0
LINE
  5
112
330
17
100
AcDbEntity
  8
0
100
AcDbLine
 10
1029.299293261023
 20
1735.6217029492796
 30
0.0
 11
1050.5299999054089
 21
1736.7343571371216
 31
0.0
  0
LINE
  5
113
330
17
100
AcDbEntity
  8
0
100
AcDbLine
 10
1050.5299999054089
 20
1736.7343571371216
 30
0.0
 11
1051.6426540932507
 21
1715.5036504927352
 31
0.0
  0
LINE
  5
114
330
17
100
AcDbEntity
  8
0
100
AcDbLine
 10
1051.6426540932507
 20
1715.5036504927352
 30
0.0
 11
1030.4119474488648
 21
1714.3909963048932
 31
0.0
  0
LINE
  5
115
330
17
100
AcDbEntity
  8
0
100
AcDbLine
 10
1030.4119474488648
 20
1714.3909963048932
 30
0.0
 11
1029.299293261023
 21
1735.6217029492796
 31
0.0
  0
LINE
  5
116
330
17
100
AcDbEntity
  8
0
100
AcDbLine
 10
1029.299293261023
 20
1735.6217029492796
 30
0.0
 11
1029.299293261023
 21
1735.6217029492796
 31
0.0
  0
LINE
  5
117
330
17
100
AcDbEntity
  8
0
100
AcDbLine
 10
509.1469804734997
 20
1708.3616753471479
 30
0.0
 11
530.3776871178892
 21
1709.47432953499
 31
0.0
  0
LINE
  5
118
330
17
100
AcDbEntity
  8
0
100
AcDbLine
 10
530.3776871178892
 20
1709.47432953499
 30
0.0
 11
531.4903413057312
 21
1688.2436228906035
 31
0.0
  0
LINE
  5
119
330
17
100
AcDbEntity
  8
0
100
AcDbLine
 10
531.4903413057312
 20
1688.2436228906035
 30
0.0
 11
510.2596346613417
 21
1687.1309687027613
 31
0.0
  0
LINE
  5
11A
330
17
100
AcDbEntity
  8
0
100
AcDbLine
 10
510.2596346613417
 20
1687.1309687027613
 30
0.0
 11
509.1469804734997
 21
1708.3616753471479
 31
0.0
  0
LINE
  5
11B
330
17
100
AcDbEntity
  8
0
100
AcDbLine
 10
509.1469804734997
 20
1708.3616753471479
 30
0.0
 11
509.1469804734997
 21
1708.3616753471479
 31
0.0
  0
LINE
  5
11C
330
17
100
AcDbEntity
  8
0
100
AcDbLine
 10
745.3191860483092
 20
451.6768961038299
 30
0.0
 11
744.8864871974818
 21
459.93328202109114
 31
0.0
  0
LINE
  5
11D
330
17
100
AcDbEntity
  8
0
100
AcDbLine
 10
744.8864871974818
 20
459.93328202109114
 30
0.0
 11
750.7839057098117
 21
460.24235262882496
 31
0.0
  0
LINE
  5
11E
330
17
100
AcDbEntity
  8
0
100
AcDbLine
 10
750.7839057098117
 20
460.24235262882496
 30
0.0
 11
750.7839057098117
 21
460.24235262882496
 31
0.0
  0
LINE
  5
11F
330
17
100
AcDbEntity
  8
0
100
AcDbLine
 10
747.8351964536469
 20
460.0878173249581
 30
0.0
 11
743.1373232160911
 21
549.7285787123794
 31
0.0
  0
LINE
  5
120
330
17
100
AcDbEntity
  8
0
100
AcDbLine
 10
743.1373232160911
 20
549.7285787123794
 30
0.0
 11
740.188613959926
 21
549.5740434085124
 31
0.0
  0
LINE
  5
121
330
17
100
AcDbEntity
  8
0
100
AcDbLine
 10
740.188613959926
 20
549.5740434085124
 30
0.0
 11
744.8864871974818
 21
459.93328202109114
 31
0.0
  0
LINE
  5
122
330
17
100
AcDbEntity
  8
0
100
AcDbLine
 10
744.8864871974818
 20
459.93328202109114
 30
0.0
 11
747.8351964536469
 21
460.0878173249581
 31
0.0
  0
LINE
  5
123
330
17
100
AcDbEntity
  8
0
100
AcDbLine
 10
747.8351964536469
 20
460.0878173249581
 30
0.0
 11
747.8351964536469
 21
460.0878173249581
 31
0.0
  0
LINE
  5
124
330
17
100
AcDbEntity
  8
0
100
AcDbLine
 10
743.798909975025
 20
593.5240110074894
 30
0.0
 11
746.086032472256
 21
549.8831140162463
 31
0.0
  0
LINE
  5
125
330
17
100
AcDbEntity
  8
0
100
AcDbLine
 10
746.086032472256
 20
549.8831140162463
 30
0.0
 11
740.188613959926
 21
549.5740434085124
 31
0.0
  0
LINE
  5
126
330
17
100
AcDbEntity
  8
0
100
AcDbLine
 10
740.188613959926
 20
549.5740434085124
 30
0.0
 11
739.7559151090986
 21
557.8304293257731
 31
0.0
  0
LINE
  5
127
330
17
100
AcDbEntity
  8
0
100
AcDbLine
 10
745.6533336214286
 20
558.1394999335071
 30
0.0
 11
745.6533336214286
 21
558.1394999335071
 31
0.0
  0
LINE
  5
128
330
17
100
AcDbEntity
  8
0
100
AcDbLine
 10
1450.9494799445781
 20
437.8003133396745
 30
0.0
 11
1459.2058658618405
 21
438.2330121905019
 31
0.0
  0
LINE
  5
129
330
17
100
AcDbEntity
  8
0
100
AcDbLine
 10
1459.2058658618405
 20
438.2330121905019
 30
0.0
 11
1459.5149364695744
 21
432.3355936781727
 31
0.0
  0
LINE
  5
12A
330
17
100
AcDbEntity
  8
0
100
AcDbLine
 10
1459.5149364695744
 20
432.3355936781727
 30
0.0
 11
1459.5149364695744
 21
432.3355936781727
 31
0.0
  0
LINE
  5
12B
330
17
100
AcDbEntity
  8
0
100
AcDbLine
 10
1459.3604011657076
 20
435.28430293433723
 30
0.0
 11
1549.0011625531274
 21
439.982176171893
 31
0.0
  0
LINE
  5
12C
330
17
100
AcDbEntity
  8
0
100
AcDbLine
 10
1549.0011625531274
 20
439.982176171893
 30
0.0
 11
1548.8466272492603
 21
442.93088542805765
 31
0.0
  0
LINE
  5
12D
330
17
100
AcDbEntity
  8
0
100
AcDbLine
 10
1548.8466272492603
 20
442.93088542805765
 30
0.0
 11
1459.2058658618405
 21
438.2330121905019
 31
0.0
  0
LINE
  5
12E
330
17
100
AcDbEntity
  8
0
100
AcDbLine
 10
1459.2058658618405
 20
438.2330121905019
 30
0.0
 11
1459.3604011657076
 21
435.28430293433723
 31
0.0
  0
LINE
  5
12F
330
17
100
AcDbEntity
  8
0
100
AcDbLine
 10
1459.3604011657076
 20
435.28430293433723
 30
0.0
 11
1459.3604011657076
 21
435.28430293433723
 31
0.0
  0
LINE
  5
130
330
17
100
AcDbEntity
  8
0
100
AcDbLine
 10
1730.796188036763
 20
446.5528416339332
 30
0.0
 11
1549.1556978569943
 21
437.03346691572847
 31
0.0
  0
LINE
  5
131
330
17
100
AcDbEntity
  8
0
100
AcDbLine
 10
1549.1556978569943
 20
437.03346691572847
 30
0.0
 11
1548.8466272492603
 21
442.93088542805765
 31
0.0
  0
LINE
  5
132
330
17
100
AcDbEntity
  8
0
100
AcDbLine
 10
1548.8466272492603
 20
442.93088542805765
 30
0.0
 11
1557.1030131665223
 21
443.36358427888524
 31
0.0
  0
LINE
  5
133
330
17
100
AcDbEntity
  8
0
100
AcDbLine
 10
1557.4120837742562
 20
437.46616576655606
 30
0.0
 11
1557.4120837742562
 21
437.46616576655606
 31
0.0
  0
LINE
  5
134
330
17
100
AcDbEntity
  8
0
100
AcDbLine
 10
1191.463065402053
 20
424.2012065993821
 30
0.0
 11
1199.7194513193147
 21
424.63390545020945
 31
0.0
  0
LINE
  5
135
330
17
100
AcDbEntity
  8
0
100
AcDbLine
 10
1199.7194513193147
 20
424.63390545020945
 30
0.0
 11
1200.0285219270486
 21
418.7364869378803
 31
0.0
  0
LINE
  5
136
330
17
100
AcDbEntity
  8
0
100
AcDbLine
 10
1200.0285219270486
 20
418.7364869378803
 30
0.0
 11
1200.0285219270486
 21
418.7364869378803
 31
0.0
  0
LINE
  5
137
330
17
100
AcDbEntity
  8
0
100
AcDbLine
 10
1199.8739866231817
 20
421.6851961940448
 30
0.0
 11
1289.5147480106018
 21
426.3830694316006
 31
0.0
  0
LINE
  5
138
330
17
100
AcDbEntity
  8
0
100
AcDbLine
 10
1289.5147480106018
 20
426.3830694316006
 30
0.0
 11
1289.3602127067347
 21
429.3317786877652
 31
0.0
  0
LINE
  5
139
330
17
100
AcDbEntity
  8
0
100
AcDbLine
 10
1289.3602127067347
 20
429.3317786877652
 30
0.0
 11
1199.7194513193147
 21
424.63390545020945
 31
0.0
  0
LINE
  5
13A
330
17
100
AcDbEntity
  8
0
100
AcDbLine
 10
1199.7194513193147
 20
424.63390545020945
 30
0.0
 11
1199.8739866231817
 21
421.6851961940448
 31
0.0
  0
LINE
  5
13B
330
17
100
AcDbEntity
  8
0
100
AcDbLine
 10
1199.8739866231817
 20
421.6851961940448
 30
0.0
 11
1199.8739866231817
 21
421.6851961940448
 31
0.0
  0
LINE
  5
13C
330
17
100
AcDbEntity
  8
0
100
AcDbLine
 10
1459.5149364695744
 20
432.3355936781727
 30
0.0
 11
1289.6692833144687
 21
423.43436017543604
 31
0.0
  0
LINE
  5
13D
330
17
100
AcDbEntity
  8
0
100
AcDbLine
 10
1289.6692833144687
 20
423.43436017543604
 30
0.0
 11
1289.3602127067347
 21
429.3317786877652
 31
0.0
  0
LINE
  5
13E
330
17
100
AcDbEntity
  8
0
100
AcDbLine
 10
1289.3602127067347
 20
429.3317786877652
 30
0.0
 11
1297.6165986239967
 21
429.7644775385928
 31
0.0
  0
LINE
  5
13F
330
17
100
AcDbEntity
  8
0
100
AcDbLine
 10
1297.9256692317306
 20
423.86705902626363
 30
0.0
 11
1297.9256692317306
 21
423.86705902626363
 31
0.0
  0
LINE
  5
140
330
17
100
AcDbEntity
  8
0
100
AcDbLine
 10
1981.717146054293
 20
465.61666803572723
 30
0.0
 11
1989.973531971555
 21
466.0493668865548
 31
0.0
  0
LINE
  5
141
330
17
100
AcDbEntity
  8
0
100
AcDbLine
 10
1989.973531971555
 20
466.0493668865548
 30
0.0
 11
1990.282602579289
 21
460.15194837422564
 31
0.0
  0
LINE
  5
142
330
17
100
AcDbEntity
  8
0
100
AcDbLine
 10
1990.282602579289
 20
460.15194837422564
 30
0.0
 11
1990.282602579289
 21
460.15194837422564
 31
0.0
  0
LINE
  5
143
330
17
100
AcDbEntity
  8
0
100
AcDbLine
 10
1990.1280672754222
 20
463.1006576303902
 30
0.0
 11
2078.5578920616413
 21
467.73506836982426
 31
0.0
  0
LINE
  5
144
330
17
100
AcDbEntity
  8
0
100
AcDbLine
 10
2078.4033567577744
 20
470.6837776259889
 30
0.0
 11
1989.973531971555
 21
466.0493668865548
 31
0.0
  0
LINE
  5
145
330
17
100
AcDbEntity
  8
0
100
AcDbLine
 10
1989.973531971555
 20
466.0493668865548
 30
0.0
 11
1990.1280672754222
 21
463.1006576303902
 31
0.0
  0
LINE
  5
146
330
17
100
AcDbEntity
  8
0
100
AcDbLine
 10
1990.1280672754222
 20
463.1006576303902
 30
0.0
 11
1990.1280672754222
 21
463.1006576303902
 31
0.0
  0
LINE
  5
147
330
17
100
AcDbEntity
  8
0
100
AcDbLine
 10
1722.230731511767
 20
452.0175612954348
 30
0.0
 11
1730.487117429029
 21
452.4502601462624
 31
0.0
  0
LINE
  5
148
330
17
100
AcDbEntity
  8
0
100
AcDbLine
 10
1730.487117429029
 20
452.4502601462624
 30
0.0
 11
1730.796188036763
 21
446.5528416339332
 31
0.0
  0
LINE
  5
149
330
17
100
AcDbEntity
  8
0
100
AcDbLine
 10
1730.796188036763
 20
446.5528416339332
 30
0.0
 11
1730.796188036763
 21
446.5528416339332
 31
0.0
  0
LINE
  5
14A
330
17
100
AcDbEntity
  8
0
100
AcDbLine
 10
1730.641652732896
 20
449.50155089009775
 30
0.0
 11
1820.2824141203168
 21
454.1994241276535
 31
0.0
  0
LINE
  5
14B
330
17
100
AcDbEntity
  8
0
100
AcDbLine
 10
1820.2824141203168
 20
454.1994241276535
 30
0.0
 11
1820.1278788164498
 21
457.14813338381816
 31
0.0
  0
LINE
  5
14C
330
17
100
AcDbEntity
  8
0
100
AcDbLine
 10
1820.1278788164498
 20
457.14813338381816
 30
0.0
 11
1730.487117429029
 21
452.4502601462624
 31
0.0
  0
LINE
  5
14D
330
17
100
AcDbEntity
  8
0
100
AcDbLine
 10
1730.487117429029
 20
452.4502601462624
 30
0.0
 11
1730.641652732896
 21
449.50155089009775
 31
0.0
  0
LINE
  5
14E
330
17
100
AcDbEntity
  8
0
100
AcDbLine
 10
1730.641652732896
 20
449.50155089009775
 30
0.0
 11
1730.641652732896
 21
449.50155089009775
 31
0.0
  0
LINE
  5
14F
330
17
100
AcDbEntity
  8
0
100
AcDbLine
 10
1990.282602579289
 20
460.15194837422564
 30
0.0
 11
1820.4369494241837
 21
451.250714871489
 31
0.0
  0
LINE
  5
150
330
17
100
AcDbEntity
  8
0
100
AcDbLine
 10
1820.4369494241837
 20
451.250714871489
 30
0.0
 11
1820.1278788164498
 21
457.14813338381816
 31
0.0
  0
LINE
  5
151
330
17
100
AcDbEntity
  8
0
100
AcDbLine
 10
1820.1278788164498
 20
457.14813338381816
 30
0.0
 11
1828.384264733711
 21
457.5808322346455
 31
0.0
  0
LINE
  5
152
330
17
100
AcDbEntity
  8
0
100
AcDbLine
 10
1828.693335341445
 20
451.68341372231635
 30
0.0
 11
1828.693335341445
 21
451.68341372231635
 31
0.0
  0
LINE
  5
153
330
17
100
AcDbEntity
  8
0
100
AcDbLine
 10
826.2383663807607
 20
757.5121176891432
 30
0.0
 11
826.1911025411455
 21
758.0372619575257
 31
0.0
  0
LINE
  5
154
330
17
100
AcDbEntity
  8
0
100
AcDbLine
 10
826.1911025411455
 20
758.0372619575257
 30
0.0
 11
826.104726780489
 21
758.5574057848676
 31
0.0
  0
LINE
  5
155
330
17
100
AcDbEntity
  8
0
100
AcDbLine
 10
826.104726780489
 20
758.5574057848676
 30
0.0
 11
825.9797221470824
 21
759.0696403158956
 31
0.0
  0
LINE
  5
156
330
17
100
AcDbEntity
  8
0
100
AcDbLine
 10
825.9797221470824
 20
759.0696403158956
 30
0.0
 11
825.8167877175421
 21
759.5711009273307
 31
0.0
  0
LINE
  5
157
330
17
100
AcDbEntity
  8
0
100
AcDbLine
 10
825.8167877175421
 20
759.5711009273307
 30
0.0
 11
825.6168346872905
 21
760.0589832480225
 31
0.0
  0
LINE
  5
158
330
17
100
AcDbEntity
  8
0
100
AcDbLine
 10
825.6168346872905
 20
760.0589832480225
 30
0.0
 11
825.3809812747813
 21
760.5305588421309
 31
0.0
  0
LINE
  5
159
330
17
100
AcDbEntity
  8
0
100
AcDbLine
 10
825.3809812747813
 20
760.5305588421309
 30
0.0
 11
825.1105464679681
 21
760.9831904676437
 31
0.0
  0
LINE
  5
15A
330
17
100
AcDbEntity
  8
0
100
AcDbLine
 10
825.1105464679681
 20
760.9831904676437
 30
0.0
 11
824.8070426479894
 21
761.4143468249072
 31
0.0
  0
LINE
  5
15B
330
17
100
AcDbEntity
  8
0
100
AcDbLine
 10
824.8070426479894
 20
761.4143468249072
 30
0.0
 11
824.472167131319
 21
761.8216167126791
 31
0.0
  0
LINE
  5
15C
330
17
100
AcDbEntity
  8
0
100
AcDbLine
 10
824.472167131319
 20
761.8216167126791
 30
0.0
 11
824.1077926776841
 21
762.2027225125411
 31
0.0
  0
LINE
  5
15D
330
17
100
AcDbEntity
  8
0
100
AcDbLine
 10
824.1077926776841
 20
762.2027225125411
 30
0.0
 11
823.7159570168334
 21
762.5555329262711
 31
0.0
  0
LINE
  5
15E
330
17
100
AcDbEntity
  8
0
100
AcDbLine
 10
823.7159570168334
 20
762.5555329262711
 30
0.0
 11
823.298851452726
 21
762.8780748949221
 31
0.0
  0
LINE
  5
15F
330
17
100
AcDbEntity
  8
0
100
AcDbLine
 10
823.298851452726
 20
762.8780748949221
 30
0.0
 11
822.8588086088696
 21
763.1685446329694
 31
0.0
  0
LINE
  5
160
330
17
100
AcDbEntity
  8
0
100
AcDbLine
 10
822.8588086088696
 20
763.1685446329694
 30
0.0
 11
822.3982893833454
 21
763.4253177158132
 31
0.0
  0
LINE
  5
161
330
17
100
AcDbEntity
  8
0
100
AcDbLine
 10
822.3982893833454
 20
763.4253177158132
 30
0.0
 11
821.9198691864667
 21
763.6469581642172
 31
0.0
  0
LINE
  5
162
330
17
100
AcDbEntity
  8
0
100
AcDbLine
 10
821.9198691864667
 20
763.6469581642172
 30
0.0
 11
821.426223538039
 21
763.8322264748882
 31
0.0
  0
LINE
  5
163
330
17
100
AcDbEntity
  8
0
100
AcDbLine
 10
821.426223538039
 20
763.8322264748882
 30
0.0
 11
820.9201131047698
 21
763.9800865522816
 31
0.0
  0
LINE
  5
164
330
17
100
AcDbEntity
  8
0
100
AcDbLine
 10
820.9201131047698
 20
763.9800865522816
 30
0.0
 11
820.4043682614995
 21
764.0897115028662
 31
0.0
  0
LINE
  5
165
330
17
100
AcDbEntity
  8
0
100
AcDbLine
 10
820.4043682614995
 20
764.0897115028662
 30
0.0
 11
819.8818732625972
 21
764.1604882594504
 31
0.0
  0
LINE
  5
166
330
17
100
AcDbEntity
  8
0
100
AcDbLine
 10
819.8818732625972
 20
764.1604882594504
 30
0.0
 11
819.3555501120401
 21
764.1920210097019
 31
0.0
  0
LINE
  5
167
330
17
100
AcDbEntity
  8
0
100
AcDbLine
 10
819.3555501120401
 20
764.1920210097019
 30
0.0
 11
818.8283422223833
 21
764.1841334096908
 31
0.0
  0
LINE
  5
168
330
17
100
AcDbEntity
  8
0
100
AcDbLine
 10
818.8283422223833
 20
764.1841334096908
 30
0.0
 11
818.3031979540004
 21
764.1368695700753
 31
0.0
  0
LINE
  5
169
330
17
100
AcDbEntity
  8
0
100
AcDbLine
 10
818.3031979540004
 20
764.1368695700753
 30
0.0
 11
817.7830541266587
 21
764.0504938094191
 31
0.0
  0
LINE
  5
16A
330
17
100
AcDbEntity
  8
0
100
AcDbLine
 10
817.7830541266587
 20
764.0504938094191
 30
0.0
 11
817.2708195956309
 21
763.9254891760127
 31
0.0
  0
LINE
  5
16B
330
17
100
AcDbEntity
  8
0
100
AcDbLine
 10
817.2708195956309
 20
763.9254891760127
 30
0.0
 11
816.7693589841957
 21
763.7625547464725
 31
0.0
  0
LINE
  5
16C
330
17
100
AcDbEntity
  8
0
100
AcDbLine
 10
816.7693589841957
 20
763.7625547464725
 30
0.0
 11
816.2814766635039
 21
763.5626017162205
 31
0.0
  0
LINE
  5
16D
330
17
100
AcDbEntity
  8
0
100
AcDbLine
 10
816.2814766635039
 20
763.5626017162205
 30
0.0
 11
815.809901069396
 21
763.3267483037113
 31
0.0
  0
LINE
  5
16E
330
17
100
AcDbEntity
  8
0
100
AcDbLine
 10
815.809901069396
 20
763.3267483037113
 30
0.0
 11
815.3572694438827
 21
763.0563134968984
 31
0.0
  0
LINE
  5
16F
330
17
100
AcDbEntity
  8
0
100
AcDbLine
 10
815.3572694438827
 20
763.0563134968984
 30
0.0
 11
814.926113086619
 21
762.7528096769198
 31
0.0
  0
LINE
  5
170
330
17
100
AcDbEntity
  8
0
100
AcDbLine
 10
814.926113086619
 20
762.7528096769198
 30
0.0
 11
814.518843198848
 21
762.4179341602495
 31
0.0
  0
LINE
  5
171
330
17
100
AcDbEntity
  8
0
100
AcDbLine
 10
814.518843198848
 20
762.4179341602495
 30
0.0
 11
814.1377373989856
 21
762.0535597066145
 31
0.0
  0
LINE
  5
172
330
17
100
AcDbEntity
  8
0
100
AcDbLine
 10
814.1377373989856
 20
762.0535597066145
 30
0.0
 11
813.7849269852555
 21
761.6617240457638
 31
0.0
  0
LINE
  5
173
330
17
100
AcDbEntity
  8
0
100
AcDbLine
 10
813.7849269852555
 20
761.6617240457638
 30
0.0
 11
813.4623850166048
 21
761.2446184816567
 31
0.0
  0
LINE
  5
174
330
17
100
AcDbEntity
  8
0
100
AcDbLine
 10
813.4623850166048
 20
761.2446184816567
 30
0.0
 11
813.1719152785572
 21
760.8045756377999
 31
0.0
  0
LINE
  5
175
330
17
100
AcDbEntity
  8
0
100
AcDbLine
 10
813.1719152785572
 20
760.8045756377999
 30
0.0
 11
812.9151421957131
 21
760.3440564122759
 31
0.0
  0
LINE
  5
176
330
17
100
AcDbEntity
  8
0
100
AcDbLine
 10
812.9151421957131
 20
760.3440564122759
 30
0.0
 11
812.693501747309
 21
759.865636215397
 31
0.0
  0
LINE
  5
177
330
17
100
AcDbEntity
  8
0
100
AcDbLine
 10
812.693501747309
 20
759.865636215397
 30
0.0
 11
812.5082334366381
 21
759.3719905669689
 31
0.0
  0
LINE
  5
178
330
17
100
AcDbEntity
  8
0
100
AcDbLine
 10
812.5082334366381
 20
759.3719905669689
 30
0.0
 11
812.3603733592448
 21
758.8658801336999
 31
0.0
  0
LINE
  5
179
330
17
100
AcDbEntity
  8
0
100
AcDbLine
 10
812.3603733592448
 20
758.8658801336999
 30
0.0
 11
812.2507484086606
 21
758.3501352904298
 31
0.0
  0
LINE
  5
17A
330
17
100
AcDbEntity
  8
0
100
AcDbLine
 10
812.2507484086606
 20
758.3501352904298
 30
0.0
 11
812.1799716520761
 21
757.8276402915274
 31
0.0
  0
LINE
  5
17B
330
17
100
AcDbEntity
  8
0
100
AcDbLine
 10
812.1799716520761
 20
757.8276402915274
 30
0.0
 11
812.1484389018242
 21
757.3013171409702
 31
0.0
  0
LINE
  5
17C
330
17
100
AcDbEntity
  8
0
100
AcDbLine
 10
812.1484389018242
 20
757.3013171409702
 30
0.0
 11
812.1563265018353
 21
756.7741092513136
 31
0.0
  0
LINE
  5
17D
330
17
100
AcDbEntity
  8
0
100
AcDbLine
 10
812.1563265018353
 20
756.7741092513136
 30
0.0
 11
812.2035903414508
 21
756.2489649829306
 31
0.0
  0
LINE
  5
17E
330
17
100
AcDbEntity
  8
0
100
AcDbLine
 10
812.2035903414508
 20
756.2489649829306
 30
0.0
 11
812.2899661021073
 21
755.7288211555892
 31
0.0
  0
LINE
  5
17F
330
17
100
AcDbEntity
  8
0
100
AcDbLine
 10
812.2899661021073
 20
755.7288211555892
 30
0.0
 11
812.4149707355141
 21
755.2165866245607
 31
0.0
  0
LINE
  5
180
330
17
100
AcDbEntity
  8
0
100
AcDbLine
 10
812.4149707355141
 20
755.2165866245607
 30
0.0
 11
812.5779051650541
 21
754.715126013126
 31
0.0
  0
LINE
  5
181
330
17
100
AcDbEntity
  8
0
100
AcDbLine
 10
812.5779051650541
 20
754.715126013126
 30
0.0
 11
812.7778581953057
 21
754.2272436924343
 31
0.0
  0
LINE
  5
182
330
17
100
AcDbEntity
  8
0
100
AcDbLine
 10
812.7778581953057
 20
754.2272436924343
 30
0.0
 11
813.0137116078149
 21
753.7556680983264
 31
0.0
  0
LINE
  5
183
330
17
100
AcDbEntity
  8
0
100
AcDbLine
 10
813.0137116078149
 20
753.7556680983264
 30
0.0
 11
813.284146414628
 21
753.303036472813
 31
0.0
  0
LINE
  5
184
330
17
100
AcDbEntity
  8
0
100
AcDbLine
 10
813.284146414628
 20
753.303036472813
 30
0.0
 11
813.5876502346069
 21
752.8718801155492
 31
0.0
  0
LINE
  5
185
330
17
100
AcDbEntity
  8
0
100
AcDbLine
 10
813.5876502346069
 20
752.8718801155492
 30
0.0
 11
813.9225257512774
 21
752.4646102277782
 31
0.0
  0
LINE
  5
186
330
17
100
AcDbEntity
  8
0
100
AcDbLine
 10
813.9225257512774
 20
752.4646102277782
 30
0.0
 11
814.2869002049122
 21
752.0835044279163
 31
0.0
  0
LINE
  5
187
330
17
100
AcDbEntity
  8
0
100
AcDbLine
 10
814.2869002049122
 20
752.0835044279163
 30
0.0
 11
814.6787358657629
 21
751.7306940141858
 31
0.0
  0
LINE
  5
188
330
17
100
AcDbEntity
  8
0
100
AcDbLine
 10
814.6787358657629
 20
751.7306940141858
 30
0.0
 11
815.0958414298703
 21
751.4081520455347
 31
0.0
  0
LINE
  5
189
330
17
100
AcDbEntity
  8
0
100
AcDbLine
 10
815.0958414298703
 20
751.4081520455347
 30
0.0
 11
815.5358842737263
 21
751.1176823074873
 31
0.0
  0
LINE
  5
18A
330
17
100
AcDbEntity
  8
0
100
AcDbLine
 10
815.5358842737263
 20
751.1176823074873
 30
0.0
 11
815.9964034992505
 21
750.8609092246436
 31
0.0
  0
LINE
  5
18B
330
17
100
AcDbEntity
  8
0
100
AcDbLine
 10
815.9964034992505
 20
750.8609092246436
 30
0.0
 11
816.4748236961298
 21
750.6392687762396
 31
0.0
  0
LINE
  5
18C
330
17
100
AcDbEntity
  8
0
100
AcDbLine
 10
816.4748236961298
 20
750.6392687762396
 30
0.0
 11
816.9684693445574
 21
750.454000465568
 31
0.0
  0
LINE
  5
18D
330
17
100
AcDbEntity
  8
0
100
AcDbLine
 10
816.9684693445574
 20
750.454000465568
 30
0.0
 11
817.4745797778264
 21
750.3061403881748
 31
0.0
  0
LINE
  5
18E
330
17
100
AcDbEntity
  8
0
100
AcDbLine
 10
817.4745797778264
 20
750.3061403881748
 30
0.0
 11
817.9903246210968
 21
750.1965154375907
 31
0.0
  0
LINE
  5
18F
330
17
100
AcDbEntity
  8
0
100
AcDbLine
 10
817.9903246210968
 20
750.1965154375907
 30
0.0
 11
818.512819619999
 21
750.1257386810064
 31
0.0
  0
LINE
  5
190
330
17
100
AcDbEntity
  8
0
100
AcDbLine
 10
818.512819619999
 20
750.1257386810064
 30
0.0
 11
819.039142770556
 21
750.0942059307545
 31
0.0
  0
LINE
  5
191
330
17
100
AcDbEntity
  8
0
100
AcDbLine
 10
819.039142770556
 20
750.0942059307545
 30
0.0
 11
819.5663506602131
 21
750.1020935307654
 31
0.0
  0
LINE
  5
192
330
17
100
AcDbEntity
  8
0
100
AcDbLine
 10
819.5663506602131
 20
750.1020935307654
 30
0.0
 11
820.0914949285957
 21
750.149357370381
 31
0.0
  0
LINE
  5
193
330
17
100
AcDbEntity
  8
0
100
AcDbLine
 10
820.0914949285957
 20
750.149357370381
 30
0.0
 11
820.6116387559375
 21
750.2357331310377
 31
0.0
  0
LINE
  5
194
330
17
100
AcDbEntity
  8
0
100
AcDbLine
 10
820.6116387559375
 20
750.2357331310377
 30
0.0
 11
821.1238732869654
 21
750.3607377644441
 31
0.0
  0
LINE
  5
195
330
17
100
AcDbEntity
  8
0
100
AcDbLine
 10
821.1238732869654
 20
750.3607377644441
 30
0.0
 11
821.6253338984005
 21
750.523672193984
 31
0.0
  0
LINE
  5
196
330
17
100
AcDbEntity
  8
0
100
AcDbLine
 10
821.6253338984005
 20
750.523672193984
 30
0.0
 11
822.1132162190926
 21
750.7236252242358
 31
0.0
  0
LINE
  5
197
330
17
100
AcDbEntity
  8
0
100
AcDbLine
 10
822.1132162190926
 20
750.7236252242358
 30
0.0
 11
822.5847918132005
 21
750.9594786367455
 31
0.0
  0
LINE
  5
198
330
17
100
AcDbEntity
  8
0
100
AcDbLine
 10
822.5847918132005
 20
750.9594786367455
 30
0.0
 11
823.0374234387132
 21
751.2299134435584
 31
0.0
  0
LINE
  5
199
330
17
100
AcDbEntity
  8
0
100
AcDbLine
 10
823.0374234387132
 20
751.2299134435584
 30
0.0
 11
823.4685797959769
 21
751.5334172635369
 31
0.0
  0
LINE
  5
19A
330
17
100
AcDbEntity
  8
0
100
AcDbLine
 10
823.4685797959769
 20
751.5334172635369
 30
0.0
 11
823.8758496837484
 21
751.8682927802074
 31
0.0
  0
LINE
  5
19B
330
17
100
AcDbEntity
  8
0
100
AcDbLine
 10
823.8758496837484
 20
751.8682927802074
 30
0.0
 11
824.2569554836107
 21
752.2326672338424
 31
0.0
  0
LINE
  5
19C
330
17
100
AcDbEntity
  8
0
100
AcDbLine
 10
824.2569554836107
 20
752.2326672338424
 30
0.0
 11
824.6097658973407
 21
752.6245028946935
 31
0.0
  0
LINE
  5
19D
330
17
100
AcDbEntity
  8
0
100
AcDbLine
 10
824.6097658973407
 20
752.6245028946935
 30
0.0
 11
824.9323078659916
 21
753.0416084588005
 31
0.0
  0
LINE
  5
19E
330
17
100
AcDbEntity
  8
0
100
AcDbLine
 10
824.9323078659916
 20
753.0416084588005
 30
0.0
 11
825.2227776040392
 21
753.4816513026565
 31
0.0
  0
LINE
  5
19F
330
17
100
AcDbEntity
  8
0
100
AcDbLine
 10
825.2227776040392
 20
753.4816513026565
 30
0.0
 11
825.479550686883
 21
753.9421705281808
 31
0.0
  0
LINE
  5
1A0
330
17
100
AcDbEntity
  8
0
100
AcDbLine
 10
825.479550686883
 20
753.9421705281808
 30
0.0
 11
825.7011911352872
 21
754.4205907250603
 31
0.0
  0
LINE
  5
1A1
330
17
100
AcDbEntity
  8
0
100
AcDbLine
 10
825.7011911352872
 20
754.4205907250603
 30
0.0
 11
825.8864594459582
 21
754.9142363734879
 31
0.0
  0
LINE
  5
1A2
330
17
100
AcDbEntity
  8
0
100
AcDbLine
 10
825.8864594459582
 20
754.9142363734879
 30
0.0
 11
826.0343195233513
 21
755.4203468067568
 31
0.0
  0
LINE
  5
1A3
330
17
100
AcDbEntity
  8
0
100
AcDbLine
 10
826.0343195233513
 20
755.4203468067568
 30
0.0
 11
826.1439444739359
 21
755.9360916500266
 31
0.0
  0
LINE
  5
1A4
330
17
100
AcDbEntity
  8
0
100
AcDbLine
 10
826.1439444739359
 20
755.9360916500266
 30
0.0
 11
826.2147212305202
 21
756.4585866489294
 31
0.0
  0
LINE
  5
1A5
330
17
100
AcDbEntity
  8
0
100
AcDbLine
 10
826.2147212305202
 20
756.4585866489294
 30
0.0
 11
826.246253980772
 21
756.9849097994861
 31
0.0
  0
LINE
  5
1A6
330
17
100
AcDbEntity
  8
0
100
AcDbLine
 10
826.246253980772
 20
756.9849097994861
 30
0.0
 11
826.2383663807607
 21
757.5121176891432
 31
0.0
  0
LINE
  5
1A7
330
17
100
AcDbEntity
  8
0
100
AcDbLine
 10
640.2074441665471
 20
1102.5796231693103
 30
0.0
 11
640.1601803269317
 21
1103.1047674376923
 31
0.0
  0
LINE
  5
1A8
330
17
100
AcDbEntity
  8
0
100
AcDbLine
 10
640.1601803269317
 20
1103.1047674376923
 30
0.0
 11
640.0738045662752
 21
1103.6249112650346
 31
0.0
  0
LINE
  5
1A9
330
17
100
AcDbEntity
  8
0
100
AcDbLine
 10
640.0738045662752
 20
1103.6249112650346
 30
0.0
 11
639.9487999328685
 21
1104.1371457960622
 31
0.0
  0
LINE
  5
1AA
330
17
100
AcDbEntity
  8
0
100
AcDbLine
 10
639.9487999328685
 20
1104.1371457960622
 30
0.0
 11
639.7858655033281
 21
1104.6386064074973
 31
0.0
  0
LINE
  5
1AB
330
17
100
AcDbEntity
  8
0
100
AcDbLine
 10
639.7858655033281
 20
1104.6386064074973
 30
0.0
 11
639.5859124730765
 21
1105.126488728189
 31
0.0
  0
LINE
  5
1AC
330
17
100
AcDbEntity
  8
0
100
AcDbLine
 10
639.5859124730765
 20
1105.126488728189
 30
0.0
 11
639.3500590605673
 21
1105.598064322298
 31
0.0
  0
LINE
  5
1AD
330
17
100
AcDbEntity
  8
0
100
AcDbLine
 10
639.3500590605673
 20
1105.598064322298
 30
0.0
 11
639.0796242537541
 21
1106.0506959478107
 31
0.0
  0
LINE
  5
1AE
330
17
100
AcDbEntity
  8
0
100
AcDbLine
 10
639.0796242537541
 20
1106.0506959478107
 30
0.0
 11
638.7761204337756
 21
1106.4818523050737
 31
0.0
  0
LINE
  5
1AF
330
17
100
AcDbEntity
  8
0
100
AcDbLine
 10
638.7761204337756
 20
1106.4818523050737
 30
0.0
 11
638.4412449171052
 21
1106.8891221928452
 31
0.0
  0
LINE
  5
1B0
330
17
100
AcDbEntity
  8
0
100
AcDbLine
 10
638.4412449171052
 20
1106.8891221928452
 30
0.0
 11
638.0768704634701
 21
1107.2702279927075
 31
0.0
  0
LINE
  5
1B1
330
17
100
AcDbEntity
  8
0
100
AcDbLine
 10
638.0768704634701
 20
1107.2702279927075
 30
0.0
 11
637.6850348026196
 21
1107.6230384064381
 31
0.0
  0
LINE
  5
1B2
330
17
100
AcDbEntity
  8
0
100
AcDbLine
 10
637.6850348026196
 20
1107.6230384064381
 30
0.0
 11
637.2679292385121
 21
1107.9455803750882
 31
0.0
  0
LINE
  5
1B3
330
17
100
AcDbEntity
  8
0
100
AcDbLine
 10
637.2679292385121
 20
1107.9455803750882
 30
0.0
 11
636.8278863946559
 21
1108.2360501131366
 31
0.0
  0
LINE
  5
1B4
330
17
100
AcDbEntity
  8
0
100
AcDbLine
 10
636.8278863946559
 20
1108.2360501131366
 30
0.0
 11
636.3673671691316
 21
1108.4928231959798
 31
0.0
  0
LINE
  5
1B5
330
17
100
AcDbEntity
  8
0
100
AcDbLine
 10
636.3673671691316
 20
1108.4928231959798
 30
0.0
 11
635.8889469722527
 21
1108.714463644384
 31
0.0
  0
LINE
  5
1B6
330
17
100
AcDbEntity
  8
0
100
AcDbLine
 10
635.8889469722527
 20
1108.714463644384
 30
0.0
 11
635.3953013238248
 21
1108.8997319550547
 31
0.0
  0
LINE
  5
1B7
330
17
100
AcDbEntity
  8
0
100
AcDbLine
 10
635.3953013238248
 20
1108.8997319550547
 30
0.0
 11
634.8891908905558
 21
1109.0475920324486
 31
0.0
  0
LINE
  5
1B8
330
17
100
AcDbEntity
  8
0
100
AcDbLine
 10
634.8891908905558
 20
1109.0475920324486
 30
0.0
 11
634.3734460472856
 21
1109.157216983033
 31
0.0
  0
LINE
  5
1B9
330
17
100
AcDbEntity
  8
0
100
AcDbLine
 10
634.3734460472856
 20
1109.157216983033
 30
0.0
 11
633.8509510483832
 21
1109.2279937396174
 31
0.0
  0
LINE
  5
1BA
330
17
100
AcDbEntity
  8
0
100
AcDbLine
 10
633.8509510483832
 20
1109.2279937396174
 30
0.0
 11
633.3246278978264
 21
1109.259526489869
 31
0.0
  0
LINE
  5
1BB
330
17
100
AcDbEntity
  8
0
100
AcDbLine
 10
633.3246278978264
 20
1109.259526489869
 30
0.0
 11
632.7974200081694
 21
1109.2516388898573
 31
0.0
  0
LINE
  5
1BC
330
17
100
AcDbEntity
  8
0
100
AcDbLine
 10
632.7974200081694
 20
1109.2516388898573
 30
0.0
 11
632.2722757397867
 21
1109.2043750502423
 31
0.0
  0
LINE
  5
1BD
330
17
100
AcDbEntity
  8
0
100
AcDbLine
 10
632.2722757397867
 20
1109.2043750502423
 30
0.0
 11
631.7521319124448
 21
1109.1179992895861
 31
0.0
  0
LINE
  5
1BE
330
17
100
AcDbEntity
  8
0
100
AcDbLine
 10
631.7521319124448
 20
1109.1179992895861
 30
0.0
 11
631.2398973814171
 21
1108.9929946561797
 31
0.0
  0
LINE
  5
1BF
330
17
100
AcDbEntity
  8
0
100
AcDbLine
 10
631.2398973814171
 20
1108.9929946561797
 30
0.0
 11
630.7384367699818
 21
1108.8300602266395
 31
0.0
  0
LINE
  5
1C0
330
17
100
AcDbEntity
  8
0
100
AcDbLine
 10
630.7384367699818
 20
1108.8300602266395
 30
0.0
 11
630.25055444929
 21
1108.630107196387
 31
0.0
  0
LINE
  5
1C1
330
17
100
AcDbEntity
  8
0
100
AcDbLine
 10
630.25055444929
 20
1108.630107196387
 30
0.0
 11
629.778978855182
 21
1108.3942537838782
 31
0.0
  0
LINE
  5
1C2
330
17
100
AcDbEntity
  8
0
100
AcDbLine
 10
629.778978855182
 20
1108.3942537838782
 30
0.0
 11
629.3263472296691
 21
1108.123818977065
 31
0.0
  0
LINE
  5
1C3
330
17
100
AcDbEntity
  8
0
100
AcDbLine
 10
629.3263472296691
 20
1108.123818977065
 30
0.0
 11
628.8951908724055
 21
1107.820315157087
 31
0.0
  0
LINE
  5
1C4
330
17
100
AcDbEntity
  8
0
100
AcDbLine
 10
628.8951908724055
 20
1107.820315157087
 30
0.0
 11
628.487920984634
 21
1107.4854396404155
 31
0.0
  0
LINE
  5
1C5
330
17
100
AcDbEntity
  8
0
100
AcDbLine
 10
628.487920984634
 20
1107.4854396404155
 30
0.0
 11
628.1068151847717
 21
1107.1210651867814
 31
0.0
  0
LINE
  5
1C6
330
17
100
AcDbEntity
  8
0
100
AcDbLine
 10
628.1068151847717
 20
1107.1210651867814
 30
0.0
 11
627.7540047710415
 21
1106.7292295259304
 31
0.0
  0
LINE
  5
1C7
330
17
100
AcDbEntity
  8
0
100
AcDbLine
 10
627.7540047710415
 20
1106.7292295259304
 30
0.0
 11
627.4314628023908
 21
1106.3121239618229
 31
0.0
  0
LINE
  5
1C8
330
17
100
AcDbEntity
  8
0
100
AcDbLine
 10
627.4314628023908
 20
1106.3121239618229
 30
0.0
 11
627.1409930643433
 21
1105.8720811179664
 31
0.0
  0
LINE
  5
1C9
330
17
100
AcDbEntity
  8
0
100
AcDbLine
 10
627.1409930643433
 20
1105.8720811179664
 30
0.0
 11
626.8842199814993
 21
1105.411561892443
 31
0.0
  0
LINE
  5
1CA
330
17
100
AcDbEntity
  8
0
100
AcDbLine
 10
626.8842199814993
 20
1105.411561892443
 30
0.0
 11
626.6625795330953
 21
1104.933141695564
 31
0.0
  0
LINE
  5
1CB
330
17
100
AcDbEntity
  8
0
100
AcDbLine
 10
626.6625795330953
 20
1104.933141695564
 30
0.0
 11
626.4773112224242
 21
1104.4394960471354
 31
0.0
  0
LINE
  5
1CC
330
17
100
AcDbEntity
  8
0
100
AcDbLine
 10
626.4773112224242
 20
1104.4394960471354
 30
0.0
 11
626.329451145031
 21
1103.9333856138664
 31
0.0
  0
LINE
  5
1CD
330
17
100
AcDbEntity
  8
0
100
AcDbLine
 10
626.329451145031
 20
1103.9333856138664
 30
0.0
 11
626.2198261944463
 21
1103.4176407705963
 31
0.0
  0
LINE
  5
1CE
330
17
100
AcDbEntity
  8
0
100
AcDbLine
 10
626.2198261944463
 20
1103.4176407705963
 30
0.0
 11
626.1490494378621
 21
1102.8951457716944
 31
0.0
  0
LINE
  5
1CF
330
17
100
AcDbEntity
  8
0
100
AcDbLine
 10
626.1490494378621
 20
1102.8951457716944
 30
0.0
 11
626.1175166876104
 21
1102.3688226211368
 31
0.0
  0
LINE
  5
1D0
330
17
100
AcDbEntity
  8
0
100
AcDbLine
 10
626.1175166876104
 20
1102.3688226211368
 30
0.0
 11
626.1254042876216
 21
1101.8416147314806
 31
0.0
  0
LINE
  5
1D1
330
17
100
AcDbEntity
  8
0
100
AcDbLine
 10
626.1254042876216
 20
1101.8416147314806
 30
0.0
 11
626.172668127237
 21
1101.3164704630972
 31
0.0
  0
LINE
  5
1D2
330
17
100
AcDbEntity
  8
0
100
AcDbLine
 10
626.172668127237
 20
1101.3164704630972
 30
0.0
 11
626.2590438878933
 21
1100.7963266357563
 31
0.0
  0
LINE
  5
1D3
330
17
100
AcDbEntity
  8
0
100
AcDbLine
 10
626.2590438878933
 20
1100.7963266357563
 30
0.0
 11
626.3840485212999
 21
1100.2840921047277
 31
0.0
  0
LINE
  5
1D4
330
17
100
AcDbEntity
  8
0
100
AcDbLine
 10
626.3840485212999
 20
1100.2840921047277
 30
0.0
 11
626.5469829508402
 21
1099.7826314932927
 31
0.0
  0
LINE
  5
1D5
330
17
100
AcDbEntity
  8
0
100
AcDbLine
 10
626.5469829508402
 20
1099.7826314932927
 30
0.0
 11
626.746935981092
 21
1099.2947491726009
 31
0.0
  0
LINE
  5
1D6
330
17
100
AcDbEntity
  8
0
100
AcDbLine
 10
626.746935981092
 20
1099.2947491726009
 30
0.0
 11
626.9827893936011
 21
1098.823173578493
 31
0.0
  0
LINE
  5
1D7
330
17
100
AcDbEntity
  8
0
100
AcDbLine
 10
626.9827893936011
 20
1098.823173578493
 30
0.0
 11
627.2532242004143
 21
1098.3705419529801
 31
0.0
  0
LINE
  5
1D8
330
17
100
AcDbEntity
  8
0
100
AcDbLine
 10
627.2532242004143
 20
1098.3705419529801
 30
0.0
 11
627.5567280203929
 21
1097.9393855957167
 31
0.0
  0
LINE
  5
1D9
330
17
100
AcDbEntity
  8
0
100
AcDbLine
 10
627.5567280203929
 20
1097.9393855957167
 30
0.0
 11
627.8916035370632
 21
1097.5321157079452
 31
0.0
  0
LINE
  5
1DA
330
17
100
AcDbEntity
  8
0
100
AcDbLine
 10
627.8916035370632
 20
1097.5321157079452
 30
0.0
 11
628.2559779906982
 21
1097.1510099080829
 31
0.0
  0
LINE
  5
1DB
330
17
100
AcDbEntity
  8
0
100
AcDbLine
 10
628.2559779906982
 20
1097.1510099080829
 30
0.0
 11
628.647813651549
 21
1096.7981994943527
 31
0.0
  0
LINE
  5
1DC
330
17
100
AcDbEntity
  8
0
100
AcDbLine
 10
628.647813651549
 20
1096.7981994943527
 30
0.0
 11
629.0649192156562
 21
1096.4756575257022
 31
0.0
  0
LINE
  5
1DD
330
17
100
AcDbEntity
  8
0
100
AcDbLine
 10
629.0649192156562
 20
1096.4756575257022
 30
0.0
 11
629.5049620595128
 21
1096.1851877876543
 31
0.0
  0
LINE
  5
1DE
330
17
100
AcDbEntity
  8
0
100
AcDbLine
 10
629.5049620595128
 20
1096.1851877876543
 30
0.0
 11
629.9654812850368
 21
1095.9284147048102
 31
0.0
  0
LINE
  5
1DF
330
17
100
AcDbEntity
  8
0
100
AcDbLine
 10
629.9654812850368
 20
1095.9284147048102
 30
0.0
 11
630.4439014819159
 21
1095.706774256406
 31
0.0
  0
LINE
  5
1E0
330
17
100
AcDbEntity
  8
0
100
AcDbLine
 10
630.4439014819159
 20
1095.706774256406
 30
0.0
 11
630.9375471303437
 21
1095.5215059457346
 31
0.0
  0
LINE
  5
1E1
330
17
100
AcDbEntity
  8
0
100
AcDbLine
 10
630.9375471303437
 20
1095.5215059457346
 30
0.0
 11
631.4436575636126
 21
1095.3736458683418
 31
0.0
  0
LINE
  5
1E2
330
17
100
AcDbEntity
  8
0
100
AcDbLine
 10
631.4436575636126
 20
1095.3736458683418
 30
0.0
 11
631.959402406883
 21
1095.2640209177578
 31
0.0
  0
LINE
  5
1E3
330
17
100
AcDbEntity
  8
0
100
AcDbLine
 10
631.959402406883
 20
1095.2640209177578
 30
0.0
 11
632.4818974057852
 21
1095.1932441611734
 31
0.0
  0
LINE
  5
1E4
330
17
100
AcDbEntity
  8
0
100
AcDbLine
 10
632.4818974057852
 20
1095.1932441611734
 30
0.0
 11
633.0082205563422
 21
1095.1617114109206
 31
0.0
  0
LINE
  5
1E5
330
17
100
AcDbEntity
  8
0
100
AcDbLine
 10
633.0082205563422
 20
1095.1617114109206
 30
0.0
 11
633.5354284459991
 21
1095.1695990109315
 31
0.0
  0
LINE
  5
1E6
330
17
100
AcDbEntity
  8
0
100
AcDbLine
 10
633.5354284459991
 20
1095.1695990109315
 30
0.0
 11
634.0605727143819
 21
1095.2168628505472
 31
0.0
  0
LINE
  5
1E7
330
17
100
AcDbEntity
  8
0
100
AcDbLine
 10
634.0605727143819
 20
1095.2168628505472
 30
0.0
 11
634.5807165417234
 21
1095.3032386112047
 31
0.0
  0
LINE
  5
1E8
330
17
100
AcDbEntity
  8
0
100
AcDbLine
 10
634.5807165417234
 20
1095.3032386112047
 30
0.0
 11
635.0929510727515
 21
1095.4282432446112
 31
0.0
  0
LINE
  5
1E9
330
17
100
AcDbEntity
  8
0
100
AcDbLine
 10
635.0929510727515
 20
1095.4282432446112
 30
0.0
 11
635.5944116841866
 21
1095.591177674151
 31
0.0
  0
LINE
  5
1EA
330
17
100
AcDbEntity
  8
0
100
AcDbLine
 10
635.5944116841866
 20
1095.591177674151
 30
0.0
 11
636.0822940048785
 21
1095.7911307044023
 31
0.0
  0
LINE
  5
1EB
330
17
100
AcDbEntity
  8
0
100
AcDbLine
 10
636.0822940048785
 20
1095.7911307044023
 30
0.0
 11
636.5538695989866
 21
1096.026984116912
 31
0.0
  0
LINE
  5
1EC
330
17
100
AcDbEntity
  8
0
100
AcDbLine
 10
636.5538695989866
 20
1096.026984116912
 30
0.0
 11
637.0065012244994
 21
1096.297418923725
 31
0.0
  0
LINE
  5
1ED
330
17
100
AcDbEntity
  8
0
100
AcDbLine
 10
637.0065012244994
 20
1096.297418923725
 30
0.0
 11
637.4376575817632
 21
1096.6009227437041
 31
0.0
  0
LINE
  5
1EE
330
17
100
AcDbEntity
  8
0
100
AcDbLine
 10
637.4376575817632
 20
1096.6009227437041
 30
0.0
 11
637.8449274695344
 21
1096.935798260375
 31
0.0
  0
LINE
  5
1EF
330
17
100
AcDbEntity
  8
0
100
AcDbLine
 10
637.8449274695344
 20
1096.935798260375
 30
0.0
 11
638.2260332693969
 21
1097.3001727140095
 31
0.0
  0
LINE
  5
1F0
330
17
100
AcDbEntity
  8
0
100
AcDbLine
 10
638.2260332693969
 20
1097.3001727140095
 30
0.0
 11
638.5788436831267
 21
1097.69200837486
 31
0.0
  0
LINE
  5
1F1
330
17
100
AcDbEntity
  8
0
100
AcDbLine
 10
638.5788436831267
 20
1097.69200837486
 30
0.0
 11
638.9013856517777
 21
1098.1091139389675
 31
0.0
  0
LINE
  5
1F2
330
17
100
AcDbEntity
  8
0
100
AcDbLine
 10
638.9013856517777
 20
1098.1091139389675
 30
0.0
 11
639.1918553898253
 21
1098.549156782824
 31
0.0
  0
LINE
  5
1F3
330
17
100
AcDbEntity
  8
0
100
AcDbLine
 10
639.1918553898253
 20
1098.549156782824
 30
0.0
 11
639.448628472669
 21
1099.009676008348
 31
0.0
  0
LINE
  5
1F4
330
17
100
AcDbEntity
  8
0
100
AcDbLine
 10
639.448628472669
 20
1099.009676008348
 30
0.0
 11
639.6702689210732
 21
1099.4880962052268
 31
0.0
  0
LINE
  5
1F5
330
17
100
AcDbEntity
  8
0
100
AcDbLine
 10
639.6702689210732
 20
1099.4880962052268
 30
0.0
 11
639.8555372317443
 21
1099.9817418536545
 31
0.0
  0
LINE
  5
1F6
330
17
100
AcDbEntity
  8
0
100
AcDbLine
 10
639.8555372317443
 20
1099.9817418536545
 30
0.0
 11
640.0033973091372
 21
1100.4878522869235
 31
0.0
  0
LINE
  5
1F7
330
17
100
AcDbEntity
  8
0
100
AcDbLine
 10
640.0033973091372
 20
1100.4878522869235
 30
0.0
 11
640.113022259722
 21
1101.0035971301936
 31
0.0
  0
LINE
  5
1F8
330
17
100
AcDbEntity
  8
0
100
AcDbLine
 10
640.113022259722
 20
1101.0035971301936
 30
0.0
 11
640.1837990163064
 21
1101.5260921290965
 31
0.0
  0
LINE
  5
1F9
330
17
100
AcDbEntity
  8
0
100
AcDbLine
 10
640.1837990163064
 20
1101.5260921290965
 30
0.0
 11
640.2153317665583
 21
1102.0524152796527
 31
0.0
  0
LINE
  5
1FA
330
17
100
AcDbEntity
  8
0
100
AcDbLine
 10
640.2153317665583
 20
1102.0524152796527
 30
0.0
 11
640.2074441665471
 21
1102.5796231693103
 31
0.0
  0
LINE
  5
1FB
330
17
100
AcDbEntity
  8
0
100
AcDbLine
 10
362.2269470907568
 20
1667.5456718528385
 30
0.0
 11
362.1796832511415
 21
1668.0708161212215
 31
0.0
  0
LINE
  5
1FC
330
17
100
AcDbEntity
  8
0
100
AcDbLine
 10
362.1796832511415
 20
1668.0708161212215
 30
0.0
 11
362.09330749048513
 21
1668.5909599485628
 31
0.0
  0
LINE
  5
1FD
330
17
100
AcDbEntity
  8
0
100
AcDbLine
 10
362.09330749048513
 20
1668.5909599485628
 30
0.0
 11
361.96830285707836
 21
1669.1031944795914
 31
0.0
  0
LINE
  5
1FE
330
17
100
AcDbEntity
  8
0
100
AcDbLine
 10
361.96830285707836
 20
1669.1031944795914
 30
0.0
 11
361.805368427538
 21
1669.6046550910255
 31
0.0
  0
LINE
  5
1FF
330
17
100
AcDbEntity
  8
0
100
AcDbLine
 10
361.805368427538
 20
1669.6046550910255
 30
0.0
 11
361.6054153972866
 21
1670.0925374117178
 31
0.0
  0
LINE
  5
200
330
17
100
AcDbEntity
  8
0
100
AcDbLine
 10
361.6054153972866
 20
1670.0925374117178
 30
0.0
 11
361.3695619847774
 21
1670.5641130058252
 31
0.0
  0
LINE
  5
201
330
17
100
AcDbEntity
  8
0
100
AcDbLine
 10
361.3695619847774
 20
1670.5641130058252
 30
0.0
 11
361.09912717796414
 21
1671.016744631339
 31
0.0
  0
LINE
  5
202
330
17
100
AcDbEntity
  8
0
100
AcDbLine
 10
361.09912717796414
 20
1671.016744631339
 30
0.0
 11
360.7956233579854
 21
1671.4479009886015
 31
0.0
  0
LINE
  5
203
330
17
100
AcDbEntity
  8
0
100
AcDbLine
 10
360.7956233579854
 20
1671.4479009886015
 30
0.0
 11
360.460747841315
 21
1671.8551708763734
 31
0.0
  0
LINE
  5
204
330
17
100
AcDbEntity
  8
0
100
AcDbLine
 10
360.460747841315
 20
1671.8551708763734
 30
0.0
 11
360.09637338768005
 21
1672.2362766762362
 31
0.0
  0
LINE
  5
205
330
17
100
AcDbEntity
  8
0
100
AcDbLine
 10
360.09637338768005
 20
1672.2362766762362
 30
0.0
 11
359.70453772682947
 21
1672.5890870899664
 31
0.0
  0
LINE
  5
206
330
17
100
AcDbEntity
  8
0
100
AcDbLine
 10
359.70453772682947
 20
1672.5890870899664
 30
0.0
 11
359.2874321627218
 21
1672.911629058617
 31
0.0
  0
LINE
  5
207
330
17
100
AcDbEntity
  8
0
100
AcDbLine
 10
359.2874321627218
 20
1672.911629058617
 30
0.0
 11
358.8473893188657
 21
1673.202098796664
 31
0.0
  0
LINE
  5
208
330
17
100
AcDbEntity
  8
0
100
AcDbLine
 10
358.8473893188657
 20
1673.202098796664
 30
0.0
 11
358.3868700933417
 21
1673.4588718795071
 31
0.0
  0
LINE
  5
209
330
17
100
AcDbEntity
  8
0
100
AcDbLine
 10
358.3868700933417
 20
1673.4588718795071
 30
0.0
 11
357.90844989646246
 21
1673.6805123279123
 31
0.0
  0
LINE
  5
20A
330
17
100
AcDbEntity
  8
0
100
AcDbLine
 10
357.90844989646246
 20
1673.6805123279123
 30
0.0
 11
357.4148042480349
 21
1673.8657806385836
 31
0.0
  0
LINE
  5
20B
330
17
100
AcDbEntity
  8
0
100
AcDbLine
 10
357.4148042480349
 20
1673.8657806385836
 30
0.0
 11
356.9086938147658
 21
1674.0136407159757
 31
0.0
  0
LINE
  5
20C
330
17
100
AcDbEntity
  8
0
100
AcDbLine
 10
356.9086938147658
 20
1674.0136407159757
 30
0.0
 11
356.39294897149546
 21
1674.1232656665604
 31
0.0
  0
LINE
  5
20D
330
17
100
AcDbEntity
  8
0
100
AcDbLine
 10
356.39294897149546
 20
1674.1232656665604
 30
0.0
 11
355.8704539725932
 21
1674.1940424231452
 31
0.0
  0
LINE
  5
20E
330
17
100
AcDbEntity
  8
0
100
AcDbLine
 10
355.8704539725932
 20
1674.1940424231452
 30
0.0
 11
355.34413082203633
 21
1674.2255751733971
 31
0.0
  0
LINE
  5
20F
330
17
100
AcDbEntity
  8
0
100
AcDbLine
 10
355.34413082203633
 20
1674.2255751733971
 30
0.0
 11
354.8169229323793
 21
1674.2176875733858
 31
0.0
  0
LINE
  5
210
330
17
100
AcDbEntity
  8
0
100
AcDbLine
 10
354.8169229323793
 20
1674.2176875733858
 30
0.0
 11
354.29177866399647
 21
1674.1704237337706
 31
0.0
  0
LINE
  5
211
330
17
100
AcDbEntity
  8
0
100
AcDbLine
 10
354.29177866399647
 20
1674.1704237337706
 30
0.0
 11
353.77163483665487
 21
1674.084047973114
 31
0.0
  0
LINE
  5
212
330
17
100
AcDbEntity
  8
0
100
AcDbLine
 10
353.77163483665487
 20
1674.084047973114
 30
0.0
 11
353.25940030562697
 21
1673.959043339707
 31
0.0
  0
LINE
  5
213
330
17
100
AcDbEntity
  8
0
100
AcDbLine
 10
353.25940030562697
 20
1673.959043339707
 30
0.0
 11
352.7579396941918
 21
1673.7961089101668
 31
0.0
  0
LINE
  5
214
330
17
100
AcDbEntity
  8
0
100
AcDbLine
 10
352.7579396941918
 20
1673.7961089101668
 30
0.0
 11
352.27005737349987
 21
1673.5961558799158
 31
0.0
  0
LINE
  5
215
330
17
100
AcDbEntity
  8
0
100
AcDbLine
 10
352.27005737349987
 20
1673.5961558799158
 30
0.0
 11
351.798481779392
 21
1673.3603024674067
 31
0.0
  0
LINE
  5
216
330
17
100
AcDbEntity
  8
0
100
AcDbLine
 10
351.798481779392
 20
1673.3603024674067
 30
0.0
 11
351.3458501538788
 21
1673.0898676605923
 31
0.0
  0
LINE
  5
217
330
17
100
AcDbEntity
  8
0
100
AcDbLine
 10
351.3458501538788
 20
1673.0898676605923
 30
0.0
 11
350.9146937966153
 21
1672.7863638406143
 31
0.0
  0
LINE
  5
218
330
17
100
AcDbEntity
  8
0
100
AcDbLine
 10
350.9146937966153
 20
1672.7863638406143
 30
0.0
 11
350.50742390884403
 21
1672.451488323945
 31
0.0
  0
LINE
  5
219
330
17
100
AcDbEntity
  8
0
100
AcDbLine
 10
350.50742390884403
 20
1672.451488323945
 30
0.0
 11
350.1263181089814
 21
1672.0871138703096
 31
0.0
  0
LINE
  5
21A
330
17
100
AcDbEntity
  8
0
100
AcDbLine
 10
350.1263181089814
 20
1672.0871138703096
 30
0.0
 11
349.7735076952515
 21
1671.695278209459
 31
0.0
  0
LINE
  5
21B
330
17
100
AcDbEntity
  8
0
100
AcDbLine
 10
349.7735076952515
 20
1671.695278209459
 30
0.0
 11
349.4509657266008
 21
1671.278172645351
 31
0.0
  0
LINE
  5
21C
330
17
100
AcDbEntity
  8
0
100
AcDbLine
 10
349.4509657266008
 20
1671.278172645351
 30
0.0
 11
349.1604959885532
 21
1670.8381298014942
 31
0.0
  0
LINE
  5
21D
330
17
100
AcDbEntity
  8
0
100
AcDbLine
 10
349.1604959885532
 20
1670.8381298014942
 30
0.0
 11
348.90372290570923
 21
1670.3776105759712
 31
0.0
  0
LINE
  5
21E
330
17
100
AcDbEntity
  8
0
100
AcDbLine
 10
348.90372290570923
 20
1670.3776105759712
 30
0.0
 11
348.6820824573052
 21
1669.8991903790911
 31
0.0
  0
LINE
  5
21F
330
17
100
AcDbEntity
  8
0
100
AcDbLine
 10
348.6820824573052
 20
1669.8991903790911
 30
0.0
 11
348.49681414663405
 21
1669.4055447306641
 31
0.0
  0
LINE
  5
220
330
17
100
AcDbEntity
  8
0
100
AcDbLine
 10
348.49681414663405
 20
1669.4055447306641
 30
0.0
 11
348.3489540692412
 21
1668.8994342973947
 31
0.0
  0
LINE
  5
221
330
17
100
AcDbEntity
  8
0
100
AcDbLine
 10
348.3489540692412
 20
1668.8994342973947
 30
0.0
 11
348.2393291186564
 21
1668.3836894541255
 31
0.0
  0
LINE
  5
222
330
17
100
AcDbEntity
  8
0
100
AcDbLine
 10
348.2393291186564
 20
1668.3836894541255
 30
0.0
 11
348.168552362072
 21
1667.8611944552226
 31
0.0
  0
LINE
  5
223
330
17
100
AcDbEntity
  8
0
100
AcDbLine
 10
348.168552362072
 20
1667.8611944552226
 30
0.0
 11
348.1370196118202
 21
1667.3348713046657
 31
0.0
  0
LINE
  5
224
330
17
100
AcDbEntity
  8
0
100
AcDbLine
 10
348.1370196118202
 20
1667.3348713046657
 30
0.0
 11
348.14490721183137
 21
1666.8076634150088
 31
0.0
  0
LINE
  5
225
330
17
100
AcDbEntity
  8
0
100
AcDbLine
 10
348.14490721183137
 20
1666.8076634150088
 30
0.0
 11
348.19217105144685
 21
1666.2825191466259
 31
0.0
  0
LINE
  5
226
330
17
100
AcDbEntity
  8
0
100
AcDbLine
 10
348.19217105144685
 20
1666.2825191466259
 30
0.0
 11
348.27854681210323
 21
1665.7623753192845
 31
0.0
  0
LINE
  5
227
330
17
100
AcDbEntity
  8
0
100
AcDbLine
 10
348.27854681210323
 20
1665.7623753192845
 30
0.0
 11
348.40355144551
 21
1665.250140788256
 31
0.0
  0
LINE
  5
228
330
17
100
AcDbEntity
  8
0
100
AcDbLine
 10
348.40355144551
 20
1665.250140788256
 30
0.0
 11
348.5664858750504
 21
1664.7486801768218
 31
0.0
  0
LINE
  5
229
330
17
100
AcDbEntity
  8
0
100
AcDbLine
 10
348.5664858750504
 20
1664.7486801768218
 30
0.0
 11
348.76643890530175
 21
1664.2607978561296
 31
0.0
  0
LINE
  5
22A
330
17
100
AcDbEntity
  8
0
100
AcDbLine
 10
348.76643890530175
 20
1664.2607978561296
 30
0.0
 11
349.0022923178111
 21
1663.7892222620203
 31
0.0
  0
LINE
  5
22B
330
17
100
AcDbEntity
  8
0
100
AcDbLine
 10
349.0022923178111
 20
1663.7892222620203
 30
0.0
 11
349.2727271246241
 21
1663.336590636508
 31
0.0
  0
LINE
  5
22C
330
17
100
AcDbEntity
  8
0
100
AcDbLine
 10
349.2727271246241
 20
1663.336590636508
 30
0.0
 11
349.5762309446028
 21
1662.9054342792442
 31
0.0
  0
LINE
  5
22D
330
17
100
AcDbEntity
  8
0
100
AcDbLine
 10
349.5762309446028
 20
1662.9054342792442
 30
0.0
 11
349.91110646127333
 21
1662.4981643914734
 31
0.0
  0
LINE
  5
22E
330
17
100
AcDbEntity
  8
0
100
AcDbLine
 10
349.91110646127333
 20
1662.4981643914734
 30
0.0
 11
350.27548091490826
 21
1662.1170585916095
 31
0.0
  0
LINE
  5
22F
330
17
100
AcDbEntity
  8
0
100
AcDbLine
 10
350.27548091490826
 20
1662.1170585916095
 30
0.0
 11
350.6673165757587
 21
1661.764248177881
 31
0.0
  0
LINE
  5
230
330
17
100
AcDbEntity
  8
0
100
AcDbLine
 10
350.6673165757587
 20
1661.764248177881
 30
0.0
 11
351.0844221398664
 21
1661.4417062092302
 31
0.0
  0
LINE
  5
231
330
17
100
AcDbEntity
  8
0
100
AcDbLine
 10
351.0844221398664
 20
1661.4417062092302
 30
0.0
 11
351.5244649837226
 21
1661.151236471182
 31
0.0
  0
LINE
  5
232
330
17
100
AcDbEntity
  8
0
100
AcDbLine
 10
351.5244649837226
 20
1661.151236471182
 30
0.0
 11
351.9849842092466
 21
1660.8944633883384
 31
0.0
  0
LINE
  5
233
330
17
100
AcDbEntity
  8
0
100
AcDbLine
 10
351.9849842092466
 20
1660.8944633883384
 30
0.0
 11
352.46340440612585
 21
1660.6728229399337
 31
0.0
  0
LINE
  5
234
330
17
100
AcDbEntity
  8
0
100
AcDbLine
 10
352.46340440612585
 20
1660.6728229399337
 30
0.0
 11
352.95705005455346
 21
1660.4875546292633
 31
0.0
  0
LINE
  5
235
330
17
100
AcDbEntity
  8
0
100
AcDbLine
 10
352.95705005455346
 20
1660.4875546292633
 30
0.0
 11
353.46316048782256
 21
1660.33969455187
 31
0.0
  0
LINE
  5
236
330
17
100
AcDbEntity
  8
0
100
AcDbLine
 10
353.46316048782256
 20
1660.33969455187
 30
0.0
 11
353.97890533109285
 21
1660.2300696012853
 31
0.0
  0
LINE
  5
237
330
17
100
AcDbEntity
  8
0
100
AcDbLine
 10
353.97890533109285
 20
1660.2300696012853
 30
0.0
 11
354.50140032999514
 21
1660.1592928447008
 31
0.0
  0
LINE
  5
238
330
17
100
AcDbEntity
  8
0
100
AcDbLine
 10
354.50140032999514
 20
1660.1592928447008
 30
0.0
 11
355.027723480552
 21
1660.1277600944488
 31
0.0
  0
LINE
  5
239
330
17
100
AcDbEntity
  8
0
100
AcDbLine
 10
355.027723480552
 20
1660.1277600944488
 30
0.0
 11
355.55493137020903
 21
1660.1356476944602
 31
0.0
  0
LINE
  5
23A
330
17
100
AcDbEntity
  8
0
100
AcDbLine
 10
355.55493137020903
 20
1660.1356476944602
 30
0.0
 11
356.0800756385919
 21
1660.1829115340754
 31
0.0
  0
LINE
  5
23B
330
17
100
AcDbEntity
  8
0
100
AcDbLine
 10
356.0800756385919
 20
1660.1829115340754
 30
0.0
 11
356.6002194659335
 21
1660.269287294732
 31
0.0
  0
LINE
  5
23C
330
17
100
AcDbEntity
  8
0
100
AcDbLine
 10
356.6002194659335
 20
1660.269287294732
 30
0.0
 11
357.11245399696134
 21
1660.394291928139
 31
0.0
  0
LINE
  5
23D
330
17
100
AcDbEntity
  8
0
100
AcDbLine
 10
357.11245399696134
 20
1660.394291928139
 30
0.0
 11
357.61391460839656
 21
1660.5572263576792
 31
0.0
  0
LINE
  5
23E
330
17
100
AcDbEntity
  8
0
100
AcDbLine
 10
357.61391460839656
 20
1660.5572263576792
 30
0.0
 11
358.1017969290885
 21
1660.757179387931
 31
0.0
  0
LINE
  5
23F
330
17
100
AcDbEntity
  8
0
100
AcDbLine
 10
358.1017969290885
 20
1660.757179387931
 30
0.0
 11
358.5733725231963
 21
1660.9930328004393
 31
0.0
  0
LINE
  5
240
330
17
100
AcDbEntity
  8
0
100
AcDbLine
 10
358.5733725231963
 20
1660.9930328004393
 30
0.0
 11
359.0260041487095
 21
1661.263467607253
 31
0.0
  0
LINE
  5
241
330
17
100
AcDbEntity
  8
0
100
AcDbLine
 10
359.0260041487095
 20
1661.263467607253
 30
0.0
 11
359.457160505973
 21
1661.5669714272317
 31
0.0
  0
LINE
  5
242
330
17
100
AcDbEntity
  8
0
100
AcDbLine
 10
359.457160505973
 20
1661.5669714272317
 30
0.0
 11
359.86443039374416
 21
1661.9018469439025
 31
0.0
  0
LINE
  5
243
330
17
100
AcDbEntity
  8
0
100
AcDbLine
 10
359.86443039374416
 20
1661.9018469439025
 30
0.0
 11
360.24553619360677
 21
1662.2662213975377
 31
0.0
  0
LINE
  5
244
330
17
100
AcDbEntity
  8
0
100
AcDbLine
 10
360.24553619360677
 20
1662.2662213975377
 30
0.0
 11
360.5983466073369
 21
1662.658057058387
 31
0.0
  0
LINE
  5
245
330
17
100
AcDbEntity
  8
0
100
AcDbLine
 10
360.5983466073369
 20
1662.658057058387
 30
0.0
 11
360.92088857598753
 21
1663.0751626224958
 31
0.0
  0
LINE
  5
246
330
17
100
AcDbEntity
  8
0
100
AcDbLine
 10
360.92088857598753
 20
1663.0751626224958
 30
0.0
 11
361.211358314035
 21
1663.5152054663517
 31
0.0
  0
LINE
  5
247
330
17
100
AcDbEntity
  8
0
100
AcDbLine
 10
361.211358314035
 20
1663.5152054663517
 30
0.0
 11
361.468131396879
 21
1663.9757246918757
 31
0.0
  0
LINE
  5
248
330
17
100
AcDbEntity
  8
0
100
AcDbLine
 10
361.468131396879
 20
1663.9757246918757
 30
0.0
 11
361.6897718452833
 21
1664.4541448887542
 31
0.0
  0
LINE
  5
249
330
17
100
AcDbEntity
  8
0
100
AcDbLine
 10
361.6897718452833
 20
1664.4541448887542
 30
0.0
 11
361.8750401559543
 21
1664.9477905371832
 31
0.0
  0
LINE
  5
24A
330
17
100
AcDbEntity
  8
0
100
AcDbLine
 10
361.8750401559543
 20
1664.9477905371832
 30
0.0
 11
362.0229002333472
 21
1665.4539009704527
 31
0.0
  0
LINE
  5
24B
330
17
100
AcDbEntity
  8
0
100
AcDbLine
 10
362.0229002333472
 20
1665.4539009704527
 30
0.0
 11
362.13252518393193
 21
1665.9696458137219
 31
0.0
  0
LINE
  5
24C
330
17
100
AcDbEntity
  8
0
100
AcDbLine
 10
362.13252518393193
 20
1665.9696458137219
 30
0.0
 11
362.2033019405164
 21
1666.4921408126247
 31
0.0
  0
LINE
  5
24D
330
17
100
AcDbEntity
  8
0
100
AcDbLine
 10
362.2033019405164
 20
1666.4921408126247
 30
0.0
 11
362.23483469076814
 21
1667.0184639631814
 31
0.0
  0
LINE
  5
24E
330
17
100
AcDbEntity
  8
0
100
AcDbLine
 10
362.23483469076814
 20
1667.0184639631814
 30
0.0
 11
362.2269470907568
 21
1667.5456718528385
 31
0.0
  0
LINE
  5
24F
330
17
100
AcDbEntity
  8
0
100
AcDbLine
 10
96.45881253200481
 20
1322.4548459911257
 30
0.0
 11
96.41154869238937
 21
1322.9799902595087
 31
0.0
  0
LINE
  5
250
330
17
100
AcDbEntity
  8
0
100
AcDbLine
 10
96.41154869238937
 20
1322.9799902595087
 30
0.0
 11
96.32517293173296
 21
1323.5001340868503
 31
0.0
  0
LINE
  5
251
330
17
100
AcDbEntity
  8
0
100
AcDbLine
 10
96.32517293173296
 20
1323.5001340868503
 30
0.0
 11
96.20016829832616
 21
1324.0123686178772
 31
0.0
  0
LINE
  5
252
330
17
100
AcDbEntity
  8
0
100
AcDbLine
 10
96.20016829832616
 20
1324.0123686178772
 30
0.0
 11
96.03723386878596
 21
1324.513829229313
 31
0.0
  0
LINE
  5
253
330
17
100
AcDbEntity
  8
0
100
AcDbLine
 10
96.03723386878596
 20
1324.513829229313
 30
0.0
 11
95.83728083853447
 21
1325.0017115500045
 31
0.0
  0
LINE
  5
254
330
17
100
AcDbEntity
  8
0
100
AcDbLine
 10
95.83728083853447
 20
1325.0017115500045
 30
0.0
 11
95.60142742602517
 21
1325.4732871441124
 31
0.0
  0
LINE
  5
255
330
17
100
AcDbEntity
  8
0
100
AcDbLine
 10
95.60142742602517
 20
1325.4732871441124
 30
0.0
 11
95.33099261921215
 21
1325.9259187696255
 31
0.0
  0
LINE
  5
256
330
17
100
AcDbEntity
  8
0
100
AcDbLine
 10
95.33099261921215
 20
1325.9259187696255
 30
0.0
 11
95.0274887992334
 21
1326.3570751268903
 31
0.0
  0
LINE
  5
257
330
17
100
AcDbEntity
  8
0
100
AcDbLine
 10
95.0274887992334
 20
1326.3570751268903
 30
0.0
 11
94.69261328256289
 21
1326.7643450146606
 31
0.0
  0
LINE
  5
258
330
17
100
AcDbEntity
  8
0
100
AcDbLine
 10
94.69261328256289
 20
1326.7643450146606
 30
0.0
 11
94.32823882892792
 21
1327.1454508145232
 31
0.0
  0
LINE
  5
259
330
17
100
AcDbEntity
  8
0
100
AcDbLine
 10
94.32823882892792
 20
1327.1454508145232
 30
0.0
 11
93.93640316807736
 21
1327.4982612282538
 31
0.0
  0
LINE
  5
25A
330
17
100
AcDbEntity
  8
0
100
AcDbLine
 10
93.93640316807736
 20
1327.4982612282538
 30
0.0
 11
93.51929760397002
 21
1327.8208031969027
 31
0.0
  0
LINE
  5
25B
330
17
100
AcDbEntity
  8
0
100
AcDbLine
 10
93.51929760397002
 20
1327.8208031969027
 30
0.0
 11
93.07925476011366
 21
1328.111272934951
 31
0.0
  0
LINE
  5
25C
330
17
100
AcDbEntity
  8
0
100
AcDbLine
 10
93.07925476011366
 20
1328.111272934951
 30
0.0
 11
92.61873553458952
 21
1328.368046017796
 31
0.0
  0
LINE
  5
25D
330
17
100
AcDbEntity
  8
0
100
AcDbLine
 10
92.61873553458952
 20
1328.368046017796
 30
0.0
 11
92.14031533771043
 21
1328.5896864661993
 31
0.0
  0
LINE
  5
25E
330
17
100
AcDbEntity
  8
0
100
AcDbLine
 10
92.14031533771043
 20
1328.5896864661993
 30
0.0
 11
91.64666968928265
 21
1328.7749547768708
 31
0.0
  0
LINE
  5
25F
330
17
100
AcDbEntity
  8
0
100
AcDbLine
 10
91.64666968928265
 20
1328.7749547768708
 30
0.0
 11
91.14055925601363
 21
1328.922814854264
 31
0.0
  0
LINE
  5
260
330
17
100
AcDbEntity
  8
0
100
AcDbLine
 10
91.14055925601363
 20
1328.922814854264
 30
0.0
 11
90.62481441274336
 21
1329.0324398048492
 31
0.0
  0
LINE
  5
261
330
17
100
AcDbEntity
  8
0
100
AcDbLine
 10
90.62481441274336
 20
1329.0324398048492
 30
0.0
 11
90.10231941384102
 21
1329.103216561432
 31
0.0
  0
LINE
  5
262
330
17
100
AcDbEntity
  8
0
100
AcDbLine
 10
90.10231941384102
 20
1329.103216561432
 30
0.0
 11
89.5759962632842
 21
1329.134749311685
 31
0.0
  0
LINE
  5
263
330
17
100
AcDbEntity
  8
0
100
AcDbLine
 10
89.5759962632842
 20
1329.134749311685
 30
0.0
 11
89.04878837362716
 21
1329.1268617116739
 31
0.0
  0
LINE
  5
264
330
17
100
AcDbEntity
  8
0
100
AcDbLine
 10
89.04878837362716
 20
1329.1268617116739
 30
0.0
 11
88.52364410524433
 21
1329.0795978720585
 31
0.0
  0
LINE
  5
265
330
17
100
AcDbEntity
  8
0
100
AcDbLine
 10
88.52364410524433
 20
1329.0795978720585
 30
0.0
 11
88.00350027790277
 21
1328.9932221114009
 31
0.0
  0
LINE
  5
266
330
17
100
AcDbEntity
  8
0
100
AcDbLine
 10
88.00350027790277
 20
1328.9932221114009
 30
0.0
 11
87.49126574687487
 21
1328.8682174779956
 31
0.0
  0
LINE
  5
267
330
17
100
AcDbEntity
  8
0
100
AcDbLine
 10
87.49126574687487
 20
1328.8682174779956
 30
0.0
 11
86.98980513543964
 21
1328.705283048455
 31
0.0
  0
LINE
  5
268
330
17
100
AcDbEntity
  8
0
100
AcDbLine
 10
86.98980513543964
 20
1328.705283048455
 30
0.0
 11
86.50192281474773
 21
1328.505330018203
 31
0.0
  0
LINE
  5
269
330
17
100
AcDbEntity
  8
0
100
AcDbLine
 10
86.50192281474773
 20
1328.505330018203
 30
0.0
 11
86.03034722063984
 21
1328.2694766056934
 31
0.0
  0
LINE
  5
26A
330
17
100
AcDbEntity
  8
0
100
AcDbLine
 10
86.03034722063984
 20
1328.2694766056934
 30
0.0
 11
85.57771559512685
 21
1327.999041798881
 31
0.0
  0
LINE
  5
26B
330
17
100
AcDbEntity
  8
0
100
AcDbLine
 10
85.57771559512685
 20
1327.999041798881
 30
0.0
 11
85.14655923786319
 21
1327.6955379789015
 31
0.0
  0
LINE
  5
26C
330
17
100
AcDbEntity
  8
0
100
AcDbLine
 10
85.14655923786319
 20
1327.6955379789015
 30
0.0
 11
84.7392893500919
 21
1327.3606624622303
 31
0.0
  0
LINE
  5
26D
330
17
100
AcDbEntity
  8
0
100
AcDbLine
 10
84.7392893500919
 20
1327.3606624622303
 30
0.0
 11
84.35818355022943
 21
1326.9962880085968
 31
0.0
  0
LINE
  5
26E
330
17
100
AcDbEntity
  8
0
100
AcDbLine
 10
84.35818355022943
 20
1326.9962880085968
 30
0.0
 11
84.0053731364995
 21
1326.6044523477458
 31
0.0
  0
LINE
  5
26F
330
17
100
AcDbEntity
  8
0
100
AcDbLine
 10
84.0053731364995
 20
1326.6044523477458
 30
0.0
 11
83.68283116784869
 21
1326.1873467836385
 31
0.0
  0
LINE
  5
270
330
17
100
AcDbEntity
  8
0
100
AcDbLine
 10
83.68283116784869
 20
1326.1873467836385
 30
0.0
 11
83.39236142980107
 21
1325.747303939783
 31
0.0
  0
LINE
  5
271
330
17
100
AcDbEntity
  8
0
100
AcDbLine
 10
83.39236142980107
 20
1325.747303939783
 30
0.0
 11
83.13558834695714
 21
1325.2867847142577
 31
0.0
  0
LINE
  5
272
330
17
100
AcDbEntity
  8
0
100
AcDbLine
 10
83.13558834695714
 20
1325.2867847142577
 30
0.0
 11
82.91394789855298
 21
1324.8083645173788
 31
0.0
  0
LINE
  5
273
330
17
100
AcDbEntity
  8
0
100
AcDbLine
 10
82.91394789855298
 20
1324.8083645173788
 30
0.0
 11
82.72867958788191
 21
1324.3147188689509
 31
0.0
  0
LINE
  5
274
330
17
100
AcDbEntity
  8
0
100
AcDbLine
 10
82.72867958788191
 20
1324.3147188689509
 30
0.0
 11
82.58081951048894
 21
1323.8086084356821
 31
0.0
  0
LINE
  5
275
330
17
100
AcDbEntity
  8
0
100
AcDbLine
 10
82.58081951048894
 20
1323.8086084356821
 30
0.0
 11
82.47119455990435
 21
1323.2928635924113
 31
0.0
  0
LINE
  5
276
330
17
100
AcDbEntity
  8
0
100
AcDbLine
 10
82.47119455990435
 20
1323.2928635924113
 30
0.0
 11
82.40041780331981
 21
1322.7703685935098
 31
0.0
  0
LINE
  5
277
330
17
100
AcDbEntity
  8
0
100
AcDbLine
 10
82.40041780331981
 20
1322.7703685935098
 30
0.0
 11
82.36888505306808
 21
1322.2440454429532
 31
0.0
  0
LINE
  5
278
330
17
100
AcDbEntity
  8
0
100
AcDbLine
 10
82.36888505306808
 20
1322.2440454429532
 30
0.0
 11
82.37677265307936
 21
1321.716837553296
 31
0.0
  0
LINE
  5
279
330
17
100
AcDbEntity
  8
0
100
AcDbLine
 10
82.37677265307936
 20
1321.716837553296
 30
0.0
 11
82.4240364926947
 21
1321.1916932849128
 31
0.0
  0
LINE
  5
27A
330
17
100
AcDbEntity
  8
0
100
AcDbLine
 10
82.4240364926947
 20
1321.1916932849128
 30
0.0
 11
82.51041225335109
 21
1320.671549457572
 31
0.0
  0
LINE
  5
27B
330
17
100
AcDbEntity
  8
0
100
AcDbLine
 10
82.51041225335109
 20
1320.671549457572
 30
0.0
 11
82.63541688675781
 21
1320.1593149265439
 31
0.0
  0
LINE
  5
27C
330
17
100
AcDbEntity
  8
0
100
AcDbLine
 10
82.63541688675781
 20
1320.1593149265439
 30
0.0
 11
82.7983513162981
 21
1319.657854315109
 31
0.0
  0
LINE
  5
27D
330
17
100
AcDbEntity
  8
0
100
AcDbLine
 10
82.7983513162981
 20
1319.657854315109
 30
0.0
 11
82.99830434654962
 21
1319.1699719944168
 31
0.0
  0
LINE
  5
27E
330
17
100
AcDbEntity
  8
0
100
AcDbLine
 10
82.99830434654962
 20
1319.1699719944168
 30
0.0
 11
83.23415775905883
 21
1318.6983964003082
 31
0.0
  0
LINE
  5
27F
330
17
100
AcDbEntity
  8
0
100
AcDbLine
 10
83.23415775905883
 20
1318.6983964003082
 30
0.0
 11
83.50459256587197
 21
1318.2457647747951
 31
0.0
  0
LINE
  5
280
330
17
100
AcDbEntity
  8
0
100
AcDbLine
 10
83.50459256587197
 20
1318.2457647747951
 30
0.0
 11
83.80809638585077
 21
1317.8146084175316
 31
0.0
  0
LINE
  5
281
330
17
100
AcDbEntity
  8
0
100
AcDbLine
 10
83.80809638585077
 20
1317.8146084175316
 30
0.0
 11
84.14297190252117
 21
1317.407338529761
 31
0.0
  0
LINE
  5
282
330
17
100
AcDbEntity
  8
0
100
AcDbLine
 10
84.14297190252117
 20
1317.407338529761
 30
0.0
 11
84.5073463561562
 21
1317.0262327298974
 31
0.0
  0
LINE
  5
283
330
17
100
AcDbEntity
  8
0
100
AcDbLine
 10
84.5073463561562
 20
1317.0262327298974
 30
0.0
 11
84.8991820170067
 21
1316.6734223161684
 31
0.0
  0
LINE
  5
284
330
17
100
AcDbEntity
  8
0
100
AcDbLine
 10
84.8991820170067
 20
1316.6734223161684
 30
0.0
 11
85.31628758111414
 21
1316.3508803475174
 31
0.0
  0
LINE
  5
285
330
17
100
AcDbEntity
  8
0
100
AcDbLine
 10
85.31628758111414
 20
1316.3508803475174
 30
0.0
 11
85.75633042497049
 21
1316.060410609469
 31
0.0
  0
LINE
  5
286
330
17
100
AcDbEntity
  8
0
100
AcDbLine
 10
85.75633042497049
 20
1316.060410609469
 30
0.0
 11
86.21684965049467
 21
1315.8036375266256
 31
0.0
  0
LINE
  5
287
330
17
100
AcDbEntity
  8
0
100
AcDbLine
 10
86.21684965049467
 20
1315.8036375266256
 30
0.0
 11
86.6952698473737
 21
1315.5819970782213
 31
0.0
  0
LINE
  5
288
330
17
100
AcDbEntity
  8
0
100
AcDbLine
 10
86.6952698473737
 20
1315.5819970782213
 30
0.0
 11
87.18891549580134
 21
1315.3967287675503
 31
0.0
  0
LINE
  5
289
330
17
100
AcDbEntity
  8
0
100
AcDbLine
 10
87.18891549580134
 20
1315.3967287675503
 30
0.0
 11
87.69502592907045
 21
1315.2488686901575
 31
0.0
  0
LINE
  5
28A
330
17
100
AcDbEntity
  8
0
100
AcDbLine
 10
87.69502592907045
 20
1315.2488686901575
 30
0.0
 11
88.21077077234082
 21
1315.1392437395725
 31
0.0
  0
LINE
  5
28B
330
17
100
AcDbEntity
  8
0
100
AcDbLine
 10
88.21077077234082
 20
1315.1392437395725
 30
0.0
 11
88.73326577124303
 21
1315.068466982988
 31
0.0
  0
LINE
  5
28C
330
17
100
AcDbEntity
  8
0
100
AcDbLine
 10
88.73326577124303
 20
1315.068466982988
 30
0.0
 11
89.25958892179992
 21
1315.0369342327363
 31
0.0
  0
LINE
  5
28D
330
17
100
AcDbEntity
  8
0
100
AcDbLine
 10
89.25958892179992
 20
1315.0369342327363
 30
0.0
 11
89.78679681145691
 21
1315.0448218327476
 31
0.0
  0
LINE
  5
28E
330
17
100
AcDbEntity
  8
0
100
AcDbLine
 10
89.78679681145691
 20
1315.0448218327476
 30
0.0
 11
90.31194107983978
 21
1315.0920856723628
 31
0.0
  0
LINE
  5
28F
330
17
100
AcDbEntity
  8
0
100
AcDbLine
 10
90.31194107983978
 20
1315.0920856723628
 30
0.0
 11
90.83208490718127
 21
1315.1784614330195
 31
0.0
  0
LINE
  5
290
330
17
100
AcDbEntity
  8
0
100
AcDbLine
 10
90.83208490718127
 20
1315.1784614330195
 30
0.0
 11
91.34431943820931
 21
1315.3034660664257
 31
0.0
  0
LINE
  5
291
330
17
100
AcDbEntity
  8
0
100
AcDbLine
 10
91.34431943820931
 20
1315.3034660664257
 30
0.0
 11
91.84578004964445
 21
1315.4664004959666
 31
0.0
  0
LINE
  5
292
330
17
100
AcDbEntity
  8
0
100
AcDbLine
 10
91.84578004964445
 20
1315.4664004959666
 30
0.0
 11
92.33366237033626
 21
1315.666353526218
 31
0.0
  0
LINE
  5
293
330
17
100
AcDbEntity
  8
0
100
AcDbLine
 10
92.33366237033626
 20
1315.666353526218
 30
0.0
 11
92.80523796444429
 21
1315.9022069387272
 31
0.0
  0
LINE
  5
294
330
17
100
AcDbEntity
  8
0
100
AcDbLine
 10
92.80523796444429
 20
1315.9022069387272
 30
0.0
 11
93.25786958995734
 21
1316.1726417455404
 31
0.0
  0
LINE
  5
295
330
17
100
AcDbEntity
  8
0
100
AcDbLine
 10
93.25786958995734
 20
1316.1726417455404
 30
0.0
 11
93.68902594722096
 21
1316.4761455655187
 31
0.0
  0
LINE
  5
296
330
17
100
AcDbEntity
  8
0
100
AcDbLine
 10
93.68902594722096
 20
1316.4761455655187
 30
0.0
 11
94.09629583499226
 21
1316.8110210821899
 31
0.0
  0
LINE
  5
297
330
17
100
AcDbEntity
  8
0
100
AcDbLine
 10
94.09629583499226
 20
1316.8110210821899
 30
0.0
 11
94.47740163485463
 21
1317.175395535825
 31
0.0
  0
LINE
  5
298
330
17
100
AcDbEntity
  8
0
100
AcDbLine
 10
94.47740163485463
 20
1317.175395535825
 30
0.0
 11
94.83021204858463
 21
1317.5672311966746
 31
0.0
  0
LINE
  5
299
330
17
100
AcDbEntity
  8
0
100
AcDbLine
 10
94.83021204858463
 20
1317.5672311966746
 30
0.0
 11
95.15275401723537
 21
1317.9843367607837
 31
0.0
  0
LINE
  5
29A
330
17
100
AcDbEntity
  8
0
100
AcDbLine
 10
95.15275401723537
 20
1317.9843367607837
 30
0.0
 11
95.4432237552831
 21
1318.424379604639
 31
0.0
  0
LINE
  5
29B
330
17
100
AcDbEntity
  8
0
100
AcDbLine
 10
95.4432237552831
 20
1318.424379604639
 30
0.0
 11
95.69999683812699
 21
1318.884898830163
 31
0.0
  0
LINE
  5
29C
330
17
100
AcDbEntity
  8
0
100
AcDbLine
 10
95.69999683812699
 20
1318.884898830163
 30
0.0
 11
95.92163728653102
 21
1319.363319027042
 31
0.0
  0
LINE
  5
29D
330
17
100
AcDbEntity
  8
0
100
AcDbLine
 10
95.92163728653102
 20
1319.363319027042
 30
0.0
 11
96.10690559720217
 21
1319.8569646754704
 31
0.0
  0
LINE
  5
29E
330
17
100
AcDbEntity
  8
0
100
AcDbLine
 10
96.10690559720217
 20
1319.8569646754704
 30
0.0
 11
96.25476567459512
 21
1320.3630751087398
 31
0.0
  0
LINE
  5
29F
330
17
100
AcDbEntity
  8
0
100
AcDbLine
 10
96.25476567459512
 20
1320.3630751087398
 30
0.0
 11
96.36439062517962
 21
1320.8788199520097
 31
0.0
  0
LINE
  5
2A0
330
17
100
AcDbEntity
  8
0
100
AcDbLine
 10
96.36439062517962
 20
1320.8788199520097
 30
0.0
 11
96.43516738176424
 21
1321.401314950912
 31
0.0
  0
LINE
  5
2A1
330
17
100
AcDbEntity
  8
0
100
AcDbLine
 10
96.43516738176424
 20
1321.401314950912
 30
0.0
 11
96.46670013201599
 21
1321.9276381014683
 31
0.0
  0
LINE
  5
2A2
330
17
100
AcDbEntity
  8
0
100
AcDbLine
 10
96.46670013201599
 20
1321.9276381014683
 30
0.0
 11
96.45881253200481
 21
1322.4548459911257
 31
0.0
  0
LINE
  5
2A3
330
17
100
AcDbEntity
  8
0
100
AcDbLine
 10
1573.0502820018062
 20
296.35893981110166
 30
0.0
 11
1573.0030181621912
 21
296.88408407948475
 31
0.0
  0
LINE
  5
2A4
330
17
100
AcDbEntity
  8
0
100
AcDbLine
 10
1573.0030181621912
 20
296.88408407948475
 30
0.0
 11
1572.9166424015345
 21
297.4042279068261
 31
0.0
  0
LINE
  5
2A5
330
17
100
AcDbEntity
  8
0
100
AcDbLine
 10
1572.9166424015345
 20
297.4042279068261
 30
0.0
 11
1572.791637768128
 21
297.9164624378541
 31
0.0
  0
LINE
  5
2A6
330
17
100
AcDbEntity
  8
0
100
AcDbLine
 10
1572.791637768128
 20
297.9164624378541
 30
0.0
 11
1572.6287033385875
 21
298.4179230492897
 31
0.0
  0
LINE
  5
2A7
330
17
100
AcDbEntity
  8
0
100
AcDbLine
 10
1572.6287033385875
 20
298.4179230492897
 30
0.0
 11
1572.428750308337
 21
298.90580536998095
 31
0.0
  0
LINE
  5
2A8
330
17
100
AcDbEntity
  8
0
100
AcDbLine
 10
1572.428750308337
 20
298.90580536998095
 30
0.0
 11
1572.192896895827
 21
299.3773809640894
 31
0.0
  0
LINE
  5
2A9
330
17
100
AcDbEntity
  8
0
100
AcDbLine
 10
1572.192896895827
 20
299.3773809640894
 30
0.0
 11
1571.9224620890136
 21
299.83001258960223
 31
0.0
  0
LINE
  5
2AA
330
17
100
AcDbEntity
  8
0
100
AcDbLine
 10
1571.9224620890136
 20
299.83001258960223
 30
0.0
 11
1571.6189582690351
 21
300.26116894686584
 31
0.0
  0
LINE
  5
2AB
330
17
100
AcDbEntity
  8
0
100
AcDbLine
 10
1571.6189582690351
 20
300.26116894686584
 30
0.0
 11
1571.2840827523655
 21
300.6684388346372
 31
0.0
  0
LINE
  5
2AC
330
17
100
AcDbEntity
  8
0
100
AcDbLine
 10
1571.2840827523655
 20
300.6684388346372
 30
0.0
 11
1570.9197082987303
 21
301.0495446344995
 31
0.0
  0
LINE
  5
2AD
330
17
100
AcDbEntity
  8
0
100
AcDbLine
 10
1570.9197082987303
 20
301.0495446344995
 30
0.0
 11
1570.5278726378792
 21
301.4023550482294
 31
0.0
  0
LINE
  5
2AE
330
17
100
AcDbEntity
  8
0
100
AcDbLine
 10
1570.5278726378792
 20
301.4023550482294
 30
0.0
 11
1570.1107670737717
 21
301.7248970168805
 31
0.0
  0
LINE
  5
2AF
330
17
100
AcDbEntity
  8
0
100
AcDbLine
 10
1570.1107670737717
 20
301.7248970168805
 30
0.0
 11
1569.6707242299153
 21
302.015366754928
 31
0.0
  0
LINE
  5
2B0
330
17
100
AcDbEntity
  8
0
100
AcDbLine
 10
1569.6707242299153
 20
302.015366754928
 30
0.0
 11
1569.2102050043907
 21
302.27213983777233
 31
0.0
  0
LINE
  5
2B1
330
17
100
AcDbEntity
  8
0
100
AcDbLine
 10
1569.2102050043907
 20
302.27213983777233
 30
0.0
 11
1568.731784807512
 21
302.49378028617616
 31
0.0
  0
LINE
  5
2B2
330
17
100
AcDbEntity
  8
0
100
AcDbLine
 10
1568.731784807512
 20
302.49378028617616
 30
0.0
 11
1568.2381391590845
 21
302.6790485968471
 31
0.0
  0
LINE
  5
2B3
330
17
100
AcDbEntity
  8
0
100
AcDbLine
 10
1568.2381391590845
 20
302.6790485968471
 30
0.0
 11
1567.7320287258153
 21
302.82690867424014
 31
0.0
  0
LINE
  5
2B4
330
17
100
AcDbEntity
  8
0
100
AcDbLine
 10
1567.7320287258153
 20
302.82690867424014
 30
0.0
 11
1567.216283882545
 21
302.9365336248246
 31
0.0
  0
LINE
  5
2B5
330
17
100
AcDbEntity
  8
0
100
AcDbLine
 10
1567.216283882545
 20
302.9365336248246
 30
0.0
 11
1566.693788883643
 21
303.00731038140896
 31
0.0
  0
LINE
  5
2B6
330
17
100
AcDbEntity
  8
0
100
AcDbLine
 10
1566.693788883643
 20
303.00731038140896
 30
0.0
 11
1566.1674657330855
 21
303.03884313166077
 31
0.0
  0
LINE
  5
2B7
330
17
100
AcDbEntity
  8
0
100
AcDbLine
 10
1566.1674657330855
 20
303.03884313166077
 30
0.0
 11
1565.6402578434293
 21
303.03095553164974
 31
0.0
  0
LINE
  5
2B8
330
17
100
AcDbEntity
  8
0
100
AcDbLine
 10
1565.6402578434293
 20
303.03095553164974
 30
0.0
 11
1565.1151135750467
 21
302.9836916920342
 31
0.0
  0
LINE
  5
2B9
330
17
100
AcDbEntity
  8
0
100
AcDbLine
 10
1565.1151135750467
 20
302.9836916920342
 30
0.0
 11
1564.5949697477051
 21
302.89731593137765
 31
0.0
  0
LINE
  5
2BA
330
17
100
AcDbEntity
  8
0
100
AcDbLine
 10
1564.5949697477051
 20
302.89731593137765
 30
0.0
 11
1564.0827352166766
 21
302.772311297971
 31
0.0
  0
LINE
  5
2BB
330
17
100
AcDbEntity
  8
0
100
AcDbLine
 10
1564.0827352166766
 20
302.772311297971
 30
0.0
 11
1563.581274605241
 21
302.6093768684308
 31
0.0
  0
LINE
  5
2BC
330
17
100
AcDbEntity
  8
0
100
AcDbLine
 10
1563.581274605241
 20
302.6093768684308
 30
0.0
 11
1563.0933922845502
 21
302.40942383817935
 31
0.0
  0
LINE
  5
2BD
330
17
100
AcDbEntity
  8
0
100
AcDbLine
 10
1563.0933922845502
 20
302.40942383817935
 30
0.0
 11
1562.6218166904416
 21
302.1735704256703
 31
0.0
  0
LINE
  5
2BE
330
17
100
AcDbEntity
  8
0
100
AcDbLine
 10
1562.6218166904416
 20
302.1735704256703
 30
0.0
 11
1562.1691850649288
 21
301.9031356188575
 31
0.0
  0
LINE
  5
2BF
330
17
100
AcDbEntity
  8
0
100
AcDbLine
 10
1562.1691850649288
 20
301.9031356188575
 30
0.0
 11
1561.738028707665
 21
301.59963179887836
 31
0.0
  0
LINE
  5
2C0
330
17
100
AcDbEntity
  8
0
100
AcDbLine
 10
1561.738028707665
 20
301.59963179887836
 30
0.0
 11
1561.3307588198934
 21
301.2647562822078
 31
0.0
  0
LINE
  5
2C1
330
17
100
AcDbEntity
  8
0
100
AcDbLine
 10
1561.3307588198934
 20
301.2647562822078
 30
0.0
 11
1560.949653020031
 21
300.9003818285729
 31
0.0
  0
LINE
  5
2C2
330
17
100
AcDbEntity
  8
0
100
AcDbLine
 10
1560.949653020031
 20
300.9003818285729
 30
0.0
 11
1560.5968426063014
 21
300.50854616772233
 31
0.0
  0
LINE
  5
2C3
330
17
100
AcDbEntity
  8
0
100
AcDbLine
 10
1560.5968426063014
 20
300.50854616772233
 30
0.0
 11
1560.2743006376509
 21
300.09144060361484
 31
0.0
  0
LINE
  5
2C4
330
17
100
AcDbEntity
  8
0
100
AcDbLine
 10
1560.2743006376509
 20
300.09144060361484
 30
0.0
 11
1559.9838308996027
 21
299.65139775975854
 31
0.0
  0
LINE
  5
2C5
330
17
100
AcDbEntity
  8
0
100
AcDbLine
 10
1559.9838308996027
 20
299.65139775975854
 30
0.0
 11
1559.727057816759
 21
299.19087853423446
 31
0.0
  0
LINE
  5
2C6
330
17
100
AcDbEntity
  8
0
100
AcDbLine
 10
1559.727057816759
 20
299.19087853423446
 30
0.0
 11
1559.5054173683545
 21
298.71245833735554
 31
0.0
  0
LINE
  5
2C7
330
17
100
AcDbEntity
  8
0
100
AcDbLine
 10
1559.5054173683545
 20
298.71245833735554
 30
0.0
 11
1559.320149057684
 21
298.2188126889273
 31
0.0
  0
LINE
  5
2C8
330
17
100
AcDbEntity
  8
0
100
AcDbLine
 10
1559.320149057684
 20
298.2188126889273
 30
0.0
 11
1559.172288980291
 21
297.7127022556589
 31
0.0
  0
LINE
  5
2C9
330
17
100
AcDbEntity
  8
0
100
AcDbLine
 10
1559.172288980291
 20
297.7127022556589
 30
0.0
 11
1559.0626640297064
 21
297.1969574123882
 31
0.0
  0
LINE
  5
2CA
330
17
100
AcDbEntity
  8
0
100
AcDbLine
 10
1559.0626640297064
 20
297.1969574123882
 30
0.0
 11
1558.9918872731216
 21
296.6744624134857
 31
0.0
  0
LINE
  5
2CB
330
17
100
AcDbEntity
  8
0
100
AcDbLine
 10
1558.9918872731216
 20
296.6744624134857
 30
0.0
 11
1558.9603545228697
 21
296.148139262929
 31
0.0
  0
LINE
  5
2CC
330
17
100
AcDbEntity
  8
0
100
AcDbLine
 10
1558.9603545228697
 20
296.148139262929
 30
0.0
 11
1558.968242122881
 21
295.620931373272
 31
0.0
  0
LINE
  5
2CD
330
17
100
AcDbEntity
  8
0
100
AcDbLine
 10
1558.968242122881
 20
295.620931373272
 30
0.0
 11
1559.0155059624963
 21
295.09578710488904
 31
0.0
  0
LINE
  5
2CE
330
17
100
AcDbEntity
  8
0
100
AcDbLine
 10
1559.0155059624963
 20
295.09578710488904
 30
0.0
 11
1559.101881723153
 21
294.57564327754756
 31
0.0
  0
LINE
  5
2CF
330
17
100
AcDbEntity
  8
0
100
AcDbLine
 10
1559.101881723153
 20
294.57564327754756
 30
0.0
 11
1559.2268863565598
 21
294.06340874652017
 31
0.0
  0
LINE
  5
2D0
330
17
100
AcDbEntity
  8
0
100
AcDbLine
 10
1559.2268863565598
 20
294.06340874652017
 30
0.0
 11
1559.3898207861
 21
293.56194813508455
 31
0.0
  0
LINE
  5
2D1
330
17
100
AcDbEntity
  8
0
100
AcDbLine
 10
1559.3898207861
 20
293.56194813508455
 30
0.0
 11
1559.5897738163517
 21
293.0740658143927
 31
0.0
  0
LINE
  5
2D2
330
17
100
AcDbEntity
  8
0
100
AcDbLine
 10
1559.5897738163517
 20
293.0740658143927
 30
0.0
 11
1559.8256272288604
 21
292.60249022028506
 31
0.0
  0
LINE
  5
2D3
330
17
100
AcDbEntity
  8
0
100
AcDbLine
 10
1559.8256272288604
 20
292.60249022028506
 30
0.0
 11
1560.0960620356739
 21
292.14985859477156
 31
0.0
  0
LINE
  5
2D4
330
17
100
AcDbEntity
  8
0
100
AcDbLine
 10
1560.0960620356739
 20
292.14985859477156
 30
0.0
 11
1560.3995658556523
 21
291.7187022375082
 31
0.0
  0
LINE
  5
2D5
330
17
100
AcDbEntity
  8
0
100
AcDbLine
 10
1560.3995658556523
 20
291.7187022375082
 30
0.0
 11
1560.7344413723233
 21
291.3114323497367
 31
0.0
  0
LINE
  5
2D6
330
17
100
AcDbEntity
  8
0
100
AcDbLine
 10
1560.7344413723233
 20
291.3114323497367
 30
0.0
 11
1561.098815825958
 21
290.93032654987474
 31
0.0
  0
LINE
  5
2D7
330
17
100
AcDbEntity
  8
0
100
AcDbLine
 10
1561.098815825958
 20
290.93032654987474
 30
0.0
 11
1561.4906514868082
 21
290.5775161361447
 31
0.0
  0
LINE
  5
2D8
330
17
100
AcDbEntity
  8
0
100
AcDbLine
 10
1561.4906514868082
 20
290.5775161361447
 30
0.0
 11
1561.9077570509157
 21
290.25497416749363
 31
0.0
  0
LINE
  5
2D9
330
17
100
AcDbEntity
  8
0
100
AcDbLine
 10
1561.9077570509157
 20
290.25497416749363
 30
0.0
 11
1562.3477998947724
 21
289.9645044294458
 31
0.0
  0
LINE
  5
2DA
330
17
100
AcDbEntity
  8
0
100
AcDbLine
 10
1562.3477998947724
 20
289.9645044294458
 30
0.0
 11
1562.8083191202966
 21
289.70773134660215
 31
0.0
  0
LINE
  5
2DB
330
17
100
AcDbEntity
  8
0
100
AcDbLine
 10
1562.8083191202966
 20
289.70773134660215
 30
0.0
 11
1563.2867393171755
 21
289.4860908981982
 31
0.0
  0
LINE
  5
2DC
330
17
100
AcDbEntity
  8
0
100
AcDbLine
 10
1563.2867393171755
 20
289.4860908981982
 30
0.0
 11
1563.7803849656038
 21
289.30082258752657
 31
0.0
  0
LINE
  5
2DD
330
17
100
AcDbEntity
  8
0
100
AcDbLine
 10
1563.7803849656038
 20
289.30082258752657
 30
0.0
 11
1564.286495398872
 21
289.15296251013365
 31
0.0
  0
LINE
  5
2DE
330
17
100
AcDbEntity
  8
0
100
AcDbLine
 10
1564.286495398872
 20
289.15296251013365
 30
0.0
 11
1564.8022402421425
 21
289.04333755954906
 31
0.0
  0
LINE
  5
2DF
330
17
100
AcDbEntity
  8
0
100
AcDbLine
 10
1564.8022402421425
 20
289.04333755954906
 30
0.0
 11
1565.3247352410453
 21
288.97256080296495
 31
0.0
  0
LINE
  5
2E0
330
17
100
AcDbEntity
  8
0
100
AcDbLine
 10
1565.3247352410453
 20
288.97256080296495
 30
0.0
 11
1565.8510583916022
 21
288.9410280527129
 31
0.0
  0
LINE
  5
2E1
330
17
100
AcDbEntity
  8
0
100
AcDbLine
 10
1565.8510583916022
 20
288.9410280527129
 30
0.0
 11
1566.378266281259
 21
288.94891565272394
 31
0.0
  0
LINE
  5
2E2
330
17
100
AcDbEntity
  8
0
100
AcDbLine
 10
1566.378266281259
 20
288.94891565272394
 30
0.0
 11
1566.903410549641
 21
288.9961794923395
 31
0.0
  0
LINE
  5
2E3
330
17
100
AcDbEntity
  8
0
100
AcDbLine
 10
1566.903410549641
 20
288.9961794923395
 30
0.0
 11
1567.4235543769832
 21
289.08255525299626
 31
0.0
  0
LINE
  5
2E4
330
17
100
AcDbEntity
  8
0
100
AcDbLine
 10
1567.4235543769832
 20
289.08255525299626
 30
0.0
 11
1567.9357889080109
 21
289.2075598864027
 31
0.0
  0
LINE
  5
2E5
330
17
100
AcDbEntity
  8
0
100
AcDbLine
 10
1567.9357889080109
 20
289.2075598864027
 30
0.0
 11
1568.4372495194461
 21
289.370494315943
 31
0.0
  0
LINE
  5
2E6
330
17
100
AcDbEntity
  8
0
100
AcDbLine
 10
1568.4372495194461
 20
289.370494315943
 30
0.0
 11
1568.9251318401382
 21
289.5704473461943
 31
0.0
  0
LINE
  5
2E7
330
17
100
AcDbEntity
  8
0
100
AcDbLine
 10
1568.9251318401382
 20
289.5704473461943
 30
0.0
 11
1569.3967074342459
 21
289.8063007587041
 31
0.0
  0
LINE
  5
2E8
330
17
100
AcDbEntity
  8
0
100
AcDbLine
 10
1569.3967074342459
 20
289.8063007587041
 30
0.0
 11
1569.8493390597584
 21
290.07673556551697
 31
0.0
  0
LINE
  5
2E9
330
17
100
AcDbEntity
  8
0
100
AcDbLine
 10
1569.8493390597584
 20
290.07673556551697
 30
0.0
 11
1570.2804954170226
 21
290.38023938549543
 31
0.0
  0
LINE
  5
2EA
330
17
100
AcDbEntity
  8
0
100
AcDbLine
 10
1570.2804954170226
 20
290.38023938549543
 30
0.0
 11
1570.687765304794
 21
290.7151149021663
 31
0.0
  0
LINE
  5
2EB
330
17
100
AcDbEntity
  8
0
100
AcDbLine
 10
1570.687765304794
 20
290.7151149021663
 30
0.0
 11
1571.0688711046564
 21
291.0794893558008
 31
0.0
  0
LINE
  5
2EC
330
17
100
AcDbEntity
  8
0
100
AcDbLine
 10
1571.0688711046564
 20
291.0794893558008
 30
0.0
 11
1571.4216815183868
 21
291.4713250166519
 31
0.0
  0
LINE
  5
2ED
330
17
100
AcDbEntity
  8
0
100
AcDbLine
 10
1571.4216815183868
 20
291.4713250166519
 30
0.0
 11
1571.744223487038
 21
291.88843058075906
 31
0.0
  0
LINE
  5
2EE
330
17
100
AcDbEntity
  8
0
100
AcDbLine
 10
1571.744223487038
 20
291.88843058075906
 30
0.0
 11
1572.0346932250848
 21
292.3284734246155
 31
0.0
  0
LINE
  5
2EF
330
17
100
AcDbEntity
  8
0
100
AcDbLine
 10
1572.0346932250848
 20
292.3284734246155
 30
0.0
 11
1572.2914663079284
 21
292.78899265013933
 31
0.0
  0
LINE
  5
2F0
330
17
100
AcDbEntity
  8
0
100
AcDbLine
 10
1572.2914663079284
 20
292.78899265013933
 30
0.0
 11
1572.513106756333
 21
293.26741284701893
 31
0.0
  0
LINE
  5
2F1
330
17
100
AcDbEntity
  8
0
100
AcDbLine
 10
1572.513106756333
 20
293.26741284701893
 30
0.0
 11
1572.6983750670047
 21
293.7610584954464
 31
0.0
  0
LINE
  5
2F2
330
17
100
AcDbEntity
  8
0
100
AcDbLine
 10
1572.6983750670047
 20
293.7610584954464
 30
0.0
 11
1572.8462351443968
 21
294.26716892871536
 31
0.0
  0
LINE
  5
2F3
330
17
100
AcDbEntity
  8
0
100
AcDbLine
 10
1572.8462351443968
 20
294.26716892871536
 30
0.0
 11
1572.9558600949815
 21
294.78291377198605
 31
0.0
  0
LINE
  5
2F4
330
17
100
AcDbEntity
  8
0
100
AcDbLine
 10
1572.9558600949815
 20
294.78291377198605
 30
0.0
 11
1573.0266368515659
 21
295.305408770888
 31
0.0
  0
LINE
  5
2F5
330
17
100
AcDbEntity
  8
0
100
AcDbLine
 10
1573.0266368515659
 20
295.305408770888
 30
0.0
 11
1573.0581696018178
 21
295.83173192144477
 31
0.0
  0
LINE
  5
2F6
330
17
100
AcDbEntity
  8
0
100
AcDbLine
 10
1573.0581696018178
 20
295.83173192144477
 30
0.0
 11
1573.0502820018062
 21
296.35893981110166
 31
0.0
  0
LINE
  5
2F7
330
17
100
AcDbEntity
  8
0
100
AcDbLine
 10
1017.0024195105676
 20
601.7632636632125
 30
0.0
 11
1018.5286229247495
 21
600.4153076546638
 31
0.0
  0
LINE
  5
2F8
330
17
100
AcDbEntity
  8
0
100
AcDbLine
 10
1018.5286229247495
 20
600.4153076546638
 30
0.0
 11
1020.0803662612335
 21
599.0968332028358
 31
0.0
  0
LINE
  5
2F9
330
17
100
AcDbEntity
  8
0
100
AcDbLine
 10
1020.0803662612335
 20
599.0968332028358
 30
0.0
 11
1021.657080118451
 21
597.8083241128788
 31
0.0
  0
LINE
  5
2FA
330
17
100
AcDbEntity
  8
0
100
AcDbLine
 10
1021.657080118451
 20
597.8083241128788
 30
0.0
 11
1023.2581859320753
 21
596.5502531943597
 31
0.0
  0
LINE
  5
2FB
330
17
100
AcDbEntity
  8
0
100
AcDbLine
 10
1023.2581859320753
 20
596.5502531943597
 30
0.0
 11
1024.8830961873173
 21
595.3230820877682
 31
0.0
  0
LINE
  5
2FC
330
17
100
AcDbEntity
  8
0
100
AcDbLine
 10
1024.8830961873173
 20
595.3230820877682
 30
0.0
 11
1026.531214634511
 21
594.1272610951178
 31
0.0
  0
LINE
  5
2FD
330
17
100
AcDbEntity
  8
0
100
AcDbLine
 10
1026.531214634511
 20
594.1272610951178
 30
0.0
 11
1028.2019365079047
 21
592.9632290147144
 31
0.0
  0
LINE
  5
2FE
330
17
100
AcDbEntity
  8
0
100
AcDbLine
 10
1028.2019365079047
 20
592.9632290147144
 30
0.0
 11
1029.8946487475737
 21
591.8314129801406
 31
0.0
  0
LINE
  5
2FF
330
17
100
AcDbEntity
  8
0
100
AcDbLine
 10
1029.8946487475737
 20
591.8314129801406
 30
0.0
 11
1031.6087302243802
 21
590.7322283035222
 31
0.0
  0
LINE
  5
300
330
17
100
AcDbEntity
  8
0
100
AcDbLine
 10
1031.6087302243802
 20
590.7322283035222
 30
0.0
 11
1033.343551967891
 21
589.6660783231312
 31
0.0
  0
LINE
  5
301
330
17
100
AcDbEntity
  8
0
100
AcDbLine
 10
1033.343551967891
 20
589.6660783231312
 30
0.0
 11
1035.098477397174
 21
588.6333542553862
 31
0.0
  0
LINE
  5
302
330
17
100
AcDbEntity
  8
0
100
AcDbLine
 10
1035.098477397174
 20
588.6333542553862
 30
0.0
 11
1036.8728625543881
 21
587.6344350512954
 31
0.0
  0
LINE
  5
303
330
17
100
AcDbEntity
  8
0
100
AcDbLine
 10
1036.8728625543881
 20
587.6344350512954
 30
0.0
 11
1038.6660563410787
 21
586.6696872574046
 31
0.0
  0
LINE
  5
304
330
17
100
AcDbEntity
  8
0
100
AcDbLine
 10
1038.6660563410787
 20
586.6696872574046
 30
0.0
 11
1040.4774007570938
 21
585.7394648812942
 31
0.0
  0
LINE
  5
305
330
17
100
AcDbEntity
  8
0
100
AcDbLine
 10
1040.4774007570938
 20
585.7394648812942
 30
0.0
 11
1042.306231142032
 21
584.8441092616815
 31
0.0
  0
LINE
  5
306
330
17
100
AcDbEntity
  8
0
100
AcDbLine
 10
1042.306231142032
 20
584.8441092616815
 30
0.0
 11
1044.1518764191355
 21
583.983948943166
 31
0.0
  0
LINE
  5
307
330
17
100
AcDbEntity
  8
0
100
AcDbLine
 10
1044.1518764191355
 20
583.983948943166
 30
0.0
 11
1046.013659341538
 21
583.1592995556716
 31
0.0
  0
LINE
  5
308
330
17
100
AcDbEntity
  8
0
100
AcDbLine
 10
1046.013659341538
 20
583.1592995556716
 30
0.0
 11
1047.8908967407747
 21
582.3704636986322
 31
0.0
  0
LINE
  5
309
330
17
100
AcDbEntity
  8
0
100
AcDbLine
 10
1047.8908967407747
 20
582.3704636986322
 30
0.0
 11
1049.7828997774668
 21
581.6177308299503
 31
0.0
  0
LINE
  5
30A
330
17
100
AcDbEntity
  8
0
100
AcDbLine
 10
1049.7828997774668
 20
581.6177308299503
 30
0.0
 11
1051.6889741940843
 21
580.9013771597861
 31
0.0
  0
LINE
  5
30B
330
17
100
AcDbEntity
  8
0
100
AcDbLine
 10
1051.6889741940843
 20
580.9013771597861
 30
0.0
 11
1053.6084205697043
 21
580.2216655492025
 31
0.0
  0
LINE
  5
30C
330
17
100
AcDbEntity
  8
0
100
AcDbLine
 10
1053.6084205697043
 20
580.2216655492025
 30
0.0
 11
1055.5405345766537
 21
579.5788454137089
 31
0.0
  0
LINE
  5
30D
330
17
100
AcDbEntity
  8
0
100
AcDbLine
 10
1055.5405345766537
 20
579.5788454137089
 30
0.0
 11
1057.4846072389578
 21
578.9731526317423
 31
0.0
  0
LINE
  5
30E
330
17
100
AcDbEntity
  8
0
100
AcDbLine
 10
1057.4846072389578
 20
578.9731526317423
 30
0.0
 11
1059.439925192497
 21
578.4048094581126
 31
0.0
  0
LINE
  5
30F
330
17
100
AcDbEntity
  8
0
100
AcDbLine
 10
1059.439925192497
 20
578.4048094581126
 30
0.0
 11
1061.4057709467681
 21
577.8740244424455
 31
0.0
  0
LINE
  5
310
330
17
100
AcDbEntity
  8
0
100
AcDbLine
 10
1061.4057709467681
 20
577.8740244424455
 30
0.0
 11
1063.3814231481656
 21
577.3809923526596
 31
0.0
  0
LINE
  5
311
330
17
100
AcDbEntity
  8
0
100
AcDbLine
 10
1063.3814231481656
 20
577.3809923526596
 30
0.0
 11
1065.3661568446728
 21
576.9258941034964
 31
0.0
  0
LINE
  5
312
330
17
100
AcDbEntity
  8
0
100
AcDbLine
 10
1065.3661568446728
 20
576.9258941034964
 30
0.0
 11
1067.3592437518835
 21
576.5088966901349
 31
0.0
  0
LINE
  5
313
330
17
100
AcDbEntity
  8
0
100
AcDbLine
 10
1067.3592437518835
 20
576.5088966901349
 30
0.0
 11
1069.359952520236
 21
576.1301531269132
 31
0.0
  0
LINE
  5
314
330
17
100
AcDbEntity
  8
0
100
AcDbLine
 10
1069.359952520236
 20
576.1301531269132
 30
0.0
 11
1071.3675490033802
 21
575.7898023911837
 31
0.0
  0
LINE
  5
315
330
17
100
AcDbEntity
  8
0
100
AcDbLine
 10
1071.3675490033802
 20
575.7898023911837
 30
0.0
 11
1073.3812965275652
 21
575.4879693723111
 31
0.0
  0
LINE
  5
316
330
17
100
AcDbEntity
  8
0
100
AcDbLine
 10
1073.3812965275652
 20
575.4879693723111
 30
0.0
 11
1075.4004561619597
 21
575.2247648258515
 31
0.0
  0
LINE
  5
317
330
17
100
AcDbEntity
  8
0
100
AcDbLine
 10
1075.4004561619597
 20
575.2247648258515
 30
0.0
 11
1077.4242869897937
 21
575.0002853329058
 31
0.0
  0
LINE
  5
318
330
17
100
AcDbEntity
  8
0
100
AcDbLine
 10
1077.4242869897937
 20
575.0002853329058
 30
0.0
 11
1079.4520463802355
 21
574.8146132646839
 31
0.0
  0
LINE
  5
319
330
17
100
AcDbEntity
  8
0
100
AcDbLine
 10
1079.4520463802355
 20
574.8146132646839
 30
0.0
 11
1081.4829902608956
 21
574.6678167522757
 31
0.0
  0
LINE
  5
31A
330
17
100
AcDbEntity
  8
0
100
AcDbLine
 10
1081.4829902608956
 20
574.6678167522757
 30
0.0
 11
1083.5163733908553
 21
574.5599496616551
 31
0.0
  0
LINE
  5
31B
330
17
100
AcDbEntity
  8
0
100
AcDbLine
 10
1083.5163733908553
 20
574.5599496616551
 30
0.0
 11
1085.5514496341318
 21
574.49105157391
 31
0.0
  0
LINE
  5
31C
330
17
100
AcDbEntity
  8
0
100
AcDbLine
 10
1085.5514496341318
 20
574.49105157391
 30
0.0
 11
1087.587472233466
 21
574.4611477707208
 31
0.0
  0
LINE
  5
31D
330
17
100
AcDbEntity
  8
0
100
AcDbLine
 10
1087.587472233466
 20
574.4611477707208
 30
0.0
 11
1089.623694084339
 21
574.4702492250838
 31
0.0
  0
LINE
  5
31E
330
17
100
AcDbEntity
  8
0
100
AcDbLine
 10
1089.623694084339
 20
574.4702492250838
 30
0.0
 11
1091.6593680091185
 21
574.5183525972811
 31
0.0
  0
LINE
  5
31F
330
17
100
AcDbEntity
  8
0
100
AcDbLine
 10
1091.6593680091185
 20
574.5183525972811
 30
0.0
 11
1093.69374703123
 21
574.6054402361118
 31
0.0
  0
LINE
  5
320
330
17
100
AcDbEntity
  8
0
100
AcDbLine
 10
1093.69374703123
 20
574.605440236114
 30
0.0
 11
1092.3225949796592
 21
574.5135671631975
 31
0.0
  0
LINE
  5
321
330
17
100
AcDbEntity
  8
0
100
AcDbLine
 10
1092.3225949796592
 20
574.5135671631975
 30
0.0
 11
1090.9546950963372
 21
574.3818533854032
 31
0.0
  0
LINE
  5
322
330
17
100
AcDbEntity
  8
0
100
AcDbLine
 10
1090.9546950963372
 20
574.3818533854032
 30
0.0
 11
1089.5912047611298
 21
574.2104103457359
 31
0.0
  0
LINE
  5
323
330
17
100
AcDbEntity
  8
0
100
AcDbLine
 10
1089.5912047611298
 20
574.2104103457359
 30
0.0
 11
1088.2332776229857
 21
573.9993831021245
 31
0.0
  0
LINE
  5
324
330
17
100
AcDbEntity
  8
0
100
AcDbLine
 10
1088.2332776229857
 20
573.9993831021245
 30
0.0
 11
1086.882062623834
 21
573.7489502046842
 31
0.0
  0
LINE
  5
325
330
17
100
AcDbEntity
  8
0
100
AcDbLine
 10
1086.882062623834
 20
573.7489502046842
 30
0.0
 11
1085.5387030264617
 21
573.4593235446491
 31
0.0
  0
LINE
  5
326
330
17
100
AcDbEntity
  8
0
100
AcDbLine
 10
1085.5387030264617
 20
573.4593235446491
 30
0.0
 11
1084.2043354472053
 21
573.1307481750886
 31
0.0
  0
LINE
  5
327
330
17
100
AcDbEntity
  8
0
100
AcDbLine
 10
1084.2043354472053
 20
573.1307481750886
 30
0.0
 11
1082.8800888942524
 21
572.7635021035678
 31
0.0
  0
LINE
  5
328
330
17
100
AcDbEntity
  8
0
100
AcDbLine
 10
1082.8800888942524
 20
572.7635021035678
 30
0.0
 11
1081.5670838123951
 21
572.3578960569293
 31
0.0
  0
LINE
  5
329
330
17
100
AcDbEntity
  8
0
100
AcDbLine
 10
1081.5670838123951
 20
572.3578960569293
 30
0.0
 11
1080.2664311350163
 21
571.9142732183798
 31
0.0
  0
LINE
  5
32A
330
17
100
AcDbEntity
  8
0
100
AcDbLine
 10
1080.2664311350163
 20
571.9142732183798
 30
0.0
 11
1078.9792313441333
 21
571.433008937133
 31
0.0
  0
LINE
  5
32B
330
17
100
AcDbEntity
  8
0
100
AcDbLine
 10
1078.9792313441333
 20
571.433008937133
 30
0.0
 11
1077.706573539277
 21
570.9145104108163
 31
0.0
  0
LINE
  5
32C
330
17
100
AcDbEntity
  8
0
100
AcDbLine
 10
1077.706573539277
 20
570.9145104108163
 30
0.0
 11
1076.4495345160076
 21
570.3592163409483
 31
0.0
  0
LINE
  5
32D
330
17
100
AcDbEntity
  8
0
100
AcDbLine
 10
1076.4495345160076
 20
570.3592163409483
 30
0.0
 11
1075.2091778548352
 21
569.7675965617499
 31
0.0
  0
LINE
  5
32E
330
17
100
AcDbEntity
  8
0
100
AcDbLine
 10
1075.2091778548352
 20
569.7675965617499
 30
0.0
 11
1073.986553021327
 21
569.1401516426192
 31
0.0
  0
LINE
  5
32F
330
17
100
AcDbEntity
  8
0
100
AcDbLine
 10
1073.986553021327
 20
569.1401516426192
 30
0.0
 11
1072.7826944781536
 21
568.4774124645985
 31
0.0
  0
LINE
  5
330
330
17
100
AcDbEntity
  8
0
100
AcDbLine
 10
1072.7826944781536
 20
568.4774124645985
 30
0.0
 11
1071.5986208098313
 21
567.7799397711984
 31
0.0
  0
LINE
  5
331
330
17
100
AcDbEntity
  8
0
100
AcDbLine
 10
1071.5986208098313
 20
567.7799397711984
 30
0.0
 11
1070.435333860895
 21
567.0483236939494
 31
0.0
  0
LINE
  5
332
330
17
100
AcDbEntity
  8
0
100
AcDbLine
 10
1070.435333860895
 20
567.0483236939494
 30
0.0
 11
1069.293817888242
 21
566.2831832530949
 31
0.0
  0
LINE
  5
333
330
17
100
AcDbEntity
  8
0
100
AcDbLine
 10
1069.293817888242
 20
566.2831832530949
 30
0.0
 11
1068.1750387283487
 21
565.4851658338354
 31
0.0
  0
LINE
  5
334
330
17
100
AcDbEntity
  8
0
100
AcDbLine
 10
1068.1750387283487
 20
565.4851658338354
 30
0.0
 11
1067.0799429800784
 21
564.654946638578
 31
0.0
  0
LINE
  5
335
330
17
100
AcDbEntity
  8
0
100
AcDbLine
 10
1067.0799429800784
 20
564.654946638578
 30
0.0
 11
1066.009457203763
 21
563.7932281156479
 31
0.0
  0
LINE
  5
336
330
17
100
AcDbEntity
  8
0
100
AcDbLine
 10
1066.009457203763
 20
563.7932281156479
 30
0.0
 11
1064.9644871372427
 21
562.9007393649458
 31
0.0
  0
LINE
  5
337
330
17
100
AcDbEntity
  8
0
100
AcDbLine
 10
1064.9644871372427
 20
562.9007393649458
 30
0.0
 11
1063.9459169295187
 21
561.9782355210564
 31
0.0
  0
LINE
  5
338
330
17
100
AcDbEntity
  8
0
100
AcDbLine
 10
1063.9459169295187
 20
561.9782355210564
 30
0.0
 11
1062.9546083926762
 21
561.0264971143295
 31
0.0
  0
LINE
  5
339
330
17
100
AcDbEntity
  8
0
100
AcDbLine
 10
1062.9546083926762
 20
561.0264971143295
 30
0.0
 11
1061.9914002727057
 21
560.0463294104768
 31
0.0
  0
LINE
  5
33A
330
17
100
AcDbEntity
  8
0
100
AcDbLine
 10
1061.9914002727057
 20
560.0463294104768
 30
0.0
 11
1061.0571075398384
 21
559.0385617292295
 31
0.0
  0
ENDSEC
  0
SECTION
  2
OBJECTS
  0
DICTIONARY
  5
A
330
0
100
AcDbDictionary
281
1
  3
ACAD_COLOR
350
B
  3
ACAD_GROUP
350
C
  3
ACAD_LAYOUT
350
D
  3
ACAD_MATERIAL
350
E
  3
ACAD_MLEADERSTYLE
350
F
  3
ACAD_MLINESTYLE
350
10
  3
ACAD_PLOTSETTINGS
350
11
  3
ACAD_PLOTSTYLENAME
350
12
  3
ACAD_SCALELIST
350
14
  3
ACAD_TABLESTYLE
350
15
  3
ACAD_VISUALSTYLE
350
16
  3
EZDXF_META
350
2D
  0
DICTIONARY
  5
B
330
A
100
AcDbDictionary
281
1
  0
DICTIONARY
  5
C
330
A
100
AcDbDictionary
281
1
  0
DICTIONARY
  5
D
330
A
100
AcDbDictionary
281
1
  3
Model
350
1A
  3
Layout1
350
1E
  0
DICTIONARY
  5
E
330
A
100
AcDbDictionary
281
1
  3
ByBlock
350
1F
  3
ByLayer
350
20
  3
Global
350
21
  0
DICTIONARY
  5
F
330
A
100
AcDbDictionary
281
1
  3
Standard
350
2C
  0
DICTIONARY
  5
10
330
A
100
AcDbDictionary
281
1
  3
Standard
350
22
  0
DICTIONARY
  5
11
330
A
100
AcDbDictionary
281
1
  0
ACDBDICTIONARYWDFLT
  5
12
330
A
100
AcDbDictionary
281
1
  3
Normal
350
13
100
AcDbDictionaryWithDefault
340
13
  0
ACDBPLACEHOLDER
  5
13
330
12
  0
DICTIONARY
  5
14
330
A
100
AcDbDictionary
281
1
  0
DICTIONARY
  5
15
330
A
100
AcDbDictionary
281
1
  0
DICTIONARY
  5
16
330
A
100
AcDbDictionary
281
1
  0
LAYOUT
  5
1A
330
D
100
AcDbPlotSettings
  1

  4
A3
  6

 40
7.5
 41
20.0
 42
7.5
 43
20.0
 44
420.0
 45
297.0
 46
0.0
 47
0.0
 48
0.0
 49
0.0
140
0.0
141
0.0
142
1.0
143
1.0
 70
1024
 72
1
 73
0
 74
5
  7

 75
16
 76
0
 77
2
 78
300
147
1.0
148
0.0
149
0.0
100
AcDbLayout
  1
Model
 70
1
 71
0
 10
0.0
 20
0.0
 11
420.0
 21
297.0
 12
0.0
 22
0.0
 32
0.0
 14
1e+20
 24
1e+20
 34
1e+20
 15
-1e+20
 25
-1e+20
 35
-1e+20
146
0.0
 13
0.0
 23
0.0
 33
0.0
 16
1.0
 26
0.0
 36
0.0
 17
0.0
 27
1.0
 37
0.0
 76
1
330
17
  0
LAYOUT
  5
1E
330
D
100
AcDbPlotSettings
  1

  4
A3
  6

 40
7.5
 41
20.0
 42
7.5
 43
20.0
 44
420.0
 45
297.0
 46
0.0
 47
0.0
 48
0.0
 49
0.0
140
0.0
141
0.0
142
1.0
143
1.0
 70
0
 72
1
 73
0
 74
5
  7

 75
16
 76
0
 77
2
 78
300
147
1.0
148
0.0
149
0.0
100
AcDbLayout
  1
Layout1
 70
1
 71
1
 10
0.0
 20
0.0
 11
420.0
 21
297.0
 12
0.0
 22
0.0
 32
0.0
 14
1e+20
 24
1e+20
 34
1e+20
 15
-1e+20
 25
-1e+20
 35
-1e+20
146
0.0
 13
0.0
 23
0.0
 33
0.0
 16
1.0
 26
0.0
 36
0.0
 17
0.0
 27
1.0
 37
0.0
 76
1
330
1B
  0
MATERIAL
  5
1F
102
{ACAD_REACTORS
330
E
102
}
330
E
100
AcDbMaterial
  1
ByBlock
  2

 70
0
 40
1.0
 71
1
 41
1.0
 91
-1023410177
 42
1.0
 72
1
  3

 73
1
 74
1
 75
1
 44
0.5
 73
0
 45
1.0
 46
1.0
 77
1
  4

 78
1
 79
1
170
1
 48
1.0
171
1
  6

172
1
173
1
174
1
140
1.0
141
1.0
175
1
  7

176
1
177
1
178
1
143
1.0
179
1
  8

270
1
271
1
272
1
145
1.0
146
1.0
273
1
  9

274
1
275
1
276
1
 42
1.0
 72
1
  3

 73
1
 74
1
 75
1
 94
63
  0
MATERIAL
  5
20
102
{ACAD_REACTORS
330
E
102
}
330
E
100
AcDbMaterial
  1
ByLayer
  2

 70
0
 40
1.0
 71
1
 41
1.0
 91
-1023410177
 42
1.0
 72
1
  3

 73
1
 74
1
 75
1
 44
0.5
 73
0
 45
1.0
 46
1.0
 77
1
  4

 78
1
 79
1
170
1
 48
1.0
171
1
  6

172
1
173
1
174
1
140
1.0
141
1.0
175
1
  7

176
1
177
1
178
1
143
1.0
179
1
  8

270
1
271
1
272
1
145
1.0
146
1.0
273
1
  9

274
1
275
1
276
1
 42
1.0
 72
1
  3

 73
1
 74
1
 75
1
 94
63
  0
MATERIAL
  5
21
102
{ACAD_REACTORS
330
E
102
}
330
E
100
AcDbMaterial
  1
Global
  2

 70
0
 40
1.0
 71
1
 41
1.0
 91
-1023410177
 42
1.0
 72
1
  3

 73
1
 74
1
 75
1
 44
0.5
 73
0
 45
1.0
 46
1.0
 77
1
  4

 78
1
 79
1
170
1
 48
1.0
171
1
  6

172
1
173
1
174
1
140
1.0
141
1.0
175
1
  7

176
1
177
1
178
1
143
1.0
179
1
  8

270
1
271
1
272
1
145
1.0
146
1.0
273
1
  9

274
1
275
1
276
1
 42
1.0
 72
1
  3

 73
1
 74
1
 75
1
 94
63
  0
MLINESTYLE
  5
22
102
{ACAD_REACTORS
330
10
102
}
330
10
100
AcDbMlineStyle
  2
Standard
 70
0
  3

 62
256
 51
90.0
 52
90.0
 71
2
 49
0.5
 62
256
  6
BYLAYER
 49
-0.5
 62
256
  6
BYLAYER
  0
MLEADERSTYLE
  5
2C
102
{ACAD_REACTORS
330
F
102
}
330
F
100
AcDbMLeaderStyle
179
2
170
2
171
1
172
0
 90
2
 40
0.0
 41
0.0
173
1
 91
-1056964608
 92
-2
290
1
 42
2.0
291
1
 43
8.0
  3
Standard
 44
4.0
300

342
29
174
1
175
1
176
0
178
1
 93
-1056964608
 45
4.0
292
0
297
0
 46
4.0
 94
-1056964608
 47
1.0
 49
1.0
140
1.0
294
1
141
0.0
177
0
142
1.0
295
0
296
0
143
3.75
271
0
272
9
273
9
  0
DICTIONARY
  5
2D
330
A
100
AcDbDictionary
280
1
281
1
  3
CREATED_BY_EZDXF
350
2E
  3
WRITTEN_BY_EZDXF
350
33D
  0
DICTIONARYVAR
  5
2E
330
2D
100
DictionaryVariables
280
0
  1
1.4.3 @ 2026-04-16T08:37:59.791016+00:00
  0
DICTIONARYVAR
  5
33D
330
2D
100
DictionaryVariables
280
0
  1
1.4.3 @ 2026-04-16T08:37:59.822491+00:00
  0
ENDSEC
  0
EOF
